<?xml version="1.0" encoding="utf-8"?>
<!-- Generator: Adobe Illustrator 22.1.0, SVG Export Plug-In . SVG Version: 6.00 Build 0)  -->
<svg version="1.1" id="Calque_1" xmlns="http://www.w3.org/2000/svg" xmlns:xlink="http://www.w3.org/1999/xlink" x="0px" y="0px"
	 viewBox="0 0 954 798" style="enable-background:new 0 0 954 798;" xml:space="preserve">
<style type="text/css">
	.st0{fill:none;stroke:#626262;stroke-linecap:round;stroke-linejoin:round;}
	.st1{fill:none;stroke:#626262;stroke-miterlimit:10;}
	.st2{opacity:0.48;fill:#F09587;enable-background:new    ;}
	.st3{opacity:0.67;fill:#5EB676;enable-background:new    ;}
	.st4{opacity:0.46;fill:#00A6C4;enable-background:new    ;}
	.st5{fill:#FFFFFF;stroke:#626262;stroke-linecap:round;stroke-linejoin:round;}
	.st6{enable-background:new    ;}
	.st7{fill:#626262;}
	.st8{fill:#FFFFFF;}
	.st9{fill:none;stroke:#FFFFFF;stroke-width:0.5;stroke-linecap:round;stroke-linejoin:round;}
	.st10{opacity:0.48;fill:#BFBBBB;enable-background:new    ;}
	.st11{opacity:0.46;fill:none;stroke:#00A6C4;stroke-width:5;stroke-miterlimit:10;enable-background:new    ;}
	.st12{fill:#616161;}
	.st13{fill:none;stroke:#616161;stroke-miterlimit:10;}
	.st14{fill:none;stroke:#626262;stroke-width:0.25;stroke-miterlimit:10;}
	.st15{fill:none;stroke:#626262;stroke-width:0.5;stroke-miterlimit:10;}
	.st16{fill:#E2E2E2;}
	.st17{fill:none;stroke:#FFFFFF;stroke-width:0.1;stroke-miterlimit:10;}
	.st18{fill:none;stroke:#FFFFFF;stroke-width:0.25;stroke-linecap:round;stroke-linejoin:round;stroke-miterlimit:10;}
	.st19{fill:#898890;}
	.st20{fill:#D8D7DA;}
	.st21{opacity:0.48;fill:#EF9486;enable-background:new    ;}
	.st22{opacity:0.46;fill:#00A5C3;enable-background:new    ;}
	.st23{fill:#DBDBDB;}
	.st24{fill:#FFFFFF;stroke:#2D2D2D;stroke-width:0.25;stroke-miterlimit:10;}
	.st25{fill:none;stroke:#727272;stroke-width:0.25;stroke-linecap:round;stroke-linejoin:round;}
</style>
<g>
	<title>pages non dispinubles_Plan de travail 1 copie 3</title>
	<g id="Calque_2_1_">
		<ellipse class="st0" cx="780.1" cy="585.2" rx="25.1" ry="8.5"/>
		<polygon class="st1" points="309.4,294.6 215.8,291.6 216,170.5 309.2,185.6 		"/>
		<polyline class="st1" points="309.4,294.6 303,295.8 209.2,294.2 209.4,176.4 216,170.5 		"/>
		<line class="st1" x1="215.8" y1="291.6" x2="209.2" y2="294.2"/>
		<polygon class="st1" points="309.4,353.6 215.8,361.3 216,478.9 309.2,462.7 		"/>
		<polyline class="st1" points="309.4,353.6 303,353.6 209.2,359.9 209.4,473 216,478.9 		"/>
		<line class="st1" x1="215.8" y1="361.3" x2="209.2" y2="359.9"/>
		<path class="st2" d="M308.5,203.8c1.1-3.1,1.5-6.5-0.3-9.5c-2.1-3.6-6.3-4.5-10.1-5.4c-10.7-2.6-21.6-4.2-32.6-4.7
			c-5.3-0.3-10.6-0.3-15.9,0c-4,0.3-6.8,2.1-8.3,5.9c-0.3,0.8-0.6,1.6-0.8,2.4c-2.7,4.9-2.4,12.1-3.1,17v0.4c-0.2,1-0.4,1.9-0.5,2.9
			c-1.1,5.7-2.6,12.8,1.5,16.9c4.7,4.7,13.4,4,19.4,4.5l1.8,0.1c9,1.9,18.1,3.4,27.2,4.3c5.9,0.6,13.9,2.5,17.1-2.7
			c1.1-0.6,1.9-1.7,2-3l2.5-28.4C308.4,204.3,308.4,204.1,308.5,203.8z"/>
		<polygon class="st1" points="616.4,596.8 722.5,613.5 747.6,479.8 640.7,473 		"/>
		<polyline class="st1" points="616.4,596.8 623.4,599.9 729.3,618.3 753.8,488 747.6,479.8 		"/>
		<line class="st1" x1="722.5" y1="613.5" x2="729.3" y2="618.3"/>
		<path class="st2" d="M718.7,499.5c1.1-3.6,1.4-7.5-0.7-10.8c-2.6-4-7.3-4.8-11.7-5.7c-12.3-2.5-24.8-3.8-37.3-3.9
			c-6-0.1-12,0.1-18,0.7c-4.5,0.5-7.7,2.7-9.2,7c-0.3,0.9-0.6,1.9-0.9,2.8c-2.8,5.6-2.3,13.9-2.8,19.5v0.4c-0.2,1.1-0.3,2.2-0.4,3.3
			c-1,6.5-2.4,14.6,2.4,19.2c5.5,5.1,15.4,4,22.2,4.3l2,0.1c10.3,1.8,20.7,3.1,31.2,3.8c6.7,0.5,15.9,2.2,19.3-3.8
			c1.3-0.7,2.1-2.1,2.1-3.5l1.6-32.4C718.6,500,718.7,499.7,718.7,499.5z"/>
		<ellipse class="st1" cx="177.6" cy="555.9" rx="23.5" ry="6.8"/>
		<path class="st1" d="M176.1,555.9c0,0,8.7-15-5-33.7c-8.1-10.6-9.6-24.8-3.8-36.9"/>
		<path class="st1" d="M184,554.4c0,0-2.1-79.8,4.3-90.2c6.1-10,9.9-0.5,10.2,3.3s-1.6,8.6-4.9,4c-2-2.7-3.2-5.8-3.5-9.1"/>
		<path class="st1" d="M171.1,468.3c0,0-4.1-5.5-11.3,1.9s-5.8,12.9-5.8,12.9c1.3-3.5,4.8-5.8,8.5-5.6
			C169.2,477.4,173.4,475.1,171.1,468.3z"/>
		<path class="st1" d="M173.1,487.8c0,0-6.5,1-6.9-7.6c0,0,0.6-6.9,6.7-2.4C172.9,477.8,176.7,481.5,173.1,487.8z"/>
		<path class="st1" d="M184.4,489c0,0-10.7-5.2-12.7,5.9s8.5,4.4,8.5,4.4S179.6,489.6,184.4,489"/>
		<path class="st1" d="M164,503.9c0,0,10.6-5.2,12.6,5.9c2,11.1-8.5,4.4-8.5,4.4S168.8,504.5,164,503.9"/>
		<path class="st1" d="M191.3,502.6c0,0-6.5,1-6.9-7.6c0,0,0.6-6.9,6.7-2.4C191.1,492.6,194.9,496.3,191.3,502.6z"/>
		<path class="st1" d="M154.1,555.9l7.5,51.3c0,0,16.7,14.3,34,0l5.5-51.3"/>
		<path class="st3" d="M184.9,497.6c1.2-1.4,1.6-3.4,1.1-5.2c-0.9-3.1-4.1-4.9-7.2-4.1c-5.4,1.3-13.4,6.7-10.7,13.1
			c1.7,3.6,5.9,5.1,9.5,3.5c1.6-0.7,3-2,3.8-3.6c0-0.1,0.1-0.2,0.1-0.3C183,500.5,184.3,499.2,184.9,497.6z"/>
		<path class="st3" d="M196.3,461.7c-1-0.8-2.3-1.1-3.5-0.8c-2.1,0.6-3.3,2.8-2.8,4.9c0.9,3.6,4.5,9.1,8.9,7.2
			c2.4-1.1,3.5-4,2.3-6.4c-0.5-1.1-1.3-2-2.4-2.6l-0.2-0.1C198.2,462.9,197.4,462.1,196.3,461.7z"/>
		<path class="st3" d="M190.4,496.1c-1-0.8-2.3-1.1-3.5-0.8c-2.1,0.6-3.3,2.8-2.8,4.9c0.9,3.6,4.5,9.1,8.9,7.2
			c2.4-1.1,3.5-4,2.3-6.4c-0.5-1.1-1.3-2-2.4-2.6h-0.2C192.3,497.4,191.5,496.6,190.4,496.1z"/>
		<path class="st3" d="M171.2,475.4c1.4-1.4,2-3.5,1.3-5.4c-1.5-3.4-5.2-5.2-8.7-4.2c-6.5,1.4-16.2,6.9-12.9,13.6
			c1.9,3.9,7.2,5.2,11.5,3.6c1.9-0.7,3.5-2,4.6-3.7c0-0.1,0.1-0.2,0.1-0.3C168.9,478.4,170.4,477.1,171.2,475.4z"/>
		<path class="st3" d="M172,504c-1-0.8-2.3-1.1-3.5-0.8c-2.1,0.6-3.3,2.8-2.8,4.9c0.9,3.6,4.5,9.1,8.9,7.3c2.4-1.1,3.5-4,2.3-6.5
			c-0.5-1.1-1.3-2-2.4-2.5l-0.2-0.1C173.9,505.3,173.1,504.4,172,504z"/>
		<ellipse class="st4" cx="458.3" cy="656.6" rx="129.5" ry="38.1"/>
		<path class="st5" d="M776.5,375.4V584c0,0,4.3,2.6,6.9,0s0-208.6,0-208.6"/>
		<path class="st0" d="M757,310.5l-15.1,57.6l11.9,4.3l25,3l22.4-1.3l15.8-3.5l-14.2-60C802.8,310.5,777.8,304,757,310.5z"/>
		<line class="st0" x1="791.9" y1="318.1" x2="800.4" y2="369.8"/>
		<line class="st0" x1="778.8" y1="318.1" x2="776.7" y2="369.8"/>
		<line class="st0" x1="765.8" y1="318.1" x2="756.2" y2="366.1"/>
		<path class="st4" d="M808.4,371.6c1.4,0.5,3.1-0.2,3.6-1.6c0-0.1,0.1-0.2,0.1-0.4c0.9-2.5,0.2-6.3-0.3-9.7
			c-1.6-9.7-3.6-19.5-6-29.1c-1.2-4.6-2.4-9.3-3.8-13.8c-1.1-3.4-2.5-5.5-4.3-6.2c-0.4-0.1-0.8-0.2-1.2-0.3
			c-2.5-1.4-5.4,0.1-7.5,0.4h-0.2c-0.4,0-0.8,0-1.2,0.1c-2.5,0.1-5.7,0-6.3,4.3c-0.8,5.9-0.6,11.8,0.6,17.6c0.1,0.5,0.2,1,0.4,1.6
			c1.4,8.2,2.9,21.7,4.8,29.9c1.2,5.2-1.2,6.6,1.7,8.5c0.5,0.8,1.1,1.3,1.7,1.2l17.8-2.5C808.2,371.6,808.3,371.6,808.4,371.6z"/>
		<line class="st0" x1="796.2" y1="378" x2="796.2" y2="414.3"/>
		<polyline class="st0" points="145.3,37.9 340.8,101 340.8,536.5 205.2,590.1 		"/>
		<line class="st0" x1="340.8" y1="101" x2="753.8" y2="72.1"/>
		<line class="st0" x1="451.7" y1="541" x2="616.4" y2="555.1"/>
		<line class="st0" x1="747.6" y1="566.7" x2="772.7" y2="568.8"/>
		<g>
			<g class="st6">
				<path class="st7" d="M222,258c0.5-0.5,3.1-1.7,3.5-1.3c0.1,0.1,0.1,0.1,0.1,0.2c0,0.3,0,0.5,0.1,0.8c0.8,2.9,4.2,8.8,7.3,13.4
					c-1.7-3.2-3.3-6.6-4.5-9.6c-1-2.4-1.5-4.8-1.6-6.6c-0.1-1.3,0.4-2.5,1.1-3.2c4.1-4.1,10,4.9,8.7,11c1-0.2,2.2-0.1,3.1,0.4
					c3.8,1.9,6.7,8.8,2.5,13c-0.8,0.8-1.9,1.3-3,1.2c-0.9-0.1-1.6-1.2-0.8-1.1c0.8,0.1,1.5-0.2,1.9-0.7c3.1-3.1-2.4-12.6-4.6-10.4
					c-0.4,0.6-1,1.2-1.6,1.4c-0.5,0.1-1.3-0.1-1.4-0.4c-0.2-0.4,0.3-1.3,0.8-1.7c1.3-4.4-2.8-12.6-5-10.4c-0.8,0.8-0.4,3.4,1,7.1
					c2,5.1,5.3,11.5,8,15.8c0.2,0.3,0.1,0.6-0.2,0.9c-0.7,0.7-2.4,1.2-3,0.6C229.9,273.7,220.9,259.1,222,258z"/>
			</g>
			<g class="st6">
				<path class="st7" d="M238.9,255.3c-0.1-0.3-0.1-0.6,0-0.7c0.5-0.5,1.9-1,2.6-1c0.5-0.1,0.5,0.6,0.7,1c0.8,1.8,1.9,3.9,3,5.7
					c-1.1-3.1-2.3-7.1-2.1-9.5c0-0.3,0.1-0.5,0.3-0.7c0.3-0.3,1.6-1,2.4-1c0.7,0,0.8,0.5,0.7,1c-0.1,1.7,0.8,3.6,1.7,4.6
					c0.7,0.7,1.2,0.8,1.5,0.5c1.1-1.1,0.1-4.4-0.3-5.8c-0.1-0.7,0.9-0.9,1.1-0.2c0.4,1.6,1.4,4.9,0.5,6.6c-0.6,1.3-3.1,2.2-4.5,1.1
					c-0.9-0.7-1.8-2.4-2.2-3.7c-0.1-0.4-0.2-0.2-0.1,0c0.4,3.9,3,10.8,4.7,12.7c0.3,0.3,0.1,0.5,0,0.6c-0.7,0.7-2.5,1-3,0.4
					C243.2,263.7,240.4,259,238.9,255.3z"/>
				<path class="st7" d="M244.5,237.5c0.3-0.3,1.5-0.7,2.4-0.9c0.7-0.1,1,0.2,1.2,1c0.3,1.3,1.1,5,0.4,5.7c-1.5,1.6-3.6-3.4-3.9-4.4
					C244.4,238.2,244.3,237.7,244.5,237.5z M253.3,256.2c-2.2-3-4.3-6.7-5.6-9.8c-0.1-0.3-0.1-0.6,0.1-0.8c0.5-0.5,1.9-0.9,2.5-1
					c0.5-0.1,0.5,0.6,0.7,1c1.5,3.3,3.9,7.3,5.5,9.7c0.3,0.5,0.6,0.2,0.6-0.2c0-3.3-1.9-7.8-3.1-10.4c-0.3-0.7,0.7-1.1,1-0.4
					c1.1,2.5,4.9,11.1,2.5,13.4c-1,1-2.6,0.6-3.4-0.4C253.9,256.9,253.6,256.6,253.3,256.2z"/>
				<path class="st7" d="M254.2,239c1.3-1.3,3.8-1.4,5-0.3c1.5,1.5,2.3,3.9,1.7,4.5c-0.4,0.4-1.6,0.7-2.4,0.7
					c-0.4,0-0.6-0.4-0.4-0.9c0.2-0.9,0.1-2-0.3-2.8c-0.4-1-1-1.2-1.3-0.9c-2.3,2.3,3.6,13.3,6.9,10c2.4-2.4-0.4-8.6-1.8-12.1
					c-0.2-0.6,0.7-1,1-0.4c1.5,3.6,5,10.9,1.7,14.2C257.6,257.7,250.5,242.8,254.2,239z"/>
				<path class="st7" d="M263,231.2c1.7-1.7,4.3-1.9,5.5-0.7s2.3,2.9,3,4.6c0.1-2.3-0.2-4.6-1.1-6.8c-0.2-0.6,0.7-1,1-0.4
					c1.3,3,1.5,6.2,0.8,9.4c0.7,2.7,0.4,5.3-1.2,6.9c-2,2-5.1,1.2-6.5-0.2c-2.7-2.7-4.9-7.7-3.8-11.2
					C261.1,231.9,262.1,231.3,263,231.2z M268.8,242.5c0.5-0.7,0.8-1.1,1.2-1.9c-0.4-2.4-2.3-5.8-4.1-7.6s-2.9-0.9-2.8,1.1
					c0.2,3.3,3.3,7.9,5.4,8.7C268.7,242.7,268.7,242.6,268.8,242.5z"/>
				<path class="st7" d="M263.2,216.7c0.5-0.5,3.1-1.7,3.5-1.3c0.1,0.1,0.1,0.1,0.1,0.2c0,0.3,0,0.5,0.1,0.8
					c1.1,3.8,7,13.3,10.3,17.6c0.5,0.7,0.8,0.7,0.8-0.2c-0.1-3.3-2-7.6-3.1-10.1c-0.3-0.7,0.7-1.1,1-0.4c1.1,2.5,4.9,11.1,2.5,13.4
					c-1.5,1.5-3.1-0.1-4.1-1.3C269.5,229.8,262.2,217.8,263.2,216.7z"/>
				<path class="st7" d="M283.5,226c0-0.1-0.1-0.1-0.2-0.2c0.9,2.5,1.3,4.9,0,6.2c-1.1,1.1-2.4,1-3.5,0.1c-3.3-2.6-6.5-8.9-5.3-13
					c0.4-1.3,2-1.7,3.5-2.2c0-0.1-0.1-0.4-0.2-0.5c-0.1-0.3-0.1-0.6,0.1-0.8c0.5-0.5,1.9-0.9,2.5-1c0.5-0.1,0.5,0.6,0.7,1
					c1.5,3.3,4,7.2,5.6,9.5c0.3,0.5,0.6,0.2,0.6-0.2c0-3.3-2.1-7.7-3.2-10.3c-0.3-0.7,0.7-1.1,1-0.4c1.1,2.5,5,10.9,2.6,13.3
					c-1,1-2.6,0.6-3.4-0.4C284.1,226.8,283.8,226.4,283.5,226z M278.9,218.9c-0.2-0.3-0.3-0.7-0.4-1c-0.4-0.1-0.7,0-1,0.3
					c-1.9,1.9,1.4,8,3.6,10.6c0.3,0.3,1.2,1.4,1.6,0.9C284,228.4,279.8,220.6,278.9,218.9z"/>
				<path class="st7" d="M292.4,222.9c-1.1,1.1-2.4,1-3.5,0.1c-3.3-2.7-6.5-8.9-5.3-13.1c0.2-0.7,0.7-1.1,1.5-1.4
					c0.6-0.3,1.3-0.5,2-0.7c-0.1-0.1-0.2-0.3-0.2-0.5c-0.1-0.3-0.1-0.6,0-0.7c0.5-0.5,1.9-0.9,2.6-1c0.3-0.1,0.5,0.2,0.5,0.5
					c0.1,0.3,0.2,0.6,0.4,0.9c1.3,2.5,2.8,5.1,4.1,7.1l0.2,0.3c0.1-2.8-0.2-5.8-1.6-8.9c-0.3-0.6,0.7-1.1,0.9-0.4
					c1.7,3.8,1.9,7.5,1.6,10.9c1.4,2.2,2.7,4.4,3.8,6.7c1.1,2.5,1.5,4.6-0.7,6.7c-0.7,0.7-1.7,1.1-2.7,0.9c-1.9-0.3-3-2.3-3.1-4.1
					c-0.2-2.1,0.7-4.4,1-6.4c-0.5-1-1.1-2-1.7-3C293.2,219.3,293.6,221.7,292.4,222.9z M290.1,219.8c0.3,0.3,1.2,1.4,1.6,0.9
					c1.3-1.3-2.9-9.1-3.7-10.8c-0.2-0.3-0.3-0.7-0.5-1c-0.4-0.1-0.7,0-1,0.3C284.7,211.1,287.9,217.2,290.1,219.8z M297.2,225.7
					c-0.6-1.3-1.4-2.8-2.3-4.4c-0.4,2.1-1.3,5.3,0.5,7c0.5,0.4,1.3,0.7,1.9,0.2C297.7,228,297.9,227,297.2,225.7z"/>
				<path class="st7" d="M293.3,199.9c1-1,4.3-1.5,5.5-0.3c2.5,2.5,1.5,7.5-0.6,9.6c1.4,1.5,3,2.2,4.3,1c2.2-2.2-0.3-8.7-1.8-12.1
					c-0.3-0.6,0.7-1,1-0.4c1.7,3.7,4.8,11.1,1.7,14.2C296.7,218.6,289.4,203.8,293.3,199.9z M297.6,208.6c1.5-1.5,0.9-5.3-1.3-7.5
					c-0.6-0.6-1.2-0.3-1.3,0.4C294.7,203.4,296,206.5,297.6,208.6z"/>
			</g>
		</g>
		<g>
			<g class="st6">
				<path class="st7" d="M230.4,409.9c0.6-0.1,1.3,0.1,1.6,0.5c1.7,1.7,1.3,6.1,3,7.8c0.1,0.1,0.1,0.2,0,0.3
					c-0.6,0.6-2.2,0.9-2.9,0.2c-1.7-1.7-0.5-5.3-2-6.7c-0.5-0.5-1.3-0.9-2-0.2c-4.6,4.6,4.1,21.3,9.2,16.2c0.6-0.6,1.2-1.5,1.3-2.4
					c0-0.2,0.1-0.2,0.3-0.1c0.1,0,0.2,0.2,0.3,0.4c0.7,1.3,0,2.7-1,3.7c-8,8-19.3-11.3-12.2-18.3C227.4,409.8,229,409.3,230.4,409.9
					z"/>
			</g>
			<g class="st6">
				<path class="st7" d="M238,411.5c1.5-1.5,3.7-1.7,4.8-0.6s2,2.5,2.6,4c0.1-2-0.2-4-1-5.8c-0.2-0.5,0.6-0.9,0.9-0.4
					c1.1,2.6,1.3,5.4,0.7,8c0.6,2.3,0.4,4.6-1,6c-1.7,1.7-4.4,1-5.6-0.2c-2.3-2.3-4.2-6.6-3.2-9.6
					C236.4,412.1,237.2,411.6,238,411.5z M243,421.2c0.5-0.6,0.7-1,1.1-1.7c-0.4-2.1-2-5-3.5-6.5c-1.6-1.6-2.5-0.8-2.4,1
					c0.1,2.8,2.8,6.8,4.7,7.5C242.9,421.4,243,421.3,243,421.2z"/>
				<path class="st7" d="M251.8,410.8c0-0.1-0.1-0.1-0.1-0.2c0.7,2.1,1.1,4.2,0,5.3c-0.9,0.9-2.7,0.8-3.3,0.1
					c-0.3-0.4-0.5-0.7-0.8-1c-1.9-2.5-3.7-5.7-4.8-8.4c-0.1-0.3-0.1-0.5,0-0.7c0.4-0.4,1.6-0.8,2.2-0.8c0.4,0,0.5,0.5,0.6,0.8
					c1.2,2.5,2.9,5.5,4.3,7.5c0.4,0.7,0.9,0.8,1.2,0.5c1.1-1.1-2.4-7.9-3.1-9.4c-0.4-0.8-0.7-1.5-1-2.2c-0.1-0.3-0.1-0.5,0-0.7
					c0.4-0.4,1.6-0.8,2.2-0.8c0.4-0.1,0.5,0.5,0.6,0.8c1.3,2.9,3.3,6.3,4.7,8.3c0.3,0.4,0.5,0.2,0.5-0.2c0-2.8-1.7-6.7-2.7-8.9
					c-0.2-0.6,0.6-0.9,0.8-0.4c1,2.2,4.2,9.5,2.2,11.5c-0.8,0.8-2.2,0.5-2.9-0.3C252.4,411.5,252.1,411.2,251.8,410.8z"/>
			</g>
			<g class="st6">
				<path class="st7" d="M251,398.5c-0.1-0.3-0.1-0.5,0-0.6c0.5-0.5,1.7-0.8,2.2-0.8c0.4,0,0.5,0.5,0.6,0.8c0.7,1.6,1.6,3.3,2.6,4.9
					c-1-2.7-2-6.1-1.8-8.2c0-0.2,0.1-0.4,0.3-0.6c0.3-0.3,1.4-0.8,2.1-0.8c0.6,0,0.7,0.4,0.6,0.9c-0.1,1.5,0.7,3.1,1.4,3.9
					c0.6,0.6,1,0.7,1.3,0.4c1-1,0-3.8-0.3-5c-0.1-0.6,0.8-0.8,0.9-0.2c0.3,1.4,1.2,4.2,0.4,5.7c-0.5,1.1-2.7,1.9-3.9,0.9
					c-0.8-0.6-1.5-2.1-1.9-3.2c-0.1-0.3-0.1-0.2-0.1,0c0.3,3.4,2.6,9.3,4,10.9c0.2,0.2,0.1,0.4,0,0.5c-0.6,0.6-2.1,0.8-2.6,0.4
					C254.7,405.8,252.3,401.8,251,398.5z"/>
			</g>
			<g class="st6">
				<path class="st7" d="M263.3,400.2c-0.2-0.9,0.2-1.8,0.8-2.5c0.4-0.6,1-1.1,1.3-1.7c-1.6-1.2-4.1-0.4-5.9-2.3
					c-1.5-1.5-1.1-3.7,0.2-5c0.8-0.8,3.1-0.7,4,0.1c0.5,0.5,0.8,1.9,0.5,2.2c-0.5,0.5-1.6,0.9-1.8,0.7v-0.1c0.4-0.4,0.1-1.4-0.4-1.8
					c-0.3-0.3-0.6-0.4-0.9-0.1c-0.6,0.6,0.2,1.9,0.6,2.3c1.2,1.2,3.4,0.9,5,1.4c0.6-2,0.2-3.9-0.8-5.8c-0.3-0.5,0.5-0.9,0.8-0.4
					c1.2,2.4,1.4,4.5,0.8,6.6c2.4,1.8,1.4,5.3-0.4,7.1C265.5,402.5,263.7,401.8,263.3,400.2z M264.4,398.8c-0.8,1.3,1,2.4,1.7,0.9
					c0.4-0.9,0.4-2.1-0.1-3C265.7,397.4,264.8,398.1,264.4,398.8z"/>
				<path class="st7" d="M277,385.3c0.8,2.1,1.1,4.3,0,5.4c-1.2,1.2-2.6,0.8-3.6-0.2c-2.7-2.4-5.2-7.3-4.2-10.6
					c0.3-1.2,1.8-1.5,2.8-1.8c-2.6-4.1-4.7-8-4.1-8.5c0.5-0.5,2.7-1.5,3-1.1c0,0,0.1,0.1,0,0.2c0,0.2,0,0.4,0.1,0.7
					c0.9,3.3,6,11.4,8.9,15.1c0.4,0.6,0.7,0.6,0.6-0.1c-0.1-2.8-1.7-6.5-2.7-8.7c-0.2-0.6,0.6-0.9,0.8-0.4c1,2.2,4.2,9.5,2.2,11.5
					c-1.3,1.3-2.7-0.1-3.5-1.1C277.2,385.6,277.1,385.5,277,385.3z M274.6,387.9c0.7,0.9,1.4,1.2,1.8,0.8c0.2-0.2,0.3-0.8,0.1-1.6
					c-0.3-1.3-1-3.1-1.7-4.7c-0.8-1-1.5-2.2-2.3-3.3c-0.3-0.1-0.7-0.1-0.9,0.1C270.1,380.8,272.8,385.6,274.6,387.9z"/>
				<path class="st7" d="M277.9,370.8c0.9-0.9,3.7-1.3,4.7-0.2c2.2,2.2,1.3,6.4-0.5,8.3c1.2,1.3,2.6,1.9,3.7,0.8
					c1.9-1.9-0.2-7.5-1.6-10.4c-0.3-0.5,0.6-0.9,0.8-0.3c1.5,3.2,4.1,9.6,1.5,12.2C280.9,386.8,274.6,374.1,277.9,370.8z
					 M281.7,378.2c1.3-1.3,0.8-4.6-1.1-6.5c-0.5-0.5-1.1-0.3-1.1,0.4C279.2,373.7,280.3,376.4,281.7,378.2z"/>
			</g>
			<g class="st6">
				<path class="st7" d="M258.6,438.1c0.6-0.1,1.3,0.1,1.6,0.5c1.7,1.7,1.3,6.1,3,7.8c0.1,0.1,0.1,0.2,0,0.3
					c-0.6,0.6-2.2,0.9-2.9,0.2c-1.7-1.7-0.5-5.3-2-6.7c-0.5-0.5-1.3-0.9-2-0.2c-4.6,4.6,4.1,21.3,9.2,16.2c0.6-0.6,1.2-1.5,1.3-2.4
					c0-0.2,0.1-0.2,0.3-0.1c0.1,0,0.2,0.2,0.3,0.4c0.7,1.3,0,2.7-1,3.7c-8,8-19.3-11.3-12.2-18.3C255.6,438,257.2,437.5,258.6,438.1
					z"/>
			</g>
			<g class="st6">
				<path class="st7" d="M272.5,446.6c0-0.1-0.1-0.1-0.1-0.2c0.7,2.1,1.1,4.2,0,5.3c-0.9,0.9-2.7,0.8-3.3,0.1
					c-0.3-0.4-0.5-0.7-0.8-1c-1.9-2.5-3.7-5.7-4.8-8.4c-0.1-0.3-0.1-0.5,0-0.7c0.4-0.4,1.6-0.8,2.2-0.8c0.4,0,0.5,0.5,0.6,0.8
					c1.2,2.5,2.9,5.5,4.3,7.6c0.4,0.7,0.9,0.8,1.2,0.5c1.1-1.1-2.4-7.9-3.1-9.4c-0.4-0.8-0.7-1.5-1-2.2c-0.1-0.3-0.1-0.5,0-0.7
					c0.4-0.4,1.6-0.8,2.2-0.8c0.4-0.1,0.5,0.5,0.6,0.8c1.3,2.9,3.3,6.3,4.7,8.3c0.3,0.4,0.5,0.2,0.5-0.2c0-2.8-1.7-6.7-2.7-8.9
					c-0.2-0.6,0.6-0.9,0.8-0.4c1,2.2,4.2,9.5,2.2,11.5c-0.8,0.8-2.2,0.5-2.9-0.3C273,447.3,272.8,446.9,272.5,446.6z"/>
				<path class="st7" d="M268.9,426.7c0.3-0.2,1.3-0.6,2-0.8c0.6-0.1,0.9,0.2,1.1,0.9c0.3,1.1,0.9,4.3,0.4,4.9
					c-1.3,1.4-3.1-2.9-3.4-3.8C268.7,427.3,268.7,426.8,268.9,426.7z M276.4,442.7c-1.9-2.6-3.7-5.7-4.8-8.4c-0.1-0.3-0.1-0.5,0-0.7
					c0.4-0.4,1.6-0.8,2.2-0.8c0.4-0.1,0.5,0.5,0.6,0.8c1.3,2.9,3.3,6.3,4.7,8.3c0.3,0.4,0.5,0.2,0.5-0.2c0-2.9-1.7-6.7-2.7-8.9
					c-0.2-0.6,0.6-0.9,0.8-0.4c1,2.2,4.2,9.5,2.2,11.5c-0.8,0.8-2.2,0.5-2.9-0.3C276.9,443.4,276.7,443,276.4,442.7z"/>
				<path class="st7" d="M280.4,439.6c-0.2-0.9,0.2-1.8,0.8-2.5c0.4-0.6,1-1.1,1.3-1.7c-1.6-1.2-4.1-0.4-5.9-2.3
					c-1.5-1.5-1.1-3.7,0.2-5c0.8-0.8,3.1-0.7,4,0.1c0.5,0.5,0.8,1.9,0.5,2.2c-0.5,0.5-1.6,0.9-1.8,0.7V431c0.4-0.4,0.1-1.4-0.4-1.8
					c-0.3-0.3-0.6-0.4-0.9-0.1c-0.6,0.6,0.2,1.9,0.6,2.3c1.2,1.2,3.4,0.9,5,1.4c0.6-2,0.2-3.9-0.8-5.8c-0.3-0.5,0.5-0.9,0.8-0.4
					c1.2,2.4,1.4,4.5,0.8,6.6c2.4,1.8,1.4,5.3-0.4,7.1C282.6,441.8,280.8,441.1,280.4,439.6z M281.5,438.1c-0.8,1.3,1,2.4,1.7,0.9
					c0.4-0.9,0.4-2.1-0.1-3C282.8,436.7,281.9,437.4,281.5,438.1z"/>
				<path class="st7" d="M278.6,416.9c0.3-0.2,1.3-0.6,2-0.8c0.6-0.1,0.9,0.2,1.1,0.9c0.3,1.1,0.9,4.3,0.4,4.9
					c-1.3,1.4-3.1-2.9-3.4-3.8C278.5,417.5,278.5,417.1,278.6,416.9z M286.2,432.9c-1.9-2.6-3.7-5.7-4.8-8.4c-0.1-0.3-0.1-0.5,0-0.7
					c0.4-0.4,1.6-0.8,2.2-0.8c0.4-0.1,0.5,0.5,0.6,0.8c1.3,2.9,3.3,6.3,4.7,8.3c0.3,0.4,0.5,0.2,0.5-0.2c0-2.9-1.7-6.7-2.7-8.9
					c-0.2-0.6,0.6-0.9,0.8-0.4c1,2.2,4.2,9.5,2.2,11.5c-0.8,0.8-2.2,0.5-2.9-0.3C286.7,433.6,286.5,433.3,286.2,432.9z"/>
				<path class="st7" d="M285.4,420.6c-0.1-0.3-0.1-0.5,0-0.6c0.5-0.5,1.7-0.8,2.2-0.8c0.4,0,0.5,0.5,0.6,0.8
					c0.7,1.6,1.6,3.3,2.6,4.9c-1-2.7-2-6.1-1.8-8.2c0-0.2,0.1-0.4,0.3-0.6c0.3-0.3,2-1.2,2.4-0.7c0.1,0.1,0.1,0.2,0.2,0.3
					c0.1,0.3,0.2,0.5,0.3,0.8c1.3,2.8,3.2,5.9,4.6,7.9c0.3,0.4,0.5,0.3,0.5-0.2c0-2.9-1.7-6.7-2.7-8.9c-0.2-0.6,0.6-0.9,0.8-0.4
					c1,2.2,4.2,9.5,2.2,11.5c-0.8,0.8-2.1,0.8-2.6,0.1c-1.8-2.2-3.9-5.6-5.2-8.3c0.1,3.3,2.6,9.7,4.1,11.4c0.2,0.2,0.1,0.4,0,0.5
					c-0.6,0.6-2.1,0.8-2.6,0.4C289.1,427.8,286.6,423.8,285.4,420.6z"/>
				<path class="st7" d="M294.8,410.3c0.9-0.9,3.7-1.3,4.7-0.2c2.2,2.2,1.3,6.4-0.5,8.3c1.2,1.3,2.6,1.9,3.7,0.8
					c1.9-1.9-0.2-7.5-1.6-10.4c-0.3-0.5,0.6-0.9,0.8-0.3c1.5,3.2,4.1,9.6,1.5,12.2C297.7,426.3,291.4,413.7,294.8,410.3z
					 M298.5,417.8c1.3-1.3,0.8-4.6-1.1-6.5c-0.5-0.5-1.1-0.3-1.1,0.4C296,413.3,297.1,416,298.5,417.8z"/>
			</g>
		</g>
		<g>
			<g class="st6">
				<path class="st7" d="M630.6,557.8c0.6-0.5,3.3-1.3,3.6-0.8c0,0.1,0.1,0.1,0.1,0.2c0,0.3,0,0.5,0,0.8c0.4,3,3.1,9.2,5.6,14.2
					c-1.3-3.4-2.4-7-3.2-10.1c-0.6-2.5-0.9-4.9-0.8-6.7c0.1-1.3,0.7-2.4,1.6-3.1c4.6-3.5,9.3,6.2,7.2,12c1.1,0,2.2,0.2,3,0.8
					c3.5,2.4,5.5,9.6,0.8,13.2c-0.9,0.7-2,1.1-3.1,0.8c-0.9-0.2-1.4-1.4-0.6-1.2c0.8,0.2,1.5-0.1,2-0.4c3.5-2.7-0.8-12.8-3.3-10.9
					c-0.4,0.5-1.2,1-1.7,1.2c-0.5,0.1-1.2-0.3-1.3-0.6c-0.1-0.4,0.5-1.2,1-1.6c1.8-4.2-1.1-12.9-3.6-11c-0.9,0.7-0.9,3.4,0.1,7.1
					c1.4,5.3,3.8,12.1,6,16.7c0.2,0.3,0.1,0.6-0.3,0.8c-0.7,0.6-2.5,0.9-3.1,0.2C636.4,574.5,629.3,558.8,630.6,557.8z"/>
			</g>
			<g class="st6">
				<path class="st7" d="M657.4,563.5c0-0.1-0.1-0.1-0.1-0.2c0.6,2.6,0.6,5-0.8,6.1c-1.2,0.9-2.5,0.7-3.5-0.3c-3-3-5.4-9.7-3.6-13.6
					c0.5-1.3,2.2-1.4,3.7-1.7c0-0.1-0.1-0.4-0.2-0.5c-0.1-0.3,0-0.6,0.2-0.8c0.6-0.5,2-0.7,2.6-0.6c0.5,0,0.5,0.7,0.6,1.1
					c1.1,3.5,3,7.6,4.4,10.2c0.3,0.5,0.5,0.3,0.6-0.1c0.4-3.3-1.1-7.9-1.9-10.6c-0.2-0.7,0.8-1,1-0.3c0.8,2.7,3.5,11.5,0.9,13.5
					c-1.1,0.8-2.6,0.3-3.3-0.8C657.9,564.3,657.6,563.9,657.4,563.5z M653.8,555.9c-0.1-0.3-0.2-0.7-0.3-1c-0.3-0.1-0.7-0.1-1,0.2
					c-2.1,1.6,0.3,8.2,2.2,10.9c0.2,0.4,1,1.5,1.5,1.1C657.6,565.9,654.5,557.7,653.8,555.9z"/>
				<path class="st7" d="M653.8,539.9c0.6-0.5,3.3-1.3,3.6-0.8c0,0.1,0.1,0.1,0.1,0.2c0,0.3,0,0.5,0,0.8c0.3,2.5,2.3,7.4,4.4,11.8
					c-0.2-1.3-0.5-2.6-0.6-3.9c-0.1-1.4,0.1-2.7,0.9-3.3c1.3-1,3.8-0.2,4.6,0.8c1.3,1.7,2.2,4.2,2.6,6.8c0.6-2.2,0.8-4.8-0.1-7.6
					c-0.2-0.7,0.9-1,1.1-0.3c1,3.5,0.7,7.1-0.8,10.4c0,2.6-0.5,4.8-1.6,5.7c-0.3,0.3-1,0.3-1.4,0.3c0.1,0.2,0.5,0.5,0,0.8
					c-0.7,0.6-2.5,0.9-3.1,0.2C659.6,556.5,652.5,540.9,653.8,539.9z M663.1,552.1c0.5,2.4,1.2,4.7,2.4,6.7c0.5-0.5,1.1-1.2,1.7-2
					c-0.1-2.5-1.3-6.5-3.2-9.3c-0.7-1-1.5-0.8-1.4,0.4C662.6,549.4,662.8,550.8,663.1,552.1z"/>
			</g>
			<g class="st6">
				<path class="st7" d="M673.8,536.5c0.6-0.5,2-0.7,2.7-0.6c0.3,0,0.4,0.3,0.5,0.6s0.2,0.7,0.3,1c1,2.6,2.2,5.4,3.2,7.6l0.2,0.3
					c0.5-2.8,0.5-5.8-0.4-9c-0.2-0.7,0.8-1,1-0.3c1.2,4,0.9,7.7,0.2,11c1.1,2.3,2.1,4.7,2.9,7.2c0.9,2.6,0.9,4.7-1.5,6.6
					c-0.7,0.6-1.8,0.8-2.7,0.5c-1.8-0.5-2.7-2.7-2.6-4.5c0.1-2.2,1.2-4.3,1.9-6.3c-0.5-1.1-1-2.1-1.5-3.2c0.6,2.6,0.6,5-0.8,6.1
					c-1.2,0.9-3.2,0.6-3.8-0.4c-0.2-0.4-0.5-0.9-0.7-1.3c-1.8-3.2-3.4-7.2-4.3-10.4c-0.1-0.3,0-0.6,0.2-0.8c0.6-0.5,2-0.7,2.6-0.6
					c0.5,0,0.5,0.7,0.6,1c0.9,3.1,2.5,6.8,3.8,9.4c0.4,0.8,0.9,1.1,1.3,0.8c1.3-1-0.9-7.9-1.9-10.6c-0.1-0.2-0.1-0.4-0.2-0.6
					c-0.4-0.9-0.7-1.9-0.9-2.9C673.6,536.9,673.7,536.6,673.8,536.5z M681.6,556.8c-0.5-1.4-1.1-3-1.7-4.6c-0.6,2-2,5.1-0.4,7
					c0.4,0.5,1.2,0.8,1.8,0.4C681.8,559.2,682.1,558.2,681.6,556.8z"/>
			</g>
			<g class="st6">
				<path class="st7" d="M682.7,544.8c-0.1-1.1,0.5-2,1.2-2.8c0.6-0.6,1.3-1.2,1.8-1.7c-1.7-1.6-4.7-1.1-6.5-3.5
					c-1.5-2-0.7-4.4,1-5.7c1.1-0.9,3.7-0.4,4.6,0.7c0.5,0.6,0.7,2.3,0.3,2.6c-0.7,0.5-2,0.8-2.2,0.5c0-0.1,0-0.1,0-0.2
					c0.5-0.4,0.3-1.6-0.1-2.1c-0.3-0.4-0.7-0.6-1-0.3c-0.8,0.6-0.1,2.2,0.3,2.7c1.3,1.6,3.8,1.5,5.5,2.4c1-2.3,0.8-4.5,0-6.8
					c-0.2-0.6,0.8-1,1-0.3c1,2.9,1,5.4-0.1,7.7c2.4,2.4,0.8,6.3-1.6,8.1C684.9,547.7,682.9,546.7,682.7,544.8z M684.2,543.3
					c-1.1,1.4,0.8,2.9,1.9,1.3c0.6-1,0.7-2.4,0.3-3.4C685.9,541.9,684.8,542.6,684.2,543.3z"/>
				<path class="st7" d="M692,517.1c0.1,0.3,0.2,0.7,0.4,1.1c0.9-0.7,2-1.3,2.6-1.4c0.3,0,1.1,0.7,1.3,1c0.1,0.2,0.2,0.3,0.2,0.4
					c0,0-0.1,0-0.1,0.1c-1.2,0.4-2.3,1.2-3.3,1.9c1.8,4.5,4.2,9.8,6,12.8c0.5,0.8,0.7,0.8,0.8-0.1c0.3-3.2-0.5-8.2-1.3-10.8
					c-0.2-0.7,0.8-1,1-0.3c0.8,2.7,2.8,12.1,0.3,14c-1.7,1.3-3.1-0.6-3.9-1.8c-0.3-0.4-0.5-0.8-0.8-1.3c0.5,3.1,0.7,6.2-0.8,7.3
					c-1,0.8-2.6,0.3-3.3-0.8c-0.2-0.4-0.5-0.8-0.7-1.3c-1.8-3.2-3.5-7.2-4.3-10.5c-0.1-0.3,0-0.6,0.1-0.7c0.6-0.5,2-0.7,2.7-0.7
					c0.5,0,0.5,0.7,0.6,1.1c1.1,3.5,2.9,7.8,4.3,10.3c0.3,0.5,0.5,0.3,0.6-0.2c0.3-2.3-0.3-5.3-1-7.9c-1.1-2.2-2.2-4.6-3.3-6.9
					c-0.2,0.2-0.4,0.4-0.7,0.6c-1.3,1-3,1.7-4.2,0.1c-0.7-0.9-1.1-2.4-1.3-3.5c-0.1-0.8-0.1-1.3,0-1.5c0.4-0.3,1.6-0.5,2.5-0.6
					c0.7,0,1,0.4,1.1,1.2c0.1,0.8,0.2,2.3,0.2,3.6c0.6-0.5,1.1-1.1,1.6-1.6c-0.4-0.9-0.8-1.9-1.1-2.9c-0.2-0.9-0.3-1.6,0-1.8
					c0.6-0.5,3.1-1.1,3.5-0.7c0,0.1,0.1,0.1,0.1,0.2s0,0.2,0,0.2C691.8,516.4,691.8,516.7,692,517.1z"/>
				<path class="st7" d="M697.9,512.5c0.1,0.4,0.3,0.8,0.4,1.2c0.9-0.7,2-1.4,2.6-1.4c0.3,0,1.1,0.6,1.3,0.9
					c0.1,0.2,0.2,0.3,0.1,0.4c0,0-0.1,0-0.1,0.1c-1.1,0.4-2.3,1.2-3.2,1.9c1.8,4.4,4.2,9.7,5.9,12.8c0.5,0.7,0.7,0.8,0.8,0
					c0.3-3.3-0.5-8.2-1.3-10.8c-0.2-0.7,0.8-1,1-0.3c0.8,2.7,2.8,12.1,0.3,14c-1.7,1.3-3.1-0.5-3.9-1.8c-1.9-3-4.1-7.5-5.8-11.4
					c-0.2,0.2-0.5,0.4-0.7,0.5c-0.6,0.4-1.9,1.5-2.9,0.9c-0.3-0.2-0.3-0.3,0-0.6c1-0.8,1.9-1.7,2.8-2.5c-0.4-1-0.8-1.9-1.1-2.9
					s-0.3-1.6,0-1.8c0.6-0.5,3.1-1.2,3.5-0.7c0,0.1,0,0.1,0,0.2s0,0.1,0,0.2C697.7,511.9,697.8,512.2,697.9,512.5z"/>
				<path class="st7" d="M701,505.3c0.4-0.2,1.6-0.5,2.4-0.6c0.7,0,1,0.3,1.1,1.2c0.2,1.3,0.4,5.1-0.3,5.7c-1.7,1.4-3.2-3.8-3.3-4.9
					C700.8,505.9,700.8,505.5,701,505.3z M707.4,524.9c-1.8-3.2-3.4-7.2-4.3-10.4c-0.1-0.3,0-0.6,0.2-0.8c0.6-0.4,2-0.7,2.6-0.6
					c0.5,0,0.5,0.7,0.6,1c1,3.5,2.9,7.7,4.2,10.3c0.3,0.5,0.5,0.3,0.6-0.1c0.4-3.3-0.9-8-1.7-10.7c-0.2-0.7,0.8-1,1-0.3
					c0.8,2.7,3.4,11.6,0.8,13.6c-1.1,0.8-2.6,0.3-3.3-0.8C707.9,525.7,707.6,525.3,707.4,524.9z"/>
				<path class="st7" d="M708.2,510.5c-0.1-0.3,0-0.6,0.1-0.7c0.6-0.5,2-0.7,2.7-0.6c0.5,0,0.5,0.7,0.6,1.1c0.6,1.9,1.4,4.1,2.3,6
					c-0.7-3.2-1.3-7.4-0.8-9.7c0-0.3,0.2-0.5,0.4-0.7c0.4-0.3,2.5-1,2.9-0.5c0.1,0.1,0.1,0.2,0.2,0.4c0.1,0.3,0.2,0.7,0.3,1
					c1.1,3.4,2.8,7.3,4.1,9.7c0.3,0.5,0.5,0.4,0.6-0.1c0.4-3.3-0.9-8-1.7-10.7c-0.2-0.7,0.8-1,1-0.3c0.8,2.7,3.4,11.6,0.8,13.6
					c-1.1,0.8-2.5,0.6-3-0.3c-1.7-2.8-3.7-7.1-4.7-10.4c-0.3,3.8,1.5,11.6,3,13.8c0.2,0.3,0.1,0.5-0.1,0.6c-0.7,0.6-2.6,0.7-3.1,0
					C711.5,519.4,709.2,514.5,708.2,510.5z"/>
				<path class="st7" d="M726.9,515c-1.2,0.9-2.5,0.7-3.5-0.3c-2.9-3.1-5.3-9.7-3.5-13.6c0.3-0.7,0.9-1,1.6-1.3
					c0.7-0.2,1.4-0.3,2.1-0.4c0-0.1-0.1-0.3-0.2-0.5c-0.1-0.3,0-0.6,0.1-0.7c0.6-0.5,2-0.7,2.7-0.6c0.3,0,0.4,0.3,0.5,0.6
					c0.1,0.3,0.2,0.7,0.3,1c1,2.7,2.2,5.4,3.2,7.6l0.2,0.3c0.5-2.8,0.5-5.8-0.4-9c-0.2-0.7,0.8-1,1-0.3c1.2,4,0.9,7.7,0.2,11
					c1.1,2.3,2.1,4.7,2.9,7.2c0.8,2.6,0.9,4.8-1.5,6.6c-0.7,0.6-1.8,0.8-2.7,0.6c-1.9-0.6-2.7-2.7-2.5-4.5c0.1-2.1,1.2-4.3,1.8-6.3
					c-0.4-1-0.9-2.1-1.3-3.2C728.3,511.5,728.3,513.9,726.9,515z M725.1,511.6c0.2,0.4,1,1.5,1.5,1.1c1.5-1.1-1.7-9.4-2.3-11.2
					c-0.1-0.3-0.2-0.7-0.3-1c-0.3-0.1-0.7-0.1-1,0.2C720.8,502.3,723.2,508.8,725.1,511.6z M731.4,518.4c-0.5-1.4-1.1-3-1.7-4.6
					c-0.6,2-2,5.1-0.4,7c0.4,0.5,1.2,0.9,1.8,0.4C731.6,520.8,731.9,519.8,731.4,518.4z"/>
			</g>
		</g>
		<polyline class="st0" points="394.6,373.7 393,205.4 714.2,200.7 716.6,450 505.5,445.9 		"/>
		<path class="st0" d="M454.1,215.7c-3.3,0-5.9-5.9-5.9-13.1s2.7-13.1,5.9-13.1s5.9,5.8,5.9,13.1"/>
		<path class="st0" d="M528.5,215.7c-3.2,0-5.9-5.9-5.9-13.1s2.7-13.1,5.9-13.1s5.9,5.8,5.9,13.1"/>
		<path class="st0" d="M597,213c-3.3,0-5.9-5.9-5.9-13.1s2.7-13.1,5.9-13.1s5.9,5.8,5.9,13.1"/>
		<path class="st0" d="M664.3,214c-3.3,0-5.9-5.8-5.9-13.1s2.7-13.1,5.9-13.1s5.9,5.9,5.9,13.1"/>
		<ellipse class="st0" cx="445.4" cy="664.8" rx="129.5" ry="38.1"/>
		<path class="st7" d="M384.1,559.6c4.7,5.2,11,7.4,17.5,9.4c6.9,2.1,13.7,4.3,20.4,6.7c2.6,0.9,4.2,0.3,5.1-2.2
			c2.5-6.7,5.4-13.3,7.4-20.1c3-10.5,5.7-21.1,4.9-32.1c-0.7-9.8-1.8-19.5-8.2-27.8c-1-1.3-1.4-3-2.3-5c1.1,0.3,1.5,0.2,1.7,0.4
			c5.4,5.8,9.5,12.3,10.9,20.3c2.1,10.8,2.1,21.9-0.1,32.7c-1.6,7.5-4.2,14.8-6.6,22.1c-1.4,4.2-1.6,4.4,2.3,6.2
			c4.1,1.9,8.4,3.3,12.6,5.1s8.2,3.9,9.5,9c0.8,3,0.1,4.9-2.7,6.3c-4.8,2.5-9.8,2-14.6,0.5c-2.6-0.8-5.4-0.4-7.6,1.1
			c-2.6,1.4-5.5,2.2-8.5,2.2c-11.4,0.3-22.9-0.8-34-3.5c-10.5-2.5-20.9-5.4-31.4-7.7c-6.9-1.5-13.9-2.3-20.8-3.8
			c-6.1-1.3-12.1-3.1-18-5c-4.1-1.3-8.3-2.6-12-4.7c-3.6-2.1-6.8-5-9.4-8.3c-1.7-2.2-2.1-5.8-2.1-8.8c0-3.7,2.8-5.9,6.2-7.1
			c8.1-3,16.2-2.4,24.4-0.5c1.6,0.4,3.2,0.7,4.8,0.9c2.2,0.2,3.4-0.8,3.5-3.1c0-2.5,0.1-5.1,0.1-7.6c0-21.4,6.4-41,16.4-59.7
			c6.1-11.4,13.3-22,23.1-30.7c2-1.8,4.4-3.2,6.6-4.8c1.1-0.8,2.3-1.6,3.3-2.4c-1.5-2.9-3.3-5.4-4.3-8.1c-1.8-5.4-1.5-10.7,3.3-14.6
			c1.5-1.2,3.6-1.6,5.3-2.4c1-0.5,2.4-1,2.9-1.9c3.2-5.7,8.6-8.2,14.4-9.9c8.4-2.5,16-0.2,23.4,4.2c3.6,2.1,7.8,3.4,11.5,5.4
			c2.2,1.2,4.1,3.1,6.2,4.6c0.6,0.5,1.3,0.9,2.1,1.1c4.6,0.1,7.3,1.9,8.5,5.8c1.1,3.9-0.5,8.1-3.9,10.2c-1.5,0.9-1.9,1.9-2.2,3.6
			c-0.7,3.8-1.9,7.5-2.9,11.3c-0.5,2.1-2.3,2.1-3.7,1.8s-3.4,1-4.2-1.7c-0.4-1.4-2-2.4-3.2-3.6c-0.8-0.7-1.5-1.5-2-2.5
			c0.6,0,1.2,0,1.8,0c1.9,0.3,3.7,0.5,5.6,0.5c5-0.4,6.6-2.2,7.3-7.5c-0.3-0.2-0.6-0.3-0.9-0.4c-3.4-0.2-6.2-1.4-7.5-4.8
			c-1.4-3.5-0.6-7.4,2-10.1c2.2-2.5,2.3-3-0.3-5.1c-1.8-1.2-3.7-2.3-5.7-3.1c-3.6-1.8-7.4-3.3-11-5.2c-5.9-3.3-12-3.6-18.4-2.4
			c-7,1.3-11.1,6.1-14.7,11.5c-0.7,1.2-1.9,1.9-3.3,1.8c-6.1,0.2-9.9,4.7-8.8,10.7c0.6,3.2,1.6,6.3,4.5,8.4c1.9,1.5,1.8,3.1,0,4
			c-10.4,5.5-18.3,13.6-24.2,23.7c-3.9,6.6-7.8,13.4-11,20.3c-4.4,10-7.6,20.5-9.4,31.2c-1.8,9.4-2.1,19-0.8,28.5
			c1.1,6.8,2.8,13.5,5.1,20c1.7,4.7,3.9,9.3,6.6,13.6c1,1.7,3.4,3,5.4,3.8c8.9,3.8,18.2,6.3,27.7,7.7c10.4,1.3,20.9,2.5,31.4,3.6
			c3.3,0.2,6.5,0.1,9.8-0.4c2.9-0.3,4.4-1.9,4.5-4.6c0.3-2.6-1.4-5.1-3.9-5.7c-12.4-4.1-24.8-8.1-37.2-12.3c-2.2-0.6-4.2-1.6-6-3
			c-1.5-1.3-2.3-3.5-3.4-5.3L384.1,559.6z M449.4,590.1c1.1-0.1,2.2-0.3,3.3-0.5c4.2-1.2,5-4.3,1.8-7.2c-1.6-1.6-3.5-2.8-5.6-3.7
			c-4.9-1.9-10-3.4-14.8-5.3c-2.3-0.9-3,0.2-3.9,1.9c-1,2,0,2.7,1.6,3.5c2.7,1.2,5.4,2.8,5.9,5.9c0.5,3.6,3,4.4,5.9,4.7
			C445.3,589.8,447.2,589.9,449.4,590.1L449.4,590.1z M451.7,417.3c-0.2,2.9,0.8,4.1,2.9,4.4c0.7,0.1,1.5-0.2,2-0.7
			c0.1-0.7-0.1-1.5-0.6-2C454.6,418.3,453.2,417.7,451.7,417.3L451.7,417.3z M449.1,442.6c0.1-0.1,0-0.3-0.1-0.3h-0.1
			c-0.8,0-2.4,0.4-3,0.4c-1.1,0.1-0.6,1.7-0.8,3.8c-0.1,0.7,1.1,0.4,2.1,0.4l0,0C448,446,448.4,443.7,449.1,442.6L449.1,442.6z
			 M451.4,442.2l-1.1-0.4l-1.7,4.5l1,0.4L451.4,442.2z"/>
		<path class="st7" d="M392.4,457.8c-0.6,1.2-1.2,2.5-1.8,3.7c-6.3,11.3-9,24.3-7.7,37.2c0.9,9.9,3.7,19.2,9.9,27.2
			c3.3,4.1,7.3,7.6,11.9,10.2c0.7,0.4,1.1,1.5,1.6,2.3c-1.1,0-2.5,0.5-3.2,0c-9-6.1-16.6-13.4-19.6-24.4c-0.8-2.8-1.4-5.6-2-8.5
			c-2.6-12.3-0.9-24.4,2.9-36.1c1.4-4.4,4.4-8.2,6.7-12.2L392.4,457.8z"/>
		<path class="st7" d="M430.9,476.9c3.3-0.3,6.6-0.5,9.9-1c14.2-2.1,27-9.4,36-20.6c3.6-4.4,6.4-9.4,9.7-14c0.6-0.6,1.3-1.2,2-1.7
			c0.1,1,0.6,2.2,0.2,3c-2.8,6.3-6.7,12.1-11.7,16.9c-10,9.7-22.5,16.2-36.2,18.7c-2.1,0.4-4.3,0.6-6.5,0.5
			c-1.3-0.2-2.5-0.5-3.7-0.9L430.9,476.9z"/>
		<path class="st7" d="M498.1,451.1c0.2,8.4-35.8,49.5-47.3,54c18.6-15.1,33.7-33.2,46.1-53.5C497,451.3,497.5,451.3,498.1,451.1z"
			/>
		<path class="st7" d="M423.5,477.6c-0.3-2.1-1.2-4.2-0.9-6.2c1.1-7.7,4.1-14.3,11.5-17.8c3.4-1.4,6.9-2.6,10.4-3.6
			c0.3-0.1,0.9,0.3,1.3,0.5c-0.2,0.5-0.4,1.3-0.8,1.5c-2.2,0.9-4.4,1.7-6.6,2.4c-7.4,2.1-13.5,9.2-14.1,16.8c0,2.1,0.1,4.2,0.3,6.3
			L423.5,477.6z"/>
		<path class="st7" d="M392.2,419.6c1,2.2,2,4.2,2.8,6.3c0.1,0.6,0,1.2-0.3,1.7c-1.1,1.9-2.3,3.7-3.7,5.4c-0.7,0.3-1.5,0.3-2.1-0.1
			C387.6,430,388.6,421.6,392.2,419.6z"/>
		<path class="st7" d="M416.5,539.1c-6.9-0.1-11.4-4.3-9.8-8.8L416.5,539.1z"/>
		<path class="st7" d="M420.7,536.5c-3.9,1.3-8.3-1.2-8.7-4.1c-0.1-1.1,0.1-2.7,1.5-1.9C416,532.1,418.1,534.3,420.7,536.5z"/>
		<path class="st7" d="M424.2,534.9c-3.8,0-5.9-1.5-7.3-5C418.9,529,421.2,530.6,424.2,534.9z"/>
		<path class="st7" d="M489.2,444.7l6.3-8.8C495.5,439.8,492.1,444.6,489.2,444.7z"/>
		<path class="st7" d="M492.2,450.3c0.4-3.4,2.9-5,4.5-7.6C497.6,445.6,495.5,449.2,492.2,450.3z"/>
		<path class="st8" d="M449.4,590.1c-2.1-0.2-4-0.4-5.9-0.6c-2.9-0.3-5.3-1.1-5.9-4.7c-0.5-3.2-3.2-4.7-5.9-5.9
			c-1.6-0.8-2.6-1.5-1.6-3.5c0.9-1.7,1.5-2.8,3.9-1.9c4.9,1.9,10,3.3,14.8,5.3c2.1,0.9,4,2.1,5.6,3.7c3.2,2.9,2.4,6-1.8,7.2
			C451.6,589.9,450.5,590,449.4,590.1z"/>
		<path class="st8" d="M451.7,417.3c1.4,0.4,2.9,1,4.2,1.7c0.5,0.5,0.8,1.3,0.6,2c-0.5,0.5-1.3,0.8-2,0.7
			C452.6,421.4,451.5,420.2,451.7,417.3z"/>
		<path class="st8" d="M451.4,442.2l-1.7,4.4l-1-0.4l1.7-4.5L451.4,442.2z"/>
		<path class="st7" d="M428.9,421.9c-4.7-0.6-8.7,0-11,5.2c-0.1-3.7,2.6-6.9,6.3-7.5C425.9,419.4,427.9,418.8,428.9,421.9z"/>
		<path class="st9" d="M319.9,569.6c0,0,1.5-13.2,12.2-19.3"/>
		<path class="st9" d="M328.5,573c0,0,1.5-13.2,12.2-19.3"/>
		<path class="st9" d="M309.3,568.1c0,0,2-15,15.1-21.7"/>
		<path class="st9" d="M304.4,547c0,0,19.9-1.3,40.8,16"/>
		<path class="st9" d="M301.5,552.1c0,0,19.4-0.9,40,17.1"/>
		<path class="st9" d="M302.9,558.9c0,0,15.5-0.6,31.4,13.2"/>
		<path class="st9" d="M304,560.3c0,0,1.2-10.6,10.1-15.5"/>
		<path class="st9" d="M335.3,575.3c0,0,1.2-10.6,10.1-15.5"/>
		<g>
			<path class="st7" d="M523.6,345.5l-49.9,0.2l-50.1,0.1h-0.4v-0.4l-0.1-70.9V274h0.5l100.1,0.2h0.3v0.3l-0.1,35.5L523.6,345.5z
				 M523.6,345.5l-0.2-35.5l-0.1-35.4l0.3,0.3L423.5,275l0.5-0.5l-0.1,70.9l-0.4-0.4l49.9,0.1L523.6,345.5z"/>
		</g>
		<polygon class="st1" points="233.8,789.1 233.8,789.1 233.8,789.1 		"/>
		<g>
			<path class="st7" d="M552.8,274.5l49.9-0.2l50.1-0.1h0.4v0.4l0.1,70.9v0.5h-0.5l-100.1-0.2h-0.3v-0.3l0.1-35.5L552.8,274.5z
				 M552.8,274.5L553,310l0.1,35.4l-0.3-0.3l100.1-0.2l-0.5,0.5l0.1-70.9l0.4,0.4l-49.9-0.1L552.8,274.5z"/>
		</g>
		<g>
			<path class="st7" d="M492.2,431.5c-2.4,0.2-4.9,0.3-7.3,0.4s-4.9,0.1-7.3,0.1s-4.9,0-7.3-0.1l-3.7-0.1c-1.2-0.1-2.4-0.1-3.7-0.2
				c1.2-0.1,2.4-0.2,3.7-0.2l3.7-0.1c2.4-0.1,4.9-0.1,7.3-0.1s4.9,0,7.3,0.1C487.3,431.2,489.7,431.3,492.2,431.5z"/>
		</g>
		<g>
			<path class="st7" d="M514.5,360.5l6.1-0.1h0.1v0.1c0.1,5.9,0.2,11.8,0.2,17.7c0.1,5.9,0.1,11.8,0.1,17.7c0,5.9,0,11.8,0,17.7v8.9
				l-0.1,8.9v0.3h-0.3c-5.9-0.1-11.9-0.2-17.8-0.3c5.9-0.1,11.9-0.3,17.8-0.3l-0.3,0.3l-0.1-8.9v-8.9c0-5.9-0.1-11.8,0-17.7
				c0-5.9,0-11.8,0.1-17.7c0.1-5.9,0.1-11.8,0.2-17.7l0.1,0.1L514.5,360.5z"/>
		</g>
		<g>
			<path class="st7" d="M420.5,399.7c-0.1-6.5-0.2-13.1-0.3-19.6l-0.2-19.6v-0.4h0.4L442,360l21.5,0.1c7.2,0,14.3,0.1,21.5,0.1
				c7.2,0.1,14.3,0.2,21.5,0.3c-7.2,0.1-14.3,0.2-21.5,0.3c-7.2,0.1-14.3,0.1-21.5,0.1L442,361l-21.5-0.1l0.4-0.4l-0.2,19.6
				C420.7,386.6,420.6,393.2,420.5,399.7z"/>
		</g>
		<g>
			<path class="st7" d="M549.8,360.5l49.9-0.2l50.1-0.1h0.4v0.4l0.1,70.9v0.5h-0.5l-100.1-0.2h-0.3v-0.3l0.1-35.5L549.8,360.5z
				 M549.8,360.5L550,396l0.1,35.4l-0.3-0.3l100.1-0.2l-0.5,0.5l0.1-70.9l0.4,0.4l-49.9-0.1L549.8,360.5z"/>
		</g>
		<path class="st10" d="M520.6,290.5c1.3-2.2,1.7-4.5-0.8-6.5c-3-2.4-8.5-2.9-13.6-3.4c-14.3-1.5-28.8-2.3-43.3-2.4
			c-7-0.1-14,0.1-20.9,0.4c-5.3,0.3-8.9,1.6-10.7,4.2c-0.4,0.6-0.7,1.1-1,1.7c-3.3,3.4-2.6,8.4-3.3,11.7v0.3c-0.2,0.7-0.4,1.3-0.5,2
			c-1.2,4-2.8,8.8,2.8,11.6c6.4,3.1,17.9,2.4,25.8,2.6l2.3,0.1c12,1.1,24.1,1.9,36.2,2.3c7.8,0.3,18.4,1.3,22.4-2.3
			c1.5-0.4,2.4-1.2,2.5-2.1l1.9-19.6C520.5,290.8,520.5,290.6,520.6,290.5z"/>
		<line class="st11" x1="493.3" y1="446.8" x2="512.2" y2="352.6"/>
	</g>
	<path class="st8" d="M415.7,425.1l6,1.1c-0.2,1.9-0.4,4-0.5,6C418,433.1,417.2,432,415.7,425.1z"/>
	<path class="st8" d="M417.2,433.8c-1.5-0.3-2.9-0.2-3.4-0.8c-2.8-3.3-2.7-4.8,0.2-7.6L417.2,433.8z"/>
	<path class="st8" d="M417,408.2l-3-4.3C417.3,403.5,418.3,404.9,417,408.2z"/>
	<path class="st9" d="M457.2,529c0,0,8,5.4,8.1,15"/>
	<path class="st12" d="M469.5,303.6c-1.6,0.1-2.7-0.6-3-2c1.1,1.4,2,1.8,2.9,1.4s1.1-1.1,0.8-2.7c-1.2-0.1-2-0.8-2.2-2
		c-0.1-0.9,0.4-2,1.1-2.5c0.8-0.5,2.3-0.1,2.8,0.7c0.5,0.8,0.6,1.7,0.3,2.5c-0.2,0.4-0.7,0.8-1.1,1c-0.3,0.2-0.4,0.4-0.4,0.7
		c0.2,1,0.9,1.6,2,1.4c1.7-0.4,2.3-1.1,2.2-3.1c0.5,0.7,0.3,2-0.4,2.6c-0.1,0.1-0.2,0.2-0.3,0.3c-1,0.3-1.2,1.1-1.2,2.1
		c0,0.7-0.3,1.1-1.1,1.1h-0.1c-0.4,0.1-1,0.4-1.2,0.2c-0.4-0.3-0.6-0.9-0.8-1.3C469.6,303.9,469.5,303.8,469.5,303.6z M471,302.5
		c0.4,1.9,0.7,2.3,1.5,2c0-0.6,0.1-1.1,0.1-1.7C472.1,302.7,471.6,302.6,471,302.5z M471.4,305c-0.4-1-0.6-1.6-0.9-2.4
		c-0.8,0.8-0.9,1.2-0.1,2.1C470.6,304.9,471,304.9,471.4,305z M471.4,297.8c0.4-0.9,0.1-1.3-0.8-1.2
		C470.9,297.1,471.1,297.4,471.4,297.8z"/>
	<path class="st12" d="M481.1,293.8c0.2-0.2,0.3-0.4,0.5-0.6c0.8-0.8,1-1.9,0.9-3c-0.1-1.6-1.9-2.7-3.4-2.1c-0.5,0.2-1,0.5-1.5,0.9
		c-0.4,0.4-0.7,0.4-1.2,0.1c-2.5-1.4-5-1.7-7.7-0.7c-1.3,0.4-2.4,1.1-3.2,2.3c-0.1-0.1-0.1-0.1-0.2-0.2c0.4-0.5,0.8-1,1.3-1.4
		c2-1.6,4.3-2.2,6.9-1.8c1.1,0.1,2.1,0.5,3.2,0.7c0.3,0.1,0.7,0,0.9-0.1c0.9-0.5,1.8-0.9,2.8-0.7c2.5,0.5,3.6,3.4,2,5.4
		C482,293.1,481.6,293.5,481.1,293.8C481.3,293.9,481.2,293.8,481.1,293.8z"/>
	<path class="st12" d="M463.6,290.7c-0.3,0-0.6-0.1-0.9-0.1c-1.2,0.1-2,1-2,2.2s0.4,2.2,1.3,3c0.1,0.1,0.3,0.3,0.3,0.5
		c0.1,0.3,0.1,0.7,0.2,1c0.5,3.3,2,5.9,5.3,7.2c0.1,0,0.2,0.1,0.3,0.1c0,0,0,0,0,0.1c-0.7,0.1-2.2-0.5-3-1.3c-1.6-1.7-3-3.5-3.2-6
		c0-0.2-0.2-0.5-0.4-0.7c-1.2-1.4-1.7-2.9-1.1-4.8c0.4-1.1,1.6-1.9,2.7-1.7C463.3,290.2,463.5,290.4,463.6,290.7
		C463.6,290.5,463.6,290.6,463.6,290.7z"/>
	<path class="st12" d="M476,302.8c3.1-1.5,4.2-4.1,4.3-7.3l0.1,0.1c0.1,1.5,0,2.9-0.5,4.3c-0.3,1-1,1.7-1.9,2.2
		c-0.3,0.2-0.6,0.4-1,0.5c-0.3,0.1-0.6,0.2-0.9,0.3C476.1,303,476,302.9,476,302.8z"/>
	<path class="st12" d="M480.4,292.7c-0.4-0.2-0.8-0.5-1.1-0.8c-0.1-0.1-0.2-0.3-0.2-0.4c0.1-0.4,0.3-0.9,0.2-1.3
		c0-0.4-0.2-0.8-0.3-1.2C480.1,289.2,480.9,291.4,480.4,292.7z"/>
	<path class="st12" d="M477,294.4c-1.3-0.8-2.2,0.3-3.3,0.8c-0.1-0.7,0.3-1.2,1-1.4C475.8,293.4,476.6,293.6,477,294.4z"/>
	<path class="st12" d="M467,296.1c-0.3,0.1-0.6,0.3-0.8,0.2c-0.9-0.5-1.6-0.6-2.2,0.3c0,0.1-0.2,0.1-0.3,0c-0.1,0-0.1-0.2-0.1-0.3
		c0.4-0.9,2.3-1.4,3-0.8C466.8,295.7,466.9,295.8,467,296.1z"/>
	<path class="st8" d="M471,302.5c0.6,0.1,1.1,0.2,1.7,0.3c0,0.5-0.1,1.1-0.1,1.7C471.7,304.8,471.4,304.5,471,302.5z"/>
	<path class="st8" d="M471.4,305c-0.4-0.1-0.8-0.1-0.9-0.2c-0.8-0.9-0.8-1.3,0.1-2.1C470.8,303.3,471.1,304,471.4,305z"/>
	<path class="st8" d="M471.4,297.8c-0.3-0.4-0.5-0.8-0.8-1.2C471.5,296.5,471.8,296.9,471.4,297.8z"/>
	<circle class="st13" cx="471.5" cy="296" r="15.4"/>
	<g>
		<g>
			<path class="st7" d="M448.6,322.7c-1.6,2.6-2.8,5.4-3.9,8.2c0,0.1,0,0.2-0.1,0.2c0,0.1-0.1,0.1-0.1,0.1c-0.1,0-0.3-0.2-0.4-0.4
				c-0.2-0.2-0.2-0.5-0.2-0.7c-0.3-2.3,0.1-4.5,0.3-7.2c-1.1,3-2.2,7.5-2.3,9c0,0.2-0.1,0.2-0.2,0.2c-0.5,0-1.3-0.5-1.3-0.9
				c0.1-2.9,2-9.8,3-11.6c0.2-0.3,0.3-0.4,0.4-0.4c0.4,0,1.7,0.6,1.7,0.9c0,0.1-0.1,0.1-0.1,0.2c-0.6,2.7-0.7,5.4-0.6,7.8
				c1.3-2.9,2.8-5.6,4.6-8.2c0.1-0.2,0.5-0.7,0.8-0.7c0.4,0,1.6,0.5,1.6,0.8c0,0,0,0.1-0.1,0.1c-0.1,0.1-0.2,0.2-0.2,0.3
				c-1.2,2.1-2.8,9.5-2.8,11.4c0,0.2-0.1,0.2-0.2,0.2c-0.5,0-1.3-0.4-1.3-0.9C447.2,329.3,447.9,325.5,448.6,322.7z"/>
			<path class="st7" d="M454.2,324.5c1.2,0,2.3,0.9,2.3,1.8s-0.2,1.9-0.6,2.8c0.9-0.8,1.6-1.8,2.1-2.9c0.1-0.3,0.6-0.1,0.5,0.2
				c-0.6,1.6-1.7,2.8-3.1,3.7c-0.7,1.2-1.8,2.1-3,2.1c-1.4,0-2.3-1.4-2.3-2.5c0-2,1-4.6,2.7-5.5C453.3,324,453.8,324.2,454.2,324.5z
				 M452.2,330.7c0.4,0,0.7-0.1,1.2-0.3c0.7-1,1.3-3,1.3-4.3s-0.7-1.4-1.4-0.6c-1.1,1.3-1.7,4.1-1.2,5.2
				C452.1,330.8,452.1,330.7,452.2,330.7z"/>
			<path class="st7" d="M458.4,324.5c0.1-0.2,0.2-0.3,0.3-0.3c0.4,0,1.1,0.4,1.3,0.6c0.2,0.2,0,0.4-0.1,0.6c-0.4,1-0.7,2.1-1,3.2
				c0.7-1.5,1.8-3.4,2.7-4.2c0.1-0.1,0.2-0.1,0.4-0.1c0.3,0,1.3,0.4,1.3,0.7c0,0.1,0,0.1-0.1,0.2c-0.1,0.2-0.1,0.3-0.2,0.5
				c-0.6,1.7-1.2,3.9-1.4,5.3c-0.1,0.3,0.1,0.3,0.3,0.1c1.2-1.2,2.1-3.6,2.7-4.9c0.1-0.3,0.6-0.1,0.5,0.2c-0.5,1.3-2.3,5.8-4,5.8
				c-0.7,0-1.2-0.5-1.2-1.1c0.2-1.7,0.7-4.1,1.3-5.7c-1.3,1.4-3,5.2-3.1,6.6c0,0.2-0.1,0.2-0.2,0.2c-0.5,0-1.3-0.5-1.3-1
				C456.9,329.1,457.6,326.4,458.4,324.5z"/>
			<path class="st7" d="M468.5,324c0.4,0,1.7,0.5,1.7,0.8v0.1c-0.1,0.1-0.2,0.2-0.2,0.3c-0.2,0.4-0.5,1-0.7,1.7
				c0.4-0.7,0.9-1.5,1.3-2.1c0.4-0.5,0.9-0.9,1.3-0.9c0.9,0,1.6,1.1,1.6,1.7c0,1.1-0.5,2.4-1.1,3.6c0.9-0.7,1.8-1.7,2.4-3.1
				c0.1-0.3,0.6-0.1,0.5,0.2c-0.7,1.7-2,3.1-3.6,4c-0.8,1.1-1.7,1.8-2.4,1.8c-0.5,0-0.9-0.2-1.1-0.4c-0.4,2.1-0.6,4-0.6,4.9
				c0,0.2-0.1,0.2-0.2,0.2c-0.5,0-1.3-0.5-1.3-0.9C466.1,332.7,467.7,324,468.5,324z M468.5,330.4c0,0.2-0.1,0.3-0.1,0.5
				c0.2-0.1,0.3-0.1,0.5-0.2c0.3,0,0.7-0.1,1.1-0.3c0.8-1,1.6-3.1,1.7-4.8c0-0.4-0.1-0.6-0.3-0.6c-0.1,0-0.2,0.1-0.3,0.2
				C469.9,326.7,469,328.6,468.5,330.4z"/>
			<path class="st7" d="M475.3,324.5c0.1-0.2,0.2-0.3,0.3-0.3c0.4,0,1.1,0.4,1.3,0.6c0.2,0.2,0,0.4-0.1,0.6c-0.4,1-0.7,2.1-1,3.2
				c0.7-1.5,1.8-3.4,2.7-4.2c0.1-0.1,0.2-0.1,0.4-0.1c0.2,0,0.9,0.2,1.2,0.5c0.3,0.3,0.1,0.5-0.1,0.6c-0.7,0.6-1,1.6-1.1,2.3
				c0,0.5,0.2,0.7,0.4,0.7c0.8,0,1.6-1.6,2-2.2c0.2-0.3,0.7,0,0.5,0.3c-0.4,0.7-1.3,2.3-2.2,2.6c-0.7,0.3-1.9-0.4-2-1.2
				c-0.1-0.6,0.2-1.5,0.5-2.1c0.1-0.2,0-0.1-0.1,0c-1.3,1.6-2.8,5.1-2.9,6.4c0,0.2-0.1,0.2-0.2,0.2c-0.5,0-1.3-0.5-1.3-1
				C473.8,329.1,474.4,326.4,475.3,324.5z"/>
			<path class="st7" d="M484.2,324.5c1.2,0,2.3,0.9,2.3,1.8s-0.2,1.9-0.6,2.8c0.9-0.8,1.6-1.8,2.1-2.9c0.1-0.3,0.6-0.1,0.5,0.2
				c-0.6,1.6-1.7,2.8-3.1,3.7c-0.7,1.2-1.8,2.1-3,2.1c-1.4,0-2.3-1.4-2.3-2.5c0-2,1-4.6,2.7-5.5C483.2,324,483.8,324.2,484.2,324.5z
				 M482.2,330.7c0.4,0,0.7-0.1,1.2-0.3c0.7-1,1.3-3,1.3-4.3s-0.7-1.4-1.4-0.6c-1.1,1.3-1.7,4.1-1.2,5.2
				C482.1,330.8,482.1,330.7,482.2,330.7z"/>
			<path class="st7" d="M492,326.1c0.2-0.3,0.7-0.1,0.5,0.2c-0.5,1.1-2.1,2.2-3.3,2.4c0.4,2,0.4,4.5-0.1,6.4
				c-0.1,0.5-0.4,1.2-0.7,1.5c-0.3,0.3-0.6,0.3-1,0.3c-0.5,0-1.3-0.3-1.3-0.7c0-0.5,0-1.1,0.1-1.7c0.4-3.8,1.3-8.2,2.5-11.7
				c0.3-0.9,0.6-1.4,0.8-1.4c0.4,0,1.7,0.5,1.7,0.8v0.1c-0.1,0.1-0.2,0.2-0.3,0.3c-0.6,1-1.2,3.3-1.8,5.5
				C490.3,328,491.6,327.1,492,326.1z M488.5,335.3c0.5-1.7,0.6-3.6,0.4-5.3c-0.3,1.7-0.6,3.5-0.8,5.2c-0.1,0.6,0,0.9,0,0.9
				C488.2,336.1,488.4,335.4,488.5,335.3z"/>
			<path class="st7" d="M490.7,330.1c0.3-1.9,0.9-4,1.5-5.6c0.1-0.2,0.2-0.3,0.3-0.3c0.4,0,1,0.4,1.3,0.6c0.2,0.2,0,0.4-0.1,0.6
				c-0.7,1.8-1.3,4.1-1.5,5.5c-0.1,0.3,0.1,0.3,0.3,0.1c1.2-1.2,2.1-3.6,2.7-4.9c0.1-0.3,0.6-0.1,0.5,0.2c-0.5,1.3-2.3,5.8-4,5.8
				c-0.7,0-1.2-0.7-1.1-1.4C490.6,330.6,490.6,330.3,490.7,330.1z M494.3,320c0.2,0,0.8,0.3,1.2,0.5c0.3,0.2,0.3,0.5,0.1,0.8
				c-0.4,0.6-1.4,2.2-1.9,2.2c-1.1,0-0.1-2.6,0.2-3C494,320.2,494.1,320,494.3,320z"/>
			<path class="st7" d="M496.8,319.3c0.4,0,1.7,0.5,1.7,0.8v0.1c-0.1,0.1-0.2,0.2-0.3,0.3c-1,1.8-2.3,7.4-2.7,10.2
				c0,0.4,0,0.5,0.3,0.2c1.2-1.2,2-3.5,2.5-4.8c0.1-0.3,0.7-0.1,0.5,0.2c-0.5,1.3-2.3,5.8-4,5.8c-1.1,0-1.1-1.2-1-2
				C494.3,326.4,496,319.3,496.8,319.3z"/>
		</g>
	</g>
	<g>
		<g>
			<path class="st7" d="M575.9,326c-1.6,2.6-2.8,5.4-3.9,8.2c0,0.1,0,0.2-0.1,0.2c0,0.1-0.1,0.1-0.1,0.1c-0.1,0-0.3-0.2-0.4-0.4
				c-0.2-0.2-0.2-0.5-0.2-0.7c-0.3-2.3,0.1-4.5,0.3-7.2c-1.1,3-2.2,7.5-2.3,9c0,0.2-0.1,0.2-0.2,0.2c-0.5,0-1.3-0.5-1.3-0.9
				c0.1-2.9,2-9.8,3-11.6c0.2-0.3,0.3-0.4,0.4-0.4c0.4,0,1.7,0.6,1.7,0.9c0,0.1-0.1,0.1-0.1,0.2c-0.6,2.7-0.7,5.4-0.6,7.8
				c1.3-2.9,2.8-5.6,4.6-8.2c0.1-0.2,0.5-0.7,0.8-0.7c0.4,0,1.6,0.5,1.6,0.8c0,0,0,0.1-0.1,0.1c-0.1,0.1-0.2,0.2-0.2,0.3
				c-1.2,2.1-2.8,9.5-2.8,11.4c0,0.2-0.1,0.2-0.2,0.2c-0.5,0-1.3-0.4-1.3-0.9C574.5,332.6,575.2,328.8,575.9,326z"/>
			<path class="st7" d="M581,333.3v-0.1c-0.6,1.2-1.3,2.3-2.2,2.3c-0.8,0-1.2-0.5-1.3-1.2c-0.3-2.2,0.9-5.6,2.8-6.7
				c0.6-0.4,1.3,0.1,2.1,0.5c0-0.1,0.1-0.2,0.1-0.3c0.1-0.2,0.2-0.3,0.3-0.3c0.4,0,1,0.4,1.3,0.6c0.2,0.2,0,0.4-0.1,0.6
				c-0.7,1.8-1.2,4.1-1.4,5.5c-0.1,0.3,0.1,0.3,0.3,0.1c1.2-1.2,2.1-3.6,2.6-4.9c0.1-0.3,0.6-0.1,0.5,0.2c-0.5,1.3-2.2,5.8-3.9,5.8
				c-0.7,0-1.2-0.7-1.1-1.4C580.9,333.8,580.9,333.6,581,333.3z M581.9,329.1c0.1-0.2,0.1-0.4,0.2-0.5c-0.1-0.2-0.3-0.3-0.5-0.3
				c-1.4,0-2.4,3.4-2.6,5.2c0,0.2-0.1,0.9,0.3,0.9C580.3,334.4,581.6,330,581.9,329.1z"/>
			<path class="st7" d="M590.1,322.5c0.4,0,1.7,0.5,1.7,0.8v0.1c-0.1,0.1-0.2,0.2-0.2,0.3c-0.6,1.1-1.4,3.7-1.9,6.2
				c0.3-0.6,0.6-1.2,1-1.8c0.4-0.6,0.9-1.1,1.4-1.1c0.8,0,1.6,1.1,1.6,1.8c0,1.1-0.4,2.4-1.1,3.6c0.9-0.7,1.8-1.7,2.4-3.1
				c0.1-0.3,0.7-0.1,0.5,0.2c-0.7,1.7-1.9,3.1-3.6,4c-0.8,1.1-1.7,1.8-2.4,1.8c-0.2,0-0.5-0.2-0.7-0.3c0,0.1,0,0.3-0.2,0.3
				c-0.5,0-1.3-0.4-1.3-0.9C587.3,331.2,589.3,322.5,590.1,322.5z M590.1,330.5c-0.6,1.1-1,2.3-1.1,3.5c0.4,0,0.8-0.1,1.3-0.3
				c0.8-1,1.5-3.1,1.6-4.8c0-0.6-0.3-0.8-0.7-0.3C590.7,329.2,590.4,329.8,590.1,330.5z"/>
			<path class="st7" d="M597.9,327.7c1.2,0,2.3,0.9,2.3,1.8s-0.2,1.9-0.6,2.8c0.9-0.8,1.6-1.8,2.1-2.9c0.1-0.3,0.6-0.1,0.5,0.2
				c-0.6,1.6-1.7,2.8-3.1,3.7c-0.7,1.2-1.8,2.1-3,2.1c-1.4,0-2.3-1.4-2.3-2.5c0-2,1-4.6,2.7-5.5
				C596.9,327.3,597.5,327.4,597.9,327.7z M595.9,334c0.4,0,0.7-0.1,1.2-0.3c0.7-1,1.3-3,1.3-4.3s-0.7-1.4-1.4-0.6
				c-1.1,1.3-1.7,4.1-1.2,5.2C595.7,334,595.8,334,595.9,334z"/>
			<path class="st7" d="M604,333.3v-0.1c-0.6,1.2-1.3,2.3-2.2,2.3c-0.8,0-1.5-0.8-1.4-1.4c0-0.3,0.1-0.5,0.1-0.8
				c0.3-1.9,0.9-4,1.5-5.6c0.1-0.2,0.2-0.3,0.3-0.3c0.4,0,1,0.4,1.3,0.6c0.2,0.2,0,0.4-0.1,0.6c-0.6,1.6-1.1,3.6-1.4,5
				c-0.1,0.5,0,0.7,0.3,0.7c1,0,2.4-4.4,2.7-5.3c0.2-0.5,0.3-0.9,0.5-1.4c0.1-0.2,0.2-0.3,0.3-0.3c0.4,0,1,0.4,1.3,0.6
				c0.2,0.2,0,0.4-0.1,0.6c-0.7,1.8-1.3,4.1-1.5,5.5c-0.1,0.3,0.1,0.3,0.3,0.1c1.2-1.2,2.1-3.6,2.6-4.9c0.1-0.3,0.6-0.1,0.5,0.2
				c-0.5,1.3-2.3,5.8-4,5.8c-0.7,0-1.2-0.7-1.1-1.4C604,333.8,604,333.6,604,333.3z"/>
			<path class="st7" d="M611.3,325.3c-0.1,0.2-0.1,0.4-0.2,0.6c0.6,0,1.2,0.1,1.5,0.2c0.1,0.1,0.2,0.6,0.2,0.8c0,0.1,0,0.2-0.1,0.2
				c0,0,0,0-0.1,0c-0.6-0.2-1.3-0.2-1.9-0.2c-0.7,2.4-1.4,5.3-1.6,7.1c0,0.4,0,0.5,0.3,0.2c1.2-1.2,2.4-3.5,2.9-4.8
				c0.1-0.3,0.6-0.1,0.5,0.2c-0.5,1.3-2.7,5.8-4.3,5.8c-1.1,0-1.1-1.2-1-2c0.2-1.8,0.7-4.3,1.2-6.5c-0.2,0-0.3,0-0.4,0
				c-0.4,0-1.3,0-1.5-0.5c-0.1-0.2,0-0.2,0.2-0.2c0.7,0,1.3-0.1,1.9-0.2c0.1-0.5,0.3-1,0.5-1.5c0.2-0.5,0.4-0.7,0.6-0.7
				c0.4,0,1.6,0.5,1.6,0.8c0,0,0,0.1-0.1,0.1c0,0,0,0.1-0.1,0.1C611.4,324.9,611.3,325.1,611.3,325.3z"/>
			<path class="st7" d="M611.2,333.3c0.3-1.9,0.9-4,1.5-5.6c0.1-0.2,0.2-0.3,0.3-0.3c0.4,0,1,0.4,1.3,0.6c0.2,0.2,0,0.4-0.1,0.6
				c-0.7,1.8-1.3,4.1-1.5,5.5c-0.1,0.3,0.1,0.3,0.3,0.1c1.2-1.2,2.1-3.6,2.7-4.9c0.1-0.3,0.6-0.1,0.5,0.2c-0.5,1.3-2.3,5.8-4,5.8
				c-0.7,0-1.2-0.7-1.1-1.4C611.1,333.8,611.2,333.6,611.2,333.3z M614.8,323.3c0.2,0,0.8,0.3,1.2,0.5c0.3,0.2,0.3,0.5,0.1,0.8
				c-0.4,0.6-1.4,2.2-1.9,2.2c-1.1,0-0.1-2.6,0.2-3C614.5,323.5,614.7,323.3,614.8,323.3z"/>
			<path class="st7" d="M617.6,333.9c-0.5,0.9-1.2,1.5-1.9,1.5c-0.8,0-1.2-0.5-1.3-1.2c-0.3-2.2,0.9-5.6,2.8-6.7
				c0.1-0.1,0.3-0.1,0.4-0.1c0.6,0,1.1,0.3,1.6,0.6c0.2-0.3,0.3-0.5,0.4-0.5c0.4,0,1.7,0.5,1.7,0.8v0.1c-0.1,0.1-0.2,0.2-0.3,0.3
				c-0.6,1.1-1.3,3.4-1.8,5.7c1.5-1.4,2.3-2.8,3-5c0.1-0.3,0.6-0.2,0.5,0.2c-0.8,2.4-1.7,4-3.5,5.6c0,1.5-0.1,3.4-0.6,4.7
				c-0.1,0.2-0.3,0.3-0.6,0.3c-0.5,0-1.3-0.3-1.3-0.7C616.9,338.1,617.2,336,617.6,333.9z M618.7,328.3c-1.4,0-2.4,3.4-2.6,5.2
				c0,0.2-0.1,0.9,0.3,0.9c0.6,0,1.3-1.7,1.9-3.2c0.3-1.1,0.6-2.1,0.8-2.7C619,328.3,618.8,328.3,618.7,328.3z"/>
			<path class="st7" d="M624.9,333.3v-0.1c-0.6,1.2-1.3,2.3-2.2,2.3c-0.8,0-1.5-0.8-1.4-1.4c0-0.3,0.1-0.5,0.1-0.8
				c0.3-1.9,0.9-4,1.5-5.6c0.1-0.2,0.2-0.3,0.3-0.3c0.4,0,1,0.4,1.3,0.6c0.2,0.2,0,0.4-0.1,0.6c-0.6,1.6-1.1,3.6-1.4,5
				c-0.1,0.5,0,0.7,0.3,0.7c1,0,2.4-4.4,2.7-5.3c0.2-0.5,0.3-0.9,0.5-1.4c0.1-0.2,0.2-0.3,0.3-0.3c0.4,0,1,0.4,1.3,0.6
				c0.2,0.2,0,0.4-0.1,0.6c-0.7,1.8-1.3,4.1-1.5,5.5c-0.1,0.3,0.1,0.3,0.3,0.1c1.2-1.2,2.1-3.6,2.6-4.9c0.1-0.3,0.6-0.1,0.5,0.2
				c-0.5,1.3-2.3,5.8-4,5.8c-0.7,0-1.2-0.7-1.1-1.4C624.8,333.8,624.8,333.6,624.9,333.3z"/>
			<path class="st7" d="M631.5,327.4c0.8,0,2.1,1,2.1,1.9c0,1.9-2.2,3.3-3.7,3.3c0,1.1,0.3,1.9,1.2,1.9c1.6,0,3.1-3.3,3.8-5.1
				c0.1-0.3,0.6-0.1,0.5,0.2c-0.7,2-2.3,5.8-4.6,5.8C625.9,335.4,628.6,327.4,631.5,327.4z M629.9,332.1c1.1,0,2.3-1.6,2.3-3.2
				c0-0.4-0.3-0.6-0.6-0.3C630.7,329.2,630,330.7,629.9,332.1z"/>
		</g>
	</g>
	<g>
		<g>
			<path class="st7" d="M563.9,410.8c-1.6,2.6-2.8,5.4-3.9,8.2c0,0.1,0,0.2-0.1,0.2c0,0.1-0.1,0.1-0.1,0.1c-0.1,0-0.3-0.2-0.4-0.4
				c-0.2-0.2-0.2-0.5-0.2-0.7c-0.3-2.3,0.1-4.5,0.3-7.2c-1.1,3-2.2,7.5-2.3,9c0,0.2-0.1,0.2-0.2,0.2c-0.5,0-1.3-0.5-1.3-0.9
				c0.1-2.9,2-9.8,3-11.6c0.2-0.3,0.3-0.4,0.4-0.4c0.4,0,1.7,0.6,1.7,0.9c0,0.1-0.1,0.1-0.1,0.2c-0.6,2.7-0.7,5.4-0.6,7.8
				c1.3-2.9,2.8-5.6,4.6-8.2c0.1-0.2,0.5-0.7,0.8-0.7c0.4,0,1.6,0.5,1.6,0.8c0,0,0,0.1-0.1,0.1c-0.1,0.1-0.2,0.2-0.2,0.3
				c-1.2,2.1-2.8,9.5-2.8,11.4c0,0.2-0.1,0.2-0.2,0.2c-0.5,0-1.3-0.4-1.3-0.9C562.5,417.4,563.2,413.6,563.9,410.8z"/>
			<path class="st7" d="M568.8,412.2c0.8,0,2.1,1,2.1,1.9c0,1.9-2.2,3.3-3.7,3.3c0,1.1,0.3,1.9,1.2,1.9c1.6,0,3.1-3.3,3.8-5.1
				c0.1-0.3,0.6-0.1,0.5,0.2c-0.7,2-2.3,5.8-4.6,5.8C563.2,420.2,565.9,412.2,568.8,412.2z M567.2,416.9c1.1,0,2.3-1.6,2.3-3.2
				c0-0.4-0.3-0.6-0.6-0.3C568,414,567.4,415.6,567.2,416.9z"/>
			<path class="st7" d="M570.8,418.5c0.3-0.5,0.8-0.7,1.4-0.7c0.4-0.1,0.9-0.1,1.3-0.1c-0.2-1.2-1.6-1.9-1.6-3.5c0-1.3,1.1-2,2.2-2
				c0.7,0,1.6,1,1.6,1.7c0,0.4-0.4,1.2-0.7,1.2c-0.4,0-1.1-0.3-1.1-0.5v-0.1c0.3,0,0.6-0.5,0.6-0.9c0-0.2-0.1-0.4-0.3-0.4
				c-0.5,0-0.7,0.9-0.7,1.2c0,1.1,1.1,1.8,1.5,2.7c1.1-0.6,1.7-1.6,2.1-2.8c0.1-0.3,0.6-0.2,0.5,0.2c-0.5,1.5-1.3,2.5-2.5,3.1
				c0.2,1.8-1.7,2.8-3.2,2.8C570.8,420.4,570.3,419.3,570.8,418.5z M571.9,418.4c-0.9,0.2-0.6,1.5,0.3,1.1c0.6-0.2,1.1-0.8,1.2-1.3
				C573,418.3,572.3,418.2,571.9,418.4z"/>
			<path class="st7" d="M580.8,412.5c0.1-0.2,0.2-0.3,0.3-0.3c0.4,0,1.1,0.4,1.3,0.6s0,0.4-0.1,0.6c-0.4,1-0.7,2.1-1,3.2
				c0.7-1.5,1.8-3.4,2.7-4.2c0.1-0.1,0.2-0.1,0.4-0.1s0.9,0.2,1.2,0.5c0.3,0.3,0.1,0.5-0.1,0.6c-0.7,0.6-1,1.6-1.1,2.3
				c0,0.5,0.2,0.7,0.4,0.7c0.8,0,1.6-1.6,2-2.2c0.2-0.3,0.7,0,0.5,0.3c-0.4,0.7-1.3,2.3-2.2,2.6c-0.7,0.3-1.9-0.4-2-1.2
				c-0.1-0.6,0.2-1.5,0.5-2.1c0.1-0.2,0-0.1-0.1,0c-1.3,1.6-2.8,5.1-2.9,6.4c0,0.2-0.1,0.2-0.2,0.2c-0.5,0-1.3-0.5-1.3-1
				C579.3,417.2,580,414.4,580.8,412.5z"/>
			<path class="st7" d="M588.3,420.2c-4.8,0-2.1-8.1,0.7-8.1c0.8,0,2.1,1,2.1,1.9c0,1.9-2.2,3.3-3.7,3.3c0,1.1,0.3,1.9,1.2,1.9
				c1.6,0,3.1-3.3,3.8-5.1c0.1-0.3,0.6-0.1,0.5,0.2C592.2,416.4,590.6,420.2,588.3,420.2z M589.1,413.4c-0.8,0.6-1.5,2.2-1.6,3.5
				c1.1,0,2.3-1.6,2.3-3.2C589.7,413.3,589.4,413.1,589.1,413.4z M590.7,408.8c-0.2,0-0.3,0-0.3,0.1c0,0,0,0.1,0,0.2
				c0,1-0.6,1.7-1.1,2c-0.1,0,0,0.1,0.1,0.1c0.7,0,2-0.3,2.2-1.3c0.1-0.3,0-0.6-0.1-0.8C591.5,408.8,591,408.8,590.7,408.8z"/>
			<path class="st7" d="M591,418.5c0.3-0.5,0.8-0.7,1.4-0.7c0.4-0.1,0.9-0.1,1.3-0.1c-0.2-1.2-1.6-1.9-1.6-3.5c0-1.3,1.1-2,2.2-2
				c0.7,0,1.6,1,1.6,1.7c0,0.4-0.4,1.2-0.7,1.2c-0.4,0-1.1-0.3-1.1-0.5v-0.1c0.3,0,0.6-0.5,0.6-0.9c0-0.2-0.1-0.4-0.3-0.4
				c-0.5,0-0.7,0.9-0.7,1.2c0,1.1,1.1,1.8,1.5,2.7c1.1-0.6,1.7-1.6,2.1-2.8c0.1-0.3,0.6-0.2,0.5,0.2c-0.5,1.5-1.3,2.5-2.5,3.1
				c0.2,1.8-1.7,2.8-3.2,2.8C591,420.4,590.5,419.3,591,418.5z M592.1,418.4c-0.9,0.2-0.6,1.5,0.3,1.1c0.6-0.2,1.1-0.8,1.2-1.3
				C593.3,418.3,592.6,418.2,592.1,418.4z"/>
			<path class="st7" d="M599.6,412.2c0.8,0,2.1,1,2.1,1.9c0,1.9-2.2,3.3-3.7,3.3c0,1.1,0.3,1.9,1.2,1.9c1.6,0,3.1-3.3,3.8-5.1
				c0.1-0.3,0.6-0.1,0.5,0.2c-0.7,2-2.3,5.8-4.6,5.8C594,420.2,596.7,412.2,599.6,412.2z M598,416.9c1.1,0,2.3-1.6,2.3-3.2
				c0-0.4-0.3-0.6-0.6-0.3C598.9,414,598.2,415.6,598,416.9z"/>
			<path class="st7" d="M603.5,412.5c0.1-0.2,0.2-0.3,0.3-0.3c0.4,0,1.1,0.4,1.3,0.6c0.2,0.2,0,0.4-0.1,0.6c-0.4,1-0.7,2.1-1,3.2
				c0.7-1.5,1.8-3.4,2.7-4.2c0.1-0.1,0.2-0.1,0.4-0.1c0.2,0,0.9,0.2,1.2,0.5s0.1,0.5-0.1,0.6c-0.7,0.6-1,1.6-1.1,2.3
				c0,0.5,0.2,0.7,0.4,0.7c0.8,0,1.6-1.6,2-2.2c0.2-0.3,0.7,0,0.5,0.3c-0.4,0.7-1.3,2.3-2.2,2.6c-0.7,0.3-1.9-0.4-2-1.2
				c-0.1-0.6,0.2-1.5,0.5-2.1c0.1-0.2,0-0.1-0.1,0c-1.3,1.6-2.8,5.1-2.9,6.4c0,0.2-0.1,0.2-0.2,0.2c-0.5,0-1.3-0.5-1.3-1
				C602,417.2,602.6,414.4,603.5,412.5z"/>
			<path class="st7" d="M614.4,413.7c-0.3,0.7-0.8,1.7-1.3,2.6c0.2,0.1,0.4,0.1,0.6,0.1c0.6-0.1,1.2-0.8,2-2.2
				c0.2-0.3,0.7-0.1,0.5,0.3c-0.8,1.6-1.6,2.3-2.4,2.5c-0.4,0.1-0.7,0-0.9-0.1c-0.6,1.1-1.3,2.2-1.9,3c-0.2,0.2-0.5,0.5-0.8,0.5
				c-0.6,0-1.7-0.5-1.7-1.1c0-2.1,0.3-4.7,0.8-6.6c0.1-0.2,0.2-0.3,0.3-0.3c0.4,0,1,0.2,1.3,0.4c0.2,0.1,0,0.4,0,0.6
				c-0.4,1.6-0.9,4.3-1,5.8c0,0.2,0,0.2,0.2,0.1c0.7-1,1.6-2.8,2.1-3.9c0-0.7,0.3-1.7,1-2.7c0.2-0.3,0.4-0.2,0.7-0.1
				C614.4,412.7,614.6,413.3,614.4,413.7z"/>
			<path class="st7" d="M618,418.1V418c-0.6,1.2-1.3,2.3-2.2,2.3c-0.8,0-1.2-0.5-1.3-1.2c-0.3-2.2,0.9-5.6,2.8-6.7
				c0.6-0.4,1.3,0.1,2.1,0.5c0-0.1,0.1-0.2,0.1-0.3c0.1-0.2,0.2-0.3,0.3-0.3c0.4,0,1,0.4,1.3,0.6c0.2,0.2,0,0.4-0.1,0.6
				c-0.7,1.8-1.2,4.1-1.4,5.5c-0.1,0.3,0.1,0.3,0.3,0.1c1.2-1.2,2.1-3.6,2.6-4.9c0.1-0.3,0.6-0.1,0.5,0.2c-0.5,1.3-2.2,5.8-3.9,5.8
				c-0.7,0-1.2-0.7-1.1-1.4C618,418.6,618,418.4,618,418.1z M619,413.9c0.1-0.2,0.1-0.4,0.2-0.5c-0.1-0.2-0.3-0.3-0.5-0.3
				c-1.4,0-2.4,3.4-2.6,5.2c0,0.2-0.1,0.9,0.3,0.9C617.4,419.2,618.7,414.8,619,413.9z"/>
			<path class="st7" d="M625.2,410.1c-0.1,0.2-0.1,0.4-0.2,0.6c0.6,0,1.2,0.1,1.5,0.2c0.1,0.1,0.2,0.6,0.2,0.8c0,0.1,0,0.2-0.1,0.2
				c0,0,0,0-0.1,0c-0.6-0.2-1.3-0.2-1.9-0.2c-0.7,2.4-1.4,5.3-1.6,7.1c0,0.4,0,0.5,0.3,0.2c1.2-1.2,2.4-3.5,2.9-4.8
				c0.1-0.3,0.6-0.1,0.5,0.2c-0.5,1.3-2.7,5.8-4.3,5.8c-1.1,0-1.1-1.2-1-2c0.2-1.8,0.7-4.3,1.2-6.5c-0.2,0-0.3,0-0.4,0
				c-0.4,0-1.3,0-1.5-0.5c-0.1-0.2,0-0.2,0.2-0.2c0.7,0,1.3-0.1,1.9-0.2c0.1-0.5,0.3-1,0.5-1.5c0.2-0.5,0.4-0.7,0.6-0.7
				c0.4,0,1.6,0.5,1.6,0.8c0,0,0,0.1-0.1,0.1c0,0,0,0.1-0.1,0.1C625.3,409.8,625.3,409.9,625.2,410.1z"/>
			<path class="st7" d="M625.1,418.1c0.3-1.9,0.9-4,1.5-5.6c0.1-0.2,0.2-0.3,0.3-0.3c0.4,0,1,0.4,1.3,0.6c0.2,0.2,0,0.4-0.1,0.6
				c-0.7,1.8-1.3,4.1-1.5,5.5c-0.1,0.3,0.1,0.3,0.3,0.1c1.2-1.2,2.1-3.6,2.7-4.9c0.1-0.3,0.6-0.1,0.5,0.2c-0.5,1.3-2.3,5.8-4,5.8
				c-0.7,0-1.2-0.7-1.1-1.4C625.1,418.6,625.1,418.4,625.1,418.1z M628.7,408.1c0.2,0,0.8,0.3,1.2,0.5c0.3,0.2,0.3,0.5,0.1,0.8
				c-0.4,0.6-1.4,2.2-1.9,2.2c-1.1,0-0.1-2.6,0.2-3C628.4,408.3,628.6,408.1,628.7,408.1z"/>
			<path class="st7" d="M632.5,412.5c1.2,0,2.3,0.9,2.3,1.8s-0.2,1.9-0.6,2.8c0.9-0.8,1.6-1.8,2.1-2.9c0.1-0.3,0.6-0.1,0.5,0.2
				c-0.6,1.6-1.7,2.8-3.1,3.7c-0.7,1.2-1.8,2.1-3,2.1c-1.4,0-2.3-1.4-2.3-2.5c0-2,1-4.6,2.7-5.5
				C631.5,412.1,632.1,412.2,632.5,412.5z M630.5,418.8c0.4,0,0.7-0.1,1.2-0.3c0.7-1,1.3-3,1.3-4.3s-0.7-1.4-1.4-0.6
				C630.5,414.9,629.9,417.7,630.5,418.8C630.3,418.8,630.4,418.8,630.5,418.8z"/>
			<path class="st7" d="M636.7,412.5c0.1-0.2,0.2-0.3,0.3-0.3c0.4,0,1.1,0.4,1.3,0.6s0,0.4-0.1,0.6c-0.4,1-0.7,2.1-1,3.2
				c0.7-1.5,1.8-3.4,2.7-4.2c0.1-0.1,0.2-0.1,0.4-0.1c0.3,0,1.3,0.4,1.3,0.7c0,0.1,0,0.1-0.1,0.2c-0.1,0.2-0.1,0.3-0.2,0.5
				c-0.6,1.7-1.2,3.9-1.4,5.3c-0.1,0.3,0.1,0.3,0.3,0.1c1.2-1.2,2.1-3.6,2.7-4.9c0.1-0.3,0.6-0.1,0.5,0.2c-0.5,1.3-2.3,5.8-4,5.8
				c-0.7,0-1.2-0.5-1.2-1.1c0.2-1.7,0.7-4.1,1.3-5.7c-1.3,1.4-3,5.2-3.1,6.6c0,0.2-0.1,0.2-0.2,0.2c-0.5,0-1.3-0.5-1.3-1
				C635.2,417.2,635.8,414.4,636.7,412.5z"/>
			<path class="st7" d="M641.4,418.5c0.3-0.5,0.8-0.7,1.4-0.7c0.4-0.1,0.9-0.1,1.3-0.1c-0.2-1.2-1.6-1.9-1.6-3.5c0-1.3,1.1-2,2.2-2
				c0.7,0,1.6,1,1.6,1.7c0,0.4-0.4,1.2-0.7,1.2c-0.4,0-1.1-0.3-1.1-0.5v-0.1c0.3,0,0.6-0.5,0.6-0.9c0-0.2-0.1-0.4-0.3-0.4
				c-0.5,0-0.7,0.9-0.7,1.2c0,1.1,1.1,1.8,1.5,2.7c1.1-0.6,1.7-1.6,2.1-2.8c0.1-0.3,0.6-0.2,0.5,0.2c-0.5,1.5-1.3,2.5-2.5,3.1
				c0.2,1.8-1.7,2.8-3.2,2.8C641.4,420.4,640.9,419.3,641.4,418.5z M642.5,418.4c-0.9,0.2-0.6,1.5,0.3,1.1c0.6-0.2,1.1-0.8,1.2-1.3
				C643.7,418.3,643,418.2,642.5,418.4z"/>
		</g>
	</g>
	<g>
		<g>
			<path class="st7" d="M458.7,426.1c0.3-1.9,0.9-4,1.5-5.6c0.1-0.2,0.2-0.3,0.3-0.3c0.4,0,1,0.4,1.3,0.6c0.2,0.2,0,0.4-0.1,0.6
				c-0.7,1.8-1.3,4.1-1.5,5.5c-0.1,0.3,0.1,0.3,0.3,0.1c1.2-1.2,2.1-3.6,2.7-4.9c0.1-0.3,0.6-0.1,0.5,0.2c-0.5,1.3-2.3,5.8-4,5.8
				c-0.7,0-1.2-0.7-1.1-1.4C458.6,426.6,458.6,426.3,458.7,426.1z M462.3,416c0.2,0,0.8,0.3,1.2,0.5c0.3,0.2,0.3,0.5,0.1,0.8
				c-0.4,0.6-1.4,2.2-1.9,2.2c-1.1,0-0.1-2.6,0.2-3C462,416.2,462.1,416,462.3,416z"/>
			<path class="st7" d="M463.6,420.5c0.1-0.2,0.2-0.3,0.3-0.3c0.4,0,1.1,0.4,1.3,0.6c0.2,0.2,0,0.4-0.1,0.6c-0.4,1-0.7,2.1-1,3.2
				c0.7-1.5,1.8-3.4,2.7-4.2c0.1-0.1,0.2-0.1,0.4-0.1c0.2,0,0.9,0.2,1.2,0.5c0.3,0.3,0.1,0.5-0.1,0.6c-0.7,0.6-1,1.6-1.1,2.3
				c0,0.5,0.2,0.7,0.4,0.7c0.8,0,1.6-1.6,2-2.2c0.2-0.3,0.7,0,0.5,0.3c-0.4,0.7-1.3,2.3-2.2,2.6c-0.7,0.3-1.9-0.4-2-1.2
				c-0.1-0.6,0.2-1.5,0.5-2.1c0.1-0.2,0-0.1-0.1,0c-1.3,1.6-2.8,5.1-2.9,6.4c0,0.2-0.1,0.2-0.2,0.2c-0.5,0-1.3-0.5-1.3-1
				C462,425.1,462.7,422.4,463.6,420.5z"/>
			<path class="st7" d="M471.6,422.1h0.1c0.7,0.3,1.6,0.5,2.4,0.5l0,0c1.9-2.5,3.8-4.9,5.7-7.1c0.2-0.2,0.4-0.1,0.7,0.1
				c0.1-0.2,0.2-0.3,0.3-0.3c0.4,0,1.8,0.5,1.8,0.8v0.1c-0.1,0.1-0.2,0.2-0.3,0.3c-1.2,2.1-2.8,9.5-2.8,11.4c0,0.2-0.1,0.2-0.2,0.2
				c-0.5,0-1.3-0.4-1.3-0.9c0-1,0.2-2.3,0.4-3.8c-1.1,0.1-2.2,0.3-3.2,0.4c-0.7,1.1-1.6,2.5-2.2,3.6c-0.1,0.3-0.2,0.4-0.3,0.8
				c0,0,0,0.1-0.1,0.1c-0.2,0.2-1.5-0.5-1.8-0.8c-0.2-0.3,0.1-0.7,0.3-0.9c0.6-0.8,1.3-1.9,1.9-2.7c-0.4,0-0.7-0.1-1-0.2
				c-0.2-0.1-0.6-1.1-0.6-1.4C471.5,422.2,471.6,422.1,471.6,422.1z M478.6,422.4c0.3-1.7,0.7-3.5,1.1-4.8c-1.2,1.5-2.5,3.2-3.6,4.9
				c0.7-0.1,1.3-0.1,2-0.1C478.3,422.3,478.5,422.4,478.6,422.4z"/>
			<path class="st7" d="M484.1,415.3c0.4,0,1.7,0.5,1.7,0.8v0.1c-0.1,0.1-0.2,0.2-0.3,0.3c-1,1.8-2.3,7.4-2.7,10.2
				c0,0.4,0,0.5,0.3,0.2c1.2-1.2,2-3.5,2.5-4.8c0.1-0.3,0.7-0.1,0.5,0.2c-0.5,1.3-2.3,5.8-4,5.8c-1.1,0-1.1-1.2-1-2
				C481.6,422.4,483.3,415.3,484.1,415.3z"/>
			<path class="st7" d="M489.8,422.1c0.2-0.3,0.7-0.1,0.5,0.2c-0.5,1.1-2.1,2.2-3.3,2.4c0.4,2,0.4,4.5-0.1,6.4
				c-0.1,0.5-0.4,1.2-0.7,1.5c-0.3,0.3-0.6,0.3-1,0.3c-0.5,0-1.3-0.3-1.3-0.7c0-0.5,0-1.1,0.1-1.7c0.4-3.8,1.3-8.2,2.5-11.7
				c0.3-0.9,0.6-1.4,0.8-1.4c0.4,0,1.7,0.5,1.7,0.8v0.1c-0.1,0.1-0.2,0.2-0.3,0.3c-0.6,1-1.2,3.3-1.8,5.5
				C488.1,424,489.4,423.1,489.8,422.1z M486.2,431.3c0.5-1.7,0.6-3.6,0.4-5.3c-0.3,1.7-0.6,3.5-0.8,5.2c-0.1,0.6,0,0.9,0,0.9
				C486,432.1,486.2,431.5,486.2,431.3z"/>
			<path class="st7" d="M490,420.5c0.1-0.2,0.2-0.3,0.3-0.3c0.4,0,1.1,0.4,1.3,0.6c0.2,0.2,0,0.4-0.1,0.6c-0.4,1-0.7,2.1-1,3.2
				c0.7-1.5,1.8-3.4,2.7-4.2c0.1-0.1,0.2-0.1,0.4-0.1c0.2,0,0.9,0.2,1.2,0.5c0.3,0.3,0.1,0.5-0.1,0.6c-0.7,0.6-1,1.6-1.1,2.3
				c0,0.5,0.2,0.7,0.4,0.7c0.8,0,1.6-1.6,2-2.2c0.2-0.3,0.7,0,0.5,0.3c-0.4,0.7-1.3,2.3-2.2,2.6c-0.7,0.3-1.9-0.4-2-1.2
				c-0.1-0.6,0.2-1.5,0.5-2.1c0.1-0.2,0-0.1-0.1,0c-1.3,1.6-2.8,5.1-2.9,6.4c0,0.2-0.1,0.2-0.2,0.2c-0.5,0-1.3-0.5-1.3-1
				C488.5,425.1,489.1,422.4,490,420.5z"/>
			<path class="st7" d="M504.2,425.9c-0.6,1.2-1.3,2.3-2.3,2.3s-1.4-0.8-1.5-1.6c-0.1-2.2,0.9-5.3,2.7-6.3c0.6-0.4,1.4,0.1,2,0.4
				c0.6-2.9,1.4-5.4,1.9-5.4c0.4,0,1.8,0.5,1.8,0.8c0,0,0,0.1-0.1,0.1c-0.1,0.1-0.2,0.2-0.2,0.3c-1,1.8-2.3,7.4-2.7,10.2
				c-0.1,0.4,0,0.5,0.3,0.2c1.2-1.2,2.1-3.5,2.6-4.8c0.1-0.3,0.6-0.1,0.5,0.2c-0.5,1.3-2.3,5.8-4,5.8c-1.1,0-1.1-1.2-1-2
				C504.2,426.1,504.2,426,504.2,425.9z M502.1,426c-0.1,0.7,0.1,1.1,0.4,1.1c0.2,0,0.5-0.2,0.7-0.6c0.5-0.7,0.9-1.7,1.2-2.7
				c0.1-0.8,0.3-1.6,0.4-2.4c-0.1-0.2-0.2-0.3-0.4-0.3C503.2,421,502.3,424.2,502.1,426z"/>
		</g>
	</g>
	<path class="st10" d="M556.9,302.3c-1.2,2-1.6,4.2,0.8,6.1c2.8,2.2,7.9,2.7,12.6,3.2c13.2,1.4,26.7,2.1,40.2,2.2
		c6.5,0.1,13-0.1,19.4-0.4c4.9-0.3,8.3-1.5,9.9-3.9c0.3-0.5,0.6-1,0.9-1.6c3.1-3.2,2.4-7.8,3-10.9v-0.2c0.2-0.6,0.4-1.2,0.5-1.8
		c1.1-3.7,2.6-8.2-2.6-10.7c-5.9-2.9-16.6-2.2-24-2.4l-2.2-0.1c-11.1-1-22.4-1.7-33.6-2.1c-7.2-0.3-17.1-1.2-20.8,2.1
		c-1.4,0.4-2.2,1.1-2.3,2L557,302C557,302,557,302.2,556.9,302.3z"/>
	<path class="st10" d="M557.3,376.6l1.7,18.2c0.1,0.8,0.9,1.6,2.3,2c3.7,3.4,13.5,2.4,20.8,2.1c11.3-0.4,22.5-1.1,33.6-2.1l2.2-0.1
		c7.4-0.2,18.1,0.5,24-2.4c5.2-2.5,3.7-7.1,2.6-10.7c-0.1-0.6-0.3-1.2-0.5-1.8v-0.2c-0.6-3.1,0-7.7-3-10.9c-0.3-0.5-0.6-1-0.9-1.6
		c-1.7-2.4-5-3.6-9.9-3.9c-6.4-0.3-12.9-0.5-19.4-0.4c-13.5,0.1-27,0.8-40.2,2.2c-4.7,0.5-9.8,0.9-12.6,3.2c-2.3,1.9-2,4-0.8,6.1
		C557.2,376.3,557.2,376.4,557.3,376.6z"/>
	<path class="st10" d="M514,385.5l-1.7-18.2c-0.1-0.8-0.9-1.6-2.3-2c-3.7-3.4-13.5-2.4-20.8-2.1c-11.3,0.4-22.5,1.1-33.6,2.1
		l-2.2,0.1c-7.4,0.2-18.1-0.5-24,2.4c-5.2,2.5-3.7,7.1-2.6,10.7c0.1,0.6,0.3,1.2,0.5,1.8v0.2c0.6,3.1,0,7.7,3,10.9
		c0.3,0.5,0.6,1,0.9,1.6c1.7,2.4,5,3.6,9.9,3.9c6.4,0.3,12.9,0.5,19.4,0.4c13.5-0.1,27-0.8,40.2-2.2c4.7-0.5,9.8-0.9,12.6-3.2
		c2.3-1.9,2-4,0.8-6.1C514.2,385.8,514.1,385.6,514,385.5z"/>
	<circle class="st13" cx="601.5" cy="382" r="15.4"/>
	<circle class="st13" cx="602.5" cy="298" r="15.4"/>
	<circle class="st13" cx="468.4" cy="380.4" r="15.4"/>
	<polygon class="st14" points="591.5,306 607.5,308.5 611.3,288.3 595.1,287.2 	"/>
	<polyline class="st15" points="591.5,306 592.5,306.5 608.6,309.3 612.3,289.5 611.3,288.3 	"/>
	<line class="st1" x1="607.5" y1="308.5" x2="608.6" y2="309.3"/>
	<path class="st2" d="M607,291.2c0.2-0.5,0.2-1.1-0.1-1.6c-0.4-0.6-1.1-0.7-1.8-0.9c-1.9-0.4-3.8-0.6-5.7-0.6c-0.9,0-1.8,0-2.7,0.1
		c-0.7,0.1-1.2,0.4-1.4,1.1c0,0.1-0.1,0.3-0.1,0.4c-0.4,0.9-0.3,2.1-0.4,2.9v0.1c0,0.2-0.1,0.3-0.1,0.5c-0.2,1-0.4,2.2,0.4,2.9
		c0.8,0.8,2.3,0.6,3.4,0.7h0.3c1.6,0.3,3.1,0.5,4.7,0.6c1,0.1,2.4,0.3,2.9-0.6c0.2-0.1,0.3-0.3,0.3-0.5l0.2-4.9
		C606.9,291.3,607,291.3,607,291.2z"/>
	<g>
		<g class="st6">
			<path class="st7" d="M593.6,300.1c0.1-0.1,0.5-0.2,0.5-0.1l0,0v0.1c0.1,0.4,0.5,1.4,0.8,2.2c-0.2-0.5-0.4-1.1-0.5-1.5
				c-0.1-0.4-0.1-0.7-0.1-1c0-0.2,0.1-0.4,0.2-0.5c0.7-0.5,1.4,0.9,1.1,1.8c0.2,0,0.3,0,0.5,0.1c0.5,0.4,0.8,1.5,0.1,2
				c-0.1,0.1-0.3,0.2-0.5,0.1c-0.1,0-0.2-0.2-0.1-0.2c0.1,0,0.2,0,0.3-0.1c0.5-0.4-0.1-1.9-0.5-1.6c-0.1,0.1-0.2,0.2-0.3,0.2
				s-0.2,0-0.2-0.1s0.1-0.2,0.2-0.2c0.3-0.6-0.2-1.9-0.5-1.7c-0.1,0.1-0.1,0.5,0,1.1c0.2,0.8,0.6,1.8,0.9,2.5v0.1
				c-0.1,0.1-0.4,0.1-0.5,0C594.5,302.6,593.4,300.2,593.6,300.1z"/>
		</g>
		<g class="st6">
			<path class="st7" d="M597.7,300.9L597.7,300.9c0.1,0.4,0.1,0.7-0.1,0.9c-0.2,0.1-0.4,0.1-0.5-0.1c-0.5-0.5-0.8-1.5-0.5-2.1
				c0.1-0.2,0.3-0.2,0.6-0.3v-0.1c0-0.1,0-0.1,0-0.1c0.1-0.1,0.3-0.1,0.4-0.1c0.1,0,0.1,0.1,0.1,0.2c0.2,0.5,0.5,1.2,0.7,1.5
				c0,0.1,0.1,0,0.1,0c0.1-0.5-0.2-1.2-0.3-1.6c0-0.1,0.1-0.1,0.2,0c0.1,0.4,0.5,1.7,0.1,2c-0.2,0.1-0.4,0-0.5-0.1
				C597.7,301.1,597.7,301,597.7,300.9z M597.1,299.8c0-0.1,0-0.1,0-0.2c-0.1,0-0.1,0-0.2,0c-0.3,0.2,0,1.2,0.3,1.7
				c0,0.1,0.2,0.2,0.2,0.2C597.7,301.3,597.2,300.1,597.1,299.8z"/>
			<path class="st7" d="M597.1,297.4c0.1-0.1,0.5-0.2,0.5-0.1l0,0v0.1c0.1,0.4,0.3,1.1,0.7,1.8c0-0.2-0.1-0.4-0.1-0.6s0-0.4,0.1-0.5
				c0.2-0.2,0.6,0,0.7,0.1c0.2,0.3,0.3,0.6,0.4,1c0.1-0.3,0.1-0.7,0-1.2c0-0.1,0.1-0.1,0.2,0c0.1,0.5,0.1,1.1-0.1,1.6
				c0,0.4-0.1,0.7-0.2,0.9c-0.1,0-0.2,0-0.2,0s0.1,0.1,0,0.1c-0.1,0.1-0.4,0.1-0.5,0C598,299.9,596.9,297.5,597.1,297.4z
				 M598.5,299.2c0.1,0.4,0.2,0.7,0.4,1c0.1-0.1,0.2-0.2,0.3-0.3c0-0.4-0.2-1-0.5-1.4c-0.1-0.1-0.2-0.1-0.2,0.1
				C598.5,298.8,598.5,299,598.5,299.2z"/>
		</g>
		<g class="st6">
			<path class="st7" d="M600.2,296.9c0.1-0.1,0.3-0.1,0.4-0.1c0,0,0.1,0,0.1,0.1s0,0.1,0,0.2c0.2,0.4,0.3,0.8,0.5,1.1l0,0
				c0.1-0.4,0.1-0.9-0.1-1.4c0-0.1,0.1-0.1,0.1,0c0.2,0.6,0.1,1.2,0,1.7c0.2,0.4,0.3,0.7,0.4,1.1c0.1,0.4,0.1,0.7-0.2,1
				c-0.1,0.1-0.3,0.1-0.4,0.1c-0.3-0.1-0.4-0.4-0.4-0.7c0-0.3,0.2-0.7,0.3-0.9c-0.1-0.2-0.1-0.3-0.2-0.5c0.1,0.4,0.1,0.8-0.1,0.9
				s-0.5,0.1-0.6-0.1c0-0.1-0.1-0.1-0.1-0.2c-0.3-0.5-0.5-1.1-0.6-1.6c0-0.1,0-0.1,0-0.1c0.1-0.1,0.3-0.1,0.4-0.1s0.1,0.1,0.1,0.2
				c0.1,0.5,0.4,1,0.6,1.4c0.1,0.1,0.1,0.2,0.2,0.1c0.2-0.2-0.1-1.2-0.3-1.6v-0.1c-0.1-0.1-0.1-0.3-0.1-0.4
				C600.1,296.9,600.1,296.9,600.2,296.9z M601.3,299.9c-0.1-0.2-0.2-0.4-0.3-0.7c-0.1,0.3-0.3,0.8-0.1,1.1c0.1,0.1,0.2,0.1,0.3,0.1
				C601.4,300.3,601.4,300.1,601.3,299.9z"/>
		</g>
		<g class="st6">
			<path class="st7" d="M601.5,298.1c0-0.2,0.1-0.3,0.2-0.4s0.2-0.2,0.3-0.3c-0.3-0.2-0.7-0.2-1-0.5c-0.2-0.3-0.1-0.7,0.1-0.9
				c0.2-0.1,0.6-0.1,0.7,0.1c0.1,0.1,0.1,0.3,0,0.4c-0.1,0.1-0.3,0.1-0.3,0.1l0,0c0.1-0.1,0-0.2,0-0.3c0-0.1-0.1-0.1-0.2,0
				c-0.1,0.1,0,0.3,0.1,0.4c0.2,0.2,0.6,0.2,0.8,0.4c0.1-0.3,0.1-0.7,0-1c0-0.1,0.1-0.1,0.2-0.1c0.2,0.4,0.1,0.8,0,1.2
				c0.4,0.4,0.1,1-0.2,1.2C601.8,298.6,601.5,298.4,601.5,298.1z M601.7,297.9c-0.2,0.2,0.1,0.4,0.3,0.2c0.1-0.1,0.1-0.4,0-0.5
				C602,297.7,601.8,297.8,601.7,297.9z"/>
			<path class="st7" d="M602.9,293.9c0,0.1,0,0.1,0.1,0.2c0.1-0.1,0.3-0.2,0.4-0.2c0,0,0.2,0.1,0.2,0.2c0,0,0,0,0,0.1l0,0
				c-0.2,0.1-0.3,0.2-0.5,0.3c0.3,0.7,0.6,1.5,0.9,1.9c0.1,0.1,0.1,0.1,0.1,0c0-0.5-0.1-1.2-0.2-1.6c0-0.1,0.1-0.1,0.2,0
				c0.1,0.4,0.4,1.8,0,2.1c-0.3,0.2-0.5-0.1-0.6-0.3c0-0.1-0.1-0.1-0.1-0.2c0.1,0.5,0.1,0.9-0.1,1.1c-0.2,0.1-0.4,0-0.5-0.1
				c0-0.1-0.1-0.1-0.1-0.2c-0.3-0.5-0.5-1.1-0.6-1.6v-0.1c0.1-0.1,0.3-0.1,0.4-0.1c0.1,0,0.1,0.1,0.1,0.2c0.2,0.5,0.4,1.2,0.6,1.6
				c0,0.1,0.1,0,0.1,0c0-0.3,0-0.8-0.1-1.2c-0.2-0.3-0.3-0.7-0.5-1l-0.1,0.1c-0.2,0.2-0.5,0.3-0.6,0c-0.1-0.1-0.2-0.4-0.2-0.5
				s0-0.2,0-0.2c0.1,0,0.2-0.1,0.4-0.1c0.1,0,0.1,0.1,0.2,0.2c0,0.1,0,0.4,0,0.6c0.1-0.1,0.2-0.2,0.2-0.2c-0.1-0.1-0.1-0.3-0.2-0.4
				c0-0.1,0-0.2,0-0.3c0.1-0.1,0.5-0.2,0.5-0.1l0,0l0,0C602.9,293.8,602.9,293.9,602.9,293.9z"/>
			<path class="st7" d="M603.8,293.2c0,0.1,0,0.1,0.1,0.2c0.1-0.1,0.3-0.2,0.4-0.2l0.2,0.1c0,0,0,0,0,0.1l0,0
				c-0.2,0.1-0.3,0.2-0.5,0.3c0.3,0.7,0.6,1.5,0.9,1.9c0.1,0.1,0.1,0.1,0.1,0c0-0.5-0.1-1.2-0.2-1.6c0-0.1,0.1-0.1,0.2,0
				c0.1,0.4,0.4,1.8,0,2.1c-0.3,0.2-0.5-0.1-0.6-0.3c-0.3-0.5-0.6-1.1-0.9-1.7l-0.1,0.1c-0.1,0.1-0.3,0.2-0.4,0.1v-0.1
				c0.2-0.1,0.3-0.3,0.4-0.4c-0.1-0.1-0.1-0.3-0.2-0.4c0-0.1,0-0.2,0-0.3c0.1-0.1,0.5-0.2,0.5-0.1l0,0l0,0
				C603.8,293.1,603.8,293.2,603.8,293.2z"/>
			<path class="st7" d="M604.3,292.1c0.1,0,0.2-0.1,0.4-0.1c0.1,0,0.2,0.1,0.2,0.2c0,0.2,0.1,0.8,0,0.9c-0.3,0.2-0.5-0.6-0.5-0.7
				C604.2,292.2,604.2,292.2,604.3,292.1z M605.2,295.1c-0.3-0.5-0.5-1.1-0.6-1.6c0-0.1,0-0.1,0-0.1c0.1-0.1,0.3-0.1,0.4-0.1
				s0.1,0.1,0.1,0.2c0.2,0.5,0.4,1.2,0.6,1.6c0,0.1,0.1,0,0.1,0c0.1-0.5-0.1-1.2-0.3-1.6c0-0.1,0.1-0.1,0.2,0
				c0.1,0.4,0.5,1.8,0.1,2.1c-0.2,0.1-0.4,0-0.5-0.1C605.3,295.2,605.3,295.2,605.2,295.1z"/>
			<path class="st7" d="M605.4,292.9v-0.1c0.1-0.1,0.3-0.1,0.4-0.1s0.1,0.1,0.1,0.2c0.1,0.3,0.2,0.6,0.3,0.9
				c-0.1-0.5-0.2-1.1-0.1-1.5c0,0,0-0.1,0.1-0.1c0.1-0.1,0.4-0.2,0.4-0.1c0,0,0,0,0,0.1s0,0.1,0,0.2c0.2,0.5,0.4,1.1,0.6,1.5
				c0,0.1,0.1,0.1,0.1,0c0.1-0.5-0.1-1.2-0.3-1.6c0-0.1,0.1-0.1,0.2,0c0.1,0.4,0.5,1.8,0.1,2.1c-0.2,0.1-0.4,0.1-0.5,0
				c-0.3-0.4-0.6-1.1-0.7-1.6c-0.1,0.6,0.2,1.8,0.5,2.1v0.1c-0.1,0.1-0.4,0.1-0.5,0C605.9,294.3,605.5,293.5,605.4,292.9z"/>
			<path class="st7" d="M608.2,293.6c-0.2,0.1-0.4,0.1-0.5,0c-0.4-0.5-0.8-1.5-0.5-2.1c0-0.1,0.1-0.2,0.2-0.2s0.2,0,0.3-0.1v-0.1
				V291c0.1-0.1,0.3-0.1,0.4-0.1c0,0,0.1,0,0.1,0.1s0,0.1,0,0.1c0.1,0.4,0.3,0.8,0.5,1.2l0,0c0.1-0.4,0.1-0.9-0.1-1.4
				c0-0.1,0.1-0.1,0.1,0c0.2,0.6,0.1,1.2,0,1.7c0.2,0.4,0.3,0.7,0.4,1.1c0.1,0.4,0.1,0.7-0.2,1c-0.1,0.1-0.3,0.1-0.4,0.1
				c-0.3-0.1-0.4-0.4-0.4-0.7c0-0.3,0.2-0.7,0.3-0.9c-0.1-0.2-0.1-0.3-0.2-0.5C608.4,293.1,608.4,293.4,608.2,293.6z M607.9,293.1
				c0,0.1,0.2,0.2,0.2,0.2c0.2-0.2-0.3-1.4-0.4-1.7c0-0.1,0-0.1-0.1-0.2c-0.1,0-0.1,0-0.2,0C607.3,291.7,607.6,292.7,607.9,293.1z
				 M608.9,294.1c-0.1-0.2-0.2-0.4-0.3-0.7c-0.1,0.3-0.3,0.8-0.1,1.1c0.1,0.1,0.2,0.1,0.3,0.1C608.9,294.5,608.9,294.3,608.9,294.1z
				"/>
		</g>
	</g>
	<path class="st12" d="M593.3,375.3h-0.2l-0.2,0.1l-0.2,0.1l-0.1,0.1l-0.1,0.2l-0.1,0.2l-0.1,0.2v0.2v10.9v0.2l0.1,0.2l0.1,0.2
		l0.1,0.2l0.1,0.1l0.2,0.1l0.2,0.1h0.2H610h0.2l0.2-0.1l0.2-0.1l0.1-0.1l0.1-0.2l0.1-0.2l0.1-0.2v-0.2v-10.9v-0.2l-0.1-0.2l-0.1-0.2
		l-0.1-0.2l-0.1-0.1l-0.2-0.1l-0.2-0.1H610H593.3z M610,381.1v6.1h-16.7v-6.1H610z M610,376.3v2.3h-16.7v-2.3H610z"/>
	<polygon class="st12" points="594.7,383.2 594.6,383.3 594.5,383.3 594.5,383.4 594.4,383.6 594.5,383.7 594.5,383.8 594.6,383.9 
		594.7,384 601.4,384 601.5,383.9 601.6,383.8 601.7,383.7 601.7,383.6 601.7,383.4 601.6,383.3 601.5,383.3 601.4,383.2 	"/>
	<polygon class="st12" points="594.7,384.7 594.6,384.7 594.5,384.8 594.5,384.9 594.4,385 594.5,385.2 594.5,385.3 594.6,385.4 
		594.7,385.4 599.3,385.4 599.4,385.4 599.4,385.3 599.5,385.2 599.5,385 599.5,384.9 599.4,384.8 599.4,384.7 599.3,384.7 	"/>
	<polygon class="st12" points="606.5,383.2 606.3,383.3 606.3,383.3 606.2,383.4 606.1,383.4 606.1,383.5 606,383.6 606,383.7 
		606,384.2 606,384.3 606.1,384.4 606.1,384.5 606.2,384.5 606.3,384.6 606.3,384.6 606.5,384.7 606.6,384.7 608.3,384.7 
		608.4,384.7 608.6,384.6 608.6,384.6 608.7,384.5 608.8,384.5 608.8,384.4 608.9,384.3 608.9,384.2 608.9,383.7 608.9,383.6 
		608.8,383.5 608.8,383.4 608.7,383.4 608.6,383.3 608.6,383.3 608.4,383.2 	"/>
	<path class="st7" d="M467.9,392.6c-1.7-0.2-3.4-0.7-5-1.4c-0.5-0.2-1-0.7-1.5-1c-0.1,0-0.1-0.1-0.2-0.1c-1.1,0-2.1-0.3-3.1-0.6
		c-0.9-0.3-1.7-0.8-2.3-1.4c-0.3-0.3-0.4-0.7-0.6-1c-0.1-0.3,0-0.5,0.3-0.6c0.7-0.4,1.4-0.4,2.2-0.3c0.8,0.1,1.5,0.3,2.3,0.4
		c-0.3-4.8,0.6-9.3,3.9-13c-0.3-0.2-0.5-0.4-0.8-0.7c-0.4-0.6-0.3-1.7,0.2-2.2c0.2-0.3,0.6-0.5,1-0.4c0.2,0,0.4,0,0.5-0.2
		c0.6-0.5,1.2-0.9,2-1.2c0.7-0.2,1.4-0.2,2.1,0.1c0.9,0.3,1.6,1,2.2,1.8c0.2,0.3,0.5,0.7,0.8,1c0.1,0.1,0.1,0.1,0.2,0.1
		c0.5,0.1,0.8,0.4,0.9,0.9c0.1,0.4-0.1,0.8-0.4,1.1c-0.1,0.1-0.1,0.2-0.2,0.3c-0.2,0.5-0.3,1.1-0.5,1.6s-0.3,0.5-0.8,0.4
		c-0.1,0-0.1,0-0.2,0c0.3-0.5-0.1-0.7-0.4-0.9c-0.3-0.3-0.5-0.6-0.7-1c0.5,0.7,1.1,0.8,1.9,0.6c0.3-0.1,0.5-0.3,0.5-0.7
		c-0.5,0-0.8-0.2-1-0.7c-0.2-0.6-0.1-1.1,0.4-1.5c-0.4-0.5-0.7-1-1-1.5c-1.2-1.6-3.2-2-4.8-0.6c-0.3,0.2-0.6,0.5-0.9,0.8
		c-0.1,0.1-0.2,0.1-0.3,0.1c-0.5-0.1-1,0.1-1.2,0.6c-0.3,0.7-0.1,1.4,0.4,1.8s0.5,0.4,0.1,0.9c-0.5,0.7-0.9,1.4-1.3,2.1
		c-0.6,1.1-1.1,2.3-1.4,3.5c-0.2,0.9-0.3,1.8-0.5,2.7c-0.2,1-0.2,2-0.1,2.9c0,0.6,0.1,1.2,0.2,1.8c0.1,0.5,0.2,0.9,0.3,1.4
		c0.3,1.2,1.1,2.2,2.2,2.7c1.3,0.6,2.6,1,3.9,1.3"/>
	<path class="st7" d="M469.6,392.4c0.3,0,0.6-0.1,0.7-0.5c0.1-0.3-0.1-0.7-0.4-0.8c-0.3-0.2-0.6-0.3-1-0.4c-0.6-0.3-1.1-0.5-1.6-1
		c-0.2-0.3-0.4-0.5-0.5-0.8l0.1-0.1c0.4,0.6,0.8,1.1,1.5,1.4c0.8-0.9,1.4-2,1.7-3.2s0.4-2.4,0.7-3.6c0,0.1,0,0.1,0,0.2
		c0,0.6-0.1,1.3-0.2,1.9c-0.2,1-0.5,1.9-0.8,2.9c-0.1,0.2-0.2,0.5-0.3,0.7c-0.1,0.1-0.1,0.2,0.1,0.3c0.5,0.2,0.9,0.4,1.4,0.6
		s1,0.4,1.4,0.7c0.4,0.3,0.5,0.6,0.4,0.9c-0.1,0.4-0.5,0.6-0.9,0.6"/>
	<path class="st7" d="M471.7,392c0.2,0,0.4-0.1,0.6-0.3c0.1-0.1,0-0.4-0.1-0.6c-0.2-0.2-0.4-0.5-0.7-0.6c-0.7-0.3-1.5-0.6-2.2-0.9
		l-0.6,0.8c0.5,0.2,1,0.4,1.5,0.7c0.2,0.1,0.5,0.3,0.6,0.5s0.3,0.4,0.5,0.4"/>
	<path class="st7" d="M471.3,375.9l0.2-0.9c-0.3-0.1-0.5,0-0.5,0.3c0,0.1,0,0.2,0,0.3C470.9,375.8,471,375.9,471.3,375.9z"/>
	<path class="st7" d="M472.3,372.1c-0.3,0.3-0.2,0.5,0.3,0.7L472.3,372.1z"/>
	<path class="st7" d="M471.5,375.5L471.5,375.5l0.4-0.8C471.4,374.9,471.7,375.3,471.5,375.5z"/>
	<path class="st7" d="M464.9,379.3c0.4,0.3,0.7,0.6,1.1,1c1.4,1.4,3.3,2.3,5.3,2.4c1.2,0.1,2.4-0.2,3.5-0.7c0.3-0.1,0.5-0.3,0.8-0.4
		c0.1,0,0.2-0.1,0.2-0.1l0.1,0.1c-0.1,0.1-0.3,0.2-0.4,0.3c-3.5,2-7.9,1.1-10.3-2.1C465,379.6,464.9,379.5,464.9,379.3L464.9,379.3z
		"/>
	<path class="st7" d="M468.1,378.5c0.2,0.3,0.5,0.6,0.7,0.9c1.2,1.4,2.7,1.8,4.4,1.5c0.5-0.1,0.9-0.5,1.2-0.9
		c0.1-0.1,0.1-0.2,0.2-0.3c0.2,0.1,0.2,0.3,0.1,0.4c-0.7,1-1.9,1.5-3,1.3c-0.8-0.1-1.5-0.5-2.2-0.9s-1.1-1.1-1.5-1.7
		C468,378.6,468,378.6,468.1,378.5L468.1,378.5z"/>
	<path class="st7" d="M476.7,378.1c-0.3,0.6-0.9,1-1.5,1.2c-0.9,0.3-1.9,0.1-2.7-0.5c-0.5-0.3-0.9-0.7-1.2-1.2c0-0.1,0-0.1,0-0.2
		c0.1,0.1,0.2,0.2,0.3,0.4c0.5,0.6,1.2,1,1.9,1.3c1.1,0.4,2.1,0,3-0.8C476.6,378.2,476.6,378.2,476.7,378.1
		C476.6,378.1,476.6,378.1,476.7,378.1z"/>
	<path class="st7" d="M477.4,379.5c0,0.1-0.1,0.2-0.2,0.3c-0.4,0.3-0.8,0.7-1.2,1c-0.1,0.1-0.3,0.1-0.3,0c-0.1-0.2,0.1-0.2,0.2-0.3
		c0.4-0.3,0.8-0.6,1.2-0.9C477.2,379.5,477.3,379.5,477.4,379.5L477.4,379.5z"/>
	<path class="st7" d="M470.2,375.1c0,0.3-0.2,0.5-0.5,0.6c-0.1,0.1-0.3,0.1-0.4,0.2l-1.2,0.5c0.2-0.3,0.5-0.6,0.8-0.6
		c0.4-0.1,0.7-0.3,1-0.6C470,375.2,470.1,375.2,470.2,375.1z"/>
	<path class="st7" d="M464.1,372.8c-0.3-0.5-0.3-1.2-0.1-1.7C464.3,371.6,464.2,372.2,464.1,372.8z"/>
	<path class="st7" d="M477.4,376.5c-0.2,0-0.3-0.2-0.2-0.3c0.3-0.5,0.7-1,1-1.5h0.1L477.4,376.5z"/>
	<path class="st7" d="M469.1,372.5c-0.2-0.2-0.3-0.4-0.5-0.6c-0.2-0.1-0.5-0.1-0.8-0.1c0.2-0.3,0.8-0.3,1.1,0
		C469.2,372.1,469.3,372.3,469.1,372.5z"/>
	<path class="st7" d="M475.6,379.3l1.5-0.9C476.9,378.9,476.1,379.4,475.6,379.3z"/>
	<path class="st7" d="M474.4,380.8l1.1-0.9C475.5,380.3,474.9,380.9,474.4,380.8z"/>
	<path class="st7" d="M477.5,379c-0.2,0.4-1,0.8-1.4,0.6L477.5,379z"/>
	<path class="st7" d="M475.5,380.7c-0.2,0.4-0.6,0.7-1.1,0.7v-0.1L475.5,380.7z"/>
	<path class="st7" d="M475.9,375.4l0.1,1.4h-0.2C475.7,376.4,475.8,375.9,475.9,375.4L475.9,375.4z"/>
	<path class="st16" d="M471.3,392c-0.2,0-0.4-0.1-0.5-0.4c-0.1-0.2-0.3-0.4-0.6-0.5c-0.5-0.3-1-0.5-1.5-0.7l0.6-0.8
		c0.8,0.3,1.5,0.6,2.2,0.9c0.3,0.1,0.5,0.4,0.7,0.6c0.1,0.1,0.2,0.5,0.1,0.6c-0.2,0.2-0.4,0.3-0.6,0.3"/>
	<path class="st8" d="M471.3,375.9c-0.3,0-0.4-0.1-0.4-0.4c0-0.1,0-0.2,0-0.3c0-0.3,0.2-0.3,0.5-0.3L471.3,375.9z"/>
	<path class="st8" d="M472.3,372.1l0.3,0.7C472.1,372.6,472,372.4,472.3,372.1z"/>
	<path class="st8" d="M471.5,375.5c0.2-0.2-0.1-0.6,0.4-0.8L471.5,375.5L471.5,375.5z"/>
	<path class="st17" d="M457.7,388.9c0,0,0.2-1.4,1.4-2.1"/>
	<path class="st17" d="M458.7,389.2c0,0,0.2-1.4,1.4-2.1"/>
	<path class="st17" d="M456.5,388.7c0,0,0.2-1.6,1.7-2.3"/>
	<path class="st17" d="M456,386.4c0,0,2.2-0.1,4.6,1.7"/>
	<path class="st17" d="M455.7,387c0,0,2.2-0.1,4.5,1.8"/>
	<path class="st17" d="M455.8,387.7c0,0,1.7-0.1,3.5,1.4"/>
	<path class="st17" d="M456.2,387.9c0,0,0.1-1.1,1.1-1.7"/>
	<path class="st17" d="M459.5,389.5c0,0,0.1-1.1,1.1-1.7"/>
</g>
<g>
	<path class="st7" d="M481.5,227.4c0.6,0.4,0.9,1.1,0.9,1.7c0,2.6-3.8,5.8-3.8,8.5c0,0.1,0,0.3-0.2,0.3c-0.9,0-2.4-1-2.4-2.2
		c0-2.7,3.8-4.6,3.8-6.8c0-0.9-0.4-1.7-1.5-1.7c-7.2,0-13.5,20.1-5.5,20.1c0.9,0,2.1-0.3,2.9-0.8c0.1-0.1,0.2,0,0.3,0.1
		c0.1,0.1,0,0.3,0,0.6c-0.5,1.6-2.2,2.1-3.7,2.1c-12.6,0-6.3-24.1,4.9-24.1C479.3,225,480.9,225.9,481.5,227.4z"/>
	<path class="st7" d="M486.4,234.7c2.3,0,4.2,1.6,4.2,3.3c0,1.7-0.4,3.5-1.1,5.2c1.6-1.5,3-3.3,3.8-5.4c0.3-0.6,1.2-0.2,1,0.4
		c-1.2,2.9-3.2,5.3-5.8,6.9c-1.4,2.3-3.3,3.9-5.5,3.9c-2.7,0-4.3-2.7-4.3-4.6c0-3.7,1.9-8.5,5-10.2
		C484.5,233.9,485.6,234.2,486.4,234.7z M482.6,246.4c0.8-0.1,1.3-0.2,2.2-0.5c1.3-1.9,2.4-5.5,2.4-7.9c0-2.5-1.3-2.6-2.7-1.2
		c-2.1,2.3-3.2,7.6-2.2,9.6C482.4,246.4,482.5,246.4,482.6,246.4z"/>
	<path class="st7" d="M494.2,234.7c0.1-0.3,0.3-0.5,0.5-0.5c0.7,0,2,0.7,2.4,1.1c0.4,0.3,0,0.8-0.2,1.2c-0.7,1.8-1.3,3.9-1.8,5.9
		c1.3-2.9,3.3-6.4,5.1-7.9c0.2-0.2,0.4-0.3,0.7-0.3c0.5,0,2.5,0.7,2.5,1.4c0,0.1,0,0.3-0.1,0.4c-0.1,0.3-0.3,0.6-0.4,0.9
		c-1.2,3.2-2.2,7.2-2.6,9.8c-0.1,0.6,0.1,0.6,0.5,0.3c2.3-2.3,4-6.6,4.9-9.1c0.3-0.6,1.2-0.3,1,0.4c-1,2.5-4.2,10.8-7.4,10.8
		c-1.3,0-2.3-1-2.2-2c0.4-3.2,1.4-7.5,2.5-10.7c-2.5,2.7-5.6,9.7-5.8,12.2c0,0.4-0.2,0.4-0.4,0.4c-0.9,0-2.3-1-2.3-1.8
		C491.4,243.4,492.6,238.3,494.2,234.7z"/>
	<path class="st7" d="M510.9,230.2c-0.1,0.4-0.3,0.7-0.4,1.1c1.1,0,2.3,0.1,2.8,0.4c0.2,0.1,0.4,1.1,0.4,1.5c0,0.2,0,0.3-0.1,0.4
		c0,0-0.1,0-0.1,0c-1.1-0.4-2.4-0.4-3.6-0.4c-1.3,4.4-2.5,9.9-3,13.2c-0.1,0.8,0.1,1,0.6,0.4c2.2-2.3,4.4-6.5,5.4-9
		c0.3-0.6,1.2-0.3,1,0.4c-1,2.5-5,10.8-8,10.8c-2.1,0-2-2.2-1.9-3.6c0.3-3.4,1.3-8.1,2.3-12.1c-0.3,0-0.6,0-0.8,0
		c-0.7,0-2.3,0-2.7-1c-0.1-0.3,0-0.4,0.3-0.4c1.2,0,2.4-0.1,3.6-0.3c0.3-1,0.5-1.9,0.9-2.8c0.4-0.9,0.7-1.4,1.1-1.4
		c0.7,0,3,0.9,3,1.5c0,0.1,0,0.1-0.1,0.2c0,0-0.1,0.1-0.1,0.1C511.1,229.6,511,229.9,510.9,230.2z"/>
	<path class="st7" d="M517.2,245.1c0-0.1,0-0.1,0-0.3c-1.1,2.3-2.5,4.2-4.2,4.2c-1.5,0-2.3-1-2.5-2.3c-0.5-4.1,1.6-10.5,5.3-12.5
		c1.2-0.7,2.5,0.2,3.8,0.9c0.1-0.1,0.1-0.3,0.2-0.5c0.1-0.3,0.3-0.5,0.6-0.5c0.7,0,1.9,0.7,2.4,1.1c0.4,0.3,0,0.8-0.2,1.2
		c-1.2,3.3-2.2,7.6-2.6,10.3c-0.1,0.6,0.2,0.6,0.5,0.3c2.3-2.3,3.8-6.6,4.8-9.1c0.3-0.6,1.2-0.3,1,0.4c-1,2.5-4.1,10.8-7.3,10.8
		c-1.3,0-2.2-1.3-2-2.5C517.1,246.1,517.1,245.6,517.2,245.1z M519,237.3c0.1-0.3,0.2-0.7,0.4-1c-0.2-0.3-0.5-0.5-0.9-0.5
		c-2.6,0-4.5,6.4-4.8,9.6c0,0.4-0.1,1.7,0.5,1.7C516,247.2,518.4,239,519,237.3z"/>
	<path class="st7" d="M529.3,234.1c1.7,0,3.6,1.6,3.6,3.2c0,2-1.1,4.2-1.9,4.2c-0.6,0-1.6-0.6-2-1.2c-0.3-0.3-0.1-0.7,0.3-0.9
		c0.7-0.4,1.4-1.3,1.7-2.1c0.4-1,0.2-1.5-0.3-1.5c-3.1,0-6.7,11.5-2.1,11.5c3.3,0,5.6-6.1,7-9.5c0.3-0.6,1.2-0.2,0.9,0.4
		c-1.4,3.5-4.1,10.8-8.5,10.8C518.9,249.1,524.2,234.1,529.3,234.1z"/>
	<path class="st7" d="M540.5,230.2c-0.1,0.4-0.3,0.7-0.4,1.1c1.1,0,2.3,0.1,2.8,0.4c0.2,0.1,0.4,1.1,0.4,1.5c0,0.2,0,0.3-0.1,0.4
		c0,0-0.1,0-0.1,0c-1.1-0.4-2.4-0.4-3.6-0.4c-1.3,4.4-2.5,9.9-3,13.2c-0.1,0.8,0.1,1,0.6,0.4c2.2-2.3,4.4-6.5,5.4-9
		c0.3-0.6,1.2-0.3,1,0.4c-1,2.5-5,10.8-8,10.8c-2.1,0-2-2.2-1.9-3.6c0.3-3.4,1.3-8.1,2.3-12.1c-0.3,0-0.6,0-0.8,0
		c-0.7,0-2.3,0-2.7-1c-0.1-0.3,0-0.4,0.3-0.4c1.2,0,2.4-0.1,3.6-0.3c0.3-1,0.5-1.9,0.9-2.8c0.4-0.9,0.7-1.4,1.1-1.4
		c0.7,0,3,0.9,3,1.5c0,0.1,0,0.1-0.1,0.2c0,0-0.1,0.1-0.1,0.1C540.7,229.6,540.6,229.9,540.5,230.2z"/>
	<path class="st7" d="M546.5,234.1c1.4,0,3.9,1.9,3.9,3.5c0,3.5-4.1,6.1-6.9,6.1c-0.1,2,0.5,3.6,2.2,3.6c3,0,5.7-6.1,7-9.5
		c0.2-0.6,1.2-0.2,0.9,0.4c-1.3,3.6-4.3,10.8-8.5,10.8C536.1,249.1,541.1,234.1,546.5,234.1z M543.5,242.9c2,0,4.2-3,4.2-6
		c0-0.8-0.6-1-1.2-0.6C545.1,237.4,543.8,240.4,543.5,242.9z"/>
	<path class="st7" d="M552.2,246.9c-2.1,0-1.9-2,0.1-2c0.3,0,0.5,0,0.7,0.1c2.7-1.4,5.1-5.1,5.1-8.1c-1.6,0.4-3.3,1.6-4.7,2.7
		c-0.3,0.2-0.6,0.7-1.2,0.3c-0.4-0.4-0.8-1.3-1-2c-0.1-0.5,0-0.7,0.5-0.9c2.3-1.2,5-2.4,7.6-2.4c0.7,0,1.6,2,1.6,2.9
		c-0.2,3.6-3.1,7.1-5.8,8.5c0.4,0.3,0.9,0.8,1.3,1.4c3.4-2.5,6.1-5.4,7.6-9.4c0.2-0.6,1.2-0.3,0.9,0.3c-1.6,4.4-4.5,7.3-8,9.9
		c2,4,0,9.8-5.1,9.8c-0.9,0-1.9-0.4-2.4-1.2c-1.1-1.5-0.4-3.6,0.7-4.9c1.2-1.4,2.9-2.3,4.4-3.3c-0.1-0.8-0.5-1.5-1-2
		C553.2,246.7,552.7,246.9,552.2,246.9z M552.5,256c1.8-0.9,2.5-4.5,2.4-6.2c-1.7,1.2-4.3,2.6-4.4,4.8
		C550.5,255.8,551.4,256.6,552.5,256z"/>
	<path class="st7" d="M571,234.7c0.1-0.3,0.3-0.5,0.5-0.5c0.7,0,2,0.7,2.4,1.1c0.4,0.3,0,0.8-0.2,1.2c-0.7,1.8-1.3,3.9-1.8,5.9
		c1.3-2.9,3.3-6.4,5.1-7.9c0.2-0.2,0.4-0.3,0.7-0.3c0.5,0,2.5,0.7,2.5,1.4c0,0.1,0,0.3-0.1,0.4c-0.1,0.3-0.3,0.6-0.4,0.9
		c-1.2,3.2-2.2,7.2-2.6,9.8c-0.1,0.6,0.1,0.6,0.5,0.3c2.3-2.3,4-6.6,4.9-9.1c0.3-0.6,1.2-0.3,1,0.4c-1,2.5-4.2,10.8-7.4,10.8
		c-1.3,0-2.3-1-2.2-2c0.4-3.2,1.4-7.5,2.5-10.7c-2.5,2.7-5.6,9.7-5.8,12.2c0,0.4-0.2,0.4-0.4,0.4c-0.9,0-2.3-1-2.3-1.8
		C568.2,243.4,569.4,238.3,571,234.7z"/>
	<path class="st7" d="M587.9,234.7c2.3,0,4.2,1.6,4.2,3.3c0,1.7-0.4,3.5-1.1,5.2c1.6-1.5,3-3.3,3.8-5.4c0.3-0.6,1.2-0.2,1,0.4
		c-1.2,2.9-3.2,5.3-5.8,6.9c-1.4,2.3-3.3,3.9-5.5,3.9c-2.7,0-4.3-2.7-4.3-4.6c0-3.7,1.9-8.5,5-10.2
		C586.1,233.9,587.1,234.2,587.9,234.7z M584.1,246.4c0.8-0.1,1.3-0.2,2.2-0.5c1.3-1.9,2.4-5.5,2.4-7.9c0-2.5-1.3-2.6-2.7-1.2
		c-2.1,2.3-3.2,7.6-2.2,9.6C583.9,246.4,584,246.4,584.1,246.4z"/>
	<path class="st7" d="M599.3,245.1c0-0.1,0-0.1,0.1-0.3c-1.1,2.3-2.5,4.2-4.2,4.2c-1.4,0-2.8-1.5-2.6-2.5c0.1-0.5,0.1-0.9,0.2-1.4
		c0.5-3.5,1.6-7.5,2.9-10.4c0.1-0.3,0.3-0.5,0.6-0.5c0.7,0,1.9,0.7,2.4,1.1c0.4,0.3,0,0.8-0.2,1.2c-1.1,2.9-2.1,6.6-2.6,9.3
		c-0.2,0.9,0.1,1.3,0.5,1.3c1.8,0,4.4-8.1,5-9.9c0.3-0.9,0.6-1.7,0.9-2.5c0.1-0.3,0.4-0.5,0.6-0.5c0.7,0,1.9,0.7,2.4,1.1
		c0.4,0.3,0,0.8-0.1,1.2c-1.3,3.3-2.3,7.6-2.8,10.3c-0.1,0.6,0.2,0.6,0.6,0.3c2.2-2.3,3.9-6.6,4.9-9.1c0.3-0.6,1.2-0.3,1,0.4
		c-1,2.5-4.2,10.8-7.4,10.8c-1.3,0-2.2-1.3-2-2.5C599.2,246.1,599.3,245.6,599.3,245.1z"/>
	<path class="st7" d="M604.9,245.9c0.6-0.9,1.5-1.3,2.6-1.4c0.8-0.1,1.7-0.1,2.4-0.3c-0.3-2.2-2.9-3.6-2.9-6.5c0-2.4,2-3.8,4.1-3.8
		c1.3,0,3,1.9,3,3.2c0,0.8-0.8,2.2-1.3,2.2c-0.8,0-2-0.6-2-0.9c0-0.1,0-0.1,0.1-0.1c0.6,0,1.2-1,1.2-1.7c0-0.4-0.2-0.8-0.6-0.8
		c-0.9,0-1.3,1.6-1.3,2.3c0,2,2,3.4,2.8,5.1c2-1.2,3.2-2.9,4-5.2c0.2-0.6,1.2-0.3,1,0.3c-0.9,2.8-2.4,4.6-4.6,5.8
		c0.4,3.3-3.1,5.2-6,5.2C604.9,249.3,604,247.3,604.9,245.9z M606.9,245.6c-1.6,0.4-1.1,2.7,0.6,2.1c1-0.4,2-1.4,2.3-2.4
		C609.1,245.5,607.8,245.4,606.9,245.6z"/>
	<path class="st7" d="M621.2,249.1c-2.4-0.1-1.2-4.4,0.1-4.4c1.5,0,2.4,0.6,2.4,1.9C623.6,247.2,622.9,249.2,621.2,249.1z
		 M624.2,241.5c-0.1,0.6-0.2,1-0.2,1.3c0,0.3-0.1,0.4-0.5,0.4c-0.9,0-2.6-0.9-2.4-2c0.4-2.3,0.9-4.7,1.4-7c1.2-4.9,2.5-9,3.3-9
		c0.7,0,3.2,1,3.2,1.5c0,0.1,0,0.1-0.1,0.2c-0.2,0.2-0.4,0.4-0.5,0.6C626.5,231.7,625.2,236.9,624.2,241.5z"/>
</g>
<g transform="translate(84.253 28.3)">
	<g>
		<path class="st12" d="M631.3,409.1c0.5,0,1,0,1.4,0c0.1,0,0.2,0,0.3,0c0.9,0.1,1,0.9,0.6,1.4c-0.2,0.3-0.5,0.6-0.9,0.9
			c-1.1,0.7-2.4,1.1-3.8,1.2c-0.2,0-0.4,0-0.5,0.1c-0.2,0.2-0.3,0.5-0.3,0.7c0,0.3,0.1,0.7,0.2,1c0.1,0.4,0.2,0.8,0.3,1.2
			c0,0.4-0.2,0.6-0.6,0.7c-0.3,0.1-0.6,0-0.8-0.3c-0.4-0.5-0.7-1-0.9-1.6c-0.2-0.5-0.3-1-0.6-1.5c-0.1-0.3-0.3-0.5-0.5-0.7
			c0.2,0,0.3,0,0.4,0.2c0.2,0.5,0.5,1.1,0.7,1.6c0.2,0.6,0.5,1.2,0.9,1.7c0.2,0.3,0.6,0.3,0.9,0.1c0.1-0.1,0.1-0.1,0.2-0.3
			c0.1-0.1,0.1-0.3,0-0.4c-0.1-0.3-0.2-0.5-0.2-0.7c-0.1-0.4-0.2-0.8-0.2-1.2c0-0.4,0.2-0.9,0.5-1.2c1.3-1.5,2.4-3.1,3.3-4.9
			c1-2,1.7-4.2,2.3-6.4c0.5-1.8,0.8-3.6,0.9-5.5c0.1-0.8,0-1.7,0-2.5c0-0.4-0.1-0.8-0.1-1.1c0,0,0.1,0,0.1,0
			c0.1,0.1,0.1,0.2,0.1,0.3c0.1,1.3,0.1,2.7,0,4.1c-0.2,2-0.5,4-1,6c-0.3,1.6-0.8,3.1-1.5,4.6c-0.3,0.7-0.7,1.4-1.1,2.1
			C631.4,408.8,631.4,409,631.3,409.1L631.3,409.1z"/>
		<path class="st12" d="M626.7,399.4c-0.6-0.1-1-0.4-1-1c0.3,0.6,0.6,0.8,1,0.7s0.5-0.3,0.5-0.9c-0.4-0.1-0.7-0.5-0.7-0.9
			c0-0.4,0.3-0.7,0.6-0.8c0.4-0.1,0.8,0.1,1,0.5c0.1,0.3,0.1,0.6-0.1,0.9c-0.1,0.1-0.3,0.3-0.5,0.3c-0.1,0-0.2,0.1-0.2,0.2
			c0,0.3,0.2,0.6,0.5,0.6h0.1c0.7,0,0.9-0.2,1-1c0.1,0.3,0,0.7-0.3,0.9c0,0-0.1,0.1-0.1,0.1c-0.4,0.1-0.5,0.3-0.6,0.7
			c0,0.2-0.2,0.3-0.3,0.3c0,0-0.1,0-0.1,0c0,0,0,0-0.1,0c-0.1,0-0.4,0.1-0.5,0c-0.1-0.2-0.2-0.3-0.2-0.5
			C626.8,399.6,626.7,399.5,626.7,399.4L626.7,399.4z M627.4,399.2c0,0.7,0.1,0.9,0.4,0.8c0.1-0.2,0.1-0.4,0.2-0.6
			C627.8,399.3,627.6,399.2,627.4,399.2L627.4,399.2z M627.4,400.1c-0.1-0.4-0.1-0.6-0.1-0.9c-0.4,0.2-0.4,0.4-0.2,0.8
			C627.1,400,627.2,400,627.4,400.1z M627.9,397.5c0.2-0.3,0.1-0.5-0.2-0.5C627.7,397.1,627.8,397.3,627.9,397.5z"/>
		<path class="st12" d="M621.5,411.4c-1.2-1.9-1.5-4-1-6.2c0.4-1.6,0.8-3.1,2.2-4.2c0,0,0,0.1-0.1,0.1c-0.8,0.8-1.3,1.9-1.6,3
			c-0.4,1.6-0.6,3.2-0.4,4.8c0.1,0.6,0.3,1.2,0.6,1.7C621.4,410.9,621.5,411.2,621.5,411.4C621.5,411.4,621.5,411.4,621.5,411.4z"/>
		<path class="st12" d="M631.7,396.7c0.1-0.1,0.1-0.1,0.2-0.2c0.3-0.2,0.5-0.6,0.6-1c0-0.5-0.4-1-0.9-1c-0.1,0-0.1,0-0.2,0
			c-0.2,0-0.4,0.1-0.6,0.2c-0.1,0.1-0.3,0.1-0.4,0c0,0,0,0,0,0c-0.8-0.7-1.8-1-2.8-0.8c-0.5,0.1-1,0.3-1.3,0.6c0,0,0-0.1-0.1-0.1
			c0.2-0.1,0.4-0.3,0.6-0.4c0.8-0.4,1.8-0.5,2.7-0.2c0.4,0.1,0.7,0.3,1.1,0.5c0.1,0,0.2,0,0.3,0c0.4-0.1,0.7-0.2,1.1,0
			c0.6,0.3,1,1,0.7,1.6c-0.1,0.2-0.2,0.4-0.4,0.5C632.2,396.5,632,396.7,631.7,396.7C631.8,396.7,631.7,396.7,631.7,396.7
			L631.7,396.7z"/>
		<path class="st12" d="M623.4,399.3c-1-1.1-1.6-2.5-1.7-4c-0.1-1.3,0.2-2.5,0.9-3.6C621.4,394.3,622,396.9,623.4,399.3z"/>
		<path class="st12" d="M624.4,412.2c-0.4,0.2-0.8,0.4-1.2,0.5c-0.8,0.3-1.6,0.7-2.4,1c-0.3,0.1-0.6,0.2-1,0.3
			c-0.5,0.1-0.8-0.2-0.6-0.7c0.1-0.3,0.3-0.6,0.5-0.8c0.4-0.4,1-0.8,1.1-1.4c0,0,0.1,0,0.1,0c0,0.1,0,0.3-0.1,0.4
			c-0.2,0.3-0.5,0.6-0.7,0.9c-0.2,0.2-0.3,0.4-0.5,0.6c-0.1,0.2-0.1,0.4-0.1,0.6c0.1,0.2,0.3,0.3,0.5,0.2c0.5-0.1,0.9-0.3,1.4-0.5
			c0.9-0.3,1.7-0.7,2.6-1C624.1,412.2,624.2,412.2,624.4,412.2C624.4,412.2,624.4,412.2,624.4,412.2L624.4,412.2z"/>
		<path class="st12" d="M621.2,401.7c0-0.1-0.1-0.1-0.1-0.2c0.2-0.8-0.1-1.6-0.3-2.4c-0.4-1.4-0.6-2.8-0.7-4.3c0-0.5,0-1,0-1.5
			c0-0.1,0.1-0.3,0.2-0.4c0,0.1,0,0.1,0,0.1c-0.2,1.5,0,2.9,0.3,4.3c0.2,0.8,0.5,1.7,0.6,2.5c0.1,0.5,0.1,0.9,0,1.4
			C621.3,401.5,621.2,401.6,621.2,401.7L621.2,401.7z"/>
		<path class="st12" d="M625.5,394.3c-0.1,0-0.2-0.1-0.3-0.1c-0.4-0.1-0.8,0.2-0.9,0.7c-0.1,0.4,0,0.9,0.3,1.2
			c0,0.1,0.1,0.1,0.1,0.2c0,0.1,0,0.3,0,0.4c-0.1,1.3,0.3,2.3,1.4,3c0,0,0.1,0,0.1,0.1c0,0,0,0,0,0c-0.3,0-0.8-0.3-1-0.7
			c-0.4-0.8-0.8-1.5-0.7-2.4c0-0.1,0-0.2-0.1-0.3c-0.3-0.6-0.4-1.2-0.1-1.8c0.2-0.4,0.7-0.6,1.1-0.4
			C625.4,394.1,625.5,394.1,625.5,394.3C625.6,394.2,625.5,394.2,625.5,394.3L625.5,394.3z"/>
		<path class="st12" d="M629.7,401.6c1.7-0.4,2.6-1.6,2.9-3.3c0,0,0,0.1,0,0.1c-0.1,0.8-0.3,1.5-0.7,2.1c-0.3,0.4-0.7,0.8-1.2,0.9
			c-0.2,0.1-0.3,0.1-0.5,0.2C630.1,401.6,629.9,401.7,629.7,401.6C629.8,401.6,629.8,401.6,629.7,401.6L629.7,401.6z"/>
		<path class="st12" d="M629.6,414.8c0.3,0.4,0.3,1.2-0.1,1.7c-0.3,0.3-0.6,0.5-0.9,0.3C629.5,416.4,629.5,415.6,629.6,414.8z"/>
		<path class="st12" d="M631.5,396.2c-0.1-0.1-0.3-0.2-0.4-0.4c0,0-0.1-0.1-0.1-0.2c0.1-0.1,0.1-0.3,0.2-0.5c0-0.2,0-0.3,0-0.5
			C631.7,394.9,631.8,395.8,631.5,396.2L631.5,396.2z"/>
		<path class="st12" d="M633.4,395.5c0-0.1,0-0.2,0-0.3c0.1-0.6,0.1-1.2,0-1.8c0-0.1,0.1-0.3,0.1-0.4c0.1,0.1,0.2,0.2,0.2,0.3
			c0,0.7-0.1,1.3-0.1,2C633.5,395.5,633.5,395.5,633.4,395.5C633.4,395.5,633.4,395.5,633.4,395.5L633.4,395.5z"/>
		<path class="st12" d="M634.6,393.1c-0.3-0.6-0.2-1.1-0.2-1.7C634.6,391.5,634.8,392.3,634.6,393.1z"/>
		<path class="st12" d="M630.2,396.6c-0.4-0.4-0.8-0.1-1.3,0.1c0-0.3,0.2-0.4,0.5-0.4C629.8,396.2,630.1,396.3,630.2,396.6z"/>
		<path class="st12" d="M626.4,396.5c-0.1,0-0.3,0.1-0.3,0c-0.3-0.2-0.5-0.3-0.8,0c0,0-0.1,0-0.1,0c0,0,0-0.1,0-0.1
			c0.2-0.3,0.9-0.4,1.2-0.1C626.3,396.3,626.3,396.4,626.4,396.5L626.4,396.5z"/>
		<path class="st12" d="M621.4,393.4c-0.2-0.6,0-1,0.5-1.5C621.7,392.4,621.6,392.9,621.4,393.4z"/>
		<path class="st12" d="M630.1,416c0.1,0.3,0,0.6-0.2,0.8c-0.1,0.1-0.2,0.2-0.4,0.1C629.7,416.6,629.9,416.3,630.1,416z"/>
		<path class="st12" d="M633.9,393.3c0-0.4-0.1-0.7-0.1-1C634.1,392.5,634.2,393,633.9,393.3z"/>
		<path class="st12" d="M620.8,393.4c-0.2-0.2-0.1-0.8,0.2-1L620.8,393.4z"/>
	</g>
	<path class="st8" d="M627.4,399.2c0.2,0.1,0.4,0.2,0.6,0.2c-0.1,0.2-0.1,0.4-0.2,0.6C627.4,400,627.4,399.9,627.4,399.2
		L627.4,399.2z"/>
	<path class="st8" d="M627.4,400.1c-0.1-0.1-0.3-0.1-0.3-0.1c-0.2-0.4-0.2-0.6,0.2-0.8C627.2,399.4,627.3,399.7,627.4,400.1z"/>
	<path class="st8" d="M627.9,397.5c-0.1-0.2-0.1-0.3-0.2-0.5C628,397,628.1,397.1,627.9,397.5z"/>
</g>
<g>
	<path class="st18" d="M715.1,438.1c0,0,0.9,0.9,0.7,2.1"/>
	<path class="st18" d="M714.3,438.6c0,0,0.9,0.9,0.7,2.1"/>
	<path class="st18" d="M715.9,437.4c0,0,1,1,0.7,2.5"/>
	<path class="st18" d="M717.8,438.2c0,0-1.1,1.6-3.7,2.2"/>
	<path class="st18" d="M717.6,437.7c0,0-1.1,1.6-3.7,2.1"/>
	<path class="st18" d="M717,437.4c0,0-0.9,1.2-2.9,1.7"/>
	<path class="st18" d="M716.8,437.4c0.4,0.5,0.6,1.1,0.5,1.7"/>
	<path class="st18" d="M713.8,439c0.4,0.5,0.6,1.1,0.5,1.7"/>
	<path class="st18" d="M709.6,440c0.3-0.6,0.8-1,1.3-1.2"/>
	<path class="st18" d="M710.2,440.2c0.3-0.6,0.8-1,1.3-1.2"/>
	<path class="st18" d="M708.7,439.8c0.3-0.6,0.9-1.1,1.6-1.4"/>
	<path class="st18" d="M709.4,438.6c0.8,0,1.6,0.4,2.2,1"/>
	<path class="st18" d="M709,438.9c0.8,0,1.6,0.4,2.2,1"/>
	<path class="st18" d="M708.6,439.5c0.7,0,1.4,0.2,2,0.7"/>
	<path class="st18" d="M700.2,436.7c0,0,0.4-1.2,1.5-1.5"/>
	<path class="st18" d="M698.5,433.9c0,0,1.8,0.2,3.4,2.2"/>
	<path class="st18" d="M698.1,434.3c0,0,1.8,0.3,3.3,2.3"/>
	<path class="st18" d="M700.8,437.1c0,0,0.3-1,1.2-1.2"/>
</g>
<path class="st8" d="M718.7,429.4l0.5,0.1l0,0.2c-0.1,0-0.3,0-0.5,0L718.7,429.4z"/>
<path class="st19" d="M721.3,432.8c-0.1,0.2-0.4,0.3-0.6,0.2c-0.2-0.1-0.3-0.4-0.2-0.6c0.1-0.2,0.4-0.3,0.6-0.2
	C721.4,432.3,721.4,432.5,721.3,432.8z"/>
<path class="st20" d="M712.7,444.7c-0.2,0.3-0.6,0.5-1,0.3c-0.3-0.2-0.5-0.6-0.3-1s0.6-0.5,1-0.3
	C712.7,443.9,712.9,444.3,712.7,444.7C712.7,444.7,712.7,444.7,712.7,444.7z"/>
<path class="st19" d="M700.9,441.8c-0.1,0.2-0.4,0.3-0.6,0.2c-0.2-0.1-0.3-0.4-0.2-0.6c0.1-0.2,0.4-0.3,0.6-0.2
	C700.9,441.2,701,441.5,700.9,441.8z"/>
<path class="st21" d="M720.5,433.3c0.3,0.2,0.8,0.1,1-0.3s0.1-0.8-0.3-1c-0.3-0.2-0.8-0.1-1,0.3S720.2,433.1,720.5,433.3z
	 M721,432.5c0.1,0.1,0.2,0.2,0.1,0.3c-0.1,0.1-0.2,0.2-0.3,0.1c-0.1-0.1-0.2-0.2-0.1-0.3C720.7,432.5,720.9,432.4,721,432.5z"/>
<path class="st22" d="M711.6,445.2c0.4,0.3,1,0.1,1.3-0.4c0.3-0.5,0.1-1-0.4-1.3c-0.4-0.3-1-0.1-1.3,0.4
	C711,444.3,711.2,444.9,711.6,445.2z M712.3,443.9c0.2,0.1,0.3,0.4,0.2,0.6c-0.1,0.2-0.4,0.3-0.6,0.2c-0.2-0.1-0.3-0.4-0.2-0.6
	C711.8,443.9,712.1,443.8,712.3,443.9z"/>
<path class="st21" d="M700.8,440.9c-0.3-0.2-0.8-0.1-1,0.3c-0.2,0.3-0.1,0.8,0.3,1s0.8,0.1,1-0.3
	C701.3,441.5,701.2,441.1,700.8,440.9z M700.4,441.7c-0.1-0.1-0.2-0.2-0.1-0.3c0.1-0.1,0.2-0.2,0.3-0.1c0.1,0.1,0.2,0.2,0.1,0.3
	C700.6,441.7,700.5,441.8,700.4,441.7C700.4,441.7,700.4,441.7,700.4,441.7z"/>
<path class="st23" d="M716.2,440.8c-5.4-0.1-8.2-2.7-9.5-7.2c-1.2-3.8-1.7-7.8-2.6-11.7c-0.7-3.3,0.2-5.3,3.6-6.7
	c5.8-2.4,10.3-6.4,13.7-12.3c-5.7,3.7-17.8,12.8-18,10.5c0-8.2,4.6-17.8,7.1-25.8c-13.2,18.1-16.5,30.2-6.9,51.3
	c-2.2-0.5-3.2,0.4-3.7-0.1c-5.2-4.6-10.6,0.9-16,4.8c-0.7,0.5-0.5,3.7-0.2,3.8c5.3,1.2,10.6,2.6,16,3.1c5.6,0.5,11.3,0.4,16.9-0.3
	c4.7-0.5,9.2-2.1,14.5-3.4C726.6,440.5,721.1,440.9,716.2,440.8L716.2,440.8z"/>
<path class="st24" d="M725.2,395c-2.9,1.7-4.7,4.5-4.6,6.9c0,0.8,6.2-2.1,6.6-1.4c0.4,0.8-4.9,4.9-4.1,5.3c2.1,1,5.1,0.8,7.9-0.8
	c3.8-2.2,7.1-10.8,7.1-10.8S729.1,392.8,725.2,395L725.2,395z"/>
<path class="st24" d="M721.2,390.2c1.6,0.8,3.9,0.6,5.9-0.6c2.9-1.7,5.3-8.1,5.3-8.1s-6.8-1-9.6,0.6c-2.2,1.3-3.5,3.4-3.5,5.2
	c0,0.6,4.7-1.5,4.9-1.1C724.6,386.8,720.6,389.8,721.2,390.2L721.2,390.2z"/>
<path class="st24" d="M712.4,398.2c1.2,0.6,2.9,0.4,4.5-0.5c2.2-1.3,4-6.1,4-6.1s-5.1-0.8-7.3,0.5c-1.7,1-2.6,2.5-2.6,3.9
	c0,0.4,3.5-1.2,3.7-0.8C715,395.6,712,398,712.4,398.2L712.4,398.2z"/>
<path class="st24" d="M720.9,377.4c0.1,0.4,3-2.2,3.3-1.9c0.4,0.3-1.8,3.5-1.3,3.6c1.3,0.2,2.9-0.5,4.1-1.8c1.7-1.9,1.9-7,1.9-7
	s-5.1,0.8-6.8,2.7C720.9,374.3,720.4,376.1,720.9,377.4L720.9,377.4z"/>
<path class="st24" d="M721.1,366.6c0.4,0.3-1.8,3.5-1.3,3.6c1.3,0.2,2.9-0.5,4.1-1.8c1.7-1.9,1.9-7,1.9-7s-5.1,0.8-6.8,2.7
	c-1.3,1.4-1.7,3.2-1.3,4.5C718,368.9,720.8,366.3,721.1,366.6z"/>
<path class="st24" d="M710.2,368c0.5,0.3,0.8-4.9,1.4-4.9c0.7,0,1.6,5,2.1,4.6c1.4-1,2.3-3.2,2.2-5.6c-0.1-3.3-4.8-8.5-4.8-8.5
	s-4.1,5.6-4,8.9C707.3,365.1,708.6,367.2,710.2,368L710.2,368z"/>
<path class="st24" d="M706.9,378.8c0.4,0.1-0.2-3.7,0.2-3.8c0.5-0.1,1.9,3.4,2.3,3c0.9-1,1.2-2.7,0.7-4.4c-0.7-2.4-4.9-5.4-4.9-5.4
	s-2.1,4.7-1.4,7.1C704.3,377.1,705.5,378.4,706.9,378.8z"/>
<path class="st24" d="M684.3,382.1c1.8,0.6,3.7,0.3,4.7-0.6c0.3-0.3-3.2-1.9-3.1-2.3c0.2-0.5,3.9,0.3,3.8-0.2
	c-0.3-1.3-1.6-2.5-3.3-3.1c-2.4-0.8-7.2,1-7.2,1S681.9,381.3,684.3,382.1L684.3,382.1z"/>
<path class="st24" d="M672.4,377.3c1.8,0.6,3.7,0.3,4.7-0.6c0.3-0.3-3.2-1.9-3.1-2.3c0.2-0.5,3.9,0.3,3.8-0.2
	c-0.3-1.3-1.6-2.5-3.3-3.1c-2.4-0.8-7.2,1-7.2,1S670,376.5,672.4,377.3L672.4,377.3z"/>
<path class="st24" d="M684.2,401.2c0.2-0.4-3.6-0.7-3.6-1.2c0-0.5,3.8-1,3.5-1.4c-0.7-1.1-2.3-1.8-4.1-1.8c-2.5,0-6.5,3.3-6.5,3.3
	s4,3.2,6.6,3.2C681.9,403.3,683.5,402.4,684.2,401.2L684.2,401.2z"/>
<path class="st24" d="M678.8,388.5c0.2-0.4-3.6-0.7-3.7-1.2c0-0.5,3.8-1,3.5-1.4c-0.7-1.1-2.3-1.8-4.1-1.8c-2.5,0-6.5,3.3-6.5,3.3
	s4,3.2,6.6,3.2C676.5,390.6,678.1,389.8,678.8,388.5L678.8,388.5z"/>
<path class="st24" d="M688.2,372.5c0.4,0-1.4-3.4-1-3.7c0.4-0.3,2.9,2.6,3.1,2.1c0.5-1.2,0.2-2.9-0.8-4.4c-1.4-2.1-6.4-3.6-6.4-3.6
	s-0.5,5.1,1,7.2C685.2,371.8,686.8,372.7,688.2,372.5z"/>
<path class="st24" d="M699.7,372.5c0.4,0-1.4-3.4-1-3.7c0.4-0.3,2.9,2.6,3.1,2.1c0.5-1.2,0.2-2.9-0.8-4.4c-1.4-2.1-6.4-3.6-6.4-3.6
	s-0.5,5.1,1,7.2C696.7,371.8,698.3,372.7,699.7,372.5z"/>
<path class="st24" d="M710.8,379.4c-0.5,2.5,0.3,4.9,1.7,6c0.4,0.4,1.9-4.5,2.4-4.4c0.7,0.1,0.4,5.2,1,4.9c1.6-0.7,3-2.5,3.4-4.9
	c0.6-3.3-2.7-9.3-2.7-9.3S711.4,376.1,710.8,379.4L710.8,379.4z"/>
<path class="st24" d="M696.9,384.4c1.5,2.1,3.7,3.2,5.5,3c0.6-0.1-2-4.5-1.5-4.8c0.5-0.4,4,3.3,4.2,2.7c0.6-1.6,0.2-3.9-1.2-5.8
	c-1.9-2.7-8.5-4.5-8.5-4.5S695,381.7,696.9,384.4L696.9,384.4z"/>
<path class="st24" d="M690.4,397.7c3.3,0.4,6.2-0.8,7.6-2.7c0.4-0.6-6-2-6-2.7c0.1-0.9,6.6-1,6.2-1.7c-1-2-3.5-3.6-6.6-3.9
	c-4.2-0.5-11.7,4.3-11.7,4.3S686.1,397.2,690.4,397.7L690.4,397.7z"/>
<path class="st24" d="M698.3,402.8c-0.7-1.3-2.4-2.4-4.5-2.7c-2.9-0.3-8,2.9-8,2.9s4.2,4.3,7.1,4.6c2.2,0.3,4.2-0.5,5.1-1.8
	c0.3-0.4-4.1-1.4-4-1.9C694.1,403.4,698.5,403.3,698.3,402.8z"/>
<path class="st3" d="M727.3,398.3c-3.3,2-5.3,5.1-5.3,7.9c0,0.9,7.1-2.3,7.5-1.6c0.5,0.9-5.6,5.6-4.7,6c2.4,1.2,5.9,0.9,9-1
	c4.4-2.6,8-12.3,8-12.3S731.7,395.7,727.3,398.3z"/>
<path class="st3" d="M722.7,392.7c1.8,0.9,4.4,0.6,6.7-0.7c3.3-1.9,6-9.2,6-9.2s-7.7-1.2-11,0.7c-2.5,1.5-4,3.8-3.9,5.9
	c0,0.6,5.3-1.8,5.7-1.2C726.6,388.9,722,392.4,722.7,392.7z"/>
<path class="st3" d="M712.8,401.9c1.3,0.7,3.3,0.5,5.1-0.5c2.5-1.4,4.5-7,4.5-7s-5.8-0.9-8.3,0.5c-1.9,1.1-3,2.9-3,4.5
	c0,0.5,4-1.3,4.3-0.9C715.7,399,712.2,401.6,712.8,401.9L712.8,401.9z"/>
<path class="st3" d="M722.4,378.2c0.2,0.5,3.4-2.5,3.8-2.2c0.4,0.4-2,4-1.5,4c1.5,0.2,3.3-0.5,4.7-2.1c1.9-2.1,2.2-8,2.2-8
	s-5.8,0.9-7.7,3.1C722.4,374.7,721.8,376.7,722.4,378.2L722.4,378.2z"/>
<path class="st3" d="M722.7,365.9c0.4,0.4-2,4-1.5,4.1c1.5,0.2,3.3-0.6,4.7-2.1c1.9-2.1,2.2-8,2.2-8s-5.8,0.9-7.7,3.1
	c-1.5,1.6-2,3.7-1.5,5.2C719,368.5,722.3,365.5,722.7,365.9L722.7,365.9z"/>
<path class="st3" d="M710.2,367.5c0.6,0.3,0.9-5.6,1.6-5.6c0.8,0,1.8,5.7,2.4,5.3c1.6-1.2,2.7-3.6,2.5-6.4c-0.2-3.8-5.4-9.7-5.4-9.7
	s-4.7,6.4-4.5,10.2C706.9,364.1,708.4,366.6,710.2,367.5L710.2,367.5z"/>
<path class="st3" d="M706.4,379.8c0.5,0.1-0.2-4.2,0.2-4.4c0.6-0.2,2.2,3.9,2.6,3.4c1-1.1,1.3-3.1,0.8-5.1c-0.7-2.8-5.5-6.2-5.5-6.2
	s-2.4,5.4-1.6,8.1C703.5,377.8,704.9,379.4,706.4,379.8L706.4,379.8z"/>
<path class="st3" d="M680.7,383.5c2.1,0.7,4.2,0.4,5.3-0.7c0.4-0.3-3.6-2.2-3.5-2.6c0.2-0.5,4.5,0.3,4.3-0.2
	c-0.4-1.5-1.8-2.8-3.7-3.5c-2.7-0.9-8.2,1.1-8.2,1.1S678,382.6,680.7,383.5z"/>
<path class="st3" d="M667.1,378.1c2.1,0.7,4.2,0.4,5.3-0.7c0.4-0.3-3.6-2.2-3.5-2.6c0.2-0.5,4.5,0.3,4.3-0.2
	c-0.4-1.5-1.8-2.8-3.7-3.5c-2.7-0.9-8.2,1.1-8.2,1.1S664.4,377.1,667.1,378.1z"/>
<path class="st3" d="M680.6,405.4c0.2-0.4-4.1-0.8-4.1-1.3c0-0.6,4.3-1.2,4-1.6c-0.8-1.2-2.6-2.1-4.7-2.1c-2.9,0-7.4,3.8-7.4,3.8
	s4.6,3.7,7.5,3.7C677.9,407.7,679.8,406.7,680.6,405.4z"/>
<path class="st3" d="M674.4,390.9c0.2-0.4-4.2-0.8-4.2-1.3c0-0.6,4.3-1.2,4-1.6c-0.8-1.2-2.6-2.1-4.7-2.1c-2.9,0-7.4,3.8-7.4,3.8
	s4.6,3.7,7.5,3.7C671.8,393.3,673.6,392.3,674.4,390.9L674.4,390.9z"/>
<path class="st3" d="M685.1,372.7c0.5,0-1.6-3.9-1.2-4.2c0.5-0.3,3.3,3,3.6,2.4c0.6-1.4,0.3-3.3-0.9-5.1c-1.6-2.4-7.2-4.1-7.2-4.1
	s-0.5,5.9,1.1,8.2C681.7,371.8,683.6,372.8,685.1,372.7z"/>
<path class="st3" d="M698.2,372.7c0.5,0-1.6-3.9-1.2-4.2c0.5-0.3,3.3,3,3.6,2.4c0.6-1.4,0.3-3.3-0.9-5.1c-1.6-2.4-7.2-4.1-7.2-4.1
	s-0.5,5.9,1.1,8.2C694.8,371.8,696.6,372.8,698.2,372.7L698.2,372.7z"/>
<path class="st3" d="M710.8,380.4c-0.5,2.9,0.3,5.5,1.9,6.8c0.5,0.4,2.1-5.2,2.8-5.1c0.7,0.1,0.4,5.9,1.1,5.6
	c1.8-0.8,3.4-2.9,3.9-5.6c0.7-3.7-3-10.6-3-10.6S711.5,376.7,710.8,380.4L710.8,380.4z"/>
<path class="st3" d="M695.1,386.2c1.7,2.4,4.2,3.6,6.2,3.4c0.6-0.1-2.2-5.1-1.7-5.5c0.6-0.4,4.5,3.8,4.8,3.1
	c0.7-1.9,0.3-4.4-1.3-6.7c-2.2-3.1-9.7-5.1-9.7-5.1S692.9,383.1,695.1,386.2L695.1,386.2z"/>
<path class="st3" d="M687.6,401.3c3.7,0.4,7.1-0.9,8.6-3.1c0.5-0.7-6.9-2.3-6.8-3.1c0.1-1,7.6-1.1,7.1-2c-1.2-2.3-4-4.1-7.5-4.5
	c-4.8-0.6-13.3,4.9-13.3,4.9S682.8,400.8,687.6,401.3L687.6,401.3z"/>
<path class="st3" d="M696.6,407.1c-0.8-1.5-2.7-2.8-5.1-3c-3.3-0.4-9.1,3.3-9.1,3.3s4.8,4.9,8.1,5.2c2.5,0.3,4.8-0.6,5.9-2.1
	c0.3-0.4-4.7-1.6-4.6-2.1C691.8,407.8,696.9,407.7,696.6,407.1L696.6,407.1z"/>
<path class="st12" d="M682.7,417.6c0,0.5-0.1,0.9-0.1,1.4c-0.1,2.5,0.4,5,1.2,7.4c0.3,1.1,0.7,2.2,1.3,3.3c0.5,0.9,1.1,1.7,1.6,2.6
	c0.1,0.1,0.1,0.2,0.1,0.3c-0.1,0-0.2,0-0.3,0c-0.5-0.1-1-0.1-1.4,0c-0.5,0.1-0.7,0.4-0.7,0.9c0.1,0.4,0.3,0.8,0.6,1.1
	c0.6,0.5,1.3,0.8,2,1c0.2,0.1,0.4,0.2,0.7,0.2c0.4,0.1,0.9,0.1,1.3,0.1c0.3,0,0.4,0.1,0.4,0.4c0,0.4-0.1,0.7-0.1,1.1
	c-0.1,0.3-0.1,0.6-0.2,0.9c0,0.1,0,0.1,0,0.2c0.1,0.7,0.6,0.8,1,0.5c0.2-0.1,0.4-0.3,0.5-0.5c0.2-0.5,0.4-1,0.6-1.5
	c0.2-0.4,0.3-0.8,0.5-1.2c0.1-0.2,0.3-0.3,0.4-0.4c-0.2,0-0.3,0-0.4,0.1c-0.2,0.3-0.4,0.5-0.5,0.8c-0.2,0.4-0.3,0.8-0.5,1.3
	c-0.1,0.2-0.2,0.5-0.3,0.7c-0.2,0.4-0.6,0.5-0.9,0.2c-0.3-0.3-0.4-0.5-0.3-0.9c0.1-0.5,0.3-1,0.2-1.5c-0.1-0.3-0.2-0.6-0.3-0.9
	c-0.2-0.5-0.6-0.7-0.9-1.1c-0.4-0.5-0.8-1-1.2-1.5c-0.8-1.1-1.5-2.3-2.1-3.5c-0.5-1-0.9-2.1-1.2-3.2c-0.4-1.4-0.8-2.8-1-4.3
	c-0.1-1.1-0.1-2.1,0-3.2C682.8,417.9,682.8,417.7,682.7,417.6C682.8,417.6,682.8,417.6,682.7,417.6L682.7,417.6z"/>
<path class="st12" d="M695.5,434.4c0.1-0.2,0.2-0.3,0.3-0.5c0.5-1,0.8-2.1,0.8-3.2c0-0.9-0.1-1.8-0.4-2.7c-0.2-0.6-0.5-1.2-0.8-1.8
	c-0.3-0.5-0.7-0.9-1.1-1.3c-0.1,0-0.1-0.1-0.2-0.1c0,0.1,0.1,0.1,0.1,0.2c1,1.1,1.5,2.4,1.9,3.8c0.2,0.7,0.3,1.4,0.3,2.1
	c0,0.5-0.1,0.9-0.2,1.3c-0.1,0.6-0.3,1.2-0.6,1.7C695.5,434.2,695.5,434.2,695.5,434.4C695.5,434.4,695.5,434.4,695.5,434.4z"/>
<path class="st12" d="M690.8,419c0-0.1-0.1-0.1-0.1-0.1c-0.3-0.1-0.6-0.2-0.9-0.3c-0.8-0.2-1.6-0.1-2.3,0.3
	c-0.1,0.1-0.3,0.2-0.4,0.3c-0.1,0.1-0.2,0.1-0.3,0.1c-0.3,0-0.5-0.1-0.8-0.1c-0.8,0.1-1.1,0.9-0.9,1.5c0.1,0.3,0.3,0.5,0.4,0.7
	c0.1,0.1,0.2,0.2,0.4,0.1c-0.1-0.1-0.2-0.1-0.3-0.2c-0.4-0.3-0.4-1.2-0.2-1.5c0.3-0.4,0.9-0.5,1.3-0.3c0.2,0.1,0.2,0.1,0.4,0
	c0.6-0.7,1.4-0.9,2.3-0.7c0.4,0.1,0.7,0.2,1.1,0.3C690.7,419.1,690.7,419.1,690.8,419C690.8,419,690.8,419,690.8,419L690.8,419z"/>
<path class="st12" d="M693.1,435.2c0.1,0,0.2,0.1,0.3,0.1c0.7,0.3,1.5,0.6,2.2,0.9c0.4,0.2,0.8,0.3,1.2,0.4c0.2,0.1,0.4,0,0.6,0
	c0.4-0.1,0.5-0.6,0.3-0.9c-0.3-0.3-0.6-0.6-0.9-0.9c-0.3-0.3-0.6-0.5-0.7-0.9c0,0,0,0,0-0.1c0,0-0.1-0.1-0.1-0.1
	c0,0.1-0.1,0.1-0.1,0.2c0.1,0.3,0.2,0.6,0.5,0.9c0.2,0.2,0.4,0.3,0.6,0.5c0.1,0.2,0.3,0.3,0.4,0.5c0.1,0.3,0,0.4-0.3,0.4
	c-0.1,0-0.3,0-0.4,0c-0.8-0.2-1.5-0.5-2.2-0.8c-0.3-0.1-0.7-0.3-1-0.4C693.3,435.1,693.2,435.2,693.1,435.2
	C693.1,435.2,693.1,435.2,693.1,435.2L693.1,435.2z"/>
<path class="st12" d="M692.9,423.1c2.4,0.7,4,2.3,5.4,4.3c-0.1-0.1-0.1-0.3-0.2-0.4c-0.6-1.1-1.5-2.1-2.5-2.9
	c-0.7-0.5-1.5-0.9-2.4-1.1c-0.1,0-0.1,0-0.2,0C693,423,693,423,692.9,423.1C692.9,423,692.9,423,692.9,423.1L692.9,423.1z"/>
<path class="st12" d="M691.4,419.1c0.1,0,0.2,0,0.2,0c0.2,0,0.4,0.1,0.5,0.2c0.3,0.3,0.5,0.7,0.4,1.2c0,0.1,0,0.1-0.1,0.1
	c-0.2,0.1-0.1,0.3-0.1,0.5c0,0.3,0,0.6,0,0.9c0,0.5-0.2,0.9-0.6,1.3c-0.1,0.1-0.2,0.2-0.2,0.3c0,0,0,0,0,0.1c0.1,0,0.1-0.1,0.2-0.1
	c0.7-0.7,1-1.6,0.8-2.5c0-0.1,0-0.3,0.1-0.4c0.2-0.4,0.1-0.8-0.1-1.1c-0.2-0.3-0.4-0.5-0.8-0.6C691.7,418.8,691.6,418.9,691.4,419.1
	L691.4,419.1z"/>
<path class="st12" d="M684.9,422.4c0.1,0.4,0.2,0.7,0.3,1.1c0.2,0.6,0.6,1.1,1.1,1.6c0.2,0.3,0.5,0.4,0.9,0.4c0.2,0,0.3,0,0.4-0.1
	c-0.2-0.1-0.4-0.1-0.6-0.2c-0.5-0.2-0.7-0.6-1-1c-0.4-0.5-0.7-1-0.8-1.6C685,422.5,685,422.5,684.9,422.4
	C684.9,422.4,684.9,422.4,684.9,422.4L684.9,422.4z"/>
<path class="st12" d="M686.3,419.6c-0.2,0.3-0.4,0.6-0.3,1c0,0.3,0.1,0.3,0.4,0.2c0.2-0.1,0.2-0.3,0.1-0.5c-0.1-0.2-0.1-0.4-0.1-0.5
	C686.3,419.8,686.4,419.7,686.3,419.6C686.3,419.6,686.3,419.6,686.3,419.6L686.3,419.6z"/>
<path class="st12" d="M684.4,418.1c-0.4,0.2-0.3,1.8,0.1,2.3C684.3,419.7,684.2,418.9,684.4,418.1z"/>
<path class="st12" d="M698.2,429c0.2-0.4-0.3-1.6-0.6-1.7C697.8,427.9,698,428.5,698.2,429z"/>
<path class="st12" d="M697.4,428c0.1,0.4,0.3,0.7,0.4,1.1C698,428.8,697.8,428.1,697.4,428C697.4,427.9,697.4,428,697.4,428z"/>
<path class="st12" d="M683.4,417c-0.3,0.2-0.3,1-0.1,1.2C683.4,417.8,683.4,417.4,683.4,417z"/>
<path class="st12" d="M690.8,421.1c0.2-0.3,0.5-0.3,0.7-0.2c0-0.2-0.1-0.2-0.2-0.2c-0.2-0.1-0.5,0-0.6,0.2
	C690.7,421,690.8,421.1,690.8,421.1C690.8,421.1,690.8,421.1,690.8,421.1L690.8,421.1z"/>
<path class="st12" d="M683.9,418.4c0-0.3,0-0.6,0-1C683.6,417.6,683.6,418.1,683.9,418.4z"/>
<path class="st12" d="M697.5,429.2c0.1-0.3,0-0.4-0.1-0.6c0,0-0.1-0.1-0.2-0.1c0,0.1,0,0.1,0,0.2C697.3,428.8,697.4,429,697.5,429.2
	L697.5,429.2z"/>
<path class="st12" d="M690.4,423.7c0,0.1-0.1,0.3-0.1,0.4c-0.1,0.1-0.2,0-0.4,0c0,0,0,0,0,0c-0.2,0.1-0.3,0-0.4-0.2
	c-0.1-0.3-0.2-0.5-0.5-0.5c0,0-0.1,0-0.1,0c-0.2-0.1-0.4-0.5-0.3-0.7c0.1,0.6,0.3,0.7,0.9,0.7c0.3,0,0.5-0.2,0.4-0.5
	c0-0.1-0.1-0.1-0.2-0.2c-0.1,0-0.3-0.1-0.4-0.2c-0.2-0.2-0.2-0.5-0.1-0.7c0.1-0.3,0.5-0.5,0.7-0.4c0.2,0.1,0.5,0.4,0.5,0.6
	c0,0.4-0.1,0.6-0.5,0.7c0,0.5,0.2,0.6,0.4,0.7c0.3,0,0.5-0.2,0.7-0.6c0,0.4-0.2,0.7-0.7,0.8C690.4,423.6,690.4,423.7,690.4,423.7
	L690.4,423.7z M689.4,423.6c0.1,0.1,0.1,0.3,0.2,0.5c0.3,0,0.3-0.1,0.3-0.7C689.7,423.5,689.6,423.5,689.4,423.6z M690.2,424
	c0.2-0.3,0.1-0.4-0.2-0.6c0,0.2,0,0.4-0.1,0.7C690.1,424,690.2,424,690.2,424z M689.6,421.7c-0.3,0-0.3,0.2-0.1,0.4
	C689.5,422,689.5,421.8,689.6,421.7z"/>
<path class="st8" d="M689.9,423.4c-0.1,0.1-0.3,0.1-0.5,0.2c0.1,0.1,0.1,0.3,0.2,0.5C689.9,424.1,689.9,424,689.9,423.4z"/>
<path class="st8" d="M689.9,424.1c0.1-0.1,0.2-0.1,0.3-0.1c0.2-0.3,0.1-0.4-0.2-0.6C690,423.6,690,423.8,689.9,424.1z"/>
<path class="st8" d="M689.4,422.1c0-0.1,0.1-0.3,0.1-0.4C689.3,421.7,689.2,421.8,689.4,422.1z"/>
<path class="st12" d="M687.6,421.3c0.3-0.3,0.6-0.1,1,0c0-0.2-0.2-0.3-0.4-0.3C687.9,421,687.6,421.1,687.6,421.3z"/>
<path class="st12" d="M688.3,438c-0.2,0.4,0,1.1,0.4,1.4c0.3,0.2,0.6,0.3,0.8,0.2C688.7,439.4,688.5,438.7,688.3,438z"/>
<path class="st12" d="M688,439.1c-0.1,0.3,0.1,0.5,0.3,0.7c0.1,0.1,0.2,0.2,0.3,0.1C688.5,439.6,688.3,439.3,688,439.1z"/>
<path class="st18" d="M687.1,433c0,0-0.8,0.9-0.5,1.9"/>
<path class="st18" d="M687.8,433.4c0,0-0.8,0.9-0.5,1.9"/>
<path class="st18" d="M686.3,432.4c0,0-0.9,1-0.5,2.3"/>
<path class="st18" d="M684.6,433.3c0,0,1.1,1.4,3.6,1.8"/>
<path class="st18" d="M684.8,432.8c0,0,1.1,1.3,3.6,1.7"/>
<path class="st18" d="M685.3,432.5c0,0,0.9,1.1,2.8,1.3"/>
<path class="st18" d="M685.5,432.5c0,0-0.6,0.7-0.4,1.6"/>
<path class="st18" d="M688.4,433.7c0,0-0.6,0.7-0.4,1.6"/>
<path class="st25" d="M664.1,401.4c0,0-2.6-1.5-2-4.5c0.6-2.9,3.8-2.9,4.3-0.5c0,0,0.6,3.2-1.9,5l0.3,0.3c-0.1,0.2-0.3,0.3-0.5,0.3
	c-0.2,0-0.3-0.1-0.5-0.2L664.1,401.4z"/>
<path class="st25" d="M664.2,401.9c0,0-1.1,1.6-0.2,3c0.9,1.4,1.5,1.5,1.5,2.1s-1.3,0.9-1.4,1.8s1.3,0.7,1.4,1.4
	c0.1,0.7-1.7,0.8-1.7,1.7"/>
<ellipse class="st2" cx="664.9" cy="397.5" rx="1.2" ry="2.5"/>
<path class="st25" d="M651.4,368.9c0,0-2.9-1.7-2.3-5c0.6-3.3,4.2-3.2,4.8-0.6c0,0,0.6,3.5-2.1,5.5l0.3,0.3
	c-0.1,0.2-0.3,0.3-0.5,0.3c-0.2,0-0.4-0.1-0.6-0.2L651.4,368.9z"/>
<path class="st25" d="M651.5,369.6c0,0-1.2,1.7-0.2,3.3c1,1.5,1.7,1.6,1.7,2.4c0,0.7-1.5,1-1.6,2c-0.1,1,1.5,0.8,1.6,1.6
	c0.1,0.8-1.9,0.9-1.9,1.9"/>
<ellipse class="st4" cx="652.3" cy="364.6" rx="1.4" ry="2.8"/>
<path class="st25" d="M716.9,354.4c0,0-2.9-1.7-2.3-5c0.6-3.3,4.2-3.2,4.8-0.6c0,0,0.6,3.5-2.1,5.5l0.3,0.3
	c-0.1,0.2-0.3,0.3-0.5,0.3c-0.2,0-0.4-0.1-0.6-0.2L716.9,354.4z"/>
<path class="st25" d="M717.1,355.1c0,0-1.2,1.7-0.2,3.3c1,1.5,1.7,1.6,1.7,2.4c0,0.7-1.5,1-1.6,2c-0.1,1,1.5,0.8,1.6,1.6
	c0.1,0.8-1.9,0.9-1.9,1.9"/>
<ellipse class="st4" cx="717.8" cy="350.1" rx="1.4" ry="2.8"/>
</svg>
