<svg data-name="Layer 1" height="512" id="Layer_1" viewBox="0 0 128 128" width="512" xmlns="http://www.w3.org/2000/svg">
    <rect fill="#537982" height="64.435" rx="4.464" width="102" x="13.001" y="31.783"/>
    <path d="m13.001 44.531h102v10.491h-102z" fill="#64e0db"/>
    <circle cx="26.601" cy="83.812" fill="#9bdc05" r="5.833"/>
    <circle cx="38.268" cy="83.812" fill="#ff637b" r="5.833"/>
    <path d="m107.235 89.645h-15v-11.666h10.25l4.75 3.494z" fill="#fcbe00"/>
    <g fill="#5a2b41">
        <path d="m90.083 33.533h1.084a1.75 1.75 0 0 0 0-3.5h-1.084a1.75 1.75 0 0 0 0 3.5z"/>
        <path d="m46.1 94.467h-28.636a2.717 2.717 0 0 1 -2.714-2.714v-34.981h92.483a1.75 1.75 0 0 0 0-3.5h-92.483v-17.025a2.717 2.717 0 0 1 2.714-2.714h65.369a1.75 1.75 0 0 0 0-3.5h-65.369a6.221 6.221 0 0 0 -6.214 6.214v55.506a6.221 6.221 0 0 0 6.214 6.214h28.636a1.75 1.75 0 1 0 0-3.5z"/>
        <path d="m53.75 94.467h-.917a1.75 1.75 0 0 0 0 3.5h.917a1.75 1.75 0 0 0 0-3.5z"/>
        <path d="m110.536 30.033h-11.7a1.75 1.75 0 0 0 0 3.5h11.7a2.717 2.717 0 0 1 2.714 2.714v6.534h-92.483a1.75 1.75 0 0 0 0 3.5h92.483v45.472a2.717 2.717 0 0 1 -2.714 2.714h-50.036a1.75 1.75 0 1 0 0 3.5h50.036a6.22 6.22 0 0 0 6.214-6.214v-55.506a6.22 6.22 0 0 0 -6.214-6.214z"/>
        <path d="m32.433 78.973a7.584 7.584 0 1 0 0 9.677 7.583 7.583 0 1 0 0-9.677zm-5.833 8.927a4.083 4.083 0 1 1 4.083-4.083 4.087 4.087 0 0 1 -4.083 4.083zm15.75-4.083a4.084 4.084 0 1 1 -4.083-4.083 4.088 4.088 0 0 1 4.083 4.078z"/>
        <path d="m103.521 76.569a1.755 1.755 0 0 0 -1.038-.34h-10.25a1.75 1.75 0 0 0 -1.75 1.75v11.666a1.751 1.751 0 0 0 1.75 1.75h15a1.75 1.75 0 0 0 1.75-1.75v-8.172a1.75 1.75 0 0 0 -.712-1.41zm1.962 11.331h-11.5v-8.171h7.926l3.574 2.629z"/>
    </g>
</svg>
