<?xml version="1.0" encoding="UTF-8"?>
<!-- Generator: Adobe Illustrator 22.1.0, SVG Export Plug-In . SVG Version: 6.00 Build 0)  -->
<svg version="1.1" id="Calque_1" xmlns="http://www.w3.org/2000/svg" xmlns:xlink="http://www.w3.org/1999/xlink" x="0px" y="0px" viewBox="0 0 226 244" style="enable-background:new 0 0 226 244;" xml:space="preserve">
<style type="text/css">
	.st0{fill:#A0D6E4;}
	.st1{fill:none;stroke:#606060;stroke-width:3;}
	.st2{fill:#F9CDC6;}
	.st3{fill:#616161;}
	.st4{fill:#FFFFFF;}
	.st5{fill:none;stroke:#616161;stroke-width:2;stroke-linecap:round;stroke-linejoin:round;stroke-miterlimit:10;}
	.st6{fill:none;stroke:#616161;stroke-width:2;stroke-miterlimit:10;}
	.st7{fill:#616161;stroke:#616161;stroke-width:2;stroke-linecap:round;stroke-linejoin:round;stroke-miterlimit:10;}
	.st8{fill:none;stroke:#FFFFFF;stroke-width:0.5;stroke-linecap:round;stroke-linejoin:round;stroke-miterlimit:10;}
</style>
<g>
	<path class="st0" d="M98.4,170.2c-3,0-1.4-5.9,0.8-5.9c1.3,0,2.2,0.1,3.5,0.3c11.5-2.7,18-23.5,8.3-23.5c-5,0-10.4,9.4-10.4,13.8   c0,0.5-0.4,0.6-0.7,0.6c-1.8,0-6.1-1.9-6.1-4.3c0-8.2,11.6-16.4,20.2-16.4c18,0,15.1,24.9-2.9,32.4c18.8,7,9.6,36.4-10.2,36.4   c-9.5,0-16.6-6.8-14.9-15.1c0.8-3.9,2.1-7,3-7c2.1,0,8.8,0.8,9.1,2.4c0,0.2,0,0.4-0.1,0.6c-2.2,3.5-4.2,13.9,2.1,13.9   c1.9,0,3.8-0.9,5.3-2.4c6.4-6.5,8.2-23.3-2.2-26.3C101.5,170,99.6,170.2,98.4,170.2z"/>
</g>
<g>
	<path class="st1" d="M102.3,171.5c-3,0-1.4-5.9,0.8-5.9c1.3,0,2.2,0.1,3.5,0.3c11.5-2.7,18-23.5,8.3-23.5c-5,0-10.4,9.4-10.4,13.8   c0,0.5-0.4,0.6-0.7,0.6c-1.8,0-6.1-1.9-6.1-4.3c0-8.2,11.6-16.4,20.2-16.4c18,0,15.1,24.9-2.9,32.4c18.8,7,9.6,36.4-10.2,36.4   c-9.5,0-16.6-6.8-14.9-15.1c0.8-3.9,2.1-7,3-7c2.1,0,8.8,0.8,9.1,2.4c0,0.2,0,0.4-0.1,0.6c-2.2,3.5-4.2,13.9,2.1,13.9   c1.9,0,3.8-0.9,5.3-2.4c6.4-6.5,8.2-23.3-2.2-26.3C105.4,171.3,103.5,171.5,102.3,171.5z"/>
</g>
<g>
	<path class="st3" d="M146.3,56.4c1.2-4.7,3.1-8.5,7.2-11c6.4-3.8,12.7-1.7,15.8,5.1c0.4,0.9,1.6,1.8,2.6,2.1   c9.2,2.8,15.8,7.9,18.5,17.6c0.9,3.4,3.2,6.4,4.8,9.6c0.8,1.7,1.5,3.5,2.3,5.2c-0.3,0.2-0.7,0.3-1,0.5c-2.6-5.4-5.8-10.6-7.8-16.3   c-3.4-9.5-11.1-12.8-19.7-15.2c-1.2-0.3-2.6-0.9-3.3-1.8c-3.2-4.1-6-5.4-10-4.2c-4.3,1.3-6.9,5-7,9.9c0,1.4-0.3,2.8-0.4,4.3   c-1.3-0.7-2.6-1.5-3.9-2.2c-3.4-1.8-6.7-4-10.3-5.4c-7.2-2.9-14.4-6-21.9-7.9c-5.5-1.3-11.5-0.6-17.2-1.1c-11-1-20.2,3.8-29.3,9   c-2.6,1.5-4.9,3.7-7.2,5.8c-4.4,4-8.6,8.2-13,12.2c-3.1,2.8-6.8,4.9-9.5,8c-1.6,1.9-2.6,5-2.5,7.6c0.3,6.2-1.8,11.4-4.6,16.7   c-3.4,6.3-6.4,12.9-9.4,19.4c-0.9,2-2.3,4.3-0.2,6.4c1.1,1.1,4.5,0.1,6.7-1.8c0.5-0.4,0.9-0.9,1.3-1.4c3-5,5.9-10.1,9.1-15   c2.8-4.2,5.9-8.2,9.4-11.8c1.7-1.8,4.5-2.5,6.8-3.7c0.2,0.2,0.3,0.4,0.5,0.6c-0.4,0.5-0.7,1.3-1.3,1.6c-6.4,3.1-9.9,8.6-13.4,14.4   c-4.4,7.4-8.5,15-14.7,21.2c-1.7,1.7-3,1.7-4.9,0.4c-4-2.9-5-5.1-3.4-9.8c0.7-2.2,1.9-4.4,3.2-6.4c5.4-8,9.4-16.7,12.2-26   c0.5-1.7,0.5-3.5,0.7-4.8c-4.9,1.2-9.6,2.5-14.4,3.5c-5.4,1.1-9.2-2.2-9.3-7.9c0-3.4,0.6-6.5,3-9.2c4.6-5.1,8.9-10.7,14-15.3   c7.5-6.9,16.8-10.3,26.9-10.7c3.7-0.2,7.6-0.3,11.1,0.7c2.8,0.8,4.8,0.1,7-0.9c12.7-5.8,26.1-7.9,40-6.3c2.9,0.3,5.7,1.3,8.5,2.2   c9.2,3,18.2,6.5,26.5,11.4C145.3,56.4,145.7,56.3,146.3,56.4z"/>
	<path class="st3" d="M172.1,118.8c-1.4-1.7-2.4-3-3.6-4.4c5.9,2.8,8.9,7.8,10.5,13.5c1.4,4.9,2.5,10,3,15.1   c0.7,6.4,0.4,12.8-5.1,17.6l-2,1.9c-1.1,0.2-1.7,0.3-2.7,0.6c1.1-1.7,2-3.3,3-4.8c-0.2-0.1-0.4-0.3-0.6-0.4   c-2.1,0.8-4.2,1.6-6.3,2.3c-0.1-0.3-0.2-0.5-0.3-0.8c2.2-1.6,4.4-3.2,6.6-4.8c-0.1-0.3-0.3-0.5-0.4-0.8c-1.5,0.5-3,1-4.5,1.4   c-0.1-0.2-0.2-0.3-0.3-0.5c1.8-1.4,3.6-2.8,5.3-4.2c-0.2-0.3-0.4-0.5-0.6-0.8c-1.7,0.8-3.4,1.7-5.1,2.5c-0.3-0.2-0.5-0.4-0.8-0.6   c6.3-3,6.5-8.1,5.7-13.8c-0.6-4.5-0.4-9-0.3-13.6 M138.7,121.9c0.9,3.8,3,7.1,5.7,9.8c2.8,2.8,6,5.2,9,7.9c0.8,0.7,1.3,1.6,1.9,2.4   c-0.1,0.2-0.3,0.5-0.4,0.7c-1.1-0.4-2.2-0.7-3.2-1.3c-5-3-8.9-7-11.8-12.1c-4.6-8-7.5-16.6-7.7-25.8c-0.1-5.4,0.9-10.9,3.2-16   c-0.2,1-0.4,2.1-0.5,3.1c-1.4,9-0.7,17.9,1.9,26.7c0.9,3.1,3.3,3.7,5.8,1.7c0.7-0.6,1.6-1.1,2.5-1.4c5.9-1.5,11.3-4.1,16.1-8   c0.6-0.5,1.5-0.7,2.5-0.7c-3.1,5.8-8.7,8-14.3,10.1C149.3,119,139.4,121.7,138.7,121.9z M175.5,123.5c0,5.3,0,10.3,0.1,15.3   c0,0.6,0.6,1.2,1.1,1.7c1.3,1.3,1.9,2.7,1,4.6c-0.2,0.4-0.1,1.2,0.2,1.5c1.4,1.4,0.8,2.5-0.3,3.7c-0.6,0.7-1.2,1.4-1.9,2.2   c1.2,0.1,2,0.2,3,0.3c-1.1,1.8-2,3.3-2.9,4.8c0.2,0.1,0.4,0.3,0.7,0.4C183.9,152.5,180.3,130.7,175.5,123.5z"/>
	<path class="st3" d="M118.4,116.9c-1-3.6-2.2-7.1-3-10.7c-0.4-1.9-0.3-4-0.4-6.3c2.3,1,2.7,2.4,3,4.3c1.9,14.6,7.5,27.7,17.3,38.8   c1.1,1.2,2.4,2.3,3.6,3.4c-0.1,0.2-0.3,0.5-0.4,0.7c-0.8-0.5-1.8-0.9-2.5-1.5c-6.4-6.1-11.4-13.2-14.7-21.3   C121.1,124.2,118.7,117.8,118.4,116.9z"/>
	<path class="st3" d="M31.7,129.6c0.3,0.9,0.7,1.9,0.9,2.8c0.4,2.3,0.5,4.6,1.1,6.8c0.4,1.6,1,3.2,1.9,4.6c1.1,1.6,2.8,2.6,4.9,1.7   c1.9-0.8,1.7-2.6,1.6-4.3c-0.2-5.5-0.3-11-0.2-16.5c0.2-7.5,4.4-12.9,9.9-17.1c-1.5,3-3.2,6.2-4.7,9.4c-2.1,4.4-3,9-2.7,14   c0.3,4.5,0,9-0.2,13.6c-0.2,3.6-2,6-4.2,6.4c-4.2,0.6-8-1.1-8.6-4.9c-0.9-4.9-0.8-10-1.1-15.1c0-0.4,0.4-0.9,0.7-1.3   C31.2,129.6,31.4,129.6,31.7,129.6z"/>
	<path class="st3" d="M188.5,103.1c-8.7-1.3-11.6-5.5-9.3-13.2c0.6,4.8,0.4,9.5,6,10.7c2.3,0.4,4.6,0.7,5.8-1.4   c-1.1-2.1-2.2-3.7-2.9-5.6c-0.9-2.5,0.1-4.9,2.5-6.4c1.8-1.1,3.8-2.1,5.9-0.4c2.3,1.8,4.6,3.8,3.6,7c-0.5,1.4-2,2.7-3.4,3.4   c-2.7,1.4-5.3,3.8-6.3,6.1c-2.5,3.9-6.3,6.8-11.4,2.8c0.5-1,1.1-2,1.7-3.2c0.2,0.3,0.3,0.4,0.3,0.5c-0.1,1.2-2,2.8,0.1,3.6   c1,0.4,2.5-0.4,3.6-1C186.1,105.5,187,104.4,188.5,103.1z M197.3,88.8c-0.3,0.1-0.5,0.3-0.8,0.4c-0.5,2.9-0.1,3.5,3.2,3.8   C198.7,91.4,198,90.1,197.3,88.8z"/>
	<path class="st3" d="M177.6,106.2c-2.9,2.1-6.1,2.4-9.4,2c-1.8-0.2-3.5-0.8-5.2-1.2c-5.3-1.4-10.2-0.1-15.1,2   c0.8-0.6,1.6-1.6,2.5-1.8c3.1-0.9,6.4-1.3,9.5-2.3c2.7-0.8,4.9,0.7,7.3,1.2C170.6,106.7,174.1,106.2,177.6,106.2z"/>
	<path class="st3" d="M173.8,76.2c0.8-1.8,3.3-2.8,5.4-1.8c1.4,0.7,2.7,2,3.8,3.2c0.4,0.4-0.1,1.5-0.1,2.3c-0.8-0.2-1.6-0.3-2.4-0.5   c-0.3-0.1-0.4-0.5-0.6-0.8C177.7,75.1,177.4,75,173.8,76.2z"/>
	<path class="st3" d="M144.7,138.4c3.8,1.2,5.9,4.2,9.3,6.1C151,144.8,146.4,141.7,144.7,138.4z"/>
	<path class="st3" d="M144,148.8c-2.1-0.3-5.1-3.4-5.3-6.3C140.7,144.9,142.6,147.1,144,148.8z"/>
	<path class="st3" d="M152.8,147.2c-3.7-0.2-6.4-2.2-8.7-4.7c0.2-0.2,0.3-0.5,0.5-0.7C147.3,143.5,150,145.4,152.8,147.2z"/>
</g>
<polyline class="st5" points="174.8,167.1 174.8,211.3 49.6,211.3 49.6,119.3 112.2,119.3 "/>
<line class="st5" x1="155.9" y1="119.3" x2="167.9" y2="119.3"/>
<polyline class="st5" points="49.6,211.3 43.8,206.5 43.8,154.2 "/>
<path class="st8" d="M37.2,78.4c0,0-9.1-7.1-7.6-19.4"/>
<path class="st8" d="M44.5,72.1c0,0-9.1-7.1-7.6-19.4"/>
<path class="st8" d="M30,87.3c0,0-10.1-8.2-7.7-23.1"/>
<path class="st8" d="M11.4,82.6c0,0,10.3-18.6,35.2-30"/>
<path class="st8" d="M13.5,87.5c0,0,10.3-17.9,35.5-28.8"/>
<path class="st8" d="M19.4,89.2c0,0,8.4-14.3,27.7-22.7"/>
<path class="st8" d="M21.1,88.8c0,0-7.3-5.7-5.8-15.9"/>
<path class="st8" d="M50.1,66.9c0,0-7.3-5.7-5.8-15.9"/>
</svg>