<?xml version="1.0" encoding="UTF-8"?>
<!-- Generator: Adobe Illustrator 22.1.0, SVG Export Plug-In . SVG Version: 6.00 Build 0)  -->
<svg version="1.1" id="Calque_1" xmlns="http://www.w3.org/2000/svg" xmlns:xlink="http://www.w3.org/1999/xlink" x="0px" y="0px" viewBox="0 0 314 244" style="enable-background:new 0 0 314 244;" xml:space="preserve">
<style type="text/css">
	.st0{fill:#A0D6E4;}
	.st1{fill:none;stroke:#606060;stroke-width:3;}
	.st2{fill:#F9CDC6;}
	.st3{fill:#616161;}
	.st4{fill:#FFFFFF;}
	.st5{fill:none;stroke:#616161;stroke-width:2;stroke-linecap:round;stroke-linejoin:round;stroke-miterlimit:10;}
	.st6{fill:none;stroke:#616161;stroke-width:2;stroke-miterlimit:10;}
	.st7{fill:#616161;stroke:#616161;stroke-width:2;stroke-linecap:round;stroke-linejoin:round;stroke-miterlimit:10;}
	.st8{fill:none;stroke:#FFFFFF;stroke-width:0.5;stroke-linecap:round;stroke-linejoin:round;stroke-miterlimit:10;}
</style>
<g>
	<path class="st2" d="M193.1,167.2c-2,0.8-3.9,0.3-3.9-2c0-3.6,1.7-7.4,4.5-9.8c18.4-15.6,40.4-40.5,40.4-62.1   c0-5.6-3.5-8.8-7.7-8.8c-7.6,0-13.9,11.4-13.9,18c0,0.7-0.6,0.8-1,0.8c-2.4,0-8.1-2.5-8.1-5.8c0-10.9,14.3-21.9,25.7-21.9   c11.1,0,19.4,7.2,19.4,18.1c0,22-20.3,45.6-41,60.9c9.5-1.5,19.6-1.5,28.3-0.3c3.5,0.6,4.2,6.2,4.2,9.5c0,0.6,0,2.5-1,2.5   c-0.1,0-0.3,0-0.4,0c-2.8-0.7-6-1.1-9-1.4C218.1,163.8,204.2,163.3,193.1,167.2z"/>
</g>
<g>
	<path class="st1" d="M200.1,167.2c-2,0.8-3.9,0.3-3.9-2c0-3.6,1.7-7.4,4.5-9.8C219,139.8,241,114.9,241,93.2c0-5.6-3.5-8.8-7.7-8.8   c-7.6,0-13.9,11.4-13.9,18c0,0.7-0.6,0.8-1,0.8c-2.4,0-8.1-2.5-8.1-5.8c0-10.9,14.3-21.9,25.7-21.9c11.1,0,19.4,7.2,19.4,18.1   c0,22-20.3,45.6-41,60.9c9.5-1.5,19.6-1.5,28.3-0.3c3.5,0.6,4.2,6.2,4.2,9.5c0,0.6,0,2.5-1,2.5c-0.1,0-0.3,0-0.4,0   c-2.8-0.7-6-1.1-9-1.4C225,163.8,211.2,163.3,200.1,167.2z"/>
</g>
<g>
	<path class="st3" d="M159.2,205.8c1.8-0.1,2.7-1,3.6-1c3.2-0.1,5.6-1,6.7-2.3c1.1-1.4,0.2-3.5-0.6-4.4c-0.9-1-2.8-1.2-4.2-1.7   c-6-1.9-12.1-3.8-18.1-5.6c-0.9-0.3-2.4-0.1-3,0.5c-1.5,1.4-2.6,3.2-3.8,4.9c0.1,0.4,0.3,0.8,0.4,1.2c1.9,0,3.9-0.1,5.8,0   c2.2,0.2,4.4,0.4,6.5,1.2c3.8,1.4,5.7,4.7,4.9,8c-0.7,3-3.7,5.2-7.4,5c-10.8-0.7-21.6-1.3-32.4-2.5c-15.4-1.8-30.1-6.5-44.5-12.1   c-1.1-0.4-2.9-0.2-4,0.4c-16.4,9.2-33.8,11.2-52.1,7.8c-0.9-0.2-1.8-0.4-2.6-0.7c-6.2-2.2-7.4-7.4-2.8-12.3   c6.4-6.9,14.9-10.1,23.5-13.1c8.3-3,16.9-3.9,25.7-3.8c0.7,0,1.3-0.1,2.2-0.2c-5.9-41.8,8.1-74.9,41.3-99.9   c-4.1-2.8-5.9-7-6.1-11.9c-0.2-4.5,3-9.3,6.7-10.8c0.9-0.4,2.1-1,2.5-1.9c6.6-14.5,22.8-17.3,36.2-9.6c7.7,4.4,15.5,8.7,23.2,13.1   c0.8,0.5,1.4,1.2,1.8,2.4c-0.7-0.3-1.4-0.6-2.1-1c-0.3,0.1-0.5,0.3-0.8,0.4c0.6,1,1,2.6,1.9,2.9c2.1,0.9,4.1,1.4,3.5,4.3   c-0.6,3-2.4,5-5.5,5.7c-3.3,0.7-5.6-1.1-7.3-3.7c-1.6-2.6-1.3-5.4,0.5-7.9c0.9-1.2,2.2-2.2,3.7-3.7c-1.6-0.9-3-1.7-4.4-2.5   c-4.8-2.6-9.7-5-14.2-8c-11.6-7.6-29.4-4.3-34.2,9.2c-0.3,1-1.4,1.9-2.3,2.4c-5.7,3-8.7,10.4-5.6,15.3c1.3,2,3.8,3.1,6,4.8   c-12.8,9.3-22.8,21.4-30,35.5c-7.4,14.5-12.7,29.7-12,46.5c0.5,11.7,2.9,23,7.7,33.7c1.2,2.6,2.9,4.3,5.5,5.5   c21.3,9.2,43.4,14.5,66.8,12.7c1.8-0.1,3.7-0.2,5.2-1c1.4-0.8,3.1-2.5,3-3.7c-0.1-1.3-1.9-2.9-3.4-3.5c-1.7-0.7-3.7-0.7-5.6-0.6   c-8.4,0.5-15.9-2.1-23-6c-2.9-1.6-5.7-3.5-8.5-5.3c0.2-0.3,0.3-0.5,0.5-0.8c3.5,1.7,7.1,3.4,10.6,5.1c0.8,0.4,1.6,0.9,2.4,1.1   c8.7,2.7,6.4,4.2,12-4.2c5.4-8.2,8.2-17.3,8.1-27.2c-0.1-7.4,0-14.7,0.7-22.3c0.3,0.8,0.7,1.5,0.9,2.4c2.8,12.5,2.5,25.1,0.3,37.6   c-0.3,1.8-1.5,3.5-2.3,5.2c-0.9,2-0.6,3.6,1.5,4.3c5.5,1.8,11,3.4,16.6,5c1.7,0.5,3.6,0.4,5.3,0.9c3.3,1,4.3,3,3.5,6.4   C173.3,202,172.4,206.8,159.2,205.8z"/>
	<path class="st3" d="M170.8,114.5c5-2.7,9.1-5,13.3-7.3c0.4,0.2,0.8,0.4,1.1,0.6c-0.7,1.1-1.1,2.7-2,3.2c-5.2,2.6-10.4,5.7-16,7.2   c-13.2,3.5-26.6,3.6-39.8-0.1c-4-1.1-7.8-3.4-11.6-5.2c0.1-0.3,0.3-0.6,0.4-0.9c2.2,1,4.3,2.2,6.6,2.9c12.9,4.3,25.7,5,39.2,2   C162,117,168.9,115.5,170.8,114.5z"/>
	<path class="st3" d="M114.4,138.6c8-0.4,15.4-0.4,22.7-1.3c11.1-1.4,21.8-4.6,32.1-9c4.2-1.8,8.3-3.9,12.4-5.8   c1.2-0.6,2.7-0.7,4.7-1.2C180.7,131.2,131.1,142.8,114.4,138.6z"/>
	<path class="st3" d="M147.3,75c7.5,1.9,14.8,4.3,19.3-4.9c1,3.9-0.5,6.8-1.6,9.7c-1.3,3.6-3.6,5.1-7.7,3.9   C156.8,78.3,149.9,80.3,147.3,75z M161.9,77.1c-0.5,0-3.1,1.1-3.6,0.8c0,0.9-0.7,2.9-0.2,4.1c0.5,1.2,2.4,0.5,2.9,0.4   C161.8,81.2,161.9,78.6,161.9,77.1z"/>
	<path class="st3" d="M137.2,110.8c-0.3-2.8-0.9-5.6-0.8-8.4c0.1-5.3,5.7-11.6,10.8-13.1c3.2-0.9,6.2-2.3,9.3-3.4   c0.6-0.2,1.4,0,2,0.1c-0.2,0.7-0.2,1.7-0.7,2c-2.2,1-4.4,2.2-6.8,2.7c-9,1.8-14.5,9.3-13.3,18.4c0.1,0.5,0.1,1.1,0.2,1.6   C137.8,110.7,137.5,110.8,137.2,110.8z"/>
	<path class="st3" d="M138.7,102.2c12.5-0.9,23.5-4.2,34.3-10.8C169.9,97.4,144.6,105.4,138.7,102.2z"/>
	<path class="st3" d="M190.6,106.6c-0.3,1.5-0.1,3.2-0.8,3.8c-3.5,3.2-6.8,7.1-12.3,6.6C181.6,113.7,185.7,110.5,190.6,106.6z"/>
	<path class="st3" d="M133.6,65.4c-2.3-3.2-1.1-4.9,0.9-6.3c3.1-2.1,6.7-1.9,9.2,1C139.7,60.4,135.4,60.2,133.6,65.4z"/>
	<path class="st3" d="M107.3,59.1c2.2,4.1,1.5,7.7-0.7,11.2C103.9,67.9,104.2,62.6,107.3,59.1z"/>
	<path class="st3" d="M169.3,106.7c-6.6,5.1-14.3,7.3-22.2,9.2c-0.1-0.3-0.2-0.7-0.4-1c3.8-1.2,7.6-2.2,11.3-3.6   C161.9,110,165.6,108.3,169.3,106.7z"/>
	<path class="st3" d="M177.9,120.6c3.5-2.2,7-4.3,10.7-6.6C188,117.5,182,121.6,177.9,120.6z"/>
	<path class="st4" d="M165.8,75.6c-0.6,1.4-1.4,4.8-2.5,6c-0.4,0.5-1.5,0.8-1.4,0.7c0.6-1.3,0.9-4.2,0.9-5.5   C163.4,77.1,165.2,76.2,165.8,75.6z"/>
</g>
<polyline class="st5" points="166.8,139.5 159,179.8 267.9,194.9 289.4,59.3 184.7,47.1 173.2,106.6 "/>
<polyline class="st5" points="159,179.8 166.4,182.5 275.1,199.2 296,67.5 289.4,59.3 "/>
<line class="st6" x1="267.9" y1="194.9" x2="275.1" y2="199.2"/>
<path class="st8" d="M39.2,181.6c0,0,4.8,11.5-2.8,22.6"/>
<path class="st8" d="M29.3,183.8c0,0,4.8,11.5-2.8,22.6"/>
<path class="st8" d="M50.3,176.8c0,0,5.2,13.2-4.5,26.2"/>
<path class="st8" d="M65.1,191c0,0-18.8,12.5-47.4,10.4"/>
<path class="st8" d="M65.5,185.2c0,0-18.5,11.8-47.1,9.1"/>
<path class="st8" d="M61,180.5c0,0-14.9,9.4-36.9,7.4"/>
<path class="st8" d="M59.2,180c0,0,3.8,9.3-2.6,18.3"/>
<path class="st8" d="M21.6,185.9c0,0,3.8,9.3-2.6,18.3"/>
</svg>