<?xml version="1.0" encoding="UTF-8"?>
<!-- Generator: Adobe Illustrator 22.1.0, SVG Export Plug-In . SVG Version: 6.00 Build 0)  -->
<svg version="1.1" id="Calque_1" xmlns="http://www.w3.org/2000/svg" xmlns:xlink="http://www.w3.org/1999/xlink" x="0px" y="0px" viewBox="0 0 184 244" style="enable-background:new 0 0 184 244;" xml:space="preserve">
<style type="text/css">
	.st0{fill:#A0D6E4;}
	.st1{fill:none;stroke:#606060;stroke-width:3;}
	.st2{fill:#F9CDC6;}
	.st3{fill:#616161;}
	.st4{fill:#FFFFFF;}
	.st5{fill:none;stroke:#616161;stroke-width:2;stroke-linecap:round;stroke-linejoin:round;stroke-miterlimit:10;}
	.st6{fill:none;stroke:#616161;stroke-width:2;stroke-miterlimit:10;}
	.st7{fill:#616161;stroke:#616161;stroke-width:2;stroke-linecap:round;stroke-linejoin:round;stroke-miterlimit:10;}
	.st8{fill:none;stroke:#FFFFFF;stroke-width:0.5;stroke-linecap:round;stroke-linejoin:round;stroke-miterlimit:10;}
</style>
<g>
	<path class="st0" d="M81.8,130c-0.8,0.5-1.4,0.9-1.8,0.9c-2,0.1-7-6-6.3-7.8c0-0.2,0.1-0.3,0.3-0.4c5.2-2.6,10.9-6.7,14.5-11.1   c2.9,0,10.4,1.9,10.4,4.5c0,0.2-0.1,0.4-0.2,0.5c-0.5,0.7-1,1.1-1.4,1.9c-6.5,11.7-15.1,52.1-15.1,62.7c0,0.9-0.4,1.3-1.3,1.3   c-2.7,0-7.3-2.4-7.3-4.8C73.8,166.6,77.6,145.4,81.8,130z"/>
</g>
<g>
	<path class="st1" d="M86.1,131.5c-0.7,0.5-1.4,0.9-1.7,0.9c-1.9,0.1-6.8-5.9-6.1-7.6c0-0.2,0.1-0.3,0.3-0.4   c5-2.6,10.6-6.5,14.1-10.8c2.8,0,10.2,1.8,10.2,4.4c0,0.2-0.1,0.4-0.2,0.5c-0.5,0.6-1,1.1-1.4,1.8c-6.3,11.3-14.6,50.6-14.6,60.9   c0,0.9-0.4,1.3-1.3,1.3c-2.7,0-7.1-2.4-7.1-4.7C78.3,167,82.1,146.4,86.1,131.5z"/>
</g>
<g>
	<path class="st3" d="M138.1,108.4c0-1.1-0.2-2.2-0.6-3.2c-0.2-0.6-0.8-1.1-1.2-1.7c-0.4,0.5-0.9,0.9-1.1,1.5   c-1.7,5.5-3.2,11.2-4.9,16.7c-2.2,6.9-6.7,12.4-12,17.2c-0.3,0.3-1.4,0.5-1.5,0.3c-1.3-1.7-2.3-0.3-3.4,0.3c-1.3,0.7-2.7,1.1-4,1.7   c-0.2-0.3-0.4-0.6-0.6-0.9c0.7-0.9,1.4-1.9,2.1-2.8c-0.1-0.1-0.2-0.3-0.2-0.4c-1.3,0.5-2.5,1.2-3.8,1.5c-0.7,0.2-1.6-0.3-2.4-0.5   c0.5-0.7,0.8-1.6,1.4-2.1c1.5-1.1,3.2-2,4.9-3.1c1.4-0.9,2.3-2.7,4.4-0.7c0.8,0.8,2.9,0.3,4.7,0.4c7.5-10.4,13.1-22.4,12.9-36.2   c-0.2-9.4-0.8-19-7.1-26.8c-5.1-6.3-8.9-13.7-15.5-18.8c-1.4-1.1-1.5-2.3-0.5-3.9c1.7-2.6,3.4-5.3,4.5-8.2   c1.6-4.3,1.7-8.8-1.3-12.7c-2.5-3.2-8.9-4.2-12.1-1.7c-1.7,1.3-2.8,1.1-4.7,0.3c-6-2.6-12.5-2.6-18.9-1.8   c-6.9,0.8-12.6,3.9-17.2,9.2c-0.6,0.7-1.2,1.5-2,1.9c-3.2,1.8-5.7,4.1-6,8.1c0,0.4-0.6,0.8-1.5,1.8c-0.5-4,0.1-7.2,2.6-9.4   c4.5-3.8,9.2-7.3,13.9-10.7c4.2-3.1,9.3-3.2,14.2-3.7c5-0.5,9.9-0.1,14.6,1.9c0.7,0.3,1.8,0,2.5-0.3c7.6-3.6,16.5-0.4,19.2,7.3   c1.9,5.4,0.9,10.7-2.2,15.4c-1.6,2.4-1.6,3.7,0.4,5.9c9,9.7,15.9,21,21,33.1c1.9,4.5,2.2,9.6,3.2,14.5c0.7,3.5,1.6,7.1,1.8,10.6   c0.3,3.4,0,7-0.4,10.4c-0.1,0.9-1.8,1.7-2.8,2.5L138.1,108.4z"/>
	<path class="st3" d="M51.9,77.1c-0.4,0.6-0.8,1.4-1.4,1.9c-4.6,3.7-9.6,6.9-13.8,11c-5.2,5.2-9,11.6-11.6,18.6   c-3,8-4.8,16.2-4.6,24.6c0.1,5.2,1.5,10.4,2.2,15.6c0.1,0.9,0.1,1.9,0.1,2.9c-0.9-0.2-1.9-0.1-2.7-0.5c-1.8-0.9-2.3-1.8-3-5.8   c-0.2-4-0.3-7.9-0.1-11.8c0.2-4.8,0.5-9.5,1.4-14.2c1.4-7.7,4-15.2,8.9-21.5c3.8-5,8.2-9.5,12.5-14.1c3.2-3.4,7-6,11.5-7.3   C51.5,76.7,51.7,76.9,51.9,77.1z"/>
	<path class="st3" d="M90.7,204.9c-0.7,0.4-1.4,1.1-2.2,1.2c-7.7,1-15.3,2-23,2.8c-3.6,0.4-6.8-0.5-7.6-4.9c-2,0.4-3.7,1-5.5,1.1   c-5.7,0.6-11.4,1.2-17.1,1.4c-1.8,0.1-3.7-0.5-5.3-1.4c-2.9-1.5-2.4-6.3,1-8.1c3.5-1.8,7.2-3.1,10.9-4.6c0.9-0.4,1.8-0.8,2.7-1.2   c1.1-0.5,2.2-1.1,3.2-1.6c0.2,0.3,0.5,0.6,0.7,0.9c-1.1,1-2,2.4-3.3,3.1c-3.2,1.5-6.5,2.7-9.7,4.1c-0.6,0.3-1.5,0.4-1.8,0.8   c-0.7,1-1.7,2.3-1.6,3.3c0.1,0.8,1.7,2,2.7,2c2.8,0.2,5.5-0.1,8.3-0.3c4.3-0.4,8.5-0.8,12.8-1.4c1.1-0.2,2.3-1.1,3.1-2.1   c2.5-2.9,5.9-3.3,9.3-3.9c0.5-0.1,1,0.4,2,0.9c-0.9,0.6-1.4,1.1-2.1,1.3c-0.8,0.4-1.8,0.5-2.7,0.8c-2.2,0.8-3.8,3.2-3.2,5.1   c0.6,2.2,2.6,2.3,4.3,2.2c6-0.6,12-1.4,18-2.1c1.9-0.2,3.8-0.3,5.7-0.5C90.5,204.3,90.6,204.6,90.7,204.9z"/>
	<path class="st3" d="M69.9,49.1c-1.3,5.2-4.7,7.6-9.1,6.4c-2.8-0.7-5.4-4.2-5.7-7.7c-0.3-3.4,1.1-5.8,4.7-7.6   c3-1.6,6.5-1.4,8.7,0.8c0.4,0.4,0.7,1.6,0.4,2.1C66.7,46.5,66.7,46.5,69.9,49.1z"/>
	<path class="st3" d="M76.8,62.4c0,5-6.7,13-13.3,13.4c-5,0.3-6.9-1.9-8.9-5.2c-0.4-0.6-0.4-1.4,0-2.3c0.6,0.4,1.1,0.9,1.8,1.2   c2.1,0.9,4.4-0.9,4.1-3.2c-0.3-2.5-0.8-5-1.2-7.5c0.3-0.1,0.6-0.2,0.9-0.3c0.3,0.5,0.6,1,0.8,1.5c0.5,1.7,0.9,3.4,1.4,5.1   c1,3.3,4.6,4.9,7.4,3.1C72.3,66.5,74.5,64.3,76.8,62.4z M58.2,72.1c0.8,2.3,2.3,1.6,4,1.3c-0.3-0.9-0.6-1.7-0.9-2.7   C60.1,71.3,59.3,71.7,58.2,72.1z M62.6,69.5c0.4,1.3,0.7,4.6,1.3,4.8c0.7,0.2,3.6-1,4.2-1.9c0-0.2,0.2-1.7,0.2-1.9   C66.2,70.5,64.5,70,62.6,69.5z"/>
	<path class="st3" d="M51.2,73.8c-1.4-2.8-3.2-5.4-4.2-8.3c-1.5-4.5-2.3-9.3-0.2-13.8c0.9-2,2.6-3.6,4.1-5.2c0.3-0.3,1.3,0.1,2,0.1   c-0.1,0.5-0.1,1.2-0.4,1.5c-6.1,6.5-5.2,13.7-2,21c0.6,1.4,1.3,2.7,2,4C52.1,73.4,51.7,73.6,51.2,73.8z"/>
	<path class="st3" d="M103.6,36.1c0.6-3.2,1.1-6.1,1.8-9.3c0.1,0,1.2,0.1,1.4,0.5c1.1,2.4,2.2,4.9,2.8,7.5c0.4,2.1-0.5,2.7-2.6,2   c-0.6-0.2-1.3-0.4-2-0.5C104.4,36.2,103.9,36.1,103.6,36.1z"/>
	<path class="st3" d="M77.7,40.6c-1.5-2.5-0.8-4.4,2.2-6.3c1.9-1.2,5.1-0.8,5.9,0.9c0.2,0.4-0.6,1.9-0.7,1.8   C81.8,36.3,79.6,38.1,77.7,40.6z"/>
	<path class="st3" d="M30.9,154.7c-0.8-0.4-1.8-0.6-2.3-1.2c-1.9-2.6-3.6-5.4-5.3-8.2c-0.3-0.4,0.4-1.4,0.6-2.1   c0.5,0.4,1.1,0.6,1.5,1.1c1.7,2.5,3.4,5.1,5.1,7.7c0.4,0.7,0.6,1.5,0.9,2.3C31.3,154.4,31.1,154.5,30.9,154.7z"/>
	<path class="st3" d="M110.5,130c-0.6,0.9-0.9,2.2-1.8,2.6c-1.8,1-3.8,1.7-5.8,2.2c-0.5,0.1-1.3-0.7-2-1c0.5-0.5,0.9-1.3,1.5-1.6   c2.4-1,4.9-1.8,7.4-2.7C110.1,129.7,110.3,129.8,110.5,130z"/>
	<path class="st3" d="M28.7,144.7c2.1,2.1,3.9,3.7,5.6,5.5c0.3,0.3,0.3,1.1,0.1,1.3c-0.2,0.3-0.9,0.4-1.3,0.3   C31.1,151.6,28.5,147.6,28.7,144.7z"/>
	<path class="st3" d="M31.7,144.7c1.6-0.3,5.2,2.8,5.9,5C35.6,149.9,32.4,147.2,31.7,144.7z"/>
	<path class="st4" d="M57.8,71.1c1-0.2,2.2,0,3.5-1.2c0.3,0.9,0.8,3.7,1.1,4.6C60.8,74.9,58.2,73.7,57.8,71.1z"/>
</g>
<polyline class="st5" points="20.1,154.7 19.4,156.2 18.6,157.7 65.6,186.2 "/>
<polyline class="st5" points="110.5,111.7 56.9,81.4 31.7,131.6 "/>
<polyline class="st5" points="65.6,186.2 123.5,221.2 165.3,142.6 134.7,125.4 "/>
<polyline class="st5" points="114.4,109.8 64.9,81.8 56.9,81.4 "/>
<polyline class="st5" points="123.5,221.2 131.3,218.3 172,142.2 135.8,121.8 "/>
<line class="st6" x1="165.3" y1="142.5" x2="171.3" y2="142.2"/>
<path class="st7" d="M168.4,199.1c-2.4,8-20.5,5.9-28.1,3.3l9.2-17.2c0,0,4.3,0.5,10.4,3c2.4,1,4.6,2.4,6.3,4.4  C167.8,194.4,169.1,196.7,168.4,199.1z"/>
<path class="st8" d="M150.7,203.1c0,0,2.7-8.5,10.1-12.9"/>
<path class="st8" d="M155.6,204.8c0,0,2.7-8.5,10.1-12.9"/>
<path class="st8" d="M144.3,202.7c0,0,3.2-9.6,12.2-14.6"/>
<path class="st8" d="M147.3,189.5c0,0,10.5-1.4,19.9,8.1"/>
<path class="st8" d="M144.3,192.9c0,0,10.5-1.2,19.8,8.8"/>
<path class="st8" d="M142.9,197.6c0,0,8.9-1.1,16.4,6.3"/>
</svg>