<?xml version="1.0" encoding="utf-8"?>
<!-- Generator: Adobe Illustrator 22.1.0, SVG Export Plug-In . SVG Version: 6.00 Build 0)  -->
<svg style="enable-background:new 0 0 150 72.5;" id="Calque_1" version="1.1" viewBox="0 0 150 72.5" x="0px"
     xmlns="http://www.w3.org/2000/svg" y="0px" xml:space="preserve">
<style type="text/css">
	.st0{fill:#5A5A5A;}
	.st1{fill:#636363;}
	.st2{fill:#5E5F5F;stroke:#5E5F5F;stroke-width:0.15;stroke-miterlimit:10;}
	.st3{fill:#5E5F5F;}
	.st4{fill:none;stroke:#5B5B5B;stroke-width:0.75;stroke-miterlimit:10;}
	.st5{fill:none;stroke:#5A5A5A;stroke-width:0.75;stroke-miterlimit:10;}
	.st6{fill:#FFFFFF;}
	.st7{fill:none;}
	.st8{fill:none;stroke:#FFFFFF;stroke-width:0.2;stroke-miterlimit:10;}
	.st9{fill:#4FBDD7;}
</style>
    <g>
	<path class="st0" d="M16.1,37.4c-0.8,0.6-1.7,0.9-2.7,0.8l0,0l-0.1,0l-0.1-0.1c0,0,0-0.2,0-0.2c0.1-0.1,0.1-0.1,0.1-0.1l0,0l0,0
		l0.1-0.1l0.2-0.1l0.4-0.2c0.2-0.1,0.5-0.3,0.6-0.4l0,0c-0.1,0.1-0.1,0.2,0,0.3c0,0.1,0.1,0.2,0.2,0.2c0.1,0,0,0,0,0c0,0,0,0,0,0
		l-0.2,0.1l-0.4,0.1c-0.3,0.1-0.5,0.2-0.8,0.3c-0.1,0-0.1,0.1-0.4,0c-0.1-0.1-0.3-0.2-0.3-0.3c0-0.1,0-0.2,0-0.2l0-0.1
		c0.1-0.1,0.1-0.1,0.1-0.2c0.1-0.1,0.2-0.2,0.4-0.3l0.7-0.5l0.1-0.1c0,0,0,0,0,0l0,0c-0.1,0.1-0.1,0.2,0,0.3c0,0.1,0.1,0.2,0.3,0.2
		l0.1,0l-0.3,0.1l-0.8,0.3l-0.2,0.1c0,0-0.1,0-0.1,0c0,0-0.1,0-0.1,0c-0.1,0,0,0-0.3-0.1c-0.1-0.1-0.1-0.1-0.2-0.2
		c0-0.1,0-0.2,0-0.3c0,0,0-0.1,0.1-0.1c0,0,0.1-0.1,0.1-0.1l0.2-0.2l0.7-0.5c0,0,0.1-0.1,0.1-0.1c0,0,0,0,0,0c0,0,0,0.2,0,0.3
		c0,0,0.1,0.1,0.1,0.1l0,0c0,0-0.2,0-0.3,0.1c-0.3,0.1-0.5,0.2-0.8,0.2l-0.1,0c0,0-0.1,0-0.1,0c-0.2,0-0.3-0.2-0.2-0.4
		c0.1-0.2,0.1-0.2,0.2-0.2c0.1-0.1,0.2-0.2,0.4-0.3c0.2-0.2,0.5-0.3,0.7-0.4c0.5-0.3,1-0.6,1.5-0.8l-1.3,1.1L13,36
		c-0.1,0.1-0.2,0.2-0.3,0.3c0,0-0.1,0.1-0.1,0.1c0.1-0.1,0-0.3-0.2-0.3c0,0,0,0,0,0l0.1,0l0.8-0.3c0.2,0,0.2-0.1,0.5-0.1
		c0,0,0,0,0.1,0c0.1,0,0.1,0.1,0.2,0.1c0.1,0.1,0.1,0.3,0,0.3c0,0.1-0.1,0.1-0.1,0.2c-0.1,0.1-0.1,0.1-0.2,0.2l-0.6,0.6l-0.1,0.1
		c0,0,0,0,0,0c0,0,0,0,0,0c0,0,0-0.1,0-0.2c0-0.1-0.1-0.1-0.1-0.2c-0.2-0.1-0.1,0-0.2,0c0,0,0,0,0,0l0.1,0l0.2-0.1l0.8-0.3
		c0.2-0.1,0.2-0.1,0.5-0.2c0,0,0,0,0.1,0c0.1,0,0.3,0.1,0.3,0.2c0.1,0.1,0,0.3,0,0.4c0,0,0,0,0,0.1c-0.1,0.1-0.1,0.1-0.1,0.1
		L14.4,37l-0.7,0.5c-0.1,0.1-0.2,0.2-0.3,0.2c0,0,0,0,0,0l0,0c0,0,0-0.1,0-0.2c0-0.1-0.1-0.2-0.2-0.3c-0.1,0,0,0,0,0
		c0.2,0,0.5-0.1,0.8-0.2l0.4-0.1l0.2-0.1c0,0,0.1,0,0.2,0c0,0,0,0,0.1,0c0.1,0,0.2,0.1,0.3,0.2c0,0.1,0,0.2-0.1,0.3l0,0
		c-0.3,0.3-0.5,0.3-0.8,0.5l-0.4,0.2l-0.2,0.1l-0.1,0l0,0l0,0c0,0,0,0,0.1-0.1c0.1-0.1,0-0.2,0-0.2l-0.1-0.1l-0.1,0l0,0
		c0.4,0.1,0.9,0.1,1.4,0C15.2,37.8,15.6,37.6,16.1,37.4z"/>
</g>
    <path class="st1" d="M17.5,42.2"/>
    <path class="st2" d="M17.4,30.6c0.1-0.2,0.1-0.4,0.2-0.6c0.4-1.1,0.9-2.1,1.3-3c0,0-0.1-0.2-0.2-0.2c-0.2,0-0.3,0.1-0.3,0.1
	c-0.2,0.6-0.8,2.3-1.2,3.6C17.3,30.5,17.4,30.5,17.4,30.6z"/>
    <path class="st3" d="M17.2,43.1c-1.4-3.1-1.2-5.9-1-7.1l0.3-1.8c-0.1,0.1-0.3,0.1-0.5,0c-0.4,1.3-0.6,2.9-0.5,4.7
	c0.4,6.5,5.3,10.3,6.2,11c0.5-0.2,0.9-0.4,1.4-0.6C22.1,48.8,18.9,47,17.2,43.1z"/>
    <path class="st1" d="M14.6,30.2"/>
    <path class="st1" d="M11.2,29.9"/>
    <path class="st3" d="M31.8,50.5c-0.8,0.3-1.6,0.7-2.4,1c-0.6,0.2-1.2,0.3-1.8,0.5c-0.8,0.1-1.6,0.3-2.4,0.3c-1.8,0.1-2,0.1-3.6,0.2
	c-0.8,0.1-1.9,0.1-3.2,0.3c-0.1,0-0.5,0.1-0.9,0.1c-0.6,0-1.1,0-1.7-0.3c-0.3-0.1-0.8-0.4-0.8-0.8c0-0.3,0.2-0.6,0.3-0.7
	c0.7-0.8,1.9-0.5,3.2-0.5c1.3,0,2.2-0.2,3.5-0.5c0.5-0.1,2-0.4,3.7-1.3c0.2-0.1,0.8-0.4,0.8-0.5c0-0.1-0.9,0.2-2.1,0.6
	c-1.4,0.4-2.7,0.8-4.4,1c-0.9,0.1-1.7,0.1-1.8,0.1c-2.2,0-3.2-0.2-3.8,0.4c-0.2,0.2-0.4,0.5-0.4,1.1c0.2,0.4,0.4,0.9,0.9,1.4
	c1.4,1.4,3.3,1.1,4.6,0.9c7.7-1,10.6,0.5,14.2-2.8C33.1,50.2,32.5,50.2,31.8,50.5z"/>
    <path class="st3" d="M20.2,48.7c-0.3,0.1-0.5,0.1-1,0.1c-0.8,0-2.2-0.1-2.4-0.1c-1.5-0.1-2.7-0.2-3.5,0.6c-0.2,0.2-0.8,0.7-0.9,1.8
	c0,0.1,0,1,0.9,1.6c0.7,0.5,1.8,0.5,2.6,0c-0.1,0-0.3,0.1-0.6-0.1c-0.2-0.1-0.3-0.3-0.4-0.3c0-0.1-0.1-0.2-0.2-0.3
	c-0.2-0.1-0.3,0.1-0.5,0.1c-0.3,0-0.6-0.3-0.7-0.5c-0.3-0.5,0-1.3,0.6-1.7c0.6-0.5,1.3-0.6,4.7-0.6c0.4,0,0.9,0,1.4,0
	c0.4-0.4,0.5-0.5,0.4-0.6C20.6,48.5,20.4,48.6,20.2,48.7z"/>
    <g>
	<path class="st0" d="M27.3,18.8c3,1.4,5.8,3.5,8,6.1c2.2,2.6,3.6,6,4,9.3c0.4,3.4-0.1,6.9-1.5,9.9c-1.4,3.1-3.5,5.7-5.9,7.9
		l-0.1-0.1c2.2-2.4,4.1-5.1,5.1-8.2c1.1-3,1.4-6.2,0.8-9.3c-0.6-3.1-2.2-5.8-4-8.4c-1.8-2.6-4.1-4.9-6.5-7.1L27.3,18.8z"/>
</g>
    <path class="st3" d="M31.8,15.4c-0.4-1-1.2-1.6-2.2-1.9c-0.4-0.1-0.8-0.3-1.1-0.6c0,0-0.1,0-0.1-0.1c0,0.1,0,0.2,0,0.3
	c0,0.2,0,0.3,0,0.3c0,0.1-0.1,0.4-0.3,1c0.2,0,0.5,0,0.8,0c0.7,0.2,1.1,0.6,1.3,0.8c0.1,0.1,0.9,1,0.5,2c-0.3,0.9-1.2,1.3-2.2,0.9
	c-0.5-0.2-0.8-0.3-0.9-0.2c-0.2,0.2-0.3,0.6-0.3,1l0,0c0,0,0,0,0,0.1c0.3,0.1,0.5,0.3,0.6,0.5c0.1,0.1,0.2,0.1,0.3,0.2
	c0,0,0.1,0,0.1,0c0.2,0,0.3,0,0.4,0.1c0,0,0-0.1,0-0.1c0.2,0,0.5,0,0.7,0C31.4,19.5,32.7,17.4,31.8,15.4z"/>
    <path class="st3" d="M50.4,48.1c0.2,2.3-12.5,6.7-17.1,4.2c-2.4-1.3-2.6-4.5-0.4-6.1C37.2,43.1,50.2,45.8,50.4,48.1z"/>
    <path class="st4" d="M50.3,47.9c0.2,2.3-12.5,6.7-17.1,4.2c-2.4-1.3-2.6-4.5-0.4-6.1C37.1,42.9,50.2,45.6,50.3,47.9z"/>
    <g>
	<path class="st0" d="M28.7,14.1c-0.1-0.9-0.4-1.7-0.9-2.3c-0.5-0.6-1.2-1-2-1.2c-0.8-0.2-1.6-0.3-2.5-0.4c-0.8,0-1.7,0.1-2.6,0.1
		c-0.9,0.1-1.8,0.1-2.7,0.1c-0.9,0-1.8,0-2.6,0.1c-0.4,0.1-0.8,0.2-1.1,0.5c-0.4,0.2-0.7,0.5-0.9,0.9c-0.5,0.7-0.9,1.5-1.1,2.4
		l-0.1,0c0.2-0.9,0.5-1.8,1-2.5c0.3-0.4,0.6-0.7,0.9-1c0.3-0.3,0.8-0.6,1.3-0.7c0.9-0.2,1.8-0.2,2.7-0.3c0.9-0.1,1.8-0.2,2.6-0.3
		c0.9-0.1,1.8-0.3,2.7-0.3c0.9,0,1.9,0.1,2.8,0.4c0.4,0.2,0.9,0.3,1.3,0.6c0.4,0.3,0.8,0.7,1,1.1C28.8,12.2,28.9,13.2,28.7,14.1
		L28.7,14.1z"/>
</g>
    <g>
	<g>
		<path class="st3" d="M17.2,18.6c0,0-0.1,0.1-0.1,0.1c0,0,0.2-0.1,0.3-0.1c0.4-0.2,0.7-0.2,0.6-0.2c0,0-0.6,0.2-1.4,0.1
			c-0.2,0-0.4-0.1-0.5-0.1c-0.1,0-0.5-0.2-1-0.5c-0.6-0.4-0.8-0.7-1.4-1c-0.2-0.1-0.3-0.1-0.4-0.1c-0.3,0.1-0.5,0.3-0.7,0.5
			c-0.1,0.1-0.2,0.1-0.3,0.1c-0.4-0.1-0.6-1.5,0-2.5c0.2-0.3,0.3-0.4,0.4-0.5c0.2,0.1,0.7,0.4,1.4,0.3c0.2-0.1,0.3-0.1,0.5-0.3
			c0.2-0.1,1-0.7,1.2-1.7c0-0.1,0-0.2,0-0.3c-0.2-0.5-0.3-1.1-0.9-1.3c0,0,0,0,0,0c-0.1,0-0.2,0-0.3-0.1c0,0,0,0-0.1,0
			c-0.1,0-0.2,0-0.3-0.1c-0.1,0-0.1,0-0.2,0c0,0-0.1,0-0.1,0c-0.1,0-0.1,0-0.1,0c0,0,0,0,0,0c-0.6,0-1.2,0.1-1.6,0.5
			c-0.4,0.4-0.7,0.9-0.6,1.5c0,0.3,0.3,0.7,0.3,0.7c-0.6,1.5-0.7,2.2-0.7,2.2c0,0.4,0,0.9,0.3,1.5c0.1,0.2,0.2,0.3,0.2,0.5
			c0,0,0.1,0,0.1,0c0.1,0.8,0.3,1.6,0.4,2.4c0.1,0.4,0.4,0.8,0.7,0.9c0,0,0.1,0,0.1,0c0.2,0,0.5,0.1,0.7,0.2c0,0,0,0,0.1,0.1
			c0.1,0,0.3,0,0.4,0.1c0.1-0.1,0.2-0.1,0.3-0.1c0.5,0.1,1.5-0.9,1.5-0.9c1.3-1.3,2.1-1.8,2-2C18,18.2,17.5,18.4,17.2,18.6z
			 M14.3,11.4c0.1,0.1,0.2,0.2,0.2,0.2c0,0.1-0.1,0.3-0.2,0.4c-0.1-0.1-0.2-0.2-0.2-0.2C14.2,11.8,14.3,11.6,14.3,11.4z M13.2,19.5
			c0,0.3-0.1,0.5-0.4,0.5c0,0-0.2-0.1-0.2-0.3c-0.1-0.6-0.2-1.2-0.2-1.8c0-0.2,0.1-0.3,0.2-0.3c0.4,0,0.4-0.1,0.4-0.1
			c0.2,0.1,0.3,0.4,0.3,0.4C13.4,18.3,13.3,18.4,13.2,19.5z M14.7,20.1c-0.2,0.3-0.4,0.4-1.1,0.2c-0.1-0.1-0.2-0.2-0.2-0.4
			c0.1-0.6,0.2-1.2,0.3-1.8c0-0.2,0.2-0.2,0.5-0.2c0.8,0.2,0.8,0.1,0.8,0.2c0.3,0.2,0.4,0.5,0.4,0.6C15.4,19.1,15.2,19.1,14.7,20.1z
			"/>
	</g>
</g>
    <path class="st5" d="M14.7,20.9c-0.3,2,0.3,2.9,1,3.4c0.7,0.5,1.6,0.7,2.3,1.5c0.4,0.5,0.6,0.9,0.7,1.2"/>
    <path class="st1" d="M29,12.9"/>
    <g>
	<g>
		<path class="st3" d="M22.4,14.4c-0.7,0-1.4-0.5-1.6-1c0,0,0-0.1,0-0.2c0.4-0.5,1.6-0.8,2.2-0.3c0.3,0.2,0.3,0.6,0.5,0.9
			c0,0.1-0.2,0.3-0.3,0.3C22.9,14.3,22.7,14.4,22.4,14.4z"/>
	</g>
</g>
    <g>
	<circle class="st6" cx="22.6" cy="13.6" r="0.5"/>
</g>
    <path class="st1" d="M16.7,28.8"/>
    <path class="st1" d="M9.6,32.8"/>
    <path class="st1" d="M15.4,45.4"/>
    <line class="st7" x1="19.1" x2="19" y1="27.1" y2="26.9"/>
    <path class="st7" d="M18.7,26.8l-0.1-0.3c0.1,0.2,0.2,0.4,0.3,0.6"/>
    <path class="st1" d="M17.5,27.5"/>
    <g>
	<path class="st0" d="M25,32.5l-1.8,0.7c-0.6,0.2-1.2,0.4-1.9,0.6c-1.3,0.3-2.6,0.5-3.9,0.6c-1.3,0.1-2.6,0.1-4-0.1
		c-1.3-0.2-2.7-0.6-3.7-1.6l0,0l-0.1-0.2l0,0c0,0,0-0.1,0.1-0.2c0.1-0.1,0.2-0.1,0.2-0.1l0,0l0,0l0.1,0l0.1,0l0.3,0l0.5,0l0.3,0
		c0,0,0.1,0,0.1,0c0,0,0,0,0,0c0,0-0.2,0.1-0.2,0.2c0,0.1,0,0.2,0.1,0.3c0,0,0,0,0,0c-0.1,0-0.3-0.1-0.4-0.2l-0.5-0.2l-0.3-0.1
		c-0.1,0-0.1,0-0.2-0.1c0,0,0,0-0.1-0.1c0,0-0.1,0-0.2-0.3c0-0.1,0-0.2,0.1-0.2c0.1-0.1,0.1-0.1,0.1-0.1c0,0,0.1,0,0.1-0.1
		c0.1,0,0.1,0,0.2,0c0.1,0,0.2,0,0.3,0l0.6,0l0.5,0c0.1,0,0.2,0,0.2,0l0,0c0,0-0.2,0.1-0.2,0.3c0,0.1,0,0.3,0.1,0.3l0,0
		c0,0,0,0-0.1,0c-0.3-0.1-0.7-0.2-1.1-0.3l-0.3-0.1c-0.1,0-0.2,0-0.4-0.2c0,0,0,0-0.1-0.1c-0.1-0.1-0.1-0.2-0.1-0.3
		c0-0.1,0.1-0.2,0.2-0.3c0.1,0,0.1,0,0.1-0.1c0.1-0.1,0.2,0,0.2-0.1c0.1,0,0.2,0,0.3,0c0.4,0,0.8,0,1.1-0.1c0,0,0,0,0,0
		c0,0-0.1,0.1-0.1,0.1c0,0.1,0,0.1,0,0.2c0,0,0,0.1,0.1,0.1l0,0c0,0,0,0,0,0c0,0-0.1,0-0.2-0.1C11.3,31,11.1,31,11,30.9
		c-0.2-0.1-0.4-0.1-0.6-0.2c-0.1,0-0.1,0-0.2-0.1l0,0c0,0-0.1-0.1-0.1-0.1c0-0.1,0-0.1,0-0.2c0-0.1,0.1-0.2,0.1-0.2
		c0.1,0,0.1-0.1,0.1-0.1l0.1,0c0.2,0,0.2,0,0.3,0c0.8,0,1.5,0,2.3,0.1c1.5,0.1,3,0.3,4.4,0.5l0,0.1l-4.4,0c-0.7,0-1.5,0-2.2,0
		c-0.1,0-0.2,0-0.2,0l0,0c0,0,0,0,0.1,0c0.1,0,0.1-0.1,0.1-0.2c0-0.1,0-0.1,0-0.2c0-0.1-0.1-0.1-0.1-0.1l0,0c0,0,0,0,0,0
		c0.1,0,0.3,0.1,0.5,0.1c0.2,0,0.4,0.1,0.6,0.2c0.1,0,0.2,0.1,0.3,0.2c0,0,0.1,0,0.1,0.1l0,0c0,0,0.1,0.1,0.1,0.1c0,0.1,0,0.2,0,0.3
		c0,0.1-0.1,0.2-0.2,0.2c-0.1,0.1-0.2,0.1-0.3,0.1c-0.4,0.1-0.8,0.1-1.2,0.1l-0.2,0c0,0-0.1,0,0,0l0,0c0.1-0.1,0.1-0.2,0.1-0.3
		c0-0.1,0-0.2-0.1-0.3l0,0c0,0,0.1,0,0.1,0.1l0.2,0.1c0.4,0.1,0.7,0.2,1.1,0.3c0.1,0,0.1,0,0.2,0.1l0.1,0c0.1,0.1,0.2,0.3,0.2,0.4
		c0,0.1-0.2,0.3-0.3,0.3l-0.1,0c-0.2,0-0.3,0-0.4,0l-0.6,0l-0.5,0c-0.1,0-0.2,0-0.2,0l-0.1,0c0,0,0,0,0,0c0,0,0.1,0,0.1-0.1
		c0-0.1,0-0.1,0-0.2c0-0.2-0.1-0.2-0.1-0.2c0,0,0,0,0,0c0,0,0.1,0,0.1,0l0.2,0.1l0.5,0.2c0.2,0.1,0.3,0.1,0.6,0.3l0.1,0.1
		c0.1,0.1,0.1,0.3,0.1,0.4c0,0.1-0.2,0.2-0.2,0.2l-0.1,0c-0.1,0-0.1,0-0.2,0c-0.1,0-0.2,0-0.3,0l-0.6-0.1l-0.3,0l-0.1,0l-0.1,0l0,0
		l0,0c0,0,0.1,0,0.2-0.1c0.1-0.1,0.1-0.1,0.1-0.2l0,0l-0.1-0.2l0,0c0.8,0.9,2.1,1.3,3.3,1.5c1.3,0.2,2.6,0.3,3.9,0.2
		c1.3,0,2.6-0.2,3.9-0.5c0.6-0.1,1.3-0.3,1.9-0.5L25,32.5L25,32.5z"/>
</g>
    <g>
	<path class="st1" d="M29.8,17.4c-0.1-0.3-0.2-0.5-0.2-0.6c-0.1-0.1-0.1-0.2-0.1-0.3c0-0.2,0-0.4,0.1-1l0.1-0.1
		c0.3,0.2,0.5,0.6,0.5,1C30.2,16.8,30.1,17.2,29.8,17.4L29.8,17.4z"/>
</g>
    <path class="st1" d="M24.5,48.9"/>
    <g>
	<line class="st8" x1="36.6" x2="39.9" y1="45.3" y2="53"/>
        <line class="st8" x1="39.1" x2="42.8" y1="44.3" y2="52.7"/>
        <line class="st8" x1="42.4" x2="45.3" y1="44.8" y2="51.6"/>
        <line class="st8" x1="49.1" x2="34" y1="46.6" y2="53.1"/>
        <line class="st8" x1="48.5" x2="33.4" y1="45.2" y2="51.7"/>
        <line class="st8" x1="47.9" x2="32.8" y1="43.8" y2="50.3"/>
        <line class="st8" x1="34" x2="37" y1="45.9" y2="53"/>
        <line class="st8" x1="50.5" x2="39" y1="48.2" y2="53.1"/>
        <line class="st8" x1="40.3" x2="31.8" y1="44.7" y2="48.3"/>
        <line class="st8" x1="45" x2="47.6" y1="45" y2="51"/>
</g>
    <path class="st1" d="M8,53"/>
    <g>
	<path class="st9" d="M65.1,45.1c-0.1-0.1-0.2-0.2-0.3-0.2c-0.1,0-0.3,0.2-0.7,0.6c-0.4,0.4-0.9,0.9-1.5,1.4
		c-0.6,0.5-1.4,0.9-2.3,1.3c-0.9,0.4-1.8,0.5-2.8,0.4c-1.4-0.1-2.4-0.7-3-1.6c-0.6-0.9-0.9-2.1-0.9-3.4c0-1.7,0.3-3.6,0.9-5.8
		c0.6-2.2,1.3-4.3,1.9-6.2c1.9-0.1,3.3-0.2,4.4-0.3c1.1-0.1,1.6-0.3,1.6-0.7c0-0.1-0.1-0.2-0.2-0.3c-0.1-0.1-0.3-0.1-0.7-0.2
		c-0.4-0.1-0.9-0.1-1.6-0.1c-0.7,0-1.7-0.1-2.9-0.2c1.2-3.2,2.5-6.2,3.8-9c1.3-2.8,2.5-5.2,3.5-7.1c0.1-0.1,0.1-0.4,0.1-0.8v-0.9
		c0-1.8-0.2-2.7-0.5-3c-0.3-0.2-0.9-0.3-1.6-0.3c-1.1,0-2.4,0.4-3.9,1.2c-1.5,0.8-3.1,2-4.7,3.7c-1.6,1.7-3.3,3.7-4.9,6.2
		c-1.6,2.5-3.2,5.4-4.6,8.7c-1-0.1-2-0.2-2.9-0.3c-0.5,1.4-0.7,2.8-0.9,4.2c0.6,0,1.3-0.1,2-0.1c-0.9,2.1-1.9,4.3-3,6.4
		c-1.1,2.1-2.3,4-3.6,5.7c-1.3,1.6-2.7,3-4.2,4c0,1.3,0.1,2.7,0.1,4c1.5-0.7,2.8-1.6,4.1-2.8c1.7-1.6,3.2-3.4,4.5-5.4
		c1.3-2,2.5-4,3.5-6.2c1-2.1,2-4.1,2.8-5.9c2.1-0.1,4.1-0.2,6.1-0.3c-0.5,1.9-0.9,3.9-1.2,6c-0.3,2-0.5,4.2-0.5,6.6
		c0,1,0.2,1.9,0.6,2.7c0.4,0.8,0.9,1.5,1.4,2.1c0.6,0.6,1.2,1,1.9,1.4c0.7,0.3,1.3,0.5,1.9,0.5c1.2,0,2.4-0.3,3.4-0.8
		c1-0.6,1.9-1.2,2.7-1.9c0.8-0.7,1.3-1.4,1.7-1.9c0.3-0.4,0.4-0.7,0.5-0.8C65.2,45.4,65.2,45.3,65.1,45.1z M51,29.1
		c-0.8,0-1.7-0.1-2.6-0.2c1.4-2.6,2.8-5,4.3-7.2c1.5-2.2,3.1-3.9,4.7-5.2c-0.7,1.7-1.4,3.6-2.1,5.8c-0.7,2.2-1.4,4.5-2,7
		C52.7,29.2,51.9,29.1,51,29.1z"/>
        <path class="st9" d="M42.3,32.4c0.5,0,1.1,0,1.7,0c0.1-1.2,0.2-2.4,0.5-3.5c0.1-0.3,0.2-0.7,0.3-1c-1.2-0.1-2.4-0.2-3.6-0.4
		c-1.4-0.2-2.5-0.3-3.6-0.5c-1-0.2-1.8-0.4-2.3-0.7c-0.1,0.1-0.1,0.3-0.1,0.4v0.9c0,1.1,0.1,2,0.2,2.6c0.2,0.7,0.4,1.1,0.6,1.4
		c0.3,0.3,0.6,0.5,1,0.6c0.4,0.1,0.9,0.2,1.5,0.2H42.3z"/>
        <path class="st9" d="M75.3,17.5c-0.4,0.9-1,2.6-2,5.1c-1,2.5-2,5.2-3.1,8.2c-1.1,3-2,5.9-2.8,8.7c-0.8,2.9-1.2,5.1-1.2,6.7
		c0,1.4,0.4,2,1.3,2c0.9,0,2-0.7,3.3-2c1.3-1.3,2.5-3.5,3.5-6.5l0.2-0.1c0.2,0,0.3,0.1,0.5,0.3l0.2,0.2c0-0.1-0.1,0.4-0.4,1.5
		c-0.2,1.1-0.7,2.4-1.2,3.8c-0.6,1.4-1.4,2.7-2.5,3.9c-1,1.2-2.4,1.8-4.1,1.8c-0.4,0-0.9-0.1-1.3-0.2c-0.5-0.2-0.9-0.5-1.3-0.9
		c-0.4-0.5-0.8-1.1-1.1-1.9c-0.3-0.8-0.4-1.8-0.4-3.1c0-2.3,0.3-4.9,1-7.9c0.7-3,1.4-6,2.3-8.9c0.9-2.9,1.7-5.5,2.5-7.8
		c0.8-2.3,1.3-3.9,1.6-4.8l0.5-2c0.2-0.6,0.3-1.2,0.4-1.8c0.1-0.6,0.2-1.1,0.2-1.5c0.1,0.1,0.4,0.2,0.9,0.4c0.5,0.2,1,0.5,1.5,0.9
		c0.5,0.4,1,0.9,1.4,1.4c0.4,0.6,0.6,1.2,0.6,2C75.7,16,75.5,16.7,75.3,17.5z"/>
        <path class="st9" d="M75,65.9C74.8,66,74.5,66,74.2,66c-0.9,0-1.7-0.2-2.2-0.7c-0.5-0.5-0.9-1-1.2-1.7c-0.3-0.7-0.4-1.3-0.5-2.1
		c-0.1-0.7-0.1-1.4-0.1-2c0-2.1,0.2-4.5,0.7-7.1c0.4-2.6,1-5.2,1.6-7.8c0.6-2.6,1.3-5.1,1.9-7.5c0.7-2.4,1.2-4.5,1.7-6.2
		c-1-2.1-1.7-3.6-2.2-4.5c-0.5-0.9-0.7-1.5-0.7-1.7c0-0.1,0.1-0.2,0.2-0.3c0.1-0.1,0.2-0.1,0.3-0.1c0.6,0.1,1.3,0.2,2,0.3
		c0.7,0.1,1.5,0.2,2.2,0.3c0.7-2.1,1.2-3.9,1.6-5.3c0.4-1.4,0.8-2.7,1.2-4l0.5-2c0.2-0.6,0.3-1.2,0.4-1.8c0.1-0.6,0.2-1.1,0.2-1.5
		c0.1,0.1,0.4,0.2,0.9,0.4c0.5,0.2,1,0.5,1.5,0.9c0.5,0.4,1,0.9,1.4,1.4c0.4,0.6,0.6,1.2,0.6,1.9c0,0.6-0.1,1.3-0.4,2.1
		c-0.2,0.8-0.5,1.7-0.9,2.6c-0.3,0.9-0.7,1.9-1.1,2.9c-0.4,1-0.7,2-1.1,3c1.8,0.2,2.9,0.3,3.5,0.4c0.6,0.1,0.9,0.2,0.9,0.3
		c0,0.2-0.5,0.3-1.4,0.3c-1,0-2.1,0.1-3.5,0.1c-0.5,1.3-0.9,2.6-1.4,3.9c-0.4,1.3-0.9,2.7-1.4,4.2c0.4,0.9,0.8,1.9,1.3,3.1
		c0.5,1.1,0.9,2.4,1.4,3.7c0.4,1.3,0.8,2.7,1.1,4.2c0.3,1.5,0.4,3.2,0.4,4.9c0,2.5-0.4,4.7-1.1,6.6c-0.7,1.9-1.6,3.4-2.5,4.6
		c-1,1.2-1.9,2.1-3,2.8C76.4,65.5,75.6,65.8,75,65.9z M74.3,57.4c-0.1,0.4-0.1,0.8-0.1,1.2c0,0.4,0,0.9,0,1.3c0,0.6,0.1,1.1,0.2,1.5
		c0.1,0.4,0.4,0.6,0.8,0.6c1.1,0,2-0.5,2.8-1.4c0.8-0.9,1.5-2.1,2-3.4c0.5-1.3,0.9-2.7,1.2-4.1c0.3-1.4,0.4-2.6,0.4-3.6
		c0-2.2-0.3-4.3-0.8-6.4c-0.5-2-1.1-3.9-1.8-5.6c-1,3.1-1.9,6.4-2.8,9.8C75.4,50.7,74.7,54.1,74.3,57.4z M75.9,27.4
		c0.2,0.3,0.3,0.5,0.5,0.7c0.2,0.2,0.3,0.5,0.5,0.8c0.1-0.3,0.2-0.7,0.3-1c0.1-0.4,0.2-0.7,0.3-1c-0.4,0-0.8,0-1.1,0
		c-0.3,0-0.5,0.1-0.5,0.2C75.7,27.2,75.8,27.3,75.9,27.4z"/>
        <path class="st9" d="M103.9,39.8c0.3,0.2,0.4,0.3,0.4,0.4c0,0.1-0.2,0.8-0.5,1.9c-0.3,1.2-0.8,2.4-1.5,3.8
		c-0.7,1.3-1.4,2.6-2.3,3.7c-0.9,1.1-1.9,1.7-3.1,1.7c-1,0-1.9-0.6-2.8-1.8c-0.9-1.2-1.3-3-1.3-5.3c0-1.9,0.2-3.8,0.7-5.8
		c0.4-2,0.9-3.9,1.5-5.7c-0.6,0.1-1.1,0.2-1.7,0.2c-0.5,0-1.1,0.1-1.7,0.1c-0.2,0-0.4,0-0.6,0c-0.2,0-0.4,0-0.7-0.1
		c-0.7,1.5-1.4,2.9-2,4.2c-0.6,1.3-1.1,2.4-1.5,3.3c-0.5,1.1-1,2.1-1.4,3c-0.1,0-0.1,0-0.2-0.1c-0.1-0.1-0.1-0.1-0.2-0.1L85,43
		c0.1-0.2,0.2-0.7,0.5-1.5c0.3-0.8,0.6-1.7,0.9-2.8c0.3-1.1,0.7-2.3,1.1-3.5c0.4-1.2,0.7-2.4,1.1-3.4c-0.9-0.7-1.5-1.6-1.8-2.6
		c-0.3-1-0.5-1.9-0.5-2.6c0-0.7,0.1-1.3,0.2-1.6c0.1-0.4,0.4-0.5,0.8-0.5c0.2,0,0.5,0,1,0.1c0.4,0.1,0.9,0.2,1.4,0.3
		c0.5,0.1,0.9,0.3,1.3,0.4c0.4,0.2,0.7,0.3,0.8,0.4c-0.2,0.5-0.3,0.7-0.3,0.8c-0.1,0.1-0.1,0.2-0.2,0.3c0,0.1,0.1,0.2,0.4,0.3
		c0.2,0.1,0.5,0.1,0.9,0.2c0.3,0.1,0.7,0.1,1.1,0.1c0.4,0,0.8,0,1.2,0h2.2c-0.1,0.1,0,0,0.2-0.4c0.2-0.4,0.4-0.9,0.7-1.5
		c0.3-0.6,0.5-1.2,0.7-1.9c0.2-0.7,0.4-1.3,0.5-1.9c0.1,0,0.3,0.1,0.6,0.4c0.4,0.3,0.8,0.7,1.2,1.1c0.4,0.5,0.8,1,1.2,1.5
		c0.4,0.6,0.5,1.1,0.5,1.7c0,0.3,0,0.5,0,0.7c0,0.2-0.1,0.5-0.1,0.8c-0.4,1-0.9,2.3-1.6,3.7c-0.7,1.4-1.3,2.9-1.9,4.5
		c-0.6,1.6-1.2,3.1-1.6,4.7c-0.4,1.6-0.7,3.1-0.7,4.5c0,0.7,0.1,1.3,0.2,1.8c0.1,0.5,0.4,0.7,0.8,0.7c0.7,0,1.6-0.7,2.7-2
		c1.1-1.3,2.2-3.5,3.2-6.5l0.2-0.1C103.7,39.7,103.8,39.7,103.9,39.8z"/>
        <path class="st9" d="M120.6,39.7c0.2,0.1,0.3,0.2,0.3,0.4c0,0.1-0.2,0.7-0.6,1.9c-0.4,1.2-1.1,2.5-2.1,3.9c-1,1.4-2.3,2.7-3.9,3.8
		c-1.6,1.2-3.6,1.8-5.9,1.8c-1.4,0-2.6-0.4-3.5-1.3c-0.9-0.8-1.6-1.9-2.1-3c-0.5-1.2-0.8-2.4-1.1-3.6c-0.2-1.2-0.3-2.2-0.3-3
		c0-1.9,0.3-3.8,0.9-5.7c0.6-1.9,1.4-3.5,2.3-5c0.9-1.5,1.9-2.6,3.1-3.5c1.1-0.9,2.3-1.3,3.4-1.3c1.5,0,2.7,0.2,3.5,0.7
		c0.8,0.5,1.4,1.1,1.8,1.7c0.4,0.7,0.6,1.3,0.7,1.9c0.1,0.7,0.1,1.1,0.1,1.5c0,1.8-0.3,3.3-0.9,4.5c-0.6,1.2-1.3,2.1-2.1,2.8
		c-0.9,0.7-1.8,1.2-2.8,1.5c-1,0.3-1.9,0.4-2.7,0.4c-0.9,0-1.6-0.1-2.2-0.3c-0.6-0.2-1-0.5-1.3-0.8c-0.3,1.2-0.4,2.2-0.4,3
		c0,0.8,0.1,1.5,0.2,2.3c0.2,0.7,0.4,1.4,0.8,2c0.4,0.6,0.9,1.1,1.6,1.4c0.6,0.4,1.5,0.5,2.5,0.5c1.7,0,3.1-0.4,4.4-1.2
		c1.3-0.8,2.4-1.7,3.3-2.8c0.9-1,1.5-2,2-2.9c0.4-0.9,0.7-1.4,0.7-1.5v-0.1h0.1l0.2-0.1c0.1,0,0.1,0,0.1,0
		C120.5,39.7,120.5,39.7,120.6,39.7z M106.9,34.5c-0.5,0.7-1,1.7-1.4,2.8c1.1,0.3,2.1,0.3,3,0c0.9-0.4,1.6-0.9,2.2-1.6
		c0.6-0.7,1-1.4,1.2-2.2c0.3-0.8,0.3-1.4,0.2-1.8c0-0.2-0.6-0.3-1.8-0.3c-0.4,0-1,0.3-1.6,0.8C108,32.9,107.4,33.6,106.9,34.5z"/>
        <path class="st9" d="M139.5,46.6c-0.2,0.4-0.5,0.8-0.8,1.4c-0.3,0.5-0.8,1-1.2,1.5c-0.5,0.5-1.1,0.9-1.7,1.2
		c-0.6,0.3-1.3,0.5-2.1,0.5c-0.6,0-1.3-0.2-2.1-0.6c-0.8-0.4-1.3-1.3-1.6-2.5c-0.4,0.5-1.1,1.2-2.1,2c-1,0.8-2.2,1.3-3.5,1.3
		c-1.1,0-2.1-0.3-2.9-1c-0.8-0.7-1.4-1.5-1.9-2.5c-0.5-1-0.8-2-1-3.2c-0.2-1.1-0.3-2.2-0.3-3.2c0-1.6,0.3-3.3,0.8-5.2
		c0.5-1.9,1.3-3.7,2.3-5.4c1-1.7,2.2-3.1,3.6-4.2c1.4-1.1,3-1.7,4.7-1.7c0.8,0,1.5,0.1,2.1,0.3c0.6,0.2,1.2,0.5,1.7,0.8
		c0.8-2.5,1.5-4.6,2.1-6.4c0.6-1.8,1.1-3.1,1.4-4l0.5-2c0.2-0.6,0.3-1.2,0.4-1.8c0.1-0.6,0.2-1.1,0.2-1.5c0.1,0.1,0.4,0.2,0.9,0.4
		c0.5,0.2,1,0.5,1.5,0.9c0.5,0.4,1,0.9,1.4,1.4c0.4,0.6,0.6,1.2,0.6,1.9c0,0.3,0,0.7-0.1,1.1c-0.1,0.4-0.2,0.8-0.3,1.4
		c-0.4,1-1,2.8-2,5.3c-1,2.5-2,5.2-3.1,8.1c-1.1,2.9-2,5.8-2.8,8.6c-0.8,2.8-1.2,5.1-1.2,6.7c0,1.4,0.4,2,1.3,2c0.9,0,2-0.7,3.3-2
		c1.3-1.3,2.5-3.5,3.5-6.5l0.2-0.1c0.2,0,0.4,0.1,0.5,0.3l0.2,0.2c0,0.3-0.2,1-0.5,2.2C141,43.6,140.4,45,139.5,46.6z M129.7,46.3
		c-0.2-1.8,0-4,0.4-6.5c0.4-2.5,1-5.1,1.7-7.8c-0.7-0.7-1.5-1.1-2.5-1.3c-0.9-0.1-1.9,0.2-3,0.9c-1.4,1-2.6,2.6-3.6,4.6
		c-1.1,2-1.6,4.2-1.7,6.4c-0.2,1.3-0.1,2.4,0.3,3.4c0.4,1,1,1.7,1.7,2.2c0.7,0.5,1.5,0.8,2.3,0.8c0.8,0,1.5-0.3,2.1-0.9
		c0.5-0.3,0.9-0.6,1.3-0.9C129.1,46.9,129.4,46.6,129.7,46.3z"/>
</g>
    <g>
	<path class="st3" d="M44.8,14.2c0,0.1,0,0.1,0.1,0.2L44.8,14.2c0,0.1,0,0.1,0,0.1c0,0,0,0,0,0.1l0.1,0.2c0,0,0,0,0,0
		c0,0,0,0.1,0,0.1c0,0,0,0.1,0,0.1l0,0l0,0c0,0,0,0,0,0c0,0,0,0,0,0c0,0,0,0,0,0c0,0,0,0,0,0l-0.1,0c0,0,0,0,0.1,0c0,0,0,0.1,0,0.1
		c0,0,0.1,0.1,0.1,0.1l0,0c0,0,0,0,0,0.1c0,0,0,0.1,0,0.1c0,0,0,0,0,0.1c0,0,0,0,0,0c0,0,0,0,0,0c0,0,0,0,0,0c0,0,0,0,0,0
		c0,0,0,0,0,0c0,0,0,0,0,0l0,0l0,0.1c0,0,0,0,0,0c0,0,0,0,0,0c0,0,0,0,0,0c0,0,0,0,0.1,0l0-0.2c0-0.1,0-0.1,0-0.1c0,0,0,0,0,0
		c0-0.1,0-0.1-0.1-0.1l0,0c0,0-0.1,0,0-0.1c0,0,0,0,0,0c0-0.1-0.1-0.1-0.1-0.2c0-0.1-0.1-0.1-0.1-0.2c0,0.1,0.1,0.2,0.1,0.3
		c0,0.1,0.1,0.2,0.1,0.3c0-0.3,0-0.6,0-0.9c0-0.3,0-0.6,0-0.9c0-0.6,0-1.1,0-1.7c0-0.6,0-1.1,0.1-1.7c0-0.1,0-0.3,0.1-0.4
		c0-0.1,0-0.3,0.1-0.4c0-0.1,0-0.2,0.1-0.4c0-0.1,0.1-0.2,0.2-0.3c0,0,0.1-0.1,0.1-0.1c0,0,0.1-0.1,0.1-0.1c0,0,0.1,0,0.2,0
		c0.2-0.1,0.4-0.1,0.6-0.1c0.2,0,0.3,0.1,0.4,0.2c0.1,0.1,0.2,0.2,0.2,0.3c0,0,0.1,0.1,0.1,0.1c0,0,0,0.1,0.1,0.2
		c0,0.2,0.1,0.3,0.1,0.5c0,0.2,0,0.3,0.1,0.5c0,0.1,0,0.2,0,0.4c0,0.1,0,0.3,0,0.4l0.1,0.2c0,0.1,0,0.2,0,0.2c0,0.1,0,0.1,0,0.2
		c0,0,0,0,0,0.1c0,0,0,0,0,0.1c0,0.3,0.1,0.5,0.1,0.8c0,0.3,0.1,0.5,0.1,0.7l0,0c0,0.1,0,0.2,0.1,0.3c0,0.1,0.1,0.2,0.1,0.3
		c0,0.1,0,0.1,0,0.2c0,0.1,0,0.1,0.1,0.2c0,0,0,0,0,0.1c0,0,0,0,0,0c0,0,0,0,0,0c0,0.1,0,0.1,0.1,0.2c0,0.1,0,0.1,0.1,0.2
		c0,0,0,0,0,0c0,0,0,0,0,0c0,0.1,0,0.1,0.1,0.2c0,0.1,0,0.1,0.1,0.2c0,0,0,0,0,0c0,0,0,0,0,0.1c0,0,0,0,0,0c0,0,0,0,0,0
		c0,0.1,0,0.1,0,0.2c0,0.1,0.1,0.1,0.1,0.2c0,0,0,0.1,0,0.1c0,0,0,0,0,0c0,0,0,0,0,0.1c0,0,0,0,0,0c0,0,0,0,0,0c0,0,0,0.1,0,0.1
		c0,0,0,0.1,0.1,0.1c0,0,0,0.1,0.1,0.1c0,0,0,0,0,0c0,0,0,0,0,0c0,0,0,0,0,0c0,0,0,0,0,0l0,0l0,0c0,0.1,0.1,0.1,0.1,0.2
		c0,0.1,0.1,0.1,0.2,0.2L49,16.4l0,0c0,0,0,0,0-0.1c0,0,0,0,0-0.1c0,0,0,0,0,0c0,0,0,0-0.1-0.1c0.1,0.1,0.1,0.2,0.2,0.3
		c0.1,0.1,0.1,0.2,0.2,0.3c0,0,0-0.1,0-0.1c0,0,0-0.1,0-0.1c0.1,0.1,0.1,0.1,0.1,0.2c0,0.1,0.1,0.1,0.1,0.1c0,0,0,0,0,0c0,0,0,0,0,0
		c0,0,0,0,0,0c0,0,0,0,0,0c0,0,0,0,0,0c0,0,0,0,0,0c0,0,0-0.1,0-0.1c0,0,0,0-0.1-0.1l-0.1-0.1c0,0,0.1,0,0.1,0.1
		c0,0.1,0.1,0.1,0.1,0.1c0,0,0,0,0,0c0,0,0,0,0,0c0,0,0,0,0,0c0,0,0,0,0,0c0,0,0,0,0,0c0,0,0,0,0,0c0,0,0,0,0.1,0c0,0,0,0,0,0
		c0,0,0,0,0,0c0,0,0,0,0,0c0,0,0,0,0.1,0.1c0,0,0,0,0,0.1c0,0,0,0,0,0c0,0,0,0,0,0c0,0-0.1,0.1-0.1,0.1c-0.1,0-0.1,0.1,0,0.1
		c0,0,0,0.1,0,0.1c0,0,0,0.1,0,0.1c0,0,0,0.1,0,0.1c0,0,0,0.1,0,0.1c0,0,0,0,0,0c0,0,0,0,0,0c0,0,0,0-0.1,0c0,0,0,0,0,0
		c0,0,0,0-0.1,0c0,0-0.1,0-0.1,0c0,0,0,0-0.1,0c-0.1-0.1-0.3-0.2-0.4-0.3c-0.1-0.1-0.2-0.3-0.3-0.4c-0.1-0.1-0.2-0.3-0.3-0.4
		c-0.1-0.1-0.2-0.3-0.2-0.4c-0.2-0.3-0.3-0.6-0.4-1c-0.1-0.3-0.3-0.7-0.4-1c-0.1-0.5-0.2-0.9-0.3-1.4c-0.1-0.5-0.2-1-0.3-1.4
		c0-0.1,0-0.1,0-0.2c0-0.1,0-0.1,0-0.2c0-0.1,0-0.3-0.1-0.5c0-0.2,0-0.3-0.1-0.5c0-0.2-0.1-0.3-0.1-0.5c0-0.1-0.1-0.3-0.2-0.4
		c0,0-0.1,0.1-0.1,0.1c0,0.1,0,0.1,0,0.2c0,0.1-0.1,0.2-0.1,0.3c0,0.1-0.1,0.2-0.1,0.4c0,0.2,0,0.3,0,0.5c0,0.2,0,0.3,0,0.5
		c0,0.2,0,0.3,0,0.5c0,0.2,0,0.3,0,0.5c0,0.1,0,0.2,0,0.3c0,0.1,0,0.2,0,0.3c0,0.1,0,0.2,0,0.3c0,0.1,0,0.2,0,0.3c0,0.1,0,0.1,0,0.2
		c0,0,0,0.1,0,0.2c0,0.1,0,0.1,0,0.2c0,0.1,0,0.1,0,0.2c0,0.1,0,0.2,0,0.4c0,0.1,0,0.2,0,0.4c0,0.1,0,0.2,0.1,0.3
		c0,0.1,0,0.2,0.1,0.3c0,0.1,0,0.2,0,0.3c0,0.1,0,0.2,0,0.4c0,0.2,0,0.4-0.1,0.5c0,0.1-0.2,0.3-0.3,0.4c0,0-0.1,0-0.1,0.1
		c0,0-0.1,0-0.1,0c0,0-0.1,0-0.1,0c0,0-0.1,0-0.1,0c-0.1,0-0.1,0-0.2,0c0,0,0,0,0,0c0,0,0,0,0,0c0,0,0,0,0,0c0,0,0,0,0,0
		c0,0,0,0-0.1,0c0,0-0.1,0-0.1,0c0,0,0,0,0,0c0,0,0,0,0,0c-0.1-0.2-0.2-0.3-0.3-0.5c-0.1-0.2-0.2-0.3-0.2-0.5
		c-0.1-0.3-0.2-0.5-0.3-0.8c-0.1-0.3-0.2-0.6-0.3-0.9c0-0.1-0.1-0.2-0.1-0.3s-0.1-0.2-0.1-0.3c-0.1-0.3-0.1-0.6-0.2-0.9
		c-0.1-0.3-0.1-0.6-0.2-0.9c0-0.1,0-0.2-0.1-0.2c0-0.1,0-0.2-0.1-0.2c0-0.1-0.1-0.2-0.1-0.4c0-0.1-0.1-0.2-0.2-0.3
		c-0.1,0.1-0.1,0.1-0.1,0.2c0,0.1-0.1,0.2-0.1,0.3c0,0.2,0,0.4-0.1,0.6c0,0.2,0,0.4,0,0.6l0,0.3l0,0.3c0,0,0,0.1,0,0.1
		c0,0,0,0,0,0.1l0,0.2l0,0.1c0,0.1,0,0.3,0,0.4c0,0.1,0,0.3,0,0.4c0,0,0,0.1,0,0.1c0,0.2,0,0.3,0,0.5c0,0.1,0,0.2,0,0.3
		c0,0.1,0.1,0.2,0.1,0.3c0,0.2,0.1,0.4,0.1,0.6c0,0.2,0.1,0.4,0.1,0.6c0,0.1,0,0.2,0.1,0.2c0,0.1,0.1,0.1,0.1,0.2
		c0,0.1,0.1,0.3,0.1,0.4c0,0.1,0,0.2,0.1,0.4c0,0,0,0,0,0.1c0,0,0,0,0,0c0,0,0,0,0,0.1c0,0,0,0,0,0c0,0.1,0,0.1,0,0.2
		c0,0,0,0.1,0,0.2c0,0,0,0.1,0,0.1c0,0,0,0,0,0.1c0,0.1,0,0.1,0,0.1c0,0,0,0.1-0.1,0.1c0,0-0.1,0.1-0.1,0.1c0,0-0.1,0.1-0.1,0.1
		c0,0,0,0-0.1,0c0,0,0,0-0.1,0c-0.1,0-0.2-0.1-0.2-0.1c-0.1-0.1-0.1-0.1-0.2-0.2c-0.1-0.2-0.3-0.3-0.4-0.6c-0.1-0.1-0.1-0.3-0.2-0.4
		c-0.1-0.1-0.1-0.3-0.2-0.4c-0.1-0.4-0.3-0.7-0.5-1.1c-0.2-0.4-0.3-0.7-0.4-1.2c-0.1-0.4-0.2-0.9-0.4-1.4c-0.1-0.5-0.2-1-0.2-1.4
		c0-0.1,0-0.2,0-0.3c0-0.1,0-0.2-0.1-0.3c0-0.1-0.1-0.1-0.1-0.2c0-0.1-0.1-0.1-0.1-0.2c0-0.2,0.1-0.3,0.3-0.4c0.2,0,0.3,0,0.4,0
		c0.1,0,0.2,0,0.3,0.1l0.1,0c0.1,0.1,0.2,0.2,0.2,0.3c0,0.1,0.1,0.3,0.1,0.5c0.1,0.4,0.1,0.8,0.1,1.2c0,0.2,0.1,0.3,0.1,0.5
		c0,0.2,0.1,0.3,0.1,0.5c0,0.2,0.1,0.4,0.1,0.6c0.1,0.2,0.1,0.4,0.2,0.6c-0.1-0.5-0.2-1.1-0.2-1.6c0-0.5,0-1,0-1.5
		c0-0.1,0-0.3,0-0.5c0-0.2,0-0.3,0.1-0.5c0.1-0.2,0.1-0.4,0.3-0.6c0,0,0,0,0,0c0,0,0,0,0,0c0,0,0.1-0.1,0.1-0.1
		c0.1,0,0.1-0.1,0.2-0.1c0,0,0.1,0,0.1,0c0,0,0,0,0.1,0c0.1,0,0.1,0,0.2,0c0.1,0,0.2,0,0.2,0c0.1,0,0.2,0,0.2,0c0.1,0,0.1,0,0.2,0.1
		c0.1,0,0.1,0.1,0.1,0.1c0,0,0.1,0.1,0.1,0.1c0.1,0.1,0.1,0.2,0.1,0.3c0,0.1,0.1,0.2,0.1,0.3l0.2,0.5c0.1,0.2,0.1,0.4,0.2,0.7
		c0,0.2,0.1,0.4,0.1,0.7c0,0.1,0,0.2,0.1,0.3c0,0.1,0,0.2,0,0.3c0,0.1,0,0.1,0.1,0.3c0,0.1,0,0.2,0.1,0.3c0,0,0,0,0,0
		c0,0,0,0.1,0,0.1l0,0.2c0,0,0,0,0,0c0,0,0,0,0,0.1c0,0,0,0.1,0,0.1l0,0c0,0,0,0,0,0L44.8,14.2L44.8,14.2z M44.6,16.5L44.6,16.5
		C44.6,16.5,44.6,16.5,44.6,16.5C44.6,16.5,44.6,16.5,44.6,16.5z M44.6,16.4C44.6,16.4,44.6,16.4,44.6,16.4
		C44.6,16.4,44.6,16.4,44.6,16.4z M44.7,16.5L44.7,16.5C44.7,16.5,44.7,16.5,44.7,16.5C44.7,16.6,44.7,16.6,44.7,16.5
		C44.7,16.5,44.7,16.5,44.7,16.5C44.7,16.5,44.7,16.5,44.7,16.5z M44.5,15.9C44.5,15.9,44.5,15.9,44.5,15.9
		C44.6,15.9,44.6,15.9,44.5,15.9C44.6,15.9,44.5,15.9,44.5,15.9C44.5,15.9,44.5,15.9,44.5,15.9z M44.8,16.6
		C44.8,16.6,44.8,16.6,44.8,16.6C44.8,16.6,44.8,16.6,44.8,16.6C44.8,16.6,44.8,16.6,44.8,16.6C44.8,16.6,44.8,16.6,44.8,16.6z
		 M44.8,16.6L44.8,16.6C44.8,16.6,44.8,16.6,44.8,16.6C44.9,16.6,44.9,16.6,44.8,16.6C44.9,16.6,44.9,16.6,44.8,16.6
		C44.9,16.6,44.8,16.6,44.8,16.6z M44.9,16.7C44.9,16.7,44.9,16.7,44.9,16.7L44.9,16.7L44.9,16.7z M44.7,15.6
		C44.7,15.6,44.7,15.6,44.7,15.6C44.7,15.6,44.7,15.6,44.7,15.6C44.7,15.6,44.7,15.6,44.7,15.6z M45,15.9L45,15.9
		C45,15.8,45,15.8,45,15.9z M45.1,15.9C45.1,15.9,45.1,15.9,45.1,15.9c0.1,0,0.1,0,0.1,0c0,0,0,0,0,0c0,0,0,0,0,0c0,0,0,0,0,0
		c0,0,0,0,0,0c0,0,0,0,0,0C45.2,15.9,45.2,15.9,45.1,15.9C45.1,15.9,45.1,15.9,45.1,15.9z M45,15.5L45,15.5L45,15.5z M45.1,15.5
		C45.1,15.5,45.1,15.5,45.1,15.5C45.1,15.6,45.1,15.6,45.1,15.5C45.1,15.5,45.1,15.5,45.1,15.5z M45.3,15.7
		C45.3,15.6,45.3,15.6,45.3,15.7C45.2,15.6,45.2,15.6,45.3,15.7C45.2,15.6,45.2,15.6,45.3,15.7C45.2,15.6,45.2,15.7,45.3,15.7z
		 M43.6,11.1L43.6,11.1C43.6,11.1,43.6,11.1,43.6,11.1C43.6,11.1,43.6,11.1,43.6,11.1C43.6,11.1,43.6,11.1,43.6,11.1z M45,14.8
		C45,14.8,45,14.8,45,14.8L45,14.8L45,14.8C45,14.8,45,14.8,45,14.8C45,14.8,45,14.8,45,14.8C45,14.8,45,14.8,45,14.8L45,14.8
		C45,14.8,45,14.8,45,14.8z M43.7,11.2C43.7,11.1,43.7,11.1,43.7,11.2C43.7,11.1,43.7,11.1,43.7,11.2C43.6,11.1,43.6,11.1,43.7,11.2
		z M45,14.7L45,14.7C45,14.8,45,14.7,45,14.7C45,14.7,45,14.7,45,14.7z M45,14.8C45,14.8,45,14.8,45,14.8C45,14.8,45,14.8,45,14.8z
		 M45,14.6L45,14.6C45,14.6,45,14.6,45,14.6z M45,14.6L45,14.6L45,14.6C45,14.6,45,14.6,45,14.6C45,14.6,45,14.6,45,14.6z
		 M45.2,15.2C45.2,15.2,45.2,15.2,45.2,15.2C45.2,15.2,45.2,15.2,45.2,15.2z M44.5,13.1C44.5,13.1,44.5,13.1,44.5,13.1
		c0,0.1,0,0.1,0,0.1C44.5,13.2,44.5,13.2,44.5,13.1C44.5,13.1,44.5,13.1,44.5,13.1z M44.4,12.8C44.4,12.8,44.4,12.8,44.4,12.8
		C44.4,12.9,44.4,12.9,44.4,12.8C44.4,12.9,44.4,12.9,44.4,12.8C44.5,12.8,44.4,12.8,44.4,12.8z M48.5,15.4c0,0.1,0,0.1,0.1,0.1
		C48.6,15.4,48.6,15.4,48.5,15.4z M48.6,15.5C48.6,15.5,48.6,15.5,48.6,15.5c0,0.1,0,0.1,0,0.1C48.6,15.6,48.6,15.6,48.6,15.5
		C48.6,15.5,48.6,15.5,48.6,15.5z M48.7,15.7C48.7,15.8,48.7,15.8,48.7,15.7c0,0.1,0.1,0.1,0.1,0.1C48.7,15.8,48.7,15.8,48.7,15.7
		C48.7,15.8,48.7,15.8,48.7,15.7z"/>
        <path class="st3" d="M52.1,12c0,0,0.1-0.1,0.1-0.1c0.1-0.1,0.1-0.2,0.2-0.3c0.1-0.1,0.1-0.2,0.2-0.3c0,0,0,0,0.1-0.1
		c0,0,0.1-0.1,0.1-0.1c0,0,0.1-0.1,0.1-0.1c0,0,0.1-0.1,0.1-0.1c0.1-0.1,0.2-0.1,0.3-0.1c0,0,0,0,0,0c0,0,0,0,0,0c0,0,0,0,0,0
		c0,0,0,0,0,0c0,0-0.1,0.1-0.1,0.1c0,0,0,0.1-0.1,0.1l0,0c-0.1,0.1-0.2,0.2-0.3,0.4c-0.1,0.1-0.2,0.3-0.3,0.4c0,0,0,0,0,0.1
		c0,0,0,0,0,0.1l-0.1,0.1c0,0.1,0,0.1-0.1,0.2c0,0.1,0,0.1-0.1,0.2l-0.1,0.2c0,0.1,0,0.1-0.1,0.1c0,0,0,0.1,0,0.2c0,0,0,0,0,0
		c0,0,0,0,0,0c0,0,0,0,0,0.1c0,0,0,0.1,0,0.1c0,0.1,0,0.1,0,0.2c0,0,0,0.1,0,0.1c0,0,0,0.1,0,0.1c0,0,0,0.1,0,0.2c0,0.1,0,0.1,0,0.2
		c0,0.1,0,0.1,0.1,0.2c0,0.1,0,0.2,0.1,0.3c0,0.1,0,0.2,0.1,0.3c0,0.1,0.1,0.2,0.1,0.2c0,0.1,0,0.2,0.1,0.3c0,0.1,0,0.2,0.1,0.2
		c0,0.1,0,0.2,0.1,0.2c0,0.1,0,0.2,0.1,0.2c0,0.1,0.1,0.1,0.1,0.2c0,0.1,0,0.1,0,0.2c0,0.1,0,0.1,0.1,0.2l0,0.1c0,0.1,0,0.2,0,0.3
		c0,0,0,0.1,0,0.1c0,0,0,0.1,0,0.1c0,0.1,0,0.1,0,0.2c0,0.1,0,0.1,0,0.2c0,0.1,0,0.1,0,0.2c0,0,0,0,0,0c0,0,0,0,0,0c0,0,0,0.1,0,0.1
		c0,0,0,0.1,0,0.1c0,0.1,0,0.1-0.1,0.2C53,18,53,18,53,18.1l-0.1,0.2c0,0.1,0,0.1-0.1,0.1c0,0.1-0.1,0.2-0.2,0.3c0,0,0,0,0,0
		c0,0,0,0,0,0c0,0-0.1,0.1-0.1,0.1c0,0-0.1,0-0.1,0c-0.1,0-0.1,0.1-0.2,0.1c-0.1,0-0.1,0-0.2,0L52,18.9c0,0,0,0,0,0c0,0,0,0,0,0
		c0,0-0.1-0.1-0.1-0.1c0,0-0.1-0.1-0.1-0.1c0,0-0.1-0.1-0.1-0.1c0,0-0.1-0.1-0.1-0.1c-0.1-0.1-0.1-0.2-0.2-0.3c0-0.1,0-0.1-0.1-0.1
		c0,0,0-0.1-0.1-0.1c0-0.1,0-0.1-0.1-0.2c0-0.1,0-0.1,0-0.2c0-0.2-0.1-0.5-0.1-0.7c0-0.2,0-0.5-0.1-0.7c0-0.2,0-0.4,0-0.6
		c0-0.2,0-0.4,0-0.6c0-0.2,0.1-0.4,0.1-0.6c0-0.2,0.1-0.4,0.2-0.5c0-0.2-0.1-0.3-0.1-0.5c0-0.2-0.1-0.3-0.1-0.5c0-0.2,0-0.3,0-0.5
		c0-0.1,0-0.3,0-0.5c0,0.1,0,0.2,0,0.3c0,0.1,0,0.2-0.1,0.3c0,0.1,0,0.2,0,0.3c0,0.1,0,0.2,0,0.3c0,0.1,0,0.2,0,0.3
		c0,0.1,0,0.2,0,0.3c0,0.1,0,0.1,0,0.2c0,0.1,0,0.1,0,0.2c0,0,0,0.1,0,0.1c0,0,0,0.1,0,0.1c0,0.1-0.1,0.3-0.1,0.4l-0.1,0.1
		c0,0.1-0.1,0.1-0.2,0.2C50.4,15,50.3,15,50.2,15c-0.1,0-0.2,0-0.3,0c-0.1,0-0.1-0.1-0.2-0.1c-0.1-0.1-0.1-0.2-0.2-0.3
		c-0.1-0.1-0.1-0.3-0.2-0.4c0-0.1,0-0.1-0.1-0.2c0-0.1,0-0.1-0.1-0.2c0-0.2-0.1-0.4-0.1-0.7c0-0.2-0.1-0.5-0.1-0.7l0-0.4
		c0-0.1,0-0.1,0-0.2c0-0.1,0-0.1,0-0.2c0,0,0-0.1,0-0.1c0,0,0-0.1,0-0.1c0,0,0-0.1,0-0.1c0,0,0.1-0.1,0.1-0.1c0,0,0,0,0,0
		c0,0,0,0,0,0c0.1,0,0.2,0,0.2,0c0.1,0,0.2,0,0.2,0c0.1,0,0.1,0.1,0.2,0.1c0.1,0,0.1,0.1,0.1,0.2c0,0,0,0.1,0,0.1c0,0,0,0.1,0,0.1
		l0,0.6c0,0,0,0.1,0,0.1c0,0,0,0.1,0,0.1c0,0.1,0,0.2,0,0.3c0,0.1,0,0.2,0,0.3c0,0.1,0,0.2,0,0.3c0,0.1,0,0.2,0.1,0.3l0.1,0.2
		c0,0,0,0.1,0,0.1c0,0,0,0.1,0,0.1c0-0.1,0.1-0.3,0.1-0.4c0-0.1,0-0.3,0-0.5l0.1-1.4c0-0.2,0.1-0.4,0.1-0.6c0-0.2,0.1-0.4,0.1-0.6
		c0-0.1,0-0.1,0.1-0.1c0,0,0-0.1,0.1-0.1c0,0,0.1-0.1,0.1-0.1c0,0,0.1-0.1,0.2-0.1l0.2,0c0,0,0,0,0.1,0c0,0,0,0,0.1,0l0.1,0
		c0.1,0,0.2,0,0.2,0.1c0.1,0,0.1,0.1,0.2,0.2c0,0,0,0.1,0,0.1c0,0.1,0,0.2,0,0.3c0,0.1,0,0.3,0,0.4c0,0.1,0,0.3,0,0.4
		C52.1,11.8,52.1,11.9,52.1,12z M51.3,14.4c0,0.1,0,0.1,0,0.1c0,0,0,0.1,0,0.1c0,0.1,0,0.2,0,0.2c0,0.1,0,0.2,0,0.3
		c0,0.1,0,0.2,0,0.3c0,0.1,0,0.2,0,0.3c0,0.1,0,0.2,0,0.3c0,0.1,0,0.2,0,0.3c0,0.1,0,0.2,0,0.3c0,0.1,0,0.2,0,0.3l0.1,0.3
		c0,0.1,0,0.1,0,0.2c0,0,0,0.1,0,0.1c0,0,0,0.1,0,0.1c0,0,0,0.1,0.1,0.1c0,0,0,0.1,0,0.1c0,0,0,0.1,0.1,0.1c0,0,0,0.1,0.1,0.1
		c0,0,0,0,0.1,0.1c0,0.1,0.1,0.1,0.1,0.2c0,0.1,0.1,0.1,0.2,0.1c0,0,0.1-0.1,0.1-0.1c0,0,0.1-0.1,0.1-0.1c0-0.1,0.1-0.1,0.1-0.2
		c0-0.1,0-0.1,0-0.2c0-0.1,0-0.1,0-0.2c0,0,0-0.1,0-0.1c0,0,0,0,0-0.1c0,0,0,0,0-0.1c0,0,0,0,0-0.1c0,0,0,0,0-0.1c0,0,0,0,0-0.1
		c0,0,0,0,0-0.1c0-0.1-0.1-0.2-0.1-0.3c0-0.1-0.1-0.2-0.1-0.3c0-0.1-0.1-0.2-0.1-0.3c0-0.1-0.1-0.2-0.1-0.3
		c-0.1-0.2-0.1-0.5-0.2-0.7C51.5,14.8,51.4,14.6,51.3,14.4l0-0.1l0,0L51.3,14.4z"/>
</g>
</svg>
