<?xml version="1.0" encoding="iso-8859-1"?>
<!-- Generator: Adobe Illustrator 19.0.0, SVG Export Plug-In . SVG Version: 6.00 Build 0)  -->
<svg version="1.1" id="Layer_1" xmlns="http://www.w3.org/2000/svg" xmlns:xlink="http://www.w3.org/1999/xlink" x="0px" y="0px"
	 viewBox="0 0 512 512" style="enable-background:new 0 0 512 512;" xml:space="preserve">
<g>
	<g>
		<path d="M256,32C114.837,32,0,113.344,0,213.333c0,51.435,30.613,100.117,84.245,134.464
			c-5.995,22.891-37.525,70.272-57.877,97.173c-0.064,0.107-0.149,0.192-0.213,0.299c-3.115,3.819-4.821,8.533-4.821,13.397
			c0,11.755,9.579,21.333,21.333,21.333c2.923,0,5.845-0.683,8.725-2.005c27.776-7.893,115.669-35.819,166.336-85.483
			c13.355,1.451,25.92,2.155,38.272,2.155c141.163,0,256-81.344,256-181.333S397.163,32,256,32z M255.979,373.333
			c-13.333,0-26.987-0.896-41.792-2.709c-4.352-0.533-8.341,1.792-10.304,5.547c-48.597,48.619-140.992,76.416-159.232,81.557
			c-0.704,0.192-1.259,0.597-1.92,0.96c0.469-0.512,0.875-1.045,1.237-1.621c8.533-11.328,61.12-82.432,62.528-114.112
			c0.171-3.925-1.792-7.616-5.163-9.643c-50.859-30.549-80.021-74.283-80.021-119.979c0-88.235,105.28-160,234.667-160
			s234.667,71.765,234.667,160S385.365,373.333,255.979,373.333z" fill="#2FBCD3"/>
	</g>
</g>
<g>
</g>
<g>
</g>
<g>
</g>
<g>
</g>
<g>
</g>
<g>
</g>
<g>
</g>
<g>
</g>
<g>
</g>
<g>
</g>
<g>
</g>
<g>
</g>
<g>
</g>
<g>
</g>
<g>
</g>
</svg>
