<?xml version="1.0"?>
<svg xmlns="http://www.w3.org/2000/svg" xmlns:xlink="http://www.w3.org/1999/xlink" version="1.1" id="Capa_1" x="0px" y="0px" viewBox="0 0 490 490" style="enable-background:new 0 0 490 490;" xml:space="preserve" width="512px" height="512px"><g><g>
	<g>
		<path d="M0,167.85v216.2c0,33,26.8,59.8,59.8,59.8h370.4c33,0,59.8-26.8,59.8-59.8v-216.2c0-31.4-25.5-56.9-56.9-56.9h-79.6    l-1.9-8.3c-7.7-33.3-37-56.5-71.2-56.5h-70.9c-34.1,0-63.4,23.2-71.2,56.5l-1.9,8.3H56.9C25.5,110.95,0,136.55,0,167.85z     M146.2,135.45c5.7,0,10.6-3.9,11.9-9.5l4.1-17.8c5.2-22.1,24.6-37.5,47.3-37.5h70.9c22.7,0,42.1,15.4,47.3,37.5l4.1,17.8    c1.3,5.5,6.2,9.5,11.9,9.5H433c17.9,0,32.4,14.5,32.4,32.4v216.2c0,19.5-15.8,35.3-35.3,35.3H59.8c-19.5,0-35.3-15.8-35.3-35.3    v-216.2c0-17.9,14.5-32.4,32.4-32.4H146.2z" class="active-path" fill="#9B9B9B"/>
		<circle cx="82.9" cy="187.75" r="16.4" class="active-path" fill="#9B9B9B"/>
		<path d="M245,380.95c56.7,0,102.9-46.2,102.9-102.9s-46.2-102.9-102.9-102.9s-102.9,46.1-102.9,102.9S188.3,380.95,245,380.95z     M245,199.65c43.2,0,78.4,35.2,78.4,78.4s-35.2,78.4-78.4,78.4s-78.4-35.2-78.4-78.4S201.8,199.65,245,199.65z" class="active-path" fill="#9B9B9B"/>
	</g>
</g></g> </svg>
