<?xml version="1.0"?>
<svg xmlns="http://www.w3.org/2000/svg" xmlns:xlink="http://www.w3.org/1999/xlink" version="1.1" id="Capa_1" x="0px" y="0px" viewBox="0 0 413.836 413.836" style="enable-background:new 0 0 413.836 413.836;" xml:space="preserve" width="512px" height="512px"><g><g>
	<path d="M413.072,181.833c-2.297-8.948-11.268-10.402-20.021-9.63c-9.897-35.355-39.215-60.232-74.513-74.965   c0.966-9.012,1.573-16.905,7.977-24.885c5.191-6.47,10.548-10.784,6.563-19.465c-1.89-4.115-7.055-4.269-10.567-2.772   c-16.515,7.036-34.23,17.787-36.075,36.871c-12.504-2.951-25.2-4.91-37.62-5.667c-72.747-4.433-156.365,21.621-171.826,96.049   c-25.806-28.74-90.748-7.033-74.379,36.881c6.424,17.24,29.146,27.227,43.885,13.174c12.507-11.927,4.329-40.631-15.215-33.744   c-4.549,1.604-5.748,7.774-1.362,10.423c4.839,2.924,7.222,16.252-4.256,11.707c-4.045-1.606-6.268-6.242-7.024-10.168   c-1.731-9.009,3.771-17.208,11.55-21.295c16.655-8.751,30.214,2.627,44.577,9.2c-0.377,5.463-0.479,11.11-0.167,17.028   c2.232,42.178,25.769,74.394,58.134,94.505c-6.288,8.215-10.294,19.406-13.687,27.984c-4.727,11.953-8.187,25.411,7.956,28.653   c10.959,2.201,33.509,6.808,41.116-4.073c4.064-5.815,4.885-14.488,7.722-21.011c1.833-4.216,3.547-7.376,4.117-10.711   c29.025,5.18,61.527,5.788,92.413,0.436c0.161,3.058,0.324,6.116,0.487,9.174c0.293,5.522-0.336,12.417,2.924,17.254   c6.978,10.35,26.39,5.839,36.793,5.593c6.89-0.161,12.449-6.796,10.423-13.686c-2.896-9.861-6.161-19.804-9.779-29.582   c33.625-13.422,61.38-36.709,74.954-72.383c3.953,0.869,8.18,0.972,12.473,0.919c5.71-0.074,9.761-4.581,10.101-10.101   c0.557-9.113,1.118-18.225,1.675-27.338C412.87,198.875,414.931,189.081,413.072,181.833z M267.664,109.452   c2.75,18.309-25.998,9.298-37.429,9.869c-6.055,0.301-12.034,1.059-17.983,2.187c-6.198,1.177-40.307,11.986-30.897-12.179   c0.154-0.395,0.152-0.747,0.214-1.118c19.13-4.798,39.159-6.695,57.735-5.796c9.161,0.444,18.8,1.572,28.548,3.381   C267.576,106.96,267.475,108.179,267.664,109.452z M337.159,168.509c-0.68,5.353-5.038,7.858-10.25,7.325   c-5.622-0.575-8.629-4.783-9.064-10.166c-0.193-2.413,0.687-7.474,2.552-11.404c2.348,2.292,5.807,3.687,8.916,2.404   C336.147,153.852,337.837,163.166,337.159,168.509z" data-original="#000000" class="active-path" data-old_color="#000000" fill="#C1C0C0"/>
</g></g> </svg>
