<?xml version="1.0" encoding="utf-8"?>
<!-- Generator: Adobe Illustrator 22.1.0, SVG Export Plug-In . SVG Version: 6.00 Build 0)  -->
<svg style="enable-background:new 0 0 750 600;" id="Calque_1" version="1.1" viewBox="0 0 750 600" x="0px"
     xmlns="http://www.w3.org/2000/svg" y="0px" xml:space="preserve">
<style type="text/css">
	.st0{fill:none;stroke:#616161;stroke-miterlimit:10;}
	.st1{fill:none;stroke:#1A1A18;stroke-miterlimit:10;}
	.st2{opacity:0.48;fill:#EF9486;}
	.st3{opacity:0.67;fill:#5EB576;}
	.st4{opacity:0.46;fill:#00A5C3;}
	.st5{fill:#616161;}
	.st6{fill:none;stroke:#FFFFFF;stroke-width:0.5;stroke-linecap:round;stroke-linejoin:round;stroke-miterlimit:10;}
	.st7{fill:#FFFFFF;}
	.st8{fill:none;stroke:#616161;stroke-linecap:round;stroke-linejoin:round;stroke-miterlimit:10;}
	.st9{fill:#FFFFFF;stroke:#616161;stroke-linecap:round;stroke-linejoin:round;stroke-miterlimit:10;}
</style>
    <polygon class="st0" points="501.7,215.6 593.5,212.7 593.1,96.4 502.3,107.8 "/>
    <polyline class="st0" points="501.7,215.6 508.1,217.1 600,215.6 599.6,102.3 593.1,96.4 "/>
    <line class="st0" x1="593.5" x2="600" y1="212.7" y2="215.6"/>
    <polygon class="st0" points="293,217.1 212.9,214.6 213.1,114 292.8,123.9 "/>
    <polyline class="st0" points="293,217.1 287.5,218.2 207.3,216.8 207.5,119.1 213.1,114 "/>
    <line class="st0" x1="212.9" x2="207.3" y1="214.6" y2="216.8"/>
    <polygon class="st0" points="293,279.6 212.9,286.1 213.1,386.7 292.8,372.8 "/>
    <polyline class="st0" points="293,279.6 287.5,279.6 207.3,284.9 207.5,381.6 213.1,386.7 "/>
    <line class="st0" x1="212.9" x2="207.3" y1="286.1" y2="284.9"/>
    <polyline class="st0" points="383,375 370.2,372.8 370,281.6 450,285.1 449.9,319.2 "/>
    <polyline class="st0" points="370,281.6 375.5,281.6 455.6,284.9 455.6,317.4 "/>
    <line class="st1" x1="450" x2="455.6" y1="285.1" y2="284.9"/>
    <polygon class="st0" points="370.3,219.1 448.3,216.6 448.1,116 370.5,125.9 "/>
    <polyline class="st0" points="370.3,219.1 375.8,220.2 453.9,218.8 453.7,121.1 448.1,116 "/>
    <line class="st0" x1="448.3" x2="453.9" y1="216.6" y2="218.8"/>
    <ellipse class="st0" cx="335.9" cy="424.2" rx="20.1" ry="5.8"/>
    <path class="st0" d="M334.5,424.2c0,0,7.5-12.8-4.3-28.8c-11.8-16-3.3-31.5-3.3-31.5"/>
    <path class="st0"
          d="M341.3,423c0,0-1.8-68.2,3.7-77.1c5.2-8.5,8.4-0.4,8.7,2.8c0.3,3.1-1.4,7.3-4.2,3.4c-2.8-3.9-3-7.8-3-7.8"/>
    <path class="st0" d="M330.2,349.3c0,0-3.5-4.7-9.7,1.6c-6.2,6.3-5,11.1-5,11.1s1.5-4.8,7.3-4.8C328.6,357.2,332.2,355.2,330.2,349.3
	z"/>
    <path class="st0" d="M332,366c0,0-5.5,0.8-5.9-6.5c0,0,0.5-5.9,5.7-2.1C331.8,357.4,335.1,360.6,332,366z"/>
    <path class="st0" d="M341.6,367.1c0,0-9.1-4.5-10.8,5c-1.7,9.5,7.3,3.7,7.3,3.7S337.5,367.5,341.6,367.1"/>
    <path class="st0" d="M324.2,379.8c0,0,9.1-4.5,10.8,5c1.7,9.5-7.3,3.8-7.3,3.8S328.2,380.2,324.2,379.8"/>
    <path class="st0" d="M347.5,378.7c0,0-5.5,0.8-5.9-6.5c0,0,0.5-5.9,5.7-2.1C347.3,370.1,350.6,373.3,347.5,378.7z"/>
    <path class="st0" d="M315.7,424.2l6.4,43.8c0,0,14.3,12.2,29.1,0l4.7-43.8"/>
    <polyline class="st0" points="79.8,34.1 337.4,74.1 555.7,47.9 "/>
    <polyline class="st0" points="334.5,75.3 334.5,409.8 159,469.6 "/>
    <line class="st0" x1="334.5" x2="375.7" y1="409.8" y2="421.2"/>
    <line class="st0" x1="478.3" x2="533.6" y1="454.3" y2="471.6"/>
    <path class="st0" d="M470.3,510.8c4.8,3.7,7.4,7.6,7.4,11.8c0,18.2-50.4,32.9-112.5,32.9s-112.5-14.7-112.5-32.9
	c0-18.2,50.4-32.9,112.5-32.9c3.3,0,6.6,0,9.8,0.1"/>
    <path class="st2" d="M292.2,139.5c0.9-2.7,1.3-5.6-0.2-8.1c-1.8-3.1-5.4-3.8-8.6-4.6c-9.1-2.2-18.5-3.6-27.9-4
	c-4.5-0.2-9.1-0.3-13.5,0c-3.4,0.3-5.8,1.8-7.1,5c-0.3,0.7-0.5,1.4-0.7,2.1c-2.3,4.1-2.1,10.4-2.6,14.5c0,0.1,0,0.2,0,0.3
	c-0.2,0.8-0.3,1.6-0.4,2.5c-0.9,4.9-2.2,10.9,1.3,14.5c4,4,11.4,3.4,16.6,3.8c0.5,0,1,0.1,1.5,0.1c7.7,1.6,15.5,2.9,23.3,3.7
	c5,0.5,11.8,2.1,14.6-2.3c0.9-0.5,1.6-1.4,1.7-2.5l2.1-24.3C292.1,140,292.1,139.8,292.2,139.5z"/>
    <path class="st2" d="M572,117.5c0.3-3.2,0-6.5-2.3-9c-2.8-3-6.9-2.9-10.7-2.9c-10.7-0.1-21.4,0.8-31.9,2.7c-5,0.9-10.1,2-15,3.5
	c-3.7,1.2-6,3.5-6.6,7.4c-0.1,0.8-0.2,1.7-0.3,2.5c-1.5,5.2,0.3,12,0.8,16.8c0,0.1,0,0.2,0,0.4c0,0.9,0.1,1.9,0.2,2.8
	c0.2,5.7,0.3,12.7,5.1,15.7c5.4,3.4,13.6,0.8,19.4,0c0.6-0.1,1.1-0.2,1.7-0.2c9-0.1,17.9-0.7,26.8-1.8c5.7-0.7,13.7-0.7,15.6-6.3
	c0.9-0.8,1.4-2,1.2-3.3l-3.9-27.5C572,118,572,117.8,572,117.5z"/>
    <path class="st3" d="M342,374.4c1-1.2,1.4-2.9,0.9-4.5c-0.9-2.6-3.4-4.2-6.2-3.5c-4.6,1.1-11.5,5.7-9.1,11.2c1.3,3.2,5.1,4.3,8.1,3
	c1.4-0.6,2.5-1.7,3.2-3.1c0,0,0-0.1,0.1-0.2C340.5,376.8,341.6,375.7,342,374.4z"/>
    <path class="st3" d="M351.8,343.7c-0.8-0.7-2-1-3-0.6c-1.8,0.6-2.8,2.3-2.4,4.2c0.8,3.1,3.9,7.8,7.6,6.2c2.2-0.9,2.9-3.4,2-5.5
	c-0.4-1-1.2-1.7-2.1-2.2c0,0-0.1,0-0.2-0.1C353.5,344.8,352.7,344,351.8,343.7z"/>
    <path class="st3" d="M346.8,373.2c-0.8-0.7-2-1-3-0.6c-1.8,0.6-2.8,2.3-2.4,4.2c0.8,3.1,3.9,7.8,7.6,6.2c2.2-0.9,2.9-3.4,2-5.5
	c-0.4-1-1.2-1.7-2.1-2.2c0,0-0.1,0-0.2-0.1C348.4,374.2,347.6,373.5,346.8,373.2z"/>
    <path class="st3" d="M330.4,355.4c1.2-1.3,1.7-3.1,1.1-4.6c-1-2.7-4.1-4.3-7.4-3.6c-5.6,1.2-13.9,5.9-11.1,11.7
	c1.6,3.3,6.1,4.5,9.8,3.1c1.7-0.6,3.1-1.8,3.9-3.2c0,0,0-0.1,0.1-0.2C328.5,357.9,329.9,356.8,330.4,355.4z"/>
    <path class="st3" d="M331,379.8c-0.8-0.7-2-1-3-0.6c-1.8,0.6-2.8,2.3-2.4,4.2c0.8,3.1,3.9,7.8,7.6,6.2c2.2-0.9,2.9-3.4,2-5.5
	c-0.4-1-1.2-1.7-2.1-2.2c0,0-0.1,0-0.2-0.1C332.7,380.9,331.9,380.1,331,379.8z"/>
    <ellipse class="st4" cx="341" cy="532.8" rx="110.7" ry="32.5"/>
    <g>
	<path class="st5" d="M372.2,360.3c0.4-0.6,2.5-1.9,3-1.6c0.1,0,0.1,0.1,0.1,0.2c0.1,0.3,0.1,0.5,0.2,0.7c1.1,2.5,5,7.2,8.4,11
		c-2-2.7-3.9-5.5-5.3-8c-1.2-2-2-4-2.4-5.6c-0.2-1.2,0-2.3,0.6-3c3.1-4.2,9.6,3,9.3,8.6c0.9-0.3,1.9-0.4,2.8-0.1
		c3.7,1.2,7.2,7,4,11.3c-0.6,0.8-1.5,1.4-2.5,1.5c-0.8,0.1-1.6-0.9-0.9-0.9c0.7,0,1.3-0.4,1.6-0.9c2.3-3.2-3.9-10.9-5.6-8.6
		c-0.2,0.6-0.7,1.2-1.2,1.5c-0.4,0.2-1.1,0.1-1.3-0.2c-0.2-0.3,0.1-1.2,0.5-1.7c0.5-4.1-4.2-10.9-5.9-8.6c-0.6,0.8,0.1,3.1,1.9,6.2
		c2.5,4.3,6.4,9.6,9.4,13c0.2,0.2,0.2,0.5,0,0.8c-0.5,0.7-2,1.4-2.6,1C381.4,373.2,371.3,361.4,372.2,360.3z"/>
        <path class="st5" d="M386.9,355.5c-0.2-0.2-0.2-0.5-0.1-0.7c0.4-0.6,1.6-1.1,2.2-1.2c0.4-0.1,0.6,0.5,0.8,0.8
		c1,1.5,2.2,3.2,3.5,4.7c-1.4-2.6-3-6.1-3.2-8.3c0-0.2,0.1-0.5,0.2-0.7c0.2-0.3,1.3-1.1,2-1.2c0.6-0.1,0.8,0.3,0.8,0.8
		c0.1,1.6,1.2,3.1,2.1,3.9c0.7,0.5,1.2,0.5,1.4,0.2c0.9-1.2-0.6-4-1.1-5.2c-0.2-0.6,0.7-1,0.9-0.4c0.6,1.4,1.9,4.2,1.4,5.9
		c-0.3,1.2-2.5,2.4-3.9,1.6c-0.9-0.5-1.9-1.9-2.5-3c-0.2-0.3-0.2-0.2-0.1,0c0.9,3.4,4.2,9.2,5.9,10.7c0.3,0.2,0.2,0.4,0.1,0.6
		c-0.5,0.7-2.1,1.2-2.7,0.8C391.9,362.4,388.8,358.6,386.9,355.5z"/>
        <path class="st5" d="M389.5,338.8c0.3-0.3,1.2-0.8,2-1.1c0.6-0.2,1,0.1,1.2,0.7c0.5,1.1,1.6,4.3,1.2,5c-1.1,1.7-3.7-2.5-4.1-3.4
		C389.5,339.5,389.4,339,389.5,338.8z M399.9,354.3c-2.3-2.4-4.8-5.4-6.3-8c-0.1-0.3-0.2-0.5-0.1-0.7c0.4-0.5,1.6-1.1,2.1-1.2
		c0.5-0.1,0.6,0.5,0.8,0.8c1.8,2.8,4.5,6,6.3,7.9c0.4,0.4,0.5,0.1,0.5-0.3c-0.5-3-2.8-6.7-4.2-8.8c-0.3-0.5,0.5-1,0.8-0.5
		c1.4,2.1,5.9,9.2,4.1,11.6c-0.7,1-2.2,0.9-3.1,0.1C400.6,354.9,400.3,354.6,399.9,354.3z"/>
        <path class="st5" d="M398.3,338.8c1-1.3,3.2-1.8,4.4-0.9c1.5,1.1,2.6,3.2,2.1,3.8c-0.3,0.4-1.3,0.9-2,0.9c-0.4,0-0.6-0.3-0.5-0.7
		c0.1-0.8-0.2-1.8-0.7-2.5c-0.5-0.8-1-1-1.3-0.6c-1.7,2.4,5,11.4,7.6,8c1.8-2.5-1.5-7.7-3.3-10.6c-0.3-0.5,0.5-1,0.8-0.5
		c1.9,3,6,9.1,3.5,12.5C404,355,395.5,342.7,398.3,338.8z"/>
        <path class="st5" d="M405.1,330.6c1.3-1.8,3.6-2.3,4.8-1.4c1.3,0.9,2.5,2.2,3.4,3.7c-0.2-2-0.8-4.1-1.9-5.9c-0.3-0.5,0.5-1,0.8-0.5
		c1.5,2.5,2.2,5.4,2,8.3c1,2.3,1.1,4.7-0.1,6.4c-1.5,2-4.4,1.8-5.9,0.7c-2.8-2-5.4-6.2-4.9-9.5C403.5,331.5,404.3,330.9,405.1,330.6
		z M411.9,339.9c0.4-0.7,0.6-1.1,0.8-1.9c-0.7-2.1-2.9-4.9-4.7-6.2c-1.9-1.4-2.7-0.4-2.4,1.4c0.6,2.9,4,6.6,6.1,7
		C411.8,340.1,411.8,340,411.9,339.9z"/>
        <path class="st5" d="M403.3,317.7c0.4-0.5,2.5-1.9,3-1.6c0.1,0,0.1,0.1,0.1,0.2c0.1,0.3,0.1,0.5,0.2,0.7
		c1.5,3.3,8.1,10.9,11.7,14.3c0.6,0.5,0.8,0.5,0.7-0.3c-0.6-2.9-2.8-6.5-4.2-8.6c-0.3-0.5,0.5-1.1,0.8-0.5c1.4,2.1,5.9,9.2,4.1,11.6
		c-1.1,1.6-2.8,0.3-3.8-0.6C410.8,328.5,402.5,318.8,403.3,317.7z"/>
        <path class="st5" d="M422.7,323.2c0-0.1-0.1-0.1-0.2-0.2c1.1,2.1,1.8,4.2,0.9,5.5c-0.8,1.1-2,1.2-3.1,0.6c-3.3-1.9-7.1-7-6.5-10.9
		c0.1-1.2,1.6-1.8,2.8-2.4c0-0.1-0.2-0.3-0.3-0.4c-0.1-0.3-0.2-0.5-0.1-0.7c0.4-0.5,1.6-1.1,2.1-1.2c0.5-0.1,0.6,0.5,0.8,0.8
		c1.8,2.8,4.6,5.9,6.4,7.7c0.4,0.4,0.5,0.1,0.5-0.3c-0.5-3-2.9-6.6-4.3-8.7c-0.3-0.5,0.5-1,0.8-0.5c1.4,2.1,6,9.1,4.2,11.5
		c-0.7,1-2.2,0.9-3.1,0.1C423.4,323.8,423,323.5,422.7,323.2z M417.7,317.4c-0.2-0.3-0.4-0.5-0.5-0.8c-0.3,0-0.6,0.1-0.9,0.4
		c-1.4,1.9,2.3,7,4.6,8.9c0.3,0.3,1.3,1.1,1.6,0.6C423.5,325.2,418.7,318.8,417.7,317.4z"/>
        <path class="st5" d="M430.2,319.1c-0.8,1.1-2,1.2-3.1,0.6c-3.3-1.9-7.1-7.1-6.5-11c0.1-0.6,0.5-1.1,1.1-1.5
		c0.5-0.4,1.1-0.6,1.7-0.9c-0.1-0.1-0.2-0.3-0.3-0.4c-0.2-0.2-0.2-0.5-0.1-0.7c0.4-0.6,1.6-1.1,2.2-1.2c0.3-0.1,0.4,0.2,0.6,0.4
		c0.1,0.3,0.3,0.5,0.5,0.8c1.5,2.1,3.2,4.1,4.7,5.8l0.2,0.2c-0.3-2.5-1-5.2-2.6-7.7c-0.4-0.5,0.5-1,0.8-0.5c2.1,3.2,2.8,6.5,2.9,9.5
		c1.5,1.8,3,3.6,4.3,5.5c1.4,2,2,3.9,0.3,6.1c-0.5,0.7-1.3,1.2-2.2,1.2c-1.8,0-3-1.6-3.3-3.3c-0.4-1.9,0-4.1,0-5.9
		c-0.6-0.8-1.3-1.6-1.9-2.5C430.5,315.8,431.2,317.9,430.2,319.1z M427.8,316.6c0.3,0.3,1.3,1.1,1.6,0.6c1-1.4-3.9-7.7-4.8-9.1
		c-0.2-0.3-0.4-0.5-0.5-0.8c-0.3,0-0.7,0.1-0.9,0.4C421.7,309.6,425.5,314.7,427.8,316.6z M435,321c-0.7-1.1-1.7-2.3-2.7-3.6
		c-0.1,1.9-0.5,5,1.4,6.2c0.5,0.3,1.3,0.5,1.7-0.1C435.8,323,435.7,322.1,435,321z"/>
        <path class="st5" d="M427.9,298.5c0.8-1.1,3.6-1.9,4.9-1c2.6,1.9,2.4,6.5,0.8,8.7c1.5,1.2,3,1.6,4,0.3c1.7-2.3-1.4-7.7-3.3-10.6
		c-0.4-0.5,0.5-1,0.8-0.5c2,3,5.8,9.3,3.5,12.5C433.5,314.6,424.9,302.5,427.9,298.5z M433,305.6c1.1-1.5,0.1-4.9-2.2-6.5
		c-0.6-0.4-1.1-0.1-1.1,0.6C429.7,301.4,431.2,304,433,305.6z"/>
</g>
    <g>
	<path class="st5" d="M224.1,164.6c0.5-0.1,1.1,0.1,1.4,0.4c1.4,1.4,1.1,5.2,2.5,6.6c0.1,0.1,0.1,0.2,0,0.2
		c-0.5,0.5-1.8,0.8-2.5,0.1c-1.4-1.4-0.4-4.5-1.7-5.7c-0.5-0.5-1.1-0.7-1.7-0.2c-3.9,3.9,3.5,18.2,7.9,13.8c0.5-0.5,1-1.3,1.1-2
		c0-0.1,0.1-0.1,0.2-0.1c0.1,0,0.2,0.2,0.3,0.3c0.6,1.1,0,2.3-0.9,3.2c-6.8,6.8-16.5-9.6-10.4-15.7
		C221.5,164.5,222.9,164.1,224.1,164.6z"/>
        <path class="st5" d="M230.6,165.9c1.2-1.2,3.2-1.4,4.1-0.5c0.9,0.9,1.7,2.1,2.2,3.4c0.1-1.7-0.1-3.4-0.8-5
		c-0.2-0.5,0.5-0.8,0.7-0.3c0.9,2.2,1.1,4.6,0.6,6.9c0.5,2,0.3,3.9-0.9,5.1c-1.4,1.4-3.8,0.9-4.8-0.2c-2-2-3.6-5.6-2.8-8.2
		C229.2,166.5,229.9,166,230.6,165.9z M234.9,174.3c0.4-0.5,0.6-0.8,0.9-1.4c-0.3-1.8-1.7-4.3-3-5.6c-1.3-1.3-2.1-0.7-2.1,0.8
		c0.1,2.4,2.4,5.8,4,6.4C234.8,174.4,234.8,174.3,234.9,174.3z"/>
        <path class="st5" d="M242.4,165.4c0-0.1-0.1-0.1-0.1-0.2c0.6,1.8,0.9,3.6,0,4.5c-0.8,0.8-2.3,0.7-2.8,0.1c-0.2-0.3-0.4-0.6-0.7-0.9
		c-1.6-2.2-3.2-4.9-4.1-7.2c-0.1-0.2-0.1-0.4,0-0.6c0.4-0.4,1.4-0.7,1.9-0.7c0.4,0,0.4,0.4,0.5,0.7c1,2.2,2.5,4.7,3.6,6.5
		c0.4,0.6,0.8,0.7,1,0.5c1-1-2-6.8-2.7-8c-0.3-0.6-0.6-1.3-0.9-1.9c-0.1-0.2-0.1-0.5,0-0.6c0.4-0.4,1.4-0.7,1.9-0.7
		c0.4-0.1,0.4,0.4,0.5,0.7c1.1,2.5,2.8,5.4,4,7.1c0.2,0.4,0.4,0.2,0.4-0.2c0-2.4-1.4-5.7-2.3-7.6c-0.2-0.5,0.5-0.8,0.7-0.3
		c0.8,1.9,3.6,8.1,1.8,9.8c-0.7,0.7-1.9,0.4-2.5-0.3C242.8,165.9,242.6,165.7,242.4,165.4z"/>
        <path class="st5" d="M241.7,154.8c-0.1-0.2-0.1-0.4,0-0.5c0.4-0.4,1.4-0.7,1.9-0.7c0.4,0,0.4,0.4,0.5,0.7c0.6,1.3,1.4,2.8,2.2,4.2
		c-0.8-2.3-1.7-5.2-1.5-7c0-0.2,0.1-0.4,0.2-0.5c0.2-0.2,1.2-0.7,1.8-0.7c0.5,0,0.6,0.4,0.5,0.7c-0.1,1.3,0.6,2.6,1.2,3.4
		c0.5,0.5,0.9,0.6,1.1,0.3c0.8-0.8,0-3.3-0.2-4.3c-0.1-0.5,0.6-0.7,0.8-0.2c0.3,1.2,1,3.6,0.4,4.9c-0.4,0.9-2.3,1.6-3.3,0.8
		c-0.7-0.5-1.3-1.8-1.6-2.7c-0.1-0.3-0.1-0.2-0.1,0c0.3,2.9,2.2,7.9,3.4,9.3c0.2,0.2,0.1,0.3,0,0.5c-0.5,0.5-1.8,0.7-2.2,0.3
		C244.9,161,242.8,157.6,241.7,154.8z"/>
        <path class="st5" d="M252.2,156.3c-0.2-0.8,0.1-1.5,0.6-2.1c0.4-0.5,0.8-1,1.1-1.4c-1.4-1-3.5-0.4-5.1-1.9
		c-1.3-1.3-0.9-3.2,0.2-4.3c0.7-0.7,2.7-0.6,3.4,0.1c0.4,0.4,0.7,1.6,0.4,1.9c-0.4,0.4-1.4,0.8-1.6,0.6c0,0,0-0.1,0-0.1
		c0.3-0.3,0.1-1.2-0.3-1.5c-0.2-0.2-0.5-0.3-0.8-0.1c-0.5,0.5,0.1,1.6,0.5,1.9c1.1,1.1,2.9,0.7,4.2,1.2c0.5-1.7,0.2-3.3-0.6-4.9
		c-0.2-0.4,0.5-0.8,0.7-0.3c1,2,1.2,3.8,0.7,5.6c2,1.5,1.2,4.5-0.4,6C254.1,158.2,252.5,157.7,252.2,156.3z M253.2,155.1
		c-0.7,1.1,0.9,2.1,1.5,0.8c0.4-0.8,0.3-1.8-0.1-2.5C254.2,153.9,253.5,154.5,253.2,155.1z"/>
        <path class="st5" d="M263.9,143.6c0.6,1.8,0.9,3.6,0,4.6c-1,1-2.2,0.7-3.1-0.2c-2.3-2.1-4.5-6.2-3.6-9.1c0.3-1,1.5-1.3,2.4-1.5
		c-2.3-3.5-4-6.8-3.5-7.3c0.4-0.4,2.3-1.2,2.6-0.9c0,0,0.1,0.1,0,0.2c0,0.2,0,0.4,0.1,0.6c0.8,2.8,5.1,9.7,7.6,12.9
		c0.4,0.5,0.6,0.5,0.5-0.1c-0.1-2.4-1.4-5.6-2.3-7.4c-0.2-0.5,0.5-0.8,0.7-0.3c0.8,1.9,3.6,8.1,1.8,9.9c-1.1,1.1-2.3-0.1-3-0.9
		C264.1,143.8,264,143.7,263.9,143.6z M261.9,145.7c0.6,0.7,1.2,1,1.5,0.7c0.2-0.2,0.3-0.7,0.1-1.4c-0.2-1.1-0.8-2.7-1.5-4
		c-0.6-0.9-1.3-1.8-1.9-2.8c-0.3-0.1-0.6-0.1-0.8,0.1C258,139.7,260.3,143.8,261.9,145.7z"/>
        <path class="st5" d="M264.7,131.1c0.8-0.8,3.1-1.1,4-0.2c1.9,1.9,1.1,5.5-0.4,7.1c1,1.1,2.2,1.6,3.1,0.7c1.6-1.6-0.2-6.4-1.3-8.9
		c-0.2-0.5,0.5-0.8,0.7-0.3c1.2,2.7,3.5,8.2,1.2,10.5C267.2,144.8,261.8,134,264.7,131.1z M267.9,137.5c1.1-1.1,0.7-3.9-0.9-5.5
		c-0.4-0.4-0.9-0.2-1,0.3C265.8,133.7,266.7,135.9,267.9,137.5z"/>
        <path class="st5" d="M248.2,188.7c0.5-0.1,1.1,0.1,1.4,0.4c1.4,1.4,1.1,5.2,2.5,6.6c0.1,0.1,0.1,0.2,0,0.2
		c-0.5,0.5-1.8,0.8-2.5,0.1c-1.4-1.4-0.4-4.5-1.7-5.7c-0.5-0.5-1.1-0.7-1.7-0.2c-3.9,3.9,3.5,18.2,7.9,13.8c0.5-0.5,1-1.3,1.1-2
		c0-0.1,0.1-0.1,0.2-0.1c0.1,0,0.2,0.2,0.3,0.3c0.6,1.1,0,2.3-0.9,3.2c-6.8,6.8-16.5-9.6-10.4-15.7
		C245.6,188.6,247,188.2,248.2,188.7z"/>
        <path class="st5" d="M260.1,195.9c0-0.1-0.1-0.1-0.1-0.2c0.6,1.8,0.9,3.6,0,4.5c-0.8,0.8-2.3,0.7-2.8,0.1c-0.2-0.3-0.4-0.6-0.7-0.9
		c-1.6-2.2-3.2-4.9-4.1-7.2c-0.1-0.2-0.1-0.4,0-0.6c0.4-0.4,1.4-0.7,1.9-0.7c0.4,0,0.4,0.4,0.5,0.7c1,2.1,2.5,4.7,3.6,6.5
		c0.4,0.6,0.8,0.7,1,0.5c1-1-2-6.8-2.7-8c-0.3-0.6-0.6-1.3-0.9-1.9c-0.1-0.2-0.1-0.5,0-0.6c0.4-0.4,1.4-0.7,1.9-0.7
		c0.4-0.1,0.4,0.4,0.5,0.7c1.1,2.5,2.8,5.4,4,7.1c0.2,0.4,0.4,0.2,0.4-0.2c0-2.4-1.4-5.7-2.3-7.6c-0.2-0.5,0.5-0.8,0.7-0.3
		c0.8,1.9,3.6,8.1,1.8,9.8c-0.7,0.7-1.9,0.4-2.5-0.3C260.5,196.5,260.3,196.2,260.1,195.9z"/>
        <path class="st5" d="M257,178.9c0.2-0.2,1.1-0.5,1.7-0.6c0.5-0.1,0.8,0.2,0.9,0.7c0.2,1,0.8,3.7,0.3,4.2c-1.1,1.2-2.7-2.5-2.9-3.2
		C256.9,179.4,256.8,179.1,257,178.9z M263.4,192.6c-1.6-2.2-3.2-4.9-4.1-7.2c-0.1-0.2-0.1-0.4,0-0.6c0.4-0.4,1.4-0.7,1.9-0.7
		c0.4-0.1,0.4,0.4,0.5,0.7c1.1,2.5,2.8,5.4,4,7.1c0.2,0.4,0.4,0.2,0.4-0.1c0-2.5-1.4-5.7-2.3-7.6c-0.2-0.5,0.5-0.8,0.7-0.3
		c0.8,1.9,3.6,8.1,1.8,9.9c-0.7,0.7-1.9,0.4-2.5-0.3C263.9,193.2,263.6,192.9,263.4,192.6z"/>
        <path class="st5" d="M266.8,189.9c-0.2-0.8,0.1-1.5,0.6-2.1c0.4-0.5,0.8-1,1.1-1.4c-1.4-1-3.5-0.4-5.1-1.9
		c-1.3-1.3-0.9-3.2,0.2-4.3c0.7-0.7,2.7-0.6,3.4,0.1c0.4,0.4,0.7,1.6,0.4,1.9c-0.4,0.4-1.4,0.8-1.6,0.6c0,0,0-0.1,0-0.1
		c0.3-0.3,0.1-1.2-0.3-1.5c-0.2-0.2-0.5-0.3-0.8-0.1c-0.5,0.5,0.1,1.6,0.5,1.9c1.1,1.1,2.9,0.7,4.2,1.2c0.5-1.7,0.2-3.3-0.6-4.9
		c-0.2-0.4,0.5-0.8,0.7-0.3c1,2,1.2,3.8,0.7,5.6c2,1.5,1.2,4.5-0.4,6.1C268.7,191.8,267.1,191.3,266.8,189.9z M267.8,188.7
		c-0.7,1.1,0.9,2.1,1.5,0.8c0.4-0.8,0.3-1.8-0.1-2.5C268.9,187.5,268.1,188.1,267.8,188.7z"/>
        <path class="st5" d="M265.3,170.6c0.2-0.2,1.1-0.5,1.7-0.6c0.5-0.1,0.8,0.2,0.9,0.7c0.2,1,0.8,3.7,0.3,4.2
		c-1.1,1.2-2.7-2.5-2.9-3.2C265.2,171.1,265.2,170.7,265.3,170.6z M271.8,184.2c-1.6-2.2-3.2-4.9-4.1-7.2c-0.1-0.2-0.1-0.4,0-0.6
		c0.4-0.4,1.4-0.7,1.9-0.7c0.4-0.1,0.4,0.4,0.5,0.7c1.1,2.5,2.8,5.4,4,7.1c0.2,0.4,0.4,0.2,0.4-0.1c0-2.5-1.4-5.7-2.3-7.6
		c-0.2-0.5,0.5-0.8,0.7-0.3c0.8,1.9,3.6,8.1,1.8,9.8c-0.7,0.7-1.9,0.4-2.5-0.3C272.2,184.8,272,184.5,271.8,184.2z"/>
        <path class="st5" d="M271.1,173.7c-0.1-0.2-0.1-0.4,0-0.5c0.4-0.4,1.4-0.7,1.9-0.7c0.4,0,0.4,0.4,0.5,0.7c0.6,1.3,1.4,2.8,2.2,4.2
		c-0.8-2.3-1.7-5.2-1.5-7c0-0.2,0.1-0.4,0.2-0.5c0.3-0.3,1.7-1,2.1-0.6c0.1,0.1,0.1,0.2,0.2,0.3c0.1,0.2,0.2,0.5,0.3,0.7
		c1.1,2.4,2.7,5.1,3.9,6.7c0.2,0.4,0.4,0.3,0.4-0.1c0-2.5-1.4-5.7-2.3-7.6c-0.2-0.5,0.5-0.8,0.7-0.3c0.8,1.9,3.6,8.1,1.8,9.8
		c-0.7,0.7-1.8,0.7-2.2,0.1c-1.5-1.9-3.3-4.8-4.4-7.1c0.1,2.8,2.2,8.3,3.5,9.7c0.2,0.2,0.1,0.3,0,0.5c-0.5,0.5-1.8,0.7-2.2,0.3
		C274.2,179.9,272.2,176.5,271.1,173.7z"/>
        <path class="st5" d="M279.1,165c0.8-0.8,3.1-1.1,4-0.2c1.9,1.9,1.1,5.5-0.4,7.1c1,1.1,2.2,1.6,3.1,0.7c1.6-1.6-0.2-6.4-1.3-8.9
		c-0.2-0.5,0.5-0.8,0.7-0.3c1.2,2.7,3.5,8.2,1.2,10.5C281.6,178.6,276.3,167.8,279.1,165z M282.3,171.3c1.1-1.1,0.7-3.9-0.9-5.5
		c-0.4-0.4-0.9-0.2-1,0.3C280.2,167.5,281.1,169.8,282.3,171.3z"/>
</g>
    <g>
	<path class="st5" d="M225.1,333.9c0.8-0.1,1.5,0.2,1.9,0.6c2,2,1.6,7.3,3.6,9.3c0.1,0.1,0.2,0.2,0.1,0.3c-0.7,0.7-2.6,1.1-3.5,0.2
		c-2-2-0.6-6.3-2.3-8c-0.6-0.6-1.6-1-2.4-0.2c-5.5,5.5,5,25.5,11.1,19.4c0.7-0.7,1.4-1.8,1.6-2.8c0-0.2,0.1-0.2,0.3-0.1
		c0.1,0,0.3,0.2,0.4,0.5c0.8,1.6-0.1,3.3-1.2,4.4c-9.6,9.6-23.1-13.5-14.6-22C221.6,333.8,223.5,333.2,225.1,333.9z"/>
        <path class="st5" d="M234.3,335.8c1.8-1.8,4.4-2,5.7-0.7s2.4,3,3.1,4.8c0.1-2.3-0.2-4.8-1.2-7c-0.3-0.6,0.7-1.1,1-0.4
		c1.3,3.1,1.6,6.4,0.8,9.7c0.7,2.8,0.4,5.5-1.2,7.2c-2,2-5.3,1.2-6.7-0.3c-2.8-2.8-5-7.9-3.9-11.5
		C232.3,336.5,233.4,335.9,234.3,335.8z M240.3,347.5c0.6-0.7,0.8-1.2,1.3-2c-0.5-2.5-2.4-6-4.2-7.8c-1.9-1.9-3-1-2.9,1.2
		c0.2,3.4,3.4,8.2,5.6,9C240.2,347.7,240.2,347.6,240.3,347.5z"/>
        <path class="st5" d="M236.9,320.7c0.3-0.3,1.5-0.7,2.4-0.9c0.7-0.1,1.1,0.2,1.3,1c0.3,1.4,1.1,5.2,0.5,5.9c-1.6,1.7-3.7-3.5-4-4.5
		C236.7,321.5,236.7,320.9,236.9,320.7z M245.9,340c-2.2-3.1-4.5-6.9-5.7-10.1c-0.1-0.3-0.1-0.6,0.1-0.8c0.5-0.5,2-1,2.6-1
		c0.5-0.1,0.6,0.6,0.8,1c1.5,3.4,4,7.5,5.7,10c0.3,0.5,0.6,0.3,0.6-0.2c0-3.4-2-8-3.2-10.7c-0.3-0.7,0.7-1.1,1-0.5
		c1.2,2.6,5,11.4,2.6,13.8c-1,1-2.7,0.6-3.5-0.4C246.5,340.8,246.2,340.4,245.9,340z"/>
        <path class="st5" d="M252.4,322.4c-0.2-0.7,0.8-1.1,1-0.4c0.9,2.3,0.2,6-1.2,8c3.4,2.3,6.9,5.9,8.8,9.2c0.6,1,1.1,2.2,1.1,3.2
		c0,0.9-0.4,1.4-0.9,1.8c-0.7,0.7-2.3,1.4-2.9,0.8c-0.7-0.7-1.4-1.6-2.2-2.6c-4.7-5.9-9.8-13.4-13-20.1c-0.8-1.7-1.2-2.9-0.8-3.2
		c0.5-0.5,3.2-1.7,3.6-1.3c0.1,0.1,0.1,0.1,0.1,0.2c0,0.3,0,0.5,0.1,0.8c0.6,2.2,2.9,6.3,5.3,10.3
		C252.6,327.5,253.2,324.3,252.4,322.4z M260.3,340.2c-1.6-3.1-4.3-5.9-7-8.1c1.9,2.9,4,5.8,6.2,8.6c0.8,1,1.3,1.4,1.4,1.3
		C261.1,341.8,260.5,340.6,260.3,340.2z"/>
        <path class="st5" d="M258.1,316.7c-0.2-0.7,0.8-1.1,1-0.4c0.9,2.3,0.2,6-1.2,8c3.4,2.3,6.9,5.9,8.8,9.2c0.6,1,1.1,2.2,1.1,3.2
		c0,0.9-0.4,1.4-0.9,1.8c-0.7,0.7-2.3,1.4-2.9,0.8c-0.7-0.7-1.4-1.6-2.2-2.6c-4.7-5.9-9.8-13.4-13-20.1c-0.8-1.7-1.2-2.9-0.8-3.2
		c0.5-0.5,3.2-1.7,3.6-1.3c0.1,0.1,0.1,0.1,0.1,0.2c0,0.3,0,0.5,0.1,0.8c0.6,2.2,2.9,6.3,5.3,10.3
		C258.3,321.8,258.9,318.6,258.1,316.7z M266,334.5c-1.6-3.1-4.3-5.9-7-8.1c1.9,2.9,4,5.8,6.2,8.6c0.8,1,1.3,1.4,1.4,1.3
		C266.8,336.1,266.2,334.9,266,334.5z"/>
        <path class="st5" d="M266.7,319.2c0-0.1-0.1-0.1-0.1-0.3c0.9,2.6,1.3,5.1,0,6.4c-1.1,1.1-3.2,1-3.9,0.1c-0.3-0.4-0.6-0.8-0.9-1.2
		c-2.3-3-4.5-6.9-5.7-10.1c-0.1-0.3-0.1-0.6,0.1-0.8c0.5-0.5,2-1,2.6-1c0.5-0.1,0.6,0.6,0.7,1c1.4,3,3.4,6.6,5.1,9.1
		c0.5,0.8,1.1,1,1.4,0.6c1.4-1.4-2.9-9.5-3.7-11.3c-0.5-0.9-0.9-1.8-1.2-2.6c-0.1-0.3-0.1-0.6,0.1-0.8c0.5-0.5,2-1,2.6-1
		c0.5-0.1,0.6,0.6,0.8,1c1.5,3.4,4,7.5,5.7,10c0.3,0.5,0.6,0.3,0.6-0.2c0-3.4-2-8-3.2-10.7c-0.3-0.7,0.7-1.1,1-0.5
		c1.2,2.6,5,11.4,2.6,13.8c-1,1-2.7,0.6-3.5-0.4C267.3,320,267.1,319.6,266.7,319.2z"/>
        <path class="st5" d="M265.7,304.4c-0.1-0.3-0.1-0.6,0-0.8c0.6-0.6,2-1,2.7-1c0.5-0.1,0.6,0.6,0.7,1c0.8,1.9,1.9,4,3.1,5.9
		c-1.2-3.2-2.3-7.4-2.1-9.9c0-0.3,0.1-0.5,0.3-0.7c0.3-0.3,1.6-1,2.5-1c0.7,0,0.8,0.5,0.7,1c-0.1,1.8,0.8,3.7,1.7,4.7
		c0.7,0.7,1.2,0.8,1.6,0.5c1.2-1.2,0.1-4.6-0.3-6c-0.1-0.7,0.9-1,1.1-0.3c0.4,1.6,1.4,5,0.5,6.9c-0.6,1.3-3.2,2.2-4.6,1.1
		c-0.9-0.8-1.8-2.5-2.3-3.8c-0.1-0.4-0.2-0.2-0.1,0c0.4,4,3.1,11.1,4.8,13.1c0.3,0.3,0.1,0.5,0,0.6c-0.7,0.7-2.5,1-3.1,0.4
		C270.2,313.1,267.2,308.3,265.7,304.4z"/>
        <path class="st5" d="M276.8,292.3c1.1-1.1,4.4-1.5,5.6-0.3c2.6,2.6,1.6,7.7-0.6,9.9c1.4,1.6,3.1,2.3,4.4,1c2.3-2.3-0.3-9-1.9-12.5
		c-0.3-0.6,0.7-1.1,1-0.4c1.7,3.8,4.9,11.5,1.8,14.7C280.4,311.5,272.8,296.3,276.8,292.3z M281.3,301.2c1.5-1.5,0.9-5.5-1.3-7.8
		c-0.6-0.6-1.3-0.3-1.4,0.5C278.3,295.9,279.6,299.1,281.3,301.2z"/>
</g>
    <g>
	<path class="st5" d="M381.9,181c0.6-0.1,1.3,0.1,1.6,0.5c1.7,1.7,1.3,6.1,3,7.7c0.1,0.1,0.1,0.2,0,0.3c-0.6,0.6-2.2,0.9-2.9,0.2
		c-1.7-1.7-0.5-5.3-1.9-6.7c-0.5-0.5-1.3-0.9-2-0.2c-4.6,4.6,4.1,21.2,9.2,16.1c0.6-0.6,1.2-1.5,1.3-2.3c0-0.2,0.1-0.2,0.3-0.1
		c0.1,0,0.2,0.2,0.3,0.4c0.7,1.3,0,2.7-1,3.7c-8,8-19.2-11.2-12.2-18.3C379,180.9,380.6,180.4,381.9,181z"/>
        <path class="st5" d="M389.6,182.5c1.5-1.5,3.7-1.7,4.7-0.6s2,2.5,2.6,4c0.1-1.9-0.2-4-1-5.8c-0.2-0.5,0.6-0.9,0.9-0.4
		c1.1,2.6,1.3,5.4,0.7,8c0.6,2.3,0.4,4.6-1,6c-1.7,1.7-4.4,1-5.6-0.2c-2.3-2.3-4.2-6.6-3.2-9.6C387.9,183.1,388.8,182.7,389.6,182.5
		z M394.6,192.3c0.5-0.6,0.7-1,1.1-1.7c-0.4-2.1-2-5-3.5-6.5c-1.5-1.5-2.5-0.8-2.4,1c0.1,2.8,2.8,6.8,4.7,7.5
		C394.5,192.4,394.5,192.3,394.6,192.3z"/>
        <path class="st5" d="M403.3,181.9c0-0.1-0.1-0.1-0.1-0.2c0.8,2.1,1.1,4.2,0,5.3c-0.9,0.9-2.1,0.8-3,0.1c-2.9-2.3-5.6-7.6-4.5-11.2
		c0.3-1.2,1.7-1.4,3-1.9c0-0.1-0.1-0.3-0.2-0.4c-0.1-0.3-0.1-0.5,0-0.7c0.4-0.4,1.6-0.8,2.2-0.8c0.4-0.1,0.5,0.5,0.6,0.8
		c1.3,2.8,3.4,6.2,4.8,8.2c0.3,0.4,0.5,0.2,0.5-0.2c0-2.9-1.8-6.6-2.7-8.8c-0.2-0.6,0.6-0.9,0.8-0.4c1,2.2,4.3,9.4,2.3,11.4
		c-0.8,0.8-2.2,0.5-2.9-0.3C403.8,182.6,403.6,182.3,403.3,181.9z M399.4,175.9c-0.1-0.3-0.3-0.6-0.4-0.8c-0.3-0.1-0.6,0-0.9,0.3
		c-1.6,1.6,1.2,6.9,3.1,9.1c0.2,0.3,1,1.2,1.4,0.8C403.8,184,400.2,177.3,399.4,175.9z"/>
        <path class="st5" d="M403.9,167.4c1.1-1.1,3.3-1.2,4.3-0.2c1.3,1.3,2,3.3,1.4,3.9c-0.4,0.4-1.4,0.6-2,0.6c-0.4,0-0.5-0.4-0.4-0.8
		c0.2-0.8,0.1-1.7-0.3-2.4c-0.4-0.8-0.8-1.1-1.1-0.8c-2,2,3.1,11.5,5.9,8.6c2.1-2.1-0.3-7.4-1.6-10.4c-0.2-0.5,0.6-0.9,0.8-0.3
		c1.3,3.1,4.3,9.4,1.5,12.2C406.9,183.4,400.8,170.6,403.9,167.4z"/>
        <path class="st5" d="M413.2,161c0.1,3.4,1.6,7.8,3.3,10.4c0.2,0.3,0.5,0.7,0.8,1c0.2,0.2,0.2,0.4,0,0.6c-0.6,0.6-2.1,1-2.6,0.5
		C410.6,169.3,403,157,404,156c0.5-0.5,2.7-1.4,3-1.1c0,0,0.1,0.1,0.1,0.2c0,0.3,0,0.4,0.1,0.7c0.7,2.5,3.9,7.8,6.5,11.9
		c-1-2.7-1.5-5.8-1.3-8.1c0-0.3,0.1-0.4,0.3-0.6c0.4-0.4,2-1.2,2.5-0.7c0.1,0.1,0.1,0.2,0.2,0.3c0.1,0.3,0.2,0.6,0.3,0.8
		c1.3,2.8,3.2,5.9,4.5,7.9c0.3,0.4,0.5,0.3,0.5-0.2c0-2.8-1.7-6.7-2.7-8.9c-0.3-0.5,0.6-0.9,0.8-0.4c1,2.2,4.2,9.5,2.2,11.5
		c-0.8,0.8-2.2,0.5-2.9-0.3C416.3,166.7,414.5,163.7,413.2,161z"/>
        <path class="st5" d="M413.7,148c0.3-0.2,1.3-0.6,2-0.8c0.6-0.1,0.9,0.2,1.1,0.9c0.3,1.1,0.9,4.3,0.4,4.9c-1.3,1.4-3.1-2.9-3.4-3.8
		C413.6,148.6,413.6,148.2,413.7,148z M421.3,164c-1.9-2.6-3.7-5.7-4.8-8.4c-0.1-0.3-0.1-0.5,0-0.7c0.4-0.4,1.6-0.8,2.2-0.8
		c0.4-0.1,0.5,0.5,0.6,0.8c1.3,2.9,3.3,6.3,4.7,8.3c0.3,0.4,0.5,0.2,0.5-0.2c0-2.9-1.7-6.7-2.7-8.9c-0.2-0.6,0.6-0.9,0.8-0.4
		c1,2.2,4.2,9.5,2.2,11.5c-0.8,0.8-2.2,0.5-2.9-0.3C421.8,164.7,421.5,164.4,421.3,164z"/>
        <path class="st5" d="M420.4,151.7c-0.1-0.3-0.1-0.5,0-0.6c0.5-0.5,1.7-0.8,2.2-0.8c0.4,0,0.5,0.5,0.6,0.8c0.7,1.5,1.6,3.3,2.6,4.9
		c-1-2.7-1.9-6.1-1.8-8.2c0-0.2,0.1-0.4,0.3-0.6c0.3-0.3,2-1.2,2.4-0.7c0.1,0.1,0.1,0.2,0.2,0.3c0.1,0.3,0.2,0.5,0.3,0.8
		c1.3,2.7,3.2,5.9,4.6,7.8c0.3,0.4,0.5,0.3,0.5-0.2c0-2.9-1.7-6.7-2.7-8.9c-0.2-0.6,0.6-0.9,0.8-0.4c1,2.2,4.2,9.5,2.2,11.5
		c-0.8,0.8-2.1,0.8-2.6,0.1c-1.8-2.2-3.9-5.6-5.2-8.3c0.1,3.3,2.6,9.7,4.1,11.4c0.2,0.2,0.1,0.4,0,0.5c-0.6,0.6-2.1,0.8-2.6,0.4
		C424.1,158.9,421.7,154.9,420.4,151.7z"/>
        <path class="st5" d="M436.8,153.4c-0.9,0.9-2.1,0.9-3,0.1c-2.8-2.3-5.6-7.7-4.5-11.2c0.2-0.6,0.6-1,1.2-1.2
		c0.5-0.3,1.2-0.4,1.7-0.6c0-0.1-0.1-0.3-0.2-0.4c-0.1-0.3-0.1-0.5,0-0.6c0.5-0.5,1.6-0.8,2.2-0.8c0.3,0,0.4,0.2,0.5,0.5
		c0.1,0.3,0.2,0.5,0.4,0.8c1.1,2.2,2.4,4.3,3.5,6.1l0.2,0.3c0.1-2.4-0.2-5-1.4-7.6c-0.3-0.5,0.6-0.9,0.8-0.4
		c1.5,3.3,1.6,6.5,1.4,9.3c1.2,1.9,2.3,3.8,3.2,5.8c1,2.1,1.3,3.9-0.6,5.8c-0.6,0.6-1.4,0.9-2.3,0.8c-1.6-0.3-2.6-2-2.7-3.5
		c-0.1-1.8,0.6-3.8,0.9-5.5c-0.5-0.8-1-1.7-1.5-2.6C437.6,150.3,437.9,152.4,436.8,153.4z M434.9,150.7c0.2,0.3,1,1.2,1.4,0.8
		c1.1-1.1-2.5-7.8-3.2-9.3c-0.1-0.3-0.3-0.6-0.4-0.8c-0.3-0.1-0.6,0-0.9,0.3C430.2,143.3,433,148.6,434.9,150.7z M441,155.8
		c-0.5-1.1-1.2-2.4-2-3.8c-0.3,1.8-1.2,4.6,0.4,6c0.4,0.4,1.1,0.6,1.6,0.1C441.4,157.8,441.5,157,441,155.8z"/>
</g>
    <g>
	<path class="st5" d="M505.8,186.4c0.5-0.5,2.7-1.4,3-1.1c0,0,0.1,0.1,0.1,0.2c0,0.3,0,0.4,0.1,0.7c0.7,2.5,3.6,7.5,6.3,11.5
		c-1.5-2.8-2.8-5.7-3.9-8.3c-0.8-2-1.3-4.1-1.4-5.6c0-1.1,0.3-2.1,1-2.8c3.5-3.5,8.5,4.2,7.4,9.4c0.9-0.1,1.9,0,2.7,0.4
		c3.3,1.7,5.7,7.6,2.1,11.2c-0.7,0.7-1.6,1.1-2.6,1c-0.8,0-1.4-1-0.7-1c0.7,0.1,1.2-0.2,1.6-0.6c2.7-2.7-2.1-10.8-4-8.9
		c-0.3,0.5-0.9,1-1.3,1.2c-0.4,0.1-1.1-0.1-1.2-0.3c-0.1-0.3,0.3-1.1,0.7-1.5c1.1-3.8-2.4-10.8-4.3-8.9c-0.7,0.7-0.4,3,0.8,6.1
		c1.7,4.4,4.6,9.9,6.9,13.6c0.2,0.3,0.1,0.5-0.1,0.8c-0.6,0.6-2.1,1-2.6,0.5C512.6,199.9,504.8,187.3,505.8,186.4z"/>
        <path class="st5" d="M529.2,188.2c0-0.1-0.1-0.1-0.1-0.2c0.8,2.1,1.1,4.2,0,5.3c-0.9,0.9-2.1,0.8-3,0.1c-2.9-2.3-5.6-7.6-4.5-11.2
		c0.3-1.2,1.7-1.4,3-1.9c0-0.1-0.1-0.3-0.2-0.4c-0.1-0.3-0.1-0.5,0-0.7c0.4-0.4,1.6-0.8,2.2-0.8c0.4-0.1,0.5,0.5,0.6,0.8
		c1.3,2.8,3.4,6.2,4.8,8.2c0.3,0.4,0.5,0.2,0.5-0.2c0-2.9-1.8-6.6-2.7-8.8c-0.2-0.6,0.6-0.9,0.8-0.4c1,2.2,4.3,9.4,2.3,11.4
		c-0.8,0.8-2.2,0.5-2.9-0.3C529.8,188.9,529.5,188.6,529.2,188.2z M525.4,182.2c-0.1-0.3-0.3-0.6-0.4-0.8c-0.3-0.1-0.6,0-0.9,0.3
		c-1.6,1.6,1.2,6.9,3.1,9.1c0.2,0.3,1,1.2,1.4,0.8C529.7,190.3,526.1,183.6,525.4,182.2z"/>
        <path class="st5" d="M523.6,168.6c0.5-0.5,2.7-1.4,3-1.1c0,0,0.1,0.1,0.1,0.2c0,0.3,0,0.4,0.1,0.7c0.6,2.1,2.8,6,5,9.6
		c-0.4-1.1-0.7-2.1-0.9-3.3c-0.2-1.2-0.2-2.3,0.4-2.9c1-1,3.2-0.6,4,0.2c1.3,1.3,2.3,3.4,2.9,5.5c0.3-1.9,0.1-4.1-0.9-6.5
		c-0.2-0.5,0.6-0.9,0.9-0.4c1.2,2.8,1.4,5.9,0.5,8.9c0.3,2.2,0.1,4.1-0.7,5c-0.3,0.3-0.8,0.4-1.2,0.4c0.1,0.1,0.4,0.4,0.1,0.7
		c-0.6,0.6-2.1,1-2.6,0.5C530.4,182.1,522.6,169.5,523.6,168.6z M532.8,178c0.7,2,1.6,3.8,2.8,5.5c0.4-0.5,0.8-1.1,1.2-1.9
		c-0.3-2.1-1.8-5.4-3.8-7.6c-0.7-0.8-1.3-0.5-1.2,0.5C532.2,175.7,532.5,176.9,532.8,178z"/>
        <path class="st5" d="M540.2,163.5c0.5-0.5,1.6-0.8,2.2-0.8c0.3,0,0.4,0.2,0.5,0.5c0.1,0.3,0.2,0.5,0.4,0.8c1.2,2.1,2.4,4.3,3.6,6.1
		l0.2,0.3c0.1-2.4-0.2-5-1.4-7.6c-0.3-0.5,0.6-0.9,0.8-0.4c1.5,3.3,1.6,6.5,1.4,9.3c1.2,1.9,2.3,3.8,3.2,5.8c1,2.1,1.3,3.9-0.6,5.8
		c-0.6,0.6-1.4,0.9-2.3,0.8c-1.6-0.3-2.6-2-2.7-3.5c-0.1-1.9,0.6-3.8,0.9-5.5c-0.5-0.8-1.1-1.7-1.6-2.5c0.8,2.1,1.1,4.2,0,5.2
		c-0.9,0.9-2.7,0.8-3.3,0.1c-0.3-0.4-0.5-0.7-0.8-1c-1.9-2.6-3.7-5.7-4.8-8.4c-0.1-0.3-0.1-0.5,0-0.7c0.4-0.4,1.6-0.8,2.2-0.8
		c0.4-0.1,0.5,0.5,0.6,0.8c1.1,2.5,2.9,5.5,4.2,7.6c0.4,0.7,0.9,0.8,1.2,0.5c1-1-1.7-6.6-2.7-8.8c-0.1-0.1-0.2-0.3-0.3-0.4
		c-0.4-0.8-0.8-1.5-1.1-2.3C540.1,163.9,540.1,163.6,540.2,163.5z M549.1,179.9c-0.5-1.1-1.2-2.4-2-3.8c-0.3,1.8-1.2,4.6,0.4,6
		c0.4,0.4,1.1,0.6,1.6,0.1C549.6,181.9,549.6,181.1,549.1,179.9z"/>
        <path class="st5" d="M548.7,169.6c-0.2-0.9,0.2-1.8,0.8-2.5c0.4-0.6,1-1.1,1.3-1.7c-1.6-1.2-4.1-0.4-5.9-2.3
		c-1.5-1.5-1.1-3.7,0.2-5c0.8-0.8,3.1-0.7,4,0.1c0.5,0.5,0.8,1.9,0.5,2.2c-0.5,0.5-1.6,0.9-1.8,0.7c0,0,0-0.1,0-0.1
		c0.4-0.4,0.1-1.4-0.4-1.8c-0.3-0.3-0.6-0.4-0.9-0.1c-0.6,0.6,0.2,1.9,0.6,2.3c1.2,1.2,3.4,0.9,5,1.4c0.6-2,0.2-3.9-0.8-5.8
		c-0.3-0.5,0.5-0.9,0.8-0.4c1.2,2.4,1.4,4.5,0.8,6.6c2.3,1.8,1.4,5.3-0.4,7.1C550.9,171.8,549.1,171.2,548.7,169.6z M549.8,168.2
		c-0.8,1.3,1,2.4,1.7,0.9c0.4-0.9,0.4-2.1-0.1-3C551.1,166.8,550.2,167.5,549.8,168.2z"/>
        <path class="st5" d="M553.5,145c0.1,0.3,0.3,0.6,0.4,0.9c0.7-0.7,1.6-1.4,2.1-1.5c0.2,0,1,0.5,1.2,0.7c0.1,0.1,0.2,0.2,0.2,0.3
		c0,0,0,0-0.1,0.1c-0.9,0.5-1.8,1.3-2.6,2c2,3.6,4.6,7.8,6.5,10.2c0.5,0.6,0.7,0.6,0.7-0.1c-0.1-2.8-1.3-6.9-2.3-9
		c-0.3-0.5,0.6-0.9,0.8-0.4c1,2.2,3.7,10,1.8,11.9c-1.3,1.3-2.7-0.1-3.5-1.1c-0.3-0.3-0.5-0.6-0.8-1c0.8,2.6,1.2,5.2,0.1,6.3
		c-0.8,0.8-2.2,0.5-2.9-0.3c-0.3-0.4-0.5-0.7-0.8-1c-1.9-2.6-3.7-5.8-4.8-8.4c-0.1-0.3-0.1-0.5,0-0.6c0.5-0.5,1.6-0.8,2.2-0.9
		c0.4,0,0.5,0.6,0.6,0.8c1.3,2.9,3.3,6.3,4.8,8.3c0.3,0.4,0.5,0.2,0.5-0.2c0-2-0.8-4.5-1.7-6.6c-1.2-1.8-2.4-3.7-3.5-5.5
		c-0.2,0.2-0.3,0.4-0.5,0.5c-1,1-2.4,1.8-3.6,0.6c-0.7-0.7-1.2-1.9-1.5-2.8c-0.2-0.7-0.3-1.1-0.1-1.2c0.3-0.3,1.3-0.6,2-0.8
		c0.6-0.1,0.9,0.2,1.1,0.9c0.1,0.7,0.4,1.9,0.5,3.1c0.4-0.5,0.8-1,1.2-1.5c-0.4-0.8-0.9-1.5-1.2-2.3c-0.3-0.8-0.4-1.3-0.2-1.6
		c0.5-0.5,2.5-1.3,2.9-0.9c0,0,0.1,0.1,0.1,0.2c0,0.1,0,0.1,0,0.2C553.3,144.5,553.4,144.7,553.5,145z"/>
        <path class="st5" d="M558.1,140.5c0.1,0.3,0.3,0.6,0.5,0.9c0.7-0.7,1.5-1.4,2-1.5c0.2-0.1,1,0.4,1.2,0.7c0.1,0.1,0.2,0.2,0.2,0.4
		c0,0,0,0-0.1,0.1c-0.9,0.4-1.8,1.3-2.5,2c2,3.6,4.6,7.8,6.5,10.2c0.5,0.6,0.7,0.6,0.6-0.1c-0.1-2.8-1.3-6.9-2.3-9
		c-0.2-0.6,0.6-0.9,0.8-0.4c1,2.2,3.7,10,1.8,11.9c-1.3,1.3-2.7-0.1-3.5-1.1c-1.9-2.3-4.3-5.9-6.2-9.1c-0.2,0.2-0.4,0.4-0.5,0.5
		c-0.4,0.4-1.5,1.5-2.3,1.1c-0.3-0.1-0.3-0.3-0.1-0.5c0.8-0.8,1.4-1.6,2.1-2.5c-0.4-0.8-0.9-1.5-1.2-2.3c-0.3-0.8-0.4-1.3-0.2-1.6
		c0.5-0.5,2.5-1.3,2.9-0.9c0,0,0,0.1,0,0.2c0,0,0,0.1,0,0.2C557.9,140,558,140.2,558.1,140.5z"/>
        <path class="st5" d="M560,134c0.3-0.2,1.3-0.6,2-0.8c0.6-0.1,0.9,0.2,1.1,0.9c0.3,1.1,0.9,4.3,0.4,4.9c-1.3,1.4-3.1-2.9-3.4-3.8
		C559.8,134.6,559.8,134.2,560,134z M567.5,150c-1.9-2.6-3.7-5.7-4.8-8.4c-0.1-0.3-0.1-0.5,0-0.7c0.4-0.4,1.6-0.8,2.2-0.8
		c0.4-0.1,0.5,0.5,0.6,0.8c1.3,2.9,3.3,6.3,4.7,8.3c0.3,0.4,0.5,0.2,0.5-0.2c0-2.9-1.7-6.7-2.7-8.9c-0.2-0.6,0.6-0.9,0.8-0.4
		c1,2.2,4.2,9.5,2.2,11.5c-0.8,0.8-2.2,0.5-2.9-0.3C568,150.6,567.8,150.3,567.5,150z"/>
        <path class="st5" d="M566.7,137.7c-0.1-0.3-0.1-0.5,0-0.6c0.5-0.5,1.7-0.8,2.2-0.8c0.4,0,0.5,0.5,0.6,0.8c0.7,1.5,1.6,3.3,2.6,4.9
		c-1-2.7-1.9-6.1-1.8-8.2c0-0.2,0.1-0.4,0.3-0.6c0.3-0.3,2-1.2,2.4-0.7c0.1,0.1,0.1,0.2,0.2,0.3c0.1,0.3,0.2,0.5,0.3,0.8
		c1.3,2.7,3.2,5.9,4.6,7.8c0.3,0.4,0.5,0.3,0.5-0.2c0-2.9-1.7-6.7-2.7-8.9c-0.2-0.6,0.6-0.9,0.8-0.4c1,2.2,4.2,9.5,2.2,11.5
		c-0.8,0.8-2.1,0.8-2.6,0.1c-1.8-2.2-3.9-5.6-5.2-8.3c0.1,3.3,2.6,9.7,4.1,11.4c0.2,0.2,0.1,0.4,0,0.5c-0.6,0.6-2.1,0.8-2.6,0.4
		C570.4,144.9,567.9,140.9,566.7,137.7z"/>
        <path class="st5" d="M583.1,139.4c-0.9,0.9-2.1,0.9-3,0.1c-2.8-2.3-5.6-7.7-4.5-11.2c0.2-0.6,0.6-1,1.2-1.2
		c0.5-0.3,1.2-0.4,1.7-0.6c0-0.1-0.1-0.3-0.2-0.4c-0.1-0.3-0.1-0.5,0-0.6c0.5-0.5,1.6-0.8,2.2-0.8c0.3,0,0.4,0.2,0.5,0.5
		c0.1,0.3,0.2,0.5,0.4,0.8c1.1,2.2,2.4,4.3,3.5,6.1l0.2,0.3c0.1-2.4-0.2-5-1.4-7.6c-0.3-0.5,0.6-0.9,0.8-0.4
		c1.5,3.3,1.6,6.5,1.4,9.3c1.2,1.9,2.3,3.8,3.2,5.8c1,2.1,1.3,3.9-0.6,5.8c-0.6,0.6-1.4,0.9-2.3,0.8c-1.6-0.3-2.6-2-2.7-3.5
		c-0.1-1.8,0.6-3.8,0.9-5.5c-0.5-0.8-1-1.7-1.5-2.6C583.8,136.3,584.1,138.4,583.1,139.4z M581.1,136.7c0.2,0.3,1,1.2,1.4,0.8
		c1.1-1.1-2.5-7.8-3.2-9.3c-0.1-0.3-0.3-0.6-0.4-0.8c-0.3-0.1-0.6,0-0.9,0.3C576.4,129.3,579.2,134.5,581.1,136.7z M587.2,141.8
		c-0.5-1.1-1.2-2.4-2-3.8c-0.3,1.8-1.2,4.6,0.4,6c0.4,0.4,1.1,0.6,1.6,0.1C587.7,143.8,587.8,142.9,587.2,141.8z"/>
</g>
    <path class="st6" d="M480.5,498.8c0,0,2.1-8.7,10.5-14.1"/>
    <path class="st6" d="M486.6,499.8c0,0,2.1-8.7,10.5-14.1"/>
    <path class="st6" d="M471.9,499.1c0,0,2.5-9.9,12.9-16"/>
    <path class="st6" d="M476.1,485.8c0,0,12-2.4,23.7,5.3"/>
    <path class="st6" d="M472.9,490.2c0,0,12-2.4,23.7,5.3"/>
    <path class="st6" d="M470.5,495.9c0,0,10.7-2.7,20.5,2.5"/>
    <g>
	<path class="st5" d="M475.8,414.1c0.4,0.3,0.8,0.5,1.2,0.8c0.1,0.1,0.3,0.1,0.4,0.2c-1.2-2.4-1.9-5.1-2.2-8.1
		c-0.6-6.4,1-12.5,3.5-18.4c0.5-1.2,1-2.5,1.6-3.8c-0.8,0.1-1.1,0.3-1.3,0.7c-2.6,4-3.9,8.5-4.9,13.2c-1.2,5.4-0.9,10.5,0.8,15.1
		C475.2,413.8,475.5,413.9,475.8,414.1z"/>
        <path class="st5" d="M497,447.7c-0.9-0.1-2,0-2.7-0.4c-3.9-1.9-7.7-3.9-11.4-6.1c-0.7-0.4-1.4-2-1.1-2.5c0.9-1.4,1.8-0.3,2.8,0.4
		c3.5,2.3,7,4.5,10.5,6.6c0.7,0.4,1.5,0.7,2.3,1.1C497.1,447.2,497.1,447.4,497,447.7z"/>
        <path class="st5" d="M492.4,433.3c4.1,2.9,7.7,5.6,11.6,8.4C499.7,442,493.5,437.6,492.4,433.3z"/>
        <path class="st5" d="M501.1,446.7c-3.9-0.2-9.3-5.2-8.9-8.6C495.2,441.1,498.1,443.8,501.1,446.7z"/>
        <path class="st5" d="M455.6,317.4c3.4-0.1,6.8,0.5,10.1,1.6c7.8,2.7,13.5,8.1,17.9,15.1c1.8,2.8,4.1,5.3,6.2,7.8
		c0.4,0.5,1.3,0.7,1.9,0.8c3.8,0.5,6.6,3.3,7.6,7.4c0.8,3.2-0.8,7.1-3.5,9.1c-0.7,0.5-1.1,1.5-1.4,2.3c-1.4,4.3-2.4,8.7-4.1,12.8
		c-1.7,4.2-2.2,4.1-6.6,3.1c-0.5-0.1-1.1-0.2-2-0.4c2.3-3.9-0.6-5.6-2.9-7.8c-2.3-2.3-4.1-5.1-5.8-8.1c3.9,6,9.4,6.7,15.6,4.9
		c2.3-0.7,4.3-2.3,4.4-5.4c-3.9,0.1-6.7-1.4-7.9-5.3c-1.6-4.9-0.8-9,3.1-12.1c-2.9-4.1-5.6-8.2-8.6-12
		c-10.3-12.9-26.6-16.1-39.8-5.2c-2.5,2-4.6,4.4-7.1,6.4c-0.7,0.6-2,1.2-2.8,0.9c-4.9-1.5-9.1,1.9-10.2,4.8
		c-2.3,5.7-0.9,11.8,3.4,14.9c4.2,3.1,4,2.9,1,7.2c-3.8,5.5-7.5,11.1-10.8,17c-5.1,9-9.3,18.4-11.5,28.6c-1.6,7.3-2.4,14.9-3.8,22.2
		c-1.6,8-1.6,16.1-1.1,24.2c0.3,4.9,0.9,9.8,1.6,14.6c0.6,3.8,1.3,7.6,2.3,11.3c2.8,10,8.4,17.4,18.2,22.1c10.5,5,21.3,8.4,32.5,11
		c6.9,1.6,14,1.9,21,0.8c2.4-0.4,4.8-0.8,5.5-3.8c0.5-2.5-0.7-4.9-3.5-6.4c-2.5-1.4-5.2-2.3-7.8-3.5c-4.6-2.1-9.4-4.2-12.8-8.1
		c-1.7-1.9-2.9-4.4-4.3-6.6c0.3-0.3,0.7-0.5,1-0.8c3,4.7,6.3,9.2,12.2,11.3c6.4-7.6,11.8-16.1,14.2-26c2.3-9.7,3.6-19.6,5.3-29.5
		c0.1,0.5,0.4,1,0.4,1.5c-0.4,5.3-0.2,10.7-1.3,15.8c-1.7,8-4.1,15.8-6.3,23.7c-0.6,2-1.7,3.9-2.8,5.7c-0.7,1.2-0.5,2,0.7,2.5
		c3.7,1.7,7.5,3.4,11.2,5.1c3.9,1.8,8,3.5,11.6,5.7c3.4,2.1,4.1,4.8,3.1,7.5c-1,3-4,5.1-7.6,4.5c-5.1-0.9-9.7-0.6-14.6,1.8
		c-5.5,2.7-11.9,1.9-17.9,1.3c-14.4-1.5-28.1-5.7-41.2-11.6c-4.5-2-8.4-5.3-12.6-8.1c-0.5-0.3-1.1-0.9-1.6-0.9
		c-9,0.2-17.4-2.7-25.9-5.3c-7.3-2.2-13.6-6.2-18.7-11.8c-2.1-2.3-3.5-5.4-4.7-8.4c-0.8-2.1,0.2-3.7,2.5-5.1c5.8-3.3,11.9-3,18-2.2
		c6.4,0.8,12.7,2.2,19,3.3c-2.5-39.4,5-76.5,31.9-107.3c-2.2-1.9-4.6-3.5-6.2-5.7c-3.5-4.9-2.7-13.7,1.2-18.1c2.2-2.5,4.7-3.8,8-3.2
		c1.8,0.4,2.8-0.3,4.1-1.5c4.7-4.2,9.9-7.9,16.1-9.7C450.8,317.8,453.2,317.4,455.6,317.4 M470,489.1c-1.3,1.9-2.9,4.1-4.6,6.5
		c4.2,1.9,8.3,3.5,12.1,5.6c1.9,1,4,2.6,4.9,4.5c1,2.2,2.3,2.7,4.2,2.9c1.3,0.1,2.7,0.6,3.9,0.3c1.8-0.5,3.9-1.2,4.9-2.5
		c0.6-0.8-0.1-3.4-1.1-4.5c-1.6-2-3.6-3.9-5.9-5C482.5,494.1,476.4,491.8,470,489.1z M486.9,376.1c0.4-2.5,0.8-5.1,1.2-7.7
		c-2.5-0.5-3.8-0.1-3.9,2.3c0,0.8-0.2,1.6-0.4,2.4C483.3,375.4,484.3,376.3,486.9,376.1z M495.1,345c-2.4,2.5-1.7,4.4,2.1,5.6
		C496.4,348.6,495.8,347,495.1,345z M488.7,373.2c0.2,0.1,0.5,0.2,0.7,0.2c0.7-2.2,1.5-4.4,2.4-7.1
		C487.8,368,490.3,371.2,488.7,373.2z"/>
        <path class="st5" d="M434,404c2.9,2.7,5.9,5.2,8.8,8c12.2,11.9,27,18.5,43.8,20c10.1,0.9,19.9-1.7,29.1-6c2.2-1,4.3-2.4,6.5-3.5
		c0.6-0.3,1.3-0.5,1.9-0.8c0.2,0.2,0.3,0.5,0.5,0.7c-1.2,1-2.3,2.1-3.6,2.8c-13.4,7.4-27.8,10.3-42.9,7.9
		c-17.2-2.8-31.2-11.3-42.1-24.9c-1-1.2-1.6-2.6-2.4-4C433.6,404.3,433.8,404.1,434,404z"/>
        <path class="st5" d="M460.1,397.4c2,2.4,4,4.7,6,7.1c9.6,11.7,22.3,14.6,36.5,12.1c4.4-0.8,7.4-4.3,10.3-7.6
		c0.6-0.7,1.2-1.6,1.8-2.4c1.8,0.9,1.5,2.1,0.7,3.4c-5.3,8.1-15.3,12.1-24.8,10.3c-6.5-1.2-12.4-3.8-17.8-7.4
		c-5.4-3.6-9.1-8.9-12.7-14.2c-0.2-0.3-0.2-0.7-0.3-1.1C459.9,397.6,460,397.5,460.1,397.4z"/>
        <path class="st5" d="M477.5,370.1c-0.2,2.9-1.9,4.1-3.8,5.2c-1,0.6-2.3,0.9-3.4,1.4c-3.3,1.4-6.6,2.9-9.5,4.1
		c1-2.6,3.7-4.4,6.9-5.2c3.3-0.8,6.1-2.3,8.3-4.8C476.2,370.5,476.8,370.4,477.5,370.1z"/>
        <path class="st5" d="M427.3,350.4c-2.3-4.5-3-9.1-1-14.1C429.5,341,428,345.7,427.3,350.4z"/>
        <path class="st5" d="M468.5,348.6c-1.4-1.6-2.6-3.6-4.4-4.5c-1.8-0.9-4.2-0.7-6.3-1c1.7-2.2,6.2-2.3,8.8-0.1
		C469.3,345.2,469.9,347,468.5,348.6z"/>
        <path class="st5" d="M511.9,416.4c3.2-2.7,6-5.2,9-7.7C521.4,412.7,516.4,417.2,511.9,416.4z"/>
        <path class="st5"
              d="M521.4,415.9c-1.8,3.9-5,5.7-8.8,5.4c-0.1-0.2-0.2-0.4-0.3-0.7C515.1,419.2,517.9,417.7,521.4,415.9z"/>
        <path class="st7" d="M470,489.1c6.4,2.7,12.5,5,18.4,7.8c2.3,1.1,4.3,3,5.9,5c0.9,1.1,1.7,3.7,1.1,4.5c-1,1.3-3.1,2-4.9,2.5
		c-1.2,0.3-2.6-0.1-3.9-0.3c-1.9-0.2-3.2-0.7-4.2-2.9c-0.8-1.9-2.9-3.5-4.9-4.5c-3.8-2.1-7.9-3.7-12.1-5.6
		C467.1,493.2,468.7,491,470,489.1z"/>
        <path class="st7" d="M486.9,376.1c-2.6,0.1-3.6-0.7-3-3c0.2-0.8,0.3-1.6,0.4-2.4c0.1-2.3,1.4-2.8,3.9-2.3
		C487.7,371,487.3,373.6,486.9,376.1z"/>
        <path class="st7" d="M495.1,345c0.7,2,1.3,3.5,2.1,5.6C493.4,349.4,492.7,347.5,495.1,345z"/>
        <path class="st7"
              d="M488.7,373.2c1.6-1.9-0.8-5.2,3.1-6.9c-0.9,2.7-1.6,4.9-2.4,7.1C489.2,373.3,488.9,373.2,488.7,373.2z"/>
</g>
    <path class="st6" d="M375.1,483c0,0,1.4-11.7,11.3-17.1"/>
    <path class="st6" d="M383,486c0,0,1.4-11.7,11.3-17.1"/>
    <path class="st6" d="M365.3,481.6c0,0,1.8-13.3,14-19.2"/>
    <path class="st6" d="M360.8,462.9c0,0,18.4-1.2,37.7,14.2"/>
    <path class="st6" d="M358,467.4c0,0,17.9-0.8,36.9,15.2"/>
    <path class="st6" d="M359.3,473.5c0,0,14.4-0.5,29,11.7"/>
    <path class="st6" d="M389.3,488c0,0,1.1-9.4,9.4-13.7"/>
    <g>
	<path class="st5" d="M648.8,473.1c5.7-0.6,11.1-1.3,16.5-1.6c5.3-0.3,10.4,0.6,14.9,3.6c6.6,4.3,5.9,11.3,1.1,16.3
		c-5.5,5.7-12.9,8.2-20.3,10.2c-10.1,2.8-20.4,4.1-30.9,3.1c-1.1-0.1-2.4-0.1-3.4,0.5c-7.3,4.1-15.4,3.8-23.4,4.3
		c-7.3,0.4-14.5,0.8-21.8,0.9c-5.2,0.1-10.4-0.1-15.6-0.1c-3.2,0-6.3,0.2-9.4-1.3c-4.3-2.1-5.2-5.9-1.4-8.9c2.1-1.7,4.8-2.8,7.5-3.6
		c4.6-1.4,9.5-2.3,14.2-3.6c5.4-1.5,9.9-4.5,13.8-8.4c0.7-0.7,1.5-1.3,2.2-1.9c0.3,0.3,0.6,0.5,0.9,0.8c-2.2,2.6-4,5.7-6.6,7.8
		c-6.9,5.6-15.8,6.3-23.9,8.8c-0.9,0.3-2.1,0.5-2.6,1.2c-0.9,1.2-2.1,2.8-2.1,4.1c0.1,2,2.3,1.8,3.8,1.8c6.5,0,13,0,19.5-0.1
		c7.2-0.2,14.3-0.6,21.5-1c4.6-0.3,9.2-0.8,13.8-1.1c5-0.2,8.4-3.3,12.1-6.1c0.5-0.4,0.8-0.8,1.3-1.2c11.6-9,14.8-21.7,14.7-35.4
		c-0.1-9.7-0.7-19.5-2.3-29.1c-1.6-9.3-4.6-18.4-7.3-27.5c-3.4-11.8-10.2-21.8-17.8-31.2c-2.3-2.8-5.3-4.9-8-7.3
		c-1.2-1-2.4-2-3.5-3.1c-0.3-0.4-0.2-1.2-0.3-1.8c0.5,0,1.2-0.3,1.6-0.1c3,1.9,6.3,3.4,8.8,5.8c7.1,6.8,12.4,15,17.1,23.5
		c5.3,9.5,9.5,19.4,12.2,30c4.3,16.7,6,33.5,3.1,50.5C648.8,472.3,648.8,472.7,648.8,473.1z"/>
        <path class="st5" d="M535.8,489.2c-0.8-2.2-1.5-4.1-2.2-6c-4.1-10.7-5.1-21.8-3.4-33.1c0.7-4.3,2.3-8.5,3.6-12.8
		c0.2-0.7,1.2-1.1,1.8-1.7c0.2,0.8,0.6,1.7,0.4,2.4c-5.4,19.4-2.6,37.9,6.1,55.8c0.3,0.5,0.7,1,0.7,1.6c0,0.6-0.3,1.2-0.4,1.8
		c-0.6-0.2-1.3-0.3-1.7-0.7c-0.6-0.6-0.9-1.4-1.5-2c-0.8-0.7-1.7-1.7-2.6-1.7c-4.1,0.2-8.3,0.4-11.9,2.8c-1.6,1.1-2.2,2.7-1.9,4.5
		c0.4,2.1,1.5,3.7,4,3.7c6.5,0.1,13,0.1,19.5,0.2c0.8,0,1.6,0.4,2.4,0.6c0,0.3,0.1,0.6,0.1,0.8c-0.9,0.4-1.7,1.2-2.6,1.3
		c-5.6,0.7-11.1,1.4-16.7,1.6c-2.9,0.1-5.8-0.7-8.7-1.5c-3.2-0.9-5.3-3.6-5.5-6.4c-0.1-2.7,2-6.6,4.8-7.5c4.1-1.3,8.4-2.2,12.7-3.2
		C533.8,489.6,534.5,489.5,535.8,489.2z"/>
        <path class="st5" d="M557.7,459.2c0.9-0.2,1.8-0.6,2.7-0.7c7.1-0.8,13.2-4.1,19.1-7.8c3.8-2.4,7.4-5.2,10.7-8.3
		c5.6-5.3,9.3-11.8,10.1-19.6c0.6-5.7-0.6-11.3-2.2-16.8c-0.2-0.6-0.9-1.4,0.3-1.8c1-0.4,1.5,0.2,1.8,1c0.6,1.8,1.4,3.5,1.8,5.4
		c2,9.1,0.4,17.7-4.2,25.6c-3.1,5.3-7.6,9.3-12.7,12.8c-5.8,4-11.8,7.2-18.3,9.7c-2.4,0.9-5.1,1.1-7.7,1.5c-0.5,0.1-1-0.3-1.5-0.4
		C557.7,459.6,557.7,459.4,557.7,459.2z"/>
        <path class="st5" d="M607.9,356.5c3.9-3.9,5.9-8.7,6.2-14.2c0.3-5-2.4-8.5-6.2-11.1c-2.2-1.4-4.8-1.1-7,0.5
		c-3.4,2.5-6.5,3-10.5,0.8c-3.1-1.8-6.8-3-10.4-3.6c-9.2-1.5-18.3-0.3-27,2.7c-5.8,2-8.5,7-11,12.1c-0.3,0.7-0.6,1.4-1,2.1
		c-0.3-0.1-0.5-0.1-0.8-0.2c0.3-1.4,0.4-2.8,0.9-4.1c3-6.5,7.9-11.1,14.7-13.4c6.6-2.3,13.5-2.8,20.5-2.5c5.7,0.2,11.1,1.2,16.4,3.2
		c0.7,0.3,1.8,0.1,2.5-0.4c7.3-5.2,19.4-0.8,20.6,10c0.6,5.5-0.5,10.7-3.9,15.2c-0.9,1.3-2.2,2.3-3.4,3.4
		C608.3,356.8,608.1,356.7,607.9,356.5z"/>
        <path class="st5" d="M549.6,364.8c-4.9-0.1-8.2-3.7-8.1-8.9c0.1-5,4.7-9.6,9.5-9.6c4.7,0,7.9,4.1,7.8,9.8
		C558.8,360.8,554.6,364.9,549.6,364.8z M556.3,352.5c-2.1,1.7-2.1,2.8,0,4.1C556.3,355.2,556.3,354.1,556.3,352.5z"/>
        <path class="st5" d="M567.7,370.5c0,3,0,6-1.9,8.8c-1.3,2-2.4,4.1-3.8,6c-0.7,0.9-1.8,2-2.8,2.1c-3.8,0.4-7.6,0.6-11.4,0.7
		c-2.3,0.1-8.4-6.6-8.2-8.9c0-0.2,0.2-0.5,0.2-0.7c1.5,1,2.9,2.3,4.5,3c1.7,0.7,3.5,0.8,5.1-0.8c-2.2-4.1-4.2-8.3-1.8-13.5
		c0.6,2.6,0.9,4.8,1.5,7c1.3,4.8,3.7,6.7,8.4,6.8c3.2,0.1,6.1-2.1,7.6-6.1c0.6-1.5,1-3.1,1.5-4.6
		C567.2,370.4,567.5,370.4,567.7,370.5z M553.6,384c0,0.3,0,0.7,0,1c1.5-0.1,3-0.2,4.5-0.3c0-0.2,0-0.5,0-0.7
		C556.6,384,555.1,384,553.6,384z"/>
        <path class="st5" d="M529.3,408.8c-3,0.2-5.6,0.3-8.3-0.8c-0.5-0.2-0.7-1.1-1-1.7c0.7-0.1,1.4-0.4,1.9-0.2
		c7.1,2.4,12.6-0.3,17.2-5.5c1.3-1.5,2.7-2.9,3.8-4.6c1-1.5,3.2-2.1,3.4-0.7c0.2,1.4-0.5,2.2-0.8,2.5
		C544.9,398.7,537.3,407.6,529.3,408.8z"/>
        <path class="st5" d="M535.8,358.1c-0.2,0.8-0.3,1.7-0.6,2.5c-2.8,8.4-1.1,15.9,3.9,22.9c0.4,0.6,0.2,1.6,0.2,2.4
		c-0.8-0.1-2,0.1-2.4-0.3c-1-1.1-1.7-2.4-2.4-3.7c-3.6-7.3-4.5-14.8-0.7-22.4c0.3-0.6,0.9-1.2,1.3-1.8
		C535.4,357.9,535.6,358,535.8,358.1z"/>
        <path class="st5" d="M607.9,349.9c-1-0.6-1.5-0.9-1.9-1.2c-0.3-0.2-0.4-0.6-0.6-0.8c-2.3-1.9-3.6-3.9-2-7.1c0.6-1.3-0.5-3.3-0.7-5
		c-0.1-0.6,0.2-1.1,0.4-1.7c0.5,0.2,1.1,0.3,1.3,0.6c2.3,4,4.5,8.1,4.4,12.9C608.8,348.3,608.3,349,607.9,349.9z"/>
        <path class="st5" d="M564.2,456.1c-2.4,0.4-4.7,0.8-7,1c-0.4,0-1-0.7-1.5-1c0.5-0.3,1-0.7,1.5-0.8c2.1-0.4,4.2-0.6,6.2-0.9
		c0.4,0,0.9,0.2,1.3,0.3C564.6,455.1,564.5,455.5,564.2,456.1z"/>
        <path class="st5" d="M517.9,420.4c-2.5-1.1-4.8-2-7-3.1c-0.4-0.2-0.5-1.1-0.7-1.6c0.7-0.2,1.4-0.6,2-0.5c2.2,0.4,4.3,0.9,6.4,1.6
		c0.8,0.3,1.4,1.2,2,1.8C519.8,419.1,519,419.7,517.9,420.4z"/>
        <path class="st5" d="M553.6,451.9c2.9-0.3,5.9-0.7,8.8-1c0,0.2,0.1,0.5,0.1,0.7c-2.2,1.5-4.7,1.8-7.3,1.7c-0.6,0-1.2-0.6-1.8-1
		C553.4,452.2,553.5,452.1,553.6,451.9z"/>
        <path class="st5"
              d="M516.3,421.9c-2.6,2.8-9.4,1.6-12.1-1.8c0.6-0.3,1.2-0.9,1.6-0.8C509.3,420.1,512.6,421,516.3,421.9z"/>
        <path class="st5" d="M513,410.8c0.8,0,1.5-0.1,2.1,0c1.5,0.3,3,0.6,4.5,1.1c0.8,0.2,1.4,0.8,2.1,1.2c-0.7,0.6-1.3,1.5-2.1,1.6
		C516.3,415.4,514.3,414.2,513,410.8z"/>
        <path class="st5" d="M561.4,447c-0.2,0.5-0.2,1.1-0.4,1.1c-1.7,0.4-3.4,0.7-5.1,1c-0.2,0-0.6-0.5-0.7-0.8c0-0.1,0.4-0.5,0.7-0.6
		C557.6,447.5,559.3,447.3,561.4,447z"/>
        <path class="st7" d="M556.3,352.5c0,1.6,0,2.7,0,4.1C554.2,355.3,554.2,354.2,556.3,352.5z"/>
        <path class="st7" d="M553.6,383.3c1.5,0,3,0,4.5,0c0,0.6,0,1.3,0,1.9c-1.5,0.2-3,0.5-4.5,0.7C553.6,385.1,553.6,384.2,553.6,383.3z
		"/>
</g>
    <path class="st7"
          d="M548.4,383.4c1.5,0,3,0,4.5,0c0,0.5,0,1,0,1.5c-1.5,0.2-3,0.4-4.5,0.5C548.5,384.8,548.4,384.1,548.4,383.4z"/>
    <path class="st6" d="M663.5,497.8c0,0-6.5-11.2-2.4-22.8"/>
    <path class="st6" d="M671.5,495c0,0-6.5-11.2-2.4-22.8"/>
    <path class="st6" d="M655.1,503.4c0,0-7.2-12.9-1.7-26.4"/>
    <path class="st6" d="M639.6,490c0,0,13.3-13.6,38-13.3"/>
    <path class="st6" d="M640.5,495.8c0,0,13.2-13,38-12"/>
    <path class="st6" d="M645.3,500.3c0,0,10.6-10.3,29.7-9.6"/>
    <path class="st6" d="M646.9,500.7c0,0-5.2-9-1.7-18.5"/>
    <path class="st6" d="M677.6,492.5c0,0-5.2-9-1.7-18.5"/>
    <path class="st5"
          d="M580.1,347.3c-4.4-2.6-7.4,0.9-10.8,2.6c-0.3-2.4,0.9-3.9,3.3-4.7C576.1,344.1,578.8,344.6,580.1,347.3z"/>
    <path class="st5" d="M511.7,425.5c0.6,0.1,1.3,0.2,1.9,0.4c4.6,1.7,9.4,1.7,14.2,1.2c3.1-0.3,6.2-0.9,9.2-1.7
	c5.1-1.5,9.5-4.3,12.4-8.8c2.2-3.3,3.2-7.1,3.9-11c0.1-0.5-0.1-1.1,0.8-1c0.7,0.1,0.9,0.6,0.8,1.2c-0.2,1.3-0.3,2.6-0.6,3.9
	c-1.6,6.2-5.3,10.9-10.6,14.4c-3.6,2.3-7.6,3.3-11.8,3.9c-4.8,0.6-9.5,0.7-14.3,0.2c-1.8-0.2-3.5-0.9-5.2-1.5
	c-0.3-0.1-0.5-0.5-0.8-0.7C511.5,425.8,511.6,425.6,511.7,425.5z"/>
    <ellipse class="st8" cx="171.5" cy="490.2" rx="21.5" ry="7.3"/>
    <path class="st9" d="M168.5,310.9v178.3c0,0,3.7,2.2,5.9,0s0-178.3,0-178.3"/>
    <path class="st8"
          d="M151.9,255.5l-12.9,49.2l10.1,3.7l21.4,2.5l19.1-1.1l13.5-3l-12.1-51.3C190.9,255.5,169.6,249.9,151.9,255.5z"
    />
    <line class="st8" x1="181.7" x2="188.9" y1="261.9" y2="306.1"/>
    <line class="st8" x1="170.4" x2="168.7" y1="261.9" y2="306.1"/>
    <line class="st8" x1="159.3" x2="151.2" y1="261.9" y2="303"/>
    <path class="st4" d="M195.8,307.7c1.3,0.3,2.5,0.1,3.2-1.7c0.8-2.2,0.2-5.3-0.3-8.3c-1.3-8.3-3.1-16.7-5.2-24.9
	c-1-3.9-2.1-7.9-3.3-11.8c-0.9-2.9-2.1-4.7-3.7-5.3c-0.3-0.1-0.7-0.2-1-0.3c-2.2-1.2-4.6,0.1-6.4,0.3c0,0-0.1,0-0.1,0
	c-0.4,0-0.7,0-1.1,0.1c-2.1,0.1-4.8,0-5.4,3.7c-0.6,4.2-0.6,10.5,0.5,15.1c0.1,0.4,0.2,0.9,0.3,1.3c1.2,7,2.5,18.6,4.1,25.5
	c1,4.5-1,5.6,1.4,7.2c0.4,0.7,0.9,1.1,1.4,1l15.2-2.2C195.6,307.7,195.7,307.7,195.8,307.7z"/>
    <line class="st8" x1="185.3" x2="185.3" y1="313.1" y2="344.2"/>
</svg>
