<svg id="ePMCrp0L3zn1" xmlns="http://www.w3.org/2000/svg" xmlns:xlink="http://www.w3.org/1999/xlink" viewBox="0 0 301.8 338" shape-rendering="geometricPrecision" text-rendering="geometricPrecision" width="301.8" height="338"><style><![CDATA[#ePMCrp0L3zn3_to {animation: ePMCrp0L3zn3_to__to 3000ms linear infinite normal forwards}@keyframes ePMCrp0L3zn3_to__to { 0% {transform: translate(151.499991px,123.449996px)} 16.666667% {transform: translate(151.499991px,90.449996px)} 100% {transform: translate(151.499991px,90.449996px)}} #ePMCrp0L3zn17_to {animation: ePMCrp0L3zn17_to__to 3000ms linear infinite normal forwards}@keyframes ePMCrp0L3zn17_to__to { 0% {transform: translate(118.35px,276.700027px)} 4.333333% {transform: translate(118.35px,276.700027px)} 33.333333% {transform: translate(90.125008px,276.500027px)} 100% {transform: translate(90.125008px,276.500027px)}} #ePMCrp0L3zn18_to {animation: ePMCrp0L3zn18_to__to 3000ms linear infinite normal forwards}@keyframes ePMCrp0L3zn18_to__to { 0% {transform: translate(185.700001px,276.600034px)} 4.333333% {transform: translate(185.700001px,276.600034px)} 33.333333% {transform: translate(211.063761px,276.600034px)} 100% {transform: translate(211.063761px,276.600034px)}} #ePMCrp0L3zn19_to {animation: ePMCrp0L3zn19_to__to 3000ms linear infinite normal forwards}@keyframes ePMCrp0L3zn19_to__to { 0% {transform: translate(241.752787px,241.934673px)} 4.333333% {transform: translate(241.467178px,209.327063px)} 61% {transform: translate(241.752787px,209.327063px)} 88.666667% {transform: translate(241.752787px,209.327064px)} 100% {transform: translate(241.752787px,209.327064px)}} #ePMCrp0L3zn20_to {animation: ePMCrp0L3zn20_to__to 3000ms linear infinite normal forwards}@keyframes ePMCrp0L3zn20_to__to { 0% {transform: translate(54.98449px,237.552052px)} 16.666667% {transform: translate(54.698881px,209.327058px)} 100% {transform: translate(54.698881px,209.327058px)}} #ePMCrp0L3zn21_to {animation: ePMCrp0L3zn21_to__to 3000ms linear infinite normal forwards}@keyframes ePMCrp0L3zn21_to__to { 0% {transform: translate(32.114661px,288.632056px)} 16.666667% {transform: translate(31.829052px,260.407072px)} 100% {transform: translate(31.829052px,260.407072px)}} #ePMCrp0L3zn22_to {animation: ePMCrp0L3zn22_to__to 3000ms linear infinite normal forwards}@keyframes ePMCrp0L3zn22_to__to { 0% {transform: translate(256.074844px,288.643024px)} 4.333333% {transform: translate(255.789234px,260.418028px)} 61% {transform: translate(256.074843px,260.418028px)} 100% {transform: translate(256.074843px,260.418028px)}} #ePMCrp0L3zn23_to {animation: ePMCrp0L3zn23_to__to 3000ms linear infinite normal forwards}@keyframes ePMCrp0L3zn23_to__to { 0% {transform: translate(-43.103429px,4.60932px)} 14% {transform: translate(-43.103429px,-28.42426px)} 40% {transform: translate(-53.103429px,-28.42426px)} 61% {transform: translate(-36.103429px,-28.42426px)} 90.666667% {transform: translate(-46.221727px,-31.244003px)} 100% {transform: translate(-46.021726px,-31.422245px)}} #ePMCrp0L3zn24_to {animation: ePMCrp0L3zn24_to__to 3000ms linear infinite normal forwards}@keyframes ePMCrp0L3zn24_to__to { 0% {transform: translate(29.9957px,4.67648px)} 14% {transform: translate(29.9957px,-28.3571px)} 40% {transform: translate(19.9957px,-28.3571px)} 61% {transform: translate(36.9957px,-28.3571px)} 100% {transform: translate(27.9957px,-34.3571px)}} #ePMCrp0L3zn26_to {animation: ePMCrp0L3zn26_to__to 3000ms linear infinite normal forwards}@keyframes ePMCrp0L3zn26_to__to { 0% {transform: translate(39.712505px,255.499998px)} 7.666667% {transform: translate(39.712505px,224.321881px)} 22.333333% {transform: translate(38.987498px,224.321881px)} 34% {transform: translate(-64.00386px,227.597952px)} 100% {transform: translate(-64.00386px,227.597952px)}} #ePMCrp0L3zn27_to {animation: ePMCrp0L3zn27_to__to 3000ms linear infinite normal forwards}@keyframes ePMCrp0L3zn27_to__to { 0% {transform: translate(222.700003px,214.999996px)} 4.333333% {transform: translate(220.700003px,183.821879px)} 40.666667% {transform: translate(304.7px,179.935461px)} 51.333333% {transform: translate(304.7px,179.935461px)} 77.666667% {transform: translate(304.7px,181.049994px)} 100% {transform: translate(304.7px,181.049994px)}} #ePMCrp0L3zn28_to {animation: ePMCrp0L3zn28_to__to 3000ms linear infinite normal forwards}@keyframes ePMCrp0L3zn28_to__to { 0% {transform: translate(-40.839893px,287.543967px)} 68.333333% {transform: translate(-40.839893px,287.543967px)} 77.666667% {transform: translate(35.530391px,286.179432px)} 100% {transform: translate(35.530391px,286.179432px)}} #ePMCrp0L3zn29_to {animation: ePMCrp0L3zn29_to__to 3000ms linear infinite normal forwards}@keyframes ePMCrp0L3zn29_to__to { 0% {transform: translate(-40.291881px,305.307752px)} 68.333333% {transform: translate(-40.291881px,305.307752px)} 77.666667% {transform: translate(36.078404px,303.943217px)} 100% {transform: translate(36.078404px,303.943217px)}} #ePMCrp0L3zn30_to {animation: ePMCrp0L3zn30_to__to 3000ms linear infinite normal forwards}@keyframes ePMCrp0L3zn30_to__to { 0% {transform: translate(-40.056447px,271.4687px)} 68.333333% {transform: translate(-40.056447px,271.4687px)} 77.666667% {transform: translate(36.313837px,270.104165px)} 100% {transform: translate(36.313837px,270.104165px)}} #ePMCrp0L3zn31_to {animation: ePMCrp0L3zn31_to__to 3000ms linear infinite normal forwards}@keyframes ePMCrp0L3zn31_to__to { 0% {transform: translate(329.303621px,255.492926px)} 77.666667% {transform: translate(329.303621px,255.492926px)} 94.333333% {transform: translate(256.829596px,257.455908px)} 100% {transform: translate(256.829596px,257.455908px)}} #ePMCrp0L3zn32_to {animation: ePMCrp0L3zn32_to__to 3000ms linear infinite normal forwards}@keyframes ePMCrp0L3zn32_to__to { 0% {transform: translate(335.506423px,222.282171px)} 77.666667% {transform: translate(335.506423px,222.282171px)} 94.333333% {transform: translate(263.032386px,224.245153px)} 100% {transform: translate(263.032386px,224.245153px)}}]]></style><g id="ePMCrp0L3zn2"><g id="ePMCrp0L3zn3_to" transform="translate(151.499991,123.449996)"><g id="ePMCrp0L3zn3" transform="translate(-149.799988,-126.162533)"><path id="ePMCrp0L3zn4" d="M147.2,87.1L155.6,87.1C156.1,87.1,156.4,87.5,156.4,88L156.4,100.9C156.4,101.4,156.1,101.8,155.6,101.8C155.6,101.8,155.6,101.8,155.6,101.8L147.2,101.8C146.7,101.8,146.4,101.4,146.4,100.9C146.4,100.9,146.4,100.9,146.4,100.9L146.4,88C146.4,87.6,146.7,87.2,147.2,87.1C147.2,87.1,147.2,87.1,147.2,87.1L147.2,87.1Z" transform="matrix(1 0 0 1 -1.6 31.712533)" fill="rgb(218,138,30)" stroke="none" stroke-width="2"/><path id="ePMCrp0L3zn5" d="M139.3,152.5L165.1,152.5C167,152.5,168.6,154.1,168.6,156L168.6,165.7C168.6,167.6,167,169.2,165.1,169.2L139.3,169.2C137.4,169.2,135.8,167.6,135.8,165.7L135.8,156C135.7,154,137.3,152.5,139.3,152.5Z" transform="matrix(1 0 0 1 -1.6 31.712533)" fill="rgb(218,138,30)" stroke="none" stroke-width="2"/><path id="ePMCrp0L3zn6" d="M142.2,132.7L162.1,132.7C164,132.7,165.6,134.3,165.6,136.2L165.6,146C165.6,147.9,164,149.5,162.1,149.5L142.2,149.5C140.3,149.5,138.7,147.9,138.7,146L138.7,136.2C138.7,134.2,140.3,132.7,142.2,132.7Z" transform="matrix(1 0 0 1 -1.6 31.712533)" fill="rgb(218,138,30)" stroke="none" stroke-width="2"/><path id="ePMCrp0L3zn7" d="M143.2,105.2L158.4,105.2C159.2,105.2,159.9,105.9,159.9,106.7L159.9,127.9C159.9,128.7,159.2,129.4,158.4,129.4L143.2,129.4C142.4,129.4,141.7,128.7,141.7,127.9L141.7,106.7C141.8,105.8,142.4,105.2,143.2,105.2Z" transform="matrix(1 0 0 1 -1.6 31.712533)" fill="rgb(218,138,30)" stroke="none" stroke-width="2"/><path id="ePMCrp0L3zn8" d="M148.9,110.7L152.9,110.7C153.6,110.7,154.2,111.3,154.2,112L154.2,116C154.2,116.7,153.6,117.3,152.9,117.3L148.9,117.3C148.2,117.3,147.6,116.7,147.6,116L147.6,112C147.6,111.3,148.1,110.7,148.9,110.7Z" transform="matrix(1 0 0 1 -1.6 31.712533)" fill="rgb(218,138,30)" stroke="none" stroke-width="2"/><path id="ePMCrp0L3zn9" d="M120.8,197.2L120.8,176.2C120.8,174.3,119.2,172.7,117.3,172.7L85.5,172.7C83.6,172.7,82,174.2,81.9,176.1L81.9,197.1L120.8,197.2Z" transform="matrix(1 0 0 1 -1.6 31.712533)" fill="rgb(218,138,30)" stroke="none" stroke-width="2"/><path id="ePMCrp0L3zn10" d="M82,200.8L82,213.8C82,215.7,83.6,217.3,85.5,217.3C85.5,217.3,85.5,217.3,85.5,217.3L117.3,217.3C119.2,217.3,120.8,215.7,120.8,213.8L120.8,200.8L82,200.8Z" transform="matrix(1 0 0 1 -1.600001 31.712533)" fill="rgb(218,138,30)" stroke="none" stroke-width="2"/><path id="ePMCrp0L3zn11" d="M219.7,197.2L219.7,176.2C219.7,174.3,218.1,172.7,216.2,172.7L184.4,172.7C182.5,172.7,180.9,174.3,180.9,176.2L180.9,197.2L219.7,197.2Z" transform="matrix(1 0 0 1 -1.6 31.712533)" fill="rgb(218,138,30)" stroke="none" stroke-width="2"/><path id="ePMCrp0L3zn12" d="M180.9,200.8L180.9,213.8C180.9,215.7,182.5,217.3,184.4,217.3L216.2,217.3C218.1,217.3,219.7,215.7,219.7,213.8L219.7,200.8L180.9,200.8Z" transform="matrix(1 0 0 1 -1.6 31.712533)" fill="rgb(218,138,30)" stroke="none" stroke-width="2"/><path id="ePMCrp0L3zn13" d="M142.5,84.3C138.9,81.3,132.3,83,125.9,84.6C124.6,84.9,123.2,85.3,123.2,85.3L121.1,85.9C107.5,90,100.6,92.1,96.8,96.5C95.6,97.9,90.4,103.7,91.6,111.1C93.2,121,104.7,125.1,105.2,125.3C112.6,127.8,119.2,125.3,121.7,124.4C125.7,122.9,129.4,120.5,132.3,117.4C132.6,117.1,132.8,116.9,133.1,116.5C135,114.4,137.9,110.9,141.2,102.6C142.8,98.6,144.1,94.5,145.1,90.3C144.8,86.6,143.3,85,142.5,84.3ZM113.7,122C106.2,122,100.2,115.9,100.2,108.5C100.2,101.1,106.3,95,113.7,95C121.1,95,127.2,101.1,127.2,108.5L127.2,108.5C127.2,115.9,121.2,122,113.7,122Z" transform="matrix(1 0 0 1 -1.6 31.712533)" fill="rgb(218,138,30)" stroke="none" stroke-width="2"/><path id="ePMCrp0L3zn14" d="M205.5,96.1C201.5,91.8,194.7,89.8,181,85.9C179.6,85.5,178.2,85.1,176.2,84.7C171.6,83.7,166.8,83.4,162.1,83.8C160,84.8,158.3,86.6,157.3,88.8C156.3,91.4,157.9,95.2,161.1,102.8C163.6,108.8,165.9,112.8,169.3,116.6C169.6,116.9,169.9,117.2,170.2,117.5C173.2,120.6,176.9,122.9,180.9,124.4C183.5,125.3,190.1,127.6,197.4,125C197.9,124.8,209.3,120.6,210.8,110.6C212,103.3,206.7,97.5,205.5,96.1L205.5,96.1ZM189.4,122C181.9,122,175.8,115.9,175.8,108.4C175.8,100.9,181.9,94.8,189.4,94.8C196.9,94.8,203,100.9,203,108.4C203,115.9,196.9,122,189.4,122L189.4,122Z" transform="matrix(1 0 0 1 -1.6 31.712533)" fill="rgb(218,138,30)" stroke="none" stroke-width="2"/><path id="ePMCrp0L3zn15" d="M126.5,172.8L175.2,172.8C177.1,172.8,178.7,174.4,178.7,176.3L178.7,193.7C178.7,195.6,177.1,197.2,175.2,197.2L126.5,197.2C124.6,197.2,123,195.6,123,193.7L123,176.3C123.1,174.4,124.6,172.8,126.5,172.8Z" transform="matrix(1 0 0 1 -1.6 31.712533)" fill="rgb(218,138,30)" stroke="none" stroke-width="2"/><path id="ePMCrp0L3zn16" d="M178.4,219.6L178.4,200.8L122.3,200.8L122.3,219.5L92.1,219.5C92,220.5,91.9,221.5,91.9,222.5L91.9,259C91.9,271,100.8,280.7,111.9,280.7L192.6,280.7C203.6,280.7,212.6,271,212.6,259L212.6,222.5C212.6,221.5,212.5,220.6,212.4,219.6L178.4,219.6Z" transform="matrix(1 0 0 1 -1.6 31.712533)" fill="rgb(218,138,30)" stroke="none" stroke-width="2"/></g></g><g id="ePMCrp0L3zn17_to" transform="translate(118.35,276.700027)"><path id="ePMCrp0L3zn17" d="M63.1,304.6C62.8,304.6,62.6,304.4,62.6,304.1C62.6,303.8,62.8,303.6,63.1,303.6L90.7,303.6L90.7,291.2L66.4,291.2C66.1,291.2,65.9,291,65.9,290.7C65.9,290.4,66.1,290.2,66.4,290.2L90.7,290.2L90.7,279.9L63.1,279.9C62.8,279.9,62.6,279.7,62.6,279.4C62.6,279.1,62.8,278.9,63.1,278.9L90.6,278.9L90.6,267.9L63.1,267.9C62.8,267.9,62.6,267.7,62.6,267.4C62.6,267.1,62.8,266.9,63.1,266.9L90.6,266.9L90.6,258L59.5,258C59.2,258,59,257.7,59.1,257.4C59.1,257.2,59.2,257.1,59.4,257L90.7,257L90.7,247.7L59.5,247.7C59.2,247.7,59,247.5,59,247.2C59,246.9,59.2,246.7,59.5,246.7L90.5,246.7C90.1,245.1,88.6,243.9,87,243.9L60.6,243.9C58.6,243.9,56.9,245.6,56.9,247.6L56.9,251.4L84.4,251.4C84.7,251.4,84.9,251.6,84.9,251.9C84.9,252.2,84.7,252.4,84.4,252.4C84.4,252.4,84.4,252.4,84.4,252.4L56.9,252.4L56.9,261.9L84.4,261.9C84.7,261.9,84.9,262.1,84.9,262.4C84.9,262.7,84.7,262.9,84.4,262.9L56.9,262.9L56.9,272.3L81.5,272.3C81.8,272.3,82,272.5,82,272.8C82,273.1,81.8,273.3,81.5,273.3L56.9,273.3L56.9,284L78.2,284C78.5,284,78.7,284.2,78.8,284.4C78.8,284.7,78.6,285,78.4,285C78.4,285,78.4,285,78.4,285L56.9,285L56.9,297.2L74.7,297.2C75,297.2,75.2,297.4,75.2,297.7C75.2,298,75,298.2,74.7,298.2L56.9,298.2L56.9,305.8C56.9,307.8,58.6,309.5,60.6,309.5L86.9,309.5C88.9,309.5,90.6,307.8,90.6,305.8L90.6,304.5L63.1,304.6Z" transform="translate(-73.799997,-276.700027)" fill="rgb(218,138,30)" stroke="none" stroke-width="2"/></g><g id="ePMCrp0L3zn18_to" transform="translate(185.700001,276.600034)"><path id="ePMCrp0L3zn18" d="M220,304.7C219.7,304.7,219.5,304.5,219.5,304.2C219.5,303.9,219.7,303.7,220,303.7L247.6,303.7L247.6,291.3L223.3,291.3C223,291.3,222.8,291.1,222.8,290.8C222.8,290.5,223,290.3,223.3,290.3L247.6,290.3L247.6,280L220,280C219.7,280,219.5,279.8,219.5,279.5C219.5,279.2,219.7,279,220,279L247.6,279L247.6,268L220,268C219.7,268,219.5,267.8,219.5,267.5C219.5,267.2,219.7,267,220,267L247.6,267L247.6,258.1L216.5,258.1C216.2,258.1,216,257.8,216,257.5C216,257.5,216,257.5,216,257.5C216,257.3,216.2,257.1,216.4,257L247.5,257L247.5,247.7L216.4,247.7C216.1,247.7,215.9,247.4,215.9,247.1C215.9,247.1,215.9,247.1,215.9,247.1C215.9,246.9,216.1,246.7,216.3,246.6L247.3,246.6C246.9,245,245.4,243.9,243.7,243.9L217.3,243.9C215.3,243.9,213.6,245.5,213.6,247.6C213.6,247.6,213.6,247.6,213.6,247.6L213.6,251.4L241.1,251.4C241.4,251.4,241.6,251.6,241.6,251.9C241.6,252.2,241.4,252.4,241.1,252.4L213.6,252.4L213.6,261.9L241.1,261.9C241.4,261.9,241.6,262.1,241.6,262.4C241.6,262.7,241.4,262.9,241.1,262.9L213.6,262.9L213.6,272.3L238.2,272.3C238.5,272.3,238.7,272.5,238.7,272.8C238.7,273.1,238.5,273.3,238.2,273.3L213.6,273.3L213.6,284.1L235,284.1C235.3,284.1,235.5,284.4,235.5,284.7C235.5,284.7,235.5,284.7,235.5,284.7C235.5,284.9,235.3,285.1,235.1,285.2L213.7,285.2L213.7,297.4L231.5,297.4C231.8,297.4,232,297.6,232,297.9C232,298.2,231.8,298.4,231.5,298.4L213.7,298.4L213.7,306C213.7,308,215.4,309.7,217.4,309.7L243.7,309.7C245.8,309.7,247.4,308,247.4,306L247.4,304.7L220,304.7Z" transform="translate(-230.599998,-276.800034)" fill="rgb(218,138,30)" stroke="none" stroke-width="2"/></g><g id="ePMCrp0L3zn19_to" transform="translate(241.752787,241.934673)"><path id="ePMCrp0L3zn19" d="M263.5,47C265.3,51.5,285.9,105.7,254.8,146.6C246.1,157.8,234.8,166.8,221.9,172.6L221.7,193.3C232.3,188.5,252.4,177.7,267.1,155.5C297.5,109.9,278.3,57.4,276,51.4L263.5,47Z" transform="scale(0.703726,-0.48875) translate(-252.895073,-120.150002)" fill="rgb(218,138,30)" stroke="none" stroke-width="2"/></g><g id="ePMCrp0L3zn20_to" transform="translate(54.98449,237.552052)"><path id="ePMCrp0L3zn20" d="M35.9,246.2C35.7,243.2,34.4,219.6,52.5,203.8C60.3,197.2,69.9,193.1,80.1,192.1L80.3,180.6C73.8,181.6,57.7,185,44.3,197.4C24,216.2,25.9,240.7,26.3,244.9L35.9,246.2Z" transform="translate(-53.184488,-213.399994)" fill="rgb(218,138,30)" stroke="none" stroke-width="2"/></g><g id="ePMCrp0L3zn21_to" transform="translate(32.114661,288.632056)"><path id="ePMCrp0L3zn21" d="M39.2,285.6L34.1,277.8C38.1,273.6,39.7,268,38,263.2C37.7,262.5,36.3,258.3,32.1,256.7C27.5,254.9,22.1,257.1,19.3,261.1C16.3,265.4,16.8,271.7,20.7,276L13.1,282C12.5,281.4,3,272.5,5.3,261.3C7.6,249.7,21.1,243.2,32,244.8C33,244.9,44.7,246.8,49.1,256.8C53.2,266.2,49.4,278.4,39.2,285.6Z" transform="rotate(-7.655963) translate(-27.832373,-265.079994)" fill="rgb(218,138,30)" stroke="none" stroke-width="2"/></g><g id="ePMCrp0L3zn22_to" transform="translate(256.074844,288.643024)"><path id="ePMCrp0L3zn22" d="M271,12.7L273.5,21.6C268.4,24.4,265.2,29.3,265.4,34.3C265.4,35.1,265.6,39.5,269,42.3C272.8,45.4,278.7,44.9,282.5,41.9C286.7,38.7,288,32.6,285.6,27.3L294.7,23.9C295.1,24.6,301.5,36,295.9,46C290.1,56.4,275.4,58.5,265.5,53.7C264.6,53.3,254,48,252.8,37.1C251.8,26.9,259.1,16.5,271,12.7Z" transform="rotate(-188.31196) translate(-275.447456,-34.424174)" fill="rgb(218,138,30)" stroke="none" stroke-width="2"/></g></g><g id="ePMCrp0L3zn23_to" transform="translate(-43.103429,4.60932)"><circle id="ePMCrp0L3zn23" r="4.177513" transform="rotate(-0.697019) scale(1.436263,1.414864) translate(110.977517,96.977517)" fill="rgb(218,138,30)" stroke="none" stroke-width="2"/></g><g id="ePMCrp0L3zn24_to" transform="translate(29.9957,4.67648)"><circle id="ePMCrp0L3zn24" r="4.177513" transform="rotate(-0.320668) scale(1.436263,1.43626) translate(110.977517,96.977517)" fill="rgb(218,138,30)" stroke="none" stroke-width="2"/></g><g id="ePMCrp0L3zn25" transform="matrix(1 0 0 1 0 0.000001)"/><g id="ePMCrp0L3zn26_to" transform="translate(39.712505,255.499998)"><path id="ePMCrp0L3zn26" d="M0,279.8L17.096679,165.199996L82.72501,172.299996L81.814392,196.399626L71.433198,199.727064L61.064941,277.327078L61.064941,345.418663L0,279.8Z" transform="translate(-39.712505,-222.499998)" fill="rgb(255,255,255)" stroke="rgb(255,255,255)" stroke-width="0.6356"/></g><g id="ePMCrp0L3zn27_to" transform="translate(222.700003,214.999996)"><path id="ePMCrp0L3zn27" d="M218.663763,151.999996L219.800003,196.399626L233.440649,238.911521L230.300175,272.1L242.807725,297L278.288236,291L301.8,276.5L291.240259,188.027064L289.166608,151.999996L218.663763,151.999996Z" transform="translate(-221.563763,-168.799996)" fill="rgb(255,255,255)" stroke="rgba(255,255,255,0)" stroke-width="0.6356"/></g><g id="ePMCrp0L3zn28_to" transform="translate(-40.839893,287.543967)"><rect id="ePMCrp0L3zn28" width="52.710618" height="29.162089" rx="0" ry="0" transform="scale(1,0.799317) translate(-26.355309,-14.581045)" fill="rgb(16,16,43)" stroke="none" stroke-width="0"/></g><g id="ePMCrp0L3zn29_to" transform="translate(-40.291881,305.307752)"><rect id="ePMCrp0L3zn29" width="57.164578" height="17.3" rx="0" ry="0" transform="scale(0.925675,0.484653) translate(-28.582289,-8.65)" fill="rgb(16,16,43)" stroke="none" stroke-width="0"/></g><g id="ePMCrp0L3zn30_to" transform="translate(-40.056447,271.4687)"><path id="ePMCrp0L3zn30" d="M51.773789,56.616741L45.814393,44.180669L29.107566,44.912205L26.215069,56.616741L34.942216,56.616741L37.414392,49.301419L45.829113,56.616741L51.773789,56.616741Z" transform="translate(-38.994429,-50.398705)" fill="rgb(16,16,43)" stroke="rgba(63,87,135,0)" stroke-width="0.6356"/></g><g id="ePMCrp0L3zn31_to" transform="translate(329.303621,255.492926)"><rect id="ePMCrp0L3zn31" width="10.111911" height="103.160826" rx="0" ry="0" transform="rotate(24.600512) scale(0.832547,0.564465) translate(-5.055955,-51.580413)" fill="rgb(16,16,43)" stroke="none" stroke-width="0"/></g><g id="ePMCrp0L3zn32_to" transform="translate(335.506423,222.282171)"><path id="ePMCrp0L3zn32" d="M170.300003,50.76449L194.063763,48.569883L200.463763,39.791455L228.063763,39.059919L228.063763,57.348309L170.300003,57.348309L170.300003,47.10681" transform="rotate(26.239496) scale(0.860887,0.860887) translate(-199.181883,-48.204114)" fill="rgb(16,16,43)" stroke="rgb(16,16,43)" stroke-width="0.6356"/></g><path id="ePMCrp0L3zn33" d="" fill="none" stroke="rgb(63,87,135)" stroke-width="0.676"/><path id="ePMCrp0L3zn34" d="" fill="none" stroke="rgb(63,87,135)" stroke-width="0.676"/></svg>