<svg viewBox="0 0 237.43 237.43" xmlns="http://www.w3.org/2000/svg"><path d="m214.12 89.38a99 99 0 1 1 -49.19-58.52" fill="#fff" stroke="#707070" stroke-miterlimit="10" stroke-width="5"/><path d="m171.33 131.42h-2.85a44.54 44.54 0 0 0 -44.33-40.83h-2.7v-.59a9.24 9.24 0 1 0 -7.71 0v.61h-2.74a44.52 44.52 0 0 0 -44.32 40.83h-2.83a9.28 9.28 0 0 0 -9.26 9.27v.05a9.27 9.27 0 0 0 9.26 9.24h107.48a9.27 9.27 0 0 0 9.26-9.26v-.05a9.27 9.27 0 0 0 -9.26-9.27zm-53.74-51.42a1.58 1.58 0 1 1 -1.52 1.57 1.54 1.54 0 0 1 1.52-1.57zm-6.59 18.3h13.12a36.82 36.82 0 0 1 36.59 33.12h-86.26a36.81 36.81 0 0 1 36.55-33.12zm61.85 42.44a1.55 1.55 0 0 1 -1.55 1.55h-107.45a1.54 1.54 0 0 1 -1.54-1.55v-.05a1.54 1.54 0 0 1 1.54-1.55h107.48a1.55 1.55 0 0 1 1.55 1.55z" fill="#848484" stroke="#fff" stroke-miterlimit="10" stroke-width="2"/><path d="m123.2 100.63h13.41a37.63 37.63 0 0 1 37.39 33.85h-88.19a37.62 37.62 0 0 1 37.39-33.85z" fill="#4fbdd7" opacity=".57"/><rect fill="#ef9486" height="3.15" opacity=".48" rx="1.55" width="110.57" x="60.6" y="139.14"/><path d="m174.51 72.34a3.28 3.28 0 1 1 -2.18-4.11 3.28 3.28 0 0 1 2.18 4.11z" fill="#898890"/><path d="m204.71 114.2a4.93 4.93 0 1 1 -3.28-6.15 4.94 4.94 0 0 1 3.28 6.15z" fill="#d8d7da"/><path d="m169.93 76.09a4.93 4.93 0 1 0 -3.28-6.15 4.93 4.93 0 0 0 3.28 6.15zm1.92-6.29a1.65 1.65 0 1 1 -2 1.1 1.65 1.65 0 0 1 2-1.1z" fill="#ef9486" opacity=".48"/><path d="m198.07 119.05a6.58 6.58 0 1 0 -4.37-8.21 6.57 6.57 0 0 0 4.37 8.21zm2.88-9.43a3.29 3.29 0 1 1 -4.1 2.18 3.29 3.29 0 0 1 4.15-2.18z" fill="#00a5c3" opacity=".46"/><path d="m71.62 160a3.29 3.29 0 1 1 1.73 4.32 3.28 3.28 0 0 1 -1.73-4.32z" fill="#898890"/><path d="m46.15 115.11a4.93 4.93 0 1 1 2.59 6.47 4.91 4.91 0 0 1 -2.59-6.47z" fill="#d8d7da"/><path d="m76.58 156.77a4.93 4.93 0 1 0 2.59 6.47 4.91 4.91 0 0 0 -2.59-6.47zm-2.59 6a1.64 1.64 0 1 1 2.16-.86 1.64 1.64 0 0 1 -2.15.9z" fill="#ef9486" opacity=".48"/><path d="m53.27 111a6.57 6.57 0 1 0 3.45 8.63 6.58 6.58 0 0 0 -3.45-8.63zm-3.89 9.06a3.29 3.29 0 1 1 4.32-1.72 3.27 3.27 0 0 1 -4.32 1.73z" fill="#00a5c3" opacity=".46"/></svg>