<svg xmlns="http://www.w3.org/2000/svg" viewBox="0 0 237.43 237.43"><defs><style>.cls-1{isolation:isolate;}.cls-2{fill:#fff;stroke:#707070;stroke-width:5px;}.cls-2,.cls-5{stroke-miterlimit:10;}.cls-3{fill:#d8d7da;}.cls-4{fill:#898890;}.cls-5{fill:#848484;stroke:#fff;stroke-width:2px;}.cls-6{fill:#ef9486;opacity:0.48;}.cls-7{fill:#00a5c3;opacity:0.46;mix-blend-mode:multiply;}</style></defs><title> </title><g class="cls-1"><g id="Calque_1" data-name="Calque 1"><path class="cls-2" d="M213.42,88.38a99,99,0,1,1-49.19-58.52"/><path class="cls-3" d="M120.08,115.76,117,110l-8.7,4.63,3.09,5.81,3-1.6,2.73-1.45Z"/><path class="cls-4" d="M84.29,66,90.09,63l25.44,47.78-5.8,3.09Z"/><path class="cls-4" d="M133.82,80.34a3.29,3.29,0,1,1-2.19-4.11A3.3,3.3,0,0,1,133.82,80.34Z"/><path class="cls-3" d="M164,122.2a4.93,4.93,0,1,1-3.28-6.15A4.93,4.93,0,0,1,164,122.2Z"/><path class="cls-3" d="M81.56,110.8a4.93,4.93,0,1,1-3.28-6.16A4.93,4.93,0,0,1,81.56,110.8Z"/><path class="cls-4" d="M96.77,156.69a3.29,3.29,0,1,1-2.18-4.11A3.28,3.28,0,0,1,96.77,156.69Z"/><path class="cls-5" d="M159.31,154,135.47,120.1a14.8,14.8,0,0,0-14.2-6.12l-2.74-5.15a1.65,1.65,0,0,0-1-.8,1.63,1.63,0,0,0-1.24.13L91.65,61.83a1.66,1.66,0,0,0-2.23-.68l-5.8,3.09a1.64,1.64,0,0,0-.68,2.22l24.67,46.33a1.65,1.65,0,0,0-.68,2.22l2.74,5.15a14.84,14.84,0,0,0-2.85,15.19L121.6,174a1.64,1.64,0,0,0,1,.95l.1,0a1.6,1.6,0,0,0,1.25-.12l7.26-3.86a1.63,1.63,0,0,0,.78-2l-3.23-9.61,6.18,8a1.64,1.64,0,0,0,2.08.45l8.7-4.63a1.66,1.66,0,0,0,.79-2l-3.24-9.61,6.17,8a1.67,1.67,0,0,0,2.08.45l7.26-3.87a1.64,1.64,0,0,0,.57-2.4Zm-8.25,3-11.33-14.76a1.64,1.64,0,0,0-2.86,1.53l5.92,17.63-6.24,3.33L125.22,150a1.64,1.64,0,0,0-2.86,1.52l5.92,17.64-4.38,2.33-14.11-36.93a11.52,11.52,0,0,1,5.34-14.27l2.73-1.45a11.53,11.53,0,0,1,14.82,3.53l22.76,32.33Z"/><path class="cls-6" d="M129.23,84.09A4.93,4.93,0,1,0,126,77.94,4.93,4.93,0,0,0,129.23,84.09Zm1.92-6.29a1.65,1.65,0,1,1-2.05,1.1A1.65,1.65,0,0,1,131.15,77.8Z"/><path class="cls-7" d="M157.38,127.05a6.58,6.58,0,1,0-4.38-8.21A6.56,6.56,0,0,0,157.38,127.05Zm2.87-9.43a3.29,3.29,0,1,1-4.1,2.18A3.29,3.29,0,0,1,160.25,117.62Z"/><path class="cls-7" d="M78.76,103.07a6.58,6.58,0,1,0,4.37,8.21A6.58,6.58,0,0,0,78.76,103.07Zm-2.88,9.43a3.29,3.29,0,1,1,4.1-2.18A3.28,3.28,0,0,1,75.88,112.5Z"/><path class="cls-7" d="M95.07,151a4.93,4.93,0,1,0,3.28,6.16A4.94,4.94,0,0,0,95.07,151Zm-1.92,6.29a1.64,1.64,0,1,1,2-1.09A1.63,1.63,0,0,1,93.15,157.3Z"/><path class="cls-6" d="M121.43,120.3l-2.67,1.42a12.87,12.87,0,0,0-6,16l14.47,37.86,7.1-3.78-6.24-18.56L140,168.73l8.52-4.54-6.24-18.55,11.92,15.53,7.1-3.78L138,124.25A12.88,12.88,0,0,0,121.43,120.3Z"/></g></g></svg>