<svg xmlns="http://www.w3.org/2000/svg" viewBox="0 0 237.43 237.43"><defs><style>.cls-1{isolation:isolate;}.cls-2,.cls-4{fill:#fff;}.cls-2{stroke:#707070;stroke-miterlimit:10;stroke-width:5px;}.cls-3{fill:#686868;}.cls-5{fill:#ef9486;opacity:0.48;}.cls-6{opacity:0.57;}.cls-7{fill:#4fbdd7;}.cls-8{fill:#898890;}.cls-9{fill:#d8d7da;}.cls-10{fill:#00a5c3;opacity:0.46;mix-blend-mode:multiply;}</style></defs><title> </title><g class="cls-1"><g id="Calque_1" data-name="Calque 1"><path class="cls-2" d="M208.55,92.38a99,99,0,1,1-49.19-58.52"/><path class="cls-3" d="M151.71,132a9.88,9.88,0,0,0,2.31-6.6,10.13,10.13,0,0,0-2.16-5.72,8.89,8.89,0,0,0-2.12-10.23c-2.64-2.42-7.13-3.5-13.35-3.2a52.6,52.6,0,0,0-8.19,1h0c-.83.15-1.71.33-2.61.53-.06-1.06.12-3.71,2.08-9.66,2.33-7.09,2.2-12.51-.43-16.14a10.57,10.57,0,0,0-8.47-4.11,4.2,4.2,0,0,0-3.21,1.47c-1.84,2.14-1.63,6.1-1.39,7.93-2.2,5.89-8.36,20.33-13.56,24.34a1.94,1.94,0,0,0-.27.23,17.86,17.86,0,0,0-3.26,4.89,6.86,6.86,0,0,0-3.29-.83H83.62a6.93,6.93,0,0,0-6.92,6.92v27a6.92,6.92,0,0,0,6.92,6.92H93.77a7,7,0,0,0,4-1.26l3.91.46a166.79,166.79,0,0,0,22.17,1.22c2,.15,3.85.23,5.58.23a37,37,0,0,0,7.73-.7c5.09-1.08,8.57-3.24,10.33-6.42a10.13,10.13,0,0,0,1.13-6.37,10.65,10.65,0,0,0,3.78-8.63A11.59,11.59,0,0,0,151.71,132ZM83.62,152.3a2.43,2.43,0,0,1-2.43-2.43V122.82a2.44,2.44,0,0,1,2.43-2.43H93.77a2.43,2.43,0,0,1,2.43,2.43v27a2.43,2.43,0,0,1-2.43,2.43H83.62Z"/><path class="cls-4" d="M147.45,130a2.23,2.23,0,0,0-.3,2.71,6.86,6.86,0,0,1,.76,2.78c.12,2.17-.93,4.1-3.12,5.75a2.26,2.26,0,0,0-.77,2.56,5.84,5.84,0,0,1-.45,4.29c-1.11,2-3.59,3.43-7.35,4.23a44.12,44.12,0,0,1-12.13.37h-.23a163.36,163.36,0,0,1-21.63-1.19h0l-1.68-.2a7,7,0,0,0,.15-1.46V122.82a7,7,0,0,0-.32-2.06,13.93,13.93,0,0,1,3.1-5.71c7.46-5.92,14.77-25.89,15.08-26.76a2,2,0,0,0,.1-1.11c-.28-1.87-.18-4.15.22-4.83a6,6,0,0,1,4.69,2.25c1.7,2.34,1.63,6.53-.2,12.09-2.79,8.47-3,12.93-.81,14.89a3.62,3.62,0,0,0,3.62.65c1-.24,2-.44,2.9-.59l.21,0c5.11-1.11,14.26-1.79,17.44,1.1,2.69,2.46.78,5.72.56,6.07a2.24,2.24,0,0,0,.4,2.9,5.44,5.44,0,0,1-.23,8.37Z"/><path class="cls-5" d="M147.41,135a2.24,2.24,0,0,0-.3,2.71,7,7,0,0,1,.77,2.78c.11,2.17-.93,4.1-3.13,5.75a2.27,2.27,0,0,0-.76,2.56,5.9,5.9,0,0,1-.45,4.29c-1.11,2-3.59,3.42-7.35,4.22a43.74,43.74,0,0,1-12.12.36h-.23a162.06,162.06,0,0,1-21.61-1.18h0l-1.68-.2a7,7,0,0,0,.15-1.46v-27a7,7,0,0,0-.32-2.06,13.92,13.92,0,0,1,3.09-5.7c7.47-5.92,14.76-25.88,15.08-26.74a2.13,2.13,0,0,0,.1-1.12c-.28-1.86-.18-4.14.22-4.82a6,6,0,0,1,4.68,2.25c1.7,2.34,1.63,6.53-.2,12.08-2.79,8.46-3,12.92-.81,14.88a3.6,3.6,0,0,0,3.62.64c1-.23,2-.43,2.89-.58l.22-.05c5.1-1.11,14.25-1.79,17.42,1.1,2.69,2.46.78,5.72.57,6.07a2.21,2.21,0,0,0,.39,2.89,6.26,6.26,0,0,1,1.85,3.87A6.16,6.16,0,0,1,147.41,135Z"/><g class="cls-6"><path class="cls-7" d="M84.14,136.89a1.08,1.08,0,0,1-1-1.18V122.57a1.09,1.09,0,0,1,1-1.18h3.94a1.09,1.09,0,0,1,1,1.18v13.14a1.09,1.09,0,0,1-1,1.18Z"/></g><path class="cls-8" d="M152,61.34a3.29,3.29,0,1,1-2.19-4.11A3.3,3.3,0,0,1,152,61.34Z"/><path class="cls-9" d="M182.14,103.2a4.93,4.93,0,1,1-3.27-6.15A4.93,4.93,0,0,1,182.14,103.2Z"/><path class="cls-9" d="M61.69,122.8a4.93,4.93,0,1,1-3.28-6.16A4.93,4.93,0,0,1,61.69,122.8Z"/><path class="cls-8" d="M76.91,168.69a3.29,3.29,0,1,1-2.19-4.11A3.3,3.3,0,0,1,76.91,168.69Z"/><path class="cls-5" d="M147.36,65.09a4.93,4.93,0,1,0-3.27-6.15A4.93,4.93,0,0,0,147.36,65.09Zm1.92-6.29a1.65,1.65,0,1,1-2.05,1.1A1.66,1.66,0,0,1,149.28,58.8Z"/><path class="cls-10" d="M175.51,108.05a6.58,6.58,0,1,0-4.37-8.21A6.57,6.57,0,0,0,175.51,108.05Zm2.88-9.43a3.29,3.29,0,1,1-4.11,2.18A3.29,3.29,0,0,1,178.39,98.62Z"/><path class="cls-10" d="M58.89,115.07a6.58,6.58,0,1,0,4.37,8.21A6.58,6.58,0,0,0,58.89,115.07ZM56,124.5a3.29,3.29,0,1,1,4.11-2.18A3.28,3.28,0,0,1,56,124.5Z"/><path class="cls-10" d="M75.2,163a4.93,4.93,0,1,0,3.28,6.16A4.94,4.94,0,0,0,75.2,163Zm-1.92,6.29a1.64,1.64,0,1,1,2-1.09A1.63,1.63,0,0,1,73.28,169.3Z"/></g></g></svg>