<svg xmlns="http://www.w3.org/2000/svg" viewBox="0 0 237.43 237.43"><defs><style>.cls-1{isolation:isolate;}.cls-2,.cls-4{fill:#fff;}.cls-2{stroke:#707070;stroke-miterlimit:10;stroke-width:5px;}.cls-3{fill:#686868;}.cls-5{opacity:0.57;}.cls-6{fill:#4fbdd7;}.cls-7{fill:#848484;}.cls-8{fill:#898890;}.cls-9{fill:#d8d7da;}.cls-10{fill:#ef9486;opacity:0.48;}.cls-11{fill:#00a5c3;opacity:0.46;mix-blend-mode:multiply;}</style></defs><title> </title><g class="cls-1"><g id="Calque_1" data-name="Calque 1"><path class="cls-2" d="M211,90.38a99,99,0,1,1-49.2-58.52"/><g id="_01YT8A.tif" data-name="01YT8A.tif"><path class="cls-3" d="M121,80a40.86,40.86,0,1,1-41,40.61A41,41,0,0,1,121,80ZM84.2,120.87a36.61,36.61,0,1,0,36.94-36.58A36.72,36.72,0,0,0,84.2,120.87Z"/><path class="cls-4" d="M84.2,120.87a36.61,36.61,0,1,1,36.36,36.69A36.67,36.67,0,0,1,84.2,120.87Zm25-9.05c-1.34,0-2.06.47-2.4,1.41a2,2,0,0,0,1,2.58c4,2.71,8.09,5.46,12.19,8.08a3.35,3.35,0,0,0,2.48.34c4-1.23,8-2.59,12.06-3.94,1.44-.49,2.07-1.59,1.68-2.76s-1.59-1.76-3.06-1.28c-3.44,1.14-6.88,2.27-10.31,3.45a1.85,1.85,0,0,1-1.88-.21c-3.33-2.27-6.69-4.5-10-6.72C110.24,112.36,109.56,112,109.16,111.82Zm11.66,42.35a5.47,5.47,0,0,0,5.28-4.74,2.29,2.29,0,0,0-1.84-2.69,2.35,2.35,0,0,0-2.43,1.89c-.15.47-.67.83-1,1.23-.36-.4-.89-.75-1-1.23-.41-1.26-1.31-2-2.41-1.89a2.23,2.23,0,0,0-1.82,2.58A5.4,5.4,0,0,0,120.82,154.17ZM93.13,126.62a2.22,2.22,0,0,0,2.28-1.9,2.18,2.18,0,0,0-1.74-2.28c-.08,0-.18,0-.24,0-.39-.32-.77-.67-1.15-1,.39-.37.72-.92,1.18-1.07,1.26-.41,2.08-1.3,2-2.39A2.25,2.25,0,0,0,93.13,116a5.3,5.3,0,0,0,0,10.6Zm27.64-38.1a5.33,5.33,0,0,0-5.24,4.87,2.2,2.2,0,0,0,1.77,2.49,2.09,2.09,0,0,0,2.41-1.82c.15-.68.35-1.4,1.14-1.23.41.09.84.75,1,1.24a2.25,2.25,0,0,0,2.47,1.81,2.21,2.21,0,0,0,1.79-2.59A5.35,5.35,0,0,0,120.77,88.52Zm24.78,52.32.3-.15a21.49,21.49,0,0,0-1.65-3.37,2,2,0,0,0-3-.43,2,2,0,0,0-.34,3c.37.55.64,1.06.09,1.62s-1.06.28-1.61-.09a2.09,2.09,0,0,0-3,.34,2.12,2.12,0,0,0,.5,3.09,5.29,5.29,0,0,0,8.68-4Zm8.07-19.46a5.34,5.34,0,0,0-4.64-5.32,2.21,2.21,0,0,0-2.71,1.76c-.19,1.2.57,2.08,1.91,2.5.46.15.8.7,1.19,1.07-.38.33-.72.84-1.17,1-1.42.43-2.18,1.35-1.92,2.58a2.25,2.25,0,0,0,2.7,1.64A5.32,5.32,0,0,0,153.62,121.38Zm-8.08-19.15a5.28,5.28,0,0,0-8.9-4.2,2.1,2.1,0,0,0-.21,2.94,2,2,0,0,0,2.81.37c.56-.37,1.09-.81,1.71-.22s.24,1.2-.16,1.8a2,2,0,0,0,.4,2.81,2.06,2.06,0,0,0,2.84-.16A4.79,4.79,0,0,0,145.54,102.23ZM95.82,102a22.66,22.66,0,0,0,1.33,3,2.42,2.42,0,0,0,3.3.7c.89-.64.94-1.8.28-3a1.77,1.77,0,0,1-.09-1.47c.39-.64,1-.38,1.57,0a2.08,2.08,0,0,0,3.09-.35,2.11,2.11,0,0,0-.59-3.07A5.09,5.09,0,0,0,99,97.14,5.75,5.75,0,0,0,95.82,102Zm.25,38.79a5.27,5.27,0,0,0,8.9,3.84,2,2,0,0,0,.56-2.41,1.92,1.92,0,0,0-2.12-1.26c-.49.06-.92.48-1.41.6s-1.09.16-1.27-.06-.14-.9-.15-1.37c0-.13.19-.25.27-.39a2.12,2.12,0,0,0-.42-2.83,2.08,2.08,0,0,0-2.93.27A5,5,0,0,0,96.07,140.79Z"/><g class="cls-5"><circle class="cls-6" cx="127.13" cy="122.03" r="35.32"/></g><path class="cls-7" d="M109.16,111.82c.4.22,1.08.54,1.71,1,3.36,2.22,6.72,4.45,10,6.72a1.85,1.85,0,0,0,1.88.21c3.43-1.18,6.87-2.31,10.31-3.45,1.47-.48,2.63,0,3.06,1.28s-.24,2.27-1.68,2.76c-4,1.35-8,2.71-12.06,3.94a3.35,3.35,0,0,1-2.48-.34c-4.1-2.62-8.14-5.37-12.19-8.08a2,2,0,0,1-1-2.58C107.1,112.29,107.82,111.85,109.16,111.82Z"/><path class="cls-7" d="M120.82,154.17a5.4,5.4,0,0,1-5.28-4.85,2.23,2.23,0,0,1,1.82-2.58c1.1-.16,2,.63,2.41,1.89.15.48.68.83,1,1.23.35-.4.87-.76,1-1.23a2.35,2.35,0,0,1,2.43-1.89,2.29,2.29,0,0,1,1.84,2.69A5.47,5.47,0,0,1,120.82,154.17Z"/><path class="cls-7" d="M93.13,126.62a5.3,5.3,0,0,1,0-10.6,2.25,2.25,0,0,1,2.28,1.91c.13,1.09-.69,2-2,2.39-.46.15-.79.7-1.18,1.07.38.33.76.68,1.15,1,.06,0,.16,0,.24,0a2.18,2.18,0,0,1,1.74,2.28A2.22,2.22,0,0,1,93.13,126.62Z"/><path class="cls-7" d="M120.77,88.52a5.35,5.35,0,0,1,5.33,4.77,2.21,2.21,0,0,1-1.79,2.59,2.25,2.25,0,0,1-2.47-1.81c-.15-.49-.58-1.15-1-1.24-.79-.17-1,.55-1.14,1.23a2.09,2.09,0,0,1-2.41,1.82,2.2,2.2,0,0,1-1.77-2.49A5.33,5.33,0,0,1,120.77,88.52Z"/><path class="cls-7" d="M145.55,140.84a5.29,5.29,0,0,1-8.68,4,2.12,2.12,0,0,1-.5-3.09,2.09,2.09,0,0,1,3-.34c.55.37,1.06.64,1.61.09s.28-1.07-.09-1.62a2,2,0,0,1,.34-3,2,2,0,0,1,3,.43,21.49,21.49,0,0,1,1.65,3.37Z"/><path class="cls-7" d="M145.55,102.17a4.77,4.77,0,0,1-1.47,3.36,2.05,2.05,0,0,1-2.84.19,2,2,0,0,1-.43-2.8c.39-.61.82-1.18.14-1.8s-1.15-.14-1.71.24a2,2,0,0,1-2.82-.33,2.11,2.11,0,0,1,.18-3,5.28,5.28,0,0,1,9,4.09Z"/><path class="cls-7" d="M95.82,102A5.75,5.75,0,0,1,99,97.14a5.09,5.09,0,0,1,5.68.65,2.11,2.11,0,0,1,.59,3.07,2.08,2.08,0,0,1-3.09.35c-.56-.38-1.18-.64-1.57,0a1.77,1.77,0,0,0,.09,1.47c.66,1.24.61,2.4-.28,3a2.42,2.42,0,0,1-3.3-.7A22.66,22.66,0,0,1,95.82,102Z"/><path class="cls-7" d="M96.07,140.79a5,5,0,0,1,1.43-3.61,2.08,2.08,0,0,1,2.93-.27,2.12,2.12,0,0,1,.42,2.83c-.08.14-.27.26-.27.39,0,.47-.09,1.06.15,1.37s.85.16,1.27.06.92-.54,1.41-.6a1.92,1.92,0,0,1,2.12,1.26,2,2,0,0,1-.56,2.41,5.27,5.27,0,0,1-8.9-3.84Z"/><path class="cls-7" d="M153.62,121.38a5.32,5.32,0,0,1-4.64,5.21,2.25,2.25,0,0,1-2.7-1.64c-.26-1.23.5-2.15,1.92-2.58.45-.14.79-.65,1.17-1-.39-.37-.73-.92-1.19-1.07-1.34-.42-2.1-1.3-1.91-2.5a2.21,2.21,0,0,1,2.71-1.76A5.34,5.34,0,0,1,153.62,121.38Z"/></g><path class="cls-3" d="M119.39,83.31c.74-.37,9.06-4.44,16.94,0a17.38,17.38,0,0,1,7.26,8.23l-6.06-23.87a2.35,2.35,0,0,0-2.28-1.78H107.1a2.35,2.35,0,0,0-2.28,1.78L96.65,89.6"/><path class="cls-3" d="M123.26,158.8c-.74.38-9.05,4.44-16.93,0a17.31,17.31,0,0,1-7.26-8.22l6.06,23.87a2.34,2.34,0,0,0,2.27,1.77h28.16a2.33,2.33,0,0,0,2.27-1.77q4.09-11,8.18-21.94"/><path class="cls-8" d="M157.38,66.34a3.29,3.29,0,1,1-2.18-4.11A3.29,3.29,0,0,1,157.38,66.34Z"/><path class="cls-9" d="M187.58,108.2a4.93,4.93,0,1,1-3.28-6.15A4.94,4.94,0,0,1,187.58,108.2Z"/><path class="cls-9" d="M60.12,110.8a4.93,4.93,0,1,1-3.28-6.16A4.92,4.92,0,0,1,60.12,110.8Z"/><path class="cls-8" d="M75.34,156.69a3.29,3.29,0,1,1-2.19-4.11A3.29,3.29,0,0,1,75.34,156.69Z"/><path class="cls-10" d="M152.8,70.09a4.93,4.93,0,1,0-3.28-6.15A4.92,4.92,0,0,0,152.8,70.09Zm1.92-6.29a1.65,1.65,0,1,1-2.05,1.1A1.66,1.66,0,0,1,154.72,63.8Z"/><path class="cls-11" d="M180.94,113.05a6.58,6.58,0,1,0-4.37-8.21A6.57,6.57,0,0,0,180.94,113.05Zm2.88-9.43a3.29,3.29,0,1,1-4.1,2.18A3.28,3.28,0,0,1,183.82,103.62Z"/><path class="cls-11" d="M57.32,103.07a6.58,6.58,0,1,0,4.37,8.21A6.57,6.57,0,0,0,57.32,103.07Zm-2.87,9.43a3.29,3.29,0,1,1,4.1-2.18A3.28,3.28,0,0,1,54.45,112.5Z"/><path class="cls-10" d="M73.63,151a4.93,4.93,0,1,0,3.28,6.16A4.93,4.93,0,0,0,73.63,151Zm-1.91,6.29a1.64,1.64,0,1,1,2-1.09A1.65,1.65,0,0,1,71.72,157.3Z"/></g></g></svg>