<?xml version="1.0" encoding="utf-8"?>
<!-- Generator: Adobe Illustrator 22.1.0, SVG Export Plug-In . SVG Version: 6.00 Build 0)  -->
<svg version="1.1" id="Calque_1" xmlns="http://www.w3.org/2000/svg" x="0px" y="0px"
     viewBox="0 0 237.4 237.4" style="enable-background:new 0 0 237.4 237.4;" xml:space="preserve">
<style type="text/css">
	.st0{fill:#FFFFFF;stroke:#04BDD7;stroke-width:8;stroke-miterlimit:10;}
	.st1{fill:#686868;}
	.st2{fill:#FFFFFF;}
	.st3{opacity:0.57;}
	.st4{fill:#4FBDD7;}
	.st5{fill:#848484;}
	.st6{fill:#898890;}
	.st7{fill:#D8D7DA;}
	.st8{opacity:0.48;fill:#EF9486;enable-background:new    ;}
	.st9{opacity:0.46;fill:#00A5C3;enable-background:new    ;}
</style>
<title></title>
<g>
	<g id="Calque_1_1_">
		<path class="st0" d="M211.7,91.4c16.3,52.2-12.8,107.7-65,124s-107.7-12.8-124-65s12.8-107.7,65-124c24.8-7.7,51.7-5.4,74.8,6.5"
			/>
		<g id="_01YT8A.tif">
			<path class="st1" d="M121.7,81c22.6,0.1,40.8,18.4,40.7,41s-18.4,40.8-41,40.7s-40.8-18.4-40.7-41c0,0,0-0.1,0-0.1
				C80.9,99.1,99.2,81,121.7,81z M84.9,121.9c0,20.2,16.4,36.6,36.6,36.6s36.6-16.4,36.6-36.6c0-20.1-16.2-36.5-36.3-36.6
				C101.6,85.2,85,101.5,84.9,121.9C84.9,121.8,84.9,121.8,84.9,121.9z"/>
			<path class="st2" d="M84.9,121.9c0-20.2,16.5-36.6,36.7-36.5c20.2,0,36.6,16.5,36.5,36.7c0,20.2-16.5,36.6-36.7,36.5
				c-0.1,0-0.1,0-0.2,0C101.1,158.4,84.9,142,84.9,121.9z M109.9,112.8c-1.3,0-2.1,0.5-2.4,1.4c-0.4,1,0,2.1,1,2.6
				c4,2.7,8.1,5.5,12.2,8.1c0.8,0.4,1.6,0.6,2.5,0.3c4-1.2,8-2.6,12.1-3.9c1.4-0.5,2.1-1.6,1.7-2.8s-1.6-1.8-3.1-1.3
				c-3.4,1.1-6.9,2.3-10.3,3.4c-0.6,0.3-1.3,0.2-1.9-0.2c-3.3-2.3-6.7-4.5-10-6.7C110.9,113.4,110.3,113,109.9,112.8L109.9,112.8z
				 M121.6,155.2c2.7-0.1,4.9-2.1,5.3-4.7c0.2-1.2-0.6-2.4-1.8-2.7c0,0,0,0,0,0c-1.2-0.1-2.2,0.7-2.4,1.9c-0.2,0.5-0.7,0.8-1,1.2
				c-0.4-0.4-0.9-0.8-1-1.2c-0.4-1.3-1.3-2-2.4-1.9c-1.2,0.2-2,1.4-1.8,2.6c0,0,0,0,0,0C116.6,153,118.8,155.1,121.6,155.2
				L121.6,155.2z M93.8,127.6c1.1,0,2.1-0.8,2.3-1.9c0.1-1.1-0.7-2.1-1.7-2.3c-0.1,0-0.2,0-0.2,0c-0.4-0.3-0.8-0.7-1.2-1
				c0.4-0.4,0.7-0.9,1.2-1.1c1.3-0.4,2.1-1.3,2-2.4c-0.1-1.2-1.2-2-2.3-2c-2.9,0-5.3,2.4-5.3,5.3C88.5,125.2,90.9,127.6,93.8,127.6
				L93.8,127.6z M121.5,89.5c-2.7,0-5,2.1-5.2,4.9c-0.2,1.2,0.6,2.3,1.8,2.5c1.1,0.2,2.2-0.6,2.4-1.7c0,0,0-0.1,0-0.1
				c0.2-0.7,0.3-1.4,1.1-1.2c0.4,0.1,0.8,0.8,1,1.2c0.2,1.2,1.3,1.9,2.5,1.8c1.2-0.2,2-1.4,1.8-2.6c0,0,0,0,0,0
				C126.5,91.6,124.2,89.5,121.5,89.5z M146.2,141.8l0.3-0.1c-0.5-1.2-1-2.3-1.6-3.4c-0.6-0.9-1.8-1.2-2.8-0.6
				c-0.1,0.1-0.2,0.1-0.2,0.2c-0.9,0.6-1.1,1.9-0.5,2.8c0.1,0.1,0.1,0.1,0.2,0.2c0.4,0.6,0.6,1.1,0.1,1.6s-1.1,0.3-1.6-0.1
				c-0.9-0.7-2.2-0.6-2.9,0.3c0,0,0,0-0.1,0.1c-0.7,0.9-0.6,2.3,0.3,3c0,0,0.1,0.1,0.2,0.1c2.2,1.9,5.6,1.6,7.5-0.7
				C145.8,144.2,146.2,143.1,146.2,141.8L146.2,141.8z M154.3,122.4c0-2.7-2-5-4.6-5.3c-1.2-0.3-2.4,0.4-2.7,1.6c0,0,0,0.1,0,0.1
				c-0.2,1.2,0.6,2.1,1.9,2.5c0.5,0.2,0.8,0.7,1.2,1.1c-0.4,0.3-0.7,0.8-1.2,1c-1.4,0.4-2.2,1.3-1.9,2.6c0.3,1.2,1.5,1.9,2.7,1.6
				C152.3,127.3,154.3,125,154.3,122.4z M146.2,103.2c0.2-2.9-2-5.4-4.9-5.6c-1.5-0.1-2.9,0.4-4,1.4c-0.9,0.8-1,2.1-0.2,2.9
				c0.7,0.9,1.9,1,2.8,0.4c0,0,0,0,0,0c0.6-0.4,1.1-0.8,1.7-0.2s0.2,1.2-0.2,1.8c-0.7,0.9-0.5,2.1,0.4,2.8c0,0,0,0,0,0
				c0.8,0.7,2.1,0.6,2.8-0.2C145.6,105.7,146.2,104.5,146.2,103.2z M96.5,103c0.4,1,0.8,2,1.3,3c0.7,1.1,2.2,1.4,3.3,0.7
				c0.9-0.6,0.9-1.8,0.3-3c-0.2-0.5-0.3-1-0.1-1.5c0.4-0.6,1-0.4,1.6,0c0.9,0.8,2.2,0.7,2.9-0.2c0.1-0.1,0.1-0.1,0.2-0.2
				c0.7-0.9,0.5-2.3-0.4-3c-0.1,0-0.1-0.1-0.2-0.1c-1.6-1.4-3.9-1.6-5.7-0.7C97.8,99.1,96.6,100.9,96.5,103z M96.8,141.8
				c0,2.9,2.3,5.3,5.3,5.3c1.4,0,2.7-0.5,3.6-1.4c0.7-0.6,1-1.6,0.6-2.4c-0.3-0.9-1.2-1.4-2.1-1.3c-0.5,0.1-0.9,0.5-1.4,0.6
				s-1.1,0.2-1.3-0.1s-0.1-0.9-0.2-1.4c0-0.1,0.2-0.2,0.3-0.4c0.6-0.9,0.4-2.1-0.4-2.8c-0.9-0.7-2.2-0.6-2.9,0.3c0,0,0,0,0,0
				C97.2,139.1,96.7,140.4,96.8,141.8L96.8,141.8z"/>
			<g class="st3">
				<circle class="st4" cx="127.8" cy="123" r="35.3"/>
			</g>
			<path class="st5" d="M109.9,112.8c0.4,0.2,1.1,0.5,1.7,1c3.4,2.2,6.7,4.4,10,6.7c0.5,0.4,1.3,0.5,1.9,0.2
				c3.4-1.2,6.9-2.3,10.3-3.4c1.5-0.5,2.6,0,3.1,1.3s-0.2,2.3-1.7,2.8c-4,1.3-8,2.7-12.1,3.9c-0.8,0.2-1.7,0.1-2.5-0.3
				c-4.1-2.6-8.1-5.4-12.2-8.1c-1-0.5-1.4-1.6-1-2.6C107.8,113.3,108.5,112.9,109.9,112.8z"/>
			<path class="st5" d="M121.5,155.2c-2.7,0-5-2.1-5.3-4.9c-0.2-1.2,0.6-2.4,1.8-2.6c0,0,0,0,0,0c1.1-0.2,2,0.6,2.4,1.9
				c0.2,0.5,0.7,0.8,1,1.2c0.3-0.4,0.9-0.8,1-1.2c0.2-1.1,1.3-2,2.4-1.9c1.2,0.2,2.1,1.4,1.8,2.7c0,0,0,0,0,0
				C126.4,153.1,124.2,155.1,121.5,155.2z"/>
			<path class="st5" d="M93.8,127.6c-2.9,0-5.3-2.4-5.3-5.3c0-2.9,2.4-5.3,5.3-5.3c1.1,0,2.1,0.8,2.3,1.9c0.1,1.1-0.7,2-2,2.4
				c-0.5,0.2-0.8,0.7-1.2,1.1c0.4,0.3,0.8,0.7,1.2,1c0.1,0,0.2,0,0.2,0c1.1,0.2,1.8,1.2,1.7,2.3C95.9,126.8,95,127.6,93.8,127.6z"/>
			<path class="st5" d="M121.5,89.5c2.7,0,5,2.1,5.3,4.8c0.2,1.2-0.6,2.4-1.8,2.6c0,0,0,0,0,0c-1.2,0.1-2.2-0.7-2.5-1.8
				c-0.2-0.5-0.6-1.2-1-1.2c-0.8-0.2-1,0.6-1.1,1.2c-0.1,1.1-1.2,2-2.3,1.8c0,0-0.1,0-0.1,0c-1.2-0.2-1.9-1.3-1.8-2.5
				C116.4,91.7,118.7,89.6,121.5,89.5z"/>
			<path class="st5" d="M146.2,141.8c0,2.9-2.4,5.3-5.4,5.2c-1.2,0-2.4-0.4-3.3-1.2c-1-0.6-1.3-2-0.6-2.9c0-0.1,0.1-0.1,0.1-0.2
				c0.7-0.9,2-1.1,2.9-0.4c0,0,0,0,0.1,0.1c0.6,0.4,1.1,0.6,1.6,0.1s0.3-1.1-0.1-1.6c-0.7-0.8-0.7-2.1,0.1-2.8
				c0.1-0.1,0.1-0.1,0.2-0.2c0.8-0.7,2.1-0.6,2.8,0.2c0.1,0.1,0.1,0.2,0.2,0.2c0.6,1.1,1.2,2.2,1.6,3.4L146.2,141.8z"/>
			<path class="st5" d="M146.2,103.2c0,1.3-0.6,2.5-1.5,3.4c-0.7,0.8-2,0.9-2.8,0.2c-0.9-0.7-1.1-1.9-0.4-2.8c0,0,0,0,0,0
				c0.4-0.6,0.8-1.2,0.1-1.8s-1.1-0.1-1.7,0.2c-0.9,0.7-2.1,0.5-2.8-0.3c0,0,0,0,0,0c-0.8-0.9-0.7-2.2,0.2-3c0,0,0,0,0,0
				c2.1-2.1,5.4-2.1,7.5,0C145.8,100.1,146.4,101.6,146.2,103.2L146.2,103.2z"/>
			<path class="st5" d="M96.5,103c0.1-2.1,1.3-3.9,3.2-4.9c1.8-1,4.1-0.7,5.7,0.7c1,0.6,1.3,1.9,0.7,2.9c0,0.1-0.1,0.1-0.1,0.2
				c-0.7,0.9-2,1.2-2.9,0.5c-0.1,0-0.1-0.1-0.2-0.2c-0.6-0.4-1.2-0.6-1.6,0c-0.2,0.5-0.2,1,0.1,1.5c0.7,1.2,0.6,2.4-0.3,3
				c-1.1,0.7-2.6,0.4-3.3-0.7C97.3,105,96.9,104,96.5,103z"/>
			<path class="st5" d="M96.8,141.8c0-1.3,0.5-2.6,1.4-3.6c0.7-0.9,2-1,2.9-0.3c0,0,0,0,0,0c0.9,0.7,1,1.9,0.4,2.8
				c-0.1,0.1-0.3,0.3-0.3,0.4c0,0.5-0.1,1.1,0.2,1.4s0.8,0.2,1.3,0.1s0.9-0.5,1.4-0.6c0.9-0.1,1.8,0.4,2.1,1.3
				c0.4,0.8,0.2,1.8-0.6,2.4c-2.1,2-5.4,1.9-7.5-0.2C97.3,144.5,96.8,143.1,96.8,141.8L96.8,141.8z"/>
			<path class="st5" d="M154.3,122.4c0,2.6-2,4.9-4.6,5.2c-1.2,0.3-2.4-0.4-2.7-1.6c-0.3-1.2,0.5-2.2,1.9-2.6c0.4-0.1,0.8-0.7,1.2-1
				c-0.4-0.4-0.7-0.9-1.2-1.1c-1.3-0.4-2.1-1.3-1.9-2.5c0.2-1.2,1.4-2,2.6-1.8c0.1,0,0.1,0,0.1,0
				C152.3,117.4,154.3,119.7,154.3,122.4z"/>
		</g>
		<path class="st1" d="M120.1,84.3c0.7-0.4,9.1-4.4,16.9,0c3.2,1.9,5.8,4.8,7.3,8.2l-6.1-23.9c-0.3-1-1.2-1.8-2.3-1.8h-28.2
			c-1.1,0-2,0.7-2.3,1.8l-8.2,21.9"/>
		<path class="st1" d="M124,159.8c-0.7,0.4-9.1,4.4-16.9,0c-3.2-1.9-5.8-4.8-7.3-8.2l6.1,23.9c0.3,1,1.2,1.8,2.3,1.8h28.2
			c1.1,0,2-0.7,2.3-1.8c2.7-7.3,5.5-14.6,8.2-21.9"/>
		<path class="st6" d="M158.1,67.3c-0.5,1.7-2.4,2.7-4.1,2.2c-1.7-0.5-2.7-2.4-2.2-4.1c0.5-1.7,2.4-2.7,4.1-2.2c0,0,0,0,0,0
			C157.6,63.8,158.6,65.6,158.1,67.3z"/>
		<path class="st7" d="M188.3,109.2c-0.8,2.6-3.5,4.1-6.2,3.3c-2.6-0.8-4.1-3.5-3.3-6.2c0.8-2.6,3.5-4.1,6.2-3.3c0,0,0,0,0,0
			C187.6,103.8,189.1,106.6,188.3,109.2z"/>
		<path class="st7" d="M60.8,111.8c-0.8,2.6-3.6,4.1-6.2,3.3c-2.6-0.8-4.1-3.6-3.3-6.2c0.8-2.6,3.5-4.1,6.1-3.3
			C60.1,106.4,61.6,109.2,60.8,111.8C60.8,111.8,60.8,111.8,60.8,111.8z"/>
		<path class="st6" d="M76,157.7c-0.5,1.7-2.4,2.7-4.1,2.2s-2.7-2.4-2.2-4.1c0.5-1.7,2.4-2.7,4.1-2.2
			C75.6,154.1,76.6,155.9,76,157.7C76,157.7,76,157.7,76,157.7z"/>
		<path class="st8" d="M153.5,71.1c2.6,0.8,5.4-0.7,6.2-3.3c0.8-2.6-0.7-5.4-3.3-6.2c-2.6-0.8-5.4,0.7-6.2,3.3c0,0,0,0,0,0
			C149.4,67.5,150.9,70.3,153.5,71.1C153.5,71.1,153.5,71.1,153.5,71.1z M155.4,64.8c0.9,0.3,1.4,1.2,1.1,2.1
			c-0.3,0.9-1.2,1.4-2.1,1.1c-0.9-0.3-1.4-1.2-1.1-2.1c0,0,0,0,0,0C153.6,65,154.5,64.5,155.4,64.8z"/>
		<path class="st9" d="M181.6,114.1c3.5,1.1,7.2-0.9,8.2-4.4s-0.9-7.2-4.4-8.2c-3.5-1.1-7.2,0.9-8.2,4.4c0,0,0,0,0,0
			C176.2,109.3,178.1,113,181.6,114.1C181.6,114,181.6,114,181.6,114.1z M184.5,104.6c1.7,0.5,2.7,2.4,2.2,4.1
			c-0.5,1.7-2.4,2.7-4.1,2.2c-1.7-0.5-2.7-2.4-2.2-4.1c0,0,0,0,0,0C180.9,105.1,182.8,104.1,184.5,104.6
			C184.5,104.6,184.5,104.6,184.5,104.6z"/>
		<path class="st9" d="M58,104.1c-3.5-1.1-7.2,0.9-8.2,4.4c-1.1,3.5,0.9,7.2,4.4,8.2s7.2-0.9,8.2-4.4c0,0,0,0,0,0
			C63.4,108.8,61.5,105.1,58,104.1C58,104.1,58,104.1,58,104.1z M55.1,113.5c-1.7-0.5-2.7-2.4-2.2-4.1s2.4-2.7,4.1-2.2
			s2.7,2.4,2.2,4.1c0,0,0,0,0,0C58.7,113.1,56.9,114,55.1,113.5C55.1,113.5,55.1,113.5,55.1,113.5z"/>
		<path class="st8" d="M74.3,152c-2.6-0.8-5.4,0.7-6.2,3.3c-0.8,2.6,0.7,5.4,3.3,6.2c2.6,0.8,5.4-0.7,6.1-3.3
			C78.4,155.6,76.9,152.8,74.3,152C74.3,152,74.3,152,74.3,152z M72.4,158.3c-0.9-0.2-1.4-1.1-1.1-2s1.1-1.4,2-1.1s1.4,1.1,1.1,2
			c0,0,0,0,0,0.1C74.1,158,73.3,158.5,72.4,158.3L72.4,158.3z"/>
	</g>
</g>
</svg>
