<svg xmlns="http://www.w3.org/2000/svg" viewBox="0 0 237.43 237.43"><defs><style>.cls-1{isolation:isolate;}.cls-2{fill:#fff;stroke:#bababa;stroke-width:5px;}.cls-2,.cls-7{stroke-miterlimit:10;}.cls-3{fill:#898890;}.cls-4{fill:#d8d7da;}.cls-5{fill:#ef9486;opacity:0.48;}.cls-6{fill:#00a5c3;opacity:0.46;mix-blend-mode:multiply;}.cls-7{fill:none;stroke:#686868;stroke-width:3px;}.cls-8{opacity:0.57;}.cls-9{fill:#4fbdd7;}.cls-10{fill:#e2e2e2;opacity:0.59;}</style></defs><title> </title><g class="cls-1"><g id="Calque_1" data-name="Calque 1"><path class="cls-2" d="M211.52,91.38a99,99,0,1,1-49.2-58.52"/><path class="cls-3" d="M141.91,63.34a3.29,3.29,0,1,1-2.18-4.11A3.29,3.29,0,0,1,141.91,63.34Z"/><path class="cls-4" d="M192.11,125.2a4.93,4.93,0,1,1-3.28-6.15A4.94,4.94,0,0,1,192.11,125.2Z"/><path class="cls-4" d="M59.65,103.8a4.93,4.93,0,1,1-3.28-6.16A4.92,4.92,0,0,1,59.65,103.8Z"/><path class="cls-3" d="M94.87,189.69a3.29,3.29,0,1,1-2.19-4.11A3.29,3.29,0,0,1,94.87,189.69Z"/><path class="cls-5" d="M137.33,67.09a4.93,4.93,0,1,0-3.28-6.15A4.92,4.92,0,0,0,137.33,67.09Zm1.92-6.29a1.65,1.65,0,1,1-2.05,1.1A1.66,1.66,0,0,1,139.25,60.8Z"/><path class="cls-6" d="M185.47,130.05a6.58,6.58,0,1,0-4.37-8.21A6.57,6.57,0,0,0,185.47,130.05Zm2.88-9.43a3.29,3.29,0,1,1-4.1,2.18A3.28,3.28,0,0,1,188.35,120.62Z"/><path class="cls-6" d="M56.85,96.07a6.58,6.58,0,1,0,4.37,8.21A6.57,6.57,0,0,0,56.85,96.07ZM54,105.5a3.29,3.29,0,1,1,4.1-2.18A3.28,3.28,0,0,1,54,105.5Z"/><path class="cls-6" d="M93.16,184a4.93,4.93,0,1,0,3.28,6.16A4.93,4.93,0,0,0,93.16,184Zm-1.91,6.29a1.64,1.64,0,1,1,2-1.09A1.65,1.65,0,0,1,91.25,190.3Z"/><path class="cls-7" d="M154.74,110.66h-2.08v22.9c0,3.56-2.08,6.78-6.24,6.78H105.66v1.09c0,3.15,3.58,6.34,7.26,6.34h31.17l11.92,7-1.73-7h.46c3.68,0,5.34-3.18,5.34-6.34V116.1C160.08,113,158.42,110.66,154.74,110.66Z"/><path class="cls-7" d="M140.33,94.76H93c-4.17,0-9,3.7-9,7.26v28.7c0,3.28,4.06,5.66,8,6l-2.54,9.63,16.25-9.56h34.63c4.17,0,8-2.53,8-6.09V102C148.34,98.46,144.5,94.76,140.33,94.76ZM100.21,119a4.28,4.28,0,1,1,4.28-4.28A4.28,4.28,0,0,1,100.21,119Zm16,0a4.28,4.28,0,1,1,4.27-4.28A4.28,4.28,0,0,1,116.19,119Zm16,0a4.28,4.28,0,1,1,4.28-4.28A4.28,4.28,0,0,1,132.16,119Z"/><g class="cls-8"><circle class="cls-9" cx="102.64" cy="115.67" r="4.28"/></g><g class="cls-8"><circle class="cls-9" cx="118.61" cy="115.67" r="4.28"/></g><g class="cls-8"><path class="cls-9" d="M134.59,120a4.28,4.28,0,1,1,4.28-4.28A4.28,4.28,0,0,1,134.59,120Z"/></g><path class="cls-5" d="M157.65,114.55h-2.08v22.89c0,3.56-2.08,6.79-6.24,6.79H108.57v1.09c0,3.15,3.58,6.33,7.26,6.33H147l11.92,7-1.73-7h.46c3.68,0,5.34-3.18,5.34-6.33V120C163,116.83,161.33,114.55,157.65,114.55Z"/><circle class="cls-10" cx="117.49" cy="120.39" r="96.5"/></g></g></svg>