<?xml version="1.0" encoding="utf-8"?>
<!-- Generator: Adobe Illustrator 22.1.0, SVG Export Plug-In . SVG Version: 6.00 Build 0)  -->
<svg style="enable-background:new 0 0 237.4 237.4;" id="Calque_1" version="1.1" viewBox="0 0 237.4 237.4" x="0px"
     xmlns="http://www.w3.org/2000/svg" y="0px" xml:space="preserve">
<style type="text/css">
	.st0{fill:#FFFFFF;stroke:#04BDD7;stroke-width:8;stroke-miterlimit:10;}
	.st1{fill:#898890;}
	.st2{fill:#D8D7DA;}
	.st3{opacity:0.48;fill:#EF9486;enable-background:new    ;}
	.st4{opacity:0.46;fill:#00A5C3;enable-background:new    ;}
	.st5{fill:none;stroke:#686868;stroke-width:3;stroke-miterlimit:10;}
	.st6{opacity:0.57;}
	.st7{fill:#4FBDD7;}
</style>
    <title></title>
    <g>
	<g id="Calque_1_1_">
		<path class="st0"
              d="M211.7,91.4c16.3,52.2-12.8,107.7-65,124s-107.7-12.8-124-65s12.8-107.7,65-124c24.8-7.7,51.7-5.4,74.8,6.5"
        />
        <path class="st1" d="M142.1,63.3c-0.5,1.7-2.4,2.7-4.1,2.2c-1.7-0.5-2.7-2.4-2.2-4.1s2.4-2.7,4.1-2.2c0,0,0,0,0,0
			C141.6,59.8,142.6,61.6,142.1,63.3z"/>
        <path class="st2" d="M192.3,125.2c-0.8,2.6-3.5,4.1-6.2,3.3c-2.6-0.8-4.1-3.5-3.3-6.2c0.8-2.6,3.5-4.1,6.2-3.3c0,0,0,0,0,0
			C191.6,119.8,193.1,122.6,192.3,125.2z"/>
        <path class="st2" d="M59.8,103.8c-0.8,2.6-3.6,4.1-6.2,3.3c-2.6-0.8-4.1-3.6-3.3-6.2c0.8-2.6,3.5-4.1,6.1-3.3
			C59.1,98.4,60.6,101.2,59.8,103.8C59.8,103.8,59.8,103.8,59.8,103.8z"/>
        <path class="st1" d="M95,189.7c-0.5,1.7-2.4,2.7-4.1,2.2s-2.7-2.4-2.2-4.1c0.5-1.7,2.4-2.7,4.1-2.2C94.5,186.1,95.5,188,95,189.7z
			"/>
        <path class="st3" d="M137.5,67.1c2.6,0.8,5.4-0.7,6.2-3.3c0.8-2.6-0.7-5.4-3.3-6.2c-2.6-0.8-5.4,0.7-6.2,3.3c0,0,0,0,0,0
			C133.4,63.5,134.9,66.3,137.5,67.1C137.5,67.1,137.5,67.1,137.5,67.1z M139.4,60.8c0.9,0.3,1.4,1.2,1.1,2.1
			c-0.3,0.9-1.2,1.4-2.1,1.1c-0.9-0.3-1.4-1.2-1.1-2.1C137.6,61,138.5,60.5,139.4,60.8z"/>
        <path class="st4" d="M185.6,130.1c3.5,1.1,7.2-0.9,8.2-4.4s-0.9-7.2-4.4-8.2c-3.5-1.1-7.2,0.9-8.2,4.4c0,0,0,0,0,0
			C180.2,125.3,182.2,129,185.6,130.1C185.6,130,185.6,130,185.6,130.1z M188.5,120.6c1.7,0.5,2.7,2.4,2.2,4.1s-2.4,2.7-4.1,2.2
			c-1.7-0.5-2.7-2.4-2.2-4.1c0,0,0,0,0,0C184.9,121.1,186.8,120.1,188.5,120.6z"/>
        <path class="st4" d="M57,96.1c-3.5-1.1-7.2,0.9-8.2,4.4c-1.1,3.5,0.9,7.2,4.4,8.2s7.2-0.9,8.2-4.4c0,0,0,0,0,0
			C62.4,100.8,60.5,97.1,57,96.1z M54.1,105.5c-1.7-0.5-2.7-2.4-2.2-4.1s2.4-2.7,4.1-2.2c1.7,0.5,2.7,2.4,2.2,4.1c0,0,0,0,0,0
			C57.7,105.1,55.9,106,54.1,105.5L54.1,105.5z"/>
        <path class="st4" d="M93.3,184c-2.6-0.8-5.4,0.7-6.2,3.3c-0.8,2.6,0.7,5.4,3.3,6.2c2.6,0.8,5.4-0.7,6.1-3.3
			C97.4,187.6,95.9,184.8,93.3,184C93.3,184,93.3,184,93.3,184z M91.4,190.3c-0.9-0.3-1.3-1.2-1.1-2.1c0.3-0.9,1.2-1.3,2.1-1.1
			c0.9,0.3,1.3,1.2,1.1,2C93.2,190.1,92.3,190.6,91.4,190.3C91.4,190.3,91.4,190.3,91.4,190.3L91.4,190.3z"/>
        <path class="st5" d="M154.9,110.7h-2.1v22.9c0,3.6-2.1,6.8-6.2,6.8h-40.8v1.1c0,3.1,3.6,6.3,7.3,6.3h31.2l11.9,7l-1.7-7h0.5
			c3.7,0,5.3-3.2,5.3-6.3v-25.3C160.2,113,158.6,110.7,154.9,110.7z"/>
        <path class="st5" d="M140.5,94.8H93.2c-4.2,0-9,3.7-9,7.3v28.7c0,3.3,4.1,5.7,8,6l-2.5,9.6l16.2-9.6h34.6c4.2,0,8-2.5,8-6.1V102
			C148.5,98.5,144.7,94.8,140.5,94.8z M100.4,119c-2.4,0-4.3-1.9-4.3-4.3s1.9-4.3,4.3-4.3c2.4,0,4.3,1.9,4.3,4.3l0,0
			C104.7,117.1,102.7,119,100.4,119z M116.4,119c-2.4,0-4.3-1.9-4.3-4.3c0-2.4,1.9-4.3,4.3-4.3c2.4,0,4.3,1.9,4.3,4.3c0,0,0,0,0,0
			C120.7,117.1,118.7,119,116.4,119C116.4,119,116.4,119,116.4,119L116.4,119z M132.4,119c-2.4,0-4.3-1.9-4.3-4.3s1.9-4.3,4.3-4.3
			c2.4,0,4.3,1.9,4.3,4.3l0,0C136.7,117.1,134.7,119,132.4,119C132.4,119,132.3,119,132.4,119L132.4,119z"/>
        <g class="st6">
			<circle class="st7" cx="102.8" cy="115.7" r="4.3"/>
		</g>
        <g class="st6">
			<circle class="st7" cx="118.8" cy="115.7" r="4.3"/>
		</g>
        <g class="st6">
			<path class="st7" d="M134.8,120c-2.4,0-4.3-1.9-4.3-4.3s1.9-4.3,4.3-4.3c2.4,0,4.3,1.9,4.3,4.3l0,0
				C139,118.1,137.1,120,134.8,120z"/>
		</g>
        <path class="st3" d="M157.8,114.6h-2.1v22.9c0,3.6-2.1,6.8-6.2,6.8h-40.8v1.1c0,3.1,3.6,6.3,7.3,6.3h31.2l11.9,7l-1.7-7h0.5
			c3.7,0,5.3-3.2,5.3-6.3V120C163.2,116.8,161.5,114.6,157.8,114.6z"/>
	</g>
</g>
</svg>
