<svg data-name="Groupe 1738" height="17.753" id="Groupe_1738" viewBox="0 0 25.93 21.753" width="21.93"
     xmlns="http://www.w3.org/2000/svg">
    <g data-name="Groupe 1072" id="Groupe_1072" transform="translate(0 0)">
        <g data-name="Groupe 1071" id="Groupe_1071" transform="translate(0 0)">
            <path d="M7.316,37.554h24.1a.906.906,0,0,0,.916-.916V20.379a.906.906,0,0,0-.916-.916H24.424V16.716a.906.906,0,0,0-.916-.916H15.244a.906.906,0,0,0-.916.916v2.769H7.316A.906.906,0,0,0,6.4,20.4V36.66A.931.931,0,0,0,7.316,37.554ZM16.16,17.631h6.432v1.854H16.16Z" data-name="Tracé 11020"
                  fill="#f87280"
                  id="Tracé_11020" transform="translate(-6.4 -15.8)"/>
        </g>
        <rect data-name="Rectangle 1816" fill="#fff" height="1.266" id="Rectangle_1816"
              transform="translate(0 12.031)" width="25.93"/>
        <rect data-name="Rectangle 1817" fill="#fff" height="4.318" id="Rectangle_1817" rx="0.804"
              transform="translate(6.834 10.467)" width="1.608"/>
        <rect data-name="Rectangle 1818" fill="#fff" height="4.318" id="Rectangle_1818" rx="0.804"
              transform="translate(17.555 10.467)" width="1.608"/>
    </g>
</svg>
