<?xml version="1.0" encoding="utf-8"?>
<!-- Generator: Adobe Illustrator 22.1.0, SVG Export Plug-In . SVG Version: 6.00 Build 0)  -->
<svg version="1.1" id="Calque_1" xmlns="http://www.w3.org/2000/svg" xmlns:xlink="http://www.w3.org/1999/xlink" x="0px" y="0px"
	 viewBox="0 0 516 520" style="enable-background:new 0 0 516 520;" xml:space="preserve">
<style type="text/css">
	.st0{opacity:0.66;}
	.st1{fill:#4FBDD7;}
	.st2{fill:url(#SVGID_1_);}
	.st3{fill:#FFFFFF;}
	.st4{fill:url(#SVGID_2_);}
	.st5{fill:url(#SVGID_3_);}
	.st6{fill:url(#SVGID_4_);}
	.st7{fill:#FFFFFF;stroke:#FFFFFF;stroke-width:10;stroke-miterlimit:10;}
	.st8{fill:url(#SVGID_5_);}
	.st9{fill:#FF949A;}
</style>
<g class="st0">
	<path class="st1" d="M191.7,498.1c-0.8,0-1.7-0.2-2.6-0.5l-0.1,0c-41.9-11.1-78.6-33.5-109.1-66.6c-35.1-38.2-56.2-82-62.8-130.4
		c-5.3-38.9-0.4-77.7,14.6-115.5c27.4-69.4,75.1-117.5,141.7-142.9c28.8-11,57.9-16.6,86.5-16.6c40.4,0,80.6,11.1,119.5,33.1
		c55.7,31.5,93.4,79.6,112,143c2.1,7,1.5,7.9-6.4,10.5l-0.7,0.2l9.2,10.2c-0.9,0.8-1.7,1.6-2.6,2.4c-2.5,2.4-5,4.6-7.3,7
		c-0.8,0.8-1.2,2-1.6,3.1c-0.2,0.5-0.3,1-0.5,1.4l-0.5,1.1l1.1-0.4c0.5-0.2,1-0.4,1.5-0.5c1.2-0.4,2.5-0.7,3.4-1.6
		c2.3-2.1,4.5-4.4,7.1-7.1c0.9-0.9,1.8-1.9,2.9-3l2.7,20.7l-1.2,0.4c-0.6-0.5-1.1-1.1-1.7-1.6c-1.5-1.5-3.1-3.1-4.9-4.4
		c-0.8-0.6-1.9-0.8-3-1c-0.5-0.1-0.9-0.2-1.3-0.3l-0.9-0.2l0.3,0.9c0.1,0.4,0.2,0.8,0.3,1.2c0.2,1,0.5,2,1.2,2.7
		c1.5,1.5,3.1,2.8,4.9,4.3c0.7,0.5,1.3,1.1,2.1,1.7c-1.1,1.1-2.2,2.1-3.2,3c-2.4,2.3-4.5,4.2-6.5,6.3c-4.3,4.3-4.3,7.6-0.1,11.9
		c0.9,1,1.9,1.9,2.8,2.9c1.2,1.2,2.3,2.4,3.5,3.5c0.1,0.1,0.2,0.3,0.4,0.6c0.1,0.2,0.2,0.4,0.4,0.6l-11.4,9.8l-0.4-0.8l-0.5,0.7
		c-0.5,0.7-0.9,1.3-1.4,2c-1.2,1.7-2.4,3.4-3.5,5.2c-0.4,0.7-0.5,1.6-0.5,2.5c0,0.4,0,0.7-0.1,1.1l-0.1,0.7l0.7-0.1
		c0.3-0.1,0.6-0.1,1-0.1c0.8-0.1,1.7-0.2,2.3-0.6c1.1-0.8,2.1-1.8,3.3-3c0.4-0.4,0.8-0.8,1.3-1.3c1,1.1,2.1,2.1,3.1,3.2
		c2,2,3.9,3.9,5.8,5.9l-0.9,0.4c-0.5,0.2-1,0.4-1.6,0.5c-1.2,0.4-2.5,0.8-3.4,1.6c-2.5,2.4-4.8,5-7.1,7.6c-0.7,0.8-1.5,1.6-2.2,2.4
		l-0.4-0.9l-6.8-1.7l2.1,7.4c-0.7,0.7-1.5,1.3-2.3,2.1c-2.6,2.3-5.5,5-8.2,7.8c-0.7,0.8-1,1.9-1.3,3c-0.1,0.5-0.2,0.9-0.4,1.3
		l-0.3,0.9l1-0.3c0.4-0.1,0.9-0.2,1.3-0.3c1.1-0.2,2.2-0.4,2.9-1.2c2.8-2.6,5.4-5.4,8.4-8.6c1-1.1,2.1-2.3,3.3-3.5
		c1.1,1.2,2.2,2.3,3.2,3.5c3.4,3.6,6.5,7,9.6,10.5c0.6,0.7,0.9,2.2,0.6,3c-2,6-4.1,11.9-6.4,18.1c-0.6,1.7-1.2,3.4-1.9,5.2l-3.4-3.2
		c0.3-0.4,0.7-0.7,1-1c1-1.1,2-2.1,2.9-3.2c0.4-0.6,0.4-1.3,0.5-2c0-0.3,0-0.6,0.1-0.8l0.1-0.6l-0.6,0c-0.3,0-0.6,0-1-0.1
		c-0.4,0-0.7-0.1-1-0.1c-0.6,0-1,0.1-1.3,0.3c-1.1,0.7-2,1.7-3,2.7c-0.3,0.3-0.7,0.7-1,1l-3.3-3c0.7-0.6,1.4-1.1,2-1.7
		c2.1-1.7,4-3.3,5.8-5.1c0.6-0.6,0.7-1.6,0.8-2.5c0-0.4,0.1-0.8,0.1-1.1l0.2-0.8l-0.8,0.2c-0.3,0.1-0.7,0.1-1.1,0.2
		c-0.9,0.1-1.9,0.2-2.5,0.8c-1.7,1.8-3.3,3.6-5.3,6c-0.7,0.9-1.5,1.8-2.3,2.8c-0.6-0.8-1.1-1.5-1.6-2.2c-1.3-1.8-2.3-3.2-3.5-4.4
		c-0.7-0.7-1.8-0.8-2.8-0.9c-0.4,0-0.9-0.1-1.2-0.2l-0.8-0.2l0.2,0.8c0.1,0.3,0.2,0.7,0.2,1.1c0.2,0.9,0.3,1.9,1,2.5
		c1.3,1.3,2.7,2.4,4,3.5c0.4,0.3,0.8,0.6,1.1,0.9l-17.5,17.3c-0.3-0.3-0.5-0.7-0.8-1.1c-1.1-1.5-2.4-3.2-3.8-4.7
		c-0.4-0.5-1.1-0.5-1.8-0.5c-0.2,0-0.8,0-1,0c-0.2,0-0.3,0-0.5,0l-0.6-0.1l0.1,0.6c0,0.3,0,0.6,0,1c0,0.8,0,1.7,0.6,2.3
		c1.4,1.4,2.9,2.7,4.2,3.9c0.3,0.3,0.6,0.5,0.9,0.8L427.7,389c0-0.1-0.1-0.2-0.1-0.3c-0.6-1-1.4-2.5-2.6-3.7c-0.6-0.7-1.6-0.8-2.5-1
		c-0.4-0.1-0.8-0.2-1.1-0.3l-0.8-0.2l0.2,0.8c0.1,0.4,0.1,0.8,0.1,1.2c0.1,1,0.2,2.1,0.8,2.8c3.1,3.3,6.3,6.5,9.5,9.6
		c1.3,1.3,2.5,2.5,3.8,3.8c0.4,0.5,0.9,0.9,1.4,1.5c0.1,0.2,0.3,0.3,0.4,0.5l-10.8,10.3l-5-5.8l-1.4-0.7c0.4-0.2,0.8-0.5,1.1-0.7
		c1.6-1,3.3-2.1,4.7-3.4c0.6-0.5,0.6-1.6,0.6-2.6c0-0.4,0-0.8,0-1.1l0.1-0.7l-0.7,0.2c-0.3,0.1-0.6,0.1-1,0.1
		c-0.9,0.1-1.8,0.2-2.3,0.8c-1.3,1.4-2.4,2.9-3.7,4.7c-0.4,0.6-0.9,1.2-1.4,1.9c-0.9-1-1.8-2-2.5-2.9c-2-2.3-3.6-4.1-5.3-5.7
		c-0.9-0.8-2.2-1.2-3.4-1.6c-0.5-0.2-1-0.3-1.5-0.5l-1.2-0.5l0.5,1.1c0.2,0.5,0.4,1,0.6,1.6c0.5,1.2,0.9,2.5,1.8,3.4
		c1.6,1.7,3.4,3.3,5.2,4.9c0.7,0.6,1.3,1.1,2,1.7l-13.7,12.1c-0.4-0.5-0.9-1-1.3-1.6c-1.8-2.1-3.9-4.5-6.1-6.9
		c-0.6-0.6-1.6-0.8-2.5-1c-0.4-0.1-0.8-0.1-1.1-0.2l-0.8-0.2l0.2,0.8c0.1,0.4,0.1,0.8,0.1,1.2c0.1,1,0.2,2.1,0.8,2.8
		c2.1,2.2,4.3,4.3,6.5,6.3c0.6,0.6,1.2,1.1,1.8,1.7l-17.3,17.2l-5-5.7l-1.2-0.8c0.4-0.3,0.8-0.5,1.1-0.8c1.5-1,3-1.9,4.3-3.2
		c0.7-0.6,0.8-1.7,0.9-2.8c0-0.4,0.1-0.9,0.2-1.2l0.2-0.8l-0.8,0.2c-0.4,0.1-0.7,0.2-1.1,0.3c-0.9,0.2-1.8,0.4-2.5,0.9
		c-1.9,1.3-3.7,2.7-5.8,4.3c-0.9,0.7-1.8,1.4-2.8,2.1l-0.1,0.1l0,0.2c-0.8,3.8-3.9,6.4-7,9.1c-2.1,1.8-4.3,3.6-5.7,5.8l-7.2-1.7
		l1.9,5.7l-11.6,11.8l-4.1-3.9c1.1-1,2.1-2,3.2-2.9c3.2-2.9,6.1-5.6,9-8.4c0.7-0.7,0.8-1.7,1-2.7c0.1-0.4,0.1-0.8,0.2-1.2l0.2-0.8
		l-0.8,0.2c-0.4,0.1-0.8,0.1-1.2,0.2c-1,0.1-2,0.3-2.7,0.9c-1.5,1.3-2.9,2.8-4.3,4.2c-1.4,1.4-2.8,2.9-4.3,4.2
		c-1.1,1-2.4,1.7-3.8,2.5c-0.7,0.4-1.3,0.8-2,1.2l-0.1,0.1l-0.1,0.1c-0.5,0.7-0.9,1.4-1.4,2.2c-1.1,1.7-2.2,3.5-3.7,5
		c-3.6,3.9-7.3,7.6-11.2,11.5c-1.5,1.5-2.9,3-4.4,4.5l-11.1-12.9c0.1,0,0.1-0.1,0.2-0.1c1-0.5,2.7-1.4,4-2.7c0.8-0.8,1.1-2,1.3-3.2
		c0.1-0.5,0.2-1,0.4-1.4l0.3-1l-1,0.4c-0.4,0.2-0.9,0.3-1.3,0.4c-1.1,0.3-2.2,0.6-2.9,1.3c-4.9,4.7-9.8,9.6-14.5,14.3
		c-1.7,1.7-3.4,3.3-5,5c-0.5,0.4-0.9,0.9-1.5,1.5l-0.9,0.8c-0.7-0.8-1.3-1.6-2-2.3c-2-2.3-4-4.7-6.2-6.8c-0.7-0.6-2-0.8-3-0.8
		c-0.5,0-1.9,0.1-2.5,0.7c-3.2,3.2-6.2,6.7-9.2,10.1c-0.9,1.1-1.8,2.1-2.8,3.2l-5.3-5.9c0.1-0.1,0.2-0.2,0.3-0.3
		c0.7-0.7,1.7-1.6,2.4-2.7c0.5-0.7,0.7-1.6,0.8-2.5c0.1-0.4,0.1-0.7,0.2-1.1l0.2-0.8l-0.8,0.2c-0.4,0.1-0.8,0.1-1.2,0.1
		c-1,0.1-2,0.2-2.7,0.8c-4.3,4.1-8.5,8.3-12.6,12.4c-1.6,1.6-3.2,3.2-4.8,4.8c-0.5,0.5-1.1,1-1.8,1.6c-0.2,0.2-0.4,0.4-0.7,0.6
		L213,483.7c0.8-0.6,1.5-1.3,2.4-2c2.5-2.1,5.1-4.3,7.6-6.7c1-1,1.6-2.4,2.1-3.8c0.2-0.6,0.5-1.2,0.7-1.8l0.6-1.4l-1.3,0.7
		c-0.6,0.3-1.2,0.6-1.8,0.8c-1.4,0.6-2.8,1.2-3.9,2.3c-5.2,5-10.2,10.1-15.6,15.5c-1.8,1.8-3.5,3.6-5.4,5.4
		c-0.4-0.4-0.7-0.7-1.1-1.1c-1.1-1.1-2.2-2.2-3.4-3c-0.6-0.5-1.5-0.6-2.3-0.6c-0.3,0-0.7-0.1-1-0.1l-0.7-0.1l0.1,0.7
		c0,0.3,0.1,0.7,0.1,1.1c0,0.9,0.1,1.9,0.6,2.5c0.9,1,2,1.9,3,2.6c0.3,0.2,0.6,0.4,0.8,0.6C193.9,497.8,192.8,498.1,191.7,498.1z
		 M480.5,318.3c0.6-0.5,1.2-1.1,1.9-1.7c2.3-2.1,4.8-4.5,7.3-7c0.9-0.9,1.3-2.2,1.8-3.4c0.2-0.5,0.4-1.1,0.6-1.6l0.4-0.9
		c1.2,1.2,2.3,2.5,3.5,3.7c0.8,0.8,1,2.7,0.7,4c-0.9,5.1-2,10.1-3,14.9c-0.3,1.3-0.6,2.6-0.8,3.9L480.5,318.3z"/>
	<path d="M259.8,26.1c40.3,0,80.4,11.1,119.3,33.1c55.6,31.4,93.2,79.4,111.8,142.7c1.9,6.6,1.9,7.3-6.1,9.9l-1.5,0.5l1,1.1l5.9,6.6
		l2.5,2.7c-0.7,0.7-1.5,1.4-2.2,2.1c-2.6,2.4-5,4.6-7.3,7c-0.9,0.9-1.3,2.1-1.7,3.3c-0.2,0.5-0.3,1-0.5,1.4l-1,2.2l2.2-0.9
		c0.5-0.2,1-0.3,1.5-0.5c1.3-0.4,2.6-0.8,3.6-1.7c2.3-2.1,4.5-4.4,7.1-7.1c0.7-0.7,1.4-1.5,2.1-2.2l1,7.5l1.5,11.7l-0.2,0.1
		l-0.3,0.1c-0.5-0.5-1-0.9-1.4-1.4c-1.5-1.5-3.1-3.1-4.9-4.5c-0.9-0.7-2.1-0.9-3.2-1.1c-0.5-0.1-0.9-0.2-1.3-0.3l-1.8-0.5l0.6,1.8
		c0.1,0.3,0.2,0.7,0.3,1.2c0.3,1.1,0.5,2.1,1.3,2.9c1.5,1.5,3.1,2.9,5,4.4c0.5,0.4,1.1,0.9,1.6,1.3c-1,0.9-1.9,1.8-2.8,2.6
		c-2.4,2.3-4.5,4.2-6.5,6.3c-4.5,4.5-4.5,8.1-0.1,12.6c1,1,1.9,1.9,2.9,2.9c1.2,1.2,2.3,2.3,3.5,3.5c0.1,0.1,0.2,0.2,0.4,0.5
		c0,0.1,0.1,0.1,0.2,0.2l-10.5,9.1l-0.5-1l-1,1.4c-0.5,0.7-0.9,1.3-1.4,2c-1.2,1.7-2.4,3.4-3.5,5.3c-0.5,0.8-0.5,1.8-0.6,2.7
		c0,0.4,0,0.7-0.1,1l-0.2,1.4l1.4-0.3c0.3-0.1,0.6-0.1,0.9-0.1c0.8-0.1,1.8-0.2,2.6-0.7c1.2-0.8,2.2-1.8,3.3-3
		c0.3-0.3,0.6-0.6,0.9-0.9c0.9,1,1.9,1.9,2.8,2.8c1.8,1.8,3.5,3.6,5.2,5.3l-0.2,0.1c-0.5,0.2-1,0.3-1.5,0.5
		c-1.3,0.4-2.7,0.8-3.6,1.7c-2.5,2.4-4.9,5.1-7.1,7.6c-0.6,0.6-1.1,1.3-1.7,1.9l-0.2-0.4l-0.5-0.1l-5.7-1.4l-1.7-0.4l0.5,1.6
		l0.2,0.6l1.6,5.8c-0.6,0.6-1.3,1.2-2,1.9c-2.6,2.3-5.5,5-8.3,7.8c-0.8,0.8-1.1,2-1.4,3.2c-0.1,0.5-0.2,0.9-0.4,1.3l-0.7,1.9
		l1.9-0.6c0.4-0.1,0.8-0.2,1.3-0.3c1.1-0.2,2.3-0.5,3.2-1.3c2.8-2.6,5.4-5.4,8.4-8.6c0.9-1,1.9-2,2.9-3.1c1,1,1.9,2.1,2.9,3.1
		c3.4,3.6,6.6,7,9.6,10.5c0.5,0.5,0.8,1.9,0.5,2.5c-2,6-4.1,11.9-6.4,18.2c-0.5,1.5-1.1,3-1.6,4.5l-2.4-2.3c0.2-0.2,0.4-0.4,0.6-0.7
		c1.1-1.1,2.1-2.1,2.9-3.3c0.5-0.7,0.5-1.5,0.6-2.3c0-0.3,0-0.5,0.1-0.8l0.1-1.1h-1.2c-0.3,0-0.6,0-0.9-0.1c-0.4,0-0.7-0.1-1.1-0.1
		c-0.4,0-1,0-1.6,0.4c-1.1,0.7-2.1,1.7-3.1,2.7c-0.2,0.2-0.5,0.5-0.7,0.7l-0.7-0.6l-1.9-1.7c0.5-0.5,1.1-0.9,1.6-1.3
		c2.1-1.7,4-3.3,5.8-5.1c0.7-0.7,0.8-1.9,0.9-2.8c0-0.4,0.1-0.7,0.1-1.1l0.3-1.5l-1.5,0.3c-0.3,0.1-0.7,0.1-1.1,0.1
		c-1,0.1-2.1,0.2-2.8,1c-1.7,1.8-3.3,3.7-5.3,6.1c-0.6,0.7-1.2,1.5-1.9,2.3c-0.4-0.6-0.8-1.2-1.2-1.7c-1.3-1.8-2.3-3.3-3.5-4.5
		c-0.8-0.8-2-0.9-3.1-1c-0.4,0-0.8-0.1-1.2-0.2l-1.6-0.4l0.5,1.6c0.1,0.3,0.2,0.7,0.2,1.1c0.2,0.9,0.4,2,1.1,2.8
		c1.3,1.3,2.7,2.5,4.1,3.6c0.2,0.2,0.5,0.4,0.7,0.5l-9.8,9.6l-6.9,6.9c-0.2-0.2-0.3-0.4-0.5-0.6c-1.1-1.5-2.4-3.2-3.8-4.8
		c-0.5-0.6-1.4-0.7-2.2-0.7c-0.2,0-0.3,0-0.5,0c-0.2,0-0.3,0-0.5,0c-0.2,0-0.3,0-0.4,0l-1.3-0.1l0.2,1.2c0,0.3,0,0.6,0,0.9
		c0,0.9,0,1.9,0.7,2.6c1.4,1.5,2.9,2.7,4.3,3.9c0.2,0.2,0.4,0.3,0.5,0.5l-8.1,8l-8.4,8.3c-0.6-1-1.4-2.3-2.4-3.5
		c-0.7-0.8-1.8-1-2.8-1.2c-0.4-0.1-0.7-0.1-1.1-0.2l-1.6-0.5l0.3,1.6c0.1,0.4,0.1,0.8,0.1,1.2c0.1,1.1,0.2,2.3,0.9,3.1
		c3.1,3.3,6.3,6.5,9.5,9.6c1.3,1.3,2.6,2.5,3.8,3.8c0.4,0.4,0.8,0.9,1.3,1.5c0,0.1,0.1,0.1,0.1,0.2l-10.1,9.6l-0.7-0.8l-3.9-4.5
		l-0.1-0.2l-0.2-0.1l-0.5-0.2c0.1-0.1,0.3-0.2,0.4-0.2c1.6-1,3.3-2.1,4.8-3.4c0.8-0.7,0.8-1.8,0.8-2.9c0-0.4,0-0.8,0-1.1l0.2-1.4
		l-1.4,0.3c-0.3,0.1-0.6,0.1-0.9,0.1c-0.9,0.1-1.9,0.2-2.6,0.9c-1.3,1.4-2.4,3-3.7,4.8c-0.3,0.4-0.7,0.9-1,1.4
		c-0.8-0.9-1.5-1.7-2.1-2.4c-2-2.3-3.6-4.1-5.4-5.7c-1-0.9-2.3-1.3-3.6-1.7c-0.5-0.2-1-0.3-1.5-0.5l-2.3-0.9l1,2.3
		c0.2,0.5,0.4,1,0.6,1.5c0.5,1.3,1,2.6,1.9,3.6c1.6,1.8,3.4,3.3,5.3,4.9c0.5,0.4,1,0.9,1.6,1.4l-7.3,6.4l-5.6,4.9
		c-0.3-0.4-0.7-0.8-1-1.2c-1.7-2-3.9-4.5-6.2-6.9c-0.7-0.7-1.8-0.9-2.8-1.1c-0.4-0.1-0.7-0.1-1-0.2l-1.6-0.5l0.3,1.6
		c0.1,0.4,0.1,0.8,0.1,1.2c0.1,1.1,0.2,2.3,0.9,3.1c2.1,2.3,4.3,4.3,6.5,6.3c0.5,0.5,1,0.9,1.4,1.3L383,436.8l-3.2,3.1l-3.7-4.1
		l-1-1.1l-0.1-0.1l-0.1-0.1l-0.5-0.3c0.2-0.1,0.3-0.2,0.5-0.3c1.5-1,3-2,4.3-3.2c0.8-0.8,0.9-2,1-3.1c0-0.4,0.1-0.8,0.1-1.2l0.3-1.6
		l-1.6,0.5c-0.3,0.1-0.7,0.2-1,0.3c-0.9,0.2-1.9,0.4-2.7,1c-1.9,1.3-3.7,2.7-5.8,4.3c-0.9,0.7-1.8,1.4-2.7,2.1l-0.3,0.2l-0.1,0.4
		c-0.8,3.7-3.8,6.2-6.9,8.8c-2,1.7-4.1,3.5-5.6,5.6l-6-1.4l-1.1-0.3c0.1-0.3,0.1-0.7,0.2-1l0.5-1.7L346,444
		c-0.3,0.1-0.7,0.1-1.2,0.2c-1,0.1-2.2,0.3-3,1c-1.5,1.3-2.9,2.8-4.3,4.2c-1.4,1.4-2.8,2.8-4.3,4.1c-1.1,0.9-2.4,1.7-3.8,2.5
		c-0.7,0.4-1.3,0.8-2,1.2l-0.2,0.1l-0.1,0.2c-0.5,0.7-0.9,1.4-1.4,2.2c-1.1,1.7-2.2,3.5-3.6,5c-3.6,3.9-7.3,7.6-11.2,11.5
		c-1.3,1.3-2.7,2.7-4,4.1l-3.5-4.1l-6.8-7.9c1-0.6,2.5-1.4,3.7-2.6c0.9-0.9,1.2-2.2,1.5-3.4c0.1-0.5,0.2-1,0.3-1.4l0.6-2l-1.9,0.7
		c-0.4,0.1-0.8,0.3-1.3,0.4c-1.1,0.3-2.3,0.6-3.1,1.4c-4.9,4.7-9.8,9.6-14.5,14.3c-1.7,1.7-3.4,3.4-5.1,5c-0.4,0.4-0.9,0.9-1.5,1.5
		c-0.1,0.1-0.3,0.3-0.5,0.4c-0.6-0.7-1.1-1.3-1.6-1.9c-2-2.3-4-4.7-6.3-6.8c-1-0.9-2.8-1-3.4-1c-0.7,0-2.1,0.1-2.8,0.9
		c-3.2,3.2-6.2,6.7-9.2,10.1c-0.8,0.9-1.6,1.9-2.4,2.8l-3.3-3.6l-1.3-1.5c0.7-0.7,1.7-1.7,2.4-2.8c0.5-0.8,0.7-1.7,0.9-2.7
		c0.1-0.4,0.1-0.7,0.2-1l0.4-1.6l-1.6,0.3c-0.3,0.1-0.7,0.1-1.1,0.1c-1,0.1-2.2,0.2-3,0.9c-4.3,4.1-8.5,8.3-12.6,12.4
		c-1.6,1.6-3.2,3.2-4.8,4.8c-0.5,0.5-1.1,1-1.7,1.6c-0.1,0.1-0.2,0.2-0.3,0.3l-8.3-9l-1.3-1.4c0.6-0.5,1.3-1.1,2-1.6
		c2.5-2.1,5.2-4.3,7.6-6.8c1.1-1.1,1.7-2.6,2.2-4c0.2-0.6,0.5-1.2,0.7-1.7l1.3-2.7l-2.7,1.4c-0.6,0.3-1.2,0.6-1.8,0.8
		c-1.4,0.6-2.9,1.3-4,2.4c-5.2,5-10.2,10.1-15.5,15.5c-1.7,1.7-3.3,3.4-5,5.1c-0.2-0.2-0.5-0.5-0.7-0.7c-1.1-1.1-2.2-2.2-3.4-3.1
		c-0.8-0.6-1.7-0.6-2.5-0.7c-0.3,0-0.6-0.1-0.9-0.1l-1.4-0.3l0.2,1.4c0,0.3,0.1,0.6,0.1,1c0,1,0.1,2,0.7,2.8
		c0.9,1.1,2.1,1.9,3.1,2.7c0.2,0.1,0.4,0.3,0.5,0.4c-0.8,2.2-1.8,2.2-2.4,2.2c-0.7,0-1.6-0.2-2.5-0.5l-0.1,0
		c-41.8-11.1-78.4-33.4-108.8-66.5c-35.1-38.1-56.1-81.9-62.7-130.1c-5.3-38.8-0.4-77.5,14.5-115.2C59.5,116,107.1,68,173.5,42.7
		C202.3,31.7,231.3,26.1,259.8,26.1L259.8,26.1 M492.6,304.6c1,1.1,2,2.1,2.9,3.2c0.6,0.6,0.9,2.3,0.6,3.6c-0.9,5.1-2,10.1-3,14.9
		c-0.2,1-0.4,2-0.6,3l-0.9-0.8l-10.4-10.1c0.5-0.4,1-0.9,1.5-1.4c2.3-2.1,4.9-4.5,7.3-7c0.9-1,1.4-2.3,1.9-3.6
		c0.2-0.5,0.4-1,0.6-1.5L492.6,304.6 M346.8,447.4l0.1,0.4l0.6,1.7l1,2.9l-6.1,6.2l-4.9,5l-3.4-3.2c0.9-0.9,1.9-1.7,2.8-2.5
		c3.2-2.9,6.1-5.6,9-8.4C346.3,448.8,346.6,448.1,346.8,447.4 M259.8,25.1c-28.5,0-57.5,5.5-86.6,16.6C104.7,67.9,58,117,31.2,184.9
		c-14.7,37.2-20,76-14.6,115.7c6.8,50.2,28.8,93.5,62.9,130.7c30,32.6,66.2,55.4,109.3,66.8c1,0.3,2,0.5,2.9,0.5
		c1.5,0,2.8-0.8,3.6-3.6c-1.2-1-2.9-1.9-4-3.3c-0.6-0.8-0.4-2.2-0.6-3.3c1,0.2,2.3,0.1,3.1,0.7c1.7,1.2,3.1,2.8,4.8,4.4
		c7.3-7.4,14.2-14.4,21.3-21.2c1.5-1.4,3.7-2,5.6-3c-0.9,1.9-1.4,4.1-2.7,5.5c-3.4,3.4-7.2,6.3-10.3,9c4.4,4.8,7.6,8.3,11,11.9
		c1.1-1,2-1.7,2.8-2.6c5.8-5.8,11.5-11.6,17.4-17.2c0.8-0.7,2.4-0.6,3.7-0.8c-0.3,1.1-0.4,2.5-1,3.4c-1,1.4-2.3,2.6-3,3.3
		c2.1,2.4,3.9,4.3,5.9,6.7c4.1-4.7,8-9.4,12.3-13.7c0.4-0.4,1.2-0.6,2.1-0.6c1.1,0,2.2,0.2,2.7,0.7c3.1,2.8,5.7,6.2,8.5,9.5
		c1.3-1.3,2.1-1.9,2.8-2.6c6.5-6.5,13-13,19.6-19.3c1-0.9,2.7-1.1,4.1-1.6c-0.5,1.5-0.6,3.4-1.5,4.4c-1.6,1.6-3.9,2.6-4.6,3
		c4.7,5.4,8.1,9.4,11.8,13.8c5.6-5.7,10.9-10.9,16-16.4c2.1-2.2,3.6-5,5.1-7.3c2.1-1.3,4.2-2.3,5.9-3.8c3-2.6,5.6-5.7,8.6-8.4
		c0.9-0.8,2.5-0.7,3.7-1c-0.4,1.3-0.3,2.9-1.1,3.7c-3.9,3.8-8,7.5-12.5,11.6c2.2,2.1,3.6,3.5,4.9,4.6c4.4-4.5,8.4-8.6,12.1-12.3
		c-0.6-1.7-1.1-3.4-1.7-5.2c2,0.5,4,0.9,6.7,1.6c3.5-5.6,11.6-8.5,13-15.3c3.3-2.5,5.8-4.6,8.5-6.4c0.9-0.6,2.3-0.7,3.4-1.1
		c-0.3,1.3-0.1,3-0.9,3.8c-1.7,1.7-3.9,2.9-6,4.3c0.6,0.4,1.2,0.7,1.8,1.1c2,2.2,4,4.4,5.4,6c6-5.9,11.8-11.7,18.1-17.9
		c-2.7-2.5-5.8-5.3-8.6-8.3c-0.8-0.8-0.6-2.5-0.8-3.8c1.1,0.3,2.7,0.3,3.4,1.1c3,3.1,5.7,6.4,7.8,8.8c5.3-4.6,9.6-8.4,14.5-12.8
		c-2.7-2.4-5.4-4.5-7.6-6.9c-1.2-1.3-1.6-3.2-2.3-4.9c1.6,0.6,3.6,0.9,4.8,2c2.6,2.3,4.8,5.1,8.3,9c2.1-2.8,3.6-5.1,5.4-7.1
		c0.6-0.6,2-0.5,3-0.7c-0.1,1.2,0.1,2.8-0.5,3.4c-2,1.7-4.4,3-6.6,4.5c0.7,0.3,1.4,0.7,2.1,1c1.8,2.1,3.7,4.2,5.3,6.1
		c3.8-3.7,7.6-7.3,11.5-11c-0.8-0.9-1.5-1.7-2.1-2.4c-4.4-4.5-9-8.8-13.3-13.4c-0.8-0.8-0.6-2.5-0.8-3.8c1.2,0.4,2.7,0.4,3.4,1.2
		c1.4,1.6,2.4,3.6,3,4.4c6.7-6.6,12.2-12.1,18.2-18c-1.6-1.4-3.7-3-5.5-5c-0.6-0.6-0.3-2-0.5-3c0.2,0,0.4,0,0.5,0c0.3,0,0.7,0,1,0
		c0.6,0,1.1,0.1,1.4,0.4c1.9,2.1,3.5,4.4,4.9,6.2c6.6-6.5,12.1-11.9,18.3-18.1c-1.8-1.5-3.9-2.9-5.6-4.7c-0.7-0.8-0.7-2.3-1.1-3.4
		c1.3,0.3,3,0.1,3.8,0.9c1.7,1.7,3,3.9,5.4,7.1c3.4-4,5.5-6.8,8-9.3c0.7-0.7,2.2-0.6,3.4-0.8c-0.2,1.2-0.1,2.7-0.8,3.4
		c-2.5,2.4-5.2,4.6-8.2,7.1c2,1.8,3,2.7,4.1,3.7c1.6-1.5,2.8-3,4.3-4c0.3-0.2,0.6-0.2,1-0.2c0.6,0,1.4,0.1,2,0.1c0,0,0,0,0,0
		c-0.1,0.9,0,2-0.4,2.6c-1.2,1.6-2.6,2.9-4.2,4.6c1.4,1.3,2.5,2.4,4.3,4c3-8.4,5.9-16.2,8.5-24.1c0.3-1,0-2.7-0.7-3.5
		c-4.1-4.7-8.5-9.3-13.2-14.4c-4.6,4.8-8.2,8.7-12,12.4c-0.9,0.9-2.7,0.9-4.1,1.4c0.5-1.4,0.6-3.2,1.6-4.1
		c3.7-3.8,7.7-7.3,10.7-10.1c-0.9-3.2-1.4-5.1-1.9-6.9c1.9,0.5,3.8,0.9,5.7,1.4c0.2,0.4,0.4,0.9,0.6,1.3c3.2-3.5,6.4-7.2,9.8-10.6
		c1.2-1.1,3.2-1.4,4.8-2c-0.8,1.6-1.2,3.6-2.3,4.8c-3.3,3.5-6.9,6.6-9.5,9.1c4.9,4.7,9.2,8.9,13.3,12.9c1.3-6,2.8-12.8,4.1-19.7
		c0.3-1.4,0-3.4-0.9-4.4c-4.1-4.5-8.4-8.8-12.9-13.4c-1.9,1.8-3.2,3.3-4.8,4.5c-0.8,0.6-2,0.5-3.1,0.7c0.2-1.1,0-2.5,0.5-3.4
		c1.5-2.5,3.2-4.8,4.9-7.2c0.1,0.2,0.2,0.4,0.3,0.6c4.1-3.5,8.2-7,12.2-10.5c-0.8-1.1-0.9-1.4-1.2-1.6c-2.1-2.1-4.2-4.3-6.3-6.4
		c-4-4.1-4-7.1,0.1-11.2c3-3,6.2-6,10.1-9.7c-2.9-2.5-5.3-4.3-7.4-6.4c-0.8-0.9-1-2.5-1.4-3.7c1.4,0.4,3.1,0.4,4.2,1.2
		c2.4,1.9,4.5,4.1,6.7,6.3c0.6-0.2,1.2-0.4,1.8-0.7c-0.9-6.9-1.8-13.8-2.9-22.1c-4.3,4.4-7.3,7.8-10.6,10.8c-1.2,1.1-3.1,1.3-4.8,2
		c0.6-1.5,1-3.3,2-4.4c3.2-3.4,6.7-6.4,10.2-9.7c-3.1-3.5-5.9-6.5-9.1-10c8.2-2.7,8.9-3.8,6.7-11.1C473.4,139,436.5,90.5,379.6,58.3
		C340.7,36.4,300.7,25.1,259.8,25.1L259.8,25.1z"/>
</g>
<g id="qTziUK.tif">
	<g>
		<path d="M252.5,513.8C116.7,513.7,29.4,410.7,11,313c-10.6-56.2-1-109.6,25.6-159.6C72.4,86.1,127.4,42,201.8,23.6
			c100.1-24.8,211,19.9,266.6,106.6c12.9,20.2,22.9,41.7,29.9,64.6c0.7,2.2,2.7,4.1,3.3,6.3c0.6,2.4,0.2,5,0.5,7.5
			c2,13.3,5.1,26.5,6,39.9c5,76-18.6,141.5-74.2,194.2c-39.7,37.7-87.7,59.1-141.7,67.2C279,511.9,265.7,512.6,252.5,513.8z
			 M485.1,211.8c8.2-2.7,8.9-3.8,6.7-11.1C473.4,138,436.5,89.5,379.6,57.3c-66-37.3-135.4-43.7-206.4-16.6
			C104.7,66.9,58,116,31.2,183.9c-14.7,37.2-20,76-14.6,115.7c6.8,50.2,28.8,93.5,62.9,130.7c30,32.6,66.2,55.4,109.3,66.8
			c2.7,0.7,5.2,1.4,6.5-3.1c-1.2-1-2.9-1.9-4-3.3c-0.6-0.8-0.4-2.2-0.6-3.3c1,0.2,2.3,0.1,3.1,0.7c1.7,1.2,3.1,2.8,4.8,4.4
			c7.3-7.4,14.2-14.4,21.3-21.2c1.5-1.4,3.7-2,5.6-3c-0.9,1.9-1.4,4.1-2.7,5.5c-3.4,3.4-7.2,6.3-10.3,9c4.4,4.8,7.6,8.3,11,11.9
			c1.1-1,2-1.7,2.8-2.6c5.8-5.8,11.5-11.6,17.4-17.2c0.8-0.7,2.4-0.6,3.7-0.8c-0.3,1.1-0.4,2.5-1,3.4c-1,1.4-2.3,2.6-3,3.3
			c2.1,2.4,3.9,4.3,5.9,6.7c4.1-4.7,8-9.4,12.3-13.7c0.8-0.8,3.9-0.7,4.8,0.2c3.1,2.8,5.7,6.2,8.5,9.5c1.3-1.3,2.1-1.9,2.8-2.6
			c6.5-6.5,13-13,19.6-19.3c1-0.9,2.7-1.1,4.1-1.6c-0.5,1.5-0.6,3.4-1.5,4.4c-1.6,1.6-3.9,2.6-4.6,3c4.7,5.4,8.1,9.4,11.8,13.8
			c5.6-5.7,10.9-10.9,16-16.4c2.1-2.2,3.6-5,5.1-7.3c2.1-1.3,4.2-2.3,5.9-3.8c3-2.6,5.6-5.7,8.6-8.4c0.9-0.8,2.5-0.7,3.7-1
			c-0.4,1.3-0.3,2.9-1.1,3.7c-3.9,3.8-8,7.5-12.5,11.6c2.2,2.1,3.6,3.5,4.9,4.6c4.4-4.5,8.4-8.6,12.1-12.3c-0.6-1.7-1.1-3.4-1.7-5.2
			c2,0.5,4,0.9,6.7,1.6c3.5-5.6,11.6-8.5,13-15.3c3.3-2.5,5.8-4.6,8.5-6.4c0.9-0.6,2.3-0.7,3.4-1.1c-0.3,1.3-0.1,3-0.9,3.8
			c-1.7,1.7-3.9,2.9-6,4.3c0.6,0.4,1.2,0.7,1.8,1.1c2,2.2,4,4.4,5.4,6c6-5.9,11.8-11.7,18.1-17.9c-2.7-2.5-5.8-5.3-8.6-8.3
			c-0.8-0.8-0.6-2.5-0.8-3.8c1.1,0.3,2.7,0.3,3.4,1.1c3,3.1,5.7,6.4,7.8,8.8c5.3-4.6,9.6-8.4,14.5-12.8c-2.7-2.4-5.4-4.5-7.6-6.9
			c-1.2-1.3-1.6-3.2-2.3-4.9c1.6,0.6,3.6,0.9,4.8,2c2.6,2.3,4.8,5.1,8.3,9c2.1-2.8,3.6-5.1,5.4-7.1c0.6-0.6,2-0.5,3-0.7
			c-0.1,1.2,0.1,2.8-0.5,3.4c-2,1.7-4.4,3-6.6,4.5c0.7,0.3,1.4,0.7,2.1,1c1.8,2.1,3.7,4.2,5.3,6.1c3.8-3.7,7.6-7.3,11.5-11
			c-0.8-0.9-1.5-1.7-2.1-2.4c-4.4-4.5-9-8.8-13.3-13.4c-0.8-0.8-0.6-2.5-0.8-3.8c1.2,0.4,2.7,0.4,3.4,1.2c1.4,1.6,2.4,3.6,3,4.4
			c6.7-6.6,12.2-12.1,18.2-18c-1.6-1.4-3.7-3-5.5-5c-0.6-0.6-0.3-2-0.5-3c1,0.1,2.4-0.2,2.9,0.4c1.9,2.1,3.5,4.4,4.9,6.2
			c6.6-6.5,12.1-11.9,18.3-18.1c-1.8-1.5-3.9-2.9-5.6-4.7c-0.7-0.8-0.7-2.3-1.1-3.4c1.3,0.3,3,0.1,3.8,0.9c1.7,1.7,3,3.9,5.4,7.1
			c3.4-4,5.5-6.8,8-9.3c0.7-0.7,2.2-0.6,3.4-0.8c-0.2,1.2-0.1,2.7-0.8,3.4c-2.5,2.4-5.2,4.6-8.2,7.1c2,1.8,3,2.7,4.1,3.7
			c1.6-1.5,2.8-3,4.3-4c0.7-0.5,2-0.1,3.1-0.1c-0.1,0.9,0,2-0.4,2.6c-1.2,1.6-2.6,2.9-4.2,4.6c1.4,1.3,2.5,2.4,4.3,4
			c3-8.4,5.9-16.2,8.5-24.1c0.3-1,0-2.7-0.7-3.5c-4.1-4.7-8.5-9.3-13.2-14.4c-4.6,4.8-8.2,8.7-12,12.4c-0.9,0.9-2.7,0.9-4.1,1.4
			c0.5-1.4,0.6-3.2,1.6-4.1c3.7-3.8,7.7-7.3,10.7-10.1c-0.9-3.2-1.4-5.1-1.9-6.9c1.9,0.5,3.8,0.9,5.7,1.4c0.2,0.4,0.4,0.9,0.6,1.3
			c3.2-3.5,6.4-7.2,9.8-10.6c1.2-1.1,3.2-1.4,4.8-2c-0.8,1.6-1.2,3.6-2.3,4.8c-3.3,3.5-6.9,6.6-9.5,9.1c4.9,4.7,9.2,8.9,13.3,12.9
			c1.3-6,2.8-12.8,4.1-19.7c0.3-1.4,0-3.4-0.9-4.4c-4.1-4.5-8.4-8.8-12.9-13.4c-1.9,1.8-3.2,3.3-4.8,4.5c-0.8,0.6-2,0.5-3.1,0.7
			c0.2-1.1,0-2.5,0.5-3.4c1.5-2.5,3.2-4.8,4.9-7.2c0.1,0.2,0.2,0.4,0.3,0.6c4.1-3.5,8.2-7,12.2-10.5c-0.8-1.1-0.9-1.4-1.2-1.6
			c-2.1-2.1-4.2-4.3-6.3-6.4c-4-4.1-4-7.1,0.1-11.2c3-3,6.2-6,10.1-9.7c-2.9-2.5-5.3-4.3-7.4-6.4c-0.8-0.9-1-2.5-1.4-3.7
			c1.4,0.4,3.1,0.4,4.2,1.2c2.4,1.9,4.5,4.1,6.7,6.3c0.6-0.2,1.2-0.4,1.8-0.7c-0.9-6.9-1.8-13.8-2.9-22.1
			c-4.3,4.4-7.3,7.8-10.6,10.8c-1.2,1.1-3.1,1.3-4.8,2c0.6-1.5,1-3.3,2-4.4c3.2-3.4,6.7-6.4,10.2-9.7
			C491,218.3,488.3,215.3,485.1,211.8z M226.3,497.6c3.3,2.9,4.8,7.2,10.7,7.4c65.8,2.7,125-15.1,177.2-55.4
			c7.6-5.9,14.5-12.6,21.6-18.8c-3.7-3.6-6.9-6.7-9.3-9c-4,3.9-8.1,7.8-12.6,12.2c1.5,1.3,3.3,2.8,4.9,4.5c0.6,0.7,0.6,2,0.8,3
			c-1.2-0.2-2.6,0.1-3.4-0.5c-2-1.4-3.7-3.3-4.7-4.2c-6.1,5.9-12,11.7-17.9,17.5c0.8,0.8,2.1,1.8,2.7,3.1c0.3,0.7-0.6,1.9-1,2.9
			c-2.8-1.7-5.9-3.1-8.3-5.3c-2.4-2.2-3.9-5.3-5.6-7.8c-5.4,5.2-10.1,9.9-15.5,15.2c2.7,2.4,5.6,4.7,8.1,7.3
			c0.7,0.7,0.4,2.2,0.6,3.4c-1-0.2-2.3-0.2-3-0.8c-2.8-2.4-5.3-5-8-7.4c-4.2,4.2-8.3,8.3-12,12c0.5,1.8,0.9,3.6,1.4,5.3
			c-1.7-0.8-3.9-1.2-5.1-2.4c-3.2-3.3-6-7-9.2-10.8c-6.9,7-12.5,12.5-17.8,18.2c-1.8,1.9-3,4.5-5,7.4c-1.2,0.1-3.4,0.2-4.4,0.2
			c-1.6-3.3-2.8-5.8-4.7-9.8c-4.4,4.9-7.6,8.7-11.1,12.2c-0.9,0.9-2.7,0.8-4,1.1c0.4-1.3,0.5-2.8,1.3-3.7c3.6-3.6,7.4-7,10.5-9.9
			c-4.4-4.6-8.1-8.3-11.8-12.1c-4.2,4.3-8.7,8.7-14.1,14.2c2.9,2.4,5.9,4.8,8.6,7.4c0.7,0.7,0.7,2.2,1,3.3c-1.3-0.2-3-0.1-3.8-0.8
			c-2.8-2.5-5.2-5.4-7.2-7.5c-5.9,5.2-11,9.8-17.2,15.3c-3.2-4-6.5-8.1-10.1-12.7c-3.3,3.6-5.5,6.1-7.9,8.4
			c-0.8,0.7-2.2,0.7-3.3,1.1c0.2-1.3,0-2.9,0.7-3.7c2.2-2.6,4.7-5,6.4-6.7c-1.9-2.6-3.5-4.7-4.8-6.5
			C235.3,489,230.8,493.2,226.3,497.6z M468.8,387.9c3.7-7,7.5-14.1,11.1-21c-1.8-2.1-3.2-3.9-5-6.1c-4.4,4.5-8.1,8.5-12.1,12.2
			c-1,0.9-2.7,1.1-4.1,1.6c0.4-1.4,0.5-3.1,1.4-4.1c3.5-3.8,7.2-7.4,10.9-11c0.3-0.3,0.5-0.8,0.9-1.4c-1.1-0.9-2.2-1.8-2.5-2.1
			c-5.9,5.6-11.4,10.8-16.6,15.8C457.9,377,463.2,382.3,468.8,387.9z M449.8,375.5c-5.9,5.8-11.3,11.2-16.8,16.6
			c2.4,2.3,5.1,4.9,8.3,7.9c5.1-5.6,10.4-11.3,15.6-17C454.8,380.7,452.2,378,449.8,375.5z M453,410.8c4-5.7,8.6-12.2,12.7-18
			c-2.2-2.6-3.9-4.7-4.9-5.9c-5.9,5.4-11.5,10.5-17.6,15.9C446.6,405.6,449.6,408,453,410.8z M389.2,450
			c6.2-6.2,11.9-11.9,17.8-17.8c-1.6-1.6-3.5-3.6-4.7-4.9c-6.1,6.1-11.9,11.9-17.7,17.7C385.9,446.5,387.7,448.4,389.2,450z
			 M441.2,406.5c-4.2,3.9-8.1,7.4-11.4,10.3c3.2,3.3,6.2,6.5,9.4,9.9c3.4-3.9,7-8,10.6-12.1C446.7,411.6,443.8,408.9,441.2,406.5z
			 M376.8,444c-1.7-2-3.8-4.4-5.6-6.4c-5.1,5-9.7,9.5-14.7,14.4c2.2,2,4.5,4,6.5,5.9C367.7,453.2,372.3,448.6,376.8,444z M331.5,463
			c-7.4,7.4-14.2,14.2-21.1,21.2c0.9,1.1,2.2,2.5,2.9,3.4c7.3-7.3,14.2-14.2,21.2-21.1C333.5,465.4,332.2,463.9,331.5,463z
			 M259.5,498.1c4.5-4.3,8.5-8.2,12.5-12.1c-2.7-2.7-5.4-5.3-7.7-7.6c-4,4-8,8-12.2,12.2C254.4,493,256.9,495.5,259.5,498.1z
			 M496.6,274.6c1.8-2.6,4.1-4.4,4.3-6.5c0.6-4.2,0.2-8.6-0.1-12.9c-0.2-2.6-1.8-4.2-4.2-2c-3.7,3.5-6.9,7.3-9.6,10.2
			C490,266.9,493,270.4,496.6,274.6z M346.9,473.3c4.7-4.3,8.9-8.2,12.5-11.5c-2.1-2.3-4.1-4.6-5.5-6.1c-4.1,4-8.2,8-12.3,12
			C343.4,469.6,345.4,471.7,346.9,473.3z M497,280.3c-3.7,3.6-7.1,6.8-9.6,9.2c3.6,4.1,7.2,8.2,10.7,12.3
			C497.8,294.4,504.7,286.6,497,280.3z M201.8,495c3.3,6.2,8.7,7.3,14.7,7.4c1.2-1.6,2.4-3.3,3.4-4.6c-3.5-3.8-6.8-7.3-9.9-10.5
			C207.2,489.9,204.5,492.4,201.8,495z M410.1,429.4c4.5-4.1,8.7-8,12.7-11.7c-2-2.4-3.9-4.6-5.3-6.2c-4.6,4.3-8.9,8.1-13.3,12.2
			C406.3,425.8,408.3,427.7,410.1,429.4z"/>
		<g class="st0">
			<path class="st1" d="M261.7,440.3c-6.4,0-11.6-4.6-14.2-12.5c-4.2-12.7-7.6-26-10.9-38.7c-1.7-6.4-3.4-12.9-5.2-19.4
				c-0.5-1.8-1.3-3.4-2.1-5.2c-0.4-0.8-0.8-1.6-1.1-2.4c0-0.7-0.1-1.4-0.1-2.2c-0.1-1.8-0.1-3.8-0.5-5.8c-1.3-5.9-2.7-11.8-4.1-17.6
				c-2.6-10.8-5.2-21.9-7.2-33c-4.2-23.9-1.2-42.3,9.5-57.7c10.1-14.5,22.5-22.8,38-25.4c2.5-0.4,4.9-0.6,7.2-0.6
				c11.4,0,21.2,4.9,29.1,14.5c8.4,10.1,13,22.8,14.2,39c3.6,47.8-4.9,95-25.3,140.2c-3.1,6.8-7.8,13.7-13.6,20
				C271.2,437.8,266.3,440.3,261.7,440.3L261.7,440.3z M269.3,198.5c-14.2-0.1-27.7-5.7-37.9-15.9c-10.2-10.2-15.8-23.6-15.7-37.7
				c0.1-29.5,25.2-53.5,56-53.5c13.8,0,26.6,5.4,36,15.1c9.5,9.7,14.7,22.7,14.7,36.7c0,30.5-23.8,55.3-52.9,55.3
				C269.5,198.5,269.3,198.5,269.3,198.5z"/>
			<path d="M271.7,91.9L271.7,91.9c13.7,0,26.3,5.3,35.7,14.9c9.4,9.6,14.6,22.5,14.5,36.3c0,14.5-5.5,28.3-15.5,38.7
				c-9.9,10.4-23.1,16.1-36.9,16.1l-0.2,0c-14.1-0.1-27.4-5.7-37.5-15.8c-10.1-10.1-15.6-23.4-15.6-37.3c0-14.2,5.8-27.5,16.3-37.5
				C242.9,97.4,256.9,91.9,271.7,91.9 M270.9,220.2c11.2,0,20.9,4.8,28.8,14.3c8.3,10,12.9,22.6,14.1,38.7
				c3.6,47.8-4.9,94.8-25.3,139.9c-3.1,6.8-7.7,13.6-13.5,19.8c-4.1,4.4-8.8,6.9-13.3,6.9c-6.2,0-11.2-4.4-13.7-12.2
				c-4.2-12.7-7.6-25.9-10.9-38.7c-1.7-6.4-3.4-12.9-5.2-19.4c-0.5-1.8-1.3-3.5-2.2-5.3c-0.4-0.8-0.7-1.5-1.1-2.4
				c0-0.7-0.1-1.4-0.1-2.1c-0.1-1.8-0.1-3.9-0.6-5.9c-1.3-5.9-2.7-11.8-4.1-17.6c-2.6-10.8-5.2-21.9-7.2-33
				c-4.2-23.8-1.2-42,9.4-57.3c10-14.4,22.3-22.6,37.7-25.2C266.2,220.4,268.6,220.2,270.9,220.2 M271.7,90.9
				c-31.2,0-56.4,24.1-56.5,54c-0.1,29.5,24.4,54,54.1,54.1c0.1,0,0.1,0,0.2,0c29.2,0,53.3-25.2,53.4-55.8
				C323,114,300.4,90.9,271.7,90.9C271.7,90.9,271.7,90.9,271.7,90.9L271.7,90.9z M270.9,219.2c-2.4,0-4.8,0.2-7.3,0.6
				c-16.6,2.8-29,12.1-38.3,25.6c-12.3,17.8-13.1,37.8-9.6,58.1c3,17,7.6,33.7,11.3,50.6c0.6,2.7,0.5,5.6,0.6,8
				c1.2,2.7,2.6,5.1,3.3,7.7c5.4,19.4,9.9,39,16.1,58.1c2.8,8.5,8.4,12.9,14.7,12.9c4.6,0,9.6-2.4,14-7.2
				c5.5-5.9,10.3-12.8,13.6-20.1c20.2-44.6,29.1-91.5,25.4-140.4c-1.1-14.2-4.9-28-14.3-39.3C292.4,224.3,282.6,219.2,270.9,219.2
				L270.9,219.2z"/>
		</g>
		<g class="st0">
			<path class="st1" d="M250,504.8c-4.3,0-8.6-0.1-13-0.3c-4.1-0.2-6-2.4-8-4.7c-0.6-0.7-1.3-1.5-2-2.2l12.9-12.5l4.2,5.7
				c-0.4,0.4-0.8,0.8-1.2,1.2c-1.5,1.5-3.3,3.3-4.9,5.3c-0.6,0.7-0.7,1.8-0.7,2.8c0,0.4-0.1,0.8-0.1,1.2l-0.1,0.8l0.8-0.2
				c0.3-0.1,0.7-0.2,1.1-0.2c0.9-0.2,1.8-0.4,2.5-1c1.7-1.6,3.2-3.3,5.2-5.5c0.7-0.8,1.5-1.6,2.3-2.5l9.7,12.1
				C255.8,504.8,252.9,504.8,250,504.8z M276.3,489.9c0.4,0.4,0.8,0.9,1.3,1.4c1.6,1.8,3.5,3.9,5.6,5.8c0.7,0.6,1.8,0.7,2.8,0.8
				c0.4,0,0.9,0.1,1.2,0.1l0.8,0.2l-0.2-0.8c-0.1-0.3-0.2-0.7-0.2-1.1c-0.2-0.9-0.3-1.9-1-2.5c-2-1.9-4.2-3.7-6.3-5.5
				c-0.7-0.5-1.3-1.1-1.9-1.6l13.4-13.5l11.1,11.4c-0.7,0.6-1.4,1.3-2.1,2c-2.5,2.3-5.3,4.9-8,7.6c-0.7,0.7-0.9,1.7-1.1,2.7
				c-0.1,0.4-0.2,0.8-0.3,1.2l-0.3,0.9l0.9-0.2c0.4-0.1,0.9-0.2,1.3-0.2c1.1-0.2,2.2-0.3,2.9-1c2.5-2.5,4.9-5.2,7.7-8.3
				c0.9-1.1,1.9-2.2,3-3.3l4.6,9.4l5-0.3l0.1-0.2c0.7-1,1.2-1.9,1.8-2.8c1.1-1.8,2-3.3,3.2-4.5c3.8-4,7.6-7.9,12-12.4
				c1.7-1.7,3.5-3.5,5.4-5.4c0.8,1,1.6,1.9,2.3,2.9c2.2,2.7,4.2,5.2,6.5,7.6c0.9,1,2.3,1.4,3.6,1.9c0.6,0.2,1.1,0.4,1.7,0.6l1,0.4
				l-1.6-6l11.4-11.4c0.6,0.6,1.2,1.1,1.7,1.7c1.9,1.8,3.8,3.7,5.9,5.4c0.6,0.5,1.5,0.6,2.3,0.7c0.3,0,0.7,0.1,1,0.2l0.7,0.2
				l-0.1-0.7c-0.1-0.3-0.1-0.7-0.1-1.1c0-1-0.1-1.9-0.7-2.5c-1.9-1.9-3.9-3.7-5.9-5.4c-0.6-0.5-1.2-1.1-1.8-1.6l14.7-14.4
				c0.4,0.6,0.8,1.2,1.2,1.8c1.2,1.9,2.5,4,4.2,5.6c1.7,1.6,3.7,2.7,5.8,3.9c0.9,0.5,1.8,1,2.6,1.5l0.5,0.3l0.2-0.6
				c0.1-0.3,0.3-0.6,0.4-0.9c0.4-0.8,0.8-1.7,0.5-2.4c-0.5-1-1.3-1.8-2.1-2.5c-0.1-0.1-0.2-0.2-0.4-0.3l17.2-16.8
				c0.2,0.2,0.4,0.3,0.6,0.5c1,1,2.4,2.3,3.9,3.4c0.7,0.5,1.6,0.5,2.6,0.6c0.4,0,0.7,0,1.1,0.1l0.7,0.1l-0.2-0.7
				c-0.1-0.3-0.1-0.6-0.2-1c-0.1-0.8-0.2-1.7-0.8-2.3c-1.1-1.3-2.5-2.4-3.6-3.4c-0.3-0.3-0.6-0.5-0.9-0.8l11.8-11.4l8.5,8.3
				c-2.1,1.9-4.2,3.8-6.3,5.6c-4.8,4.3-9.7,8.8-14.9,12.8c-45.1,34.9-97,53.6-154.2,55.4L276.3,489.9z"/>
			<g>
				<path d="M426.5,423.2l7.8,7.6c-2,1.7-4,3.5-5.9,5.3c-4.8,4.3-9.7,8.8-14.9,12.7c-5.8,4.5-11.7,8.7-17.7,12.6l0.3-0.9
					c0.1-0.3,0.2-0.6,0.4-0.9c0.5-0.9,0.9-1.9,0.5-2.8c-0.5-1.1-1.4-2-2.2-2.7l16.5-16.1c0.1,0.1,0.1,0.1,0.2,0.2
					c1,1,2.4,2.3,3.9,3.5c0.8,0.6,1.9,0.6,2.8,0.7c0.4,0,0.7,0,1,0.1l1.5,0.2l-0.4-1.4c-0.1-0.3-0.1-0.6-0.2-0.9
					c-0.1-0.9-0.3-1.8-0.9-2.5c-1.2-1.3-2.5-2.4-3.7-3.5c-0.2-0.1-0.3-0.3-0.5-0.4l7.4-7.2L426.5,423.2 M381.2,448.6
					c0.3,0.4,0.6,0.9,0.8,1.3c1.2,2,2.5,4,4.3,5.7c1.7,1.6,3.8,2.8,5.9,3.9c0.9,0.5,1.7,1,2.6,1.5l0.9,0.5
					c-6.5,4.3-13.2,8.2-19.9,11.9l-0.1-0.7c0-0.3-0.1-0.7-0.1-1c0-1-0.1-2.1-0.8-2.9c-1.9-1.9-4-3.7-5.9-5.4
					c-0.5-0.4-0.9-0.8-1.4-1.2L381.2,448.6 M363.6,466.1c0.5,0.4,0.9,0.9,1.4,1.3c1.9,1.8,3.8,3.7,5.9,5.5c0.7,0.6,1.7,0.7,2.5,0.9
					c0.3,0,0.6,0.1,0.9,0.1l0.4,0.1c-6.6,3.5-13.4,6.8-20.2,9.7l-0.5-2l-0.6-2.4l-0.6-2.4l4.2-4.2L363.6,466.1 M338.7,470.3
					c0.7,0.8,1.3,1.6,2,2.4c2.2,2.7,4.2,5.2,6.5,7.6c1,1,2.4,1.5,3.8,2c0.6,0.2,1.1,0.4,1.6,0.6l1.8,0.8c-6,2.5-12,4.9-18.2,6.9
					c-23.7,8-48.9,12.5-75.2,13.5l6.4-5.7l8.8-7.8c0.3,0.3,0.6,0.7,1,1.1c1.7,1.8,3.5,3.9,5.6,5.8c0.8,0.7,2,0.8,3.1,0.9
					c0.4,0,0.8,0.1,1.2,0.1l1.6,0.3l-0.5-1.6c-0.1-0.3-0.2-0.7-0.2-1c-0.2-1-0.4-2-1.1-2.8c-2-1.9-4.2-3.8-6.3-5.5
					c-0.5-0.4-1-0.9-1.5-1.3l12.6-12.7l5.1,5.2l5.3,5.4c-0.6,0.5-1.2,1.1-1.8,1.6c-2.5,2.3-5.3,4.9-8,7.6c-0.8,0.8-1,1.9-1.3,2.9
					c-0.1,0.4-0.2,0.8-0.3,1.2l-0.6,1.7l1.8-0.5c0.4-0.1,0.8-0.2,1.3-0.2c1.2-0.2,2.4-0.3,3.2-1.2c2.5-2.5,4.9-5.2,7.7-8.3
					c0.8-0.9,1.6-1.8,2.5-2.8l1.9,3.9l2.2,4.6l0.3,0.6l0.7,0l1.8-0.1l2.6-0.1l0.5,0l0.3-0.4c0.7-1,1.2-1.9,1.8-2.8
					c1.1-1.7,2-3.2,3.1-4.5c3.8-4,7.6-7.9,12-12.4C335.3,473.7,337,472,338.7,470.3 M239.9,485.9l2.5,3.3l1.2,1.6
					c-0.3,0.3-0.6,0.6-0.9,0.9c-1.5,1.5-3.3,3.3-5,5.3c-0.7,0.8-0.8,2-0.8,3c0,0.4-0.1,0.8-0.1,1.1l-0.3,1.6l1.6-0.5
					c0.3-0.1,0.7-0.2,1-0.2c0.9-0.2,2-0.4,2.7-1.1c1.7-1.6,3.3-3.3,5.2-5.5c0.6-0.7,1.2-1.4,1.9-2.1l8.7,10.9
					c-2.5,0.1-5,0.1-7.6,0.1c-4.3,0-8.6-0.1-13-0.3c-3.9-0.2-5.6-2.2-7.6-4.5c-0.5-0.6-1.1-1.3-1.7-1.9l2-1.9L239.9,485.9
					 M426.5,421.8c-4,3.9-8.1,7.8-12.6,12.2c1.5,1.3,3.3,2.8,4.9,4.5c0.6,0.7,0.6,2,0.8,3c-1.2-0.2-2.6,0.1-3.4-0.5
					c-2-1.4-3.7-3.3-4.7-4.2c-6.1,5.9-12,11.7-17.9,17.5c0.8,0.8,2.1,1.8,2.7,3.1c0.3,0.7-0.6,1.9-1,2.9c-2.8-1.7-5.9-3.1-8.3-5.3
					c-2.4-2.2-3.9-5.3-5.6-7.8c-5.4,5.2-10.1,9.9-15.5,15.2c2.7,2.4,5.6,4.7,8.1,7.3c0.7,0.7,0.4,2.2,0.6,3.4c-1-0.2-2.3-0.2-3-0.8
					c-2.8-2.4-5.3-5-8-7.4c-4.2,4.2-8.3,8.3-12,12c0.5,1.8,0.9,3.6,1.4,5.3c-1.7-0.8-3.9-1.2-5.1-2.4c-3.2-3.3-6-7-9.2-10.8
					c-6.9,7-12.5,12.5-17.8,18.2c-1.8,1.9-3,4.5-5,7.4c-1.2,0.1-3.4,0.2-4.4,0.2c-1.6-3.3-2.8-5.8-4.7-9.8
					c-4.4,4.9-7.6,8.7-11.1,12.2c-0.9,0.9-2.7,0.8-4,1.1c0.4-1.3,0.5-2.8,1.3-3.7c3.6-3.6,7.4-7,10.5-9.9
					c-4.4-4.6-8.1-8.3-11.8-12.1c-4.2,4.3-8.7,8.7-14.1,14.2c2.9,2.4,5.9,4.8,8.6,7.4c0.7,0.7,0.7,2.2,1,3.3c-1.3-0.2-3-0.1-3.8-0.8
					c-2.8-2.5-5.2-5.4-7.2-7.5c-5.9,5.2-11,9.8-17.2,15.3c-3.2-4-6.5-8.1-10.1-12.7c-3.3,3.6-5.5,6.1-7.9,8.4
					c-0.8,0.7-2.2,0.7-3.3,1.1c0.2-1.3,0-2.9,0.7-3.7c2.2-2.6,4.7-5,6.4-6.7c-1.9-2.6-3.5-4.7-4.8-6.5c-4.8,4.6-9.2,8.9-13.7,13.3
					c3.3,2.9,4.8,7.2,10.7,7.4c4.4,0.2,8.7,0.3,13,0.3c60.6,0,115.5-18,164.2-55.7c7.6-5.9,14.5-12.6,21.6-18.8
					C432.1,427.2,428.9,424.1,426.5,421.8L426.5,421.8z"/>
			</g>
		</g>
		<g class="st0">
			<path class="st1" d="M453.3,371.8l15.9-15.1l1.9,1.6c-0.1,0.1-0.1,0.2-0.1,0.3c-0.2,0.3-0.3,0.5-0.4,0.7
				c-1.1,1.1-2.3,2.3-3.4,3.4c-2.5,2.5-5.1,5-7.5,7.6c-0.7,0.8-0.9,1.9-1.2,2.9c-0.1,0.5-0.2,0.9-0.3,1.3l-0.3,1l1-0.3
				c0.4-0.2,0.9-0.3,1.3-0.4c1.1-0.3,2.2-0.6,3-1.3c2.9-2.7,5.7-5.6,8.6-8.6c1-1,2-2.1,3.1-3.2l4.5,5.4l-10.6,20.1L453.3,371.8z"/>
			<path d="M469.3,357.3l0.4,0.3l0.9,0.7c-0.1,0.2-0.2,0.4-0.3,0.5c-1.1,1.1-2.3,2.3-3.4,3.4c-2.5,2.5-5.1,5-7.5,7.7
				c-0.8,0.9-1,2-1.3,3.2c-0.1,0.5-0.2,0.9-0.3,1.3l-0.3,0.8l-3.4-3.4l8.2-7.8L469.3,357.3 M474.8,362.4l1.3,1.6l2.6,3.1l-2.8,5.2
				l-7.4,14l-10.4-10.4l0.8-0.3c0.4-0.1,0.8-0.3,1.3-0.4c1.1-0.3,2.3-0.6,3.2-1.4c2.9-2.7,5.7-5.6,8.6-8.6
				C473,364.3,473.9,363.3,474.8,362.4 M469.2,356c-5.9,5.6-11.4,10.8-16.6,15.8c5.3,5.3,10.5,10.5,16.2,16.2
				c3.7-7,7.5-14.1,11.1-21c-1.8-2.1-3.2-3.9-5-6.1c-4.4,4.5-8.1,8.5-12.1,12.2c-1,0.9-2.7,1.1-4.1,1.6c0.4-1.4,0.5-3.1,1.4-4.1
				c3.5-3.8,7.2-7.4,10.9-11c0.3-0.3,0.5-0.8,0.9-1.4C470.7,357.2,469.6,356.3,469.2,356L469.2,356z"/>
		</g>
		<g class="st0">
			<polygon class="st1" points="433.8,392 449.8,376.2 456.3,382.9 441.3,399.2 			"/>
			<path d="M449.8,376.9l2.2,2.3l3.6,3.8l-6.7,7.2l-7.6,8.3l-4.5-4.3l-2.3-2.2L449.8,376.9 M449.8,375.5
				c-5.9,5.8-11.3,11.2-16.8,16.6c2.4,2.3,5.1,4.9,8.3,7.9c5.1-5.6,10.4-11.3,15.6-17C454.8,380.7,452.2,378,449.8,375.5
				L449.8,375.5z"/>
		</g>
		<g class="st0">
			<polygon class="st1" points="443.9,402.8 460.7,387.6 465,392.8 452.9,410.1 			"/>
			<path d="M460.7,388.3l3.8,4.5l-11.6,16.5l-7.1-5.8l-0.9-0.8l3-2.8L460.7,388.3 M460.8,386.9c-5.9,5.4-11.5,10.5-17.6,15.9
				c3.4,2.8,6.4,5.2,9.8,8c4-5.7,8.6-12.2,12.7-18C463.5,390.2,461.7,388.1,460.8,386.9L460.8,386.9z"/>
		</g>
		<g class="st0">
			<polygon class="st1" points="385.2,445 402.2,428 406.3,432.2 389.2,449.3 			"/>
			<g>
				<path d="M402.2,428.7l2.3,2.4l1.1,1.1l-15.2,15.2l-1.2,1.2l-3.3-3.5l9.7-9.7L402.2,428.7 M402.3,427.3
					c-6.1,6.1-11.9,11.9-17.7,17.7c1.4,1.4,3.2,3.4,4.7,5c6.2-6.2,11.9-11.9,17.8-17.8C405.4,430.6,403.5,428.6,402.3,427.3
					L402.3,427.3z"/>
			</g>
		</g>
		<g class="st0">
			<polygon class="st1" points="430.5,416.8 441.2,407.1 449.2,414.6 439.2,425.9 			"/>
			<path d="M441.2,407.8l2.3,2.1l5,4.7l-2.8,3.2l-6.4,7.3l-8-8.4L441.2,407.8 M441.2,406.5c-4.2,3.9-8.1,7.4-11.4,10.3
				c3.2,3.3,6.2,6.5,9.4,9.9c3.4-3.9,7-8,10.6-12.1C446.7,411.6,443.8,408.9,441.2,406.5L441.2,406.5z"/>
		</g>
		<g class="st0">
			<polygon class="st1" points="357.3,452 371.2,438.3 376.1,444 363.1,457.2 			"/>
			<path d="M371.1,439l3.3,3.8l1,1.1l-5.7,5.8l-6.7,6.8l-5-4.6L371.1,439 M371.2,437.6c-5.1,5-9.7,9.5-14.7,14.4
				c2.2,2,4.5,4,6.5,5.9c4.6-4.7,9.2-9.3,13.7-13.9C375.1,442,373,439.6,371.2,437.6L371.2,437.6z"/>
		</g>
		<g class="st0">
			<polygon class="st1" points="311,484.2 331.4,463.7 333.7,466.4 313.3,486.8 			"/>
			<path d="M331.4,464.4l0.3,0.3l1.4,1.6l-0.8,0.8l-19,18.9l-1.6-1.9L331.4,464.4 M331.5,463c-7.4,7.4-14.2,14.2-21.1,21.2
				c0.9,1.1,2.2,2.5,2.9,3.4c7.3-7.3,14.2-14.2,21.2-21.1C333.5,465.4,332.2,463.9,331.5,463L331.5,463z"/>
		</g>
		<g class="st0">
			<polygon class="st1" points="252.7,490.6 264.2,479.1 271.2,485.9 259.5,497.4 			"/>
			<path d="M264.2,479.8l2.8,2.7l3.5,3.4l-11,10.7l-6-6l5.1-5.1L264.2,479.8 M264.2,478.4c-4,4-8,8-12.2,12.2
				c2.4,2.4,4.9,4.9,7.4,7.4c4.5-4.3,8.5-8.2,12.5-12.1C269.2,483.3,266.6,480.7,264.2,478.4L264.2,478.4z"/>
		</g>
		<g class="st0">
			<path class="st1" d="M487.7,263.5c0.7-0.7,1.4-1.5,2.1-2.3c2.1-2.4,4.6-5.1,7.2-7.5c0.6-0.6,1.2-0.9,1.7-0.9c1,0,1.5,1.3,1.6,2.6
				l0,0.4c0.3,4.1,0.6,8.3,0.1,12.4c-0.2,1.3-1.2,2.5-2.4,3.9c-0.5,0.6-1,1.2-1.5,1.9L487.7,263.5z"/>
			<path d="M498.8,253.2c0.6,0,1,0.9,1.1,2.1l0,0.4c0.3,4.1,0.6,8.3,0.1,12.3c-0.1,1.1-1.1,2.3-2.3,3.7c-0.4,0.5-0.8,0.9-1.1,1.4
				l-6.9-8l-1.3-1.5c0.6-0.6,1.2-1.3,1.8-2c2.1-2.4,4.6-5,7.2-7.5C498.1,253.3,498.6,253.2,498.8,253.2 M498.8,252.2
				c-0.6,0-1.3,0.3-2.1,1.1c-3.7,3.5-6.9,7.3-9.6,10.2c3,3.4,6,6.9,9.6,11.2c1.8-2.6,4.1-4.4,4.3-6.5c0.6-4.2,0.2-8.6-0.1-12.9
				C500.7,253.5,500,252.2,498.8,252.2L498.8,252.2z"/>
		</g>
		<g class="st0">
			<polygon class="st1" points="342.3,467.7 353.9,456.4 358.7,461.8 346.9,472.6 			"/>
			<path d="M353.9,457.1l4.1,4.6l-10.4,9.6l-0.6,0.5l-3.9-4.1l0,0l7.3-7.1L353.9,457.1 M353.9,455.7c-4.1,4-8.2,8-12.3,12
				c1.8,1.9,3.8,4,5.3,5.5c4.7-4.3,8.9-8.2,12.5-11.5C357.3,459.5,355.3,457.2,353.9,455.7L353.9,455.7z"/>
		</g>
		<g class="st0">
			<path class="st1" d="M488.1,289.5l9-8.5c4.5,3.9,3.2,8.4,1.9,13.2c-0.6,2-1.2,4.1-1.3,6.2L488.1,289.5z"/>
			<path d="M497.1,281.6c3.8,3.6,2.7,7.7,1.4,12.4c-0.5,1.7-1,3.4-1.2,5.2l-3.5-4.1l-4.9-5.6l1-1L497.1,281.6 M497,280.3
				c-3.7,3.6-7.1,6.8-9.6,9.2c3.6,4.1,7.2,8.2,10.7,12.3C497.8,294.4,504.7,286.6,497,280.3L497,280.3z"/>
		</g>
		<g class="st0">
			<path class="st1" d="M216.2,501.9c-6.1-0.1-10.8-1.4-13.8-6.8l7.6-7.1l9.2,9.9L216.2,501.9z"/>
			<path d="M210,488.7l3.7,3.9l4.9,5.3l-2.6,3.5c-5.7-0.2-10.1-1.4-12.9-6.2l5.6-5.3L210,488.7 M210,487.2c-2.8,2.7-5.5,5.2-8.2,7.8
				c3.3,6.2,8.7,7.3,14.7,7.4c1.2-1.6,2.4-3.3,3.4-4.6C216.4,494,213.1,490.5,210,487.2L210,487.2z"/>
		</g>
		<g class="st0">
			<polygon class="st1" points="404.8,423.7 417.4,412.2 422,417.6 410.1,428.7 			"/>
			<path d="M417.3,412.9l4,4.7l-7.4,6.8l-3.9,3.6l-1.6-1.5l-3-2.8L417.3,412.9 M417.4,411.5c-4.6,4.3-8.9,8.1-13.3,12.2
				c2.2,2.1,4.2,4,6,5.7c4.5-4.1,8.7-8,12.7-11.7C420.7,415.3,418.8,413.1,417.4,411.5L417.4,411.5z"/>
		</g>
		<path d="M227.6,362.1c-0.2-2.4,0-5.3-0.6-8c-3.7-16.9-8.3-33.6-11.3-50.6c-3.6-20.3-2.7-40.3,9.6-58.1
			c9.4-13.5,21.7-22.9,38.3-25.6c15-2.5,27.3,2.5,36.8,14c9.4,11.3,13.3,25,14.3,39.3c3.7,48.9-5.2,95.8-25.4,140.4
			c-3.3,7.3-8.2,14.2-13.6,20.1c-10.6,11.4-23.9,9-28.7-5.7c-6.2-19.1-10.7-38.7-16.1-58.1C230.2,367.2,228.8,364.8,227.6,362.1z
			 M240.5,304.8c-8,0.2-10,7-14.4,10c4.2,3.7,8,7,12.4,10.9c2-2.2,3.7-4.3,5.6-6.1c0.6-0.6,2-0.3,3-0.4c-0.1,1,0.1,2.4-0.5,3
			c-2.1,1.9-4.4,3.5-7.7,6c3.5,2.9,5.7,4.4,7.6,6.3c0.6,0.6,0.4,2,0.6,3c-1-0.1-2.3,0.2-3-0.4c-2.2-1.7-4.2-3.7-5.4-4.9
			c-2.8,0.8-4.8,1.4-6.7,2c0.8-2.1,1.5-4.2,2.1-5.7c-2.1-2.4-4.2-4.9-6.4-7.4c-0.2,0.1-0.4,0.2-0.6,0.4c2.6,10.1,5.1,20.3,8,31.7
			c4.6-4.7,7.9-8.4,11.5-11.8c1.1-1.1,2.9-1.4,4.4-2c-0.6,1.6-0.8,3.7-2,4.8c-3.5,3.5-7.3,6.7-10.9,9.9c6.8,8.6,6.8,8.6,5.7,11.2
			c-2.2-1.7-4.3-3.3-7.3-5.7c1.7,6.8,3.2,12.4,4.9,19.2c3.9-4,6.9-7.4,10.1-10.4c0.8-0.7,2.5-0.5,3.7-0.8c-0.3,1.1-0.3,2.6-1,3.4
			c-2.9,3.2-6,6.3-9.2,9.2c-2.1,1.9-2.7,3.8-1.9,6.5c2.8,9.9,5.2,20,8,29.9c1.1,3.8,2.5,7.6,4.3,11.1c3,5.7,7.8,6.6,12.8,2.5
			c2.5-2.1,5-4.6,6.7-7.4c4-6.7,8-13.5,11-20.6c13.2-31.1,20-63.8,21.9-97.4c1-17.8,0.7-35.7-5.7-52.8c-3.3-8.8-8.3-16.2-16.5-21.3
			c-3.9-2.4-6.7-2.2-8.4,1.5c1.2,2.8,2.2,5.2,3.2,7.5c-2.4-1-4.8-1.9-7.2-2.9c-1.5,0.6-3.5,1.3-5.5,2.1c0.6-2.1,1.3-4.3,2-6.7
			c-1-1.3-2.3-3.1-4.1-5.4c-2.8,1.3-5.7,2.6-9.8,4.5c4.4,4.1,8,7.1,11.3,10.4c0.8,0.8,0.8,2.5,1.1,3.7c-1.3-0.4-2.8-0.4-3.7-1.2
			c-3.5-3-6.7-6.3-11-10.4c-2.9,3.3-5.4,6.4-8.1,9.2c-0.6,0.6-2,0.4-3,0.5c0.1-1-0.1-2.3,0.4-3.1c0.9-1.4,2.3-2.6,3.4-3.8
			c-0.3-0.3-0.5-0.6-0.8-0.8c-2.5,2.1-4.9,4.3-6.6,5.7c2.4,3.1,4.5,5.6,7,8.8c2.8-3,5-5.7,7.5-8.1c0.7-0.6,2.2-0.3,3.4-0.4
			c-0.3,1-0.2,2.4-0.8,3c-2.6,2.5-5.3,4.9-8.8,7.9c2.8,2.4,4.9,3.8,6.6,5.6c0.7,0.8,0.7,2.2,1,3.4c-1.3-0.3-3-0.1-3.8-0.9
			c-1.7-1.7-3-4-3.8-5.2c-5.5,4.9-9.8,8.7-15,13.3c3.5,1.7,6.3,3.1,9.5,4.7c-0.1,0.4-0.5,1.5-0.3,2.6c0.2,1.5,0.7,2.9,1.1,4.3
			c-1.6-0.3-3.2-0.5-4.5-0.7c-3.5,3.3-6.9,6.6-10.3,9.9C231.2,295,237.5,298.2,240.5,304.8z M228.9,264.3c4.6-4.5,8.6-8.4,12.1-11.8
			c-1.7-2-3.7-4.3-6.3-7.3c-2.4,3.9-4.6,7.6-6.9,11.1C225.5,259.9,225.7,262.7,228.9,264.3z M234.6,277.1c-1.9-2.7-3.2-4.6-4-5.8
			c-2.9,1.6-6,2.2-6.5,3.8c-1.1,3.3-0.8,7.1-1.1,10.7c1.1-0.3,2.5-0.3,3.3-1C229.2,282.2,232.1,279.4,234.6,277.1z M224.5,309.5
			c3.2-2.7,6.1-5.2,7.9-6.7c-2.9-3.7-5.6-6.9-8.2-10.2c-0.5,0.2-0.9,0.4-1.4,0.6C222.2,298.7,223.6,304.1,224.5,309.5z"/>
		<path d="M271.8,90.9c28.6,0,51.2,23.1,51.1,52.2c0,30.7-24.3,56-53.6,55.8c-29.7-0.1-54.2-24.6-54.1-54.1
			C215.3,114.9,240.5,90.8,271.8,90.9z M274.6,117.5c-0.7,0.5-1.4,1-2.1,1.5c-5.1-4.8-10.2-9.7-15.1-14.3
			c-3.9,3.8-7.5,7.3-11.6,11.2c2.7,2.5,5.4,4.8,7.8,7.4c1.1,1.2,1.6,3,2.3,4.5c-1.6-0.3-3.1-0.6-4.7-1c-0.2,0-0.3,0-0.5-0.1
			c0.5,0.5,1,1,1.5,1.5c-5.5,5.7-11,11.3-16.4,17c0.9,1.5,3.5,4.5,6.5,6.7c2.9,2.1,2.1,3.5,0.1,5.4c-3.3,3-6.5,6.1-8.8,8.3
			c-0.1,5,8.9,5.7,2.7,11.4c13.8,12.9,29.7,18.1,47.7,11.6c18.7-6.7,28.8-21.2,30.8-40.6c2-18.5-5.7-32.9-21-43.6
			c-1.3,1.5-2.4,2.8-3.4,4c0.4,1.4,0.7,2.8,1.1,4.1c-1.3-0.1-2.6-0.3-3.8-0.1c-1,0.2-1.9,1-2.9,1.4c-1,0.3-2,0.4-3,0.6
			c0.1-1.1,0.1-2.4,0.5-3.4c0.3-0.9,1.1-1.5,1.3-1.8c-2-2.2-3.7-4.1-5.1-5.6c-2.9,2.5-5.7,5-8.2,7.3
			C271.8,113.3,273.2,115.4,274.6,117.5z M239,154.5c-5.3-5-10.3-9.8-15.9-15.2c0.1,9.3-1.3,18.1,6.7,24.6
			C233,160.6,235.8,157.7,239,154.5z M247.8,123.2c-3.5-3.3-7.2-6.7-11.3-10.6c-2.6,3.3-5.2,6.7-7.3,9.4c3.7,3.7,6.7,6.9,9.9,10.1
			C241.9,129.2,244.8,126.3,247.8,123.2z M275.1,99.9c-0.2-0.5-0.4-1-0.6-1.5c-5,0.5-9.9,1-14.2,1.4c2.4,2.9,4.5,5.5,6.3,7.7
			C269.5,104.9,272.3,102.4,275.1,99.9z M235.3,135.7c-2.7-2.7-5.5-5.5-8.6-8.6c-1,3.1-2,6-2.9,8.4c2.6,1.7,4.8,3.1,6.9,4.5
			C232.3,138.5,233.9,137,235.3,135.7z M240.8,109c0.5,1.1,1.1,2.1,1.6,3.2c3.7-1.8,6.2-5.6,8.8-9.3C247.7,105,244.2,107,240.8,109z
			 M281.7,99.6c2.2,2.4,3.7,4.2,5.5,6.3c1-1.2,1.8-2.1,2.9-3.4C287.2,101.5,284.8,100.7,281.7,99.6z"/>
		<g>
			<path class="st9" d="M240.5,304.8c-2.9-6.7-9.3-9.8-13-15.2c3.4-3.3,6.9-6.6,10.3-9.9c1.2,0.2,2.8,0.4,4.5,0.7
				c-0.4-1.4-0.9-2.9-1.1-4.3c-0.1-1.1,0.3-2.2,0.3-2.6c-3.2-1.6-6-3-9.5-4.7c5.2-4.6,9.5-8.4,15-13.3c0.9,1.2,2.1,3.4,3.8,5.2
				c0.8,0.8,2.5,0.6,3.8,0.9c-0.3-1.2-0.3-2.6-1-3.4c-1.7-1.8-3.8-3.3-6.6-5.6c3.4-3.1,6.2-5.4,8.8-7.9c0.6-0.6,0.6-2,0.8-3
				c-1.2,0.1-2.7-0.2-3.4,0.4c-2.5,2.4-4.8,5.1-7.5,8.1c-2.5-3.2-4.6-5.7-7-8.8c1.6-1.4,4.1-3.6,6.6-5.7c0.3,0.3,0.5,0.6,0.8,0.8
				c-1.2,1.3-2.5,2.4-3.4,3.8c-0.5,0.8-0.3,2-0.4,3.1c1-0.1,2.4,0.1,3-0.5c2.8-2.9,5.3-5.9,8.1-9.2c4.2,4.1,7.5,7.3,11,10.4
				c0.9,0.8,2.5,0.8,3.7,1.2c-0.4-1.3-0.3-2.9-1.1-3.7c-3.3-3.3-6.8-6.3-11.3-10.4c4.2-1.9,7.1-3.2,9.8-4.5c1.7,2.3,3.1,4.1,4.1,5.4
				c-0.7,2.5-1.4,4.6-2,6.7c2-0.7,4-1.5,5.5-2.1c2.5,1,4.8,2,7.2,2.9c-1-2.3-2-4.7-3.2-7.5c1.8-3.7,4.5-3.9,8.4-1.5
				c8.2,5.1,13.2,12.5,16.5,21.3c6.4,17.1,6.7,34.9,5.7,52.8c-1.9,33.6-8.7,66.3-21.9,97.4c-3,7.2-7.1,13.9-11,20.6
				c-1.7,2.8-4.1,5.3-6.7,7.4c-5,4.1-9.8,3.2-12.8-2.5c-1.8-3.5-3.2-7.3-4.3-11.1c-2.8-9.9-5.3-19.9-8-29.9
				c-0.8-2.8-0.2-4.6,1.9-6.5c3.2-2.9,6.2-6,9.2-9.2c0.7-0.8,0.7-2.2,1-3.4c-1.3,0.2-2.9,0-3.7,0.8c-3.3,3.1-6.3,6.4-10.1,10.4
				c-1.7-6.7-3.1-12.4-4.9-19.2c3,2.3,5.1,4,7.3,5.7c1.1-2.6,1.1-2.6-5.7-11.2c3.6-3.2,7.4-6.3,10.9-9.9c1.1-1.1,1.3-3.2,2-4.8
				c-1.5,0.7-3.3,1-4.4,2c-3.6,3.4-7,7.1-11.5,11.8c-2.9-11.4-5.4-21.6-8-31.7c0.2-0.1,0.4-0.2,0.6-0.4c2.1,2.5,4.3,4.9,6.4,7.4
				c-0.6,1.5-1.3,3.6-2.1,5.7c2-0.6,4-1.2,6.7-2c1.3,1.2,3.2,3.2,5.4,4.9c0.7,0.5,2,0.3,3,0.4c-0.2-1,0-2.4-0.6-3
				c-1.9-1.9-4.1-3.4-7.6-6.3c3.3-2.5,5.6-4.1,7.7-6c0.6-0.5,0.3-2,0.5-3c-1,0.1-2.4-0.2-3,0.4c-2,1.8-3.6,3.9-5.6,6.1
				c-4.3-3.8-8.2-7.2-12.4-10.9C230.5,311.8,232.5,305,240.5,304.8z"/>
		</g>
		<g>
			<path class="st9" d="M228.9,264.3c-3.1-1.6-3.4-4.4-1.1-8c2.3-3.5,4.5-7.2,6.9-11.1c2.5,2.9,4.5,5.3,6.3,7.3
				C237.5,255.9,233.4,259.9,228.9,264.3z"/>
		</g>
		<g>
			<path class="st9" d="M234.6,277.1c-2.6,2.4-5.4,5.1-8.4,7.7c-0.8,0.7-2.2,0.7-3.3,1c0.3-3.6,0-7.3,1.1-10.7
				c0.5-1.5,3.7-2.2,6.5-3.8C231.4,272.5,232.7,274.4,234.6,277.1z"/>
		</g>
		<g>
			<path class="st9" d="M224.5,309.5c-0.9-5.4-2.4-10.8-1.7-16.4c0.5-0.2,0.9-0.4,1.4-0.6c2.6,3.3,5.3,6.6,8.2,10.2
				C230.6,304.4,227.8,306.8,224.5,309.5z"/>
		</g>
		<g>
			<path class="st9" d="M274.6,117.5c-1.4-2.1-2.8-4.1-4.5-6.6c2.6-2.3,5.4-4.8,8.2-7.3c1.4,1.5,3.2,3.4,5.1,5.6
				c-0.2,0.2-1,0.9-1.3,1.8c-0.4,1.1-0.4,2.3-0.5,3.4c1-0.2,2.1-0.3,3-0.6c1-0.4,1.9-1.2,2.9-1.4c1.2-0.2,2.5,0,3.8,0.1
				c-0.4-1.3-0.7-2.7-1.1-4.1c1-1.2,2.1-2.4,3.4-4c15.4,10.6,23,25.1,21,43.6c-2.1,19.4-12.1,33.9-30.8,40.6
				c-18.1,6.5-34,1.2-47.7-11.6c6.2-5.7-2.8-6.4-2.7-11.4c2.3-2.2,5.5-5.3,8.8-8.3c2-1.9,2.8-3.3-0.1-5.4c-3.1-2.2-5.6-5.2-6.5-6.7
				c5.5-5.7,11-11.3,16.4-17c-0.5-0.5-1-1-1.5-1.5c0.2,0,0.3,0,0.5,0.1c1.6,0.3,3.1,0.6,4.7,1c-0.8-1.5-1.2-3.3-2.3-4.5
				c-2.4-2.6-5-4.8-7.8-7.4c4-3.9,7.7-7.4,11.6-11.2c4.9,4.6,10,9.5,15.1,14.3C273.1,118.5,273.8,118,274.6,117.5z"/>
		</g>
		<g>
			<path class="st9" d="M239,154.5c-3.2,3.2-6.1,6.1-9.3,9.4c-8-6.4-6.5-15.3-6.7-24.6C228.7,144.7,233.8,149.5,239,154.5z"/>
		</g>
		<g>
			<path class="st9" d="M247.8,123.2c-3,3.1-5.9,6-8.7,8.9c-3.1-3.2-6.2-6.3-9.9-10.1c2.1-2.7,4.7-6,7.3-9.4
				C240.6,116.5,244.3,119.9,247.8,123.2z"/>
		</g>
		<g>
			<path class="st9" d="M275.1,99.9c-2.8,2.5-5.5,5-8.5,7.6c-1.7-2.1-3.9-4.7-6.3-7.7c4.3-0.4,9.2-0.9,14.2-1.4
				C274.7,98.9,274.9,99.4,275.1,99.9z"/>
		</g>
		<g>
			<path class="st9" d="M235.3,135.7c-1.4,1.3-3,2.9-4.5,4.3c-2.2-1.4-4.3-2.8-6.9-4.5c0.8-2.5,1.8-5.4,2.9-8.4
				C229.8,130.2,232.6,133,235.3,135.7z"/>
		</g>
		<g>
			<path class="st9" d="M240.8,109c3.5-2,6.9-4.1,10.4-6.1c-2.6,3.7-5.1,7.5-8.8,9.3C241.8,111.2,241.3,110.1,240.8,109z"/>
		</g>
		<g>
			<path class="st9" d="M281.7,99.6c3.1,1,5.5,1.9,8.4,2.8c-1.1,1.3-1.9,2.2-2.9,3.4C285.4,103.9,283.8,102.1,281.7,99.6z"/>
		</g>
	</g>
</g>
</svg>
