<?xml version="1.0" encoding="utf-8"?>
<!-- Generator: Adobe Illustrator 22.1.0, SVG Export Plug-In . SVG Version: 6.00 Build 0)  -->
<svg version="1.1" id="Calque_1" xmlns="http://www.w3.org/2000/svg" xmlns:xlink="http://www.w3.org/1999/xlink" x="0px" y="0px"
	 viewBox="0 0 184.7 186" style="enable-background:new 0 0 184.7 186;" xml:space="preserve">
<style type="text/css">
	.st0{opacity:0.2;fill:none;stroke:#EF9486;stroke-width:19;stroke-miterlimit:10;enable-background:new    ;}
	.st1{fill:none;stroke:#FFFFFF;stroke-width:0.5;stroke-linecap:round;stroke-linejoin:round;stroke-miterlimit:10;}
	.st2{opacity:0.46;fill:none;stroke:#00A5C3;stroke-width:15;stroke-miterlimit:10;enable-background:new    ;}
	.st3{fill:#626262;}
	.st4{fill:#FFFFFF;}
	.st5{fill:none;stroke:#FFFFFF;stroke-width:0.5;stroke-linecap:round;stroke-linejoin:round;}
	.st6{fill:#898890;}
	.st7{fill:#D8D7DA;}
	.st8{opacity:0.48;fill:#EF9486;enable-background:new    ;}
	.st9{opacity:0.46;fill:#00A5C3;enable-background:new    ;}
	.st10{opacity:0.1;}
	.st11{fill:#4FBDD7;}
	.st12{fill:#616161;}
</style>
<path class="st0" d="M120.1,10.7c30.5,12.9,51.9,43.1,51.9,78.3c0,47-38.1,85-85,85c-36.4,0-67.4-22.8-79.5-54.9"/>
<path class="st1" d="M1207.2,49.8c0,0,15.1-16.2,43.3-15.8"/>
<path class="st1" d="M1208.1,56.7c0,0,15-15.4,43.3-14.2"/>
<path class="st1" d="M1213.6,62c0,0,12.1-12.2,33.9-11.4"/>
<path class="st1" d="M1250.5,52.8c0,0-5.9-10.7-1.9-22"/>
<path class="st2" d="M1577.9,88.7c-23.1,61-82,104.3-151.1,104.3c-89.2,0-161.5-72.3-161.5-161.5c0-66.9,40.7-124.3,98.6-148.8"/>
<path class="st3" d="M1545.4,78.2c8-0.8,15.6-1.8,23.2-2.2c7.3-0.6,14.7,1.2,20.9,5.1c9.3,6.1,8.3,15.9,1.6,22.8
	c-7.6,8-18.1,11.5-28.5,14.4c-14,4.1-28.7,5.6-43.3,4.3c-1.6-0.2-3.3,0-4.7,0.7c-10.3,5.7-21.7,5.4-32.9,6
	c-10.1,0.6-20.3,1.1-30.5,1.3c-7.3,0.2-14.6-0.2-21.9-0.2c-4.5,0-8.9,0.3-13.2-1.8c-6.1-3-7.3-8.3-2-12.5c3.2-2.3,6.7-4,10.5-5.1
	c6.5-2,13.3-3.2,19.9-5.1c7.4-2.1,14.1-6.2,19.4-11.9c1-1,2.1-1.8,3.1-2.7l1.2,1.1c-2.7,3.9-5.8,7.6-9.2,10.9
	c-9.7,7.8-22.2,8.8-33.6,12.4c-1.4,0.2-2.6,0.8-3.7,1.7c-1.6,1.6-2.6,3.6-2.9,5.8c0.1,2.8,3.2,2.5,5.3,2.5c9.1,0,18.3,0,27.4-0.2
	c10.1-0.3,20.1-0.8,30.2-1.4c6.5-0.4,12.9-1.2,19.4-1.5c7-0.3,11.9-4.6,16.9-8.5c0.6-0.5,1.1-1.2,1.7-1.7
	c16.3-12.7,20.7-30.4,20.6-49.7c0-13.7-1-27.3-3.2-40.8c-2.6-13.1-6-25.9-10.1-38.6c-4.8-16.5-14.3-30.5-25-43.7
	c-3.5-3.7-7.2-7.2-11.2-10.3c-1.6-1.4-3.4-2.8-4.9-4.4c-0.5-0.5-0.3-1.6-0.5-2.5c0.8,0,1.7-0.4,2.2,0c4.4,2.3,8.5,5,12.3,8.2
	c9.6,9.7,17.7,20.8,24.1,32.9c7.5,13.2,13.2,27.4,17.1,42c6.1,23.4,8.5,47,4.4,70.9C1545.3,77.1,1545.3,77.6,1545.4,78.2z"/>
<path class="st3" d="M1386.6,100.7c-1.1-3.1-2.1-5.8-3.1-8.5c-5.6-14.8-7.2-30.9-4.5-46.5c1.3-6.1,2.9-12.1,5.1-17.9
	c0.3-1,1.6-1.6,2.5-2.4c0.2,1.1,0.9,2.4,0.6,3.4c-7.6,27.2-3.7,53.2,8.6,78.3c0.5,0.7,0.8,1.4,1,2.2c-0.1,0.9-0.2,1.7-0.6,2.5
	c-0.8-0.2-1.6-0.5-2.4-1c-0.8-0.8-1.2-2-2.1-2.8c-0.8-0.8-2.5-2.4-3.6-2.3c-5.7,0.3-11.6,0.6-16.6,4c-2.1,1.3-3.1,3.9-2.5,6.3
	c0.3,2.9,2.7,5.1,5.6,5.1c9.1,0,18.3,0.2,27.4,0.4c1.1,0.1,2.3,0.4,3.4,0.8l0.2,1.2c-1.1,0.8-2.3,1.4-3.6,1.8
	c-7.8,0.9-15.6,2-23.4,2.3c-4.1-0.1-8.2-0.8-12.2-2.1c-4.2-1.1-7.2-4.6-7.6-8.9c0-4.5,2.7-8.6,6.8-10.5c5.8-1.8,11.8-3.1,17.7-4.5
	C1384.1,101.3,1385,101.1,1386.6,100.7z"/>
<path class="st3" d="M1369,14.5c1.8,0.5,3.6,1.1,5.4,1.8c12.9,6.5,26.8,7.8,40.9,8.1c9.1,0.1,18.3-0.6,27.3-2.2
	c15.2-2.2,29.1-10,38.9-21.8c7.3-9,11.6-19.7,14.9-30.7c0.4-1.3,0-3.3,2.5-2.7c2.1,0.5,2.3,2.1,1.9,3.8c-0.7,3.7-1.7,7.4-2.9,11
	c-6.4,16.9-19.1,30.8-35.5,38.6c-11.1,5.6-23.1,7.3-35.6,7.6c-14,0.3-28-1-41.7-4c-5.1-1.5-10-3.5-14.6-5.9
	c-0.9-0.4-1.4-1.6-2.1-2.4L1369,14.5z"/>
<path class="st3" d="M1487.9-85.6c5.3-5.3,8.4-12.4,8.7-19.9c0.5-7.1-3.3-12-8.8-15.5c-3.1-1.9-7-1.7-9.8,0.7
	c-4.1,3.7-10.1,4.1-14.7,1.1c-4.5-2.5-9.5-4.3-14.7-5.1c-12.8-1.9-25.8-0.6-38,3.8c-8.1,2.8-11.9,9.9-15.4,17c-0.5,1-0.9,2-1.3,3
	l-1.1-0.3c0.3-1.9,0.7-3.9,1.3-5.7c3.9-8.9,11.4-15.8,20.6-18.9c9.3-3,19-4.2,28.7-3.5c7.9,0.2,15.7,1.8,23,4.5
	c1.2,0.3,2.4,0.1,3.5-0.5c8.8-5.6,20.4-3,26,5.8c1.6,2.5,2.6,5.4,2.9,8.3c1,7.6-0.9,15.2-5.4,21.4c-1.5,1.7-3,3.3-4.7,4.7
	L1487.9-85.6z"/>
<path class="st3" d="M1406.2-73.8c-6.9,0-11.5-5.2-11.3-12.7c0.4-7.2,6.2-13,13.4-13.4c6.6,0,11.1,5.8,11,13.8
	C1418.9-79.2,1413.2-73.7,1406.2-73.8z M1415.6-91.1c-2.9,2.5-2.9,3.9,0,5.7V-91.1z"/>
<path class="st3" d="M1431.6-65.9c0,4.3,0,8.5-2.5,12.4c-1.9,2.7-3.3,5.8-5.3,8.5c-0.9,1.4-2.3,2.5-3.8,2.9c-5.3,0.6-10.6,0.8-16,1
	c-3.2,0-11.7-9.3-11.4-12.7c0.1-0.3,0.2-0.7,0.3-1c2,1.6,4.1,3,6.3,4.3c2.4,1.2,5.3,0.8,7.2-1.1c-3.1-5.8-5.8-11.7-2.5-19
	c0.8,3.7,1.3,6.8,2.2,9.8c1.8,6.7,5.1,9.3,11.8,9.6c4.5,0.2,8.6-3,10.7-8.5c0.8-2.1,1.4-4.3,2.1-6.5L1431.6-65.9z M1411.8-47v1.4
	l6.4-0.4v-1H1411.8z"/>
<path class="st3" d="M1377.7-12.1c-3.9,0.5-7.9,0.1-11.7-1.1c-0.7-0.3-1-1.6-1.4-2.4c0.9,0,2-0.6,2.7-0.3c10,3.4,17.7-0.5,24.2-7.6
	c1.9-2,3.7-4.1,5.3-6.4c1.4-2.1,4.5-3,4.7-1c0.2,1.3-0.2,2.6-1.1,3.6C1399.6-26.3,1388.8-13.8,1377.7-12.1z"/>
<path class="st3" d="M1386.8-83.3c-0.2,1.2-0.5,2.4-0.8,3.5c-3.9,11.7-1.5,22.3,5.5,32.2c0.6,0.8,0.2,2.2,0.3,3.3
	c-1.2,0-2.8,0.2-3.4-0.4c-1.4-1.5-2.5-3.3-3.3-5.2c-5.1-10.3-6.3-20.8-1-31.4c0.5-0.9,1.1-1.8,1.8-2.5L1386.8-83.3z"/>
<path class="st3" d="M1487.9-94.9c-0.9-0.5-1.7-1.1-2.5-1.7c-0.4-0.3-0.5-0.8-0.9-1.1c-3.2-2.7-5.1-5.4-2.9-10c0.8-1.8-0.7-4.6-1-7
	c0-0.8,0.2-1.6,0.5-2.4c0.7,0.3,1.6,0.4,1.9,0.9c3.2,5.6,6.3,11.4,6.2,18.1C1489-97,1488.6-95.9,1487.9-94.9z"/>
<path class="st3" d="M1383.4,16.6c-4.4-2-8.7-3.8-12.9-6.1c-0.8-0.4-0.9-2.2-1.3-3.4c1.2-0.1,2.3,0,3.4,0.3
	c3.9,1.7,7.6,3.6,11.4,5.5c0.8,0.4,1.2,1.3,1.8,2L1383.4,16.6z"/>
<path class="st3" d="M1361.7,4.1c-3.4-1.5-6.7-2.8-9.9-4.4c-0.6-0.3-0.7-1.5-1-2.3c0.9-0.4,1.8-0.7,2.8-0.7c3,0.6,6,1.3,9,2.3
	c1.1,0.4,1.9,1.7,2.9,2.5L1361.7,4.1z"/>
<path class="st3" d="M1370.2-2.3l15.9,8.1l-0.6,1.4c-5.2-0.2-10.2-2-14.2-5.2c-1-0.8-1.3-2.4-2-3.6L1370.2-2.3z"/>
<path class="st3" d="M1359.5,6.2c-3.6,4-13.1,2.3-16.9-2.5c0.8-0.4,1.7-1.3,2.3-1.1C1349.5,3.6,1354.3,4.9,1359.5,6.2z"/>
<path class="st3" d="M1354.7-9.3c1-0.1,2-0.1,3,0c2.1,0.4,4.2,0.9,6.3,1.5c1,0.4,2,1,2.9,1.7c-1,0.8-1.8,2.1-2.9,2.3
	C1359.4-2.9,1356.6-4.6,1354.7-9.3z"/>
<path class="st3" d="M1388.8-1.9c-0.9,0.7-1.6,1.6-2,1.5c-3.3-1.2-6.5-2.5-9.7-3.9c-0.4-0.2-0.4-1.4-0.2-2.1c0-0.2,1.3-0.5,1.8-0.2
	C1381.9-5.2,1385.1-3.7,1388.8-1.9z"/>
<path class="st4" d="M1415.6-91.2v5.7C1412.6-87.3,1412.6-88.7,1415.6-91.2z"/>
<path class="st4" d="M1411.8-47.9h6.4v2.7l-6.4,1V-47.9z"/>
<path class="st4" d="M1404.5-47.7h6.4v2.1l-6.4,0.8V-47.7z"/>
<path class="st5" d="M1566,112.8c0,0-9.1-15.8-3.4-31.9"/>
<path class="st5" d="M1577.1,108.8c0,0-9.1-15.8-3.4-31.9"/>
<path class="st5" d="M1554.3,120.5c0,0-10.1-18.1-2.4-37.1"/>
<path class="st5" d="M1532.5,101.8c0,0,18.7-19.1,53.2-18.6"/>
<path class="st5" d="M1533.5,110c0,0,18.5-18.2,53.3-16.8"/>
<path class="st5" d="M1540.4,116.2c0,0,14.9-14.4,41.7-13.5"/>
<path class="st5" d="M1542.7,116.8c0,0-7.3-12.7-2.4-25.9"/>
<path class="st3" d="M1449-98.4c-6.2-3.7-10.3,1.3-15.2,3.7c-0.6-3.1,1.5-6,4.5-6.5l0,0C1443.4-102.9,1447.2-102.2,1449-98.4z"/>
<path class="st3" d="M1345.8-24.4c-1.7,1.3-3.4,1.4-4.2-0.8c-2.2-6.5-4.2-13.1-6.3-19.7c0-0.2,0.2-0.6,0.7-1.6L1345.8-24.4z"/>
<path class="st3" d="M1360.1-46.5c0.2,5.9,0.4,11.7,0.7,17.7c-2.5,0-4.3-0.3-3.7-3.4c0.9-4.7,1.6-9.5,2.5-14.3L1360.1-46.5z"/>
<path class="st3" d="M1325.5-18.1l13.2,9l-1.1,1.5c-4.8-2.4-8.4-6.5-12.7-9.7L1325.5-18.1z"/>
<path class="st1" d="M1460.8,68.2c0,0,2.3-10.4,12-16.7"/>
<path class="st1" d="M1467.8,69.4c0,0,2.3-10.4,12-16.7"/>
<path class="st1" d="M1451,68.6c0,0,2.9-11.8,14.7-19"/>
<path class="st1" d="M1455.8,52.8c0,0,13.7-2.9,27,6.4"/>
<path class="st1" d="M1452.1,58c0,0,13.7-2.9,27,6.4"/>
<path class="st1" d="M1449.4,64.8c0,0,12.2-3.2,23.3,3"/>
<path class="st1" d="M1340.6,49.4c0,0,1.6-14,12.9-20.4"/>
<path class="st1" d="M1349.6,52.9c0,0,1.6-14,12.9-20.4"/>
<path class="st1" d="M1329.4,47.8c0,0,2-15.8,16-22.9"/>
<path class="st1" d="M1324.3,25.5c0,0,21-1.4,43,16.9"/>
<path class="st1" d="M1321.2,30.9c0,0,20.4-1,42.1,18"/>
<path class="st1" d="M1322.6,38.1c0,0,16.4-0.6,33.1,13.9"/>
<path class="st1" d="M1356.8,55.4c0,0,1.3-11.2,10.7-16.3"/>
<path class="st4" d="M1538.2-69c1.7,0,3.4,0,5.2,0c0,0.6,0,1.2,0,1.8c-1.7,0.2-3.4,0.4-5.2,0.6C1538.2-67.4,1538.2-68.2,1538.2-69z"
	/>
<path class="st6" d="M1543.1-76.1c-0.9,2.8-3.8,4.4-6.6,3.5c-2.8-0.9-4.4-3.8-3.5-6.6s3.8-4.4,6.6-3.5
	C1542.4-81.8,1543.9-78.9,1543.1-76.1z"/>
<path class="st7" d="M1472.6,155.2c-1.3,4.2-5.7,6.5-9.9,5.3c-4.2-1.3-6.5-5.7-5.3-9.9c1.3-4.2,5.7-6.5,9.9-5.3
	C1471.5,146.5,1473.9,151,1472.6,155.2z"/>
<path class="st7" d="M1323.8-16.7c-1.3,4.2-5.7,6.5-9.9,5.3c-4.2-1.3-6.5-5.7-5.3-9.9c1.3-4.2,5.7-6.5,9.9-5.3
	C1322.7-25.3,1325.1-20.9,1323.8-16.7z"/>
<path class="st6" d="M1337.3,93.1c-0.9,2.8-3.8,4.4-6.6,3.5c-2.8-0.9-4.4-3.8-3.5-6.6s3.8-4.4,6.6-3.5
	C1336.6,87.3,1338.1,90.3,1337.3,93.1z"/>
<path class="st8" d="M1535.7-70.1c4.2,1.3,8.6-1.1,9.9-5.3c1.3-4.2-1.1-8.6-5.3-9.9c-4.2-1.3-8.6,1.1-9.9,5.3
	C1529.2-75.8,1531.5-71.3,1535.7-70.1z M1538.8-80.2c1.4,0.4,2.2,1.9,1.8,3.3c-0.4,1.4-1.9,2.2-3.3,1.8c-1.4-0.4-2.2-1.9-1.8-3.3
	S1537.4-80.6,1538.8-80.2z"/>
<path class="st9" d="M1461.9,163c5.6,1.7,11.5-1.4,13.2-7s-1.4-11.5-7-13.2s-11.5,1.4-13.2,7C1453.2,155.3,1456.4,161.3,1461.9,163z
	 M1466.6,147.8c2.8,0.9,4.4,3.8,3.5,6.6c-0.9,2.8-3.8,4.4-6.6,3.5c-2.8-0.9-4.4-3.8-3.5-6.6C1460.8,148.5,1463.8,146.9,1466.6,147.8
	z"/>
<path class="st9" d="M1319.3-29.1c-5.6-1.7-11.5,1.4-13.2,7s1.4,11.5,7,13.2s11.5-1.4,13.2-7C1328.1-21.5,1324.9-27.4,1319.3-29.1z
	 M1314.7-13.9c-2.8-0.9-4.4-3.8-3.5-6.6c0.9-2.8,3.8-4.4,6.6-3.5c2.8,0.9,4.4,3.8,3.5,6.6S1317.5-13.1,1314.7-13.9z"/>
<path class="st8" d="M1334.5,83.9c-4.2-1.3-8.6,1.1-9.9,5.3s1.1,8.6,5.3,9.9c4.2,1.3,8.6-1.1,9.9-5.3
	C1341.1,89.6,1338.7,85.2,1334.5,83.9z M1331.5,94c-1.4-0.4-2.2-1.9-1.8-3.3c0.4-1.4,1.9-2.2,3.3-1.8s2.2,1.9,1.8,3.3
	C1334.3,93.7,1332.9,94.5,1331.5,94z"/>
<g class="st10">
	<path class="st11" d="M83.9,146.7c-2.2,0-4-1.6-4.8-4.3c-1.4-4.4-2.6-8.9-3.7-13.3c-0.6-2.2-1.2-4.4-1.8-6.7
		c-0.2-0.6-0.4-1.2-0.7-1.8c-0.1-0.3-0.3-0.6-0.4-0.8c0-0.2,0-0.5,0-0.8c0-0.6,0-1.3-0.2-2c-0.4-2-0.9-4.1-1.4-6.1
		c-0.9-3.7-1.8-7.5-2.5-11.3C67,91.4,68,85.1,71.7,79.8c3.4-5,7.7-7.8,13-8.7c0.9-0.1,1.7-0.2,2.5-0.2c3.9,0,7.2,1.7,9.9,5
		c2.9,3.5,4.4,7.8,4.8,13.4c1.2,16.4-1.7,32.7-8.6,48.2c-1.1,2.3-2.7,4.7-4.6,6.9C87.2,145.8,85.5,146.7,83.9,146.7z M86.5,63.5
		c-4.8,0-9.5-2-12.9-5.5c-3.5-3.5-5.4-8.1-5.4-13c0-10.1,8.6-18.4,19.1-18.4c4.7,0,9.1,1.9,12.3,5.2c3.2,3.3,5,7.8,5,12.6
		C104.6,55,96.5,63.5,86.5,63.5L86.5,63.5z"/>
	<path d="M87.3,26.9c4.7,0,9,1.8,12.2,5.1s5,7.7,5,12.5c0,5-1.9,9.7-5.3,13.3c-3.4,3.6-7.9,5.5-12.6,5.5h-0.1c-4.8,0-9.4-2-12.8-5.4
		c-3.4-3.5-5.3-8-5.3-12.8c0-4.9,2-9.5,5.6-12.9C77.5,28.7,82.3,26.9,87.3,26.9 M87.1,71c3.8,0,7.1,1.7,9.8,4.9
		c2.8,3.4,4.4,7.8,4.8,13.3c1.2,16.4-1.7,32.6-8.6,48.1c-1.1,2.3-2.6,4.7-4.6,6.8c-1.4,1.5-3,2.4-4.5,2.4c-2.1,0-3.8-1.5-4.7-4.2
		c-1.4-4.4-2.6-8.9-3.7-13.3c-0.6-2.2-1.2-4.4-1.8-6.7c-0.2-0.6-0.4-1.2-0.8-1.8c-0.1-0.3-0.2-0.5-0.4-0.8c0-0.2,0-0.5,0-0.7
		c0-0.6,0-1.3-0.2-2c-0.4-2-0.9-4.1-1.4-6.1c-0.9-3.7-1.8-7.5-2.5-11.3c-1.4-8.2-0.4-14.4,3.2-19.7c3.4-5,7.6-7.8,12.9-8.7
		C85.5,71,86.3,71,87.1,71 M87.3,26.5c-10.7,0-19.3,8.3-19.3,18.6c0,10.1,8.3,18.6,18.5,18.6h0.1c10,0,18.2-8.7,18.2-19.2
		C104.9,34.5,97.1,26.5,87.3,26.5L87.3,26.5z M87.1,70.6c-0.8,0-1.6,0.1-2.5,0.2c-5.7,1-9.9,4.2-13.1,8.8c-4.2,6.1-4.5,13-3.3,20
		c1,5.8,2.6,11.6,3.9,17.4c0.2,0.9,0.2,1.9,0.2,2.8c0.4,0.9,0.9,1.8,1.1,2.6c1.8,6.7,3.4,13.4,5.5,20c1,2.9,2.9,4.4,5,4.4
		c1.6,0,3.3-0.8,4.8-2.5c1.9-2,3.5-4.4,4.6-6.9c6.9-15.3,9.9-31.5,8.7-48.3c-0.4-4.9-1.7-9.6-4.9-13.5
		C94.4,72.4,91.1,70.6,87.1,70.6L87.1,70.6z"/>
</g>
<path class="st12" d="M72.3,119.8c-0.1-0.8,0-1.8-0.2-2.8c-1.3-5.8-2.8-11.6-3.9-17.4c-1.2-7-0.9-13.9,3.3-20
	c3.2-4.6,7.4-7.9,13.1-8.8c5.1-0.9,9.3,0.9,12.6,4.8c3.2,3.9,4.5,8.6,4.9,13.5c1.3,16.8-1.8,32.9-8.7,48.3c-1.1,2.5-2.8,4.9-4.6,6.9
	c-3.6,3.9-8.2,3.1-9.8-2c-2.1-6.6-3.7-13.3-5.5-20C73.2,121.5,72.7,120.7,72.3,119.8L72.3,119.8z M76.7,100.1
	c-2.7,0.1-3.4,2.4-4.9,3.4c1.4,1.3,2.7,2.4,4.2,3.7c0.7-0.8,1.3-1.5,1.9-2.1c0.2-0.2,0.7-0.1,1-0.1c0,0.3,0,0.8-0.2,1
	c-0.7,0.7-1.5,1.2-2.6,2.1c1.2,1,1.9,1.5,2.6,2.2c0.2,0.2,0.1,0.7,0.2,1c-0.3,0-0.8,0.1-1-0.1c-0.8-0.6-1.4-1.3-1.8-1.7
	c-1,0.3-1.6,0.5-2.3,0.7c0.3-0.7,0.5-1.4,0.7-2c-0.7-0.8-1.4-1.7-2.2-2.5c-0.1,0-0.1,0.1-0.2,0.1c0.9,3.5,1.7,7,2.7,10.9
	c1.6-1.6,2.7-2.9,3.9-4.1c0.4-0.4,1-0.5,1.5-0.7c-0.2,0.6-0.3,1.3-0.7,1.7c-1.2,1.2-2.5,2.3-3.7,3.4c2.3,3,2.3,3,1.9,3.9
	c-0.8-0.6-1.5-1.1-2.5-2c0.6,2.3,1.1,4.3,1.7,6.6c1.3-1.4,2.4-2.5,3.4-3.6c0.3-0.2,0.9-0.2,1.3-0.3c-0.1,0.4-0.1,0.9-0.3,1.2
	c-1,1.1-2,2.2-3.1,3.2c-0.7,0.7-0.9,1.3-0.6,2.2c1,3.4,1.8,6.9,2.7,10.3c0.4,1.3,0.9,2.6,1.5,3.8c1,2,2.7,2.3,4.4,0.9
	c0.9-0.7,1.7-1.6,2.3-2.5c1.4-2.3,2.7-4.6,3.8-7.1c4.5-10.7,6.8-21.9,7.5-33.5c0.3-6.1,0.2-12.3-1.9-18.2c-1.1-3-2.8-5.6-5.6-7.3
	c-1.3-0.8-2.3-0.8-2.9,0.5c0.4,1,0.8,1.8,1.1,2.6c-0.8-0.3-1.6-0.7-2.5-1c-0.5,0.2-1.2,0.4-1.9,0.7c0.2-0.7,0.4-1.5,0.7-2.3
	c-0.3-0.4-0.8-1.1-1.4-1.9c-1,0.4-1.9,0.9-3.3,1.5c1.5,1.4,2.7,2.4,3.9,3.6c0.3,0.3,0.3,0.9,0.4,1.3c-0.4-0.1-1-0.1-1.3-0.4
	c-1.2-1-2.3-2.2-3.8-3.6c-1,1.1-1.8,2.2-2.8,3.2c-0.2,0.2-0.7,0.1-1,0.2c0-0.3,0-0.8,0.1-1.1c0.3-0.5,0.8-0.9,1.2-1.3
	c-0.1-0.1-0.2-0.2-0.3-0.3c-0.9,0.7-1.7,1.5-2.3,2c0.8,1.1,1.5,1.9,2.4,3c1-1,1.7-2,2.6-2.8c0.2-0.2,0.8-0.1,1.2-0.1
	c-0.1,0.3-0.1,0.8-0.3,1c-0.9,0.9-1.8,1.7-3,2.7c1,0.8,1.7,1.3,2.3,1.9c0.2,0.3,0.2,0.8,0.3,1.2c-0.4-0.1-1,0-1.3-0.3
	c-0.6-0.6-1-1.4-1.3-1.8c-1.9,1.7-3.3,3-5.1,4.6c1.2,0.6,2.2,1.1,3.2,1.6c0,0.1-0.2,0.5-0.1,0.9c0.1,0.5,0.2,1,0.4,1.5
	c-0.5-0.1-1.1-0.2-1.5-0.2c-1.2,1.1-2.4,2.3-3.5,3.4C73.5,96.7,75.7,97.8,76.7,100.1L76.7,100.1z M72.7,86.1
	c1.6-1.5,2.9-2.9,4.1-4.1c-0.6-0.7-1.3-1.5-2.2-2.5c-0.8,1.3-1.6,2.6-2.4,3.8C71.6,84.6,71.6,85.6,72.7,86.1L72.7,86.1z M74.7,90.5
	c-0.6-0.9-1.1-1.6-1.4-2c-1,0.6-2,0.8-2.2,1.3c-0.4,1.1-0.3,2.4-0.4,3.7c0.4-0.1,0.9-0.1,1.1-0.3C72.8,92.3,73.8,91.3,74.7,90.5z
	 M71.2,101.7c1.1-0.9,2.1-1.8,2.7-2.3c-1-1.3-1.9-2.4-2.8-3.5c-0.2,0.1-0.3,0.1-0.5,0.2C70.4,98,70.9,99.8,71.2,101.7L71.2,101.7z"
	/>
<path class="st12" d="M87.4,26.5c9.8,0,17.5,7.9,17.5,18c0,10.6-8.3,19.3-18.3,19.2C76.4,63.6,68,55.2,68,45
	C68.1,34.8,76.7,26.5,87.4,26.5L87.4,26.5z M88.3,35.7c-0.2,0.2-0.5,0.3-0.7,0.5c-1.7-1.7-3.5-3.3-5.2-4.9c-1.3,1.3-2.6,2.5-4,3.9
	c0.9,0.9,1.8,1.7,2.7,2.5c0.4,0.4,0.5,1,0.8,1.5c-0.5-0.1-1.1-0.2-1.6-0.3c-0.1,0-0.1,0-0.2,0l0.5,0.5c-1.9,2-3.8,3.9-5.6,5.8
	c0.3,0.5,1.2,1.5,2.2,2.3c1,0.7,0.7,1.2,0,1.9c-1.1,1-2.2,2.1-3,2.9c0,1.7,3,2,0.9,3.9c4.7,4.4,10.1,6.2,16.3,4
	c6.4-2.3,9.8-7.3,10.5-14c0.7-6.4-1.9-11.3-7.2-15c-0.4,0.5-0.8,1-1.2,1.4c0.1,0.5,0.2,1,0.4,1.4c-0.4,0-0.9-0.1-1.3,0
	c-0.3,0.1-0.6,0.3-1,0.5c-0.3,0.1-0.7,0.1-1,0.2c0-0.4,0-0.8,0.2-1.2c0.1-0.3,0.4-0.5,0.4-0.6c-0.7-0.8-1.3-1.4-1.7-1.9
	c-1,0.9-1.9,1.7-2.8,2.5C87.4,34.2,87.8,34.9,88.3,35.7L88.3,35.7z M76.2,48.4c-1.8-1.7-3.5-3.4-5.4-5.2c0,3.2-0.4,6.2,2.3,8.5
	C74.1,50.5,75.1,49.5,76.2,48.4L76.2,48.4z M79.2,37.6c-1.2-1.1-2.5-2.3-3.9-3.6c-0.9,1.1-1.8,2.3-2.5,3.2c1.3,1.3,2.3,2.4,3.4,3.5
	C77.2,39.7,78.1,38.7,79.2,37.6L79.2,37.6z M88.5,29.6c-0.1-0.2-0.1-0.3-0.2-0.5c-1.7,0.2-3.4,0.3-4.8,0.5c0.8,1,1.5,1.9,2.2,2.6
	C86.6,31.3,87.5,30.5,88.5,29.6L88.5,29.6z M74.9,41.9C74,41,73,40,72,39c-0.3,1.1-0.7,2.1-1,2.9c0.9,0.6,1.6,1.1,2.4,1.5
	C73.9,42.9,74.4,42.4,74.9,41.9z M76.8,32.7c0.2,0.4,0.4,0.7,0.5,1.1c1.3-0.6,2.1-1.9,3-3.2C79.1,31.4,77.9,32,76.8,32.7L76.8,32.7z
	 M90.7,29.5c0.8,0.8,1.3,1.4,1.9,2.2c0.3-0.4,0.6-0.7,1-1.2C92.6,30.2,91.8,29.9,90.7,29.5z"/>
<g class="st10">
	<path class="st11" d="M84.1,143.9c-0.9,0-1.6-0.6-2.2-1.7c-0.6-1.1-1.1-2.3-1.5-3.8c-0.5-1.8-1-3.6-1.4-5.4
		c-0.4-1.6-0.9-3.3-1.3-4.9c-0.2-0.9-0.1-1.4,0.6-2.1c1-0.9,2-1.9,3.1-3.2c0.2-0.2,0.3-0.6,0.3-0.9c0-0.1,0-0.2,0.1-0.4l0.1-0.3
		l-0.3,0c-0.1,0-0.3,0-0.4,0c-0.3,0-0.7,0-1,0.3c-0.8,0.8-1.5,1.5-2.4,2.5c-0.3,0.3-0.5,0.6-0.8,0.9l-1.5-5.8l2.3,1.8l0.1-0.2
		c0.4-1,0.4-1-1.9-3.9c0.3-0.3,0.6-0.5,0.9-0.8c0.9-0.8,1.8-1.6,2.7-2.5c0.3-0.3,0.4-0.8,0.5-1.2c0.1-0.2,0.1-0.4,0.2-0.6l0.1-0.4
		l-0.4,0.2c-0.2,0.1-0.3,0.1-0.5,0.2c-0.4,0.1-0.8,0.3-1.1,0.6c-0.9,0.8-1.7,1.7-2.7,2.7c-0.3,0.3-0.7,0.7-1.1,1.1L72.3,106l2,2.3
		l-0.8,2.2l2.5-0.8c0.1,0.1,0.2,0.2,0.3,0.3c0.4,0.4,0.9,0.9,1.5,1.3c0.2,0.1,0.4,0.1,0.6,0.1h0.3H79l0.2,0l0-0.2c0-0.1,0-0.2,0-0.3
		c0-0.3,0-0.6-0.2-0.8c-0.4-0.4-1-0.9-1.6-1.4c-0.2-0.2-0.5-0.4-0.8-0.7c0.3-0.2,0.5-0.4,0.8-0.6c0.7-0.5,1.2-0.9,1.7-1.4
		c0.2-0.2,0.2-0.5,0.2-0.8c0-0.1,0-0.2,0-0.3l0-0.2l-0.2,0c-0.1,0-0.1,0-0.2,0h-0.3c-0.2,0-0.5,0-0.6,0.2c-0.5,0.4-0.9,0.9-1.4,1.5
		c-0.1,0.2-0.3,0.3-0.4,0.5l-3.9-3.5c0.4-0.3,0.8-0.8,1.2-1.2c0.9-1,1.7-2,3.5-2.1H77l-0.1-0.2c-0.6-1.4-1.6-2.3-2.6-3.2
		c-0.6-0.6-1.3-1.2-1.8-1.9l3.4-3.2l1.7,0.3l-0.1-0.2c0-0.1-0.1-0.3-0.1-0.4c-0.1-0.3-0.2-0.7-0.2-1c0-0.2,0-0.5,0.1-0.7
		c0-0.1,0-0.1,0-0.2l0-0.1l-3.1-1.5l4.8-4.3c0,0.1,0.1,0.1,0.1,0.2c0.3,0.4,0.6,1,1.1,1.4c0.2,0.2,0.6,0.3,1,0.3
		c0.1,0,0.3,0,0.4,0.1l0.3,0.1l-0.1-0.3c0-0.1-0.1-0.2-0.1-0.4c-0.1-0.3-0.1-0.7-0.3-0.9c-0.4-0.4-0.9-0.8-1.4-1.3
		c-0.2-0.2-0.4-0.3-0.7-0.6c0.3-0.2,0.5-0.5,0.8-0.7c0.8-0.7,1.4-1.3,2-1.9c0.2-0.2,0.2-0.5,0.3-0.8c0-0.1,0-0.2,0.1-0.3l0.1-0.2
		l-0.2,0c-0.1,0-0.1,0-0.2,0h-0.3c-0.2,0-0.5,0-0.7,0.2c-0.6,0.6-1.2,1.3-1.8,2c-0.2,0.2-0.4,0.5-0.6,0.7l-2.2-2.7l2-1.8l0.1,0.1
		c-0.1,0.1-0.2,0.2-0.2,0.2c-0.3,0.3-0.6,0.6-0.8,1c-0.1,0.2-0.1,0.5-0.2,0.8v0.3l0,0.2l0.2,0c0.1,0,0.2,0,0.3,0
		c0.3,0,0.6,0,0.8-0.2c0.7-0.7,1.3-1.5,2-2.3c0.2-0.2,0.4-0.5,0.6-0.8c0.4,0.3,0.7,0.7,1,1c0.9,0.9,1.7,1.7,2.6,2.4
		c0.2,0.2,0.6,0.3,0.9,0.3l0.4,0.1l0.3,0.1l-0.1-0.3c0-0.1-0.1-0.3-0.1-0.4c-0.1-0.3-0.1-0.7-0.3-0.9c-0.8-0.8-1.6-1.6-2.6-2.5
		c-0.3-0.3-0.6-0.6-1-0.9l3-1.4l1.3,1.7l-0.8,2.5l2.2-0.8l2.8,1.1l-1.2-2.9c0.3-0.6,0.7-0.9,1.2-0.9c0.4,0,0.9,0.2,1.4,0.5
		c2.5,1.6,4.3,3.9,5.6,7.3c2.3,6.1,2.3,12.2,1.9,18.1c-0.7,12-3.2,23.2-7.5,33.4c-1,2.4-2.4,4.7-3.7,6.9l-0.1,0.1
		c-0.5,0.8-1.2,1.7-2.2,2.5C85.4,143.6,84.7,143.9,84.1,143.9L84.1,143.9z"/>
	<path d="M85.1,73.7l0.8,1.1l0.3,0.4l-0.6,2.1l-0.1,0.3c-0.7-0.7-1.4-1.3-2.2-2c-0.3-0.2-0.5-0.5-0.8-0.8L85.1,73.7z M90.5,74.4
		c0.3,0,0.8,0.2,1.3,0.5c2.5,1.5,4.2,3.8,5.5,7.2c2.3,6,2.3,12.2,1.9,18c-0.7,12-3.2,23.2-7.4,33.4c-1,2.4-2.4,4.7-3.7,6.9l-0.1,0.1
		c-0.5,0.8-1.2,1.6-2.2,2.4c-0.6,0.5-1.3,0.8-1.8,0.8c-1,0-1.6-0.9-2-1.5c-0.5-1.1-1-2.3-1.4-3.8c-0.5-1.8-1-3.6-1.4-5.3
		c-0.4-1.6-0.9-3.3-1.3-4.9c-0.2-0.8-0.1-1.3,0.5-1.9c1-0.9,2-2,3.1-3.2c0.2-0.3,0.3-0.6,0.3-0.9c0-0.1,0-0.2,0.1-0.3l0.1-0.5
		l-0.5,0.1c-0.1,0-0.2,0-0.4,0c-0.4,0-0.8,0.1-1.1,0.3c-0.8,0.8-1.6,1.5-2.4,2.5c-0.2,0.2-0.4,0.4-0.6,0.7l-0.8-3.2l-0.4-1.8
		l0.6,0.4l1.1,0.9l0.3,0.3l0.2-0.4c0.4-1,0.3-1.2-1.8-3.9c0.3-0.2,0.5-0.4,0.8-0.7c0.9-0.8,1.8-1.6,2.7-2.5c0.3-0.3,0.4-0.8,0.6-1.2
		c0.1-0.2,0.1-0.4,0.2-0.5l0.3-0.8l-0.8,0.3c-0.1,0.1-0.3,0.1-0.5,0.2c-0.4,0.1-0.8,0.3-1.1,0.6c-0.9,0.8-1.7,1.7-2.7,2.7
		c-0.3,0.3-0.5,0.6-0.9,0.9l-1.4-5.5l0.2-0.1l0.3-0.1L76,110c0.1,0.1,0.1,0.1,0.2,0.2c0.4,0.4,1,0.9,1.5,1.3
		c0.2,0.2,0.5,0.2,0.8,0.2h0.1h0.1h0.2l0.4,0l-0.1-0.4c0-0.1,0-0.2,0-0.3c0-0.3,0-0.7-0.3-0.9c-0.4-0.4-1-0.9-1.6-1.4
		c-0.2-0.2-0.4-0.3-0.6-0.5c0.2-0.1,0.4-0.3,0.5-0.4c0.7-0.5,1.2-0.9,1.7-1.4c0.2-0.2,0.2-0.6,0.2-0.9c0-0.1,0-0.2,0-0.3l0.1-0.4
		l-0.4,0c-0.1,0-0.1,0-0.2,0c0,0-0.1,0-0.1,0c-0.1,0-0.1,0-0.2,0c-0.3,0-0.5,0-0.8,0.2c-0.5,0.4-0.9,1-1.4,1.5
		c-0.1,0.1-0.2,0.2-0.3,0.4l-1.6-1.4l-2-1.8c0.4-0.3,0.7-0.7,1.1-1.1c0.9-1,1.7-2,3.3-2h0.5L77,100c-0.6-1.4-1.6-2.4-2.6-3.3
		c-0.6-0.6-1.2-1.1-1.7-1.8l1.9-1.8l1.3-1.3l1.4,0.2l0.5,0.1l-0.1-0.5c0-0.1-0.1-0.3-0.1-0.4c-0.1-0.3-0.2-0.7-0.2-1
		c0-0.2,0-0.4,0.1-0.6c0-0.1,0-0.1,0-0.2l0-0.2L77.1,89l-2.8-1.4l2.5-2.2l1.9-1.8l0,0c0.3,0.4,0.6,1,1.1,1.4
		c0.3,0.3,0.7,0.3,1.1,0.3c0.1,0,0.3,0,0.4,0.1l0.5,0.1l-0.2-0.6c0-0.1-0.1-0.2-0.1-0.3c-0.1-0.3-0.1-0.7-0.4-1
		c-0.4-0.4-0.9-0.8-1.5-1.3c-0.2-0.1-0.3-0.3-0.5-0.4c0.2-0.2,0.4-0.4,0.6-0.6c0.8-0.7,1.4-1.3,2-1.9c0.2-0.2,0.3-0.6,0.3-0.9
		c0-0.1,0-0.2,0.1-0.3l0.1-0.5L82,78c-0.1,0-0.1,0-0.2,0c0,0-0.1,0-0.1,0c0,0-0.1,0-0.1,0c-0.3,0-0.6,0-0.9,0.2
		c-0.6,0.6-1.2,1.3-1.8,2c-0.2,0.2-0.3,0.4-0.5,0.6l-1.1-1.4h0.3c0.3,0,0.7,0,0.9-0.2c0.7-0.7,1.3-1.5,2-2.3
		c0.2-0.2,0.3-0.4,0.5-0.6c0.3,0.3,0.6,0.6,0.9,0.9c0.9,0.9,1.7,1.7,2.6,2.4c0.3,0.2,0.6,0.3,1,0.4c0.1,0,0.3,0.1,0.4,0.1l0.6,0.2
		l-0.2-0.6c0-0.1-0.1-0.2-0.1-0.4c-0.1-0.3-0.1-0.8-0.4-1c-0.1-0.1-0.2-0.2-0.2-0.2l0.3-0.1l1.4-0.5l0.4-0.1l1.5,0.6l0.8,0.3
		l0.8,0.3l-0.3-0.8L90,76.2l-0.5-1.1C89.9,74.5,90.3,74.4,90.5,74.4 M77.1,77.8C77,78.1,77,78.4,77,78.6v0.2l-0.4-0.5L77.1,77.8z
		 M72.6,106.6l1.4,1.7l-0.1,0.3l-0.5,1.4L72.6,106.6z M85.2,73.2c-1,0.4-1.9,0.9-3.3,1.5c1.5,1.4,2.7,2.4,3.9,3.6
		c0.3,0.3,0.3,0.9,0.4,1.3c-0.4-0.1-1-0.1-1.3-0.4c-1.2-1-2.3-2.2-3.8-3.6c-1,1.1-1.8,2.2-2.8,3.2c-0.2,0.2-0.7,0.1-1,0.2
		c0-0.3,0-0.8,0.1-1.1c0.3-0.5,0.8-0.9,1.2-1.3c-0.1-0.1-0.2-0.2-0.3-0.3c-0.9,0.7-1.7,1.5-2.3,2c0.8,1.1,1.5,1.9,2.4,3
		c1-1,1.7-2,2.6-2.8c0.1-0.1,0.4-0.1,0.6-0.1h0.3h0.2c-0.1,0.3-0.1,0.8-0.3,1c-0.9,0.9-1.8,1.7-3,2.7c1,0.8,1.7,1.3,2.3,1.9
		c0.2,0.3,0.2,0.8,0.3,1.2c-0.4-0.1-1,0-1.3-0.3c-0.6-0.6-1-1.4-1.3-1.8c-1.9,1.7-3.3,3-5.1,4.6c1.2,0.6,2.2,1.1,3.2,1.6
		c0,0.1-0.2,0.5-0.1,0.9c0.1,0.5,0.2,1,0.4,1.5c-0.5-0.1-1.1-0.2-1.5-0.2c-1.2,1.1-2.4,2.3-3.5,3.4c1.3,1.9,3.4,2.9,4.4,5.2
		c-2.7,0.1-3.4,2.4-4.9,3.4c1.4,1.3,2.7,2.4,4.2,3.7c0.7-0.8,1.3-1.5,1.9-2.1c0.1-0.1,0.3-0.1,0.5-0.1h0.3H79c0,0.3,0,0.8-0.2,1
		c-0.7,0.7-1.5,1.2-2.6,2.1c1.2,1,1.9,1.5,2.6,2.2c0.2,0.2,0.1,0.7,0.2,1c-0.1,0-0.1,0-0.2,0c-0.1,0-0.2,0-0.3,0
		c-0.2,0-0.4,0-0.5-0.1c-0.8-0.6-1.4-1.3-1.8-1.7c-1,0.3-1.6,0.5-2.3,0.7c0.3-0.7,0.5-1.4,0.7-2c-0.7-0.8-1.4-1.7-2.2-2.5
		c-0.1,0-0.1,0.1-0.2,0.1c0.9,3.5,1.7,7,2.7,10.9c1.6-1.6,2.7-2.9,3.9-4.1c0.4-0.4,1-0.5,1.5-0.7c-0.2,0.6-0.3,1.3-0.7,1.7
		c-1.2,1.2-2.5,2.3-3.7,3.4c2.3,3,2.3,3,1.9,3.9c-0.8-0.6-1.5-1.1-2.5-2c0.6,2.3,1.1,4.3,1.7,6.6c1.3-1.4,2.4-2.5,3.4-3.6
		c0.3-0.2,0.9-0.2,1.3-0.3c-0.1,0.4-0.1,0.9-0.3,1.2c-1,1.1-2,2.2-3.1,3.2c-0.7,0.7-0.9,1.3-0.6,2.2c1,3.4,1.8,6.9,2.7,10.3
		c0.4,1.3,0.9,2.6,1.5,3.8c0.6,1.2,1.4,1.8,2.3,1.8c0.6,0,1.3-0.3,2-0.9c0.9-0.7,1.7-1.6,2.3-2.5c1.4-2.3,2.7-4.6,3.8-7.1
		c4.5-10.7,6.8-21.9,7.5-33.5C100,94,99.9,87.9,97.7,82c-1.1-3-2.8-5.6-5.6-7.3c-0.6-0.3-1.1-0.6-1.5-0.6c-0.6,0-1,0.3-1.4,1.1
		c0.4,1,0.8,1.8,1.1,2.6c-0.8-0.3-1.6-0.7-2.5-1c-0.5,0.2-1.2,0.4-1.9,0.7c0.2-0.7,0.4-1.5,0.7-2.3C86.3,74.6,85.8,74,85.2,73.2
		L85.2,73.2z"/>
</g>
<g class="st10">
	<path class="st11" d="M72.7,85.9c-0.3-0.2-0.6-0.4-0.6-0.8c-0.1-0.4,0-1,0.5-1.7c0.5-0.8,1.1-1.7,1.6-2.6c0.2-0.3,0.4-0.7,0.6-1
		l1.9,2.2L72.7,85.9z"/>
	<path d="M74.8,80.2l1,1.2l0.6,0.7l-3.7,3.6c-0.2-0.2-0.4-0.4-0.5-0.6c-0.1-0.4,0-0.9,0.4-1.5c0.5-0.9,1.1-1.7,1.6-2.6
		C74.4,80.7,74.6,80.4,74.8,80.2 M74.7,79.6c-0.8,1.3-1.6,2.6-2.4,3.8c-0.8,1.2-0.7,2.2,0.4,2.8c1.6-1.5,2.9-2.9,4.1-4.1
		C76.3,81.4,75.6,80.6,74.7,79.6L74.7,79.6z"/>
</g>
<g class="st10">
	<path class="st11" d="M70.9,93.3c0-0.3,0-0.6,0-0.9c0-0.9,0.1-1.8,0.3-2.5c0.1-0.3,0.6-0.5,1.2-0.7c0.3-0.1,0.6-0.2,0.9-0.4
		l1.2,1.8c-0.2,0.2-0.4,0.4-0.6,0.6c-0.7,0.7-1.4,1.3-2.2,2c-0.1,0.1-0.4,0.2-0.7,0.2C71,93.3,70.9,93.3,70.9,93.3L70.9,93.3z"/>
	<path d="M73.2,89l1,1.5c-0.2,0.1-0.3,0.3-0.5,0.5c-0.7,0.7-1.4,1.3-2.2,2C71.5,93,71.2,93,71,93.1c0-0.2,0-0.4,0-0.7
		c0-0.9,0.1-1.7,0.3-2.5c0.1-0.2,0.6-0.4,1.1-0.6C72.7,89.2,72.9,89.1,73.2,89 M73.3,88.5c-1,0.6-2,0.8-2.2,1.3
		c-0.4,1.1-0.3,2.4-0.4,3.7c0.4-0.1,0.9-0.1,1.1-0.3c1-0.9,2-1.8,2.9-2.6C74,89.6,73.6,89,73.3,88.5L73.3,88.5z"/>
</g>
<g class="st10">
	<path class="st11" d="M71.4,101.4c0-0.3-0.1-0.5-0.1-0.8c-0.3-1.4-0.5-2.9-0.4-4.4l0.3-0.1l2.6,3.3L71.4,101.4z"/>
	<path d="M71,96.3l0.2,0.2l2.3,2.8l-0.8,0.7l-1.2,1.1c0-0.2-0.1-0.3-0.1-0.5C71.1,99.1,70.8,97.7,71,96.3L71,96.3z M71.1,95.9
		c-0.2,0.1-0.3,0.1-0.5,0.2c-0.2,1.9,0.3,3.7,0.6,5.6c1.1-0.9,2.1-1.8,2.7-2.3C72.9,98.1,72,97,71.1,95.9z"/>
</g>
<g class="st10">
	<path class="st11" d="M86.3,60.9c-3.8,0-7.4-1.6-10.9-4.8c0.4-0.4,0.6-0.8,0.6-1.2c0-0.5-0.4-0.9-0.8-1.3c-0.4-0.4-0.9-0.8-0.9-1.3
		l0.7-0.7c0.7-0.7,1.5-1.4,2.3-2.2c0.4-0.4,0.7-0.8,0.7-1.1c0-0.3-0.2-0.7-0.7-1c-1-0.7-1.8-1.6-2.1-2.1l5.6-5.9l-0.2-0.2l1.6,0.3
		l-0.2-0.3c-0.1-0.2-0.1-0.3-0.2-0.5c-0.2-0.4-0.3-0.8-0.6-1.1c-0.6-0.6-1.2-1.2-1.8-1.8c-0.2-0.2-0.4-0.4-0.7-0.6l3.7-3.6l5.2,4.9
		l1-0.7l-1.5-2.3l2.6-2.3l1.5,1.7c-0.1,0.1-0.3,0.3-0.4,0.6c-0.1,0.3-0.1,0.6-0.1,0.9c0,0.1,0,0.2,0,0.3l0,0.2l0.2,0
		c0.1,0,0.2,0,0.3-0.1c0.2,0,0.5-0.1,0.8-0.2c0.2-0.1,0.3-0.1,0.4-0.2c0.2-0.1,0.3-0.2,0.5-0.2c0.1,0,0.2,0,0.3,0c0.2,0,0.3,0,0.5,0
		c0.1,0,0.3,0,0.4,0h0.2l-0.4-1.5l1-1.2c5.3,3.7,7.6,8.7,7,14.7c-0.7,6.8-4.3,11.6-10.4,13.8C89.7,60.6,88,60.9,86.3,60.9L86.3,60.9
		z"/>
	<path d="M89.5,31.4l0.7,0.8l0.5,0.6c-0.1,0.1-0.2,0.3-0.3,0.5c-0.1,0.3-0.1,0.6-0.2,0.9c0,0.1,0,0.2,0,0.3L90.2,35l0.5-0.1
		c0.1,0,0.2,0,0.3-0.1c0.2,0,0.5-0.1,0.8-0.2c0.2-0.1,0.3-0.2,0.5-0.2c0.2-0.1,0.3-0.2,0.4-0.2c0.1,0,0.2,0,0.3,0c0.2,0,0.3,0,0.5,0
		c0.1,0,0.3,0,0.4,0l0.5,0l-0.1-0.4L94,32.6l0.9-1c5.1,3.7,7.4,8.6,6.8,14.5c-0.7,6.8-4.3,11.5-10.3,13.7c-1.7,0.6-3.4,0.9-5.1,0.9
		c-3.7,0-7.2-1.5-10.6-4.6c0.4-0.4,0.6-0.8,0.6-1.2c0-0.6-0.4-1-0.9-1.4c-0.4-0.3-0.7-0.7-0.8-1.2c0.2-0.2,0.4-0.4,0.6-0.6
		c0.7-0.7,1.5-1.4,2.3-2.2c0.4-0.3,0.7-0.8,0.7-1.3c0-0.4-0.3-0.8-0.8-1.1c-0.9-0.7-1.6-1.5-2-2l5.4-5.6l0.2-0.2
		c0.1,0,0.3,0.1,0.4,0.1l0.4,0.1l0.7,0.1L82.2,39c-0.1-0.1-0.1-0.3-0.2-0.5c-0.2-0.4-0.3-0.8-0.6-1.1c-0.6-0.6-1.2-1.2-1.8-1.8
		c-0.2-0.2-0.4-0.3-0.5-0.5l3.4-3.4l4.3,4.1l0.6,0.6l0.2,0.2l0.2-0.2l0.6-0.4l0.1-0.1l0.3-0.2l-0.2-0.3l-1.4-2L89.5,31.4z
		 M89.5,30.9c-1,0.9-1.9,1.7-2.8,2.5c0.6,0.9,1.1,1.6,1.5,2.3c-0.2,0.2-0.5,0.3-0.7,0.5c-1.7-1.7-3.5-3.3-5.1-4.9
		c-1.3,1.3-2.6,2.5-3.9,3.9c0.9,0.9,1.8,1.7,2.7,2.5c0.4,0.4,0.5,1,0.8,1.5c-0.5-0.1-1.1-0.2-1.6-0.3c-0.1,0-0.1,0-0.2,0
		c0.2,0.2,0.3,0.3,0.5,0.5c-1.9,2-3.7,3.9-5.6,5.8c0.3,0.5,1.2,1.5,2.2,2.3c1,0.7,0.7,1.2,0,1.9c-1.1,1-2.2,2.1-3,2.9
		c0,1.7,3,2,0.9,3.9c3.3,3.1,7,5,11.1,5c1.7,0,3.4-0.3,5.2-1c6.4-2.3,9.8-7.3,10.5-14c0.7-6.4-1.9-11.3-7.1-15
		c-0.4,0.5-0.8,1-1.2,1.4c0.1,0.5,0.2,1,0.4,1.4c-0.3,0-0.6-0.1-0.9-0.1c-0.1,0-0.2,0-0.4,0c-0.3,0.1-0.6,0.3-1,0.5
		c-0.3,0.1-0.7,0.1-1,0.2c0.1-0.4,0-0.8,0.2-1.2c0.1-0.3,0.4-0.5,0.4-0.6C90.6,32,90,31.4,89.5,30.9L89.5,30.9z"/>
</g>
<g class="st10">
	<path class="st11" d="M73,51.4c-2.2-1.8-2.1-4.3-2.1-6.8c0-0.3,0-0.7,0-1l5,4.8L73,51.4z"/>
	<path d="M71.1,43.9l1.7,1.7l2.9,2.8L73,51.1c-2-1.8-1.9-4-1.9-6.6C71.1,44.3,71.1,44.1,71.1,43.9 M70.7,43.2c0,3.2-0.4,6.2,2.3,8.5
		c1.1-1.1,2.1-2.1,3.2-3.2C74.4,46.7,72.6,45,70.7,43.2L70.7,43.2z"/>
</g>
<g class="st10">
	<path class="st11" d="M73.1,37.2l2.3-3l3.6,3.4l-2.7,2.8L73.1,37.2z"/>
	<path d="M75.3,34.5l0.8,0.8l2.5,2.4l-1.7,1.8l-0.7,0.8l-2.4-2.4l-0.6-0.6l1.6-2.1L75.3,34.5z M75.3,34c-0.9,1.1-1.8,2.3-2.5,3.2
		c1.3,1.3,2.3,2.4,3.4,3.5c1-1,1.9-2,3-3.1C78,36.5,76.7,35.3,75.3,34L75.3,34z"/>
</g>
<g class="st10">
	<path class="st11" d="M83.8,29.7l4.4-0.4l0.1,0.3l-2.7,2.4L83.8,29.7z"/>
	<path d="M88.1,29.5L88.1,29.5l-2,1.9l-0.4,0.4l-0.9-1.1l-0.6-0.8L88.1,29.5z M88.3,29.1c-1.7,0.2-3.4,0.3-4.8,0.5
		c0.8,1,1.5,1.9,2.2,2.6c1-0.9,1.9-1.8,2.9-2.6C88.4,29.4,88.4,29.3,88.3,29.1L88.3,29.1z"/>
</g>
<g class="st10">
	<path class="st11" d="M71.2,41.8l0.9-2.5l2.6,2.6l-1.3,1.3L71.2,41.8z"/>
	<path d="M72.1,39.6l0.9,0.9l1.4,1.4l-0.6,0.6l-0.4,0.4l-1.1-0.7l-0.8-0.5v0L72.1,39.6z M72,39c-0.3,1.1-0.7,2.1-1,2.9
		c0.9,0.6,1.6,1.1,2.4,1.5c0.5-0.5,1.1-1,1.5-1.5C74,41,73,40,72,39z"/>
</g>
<g class="st10">
	<path class="st11" d="M77,32.8l2.7-1.6c-0.7,1-1.4,1.9-2.4,2.4L77,32.8z"/>
	<path d="M79.1,31.8c-0.5,0.7-1,1.2-1.6,1.6l-0.2-0.5l1.5-0.9L79.1,31.8z M80.3,30.6c-1.2,0.7-2.4,1.4-3.6,2.1
		c0.2,0.4,0.4,0.7,0.5,1.1C78.6,33.2,79.4,31.9,80.3,30.6L80.3,30.6z"/>
</g>
<g class="st10">
	<path class="st11" d="M91.3,29.9l2,0.7l-0.7,0.8L91.3,29.9z"/>
	<path d="M91.8,30.3l1.2,0.4L92.8,31l-0.1,0.2L91.8,30.3z M90.7,29.5c0.8,0.8,1.3,1.4,1.9,2.2c0.3-0.4,0.6-0.7,1-1.2
		C92.6,30.2,91.8,29.9,90.7,29.5z"/>
</g>
<path class="st6" d="M14.6,45.6c1.5-0.5,3.1,0.4,3.5,1.8c0.5,1.5-0.4,3-1.8,3.5c-1.5,0.5-3.1-0.4-3.5-1.8
	C12.3,47.6,13.1,46.1,14.6,45.6z"/>
<path class="st7" d="M51.1,123.5c2.2-0.6,4.5,0.6,5.2,2.8c0.6,2.2-0.6,4.5-2.8,5.2c-2.2,0.6-4.5-0.6-5.2-2.8
	C47.6,126.5,48.9,124.1,51.1,123.5z"/>
<path class="st7" d="M147.8,55.1c2.2-0.6,4.5,0.6,5.2,2.8c0.6,2.2-0.6,4.5-2.8,5.2c-2.2,0.6-4.5-0.6-5.2-2.8S145.6,55.8,147.8,55.1z
	"/>
<path class="st6" d="M122.4,122c1.5-0.5,3,0.4,3.5,1.8c0.5,1.5-0.4,3-1.8,3.5s-3-0.4-3.5-1.8C120.2,124,121,122.4,122.4,122z"/>
<path class="st8" d="M19.4,48.1c-0.7-2.2-3-3.5-5.2-2.8c-2.2,0.7-3.5,3-2.8,5.2c0.7,2.2,3,3.5,5.2,2.8
	C18.8,52.6,20.1,50.3,19.4,48.1z M16.7,48.9c0.2,0.7-0.2,1.5-0.9,1.7c-0.7,0.2-1.5-0.2-1.7-0.9c-0.2-0.7,0.2-1.5,0.9-1.7
	C15.7,47.7,16.5,48.2,16.7,48.9z"/>
<path class="st9" d="M57.6,125.9c-0.9-2.9-4-4.6-6.9-3.7c-2.9,0.9-4.6,4-3.7,6.9c0.9,2.9,4,4.6,6.9,3.7
	C56.9,131.9,58.5,128.8,57.6,125.9z M55,126.7c0.5,1.5-0.4,3-1.8,3.5c-1.5,0.5-3-0.4-3.5-1.8c-0.5-1.5,0.4-3,1.8-3.5
	C53,124.3,54.5,125.2,55,126.7z"/>
<path class="st9" d="M143.7,60.7c0.9,2.9,4,4.6,6.9,3.7c2.9-0.9,4.6-4,3.7-6.9c-0.9-2.9-4-4.6-6.9-3.7
	C144.5,54.7,142.8,57.8,143.7,60.7z M146.3,59.9c-0.5-1.5,0.4-3,1.8-3.5c1.5-0.5,3,0.4,3.5,1.8c0.5,1.5-0.4,3-1.8,3.5
	C148.3,62.2,146.8,61.4,146.3,59.9z"/>
<path class="st8" d="M119.3,125.9c0.7,2.2,3,3.5,5.2,2.8c2.2-0.7,3.5-3,2.8-5.2c-0.7-2.2-3-3.5-5.2-2.8
	C119.9,121.3,118.6,123.6,119.3,125.9z M121.9,125c-0.2-0.7,0.2-1.5,0.9-1.7c0.7-0.2,1.5,0.2,1.7,0.9c0.2,0.7-0.2,1.5-0.9,1.7
	C122.9,126.2,122.2,125.8,121.9,125z"/>
</svg>
