<?xml version="1.0" encoding="utf-8"?>
<!-- Generator: Adobe Illustrator 22.1.0, SVG Export Plug-In . SVG Version: 6.00 Build 0)  -->
<svg version="1.1" id="Calque_1" xmlns="http://www.w3.org/2000/svg" x="0px" y="0px"
     viewBox="0 0 516 520" style="enable-background:new 0 0 516 520;" xml:space="preserve">
<style type="text/css">
	.st0{fill:#FF949A;}
	.st1{fill:url(#SVGID_1_);}
	.st2{fill:#FFFFFF;}
	.st3{fill:url(#SVGID_2_);}
	.st4{fill:url(#SVGID_3_);}
	.st5{fill:url(#SVGID_4_);}
	.st6{fill:#FFFFFF;stroke:#FFFFFF;stroke-width:10;stroke-miterlimit:10;}
	.st7{fill:url(#SVGID_5_);}
	.st8{opacity:0.66;}
	.st9{fill:#4FBDD7;}
</style>
<g>
	<path class="st0" d="M485.1,212.8c3.2,3.5,5.9,6.5,9.1,10c-3.5,3.3-7,6.4-10.2,9.7c-1.1,1.1-1.4,2.9-2,4.4c1.6-0.6,3.6-0.9,4.8-2
		c3.3-3,6.3-6.3,10.6-10.8c1.1,8.3,2,15.2,2.9,22.1c-0.6,0.2-1.2,0.4-1.8,0.7c-2.2-2.1-4.3-4.4-6.7-6.3c-1.1-0.8-2.8-0.8-4.2-1.2
		c0.4,1.3,0.6,2.8,1.4,3.7c2.1,2.1,4.5,3.9,7.4,6.4c-3.9,3.7-7.1,6.7-10.1,9.7c-4.1,4.1-4.1,7.1-0.1,11.2c2.1,2.1,4.2,4.3,6.3,6.4
		c0.2,0.2,0.4,0.5,1.2,1.6c-4,3.5-8.1,7-12.2,10.5c-0.1-0.2-0.2-0.4-0.3-0.6c-1.7,2.4-3.4,4.7-4.9,7.2c-0.5,0.9-0.4,2.2-0.5,3.4
		c1-0.2,2.3-0.1,3.1-0.7c1.6-1.2,2.9-2.7,4.8-4.5c4.4,4.5,8.8,8.8,12.9,13.4c0.9,1,1.1,3,0.9,4.4c-1.3,6.9-2.8,13.7-4.1,19.7
		c-4.2-4-8.5-8.2-13.3-12.9c2.6-2.4,6.2-5.6,9.5-9.1c1.2-1.2,1.6-3.2,2.3-4.8c-1.6,0.7-3.7,0.9-4.8,2c-3.5,3.3-6.6,7-9.8,10.6
		c-0.2-0.4-0.4-0.9-0.6-1.3c-1.9-0.5-3.8-0.9-5.7-1.4c0.5,1.8,1,3.7,1.9,6.9c-3,2.8-7,6.3-10.7,10.1c-0.9,1-1.1,2.7-1.6,4.1
		c1.4-0.4,3.1-0.5,4.1-1.4c3.8-3.7,7.4-7.6,12-12.4c4.7,5.1,9.1,9.7,13.2,14.4c0.7,0.8,1.1,2.5,0.7,3.5c-2.6,7.9-5.5,15.7-8.5,24.1
		c-1.7-1.6-2.9-2.7-4.3-4c1.5-1.7,3-3,4.2-4.6c0.5-0.6,0.3-1.7,0.4-2.6c-1,0-2.3-0.4-3.1,0.1c-1.5,1-2.7,2.4-4.3,4
		c-1.1-1-2.1-1.9-4.1-3.7c3-2.5,5.8-4.7,8.2-7.1c0.7-0.7,0.6-2.2,0.8-3.4c-1.2,0.3-2.7,0.1-3.4,0.8c-2.4,2.5-4.6,5.3-8,9.3
		c-2.3-3.2-3.6-5.4-5.4-7.1c-0.8-0.8-2.5-0.6-3.8-0.9c0.3,1.2,0.3,2.6,1.1,3.4c1.7,1.8,3.8,3.2,5.6,4.7
		c-6.2,6.1-11.7,11.5-18.3,18.1c-1.4-1.8-3-4.2-4.9-6.2c-0.5-0.6-1.9-0.3-2.9-0.4c0.1,1-0.1,2.4,0.5,3c1.8,1.9,3.9,3.6,5.5,5
		c-6,5.9-11.5,11.4-18.2,18c-0.6-0.9-1.5-2.8-3-4.4c-0.7-0.8-2.2-0.8-3.4-1.2c0.2,1.3,0.1,3,0.8,3.8c4.3,4.6,8.8,9,13.3,13.4
		c0.7,0.7,1.3,1.5,2.1,2.4c-3.9,3.7-7.7,7.4-11.5,11c-1.7-1.9-3.5-4-5.3-6.1c-0.7-0.3-1.4-0.7-2.1-1c2.2-1.5,4.6-2.8,6.6-4.5
		c0.7-0.6,0.4-2.2,0.5-3.4c-1,0.2-2.4,0.1-3,0.7c-1.8,2-3.3,4.2-5.4,7.1c-3.5-3.9-5.7-6.6-8.3-9c-1.2-1.1-3.2-1.4-4.8-2
		c0.7,1.6,1.2,3.6,2.3,4.9c2.2,2.4,4.9,4.5,7.6,6.9c-4.9,4.3-9.2,8.1-14.5,12.8c-2-2.3-4.8-5.7-7.8-8.8c-0.7-0.7-2.2-0.7-3.4-1.1
		c0.2,1.3,0.1,3,0.8,3.8c2.8,3,6,5.8,8.6,8.3c-6.3,6.2-12.1,12-18.1,17.9c-1.4-1.6-3.4-3.8-5.4-6c-0.6-0.4-1.2-0.7-1.8-1.1
		c2-1.4,4.2-2.6,6-4.3c0.8-0.8,0.6-2.5,0.9-3.8c-1.2,0.3-2.5,0.4-3.4,1.1c-2.7,1.8-5.2,3.9-8.5,6.4c-1.5,6.8-9.5,9.7-13,15.3
		c-2.7-0.6-4.7-1.1-6.7-1.6c0.6,1.7,1.1,3.5,1.7,5.2c-3.7,3.8-7.7,7.9-12.1,12.3c-1.2-1.2-2.6-2.5-4.9-4.6
		c4.5-4.2,8.6-7.8,12.5-11.6c0.8-0.8,0.8-2.4,1.1-3.7c-1.3,0.3-2.9,0.2-3.7,1c-3,2.6-5.6,5.7-8.6,8.4c-1.7,1.5-3.8,2.5-5.9,3.8
		c-1.5,2.2-3,5-5.1,7.3c-5.1,5.5-10.4,10.7-16,16.4c-3.7-4.3-7.2-8.3-11.8-13.8c0.7-0.5,3-1.4,4.6-3c1-1,1.1-2.9,1.5-4.4
		c-1.4,0.5-3.1,0.7-4.1,1.6c-6.6,6.3-13.1,12.9-19.6,19.3c-0.7,0.7-1.4,1.4-2.8,2.6c-2.9-3.3-5.4-6.6-8.5-9.5c-0.9-0.9-4-1-4.8-0.2
		c-4.3,4.3-8.2,9-12.3,13.7c-2.1-2.3-3.8-4.3-5.9-6.7c0.6-0.7,2-1.9,3-3.3c0.6-0.9,0.7-2.2,1-3.4c-1.2,0.3-2.9,0.1-3.7,0.8
		c-5.9,5.6-11.6,11.5-17.4,17.2c-0.8,0.8-1.7,1.6-2.8,2.6c-3.3-3.6-6.6-7.1-11-11.9c3.1-2.7,6.9-5.6,10.3-9c1.4-1.4,1.8-3.6,2.7-5.5
		c-1.9,1-4.1,1.6-5.6,3c-7.1,6.8-13.9,13.9-21.3,21.2c-1.7-1.6-3.1-3.2-4.8-4.4c-0.8-0.6-2-0.5-3.1-0.7c0.2,1.1,0,2.6,0.6,3.3
		c1.1,1.4,2.8,2.4,4,3.3c-1.3,4.5-3.7,3.8-6.5,3.1c-43.1-11.4-79.3-34.2-109.3-66.8c-34.1-37.1-56.1-80.4-62.9-130.7
		c-5.4-39.7-0.1-78.5,14.6-115.7c26.8-67.9,73.5-117,142-143.2c71-27.1,140.4-20.7,206.4,16.6c56.9,32.1,93.8,80.7,112.3,143.3
		C494,208.9,493.3,210,485.1,212.8z"/>
</g>
<g id="qTziUK.tif">
	<g>
		<path d="M252.5,513.8C116.7,513.7,29.4,410.7,11,313c-10.6-56.2-1-109.6,25.6-159.6C72.4,86.1,127.4,42,201.8,23.6
			c100.1-24.8,211,19.9,266.6,106.6c12.9,20.2,22.9,41.7,29.9,64.6c0.7,2.2,2.7,4.1,3.3,6.3c0.6,2.4,0.2,5,0.5,7.5
			c2,13.3,5.1,26.5,6,39.9c5,76-18.6,141.5-74.2,194.2c-39.7,37.7-87.7,59.1-141.7,67.2C279,511.9,265.7,512.6,252.5,513.8z
			 M485.1,211.8c8.2-2.7,8.9-3.8,6.7-11.1C473.4,138,436.5,89.5,379.6,57.3c-66-37.3-135.4-43.7-206.4-16.6
			C104.7,66.9,58,116,31.2,183.9c-14.7,37.2-20,76-14.6,115.7c6.8,50.2,28.8,93.5,62.9,130.7c30,32.6,66.2,55.4,109.3,66.8
			c2.7,0.7,5.2,1.4,6.5-3.1c-1.2-1-2.9-1.9-4-3.3c-0.6-0.8-0.4-2.2-0.6-3.3c1,0.2,2.3,0.1,3.1,0.7c1.7,1.2,3.1,2.8,4.8,4.4
			c7.3-7.4,14.2-14.4,21.3-21.2c1.5-1.4,3.7-2,5.6-3c-0.9,1.9-1.4,4.1-2.7,5.5c-3.4,3.4-7.2,6.3-10.3,9c4.4,4.8,7.6,8.3,11,11.9
			c1.1-1,2-1.7,2.8-2.6c5.8-5.8,11.5-11.6,17.4-17.2c0.8-0.7,2.4-0.6,3.7-0.8c-0.3,1.1-0.4,2.5-1,3.4c-1,1.4-2.3,2.6-3,3.3
			c2.1,2.4,3.9,4.3,5.9,6.7c4.1-4.7,8-9.4,12.3-13.7c0.8-0.8,3.9-0.7,4.8,0.2c3.1,2.8,5.7,6.2,8.5,9.5c1.3-1.3,2.1-1.9,2.8-2.6
			c6.5-6.5,13-13,19.6-19.3c1-0.9,2.7-1.1,4.1-1.6c-0.5,1.5-0.6,3.4-1.5,4.4c-1.6,1.6-3.9,2.6-4.6,3c4.7,5.4,8.1,9.4,11.8,13.8
			c5.6-5.7,10.9-10.9,16-16.4c2.1-2.2,3.6-5,5.1-7.3c2.1-1.3,4.2-2.3,5.9-3.8c3-2.6,5.6-5.7,8.6-8.4c0.9-0.8,2.5-0.7,3.7-1
			c-0.4,1.3-0.3,2.9-1.1,3.7c-3.9,3.8-8,7.5-12.5,11.6c2.2,2.1,3.6,3.5,4.9,4.6c4.4-4.5,8.4-8.6,12.1-12.3c-0.6-1.7-1.1-3.4-1.7-5.2
			c2,0.5,4,0.9,6.7,1.6c3.5-5.6,11.6-8.5,13-15.3c3.3-2.5,5.8-4.6,8.5-6.4c0.9-0.6,2.3-0.7,3.4-1.1c-0.3,1.3-0.1,3-0.9,3.8
			c-1.7,1.7-3.9,2.9-6,4.3c0.6,0.4,1.2,0.7,1.8,1.1c2,2.2,4,4.4,5.4,6c6-5.9,11.8-11.7,18.1-17.9c-2.7-2.5-5.8-5.3-8.6-8.3
			c-0.8-0.8-0.6-2.5-0.8-3.8c1.1,0.3,2.7,0.3,3.4,1.1c3,3.1,5.7,6.4,7.8,8.8c5.3-4.6,9.6-8.4,14.5-12.8c-2.7-2.4-5.4-4.5-7.6-6.9
			c-1.2-1.3-1.6-3.2-2.3-4.9c1.6,0.6,3.6,0.9,4.8,2c2.6,2.3,4.8,5.1,8.3,9c2.1-2.8,3.6-5.1,5.4-7.1c0.6-0.6,2-0.5,3-0.7
			c-0.1,1.2,0.1,2.8-0.5,3.4c-2,1.7-4.4,3-6.6,4.5c0.7,0.3,1.4,0.7,2.1,1c1.8,2.1,3.7,4.2,5.3,6.1c3.8-3.7,7.6-7.3,11.5-11
			c-0.8-0.9-1.5-1.7-2.1-2.4c-4.4-4.5-9-8.8-13.3-13.4c-0.8-0.8-0.6-2.5-0.8-3.8c1.2,0.4,2.7,0.4,3.4,1.2c1.4,1.6,2.4,3.6,3,4.4
			c6.7-6.6,12.2-12.1,18.2-18c-1.6-1.4-3.7-3-5.5-5c-0.6-0.6-0.3-2-0.5-3c1,0.1,2.4-0.2,2.9,0.4c1.9,2.1,3.5,4.4,4.9,6.2
			c6.6-6.5,12.1-11.9,18.3-18.1c-1.8-1.5-3.9-2.9-5.6-4.7c-0.7-0.8-0.7-2.3-1.1-3.4c1.3,0.3,3,0.1,3.8,0.9c1.7,1.7,3,3.9,5.4,7.1
			c3.4-4,5.5-6.8,8-9.3c0.7-0.7,2.2-0.6,3.4-0.8c-0.2,1.2-0.1,2.7-0.8,3.4c-2.5,2.4-5.2,4.6-8.2,7.1c2,1.8,3,2.7,4.1,3.7
			c1.6-1.5,2.8-3,4.3-4c0.7-0.5,2-0.1,3.1-0.1c-0.1,0.9,0,2-0.4,2.6c-1.2,1.6-2.6,2.9-4.2,4.6c1.4,1.3,2.5,2.4,4.3,4
			c3-8.4,5.9-16.2,8.5-24.1c0.3-1,0-2.7-0.7-3.5c-4.1-4.7-8.5-9.3-13.2-14.4c-4.6,4.8-8.2,8.7-12,12.4c-0.9,0.9-2.7,0.9-4.1,1.4
			c0.5-1.4,0.6-3.2,1.6-4.1c3.7-3.8,7.7-7.3,10.7-10.1c-0.9-3.2-1.4-5.1-1.9-6.9c1.9,0.5,3.8,0.9,5.7,1.4c0.2,0.4,0.4,0.9,0.6,1.3
			c3.2-3.5,6.4-7.2,9.8-10.6c1.2-1.1,3.2-1.4,4.8-2c-0.8,1.6-1.2,3.6-2.3,4.8c-3.3,3.5-6.9,6.6-9.5,9.1c4.9,4.7,9.2,8.9,13.3,12.9
			c1.3-6,2.8-12.8,4.1-19.7c0.3-1.4,0-3.4-0.9-4.4c-4.1-4.5-8.4-8.8-12.9-13.4c-1.9,1.8-3.2,3.3-4.8,4.5c-0.8,0.6-2,0.5-3.1,0.7
			c0.2-1.1,0-2.5,0.5-3.4c1.5-2.5,3.2-4.8,4.9-7.2c0.1,0.2,0.2,0.4,0.3,0.6c4.1-3.5,8.2-7,12.2-10.5c-0.8-1.1-0.9-1.4-1.2-1.6
			c-2.1-2.1-4.2-4.3-6.3-6.4c-4-4.1-4-7.1,0.1-11.2c3-3,6.2-6,10.1-9.7c-2.9-2.5-5.3-4.3-7.4-6.4c-0.8-0.9-1-2.5-1.4-3.7
			c1.4,0.4,3.1,0.4,4.2,1.2c2.4,1.9,4.5,4.1,6.7,6.3c0.6-0.2,1.2-0.4,1.8-0.7c-0.9-6.9-1.8-13.8-2.9-22.1
			c-4.3,4.4-7.3,7.8-10.6,10.8c-1.2,1.1-3.1,1.3-4.8,2c0.6-1.5,1-3.3,2-4.4c3.2-3.4,6.7-6.4,10.2-9.7
			C491,218.3,488.3,215.3,485.1,211.8z M226.3,497.6c3.3,2.9,4.8,7.2,10.7,7.4c65.8,2.7,125-15.1,177.2-55.4
			c7.6-5.9,14.5-12.6,21.6-18.8c-3.7-3.6-6.9-6.7-9.3-9c-4,3.9-8.1,7.8-12.6,12.2c1.5,1.3,3.3,2.8,4.9,4.5c0.6,0.7,0.6,2,0.8,3
			c-1.2-0.2-2.6,0.1-3.4-0.5c-2-1.4-3.7-3.3-4.7-4.2c-6.1,5.9-12,11.7-17.9,17.5c0.8,0.8,2.1,1.8,2.7,3.1c0.3,0.7-0.6,1.9-1,2.9
			c-2.8-1.7-5.9-3.1-8.3-5.3c-2.4-2.2-3.9-5.3-5.6-7.8c-5.4,5.2-10.1,9.9-15.5,15.2c2.7,2.4,5.6,4.7,8.1,7.3
			c0.7,0.7,0.4,2.2,0.6,3.4c-1-0.2-2.3-0.2-3-0.8c-2.8-2.4-5.3-5-8-7.4c-4.2,4.2-8.3,8.3-12,12c0.5,1.8,0.9,3.6,1.4,5.3
			c-1.7-0.8-3.9-1.2-5.1-2.4c-3.2-3.3-6-7-9.2-10.8c-6.9,7-12.5,12.5-17.8,18.2c-1.8,1.9-3,4.5-5,7.4c-1.2,0.1-3.4,0.2-4.4,0.2
			c-1.6-3.3-2.8-5.8-4.7-9.8c-4.4,4.9-7.6,8.7-11.1,12.2c-0.9,0.9-2.7,0.8-4,1.1c0.4-1.3,0.5-2.8,1.3-3.7c3.6-3.6,7.4-7,10.5-9.9
			c-4.4-4.6-8.1-8.3-11.8-12.1c-4.2,4.3-8.7,8.7-14.1,14.2c2.9,2.4,5.9,4.8,8.6,7.4c0.7,0.7,0.7,2.2,1,3.3c-1.3-0.2-3-0.1-3.8-0.8
			c-2.8-2.5-5.2-5.4-7.2-7.5c-5.9,5.2-11,9.8-17.2,15.3c-3.2-4-6.5-8.1-10.1-12.7c-3.3,3.6-5.5,6.1-7.9,8.4
			c-0.8,0.7-2.2,0.7-3.3,1.1c0.2-1.3,0-2.9,0.7-3.7c2.2-2.6,4.7-5,6.4-6.7c-1.9-2.6-3.5-4.7-4.8-6.5
			C235.3,489,230.8,493.2,226.3,497.6z M468.8,387.9c3.7-7,7.5-14.1,11.1-21c-1.8-2.1-3.2-3.9-5-6.1c-4.4,4.5-8.1,8.5-12.1,12.2
			c-1,0.9-2.7,1.1-4.1,1.6c0.4-1.4,0.5-3.1,1.4-4.1c3.5-3.8,7.2-7.4,10.9-11c0.3-0.3,0.5-0.8,0.9-1.4c-1.1-0.9-2.2-1.8-2.5-2.1
			c-5.9,5.6-11.4,10.8-16.6,15.8C457.9,377,463.2,382.3,468.8,387.9z M449.8,375.5c-5.9,5.8-11.3,11.2-16.8,16.6
			c2.4,2.3,5.1,4.9,8.3,7.9c5.1-5.6,10.4-11.3,15.6-17C454.8,380.7,452.2,378,449.8,375.5z M453,410.8c4-5.7,8.6-12.2,12.7-18
			c-2.2-2.6-3.9-4.7-4.9-5.9c-5.9,5.4-11.5,10.5-17.6,15.9C446.6,405.6,449.6,408,453,410.8z M389.2,450
			c6.2-6.2,11.9-11.9,17.8-17.8c-1.6-1.6-3.5-3.6-4.7-4.9c-6.1,6.1-11.9,11.9-17.7,17.7C385.9,446.5,387.7,448.4,389.2,450z
			 M441.2,406.5c-4.2,3.9-8.1,7.4-11.4,10.3c3.2,3.3,6.2,6.5,9.4,9.9c3.4-3.9,7-8,10.6-12.1C446.7,411.6,443.8,408.9,441.2,406.5z
			 M376.8,444c-1.7-2-3.8-4.4-5.6-6.4c-5.1,5-9.7,9.5-14.7,14.4c2.2,2,4.5,4,6.5,5.9C367.7,453.2,372.3,448.6,376.8,444z M331.5,463
			c-7.4,7.4-14.2,14.2-21.1,21.2c0.9,1.1,2.2,2.5,2.9,3.4c7.3-7.3,14.2-14.2,21.2-21.1C333.5,465.4,332.2,463.9,331.5,463z
			 M259.5,498.1c4.5-4.3,8.5-8.2,12.5-12.1c-2.7-2.7-5.4-5.3-7.7-7.6c-4,4-8,8-12.2,12.2C254.4,493,256.9,495.5,259.5,498.1z
			 M496.6,274.6c1.8-2.6,4.1-4.4,4.3-6.5c0.6-4.2,0.2-8.6-0.1-12.9c-0.2-2.6-1.8-4.2-4.2-2c-3.7,3.5-6.9,7.3-9.6,10.2
			C490,266.9,493,270.4,496.6,274.6z M346.9,473.3c4.7-4.3,8.9-8.2,12.5-11.5c-2.1-2.3-4.1-4.6-5.5-6.1c-4.1,4-8.2,8-12.3,12
			C343.4,469.6,345.4,471.7,346.9,473.3z M497,280.3c-3.7,3.6-7.1,6.8-9.6,9.2c3.6,4.1,7.2,8.2,10.7,12.3
			C497.8,294.4,504.7,286.6,497,280.3z M201.8,495c3.3,6.2,8.7,7.3,14.7,7.4c1.2-1.6,2.4-3.3,3.4-4.6c-3.5-3.8-6.8-7.3-9.9-10.5
			C207.2,489.9,204.5,492.4,201.8,495z M410.1,429.4c4.5-4.1,8.7-8,12.7-11.7c-2-2.4-3.9-4.6-5.3-6.2c-4.6,4.3-8.9,8.1-13.3,12.2
			C406.3,425.8,408.3,427.7,410.1,429.4z"/>
		<g class="st8">
			<path class="st9" d="M261.7,440.3c-6.4,0-11.6-4.6-14.2-12.5c-4.2-12.7-7.6-26-10.9-38.7c-1.7-6.4-3.4-12.9-5.2-19.4
				c-0.5-1.8-1.3-3.4-2.1-5.2c-0.4-0.8-0.8-1.6-1.1-2.4c0-0.7-0.1-1.4-0.1-2.2c-0.1-1.8-0.1-3.8-0.5-5.8c-1.3-5.9-2.7-11.8-4.1-17.6
				c-2.6-10.8-5.2-21.9-7.2-33c-4.2-23.9-1.2-42.3,9.5-57.7c10.1-14.5,22.5-22.8,38-25.4c2.5-0.4,4.9-0.6,7.2-0.6
				c11.4,0,21.2,4.9,29.1,14.5c8.4,10.1,13,22.8,14.2,39c3.6,47.8-4.9,95-25.3,140.2c-3.1,6.8-7.8,13.7-13.6,20
				C271.2,437.8,266.3,440.3,261.7,440.3L261.7,440.3z M269.3,198.5c-14.2-0.1-27.7-5.7-37.9-15.9c-10.2-10.2-15.8-23.6-15.7-37.7
				c0.1-29.5,25.2-53.5,56-53.5c13.8,0,26.6,5.4,36,15.1c9.5,9.7,14.7,22.7,14.7,36.7c0,30.5-23.8,55.3-52.9,55.3
				C269.5,198.5,269.3,198.5,269.3,198.5z"/>
			<path d="M271.7,91.9L271.7,91.9c13.7,0,26.3,5.3,35.7,14.9c9.4,9.6,14.6,22.5,14.5,36.3c0,14.5-5.5,28.3-15.5,38.7
				c-9.9,10.4-23.1,16.1-36.9,16.1l-0.2,0c-14.1-0.1-27.4-5.7-37.5-15.8c-10.1-10.1-15.6-23.4-15.6-37.3c0-14.2,5.8-27.5,16.3-37.5
				C242.9,97.4,256.9,91.9,271.7,91.9 M270.9,220.2c11.2,0,20.9,4.8,28.8,14.3c8.3,10,12.9,22.6,14.1,38.7
				c3.6,47.8-4.9,94.8-25.3,139.9c-3.1,6.8-7.7,13.6-13.5,19.8c-4.1,4.4-8.8,6.9-13.3,6.9c-6.2,0-11.2-4.4-13.7-12.2
				c-4.2-12.7-7.6-25.9-10.9-38.7c-1.7-6.4-3.4-12.9-5.2-19.4c-0.5-1.8-1.3-3.5-2.2-5.3c-0.4-0.8-0.7-1.5-1.1-2.4
				c0-0.7-0.1-1.4-0.1-2.1c-0.1-1.8-0.1-3.9-0.6-5.9c-1.3-5.9-2.7-11.8-4.1-17.6c-2.6-10.8-5.2-21.9-7.2-33
				c-4.2-23.8-1.2-42,9.4-57.3c10-14.4,22.3-22.6,37.7-25.2C266.2,220.4,268.6,220.2,270.9,220.2 M271.7,90.9
				c-31.2,0-56.4,24.1-56.5,54c-0.1,29.5,24.4,54,54.1,54.1c0.1,0,0.1,0,0.2,0c29.2,0,53.3-25.2,53.4-55.8
				C323,114,300.4,90.9,271.7,90.9C271.7,90.9,271.7,90.9,271.7,90.9L271.7,90.9z M270.9,219.2c-2.4,0-4.8,0.2-7.3,0.6
				c-16.6,2.8-29,12.1-38.3,25.6c-12.3,17.8-13.1,37.8-9.6,58.1c3,17,7.6,33.7,11.3,50.6c0.6,2.7,0.5,5.6,0.6,8
				c1.2,2.7,2.6,5.1,3.3,7.7c5.4,19.4,9.9,39,16.1,58.1c2.8,8.5,8.4,12.9,14.7,12.9c4.6,0,9.6-2.4,14-7.2
				c5.5-5.9,10.3-12.8,13.6-20.1c20.2-44.6,29.1-91.5,25.4-140.4c-1.1-14.2-4.9-28-14.3-39.3C292.4,224.3,282.6,219.2,270.9,219.2
				L270.9,219.2z"/>
		</g>
		<g>
			<path class="st0" d="M226.3,497.6c4.5-4.4,8.9-8.7,13.7-13.3c1.3,1.8,2.9,3.9,4.8,6.5c-1.7,1.7-4.2,4.1-6.4,6.7
				c-0.7,0.9-0.5,2.5-0.7,3.7c1.1-0.3,2.6-0.4,3.3-1.1c2.4-2.3,4.6-4.8,7.9-8.4c3.7,4.6,7,8.7,10.1,12.7
				c6.2-5.5,11.4-10.1,17.2-15.3c2,2.1,4.4,5,7.2,7.5c0.8,0.7,2.5,0.6,3.8,0.8c-0.3-1.1-0.3-2.6-1-3.3c-2.7-2.6-5.7-5-8.6-7.4
				c5.4-5.5,9.9-9.9,14.1-14.2c3.7,3.8,7.4,7.5,11.8,12.1c-3.1,2.9-6.9,6.3-10.5,9.9c-0.8,0.8-0.9,2.4-1.3,3.7
				c1.4-0.4,3.2-0.3,4-1.1c3.5-3.5,6.7-7.3,11.1-12.2c2,4,3.1,6.5,4.7,9.8c1-0.1,3.2-0.2,4.4-0.2c2-3,3.2-5.5,5-7.4
				c5.3-5.7,10.9-11.2,17.8-18.2c3.2,3.8,6,7.5,9.2,10.8c1.2,1.3,3.4,1.6,5.1,2.4c-0.4-1.7-0.9-3.4-1.4-5.3c3.7-3.7,7.8-7.8,12-12
				c2.6,2.5,5.2,5.1,8,7.4c0.7,0.6,2,0.5,3,0.8c-0.2-1.1,0-2.7-0.6-3.4c-2.6-2.6-5.4-4.9-8.1-7.3c5.4-5.3,10.2-9.9,15.5-15.2
				c1.7,2.5,3.3,5.6,5.6,7.8c2.3,2.2,5.5,3.6,8.3,5.3c0.4-1,1.3-2.3,1-2.9c-0.6-1.3-1.9-2.2-2.7-3.1c6-5.8,11.8-11.5,17.9-17.5
				c1,1,2.8,2.8,4.7,4.2c0.8,0.6,2.3,0.4,3.4,0.5c-0.3-1-0.2-2.3-0.8-3c-1.5-1.7-3.4-3.2-4.9-4.5c4.5-4.3,8.6-8.3,12.6-12.2
				c2.4,2.3,5.5,5.4,9.3,9c-7.1,6.2-14,12.9-21.6,18.8C362,490,302.8,507.8,237,505C231.1,504.8,229.6,500.5,226.3,497.6z"/>
		</g>
		<g>
			<path class="st0" d="M468.8,387.9c-5.6-5.6-10.9-10.9-16.2-16.2c5.2-4.9,10.7-10.2,16.6-15.8c0.4,0.3,1.4,1.2,2.5,2.1
				c-0.4,0.7-0.6,1.1-0.9,1.4c-3.6,3.7-7.4,7.2-10.9,11c-0.9,1-1,2.7-1.4,4.1c1.4-0.5,3.1-0.6,4.1-1.6c4-3.7,7.7-7.7,12.1-12.2
				c1.8,2.2,3.3,3.9,5,6.1C476.3,373.8,472.5,380.9,468.8,387.9z"/>
		</g>
		<g>
			<path class="st0" d="M449.8,375.5c2.4,2.5,5,5.3,7.2,7.5c-5.3,5.7-10.5,11.4-15.6,17c-3.2-3-5.9-5.6-8.3-7.9
				C438.4,386.7,443.9,381.2,449.8,375.5z"/>
		</g>
		<g>
			<path class="st0" d="M453,410.8c-3.4-2.8-6.4-5.2-9.8-8c6-5.5,11.7-10.6,17.6-15.9c1,1.2,2.7,3.3,4.9,5.9
				C461.6,398.6,457,405.1,453,410.8z"/>
		</g>
		<g>
			<path class="st0" d="M389.2,450c-1.5-1.6-3.3-3.6-4.7-5c5.8-5.8,11.6-11.6,17.7-17.7c1.3,1.3,3.2,3.3,4.7,4.9
				C401.1,438.1,395.4,443.8,389.2,450z"/>
		</g>
		<g>
			<path class="st0" d="M441.2,406.5c2.6,2.4,5.5,5.1,8.7,8.1c-3.6,4.1-7.2,8.2-10.6,12.1c-3.2-3.4-6.3-6.5-9.4-9.9
				C433,413.9,436.9,410.3,441.2,406.5z"/>
		</g>
		<g>
			<path class="st0" d="M376.8,444c-4.5,4.6-9.1,9.2-13.7,13.9c-2.1-1.9-4.4-3.9-6.5-5.9c5-4.9,9.6-9.4,14.7-14.4
				C373,439.6,375.1,442,376.8,444z"/>
		</g>
		<g>
			<path class="st0" d="M331.5,463c0.8,0.9,2,2.4,2.9,3.5c-7,7-13.8,13.8-21.2,21.1c-0.8-0.9-2-2.4-2.9-3.4
				C317.3,477.2,324.1,470.3,331.5,463z"/>
		</g>
		<g>
			<path class="st0" d="M259.5,498.1c-2.5-2.5-5.1-5.1-7.4-7.4c4.2-4.2,8.2-8.3,12.2-12.2c2.4,2.3,5,4.9,7.7,7.6
				C267.9,489.8,263.9,493.7,259.5,498.1z"/>
		</g>
		<g>
			<path class="st0" d="M496.6,274.6c-3.6-4.2-6.6-7.7-9.6-11.2c2.7-2.9,6-6.8,9.6-10.2c2.4-2.2,4-0.6,4.2,2
				c0.3,4.3,0.7,8.6,0.1,12.9C500.7,270.2,498.5,272,496.6,274.6z"/>
		</g>
		<g>
			<path class="st0" d="M346.9,473.3c-1.5-1.5-3.5-3.7-5.3-5.5c4.1-4,8.2-8,12.3-12c1.4,1.5,3.4,3.8,5.5,6.1
				C355.8,465.1,351.6,468.9,346.9,473.3z"/>
		</g>
		<g>
			<path class="st0" d="M497,280.3c7.7,6.3,0.8,14.1,1.1,21.4c-3.5-4.1-7.1-8.1-10.7-12.3C489.9,287.1,493.3,283.9,497,280.3z"/>
		</g>
		<g>
			<path class="st0" d="M201.8,495c2.7-2.6,5.4-5.1,8.2-7.8c3.1,3.3,6.3,6.8,9.9,10.5c-1,1.3-2.2,3-3.4,4.6
				C210.5,502.3,205.1,501.2,201.8,495z"/>
		</g>
		<g>
			<path class="st0" d="M410.1,429.4c-1.8-1.7-3.8-3.6-6-5.7c4.5-4.1,8.7-8,13.3-12.2c1.4,1.6,3.3,3.8,5.3,6.2
				C418.7,421.4,414.5,425.3,410.1,429.4z"/>
		</g>
		<path d="M227.6,362.1c-0.2-2.4,0-5.3-0.6-8c-3.7-16.9-8.3-33.6-11.3-50.6c-3.6-20.3-2.7-40.3,9.6-58.1
			c9.4-13.5,21.7-22.9,38.3-25.6c15-2.5,27.3,2.5,36.8,14c9.4,11.3,13.3,25,14.3,39.3c3.7,48.9-5.2,95.8-25.4,140.4
			c-3.3,7.3-8.2,14.2-13.6,20.1c-10.6,11.4-23.9,9-28.7-5.7c-6.2-19.1-10.7-38.7-16.1-58.1C230.2,367.2,228.8,364.8,227.6,362.1z
			 M240.5,304.8c-8,0.2-10,7-14.4,10c4.2,3.7,8,7,12.4,10.9c2-2.2,3.7-4.3,5.6-6.1c0.6-0.6,2-0.3,3-0.4c-0.1,1,0.1,2.4-0.5,3
			c-2.1,1.9-4.4,3.5-7.7,6c3.5,2.9,5.7,4.4,7.6,6.3c0.6,0.6,0.4,2,0.6,3c-1-0.1-2.3,0.2-3-0.4c-2.2-1.7-4.2-3.7-5.4-4.9
			c-2.8,0.8-4.8,1.4-6.7,2c0.8-2.1,1.5-4.2,2.1-5.7c-2.1-2.4-4.2-4.9-6.4-7.4c-0.2,0.1-0.4,0.2-0.6,0.4c2.6,10.1,5.1,20.3,8,31.7
			c4.6-4.7,7.9-8.4,11.5-11.8c1.1-1.1,2.9-1.4,4.4-2c-0.6,1.6-0.8,3.7-2,4.8c-3.5,3.5-7.3,6.7-10.9,9.9c6.8,8.6,6.8,8.6,5.7,11.2
			c-2.2-1.7-4.3-3.3-7.3-5.7c1.7,6.8,3.2,12.4,4.9,19.2c3.9-4,6.9-7.4,10.1-10.4c0.8-0.7,2.5-0.5,3.7-0.8c-0.3,1.1-0.3,2.6-1,3.4
			c-2.9,3.2-6,6.3-9.2,9.2c-2.1,1.9-2.7,3.8-1.9,6.5c2.8,9.9,5.2,20,8,29.9c1.1,3.8,2.5,7.6,4.3,11.1c3,5.7,7.8,6.6,12.8,2.5
			c2.5-2.1,5-4.6,6.7-7.4c4-6.7,8-13.5,11-20.6c13.2-31.1,20-63.8,21.9-97.4c1-17.8,0.7-35.7-5.7-52.8c-3.3-8.8-8.3-16.2-16.5-21.3
			c-3.9-2.4-6.7-2.2-8.4,1.5c1.2,2.8,2.2,5.2,3.2,7.5c-2.4-1-4.8-1.9-7.2-2.9c-1.5,0.6-3.5,1.3-5.5,2.1c0.6-2.1,1.3-4.3,2-6.7
			c-1-1.3-2.3-3.1-4.1-5.4c-2.8,1.3-5.7,2.6-9.8,4.5c4.4,4.1,8,7.1,11.3,10.4c0.8,0.8,0.8,2.5,1.1,3.7c-1.3-0.4-2.8-0.4-3.7-1.2
			c-3.5-3-6.7-6.3-11-10.4c-2.9,3.3-5.4,6.4-8.1,9.2c-0.6,0.6-2,0.4-3,0.5c0.1-1-0.1-2.3,0.4-3.1c0.9-1.4,2.3-2.6,3.4-3.8
			c-0.3-0.3-0.5-0.6-0.8-0.8c-2.5,2.1-4.9,4.3-6.6,5.7c2.4,3.1,4.5,5.6,7,8.8c2.8-3,5-5.7,7.5-8.1c0.7-0.6,2.2-0.3,3.4-0.4
			c-0.3,1-0.2,2.4-0.8,3c-2.6,2.5-5.3,4.9-8.8,7.9c2.8,2.4,4.9,3.8,6.6,5.6c0.7,0.8,0.7,2.2,1,3.4c-1.3-0.3-3-0.1-3.8-0.9
			c-1.7-1.7-3-4-3.8-5.2c-5.5,4.9-9.8,8.7-15,13.3c3.5,1.7,6.3,3.1,9.5,4.7c-0.1,0.4-0.5,1.5-0.3,2.6c0.2,1.5,0.7,2.9,1.1,4.3
			c-1.6-0.3-3.2-0.5-4.5-0.7c-3.5,3.3-6.9,6.6-10.3,9.9C231.2,295,237.5,298.2,240.5,304.8z M228.9,264.3c4.6-4.5,8.6-8.4,12.1-11.8
			c-1.7-2-3.7-4.3-6.3-7.3c-2.4,3.9-4.6,7.6-6.9,11.1C225.5,259.9,225.7,262.7,228.9,264.3z M234.6,277.1c-1.9-2.7-3.2-4.6-4-5.8
			c-2.9,1.6-6,2.2-6.5,3.8c-1.1,3.3-0.8,7.1-1.1,10.7c1.1-0.3,2.5-0.3,3.3-1C229.2,282.2,232.1,279.4,234.6,277.1z M224.5,309.5
			c3.2-2.7,6.1-5.2,7.9-6.7c-2.9-3.7-5.6-6.9-8.2-10.2c-0.5,0.2-0.9,0.4-1.4,0.6C222.2,298.7,223.6,304.1,224.5,309.5z"/>
		<path d="M271.8,90.9c28.6,0,51.2,23.1,51.1,52.2c0,30.7-24.3,56-53.6,55.8c-29.7-0.1-54.2-24.6-54.1-54.1
			C215.3,114.9,240.5,90.8,271.8,90.9z M274.6,117.5c-0.7,0.5-1.4,1-2.1,1.5c-5.1-4.8-10.2-9.7-15.1-14.3
			c-3.9,3.8-7.5,7.3-11.6,11.2c2.7,2.5,5.4,4.8,7.8,7.4c1.1,1.2,1.6,3,2.3,4.5c-1.6-0.3-3.1-0.6-4.7-1c-0.2,0-0.3,0-0.5-0.1
			c0.5,0.5,1,1,1.5,1.5c-5.5,5.7-11,11.3-16.4,17c0.9,1.5,3.5,4.5,6.5,6.7c2.9,2.1,2.1,3.5,0.1,5.4c-3.3,3-6.5,6.1-8.8,8.3
			c-0.1,5,8.9,5.7,2.7,11.4c13.8,12.9,29.7,18.1,47.7,11.6c18.7-6.7,28.8-21.2,30.8-40.6c2-18.5-5.7-32.9-21-43.6
			c-1.3,1.5-2.4,2.8-3.4,4c0.4,1.4,0.7,2.8,1.1,4.1c-1.3-0.1-2.6-0.3-3.8-0.1c-1,0.2-1.9,1-2.9,1.4c-1,0.3-2,0.4-3,0.6
			c0.1-1.1,0.1-2.4,0.5-3.4c0.3-0.9,1.1-1.5,1.3-1.8c-2-2.2-3.7-4.1-5.1-5.6c-2.9,2.5-5.7,5-8.2,7.3
			C271.8,113.3,273.2,115.4,274.6,117.5z M239,154.5c-5.3-5-10.3-9.8-15.9-15.2c0.1,9.3-1.3,18.1,6.7,24.6
			C233,160.6,235.8,157.7,239,154.5z M247.8,123.2c-3.5-3.3-7.2-6.7-11.3-10.6c-2.6,3.3-5.2,6.7-7.3,9.4c3.7,3.7,6.7,6.9,9.9,10.1
			C241.9,129.2,244.8,126.3,247.8,123.2z M275.1,99.9c-0.2-0.5-0.4-1-0.6-1.5c-5,0.5-9.9,1-14.2,1.4c2.4,2.9,4.5,5.5,6.3,7.7
			C269.5,104.9,272.3,102.4,275.1,99.9z M235.3,135.7c-2.7-2.7-5.5-5.5-8.6-8.6c-1,3.1-2,6-2.9,8.4c2.6,1.7,4.8,3.1,6.9,4.5
			C232.3,138.5,233.9,137,235.3,135.7z M240.8,109c0.5,1.1,1.1,2.1,1.6,3.2c3.7-1.8,6.2-5.6,8.8-9.3C247.7,105,244.2,107,240.8,109z
			 M281.7,99.6c2.2,2.4,3.7,4.2,5.5,6.3c1-1.2,1.8-2.1,2.9-3.4C287.2,101.5,284.8,100.7,281.7,99.6z"/>
		<g class="st8">
			<path class="st9" d="M262.2,432.3c-2.5,0-4.7-1.7-6.4-4.8c-1.7-3.2-3.1-6.8-4.3-11c-1.5-5.2-2.9-10.5-4.2-15.6
				c-1.2-4.7-2.5-9.6-3.8-14.3c-0.7-2.6-0.2-4.2,1.8-6c2.9-2.6,5.9-5.6,9.2-9.2c0.6-0.6,0.8-1.6,0.9-2.5c0.1-0.4,0.1-0.7,0.2-1.1
				l0.2-0.8l-0.8,0.1c-0.4,0.1-0.8,0.1-1.2,0.1c-1,0.1-2.1,0.1-2.8,0.8c-2.4,2.2-4.5,4.5-7.1,7.2c-0.8,0.8-1.6,1.7-2.4,2.6
				l-4.3-16.9l6.7,5.2l0.3-0.6c1.2-2.8,1.1-3-5.5-11.3c0.9-0.8,1.8-1.5,2.7-2.3c2.7-2.3,5.4-4.7,7.9-7.2c0.9-0.9,1.2-2.2,1.6-3.4
				c0.2-0.5,0.3-1.1,0.5-1.6l0.4-1.1l-1.1,0.5c-0.5,0.2-0.9,0.4-1.4,0.5c-1.1,0.4-2.3,0.8-3.1,1.6c-2.6,2.4-5,5-7.8,7.9
				c-1,1-2,2.1-3.1,3.2l-7.6-30.3l5.8,6.7l-2.3,6.3l7.4-2.2c0.3,0.2,0.6,0.5,0.9,0.8c1.2,1.2,2.7,2.6,4.4,3.9
				c0.5,0.4,1.2,0.4,1.9,0.4l0.8,0c0.2,0,0.4,0,0.6,0l0.7,0.1l-0.1-0.6c-0.1-0.3-0.1-0.6-0.1-1c-0.1-0.9-0.1-1.7-0.7-2.3
				c-1.3-1.3-2.8-2.5-4.7-4c-0.7-0.6-1.5-1.2-2.4-1.9c0.8-0.6,1.5-1.1,2.2-1.6c2-1.5,3.6-2.6,5.1-4c0.6-0.5,0.6-1.4,0.6-2.3
				c0-0.3,0-0.7,0-1l0.1-0.6l-0.6,0.1c-0.2,0-0.4,0-0.6,0l-0.9,0c-0.7,0-1.4,0.1-1.9,0.5c-1.4,1.3-2.7,2.7-4,4.3
				c-0.4,0.5-0.9,1-1.3,1.5l-11.5-10.1c1.3-1,2.3-2.2,3.5-3.5c2.5-2.9,5-5.9,10.2-6l0.7,0l-0.3-0.7c-1.8-4-4.7-6.8-7.6-9.4
				c-1.9-1.8-3.7-3.5-5.2-5.5l9.9-9.4l5,0.8l-0.2-0.7c-0.1-0.4-0.2-0.9-0.4-1.3c-0.3-1-0.6-2-0.7-2.9c-0.1-0.7,0.1-1.5,0.2-2
				c0-0.2,0.1-0.4,0.1-0.5l0.1-0.4l-9.2-4.5l14-12.4c0.1,0.2,0.3,0.4,0.4,0.6c0.8,1.2,1.8,2.8,3.2,4.1c0.7,0.7,1.7,0.8,2.8,0.9
				c0.4,0,0.9,0.1,1.2,0.2l0.8,0.2l-0.2-0.8c-0.1-0.3-0.2-0.7-0.2-1.1c-0.2-0.9-0.3-1.9-0.9-2.5c-1.2-1.3-2.5-2.3-4.2-3.7
				c-0.6-0.5-1.3-1-2-1.6c0.8-0.7,1.6-1.4,2.3-2.1c2.2-2,4.2-3.7,6-5.5c0.6-0.6,0.7-1.4,0.8-2.3c0-0.3,0.1-0.7,0.2-1l0.2-0.7
				l-0.7,0.1c-0.2,0-0.4,0-0.7,0l-0.9,0c-0.7,0-1.6,0-2.1,0.5c-1.8,1.7-3.5,3.7-5.3,5.7c-0.6,0.7-1.2,1.4-1.8,2.1l-6.3-7.9l5.8-5.1
				l0.2,0.2c-0.2,0.3-0.5,0.5-0.7,0.7c-0.9,0.9-1.8,1.8-2.4,2.8c-0.4,0.7-0.4,1.5-0.5,2.3c0,0.3,0,0.7,0,1l-0.1,0.6l0.6-0.1
				c0.3,0,0.6-0.1,1-0.1c0.9,0,1.8,0,2.3-0.6c2-2.1,3.9-4.3,5.9-6.7c0.6-0.7,1.2-1.4,1.9-2.2c1.1,1,2.1,2,3,2.9
				c2.7,2.6,5.1,4.9,7.6,7.1c0.7,0.6,1.7,0.8,2.7,1c0.4,0.1,0.8,0.2,1.2,0.3l0.9,0.3l-0.3-0.9c-0.1-0.4-0.2-0.8-0.3-1.2
				c-0.2-1-0.4-2-1-2.7c-2.4-2.4-4.8-4.6-7.7-7.2c-1-0.9-1.9-1.8-3-2.7l8.8-4l3.7,4.9l-2.3,7.4l6.3-2.3l8.2,3.3l-3.6-8.4
				c0.9-1.8,2-2.6,3.4-2.6c1.1,0,2.5,0.5,4.2,1.5c7.4,4.6,12.6,11.3,16.3,21.1c6.6,17.6,6.7,35.6,5.7,52.6
				c-2,34.9-9.3,67.6-21.9,97.2c-3,7-6.9,13.7-10.8,20.2l-0.2,0.4c-1.4,2.4-3.6,4.8-6.5,7.2C265.9,431.5,264,432.3,262.2,432.3z"/>
			<g>
				<path d="M265.2,228l2.4,3.2l0.9,1.1l-1.9,6.2l-0.3,1c-2-1.9-4-3.8-6.4-5.9c-0.8-0.7-1.6-1.4-2.4-2.2L265.2,228 M281.1,230.2
					c1,0,2.3,0.5,3.9,1.5c7.3,4.5,12.4,11.1,16.1,20.8c6.6,17.5,6.6,35.5,5.7,52.3c-2,34.8-9.3,67.5-21.8,97.1
					c-2.9,7-6.9,13.6-10.7,20.1l-0.2,0.4c-1.4,2.3-3.5,4.7-6.4,7.1c-1.9,1.5-3.7,2.3-5.3,2.3c-3,0-4.8-2.5-5.9-4.5
					c-1.6-3.1-3-6.8-4.2-11c-1.5-5.2-2.9-10.4-4.2-15.5c-1.2-4.7-2.5-9.6-3.8-14.3c-0.7-2.4-0.2-3.9,1.6-5.5
					c2.9-2.6,5.9-5.7,9.2-9.3c0.7-0.8,0.9-1.8,1-2.7c0.1-0.4,0.1-0.7,0.2-1l0.4-1.5l-1.6,0.3c-0.3,0.1-0.7,0.1-1.2,0.1
					c-1.1,0.1-2.3,0.2-3.1,0.9c-2.4,2.2-4.6,4.5-7.1,7.2c-0.6,0.6-1.2,1.3-1.8,1.9l-2.4-9.3l-1.3-5.3l1.7,1.3l3.3,2.6l1,0.8l0.5-1.2
					c1.3-3,1-3.5-5.3-11.4c0.8-0.7,1.5-1.3,2.3-2c2.7-2.3,5.4-4.7,8-7.2c1-1,1.3-2.3,1.7-3.6c0.2-0.5,0.3-1.1,0.5-1.5l0.9-2.2
					l-2.2,1c-0.4,0.2-0.9,0.4-1.4,0.5c-1.2,0.4-2.4,0.8-3.3,1.7c-2.6,2.4-5,5-7.8,7.9c-0.8,0.8-1.6,1.7-2.5,2.6l-4-15.9l0.7-0.2
					l0.9-0.3l5.3-1.6c0.2,0.2,0.4,0.4,0.7,0.6c1.2,1.2,2.8,2.6,4.4,3.9c0.6,0.5,1.4,0.6,2.2,0.6c0.1,0,0.3,0,0.4,0
					c0.1,0,0.3,0,0.4,0c0.2,0,0.3,0,0.5,0l1.3,0.1l-0.2-1.3c0-0.3-0.1-0.6-0.1-0.9c-0.1-0.9-0.1-1.9-0.8-2.6
					c-1.3-1.3-2.9-2.5-4.8-4.1c-0.6-0.5-1.2-1-1.9-1.5c0.6-0.4,1.1-0.8,1.6-1.2c2-1.5,3.6-2.7,5.1-4c0.7-0.7,0.7-1.7,0.7-2.7
					c0-0.3,0-0.7,0-0.9l0.2-1.3l-1.3,0.1c-0.2,0-0.3,0-0.5,0c-0.1,0-0.3,0-0.4,0c-0.2,0-0.3,0-0.5,0c-0.8,0-1.6,0.1-2.2,0.6
					c-1.4,1.3-2.7,2.8-4.1,4.3c-0.3,0.4-0.6,0.7-1,1.1l-4.8-4.2l-5.9-5.2c1.1-1,2.1-2.1,3.1-3.2c2.5-3,4.9-5.7,9.8-5.9l1.5,0
					l-0.6-1.4c-1.8-4.1-4.8-6.9-7.7-9.6c-1.8-1.7-3.5-3.3-4.9-5.1l5.5-5.3l3.9-3.7l4,0.6l1.5,0.2l-0.4-1.5c-0.1-0.4-0.2-0.9-0.4-1.3
					c-0.3-1-0.6-1.9-0.7-2.8c-0.1-0.6,0.1-1.3,0.2-1.8c0.1-0.2,0.1-0.4,0.1-0.5l0.1-0.7l-0.7-0.3l-8.2-4l7.3-6.5l5.7-5.1
					c0,0,0.1,0.1,0.1,0.1c0.8,1.2,1.9,2.8,3.2,4.2c0.8,0.8,2,0.9,3.1,1c0.4,0,0.8,0.1,1.2,0.2l1.6,0.3l-0.5-1.6
					c-0.1-0.3-0.2-0.7-0.2-1c-0.2-0.9-0.4-2-1.1-2.8c-1.2-1.3-2.6-2.4-4.3-3.8c-0.5-0.4-1-0.8-1.5-1.2c0.7-0.6,1.3-1.1,1.9-1.7
					c2.2-2,4.2-3.7,6-5.5c0.7-0.7,0.8-1.7,0.9-2.6c0-0.3,0.1-0.7,0.2-0.9l0.4-1.4l-1.4,0.1c-0.2,0-0.4,0-0.6,0c-0.1,0-0.3,0-0.4,0
					c-0.1,0-0.3,0-0.4,0c-0.9,0-1.8,0.1-2.5,0.7c-1.9,1.8-3.6,3.7-5.4,5.7c-0.5,0.5-0.9,1.1-1.4,1.6l-3.3-4.2c0.3,0,0.6,0,0.9,0
					c0.9,0,2,0,2.7-0.7c2-2.1,3.9-4.3,6-6.7c0.5-0.6,1-1.2,1.5-1.8c0.9,0.9,1.8,1.7,2.6,2.6c2.7,2.6,5.1,4.9,7.6,7.1
					c0.8,0.7,1.9,0.9,2.9,1.1c0.4,0.1,0.8,0.2,1.2,0.3l1.8,0.5l-0.5-1.8c-0.1-0.3-0.2-0.7-0.2-1.2c-0.2-1-0.4-2.2-1.2-3
					c-0.2-0.2-0.5-0.5-0.7-0.7l1-0.4l4-1.5l1.1-0.4l4.4,1.8l2.4,1l2.3,0.9l-1-2.2l-1.6-3.8l-1.4-3.3
					C279.2,230.5,280.3,230.2,281.1,230.2 M241.7,240.2c-0.3,0.7-0.4,1.6-0.4,2.3c0,0.2,0,0.4,0,0.5l-1.2-1.5L241.7,240.2
					 M228.5,323.9l4.2,4.9l-0.3,0.8l-1.5,4L228.5,323.9 M265.5,226.8c-2.8,1.3-5.7,2.6-9.8,4.5c4.4,4.1,8,7.1,11.3,10.4
					c0.8,0.8,0.8,2.5,1.1,3.7c-1.3-0.4-2.8-0.4-3.7-1.2c-3.5-3-6.7-6.3-11-10.4c-2.9,3.3-5.4,6.4-8.1,9.2c-0.6,0.6-2,0.4-3,0.5
					c0.1-1-0.1-2.3,0.4-3.1c0.9-1.4,2.3-2.6,3.4-3.8c-0.3-0.3-0.5-0.6-0.8-0.8c-2.5,2.1-4.9,4.3-6.6,5.7c2.4,3.1,4.5,5.6,7,8.8
					c2.8-3,5-5.7,7.5-8.1c0.4-0.4,1.1-0.4,1.8-0.4c0.3,0,0.6,0,0.9,0c0.3,0,0.5,0,0.7,0c-0.3,1-0.2,2.4-0.8,3
					c-2.6,2.5-5.3,4.9-8.8,7.9c2.8,2.4,4.9,3.8,6.6,5.6c0.7,0.8,0.7,2.2,1,3.4c-1.3-0.3-3-0.1-3.8-0.9c-1.7-1.7-3-4-3.8-5.2
					c-5.5,4.9-9.8,8.7-15,13.3c3.5,1.7,6.3,3.1,9.5,4.7c-0.1,0.4-0.5,1.5-0.3,2.6c0.2,1.5,0.7,2.9,1.1,4.3c-1.6-0.3-3.2-0.5-4.5-0.7
					c-3.5,3.3-6.9,6.6-10.3,9.9c3.7,5.4,10,8.5,13,15.2c-8,0.2-10,7-14.4,10c4.2,3.7,8,7,12.4,10.9c2-2.2,3.7-4.3,5.6-6.1
					c0.3-0.3,0.9-0.4,1.6-0.4c0.3,0,0.6,0,0.9,0c0.2,0,0.4,0,0.6,0c-0.1,1,0.1,2.4-0.5,3c-2.1,1.9-4.4,3.5-7.7,6
					c3.5,2.9,5.7,4.4,7.6,6.3c0.6,0.6,0.4,2,0.6,3c-0.2,0-0.4,0-0.6,0c-0.3,0-0.6,0-0.8,0c-0.6,0-1.2,0-1.6-0.3
					c-2.2-1.7-4.2-3.7-5.4-4.9c-2.8,0.8-4.8,1.4-6.7,2c0.8-2.1,1.5-4.2,2.1-5.7c-2.1-2.4-4.2-4.9-6.4-7.4c-0.2,0.1-0.4,0.2-0.6,0.4
					c2.6,10.1,5.1,20.3,8,31.7c4.6-4.7,7.9-8.4,11.5-11.8c1.1-1.1,2.9-1.4,4.4-2c-0.6,1.6-0.8,3.7-2,4.8c-3.5,3.5-7.3,6.7-10.9,9.9
					c6.8,8.6,6.8,8.6,5.7,11.2c-2.2-1.7-4.3-3.3-7.3-5.7c1.7,6.8,3.2,12.4,4.9,19.2c3.9-4,6.9-7.4,10.1-10.4
					c0.8-0.7,2.5-0.5,3.7-0.8c-0.3,1.1-0.3,2.6-1,3.4c-2.9,3.2-6,6.3-9.2,9.2c-2.1,1.9-2.7,3.8-1.9,6.5c2.8,9.9,5.2,20,8,29.9
					c1.1,3.8,2.5,7.6,4.3,11.1c1.7,3.4,4.1,5.1,6.8,5.1c1.9,0,3.9-0.8,6-2.5c2.5-2.1,5-4.6,6.7-7.4c4-6.7,8-13.5,11-20.6
					c13.2-31.1,20-63.8,21.9-97.4c1-17.8,0.7-35.7-5.7-52.8c-3.3-8.8-8.3-16.2-16.5-21.3c-1.7-1-3.2-1.6-4.4-1.6c-1.7,0-3,1-4,3.1
					c1.2,2.8,2.2,5.2,3.2,7.5c-2.4-1-4.8-1.9-7.2-2.9c-1.5,0.6-3.5,1.3-5.5,2.1c0.6-2.1,1.3-4.3,2-6.7
					C268.6,230.9,267.3,229.1,265.5,226.8L265.5,226.8z"/>
			</g>
		</g>
		<g class="st8">
			<path class="st9" d="M228.8,263.7c-1-0.6-1.7-1.3-1.9-2.2c-0.3-1.3,0.1-2.9,1.4-4.8c1.6-2.4,3.1-4.9,4.7-7.6c0.6-1,1.2-2,1.8-3
				l5.5,6.4L228.8,263.7z"/>
			<g>
				<path d="M234.9,246.9l2.9,3.4l1.8,2.1l-10.9,10.6c-0.7-0.5-1.2-1.1-1.4-1.7c-0.3-1.1,0.1-2.7,1.3-4.4c1.6-2.5,3.1-4.9,4.7-7.6
					C233.9,248.5,234.4,247.7,234.9,246.9 M234.7,245.2c-2.4,3.9-4.6,7.6-6.9,11.1c-2.3,3.5-2.1,6.4,1.1,8
					c4.6-4.5,8.6-8.4,12.1-11.8C239.3,250.5,237.3,248.2,234.7,245.2L234.7,245.2z"/>
			</g>
		</g>
		<g class="st8">
			<path class="st9" d="M223.5,285.1c0.1-0.8,0.1-1.7,0.1-2.5c0.1-2.5,0.2-5.1,0.9-7.4c0.3-0.8,1.7-1.4,3.4-2.1
				c0.8-0.3,1.7-0.7,2.5-1.2l3.5,5.1c-0.6,0.5-1.2,1.1-1.8,1.7c-2,1.9-4.1,3.8-6.3,5.7c-0.4,0.4-1.2,0.5-2,0.6
				C223.8,285,223.6,285,223.5,285.1z"/>
			<g>
				<path d="M230.3,272.5l3,4.4c-0.5,0.4-1,0.9-1.5,1.4c-2,1.9-4.1,3.8-6.3,5.7c-0.3,0.3-0.9,0.4-1.6,0.5c0-0.6,0.1-1.3,0.1-1.9
					c0.1-2.6,0.2-5,0.9-7.2c0.2-0.6,1.7-1.3,3.1-1.8C228.8,273.2,229.5,272.9,230.3,272.5 M230.6,271.3c-2.9,1.6-6,2.2-6.5,3.8
					c-1.1,3.3-0.8,7.1-1.1,10.7c1.1-0.3,2.5-0.3,3.3-1c3-2.5,5.8-5.3,8.4-7.7C232.7,274.4,231.4,272.5,230.6,271.3L230.6,271.3z"/>
			</g>
		</g>
		<g class="st8">
			<path class="st9" d="M224.9,308.6c-0.1-0.8-0.3-1.5-0.4-2.3c-0.8-4.2-1.6-8.5-1.1-12.8l0.8-0.3l7.7,9.5L224.9,308.6z"/>
			<g>
				<path d="M223.9,293.8l0.5,0.6l6.6,8.2l-2.2,1.9l-3.6,3.1c-0.1-0.5-0.2-1-0.3-1.4c-0.8-4.2-1.6-8.2-1.2-12.3L223.9,293.8
					L223.9,293.8 M224.2,292.6c-0.5,0.2-0.9,0.4-1.4,0.6c-0.7,5.5,0.8,10.9,1.7,16.4c3.2-2.7,6.1-5.2,7.9-6.7
					C229.5,299.1,226.9,295.9,224.2,292.6L224.2,292.6z"/>
			</g>
		</g>
		<g class="st8">
			<path class="st9" d="M268.7,190.8c-11.1,0-21.8-4.7-31.8-13.9c1.3-1.3,1.9-2.4,1.9-3.5c0-1.5-1.2-2.6-2.3-3.7
				c-1.2-1.1-2.5-2.3-2.5-3.9l2-1.9c2-1.9,4.3-4.1,6.7-6.3c1.2-1.2,2.1-2.2,2-3.3c-0.1-1-0.7-1.9-2.1-2.9c-2.9-2.1-5.2-4.7-6.2-6.2
				l16.5-17.1l-0.7-0.7l4.7,0.9l-0.5-0.9c-0.2-0.5-0.4-0.9-0.6-1.4c-0.5-1.1-1-2.3-1.8-3.2c-1.7-1.8-3.5-3.5-5.4-5.2
				c-0.7-0.6-1.3-1.2-2-1.8l10.8-10.5l15.1,14.2l2.9-2l-4.5-6.7l7.5-6.7l4.5,4.9c-0.3,0.4-0.8,0.9-1.1,1.6c-0.3,0.8-0.4,1.7-0.4,2.5
				c0,0.3-0.1,0.7-0.1,1l-0.1,0.7l0.7-0.1c0.3-0.1,0.6-0.1,0.9-0.2c0.7-0.1,1.5-0.2,2.2-0.5c0.5-0.2,0.9-0.4,1.3-0.7
				c0.5-0.3,1-0.6,1.5-0.7c0.3-0.1,0.6-0.1,1-0.1c0.5,0,1,0,1.5,0.1c0.4,0,0.8,0.1,1.2,0.1l0.7,0l-1.2-4.5l2.9-3.4
				c15.4,10.8,22.3,25.2,20.5,42.8c-2.1,19.9-12.7,33.8-30.5,40.2C278.7,189.9,273.6,190.8,268.7,190.8
				C268.7,190.8,268.7,190.8,268.7,190.8z"/>
			<g>
				<path d="M278.3,105l2.2,2.4l1.6,1.8c-0.3,0.4-0.7,0.9-0.9,1.4c-0.3,0.9-0.4,1.8-0.5,2.6c0,0.3-0.1,0.7-0.1,1l-0.2,1.4l1.4-0.3
					c0.3-0.1,0.6-0.1,0.9-0.2c0.7-0.1,1.5-0.3,2.3-0.5c0.5-0.2,1-0.5,1.4-0.7c0.5-0.3,0.9-0.5,1.3-0.6c0.3,0,0.6-0.1,0.9-0.1
					c0.5,0,1,0,1.5,0.1c0.4,0,0.8,0.1,1.2,0.1l1.4,0.1l-0.3-1.3l-0.9-3.6l2.5-2.9c15,10.7,21.7,24.9,19.9,42.1
					c-2.1,19.7-12.5,33.5-30.2,39.8c-5,1.8-10,2.7-14.9,2.7c-10.8,0-21.3-4.5-31.1-13.4c1.2-1.3,1.7-2.4,1.7-3.5
					c0-1.7-1.3-2.9-2.5-4c-1.1-1-2.2-2-2.4-3.4c0.6-0.5,1.2-1.1,1.8-1.7c2-1.9,4.3-4.1,6.7-6.3c1.1-1,2.2-2.2,2.1-3.7
					c-0.1-1.1-0.8-2.2-2.3-3.3c-2.6-1.9-4.8-4.3-5.8-5.7l15.9-16.4l0.6-0.6c0.4,0.1,0.8,0.2,1.2,0.2l1.1,0.2l2,0.4l-0.9-1.8
					c-0.2-0.4-0.4-0.9-0.6-1.4c-0.5-1.2-1-2.3-1.9-3.3c-1.7-1.8-3.5-3.5-5.4-5.2c-0.5-0.5-1.1-1-1.6-1.5l10.1-9.8l12.7,12l1.7,1.7
					l0.6,0.6l0.7-0.5l1.9-1.3l0.3-0.2l0.8-0.6l-0.5-0.8l-4-5.9L278.3,105 M278.3,103.6c-2.9,2.5-5.7,5-8.2,7.3
					c1.7,2.5,3.1,4.6,4.5,6.6c-0.7,0.5-1.4,1-2.1,1.5c-5.1-4.8-10.2-9.7-15.1-14.3c-3.9,3.8-7.5,7.3-11.6,11.2
					c2.7,2.5,5.4,4.8,7.8,7.4c1.1,1.2,1.6,3,2.3,4.5c-1.6-0.3-3.1-0.6-4.7-1c-0.2,0-0.3,0-0.5-0.1c0.5,0.5,1,1,1.5,1.5
					c-5.5,5.7-11,11.3-16.4,17c0.9,1.5,3.5,4.5,6.5,6.7c2.9,2.1,2.1,3.5,0.1,5.4c-3.3,3-6.5,6.1-8.8,8.3c-0.1,5,8.9,5.7,2.7,11.4
					c9.8,9.1,20.6,14.4,32.5,14.4c4.9,0,10-0.9,15.2-2.8c18.7-6.7,28.8-21.2,30.8-40.6c2-18.5-5.7-32.9-21-43.6
					c-1.3,1.5-2.4,2.8-3.4,4c0.4,1.4,0.7,2.8,1.1,4.1c-0.9,0-1.8-0.2-2.7-0.2c-0.4,0-0.7,0-1.1,0.1c-1,0.2-1.9,1-2.9,1.4
					c-1,0.3-2,0.4-3,0.6c0.2-1.1,0.1-2.4,0.5-3.4c0.3-0.9,1.1-1.5,1.3-1.8C281.5,107,279.7,105.1,278.3,103.6L278.3,103.6z"/>
			</g>
		</g>
		<g class="st8">
			<path class="st9" d="M229.7,163.2c-6.3-5.3-6.2-12.4-6.1-19.9c0-0.9,0-1.9,0-2.8l14.7,14L229.7,163.2z"/>
			<g>
				<path d="M224.1,141.6l5,4.8l8.5,8.1l-7.9,8c-5.8-5.1-5.7-11.7-5.6-19.2C224.1,142.7,224.1,142.2,224.1,141.6 M223.1,139.3
					c0.1,9.3-1.3,18.1,6.7,24.6c3.2-3.2,6.1-6.2,9.3-9.4C233.8,149.5,228.7,144.7,223.1,139.3L223.1,139.3z"/>
			</g>
		</g>
		<g class="st8">
			<polygon class="st9" points="229.9,122 236.5,113.4 247.1,123.2 239.1,131.3 			"/>
			<g>
				<path d="M236.6,114.1l2.3,2.2l7.4,6.9l-5.1,5.2l-2.1,2.2l-6.9-7l-1.7-1.7l4.8-6.1L236.6,114.1 M236.5,112.6
					c-2.6,3.3-5.2,6.7-7.3,9.4c3.7,3.7,6.7,6.9,9.9,10.1c2.8-2.8,5.6-5.8,8.7-8.9C244.3,119.9,240.6,116.5,236.5,112.6L236.5,112.6z
					"/>
			</g>
		</g>
		<g class="st8">
			<polygon class="st9" points="261.3,100.2 274.2,98.9 274.5,99.8 266.7,106.7 			"/>
			<g>
				<path d="M273.8,99.5l0.1,0.2l-6,5.3l-1.2,1.1l-2.6-3.2l-1.8-2.2L273.8,99.5 M274.5,98.4c-5,0.5-9.9,1-14.2,1.4
					c2.4,2.9,4.5,5.5,6.3,7.7c2.9-2.6,5.7-5.1,8.5-7.6C274.9,99.4,274.7,98.9,274.5,98.4L274.5,98.4z"/>
			</g>
		</g>
		<g class="st8">
			<polygon class="st9" points="224.4,135.3 226.9,128 234.6,135.7 230.7,139.4 			"/>
			<g>
				<path d="M227.1,128.9l2.7,2.7l4.1,4.1l-1.9,1.8l-1.3,1.2l-3.2-2.1l-2.4-1.5l0-0.1L227.1,128.9 M226.7,127.1c-1,3.1-2,6-2.9,8.4
					c2.6,1.7,4.8,3.1,6.9,4.5c1.5-1.4,3.1-3,4.5-4.3C232.6,133,229.8,130.2,226.7,127.1L226.7,127.1z"/>
			</g>
		</g>
		<g class="st8">
			<path class="st9" d="M241.4,109.2l8-4.7c-2.1,2.9-4.1,5.5-6.9,7L241.4,109.2z"/>
			<g>
				<path d="M247.6,106.2c-1.5,1.9-3,3.6-4.8,4.7l-0.7-1.4l4.3-2.5L247.6,106.2 M251.2,102.9c-3.5,2-6.9,4.1-10.4,6.1
					c0.5,1.1,1.1,2.1,1.6,3.2C246.1,110.4,248.6,106.6,251.2,102.9L251.2,102.9z"/>
			</g>
		</g>
		<g class="st8">
			<polygon class="st9" points="283.3,100.7 289.2,102.7 287.2,105.1 			"/>
			<g>
				<path d="M284.9,101.8l3.5,1.2l-0.8,0.9l-0.4,0.5L284.9,101.8 M281.7,99.6c2.2,2.4,3.7,4.2,5.5,6.3c1-1.2,1.8-2.1,2.9-3.4
					C287.2,101.5,284.8,100.7,281.7,99.6L281.7,99.6z"/>
			</g>
		</g>
	</g>
</g>
</svg>
