<svg id="Calque_1" data-name="Calque 1" xmlns="http://www.w3.org/2000/svg" viewBox="0 0 485.5 628.38"><defs><style>.cls-1,.cls-4,.cls-6{fill:none;}.cls-1,.cls-2{stroke:#484848;}.cls-1,.cls-2,.cls-6{stroke-linecap:round;stroke-linejoin:round;}.cls-2,.cls-8{fill:#fff;}.cls-3{fill:#ff6679;opacity:0.48;isolation:isolate;}.cls-4{stroke:#616161;}.cls-4,.cls-9{stroke-miterlimit:10;}.cls-5{fill:#00a6c4;}.cls-6{stroke:#fff;stroke-width:0.5px;}.cls-7{fill:#616161;}.cls-9{fill:#5f5f5f;stroke:#5f5f5f;stroke-width:0.25px;}</style></defs><title>Groupe 1968</title><ellipse class="cls-1" cx="406.12" cy="560.16" rx="35.31" ry="11.94"/><path class="cls-2" d="M401.05,265.25V558.51s6,3.7,9.72,0,0-293.26,0-293.26"/><path class="cls-1" d="M373.21,174.52,353,255.73l16.76,5.8,35.17,3.72L436.32,263l22.08-5.16-20.95-84.13S402.23,164.9,373.21,174.52Z"/><line class="cls-1" x1="422.37" y1="184.49" x2="435.21" y2="257.02"/><line class="cls-1" x1="403.87" y1="184.72" x2="401.88" y2="257.44"/><line class="cls-1" x1="385.63" y1="184.95" x2="373.08" y2="252.71"/><path class="cls-3" d="M446.53,259.51c2.12.5,4.13.14,5.16-2.82,1.22-3.56.23-8.81-.62-13.66-2.39-13.67-5.37-27.33-9-40.82-1.73-6.45-3.57-13-5.64-19.26-1.59-4.8-3.57-7.75-6.2-8.58a12.89,12.89,0,0,0-1.63-.39c-3.62-2-7.55.18-10.46.66l-.23,0a14.9,14.9,0,0,0-1.76.14c-3.53.17-8,.16-8.78,6.22-.94,6.86-.73,17.34,1.11,24.77.18.73.37,1.46.55,2.19,2.13,11.45,4.52,30.5,7.24,41.88,1.74,7.31-1.49,9.31,2.51,11.86.71,1.13,1.56,1.85,2.35,1.64l24.9-3.9A2.92,2.92,0,0,0,446.53,259.51Z"/><line class="cls-1" x1="428.75" y1="268.95" x2="428.75" y2="319.98"/><path class="cls-4" d="M315.3,524.8c18.79,14.46-3.6,27.33-16.88,32.23-24.92,9.2-52.58,11.73-78.93,12.36-28.57.68-58-1.14-85.69-8.63-9.09-2.47-18.44-5.54-26.37-10.75-4.56-3-9.73-7.47-9.73-13.41s5.17-10.42,9.73-13.41c7.93-5.21,17.28-8.29,26.37-10.75,2.84-.77,5.7-1.46,8.57-2.1"/><ellipse class="cls-5" cx="198" cy="546.8" rx="110.7" ry="32.5"/><path class="cls-6" d="M176.9,492.2a34.43,34.43,0,0,1,23.7,5.3"/><path class="cls-6" d="M244.5,507.9s10.7-2.7,20.5,2.5"/><path class="cls-7" d="M179.8,416.1c.4.3.8.5,1.2.8.1.1.3.1.4.2a23.06,23.06,0,0,1-2.2-8.1c-.6-6.4,1-12.5,3.5-18.4.5-1.2,1-2.5,1.6-3.8-.8.1-1.1.3-1.3.7-2.6,4-3.9,8.5-4.9,13.2a26.46,26.46,0,0,0,.8,15.1,1.61,1.61,0,0,1,.9.3Z"/><path class="cls-7" d="M201,449.7a7.66,7.66,0,0,1-2.7-.4c-3.9-1.9-7.7-3.9-11.4-6.1-.7-.4-1.4-2-1.1-2.5.9-1.4,1.8-.3,2.8.4q5.25,3.45,10.5,6.6c.7.4,1.5.7,2.3,1.1a2.26,2.26,0,0,0-.4.9Z"/><path class="cls-7" d="M196.4,435.3c4.1,2.9,7.7,5.6,11.6,8.4C203.7,444,197.5,439.6,196.4,435.3Z"/><path class="cls-7" d="M205.1,448.7c-3.9-.2-9.3-5.2-8.9-8.6C199.2,443.1,202.1,445.8,205.1,448.7Z"/><path class="cls-7" d="M159.6,319.4a29.25,29.25,0,0,1,10.1,1.6c7.8,2.7,13.5,8.1,17.9,15.1a78.59,78.59,0,0,0,6.2,7.8,3.26,3.26,0,0,0,1.9.8c3.8.5,6.6,3.3,7.6,7.4a9.26,9.26,0,0,1-3.5,9.1,5,5,0,0,0-1.4,2.3c-1.4,4.3-2.4,8.7-4.1,12.8s-2.2,4.1-6.6,3.1c-.5-.1-1.1-.2-2-.4,2.3-3.9-.6-5.6-2.9-7.8a37.11,37.11,0,0,1-5.8-8.1c3.9,6,9.4,6.7,15.6,4.9a5.61,5.61,0,0,0,4.4-5.4c-3.9.1-6.7-1.4-7.9-5.3-1.6-4.9-.8-9,3.1-12.1-2.9-4.1-5.6-8.2-8.6-12-10.3-12.9-26.6-16.1-39.8-5.2-2.5,2-4.6,4.4-7.1,6.4a3.41,3.41,0,0,1-2.8.9,8.55,8.55,0,0,0-10.2,4.8c-2.3,5.7-.9,11.8,3.4,14.9s4,2.9,1,7.2c-3.8,5.5-7.5,11.1-10.8,17-5.1,9-9.3,18.4-11.5,28.6-1.6,7.3-2.4,14.9-3.8,22.2-1.6,8-1.6,16.1-1.1,24.2.3,4.9.9,9.8,1.6,14.6a107.69,107.69,0,0,0,2.3,11.3c2.8,10,8.4,17.4,18.2,22.1a157.58,157.58,0,0,0,32.5,11,55,55,0,0,0,21,.8c2.4-.4,4.8-.8,5.5-3.8.5-2.5-.7-4.9-3.5-6.4-2.5-1.4-5.2-2.3-7.8-3.5-4.6-2.1-9.4-4.2-12.8-8.1-1.7-1.9-2.9-4.4-4.3-6.6.3-.3.7-.5,1-.8,3,4.7,6.3,9.2,12.2,11.3,6.4-7.6,11.8-16.1,14.2-26,2.3-9.7,3.6-19.6,5.3-29.5a8.33,8.33,0,0,1,.4,1.5c-.4,5.3-.2,10.7-1.3,15.8-1.7,8-4.1,15.8-6.3,23.7a25.14,25.14,0,0,1-2.8,5.7c-.7,1.2-.5,2,.7,2.5,3.7,1.7,7.5,3.4,11.2,5.1a113.43,113.43,0,0,1,11.6,5.7c3.4,2.1,4.1,4.8,3.1,7.5a6.7,6.7,0,0,1-7.6,4.5,22.48,22.48,0,0,0-14.6,1.8c-5.5,2.7-11.9,1.9-17.9,1.3a134,134,0,0,1-41.2-11.6c-4.5-2-8.4-5.3-12.6-8.1-.5-.3-1.1-.9-1.6-.9-9,.2-17.4-2.7-25.9-5.3A41,41,0,0,1,62.8,478a27.6,27.6,0,0,1-4.7-8.4c-.8-2.1.2-3.7,2.5-5.1,5.8-3.3,11.9-3,18-2.2,6.4.8,12.7,2.2,19,3.3-2.5-39.4,5-76.5,31.9-107.3-2.2-1.9-4.6-3.5-6.2-5.7-3.5-4.9-2.7-13.7,1.2-18.1,2.2-2.5,4.7-3.8,8-3.2,1.8.4,2.8-.3,4.1-1.5,4.7-4.2,9.9-7.9,16.1-9.7a48.79,48.79,0,0,1,6.9-.7M174,491.1c-1.3,1.9-2.9,4.1-4.6,6.5,4.2,1.9,8.3,3.5,12.1,5.6a11.26,11.26,0,0,1,4.9,4.5,4.42,4.42,0,0,0,4.2,2.9c1.3.1,2.7.6,3.9.3,1.8-.5,3.9-1.2,4.9-2.5.6-.8-.1-3.4-1.1-4.5a17.71,17.71,0,0,0-5.9-5C186.5,496.1,180.4,493.8,174,491.1Zm16.9-113c.4-2.5.8-5.1,1.2-7.7-2.5-.5-3.8-.1-3.9,2.3a10,10,0,0,1-.4,2.4c-.5,2.3.5,3.2,3.1,3Zm8.2-31.1c-2.4,2.5-1.7,4.4,2.1,5.6C200.4,350.6,199.8,349,199.1,347Zm-6.4,28.2a1.85,1.85,0,0,0,.7.2c.7-2.2,1.5-4.4,2.4-7.1C191.8,370,194.3,373.2,192.7,375.2Z"/><path class="cls-7" d="M138,406c2.9,2.7,5.9,5.2,8.8,8a70.09,70.09,0,0,0,43.8,20c10.1.9,19.9-1.7,29.1-6,2.2-1,4.3-2.4,6.5-3.5.6-.3,1.3-.5,1.9-.8.2.2.3.5.5.7a23.3,23.3,0,0,1-3.6,2.8c-13.4,7.4-27.8,10.3-42.9,7.9-17.2-2.8-31.2-11.3-42.1-24.9a26.48,26.48,0,0,1-2.4-4C137.6,406.3,137.8,406.1,138,406Z"/><path class="cls-7" d="M164.1,399.4c2,2.4,4,4.7,6,7.1,9.6,11.7,22.3,14.6,36.5,12.1,4.4-.8,7.4-4.3,10.3-7.6.6-.7,1.2-1.6,1.8-2.4,1.8.9,1.5,2.1.7,3.4a24.37,24.37,0,0,1-24.8,10.3,47.44,47.44,0,0,1-17.8-7.4c-5.4-3.6-9.1-8.9-12.7-14.2a3.54,3.54,0,0,1-.3-1.1c.1,0,.2-.1.3-.2Z"/><path class="cls-7" d="M181.5,372.1c-.2,2.9-1.9,4.1-3.8,5.2a34.54,34.54,0,0,1-3.4,1.4c-3.3,1.4-6.6,2.9-9.5,4.1,1-2.6,3.7-4.4,6.9-5.2a15.53,15.53,0,0,0,8.3-4.8C180.2,372.5,180.8,372.4,181.5,372.1Z"/><path class="cls-7" d="M131.3,352.4c-2.3-4.5-3-9.1-1-14.1C133.5,343,132,347.7,131.3,352.4Z"/><path class="cls-7" d="M172.5,350.6c-1.4-1.6-2.6-3.6-4.4-4.5s-4.2-.7-6.3-1c1.7-2.2,6.2-2.3,8.8-.1S173.9,349,172.5,350.6Z"/><path class="cls-7" d="M215.9,418.4c3.2-2.7,6-5.2,9-7.7.5,4-4.5,8.5-9,7.7Z"/><path class="cls-7" d="M225.4,417.9c-1.8,3.9-5,5.7-8.8,5.4a4.88,4.88,0,0,1-.3-.7c2.8-1.4,5.6-2.9,9.1-4.7Z"/><path class="cls-8" d="M174,491.1c6.4,2.7,12.5,5,18.4,7.8a17.71,17.71,0,0,1,5.9,5c.9,1.1,1.7,3.7,1.1,4.5-1,1.3-3.1,2-4.9,2.5a10.47,10.47,0,0,1-3.9-.3,4.42,4.42,0,0,1-4.2-2.9c-.8-1.9-2.9-3.5-4.9-4.5-3.8-2.1-7.9-3.7-12.1-5.6C171.1,495.2,172.7,493,174,491.1Z"/><path class="cls-8" d="M190.9,378.1c-2.6.1-3.6-.7-3-3a20,20,0,0,0,.4-2.4c.1-2.3,1.4-2.8,3.9-2.3-.5,2.6-.9,5.2-1.3,7.7Z"/><path class="cls-8" d="M199.1,347c.7,2,1.3,3.5,2.1,5.6C197.4,351.4,196.7,349.5,199.1,347Z"/><path class="cls-8" d="M192.7,375.2c1.6-1.9-.8-5.2,3.1-6.9-.9,2.7-1.6,4.9-2.4,7.1A1.85,1.85,0,0,0,192.7,375.2Z"/><path class="cls-6" d="M79.1,485s1.4-11.7,11.3-17.1"/><path class="cls-6" d="M87,488s1.4-11.7,11.3-17.1"/><path class="cls-6" d="M69.3,483.6s1.8-13.3,14-19.2"/><path class="cls-6" d="M64.8,464.9s18.4-1.2,37.7,14.2"/><path class="cls-6" d="M62,469.4s17.9-.8,36.9,15.2"/><path class="cls-6" d="M63.3,475.5s14.4-.5,29,11.7"/><path class="cls-6" d="M93.3,490s1.1-9.4,9.4-13.7"/><path class="cls-7" d="M352.8,475.1c5.7-.6,11.1-1.3,16.5-1.6s10.4.6,14.9,3.6c6.6,4.3,5.9,11.3,1.1,16.3-5.5,5.7-12.9,8.2-20.3,10.2a84.85,84.85,0,0,1-30.9,3.1,5.7,5.7,0,0,0-3.4.5c-7.3,4.1-15.4,3.8-23.4,4.3-7.3.4-14.5.8-21.8.9-5.2.1-10.4-.1-15.6-.1-3.2,0-6.3.2-9.4-1.3-4.3-2.1-5.2-5.9-1.4-8.9a21.74,21.74,0,0,1,7.5-3.6c4.6-1.4,9.5-2.3,14.2-3.6a31.27,31.27,0,0,0,13.8-8.4c.7-.7,1.5-1.3,2.2-1.9.3.3.6.5.9.8-2.2,2.6-4,5.7-6.6,7.8-6.9,5.6-15.8,6.3-23.9,8.8-.9.3-2.1.5-2.6,1.2-.9,1.2-2.1,2.8-2.1,4.1.1,2,2.3,1.8,3.8,1.8,6.5,0,13,0,19.5-.1,7.2-.2,14.3-.6,21.5-1,4.6-.3,9.2-.8,13.8-1.1,5-.2,8.4-3.3,12.1-6.1.5-.4.8-.8,1.3-1.2,11.6-9,14.8-21.7,14.7-35.4a189.23,189.23,0,0,0-2.3-29.1c-1.6-9.3-4.6-18.4-7.3-27.5-3.4-11.8-10.2-21.8-17.8-31.2-2.3-2.8-5.3-4.9-8-7.3-1.2-1-2.4-2-3.5-3.1-.3-.4-.2-1.2-.3-1.8.5,0,1.2-.3,1.6-.1,3,1.9,6.3,3.4,8.8,5.8,7.1,6.8,12.4,15,17.1,23.5a124.38,124.38,0,0,1,12.2,30c4.3,16.7,6,33.5,3.1,50.5Z"/><path class="cls-7" d="M239.8,491.2c-.8-2.2-1.5-4.1-2.2-6a64.39,64.39,0,0,1-3.4-33.1c.7-4.3,2.3-8.5,3.6-12.8.2-.7,1.2-1.1,1.8-1.7a5.28,5.28,0,0,1,.4,2.4c-5.4,19.4-2.6,37.9,6.1,55.8a3.29,3.29,0,0,1,.7,1.6,11.63,11.63,0,0,1-.4,1.8,4.36,4.36,0,0,1-1.7-.7c-.6-.6-.9-1.4-1.5-2-.8-.7-1.7-1.7-2.6-1.7-4.1.2-8.3.4-11.9,2.8a4.31,4.31,0,0,0-1.9,4.5c.4,2.1,1.5,3.7,4,3.7,6.5.1,13,.1,19.5.2a10.55,10.55,0,0,1,2.4.6c0,.3.1.6.1.8-.9.4-1.7,1.2-2.6,1.3-5.6.7-11.1,1.4-16.7,1.6a29.45,29.45,0,0,1-8.7-1.5,7.4,7.4,0,0,1-5.5-6.4c-.1-2.7,2-6.6,4.8-7.5,4.1-1.3,8.4-2.2,12.7-3.2a20.73,20.73,0,0,0,3-.5Z"/><path class="cls-7" d="M261.7,461.2a26.81,26.81,0,0,1,2.7-.7c7.1-.8,13.2-4.1,19.1-7.8a71.27,71.27,0,0,0,10.7-8.3c5.6-5.3,9.3-11.8,10.1-19.6.6-5.7-.6-11.3-2.2-16.8-.2-.6-.9-1.4.3-1.8,1-.4,1.5.2,1.8,1a48.83,48.83,0,0,1,1.8,5.4,34.7,34.7,0,0,1-4.2,25.6c-3.1,5.3-7.6,9.3-12.7,12.8a86.81,86.81,0,0,1-18.3,9.7,38.87,38.87,0,0,1-7.7,1.5c-.5.1-1-.3-1.5-.4a1.27,1.27,0,0,0,.1-.6Z"/><path class="cls-7" d="M311.9,358.5a21.05,21.05,0,0,0,6.2-14.2c.3-5-2.4-8.5-6.2-11.1a6,6,0,0,0-7,.5c-3.4,2.5-6.5,3-10.5.8a31.36,31.36,0,0,0-10.4-3.6,55.06,55.06,0,0,0-27,2.7c-5.8,2-8.5,7-11,12.1a20,20,0,0,1-1,2.1c-.3-.1-.5-.1-.8-.2a27.13,27.13,0,0,1,.9-4.1,24.35,24.35,0,0,1,14.7-13.4c6.6-2.3,13.5-2.8,20.5-2.5a50.83,50.83,0,0,1,16.4,3.2,2.85,2.85,0,0,0,2.5-.4c7.3-5.2,19.4-.8,20.6,10a20.68,20.68,0,0,1-3.9,15.2,21.86,21.86,0,0,1-3.4,3.4C312.3,358.8,312.1,358.7,311.9,358.5Z"/><path class="cls-7" d="M253.6,366.8c-4.9-.1-8.2-3.7-8.1-8.9.1-5,4.7-9.6,9.5-9.6s7.9,4.1,7.8,9.8A9,9,0,0,1,253.6,366.8Zm6.7-12.3c-2.1,1.7-2.1,2.8,0,4.1Z"/><path class="cls-7" d="M271.7,372.5c0,3,0,6-1.9,8.8-1.3,2-2.4,4.1-3.8,6-.7.9-1.8,2-2.8,2.1-3.8.4-7.6.6-11.4.7-2.3.1-8.4-6.6-8.2-8.9,0-.2.2-.5.2-.7a32,32,0,0,0,4.5,3,4.31,4.31,0,0,0,5.1-.8c-2.2-4.1-4.2-8.3-1.8-13.5.6,2.6.9,4.8,1.5,7,1.3,4.8,3.7,6.7,8.4,6.8,3.2.1,6.1-2.1,7.6-6.1.6-1.5,1-3.1,1.5-4.6a5.43,5.43,0,0,1,1.1.2ZM257.6,386v1l4.5-.3V386Z"/><path class="cls-7" d="M233.3,410.8c-3,.2-5.6.3-8.3-.8-.5-.2-.7-1.1-1-1.7.7-.1,1.4-.4,1.9-.2,7.1,2.4,12.6-.3,17.2-5.5a42.2,42.2,0,0,0,3.8-4.6c1-1.5,3.2-2.1,3.4-.7a2.82,2.82,0,0,1-.8,2.5c-.6.9-8.2,9.8-16.2,11Z"/><path class="cls-7" d="M239.8,360.1a22.68,22.68,0,0,1-.6,2.5c-2.8,8.4-1.1,15.9,3.9,22.9.4.6.2,1.6.2,2.4-.8-.1-2,.1-2.4-.3a18.05,18.05,0,0,1-2.4-3.7c-3.6-7.3-4.5-14.8-.7-22.4a20.28,20.28,0,0,1,1.3-1.8A5.74,5.74,0,0,0,239.8,360.1Z"/><path class="cls-7" d="M311.9,351.9c-1-.6-1.5-.9-1.9-1.2s-.4-.6-.6-.8c-2.3-1.9-3.6-3.9-2-7.1.6-1.3-.5-3.3-.7-5a3.53,3.53,0,0,1,.4-1.7c.5.2,1.1.3,1.3.6,2.3,4,4.5,8.1,4.4,12.9a6.77,6.77,0,0,1-.9,2.3Z"/><path class="cls-7" d="M268.2,458.1c-2.4.4-4.7.8-7,1-.4,0-1-.7-1.5-1a5.48,5.48,0,0,1,1.5-.8c2.1-.4,4.2-.6,6.2-.9a6.11,6.11,0,0,1,1.3.3A6,6,0,0,1,268.2,458.1Z"/><path class="cls-7" d="M221.9,422.4c-2.5-1.1-4.8-2-7-3.1-.4-.2-.5-1.1-.7-1.6a5.34,5.34,0,0,1,2-.5,46.07,46.07,0,0,1,6.4,1.6c.8.3,1.4,1.2,2,1.8-.8.5-1.6,1.1-2.7,1.8Z"/><path class="cls-7" d="M257.6,453.9c2.9-.3,5.9-.7,8.8-1,0,.2.1.5.1.7a11.67,11.67,0,0,1-7.3,1.7c-.6,0-1.2-.6-1.8-1,0-.1.1-.2.2-.4Z"/><path class="cls-7" d="M220.3,423.9c-2.6,2.8-9.4,1.6-12.1-1.8.6-.3,1.2-.9,1.6-.8,3.5.8,6.8,1.7,10.5,2.6Z"/><path class="cls-7" d="M217,412.8a14.64,14.64,0,0,1,2.1,0,36.85,36.85,0,0,1,4.5,1.1,8.78,8.78,0,0,1,2.1,1.2c-.7.6-1.3,1.5-2.1,1.6-3.3.7-5.3-.5-6.6-3.9Z"/><path class="cls-7" d="M265.4,449c-.2.5-.2,1.1-.4,1.1-1.7.4-3.4.7-5.1,1-.2,0-.6-.5-.7-.8a1.44,1.44,0,0,1,.7-.6C261.6,449.5,263.3,449.3,265.4,449Z"/><path class="cls-8" d="M260.3,354.5v4.1C258.2,357.3,258.2,356.2,260.3,354.5Z"/><path class="cls-8" d="M257.6,385.3h4.5v1.9c-1.5.2-3,.5-4.5.7Z"/><path class="cls-8" d="M252.4,385.4h4.5v1.5c-1.5.2-3,.4-4.5.5A13.33,13.33,0,0,0,252.4,385.4Z"/><path class="cls-6" d="M367.5,499.8s-6.5-11.2-2.4-22.8"/><path class="cls-6" d="M375.5,497s-6.5-11.2-2.4-22.8"/><path class="cls-6" d="M359.1,505.4s-7.2-12.9-1.7-26.4"/><path class="cls-6" d="M343.6,492s13.3-13.6,38-13.3"/><path class="cls-6" d="M344.5,497.8s13.2-13,38-12"/><path class="cls-6" d="M349.3,502.3s10.6-10.3,29.7-9.6"/><path class="cls-6" d="M350.9,502.7s-5.2-9-1.7-18.5"/><path class="cls-6" d="M381.6,494.5s-5.2-9-1.7-18.5"/><path class="cls-7" d="M284.1,349.3c-4.4-2.6-7.4.9-10.8,2.6-.3-2.4.9-3.9,3.3-4.7C280.1,346.1,282.8,346.6,284.1,349.3Z"/><path class="cls-7" d="M215.7,427.5a12.86,12.86,0,0,1,1.9.4c4.6,1.7,9.4,1.7,14.2,1.2a57.32,57.32,0,0,0,9.2-1.7,21.42,21.42,0,0,0,12.4-8.8,28.43,28.43,0,0,0,3.9-11c.1-.5-.1-1.1.8-1a.91.91,0,0,1,.8,1.2c-.2,1.3-.3,2.6-.6,3.9a24.13,24.13,0,0,1-10.6,14.4,28.9,28.9,0,0,1-11.8,3.9,62.19,62.19,0,0,1-14.3.2,23.77,23.77,0,0,1-5.2-1.5c-.3-.1-.5-.5-.8-.7a.44.44,0,0,1,.1-.5Z"/><path class="cls-6" d="M63.3,479s1.43-12.16,11.14-17.56"/><path class="cls-9" d="M49.68,82.58c1.11-1.76,2.18-3.53,3.45-5.16.53-.7,2.09-.42,2.83.24.28.25.28.41.08.7a49.5,49.5,0,0,0-3.9,5.33,40,40,0,0,0,1.77,5c.12.33.08.49-.25.66-.9.41-2.5.2-2.79-.58a47.47,47.47,0,0,1-1.43-4.67A1.82,1.82,0,0,1,49.68,82.58Zm5,0a59.66,59.66,0,0,1,3.4-5.16c.53-.7,2.09-.42,2.87.24.24.25.24.41,0,.7a53.84,53.84,0,0,0-3.89,5.33,47.52,47.52,0,0,0,1.76,5c.12.33.08.49-.25.66-.9.41-2.5.2-2.79-.58a47.47,47.47,0,0,1-1.43-4.67A1.72,1.72,0,0,1,54.69,82.58Z"/><path class="cls-9" d="M85.93,72.66a2.62,2.62,0,0,1,1,1.88c0,2.88-4.18,6.4-4.18,9.35,0,.13,0,.25-.21.25-1,0-2.66-1.11-2.66-2.34,0-3,4.14-5,4.14-7.58,0-1-.41-1.89-1.6-1.89-8,0-14.92,22.14-6,22.14a6,6,0,0,0,3.2-.94c.17-.08.25,0,.33.12a.85.85,0,0,1,0,.62c-.57,1.76-2.42,2.33-4.1,2.33h-.41a9.47,9.47,0,0,1-.82.86c1,.21,1.56.74,1.56,1.56a2.31,2.31,0,0,1-2.54,2.09c-.91,0-2-.49-2-1.51,0-.17.12-.29.28-.21a3,3,0,0,0,1.52.57c1.6,0,1.89-1.35.53-1.35-.32,0-1-1.35-.86-1.43a6.52,6.52,0,0,0,.86-.78C62.56,94.06,69.36,70,81.13,70,83.43,70,85.27,70.94,85.93,72.66Z"/><path class="cls-9" d="M89.29,92.17a.59.59,0,0,0,0-.28c-1.19,2.5-2.75,4.63-4.59,4.63A2.6,2.6,0,0,1,82,94c-.53-4.47,1.77-11.56,5.83-13.74,1.27-.73,2.74.25,4.22,1a2.16,2.16,0,0,0,.2-.54c.17-.32.37-.53.62-.53a5.31,5.31,0,0,1,2.62,1.19c.45.33,0,.86-.2,1.27A70.44,70.44,0,0,0,92.41,94c-.13.61.24.61.57.29,2.5-2.5,4.22-7.3,5.29-10.09a.57.57,0,0,1,1.06.41c-1.06,2.75-4.46,11.93-8,11.93a2.5,2.5,0,0,1-2.26-2.79C89.17,93.2,89.21,92.71,89.29,92.17Zm1.93-8.69a7.06,7.06,0,0,1,.41-1.06,1.12,1.12,0,0,0-1-.54c-2.83,0-5,7.06-5.24,10.58-.05.45-.13,1.93.53,1.93C87.9,94.39,90.6,85.41,91.22,83.48Z"/><path class="cls-9" d="M108.72,91.85c-1.15,2.46-2.74,4.67-4.75,4.67s-2.91-1.56-3-3.32c-.2-4.43,1.77-10.91,5.58-13,1.31-.73,2.87.29,4,.86,1.27-5.86,2.91-11,3.85-11S118,71.14,118,71.76a.22.22,0,0,1-.12.2,4.43,4.43,0,0,0-.5.7c-2,3.69-4.71,15.17-5.45,21-.12.9.08,1.07.66.45,2.38-2.54,4.22-7.17,5.25-9.88a.57.57,0,0,1,1.06.41c-1.06,2.75-4.63,11.93-8.16,11.93-2.29,0-2.21-2.42-2.09-4C108.68,92.3,108.72,92.09,108.72,91.85Zm-4.26.16c-.12,1.39.2,2.26.82,2.26.41,0,.94-.41,1.52-1.32a26.27,26.27,0,0,0,2.54-5.57c.24-1.56.57-3.2.9-4.84a1,1,0,0,0-.9-.66C106.63,81.88,104.83,88.4,104.46,92Z"/><path class="cls-9" d="M120.08,96.52c-9.88,0-4.35-16.52,1.52-16.52,1.56,0,4.3,2.09,4.3,3.89,0,3.82-4.47,6.77-7.62,6.77-.09,2.17.57,3.93,2.46,3.93,3.32,0,6.31-6.72,7.7-10.45.25-.7,1.32-.25,1,.45C128,88.61,124.71,96.52,120.08,96.52Zm1.64-14.06c-1.64,1.23-3,4.47-3.36,7.25,2.21,0,4.67-3.32,4.67-6.6C123,82.25,122.33,82,121.72,82.46ZM125.08,73c-.41,0-.57,0-.57.2a2.53,2.53,0,0,1,0,.41,4.62,4.62,0,0,1-2.17,4c-.17.08-.09.25.12.25,1.39,0,4.1-.66,4.59-2.71a3,3,0,0,0-.16-1.68C126.64,73,125.66,73,125.08,73Z"/><path class="cls-9" d="M129.43,79.83c.82,0,3.56,1.07,3.56,1.73,0,.08,0,.12-.08.2a4,4,0,0,0-.49.66A18.11,18.11,0,0,0,131,85.94a39.83,39.83,0,0,1,2.74-4.34c.82-1.11,1.77-1.93,2.71-1.93,1.76,0,3.36,2.21,3.36,3.57a16.78,16.78,0,0,1-2.34,7.34,14.7,14.7,0,0,0,4.88-6.44.58.58,0,0,1,1.07.45,16.18,16.18,0,0,1-7.38,8.2c-1.6,2.17-3.49,3.73-4.92,3.73a3.51,3.51,0,0,1-2.34-.78,76.17,76.17,0,0,0-1.23,10.09c0,.33-.12.49-.49.49-1,0-2.71-.94-2.71-1.8C124.38,97.55,127.7,79.83,129.43,79.83ZM129.35,93c-.09.33-.13.62-.21,1a2.43,2.43,0,0,1,1.07-.33,10.43,10.43,0,0,0,2.33-.57,20.53,20.53,0,0,0,3.53-9.89c0-.78-.25-1.23-.62-1.19a.92.92,0,0,0-.65.37A29.11,29.11,0,0,0,129.35,93Z"/><path class="cls-9" d="M146.11,80c1.56,0,4.31,2.09,4.31,3.89,0,3.82-4.47,6.77-7.63,6.77-.08,2.17.58,3.93,2.46,3.93,3.32,0,6.32-6.72,7.71-10.45.25-.7,1.31-.25,1,.45-1.48,4-4.76,11.93-9.39,11.93C134.72,96.52,140.25,80,146.11,80Zm-3.24,9.71c2.22,0,4.68-3.32,4.68-6.6,0-.86-.7-1.14-1.31-.65C144.6,83.69,143.2,86.93,142.87,89.71Z"/><path class="cls-9" d="M153.37,80.69a.74.74,0,0,1,.57-.53,5.32,5.32,0,0,1,2.67,1.19c.41.33,0,.86-.21,1.27a61.53,61.53,0,0,0-2,6.52c1.48-3.16,3.65-7,5.62-8.69a1.07,1.07,0,0,1,.78-.29c.58,0,2.75.74,2.75,1.52a.86.86,0,0,1-.13.45c-.16.33-.28.66-.45,1A72.62,72.62,0,0,0,160.09,94c-.12.61.17.7.58.29,2.5-2.5,4.38-7.3,5.45-10.09a.57.57,0,0,1,1.07.41c-1.07,2.75-4.64,11.93-8.16,11.93a2.22,2.22,0,0,1-2.38-2.17,60.28,60.28,0,0,1,2.75-11.77c-2.75,3-6.19,10.7-6.4,13.49,0,.41-.25.45-.49.45-1,0-2.58-1.11-2.58-2A48.59,48.59,0,0,1,153.37,80.69Z"/><path class="cls-9" d="M170.67,91.85c-1.15,2.46-2.75,4.67-4.75,4.67s-2.92-1.56-3-3.32c-.2-4.43,1.77-10.91,5.58-13,1.31-.73,2.87.29,4,.86,1.27-5.86,2.91-11,3.85-11S180,71.14,180,71.76a.22.22,0,0,1-.12.2,4.43,4.43,0,0,0-.5.7c-2.05,3.69-4.71,15.17-5.45,21-.12.9.08,1.07.66.45,2.38-2.54,4.22-7.17,5.25-9.88a.57.57,0,0,1,1.06.41c-1.06,2.75-4.63,11.93-8.16,11.93-2.29,0-2.21-2.42-2.09-4C170.63,92.3,170.67,92.09,170.67,91.85Zm-4.26.16c-.12,1.39.2,2.26.82,2.26.41,0,.94-.41,1.51-1.32a25.78,25.78,0,0,0,2.55-5.57c.24-1.56.57-3.2.9-4.84a1,1,0,0,0-.9-.66C168.58,81.88,166.78,88.4,166.41,92Z"/><path class="cls-9" d="M189,84a58.57,58.57,0,0,1-3.45,5.2c-.49.7-2.09.41-2.83-.24-.28-.25-.24-.41,0-.7a56.87,56.87,0,0,0,3.9-5.33,46.78,46.78,0,0,0-1.77-5c-.12-.33-.12-.5.25-.66.9-.41,2.46-.21,2.79.57.57,1.52,1,3.12,1.43,4.68A1.71,1.71,0,0,1,189,84Zm5,0a58.22,58.22,0,0,1-3.41,5.2c-.53.7-2.13.41-2.87-.24-.24-.25-.24-.41,0-.7a55.13,55.13,0,0,0,3.9-5.33,49,49,0,0,0-1.76-5c-.13-.33-.09-.5.24-.66.9-.41,2.5-.21,2.79.57a48.5,48.5,0,0,1,1.43,4.68A1.71,1.71,0,0,1,193.92,84Z"/><path class="cls-9" d="M196,96.56c-2.63-.08-1.36-4.88.08-4.84,1.6,0,2.66.7,2.66,2C198.75,94.47,197.89,96.6,196,96.56Zm5.82,0c-2.63-.08-1.35-4.88.12-4.84s2.63.7,2.63,2C204.58,94.47,203.76,96.6,201.83,96.56Zm5.82,0c-2.62-.08-1.35-4.88.08-4.84,1.6,0,2.67.7,2.67,2C210.36,94.47,209.54,96.6,207.65,96.56Z"/><path class="cls-9" d="M227.86,70a4.85,4.85,0,0,1,2,.7c10.17,0,4.92,25.87-5.45,25.87s-7.26-19.27-.41-25A6.12,6.12,0,0,1,227.86,70Zm3.57,5.37c-.2-2.21-1.11-3.23-2.25-3.23a4.12,4.12,0,0,0-2.83,1.76c-4.55,5.37-6.85,20.62-1.89,20.62C228.6,94.51,232.09,81.6,231.43,75.36Z"/><path class="cls-9" d="M241.64,92.17a2.55,2.55,0,0,0,.08-.28c-1.23,2.5-2.75,4.63-4.59,4.63a3,3,0,0,1-2.91-2.79c.08-.53.12-1,.2-1.56a50.27,50.27,0,0,1,3.16-11.48c.16-.32.37-.53.62-.53a5.35,5.35,0,0,1,2.62,1.19c.41.33,0,.86-.2,1.27a71.75,71.75,0,0,0-2.88,10.29c-.2,1,.09,1.48.54,1.48,2,0,4.84-9,5.49-10.91.33-1,.66-1.92,1-2.79.16-.32.41-.53.61-.53A5.38,5.38,0,0,1,248,81.35c.45.33,0,.86-.17,1.27A69.39,69.39,0,0,0,244.76,94c-.13.61.24.61.61.29,2.46-2.5,4.35-7.3,5.41-10.09a.57.57,0,0,1,1.07.41c-1.07,2.75-4.63,11.93-8.16,11.93a2.53,2.53,0,0,1-2.26-2.79C241.52,93.2,241.6,92.71,241.64,92.17Z"/><path class="cls-9" d="M247.79,92.17A51.31,51.31,0,0,1,251,80.69c.16-.32.37-.53.61-.53a5.31,5.31,0,0,1,2.62,1.19c.46.33,0,.86-.16,1.27A69.39,69.39,0,0,0,250.91,94c-.13.61.24.61.57.29,2.5-2.5,4.39-7.3,5.45-10.09a.57.57,0,0,1,1.07.41c-1.07,2.75-4.63,11.93-8.16,11.93a2.49,2.49,0,0,1-2.26-2.79C247.67,93.2,247.71,92.71,247.79,92.17Zm7.38-20.54a7.58,7.58,0,0,1,2.42,1.11c.61.41.61.94.16,1.68C257,75.65,254.8,79,253.82,79c-2.34.09-.17-5.24.36-6.23C254.55,72,254.88,71.63,255.17,71.63Z"/><path class="cls-9" d="M266.53,80c1.92,0,3.93,1.76,3.93,3.52,0,2.22-1.19,4.64-2.13,4.64a4,4,0,0,1-2.25-1.27c-.33-.33-.13-.74.32-1a4.62,4.62,0,0,0,1.89-2.34c.41-1.06.2-1.64-.33-1.64-3.44,0-7.34,12.67-2.3,12.67,3.65,0,6.2-6.76,7.71-10.45a.56.56,0,0,1,1,.45c-1.52,3.73-4.31,11.48-9,11.93a7.63,7.63,0,0,1-.86.94c1,.21,1.56.74,1.56,1.56a2.32,2.32,0,0,1-2.55,2.09c-.94,0-2-.49-2-1.51,0-.17.13-.29.29-.21a2.88,2.88,0,0,0,1.48.57c1.64,0,1.92-1.35.57-1.35-.33,0-1-1.35-.86-1.43a6.5,6.5,0,0,0,.82-.74C255.62,95.21,261.2,80,266.53,80Z"/><path class="cls-9" d="M277.27,92.17a.59.59,0,0,0,0-.28c-1.19,2.5-2.75,4.63-4.59,4.63A2.59,2.59,0,0,1,270,94c-.53-4.47,1.76-11.56,5.82-13.74,1.27-.73,2.75.25,4.23,1a2.16,2.16,0,0,0,.2-.54c.16-.32.37-.53.62-.53a5.31,5.31,0,0,1,2.62,1.19c.45.33,0,.86-.21,1.27A72.59,72.59,0,0,0,280.38,94c-.12.61.25.61.58.29,2.5-2.5,4.22-7.3,5.29-10.09a.57.57,0,0,1,1.06.41c-1.06,2.75-4.47,11.93-8,11.93a2.49,2.49,0,0,1-2.26-2.79C277.14,93.2,277.19,92.71,277.27,92.17Zm1.92-8.69a10.16,10.16,0,0,1,.41-1.06,1.09,1.09,0,0,0-1-.54c-2.83,0-5,7.06-5.25,10.58,0,.45-.12,1.93.54,1.93C275.87,94.39,278.58,85.41,279.19,83.48Z"/><path class="cls-9" d="M294.36,96.52C284.48,96.52,290,80,295.88,80c1.56,0,4.31,2.09,4.31,3.89,0,3.82-4.47,6.77-7.63,6.77-.08,2.17.57,3.93,2.46,3.93,3.32,0,6.31-6.72,7.71-10.45.24-.7,1.31-.25,1,.45C302.28,88.61,299,96.52,294.36,96.52ZM296,82.46c-1.64,1.23-3,4.47-3.36,7.25,2.22,0,4.68-3.32,4.68-6.6A.76.76,0,0,0,296,82.46ZM299.37,73c-.41,0-.58,0-.58.2a2.53,2.53,0,0,1,0,.41,4.62,4.62,0,0,1-2.17,4c-.16.08-.08.25.12.25,1.4,0,4.1-.66,4.59-2.71a2.81,2.81,0,0,0-.16-1.68C300.92,73,299.94,73,299.37,73Z"/><path class="cls-9" d="M312.32,83.11c-.66,1.52-1.56,3.41-2.58,5.29a1.87,1.87,0,0,0,1.19.17c1.31-.25,2.5-1.6,4.06-4.47a.56.56,0,1,1,1,.53c-1.72,3.2-3.24,4.76-4.84,5a2.76,2.76,0,0,1-1.93-.28,45.59,45.59,0,0,1-4,6.11,2.31,2.31,0,0,1-1.6,1c-1.23,0-3.53-1-3.53-2.34a54.19,54.19,0,0,1,1.64-13.44c.13-.37.33-.62.7-.62a5.78,5.78,0,0,1,2.62.82c.46.29.05.9,0,1.27A76.62,76.62,0,0,0,303,94c0,.37.09.49.37.12a62.57,62.57,0,0,0,4.39-8,10.27,10.27,0,0,1,2-5.54c.37-.57.9-.49,1.39-.2A2.33,2.33,0,0,1,312.32,83.11Z"/><path class="cls-9" d="M312,92.17a51.85,51.85,0,0,1,3.16-11.48c.16-.32.37-.53.61-.53a5.34,5.34,0,0,1,2.63,1.19c.45.33,0,.86-.17,1.27A69.39,69.39,0,0,0,315.07,94c-.12.61.24.61.57.29,2.5-2.5,4.39-7.3,5.45-10.09a.57.57,0,0,1,1.07.41c-1.07,2.75-4.63,11.93-8.16,11.93a2.48,2.48,0,0,1-2.25-2.79C311.83,93.2,311.87,92.71,312,92.17Zm7.38-20.54a7.58,7.58,0,0,1,2.42,1.11c.62.41.62.94.16,1.68C321.18,75.65,319,79,318,79c-2.34.09-.16-5.24.37-6.23C318.72,72,319,71.63,319.33,71.63Z"/><path class="cls-9" d="M325.69,91.85c-1.15,2.46-2.75,4.67-4.76,4.67s-2.91-1.56-3-3.32c-.21-4.43,1.76-10.91,5.57-13,1.32-.73,2.87.29,4,.86,1.27-5.86,2.91-11,3.86-11s3.6,1.06,3.6,1.68a.22.22,0,0,1-.12.2,4.38,4.38,0,0,0-.49.7c-2.05,3.69-4.72,15.17-5.45,21-.13.9.08,1.07.65.45,2.38-2.54,4.22-7.17,5.25-9.88a.57.57,0,0,1,1.07.41c-1.07,2.75-4.64,11.93-8.16,11.93-2.3,0-2.22-2.42-2.09-4C325.65,92.3,325.69,92.09,325.69,91.85Zm-4.27.16c-.12,1.39.21,2.26.82,2.26.41,0,.95-.41,1.52-1.32a26.27,26.27,0,0,0,2.54-5.57c.25-1.56.58-3.2.9-4.84a1,1,0,0,0-.9-.66C323.6,81.88,321.79,88.4,321.42,92Z"/><path class="cls-9" d="M338.56,80c1.56,0,4.31,2.09,4.31,3.89,0,3.82-4.47,6.77-7.63,6.77-.08,2.17.57,3.93,2.46,3.93,3.32,0,6.31-6.72,7.71-10.45.24-.7,1.31-.25,1,.45-1.47,4-4.75,11.93-9.39,11.93C327.16,96.52,332.7,80,338.56,80Zm-3.24,9.71c2.22,0,4.68-3.32,4.68-6.6a.76.76,0,0,0-1.32-.65C337,83.69,335.65,86.93,335.32,89.71Z"/><path class="cls-9" d="M345.82,80.69a.74.74,0,0,1,.57-.53,5.52,5.52,0,0,1,2.67,1.19c.41.33-.05.86-.21,1.27a57.21,57.21,0,0,0-2,6.52c1.48-3.16,3.65-7,5.62-8.69a1.05,1.05,0,0,1,.78-.29,4.83,4.83,0,0,1,2.58,1.11c.25.33.17.53,0,.86a59.36,59.36,0,0,0-2.21,7c1.47-3.16,3.65-7,5.62-8.69a1.11,1.11,0,0,1,.77-.29c.62,0,2.79.74,2.79,1.52a1.88,1.88,0,0,1-.12.45,4.4,4.4,0,0,0-.45,1A67.44,67.44,0,0,0,359.35,94c-.13.61.16.7.61.29,2.46-2.5,4.35-7.3,5.41-10.09a.57.57,0,0,1,1.07.41c-1.07,2.75-4.63,11.93-8.16,11.93a2.25,2.25,0,0,1-2.38-2.17,60.28,60.28,0,0,1,2.75-11.77c-2.71,3-6.19,10.7-6.36,13.49,0,.41-.28.45-.53.45-1,0-2.58-1.11-2.58-2a50.75,50.75,0,0,1,2.7-11.93c-2.74,3-6.23,10.66-6.43,13.45,0,.41-.25.45-.49.45-1,0-2.59-1.11-2.59-2A48.6,48.6,0,0,1,345.82,80.69Z"/><path class="cls-9" d="M369.15,80c1.55,0,4.3,2.09,4.3,3.89,0,3.82-4.47,6.77-7.62,6.77-.09,2.17.57,3.93,2.46,3.93,3.32,0,6.31-6.72,7.7-10.45.25-.7,1.31-.25,1,.45-1.48,4-4.76,11.93-9.39,11.93C357.75,96.52,363.28,80,369.15,80Zm-3.24,9.71c2.21,0,4.67-3.32,4.67-6.6,0-.86-.7-1.14-1.31-.65C367.63,83.69,366.23,86.93,365.91,89.71Z"/><path class="cls-9" d="M376.4,80.69a.75.75,0,0,1,.58-.53,5.29,5.29,0,0,1,2.66,1.19c.41.33,0,.86-.2,1.27a57.21,57.21,0,0,0-2,6.52c1.47-3.16,3.65-7,5.61-8.69a1.08,1.08,0,0,1,.78-.29c.58,0,2.75.74,2.75,1.52a1,1,0,0,1-.12.45c-.17.33-.29.66-.45,1A71.42,71.42,0,0,0,383.13,94c-.13.61.16.7.57.29,2.5-2.5,4.39-7.3,5.45-10.09a.57.57,0,0,1,1.07.41c-1.07,2.75-4.63,11.93-8.16,11.93a2.22,2.22,0,0,1-2.38-2.17,60.28,60.28,0,0,1,2.75-11.77c-2.75,3-6.19,10.7-6.4,13.49,0,.41-.24.45-.49.45-1,0-2.58-1.11-2.58-2A48.92,48.92,0,0,1,376.4,80.69Z"/><path class="cls-9" d="M394.2,75.69a11.82,11.82,0,0,0-.41,1.23,6.69,6.69,0,0,1,3.07.5c.25.12.49,1.23.49,1.63s0,.37-.16.46h-.12a12.67,12.67,0,0,0-3.94-.46,118.35,118.35,0,0,0-3.28,14.56c-.08.9.08,1.07.66.45a35.85,35.85,0,0,0,5.9-9.88.57.57,0,0,1,1.07.41c-1.07,2.75-5.5,11.93-8.82,11.93-2.29,0-2.21-2.42-2.09-4a96,96,0,0,1,2.5-13.32h-.9c-.78,0-2.58,0-3-1.07-.13-.33-.05-.49.36-.49a30.66,30.66,0,0,0,4-.33,25.52,25.52,0,0,1,.94-3.11c.41-1,.83-1.52,1.19-1.52.82,0,3.33,1,3.33,1.68,0,.08-.05.12-.13.2s-.08.13-.12.17A2.48,2.48,0,0,0,394.2,75.69Z"/><path class="cls-9" d="M398.25,94.76c-.65,2.95-2.29,4-4.05,4-.21,0-.21-.16-.09-.28a4.44,4.44,0,0,0,1.36-1.64c.08-.17.08-.25-.09-.29-2.21-.41-1-4.84.41-4.8a3.34,3.34,0,0,1,2.18.74C398.62,93.12,398.42,93.94,398.25,94.76Z"/><path class="cls-9" d="M74.65,107.69c2.55,0,4.68,1.77,4.68,3.61A15.1,15.1,0,0,1,78.14,117a15.61,15.61,0,0,0,4.22-5.9.58.58,0,0,1,1.07.45,16.22,16.22,0,0,1-6.4,7.63c-1.52,2.5-3.69,4.3-6.11,4.3-3,0-4.71-3-4.71-5.08,0-4.06,2.09-9.39,5.53-11.2A3,3,0,0,1,74.65,107.69Zm-4.14,12.88a10.19,10.19,0,0,0,2.38-.53,18.1,18.1,0,0,0,2.62-8.74c0-2.7-1.47-2.87-3-1.27-2.34,2.58-3.48,8.41-2.46,10.62A1.24,1.24,0,0,1,70.51,120.57Z"/><path class="cls-9" d="M82.57,107.69a.73.73,0,0,1,.57-.53,5.29,5.29,0,0,1,2.66,1.19c.41.33,0,.86-.2,1.27a57.21,57.21,0,0,0-2,6.52c1.48-3.16,3.65-7,5.62-8.69a1.05,1.05,0,0,1,.78-.29c.57,0,2.74.74,2.74,1.52a1,1,0,0,1-.12.45c-.16.33-.29.66-.45,1A71.42,71.42,0,0,0,89.29,121c-.12.61.16.7.57.29,2.5-2.5,4.39-7.3,5.46-10.09a.57.57,0,0,1,1.06.41c-1.06,2.75-4.63,11.93-8.16,11.93a2.22,2.22,0,0,1-2.38-2.17,60.28,60.28,0,0,1,2.75-11.77c-2.75,3-6.19,10.7-6.39,13.49,0,.41-.25.45-.5.45-1,0-2.58-1.11-2.58-2A48.6,48.6,0,0,1,82.57,107.69Z"/><path class="cls-9" d="M110.61,110.11c-.66,1.52-1.56,3.41-2.58,5.29a1.83,1.83,0,0,0,1.18.17c1.32-.25,2.51-1.6,4.06-4.47a.56.56,0,1,1,1,.53c-1.72,3.2-3.24,4.76-4.84,5a2.76,2.76,0,0,1-1.93-.28,45.59,45.59,0,0,1-4,6.11,2.31,2.31,0,0,1-1.6,1c-1.23,0-3.53-1-3.53-2.34A53.73,53.73,0,0,1,100,107.74c.12-.37.33-.62.7-.62a5.78,5.78,0,0,1,2.62.82c.45.29,0,.9,0,1.27a76.62,76.62,0,0,0-2,11.81c0,.37.08.49.37.12a62.57,62.57,0,0,0,4.39-8,10.27,10.27,0,0,1,2-5.54c.37-.57.9-.49,1.39-.2A2.35,2.35,0,0,1,110.61,110.11Z"/><path class="cls-9" d="M118.44,107.69c2.54,0,4.67,1.77,4.67,3.61a15.1,15.1,0,0,1-1.19,5.74,15.63,15.63,0,0,0,4.23-5.9.58.58,0,0,1,1.06.45,16.2,16.2,0,0,1-6.39,7.63c-1.52,2.5-3.69,4.3-6.11,4.3-2.95,0-4.72-3-4.72-5.08,0-4.06,2.09-9.39,5.54-11.2A3,3,0,0,1,118.44,107.69Zm-4.14,12.88a10.3,10.3,0,0,0,2.38-.53,18.21,18.21,0,0,0,2.62-8.74c0-2.7-1.48-2.87-3-1.27-2.34,2.58-3.49,8.41-2.46,10.62A1.19,1.19,0,0,1,114.3,120.57Z"/><path class="cls-9" d="M130.37,119.17a2.55,2.55,0,0,0,.08-.28c-1.23,2.5-2.75,4.63-4.59,4.63a3,3,0,0,1-2.91-2.79c.08-.53.12-1,.2-1.56a50.27,50.27,0,0,1,3.16-11.48c.16-.32.37-.53.61-.53a5.34,5.34,0,0,1,2.63,1.19c.41.33,0,.86-.21,1.27a73,73,0,0,0-2.87,10.29c-.2,1,.09,1.48.54,1.48,2,0,4.84-9,5.49-10.91.33-1,.66-1.92,1-2.79.16-.32.41-.53.61-.53a5.38,5.38,0,0,1,2.63,1.19c.45.33-.05.86-.17,1.27A69.39,69.39,0,0,0,133.49,121c-.13.61.24.61.61.29,2.46-2.5,4.35-7.3,5.41-10.09a.57.57,0,0,1,1.07.41c-1.07,2.75-4.63,11.93-8.16,11.93a2.53,2.53,0,0,1-2.26-2.79C130.25,120.2,130.33,119.71,130.37,119.17Z"/><path class="cls-9" d="M135.9,120a3.5,3.5,0,0,1,2.83-1.51c.91-.13,1.85-.13,2.63-.29-.37-2.46-3.2-4-3.2-7.13a4.29,4.29,0,0,1,4.51-4.19c1.48,0,3.36,2.09,3.36,3.57,0,.86-.9,2.38-1.47,2.38-.91,0-2.18-.62-2.18-1a.21.21,0,0,1,.08-.16c.7,0,1.28-1.11,1.28-1.89,0-.49-.21-.9-.66-.9-1,0-1.48,1.76-1.48,2.5,0,2.18,2.22,3.73,3.08,5.58a9.67,9.67,0,0,0,4.39-5.7c.2-.7,1.27-.33,1.06.37a10.52,10.52,0,0,1-5.08,6.44c.49,3.6-3.41,5.78-6.56,5.78C135.86,123.77,134.84,121.59,135.9,120Zm2.22-.28a1.24,1.24,0,1,0,.7,2.33,4.35,4.35,0,0,0,2.5-2.66C140.45,119.54,139.06,119.42,138.12,119.67Z"/><path class="cls-9" d="M159.52,118.85c-1.15,2.46-2.75,4.67-4.76,4.67s-2.91-1.56-3-3.32c-.2-4.43,1.76-10.91,5.58-13,1.31-.73,2.87.29,4,.86,1.28-5.86,2.92-11,3.86-11s3.61,1.06,3.61,1.68a.21.21,0,0,1-.13.2,4.38,4.38,0,0,0-.49.7c-2.05,3.69-4.71,15.17-5.45,21-.12.9.08,1.07.65.45,2.38-2.54,4.23-7.17,5.25-9.88a.57.57,0,0,1,1.07.41c-1.07,2.75-4.63,11.93-8.16,11.93-2.3,0-2.21-2.42-2.09-4C159.48,119.3,159.52,119.09,159.52,118.85Zm-4.26.16c-.13,1.39.2,2.26.82,2.26.41,0,.94-.41,1.51-1.32a25.31,25.31,0,0,0,2.54-5.57c.25-1.56.58-3.2.91-4.84a1,1,0,0,0-.91-.66C157.43,108.88,155.62,115.4,155.26,119Z"/><path class="cls-9" d="M172.39,107c1.56,0,4.31,2.09,4.31,3.89,0,3.82-4.47,6.77-7.63,6.77-.08,2.17.58,3.93,2.46,3.93,3.32,0,6.32-6.72,7.71-10.45.25-.7,1.31-.25,1,.45-1.47,4-4.75,11.93-9.38,11.93C161,123.52,166.53,107,172.39,107Zm-3.24,9.71c2.22,0,4.68-3.32,4.68-6.6,0-.86-.7-1.14-1.31-.65C170.88,110.69,169.48,113.93,169.15,116.71Z"/><path class="cls-9" d="M179.65,107.69a.74.74,0,0,1,.57-.53,5.48,5.48,0,0,1,2.67,1.19c.41.33,0,.86-.21,1.27a61.53,61.53,0,0,0-2,6.52c1.48-3.16,3.65-7,5.62-8.69a1.07,1.07,0,0,1,.78-.29,4.83,4.83,0,0,1,2.58,1.11c.25.33.17.53,0,.86a59.41,59.41,0,0,0-2.22,7c1.48-3.16,3.65-7,5.62-8.69a1.12,1.12,0,0,1,.78-.29c.61,0,2.78.74,2.78,1.52a1.88,1.88,0,0,1-.12.45,4.87,4.87,0,0,0-.45,1A67.44,67.44,0,0,0,193.18,121c-.12.61.16.7.61.29,2.46-2.5,4.35-7.3,5.42-10.09a.57.57,0,0,1,1.06.41c-1.06,2.75-4.63,11.93-8.16,11.93a2.23,2.23,0,0,1-2.37-2.17,60.25,60.25,0,0,1,2.74-11.77c-2.7,3-6.19,10.7-6.35,13.49,0,.41-.29.45-.54.45-1,0-2.58-1.11-2.58-2a50.78,50.78,0,0,1,2.71-11.93c-2.75,3-6.23,10.66-6.44,13.45,0,.41-.24.45-.49.45-1,0-2.58-1.11-2.58-2A48.92,48.92,0,0,1,179.65,107.69Z"/><path class="cls-9" d="M203.35,119.17a.59.59,0,0,0,0-.28c-1.19,2.5-2.75,4.63-4.59,4.63a2.59,2.59,0,0,1-2.71-2.54c-.53-4.47,1.76-11.56,5.82-13.74,1.27-.73,2.75.25,4.23,1a2.16,2.16,0,0,0,.2-.54c.16-.32.37-.53.62-.53a5.31,5.31,0,0,1,2.62,1.19c.45.33,0,.86-.21,1.27A72.59,72.59,0,0,0,206.46,121c-.12.61.25.61.58.29,2.5-2.5,4.22-7.3,5.29-10.09a.57.57,0,0,1,1.06.41c-1.06,2.75-4.47,11.93-8,11.93a2.49,2.49,0,0,1-2.26-2.79C203.22,120.2,203.27,119.71,203.35,119.17Zm1.92-8.69a10.16,10.16,0,0,1,.41-1.06,1.09,1.09,0,0,0-1-.54c-2.83,0-5,7.06-5.25,10.58,0,.45-.12,1.93.54,1.93C202,121.39,204.66,112.41,205.27,110.48Z"/><path class="cls-9" d="M212.53,107.69a.74.74,0,0,1,.57-.53,5.32,5.32,0,0,1,2.67,1.19c.41.33,0,.86-.2,1.27a57.21,57.21,0,0,0-2,6.52c1.47-3.16,3.64-7,5.61-8.69a1.07,1.07,0,0,1,.78-.29c.58,0,2.75.74,2.75,1.52a1,1,0,0,1-.12.45c-.17.33-.29.66-.46,1A72.62,72.62,0,0,0,219.25,121c-.12.61.17.7.58.29,2.5-2.5,4.39-7.3,5.45-10.09a.57.57,0,0,1,1.07.41c-1.07,2.75-4.64,11.93-8.16,11.93a2.22,2.22,0,0,1-2.38-2.17,60.28,60.28,0,0,1,2.75-11.77c-2.75,3-6.19,10.7-6.4,13.49,0,.41-.24.45-.49.45-1,0-2.58-1.11-2.58-2A48.92,48.92,0,0,1,212.53,107.69Z"/><path class="cls-9" d="M229.83,118.85c-1.15,2.46-2.75,4.67-4.75,4.67s-2.92-1.56-3-3.32c-.2-4.43,1.77-10.91,5.58-13,1.31-.73,2.87.29,4,.86,1.27-5.86,2.91-11,3.85-11s3.61,1.06,3.61,1.68a.22.22,0,0,1-.12.2,4.43,4.43,0,0,0-.5.7c-2.05,3.69-4.71,15.17-5.45,21-.12.9.08,1.07.66.45,2.38-2.54,4.22-7.17,5.25-9.88a.57.57,0,0,1,1.06.41c-1.06,2.75-4.63,11.93-8.16,11.93-2.29,0-2.21-2.42-2.09-4C229.79,119.3,229.83,119.09,229.83,118.85Zm-4.26.16c-.12,1.39.2,2.26.82,2.26.41,0,.94-.41,1.52-1.32a26.27,26.27,0,0,0,2.54-5.57c.24-1.56.57-3.2.9-4.84a1,1,0,0,0-.9-.66C227.74,108.88,225.94,115.4,225.57,119Z"/><path class="cls-9" d="M242.71,107c1.55,0,4.3,2.09,4.3,3.89,0,3.82-4.47,6.77-7.62,6.77-.09,2.17.57,3.93,2.46,3.93,3.32,0,6.31-6.72,7.7-10.45.25-.7,1.32-.25,1,.45-1.48,4-4.76,11.93-9.39,11.93C231.31,123.52,236.84,107,242.71,107Zm-3.24,9.71c2.21,0,4.67-3.32,4.67-6.6,0-.86-.7-1.14-1.31-.65C241.19,110.69,239.79,113.93,239.47,116.71Z"/><path class="cls-9" d="M260.21,118.85c-1.15,2.46-2.75,4.67-4.75,4.67s-2.92-1.56-3-3.32c-.2-4.43,1.77-10.91,5.58-13,1.31-.73,2.87.29,4,.86,1.27-5.86,2.91-11,3.85-11s3.61,1.06,3.61,1.68a.22.22,0,0,1-.12.2,4.43,4.43,0,0,0-.5.7c-2,3.69-4.71,15.17-5.45,21-.12.9.08,1.07.66.45,2.38-2.54,4.22-7.17,5.25-9.88a.57.57,0,0,1,1.06.41c-1.06,2.75-4.63,11.93-8.16,11.93-2.29,0-2.21-2.42-2.09-4C260.17,119.3,260.21,119.09,260.21,118.85ZM256,119c-.12,1.39.2,2.26.82,2.26.41,0,.94-.41,1.52-1.32a26.27,26.27,0,0,0,2.54-5.57c.24-1.56.57-3.2.9-4.84a1,1,0,0,0-.9-.66C258.12,108.88,256.32,115.4,256,119Z"/><path class="cls-9" d="M273.08,107c1.56,0,4.31,2.09,4.31,3.89,0,3.82-4.47,6.77-7.63,6.77-.08,2.17.58,3.93,2.46,3.93,3.32,0,6.32-6.72,7.71-10.45.25-.7,1.31-.25,1,.45-1.48,4-4.76,11.93-9.39,11.93C261.69,123.52,267.22,107,273.08,107Zm-3.23,9.71c2.21,0,4.67-3.32,4.67-6.6,0-.86-.7-1.14-1.31-.65C271.57,110.69,270.17,113.93,269.85,116.71Z"/><path class="cls-9" d="M286.25,107.69a.74.74,0,0,1,.57-.53,5.29,5.29,0,0,1,2.66,1.19c.41.33,0,.86-.2,1.27a57.21,57.21,0,0,0-2,6.52c1.48-3.16,3.65-7,5.62-8.69a1.05,1.05,0,0,1,.78-.29,5,5,0,0,1,2.54,1.07c.53.53.2.94-.25,1.27a7.08,7.08,0,0,0-2.17,4.67c0,1,.33,1.48.78,1.48,1.72,0,3.36-3.28,4.14-4.59a.58.58,0,0,1,1,.61c-.9,1.48-2.62,4.68-4.59,5.37-1.39.54-4-.74-4.18-2.54a9.65,9.65,0,0,1,1.11-4.39c.16-.36,0-.28-.13-.08-2.66,3.2-5.82,10.37-6,13,0,.41-.25.45-.5.45-1,0-2.58-1.11-2.58-2A48.6,48.6,0,0,1,286.25,107.69Z"/><path class="cls-9" d="M300.92,123.52c-9.88,0-4.34-16.52,1.52-16.52,1.56,0,4.31,2.09,4.31,3.89,0,3.82-4.47,6.77-7.63,6.77-.08,2.17.57,3.93,2.46,3.93,3.32,0,6.31-6.72,7.71-10.45.24-.7,1.31-.25,1,.45C308.84,115.61,305.56,123.52,300.92,123.52Zm1.64-14.06c-1.64,1.23-3,4.47-3.36,7.25,2.22,0,4.68-3.32,4.68-6.6A.76.76,0,0,0,302.56,109.46Zm3.37-9.43c-.41,0-.58,0-.58.2a2.53,2.53,0,0,1,0,.41,4.62,4.62,0,0,1-2.17,4c-.16.08-.08.25.12.25,1.4,0,4.1-.66,4.59-2.71a2.81,2.81,0,0,0-.16-1.68C307.48,100,306.5,100,305.93,100Z"/><path class="cls-9" d="M310.27,106.83c.82,0,3.57,1.07,3.57,1.73,0,.08,0,.12-.08.2a4.09,4.09,0,0,0-.5.66,18.11,18.11,0,0,0-1.39,3.52,38.43,38.43,0,0,1,2.75-4.34c.82-1.11,1.76-1.93,2.7-1.93,1.77,0,3.37,2.21,3.37,3.57a16.92,16.92,0,0,1-2.34,7.34,14.7,14.7,0,0,0,4.88-6.44.58.58,0,0,1,1.06.45,16.09,16.09,0,0,1-7.38,8.2c-1.6,2.17-3.48,3.73-4.92,3.73a3.5,3.5,0,0,1-2.33-.78,76.17,76.17,0,0,0-1.23,10.09c0,.33-.13.49-.5.49-1,0-2.7-.94-2.7-1.8C305.23,124.55,308.55,106.83,310.27,106.83ZM310.19,120c-.08.33-.12.62-.21,1a2.43,2.43,0,0,1,1.07-.33,10.38,10.38,0,0,0,2.34-.57,20.53,20.53,0,0,0,3.52-9.89c0-.78-.24-1.23-.61-1.19a.94.94,0,0,0-.66.37A29.42,29.42,0,0,0,310.19,120Z"/><path class="cls-9" d="M328.43,107.69c2.55,0,4.68,1.77,4.68,3.61a15.1,15.1,0,0,1-1.19,5.74,15.61,15.61,0,0,0,4.22-5.9.58.58,0,0,1,1.07.45,16.22,16.22,0,0,1-6.4,7.63c-1.52,2.5-3.69,4.3-6.11,4.3-2.95,0-4.71-3-4.71-5.08,0-4.06,2.09-9.39,5.53-11.2A3,3,0,0,1,328.43,107.69Zm-4.14,12.88a10.08,10.08,0,0,0,2.38-.53,18.1,18.1,0,0,0,2.62-8.74c0-2.7-1.47-2.87-3-1.27-2.33,2.58-3.48,8.41-2.46,10.62A1.3,1.3,0,0,1,324.29,120.57Z"/><path class="cls-9" d="M336.35,107.69a.74.74,0,0,1,.57-.53,5.29,5.29,0,0,1,2.66,1.19c.41.33,0,.86-.2,1.27a57.21,57.21,0,0,0-2,6.52c1.48-3.16,3.65-7,5.62-8.69a1.05,1.05,0,0,1,.78-.29c.57,0,2.74.74,2.74,1.52a1,1,0,0,1-.12.45c-.16.33-.29.66-.45,1A71.42,71.42,0,0,0,343.07,121c-.12.61.16.7.57.29,2.51-2.5,4.39-7.3,5.46-10.09a.57.57,0,0,1,1.06.41c-1.06,2.75-4.63,11.93-8.16,11.93a2.21,2.21,0,0,1-2.37-2.17,60.25,60.25,0,0,1,2.74-11.77c-2.74,3-6.19,10.7-6.39,13.49,0,.41-.25.45-.49.45-1,0-2.59-1.11-2.59-2A48.6,48.6,0,0,1,336.35,107.69Z"/><path class="cls-9" d="M353.65,118.85c-1.15,2.46-2.75,4.67-4.76,4.67s-2.91-1.56-3-3.32c-.21-4.43,1.76-10.91,5.57-13,1.32-.73,2.87.29,4,.86,1.27-5.86,2.91-11,3.86-11s3.6,1.06,3.6,1.68a.22.22,0,0,1-.12.2,4.38,4.38,0,0,0-.49.7c-2,3.69-4.72,15.17-5.45,21-.13.9.08,1.07.65.45,2.38-2.54,4.23-7.17,5.25-9.88a.57.57,0,0,1,1.07.41c-1.07,2.75-4.64,11.93-8.16,11.93-2.3,0-2.22-2.42-2.09-4C353.61,119.3,353.65,119.09,353.65,118.85Zm-4.27.16c-.12,1.39.21,2.26.82,2.26.41,0,.95-.41,1.52-1.32a25.78,25.78,0,0,0,2.54-5.57c.25-1.56.58-3.2.9-4.84a1,1,0,0,0-.9-.66C351.56,108.88,349.75,115.4,349.38,119Z"/><path class="cls-9" d="M363,107.69a.75.75,0,0,1,.58-.53,5.29,5.29,0,0,1,2.66,1.19c.41.33,0,.86-.2,1.27a57.21,57.21,0,0,0-2,6.52c1.48-3.16,3.65-7,5.62-8.69a1.05,1.05,0,0,1,.78-.29,5,5,0,0,1,2.54,1.07c.53.53.2.94-.25,1.27a7.08,7.08,0,0,0-2.17,4.67c0,1,.33,1.48.78,1.48,1.72,0,3.36-3.28,4.14-4.59a.58.58,0,0,1,1,.61c-.9,1.48-2.62,4.68-4.59,5.37-1.39.54-4-.74-4.18-2.54a9.65,9.65,0,0,1,1.11-4.39c.16-.36,0-.28-.13-.08-2.66,3.2-5.82,10.37-6,13,0,.41-.25.45-.5.45-1,0-2.58-1.11-2.58-2A48.92,48.92,0,0,1,363,107.69Z"/><path class="cls-9" d="M379.19,107c1.56,0,4.31,2.09,4.31,3.89,0,3.82-4.47,6.77-7.63,6.77-.08,2.17.57,3.93,2.46,3.93,3.32,0,6.31-6.72,7.71-10.45.24-.7,1.31-.25,1,.45-1.47,4-4.75,11.93-9.39,11.93C367.79,123.52,373.33,107,379.19,107ZM376,116.71c2.22,0,4.68-3.32,4.68-6.6a.76.76,0,0,0-1.32-.65C377.67,110.69,376.28,113.93,376,116.71Z"/><path class="cls-9" d="M55.22,133.83c.82,0,3.57,1.07,3.57,1.73,0,.08,0,.12-.08.2a4.09,4.09,0,0,0-.5.66,18.11,18.11,0,0,0-1.39,3.52,38.43,38.43,0,0,1,2.75-4.34c.82-1.11,1.76-1.93,2.7-1.93,1.77,0,3.36,2.21,3.36,3.57a16.89,16.89,0,0,1-2.33,7.34,14.7,14.7,0,0,0,4.88-6.44.58.58,0,0,1,1.06.45,16.09,16.09,0,0,1-7.38,8.2c-1.6,2.17-3.48,3.73-4.92,3.73a3.5,3.5,0,0,1-2.33-.78,76.17,76.17,0,0,0-1.23,10.09c0,.33-.13.49-.5.49-1,0-2.7-.94-2.7-1.8C50.18,151.55,53.5,133.83,55.22,133.83ZM55.14,147c-.08.33-.12.62-.21,1a2.43,2.43,0,0,1,1.07-.33,10.38,10.38,0,0,0,2.34-.57,20.53,20.53,0,0,0,3.52-9.89c0-.78-.24-1.23-.61-1.19a.94.94,0,0,0-.66.37A29.42,29.42,0,0,0,55.14,147Z"/><path class="cls-9" d="M72.28,146.17a.59.59,0,0,0,0-.28c-1.19,2.5-2.75,4.63-4.59,4.63A2.59,2.59,0,0,1,65,148c-.53-4.47,1.76-11.56,5.82-13.74,1.27-.73,2.75.25,4.22,1a1.84,1.84,0,0,0,.21-.54c.16-.32.37-.53.61-.53a5.34,5.34,0,0,1,2.63,1.19c.45.33,0,.86-.21,1.27A72.59,72.59,0,0,0,75.39,148c-.12.61.25.61.58.29,2.5-2.5,4.22-7.3,5.29-10.09a.57.57,0,0,1,1.06.41c-1.06,2.75-4.47,11.93-8,11.93a2.49,2.49,0,0,1-2.26-2.79C72.15,147.2,72.19,146.71,72.28,146.17Zm1.92-8.69a10.16,10.16,0,0,1,.41-1.06,1.09,1.09,0,0,0-1-.54c-2.83,0-5,7.06-5.25,10.58,0,.45-.12,1.93.53,1.93C70.88,148.39,73.59,139.41,74.2,137.48Z"/><path class="cls-9" d="M81.46,134.69a.74.74,0,0,1,.57-.53,5.32,5.32,0,0,1,2.67,1.19c.41.33,0,.86-.21,1.27a59.29,59.29,0,0,0-2,6.52c1.47-3.16,3.64-7,5.61-8.69a1.07,1.07,0,0,1,.78-.29,5,5,0,0,1,2.54,1.07c.54.53.21.94-.24,1.27A7.1,7.1,0,0,0,89,141.17c0,1,.33,1.48.78,1.48,1.73,0,3.37-3.28,4.14-4.59a.58.58,0,0,1,1,.61c-.9,1.48-2.62,4.68-4.59,5.37-1.4.54-4-.74-4.19-2.54a9.78,9.78,0,0,1,1.11-4.39c.17-.36,0-.28-.12-.08-2.67,3.2-5.82,10.37-6,13,0,.41-.24.45-.49.45-1,0-2.58-1.11-2.58-2A48.92,48.92,0,0,1,81.46,134.69Z"/><path class="cls-9" d="M96.92,136.58a60.07,60.07,0,0,1,3.44-5.16c.53-.7,2.09-.42,2.83.24.29.25.29.41.08.7a48.09,48.09,0,0,0-3.89,5.33,41.64,41.64,0,0,0,1.76,5c.12.33.08.49-.25.66-.9.41-2.5.2-2.78-.58a45,45,0,0,1-1.44-4.67A1.83,1.83,0,0,1,96.92,136.58Zm5,0c1.07-1.76,2.17-3.53,3.4-5.16.53-.7,2.09-.42,2.87.24.25.25.25.41,0,.7a55.49,55.49,0,0,0-3.89,5.33,49.87,49.87,0,0,0,1.76,5c.12.33.08.49-.25.66-.9.41-2.5.2-2.78-.58a45,45,0,0,1-1.44-4.67A1.72,1.72,0,0,1,101.92,136.58Z"/><path class="cls-9" d="M123.73,134.69c2.54,0,4.67,1.77,4.67,3.61a15.1,15.1,0,0,1-1.19,5.74,15.53,15.53,0,0,0,4.23-5.9.58.58,0,0,1,1.06.45,16.2,16.2,0,0,1-6.39,7.63c-1.52,2.5-3.69,4.3-6.11,4.3-3,0-4.72-3-4.72-5.08,0-4.06,2.09-9.39,5.54-11.2A3,3,0,0,1,123.73,134.69Zm-4.14,12.88A10.19,10.19,0,0,0,122,147a18.21,18.21,0,0,0,2.62-8.74c0-2.7-1.47-2.87-3-1.27-2.34,2.58-3.49,8.41-2.46,10.62A1.19,1.19,0,0,1,119.59,147.57Z"/><path class="cls-9" d="M135.66,146.17a2.55,2.55,0,0,0,.08-.28c-1.23,2.5-2.75,4.63-4.59,4.63a3,3,0,0,1-2.91-2.79c.08-.53.12-1,.2-1.56a50.27,50.27,0,0,1,3.16-11.48c.17-.32.37-.53.62-.53a5.35,5.35,0,0,1,2.62,1.19c.41.33,0,.86-.2,1.27a70.4,70.4,0,0,0-2.87,10.29c-.21,1,.08,1.48.53,1.48,2,0,4.84-9,5.49-10.91.33-1,.66-1.92,1-2.79.16-.32.41-.53.61-.53a5.38,5.38,0,0,1,2.63,1.19c.45.33,0,.86-.17,1.27A69.39,69.39,0,0,0,138.78,148c-.13.61.24.61.61.29,2.46-2.5,4.35-7.3,5.41-10.09a.57.57,0,0,1,1.07.41c-1.07,2.75-4.63,11.93-8.16,11.93a2.53,2.53,0,0,1-2.26-2.79C135.54,147.2,135.62,146.71,135.66,146.17Z"/><path class="cls-9" d="M141.81,146.17A51.31,51.31,0,0,1,145,134.69c.16-.32.37-.53.61-.53a5.31,5.31,0,0,1,2.62,1.19c.46.33,0,.86-.16,1.27A69.39,69.39,0,0,0,144.93,148c-.13.61.24.61.57.29,2.5-2.5,4.39-7.3,5.45-10.09a.57.57,0,0,1,1.07.41c-1.07,2.75-4.63,11.93-8.16,11.93a2.49,2.49,0,0,1-2.26-2.79C141.69,147.2,141.73,146.71,141.81,146.17Zm7.38-20.54a7.58,7.58,0,0,1,2.42,1.11c.61.41.61.94.16,1.68-.74,1.23-3,4.55-3.93,4.59-2.34.09-.17-5.24.36-6.23C148.57,126,148.9,125.63,149.19,125.63Z"/><path class="cls-9" d="M160.14,138a58.57,58.57,0,0,1-3.45,5.2c-.49.7-2.09.41-2.83-.24-.28-.25-.24-.41,0-.7a56.87,56.87,0,0,0,3.9-5.33,46.78,46.78,0,0,0-1.77-5c-.12-.33-.12-.5.25-.66.9-.41,2.46-.21,2.79.57.57,1.52,1,3.12,1.43,4.68A1.75,1.75,0,0,1,160.14,138Zm5,0a58.22,58.22,0,0,1-3.41,5.2c-.53.7-2.13.41-2.87-.24-.24-.25-.24-.41,0-.7a55.13,55.13,0,0,0,3.9-5.33,46.78,46.78,0,0,0-1.77-5c-.12-.33-.08-.5.25-.66.9-.41,2.5-.21,2.79.57a48.5,48.5,0,0,1,1.43,4.68A1.71,1.71,0,0,1,165.1,138Z"/><path class="cls-9" d="M180.8,134.69c2.54,0,4.67,1.77,4.67,3.61a15.1,15.1,0,0,1-1.19,5.74,15.63,15.63,0,0,0,4.23-5.9.58.58,0,0,1,1.06.45,16.2,16.2,0,0,1-6.39,7.63c-1.52,2.5-3.69,4.3-6.11,4.3-2.95,0-4.72-3-4.72-5.08,0-4.06,2.09-9.39,5.54-11.2A3,3,0,0,1,180.8,134.69Zm-4.14,12.88A10.3,10.3,0,0,0,179,147a18.21,18.21,0,0,0,2.62-8.74c0-2.7-1.48-2.87-2.95-1.27-2.34,2.58-3.49,8.41-2.46,10.62A1.19,1.19,0,0,1,176.66,147.57Z"/><path class="cls-9" d="M192.73,146.17a2.55,2.55,0,0,0,.08-.28c-1.23,2.5-2.75,4.63-4.59,4.63-1.56,0-3-1.6-2.91-2.79.08-.53.12-1,.2-1.56a50.27,50.27,0,0,1,3.16-11.48c.16-.32.37-.53.61-.53a5.34,5.34,0,0,1,2.63,1.19c.41.33,0,.86-.21,1.27a71.67,71.67,0,0,0-2.87,10.29c-.2,1,.09,1.48.54,1.48,2,0,4.83-9,5.49-10.91.33-1,.66-1.92,1-2.79.16-.32.41-.53.61-.53a5.31,5.31,0,0,1,2.62,1.19c.46.33,0,.86-.16,1.27A70.51,70.51,0,0,0,195.84,148c-.12.61.25.61.62.29,2.46-2.5,4.35-7.3,5.41-10.09a.57.57,0,0,1,1.07.41c-1.07,2.75-4.64,11.93-8.16,11.93a2.52,2.52,0,0,1-2.26-2.79C192.61,147.2,192.69,146.71,192.73,146.17Z"/><path class="cls-9" d="M208.55,133.83c.82,0,3.57,1.07,3.57,1.73,0,.08,0,.12-.08.2a3.53,3.53,0,0,0-.49.66,18,18,0,0,0-1.4,3.52,39.89,39.89,0,0,1,2.75-4.34c.82-1.11,1.76-1.93,2.71-1.93,1.76,0,3.36,2.21,3.36,3.57a16.92,16.92,0,0,1-2.34,7.34,14.7,14.7,0,0,0,4.88-6.44.58.58,0,0,1,1.07.45,16.18,16.18,0,0,1-7.38,8.2c-1.6,2.17-3.49,3.73-4.92,3.73a3.51,3.51,0,0,1-2.34-.78,76.17,76.17,0,0,0-1.23,10.09c0,.33-.12.49-.49.49-1,0-2.71-.94-2.71-1.8C203.51,151.55,206.83,133.83,208.55,133.83ZM208.47,147c-.08.33-.12.62-.2,1a2.35,2.35,0,0,1,1.06-.33,10.38,10.38,0,0,0,2.34-.57,20.64,20.64,0,0,0,3.53-9.89c0-.78-.25-1.23-.62-1.19a1,1,0,0,0-.66.37A29.42,29.42,0,0,0,208.47,147Z"/><path class="cls-9" d="M225.61,146.17a.59.59,0,0,0,0-.28c-1.19,2.5-2.75,4.63-4.59,4.63a2.6,2.6,0,0,1-2.71-2.54c-.53-4.47,1.77-11.56,5.82-13.74,1.28-.73,2.75.25,4.23,1a2.16,2.16,0,0,0,.2-.54c.17-.32.37-.53.62-.53a5.31,5.31,0,0,1,2.62,1.19c.45.33,0,.86-.2,1.27A70.44,70.44,0,0,0,228.73,148c-.13.61.24.61.57.29,2.5-2.5,4.22-7.3,5.29-10.09a.57.57,0,0,1,1.06.41c-1.06,2.75-4.46,11.93-8,11.93a2.49,2.49,0,0,1-2.26-2.79C225.49,147.2,225.53,146.71,225.61,146.17Zm1.93-8.69a7.06,7.06,0,0,1,.41-1.06,1.12,1.12,0,0,0-1-.54c-2.83,0-5,7.06-5.25,10.58,0,.45-.12,1.93.54,1.93C224.22,148.39,226.92,139.41,227.54,137.48Z"/><path class="cls-9" d="M234.79,134.69a.75.75,0,0,1,.58-.53,5.29,5.29,0,0,1,2.66,1.19c.41.33,0,.86-.2,1.27a57.21,57.21,0,0,0-2,6.52c1.47-3.16,3.65-7,5.61-8.69a1.08,1.08,0,0,1,.78-.29,5.08,5.08,0,0,1,2.55,1.07c.53.53.2.94-.25,1.27a7.08,7.08,0,0,0-2.17,4.67c0,1,.32,1.48.78,1.48,1.72,0,3.36-3.28,4.14-4.59a.58.58,0,0,1,1,.61c-.9,1.48-2.62,4.68-4.59,5.37-1.4.54-4-.74-4.18-2.54a9.64,9.64,0,0,1,1.1-4.39c.17-.36,0-.28-.12-.08-2.66,3.2-5.82,10.37-6,13,0,.41-.24.45-.49.45-1,0-2.58-1.11-2.58-2A48.92,48.92,0,0,1,234.79,134.69Z"/><path class="cls-9" d="M250.25,136.58c1.11-1.76,2.17-3.53,3.44-5.16.54-.7,2.1-.42,2.83.24.29.25.29.41.08.7a49.41,49.41,0,0,0-3.89,5.33,41.64,41.64,0,0,0,1.76,5c.13.33.08.49-.24.66-.9.41-2.5.2-2.79-.58a47.52,47.52,0,0,1-1.44-4.67A1.83,1.83,0,0,1,250.25,136.58Zm5,0a59.76,59.76,0,0,1,3.41-5.16c.53-.7,2.09-.42,2.87.24.24.25.24.41,0,.7a53.93,53.93,0,0,0-3.9,5.33,49.87,49.87,0,0,0,1.76,5c.13.33.09.49-.24.66-.9.41-2.5.2-2.79-.58a47.52,47.52,0,0,1-1.44-4.67A1.72,1.72,0,0,1,255.25,136.58Z"/><path class="cls-9" d="M272.06,134.69a.74.74,0,0,1,.57-.53,5.32,5.32,0,0,1,2.67,1.19c.41.33,0,.86-.21,1.27a61.53,61.53,0,0,0-2,6.52c1.48-3.16,3.65-7,5.62-8.69a1.07,1.07,0,0,1,.78-.29c.58,0,2.75.74,2.75,1.52a1,1,0,0,1-.12.45c-.17.33-.29.66-.46,1A72.62,72.62,0,0,0,278.78,148c-.12.61.17.7.58.29,2.5-2.5,4.38-7.3,5.45-10.09a.57.57,0,0,1,1.07.41c-1.07,2.75-4.64,11.93-8.16,11.93a2.22,2.22,0,0,1-2.38-2.17,60.28,60.28,0,0,1,2.75-11.77c-2.75,2.95-6.19,10.7-6.4,13.49,0,.41-.24.45-.49.45-1,0-2.58-1.11-2.58-2A48.92,48.92,0,0,1,272.06,134.69Z"/><path class="cls-9" d="M290,134.69c2.54,0,4.67,1.77,4.67,3.61A15.1,15.1,0,0,1,293.5,144a15.63,15.63,0,0,0,4.23-5.9.58.58,0,0,1,1.06.45,16.2,16.2,0,0,1-6.39,7.63c-1.52,2.5-3.69,4.3-6.11,4.3-3,0-4.72-3-4.72-5.08,0-4.06,2.09-9.39,5.54-11.2A3,3,0,0,1,290,134.69Zm-4.14,12.88a10.11,10.11,0,0,0,2.37-.53,18.11,18.11,0,0,0,2.63-8.74c0-2.7-1.48-2.87-2.95-1.27-2.34,2.58-3.49,8.41-2.46,10.62A1.19,1.19,0,0,1,285.88,147.57Z"/><path class="cls-9" d="M297.93,134.69a.74.74,0,0,1,.57-.53,5.32,5.32,0,0,1,2.67,1.19c.41.33,0,.86-.21,1.27a61.53,61.53,0,0,0-2,6.52c1.48-3.16,3.65-7,5.62-8.69a1.07,1.07,0,0,1,.78-.29c.58,0,2.75.74,2.75,1.52a1,1,0,0,1-.12.45c-.17.33-.29.66-.46,1A72.62,72.62,0,0,0,304.65,148c-.12.61.17.7.58.29,2.5-2.5,4.39-7.3,5.45-10.09a.57.57,0,0,1,1.07.41c-1.07,2.75-4.64,11.93-8.16,11.93a2.22,2.22,0,0,1-2.38-2.17A60.28,60.28,0,0,1,304,136.58c-2.75,2.95-6.19,10.7-6.4,13.49,0,.41-.24.45-.49.45-1,0-2.58-1.11-2.58-2A48.92,48.92,0,0,1,297.93,134.69Z"/><path class="cls-9" d="M319.82,138a56.37,56.37,0,0,1-3.44,5.2c-.49.7-2.09.41-2.83-.24-.29-.25-.25-.41,0-.7a55,55,0,0,0,3.89-5.33,46.75,46.75,0,0,0-1.76-5c-.12-.33-.12-.5.25-.66.9-.41,2.46-.21,2.78.57.58,1.52,1,3.12,1.44,4.68A1.75,1.75,0,0,1,319.82,138Zm5,0a56,56,0,0,1-3.4,5.2c-.53.7-2.13.41-2.87-.24-.25-.25-.25-.41,0-.7a56.87,56.87,0,0,0,3.9-5.33,49.05,49.05,0,0,0-1.77-5c-.12-.33-.08-.5.25-.66.9-.41,2.5-.21,2.79.57a48.5,48.5,0,0,1,1.43,4.68A1.75,1.75,0,0,1,324.78,138Z"/><path class="cls-9" d="M339.38,146.17a.59.59,0,0,0,0-.28c-1.19,2.5-2.75,4.63-4.59,4.63a2.6,2.6,0,0,1-2.71-2.54c-.53-4.47,1.76-11.56,5.82-13.74,1.27-.73,2.75.25,4.23,1a2.16,2.16,0,0,0,.2-.54c.17-.32.37-.53.62-.53a5.31,5.31,0,0,1,2.62,1.19c.45.33,0,.86-.2,1.27A71.6,71.6,0,0,0,342.49,148c-.12.61.25.61.58.29,2.5-2.5,4.22-7.3,5.29-10.09a.57.57,0,0,1,1.06.41c-1.06,2.75-4.47,11.93-8,11.93a2.49,2.49,0,0,1-2.26-2.79C339.26,147.2,339.3,146.71,339.38,146.17Zm1.93-8.69a7.06,7.06,0,0,1,.41-1.06,1.12,1.12,0,0,0-1-.54c-2.83,0-5,7.06-5.25,10.58,0,.45-.12,1.93.54,1.93C338,148.39,340.69,139.41,341.31,137.48Z"/><path class="cls-9" d="M351,124.08c.78,0,3.57,1.06,3.57,1.68a.31.31,0,0,1-.08.2,4.65,4.65,0,0,0-.54.7c-2.05,3.69-4.71,15.17-5.45,21-.08.9.08,1.07.7.45,2.38-2.54,4.18-7.17,5.2-9.88a.57.57,0,0,1,1.07.41c-1.07,2.75-4.63,11.93-8.16,11.93-2.25,0-2.21-2.42-2.09-4C345.86,138.59,349.38,124.08,351,124.08Z"/><path class="cls-9" d="M359.63,134.69c2.54,0,4.68,1.77,4.68,3.61a15.1,15.1,0,0,1-1.19,5.74,15.61,15.61,0,0,0,4.22-5.9.58.58,0,0,1,1.07.45,16.28,16.28,0,0,1-6.4,7.63c-1.52,2.5-3.69,4.3-6.11,4.3-2.95,0-4.71-3-4.71-5.08,0-4.06,2.09-9.39,5.53-11.2A3,3,0,0,1,359.63,134.69Zm-4.14,12.88a10.19,10.19,0,0,0,2.38-.53,18.21,18.21,0,0,0,2.62-8.74c0-2.7-1.47-2.87-2.95-1.27-2.34,2.58-3.48,8.41-2.46,10.62A1.24,1.24,0,0,1,355.49,147.57Z"/><path class="cls-9" d="M367.54,134.69a.75.75,0,0,1,.58-.53,5.29,5.29,0,0,1,2.66,1.19c.41.33,0,.86-.2,1.27a57.21,57.21,0,0,0-2,6.52c1.48-3.16,3.65-7,5.62-8.69a1.05,1.05,0,0,1,.78-.29,5,5,0,0,1,2.54,1.07c.53.53.2.94-.25,1.27a7.08,7.08,0,0,0-2.17,4.67c0,1,.33,1.48.78,1.48,1.72,0,3.36-3.28,4.14-4.59a.58.58,0,0,1,1,.61c-.9,1.48-2.62,4.68-4.59,5.37-1.39.54-4-.74-4.18-2.54a9.65,9.65,0,0,1,1.11-4.39c.16-.36,0-.28-.13-.08-2.66,3.2-5.82,10.37-6,13,0,.41-.25.45-.5.45-1,0-2.58-1.11-2.58-2A48.92,48.92,0,0,1,367.54,134.69Z"/><path class="cls-9" d="M376.11,147a3.48,3.48,0,0,1,2.83-1.51c.91-.13,1.85-.13,2.63-.29-.37-2.46-3.2-4-3.2-7.13a4.29,4.29,0,0,1,4.51-4.19c1.48,0,3.36,2.09,3.36,3.57,0,.86-.9,2.38-1.47,2.38-.91,0-2.18-.62-2.18-1a.21.21,0,0,1,.08-.16c.7,0,1.28-1.11,1.28-1.89,0-.49-.21-.9-.66-.9-1,0-1.48,1.76-1.48,2.5,0,2.18,2.22,3.73,3.08,5.58a9.67,9.67,0,0,0,4.39-5.7c.2-.7,1.27-.33,1.06.37a10.52,10.52,0,0,1-5.08,6.44c.49,3.6-3.41,5.78-6.56,5.78C376.07,150.77,375.05,148.59,376.11,147Zm2.22-.28A1.24,1.24,0,1,0,379,149a4.35,4.35,0,0,0,2.5-2.66C380.66,146.54,379.27,146.42,378.33,146.67Z"/><path class="cls-9" d="M392.68,150.56c-2.63-.08-1.36-4.88.08-4.84,1.6.05,2.66.7,2.66,2.05C395.42,148.47,394.56,150.6,392.68,150.56Zm2-9.55c-2.63-.08-1.36-4.88.08-4.84,1.6,0,2.66.74,2.66,2.09C397.39,138.92,396.57,141.09,394.69,141Z"/><path class="cls-9" d="M101.75,161c1.93,0,3.94,1.76,3.94,3.52,0,2.22-1.19,4.64-2.13,4.64a4,4,0,0,1-2.26-1.27c-.32-.33-.12-.74.33-1a4.62,4.62,0,0,0,1.89-2.34c.41-1.06.2-1.64-.33-1.64-3.45,0-7.34,12.67-2.3,12.67,3.65,0,6.19-6.76,7.71-10.45a.56.56,0,0,1,1,.45c-1.52,3.73-4.31,11.48-9,11.93a7.63,7.63,0,0,1-.86.94c1,.21,1.55.74,1.55,1.56a2.31,2.31,0,0,1-2.54,2.09c-.94,0-2-.49-2-1.51,0-.17.13-.29.29-.21a2.88,2.88,0,0,0,1.48.57c1.64,0,1.92-1.35.57-1.35-.33,0-1-1.35-.86-1.43a6.5,6.5,0,0,0,.82-.74C90.85,176.21,96.42,161,101.75,161Z"/><path class="cls-9" d="M112.5,173.17a.59.59,0,0,0,0-.28c-1.19,2.5-2.75,4.63-4.59,4.63a2.59,2.59,0,0,1-2.71-2.54c-.53-4.47,1.76-11.56,5.82-13.74,1.27-.73,2.75.25,4.22,1a1.84,1.84,0,0,0,.21-.54c.16-.32.37-.53.61-.53a5.34,5.34,0,0,1,2.63,1.19c.45.33,0,.86-.21,1.27A72.59,72.59,0,0,0,115.61,175c-.12.61.25.61.58.29,2.5-2.5,4.22-7.3,5.29-10.09a.57.57,0,0,1,1.06.41c-1.06,2.75-4.47,11.93-8,11.93a2.49,2.49,0,0,1-2.26-2.79C112.37,174.2,112.41,173.71,112.5,173.17Zm1.92-8.69a10.16,10.16,0,0,1,.41-1.06,1.09,1.09,0,0,0-1-.54c-2.83,0-5,7.06-5.25,10.58,0,.45-.12,1.93.53,1.93C111.1,175.39,113.81,166.41,114.42,164.48Z"/><path class="cls-9" d="M131.93,172.85c-1.15,2.46-2.75,4.67-4.76,4.67s-2.91-1.56-3-3.32c-.2-4.43,1.76-10.91,5.58-13,1.31-.73,2.87.29,4,.86,1.28-5.86,2.92-11,3.86-11s3.61,1.06,3.61,1.68a.21.21,0,0,1-.13.2,4.38,4.38,0,0,0-.49.7c-2.05,3.69-4.71,15.17-5.45,21-.12.9.08,1.07.66.45,2.37-2.54,4.22-7.17,5.24-9.88a.57.57,0,0,1,1.07.41c-1.07,2.75-4.63,11.93-8.16,11.93-2.3,0-2.21-2.42-2.09-4C131.89,173.3,131.93,173.09,131.93,172.85Zm-4.26.16c-.13,1.39.2,2.26.82,2.26.41,0,.94-.41,1.51-1.32a25.31,25.31,0,0,0,2.54-5.57c.25-1.56.58-3.2.91-4.84a1,1,0,0,0-.91-.66C129.84,162.88,128,169.4,127.67,173Z"/><path class="cls-9" d="M143.29,177.52c-9.88,0-4.35-16.52,1.51-16.52,1.56,0,4.31,2.09,4.31,3.89,0,3.82-4.47,6.77-7.63,6.77-.08,2.17.58,3.93,2.46,3.93,3.32,0,6.32-6.72,7.71-10.45.25-.7,1.31-.25,1,.45C151.2,169.61,147.92,177.52,143.29,177.52Zm1.64-14.06c-1.64,1.23-3,4.47-3.37,7.25,2.22,0,4.68-3.32,4.68-6.6C146.24,163.25,145.54,163,144.93,163.46Zm3.36-9.43c-.41,0-.58,0-.58.2a2.53,2.53,0,0,1,0,.41,4.59,4.59,0,0,1-2.17,4c-.16.08-.08.25.12.25,1.4,0,4.1-.66,4.6-2.71a2.89,2.89,0,0,0-.17-1.68C149.85,154,148.86,154,148.29,154Z"/><path class="cls-9" d="M152.63,160.83c.82,0,3.57,1.07,3.57,1.73,0,.08,0,.12-.08.2a3.53,3.53,0,0,0-.49.66,17.44,17.44,0,0,0-1.4,3.52A38.43,38.43,0,0,1,157,162.6c.82-1.11,1.76-1.93,2.71-1.93,1.76,0,3.36,2.21,3.36,3.57a16.92,16.92,0,0,1-2.34,7.34,14.7,14.7,0,0,0,4.88-6.44.58.58,0,0,1,1.07.45,16.18,16.18,0,0,1-7.38,8.2c-1.6,2.17-3.49,3.73-4.92,3.73a3.51,3.51,0,0,1-2.34-.78,76.17,76.17,0,0,0-1.23,10.09c0,.33-.13.49-.49.49-1,0-2.71-.94-2.71-1.8C147.59,178.55,150.91,160.83,152.63,160.83ZM152.55,174c-.08.33-.12.62-.2,1a2.35,2.35,0,0,1,1.06-.33,10.38,10.38,0,0,0,2.34-.57,20.64,20.64,0,0,0,3.53-9.89c0-.78-.25-1.23-.62-1.19a.94.94,0,0,0-.66.37A29.42,29.42,0,0,0,152.55,174Z"/><path class="cls-9" d="M169.32,161c1.56,0,4.31,2.09,4.31,3.89,0,3.82-4.47,6.77-7.63,6.77-.08,2.17.57,3.93,2.46,3.93,3.32,0,6.31-6.72,7.71-10.45.24-.7,1.31-.25,1,.45-1.47,4-4.75,11.93-9.39,11.93C157.92,177.52,163.46,161,169.32,161Zm-3.24,9.71c2.22,0,4.68-3.32,4.68-6.6a.76.76,0,0,0-1.32-.65C167.8,164.69,166.41,167.93,166.08,170.71Z"/><path class="cls-9" d="M176.58,161.69a.74.74,0,0,1,.57-.53,5.36,5.36,0,0,1,2.67,1.19c.41.33,0,.86-.21,1.27a57.21,57.21,0,0,0-2,6.52c1.48-3.16,3.65-7,5.62-8.69a1.05,1.05,0,0,1,.78-.29c.57,0,2.74.74,2.74,1.52a1,1,0,0,1-.12.45c-.16.33-.29.66-.45,1A71.42,71.42,0,0,0,183.3,175c-.12.61.16.7.57.29,2.51-2.5,4.39-7.3,5.46-10.09a.57.57,0,0,1,1.06.41c-1.06,2.75-4.63,11.93-8.15,11.93a2.21,2.21,0,0,1-2.38-2.17,60.25,60.25,0,0,1,2.74-11.77c-2.74,2.95-6.19,10.7-6.39,13.49,0,.41-.25.45-.49.45-1,0-2.59-1.11-2.59-2A48.6,48.6,0,0,1,176.58,161.69Z"/><path class="cls-9" d="M193.88,172.85c-1.15,2.46-2.75,4.67-4.76,4.67s-2.91-1.56-3-3.32c-.21-4.43,1.76-10.91,5.57-13,1.32-.73,2.88.29,4,.86,1.27-5.86,2.91-11,3.86-11s3.6,1.06,3.6,1.68a.22.22,0,0,1-.12.2,4.38,4.38,0,0,0-.49.7c-2,3.69-4.71,15.17-5.45,21-.13.9.08,1.07.65.45,2.38-2.54,4.23-7.17,5.25-9.88a.57.57,0,0,1,1.07.41c-1.07,2.75-4.64,11.93-8.16,11.93-2.3,0-2.22-2.42-2.09-4C193.84,173.3,193.88,173.09,193.88,172.85Zm-4.27.16c-.12,1.39.21,2.26.82,2.26.41,0,.95-.41,1.52-1.32a25.78,25.78,0,0,0,2.54-5.57c.25-1.56.58-3.2.9-4.84a1,1,0,0,0-.9-.66C191.79,162.88,190,169.4,189.61,173Z"/><path class="cls-9" d="M205.28,175.76c-.66,3-2.3,4-4.06,4-.21,0-.21-.16-.09-.28a4.44,4.44,0,0,0,1.36-1.64c.08-.17.08-.25-.08-.29-2.22-.41-1-4.84.41-4.8a3.33,3.33,0,0,1,2.17.74C205.64,174.12,205.44,174.94,205.28,175.76Z"/><path class="cls-9" d="M219.66,161c1.93,0,3.94,1.76,3.94,3.52,0,2.22-1.19,4.64-2.13,4.64a4,4,0,0,1-2.26-1.27c-.32-.33-.12-.74.33-1a4.62,4.62,0,0,0,1.89-2.34c.41-1.06.2-1.64-.33-1.64-3.44,0-7.34,12.67-2.3,12.67,3.65,0,6.19-6.76,7.71-10.45a.56.56,0,0,1,1,.45c-1.52,3.73-4.31,11.48-9,11.93a7.63,7.63,0,0,1-.86.94c1,.21,1.56.74,1.56,1.56a2.32,2.32,0,0,1-2.55,2.09c-.94,0-2-.49-2-1.51,0-.17.13-.29.29-.21a2.88,2.88,0,0,0,1.48.57c1.64,0,1.92-1.35.57-1.35-.33,0-1-1.35-.86-1.43a6.5,6.5,0,0,0,.82-.74C208.76,176.21,214.33,161,219.66,161Z"/><path class="cls-9" d="M230.41,173.17a.59.59,0,0,0,0-.28c-1.19,2.5-2.75,4.63-4.59,4.63a2.59,2.59,0,0,1-2.71-2.54c-.53-4.47,1.76-11.56,5.82-13.74,1.27-.73,2.75.25,4.23,1a2.16,2.16,0,0,0,.2-.54c.16-.32.37-.53.62-.53a5.35,5.35,0,0,1,2.62,1.19c.45.33,0,.86-.21,1.27A72.59,72.59,0,0,0,233.52,175c-.12.61.25.61.58.29,2.5-2.5,4.22-7.3,5.29-10.09a.57.57,0,0,1,1.06.41c-1.06,2.75-4.47,11.93-8,11.93a2.49,2.49,0,0,1-2.26-2.79C230.28,174.2,230.33,173.71,230.41,173.17Zm1.92-8.69a10.16,10.16,0,0,1,.41-1.06,1.09,1.09,0,0,0-1-.54c-2.83,0-5,7.06-5.25,10.58,0,.45-.12,1.93.53,1.93C229,175.39,231.72,166.41,232.33,164.48Z"/><path class="cls-9" d="M249.84,172.85c-1.15,2.46-2.75,4.67-4.76,4.67s-2.91-1.56-3-3.32c-.2-4.43,1.76-10.91,5.58-13,1.31-.73,2.87.29,4,.86,1.27-5.86,2.91-11,3.85-11s3.61,1.06,3.61,1.68a.22.22,0,0,1-.12.2,4.43,4.43,0,0,0-.5.7c-2,3.69-4.71,15.17-5.45,21-.12.9.08,1.07.66.45,2.37-2.54,4.22-7.17,5.24-9.88a.57.57,0,0,1,1.07.41c-1.07,2.75-4.63,11.93-8.16,11.93-2.3,0-2.21-2.42-2.09-4C249.8,173.3,249.84,173.09,249.84,172.85Zm-4.26.16c-.13,1.39.2,2.26.82,2.26.41,0,.94-.41,1.51-1.32a25.78,25.78,0,0,0,2.55-5.57c.24-1.56.57-3.2.9-4.84a1,1,0,0,0-.9-.66C247.75,162.88,246,169.4,245.58,173Z"/><path class="cls-9" d="M261.2,177.52c-9.88,0-4.35-16.52,1.51-16.52,1.56,0,4.31,2.09,4.31,3.89,0,3.82-4.47,6.77-7.63,6.77-.08,2.17.58,3.93,2.46,3.93,3.32,0,6.32-6.72,7.71-10.45.25-.7,1.31-.25,1,.45C269.11,169.61,265.83,177.52,261.2,177.52Zm1.64-14.06c-1.64,1.23-3,4.47-3.36,7.25,2.21,0,4.67-3.32,4.67-6.6C264.15,163.25,263.45,163,262.84,163.46ZM266.2,154c-.41,0-.58,0-.58.2a2,2,0,0,1,.05.41,4.62,4.62,0,0,1-2.18,4c-.16.08-.08.25.13.25,1.39,0,4.1-.66,4.59-2.71a2.89,2.89,0,0,0-.17-1.68C267.76,154,266.77,154,266.2,154Z"/><path class="cls-9" d="M270.54,160.83c.82,0,3.57,1.07,3.57,1.73,0,.08,0,.12-.08.2a4,4,0,0,0-.49.66,18,18,0,0,0-1.4,3.52,39.89,39.89,0,0,1,2.75-4.34c.82-1.11,1.76-1.93,2.71-1.93,1.76,0,3.36,2.21,3.36,3.57a16.92,16.92,0,0,1-2.34,7.34,14.7,14.7,0,0,0,4.88-6.44.58.58,0,0,1,1.07.45,16.18,16.18,0,0,1-7.38,8.2c-1.6,2.17-3.49,3.73-4.92,3.73a3.51,3.51,0,0,1-2.34-.78,76.17,76.17,0,0,0-1.23,10.09c0,.33-.12.49-.49.49-1,0-2.71-.94-2.71-1.8C265.5,178.55,268.82,160.83,270.54,160.83ZM270.46,174c-.08.33-.12.62-.2,1a2.35,2.35,0,0,1,1.06-.33,10.38,10.38,0,0,0,2.34-.57,20.64,20.64,0,0,0,3.53-9.89c0-.78-.25-1.23-.62-1.19a1,1,0,0,0-.66.37A29.42,29.42,0,0,0,270.46,174Z"/><path class="cls-9" d="M287.6,173.17a.59.59,0,0,0,0-.28c-1.19,2.5-2.75,4.63-4.59,4.63a2.6,2.6,0,0,1-2.71-2.54c-.53-4.47,1.77-11.56,5.82-13.74,1.28-.73,2.75.25,4.23,1a2.16,2.16,0,0,0,.2-.54c.17-.32.37-.53.62-.53a5.31,5.31,0,0,1,2.62,1.19c.45.33,0,.86-.2,1.27A70.44,70.44,0,0,0,290.72,175c-.13.61.24.61.57.29,2.5-2.5,4.22-7.3,5.29-10.09a.57.57,0,0,1,1.06.41c-1.06,2.75-4.46,11.93-8,11.93a2.49,2.49,0,0,1-2.26-2.79C287.48,174.2,287.52,173.71,287.6,173.17Zm1.93-8.69a7.06,7.06,0,0,1,.41-1.06,1.12,1.12,0,0,0-1-.54c-2.83,0-5,7.06-5.25,10.58,0,.45-.12,1.93.54,1.93C286.21,175.39,288.91,166.41,289.53,164.48Z"/><path class="cls-9" d="M316.67,165.59a20.7,20.7,0,0,1-4.84,6.31,5.2,5.2,0,0,1,.74,2.5c0,3.53-3.77,5.58-6.89,5.58a3.61,3.61,0,0,1-3.85-3,.62.62,0,0,1,.49-1c2.13,0,4.63-1.84,6.27-3-.53-1.68-2-3-3-4.59a8.27,8.27,0,0,1-3.44,3.56c.45,3.65-3.45,5.83-6.57,5.83-2.66,0-3.68-2.18-2.62-3.86a3.55,3.55,0,0,1,2.83-1.47c.86-.13,1.8-.13,2.66-.33-.41-2.46-3.23-4-3.23-7.13a4.33,4.33,0,0,1,4.55-4.19c1.43,0,3.36,2.09,3.36,3.57,0,.86-.9,2.38-1.48,2.38-.9,0-2.17-.62-2.17-1,0-.08,0-.12.08-.16.7,0,1.27-1.11,1.27-1.89,0-.49-.2-.9-.69-.9-1,0-1.44,1.76-1.44,2.5,0,2.18,2.17,3.73,3.08,5.58a6.64,6.64,0,0,0,3.07-3.65,5.17,5.17,0,0,1-.53-2.21c0-2.63,2.58-4.19,4.88-4.19,1.43,0,3.32,2.09,3.32,3.57,0,.86-.86,2.38-1.44,2.38-.94,0-2.21-.62-2.21-1a.21.21,0,0,1,.08-.16c.74,0,1.31-1.11,1.31-1.89,0-.49-.2-.9-.69-.9-1,0-1.81,1.76-1.81,2.5,0,2,2.05,3.73,3.36,5.58a19.31,19.31,0,0,0,4.43-5.78A.62.62,0,0,1,316.67,165.59ZM295.88,176a4.31,4.31,0,0,0,2.5-2.7c-1,.24-2.13.08-3.2.37A1.24,1.24,0,1,0,295.88,176Zm9.27,2.34a4,4,0,0,0,3.65-4v0a16.35,16.35,0,0,1-5.54,2.79A2,2,0,0,0,305.15,178.34Z"/><path class="cls-9" d="M319.66,161c1.56,0,4.31,2.09,4.31,3.89,0,3.82-4.47,6.77-7.63,6.77-.08,2.17.57,3.93,2.46,3.93,3.32,0,6.31-6.72,7.71-10.45.24-.7,1.31-.25,1,.45-1.47,4-4.75,11.93-9.39,11.93C308.26,177.52,313.8,161,319.66,161Zm-3.24,9.71c2.22,0,4.68-3.32,4.68-6.6a.76.76,0,0,0-1.32-.65C318.14,164.69,316.75,167.93,316.42,170.71Z"/><path class="cls-9" d="M330.12,177.56c-2.63-.08-1.36-4.88.08-4.84,1.6.05,2.66.7,2.66,2.05C332.86,175.47,332,177.6,330.12,177.56Zm3.36-8.44c-.13.61-.21,1.1-.25,1.43s-.16.41-.53.41c-.95,0-2.83-1-2.67-2.25.41-2.59,1-5.17,1.52-7.71,1.27-5.37,2.75-9.92,3.65-9.92s3.57,1.06,3.57,1.68a.31.31,0,0,1-.09.2,2.94,2.94,0,0,0-.53.7A80.38,80.38,0,0,0,333.48,169.12Z"/><path class="cls-9" d="M348,165a58.48,58.48,0,0,1-3.44,5.2c-.49.7-2.09.41-2.83-.24-.29-.25-.25-.41,0-.7a56.77,56.77,0,0,0,3.89-5.33,49,49,0,0,0-1.76-5c-.12-.33-.12-.5.25-.66.9-.41,2.46-.21,2.78.57.58,1.52,1,3.12,1.44,4.68A1.75,1.75,0,0,1,348,165Zm5,0a56,56,0,0,1-3.4,5.2c-.53.7-2.13.41-2.87-.24-.25-.25-.25-.41,0-.7a55,55,0,0,0,3.89-5.33,46.75,46.75,0,0,0-1.76-5c-.12-.33-.08-.5.25-.66.9-.41,2.5-.21,2.78.57a45.9,45.9,0,0,1,1.44,4.68A1.75,1.75,0,0,1,353,165Z"/><path class="cls-9" d="M150.69,178.08c.77,0,3.56,1.06,3.56,1.68a.31.31,0,0,1-.08.2,4.6,4.6,0,0,0-.53.7c-2.38,4.26-6,21.57-6.11,25.87a46,46,0,0,1,8.44-1c1,0,1.6.12,1.73.41.32.69.65,3,.16,3.28h-.2a3.16,3.16,0,0,0-.7-.21,29.72,29.72,0,0,0-13.78,1.44c-1.23.53-1.19-2-.24-2.42a17.81,17.81,0,0,1,2.95-1.07c-.82-.33-1.56-.94-1.56-1.52C144.33,198.49,148.92,178.08,150.69,178.08Z"/><path class="cls-9" d="M162.41,188c1.56,0,4.31,2.09,4.31,3.89,0,3.82-4.47,6.77-7.63,6.77-.08,2.17.57,3.93,2.46,3.93,3.32,0,6.31-6.72,7.71-10.45.24-.7,1.31-.25,1,.45-1.47,4-4.75,11.93-9.39,11.93C151,204.52,156.55,188,162.41,188Zm-3.24,9.71c2.22,0,4.68-3.32,4.68-6.6a.76.76,0,0,0-1.32-.65C160.89,191.69,159.5,194.93,159.17,197.71Z"/><path class="cls-9" d="M176.14,187.83c.82,0,3.57,1.07,3.57,1.73,0,.08,0,.12-.08.2a4,4,0,0,0-.49.66,18.7,18.7,0,0,0-1.4,3.52,39.89,39.89,0,0,1,2.75-4.34c.82-1.11,1.76-1.93,2.71-1.93,1.76,0,3.36,2.21,3.36,3.57a16.92,16.92,0,0,1-2.34,7.34,14.7,14.7,0,0,0,4.88-6.44.58.58,0,0,1,1.07.45,16.18,16.18,0,0,1-7.38,8.2c-1.6,2.17-3.49,3.73-4.92,3.73a3.51,3.51,0,0,1-2.34-.78,76.17,76.17,0,0,0-1.23,10.09c0,.33-.12.49-.49.49-1,0-2.71-.94-2.71-1.8C171.1,205.55,174.42,187.83,176.14,187.83ZM176.06,201c-.08.33-.12.62-.2,1a2.39,2.39,0,0,1,1.06-.33,10.38,10.38,0,0,0,2.34-.57,20.64,20.64,0,0,0,3.53-9.89c0-.78-.25-1.23-.62-1.19a.92.92,0,0,0-.65.37A29.29,29.29,0,0,0,176.06,201Z"/><path class="cls-9" d="M192.83,188c1.56,0,4.31,2.09,4.31,3.89,0,3.82-4.47,6.77-7.63,6.77-.08,2.17.57,3.93,2.46,3.93,3.32,0,6.31-6.72,7.71-10.45.24-.7,1.31-.25,1,.45-1.47,4-4.75,11.93-9.39,11.93C181.43,204.52,187,188,192.83,188Zm-3.24,9.71c2.22,0,4.68-3.32,4.68-6.6a.76.76,0,0,0-1.32-.65C191.31,191.69,189.92,194.93,189.59,197.71Zm3.77-16.56a2.38,2.38,0,0,0,0,.41,4.71,4.71,0,0,0,2.18,4c.16.08.12.24-.13.24-1.39,0-4.1-.65-4.55-2.7a2.88,2.88,0,0,1,.13-1.68c.28-.54,1.27-.49,1.84-.49C193.2,181,193.36,181,193.36,181.15Z"/><path class="cls-9" d="M200.09,188.69a.74.74,0,0,1,.57-.53,5.36,5.36,0,0,1,2.67,1.19c.41.33,0,.86-.21,1.27a59.29,59.29,0,0,0-2,6.52c1.48-3.16,3.65-7,5.62-8.69a1.05,1.05,0,0,1,.78-.29,5,5,0,0,1,2.54,1.07c.53.53.21.94-.25,1.27a7.08,7.08,0,0,0-2.17,4.67c0,1,.33,1.48.78,1.48,1.72,0,3.36-3.28,4.14-4.59a.58.58,0,0,1,1,.61c-.91,1.48-2.63,4.68-4.6,5.37-1.39.54-4-.74-4.18-2.54a9.65,9.65,0,0,1,1.11-4.39c.16-.36,0-.28-.12-.08-2.67,3.2-5.83,10.37-6,13,0,.41-.25.45-.49.45-1,0-2.59-1.11-2.59-2A48.94,48.94,0,0,1,200.09,188.69Z"/><path class="cls-9" d="M216.28,188c1.56,0,4.31,2.09,4.31,3.89,0,3.82-4.47,6.77-7.63,6.77-.08,2.17.58,3.93,2.46,3.93,3.32,0,6.32-6.72,7.71-10.45.25-.7,1.31-.25,1,.45-1.48,4-4.76,11.93-9.39,11.93C204.89,204.52,210.42,188,216.28,188ZM213,197.71c2.22,0,4.68-3.32,4.68-6.6,0-.86-.7-1.14-1.31-.65C214.77,191.69,213.37,194.93,213,197.71Z"/><path class="cls-9" d="M231.66,178.08c.82,0,3.56,1.06,3.56,1.68,0,.2-.08.28-.08.57a102.14,102.14,0,0,0,1.07,17c1.11-8.08,4-19.27,5.41-19.27.82,0,3.57,1.06,3.57,1.68a.31.31,0,0,1-.08.2,4.65,4.65,0,0,0-.54.7C242.15,185,239,200.09,239,204c0,.33-.12.49-.49.49-1.72,0-2.7-.82-3-1.76A100.16,100.16,0,0,1,233,184.84c-2,6.27-4,16.11-4,19.19,0,.33-.12.49-.49.49-1,0-2.71-.9-2.71-1.8C225.79,195.79,229.94,178.08,231.66,178.08Z"/><path class="cls-9" d="M249.49,188.69c2.55,0,4.68,1.77,4.68,3.61A15.1,15.1,0,0,1,253,198a15.61,15.61,0,0,0,4.22-5.9.58.58,0,0,1,1.07.45,16.28,16.28,0,0,1-6.4,7.63c-1.52,2.5-3.69,4.3-6.11,4.3-2.95,0-4.71-3-4.71-5.08,0-4.06,2.09-9.39,5.53-11.2A3,3,0,0,1,249.49,188.69Zm-4.14,12.88a10.19,10.19,0,0,0,2.38-.53,18.1,18.1,0,0,0,2.62-8.74c0-2.7-1.47-2.87-2.95-1.27-2.34,2.58-3.48,8.41-2.46,10.62A1.24,1.24,0,0,1,245.35,201.57Z"/><path class="cls-9" d="M259.41,204.52c-9.88,0-4.34-16.52,1.52-16.52,1.56,0,4.31,2.09,4.31,3.89,0,3.82-4.47,6.77-7.63,6.77-.08,2.17.57,3.93,2.46,3.93,3.32,0,6.31-6.72,7.71-10.45.25-.7,1.31-.25,1,.45C267.33,196.61,264.05,204.52,259.41,204.52Zm1.64-14.06c-1.64,1.23-3,4.47-3.36,7.25,2.22,0,4.68-3.32,4.68-6.6A.76.76,0,0,0,261.05,190.46Zm1.11-7.22c0-1.31-1-1.93-2.5-2s-2.62,4.55-.12,4.6C261.38,186,262.16,183.9,262.16,183.24Zm6.11,0c0-1.31-1-1.93-2.5-2s-2.62,4.55-.12,4.6C267.45,186,268.27,183.9,268.27,183.24Z"/><path class="cls-9" d="M270.61,178.08c.78,0,3.56,1.06,3.56,1.68a.31.31,0,0,1-.08.2,4.6,4.6,0,0,0-.53.7c-2.05,3.69-4.72,15.17-5.45,21-.09.9.08,1.07.69.45,2.38-2.54,4.19-7.17,5.21-9.88a.57.57,0,0,1,1.07.41c-1.07,2.75-4.64,11.93-8.16,11.93-2.26,0-2.22-2.42-2.09-4C265.48,192.59,269,178.08,270.61,178.08Z"/><path class="cls-9" d="M283.68,188c1.56,0,4.31,2.09,4.31,3.89,0,3.82-4.47,6.77-7.63,6.77-.08,2.17.58,3.93,2.46,3.93,3.32,0,6.32-6.72,7.71-10.45.25-.7,1.31-.25,1,.45-1.48,4-4.76,11.93-9.39,11.93C272.29,204.52,277.82,188,283.68,188Zm-3.23,9.71c2.21,0,4.67-3.32,4.67-6.6,0-.86-.7-1.14-1.31-.65C282.17,191.69,280.77,194.93,280.45,197.71Z"/><path class="cls-9" d="M287.13,201a3.47,3.47,0,0,1,2.83-1.51c.9-.13,1.84-.13,2.62-.29-.37-2.46-3.2-4-3.2-7.13a4.3,4.3,0,0,1,4.51-4.19c1.48,0,3.37,2.09,3.37,3.57,0,.86-.91,2.38-1.48,2.38-.9,0-2.17-.62-2.17-1a.21.21,0,0,1,.08-.16c.7,0,1.27-1.11,1.27-1.89,0-.49-.21-.9-.66-.9-1,0-1.47,1.76-1.47,2.5,0,2.18,2.21,3.73,3.07,5.58a9.59,9.59,0,0,0,4.39-5.7c.2-.7,1.27-.33,1.07.37a10.57,10.57,0,0,1-5.09,6.44c.49,3.6-3.4,5.78-6.56,5.78C287.09,204.77,286.06,202.59,287.13,201Zm2.21-.28A1.24,1.24,0,1,0,290,203a4.33,4.33,0,0,0,2.5-2.66C291.68,200.54,290.29,200.42,289.34,200.67Z"/><path class="cls-9" d="M305.33,183.69c-.16.41-.28.82-.41,1.23a6.76,6.76,0,0,1,3.08.5c.24.12.49,1.23.49,1.63,0,.25,0,.37-.16.46h-.13a12.61,12.61,0,0,0-3.93-.46A116.53,116.53,0,0,0,301,201.61c-.08.9.08,1.07.65.45a35.65,35.65,0,0,0,5.91-9.88.57.57,0,0,1,1.06.41c-1.06,2.75-5.49,11.93-8.81,11.93-2.3,0-2.22-2.42-2.09-4a96,96,0,0,1,2.5-13.32h-.9c-.78,0-2.59,0-3-1.07-.12-.33,0-.49.37-.49a30.66,30.66,0,0,0,4-.33,25.52,25.52,0,0,1,.94-3.11c.41-1,.82-1.52,1.19-1.52.82,0,3.32,1,3.32,1.68,0,.08,0,.12-.12.2s-.08.13-.12.17A2.65,2.65,0,0,0,305.33,183.69Z"/><path class="cls-9" d="M172.72,227.17a2.55,2.55,0,0,0,.08-.28c-1.23,2.5-2.74,4.63-4.59,4.63a3,3,0,0,1-2.91-2.79c.08-.53.12-1,.21-1.56a49.76,49.76,0,0,1,3.15-11.48c.17-.32.37-.53.62-.53a5.31,5.31,0,0,1,2.62,1.19c.41.33,0,.86-.2,1.27a70.4,70.4,0,0,0-2.87,10.29c-.21,1,.08,1.48.53,1.48,2,0,4.84-9,5.49-10.91.33-1,.66-1.92,1-2.79.16-.32.41-.53.61-.53a5.34,5.34,0,0,1,2.63,1.19c.45.33,0,.86-.17,1.27A69.39,69.39,0,0,0,175.84,229c-.13.61.24.61.61.29,2.46-2.5,4.35-7.3,5.42-10.09a.57.57,0,0,1,1.06.41c-1.06,2.75-4.63,11.93-8.16,11.93a2.51,2.51,0,0,1-2.25-2.79C172.6,228.2,172.68,227.71,172.72,227.17Z"/><path class="cls-9" d="M182.07,215.69a.74.74,0,0,1,.57-.53,5.32,5.32,0,0,1,2.67,1.19c.41.33,0,.86-.21,1.27a61.53,61.53,0,0,0-2,6.52c1.48-3.16,3.65-7,5.62-8.69a1.07,1.07,0,0,1,.78-.29c.57,0,2.75.74,2.75,1.52a.86.86,0,0,1-.13.45c-.16.33-.28.66-.45,1A72.62,72.62,0,0,0,188.79,229c-.12.61.17.7.58.29,2.5-2.5,4.38-7.3,5.45-10.09a.57.57,0,0,1,1.07.41c-1.07,2.75-4.64,11.93-8.16,11.93a2.22,2.22,0,0,1-2.38-2.17,60.28,60.28,0,0,1,2.75-11.77c-2.75,2.95-6.19,10.7-6.4,13.49,0,.41-.25.45-.49.45-1,0-2.59-1.11-2.59-2A48.94,48.94,0,0,1,182.07,215.69Z"/><path class="cls-9" d="M198.55,215c1.56,0,4.31,2.09,4.31,3.89,0,3.82-4.47,6.77-7.63,6.77-.08,2.17.57,3.93,2.46,3.93,3.32,0,6.31-6.72,7.71-10.45.24-.7,1.31-.25,1,.45-1.47,4-4.75,11.93-9.39,11.93C187.15,231.52,192.69,215,198.55,215Zm-3.24,9.71c2.22,0,4.68-3.32,4.68-6.6a.76.76,0,0,0-1.32-.65C197,218.69,195.64,221.93,195.31,224.71Z"/><path class="cls-9" d="M216.71,215.69c2.54,0,4.68,1.77,4.68,3.61A15.1,15.1,0,0,1,220.2,225a15.61,15.61,0,0,0,4.22-5.9.58.58,0,0,1,1.07.45,16.28,16.28,0,0,1-6.4,7.63c-1.52,2.5-3.69,4.3-6.11,4.3-2.95,0-4.71-3-4.71-5.08,0-4.06,2.09-9.39,5.53-11.2A3,3,0,0,1,216.71,215.69Zm-4.14,12.88A10.19,10.19,0,0,0,215,228a18.1,18.1,0,0,0,2.62-8.74c0-2.7-1.47-2.87-2.95-1.27-2.34,2.58-3.48,8.41-2.46,10.62A1.24,1.24,0,0,1,212.57,228.57Z"/><path class="cls-9" d="M224.62,215.69a.75.75,0,0,1,.58-.53,5.29,5.29,0,0,1,2.66,1.19c.41.33,0,.86-.2,1.27a57.21,57.21,0,0,0-2,6.52c1.48-3.16,3.65-7,5.62-8.69a1.05,1.05,0,0,1,.78-.29,5,5,0,0,1,2.54,1.07c.53.53.2.94-.25,1.27a7.08,7.08,0,0,0-2.17,4.67c0,1,.33,1.48.78,1.48,1.72,0,3.36-3.28,4.14-4.59a.58.58,0,0,1,1,.61c-.9,1.48-2.62,4.68-4.59,5.37-1.39.54-4-.74-4.18-2.54a9.65,9.65,0,0,1,1.11-4.39c.16-.36,0-.28-.13-.08-2.66,3.2-5.82,10.37-6,13,0,.41-.25.45-.5.45-1,0-2.58-1.11-2.58-2A48.92,48.92,0,0,1,224.62,215.69Z"/><path class="cls-9" d="M241.23,226.85c-1.15,2.46-2.75,4.67-4.76,4.67s-2.91-1.56-3-3.32c-.2-4.43,1.76-10.91,5.58-13,1.31-.73,2.87.29,4,.86,1.27-5.86,2.91-11,3.85-11s3.61,1.06,3.61,1.68a.21.21,0,0,1-.13.2,5.13,5.13,0,0,0-.49.7c-2,3.69-4.71,15.17-5.45,21-.12.9.08,1.07.66.45,2.37-2.54,4.22-7.17,5.24-9.88a.57.57,0,0,1,1.07.41c-1.07,2.75-4.63,11.93-8.16,11.93-2.3,0-2.21-2.42-2.09-4C241.19,227.3,241.23,227.09,241.23,226.85ZM237,227c-.13,1.39.2,2.26.82,2.26.41,0,.94-.41,1.51-1.32a25.78,25.78,0,0,0,2.55-5.57c.24-1.56.57-3.2.9-4.84a1,1,0,0,0-.9-.66C239.14,216.88,237.34,223.4,237,227Z"/><path class="cls-9" d="M254.6,227.17a2.55,2.55,0,0,0,.08-.28c-1.23,2.5-2.75,4.63-4.59,4.63-1.56,0-3-1.6-2.92-2.79.09-.53.13-1,.21-1.56a49.27,49.27,0,0,1,3.16-11.48c.16-.32.37-.53.61-.53a5.38,5.38,0,0,1,2.63,1.19c.41.33-.05.86-.21,1.27a70.4,70.4,0,0,0-2.87,10.29c-.2,1,.08,1.48.53,1.48,2,0,4.84-9,5.5-10.91.33-1,.65-1.92,1-2.79.17-.32.41-.53.62-.53a5.31,5.31,0,0,1,2.62,1.19c.45.33,0,.86-.16,1.27A68.5,68.5,0,0,0,257.71,229c-.12.61.25.61.62.29,2.46-2.5,4.34-7.3,5.41-10.09a.57.57,0,0,1,1.06.41c-1.06,2.75-4.63,11.93-8.15,11.93a2.52,2.52,0,0,1-2.26-2.79C254.47,228.2,254.55,227.71,254.6,227.17Z"/><path class="cls-9" d="M263.94,215.69a.75.75,0,0,1,.58-.53,5.29,5.29,0,0,1,2.66,1.19c.41.33,0,.86-.2,1.27a57.21,57.21,0,0,0-2,6.52c1.47-3.16,3.65-7,5.61-8.69a1.08,1.08,0,0,1,.78-.29,5,5,0,0,1,2.55,1.07c.53.53.2.94-.25,1.27a7.08,7.08,0,0,0-2.17,4.67c0,1,.33,1.48.78,1.48,1.72,0,3.36-3.28,4.14-4.59a.58.58,0,0,1,1,.61c-.9,1.48-2.62,4.68-4.59,5.37-1.39.54-4-.74-4.18-2.54a9.64,9.64,0,0,1,1.1-4.39c.17-.36,0-.28-.12-.08-2.66,3.2-5.82,10.37-6,13,0,.41-.24.45-.49.45-1,0-2.58-1.11-2.58-2A48.92,48.92,0,0,1,263.94,215.69Z"/><path class="cls-9" d="M280.14,215c1.56,0,4.3,2.09,4.3,3.89,0,3.82-4.47,6.77-7.62,6.77-.08,2.17.57,3.93,2.46,3.93,3.32,0,6.31-6.72,7.71-10.45.24-.7,1.31-.25,1,.45-1.48,4-4.76,11.93-9.39,11.93C268.74,231.52,274.28,215,280.14,215Zm-3.24,9.71c2.21,0,4.67-3.32,4.67-6.6,0-.86-.69-1.14-1.31-.65C278.62,218.69,277.23,221.93,276.9,224.71Z"/></svg>