<svg id="Calque_1" data-name="Calque 1" xmlns="http://www.w3.org/2000/svg" viewBox="0 0 485.5 628.38"><defs><style>.cls-1,.cls-10{fill:none;}.cls-1,.cls-2{stroke:#484848;}.cls-1,.cls-10,.cls-2{stroke-linecap:round;stroke-linejoin:round;}.cls-2,.cls-9{fill:#fff;}.cls-3{fill:#00a6c4;opacity:0.93;}.cls-3,.cls-4,.cls-7{isolation:isolate;}.cls-5{fill:#5f5f5f;}.cls-6{fill:#484848;}.cls-7{fill:#ff6679;opacity:0.48;}.cls-8{fill:#4c4d4d;}.cls-10{stroke:#fff;stroke-width:0.5px;}.cls-11{fill:#545454;}</style></defs><title>Etape 3</title><ellipse class="cls-1" cx="425.82" cy="579.86" rx="41.79" ry="14.13"/><path class="cls-2" d="M419.81,230.86v347s7.12,4.38,11.5,0,0-347,0-347"/><path class="cls-1" d="M386.87,123.5l-24,96.1,19.84,6.87,41.62,4.4,37.19-2.66,26.14-6.11-24.8-99.57S421.22,112.12,386.87,123.5Z"/><line class="cls-1" x1="445.05" y1="135.29" x2="460.24" y2="221.13"/><line class="cls-1" x1="423.15" y1="135.57" x2="420.8" y2="221.63"/><line class="cls-1" x1="401.56" y1="135.84" x2="386.72" y2="216.02"/><path class="cls-3" d="M473.64,224.07c2.5.6,4.89.17,6.1-3.34,1.45-4.21.27-10.41-.73-16.15-2.83-16.18-6.36-32.35-10.66-48.31-2.06-7.63-4.23-15.36-6.68-22.8-1.88-5.67-4.22-9.17-7.33-10.15a16.09,16.09,0,0,0-1.94-.46c-4.28-2.35-8.93.21-12.38.78l-.26,0a16.07,16.07,0,0,0-2.08.18c-4.18.2-9.42.18-10.4,7.35-1.11,8.12-.86,20.52,1.32,29.31.21.87.43,1.74.64,2.6,2.53,13.54,5.35,36.09,8.57,49.56,2.07,8.64-1.75,11,3,14,.84,1.34,1.84,2.19,2.77,1.94L473,224A3.13,3.13,0,0,0,473.64,224.07Z"/><line class="cls-1" x1="452.6" y1="235.24" x2="452.6" y2="295.63"/><g class="cls-4"><g class="cls-4"><path class="cls-5" d="M36.36,59.6c1.08-1.72,2.12-3.44,3.36-5,.52-.68,2-.4,2.76.24.28.24.28.4.08.68a48,48,0,0,0-3.8,5.2,39.69,39.69,0,0,0,1.72,4.92c.12.32.08.48-.24.64-.88.4-2.44.2-2.72-.56a46.08,46.08,0,0,1-1.4-4.56A1.77,1.77,0,0,1,36.36,59.6Zm4.88,0c1-1.72,2.12-3.44,3.32-5,.52-.68,2-.4,2.8.24.24.24.24.4,0,.68a54.08,54.08,0,0,0-3.8,5.2,47.53,47.53,0,0,0,1.72,4.92c.12.32.08.48-.24.64-.88.4-2.44.2-2.72-.56A46.08,46.08,0,0,1,41,61.12,1.67,1.67,0,0,1,41.24,59.6Z"/><path class="cls-5" d="M71,50a2.42,2.42,0,0,1,.92,1.8c0,2.48-2.52,4.16-2.48,6.68,0,.16,0,.28-.2.28a2.75,2.75,0,0,1-2.92-2.52c0-1.12,2.76-2.8,2.76-4.72a1.79,1.79,0,0,0-2-1.84c-5.6,0-7.48,9.28-2.8,9.76A5.34,5.34,0,0,1,66,59.2c.6,0,1.28,2.44.16,2.44a8.88,8.88,0,0,1-2-.24c-6.08,1.84-7.84,12.84-.48,12.84a7.37,7.37,0,0,0,5.48-2.48.27.27,0,0,1,.4,0,.8.8,0,0,1,0,.6c-.84,2.52-4,3.92-6.44,3.92-9.36,0-10.88-11.84-2.08-15.84C55.48,57.8,57.8,47.4,66.28,47.4,68.56,47.4,70.32,48.32,71,50Z"/><path class="cls-5" d="M78.2,52.88c-.16.4-.28.8-.4,1.2a6.58,6.58,0,0,1,3,.48c.24.12.48,1.2.48,1.6,0,.24,0,.36-.16.44H81a12.33,12.33,0,0,0-3.84-.44A115,115,0,0,0,74,70.36c-.08.88.08,1,.64.44a34.78,34.78,0,0,0,5.76-9.64.56.56,0,0,1,1,.4c-1,2.68-5.36,11.64-8.6,11.64-2.24,0-2.16-2.36-2-3.92a93.75,93.75,0,0,1,2.44-13h-.88c-.76,0-2.52,0-2.92-1-.12-.32,0-.48.36-.48a31.07,31.07,0,0,0,3.88-.32,24.39,24.39,0,0,1,.92-3c.4-1,.8-1.48,1.16-1.48.8,0,3.24,1,3.24,1.64,0,.08,0,.12-.12.2s-.08.12-.12.16A2.52,2.52,0,0,0,78.2,52.88Z"/><path class="cls-5" d="M91.84,68.64C90.72,71,89.16,73.2,87.2,73.2S84.36,71.68,84.28,70c-.2-4.32,1.72-10.64,5.44-12.64,1.28-.72,2.8.28,3.92.84,1.24-5.72,2.84-10.76,3.76-10.76s3.52,1,3.52,1.64a.22.22,0,0,1-.12.2,4.15,4.15,0,0,0-.48.68c-2,3.6-4.6,14.8-5.32,20.44-.12.88.08,1,.64.44,2.32-2.48,4.12-7,5.12-9.64a.56.56,0,0,1,1,.4c-1,2.68-4.52,11.64-8,11.64-2.24,0-2.16-2.36-2-3.92C91.8,69.08,91.84,68.88,91.84,68.64Zm-4.16.16c-.12,1.36.2,2.2.8,2.2.4,0,.92-.4,1.48-1.28a25.51,25.51,0,0,0,2.48-5.44c.24-1.52.56-3.12.88-4.72a1,1,0,0,0-.88-.64C89.8,58.92,88,65.28,87.68,68.8Z"/><path class="cls-5" d="M113,52.84c-.12.36-.28.76-.4,1.16a7.39,7.39,0,0,1,3,.48,3.31,3.31,0,0,1,.44,1.64.64.64,0,0,1-.12.44h-.12a14.14,14.14,0,0,0-3.88-.48,117.08,117.08,0,0,0-3.2,14.24c-.08.92.08,1.08.68.44a35.18,35.18,0,0,0,5.76-9.64.54.54,0,1,1,1,.4c-1,2.68-5.32,11.68-8.6,11.68-2.24,0-2.16-2.4-2-4,0-.48.08-1,.16-1.52-1.52,2.84-3.36,5.48-5.24,5.48a2.45,2.45,0,0,1-2.2-2.72c.08-.52.12-1,.2-1.52a48.85,48.85,0,0,1,3.12-11.24.71.71,0,0,1,.56-.52,5.67,5.67,0,0,1,2.6,1.12c.4.36-.08.88-.2,1.24a68.26,68.26,0,0,0-3,11.16c-.12.6.24.6.6.24,1.72-1.68,3.12-4.56,4.2-7.08.48-2.52,1.08-5.2,1.68-7.68a6.78,6.78,0,0,1-.88,0c-1.68,0-3.56-.52-3.56-2.56A9,9,0,0,1,104.72,50c.4-.76.72-1.16,1-1.16a7.45,7.45,0,0,1,2.4,1.08c.6.4.56.92.16,1.64a30.39,30.39,0,0,1-2.16,3.08c.8-.08,1.6-.16,2.36-.28a29.3,29.3,0,0,1,.92-3c.4-.92.8-1.48,1.16-1.48.8,0,3.24,1,3.24,1.64a.31.31,0,0,1-.08.2.7.7,0,0,0-.16.2A2.26,2.26,0,0,0,113,52.84Z"/><path class="cls-5" d="M119.48,57.08c1.52,0,4.2,2,4.2,3.8,0,3.72-4.36,6.6-7.44,6.6-.08,2.12.56,3.84,2.4,3.84,3.24,0,6.16-6.56,7.52-10.2.24-.68,1.28-.24,1,.44-1.44,3.92-4.64,11.64-9.16,11.64C108.36,73.2,113.76,57.08,119.48,57.08Zm-3.16,9.48c2.16,0,4.56-3.24,4.56-6.44,0-.84-.68-1.12-1.28-.64C118,60.68,116.64,63.84,116.32,66.56Z"/><path class="cls-5" d="M123.48,69.72a3.39,3.39,0,0,1,2.76-1.48c.88-.12,1.8-.12,2.56-.28-.36-2.4-3.12-3.88-3.12-7a4.19,4.19,0,0,1,4.4-4.08c1.44,0,3.28,2,3.28,3.48,0,.84-.88,2.32-1.44,2.32-.88,0-2.12-.6-2.12-1a.21.21,0,0,1,.08-.16c.68,0,1.24-1.08,1.24-1.84,0-.48-.2-.88-.64-.88-1,0-1.44,1.72-1.44,2.44,0,2.12,2.16,3.64,3,5.44a9.37,9.37,0,0,0,4.28-5.56c.2-.68,1.24-.32,1,.36a10.27,10.27,0,0,1-5,6.28c.48,3.52-3.32,5.64-6.4,5.64C123.44,73.44,122.44,71.32,123.48,69.72Zm2.16-.28a1.21,1.21,0,1,0,.68,2.28,4.24,4.24,0,0,0,2.44-2.6C127.92,69.32,126.56,69.2,125.64,69.44Z"/><path class="cls-5" d="M139.4,60.92a9.83,9.83,0,0,1-.36-1.76c0-.4.16-.4.36-.32a5.5,5.5,0,0,0,1.88.12c2.44-.12,5.16-.32,7.52-.24.8,0,1.48,1.48,1.36,2.44,0,.36-.2.44-.52.4a80.89,80.89,0,0,0-8.8.32A1.23,1.23,0,0,1,139.4,60.92Z"/><path class="cls-5" d="M163.71,60.12c-.63,1.48-1.51,3.32-2.51,5.16a1.83,1.83,0,0,0,1.16.16c1.27-.24,2.43-1.56,3.95-4.36a.55.55,0,1,1,1,.52c-1.68,3.12-3.15,4.64-4.71,4.92a2.67,2.67,0,0,1-1.88-.28,44,44,0,0,1-3.88,6,2.24,2.24,0,0,1-1.56,1c-1.2,0-3.44-1-3.44-2.28a52.63,52.63,0,0,1,1.6-13.12c.12-.36.32-.6.68-.6a5.68,5.68,0,0,1,2.56.8c.44.28,0,.88,0,1.24a73.87,73.87,0,0,0-2,11.52c0,.36.08.48.36.12a60.81,60.81,0,0,0,4.28-7.8,10,10,0,0,1,2-5.4c.36-.56.88-.48,1.36-.2A2.27,2.27,0,0,1,163.71,60.12Z"/><path class="cls-5" d="M172,57.76c2.47,0,4.55,1.72,4.55,3.52a14.78,14.78,0,0,1-1.16,5.6,15.25,15.25,0,0,0,4.12-5.76.57.57,0,0,1,1,.44A15.8,15.8,0,0,1,174.31,69c-1.48,2.44-3.59,4.2-5.95,4.2-2.88,0-4.6-2.88-4.6-5,0-4,2-9.16,5.4-10.92A2.94,2.94,0,0,1,172,57.76Zm-4,12.56a9.69,9.69,0,0,0,2.32-.52,17.77,17.77,0,0,0,2.55-8.52c0-2.64-1.43-2.8-2.87-1.24-2.28,2.52-3.4,8.2-2.4,10.36A1.18,1.18,0,0,1,168,70.32Z"/><path class="cls-5" d="M184.28,69a2.55,2.55,0,0,0,.08-.28c-1.2,2.44-2.68,4.52-4.48,4.52A3,3,0,0,1,177,70.48c.08-.52.12-1,.2-1.52a48.48,48.48,0,0,1,3.08-11.2c.16-.32.36-.52.6-.52a5.19,5.19,0,0,1,2.56,1.16c.4.32,0,.84-.2,1.24a69.14,69.14,0,0,0-2.8,10c-.2.92.08,1.44.52,1.44,1.92,0,4.72-8.76,5.36-10.64.31-1,.64-1.88,1-2.72a.78.78,0,0,1,.6-.52,5.2,5.2,0,0,1,2.55,1.16c.44.32,0,.84-.16,1.24a67.4,67.4,0,0,0-3,11.08c-.12.6.23.6.59.28,2.4-2.44,4.24-7.12,5.28-9.84a.56.56,0,0,1,1,.4c-1,2.68-4.52,11.64-7.95,11.64a2.45,2.45,0,0,1-2.2-2.72C184.16,70,184.24,69.48,184.28,69Z"/><path class="cls-5" d="M190.32,69.72a3.39,3.39,0,0,1,2.76-1.48c.88-.12,1.8-.12,2.56-.28-.36-2.4-3.12-3.88-3.12-7a4.19,4.19,0,0,1,4.39-4.08c1.45,0,3.29,2,3.29,3.48,0,.84-.88,2.32-1.45,2.32-.88,0-2.11-.6-2.11-1a.21.21,0,0,1,.08-.16c.68,0,1.24-1.08,1.24-1.84,0-.48-.21-.88-.64-.88-1,0-1.44,1.72-1.44,2.44,0,2.12,2.16,3.64,3,5.44a9.33,9.33,0,0,0,4.28-5.56c.2-.68,1.24-.32,1,.36a10.29,10.29,0,0,1-4.95,6.28c.47,3.52-3.32,5.64-6.4,5.64C190.28,73.44,189.28,71.32,190.32,69.72Zm2.16-.28a1.21,1.21,0,1,0,.68,2.28,4.24,4.24,0,0,0,2.44-2.6C194.76,69.32,193.4,69.2,192.48,69.44Z"/><path class="cls-5" d="M212.75,47.4c.8,0,3.48,1,3.48,1.64a.31.31,0,0,1-.08.2,2.63,2.63,0,0,0-.48.68c-1.28,2.24-2.76,7.48-3.84,12.44a27.17,27.17,0,0,1,2-3.56c.8-1.16,1.76-2.12,2.76-2.12,1.68,0,3.28,2.24,3.28,3.56a15.7,15.7,0,0,1-2.16,7.16,14,14,0,0,0,4.76-6.28.57.57,0,0,1,1,.44,15.71,15.71,0,0,1-7.16,8c-1.6,2.12-3.39,3.64-4.83,3.64a2.59,2.59,0,0,1-1.36-.68c0,.24.08.68-.48.68-1,0-2.64-.88-2.64-1.76C207,64.68,211.08,47.4,212.75,47.4Zm-.16,15.88a23.39,23.39,0,0,0-2.27,7,12,12,0,0,0,2.59-.56,20,20,0,0,0,3.24-9.64c0-1.24-.68-1.6-1.4-.56A36.34,36.34,0,0,0,212.59,63.28Z"/><path class="cls-5" d="M220.24,69a50.56,50.56,0,0,1,3.07-11.2c.16-.32.36-.52.6-.52a5.19,5.19,0,0,1,2.56,1.16c.44.32,0,.84-.16,1.24a67.5,67.5,0,0,0-3,11.08c-.11.6.24.6.56.28,2.44-2.44,4.28-7.12,5.32-9.84a.56.56,0,0,1,1,.4c-1,2.68-4.52,11.64-7.95,11.64a2.41,2.41,0,0,1-2.2-2.72C220.12,70,220.16,69.48,220.24,69Zm7.19-20A7.31,7.31,0,0,1,229.79,50c.6.4.6.92.16,1.64-.72,1.2-2.88,4.44-3.84,4.48-2.28.08-.16-5.12.36-6.08C226.83,49.32,227.15,48.92,227.43,48.92Z"/><path class="cls-5" d="M233.47,57.08c1.52,0,4.2,2,4.2,3.8,0,3.72-4.36,6.6-7.44,6.6-.08,2.12.56,3.84,2.4,3.84,3.24,0,6.16-6.56,7.52-10.2.24-.68,1.28-.24,1,.44-1.44,3.92-4.64,11.64-9.16,11.64C222.36,73.2,227.75,57.08,233.47,57.08Zm-3.16,9.48c2.16,0,4.56-3.24,4.56-6.44,0-.84-.68-1.12-1.28-.64C232,60.68,230.63,63.84,230.31,66.56Z"/><path class="cls-5" d="M241.19,57.76a.71.71,0,0,1,.56-.52,5.17,5.17,0,0,1,2.6,1.16c.4.32,0,.84-.2,1.24a56.42,56.42,0,0,0-2,6.36c1.44-3.08,3.56-6.88,5.48-8.48a1.06,1.06,0,0,1,.76-.28c.56,0,2.68.72,2.68,1.48a.91.91,0,0,1-.12.44c-.16.32-.28.64-.44,1a69.62,69.62,0,0,0-2.8,10.56c-.12.6.16.68.56.28,2.44-2.44,4.28-7.12,5.32-9.84a.56.56,0,0,1,1,.4c-1,2.68-4.52,11.64-8,11.64a2.16,2.16,0,0,1-2.32-2.12,58.92,58.92,0,0,1,2.68-11.48c-2.68,2.88-6,10.44-6.24,13.16,0,.4-.24.44-.48.44-1,0-2.52-1.08-2.52-1.92A47.55,47.55,0,0,1,241.19,57.76Z"/><path class="cls-5" d="M265.11,68.64c-1.12,2.4-2.68,4.56-4.64,4.56s-2.84-1.52-2.92-3.24c-.2-4.32,1.72-10.64,5.44-12.64,1.28-.72,2.8.28,3.92.84,1.24-5.72,2.84-10.76,3.76-10.76s3.52,1,3.52,1.64a.22.22,0,0,1-.12.2,4.15,4.15,0,0,0-.48.68c-2,3.6-4.6,14.8-5.32,20.44-.12.88.08,1,.64.44,2.32-2.48,4.12-7,5.12-9.64a.56.56,0,0,1,1,.4c-1,2.68-4.52,11.64-8,11.64-2.24,0-2.16-2.36-2-3.92C265.07,69.08,265.11,68.88,265.11,68.64ZM261,68.8c-.12,1.36.2,2.2.8,2.2.4,0,.92-.4,1.48-1.28a25.51,25.51,0,0,0,2.48-5.44c.24-1.52.56-3.12.88-4.72a1,1,0,0,0-.88-.64C263.07,58.92,261.31,65.28,261,68.8Z"/><path class="cls-5" d="M278.67,69a.59.59,0,0,0,0-.28c-1.16,2.44-2.68,4.52-4.48,4.52a2.53,2.53,0,0,1-2.64-2.48c-.52-4.36,1.72-11.28,5.68-13.4,1.24-.72,2.68.24,4.12,1a2,2,0,0,0,.2-.52c.16-.32.36-.52.6-.52a5.19,5.19,0,0,1,2.56,1.16c.44.32,0,.84-.2,1.24a69.6,69.6,0,0,0-2.84,11.08c-.12.6.24.6.56.28,2.44-2.44,4.12-7.12,5.16-9.84a.56.56,0,0,1,1,.4c-1,2.68-4.36,11.64-7.8,11.64a2.43,2.43,0,0,1-2.2-2.72C278.55,70,278.59,69.48,278.67,69Zm1.88-8.48a8,8,0,0,1,.4-1,1.08,1.08,0,0,0-1-.52c-2.76,0-4.88,6.88-5.12,10.32,0,.44-.12,1.88.52,1.88C277.31,71.12,280,62.36,280.55,60.48Z"/><path class="cls-5" d="M288.27,57.76a.71.71,0,0,1,.56-.52,5.17,5.17,0,0,1,2.6,1.16c.4.32,0,.84-.2,1.24a56.42,56.42,0,0,0-2,6.36c1.44-3.08,3.56-6.88,5.48-8.48a1.06,1.06,0,0,1,.76-.28c.56,0,2.68.72,2.68,1.48a.91.91,0,0,1-.12.44c-.16.32-.28.64-.44,1a69.62,69.62,0,0,0-2.8,10.56c-.12.6.16.68.56.28,2.44-2.44,4.28-7.12,5.32-9.84a.56.56,0,0,1,1,.4c-1,2.68-4.52,11.64-8,11.64a2.16,2.16,0,0,1-2.32-2.12,58.92,58.92,0,0,1,2.68-11.48c-2.68,2.88-6,10.44-6.24,13.16,0,.4-.24.44-.48.44-1,0-2.52-1.08-2.52-1.92A47.55,47.55,0,0,1,288.27,57.76Z"/><path class="cls-5" d="M297.83,69.72a3.39,3.39,0,0,1,2.76-1.48c.88-.12,1.8-.12,2.56-.28-.36-2.4-3.12-3.88-3.12-7a4.19,4.19,0,0,1,4.4-4.08c1.44,0,3.28,2,3.28,3.48,0,.84-.88,2.32-1.44,2.32-.88,0-2.12-.6-2.12-1a.21.21,0,0,1,.08-.16c.68,0,1.24-1.08,1.24-1.84,0-.48-.2-.88-.64-.88-1,0-1.44,1.72-1.44,2.44,0,2.12,2.16,3.64,3,5.44a9.37,9.37,0,0,0,4.28-5.56c.2-.68,1.24-.32,1,.36a10.27,10.27,0,0,1-5,6.28c.48,3.52-3.32,5.64-6.4,5.64C297.79,73.44,296.79,71.32,297.83,69.72Zm2.16-.28a1.21,1.21,0,1,0,.68,2.28,4.24,4.24,0,0,0,2.44-2.6C302.27,69.32,300.91,69.2,300,69.44Z"/><path class="cls-5" d="M320.27,47.4c.76,0,3.48,1,3.48,1.64a.31.31,0,0,1-.08.2,4.37,4.37,0,0,0-.52.68c-2,3.6-4.6,14.8-5.32,20.44-.08.88.08,1,.68.44,2.32-2.48,4.08-7,5.08-9.64a.56.56,0,0,1,1,.4c-1,2.68-4.52,11.64-8,11.64-2.2,0-2.16-2.36-2-3.92C315.27,61.56,318.71,47.4,320.27,47.4Z"/><path class="cls-5" d="M328.27,69a.59.59,0,0,0,0-.28c-1.16,2.44-2.68,4.52-4.48,4.52a2.53,2.53,0,0,1-2.64-2.48c-.52-4.36,1.72-11.28,5.68-13.4,1.24-.72,2.68.24,4.12,1a2,2,0,0,0,.2-.52c.16-.32.36-.52.6-.52a5.19,5.19,0,0,1,2.56,1.16c.44.32,0,.84-.2,1.24a69.6,69.6,0,0,0-2.84,11.08c-.12.6.24.6.56.28,2.44-2.44,4.12-7.12,5.16-9.84a.56.56,0,0,1,1,.4c-1,2.68-4.36,11.64-7.8,11.64a2.43,2.43,0,0,1-2.2-2.72C328.15,70,328.19,69.48,328.27,69Zm1.88-8.48a8,8,0,0,1,.4-1,1.08,1.08,0,0,0-1-.52c-2.76,0-4.88,6.88-5.12,10.32,0,.44-.12,1.88.52,1.88C326.91,71.12,329.55,62.36,330.15,60.48Z"/></g><g class="cls-4"><path class="cls-5" d="M53.46,90.12c-.64,1.48-1.52,3.32-2.52,5.16a1.84,1.84,0,0,0,1.16.16c1.28-.24,2.44-1.56,4-4.36a.55.55,0,1,1,1,.52c-1.68,3.12-3.16,4.64-4.72,4.92a2.67,2.67,0,0,1-1.88-.28,44,44,0,0,1-3.88,6,2.24,2.24,0,0,1-1.56,1c-1.2,0-3.44-1-3.44-2.28a52.63,52.63,0,0,1,1.6-13.12c.12-.36.32-.6.68-.6a5.68,5.68,0,0,1,2.56.8c.44.28,0,.88,0,1.24a73.87,73.87,0,0,0-2,11.52c0,.36.08.48.36.12A60.81,60.81,0,0,0,49,93.08a10,10,0,0,1,2-5.4c.36-.56.88-.48,1.36-.2A2.29,2.29,0,0,1,53.46,90.12Z"/><path class="cls-5" d="M53.74,99a50.56,50.56,0,0,1,3.08-11.2c.16-.32.36-.52.6-.52A5.19,5.19,0,0,1,60,88.4c.44.32,0,.84-.16,1.24a67.5,67.5,0,0,0-3,11.08c-.12.6.24.6.56.28,2.44-2.44,4.28-7.12,5.32-9.84a.56.56,0,0,1,1,.4c-1,2.68-4.52,11.64-8,11.64a2.43,2.43,0,0,1-2.2-2.72C53.62,100,53.66,99.48,53.74,99Zm7.2-20A7.31,7.31,0,0,1,63.3,80c.6.4.6.92.16,1.64-.72,1.2-2.88,4.44-3.84,4.48C57.34,86.2,59.46,81,60,80,60.34,79.32,60.66,78.92,60.94,78.92Z"/><path class="cls-5" d="M67,87.08c1.52,0,4.2,2,4.2,3.8,0,3.72-4.36,6.6-7.44,6.6-.08,2.12.56,3.84,2.4,3.84,3.24,0,6.16-6.56,7.52-10.2.24-.68,1.28-.24,1,.44C73.22,95.48,70,103.2,65.5,103.2,55.86,103.2,61.26,87.08,67,87.08Zm-3.16,9.48c2.16,0,4.56-3.24,4.56-6.44,0-.84-.68-1.12-1.28-.64C65.5,90.68,64.14,93.84,63.82,96.56Z"/><path class="cls-5" d="M76.7,101.48c-.64,2.88-2.24,3.88-4,3.88-.2,0-.2-.16-.08-.28a4.31,4.31,0,0,0,1.32-1.6c.08-.16.08-.24-.08-.28-2.16-.4-1-4.72.4-4.68a3.2,3.2,0,0,1,2.12.72C77.06,99.88,76.86,100.68,76.7,101.48Z"/><path class="cls-5" d="M88.66,87.76a.71.71,0,0,1,.56-.52,5.17,5.17,0,0,1,2.6,1.16c.4.32,0,.84-.2,1.24a56.42,56.42,0,0,0-2,6.36c1.44-3.08,3.56-6.88,5.48-8.48a1.06,1.06,0,0,1,.76-.28c.56,0,2.68.72,2.68,1.48a.91.91,0,0,1-.12.44c-.16.32-.28.64-.44,1a69.62,69.62,0,0,0-2.8,10.56c-.12.6.16.68.56.28,2.44-2.44,4.28-7.12,5.32-9.84a.56.56,0,0,1,1,.4c-1,2.68-4.52,11.64-8,11.64a2.16,2.16,0,0,1-2.32-2.12A58.92,58.92,0,0,1,94.54,89.6c-2.68,2.88-6,10.44-6.24,13.16,0,.4-.24.44-.48.44-1,0-2.52-1.08-2.52-1.92A47.55,47.55,0,0,1,88.66,87.76Z"/><path class="cls-5" d="M105.38,87.08c1.52,0,4.2,2,4.2,3.8,0,3.72-4.36,6.6-7.44,6.6-.08,2.12.56,3.84,2.4,3.84,3.24,0,6.16-6.56,7.51-10.2.24-.68,1.28-.24,1,.44-1.43,3.92-4.63,11.64-9.15,11.64C94.26,103.2,99.66,87.08,105.38,87.08Zm-3.16,9.48c2.16,0,4.56-3.24,4.56-6.44,0-.84-.68-1.12-1.28-.64C103.9,90.68,102.54,93.84,102.22,96.56Z"/><path class="cls-5" d="M120.06,86.92c.8,0,3.48,1,3.48,1.68,0,.08,0,.12-.08.2a3.35,3.35,0,0,0-.48.64,17.53,17.53,0,0,0-1.36,3.44,39.48,39.48,0,0,1,2.67-4.24c.81-1.08,1.73-1.88,2.65-1.88,1.71,0,3.27,2.16,3.27,3.48a16.45,16.45,0,0,1-2.28,7.16,14.31,14.31,0,0,0,4.76-6.28.57.57,0,0,1,1,.44,15.81,15.81,0,0,1-7.19,8c-1.57,2.12-3.4,3.64-4.8,3.64a3.43,3.43,0,0,1-2.28-.76,74.7,74.7,0,0,0-1.2,9.83c0,.33-.12.49-.48.49-1,0-2.64-.92-2.64-1.76C115.14,104.2,118.38,86.92,120.06,86.92ZM120,99.72c-.08.32-.12.6-.2.92a2.43,2.43,0,0,1,1-.32,9.88,9.88,0,0,0,2.28-.56,20.14,20.14,0,0,0,3.44-9.64c0-.76-.25-1.2-.6-1.16a.92.92,0,0,0-.65.36A28.69,28.69,0,0,0,120,99.72Z"/><path class="cls-5" d="M137.34,99a.77.77,0,0,0,0-.28c-1.15,2.44-2.67,4.52-4.47,4.52a2.53,2.53,0,0,1-2.64-2.48c-.52-4.36,1.72-11.28,5.68-13.4,1.24-.72,2.68.24,4.11,1a2,2,0,0,0,.2-.52c.16-.32.37-.52.61-.52a5.16,5.16,0,0,1,2.55,1.16c.44.32,0,.84-.2,1.24a69.6,69.6,0,0,0-2.84,11.08c-.12.6.25.6.57.28,2.43-2.44,4.11-7.12,5.15-9.84a.56.56,0,0,1,1,.4c-1,2.68-4.36,11.64-7.79,11.64a2.43,2.43,0,0,1-2.2-2.72C137.22,100,137.26,99.48,137.34,99Zm1.87-8.48a9.79,9.79,0,0,1,.41-1,1.09,1.09,0,0,0-1-.52c-2.76,0-4.88,6.88-5.12,10.32,0,.44-.12,1.88.52,1.88C136,101.12,138.62,92.36,139.21,90.48Z"/><path class="cls-5" d="M143.22,99.72A3.39,3.39,0,0,1,146,98.24c.88-.12,1.8-.12,2.56-.28-.36-2.4-3.12-3.88-3.12-7a4.19,4.19,0,0,1,4.4-4.08c1.44,0,3.28,2,3.28,3.48,0,.84-.89,2.32-1.44,2.32-.88,0-2.12-.6-2.12-1a.21.21,0,0,1,.08-.16c.67,0,1.24-1.08,1.24-1.84,0-.48-.2-.88-.65-.88-1,0-1.43,1.72-1.43,2.44,0,2.12,2.16,3.64,3,5.44a9.39,9.39,0,0,0,4.27-5.56c.2-.68,1.24-.32,1,.36a10.27,10.27,0,0,1-5,6.28c.49,3.52-3.31,5.64-6.39,5.64C143.18,103.44,142.18,101.32,143.22,99.72Zm2.16-.28a1.21,1.21,0,1,0,.68,2.28,4.24,4.24,0,0,0,2.44-2.6C147.66,99.32,146.3,99.2,145.38,99.44Z"/><path class="cls-5" d="M163.29,87.76a.71.71,0,0,1,.57-.52,5.25,5.25,0,0,1,2.6,1.16c.39.32-.05.84-.21,1.24a58.55,58.55,0,0,0-2,6.36c1.44-3.08,3.56-6.88,5.48-8.48a1.06,1.06,0,0,1,.76-.28,4.94,4.94,0,0,1,2.48,1c.52.52.2.92-.24,1.24a6.9,6.9,0,0,0-2.12,4.56c0,1,.32,1.44.76,1.44,1.68,0,3.28-3.2,4-4.48a.57.57,0,0,1,1,.6c-.88,1.44-2.56,4.56-4.48,5.24-1.36.52-3.88-.72-4.08-2.48a9.43,9.43,0,0,1,1.08-4.28c.16-.36,0-.28-.12-.08-2.6,3.12-5.68,10.12-5.87,12.72,0,.4-.24.44-.48.44-1,0-2.52-1.08-2.52-1.92A47.54,47.54,0,0,1,163.29,87.76Z"/><path class="cls-5" d="M179.73,87.08c1.52,0,4.2,2,4.2,3.8,0,3.72-4.36,6.6-7.43,6.6-.09,2.12.55,3.84,2.39,3.84,3.24,0,6.16-6.56,7.52-10.2.24-.68,1.28-.24,1,.44-1.44,3.92-4.64,11.64-9.16,11.64C168.62,103.2,174,87.08,179.73,87.08Zm-3.16,9.48c2.16,0,4.56-3.24,4.56-6.44,0-.84-.68-1.12-1.28-.64C178.25,90.68,176.89,93.84,176.57,96.56Z"/><path class="cls-5" d="M190.81,87.08c1.88,0,3.84,1.72,3.84,3.44,0,2.16-1.16,4.52-2.08,4.52a3.87,3.87,0,0,1-2.2-1.24c-.28-.32-.12-.72.32-1a4.52,4.52,0,0,0,1.84-2.28c.4-1,.2-1.6-.32-1.6-3.36,0-7.16,12.36-2.24,12.36,3.56,0,6-6.6,7.52-10.2a.55.55,0,0,1,1,.44c-1.52,3.76-4.36,11.64-9.16,11.64C179.7,103.2,185.37,87.08,190.81,87.08Z"/><path class="cls-5" d="M203,87.76c2.48,0,4.56,1.72,4.56,3.52a14.78,14.78,0,0,1-1.16,5.6,15.25,15.25,0,0,0,4.12-5.76.57.57,0,0,1,1,.44A15.8,15.8,0,0,1,205.33,99c-1.48,2.44-3.6,4.2-6,4.2-2.87,0-4.59-2.88-4.59-5,0-4,2-9.16,5.39-10.92A2.94,2.94,0,0,1,203,87.76Zm-4,12.56a9.69,9.69,0,0,0,2.32-.52,17.67,17.67,0,0,0,2.56-8.52c0-2.64-1.44-2.8-2.88-1.24-2.27,2.52-3.4,8.2-2.4,10.36A1.24,1.24,0,0,1,199,100.32Z"/><path class="cls-5" d="M211.37,87.76a.71.71,0,0,1,.56-.52,5.17,5.17,0,0,1,2.6,1.16c.4.32,0,.84-.2,1.24a56.42,56.42,0,0,0-2,6.36c1.44-3.08,3.56-6.88,5.48-8.48a1.06,1.06,0,0,1,.76-.28c.56,0,2.68.72,2.68,1.48a.91.91,0,0,1-.12.44c-.16.32-.28.64-.44,1a69.62,69.62,0,0,0-2.8,10.56c-.12.6.16.68.56.28,2.44-2.44,4.28-7.12,5.32-9.84a.56.56,0,0,1,1,.4c-1,2.68-4.52,11.64-8,11.64a2.16,2.16,0,0,1-2.32-2.12,58.92,58.92,0,0,1,2.68-11.48c-2.68,2.88-6,10.44-6.24,13.16,0,.4-.23.44-.47.44-1,0-2.52-1.08-2.52-1.92A47.54,47.54,0,0,1,211.37,87.76Z"/><path class="cls-5" d="M224.65,87.76a.71.71,0,0,1,.56-.52,5.17,5.17,0,0,1,2.6,1.16c.4.32,0,.84-.2,1.24a56.42,56.42,0,0,0-2,6.36c1.44-3.08,3.56-6.88,5.48-8.48a1.06,1.06,0,0,1,.76-.28c.56,0,2.68.72,2.68,1.48a.91.91,0,0,1-.12.44c-.16.32-.28.64-.44,1a69.62,69.62,0,0,0-2.8,10.56c-.12.6.16.68.56.28,2.44-2.44,4.28-7.12,5.32-9.84a.56.56,0,0,1,1,.4c-1,2.68-4.52,11.64-8,11.64a2.16,2.16,0,0,1-2.32-2.12,58.92,58.92,0,0,1,2.68-11.48c-2.68,2.88-6,10.44-6.24,13.16,0,.4-.24.44-.48.44-1,0-2.52-1.08-2.52-1.92A47.55,47.55,0,0,1,224.65,87.76Z"/><path class="cls-5" d="M241.73,99a.59.59,0,0,0,0-.28c-1.16,2.44-2.68,4.52-4.48,4.52a2.53,2.53,0,0,1-2.64-2.48c-.52-4.36,1.72-11.28,5.68-13.4,1.24-.72,2.68.24,4.12,1a2,2,0,0,0,.2-.52c.16-.32.36-.52.6-.52a5.19,5.19,0,0,1,2.56,1.16c.44.32,0,.84-.2,1.24a69.6,69.6,0,0,0-2.84,11.08c-.12.6.24.6.56.28,2.44-2.44,4.12-7.12,5.16-9.84a.56.56,0,0,1,1,.4c-1,2.68-4.36,11.64-7.8,11.64a2.43,2.43,0,0,1-2.2-2.72C241.61,100,241.65,99.48,241.73,99Zm1.88-8.48a8,8,0,0,1,.4-1,1.08,1.08,0,0,0-1-.52c-2.76,0-4.88,6.88-5.12,10.32,0,.44-.12,1.88.52,1.88C240.37,101.12,243,92.36,243.61,90.48Z"/><path class="cls-5" d="M248.21,99a50.56,50.56,0,0,1,3.08-11.2c.16-.32.36-.52.6-.52a5.19,5.19,0,0,1,2.56,1.16c.44.32,0,.84-.16,1.24a67.5,67.5,0,0,0-3,11.08c-.12.6.24.6.56.28,2.44-2.44,4.28-7.12,5.32-9.84a.56.56,0,0,1,1,.4c-1,2.68-4.52,11.64-8,11.64a2.43,2.43,0,0,1-2.2-2.72Zm2-13.4a3.66,3.66,0,0,1-1-.92c-.16-.2,0-.32.16-.36a18.47,18.47,0,0,0,3.76-2.56,2.45,2.45,0,0,1,1.6-.68c.76,0,1,.4,1.36.8a28.51,28.51,0,0,0,2.44,2.48c.2.16.2.28,0,.52-.64.68-2,1.24-2.44.8a9.32,9.32,0,0,1-1.76-2.36c-.88.72-1.68,1.48-2.6,2.16A1.14,1.14,0,0,1,250.17,85.56Z"/><path class="cls-5" d="M262.73,82.88c-.16.4-.28.8-.4,1.2a6.58,6.58,0,0,1,3,.48c.24.12.48,1.2.48,1.6,0,.24,0,.36-.16.44h-.12a12.33,12.33,0,0,0-3.84-.44,115,115,0,0,0-3.2,14.2c-.08.88.08,1,.64.44a34.78,34.78,0,0,0,5.76-9.64.56.56,0,0,1,1,.4c-1,2.68-5.36,11.64-8.6,11.64-2.24,0-2.16-2.36-2-3.92a93.75,93.75,0,0,1,2.44-13h-.88c-.76,0-2.52,0-2.92-1-.12-.32,0-.48.36-.48a31.07,31.07,0,0,0,3.88-.32,24.39,24.39,0,0,1,.92-3c.4-1,.8-1.48,1.16-1.48.8,0,3.24,1,3.24,1.64,0,.08,0,.12-.12.2s-.08.12-.12.16A2.52,2.52,0,0,0,262.73,82.88Z"/><path class="cls-5" d="M265.73,87.76a.71.71,0,0,1,.56-.52,5.17,5.17,0,0,1,2.6,1.16c.4.32,0,.84-.2,1.24a56.42,56.42,0,0,0-2,6.36c1.44-3.08,3.56-6.88,5.48-8.48a1.06,1.06,0,0,1,.76-.28,4.94,4.94,0,0,1,2.48,1c.52.52.2.92-.24,1.24a6.9,6.9,0,0,0-2.12,4.56c0,1,.32,1.44.76,1.44,1.68,0,3.28-3.2,4-4.48a.57.57,0,0,1,1,.6c-.88,1.44-2.56,4.56-4.48,5.24-1.36.52-3.88-.72-4.08-2.48a9.43,9.43,0,0,1,1.08-4.28c.16-.36,0-.28-.12-.08-2.6,3.12-5.68,10.12-5.88,12.72,0,.4-.24.44-.48.44-1,0-2.52-1.08-2.52-1.92A47.55,47.55,0,0,1,265.73,87.76Z"/><path class="cls-5" d="M282.17,87.08c1.52,0,4.2,2,4.2,3.8,0,3.72-4.36,6.6-7.44,6.6-.08,2.12.56,3.84,2.4,3.84,3.24,0,6.16-6.56,7.52-10.2.24-.68,1.28-.24,1,.44-1.44,3.92-4.64,11.64-9.16,11.64C271.05,103.2,276.45,87.08,282.17,87.08ZM279,96.56c2.16,0,4.56-3.24,4.56-6.44,0-.84-.68-1.12-1.28-.64C280.69,90.68,279.33,93.84,279,96.56Z"/><path class="cls-5" d="M292.57,99.72a3.39,3.39,0,0,1,2.76-1.48c.88-.12,1.8-.12,2.56-.28-.36-2.4-3.12-3.88-3.12-7a4.19,4.19,0,0,1,4.4-4.08c1.44,0,3.28,2,3.28,3.48,0,.84-.88,2.32-1.44,2.32-.88,0-2.12-.6-2.12-1a.21.21,0,0,1,.08-.16c.68,0,1.24-1.08,1.24-1.84,0-.48-.2-.88-.64-.88-1,0-1.44,1.72-1.44,2.44,0,2.12,2.16,3.64,3,5.44a9.37,9.37,0,0,0,4.28-5.56c.2-.68,1.24-.32,1,.36a10.27,10.27,0,0,1-5,6.28c.48,3.52-3.32,5.64-6.4,5.64C292.53,103.44,291.53,101.32,292.57,99.72Zm2.16-.28a1.21,1.21,0,1,0,.68,2.28,4.24,4.24,0,0,0,2.44-2.6C297,99.32,295.65,99.2,294.73,99.44Z"/><path class="cls-5" d="M311.13,87.76c2.48,0,4.56,1.72,4.56,3.52a14.78,14.78,0,0,1-1.16,5.6,15.25,15.25,0,0,0,4.12-5.76.57.57,0,0,1,1,.44A15.8,15.8,0,0,1,313.45,99c-1.48,2.44-3.6,4.2-6,4.2-2.88,0-4.6-2.88-4.6-5,0-4,2-9.16,5.4-10.92A2.94,2.94,0,0,1,311.13,87.76Zm-4,12.56a9.69,9.69,0,0,0,2.32-.52A17.67,17.67,0,0,0,312,91.28c0-2.64-1.44-2.8-2.88-1.24-2.28,2.52-3.4,8.2-2.4,10.36A1.18,1.18,0,0,1,307.09,100.32Z"/><path class="cls-5" d="M319.49,87.76a.71.71,0,0,1,.56-.52,5.17,5.17,0,0,1,2.6,1.16c.4.32,0,.84-.2,1.24a56.42,56.42,0,0,0-2,6.36c1.44-3.08,3.56-6.88,5.48-8.48a1.06,1.06,0,0,1,.76-.28c.56,0,2.68.72,2.68,1.48a.91.91,0,0,1-.12.44c-.16.32-.28.64-.44,1a69.62,69.62,0,0,0-2.8,10.56c-.12.6.16.68.56.28,2.44-2.44,4.28-7.12,5.32-9.84a.56.56,0,0,1,1,.4c-1,2.68-4.52,11.64-8,11.64a2.16,2.16,0,0,1-2.32-2.12,58.92,58.92,0,0,1,2.68-11.48c-2.68,2.88-6,10.44-6.24,13.16,0,.4-.24.44-.48.44-1,0-2.52-1.08-2.52-1.92A47.55,47.55,0,0,1,319.49,87.76Z"/></g><g class="cls-4"><path class="cls-5" d="M66.5,112.88c-.16.4-.28.8-.4,1.2a6.58,6.58,0,0,1,3,.48c.24.12.48,1.2.48,1.6,0,.24,0,.36-.16.44H69.3a12.33,12.33,0,0,0-3.84-.44,115,115,0,0,0-3.2,14.2c-.08.88.08,1,.64.44a34.78,34.78,0,0,0,5.76-9.64.56.56,0,0,1,1,.4c-1,2.68-5.36,11.64-8.6,11.64-2.24,0-2.16-2.36-2-3.92a93.75,93.75,0,0,1,2.44-13h-.88c-.76,0-2.52,0-2.92-1-.12-.32,0-.48.36-.48a31.07,31.07,0,0,0,3.88-.32,24.39,24.39,0,0,1,.92-3c.4-1,.8-1.48,1.16-1.48.8,0,3.24,1,3.24,1.64,0,.08,0,.12-.12.2s-.08.12-.12.16A2.52,2.52,0,0,0,66.5,112.88Z"/><path class="cls-5" d="M73.3,129a.59.59,0,0,0,0-.28c-1.16,2.44-2.68,4.52-4.48,4.52a2.53,2.53,0,0,1-2.64-2.48c-.52-4.36,1.72-11.28,5.68-13.4,1.24-.72,2.68.24,4.12,1a2,2,0,0,0,.2-.52c.16-.32.36-.52.6-.52a5.19,5.19,0,0,1,2.56,1.16c.44.32,0,.84-.2,1.24a69.6,69.6,0,0,0-2.84,11.08c-.12.6.24.6.56.28,2.44-2.44,4.12-7.12,5.16-9.84a.56.56,0,0,1,1,.4c-1,2.68-4.36,11.64-7.8,11.64a2.43,2.43,0,0,1-2.2-2.72C73.18,130,73.22,129.48,73.3,129Zm1.88-8.48a8,8,0,0,1,.4-1,1.08,1.08,0,0,0-1-.52c-2.76,0-4.88,6.88-5.12,10.32,0,.44-.12,1.88.52,1.88C71.94,131.12,74.58,122.36,75.18,120.48Z"/><path class="cls-5" d="M85.26,107.4c.76,0,3.48,1,3.48,1.64a.31.31,0,0,1-.08.2,4.37,4.37,0,0,0-.52.68c-2,3.6-4.6,14.8-5.32,20.44-.08.88.08,1,.68.44,2.32-2.48,4.08-7,5.08-9.64a.56.56,0,0,1,1,.4c-1,2.68-4.52,11.64-8,11.64-2.2,0-2.16-2.36-2-3.92C80.26,121.56,83.7,107.4,85.26,107.4Z"/><path class="cls-5" d="M92.9,117.08c1.52,0,4.2,2,4.2,3.8,0,3.72-4.36,6.6-7.44,6.6-.08,2.12.56,3.84,2.4,3.84,3.24,0,6.16-6.56,7.52-10.2.24-.68,1.28-.24,1,.44-1.44,3.92-4.64,11.64-9.16,11.64C81.78,133.2,87.18,117.08,92.9,117.08Zm-3.16,9.48c2.16,0,4.56-3.24,4.56-6.44,0-.84-.68-1.12-1.28-.64C91.42,120.68,90.06,123.84,89.74,126.56Z"/><path class="cls-5" d="M100.62,117.76a.71.71,0,0,1,.56-.52,5.17,5.17,0,0,1,2.6,1.16c.4.32,0,.84-.2,1.24a56.42,56.42,0,0,0-2,6.36c1.44-3.08,3.56-6.88,5.48-8.48a1.06,1.06,0,0,1,.76-.28c.56,0,2.68.72,2.68,1.48a.91.91,0,0,1-.12.44c-.16.32-.28.64-.44,1a69.62,69.62,0,0,0-2.8,10.56c-.12.6.16.68.56.28,2.44-2.44,4.28-7.12,5.32-9.84a.56.56,0,0,1,1,.4c-1,2.68-4.52,11.64-8,11.64a2.16,2.16,0,0,1-2.32-2.12,58.92,58.92,0,0,1,2.68-11.48c-2.68,2.88-6,10.44-6.24,13.16,0,.4-.24.44-.48.44-1,0-2.52-1.08-2.52-1.92A47.55,47.55,0,0,1,100.62,117.76Z"/><path class="cls-5" d="M118.62,112.88c-.16.4-.28.8-.4,1.2a6.58,6.58,0,0,1,3,.48c.24.12.48,1.2.48,1.6,0,.24,0,.36-.16.44h-.12a12.33,12.33,0,0,0-3.84-.44,115,115,0,0,0-3.2,14.2c-.08.88.08,1,.64.44a34.78,34.78,0,0,0,5.76-9.64.56.56,0,0,1,1,.4c-1,2.68-5.36,11.64-8.6,11.64-2.24,0-2.16-2.36-2-3.92a93.75,93.75,0,0,1,2.44-13h-.88c-.76,0-2.52,0-2.92-1-.12-.32,0-.48.36-.48a31.07,31.07,0,0,0,3.88-.32,24.39,24.39,0,0,1,.92-3c.4-1,.8-1.48,1.16-1.48.8,0,3.24,1,3.24,1.64,0,.08,0,.12-.12.2s-.08.12-.12.16A2.52,2.52,0,0,0,118.62,112.88Z"/><path class="cls-5" d="M123.22,131.48c-.64,2.88-2.24,3.88-4,3.88-.2,0-.2-.16-.08-.28a4.31,4.31,0,0,0,1.32-1.6c.08-.16.08-.24-.08-.28-2.16-.4-1-4.72.4-4.68a3.2,3.2,0,0,1,2.12.72C123.58,129.88,123.38,130.68,123.22,131.48Z"/><path class="cls-5" d="M138.54,117.08c1.88,0,3.83,1.72,3.83,3.44,0,2.16-1.15,4.52-2.07,4.52a3.87,3.87,0,0,1-2.2-1.24c-.28-.32-.12-.72.32-1a4.52,4.52,0,0,0,1.84-2.28c.4-1,.2-1.6-.32-1.6-3.36,0-7.16,12.36-2.24,12.36,3.56,0,6-6.6,7.51-10.2a.55.55,0,0,1,1,.44c-1.51,3.76-4.35,11.64-9.15,11.64C127.42,133.2,133.1,117.08,138.54,117.08Z"/><path class="cls-5" d="M151.86,109.6c-.64,2.88-2.24,3.88-4,3.88-.2,0-.2-.12-.08-.24a4.14,4.14,0,0,0,1.32-1.64c.08-.12.08-.24-.08-.24-2.16-.44-1-4.72.4-4.68a2.83,2.83,0,0,1,2.12.72C152.22,108,152,108.8,151.86,109.6Z"/><path class="cls-5" d="M156.86,117.08c1.52,0,4.19,2,4.19,3.8,0,3.72-4.35,6.6-7.43,6.6-.08,2.12.56,3.84,2.4,3.84,3.23,0,6.15-6.56,7.51-10.2.24-.68,1.28-.24,1,.44-1.44,3.92-4.63,11.64-9.15,11.64C145.74,133.2,151.14,117.08,156.86,117.08Zm-3.16,9.48c2.16,0,4.56-3.24,4.56-6.44,0-.84-.68-1.12-1.28-.64C155.38,120.68,154,123.84,153.7,126.56Z"/><path class="cls-5" d="M160.86,129.72a3.39,3.39,0,0,1,2.76-1.48c.88-.12,1.8-.12,2.56-.28-.36-2.4-3.12-3.88-3.12-7a4.19,4.19,0,0,1,4.4-4.08c1.44,0,3.28,2,3.28,3.48,0,.84-.88,2.32-1.45,2.32-.88,0-2.11-.6-2.11-1a.21.21,0,0,1,.08-.16c.68,0,1.24-1.08,1.24-1.84,0-.48-.21-.88-.64-.88-1,0-1.44,1.72-1.44,2.44,0,2.12,2.16,3.64,3,5.44a9.33,9.33,0,0,0,4.28-5.56c.2-.68,1.24-.32,1,.36a10.29,10.29,0,0,1-4.95,6.28c.47,3.52-3.32,5.64-6.4,5.64C160.82,133.44,159.82,131.32,160.86,129.72Zm2.16-.28a1.21,1.21,0,1,0,.68,2.28,4.24,4.24,0,0,0,2.44-2.6C165.3,129.32,163.94,129.2,163,129.44Z"/><path class="cls-5" d="M179.25,112.88c-.16.4-.27.8-.39,1.2a6.56,6.56,0,0,1,3,.48c.24.12.48,1.2.48,1.6,0,.24,0,.36-.16.44h-.12a12.26,12.26,0,0,0-3.83-.44,115,115,0,0,0-3.2,14.2c-.08.88.08,1,.64.44a34.73,34.73,0,0,0,5.75-9.64.56.56,0,0,1,1.05.4c-1.05,2.68-5.36,11.64-8.6,11.64-2.24,0-2.16-2.36-2-3.92a93.75,93.75,0,0,1,2.44-13h-.88c-.76,0-2.52,0-2.92-1-.12-.32,0-.48.36-.48a31.07,31.07,0,0,0,3.88-.32,24.39,24.39,0,0,1,.92-3c.4-1,.8-1.48,1.16-1.48.8,0,3.23,1,3.23,1.64,0,.08,0,.12-.11.2s-.08.12-.12.16A2.54,2.54,0,0,0,179.25,112.88Z"/><path class="cls-5" d="M195.85,121.12a.57.57,0,0,1,1,.44,9.59,9.59,0,0,1-6.52,4.76,30.16,30.16,0,0,1-.28,12.72,7.28,7.28,0,0,1-1.43,3,2.24,2.24,0,0,1-1.92.68c-1,0-2.64-.6-2.64-1.48a28.13,28.13,0,0,1,.24-3.4,108.89,108.89,0,0,1,5-23.4c.64-1.76,1.21-2.84,1.64-2.84.76,0,3.48,1,3.48,1.64a.31.31,0,0,1-.08.2,4.37,4.37,0,0,0-.52.68c-1.12,2-2.43,6.52-3.52,11A8.12,8.12,0,0,0,195.85,121.12Zm-7,18.24a26.41,26.41,0,0,0,.76-10.68c-.69,3.44-1.29,7-1.64,10.48-.12,1.24-.08,1.88.08,1.88S188.74,139.72,188.86,139.36Z"/><path class="cls-5" d="M200.13,129a.59.59,0,0,0,0-.28c-1.16,2.44-2.67,4.52-4.47,4.52a2.53,2.53,0,0,1-2.64-2.48c-.52-4.36,1.72-11.28,5.68-13.4,1.23-.72,2.67.24,4.11,1a2,2,0,0,0,.2-.52c.16-.32.36-.52.6-.52a5.19,5.19,0,0,1,2.56,1.16c.44.32,0,.84-.2,1.24a69.6,69.6,0,0,0-2.84,11.08c-.12.6.24.6.56.28,2.44-2.44,4.12-7.12,5.16-9.84a.56.56,0,0,1,1,.4c-1,2.68-4.36,11.64-7.8,11.64a2.43,2.43,0,0,1-2.2-2.72C200,130,200.05,129.48,200.13,129Zm1.88-8.48a8,8,0,0,1,.4-1,1.08,1.08,0,0,0-1-.52c-2.75,0-4.87,6.88-5.12,10.32,0,.44-.12,1.88.53,1.88C198.77,131.12,201.41,122.36,202,120.48Z"/><path class="cls-5" d="M218.69,120.12c-.64,1.48-1.52,3.32-2.52,5.16a1.84,1.84,0,0,0,1.16.16c1.28-.24,2.44-1.56,4-4.36a.55.55,0,1,1,1,.52c-1.68,3.12-3.16,4.64-4.72,4.92a2.67,2.67,0,0,1-1.88-.28,44,44,0,0,1-3.88,6,2.24,2.24,0,0,1-1.56,1c-1.2,0-3.43-1-3.43-2.28a52.62,52.62,0,0,1,1.59-13.12c.13-.36.33-.6.68-.6a5.68,5.68,0,0,1,2.56.8c.44.28,0,.88,0,1.24a73.87,73.87,0,0,0-2,11.52c0,.36.08.48.36.12a60.81,60.81,0,0,0,4.28-7.8,10,10,0,0,1,2-5.4c.36-.56.88-.48,1.36-.2A2.29,2.29,0,0,1,218.69,120.12Z"/><path class="cls-5" d="M227,117.76c2.48,0,4.56,1.72,4.56,3.52a14.78,14.78,0,0,1-1.16,5.6,15.25,15.25,0,0,0,4.12-5.76.57.57,0,0,1,1,.44,15.8,15.8,0,0,1-6.24,7.44c-1.48,2.44-3.6,4.2-6,4.2-2.87,0-4.59-2.88-4.59-5,0-4,2-9.16,5.39-10.92A2.94,2.94,0,0,1,227,117.76Zm-4,12.56a9.69,9.69,0,0,0,2.32-.52,17.67,17.67,0,0,0,2.56-8.52c0-2.64-1.44-2.8-2.88-1.24-2.28,2.52-3.4,8.2-2.4,10.36A1.18,1.18,0,0,1,222.93,130.32Z"/><path class="cls-5" d="M235.33,117.76a.71.71,0,0,1,.56-.52,5.17,5.17,0,0,1,2.6,1.16c.4.32,0,.84-.2,1.24a56.42,56.42,0,0,0-2,6.36c1.44-3.08,3.56-6.88,5.48-8.48a1.06,1.06,0,0,1,.76-.28,4.94,4.94,0,0,1,2.48,1c.52.52.2.92-.24,1.24a6.9,6.9,0,0,0-2.12,4.56c0,1,.32,1.44.76,1.44,1.68,0,3.28-3.2,4-4.48a.57.57,0,0,1,1,.6c-.88,1.44-2.56,4.56-4.48,5.24-1.36.52-3.88-.72-4.08-2.48a9.43,9.43,0,0,1,1.08-4.28c.16-.36,0-.28-.12-.08-2.6,3.12-5.68,10.12-5.88,12.72,0,.4-.24.44-.48.44-1,0-2.52-1.08-2.52-1.92A47.55,47.55,0,0,1,235.33,117.76Z"/><path class="cls-5" d="M245.21,129a50.56,50.56,0,0,1,3.08-11.2c.16-.32.36-.52.6-.52a5.19,5.19,0,0,1,2.56,1.16c.44.32,0,.84-.16,1.24a67.5,67.5,0,0,0-3,11.08c-.12.6.24.6.56.28,2.44-2.44,4.28-7.12,5.32-9.84a.56.56,0,0,1,1,.4c-1,2.68-4.52,11.64-8,11.64a2.43,2.43,0,0,1-2.2-2.72C245.09,130,245.13,129.48,245.21,129Zm7.2-20a7.31,7.31,0,0,1,2.36,1.08c.6.4.6.92.16,1.64-.72,1.2-2.88,4.44-3.84,4.48-2.28.08-.16-5.12.36-6.08C251.81,109.32,252.13,108.92,252.41,108.92Z"/><path class="cls-5" d="M251.29,129.72a3.39,3.39,0,0,1,2.76-1.48c.88-.12,1.8-.12,2.56-.28-.36-2.4-3.12-3.88-3.12-7a4.19,4.19,0,0,1,4.4-4.08c1.44,0,3.28,2,3.28,3.48,0,.84-.88,2.32-1.44,2.32-.88,0-2.12-.6-2.12-1a.21.21,0,0,1,.08-.16c.68,0,1.24-1.08,1.24-1.84,0-.48-.2-.88-.64-.88-1,0-1.44,1.72-1.44,2.44,0,2.12,2.16,3.64,3,5.44a9.37,9.37,0,0,0,4.28-5.56c.2-.68,1.24-.32,1,.36a10.27,10.27,0,0,1-5,6.28c.48,3.52-3.32,5.64-6.4,5.64C251.25,133.44,250.25,131.32,251.29,129.72Zm2.16-.28a1.21,1.21,0,1,0,.68,2.28,4.24,4.24,0,0,0,2.44-2.6C255.73,129.32,254.37,129.2,253.45,129.44Z"/><path class="cls-5" d="M268.41,117.08c1.52,0,4.2,2,4.2,3.8,0,3.72-4.36,6.6-7.44,6.6-.08,2.12.56,3.84,2.4,3.84,3.24,0,6.16-6.56,7.52-10.2.24-.68,1.28-.24,1,.44-1.44,3.92-4.64,11.64-9.16,11.64C257.29,133.2,262.69,117.08,268.41,117.08Zm-3.16,9.48c2.16,0,4.56-3.24,4.56-6.44,0-.84-.68-1.12-1.28-.64C266.93,120.68,265.57,123.84,265.25,126.56Z"/><path class="cls-5" d="M276.13,117.76a.71.71,0,0,1,.56-.52,5.17,5.17,0,0,1,2.6,1.16c.4.32,0,.84-.2,1.24a56.42,56.42,0,0,0-2,6.36c1.44-3.08,3.56-6.88,5.48-8.48a1.06,1.06,0,0,1,.76-.28,4.94,4.94,0,0,1,2.48,1c.52.52.2.92-.24,1.24a6.9,6.9,0,0,0-2.12,4.56c0,1,.32,1.44.76,1.44,1.68,0,3.28-3.2,4-4.48a.57.57,0,0,1,1,.6c-.88,1.44-2.56,4.56-4.48,5.24-1.36.52-3.88-.72-4.08-2.48a9.43,9.43,0,0,1,1.08-4.28c.16-.36,0-.28-.12-.08-2.6,3.12-5.68,10.12-5.88,12.72,0,.4-.24.44-.48.44-1,0-2.52-1.08-2.52-1.92A47.55,47.55,0,0,1,276.13,117.76Z"/><path class="cls-5" d="M297.89,107.4c.76,0,3.48,1,3.48,1.64a.31.31,0,0,1-.08.2,4.37,4.37,0,0,0-.52.68c-2,3.6-4.6,14.8-5.32,20.44-.08.88.08,1,.68.44,2.32-2.48,4.08-7,5.08-9.64a.56.56,0,0,1,1,.4c-1,2.68-4.52,11.64-8,11.64-2.2,0-2.16-2.36-2-3.92C292.89,121.56,296.33,107.4,297.89,107.4Z"/><path class="cls-5" d="M305.89,129a.59.59,0,0,0,0-.28c-1.16,2.44-2.68,4.52-4.48,4.52a2.53,2.53,0,0,1-2.64-2.48c-.52-4.36,1.72-11.28,5.68-13.4,1.24-.72,2.68.24,4.12,1a2,2,0,0,0,.2-.52c.16-.32.36-.52.6-.52A5.19,5.19,0,0,1,312,118.4c.44.32,0,.84-.2,1.24a69.6,69.6,0,0,0-2.84,11.08c-.12.6.24.6.56.28,2.44-2.44,4.12-7.12,5.16-9.84a.56.56,0,0,1,1,.4c-1,2.68-4.36,11.64-7.8,11.64a2.43,2.43,0,0,1-2.2-2.72C305.77,130,305.81,129.48,305.89,129Zm1.88-8.48a8,8,0,0,1,.4-1,1.08,1.08,0,0,0-1-.52c-2.76,0-4.88,6.88-5.12,10.32,0,.44-.12,1.88.52,1.88C304.53,131.12,307.17,122.36,307.77,120.48Z"/></g><g class="cls-4"><path class="cls-5" d="M58.52,147.76a.71.71,0,0,1,.56-.52,5.17,5.17,0,0,1,2.6,1.16c.4.32,0,.84-.2,1.24a56.42,56.42,0,0,0-2,6.36c1.44-3.08,3.56-6.88,5.48-8.48a1.06,1.06,0,0,1,.76-.28,4.94,4.94,0,0,1,2.48,1c.52.52.2.92-.24,1.24a6.9,6.9,0,0,0-2.12,4.56c0,1,.32,1.44.76,1.44,1.68,0,3.28-3.2,4-4.48a.57.57,0,0,1,1,.6c-.88,1.44-2.56,4.56-4.48,5.24-1.36.52-3.88-.72-4.08-2.48a9.43,9.43,0,0,1,1.08-4.28c.16-.36,0-.28-.12-.08-2.6,3.12-5.68,10.12-5.88,12.72,0,.4-.24.44-.48.44-1,0-2.52-1.08-2.52-1.92A47.55,47.55,0,0,1,58.52,147.76Z"/><path class="cls-5" d="M73.48,163.2c-9.64,0-4.24-16.12,1.48-16.12,1.52,0,4.2,2,4.2,3.8,0,3.72-4.36,6.6-7.44,6.6-.08,2.12.56,3.84,2.4,3.84,3.24,0,6.16-6.56,7.52-10.2.24-.68,1.28-.24,1,.44C81.2,155.48,78,163.2,73.48,163.2Zm1.6-13.72c-1.6,1.2-3,4.36-3.28,7.08,2.16,0,4.56-3.24,4.56-6.44C76.36,149.28,75.68,149,75.08,149.48Zm3.28-9.2c-.4,0-.56,0-.56.2a2.34,2.34,0,0,1,0,.4,4.5,4.5,0,0,1-2.12,3.92c-.16.08-.08.24.12.24,1.36,0,4-.64,4.48-2.64a2.83,2.83,0,0,0-.16-1.64C79.88,140.24,78.92,140.28,78.36,140.28Z"/><path class="cls-5" d="M86.6,159a2.55,2.55,0,0,0,.08-.28c-1.2,2.44-2.68,4.52-4.48,4.52a3,3,0,0,1-2.84-2.72c.08-.52.12-1,.2-1.52a48.48,48.48,0,0,1,3.08-11.2c.16-.32.36-.52.6-.52a5.19,5.19,0,0,1,2.56,1.16c.4.32,0,.84-.2,1.24a69.14,69.14,0,0,0-2.8,10c-.2.92.08,1.44.52,1.44,1.92,0,4.72-8.76,5.36-10.64.32-1,.64-1.88,1-2.72.16-.32.4-.52.6-.52a5.19,5.19,0,0,1,2.56,1.16c.44.32,0,.84-.16,1.24a67.5,67.5,0,0,0-3,11.08c-.12.6.24.6.6.28,2.4-2.44,4.24-7.12,5.28-9.84a.56.56,0,0,1,1,.4c-1,2.68-4.52,11.64-8,11.64a2.45,2.45,0,0,1-2.2-2.72C86.48,160,86.56,159.48,86.6,159Z"/><path class="cls-5" d="M115.76,151.56a20.14,20.14,0,0,1-4.72,6.16,5.06,5.06,0,0,1,.72,2.44c0,3.44-3.68,5.44-6.72,5.44a3.53,3.53,0,0,1-3.76-2.92.6.6,0,0,1,.48-1c2.08,0,4.52-1.8,6.12-3-.52-1.64-1.92-3-2.92-4.48a8.06,8.06,0,0,1-3.36,3.48c.44,3.56-3.36,5.68-6.4,5.68-2.6,0-3.6-2.12-2.56-3.76a3.46,3.46,0,0,1,2.76-1.44c.84-.12,1.76-.12,2.6-.32-.4-2.4-3.16-3.88-3.16-7a4.22,4.22,0,0,1,4.44-4.08c1.4,0,3.28,2,3.28,3.48,0,.84-.88,2.32-1.44,2.32-.88,0-2.12-.6-2.12-1,0-.08,0-.12.08-.16.68,0,1.24-1.08,1.24-1.84,0-.48-.2-.88-.68-.88-1,0-1.4,1.72-1.4,2.44,0,2.12,2.12,3.64,3,5.44a6.49,6.49,0,0,0,3-3.56,5.05,5.05,0,0,1-.52-2.16c0-2.56,2.52-4.08,4.76-4.08,1.4,0,3.24,2,3.24,3.48,0,.84-.84,2.32-1.4,2.32-.92,0-2.16-.6-2.16-1a.21.21,0,0,1,.08-.16c.72,0,1.28-1.08,1.28-1.84,0-.48-.2-.88-.68-.88-1,0-1.76,1.72-1.76,2.44,0,1.92,2,3.64,3.28,5.44a19,19,0,0,0,4.32-5.64A.6.6,0,0,1,115.76,151.56ZM95.48,161.72a4.2,4.2,0,0,0,2.44-2.64c-1,.24-2.08.08-3.12.36A1.21,1.21,0,1,0,95.48,161.72Zm9,2.28a3.88,3.88,0,0,0,3.56-3.88v0a16,16,0,0,1-5.4,2.72A2,2,0,0,0,104.52,164Z"/><path class="cls-5" d="M127.28,142.84c-.12.36-.28.76-.4,1.16a7.39,7.39,0,0,1,3,.48,3.31,3.31,0,0,1,.44,1.64.64.64,0,0,1-.12.44h-.12a14.14,14.14,0,0,0-3.88-.48,117.08,117.08,0,0,0-3.2,14.24c-.08.92.08,1.08.68.44a35.18,35.18,0,0,0,5.76-9.64.54.54,0,1,1,1,.4c-1,2.68-5.32,11.68-8.6,11.68-2.24,0-2.16-2.4-2-4,0-.48.08-1,.16-1.52-1.52,2.84-3.36,5.48-5.24,5.48a2.45,2.45,0,0,1-2.2-2.72c.08-.52.12-1,.2-1.52a48.85,48.85,0,0,1,3.12-11.24.71.71,0,0,1,.56-.52,5.67,5.67,0,0,1,2.6,1.12c.4.36-.08.88-.2,1.24a68.26,68.26,0,0,0-3,11.16c-.12.6.24.6.6.24,1.72-1.68,3.12-4.56,4.2-7.08.48-2.52,1.08-5.2,1.68-7.68a6.78,6.78,0,0,1-.88,0c-1.68,0-3.56-.52-3.56-2.56A9,9,0,0,1,119,140c.4-.76.72-1.16,1-1.16a7.45,7.45,0,0,1,2.4,1.08c.6.4.56.92.16,1.64a30.39,30.39,0,0,1-2.16,3.08c.8-.08,1.6-.16,2.36-.28a29.3,29.3,0,0,1,.92-3c.4-.92.8-1.48,1.16-1.48.8,0,3.24,1,3.24,1.64a.31.31,0,0,1-.08.2.7.7,0,0,0-.16.2A2.26,2.26,0,0,0,127.28,142.84Z"/><path class="cls-5" d="M133.76,147.08c1.52,0,4.2,2,4.2,3.8,0,3.72-4.36,6.6-7.44,6.6-.08,2.12.56,3.84,2.4,3.84,3.24,0,6.16-6.56,7.52-10.2.24-.68,1.28-.24,1,.44-1.44,3.92-4.64,11.64-9.16,11.64C122.64,163.2,128,147.08,133.76,147.08Zm-3.16,9.48c2.16,0,4.56-3.24,4.56-6.44,0-.84-.68-1.12-1.28-.64C132.28,150.68,130.92,153.84,130.6,156.56Z"/><path class="cls-5" d="M152.12,158.64c-1.12,2.4-2.68,4.56-4.64,4.56s-2.84-1.52-2.92-3.24c-.2-4.32,1.72-10.64,5.44-12.64,1.28-.72,2.8.28,3.92.84,1.24-5.72,2.84-10.76,3.76-10.76s3.52,1,3.52,1.64a.22.22,0,0,1-.12.2,4.15,4.15,0,0,0-.48.68c-2,3.6-4.6,14.8-5.32,20.44-.12.88.08,1,.64.44,2.32-2.48,4.12-7,5.12-9.64a.56.56,0,0,1,1,.4c-1,2.68-4.52,11.64-8,11.64-2.24,0-2.16-2.36-2-3.92C152.08,159.08,152.12,158.88,152.12,158.64Zm-4.16.16c-.12,1.36.2,2.2.8,2.2.4,0,.92-.4,1.48-1.28a25.51,25.51,0,0,0,2.48-5.44c.24-1.52.56-3.12.88-4.72a1,1,0,0,0-.88-.64C150.08,148.92,148.32,155.28,148,158.8Z"/><path class="cls-5" d="M165.32,147.08c1.52,0,4.2,2,4.2,3.8,0,3.72-4.36,6.6-7.44,6.6-.08,2.12.56,3.84,2.4,3.84,3.24,0,6.16-6.56,7.52-10.2.24-.68,1.28-.24,1,.44-1.44,3.92-4.64,11.64-9.16,11.64C154.2,163.2,159.6,147.08,165.32,147.08Zm-3.16,9.48c2.16,0,4.56-3.24,4.56-6.44,0-.84-.68-1.12-1.28-.64C163.84,150.68,162.48,153.84,162.16,156.56Z"/><path class="cls-5" d="M169.32,159.72a3.39,3.39,0,0,1,2.76-1.48c.88-.12,1.8-.12,2.56-.28-.36-2.4-3.12-3.88-3.12-7a4.19,4.19,0,0,1,4.4-4.08c1.44,0,3.28,2,3.28,3.48,0,.84-.88,2.32-1.44,2.32-.88,0-2.12-.6-2.12-1a.21.21,0,0,1,.08-.16c.68,0,1.24-1.08,1.24-1.84,0-.48-.2-.88-.64-.88-1,0-1.44,1.72-1.44,2.44,0,2.12,2.16,3.64,3,5.44a9.37,9.37,0,0,0,4.28-5.56c.2-.68,1.24-.32,1,.36a10.27,10.27,0,0,1-5,6.28c.48,3.52-3.32,5.64-6.4,5.64C169.28,163.44,168.28,161.32,169.32,159.72Zm2.16-.28a1.21,1.21,0,1,0,.68,2.28,4.24,4.24,0,0,0,2.44-2.6C173.76,159.32,172.4,159.2,171.48,159.44Z"/><path class="cls-5" d="M189.4,147.76a.71.71,0,0,1,.56-.52,5.33,5.33,0,0,1,2.6,1.16c.4.32,0,.84-.2,1.24a56.42,56.42,0,0,0-2,6.36c1.44-3.08,3.56-6.88,5.47-8.48a1.09,1.09,0,0,1,.76-.28,4.72,4.72,0,0,1,2.52,1.08c.24.32.16.52,0,.84A55.35,55.35,0,0,0,197,156c1.43-3.08,3.55-6.88,5.47-8.48a1.12,1.12,0,0,1,.76-.28c.6,0,2.72.72,2.72,1.48a1.8,1.8,0,0,1-.12.44,4.47,4.47,0,0,0-.44,1,65.64,65.64,0,0,0-2.84,10.56c-.12.6.16.68.6.28,2.4-2.44,4.24-7.12,5.28-9.84a.56.56,0,0,1,1,.4c-1,2.68-4.52,11.64-8,11.64a2.2,2.2,0,0,1-2.32-2.12,58.92,58.92,0,0,1,2.68-11.48c-2.63,2.88-6,10.44-6.2,13.16,0,.4-.27.44-.51.44-1,0-2.52-1.08-2.52-1.92a49.31,49.31,0,0,1,2.64-11.64c-2.68,2.92-6.08,10.4-6.28,13.12,0,.4-.24.44-.48.44-1,0-2.52-1.08-2.52-1.92A47.55,47.55,0,0,1,189.4,147.76Z"/><path class="cls-5" d="M211.32,163.2c-9.64,0-4.24-16.12,1.47-16.12,1.52,0,4.2,2,4.2,3.8,0,3.72-4.36,6.6-7.43,6.6-.08,2.12.56,3.84,2.4,3.84,3.24,0,6.16-6.56,7.51-10.2.24-.68,1.28-.24,1,.44C219,155.48,215.83,163.2,211.32,163.2Zm1.6-13.72c-1.6,1.2-3,4.36-3.28,7.08,2.15,0,4.56-3.24,4.56-6.44C214.2,149.28,213.52,149,212.92,149.48Zm3.28-9.2c-.41,0-.57,0-.57.2a2.34,2.34,0,0,1,0,.4,4.45,4.45,0,0,1-2.12,3.92c-.15.08-.08.24.13.24,1.36,0,4-.64,4.47-2.64a2.83,2.83,0,0,0-.16-1.64C217.71,140.24,216.75,140.28,216.2,140.28Z"/><path class="cls-5" d="M224.76,158.64c-1.12,2.4-2.68,4.56-4.64,4.56s-2.84-1.52-2.92-3.24c-.2-4.32,1.72-10.64,5.44-12.64,1.28-.72,2.8.28,3.91.84,1.24-5.72,2.84-10.76,3.76-10.76s3.52,1,3.52,1.64a.22.22,0,0,1-.12.2,4.15,4.15,0,0,0-.48.68c-2,3.6-4.6,14.8-5.32,20.44-.12.88.09,1,.64.44,2.32-2.48,4.12-7,5.12-9.64a.56.56,0,0,1,1,.4c-1,2.68-4.52,11.64-8,11.64-2.24,0-2.16-2.36-2-3.92C224.71,159.08,224.76,158.88,224.76,158.64Zm-4.16.16c-.12,1.36.2,2.2.8,2.2.4,0,.92-.4,1.48-1.28a26,26,0,0,0,2.48-5.44c.24-1.52.55-3.12.88-4.72a1,1,0,0,0-.88-.64C222.72,148.92,221,155.28,220.6,158.8Z"/><path class="cls-5" d="M231.4,159a50.56,50.56,0,0,1,3.08-11.2c.16-.32.36-.52.6-.52a5.12,5.12,0,0,1,2.55,1.16c.45.32,0,.84-.16,1.24a68.41,68.41,0,0,0-3,11.08c-.12.6.24.6.56.28,2.44-2.44,4.28-7.12,5.31-9.84a.56.56,0,0,1,1,.4c-1,2.68-4.51,11.64-7.95,11.64a2.43,2.43,0,0,1-2.2-2.72C231.28,160,231.32,159.48,231.4,159Zm7.2-20A7.31,7.31,0,0,1,241,140c.59.4.59.92.16,1.64-.73,1.2-2.89,4.44-3.84,4.48-2.28.08-.16-5.12.35-6.08C238,139.32,238.31,138.92,238.6,138.92Z"/><path class="cls-5" d="M246.07,147.76c2.48,0,4.56,1.72,4.56,3.52a14.78,14.78,0,0,1-1.16,5.6,15.25,15.25,0,0,0,4.12-5.76.57.57,0,0,1,1,.44,15.8,15.8,0,0,1-6.24,7.44c-1.48,2.44-3.6,4.2-5.95,4.2-2.88,0-4.6-2.88-4.6-5,0-4,2-9.16,5.39-10.92A2.93,2.93,0,0,1,246.07,147.76Zm-4,12.56a9.91,9.91,0,0,0,2.32-.52,17.77,17.77,0,0,0,2.55-8.52c0-2.64-1.44-2.8-2.87-1.24-2.28,2.52-3.41,8.2-2.41,10.36A1.24,1.24,0,0,1,242,160.32Z"/><path class="cls-5" d="M257.79,147.08c1.88,0,3.84,1.72,3.84,3.44,0,2.16-1.16,4.52-2.08,4.52a3.9,3.9,0,0,1-2.2-1.24c-.28-.32-.12-.72.32-1a4.52,4.52,0,0,0,1.84-2.28c.4-1,.2-1.6-.32-1.6-3.36,0-7.15,12.36-2.23,12.36,3.55,0,6-6.6,7.51-10.2a.55.55,0,0,1,1,.44c-1.52,3.76-4.36,11.64-9.16,11.64C246.68,163.2,252.36,147.08,257.79,147.08Z"/><path class="cls-5" d="M265.12,147.76a.69.69,0,0,1,.55-.52,5.17,5.17,0,0,1,2.6,1.16c.4.32,0,.84-.2,1.24a54.44,54.44,0,0,0-1.95,6.36c1.43-3.08,3.55-6.88,5.47-8.48a1.06,1.06,0,0,1,.76-.28,4.94,4.94,0,0,1,2.48,1c.52.52.2.92-.24,1.24a6.9,6.9,0,0,0-2.12,4.56c0,1,.32,1.44.76,1.44,1.68,0,3.28-3.2,4-4.48a.57.57,0,0,1,1,.6c-.88,1.44-2.56,4.56-4.48,5.24-1.36.52-3.88-.72-4.08-2.48a9.43,9.43,0,0,1,1.08-4.28c.16-.36,0-.28-.12-.08-2.6,3.12-5.67,10.12-5.88,12.72,0,.4-.23.44-.47.44-1,0-2.52-1.08-2.52-1.92A47.55,47.55,0,0,1,265.12,147.76Z"/><path class="cls-5" d="M281.55,147.08c1.52,0,4.2,2,4.2,3.8,0,3.72-4.36,6.6-7.44,6.6-.08,2.12.56,3.84,2.4,3.84,3.24,0,6.16-6.56,7.52-10.2.24-.68,1.28-.24,1,.44-1.44,3.92-4.64,11.64-9.16,11.64C270.44,163.2,275.83,147.08,281.55,147.08Zm-3.16,9.48c2.16,0,4.56-3.24,4.56-6.44,0-.84-.68-1.12-1.28-.64C280.07,150.68,278.71,153.84,278.39,156.56Z"/><path class="cls-5" d="M285.55,159.72a3.41,3.41,0,0,1,2.76-1.48c.88-.12,1.8-.12,2.56-.28-.36-2.4-3.12-3.88-3.12-7a4.2,4.2,0,0,1,4.4-4.08c1.44,0,3.28,2,3.28,3.48,0,.84-.88,2.32-1.44,2.32-.88,0-2.12-.6-2.12-1a.21.21,0,0,1,.08-.16c.68,0,1.24-1.08,1.24-1.84,0-.48-.2-.88-.64-.88-1,0-1.44,1.72-1.44,2.44,0,2.12,2.16,3.64,3,5.44a9.37,9.37,0,0,0,4.28-5.56c.2-.68,1.24-.32,1,.36a10.27,10.27,0,0,1-5,6.28c.48,3.52-3.32,5.64-6.4,5.64C285.52,163.44,284.52,161.32,285.55,159.72Zm2.16-.28a1.21,1.21,0,1,0,.68,2.28,4.24,4.24,0,0,0,2.44-2.6C290,159.32,288.63,159.2,287.71,159.44Z"/><path class="cls-5" d="M308.59,151a55.81,55.81,0,0,1-3.36,5.08c-.48.68-2,.4-2.76-.24-.28-.24-.24-.4,0-.68a54.08,54.08,0,0,0,3.8-5.2,47.53,47.53,0,0,0-1.72-4.92c-.12-.32-.12-.48.24-.64.88-.4,2.4-.2,2.72.56.56,1.48,1,3,1.4,4.56A1.69,1.69,0,0,1,308.59,151Zm4.84,0a55.47,55.47,0,0,1-3.32,5.08c-.52.68-2.08.4-2.8-.24-.24-.24-.24-.4,0-.68a54.08,54.08,0,0,0,3.8-5.2,47.53,47.53,0,0,0-1.72-4.92c-.12-.32-.08-.48.24-.64.88-.4,2.44-.2,2.72.56a46.08,46.08,0,0,1,1.4,4.56A1.69,1.69,0,0,1,313.43,151Z"/></g><g class="cls-4"><path class="cls-5" d="M100.56,167.4c.76,0,3.48,1,3.48,1.64a.31.31,0,0,1-.08.2,4.37,4.37,0,0,0-.52.68c-2.32,4.16-5.84,21-6,25.24a44.61,44.61,0,0,1,8.24-1c1,0,1.56.12,1.68.4.32.68.64,3,.16,3.2h-.2a3.38,3.38,0,0,0-.68-.2A28.93,28.93,0,0,0,93.24,199c-1.2.52-1.16-2-.24-2.36a17.3,17.3,0,0,1,2.88-1c-.8-.32-1.52-.92-1.52-1.48C94.36,187.32,98.84,167.4,100.56,167.4Z"/><path class="cls-5" d="M112.64,177.08c1.52,0,4.2,2,4.2,3.8,0,3.72-4.36,6.6-7.44,6.6-.08,2.12.56,3.84,2.4,3.84,3.24,0,6.16-6.56,7.52-10.2.24-.68,1.28-.24,1,.44-1.44,3.92-4.64,11.64-9.16,11.64C101.52,193.2,106.92,177.08,112.64,177.08Zm-3.16,9.48c2.16,0,4.56-3.24,4.56-6.44,0-.84-.68-1.12-1.28-.64C111.16,180.68,109.8,183.84,109.48,186.56Z"/><path class="cls-5" d="M130.12,177.08c1.88,0,3.84,1.72,3.84,3.44,0,2.16-1.16,4.52-2.08,4.52a3.87,3.87,0,0,1-2.2-1.24c-.28-.32-.12-.72.32-1a4.52,4.52,0,0,0,1.84-2.28c.4-1,.2-1.6-.32-1.6-3.36,0-7.16,12.36-2.24,12.36,3.56,0,6-6.6,7.52-10.2a.55.55,0,0,1,1,.44c-1.52,3.76-4.36,11.64-9.16,11.64C119,193.2,124.68,177.08,130.12,177.08Z"/><path class="cls-5" d="M141.24,189a.59.59,0,0,0,0-.28c-1.16,2.44-2.68,4.52-4.48,4.52a2.53,2.53,0,0,1-2.64-2.48c-.52-4.36,1.72-11.28,5.68-13.4,1.24-.72,2.68.24,4.12,1a2,2,0,0,0,.2-.52c.16-.32.36-.52.6-.52a5.19,5.19,0,0,1,2.56,1.16c.44.32,0,.84-.2,1.24a69.6,69.6,0,0,0-2.84,11.08c-.12.6.24.6.56.28,2.44-2.44,4.12-7.12,5.16-9.84a.56.56,0,0,1,1,.4c-1,2.68-4.36,11.64-7.8,11.64a2.43,2.43,0,0,1-2.2-2.72C141.12,190,141.16,189.48,141.24,189Zm1.88-8.48a8,8,0,0,1,.4-1,1.08,1.08,0,0,0-1-.52c-2.76,0-4.88,6.88-5.12,10.32,0,.44-.12,1.88.52,1.88C139.88,191.12,142.52,182.36,143.12,180.48Z"/><path class="cls-5" d="M159.8,180.12c-.64,1.48-1.52,3.32-2.52,5.16a1.84,1.84,0,0,0,1.16.16c1.28-.24,2.44-1.56,4-4.36a.55.55,0,1,1,1,.52c-1.68,3.12-3.16,4.64-4.72,4.92a2.67,2.67,0,0,1-1.88-.28,44,44,0,0,1-3.88,6,2.24,2.24,0,0,1-1.56,1c-1.2,0-3.44-1-3.44-2.28a52.63,52.63,0,0,1,1.6-13.12c.12-.36.32-.6.68-.6a5.68,5.68,0,0,1,2.56.8c.44.28,0,.88,0,1.24a73.87,73.87,0,0,0-2,11.52c0,.36.08.48.36.12a60.81,60.81,0,0,0,4.28-7.8,10,10,0,0,1,2-5.4c.36-.56.88-.48,1.36-.2A2.29,2.29,0,0,1,159.8,180.12Z"/><path class="cls-5" d="M166.64,177.08c1.52,0,4.2,2,4.2,3.8,0,3.72-4.36,6.6-7.44,6.6-.08,2.12.56,3.84,2.4,3.84,3.24,0,6.16-6.56,7.52-10.2.24-.68,1.28-.24,1,.44-1.44,3.92-4.64,11.64-9.16,11.64C155.52,193.2,160.92,177.08,166.64,177.08Zm-3.16,9.48c2.16,0,4.56-3.24,4.56-6.44,0-.84-.68-1.12-1.28-.64C165.16,180.68,163.8,183.84,163.48,186.56Z"/><path class="cls-5" d="M177,189.72a3.39,3.39,0,0,1,2.76-1.48c.88-.12,1.8-.12,2.56-.28-.36-2.4-3.12-3.88-3.12-7a4.19,4.19,0,0,1,4.4-4.08c1.44,0,3.28,2,3.28,3.48,0,.84-.88,2.32-1.44,2.32-.88,0-2.12-.6-2.12-1a.21.21,0,0,1,.08-.16c.68,0,1.24-1.08,1.24-1.84,0-.48-.2-.88-.64-.88-1,0-1.44,1.72-1.44,2.44,0,2.12,2.16,3.64,3,5.44a9.37,9.37,0,0,0,4.28-5.56c.2-.68,1.24-.32,1,.36a10.27,10.27,0,0,1-5,6.28c.48,3.52-3.32,5.64-6.4,5.64C177,193.44,176,191.32,177,189.72Zm2.16-.28a1.21,1.21,0,1,0,.68,2.28,4.24,4.24,0,0,0,2.44-2.6C181.48,189.32,180.12,189.2,179.2,189.44Z"/><path class="cls-5" d="M194.16,177.08c1.52,0,4.2,2,4.2,3.8,0,3.72-4.36,6.6-7.44,6.6-.08,2.12.56,3.84,2.4,3.84,3.24,0,6.16-6.56,7.51-10.2.25-.68,1.29-.24,1,.44-1.43,3.92-4.63,11.64-9.15,11.64C183,193.2,188.44,177.08,194.16,177.08ZM191,186.56c2.16,0,4.56-3.24,4.56-6.44,0-.84-.68-1.12-1.28-.64C192.68,180.68,191.32,183.84,191,186.56Z"/><path class="cls-5" d="M208.28,177.76a.71.71,0,0,1,.56-.52,5.17,5.17,0,0,1,2.6,1.16c.4.32,0,.84-.2,1.24a56.42,56.42,0,0,0-2,6.36c1.44-3.08,3.55-6.88,5.47-8.48a1.09,1.09,0,0,1,.76-.28,4.91,4.91,0,0,1,2.48,1c.52.52.2.92-.24,1.24a6.9,6.9,0,0,0-2.12,4.56c0,1,.33,1.44.76,1.44,1.68,0,3.28-3.2,4-4.48a.57.57,0,0,1,1,.6c-.88,1.44-2.56,4.56-4.48,5.24-1.36.52-3.87-.72-4.08-2.48a9.69,9.69,0,0,1,1.08-4.28c.17-.36.05-.28-.12-.08-2.59,3.12-5.67,10.12-5.87,12.72,0,.4-.24.44-.48.44-1,0-2.52-1.08-2.52-1.92A47.55,47.55,0,0,1,208.28,177.76Z"/><path class="cls-5" d="M224.72,177.08c1.52,0,4.19,2,4.19,3.8,0,3.72-4.35,6.6-7.43,6.6-.08,2.12.56,3.84,2.4,3.84,3.24,0,6.16-6.56,7.51-10.2.24-.68,1.28-.24,1,.44-1.44,3.92-4.64,11.64-9.15,11.64C213.6,193.2,219,177.08,224.72,177.08Zm-3.16,9.48c2.16,0,4.56-3.24,4.56-6.44,0-.84-.68-1.12-1.28-.64C223.24,180.68,221.88,183.84,221.56,186.56Z"/><path class="cls-5" d="M234.8,167.4c.8,0,3.47,1,3.47,1.64a.3.3,0,0,1-.07.2,2.67,2.67,0,0,0-.49.68c-1.27,2.24-2.75,7.48-3.83,12.44a27.1,27.1,0,0,1,2-3.56c.8-1.16,1.76-2.12,2.76-2.12,1.68,0,3.28,2.24,3.28,3.56a15.7,15.7,0,0,1-2.16,7.16,14,14,0,0,0,4.76-6.28.57.57,0,0,1,1,.44,15.71,15.71,0,0,1-7.16,8c-1.6,2.12-3.39,3.64-4.83,3.64a2.59,2.59,0,0,1-1.36-.68c0,.24.08.68-.48.68-1,0-2.64-.88-2.64-1.76C229.08,184.68,233.12,167.4,234.8,167.4Zm-.16,15.88a23.41,23.41,0,0,0-2.28,7,12.23,12.23,0,0,0,2.6-.56,20,20,0,0,0,3.24-9.64c0-1.24-.69-1.6-1.41-.56A36.25,36.25,0,0,0,234.64,183.28Z"/><path class="cls-5" d="M242.28,189a50.56,50.56,0,0,1,3.08-11.2c.16-.32.35-.52.6-.52a5.16,5.16,0,0,1,2.55,1.16c.45.32,0,.84-.16,1.24a67.4,67.4,0,0,0-3,11.08c-.12.6.24.6.55.28,2.44-2.44,4.28-7.12,5.32-9.84a.56.56,0,0,1,1,.4c-1,2.68-4.52,11.64-7.95,11.64a2.43,2.43,0,0,1-2.2-2.72C242.16,190,242.2,189.48,242.28,189Zm7.19-20a7.31,7.31,0,0,1,2.36,1.08c.6.4.6.92.16,1.64-.72,1.2-2.88,4.44-3.83,4.48-2.29.08-.16-5.12.35-6.08C248.87,169.32,249.19,168.92,249.47,168.92Z"/><path class="cls-5" d="M259.27,181.12a.57.57,0,0,1,1,.44,9.59,9.59,0,0,1-6.52,4.76,30.16,30.16,0,0,1-.28,12.72,7.28,7.28,0,0,1-1.43,3,2.24,2.24,0,0,1-1.92.68c-1,0-2.64-.6-2.64-1.48a28.13,28.13,0,0,1,.24-3.4,108.89,108.89,0,0,1,5-23.4c.64-1.76,1.21-2.84,1.64-2.84.76,0,3.48,1,3.48,1.64a.31.31,0,0,1-.08.2,4.37,4.37,0,0,0-.52.68c-1.12,2-2.44,6.52-3.52,11A8.12,8.12,0,0,0,259.27,181.12Zm-7,18.24a26.41,26.41,0,0,0,.76-10.68c-.69,3.44-1.29,7-1.64,10.48-.12,1.24-.08,1.88.08,1.88S252.16,199.72,252.28,199.36Z"/><path class="cls-5" d="M267.35,181.12a.57.57,0,0,1,1,.44,9.59,9.59,0,0,1-6.52,4.76,30.16,30.16,0,0,1-.28,12.72,7.28,7.28,0,0,1-1.43,3,2.24,2.24,0,0,1-1.92.68c-1,0-2.64-.6-2.64-1.48a28.13,28.13,0,0,1,.24-3.4,108.89,108.89,0,0,1,5-23.4c.64-1.76,1.21-2.84,1.64-2.84.76,0,3.48,1,3.48,1.64a.31.31,0,0,1-.08.2,4.37,4.37,0,0,0-.52.68c-1.12,2-2.43,6.52-3.52,11A8.12,8.12,0,0,0,267.35,181.12Zm-7,18.24a26.41,26.41,0,0,0,.76-10.68c-.69,3.44-1.29,7-1.64,10.48-.12,1.24-.08,1.88.08,1.88S260.24,199.72,260.36,199.36Z"/><path class="cls-5" d="M271.27,177.08c1.52,0,4.2,2,4.2,3.8,0,3.72-4.36,6.6-7.43,6.6-.08,2.12.55,3.84,2.39,3.84,3.24,0,6.16-6.56,7.52-10.2.24-.68,1.28-.24,1,.44-1.44,3.92-4.64,11.64-9.16,11.64C260.16,193.2,265.56,177.08,271.27,177.08Zm-3.15,9.48c2.15,0,4.55-3.24,4.55-6.44,0-.84-.68-1.12-1.28-.64C269.79,180.68,268.44,183.84,268.12,186.56Z"/></g></g><path class="cls-6" d="M339,375.89c1.32.8,2.69,1.55,4,2.41,17.47,11.82,26.75,29.43,34.92,48.13a214.69,214.69,0,0,1,15.86,53.7c3.31,21.83,4.69,43.86.76,65.84-.55,3.07,1.13,3.25,3.47,3.41,9,.61,18.06,1,27,2.22A64.25,64.25,0,0,1,439.92,556c7.4,3,9,9.19,5.3,16.2-3.2,6-8.6,8.84-14.45,11.12-14.22,5.52-28.8,9.28-44,5-5.62-1.6-10.71-5-16.1-7.54-1.22-.56-3-1.27-4-.79-8.47,4.21-17.71,4.52-26.78,5.57-11.38,1.33-22.78,2.9-34.2,3.21s-23.12-.66-34.66-1.43c-2.24-.15-4.54-1.69-6.51-3-2.88-2-2.67-5.92.24-9,4.64-4.94,10.77-6.6,17.14-7.6,6-.94,12.2-1.31,18.13-2.72,5.11-1.2,10-3.5,14.83-5.28-3.55,3.62-7.53,6.79-13.08,7.71-6.66,1.1-13.28,2.46-19.88,3.89a17.36,17.36,0,0,0-6.36,2.43c-1.58,1.13-3.43,3.28-3.37,4.9s2.05,4,3.72,4.61a31.57,31.57,0,0,0,10,1.91c22.9.8,45.56-2.25,68.08-5.71,15.07-2.32,30.53-18,33.49-33.09-.21-.1-.49-.33-.65-.27-12.93,4.72-26.51,4.78-40,5.29-19.22.73-38.45,1.3-57.68,1.45-9.53.07-19.07-.92-28.6-1.52a18.79,18.79,0,0,1-3.76-1l.19-1.28c4,.1,7.92.18,11.88.32,9.79.35,19.59,1.25,29.35,1,21-.55,42-1.58,63-2.65,8.68-.44,17.25-1.72,25.25-5.54a5.39,5.39,0,0,0,3.5-4.91,207.75,207.75,0,0,0-3.45-58.93c-.48-2.37-.92-4.75-1.29-7.14s-1.43-3.36-4.16-2.72a63.77,63.77,0,0,1-10.57,1.32c-1.2.07-2.45-.76-3.67-1.17l.19-1.36c1.42-.26,2.84-.57,4.27-.76,1.76-.24,3.56-.29,5.32-.58,6.35-1,7.1-2.08,5.57-8.17a116.77,116.77,0,0,0-5.58-17.5c-2.26,5.52-4.24,11.17-6.85,16.52a64.7,64.7,0,0,1-24.06,26.63q-12.87,7.8-26.48,14.29c-3.35,1.65-7.28,2.22-11,3-1.12.23-2.45-.58-3.69-.92,1-.9,1.86-2.42,3-2.62a86.92,86.92,0,0,0,27.13-10c17.66-9.85,30.73-23.47,35.53-43.74A39.25,39.25,0,0,0,367,415.94c-6.85-14-16.11-25.91-27-36.76a26,26,0,0,1-1.77-2.16Z"/><path class="cls-6" d="M235.91,494.88a19.59,19.59,0,0,1-.36,3.23c-4.28,15.64-3.7,31.27.61,46.74,1.45,5.23,4,10.19,6.32,15.12.58,1.23,2.33,2,3.64,2.76a6.82,6.82,0,0,1,2.84,2.08,18.67,18.67,0,0,1-2.64.8c-6.41,1-12.83,1.88-19.24,2.82a9.06,9.06,0,0,0-2.25.44c-2.57,1.09-5.46,2-5.38,5.59s2.89,4.14,5.59,4.6c9.64,1.64,19.29,3.22,28.94,4.82a9.27,9.27,0,0,1,2.6.49,9.45,9.45,0,0,1,2,1.85c-.81.66-1.61,1.86-2.44,1.88a53.77,53.77,0,0,1-7.61-.53c-8.22-.94-16.48-1.68-24.62-3a25.07,25.07,0,0,1-9.39-3.9c-5-3.3-4.82-9.29.52-12,4.1-2.09,8.87-2.87,13.38-4.11a25.3,25.3,0,0,1,3.8-.31c3.87-.45,4.63-1.38,3-5-5.41-12.15-6.7-25.05-6.66-38.07a112.79,112.79,0,0,1,2.23-19.3c.47-2.63,2.35-5,3.6-7.52Z"/><path class="cls-6" d="M334.34,366.84c1.3-2.14,2.91-4.15,3.82-6.44,1.72-4.33,3.6-8.72,4.39-13.27.94-5.4-1.91-9.6-6.5-12.43-4.14-2.56-8-1-11.33,1.58-2.3,1.76-3.9,1.41-6.05-.15-14.64-10.59-31-14.44-48.53-10.28-14.27,3.38-24.89,12.25-31.64,25.47-.58,1.14-1.35,2.2-2.61,4.21-1.33-4.83.59-7.8,2.25-10.61,5-8.43,12.73-13.93,21.22-18.11,18-8.89,36.37-6.34,54.64-.46a2.31,2.31,0,0,1,.69.33c4.05,3.08,7.74,3.41,13.06,1.64,6.95-2.32,13.86.05,17.85,10.17,3.19,8.1-1,22.64-7.94,27.87a16.25,16.25,0,0,1-2.56,1.31Z"/><path class="cls-6" d="M264.89,362.16a8.54,8.54,0,0,1-.88.6c-1.61.59-4.33.83-4.63,1.81-.78,2.59,1,4.18,3.46,5.5,1,.56,1.68,3.36,1.26,4.79a11,11,0,0,1-9.8,8.34c-5.13.65-9.06-1.59-11.72-5.54a22.49,22.49,0,0,1-3.13-8.52A12.36,12.36,0,0,1,246.56,356c5.13-2.49,12.48-1.5,16,2.31A21.86,21.86,0,0,1,264.89,362.16Z"/><path class="cls-6" d="M289.58,478.35c-.19-2-.52-4.05-.53-6.08-.05-7.64-.15-15.28.07-22.91.12-4-2.5-3.55-5-3.87-3-.37-3.35,1.29-3.33,3.63,0,8.27.08,16.54,0,24.8,0,1.43-.83,2.85-1.28,4.27-.58-1.51-1.64-3-1.65-4.52,0-8,0-16.05.41-24.06.2-3.79-1.49-5-4.74-5.3-3.93-.31-7.86-.63-11.8-.84-2.65-.14-4.32-1-4.4-4-.08-2.77,1.28-3.27,3.69-4.13a29.11,29.11,0,0,0,9.49-5.88c1.61-1.47,2.78-2.1,4.86-1.87,6.08.66,12.16,1.28,18.26,1.6,2.78.14,4,1.44,4.1,3.9.17,3.3.19,6.61.07,9.91-.08,2.2-.28,4.48-3.7,3.81-.46-.09-1.85,1.86-1.89,2.9-.25,7-.21,14-.37,21-.06,2.56-.42,5.11-.64,7.66Zm5.81-46.29c-4.07-.36-7.7-.73-11.35-1-5.33-.4-10.53-.74-14.76,3.83-1.53,1.64-4.23,2.15-6.3,3.35a8.1,8.1,0,0,0-1.74,2.07c.65.45,1.27,1.24,1.94,1.29,9.49.62,19,1.2,28.48,1.61a3.35,3.35,0,0,0,2.62-1.85c.6-2.82.73-5.74,1.11-9.29Z"/><path class="cls-6" d="M236.93,419a18.65,18.65,0,0,1-1.26,3.71c-7.63,12.08-7.54,25.08-4.53,38.38,2.43,10.76,6.26,21,12.5,30.16.36.52.91,1.09.92,1.64a29.94,29.94,0,0,1-.42,3.78c-1.09-.44-2.54-.57-3.2-1.36-5.89-7-11.07-14.41-13-23.5-2.58-11.9-4-24-1.13-36,1.28-5.28,4.6-10.06,7.05-15.05a4.33,4.33,0,0,1,1.34-1.32A7.25,7.25,0,0,1,236.93,419Z"/><path class="cls-6" d="M332.33,502.05a38.34,38.34,0,0,0-.11,5.77c.74,6.16,1.49,12.32,2.63,18.41.42,2.26-.52,2.81-2.15,3.1-3,.52-6,1-9.05,1.3-13.42,1.3-26.85,2.5-40.27,3.8-3.8.37-5.94-1.2-6-5q-.29-10.65-.22-21.3c0-1.08.76-2.16,1.17-3.24l1.06.08a15.8,15.8,0,0,1,.53,2.62q.39,10.13.66,20.24c.09,3.2,1.56,3.83,4.69,3.49,13.14-1.44,26.33-2.55,39.5-3.79,1-.1,2-.27,3-.46,2.71-.52,3.49-1.8,3.22-4.83-.55-6.05-.29-12.17-.3-18.26a7.12,7.12,0,0,1,.58-2Z"/><path class="cls-6" d="M277.07,397.49a17.72,17.72,0,0,1-1.75,3.05c-3.62,4.1-7,8.44-11.13,12-1.71,1.5-4.92,1.27-7.43,1.9-7.73,2-11.36-4.34-16.24-8.09-.43-.33-.33-1.36-.6-2.7,1.62.32,2.78.59,4,.77,4,.64,5.9-1.58,4.54-5.3s-2.11-7.2-.12-11.35a11.35,11.35,0,0,1,1.62,2.66,23,23,0,0,1,.19,3.42c1,9,8,13,16.08,9,2.25-1.11,4.19-2.84,6.34-4.18,1.23-.77,2.58-1.31,3.88-2Zm-17,13.43.37-1.46-4.78-1.36-.45,1.77Z"/><path class="cls-6" d="M245.68,484.91l7.17,5.77a22.74,22.74,0,0,1-.37-3c0-.8.06-2.17.43-2.29a3.36,3.36,0,0,1,2.79.18,81,81,0,0,1,6.77,7.21c.41.5.16,1.94-.29,2.61-.32.49-1.51.65-2.25.54a8.82,8.82,0,0,1-2.34-1.11c-2.5,3.61-3,3.79-6.35,1a41.52,41.52,0,0,1-6-6.28c-.76-1-.69-2.6-1-3.94Z"/><path class="cls-6" d="M331.76,374.89c-5.71,12.49-9.63,25.11-6.32,39.13l-1.64.3c-.8-1.51-2.23-3-2.3-4.54-.2-4.27-.44-8.69.44-12.82,1.5-7,3.26-14.14,7.91-20C330.43,376.22,331.12,375.57,331.76,374.89Z"/><path class="cls-6" d="M333.61,359.88c-4-.12-5.38-2.64-4.93-5.67.51-3.46.14-7,.33-10.58a16.76,16.76,0,0,1,1-3.61c.86.9,2.26,1.69,2.49,2.73a134.57,134.57,0,0,1,2.33,13.5C335,357.5,334,358.88,333.61,359.88Z"/><path class="cls-6" d="M299.63,481.27l-3.23-2.47a12.11,12.11,0,0,1,2.82-1.92c3-1,6-1.76,9.09-2.46.62-.15,1.91.31,2,.73a2.38,2.38,0,0,1-.72,2.16C306.45,478.71,303.18,479.89,299.63,481.27Z"/><path class="cls-6" d="M308.9,491.94c-.65,1-1.14,2.74-2,2.93a77.44,77.44,0,0,1-10.5,1.52c-.67.06-1.44-1-2.16-1.6.63-.51,1.2-1.34,1.9-1.49,3.85-.78,7.74-1.39,11.62-2.06Z"/><path class="cls-6" d="M307.84,484c-3.38,3.63-7.21,4.06-10.82,4.82-.47.1-1.43-.91-1.74-1.6-.22-.49.18-1.85.44-1.89C299.44,484.72,303,482.3,307.84,484Z"/><path class="cls-6" d="M271.41,491.68c-4.34-1.19-6.6-3.71-6.87-7.41C268,484.22,271.7,488,271.41,491.68Z"/><path class="cls-7" d="M320.6,423.73c-7.71-.22-13.76,8.19-12,14.6a9.15,9.15,0,0,1-.68,6.38c-4.13,7.16-8.63,14.12-13.14,21.05-.76,1.17-2.27,1.86-3.43,2.77.34-1.47.36-3.13,1.1-4.38,3.65-6.27,7.46-12.45,11.28-18.62a9.43,9.43,0,0,0,1.43-7.53c-2.17-10.16,5.14-18.68,15.44-18.42,3.43.09,4.36,1.4,3.17,4.52-.67,1.78-1.4,3.55-2.08,5.33,0,.08.07.22.28.73a49,49,0,0,1,2.76-4.62c.79-1.05,2.14-2.7,2.85-2.53a5.92,5.92,0,0,1,3.14,2.87,17.2,17.2,0,0,1-7.87,23.35,15.25,15.25,0,0,0-7.37,7.26c-3.06,5.73-6.31,11.36-9.61,16.95a17.5,17.5,0,0,1-3,3l-1.14-.89a20.57,20.57,0,0,1,1.1-2.92c4.2-7.57,8.33-15.18,12.76-22.62.78-1.32,2.68-2.18,4.25-2.81,8.52-3.48,12.29-12.24,8-20.38-1.91,3.15-3.63,6-5.35,8.82-.73,1.2-1.48,2.38-2.24,3.56-1,1.49-2,2.71-4,1.31-1.76-1.24-2.74-2.46-1.54-4.75C316.77,432,318.51,428.09,320.6,423.73Z"/><path class="cls-8" d="M290.86,360c-3.68,1.16-8.2-.31-10.08-2.61l-.33-1c1.27-3.3,7.09-6.87,11.08-5.23,1.91.55,2.57,2.66,4.13,3.9a2.52,2.52,0,0,1-1.08,2.08A7.4,7.4,0,0,1,290.86,360Z"/><circle class="cls-9" cx="290.58" cy="355.47" r="2.76"/><path class="cls-6" d="M238.26,410.19c-11.21-6.38-12.88-27.88-6.35-37.16-2.31,9.89-1.92,18.83,2.54,27.28.94,1.8,2.28,3.39,3.1,5.23.52,1.16.43,2.59.71,4.65"/><path class="cls-9" d="M246.89,406s.65,4.84,3.46,6.49l4,.1-1-6.41Z"/><path class="cls-9" d="M254.66,406.18l1,6.42,3.62.1s1.8-4.94,1.86-7A15.65,15.65,0,0,1,254.66,406.18Z"/><path class="cls-10" d="M399.12,583.64a53.42,53.42,0,0,1,25.06-27.39"/><path class="cls-10" d="M411.73,587a53.54,53.54,0,0,1,25.06-27.39"/><path class="cls-10" d="M381,582.65s7.46-20.3,30.42-30.92"/><path class="cls-10" d="M392.87,555.51s25.58-2.61,48.39,16.14"/><path class="cls-10" d="M385.1,564.14s25.59-2.61,48.39,16.14"/><path class="cls-10" d="M378.85,575.63s23-3.41,42.3,9.48"/><path class="cls-11" d="M194.42,539.81l0,0a5.64,5.64,0,0,0-.85-1.41l-3.94-4.6V505.91a19,19,0,0,0-10.47-17l.1-7.27a3.48,3.48,0,0,0-2.93-3.46l-3.87-.6A3.49,3.49,0,0,0,168.6,480l-2.1,6.88H130.84a19,19,0,0,0-19,19v20.74h-7a5.19,5.19,0,0,0-3.94,1.81l-8.5,9.92a5.17,5.17,0,0,0-1.25,3.38V578.5a1.72,1.72,0,0,0,1.73,1.73H193.06a1.72,1.72,0,0,0,1.73-1.73V541.76a5.33,5.33,0,0,0-.36-1.93Zm-31.55-1.06-2.49-10.07.72-1.68c1.69-3.83,3.43-7.79,2.86-12.23l8,1.24h0l1.19.12c-2,4.14-1.5,8.55-1.08,12.42l0,.26c.37,3.55.7,6.92-.49,9.94Zm-38.95,1.73v6.91a5.2,5.2,0,0,1-5.18,5.19h-3.46a5.21,5.21,0,0,1-5.19-5.19v-6.91Zm55.32-13.83h-3.89a16.77,16.77,0,0,1,.92-9,3.35,3.35,0,0,0-.08-3,3.54,3.54,0,0,0-2-1.67l1.32-8.54,1.36-4.43a8.6,8.6,0,0,1,2.38,6Zm-7.4-21.15-1.06,6.83-3.43-.53L168.4,505l2.7.42Zm-6.6-2.7-1.32,8.53a3.56,3.56,0,0,0-2.44,1,3.34,3.34,0,0,0-1,2.86,15.54,15.54,0,0,1-1.49,7.94L154.53,505a3.46,3.46,0,0,0-1.62-2.14,3.37,3.37,0,0,0-2.56-.37l-13.42,3.32a3.46,3.46,0,0,0-2.54,4.19l4.11,16.61H122.19V505.91a8.66,8.66,0,0,1,8.65-8.65h34.47Zm-25.88,27.3,1.93,7.82-6.7-7.82Zm10.93,8.65a1.94,1.94,0,0,0,0-.59,1.72,1.72,0,0,0-2.09-1.26h0l-3.37.83-.83-3.36,3.37-.83a1.73,1.73,0,0,0-.83-3.36h0l-3.37.84-.83-3.36,3.37-.83a1.73,1.73,0,0,0-.83-3.36l-3.36.84-.83-3.36,3.36-.83a1.73,1.73,0,0,0-.75-3.38l-.08,0-3.36.83-2.08-8.38,13.43-3.32,8.13,32.86Zm25.41-8.65h5.4a1.81,1.81,0,0,1,1.32.61l6.89,8H175.25A22.91,22.91,0,0,0,175.7,530.1Zm10.45-24.2v23.85l-1.11-1.3a5.16,5.16,0,0,0-2.35-1.51v-21a12,12,0,0,0-4.73-9.57l1-3.24a2.19,2.19,0,0,0,0-.27,15.53,15.53,0,0,1,7.16,13.08ZM171.91,481l3.87.6-.13,10.47h0l-3.06,10-1.47-.22-2.4-.38.07-6v0h0l.06-4.49Zm-56.63,24.89a15.58,15.58,0,0,1,15.56-15.56h34.65a3.41,3.41,0,0,0-.1.64l0,2.81H130.84a12.12,12.12,0,0,0-12.1,12.1V537h-3.46ZM94.54,541.76a1.68,1.68,0,0,1,.41-1.13l8.5-9.91a1.76,1.76,0,0,1,1.32-.62h7V537h-1.73a3.45,3.45,0,0,0-3.45,3.46v6.91a8.64,8.64,0,0,0,8.64,8.64h3.46a8.65,8.65,0,0,0,8.64-8.64v-6.91a3.46,3.46,0,0,0-3.46-3.46h-1.73V530.1h7.06a1.79,1.79,0,0,1,1.31.61l8.48,9.9a2,2,0,0,1,.32.5,1.82,1.82,0,0,1,.12.65v35H94.54Zm48.4,35V542.2h48.4v34.58Z"/><path class="cls-7" d="M90.69,542.59a1.81,1.81,0,0,1,.44-1.2l9.13-10.65a1.89,1.89,0,0,1,1.42-.66h7.57v7.43H107.4a3.72,3.72,0,0,0-3.72,3.71v7.43a9.3,9.3,0,0,0,9.29,9.28h3.71a9.29,9.29,0,0,0,9.28-9.28v-7.43a3.71,3.71,0,0,0-3.71-3.71h-1.86v-7.43H128a1.91,1.91,0,0,1,1.41.65l9.11,10.63a2.15,2.15,0,0,1,.34.54,1.85,1.85,0,0,1,.13.7v37.61H90.69Z"/><path class="cls-3" d="M164.82,538.75l-2.49-10.07c.24-.56.48-1.12.73-1.68,1.68-3.83,3.43-7.79,2.85-12.23l8,1.24h0l1.19.12c-2,4.14-1.5,8.55-1.08,12.42l0,.26c.37,3.55.71,6.92-.49,9.94Z"/><path class="cls-3" d="M151.2,537.33a1.67,1.67,0,0,0,0-.59,1.73,1.73,0,0,0-2.09-1.26h0l-3.37.83-.83-3.35,3.36-.84a1.73,1.73,0,1,0-.83-3.35l-3.36.83-.83-3.36,3.36-.83a1.73,1.73,0,0,0-.83-3.36l-3.36.84-.83-3.36,3.36-.83a1.73,1.73,0,0,0-.74-3.38l-.09,0-3.36.83-2.07-8.38,13.43-3.32,8.13,32.86Z"/><path class="cls-3" d="M172.83,480.2l3.87.6-.13,10.48h0l-3.07,10-1.46-.23-2.4-.37.07-6v0h0l.06-4.49Z"/><rect class="cls-7" x="141.68" y="543.32" width="48.4" height="34.57"/><path class="cls-3" d="M289.58,478.35c-.19-2-.52-4.05-.53-6.08-.05-7.64-.15-15.28.07-22.91.12-4-2.5-3.55-5-3.87-3-.37-3.35,1.29-3.33,3.63,0,8.27.08,16.54,0,24.8,0,1.43-.83,2.85-1.28,4.27-.58-1.51-1.64-3-1.65-4.52,0-8,0-16.05.41-24.06.2-3.79-1.49-5-4.74-5.3-3.93-.31-7.86-.63-11.8-.84-2.65-.14-4.32-1-4.4-4-.08-2.77,1.28-3.27,3.69-4.13a29.11,29.11,0,0,0,9.49-5.88c1.61-1.47,2.78-2.1,4.86-1.87,6.08.66,12.16,1.28,18.26,1.6,2.78.14,4,1.44,4.1,3.9.17,3.3.19,6.61.07,9.91-.08,2.2-.28,4.48-3.7,3.81-.46-.09-1.85,1.86-1.89,2.9-.25,7-.21,14-.37,21-.06,2.56-.42,5.11-.64,7.66Zm5.81-46.29c-4.07-.36-7.7-.73-11.35-1-5.33-.4-10.53-.74-14.76,3.83-1.53,1.64-4.23,2.15-6.3,3.35a8.1,8.1,0,0,0-1.74,2.07c.65.45,1.27,1.24,1.94,1.29,9.49.62,19,1.2,28.48,1.61a3.35,3.35,0,0,0,2.62-1.85c.6-2.82.73-5.74,1.11-9.29Z"/></svg>