<svg id="Calque_1" data-name="Calque 1" xmlns="http://www.w3.org/2000/svg" viewBox="0 0 485.5 628.38"><defs><style>.cls-1{fill:#616161;}.cls-2,.cls-9{fill:#fff;}.cls-11,.cls-3{fill:none;stroke-linecap:round;stroke-linejoin:round;}.cls-3{stroke:#fff;stroke-width:0.5px;}.cls-4{fill:#898890;}.cls-5{fill:#d8d7da;}.cls-6{fill:#ef9486;}.cls-12,.cls-6{opacity:0.48;}.cls-10,.cls-12,.cls-13,.cls-6,.cls-7{isolation:isolate;}.cls-7{fill:#00a5c3;}.cls-13,.cls-7{opacity:0.46;}.cls-8{fill:#dbdbdb;}.cls-9{stroke:#2d2d2d;}.cls-14,.cls-9{stroke-miterlimit:10;}.cls-10{fill:#5eb676;opacity:0.67;}.cls-11{stroke:#727272;}.cls-12{fill:#f09587;}.cls-13{fill:#00a6c4;}.cls-14{fill:#5f5f5f;stroke:#5f5f4e;stroke-width:0.25px;}</style></defs><title>Groupe 1968</title><path class="cls-1" d="M316.87,540.39c2,0,3.92-.06,5.77,0,.38,0,.81.11,1.19.11,3.81.54,3.92,3.64,2.62,5.71a12.43,12.43,0,0,1-3.54,3.54,30.88,30.88,0,0,1-15.51,4.89c-.65,0-1.68,0-1.9.27a5.49,5.49,0,0,0-1.14,3,21.8,21.8,0,0,0,.92,4.13c.44,1.58.82,3.16,1.15,4.79a2.8,2.8,0,0,1-2.29,3,3.1,3.1,0,0,1-3.43-1.2,20.88,20.88,0,0,1-3.81-6.74,60.38,60.38,0,0,0-2.28-6,15.84,15.84,0,0,0-2.12-2.83,1.55,1.55,0,0,1,1.74.82c1,2.18,2,4.41,2.83,6.69,1,2.56,2,5.12,3.86,7.13a2.69,2.69,0,0,0,3.81.38,2.4,2.4,0,0,0,.76-1,2.75,2.75,0,0,0,.11-1.75c-.22-1-.71-2-1-3a35.37,35.37,0,0,1-1-4.79,6.59,6.59,0,0,1,2-5,90.69,90.69,0,0,0,13.55-20c4.3-8.27,7-17.14,9.36-26.11a122,122,0,0,0,3.75-22.58c.22-3.48,0-7-.11-10.45,0-1.58-.22-3.1-.32-4.68a.72.72,0,0,0,.32-.11,4.43,4.43,0,0,1,.44,1.42,81.05,81.05,0,0,1,.05,16.7,173.33,173.33,0,0,1-4.24,24.81,89.08,89.08,0,0,1-6.2,18.82c-1.42,2.89-3.05,5.61-4.57,8.44a15.55,15.55,0,0,1-.82,1.63Z"/><path class="cls-1" d="M298.05,500.56c-2.51-.32-3.92-1.74-3.92-3.91,1.2,2.34,2.5,3.37,3.92,3s2-1.3,2.06-3.75a3.56,3.56,0,0,1-2.72-3.7,4.38,4.38,0,0,1,2.45-3.43,3.62,3.62,0,0,1,4,2,4.28,4.28,0,0,1-.38,3.81,3.91,3.91,0,0,1-2,1.25,1,1,0,0,0-.81,1,2.39,2.39,0,0,0,2.07,2.67h.49c2.72,0,3.75-1,4.29-3.92a3.28,3.28,0,0,1-1.3,3.81,1.31,1.31,0,0,1-.6.27c-1.63.22-2.23,1.36-2.5,2.77a1.45,1.45,0,0,1-1.42,1.42,2.08,2.08,0,0,1-.54-.11h-.22c-.6,0-1.58.22-1.85-.05a6.27,6.27,0,0,1-.87-2.24,2.69,2.69,0,0,0-.16-.87Zm2.66-1.08c.06,3,.33,3.59,1.69,3.48.22-.82.49-1.69.71-2.5a20.18,20.18,0,0,0-2.4-1Zm0,3.75c-.22-1.58-.44-2.67-.6-3.81-1.47,1-1.63,1.58-.76,3.21C299.46,503,300.06,503,300.66,503.23Zm2.07-10.77c.81-1.31.49-2-.87-2.07C302.18,491.15,302.45,491.81,302.73,492.46Z"/><path class="cls-1" d="M276.39,550c-5-7.83-6-16.43-3.91-25.29,1.47-6.42,3.26-12.95,8.87-17.36a2.12,2.12,0,0,1-.22.49c-3.38,3.37-5.17,7.62-6.42,12.19a52,52,0,0,0-1.58,19.85,20.55,20.55,0,0,0,2.45,7.13c.49.93.81,1.9,1.2,2.83A2.58,2.58,0,0,1,276.39,550Z"/><path class="cls-1" d="M318.67,489.36a9.33,9.33,0,0,1,.87-.71,5.65,5.65,0,0,0,2.28-4.19,3.94,3.94,0,0,0-3.75-4.24h-.76a7.55,7.55,0,0,0-2.45.87,1.27,1.27,0,0,1-1.74-.17.05.05,0,0,0-.06-.05,13.74,13.74,0,0,0-11.42-3.43,9.62,9.62,0,0,0-5.55,2.51,1.26,1.26,0,0,1-.22-.33,21.79,21.79,0,0,1,2.34-1.63,13.46,13.46,0,0,1,10.94-.66c1.57.55,3,1.42,4.57,2.07a2.6,2.6,0,0,0,1.41.06c1.52-.49,2.94-.87,4.52-.17a5.16,5.16,0,0,1,2.93,6.69,5,5,0,0,1-1.47,2.07c-.65.6-1.46,1.14-2.17,1.69-.17-.22-.22-.33-.27-.38Z"/><path class="cls-1" d="M284.28,500a26.68,26.68,0,0,1-7-16.54,27.24,27.24,0,0,1,3.54-15C276.07,479.67,278.79,490,284.28,500Z"/><path class="cls-1" d="M288.47,553.28c-1.63.71-3.26,1.47-4.89,2.18-3.21,1.36-6.42,2.72-9.69,4a20.61,20.61,0,0,1-4,1.2c-2.07.38-3.27-1-2.51-2.94a10.75,10.75,0,0,1,2.13-3.26c1.68-1.85,3.91-3.27,4.62-5.88a3.86,3.86,0,0,0,.43.17,3.73,3.73,0,0,1-.43,1.52c-1,1.25-2,2.39-3.05,3.59a16.58,16.58,0,0,0-2,2.28,3.56,3.56,0,0,0-.33,2.45c.28.93,1.36,1,2.18.82a52.05,52.05,0,0,0,5.6-1.91c3.54-1.36,7-2.88,10.5-4.24a12.92,12.92,0,0,1,1.31-.38l.16.38Z"/><path class="cls-1" d="M275.2,509.87a4,4,0,0,1-.27-.71c.76-3.37-.22-6.58-1-9.74A88.13,88.13,0,0,1,271,481.74c-.1-2,.06-4,.11-6a2.71,2.71,0,0,1,.66-1.52,2.51,2.51,0,0,1,.1.6c-.87,6,0,12,1.2,17.84.71,3.43,1.85,6.8,2.5,10.23a33.7,33.7,0,0,1,.17,5.77,5,5,0,0,1-.49,1.25Z"/><path class="cls-1" d="M293,479.35a9.11,9.11,0,0,0-1.3-.38,3.36,3.36,0,0,0-3.7,2.72,6,6,0,0,0,1,4.89,2.62,2.62,0,0,1,.33.87,13,13,0,0,1-.06,1.53c-.27,5.16,1.31,9.46,5.77,12.4a1.49,1.49,0,0,1,.38.27c.05,0,0,.06,0,.11-1.2-.05-3.16-1.41-4.08-2.88-1.85-3.1-3.43-6.26-2.94-10a1.87,1.87,0,0,0-.38-1.2,7.07,7.07,0,0,1-.22-7.51,4,4,0,0,1,4.57-1.79,5.44,5.44,0,0,1,.87.7l-.27.28Z"/><path class="cls-1" d="M310.51,509.43c7.18-1.68,10.55-6.74,12-13.54a.87.87,0,0,1,.11.38,22.48,22.48,0,0,1-2.83,8.81,8.15,8.15,0,0,1-4.89,3.81c-.76.22-1.42.54-2.23.71-.66.1-1.31.16-2,.21a.85.85,0,0,0-.1-.38Z"/><path class="cls-1" d="M309.69,563.62c1.41,1.58,1,5-.49,6.91-1,1.25-2.5,2-3.65,1.41C309.36,570.42,309.64,567.15,309.69,563.62Z"/><path class="cls-1" d="M317.8,487.45a17,17,0,0,1-1.47-1.47.9.9,0,0,1-.22-.65c.27-.6.54-1.25.76-1.9a7.08,7.08,0,0,0-.11-1.91c1.69.6,2.23,4.14,1,5.93Z"/><path class="cls-1" d="M325.47,484.57c0-.33,0-.65.11-1,.27-2.45.59-4.9-.11-7.35-.17-.49.27-1.14.43-1.74.22.49.71,1,.71,1.41-.11,2.78-.38,5.55-.6,8.33l-.16.33a.37.37,0,0,1-.38.05Z"/><path class="cls-1" d="M330.53,474.4c-1.36-2.34-.66-4.68-1-7.08C330.63,467.92,331.07,471.46,330.53,474.4Z"/><path class="cls-1" d="M312.19,488.92c-1.79-1.63-3.48-.27-5.17.22a1.92,1.92,0,0,1,1.91-1.85C310.67,487.13,311.87,487.62,312.19,488.92Z"/><path class="cls-1" d="M296.63,488.54c-.54,0-1.09.22-1.25,0-1.14-1-2.17-1.41-3.43-.16a.54.54,0,0,1-.49-.06.56.56,0,0,1,0-.49c.87-1.3,3.87-1.47,4.85-.27a5.89,5.89,0,0,1,.32,1Z"/><path class="cls-1" d="M276.29,475.81c-.66-2.34.16-4.24,1.85-6C277.54,471.84,276.88,473.85,276.29,475.81Z"/><path class="cls-1" d="M312,568.51a3.16,3.16,0,0,1-1,3.49c-.38.38-.82,1-1.47.54C310.4,571.23,311.16,569.87,312,568.51Z"/><path class="cls-1" d="M327.75,475.21c-.11-1.52-.22-2.72-.33-4.13A3.21,3.21,0,0,1,327.75,475.21Z"/><path class="cls-1" d="M273.78,475.65c-.92-.82-.49-3.16.87-4.3Z"/><path class="cls-2" d="M300.71,499.48c.82.32,1.53.65,2.45,1-.22.81-.49,1.63-.71,2.5-1.41.05-1.68-.44-1.74-3.48Z"/><path class="cls-2" d="M300.66,503.23c-.6-.27-1.2-.33-1.36-.6-.87-1.63-.71-2.28.76-3.21C300.22,500.56,300.39,501.71,300.66,503.23Z"/><path class="cls-2" d="M302.73,492.46c-.28-.65-.55-1.31-.87-2.07C303.22,490.5,303.54,491.15,302.73,492.46Z"/><path class="cls-3" d="M315.1,543.33s3.65,3.69,2.83,8.65"/><path class="cls-3" d="M311.89,545.23s3.65,3.7,2.83,8.65"/><path class="cls-3" d="M318.31,540.28a11.72,11.72,0,0,1,2.78,10.17"/><path class="cls-3" d="M326,543.82s-4.62,6.69-15.23,9.19"/><path class="cls-3" d="M325.17,541.69s-4.63,6.48-15.35,8.65"/><path class="cls-3" d="M322.72,540.44s-3.76,5.12-12,6.91"/><path class="cls-3" d="M322,540.44a8.54,8.54,0,0,1,2.18,7"/><path class="cls-3" d="M309.5,546.86a8.53,8.53,0,0,1,2.17,7"/><path class="cls-3" d="M292.31,550.94a10.83,10.83,0,0,1,5.44-5.11"/><path class="cls-3" d="M294.75,551.87a10.84,10.84,0,0,1,5.44-5.12"/><path class="cls-3" d="M288.82,550.4a12.12,12.12,0,0,1,6.59-5.71"/><path class="cls-3" d="M291.65,545.12a13.54,13.54,0,0,1,9.14,4.19"/><path class="cls-3" d="M290,546.7a13.56,13.56,0,0,1,9.14,4.19"/><path class="cls-3" d="M288.5,548.93a12.82,12.82,0,0,1,8.1,2.72"/><path class="cls-3" d="M253.79,537.61s1.58-4.89,6-6.36"/><path class="cls-3" d="M246.77,526s7.56,1,14.09,9.08"/><path class="cls-3" d="M245.25,527.77s7.34,1.08,13.71,9.41"/><path class="cls-3" d="M256.18,539s1.25-3.92,4.95-5.06"/><path class="cls-2" d="M329.68,507.64l1.85.38-.11.65-1.9-.16Z"/><path class="cls-4" d="M340.62,521.24a1.93,1.93,0,0,1-3.38-1.85,1.89,1.89,0,0,1,2.61-.76A2,2,0,0,1,340.62,521.24Z"/><path class="cls-5" d="M305.09,570.2a2.89,2.89,0,1,1-1.2-3.92,2.89,2.89,0,0,1,1.2,3.92Z"/><path class="cls-4" d="M256.62,558.23a1.93,1.93,0,0,1-3.38-1.85,1.91,1.91,0,0,1,2.62-.76A2,2,0,0,1,256.62,558.23Z"/><path class="cls-6" d="M337.41,523.58a2.9,2.9,0,1,0-1.2-3.92A2.89,2.89,0,0,0,337.41,523.58Zm1.79-3.38a1,1,0,0,1,.44,1.31,1,1,0,0,1-1.31.43,1,1,0,0,1-.43-1.3A1,1,0,0,1,339.2,520.2Z"/><path class="cls-7" d="M300.74,572.21a3.86,3.86,0,1,0-1.58-5.22A3.9,3.9,0,0,0,300.74,572.21Zm2.72-5.11a1.92,1.92,0,1,1-2.61.76A2,2,0,0,1,303.46,567.1Z"/><path class="cls-6" d="M256.29,554.75a2.89,2.89,0,1,0,1.2,3.92A2.94,2.94,0,0,0,256.29,554.75Zm-1.79,3.37a1,1,0,0,1-.44-1.3,1,1,0,1,1,1.74.87.91.91,0,0,1-1.25.43C254.55,558.18,254.5,558.18,254.5,558.12Z"/><path class="cls-8" d="M319.73,554.42c-22.15-.38-33.52-11.15-39.23-29.65-4.84-15.61-7.18-32-10.77-48.09-3-13.49.65-21.6,14.74-27.36,23.72-9.74,42.33-26.39,56.42-50.71-23.45,15.29-73.28,52.77-74.05,43,0-33.73,19.05-73.12,29.33-105.92-54.41,74.53-67.79,124.09-28.45,211-9-2.17-13.17,1.75-15.4-.27-21.54-19-43.52,3.81-65.61,19.53-2.78,2-1.91,15.24-.93,15.45,21.71,5.06,43.53,10.83,65.61,12.63a368.28,368.28,0,0,0,69.64-1c19.15-2.07,37.76-8.76,59.46-14.09-18.17-25.79-40.85-24.15-60.76-24.43Z"/><path class="cls-9" d="M356.72,366.08c-12.08,7.07-19.2,18.44-19,28.45.06,3.1,25.68-8.43,27.2-5.82,1.85,3.21-20.18,20.13-16.81,21.71,8.6,4.19,21.17,3.15,32.54-3.43,15.72-9.19,29-44.34,29-44.34s-37.21-5.77-52.93,3.43Z"/><path class="cls-9" d="M340.13,346.11c6.42,3.1,15.83,2.34,24.37-2.61,11.81-6.85,21.71-33.24,21.71-33.24s-27.8-4.3-39.61,2.56c-9,5.33-14.42,13.82-14.2,21.32.06,2.34,19.21-6.31,20.35-4.35,1.36,2.45-15.18,15.07-12.62,16.32Z"/><path class="cls-9" d="M304.06,379.19c4.84,2.39,12,1.8,18.39-2,8.92-5.22,16.37-25.13,16.37-25.13s-21-3.27-29.92,2c-6.86,4-10.88,10.44-10.72,16.1,0,1.74,14.47-4.79,15.4-3.27,1.09,1.8-11.43,11.37-9.52,12.3Z"/><path class="cls-9" d="M338.71,293.67c.6,1.63,12.3-9.09,13.6-7.89,1.58,1.36-7.34,14.36-5.27,14.63,5.38.76,12-2,16.92-7.56,6.85-7.67,7.83-28.89,7.83-28.89s-21,3.38-27.86,11.05c-5.22,5.93-7.07,13.27-5.22,18.66Z"/><path class="cls-9" d="M339.8,249.16c1.58,1.37-7.34,14.37-5.28,14.64,5.39.76,12-2,16.92-7.56,6.86-7.67,7.84-29,7.84-29s-21,3.38-27.86,11.1c-5.28,5.93-7.12,13.28-5.22,18.66C326.74,258.69,338.49,248,339.8,249.16Z"/><path class="cls-9" d="M295,255.15c2.12,1,3.37-20.24,5.65-20.35,2.78-.16,6.42,20.68,8.71,18.93,5.82-4.29,9.57-13.11,9.08-23.06-.59-13.77-19.58-35-19.58-35s-17,23-16.32,36.78c.49,10.55,5.66,19.37,12.46,22.74Z"/><path class="cls-9" d="M281.21,299.33c1.74.43-.82-15.29.87-15.73,2-.54,8,14,9.36,12.41,3.59-4.08,4.89-11.1,2.93-18.28-2.72-10-20-22.36-20-22.36s-8.65,19.42-5.93,29.37C270.54,292.36,275.71,298,281.21,299.33Z"/><path class="cls-9" d="M188.45,312.93c7.51,2.55,15,1.41,19.2-2.4,1.31-1.19-13.11-7.83-12.56-9.46.65-2,16.1,1.19,15.5-.82-1.36-5.22-6.47-10.28-13.49-12.62-9.79-3.37-29.7,4-29.7,4s11.26,18,21,21.28Z"/><path class="cls-9" d="M139.38,293.23c7.5,2.56,15,1.42,19.2-2.39,1.25-1.2-13.11-7.84-12.57-9.52.66-2,16.05,1.25,15.51-.82-1.42-5.22-6.47-10.23-13.49-12.62-9.8-3.32-29.71,4-29.71,4s11.26,18,21.06,21.32Z"/><path class="cls-9" d="M187.85,391.7c.87-1.58-15-3-15-4.84,0-2.07,15.56-4.19,14.36-5.87-3-4.47-9.52-7.57-16.92-7.51-10.33,0-26.71,13.6-26.71,13.6s16.59,13.27,26.93,13.22c7.89-.06,14.58-3.65,17.3-8.6Z"/><path class="cls-9" d="M165.65,339.53c.87-1.52-15-3-15-4.79,0-2.07,15.56-4.19,14.36-5.87-3.05-4.52-9.46-7.57-16.92-7.51-10.33.05-26.71,13.6-26.71,13.6S138,348.23,148.3,348.13c7.89-.06,14.63-3.65,17.35-8.6Z"/><path class="cls-9" d="M204.39,273.7c1.74-.16-5.71-14.14-4.3-15.12,1.69-1.2,12.08,10.66,12.84,8.7,2.07-5,1-12.08-3.15-18.22-5.77-8.55-26.12-14.64-26.12-14.64s-1.85,21.16,4,29.71C192,270.65,198.73,274.25,204.39,273.7Z"/><path class="cls-9" d="M251.56,273.7c1.74-.16-5.71-14.14-4.3-15.12,1.69-1.2,12.08,10.66,12.84,8.7,2-5,1-12.08-3.16-18.22-5.76-8.55-26.11-14.64-26.11-14.64s-1.85,21.16,4,29.71C239.21,270.65,245.9,274.25,251.56,273.7Z"/><path class="cls-9" d="M297.15,301.83c-1.91,10.28,1.09,20,6.85,24.7,1.8,1.47,7.73-18.66,10-18.28,2.72.49,1.53,21.32,4.08,20.18,6.59-2.83,12.14-10.44,14-20.13,2.51-13.38-11-38.14-11-38.14s-21.44,18.23-23.94,31.67Z"/><path class="cls-9" d="M240.24,322.39c6.09,8.54,15.13,13.11,22.58,12.24,2.28-.27-8.11-18.55-6.2-19.91,2.23-1.58,16.37,13.71,17.35,11,2.5-6.7.87-16-4.84-24-7.89-11.1-35-18.55-35-18.55s-1.74,28.07,6.15,39.17Z"/><path class="cls-9" d="M213.42,377.23c13.44,1.52,25.62-3.21,31.17-11.1,1.74-2.39-24.75-8.27-24.48-11.2.38-3.54,27.26-3.92,25.63-7.13-4.25-8.16-14.58-14.69-27.26-16.1-17.46-2-48,17.62-48,17.62s25.52,25.9,43,27.91Z"/><path class="cls-9" d="M245.79,398c-2.88-5.55-9.9-9.95-18.5-10.93-11.91-1.36-32.69,12-32.69,12s17.3,17.57,29.21,18.93c9.14,1,17.41-2.17,21.16-7.56,1.2-1.63-16.81-5.6-16.64-7.61C228.65,400.46,246.93,400.24,245.79,398Z"/><path class="cls-10" d="M365.32,379.46c-13.77,8.05-21.87,21-21.66,32.43.06,3.53,29.22-9.63,31-6.64,2.12,3.64-23,22.9-19.15,24.75,9.8,4.74,24.1,3.59,37.05-3.91,17.9-10.5,33-50.55,33-50.55S383.27,369,365.32,379.46Z"/><path class="cls-10" d="M346.44,356.72c7.34,3.54,18.06,2.67,27.74-2.94,13.44-7.83,24.76-37.86,24.76-37.86s-31.67-4.9-45.16,2.94c-10.28,6-16.43,15.72-16.21,24.31.05,2.67,21.87-7.23,23.23-4.95C362.38,340.89,343.55,355.31,346.44,356.72Z"/><path class="cls-10" d="M305.36,394.37c5.55,2.72,13.66,2.07,21-2.23,10.12-5.93,18.66-28.62,18.66-28.62s-23.93-3.7-34.11,2.23c-7.78,4.57-12.4,11.92-12.24,18.34.06,2,16.54-5.44,17.52-3.76,1.25,2.07-13,13-10.83,14Z"/><path class="cls-10" d="M344.86,296.93c.65,1.91,14-10.34,15.5-9,1.8,1.58-8.37,16.33-6,16.65,6.09.87,13.66-2.23,19.26-8.59,7.83-8.76,8.92-32.92,8.92-32.92s-23.94,3.81-31.72,12.62c-6,6.7-8.1,15.13-6,21.22Z"/><path class="cls-10" d="M346.06,246.23c1.79,1.57-8.38,16.32-6,16.7,6.1.87,13.66-2.29,19.26-8.6,7.84-8.76,8.92-33,8.92-33s-23.93,3.87-31.71,12.63c-6,6.74-8.11,15.18-6,21.27.65,1.85,14-10.34,15.51-9Z"/><path class="cls-10" d="M295.08,253.08c2.39,1.2,3.81-23.07,6.42-23.17,3.21-.17,7.29,23.55,9.9,21.59,6.64-4.89,10.94-15,10.34-26.33-.71-15.72-22.31-39.93-22.31-39.93s-19.31,26.11-18.55,41.89c.55,12.08,6.48,22.14,14.2,26Z"/><path class="cls-10" d="M279.36,303.41c2,.49-.93-17.41,1-17.9,2.28-.66,9.08,15.94,10.66,14.14,4.08-4.68,5.55-12.62,3.37-20.84-3-11.31-22.74-25.51-22.74-25.51s-9.84,22.14-6.74,33.46c2.28,8.7,8.16,15.07,14.47,16.65Z"/><path class="cls-10" d="M173.6,318.91c8.54,2.94,17.08,1.58,21.92-2.72,1.47-1.36-15-8.92-14.31-10.83.77-2.23,18.34,1.36,17.68-.92-1.57-6-7.34-11.7-15.34-14.42-11.15-3.81-33.84,4.57-33.84,4.57S162.5,315.1,173.6,318.91Z"/><path class="cls-10" d="M117.72,296.44c8.55,2.89,17.09,1.58,21.93-2.77,1.47-1.36-15-8.93-14.31-10.83.76-2.23,18.34,1.42,17.68-.92-1.58-6-7.4-11.65-15.39-14.42-11.16-3.81-33.84,4.57-33.84,4.57S106.57,292.63,117.72,296.44Z"/><path class="cls-10" d="M173,408.62c1-1.79-17-3.48-17-5.49-.05-2.4,17.74-4.74,16.38-6.69-3.49-5.12-10.83-8.6-19.32-8.55-11.75.06-30.46,15.51-30.46,15.51s18.93,15.12,30.68,15.07C162.28,418.36,169.9,414.28,173,408.62Z"/><path class="cls-10" d="M147.65,349.21c1-1.74-17.09-3.48-17.09-5.44-.05-2.39,17.74-4.73,16.38-6.69-3.48-5.11-10.83-8.59-19.26-8.54-11.75.11-30.47,15.5-30.47,15.5s18.94,15.13,30.69,15c9-.11,16.65-4.19,19.75-9.85Z"/><path class="cls-10" d="M191.82,274.25c2-.17-6.53-16.11-4.89-17.25,1.95-1.36,13.76,12.13,14.63,9.9,2.34-5.71,1.14-13.76-3.59-20.78-6.58-9.74-29.76-16.7-29.76-16.7s-2.12,24.1,4.52,33.84C177.73,270.71,185.35,274.84,191.82,274.25Z"/><path class="cls-10" d="M245.52,274.25c2-.17-6.53-16.11-4.9-17.25,2-1.36,13.77,12.13,14.64,9.9,2.34-5.71,1.14-13.76-3.59-20.78-6.59-9.74-29.76-16.7-29.76-16.7s-2.12,24.1,4.51,33.84c5,7.45,12.68,11.58,19.1,11Z"/><path class="cls-10" d="M297.47,306.23c-2.17,11.76,1.26,22.75,7.84,28.13,2,1.69,8.81-21.27,11.37-20.84,3.05.6,1.74,24.27,4.68,23,7.45-3.21,13.82-11.92,15.88-23,2.89-15.23-12.51-43.42-12.51-43.42S300.36,291,297.47,306.23Z"/><path class="cls-10" d="M232.68,329.68c7,9.74,17.19,14.91,25.68,13.93,2.61-.27-9.25-21.16-7.07-22.69,2.5-1.79,18.66,15.62,19.8,12.63,2.88-7.62,1-18.23-5.5-27.37-9-12.62-39.87-21.16-39.87-21.16s-2.07,32,7,44.66Z"/><path class="cls-10" d="M202.1,392.14c15.29,1.68,29.16-3.65,35.53-12.62,2-2.78-28.24-9.42-27.85-12.79.43-4,31.06-4.46,29.16-8.1-4.85-9.31-16.6-16.71-31-18.34C188,338,153.2,360.42,153.2,360.42s29,29.49,48.9,31.72Z"/><path class="cls-10" d="M239,415.86c-3.26-6.37-11.26-11.32-21.05-12.46-13.55-1.52-37.22,13.71-37.22,13.71s19.64,20,33.24,21.54c10.4,1.2,19.81-2.45,24.16-8.59,1.36-1.85-19.2-6.42-18.93-8.71.21-2.72,21.05-3,19.8-5.49Z"/><path class="cls-1" d="M182,458.84c-.17,1.9-.39,3.75-.49,5.65-.33,10.4,1.74,20.46,4.78,30.31a70.3,70.3,0,0,0,5.23,13.49c2,3.59,4.4,7,6.58,10.55a10.61,10.61,0,0,1,.54,1.26,6.18,6.18,0,0,1-1.36,0,17.54,17.54,0,0,0-5.87-.11,3.11,3.11,0,0,0-2.72,3.7,6.66,6.66,0,0,0,2.55,4.35,20.63,20.63,0,0,0,8.33,4.08,16.86,16.86,0,0,0,2.83.76,44.14,44.14,0,0,0,5.38.33c1.09,0,1.53.21,1.47,1.47-.11,1.46-.38,2.93-.6,4.4-.21,1.31-.43,2.56-.65,3.86a2.61,2.61,0,0,0,.05.88c.33,2.72,2.51,3.1,4.3,2.12a4.33,4.33,0,0,0,2.12-2.18c.87-2,1.64-4.08,2.51-6.09.7-1.58,1.41-3.21,2.23-4.74a12,12,0,0,1,1.63-1.79,1.73,1.73,0,0,0-1.63.54,19.7,19.7,0,0,0-2,3.21c-.76,1.69-1.25,3.48-2,5.23a20.93,20.93,0,0,1-1.36,2.88,2.26,2.26,0,0,1-3.7.76,3,3,0,0,1-1.14-3.75,14,14,0,0,0,.76-6.15,26.22,26.22,0,0,0-1.31-3.86c-.7-2-2.5-3-3.64-4.57-1.58-2.13-3.27-4.19-4.84-6.31a96.83,96.83,0,0,1-8.76-14.53,76.47,76.47,0,0,1-4.9-13.27,133.45,133.45,0,0,1-3.92-17.74,69.71,69.71,0,0,1-.16-13,15.91,15.91,0,0,0,.06-1.69c-.11,0-.22-.05-.38-.05Z"/><path class="cls-1" d="M234.53,527.93c.38-.65.76-1.31,1.09-2a28.84,28.84,0,0,0,3.15-13.06,29.52,29.52,0,0,0-1.79-11,62.78,62.78,0,0,0-3.21-7.29,15.31,15.31,0,0,0-4.68-5.22,3.17,3.17,0,0,0-.87-.38,4.28,4.28,0,0,0,.32.65,34.48,34.48,0,0,1,7.68,15.61,39.8,39.8,0,0,1,1.25,8.71,35.79,35.79,0,0,1-.66,5.49,28.2,28.2,0,0,1-2.34,7.18,9.87,9.87,0,0,0-.32,1.15A2,2,0,0,1,234.53,527.93Z"/><path class="cls-1" d="M215.05,464.77a1.86,1.86,0,0,0-.54-.6c-1.2-.44-2.4-.87-3.65-1.2a12.09,12.09,0,0,0-9.57,1.36,7.48,7.48,0,0,0-1.47,1.2c-.33.32-.65.27-1.09.22a13.57,13.57,0,0,0-3.26-.28c-3.21.33-4.41,3.81-3.59,6.37a10.94,10.94,0,0,0,1.68,2.88,1.16,1.16,0,0,0,1.8.27,6.32,6.32,0,0,1-1.25-.7c-1.47-1.31-1.8-4.74-.66-6.37a3.92,3.92,0,0,1,5.39-1c.65.43,1,.43,1.52-.16,2.61-2.78,5.93-3.54,9.58-3a43.86,43.86,0,0,1,4.51,1.15c.17.05.38.05.55.1-.06-.1,0-.16.05-.21Z"/><path class="cls-1" d="M224.68,531.41l1.2.49c3.05,1.25,6.15,2.5,9.19,3.7,1.64.65,3.21,1.36,4.9,1.85a4.63,4.63,0,0,0,2.28,0,2.26,2.26,0,0,0,1.15-3.65,25.51,25.51,0,0,0-3.59-3.53,8.38,8.38,0,0,1-2.78-3.81c0-.11,0-.16-.05-.22l-.49-.49c-.11.22-.27.44-.22.66a6,6,0,0,0,1.9,3.64,32.81,32.81,0,0,1,2.51,2.23,9.17,9.17,0,0,1,1.57,2.23c.49,1,.06,1.69-1.08,1.74a5.38,5.38,0,0,1-1.64-.16c-3.26-.65-6.2-2.18-9.24-3.43-1.42-.54-2.83-1-4.3-1.47a4.77,4.77,0,0,0-1.25-.05.55.55,0,0,0-.06.27Z"/><path class="cls-1" d="M223.7,481.36c9.9,2.83,16.65,9.52,22.09,17.84-.27-.59-.43-1.25-.76-1.85a37.46,37.46,0,0,0-10.23-11.8,22.77,22.77,0,0,0-10-4.41c-.22-.05-.43-.05-.65-.11-.06,0-.17.06-.22.06a1,1,0,0,0-.22.27Z"/><path class="cls-1" d="M217.72,464.93a5,5,0,0,1,2.94.65,4.94,4.94,0,0,1,1.85,4.74c-.06.21-.11.54-.22.59-.87.49-.6,1.31-.6,2.07.05,1.25.11,2.5.05,3.76a8,8,0,0,1-2.44,5.33,8.92,8.92,0,0,0-1,1.14c.05.11.11.16.16.27a3.21,3.21,0,0,0,.71-.38,11.62,11.62,0,0,0,3.42-10.39,2.34,2.34,0,0,1,.33-1.58c.93-1.58.49-3.15-.27-4.68a3.91,3.91,0,0,0-3.21-2.39,1.79,1.79,0,0,0-1.74.87Z"/><path class="cls-1" d="M190.84,478.59A41.42,41.42,0,0,0,192,483a20.71,20.71,0,0,0,4.35,6.64,6.1,6.1,0,0,0,3.59,1.85,1.57,1.57,0,0,0,1.8-.6c-.87-.27-1.74-.43-2.56-.71-2-.7-3.05-2.44-4.24-4a21.3,21.3,0,0,1-3.48-6.64c-.11-.32-.28-.65-.44-1-.05.06-.16.06-.22.06Z"/><path class="cls-1" d="M196.61,467.27a6.22,6.22,0,0,0-1.41,4.24c.1,1.2.48,1.36,1.52.76.71-.38.76-1.14.43-1.9a7.57,7.57,0,0,1-.32-2.23,4.48,4.48,0,0,1,0-.87Z"/><path class="cls-1" d="M188.67,461.12c-1.69.76-1.15,7.45.54,9.47A19.76,19.76,0,0,1,188.67,461.12Z"/><path class="cls-1" d="M245.57,505.9c.66-1.58-1.19-6.42-2.66-6.86C243.83,501.38,244.7,503.61,245.57,505.9Z"/><path class="cls-1" d="M242.15,501.54c.59,1.47,1.19,3,1.85,4.52.76-1.14-.28-4.08-1.53-4.63A1.69,1.69,0,0,1,242.15,501.54Z"/><path class="cls-1" d="M184.7,456.55c-1.15.82-1.2,4-.22,4.79C184.53,459.82,184.64,458.24,184.7,456.55Z"/><path class="cls-1" d="M215.22,473.53c.76-1.2,1.85-1.09,3-.66,0-.7-.44-.81-.87-.92a2,2,0,0,0-2.29.65,2.43,2.43,0,0,0-.16.87.65.65,0,0,1,.33.06Z"/><path class="cls-1" d="M186.71,462.26c0-1.41-.06-2.61-.06-3.91C185.67,459.11,185.62,461.12,186.71,462.26Z"/><path class="cls-1" d="M242.58,506.66a2.48,2.48,0,0,0-.33-2.61c-.1-.17-.43-.22-.65-.28a2.9,2.9,0,0,0,0,.66c.27.7.65,1.47,1,2.23Z"/><path class="cls-1" d="M213.31,484.19a5.55,5.55,0,0,1-.54,1.74c-.22.27-.93.11-1.47.16h-.16c-.87.27-1.36,0-1.58-.92-.27-1.09-.76-2-2.07-2.07a1.87,1.87,0,0,1-.49-.16,2.53,2.53,0,0,1-1.2-2.89c.55,2.29,1.42,3,3.54,2.83a1.83,1.83,0,0,0,1.85-2.17c-.05-.44-.22-.6-.65-.71a3.23,3.23,0,0,1-1.58-.87,3.18,3.18,0,0,1-.44-2.94,2.74,2.74,0,0,1,3-1.69,3.27,3.27,0,0,1,2,2.56,2.72,2.72,0,0,1-1.9,3.05c.16,1.9.65,2.66,1.79,2.83s2.07-.66,2.88-2.56c.11,1.69-.92,2.88-2.88,3.21,0,.16,0,.38-.11.6Zm-3.81-.55c.22.6.44,1.26.71,1.91,1.09,0,1.25-.38,1.14-2.78C210.7,483.05,210.16,483.32,209.5,483.64Zm3.1,1.53c.66-1.31.49-1.8-.7-2.45-.11.92-.17,1.74-.33,3C212.06,485.44,212.5,485.39,212.6,485.17Zm-2.55-9.41c-1.09.16-1.31.65-.6,1.63C209.61,476.9,209.83,476.35,210.05,475.76Z"/><path class="cls-2" d="M211.3,482.72c-.6.27-1.2.54-1.85.87.22.6.43,1.25.71,1.9C211.24,485.55,211.41,485.11,211.3,482.72Z"/><path class="cls-2" d="M211.57,485.71c.49-.22.93-.32,1-.54.66-1.31.49-1.8-.7-2.45C211.79,483.59,211.68,484.46,211.57,485.71Z"/><path class="cls-2" d="M209.45,477.39c.16-.49.38-1,.6-1.63C209,475.92,208.74,476.41,209.45,477.39Z"/><path class="cls-1" d="M201.94,474.34c1.31-1.36,2.67-.38,4,0-.11-.87-.66-1.25-1.58-1.36C203,472.82,202.16,473.25,201.94,474.34Z"/><path class="cls-1" d="M205,542.67c-.93,1.58-.11,4.52,1.52,5.88,1.09.92,2.45,1.25,3.32.65C206.35,548.49,205.64,545.72,205,542.67Z"/><path class="cls-1" d="M203.74,547.24a2.81,2.81,0,0,0,1.41,2.89c.38.27.87.76,1.36.27C205.59,549.31,204.66,548.33,203.74,547.24Z"/><path class="cls-3" d="M199.77,522.43s-3.27,3.6-2.24,8"/><path class="cls-3" d="M202.87,524s-3.27,3.59-2.23,8"/><path class="cls-3" d="M196.66,519.88s-3.64,4.13-2.12,9.35"/><path class="cls-3" d="M189.65,523.58s4.62,5.76,14.69,7.34"/><path class="cls-3" d="M190.3,521.56s4.62,5.55,14.74,6.86"/><path class="cls-3" d="M192.53,520.31s3.75,4.41,11.53,5.5"/><path class="cls-3" d="M193.18,520.26a7.61,7.61,0,0,0-1.68,6.47"/><path class="cls-3" d="M205.21,525.26a7.62,7.62,0,0,0-1.69,6.48"/><path class="cls-11" d="M105.32,392.19s-10.72-6.31-8.38-18.33,15.67-11.86,17.52-2.12c0,0,2.34,13.05-7.89,20.45l1.2,1.2a2.8,2.8,0,0,1-1.91,1.2,3.67,3.67,0,0,1-2.06-.66Z"/><path class="cls-11" d="M105.81,394.53s-4.52,6.42-.65,12.13,6.09,6,6.2,8.71-5.44,3.64-5.77,7.4,5.55,3,5.77,5.82-7,3.32-6.86,7"/><ellipse class="cls-12" cx="108.69" cy="376.25" rx="5.06" ry="10.34"/><path class="cls-11" d="M53,258.85s-11.91-7-9.3-20.4,17.41-13.17,19.53-2.34c0,0,2.61,14.47-8.76,22.74l1.31,1.3a2.86,2.86,0,0,1-2.12,1.31,4,4,0,0,1-2.29-.76Z"/><path class="cls-11" d="M53.58,261.46s-5,7.18-.76,13.49,6.8,6.69,6.91,9.69-6,4.08-6.42,8.21,6.2,3.32,6.42,6.42S52,303,52.11,307.05"/><ellipse class="cls-13" cx="56.74" cy="241.17" rx="5.6" ry="11.53"/><path class="cls-14" d="M95.48,59.69c1-1.68,2.07-3.36,3.27-4.92.51-.66,2-.39,2.7.24.27.23.27.39.07.66a47.94,47.94,0,0,0-3.7,5.07,38.34,38.34,0,0,0,1.68,4.8c.11.31.07.46-.24.62-.85.39-2.38.2-2.65-.55-.54-1.44-1-3-1.37-4.44A1.75,1.75,0,0,1,95.48,59.69Zm4.76,0a58,58,0,0,1,3.24-4.92c.5-.66,2-.39,2.72.24.24.23.24.39,0,.66a54.33,54.33,0,0,0-3.7,5.07,46,46,0,0,0,1.68,4.8c.11.31.07.46-.24.62-.86.39-2.38.2-2.65-.55A43.73,43.73,0,0,1,100,61.17,1.64,1.64,0,0,1,100.24,59.69Z"/><path class="cls-14" d="M121.69,62.42a46.11,46.11,0,0,0,1.36-9.48c0-1.87-.23-3.39-.93-3.39-.24,0-.51.15-.82.54-2,2.38-2.5,6-2.77,8.93,0,.32,0,.55,0,.82a.18.18,0,0,1,0,.2c-.16.23-.59.31-1.13.31-1.45,0-2.38-.51-2.11-2a25.32,25.32,0,0,1,3.74-9.13,4,4,0,0,1,3.28-1.44c2,0,4.6,1.6,4.6,3,0,7.38-3,25.32-11.46,25.32-2.19,0-4.29-1.41-4.29-3.67C111.24,67.92,117.08,64.25,121.69,62.42Zm-2.46,7.37a40.79,40.79,0,0,0,2.07-5.89c-3.94,1.79-8.55,5-8.58,8.66a1.72,1.72,0,0,0,1.79,1.71C116.85,74.27,118.49,71.5,119.23,69.79Z"/><path class="cls-14" d="M132.37,57.23c1.49,0,4.1,2,4.1,3.7,0,3.63-4.25,6.44-7.26,6.44-.07,2.07.55,3.74,2.35,3.74,3.15,0,6-6.39,7.33-9.94.23-.66,1.25-.24,1,.43-1.4,3.82-4.52,11.35-8.93,11.35C121.53,73,126.8,57.23,132.37,57.23Zm-3.08,9.24c2.11,0,4.45-3.16,4.45-6.28,0-.82-.67-1.09-1.25-.62C130.93,60.74,129.6,63.82,129.29,66.47Z"/><path class="cls-14" d="M144.89,57.89a.69.69,0,0,1,.55-.5A5.14,5.14,0,0,1,148,58.52c.39.31,0,.82-.19,1.21a51.73,51.73,0,0,0-1.91,6.2c1.4-3,3.47-6.71,5.34-8.27a1,1,0,0,1,.74-.27,4.6,4.6,0,0,1,2.46,1c.23.31.15.51,0,.82a57.38,57.38,0,0,0-2.11,6.67c1.4-3,3.47-6.71,5.34-8.27a1.08,1.08,0,0,1,.74-.27c.59,0,2.66.7,2.66,1.44a1.86,1.86,0,0,1-.12.43,4.22,4.22,0,0,0-.43,1,64.22,64.22,0,0,0-2.77,10.3c-.11.58.16.66.59.27,2.34-2.38,4.13-6.94,5.14-9.59a.55.55,0,0,1,1,.39c-1,2.61-4.41,11.35-7.76,11.35a2.13,2.13,0,0,1-2.26-2.07,57.22,57.22,0,0,1,2.61-11.19c-2.58,2.8-5.89,10.18-6,12.83,0,.39-.27.43-.5.43-.94,0-2.46-1.06-2.46-1.88a48.25,48.25,0,0,1,2.57-11.34c-2.61,2.84-5.92,10.14-6.12,12.79,0,.39-.23.43-.47.43-.93,0-2.45-1.06-2.45-1.88A46.33,46.33,0,0,1,144.89,57.89Z"/><path class="cls-14" d="M169.77,49.94c-.62,2.8-2.18,3.78-3.86,3.78-.19,0-.19-.12-.08-.24a3.92,3.92,0,0,0,1.29-1.59c.08-.12.08-.24-.08-.24-2.1-.43-.93-4.6.39-4.56a2.76,2.76,0,0,1,2.07.7C170.12,48.42,169.93,49.16,169.77,49.94Z"/><path class="cls-14" d="M174.38,68.81a.72.72,0,0,0,0-.27c-1.13,2.38-2.61,4.41-4.36,4.41a2.48,2.48,0,0,1-2.58-2.42c-.5-4.25,1.68-11,5.54-13.07,1.21-.7,2.61.24,4,.94a2.35,2.35,0,0,0,.19-.51c.16-.31.35-.5.59-.5a5,5,0,0,1,2.49,1.13c.43.31,0,.82-.19,1.21a67.71,67.71,0,0,0-2.77,10.8c-.12.58.23.58.55.27,2.37-2.38,4-6.94,5-9.59a.54.54,0,0,1,1,.39c-1,2.61-4.25,11.35-7.61,11.35a2.37,2.37,0,0,1-2.14-2.66C174.26,69.79,174.3,69.32,174.38,68.81Zm1.83-8.27a6.41,6.41,0,0,1,.39-1,1.07,1.07,0,0,0-.94-.51c-2.69,0-4.76,6.71-5,10.07,0,.42-.12,1.83.51,1.83C173.05,70.92,175.62,62.38,176.21,60.54Z"/><path class="cls-14" d="M183.66,57.07c.78,0,3.39,1,3.39,1.64,0,.08,0,.12-.08.2a4.21,4.21,0,0,0-.47.62,17.79,17.79,0,0,0-1.32,3.35,37,37,0,0,1,2.61-4.13,3.73,3.73,0,0,1,2.57-1.83c1.68,0,3.2,2.1,3.2,3.39a16,16,0,0,1-2.22,7A13.91,13.91,0,0,0,196,61.17a.55.55,0,0,1,1,.43,15.42,15.42,0,0,1-7,7.8c-1.53,2.06-3.32,3.55-4.69,3.55a3.34,3.34,0,0,1-2.22-.74,72.86,72.86,0,0,0-1.17,9.59c0,.31-.12.47-.47.47-.93,0-2.57-.9-2.57-1.72C178.86,73.92,182,57.07,183.66,57.07Zm-.08,12.48c-.08.32-.12.59-.2.9a2.52,2.52,0,0,1,1-.31,9.4,9.4,0,0,0,2.22-.55,19.58,19.58,0,0,0,3.36-9.4c0-.74-.24-1.17-.59-1.13a.85.85,0,0,0-.62.35A27.85,27.85,0,0,0,183.58,69.55Z"/><path class="cls-14" d="M196.72,57.07c.78,0,3.39,1,3.39,1.64,0,.08,0,.12-.07.2a3.16,3.16,0,0,0-.47.62,17.08,17.08,0,0,0-1.33,3.35,38.49,38.49,0,0,1,2.61-4.13,3.75,3.75,0,0,1,2.58-1.83c1.68,0,3.2,2.1,3.2,3.39a16.16,16.16,0,0,1-2.22,7,14,14,0,0,0,4.64-6.12.55.55,0,0,1,1,.43,15.44,15.44,0,0,1-7,7.8c-1.52,2.06-3.32,3.55-4.68,3.55a3.32,3.32,0,0,1-2.22-.74A71.15,71.15,0,0,0,195,81.8c0,.31-.12.47-.47.47-.94,0-2.58-.9-2.58-1.72C191.92,73.92,195.08,57.07,196.72,57.07Zm-.08,12.48c-.07.32-.11.59-.19.9a2.43,2.43,0,0,1,1-.31,9.18,9.18,0,0,0,2.22-.55,19.48,19.48,0,0,0,3.36-9.4c0-.74-.23-1.17-.59-1.13a.87.87,0,0,0-.62.35A28,28,0,0,0,196.64,69.55Z"/><path class="cls-14" d="M212.59,57.23c1.48,0,4.1,2,4.1,3.7,0,3.63-4.25,6.44-7.26,6.44-.07,2.07.55,3.74,2.34,3.74,3.16,0,6-6.39,7.34-9.94.23-.66,1.24-.24,1,.43-1.4,3.82-4.52,11.35-8.93,11.35C201.75,73,207,57.23,212.59,57.23Zm-3.08,9.24c2.11,0,4.45-3.16,4.45-6.28,0-.82-.66-1.09-1.25-.62C211.15,60.74,209.82,63.82,209.51,66.47Z"/><path class="cls-14" d="M221.8,47.79c.74,0,3.39,1,3.39,1.6a.26.26,0,0,1-.08.19,4.67,4.67,0,0,0-.5.67c-2,3.51-4.49,14.43-5.19,19.93-.08.86.08,1,.66.43,2.26-2.42,4-6.83,4.95-9.4a.55.55,0,0,1,1,.39C225,64.21,221.64,73,218.29,73c-2.15,0-2.11-2.3-2-3.83C216.92,61.6,220.28,47.79,221.8,47.79Z"/><path class="cls-14" d="M227.57,47.79c.74,0,3.39,1,3.39,1.6a.26.26,0,0,1-.08.19,4.67,4.67,0,0,0-.5.67c-1.95,3.51-4.49,14.43-5.19,19.93-.08.86.08,1,.66.43,2.26-2.42,4-6.83,5-9.4a.54.54,0,1,1,1,.39c-1,2.61-4.41,11.35-7.76,11.35-2.15,0-2.11-2.3-2-3.83C222.69,61.6,226.05,47.79,227.57,47.79Z"/><path class="cls-14" d="M234.39,57.23c1.49,0,4.1,2,4.1,3.7,0,3.63-4.25,6.44-7.26,6.44-.07,2.07.55,3.74,2.34,3.74,3.16,0,6-6.39,7.34-9.94.23-.66,1.25-.24,1,.43C240.48,65.42,237.36,73,233,73,223.55,73,228.82,57.23,234.39,57.23Zm-3.08,9.24c2.11,0,4.45-3.16,4.45-6.28,0-.82-.67-1.09-1.25-.62C233,60.74,231.62,63.82,231.31,66.47Z"/><path class="cls-14" d="M252.57,70.49c0-.7-.08-1.48-.08-2.34a34.08,34.08,0,0,1-2.11,2.92c-.86,1.14-1.64,1.88-2.61,1.88-1.68,0-3.55-1.68-3.63-2.46A53.6,53.6,0,0,1,245.23,57c1-5.07,2.62-9.24,3.48-9.24.7,0,3.35,1,3.31,1.6,0,.19-.39.43-.58.86-2.5,5.11-3.59,12.44-3.83,18,0,1.28.12,2.06,1.17.46a71.46,71.46,0,0,0,4.14-7,47.67,47.67,0,0,1,2.81-11.42,1.31,1.31,0,0,1,1.28-.94c1.84,0,3.4,1.29,3.08,2.5a53.06,53.06,0,0,1-3.19,8.3,70.74,70.74,0,0,0-.86,8.08c0,1.28.12,2.06,1.17.46,4-5.88,8-14,8.85-20.67,0-.43-.08-.82,0-.93.31-.51,3.16.35,3.67.78.23.19.11,1.17-.28,2.61a62.33,62.33,0,0,1-10.18,20.67A4.18,4.18,0,0,1,256.19,73C254.52,73,252.65,71.27,252.57,70.49Z"/><path class="cls-14" d="M266,68.81a49.43,49.43,0,0,1,3-10.92c.15-.31.34-.5.58-.5a5.08,5.08,0,0,1,2.5,1.13c.42.31,0,.82-.16,1.21a64.54,64.54,0,0,0-3,10.8c-.12.58.23.58.54.27,2.38-2.38,4.17-6.94,5.19-9.59a.54.54,0,0,1,1,.39c-1,2.61-4.4,11.35-7.76,11.35a2.37,2.37,0,0,1-2.14-2.66C265.86,69.79,265.9,69.32,266,68.81Zm7-19.54a7.11,7.11,0,0,1,2.3,1.06c.59.39.59.89.16,1.59-.7,1.18-2.81,4.33-3.75,4.37-2.22.08-.15-5,.36-5.93C272.42,49.66,272.73,49.27,273,49.27Z"/><path class="cls-14" d="M277.21,47.79c.74,0,3.4,1,3.4,1.6a.26.26,0,0,1-.08.19,4.74,4.74,0,0,0-.51.67c-1.95,3.51-4.48,14.43-5.19,19.93-.07.86.08,1,.67.43,2.26-2.42,4-6.83,4.95-9.4a.54.54,0,1,1,1,.39c-1,2.61-4.4,11.35-7.76,11.35-2.14,0-2.1-2.3-2-3.83C272.34,61.6,275.69,47.79,277.21,47.79Z"/><path class="cls-14" d="M287.7,61.17a.55.55,0,0,1,1,.43,9.37,9.37,0,0,1-6.36,4.64,29.48,29.48,0,0,1-.27,12.4,6.86,6.86,0,0,1-1.41,3,2.14,2.14,0,0,1-1.87.67c-.93,0-2.57-.59-2.57-1.44a28.67,28.67,0,0,1,.23-3.32,105.6,105.6,0,0,1,4.92-22.82c.62-1.71,1.17-2.77,1.6-2.77.74,0,3.39,1,3.39,1.6a.31.31,0,0,1-.08.2,4.14,4.14,0,0,0-.51.66c-1.09,2-2.38,6.36-3.43,10.77A8,8,0,0,0,287.7,61.17ZM280.88,79a25.45,25.45,0,0,0,.74-10.41c-.66,3.35-1.25,6.79-1.6,10.22-.12,1.21-.08,1.83.08,1.83S280.76,79.3,280.88,79Z"/><path class="cls-14" d="M287.55,57.89a.68.68,0,0,1,.54-.5,5.06,5.06,0,0,1,2.54,1.13c.39.31,0,.82-.2,1.21a55.64,55.64,0,0,0-1.91,6.2c1.41-3,3.47-6.71,5.35-8.27a1,1,0,0,1,.74-.27,4.79,4.79,0,0,1,2.42,1c.5.51.19.9-.24,1.21a6.77,6.77,0,0,0-2.07,4.44c0,1,.32,1.41.75,1.41,1.63,0,3.19-3.12,3.94-4.37a.55.55,0,0,1,.93.59c-.86,1.4-2.5,4.44-4.37,5.1-1.32.51-3.78-.7-4-2.41a9.25,9.25,0,0,1,1.06-4.18c.15-.35,0-.27-.12-.07-2.53,3-5.54,9.86-5.73,12.4,0,.39-.24.43-.47.43-.94,0-2.46-1.06-2.46-1.88A46.35,46.35,0,0,1,287.55,57.89Z"/><path class="cls-14" d="M296.56,68.81a48.89,48.89,0,0,1,3-10.92c.16-.31.35-.5.59-.5a5,5,0,0,1,2.49,1.13c.43.31,0,.82-.15,1.21a65.61,65.61,0,0,0-3,10.8c-.12.58.23.58.55.27,2.38-2.38,4.17-6.94,5.18-9.59a.55.55,0,0,1,1,.39c-1,2.61-4.41,11.35-7.76,11.35a2.37,2.37,0,0,1-2.15-2.66C296.44,69.79,296.48,69.32,296.56,68.81Zm7-19.54a7.11,7.11,0,0,1,2.3,1.06c.58.39.58.89.15,1.59-.7,1.18-2.8,4.33-3.74,4.37-2.22.08-.16-5,.35-5.93C303,49.66,303.3,49.27,303.58,49.27Z"/><path class="cls-14" d="M308.84,57.23c1.48,0,4.1,2,4.1,3.7,0,3.63-4.25,6.44-7.26,6.44-.07,2.07.55,3.74,2.34,3.74,3.16,0,6-6.39,7.34-9.94.23-.66,1.24-.24,1,.43C314.93,65.42,311.81,73,307.4,73,298,73,303.26,57.23,308.84,57.23Zm-3.08,9.24c2.11,0,4.45-3.16,4.45-6.28,0-.82-.67-1.09-1.25-.62C307.4,60.74,306.07,63.82,305.76,66.47Z"/><path class="cls-14" d="M319.88,68.5c-1.09,2.34-2.61,4.45-4.53,4.45s-2.76-1.49-2.84-3.16c-.2-4.21,1.67-10.38,5.3-12.33,1.25-.7,2.73.28,3.82.82,1.21-5.57,2.77-10.49,3.67-10.49s3.43,1,3.43,1.6a.2.2,0,0,1-.11.19,3.85,3.85,0,0,0-.47.67c-1.95,3.51-4.49,14.43-5.19,19.93-.12.86.08,1,.62.43,2.27-2.42,4-6.83,5-9.4a.54.54,0,0,1,1,.39c-1,2.61-4.41,11.35-7.76,11.35-2.18,0-2.11-2.3-2-3.83C319.84,68.93,319.88,68.73,319.88,68.5Zm-4.06.16c-.11,1.32.2,2.14.78,2.14.39,0,.9-.39,1.45-1.25a24.92,24.92,0,0,0,2.41-5.3c.24-1.48.55-3,.86-4.6a1,1,0,0,0-.86-.63C317.89,59,316.17,65.22,315.82,68.66Z"/><path class="cls-14" d="M334.39,57.89a.68.68,0,0,1,.54-.5,5.22,5.22,0,0,1,2.54,1.13c.39.31,0,.82-.2,1.21a55.64,55.64,0,0,0-1.91,6.2c1.4-3,3.47-6.71,5.34-8.27a1,1,0,0,1,.74-.27,4.57,4.57,0,0,1,2.46,1c.24.31.16.51,0,.82a57.38,57.38,0,0,0-2.11,6.67c1.41-3,3.48-6.71,5.35-8.27a1.06,1.06,0,0,1,.74-.27c.58,0,2.65.7,2.65,1.44a1.86,1.86,0,0,1-.12.43,4.19,4.19,0,0,0-.42,1,63.18,63.18,0,0,0-2.77,10.3c-.12.58.15.66.58.27,2.34-2.38,4.14-6.94,5.15-9.59a.54.54,0,1,1,1,.39C353,64.21,349.6,73,346.24,73A2.13,2.13,0,0,1,344,70.88a57.22,57.22,0,0,1,2.61-11.19c-2.57,2.8-5.89,10.18-6,12.83,0,.39-.28.43-.51.43-.94,0-2.46-1.06-2.46-1.88a48.28,48.28,0,0,1,2.58-11.34c-2.61,2.84-5.93,10.14-6.13,12.79,0,.39-.23.43-.46.43-.94,0-2.46-1.06-2.46-1.88A46.35,46.35,0,0,1,334.39,57.89Z"/><path class="cls-14" d="M356.93,68.81a.55.55,0,0,0,0-.27c-1.13,2.38-2.62,4.41-4.37,4.41A2.48,2.48,0,0,1,350,70.53c-.5-4.25,1.68-11,5.54-13.07,1.21-.7,2.62.24,4,.94a1.63,1.63,0,0,0,.19-.51c.16-.31.36-.5.59-.5a5.08,5.08,0,0,1,2.5,1.13c.43.31,0,.82-.2,1.21a67.71,67.71,0,0,0-2.77,10.8c-.12.58.24.58.55.27,2.38-2.38,4-6.94,5-9.59a.54.54,0,0,1,1,.39c-1,2.61-4.25,11.35-7.6,11.35a2.38,2.38,0,0,1-2.15-2.66C356.81,69.79,356.85,69.32,356.93,68.81Zm1.83-8.27a7.56,7.56,0,0,1,.39-1,1.05,1.05,0,0,0-.93-.51c-2.7,0-4.76,6.71-5,10.07,0,.42-.11,1.83.51,1.83C355.6,70.92,358.18,62.38,358.76,60.54Z"/><path class="cls-14" d="M362.62,68.81a50,50,0,0,1,3-10.92c.16-.31.36-.5.59-.5a5.08,5.08,0,0,1,2.5,1.13c.42.31,0,.82-.16,1.21a65.61,65.61,0,0,0-3,10.8c-.11.58.24.58.55.27,2.38-2.38,4.17-6.94,5.19-9.59a.54.54,0,0,1,1,.39c-1,2.61-4.41,11.35-7.76,11.35a2.37,2.37,0,0,1-2.14-2.66C362.5,69.79,362.54,69.32,362.62,68.81Zm7-19.54a7.11,7.11,0,0,1,2.3,1.06c.59.39.59.89.16,1.59-.7,1.18-2.81,4.33-3.75,4.37-2.22.08-.15-5,.36-5.93C369.06,49.66,369.37,49.27,369.64,49.27Z"/><path class="cls-14" d="M367.92,69.55a3.34,3.34,0,0,1,2.7-1.44c.85-.12,1.75-.12,2.49-.27-.35-2.34-3-3.79-3-6.79a4.09,4.09,0,0,1,4.29-4c1.4,0,3.2,2,3.2,3.4,0,.82-.86,2.26-1.41,2.26-.85,0-2.06-.59-2.06-1a.24.24,0,0,1,.07-.15c.67,0,1.21-1.06,1.21-1.8,0-.46-.19-.85-.62-.85-1,0-1.4,1.67-1.4,2.37,0,2.07,2.1,3.55,2.92,5.31a9.12,9.12,0,0,0,4.17-5.42c.2-.67,1.21-.31,1,.35a10.05,10.05,0,0,1-4.84,6.12c.47,3.43-3.23,5.5-6.24,5.5C367.89,73.18,366.91,71.11,367.92,69.55Zm2.11-.27a1.18,1.18,0,1,0,.66,2.22A4.11,4.11,0,0,0,373.07,69C372.25,69.16,370.93,69.05,370,69.28Z"/><path class="cls-14" d="M88.26,103.81a.55.55,0,0,0,0-.27c-1.13,2.38-2.61,4.41-4.36,4.41a2.48,2.48,0,0,1-2.58-2.42c-.51-4.25,1.68-11,5.54-13.07,1.21-.7,2.61.24,4,.94a2.35,2.35,0,0,0,.19-.51c.16-.31.35-.5.59-.5a5,5,0,0,1,2.49,1.13c.43.31,0,.82-.19,1.21a67.71,67.71,0,0,0-2.77,10.8c-.12.58.23.58.54.27,2.38-2.38,4-6.94,5-9.59a.54.54,0,0,1,1,.39c-1,2.61-4.25,11.35-7.6,11.35a2.37,2.37,0,0,1-2.15-2.66C88.15,104.79,88.19,104.32,88.26,103.81Zm1.84-8.27a7.56,7.56,0,0,1,.39-1,1.07,1.07,0,0,0-.94-.51c-2.69,0-4.76,6.71-5,10.07,0,.42-.12,1.83.51,1.83C86.94,105.92,89.51,97.38,90.1,95.54Z"/><path class="cls-14" d="M97.55,92.07c.78,0,3.39,1,3.39,1.64,0,.08,0,.12-.08.2a4.21,4.21,0,0,0-.47.62,17.14,17.14,0,0,0-1.32,3.35,37,37,0,0,1,2.61-4.13,3.73,3.73,0,0,1,2.57-1.83c1.68,0,3.2,2.1,3.2,3.39a16,16,0,0,1-2.22,7,13.91,13.91,0,0,0,4.64-6.12.55.55,0,0,1,1,.43,15.46,15.46,0,0,1-7,7.8c-1.52,2.06-3.31,3.55-4.68,3.55a3.34,3.34,0,0,1-2.22-.74,72.86,72.86,0,0,0-1.17,9.59c0,.31-.12.47-.47.47-.93,0-2.57-.9-2.57-1.72C92.75,108.92,95.91,92.07,97.55,92.07Zm-.08,12.48c-.08.32-.12.59-.2.9a2.47,2.47,0,0,1,1-.31,9.4,9.4,0,0,0,2.22-.55,19.47,19.47,0,0,0,3.35-9.4c0-.74-.23-1.17-.58-1.13a.85.85,0,0,0-.62.35A27.85,27.85,0,0,0,97.47,104.55Z"/><path class="cls-14" d="M110.61,92.07c.78,0,3.39,1,3.39,1.64a.4.4,0,0,1-.07.2,3.16,3.16,0,0,0-.47.62,17.08,17.08,0,0,0-1.33,3.35,38.49,38.49,0,0,1,2.61-4.13,3.73,3.73,0,0,1,2.58-1.83c1.67,0,3.2,2.1,3.2,3.39a16,16,0,0,1-2.23,7,13.84,13.84,0,0,0,4.64-6.12.55.55,0,0,1,1,.43,15.44,15.44,0,0,1-7,7.8c-1.52,2.06-3.32,3.55-4.68,3.55a3.32,3.32,0,0,1-2.22-.74,71.15,71.15,0,0,0-1.17,9.59c0,.31-.12.47-.47.47-.94,0-2.58-.9-2.58-1.72C105.81,108.92,109,92.07,110.61,92.07Zm-.08,12.48c-.08.32-.12.59-.19.9a2.43,2.43,0,0,1,1-.31,9.29,9.29,0,0,0,2.22-.55,19.48,19.48,0,0,0,3.36-9.4c0-.74-.24-1.17-.59-1.13a.87.87,0,0,0-.62.35A27.85,27.85,0,0,0,110.53,104.55Z"/><path class="cls-14" d="M126.48,92.23c1.49,0,4.1,2,4.1,3.7,0,3.63-4.25,6.44-7.26,6.44-.07,2.07.55,3.74,2.34,3.74,3.16,0,6-6.39,7.34-9.94.23-.66,1.24-.24,1,.43-1.4,3.82-4.52,11.35-8.93,11.35C115.64,108,120.91,92.23,126.48,92.23Zm-3.08,9.24c2.11,0,4.45-3.16,4.45-6.28,0-.82-.67-1.09-1.25-.62C125,95.74,123.71,98.82,123.4,101.47Z"/><path class="cls-14" d="M135.69,82.79c.74,0,3.39,1,3.39,1.6a.26.26,0,0,1-.08.19,5.63,5.63,0,0,0-.51.67c-1.94,3.51-4.48,14.43-5.18,19.93-.08.86.08,1,.66.43,2.26-2.42,4-6.83,4.95-9.4a.55.55,0,0,1,1,.39c-1,2.61-4.41,11.35-7.76,11.35-2.15,0-2.11-2.3-2-3.83C130.81,96.6,134.17,82.79,135.69,82.79Z"/><path class="cls-14" d="M141.46,82.79c.74,0,3.39,1,3.39,1.6a.26.26,0,0,1-.08.19,4.67,4.67,0,0,0-.5.67c-2,3.51-4.49,14.43-5.19,19.93-.08.86.08,1,.66.43,2.26-2.42,4-6.83,5-9.4a.54.54,0,1,1,1,.39C144.7,99.21,141.3,108,138,108c-2.15,0-2.11-2.3-2-3.83C136.58,96.6,139.94,82.79,141.46,82.79Z"/><path class="cls-14" d="M148.28,92.23c1.48,0,4.1,2,4.1,3.7,0,3.63-4.25,6.44-7.26,6.44-.07,2.07.55,3.74,2.34,3.74,3.16,0,6-6.39,7.34-9.94.23-.66,1.24-.24,1,.43-1.4,3.82-4.52,11.35-8.93,11.35C137.44,108,142.71,92.23,148.28,92.23Zm-3.08,9.24c2.11,0,4.45-3.16,4.45-6.28,0-.82-.66-1.09-1.25-.62C146.84,95.74,145.51,98.82,145.2,101.47Z"/><path class="cls-14" d="M157.37,96a9.28,9.28,0,0,1-.35-1.71c0-.39.15-.39.35-.31a5.5,5.5,0,0,0,1.83.11c2.38-.11,5-.31,7.33-.23.79,0,1.45,1.44,1.33,2.38,0,.35-.2.43-.51.39a77,77,0,0,0-8.58.31A1.2,1.2,0,0,1,157.37,96Z"/><path class="cls-14" d="M171.72,92.89a.69.69,0,0,1,.55-.5,5.14,5.14,0,0,1,2.53,1.13c.39.31,0,.82-.19,1.21a53.62,53.62,0,0,0-1.91,6.2c1.4-3,3.47-6.71,5.34-8.27a1,1,0,0,1,.74-.27,4.6,4.6,0,0,1,2.46,1c.23.31.15.51,0,.82a55.52,55.52,0,0,0-2.11,6.67c1.4-3,3.47-6.71,5.34-8.27a1.08,1.08,0,0,1,.74-.27c.59,0,2.66.7,2.66,1.44a1.86,1.86,0,0,1-.12.43,4.22,4.22,0,0,0-.43,1,64.22,64.22,0,0,0-2.77,10.3c-.12.58.16.66.59.27,2.34-2.38,4.13-6.94,5.14-9.59a.55.55,0,0,1,1,.39c-1,2.61-4.41,11.35-7.76,11.35a2.13,2.13,0,0,1-2.26-2.07,57.22,57.22,0,0,1,2.61-11.19c-2.58,2.8-5.89,10.18-6.05,12.83,0,.39-.27.43-.5.43-.94,0-2.46-1.06-2.46-1.88a48.25,48.25,0,0,1,2.57-11.34c-2.61,2.84-5.92,10.14-6.12,12.79,0,.39-.23.43-.47.43-.93,0-2.46-1.06-2.46-1.88A46.68,46.68,0,0,1,171.72,92.89Z"/><path class="cls-14" d="M195.32,92.89c2.41,0,4.44,1.68,4.44,3.43a14.39,14.39,0,0,1-1.13,5.46,14.86,14.86,0,0,0,4-5.61.55.55,0,0,1,1,.43,15.38,15.38,0,0,1-6.08,7.25c-1.44,2.38-3.51,4.1-5.81,4.1-2.81,0-4.49-2.81-4.49-4.84,0-3.86,2-8.93,5.27-10.65A2.88,2.88,0,0,1,195.32,92.89Zm-3.94,12.25a9.69,9.69,0,0,0,2.26-.51,17.28,17.28,0,0,0,2.5-8.31c0-2.57-1.41-2.73-2.81-1.2-2.23,2.45-3.32,8-2.34,10.1A1.08,1.08,0,0,1,191.38,105.14Z"/><path class="cls-14" d="M199.8,103.81a50,50,0,0,1,3-10.92c.16-.31.36-.5.59-.5a5.08,5.08,0,0,1,2.5,1.13c.42.31,0,.82-.16,1.21a65.61,65.61,0,0,0-3,10.8c-.11.58.24.58.55.27,2.38-2.38,4.17-6.94,5.19-9.59a.54.54,0,0,1,1,.39c-1,2.61-4.41,11.35-7.76,11.35a2.37,2.37,0,0,1-2.14-2.66C199.68,104.79,199.72,104.32,199.8,103.81Zm7-19.54a7.11,7.11,0,0,1,2.3,1.06c.59.39.59.89.16,1.59-.7,1.18-2.81,4.33-3.75,4.37-2.22.08-.15-5,.36-5.93C206.24,84.66,206.55,84.27,206.82,84.27Z"/><path class="cls-14" d="M229.75,85.4c0,.35-.19.43-.51.43a45.37,45.37,0,0,0-7.6.32c1,.46.74.7.31,1.56a19.4,19.4,0,0,0-1,2.53c-1.84,6-3.47,14.47-3.47,17.24a.42.42,0,0,1-.47.47c-1,0-2.58-.86-2.58-1.72a68.56,68.56,0,0,1,1.8-12.52,51.3,51.3,0,0,1,2-7.17c-3.67.5-5.74.77-7.45,1.48a1.73,1.73,0,0,0-.66.39c-.08,0-.16.07-.2,0-.59,0-1.25-2.7-1.17-3.44,0-.31.62-.62,1.64-.85a58.79,58.79,0,0,1,18-1.37C229.21,82.83,229.83,84.51,229.75,85.4Z"/><path class="cls-14" d="M229.83,103.81a2.3,2.3,0,0,0,.08-.27c-1.17,2.38-2.61,4.41-4.37,4.41a2.9,2.9,0,0,1-2.77-2.66c.08-.5.12-1,.2-1.48a46.85,46.85,0,0,1,3-10.92c.16-.31.35-.5.58-.5a5,5,0,0,1,2.5,1.13c.39.31,0,.82-.2,1.21a66.77,66.77,0,0,0-2.72,9.78c-.2.9.07,1.41.5,1.41,1.87,0,4.6-8.54,5.23-10.38.31-.93.62-1.83,1-2.65.16-.31.39-.5.59-.5a5,5,0,0,1,2.49,1.13c.43.31,0,.82-.15,1.21a65.61,65.61,0,0,0-3,10.8c-.11.58.24.58.59.27,2.34-2.38,4.13-6.94,5.15-9.59a.54.54,0,0,1,1,.39c-1,2.61-4.41,11.35-7.76,11.35a2.39,2.39,0,0,1-2.14-2.66C229.71,104.79,229.79,104.32,229.83,103.81Z"/><path class="cls-14" d="M242,92.23c1.83,0,3.74,1.68,3.74,3.35,0,2.11-1.13,4.41-2,4.41a3.73,3.73,0,0,1-2.14-1.21c-.27-.31-.12-.7.31-.93a4.41,4.41,0,0,0,1.79-2.23c.4-1,.2-1.56-.31-1.56-3.27,0-7,12-2.18,12,3.47,0,5.89-6.43,7.33-9.94a.54.54,0,0,1,1,.43C248,100.26,245.24,108,240.56,108,231.16,108,236.69,92.23,242,92.23Z"/><path class="cls-14" d="M254.36,94.69A26.74,26.74,0,0,0,248.43,106a8.68,8.68,0,0,0-.15,1.44c0,.31-.12.47-.47.47-.94,0-2.57-.86-2.57-1.72,0-6.86,3.93-23.44,5.57-23.44.78,0,3.4,1,3.4,1.6a.26.26,0,0,1-.08.19,2.71,2.71,0,0,0-.47.67c-1.52,2.69-3.32,9.71-4.41,15.29a24,24,0,0,1,5.66-7.88,1.06,1.06,0,0,1,.74-.27c.58,0,2.65.7,2.65,1.44a1.86,1.86,0,0,1-.12.43,8.61,8.61,0,0,0-.43,1,68.59,68.59,0,0,0-2.76,10.3c-.08.58.15.66.58.27,2.34-2.38,4.13-6.94,5.19-9.59a.52.52,0,1,1,1,.39c-1,2.61-4.41,11.35-7.76,11.35a2.35,2.35,0,0,1-2.11-2.66A46.91,46.91,0,0,1,254.36,94.69Z"/><path class="cls-14" d="M264.31,92.23c1.48,0,4.09,2,4.09,3.7,0,3.63-4.25,6.44-7.25,6.44-.08,2.07.54,3.74,2.34,3.74,3.16,0,6-6.39,7.33-9.94.23-.66,1.25-.24,1,.43-1.4,3.82-4.52,11.35-8.93,11.35C253.46,108,258.73,92.23,264.31,92.23Zm-3.09,9.24c2.11,0,4.45-3.16,4.45-6.28,0-.82-.66-1.09-1.25-.62C262.86,95.74,261.54,98.82,261.22,101.47Z"/><path class="cls-14" d="M278,106.78a2.09,2.09,0,0,0,1.76,1.17c6.51,0,12.52-23.13,7-23.13-2.3,0-3.94,3.78-4.72,5.62a108.64,108.64,0,0,0-5.38,17c-.08.31-.12.51-.59.51-.94,0-2.57-.86-2.57-1.72,0-6.59,3.94-23.44,5.57-23.44.79,0,3.4,1,3.4,1.6a.26.26,0,0,1-.08.19,2.71,2.71,0,0,0-.47.67c-1.29,2.26-2.77,7.6-3.86,12.56C279,95,280,92.31,281,90c1.09-2.54,3-7.18,6.47-7.18,10.53,0,2.77,26.91-7.14,26.91a3,3,0,0,1-2.73-1.6C277.14,107.32,277.64,106.07,278,106.78Z"/><path class="cls-14" d="M298.31,103.81a.55.55,0,0,0,0-.27c-1.13,2.38-2.61,4.41-4.37,4.41a2.47,2.47,0,0,1-2.57-2.42c-.51-4.25,1.68-11,5.54-13.07,1.21-.7,2.61.24,4,.94a2.35,2.35,0,0,0,.19-.51c.16-.31.35-.5.58-.5a5,5,0,0,1,2.5,1.13c.43.31,0,.82-.19,1.21a66.66,66.66,0,0,0-2.77,10.8c-.12.58.23.58.54.27,2.38-2.38,4-6.94,5-9.59a.55.55,0,0,1,1,.39c-1,2.61-4.25,11.35-7.61,11.35a2.37,2.37,0,0,1-2.14-2.66C298.2,104.79,298.24,104.32,298.31,103.81Zm1.84-8.27a6.41,6.41,0,0,1,.39-1,1.07,1.07,0,0,0-.94-.51c-2.69,0-4.76,6.71-5,10.07,0,.42-.12,1.83.5,1.83C297,105.92,299.56,97.38,300.15,95.54Z"/><path class="cls-14" d="M311.18,103.5c-1.09,2.34-2.61,4.45-4.52,4.45s-2.77-1.49-2.85-3.16c-.19-4.21,1.68-10.38,5.3-12.33,1.25-.7,2.73.28,3.83.82,1.21-5.57,2.77-10.49,3.66-10.49s3.44,1,3.44,1.6a.2.2,0,0,1-.12.19,4.48,4.48,0,0,0-.47.67c-1.95,3.51-4.48,14.43-5.19,19.93-.11.86.08,1,.63.43,2.26-2.42,4-6.83,5-9.4a.54.54,0,0,1,1,.39c-1,2.61-4.4,11.35-7.76,11.35-2.18,0-2.1-2.3-2-3.83C311.14,103.93,311.18,103.73,311.18,103.5Zm-4.05.16c-.12,1.32.19,2.14.78,2.14.39,0,.89-.39,1.44-1.25a24.91,24.91,0,0,0,2.42-5.3c.23-1.48.54-3,.86-4.6a1,1,0,0,0-.86-.63C309.19,94,307.48,100.22,307.13,103.66Z"/><path class="cls-14" d="M324.21,103.5c-1.09,2.34-2.62,4.45-4.53,4.45s-2.77-1.49-2.84-3.16c-.2-4.21,1.67-10.38,5.3-12.33,1.25-.7,2.73.28,3.82.82,1.21-5.57,2.77-10.49,3.67-10.49s3.43,1,3.43,1.6a.2.2,0,0,1-.12.19,4.42,4.42,0,0,0-.46.67c-2,3.51-4.49,14.43-5.19,19.93-.12.86.08,1,.62.43,2.27-2.42,4-6.83,5-9.4a.54.54,0,0,1,1,.39c-1,2.61-4.41,11.35-7.76,11.35-2.18,0-2.11-2.3-2-3.83C324.17,103.93,324.21,103.73,324.21,103.5Zm-4.06.16c-.11,1.32.2,2.14.78,2.14.39,0,.9-.39,1.45-1.25a24.92,24.92,0,0,0,2.41-5.3c.24-1.48.55-3,.86-4.6a1,1,0,0,0-.86-.63C322.22,94,320.5,100.22,320.15,103.66Z"/><path class="cls-14" d="M340.78,92.39a5.22,5.22,0,0,1,2.54,1.13c.23.19.15.5,0,.78a7,7,0,0,0-.39,1c-.82,2.73-1.56,5.62-2.11,8l-.08.35a20,20,0,0,0,5.19-7.45.52.52,0,1,1,1,.35,21.35,21.35,0,0,1-6.59,8.89,61.2,61.2,0,0,1-2.15,7.49c-.9,2.57-2.18,4.33-5.26,4.33a3.08,3.08,0,0,1-2.5-1.25c-1.13-1.56-.47-3.78.7-5.15,1.44-1.64,3.67-2.69,5.34-3.86.28-1.13.51-2.26.78-3.43-1.13,2.38-2.57,4.37-4.32,4.37a2.89,2.89,0,0,1-2.77-2.66c.07-.5.15-1,.19-1.48a49.43,49.43,0,0,1,3-10.92c.16-.31.39-.5.59-.5a5,5,0,0,1,2.49,1.13c.43.31,0,.82-.15,1.21a67.16,67.16,0,0,0-2.77,9.78c-.2.9.08,1.41.55,1.41,1.67,0,4.09-6.87,5-9.6,0-.19.11-.39.15-.58a19.77,19.77,0,0,1,1-2.85A.68.68,0,0,1,340.78,92.39Zm-6.28,21c.47-1.37,1-3,1.49-4.76-1.76,1.21-4.8,2.85-4.65,5.34,0,.66.47,1.45,1.21,1.45S334,114.81,334.5,113.41Z"/><path class="cls-14" d="M355,92.23c1.83,0,3.74,1.68,3.74,3.35,0,2.11-1.13,4.41-2,4.41a3.73,3.73,0,0,1-2.14-1.21c-.27-.31-.12-.7.31-.93a4.41,4.41,0,0,0,1.79-2.23c.39-1,.2-1.56-.31-1.56-3.27,0-7,12-2.18,12,3.47,0,5.89-6.43,7.33-9.94a.53.53,0,0,1,1,.43C361,100.26,358.25,108,353.57,108,344.17,108,349.71,92.23,355,92.23Z"/><path class="cls-14" d="M367.38,84.94c-.63,2.8-2.18,3.78-3.86,3.78-.2,0-.2-.12-.08-.24a4,4,0,0,0,1.29-1.59c.08-.12.08-.24-.08-.24-2.11-.43-.94-4.6.39-4.56a2.76,2.76,0,0,1,2.07.7C367.73,83.42,367.54,84.16,367.38,84.94Z"/><path class="cls-14" d="M371.63,92.23c1.48,0,4.1,2,4.1,3.7,0,3.63-4.25,6.44-7.26,6.44-.08,2.07.55,3.74,2.34,3.74,3.16,0,6-6.39,7.33-9.94.24-.66,1.25-.24,1,.43-1.4,3.82-4.53,11.35-8.93,11.35C360.79,108,366.05,92.23,371.63,92.23Zm-3.08,9.24c2.11,0,4.44-3.16,4.44-6.28,0-.82-.66-1.09-1.24-.62C370.19,95.74,368.86,98.82,368.55,101.47Z"/><path class="cls-14" d="M374.91,104.55a3.31,3.31,0,0,1,2.69-1.44c.86-.12,1.75-.12,2.49-.27-.35-2.34-3-3.79-3-6.79a4.09,4.09,0,0,1,4.29-4c1.4,0,3.2,2,3.2,3.4,0,.82-.86,2.26-1.4,2.26-.86,0-2.07-.59-2.07-1a.2.2,0,0,1,.08-.15c.66,0,1.21-1.06,1.21-1.8,0-.46-.2-.85-.63-.85-1,0-1.4,1.67-1.4,2.37,0,2.07,2.1,3.55,2.92,5.31a9.13,9.13,0,0,0,4.18-5.42c.19-.67,1.21-.31,1,.35a10,10,0,0,1-4.84,6.12c.47,3.43-3.23,5.5-6.24,5.5C374.87,108.18,373.89,106.11,374.91,104.55Zm2.1-.27a1.18,1.18,0,1,0,.66,2.22,4.11,4.11,0,0,0,2.38-2.53C379.24,104.16,377.91,104.05,377,104.28Z"/><path class="cls-14" d="M392.22,88.13c-.15.39-.27.78-.39,1.17a6.46,6.46,0,0,1,2.93.47c.23.12.47,1.17.47,1.56,0,.24,0,.35-.16.43H395a12,12,0,0,0-3.74-.43,111.7,111.7,0,0,0-3.12,13.85c-.08.86.08,1,.62.43a34.19,34.19,0,0,0,5.62-9.4.54.54,0,0,1,1,.39c-1,2.61-5.22,11.35-8.38,11.35-2.19,0-2.11-2.3-2-3.83a90.23,90.23,0,0,1,2.38-12.67h-.86c-.74,0-2.46,0-2.85-1-.12-.32,0-.47.35-.47a31.58,31.58,0,0,0,3.79-.31,23.26,23.26,0,0,1,.89-3c.39-.94.78-1.44,1.13-1.44.78,0,3.16,1,3.16,1.6,0,.07,0,.11-.11.19s-.08.12-.12.16A2.51,2.51,0,0,0,392.22,88.13Z"/><path class="cls-14" d="M181.2,127.07c.78,0,3.39,1,3.39,1.64,0,.08,0,.12-.08.2a3.56,3.56,0,0,0-.46.62,17.08,17.08,0,0,0-1.33,3.35,38.49,38.49,0,0,1,2.61-4.13,3.73,3.73,0,0,1,2.58-1.83c1.67,0,3.19,2.1,3.19,3.39a16,16,0,0,1-2.22,7,13.84,13.84,0,0,0,4.64-6.12.55.55,0,0,1,1,.43,15.44,15.44,0,0,1-7,7.8c-1.53,2.06-3.32,3.55-4.68,3.55a3.35,3.35,0,0,1-2.23-.74,72.86,72.86,0,0,0-1.17,9.59c0,.31-.11.47-.46.47-.94,0-2.58-.9-2.58-1.72C176.4,143.92,179.56,127.07,181.2,127.07Zm-.08,12.48c-.08.32-.12.59-.2.9a2.52,2.52,0,0,1,1-.31,9.4,9.4,0,0,0,2.22-.55,19.48,19.48,0,0,0,3.36-9.4c0-.74-.24-1.17-.59-1.13a.87.87,0,0,0-.62.35A27.85,27.85,0,0,0,181.12,139.55Z"/><path class="cls-14" d="M196,117.79c.74,0,3.39,1,3.39,1.6a.26.26,0,0,1-.08.19,4.67,4.67,0,0,0-.5.67c-2,3.51-4.49,14.43-5.19,19.93-.08.86.08,1,.66.43,2.26-2.42,4-6.83,4.95-9.4a.55.55,0,0,1,1,.39c-1,2.61-4.41,11.35-7.76,11.35-2.15,0-2.11-2.3-2-3.83C191.14,131.6,194.5,117.79,196,117.79Z"/><path class="cls-14" d="M203.31,138.81a2.3,2.3,0,0,0,.08-.27c-1.17,2.38-2.61,4.41-4.37,4.41a2.9,2.9,0,0,1-2.77-2.66c.08-.5.12-1,.2-1.48a46.85,46.85,0,0,1,3-10.92c.16-.31.35-.5.58-.5a5,5,0,0,1,2.5,1.13c.39.31,0,.82-.2,1.21a66.77,66.77,0,0,0-2.72,9.78c-.2.9.07,1.41.5,1.41,1.88,0,4.6-8.54,5.23-10.38.31-.93.62-1.83,1-2.65.16-.31.39-.5.59-.5a5.08,5.08,0,0,1,2.5,1.13c.42.31,0,.82-.16,1.21a65.61,65.61,0,0,0-3,10.8c-.11.58.24.58.59.27,2.34-2.38,4.13-6.94,5.15-9.59a.54.54,0,0,1,1,.39c-1,2.61-4.41,11.35-7.76,11.35a2.39,2.39,0,0,1-2.14-2.66C203.19,139.79,203.27,139.32,203.31,138.81Z"/><path class="cls-14" d="M208.57,139.55a3.34,3.34,0,0,1,2.7-1.44c.85-.12,1.75-.12,2.49-.27-.35-2.34-3-3.79-3-6.79a4.09,4.09,0,0,1,4.29-4c1.4,0,3.2,2,3.2,3.4,0,.82-.86,2.26-1.41,2.26-.85,0-2.06-.59-2.06-1a.2.2,0,0,1,.08-.15c.66,0,1.2-1.06,1.2-1.8,0-.46-.19-.85-.62-.85-1,0-1.4,1.67-1.4,2.37,0,2.07,2.1,3.55,2.92,5.31a9.08,9.08,0,0,0,4.17-5.42c.2-.67,1.21-.31,1,.35a10.05,10.05,0,0,1-4.84,6.12c.47,3.43-3.23,5.5-6.24,5.5C208.54,143.18,207.56,141.11,208.57,139.55Zm2.11-.27a1.18,1.18,0,1,0,.66,2.22,4.11,4.11,0,0,0,2.38-2.53C212.91,139.16,211.58,139.05,210.68,139.28Z"/><path class="cls-14" d="M230.18,127.23c1.83,0,3.74,1.68,3.74,3.35,0,2.11-1.13,4.41-2,4.41a3.75,3.75,0,0,1-2.15-1.21c-.27-.31-.12-.7.31-.93a4.42,4.42,0,0,0,1.8-2.23c.39-1,.19-1.56-.31-1.56-3.28,0-7,12.05-2.19,12.05,3.47,0,5.89-6.43,7.33-9.94a.54.54,0,0,1,1,.43c-1.48,3.66-4.25,11.35-8.93,11.35C219.34,143,224.88,127.23,230.18,127.23Z"/><path class="cls-14" d="M241.45,127.89c2.42,0,4.45,1.68,4.45,3.43a14.39,14.39,0,0,1-1.13,5.46,14.83,14.83,0,0,0,4-5.61.55.55,0,0,1,1,.43,15.4,15.4,0,0,1-6.09,7.25c-1.44,2.38-3.51,4.1-5.81,4.1-2.81,0-4.48-2.81-4.48-4.84,0-3.86,2-8.93,5.26-10.65A2.88,2.88,0,0,1,241.45,127.89Zm-3.94,12.25a9.57,9.57,0,0,0,2.26-.51,17.17,17.17,0,0,0,2.5-8.31c0-2.57-1.4-2.73-2.81-1.2-2.22,2.45-3.31,8-2.34,10.1A1.18,1.18,0,0,1,237.51,140.14Z"/><path class="cls-14" d="M252.8,138.81a2.3,2.3,0,0,0,.08-.27c-1.17,2.38-2.61,4.41-4.37,4.41a2.9,2.9,0,0,1-2.77-2.66c.08-.5.12-1,.2-1.48a46.85,46.85,0,0,1,3-10.92c.16-.31.35-.5.58-.5a5,5,0,0,1,2.5,1.13c.39.31,0,.82-.2,1.21a66.77,66.77,0,0,0-2.72,9.78c-.2.9.07,1.41.5,1.41,1.88,0,4.6-8.54,5.23-10.38.31-.93.62-1.83,1-2.65.16-.31.39-.5.59-.5a5.08,5.08,0,0,1,2.5,1.13c.42.31,0,.82-.16,1.21a65.61,65.61,0,0,0-3,10.8c-.11.58.24.58.59.27,2.34-2.38,4.13-6.94,5.15-9.59a.54.54,0,0,1,1,.39c-1,2.61-4.41,11.35-7.76,11.35a2.39,2.39,0,0,1-2.14-2.66C252.68,139.79,252.76,139.32,252.8,138.81Z"/><path class="cls-14" d="M261.69,127.89a.69.69,0,0,1,.55-.5,5,5,0,0,1,2.53,1.13c.39.31,0,.82-.19,1.21a53.62,53.62,0,0,0-1.91,6.2c1.4-3,3.47-6.71,5.34-8.27a1,1,0,0,1,.74-.27,4.79,4.79,0,0,1,2.42,1c.51.51.19.9-.23,1.21a6.72,6.72,0,0,0-2.07,4.44c0,1,.31,1.41.74,1.41,1.64,0,3.2-3.12,3.94-4.37a.56.56,0,0,1,.94.59c-.86,1.4-2.5,4.44-4.37,5.1-1.33.51-3.79-.7-4-2.41a9.24,9.24,0,0,1,1.05-4.18c.16-.35,0-.27-.12-.07-2.53,3-5.53,9.86-5.73,12.4,0,.39-.23.43-.47.43-.93,0-2.45-1.06-2.45-1.88A46.33,46.33,0,0,1,261.69,127.89Z"/><path class="cls-14" d="M278.34,123.13c-.15.39-.27.78-.38,1.17a6.41,6.41,0,0,1,2.92.47c.23.12.47,1.17.47,1.56,0,.24,0,.35-.16.43h-.12a12,12,0,0,0-3.74-.43,111.7,111.7,0,0,0-3.12,13.85c-.08.86.08,1,.62.43a33.7,33.7,0,0,0,5.62-9.4.55.55,0,0,1,1,.39c-1,2.61-5.23,11.35-8.39,11.35-2.18,0-2.11-2.3-2-3.83a91.7,91.7,0,0,1,2.38-12.67h-.86c-.74,0-2.45,0-2.85-1-.11-.32,0-.47.36-.47a31.58,31.58,0,0,0,3.78-.31,23.28,23.28,0,0,1,.9-3c.39-.94.78-1.44,1.13-1.44.78,0,3.16,1,3.16,1.6,0,.07,0,.11-.12.19s-.08.12-.12.16A2.51,2.51,0,0,0,278.34,123.13Z"/><path class="cls-14" d="M289.15,131a55.28,55.28,0,0,1-3.28,5c-.47.66-2,.39-2.69-.24-.27-.23-.23-.39,0-.66a54.43,54.43,0,0,0,3.71-5.07,47.6,47.6,0,0,0-1.68-4.8c-.12-.31-.12-.47.23-.62.86-.39,2.34-.2,2.66.54.54,1.45.93,3,1.36,4.45A1.63,1.63,0,0,1,289.15,131Zm4.72,0a54.94,54.94,0,0,1-3.24,5c-.51.66-2,.39-2.73-.24-.24-.23-.24-.39,0-.66a54.43,54.43,0,0,0,3.71-5.07,47.6,47.6,0,0,0-1.68-4.8c-.12-.31-.08-.47.23-.62.86-.39,2.38-.2,2.65.54a44.71,44.71,0,0,1,1.37,4.45A1.63,1.63,0,0,1,293.87,131Z"/><path class="cls-14" d="M195.84,152.79c.74,0,3.4,1,3.4,1.6a.26.26,0,0,1-.08.19,4.74,4.74,0,0,0-.51.67c-2.26,4.05-5.69,20.51-5.81,24.61a43.13,43.13,0,0,1,8-.94c.94,0,1.53.12,1.64.39.31.67.63,2.89.16,3.12h-.2a3.18,3.18,0,0,0-.66-.19,28.14,28.14,0,0,0-13.1,1.36c-1.17.51-1.14-1.91-.24-2.3a16.47,16.47,0,0,1,2.81-1c-.78-.31-1.48-.9-1.48-1.45C189.8,172.21,194.16,152.79,195.84,152.79Z"/><path class="cls-14" d="M207,162.23c1.49,0,4.1,2,4.1,3.7,0,3.63-4.25,6.44-7.25,6.44-.08,2.07.54,3.74,2.34,3.74,3.16,0,6-6.39,7.33-9.94.23-.66,1.25-.24,1,.43-1.4,3.82-4.52,11.35-8.93,11.35C196.15,178,201.42,162.23,207,162.23Zm-3.08,9.24c2.11,0,4.45-3.16,4.45-6.28,0-.82-.66-1.09-1.25-.62C205.55,165.74,204.23,168.82,203.91,171.47Z"/><path class="cls-14" d="M210.27,174.55a3.33,3.33,0,0,1,2.69-1.44c.86-.12,1.76-.12,2.5-.27-.35-2.34-3-3.79-3-6.79a4.09,4.09,0,0,1,4.29-4c1.4,0,3.2,2,3.2,3.4,0,.82-.86,2.26-1.41,2.26-.86,0-2.07-.59-2.07-1a.2.2,0,0,1,.08-.15c.66,0,1.21-1.06,1.21-1.8,0-.46-.19-.85-.62-.85-1,0-1.41,1.67-1.41,2.37,0,2.07,2.11,3.55,2.93,5.31a9.15,9.15,0,0,0,4.17-5.42c.2-.67,1.21-.31,1,.35a10.05,10.05,0,0,1-4.84,6.12c.47,3.43-3.24,5.5-6.24,5.5C210.23,178.18,209.26,176.11,210.27,174.55Zm2.11-.27a1.18,1.18,0,1,0,.66,2.22,4.13,4.13,0,0,0,2.38-2.53C214.6,174.16,213.27,174.05,212.38,174.28Z"/><path class="cls-14" d="M244,155.4c0,.35-.2.43-.51.43a45.44,45.44,0,0,0-7.61.32c1,.46.75.7.32,1.56a18,18,0,0,0-1,2.53c-1.83,6-3.47,14.47-3.47,17.24a.42.42,0,0,1-.47.47c-1,0-2.57-.86-2.57-1.72a69.31,69.31,0,0,1,1.79-12.52,52.7,52.7,0,0,1,2-7.17c-3.67.5-5.73.77-7.45,1.48a1.81,1.81,0,0,0-.66.39c-.08,0-.16.07-.2,0-.58,0-1.24-2.7-1.17-3.44,0-.31.63-.62,1.64-.85a58.79,58.79,0,0,1,18-1.37C243.46,152.83,244.08,154.51,244,155.4Z"/><path class="cls-14" d="M244.08,173.81a2.3,2.3,0,0,0,.08-.27c-1.17,2.38-2.61,4.41-4.37,4.41a2.91,2.91,0,0,1-2.77-2.66c.08-.5.12-1,.2-1.48a47.85,47.85,0,0,1,3-10.92c.16-.31.35-.5.59-.5a5,5,0,0,1,2.49,1.13c.39.31,0,.82-.19,1.21a66.85,66.85,0,0,0-2.73,9.78c-.2.9.08,1.41.51,1.41,1.87,0,4.6-8.54,5.22-10.38.31-.93.63-1.83,1-2.65a.78.78,0,0,1,.58-.5,5.08,5.08,0,0,1,2.5,1.13c.43.31,0,.82-.16,1.21a66.51,66.51,0,0,0-3,10.8c-.12.58.23.58.58.27,2.34-2.38,4.14-6.94,5.15-9.59a.55.55,0,0,1,1,.39c-1,2.61-4.41,11.35-7.77,11.35a2.4,2.4,0,0,1-2.14-2.66A14.6,14.6,0,0,0,244.08,173.81Z"/><path class="cls-14" d="M256.25,162.23c1.83,0,3.75,1.68,3.75,3.35,0,2.11-1.14,4.41-2,4.41a3.75,3.75,0,0,1-2.15-1.21c-.27-.31-.11-.7.32-.93a4.46,4.46,0,0,0,1.79-2.23c.39-1,.19-1.56-.31-1.56-3.28,0-7,12.05-2.19,12.05,3.47,0,5.89-6.43,7.33-9.94a.54.54,0,0,1,1,.43c-1.48,3.66-4.25,11.35-8.93,11.35C245.41,178,251,162.23,256.25,162.23Z"/><path class="cls-14" d="M268.61,164.69A26.82,26.82,0,0,0,262.69,176a8.7,8.7,0,0,0-.16,1.44c0,.31-.12.47-.47.47-.93,0-2.57-.86-2.57-1.72,0-6.86,3.94-23.44,5.58-23.44.78,0,3.39,1,3.39,1.6a.26.26,0,0,1-.08.19,3,3,0,0,0-.47.67c-1.52,2.69-3.31,9.71-4.4,15.29a24.08,24.08,0,0,1,5.65-7.88,1.08,1.08,0,0,1,.74-.27c.59,0,2.65.7,2.65,1.44a1.82,1.82,0,0,1-.11.43,7.12,7.12,0,0,0-.43,1,68.71,68.71,0,0,0-2.77,10.3c-.08.58.16.66.58.27,2.34-2.38,4.14-6.94,5.19-9.59a.53.53,0,1,1,1,.39c-1,2.61-4.41,11.35-7.76,11.35a2.34,2.34,0,0,1-2.11-2.66A46.88,46.88,0,0,1,268.61,164.69Z"/><path class="cls-14" d="M278.56,162.23c1.48,0,4.1,2,4.1,3.7,0,3.63-4.26,6.44-7.26,6.44-.08,2.07.55,3.74,2.34,3.74,3.16,0,6-6.39,7.33-9.94.24-.66,1.25-.24,1,.43-1.41,3.82-4.53,11.35-8.93,11.35C267.72,178,273,162.23,278.56,162.23Zm-3.08,9.24c2.1,0,4.44-3.16,4.44-6.28,0-.82-.66-1.09-1.24-.62C277.12,165.74,275.79,168.82,275.48,171.47Z"/></svg>