<svg id="Calque_1" data-name="Calque 1" xmlns="http://www.w3.org/2000/svg" viewBox="0 0 485.5 628.38"><defs><style>.cls-1,.cls-11,.cls-12,.cls-13,.cls-16,.cls-4,.cls-7,.cls-9{fill:none;}.cls-1,.cls-12,.cls-13,.cls-4{stroke:#626262;}.cls-1,.cls-11,.cls-12,.cls-13,.cls-16,.cls-9{stroke-miterlimit:10;}.cls-2{fill:#5eb676;opacity:0.67;}.cls-14,.cls-17,.cls-19,.cls-2,.cls-3,.cls-8,.cls-9{isolation:isolate;}.cls-3{fill:#ff6679;}.cls-14,.cls-3,.cls-8{opacity:0.48;}.cls-4,.cls-7{stroke-linecap:round;stroke-linejoin:round;}.cls-5{fill:#626262;}.cls-6{fill:#fff;}.cls-16,.cls-7{stroke:#fff;}.cls-13,.cls-7{stroke-width:0.5px;}.cls-8{fill:#bfbbbb;}.cls-9{stroke:#00a6c4;stroke-width:5px;opacity:0.46;}.cls-10{fill:#616161;}.cls-11{stroke:#616161;}.cls-12{stroke-width:0.25px;}.cls-14{fill:#f09587;}.cls-15{fill:#e2e2e2;}.cls-16{stroke-width:0.1px;}.cls-18{fill:#565656;}.cls-19{fill:#00a6c4;opacity:0.93;}</style></defs><title>etape 1</title><ellipse class="cls-1" cx="457.78" cy="473.97" rx="27.19" ry="8.47"/><path class="cls-1" d="M454.88,474s7.81-18.69-4.48-42c-7.27-13.21-8.62-30.9-3.41-46" transform="translate(0 0)"/><path class="cls-1" d="M469.62,472.1s-1.88-99.43,3.86-112.39c5.48-12.46,8.89-.62,9.16,4.11s-1.44,10.72-4.4,5a27.92,27.92,0,0,1-3.14-11.34" transform="translate(0 0)"/><path class="cls-1" d="M445.86,364.82s-3.68-6.85-10.14,2.37-5.21,16.07-5.21,16.07c1.17-4.36,4.31-7.22,7.63-7,6-.13,9.78-3,7.72-11.47Z" transform="translate(0 0)"/><path class="cls-1" d="M452.18,389.12s-5.84,1.25-6.2-9.47c0,0,.54-8.6,6-3C452,376.66,455.41,381.27,452.18,389.12Z" transform="translate(0 0)"/><path class="cls-1" d="M464.51,390.61s-9.6-6.48-11.4,7.35,7.63,5.49,7.63,5.49-.54-12.09,3.77-12.84" transform="translate(0 0)"/><path class="cls-1" d="M443.83,409.18s9.52-6.48,11.31,7.35-7.63,5.48-7.63,5.48.63-12.08-3.68-12.83" transform="translate(0 0)"/><path class="cls-1" d="M473.67,407.56s-5.83,1.25-6.19-9.47c0,0,.54-8.6,6-3C473.49,395.1,476.9,399.71,473.67,407.56Z" transform="translate(0 0)"/><path class="cls-1" d="M430.6,474l8.68,63.92s19.32,17.82,39.33,0L485,474" transform="translate(0 0)"/><path class="cls-2" d="M464.68,401.33a9.37,9.37,0,0,0,1-6.48c-.81-3.86-3.68-6.1-6.46-5.11-4.85,1.62-12,8.35-9.6,16.32,1.52,4.49,5.3,6.36,8.52,4.37a8.66,8.66,0,0,0,3.41-4.49c0-.12.09-.25.09-.37A6.44,6.44,0,0,0,464.68,401.33Z" transform="translate(0 0)"/><path class="cls-2" d="M480.66,356.6a2.91,2.91,0,0,0-3.14-1c-1.88.75-3,3.49-2.51,6.11.81,4.48,4,11.33,8,9,2.15-1.37,3.14-5,2.06-8a6.55,6.55,0,0,0-2.15-3.24l-.18-.12A4.32,4.32,0,0,0,480.66,356.6Z" transform="translate(0 0)"/><path class="cls-2" d="M475.37,399.46a2.91,2.91,0,0,0-3.14-1c-1.89.75-3,3.49-2.52,6.11.81,4.48,4,11.33,8,9,2.16-1.37,3.14-5,2.07-8a6.56,6.56,0,0,0-2.16-3.24h-.18a4.87,4.87,0,0,0-2.06-2.86Z" transform="translate(0 0)"/><path class="cls-2" d="M446,373.67a8.26,8.26,0,0,0,1.16-6.73c-1.34-4.24-4.66-6.48-7.8-5.23-5.84,1.74-14.54,8.6-11.58,16.94,1.7,4.86,6.46,6.48,10.32,4.49a9.6,9.6,0,0,0,4.13-4.61c0-.13.09-.25.09-.38A7.43,7.43,0,0,0,446,373.67Z" transform="translate(0 0)"/><path class="cls-2" d="M451.38,409.3a2.9,2.9,0,0,0-3.14-1c-1.88.75-3,3.49-2.51,6.11.81,4.49,4,11.34,8,9.1,2.15-1.37,3.14-5,2.06-8.1a5.67,5.67,0,0,0-2.15-3.12l-.18-.12A4.59,4.59,0,0,0,451.38,409.3Z" transform="translate(0 0)"/><path class="cls-1" d="M285.69,511.35l95.23,20.81,22.53-166.59L307.5,357.1Z" transform="translate(0 0)"/><path class="cls-1" d="M285.69,511.35l6.27,3.86L387,538.14l22-162.35-5.56-10.22" transform="translate(0 0)"/><path class="cls-3" d="M377.51,390.12c1-4.49,1.25-9.35-.63-13.46-2.34-5-6.55-6-10.5-7.1a128.59,128.59,0,0,0-33.48-4.86,100.41,100.41,0,0,0-16.16.88c-4,.62-6.91,3.36-8.25,8.72-.27,1.12-.54,2.37-.81,3.49-2.51,7-2.07,17.32-2.51,24.3v.5c-.18,1.37-.27,2.74-.36,4.11-.9,8.1-2.16,18.19,2.15,23.92,4.94,6.36,13.82,5,19.93,5.36l1.8.12a194.92,194.92,0,0,0,28,4.74c6,.62,14.27,2.74,17.32-4.74a5.54,5.54,0,0,0,1.88-4.36l1.44-40.37c.09-.62.18-1,.18-1.24Z" transform="translate(0 0)"/><path class="cls-4" d="M137.86,441.83,285.69,459.4" transform="translate(0 0)"/><path class="cls-4" d="M403.45,473.85,426,476.47" transform="translate(0 0)"/><path class="cls-5" d="M298.43,462.76c.54-.62,3-1.62,3.23-1,0,.13.09.13.09.25v1c.36,3.74,2.79,11.46,5,17.69-1.17-4.23-2.16-8.72-2.87-12.58a41.75,41.75,0,0,1-.72-8.35,6.19,6.19,0,0,1,1.43-3.86c4.13-4.36,8.35,7.72,6.47,14.95a3.63,3.63,0,0,1,2.69,1c3.14,3,4.94,12,.72,16.45a2.6,2.6,0,0,1-2.78,1c-.81-.25-1.26-1.75-.54-1.5a1.86,1.86,0,0,0,1.8-.5c3.14-3.37-.72-15.95-3-13.58a4.64,4.64,0,0,1-1.52,1.5,1.17,1.17,0,0,1-1.17-.75,3.41,3.41,0,0,1,.9-2c1.62-5.23-1-16.07-3.23-13.7-.81.87-.81,4.23.09,8.84a169,169,0,0,0,5.38,20.81.74.74,0,0,1-.26,1c-.63.75-2.25,1.12-2.79.25-3.77-6.1-10.14-25.66-9-26.91Z" transform="translate(0 0)"/><path class="cls-5" d="M322.49,469.86c0-.12-.09-.12-.09-.25.53,3.24.53,6.23-.72,7.6-1.08,1.12-2.25.87-3.14-.37-2.7-3.74-4.85-12.09-3.23-16.95.44-1.62,2-1.74,3.32-2.12a1.76,1.76,0,0,0-.18-.62,1.23,1.23,0,0,1,.18-1,2.92,2.92,0,0,1,2.33-.74c.45,0,.45.87.54,1.37a98.76,98.76,0,0,0,3.95,12.7c.27.63.45.38.54-.12.35-4.11-1-9.84-1.71-13.21-.18-.87.72-1.24.9-.37.72,3.36,3.14,14.33.81,16.82-1,1-2.34.37-3-1a7.21,7.21,0,0,0-.53-1.75Zm-3.23-9.47c-.09-.37-.18-.87-.27-1.24a.68.68,0,0,0-.9.25c-1.89,2,.27,10.21,2,13.58.18.5.9,1.87,1.35,1.37,1.26-1.5-1.53-11.72-2.15-14Z" transform="translate(0 0)"/><path class="cls-5" d="M319.26,440.46c.53-.63,3-1.62,3.23-1,0,.12.09.12.09.25v1c.27,3.11,2.06,9.22,3.95,14.7-.18-1.62-.45-3.24-.54-4.86s.09-3.37.8-4.11c1.17-1.25,3.42-.25,4.13,1a23.83,23.83,0,0,1,2.34,8.47,22.56,22.56,0,0,0-.09-9.47c-.18-.87.8-1.25,1-.37a25.31,25.31,0,0,1-.71,12.95c0,3.24-.45,6-1.44,7.1-.27.38-.9.38-1.26.38.09.25.45.62,0,1-.63.75-2.24,1.12-2.78.25C324.46,461.14,318.09,441.7,319.26,440.46Zm8.34,15.2a34,34,0,0,0,2.16,8.35,21.91,21.91,0,0,0,1.52-2.5,32.29,32.29,0,0,0-2.87-11.58c-.63-1.25-1.35-1-1.26.5a32.78,32.78,0,0,0,.45,5.23Z" transform="translate(0 0)"/><path class="cls-5" d="M337.21,436.22a3,3,0,0,1,2.42-.75c.27,0,.36.38.45.75s.18.87.27,1.25c.9,3.24,2,6.72,2.87,9.46l.18.38a34.1,34.1,0,0,0-.36-11.22c-.18-.87.72-1.24.9-.37a37.18,37.18,0,0,1,.18,13.71,89.36,89.36,0,0,1,2.6,9c.81,3.24.81,5.85-1.35,8.22a2,2,0,0,1-2.42.62c-1.62-.62-2.42-3.36-2.33-5.6.09-2.74,1.07-5.36,1.7-7.85-.45-1.37-.9-2.62-1.34-4,.54,3.24.54,6.23-.72,7.6a2.09,2.09,0,0,1-2.95.12,2.13,2.13,0,0,1-.46-.62c-.18-.5-.45-1.12-.63-1.62a79.1,79.1,0,0,1-3.86-13,1.26,1.26,0,0,1,.18-1,2.93,2.93,0,0,1,2.33-.75c.45,0,.45.88.54,1.25a97.4,97.4,0,0,0,3.41,11.71c.36,1,.81,1.37,1.17,1,1.17-1.24-.81-9.84-1.7-13.2-.09-.25-.09-.5-.18-.75a22.29,22.29,0,0,1-.81-3.62A.59.59,0,0,1,337.21,436.22Zm7,25.29c-.45-1.74-1-3.74-1.53-5.73-.54,2.49-1.79,6.36-.36,8.72.36.63,1.08,1,1.62.5s.72-1.74.27-3.49Z" transform="translate(0 0)"/><path class="cls-5" d="M345.19,446.56a5.75,5.75,0,0,1,1.08-3.49c.54-.74,1.17-1.5,1.62-2.12-1.53-2-4.22-1.37-5.84-4.36a6.32,6.32,0,0,1,.9-7.1c1-1.12,3.32-.5,4.13.88.45.74.63,2.86.27,3.24-.63.62-1.8,1-2,.62V434a3,3,0,0,0-.09-2.62c-.27-.5-.63-.74-.9-.37-.72.75-.09,2.74.27,3.36,1.16,2,3.41,1.87,4.93,3a15.07,15.07,0,0,0,0-8.47c-.18-.75.72-1.25.9-.37a16.49,16.49,0,0,1-.09,9.59c2.16,3,.72,7.85-1.43,10.09C347.17,450.17,345.37,448.93,345.19,446.56Zm1.35-1.87c-1,1.75.72,3.62,1.71,1.62a7,7,0,0,0,.27-4.23c-.45.87-1.44,1.74-2,2.61Z" transform="translate(0 0)"/><path class="cls-5" d="M353.54,412.05c.1.46.22.92.36,1.37a6.33,6.33,0,0,1,2.34-1.75c.26,0,1,.88,1.16,1.25a2.3,2.3,0,0,1,.18.5s-.09,0-.09.12a12.11,12.11,0,0,0-3,2.37,157.37,157.37,0,0,0,5.39,15.95c.44,1,.62,1,.71-.12a57.88,57.88,0,0,0-1.16-13.46c-.18-.87.71-1.25.9-.37.71,3.36,2.51,15.07.27,17.44-1.53,1.62-2.79-.75-3.5-2.24-.27-.5-.45-1-.72-1.62.45,3.86.63,7.72-.72,9.1-.9,1-2.33.37-3-1-.18-.5-.45-1-.63-1.62a68.76,68.76,0,0,1-3.86-13.09,1.2,1.2,0,0,1,.09-.87,3.71,3.71,0,0,1,2.42-.87c.45,0,.45.87.54,1.37a97.12,97.12,0,0,0,3.86,12.83c.27.63.45.38.54-.25a37.88,37.88,0,0,0-.9-9.84c-1-2.74-2-5.73-3-8.6a5.69,5.69,0,0,1-.63.75c-1.17,1.24-2.69,2.12-3.77.12a13.75,13.75,0,0,1-1.17-4.36,5.87,5.87,0,0,1,0-1.87,4.88,4.88,0,0,1,2.25-.74c.62,0,.9.5,1,1.49s.18,2.87.18,4.49c.54-.63,1-1.37,1.44-2-.36-1.12-.72-2.37-1-3.61s-.27-2,0-2.24c.54-.63,2.78-1.37,3.14-.88,0,.13.09.13.09.25v.25a4.71,4.71,0,0,0,.18,1.75Z" transform="translate(0 0)"/><path class="cls-5" d="M358.84,406.32c.09.5.27,1,.36,1.49.8-.87,1.79-1.74,2.33-1.74.27,0,1,.75,1.17,1.12s.18.37.09.5-.09,0-.09.12a11.72,11.72,0,0,0-2.88,2.37c1.62,5.49,3.77,12.09,5.3,15.95.45.87.63,1,.72,0a57.4,57.4,0,0,0-1.17-13.46c-.17-.87.72-1.24.9-.37.72,3.36,2.52,15.08.27,17.44-1.52,1.62-2.78-.62-3.5-2.24a136.94,136.94,0,0,1-5.2-14.2,2.85,2.85,0,0,1-.63.62c-.54.5-1.71,1.87-2.6,1.13-.27-.25-.27-.38,0-.75.9-1,1.7-2.12,2.51-3.12-.36-1.24-.72-2.36-1-3.61s-.26-2,0-2.24c.54-.63,2.79-1.5,3.15-.88v.5a10.37,10.37,0,0,0,.27,1.37Z" transform="translate(0 0)"/><path class="cls-5" d="M361.62,397.35a7.14,7.14,0,0,1,2.15-.75c.63,0,.9.37,1,1.5.18,1.62.36,6.35-.27,7.1-1.52,1.74-2.87-4.74-3-6.11-.09-1-.09-1.49.09-1.74Zm5.74,24.42a80.09,80.09,0,0,1-3.86-13,1.3,1.3,0,0,1,.18-1,3.5,3.5,0,0,1,2.34-.75c.45,0,.45.87.54,1.25a104.17,104.17,0,0,0,3.77,12.83c.27.62.45.37.54-.12.35-4.11-.81-10-1.53-13.34-.18-.87.72-1.24.9-.37.72,3.37,3.05,14.46.72,16.95-1,1-2.34.37-3-1-.18-.5-.45-1-.63-1.5Z" transform="translate(0 0)"/><path class="cls-5" d="M368.08,403.83a1.33,1.33,0,0,1,.09-.88,3,3,0,0,1,2.43-.74c.44,0,.44.87.53,1.37a77.2,77.2,0,0,0,2.07,7.47c-.63-4-1.17-9.22-.72-12.08a1.42,1.42,0,0,1,.36-.88c.36-.37,2.24-1.24,2.6-.62a2.3,2.3,0,0,1,.18.5c.09.37.18.87.27,1.25a98.33,98.33,0,0,0,3.68,12.08c.27.63.45.5.54-.12.35-4.11-.81-10-1.53-13.33-.18-.88.72-1.25.9-.38.72,3.37,3,14.46.72,16.95a1.54,1.54,0,0,1-2.15.34,1.49,1.49,0,0,1-.54-.72,77.74,77.74,0,0,1-4.22-13c-.27,4.73,1.34,14.45,2.69,17.19.18.37.09.62-.09.75-.63.74-2.33.87-2.78,0a61.81,61.81,0,0,1-5-15.2Z" transform="translate(0 0)"/><path class="cls-5" d="M384.87,409.43c-1.08,1.12-2.25.87-3.15-.37-2.6-3.87-4.75-12.09-3.14-16.95a2.77,2.77,0,0,1,1.44-1.62,11.09,11.09,0,0,1,1.88-.5,2.31,2.31,0,0,0-.18-.62,1.31,1.31,0,0,1,.09-.87,3,3,0,0,1,2.43-.75c.26,0,.35.37.44.75s.18.87.27,1.24c.9,3.37,2,6.73,2.88,9.47l.17.38a33.81,33.81,0,0,0-.35-11.22c-.18-.87.71-1.24.9-.37a37.34,37.34,0,0,1,.18,13.7,90.91,90.91,0,0,1,2.6,9c.71,3.24.8,6-1.35,8.23a2.32,2.32,0,0,1-2.42.75c-1.71-.75-2.42-3.37-2.25-5.61.09-2.62,1.08-5.36,1.62-7.85-.36-1.25-.81-2.62-1.17-4,.36,2.87.36,5.86-.9,7.23Zm-1.62-4.23c.18.5.9,1.87,1.35,1.37,1.34-1.37-1.53-11.72-2.07-14-.09-.37-.18-.87-.27-1.24a.68.68,0,0,0-.9.25c-2,2,.19,10.09,1.89,13.58Zm5.66,8.47c-.45-1.75-1-3.74-1.53-5.73-.54,2.49-1.8,6.35-.36,8.72.36.62,1.08,1.12,1.62.5s.71-1.75.27-3.49Z" transform="translate(0 0)"/><path class="cls-4" d="M86.61,233.37,85.18,23.67l288.29-5.85,2.15,310.62-189.47-5.11" transform="translate(0 0)"/><path class="cls-4" d="M140,36.5c-3,0-5.3-7.35-5.3-16.32S137.14,3.86,140,3.86s5.3,7.23,5.3,16.32" transform="translate(0 0)"/><path class="cls-4" d="M206.79,36.5c-2.87,0-5.3-7.35-5.3-16.32s2.43-16.32,5.3-16.32,5.3,7.23,5.3,16.32" transform="translate(0 0)"/><path class="cls-4" d="M268.27,33.14c-3,0-5.3-7.35-5.3-16.32S265.4.5,268.27.5s5.3,7.23,5.3,16.32" transform="translate(0 0)"/><path class="cls-4" d="M328.68,34.39c-3,0-5.3-7.23-5.3-16.32s2.42-16.32,5.3-16.32S334,9.1,334,18.07" transform="translate(0 0)"/><path class="cls-5" d="M77.19,465c4.22,6.48,9.87,9.22,15.71,11.71,6.19,2.62,12.3,5.36,18.31,8.35,2.33,1.12,3.77.38,4.57-2.74,2.25-8.35,4.85-16.57,6.64-25,2.7-13.09,5.12-26.29,4.4-40-.62-12.21-1.61-24.3-7.36-34.64-.9-1.62-1.25-3.74-2.06-6.23,1,.37,1.35.25,1.53.5a57.4,57.4,0,0,1,9.78,25.29,144.12,144.12,0,0,1-.09,40.75c-1.44,9.34-3.77,18.44-5.92,27.53-1.26,5.24-1.44,5.48,2.06,7.73,3.68,2.36,7.54,4.11,11.31,6.35s7.36,4.86,8.53,11.22c.71,3.73.09,6.1-2.43,7.85-4.31,3.11-8.8,2.49-13.1.62a6.13,6.13,0,0,0-6.82,1.37,12.74,12.74,0,0,1-7.63,2.74A85.5,85.5,0,0,1,84.1,504c-9.42-3.12-18.75-6.73-28.18-9.59-6.19-1.87-12.47-2.87-18.67-4.74a131.63,131.63,0,0,1-16.15-6.23c-3.68-1.62-7.45-3.24-10.77-5.86a36.18,36.18,0,0,1-8.44-10.34C.37,464.5,0,460,0,456.28a9.34,9.34,0,0,1,5.56-8.85c7.27-3.74,14.54-3,21.9-.62a27,27,0,0,0,4.31,1.12c2,.25,3-1,3.14-3.86,0-3.12.09-6.36.09-9.47,0-26.67,5.75-51.09,14.72-74.39C55.21,346,61.67,332.8,70.46,322a79.66,79.66,0,0,1,5.93-6c1-1,2.06-2,3-3-1.35-3.61-3-6.73-3.86-10.09-1.61-6.73-1.34-13.33,3-18.19,1.35-1.5,3.23-2,4.76-3,.9-.63,2.15-1.25,2.6-2.37,2.87-7.1,7.72-10.22,12.92-12.33,7.54-3.12,14.37-.25,21,5.23,3.24,2.61,7,4.23,10.33,6.73,2,1.49,3.68,3.86,5.56,5.73a4.62,4.62,0,0,0,1.89,1.37c4.12.12,6.55,2.37,7.63,7.23s-.45,10.09-3.5,12.7c-1.35,1.13-1.71,2.37-2,4.49-.63,4.73-1.7,9.34-2.6,14.08-.45,2.62-2.06,2.62-3.32,2.24s-3.05,1.25-3.77-2.12c-.36-1.74-1.79-3-2.87-4.48a10.46,10.46,0,0,1-1.8-3.12h1.62a23.64,23.64,0,0,0,5,.63c4.48-.5,5.92-2.74,6.55-9.35a2.81,2.81,0,0,0-.81-.5c-3.05-.25-5.56-1.74-6.73-6a15.25,15.25,0,0,1,1.8-12.58c2-3.12,2.06-3.74-.27-6.36a27.18,27.18,0,0,0-5.12-3.86c-3.23-2.24-6.64-4.11-9.87-6.48-5.3-4.11-10.77-4.49-16.51-3-6.29,1.62-10,7.6-13.2,14.33-.63,1.5-1.7,2.37-3,2.24-5.47.25-8.88,5.86-7.9,13.33.54,4,1.44,7.85,4,10.47,1.7,1.87,1.62,3.86,0,5-9.34,6.86-16.43,16.95-21.72,29.53-3.5,8.23-7,16.7-9.87,25.3a214.37,214.37,0,0,0-8.44,38.87,151.75,151.75,0,0,0-.72,35.51,189.64,189.64,0,0,0,4.58,24.92,105.7,105.7,0,0,0,5.92,16.95,10.91,10.91,0,0,0,4.85,4.73,79.93,79.93,0,0,0,24.86,9.6c9.34,1.62,18.76,3.11,28.18,4.48a29.86,29.86,0,0,0,8.8-.5c2.6-.37,4-2.37,4-5.73.27-3.24-1.25-6.35-3.5-7.1-11.13-5.11-22.26-10.09-33.39-15.32a14.21,14.21,0,0,1-5.38-3.74c-1.35-1.62-2.06-4.36-3.05-6.6Zm58.61,38a24.69,24.69,0,0,0,3-.62c3.77-1.5,4.49-5.36,1.61-9a16.39,16.39,0,0,0-5-4.61c-4.4-2.37-9-4.24-13.29-6.6-2.06-1.12-2.69.25-3.5,2.37-.9,2.49,0,3.36,1.44,4.36,2.42,1.49,4.85,3.49,5.3,7.35.45,4.48,2.69,5.48,5.3,5.85a29.7,29.7,0,0,0,5.21.88Zm2.06-215.3c-.18,3.61.72,5.11,2.6,5.48a1.9,1.9,0,0,0,1.8-.87,3.81,3.81,0,0,0-.54-2.49,17.27,17.27,0,0,0-3.86-2.12Zm-2.33,31.52c.09-.12,0-.37-.09-.37h-.09c-.72,0-2.16.5-2.69.5-1,.12-.54,2.12-.72,4.73-.09.87,1,.5,1.88.5.72-1.12,1.08-4,1.71-5.36Zm2.06-.5-1-.5-1.53,5.61.9.5Z" transform="translate(0 0)"/><path class="cls-5" d="M84.64,338.16c-.54,1.5-1.08,3.12-1.62,4.61a105.36,105.36,0,0,0-6.91,46.35c.81,12.34,3.32,23.93,8.89,33.89a44,44,0,0,0,10.68,12.71c.63.5,1,1.87,1.43,2.87-1,0-2.24.62-2.87,0-8.08-7.6-14.9-16.7-17.59-30.4-.72-3.49-1.26-7-1.79-10.59-2.34-15.33-.81-30.4,2.6-45,1.25-5.49,3.94-10.22,6-15.2Z" transform="translate(0 0)"/><path class="cls-5" d="M119.19,362c3-.37,5.93-.62,8.89-1.25,12.74-2.61,24.23-11.71,32.31-25.66,3.23-5.48,5.74-11.71,8.7-17.45a18.21,18.21,0,0,1,1.8-2.11c.09,1.24.54,2.74.18,3.73a71.17,71.17,0,0,1-10.5,21.06c-9,12.09-20.2,20.19-32.49,23.3a18.52,18.52,0,0,1-5.83.63,15.48,15.48,0,0,1-3.32-1.13Z" transform="translate(0 0)"/><path class="cls-5" d="M179.51,329.81c.18,10.47-32.13,61.68-42.46,67.29,16.7-18.82,30.25-41.37,41.38-66.66C178.52,330.06,179,330.06,179.51,329.81Z" transform="translate(0 0)"/><path class="cls-5" d="M112.55,362.83c-.27-2.62-1.07-5.23-.8-7.73,1-9.59,3.68-17.81,10.32-22.18a73.33,73.33,0,0,1,9.33-4.48c.27-.12.81.37,1.17.62-.18.63-.36,1.62-.72,1.87a63.1,63.1,0,0,1-5.92,3c-6.64,2.62-12.12,11.47-12.66,20.94,0,2.61.09,5.23.27,7.84Z" transform="translate(0 0)"/><path class="cls-5" d="M84.46,290.57c.9,2.74,1.8,5.23,2.51,7.84a4.15,4.15,0,0,1-.27,2.12,53.88,53.88,0,0,1-3.32,6.73,1.52,1.52,0,0,1-1.88-.12c-1.17-3.62-.27-14.08,3-16.57Z" transform="translate(0 0)"/><path class="cls-5" d="M106.27,439.46c-6.2-.13-10.23-5.36-8.8-11Z" transform="translate(0 0)"/><path class="cls-5" d="M110,436.22c-3.5,1.62-7.45-1.5-7.81-5.11-.09-1.37.09-3.36,1.35-2.37C105.82,430.74,107.7,433.48,110,436.22Z" transform="translate(0 0)"/><path class="cls-5" d="M113.18,434.23c-3.41,0-5.3-1.87-6.55-6.23C108.42,426.88,110.49,428.87,113.18,434.23Z" transform="translate(0 0)"/><path class="cls-5" d="M171.52,321.84l5.65-11C177.17,315.73,174.12,321.71,171.52,321.84Z" transform="translate(0 0)"/><path class="cls-5" d="M174.22,328.82c.36-4.24,2.6-6.23,4-9.47C179.06,323,177.17,327.44,174.22,328.82Z" transform="translate(0 0)"/><path class="cls-6" d="M135.8,503c-1.89-.25-3.59-.5-5.3-.74-2.6-.38-4.76-1.37-5.3-5.86-.45-4-2.87-5.85-5.3-7.35-1.44-1-2.33-1.87-1.44-4.36.81-2.12,1.35-3.49,3.5-2.37,4.4,2.37,9,4.11,13.29,6.6a16.5,16.5,0,0,1,5,4.61c2.87,3.61,2.16,7.48-1.61,9A19.9,19.9,0,0,1,135.8,503Z" transform="translate(0 0)"/><path class="cls-6" d="M137.86,287.69a17.46,17.46,0,0,1,3.77,2.12,3.38,3.38,0,0,1,.54,2.49,1.91,1.91,0,0,1-1.8.88c-1.7-.38-2.69-1.87-2.51-5.49Z" transform="translate(0 0)"/><path class="cls-6" d="M137.59,318.72l-1.52,5.49-.9-.5,1.52-5.61Z" transform="translate(0 0)"/><path class="cls-5" d="M117.4,293.43c-4.22-.75-7.81,0-9.88,6.48-.08-4.61,2.34-8.6,5.66-9.34C114.71,290.32,116.5,289.57,117.4,293.43Z" transform="translate(0 0)"/><path class="cls-7" d="M19.57,477.46s1.34-16.45,10.94-24" transform="translate(0 0)"/><path class="cls-7" d="M27.28,481.7s1.35-16.45,10.95-24.05" transform="translate(0 0)"/><path class="cls-7" d="M5.65,449.3s17.87-1.62,36.62,19.94" transform="translate(0 0)"/><path class="cls-7" d="M3.05,455.66S20.46,454.53,39,477" transform="translate(0 0)"/><path class="cls-7" d="M4.31,464.13s13.91-.75,28.18,16.45" transform="translate(0 0)"/><path class="cls-7" d="M33.39,484.56s1.07-13.2,9.06-19.31" transform="translate(0 0)"/><path class="cls-5" d="M202.4,198.24l-44.79.25-45,.12h-.36v-.5l-.09-88.34v-.62h.45l89.85.25h.26v.37L202.66,154Zm0,0L202.22,154l-.09-44.11.26.37-89.84.13.45-.63-.09,88.34-.36-.5,44.79.13Z" transform="translate(0 0)"/><path class="cls-5" d="M228.6,109.77l44.79-.25,45-.12h.36v.5l.09,88.34v.62h-.45l-89.85-.25h-.27v-.37l.09-44.23Zm0,0,.18,44.24.09,44.1-.27-.37,89.85-.25-.45.62.09-88.34.36.5-44.79-.12Z" transform="translate(0 0)"/><path class="cls-5" d="M174.21,305.39c-2.15.25-4.4.38-6.55.5s-4.4.13-6.55.13-4.4,0-6.55-.13l-3.32-.12c-1.08-.13-2.16-.13-3.32-.25a28.36,28.36,0,0,1,3.32-.25l3.32-.12c2.15-.13,4.4-.13,6.55-.13s4.4,0,6.55.13a38.72,38.72,0,0,1,6.55.24Z" transform="translate(0 0)"/><path class="cls-5" d="M194.23,216.93l5.47-.13h.09v.13c.09,7.35.18,14.7.18,22s.09,14.7.09,22.06v33.14L200,305.26v.38h-.27l-16-.38c5.3-.12,10.68-.37,16-.37l-.27.37-.09-11.08V283.09c0-7.35-.09-14.7,0-22s0-14.7.09-22.06.09-14.7.18-22l.09.12Z" transform="translate(0 0)"/><path class="cls-5" d="M109.86,265.77c-.09-8.1-.18-16.32-.27-24.42l-.18-24.42v-.5h.36l19.38-.13,19.3.13c6.47,0,12.84.12,19.3.12l19.3.38-19.3.37c-6.46.12-12.83.12-19.3.12l-19.3.13-19.3-.13.36-.5L110,241.35c0,8.1-.09,16.32-.18,24.42Z" transform="translate(0 0)"/><path class="cls-5" d="M225.91,216.93l44.79-.25,45-.13H316v.5l.09,88.34V306h-.45l-89.84-.25h-.27v-.38l.09-44.23Zm0,0,.18,44.23.09,44.11-.27-.38,89.85-.25-.45.63.09-88.34.36.5L271,217.3Z" transform="translate(0 0)"/><path class="cls-8" d="M199.7,129.71c1.17-2.74,1.53-5.61-.72-8.1-2.69-3-7.63-3.61-12.2-4.23a290.56,290.56,0,0,0-38.87-3c-6.28-.12-12.56.13-18.75.5-4.76.38-8,2-9.6,5.24a19.82,19.82,0,0,0-.9,2.12c-3,4.23-2.34,10.46-3,14.57v.38a23.16,23.16,0,0,0-.44,2.49c-1.08,5-2.52,11,2.51,14.45,5.74,3.87,16.06,3,23.15,3.24l2.07.13c10.77,1.37,21.63,2.36,32.49,2.86,7,.38,16.51,1.62,20.1-2.86a3.15,3.15,0,0,0,2.25-2.62l1.7-24.42a3.9,3.9,0,0,1,.18-.75Z" transform="translate(0 0)"/><path class="cls-9" d="M175.2,324.46l17-117.38" transform="translate(0 0)"/><path class="cls-6" d="M105.55,297.42l5.39,1.37c-.18,2.37-.36,5-.45,7.47C107.62,307.39,106.89,306,105.55,297.42Z" transform="translate(0 0)"/><path class="cls-6" d="M106.9,308.26c-1.35-.38-2.6-.25-3.05-1-2.52-4.11-2.43-6,.17-9.47Z" transform="translate(0 0)"/><path class="cls-6" d="M106.72,276.36,104,271C107,270.51,107.88,272.25,106.72,276.36Z" transform="translate(0 0)"/><path class="cls-10" d="M153.83,146c-1.43.13-2.42-.74-2.69-2.49,1,1.75,1.8,2.24,2.6,1.75s1-1.37.72-3.37c-1.08-.12-1.79-1-2-2.49a4.41,4.41,0,0,1,1-3.12,1.76,1.76,0,0,1,2.4.64c0,.08.08.16.12.24a4.69,4.69,0,0,1,.27,3.11,3,3,0,0,1-1,1.25,1.07,1.07,0,0,0-.36.87c.18,1.25.81,2,1.8,1.74,1.53-.5,2.06-1.37,2-3.86a3.46,3.46,0,0,1-.35,3.24l-.27.37c-.9.38-1.08,1.37-1.08,2.62,0,.87-.27,1.37-1,1.37h-.09c-.36.13-.9.5-1.08.25a5,5,0,0,1-.71-1.62A.54.54,0,0,1,153.83,146Zm1.35-1.37c.36,2.37.63,2.87,1.35,2.5,0-.75.09-1.37.09-2.12-.45-.13-.9-.25-1.44-.38Zm.36,3.12c-.36-1.25-.54-2-.81-3a1.86,1.86,0,0,0-.09,2.61c.19.25.54.25.9.37Zm0-9c.36-1.12.09-1.62-.72-1.5a16.1,16.1,0,0,0,.72,1.49Z" transform="translate(0 0)"/><path class="cls-10" d="M164.25,133.82c.18-.25.27-.5.45-.75a5.81,5.81,0,0,0,.81-3.73c-.09-2-1.71-3.37-3.06-2.62a5.55,5.55,0,0,0-1.34,1.12c-.36.5-.63.5-1.08.13-2.24-1.75-4.49-2.12-6.91-.88a5.55,5.55,0,0,0-2.87,2.87l-.18-.25a9.81,9.81,0,0,1,1.17-1.74,6.19,6.19,0,0,1,6.19-2.25,28.73,28.73,0,0,1,2.87.87.9.9,0,0,0,.81-.12,2.91,2.91,0,0,1,2.51-.87c2.25.62,3.23,4.23,1.8,6.73a19,19,0,0,1-1.08,1.62c.09,0,0-.13-.09-.13Z" transform="translate(0 0)"/><path class="cls-10" d="M148.54,130c-.27,0-.54-.13-.8-.13-1.08.13-1.8,1.25-1.8,2.75a5.7,5.7,0,0,0,1.16,3.73,1.15,1.15,0,0,1,.27.63c.09.37.09.87.18,1.24.45,4.11,1.8,7.35,4.76,9,.09,0,.18.13.27.13v.12a3.65,3.65,0,0,1-2.69-1.62,14.23,14.23,0,0,1-2.88-7.47,1.8,1.8,0,0,0-.36-.88,7.5,7.5,0,0,1-1-6c.36-1.37,1.43-2.37,2.42-2.12.18,0,.36.25.54.5-.09-.12-.09,0-.09.13Z" transform="translate(0 0)"/><path class="cls-10" d="M159.67,145c2.78-1.87,3.77-5.11,3.86-9.1l.09.12a17.89,17.89,0,0,1-.45,5.36,4.53,4.53,0,0,1-1.7,2.74,2.82,2.82,0,0,1-.9.63l-.81.37C159.76,145.28,159.67,145.16,159.67,145Z" transform="translate(0 0)"/><path class="cls-10" d="M163.62,132.45a4.69,4.69,0,0,1-1-1,1.25,1.25,0,0,1-.18-.5,4.92,4.92,0,0,0,.18-1.62,8.41,8.41,0,0,0-.26-1.5c1,.25,1.7,3,1.25,4.61Z" transform="translate(0 0)"/><path class="cls-10" d="M160.57,134.57c-1.17-1-2,.37-3,1a1.56,1.56,0,0,1,.9-1.75C159.49,133.32,160.21,133.57,160.57,134.57Z" transform="translate(0 0)"/><path class="cls-10" d="M151.6,136.69c-.27.12-.54.37-.72.25-.81-.63-1.44-.75-2,.37,0,.12-.18.12-.27,0s-.09-.25-.09-.37c.36-1.13,2.07-1.75,2.7-1a1.83,1.83,0,0,1,.36.74Z" transform="translate(0 0)"/><path class="cls-6" d="M155.18,144.66c.54.12,1,.25,1.53.37,0,.63-.09,1.37-.09,2.12C155.81,147.53,155.54,147.15,155.18,144.66Z" transform="translate(0 0)"/><path class="cls-6" d="M155.54,147.78c-.36-.13-.72-.13-.8-.25-.72-1.13-.72-1.62.09-2.62.18.75.44,1.62.71,2.87Z" transform="translate(0 0)"/><path class="cls-6" d="M155.55,138.8c-.27-.5-.45-1-.72-1.49C155.63,137.19,155.9,137.68,155.55,138.8Z" transform="translate(0 0)"/><ellipse class="cls-11" cx="155.63" cy="136.56" rx="13.82" ry="19.19"/><path class="cls-5" d="M135.08,169.83a75.1,75.1,0,0,0-3.5,10.22c0,.12,0,.25-.09.25s-.09.12-.09.12-.27-.25-.36-.5a1.56,1.56,0,0,1-.18-.87,61.08,61.08,0,0,1,.27-9,77.57,77.57,0,0,0-2.06,11.21c0,.25-.09.25-.18.25a1.43,1.43,0,0,1-1.17-1.12A69,69,0,0,1,130.41,166c.18-.37.27-.5.36-.5.36,0,1.53.75,1.53,1.12,0,.13-.09.13-.09.25a51,51,0,0,0-.54,9.72,71,71,0,0,1,4.13-10.21c.09-.25.44-.88.71-.88s1.44.63,1.44,1c0,0,0,.13-.09.13a.72.72,0,0,0-.18.37c-1.08,2.62-2.51,11.84-2.51,14.2,0,.25-.09.25-.18.25a1.29,1.29,0,0,1-1.17-1.12,76.91,76.91,0,0,1,1.26-10.47Z" transform="translate(0 0)"/><path class="cls-5" d="M140.11,172.07a2.27,2.27,0,0,1,2.06,2.24,11.46,11.46,0,0,1-.54,3.49,11.44,11.44,0,0,0,1.89-3.61c.09-.37.54-.12.45.25a9.23,9.23,0,0,1-2.79,4.61c-.63,1.5-1.61,2.62-2.69,2.62-1.26,0-2.06-1.75-2.06-3.12,0-2.49.9-5.73,2.42-6.85C139.3,171.45,139.75,171.7,140.11,172.07Zm-1.8,7.73a2.16,2.16,0,0,0,1.07-.38,14.3,14.3,0,0,0,1.17-5.36c0-1.61-.63-1.74-1.26-.74-1,1.62-1.52,5.11-1.07,6.48,0,.12,0,0,.09,0Z" transform="translate(0 0)"/><path class="cls-5" d="M143.88,172.07c.09-.25.17-.37.26-.37a2,2,0,0,1,1.17.75c.18.24,0,.5-.09.74-.36,1.25-.63,2.62-.9,4a20.9,20.9,0,0,1,2.42-5.23c.09-.13.18-.13.36-.13s1.17.5,1.17.88c0,.12,0,.12-.09.25s-.09.37-.18.62a52.62,52.62,0,0,0-1.26,6.6c-.09.37.09.37.27.12,1.08-1.49,1.89-4.48,2.43-6.1.09-.38.54-.13.45.25-.45,1.62-2.07,7.22-3.59,7.22a1.23,1.23,0,0,1-1.08-1.37h0a45.13,45.13,0,0,1,1.17-7.1,24.76,24.76,0,0,0-2.79,8.23c0,.25-.09.25-.18.25a1.41,1.41,0,0,1-1.16-1.25,48.48,48.48,0,0,1,1.61-8.35Z" transform="translate(0 0)"/><path class="cls-5" d="M152.94,171.45c.36,0,1.53.62,1.53,1v.12a.71.71,0,0,0-.18.38,15.5,15.5,0,0,0-.63,2.11c.36-.87.8-1.87,1.16-2.61s.81-1.12,1.17-1.12c.81,0,1.44,1.37,1.44,2.11a14.13,14.13,0,0,1-1,4.49,9.82,9.82,0,0,0,2.15-3.86c.09-.38.54-.13.45.25a9.77,9.77,0,0,1-3.23,5c-.72,1.37-1.52,2.24-2.15,2.24a1.24,1.24,0,0,1-1-.5,52.12,52.12,0,0,0-.54,6.11c0,.25-.09.25-.18.25a1.42,1.42,0,0,1-1.16-1.12c0-4,1.43-14.83,2.15-14.83Zm0,8c0,.25-.09.38-.09.62.18-.12.27-.12.45-.24a1.89,1.89,0,0,0,1-.38,15.5,15.5,0,0,0,1.52-6q0-.75-.27-.75c-.09,0-.18.13-.27.25a22.34,22.34,0,0,0-2.33,6.48Z" transform="translate(0 0)"/><path class="cls-5" d="M159,172.07c.09-.25.18-.37.27-.37a2.08,2.08,0,0,1,1.17.75c.18.24,0,.5-.09.74-.36,1.25-.63,2.62-.9,4a20.9,20.9,0,0,1,2.42-5.23c.09-.13.18-.13.36-.13a1.87,1.87,0,0,1,1.08.63.46.46,0,0,1,0,.67l-.09.07a5.78,5.78,0,0,0-1,2.87c0,.62.18.87.36.87.72,0,1.44-2,1.8-2.74.18-.37.63,0,.45.37-.36.88-1.17,2.87-2,3.24-.62.38-1.7-.5-1.8-1.49a6.92,6.92,0,0,1,.45-2.62c.09-.25,0-.12-.09,0a26.13,26.13,0,0,0-2.6,8c0,.25-.09.25-.18.25a1.42,1.42,0,0,1-1.16-1.25,36.43,36.43,0,0,1,1.52-8.6Z" transform="translate(0 0)"/><path class="cls-5" d="M167,172.07a2.29,2.29,0,0,1,2.07,2.24,12.11,12.11,0,0,1-.54,3.49,11.22,11.22,0,0,0,1.88-3.61c.09-.37.54-.12.45.25a9.28,9.28,0,0,1-2.78,4.61c-.63,1.5-1.62,2.62-2.69,2.62-1.26,0-2.07-1.75-2.07-3.12,0-2.49.9-5.73,2.43-6.85C166.14,171.45,166.67,171.7,167,172.07Zm-1.8,7.73a2.2,2.2,0,0,0,1.08-.38,14.49,14.49,0,0,0,1.17-5.36c0-1.61-.63-1.74-1.26-.74a10.73,10.73,0,0,0-1.08,6.48c0,.12,0,0,.09,0Z" transform="translate(0 0)"/><path class="cls-5" d="M174,174.06c.18-.37.63-.12.45.25a5,5,0,0,1-3,3,26.68,26.68,0,0,1-.09,8,5.18,5.18,0,0,1-.63,1.87.88.88,0,0,1-.9.37c-.45,0-1.16-.37-1.16-.87a15,15,0,0,1,.09-2.12A93.09,93.09,0,0,1,171.07,170c.27-1.13.54-1.75.72-1.75.36,0,1.52.62,1.52,1v.12l-.27.38a48.67,48.67,0,0,0-1.61,6.85,3.55,3.55,0,0,0,2.6-2.49Zm-3.14,11.47a23.21,23.21,0,0,0,.36-6.6c-.27,2.12-.54,4.36-.72,6.48a3.51,3.51,0,0,0,0,1.12c.09,0,.27-.87.36-1Z" transform="translate(0 0)"/><path class="cls-5" d="M172.87,179.05a50.27,50.27,0,0,1,1.34-7c.09-.25.18-.37.27-.37.36,0,.9.5,1.17.75s0,.5-.09.74a47,47,0,0,0-1.35,6.86c-.09.37.09.37.27.12,1.08-1.5,1.89-4.48,2.43-6.1.09-.38.53-.13.44.25-.44,1.62-2.06,7.22-3.59,7.22-.62,0-1.07-.87-1-1.74a2.37,2.37,0,0,1,.09-.75Zm3.23-12.58a3.94,3.94,0,0,1,1.07.62.8.8,0,0,1,.09,1c-.35.75-1.25,2.74-1.7,2.74-1,0-.09-3.24.18-3.74.09-.37.18-.62.36-.62Z" transform="translate(0 0)"/><path class="cls-5" d="M178.34,165.59c.36,0,1.53.63,1.53,1v.13l-.27.37c-.9,2.24-2.07,9.22-2.43,12.71,0,.5,0,.62.27.25,1.08-1.5,1.8-4.36,2.25-6,.09-.38.63-.13.45.25-.45,1.62-2.07,7.22-3.59,7.22-1,0-1-1.5-.9-2.49.45-4.61,2-13.45,2.69-13.45Z" transform="translate(0 0)"/><path class="cls-5" d="M249.34,173.94a75.1,75.1,0,0,0-3.5,10.22c0,.12,0,.25-.09.25s-.09.12-.09.12-.27-.25-.36-.5a1.54,1.54,0,0,1-.18-.87,61.08,61.08,0,0,1,.27-9,79,79,0,0,0-2.07,11.21c0,.25-.09.25-.17.25a1.42,1.42,0,0,1-1.17-1.12,69,69,0,0,1,2.69-14.45c.18-.38.27-.5.36-.5.36,0,1.53.74,1.53,1.12,0,.12-.09.12-.09.25a51,51,0,0,0-.54,9.72,71.15,71.15,0,0,1,4.13-10.22c.09-.25.44-.87.71-.87s1.44.62,1.44,1c0,0,0,.12-.09.12a.71.71,0,0,0-.18.38c-1.08,2.61-2.51,11.83-2.51,14.2,0,.25-.09.25-.18.25a1.29,1.29,0,0,1-1.17-1.12,76.91,76.91,0,0,1,1.26-10.47Z" transform="translate(0 0)"/><path class="cls-5" d="M253.91,183v-.13c-.53,1.5-1.16,2.87-2,2.87s-1.08-.63-1.17-1.5c-.27-2.74.81-7,2.52-8.35.53-.5,1.16.12,1.88.62,0-.12.09-.25.09-.37s.18-.37.27-.37c.36,0,.9.5,1.17.74s0,.5-.09.75a44.38,44.38,0,0,0-1.26,6.85c-.09.38.09.38.27.13,1.08-1.5,1.88-4.49,2.33-6.11.09-.37.54-.12.45.25-.45,1.62-2,7.23-3.5,7.23-.63,0-1.08-.87-1-1.75a1.44,1.44,0,0,1,0-.87Zm.81-5.24a4.4,4.4,0,0,1,.18-.62.48.48,0,0,0-.45-.37c-1.25,0-2.15,4.23-2.33,6.47,0,.25-.09,1.13.27,1.13.9,0,2.06-5.49,2.33-6.6Z" transform="translate(0 0)"/><path class="cls-5" d="M262.08,169.58c.36,0,1.53.62,1.53,1v.12a.71.71,0,0,0-.18.38,44.36,44.36,0,0,0-1.71,7.72,22.76,22.76,0,0,1,.9-2.24c.36-.75.81-1.37,1.26-1.37.72,0,1.43,1.37,1.43,2.24a12,12,0,0,1-1,4.49,10,10,0,0,0,2.15-3.86c.09-.38.63-.13.45.24a9.3,9.3,0,0,1-3.23,5c-.72,1.37-1.53,2.24-2.16,2.24-.18,0-.44-.25-.62-.37,0,.12,0,.37-.18.37a1.29,1.29,0,0,1-1.17-1.12c0-4,1.8-14.83,2.51-14.83Zm0,10a14.47,14.47,0,0,0-1,4.36,2.41,2.41,0,0,0,1.17-.37,15.72,15.72,0,0,0,1.44-6c0-.74-.27-1-.63-.37a10.25,10.25,0,0,0-1,2.37Z" transform="translate(0 0)"/><path class="cls-5" d="M269.08,176.06a2.29,2.29,0,0,1,2.07,2.24,12.11,12.11,0,0,1-.54,3.49,11.22,11.22,0,0,0,1.88-3.61c.09-.38.54-.13.45.25a9.28,9.28,0,0,1-2.78,4.61c-.63,1.5-1.62,2.61-2.69,2.61-1.26,0-2.07-1.74-2.07-3.11,0-2.49.9-5.73,2.42-6.86A1.29,1.29,0,0,1,269.08,176.06Zm-1.8,7.85a2.1,2.1,0,0,0,1.08-.38,14.69,14.69,0,0,0,1.17-5.35c0-1.62-.63-1.75-1.26-.75-1,1.62-1.53,5.11-1.08,6.48Z" transform="translate(0 0)"/><path class="cls-5" d="M274.55,183v-.13c-.54,1.5-1.16,2.87-2,2.87s-1.35-1-1.26-1.75c0-.37.09-.62.09-1a51.67,51.67,0,0,1,1.35-7c.09-.25.18-.38.27-.38.36,0,.9.5,1.16.75s0,.5-.09.75a62.43,62.43,0,0,0-1.25,6.23c-.09.62,0,.87.27.87.9,0,2.15-5.48,2.42-6.6.18-.62.27-1.12.45-1.74.09-.25.18-.38.27-.38.36,0,.9.5,1.16.75s0,.5-.09.75a48.21,48.21,0,0,0-1.34,6.85c-.09.37.09.37.27.12,1.07-1.5,1.88-4.48,2.33-6.1.09-.37.54-.13.45.25-.45,1.62-2.06,7.23-3.59,7.23-.63,0-1.08-.88-1-1.75.09,0,.09-.25.09-.62Z" transform="translate(0 0)"/><path class="cls-5" d="M281.11,173.07c-.09.25-.09.5-.18.75a3.48,3.48,0,0,1,1.35.25,3.39,3.39,0,0,1,.18,1c0,.12,0,.24-.09.24h-.09a4.16,4.16,0,0,0-1.71-.24,82.62,82.62,0,0,0-1.44,8.84c0,.5,0,.63.27.25a22.56,22.56,0,0,0,2.6-6c.09-.37.54-.12.45.25-.45,1.62-2.42,7.23-3.86,7.23-1,0-1-1.5-.9-2.49.18-2.25.63-5.36,1.08-8.1h-.36c-.36,0-1.17,0-1.34-.63-.09-.25,0-.25.17-.25a7.07,7.07,0,0,0,1.71-.25,15.41,15.41,0,0,1,.45-1.87c.18-.62.36-.87.54-.87.36,0,1.43.62,1.43,1,0,0,0,.13-.09.13s0,.12-.09.12S281.11,172.82,281.11,173.07Z" transform="translate(0 0)"/><path class="cls-5" d="M281,183a50,50,0,0,1,1.34-7c.09-.25.18-.37.27-.37.36,0,.9.5,1.17.74s0,.5-.09.75a47.14,47.14,0,0,0-1.35,6.85c-.09.38.09.38.27.13,1.08-1.5,1.89-4.49,2.42-6.11.09-.37.54-.12.45.25-.45,1.62-2.06,7.23-3.59,7.23-.63,0-1.07-.87-1-1.75,0-.24.07-.49.09-.74Zm3.23-12.46a4.15,4.15,0,0,1,1.08.62.81.81,0,0,1,.09,1c-.36.75-1.26,2.74-1.71,2.74-1,0-.09-3.24.18-3.74.09-.37.27-.62.36-.62Z" transform="translate(0 0)"/><path class="cls-5" d="M286.76,183.78c-.45,1.13-1.07,1.87-1.7,1.87s-1.08-.62-1.17-1.49c-.27-2.74.81-7,2.51-8.35a.41.41,0,0,1,.36-.12,2.42,2.42,0,0,1,1.44.74c.18-.37.27-.62.36-.62.36,0,1.52.62,1.52,1v.12l-.26.38a41,41,0,0,0-1.62,7.1,14.72,14.72,0,0,0,2.69-6.23c.09-.38.54-.25.45.25a16.11,16.11,0,0,1-3.14,7,25,25,0,0,1-.54,5.86.51.51,0,0,1-.54.37c-.45,0-1.16-.37-1.16-.87.18-1.74.44-4.36.8-7Zm1-7c-1.26,0-2.15,4.23-2.33,6.48,0,.25-.09,1.12.27,1.12.54,0,1.16-2.12,1.7-4,.27-1.37.54-2.62.72-3.36a.33.33,0,0,0-.36-.25Z" transform="translate(0 0)"/><path class="cls-5" d="M293.32,183v-.13c-.54,1.5-1.17,2.87-2,2.87s-1.34-1-1.26-1.75c0-.37.09-.62.09-1a51.67,51.67,0,0,1,1.35-7c.09-.25.18-.38.27-.38.36,0,.9.5,1.17.75s0,.5-.09.75a59.75,59.75,0,0,0-1.26,6.23c-.09.62,0,.87.27.87.9,0,2.15-5.48,2.42-6.6.18-.62.27-1.12.45-1.74.09-.25.18-.38.27-.38.36,0,.9.5,1.17.75s0,.5-.09.75a46.62,46.62,0,0,0-1.35,6.85c-.09.37.09.37.27.12,1.08-1.5,1.88-4.48,2.33-6.1.09-.38.54-.13.45.25-.45,1.62-2.06,7.22-3.59,7.22-.63,0-1.07-.87-1-1.74a2.16,2.16,0,0,1,.09-.62Z" transform="translate(0 0)"/><path class="cls-5" d="M299.24,175.68a2.64,2.64,0,0,1,1.88,2.37c0,2.37-2,4.11-3.32,4.11,0,1.38.27,2.37,1.08,2.37,1.44,0,2.78-4.11,3.41-6.35.09-.38.54-.13.45.25-.63,2.49-2.07,7.22-4.13,7.22C294.21,185.65,296.64,175.68,299.24,175.68Zm-1.44,5.86c1,0,2.07-2,2.07-4,0-.5-.27-.74-.54-.37a7.2,7.2,0,0,0-1.53,4.36Z" transform="translate(0 0)"/><path class="cls-5" d="M238.57,279.6a75.1,75.1,0,0,0-3.5,10.22c0,.12,0,.25-.09.25s-.09.12-.09.12-.27-.25-.36-.5a1.46,1.46,0,0,1-.18-.87,61.08,61.08,0,0,1,.27-9,79,79,0,0,0-2.07,11.21c0,.25-.09.25-.18.25a1.42,1.42,0,0,1-1.16-1.12,68.31,68.31,0,0,1,2.69-14.45c.18-.38.27-.5.36-.5.36,0,1.52.74,1.52,1.12,0,.12-.09.12-.09.25a52.65,52.65,0,0,0-.54,9.72,73.54,73.54,0,0,1,4.13-10.22c.09-.25.45-.87.72-.87s1.44.62,1.44,1c0,0,0,.12-.09.12a.71.71,0,0,0-.18.38c-1.08,2.61-2.52,11.83-2.52,14.2,0,.25-.08.25-.17.25a1.29,1.29,0,0,1-1.17-1.13,76.58,76.58,0,0,1,1.26-10.46Z" transform="translate(0 0)"/><path class="cls-5" d="M243,281.34a2.65,2.65,0,0,1,1.89,2.37c0,2.37-2,4.11-3.32,4.11,0,1.37.27,2.37,1.07,2.37,1.44,0,2.79-4.11,3.41-6.35.09-.38.54-.13.45.25-.63,2.49-2.06,7.22-4.13,7.22C237.93,291.31,240.36,281.34,243,281.34Zm-1.43,5.86c1,0,2.06-2,2.06-4,0-.5-.27-.74-.54-.37C242.25,283.59,241.71,285.58,241.53,287.2Z" transform="translate(0 0)"/><path class="cls-5" d="M244.76,289.19a1.3,1.3,0,0,1,1.26-.87,3.79,3.79,0,0,1,1.16-.12c-.18-1.5-1.43-2.37-1.43-4.36,0-1.62,1-2.5,2-2.5.63,0,1.44,1.25,1.44,2.12,0,.5-.36,1.5-.63,1.5s-1-.37-1-.62v-.13c.27,0,.54-.62.54-1.12,0-.25-.09-.5-.27-.5-.45,0-.63,1.12-.63,1.49,0,1.38,1,2.25,1.35,3.37a5.86,5.86,0,0,0,1.88-3.49c.09-.37.54-.25.45.25a6.14,6.14,0,0,1-2.24,3.86,3.08,3.08,0,0,1-2.63,3.47l-.24,0C244.76,291.56,244.31,290.19,244.76,289.19Zm1-.12c-.81.25-.54,1.87.26,1.37a2.27,2.27,0,0,0,1.08-1.62C246.73,288.94,246.1,288.82,245.75,289.07Z" transform="translate(0 0)"/><path class="cls-5" d="M253.73,281.72c.09-.25.18-.38.27-.38a2.22,2.22,0,0,1,1.17.75c.18.25,0,.5-.09.75-.36,1.25-.63,2.62-.9,4a21.13,21.13,0,0,1,2.42-5.24c.09-.12.18-.12.36-.12a1.91,1.91,0,0,1,1.08.62.48.48,0,0,1,0,.68l-.09.07a5.78,5.78,0,0,0-1,2.87c0,.62.18.87.36.87.72,0,1.44-2,1.8-2.74.18-.38.62,0,.44.37-.35.87-1.16,2.87-2,3.24-.63.37-1.7-.5-1.79-1.49a6.66,6.66,0,0,1,.44-2.62c.09-.25,0-.13-.09,0a26.07,26.07,0,0,0-2.6,8c0,.25-.09.25-.18.25a1.41,1.41,0,0,1-1.16-1.24,42.48,42.48,0,0,1,1.52-8.6Z" transform="translate(0 0)"/><path class="cls-5" d="M260.47,291.31c-4.31,0-1.89-10.09.62-10.09a2.63,2.63,0,0,1,1.89,2.37c0,2.37-2,4.11-3.32,4.11,0,1.37.27,2.37,1.08,2.37,1.43,0,2.78-4.11,3.41-6.36.09-.37.53-.12.44.25C264,286.58,262.53,291.31,260.47,291.31Zm.71-8.47a8.2,8.2,0,0,0-1.43,4.36c1,0,2.06-2,2.06-4C261.72,282.71,261.45,282.47,261.18,282.84Zm1.44-5.73c-.18,0-.27,0-.27.12v.25a3.26,3.26,0,0,1-1,2.49c-.09,0,0,.13.09.13a2,2,0,0,0,2-1.62,1.89,1.89,0,0,0-.09-1c0-.38-.45-.38-.72-.38Z" transform="translate(0 0)"/><path class="cls-5" d="M262.89,289.19a1.29,1.29,0,0,1,1.25-.87,3.85,3.85,0,0,1,1.17-.12c-.18-1.5-1.43-2.37-1.43-4.36,0-1.62,1-2.5,2-2.5.63,0,1.44,1.25,1.44,2.12,0,.5-.36,1.5-.63,1.5s-1-.37-1-.62v-.13c.27,0,.54-.62.54-1.12,0-.25-.09-.5-.27-.5-.45,0-.63,1.12-.63,1.49,0,1.38,1,2.25,1.35,3.37a5.91,5.91,0,0,0,1.88-3.49c.09-.37.54-.25.45.25a6.18,6.18,0,0,1-2.24,3.86,3.08,3.08,0,0,1-2.63,3.47l-.25,0C262.89,291.56,262.44,290.19,262.89,289.19Zm1-.12c-.8.25-.53,1.87.27,1.37a2.27,2.27,0,0,0,1.08-1.62C265,288.94,264.32,288.82,263.87,289.07Z" transform="translate(0 0)"/><path class="cls-5" d="M270.61,281.34a2.64,2.64,0,0,1,1.88,2.37c0,2.37-2,4.11-3.32,4.11,0,1.37.27,2.37,1.08,2.37,1.44,0,2.78-4.11,3.41-6.35.09-.38.54-.13.45.25-.63,2.49-2.07,7.22-4.13,7.22C265.58,291.31,268,281.34,270.61,281.34Zm-1.44,5.86c1,0,2.07-2,2.07-4,0-.5-.27-.74-.54-.37A9,9,0,0,0,269.17,287.2Z" transform="translate(0 0)"/><path class="cls-5" d="M274.11,281.72c.09-.25.18-.38.27-.38a2.16,2.16,0,0,1,1.16.75c.18.25,0,.5-.09.75-.36,1.25-.63,2.62-.9,4a21.16,21.16,0,0,1,2.43-5.24c.09-.12.18-.12.36-.12a1.86,1.86,0,0,1,1.07.62.49.49,0,0,1,0,.68l-.1.07a5.67,5.67,0,0,0-1,2.87c0,.62.18.87.35.87.72,0,1.44-2,1.8-2.74.18-.38.63,0,.45.37-.36.87-1.16,2.87-2,3.24-.63.37-1.71-.5-1.8-1.49a6.67,6.67,0,0,1,.45-2.62c.09-.25,0-.13-.09,0a25.8,25.8,0,0,0-2.6,8c0,.25-.09.25-.18.25a1.42,1.42,0,0,1-1.17-1.24,36.87,36.87,0,0,1,1.53-8.6Z" transform="translate(0 0)"/><path class="cls-5" d="M283.89,283.21c-.27.88-.72,2.12-1.17,3.24a.89.89,0,0,0,.54.13c.54-.13,1.08-1,1.8-2.74.18-.38.63-.13.45.37-.72,2-1.44,2.86-2.16,3.11a.85.85,0,0,1-.81-.12,34,34,0,0,1-1.7,3.74c-.18.25-.44.62-.71.62-.54,0-1.53-.62-1.53-1.37a49.24,49.24,0,0,1,.72-8.22c.09-.25.18-.38.27-.38a2.2,2.2,0,0,1,1.17.5c.18.13,0,.5,0,.75a67.66,67.66,0,0,0-.9,7.23c0,.25,0,.25.18.12a44,44,0,0,0,1.88-4.86,8.05,8.05,0,0,1,.9-3.36c.18-.37.36-.25.63-.12.45.12.63.87.45,1.37Z" transform="translate(0 0)"/><path class="cls-5" d="M287.12,288.69v-.12c-.54,1.5-1.16,2.87-2,2.87s-1.08-.63-1.17-1.5c-.27-2.74.81-7,2.51-8.35.54-.5,1.17.12,1.89.62,0-.12.09-.25.09-.37s.18-.38.27-.38c.36,0,.9.5,1.17.75s0,.5-.09.75a44.38,44.38,0,0,0-1.26,6.85c-.09.38.09.38.27.13,1.07-1.5,1.88-4.49,2.33-6.11.09-.37.54-.12.45.25-.45,1.62-2,7.23-3.5,7.23-.63,0-1.08-.87-1-1.75v-.87Zm.9-5.23a6.32,6.32,0,0,1,.18-.62.5.5,0,0,0-.45-.38c-1.25,0-2.15,4.24-2.33,6.48,0,.25-.09,1.13.27,1.13.9,0,2.06-5.49,2.33-6.61Z" transform="translate(0 0)"/><path class="cls-5" d="M293.59,278.73c-.09.25-.09.5-.18.75a3.62,3.62,0,0,1,1.34.25,2.85,2.85,0,0,1,.18,1c0,.12,0,.25-.09.25h-.09a4.09,4.09,0,0,0-1.7-.25,82.4,82.4,0,0,0-1.44,8.85c0,.5,0,.62.27.25a23,23,0,0,0,2.6-6c.09-.38.54-.13.45.24-.45,1.62-2.42,7.23-3.86,7.23-1,0-1-1.49-.9-2.49.18-2.24.63-5.36,1.08-8.1h-.36c-.36,0-1.17,0-1.35-.62-.09-.25,0-.25.18-.25a7.59,7.59,0,0,0,1.71-.25,11.85,11.85,0,0,1,.45-1.87c.18-.63.35-.87.53-.87.36,0,1.44.62,1.44,1,0,0,0,.12-.09.12s0,.12-.09.12A1.46,1.46,0,0,1,293.59,278.73Z" transform="translate(0 0)"/><path class="cls-5" d="M293.49,288.7a51.51,51.51,0,0,1,1.35-7c.09-.25.18-.37.27-.37.36,0,.9.5,1.17.74s0,.5-.09.75a47.14,47.14,0,0,0-1.35,6.85c-.09.38.09.38.27.13,1.08-1.5,1.88-4.49,2.42-6.11.09-.37.54-.12.45.25-.45,1.62-2.06,7.23-3.59,7.23-.63,0-1.08-.87-1-1.75a1.34,1.34,0,0,0,.09-.74Zm3.23-12.46a4,4,0,0,1,1.08.62.8.8,0,0,1,.09,1c-.36.75-1.25,2.74-1.7,2.74-1,0-.09-3.24.18-3.74.09-.37.27-.62.36-.62Z" transform="translate(0 0)"/><path class="cls-5" d="M300.14,281.72A2.27,2.27,0,0,1,302.2,284a11.46,11.46,0,0,1-.54,3.49,11.44,11.44,0,0,0,1.89-3.61c.09-.37.54-.12.45.25a9.23,9.23,0,0,1-2.79,4.61c-.63,1.5-1.61,2.62-2.69,2.62-1.26,0-2.06-1.75-2.06-3.12,0-2.49.9-5.73,2.42-6.85A1.29,1.29,0,0,1,300.14,281.72Zm-1.8,7.85a2.06,2.06,0,0,0,1.07-.37,14.38,14.38,0,0,0,1.17-5.36c0-1.62-.63-1.74-1.26-.75-1,1.62-1.52,5.11-1.07,6.48Z" transform="translate(0 0)"/><path class="cls-5" d="M303.91,281.72c.09-.25.18-.38.27-.38a2.16,2.16,0,0,1,1.16.75c.18.25,0,.5-.09.75-.36,1.25-.63,2.62-.9,4a20.81,20.81,0,0,1,2.43-5.24c.09-.12.18-.12.36-.12s1.16.5,1.16.87c0,.13,0,.13-.09.25s-.09.38-.18.62a55.2,55.2,0,0,0-1.25,6.6c-.09.38.09.38.27.13,1.07-1.5,1.88-4.49,2.42-6.11.09-.37.54-.12.45.25-.45,1.62-2.07,7.23-3.59,7.23a1.23,1.23,0,0,1-1.08-1.37,44.94,44.94,0,0,1,1.17-7.1,24.78,24.78,0,0,0-2.79,8.22c0,.25-.09.25-.18.25a1.42,1.42,0,0,1-1.16-1.24,43.08,43.08,0,0,1,1.61-8.35Z" transform="translate(0 0)"/><path class="cls-5" d="M308.13,289.19a1.29,1.29,0,0,1,1.25-.87,3.85,3.85,0,0,1,1.17-.12c-.18-1.5-1.44-2.37-1.44-4.36,0-1.62,1-2.5,2-2.5.63,0,1.43,1.25,1.43,2.12,0,.5-.35,1.5-.62,1.5s-1-.37-1-.62v-.13c.27,0,.54-.62.54-1.12,0-.25-.09-.5-.27-.5-.45,0-.63,1.12-.63,1.49,0,1.38,1,2.25,1.34,3.37a5.87,5.87,0,0,0,1.89-3.49c.09-.37.54-.25.45.25a6.15,6.15,0,0,1-2.25,3.86,3.07,3.07,0,0,1-2.62,3.47l-.25,0c-1,0-1.43-1.37-1-2.37Zm1-.12c-.8.25-.54,1.87.27,1.37a2.27,2.27,0,0,0,1.08-1.62c-.27.12-.9,0-1.35.25Z" transform="translate(0 0)"/><path class="cls-5" d="M144.14,298.66a51.67,51.67,0,0,1,1.35-7c.09-.25.18-.38.27-.38.36,0,.9.5,1.17.75s0,.5-.09.75a47.14,47.14,0,0,0-1.35,6.85c-.09.37.09.37.27.12,1.08-1.49,1.88-4.48,2.42-6.1.09-.37.54-.12.45.25-.45,1.62-2.06,7.23-3.59,7.23-.63,0-1.08-.88-1-1.75a3.2,3.2,0,0,1,.09-.75Zm3.24-12.58a3.94,3.94,0,0,1,1.07.62.8.8,0,0,1,.09,1c-.36.75-1.25,2.74-1.7,2.74-1,0-.09-3.24.18-3.73.09-.38.18-.63.36-.63Z" transform="translate(0 0)"/><path class="cls-5" d="M148.54,291.69c.09-.25.18-.38.27-.38a2.22,2.22,0,0,1,1.17.75c.18.25,0,.5-.09.75-.36,1.24-.63,2.61-.9,4a21.23,21.23,0,0,1,2.42-5.23c.09-.12.18-.12.36-.12a1.91,1.91,0,0,1,1.08.62.48.48,0,0,1,0,.68l-.09.07a5.59,5.59,0,0,0-1,2.86c0,.63.18.88.36.88.72,0,1.44-2,1.8-2.75.18-.37.63,0,.45.38-.36.87-1.17,2.86-2,3.24-.63.37-1.7-.5-1.8-1.5a6.92,6.92,0,0,1,.45-2.62c.09-.25,0-.12-.09,0a26.13,26.13,0,0,0-2.6,8c0,.25-.09.25-.18.25a1.41,1.41,0,0,1-1.16-1.25,31.84,31.84,0,0,1,1.52-8.6Z" transform="translate(0 0)"/><path class="cls-5" d="M155.72,293.68h.09a4.46,4.46,0,0,0,2.16.62c1.7-3.11,3.41-6.1,5.11-8.84.18-.25.36-.13.63.12.09-.25.18-.37.27-.37.36,0,1.62.62,1.62,1v.12l-.27.38c-1.08,2.61-2.52,11.83-2.52,14.2,0,.24-.09.24-.18.24a1.27,1.27,0,0,1-1.16-1.12c0-1.24.18-2.86.36-4.73-1,.12-2,.37-2.88.5-.62,1.37-1.43,3.11-2,4.48-.09.38-.18.5-.27,1,0,0,0,.13-.09.13-.18.25-1.34-.63-1.61-1a1.25,1.25,0,0,1,.26-1.12c.54-1,1.17-2.37,1.71-3.37a2.06,2.06,0,0,1-.9-.25,4.65,4.65,0,0,1-.54-1.74Zm6.29.37c.27-2.11.62-4.36,1-6-1.07,1.87-2.24,4-3.23,6.11a8.4,8.4,0,0,1,1.8-.13c.18-.12.36,0,.45,0Z" transform="translate(0 0)"/><path class="cls-5" d="M166.94,285.21c.36,0,1.53.62,1.53,1v.12l-.27.37c-.9,2.25-2.07,9.23-2.42,12.71,0,.5,0,.63.26.25,1.08-1.5,1.8-4.36,2.25-6,.09-.37.63-.12.45.25-.45,1.62-2.07,7.23-3.59,7.23-1,0-1-1.5-.9-2.49.45-4.61,2-13.46,2.69-13.46Z" transform="translate(0 0)"/><path class="cls-5" d="M172.06,293.68c.18-.37.63-.12.45.25a5,5,0,0,1-3,3,26.61,26.61,0,0,1-.09,8,5.31,5.31,0,0,1-.63,1.87.91.91,0,0,1-.9.38c-.45,0-1.17-.38-1.17-.88a18.62,18.62,0,0,1,.09-2.11,95.64,95.64,0,0,1,2.24-14.58c.27-1.12.54-1.75.72-1.75.36,0,1.53.63,1.53,1V289l-.27.37a47.48,47.48,0,0,0-1.62,6.86,3.54,3.54,0,0,0,2.6-2.5Zm-3.23,11.46a23.56,23.56,0,0,0,.36-6.6c-.27,2.12-.54,4.36-.72,6.48a3.51,3.51,0,0,0,0,1.12c.18,0,.36-.74.36-1Z" transform="translate(0 0)"/><path class="cls-5" d="M172.24,291.69c.09-.25.18-.38.27-.38a2.16,2.16,0,0,1,1.16.75c.18.25,0,.5-.09.75-.36,1.24-.63,2.61-.9,4a20.9,20.9,0,0,1,2.43-5.23c.09-.12.18-.12.35-.12a1.85,1.85,0,0,1,1.08.62.48.48,0,0,1,0,.68.35.35,0,0,1-.09.07,5.78,5.78,0,0,0-1,2.86c0,.63.18.88.36.88.72,0,1.44-2,1.8-2.75.18-.37.63,0,.45.38-.36.87-1.17,2.86-2,3.24-.63.37-1.71-.5-1.8-1.5a6.55,6.55,0,0,1,.45-2.62c.09-.25,0-.12-.09,0a25.6,25.6,0,0,0-2.6,8c0,.25-.09.25-.18.25a1.42,1.42,0,0,1-1.17-1.25,36,36,0,0,1,1.53-8.6Z" transform="translate(0 0)"/><path class="cls-5" d="M185,298.41c-.53,1.5-1.16,2.87-2.06,2.87s-1.26-1-1.35-2c-.09-2.75.81-6.6,2.43-7.85.53-.5,1.25.12,1.8.5.53-3.62,1.25-6.73,1.7-6.73s1.61.62,1.61,1c0,0,0,.12-.09.12a.79.79,0,0,0-.18.38c-.9,2.24-2.06,9.22-2.42,12.71-.09.5,0,.62.27.25a21.92,21.92,0,0,0,2.33-6c.09-.38.54-.13.45.24-.45,1.62-2.06,7.23-3.59,7.23-1,0-1-1.49-.9-2.49v-.25Zm-1.88.13c-.09.87.09,1.37.36,1.37s.45-.25.63-.75a14.62,14.62,0,0,0,1.07-3.36c.09-1,.27-2,.36-3-.09-.25-.18-.38-.36-.38C184.09,292.31,183.28,296.3,183.1,298.54Z" transform="translate(0 0)"/><path class="cls-8" d="M232.28,144.41c-1.07,2.49-1.43,5.23.72,7.6,2.51,2.74,7.09,3.37,11.31,4a267.33,267.33,0,0,0,36.08,2.74c5.84.12,11.67-.12,17.42-.5,4.4-.37,7.44-1.87,8.88-4.86.27-.62.54-1.24.81-2,2.78-4,2.15-9.72,2.69-13.58v-.25a21.32,21.32,0,0,0,.45-2.25c1-4.61,2.33-10.21-2.33-13.33-5.3-3.61-14.9-2.74-21.55-3l-2-.12c-10-1.25-20.1-2.12-30.16-2.62-6.46-.37-15.35-1.49-18.67,2.62a2.92,2.92,0,0,0-2.06,2.49L232.37,144a.7.7,0,0,1-.09.37Z" transform="translate(0 0)"/><path class="cls-8" d="M232.64,237l1.53,22.68a3.09,3.09,0,0,0,2.06,2.49c3.32,4.23,12.12,3,18.67,2.61q15.21-.75,30.16-2.61l2-.13c6.64-.25,16.25.63,21.54-3,4.67-3.11,3.32-8.84,2.34-13.33a21.66,21.66,0,0,0-.45-2.24v-.25c-.54-3.86,0-9.6-2.69-13.58-.27-.63-.54-1.25-.81-2-1.53-3-4.49-4.48-8.89-4.86-5.74-.37-11.58-.62-17.41-.5A268.84,268.84,0,0,0,244.58,225c-4.22.63-8.8,1.13-11.31,4-2.07,2.37-1.8,5-.72,7.6a1.24,1.24,0,0,0,.09.38Z" transform="translate(0 0)"/><path class="cls-8" d="M193.78,248.08l-1.53-22.68a3.09,3.09,0,0,0-2.06-2.49c-3.32-4.23-12.12-3-18.67-2.61q-15.21.75-30.16,2.61l-2,.13c-6.64.25-16.25-.63-21.54,3-4.67,3.11-3.32,8.84-2.34,13.33a21.66,21.66,0,0,0,.45,2.24v.25c.54,3.86,0,9.59,2.7,13.58.27.62.54,1.25.8,2,1.53,3,4.49,4.49,8.89,4.86,5.74.38,11.58.63,17.41.5A265.59,265.59,0,0,0,181.84,260c4.22-.62,8.8-1.12,11.31-4,2.07-2.36,1.8-5,.72-7.6.09,0,0-.24-.09-.37Z" transform="translate(0 0)"/><ellipse class="cls-11" cx="272.31" cy="243.72" rx="13.82" ry="19.19"/><ellipse class="cls-11" cx="273.21" cy="139.05" rx="13.82" ry="19.19"/><ellipse class="cls-11" cx="152.85" cy="241.72" rx="13.82" ry="19.19"/><path class="cls-12" d="M263.34,149l14.36,3.12L281.11,127l-14.54-1.37Z" transform="translate(0 0)"/><path class="cls-13" d="M263.34,149l.9.62,14.45,3.49L282,128.46l-.9-1.5" transform="translate(0 0)"/><path class="cls-1" d="M277.7,152.14l1,1" transform="translate(0 0)"/><path class="cls-14" d="M277.25,130.58a3.09,3.09,0,0,0-.09-2c-.36-.75-1-.88-1.61-1.12a17.82,17.82,0,0,0-5.12-.75,16.28,16.28,0,0,0-2.42.12,1.52,1.52,0,0,0-1.26,1.37c0,.13-.09.38-.09.5a16.91,16.91,0,0,0-.36,3.62v.12c0,.25-.09.37-.09.62-.18,1.25-.36,2.74.36,3.62s2.06.74,3.05.87h.27a25,25,0,0,0,4.22.75c.9.12,2.15.37,2.6-.75a.76.76,0,0,0,.27-.62l.18-6.11c0-.12.09-.12.09-.25Z" transform="translate(0 0)"/><path class="cls-5" d="M265.22,141.67c.09-.13.45-.25.45-.13v.13c.09.5.45,1.74.72,2.74-.18-.62-.36-1.37-.45-1.87a6.47,6.47,0,0,1-.09-1.24,1.18,1.18,0,0,1,.18-.63c.63-.62,1.26,1.12,1,2.25a.61.61,0,0,1,.45.12,2.12,2.12,0,0,1,.09,2.49.32.32,0,0,1-.44.13h0c-.09,0-.18-.25-.09-.25a.29.29,0,0,0,.27-.13c.45-.5-.09-2.37-.45-2-.09.12-.18.25-.27.25s-.18,0-.18-.13.09-.25.18-.25c.27-.74-.18-2.36-.45-2.11a3.17,3.17,0,0,0,0,1.37,27.86,27.86,0,0,0,.81,3.11v.13a.33.33,0,0,1-.45,0h0a15.57,15.57,0,0,1-1.26-4Z" transform="translate(0 0)"/><path class="cls-5" d="M268.9,142.67a1.46,1.46,0,0,1-.09,1.12c-.18.12-.36.12-.45-.13a3.34,3.34,0,0,1-.44-2.61c.09-.25.26-.25.53-.38v-.24a.42.42,0,0,1,.36-.13c.09,0,.09.13.09.25a15.22,15.22,0,0,0,.63,1.87c0,.12.09,0,.09,0a6.69,6.69,0,0,0-.27-2c0-.13.09-.13.18,0,.09.5.45,2.11.09,2.49a.32.32,0,0,1-.44-.11v0c-.26.13-.26,0-.26-.12Zm-.54-1.37v-.25h-.18c-.26.25,0,1.5.27,2.12,0,.12.18.25.18.25.27-.25-.18-1.75-.27-2.12Z" transform="translate(0 0)"/><path class="cls-5" d="M268.36,138.31c.09-.13.45-.25.45-.13v.13a12.42,12.42,0,0,0,.63,2.24c0-.25-.09-.5-.09-.75a1.3,1.3,0,0,1,.09-.62c.18-.25.54,0,.63.12a4.59,4.59,0,0,1,.36,1.25,4.2,4.2,0,0,0,0-1.5c0-.12.09-.12.18,0a5.18,5.18,0,0,1-.09,2,3.29,3.29,0,0,1-.18,1.12h-.18s.09.12,0,.12a.31.31,0,0,1-.45,0h0a13.35,13.35,0,0,1-1.35-4Zm1.26,2.24a4.59,4.59,0,0,0,.36,1.25l.27-.38a4,4,0,0,0-.45-1.74c-.09-.13-.18-.13-.18.12Z" transform="translate(0 0)"/><path class="cls-5" d="M271.15,137.68a.42.42,0,0,1,.36-.12s.09,0,.09.12v.25c.18.5.27,1,.44,1.37a3.66,3.66,0,0,0-.09-1.74c0-.13.09-.13.09,0a5.4,5.4,0,0,1,0,2.12,6.43,6.43,0,0,1,.36,1.37,1.44,1.44,0,0,1-.18,1.24.43.43,0,0,1-.36.13c-.26-.13-.35-.5-.35-.88a4,4,0,0,1,.26-1.12c-.09-.25-.09-.37-.17-.62.08.5.08,1-.09,1.12a.34.34,0,0,1-.48,0,.27.27,0,0,1-.06-.1c0-.13-.09-.13-.09-.25a7.69,7.69,0,0,1-.54-2v-.12a.39.39,0,0,1,.36-.12c.09,0,.09.12.09.24a8.86,8.86,0,0,0,.54,1.75c.09.12.09.25.18.12a4.23,4.23,0,0,0-.27-2v-.13a.85.85,0,0,1-.09-.5c-.09-.12-.09-.12,0-.12Zm1,3.74a8.7,8.7,0,0,1-.26-.87,2.29,2.29,0,0,0-.09,1.37.25.25,0,0,0,.26.12c.18-.12.18-.37.09-.62Z" transform="translate(0 0)"/><path class="cls-5" d="M272.31,139.18a.75.75,0,0,1,.18-.5l.27-.38c-.27-.25-.63-.25-.9-.62a1.23,1.23,0,0,1,.09-1.12c.18-.12.54-.12.63.12a.5.5,0,0,1,0,.5.35.35,0,0,1-.27.13c.09-.13,0-.25,0-.38s-.09-.12-.18,0,0,.38.09.5.54.25.72.5a2.88,2.88,0,0,0,0-1.24c0-.13.09-.13.18-.13a2.73,2.73,0,0,1,0,1.5,1.27,1.27,0,0,1-.18,1.5c-.36.25-.63,0-.63-.37Zm.18-.25c-.18.25.09.5.27.25a.77.77,0,0,0,0-.63C272.76,138.68,272.58,138.8,272.49,138.93Z" transform="translate(0 0)"/><path class="cls-5" d="M273.57,134c0,.12,0,.12.09.24A.6.6,0,0,1,274,134s.18.12.18.24v.13c-.18.12-.27.25-.45.37a16.55,16.55,0,0,0,.81,2.37c.09.12.09.12.09,0a13.26,13.26,0,0,0-.18-2c0-.13.09-.13.18,0,.09.5.36,2.24,0,2.61s-.45-.12-.54-.37-.09-.13-.09-.25a2.15,2.15,0,0,1-.09,1.37.32.32,0,0,1-.44-.12h0c0-.12-.09-.12-.09-.25a8.36,8.36,0,0,1-.54-2v-.12a.45.45,0,0,1,.36-.13c.09,0,.09.13.09.25.18.63.36,1.5.54,2,0,.12.09,0,.09,0a9.44,9.44,0,0,0-.09-1.5c-.18-.37-.27-.87-.45-1.24l-.09.12c-.18.25-.45.37-.54,0a1.7,1.7,0,0,1-.18-.62v-.25c.09,0,.18-.13.36-.13s.09.13.18.25v.75l.18-.25c-.09-.12-.09-.37-.18-.5v-.37c.09-.13.45-.25.45-.13V134Z" transform="translate(0 0)"/><path class="cls-5" d="M274.38,133.07c0,.13,0,.13.09.25a.63.63,0,0,1,.36-.25l.18.13v.12c-.18.13-.27.25-.45.37a16.55,16.55,0,0,0,.81,2.37c.09.13.09.13.09,0a13.26,13.26,0,0,0-.18-2c0-.13.09-.13.18,0,.09.5.35,2.24,0,2.61s-.45-.12-.54-.37c-.27-.62-.54-1.37-.81-2.12l-.09.13c-.09.12-.27.25-.36.12v-.12a1.92,1.92,0,0,0,.36-.5c-.09-.13-.09-.38-.18-.5v-.38c.09-.12.45-.24.45-.12a.54.54,0,0,1,.09.25Z" transform="translate(0 0)"/><path class="cls-5" d="M274.83,131.7c.09,0,.18-.12.36-.12s.18.12.18.25a5.24,5.24,0,0,1,0,1.12c-.27.25-.45-.75-.45-.87C274.74,131.83,274.74,131.83,274.83,131.7Zm.81,3.74a7.73,7.73,0,0,1-.54-2v-.13a.43.43,0,0,1,.36-.12c.09,0,.09.12.09.25.18.62.36,1.49.54,2,0,.12.09,0,.09,0a4.78,4.78,0,0,0-.27-2c0-.13.09-.13.18,0,.09.5.45,2.24.09,2.61a.32.32,0,0,1-.44-.11h0c0-.38,0-.38-.09-.5Z" transform="translate(0 0)"/><path class="cls-5" d="M275.81,132.7v-.12a.42.42,0,0,1,.36-.13c.09,0,.09.13.09.25l.27,1.12a6.87,6.87,0,0,1-.09-1.87s0-.12.09-.12.36-.25.36-.13v.38c.18.62.36,1.37.54,1.87,0,.12.09.12.09,0a4.85,4.85,0,0,0-.27-2c0-.12.09-.12.18,0,.09.5.45,2.25.09,2.62-.18.12-.36.12-.45,0a7,7,0,0,1-.63-2,5.7,5.7,0,0,0,.45,2.61v.13a.33.33,0,0,1-.45,0h0C276.26,134.45,275.9,133.45,275.81,132.7Z" transform="translate(0 0)"/><path class="cls-5" d="M278.33,133.57c-.18.13-.36.13-.45,0a3.79,3.79,0,0,1-.45-2.61c0-.13.09-.25.18-.25a.29.29,0,0,0,.27-.13v-.25a.43.43,0,0,1,.36-.12s.09,0,.09.12v.13a9.49,9.49,0,0,0,.45,1.49,3.93,3.93,0,0,0-.09-1.74c0-.13.09-.13.09,0a5.81,5.81,0,0,1,0,2.12,7.06,7.06,0,0,1,.35,1.37,1.44,1.44,0,0,1-.18,1.24.42.42,0,0,1-.35.13c-.27-.13-.36-.5-.36-.88a3.67,3.67,0,0,1,.27-1.12c-.09-.25-.09-.37-.18-.62a1.23,1.23,0,0,1,0,1.12Zm-.27-.62c0,.12.18.25.18.25.18-.25-.27-1.75-.36-2.12,0-.12,0-.12-.09-.25h-.18a4.87,4.87,0,0,0,.45,2.12Zm.9,1.24a6.28,6.28,0,0,1-.27-.87,2.46,2.46,0,0,0-.09,1.37.29.29,0,0,0,.27.13,1.34,1.34,0,0,0,.09-.63Z" transform="translate(0 0)"/><path class="cls-10" d="M265,235.37h-.18l-.18.12-.18.12-.09.13-.09.25-.09.25-.09.25v14.07l.09.25.09.25.09.25.09.13.18.12.18.13h15.35l.18-.13.18-.12.09-.13.09-.25.09-.25.09-.25V236.49l-.09-.25-.09-.25-.09-.25-.09-.13-.18-.12-.18-.13H265Zm15,7.22v7.6H265v-7.6Zm0-6v2.87H265v-2.87Z" transform="translate(0 0)"/><path class="cls-10" d="M266.21,245.21l-.09.13H266v.12l-.09.25.09.12V246l.09.12.09.13h6l.09-.13.09-.12.09-.13v-.37l-.09-.12h-.09l-.09-.13Z" transform="translate(0 0)"/><path class="cls-10" d="M266.21,247.08h-.09l-.09.12v.13l-.09.12.09.25v.13l.09.12h4.31v-.12l.09-.13v-.37l-.09-.13v-.12Z" transform="translate(0 0)"/><path class="cls-10" d="M276.8,245.21l-.18.13-.09.12h-.09v.12l-.09.13v.87l.09.12v.13h.09l.09.12.18.13h1.7l.18-.13.09-.12h.09v-.13l.09-.12v-.87l-.09-.13v-.12h-.09l-.09-.12-.18-.13Z" transform="translate(0 0)"/><path class="cls-5" d="M152.4,256.92a12.77,12.77,0,0,1-4.49-1.74,11.33,11.33,0,0,1-1.34-1.25c-.09,0-.09-.12-.18-.12a7.23,7.23,0,0,1-2.78-.75,5.46,5.46,0,0,1-2.07-1.74,7.26,7.26,0,0,1-.54-1.25q-.13-.56.27-.75a2.29,2.29,0,0,1,2-.37c.71.12,1.34.37,2.06.5-.27-6,.54-11.59,3.5-16.2a5.94,5.94,0,0,1-.72-.87,3.25,3.25,0,0,1,.18-2.74.76.76,0,0,1,.9-.5c.18,0,.36,0,.45-.25a5.92,5.92,0,0,1,1.8-1.5,2,2,0,0,1,1.88.12,4.92,4.92,0,0,1,2,2.25A8.46,8.46,0,0,0,156,231c.09.13.09.13.18.13a1.17,1.17,0,0,1,.81,1.12,1.82,1.82,0,0,1-.36,1.37c-.09.12-.09.25-.18.37-.18.63-.27,1.37-.45,2s-.26.62-.71.5h-.18c.27-.63-.09-.87-.36-1.12a5.06,5.06,0,0,1-.63-1.25,1.22,1.22,0,0,0,1.53.81,1.15,1.15,0,0,0,.17-.06.85.85,0,0,0,.45-.87c-.45,0-.72-.25-.9-.88a1.93,1.93,0,0,1,.36-1.87,16.74,16.74,0,0,1-.9-1.86c-1.08-2-2.87-2.5-4.31-.75a6.56,6.56,0,0,0-.81,1,.26.26,0,0,1-.27.12.88.88,0,0,0-1.07.75,2.35,2.35,0,0,0,.36,2.24c.45.5.45.5.09,1.12-.45.88-.81,1.75-1.17,2.62a23.63,23.63,0,0,0-1.26,4.36c-.18,1.12-.27,2.24-.45,3.36a16.85,16.85,0,0,0-.09,3.62,20.91,20.91,0,0,0,.18,2.24c.09.62.18,1.12.27,1.74a5,5,0,0,0,2,3.37,14.85,14.85,0,0,0,3.5,1.62" transform="translate(0 0)"/><path class="cls-5" d="M153.93,256.67c.27,0,.54-.12.63-.62a1,1,0,0,0-.36-1,2.42,2.42,0,0,0-.9-.5,3.47,3.47,0,0,1-1.89-2.24l.09-.13a3.78,3.78,0,0,0,1.35,1.75,11.21,11.21,0,0,0,1.53-4c.26-1.5.35-3,.62-4.48v.25a18.6,18.6,0,0,1-.18,2.36c-.18,1.25-.44,2.37-.71,3.62-.09.25-.18.62-.27.87s-.09.25.09.37c.45.25.8.5,1.25.75a5.24,5.24,0,0,1,1.26.87,1.15,1.15,0,0,1,.36,1.12.83.83,0,0,1-.81.75" transform="translate(0 0)"/><path class="cls-5" d="M155.81,256.18a.76.76,0,0,0,.54-.38c.09-.12,0-.5-.09-.75s-.36-.62-.63-.74c-.62-.38-1.34-.75-2-1.13l-.54,1a8,8,0,0,1,1.35.88,1.54,1.54,0,0,1,.54.62c.09.25.26.5.44.5" transform="translate(0 0)"/><path class="cls-5" d="M155.45,236.12l.18-1.13c-.27-.12-.45,0-.45.38v.37c-.08.25,0,.37.27.37Z" transform="translate(0 0)"/><path class="cls-5" d="M156.35,231.38c-.27.37-.18.62.27.87Z" transform="translate(0 0)"/><path class="cls-5" d="M155.63,235.62l.36-1C155.54,234.87,155.81,235.37,155.63,235.62Z" transform="translate(0 0)"/><path class="cls-5" d="M149.71,240.35a10.87,10.87,0,0,1,1,1.25,6.64,6.64,0,0,0,4.75,3,5,5,0,0,0,3.15-.87c.26-.13.44-.38.71-.5.09,0,.18-.13.18-.13l.09.13c-.09.12-.26.25-.35.37-3.15,2.49-7.1,1.37-9.25-2.62a1,1,0,0,1-.27-.62Z" transform="translate(0 0)"/><path class="cls-5" d="M152.58,239.36c.18.37.45.74.63,1.12,1.08,1.74,2.42,2.24,3.95,1.87a2.17,2.17,0,0,0,1.08-1.13c.09-.12.09-.24.18-.37a.39.39,0,0,1,.09.5,2.51,2.51,0,0,1-2.7,1.62,4.73,4.73,0,0,1-2-1.12,5.86,5.86,0,0,1-1.35-2.12c0-.25,0-.25.09-.37Z" transform="translate(0 0)"/><path class="cls-5" d="M160.3,238.86a2.64,2.64,0,0,1-1.35,1.49,2.08,2.08,0,0,1-2.42-.62,4,4,0,0,1-1.08-1.5V238a1.62,1.62,0,0,1,.27.5,4.71,4.71,0,0,0,1.7,1.62c1,.5,1.89,0,2.7-1l.18-.25Z" transform="translate(0 0)"/><path class="cls-5" d="M160.93,240.6a.71.71,0,0,1-.18.38c-.36.37-.72.87-1.08,1.24-.09.13-.27.13-.27,0s.09-.25.18-.37l1.08-1.12A.29.29,0,0,1,160.93,240.6Z" transform="translate(0 0)"/><path class="cls-5" d="M154.47,235.12a.78.78,0,0,1-.45.75c-.09.12-.27.12-.36.25l-1.08.62c.18-.37.45-.75.72-.75a1.83,1.83,0,0,0,.9-.75.26.26,0,0,0,.27-.12Z" transform="translate(0 0)"/><path class="cls-5" d="M149,232.25a3.49,3.49,0,0,1-.09-2.12A4.24,4.24,0,0,1,149,232.25Z" transform="translate(0 0)"/><path class="cls-5" d="M160.93,236.86a.24.24,0,0,1-.21-.28.16.16,0,0,1,0-.09c.27-.62.63-1.25.9-1.87h.09Z" transform="translate(0 0)"/><path class="cls-5" d="M153.48,231.88c-.18-.25-.27-.5-.45-.75a1.27,1.27,0,0,0-.72-.12.56.56,0,0,1,.79-.2.55.55,0,0,1,.2.2C153.57,231.38,153.66,231.63,153.48,231.88Z" transform="translate(0 0)"/><path class="cls-5" d="M159.31,240.35l1.35-1.12C160.48,239.85,159.76,240.48,159.31,240.35Z" transform="translate(0 0)"/><path class="cls-5" d="M158.24,242.22l1-1.12C159.22,241.6,158.68,242.35,158.24,242.22Z" transform="translate(0 0)"/><path class="cls-5" d="M161,240c-.18.5-.9,1-1.26.75Z" transform="translate(0 0)"/><path class="cls-5" d="M159.22,242.1a1.14,1.14,0,0,1-1,.87v-.13Z" transform="translate(0 0)"/><path class="cls-5" d="M159.58,235.49l.09,1.75h-.18A6.42,6.42,0,0,1,159.58,235.49Z" transform="translate(0 0)"/><path class="cls-15" d="M155.45,256.18c-.18,0-.35-.13-.44-.5a1.12,1.12,0,0,0-.54-.63,8.64,8.64,0,0,0-1.35-.87l.54-1c.72.37,1.35.75,2,1.12.27.13.45.5.63.75a1.08,1.08,0,0,1,.09.75.73.73,0,0,1-.54.37" transform="translate(0 0)"/><path class="cls-6" d="M155.45,236.12c-.27,0-.36-.13-.36-.5v-.38c0-.37.18-.37.45-.37Z" transform="translate(0 0)"/><path class="cls-6" d="M156.35,231.38l.27.87C156.17,232,156.08,231.75,156.35,231.38Z" transform="translate(0 0)"/><path class="cls-6" d="M155.63,235.62c.18-.25-.09-.75.36-1Z" transform="translate(0 0)"/><path class="cls-16" d="M143.25,252.31a4.37,4.37,0,0,1,1.25-2.61" transform="translate(0 0)"/><path class="cls-16" d="M144.14,252.69a4.38,4.38,0,0,1,1.26-2.61" transform="translate(0 0)"/><path class="cls-16" d="M142.17,252.06a4.22,4.22,0,0,1,1.53-2.86" transform="translate(0 0)"/><path class="cls-16" d="M141.72,249.2s2-.13,4.13,2.12" transform="translate(0 0)"/><path class="cls-16" d="M141.45,250s2-.13,4,2.24" transform="translate(0 0)"/><path class="cls-16" d="M141.54,250.82a4.14,4.14,0,0,1,3.14,1.75" transform="translate(0 0)"/><path class="cls-16" d="M141.9,251.07a3.39,3.39,0,0,1,1-2.12" transform="translate(0 0)"/><path class="cls-16" d="M144.87,253.06a3.36,3.36,0,0,1,1-2.12" transform="translate(0 0)"/><g class="cls-17"><g class="cls-17"><path class="cls-18" d="M167.83,44.11c1,0,4.36,1.3,4.36,2.06a.4.4,0,0,1-.1.25,3.28,3.28,0,0,0-.6.85c-1.91,3.35-4.16,11.87-5.56,19a130.2,130.2,0,0,1,4.71-12.92,29,29,0,0,1,4.5-7.52,5.54,5.54,0,0,1,4-1.9c7.47,0,4.61,13.63-2.1,18a6.75,6.75,0,0,1,2.45,3.21c1.71,5.26-1.95,14.18-9.62,14.18A4.88,4.88,0,0,1,166,77.62c-.75-.85-.35-2.55.3-1.75a2.84,2.84,0,0,0,2.35,1.1c5.66,0,9.27-13.72,5.26-13.72a4.89,4.89,0,0,1-2.7-.15c-.55-.3-1.05-1.26-.9-1.61s1.45-.85,2.3-.85c5.21-2.9,9-14.07,5-14.07-1.5,0-3.56,2.75-5.56,7.36a140.63,140.63,0,0,0-7.12,21.84c-.1.45-.4.65-.95.65-1.2,0-3.3-1.1-3.3-2.2C160.67,65.75,165.73,44.11,167.83,44.11Z" transform="translate(0 0)"/><path class="cls-18" d="M181.91,71.11a62.94,62.94,0,0,1,3.86-14c.2-.4.45-.65.75-.65a6.51,6.51,0,0,1,3.2,1.46c.56.4-.05,1-.2,1.55a84.66,84.66,0,0,0-3.8,13.88c-.15.75.3.75.7.35,3.05-3.06,5.36-8.92,6.66-12.33a.7.7,0,0,1,1.3.5c-1.3,3.36-5.66,14.58-10,14.58a3,3,0,0,1-2.75-3.4C181.76,72.36,181.81,71.76,181.91,71.11Zm9-25.1a9.21,9.21,0,0,1,2.95,1.36c.75.5.75,1.15.2,2.05-.9,1.5-3.6,5.56-4.81,5.61-2.85.1-.2-6.41.45-7.61C190.18,46.52,190.58,46,190.93,46Z" transform="translate(0 0)"/><path class="cls-18" d="M198.49,56.23c1.91,0,5.26,2.56,5.26,4.76,0,4.66-5.46,8.27-9.32,8.27-.1,2.65.71,4.81,3,4.81,4.06,0,7.71-8.22,9.42-12.78.3-.85,1.6-.3,1.25.55-1.8,4.91-5.81,14.58-11.47,14.58C184.57,76.42,191.33,56.23,198.49,56.23Zm-4,11.88c2.71,0,5.72-4.06,5.72-8.07,0-1-.86-1.4-1.61-.8C196.64,60.74,194.94,64.7,194.53,68.11Z" transform="translate(0 0)"/><path class="cls-18" d="M208.16,57.08a.89.89,0,0,1,.7-.65,6.47,6.47,0,0,1,3.26,1.46c.5.4-.05,1-.25,1.55a72.33,72.33,0,0,0-2.46,8c1.81-3.86,4.46-8.62,6.87-10.62a1.29,1.29,0,0,1,.95-.36c.7,0,3.36.91,3.36,1.86a1.14,1.14,0,0,1-.15.55c-.21.4-.36.8-.56,1.25a87.32,87.32,0,0,0-3.5,13.23c-.15.75.2.85.7.35,3-3.06,5.36-8.92,6.66-12.33a.7.7,0,0,1,1.3.5c-1.3,3.36-5.66,14.58-10,14.58a2.7,2.7,0,0,1-2.91-2.65,73.25,73.25,0,0,1,3.36-14.38C212.17,63,208,72.46,207.71,75.87c0,.5-.3.55-.6.55-1.2,0-3.16-1.35-3.16-2.4A59.72,59.72,0,0,1,208.16,57.08Z" transform="translate(0 0)"/><path class="cls-18" d="M236,60c-.81,1.85-1.91,4.16-3.16,6.46a2.3,2.3,0,0,0,1.45.2c1.61-.3,3.06-2,5-5.46a.69.69,0,1,1,1.21.65c-2.11,3.91-4,5.82-5.92,6.17a3.34,3.34,0,0,1-2.35-.35,55.14,55.14,0,0,1-4.86,7.46,2.8,2.8,0,0,1-1.95,1.25c-1.51,0-4.31-1.25-4.31-2.85a66,66,0,0,1,2-16.43c.15-.46.4-.76.85-.76a7.11,7.11,0,0,1,3.21,1c.55.35,0,1.1-.05,1.55a92.69,92.69,0,0,0-2.45,14.43c-.06.45.1.6.45.15,1.8-2.41,4-7,5.36-9.77A12.55,12.55,0,0,1,232.91,57c.45-.71,1.1-.61,1.7-.26A2.88,2.88,0,0,1,236,60Z" transform="translate(0 0)"/><path class="cls-18" d="M244.58,56.23c1.91,0,5.26,2.56,5.26,4.76,0,4.66-5.46,8.27-9.31,8.27-.1,2.65.7,4.81,3,4.81,4.06,0,7.72-8.22,9.42-12.78.3-.85,1.6-.3,1.25.55-1.8,4.91-5.81,14.58-11.47,14.58C230.66,76.42,237.42,56.23,244.58,56.23Zm-4,11.88c2.7,0,5.71-4.06,5.71-8.07,0-1-.85-1.4-1.61-.8C242.73,60.74,241,64.7,240.63,68.11Z" transform="translate(0 0)"/><path class="cls-18" d="M254.25,57.08a.9.9,0,0,1,.71-.65,6.48,6.48,0,0,1,3.25,1.46c.5.4,0,1-.25,1.55a70.25,70.25,0,0,0-2.45,8c1.8-3.86,4.45-8.62,6.86-10.62a1.29,1.29,0,0,1,.95-.36c.7,0,3.36.91,3.36,1.86a1.14,1.14,0,0,1-.15.55c-.2.4-.35.8-.55,1.25a86.27,86.27,0,0,0-3.51,13.23c-.15.75.2.85.7.35,3.06-3.06,5.36-8.92,6.66-12.33a.7.7,0,0,1,1.31.5c-1.31,3.36-5.66,14.58-10,14.58a2.7,2.7,0,0,1-2.91-2.65,74,74,0,0,1,3.36-14.38c-3.36,3.61-7.57,13.07-7.82,16.48,0,.5-.3.55-.6.55-1.2,0-3.15-1.35-3.15-2.4A59.7,59.7,0,0,1,254.25,57.08Z" transform="translate(0 0)"/><path class="cls-18" d="M275.8,71.11a3.19,3.19,0,0,0,.1-.35c-1.51,3.06-3.36,5.66-5.61,5.66-1.91,0-3.71-2-3.56-3.4.1-.66.15-1.26.25-1.91a60.37,60.37,0,0,1,3.86-14c.2-.4.45-.65.75-.65a6.51,6.51,0,0,1,3.2,1.46c.51.4,0,1-.25,1.55A87,87,0,0,0,271,72c-.25,1.16.1,1.81.65,1.81,2.4,0,5.91-11,6.71-13.33.4-1.2.8-2.35,1.25-3.41a1,1,0,0,1,.76-.65,6.51,6.51,0,0,1,3.2,1.46c.55.4-.05,1-.2,1.55a85.77,85.77,0,0,0-3.81,13.88c-.15.75.3.75.76.35,3-3.06,5.31-8.92,6.61-12.33a.7.7,0,0,1,1.3.5c-1.3,3.36-5.66,14.58-10,14.58a3.07,3.07,0,0,1-2.75-3.4C275.65,72.36,275.75,71.76,275.8,71.11Z" transform="translate(0 0)"/><path class="cls-18" d="M292.33,56.23c1.9,0,5.26,2.56,5.26,4.76,0,4.66-5.46,8.27-9.32,8.27-.1,2.65.7,4.81,3,4.81,4.06,0,7.71-8.22,9.42-12.78.3-.85,1.6-.3,1.25.55-1.8,4.91-5.81,14.58-11.47,14.58C278.4,76.42,285.17,56.23,292.33,56.23Zm-4,11.88c2.71,0,5.71-4.06,5.71-8.07,0-1-.85-1.4-1.6-.8C290.48,60.74,288.77,64.7,288.37,68.11Z" transform="translate(0 0)"/></g></g><ellipse class="cls-19" cx="199.14" cy="570.2" rx="116.23" ry="47.47"/><ellipse class="cls-4" cx="187.56" cy="580.41" rx="116.23" ry="47.47"/><path class="cls-7" d="M65.41,459.93s1.8-18.69,13.55-27" transform="translate(0 0)"/><path class="cls-7" d="M60.65,450.21S61.73,437,69.72,430.9" transform="translate(0 0)"/><path class="cls-7" d="M10.05,472S11.4,455.5,21,447.9" transform="translate(0 0)"/></svg>