<svg data-name="Calque 1" id="Calque_1" viewBox="0 0 485.5 628.38" xmlns="http://www.w3.org/2000/svg">
    <defs>
        <style>
            .cls-1,.cls-10,.cls-11,.cls-2,.cls-4,.cls-6{fill:none;}.cls-2{stroke:#707070;}.cls-3{fill:#fff;}.cls-4{stroke:#484848;}.cls-4,.cls-6{stroke-miterlimit:10;}.cls-5{fill:#484848;}.cls-6{stroke:#626262;}.cls-7{fill:#5eb676;opacity:0.67;}.cls-12,.cls-13,.cls-7,.cls-8{isolation:isolate;}.cls-8{fill:#00a6c4;opacity:0.93;}.cls-9{fill:#626262;}.cls-10,.cls-11{stroke:#fff;stroke-linecap:round;stroke-linejoin:round;}.cls-10{stroke-width:0.5px;}.cls-11{stroke-width:0.25px;}.cls-12{fill:#ff6679;opacity:0.48;}.cls-14{fill:#5f5f5f;}
        </style>
    </defs>
    <title>Etape 2</title>
    <rect class="cls-1" height="150" width="116" x="77.21" y="153.21"/>
    <rect class="cls-2" height="149" width="115" x="77.71" y="153.71"/>
    <rect class="cls-3" height="83" width="33" x="175.21" y="217.21"/>
    <path class="cls-4" d="M247.72,473.22l39.36-42.54,37.43,43"/>
    <path class="cls-4" d="M231.71,495.13,219,509.78l60.46,69.44,70.86-81.39L342,488.28"/>
    <path class="cls-4" d="M290.73,430.68h6.12l34.28,39.65"/>
    <path class="cls-4" d="M352.7,483.56l11.5,13.78-4.27.49"/>
    <path class="cls-4" d="M285.05,579.22l4-.35,71.12-81.67"/>
    <path class="cls-5"
          d="M331.22,502.8a54.14,54.14,0,0,0,10.09-16.15c.09-.22.2-.46.3-.72a73.32,73.32,0,0,0,4.25-14.74c.32-1.74.64-3.48,1-5.21,3.16-15.13,2.05-30.07-2.17-44.61-1.92-6.62-5.11-12.76-7.81-19.06-.79-1.84-1.88-3.5-2.83-5.25l.6-.73c.76.39,1.71.55,2.24,1.18,3.86,4.56,8,8.88,11.35,13.89,9.43,14.1,14.4,30,17.19,47,1.87,11.47,3.06,18,3.1,35.61-.2,12.54-2,23.14-3.51,34.62-.89,6.93.46,6.9,6.25,8.56,3.66,1,7.28,2.22,10.92,3.35,4.13,1.27,7.23,4.4,10.24,7.66,4.18,4.53,3.9,10.47-1.08,13.59a55.08,55.08,0,0,1-12.09,5.6c-7,2.27-14.07,3.9-21.1,5.88-4.62,1.3-9,1.38-12.87-2.46a5.06,5.06,0,0,0-3.76-1.07c-10.31,1-20.59,2.4-30.9,3.17a32,32,0,0,1-9.43-.16l3.45-3.94c2.65.36.57.06,3.25-.07,5.88-.28,11.76-.74,17.63-1.13a90.37,90.37,0,0,0,13.8-1.91c10.37-2.36,17.5-31.2,17.5-31.2a197.16,197.16,0,0,0,5.79-32,162.86,162.86,0,0,0-5.09-58.71,5,5,0,0,0-.41-1.05c-.06-.13-.27-.16-.6-.33a15.17,15.17,0,0,0-.22,2.23c.54,9.13-1.13,17.93-3.24,26.59A73.83,73.83,0,0,1,347.55,487S337,507,328,511.72"/>
    <path class="cls-5"
          d="M331.42,389.26c.65-.94,1.25-1.92,1.94-2.82,1.89-2.46,3.95-4.77,5.7-7.35,3.87-5.68,4.2-16.67.83-22.8-1.52-2.75-3.54-4.7-6.5-4.82a2.69,2.69,0,0,0-1.95.89c-.21.24.21,1.36.5,2,2.3,4.82,5.17,9.49,4.49,15.36a57.32,57.32,0,0,1-2,8.27,15.83,15.83,0,0,1-1,2.29l-1.06-1.13a30.74,30.74,0,0,0,.77-5.8,6.6,6.6,0,0,0-1.7-4c-1.14-1.1-1.07-2-1-3.47a60.23,60.23,0,0,0-.07-10c-.31-2.74-1.83-3.09-3.44-.9a46.21,46.21,0,0,0-3.37,5.77c-1.51,2.82-2.81.07-4.55-2.64-1-1.53-1.55-3.4-2.47-5-3.5-6.1-8.63-9.6-14.55-11.81a35,35,0,0,0-21.41-1.41c-7.2,1.83-12.95,9.23-17.82,15.36a13.62,13.62,0,0,0-1.43,3c-.6,1.41-.3,2.25.85,3.38a22,22,0,0,1,3.53,5.45c.28.55-.17,1.59-.28,2.4-.66-.21-1.34-.38-2-.64-.21-.09-.33-.5-.55-.58-1.2-.45-3.7-.84-4.91-1.26-.17,1.4-.36,2.81-.5,4.21a5.31,5.31,0,0,0,.16,1.13c-2.14-.57-1.37-1.37-1.32-4.92a40.4,40.4,0,0,0,.12-6.58c-.61,1.1-1.53,2.13-1.76,3.33-.55,2.91-.71,5.91-1.17,8.85a8.82,8.82,0,0,1-1.08,2.33c-.54-.64-.15-1.19-.3-1.93-1.32-6.57-2.22-11.62,1.33-17.08,1.44-2.22,4.45-3.1,6.77-4.57a13.07,13.07,0,0,0,3.22-3.45c3.84-6.45,9.64-9.55,15.65-12.14a32,32,0,0,1,25.24-.18c6.09,2.44,11.83,6.18,15.29,13,1,2,2,2.1,3.65.8,3.58-2.77,7.24-5.1,12-4,5.22,1.2,10.57,6.9,11.73,12.9A27.38,27.38,0,0,1,342.08,381a63.49,63.49,0,0,1-6.4,7.4c-1,1-2.48,1.28-3.75,1.89Z"/>
    <path class="cls-5"
          d="M243.87,531.89c-3.46,10.6-.46,14.47,3.07,24.62,1.21,3.48,1.11,3.55-2.1,4.76a99.76,99.76,0,0,0-11.31,4.86,4.81,4.81,0,0,0-2.25,6.42,4.88,4.88,0,0,0,2,2.14A15.69,15.69,0,0,0,241,577c7.31-.06,14.62-.76,21.92-1.16,4.29-.23,8.58-.31,12.87-.53a2.66,2.66,0,0,0,2.61-2.7,2.92,2.92,0,0,0-.05-.5c-.06-.51-1.8-1.17-2.75-1.12-6.55.31-13.1,1.05-19.65,1.11a39.66,39.66,0,0,1-10.19-1.76c-1-.26-1.74-1.82-2.6-2.78a29.69,29.69,0,0,1,2.4-2.61,4.06,4.06,0,0,1,1.86-.85c5.69-1.23,11.39-2.4,17.07-3.63a12.76,12.76,0,0,0,2.06-.85l-.09-.88a12.51,12.51,0,0,0-2.5-.46c-2.19,0-4.38.26-6.56.21a2.83,2.83,0,0,1-2.14-1c-5.06-8.14-7.57-10.81-7.36-20.79,0-.66-.33,1.22,0,0Z"/>
    <path class="cls-5"
          d="M277.18,507.06c-.19,3.48-.67,3.4-3.4,2.54a25.13,25.13,0,0,1-9.92-5.68c-1.5-1.4-4.07-1.17-5.86-2.29-7.95-5-12.84-12.83-15.52-22.6-4.37-15.95-3.34-31.66,1.82-47.13a36.79,36.79,0,0,1,10.5-16.06,7.87,7.87,0,0,1,2.56-1.35l.67.67a13.47,13.47,0,0,0-4.22,3.84c-5.75,8.6-8.26,18.53-8.83,29.14-.42,7.87-.7,14.15.77,23.68a65.36,65.36,0,0,0,8.9,22.66c3,2.51,3,2.51,4.48,3.73l.68-.68a32.2,32.2,0,0,1-1.1-3.27,24.71,24.71,0,0,1-1-5.32c0-1,.85-2.07,1.32-3.11a10.28,10.28,0,0,1,2.19,2.37c1.18,2.55,2.08,5.28,3.19,7.87a5.44,5.44,0,0,0,2.35,2.55,15.13,15.13,0,0,1,.17-2.33,25.91,25.91,0,0,1,.95-2.73c.81.68,1.87,1.17,2.39,2.08A30.65,30.65,0,0,1,272,500.3a7.44,7.44,0,0,0,.71-1c.5-1.24,1-2.49,1.45-3.74a25.63,25.63,0,0,1,3,2.62,18.67,18.67,0,0,1,2,3.31C280.89,504.79,280.45,506.06,277.18,507.06Z"/>
    <path class="cls-5"
          d="M323.75,513.53a14.34,14.34,0,0,1-8.72.08c-2-.6-2.35-.77-.62-4-1.35-2.56-.93-3.91,1.79-6a10.44,10.44,0,0,1,6-2.8c-.39,1.36-.77,2.73-1.14,4.1a9.87,9.87,0,0,0-.1,1.22,35,35,0,0,1,3.46-3.32,6.31,6.31,0,0,1,2.48-.66c-.3,1-.53,2-.9,2.94a21.46,21.46,0,0,1-1.14,2.18,4.18,4.18,0,0,0,2.7-1.1c2-1.77,4-3.77,6-5.47a7.86,7.86,0,0,1,2.51-1,12.85,12.85,0,0,1-.88,3.46,31.9,31.9,0,0,1-3.38,4.29c-.75.87-1.58,1.6-2.37,2.39l0,.95S328.24,511.84,323.75,513.53Z"/>
    <path class="cls-5"
          d="M275,381.74l-3.27,1.42a11.36,11.36,0,0,0,1.64,2.9c1.13,1,2.51,2.25,3.74-.19,1.35,7.17-.14,10.08-6.3,12.63-3,1.23-3.31,2.54-1.32,5.43,3.88,5.65,10.71,6.16,16.15,1.06a65.88,65.88,0,0,0,5.3-5.78,8.31,8.31,0,0,0,.93-2.41l1.44,1.45a24.2,24.2,0,0,1-1.38,3.28,42.85,42.85,0,0,1-13,13,30.75,30.75,0,0,0-2.58,1.82c-2.66,2.25-5.41,3.74-8.88,2.68-1.36-.42-3.52.52-4.2-.34-1.34-1.67-1.85-4.2-2.79-6.32a35.2,35.2,0,0,0-2.41-4.84,22.42,22.42,0,0,1-3.95-13.05l.73-.34a23.59,23.59,0,0,0,1.06,2.6,32.21,32.21,0,0,0,3.29,5.34c1.3,1.49,3.05,1.47,4.6.06,1.7-1.57,1.7-3-.2-4.25a12.61,12.61,0,0,1-5-7c-1.76-5.46-.15-10.05,4.44-12.41C267.14,376.43,273.05,378.06,275,381.74Zm-7.66,26.9-.72.37a52.62,52.62,0,0,0,1.07,5.43,2.1,2.1,0,0,0,1.7,1.25A3,3,0,0,0,271.2,414a2.83,2.83,0,0,0-.38-2.28,35.21,35.21,0,0,0-3.46-3.11Zm-2.78,6.6.88-.24c-.38-1.6-.75-3.22-1.19-4.81,0,0-.8.23-1.22.35Z"/>
    <path class="cls-5"
          d="M302.66,366.32c-1.29.69-2,1.4-2.81,1.44-2.91.19-5.68.6-7.82,3.27-.29.36-1.41.49-1.51.29a3.34,3.34,0,0,1-.35-2.08c.86-3.58,7.05-7.08,10.09-5.63C301.05,364,301.59,365.08,302.66,366.32Z"/>
    <path class="cls-3"
          d="M267.37,408.64a34,34,0,0,1,3.46,3.11,2.78,2.78,0,0,1,.37,2.28,2.91,2.91,0,0,1-1.78,1.65,2.06,2.06,0,0,1-1.7-1.25,53,53,0,0,1-1.07-5.42Z"/>
    <path class="cls-3" d="M264.58,415.24l-1.52-4.7c.42-.12,1.2-.38,1.21-.35.44,1.59.81,3.2,1.19,4.81Z"/>
    <ellipse class="cls-6" cx="167.12" cy="531.15" rx="20.53" ry="6.4"/>
    <path class="cls-6" d="M164.92,531.15s5.9-14.11-3.39-31.71c-5.49-10-6.5-23.34-2.57-34.73"/>
    <path class="cls-6"
          d="M176.06,529.74s-1.42-75.1,2.92-84.89c4.13-9.41,6.71-.47,6.91,3.11s-1.08,8.09-3.32,3.76a21,21,0,0,1-2.37-8.56"/>
    <path class="cls-6"
          d="M158.11,448.71s-2.78-5.18-7.66,1.79-3.94,12.14-3.94,12.14c.88-3.3,3.26-5.46,5.77-5.27,4.54-.1,7.39-2.26,5.83-8.66Z"/>
    <path class="cls-6"
          d="M162.88,467.06s-4.41.94-4.68-7.15c0,0,.41-6.5,4.54-2.26C162.74,457.65,165.32,461.13,162.88,467.06Z"/>
    <path class="cls-6" d="M172.2,468.19s-7.26-4.89-8.61,5.55,5.76,4.14,5.76,4.14-.41-9.12,2.84-9.69"/>
    <path class="cls-6" d="M156.58,482.21s7.18-4.89,8.54,5.55-5.76,4.14-5.76,4.14.47-9.12-2.78-9.69"/>
    <path class="cls-6" d="M179.11,481s-4.4.94-4.67-7.15c0,0,.4-6.5,4.54-2.26C179,471.58,181.56,475.06,179.11,481Z"/>
    <path class="cls-6" d="M146.58,531.15l6.56,48.29s14.59,13.45,29.71,0l4.8-48.29"/>
    <path class="cls-7"
          d="M172.32,476.29a7,7,0,0,0,.75-4.9c-.61-2.92-2.78-4.61-4.88-3.86-3.66,1.23-9.09,6.31-7.25,12.33,1.15,3.39,4,4.8,6.44,3.3a6.53,6.53,0,0,0,2.57-3.39c0-.1.07-.19.07-.28A4.89,4.89,0,0,0,172.32,476.29Z"/>
    <path class="cls-7"
          d="M184.4,442.5a2.19,2.19,0,0,0-2.38-.75c-1.42.56-2.23,2.63-1.9,4.61.62,3.38,3.06,8.56,6,6.77,1.63-1,2.37-3.76,1.56-6a4.93,4.93,0,0,0-1.63-2.45l-.14-.09A3.2,3.2,0,0,0,184.4,442.5Z"/>
    <path class="cls-7"
          d="M180.4,474.87a2.22,2.22,0,0,0-2.38-.75c-1.42.57-2.23,2.64-1.9,4.61.62,3.39,3.06,8.57,6,6.78,1.63-1,2.37-3.77,1.56-6a4.9,4.9,0,0,0-1.63-2.44H182a3.71,3.71,0,0,0-1.55-2.17Z"/>
    <path class="cls-7"
          d="M158.17,455.39a6.23,6.23,0,0,0,.89-5.08c-1-3.2-3.53-4.89-5.9-3.95-4.41,1.32-11,6.49-8.75,12.8a5.48,5.48,0,0,0,7.8,3.39,7.26,7.26,0,0,0,3.12-3.49c0-.09.07-.18.07-.28A5.6,5.6,0,0,0,158.17,455.39Z"/>
    <path class="cls-7"
          d="M162.28,482.31a2.18,2.18,0,0,0-2.37-.75c-1.43.56-2.24,2.63-1.9,4.61.61,3.39,3.05,8.56,6,6.87,1.63-1,2.37-3.77,1.56-6.12a4.2,4.2,0,0,0-1.63-2.35l-.13-.1A3.44,3.44,0,0,0,162.28,482.31Z"/>
    <path class="cls-8"
          d="M156,177.72c.27-4.59-.22-9.43-2.73-13.19-3.08-4.56-7.4-4.89-11.48-5.37a128.51,128.51,0,0,0-33.82.43A101.48,101.48,0,0,0,92.12,163c-3.9,1.25-6.3,4.41-6.8,9.91-.09,1.15-.16,2.42-.25,3.57-1.39,7.29.67,17.43,1.32,24.39l.08.5c0,1.38.16,2.75.29,4.12.38,8.14.72,18.3,5.87,23.29,5.87,5.5,14.43,2.76,20.52,2.17l1.79-.16a195.1,195.1,0,0,0,28.4.3c6-.33,14.52.47,16.37-7.39a5.58,5.58,0,0,0,1.18-4.6L156,179c0-.63,0-1,0-1.26Z"/>
    <path class="cls-9"
          d="M92.23,275.83c.44-.7,2.68-2.06,3-1.49,0,.12.11.11.13.23l.15,1c.94,3.64,4.55,10.89,7.74,16.69-1.82-4-3.5-8.28-4.81-12a42.2,42.2,0,0,1-2-8.13,6.14,6.14,0,0,1,.81-4c3.39-5,9.45,6.32,8.72,13.76a3.61,3.61,0,0,1,2.82.56c3.57,2.46,6.74,11,3.28,16.13a2.6,2.6,0,0,1-2.59,1.43c-.84-.12-1.52-1.53-.77-1.4a1.83,1.83,0,0,0,1.7-.78c2.58-3.81-3.2-15.64-5-12.95a4.52,4.52,0,0,1-1.27,1.72,1.16,1.16,0,0,1-1.27-.55,3.36,3.36,0,0,1,.57-2.11c.78-5.42-3.48-15.72-5.33-13-.66,1-.14,4.31,1.47,8.72a169.62,169.62,0,0,0,8.57,19.71.75.75,0,0,1-.1,1c-.51.84-2,1.46-2.71.68-4.68-5.44-14-23.76-13.08-25.18Z"/>
    <path class="cls-9"
          d="M117.1,279.09c0-.13-.11-.11-.12-.24,1,3.12,1.5,6.07.47,7.62-.88,1.28-2.08,1.22-3.16.13-3.24-3.27-6.67-11.18-5.84-16.24.19-1.67,1.68-2,3-2.61a1.56,1.56,0,0,0-.28-.58,1.25,1.25,0,0,1,0-1,2.91,2.91,0,0,1,2.18-1.1c.45-.07.58.79.75,1.27A98.57,98.57,0,0,0,120,278.25c.36.57.5.3.51-.21-.29-4.11-2.52-9.56-3.75-12.77-.31-.84.51-1.35.83-.51,1.23,3.21,5.34,13.66,3.43,16.48-.82,1.14-2.25.74-3.08-.52a7.15,7.15,0,0,0-.81-1.64Zm-4.67-8.85c-.15-.36-.31-.83-.46-1.19a.69.69,0,0,0-.85.39c-1.55,2.26,1.86,10.05,4.07,13.1.26.47,1.19,1.71,1.55,1.15,1-1.68-3.34-11.34-4.31-13.45Z"/>
    <path class="cls-9"
          d="M109.31,250.55c.44-.7,2.67-2.06,3-1.49,0,.12.11.11.12.23l.16,1c.75,3,3.48,8.78,6.2,13.9-.43-1.57-1-3.13-1.29-4.72s-.44-3.33.15-4.18c1-1.42,3.33-.79,4.24.34a24.06,24.06,0,0,1,3.63,8,22.59,22.59,0,0,0-1.57-9.34c-.32-.83.6-1.35.91-.52a25.23,25.23,0,0,1,1.32,12.91c.51,3.2.49,6-.31,7.24-.2.41-.83.51-1.18.56.13.23.54.55.16,1-.51.84-2,1.46-2.71.68C117.69,270.16,108.35,252,109.31,250.55Zm10.62,13.71a34.11,34.11,0,0,0,3.44,7.91,24.31,24.31,0,0,0,1.11-2.7,32.33,32.33,0,0,0-4.64-11c-.82-1.13-1.49-.78-1.17.69a31.93,31.93,0,0,0,1.26,5.1Z"/>
    <path class="cls-9"
          d="M126.38,243.56a3,3,0,0,1,2.28-1.12c.26,0,.41.31.55.67s.32.83.47,1.19c1.39,3,3,6.33,4.31,8.9l.24.34a34,34,0,0,0-2.11-11c-.31-.83.51-1.34.83-.51a37.06,37.06,0,0,1,2.32,13.51,89,89,0,0,1,4,8.45c1.31,3.08,1.72,5.66,0,8.34a2,2,0,0,1-2.29,1c-1.7-.36-2.92-2.94-3.19-5.17-.34-2.72.23-5.46.46-8-.66-1.29-1.3-2.45-2-3.73,1,3.11,1.5,6.07.48,7.62a2.09,2.09,0,0,1-2.9.58,2.35,2.35,0,0,1-.55-.54c-.26-.47-.62-1-.87-1.5a77.61,77.61,0,0,1-5.84-12.2,1.23,1.23,0,0,1,0-1,2.93,2.93,0,0,1,2.19-1.11c.44-.07.58.79.72,1.15a97.31,97.31,0,0,0,5.2,11c.51.93,1,1.23,1.31.81,1-1.41-2.33-9.6-3.74-12.78-.13-.23-.17-.48-.3-.71a22.57,22.57,0,0,1-1.36-3.44A.6.6,0,0,1,126.38,243.56Zm10.87,23.88c-.72-1.65-1.56-3.53-2.41-5.42-.14,2.55-.77,6.56,1,8.67.46.56,1.23.82,1.68.24s.44-1.83-.28-3.49Z"/>
    <path class="cls-9"
          d="M136.6,252.91a5.75,5.75,0,0,1,.43-3.63c.4-.83.88-1.68,1.21-2.37-1.85-1.69-4.39-.59-6.51-3.25a6.31,6.31,0,0,1-.39-7.14c.77-1.28,3.18-1.09,4.22.12.58.65,1.13,2.7.85,3.14-.51.72-1.6,1.3-1.84,1l0-.24a3,3,0,0,0-.56-2.56c-.35-.45-.75-.62-.95-.21-.57.87.4,2.71.87,3.26,1.5,1.76,3.69,1.23,5.39,2.06a15.09,15.09,0,0,0-1.52-8.33c-.31-.71.49-1.36.82-.53a16.51,16.51,0,0,1,1.63,9.45c2.65,2.56,2.11,7.6.39,10.19C139.18,256.11,137.2,255.21,136.6,252.91Zm1-2.08c-.66,1.89,1.35,3.43,2,1.29a6.81,6.81,0,0,0-.49-4.22c-.28.94-1.1,2-1.47,2.93Z"/>
    <path class="cls-9"
          d="M138.64,217.46a13.62,13.62,0,0,0,.6,1.28,6.43,6.43,0,0,1,2-2.13c.26-.05,1.12.68,1.37,1a1.89,1.89,0,0,1,.26.46s-.08,0-.06.14a11.69,11.69,0,0,0-2.49,2.85,157.4,157.4,0,0,0,8.14,14.73c.62.91.8.88.69-.25a58.89,58.89,0,0,0-3.55-13c-.34-.82.48-1.35.81-.53,1.31,3.18,5.17,14.39,3.39,17.12-1.22,1.86-2.88-.24-3.85-1.58-.35-.45-.62-.91-1-1.47,1.13,3.72,2,7.49.91,9.08-.7,1.15-2.23.79-3.09-.45-.27-.46-.62-.91-.91-1.48A69.2,69.2,0,0,1,135.73,231a1.24,1.24,0,0,1-.07-.87,3.75,3.75,0,0,1,2.23-1.29c.44-.08.6.78.78,1.25a97.08,97.08,0,0,0,6.08,11.94c.38.56.51.29.49-.34a38,38,0,0,0-2.64-9.53c-1.47-2.52-3-5.28-4.45-7.93a5.51,5.51,0,0,1-.49.85c-.92,1.43-2.27,2.56-3.69.79a13.63,13.63,0,0,1-1.92-4.08,6,6,0,0,1-.34-1.84,4.87,4.87,0,0,1,2.08-1.13c.61-.12,1,.33,1.24,1.29s.68,2.79,1,4.38c.42-.71.73-1.52,1.06-2.22-.55-1-1.13-2.2-1.62-3.38s-.62-1.91-.4-2.2c.42-.71,2.49-1.85,2.94-1.42,0,.12.11.1.13.23l0,.24a4.75,4.75,0,0,0,.48,1.69Z"/>
    <path class="cls-9"
          d="M142.83,210.87c.18.48.44.94.62,1.41.64-1,1.45-2,2-2.13.27-.05,1.11.56,1.35.89s.25.34.18.48-.09,0-.07.14a11.68,11.68,0,0,0-2.4,2.84c2.57,5.11,5.87,11.22,8.07,14.75.59.77.79.87.7-.13a57.67,57.67,0,0,0-3.55-13c-.33-.83.48-1.36.82-.53,1.31,3.18,5.16,14.38,3.38,17.11-1.21,1.87-2.85-.11-3.85-1.58a137.21,137.21,0,0,1-7.65-13,3.35,3.35,0,0,1-.51.72c-.44.59-1.35,2.15-2.36,1.57-.31-.19-.33-.32-.13-.73.71-1.15,1.29-2.39,1.91-3.52-.57-1.16-1.13-2.2-1.61-3.38s-.62-1.91-.4-2.2c.41-.71,2.47-2,2.93-1.42l.09.49c.15.44.32.88.51,1.3Z"/>
    <path class="cls-9"
          d="M144,201.55a7.6,7.6,0,0,1,2-1.12c.62-.11,1,.21,1.24,1.3.47,1.56,1.49,6.19,1,7-1.19,2-3.68-4.14-4-5.47-.27-1-.36-1.46-.22-1.74Zm10,23a78.89,78.89,0,0,1-6.11-12.06,1.19,1.19,0,0,1,0-1,3.43,3.43,0,0,1,2.16-1.16c.44-.08.6.78.75,1.13a104.36,104.36,0,0,0,6,12c.38.56.51.29.51-.22-.38-4.11-2.57-9.66-3.88-12.85-.33-.82.48-1.35.82-.52,1.31,3.18,5.58,13.67,3.73,16.54-.79,1.16-2.23.79-3.09-.45-.27-.46-.62-.91-.89-1.36Z"/>
    <path class="cls-9"
          d="M151.48,206.77a1.24,1.24,0,0,1-.07-.87,3,3,0,0,1,2.25-1.17c.45-.08.6.78.78,1.25a76.09,76.09,0,0,0,3.37,7c-1.34-3.81-2.8-8.87-2.87-11.77a1.42,1.42,0,0,1,.2-.92c.28-.43,2-1.63,2.44-1.08a2.4,2.4,0,0,1,.27.46c.16.36.33.83.49,1.18a97.71,97.71,0,0,0,5.78,11.24c.37.56.53.41.51-.22-.39-4.11-2.58-9.67-3.89-12.85-.33-.82.49-1.35.82-.53,1.31,3.18,5.59,13.68,3.73,16.55a1.53,1.53,0,0,1-2,.72,1.5,1.5,0,0,1-.66-.61,79.17,79.17,0,0,1-6.47-12c.58,4.7,3.91,14,5.72,16.43.25.34.2.6,0,.75-.49.85-2.14,1.28-2.74.5a62,62,0,0,1-7.66-14.06Z"/>
    <path class="cls-9"
          d="M169,209.29c-.86,1.3-2.06,1.26-3.16.19-3.25-3.33-6.84-11-6.12-16.11a2.7,2.7,0,0,1,1.12-1.85,11,11,0,0,1,1.77-.83,2.62,2.62,0,0,0-.29-.58,1.24,1.24,0,0,1-.07-.87,3,3,0,0,1,2.25-1.17c.27,0,.42.3.58.65s.33.83.49,1.18c1.48,3.15,3.14,6.27,4.51,8.8l.25.34a34.14,34.14,0,0,0-2.36-11c-.33-.83.49-1.35.82-.53A37.4,37.4,0,0,1,171.42,201a89.09,89.09,0,0,1,4.16,8.36c1.28,3.06,1.86,5.74.14,8.33a2.32,2.32,0,0,1-2.25,1.17c-1.81-.43-3-2.88-3.21-5.12-.38-2.59.1-5.46.19-8-.58-1.16-1.26-2.43-1.86-3.71.86,2.75,1.4,5.69.4,7.27Zm-2.35-3.88c.27.46,1.22,1.68,1.57,1.11,1.08-1.59-3.59-11.25-4.52-13.36-.16-.36-.34-.83-.49-1.18a.68.68,0,0,0-.84.41c-1.59,2.31,2,9.89,4.28,13Zm7.08,7.33c-.76-1.64-1.64-3.51-2.53-5.37-.08,2.55-.63,6.57,1.21,8.64.46.55,1.26.92,1.68.21s.39-1.85-.36-3.48Z"/>
    <path class="cls-5"
          d="M199.31,238.55c.86.53,1.76,1,2.57,1.6,3.06,2.24,4.91,5.4,6.76,8.62,2.54,4.43,3.41,9.33,4.14,14.26.59,4,1.17,8.06,1.4,12.1a98.11,98.11,0,0,1-.27,10.57c-.06,1.14.31,1.29,1.32,1.32a24.55,24.55,0,0,1,14.12,4.87,4.11,4.11,0,0,1,1,5.47,9.58,9.58,0,0,1-5.59,4.29c-6.26,2.06-12.1.92-17.82-1.83a1.56,1.56,0,0,1-.5-.29c-1.48-1.52-3-1.12-4.77-.41a34,34,0,0,1-13.15,2.27c-2.49,0-5,.14-7.48.15a14,14,0,0,1-2.73-.3,2.9,2.9,0,0,1-2.41-2.2,2.42,2.42,0,0,1,1.5-2.73,19.14,19.14,0,0,1,3.82-1.52,50.72,50.72,0,0,0,10.71-4.4,16.8,16.8,0,0,0,1.72-1.33l.19.23a18.56,18.56,0,0,1-3.21,2.43c-2.92,1.35-6,2.41-8.91,3.7a11.57,11.57,0,0,0-3.25,2c-1.16,1.07-.88,2,.65,2.38a25.89,25.89,0,0,0,4.87.71,46.91,46.91,0,0,0,18.63-2.85c3-1.15,6.13-2.35,7.3-5.82a48.76,48.76,0,0,0,1.34-4.87c1.23-5.48.82-11,.32-16.5-.39-4.3-1.23-8.57-1.89-12.85A4.2,4.2,0,0,0,209,256c-.23.8-.44,1.6-.68,2.4-1.35,4.61-3.65,8.63-7.6,11.49a22.82,22.82,0,0,1-7.56,3.52c-1.19.32-2.37.63-3.57.91-.21,0-.47-.1-.7-.16.16-.21.28-.54.49-.6,1.65-.49,3.34-.87,5-1.38,6.5-2,10.48-6.53,12.88-12.77,2-5.08.33-9.38-2.35-13.57a18.74,18.74,0,0,0-5.12-5.84,4.84,4.84,0,0,1-.86-1Z"/>
    <path class="cls-5"
          d="M198.88,238a11.84,11.84,0,0,1,.45-1.39,12.54,12.54,0,0,0,1.44-5.73c-.1-3.27-3.23-5.46-6.31-3.5a1.15,1.15,0,0,1-1.55-.08c-4.88-4-10.23-3.94-15.83-1.88-2.47.92-4.82,2-6.12,4.52a10.19,10.19,0,0,1-1.22,2,4.3,4.3,0,0,1,.9-3c1.54-2.63,4.23-3.66,6.84-4.76,3.92-1.65,7.94-2.38,12.06-.83a16.09,16.09,0,0,1,3.5,2.08,1.36,1.36,0,0,0,1.5.22,10.16,10.16,0,0,1,3.73-.78c1.69.09,2.42,1.57,3.06,2.95,1.62,3.47,0,8.7-2.1,10.27Z"/>
    <path class="cls-5"
          d="M178.27,233.74c-.75.36-1.85.57-1.32,1.76.11.26.83.25,1.51.43.41.78,0,2.3-1.07,3.36a3.33,3.33,0,0,1-3.85.34,4.79,4.79,0,0,1-1.09-6.68,3.15,3.15,0,0,1,.24-.3C174.18,231.1,176.94,231.62,178.27,233.74Z"/>
    <path class="cls-5"
          d="M197.56,279.17c-.12.87-.15,2-1.3,2.56a2.93,2.93,0,0,1-3.41-.54,14.94,14.94,0,0,1-1.92-2.55c-.12-.19,0-.58.08-.84a32.57,32.57,0,0,1,1.32-3.17,1.3,1.3,0,0,1,1-.64A5.63,5.63,0,0,1,197.56,279.17Z"/>
    <path class="cls-5"
          d="M172,292.14a6.61,6.61,0,0,1-5,2.48c-1.07.08-2.15,0-3.22.06a5.45,5.45,0,0,0-4.38,2.15,1.39,1.39,0,0,0,0,2,1.49,1.49,0,0,0,.63.37,7.35,7.35,0,0,0,2.65.59c2.26.06,4.52,0,6.78,0a14.15,14.15,0,0,1,1.84.07c.18,0,.34.3.5.46-.17.16-.35.46-.53.46-3.41,0-6.83.09-10.21-.2a3.87,3.87,0,0,1-3.69-2.51,2.13,2.13,0,0,1,.49-2.23,5.7,5.7,0,0,1,3.71-1.89c1.26-.14,2.52-.2,3.79-.26a11.12,11.12,0,0,0,5.6-1.45,6.79,6.79,0,0,1,.87-.39Z"/>
    <path class="cls-5"
          d="M170.73,273.13a5.73,5.73,0,0,1-1.25-.72c-4.93-5-6.2-11-4.88-17.7a8.94,8.94,0,0,1,3.23-5.17c.18-.15.52-.11.79-.16-.05.27,0,.63-.14.79-2.76,2.85-3.24,6.31-3,10.09.25,4.4,2.47,7.9,4.78,11.39.25.36.52.71.78,1.07Z"/>
    <path class="cls-5"
          d="M169.77,244.49c.41.46.76.84,1.09,1.23.56.68,1.21.53,1.87.2s.49-.87.3-1.46a4.1,4.1,0,0,1,.46-4,6.76,6.76,0,0,1,0,1.19,4.1,4.1,0,0,0,1.84,4.34,3.73,3.73,0,0,0,4.54-.7,7.52,7.52,0,0,0,1.07-1,10.08,10.08,0,0,0,.69-1.3,1.87,1.87,0,0,1-.44,2.28c-1.14,1.38-2.27,2.78-3.49,4.08a2.09,2.09,0,0,1-1.47.38c-1.18-.06-2.35-.26-3.52-.42a.42.42,0,0,1-.3-.13q-1.4-2.1-2.76-4.21C169.6,244.9,169.69,244.76,169.77,244.49Zm4.87,2.31c-.14.8-.23,1.53.72,1.67.62.09,1.53.4,1.59-.89Zm-2.28.41a4.73,4.73,0,0,0,.76,1.07c.13.11.77-.09.78-.17a10.82,10.82,0,0,0-.15-1.6Z"/>
    <path class="cls-5"
          d="M165.08,283.18c-.38-3.53.5-6.86,1.61-10.14a5.46,5.46,0,0,1,1.1-1.43,5.53,5.53,0,0,1,0,1.77c-2.1,5.61-1.84,11.26-.33,16.94a2.51,2.51,0,0,1,.21.77,7.78,7.78,0,0,1-.32,1.17c-.32-.28-.84-.52-.91-.85a74,74,0,0,1-1.31-8.24Z"/>
    <path class="cls-5"
          d="M177.53,259.64a2.21,2.21,0,0,1-.63-3.08,2.26,2.26,0,0,1,.93-.8,3.89,3.89,0,0,0,1.69-1.57,5.1,5.1,0,0,1,5.94-1.67c.79.37,1.5.9,2.26,1.35.21.12.47.32.68.29a1.87,1.87,0,0,1,2.09,1.58,5.58,5.58,0,0,1-.21,2.5c0,.2-.51.33-.78.49a2.6,2.6,0,0,1,0-.88c.48-1.43.22-1.81-1.32-2a1.75,1.75,0,0,1-1-.67c-2.15-2.78-5.09-2.61-6.86.39a1.75,1.75,0,0,1-1,.8C177.13,256.69,176.62,257.48,177.53,259.64Z"/>
    <path class="cls-5"
          d="M180.37,282.61a18,18,0,0,0,1.55-1c.81-.64,1.56-1.35,2.36-2,.14-.11.4-.06.61-.09,0,.24.13.6,0,.7a47.11,47.11,0,0,1-4.27,3.43,1,1,0,0,1-1.5-1.23c.93-2.39.22-4.18-1.46-5.9-.51-.53-.55-1.52-.87-2.49,1.24,1.39,2.22,2.57,3.28,3.67a2.53,2.53,0,0,1,.62,2.94c-.24.57-.41,1.18-.61,1.77Z"/>
    <path class="cls-5"
          d="M168.86,248.05a9.54,9.54,0,0,1-2.4-6.9c.1-2.5.7-4.88,3.27-6.63-.1.56-.07.86-.2,1-3,3.13-2.3,6.53-.81,10,.31.74.51,1.52.77,2.28Z"/>
    <path class="cls-5"
          d="M189.81,261.17a8.18,8.18,0,0,1,3.76,5.13,15.24,15.24,0,0,1,.24,3.3c0,.27-.26.55-.4.82a3.51,3.51,0,0,1-.47-.79c-.44-1.57-.72-3.2-1.3-4.71a14.82,14.82,0,0,0-1.76-2.62,9.09,9.09,0,0,1-.47-.87Z"/>
    <path class="cls-5"
          d="M187.35,281.33c.85-.67,1.68-1.35,2.55-2a3.42,3.42,0,0,1,.77-.3c0,.3.07.75-.09.89a35,35,0,0,1-3.35,2.73,1.58,1.58,0,0,1-1.52,0c-.29-.28-.27-1.05-.15-1.55a5.75,5.75,0,0,1,.81-1.76c.17-.28.54-.42.82-.63a5.6,5.6,0,0,1,.06,1,12.15,12.15,0,0,1-.35,1.35Z"/>
    <path class="cls-5"
          d="M197,228c1.84,1.85,2.65,5.18,1.73,6.53-.73-.46-1.48-.89-2.19-1.38a.6.6,0,0,1-.07-.58c1-1.24.86-2.6.43-4C196.86,228.49,196.94,228.34,197,228Z"/>
    <path class="cls-5"
          d="M185.78,230.05c.17.06.71.1,1,.4a4.13,4.13,0,0,1,.55,1.34c-.42.08-.92.34-1.25.2-1-.39-1.68.11-2.48.46a2.8,2.8,0,0,1-.82.11,2.17,2.17,0,0,1,.08-.84A3,3,0,0,1,185.78,230.05Z"/>
    <path class="cls-5" d="M170.49,267.79l3.69,5.17C172.37,273.19,169.93,269.77,170.49,267.79Z"/>
    <path class="cls-5"
          d="M180.14,262.29l1.37-.66c1.18,1.26,1.18,1.26,3.15.28a4,4,0,0,1-.79,1.2,8.55,8.55,0,0,1-2,1c-.53.2-1.06.16-1.2-.62A6.75,6.75,0,0,0,180.14,262.29Z"/>
    <path class="cls-5"
          d="M176.79,272.41c-1,0-3-2-2.95-2.85,0-.16.13-.44.23-.45.28-.05.7-.1.84.05.73.83,1.42,1.69,2.06,2.58C177.06,271.87,176.84,272.23,176.79,272.41Z"/>
    <path class="cls-5"
          d="M178.75,263.05c-1.36,2.25-1.4,4.7-1.16,7.26-.85-.53-1-.88-.84-3A5.16,5.16,0,0,1,178.75,263.05Z"/>
    <path class="cls-5"
          d="M183,259.48c-.11,1.19-.56,1.83-1.38,1.75a1.8,1.8,0,0,1-1.2-1.05c-.23-.64.72-1.65,1.37-1.5A3.92,3.92,0,0,1,183,259.48Z"/>
    <path class="cls-5" d="M186.19,273.11l4.88-2.35C191.2,272,187.83,273.7,186.19,273.11Z"/>
    <path class="cls-5" d="M186.86,270.65l3.8-1.59C190.39,270.43,187.88,271.46,186.86,270.65Z"/>
    <path class="cls-5" d="M184.26,258.75l-1-.65a7.35,7.35,0,0,1,1.48-1c.17-.07.57.4.86.61Z"/>
    <path class="cls-5"
          d="M180,258.62l-1-1.16c.22-.15.56-.48.64-.42a3.28,3.28,0,0,1,.84.9C180.5,258,180.23,258.3,180,258.62Z"/>
    <path class="cls-3" d="M174.64,246.8l2.31.78c-.06,1.29-1,1-1.59.89C174.41,248.33,174.49,247.6,174.64,246.8Z"/>
    <path class="cls-3"
          d="M172.36,247.21l1.39-.7a9.61,9.61,0,0,1,.14,1.6c0,.08-.64.28-.77.17A4.73,4.73,0,0,1,172.36,247.21Z"/>
    <path class="cls-10" d="M215.25,300.66a20,20,0,0,1,8.15-10.6"/>
    <path class="cls-10" d="M219.5,301.81a19.94,19.94,0,0,1,8.16-10.6"/>
    <path class="cls-10" d="M209.17,300.47a22.55,22.55,0,0,1,9.92-12"/>
    <path class="cls-10" d="M212.9,290.09a21.94,21.94,0,0,1,16.36,5.61"/>
    <path class="cls-10" d="M210.37,293.43A21.92,21.92,0,0,1,226.73,299"/>
    <path class="cls-10" d="M208.38,297.84A20.08,20.08,0,0,1,222.64,301"/>
    <path class="cls-11" d="M192.88,278.47a5.1,5.1,0,0,1,3.9-.67"/>
    <path class="cls-11" d="M193.64,279.78a5.11,5.11,0,0,1,3.9-.67"/>
    <path class="cls-11" d="M191.51,277a5.75,5.75,0,0,1,4.58-.59"/>
    <path class="cls-11" d="M194.35,275.28a8.52,8.52,0,0,1,2.71,5.34"/>
    <path class="cls-11" d="M193.13,275.5a8.55,8.55,0,0,1,2.71,5.34"/>
    <path class="cls-11" d="M191.83,276.12a7.62,7.62,0,0,1,2.7,4.22"/>
    <rect class="cls-1" height="150" width="116" x="264.21" y="153.21"/>
    <rect class="cls-2" height="149" width="115" x="264.71" y="153.71"/>
    <rect class="cls-3" height="83" width="33" x="362.21" y="217.21"/>
    <path class="cls-12"
          d="M344,233.72c.27-4.59-.22-9.43-2.73-13.19-3.08-4.56-7.4-4.89-11.48-5.37a128.51,128.51,0,0,0-33.82.43A101.48,101.48,0,0,0,280.12,219c-3.9,1.25-6.3,4.41-6.8,9.91-.09,1.15-.16,2.42-.25,3.57-1.39,7.29.67,17.43,1.32,24.39l.08.5c0,1.38.16,2.75.29,4.12.38,8.14.72,18.3,5.87,23.29,5.87,5.5,14.43,2.76,20.52,2.17l1.79-.16a195.1,195.1,0,0,0,28.4.3c6-.33,14.52.47,16.37-7.39a5.58,5.58,0,0,0,1.18-4.6L344,235c0-.63,0-1,0-1.26Z"/>
    <path class="cls-9"
          d="M279.23,275.83c.44-.7,2.68-2.06,3-1.49,0,.12.11.11.13.23l.15,1c.94,3.64,4.55,10.89,7.74,16.69-1.82-4-3.5-8.28-4.81-12a42.2,42.2,0,0,1-2-8.13,6.14,6.14,0,0,1,.81-4c3.39-5,9.45,6.32,8.72,13.76a3.61,3.61,0,0,1,2.82.56c3.57,2.46,6.74,11,3.28,16.13a2.6,2.6,0,0,1-2.59,1.43c-.84-.12-1.52-1.53-.77-1.4a1.83,1.83,0,0,0,1.7-.78c2.58-3.81-3.2-15.64-5.05-12.95a4.52,4.52,0,0,1-1.27,1.72,1.16,1.16,0,0,1-1.27-.55,3.36,3.36,0,0,1,.57-2.11c.78-5.42-3.48-15.72-5.33-13-.66,1-.14,4.31,1.47,8.72a169.62,169.62,0,0,0,8.57,19.71.75.75,0,0,1-.1,1c-.51.84-2,1.46-2.71.68-4.68-5.44-14-23.76-13.08-25.18Z"/>
    <path class="cls-9"
          d="M304.1,279.09c0-.13-.11-.11-.12-.24,1,3.12,1.5,6.07.47,7.62-.88,1.28-2.08,1.22-3.16.13-3.24-3.27-6.67-11.18-5.84-16.24.19-1.67,1.68-2,2.95-2.61a1.56,1.56,0,0,0-.28-.58,1.25,1.25,0,0,1,0-1,2.91,2.91,0,0,1,2.18-1.1c.45-.07.58.79.75,1.27A98.57,98.57,0,0,0,307,278.25c.36.57.5.3.51-.21-.29-4.11-2.52-9.56-3.75-12.77-.31-.84.51-1.35.83-.51,1.23,3.21,5.34,13.66,3.43,16.48-.82,1.14-2.25.74-3.08-.52a7.15,7.15,0,0,0-.81-1.64Zm-4.67-8.85c-.15-.36-.31-.83-.46-1.19a.69.69,0,0,0-.85.39c-1.55,2.26,1.86,10.05,4.07,13.1.26.47,1.19,1.71,1.55,1.15,1-1.68-3.34-11.34-4.31-13.45Z"/>
    <path class="cls-9"
          d="M296.31,250.55c.44-.7,2.67-2.06,3-1.49,0,.12.11.11.12.23l.16,1c.75,3,3.48,8.78,6.2,13.9-.43-1.57-.95-3.13-1.29-4.72s-.44-3.33.15-4.18c1-1.42,3.33-.79,4.24.34a24.06,24.06,0,0,1,3.63,8,22.59,22.59,0,0,0-1.57-9.34c-.32-.83.6-1.35.91-.52a25.23,25.23,0,0,1,1.32,12.91c.51,3.2.49,6-.31,7.24-.2.41-.83.51-1.18.56.13.23.54.55.16,1-.51.84-2,1.46-2.71.68C304.69,270.16,295.35,252,296.31,250.55Zm10.62,13.71a34.11,34.11,0,0,0,3.44,7.91,24.31,24.31,0,0,0,1.11-2.7,32.33,32.33,0,0,0-4.64-11c-.82-1.13-1.49-.78-1.17.69a31.93,31.93,0,0,0,1.26,5.1Z"/>
    <path class="cls-9"
          d="M313.38,243.56a3,3,0,0,1,2.28-1.12c.26,0,.41.31.55.67s.32.83.47,1.19c1.39,3,3,6.33,4.31,8.9l.24.34a34,34,0,0,0-2.11-11c-.31-.83.51-1.34.83-.51a37.06,37.06,0,0,1,2.32,13.51,89,89,0,0,1,4,8.45c1.31,3.08,1.72,5.66,0,8.34a2,2,0,0,1-2.29,1c-1.7-.36-2.92-2.94-3.19-5.17-.34-2.72.23-5.46.46-8-.66-1.29-1.3-2.45-1.95-3.73,1,3.11,1.5,6.07.48,7.62a2.09,2.09,0,0,1-2.9.58,2.35,2.35,0,0,1-.55-.54c-.26-.47-.62-1-.87-1.5a77.61,77.61,0,0,1-5.84-12.2,1.23,1.23,0,0,1,0-1,2.93,2.93,0,0,1,2.19-1.11c.44-.07.58.79.72,1.15a97.31,97.31,0,0,0,5.2,11c.51.93,1,1.23,1.31.81,1-1.41-2.33-9.6-3.74-12.78-.13-.23-.17-.48-.3-.71a22.57,22.57,0,0,1-1.36-3.44A.6.6,0,0,1,313.38,243.56Zm10.87,23.88c-.72-1.65-1.56-3.53-2.41-5.42-.14,2.55-.77,6.56,1,8.67.46.56,1.23.82,1.68.24s.44-1.83-.28-3.49Z"/>
    <path class="cls-9"
          d="M322.88,252.52a5.77,5.77,0,0,1,.52-3.61c.42-.83.92-1.67,1.27-2.35-1.82-1.73-4.38-.69-6.45-3.39A6.35,6.35,0,0,1,318,236c.8-1.26,3.2-1,4.22.22.56.67,1.07,2.73.77,3.16-.52.71-1.62,1.27-1.85.92l0-.25a3,3,0,0,0-.5-2.57c-.34-.45-.74-.63-1-.22-.59.85.34,2.72.79,3.28,1.47,1.78,3.66,1.31,5.35,2.18a15.18,15.18,0,0,0-1.33-8.37c-.29-.71.52-1.34.83-.51a16.5,16.5,0,0,1,1.41,9.49c2.6,2.62,1.94,7.64.17,10.19C325.4,255.78,323.43,254.83,322.88,252.52Zm1-2.06c-.7,1.88,1.28,3.46,1.94,1.34a6.82,6.82,0,0,0-.4-4.23c-.3.93-1.14,2-1.54,2.89Z"/>
    <path class="cls-9"
          d="M325.73,217.13q.25.66.57,1.29a6.43,6.43,0,0,1,2-2.09c.27,0,1.11.71,1.35,1a2.68,2.68,0,0,1,.26.47s-.09,0-.07.14a11.77,11.77,0,0,0-2.56,2.8,161.28,161.28,0,0,0,7.81,14.91c.6.91.78.89.7-.24a58.66,58.66,0,0,0-3.26-13.11c-.32-.83.51-1.34.83-.51,1.23,3.21,4.84,14.5,3,17.19-1.25,1.84-2.86-.3-3.81-1.67-.34-.45-.6-.91-1-1.48,1.05,3.74,1.83,7.53.71,9.1-.73,1.12-2.24.73-3.08-.53-.25-.46-.6-.92-.87-1.5a69.18,69.18,0,0,1-5.86-12.32,1.25,1.25,0,0,1-.05-.87,3.7,3.7,0,0,1,2.26-1.24c.44-.07.58.79.75,1.26a96.52,96.52,0,0,0,5.82,12.08c.36.57.5.3.49-.33a38.08,38.08,0,0,0-2.43-9.58c-1.4-2.56-2.85-5.36-4.27-8a5,5,0,0,1-.5.84c-1,1.41-2.33,2.52-3.71.71a13.74,13.74,0,0,1-1.83-4.12,5.83,5.83,0,0,1-.3-1.85,5,5,0,0,1,2.1-1.09c.62-.09,1,.36,1.21,1.33s.63,2.8.88,4.4c.44-.7.76-1.51,1.11-2.2-.53-1.05-1.08-2.22-1.54-3.41s-.58-1.93-.35-2.22c.43-.7,2.53-1.78,3-1.35,0,.12.11.11.13.23l0,.25a4.51,4.51,0,0,0,.45,1.69Z"/>
    <path class="cls-9"
          d="M330.06,210.64c.17.48.43.94.59,1.42.66-1,1.5-2,2-2.09.27,0,1.1.58,1.33.93s.24.34.17.48-.09,0-.07.13a11.54,11.54,0,0,0-2.47,2.79c2.46,5.16,5.62,11.35,7.73,14.92.58.79.78.89.71-.11A57.08,57.08,0,0,0,336.82,216c-.31-.83.52-1.34.84-.51,1.23,3.21,4.84,14.5,3,17.19-1.25,1.84-2.85-.18-3.81-1.67a137.3,137.3,0,0,1-7.36-13.21,3.33,3.33,0,0,1-.52.71c-.46.58-1.4,2.12-2.4,1.52-.3-.2-.32-.33-.11-.74.73-1.13,1.34-2.36,2-3.47-.55-1.17-1.08-2.23-1.54-3.41s-.58-1.93-.35-2.22c.43-.7,2.51-1.92,3-1.35l.07.49c.14.45.3.88.48,1.31Z"/>
    <path class="cls-9"
          d="M331.41,201.34a7.34,7.34,0,0,1,2-1.07c.62-.1.95.22,1.21,1.32.43,1.57,1.35,6.22.85,7.06-1.24,2-3.58-4.23-3.89-5.57-.24-1-.32-1.46-.18-1.74Zm9.49,23.22a79.77,79.77,0,0,1-5.84-12.19,1.25,1.25,0,0,1,0-1,3.45,3.45,0,0,1,2.18-1.1c.45-.07.58.79.73,1.15a104.16,104.16,0,0,0,5.73,12.08c.36.57.5.3.51-.21-.28-4.11-2.35-9.71-3.59-12.92-.31-.84.52-1.35.83-.51,1.24,3.21,5.28,13.79,3.36,16.62-.82,1.14-2.24.73-3.08-.52-.25-.47-.6-.92-.85-1.38Z"/>
    <path class="cls-9"
          d="M338.81,206.73a1.22,1.22,0,0,1-.05-.88,3,3,0,0,1,2.27-1.11c.45-.07.58.79.75,1.27a77.2,77.2,0,0,0,3.21,7.06c-1.25-3.84-2.6-8.93-2.6-11.83a1.38,1.38,0,0,1,.22-.92c.29-.42,2-1.58,2.47-1a2.12,2.12,0,0,1,.25.47c.15.35.32.83.46,1.19a100.07,100.07,0,0,0,5.53,11.36c.36.57.52.42.51-.21-.29-4.12-2.36-9.72-3.59-12.93-.32-.83.51-1.34.83-.51,1.23,3.21,5.27,13.8,3.36,16.63a1.54,1.54,0,0,1-2.07.67,1.5,1.5,0,0,1-.65-.62,78.78,78.78,0,0,1-6.19-12.14c.47,4.72,3.59,14.06,5.35,16.56.23.34.18.6,0,.75-.51.84-2.17,1.23-2.75.44a62.53,62.53,0,0,1-7.35-14.23Z"/>
    <path class="cls-9"
          d="M356.26,209.64c-.89,1.28-2.08,1.21-3.16.12-3.17-3.41-6.59-11.19-5.76-16.24a2.76,2.76,0,0,1,1.17-1.83,10.44,10.44,0,0,1,1.78-.78,2.43,2.43,0,0,0-.27-.59,1.27,1.27,0,0,1,0-.88,3.05,3.05,0,0,1,2.28-1.12c.26,0,.41.32.56.67s.31.84.46,1.19c1.41,3.18,3,6.34,4.31,8.9l.24.35a34,34,0,0,0-2.11-11c-.31-.84.52-1.35.83-.51a37,37,0,0,1,2.32,13.5,88.08,88.08,0,0,1,4,8.46c1.21,3.09,1.73,5.78,0,8.33a2.32,2.32,0,0,1-2.27,1.12c-1.81-.47-2.92-2.95-3.1-5.19-.32-2.6.23-5.46.37-8-.55-1.18-1.21-2.46-1.78-3.76.81,2.77,1.27,5.73.25,7.28ZM354,205.71c.26.47,1.18,1.71,1.54,1.14,1.12-1.56-3.33-11.33-4.22-13.46-.14-.35-.31-.83-.46-1.18a.68.68,0,0,0-.85.38c-1.63,2.28,1.76,9.94,4,13.12Zm6.91,7.48c-.71-1.65-1.56-3.53-2.4-5.42-.14,2.55-.79,6.56,1,8.67.45.56,1.24.94,1.67.24s.44-1.83-.28-3.48Z"/>
    <path class="cls-5"
          d="M386.31,238.55c.86.53,1.76,1,2.57,1.6,3.06,2.24,4.91,5.4,6.76,8.62,2.54,4.43,3.41,9.33,4.14,14.26.59,4,1.17,8.06,1.4,12.1a98.11,98.11,0,0,1-.27,10.57c-.06,1.14.31,1.29,1.32,1.32a24.55,24.55,0,0,1,14.12,4.87,4.11,4.11,0,0,1,1,5.47,9.58,9.58,0,0,1-5.59,4.29c-6.26,2.06-12.1.92-17.82-1.83a1.56,1.56,0,0,1-.5-.29c-1.48-1.52-3-1.12-4.77-.41a34,34,0,0,1-13.15,2.27c-2.49,0-5,.14-7.48.15a14,14,0,0,1-2.73-.3,2.9,2.9,0,0,1-2.41-2.2,2.42,2.42,0,0,1,1.5-2.73,19.14,19.14,0,0,1,3.82-1.52,50.72,50.72,0,0,0,10.71-4.4,16.8,16.8,0,0,0,1.72-1.33l.19.23a18.56,18.56,0,0,1-3.21,2.43c-2.92,1.35-6,2.41-8.91,3.7a11.57,11.57,0,0,0-3.25,2c-1.16,1.07-.88,2,.65,2.38a25.89,25.89,0,0,0,4.87.71,46.91,46.91,0,0,0,18.63-2.85c3-1.15,6.13-2.35,7.3-5.82a48.76,48.76,0,0,0,1.34-4.87c1.23-5.48.82-11,.32-16.5-.39-4.3-1.23-8.57-1.89-12.85A4.2,4.2,0,0,0,396,256c-.23.8-.44,1.6-.68,2.4-1.35,4.61-3.65,8.63-7.6,11.49a22.82,22.82,0,0,1-7.56,3.52c-1.19.32-2.37.63-3.57.91-.21,0-.47-.1-.7-.16.16-.21.28-.54.49-.6,1.65-.49,3.34-.87,5-1.38,6.5-2,10.48-6.53,12.88-12.77,1.95-5.08.33-9.38-2.35-13.57a18.74,18.74,0,0,0-5.12-5.84,4.84,4.84,0,0,1-.86-1Z"/>
    <path class="cls-5"
          d="M385.88,238a11.84,11.84,0,0,1,.45-1.39,12.54,12.54,0,0,0,1.44-5.73c-.1-3.27-3.23-5.46-6.31-3.5a1.15,1.15,0,0,1-1.55-.08c-4.88-4-10.23-3.94-15.83-1.88-2.47.92-4.82,2-6.12,4.52a10.19,10.19,0,0,1-1.22,2,4.3,4.3,0,0,1,.9-3c1.54-2.63,4.23-3.66,6.84-4.76,3.92-1.65,7.94-2.38,12.06-.83a16.09,16.09,0,0,1,3.5,2.08,1.36,1.36,0,0,0,1.5.22,10.16,10.16,0,0,1,3.73-.78c1.69.09,2.42,1.57,3.06,2.95,1.62,3.47,0,8.7-2.1,10.27Z"/>
    <path class="cls-5"
          d="M365.27,233.74c-.75.36-1.85.57-1.32,1.76.11.26.83.25,1.51.43.41.78,0,2.3-1.07,3.36a3.33,3.33,0,0,1-3.85.34,4.79,4.79,0,0,1-1.09-6.68,3.15,3.15,0,0,1,.24-.3C361.18,231.1,363.94,231.62,365.27,233.74Z"/>
    <path class="cls-5"
          d="M384.56,279.17c-.12.87-.15,2-1.3,2.56a2.93,2.93,0,0,1-3.41-.54,14.94,14.94,0,0,1-1.92-2.55c-.12-.19,0-.58.08-.84a32.57,32.57,0,0,1,1.32-3.17,1.3,1.3,0,0,1,1-.64A5.63,5.63,0,0,1,384.56,279.17Z"/>
    <path class="cls-5"
          d="M359,292.14a6.61,6.61,0,0,1-5,2.48c-1.07.08-2.15,0-3.22.06a5.45,5.45,0,0,0-4.38,2.15,1.39,1.39,0,0,0,0,2,1.49,1.49,0,0,0,.63.37,7.35,7.35,0,0,0,2.65.59c2.26.06,4.52,0,6.78,0a14.15,14.15,0,0,1,1.84.07c.18,0,.34.3.5.46-.17.16-.35.46-.53.46-3.41,0-6.83.09-10.21-.2a3.87,3.87,0,0,1-3.69-2.51,2.13,2.13,0,0,1,.49-2.23,5.7,5.7,0,0,1,3.71-1.89c1.26-.14,2.52-.2,3.79-.26a11.12,11.12,0,0,0,5.6-1.45,6.79,6.79,0,0,1,.87-.39Z"/>
    <path class="cls-5"
          d="M357.73,273.13a5.73,5.73,0,0,1-1.25-.72c-4.93-5-6.2-11-4.88-17.7a8.94,8.94,0,0,1,3.23-5.17c.18-.15.52-.11.79-.16-.05.27,0,.63-.14.79-2.76,2.85-3.24,6.31-3,10.09.25,4.4,2.47,7.9,4.78,11.39.25.36.52.71.78,1.07Z"/>
    <path class="cls-5"
          d="M356.77,244.49c.41.46.76.84,1.09,1.23.56.68,1.21.53,1.87.2s.49-.87.3-1.46a4.1,4.1,0,0,1,.46-4,6.76,6.76,0,0,1,0,1.19,4.1,4.1,0,0,0,1.84,4.34,3.73,3.73,0,0,0,4.54-.7,7.52,7.52,0,0,0,1.07-1,10.08,10.08,0,0,0,.69-1.3,1.87,1.87,0,0,1-.44,2.28c-1.14,1.38-2.27,2.78-3.49,4.08a2.09,2.09,0,0,1-1.47.38c-1.18-.06-2.35-.26-3.52-.42a.42.42,0,0,1-.3-.13q-1.39-2.1-2.76-4.21C356.6,244.9,356.69,244.76,356.77,244.49Zm4.87,2.31c-.14.8-.23,1.53.72,1.67.62.09,1.53.4,1.59-.89Zm-2.28.41a4.73,4.73,0,0,0,.76,1.07c.13.11.77-.09.78-.17a10.82,10.82,0,0,0-.15-1.6Z"/>
    <path class="cls-5"
          d="M352.08,283.18c-.38-3.53.5-6.86,1.61-10.14a5.46,5.46,0,0,1,1.1-1.43,5.53,5.53,0,0,1-.05,1.77c-2.1,5.61-1.84,11.26-.33,16.94a2.51,2.51,0,0,1,.21.77,7.78,7.78,0,0,1-.32,1.17c-.32-.28-.84-.52-.91-.85a74,74,0,0,1-1.31-8.24Z"/>
    <path class="cls-5"
          d="M364.53,259.64a2.21,2.21,0,0,1-.63-3.08,2.26,2.26,0,0,1,.93-.8,3.89,3.89,0,0,0,1.69-1.57,5.1,5.1,0,0,1,5.94-1.67c.79.37,1.5.9,2.26,1.35.21.12.47.32.68.29a1.87,1.87,0,0,1,2.09,1.58,5.58,5.58,0,0,1-.21,2.5c0,.2-.51.33-.78.49a2.6,2.6,0,0,1,0-.88c.48-1.43.22-1.81-1.32-2a1.75,1.75,0,0,1-1-.67c-2.15-2.78-5.09-2.61-6.86.39a1.75,1.75,0,0,1-1,.8C364.13,256.69,363.62,257.48,364.53,259.64Z"/>
    <path class="cls-5"
          d="M367.37,282.61a18,18,0,0,0,1.55-1c.81-.64,1.56-1.35,2.36-2,.14-.11.4-.06.61-.09,0,.24.13.6,0,.7a47.11,47.11,0,0,1-4.27,3.43,1,1,0,0,1-1.5-1.23c.93-2.39.22-4.18-1.46-5.9-.51-.53-.55-1.52-.87-2.49,1.24,1.39,2.22,2.57,3.28,3.67a2.53,2.53,0,0,1,.62,2.94c-.24.57-.41,1.18-.61,1.77Z"/>
    <path class="cls-5"
          d="M355.86,248.05a9.54,9.54,0,0,1-2.4-6.9c.1-2.5.7-4.88,3.27-6.63-.1.56-.07.86-.2,1-3,3.13-2.3,6.53-.81,10,.31.74.51,1.52.77,2.28Z"/>
    <path class="cls-5"
          d="M376.81,261.17a8.18,8.18,0,0,1,3.76,5.13,15.24,15.24,0,0,1,.24,3.3c0,.27-.26.55-.4.82a3.51,3.51,0,0,1-.47-.79c-.44-1.57-.72-3.2-1.3-4.71a14.82,14.82,0,0,0-1.76-2.62,9.09,9.09,0,0,1-.47-.87Z"/>
    <path class="cls-5"
          d="M374.35,281.33c.85-.67,1.68-1.35,2.55-2a3.42,3.42,0,0,1,.77-.3c0,.3.07.75-.09.89a35,35,0,0,1-3.35,2.73,1.58,1.58,0,0,1-1.52,0c-.29-.28-.27-1.05-.15-1.55a5.75,5.75,0,0,1,.81-1.76c.17-.28.54-.42.82-.63a5.6,5.6,0,0,1,.06,1,12.15,12.15,0,0,1-.35,1.35Z"/>
    <path class="cls-5"
          d="M384,228c1.84,1.85,2.65,5.18,1.73,6.53-.73-.46-1.48-.89-2.19-1.38a.6.6,0,0,1-.07-.58c1.05-1.24.86-2.6.43-4C383.86,228.49,383.94,228.34,384,228Z"/>
    <path class="cls-5"
          d="M372.78,230.05c.17.06.71.1,1,.4a4.13,4.13,0,0,1,.55,1.34c-.42.08-.92.34-1.25.2-1-.39-1.68.11-2.48.46a2.8,2.8,0,0,1-.82.11,2.17,2.17,0,0,1,.08-.84A3,3,0,0,1,372.78,230.05Z"/>
    <path class="cls-5" d="M357.49,267.79l3.69,5.17C359.37,273.19,356.93,269.77,357.49,267.79Z"/>
    <path class="cls-5"
          d="M367.14,262.29l1.37-.66c1.18,1.26,1.18,1.26,3.15.28a4,4,0,0,1-.79,1.2,8.55,8.55,0,0,1-2,1c-.53.2-1.06.16-1.2-.62A6.75,6.75,0,0,0,367.14,262.29Z"/>
    <path class="cls-5"
          d="M363.79,272.41c-1,0-3-2-3-2.85,0-.16.13-.44.23-.45.28-.05.7-.1.84.05.73.83,1.42,1.69,2.06,2.58C364.06,271.87,363.84,272.23,363.79,272.41Z"/>
    <path class="cls-5"
          d="M365.75,263.05c-1.36,2.25-1.4,4.7-1.16,7.26-.85-.53-.95-.88-.84-3A5.16,5.16,0,0,1,365.75,263.05Z"/>
    <path class="cls-5"
          d="M370,259.48c-.11,1.19-.56,1.83-1.38,1.75a1.8,1.8,0,0,1-1.2-1.05c-.23-.64.72-1.65,1.37-1.5A3.92,3.92,0,0,1,370,259.48Z"/>
    <path class="cls-5" d="M373.19,273.11l4.88-2.35C378.2,272,374.83,273.7,373.19,273.11Z"/>
    <path class="cls-5" d="M373.86,270.65l3.8-1.59C377.39,270.43,374.88,271.46,373.86,270.65Z"/>
    <path class="cls-5" d="M371.26,258.75l-1-.65a7.35,7.35,0,0,1,1.48-1c.17-.07.57.4.86.61Z"/>
    <path class="cls-5"
          d="M367,258.62l-1-1.16c.22-.15.56-.48.64-.42a3.28,3.28,0,0,1,.84.9C367.5,258,367.23,258.3,367,258.62Z"/>
    <path class="cls-3" d="M361.64,246.8l2.31.78c-.06,1.29-1,1-1.59.89C361.41,248.33,361.49,247.6,361.64,246.8Z"/>
    <path class="cls-3"
          d="M359.36,247.21l1.39-.7a9.61,9.61,0,0,1,.14,1.6c0,.08-.64.28-.77.17A4.73,4.73,0,0,1,359.36,247.21Z"/>
    <path class="cls-10" d="M402.25,300.66a20,20,0,0,1,8.15-10.6"/>
    <path class="cls-10" d="M406.5,301.81a19.94,19.94,0,0,1,8.16-10.6"/>
    <path class="cls-10" d="M396.17,300.47a22.55,22.55,0,0,1,9.92-12"/>
    <path class="cls-10" d="M399.9,290.09a21.94,21.94,0,0,1,16.36,5.61"/>
    <path class="cls-10" d="M397.37,293.43A21.92,21.92,0,0,1,413.73,299"/>
    <path class="cls-10" d="M395.38,297.84A20.08,20.08,0,0,1,409.64,301"/>
    <path class="cls-11" d="M379.88,278.47a5.1,5.1,0,0,1,3.9-.67"/>
    <path class="cls-11" d="M380.64,279.78a5.11,5.11,0,0,1,3.9-.67"/>
    <path class="cls-11" d="M378.51,277a5.75,5.75,0,0,1,4.58-.59"/>
    <path class="cls-11" d="M381.35,275.28a8.52,8.52,0,0,1,2.71,5.34"/>
    <path class="cls-11" d="M380.13,275.5a8.55,8.55,0,0,1,2.71,5.34"/>
    <path class="cls-11" d="M378.83,276.12a7.62,7.62,0,0,1,2.7,4.22"/>
    <g class="cls-13">
        <g class="cls-13">
            <path class="cls-14"
                  d="M77.83,60.61c1.08-1.72,2.12-3.44,3.36-5,.52-.68,2-.4,2.76.24.28.24.28.4.08.68a48,48,0,0,0-3.8,5.2A39.69,39.69,0,0,0,82,66.61c.12.32.08.48-.24.64-.88.4-2.44.2-2.72-.56a46.08,46.08,0,0,1-1.4-4.56A1.77,1.77,0,0,1,77.83,60.61Zm4.88,0c1-1.72,2.12-3.44,3.32-5,.51-.68,2-.4,2.79.24.24.24.24.4,0,.68a54,54,0,0,0-3.79,5.2,45.29,45.29,0,0,0,1.72,4.92c.12.32.08.48-.25.64-.87.4-2.43.2-2.71-.56a46.08,46.08,0,0,1-1.4-4.56A1.67,1.67,0,0,1,82.71,60.61Z"/>
            <path class="cls-14"
                  d="M108.9,49.05c7.68,0,6.36,15,.72,21.88a34.93,34.93,0,0,1,4.36,3.2c1.08.92,1.44,1.56,1.4,1.92-.08.56-1.12,2.2-1.48,2.08l-.12-.12a2.27,2.27,0,0,0-.32-.52,23.92,23.92,0,0,0-5.6-4.84,6.74,6.74,0,0,1-4.28,1.64c-10.15,0-7.07-18.84-.4-24.4a6,6,0,0,1,3.76-1.56A4.32,4.32,0,0,1,108.9,49.05Zm-3.32,22.28a12.72,12.72,0,0,0-3.08-1.2s-.32-.08-.32-.12-.12-.2-.08-.36c.24-.68,1.12-1.6,1.64-1.44a19.78,19.78,0,0,1,3.2,1.28,32.28,32.28,0,0,0,3.48-15.92c-.2-2.12-1.08-3.16-2.2-3.16a4,4,0,0,0-2.76,1.76c-4.43,5.24-6.67,20.12-1.84,20.12A2.94,2.94,0,0,0,105.58,71.33Z"/>
            <path class="cls-14"
                  d="M121.18,70a2.55,2.55,0,0,0,.08-.28c-1.19,2.44-2.68,4.52-4.47,4.52A3,3,0,0,1,114,71.49c.08-.52.12-1,.2-1.52a48.48,48.48,0,0,1,3.08-11.2c.16-.32.35-.52.6-.52a5.16,5.16,0,0,1,2.55,1.16c.41.32,0,.84-.2,1.24a70.35,70.35,0,0,0-2.79,10c-.2.92.08,1.44.52,1.44,1.92,0,4.71-8.76,5.35-10.64.32-1,.64-1.88,1-2.72.16-.32.4-.52.6-.52a5.19,5.19,0,0,1,2.56,1.16c.44.32,0,.84-.16,1.24a67.5,67.5,0,0,0-3,11.08c-.12.6.24.6.6.28,2.4-2.44,4.24-7.12,5.28-9.84a.56.56,0,0,1,1,.4c-1,2.68-4.52,11.64-8,11.64a2.46,2.46,0,0,1-2.2-2.72C121.06,71,121.14,70.49,121.18,70Z"/>
            <path class="cls-14"
                  d="M134.74,70a.59.59,0,0,0,0-.28c-1.16,2.44-2.68,4.52-4.47,4.52a2.53,2.53,0,0,1-2.64-2.48c-.52-4.36,1.72-11.28,5.67-13.4,1.24-.72,2.68.24,4.12,1a2,2,0,0,0,.2-.52c.16-.32.36-.52.6-.52a5.19,5.19,0,0,1,2.56,1.16c.44.32,0,.84-.2,1.24a69.6,69.6,0,0,0-2.84,11.08c-.12.6.24.6.56.28,2.44-2.44,4.12-7.12,5.16-9.84a.56.56,0,0,1,1,.4c-1,2.68-4.36,11.64-7.8,11.64a2.43,2.43,0,0,1-2.2-2.72C134.62,71,134.66,70.49,134.74,70Zm1.88-8.48a8,8,0,0,1,.4-1,1.08,1.08,0,0,0-1-.52c-2.76,0-4.87,6.88-5.11,10.32,0,.44-.12,1.88.51,1.88C133.38,72.13,136,63.37,136.62,61.49Z"/>
            <path class="cls-14"
                  d="M144.34,58.77a.72.72,0,0,1,.57-.52,5.14,5.14,0,0,1,2.59,1.16c.4.32,0,.84-.2,1.24a58.55,58.55,0,0,0-2,6.36c1.44-3.08,3.56-6.88,5.48-8.48a1.06,1.06,0,0,1,.76-.28c.56,0,2.68.72,2.68,1.48a.91.91,0,0,1-.12.44c-.16.32-.28.64-.44,1a69.62,69.62,0,0,0-2.8,10.56c-.12.6.16.68.56.28,2.44-2.44,4.28-7.12,5.32-9.84a.56.56,0,0,1,1,.4c-1,2.68-4.52,11.64-8,11.64a2.16,2.16,0,0,1-2.32-2.12,58.92,58.92,0,0,1,2.68-11.48c-2.68,2.88-6,10.44-6.23,13.16,0,.4-.24.44-.49.44-1,0-2.51-1.08-2.51-1.92A47.87,47.87,0,0,1,144.34,58.77Z"/>
            <path class="cls-14"
                  d="M161.86,69.65c-1.12,2.4-2.68,4.56-4.64,4.56s-2.84-1.52-2.92-3.24c-.2-4.32,1.72-10.64,5.44-12.64,1.28-.72,2.8.28,3.92.84,1.24-5.72,2.84-10.76,3.76-10.76s3.52,1,3.52,1.64a.22.22,0,0,1-.12.2,4.15,4.15,0,0,0-.48.68c-2,3.6-4.6,14.8-5.32,20.44-.12.88.08,1,.64.44,2.32-2.48,4.12-7,5.12-9.64a.56.56,0,0,1,1,.4c-1,2.68-4.52,11.64-8,11.64-2.24,0-2.16-2.36-2-3.92C161.82,70.09,161.86,69.89,161.86,69.65Zm-4.16.16c-.12,1.36.2,2.2.8,2.2.4,0,.92-.4,1.48-1.28a25.51,25.51,0,0,0,2.48-5.44c.24-1.52.56-3.12.88-4.72a1,1,0,0,0-.88-.64C159.82,59.93,158.06,66.29,157.7,69.81Z"/>
            <path class="cls-14"
                  d="M182.9,58.77c2.48,0,4.56,1.72,4.56,3.52a14.78,14.78,0,0,1-1.16,5.6,15.25,15.25,0,0,0,4.12-5.76.57.57,0,0,1,1,.44A15.8,15.8,0,0,1,185.22,70c-1.48,2.44-3.6,4.2-6,4.2-2.88,0-4.6-2.88-4.6-5,0-4,2-9.16,5.4-10.92A2.94,2.94,0,0,1,182.9,58.77Zm-4,12.56a9.69,9.69,0,0,0,2.32-.52,17.67,17.67,0,0,0,2.56-8.52c0-2.64-1.44-2.8-2.88-1.24-2.28,2.52-3.4,8.2-2.4,10.36A1.18,1.18,0,0,1,178.86,71.33Z"/>
            <path class="cls-14"
                  d="M191.26,58.77a.71.71,0,0,1,.56-.52,5.17,5.17,0,0,1,2.6,1.16c.4.32,0,.84-.2,1.24a56.42,56.42,0,0,0-2,6.36c1.44-3.08,3.56-6.88,5.48-8.48a1.06,1.06,0,0,1,.76-.28c.56,0,2.68.72,2.68,1.48a.91.91,0,0,1-.12.44c-.16.32-.28.64-.44,1a69.62,69.62,0,0,0-2.8,10.56c-.12.6.16.68.56.28,2.44-2.44,4.28-7.12,5.32-9.84a.56.56,0,0,1,1,.4c-1,2.68-4.52,11.64-8,11.64a2.16,2.16,0,0,1-2.32-2.12,58.92,58.92,0,0,1,2.68-11.48c-2.68,2.88-6,10.44-6.24,13.16,0,.4-.24.44-.48.44-1,0-2.52-1.08-2.52-1.92A47.55,47.55,0,0,1,191.26,58.77Z"/>
            <path class="cls-14"
                  d="M214.74,70a.59.59,0,0,0,0-.28c-1.16,2.44-2.68,4.52-4.48,4.52a2.53,2.53,0,0,1-2.64-2.48c-.52-4.36,1.72-11.28,5.68-13.4,1.24-.72,2.68.24,4.12,1a2,2,0,0,0,.2-.52c.16-.32.36-.52.6-.52a5.19,5.19,0,0,1,2.56,1.16c.44.32,0,.84-.2,1.24a69.6,69.6,0,0,0-2.84,11.08c-.12.6.24.6.56.28,2.44-2.44,4.12-7.12,5.16-9.84a.56.56,0,0,1,1,.4c-1,2.68-4.36,11.64-7.8,11.64a2.43,2.43,0,0,1-2.2-2.72C214.62,71,214.66,70.49,214.74,70Zm1.88-8.48a8,8,0,0,1,.4-1,1.08,1.08,0,0,0-1-.52c-2.76,0-4.88,6.88-5.12,10.32,0,.44-.12,1.88.52,1.88C213.38,72.13,216,63.37,216.62,61.49Z"/>
            <path class="cls-14"
                  d="M235,69.65c-1.12,2.4-2.68,4.56-4.64,4.56s-2.84-1.52-2.92-3.24c-.2-4.32,1.72-10.64,5.44-12.64,1.28-.72,2.8.28,3.92.84,1.24-5.72,2.84-10.76,3.76-10.76s3.52,1,3.52,1.64a.22.22,0,0,1-.12.2,4.15,4.15,0,0,0-.48.68c-2,3.6-4.6,14.8-5.32,20.44-.12.88.08,1,.64.44,2.32-2.48,4.12-7,5.12-9.64a.56.56,0,0,1,1,.4c-1,2.68-4.52,11.64-8,11.64-2.24,0-2.16-2.36-2-3.92C234.94,70.09,235,69.89,235,69.65Zm-4.16.16c-.12,1.36.2,2.2.8,2.2.4,0,.92-.4,1.48-1.28a25.51,25.51,0,0,0,2.48-5.44c.24-1.52.56-3.12.88-4.72a1,1,0,0,0-.88-.64C232.94,59.93,231.18,66.29,230.82,69.81Z"/>
            <path class="cls-14"
                  d="M248.66,70a2.55,2.55,0,0,0,.08-.28c-1.2,2.44-2.68,4.52-4.48,4.52a3,3,0,0,1-2.84-2.72c.08-.52.12-1,.2-1.52a48.48,48.48,0,0,1,3.08-11.2c.16-.32.36-.52.6-.52a5.19,5.19,0,0,1,2.56,1.16c.4.32,0,.84-.2,1.24a69.14,69.14,0,0,0-2.8,10c-.2.92.08,1.44.52,1.44,1.92,0,4.72-8.76,5.36-10.64.32-1,.64-1.88,1-2.72.16-.32.4-.52.6-.52a5.19,5.19,0,0,1,2.56,1.16c.44.32,0,.84-.16,1.24a67.5,67.5,0,0,0-3,11.08c-.12.6.24.6.6.28,2.4-2.44,4.24-7.12,5.28-9.84a.56.56,0,0,1,1,.4c-1,2.68-4.52,11.64-8,11.64a2.45,2.45,0,0,1-2.2-2.72C248.54,71,248.62,70.49,248.66,70Z"/>
            <path class="cls-14"
                  d="M269.54,53.89c-.16.4-.28.8-.4,1.2a6.58,6.58,0,0,1,3,.48c.24.12.48,1.2.48,1.6,0,.24,0,.36-.16.44h-.12a12.33,12.33,0,0,0-3.84-.44,115,115,0,0,0-3.2,14.2c-.08.88.08,1,.64.44a34.78,34.78,0,0,0,5.76-9.64.56.56,0,0,1,1,.4c-1,2.68-5.36,11.64-8.6,11.64-2.24,0-2.16-2.36-2-3.92a93.75,93.75,0,0,1,2.44-13h-.88c-.76,0-2.52,0-2.92-1-.12-.32,0-.48.36-.48a31.07,31.07,0,0,0,3.88-.32,24.39,24.39,0,0,1,.92-3c.4-1,.8-1.48,1.16-1.48.8,0,3.24,1,3.24,1.64,0,.08,0,.12-.12.2s-.08.12-.12.16A2.52,2.52,0,0,0,269.54,53.89Z"/>
            <path class="cls-14"
                  d="M276.34,70a.59.59,0,0,0,0-.28c-1.16,2.44-2.68,4.52-4.48,4.52a2.53,2.53,0,0,1-2.64-2.48c-.52-4.36,1.72-11.28,5.68-13.4,1.24-.72,2.68.24,4.12,1a2,2,0,0,0,.2-.52c.16-.32.36-.52.6-.52a5.19,5.19,0,0,1,2.56,1.16c.44.32,0,.84-.2,1.24a69.6,69.6,0,0,0-2.84,11.08c-.12.6.24.6.56.28,2.44-2.44,4.12-7.12,5.16-9.84a.56.56,0,0,1,1,.4c-1,2.68-4.36,11.64-7.8,11.64a2.43,2.43,0,0,1-2.2-2.72C276.22,71,276.26,70.49,276.34,70Zm1.88-8.48a8,8,0,0,1,.4-1,1.08,1.08,0,0,0-1-.52c-2.76,0-4.88,6.88-5.12,10.32,0,.44-.12,1.88.52,1.88C275,72.13,277.62,63.37,278.22,61.49Z"/>
            <path class="cls-14"
                  d="M288.3,48.41c.76,0,3.48,1,3.48,1.64a.31.31,0,0,1-.08.2,4.37,4.37,0,0,0-.52.68c-2,3.6-4.6,14.8-5.32,20.44-.08.88.08,1,.68.44,2.32-2.48,4.08-7,5.08-9.64a.56.56,0,0,1,1,.4c-1,2.68-4.52,11.64-8,11.64-2.2,0-2.16-2.36-2-3.92C283.3,62.57,286.74,48.41,288.3,48.41Z"/>
            <path class="cls-14"
                  d="M295.94,58.09c1.52,0,4.2,2,4.2,3.8,0,3.72-4.36,6.6-7.44,6.6-.08,2.12.56,3.84,2.4,3.84,3.24,0,6.16-6.56,7.52-10.2.24-.68,1.28-.24,1,.44-1.44,3.92-4.64,11.64-9.16,11.64C284.82,74.21,290.22,58.09,295.94,58.09Zm-3.16,9.48c2.16,0,4.56-3.24,4.56-6.44,0-.84-.68-1.12-1.28-.64C294.46,61.69,293.1,64.85,292.78,67.57Z"/>
            <path class="cls-14"
                  d="M303.66,58.77a.71.71,0,0,1,.56-.52,5.17,5.17,0,0,1,2.6,1.16c.4.32,0,.84-.2,1.24a56.42,56.42,0,0,0-2,6.36c1.44-3.08,3.56-6.88,5.48-8.48a1.06,1.06,0,0,1,.76-.28c.56,0,2.68.72,2.68,1.48a.91.91,0,0,1-.12.44c-.16.32-.28.64-.44,1a69.62,69.62,0,0,0-2.8,10.56c-.12.6.16.68.56.28,2.44-2.44,4.28-7.12,5.32-9.84a.56.56,0,0,1,1,.4c-1,2.68-4.52,11.64-8,11.64a2.16,2.16,0,0,1-2.32-2.12,58.92,58.92,0,0,1,2.68-11.48c-2.68,2.88-6,10.44-6.24,13.16,0,.4-.24.44-.48.44-1,0-2.52-1.08-2.52-1.92A47.55,47.55,0,0,1,303.66,58.77Z"/>
            <path class="cls-14"
                  d="M321.66,53.89c-.16.4-.28.8-.4,1.2a6.58,6.58,0,0,1,3,.48c.24.12.48,1.2.48,1.6,0,.24,0,.36-.16.44h-.12a12.33,12.33,0,0,0-3.84-.44,115,115,0,0,0-3.2,14.2c-.08.88.08,1,.64.44a34.78,34.78,0,0,0,5.76-9.64.56.56,0,0,1,1,.4c-1,2.68-5.36,11.64-8.6,11.64-2.24,0-2.16-2.36-2-3.92a93.75,93.75,0,0,1,2.44-13h-.88c-.76,0-2.52,0-2.92-1-.12-.32,0-.48.36-.48a31.07,31.07,0,0,0,3.88-.32,24.39,24.39,0,0,1,.92-3c.4-1,.8-1.48,1.16-1.48.8,0,3.24,1,3.24,1.64,0,.08,0,.12-.12.2s-.08.12-.12.16A2.52,2.52,0,0,0,321.66,53.89Z"/>
            <path class="cls-14"
                  d="M326.26,72.49c-.64,2.88-2.24,3.88-4,3.88-.2,0-.2-.16-.08-.28a4.31,4.31,0,0,0,1.32-1.6c.08-.16.08-.24-.08-.28-2.16-.4-1-4.72.4-4.68a3.2,3.2,0,0,1,2.12.72C326.62,70.89,326.42,71.69,326.26,72.49Z"/>
            <path class="cls-14"
                  d="M343.1,58.77c2.48,0,4.56,1.72,4.56,3.52a14.78,14.78,0,0,1-1.16,5.6,15.25,15.25,0,0,0,4.12-5.76.57.57,0,0,1,1,.44A15.86,15.86,0,0,1,345.42,70c-1.48,2.44-3.6,4.2-6,4.2-2.88,0-4.6-2.88-4.6-5,0-4,2-9.16,5.4-10.92A2.94,2.94,0,0,1,343.1,58.77Zm-4,12.56a9.69,9.69,0,0,0,2.32-.52,17.67,17.67,0,0,0,2.56-8.52c0-2.64-1.44-2.8-2.88-1.24-2.28,2.52-3.4,8.2-2.4,10.36A1.18,1.18,0,0,1,339.06,71.33Z"/>
            <path class="cls-14"
                  d="M351.46,58.77a.71.71,0,0,1,.56-.52,5.17,5.17,0,0,1,2.6,1.16c.4.32,0,.84-.2,1.24a56.42,56.42,0,0,0-2,6.36c1.44-3.08,3.56-6.88,5.48-8.48a1.06,1.06,0,0,1,.76-.28c.56,0,2.67.72,2.67,1.48a.91.91,0,0,1-.12.44c-.15.32-.27.64-.43,1A69.62,69.62,0,0,0,358,71.73c-.12.6.16.68.56.28,2.44-2.44,4.27-7.12,5.31-9.84a.56.56,0,0,1,1,.4c-1,2.68-4.51,11.64-7.95,11.64a2.16,2.16,0,0,1-2.32-2.12,58.92,58.92,0,0,1,2.68-11.48c-2.68,2.88-6,10.44-6.24,13.16,0,.4-.24.44-.48.44-1,0-2.52-1.08-2.52-1.92A47.55,47.55,0,0,1,351.46,58.77Z"/>
            <path class="cls-14"
                  d="M367.42,70.73a3.39,3.39,0,0,1,2.76-1.48c.88-.12,1.8-.12,2.56-.28-.37-2.4-3.12-3.88-3.12-7A4.19,4.19,0,0,1,374,57.93c1.45,0,3.28,2,3.28,3.48,0,.84-.87,2.32-1.44,2.32-.88,0-2.11-.6-2.11-1a.21.21,0,0,1,.08-.16c.68,0,1.23-1.08,1.23-1.84,0-.48-.2-.88-.63-.88-1,0-1.44,1.72-1.44,2.44,0,2.12,2.15,3.64,3,5.44a9.37,9.37,0,0,0,4.28-5.56c.2-.68,1.24-.32,1,.36a10.27,10.27,0,0,1-5,6.28c.48,3.52-3.31,5.64-6.39,5.64C367.38,74.45,366.38,72.33,367.42,70.73Zm2.16-.28a1.21,1.21,0,1,0,.68,2.28,4.26,4.26,0,0,0,2.44-2.6C371.86,70.33,370.5,70.21,369.58,70.45Z"/>
            <path class="cls-14"
                  d="M384.54,58.09c1.51,0,4.19,2,4.19,3.8,0,3.72-4.36,6.6-7.43,6.6-.08,2.12.56,3.84,2.4,3.84,3.23,0,6.15-6.56,7.51-10.2.24-.68,1.28-.24,1,.44-1.44,3.92-4.64,11.64-9.15,11.64C373.42,74.21,378.82,58.09,384.54,58.09Zm-3.17,9.48c2.17,0,4.56-3.24,4.56-6.44,0-.84-.68-1.12-1.27-.64C383.06,61.69,381.7,64.85,381.37,67.57Z"/>
        </g>
        <g class="cls-13">
            <path class="cls-14"
                  d="M117.12,99.65c-1.11,2.4-2.67,4.56-4.63,4.56s-2.84-1.52-2.92-3.24c-.2-4.32,1.72-10.64,5.44-12.64,1.28-.72,2.8.28,3.91.84,1.25-5.72,2.84-10.76,3.76-10.76s3.52,1,3.52,1.64a.22.22,0,0,1-.12.2,4.15,4.15,0,0,0-.48.68c-2,3.6-4.6,14.8-5.31,20.44-.12.88.08,1,.63.44,2.32-2.48,4.12-7,5.12-9.64a.56.56,0,0,1,1,.4c-1,2.68-4.52,11.64-8,11.64-2.23,0-2.15-2.36-2-3.92C117.08,100.09,117.12,99.89,117.12,99.65Zm-4.15.16c-.12,1.36.2,2.2.8,2.2.4,0,.92-.4,1.48-1.28a26,26,0,0,0,2.48-5.44c.23-1.52.56-3.12.88-4.72a1,1,0,0,0-.88-.64C115.09,89.93,113.33,96.29,113,99.81Z"/>
            <path class="cls-14"
                  d="M131.76,88.77c2.48,0,4.56,1.72,4.56,3.52a14.78,14.78,0,0,1-1.16,5.6,15.25,15.25,0,0,0,4.12-5.76.57.57,0,0,1,1,.44,15.8,15.8,0,0,1-6.24,7.44c-1.48,2.44-3.59,4.2-6,4.2-2.87,0-4.59-2.88-4.59-5,0-4,2-9.16,5.39-10.92A2.94,2.94,0,0,1,131.76,88.77Zm-4,12.56a9.51,9.51,0,0,0,2.31-.52,17.67,17.67,0,0,0,2.56-8.52c0-2.64-1.43-2.8-2.88-1.24-2.27,2.52-3.39,8.2-2.39,10.36A1.18,1.18,0,0,1,127.73,101.33Z"/>
            <path class="cls-14"
                  d="M151.52,83.85c-.12.36-.28.76-.4,1.16a7.39,7.39,0,0,1,3,.48,3.31,3.31,0,0,1,.44,1.64.64.64,0,0,1-.12.44h-.12a14.14,14.14,0,0,0-3.88-.48,117.08,117.08,0,0,0-3.2,14.24c-.08.92.08,1.08.68.44a35.18,35.18,0,0,0,5.76-9.64.54.54,0,1,1,1,.4c-1,2.68-5.32,11.68-8.6,11.68-2.24,0-2.16-2.4-2-4,0-.48.09-1,.16-1.52-1.52,2.84-3.36,5.48-5.23,5.48a2.45,2.45,0,0,1-2.2-2.72c.08-.52.12-1,.2-1.52a49.35,49.35,0,0,1,3.11-11.24.74.74,0,0,1,.57-.52,5.72,5.72,0,0,1,2.6,1.12c.39.36-.08.88-.21,1.24a69.28,69.28,0,0,0-3,11.16c-.11.6.25.6.61.24,1.72-1.68,3.11-4.56,4.19-7.08.48-2.52,1.08-5.2,1.68-7.68a6.78,6.78,0,0,1-.88,0c-1.68,0-3.56-.52-3.56-2.56A8.89,8.89,0,0,1,143.25,81c.39-.76.71-1.16,1-1.16a7.51,7.51,0,0,1,2.39,1.08c.6.4.56.92.16,1.64a30.39,30.39,0,0,1-2.16,3.08c.8-.08,1.6-.16,2.36-.28a29.3,29.3,0,0,1,.92-3c.4-.92.8-1.48,1.16-1.48.8,0,3.24,1,3.24,1.64a.31.31,0,0,1-.08.2.7.7,0,0,0-.16.2A2.26,2.26,0,0,0,151.52,83.85Z"/>
            <path class="cls-14"
                  d="M165.2,99.65c-1.12,2.4-2.68,4.56-4.64,4.56s-2.83-1.52-2.91-3.24c-.2-4.32,1.72-10.64,5.43-12.64,1.28-.72,2.8.28,3.92.84,1.24-5.72,2.84-10.76,3.76-10.76s3.52,1,3.52,1.64a.22.22,0,0,1-.12.2,4.15,4.15,0,0,0-.48.68c-2,3.6-4.6,14.8-5.32,20.44-.12.88.08,1,.64.44,2.32-2.48,4.12-7,5.12-9.64a.56.56,0,0,1,1,.4c-1,2.68-4.52,11.64-8,11.64-2.24,0-2.16-2.36-2-3.92C165.16,100.09,165.2,99.89,165.2,99.65Zm-4.16.16c-.12,1.36.2,2.2.8,2.2.4,0,.92-.4,1.48-1.28a25.51,25.51,0,0,0,2.48-5.44c.24-1.52.56-3.12.88-4.72a1,1,0,0,0-.88-.64C163.16,89.93,161.4,96.29,161,99.81Z"/>
            <path class="cls-14"
                  d="M181,80.61c-.64,2.88-2.24,3.88-4,3.88-.2,0-.2-.12-.08-.24a4.14,4.14,0,0,0,1.32-1.64c.08-.12.08-.24-.08-.24-2.16-.44-1-4.72.4-4.68a2.83,2.83,0,0,1,2.12.72C181.32,79.05,181.12,79.81,181,80.61Z"/>
            <path class="cls-14"
                  d="M186,88.09c1.52,0,4.2,2,4.2,3.8,0,3.72-4.36,6.6-7.44,6.6-.08,2.12.56,3.84,2.4,3.84,3.24,0,6.16-6.56,7.52-10.2.24-.68,1.28-.24,1,.44-1.44,3.92-4.64,11.64-9.16,11.64C174.85,104.21,180.24,88.09,186,88.09Zm-3.16,9.48c2.16,0,4.56-3.24,4.56-6.44,0-.84-.68-1.12-1.28-.64C184.48,91.69,183.12,94.85,182.8,97.57Z"/>
            <path class="cls-14"
                  d="M193.68,88.77a.71.71,0,0,1,.56-.52,5.17,5.17,0,0,1,2.6,1.16c.4.32,0,.84-.2,1.24a56.42,56.42,0,0,0-2,6.36c1.44-3.08,3.56-6.88,5.48-8.48a1.06,1.06,0,0,1,.76-.28c.56,0,2.68.72,2.68,1.48a.91.91,0,0,1-.12.44c-.16.32-.28.64-.44,1a69.62,69.62,0,0,0-2.8,10.56c-.12.6.16.68.56.28,2.44-2.44,4.28-7.12,5.32-9.84a.56.56,0,0,1,1,.4c-1,2.68-4.52,11.64-8,11.64a2.16,2.16,0,0,1-2.32-2.12,58.92,58.92,0,0,1,2.68-11.48c-2.68,2.88-6,10.44-6.24,13.16,0,.4-.24.44-.48.44-1,0-2.52-1.08-2.52-1.92A47.55,47.55,0,0,1,193.68,88.77Z"/>
            <path class="cls-14"
                  d="M218.08,83.89c-.16.4-.28.8-.4,1.2a6.58,6.58,0,0,1,3,.48c.24.12.48,1.2.48,1.6,0,.24,0,.36-.16.44h-.12a12.33,12.33,0,0,0-3.84-.44,115,115,0,0,0-3.2,14.2c-.08.88.08,1,.64.44a34.78,34.78,0,0,0,5.76-9.64.56.56,0,0,1,1,.4c-1,2.68-5.36,11.64-8.6,11.64-2.24,0-2.16-2.36-2-3.92a93.75,93.75,0,0,1,2.44-13h-.88c-.76,0-2.52,0-2.92-1-.12-.32,0-.48.36-.48a31.07,31.07,0,0,0,3.88-.32,24.39,24.39,0,0,1,.92-3c.4-1,.8-1.48,1.16-1.48.8,0,3.24,1,3.24,1.64,0,.08,0,.12-.12.2s-.08.12-.12.16A2.52,2.52,0,0,0,218.08,83.89Z"/>
            <path class="cls-14"
                  d="M218,100A50.56,50.56,0,0,1,221,88.77c.16-.32.36-.52.6-.52a5.19,5.19,0,0,1,2.56,1.16c.44.32,0,.84-.16,1.24a67.5,67.5,0,0,0-3,11.08c-.12.6.24.6.56.28,2.44-2.44,4.28-7.12,5.32-9.84a.56.56,0,0,1,1,.4c-1,2.68-4.52,11.64-8,11.64a2.43,2.43,0,0,1-2.2-2.72C217.84,101,217.88,100.49,218,100Zm7.2-20A7.31,7.31,0,0,1,227.52,81c.6.4.6.92.16,1.64-.72,1.2-2.88,4.44-3.84,4.48-2.28.08-.16-5.12.36-6.08C224.56,80.33,224.88,79.93,225.16,79.93Z"/>
            <path class="cls-14"
                  d="M227.76,88.77a.71.71,0,0,1,.56-.52,5.17,5.17,0,0,1,2.6,1.16c.4.32,0,.84-.2,1.24a56.42,56.42,0,0,0-2,6.36c1.44-3.08,3.56-6.88,5.48-8.48a1.06,1.06,0,0,1,.76-.28,4.94,4.94,0,0,1,2.48,1c.52.52.2.92-.24,1.24a6.9,6.9,0,0,0-2.12,4.56c0,1,.32,1.44.76,1.44,1.68,0,3.28-3.2,4-4.48a.57.57,0,0,1,1,.6c-.88,1.44-2.56,4.56-4.48,5.24-1.36.52-3.88-.72-4.08-2.48a9.43,9.43,0,0,1,1.08-4.28c.16-.36,0-.28-.12-.08-2.6,3.12-5.68,10.12-5.88,12.72,0,.4-.24.44-.48.44-1,0-2.52-1.08-2.52-1.92A47.55,47.55,0,0,1,227.76,88.77Z"/>
            <path class="cls-14"
                  d="M244.2,88.09c1.52,0,4.2,2,4.2,3.8,0,3.72-4.36,6.6-7.44,6.6-.08,2.12.56,3.84,2.4,3.84,3.24,0,6.16-6.56,7.52-10.2.24-.68,1.28-.24,1,.44-1.44,3.92-4.64,11.64-9.16,11.64C233.08,104.21,238.48,88.09,244.2,88.09ZM241,97.57c2.16,0,4.56-3.24,4.56-6.44,0-.84-.68-1.12-1.28-.64C242.72,91.69,241.36,94.85,241,97.57Z"/>
            <path class="cls-14"
                  d="M251.92,88.77a.71.71,0,0,1,.56-.52,5.17,5.17,0,0,1,2.6,1.16c.4.32,0,.84-.2,1.24a56.42,56.42,0,0,0-2,6.36c1.44-3.08,3.56-6.88,5.48-8.48a1.06,1.06,0,0,1,.76-.28,4.94,4.94,0,0,1,2.48,1c.52.52.2.92-.24,1.24a6.9,6.9,0,0,0-2.12,4.56c0,1,.32,1.44.76,1.44,1.68,0,3.28-3.2,4-4.48a.57.57,0,0,1,1,.6c-.88,1.44-2.56,4.56-4.48,5.24-1.36.52-3.88-.72-4.08-2.48a9.43,9.43,0,0,1,1.08-4.28c.16-.36,0-.28-.12-.08-2.6,3.12-5.68,10.12-5.88,12.72,0,.4-.24.44-.48.44-1,0-2.52-1.08-2.52-1.92A47.55,47.55,0,0,1,251.92,88.77Z"/>
            <path class="cls-14"
                  d="M271.88,87.93c.8,0,3.48,1,3.48,1.68,0,.08,0,.12-.08.2a3.82,3.82,0,0,0-.48.64,17.53,17.53,0,0,0-1.36,3.44,38,38,0,0,1,2.68-4.24,3.82,3.82,0,0,1,2.64-1.88c1.72,0,3.28,2.16,3.28,3.48a16.45,16.45,0,0,1-2.28,7.16,14.31,14.31,0,0,0,4.76-6.28.57.57,0,0,1,1,.44,15.79,15.79,0,0,1-7.2,8c-1.56,2.12-3.4,3.64-4.8,3.64a3.43,3.43,0,0,1-2.28-.76,74.61,74.61,0,0,0-1.2,9.84c0,.32-.12.48-.48.48-1,0-2.64-.92-2.64-1.76C267,105.21,270.2,87.93,271.88,87.93Zm-.08,12.8c-.08.32-.12.6-.2.92a2.43,2.43,0,0,1,1-.32,9.88,9.88,0,0,0,2.28-.56,20,20,0,0,0,3.44-9.64c0-.76-.24-1.2-.6-1.16a.89.89,0,0,0-.64.36A28.56,28.56,0,0,0,271.8,100.73Z"/>
            <path class="cls-14"
                  d="M285.36,88.77a.71.71,0,0,1,.56-.52,5.17,5.17,0,0,1,2.6,1.16c.4.32,0,.84-.2,1.24a56.42,56.42,0,0,0-2,6.36c1.44-3.08,3.56-6.88,5.48-8.48a1.06,1.06,0,0,1,.76-.28,4.94,4.94,0,0,1,2.48,1c.52.52.2.92-.24,1.24a6.9,6.9,0,0,0-2.12,4.56c0,1,.32,1.44.76,1.44,1.68,0,3.28-3.2,4-4.48a.57.57,0,0,1,1,.6c-.88,1.44-2.56,4.56-4.48,5.24-1.36.52-3.88-.72-4.08-2.48A9.43,9.43,0,0,1,291,91.13c.16-.36,0-.28-.12-.08-2.6,3.12-5.68,10.12-5.88,12.72,0,.4-.24.44-.48.44-1,0-2.52-1.08-2.52-1.92A47.55,47.55,0,0,1,285.36,88.77Z"/>
            <path class="cls-14"
                  d="M303.24,88.77c2.48,0,4.56,1.72,4.56,3.52a14.78,14.78,0,0,1-1.16,5.6,15.25,15.25,0,0,0,4.12-5.76.57.57,0,0,1,1,.44,15.8,15.8,0,0,1-6.24,7.44c-1.48,2.44-3.6,4.2-6,4.2-2.88,0-4.6-2.88-4.6-5,0-4,2-9.16,5.4-10.92A2.94,2.94,0,0,1,303.24,88.77Zm-4,12.56a9.69,9.69,0,0,0,2.32-.52,17.67,17.67,0,0,0,2.56-8.52c0-2.64-1.44-2.8-2.88-1.24-2.28,2.52-3.4,8.2-2.4,10.36A1.18,1.18,0,0,1,299.2,101.33Z"/>
            <path class="cls-14"
                  d="M318.8,92.13a.57.57,0,0,1,1,.44,9.59,9.59,0,0,1-6.52,4.76,30.16,30.16,0,0,1-.28,12.72,7.17,7.17,0,0,1-1.44,3,2.23,2.23,0,0,1-1.92.68c-1,0-2.64-.6-2.64-1.48a28.13,28.13,0,0,1,.24-3.4,108.31,108.31,0,0,1,5-23.4c.64-1.76,1.2-2.84,1.64-2.84.76,0,3.48,1,3.48,1.64a.31.31,0,0,1-.08.2,4.37,4.37,0,0,0-.52.68c-1.12,2-2.44,6.52-3.52,11A8.12,8.12,0,0,0,318.8,92.13Zm-7,18.24a26.06,26.06,0,0,0,.76-10.68c-.68,3.44-1.28,7-1.64,10.48-.12,1.24-.08,1.88.08,1.88S311.68,110.73,311.8,110.37Z"/>
            <path class="cls-14"
                  d="M330.68,83.85c-.12.36-.28.76-.4,1.16a7.39,7.39,0,0,1,3,.48,3.31,3.31,0,0,1,.44,1.64.64.64,0,0,1-.12.44h-.12a14.14,14.14,0,0,0-3.88-.48,117.08,117.08,0,0,0-3.2,14.24c-.08.92.08,1.08.68.44a35.18,35.18,0,0,0,5.76-9.64.54.54,0,1,1,1,.4c-1,2.68-5.32,11.68-8.6,11.68-2.24,0-2.16-2.4-2-4,0-.48.08-1,.16-1.52-1.52,2.84-3.36,5.48-5.24,5.48a2.45,2.45,0,0,1-2.2-2.72c.08-.52.12-1,.2-1.52a48.85,48.85,0,0,1,3.12-11.24.71.71,0,0,1,.56-.52,5.67,5.67,0,0,1,2.6,1.12c.4.36-.08.88-.2,1.24a68.26,68.26,0,0,0-3,11.16c-.12.6.24.6.6.24,1.72-1.68,3.12-4.56,4.2-7.08.48-2.52,1.08-5.2,1.68-7.68a6.78,6.78,0,0,1-.88,0c-1.68,0-3.56-.52-3.56-2.56A9,9,0,0,1,322.4,81c.4-.76.72-1.16,1-1.16a7.45,7.45,0,0,1,2.4,1.08c.6.4.56.92.16,1.64a30.39,30.39,0,0,1-2.16,3.08c.8-.08,1.6-.16,2.36-.28a29.3,29.3,0,0,1,.92-3c.4-.92.8-1.48,1.16-1.48.8,0,3.24,1,3.24,1.64a.31.31,0,0,1-.08.2.7.7,0,0,0-.16.2A2.26,2.26,0,0,0,330.68,83.85Z"/>
            <path class="cls-14"
                  d="M332.68,104.25c-2.56-.08-1.32-4.76.08-4.72,1.56,0,2.6.68,2.6,2C335.36,102.21,334.52,104.29,332.68,104.25Z"/>
            <path class="cls-14"
                  d="M350.08,92a55.81,55.81,0,0,1-3.36,5.08c-.48.68-2,.4-2.76-.24-.28-.24-.24-.4,0-.68a54.08,54.08,0,0,0,3.8-5.2A47.53,47.53,0,0,0,346,86c-.12-.32-.12-.48.24-.64.88-.4,2.4-.2,2.72.56.56,1.48,1,3,1.4,4.56A1.69,1.69,0,0,1,350.08,92Zm4.84,0a55.47,55.47,0,0,1-3.32,5.08c-.52.68-2.08.4-2.8-.24-.24-.24-.24-.4,0-.68a54.08,54.08,0,0,0,3.8-5.2A47.53,47.53,0,0,0,350.84,86c-.12-.32-.08-.48.24-.64.88-.4,2.44-.2,2.72.56a46.08,46.08,0,0,1,1.4,4.56A1.69,1.69,0,0,1,354.92,92Z"/>
        </g>
        <g class="cls-13">
            <path class="cls-14"
                  d="M137.11,108.41c.76,0,3.47,1,3.47,1.64a.31.31,0,0,1-.08.2,4.31,4.31,0,0,0-.51.68c-2.32,4.16-5.84,21-6,25.24a44.61,44.61,0,0,1,8.23-1c1,0,1.56.12,1.68.4.32.68.64,3,.16,3.2h-.2a3.38,3.38,0,0,0-.68-.2,28.9,28.9,0,0,0-13.43,1.4c-1.2.52-1.16-2-.24-2.36a17.3,17.3,0,0,1,2.88-1c-.8-.32-1.52-.92-1.52-1.48C130.91,128.33,135.39,108.41,137.11,108.41Z"/>
            <path class="cls-14"
                  d="M149.19,118.09c1.52,0,4.19,2,4.19,3.8,0,3.72-4.35,6.6-7.43,6.6-.08,2.12.56,3.84,2.4,3.84,3.23,0,6.15-6.56,7.51-10.2.24-.68,1.28-.24,1,.44-1.44,3.92-4.64,11.64-9.15,11.64C138.07,134.21,143.47,118.09,149.19,118.09ZM146,127.57c2.16,0,4.55-3.24,4.55-6.44,0-.84-.67-1.12-1.27-.64C147.71,121.69,146.35,124.85,146,127.57Z"/>
            <path class="cls-14"
                  d="M168.9,123.41a47.09,47.09,0,0,0,1.4-9.72c0-1.92-.24-3.48-1-3.48-.24,0-.52.16-.84.56-2.08,2.44-2.56,6.12-2.83,9.16,0,.32,0,.56,0,.84a.23.23,0,0,1,0,.2c-.17.24-.61.32-1.17.32-1.47,0-2.43-.52-2.16-2a26.09,26.09,0,0,1,3.84-9.36,4,4,0,0,1,3.36-1.48c2,0,4.72,1.64,4.72,3.08,0,7.56-3,26-11.76,26-2.23,0-4.39-1.44-4.39-3.76C158.19,129.05,164.18,125.29,168.9,123.41ZM166.38,131a40.84,40.84,0,0,0,2.12-6c-4,1.84-8.75,5.12-8.79,8.88a1.77,1.77,0,0,0,1.83,1.76C164,135.57,165.62,132.73,166.38,131Z"/>
            <path class="cls-14"
                  d="M181.94,118.77c2.48,0,4.56,1.72,4.56,3.52a14.78,14.78,0,0,1-1.16,5.6,15.25,15.25,0,0,0,4.12-5.76.57.57,0,0,1,1,.44,15.8,15.8,0,0,1-6.24,7.44c-1.48,2.44-3.59,4.2-6,4.2-2.87,0-4.59-2.88-4.59-5,0-4,2-9.16,5.39-10.92A2.94,2.94,0,0,1,181.94,118.77Zm-4,12.56a9.61,9.61,0,0,0,2.31-.52,17.67,17.67,0,0,0,2.56-8.52c0-2.64-1.44-2.8-2.88-1.24-2.28,2.52-3.4,8.2-2.4,10.36A1.24,1.24,0,0,1,177.91,131.33Z"/>
            <path class="cls-14"
                  d="M198.14,118.37a3.89,3.89,0,0,1,1.48,1.8,2.49,2.49,0,0,1-.32,2.56,13.5,13.5,0,0,1-4.2,3.88c0,.8.76,5.64,2,5.64.12,0,.24-.08.44-.24,2.4-2.44,3.76-7.12,4.8-9.84a.56.56,0,0,1,1,.4c-1,2.68-4,11.64-7.48,11.64-2.48,0-4-4.12-4.19-6.44a20,20,0,0,0-1.53,4.48,10.6,10.6,0,0,0-.15,1.48c0,.32-.12.48-.49.48-1,0-2.63-.88-2.63-1.76,0-7,4-24,5.72-24,.79,0,3.47,1,3.47,1.64a.31.31,0,0,1-.08.2,2.63,2.63,0,0,0-.48.68c-1.56,2.76-3.4,10-4.52,15.68,1.2-2.52,2.56-5.4,4.6-7.4C196.42,118.49,197.34,117.85,198.14,118.37Zm-5.84,8.2a11.86,11.86,0,0,0,4.24-5.56c.16-.52,0-1.12-.64-.36A27.24,27.24,0,0,0,192.3,126.57Z"/>
            <path class="cls-14"
                  d="M206.5,118.09c1.52,0,4.2,2,4.2,3.8,0,3.72-4.36,6.6-7.44,6.6-.08,2.12.56,3.84,2.4,3.84,3.24,0,6.16-6.56,7.52-10.2.24-.68,1.28-.24,1,.44-1.44,3.92-4.64,11.64-9.16,11.64C195.39,134.21,200.78,118.09,206.5,118.09Zm-3.16,9.48c2.16,0,4.56-3.24,4.56-6.44,0-.84-.68-1.12-1.28-.64C205,121.69,203.66,124.85,203.34,127.57Z"/>
            <path class="cls-14"
                  d="M214.22,118.77a.71.71,0,0,1,.56-.52,5.17,5.17,0,0,1,2.6,1.16c.4.32,0,.84-.2,1.24a56.42,56.42,0,0,0-2,6.36c1.44-3.08,3.56-6.88,5.48-8.48a1.06,1.06,0,0,1,.76-.28,4.94,4.94,0,0,1,2.48,1c.52.52.2.92-.24,1.24a6.9,6.9,0,0,0-2.12,4.56c0,1,.32,1.44.76,1.44,1.68,0,3.28-3.2,4-4.48a.57.57,0,0,1,1,.6c-.88,1.44-2.56,4.56-4.48,5.24-1.36.52-3.88-.72-4.08-2.48a9.43,9.43,0,0,1,1.08-4.28c.16-.36,0-.28-.12-.08-2.6,3.12-5.68,10.12-5.88,12.72,0,.4-.24.44-.48.44-1,0-2.51-1.08-2.51-1.92A47.2,47.2,0,0,1,214.22,118.77Z"/>
            <path class="cls-14"
                  d="M231.86,121.93a9.83,9.83,0,0,1-.36-1.76c0-.4.16-.4.36-.32a5.5,5.5,0,0,0,1.88.12c2.44-.12,5.16-.32,7.52-.24.8,0,1.48,1.48,1.36,2.44,0,.36-.2.44-.52.4a80.89,80.89,0,0,0-8.8.32A1.23,1.23,0,0,1,231.86,121.93Z"/>
            <path class="cls-14"
                  d="M256,108.41c.8,0,3.48,1,3.48,1.64a.31.31,0,0,1-.08.2,2.63,2.63,0,0,0-.48.68c-1.52,2.68-3.32,9.48-4.44,15.16a105.9,105.9,0,0,1,3.76-10.32,23.07,23.07,0,0,1,3.6-6,4.4,4.4,0,0,1,3.2-1.52c6,0,3.68,10.88-1.68,14.36a5.35,5.35,0,0,1,2,2.56c1.36,4.2-1.56,11.32-7.68,11.32a3.92,3.92,0,0,1-3.08-1.32c-.6-.68-.28-2,.24-1.4a2.27,2.27,0,0,0,1.88.88c4.52,0,7.4-11,4.2-11a3.91,3.91,0,0,1-2.16-.12c-.44-.24-.84-1-.72-1.28s1.16-.68,1.84-.68c4.16-2.32,7.2-11.24,4-11.24-1.2,0-2.84,2.2-4.44,5.88a112.06,112.06,0,0,0-5.68,17.44c-.08.36-.32.52-.76.52-1,0-2.64-.88-2.64-1.76C250.26,125.69,254.3,108.41,256,108.41Z"/>
            <path class="cls-14"
                  d="M274.34,130a.59.59,0,0,0,0-.28c-1.16,2.44-2.68,4.52-4.48,4.52a2.53,2.53,0,0,1-2.64-2.48c-.52-4.36,1.72-11.28,5.68-13.4,1.24-.72,2.68.24,4.12,1a2,2,0,0,0,.2-.52c.16-.32.36-.52.6-.52a5.19,5.19,0,0,1,2.56,1.16c.44.32,0,.84-.2,1.24a69.6,69.6,0,0,0-2.84,11.08c-.12.6.24.6.56.28,2.44-2.44,4.12-7.12,5.16-9.84a.56.56,0,0,1,1,.4c-1,2.68-4.36,11.64-7.8,11.64a2.43,2.43,0,0,1-2.2-2.72C274.22,131,274.26,130.49,274.34,130Zm1.88-8.48a8,8,0,0,1,.4-1,1.08,1.08,0,0,0-1-.52c-2.76,0-4.88,6.88-5.12,10.32,0,.44-.12,1.88.52,1.88C273,132.13,275.62,123.37,276.22,121.49Z"/>
            <path class="cls-14"
                  d="M288.66,113.89c-.16.4-.28.8-.4,1.2a6.58,6.58,0,0,1,3,.48c.24.12.48,1.2.48,1.6,0,.24,0,.36-.16.44h-.12a12.33,12.33,0,0,0-3.84-.44,115,115,0,0,0-3.2,14.2c-.08.88.08,1,.64.44a34.78,34.78,0,0,0,5.76-9.64.56.56,0,0,1,1,.4c-1,2.68-5.36,11.64-8.6,11.64-2.24,0-2.16-2.36-2-3.92a93.75,93.75,0,0,1,2.44-13h-.88c-.76,0-2.52,0-2.92-1-.12-.32,0-.48.36-.48a31.07,31.07,0,0,0,3.88-.32,24.39,24.39,0,0,1,.92-3c.4-1,.8-1.48,1.16-1.48.8,0,3.24,1,3.24,1.64,0,.08,0,.12-.12.2s-.08.12-.12.16A2.52,2.52,0,0,0,288.66,113.89Z"/>
            <path class="cls-14"
                  d="M291.66,118.77a.71.71,0,0,1,.56-.52,5.33,5.33,0,0,1,2.6,1.16c.4.32,0,.84-.2,1.24a56.42,56.42,0,0,0-2,6.36c1.44-3.08,3.56-6.88,5.48-8.48a1.06,1.06,0,0,1,.76-.28,4.75,4.75,0,0,1,2.52,1.08c.24.32.16.52,0,.84A59,59,0,0,0,299.3,127c1.44-3.08,3.56-6.88,5.48-8.48a1.12,1.12,0,0,1,.76-.28c.6,0,2.72.72,2.72,1.48a1.8,1.8,0,0,1-.12.44,4.47,4.47,0,0,0-.44,1,65.64,65.64,0,0,0-2.84,10.56c-.12.6.16.68.6.28,2.4-2.44,4.24-7.12,5.28-9.84a.56.56,0,0,1,1,.4c-1,2.68-4.52,11.64-8,11.64a2.18,2.18,0,0,1-2.32-2.12,58.92,58.92,0,0,1,2.68-11.48c-2.64,2.88-6,10.44-6.2,13.16,0,.4-.28.44-.52.44-1,0-2.52-1.08-2.52-1.92a49.31,49.31,0,0,1,2.64-11.64c-2.68,2.92-6.08,10.4-6.28,13.12,0,.4-.24.44-.48.44-1,0-2.52-1.08-2.52-1.92A47.55,47.55,0,0,1,291.66,118.77Z"/>
            <path class="cls-14"
                  d="M315.42,130a.59.59,0,0,0,0-.28c-1.16,2.44-2.68,4.52-4.48,4.52a2.53,2.53,0,0,1-2.64-2.48c-.52-4.36,1.72-11.28,5.68-13.4,1.24-.72,2.68.24,4.12,1a2,2,0,0,0,.2-.52c.16-.32.36-.52.6-.52a5.19,5.19,0,0,1,2.56,1.16c.44.32,0,.84-.2,1.24a69.6,69.6,0,0,0-2.84,11.08c-.12.6.24.6.56.28,2.44-2.44,4.12-7.12,5.16-9.84a.56.56,0,0,1,1,.4c-1,2.68-4.36,11.64-7.8,11.64a2.43,2.43,0,0,1-2.2-2.72C315.3,131,315.34,130.49,315.42,130Zm1.88-8.48a8,8,0,0,1,.4-1,1.08,1.08,0,0,0-1-.52c-2.76,0-4.88,6.88-5.12,10.32,0,.44-.12,1.88.52,1.88C314.06,132.13,316.7,123.37,317.3,121.49Z"/>
            <path class="cls-14"
                  d="M325,118.77a.71.71,0,0,1,.56-.52,5.17,5.17,0,0,1,2.6,1.16c.4.32,0,.84-.2,1.24a56.42,56.42,0,0,0-2,6.36c1.44-3.08,3.56-6.88,5.48-8.48a1.06,1.06,0,0,1,.76-.28c.56,0,2.68.72,2.68,1.48a.91.91,0,0,1-.12.44c-.16.32-.28.64-.44,1a69.62,69.62,0,0,0-2.8,10.56c-.12.6.16.68.56.28,2.44-2.44,4.28-7.12,5.32-9.84a.56.56,0,0,1,1,.4c-1,2.68-4.52,11.64-8,11.64a2.16,2.16,0,0,1-2.32-2.12,58.92,58.92,0,0,1,2.68-11.48c-2.68,2.88-6,10.44-6.24,13.16,0,.4-.24.44-.48.44-1,0-2.52-1.08-2.52-1.92A47.55,47.55,0,0,1,325,118.77Z"/>
        </g>
    </g>
    <path class="cls-10" d="M348.31,567.26s3.76-18.5,19.17-29.84"/>
    <path class="cls-10" d="M354.65,542.36s17.86-4.52,35.33,10"/>
    <path class="cls-10" d="M349.81,550.63s17.86-4.52,35.33,10"/>
    <path class="cls-10" d="M346.26,561.28s15.95-5,30.54,4.65"/>
    <path class="cls-10" d="M357.89,570.2s3.76-18.49,19.17-29.83"/>
    <path class="cls-10" d="M367.21,574s3.76-18.49,19.17-29.83"/>
</svg>
