<?xml version="1.0" encoding="utf-8"?>
<!-- Generator: Adobe Illustrator 22.1.0, SVG Export Plug-In . SVG Version: 6.00 Build 0)  -->
<svg version="1.1" id="Calque_1" xmlns="http://www.w3.org/2000/svg" xmlns:xlink="http://www.w3.org/1999/xlink" x="0px" y="0px"
	 viewBox="0 0 350 300" style="enable-background:new 0 0 350 300;" xml:space="preserve">
<style type="text/css">
	.st0{fill:#818591;stroke:#000000;stroke-miterlimit:10;}
	.st1{fill:none;stroke:#000000;stroke-width:4;stroke-miterlimit:10;}
</style>
<rect class="st0" width="350" height="300"/>
<title>selected</title>
<g id="N2Km1Q.tif">
	<path d="M180.3,135.6v10.7h-8.8v-10.7H180.3 M184.3,131.6h-16.8v18.7h16.8V131.6z"/>
	<path d="M210.8,51.3l2.6,2.6l3.8,3.9l-3.3,2.8l-6.2,5.2l-5.6-5.3L210.8,51.3 M210.8,45.6l-14.3,15.1l11.1,10.5l15.6-13L210.8,45.6z
		"/>
	<path d="M209.5,120.5l7,6.7l0.4,0.3l-1.8,2c-1.5,1.8-3.1,3.5-4.8,5c-1.2-0.7-3.6-3.5-6.2-6.5l-1.1-1.3L209.5,120.5 M209.5,115.1
		l-12.1,11.4c7.3,8.4,10.1,12.3,12.8,12.3s5.3-3.9,12.3-11.4L209.5,115.1L209.5,115.1z"/>
	<path d="M140.7,51.7l6.7,7.3l1.6,1.8l-1.6,1.6l-4.3,4.2l-8.8-8.5L140.7,51.7 M140.8,45.8l-12.1,12.3l14.5,14.1L154.6,61L140.8,45.8
		L140.8,45.8z"/>
	<path d="M179.9,40.3v10.5h-8.1V40.3H179.9 M183.9,36.3h-16.1v18.5h16.1V36.3z"/>
	<path d="M134.1,89.3v8.2c-2.6,0.8-5.2,1.2-7.9,1.3c-0.8,0-2.1-0.1-2.6-0.6s-1.2-2.6-0.4-8.9L134.1,89.3 M138.1,85.3h-18.3
		c-2.2,12.5-0.9,17.5,6.4,17.5c2.9,0,6.9-0.8,11.9-2.3C138.1,95.8,138.1,91.1,138.1,85.3L138.1,85.3z"/>
	<path d="M142.9,119.8l1.5,1.6l4.5,4.8c-3.3,4-6.3,7.6-7.7,8.3c-1-0.6-3.1-3.3-5-5.6l-0.7-0.9L142.9,119.8 M143,113.9l-12.7,14
		c5.6,6.8,8.1,10.7,11,10.7s6-3.9,13-12.5L143,113.9L143,113.9z"/>
	<path d="M217.7,88.5l1.1,0.1c3.5,0.1,6.9,0.7,10.3,1.6c0.3,2,0.3,4.1,0,6.1c-2.7,1-6.1,1.4-9.9,1.7l-1.5,0.2L217.7,88.5
		 M213.7,84.1v18.6c6.9-1,13.3-0.8,18.3-3.3c1.8-0.9,1.7-11.7,0-12.4C226.7,84.7,220.2,84.9,213.7,84.1L213.7,84.1z"/>
</g>
<path d="M176,38c30.3,0,54.9,24.6,54.9,54.9s-24.6,54.9-54.9,54.9s-54.9-24.6-54.9-54.9c0,0,0,0,0,0C121.2,62.6,145.7,38,176,38
	 M176,34c-32.5,0-58.9,26.4-58.8,58.9s26.4,58.9,58.9,58.8c32.5,0,58.8-26.4,58.8-58.9C234.9,60.4,208.5,34,176,34
	C176,34,176,34,176,34z"/>
<path d="M175.2,60.6c18.3,0,33.1,14.8,33.1,33.1s-14.8,33.1-33.1,33.1s-33.1-14.8-33.1-33.1l0,0C142.1,75.4,157,60.6,175.2,60.6
	 M175.2,56.6c-20.5,0-37.1,16.6-37.1,37.1s16.6,37.1,37.1,37.1s37.1-16.6,37.1-37.1c0,0,0,0,0,0C212.3,73.2,195.7,56.6,175.2,56.6z"
	/>
<path class="st1" d="M234.9,83.8c12.4,47.4,24.7,94.8,37.1,142.1H72c15.4-47.4,30.8-94.8,46.2-142.1"/>
<line class="st1" x1="81.7" y1="198.5" x2="260.7" y2="198.5"/>
</svg>
