<svg id="Calque_1" data-name="Calque 1" xmlns="http://www.w3.org/2000/svg" viewBox="0 0 480 480"><defs><style>.cls-1{fill:#daecff;}.cls-2{fill:#ffd258;stroke:#0a0a0a;}.cls-2,.cls-4{stroke-miterlimit:10;}.cls-3{fill:#fffbf2;}.cls-3,.cls-6{opacity:0.75;}.cls-4{fill:none;stroke:#000;}.cls-5{fill:#c6961e;}.cls-6{fill:#ead9b7;}</style></defs><title>animaux</title><rect class="cls-1" x="53.23" y="50.39" width="391.54" height="391.54" rx="79.16" ry="79.16"/><g id="_2hjmgg.tif" data-name="2hjmgg.tif"><path class="cls-2" d="M244.72,230.94c18.79,1.27,32.3,9.84,41.78,25.4,6.6,10.83,13.47,21.48,20.18,32.24,10.14,16.27,6.21,35.49-9.76,45.65a29.63,29.63,0,0,1-11.45,4.42c-3.68.57-8.58.56-17.07-2.45-15.32-5.42-15.77-11.2-23.68-12.1-10.87-1.24-12.79,9.38-26.11,12.12-19.68,4-42.55-13.59-43.76-26.2a32.55,32.55,0,0,1,5-20.76c7.44-12,14.76-24.14,22.57-35.9C212.67,237.88,227.37,230.82,244.72,230.94Z"/><path class="cls-3" d="M255.8,167.69c0,.47-.05,1.44-.09,1.62s-.08.6-.13,1.12a8.59,8.59,0,0,1-.18,1.79c-.06.25-.13,0-.22.93-.08.33-.17.67-.26,1.11-.1.11-.2,1.29-.32,1.57-.11-.24-.23.91-.36,1.21-.13-.43-.27.89-.41,1.41-.15-.08-.3,1.62-.47,1.48-.16.82-.33.36-.52,1.08-.18-.28-.37,1.16-.57,1.06-.2.61-.41.7-.62,1.43s-.45,1.11-.69,1.09c-.24.39-.48.81-.74,1.31a15.2,15.2,0,0,0-1.66,2.3c-.59.63-1.23,1.38-1.91,2.19a7.75,7.75,0,0,1-2.16,2.07c-.76,1.88-1.57,2.26-2.43,1.93-.85.44-1.75,1.92-2.7,1.79-.86.21-1.74,2.4-2.63,1.38-.89-.84-1.79.54-2.7,1.08a6.93,6.93,0,0,1-2.76.76,14.3,14.3,0,0,0-2.8.44c-.94-.27-1.88.15-2.82.15a26.48,26.48,0,0,1-2.81-.17,24.08,24.08,0,0,1-2.78-.47c-.91.07-1.82-.58-2.72-.76s-1.79-.2-2.66-1.07a2.58,2.58,0,0,0-2.56-1.36,26.25,26.25,0,0,1-2.45-1.65c-.79-.62-1.57-1.79-2.31-1.94a8.08,8.08,0,0,0-2.15-2.23c-.7-1-1.36-1.45-2-2.46s-1.2-1.91-1.74-2.55c-.54-.87-1-1.75-1.51-2.64s-.89-1.78-1.28-2.72a12.66,12.66,0,0,1-1-2.78,12.54,12.54,0,0,1-.81-2.82c-.24-1.85-.43-1.12-.58-2.87a24.09,24.09,0,0,1-.35-2.89c-.08-1-.12-1.8-.12-2.9,0-.8,0-1.75.12-2.89s.2-.59.36-2.89a6.68,6.68,0,0,1,.59-2.85,9,9,0,0,0,.82-2.82c.31-.09.67-1.17,1.06-2.76a7.64,7.64,0,0,0,1.29-2.7,10,10,0,0,1,1.53-2.62c.54-.18,1.13-1.49,1.76-2.52a8.11,8.11,0,0,0,2-2.43,13.54,13.54,0,0,0,2.22-2.25c.77-.19,1.55-2,2.36-1.95a7.32,7.32,0,0,1,2.47-1.65c.84-.68,1.7-.67,2.57-1.34.87-.34,1.76.43,2.65-1a8.45,8.45,0,0,0,2.71-.74c.91.88,1.83-.91,2.75-.44s1.84,0,2.77-.14a5.13,5.13,0,0,0,2.77.15,25.62,25.62,0,0,1,2.76.46,7.07,7.07,0,0,1,2.73.75,15.37,15.37,0,0,0,2.67,1.05c.88,1.15,1.75.65,2.6,1.34a9.78,9.78,0,0,1,2.51,1.65c.82,1.45,1.62,1.22,2.4,1.93.78,1.69,1.54,2.32,2.28,2.24a5.83,5.83,0,0,1,1.81,2.11c.56.55,1.1,2.28,1.6,2.22a13.68,13.68,0,0,1,1.39,2.32c.43.81.83,1.81,1.2,2.43s.7,1.85,1,2.56a15.51,15.51,0,0,1,.81,2.68c.24,1,.45,1.93.63,2.81.09.48.17,1,.24,1.46s.14,1,.2,1.5c.06.93.11,1.92.16,2,0,.49.08.71.11,1.09a5.46,5.46,0,0,0,.07,1.11C255.79,165.63,255.79,165.77,255.8,167.69Z"/><path class="cls-3" d="M317.26,176c-1.06,14.28-6.66,25.21-19.73,31.2a24.84,24.84,0,0,1-33.2-12.5c-7.17-15.52-1-34.88,13.84-43.41,15.14-8.71,33.31-.73,37.76,16.64C316.64,170.69,316.87,173.57,317.26,176Z"/><path class="cls-3" d="M163.62,175a25.09,25.09,0,0,1,19.73,3.82c10.34,6.85,15.76,16.54,15,29.15-1.09,17.18-17.78,27.33-33.65,20.62a32,32,0,0,1-19.3-33.44A23.45,23.45,0,0,1,163.62,175Z"/><path class="cls-3" d="M298.11,230.91c-.18-15.16,13.4-32.6,32.88-31,10.71.88,19.44,9.85,20.79,21.55,1.71,14.76-9.65,30.47-24.18,33.44C311.41,258.2,298.31,247.54,298.11,230.91Z"/><path class="cls-4" d="M244.18,230.65c1.11.57,2.19,1.06,3.26.3a10,10,0,0,0,3.16.45,5.77,5.77,0,0,1,3,.6c1,.1,2,1.08,2.94.76,1,.22,1.91,1,2.84.9a4.82,4.82,0,0,1,2.74,1.05c.89.08,1.77,1,2.63,1.2s1.71,1.22,2.54,1.35,1.64,1.49,2.44,1.5c.8-.19,1.58,2,2.34,1.65a4.86,4.86,0,0,0,2.25,1.79c.74.92,1.46,1.88,2.16,2s1.39,2.45,2.07,2.08a8.67,8.67,0,0,0,2,2.24,9.89,9.89,0,0,1,1.89,2.38c.62,1,1.22,1.72,1.8,2.53a16.91,16.91,0,0,1,1.72,2.67c.51,1.28,1,1.23,1.53,2.5.51.18,1,2.18,1.53,2.49l1.54,2.49c.52.82,1,1.65,1.55,2.48s1,2.94,1.56,2.48c.52.19,1,.84,1.55,2.47l1.56,2.48q2.35,3.71,4.69,7.42l1.56,2.48c.52,1.05,1,1,1.55,2.48.52.7,1,2.43,1.55,2.48s1.09,1.73,1.56,2.73.91,2.62,1.3,2.78c.4,1.18.74,1.78,1.05,2.81a21.73,21.73,0,0,1,.79,2.83c.22,1.17.4,1.7.54,2.83a19.84,19.84,0,0,1,.29,2.82c.05,1.27.07,1.57,0,2.81,0,.93-.1,1.85-.21,2.77a30.72,30.72,0,0,1-4.64,13c-.51.79-1.05,1.57-1.64,2.32a22,22,0,0,1-1.87,2.21c-.66.71-1.36,1.4-2.09,2.07a9.84,9.84,0,0,0-2.33,1.93c-.81,1.28-1.66,1-2.55,1.78-.74-.15-1.48,1.37-2.23,1.3a4.83,4.83,0,0,1-2.27,1.1c-.76.32-1.52.62-2.29.88a3.66,3.66,0,0,0-2.32.67c-.77,0-1.55-.48-2.34.46-.52,1.48-1.07,0-1.66.21-.58-.56-1.19-.14-1.84.08a3.49,3.49,0,0,1-2.09-.06,7,7,0,0,1-2.35-.27c-.84-.12-1.73-.29-2.67-.5s-2-1-3-.79c-1.08-1.84-2.22-.81-3.43-1.11-1.53-1-2.91-.41-4.17-1.64-1.26-1.4-2.39-1.09-3.41-1.62a12.07,12.07,0,0,1-2.79-1.58c-.84-.3-1.6-.31-2.3-1.51-.7-.22-1.34-1.1-1.95-1.4a13.22,13.22,0,0,0-1.72-1.27,9.94,9.94,0,0,1-1.63-1.1c-.54-1.7-1.1-.25-1.68-.9-.58-.14-1.19.35-1.86-.67s-1.37.7-2.17-.42c-1.08-.2-2.08.71-3,0-.93.67-1.79.44-2.6.56a17.1,17.1,0,0,0-2.3,1c-.74.19-1.44,1-2.14,1.39-.7.52-1.38,1.41-2.08,1.62-.71.54-1.42,2.5-2.16,1.75-.75.71-1.53,1-2.36,1.74-.83.38-1.71,1.27-2.67,1.63s-2,1.37-3.11,1.39c-1.13.65-2.35.34-3.68,1-1-.48-2.08.16-3.13.46-1.05-.3-2.1.67-3.16.13a14.65,14.65,0,0,1-3.17-.19c-1.06-.06-2.11.18-3.16-.48s-2.09-1.35-3.13-.74c-1-.22-2-.15-3.07-1a13.5,13.5,0,0,0-3-1.21c-1,.13-1.94-1.21-2.89-1.4-.94-.82-1.87-.34-2.77-1.58A6.32,6.32,0,0,1,188,328.2a2.61,2.61,0,0,1-2.47-1.86c-.79-.87-1.55-1.21-2.27-2-.73-1.35-1.42-.79-2.07-2s-1.27-.77-1.85-2.09a4.42,4.42,0,0,1-1.59-2.13c-.48-1-.92-1.25-1.31-2.14a3.54,3.54,0,0,1-1-2.13c-.29-.1-.53-2.14-.71-2.09-.18-1.05-.3-2.47-.37-2-.09-2.13-.14-2.56-.15-2.81a19.47,19.47,0,0,1,.08-2.74,14,14,0,0,1,.3-2.68c.14-1,.31-1.44.52-2.62.21-.7.46-1.7.74-2.56a25.51,25.51,0,0,0,1-2.5c.35-1.33.74-1.22,1.16-2.45.42-1.45.88-1,1.36-2.39a6.62,6.62,0,0,1,1.49-2.41c.5-1.05,1-1.42,1.49-2.41a17.73,17.73,0,0,0,1.48-2.4c.49-.87,1-2.23,1.48-2.41.5-1.1,1-1.14,1.49-2.41a6.09,6.09,0,0,0,1.48-2.41c.5-1.71,1-1.07,1.49-2.4.5-.63,1-2.72,1.5-2.4.5-1.43,1-.9,1.5-2.4a8.23,8.23,0,0,1,1.5-2.39,10.77,10.77,0,0,0,1.52-2.39l1.52-2.38q2.29-3.57,4.63-7.1.92-1.37,1.86-2.64c.64-.86,1.29-1.67,1.95-2.48.66-.12,1.34-2.28,2-2.29a11.84,11.84,0,0,0,2.12-2.13,4.31,4.31,0,0,1,2.2-2c.75-.79,1.51-1,2.29-1.8s1.56-.69,2.37-1.62c.8.12,1.61-1.48,2.44-1.47.82-.81,1.66-.62,2.51-1.3s1.72-.44,2.59-1.14a4.71,4.71,0,0,1,2.66-1,5.4,5.4,0,0,0,2.73-.83c.92-.74,1.85-.12,2.79-.66.94.16,1.89-.44,2.86-.51s1.93-.31,2.91-.36c1-.77,2-.48,3-.2C242.15,229.33,243.16,229.67,244.18,230.65Z"/><path class="cls-4" d="M256.17,168.11c-.53,11-5.05,21.66-16.44,28.49-11.16,6.7-25.2,4.44-34.14-5.84-12.54-14.4-12.58-34.9.12-49.11,11.46-12.82,29.46-12.69,41.21,0C253.31,148.56,256.13,157,256.17,168.11Z"/><path class="cls-4" d="M317.64,176.42c-.08,1.19-.19,2.05-.33,3.23a12,12,0,0,1-.49,3.12c-.2.95-.42,2.08-.68,3a18.46,18.46,0,0,1-.86,2.85c-.31.93-.66,1.84-1,2.72a31.28,31.28,0,0,1-4.39,7.29c-.6.73-1.23,1.44-1.9,2.12s-1.39,1.34-2.14,2-1.55,1.23-2.38,1.81-1.71.26-2.63,1.64c-.91.5-1.87.9-2.88,1.47-.91,1.21-1.84.07-2.76,1.08a5.42,5.42,0,0,1-2.8.74c-.93-.31-1.87,1-2.8.41-.93,0-1.86.11-2.78.09a22.66,22.66,0,0,1-2.75-.23,22.05,22.05,0,0,1-2.69-.53c-.88.71-1.75-.65-2.61-.82-.85.49-1.68-1.2-2.5-1.11a15.65,15.65,0,0,0-2.37-1.39,21.61,21.61,0,0,1-2.22-1.65,26.2,26.2,0,0,1-2.05-1.91,25.65,25.65,0,0,1-1.85-2.16c-.58-.57-1.13-2-1.63-2.4-.51,0-1-2.46-1.39-2.62s-.8-2.68-1.13-2.78c-.33-.7-.62-2.2-.86-2.83a22.18,22.18,0,0,1-.59-2.89c-.15-1.05-.26-1.78-.33-2.9s-.09-2.13-.07-2.92c0-1,.07-1.94.17-2.9s.24-1.93.41-2.88c.18-1.17.4-1.55.65-2.83s.56-1,.89-2.77a11.43,11.43,0,0,1,1.11-2.69c.4-.07.85-1.93,1.32-2.58a22.22,22.22,0,0,0,1.55-2.47,25.4,25.4,0,0,0,1.75-2.34c.61-.53,1.27-1.75,1.95-2.18s1.4-1.81,2.15-2c.75-.93,1.53-1.08,2.34-1.82.81-.21,1.66-1.58,2.53-1.62s1.9-1.13,2.87-1.44c1,.19,1.94-1.58,2.92-1.06a7.66,7.66,0,0,0,2.93-.68c1,.2,2-.56,2.94-.33s2,.68,2.91,0c1-.28,1.92.8,2.86.36s1.87-.1,2.78.68c.91.44,1.8,2.07,2.68,1,.87.15,1.72,1,2.55,1.31.83.6,1.63.22,2.41,1.6s1.52,1.18,2.23,1.88c.71,1.07,1.39.15,2,2.16.64.75,1.25,2.11,1.81,2.42a18.77,18.77,0,0,1,1.56,2.67c.47,1.23.91.83,1.29,2.91a7.8,7.8,0,0,1,1,3.15c.17.39.32.34.45,2.08a16,16,0,0,1,.33,2.08c.1-.06.19,2.19.28,2S317.54,176.31,317.64,176.42Z"/><path class="cls-4" d="M164,175.39a3.52,3.52,0,0,1,2.65-.44c.87-1.31,1.74.25,2.6-.17a3.88,3.88,0,0,1,2.56.1,13.34,13.34,0,0,1,2.51.37,6.76,6.76,0,0,1,2.44.62c.81.62,1.61.47,2.39.87.79.14,1.56,1.45,2.32,1.12a4.92,4.92,0,0,0,2.26,1.35,23.79,23.79,0,0,1,2.48,1.77c.79-.12,1.55,1.23,2.27,1.9s1.41,1.32,2.06,2a14.3,14.3,0,0,1,1.84,2.12c.57,1.12,1.11,2.16,1.61,2.25.5,1,1,1.36,1.39,2.37s.81,1.77,1.16,2.49c.34,1.36.65,1.58.92,2.6.27,1.26.49,1.76.68,2.73s.33,1.86.43,2.85c.1,2.25.16,2.69.18,3,0,1.86,0,.61-.07,3.09a14.34,14.34,0,0,1-.38,3.14,7.72,7.72,0,0,1-.73,3,11.77,11.77,0,0,1-1,2.76c-.4.9-.85,2.23-1.34,2.55a24.45,24.45,0,0,0-1.6,2.34,15.75,15.75,0,0,1-1.85,2.09c-.66.3-1.35,1.4-2.08,1.85a3.8,3.8,0,0,1-2.26,1.58c-.79,1.75-1.61.31-2.45,1.3-.84.06-1.7.85-2.59,1a6.81,6.81,0,0,1-2.71.7c-.93.38-1.87,0-2.82.37a3.28,3.28,0,0,1-2.9,0c-1-.07-2-.18-2.94-.31a6.72,6.72,0,0,0-3-.69c-1,.13-2-1.15-3-1.06-.94-.65-1.86-.77-2.75-1.32a4.17,4.17,0,0,1-2.58-1.55c-.83-.67-1.63-1.17-2.39-1.76-.77.63-1.5-.85-2.21-2s-1.37-.58-2-2.14c-.63-.18-1.23-1.62-1.79-2.31-.56-.3-1.09-.93-1.57-2.46a5.77,5.77,0,0,1-1.35-2.59c-.4-.27-.77-1.7-1.1-2.71a27.81,27.81,0,0,1-.85-2.8,11.09,11.09,0,0,1-.59-2.88c-.16-1.07-.26-1.9-.33-2.94-.06-.63-.07-2.14,0-3,0,.52.11-2.12.25-3s.32-3,.56-2.95c.25-.31.55-3.94.9-2.81.36-1.64.77-1.63,1.22-2.64a5.91,5.91,0,0,1,1.51-2.44,7,7,0,0,1,1.79-2.23c.64-.31,1.32-1.83,2-2a8.31,8.31,0,0,1,2.27-1.72c.79-.57,1.62-.6,2.47-1.44.86-1.13,1.75-2.31,2.67-1.13C162.08,175.83,163,176.28,164,175.39Z"/><path class="cls-4" d="M298.48,231.33c0-.33,0,.31,0-1.34a9,9,0,0,1,.09-1.35,8,8,0,0,1,.16-1.36c.07.19.14-1.29.23-1.36s.18-.24.29-1.21a8.48,8.48,0,0,1,.36-1.5c.26-.53.57-1.83.91-2.68.35-.24.73-1.7,1.16-2.63a7.22,7.22,0,0,1,1.39-2.54c.51-.58,1.05-2,1.63-2.43s1.19-2,1.84-2.3a7,7,0,0,1,2.05-2.13c.71-1.41,1.46-1,2.25-1.95a3.16,3.16,0,0,1,2.44-1.74c.84-.39,1.71-1.31,2.61-1.5.91-.42,1.84.16,2.79-1.23,1-.25,1.94-1.07,2.95-.94,1-.61,2.05-.12,3.1-.62a8,8,0,0,1,1.61-.22c.54-.66,1.08-.1,1.64-.07s1.11-.72,1.67,0c.56-.51,1.13.52,1.7.09,1,.63,1.93-.37,2.87.44.93,1,1.85-.35,2.74.81a11,11,0,0,1,2.6,1.17c.84,0,1.65,1.37,2.43,1.49a4,4,0,0,1,2.23,1.8,15.9,15.9,0,0,1,2,2.08,14.62,14.62,0,0,1,1.77,2.34,6.17,6.17,0,0,1,1.5,2.57,22.44,22.44,0,0,1,1.2,2.77c.35,1.28.65,2.35.89,3s.43,2.57.55,3.12a23.08,23.08,0,0,1,.17,3c0,1.06-.06,1.84-.16,3-.11.66-.27,2-.48,2.94a18.89,18.89,0,0,1-.77,2.89,26.07,26.07,0,0,1-1,2.82,7.53,7.53,0,0,1-1.31,2.72c-.48,1.11-1,1.19-1.55,2.61a10.42,10.42,0,0,0-1.78,2.45,5.5,5.5,0,0,1-2,2.29c-.7.8-1.42.92-2.18,2.09a4.66,4.66,0,0,0-2.34,1.88,21.62,21.62,0,0,0-2.5,1.63,23.63,23.63,0,0,1-2.64,1.37,3.53,3.53,0,0,1-2.76,1.07c-.94.15-1.89.82-2.86.76-1.08.16-2.15-.18-3.2.48a13.27,13.27,0,0,0-3.09.12,26.43,26.43,0,0,1-3-.23,23.76,23.76,0,0,1-2.84-.55c-.92,0-1.82-.92-2.69-.87s-1.71-1.83-2.52-1.17c-.81-.43-1.59-1.71-2.33-1.46s-1.46-.73-2.13-1.73a27.48,27.48,0,0,1-1.91-2c-.6-1-1.15-.89-1.67-2.23a19.24,19.24,0,0,0-1.41-2.47c-.43-1-.81-2.1-1.14-2.68a20.89,20.89,0,0,1-.84-2.88c-.23-1-.41-2.18-.54-3.07C298.57,232.66,298.5,233,298.48,231.33Z"/><path class="cls-5" d="M300.86,290.12c-3.47-5.56-7-11.08-10.46-16.63-7.68,19.29-16.47,38.15-23.5,57.69l.74.26c7.37,2.62,11.62,2.62,14.81,2.13a25.86,25.86,0,0,0,9.94-3.83C306.24,320.91,309.66,304.24,300.86,290.12Z"/><path class="cls-6" d="M345.41,228.07c-11.63,6.94-22.27,15-33.15,22.74a22.78,22.78,0,0,0,14.69,2c11.43-2,20.37-12.43,19-22.26A15.55,15.55,0,0,0,345.41,228.07Z"/><path class="cls-6" d="M311,181.44c-11.63,6.94-22.27,15-33.15,22.74a22.78,22.78,0,0,0,14.69,2c11.43-2,20.37-12.43,19-22.26A15.55,15.55,0,0,0,311,181.44Z"/><path class="cls-6" d="M250.08,171.73c-11.63,7-22.27,15-33.15,22.74a22.65,22.65,0,0,0,14.69,2c11.43-2,20.37-12.43,19-22.25A14.86,14.86,0,0,0,250.08,171.73Z"/><path class="cls-6" d="M195.1,203c-11.62,7-22.26,15-33.15,22.74a22.72,22.72,0,0,0,14.69,2c11.44-2,20.37-12.43,19-22.26A15,15,0,0,0,195.1,203Z"/></g></svg>