<svg id="Calque_1" data-name="Calque 1" xmlns="http://www.w3.org/2000/svg" viewBox="0 0 480 480"><defs><style>.cls-1{fill:#daecff;}.cls-2{fill:#73b7a4;stroke:#020202;}.cls-2,.cls-4{stroke-miterlimit:10;}.cls-3{fill:#fff;}.cls-4{fill:#ffd258;stroke:#0a0a0a;stroke-width:3px;}</style></defs><title>Auto moto velo nautique</title><rect class="cls-1" x="48.62" y="64.41" width="391.54" height="391.54" rx="79.16" ry="79.16"/><g id="IUvIMg.tif"><path class="cls-2" d="M237.83,389.5A112.14,112.14,0,0,1,126,275.71c1-60,49.77-110.27,112.18-110.18,63.55.1,113,52.44,111.84,114A112.16,112.16,0,0,1,237.83,389.5Zm.18-196c-46.09,0-83.95,37.59-84,83.42a84.06,84.06,0,0,0,83.86,84.56c46.15.18,84.11-37.63,84.13-83.8A84.1,84.1,0,0,0,238,193.51Z"/><path class="cls-3" d="M238,193.51a84.1,84.1,0,0,1,84,84.18c0,46.17-38,84-84.13,83.8A84.06,84.06,0,0,1,154,276.93C154.06,231.1,191.92,193.5,238,193.51Zm74.62,84a74.63,74.63,0,1,0-74.7,74.61A74.58,74.58,0,0,0,312.63,277.51Z"/><path class="cls-4" d="M312.63,277.51a74.63,74.63,0,1,1-74.69-74.63A74.57,74.57,0,0,1,312.63,277.51Zm-74.87-65.62c-6.23,1.17-12.62,2.21-18.93,3.61-3.15.7-4.08,2.31-3.86,5.49a36.76,36.76,0,0,0,8.11,21.35c7.6,9.22,19.43,10,28.08,1.78,6.26-6,8.91-13.72,9.81-22.12.46-4.28-.57-5.93-4.73-6.83C250.24,213.88,244.15,213,237.76,211.89Zm0,131.59c6.33-1.14,12.73-2.13,19-3.5,3.52-.76,4.47-2.38,4.17-6a37,37,0,0,0-8-20.87c-7.2-8.87-18.47-10.11-27.13-2.72-7.2,6.14-10,14.52-10.85,23.65-.34,3.6.65,5.18,4.21,6C225.28,341.34,231.43,342.31,237.8,343.48Zm-46-61A42.87,42.87,0,0,0,177.39,286c-2.69,1.24-3.8,3-3.27,5.51A64.39,64.39,0,0,0,193,325.14a4.48,4.48,0,0,0,6.7-.13c5.71-6.07,10.34-12.83,12.51-21,2.31-8.69-1.19-15.87-9.61-19C199.18,283.68,195.4,283.26,191.78,282.44Zm-1-9.19c4.15-.72,7.26-.95,10.18-1.83,9-2.69,13.25-9.38,11.45-18.46s-6.88-16.14-13.1-22.56c-1.86-1.92-4.5-1.56-6.67.54A63.9,63.9,0,0,0,174.42,263c-.86,3.67-.1,5.72,3.43,6.88C182.38,271.38,187.1,272.31,190.82,273.25Zm95.07.13c4.44-1.28,8.71-2.29,12.82-3.77,2.76-1,3.71-3,3.15-5.52a64.09,64.09,0,0,0-19-33.57,4.44,4.44,0,0,0-6.5.11c-5.78,6.13-10.48,13-12.63,21.22-2.24,8.61,1.22,15.79,9.55,18.86C277.25,272.17,281.63,272.52,285.89,273.38Zm.26,8.38c-4,.64-7.8.82-11.33,1.88-8.92,2.68-13,9.35-11.28,18.33s6.87,16.14,13.06,22.59c1.83,1.9,4.56,1.57,6.68-.47a63.89,63.89,0,0,0,18.29-32c.89-3.8.1-5.72-3.6-7C294.09,283.66,290,282.81,286.15,281.76Zm-48.23,14.33a18.59,18.59,0,1,0-18.53-18.8A18.46,18.46,0,0,0,237.92,296.09Z"/><path class="cls-1" d="M237.76,211.89c6.39,1.11,12.48,2,18.48,3.28,4.16.9,5.19,2.55,4.73,6.83-.9,8.4-3.55,16.15-9.81,22.12-8.65,8.26-20.48,7.44-28.08-1.78A36.76,36.76,0,0,1,215,221c-.22-3.18.71-4.79,3.86-5.49C225.14,214.1,231.53,213.06,237.76,211.89Z"/><path class="cls-1" d="M237.8,343.48c-6.37-1.17-12.52-2.14-18.59-3.49-3.56-.78-4.55-2.36-4.21-6,.86-9.13,3.65-17.51,10.85-23.65,8.66-7.39,19.93-6.15,27.13,2.72A37,37,0,0,1,261,334c.3,3.63-.65,5.25-4.17,6C250.53,341.35,244.13,342.34,237.8,343.48Z"/><path class="cls-1" d="M191.78,282.44c3.62.82,7.4,1.24,10.84,2.53,8.42,3.17,11.92,10.35,9.61,19-2.17,8.17-6.8,14.93-12.51,21a4.48,4.48,0,0,1-6.7.13,64.39,64.39,0,0,1-18.9-33.63c-.53-2.47.58-4.27,3.27-5.51A42.87,42.87,0,0,1,191.78,282.44Z"/><path class="cls-1" d="M190.82,273.25c-3.72-.94-8.44-1.87-13-3.37-3.53-1.16-4.29-3.21-3.43-6.88a63.9,63.9,0,0,1,18.26-32.06c2.17-2.1,4.81-2.46,6.67-.54,6.22,6.42,11.33,13.62,13.1,22.56S210,268.73,201,271.42C198.08,272.3,195,272.53,190.82,273.25Z"/><path class="cls-1" d="M285.89,273.38c-4.26-.86-8.64-1.21-12.61-2.67-8.33-3.07-11.79-10.25-9.55-18.86,2.15-8.27,6.85-15.09,12.63-21.22a4.44,4.44,0,0,1,6.5-.11,64.09,64.09,0,0,1,19,33.57c.56,2.53-.39,4.52-3.15,5.52C294.6,271.09,290.33,272.1,285.89,273.38Z"/><path class="cls-1" d="M286.15,281.76c3.87,1.05,7.94,1.9,11.82,3.27,3.7,1.29,4.49,3.21,3.6,7a63.89,63.89,0,0,1-18.29,32c-2.12,2-4.85,2.37-6.68.47-6.19-6.45-11.31-13.64-13.06-22.59s2.36-15.65,11.28-18.33C278.35,282.58,282.14,282.4,286.15,281.76Z"/><path class="cls-1" d="M237.92,296.09a18.59,18.59,0,1,1,18.69-18.38A18.46,18.46,0,0,1,237.92,296.09Z"/></g></svg>