<svg id="Calque_1" data-name="Calque 1" xmlns="http://www.w3.org/2000/svg" viewBox="0 0 480 480"><defs><style>.cls-1{fill:#ff5f7d;}.cls-2{fill:#73b7a4;}.cls-2,.cls-3{stroke:#020202;stroke-miterlimit:10;}.cls-3{fill:#adccff;}</style></defs><title>Beautéé</title><rect class="cls-1" x="45.62" y="57.83" width="391.54" height="391.54" rx="79.16" ry="79.16"/><g id="D0Mp0v.tif"><path class="cls-2" d="M228.05,227.5l-.7,4.54c5.3.57,6.69,2.62,5.42,7.68S230.23,249.89,229,255c-1,4-1.77,4.71-6,5.37-1,6.33-2,12.73-2.87,19.15-.08.57.94,1.6,1.67,1.92,8.07,3.55,16.19,7,24.29,10.48a1.4,1.4,0,0,1,.81.75h-94.1c2.87-2.18,5.19-4.33,7.85-5.88,5.79-3.36,8.52-7.94,9.28-14.85,1.6-14.55,4.28-29,6.51-43.45a5.08,5.08,0,0,0,0-1h-5.71c-5.59,0-11.17.11-16.75,0A13.9,13.9,0,0,1,140,213.15q0-17.75,0-35.49c0-9.75,5.72-15.52,15.51-15.53q27.25,0,54.5,0c9.91,0,19.83.11,29.74,0,11.78-.16,23.3,1.27,34.27,5.64a53.81,53.81,0,0,0,23.39,3.83,76.65,76.65,0,0,1,12.21.38c4.46.46,7.6,3.21,9.71,7.05q2.46,4.48,4.54,9.17a3,3,0,0,0,3.22,2c10.08-.08,20.16,0,30.25,0,4.39,0,6.63,1.57,6.67,4.65s-2.18,4.73-6.56,4.73c-10.16,0-20.33,0-30.49,0a2.82,2.82,0,0,0-3,1.89c-1.34,2.95-2.86,5.83-4.33,8.72-2.55,5-6.62,7.87-12.29,8-6.58.13-13.17,0-19.75.09a14,14,0,0,0-3.9.64q-6.54,2.05-13,4.3a81.44,81.44,0,0,1-27,4.41Zm-50.8-37.39c4.49,0,9,0,13.48,0,3.27,0,5.32-1.92,5.26-4.7s-2.06-4.48-5.21-4.5q-13.36-.06-26.72,0c-3.3,0-5.39,1.84-5.41,4.58s2.08,4.59,5.36,4.62C168.43,190.15,172.84,190.11,177.25,190.11ZM280,194.82c0,3,0,6,0,9s1.87,4.87,4.51,5a4.59,4.59,0,0,0,4.8-4.69q.15-9.24,0-18.48a4.52,4.52,0,0,0-4.78-4.68c-2.65.06-4.48,2-4.53,4.9S280,191.82,280,194.82Z"/><path class="cls-3" d="M149.37,302.25H251.88c0,.88.12,1.75.12,2.63q0,14.49,0,29c0,8.88-5.57,14.9-14.52,15q-36.85.21-73.72,0c-8.94-.06-14.4-6.1-14.39-15.06V302.25Z"/></g></svg>