<svg id="Calque_1" data-name="Calque 1" xmlns="http://www.w3.org/2000/svg" viewBox="0 0 480 480"><defs><style>.cls-1{fill:#daecff;}.cls-2,.cls-3{fill:#ff5f7d;}.cls-2,.cls-3,.cls-4{stroke:#000;stroke-miterlimit:10;}.cls-3,.cls-4{stroke-width:0.75px;}.cls-4{fill:#ffd258;}</style></defs><title>Cociergerie</title><rect class="cls-1" x="47.87" y="48.71" width="391.54" height="391.54" rx="79.16" ry="79.16"/><g id="cQqULi.tif"><path class="cls-2" d="M251.91,339.59l-74.7-101.1,22.93-19.92-21-16.49,15.11-27.86c20,56,39.41,110.47,58.85,165Z"/><path class="cls-2" d="M314.61,174.37l14.8,27.36-21.14,16.34,22.56,20-73.76,101.2-1.15-.58C275.33,284.36,294.74,230,314.61,174.37Z"/><path class="cls-3" d="M266.41,204H278.6l.29-.72-11.69-4.85,14.37-7.18c-5.48-1.81-11.16,3.79-17.16-2.4,8.73-2,16.18-3.86,23.74-5.11,1.17-.19,4,2.49,4.07,4,.43,7,.31,14,.15,21-.08,3.24-1.95,4.85-5.33,4.06-7-1.62-14-3.28-21.3-5l.82-4Z"/><path class="cls-3" d="M228.83,203.77c12.63,0,12.63,0,14.5,3.95-7.62,1.75-15.09,3.64-22.65,5-1.16.21-3.88-1.76-3.93-2.81-.36-7.73-.4-15.49,0-23.21,0-1.14,3-3.26,4.25-3,7.4,1.28,14.7,3.13,22.14,4.81-1.63,3.4-1.63,3.4-15.21,3l14,6.69Z"/><path class="cls-3" d="M266.56,203.77c-3.64,4.55-8.46,6-14.08,5.44-6.38-.69-10.67-5.2-10.62-11.14s4.4-10.31,10.86-10.84c11.53-.95,16.92,5.63,13.69,16.72Zm-2.9-5.69c-.05-4.48-3.62-7.51-8.88-7.53s-8.81,2.88-8.91,7.45c-.11,4.74,3.64,8,9.12,7.88C260.15,205.78,263.72,202.58,263.66,198.08Z"/><path class="cls-4" d="M261.76,269.46c-2.55,1.6-5,4.24-7.69,4.56-3.84.46-6.31-2.53-6.15-6.51s2.92-6.73,6.67-6c2.67.53,4.87,3.39,7.28,5.22Z"/><path class="cls-4" d="M252.81,253c-1.65-2.5-4.36-4.87-4.71-7.54-.49-3.81,2.43-6.3,6.44-6.15s6.85,2.6,6.09,6.48c-.53,2.65-3.3,4.87-5.07,7.28Z"/><path class="cls-4" d="M261.83,224.78c-2.46,1.74-4.76,4.52-7.43,5-3.79.62-6.4-2.24-6.45-6.22s2.51-6.87,6.34-6.28c2.69.42,5,3.11,7.53,4.79Z"/><path class="cls-4" d="M260.9,291.5c-2.4,1.5-4.71,4-7.24,4.27a4.87,4.87,0,0,1-5.37-6.24c.63-2.26,3.76-5.29,5.79-5.31,2.29,0,4.6,2.95,6.91,4.62Z"/></g></svg>