<svg id="Calque_1" data-name="Calque 1" xmlns="http://www.w3.org/2000/svg" viewBox="0 0 480 480"><defs><style>.cls-1{fill:#adccff;}.cls-2{fill:none;}.cls-2,.cls-5{stroke:#0a0a0a;stroke-width:3px;}.cls-2,.cls-3,.cls-4,.cls-5{stroke-miterlimit:10;}.cls-3{fill:#73b7a4;stroke:#020202;}.cls-4{fill:#ff5f7d;stroke:#050505;stroke-width:2px;}.cls-5{fill:#ffd258;}</style></defs><title>Déco</title><rect class="cls-1" x="40.84" y="49" width="391.54" height="391.54" rx="79.16" ry="79.16"/><line class="cls-2" x1="236.61" y1="146" x2="236.61" y2="204.5"/><rect class="cls-3" x="222.36" y="204.5" width="29.89" height="27.27" rx="7.86" ry="7.86"/><path class="cls-4" d="M299.33,307.67l-77.16.66-46.84-1.66a69.49,69.49,0,0,1,.34-36.67,68.51,68.51,0,0,1,20.5-32.5,66.17,66.17,0,0,1,24.49-13.33H251.5a66.11,66.11,0,0,1,47.83,46.16A67.83,67.83,0,0,1,299.33,307.67Z"/><path class="cls-5" d="M260,308.33c0,11.34-10.47,20.67-23.2,20.67s-23.21-9.33-23.21-20.67Z"/></svg>