<svg id="Calque_1" data-name="Calque 1" xmlns="http://www.w3.org/2000/svg" viewBox="0 0 480 480"><defs><style>.cls-1{fill:#daecff;}.cls-2{fill:#fef0e1;stroke:#070707;}.cls-2,.cls-3,.cls-4{stroke-miterlimit:10;}.cls-3{fill:#ffd258;stroke:#0a0a0a;stroke-width:0.75px;}.cls-4{fill:#adccff;stroke:#020202;}</style></defs><title>electro</title><rect class="cls-1" x="33.42" y="42.96" width="391.54" height="391.54" rx="79.16" ry="79.16"/><g id="Ba5maQ.tif"><path class="cls-2" d="M233.46,178.43c24.22,0,48.44.11,72.65-.09,4.38,0,5.52,1.31,5.5,5.57-.13,47.34-.07,94.69-.1,142,0,10.15-4.05,14.09-14.13,14.6a11.76,11.76,0,0,0-5.93,2.61c-3,2.26-11.37,2.15-14.36-.13a11,11,0,0,0-6-2.48q-37.69-.24-75.38,0A11,11,0,0,0,189.8,343c-3,2.28-11.37,2.31-14.38.12a12.85,12.85,0,0,0-6.47-2.61c-9.29-.49-13.55-4.62-13.56-14.07,0-47.53,0-95.05-.1-142.58,0-4.29,1.17-5.59,5.52-5.55C185,178.54,209.24,178.43,233.46,178.43Zm51.87,81a51.88,51.88,0,1,0-52,52.19A52,52,0,0,0,285.33,259.42Z"/><path class="cls-3" d="M311.53,169.7H155.61c0-5.92-.45-11.55.12-17.08.6-5.78,5.58-9.41,12.16-9.51,9.29-.14,18.58-.05,27.86-.05H291.9c17.54,0,19.66,2.15,19.63,19.91Zm-18.71-5V151.59H259.63v13.14Zm-59.64.3a8.5,8.5,0,1,0-8.08-8.62A8.42,8.42,0,0,0,233.18,165Zm-62.83-2.49c4.6,3.46,29.64,3.25,33,0Z"/><path class="cls-4" d="M233.63,307.79c-26.5.13-48.3-21.67-48.33-48.3,0-26.42,21.46-48.21,47.7-48.38a48.34,48.34,0,0,1,.63,96.68ZM191,263.39c3.89-1.69,6.45-2.47,8.65-3.82,5.32-3.26,10.66-3.62,16-.46,6.27,3.7,12.34,3.65,18.56-.07,4.53-2.71,9.67-3.3,14.09-.62,8.19,4.94,15.79,3.89,23.81-.16,2.6-1.31,3.4-2.49,3-5.34-2.86-19.78-19.89-35-40.27-35.78a41.86,41.86,0,0,0-42.31,32.51C191.67,253.61,191.63,257.74,191,263.39Z"/></g></svg>