<svg id="Calque_1" data-name="Calque 1" xmlns="http://www.w3.org/2000/svg" viewBox="0 0 480 480"><defs><style>.cls-1{fill:#daecff;}.cls-2{fill:#adccff;}.cls-2,.cls-3{stroke:#020202;stroke-miterlimit:10;}.cls-3{fill:#fbcec6;}</style></defs><title>Beautéé</title><rect class="cls-1" x="41.55" y="45.89" width="391.54" height="391.54" rx="79.16" ry="79.16"/><g id="c6IPAe.tif"><path class="cls-2" d="M168.12,279.26c-4.66-4-5.78-7.36-3.93-11.38,1.71-3.74,4.92-5,11.06-4.26q4.69-10.35,9.46-20.8,15.49-34.08,31-68.15a3.08,3.08,0,0,0-.38-3.76c-2.06-2.57-2.06-5.6-.61-8.47a7.41,7.41,0,0,1,7-4.36c1.93.06,2.74-.74,3.64-2.21,7.11-11.67,15.21-22.63,26.31-30.77,21.81-16,45.76-20.11,71-9.77,17.11,7,26.27,21,28.65,39.19,1.4,10.76,1.79,21.59.12,32.39-1.83,11.83-5.93,22.41-16.52,29.25-2.2,1.42-4.67,2.43-7.58,3.92V210.6c0-.91.07-1.84,0-2.74a12.44,12.44,0,0,1,3.07-10.19c3.43-3.91,4.25-9.16,4.85-14.23a101.79,101.79,0,0,0-.64-28.64C332.22,140.09,322,130,306.92,127.53c-21.37-3.47-39.47,2.85-54,18.93a101.79,101.79,0,0,0-13.64,18.67c4.17,4.18,5.06,7.57,3.06,11.34-1.87,3.53-5.38,4.78-10.84,3.74-13.79,30.29-27.61,60.63-41.19,90.47,1.23,2.21,2.71,3.94,3.19,5.92a7.89,7.89,0,0,1-8.24,9.86,2.68,2.68,0,0,0-3.09,2c-1.42,3.35-3,6.65-4.57,10.19l2.08.36a8.23,8.23,0,0,1,6.86,8,8.12,8.12,0,0,1-7,8.15,14.77,14.77,0,0,1-2.48.24c-13.08,0-26.16,0-39.25,0-5.39,0-9.07-3.16-9.31-7.77-.26-4.91,3.27-8.67,8.49-8.76q9.87-.18,19.74,0a3.22,3.22,0,0,0,3.54-2.27C162.77,290.84,165.46,285.12,168.12,279.26Z"/><path class="cls-3" d="M318.87,260.44c-16.16-5.85-30.74-3.64-42,9.61-12.12,14.23-11.54,29.68-1.61,45.4H238.08c-6,0-10.92-4.91-10-10.79,2.95-19,5.66-38,9.59-56.81a73.11,73.11,0,0,1,21.51-38.74c12.27-11.61,26.71-18.16,43.86-18q6.75,0,13.49,0c1.73,0,2.57.55,2.56,2.45q-.06,33,0,65.95A5.88,5.88,0,0,1,318.87,260.44Z"/><path class="cls-2" d="M331.64,293.57a27.7,27.7,0,1,1-27.7-27.88A27.64,27.64,0,0,1,331.64,293.57ZM290,293.3a13.93,13.93,0,1,0,13.89-13.77A13.94,13.94,0,0,0,290,293.3Z"/></g></svg>