<svg id="Calque_1" data-name="Calque 1" xmlns="http://www.w3.org/2000/svg" viewBox="0 0 480 480"><defs><style>.cls-1{fill:#daecff;}.cls-2,.cls-4{fill:none;}.cls-2,.cls-3,.cls-4{stroke:#000;stroke-miterlimit:10;}.cls-3{fill:#f36b7f;}.cls-4{stroke-width:0.5px;}.cls-5{fill:#7f3b48;opacity:0.43;}</style></defs><title>evenementiel</title><rect class="cls-1" x="55.8" y="40.8" width="391.54" height="391.54" rx="79.16" ry="79.16"/><line class="cls-2" x1="234.67" y1="247.58" x2="234.67" y2="430"/><path class="cls-3" d="M235.67,238.37,246,256.08l-22.72.16,10-17.88Z"/><path class="cls-3" d="M289.34,170.18c0,.71,0,.36,0,2.6,0,.52-.06,1.61-.11,2.49s-.11,1.68-.18,2.4-.16,1.47-.26,2.58c-.2,1.29-.44,3-.73,4.88-.28,1.65-.62,4.21-1,4.74-.38,1.69-.8,2.73-1.26,4.61-.46,2.29-1,2.36-1.51,4.45-.54,1.69-1.13,2.54-1.75,4.28a8.68,8.68,0,0,0-1,2.36c-.33.93-.67,1.78-1,1.74a13.14,13.14,0,0,0-1.07,2.11c-.36.56-.74,1.29-1.12,1.8-.39.27-.78,1.87-1.18,2.15s-.81.19-1.23,1.55c-.41.78-.84.43-1.27,1.38-.44-.34-.88,1.94-1.33,2.1-.45-.35-.91.14-1.37,1.94-.47.4-.94,2-1.42,1.31-1,.62-2,2.1-3,3-1,1.11-2.06,2.95-3.13,2.74s-2.17,1.24-3.29,2.47c-1.12,1.81-2.26,1.09-3.43,2.18-1.17-1-2.36,1.38-3.57,1.88-1.21,1.93-2.44,1.45-3.69,1.57-1.25,2.1-2.52.51-3.8,1.25-1.29,1.25-2.59.49-3.91.9-1.32.64-2.65,0-4,.55s-2.71.89-4.08.19c-.91.85-1.82-1-2.73-.08-.9-.38-1.8.2-2.69-.25-.89.08-1.78-.41-2.66-.41-.66-.29-1.31-.82-2-.41s-1.3.65-1.94-.49c-.65-.8-1.29.43-1.92-.73-.63.75-1.26-.34-1.89-.52a6.77,6.77,0,0,1-3.69-1.57c-1.21-1.53-2.4-3.17-3.57-1.88a5.8,5.8,0,0,0-3.43-2.18c-1.12-.89-2.22-1.6-3.29-2.47-1.07.13-2.11-1.12-3.13-2.74-1-3.69-2-2.28-3-3-1,.47-1.89-1.14-2.79-3.25-.9.84-1.76-3.8-2.6-3.48s-1.64-2.5-2.41-3.7c-.76-2.11-1.5-.43-2.19-3.91-.7-.57-1.36-3.82-2-4.1s-1.21-1.89-1.75-4.28c-.54-.54-1.05-3.19-1.51-4.45-.46-.13-.88-1.47-1.26-4.61a25.32,25.32,0,0,1-1-4.74c-.29-1.69-.53-2.71-.73-4.88-.19.24-.34-3.62-.44-5a40.37,40.37,0,0,1-.15-5.09c0-1.61,0-2.57.08-3.83.06-2,.14-2.52.26-3.77q.33-3.75,1-7.36c.29-1.6.62-2.67,1-4.74s.8-2,1.26-4.61c.46-.64,1-4.87,1.51-4.45.54,1.42,1.13-7.26,1.75-4.28.31-.71.63-1.6,1-2.37a4.89,4.89,0,0,1,1-1.73,15.5,15.5,0,0,0,1.07-2.16c.37,1.4.74-1.39,1.12-1.75.39-1.21.78-.93,1.18-2.41.4.35.81.83,1.23-1.29.42,1.43.84-2,1.28-1.65.43-1.19.87.49,1.32-1.83.9-2.7,1.83-1.55,2.79-3.25,1,.07,1.95-5.06,3-3,1-1.91,2.06-3.65,3.13-2.74a14.52,14.52,0,0,1,3.29-2.47c1.12-.7,2.27-3.43,3.43-2.18,1.17-2.16,2.36-.84,3.57-1.88,1.21.91,2.44-3,3.69-1.57a5.35,5.35,0,0,0,3.81-1.24c1.28.73,2.58-1.76,3.9-.91,1.32-.84,2.65-2.46,4-.55,1.35,1.43,2.71.09,4.08-.19,1.37.59,2.73-.85,4.08.19,1.35-1.52,2.68-2,4,.55,1.32-.71,2.62,1.33,3.91.91,1.28.55,2.55,2.74,3.8,1.24,1.25-2,2.48,3.54,3.69,1.57,1.21,1,2.4,2.21,3.57,1.88,1.17.52,2.31,1.82,3.43,2.18,1.12,1.05,2.22,1.5,3.29,2.47a22.41,22.41,0,0,1,3.13,2.74q1.53,1.44,3,3c.89,1,1.75,2,2.58,3a15,15,0,0,1,2.42,3.19c.79,1.15,1.54,2.24,2.26,3.38.72.6,1.42,2.62,2.08,3.55.66-.17,1.3,2.27,1.9,3.73.6,2.2,1.17,4.15,1.7,3.88.54,2.76,1,1.05,1.51,4,.47,1.5.9,3.32,1.29,4.17a26.79,26.79,0,0,1,1.08,4.29c.16-1.57.32,2.6.46,2.2.14,1.09.27.08.4,2.22a15.23,15.23,0,0,1,.34,2.32c.1.79.19,1.57.28,2.2s.15,2.14.22,2.26a15.81,15.81,0,0,1,.15,2.35c.05-.22.08-.54.1,1.72C289.33,168,289.34,168.51,289.34,170.18Z"/><path class="cls-2" d="M234.16,238.55H217.93a5.26,5.26,0,0,0-.24.6,7.14,7.14,0,0,0,.24,4.83,6.06,6.06,0,0,0,4.33,3.51c2,.29,3.62-.92,6.22-3A29.58,29.58,0,0,0,234.16,238.55Z"/><path class="cls-2" d="M234.16,238.55H250.4a5.26,5.26,0,0,1,.24.6,7.14,7.14,0,0,1-.24,4.83,6.08,6.08,0,0,1-4.33,3.51c-2,.29-3.62-.92-6.23-3A30.15,30.15,0,0,1,234.16,238.55Z"/><path class="cls-4" d="M229.53,252.59a12.67,12.67,0,0,0,3.43-5,20.2,20.2,0,0,0,1.2-9c.29,2.9.43,5.3.51,7,.15,3.41.12,5.53,1,6.23a1.32,1.32,0,0,0,1.45,0"/><line class="cls-2" x1="259.31" y1="332.38" x2="234.17" y2="431.71"/><path class="cls-3" d="M261.12,327.5l3.21,11.08-12.4-3.05,7.91-8.35Z"/><path class="cls-3" d="M299.75,297.77c-.4.19-.87,4.34-1.41,4.6a10,10,0,0,0-1.81,4.31c-.67,1.38-1.4.18-2.18,4-.78,2-1.62,2-2.51,3.66a13.22,13.22,0,0,0-2.79,3.3c-1,1.21-2,0-3.06,2.89a21.94,21.94,0,0,0-3.27,2.47c-1.12,1.9-2.27,3.12-3.45,2s-2.37.61-3.59,1.54c-1.22.26-2.46.2-3.71,1-1.25-.85-2.51-.34-3.77.49-1.27-1.08-2.54-1.22-3.81-.06-1.27.62-2.54-.37-3.81-.66a38.32,38.32,0,0,1-3.66-1.23c-1.17-.2-2.3.05-3.38-1.76-1.08.06-2.11.22-3.09-2.23a5.34,5.34,0,0,1-2.76-2.67c-.87-2.66-1.68-3.36-2.43-3.07a33.32,33.32,0,0,1-2.08-3.41c-.63-1.38-1.2-1.59-1.7-3.73-.5.13-.94.66-1.3-4-.37-1.32-.67-.54-.9-4.23a35,35,0,0,1-.46-4.41,40.1,40.1,0,0,1,0-4.56,18.73,18.73,0,0,1,.46-4.65c.23-.93.54-2.26.94-4.72a19.65,19.65,0,0,0,1.41-4.6c.54-.62,1.15-1.69,1.82-4.31a11.74,11.74,0,0,0,2.17-4c.79-2.22,1.62-.66,2.51-3.67.88-1.88,1.82-3.46,2.8-3.29,1-1.25,2-4,3.05-2.89a5.8,5.8,0,0,1,3.27-2.47c1.12.46,2.27-1.32,3.45-2,1.18.21,2.38-1,3.59-1.54a5.94,5.94,0,0,1,3.71-1c1.25,0,2.51-.87,3.77-.49,1.27.89,2.54-1.41,3.81.06,1.27-1.35,2.55,1.55,3.81.66,1.26,1.3,2.49-.15,3.66,1.23,1.18-.21,2.3-.05,3.38,1.76,1.08-1.09,2.11,1,3.09,2.23s1.9,3.76,2.76,2.67c.87.18,1.68,3.25,2.43,3.07.76-1.28,1.45,2.51,2.08,3.41.63,1.58,1.2,2.22,1.7,3.73.5.9.94,5.21,1.31,4,.36,2.34.66,1.33.89,4.23a16.07,16.07,0,0,1,.46,4.41,30.8,30.8,0,0,1,0,4.56c-.07-.3-.22,3.32-.45,4.65C300.46,295.82,300.15,299.65,299.75,297.77Z"/><path class="cls-4" d="M260.28,327.39l-8.84-2.24c-.05.07-.13.17-.21.3a4,4,0,0,0-.54,2.66,3.41,3.41,0,0,0,1.88,2.51c1.07.44,2.1,0,3.8-.76A16.55,16.55,0,0,0,260.28,327.39Z"/><path class="cls-4" d="M260.28,327.39l8.84,2.24a2.39,2.39,0,0,1,.05.36,4.07,4.07,0,0,1-.8,2.6,3.38,3.38,0,0,1-2.84,1.31c-1.15-.12-1.84-1-3-2.47A17,17,0,0,1,260.28,327.39Z"/><path class="cls-4" d="M255.82,334.4a7,7,0,0,0,2.56-2.26,11.31,11.31,0,0,0,1.9-4.75c-.24,1.62-.5,2.95-.69,3.9-.39,1.88-.7,3-.32,3.52a.73.73,0,0,0,.79.2"/><path class="cls-5" d="M281.67,181.67c5.18,5.47-5.37,25.89-19.67,38.66-1.86,1.67-18.42,16.25-25,11.67-5.18-3.6-1.65-17.3,1.33-24.33,8-18.83,26.69-24.57,29.34-25.34C273.64,180.61,279.16,179,281.67,181.67Z"/><path class="cls-5" d="M293.78,297.06c2.69,2.85-2.8,13.46-10.23,20.11-1,.86-9.58,8.44-13,6.06-2.69-1.87-.86-9,.69-12.65,4.15-9.79,13.88-12.77,15.26-13.17C289.6,296.51,292.47,295.68,293.78,297.06Z"/></svg>