<svg id="Calque_1" data-name="Calque 1" xmlns="http://www.w3.org/2000/svg" viewBox="0 0 480 480"><defs><style>.cls-1,.cls-5{fill:#adccff;}.cls-2{fill:#ffd258;}.cls-2,.cls-3,.cls-6{stroke:#050505;}.cls-2,.cls-3,.cls-4,.cls-5,.cls-6{stroke-miterlimit:10;stroke-width:2px;}.cls-3{fill:#ff5f7d;}.cls-4{fill:#fef0e1;}.cls-4,.cls-5{stroke:#020202;}.cls-6{fill:#73b7a4;}</style></defs><title>Beautéé</title><rect class="cls-1" x="36.05" y="47.98" width="391.54" height="391.54" rx="79.16" ry="79.16"/><g id="nqtTSw.tif"><path class="cls-2" d="M281.11,294.74v-.12c1.88,0,3.76,0,5.64,0,8.86.09,17.51-1.05,25.67-4.67,25.55-11.33,39.28-37,35-64.75-3.68-24.07-15.31-43.49-34.15-58.58-18.53-14.84-39.87-22.44-63.55-23.82a105.24,105.24,0,1,0-7.48,210.25c7.28,0,12.95-3.12,16.18-9.71s2.51-12.89-2-18.74a32.24,32.24,0,0,1-3.17-4.64c-5.75-10.86,1.93-24.54,14.2-25.2C272,294.53,276.57,294.74,281.11,294.74Z"/><path class="cls-2" d="M281.11,294.74c-4.54,0-9.09-.21-13.62,0-12.27.66-20,14.34-14.2,25.2a32.24,32.24,0,0,0,3.17,4.64c4.51,5.85,5.21,12.21,2,18.74s-8.9,9.72-16.18,9.71a105.25,105.25,0,1,1,7.48-210.25c23.68,1.38,45,9,63.55,23.82,18.84,15.09,30.47,34.51,34.15,58.58,4.24,27.79-9.49,53.42-35,64.75-8.16,3.62-16.81,4.76-25.67,4.67-1.88,0-3.76,0-5.64,0ZM160.94,230.26a17.51,17.51,0,1,0,17.61-17.55A17.42,17.42,0,0,0,160.94,230.26Zm163.69-.1a17.51,17.51,0,1,0-17.53,17.61A17.45,17.45,0,0,0,324.63,230.16Zm-111-29.23A17.49,17.49,0,1,0,196,183.41,17.36,17.36,0,0,0,213.62,200.93Zm58.09,0a17.49,17.49,0,1,0-17.19-18.16A17.44,17.44,0,0,0,271.71,200.93Z"/><path class="cls-3" d="M160.94,230.26a17.51,17.51,0,1,1,17.4,17.51A17.46,17.46,0,0,1,160.94,230.26Z"/><path class="cls-4" d="M324.63,230.16a17.51,17.51,0,1,1-17.47-17.45A17.41,17.41,0,0,1,324.63,230.16Z"/><path class="cls-5" d="M213.62,200.93a17.49,17.49,0,1,1,17.44-17.67A17.45,17.45,0,0,1,213.62,200.93Z"/><path class="cls-6" d="M271.71,200.93a17.49,17.49,0,1,1,17.88-17.26A17.36,17.36,0,0,1,271.71,200.93Z"/></g></svg>