<svg id="Calque_1" data-name="Calque 1" xmlns="http://www.w3.org/2000/svg" viewBox="0 0 480 480"><defs><style>.cls-1{fill:#ff5f7d;}.cls-2{fill:#ffd258;stroke:#050505;}.cls-2,.cls-3{stroke-miterlimit:10;stroke-width:2px;}.cls-3{fill:#adccff;stroke:#020202;}</style></defs><title>Beautéé</title><rect class="cls-1" x="37.34" y="47.98" width="391.54" height="391.54" rx="79.16" ry="79.16"/><g id="HeqwXo.tif"><path class="cls-2" d="M255.93,338.19H229.22a15.54,15.54,0,0,0,.45-2.73q0-87.46,0-174.94c0-5.2-1.28-9.78-5.84-12.79-6.51-4.29-14.31-2.34-18.81,4.57a13.06,13.06,0,0,1-14.93,5.78,13.31,13.31,0,0,1-9.43-12.48c-.11-3.81,1.62-6.91,3.76-9.84A39.35,39.35,0,0,1,237.13,125c3.61,2.15,5.63,2,8.62-1.16,4.15-4.34,9-5.86,14.74-3.93,8.2,2.76,11.37,13.39,5.94,20.11-1.77,2.2-3.81,4.18-5.74,6.25A17.75,17.75,0,0,0,256,158.82V335.76C256,336.66,256,337.56,255.93,338.19Z"/><path class="cls-3" d="M229.69,352,256,352c.72,8.48,1.46,17.08,2.16,25.31H227.54C228.22,369.21,229,360.6,229.69,352Z"/></g></svg>