<svg id="Calque_1" data-name="Calque 1" xmlns="http://www.w3.org/2000/svg" viewBox="0 0 2000 770"><defs><style>.cls-1,.cls-2{fill:#fff;}.cls-1{isolation:isolate;opacity:0.05;}</style></defs><g id="Calque_2" data-name="Calque 2"><rect class="cls-1" x="435.4" y="335.14" width="49.18" height="156.78"/><path class="cls-2" d="M1746.23,480.9l-46.88-45.82a.06.06,0,0,0,0,0l0,0a75,75,0,0,1-14.3,16.63c-11.13,8.64-25.53,10.82-37.55,4.69a33,33,0,0,1-5.59-3.64V206.13a1.47,1.47,0,0,0-1.47-1.47h-78.52a1.47,1.47,0,0,0-1.47,1.47v93.59c-18.3-14.46-40.55-23-64.56-23-1.46,0-2.91,0-4.35.1s-2.8-.1-4.21-.1c-60.27,0-109.13,57.3-109.13,128a148.86,148.86,0,0,0,4.21,35.32c-25,17.69-56.77,26.07-86.78,20.26a98.4,98.4,0,0,1-43.66-20.87,141.71,141.71,0,0,0,28.18-4.28c42-10.71,72.55-38,75.74-65a67.37,67.37,0,0,0,1-11.68c0-44.82-43.82-81.2-98.08-81.67-48.77-2.58-96.74,26.9-117,76.47a123.63,123.63,0,0,0-1.64,90.31,57.33,57.33,0,0,1-13.39,10.63c-7.52,4.3-18.12,6.09-23.37-1-2.33-3.16-3-7.36-3.52-11.37-2.65-20.12-3.9-40.48-4-66.13a1.42,1.42,0,0,0,0-.36V315a1.36,1.36,0,0,0-1.36-1.36H988.73c-4.5-12.58-12.9-25.27-24.75-36.05-28.57-26-66.32-31-84.31-11.26s-9.43,56.88,19.14,82.88c1.43,1.3,2.88,2.53,4.35,3.72.61.54,1.21,1.09,1.84,1.61a71.6,71.6,0,0,0,9.29,6.64c.87,29.9-12.36,60.19-35.55,79.22-24.16,19.83-58.19,26.68-85.42,18V356.63H843V285.78H793.8c.31-1.11.63-2.22,1-3.32,6.2-18.46,22-32.71,39.92-35.92,2.72-.49,5.49-.74,8.23-1.11h7.17V184.72h0c0-1.37.1-2.76.16-4.13l-.35.15.19-.15c-33.3-9.43-71-2-98.1,19.54-25.69,20.39-41.22,52.9-41.27,85.65H677v70.85h35.28v77.63c-8.21,10.83-19.58,19.33-32.79,22a40.49,40.49,0,0,1-32.21-7.21V196h0l-39.75,8.88.08.12-41.72,9.32.6.61-.2-.09v4.87h0V443c-1.09,1.95-3,4.14-6.33,7-.9.77-10.51,5.62-18.69,6-7.59.37-15.88-3.06-22-7.65a36,36,0,0,1-4.38-3.94V286.64a.85.85,0,0,0-.85-.85h-79a.85.85,0,0,0-.85.85v16.41c-17.7-13.95-39.23-22.13-62.47-22.13-1,0-2,0-3,.05s-2.09-.05-3.15-.05H364a98.11,98.11,0,0,0-24,3l-.77.19-.15,0a103.43,103.43,0,0,0-57.05,36.69c-17.37,20.13-28.3,49.33-28.3,81.82,0,.63,0,1.26,0,1.89s0,1.11,0,1.66c0,69.18,49.37,125.27,110.28,125.27h1.55a98.33,98.33,0,0,0,61.8-21.78,111.93,111.93,0,0,0,13-10.2c10,14,25.26,24.56,42.19,30.25,20.91,7,44.12,6.94,65.62,1.72,13.06-3.17,26.13-8.82,36.37-17,11.78,12.32,35.45,20.74,62.76,20.74,29.16,0,54.19-9.59,65-23.29V543h81V513.21a82,82,0,0,0,42,14.51c21.23,1.32,42.47-4.91,61.4-15.07,47.56-25.54,80.64-77.66,86.76-133.09l24.73,2.22a286,286,0,0,0-3.41,57.43c1,24.19,5.72,49.59,21.21,67.78,13,15.28,32.51,23.72,52.15,25.4s39.4-2.94,57.68-10.52c12.76-5.3,25.36-12.53,35.27-22.22,3,1.91,6.17,3.69,9.34,5.38,42.51,22.65,93.73,32,142.75,25.92a238.55,238.55,0,0,0,91.28-30.83c19.31,20.28,44.81,32.62,72.78,32.62,1.41,0,2.81,0,4.21-.1s2.9.1,4.35.1c29.08,0,55.59-12.45,75.61-32.9,13.14,19.46,41.1,32.9,73.48,32.9,18.33,0,35.23-4.32,48.84-11.58a134.86,134.86,0,0,0,48.79-36.55l0-.07ZM390.66,460.46c-28,0-50.72-25.12-50.72-56.1s22.71-56.1,50.72-56.1,50.72,25.12,50.72,56.1S418.67,460.46,390.66,460.46Zm175.65-11.41h-.24q.12-.37.24-.78Zm348.84-85.59c0-.62-.09-1.23-.15-1.85l.27.15C915.23,362.33,915.18,362.89,915.15,363.46Zm176.27,36.68c0-.11-.06-.22-.1-.33l.13-.2A4.84,4.84,0,0,1,1091.42,400.14Zm52.33,53,.29-.51.09.2C1144,453,1143.88,453.06,1143.75,453.17ZM1212,480.05l.21-.42.47.4Zm13.11-87.78a1.75,1.75,0,0,1-1.95-1.51c-1.47-12.39,2.5-25.69,11.11-33.89,9-8.58,23-10.67,33.16-4.05,3.67,2.38,6.91,6,8,10.54,1.64,7-2.39,14.46-7.9,18.46s-12.21,5.32-18.7,6.55C1241,389.84,1233.22,391.32,1225.08,392.27ZM1515.36,463c-29.29,0-53-26.15-53-58.41s23.74-58.41,53-58.41,53,26.15,53,58.41S1544.65,463,1515.36,463Z"/><rect class="cls-2" x="1564.32" y="321.61" width="49.18" height="164.46"/><rect class="cls-2" x="435.4" y="335.14" width="59.94" height="141.41"/></g></svg>