<svg id="Calque_1" data-name="Calque 1" xmlns="http://www.w3.org/2000/svg" viewBox="0 0 480 480"><defs><style>.cls-1{fill:#ff5f7d;}.cls-2{fill:#ffd258;stroke:#0a0a0a;stroke-miterlimit:10;stroke-width:2px;}.cls-3{fill:#d8ab3a;}</style></defs><title>Beautéé</title><rect class="cls-1" x="36.08" y="48.33" width="391.54" height="391.54" rx="79.16" ry="79.16"/><g id="I66Koh.tif"><path class="cls-2" d="M219.78,213.11c0,2.95.07,5.52,0,8.08-.2,5.92,3.87,10.54,9.77,10.75,4.16.14,8.34.15,12.5,0,5.89-.22,9.93-4.85,9.7-10.78-.1-2.56,0-5.14,0-7.7,14.15,1.61,23.47,9.7,24.16,23.42.21,4.16-.78,8.39-1.38,12.57-.47,3.2-1.42,6.34-1.79,9.54a23.22,23.22,0,0,0,5.39,17.9c5.44,6.72,10.28,13.88,11.47,22.67,2.25,16.56-3.93,36.22-25.31,44-11.59,4.23-23.57,4.9-35.71,4.17a67.68,67.68,0,0,1-25.76-6.34C181.9,331.31,177.49,303.7,186,289c2-3.53,3.91-7.27,6.58-10.27,7.71-8.65,8.25-18.34,5.07-28.76a35.31,35.31,0,0,1-1.23-15.79c1.39-9.31,6.69-15.38,15.29-18.71C214.27,214.49,217,213.91,219.78,213.11Zm16.2,60.5A15.85,15.85,0,0,0,252.09,258,16,16,0,1,0,236,273.61Zm-15.93,26.2h31.77v-7.64H220.05Z"/><path class="cls-2" d="M246.88,198.19q.42,11.48.85,23c.15,4.09-2.08,6.63-6.25,6.79-3.83.15-7.67.16-11.49,0-4.25-.17-6.37-2.75-6.2-7.08q.87-23.1,1.72-46.19c.15-4.15,2.34-6.46,6.51-6.64,2.5-.1,5-.11,7.5,0,4.16.18,6.33,2.5,6.47,6.67q.42,11.73.87,23.47Z"/><path class="cls-2" d="M223.72,144.22c0-4.5,0-9,0-13.49,0-4.31,2.3-6.62,6.64-6.72,3.57-.08,7.16-.07,10.74,0,4.34.09,6.64,2.4,6.66,6.69q.06,13.37,0,26.74c0,4.17-2.34,6.49-6.51,6.57-3.66.07-7.33.07-11,0-4.19-.07-6.49-2.38-6.54-6.55C223.68,153.05,223.72,148.64,223.72,144.22Z"/><path d="M219.66,126.11v7.7h-5.8v-7.7Z"/><path d="M257.64,126.18v7.71h-5.72v-7.71Z"/><path d="M219.58,140.11v7.78h-5.71v-7.78Z"/><path d="M251.84,147.9v-7.7h5.8v7.7Z"/><path d="M219.54,161.89h-5.66v-7.74h5.66Z"/><path d="M257.66,161.89h-5.75v-7.7h5.75Z"/><path class="cls-3" d="M288.39,299.34c-1-7.12-4.33-13.17-8.46-18.78a422.63,422.63,0,0,1-24,65,69.66,69.66,0,0,0,7.15-2.16C284.46,335.56,290.64,315.89,288.39,299.34Z"/></g></svg>