<svg id="Calque_1" data-name="Calque 1" xmlns="http://www.w3.org/2000/svg" viewBox="0 0 480 480"><defs><style>.cls-1{fill:#adccff;}.cls-2{fill:#ffd258;stroke:#0a0a0a;}.cls-2,.cls-3,.cls-4{stroke-miterlimit:10;stroke-width:0.75px;}.cls-3{fill:#fef0e1;}.cls-3,.cls-4{stroke:#020202;}.cls-4{fill:#73b7a4;}</style></defs><title>Beautéé</title><rect class="cls-1" x="40.26" y="45.89" width="391.54" height="391.54" rx="79.16" ry="79.16"/><g id="un6eFp.tif"><path class="cls-2" d="M245.67,266c-4.87-17.27-15.92-28.28-33.43-33.25,3-3.91,5.86-7.69,8.86-11.32A190,190,0,0,1,260,186q38.74-26.58,77.46-53.23c1.78-1.22,3.54-2.11,5.81-1.46a5.56,5.56,0,0,1,3.61,7.84,19.61,19.61,0,0,1-1.52,2.35q-26.91,39.18-53.85,78.34A186.43,186.43,0,0,1,247,265.16C246.64,265.45,246.22,265.69,245.67,266Z"/><path class="cls-3" d="M168.79,285.44c.76-6.46.83-12.79,2.36-18.75a31.44,31.44,0,0,1,28-23.31c13.68-1.2,24.27,4.44,31.65,16,.23.36.4.76.64,1.23C214.64,278.85,193.45,285.78,168.79,285.44Z"/><path class="cls-4" d="M235.16,273.17a29,29,0,0,1-1.4,12.87c-5.61,16.4-16.87,26.48-33.87,30q-19.19,4-38.37,8c-2.91.6-5.06-.17-6.44-2.27a5.49,5.49,0,0,1,.49-6.8,67,67,0,0,0,10.17-17.17,2.56,2.56,0,0,1,1.93-1c6-.33,12-.16,17.86-.9,18.5-2.31,35-9.24,48.79-22.1A9.34,9.34,0,0,1,235.16,273.17Z"/></g></svg>