<svg id="Calque_1" data-name="Calque 1" xmlns="http://www.w3.org/2000/svg" viewBox="0 0 480 480"><defs><style>.cls-1{fill:#daecff;}.cls-2{fill:#ffcf47;stroke:#020202;stroke-miterlimit:10;}.cls-3{fill:#adccff;}</style></defs><title>Beautéé</title><rect class="cls-1" x="45.13" y="47.92" width="391.54" height="391.54" rx="79.16" ry="79.16"/><g id="IDuE4k.tif"><path class="cls-2" d="M345.39,197.4q0,12.81,0,25.61c0,3.58-.2,3.91-3.62,4.75a40.24,40.24,0,0,0-16.5,8.38,30.17,30.17,0,0,0-2.42,2.74,30.5,30.5,0,0,0-4.9,7.88,60.75,60.75,0,0,0-5.45,20.62,231,231,0,0,0-.72,35.48,66.51,66.51,0,0,1,0,12.22,9.36,9.36,0,0,1-11.46,8.36,11.61,11.61,0,0,1-8.62-6.83,39.81,39.81,0,0,1-3.86-16.34c-.29-8.34-.45-16.69-.61-25,0-1.16-.27-1.76-1.51-2.12-2.34-.66-2.93-1.62-3-4.06,0-.41,0-.81,0-1.22a4.41,4.41,0,0,1,3.14-4.72,2.22,2.22,0,0,0,1.74-2.59c-.14-3.28.38-2.84-2.87-3.2-1.76-.19-2.69-.93-2.74-2.65a94.94,94.94,0,0,1,.12-10.4c.18-2.14,1.85-3.42,4-3.77,1.1-.18,1.31-.69,1.17-1.66a10.29,10.29,0,0,0-2.06-4.86,19.17,19.17,0,0,0-11.67-7.43c-8.23-1.76-16.48-3.44-24.76-5-6.85-1.25-13.73-2.49-20.65-3.22-5.15-.55-10.38-.27-15.58-.35a11.75,11.75,0,0,0-1.78,0c-1.11.15-1.47-.22-1.46-1.38q.12-19.48.13-39c0-1.07.37-1.39,1.43-1.37a144.73,144.73,0,0,0,28.56-2.65c10.5-1.93,21-4.11,31.43-6.21A314.85,314.85,0,0,1,305.07,162a92.63,92.63,0,0,1,21.44.5,71.11,71.11,0,0,1,15.72,3.92c2.76,1.08,3.35,2,3.35,4.94,0,5.87,0,11.73-.06,17.6v8.46Z"/><path class="cls-3" d="M164.8,197.25v-27.5c0-.34,0-.67,0-1,.09-2.07.88-2.65,2.87-2.14a25.06,25.06,0,0,1,3.13.76,18.29,18.29,0,0,1,4.13,2,35.65,35.65,0,0,0,18.54,7.18c3.86.32,7.77.13,11.66.08,1,0,1.3.23,1.29,1.21q-.15,19.32-.22,38.63c0,.92-.37,1.16-1.2,1.11a80.24,80.24,0,0,0-8.33-.34c-6,.31-11.82,1.26-17.08,4.37-1.65,1-3.18,2.17-4.77,3.25a13.22,13.22,0,0,1-8.69,2.53c-1.07-.08-1.49-.48-1.48-1.57.05-6.79.06-13.59.07-20.38,0-2.75,0-5.49,0-8.24Z"/><path class="cls-2" d="M349.56,224.87v-1.56l.18-51.21c0-1.37.21-1.5,1.5-1,4.26,1.5,7,4.68,9,8.51a37.21,37.21,0,0,1,3.72,22.36,30.81,30.81,0,0,1-6.3,15.81,34.47,34.47,0,0,1-7.17,6.63C350.27,224.51,350,224.61,349.56,224.87Z"/></g></svg>