<svg id="Calque_1" data-name="Calque 1" xmlns="http://www.w3.org/2000/svg" viewBox="0 0 480 480"><defs><style>.cls-1{fill:#ffd258;}.cls-2{fill:#adccff;stroke:#020202;}.cls-2,.cls-3{stroke-miterlimit:10;stroke-width:2px;}.cls-3{fill:#ff5f7d;stroke:#050505;}</style></defs><title>Beautéé</title><rect class="cls-1" x="43.56" y="40.16" width="391.54" height="391.54" rx="79.16" ry="79.16"/><g id="iPdSPk.tif"><path class="cls-2" d="M193.82,221V179.57h-9.17V161H296.36v18.56c-2.43,0-4.82,0-7.21,0a3.15,3.15,0,0,0-2,.54q-45.56,45.62-91.06,91.29c-.56.56-1.17,1.07-2.23,2v-6.9c0-5.58-.1-11.17.07-16.75a6.23,6.23,0,0,1,1.6-3.85q31.82-32,63.77-63.84a17.45,17.45,0,0,1,2.4-1.73l-.47-.7c-.71,0-1.41-.12-2.12-.12-7.16,0-14.33-.08-21.49.06a5.86,5.86,0,0,0-3.64,1.5c-12.56,12.42-25,24.94-37.52,37.42C195.79,219.18,195.07,219.83,193.82,221Z"/><path class="cls-3" d="M228.59,291.49c8.76,0,16.92.05,25.08-.06a4.63,4.63,0,0,0,2.66-1.47q14.19-14.08,28.3-28.26c.64-.64,1.17-1.39,1.75-2.09l.6.27v31.48h9.34V310H184.67V291.49c3.72,0,7.55-.33,11.3.09,4.67.51,7.78-1.31,11-4.57,25.73-26,51.65-51.79,77.5-77.66a22.41,22.41,0,0,0,1.79-2.38l.72.41c0,.76.14,1.53.15,2.3,0,6.91-.05,13.83,0,20.74a5.27,5.27,0,0,1-1.72,4.15q-27.36,27.24-54.63,54.58C230.19,289.78,229.59,290.44,228.59,291.49Z"/><path class="cls-2" d="M282.89,319.63c-4.94,13.47-20.77,27.78-42.25,27.84-21.11.07-37.25-13.74-42.55-27.84Z"/><path class="cls-3" d="M198.07,151.39c5.59-14.62,22.08-28.06,42.84-27.86,21.68.21,37.3,14.87,42,27.86Z"/></g></svg>