<svg id="Calque_1" data-name="Calque 1" xmlns="http://www.w3.org/2000/svg" viewBox="0 0 480 480"><defs><style>.cls-1{fill:#ffd258;}.cls-2{fill:#adccff;stroke:#020202;}.cls-2,.cls-3{stroke-miterlimit:10;stroke-width:2px;}.cls-3{fill:#73b7a4;stroke:#050505;}</style></defs><title>Beautéé</title><rect class="cls-1" x="39.9" y="50.43" width="391.54" height="391.54" rx="79.16" ry="79.16"/><g id="G7xRsz.tif"><path class="cls-2" d="M131.17,241.11a95.25,95.25,0,0,0,27.34,8.63c13.38,1.95,26.24.9,37.94-6.75,1.86-1.22,2.79-2.5,2.62-4.82-.23-3.14-.06-6.31-.06-9.67,5.48,0,10.81-.45,16,.12a133.93,133.93,0,0,1,18.82,3.55A20.83,20.83,0,0,1,247,241.52a4.12,4.12,0,0,0,2,1.25c4.1,1.6,8.34,2.9,12.3,4.8,2.57,1.22,4.59,3.53,7.11,4.9,2.18,1.18,4.7,2.38,7.1,2.44,10.31.24,20.64.09,31,0a59.63,59.63,0,0,1,19,2.59,32.54,32.54,0,0,1,12.91,7.37c-1,.75-1.8,1.43-2.66,2-21.21,14.84-44.48,24.6-70.25,27.93a124.39,124.39,0,0,1-35.11-.66c-12-1.86-23.91-4.19-35.79-6.65a21.45,21.45,0,0,0-16.84,3.37,7.29,7.29,0,0,1-4.15,1.07c-17.37-1.09-34.73-2.32-52.09-3.46-1.34-.09-1.82-.51-2-1.86-1.77-11-1.16-21.74,2.75-32.22A37.19,37.19,0,0,1,131.17,241.11Zm96.54,26.14c2.85.86,4.28.39,5.68-2q3.57-6,7.08-12.06c1.81-3.13,1.27-4.9-1.72-6.89-1.85-1.23-4.45-1.63-5.07-4.35a1.18,1.18,0,0,0-1-.64c-3,.73-4.71-1.58-7-2.63-2.53-1.18-4.57-.85-5.89,1.31q-4,6.61-7.83,13.35a3.79,3.79,0,0,0,1.26,5.41l9.92-17.22L228.9,245a41,41,0,0,0-2.92,5.22c-.32.81.25,2,.42,3,.89-.36,2.1-.47,2.61-1.13a49.81,49.81,0,0,0,3.21-5.19l5.72,3.36C234.44,256.06,231.08,261.66,227.71,267.25Z"/><path class="cls-3" d="M341.64,267.9a13.12,13.12,0,0,1,.13,9.33,5.92,5.92,0,0,1-2.19,2.56c-13.95,10.07-29.58,16.52-46,21.13-14.16,4-28.56,6.61-43.29,6.84-13.57.22-26.88-1.9-40.05-5q-9.36-2.2-18.68-4.53a12.39,12.39,0,0,0-10.44,2,15.81,15.81,0,0,0-3.54,2.73c-2.38,3-5.51,3.53-9,3.56-10.42.1-20.83.45-31.24.47a84.84,84.84,0,0,1-11.68-1c-4.58-.61-6.18-2.59-6-7.25.07-2.12.52-4.22.82-6.49,7.62.5,14.84,1,22.06,1.47,10.8.74,21.6,1.55,32.41,2.2a6.1,6.1,0,0,0,3.66-1.05,19.27,19.27,0,0,1,17.43-3.07,232.25,232.25,0,0,0,49.54,7.5c23,1.13,44.62-4.2,65.35-13.68a152.87,152.87,0,0,0,28.62-16.75A11,11,0,0,1,341.64,267.9Z"/><path class="cls-2" d="M227.71,267.25c3.37-5.59,6.73-11.19,10.23-17l-5.72-3.36a49.81,49.81,0,0,1-3.21,5.19c-.51.66-1.72.77-2.61,1.13-.17-1-.74-2.17-.42-3A41,41,0,0,1,228.9,245l-5.69-3.44-9.92,17.22a3.79,3.79,0,0,1-1.26-5.41q3.79-6.75,7.83-13.35c1.32-2.16,3.36-2.49,5.89-1.31,2.25,1.05,4,3.36,7,2.63a1.18,1.18,0,0,1,1,.64c.62,2.72,3.22,3.12,5.07,4.35,3,2,3.53,3.76,1.72,6.89q-3.5,6-7.08,12.06C232,267.64,230.56,268.11,227.71,267.25Z"/></g></svg>