<svg id="Calque_1" data-name="Calque 1" xmlns="http://www.w3.org/2000/svg" viewBox="0 0 480 480"><defs><style>.cls-1{fill:#ffd258;}.cls-2{fill:#73b7a4;stroke:#050505;stroke-miterlimit:10;stroke-width:2px;}</style></defs><title>Beautéé</title><rect class="cls-1" x="44" y="40.16" width="391.54" height="391.54" rx="79.16" ry="79.16"/><g id="O82DXP.tif"><path class="cls-2" d="M138.75,170.34c-5.7-4.23-8.62-9.77-8.23-16.8a18.18,18.18,0,0,1,6.19-12.7c7.22-6.61,19-6,25.82.92,6.29,6.45,8.55,19.72-3,28.65,2.32,3.39,4.72,6.75,6.94,10.22a7.51,7.51,0,0,1,1.15,3.67c.12,5.49,0,11,0,16.82a21.78,21.78,0,0,1,15.64,1.12c6.68-9.21,16.9-12.51,28.19-6.46,7.08-11.41,17.3-17.9,30.86-17.92s23.84,6.37,31.09,18c4.8-2.79,9.85-3.95,15.33-2.7s9.51,4.54,12.75,9.09a21.52,21.52,0,0,1,15.7-1.12c0-4.24.26-8.23-.07-12.17A15.54,15.54,0,0,1,321,176.82a70,70,0,0,0,4.51-6.5c-5.47-4-8.38-9.27-8.27-16a18.24,18.24,0,0,1,6-13.3c7.06-6.69,19-6.34,25.83.52,6.48,6.52,8.87,19.71-2.77,28.88,2.32,3.38,4.73,6.74,7,10.22a7.17,7.17,0,0,1,1.18,3.64q.09,73.76.05,147.5v2.35H130.51v-2.66q0-73.38.06-146.75a8.7,8.7,0,0,1,1.37-4.33C134,177,136.38,173.79,138.75,170.34Zm97.08,21.86c-9,2.17-15.66,11.35-15.66,21.33q0,52.47,0,104.93c0,.88.08,1.76.11,2.61h15.55Zm28.85,129c.05-1,.12-1.86.12-2.68q0-52.46,0-104.93A22.41,22.41,0,0,0,260,199.42a19.52,19.52,0,0,0-10.73-7.29v129Zm-57.77,0c.06-.6.11-.93.11-1.25q0-53.72,0-107.43a6.85,6.85,0,0,0-.53-2.65,6.24,6.24,0,0,0-7.34-3.71c-3.33.72-5.16,3.14-5.16,6.92q0,53,0,105.93c0,.72.09,1.44.15,2.19Zm84,0c0-.72.09-1.21.09-1.7q0-53.34,0-106.68a7.57,7.57,0,0,0-.45-2.67,6.28,6.28,0,0,0-7.16-4.07c-3.5.66-5.43,3.08-5.43,6.95q0,53.09,0,106.18c0,.63.09,1.27.15,2Zm-110,0V221.24a19,19,0,0,0,0-2,6.48,6.48,0,0,0-8.07-5.69c-3.39.82-5,3.16-5,7.28q0,48.87,0,97.74c0,.82.07,1.63.11,2.54Zm136.24,0c.06-.82.14-1.55.14-2.28q0-49.12,0-98.24a8.89,8.89,0,0,0-.72-3.61,6.1,6.1,0,0,0-7.24-3.45c-3.42.79-5.17,3.18-5.17,7.2q0,49,0,98v2.39Z"/></g></svg>