<svg id="Calque_1" data-name="Calque 1" xmlns="http://www.w3.org/2000/svg" viewBox="0 0 480 480"><defs><style>.cls-1{fill:#daecff;}.cls-2{fill:#ffd258;stroke:#050505;}.cls-2,.cls-3{stroke-miterlimit:10;}.cls-3{fill:#73b7a4;stroke:#020202;}.cls-4{fill:#fff;}</style></defs><title>Beautéé</title><rect class="cls-1" x="48.86" y="56.63" width="391.54" height="391.54" rx="79.16" ry="79.16"/><g id="mpl6Vs.tif"><path class="cls-2" d="M279.44,208.83h-88V297.2c17.48,0,34.7.18,51.91-.1,6.85-.11,12.52.3,17.17,6.79,4.28,6,11.26,8.3,18.89,6.39,5.75-1.44,7.59.86,7.57,6.54,0,14.64-6.34,21.36-20.77,21.37q-31.37,0-62.72,0c-12.31,0-19-6.63-19.06-18.91q-.1-63,0-126.09c0-12.33,6.71-18.92,19-19q32-.08,64,0c12.59,0,19.27,6.71,19.44,19.39.08,5.76.32,11.55-.14,17.27-.18,2.32-2,4.5-3.11,6.75-1.27-2.07-2.58-4.12-3.78-6.23A9.82,9.82,0,0,1,279.44,208.83ZM237.21,310l-3,0c-1.8,2.44-4.7,4.69-5.14,7.36-.67,4,2.2,7.5,6.41,6.66,2.58-.51,6.24-3.74,6.42-6C242.08,315.51,238.91,312.71,237.21,310Zm-.27-114.46c2.35-1.09,8.25-2.78,8.15-4-.54-6.36-6.15-3.32-9.56-3.42s-9.35-2.46-9.51,2.86C225.83,197.53,232.32,193.39,236.94,195.58Z"/><path class="cls-3" d="M300.45,304.12c-2.72-.45-4.58-.36-6-1.09-4.55-2.27-8.75-1.8-13.45-.06-6.07,2.23-11.88,1-16.18-4.26C255.66,287.47,250.07,275,254,260.28c3.73-14.13,14.13-19.37,28.27-15.95,4.23,1,9.16.19,13.55-.77,8.77-1.9,15.65.22,20.91,7.21,2.35,3.12,2.43,5.12-1.19,7.81-2.7,2-5.9,6.13-5.51,8.81.47,3.12,4.68,5.64,7.12,8.54,1.31,1.57,3.59,3.76,3.23,5.05-2.33,8.34-6.31,15.91-13.66,21C304.71,303.33,302,303.62,300.45,304.12Z"/><path class="cls-3" d="M287,232.9c0-9.48,7.6-17.25,15.11-17.63,3.95-.2,5.36,1.72,5,5.45-.68,7.13-7.4,14.32-14.56,14.67C290.51,235.49,288.34,233.53,287,232.9Z"/><path class="cls-4" d="M237.21,310c1.7,2.67,4.87,5.47,4.66,8-.18,2.26-3.84,5.49-6.42,6-4.21.84-7.08-2.65-6.41-6.66.44-2.67,3.34-4.92,5.14-7.36Z"/><path class="cls-4" d="M236.94,195.58c-4.62-2.19-11.11,1.95-10.92-4.52.16-5.32,6.2-3,9.51-2.86s9-2.94,9.56,3.42C245.19,192.8,239.29,194.49,236.94,195.58Z"/></g></svg>