<svg id="Calque_1" data-name="Calque 1" xmlns="http://www.w3.org/2000/svg" viewBox="0 0 480 480"><defs><style>.cls-1{fill:#daecff;}.cls-2{fill:#ffd258;stroke:#050505;stroke-miterlimit:10;stroke-width:2px;}</style></defs><title>Beautéé</title><rect class="cls-1" x="45.34" y="51.78" width="391.54" height="391.54" rx="79.16" ry="79.16"/><g id="_9rtBeP.tif" data-name="9rtBeP.tif"><path class="cls-2" d="M301.86,287.13l26.68,15.31c-4.19,11.93-10,22.18-22.93,26.18a27.83,27.83,0,0,1-7.87,1.12c-32.75.39-65.49,1.05-98.23.87-17-.09-31.84-9.77-37.86-27.83-4.27-12.8-4.92-25.95-.63-38.82,4.68-14.06,12.92-25.5,27.63-30.44a55.75,55.75,0,0,1,15.46-2.39c21.15-.85,42.31-1.24,63.45-2.13,5.18-.21,10.33-1.57,15.46-2.59a13.34,13.34,0,0,0,4.29-1.93q23.28-14.61,46.51-29.31c5.28-3.34,9.71-2,12,3.81,3.17,8.14,4.32,16.74,5.12,25.38,1.61,17.32,1.55,34.61-1.43,51.8-.74,4.26-1.71,8.49-2.85,12.66a9.91,9.91,0,0,1-12.54,7.35,31.37,31.37,0,0,1-6-2.39c-13.16-6.45-26.26-13-39.44-19.42-7.53-3.66-15.59-5.14-24-5.39-18.07-.55-36.13-1.25-54.2-1.85-3.95-.13-7.85.15-11.38,2.2-4.53,2.64-7,6.5-7,11.84,0,2.58,0,5.17.25,7.73.5,4.84,3.34,7.92,7.9,9.28a22.7,22.7,0,0,0,6.15.84c28.32.37,56.65.61,85,1.05,5.16.08,8.28-1.19,9.76-8C301.49,290.61,301.59,289.12,301.86,287.13Z"/><path class="cls-2" d="M169.46,236.5c-1.24,1.44-2.15,2.48-3,3.53a44,44,0,0,0-8.72,15.3c-.24.77-1.39,1.83-2.06,1.79-6.27-.4-11.95,1.88-17.76,3.61-5.25,1.56-6.76.7-8.46-4.52-2-6.17-1.61-12.32,0-18.45,1-3.62,4.05-5.8,7.12-4.43,9.71,4.33,19.83,3.62,30,3.17C167.31,236.46,168.1,236.5,169.46,236.5Z"/><path class="cls-2" d="M271.82,223.92H249.74c0-3.22-.2-6.29,0-9.33a5.68,5.68,0,0,1,5.82-5.1c3.42-.07,6.83-.06,10.24,0a5.87,5.87,0,0,1,6,5.52c.18,2.15.07,4.32.07,6.49C271.92,222.24,271.86,223,271.82,223.92Z"/><path class="cls-2" d="M212,224h-22c0-3.33-.17-6.55.06-9.74a5.54,5.54,0,0,1,5.14-4.67c3.82-.14,7.65-.14,11.46,0a5.47,5.47,0,0,1,5.25,4.81C212.19,217.48,212,220.62,212,224Z"/><path class="cls-2" d="M220.2,223.94c0-3.34-.2-6.5.06-9.62a5.47,5.47,0,0,1,5.53-4.81q5.37-.13,10.74,0c2.77.07,5.25,2,5.45,4.61.25,3.2.06,6.44.06,9.82Z"/></g></svg>