<svg id="Calque_1" data-name="Calque 1" xmlns="http://www.w3.org/2000/svg" viewBox="0 0 480 480"><defs><style>.cls-1{fill:#daecff;}.cls-2{fill:#ffd258;stroke:#050505;}.cls-2,.cls-3{stroke-miterlimit:10;stroke-width:0.5px;}.cls-3{fill:#fef0e1;stroke:#020202;}.cls-4{fill:#ddb143;}.cls-5{fill:#d6af8b;}</style></defs><title>CUisine</title><rect class="cls-1" x="52.23" y="57.92" width="391.54" height="391.54" rx="79.16" ry="79.16"/><path class="cls-2" d="M321.19,320H176.36a4.84,4.84,0,0,0-4.83,4.83l0,14.08a19.7,19.7,0,0,0,19.7,19.72h115.1A19.73,19.73,0,0,0,326,338.93v-14.1A4.83,4.83,0,0,0,321.19,320Z"/><path class="cls-3" d="M301.87,165.48a50,50,0,0,0-9.21.9,57.89,57.89,0,0,0-101.85,37.73,4.83,4.83,0,1,1-9.66,0,66.75,66.75,0,0,1,7.15-30.06,4.83,4.83,0,0,0-5.49-6.85,53,53,0,0,0-11.2,98.73l-.06,39.58a4.81,4.81,0,0,0,4.83,4.83H321.19a4.83,4.83,0,0,0,4.83-4.83V265.86a53.09,53.09,0,0,0-24.15-100.38Zm-88.68,114.8a4.85,4.85,0,0,1-6.8-.67c-1.59-1.95-15.58-19.36-15.58-32a4.83,4.83,0,0,1,9.66,0c0,7,8.21,19.6,13.39,25.91A4.84,4.84,0,0,1,213.19,280.28Zm40.39-3.74a4.83,4.83,0,1,1-9.65,0v-29a4.83,4.83,0,1,1,9.65,0v29Zm37.54,3.07a4.83,4.83,0,0,1-7.47-6.13c5.18-6.32,13.39-19,13.39-25.91a4.83,4.83,0,1,1,9.66,0C306.7,260.25,292.71,277.66,291.12,279.61Z"/><path class="cls-4" d="M320.41,320.23H289.52c-4.67,12.81-9.22,25.67-13.46,38.63h29.47a19.71,19.71,0,0,0,19.7-19.7v-14.1A4.82,4.82,0,0,0,320.41,320.23Z"/><path class="cls-5" d="M335,178a425.21,425.21,0,0,1-13.7,53.3c-8.52,26.75-18.51,53-28.23,79.31h27.35a4.83,4.83,0,0,0,4.83-4.83V266.09A53,53,0,0,0,335,178Z"/></svg>