<svg id="Calque_1" data-name="Calque 1" xmlns="http://www.w3.org/2000/svg" viewBox="0 0 480 480"><defs><style>.cls-1{fill:#fbcec6;}.cls-2{fill:#ffd258;}.cls-2,.cls-3{stroke:#050505;stroke-miterlimit:10;stroke-width:2px;}.cls-3{fill:#adccff;}</style></defs><title>Beautéé</title><rect class="cls-1" x="39.34" y="54.02" width="391.54" height="391.54" rx="79.16" ry="79.16"/><g id="_6ygzaR.tif" data-name="6ygzaR.tif"><path class="cls-2" d="M235.52,169.46q49,0,98,0c5.7,0,10,2.25,12.57,7.38a13,13,0,0,1,1.39,5.47q.1,65.47,0,131a13.11,13.11,0,0,1-12,12.74c-.83.06-1.67.05-2.5.05q-97.47,0-194.94,0c-5.87,0-10.42-2.05-13.07-7.39a13,13,0,0,1-1.39-5.47q-.1-65.47,0-131a13.11,13.11,0,0,1,12-12.74c1.08-.07,2.17,0,3.25,0Z"/><path class="cls-3" d="M201,358.46V339.3h69v19.16h2.85q15.87,0,31.74,0c2.87,0,5.24.85,6.69,3.51a6.36,6.36,0,0,1-3.64,9.11,14,14,0,0,1-3.93.45q-68.24,0-136.47,0a12.19,12.19,0,0,1-6-1.67c-2.24-1.36-2.81-4.58-1.89-7a6.4,6.4,0,0,1,6.36-4.36c6.41-.05,12.83,0,19.24,0Z"/></g></svg>