<svg id="Calque_1" data-name="Calque 1" xmlns="http://www.w3.org/2000/svg" viewBox="0 0 480 480"><defs><style>.cls-1,.cls-3{fill:#adccff;}.cls-2{fill:#ffd258;}.cls-2,.cls-5,.cls-6{stroke:#050505;}.cls-2,.cls-3,.cls-5,.cls-6{stroke-miterlimit:10;}.cls-3{stroke:#020202;}.cls-4{fill:#fff;}.cls-5{fill:#ff5f7d;}.cls-6{fill:#73b7a4;}</style></defs><title>illus complet</title><rect class="cls-1" x="38.78" y="56.83" width="391.54" height="391.54" rx="79.16" ry="79.16"/><g id="_7x8ngP.tif" data-name="7x8ngP.tif"><path class="cls-2" d="M245.9,199.12c13.93,0,27.86-.07,41.79,0,22,.13,36.2,11.37,41.32,32.73,4.19,17.46,8.36,34.92,12.38,52.41,3.32,14.45-5.34,27.29-19.75,29.61-7.41,1.2-13.43-1.32-18.27-6.88a10.12,10.12,0,0,1-2.06-3.17c-6-17.55-18.66-21.67-36.12-20.28-18.62,1.49-37.45.48-56.19.27-6-.07-10.16,1.93-12.89,7.35-1.93,3.83-4.36,7.41-6.59,11.09-6.55,10.8-15.44,14.37-26.17,10.51-10.33-3.71-17.7-15.14-15.39-25.94,4.33-20.26,8.91-40.51,14.42-60.48,4.68-17,19.46-26.86,38.7-27.18C216,198.93,231,199.13,245.9,199.12Zm-29.75,34.37c-2.7-3.28-5.36-6.49-8-9.7l-8,10.57-9.65,6.77,10.87,8.92c1.61,2.29,3.5,8,6.31,8.47,8.18,1.46,5.28-7,7.48-11.09l1.48,1.73q4.75-3.74,9.5-7.48ZM289.76,253c-4.16-2.27-6.61-4.68-8.8-4.47-1.82.18-3.34,3.45-5,5.36,2.08,1.69,4,4.44,6.3,4.72C284,258.87,286.09,255.94,289.76,253ZM278,241.67c-4.43-2.82-6.7-5.4-8.88-5.32-1.86.07-4.9,3.12-5,5-.1,1.7,2.93,4.9,4.79,5.06C271.05,246.59,273.44,244.2,278,241.67Zm24-.38c-4.06-2.5-6.36-5-8.54-4.94-1.84.09-3.53,3.25-5.28,5.05,2,1.79,3.77,4.63,6,5C295.89,246.75,298.15,244,302,241.29Zm-20-19.82c-2.81,3.42-5.85,5.56-5.6,7.19a8.15,8.15,0,0,0,5.13,5.51c1.45.35,5.22-2.76,5.28-4.42C286.87,227.55,284.35,225.26,282,221.47Z"/><path class="cls-3" d="M289.63,253.15c-3.51,3-5.53,6.06-7.16,5.84-2.17-.3-4-3.16-6-4.92,1.57-2,3-5.39,4.76-5.58C283.31,248.26,285.65,250.78,289.63,253.15Z"/><path class="cls-4" d="M278.38,241.3c-4.35,2.64-6.63,5.13-8.7,4.93-1.78-.17-4.67-3.5-4.57-5.27.1-2,3-5.13,4.79-5.2C272,235.68,274.16,238.36,278.38,241.3Z"/><path class="cls-5" d="M301.33,240.91c-3.68,2.79-5.84,5.68-7.46,5.36-2.14-.43-3.85-3.38-5.74-5.25,1.67-1.87,3.29-5.16,5-5.26C295.25,235.66,297.46,238.3,301.33,240.91Z"/><path class="cls-6" d="M282.19,220.26c2.27,4,4.68,6.34,4.6,8.63-.06,1.73-3.66,5-5,4.6-2.05-.53-4.59-3.48-4.91-5.73C276.6,226.05,279.51,223.82,282.19,220.26Z"/></g></svg>