<?xml version="1.0" encoding="utf-8"?>
<!-- Generator: Adobe Illustrator 22.1.0, SVG Export Plug-In . SVG Version: 6.00 Build 0)  -->
<svg version="1.1" id="Calque_1" xmlns="http://www.w3.org/2000/svg" xmlns:xlink="http://www.w3.org/1999/xlink" x="0px" y="0px"
	 viewBox="0 0 700 480" style="enable-background:new 0 0 700 480;" xml:space="preserve">
<style type="text/css">
	.st0{fill:#DAECFF;}
	.st1{fill:#FFD258;}
	.st2{fill:#FBCEC6;}
	.st3{fill:#ADCCFF;}
	.st4{fill:#FF5F7D;}
	.st5{fill:none;stroke:#000000;stroke-width:2;stroke-miterlimit:10;}
	.st6{fill:#FFFBF2;}
	.st7{fill:#73B7A4;}
	.st8{fill:none;stroke:#000000;stroke-miterlimit:10;}
	.st9{fill:#98BFFF;}
	.st10{fill:#FFD258;stroke:#000000;stroke-width:2;stroke-miterlimit:10;}
	.st11{fill:#FEF0E1;stroke:#070707;stroke-miterlimit:10;}
	.st12{fill:#D3A533;}
	.st13{fill:#FFB5C0;stroke:#020202;stroke-miterlimit:10;}
	.st14{fill:#FF8E9E;}
	.st15{fill:#FF8E9E;stroke:#000000;stroke-miterlimit:10;}
	.st16{fill:#EA5B70;}
	.st17{fill:#020202;}
	.st18{fill:#FFD258;stroke:#050505;stroke-width:0.5;stroke-miterlimit:10;}
	.st19{fill:#FEF0E1;stroke:#020202;stroke-width:0.5;stroke-miterlimit:10;}
	.st20{fill:#DDB143;}
	.st21{fill:#D6AF8B;}
	.st22{fill:#FFFBF2;stroke:#020202;stroke-width:2;stroke-miterlimit:10;}
	.st23{fill:#FF5F7D;stroke:#020202;stroke-width:2;stroke-miterlimit:10;}
	.st24{fill:#FFFFFF;}
	.st25{fill:#ADCCFF;stroke:#020202;stroke-width:2;stroke-miterlimit:10;}
	.st26{fill:#FFD258;stroke:#050505;stroke-width:2;stroke-miterlimit:10;}
	.st27{fill:#85AAE0;}
	.st28{fill:#C99E32;}
	.st29{fill:#FFCF47;stroke:#020202;stroke-miterlimit:10;}
	.st30{fill:#FF5F7D;stroke:#050505;stroke-width:2;stroke-miterlimit:10;}
	.st31{fill:#F36B7F;stroke:#000000;stroke-miterlimit:10;}
	.st32{fill:#DBA92C;}
	.st33{fill:#73B7A4;stroke:#020202;stroke-width:2;stroke-miterlimit:10;}
	.st34{fill:#FFCF47;stroke:#020202;stroke-width:2;stroke-miterlimit:10;}
	.st35{fill:#99C6B8;}
	.st36{fill:#E2B23B;}
	.st37{fill:#C11A3E;}
	.st38{fill:#FEF0E1;stroke:#020202;stroke-miterlimit:10;}
	.st39{fill:#ADCCFF;stroke:#020202;stroke-miterlimit:10;}
	.st40{fill:#FFD258;stroke:#0C0C0C;stroke-width:0.75;stroke-miterlimit:10;}
	.st41{fill:#ADCCFF;stroke:#050505;stroke-width:2;stroke-miterlimit:10;}
	.st42{fill:#73B7A4;stroke:#050505;stroke-width:2;stroke-miterlimit:10;}
	.st43{fill:#FFFBF2;stroke:#050505;stroke-width:2;stroke-miterlimit:10;}
	.st44{fill:#FEF0E1;stroke:#020202;stroke-width:2;stroke-miterlimit:10;}
	.st45{fill:#D8A830;}
	.st46{fill:#FF5F7D;stroke:#050505;stroke-miterlimit:10;}
	.st47{fill:#73B7A4;stroke:#020202;stroke-miterlimit:10;}
	.st48{fill:#E8D2BF;}
	.st49{fill:#FFD258;stroke:#0A0A0A;stroke-width:2;stroke-miterlimit:10;}
	.st50{fill:#D8AB3A;}
	.st51{fill:#FFD258;stroke:#050505;stroke-miterlimit:10;}
	.st52{fill:#FBCEC6;stroke:#070707;stroke-miterlimit:10;}
	.st53{fill:#D84161;}
	.st54{fill:#FFD258;stroke:#0A0A0A;stroke-miterlimit:10;}
	.st55{fill:#FFD258;stroke:#0A0A0A;stroke-width:3;stroke-miterlimit:10;}
	.st56{fill:none;stroke:#0A0A0A;stroke-width:2;stroke-miterlimit:10;}
	.st57{fill:#FF5F7D;stroke:#000000;stroke-miterlimit:10;}
	.st58{fill:#FFD258;stroke:#000000;stroke-miterlimit:10;}
	.st59{fill:#FF5F7D;stroke:#050505;stroke-width:0.75;stroke-miterlimit:10;}
	.st60{fill:#FEF0E1;stroke:#020202;stroke-width:0.75;stroke-miterlimit:10;}
	.st61{fill:#FF5F7D;stroke:#050505;stroke-width:0.25;stroke-miterlimit:10;}
	.st62{fill:#FFD258;stroke:#0A0A0A;stroke-width:0.75;stroke-miterlimit:10;}
	.st63{fill:#73B7A4;stroke:#020202;stroke-width:0.25;stroke-miterlimit:10;}
	.st64{fill:#FBCEC6;stroke:#020202;stroke-miterlimit:10;}
	.st65{fill:#73B7A4;stroke:#020202;stroke-width:0.75;stroke-miterlimit:10;}
	.st66{fill:#73B7A4;stroke:#070707;stroke-miterlimit:10;}
	.st67{fill:#FFFBF2;stroke:#070707;stroke-miterlimit:10;}
	.st68{fill:#E2B139;}
	.st69{fill:#FFFBF2;stroke:#020202;stroke-miterlimit:10;}
	.st70{fill:#ADCCFF;stroke:#020202;stroke-width:0.75;stroke-miterlimit:10;}
	.st71{fill:#FFFBF2;stroke:#020202;stroke-width:0.75;stroke-miterlimit:10;}
	.st72{fill:#FFD258;stroke:#050505;stroke-width:0.75;stroke-miterlimit:10;}
	.st73{fill:#FBCEC6;stroke:#020202;stroke-width:0.75;stroke-miterlimit:10;}
	.st74{fill:#73B7A4;stroke:#050505;stroke-miterlimit:10;}
	.st75{fill:#73B7A4;stroke:#050505;stroke-width:0.75;stroke-miterlimit:10;}
	.st76{fill:#E2C2A6;}
	.st77{fill:#DBC69E;}
	.st78{fill:#D39C94;}
	.st79{fill:#E0B344;}
	.st80{fill:#E0AE32;}
	.st81{fill:#4F9982;}
	.st82{fill:#DDBA9B;}
	.st83{fill:#FF5F7D;stroke:#000000;stroke-width:0.75;stroke-miterlimit:10;}
	.st84{fill:#FFD258;stroke:#000000;stroke-width:0.75;stroke-miterlimit:10;}
	.st85{fill:none;stroke:#000000;stroke-width:0.5;stroke-miterlimit:10;}
	.st86{opacity:0.43;fill:#7F3B48;}
	.st87{opacity:0.88;fill:#98BFFF;}
	.st88{opacity:0.75;fill:#FFFBF2;}
	.st89{opacity:0.88;fill:#719BD8;}
	.st90{opacity:0.75;fill:#EAD9B7;}
	.st91{fill:#FEF0E1;}
	.st92{fill:none;stroke:#070707;stroke-miterlimit:10;}
	.st93{fill:#C1962B;}
	.st94{fill:#D6B154;}
	.st95{fill:#5DA08B;}
	.st96{fill:#C6961E;}
</style>
<rect x="3" y="1.1" class="st1" width="700" height="479.9"/>
<path class="st5" d="M372.7,95.5c0,0,0-0.1,0.1,0.2c0-0.3,0.1,0.9,0.2,0.6c0.1,0.3,0.2,1.5,0.3,1.1c0.1-0.8,0.3,1.6,0.4,1.5
	c0.2,0.1,0.3,0.7,0.5,1.8c0.2-0.4,0.4,1.8,0.6,2.2c0.2,1.6,0.5,0.7,0.7,2.6c0.3,1.2,0.5,2.7,0.8,2.9c0.3,0.9,0.6,1.1,0.9,3.3
	c0.3,1.3,0.7,2.7,1,3.6c0.4,0.8,0.7,1.8,1.1,3.9c0.4,0.8,0.8,3.5,1.2,4.2c0.4,1.1,0.8,1.9,1.3,4.5c0.4,1.6,0.9,3.1,1.3,4.7
	s0.9,3.3,1.4,5c0.3,1,0.6,2.4,0.9,3.1c0.3,0.8,0.6,1.5,0.9,3.2c0.3,2.2,0.6,2.2,0.9,3.3c0.3,2,0.6,1.9,1,3.4c0.3,0.5,0.6,3.1,1,3.4
	c0.3,2.1,0.7,3.1,1,3.5c0.3,1.2,0.7,2,1,3.6c0.3,0.7,0.7,2.9,1,3.7c0.3,1.8,0.7,1.7,1.1,3.7c0.4,1.2,0.7,2.4,1.1,3.8
	c0.4,1.3,0.7,2.5,1.1,3.9c0.4,1.3,0.7,2.6,1.1,3.9c0.4,1.3,0.7,2.7,1.1,4c0.4,1.3,0.8,2.8,1.1,4c0.4,1.5,0.8,2.7,1.2,4.1
	c0.4,1.2,0.8,2.5,1.2,4.1c0.4,1.2,0.8,2.8,1.2,4.2c0.4,1.5,0.8,2.9,1.2,4.2c0.4,1.5,0.8,2.9,1.2,4.2c0.4,1.7,0.8,1.5,1.2,4.3
	c0.4,1.6,0.8,2.9,1.2,4.3c0.4,0.6,0.8,3.5,1.2,4.3c0.4,1.5,0.8,3.2,1.2,4.4c0.4,1.6,0.8,2.9,1.2,4.4c0.4,2,0.8,3.1,1.2,4.4
	c0.4,1.5,0.8,3.1,1.3,4.4c0.4,1.6,0.8,2.6,1.3,4.4c0.4,1.7,0.8,3,1.3,4.4c0.4,1.5,0.8,3.2,1.3,4.5c0.4,1.1,0.8,2.9,1.3,4.5
	c0.4,1.3,0.8,2.6,1.3,4.5c0.4,1,0.8,3,1.3,4.5c0.4,0.5,0.8,1.5,1.3,4.5c0.4,1,0.8,2.1,1.3,4.5c0.4,1.5,0.8,2.7,1.3,4.5
	c0.4,1.7,0.8,3,1.3,4.4c0.4,1.8,0.8,2.9,1.3,4.4c0.4,1.3,0.8,2.9,1.3,4.4c0.4-0.3,0.8,3.7,1.2,4.4c0.4,0.2,0.8,2.3,1.2,4.4
	c0.4,0.3,0.8,3.2,1.2,4.4c0.4,1,0.8,2.9,1.2,4.3c0.4,1.6,0.8,2,1.2,4.3c0.4,0.4,0.8,2.8,1.2,4.3c0.4-0.5,0.8,2.8,1.2,4.2
	c0.4,0.1,0.8,2.5,1.2,4.2c0.4,2.6,0.8,3.2,1.2,4.2c0.4,1.2,0.8,2.5,1.2,4.1c0.4,1.2,0.8,2.3,1.2,4.1c0.4,1.7,0.8,2.7,1.1,4
	c0.4,1.4,0.8,3.4,1.1,4c0.4,1.1,0.7,2.4,1.1,3.9c0.4,0.4,0.7,2.4,1.1,3.9c0.4,2.4,0.7,1.6,1.1,3.8c0.4,1.2,0.7,1.3,1.1,3.7
	c0.3,1.3,0.7,2.7,1,3.7c0.3,1.8,0.7,1.9,1,3.6c0.3,0.8,0.7,3,1,3.5c0.3,1.8,0.7,3,1,3.4c0.3,1.1,0.6,2.1,1,3.4
	c0.3,1.4,0.6,2.2,0.9,3.3c0.3,2.7,0.6,2.2,0.9,3.2c0.3,1.1,0.6,0.4,0.9,3.1c0.3-0.1,0.6,1.7,0.9,3c0.3,0.3,0.6,2.4,0.8,2.9
	c0.3,0.5,0.5,1.4,0.8,2.8c0.3,1.8,0.5,1.9,0.8,2.8c0.3,1.3,0.5,0.3,0.8,2.7c0.2,1.6,0.5,1,0.7,2.6c0.2,0.2,0.5,1.2,0.7,2.4
	c0.2,2,0.4,1.9,0.7,2.3c0.2,2.6,0.4,2.5,0.6,2.2c0.2,1.1,0.4,1.1,0.6,2.1c0.2,0.9,0.4,1.3,0.6,2c0.2,0.9,0.4,1.5,0.5,1.9
	c0.2,0.9,0.3,1.8,0.5,1.8c0.2,1.1,0.3,0.6,0.5,1.6c0.1,0.4,0.3,1.4,0.4,1.5c0.1,0,0.3,0.9,0.4,1.4c0.1,0.5,0.2,0.8,0.4,1.2
	c0.1,0.5,0.2,0.6,0.3,1.1c0.1,1.1,0.2,0.8,0.3,1c0.1,0.7,0.2,0.7,0.2,0.8c0.1,1.4,0.1-0.1,0.2,0.7c0.1,0.1,0.1,0.6,0.2,0.5
	c0,0.4,0.1,1.4,0.1,0.4c0-0.4,0.1,1.1,0.1,0.2c0-0.3,0,0.9,0,0.1"/>
<path class="st5" d="M462.5,239.1c0,0,1.2,41.3,2.4,86c0,1.4,0.1,2.7,0.1,4.1c0,1.2,0.1,2.5,0.1,4.1c0,1,0.1,3,0.1,4.1
	c0,2,0.1,2.4,0.1,4.1c0,1.5,0.1,2.9,0.1,4.1c0,1.2,0.1,2.3,0.1,4.1c0,2.3,0.1,2.7,0.1,4.1c0,2.1,0.1,1.9,0.1,4c0,0.9,0.1,3.3,0.1,4
	c0,1.3,0.1,2.3,0.1,4c0,0.4,0.1,2.9,0.1,3.9c0,1.2,0.1,3.2,0.1,3.9c0,0.6,0.1,2.7,0.1,3.8c0,0.7,0.1,2.5,0.1,3.7
	c0,1.5,0.1,2.6,0.1,3.7c0,2,0.1,2.6,0.1,3.6c0,1.4,0.1,1.4,0.1,3.5c0,0.6,0.1,2.1,0.1,3.4c0,0.7,0.1,3.2,0.1,3.3
	c0,1.9,0.1,2.5,0.1,3.2c0,1.1,0.1,2.1,0.1,3.1c0,1.2,0.1,2.3,0.1,3.4c0,1.4,0.1,2,0.1,3.2c0,1.2,0.1,2.7,0.1,3.1
	c0,1.1,0.1,1.8,0.1,2.9c0,1.2,0.1,1.6,0.1,2.7c0,0.5,0,2,0.1,2.5c0,1,0,1.9,0.1,2.3c0-0.4,0,1.7,0.1,2.1c0,0.9,0,1,0.1,1.9
	c0-0.1,0,1.9,0,1.7c0,1.1,0,1,0,1.4c0,2.1,0,1.9,0,1.2c0,1.1,0-0.2,0,1c0,1.5,0,0.1,0,0.7c0,1,0-0.5,0,0.4c0-1.2,0,0.1,0,0.1"/>
<path class="st5" d="M345.7,242.4c0,0,0,9.4,0,24.1c0,1,0,2.1,0,3.2c0,0.4,0,0.8,0,1.3s0,1.1,0,2c0-0.1,0,0.7,0,2
	c0,0.1-0.1-0.1,0,1.5c0,1.9,0.1,3.7,0,2.1c-0.1-0.7,0.1,2,0,1.5c0.1,2.1,0,1.6,0,1.8c0,1.3,0,1.2,0,1.9c0.1,1.6,0,1.3,0,1.3
	c0,0.8,0,1,0,2.6c0,1.5,0,1.4,0,1.9c0,0.1,0,1.9,0,2.1c0,1.1,0,1.7,0,2c-0.1-1,0,1.6,0,2.1c0,0.6,0,1.6,0,1.9c0,0.7,0,0.6,0,2.3
	c0,0.4,0,1.5,0,1.9c0-0.2,0,1.3,0,2.3c0,0.8,0,1,0,1.8c-0.1-0.2,0,1.2,0,2.6c0,0.3,0,1.2,0,2.2c-0.1-1,0,1.2,0,2.2
	c0-0.1,0,0.9,0,2.4c-0.1-1-0.1,0.2,0,2.1c0,1.1,0,1.7,0,2.2c0,0,0,1.1,0,2.3c0,1.1,0,1.4,0,2.3c-0.1-0.4,0.1,3.2,0,2.2
	c0.2,3.8,0,0.4,0,1.3c0.1,1.8-0.1-1.2,0,1.2c0-0.4-0.1-1.7,0,0.5c0,1.4-0.1-0.3,0,1.6c0,1.3-0.1-1.4,0,1.2c0,1.5,0,1.2,0,1.2
	c0,0,0,0.9,0,1.2c0.1,2.8-0.1-0.7,0,1.1c0-0.4-0.1-0.4,0,0.7c0.1,1.9,0.1,1.7,0,1.7c0-1,0-0.1,0,1.1c0,1.1-0.1,0.4,0,1.1
	c0,0.3,0,1.5,0,1.2c-0.1-1.7,0-1.4,0,1.1c0-0.9,0.1,2.2,0,0.8c0,0.8,0.1,2.2,0,1.5c0,1.3,0,0.2,0,1.5c0,0.8,0,0.7,0,0.9
	c0-0.6,0,0.6,0,1.2c0,1.2,0,1.2,0,1c0,1,0,1.6,0,1.6c0,0.7,0,0.9,0,0.8c0,0.8,0,0.2,0,0.8c0,0.9,0-0.1,0,1.4c0,0.3,0,0.7,0,2
	c0-0.6,0-0.4,0,1.1c0,1,0,2.1,0,1.5c0,0.5,0-0.1,0,0.7c0,1.4,0,1.6,0,1.5c-0.1-0.7,0,1.5,0,1.1c0-0.6,0,1,0,1.2
	c-0.1-2,0.1,2.5,0,0.8c0-0.3,0,1.4,0,1.5c0,0.4-0.1-0.7,0,0.7c0,0,0,1.4,0,1.4c0.1,2.6,0,0.9,0,2.1c-0.1-1.4,0,0.2,0,1.4
	c0,0.5,0-0.2,0,0.9c0-0.6-0.1-2.1,0,0.5c0.1,1.8-0.1-0.1,0,1.7c0.1,3.5,0,0.4,0,2.1c0,0.6,0,0.7,0,1.1c-0.1-0.6,0,1.7,0,1.2
	c0.1,2.5,0,2.5,0,2c0-0.4-0.1-0.1,0,1.6c-0.1-1.8,0,1.2,0,0.4c0,0.8,0-0.1,0,1c0,1.2,0,0.5,0,1.2c0,1.9,0,1.6,0,2.1
	c0.1,2.6,0,1.1,0,1.5c0,1.4,0.1,1.9,0,0.5c0.1,0.6-0.1-1.1,0,1.8c0.1,3.4,0.1,2.7,0,0.8c0,0.1,0,0,0,1.4c0,1.5,0-1.1,0,1.9
	c0.1,2.9,0,1,0,2c0,1.3,0,1.5,0,1.9c-0.1-1.7-0.1-1.5,0-0.1c0,3.3,0,1.8,0,1.9c0.1,3.6-0.1,0.8,0,1.9c0.1,1.9,0,0,0,0.3
	c-0.1-1.1-0.1,0,0,1.4c0,0.7,0,0.3,0,1.7c0,0.9,0,0.4,0,0.4c0,1.7,0-0.1,0,1.4c-0.1-1.3,0,2.6,0,2c0,0.8,0,1.4,0,1.4
	c-0.1-0.7,0,0.7,0,2c0,0.5,0,0.6,0,1.2c0.1,1.7-0.1,0.9,0,1.6c0.1,0.8-0.1-1.2,0,1.5c0.1,1.1,0.1,3.1,0,1.6c0,0-0.1-0.1,0,1.3
	c0-1.4-0.1,0.6,0,1.4c0,0.6,0,1.6,0,1.3c0,0.3,0.1,2.9,0,1.2c0.1,3.5,0,1.3,0,1.3c0,1.9,0,0.8,0,1.1c-0.2-2.4,0,0.3,0,1.2
	c-0.1-0.8,0,1.2,0,0.7c-0.1-3,0-0.6,0,0.1c0-0.4,0,1.2,0,1.3c-0.1-1.1,0,1,0,0.9c0,0.9,0-1.2,0,1c0,1.6,0-0.4,0,1
	c-0.1-1.7,0,2.4,0,0.7c0.1,2,0,0.5,0,1.4c0,0.5,0,2.2,0,1.2c0,0-0.1-1.3,0,1c0-0.1,0,1.3,0,0.7c0,1.1,0,0.6,0,0.4c0,0.8,0-2.1,0,0.1
	"/>
<circle class="st6" cx="399.2" cy="122.7" r="18.3"/>
<circle class="st6" cx="365.6" cy="136" r="18.3"/>
<circle class="st6" cx="411.4" cy="161" r="18.3"/>
<circle class="st6" cx="377.7" cy="174.3" r="18.3"/>
<path class="st4" d="M483.6,260.3c1.6,16.5-8.6,37-18.3,37.1c-9.7,0-20.4-20.6-18.3-37.1c0.7-5.2,3.3-10.8,8.6-22
	c5.9-12.5,7.5-15,9.7-15.1c1.8,0,3.8,1.6,9,12.7C480.1,248.3,483,254.6,483.6,260.3z"/>
<circle class="st7" cx="465.2" cy="315.6" r="18.3"/>
<path class="st8" d="M457.9,215c1.1,1,2.5,2.4,3.8,4.3c1.2,1.7,2,3.4,2.6,4.7"/>
<path class="st8" d="M471.8,215c-1.1,1-2.5,2.4-3.8,4.3c-1.2,1.7-2,3.4-2.6,4.7"/>
<line class="st8" x1="465.3" y1="223.2" x2="465.4" y2="211.4"/>
<path class="st7" d="M345.7,321.7h-44.2c-0.2,0.4-0.4,0.9-0.6,1.6c-2.2,6.7,0.5,12.9,0.6,13.2c2,4.2,6.3,8.8,11.8,9.6
	c5.6,0.8,9.9-2.5,17-8.1C334.4,334.6,340.1,329.4,345.7,321.7z"/>
<path class="st7" d="M345.7,321.7h44.2c0.2,0.4,0.4,0.9,0.6,1.6c2.2,6.7-0.5,12.9-0.6,13.2c-2,4.2-6.3,8.8-11.8,9.6
	c-5.6,0.8-9.9-2.5-17-8.1C357,334.6,351.3,329.4,345.7,321.7z"/>
<path class="st7" d="M345.7,321.7h44.2c0.2-0.4,0.4-0.9,0.6-1.6c2.2-6.7-0.5-12.9-0.6-13.2c-2-4.2-6.3-8.8-11.8-9.6
	c-5.6-0.8-9.9,2.5-17,8.1C357,308.7,351.3,313.9,345.7,321.7z"/>
<path class="st7" d="M345.7,321.7h-44.2c-0.2-0.4-0.4-0.9-0.6-1.6c-2.2-6.7,0.5-12.9,0.6-13.2c2-4.2,6.3-8.8,11.8-9.6
	c5.6-0.8,9.9,2.5,17,8.1C334.4,308.7,340.1,313.9,345.7,321.7z"/>
<path class="st9" d="M360.6,252.3c2.2,10.2-6.6,25-15.5,24.8c-8.6-0.2-16.3-14.5-14.4-24.8c0.9-4.8,3.2-5,7.2-12.9
	c6.3-12.3,6-22.2,7.7-22.1c1.7,0.1,0.2,9.4,5.6,20.3C355.5,246.2,359.4,246.5,360.6,252.3z"/>
<path class="st9" d="M414,118.4c1.3,0.2,3,8.2-1,13.4c-2,2.6-5.3,4.3-6.1,3.6c-0.6-0.6,0.6-2.4,3.4-9
	C413.2,119.7,413.4,118.3,414,118.4z"/>
<path class="st9" d="M426.5,156c1.3,0.2,3,8.2-1,13.4c-2,2.6-5.3,4.3-6.1,3.6c-0.6-0.6,0.6-2.4,3.4-9C425.8,157.4,426,156,426.5,156
	z"/>
<path class="st9" d="M380.4,132.9c1.3,0.2,3,8.2-1,13.4c-2,2.6-5.3,4.3-6.1,3.6c-0.6-0.6,0.6-2.4,3.4-9
	C379.7,134.2,379.9,132.8,380.4,132.9z"/>
<path class="st9" d="M393,170.5c1.3,0.2,3,8.2-1,13.4c-2,2.6-5.3,4.3-6.1,3.6c-0.6-0.6,0.6-2.4,3.4-9
	C392.2,171.9,392.4,170.5,393,170.5z"/>
<g id="qEKAgi.tif_1_">
	<g>
		<path class="st4" d="M174.9,375.9c7.2,9.6,13.5,19.3,21.1,28c9.4,10.9,19.6,21,29.6,31.3c3.8,3.9,7.6,4.2,12.4,1.8
			c12.4-6.2,24.8-12.4,37.2-18.7c6.5-3.3,7.4-4.4,8.1-11.4c2.9-0.1,5.8,0.1,8.6-0.5c4.9-1,10-1.7,14.4-3.8
			c15.2-7.2,30.1-14.9,45.1-22.5c4.4-2.2,6.1-5.6,5.4-10c-0.6-4-3.3-6.6-8-7.6c-0.7-0.2-1.4-0.2-2.1-0.4
			c-10.6-2.8-21.3-5.1-31.6-8.7c-15.8-5.5-29.8-13.9-40.7-27.3C241.5,342.5,208.6,359,174.9,375.9z"/>
		<path class="st39" d="M191.3,305.9c-5.3,2.7-10.3,5.2-15.3,7.7c-15.3,7.8-20.4,23.3-12.8,38.7c1.1,2.3,2.3,4.5,3.6,7
			c32.9-16.5,65.7-32.9,98.5-49.3c-4.5-12.1-11.3-21.4-25-23.3c-5.7-0.8-11.1,0.2-16.3,2.8c-5.2,2.6-10.4,5.2-16,8
			c-0.7-1.3-1.3-2.5-1.9-3.7c-27.2-54.4-54.3-108.7-81.5-163.1c-3.4-6.9-10.3-8.5-15.4-3.7c-3.1,2.9-3.6,6.8-1.2,11.6
			c5.7,11.5,11.5,23,17.2,34.4c21.5,43.1,43.1,86.2,64.6,129.3C190.2,303.5,190.7,304.5,191.3,305.9z"/>
		<path class="st67" d="M401.7,383.2c5.1-0.1,9.1-4.1,9-9.2c0-5-4.2-9.1-9.2-9.1c-5.2,0-9.3,4.2-9.2,9.4
			C392.6,379.5,396.6,383.3,401.7,383.2z"/>
		<path class="st67" d="M367.6,428.3c5,0,9.2-4.1,9.2-9.1c0-5-4-9.2-9-9.3c-5-0.1-9.5,4.3-9.4,9.3
			C358.4,424.2,362.6,428.3,367.6,428.3z"/>
		<path class="st67" d="M309.5,438.5c5,0,9.2-4.1,9.3-9c0.1-5.1-4.2-9.3-9.4-9.3c-5.1,0-9.1,4.1-9.1,9.2
			C300.4,434.4,304.4,438.5,309.5,438.5z"/>
	</g>
</g>
</svg>
