<?xml version="1.0" encoding="utf-8"?>
<!-- Generator: Adobe Illustrator 22.1.0, SVG Export Plug-In . SVG Version: 6.00 Build 0)  -->
<svg version="1.1" id="Calque_1" xmlns="http://www.w3.org/2000/svg" xmlns:xlink="http://www.w3.org/1999/xlink" x="0px" y="0px"
	 viewBox="0 0 700 480" style="enable-background:new 0 0 700 480;" xml:space="preserve">
<style type="text/css">
	.st0{fill:#DAECFF;}
	.st1{fill:#FFD258;}
	.st2{fill:#FBCEC6;}
	.st3{fill:#ADCCFF;}
	.st4{fill:#FF5F7D;}
	.st5{fill:none;stroke:#000000;stroke-width:2;stroke-miterlimit:10;}
	.st6{fill:#FFFBF2;}
	.st7{fill:#73B7A4;}
	.st8{fill:none;stroke:#000000;stroke-miterlimit:10;}
	.st9{fill:#98BFFF;}
	.st10{fill:#FFD258;stroke:#000000;stroke-width:2;stroke-miterlimit:10;}
	.st11{fill:#FEF0E1;stroke:#070707;stroke-miterlimit:10;}
	.st12{fill:#D3A533;}
	.st13{fill:#FFB5C0;stroke:#020202;stroke-miterlimit:10;}
	.st14{fill:#FF8E9E;}
	.st15{fill:#FF8E9E;stroke:#000000;stroke-miterlimit:10;}
	.st16{fill:#EA5B70;}
	.st17{fill:#020202;}
	.st18{fill:#FFD258;stroke:#050505;stroke-width:0.5;stroke-miterlimit:10;}
	.st19{fill:#FEF0E1;stroke:#020202;stroke-width:0.5;stroke-miterlimit:10;}
	.st20{fill:#DDB143;}
	.st21{fill:#D6AF8B;}
	.st22{fill:#FFFBF2;stroke:#020202;stroke-width:2;stroke-miterlimit:10;}
	.st23{fill:#FF5F7D;stroke:#020202;stroke-width:2;stroke-miterlimit:10;}
	.st24{fill:#FFFFFF;}
	.st25{fill:#ADCCFF;stroke:#020202;stroke-width:2;stroke-miterlimit:10;}
	.st26{fill:#FFD258;stroke:#050505;stroke-width:2;stroke-miterlimit:10;}
	.st27{fill:#85AAE0;}
	.st28{fill:#C99E32;}
	.st29{fill:#FFCF47;stroke:#020202;stroke-miterlimit:10;}
	.st30{fill:#FF5F7D;stroke:#050505;stroke-width:2;stroke-miterlimit:10;}
	.st31{fill:#F36B7F;stroke:#000000;stroke-miterlimit:10;}
	.st32{fill:#DBA92C;}
	.st33{fill:#73B7A4;stroke:#020202;stroke-width:2;stroke-miterlimit:10;}
	.st34{fill:#FFCF47;stroke:#020202;stroke-width:2;stroke-miterlimit:10;}
	.st35{fill:#99C6B8;}
	.st36{fill:#E2B23B;}
	.st37{fill:#C11A3E;}
	.st38{fill:#FEF0E1;stroke:#020202;stroke-miterlimit:10;}
	.st39{fill:#ADCCFF;stroke:#020202;stroke-miterlimit:10;}
	.st40{fill:#FFD258;stroke:#0C0C0C;stroke-width:0.75;stroke-miterlimit:10;}
	.st41{fill:#ADCCFF;stroke:#050505;stroke-width:2;stroke-miterlimit:10;}
	.st42{fill:#73B7A4;stroke:#050505;stroke-width:2;stroke-miterlimit:10;}
	.st43{fill:#FFFBF2;stroke:#050505;stroke-width:2;stroke-miterlimit:10;}
	.st44{fill:#FEF0E1;stroke:#020202;stroke-width:2;stroke-miterlimit:10;}
	.st45{fill:#D8A830;}
	.st46{fill:#FF5F7D;stroke:#050505;stroke-miterlimit:10;}
	.st47{fill:#73B7A4;stroke:#020202;stroke-miterlimit:10;}
	.st48{fill:#E8D2BF;}
	.st49{fill:#FFD258;stroke:#0A0A0A;stroke-width:2;stroke-miterlimit:10;}
	.st50{fill:#D8AB3A;}
	.st51{fill:#FFD258;stroke:#050505;stroke-miterlimit:10;}
	.st52{fill:#FBCEC6;stroke:#070707;stroke-miterlimit:10;}
	.st53{fill:#D84161;}
	.st54{fill:#FFD258;stroke:#0A0A0A;stroke-miterlimit:10;}
	.st55{fill:#FFD258;stroke:#0A0A0A;stroke-width:3;stroke-miterlimit:10;}
	.st56{fill:none;stroke:#0A0A0A;stroke-width:2;stroke-miterlimit:10;}
	.st57{fill:#FF5F7D;stroke:#000000;stroke-miterlimit:10;}
	.st58{fill:#FFD258;stroke:#000000;stroke-miterlimit:10;}
	.st59{fill:#FF5F7D;stroke:#050505;stroke-width:0.75;stroke-miterlimit:10;}
	.st60{fill:#FEF0E1;stroke:#020202;stroke-width:0.75;stroke-miterlimit:10;}
	.st61{fill:#FF5F7D;stroke:#050505;stroke-width:0.25;stroke-miterlimit:10;}
	.st62{fill:#FFD258;stroke:#0A0A0A;stroke-width:0.75;stroke-miterlimit:10;}
	.st63{fill:#73B7A4;stroke:#020202;stroke-width:0.25;stroke-miterlimit:10;}
	.st64{fill:#FBCEC6;stroke:#020202;stroke-miterlimit:10;}
	.st65{fill:#73B7A4;stroke:#020202;stroke-width:0.75;stroke-miterlimit:10;}
	.st66{fill:#73B7A4;stroke:#070707;stroke-miterlimit:10;}
	.st67{fill:#FFFBF2;stroke:#070707;stroke-miterlimit:10;}
	.st68{fill:#E2B139;}
	.st69{fill:#FFFBF2;stroke:#020202;stroke-miterlimit:10;}
	.st70{fill:#ADCCFF;stroke:#020202;stroke-width:0.75;stroke-miterlimit:10;}
	.st71{fill:#FFFBF2;stroke:#020202;stroke-width:0.75;stroke-miterlimit:10;}
	.st72{fill:#FFD258;stroke:#050505;stroke-width:0.75;stroke-miterlimit:10;}
	.st73{fill:#FBCEC6;stroke:#020202;stroke-width:0.75;stroke-miterlimit:10;}
	.st74{fill:#73B7A4;stroke:#050505;stroke-miterlimit:10;}
	.st75{fill:#73B7A4;stroke:#050505;stroke-width:0.75;stroke-miterlimit:10;}
	.st76{fill:#E2C2A6;}
	.st77{fill:#DBC69E;}
	.st78{fill:#D39C94;}
	.st79{fill:#E0B344;}
	.st80{fill:#E0AE32;}
	.st81{fill:#4F9982;}
	.st82{fill:#DDBA9B;}
	.st83{fill:#FF5F7D;stroke:#000000;stroke-width:0.75;stroke-miterlimit:10;}
	.st84{fill:#FFD258;stroke:#000000;stroke-width:0.75;stroke-miterlimit:10;}
	.st85{fill:none;stroke:#000000;stroke-width:0.5;stroke-miterlimit:10;}
	.st86{opacity:0.43;fill:#7F3B48;}
	.st87{opacity:0.88;fill:#98BFFF;}
	.st88{opacity:0.75;fill:#FFFBF2;}
	.st89{opacity:0.88;fill:#719BD8;}
	.st90{opacity:0.75;fill:#EAD9B7;}
	.st91{fill:#FEF0E1;}
	.st92{fill:none;stroke:#070707;stroke-miterlimit:10;}
	.st93{fill:#C1962B;}
	.st94{fill:#D6B154;}
	.st95{fill:#5DA08B;}
	.st96{fill:#C6961E;}
</style>
<rect x="0.3" y="0" class="st0" width="699.7" height="480"/>
<g>
	<g>
		<g>
			<path class="st18" d="M431.2,320H286.4c-2.7,0-4.8,2.2-4.8,4.8l0,14.1c0,5.3,2,10.2,5.8,13.9c3.7,3.7,8.7,5.8,13.9,5.8h115.1
				c10.9,0,19.7-8.8,19.7-19.7v-14.1C436,322.2,433.9,320,431.2,320z"/>
			<path class="st19" d="M411.9,165.5c-3,0-6,0.3-9.2,0.9c-11-12.9-26.9-20.2-43.9-20.2c-32,0-57.9,26-57.9,57.9
				c0,2.7-2.2,4.8-4.8,4.8c-2.7,0-4.8-2.2-4.8-4.8c0-10.5,2.4-20.6,7.1-30.1c0.8-1.7,0.6-3.7-0.6-5.2c-1.2-1.5-3.1-2.1-4.9-1.7
				c-23.7,5.9-40.3,27.1-40.3,51.4c0,20.1,11.3,38.3,29.1,47.3l-0.1,39.6c0,1.3,0.5,2.5,1.4,3.4c0.9,0.9,2.1,1.4,3.4,1.4h144.8
				c2.7,0,4.8-2.2,4.8-4.8v-39.7c17.7-9,29-27.3,29-47.3C465,189.3,441.2,165.5,411.9,165.5z M323.2,280.3c-0.9,0.7-2,1.1-3.1,1.1
				c-1.4,0-2.8-0.6-3.7-1.8c-1.6-1.9-15.6-19.4-15.6-32c0-2.7,2.2-4.8,4.8-4.8s4.8,2.2,4.8,4.8c0,7,8.2,19.6,13.4,25.9
				C325.5,275.5,325.2,278.6,323.2,280.3z M363.6,276.5c0,2.7-2.2,4.8-4.8,4.8s-4.8-2.2-4.8-4.8v-29c0-2.7,2.2-4.8,4.8-4.8
				s4.8,2.2,4.8,4.8L363.6,276.5L363.6,276.5z M401.1,279.6c-1,1.2-2.3,1.8-3.7,1.8c-1.1,0-2.2-0.4-3.1-1.1
				c-2.1-1.7-2.4-4.7-0.7-6.8c5.2-6.3,13.4-18.9,13.4-25.9c0-2.7,2.2-4.8,4.8-4.8s4.8,2.2,4.8,4.8
				C416.7,260.2,402.7,277.7,401.1,279.6z"/>
			<g>
				<path class="st20" d="M430.4,320.2h-30.9c-4.7,12.8-9.2,25.7-13.5,38.6h29.5c10.9,0,19.7-8.8,19.7-19.7v-14.1
					C435.2,322.4,433.1,320.2,430.4,320.2z"/>
				<path class="st21" d="M445,178c-3.3,18.1-8.1,35.8-13.7,53.3c-8.5,26.7-18.5,53-28.2,79.3h27.3c2.7,0,4.8-2.2,4.8-4.8v-39.7
					c17.7-9,29-27.3,29-47.3C464.2,202.4,456.7,187.7,445,178z"/>
			</g>
		</g>
	</g>
</g>
</svg>
