<?xml version="1.0" encoding="utf-8"?>
<!-- Generator: Adobe Illustrator 22.1.0, SVG Export Plug-In . SVG Version: 6.00 Build 0)  -->
<svg version="1.1" id="Calque_1" xmlns="http://www.w3.org/2000/svg" xmlns:xlink="http://www.w3.org/1999/xlink" x="0px" y="0px"
	 viewBox="0 0 700 480" style="enable-background:new 0 0 700 480;" xml:space="preserve">
<style type="text/css">
	.st0{fill:#DAECFF;}
	.st1{fill:#FFD258;}
	.st2{fill:#FBCEC6;}
	.st3{fill:#ADCCFF;}
	.st4{fill:#FF5F7D;}
	.st5{fill:none;stroke:#000000;stroke-width:2;stroke-miterlimit:10;}
	.st6{fill:#FFFBF2;}
	.st7{fill:#73B7A4;}
	.st8{fill:none;stroke:#000000;stroke-miterlimit:10;}
	.st9{fill:#98BFFF;}
	.st10{fill:#FFD258;stroke:#000000;stroke-width:2;stroke-miterlimit:10;}
	.st11{fill:#FEF0E1;stroke:#070707;stroke-miterlimit:10;}
	.st12{fill:#D3A533;}
	.st13{fill:#FFB5C0;stroke:#020202;stroke-miterlimit:10;}
	.st14{fill:#FF8E9E;}
	.st15{fill:#FF8E9E;stroke:#000000;stroke-miterlimit:10;}
	.st16{fill:#EA5B70;}
	.st17{fill:#020202;}
	.st18{fill:#FFD258;stroke:#050505;stroke-width:0.5;stroke-miterlimit:10;}
	.st19{fill:#FEF0E1;stroke:#020202;stroke-width:0.5;stroke-miterlimit:10;}
	.st20{fill:#DDB143;}
	.st21{fill:#D6AF8B;}
	.st22{fill:#FFFBF2;stroke:#020202;stroke-width:2;stroke-miterlimit:10;}
	.st23{fill:#FF5F7D;stroke:#020202;stroke-width:2;stroke-miterlimit:10;}
	.st24{fill:#FFFFFF;}
	.st25{fill:#ADCCFF;stroke:#020202;stroke-width:2;stroke-miterlimit:10;}
	.st26{fill:#FFD258;stroke:#050505;stroke-width:2;stroke-miterlimit:10;}
	.st27{fill:#85AAE0;}
	.st28{fill:#C99E32;}
	.st29{fill:#FFCF47;stroke:#020202;stroke-miterlimit:10;}
	.st30{fill:#FF5F7D;stroke:#050505;stroke-width:2;stroke-miterlimit:10;}
	.st31{fill:#F36B7F;stroke:#000000;stroke-miterlimit:10;}
	.st32{fill:#DBA92C;}
	.st33{fill:#73B7A4;stroke:#020202;stroke-width:2;stroke-miterlimit:10;}
	.st34{fill:#FFCF47;stroke:#020202;stroke-width:2;stroke-miterlimit:10;}
	.st35{fill:#99C6B8;}
	.st36{fill:#E2B23B;}
	.st37{fill:#C11A3E;}
	.st38{fill:#FEF0E1;stroke:#020202;stroke-miterlimit:10;}
	.st39{fill:#ADCCFF;stroke:#020202;stroke-miterlimit:10;}
	.st40{fill:#FFD258;stroke:#0C0C0C;stroke-width:0.75;stroke-miterlimit:10;}
	.st41{fill:#ADCCFF;stroke:#050505;stroke-width:2;stroke-miterlimit:10;}
	.st42{fill:#73B7A4;stroke:#050505;stroke-width:2;stroke-miterlimit:10;}
	.st43{fill:#FFFBF2;stroke:#050505;stroke-width:2;stroke-miterlimit:10;}
	.st44{fill:#FEF0E1;stroke:#020202;stroke-width:2;stroke-miterlimit:10;}
	.st45{fill:#D8A830;}
	.st46{fill:#FF5F7D;stroke:#050505;stroke-miterlimit:10;}
	.st47{fill:#73B7A4;stroke:#020202;stroke-miterlimit:10;}
	.st48{fill:#E8D2BF;}
	.st49{fill:#FFD258;stroke:#0A0A0A;stroke-width:2;stroke-miterlimit:10;}
	.st50{fill:#D8AB3A;}
	.st51{fill:#FFD258;stroke:#050505;stroke-miterlimit:10;}
	.st52{fill:#FBCEC6;stroke:#070707;stroke-miterlimit:10;}
	.st53{fill:#D84161;}
	.st54{fill:#FFD258;stroke:#0A0A0A;stroke-miterlimit:10;}
	.st55{fill:#FFD258;stroke:#0A0A0A;stroke-width:3;stroke-miterlimit:10;}
	.st56{fill:none;stroke:#0A0A0A;stroke-width:2;stroke-miterlimit:10;}
	.st57{fill:#FF5F7D;stroke:#000000;stroke-miterlimit:10;}
	.st58{fill:#FFD258;stroke:#000000;stroke-miterlimit:10;}
	.st59{fill:#FF5F7D;stroke:#050505;stroke-width:0.75;stroke-miterlimit:10;}
	.st60{fill:#FEF0E1;stroke:#020202;stroke-width:0.75;stroke-miterlimit:10;}
	.st61{fill:#FF5F7D;stroke:#050505;stroke-width:0.25;stroke-miterlimit:10;}
	.st62{fill:#FFD258;stroke:#0A0A0A;stroke-width:0.75;stroke-miterlimit:10;}
	.st63{fill:#73B7A4;stroke:#020202;stroke-width:0.25;stroke-miterlimit:10;}
	.st64{fill:#FBCEC6;stroke:#020202;stroke-miterlimit:10;}
	.st65{fill:#73B7A4;stroke:#020202;stroke-width:0.75;stroke-miterlimit:10;}
	.st66{fill:#73B7A4;stroke:#070707;stroke-miterlimit:10;}
	.st67{fill:#FFFBF2;stroke:#070707;stroke-miterlimit:10;}
	.st68{fill:#E2B139;}
	.st69{fill:#FFFBF2;stroke:#020202;stroke-miterlimit:10;}
	.st70{fill:#ADCCFF;stroke:#020202;stroke-width:0.75;stroke-miterlimit:10;}
	.st71{fill:#FFFBF2;stroke:#020202;stroke-width:0.75;stroke-miterlimit:10;}
	.st72{fill:#FFD258;stroke:#050505;stroke-width:0.75;stroke-miterlimit:10;}
	.st73{fill:#FBCEC6;stroke:#020202;stroke-width:0.75;stroke-miterlimit:10;}
	.st74{fill:#73B7A4;stroke:#050505;stroke-miterlimit:10;}
	.st75{fill:#73B7A4;stroke:#050505;stroke-width:0.75;stroke-miterlimit:10;}
	.st76{fill:#E2C2A6;}
	.st77{fill:#DBC69E;}
	.st78{fill:#D39C94;}
	.st79{fill:#E0B344;}
	.st80{fill:#E0AE32;}
	.st81{fill:#4F9982;}
	.st82{fill:#DDBA9B;}
	.st83{fill:#FF5F7D;stroke:#000000;stroke-width:0.75;stroke-miterlimit:10;}
	.st84{fill:#FFD258;stroke:#000000;stroke-width:0.75;stroke-miterlimit:10;}
	.st85{fill:none;stroke:#000000;stroke-width:0.5;stroke-miterlimit:10;}
	.st86{opacity:0.43;fill:#7F3B48;}
	.st87{opacity:0.88;fill:#98BFFF;}
	.st88{opacity:0.75;fill:#FFFBF2;}
	.st89{opacity:0.88;fill:#719BD8;}
	.st90{opacity:0.75;fill:#EAD9B7;}
	.st91{fill:#FEF0E1;}
	.st92{fill:none;stroke:#070707;stroke-miterlimit:10;}
	.st93{fill:#C1962B;}
	.st94{fill:#D6B154;}
	.st95{fill:#5DA08B;}
	.st96{fill:#C6961E;}
</style>
<rect x="2" y="-1.1" class="st2" width="700" height="477.8"/>
<g id="zjS0Gt.tif">
	<g>
		<path class="st51" d="M297.4,181.8c26.3,0,52.3,0,78.5,0c0-1,0-1.9,0-2.8c0-7.5,0-14.9,0-22.4c0.1-16.4,12.8-29.3,29.1-29.6
			c16.1-0.3,29.4,12.2,30.2,28.3c0.2,4.6-2.4,8.7-6.2,9.6c-4.4,1.1-8.5-0.7-10.4-4.7c-0.5-1.1-0.7-2.4-0.8-3.6
			c-0.3-6-4.4-11-10-12.1c-5.6-1-11.2,1.9-13.5,7.4c-0.7,1.6-0.9,3.5-0.9,5.3c-0.1,31.2,0,62.4,0,93.6c0,5.9-4.2,9.8-9.8,9.2
			c-4.2-0.4-7.5-3.9-7.6-8.2c-0.1-4.4,0-8.8,0-13.3c-26.2,0-52.2,0-78.5,0c0,4,0,8.1,0,12.1c0,1.3-0.1,2.7-0.6,3.9
			c-1.6,4.1-5.4,6.1-9.8,5.4c-3.9-0.7-7-4.3-7-8.5c-0.1-7.6,0-15.3,0-22.9c0-24,0-48,0-72c0-13.9,9.2-25.6,22.6-28.9
			c18.5-4.6,36.8,9.6,36.7,28.6c0,5-3.6,8.7-8.5,8.9c-4.7,0.2-8.7-3.7-9-8.5c-0.4-7.6-5.5-12.5-12.7-12.3
			c-6.7,0.2-11.7,5.7-11.7,12.9C297.4,165.5,297.4,173.5,297.4,181.8z M297.5,221c26.3,0,52.2,0,78.3,0c0-7.2,0-14.3,0-21.5
			c-26.1,0-52.1,0-78.3,0C297.5,206.7,297.5,213.8,297.5,221z"/>
		<path class="st39" d="M323.3,290.7c-5.6,4.5-11.9,7.8-18.8,9.5c-14.8,3.7-29.1,2.6-42.7-4.7c-5.4-2.9-10-6.9-13.6-11.8
			c-3.4-4.7-2.8-9.8,1.5-12.9c4-2.9,9.2-1.8,12.6,2.7c5.6,7.2,13.4,10.2,22,11.1c7.6,0.8,15.1-0.1,22.1-3.5c3.9-1.9,7.2-4.7,9.8-8.2
			c3.5-4.8,10.5-5,13.9-0.3c5.6,7.7,13.6,11,22.6,12c7.7,0.9,15.2-0.1,22.3-3.6c3.9-1.9,7.1-4.6,9.7-8c3.6-4.9,10.5-5.1,14.1-0.3
			c5.6,7.7,13.6,10.9,22.6,11.9c8,0.9,15.9,0.1,22.9-4c3.3-1.9,6.3-4.6,8.8-7.5c3.4-3.8,8.3-5,12.2-2.4c4.2,2.9,5.3,8.1,2.1,12.5
			c-6.6,9.3-15.8,14.8-26.7,17.4c-17.2,4-33.4,1.8-48-9c-0.3-0.2-0.6-0.3-0.8-0.5C372.6,306.7,340.9,305.3,323.3,290.7z"/>
		<path class="st39" d="M391.8,330c-18.9,15.3-49.9,15.1-67.9,0.5c-5.6,2.8-10.8,6.2-16.5,7.9c-20,6.1-38.7,3.9-54.9-10.6
			c-2.1-1.9-3.9-4.1-5.4-6.5c-2.5-4.1-1.2-8.9,2.7-11.6c3.6-2.5,8.9-1.7,11.6,2c5.9,8.1,14.3,11.3,23.8,12.1
			c7.6,0.7,15.2-0.2,21.9-4.3c3.3-2,6.3-4.8,8.9-7.8c3.9-4.4,10.5-4.8,14,0c4.9,6.6,11.6,10,19.4,11.5c8.8,1.6,17.4,0.8,25.5-3.2
			c3.9-1.9,7.1-4.6,9.6-8c3.6-4.8,10.5-5.1,13.9-0.4c5.9,8,14.2,11.3,23.6,12.1c9.2,0.8,18.1-0.7,25.7-6.4c1.9-1.4,3.6-3.2,5.1-5.1
			c3.3-4.1,8.4-5.2,12.3-2.5c4.3,3.1,5.2,8.2,1.9,12.7c-6.3,8.7-14.9,14.1-25.2,16.7C424,343.9,407.2,341.4,391.8,330z"/>
	</g>
</g>
</svg>
