<?xml version="1.0" encoding="utf-8"?>
<!-- Generator: Adobe Illustrator 22.1.0, SVG Export Plug-In . SVG Version: 6.00 Build 0)  -->
<svg version="1.1" id="Calque_1" xmlns="http://www.w3.org/2000/svg" xmlns:xlink="http://www.w3.org/1999/xlink" x="0px" y="0px"
	 viewBox="0 0 480 480" style="enable-background:new 0 0 480 480;" xml:space="preserve">
<style type="text/css">
	.st0{fill:#FFD258;}
	.st1{fill:#FF5F7D;}
	.st2{fill:#DAECFF;}
	.st3{fill:none;stroke:#000000;stroke-miterlimit:10;}
	.st4{fill:#F36B7F;stroke:#000000;stroke-miterlimit:10;}
	.st5{fill:none;stroke:#000000;stroke-width:0.5;stroke-miterlimit:10;}
	.st6{fill:#FFCF47;stroke:#020202;stroke-miterlimit:10;}
	.st7{fill:#D6B154;}
	.st8{fill:#73B7A4;stroke:#020202;stroke-miterlimit:10;}
	.st9{fill:#5DA08B;}
	.st10{fill:#FFD258;stroke:#0A0A0A;stroke-width:0.75;stroke-miterlimit:10;}
	.st11{fill:#FEF0E1;}
	.st12{fill:#ADCCFF;}
	.st13{fill:none;stroke:#000000;stroke-width:2;stroke-miterlimit:10;}
	.st14{fill:#FFFBF2;}
	.st15{fill:#73B7A4;}
	.st16{fill:#98BFFF;}
	.st17{fill:#FFD258;stroke:#000000;stroke-width:2;stroke-miterlimit:10;}
	.st18{opacity:0.88;fill:#98BFFF;}
	.st19{opacity:0.75;fill:#FFFBF2;}
	.st20{opacity:0.88;fill:#719BD8;}
	.st21{opacity:0.75;fill:#EAD9B7;}
	.st22{fill:none;stroke:#070707;stroke-miterlimit:10;}
	.st23{fill:#FEF0E1;stroke:#070707;stroke-miterlimit:10;}
	.st24{opacity:0.43;fill:#7F3B48;}
	.st25{fill:#D3A533;}
	.st26{fill:#C1962B;}
	.st27{fill:#FFB5C0;stroke:#020202;stroke-miterlimit:10;}
	.st28{fill:#FF8E9E;}
	.st29{fill:#FF8E9E;stroke:#000000;stroke-miterlimit:10;}
	.st30{fill:#EA5B70;}
	.st31{fill:#020202;}
	.st32{fill:#FFD258;stroke:#050505;stroke-width:0.5;stroke-miterlimit:10;}
	.st33{fill:#FEF0E1;stroke:#020202;stroke-width:0.5;stroke-miterlimit:10;}
	.st34{fill:#DDB143;}
	.st35{fill:#D6AF8B;}
	.st36{fill:#FBCEC6;}
	.st37{fill:#FFFBF2;stroke:#020202;stroke-width:2;stroke-miterlimit:10;}
	.st38{fill:#FF5F7D;stroke:#020202;stroke-width:2;stroke-miterlimit:10;}
	.st39{fill:#FFFFFF;}
	.st40{fill:#ADCCFF;stroke:#020202;stroke-width:2;stroke-miterlimit:10;}
	.st41{fill:#FFD258;stroke:#050505;stroke-width:2;stroke-miterlimit:10;}
	.st42{fill:#85AAE0;}
	.st43{fill:#C99E32;}
	.st44{fill:#FF5F7D;stroke:#050505;stroke-width:2;stroke-miterlimit:10;}
	.st45{fill:#DBA92C;}
	.st46{fill:#73B7A4;stroke:#020202;stroke-width:2;stroke-miterlimit:10;}
	.st47{fill:#FFCF47;stroke:#020202;stroke-width:2;stroke-miterlimit:10;}
	.st48{fill:#99C6B8;}
	.st49{fill:#E2B23B;}
	.st50{fill:#C11A3E;}
	.st51{fill:#FEF0E1;stroke:#020202;stroke-miterlimit:10;}
	.st52{fill:#ADCCFF;stroke:#020202;stroke-miterlimit:10;}
	.st53{fill:#FFD258;stroke:#0C0C0C;stroke-width:0.75;stroke-miterlimit:10;}
	.st54{fill:#ADCCFF;stroke:#050505;stroke-width:2;stroke-miterlimit:10;}
	.st55{fill:#73B7A4;stroke:#050505;stroke-width:2;stroke-miterlimit:10;}
	.st56{fill:#FFFBF2;stroke:#050505;stroke-width:2;stroke-miterlimit:10;}
	.st57{fill:#FEF0E1;stroke:#020202;stroke-width:2;stroke-miterlimit:10;}
	.st58{fill:#D8A830;}
	.st59{fill:#FF5F7D;stroke:#050505;stroke-miterlimit:10;}
	.st60{fill:#E8D2BF;}
	.st61{fill:#FFD258;stroke:#0A0A0A;stroke-width:2;stroke-miterlimit:10;}
	.st62{fill:#D8AB3A;}
	.st63{fill:#FFD258;stroke:#050505;stroke-miterlimit:10;}
	.st64{fill:#FBCEC6;stroke:#070707;stroke-miterlimit:10;}
	.st65{fill:#D84161;}
	.st66{fill:#FFD258;stroke:#0A0A0A;stroke-miterlimit:10;}
	.st67{fill:#FFD258;stroke:#0A0A0A;stroke-width:3;stroke-miterlimit:10;}
	.st68{fill:none;stroke:#0A0A0A;stroke-width:3;stroke-miterlimit:10;}
	.st69{fill:none;stroke:#0A0A0A;stroke-width:2;stroke-miterlimit:10;}
	.st70{fill:#FF5F7D;stroke:#000000;stroke-miterlimit:10;}
	.st71{fill:#FFD258;stroke:#000000;stroke-miterlimit:10;}
	.st72{fill:#FF5F7D;stroke:#050505;stroke-width:0.75;stroke-miterlimit:10;}
	.st73{fill:#FEF0E1;stroke:#020202;stroke-width:0.75;stroke-miterlimit:10;}
	.st74{fill:#FF5F7D;stroke:#050505;stroke-width:0.25;stroke-miterlimit:10;}
	.st75{fill:#73B7A4;stroke:#020202;stroke-width:0.25;stroke-miterlimit:10;}
	.st76{fill:#FBCEC6;stroke:#020202;stroke-miterlimit:10;}
	.st77{fill:#73B7A4;stroke:#020202;stroke-width:0.75;stroke-miterlimit:10;}
	.st78{fill:#73B7A4;stroke:#070707;stroke-miterlimit:10;}
	.st79{fill:#FFFBF2;stroke:#070707;stroke-miterlimit:10;}
	.st80{fill:#E2B139;}
	.st81{fill:#FFFBF2;stroke:#020202;stroke-miterlimit:10;}
	.st82{fill:#ADCCFF;stroke:#020202;stroke-width:0.75;stroke-miterlimit:10;}
	.st83{fill:#FFFBF2;stroke:#020202;stroke-width:0.75;stroke-miterlimit:10;}
	.st84{fill:#FFD258;stroke:#050505;stroke-width:0.75;stroke-miterlimit:10;}
	.st85{fill:#FBCEC6;stroke:#020202;stroke-width:0.75;stroke-miterlimit:10;}
	.st86{fill:#73B7A4;stroke:#050505;stroke-miterlimit:10;}
	.st87{fill:#73B7A4;stroke:#050505;stroke-width:0.75;stroke-miterlimit:10;}
	.st88{fill:#E2C2A6;}
	.st89{fill:#DBC69E;}
	.st90{fill:#D39C94;}
	.st91{fill:#E0B344;}
	.st92{fill:#E0AE32;}
	.st93{fill:#4F9982;}
	.st94{fill:#DDBA9B;}
	.st95{fill:#C6961E;}
	.st96{fill:#FF5F7D;stroke:#000000;stroke-width:0.75;stroke-miterlimit:10;}
	.st97{fill:#FFD258;stroke:#000000;stroke-width:0.75;stroke-miterlimit:10;}
</style>
<path class="st2" d="M360,432.7H126.8c-43.5,0-79.2-35.6-79.2-79.2V120.3c0-43.5,35.6-79.2,79.2-79.2H360
	c43.5,0,79.2,35.6,79.2,79.2v233.2C439.2,397.1,403.6,432.7,360,432.7z"/>
<g id="wvpB8W.tif">
	<g>
		<path class="st59" d="M294.7,152.3c1.4,5.6,2.6,10,3.4,14.4c0.2,1.4-0.7,3.4-1.8,4.5c-6.5,6.9-14.8,10.7-23.6,13.9
			c-6.3,2.3-12.3,5.7-18.3,8.9c-1.7,0.9-3,2.6-5,4.3c14.7,10.4,31.4,13.1,48.2,18c1.8-7,3.5-13.5,5.3-20.1c1.6-6.1,3-12.2,5-18.1
			c0.6-1.6,3.3-3.5,5-3.5c9.1,0.3,17.4,3.3,24.6,9c7.8,6.2,9.9,16.2,4.2,23.6c-21.9,28.6-26.7,62.3-29.3,96.7
			c-0.6,7.9-0.6,15.9-0.7,23.8c-0.1,5.1-2.9,7.8-7.7,8.5c-2.7,0.4-5.5,0.7-8.3,0.6c-9.5-0.5-11-2.2-13.3-11.4
			c-3.1-12.7-7-25.3-10.1-38c-0.6-2.6-0.4-5.9,0.6-8.3c5.9-14.6,12.2-29,18.3-43.4c0.4-1,0.5-2.1,0.8-3.2c-7.6-2-14.9-3.9-22.1-6.1
			c-3.9-1.2-7.6-2.9-11.3-4.6c-7.3-3.4-11.7-8.7-11-17.4c0.4-4.6,0.4-9.3-0.4-13.8c-1.3-7.7,2.4-12.3,8.4-15.9
			c1.1-0.7,2.1-1.4,4.6-3c-5.2,0.7-8.8,1.2-13.1,1.8c0-6.3,0-12.3,0-19.4C262.8,153.6,279.1,152.9,294.7,152.3z"/>
		<path class="st59" d="M218.8,154.2c-0.5,9.8-0.5,20.1-1.7,30.4c-0.5,4.1-3.6,7.9-5.9,12.6c9.4,7,8.4,18.5,9.7,29.2
			c1.5,12.5,2.6,25,3.9,37.5c2,19.2-0.2,38-5,56.6c-0.3,1.3-0.7,2.5-1.1,3.7c-4.5,13-7.4,15.3-21.3,15.6c-5.4,0.1-10.7-0.2-16.1-0.3
			c-5.8,0-9.7-2.7-12.4-7.8c-7.4-14.1-11-29.3-10.3-44.9c1-20.1,3.5-40.1,5.3-60.2c0.2-1.7,0.7-3.3,0.6-4.9
			c-0.8-11.3,4.9-18.9,14-24.6c0.6-0.4,1.1-0.9,2.5-2.2c-14.5-7.5-12.8-20-10.9-32.8c0.4-2.8,0.1-5.8,0.1-7.8
			C186.8,154.2,202.5,154.2,218.8,154.2z M208,175.9c-0.3-0.3-0.6-0.5-0.9-0.8c-6.5,0-13,0-19.9,0c7,10.6,8.8,10.8,17.1,3.3
			C205.5,177.4,206.8,176.7,208,175.9z"/>
		<path class="st39" d="M164.1,243.8c-3.7-15.4,8.2-23.1,20-30.3c13.8-8.3,9.8-8.7,20.9,2c18.5,17.9,16,13,14,39.6
			c-0.5,6.1-2.5,12.3-4.6,18.1c-3.2,8.9-9.6,14.4-19.3,15.1c-10.2,0.8-18.5-2.8-24.2-11.5C164.6,267.4,163.5,256.6,164.1,243.8z"/>
		<path class="st36" d="M208,175.9c-1.2,0.8-2.6,1.5-3.6,2.4c-8.4,7.6-10.1,7.3-17.1-3.3c6.9,0,13.4,0,19.9,0
			C207.4,175.4,207.7,175.6,208,175.9z"/>
	</g>
</g>
<path class="st36" d="M164.2,243.8c-0.6,12.8,0.5,23.6,6.8,33.1c5.7,8.7,14,12.3,24.2,11.5c9.7-0.8,16.1-6.2,19.3-15.1
	c2.1-5.9,4.1-12,4.6-18.1c2-26.6,4.5-21.7-14-39.6c-11.1-10.8-7.1-10.3-20.9-2C172.4,220.6,160.5,228.4,164.2,243.8z"/>
</svg>
