<?xml version="1.0" encoding="utf-8"?>
<!-- Generator: Adobe Illustrator 22.1.0, SVG Export Plug-In . SVG Version: 6.00 Build 0)  -->
<svg version="1.1" id="Calque_1" xmlns="http://www.w3.org/2000/svg" xmlns:xlink="http://www.w3.org/1999/xlink" x="0px" y="0px"
	 viewBox="0 0 700 480" style="enable-background:new 0 0 700 480;" xml:space="preserve">
<style type="text/css">
	.st0{fill:#DAECFF;}
	.st1{fill:#FFD258;}
	.st2{fill:#FBCEC6;}
	.st3{fill:#ADCCFF;}
	.st4{fill:#FF5F7D;}
	.st5{fill:none;stroke:#000000;stroke-width:2;stroke-miterlimit:10;}
	.st6{fill:#FFFBF2;}
	.st7{fill:#73B7A4;}
	.st8{fill:none;stroke:#000000;stroke-miterlimit:10;}
	.st9{fill:#98BFFF;}
	.st10{fill:#FFD258;stroke:#000000;stroke-width:2;stroke-miterlimit:10;}
	.st11{fill:#FEF0E1;stroke:#070707;stroke-miterlimit:10;}
	.st12{fill:#D3A533;}
	.st13{fill:#FFB5C0;stroke:#020202;stroke-miterlimit:10;}
	.st14{fill:#FF8E9E;}
	.st15{fill:#FF8E9E;stroke:#000000;stroke-miterlimit:10;}
	.st16{fill:#EA5B70;}
	.st17{fill:#020202;}
	.st18{fill:#FFD258;stroke:#050505;stroke-width:0.5;stroke-miterlimit:10;}
	.st19{fill:#FEF0E1;stroke:#020202;stroke-width:0.5;stroke-miterlimit:10;}
	.st20{fill:#DDB143;}
	.st21{fill:#D6AF8B;}
	.st22{fill:#FFFBF2;stroke:#020202;stroke-width:2;stroke-miterlimit:10;}
	.st23{fill:#FF5F7D;stroke:#020202;stroke-width:2;stroke-miterlimit:10;}
	.st24{fill:#FFFFFF;}
	.st25{fill:#ADCCFF;stroke:#020202;stroke-width:2;stroke-miterlimit:10;}
	.st26{fill:#FFD258;stroke:#050505;stroke-width:2;stroke-miterlimit:10;}
	.st27{fill:#85AAE0;}
	.st28{fill:#C99E32;}
	.st29{fill:#FFCF47;stroke:#020202;stroke-miterlimit:10;}
	.st30{fill:#FF5F7D;stroke:#050505;stroke-width:2;stroke-miterlimit:10;}
	.st31{fill:#F36B7F;stroke:#000000;stroke-miterlimit:10;}
	.st32{fill:#DBA92C;}
	.st33{fill:#73B7A4;stroke:#020202;stroke-width:2;stroke-miterlimit:10;}
	.st34{fill:#FFCF47;stroke:#020202;stroke-width:2;stroke-miterlimit:10;}
	.st35{fill:#99C6B8;}
	.st36{fill:#E2B23B;}
	.st37{fill:#C11A3E;}
	.st38{fill:#FEF0E1;stroke:#020202;stroke-miterlimit:10;}
	.st39{fill:#ADCCFF;stroke:#020202;stroke-miterlimit:10;}
	.st40{fill:#FFD258;stroke:#0C0C0C;stroke-width:0.75;stroke-miterlimit:10;}
	.st41{fill:#ADCCFF;stroke:#050505;stroke-width:2;stroke-miterlimit:10;}
	.st42{fill:#73B7A4;stroke:#050505;stroke-width:2;stroke-miterlimit:10;}
	.st43{fill:#FFFBF2;stroke:#050505;stroke-width:2;stroke-miterlimit:10;}
	.st44{fill:#FEF0E1;stroke:#020202;stroke-width:2;stroke-miterlimit:10;}
	.st45{fill:#D8A830;}
	.st46{fill:#FF5F7D;stroke:#050505;stroke-miterlimit:10;}
	.st47{fill:#73B7A4;stroke:#020202;stroke-miterlimit:10;}
	.st48{fill:#E8D2BF;}
	.st49{fill:#FFD258;stroke:#0A0A0A;stroke-width:2;stroke-miterlimit:10;}
	.st50{fill:#D8AB3A;}
	.st51{fill:#FFD258;stroke:#050505;stroke-miterlimit:10;}
	.st52{fill:#FBCEC6;stroke:#070707;stroke-miterlimit:10;}
	.st53{fill:#D84161;}
	.st54{fill:#FFD258;stroke:#0A0A0A;stroke-miterlimit:10;}
	.st55{fill:#FFD258;stroke:#0A0A0A;stroke-width:3;stroke-miterlimit:10;}
	.st56{fill:none;stroke:#0A0A0A;stroke-width:2;stroke-miterlimit:10;}
	.st57{fill:#FF5F7D;stroke:#000000;stroke-miterlimit:10;}
	.st58{fill:#FFD258;stroke:#000000;stroke-miterlimit:10;}
	.st59{fill:#FF5F7D;stroke:#050505;stroke-width:0.75;stroke-miterlimit:10;}
	.st60{fill:#FEF0E1;stroke:#020202;stroke-width:0.75;stroke-miterlimit:10;}
	.st61{fill:#FF5F7D;stroke:#050505;stroke-width:0.25;stroke-miterlimit:10;}
	.st62{fill:#FFD258;stroke:#0A0A0A;stroke-width:0.75;stroke-miterlimit:10;}
	.st63{fill:#73B7A4;stroke:#020202;stroke-width:0.25;stroke-miterlimit:10;}
	.st64{fill:#FBCEC6;stroke:#020202;stroke-miterlimit:10;}
	.st65{fill:#73B7A4;stroke:#020202;stroke-width:0.75;stroke-miterlimit:10;}
	.st66{fill:#73B7A4;stroke:#070707;stroke-miterlimit:10;}
	.st67{fill:#FFFBF2;stroke:#070707;stroke-miterlimit:10;}
	.st68{fill:#E2B139;}
	.st69{fill:#FFFBF2;stroke:#020202;stroke-miterlimit:10;}
	.st70{fill:#ADCCFF;stroke:#020202;stroke-width:0.75;stroke-miterlimit:10;}
	.st71{fill:#FFFBF2;stroke:#020202;stroke-width:0.75;stroke-miterlimit:10;}
	.st72{fill:#FFD258;stroke:#050505;stroke-width:0.75;stroke-miterlimit:10;}
	.st73{fill:#FBCEC6;stroke:#020202;stroke-width:0.75;stroke-miterlimit:10;}
	.st74{fill:#73B7A4;stroke:#050505;stroke-miterlimit:10;}
	.st75{fill:#73B7A4;stroke:#050505;stroke-width:0.75;stroke-miterlimit:10;}
	.st76{fill:#E2C2A6;}
	.st77{fill:#DBC69E;}
	.st78{fill:#D39C94;}
	.st79{fill:#E0B344;}
	.st80{fill:#E0AE32;}
	.st81{fill:#4F9982;}
	.st82{fill:#DDBA9B;}
	.st83{fill:#FF5F7D;stroke:#000000;stroke-width:0.75;stroke-miterlimit:10;}
	.st84{fill:#FFD258;stroke:#000000;stroke-width:0.75;stroke-miterlimit:10;}
	.st85{fill:none;stroke:#000000;stroke-width:0.5;stroke-miterlimit:10;}
	.st86{opacity:0.43;fill:#7F3B48;}
	.st87{opacity:0.88;fill:#98BFFF;}
	.st88{opacity:0.75;fill:#FFFBF2;}
	.st89{opacity:0.88;fill:#719BD8;}
	.st90{opacity:0.75;fill:#EAD9B7;}
	.st91{fill:#FEF0E1;}
	.st92{fill:none;stroke:#070707;stroke-miterlimit:10;}
	.st93{fill:#C1962B;}
	.st94{fill:#D6B154;}
	.st95{fill:#5DA08B;}
	.st96{fill:#C6961E;}
	.st97{fill:#FF5F7D;stroke:#FFFFFF;stroke-miterlimit:10;}
	.st98{fill:#FF5F7D;stroke:#070707;stroke-miterlimit:10;}
</style>
<rect x="-0.2" y="0.1" class="st0" width="699.7" height="480"/>
<g id="tdY7Hn.tif">
	<g>
		<path class="st62" d="M244.8,216.1c0-35,0.1-70-0.1-105c0-5.7,1.6-7.4,7.4-7.4c58.3,0.2,116.5,0.2,174.8,0c5.8,0,7.3,1.8,7.3,7.4
			c-0.2,70.5-0.2,140.9,0,211.4c0,5.7-1.6,7.4-7.4,7.4c-58.3-0.2-116.5-0.2-174.8,0c-5.8,0-7.4-1.8-7.3-7.4
			C244.9,287,244.8,251.6,244.8,216.1z M426,322.3c0-70.8,0-140.5,0-210.9c-3,0-5.5,0-8,0c-52.5,0-105,0.1-157.5-0.2
			c-6.7,0-8.4,1.9-8.4,8.5c0.2,64.7,0.2,129.4,0,194.1c0,6.5,1.4,8.6,8.3,8.6c52.5-0.3,105-0.2,157.5-0.2
			C420.4,322.3,422.9,322.3,426,322.3z"/>
		<path class="st44" d="M344.1,130.3c20.9,0,41.5,0,62.8,0c0,27.1,0,54.1,0,81.7c-20.6,0-41.4,0-62.8,0
			C344.1,185.1,344.1,157.9,344.1,130.3z"/>
		<path class="st44" d="M334.8,221.6c0,27.3,0,54.3,0,81.7c-21,0-41.7,0-63,0c0-27.1,0-54.1,0-81.7
			C292.4,221.6,313.2,221.6,334.8,221.6z"/>
		<path class="st44" d="M407.1,303.4c-21.3,0-41.9,0-63,0c0-27.3,0-54.4,0-81.9c20.9,0,41.7,0,63,0
			C407.1,248.6,407.1,275.7,407.1,303.4z"/>
		<path class="st44" d="M334.8,212.3c-21.4,0-42,0-63.1,0c0-27.4,0-54.4,0-81.9c21.1,0,41.9,0,63.1,0
			C334.8,157.7,334.8,184.8,334.8,212.3z M322.9,173.8c-10.4-1.5-15.1-8.9-19.6-17.2c-0.6,3.3-1.2,6.6-1.9,10.4
			c-3.8-0.8-7.2-1.6-11.9-2.6c2.3,3.3,3.9,5.6,5.8,8.5c-5,1.6-9.6,2.9-14.1,4.3c0.1,0.5,0.2,0.9,0.2,1.4c4.9,0.5,9.8,0.9,14.7,1.4
			c0,2.8,0,4.9,0,7.2c2.3-1.3,4.1-2.3,6.5-3.7c0.4,5.2,0.8,9.4,1.1,13.7c0.5,0,0.9,0,1.4,0c1.8-4.4,3.6-8.8,5.6-13.7
			c4.8,2.7,9,5.1,13.3,7.6c0.3-0.4,0.5-0.7,0.8-1.1c-3.5-4.3-7.1-8.6-11-13.4C317.5,175.6,320.2,174.7,322.9,173.8z"/>
		<path class="st24" d="M322.9,173.8c-2.7,0.9-5.4,1.7-8.9,2.9c3.9,4.8,7.5,9.1,11,13.4c-0.3,0.4-0.5,0.7-0.8,1.1
			c-4.3-2.4-8.5-4.8-13.3-7.6c-2,4.9-3.8,9.3-5.6,13.7c-0.5,0-0.9,0-1.4,0c-0.3-4.3-0.7-8.6-1.1-13.7c-2.4,1.4-4.2,2.4-6.5,3.7
			c0-2.4,0-4.5,0-7.2c-4.9-0.5-9.8-0.9-14.7-1.4c-0.1-0.5-0.2-0.9-0.2-1.4c4.5-1.4,9-2.8,14.1-4.3c-2-2.9-3.6-5.2-5.8-8.5
			c4.6,1,8.1,1.8,11.9,2.6c0.7-3.8,1.3-7.1,1.9-10.4C307.8,165,312.5,172.3,322.9,173.8z"/>
	</g>
</g>
</svg>
