<?xml version="1.0" encoding="utf-8"?>
<!-- Generator: Adobe Illustrator 22.1.0, SVG Export Plug-In . SVG Version: 6.00 Build 0)  -->
<svg version="1.1" id="Calque_1" xmlns="http://www.w3.org/2000/svg" xmlns:xlink="http://www.w3.org/1999/xlink" x="0px" y="0px"
	 viewBox="0 0 480 480" style="enable-background:new 0 0 480 480;" xml:space="preserve">
<style type="text/css">
	.st0{fill:#FFD258;}
	.st1{fill:#FF5F7D;}
	.st2{fill:#DAECFF;}
	.st3{fill:none;stroke:#000000;stroke-miterlimit:10;}
	.st4{fill:#F36B7F;stroke:#000000;stroke-miterlimit:10;}
	.st5{fill:none;stroke:#000000;stroke-width:0.5;stroke-miterlimit:10;}
	.st6{fill:#FFCF47;stroke:#020202;stroke-miterlimit:10;}
	.st7{fill:#D6B154;}
	.st8{fill:#73B7A4;stroke:#020202;stroke-miterlimit:10;}
	.st9{fill:#5DA08B;}
	.st10{fill:#FFD258;stroke:#0A0A0A;stroke-width:0.75;stroke-miterlimit:10;}
	.st11{fill:#FEF0E1;}
	.st12{fill:#ADCCFF;}
	.st13{fill:none;stroke:#000000;stroke-width:2;stroke-miterlimit:10;}
	.st14{fill:#FFFBF2;}
	.st15{fill:#73B7A4;}
	.st16{fill:#98BFFF;}
	.st17{fill:#FFD258;stroke:#000000;stroke-width:2;stroke-miterlimit:10;}
	.st18{opacity:0.88;fill:#98BFFF;}
	.st19{opacity:0.75;fill:#FFFBF2;}
	.st20{opacity:0.88;fill:#719BD8;}
	.st21{opacity:0.75;fill:#EAD9B7;}
	.st22{fill:none;stroke:#070707;stroke-miterlimit:10;}
	.st23{fill:#FEF0E1;stroke:#070707;stroke-miterlimit:10;}
	.st24{opacity:0.43;fill:#7F3B48;}
	.st25{fill:#D3A533;}
	.st26{fill:#C1962B;}
	.st27{fill:#FFB5C0;stroke:#020202;stroke-miterlimit:10;}
	.st28{fill:#FF8E9E;}
	.st29{fill:#FF8E9E;stroke:#000000;stroke-miterlimit:10;}
	.st30{fill:#EA5B70;}
	.st31{fill:#020202;}
	.st32{fill:#FFD258;stroke:#050505;stroke-width:0.5;stroke-miterlimit:10;}
	.st33{fill:#FEF0E1;stroke:#020202;stroke-width:0.5;stroke-miterlimit:10;}
	.st34{fill:#DDB143;}
	.st35{fill:#D6AF8B;}
	.st36{fill:#FBCEC6;}
	.st37{fill:#FFFBF2;stroke:#020202;stroke-width:2;stroke-miterlimit:10;}
	.st38{fill:#FF5F7D;stroke:#020202;stroke-width:2;stroke-miterlimit:10;}
	.st39{fill:#FFFFFF;}
	.st40{fill:#ADCCFF;stroke:#020202;stroke-width:2;stroke-miterlimit:10;}
	.st41{fill:#FFD258;stroke:#050505;stroke-width:2;stroke-miterlimit:10;}
	.st42{fill:#85AAE0;}
	.st43{fill:#C99E32;}
	.st44{fill:#FF5F7D;stroke:#050505;stroke-width:2;stroke-miterlimit:10;}
	.st45{fill:#DBA92C;}
	.st46{fill:#73B7A4;stroke:#020202;stroke-width:2;stroke-miterlimit:10;}
	.st47{fill:#FFCF47;stroke:#020202;stroke-width:2;stroke-miterlimit:10;}
	.st48{fill:#99C6B8;}
	.st49{fill:#E2B23B;}
	.st50{fill:#C11A3E;}
	.st51{fill:#FEF0E1;stroke:#020202;stroke-miterlimit:10;}
	.st52{fill:#ADCCFF;stroke:#020202;stroke-miterlimit:10;}
	.st53{fill:#FFD258;stroke:#0C0C0C;stroke-width:0.75;stroke-miterlimit:10;}
	.st54{fill:#ADCCFF;stroke:#050505;stroke-width:2;stroke-miterlimit:10;}
	.st55{fill:#73B7A4;stroke:#050505;stroke-width:2;stroke-miterlimit:10;}
	.st56{fill:#FFFBF2;stroke:#050505;stroke-width:2;stroke-miterlimit:10;}
	.st57{fill:#FEF0E1;stroke:#020202;stroke-width:2;stroke-miterlimit:10;}
	.st58{fill:#D8A830;}
	.st59{fill:#FF5F7D;stroke:#050505;stroke-miterlimit:10;}
	.st60{fill:#E8D2BF;}
	.st61{fill:#FFD258;stroke:#0A0A0A;stroke-width:2;stroke-miterlimit:10;}
	.st62{fill:#D8AB3A;}
	.st63{fill:#FFD258;stroke:#050505;stroke-miterlimit:10;}
	.st64{fill:#FBCEC6;stroke:#070707;stroke-miterlimit:10;}
	.st65{fill:#D84161;}
	.st66{fill:#FFD258;stroke:#0A0A0A;stroke-miterlimit:10;}
	.st67{fill:#FFD258;stroke:#0A0A0A;stroke-width:3;stroke-miterlimit:10;}
	.st68{fill:none;stroke:#0A0A0A;stroke-width:3;stroke-miterlimit:10;}
	.st69{fill:none;stroke:#0A0A0A;stroke-width:2;stroke-miterlimit:10;}
	.st70{fill:#FF5F7D;stroke:#000000;stroke-miterlimit:10;}
	.st71{fill:#FFD258;stroke:#000000;stroke-miterlimit:10;}
	.st72{fill:#FF5F7D;stroke:#050505;stroke-width:0.75;stroke-miterlimit:10;}
	.st73{fill:#FEF0E1;stroke:#020202;stroke-width:0.75;stroke-miterlimit:10;}
	.st74{fill:#FF5F7D;stroke:#050505;stroke-width:0.25;stroke-miterlimit:10;}
	.st75{fill:#73B7A4;stroke:#020202;stroke-width:0.25;stroke-miterlimit:10;}
	.st76{fill:#FBCEC6;stroke:#020202;stroke-miterlimit:10;}
	.st77{fill:#73B7A4;stroke:#020202;stroke-width:0.75;stroke-miterlimit:10;}
	.st78{fill:#73B7A4;stroke:#070707;stroke-miterlimit:10;}
	.st79{fill:#FFFBF2;stroke:#070707;stroke-miterlimit:10;}
	.st80{fill:#E2B139;}
	.st81{fill:#FFFBF2;stroke:#020202;stroke-miterlimit:10;}
	.st82{fill:#ADCCFF;stroke:#020202;stroke-width:0.75;stroke-miterlimit:10;}
	.st83{fill:#FFFBF2;stroke:#020202;stroke-width:0.75;stroke-miterlimit:10;}
	.st84{fill:#FFD258;stroke:#050505;stroke-width:0.75;stroke-miterlimit:10;}
	.st85{fill:#FBCEC6;stroke:#020202;stroke-width:0.75;stroke-miterlimit:10;}
	.st86{fill:#73B7A4;stroke:#050505;stroke-miterlimit:10;}
	.st87{fill:#73B7A4;stroke:#050505;stroke-width:0.75;stroke-miterlimit:10;}
	.st88{fill:#E2C2A6;}
	.st89{fill:#DBC69E;}
	.st90{fill:#D39C94;}
	.st91{fill:#E0B344;}
	.st92{fill:#E0AE32;}
	.st93{fill:#4F9982;}
	.st94{fill:#DDBA9B;}
	.st95{fill:#C6961E;}
	.st96{fill:#FF5F7D;stroke:#000000;stroke-width:0.75;stroke-miterlimit:10;}
	.st97{fill:#FFD258;stroke:#000000;stroke-width:0.75;stroke-miterlimit:10;}
</style>
<path class="st0" d="M354.7,432H121.5c-43.5,0-79.2-35.6-79.2-79.2V119.7c0-43.5,35.6-79.2,79.2-79.2h233.2
	c43.5,0,79.2,35.6,79.2,79.2v233.2C433.8,396.4,398.2,432,354.7,432z"/>
<g id="LIisnw.tif">
	<g>
		<path class="st57" d="M241.6,268.9c-39.4,0.2-72-32.2-72.2-71.6c-0.2-40.2,32-72.7,72.1-72.8c39.6-0.1,72.1,32.1,72.2,71.6
			C313.8,236.3,281.7,268.7,241.6,268.9z M215.3,163.9c-3.6,0-6.6,2.9-6.7,6.4c-0.1,3.4,3.2,6.7,6.7,6.6c3.5-0.1,6.6-3.2,6.5-6.6
			C221.9,166.9,218.8,164,215.3,163.9z M248.1,183.6c0-3.5-2.8-6.5-6.4-6.6c-3.5-0.1-6.6,2.8-6.7,6.3c-0.1,3.7,2.8,6.7,6.5,6.7
			C245.1,190.1,248,187.2,248.1,183.6z M208.6,196.8c0.1-3.6-2.7-6.5-6.3-6.7c-3.6-0.1-6.8,2.9-6.8,6.5c0,3.5,2.9,6.4,6.5,6.5
			C205.7,203.2,208.6,200.4,208.6,196.8z M221.8,209.9c0,3.5,3.1,6.5,6.6,6.5c3.5,0,6.6-3,6.6-6.5c0-3.6-3.1-6.6-6.7-6.5
			C224.7,203.4,221.8,206.4,221.8,209.9z"/>
		<path class="st8" d="M234.8,335.4c-2-23.7-11.5-43.4-27.6-60.3c11,4.4,22.4,6.9,34.3,6.9c11.9,0,23.3-2.4,34.4-6.9
			c-16,16.9-25.7,36.5-27.5,60.2c1.1,0.1,2,0.1,2.8,0.1c5.3,0,10.7,0,16,0c4.2,0,7.1,2.6,7.2,6.3c0.1,3.7-2.9,6.7-7.1,6.7
			c-17.2,0.1-34.3,0.1-51.5,0c-4.2,0-7.1-2.8-7.1-6.5c0-3.8,2.9-6.5,7.3-6.5c5.2,0,10.5,0,15.7,0
			C232.6,335.4,233.5,335.4,234.8,335.4z"/>
		<path class="st0" d="M215.3,163.9c3.5,0,6.6,3,6.6,6.4c0,3.4-3.1,6.5-6.5,6.6c-3.5,0.1-6.8-3.2-6.7-6.6
			C208.7,166.9,211.7,163.9,215.3,163.9z"/>
		<path class="st0" d="M248.1,183.6c0,3.6-2.9,6.4-6.6,6.4c-3.7,0-6.6-3-6.5-6.7c0.1-3.5,3.2-6.4,6.7-6.3
			C245.2,177.2,248.1,180.1,248.1,183.6z"/>
		<path class="st0" d="M208.6,196.8c-0.1,3.6-2.9,6.4-6.6,6.3c-3.6,0-6.5-2.9-6.5-6.5c0-3.6,3.2-6.7,6.8-6.5
			C205.9,190.3,208.7,193.2,208.6,196.8z"/>
		<path class="st0" d="M221.8,209.9c0-3.5,2.9-6.5,6.4-6.6c3.7-0.1,6.8,2.9,6.7,6.5c0,3.5-3.1,6.5-6.6,6.5
			C224.9,216.4,221.8,213.4,221.8,209.9z"/>
		<path class="st60" d="M232.7,267.1c2.2,0.2,4.3,0.3,6.5,0.3c40.1-0.2,72.3-32.6,72.1-72.8c0-6.1-0.8-12.1-2.3-17.8
			C282.8,206.2,258.1,237,232.7,267.1z"/>
	</g>
</g>
</svg>
