<?xml version="1.0" encoding="utf-8"?>
<!-- Generator: Adobe Illustrator 22.1.0, SVG Export Plug-In . SVG Version: 6.00 Build 0)  -->
<svg version="1.1" id="Calque_1" xmlns="http://www.w3.org/2000/svg" xmlns:xlink="http://www.w3.org/1999/xlink" x="0px" y="0px"
	 viewBox="0 0 700 480" style="enable-background:new 0 0 700 480;" xml:space="preserve">
<style type="text/css">
	.st0{fill:#DAECFF;}
	.st1{fill:#FFD258;}
	.st2{fill:#FBCEC6;}
	.st3{fill:#ADCCFF;}
	.st4{fill:#FF5F7D;}
	.st5{fill:none;stroke:#000000;stroke-width:2;stroke-miterlimit:10;}
	.st6{fill:#FFFBF2;}
	.st7{fill:#73B7A4;}
	.st8{fill:none;stroke:#000000;stroke-miterlimit:10;}
	.st9{fill:#98BFFF;}
	.st10{fill:#FFD258;stroke:#000000;stroke-width:2;stroke-miterlimit:10;}
	.st11{fill:#FEF0E1;stroke:#070707;stroke-miterlimit:10;}
	.st12{fill:#D3A533;}
	.st13{fill:#FFB5C0;stroke:#020202;stroke-miterlimit:10;}
	.st14{fill:#FF8E9E;}
	.st15{fill:#FF8E9E;stroke:#000000;stroke-miterlimit:10;}
	.st16{fill:#EA5B70;}
	.st17{fill:#020202;}
	.st18{fill:#FFD258;stroke:#050505;stroke-width:0.5;stroke-miterlimit:10;}
	.st19{fill:#FEF0E1;stroke:#020202;stroke-width:0.5;stroke-miterlimit:10;}
	.st20{fill:#DDB143;}
	.st21{fill:#D6AF8B;}
	.st22{fill:#FFFBF2;stroke:#020202;stroke-width:2;stroke-miterlimit:10;}
	.st23{fill:#FF5F7D;stroke:#020202;stroke-width:2;stroke-miterlimit:10;}
	.st24{fill:#FFFFFF;}
	.st25{fill:#ADCCFF;stroke:#020202;stroke-width:2;stroke-miterlimit:10;}
	.st26{fill:#FFD258;stroke:#050505;stroke-width:2;stroke-miterlimit:10;}
	.st27{fill:#85AAE0;}
	.st28{fill:#C99E32;}
	.st29{fill:#FFCF47;stroke:#020202;stroke-miterlimit:10;}
	.st30{fill:#FF5F7D;stroke:#050505;stroke-width:2;stroke-miterlimit:10;}
	.st31{fill:#F36B7F;stroke:#000000;stroke-miterlimit:10;}
	.st32{fill:#DBA92C;}
	.st33{fill:#73B7A4;stroke:#020202;stroke-width:2;stroke-miterlimit:10;}
	.st34{fill:#FFCF47;stroke:#020202;stroke-width:2;stroke-miterlimit:10;}
	.st35{fill:#99C6B8;}
	.st36{fill:#E2B23B;}
	.st37{fill:#C11A3E;}
	.st38{fill:#FEF0E1;stroke:#020202;stroke-miterlimit:10;}
	.st39{fill:#ADCCFF;stroke:#020202;stroke-miterlimit:10;}
	.st40{fill:#FFD258;stroke:#0C0C0C;stroke-width:0.75;stroke-miterlimit:10;}
	.st41{fill:#ADCCFF;stroke:#050505;stroke-width:2;stroke-miterlimit:10;}
	.st42{fill:#73B7A4;stroke:#050505;stroke-width:2;stroke-miterlimit:10;}
	.st43{fill:#FFFBF2;stroke:#050505;stroke-width:2;stroke-miterlimit:10;}
	.st44{fill:#FEF0E1;stroke:#020202;stroke-width:2;stroke-miterlimit:10;}
	.st45{fill:#D8A830;}
	.st46{fill:#FF5F7D;stroke:#050505;stroke-miterlimit:10;}
	.st47{fill:#73B7A4;stroke:#020202;stroke-miterlimit:10;}
	.st48{fill:#E8D2BF;}
	.st49{fill:#FFD258;stroke:#0A0A0A;stroke-width:2;stroke-miterlimit:10;}
	.st50{fill:#D8AB3A;}
	.st51{fill:#FFD258;stroke:#050505;stroke-miterlimit:10;}
	.st52{fill:#FBCEC6;stroke:#070707;stroke-miterlimit:10;}
	.st53{fill:#D84161;}
	.st54{fill:#FFD258;stroke:#0A0A0A;stroke-miterlimit:10;}
	.st55{fill:#FFD258;stroke:#0A0A0A;stroke-width:3;stroke-miterlimit:10;}
	.st56{fill:none;stroke:#0A0A0A;stroke-width:2;stroke-miterlimit:10;}
	.st57{fill:#FF5F7D;stroke:#000000;stroke-miterlimit:10;}
	.st58{fill:#FFD258;stroke:#000000;stroke-miterlimit:10;}
	.st59{fill:#FF5F7D;stroke:#050505;stroke-width:0.75;stroke-miterlimit:10;}
	.st60{fill:#FEF0E1;stroke:#020202;stroke-width:0.75;stroke-miterlimit:10;}
	.st61{fill:#FF5F7D;stroke:#050505;stroke-width:0.25;stroke-miterlimit:10;}
	.st62{fill:#FFD258;stroke:#0A0A0A;stroke-width:0.75;stroke-miterlimit:10;}
	.st63{fill:#73B7A4;stroke:#020202;stroke-width:0.25;stroke-miterlimit:10;}
	.st64{fill:#FBCEC6;stroke:#020202;stroke-miterlimit:10;}
	.st65{fill:#73B7A4;stroke:#020202;stroke-width:0.75;stroke-miterlimit:10;}
	.st66{fill:#73B7A4;stroke:#070707;stroke-miterlimit:10;}
	.st67{fill:#FFFBF2;stroke:#070707;stroke-miterlimit:10;}
	.st68{fill:#E2B139;}
	.st69{fill:#FFFBF2;stroke:#020202;stroke-miterlimit:10;}
	.st70{fill:#ADCCFF;stroke:#020202;stroke-width:0.75;stroke-miterlimit:10;}
	.st71{fill:#FFFBF2;stroke:#020202;stroke-width:0.75;stroke-miterlimit:10;}
	.st72{fill:#FFD258;stroke:#050505;stroke-width:0.75;stroke-miterlimit:10;}
	.st73{fill:#FBCEC6;stroke:#020202;stroke-width:0.75;stroke-miterlimit:10;}
	.st74{fill:#73B7A4;stroke:#050505;stroke-miterlimit:10;}
	.st75{fill:#73B7A4;stroke:#050505;stroke-width:0.75;stroke-miterlimit:10;}
	.st76{fill:#E2C2A6;}
	.st77{fill:#DBC69E;}
	.st78{fill:#D39C94;}
	.st79{fill:#E0B344;}
	.st80{fill:#E0AE32;}
	.st81{fill:#4F9982;}
	.st82{fill:#DDBA9B;}
	.st83{fill:#FF5F7D;stroke:#000000;stroke-width:0.75;stroke-miterlimit:10;}
	.st84{fill:#FFD258;stroke:#000000;stroke-width:0.75;stroke-miterlimit:10;}
	.st85{fill:none;stroke:#000000;stroke-width:0.5;stroke-miterlimit:10;}
	.st86{opacity:0.43;fill:#7F3B48;}
	.st87{opacity:0.88;fill:#98BFFF;}
	.st88{opacity:0.75;fill:#FFFBF2;}
	.st89{opacity:0.88;fill:#719BD8;}
	.st90{opacity:0.75;fill:#EAD9B7;}
	.st91{fill:#FEF0E1;}
	.st92{fill:none;stroke:#070707;stroke-miterlimit:10;}
	.st93{fill:#C1962B;}
	.st94{fill:#D6B154;}
	.st95{fill:#5DA08B;}
	.st96{fill:#C6961E;}
	.st97{fill:#FF5F7D;stroke:#FFFFFF;stroke-miterlimit:10;}
	.st98{fill:#FF5F7D;stroke:#070707;stroke-miterlimit:10;}
</style>
<rect x="1" y="2.6" class="st4" width="697.5" height="475.2"/>
<g id="TyYPg9.tif">
	<g>
		<path class="st39" d="M290.7,193.9c7.6-11.6,7.3-23-0.2-34.5c2.6-2.7,5.1-5.2,8.6-8.8c0.7,24.9,18.1,37.4,33.9,49.8
			c6.5,5.1,17.2,4.9,26,7.3c2.7,0.8,5.2,2.3,8.2,3.7c-5.2,2.4-8.6,4-11.9,5.5c3.6,1,7.2,1.8,10.7,3.1c2.3,0.9,4.3,2.7,6.4,4.1
			c-4.4,2-7.6,3.4-10.8,4.8c3.2,1.1,6.5,2,9.7,3.3c2.3,1,4.4,2.5,7.7,4.5c-2.4,1.1-2.9,1.3-3.3,1.5c-2.6,1-5.2,1.9-7.9,2.9
			c2.7,1.1,5.4,2.1,8,3.4c2.2,1.1,5.8,2,6.3,3.7c4.4,16.5,16.1,19,31,18c13.2-0.9,18.9,5.1,18.9,17.8c-14.3,0-28.6,0.7-42.8-0.4
			c-5.6-0.4-12.1-3.8-16.3-7.8C345.2,249.2,318.3,221.7,290.7,193.9z"/>
		<path class="st47" d="M329.2,275.2c1.7-1.9,3.9-3.7,5.4-6c0.8-1.2,0.6-3.1,0.9-4.6c-1.8,0.2-4-0.2-5.2,0.8c-2,1.6-3.2,4-4.7,5.8
			c-6.2-2.9-7.9-6.7-7.8-12.2c0.2-11.8-2.3-14.6-13.7-14.1c-9.7,0.5-12.4-7.7-18.6-12.4c2.3-2.5,4.4-4.3,6-6.6
			c0.8-1.2,0.5-3.1,0.7-4.6c-1.6,0.1-3.5-0.3-4.6,0.5c-2.3,1.5-4.1,3.7-6,5.5c-4.7-4.7-9.1-9.2-13.8-14c1.5-1.6,3.6-3.3,4.9-5.4
			c0.9-1.4,0.7-3.5,1-5.2c-1.8,0.3-3.7,0.3-5.2,1.1c-1.7,0.9-3,2.6-4.6,4c-5.8-8.8-4.1-17.8,5-25.9c2,1.9,4,3.7,6,5.7
			c29.8,29.8,59.7,59.5,89.3,89.4c9.6,9.7,20.8,14.6,34.4,14.2c11-0.3,22-0.1,33-0.1c0.6,0.7,1.1,1.3,1.7,2
			c-2.6,3.3-4.5,8.2-7.8,9.3c-3.9,1.4-10.6,4.8-12.9-3.6c-0.1-0.5-3.6-0.9-3.7-0.7c-4.1,10.4-12.8,2.8-18.2,5.4
			c-2-2.5-3.5-4.2-4.9-6c-1.5,1.7-3,3.5-4.9,5.7c-11.5,0.9-23.2-0.2-33.4-9.3c2.1-2.3,4.2-4.1,5.7-6.4c0.8-1.2,0.4-3.1,0.6-4.6
			c-1.6,0.1-3.5-0.2-4.6,0.6c-2.3,1.6-4.1,3.7-5.9,5.4C338.6,284.3,334.1,279.9,329.2,275.2z"/>
		<path class="st47" d="M409.6,130.7c-12.3,12.1-22.8,22.7-33.5,33c-1.2,1.2-3.4,1.6-5.2,1.7c-3.3,0.1-6.6-0.7-9.9-0.7
			c-9,0-11.9,2.9-12.2,11.8c-0.1,1.5-0.2,3-0.3,4.5c-16.4-6.2-27.8-24.9-24-40.9c0.9-3.7,6.2-8.9,9.7-9
			C358.5,130.3,382.8,130.7,409.6,130.7z"/>
		<path class="st47" d="M363.1,201.5c-5.4,0-8.2,0.2-10.9,0c-21.6-1.7-48.3-32.3-46.2-53.7c0.4-3.8,4.7-7.2,7.5-10.6
			c0.2-0.3,3.5,1.1,4.2,2.4c0.8,1.4,0.3,3.5,0.3,5.3c0.1,21.6,14,38.5,34.9,44.6C356.5,190.6,358.9,196.4,363.1,201.5z"/>
		<path class="st44" d="M287.9,291c-9.7,0-19.5,0.2-29.2-0.1c-1.8-0.1-3.5-1.9-5.2-2.9c1.7-1,3.5-2.9,5.2-2.9
			c20-0.2,39.9-0.2,59.9,0c1.8,0,3.5,1.9,5.2,2.9c-1.7,1-3.5,2.9-5.2,2.9C308.3,291.2,298.1,291,287.9,291z"/>
		<path class="st44" d="M279.2,266.4c7.2,0,14.3-0.2,21.5,0.1c1.6,0.1,3.1,1.8,4.6,2.8c-1.4,1.1-2.9,3-4.3,3.1
			c-14.3,0.2-28.6,0.2-42.9,0c-1.6,0-3.1-1.8-4.6-2.8c1.7-1.1,3.3-3,5.1-3.1C265.4,266.2,272.3,266.4,279.2,266.4z"/>
		<path class="st39" d="M286.4,165.1c5.1,7.7,4.9,15.5-0.3,24.5c-4.4-4.2-8.5-8.1-12.4-11.9C278.1,173.3,282.1,169.3,286.4,165.1z"
			/>
		<path class="st44" d="M270,254c-4.1,0-8.2,0.3-12.2-0.1c-1.5-0.2-2.9-2-4.3-3.1c1.3-1,2.5-2.7,3.8-2.7c8.7-0.2,17.3-0.2,26,0
			c1.2,0,2.3,2,3.5,3c-1.3,1-2.5,2.6-3.9,2.7C278.6,254.2,274.3,254,270,254C270,254,270,254,270,254z"/>
		<path class="st39" d="M371,182.7c-6,0-10.7,0-16.7,0c0.8-4.1,0.5-9.6,2.6-10.8c3-1.8,8.6-1.8,11.6,0
			C370.5,173.1,370.2,178.6,371,182.7z"/>
		<path class="st39" d="M402.1,259.8c-10.5,0.9-11.1-7.8-14.4-14C396.4,244,396.4,244,402.1,259.8z"/>
		<path class="st39" d="M363.1,190c11.2-3.3,10.2,5.8,13.3,10.9C365.8,204.5,366.3,195.6,363.1,190z"/>
	</g>
</g>
</svg>
