<?xml version="1.0" encoding="utf-8"?>
<!-- Generator: Adobe Illustrator 22.1.0, SVG Export Plug-In . SVG Version: 6.00 Build 0)  -->
<svg version="1.1" id="Calque_1" xmlns="http://www.w3.org/2000/svg" xmlns:xlink="http://www.w3.org/1999/xlink" x="0px" y="0px"
	 viewBox="0 0 700 480" style="enable-background:new 0 0 700 480;" xml:space="preserve">
<style type="text/css">
	.st0{fill:#DAECFF;}
	.st1{fill:#FFD258;}
	.st2{fill:#FBCEC6;}
	.st3{fill:#ADCCFF;}
	.st4{fill:#FF5F7D;}
	.st5{fill:none;stroke:#000000;stroke-width:2;stroke-miterlimit:10;}
	.st6{fill:#FFFBF2;}
	.st7{fill:#73B7A4;}
	.st8{fill:none;stroke:#000000;stroke-miterlimit:10;}
	.st9{fill:#98BFFF;}
	.st10{fill:#FFD258;stroke:#000000;stroke-width:2;stroke-miterlimit:10;}
	.st11{fill:#FEF0E1;stroke:#070707;stroke-miterlimit:10;}
	.st12{fill:#D3A533;}
	.st13{fill:#FFB5C0;stroke:#020202;stroke-miterlimit:10;}
	.st14{fill:#FF8E9E;}
	.st15{fill:#FF8E9E;stroke:#000000;stroke-miterlimit:10;}
	.st16{fill:#EA5B70;}
	.st17{fill:#020202;}
	.st18{fill:#FFD258;stroke:#050505;stroke-width:0.5;stroke-miterlimit:10;}
	.st19{fill:#FEF0E1;stroke:#020202;stroke-width:0.5;stroke-miterlimit:10;}
	.st20{fill:#DDB143;}
	.st21{fill:#D6AF8B;}
	.st22{fill:#FFFBF2;stroke:#020202;stroke-width:2;stroke-miterlimit:10;}
	.st23{fill:#FF5F7D;stroke:#020202;stroke-width:2;stroke-miterlimit:10;}
	.st24{fill:#FFFFFF;}
	.st25{fill:#ADCCFF;stroke:#020202;stroke-width:2;stroke-miterlimit:10;}
	.st26{fill:#FFD258;stroke:#050505;stroke-width:2;stroke-miterlimit:10;}
	.st27{fill:#85AAE0;}
	.st28{fill:#C99E32;}
	.st29{fill:#FFCF47;stroke:#020202;stroke-miterlimit:10;}
	.st30{fill:#FF5F7D;stroke:#050505;stroke-width:2;stroke-miterlimit:10;}
	.st31{fill:#F36B7F;stroke:#000000;stroke-miterlimit:10;}
	.st32{fill:#DBA92C;}
	.st33{fill:#73B7A4;stroke:#020202;stroke-width:2;stroke-miterlimit:10;}
	.st34{fill:#FFCF47;stroke:#020202;stroke-width:2;stroke-miterlimit:10;}
	.st35{fill:#99C6B8;}
	.st36{fill:#E2B23B;}
	.st37{fill:#C11A3E;}
	.st38{fill:#FEF0E1;stroke:#020202;stroke-miterlimit:10;}
	.st39{fill:#ADCCFF;stroke:#020202;stroke-miterlimit:10;}
	.st40{fill:#FFD258;stroke:#0C0C0C;stroke-width:0.75;stroke-miterlimit:10;}
	.st41{fill:#ADCCFF;stroke:#050505;stroke-width:2;stroke-miterlimit:10;}
	.st42{fill:#73B7A4;stroke:#050505;stroke-width:2;stroke-miterlimit:10;}
	.st43{fill:#FFFBF2;stroke:#050505;stroke-width:2;stroke-miterlimit:10;}
	.st44{fill:#FEF0E1;stroke:#020202;stroke-width:2;stroke-miterlimit:10;}
	.st45{fill:#D8A830;}
	.st46{fill:#FF5F7D;stroke:#050505;stroke-miterlimit:10;}
	.st47{fill:#73B7A4;stroke:#020202;stroke-miterlimit:10;}
	.st48{fill:#E8D2BF;}
	.st49{fill:#FFD258;stroke:#0A0A0A;stroke-width:2;stroke-miterlimit:10;}
	.st50{fill:#D8AB3A;}
	.st51{fill:#FFD258;stroke:#050505;stroke-miterlimit:10;}
	.st52{fill:#FBCEC6;stroke:#070707;stroke-miterlimit:10;}
	.st53{fill:#D84161;}
	.st54{fill:#FFD258;stroke:#0A0A0A;stroke-miterlimit:10;}
	.st55{fill:#FFD258;stroke:#0A0A0A;stroke-width:3;stroke-miterlimit:10;}
	.st56{fill:none;stroke:#0A0A0A;stroke-width:2;stroke-miterlimit:10;}
	.st57{fill:#FF5F7D;stroke:#000000;stroke-miterlimit:10;}
	.st58{fill:#FFD258;stroke:#000000;stroke-miterlimit:10;}
	.st59{fill:#FF5F7D;stroke:#050505;stroke-width:0.75;stroke-miterlimit:10;}
	.st60{fill:#FEF0E1;stroke:#020202;stroke-width:0.75;stroke-miterlimit:10;}
	.st61{fill:#FF5F7D;stroke:#050505;stroke-width:0.25;stroke-miterlimit:10;}
	.st62{fill:#FFD258;stroke:#0A0A0A;stroke-width:0.75;stroke-miterlimit:10;}
	.st63{fill:#73B7A4;stroke:#020202;stroke-width:0.25;stroke-miterlimit:10;}
	.st64{fill:#FBCEC6;stroke:#020202;stroke-miterlimit:10;}
	.st65{fill:#73B7A4;stroke:#020202;stroke-width:0.75;stroke-miterlimit:10;}
	.st66{fill:#73B7A4;stroke:#070707;stroke-miterlimit:10;}
	.st67{fill:#FFFBF2;stroke:#070707;stroke-miterlimit:10;}
	.st68{fill:#E2B139;}
	.st69{fill:#FFFBF2;stroke:#020202;stroke-miterlimit:10;}
	.st70{fill:#ADCCFF;stroke:#020202;stroke-width:0.75;stroke-miterlimit:10;}
	.st71{fill:#FFFBF2;stroke:#020202;stroke-width:0.75;stroke-miterlimit:10;}
	.st72{fill:#FFD258;stroke:#050505;stroke-width:0.75;stroke-miterlimit:10;}
	.st73{fill:#FBCEC6;stroke:#020202;stroke-width:0.75;stroke-miterlimit:10;}
	.st74{fill:#73B7A4;stroke:#050505;stroke-miterlimit:10;}
	.st75{fill:#73B7A4;stroke:#050505;stroke-width:0.75;stroke-miterlimit:10;}
	.st76{fill:#E2C2A6;}
	.st77{fill:#DBC69E;}
	.st78{fill:#D39C94;}
	.st79{fill:#E0B344;}
	.st80{fill:#E0AE32;}
	.st81{fill:#4F9982;}
	.st82{fill:#DDBA9B;}
	.st83{fill:#FF5F7D;stroke:#000000;stroke-width:0.75;stroke-miterlimit:10;}
	.st84{fill:#FFD258;stroke:#000000;stroke-width:0.75;stroke-miterlimit:10;}
	.st85{fill:none;stroke:#000000;stroke-width:0.5;stroke-miterlimit:10;}
	.st86{opacity:0.43;fill:#7F3B48;}
	.st87{opacity:0.88;fill:#98BFFF;}
	.st88{opacity:0.75;fill:#FFFBF2;}
	.st89{opacity:0.88;fill:#719BD8;}
	.st90{opacity:0.75;fill:#EAD9B7;}
	.st91{fill:#FEF0E1;}
	.st92{fill:none;stroke:#070707;stroke-miterlimit:10;}
	.st93{fill:#C1962B;}
	.st94{fill:#D6B154;}
	.st95{fill:#5DA08B;}
	.st96{fill:#C6961E;}
</style>
<rect x="-0.1" y="2.6" class="st1" width="703.1" height="476.3"/>
<g id="G7xRsz.tif">
	<g>
		<path class="st25" d="M241.2,241.1c8.8,4.2,17.8,7.2,27.3,8.6c13.4,2,26.2,0.9,37.9-6.8c1.9-1.2,2.8-2.5,2.6-4.8
			c-0.2-3.1-0.1-6.3-0.1-9.7c5.5,0,10.8-0.5,16,0.1c6.3,0.7,12.7,1.9,18.8,3.5c5.4,1.4,10,4.4,13.1,9.4c0.4,0.6,1.3,1,2,1.2
			c4.1,1.6,8.3,2.9,12.3,4.8c2.6,1.2,4.6,3.5,7.1,4.9c2.2,1.2,4.7,2.4,7.1,2.4c10.3,0.2,20.6,0.1,31,0c6.4,0,12.8,0.6,19,2.6
			c4.7,1.5,9.1,3.7,12.9,7.4c-1,0.8-1.8,1.4-2.7,2c-21.2,14.8-44.5,24.6-70.3,27.9c-11.7,1.5-23.5,1.1-35.1-0.7
			c-12-1.9-23.9-4.2-35.8-6.6c-6.2-1.3-11.6,0-16.8,3.4c-1.1,0.7-2.8,1.2-4.1,1.1c-17.4-1.1-34.7-2.3-52.1-3.5
			c-1.3-0.1-1.8-0.5-2-1.9c-1.8-11-1.2-21.7,2.7-32.2C234.1,249.3,237.3,245,241.2,241.1z M337.7,267.2c2.9,0.9,4.3,0.4,5.7-2
			c2.4-4,4.7-8,7.1-12.1c1.8-3.1,1.3-4.9-1.7-6.9c-1.8-1.2-4.5-1.6-5.1-4.4c-0.1-0.3-0.7-0.7-1-0.6c-2.9,0.7-4.7-1.6-7-2.6
			c-2.5-1.2-4.6-0.9-5.9,1.3c-2.7,4.4-5.3,8.9-7.8,13.4c-1.1,2-0.8,3.9,1.3,5.4c3.3-5.8,6.6-11.4,9.9-17.2c2.1,1.3,3.9,2.3,5.7,3.4
			c-1.1,1.9-2.2,3.5-2.9,5.2c-0.3,0.8,0.3,2,0.4,3c0.9-0.4,2.1-0.5,2.6-1.1c1.2-1.6,2.1-3.4,3.2-5.2c1.9,1.1,3.7,2.2,5.7,3.4
			C344.4,256.1,341.1,261.7,337.7,267.2z"/>
		<path class="st42" d="M451.6,267.9c1.2,3.3,1.2,6.4,0.1,9.3c-0.4,1-1.3,1.9-2.2,2.6c-14,10.1-29.6,16.5-46,21.1
			c-14.2,4-28.6,6.6-43.3,6.8c-13.6,0.2-26.9-1.9-40.1-5c-6.2-1.5-12.5-3-18.7-4.5c-3.8-1-7.3-0.2-10.4,2c-1.2,0.8-2.6,1.6-3.5,2.7
			c-2.4,3-5.5,3.5-9.1,3.6c-10.4,0.1-20.8,0.4-31.2,0.5c-3.9,0-7.8-0.5-11.7-1c-4.6-0.6-6.2-2.6-6-7.3c0.1-2.1,0.5-4.2,0.8-6.5
			c7.6,0.5,14.8,1,22.1,1.5c10.8,0.7,21.6,1.5,32.4,2.2c1.2,0.1,2.7-0.3,3.7-1.1c5.4-3.8,10.9-4.8,17.4-3.1
			c16.2,4.4,32.8,6.7,49.5,7.5c23,1.1,44.6-4.2,65.3-13.7c10.1-4.6,19.7-10,28.6-16.7C450,268.4,450.8,268.2,451.6,267.9z"/>
		<path class="st25" d="M337.7,267.2c3.4-5.6,6.7-11.2,10.2-17c-2.1-1.2-3.8-2.2-5.7-3.4c-1.1,1.8-2,3.6-3.2,5.2
			c-0.5,0.7-1.7,0.8-2.6,1.1c-0.2-1-0.7-2.2-0.4-3c0.7-1.8,1.8-3.3,2.9-5.2c-1.8-1.1-3.6-2.1-5.7-3.4c-3.3,5.8-6.6,11.4-9.9,17.2
			c-2-1.5-2.4-3.4-1.3-5.4c2.5-4.5,5.1-8.9,7.8-13.4c1.3-2.2,3.4-2.5,5.9-1.3c2.2,1,4,3.4,7,2.6c0.3-0.1,0.9,0.3,1,0.6
			c0.6,2.7,3.2,3.1,5.1,4.4c3,2,3.5,3.8,1.7,6.9c-2.3,4-4.7,8.1-7.1,12.1C342,267.6,340.6,268.1,337.7,267.2z"/>
	</g>
</g>
</svg>
