<?xml version="1.0" encoding="utf-8"?>
<!-- Generator: Adobe Illustrator 22.1.0, SVG Export Plug-In . SVG Version: 6.00 Build 0)  -->
<svg version="1.1" id="Calque_1" xmlns="http://www.w3.org/2000/svg" xmlns:xlink="http://www.w3.org/1999/xlink" x="0px" y="0px"
	 viewBox="0 0 700 480" style="enable-background:new 0 0 700 480;" xml:space="preserve">
<style type="text/css">
	.st0{fill:#DAECFF;}
	.st1{fill:#FFD258;}
	.st2{fill:#FBCEC6;}
	.st3{fill:#ADCCFF;}
	.st4{fill:#FF5F7D;}
	.st5{fill:none;stroke:#000000;stroke-width:2;stroke-miterlimit:10;}
	.st6{fill:#FFFBF2;}
	.st7{fill:#73B7A4;}
	.st8{fill:none;stroke:#000000;stroke-miterlimit:10;}
	.st9{fill:#98BFFF;}
	.st10{fill:#FFD258;stroke:#000000;stroke-width:2;stroke-miterlimit:10;}
	.st11{fill:#FEF0E1;stroke:#070707;stroke-miterlimit:10;}
	.st12{fill:#D3A533;}
	.st13{fill:#FFB5C0;stroke:#020202;stroke-miterlimit:10;}
	.st14{fill:#FF8E9E;}
	.st15{fill:#FF8E9E;stroke:#000000;stroke-miterlimit:10;}
	.st16{fill:#EA5B70;}
	.st17{fill:#020202;}
	.st18{fill:#FFD258;stroke:#050505;stroke-width:0.5;stroke-miterlimit:10;}
	.st19{fill:#FEF0E1;stroke:#020202;stroke-width:0.5;stroke-miterlimit:10;}
	.st20{fill:#DDB143;}
	.st21{fill:#D6AF8B;}
	.st22{fill:#FFFBF2;stroke:#020202;stroke-width:2;stroke-miterlimit:10;}
	.st23{fill:#FF5F7D;stroke:#020202;stroke-width:2;stroke-miterlimit:10;}
	.st24{fill:#FFFFFF;}
	.st25{fill:#ADCCFF;stroke:#020202;stroke-width:2;stroke-miterlimit:10;}
	.st26{fill:#FFD258;stroke:#050505;stroke-width:2;stroke-miterlimit:10;}
	.st27{fill:#85AAE0;}
	.st28{fill:#C99E32;}
	.st29{fill:#FFCF47;stroke:#020202;stroke-miterlimit:10;}
	.st30{fill:#FF5F7D;stroke:#050505;stroke-width:2;stroke-miterlimit:10;}
	.st31{fill:#F36B7F;stroke:#000000;stroke-miterlimit:10;}
	.st32{fill:#DBA92C;}
	.st33{fill:#73B7A4;stroke:#020202;stroke-width:2;stroke-miterlimit:10;}
	.st34{fill:#FFCF47;stroke:#020202;stroke-width:2;stroke-miterlimit:10;}
	.st35{fill:#99C6B8;}
	.st36{fill:#E2B23B;}
	.st37{fill:#C11A3E;}
	.st38{fill:#FEF0E1;stroke:#020202;stroke-miterlimit:10;}
	.st39{fill:#ADCCFF;stroke:#020202;stroke-miterlimit:10;}
	.st40{fill:#FFD258;stroke:#0C0C0C;stroke-width:0.75;stroke-miterlimit:10;}
	.st41{fill:#ADCCFF;stroke:#050505;stroke-width:2;stroke-miterlimit:10;}
	.st42{fill:#73B7A4;stroke:#050505;stroke-width:2;stroke-miterlimit:10;}
	.st43{fill:#FFFBF2;stroke:#050505;stroke-width:2;stroke-miterlimit:10;}
	.st44{fill:#FEF0E1;stroke:#020202;stroke-width:2;stroke-miterlimit:10;}
	.st45{fill:#D8A830;}
	.st46{fill:#FF5F7D;stroke:#050505;stroke-miterlimit:10;}
	.st47{fill:#73B7A4;stroke:#020202;stroke-miterlimit:10;}
	.st48{fill:#E8D2BF;}
	.st49{fill:#FFD258;stroke:#0A0A0A;stroke-width:2;stroke-miterlimit:10;}
	.st50{fill:#D8AB3A;}
	.st51{fill:#FFD258;stroke:#050505;stroke-miterlimit:10;}
	.st52{fill:#FBCEC6;stroke:#070707;stroke-miterlimit:10;}
	.st53{fill:#D84161;}
	.st54{fill:#FFD258;stroke:#0A0A0A;stroke-miterlimit:10;}
	.st55{fill:#FFD258;stroke:#0A0A0A;stroke-width:3;stroke-miterlimit:10;}
	.st56{fill:none;stroke:#0A0A0A;stroke-width:2;stroke-miterlimit:10;}
	.st57{fill:#FF5F7D;stroke:#000000;stroke-miterlimit:10;}
	.st58{fill:#FFD258;stroke:#000000;stroke-miterlimit:10;}
	.st59{fill:#FF5F7D;stroke:#050505;stroke-width:0.75;stroke-miterlimit:10;}
	.st60{fill:#FEF0E1;stroke:#020202;stroke-width:0.75;stroke-miterlimit:10;}
	.st61{fill:#FF5F7D;stroke:#050505;stroke-width:0.25;stroke-miterlimit:10;}
	.st62{fill:#FFD258;stroke:#0A0A0A;stroke-width:0.75;stroke-miterlimit:10;}
	.st63{fill:#73B7A4;stroke:#020202;stroke-width:0.25;stroke-miterlimit:10;}
	.st64{fill:#FBCEC6;stroke:#020202;stroke-miterlimit:10;}
	.st65{fill:#73B7A4;stroke:#020202;stroke-width:0.75;stroke-miterlimit:10;}
	.st66{fill:#73B7A4;stroke:#070707;stroke-miterlimit:10;}
	.st67{fill:#FFFBF2;stroke:#070707;stroke-miterlimit:10;}
	.st68{fill:#E2B139;}
	.st69{fill:#FFFBF2;stroke:#020202;stroke-miterlimit:10;}
	.st70{fill:#ADCCFF;stroke:#020202;stroke-width:0.75;stroke-miterlimit:10;}
	.st71{fill:#FFFBF2;stroke:#020202;stroke-width:0.75;stroke-miterlimit:10;}
	.st72{fill:#FFD258;stroke:#050505;stroke-width:0.75;stroke-miterlimit:10;}
	.st73{fill:#FBCEC6;stroke:#020202;stroke-width:0.75;stroke-miterlimit:10;}
	.st74{fill:#73B7A4;stroke:#050505;stroke-miterlimit:10;}
	.st75{fill:#73B7A4;stroke:#050505;stroke-width:0.75;stroke-miterlimit:10;}
	.st76{fill:#E2C2A6;}
	.st77{fill:#DBC69E;}
	.st78{fill:#D39C94;}
	.st79{fill:#E0B344;}
	.st80{fill:#E0AE32;}
	.st81{fill:#4F9982;}
	.st82{fill:#DDBA9B;}
	.st83{fill:#FF5F7D;stroke:#000000;stroke-width:0.75;stroke-miterlimit:10;}
	.st84{fill:#FFD258;stroke:#000000;stroke-width:0.75;stroke-miterlimit:10;}
	.st85{fill:none;stroke:#000000;stroke-width:0.5;stroke-miterlimit:10;}
	.st86{opacity:0.43;fill:#7F3B48;}
	.st87{opacity:0.88;fill:#98BFFF;}
	.st88{opacity:0.75;fill:#FFFBF2;}
	.st89{opacity:0.88;fill:#719BD8;}
	.st90{opacity:0.75;fill:#EAD9B7;}
	.st91{fill:#FEF0E1;}
	.st92{fill:none;stroke:#070707;stroke-miterlimit:10;}
	.st93{fill:#C1962B;}
	.st94{fill:#D6B154;}
	.st95{fill:#5DA08B;}
	.st96{fill:#C6961E;}
</style>
<rect x="0.3" y="2.5" class="st0" width="699.7" height="480"/>
<g id="STV5Ql.tif">
	<g>
		<path class="st47" d="M474.3,301.8c0,4.3,0,8.2,0,12c0,2.9-1.5,4.3-4.3,4.6c-0.9,0.1-1.8,0-2.7,0c-36.8,0-73.6,0-110.3,0
			c-2.1,0-4.1,0-6.2,0c0-3.6-0.1-7.2,0-10.8c0.8-18.1,1.6-36.2,2.4-54.4c0.2-3.6,0.8-7,2.8-10.1c3.2-4.8,7.7-7.5,13.4-7.5
			c17.7-0.1,35.5-0.2,53.2,0c9,0.1,15.7,7,16.2,16c0.8,14.1,1.6,28.1,2.4,42.2c0.3,4.8,3.8,7.9,9.2,7.9c6.9,0.1,13.8,0,20.7,0
			C472.1,301.8,473.1,301.8,474.3,301.8z M395.5,310.1c9.3,0,18.5,0,27.8,0c6.7,0,10-3.7,9.5-10.3c-1.2-15.4-2.4-30.8-3.6-46.3
			c-0.5-7.1-3.4-9.7-10.6-9.7c-15.3,0-30.5,0-45.8,0c-7.5,0-10.3,2.6-10.8,10.1c-1.1,15.1-2.3,30.3-3.5,45.4
			c-0.6,7.2,2.6,10.8,9.8,10.8C377.4,310.1,386.4,310.1,395.5,310.1z"/>
		<path class="st62" d="M293.1,310.1c1.4,0,3.6-0.4,5.5,0.1c2.2,0.6,5.2,1.6,6.2,3.3c5.6,9.2,13.3,15.4,23.8,18.1
			c0.3,0.1,0.5,0.3,0.7,0.5c-6.2,16.5-5.8,20,4.1,35.9c-1.1,0-2.1,0-3,0c-30.5,0-60.9,0-91.4,0c-0.8,0-1.6,0.1-2.4-0.1
			c-2.3-0.4-3.1-2-2-4.1c1.7-3.3,4.4-5.6,8-6.6c5.1-1.4,8.4-4.6,10.3-9.4c2.4-6,6.7-8.6,13.2-9c8.4-0.5,14.2-5.2,17.6-12.9
			c0.7-1.6,1.1-3.4,2-4.9c0.9-1.6,2.3-3,3.4-4.6C290.2,314.6,291.5,312.6,293.1,310.1z"/>
		<path class="st47" d="M374.8,351.5c0,5.6,0,10.9,0,16.6c-3.2,0-6.4,0-9.6,0c-3.8,0-7.7,0.1-11.5-0.1c-10.6-0.5-18.8-8-20-18.3
			c-1.2-9.7,5-19.3,14.5-22.1c2.3-0.7,4.8-1,7.3-1c26.9-0.1,53.8-0.1,80.7,0c16.6,0.1,26.7,15.9,19.3,30.2c-1.3,2.4-3.3,4.5-5,6.7
			c-0.3-0.1-0.6-0.2-0.9-0.4c0-3.4,0-6.8,0-10.2c0-6.6-3.1-9.7-9.8-9.8c-23.5,0-46.9,0-70.4,0c-2.1,0-3.5-0.3-4.7-2.4
			c-2.8-4.9-8.5-6.9-13.8-5.4c-5,1.4-8.8,6.2-9,11.2c-0.2,5.5,3.2,10.6,8.3,12.4c5.1,1.8,11.2,0.1,14.1-4.6c1.6-2.6,3.4-3.3,6.2-3
			C371.7,351.6,373.1,351.5,374.8,351.5z"/>
		<path class="st62" d="M292.1,149.2c30.9,26.1,61.2,51.8,91.9,77.8c-1.2,0.1-1.8,0.3-2.5,0.3c-4.2,0-8.5-0.1-12.7,0.1
			c-8.1,0.3-13.9,3.7-20.4,11.8c-4.9-6.2-9.8-12.4-14.7-18.6c-13.3-16.9-26.6-33.7-39.9-50.6c-1-1.3-1.6-3.1-1.7-4.8
			C291.9,160.1,292.1,155,292.1,149.2z"/>
		<path class="st62" d="M267.2,243.9c0-1.7,0-2.9,0-4c0-32.5,0-65-0.1-97.6c0-3,1-5,3.4-6.7c3.1-2.1,6-4.5,9-6.7
			c0.8-0.5,2.1-1,2.9-0.6c0.7,0.3,1.3,1.7,1.3,2.6c0.1,40,0,80,0,120c0,0.3-0.1,0.6-0.2,1c-13.7,0-27.3,0-41.1,0c0-2.6,0-5.2,0-8
			C250.6,243.9,258.7,243.9,267.2,243.9z"/>
		<path class="st62" d="M258.8,260.4c0,16.6,0,32.9,0,49.4c-6.7-0.6-12.2-3.5-16.7-8c-11.1-11.3-10.8-29,0.6-40
			c0.6-0.6,1.6-1.2,2.5-1.2C249.7,260.3,254.1,260.4,258.8,260.4z"/>
		<path class="st62" d="M283.8,310c-5.7,0-11,0-16.4,0c0-16.5,0-32.8,0-49.4c2.5,0,5.1,0,8.1,0c0,1,0,2,0,3c0,10,0,19.9,0,29.9
			c0,1.8,0.3,3.1,2.2,3.6c5.5,1.4,7.2,5,6.2,10.3C283.7,308.1,283.8,308.9,283.8,310z"/>
		<path class="st62" d="M258.8,183.3c0,17.8,0,34.7,0,51.9c-2.6,0-5.2,0-8.2,0c0-1,0-2,0-3.1c0-12.5,0.1-25-0.1-37.5
			c0-2.3,0.6-3.9,2.3-5.4C254.8,187.7,256.5,185.7,258.8,183.3z"/>
		<path class="st62" d="M258.9,155.2c0,5.1,0,10.2,0,15.3c0,0.8-0.5,1.7-1.1,2.3c-3.8,3.9-7.6,7.7-11.5,11.5
			c-0.7,0.7-1.8,0.9-2.7,1.3c-0.4-1-1.2-2-1.2-3c-0.3-11.4-0.2-11.3,7.8-19.4c2.7-2.7,5.3-5.5,8-8.3
			C258.5,154.9,258.7,155,258.9,155.2z"/>
		<path class="st47" d="M416.5,351.6c2.7,0,5.2,0,7.9,0c0,5.4,0,10.7,0,16.3c-2.6,0-5.2,0-7.9,0
			C416.5,362.5,416.5,357.3,416.5,351.6z"/>
		<path class="st47" d="M399.9,351.6c2.7,0,5.2,0,7.9,0c0,5.4,0,10.7,0,16.3c-2.6,0-5.2,0-7.9,0
			C399.9,362.5,399.9,357.2,399.9,351.6z"/>
		<path class="st47" d="M383.4,351.6c2.7,0,5.2,0,7.9,0c0,5.4,0,10.7,0,16.3c-2.6,0-5.2,0-7.9,0
			C383.4,362.5,383.4,357.3,383.4,351.6z"/>
		<path class="st47" d="M441,367.7c-2.6,0.1-5.2,0.3-7.9,0.4c0-5.6,0-10.9,0-16.4c2.5,0,5.1,0,7.9,0C441,356.9,441,362.1,441,367.7z
			"/>
		<path class="st39" d="M358.3,347.2c0.1,2.3-1.7,4.2-4,4.3c-2.3,0.1-4.2-1.7-4.3-4c-0.1-2.3,1.7-4.2,4-4.3
			C356.3,343.1,358.3,344.9,358.3,347.2z"/>
		<path class="st39" d="M370.5,252.2c7,0,13.8,0,20.8,0c0,16.5,0,32.9,0,49.7c-8.1,0-16.2,0-24.6,0
			C367.9,285.4,369.2,268.8,370.5,252.2z"/>
		<path class="st39" d="M399.9,252.2c7,0,13.8,0,20.8,0c1.3,16.5,2.5,32.8,3.8,49.4c-8.3,0-16.4,0-24.7,0
			C399.9,285.2,399.9,268.8,399.9,252.2z"/>
	</g>
</g>
</svg>
