<?xml version="1.0" encoding="utf-8"?>
<!-- Generator: Adobe Illustrator 22.1.0, SVG Export Plug-In . SVG Version: 6.00 Build 0)  -->
<svg version="1.1" id="Calque_1" xmlns="http://www.w3.org/2000/svg" xmlns:xlink="http://www.w3.org/1999/xlink" x="0px" y="0px"
	 viewBox="0 0 700 480" style="enable-background:new 0 0 700 480;" xml:space="preserve">
<style type="text/css">
	.st0{fill:#DAECFF;}
	.st1{fill:#FFD258;}
	.st2{fill:#FBCEC6;}
	.st3{fill:#ADCCFF;}
	.st4{fill:#FF5F7D;}
	.st5{fill:none;stroke:#000000;stroke-width:2;stroke-miterlimit:10;}
	.st6{fill:#FFFBF2;}
	.st7{fill:#73B7A4;}
	.st8{fill:none;stroke:#000000;stroke-miterlimit:10;}
	.st9{fill:#98BFFF;}
	.st10{fill:#FFD258;stroke:#000000;stroke-width:2;stroke-miterlimit:10;}
	.st11{fill:#FEF0E1;stroke:#070707;stroke-miterlimit:10;}
	.st12{fill:#D3A533;}
	.st13{fill:#FFB5C0;stroke:#020202;stroke-miterlimit:10;}
	.st14{fill:#FF8E9E;}
	.st15{fill:#FF8E9E;stroke:#000000;stroke-miterlimit:10;}
	.st16{fill:#EA5B70;}
	.st17{fill:#020202;}
	.st18{fill:#FFD258;stroke:#050505;stroke-width:0.5;stroke-miterlimit:10;}
	.st19{fill:#FEF0E1;stroke:#020202;stroke-width:0.5;stroke-miterlimit:10;}
	.st20{fill:#DDB143;}
	.st21{fill:#D6AF8B;}
	.st22{fill:#FFFBF2;stroke:#020202;stroke-width:2;stroke-miterlimit:10;}
	.st23{fill:#FF5F7D;stroke:#020202;stroke-width:2;stroke-miterlimit:10;}
	.st24{fill:#FFFFFF;}
	.st25{fill:#ADCCFF;stroke:#020202;stroke-width:2;stroke-miterlimit:10;}
	.st26{fill:#FFD258;stroke:#050505;stroke-width:2;stroke-miterlimit:10;}
	.st27{fill:#85AAE0;}
	.st28{fill:#C99E32;}
	.st29{fill:#FFCF47;stroke:#020202;stroke-miterlimit:10;}
	.st30{fill:#FF5F7D;stroke:#050505;stroke-width:2;stroke-miterlimit:10;}
	.st31{fill:#F36B7F;stroke:#000000;stroke-miterlimit:10;}
	.st32{fill:#DBA92C;}
	.st33{fill:#73B7A4;stroke:#020202;stroke-width:2;stroke-miterlimit:10;}
	.st34{fill:#FFCF47;stroke:#020202;stroke-width:2;stroke-miterlimit:10;}
	.st35{fill:#99C6B8;}
	.st36{fill:#E2B23B;}
	.st37{fill:#C11A3E;}
	.st38{fill:#FEF0E1;stroke:#020202;stroke-miterlimit:10;}
	.st39{fill:#ADCCFF;stroke:#020202;stroke-miterlimit:10;}
	.st40{fill:#FFD258;stroke:#0C0C0C;stroke-width:0.75;stroke-miterlimit:10;}
	.st41{fill:#ADCCFF;stroke:#050505;stroke-width:2;stroke-miterlimit:10;}
	.st42{fill:#73B7A4;stroke:#050505;stroke-width:2;stroke-miterlimit:10;}
	.st43{fill:#FFFBF2;stroke:#050505;stroke-width:2;stroke-miterlimit:10;}
	.st44{fill:#FEF0E1;stroke:#020202;stroke-width:2;stroke-miterlimit:10;}
	.st45{fill:#D8A830;}
	.st46{fill:#FF5F7D;stroke:#050505;stroke-miterlimit:10;}
	.st47{fill:#73B7A4;stroke:#020202;stroke-miterlimit:10;}
	.st48{fill:#E8D2BF;}
	.st49{fill:#FFD258;stroke:#0A0A0A;stroke-width:2;stroke-miterlimit:10;}
	.st50{fill:#D8AB3A;}
	.st51{fill:#FFD258;stroke:#050505;stroke-miterlimit:10;}
	.st52{fill:#FBCEC6;stroke:#070707;stroke-miterlimit:10;}
	.st53{fill:#D84161;}
	.st54{fill:#FFD258;stroke:#0A0A0A;stroke-miterlimit:10;}
	.st55{fill:#FFD258;stroke:#0A0A0A;stroke-width:3;stroke-miterlimit:10;}
	.st56{fill:none;stroke:#0A0A0A;stroke-width:2;stroke-miterlimit:10;}
	.st57{fill:#FF5F7D;stroke:#000000;stroke-miterlimit:10;}
	.st58{fill:#FFD258;stroke:#000000;stroke-miterlimit:10;}
	.st59{fill:#FF5F7D;stroke:#050505;stroke-width:0.75;stroke-miterlimit:10;}
	.st60{fill:#FEF0E1;stroke:#020202;stroke-width:0.75;stroke-miterlimit:10;}
	.st61{fill:#FF5F7D;stroke:#050505;stroke-width:0.25;stroke-miterlimit:10;}
	.st62{fill:#FFD258;stroke:#0A0A0A;stroke-width:0.75;stroke-miterlimit:10;}
	.st63{fill:#73B7A4;stroke:#020202;stroke-width:0.25;stroke-miterlimit:10;}
	.st64{fill:#FBCEC6;stroke:#020202;stroke-miterlimit:10;}
	.st65{fill:#73B7A4;stroke:#020202;stroke-width:0.75;stroke-miterlimit:10;}
	.st66{fill:#73B7A4;stroke:#070707;stroke-miterlimit:10;}
	.st67{fill:#FFFBF2;stroke:#070707;stroke-miterlimit:10;}
	.st68{fill:#E2B139;}
	.st69{fill:#FFFBF2;stroke:#020202;stroke-miterlimit:10;}
	.st70{fill:#ADCCFF;stroke:#020202;stroke-width:0.75;stroke-miterlimit:10;}
	.st71{fill:#FFFBF2;stroke:#020202;stroke-width:0.75;stroke-miterlimit:10;}
	.st72{fill:#FFD258;stroke:#050505;stroke-width:0.75;stroke-miterlimit:10;}
	.st73{fill:#FBCEC6;stroke:#020202;stroke-width:0.75;stroke-miterlimit:10;}
	.st74{fill:#73B7A4;stroke:#050505;stroke-miterlimit:10;}
	.st75{fill:#73B7A4;stroke:#050505;stroke-width:0.75;stroke-miterlimit:10;}
	.st76{fill:#E2C2A6;}
	.st77{fill:#DBC69E;}
	.st78{fill:#D39C94;}
	.st79{fill:#E0B344;}
	.st80{fill:#E0AE32;}
	.st81{fill:#4F9982;}
	.st82{fill:#DDBA9B;}
	.st83{fill:#FF5F7D;stroke:#000000;stroke-width:0.75;stroke-miterlimit:10;}
	.st84{fill:#FFD258;stroke:#000000;stroke-width:0.75;stroke-miterlimit:10;}
	.st85{fill:none;stroke:#000000;stroke-width:0.5;stroke-miterlimit:10;}
	.st86{opacity:0.43;fill:#7F3B48;}
	.st87{opacity:0.88;fill:#98BFFF;}
	.st88{opacity:0.75;fill:#FFFBF2;}
	.st89{opacity:0.88;fill:#719BD8;}
	.st90{opacity:0.75;fill:#EAD9B7;}
	.st91{fill:#FEF0E1;}
	.st92{fill:none;stroke:#070707;stroke-miterlimit:10;}
	.st93{fill:#C1962B;}
	.st94{fill:#D6B154;}
	.st95{fill:#5DA08B;}
	.st96{fill:#C6961E;}
</style>
<rect x="-3.4" y="-4.1" class="st0" width="699.7" height="480"/>
<g id="DKmIdY.tif">
	<g>
		<path class="st46" d="M237.9,251c2.4-4.1,4.7-8.1,7.3-12c0.4-0.6,2-1,2.9-0.8c3,0.7,5.9,1.9,8.9,2.6c0.9,0.2,2.2-0.2,3-0.8
			c1.7-1.4,2.9-3.4,4.7-4.6c3.1-2.1,3.7-4.5,2.1-7.8c-0.5-1.1-0.7-2.3-1.1-3.4c-1.5-5-1.5-5.1,3.1-7.8c2.8-1.7,6-4.6,8.6-4.2
			c2.6,0.3,4.9,3.9,7,6.3c1.9,2.2,3.6,2.9,6.3,1.6c2-0.9,4.4-1.4,6.6-1.7c2-0.3,2.6-1.3,3-3c0.6-2.8,1.1-5.7,2-8.4
			c0.3-0.9,1.5-2.2,2.4-2.2c4-0.2,8-0.2,11.9,0c0.9,0.1,2.1,1.3,2.4,2.2c0.9,2.6,1.4,5.4,1.9,8.1c0.4,1.9,1.1,3.2,3.3,3.4
			c2.2,0.2,4.5,0.6,6.3,1.6c3,1.6,4.8,0.4,6.5-1.9c0.9-1.2,2-2.2,3-3.3c3.3-3.6,3.4-3.6,7.7-1.2c3,1.6,7.1,2.9,8.3,5.5
			c1.1,2.4-0.9,6.4-1.9,9.5c-0.8,2.5-0.9,4.3,1.6,5.8c1.1,0.6,2.2,1.6,2.8,2.7c2.5,4.4,5.9,4,10,2.5c6.9-2.4,7-2.2,10.6,4
			c1.4,2.4,2.6,4.9,4,7.5c-2.5,2.4-4.8,4.8-7.4,6.8c-2,1.6-2.7,3.1-1.5,5.5c0.7,1.4,1.3,3,1.3,4.6c0,4.3,2.5,5.8,6.3,6.1
			c0.1,0,0.2,0,0.3,0.1c8.1,1.9,8.1,1.9,8,10.3c0,7.2,0,7.6-7,8.7c-5,0.8-6.8,3-8.2,7.7c-1.5,5.2-0.7,8.2,3.4,11.5
			c5.1,4,4.8,4.3,1.7,10c-4.5,8-4.5,8.2-13.2,5.3c-3.2-1.1-5.6-1.2-7.5,2c-0.3,0.5-0.8,1-1.2,1.3c-5,3-5,7-3,12
			c2.2,5.6,1.9,5.8-3.4,8.9c-2.7,1.6-5.6,3-8.5,4.6c-2.7-2.9-5.3-5.7-8-8.4c-0.6-0.6-1.9-1-2.7-0.8c-3.1,0.6-6.2,1.4-9.2,2.4
			c-1,0.3-2,1.4-2.3,2.4c-0.9,2.8-1.6,5.8-2.1,8.7c-0.3,1.9-1.2,2.5-3,2.5c-3.7,0-7.4,0-11.1,0c-1.8,0-2.7-0.6-3-2.5
			c-0.3-2.4-1.3-4.6-1.6-7c-0.3-2.9-1.6-4.5-4.6-4.6c-1.2-0.1-2.5-0.2-3.5-0.8c-4.4-2.4-7.3-0.7-9.9,2.9c-1.3,1.8-3.1,3.4-4.9,5.3
			c-4-2.3-8-4.5-11.8-7c-0.7-0.5-1.2-2.2-1-3.1c0.6-2.8,1.5-5.6,2.5-8.3c0.6-1.7,0.5-2.9-1.1-4.1c-1.8-1.4-3.6-3-4.9-4.8
			c-1.7-2.4-3.6-3-6.3-1.7c-1.2,0.6-2.7,0.8-4,1.2c-5.3,1.6-5.3,1.6-8.2-3.2c-1.6-2.7-4.4-5.8-4.1-8.4c0.3-2.5,3.7-4.8,6.1-6.8
			c2.4-2,3.3-3.9,1.8-6.8c-0.5-0.9-0.8-2.1-0.9-3.2c-0.1-5-3.1-6.4-7.5-7.1c-7.3-1.3-7.3-1.6-7.3-9.1c0-8.2-0.1-8.4,8-10
			c3.9-0.8,6.7-2.1,6.6-6.6c0-0.1,0-0.2,0.1-0.3c3.2-5.6,1-9.5-3.8-12.8C240.5,253.8,239.4,252.4,237.9,251z M356.7,284.1
			c0-25.6-20.6-46.3-46.1-46.3c-25.3,0-46,20.6-46,45.7c-0.1,25.6,20.4,46.3,46,46.4C335.9,330.1,356.7,309.5,356.7,284.1z"/>
		<path class="st62" d="M465.1,187.7c-0.2,0.4-0.4,0.9-0.6,1.2c-0.5,0.6-1,1.2-1.6,1.8c-4.6,5-4.6,5-11,2.3
			c-4.8-2-10.1,0.2-12.2,5.1c-2.6,6.4-2.6,6.3-9.5,6.1c-2.5-0.1-4.2-0.8-4.7-3.4c-0.1-0.6-0.6-1.1-0.6-1.7c-0.7-5.2-5.2-5.9-8.9-7.1
			c-1.5-0.5-3.8,0.9-5.5,1.8c-3.1,1.8-5.3,1.1-7.7-1.5c-3.9-4.2-4.5-4.3-1.7-9.3c2.5-4.4,0.2-7.7-1.4-11.1c-0.6-1.3-3.2-1.7-4.8-2.6
			c-1.5-0.8-4.1-1.5-4.3-2.7c-0.6-3-0.2-6.1-0.1-9.2c0-0.4,0.9-0.9,1.5-1.2c1-0.5,2-1.1,3-1.2c5.1-0.7,5.9-5.1,7.2-8.8
			c0.4-1.2-0.9-3.1-1.4-4.7c-0.6-1.8-2.1-4.3-1.4-5.4c1.6-2.6,4.2-4.5,6.4-6.6c0.3-0.3,1.1-0.1,1.7,0.1c0.9,0.3,2,0.6,2.7,1.2
			c4.1,3.1,7.9,1.1,11.6-0.6c1.1-0.5,1.7-2.3,2.3-3.6c2.8-6.6,2.7-6.5,9.8-6.2c2.4,0.1,4,0.8,4.5,3.3c0.1,0.5,0.5,0.9,0.5,1.4
			c0.6,5.2,5,6.2,8.8,7.5c1.3,0.4,3.1-0.9,4.7-1.3c1.8-0.6,4.3-2.1,5.4-1.4c2.6,1.5,4.5,4.1,6.6,6.4c0.3,0.3,0,1.3-0.2,1.9
			c-0.3,1-0.6,2.2-1.3,3c-3.1,4.1-0.7,7.8,1,11.3c0.6,1.3,2.9,1.7,4.5,2.6c1.6,0.9,4.4,1.5,4.6,2.7c0.7,2.9,0.3,6.1,0.2,9.2
			c0,0.5-0.9,1-1.4,1.3c-0.9,0.5-1.8,1-2.8,1.1c-5.2,0.7-6.1,5.1-7.7,8.8c-0.3,0.7,0.2,1.9,0.5,2.8
			C463.2,183.2,464.2,185.4,465.1,187.7z M448.9,162.3c0-9.1-7.7-16.7-16.9-16.6c-9.2,0.1-16.6,7.6-16.6,16.9
			c0,9.1,7.7,16.7,16.9,16.6C441.5,179.1,448.9,171.5,448.9,162.3z"/>
		<path class="st69" d="M375,145.4c-1.6-2.4-3-4.5-4.7-7c3.5-2.3,6.8-4.5,10.5-7c1.6,2.3,3,4.5,4.7,6.9
			C381.9,140.8,378.5,143.1,375,145.4z"/>
		<path class="st69" d="M363.3,143.1c1.6,2.5,3,4.7,4.6,7c-3.5,2.3-6.8,4.5-10.4,6.9c-1.6-2.3-3-4.5-4.7-7
			C356.4,147.8,359.7,145.5,363.3,143.1z"/>
		<path class="st69" d="M398,315.6c-2.6-1.6-4.8-2.9-7.2-4.3c2.2-3.6,4.2-7,6.4-10.7c2.4,1.4,4.6,2.7,7.2,4.3
			C402.3,308.4,400.2,311.9,398,315.6z"/>
		<path class="st69" d="M418.8,264.5c2.5,1.5,4.7,2.8,7.2,4.3c-2.2,3.6-4.2,7-6.5,10.8c-2.5-1.5-4.7-2.8-7.2-4.3
			C414.6,271.7,416.6,268.3,418.8,264.5z"/>
		<path class="st69" d="M415.2,286.8c-2.2,3.6-4.2,7-6.5,10.7c-2.4-1.4-4.7-2.8-7.2-4.3c2.2-3.6,4.3-7.1,6.5-10.8
			C410.5,284,412.8,285.3,415.2,286.8z"/>
		<path class="st69" d="M423.2,257.3c2.2-3.7,4.3-7.1,6.5-10.8c2.4,1.4,4.7,2.8,7.2,4.3c-2.2,3.7-4.3,7.1-6.5,10.8
			C427.9,260.2,425.7,258.9,423.2,257.3z"/>
		<path class="st69" d="M305.3,192c-1.6-2.4-3-4.5-4.7-7c3.5-2.3,6.8-4.6,10.4-7c1.6,2.4,3,4.6,4.7,7
			C312.2,187.3,308.9,189.5,305.3,192z"/>
		<path class="st69" d="M293.6,189.6c1.6,2.3,3,4.5,4.6,7c-3.5,2.3-6.8,4.6-10.4,7c-1.6-2.4-3.1-4.5-4.7-6.9
			C286.7,194.3,290,192,293.6,189.6z"/>
		<path class="st69" d="M444.7,221.4c2.2-3.7,4.3-7.1,6.5-10.8c2.4,1.5,4.7,2.8,7.2,4.3c-2.2,3.6-4.2,7-6.4,10.7
			C449.6,224.3,447.3,222.9,444.7,221.4z"/>
		<path class="st69" d="M440.4,228.6c2.6,1.5,4.7,2.9,7.2,4.3c-2.2,3.7-4.3,7.1-6.5,10.7c-2.5-1.5-4.6-2.8-7.2-4.3
			C436.1,235.8,438.2,232.3,440.4,228.6z"/>
		<path class="st69" d="M340.1,168.7c-1.5-2.3-3-4.4-4.7-6.9c3.4-2.3,6.8-4.5,10.4-7c1.5,2.3,3,4.5,4.7,7
			C347,164.1,343.7,166.3,340.1,168.7z"/>
		<path class="st69" d="M328.5,166.4c1.6,2.4,3,4.6,4.6,7c-3.5,2.3-6.9,4.6-10.4,6.9c-1.6-2.3-3-4.5-4.7-6.9
			C321.5,171,324.8,168.8,328.5,166.4z"/>
	</g>
</g>
</svg>
