<?xml version="1.0" encoding="utf-8"?>
<!-- Generator: Adobe Illustrator 22.1.0, SVG Export Plug-In . SVG Version: 6.00 Build 0)  -->
<svg version="1.1" id="Calque_1" xmlns="http://www.w3.org/2000/svg" xmlns:xlink="http://www.w3.org/1999/xlink" x="0px" y="0px"
	 viewBox="0 0 700 480" style="enable-background:new 0 0 700 480;" xml:space="preserve">
<style type="text/css">
	.st0{fill:#DAECFF;}
	.st1{fill:#FFD258;}
	.st2{fill:#FBCEC6;}
	.st3{fill:#ADCCFF;}
	.st4{fill:#FF5F7D;}
	.st5{fill:none;stroke:#000000;stroke-width:2;stroke-miterlimit:10;}
	.st6{fill:#FFFBF2;}
	.st7{fill:#73B7A4;}
	.st8{fill:none;stroke:#000000;stroke-miterlimit:10;}
	.st9{fill:#98BFFF;}
	.st10{fill:#FFD258;stroke:#000000;stroke-width:2;stroke-miterlimit:10;}
	.st11{fill:#FEF0E1;stroke:#070707;stroke-miterlimit:10;}
	.st12{fill:#D3A533;}
	.st13{fill:#FFB5C0;stroke:#020202;stroke-miterlimit:10;}
	.st14{fill:#FF8E9E;}
	.st15{fill:#FF8E9E;stroke:#000000;stroke-miterlimit:10;}
	.st16{fill:#EA5B70;}
	.st17{fill:#020202;}
	.st18{fill:#FFD258;stroke:#050505;stroke-width:0.5;stroke-miterlimit:10;}
	.st19{fill:#FEF0E1;stroke:#020202;stroke-width:0.5;stroke-miterlimit:10;}
	.st20{fill:#DDB143;}
	.st21{fill:#D6AF8B;}
	.st22{fill:#FFFBF2;stroke:#020202;stroke-width:2;stroke-miterlimit:10;}
	.st23{fill:#FF5F7D;stroke:#020202;stroke-width:2;stroke-miterlimit:10;}
	.st24{fill:#FFFFFF;}
	.st25{fill:#ADCCFF;stroke:#020202;stroke-width:2;stroke-miterlimit:10;}
	.st26{fill:#FFD258;stroke:#050505;stroke-width:2;stroke-miterlimit:10;}
	.st27{fill:#85AAE0;}
	.st28{fill:#C99E32;}
	.st29{fill:#FFCF47;stroke:#020202;stroke-miterlimit:10;}
	.st30{fill:#FF5F7D;stroke:#050505;stroke-width:2;stroke-miterlimit:10;}
	.st31{fill:#F36B7F;stroke:#000000;stroke-miterlimit:10;}
	.st32{fill:#DBA92C;}
	.st33{fill:#73B7A4;stroke:#020202;stroke-width:2;stroke-miterlimit:10;}
	.st34{fill:#FFCF47;stroke:#020202;stroke-width:2;stroke-miterlimit:10;}
	.st35{fill:#99C6B8;}
	.st36{fill:#E2B23B;}
	.st37{fill:#C11A3E;}
	.st38{fill:#FEF0E1;stroke:#020202;stroke-miterlimit:10;}
	.st39{fill:#ADCCFF;stroke:#020202;stroke-miterlimit:10;}
	.st40{fill:#FFD258;stroke:#0C0C0C;stroke-width:0.75;stroke-miterlimit:10;}
	.st41{fill:#ADCCFF;stroke:#050505;stroke-width:2;stroke-miterlimit:10;}
	.st42{fill:#73B7A4;stroke:#050505;stroke-width:2;stroke-miterlimit:10;}
	.st43{fill:#FFFBF2;stroke:#050505;stroke-width:2;stroke-miterlimit:10;}
	.st44{fill:#FEF0E1;stroke:#020202;stroke-width:2;stroke-miterlimit:10;}
	.st45{fill:#D8A830;}
	.st46{fill:#FF5F7D;stroke:#050505;stroke-miterlimit:10;}
	.st47{fill:#73B7A4;stroke:#020202;stroke-miterlimit:10;}
	.st48{fill:#E8D2BF;}
	.st49{fill:#FFD258;stroke:#0A0A0A;stroke-width:2;stroke-miterlimit:10;}
	.st50{fill:#D8AB3A;}
	.st51{fill:#FFD258;stroke:#050505;stroke-miterlimit:10;}
	.st52{fill:#FBCEC6;stroke:#070707;stroke-miterlimit:10;}
	.st53{fill:#D84161;}
	.st54{fill:#FFD258;stroke:#0A0A0A;stroke-miterlimit:10;}
	.st55{fill:#FFD258;stroke:#0A0A0A;stroke-width:3;stroke-miterlimit:10;}
	.st56{fill:none;stroke:#0A0A0A;stroke-width:2;stroke-miterlimit:10;}
	.st57{fill:#FF5F7D;stroke:#000000;stroke-miterlimit:10;}
	.st58{fill:#FFD258;stroke:#000000;stroke-miterlimit:10;}
	.st59{fill:#FF5F7D;stroke:#050505;stroke-width:0.75;stroke-miterlimit:10;}
	.st60{fill:#FEF0E1;stroke:#020202;stroke-width:0.75;stroke-miterlimit:10;}
	.st61{fill:#FF5F7D;stroke:#050505;stroke-width:0.25;stroke-miterlimit:10;}
	.st62{fill:#FFD258;stroke:#0A0A0A;stroke-width:0.75;stroke-miterlimit:10;}
	.st63{fill:#73B7A4;stroke:#020202;stroke-width:0.25;stroke-miterlimit:10;}
	.st64{fill:#FBCEC6;stroke:#020202;stroke-miterlimit:10;}
	.st65{fill:#73B7A4;stroke:#020202;stroke-width:0.75;stroke-miterlimit:10;}
	.st66{fill:#73B7A4;stroke:#070707;stroke-miterlimit:10;}
	.st67{fill:#FFFBF2;stroke:#070707;stroke-miterlimit:10;}
	.st68{fill:#E2B139;}
	.st69{fill:#FFFBF2;stroke:#020202;stroke-miterlimit:10;}
	.st70{fill:#ADCCFF;stroke:#020202;stroke-width:0.75;stroke-miterlimit:10;}
	.st71{fill:#FFFBF2;stroke:#020202;stroke-width:0.75;stroke-miterlimit:10;}
	.st72{fill:#FFD258;stroke:#050505;stroke-width:0.75;stroke-miterlimit:10;}
	.st73{fill:#FBCEC6;stroke:#020202;stroke-width:0.75;stroke-miterlimit:10;}
	.st74{fill:#73B7A4;stroke:#050505;stroke-miterlimit:10;}
	.st75{fill:#73B7A4;stroke:#050505;stroke-width:0.75;stroke-miterlimit:10;}
	.st76{fill:#E2C2A6;}
	.st77{fill:#DBC69E;}
	.st78{fill:#D39C94;}
	.st79{fill:#E0B344;}
	.st80{fill:#E0AE32;}
	.st81{fill:#4F9982;}
	.st82{fill:#DDBA9B;}
	.st83{fill:#FF5F7D;stroke:#000000;stroke-width:0.75;stroke-miterlimit:10;}
	.st84{fill:#FFD258;stroke:#000000;stroke-width:0.75;stroke-miterlimit:10;}
	.st85{fill:none;stroke:#000000;stroke-width:0.5;stroke-miterlimit:10;}
	.st86{opacity:0.43;fill:#7F3B48;}
	.st87{opacity:0.88;fill:#98BFFF;}
	.st88{opacity:0.75;fill:#FFFBF2;}
	.st89{opacity:0.88;fill:#719BD8;}
	.st90{opacity:0.75;fill:#EAD9B7;}
	.st91{fill:#FEF0E1;}
	.st92{fill:none;stroke:#070707;stroke-miterlimit:10;}
	.st93{fill:#C1962B;}
	.st94{fill:#D6B154;}
	.st95{fill:#5DA08B;}
	.st96{fill:#C6961E;}
</style>
<rect x="-2.8" y="-2" class="st0" width="699.7" height="480"/>
<g id="JpyuK2.tif">
	<g>
		<path class="st51" d="M318.4,207.3c0-1.9,0-3.5,0-5.1c0-16.9,0-33.7,0-50.6c0-0.6,0-1.3,0-1.9c0.1-2.8,1.9-4.6,4.4-4.6
			c2.5,0,4.3,1.9,4.4,4.6c0.1,4.2,0,8.3,0,12.7c13.1,0,26,0,39.4,0c0-4.2,0-8.4,0-12.7c0-2.8,1.9-4.6,4.4-4.6c2.5,0,4.2,1.9,4.4,4.7
			c0,0.6,0,1.3,0,1.9c0,17.4,0,34.8,0,52.2c0,1,0,2,0,3.2c5.1,0.5,9.9,0.8,14.8,1.4c20.8,2.4,41.3,5.9,60.7,14.3
			c6.7,2.9,13.2,6.2,18,12.1c3.8,4.7,3.8,9.3,0,13.9c-1.4,1.7-3,3.5-4.9,4.7c-4.8,2.9-9.7,5.9-14.8,8.1c-15,6.4-30.9,9.7-46.9,12.1
			c-26.9,3.9-53.9,4.6-81,2.7c-24.1-1.7-47.9-5.1-70.4-14.2c-5.9-2.4-11.6-5.4-16.7-9.1c-9.9-7.2-9.8-14.8-0.2-22.4
			c8.4-6.7,18.4-10.3,28.6-13.3c17.1-5.1,34.6-8,52.3-9.4C315.7,207.7,316.9,207.5,318.4,207.3z M349.2,214.9
			c-24.3,0.5-48.4,1.5-72.2,6.6c-8.7,1.9-17.4,3.9-25.2,8.7c-10.5,6.5-10.5,15.4,0,21.9c5.6,3.5,11.9,5.5,18.2,7.1
			c22.1,5.7,44.7,7.2,67.4,8c23.2,0.8,46.3-0.3,69.2-3.8c10.7-1.6,21.2-4.5,31.5-7.6c4.3-1.3,8.4-4,11.9-7
			c5.3-4.5,5.1-10.6,0.1-15.5c-1.8-1.7-3.8-3.3-6-4.2c-6.9-2.6-13.7-5.4-20.8-7.1C399,216.4,374,215.4,349.2,214.9z M327.2,206.5
			c13.2,0,26.2,0,39.1,0c0-6,0-11.8,0-17.5c-13.2,0-26.1,0-39.1,0C327.2,194.9,327.2,200.6,327.2,206.5z M327.3,179.8
			c13.2,0,26.1,0,39,0c0-2.9,0-5.7,0-8.4c-13.1,0-26,0-39,0C327.3,174.2,327.3,176.9,327.3,179.8z"/>
		<path class="st39" d="M305.4,353c0-23.4,0-46.2,0-69c13.1,0.7,26,1.4,39.1,2.1c0,22.8,0,45.6,0,69.1
			C331.5,354.4,318.6,353.7,305.4,353z"/>
		<path class="st39" d="M353.5,355.2c0-23.5,0-46.3,0-69.1c13-0.7,25.9-1.4,39-2.1c0,22.7,0,45.5,0,69
			C379.7,353.7,366.8,354.4,353.5,355.2z"/>
		<path class="st39" d="M261.6,275.7c11.5,2.4,23,4.8,34.7,7.3c0,22.5,0,45.3,0,68.6c-6-1.1-11.9-2-17.7-3.2
			c-5.1-1.1-10.1-2.5-15.1-3.7c-1.5-0.3-2.1-0.9-2.1-2.6c0.1-21.8,0-43.6,0-65.3C261.5,276.3,261.6,275.9,261.6,275.7z"/>
		<path class="st39" d="M401.7,282.9c11.7-2.4,23.2-4.8,34.8-7.3c0,0.7,0,1.6,0,2.5c0,21,0,42.1,0,63.1c0,2.1-0.4,3.1-2.6,3.5
			c-10.7,2.3-21.3,4.7-32.3,7.2C401.7,328.4,401.7,305.6,401.7,282.9z"/>
		<path class="st39" d="M226.5,257.9c7.9,6.2,16,10.8,24.9,14c0.7,0.2,1.3,1.8,1.3,2.8c0.1,12.4,0.1,24.8,0.1,37.2
			c0,8.7,0,17.5,0,26.2c0,0.9,0,1.8,0,3.1c-8.5-3.4-16.7-6.7-22.9-13.4c-2.1-2.3-3.3-4.9-3.3-8.1c0-19.9,0-39.7,0-59.6
			C226.5,259.6,226.5,259,226.5,257.9z"/>
		<path class="st39" d="M471.6,258c0,13.9,0,27.3,0,40.7c0,6.6-0.2,13.1,0.1,19.7c0.2,4.6-1.7,8.1-4.9,11.1
			c-6,5.5-13.4,8.6-21.2,11.6c-0.1-1-0.2-1.8-0.2-2.5c0-21.2,0-42.5-0.1-63.7c0-1.9,0.5-2.9,2.4-3.5c8-2.7,15.2-6.9,21.9-12
			C470.1,259,470.6,258.6,471.6,258z"/>
		<path class="st39" d="M349,258.7c0,0.2,0,0.5,0,0.7c16.5-1.2,33.1-2,49.6-3.6c12.3-1.2,24.5-3.5,36.1-8c2.7-1,5.4-2.3,7.8-3.8
			c3.3-2,3.3-3.7-0.1-5.7c-2.5-1.5-5.1-2.7-7.9-3.8c-14.7-5.6-30.1-7.8-45.6-9.1c-33.4-2.7-66.8-2.7-100,2.6
			c-10.8,1.7-21.5,4.1-31.3,9.1c-1.8,0.9-3.2,2.7-4.8,4.2c1.6,1.4,3,3.4,4.9,4.1c7.3,2.7,14.7,5.6,22.2,7.3
			C302.7,257.7,325.9,258.5,349,258.7z"/>
	</g>
</g>
</svg>
