<?xml version="1.0" encoding="utf-8"?>
<!-- Generator: Adobe Illustrator 22.1.0, SVG Export Plug-In . SVG Version: 6.00 Build 0)  -->
<svg version="1.1" id="Calque_1" xmlns="http://www.w3.org/2000/svg" xmlns:xlink="http://www.w3.org/1999/xlink" x="0px" y="0px"
	 viewBox="0 0 700 480" style="enable-background:new 0 0 700 480;" xml:space="preserve">
<style type="text/css">
	.st0{fill:#DAECFF;}
	.st1{fill:#FFD258;}
	.st2{fill:#FBCEC6;}
	.st3{fill:#ADCCFF;}
	.st4{fill:#FF5F7D;}
	.st5{fill:none;stroke:#000000;stroke-width:2;stroke-miterlimit:10;}
	.st6{fill:#FFFBF2;}
	.st7{fill:#73B7A4;}
	.st8{fill:none;stroke:#000000;stroke-miterlimit:10;}
	.st9{fill:#98BFFF;}
	.st10{fill:#FFD258;stroke:#000000;stroke-width:2;stroke-miterlimit:10;}
	.st11{fill:#FEF0E1;stroke:#070707;stroke-miterlimit:10;}
	.st12{fill:#D3A533;}
	.st13{fill:#FFB5C0;stroke:#020202;stroke-miterlimit:10;}
	.st14{fill:#FF8E9E;}
	.st15{fill:#FF8E9E;stroke:#000000;stroke-miterlimit:10;}
	.st16{fill:#EA5B70;}
	.st17{fill:#020202;}
	.st18{fill:#FFD258;stroke:#050505;stroke-width:0.5;stroke-miterlimit:10;}
	.st19{fill:#FEF0E1;stroke:#020202;stroke-width:0.5;stroke-miterlimit:10;}
	.st20{fill:#DDB143;}
	.st21{fill:#D6AF8B;}
	.st22{fill:#FFFBF2;stroke:#020202;stroke-width:2;stroke-miterlimit:10;}
	.st23{fill:#FF5F7D;stroke:#020202;stroke-width:2;stroke-miterlimit:10;}
	.st24{fill:#FFFFFF;}
	.st25{fill:#ADCCFF;stroke:#020202;stroke-width:2;stroke-miterlimit:10;}
	.st26{fill:#FFD258;stroke:#050505;stroke-width:2;stroke-miterlimit:10;}
	.st27{fill:#85AAE0;}
	.st28{fill:#C99E32;}
	.st29{fill:#FFCF47;stroke:#020202;stroke-miterlimit:10;}
	.st30{fill:#FF5F7D;stroke:#050505;stroke-width:2;stroke-miterlimit:10;}
	.st31{fill:#F36B7F;stroke:#000000;stroke-miterlimit:10;}
	.st32{fill:#DBA92C;}
	.st33{fill:#73B7A4;stroke:#020202;stroke-width:2;stroke-miterlimit:10;}
	.st34{fill:#FFCF47;stroke:#020202;stroke-width:2;stroke-miterlimit:10;}
	.st35{fill:#99C6B8;}
	.st36{fill:#E2B23B;}
	.st37{fill:#C11A3E;}
	.st38{fill:#FEF0E1;stroke:#020202;stroke-miterlimit:10;}
	.st39{fill:#ADCCFF;stroke:#020202;stroke-miterlimit:10;}
	.st40{fill:#FFD258;stroke:#0C0C0C;stroke-width:0.75;stroke-miterlimit:10;}
	.st41{fill:#ADCCFF;stroke:#050505;stroke-width:2;stroke-miterlimit:10;}
	.st42{fill:#73B7A4;stroke:#050505;stroke-width:2;stroke-miterlimit:10;}
	.st43{fill:#FFFBF2;stroke:#050505;stroke-width:2;stroke-miterlimit:10;}
	.st44{fill:#FEF0E1;stroke:#020202;stroke-width:2;stroke-miterlimit:10;}
	.st45{fill:#D8A830;}
	.st46{fill:#FF5F7D;stroke:#050505;stroke-miterlimit:10;}
	.st47{fill:#73B7A4;stroke:#020202;stroke-miterlimit:10;}
	.st48{fill:#E8D2BF;}
	.st49{fill:#FFD258;stroke:#0A0A0A;stroke-width:2;stroke-miterlimit:10;}
	.st50{fill:#D8AB3A;}
	.st51{fill:#FFD258;stroke:#050505;stroke-miterlimit:10;}
	.st52{fill:#FBCEC6;stroke:#070707;stroke-miterlimit:10;}
	.st53{fill:#D84161;}
	.st54{fill:#FFD258;stroke:#0A0A0A;stroke-miterlimit:10;}
	.st55{fill:#FFD258;stroke:#0A0A0A;stroke-width:3;stroke-miterlimit:10;}
	.st56{fill:none;stroke:#0A0A0A;stroke-width:2;stroke-miterlimit:10;}
	.st57{fill:#FF5F7D;stroke:#000000;stroke-miterlimit:10;}
	.st58{fill:#FFD258;stroke:#000000;stroke-miterlimit:10;}
	.st59{fill:#FF5F7D;stroke:#050505;stroke-width:0.75;stroke-miterlimit:10;}
	.st60{fill:#FEF0E1;stroke:#020202;stroke-width:0.75;stroke-miterlimit:10;}
	.st61{fill:#FF5F7D;stroke:#050505;stroke-width:0.25;stroke-miterlimit:10;}
	.st62{fill:#FFD258;stroke:#0A0A0A;stroke-width:0.75;stroke-miterlimit:10;}
	.st63{fill:#73B7A4;stroke:#020202;stroke-width:0.25;stroke-miterlimit:10;}
	.st64{fill:#FBCEC6;stroke:#020202;stroke-miterlimit:10;}
	.st65{fill:#73B7A4;stroke:#020202;stroke-width:0.75;stroke-miterlimit:10;}
	.st66{fill:#73B7A4;stroke:#070707;stroke-miterlimit:10;}
	.st67{fill:#FFFBF2;stroke:#070707;stroke-miterlimit:10;}
	.st68{fill:#E2B139;}
	.st69{fill:#FFFBF2;stroke:#020202;stroke-miterlimit:10;}
	.st70{fill:#ADCCFF;stroke:#020202;stroke-width:0.75;stroke-miterlimit:10;}
	.st71{fill:#FFFBF2;stroke:#020202;stroke-width:0.75;stroke-miterlimit:10;}
	.st72{fill:#FFD258;stroke:#050505;stroke-width:0.75;stroke-miterlimit:10;}
	.st73{fill:#FBCEC6;stroke:#020202;stroke-width:0.75;stroke-miterlimit:10;}
	.st74{fill:#73B7A4;stroke:#050505;stroke-miterlimit:10;}
	.st75{fill:#73B7A4;stroke:#050505;stroke-width:0.75;stroke-miterlimit:10;}
	.st76{fill:#E2C2A6;}
	.st77{fill:#DBC69E;}
	.st78{fill:#D39C94;}
	.st79{fill:#E0B344;}
	.st80{fill:#E0AE32;}
	.st81{fill:#4F9982;}
	.st82{fill:#DDBA9B;}
	.st83{fill:#FF5F7D;stroke:#000000;stroke-width:0.75;stroke-miterlimit:10;}
	.st84{fill:#FFD258;stroke:#000000;stroke-width:0.75;stroke-miterlimit:10;}
	.st85{fill:none;stroke:#000000;stroke-width:0.5;stroke-miterlimit:10;}
	.st86{opacity:0.43;fill:#7F3B48;}
	.st87{opacity:0.88;fill:#98BFFF;}
	.st88{opacity:0.75;fill:#FFFBF2;}
	.st89{opacity:0.88;fill:#719BD8;}
	.st90{opacity:0.75;fill:#EAD9B7;}
	.st91{fill:#FEF0E1;}
	.st92{fill:none;stroke:#070707;stroke-miterlimit:10;}
	.st93{fill:#C1962B;}
	.st94{fill:#D6B154;}
	.st95{fill:#5DA08B;}
	.st96{fill:#C6961E;}
</style>
<rect x="2.2" y="2.6" class="st1" width="703.1" height="476.3"/>
<g id="IUvIMg.tif">
	<g>
		<path class="st47" d="M353.5,371.3C290,371.1,240.7,319,241.6,257.6c1-60,49.8-110.3,112.2-110.2c63.6,0.1,113,52.4,111.8,114
			C464.6,321.3,415.8,371.3,353.5,371.3z M353.7,175.4c-46.1,0-83.9,37.6-84,83.4c-0.1,46.8,37.2,84.4,83.9,84.6
			c46.1,0.2,84.1-37.6,84.1-83.8C437.7,213.1,400,175.4,353.7,175.4z"/>
		<path class="st24" d="M353.7,175.4c46.4,0,84,37.7,84,84.2c0,46.2-38,84-84.1,83.8c-46.6-0.2-83.9-37.8-83.9-84.6
			C269.7,212.9,307.6,175.4,353.7,175.4z M428.3,259.4c0-41.3-33.4-74.7-74.7-74.6c-41.2,0.1-74.5,33.3-74.6,74.5
			c0,41.3,33.2,74.7,74.6,74.7C394.8,334,428.3,300.6,428.3,259.4z"/>
		<path class="st55" d="M428.3,259.4c0,41.3-33.5,74.7-74.7,74.6c-41.3-0.1-74.6-33.4-74.6-74.7c0-41.2,33.4-74.4,74.6-74.5
			C394.8,184.7,428.3,218.1,428.3,259.4z M353.4,193.7c-6.2,1.2-12.6,2.2-18.9,3.6c-3.2,0.7-4.1,2.3-3.9,5.5
			c0.6,7.9,3,15.2,8.1,21.3c7.6,9.2,19.4,10,28.1,1.8c6.3-6,8.9-13.7,9.8-22.1c0.5-4.3-0.6-5.9-4.7-6.8
			C365.9,195.7,359.8,194.8,353.4,193.7z M353.4,325.3c6.3-1.1,12.7-2.1,19-3.5c3.5-0.8,4.5-2.4,4.2-6c-0.6-7.7-3.1-14.8-8-20.9
			c-7.2-8.9-18.5-10.1-27.1-2.7c-7.2,6.1-10,14.5-10.9,23.7c-0.3,3.6,0.7,5.2,4.2,6C340.9,323.2,347.1,324.2,353.4,325.3z
			 M307.4,264.3c-5.1,0.4-9.9,1.5-14.4,3.6c-2.7,1.2-3.8,3-3.3,5.5c2.8,13.1,9.2,24.4,18.9,33.6c2.1,2,4.8,1.9,6.7-0.1
			c5.7-6.1,10.3-12.8,12.5-21c2.3-8.7-1.2-15.9-9.6-19C314.8,265.5,311.1,265.1,307.4,264.3z M306.5,255.1c4.1-0.7,7.3-1,10.2-1.8
			c9-2.7,13.3-9.4,11.5-18.5c-1.8-8.9-6.9-16.1-13.1-22.6c-1.9-1.9-4.5-1.6-6.7,0.5c-9.2,8.9-15.3,19.6-18.3,32.1
			c-0.9,3.7-0.1,5.7,3.4,6.9C298,253.2,302.8,254.2,306.5,255.1z M401.5,255.2c4.4-1.3,8.7-2.3,12.8-3.8c2.8-1,3.7-3,3.1-5.5
			c-2.9-13.1-9.2-24.3-19-33.6c-2-1.8-4.7-1.8-6.5,0.1c-5.8,6.1-10.5,12.9-12.6,21.2c-2.2,8.6,1.2,15.8,9.5,18.9
			C392.9,254,397.3,254.4,401.5,255.2z M401.8,263.6c-4,0.6-7.8,0.8-11.3,1.9c-8.9,2.7-13,9.3-11.3,18.3c1.8,9,6.9,16.1,13.1,22.6
			c1.8,1.9,4.6,1.6,6.7-0.5c9.2-8.9,15.4-19.6,18.3-32c0.9-3.8,0.1-5.7-3.6-7C409.7,265.5,405.7,264.7,401.8,263.6z M353.6,277.9
			c10.3,0,18.6-8.1,18.7-18.4c0.1-10.5-8.1-18.8-18.5-18.8c-10.3,0-18.6,8.1-18.7,18.4C335,269.6,343.1,277.9,353.6,277.9z"/>
		<path class="st0" d="M353.4,193.7c6.4,1.1,12.5,2,18.5,3.3c4.2,0.9,5.2,2.5,4.7,6.8c-0.9,8.4-3.6,16.2-9.8,22.1
			c-8.7,8.3-20.5,7.4-28.1-1.8c-5.1-6.2-7.6-13.4-8.1-21.3c-0.2-3.2,0.7-4.8,3.9-5.5C340.8,195.9,347.2,194.9,353.4,193.7z"/>
		<path class="st0" d="M353.4,325.3c-6.4-1.2-12.5-2.1-18.6-3.5c-3.6-0.8-4.6-2.4-4.2-6c0.9-9.1,3.7-17.5,10.9-23.7
			c8.7-7.4,19.9-6.1,27.1,2.7c4.9,6.1,7.4,13.1,8,20.9c0.3,3.6-0.6,5.2-4.2,6C366.2,323.2,359.8,324.2,353.4,325.3z"/>
		<path class="st0" d="M307.4,264.3c3.6,0.8,7.4,1.2,10.8,2.5c8.4,3.2,11.9,10.3,9.6,19c-2.2,8.2-6.8,14.9-12.5,21
			c-1.9,2.1-4.6,2.1-6.7,0.1c-9.7-9.3-16.1-20.5-18.9-33.6c-0.5-2.5,0.6-4.3,3.3-5.5C297.6,265.8,302.3,264.7,307.4,264.3z"/>
		<path class="st0" d="M306.5,255.1c-3.7-0.9-8.4-1.9-13-3.4c-3.5-1.2-4.3-3.2-3.4-6.9c2.9-12.5,9.1-23.2,18.3-32.1
			c2.2-2.1,4.8-2.5,6.7-0.5c6.2,6.4,11.3,13.6,13.1,22.6c1.8,9.1-2.4,15.8-11.5,18.5C313.7,254.1,310.6,254.4,306.5,255.1z"/>
		<path class="st0" d="M401.5,255.2c-4.3-0.9-8.6-1.2-12.6-2.7c-8.3-3.1-11.8-10.2-9.5-18.9c2.1-8.3,6.9-15.1,12.6-21.2
			c1.8-1.9,4.5-2,6.5-0.1c9.8,9.2,16.1,20.4,19,33.6c0.6,2.5-0.4,4.5-3.1,5.5C410.3,252.9,406,254,401.5,255.2z"/>
		<path class="st0" d="M401.8,263.6c3.9,1,7.9,1.9,11.8,3.3c3.7,1.3,4.5,3.2,3.6,7c-2.9,12.5-9.1,23.1-18.3,32
			c-2.1,2-4.9,2.4-6.7,0.5c-6.2-6.4-11.3-13.6-13.1-22.6c-1.8-9,2.4-15.7,11.3-18.3C394,264.4,397.8,264.2,401.8,263.6z"/>
		<path class="st0" d="M353.6,277.9c-10.4,0-18.6-8.3-18.5-18.8c0.1-10.3,8.4-18.4,18.7-18.4c10.4,0,18.6,8.3,18.5,18.8
			C372.2,269.9,363.9,278,353.6,277.9z"/>
	</g>
</g>
</svg>
