<?xml version="1.0" encoding="utf-8"?>
<!-- Generator: Adobe Illustrator 22.1.0, SVG Export Plug-In . SVG Version: 6.00 Build 0)  -->
<svg version="1.1" id="Calque_1" xmlns="http://www.w3.org/2000/svg" xmlns:xlink="http://www.w3.org/1999/xlink" x="0px" y="0px"
	 viewBox="0 0 700 480" style="enable-background:new 0 0 700 480;" xml:space="preserve">
<style type="text/css">
	.st0{fill:#DAECFF;}
	.st1{fill:#FFD258;}
	.st2{fill:#FBCEC6;}
	.st3{fill:#ADCCFF;}
	.st4{fill:#FF5F7D;}
	.st5{fill:none;stroke:#000000;stroke-width:2;stroke-miterlimit:10;}
	.st6{fill:#FFFBF2;}
	.st7{fill:#73B7A4;}
	.st8{fill:none;stroke:#000000;stroke-miterlimit:10;}
	.st9{fill:#98BFFF;}
	.st10{fill:#FFD258;stroke:#000000;stroke-width:2;stroke-miterlimit:10;}
	.st11{fill:#FEF0E1;stroke:#070707;stroke-miterlimit:10;}
	.st12{fill:#D3A533;}
	.st13{fill:#FFB5C0;stroke:#020202;stroke-miterlimit:10;}
	.st14{fill:#FF8E9E;}
	.st15{fill:#FF8E9E;stroke:#000000;stroke-miterlimit:10;}
	.st16{fill:#EA5B70;}
	.st17{fill:#020202;}
	.st18{fill:#FFD258;stroke:#050505;stroke-width:0.5;stroke-miterlimit:10;}
	.st19{fill:#FEF0E1;stroke:#020202;stroke-width:0.5;stroke-miterlimit:10;}
	.st20{fill:#DDB143;}
	.st21{fill:#D6AF8B;}
	.st22{fill:#FFFBF2;stroke:#020202;stroke-width:2;stroke-miterlimit:10;}
	.st23{fill:#FF5F7D;stroke:#020202;stroke-width:2;stroke-miterlimit:10;}
	.st24{fill:#FFFFFF;}
	.st25{fill:#ADCCFF;stroke:#020202;stroke-width:2;stroke-miterlimit:10;}
	.st26{fill:#FFD258;stroke:#050505;stroke-width:2;stroke-miterlimit:10;}
	.st27{fill:#85AAE0;}
	.st28{fill:#C99E32;}
	.st29{fill:#FFCF47;stroke:#020202;stroke-miterlimit:10;}
	.st30{fill:#FF5F7D;stroke:#050505;stroke-width:2;stroke-miterlimit:10;}
	.st31{fill:#F36B7F;stroke:#000000;stroke-miterlimit:10;}
	.st32{fill:#DBA92C;}
	.st33{fill:#73B7A4;stroke:#020202;stroke-width:2;stroke-miterlimit:10;}
	.st34{fill:#FFCF47;stroke:#020202;stroke-width:2;stroke-miterlimit:10;}
	.st35{fill:#99C6B8;}
	.st36{fill:#E2B23B;}
	.st37{fill:#C11A3E;}
	.st38{fill:#FEF0E1;stroke:#020202;stroke-miterlimit:10;}
	.st39{fill:#ADCCFF;stroke:#020202;stroke-miterlimit:10;}
	.st40{fill:#FFD258;stroke:#0C0C0C;stroke-width:0.75;stroke-miterlimit:10;}
	.st41{fill:#ADCCFF;stroke:#050505;stroke-width:2;stroke-miterlimit:10;}
	.st42{fill:#73B7A4;stroke:#050505;stroke-width:2;stroke-miterlimit:10;}
	.st43{fill:#FFFBF2;stroke:#050505;stroke-width:2;stroke-miterlimit:10;}
	.st44{fill:#FEF0E1;stroke:#020202;stroke-width:2;stroke-miterlimit:10;}
	.st45{fill:#D8A830;}
	.st46{fill:#FF5F7D;stroke:#050505;stroke-miterlimit:10;}
	.st47{fill:#73B7A4;stroke:#020202;stroke-miterlimit:10;}
	.st48{fill:#E8D2BF;}
	.st49{fill:#FFD258;stroke:#0A0A0A;stroke-width:2;stroke-miterlimit:10;}
	.st50{fill:#D8AB3A;}
	.st51{fill:#FFD258;stroke:#050505;stroke-miterlimit:10;}
	.st52{fill:#FBCEC6;stroke:#070707;stroke-miterlimit:10;}
	.st53{fill:#D84161;}
	.st54{fill:#FFD258;stroke:#0A0A0A;stroke-miterlimit:10;}
	.st55{fill:#FFD258;stroke:#0A0A0A;stroke-width:3;stroke-miterlimit:10;}
	.st56{fill:none;stroke:#0A0A0A;stroke-width:2;stroke-miterlimit:10;}
	.st57{fill:#FF5F7D;stroke:#000000;stroke-miterlimit:10;}
	.st58{fill:#FFD258;stroke:#000000;stroke-miterlimit:10;}
	.st59{fill:#FF5F7D;stroke:#050505;stroke-width:0.75;stroke-miterlimit:10;}
	.st60{fill:#FEF0E1;stroke:#020202;stroke-width:0.75;stroke-miterlimit:10;}
	.st61{fill:#FF5F7D;stroke:#050505;stroke-width:0.25;stroke-miterlimit:10;}
	.st62{fill:#FFD258;stroke:#0A0A0A;stroke-width:0.75;stroke-miterlimit:10;}
	.st63{fill:#73B7A4;stroke:#020202;stroke-width:0.25;stroke-miterlimit:10;}
	.st64{fill:#FBCEC6;stroke:#020202;stroke-miterlimit:10;}
	.st65{fill:#73B7A4;stroke:#020202;stroke-width:0.75;stroke-miterlimit:10;}
	.st66{fill:#73B7A4;stroke:#070707;stroke-miterlimit:10;}
	.st67{fill:#FFFBF2;stroke:#070707;stroke-miterlimit:10;}
	.st68{fill:#E2B139;}
	.st69{fill:#FFFBF2;stroke:#020202;stroke-miterlimit:10;}
	.st70{fill:#ADCCFF;stroke:#020202;stroke-width:0.75;stroke-miterlimit:10;}
	.st71{fill:#FFFBF2;stroke:#020202;stroke-width:0.75;stroke-miterlimit:10;}
	.st72{fill:#FFD258;stroke:#050505;stroke-width:0.75;stroke-miterlimit:10;}
	.st73{fill:#FBCEC6;stroke:#020202;stroke-width:0.75;stroke-miterlimit:10;}
	.st74{fill:#73B7A4;stroke:#050505;stroke-miterlimit:10;}
	.st75{fill:#73B7A4;stroke:#050505;stroke-width:0.75;stroke-miterlimit:10;}
	.st76{fill:#E2C2A6;}
	.st77{fill:#DBC69E;}
	.st78{fill:#D39C94;}
	.st79{fill:#E0B344;}
	.st80{fill:#E0AE32;}
	.st81{fill:#4F9982;}
	.st82{fill:#DDBA9B;}
	.st83{fill:#FF5F7D;stroke:#000000;stroke-width:0.75;stroke-miterlimit:10;}
	.st84{fill:#FFD258;stroke:#000000;stroke-width:0.75;stroke-miterlimit:10;}
	.st85{fill:none;stroke:#000000;stroke-width:0.5;stroke-miterlimit:10;}
	.st86{opacity:0.43;fill:#7F3B48;}
	.st87{opacity:0.88;fill:#98BFFF;}
	.st88{opacity:0.75;fill:#FFFBF2;}
	.st89{opacity:0.88;fill:#719BD8;}
	.st90{opacity:0.75;fill:#EAD9B7;}
	.st91{fill:#FEF0E1;}
	.st92{fill:none;stroke:#070707;stroke-miterlimit:10;}
	.st93{fill:#C1962B;}
	.st94{fill:#D6B154;}
	.st95{fill:#5DA08B;}
	.st96{fill:#C6961E;}
</style>
<rect x="-2" y="1.8" class="st1" width="703" height="476"/>
<path class="st1" d="M502.2,452H260.5c-43.5,0-79.2-35.6-79.2-79.2V139.6c0-43.5,35.6-79.2,79.2-79.2h241.7
	c43.5,0,79.2,35.6,79.2,79.2v233.2C581.3,416.4,545.7,452,502.2,452z"/>
<g id="GgBy4x.tif">
	<g>
		<path class="st38" d="M379.8,239.5c0-3.2-0.4-6.4,0.1-9.3c1.2-7,7.8-11.8,14.6-11.1c7.3,0.8,12.5,6.5,12.5,13.8
			c0,37.9,0,75.9,0,113.8c0,0.8,0,1.6,0,2.5c13.9,0,27.4,0,41.2,0c0-0.8,0-1.5,0-2.2c0-38.3,0-76.6,0-114.9c0-2.4-0.1-4.9-0.5-7.3
			c-4-22.3-16.5-37.8-38.1-44.4c-22.2-6.8-41.8-1-57.5,16.3c-10.9,12.1-14.5,26.6-13.4,42.7C352.2,239.5,365.8,239.5,379.8,239.5z
			 M269.9,184.8c0,0.8,0,1.4,0,2c0,38.4,0,76.9,0,115.3c0,2.8,0.3,5.6,0.8,8.3c4.2,25.1,24.7,43.6,50.3,45.5
			c24.9,1.9,48-13.7,55.9-37.6c2.6-7.8,3.1-15.7,2.6-23.8c-13.7,0-27.3,0-41.2,0c0,3.2,0.4,6.4-0.1,9.3c-1.2,7-7.9,11.7-14.7,11
			c-7.3-0.8-12.4-6.5-12.4-13.9c0-37.9,0-75.7,0-113.6c0-0.8,0-1.7,0-2.6C297.3,184.8,283.7,184.8,269.9,184.8z M359.1,287.6
			c7.6,0,15.1,0,22.7,0c3.5,0,4.6-1.1,4.6-4.6c0-10.6,0-21.3,0-31.9c0-3.5-1.1-4.6-4.6-4.6c-15.2,0-30.4,0-45.6,0
			c-3.5,0-4.6,1.1-4.6,4.6c0,10.6,0,21.3,0,31.9c0,3.5,1.1,4.6,4.6,4.6C343.8,287.6,351.4,287.6,359.1,287.6z M290.7,171
			c-7.6,0-15.1,0-22.7,0c-0.7,0-1.4,0-2.1,0.1c-1.7,0.4-2.8,1.5-2.8,3.3c0,1.8,1,2.9,2.8,3.3c0.7,0.2,1.4,0.1,2.1,0.1
			c15,0,30,0,45,0c0.9,0,2.1,0.1,2.7-0.4c0.9-0.8,2.1-2,2.1-3.1c0-1-1.1-2.3-2.1-3.1c-0.5-0.5-1.6-0.3-2.5-0.3
			C305.7,171,298.2,171,290.7,171z M427.6,363c7.5,0,15,0,22.5,0c0.7,0,1.4,0,2.1-0.1c1.7-0.4,2.8-1.5,2.8-3.3c0-1.8-1-2.9-2.7-3.3
			c-0.7-0.2-1.4-0.1-2.1-0.1c-15,0-30,0-45,0c-0.8,0-1.6,0-2.3,0.2c-1.6,0.4-2.6,1.5-2.6,3.2c0,1.7,0.9,2.8,2.5,3.3
			c0.7,0.2,1.6,0.2,2.3,0.2C412.6,363,420.1,363,427.6,363z"/>
		<path class="st38" d="M379.8,239.5c-14,0-27.6,0-41.2,0c-1.1-16.1,2.5-30.7,13.4-42.7c15.7-17.3,35.3-23.1,57.5-16.3
			c21.7,6.6,34.1,22.1,38.1,44.4c0.4,2.4,0.5,4.8,0.5,7.3c0,38.3,0,76.6,0,114.9c0,0.7,0,1.4,0,2.2c-13.8,0-27.3,0-41.2,0
			c0-0.8,0-1.7,0-2.5c0-37.9,0-75.9,0-113.8c0-7.4-5.2-13.1-12.5-13.8c-6.8-0.7-13.5,4.1-14.6,11.1
			C379.3,233.1,379.8,236.2,379.8,239.5z"/>
		<path class="st39" d="M359.1,287.6c-7.6,0-15.3,0-22.9,0c-3.5,0-4.6-1.1-4.6-4.6c0-10.6,0-21.3,0-31.9c0-3.5,1.1-4.6,4.6-4.6
			c15.2,0,30.4,0,45.6,0c3.5,0,4.6,1.1,4.6,4.6c0,10.6,0,21.3,0,31.9c0,3.5-1.1,4.6-4.6,4.6C374.2,287.6,366.7,287.6,359.1,287.6z"
			/>
		<path class="st38" d="M290.7,171c7.5,0,15,0,22.5,0c0.8,0,1.9-0.1,2.5,0.3c0.9,0.8,2.1,2,2.1,3.1c0,1-1.1,2.3-2.1,3.1
			c-0.6,0.5-1.8,0.4-2.7,0.4c-15,0-30,0-45,0c-0.7,0-1.4,0-2.1-0.1c-1.7-0.4-2.8-1.5-2.8-3.3c0-1.8,1-2.9,2.8-3.3
			c0.7-0.2,1.4-0.1,2.1-0.1C275.5,171,283.1,171,290.7,171z"/>
		<path class="st38" d="M427.6,363c-7.5,0-15,0-22.5,0c-0.8,0-1.6,0-2.3-0.2c-1.6-0.4-2.6-1.6-2.5-3.3c0-1.7,0.9-2.8,2.6-3.2
			c0.7-0.2,1.6-0.2,2.3-0.2c15,0,30,0,45,0c0.7,0,1.4,0,2.1,0.1c1.7,0.4,2.8,1.5,2.7,3.3c0,1.8-1.1,2.9-2.8,3.3
			c-0.7,0.1-1.4,0.1-2.1,0.1C442.6,363,435.1,363,427.6,363z"/>
	</g>
</g>
</svg>
