<?xml version="1.0" encoding="utf-8"?>
<!-- Generator: Adobe Illustrator 22.1.0, SVG Export Plug-In . SVG Version: 6.00 Build 0)  -->
<svg version="1.1" id="Calque_1" xmlns="http://www.w3.org/2000/svg" xmlns:xlink="http://www.w3.org/1999/xlink" x="0px" y="0px"
	 viewBox="0 0 700 480" style="enable-background:new 0 0 700 480;" xml:space="preserve">
<style type="text/css">
	.st0{fill:#DAECFF;}
	.st1{fill:#FFD258;}
	.st2{fill:#FBCEC6;}
	.st3{fill:#ADCCFF;}
	.st4{fill:#FF5F7D;}
	.st5{fill:none;stroke:#000000;stroke-width:2;stroke-miterlimit:10;}
	.st6{fill:#FFFBF2;}
	.st7{fill:#73B7A4;}
	.st8{fill:none;stroke:#000000;stroke-miterlimit:10;}
	.st9{fill:#98BFFF;}
	.st10{fill:#FFD258;stroke:#000000;stroke-width:2;stroke-miterlimit:10;}
	.st11{fill:#FEF0E1;stroke:#070707;stroke-miterlimit:10;}
	.st12{fill:#D3A533;}
	.st13{fill:#FFB5C0;stroke:#020202;stroke-miterlimit:10;}
	.st14{fill:#FF8E9E;}
	.st15{fill:#FF8E9E;stroke:#000000;stroke-miterlimit:10;}
	.st16{fill:#EA5B70;}
	.st17{fill:#020202;}
	.st18{fill:#FFD258;stroke:#050505;stroke-width:0.5;stroke-miterlimit:10;}
	.st19{fill:#FEF0E1;stroke:#020202;stroke-width:0.5;stroke-miterlimit:10;}
	.st20{fill:#DDB143;}
	.st21{fill:#D6AF8B;}
	.st22{fill:#FFFBF2;stroke:#020202;stroke-width:2;stroke-miterlimit:10;}
	.st23{fill:#FF5F7D;stroke:#020202;stroke-width:2;stroke-miterlimit:10;}
	.st24{fill:#FFFFFF;}
	.st25{fill:#ADCCFF;stroke:#020202;stroke-width:2;stroke-miterlimit:10;}
	.st26{fill:#FFD258;stroke:#050505;stroke-width:2;stroke-miterlimit:10;}
	.st27{fill:#85AAE0;}
	.st28{fill:#C99E32;}
	.st29{fill:#FFCF47;stroke:#020202;stroke-miterlimit:10;}
	.st30{fill:#FF5F7D;stroke:#050505;stroke-width:2;stroke-miterlimit:10;}
	.st31{fill:#F36B7F;stroke:#000000;stroke-miterlimit:10;}
	.st32{fill:#DBA92C;}
	.st33{fill:#73B7A4;stroke:#020202;stroke-width:2;stroke-miterlimit:10;}
	.st34{fill:#FFCF47;stroke:#020202;stroke-width:2;stroke-miterlimit:10;}
	.st35{fill:#99C6B8;}
	.st36{fill:#E2B23B;}
	.st37{fill:#C11A3E;}
	.st38{fill:#FEF0E1;stroke:#020202;stroke-miterlimit:10;}
	.st39{fill:#ADCCFF;stroke:#020202;stroke-miterlimit:10;}
	.st40{fill:#FFD258;stroke:#0C0C0C;stroke-width:0.75;stroke-miterlimit:10;}
	.st41{fill:#ADCCFF;stroke:#050505;stroke-width:2;stroke-miterlimit:10;}
	.st42{fill:#73B7A4;stroke:#050505;stroke-width:2;stroke-miterlimit:10;}
	.st43{fill:#FFFBF2;stroke:#050505;stroke-width:2;stroke-miterlimit:10;}
	.st44{fill:#FEF0E1;stroke:#020202;stroke-width:2;stroke-miterlimit:10;}
	.st45{fill:#D8A830;}
	.st46{fill:#FF5F7D;stroke:#050505;stroke-miterlimit:10;}
	.st47{fill:#73B7A4;stroke:#020202;stroke-miterlimit:10;}
	.st48{fill:#E8D2BF;}
	.st49{fill:#FFD258;stroke:#0A0A0A;stroke-width:2;stroke-miterlimit:10;}
	.st50{fill:#D8AB3A;}
	.st51{fill:#FFD258;stroke:#050505;stroke-miterlimit:10;}
	.st52{fill:#FBCEC6;stroke:#070707;stroke-miterlimit:10;}
	.st53{fill:#D84161;}
	.st54{fill:#FFD258;stroke:#0A0A0A;stroke-miterlimit:10;}
	.st55{fill:#FFD258;stroke:#0A0A0A;stroke-width:3;stroke-miterlimit:10;}
	.st56{fill:none;stroke:#0A0A0A;stroke-width:2;stroke-miterlimit:10;}
	.st57{fill:#FF5F7D;stroke:#000000;stroke-miterlimit:10;}
	.st58{fill:#FFD258;stroke:#000000;stroke-miterlimit:10;}
	.st59{fill:#FF5F7D;stroke:#050505;stroke-width:0.75;stroke-miterlimit:10;}
	.st60{fill:#FEF0E1;stroke:#020202;stroke-width:0.75;stroke-miterlimit:10;}
	.st61{fill:#FF5F7D;stroke:#050505;stroke-width:0.25;stroke-miterlimit:10;}
	.st62{fill:#FFD258;stroke:#0A0A0A;stroke-width:0.75;stroke-miterlimit:10;}
	.st63{fill:#73B7A4;stroke:#020202;stroke-width:0.25;stroke-miterlimit:10;}
	.st64{fill:#FBCEC6;stroke:#020202;stroke-miterlimit:10;}
	.st65{fill:#73B7A4;stroke:#020202;stroke-width:0.75;stroke-miterlimit:10;}
	.st66{fill:#73B7A4;stroke:#070707;stroke-miterlimit:10;}
	.st67{fill:#FFFBF2;stroke:#070707;stroke-miterlimit:10;}
	.st68{fill:#E2B139;}
	.st69{fill:#FFFBF2;stroke:#020202;stroke-miterlimit:10;}
	.st70{fill:#ADCCFF;stroke:#020202;stroke-width:0.75;stroke-miterlimit:10;}
	.st71{fill:#FFFBF2;stroke:#020202;stroke-width:0.75;stroke-miterlimit:10;}
	.st72{fill:#FFD258;stroke:#050505;stroke-width:0.75;stroke-miterlimit:10;}
	.st73{fill:#FBCEC6;stroke:#020202;stroke-width:0.75;stroke-miterlimit:10;}
	.st74{fill:#73B7A4;stroke:#050505;stroke-miterlimit:10;}
	.st75{fill:#73B7A4;stroke:#050505;stroke-width:0.75;stroke-miterlimit:10;}
	.st76{fill:#E2C2A6;}
	.st77{fill:#DBC69E;}
	.st78{fill:#D39C94;}
	.st79{fill:#E0B344;}
	.st80{fill:#E0AE32;}
	.st81{fill:#4F9982;}
	.st82{fill:#DDBA9B;}
	.st83{fill:#FF5F7D;stroke:#000000;stroke-width:0.75;stroke-miterlimit:10;}
	.st84{fill:#FFD258;stroke:#000000;stroke-width:0.75;stroke-miterlimit:10;}
	.st85{fill:none;stroke:#000000;stroke-width:0.5;stroke-miterlimit:10;}
	.st86{opacity:0.43;fill:#7F3B48;}
	.st87{opacity:0.88;fill:#98BFFF;}
	.st88{opacity:0.75;fill:#FFFBF2;}
	.st89{opacity:0.88;fill:#719BD8;}
	.st90{opacity:0.75;fill:#EAD9B7;}
	.st91{fill:#FEF0E1;}
	.st92{fill:none;stroke:#070707;stroke-miterlimit:10;}
	.st93{fill:#C1962B;}
	.st94{fill:#D6B154;}
	.st95{fill:#5DA08B;}
	.st96{fill:#C6961E;}
</style>
<rect x="-3.9" y="1.7" class="st2" width="700" height="477.8"/>
<g id="lRTwkU.tif">
	<g>
		<path class="st24" d="M335.5,212.1c-24.5,2.7-41,23.3-39.7,46.5c1.2,21.6,19.5,40,40.8,41c23.1,1.1,42.9-14.6,46.2-36.6
			c1.7-11.1-0.3-21.4-6.4-30.8c-7.7-11.8-18.7-18.4-32.8-20c0-1.8-0.1-3.4,0-5c0.1-2.4,1.7-4,3.8-4c2.3,0,3.9,1.6,4,4.1
			c0.1,1.5,0,3,0,4.6c1.2,0,1.9,0,2.7,0c5.1-0.1,5.1-0.1,5.4-5c0.2-2.5,1.8-4.2,4-4.1c2.3,0.1,3.8,1.7,3.9,4.3c0,1.4,0,2.8,0,4.5
			c2.9-0.2,5.3-0.4,7.9-0.6c0-1,0.1-1.7,0.1-2.5c0-0.9,0-1.7,0-2.6c0.2-2.4,1.7-3.9,4-3.9c2.2,0,3.8,1.5,3.9,3.9
			c0.1,1.4,0,2.9,0,4.6c2.8-0.2,5.3-0.5,8-0.7c0-1.9-0.1-3.5,0-5.2c0.2-2.4,1.8-4,3.9-4c2.2,0,3.9,1.7,4,4.1c0.1,1.3,0,2.7,0,4.3
			c2.8-0.3,5.3-0.6,7.9-0.9c0-1.9-0.1-3.6,0-5.2c0.2-2.5,1.8-4.1,4.1-4c2.2,0.1,3.7,1.6,3.9,4c0.1,1.3,0,2.7,0,4.3
			c2.8-0.4,5.3-0.8,7.8-1.1c0-16.8,0-33.2,0-49.8c-55.7,0-111.3,0-167,0c0,16,0,31.9,0,47.9c2.5,0.5,5,0.9,7.8,1.4
			c0-1.5,0-2.7,0-3.9c0.1-2.6,1.7-4.2,3.9-4.3c2.3-0.1,4,1.7,4.1,4.4c0.1,1.7,0,3.4,0,5.2c2.8,0.4,5.2,0.7,7.9,1.1
			c0-1.4,0-2.6,0-3.8c0.1-2.7,1.6-4.4,4-4.4c2.4,0,3.9,1.6,4,4.4c0.1,1.6,0,3.2,0,4.9c2.8,0.3,5.3,0.5,7.9,0.8c0-1,0-1.8,0-2.6
			c0-0.8-0.1-1.6,0-2.3c0.3-2.2,1.9-3.6,4-3.5c2.2,0.1,3.5,1.3,3.8,3.5c0.2,1.4-0.1,2.8,0.2,4.1c0.1,0.6,0.8,1.5,1.4,1.6
			c2.1,0.3,4.2,0.3,6.6,0.4c0-1.6,0-3,0-4.3c0.1-2.5,1.6-4.2,3.9-4.2c2.3,0,3.9,1.6,4,4.1c0.1,1.5,0,3,0,4.8c2.8,0,5.3,0,8.1,0
			c0-1.7-0.1-3.3,0-4.9c0.2-2.1,1.9-3.6,4-3.5c2.2,0.1,3.5,1.3,3.8,3.5C335.6,208.4,335.5,210.2,335.5,212.1z M293.8,359.4
			c3,0.3,6.4-0.1,9.7-2.6c17.3-12.9,34.8-25.5,52.2-38.3c12.3-9,24.6-17.9,36.8-26.9c1.6-1.2,3.1-2.6,2.5-4.9
			c-0.7-2.5-2.7-3.1-5.1-3.1c-2.4,0-4.8-0.2-7.2,0.1c-1.9,0.3-4.1,0.7-5.7,1.8c-30,21.8-60,43.7-90,65.7c-0.6,0.4-1.3,0.7-1.6,1.3
			c-0.5,1.3-1.5,3-1,4.1c0.5,1.2,2.2,2.3,3.5,2.7C289.6,359.8,291.4,359.4,293.8,359.4z M431.4,205.1c7.1-1.5,14-2.8,20.7-4.3
			c2.2-0.5,3.1-2.2,3-4.5c0-11.8,0-23.5,0-35.3c0-3.2-1.4-4.7-4.7-4.7c-3.5-0.1-7,0-10.6,0c-2.8,0-5.6,0-8.4,0
			C431.4,172.5,431.4,188.5,431.4,205.1z M247.7,156.2c-6.8,0-13.3-0.1-19.8,0c-2.5,0-3.9,1.7-3.9,4.2c0,10.8,0,21.6,0,32.5
			c0,2.1,1,3.5,2.9,4c6.8,1.9,13.7,3.8,20.8,5.8C247.7,187,247.7,171.8,247.7,156.2z M320.9,316.7c4-2.9,7.8-5.7,11.7-8.5
			c-0.3-0.4-0.3-0.6-0.5-0.7c-10.3-7.6-20.6-15.1-31-22.6c-0.9-0.7-2.2-1-3.4-1c-3-0.1-6-0.1-9,0c-2.2,0-3.9,0.8-4.6,3
			c-0.7,2.1,0.5,3.5,2,4.6C297.7,299.7,309.2,308.1,320.9,316.7z M346.4,335.2c0.9,0.7,1.5,1.3,2.2,1.7c7.6,5.5,15.4,10.7,22.6,16.7
			c5.6,4.7,11.5,6.8,18.6,5.8c0.3,0,0.5,0,0.8,0c2.1,0,3.7-0.8,4.4-2.9c0.7-2.1-0.4-3.5-1.9-4.6c-11.2-8.2-22.5-16.4-33.7-24.6
			c-0.5-0.3-1.5-0.5-2-0.2C353.7,329.8,350.2,332.4,346.4,335.2z M447.2,148.1c0-3.6,0-6.9,0-10.3c0-0.9,0-1.7-0.1-2.6
			c-0.5-3.9-3.8-6.8-7.7-7c-3.8-0.1-7.6,2.7-7.9,6.3c-0.3,4.4-0.1,8.9-0.1,13.5C436.6,148.1,441.7,148.1,447.2,148.1z M232,148.1
			c5.4,0,10.5,0,15.9,0c0-4.1,0.1-8,0-11.9c-0.1-4.3-3.3-7.6-7.6-7.8c-4-0.2-7.9,2.8-8.2,7C231.8,139.5,232,143.7,232,148.1z
			 M232.2,207c-0.4,4.6,2,7.9,6.1,8.7c4.1,0.8,7.6-1.1,8.9-5.1C242.2,209.4,237.3,208.2,232.2,207z M432.8,212.8
			c2.4,2.5,4.7,3.6,7.8,3c3.1-0.6,5.1-2.3,6.4-5.6C442,211.1,437.6,211.9,432.8,212.8z"/>
		<path class="st62" d="M335.5,212.1c0-1.9,0.1-3.7,0-5.5c-0.2-2.2-1.6-3.4-3.8-3.5c-2.1-0.1-3.8,1.4-4,3.5c-0.1,1.6,0,3.2,0,4.9
			c-2.7,0-5.3,0-8.1,0c0-1.8,0.1-3.3,0-4.8c-0.1-2.6-1.7-4.2-4-4.1c-2.3,0-3.8,1.7-3.9,4.2c0,1.4,0,2.7,0,4.3
			c-2.3-0.1-4.5-0.1-6.6-0.4c-0.5-0.1-1.3-1-1.4-1.6c-0.2-1.3,0-2.8-0.2-4.1c-0.3-2.1-1.5-3.4-3.8-3.5c-2.1-0.1-3.8,1.4-4,3.5
			c-0.1,0.8,0,1.5,0,2.3c0,0.8,0,1.5,0,2.6c-2.7-0.3-5.1-0.5-7.9-0.8c0-1.7,0-3.3,0-4.9c-0.1-2.8-1.6-4.4-4-4.4
			c-2.4,0-3.9,1.7-4,4.4c0,1.2,0,2.4,0,3.8c-2.7-0.4-5.1-0.7-7.9-1.1c0-1.8,0.1-3.5,0-5.2c-0.1-2.7-1.8-4.4-4.1-4.4
			c-2.2,0.1-3.8,1.7-3.9,4.3c-0.1,1.2,0,2.4,0,3.9c-2.8-0.5-5.2-1-7.8-1.4c0-16.1,0-31.9,0-47.9c55.7,0,111.3,0,167,0
			c0,16.6,0,33.1,0,49.8c-2.5,0.4-4.9,0.7-7.8,1.1c0-1.6,0.1-3,0-4.3c-0.2-2.4-1.7-3.9-3.9-4c-2.3-0.1-3.9,1.5-4.1,4
			c-0.1,1.6,0,3.3,0,5.2c-2.6,0.3-5.1,0.6-7.9,0.9c0-1.6,0.1-3,0-4.3c-0.1-2.5-1.8-4.2-4-4.1c-2.1,0-3.8,1.6-3.9,4
			c-0.1,1.6,0,3.3,0,5.2c-2.7,0.2-5.2,0.5-8,0.7c0-1.7,0.1-3.2,0-4.6c-0.1-2.4-1.7-3.9-3.9-3.9c-2.3,0-3.8,1.4-4,3.9
			c-0.1,0.9,0,1.7,0,2.6c0,0.8-0.1,1.5-0.1,2.5c-2.6,0.2-5,0.4-7.9,0.6c0-1.6,0-3,0-4.5c-0.1-2.6-1.6-4.2-3.9-4.3
			c-2.2-0.1-3.9,1.6-4,4.1c-0.3,5-0.3,5-5.4,5c-0.8,0-1.5,0-2.7,0c0-1.6,0-3.1,0-4.6c-0.1-2.5-1.7-4.2-4-4.1c-2.2,0-3.7,1.6-3.8,4
			c-0.1,1.6,0,3.2,0,5c14.1,1.7,25.1,8.3,32.8,20c6.1,9.4,8.1,19.7,6.4,30.8c-3.4,22-23.2,37.7-46.2,36.6c-21.3-1-39.6-19.4-40.8-41
			C294.5,235.5,311,214.9,335.5,212.1z"/>
		<path class="st46" d="M293.8,359.4c-2.4,0-4.2,0.4-5.8-0.1c-1.4-0.4-3.1-1.5-3.5-2.7c-0.4-1.1,0.5-2.8,1-4.1
			c0.2-0.6,1-0.9,1.6-1.3c30-21.9,59.9-43.8,90-65.7c1.5-1.1,3.7-1.6,5.7-1.8c2.4-0.3,4.8-0.1,7.2-0.1c2.3,0,4.3,0.5,5.1,3.1
			c0.7,2.4-0.8,3.7-2.5,4.9c-12.3,9-24.6,18-36.8,26.9c-17.4,12.7-34.9,25.4-52.2,38.3C300.2,359.3,296.8,359.7,293.8,359.4z"/>
		<path class="st39" d="M431.4,205.1c0-16.6,0-32.5,0-48.9c2.8,0,5.6,0,8.4,0c3.5,0,7,0,10.6,0c3.3,0.1,4.7,1.5,4.7,4.7
			c0,11.8,0,23.5,0,35.3c0,2.3-0.8,4-3,4.5C445.3,202.3,438.5,203.6,431.4,205.1z"/>
		<path class="st39" d="M247.7,156.2c0,15.6,0,30.8,0,46.5c-7.1-2-14-3.8-20.8-5.8c-2-0.6-2.9-2-2.9-4c0-10.8,0-21.6,0-32.5
			c0-2.5,1.4-4.2,3.9-4.2C234.4,156.2,241,156.2,247.7,156.2z"/>
		<path class="st46" d="M320.9,316.7c-11.7-8.5-23.2-16.9-34.7-25.4c-1.5-1.1-2.7-2.5-2-4.6c0.7-2.2,2.4-3,4.6-3c3,0,6-0.1,9,0
			c1.1,0.1,2.4,0.4,3.4,1c10.4,7.5,20.7,15.1,31,22.6c0.1,0.1,0.2,0.3,0.5,0.7C328.7,310.9,324.9,313.7,320.9,316.7z"/>
		<path class="st46" d="M346.4,335.2c3.8-2.8,7.3-5.4,11-8c0.4-0.3,1.5-0.2,2,0.2c11.3,8.1,22.5,16.3,33.7,24.6
			c1.5,1.1,2.6,2.6,1.9,4.6c-0.7,2.1-2.3,2.9-4.4,2.9c-0.3,0-0.5,0-0.8,0c-7.1,1-13-1.2-18.6-5.8c-7.2-6-15-11.1-22.6-16.7
			C347.9,336.5,347.3,335.9,346.4,335.2z"/>
		<path class="st39" d="M447.2,148.1c-5.5,0-10.6,0-15.8,0c0-4.6-0.3-9.1,0.1-13.5c0.3-3.7,4.2-6.4,7.9-6.3c3.9,0.1,7.2,3,7.7,7
			c0.1,0.8,0.1,1.7,0.1,2.6C447.2,141.2,447.2,144.5,447.2,148.1z"/>
		<path class="st39" d="M232,148.1c0-4.4-0.2-8.6,0.1-12.8c0.3-4.1,4.1-7.2,8.2-7c4.3,0.2,7.5,3.5,7.6,7.8c0.1,3.9,0,7.9,0,11.9
			C242.5,148.1,237.4,148.1,232,148.1z"/>
		<path class="st39" d="M232.2,207c5.1,1.2,10.1,2.4,15,3.7c-1.3,4-4.9,5.9-8.9,5.1C234.2,214.9,231.8,211.6,232.2,207z"/>
		<path class="st39" d="M432.8,212.8c4.9-0.9,9.3-1.7,14.1-2.6c-1.3,3.3-3.3,5-6.4,5.6C437.5,216.4,435.1,215.3,432.8,212.8z"/>
		<path d="M339.6,259.8c-2.1,0-4-1.8-4-3.9c0-2.2,1.9-4.1,4.2-4c2.1,0.1,3.9,1.9,3.9,4.1C343.5,258,341.7,259.9,339.6,259.8z"/>
	</g>
</g>
<path class="st64" d="M341.5,282.8c1.9-0.4,4.7-0.7,7.4-1.5c2.1-0.6,3.2-2.3,2.7-4.6c-0.6-2.3-2.2-3.1-4.5-3
	c-0.6,0.1-1.2,0.2-1.8,0.4c-8.3,1.9-17.2-1.6-21.4-8.3c-4.8-7.8-4.3-16.7,1.4-23.7c0.7-0.9,1.5-1.6,2.2-2.6c1.2-1.7,1.1-3.5-0.3-4.9
	c-1.5-1.6-3.3-1.7-5.1-0.6c-0.6,0.4-1.2,1-1.7,1.5c-7.8,8.1-10.1,20.1-5.4,30.3C320,276.8,328.8,282.2,341.5,282.8z"/>
<path class="st64" d="M368.5,252.4c-0.5-8.6-5.3-17-15-22.3c-4.4-2.4-9.3-3.4-14.4-3.1c-2.5,0.2-4.1,2-4.1,4.1
	c0,2.1,1.8,3.7,4.3,3.9c0.6,0,1.2,0,1.8,0c5.3,0.1,9.9,2,13.6,5.8c6.8,7,7.6,16,2.5,25c-1.4,2.4-1,4.6,1,5.9c2,1.3,4.4,0.6,5.9-1.8
	C366.8,265.2,368.6,260.3,368.5,252.4z"/>
<path class="st64" d="M352.5,254.7c0-6.5-5.3-11.8-11.8-11.8c-6.6,0-12,5.3-12,11.9c0,6.7,5.3,11.9,12,11.9
	C347.3,266.7,352.5,261.4,352.5,254.7z"/>
</svg>
