<?xml version="1.0" encoding="utf-8"?>
<!-- Generator: Adobe Illustrator 22.1.0, SVG Export Plug-In . SVG Version: 6.00 Build 0)  -->
<svg version="1.1" id="Calque_1" xmlns="http://www.w3.org/2000/svg" xmlns:xlink="http://www.w3.org/1999/xlink" x="0px" y="0px"
	 viewBox="0 0 700 480" style="enable-background:new 0 0 700 480;" xml:space="preserve">
<style type="text/css">
	.st0{fill:#DAECFF;}
	.st1{fill:#FFD258;}
	.st2{fill:#FBCEC6;}
	.st3{fill:#ADCCFF;}
	.st4{fill:#FF5F7D;}
	.st5{fill:none;stroke:#000000;stroke-width:2;stroke-miterlimit:10;}
	.st6{fill:#FFFBF2;}
	.st7{fill:#73B7A4;}
	.st8{fill:none;stroke:#000000;stroke-miterlimit:10;}
	.st9{fill:#98BFFF;}
	.st10{fill:#FFD258;stroke:#000000;stroke-width:2;stroke-miterlimit:10;}
	.st11{fill:#FEF0E1;stroke:#070707;stroke-miterlimit:10;}
	.st12{fill:#D3A533;}
	.st13{fill:#FFB5C0;stroke:#020202;stroke-miterlimit:10;}
	.st14{fill:#FF8E9E;}
	.st15{fill:#FF8E9E;stroke:#000000;stroke-miterlimit:10;}
	.st16{fill:#EA5B70;}
	.st17{fill:#020202;}
	.st18{fill:#FFD258;stroke:#050505;stroke-width:0.5;stroke-miterlimit:10;}
	.st19{fill:#FEF0E1;stroke:#020202;stroke-width:0.5;stroke-miterlimit:10;}
	.st20{fill:#DDB143;}
	.st21{fill:#D6AF8B;}
	.st22{fill:#FFFBF2;stroke:#020202;stroke-width:2;stroke-miterlimit:10;}
	.st23{fill:#FF5F7D;stroke:#020202;stroke-width:2;stroke-miterlimit:10;}
	.st24{fill:#FFFFFF;}
	.st25{fill:#ADCCFF;stroke:#020202;stroke-width:2;stroke-miterlimit:10;}
	.st26{fill:#FFD258;stroke:#050505;stroke-width:2;stroke-miterlimit:10;}
	.st27{fill:#85AAE0;}
	.st28{fill:#C99E32;}
	.st29{fill:#FFCF47;stroke:#020202;stroke-miterlimit:10;}
	.st30{fill:#FF5F7D;stroke:#050505;stroke-width:2;stroke-miterlimit:10;}
	.st31{fill:#F36B7F;stroke:#000000;stroke-miterlimit:10;}
	.st32{fill:#DBA92C;}
	.st33{fill:#73B7A4;stroke:#020202;stroke-width:2;stroke-miterlimit:10;}
	.st34{fill:#FFCF47;stroke:#020202;stroke-width:2;stroke-miterlimit:10;}
	.st35{fill:#99C6B8;}
	.st36{fill:#E2B23B;}
	.st37{fill:#C11A3E;}
	.st38{fill:#FEF0E1;stroke:#020202;stroke-miterlimit:10;}
	.st39{fill:#ADCCFF;stroke:#020202;stroke-miterlimit:10;}
	.st40{fill:#FFD258;stroke:#0C0C0C;stroke-width:0.75;stroke-miterlimit:10;}
	.st41{fill:#ADCCFF;stroke:#050505;stroke-width:2;stroke-miterlimit:10;}
	.st42{fill:#73B7A4;stroke:#050505;stroke-width:2;stroke-miterlimit:10;}
	.st43{fill:#FFFBF2;stroke:#050505;stroke-width:2;stroke-miterlimit:10;}
	.st44{fill:#FEF0E1;stroke:#020202;stroke-width:2;stroke-miterlimit:10;}
	.st45{fill:#D8A830;}
	.st46{fill:#FF5F7D;stroke:#050505;stroke-miterlimit:10;}
	.st47{fill:#73B7A4;stroke:#020202;stroke-miterlimit:10;}
	.st48{fill:#E8D2BF;}
	.st49{fill:#FFD258;stroke:#0A0A0A;stroke-width:2;stroke-miterlimit:10;}
	.st50{fill:#D8AB3A;}
	.st51{fill:#FFD258;stroke:#050505;stroke-miterlimit:10;}
	.st52{fill:#FBCEC6;stroke:#070707;stroke-miterlimit:10;}
	.st53{fill:#D84161;}
	.st54{fill:#FFD258;stroke:#0A0A0A;stroke-miterlimit:10;}
	.st55{fill:#FFD258;stroke:#0A0A0A;stroke-width:3;stroke-miterlimit:10;}
	.st56{fill:none;stroke:#0A0A0A;stroke-width:2;stroke-miterlimit:10;}
	.st57{fill:#FF5F7D;stroke:#000000;stroke-miterlimit:10;}
	.st58{fill:#FFD258;stroke:#000000;stroke-miterlimit:10;}
	.st59{fill:#FF5F7D;stroke:#050505;stroke-width:0.75;stroke-miterlimit:10;}
	.st60{fill:#FEF0E1;stroke:#020202;stroke-width:0.75;stroke-miterlimit:10;}
	.st61{fill:#FF5F7D;stroke:#050505;stroke-width:0.25;stroke-miterlimit:10;}
	.st62{fill:#FFD258;stroke:#0A0A0A;stroke-width:0.75;stroke-miterlimit:10;}
	.st63{fill:#73B7A4;stroke:#020202;stroke-width:0.25;stroke-miterlimit:10;}
	.st64{fill:#FBCEC6;stroke:#020202;stroke-miterlimit:10;}
	.st65{fill:#73B7A4;stroke:#020202;stroke-width:0.75;stroke-miterlimit:10;}
	.st66{fill:#73B7A4;stroke:#070707;stroke-miterlimit:10;}
	.st67{fill:#FFFBF2;stroke:#070707;stroke-miterlimit:10;}
	.st68{fill:#E2B139;}
	.st69{fill:#FFFBF2;stroke:#020202;stroke-miterlimit:10;}
	.st70{fill:#ADCCFF;stroke:#020202;stroke-width:0.75;stroke-miterlimit:10;}
	.st71{fill:#FFFBF2;stroke:#020202;stroke-width:0.75;stroke-miterlimit:10;}
	.st72{fill:#FFD258;stroke:#050505;stroke-width:0.75;stroke-miterlimit:10;}
	.st73{fill:#FBCEC6;stroke:#020202;stroke-width:0.75;stroke-miterlimit:10;}
	.st74{fill:#73B7A4;stroke:#050505;stroke-miterlimit:10;}
	.st75{fill:#73B7A4;stroke:#050505;stroke-width:0.75;stroke-miterlimit:10;}
	.st76{fill:#E2C2A6;}
	.st77{fill:#DBC69E;}
	.st78{fill:#D39C94;}
	.st79{fill:#E0B344;}
	.st80{fill:#E0AE32;}
	.st81{fill:#4F9982;}
	.st82{fill:#DDBA9B;}
	.st83{fill:#FF5F7D;stroke:#000000;stroke-width:0.75;stroke-miterlimit:10;}
	.st84{fill:#FFD258;stroke:#000000;stroke-width:0.75;stroke-miterlimit:10;}
	.st85{fill:none;stroke:#000000;stroke-width:0.5;stroke-miterlimit:10;}
	.st86{opacity:0.43;fill:#7F3B48;}
	.st87{opacity:0.88;fill:#98BFFF;}
	.st88{opacity:0.75;fill:#FFFBF2;}
	.st89{opacity:0.88;fill:#719BD8;}
	.st90{opacity:0.75;fill:#EAD9B7;}
	.st91{fill:#FEF0E1;}
	.st92{fill:none;stroke:#070707;stroke-miterlimit:10;}
	.st93{fill:#C1962B;}
	.st94{fill:#D6B154;}
	.st95{fill:#5DA08B;}
	.st96{fill:#C6961E;}
	.st97{fill:#FF5F7D;stroke:#FFFFFF;stroke-miterlimit:10;}
	.st98{fill:#FF5F7D;stroke:#070707;stroke-miterlimit:10;}
</style>
<rect x="6.7" y="1.9" class="st0" width="697.3" height="477.8"/>
<g id="A7qOQK.tif">
	<g>
		<path class="st46" d="M298.7,311.2c0-1,0-1.5,0-2.1c0-15.2,0-30.5,0.1-45.7c0-1.1,0.6-2.5,1.3-3.3c7.4-7.7,19.5-7.7,26.9,0
			c0.7,0.7,1.3,1.9,1.3,2.9c0.1,15.6,0.1,31.1,0.1,46.7c0,0.4,0,0.7-0.1,1.2C318.4,300.6,305.7,303.2,298.7,311.2z"/>
		<path class="st46" d="M397.3,311c-7.9-8.8-20.6-9.5-29.3,0c-0.1-0.6-0.2-1-0.2-1.5c0-15.4,0-30.9,0-46.3c0-1,0.5-2.2,1.2-3
			c7.4-7.9,20-7.8,27.3,0.1c0.5,0.6,1,1.5,1,2.3c0.1,15.9,0,31.7,0,47.6C397.5,310.5,397.4,310.6,397.3,311z"/>
		<path class="st46" d="M397.3,199.2c-9.8-5.4-19.5-5.5-29.4,0.1c0-0.8-0.1-1.4-0.1-2c0-15.1,0-30.1,0-45.2c0-1.4,0.4-2.1,1.6-2.8
			c8.9-4.4,17.7-4.4,26.5,0.1c0.7,0.3,1.4,1.3,1.4,2c0.1,15.6,0.1,31.2,0.1,46.8C397.5,198.5,397.4,198.7,397.3,199.2z"/>
		<path class="st46" d="M328.2,199.1c-12-5.4-15.5-5.4-29.4-0.1c0-0.6-0.1-1.2-0.1-1.8c0-15,0-30,0-45c0-1.6,0.5-2.3,1.9-3
			c8.8-4.3,17.5-4.3,26.2,0.1c1,0.5,1.6,1.1,1.6,2.4c-0.1,15.4,0,30.7,0,46.1C328.3,198.2,328.3,198.6,328.2,199.1z"/>
		<path class="st46" d="M328.2,248.5c-12.8-5.4-15.6-5.4-29.4-0.1c0-0.6-0.1-1.1-0.1-1.6c0-11,0-21.9,0-32.9c0-1,0.5-2.2,1.1-3
			c7.3-7.9,19.8-7.9,27.1-0.1c0.7,0.7,1.2,1.8,1.2,2.8c0.1,11.2,0.1,22.4,0.1,33.7C328.3,247.6,328.3,247.9,328.2,248.5z"/>
		<path class="st46" d="M397.4,248.6c-4.8-2.6-9.5-4.1-14.7-4.1c-5.2,0-9.9,1.6-14.7,4.1c0-0.9-0.1-1.5-0.1-2.1
			c0-10.8,0-21.7,0.1-32.5c0-1.1,0.6-2.5,1.3-3.3c7.3-7.8,19.7-7.7,27,0.1c0.6,0.7,1.2,1.7,1.2,2.6c0.1,11.3,0.1,22.7,0,34
			C397.5,247.8,397.4,248.1,397.4,248.6z"/>
		<path class="st46" d="M269.1,314.6c0-16.6,0-33,0-49.5c6.6,0,13,0,19.6,0c0,16.6,0,33,0,49.5C282.1,314.6,275.7,314.6,269.1,314.6
			z"/>
		<path class="st46" d="M427,314.6c-6.6,0-13,0-19.5,0c0-16.5,0-33,0-49.6c6.5,0,13,0,19.5,0C427,281.5,427,298,427,314.6z"/>
		<path class="st46" d="M269.1,156c6.5,0,13,0,19.5,0c0,16.5,0,32.9,0,49.5c-6.5,0-13,0-19.5,0C269.1,189,269.1,172.5,269.1,156z"/>
		<path class="st46" d="M427,205.5c-6.5,0-12.9,0-19.5,0c0-16.5,0-33,0-49.5c6.5,0,12.9,0,19.5,0C427,172.4,427,188.9,427,205.5z"/>
		<path class="st46" d="M357.8,205.5c-6.5,0-12.9,0-19.5,0c0-16.5,0-33,0-49.5c6.5,0,12.9,0,19.5,0
			C357.8,172.5,357.8,189,357.8,205.5z"/>
		<path class="st46" d="M338.3,314.6c0-16.6,0-33,0-49.5c6.5,0,13,0,19.5,0c0,16.5,0,33,0,49.5C351.3,314.6,344.9,314.6,338.3,314.6
			z"/>
		<path class="st46" d="M269.1,255c0-13.2,0-26.2,0-39.3c6.5,0,12.9,0,19.5,0c0,13.1,0,26.1,0,39.3C282.2,255,275.7,255,269.1,255z"
			/>
		<path class="st46" d="M427.1,215.6c0,13.2,0,26.2,0,39.3c-6.5,0-13,0-19.5,0c0-13.1,0-26.2,0-39.3
			C414,215.6,420.5,215.6,427.1,215.6z"/>
		<path class="st46" d="M357.8,215.7c0,13.1,0,26.1,0,39.3c-6.5,0-12.9,0-19.5,0c0-13.1,0-26.1,0-39.3
			C344.8,215.7,351.2,215.7,357.8,215.7z"/>
	</g>
</g>
</svg>
