<?xml version="1.0" encoding="utf-8"?>
<!-- Generator: Adobe Illustrator 22.1.0, SVG Export Plug-In . SVG Version: 6.00 Build 0)  -->
<svg version="1.1" id="Calque_1" xmlns="http://www.w3.org/2000/svg" xmlns:xlink="http://www.w3.org/1999/xlink" x="0px" y="0px"
	 viewBox="0 0 700 480" style="enable-background:new 0 0 700 480;" xml:space="preserve">
<style type="text/css">
	.st0{fill:#DAECFF;}
	.st1{fill:#FFD258;}
	.st2{fill:#FBCEC6;}
	.st3{fill:#ADCCFF;}
	.st4{fill:#FF5F7D;}
	.st5{fill:none;stroke:#000000;stroke-width:2;stroke-miterlimit:10;}
	.st6{fill:#FFFBF2;}
	.st7{fill:#73B7A4;}
	.st8{fill:none;stroke:#000000;stroke-miterlimit:10;}
	.st9{fill:#98BFFF;}
	.st10{fill:#FFD258;stroke:#000000;stroke-width:2;stroke-miterlimit:10;}
	.st11{fill:#FEF0E1;stroke:#070707;stroke-miterlimit:10;}
	.st12{fill:#D3A533;}
	.st13{fill:#FFB5C0;stroke:#020202;stroke-miterlimit:10;}
	.st14{fill:#FF8E9E;}
	.st15{fill:#FF8E9E;stroke:#000000;stroke-miterlimit:10;}
	.st16{fill:#EA5B70;}
	.st17{fill:#020202;}
	.st18{fill:#FFD258;stroke:#050505;stroke-width:0.5;stroke-miterlimit:10;}
	.st19{fill:#FEF0E1;stroke:#020202;stroke-width:0.5;stroke-miterlimit:10;}
	.st20{fill:#DDB143;}
	.st21{fill:#D6AF8B;}
	.st22{fill:#FFFBF2;stroke:#020202;stroke-width:2;stroke-miterlimit:10;}
	.st23{fill:#FF5F7D;stroke:#020202;stroke-width:2;stroke-miterlimit:10;}
	.st24{fill:#FFFFFF;}
	.st25{fill:#ADCCFF;stroke:#020202;stroke-width:2;stroke-miterlimit:10;}
	.st26{fill:#FFD258;stroke:#050505;stroke-width:2;stroke-miterlimit:10;}
	.st27{fill:#85AAE0;}
	.st28{fill:#C99E32;}
	.st29{fill:#FFCF47;stroke:#020202;stroke-miterlimit:10;}
	.st30{fill:#FF5F7D;stroke:#050505;stroke-width:2;stroke-miterlimit:10;}
	.st31{fill:#F36B7F;stroke:#000000;stroke-miterlimit:10;}
	.st32{fill:#DBA92C;}
	.st33{fill:#73B7A4;stroke:#020202;stroke-width:2;stroke-miterlimit:10;}
	.st34{fill:#FFCF47;stroke:#020202;stroke-width:2;stroke-miterlimit:10;}
	.st35{fill:#99C6B8;}
	.st36{fill:#E2B23B;}
	.st37{fill:#C11A3E;}
	.st38{fill:#FEF0E1;stroke:#020202;stroke-miterlimit:10;}
	.st39{fill:#ADCCFF;stroke:#020202;stroke-miterlimit:10;}
	.st40{fill:#FFD258;stroke:#0C0C0C;stroke-width:0.75;stroke-miterlimit:10;}
	.st41{fill:#ADCCFF;stroke:#050505;stroke-width:2;stroke-miterlimit:10;}
	.st42{fill:#73B7A4;stroke:#050505;stroke-width:2;stroke-miterlimit:10;}
	.st43{fill:#FFFBF2;stroke:#050505;stroke-width:2;stroke-miterlimit:10;}
	.st44{fill:#FEF0E1;stroke:#020202;stroke-width:2;stroke-miterlimit:10;}
	.st45{fill:#D8A830;}
	.st46{fill:#FF5F7D;stroke:#050505;stroke-miterlimit:10;}
	.st47{fill:#73B7A4;stroke:#020202;stroke-miterlimit:10;}
	.st48{fill:#E8D2BF;}
	.st49{fill:#FFD258;stroke:#0A0A0A;stroke-width:2;stroke-miterlimit:10;}
	.st50{fill:#D8AB3A;}
	.st51{fill:#FFD258;stroke:#050505;stroke-miterlimit:10;}
	.st52{fill:#FBCEC6;stroke:#070707;stroke-miterlimit:10;}
	.st53{fill:#D84161;}
	.st54{fill:#FFD258;stroke:#0A0A0A;stroke-miterlimit:10;}
	.st55{fill:#FFD258;stroke:#0A0A0A;stroke-width:3;stroke-miterlimit:10;}
	.st56{fill:none;stroke:#0A0A0A;stroke-width:2;stroke-miterlimit:10;}
	.st57{fill:#FF5F7D;stroke:#000000;stroke-miterlimit:10;}
	.st58{fill:#FFD258;stroke:#000000;stroke-miterlimit:10;}
	.st59{fill:#FF5F7D;stroke:#050505;stroke-width:0.75;stroke-miterlimit:10;}
	.st60{fill:#FEF0E1;stroke:#020202;stroke-width:0.75;stroke-miterlimit:10;}
	.st61{fill:#FF5F7D;stroke:#050505;stroke-width:0.25;stroke-miterlimit:10;}
	.st62{fill:#FFD258;stroke:#0A0A0A;stroke-width:0.75;stroke-miterlimit:10;}
	.st63{fill:#73B7A4;stroke:#020202;stroke-width:0.25;stroke-miterlimit:10;}
	.st64{fill:#FBCEC6;stroke:#020202;stroke-miterlimit:10;}
	.st65{fill:#73B7A4;stroke:#020202;stroke-width:0.75;stroke-miterlimit:10;}
	.st66{fill:#73B7A4;stroke:#070707;stroke-miterlimit:10;}
	.st67{fill:#FFFBF2;stroke:#070707;stroke-miterlimit:10;}
	.st68{fill:#E2B139;}
	.st69{fill:#FFFBF2;stroke:#020202;stroke-miterlimit:10;}
	.st70{fill:#ADCCFF;stroke:#020202;stroke-width:0.75;stroke-miterlimit:10;}
	.st71{fill:#FFFBF2;stroke:#020202;stroke-width:0.75;stroke-miterlimit:10;}
	.st72{fill:#FFD258;stroke:#050505;stroke-width:0.75;stroke-miterlimit:10;}
	.st73{fill:#FBCEC6;stroke:#020202;stroke-width:0.75;stroke-miterlimit:10;}
	.st74{fill:#73B7A4;stroke:#050505;stroke-miterlimit:10;}
	.st75{fill:#73B7A4;stroke:#050505;stroke-width:0.75;stroke-miterlimit:10;}
	.st76{fill:#E2C2A6;}
	.st77{fill:#DBC69E;}
	.st78{fill:#D39C94;}
	.st79{fill:#E0B344;}
	.st80{fill:#E0AE32;}
	.st81{fill:#4F9982;}
	.st82{fill:#DDBA9B;}
	.st83{fill:#FF5F7D;stroke:#000000;stroke-width:0.75;stroke-miterlimit:10;}
	.st84{fill:#FFD258;stroke:#000000;stroke-width:0.75;stroke-miterlimit:10;}
	.st85{fill:none;stroke:#000000;stroke-width:0.5;stroke-miterlimit:10;}
	.st86{opacity:0.43;fill:#7F3B48;}
	.st87{opacity:0.88;fill:#98BFFF;}
	.st88{opacity:0.75;fill:#FFFBF2;}
	.st89{opacity:0.88;fill:#719BD8;}
	.st90{opacity:0.75;fill:#EAD9B7;}
	.st91{fill:#FEF0E1;}
	.st92{fill:none;stroke:#070707;stroke-miterlimit:10;}
	.st93{fill:#C1962B;}
	.st94{fill:#D6B154;}
	.st95{fill:#5DA08B;}
	.st96{fill:#C6961E;}
</style>
<rect x="-1.6" y="1.1" class="st1" width="703.1" height="476.3"/>
<g id="vnSpFW.tif">
	<g>
		<path class="st25" d="M267.5,261.5c-1.2-1.6-2.5-3.2-3.7-4.8c-26.7-36.7-13.6-88.8,27.4-108.6c43.1-20.8,94.6,5.1,103.4,52.1
			c6.2,33.1-10.8,65.9-41.5,80.1c-9.8,4.5-20.1,6.6-30.9,6.5c-21.7-0.1-43.5-0.2-65.2-0.3c-0.9,0-1.7,0-2.6-0.1
			c-3.9-0.5-5.8-4.6-3.6-7.9c0.5-0.8,1.2-1.4,1.8-2.1c4.9-4.8,9.8-9.7,14.6-14.5C267.3,261.9,267.4,261.7,267.5,261.5z M323.2,208.8
			c-9.8,0-19.7,0-29.5,0c-0.9,0-1.9,0-2.8,0.2c-2.3,0.3-4.1,2.3-4.2,4.6c-0.2,3.6,2.1,5.7,6.5,5.7c19.9,0,39.9,0,59.8,0
			c0.9,0,1.7-0.1,2.5-0.3c3.3-0.7,5-4.5,3.3-7.5c-1.3-2.3-3.4-2.7-5.7-2.7C343.1,208.8,333.1,208.8,323.2,208.8z M323,198.4
			c9.9,0,19.8,0,29.7,0c0.7,0,1.5,0,2.2-0.1c2.6-0.3,4.5-2.3,4.6-4.9c0.1-2.5-1.5-4.6-4-5.2c-0.9-0.2-1.8-0.3-2.7-0.3
			c-19.8,0-39.6,0-59.4,0c-0.9,0-1.7,0-2.5,0.2c-2.9,0.6-4.5,3-4.1,5.8c0.4,2.6,2.6,4.3,5.8,4.3C302.6,198.4,312.8,198.4,323,198.4z
			 M323,240c9.9,0,19.8,0,29.7,0c0.8,0,1.6,0,2.4-0.1c2.5-0.4,4.3-2.4,4.4-4.9c0.1-2.4-1.5-4.5-3.8-5.1c-0.9-0.2-1.8-0.3-2.7-0.3
			c-19.9,0-39.7,0-59.6,0c-1,0-2,0.1-2.9,0.3c-3.1,0.8-4.7,4.4-3.1,7.2c1.1,2.1,3,2.8,5.3,2.8C302.7,240,312.8,240,323,240z"/>
		<path class="st30" d="M303.2,297.3c6.3,0,12.3,0,18.3,0c12.4,0,24.5-2,35.7-7.5c26.7-12.8,42.7-33.9,48-63
			c2.1-11.8,1.2-23.5-2-35.1c10.2,4.9,22.8,30.2,24,49.4c1.2,19.6-4.8,37.1-17.2,51.7c5.1,5.3,10,10.4,14.8,15.5
			c0.6,0.7,1.3,1.3,1.8,2.1c2,3.2,0,7.3-3.8,7.7c-1.1,0.1-2.2,0.1-3.4,0.1c-21.3,0.1-42.5,0.2-63.8,0.4c-8.6,0-17-1.2-25.1-4
			c-9.9-3.4-18.7-8.8-26.4-16C303.9,298.1,303.7,297.8,303.2,297.3z"/>
		<path class="st1" d="M323.2,208.8c10,0,19.9,0,29.9,0c2.4,0,4.5,0.4,5.7,2.7c1.7,2.9,0,6.7-3.3,7.5c-0.8,0.2-1.7,0.3-2.5,0.3
			c-19.9,0-39.9,0-59.8,0c-4.3,0-6.7-2.1-6.5-5.7c0.2-2.3,1.9-4.2,4.2-4.6c0.9-0.1,1.8-0.2,2.8-0.2
			C303.5,208.8,313.3,208.8,323.2,208.8z"/>
		<path class="st1" d="M323,198.4c-10.2,0-20.3,0-30.5,0c-3.2,0-5.4-1.7-5.8-4.3c-0.4-2.8,1.2-5.2,4.1-5.8c0.8-0.2,1.7-0.2,2.5-0.2
			c19.8,0,39.6,0,59.4,0c0.9,0,1.9,0.1,2.7,0.3c2.5,0.6,4.1,2.7,4,5.2c-0.1,2.6-2,4.6-4.6,4.9c-0.7,0.1-1.4,0.1-2.2,0.1
			C342.8,198.4,332.9,198.4,323,198.4z"/>
		<path class="st1" d="M323,240c-10.2,0-20.3,0-30.5,0c-2.3,0-4.1-0.7-5.3-2.8c-1.5-2.8,0-6.5,3.1-7.2c0.9-0.2,2-0.3,2.9-0.3
			c19.9,0,39.7,0,59.6,0c0.9,0,1.8,0.1,2.7,0.3c2.4,0.6,3.9,2.7,3.8,5.1c-0.1,2.5-1.9,4.5-4.4,4.9c-0.8,0.1-1.6,0.1-2.4,0.1
			C342.8,240,332.9,240,323,240z"/>
	</g>
</g>
</svg>
