<?xml version="1.0" encoding="utf-8"?>
<!-- Generator: Adobe Illustrator 22.1.0, SVG Export Plug-In . SVG Version: 6.00 Build 0)  -->
<svg version="1.1" id="Calque_1" xmlns="http://www.w3.org/2000/svg" xmlns:xlink="http://www.w3.org/1999/xlink" x="0px" y="0px"
	 viewBox="0 0 700 480" style="enable-background:new 0 0 700 480;" xml:space="preserve">
<style type="text/css">
	.st0{fill:#DAECFF;}
	.st1{fill:#FFD258;}
	.st2{fill:#FBCEC6;}
	.st3{fill:#ADCCFF;}
	.st4{fill:#FF5F7D;}
	.st5{fill:none;stroke:#000000;stroke-width:2;stroke-miterlimit:10;}
	.st6{fill:#FFFBF2;}
	.st7{fill:#73B7A4;}
	.st8{fill:none;stroke:#000000;stroke-miterlimit:10;}
	.st9{fill:#98BFFF;}
	.st10{fill:#FFD258;stroke:#000000;stroke-width:2;stroke-miterlimit:10;}
	.st11{fill:#FEF0E1;stroke:#070707;stroke-miterlimit:10;}
	.st12{fill:#D3A533;}
	.st13{fill:#FFB5C0;stroke:#020202;stroke-miterlimit:10;}
	.st14{fill:#FF8E9E;}
	.st15{fill:#FF8E9E;stroke:#000000;stroke-miterlimit:10;}
	.st16{fill:#EA5B70;}
	.st17{fill:#020202;}
	.st18{fill:#FFD258;stroke:#050505;stroke-width:0.5;stroke-miterlimit:10;}
	.st19{fill:#FEF0E1;stroke:#020202;stroke-width:0.5;stroke-miterlimit:10;}
	.st20{fill:#DDB143;}
	.st21{fill:#D6AF8B;}
	.st22{fill:#FFFBF2;stroke:#020202;stroke-width:2;stroke-miterlimit:10;}
	.st23{fill:#FF5F7D;stroke:#020202;stroke-width:2;stroke-miterlimit:10;}
	.st24{fill:#FFFFFF;}
	.st25{fill:#ADCCFF;stroke:#020202;stroke-width:2;stroke-miterlimit:10;}
	.st26{fill:#FFD258;stroke:#050505;stroke-width:2;stroke-miterlimit:10;}
	.st27{fill:#85AAE0;}
	.st28{fill:#C99E32;}
	.st29{fill:#FFCF47;stroke:#020202;stroke-miterlimit:10;}
	.st30{fill:#FF5F7D;stroke:#050505;stroke-width:2;stroke-miterlimit:10;}
	.st31{fill:#F36B7F;stroke:#000000;stroke-miterlimit:10;}
	.st32{fill:#DBA92C;}
	.st33{fill:#73B7A4;stroke:#020202;stroke-width:2;stroke-miterlimit:10;}
	.st34{fill:#FFCF47;stroke:#020202;stroke-width:2;stroke-miterlimit:10;}
	.st35{fill:#99C6B8;}
	.st36{fill:#E2B23B;}
	.st37{fill:#C11A3E;}
	.st38{fill:#FEF0E1;stroke:#020202;stroke-miterlimit:10;}
	.st39{fill:#ADCCFF;stroke:#020202;stroke-miterlimit:10;}
	.st40{fill:#FFD258;stroke:#0C0C0C;stroke-width:0.75;stroke-miterlimit:10;}
	.st41{fill:#ADCCFF;stroke:#050505;stroke-width:2;stroke-miterlimit:10;}
	.st42{fill:#73B7A4;stroke:#050505;stroke-width:2;stroke-miterlimit:10;}
	.st43{fill:#FFFBF2;stroke:#050505;stroke-width:2;stroke-miterlimit:10;}
	.st44{fill:#FEF0E1;stroke:#020202;stroke-width:2;stroke-miterlimit:10;}
	.st45{fill:#D8A830;}
	.st46{fill:#FF5F7D;stroke:#050505;stroke-miterlimit:10;}
	.st47{fill:#73B7A4;stroke:#020202;stroke-miterlimit:10;}
	.st48{fill:#E8D2BF;}
	.st49{fill:#FFD258;stroke:#0A0A0A;stroke-width:2;stroke-miterlimit:10;}
	.st50{fill:#D8AB3A;}
	.st51{fill:#FFD258;stroke:#050505;stroke-miterlimit:10;}
	.st52{fill:#FBCEC6;stroke:#070707;stroke-miterlimit:10;}
	.st53{fill:#D84161;}
	.st54{fill:#FFD258;stroke:#0A0A0A;stroke-miterlimit:10;}
	.st55{fill:#FFD258;stroke:#0A0A0A;stroke-width:3;stroke-miterlimit:10;}
	.st56{fill:none;stroke:#0A0A0A;stroke-width:2;stroke-miterlimit:10;}
	.st57{fill:#FF5F7D;stroke:#000000;stroke-miterlimit:10;}
	.st58{fill:#FFD258;stroke:#000000;stroke-miterlimit:10;}
	.st59{fill:#FF5F7D;stroke:#050505;stroke-width:0.75;stroke-miterlimit:10;}
	.st60{fill:#FEF0E1;stroke:#020202;stroke-width:0.75;stroke-miterlimit:10;}
	.st61{fill:#FF5F7D;stroke:#050505;stroke-width:0.25;stroke-miterlimit:10;}
	.st62{fill:#FFD258;stroke:#0A0A0A;stroke-width:0.75;stroke-miterlimit:10;}
	.st63{fill:#73B7A4;stroke:#020202;stroke-width:0.25;stroke-miterlimit:10;}
	.st64{fill:#FBCEC6;stroke:#020202;stroke-miterlimit:10;}
	.st65{fill:#73B7A4;stroke:#020202;stroke-width:0.75;stroke-miterlimit:10;}
	.st66{fill:#73B7A4;stroke:#070707;stroke-miterlimit:10;}
	.st67{fill:#FFFBF2;stroke:#070707;stroke-miterlimit:10;}
	.st68{fill:#E2B139;}
	.st69{fill:#FFFBF2;stroke:#020202;stroke-miterlimit:10;}
	.st70{fill:#ADCCFF;stroke:#020202;stroke-width:0.75;stroke-miterlimit:10;}
	.st71{fill:#FFFBF2;stroke:#020202;stroke-width:0.75;stroke-miterlimit:10;}
	.st72{fill:#FFD258;stroke:#050505;stroke-width:0.75;stroke-miterlimit:10;}
	.st73{fill:#FBCEC6;stroke:#020202;stroke-width:0.75;stroke-miterlimit:10;}
	.st74{fill:#73B7A4;stroke:#050505;stroke-miterlimit:10;}
	.st75{fill:#73B7A4;stroke:#050505;stroke-width:0.75;stroke-miterlimit:10;}
	.st76{fill:#E2C2A6;}
	.st77{fill:#DBC69E;}
	.st78{fill:#D39C94;}
	.st79{fill:#E0B344;}
	.st80{fill:#E0AE32;}
	.st81{fill:#4F9982;}
	.st82{fill:#DDBA9B;}
	.st83{fill:#FF5F7D;stroke:#000000;stroke-width:0.75;stroke-miterlimit:10;}
	.st84{fill:#FFD258;stroke:#000000;stroke-width:0.75;stroke-miterlimit:10;}
	.st85{fill:none;stroke:#000000;stroke-width:0.5;stroke-miterlimit:10;}
	.st86{opacity:0.43;fill:#7F3B48;}
	.st87{opacity:0.88;fill:#98BFFF;}
	.st88{opacity:0.75;fill:#FFFBF2;}
	.st89{opacity:0.88;fill:#719BD8;}
	.st90{opacity:0.75;fill:#EAD9B7;}
	.st91{fill:#FEF0E1;}
	.st92{fill:none;stroke:#070707;stroke-miterlimit:10;}
	.st93{fill:#C1962B;}
	.st94{fill:#D6B154;}
	.st95{fill:#5DA08B;}
	.st96{fill:#C6961E;}
</style>
<rect x="-2.8" y="0.1" class="st2" width="700" height="477.8"/>
<g id="Bb0foR.tif">
	<g>
		<path class="st51" d="M449.3,322.4c-8-9.2-15.1-17.5-22.3-25.8c-17.5-20.3-34.9-40.7-52.7-60.8c-2.6-3-7.1-4.3-10.8-6.4
			c-0.5,0.8-1.1,1.6-1.6,2.4c27.4,31.8,54.8,63.6,82.1,95.2c-2.8,5.7-6.6,7-11.8,5.9c-4.3-0.9-8.7-1-13-1.7c-6.7-1.1-9-4.6-7.8-11.2
			c1.8-9.8-1.9-13.8-11.4-12c-6.4,1.2-12.2-4.9-10.8-11.3c2.1-9.5-1.5-12.9-10.8-11.1c-2.4,0.5-6.1-0.9-7.7-2.8
			c-3.2-3.7-9-6.4-5.9-13.4c1.6-3.8,5.5-7.8,1.6-12.8c-2.9-3.8-6.1-5.3-10.7-4.2c-6.8,1.6-12.4,0-16.1-6.4c-2.5-4.4-6-4.9-11.1-3.8
			c-25.7,5.9-52.4-6.8-64-29.9c-12.1-24-6.3-53.2,14-70.6c20.1-17.2,49.4-18.7,71.3-3.6c21.3,14.7,30.2,42.9,20.6,67.5
			c-2.1,5.5-1.1,8.7,2.5,12.8c24.2,27.8,48,55.9,72.4,83.4C450.7,307.8,451.8,313.6,449.3,322.4z M308.6,176.7
			c5.7-4.9,6.4-13.2,1.5-19c-4.9-5.8-13.2-6.6-19-1.9c-6,4.9-6.7,13.7-1.5,19.5C294.6,181.1,303,181.6,308.6,176.7z"/>
	</g>
</g>
</svg>
