<?xml version="1.0" encoding="utf-8"?>
<!-- Generator: Adobe Illustrator 22.1.0, SVG Export Plug-In . SVG Version: 6.00 Build 0)  -->
<svg version="1.1" id="Calque_1" xmlns="http://www.w3.org/2000/svg" xmlns:xlink="http://www.w3.org/1999/xlink" x="0px" y="0px"
	 viewBox="0 0 700 480" style="enable-background:new 0 0 700 480;" xml:space="preserve">
<style type="text/css">
	.st0{fill:#DAECFF;}
	.st1{fill:#FFD258;}
	.st2{fill:#FBCEC6;}
	.st3{fill:#ADCCFF;}
	.st4{fill:#FF5F7D;}
	.st5{fill:none;stroke:#000000;stroke-width:2;stroke-miterlimit:10;}
	.st6{fill:#FFFBF2;}
	.st7{fill:#73B7A4;}
	.st8{fill:none;stroke:#000000;stroke-miterlimit:10;}
	.st9{fill:#98BFFF;}
	.st10{fill:#FFD258;stroke:#000000;stroke-width:2;stroke-miterlimit:10;}
	.st11{fill:#FEF0E1;stroke:#070707;stroke-miterlimit:10;}
	.st12{fill:#D3A533;}
	.st13{fill:#FFB5C0;stroke:#020202;stroke-miterlimit:10;}
	.st14{fill:#FF8E9E;}
	.st15{fill:#FF8E9E;stroke:#000000;stroke-miterlimit:10;}
	.st16{fill:#EA5B70;}
	.st17{fill:#020202;}
	.st18{fill:#FFD258;stroke:#050505;stroke-width:0.5;stroke-miterlimit:10;}
	.st19{fill:#FEF0E1;stroke:#020202;stroke-width:0.5;stroke-miterlimit:10;}
	.st20{fill:#DDB143;}
	.st21{fill:#D6AF8B;}
	.st22{fill:#FFFBF2;stroke:#020202;stroke-width:2;stroke-miterlimit:10;}
	.st23{fill:#FF5F7D;stroke:#020202;stroke-width:2;stroke-miterlimit:10;}
	.st24{fill:#FFFFFF;}
	.st25{fill:#ADCCFF;stroke:#020202;stroke-width:2;stroke-miterlimit:10;}
	.st26{fill:#FFD258;stroke:#050505;stroke-width:2;stroke-miterlimit:10;}
	.st27{fill:#85AAE0;}
	.st28{fill:#C99E32;}
	.st29{fill:#FFCF47;stroke:#020202;stroke-miterlimit:10;}
	.st30{fill:#FF5F7D;stroke:#050505;stroke-width:2;stroke-miterlimit:10;}
	.st31{fill:#F36B7F;stroke:#000000;stroke-miterlimit:10;}
	.st32{fill:#DBA92C;}
	.st33{fill:#73B7A4;stroke:#020202;stroke-width:2;stroke-miterlimit:10;}
	.st34{fill:#FFCF47;stroke:#020202;stroke-width:2;stroke-miterlimit:10;}
	.st35{fill:#99C6B8;}
	.st36{fill:#E2B23B;}
	.st37{fill:#C11A3E;}
	.st38{fill:#FEF0E1;stroke:#020202;stroke-miterlimit:10;}
	.st39{fill:#ADCCFF;stroke:#020202;stroke-miterlimit:10;}
	.st40{fill:#FFD258;stroke:#0C0C0C;stroke-width:0.75;stroke-miterlimit:10;}
	.st41{fill:#ADCCFF;stroke:#050505;stroke-width:2;stroke-miterlimit:10;}
	.st42{fill:#73B7A4;stroke:#050505;stroke-width:2;stroke-miterlimit:10;}
	.st43{fill:#FFFBF2;stroke:#050505;stroke-width:2;stroke-miterlimit:10;}
	.st44{fill:#FEF0E1;stroke:#020202;stroke-width:2;stroke-miterlimit:10;}
	.st45{fill:#D8A830;}
	.st46{fill:#FF5F7D;stroke:#050505;stroke-miterlimit:10;}
	.st47{fill:#73B7A4;stroke:#020202;stroke-miterlimit:10;}
	.st48{fill:#E8D2BF;}
	.st49{fill:#FFD258;stroke:#0A0A0A;stroke-width:2;stroke-miterlimit:10;}
	.st50{fill:#D8AB3A;}
	.st51{fill:#FFD258;stroke:#050505;stroke-miterlimit:10;}
	.st52{fill:#FBCEC6;stroke:#070707;stroke-miterlimit:10;}
	.st53{fill:#D84161;}
	.st54{fill:#FFD258;stroke:#0A0A0A;stroke-miterlimit:10;}
	.st55{fill:#FFD258;stroke:#0A0A0A;stroke-width:3;stroke-miterlimit:10;}
	.st56{fill:none;stroke:#0A0A0A;stroke-width:2;stroke-miterlimit:10;}
	.st57{fill:#FF5F7D;stroke:#000000;stroke-miterlimit:10;}
	.st58{fill:#FFD258;stroke:#000000;stroke-miterlimit:10;}
	.st59{fill:#FF5F7D;stroke:#050505;stroke-width:0.75;stroke-miterlimit:10;}
	.st60{fill:#FEF0E1;stroke:#020202;stroke-width:0.75;stroke-miterlimit:10;}
	.st61{fill:#FF5F7D;stroke:#050505;stroke-width:0.25;stroke-miterlimit:10;}
	.st62{fill:#FFD258;stroke:#0A0A0A;stroke-width:0.75;stroke-miterlimit:10;}
	.st63{fill:#73B7A4;stroke:#020202;stroke-width:0.25;stroke-miterlimit:10;}
	.st64{fill:#FBCEC6;stroke:#020202;stroke-miterlimit:10;}
	.st65{fill:#73B7A4;stroke:#020202;stroke-width:0.75;stroke-miterlimit:10;}
	.st66{fill:#73B7A4;stroke:#070707;stroke-miterlimit:10;}
	.st67{fill:#FFFBF2;stroke:#070707;stroke-miterlimit:10;}
	.st68{fill:#E2B139;}
	.st69{fill:#FFFBF2;stroke:#020202;stroke-miterlimit:10;}
	.st70{fill:#ADCCFF;stroke:#020202;stroke-width:0.75;stroke-miterlimit:10;}
	.st71{fill:#FFFBF2;stroke:#020202;stroke-width:0.75;stroke-miterlimit:10;}
	.st72{fill:#FFD258;stroke:#050505;stroke-width:0.75;stroke-miterlimit:10;}
	.st73{fill:#FBCEC6;stroke:#020202;stroke-width:0.75;stroke-miterlimit:10;}
	.st74{fill:#73B7A4;stroke:#050505;stroke-miterlimit:10;}
	.st75{fill:#73B7A4;stroke:#050505;stroke-width:0.75;stroke-miterlimit:10;}
	.st76{fill:#E2C2A6;}
	.st77{fill:#DBC69E;}
	.st78{fill:#D39C94;}
	.st79{fill:#E0B344;}
	.st80{fill:#E0AE32;}
	.st81{fill:#4F9982;}
	.st82{fill:#DDBA9B;}
	.st83{fill:#FF5F7D;stroke:#000000;stroke-width:0.75;stroke-miterlimit:10;}
	.st84{fill:#FFD258;stroke:#000000;stroke-width:0.75;stroke-miterlimit:10;}
	.st85{fill:none;stroke:#000000;stroke-width:0.5;stroke-miterlimit:10;}
	.st86{opacity:0.43;fill:#7F3B48;}
	.st87{opacity:0.88;fill:#98BFFF;}
	.st88{opacity:0.75;fill:#FFFBF2;}
	.st89{opacity:0.88;fill:#719BD8;}
	.st90{opacity:0.75;fill:#EAD9B7;}
	.st91{fill:#FEF0E1;}
	.st92{fill:none;stroke:#070707;stroke-miterlimit:10;}
	.st93{fill:#C1962B;}
	.st94{fill:#D6B154;}
	.st95{fill:#5DA08B;}
	.st96{fill:#C6961E;}
</style>
<rect x="-5.9" y="-0.6" class="st1" width="703.1" height="476.3"/>
<g>
	<path class="st46" d="M348.7,258c24.7-0.7,49.1-1.4,70.9-17.3c10.5,33.2,14.3,67.4,13.1,102.7c-55.5,0-110.9,0-166.4,0
		c-1.5-35.2,2.6-69.4,13-102.7c7.3,4.4,17.9,9.7,31.3,13.3C326,258.2,339.5,258.5,348.7,258z M374.4,305.6
		c0-15.8-11.1-28.6-24.9-28.7c-13.8-0.1-25.1,12.7-25.1,28.5c0,15.8,11.1,28.6,24.9,28.7C363.1,334.2,374.4,321.4,374.4,305.6z"/>
	<path class="st54" d="M299.3,239.4c16.4-11.3,89.8-11.2,103.9-0.1c-1.8,0.8-3.3,1.7-4.9,2.2c-18.2,5.1-36.9,6.3-55.7,5.7
		c-11.7-0.4-23.4-1.3-34.7-4.6C305.2,241.8,302.6,240.6,299.3,239.4z"/>
	<path class="st54" d="M336.9,151.6c8.5,0,16.6,0,24.8,0c0.1,0.8,0.2,1.6,0.2,2.4c0,21,0,42,0,63c0,0.3,0,0.6,0,0.9
		c-0.1,2.7-1.8,4.5-4.2,4.4c-2.4,0-4.1-1.8-4.1-4.5c-0.1-6.5,0-13.1,0-19.6c0-5.6,0-11.1,0-16.7c0-3-1.5-5-3.9-5
		c-2.7,0-4.1,1.5-4.4,4.2c-0.3,2.5-1.8,4-4.4,3.9c-2.5-0.1-3.9-1.8-4-4.3C336.9,170.9,336.9,161.4,336.9,151.6z"/>
	<path class="st46" d="M345.1,213.9c0.2,3.1,0.4,5.6,0.5,8.4c-5.8,0.4-11.8,0.4-17.7,1.3c-8.4,1.2-16.8,2.8-25.1,4.8
		c-5.1,1.3-9.9,3.8-12.1,9.7c-2.2-1.5-4.4-2.7-6.2-4.3c-2.5-2.2-2.5-4.4,0.1-6.5c2.2-1.7,4.8-3.2,7.4-4.4
		c10.7-4.7,22.2-6.5,33.8-7.8C332.2,214.6,338.5,214.4,345.1,213.9z"/>
	<path class="st46" d="M411.8,234.9c-3.4-2-6.7-4.5-10.3-6c-8.4-3.4-17.4-4.5-26.4-5.4c-1.8-0.2-3.5-0.4-5.3-0.6
		c0.2-2.6,0.5-5,0.7-8c3.8,0.5,7.6,0.6,11.3,1.4c8.5,2,17,4.3,25.4,6.8c2.3,0.7,4.4,2.2,6.4,3.7c3.3,2.6,3.2,4.8,0,7.5
		c-0.6,0.5-1.3,0.9-1.9,1.4C411.7,235.5,411.7,235.2,411.8,234.9z"/>
	<path class="st38" d="M364,167.8c0-5.4,0-10.7,0-16.2c4.6,0,9.2-0.3,13.6,0.1c4.1,0.3,7,3.9,7.1,7.8c0.1,4-2.6,7.8-6.7,8.2
		C373.6,168.2,368.9,167.8,364,167.8z"/>
	<path class="st38" d="M266.1,153.3c22.8-0.6,45.6-1.1,68.4-1.7c0,5.4,0,10.8,0,16.3c-22.7-0.9-45.4-1.8-68.1-2.7
		C266.3,161.2,266.2,157.2,266.1,153.3z"/>
	<path class="st46" d="M374.2,305.6c0,15.7-11.3,28.6-25.1,28.5c-13.8-0.1-25-12.9-24.9-28.7c0-15.8,11.3-28.6,25.1-28.5
		C363.2,277.1,374.3,289.8,374.2,305.6z M345.1,287.5c-7.9,1.7-13.3,10.7-12.5,20.4c0.9,9.7,8.7,17.2,17.4,16.7
		c8.6-0.5,15.6-8.5,15.9-18.2c0.3-9.2-5.5-17.9-12.6-18.7c0,2.7,0,5.4,0,8.2c-2.8,0-5.4,0-8.2,0
		C345.1,292.9,345.1,290.2,345.1,287.5z"/>
</g>
</svg>
