<?xml version="1.0" encoding="utf-8"?>
<!-- Generator: Adobe Illustrator 22.1.0, SVG Export Plug-In . SVG Version: 6.00 Build 0)  -->
<svg version="1.1" id="Calque_1" xmlns="http://www.w3.org/2000/svg" xmlns:xlink="http://www.w3.org/1999/xlink" x="0px" y="0px"
	 viewBox="0 0 700 480" style="enable-background:new 0 0 700 480;" xml:space="preserve">
<style type="text/css">
	.st0{fill:#DAECFF;}
	.st1{fill:#FFD258;}
	.st2{fill:#FBCEC6;}
	.st3{fill:#ADCCFF;}
	.st4{fill:#FF5F7D;}
	.st5{fill:none;stroke:#000000;stroke-width:2;stroke-miterlimit:10;}
	.st6{fill:#FFFBF2;}
	.st7{fill:#73B7A4;}
	.st8{fill:none;stroke:#000000;stroke-miterlimit:10;}
	.st9{fill:#98BFFF;}
	.st10{fill:#FFD258;stroke:#000000;stroke-width:2;stroke-miterlimit:10;}
	.st11{fill:#FEF0E1;stroke:#070707;stroke-miterlimit:10;}
	.st12{fill:#D3A533;}
	.st13{fill:#FFB5C0;stroke:#020202;stroke-miterlimit:10;}
	.st14{fill:#FF8E9E;}
	.st15{fill:#FF8E9E;stroke:#000000;stroke-miterlimit:10;}
	.st16{fill:#EA5B70;}
	.st17{fill:#020202;}
	.st18{fill:#FFD258;stroke:#050505;stroke-width:0.5;stroke-miterlimit:10;}
	.st19{fill:#FEF0E1;stroke:#020202;stroke-width:0.5;stroke-miterlimit:10;}
	.st20{fill:#DDB143;}
	.st21{fill:#D6AF8B;}
	.st22{fill:#FFFBF2;stroke:#020202;stroke-width:2;stroke-miterlimit:10;}
	.st23{fill:#FF5F7D;stroke:#020202;stroke-width:2;stroke-miterlimit:10;}
	.st24{fill:#FFFFFF;}
	.st25{fill:#ADCCFF;stroke:#020202;stroke-width:2;stroke-miterlimit:10;}
	.st26{fill:#FFD258;stroke:#050505;stroke-width:2;stroke-miterlimit:10;}
	.st27{fill:#85AAE0;}
	.st28{fill:#C99E32;}
	.st29{fill:#FFCF47;stroke:#020202;stroke-miterlimit:10;}
	.st30{fill:#FF5F7D;stroke:#050505;stroke-width:2;stroke-miterlimit:10;}
	.st31{fill:#F36B7F;stroke:#000000;stroke-miterlimit:10;}
	.st32{fill:#DBA92C;}
	.st33{fill:#73B7A4;stroke:#020202;stroke-width:2;stroke-miterlimit:10;}
	.st34{fill:#FFCF47;stroke:#020202;stroke-width:2;stroke-miterlimit:10;}
	.st35{fill:#99C6B8;}
	.st36{fill:#E2B23B;}
	.st37{fill:#C11A3E;}
	.st38{fill:#FEF0E1;stroke:#020202;stroke-miterlimit:10;}
	.st39{fill:#ADCCFF;stroke:#020202;stroke-miterlimit:10;}
	.st40{fill:#FFD258;stroke:#0C0C0C;stroke-width:0.75;stroke-miterlimit:10;}
	.st41{fill:#ADCCFF;stroke:#050505;stroke-width:2;stroke-miterlimit:10;}
	.st42{fill:#73B7A4;stroke:#050505;stroke-width:2;stroke-miterlimit:10;}
	.st43{fill:#FFFBF2;stroke:#050505;stroke-width:2;stroke-miterlimit:10;}
	.st44{fill:#FEF0E1;stroke:#020202;stroke-width:2;stroke-miterlimit:10;}
	.st45{fill:#D8A830;}
	.st46{fill:#FF5F7D;stroke:#050505;stroke-miterlimit:10;}
	.st47{fill:#73B7A4;stroke:#020202;stroke-miterlimit:10;}
	.st48{fill:#E8D2BF;}
	.st49{fill:#FFD258;stroke:#0A0A0A;stroke-width:2;stroke-miterlimit:10;}
	.st50{fill:#D8AB3A;}
	.st51{fill:#FFD258;stroke:#050505;stroke-miterlimit:10;}
	.st52{fill:#FBCEC6;stroke:#070707;stroke-miterlimit:10;}
	.st53{fill:#D84161;}
	.st54{fill:#FFD258;stroke:#0A0A0A;stroke-miterlimit:10;}
	.st55{fill:#FFD258;stroke:#0A0A0A;stroke-width:3;stroke-miterlimit:10;}
	.st56{fill:none;stroke:#0A0A0A;stroke-width:2;stroke-miterlimit:10;}
	.st57{fill:#FF5F7D;stroke:#000000;stroke-miterlimit:10;}
	.st58{fill:#FFD258;stroke:#000000;stroke-miterlimit:10;}
	.st59{fill:#FF5F7D;stroke:#050505;stroke-width:0.75;stroke-miterlimit:10;}
	.st60{fill:#FEF0E1;stroke:#020202;stroke-width:0.75;stroke-miterlimit:10;}
	.st61{fill:#FF5F7D;stroke:#050505;stroke-width:0.25;stroke-miterlimit:10;}
	.st62{fill:#FFD258;stroke:#0A0A0A;stroke-width:0.75;stroke-miterlimit:10;}
	.st63{fill:#73B7A4;stroke:#020202;stroke-width:0.25;stroke-miterlimit:10;}
	.st64{fill:#FBCEC6;stroke:#020202;stroke-miterlimit:10;}
	.st65{fill:#73B7A4;stroke:#020202;stroke-width:0.75;stroke-miterlimit:10;}
	.st66{fill:#73B7A4;stroke:#070707;stroke-miterlimit:10;}
	.st67{fill:#FFFBF2;stroke:#070707;stroke-miterlimit:10;}
	.st68{fill:#E2B139;}
	.st69{fill:#FFFBF2;stroke:#020202;stroke-miterlimit:10;}
	.st70{fill:#ADCCFF;stroke:#020202;stroke-width:0.75;stroke-miterlimit:10;}
	.st71{fill:#FFFBF2;stroke:#020202;stroke-width:0.75;stroke-miterlimit:10;}
	.st72{fill:#FFD258;stroke:#050505;stroke-width:0.75;stroke-miterlimit:10;}
	.st73{fill:#FBCEC6;stroke:#020202;stroke-width:0.75;stroke-miterlimit:10;}
	.st74{fill:#73B7A4;stroke:#050505;stroke-miterlimit:10;}
	.st75{fill:#73B7A4;stroke:#050505;stroke-width:0.75;stroke-miterlimit:10;}
	.st76{fill:#E2C2A6;}
	.st77{fill:#DBC69E;}
	.st78{fill:#D39C94;}
	.st79{fill:#E0B344;}
	.st80{fill:#E0AE32;}
	.st81{fill:#4F9982;}
	.st82{fill:#DDBA9B;}
	.st83{fill:#FF5F7D;stroke:#000000;stroke-width:0.75;stroke-miterlimit:10;}
	.st84{fill:#FFD258;stroke:#000000;stroke-width:0.75;stroke-miterlimit:10;}
	.st85{fill:none;stroke:#000000;stroke-width:0.5;stroke-miterlimit:10;}
	.st86{opacity:0.43;fill:#7F3B48;}
	.st87{opacity:0.88;fill:#98BFFF;}
	.st88{opacity:0.75;fill:#FFFBF2;}
	.st89{opacity:0.88;fill:#719BD8;}
	.st90{opacity:0.75;fill:#EAD9B7;}
	.st91{fill:#FEF0E1;}
	.st92{fill:none;stroke:#070707;stroke-miterlimit:10;}
	.st93{fill:#C1962B;}
	.st94{fill:#D6B154;}
	.st95{fill:#5DA08B;}
	.st96{fill:#C6961E;}
</style>
<rect x="2.7" y="1.1" class="st0" width="697.3" height="477.8"/>
<g id="O9igst.tif">
	<g>
		<path class="st64" d="M340.3,236c-4.4,0-8.5,0-12.8,0c0-21.5,0-42.9,0-64.4c13,0,25.9,0,38.9,0c0,21.4,0,42.7,0,64.3
			c-4.1,0-8.3,0-12.7,0c0,8,0,15.7,0,23.8c2.4,0,4.9,0.1,7.3-0.1c0.5,0,1.1-0.9,1.5-1.5c4.8-6.6,11.2-9.8,19.2-8.5
			c7.9,1.3,13.2,6.1,15.4,13.8c1.7,5.6,0.7,10.9-2.7,15.7c-1,1.4-0.9,2.3,0,3.7c4.9,7.4,4.4,16.2-1.2,22.9
			c-5.4,6.5-14.6,8.9-22.4,5.1c-3.2-1.6-5.7-4.7-8.5-7c-0.8-0.7-1.8-1.5-2.7-1.5c-8.5-0.1-17,0-25.5-0.1c-1.5,0-2.1,0.7-2.9,1.8
			c-5.2,7.9-15.9,10.8-24.3,6.7c-8.8-4.3-13.1-14.1-10.1-23c1.1-3.4,1.1-10.1,0-13.4c-3-8.8,1.2-18.5,9.9-22.9
			c8.3-4.2,18.8-1.6,24.2,6.2c1.2,1.7,2.3,2.3,4.2,2.2c1.6-0.1,3.3,0,5.1,0C340.3,251.7,340.3,244,340.3,236z"/>
		<path class="st62" d="M235.1,235.9c0-21.5,0-42.8,0-64.3c30.8,0,61.5,0,92.4,0c0,21.4,0,42.8,0,64.3
			C296.7,235.9,266,235.9,235.1,235.9z M254.9,210c5.2,0,10.1,0,15,0c0-4.4,0-8.6,0-12.7c-5.1,0-10,0-15,0
			C254.9,201.6,254.9,205.7,254.9,210z M293.2,197.2c0,4.4,0,8.5,0,12.8c5.1,0,10,0,15,0c0-4.3,0-8.5,0-12.8
			C303.1,197.2,298.3,197.2,293.2,197.2z"/>
		<path class="st62" d="M458.8,235.9c-30.9,0-61.6,0-92.4,0c0-21.5,0-42.8,0-64.3c30.8,0,61.5,0,92.4,0
			C458.8,193,458.8,214.4,458.8,235.9z M385.7,197.2c0,4.3,0,8.5,0,12.8c5.1,0,10,0,15,0c0-4.4,0-8.6,0-12.8
			C395.6,197.2,390.8,197.2,385.7,197.2z M424,197.2c0,4.3,0,8.5,0,12.8c5.1,0,9.9,0,15,0c0-4.3,0-8.5,0-12.8
			C433.9,197.2,429,197.2,424,197.2z"/>
	</g>
</g>
<g id="O9igst.tif_1_">
	<g>
		<path class="st78" d="M326.4,266.1c-7.7,8.8-15.4,17.6-23.4,26.2c0.4,0.3,0.9,0.6,1.4,0.8c7.4,3.6,16.1,1.3,21.2-4.8
			c5.3-6.3,5.8-14.6,1.1-21.6C326.7,266.6,326.5,266.3,326.4,266.1z"/>
		<path class="st79" d="M365.5,218.8h25.3v-29.4C382.3,199.1,373.9,208.9,365.5,218.8z"/>
	</g>
</g>
</svg>
