<?xml version="1.0" encoding="utf-8"?>
<!-- Generator: Adobe Illustrator 22.1.0, SVG Export Plug-In . SVG Version: 6.00 Build 0)  -->
<svg version="1.1" id="Calque_1" xmlns="http://www.w3.org/2000/svg" xmlns:xlink="http://www.w3.org/1999/xlink" x="0px" y="0px"
	 viewBox="0 0 700 480" style="enable-background:new 0 0 700 480;" xml:space="preserve">
<style type="text/css">
	.st0{fill:#DAECFF;}
	.st1{fill:#FFD258;}
	.st2{fill:#FBCEC6;}
	.st3{fill:#ADCCFF;}
	.st4{fill:#FF5F7D;}
	.st5{fill:none;stroke:#000000;stroke-width:2;stroke-miterlimit:10;}
	.st6{fill:#FFFBF2;}
	.st7{fill:#73B7A4;}
	.st8{fill:none;stroke:#000000;stroke-miterlimit:10;}
	.st9{fill:#98BFFF;}
	.st10{fill:#FFD258;stroke:#000000;stroke-width:2;stroke-miterlimit:10;}
	.st11{fill:#FEF0E1;stroke:#070707;stroke-miterlimit:10;}
	.st12{fill:#D3A533;}
	.st13{fill:#FFB5C0;stroke:#020202;stroke-miterlimit:10;}
	.st14{fill:#FF8E9E;}
	.st15{fill:#FF8E9E;stroke:#000000;stroke-miterlimit:10;}
	.st16{fill:#EA5B70;}
	.st17{fill:#020202;}
	.st18{fill:#FFD258;stroke:#050505;stroke-width:0.5;stroke-miterlimit:10;}
	.st19{fill:#FEF0E1;stroke:#020202;stroke-width:0.5;stroke-miterlimit:10;}
	.st20{fill:#DDB143;}
	.st21{fill:#D6AF8B;}
	.st22{fill:#FFFBF2;stroke:#020202;stroke-width:2;stroke-miterlimit:10;}
	.st23{fill:#FF5F7D;stroke:#020202;stroke-width:2;stroke-miterlimit:10;}
	.st24{fill:#FFFFFF;}
	.st25{fill:#ADCCFF;stroke:#020202;stroke-width:2;stroke-miterlimit:10;}
	.st26{fill:#FFD258;stroke:#050505;stroke-width:2;stroke-miterlimit:10;}
	.st27{fill:#85AAE0;}
	.st28{fill:#C99E32;}
	.st29{fill:#FFCF47;stroke:#020202;stroke-miterlimit:10;}
	.st30{fill:#FF5F7D;stroke:#050505;stroke-width:2;stroke-miterlimit:10;}
	.st31{fill:#F36B7F;stroke:#000000;stroke-miterlimit:10;}
	.st32{fill:#DBA92C;}
	.st33{fill:#73B7A4;stroke:#020202;stroke-width:2;stroke-miterlimit:10;}
	.st34{fill:#FFCF47;stroke:#020202;stroke-width:2;stroke-miterlimit:10;}
	.st35{fill:#99C6B8;}
	.st36{fill:#E2B23B;}
	.st37{fill:#C11A3E;}
	.st38{fill:#FEF0E1;stroke:#020202;stroke-miterlimit:10;}
	.st39{fill:#ADCCFF;stroke:#020202;stroke-miterlimit:10;}
	.st40{fill:#FFD258;stroke:#0C0C0C;stroke-width:0.75;stroke-miterlimit:10;}
	.st41{fill:#ADCCFF;stroke:#050505;stroke-width:2;stroke-miterlimit:10;}
	.st42{fill:#73B7A4;stroke:#050505;stroke-width:2;stroke-miterlimit:10;}
	.st43{fill:#FFFBF2;stroke:#050505;stroke-width:2;stroke-miterlimit:10;}
	.st44{fill:#FEF0E1;stroke:#020202;stroke-width:2;stroke-miterlimit:10;}
	.st45{fill:#D8A830;}
	.st46{fill:#FF5F7D;stroke:#050505;stroke-miterlimit:10;}
	.st47{fill:#73B7A4;stroke:#020202;stroke-miterlimit:10;}
	.st48{fill:#E8D2BF;}
	.st49{fill:#FFD258;stroke:#0A0A0A;stroke-width:2;stroke-miterlimit:10;}
	.st50{fill:#D8AB3A;}
	.st51{fill:#FFD258;stroke:#050505;stroke-miterlimit:10;}
	.st52{fill:#FBCEC6;stroke:#070707;stroke-miterlimit:10;}
	.st53{fill:#D84161;}
	.st54{fill:#FFD258;stroke:#0A0A0A;stroke-miterlimit:10;}
	.st55{fill:#FFD258;stroke:#0A0A0A;stroke-width:3;stroke-miterlimit:10;}
	.st56{fill:none;stroke:#0A0A0A;stroke-width:2;stroke-miterlimit:10;}
	.st57{fill:#FF5F7D;stroke:#000000;stroke-miterlimit:10;}
	.st58{fill:#FFD258;stroke:#000000;stroke-miterlimit:10;}
	.st59{fill:#FF5F7D;stroke:#050505;stroke-width:0.75;stroke-miterlimit:10;}
	.st60{fill:#FEF0E1;stroke:#020202;stroke-width:0.75;stroke-miterlimit:10;}
	.st61{fill:#FF5F7D;stroke:#050505;stroke-width:0.25;stroke-miterlimit:10;}
	.st62{fill:#FFD258;stroke:#0A0A0A;stroke-width:0.75;stroke-miterlimit:10;}
	.st63{fill:#73B7A4;stroke:#020202;stroke-width:0.25;stroke-miterlimit:10;}
	.st64{fill:#FBCEC6;stroke:#020202;stroke-miterlimit:10;}
	.st65{fill:#73B7A4;stroke:#020202;stroke-width:0.75;stroke-miterlimit:10;}
	.st66{fill:#73B7A4;stroke:#070707;stroke-miterlimit:10;}
	.st67{fill:#FFFBF2;stroke:#070707;stroke-miterlimit:10;}
	.st68{fill:#E2B139;}
	.st69{fill:#FFFBF2;stroke:#020202;stroke-miterlimit:10;}
	.st70{fill:#ADCCFF;stroke:#020202;stroke-width:0.75;stroke-miterlimit:10;}
	.st71{fill:#FFFBF2;stroke:#020202;stroke-width:0.75;stroke-miterlimit:10;}
	.st72{fill:#FFD258;stroke:#050505;stroke-width:0.75;stroke-miterlimit:10;}
	.st73{fill:#FBCEC6;stroke:#020202;stroke-width:0.75;stroke-miterlimit:10;}
	.st74{fill:#73B7A4;stroke:#050505;stroke-miterlimit:10;}
	.st75{fill:#73B7A4;stroke:#050505;stroke-width:0.75;stroke-miterlimit:10;}
	.st76{fill:#E2C2A6;}
	.st77{fill:#DBC69E;}
	.st78{fill:#D39C94;}
	.st79{fill:#E0B344;}
	.st80{fill:#E0AE32;}
	.st81{fill:#4F9982;}
	.st82{fill:#DDBA9B;}
	.st83{fill:#FF5F7D;stroke:#000000;stroke-width:0.75;stroke-miterlimit:10;}
	.st84{fill:#FFD258;stroke:#000000;stroke-width:0.75;stroke-miterlimit:10;}
	.st85{fill:none;stroke:#000000;stroke-width:0.5;stroke-miterlimit:10;}
	.st86{opacity:0.43;fill:#7F3B48;}
	.st87{opacity:0.88;fill:#98BFFF;}
	.st88{opacity:0.75;fill:#FFFBF2;}
	.st89{opacity:0.88;fill:#719BD8;}
	.st90{opacity:0.75;fill:#EAD9B7;}
	.st91{fill:#FEF0E1;}
	.st92{fill:none;stroke:#070707;stroke-miterlimit:10;}
	.st93{fill:#C1962B;}
	.st94{fill:#D6B154;}
	.st95{fill:#5DA08B;}
	.st96{fill:#C6961E;}
	.st97{fill:#FF5F7D;stroke:#FFFFFF;stroke-miterlimit:10;}
	.st98{fill:#FF5F7D;stroke:#070707;stroke-miterlimit:10;}
</style>
<rect x="1.1" y="-3.3" class="st0" width="699.7" height="480"/>
<g id="SMDrzm.tif">
	<g>
		<path class="st62" d="M442,197.1c7.6-1.9,12.8,2.5,15.5,11.2c1.6,5.3,3.5,10.5,5.3,15.8c0.8,2.3,0.1,3.9-1.9,5.4
			c-10.4,7.8-22.2,13.1-34.2,17.8c-19.6,7.5-39.8,12.9-60.4,16.9c-9.3,1.8-18.7,3.5-28.1,5.1c-1,0.2-2.9-0.7-3.2-1.6
			c-2.8-7.4-5.4-14.9-7.9-22.4c-0.7-2,0.2-3.3,2-4.4c23.6-15.3,48.2-28.7,75.2-37.4C416,199.8,427.9,197.2,442,197.1z"/>
		<path class="st62" d="M290.8,233.5c0.3-13.6,2.3-27,6.3-39.9c0.8-2.7,3.1-5,5-7.3c0.5-0.6,1.8-0.7,2.7-0.6
			c6.9,0.8,13.3,3.1,19,7.2c1.8,1.3,2.3,2.7,1.8,4.8c-2.5,10.7-3.1,21.6-2.4,32.6c2,31.1,15.7,55.8,41.2,73.6c2.9,2,4,3.9,3.4,7.5
			c-1.2,6.5-3,12.7-7.2,18c-2.7,3.3-3.1,3.4-6.6,1.3c-18.5-11-35.2-24.1-47.9-41.8c-7.8-10.9-11.8-23.3-13.6-36.4
			C291.7,246.2,291.4,239.8,290.8,233.5z"/>
		<path class="st62" d="M463.8,229.7c2.2,11.4,1.5,22.1,0,32.9c-0.8,5.5-3.5,8-8.5,9.9c-28.3,10.3-56.5,21-84.7,31.5
			c-0.9,0.4-2.4,0.2-3.3-0.3c-12-7.8-21.8-17.8-29.2-30c-0.2-0.3-0.4-0.7-0.5-1.1c-0.1-0.3-0.1-0.6-0.1-1.2
			c4.6-0.8,9.1-1.5,13.6-2.5c17.1-3.9,34.3-7.5,51.3-11.8c16.2-4.1,31.8-10,46.5-18c4.3-2.3,8.2-5.1,12.4-7.7
			C462,230.8,462.7,230.4,463.8,229.7z"/>
		<path class="st62" d="M450.5,195.9c-1.5-0.1-2.5-0.1-3.4-0.2c-11.1-1.1-22,0.5-32.8,3.2c-30.7,7.7-58.1,22.7-84.5,39.5
			c-0.8,0.5-1.7,1-2.6,1.5c-0.2,0.1-0.4,0-1,0c-0.4-3-1-6.1-1.2-9.2c-0.8-11.1,0.1-22.1,2.4-32.9c0.3-1.3,1.5-3,2.7-3.5
			c15.2-6.3,30.3-12.9,45.7-18.5c9.4-3.4,19.3-5.5,29-7.7c4.7-1.1,9.7-1.1,14.5-1.3c1.2-0.1,2.6,0.4,3.6,1.1
			c10.7,6.9,19.5,15.6,26.7,26.1C449.9,194.3,450,194.8,450.5,195.9z"/>
		<path class="st62" d="M415.6,290.1c-1,5-1.6,9.5-2.8,13.8c-3.2,11.7-8.9,22-18.3,30c-1.4,1.2-3.4,2.2-5.2,2.6
			c-10.4,1.9-20.9,2.1-31.4,0.3c-0.5-0.1-0.9-0.2-1.6-0.4c0.4-0.6,0.5-1.1,0.8-1.4c8.6-6.4,11.6-15.6,12.8-25.6
			c0.3-2.3,0.9-3.5,3.1-4.3c13.4-4.8,26.8-9.8,40.2-14.6C413.6,290.2,414.1,290.3,415.6,290.1z"/>
		<path class="st62" d="M293.3,199.7c-0.9,5.1-1.9,10.2-2.6,15.4c-1.7,12.3-1.5,24.5-0.1,36.9c3.4,30.3,21.4,50.9,44.5,68.2
			c5.6,4.2,11.7,7.9,17.5,11.8c0.8,0.5,1.6,1.1,2.4,1.6c0,0.4,0,0.7-0.1,1.1c-1.6,0.2-3.3,1-4.7,0.5c-31.9-9.5-54.4-29.2-65-61.2
			c-8.2-24.7-5.9-48.5,5.9-71.6c0.5-1,1.2-1.9,1.7-2.9C293,199.5,293.1,199.6,293.3,199.7z"/>
		<path class="st62" d="M304.4,183.7c1-1.3,1.6-2,2.3-2.7c6.6-6.8,14.3-12.2,22.4-17.1c4.5-2.7,8.8-1.9,13.2-1.1
			c9.4,1.9,18.1,5.8,26,11.2c0.4,0.3,0.7,0.6,1.5,1.4c-3.2,1.3-6,2.3-8.7,3.5c-10.2,4.3-20.4,8.7-30.6,13.1c-2.2,1-3.8,1.2-5.9-0.5
			C319.1,187,312.4,184.8,304.4,183.7z"/>
		<path class="st62" d="M397.6,334.2c3.1-3.9,6-7.3,8.4-11c6.1-9.1,9.6-19.3,10.6-30.2c0.3-2.9,1.3-4.6,4.3-5.5
			c5.7-1.9,11.3-4.1,16.9-6.4c2.1-0.8,3-0.2,3.3,1.8c1.2,9.4,0.6,18.6-3.1,27.5c-0.4,0.9-1.1,1.7-1.8,2.3
			c-10.6,10-22.8,17-36.7,21.3C399.1,334.2,398.5,334.2,397.6,334.2z"/>
		<path class="st62" d="M338.5,159.4c4.7-1.4,8.7-2.9,12.8-3.8c8.6-2.1,17.4-3,26.3-2.4c1.9,0.1,4.1,0.7,5.5,1.8
			c4,3.2,7.7,6.8,11.4,10.3c1.8,1.7,1.2,2.6-1.2,3.3c-6.1,1.6-12.1,3.6-18.3,5.2c-1.3,0.4-3.2,0.2-4.3-0.5
			c-8.9-5.8-18.2-10.5-28.7-12.4c-0.7-0.1-1.3-0.4-2-0.6C339.7,160.3,339.5,160.1,338.5,159.4z"/>
		<path class="st62" d="M441.8,306.2c0.4-2.5,1.1-4.9,1.2-7.4c0.1-5.5-0.1-11.1-0.1-16.6c0-1.1,0.4-2.9,1.2-3.2
			c5.4-2.4,10.9-4.4,17.3-7C457.4,285.5,451,296.5,441.8,306.2z"/>
		<path class="st62" d="M387.2,154.2c10,1.3,19.8,4.7,29.1,10.4c-3.4,0.5-6.7,0.9-10.1,1.4c-0.6,0.1-1.2,0-1.8,0.2
			c-4.7,2.1-7.6,0.1-10.2-3.8C392.2,159.4,389.5,156.9,387.2,154.2z"/>
	</g>
</g>
</svg>
