<?xml version="1.0" encoding="utf-8"?>
<!-- Generator: Adobe Illustrator 22.1.0, SVG Export Plug-In . SVG Version: 6.00 Build 0)  -->
<svg version="1.1" id="Calque_1" xmlns="http://www.w3.org/2000/svg" xmlns:xlink="http://www.w3.org/1999/xlink" x="0px" y="0px"
	 viewBox="0 0 700 480" style="enable-background:new 0 0 700 480;" xml:space="preserve">
<style type="text/css">
	.st0{fill:#DAECFF;}
	.st1{fill:#FFD258;}
	.st2{fill:#FBCEC6;}
	.st3{fill:#ADCCFF;}
	.st4{fill:#FF5F7D;}
	.st5{fill:none;stroke:#000000;stroke-width:2;stroke-miterlimit:10;}
	.st6{fill:#FFFBF2;}
	.st7{fill:#73B7A4;}
	.st8{fill:none;stroke:#000000;stroke-miterlimit:10;}
	.st9{fill:#98BFFF;}
	.st10{fill:#FFD258;stroke:#000000;stroke-width:2;stroke-miterlimit:10;}
	.st11{fill:#FEF0E1;stroke:#070707;stroke-miterlimit:10;}
	.st12{fill:#D3A533;}
	.st13{fill:#FFB5C0;stroke:#020202;stroke-miterlimit:10;}
	.st14{fill:#FF8E9E;}
	.st15{fill:#FF8E9E;stroke:#000000;stroke-miterlimit:10;}
	.st16{fill:#EA5B70;}
	.st17{fill:#020202;}
	.st18{fill:#FFD258;stroke:#050505;stroke-width:0.5;stroke-miterlimit:10;}
	.st19{fill:#FEF0E1;stroke:#020202;stroke-width:0.5;stroke-miterlimit:10;}
	.st20{fill:#DDB143;}
	.st21{fill:#D6AF8B;}
	.st22{fill:#FFFBF2;stroke:#020202;stroke-width:2;stroke-miterlimit:10;}
	.st23{fill:#FF5F7D;stroke:#020202;stroke-width:2;stroke-miterlimit:10;}
	.st24{fill:#FFFFFF;}
	.st25{fill:#ADCCFF;stroke:#020202;stroke-width:2;stroke-miterlimit:10;}
	.st26{fill:#FFD258;stroke:#050505;stroke-width:2;stroke-miterlimit:10;}
	.st27{fill:#85AAE0;}
	.st28{fill:#C99E32;}
	.st29{fill:#FFCF47;stroke:#020202;stroke-miterlimit:10;}
	.st30{fill:#FF5F7D;stroke:#050505;stroke-width:2;stroke-miterlimit:10;}
	.st31{fill:#F36B7F;stroke:#000000;stroke-miterlimit:10;}
	.st32{fill:#DBA92C;}
	.st33{fill:#73B7A4;stroke:#020202;stroke-width:2;stroke-miterlimit:10;}
	.st34{fill:#FFCF47;stroke:#020202;stroke-width:2;stroke-miterlimit:10;}
	.st35{fill:#99C6B8;}
	.st36{fill:#E2B23B;}
	.st37{fill:#C11A3E;}
	.st38{fill:#FEF0E1;stroke:#020202;stroke-miterlimit:10;}
	.st39{fill:#ADCCFF;stroke:#020202;stroke-miterlimit:10;}
	.st40{fill:#FFD258;stroke:#0C0C0C;stroke-width:0.75;stroke-miterlimit:10;}
	.st41{fill:#ADCCFF;stroke:#050505;stroke-width:2;stroke-miterlimit:10;}
	.st42{fill:#73B7A4;stroke:#050505;stroke-width:2;stroke-miterlimit:10;}
	.st43{fill:#FFFBF2;stroke:#050505;stroke-width:2;stroke-miterlimit:10;}
	.st44{fill:#FEF0E1;stroke:#020202;stroke-width:2;stroke-miterlimit:10;}
	.st45{fill:#D8A830;}
	.st46{fill:#FF5F7D;stroke:#050505;stroke-miterlimit:10;}
	.st47{fill:#73B7A4;stroke:#020202;stroke-miterlimit:10;}
	.st48{fill:#E8D2BF;}
	.st49{fill:#FFD258;stroke:#0A0A0A;stroke-width:2;stroke-miterlimit:10;}
	.st50{fill:#D8AB3A;}
	.st51{fill:#FFD258;stroke:#050505;stroke-miterlimit:10;}
	.st52{fill:#FBCEC6;stroke:#070707;stroke-miterlimit:10;}
	.st53{fill:#D84161;}
	.st54{fill:#FFD258;stroke:#0A0A0A;stroke-miterlimit:10;}
	.st55{fill:#FFD258;stroke:#0A0A0A;stroke-width:3;stroke-miterlimit:10;}
	.st56{fill:none;stroke:#0A0A0A;stroke-width:2;stroke-miterlimit:10;}
	.st57{fill:#FF5F7D;stroke:#000000;stroke-miterlimit:10;}
	.st58{fill:#FFD258;stroke:#000000;stroke-miterlimit:10;}
	.st59{fill:#FF5F7D;stroke:#050505;stroke-width:0.75;stroke-miterlimit:10;}
	.st60{fill:#FEF0E1;stroke:#020202;stroke-width:0.75;stroke-miterlimit:10;}
	.st61{fill:#FF5F7D;stroke:#050505;stroke-width:0.25;stroke-miterlimit:10;}
	.st62{fill:#FFD258;stroke:#0A0A0A;stroke-width:0.75;stroke-miterlimit:10;}
	.st63{fill:#73B7A4;stroke:#020202;stroke-width:0.25;stroke-miterlimit:10;}
	.st64{fill:#FBCEC6;stroke:#020202;stroke-miterlimit:10;}
	.st65{fill:#73B7A4;stroke:#020202;stroke-width:0.75;stroke-miterlimit:10;}
	.st66{fill:#73B7A4;stroke:#070707;stroke-miterlimit:10;}
	.st67{fill:#FFFBF2;stroke:#070707;stroke-miterlimit:10;}
	.st68{fill:#E2B139;}
	.st69{fill:#FFFBF2;stroke:#020202;stroke-miterlimit:10;}
	.st70{fill:#ADCCFF;stroke:#020202;stroke-width:0.75;stroke-miterlimit:10;}
	.st71{fill:#FFFBF2;stroke:#020202;stroke-width:0.75;stroke-miterlimit:10;}
	.st72{fill:#FFD258;stroke:#050505;stroke-width:0.75;stroke-miterlimit:10;}
	.st73{fill:#FBCEC6;stroke:#020202;stroke-width:0.75;stroke-miterlimit:10;}
	.st74{fill:#73B7A4;stroke:#050505;stroke-miterlimit:10;}
	.st75{fill:#73B7A4;stroke:#050505;stroke-width:0.75;stroke-miterlimit:10;}
	.st76{fill:#E2C2A6;}
	.st77{fill:#DBC69E;}
	.st78{fill:#D39C94;}
	.st79{fill:#E0B344;}
	.st80{fill:#E0AE32;}
	.st81{fill:#4F9982;}
	.st82{fill:#DDBA9B;}
	.st83{fill:#FF5F7D;stroke:#000000;stroke-width:0.75;stroke-miterlimit:10;}
	.st84{fill:#FFD258;stroke:#000000;stroke-width:0.75;stroke-miterlimit:10;}
	.st85{fill:none;stroke:#000000;stroke-width:0.5;stroke-miterlimit:10;}
	.st86{opacity:0.43;fill:#7F3B48;}
	.st87{opacity:0.88;fill:#98BFFF;}
	.st88{opacity:0.75;fill:#FFFBF2;}
	.st89{opacity:0.88;fill:#719BD8;}
	.st90{opacity:0.75;fill:#EAD9B7;}
	.st91{fill:#FEF0E1;}
	.st92{fill:none;stroke:#070707;stroke-miterlimit:10;}
	.st93{fill:#C1962B;}
	.st94{fill:#D6B154;}
	.st95{fill:#5DA08B;}
	.st96{fill:#C6961E;}
	.st97{fill:#FF5F7D;stroke:#FFFFFF;stroke-miterlimit:10;}
	.st98{fill:#FF5F7D;stroke:#070707;stroke-miterlimit:10;}
</style>
<rect x="-1.1" y="0.5" class="st0" width="699.7" height="480"/>
<g id="FRZeOr.tif">
	<g>
		<path class="st51" d="M288.4,310.5c-2.9,0-5.4,0-7.9,0c-4.4,0-5.1-0.6-5.3-5c0-0.4-0.1-0.8-0.2-1.6c-1.9,0-3.8-0.2-5.6,0.1
			c-0.6,0.1-1.2,1.1-1.5,1.9c-2.4,6.3-8.1,10.8-14.4,11.1c-3.2,0.1-4.4-1-4.4-4.2c0-16.8,0-33.7,0-50.5c0-3.3,1.4-4.6,4.7-4.2
			c6.7,0.7,11.5,4.3,13.9,10.6c0.8,2.1,1.8,2.6,3.8,2.4c1.2-0.1,2.5,0,3.6,0c1-6.5,1-6.5,7.5-6.5c1.9,0,3.8,0,6,0c0-5,0-9.7,0-14.4
			c0-4.6,0.7-5.3,5.1-5.3c31.7,0,63.3,0,95,0c4.6,0,5.3,0.8,5.3,5.4c0,5.3,0,10.6,0,16.4c2,0,3.9,0.1,5.8-0.1c0.5,0,1.2-0.8,1.4-1.3
			c1.8-5.4,5.4-8.8,10.6-10.8c18.6-7.3,37.2-14.7,55.8-22c3.7-1.4,5.6-0.1,5.6,3.8c0,34.2,0,68.3,0,102.5c0,4-1.9,5.3-5.6,3.9
			c-18.8-7.4-37.5-14.8-56.2-22.2c-4.8-1.9-8.4-5.2-9.9-10.2c-0.5-1.6-1.3-2.1-2.8-2c-1.4,0.1-2.8,0-4.4,0c-0.1,1.1-0.1,2-0.1,2.9
			c0,5,0,10,0,15c0,2.7-1.1,3.9-3.7,3.9c-13.9,0-27.8,0-41.7-0.1c-1.1,0-2.8-0.7-3.1-1.5c-0.9-2.2-2.5-1.8-4.1-1.8
			c-1.6,0-3-0.2-3.8,1.8c-0.3,0.8-1.9,1.4-2.9,1.4c-14.2,0.1-28.3,0.1-42.5,0c-2.5,0-3.5-1.2-3.5-3.8
			C288.4,321.1,288.4,316,288.4,310.5z M325,287.4c0,9,7.3,16.4,16.3,16.4c9.1,0,16.3-7.2,16.3-16.3c0-9-7.2-16.2-16.1-16.3
			C332.6,271,325,278.5,325,287.4z M400.4,301.5c0-9,0-17.9,0-26.8c0-0.4-0.7-1.2-1.1-1.2c-1.7-0.1-3.4-0.1-5.2-0.1
			c0,9.6,0,18.8,0,28.1C396.2,301.5,398.1,301.5,400.4,301.5z M275.2,296.8c0-4.9,0-9.9,0-15c0-4.7,0.6-4-4.1-4.2
			c-1.8-0.1-2.5,0.5-2.4,2.4c0.1,4.1,0,8.2,0.1,12.2c0,5.6,0.3,5.8,5.9,4.9C274.7,297.1,274.8,297,275.2,296.8z M305.1,287.5
			c-0.2-1.9-1.2-3.1-3.2-3.1c-2,0-3.1,1.2-3.1,3.2c0,2,1.1,3.1,3.1,3.1C303.9,290.6,305,289.4,305.1,287.5z"/>
		<path class="st11" d="M341.3,208.2c-6.1,13.6-15.7,23-29.4,27.6c-9.5,3.2-19.2,3.5-28.8,0.5c-21-6.6-34.5-25.1-34.1-46.8
			c0.3-20.9,14.6-39.3,35.1-45.1c18.5-5.3,45.3,1.3,57.3,28.1c6.1-13.6,15.9-23,30-27.6c9.4-3.1,18.9-3.1,28.3-0.2
			c20.8,6.5,34.1,24.9,33.9,46.4c-0.2,20.9-14.1,39.4-34.5,45.2c-11.7,3.3-23.1,2.4-34.1-2.9C354.1,228.2,346.3,219.7,341.3,208.2z"
			/>
		<path class="st51" d="M325,287.4c0-8.9,7.6-16.4,16.5-16.3c9,0.1,16.1,7.4,16.1,16.3c0,9.1-7.3,16.4-16.3,16.3
			C332.2,303.8,325,296.5,325,287.4z M351.2,287.7c0-5.5-4.5-10.1-9.9-10.1c-5.4,0-9.8,4.5-9.8,9.9c0,5.4,4.3,9.8,9.8,9.9
			C346.6,297.5,351.2,293.1,351.2,287.7z"/>
		<path class="st51" d="M400.4,301.5c-2.2,0-4.2,0-6.3,0c0-9.3,0-18.5,0-28.1c1.7,0,3.5-0.1,5.2,0.1c0.4,0,1.1,0.8,1.1,1.2
			C400.4,283.6,400.4,292.4,400.4,301.5z"/>
		<path class="st51" d="M275.2,296.8c-0.4,0.2-0.5,0.3-0.5,0.3c-5.7,0.9-5.9,0.7-5.9-4.9c0-4.1,0.1-8.2-0.1-12.2
			c-0.1-1.9,0.6-2.4,2.4-2.4c4.7,0.2,4-0.5,4.1,4.2C275.2,286.9,275.2,291.9,275.2,296.8z"/>
		<path class="st51" d="M305.1,287.5c-0.1,2-1.2,3.1-3.1,3.1c-2,0-3.1-1.1-3.1-3.1c0-1.9,1.1-3.2,3.1-3.2
			C303.9,284.4,304.9,285.5,305.1,287.5z"/>
		<path class="st51" d="M351.2,287.7c0,5.4-4.6,9.8-10,9.7c-5.5-0.1-9.8-4.5-9.8-9.9c0-5.4,4.5-9.9,9.8-9.9
			C346.7,277.5,351.2,282.1,351.2,287.7z"/>
	</g>
</g>
</svg>
