<?xml version="1.0" encoding="utf-8"?>
<!-- Generator: Adobe Illustrator 22.1.0, SVG Export Plug-In . SVG Version: 6.00 Build 0)  -->
<svg version="1.1" id="Calque_1" xmlns="http://www.w3.org/2000/svg" xmlns:xlink="http://www.w3.org/1999/xlink" x="0px" y="0px"
	 viewBox="0 0 700 480" style="enable-background:new 0 0 700 480;" xml:space="preserve">
<style type="text/css">
	.st0{fill:#DAECFF;}
	.st1{fill:#FFD258;}
	.st2{fill:#FBCEC6;}
	.st3{fill:#ADCCFF;}
	.st4{fill:#FF5F7D;}
	.st5{fill:none;stroke:#000000;stroke-width:2;stroke-miterlimit:10;}
	.st6{fill:#FFFBF2;}
	.st7{fill:#73B7A4;}
	.st8{fill:none;stroke:#000000;stroke-miterlimit:10;}
	.st9{fill:#98BFFF;}
	.st10{fill:#FFD258;stroke:#000000;stroke-width:2;stroke-miterlimit:10;}
	.st11{fill:#FEF0E1;stroke:#070707;stroke-miterlimit:10;}
	.st12{fill:#D3A533;}
	.st13{fill:#FFB5C0;stroke:#020202;stroke-miterlimit:10;}
	.st14{fill:#FF8E9E;}
	.st15{fill:#FF8E9E;stroke:#000000;stroke-miterlimit:10;}
	.st16{fill:#EA5B70;}
	.st17{fill:#020202;}
	.st18{fill:#FFD258;stroke:#050505;stroke-width:0.5;stroke-miterlimit:10;}
	.st19{fill:#FEF0E1;stroke:#020202;stroke-width:0.5;stroke-miterlimit:10;}
	.st20{fill:#DDB143;}
	.st21{fill:#D6AF8B;}
	.st22{fill:#FFFBF2;stroke:#020202;stroke-width:2;stroke-miterlimit:10;}
	.st23{fill:#FF5F7D;stroke:#020202;stroke-width:2;stroke-miterlimit:10;}
	.st24{fill:#FFFFFF;}
	.st25{fill:#ADCCFF;stroke:#020202;stroke-width:2;stroke-miterlimit:10;}
	.st26{fill:#FFD258;stroke:#050505;stroke-width:2;stroke-miterlimit:10;}
	.st27{fill:#85AAE0;}
	.st28{fill:#C99E32;}
	.st29{fill:#FFCF47;stroke:#020202;stroke-miterlimit:10;}
	.st30{fill:#FF5F7D;stroke:#050505;stroke-width:2;stroke-miterlimit:10;}
	.st31{fill:#F36B7F;stroke:#000000;stroke-miterlimit:10;}
	.st32{fill:#DBA92C;}
	.st33{fill:#73B7A4;stroke:#020202;stroke-width:2;stroke-miterlimit:10;}
	.st34{fill:#FFCF47;stroke:#020202;stroke-width:2;stroke-miterlimit:10;}
	.st35{fill:#99C6B8;}
	.st36{fill:#E2B23B;}
	.st37{fill:#C11A3E;}
	.st38{fill:#FEF0E1;stroke:#020202;stroke-miterlimit:10;}
	.st39{fill:#ADCCFF;stroke:#020202;stroke-miterlimit:10;}
	.st40{fill:#FFD258;stroke:#0C0C0C;stroke-width:0.75;stroke-miterlimit:10;}
	.st41{fill:#ADCCFF;stroke:#050505;stroke-width:2;stroke-miterlimit:10;}
	.st42{fill:#73B7A4;stroke:#050505;stroke-width:2;stroke-miterlimit:10;}
	.st43{fill:#FFFBF2;stroke:#050505;stroke-width:2;stroke-miterlimit:10;}
	.st44{fill:#FEF0E1;stroke:#020202;stroke-width:2;stroke-miterlimit:10;}
	.st45{fill:#D8A830;}
	.st46{fill:#FF5F7D;stroke:#050505;stroke-miterlimit:10;}
	.st47{fill:#73B7A4;stroke:#020202;stroke-miterlimit:10;}
	.st48{fill:#E8D2BF;}
	.st49{fill:#FFD258;stroke:#0A0A0A;stroke-width:2;stroke-miterlimit:10;}
	.st50{fill:#D8AB3A;}
	.st51{fill:#FFD258;stroke:#050505;stroke-miterlimit:10;}
	.st52{fill:#FBCEC6;stroke:#070707;stroke-miterlimit:10;}
	.st53{fill:#D84161;}
	.st54{fill:#FFD258;stroke:#0A0A0A;stroke-miterlimit:10;}
	.st55{fill:#FFD258;stroke:#0A0A0A;stroke-width:3;stroke-miterlimit:10;}
	.st56{fill:none;stroke:#0A0A0A;stroke-width:2;stroke-miterlimit:10;}
	.st57{fill:#FF5F7D;stroke:#000000;stroke-miterlimit:10;}
	.st58{fill:#FFD258;stroke:#000000;stroke-miterlimit:10;}
	.st59{fill:#FF5F7D;stroke:#050505;stroke-width:0.75;stroke-miterlimit:10;}
	.st60{fill:#FEF0E1;stroke:#020202;stroke-width:0.75;stroke-miterlimit:10;}
	.st61{fill:#FF5F7D;stroke:#050505;stroke-width:0.25;stroke-miterlimit:10;}
	.st62{fill:#FFD258;stroke:#0A0A0A;stroke-width:0.75;stroke-miterlimit:10;}
	.st63{fill:#73B7A4;stroke:#020202;stroke-width:0.25;stroke-miterlimit:10;}
	.st64{fill:#FBCEC6;stroke:#020202;stroke-miterlimit:10;}
	.st65{fill:#73B7A4;stroke:#020202;stroke-width:0.75;stroke-miterlimit:10;}
	.st66{fill:#73B7A4;stroke:#070707;stroke-miterlimit:10;}
	.st67{fill:#FFFBF2;stroke:#070707;stroke-miterlimit:10;}
	.st68{fill:#E2B139;}
	.st69{fill:#FFFBF2;stroke:#020202;stroke-miterlimit:10;}
	.st70{fill:#ADCCFF;stroke:#020202;stroke-width:0.75;stroke-miterlimit:10;}
	.st71{fill:#FFFBF2;stroke:#020202;stroke-width:0.75;stroke-miterlimit:10;}
	.st72{fill:#FFD258;stroke:#050505;stroke-width:0.75;stroke-miterlimit:10;}
	.st73{fill:#FBCEC6;stroke:#020202;stroke-width:0.75;stroke-miterlimit:10;}
	.st74{fill:#73B7A4;stroke:#050505;stroke-miterlimit:10;}
	.st75{fill:#73B7A4;stroke:#050505;stroke-width:0.75;stroke-miterlimit:10;}
	.st76{fill:#E2C2A6;}
	.st77{fill:#DBC69E;}
	.st78{fill:#D39C94;}
	.st79{fill:#E0B344;}
	.st80{fill:#E0AE32;}
	.st81{fill:#4F9982;}
	.st82{fill:#DDBA9B;}
	.st83{fill:#FF5F7D;stroke:#000000;stroke-width:0.75;stroke-miterlimit:10;}
	.st84{fill:#FFD258;stroke:#000000;stroke-width:0.75;stroke-miterlimit:10;}
	.st85{fill:none;stroke:#000000;stroke-width:0.5;stroke-miterlimit:10;}
	.st86{opacity:0.43;fill:#7F3B48;}
	.st87{opacity:0.88;fill:#98BFFF;}
	.st88{opacity:0.75;fill:#FFFBF2;}
	.st89{opacity:0.88;fill:#719BD8;}
	.st90{opacity:0.75;fill:#EAD9B7;}
	.st91{fill:#FEF0E1;}
	.st92{fill:none;stroke:#070707;stroke-miterlimit:10;}
	.st93{fill:#C1962B;}
	.st94{fill:#D6B154;}
	.st95{fill:#5DA08B;}
	.st96{fill:#C6961E;}
</style>
<rect x="2.5" y="3.4" class="st0" width="699.7" height="480"/>
<g id="_x37_IEHO2.tif">
	<g>
		<path class="st59" d="M367.6,327.2c-7.1,6.1-13.6,12.2-20.6,17.6c-8.6,6.7-18.7,10.3-29.5,10.9c-19.6,1.1-38.1-10.9-44.1-31.4
			c-2.8-9.4-2.9-18.8,0.7-27.9c5.5-13.5,10.9-27,17.2-40.2c13-27.2,26.4-54.2,39.9-81.2c2.8-5.5,6.1-10.8,9.7-15.8
			c12-16.5,40.4-16.2,52.2,0c3.4,4.7,6.6,9.6,9.2,14.8c14.5,29.2,28.9,58.5,43.1,88c5.9,12.2,11.7,24.5,15.5,37.6
			c6.5,22.7-6.7,50.4-33.5,55.2c-11.5,2.1-22.2-0.5-32.4-5.7c-10-5.1-18.5-12.3-26.1-20.4C368.4,328.2,367.8,327.5,367.6,327.2z
			 M375.7,316.8c7.6,8.5,15.8,16,25.9,21.1c7.9,3.9,16.2,6,25,3.9c16.5-4,26.8-22,21.6-38.5c-2.4-7.8-5.4-15.4-8.9-22.7
			c-16.7-34.9-33.7-69.7-50.7-104.5c-1-2.2-2.4-4.1-3.8-6.1c-3.9-5.9-9.3-9.2-16.4-9.6c-7.2-0.3-13.5,1.5-17.8,7.6
			c-3.2,4.5-6,9.2-8.5,14.1c-12.9,26.1-25.7,52.2-38.5,78.3c-6.4,13.2-12.7,26.4-17.2,40.4c-1.7,5.1-2.5,10.3-1.7,15.8
			c2.7,17.6,18.4,28.9,35.8,25.5c6.7-1.3,12.6-4.2,18.2-7.9c7.3-4.9,13.5-10.9,19.4-17.4c-0.6-0.8-1-1.4-1.5-2
			c-6.6-8.6-12.4-17.7-17.2-27.4c-4.1-8.3-6.9-16.9-7.4-26.2c-0.4-9.2,1.6-17.8,7.5-25.1c8-9.9,18.6-13.9,31.2-12.5
			c13.1,1.4,22.6,8.2,27.8,20.4c4.6,10.7,3.6,21.6,0.1,32.3c-4.2,12.8-11.3,24.1-19.1,35C378.5,313.1,377.1,314.9,375.7,316.8z
			 M367.1,306.6c8.5-11.8,16.6-23.4,20.2-37.4c1.1-4.5,1.4-9.4,1.1-14c-0.7-9.4-7.1-16.2-16-18.3c-9.3-2.2-18.7,1.3-23.5,8.9
			c-3.7,5.9-4.5,12.5-3,19.1c1.2,5.3,2.9,10.6,5.1,15.6C355.1,289.8,360.6,298.2,367.1,306.6z"/>
		<path class="st60" d="M375.7,316.8c1.4-1.9,2.8-3.7,4.1-5.5c7.8-10.9,14.9-22.2,19.1-35c3.5-10.7,4.6-21.6-0.1-32.3
			c-5.3-12.1-14.7-19-27.8-20.4c-12.5-1.4-23.1,2.7-31.2,12.5c-5.9,7.3-7.9,15.9-7.5,25.1c0.4,9.3,3.3,18,7.4,26.2
			c4.8,9.7,10.6,18.8,17.2,27.4c0.5,0.6,0.9,1.2,1.5,2c-5.9,6.5-12.1,12.5-19.4,17.4c-5.6,3.7-11.6,6.6-18.2,7.9
			c-17.4,3.4-33.2-7.9-35.8-25.5c-0.8-5.5,0-10.7,1.7-15.8c4.5-14,10.8-27.2,17.2-40.4c12.8-26.1,25.5-52.3,38.5-78.3
			c2.4-4.9,5.3-9.7,8.5-14.1c4.3-6.1,10.6-7.9,17.8-7.6c7.1,0.3,12.5,3.7,16.4,9.6c1.3,2,2.7,4,3.8,6.1c17,34.8,34,69.6,50.7,104.5
			c3.5,7.3,6.5,15,8.9,22.7c5.1,16.6-5.1,34.5-21.6,38.5c-8.8,2.1-17.1,0-25-3.9C391.5,332.8,383.3,325.3,375.7,316.8z"/>
		<path class="st60" d="M367.1,306.6c-6.5-8.4-12-16.8-16.1-26c-2.2-5-3.8-10.3-5.1-15.6c-1.5-6.6-0.8-13.2,3-19.1
			c4.8-7.6,14.2-11.1,23.5-8.9c8.9,2.1,15.3,8.9,16,18.3c0.4,4.6,0.1,9.5-1.1,14C383.7,283.2,375.6,294.8,367.1,306.6z"/>
	</g>
</g>
</svg>
