<?xml version="1.0" encoding="utf-8"?>
<!-- Generator: Adobe Illustrator 22.1.0, SVG Export Plug-In . SVG Version: 6.00 Build 0)  -->
<svg version="1.1" id="Calque_1" xmlns="http://www.w3.org/2000/svg" xmlns:xlink="http://www.w3.org/1999/xlink" x="0px" y="0px"
	 viewBox="0 0 700 480" style="enable-background:new 0 0 700 480;" xml:space="preserve">
<style type="text/css">
	.st0{fill:#DAECFF;}
	.st1{fill:#FFD258;}
	.st2{fill:#FBCEC6;}
	.st3{fill:#ADCCFF;}
	.st4{fill:#FF5F7D;}
	.st5{fill:none;stroke:#000000;stroke-width:2;stroke-miterlimit:10;}
	.st6{fill:#FFFBF2;}
	.st7{fill:#73B7A4;}
	.st8{fill:none;stroke:#000000;stroke-miterlimit:10;}
	.st9{fill:#98BFFF;}
	.st10{fill:#FFD258;stroke:#000000;stroke-width:2;stroke-miterlimit:10;}
	.st11{fill:#FEF0E1;stroke:#070707;stroke-miterlimit:10;}
	.st12{fill:#D3A533;}
	.st13{fill:#FFB5C0;stroke:#020202;stroke-miterlimit:10;}
	.st14{fill:#FF8E9E;}
	.st15{fill:#FF8E9E;stroke:#000000;stroke-miterlimit:10;}
	.st16{fill:#EA5B70;}
	.st17{fill:#020202;}
	.st18{fill:#FFD258;stroke:#050505;stroke-width:0.5;stroke-miterlimit:10;}
	.st19{fill:#FEF0E1;stroke:#020202;stroke-width:0.5;stroke-miterlimit:10;}
	.st20{fill:#DDB143;}
	.st21{fill:#D6AF8B;}
	.st22{fill:#FFFBF2;stroke:#020202;stroke-width:2;stroke-miterlimit:10;}
	.st23{fill:#FF5F7D;stroke:#020202;stroke-width:2;stroke-miterlimit:10;}
	.st24{fill:#FFFFFF;}
	.st25{fill:#ADCCFF;stroke:#020202;stroke-width:2;stroke-miterlimit:10;}
	.st26{fill:#FFD258;stroke:#050505;stroke-width:2;stroke-miterlimit:10;}
	.st27{fill:#85AAE0;}
	.st28{fill:#C99E32;}
	.st29{fill:#FFCF47;stroke:#020202;stroke-miterlimit:10;}
	.st30{fill:#FF5F7D;stroke:#050505;stroke-width:2;stroke-miterlimit:10;}
	.st31{fill:#F36B7F;stroke:#000000;stroke-miterlimit:10;}
	.st32{fill:#DBA92C;}
	.st33{fill:#73B7A4;stroke:#020202;stroke-width:2;stroke-miterlimit:10;}
	.st34{fill:#FFCF47;stroke:#020202;stroke-width:2;stroke-miterlimit:10;}
	.st35{fill:#99C6B8;}
	.st36{fill:#E2B23B;}
	.st37{fill:#C11A3E;}
	.st38{fill:#FEF0E1;stroke:#020202;stroke-miterlimit:10;}
	.st39{fill:#ADCCFF;stroke:#020202;stroke-miterlimit:10;}
	.st40{fill:#FFD258;stroke:#0C0C0C;stroke-width:0.75;stroke-miterlimit:10;}
	.st41{fill:#ADCCFF;stroke:#050505;stroke-width:2;stroke-miterlimit:10;}
	.st42{fill:#73B7A4;stroke:#050505;stroke-width:2;stroke-miterlimit:10;}
	.st43{fill:#FFFBF2;stroke:#050505;stroke-width:2;stroke-miterlimit:10;}
	.st44{fill:#FEF0E1;stroke:#020202;stroke-width:2;stroke-miterlimit:10;}
	.st45{fill:#D8A830;}
	.st46{fill:#FF5F7D;stroke:#050505;stroke-miterlimit:10;}
	.st47{fill:#73B7A4;stroke:#020202;stroke-miterlimit:10;}
	.st48{fill:#E8D2BF;}
	.st49{fill:#FFD258;stroke:#0A0A0A;stroke-width:2;stroke-miterlimit:10;}
	.st50{fill:#D8AB3A;}
	.st51{fill:#FFD258;stroke:#050505;stroke-miterlimit:10;}
	.st52{fill:#FBCEC6;stroke:#070707;stroke-miterlimit:10;}
	.st53{fill:#D84161;}
	.st54{fill:#FFD258;stroke:#0A0A0A;stroke-miterlimit:10;}
	.st55{fill:#FFD258;stroke:#0A0A0A;stroke-width:3;stroke-miterlimit:10;}
	.st56{fill:none;stroke:#0A0A0A;stroke-width:2;stroke-miterlimit:10;}
	.st57{fill:#FF5F7D;stroke:#000000;stroke-miterlimit:10;}
	.st58{fill:#FFD258;stroke:#000000;stroke-miterlimit:10;}
	.st59{fill:#FF5F7D;stroke:#050505;stroke-width:0.75;stroke-miterlimit:10;}
	.st60{fill:#FEF0E1;stroke:#020202;stroke-width:0.75;stroke-miterlimit:10;}
	.st61{fill:#FF5F7D;stroke:#050505;stroke-width:0.25;stroke-miterlimit:10;}
	.st62{fill:#FFD258;stroke:#0A0A0A;stroke-width:0.75;stroke-miterlimit:10;}
	.st63{fill:#73B7A4;stroke:#020202;stroke-width:0.25;stroke-miterlimit:10;}
	.st64{fill:#FBCEC6;stroke:#020202;stroke-miterlimit:10;}
	.st65{fill:#73B7A4;stroke:#020202;stroke-width:0.75;stroke-miterlimit:10;}
	.st66{fill:#73B7A4;stroke:#070707;stroke-miterlimit:10;}
	.st67{fill:#FFFBF2;stroke:#070707;stroke-miterlimit:10;}
	.st68{fill:#E2B139;}
	.st69{fill:#FFFBF2;stroke:#020202;stroke-miterlimit:10;}
	.st70{fill:#ADCCFF;stroke:#020202;stroke-width:0.75;stroke-miterlimit:10;}
	.st71{fill:#FFFBF2;stroke:#020202;stroke-width:0.75;stroke-miterlimit:10;}
	.st72{fill:#FFD258;stroke:#050505;stroke-width:0.75;stroke-miterlimit:10;}
	.st73{fill:#FBCEC6;stroke:#020202;stroke-width:0.75;stroke-miterlimit:10;}
	.st74{fill:#73B7A4;stroke:#050505;stroke-miterlimit:10;}
	.st75{fill:#73B7A4;stroke:#050505;stroke-width:0.75;stroke-miterlimit:10;}
	.st76{fill:#E2C2A6;}
	.st77{fill:#DBC69E;}
	.st78{fill:#D39C94;}
	.st79{fill:#E0B344;}
	.st80{fill:#E0AE32;}
	.st81{fill:#4F9982;}
	.st82{fill:#DDBA9B;}
	.st83{fill:#FF5F7D;stroke:#000000;stroke-width:0.75;stroke-miterlimit:10;}
	.st84{fill:#FFD258;stroke:#000000;stroke-width:0.75;stroke-miterlimit:10;}
	.st85{fill:none;stroke:#000000;stroke-width:0.5;stroke-miterlimit:10;}
	.st86{opacity:0.43;fill:#7F3B48;}
	.st87{opacity:0.88;fill:#98BFFF;}
	.st88{opacity:0.75;fill:#FFFBF2;}
	.st89{opacity:0.88;fill:#719BD8;}
	.st90{opacity:0.75;fill:#EAD9B7;}
	.st91{fill:#FEF0E1;}
	.st92{fill:none;stroke:#070707;stroke-miterlimit:10;}
	.st93{fill:#C1962B;}
	.st94{fill:#D6B154;}
	.st95{fill:#5DA08B;}
	.st96{fill:#C6961E;}
</style>
<rect x="1" y="1.3" class="st1" width="703.1" height="476.3"/>
<g id="qaBsM1.tif">
	<g>
		<path class="st39" d="M443.9,249.8c-29.6,0-59.1,0-88.7,0c0-29.6,0-59.1,0-88.7c0.6,0,1.2-0.1,1.8-0.1c21.7,0,43.3,0,65,0
			c11.5,0,20,7.2,21.8,18.4c0.2,0.9,0.2,1.9,0.2,2.9c0,21.9,0,43.7,0,65.6C444,248.5,443.9,249.1,443.9,249.8z M401.5,211.2
			C401.5,211.2,401.5,211.2,401.5,211.2c5.6,0,11.2,0,16.7,0c2,0,3.8-0.5,5.1-2.2c1.4-1.9,1.7-3.9,0.7-6c-1.2-2.6-3.4-3.4-6.1-3.4
			c-11,0-22.1,0-33.1,0c-1.1,0-2.4,0.2-3.4,0.7c-2.3,1-3.6,3.7-3.1,6.1c0.6,2.7,2.6,4.6,5.5,4.7
			C389.8,211.2,395.6,211.2,401.5,211.2z"/>
		<path class="st39" d="M347.3,249.8c-29.6,0-59,0-88.8,0c0-0.8,0-1.6,0-2.4c0-21.5,0-43,0-64.6c0-12.4,8.7-21.7,21.2-21.8
			c22.3-0.2,44.6-0.1,66.8-0.1c0.2,0,0.4,0.1,0.8,0.1C347.3,190.6,347.3,220.1,347.3,249.8z M295.2,201.6c-1.4,0-2.5,0-3.7,0
			c-1.9,0.1-3.7,0-5.5,0.3c-3.8,0.8-5.5,5.1-3.5,8.4c1.3,2.1,3.3,2.8,5.6,2.8c2.3,0,4.6,0,7.1,0c0,2.7,0,5,0,7.3
			c0,0.9,0.1,1.8,0.4,2.6c1.1,2.7,3.6,3.9,6.6,3.4c2.6-0.5,4.5-2.7,4.5-5.6c0.1-2.5,0-5,0-7.7c2.6,0,4.9,0.2,7.1-0.1
			c1.7-0.2,3.5-0.9,4.8-1.9c1.8-1.5,2-3.7,1.2-5.9c-1-2.6-3.1-3.6-5.7-3.7c-2.4-0.1-4.8,0-7.4,0c0-2.6,0-5,0-7.4
			c-0.1-3.6-2.6-6.2-5.9-6.1c-3.3,0.1-5.6,2.6-5.7,6.1C295.2,196.6,295.2,199,295.2,201.6z"/>
		<path class="st39" d="M258.6,257.7c29.6,0,59,0,88.6,0c0,29.6,0,59.1,0,88.7c-0.6,0-1.3,0.1-1.9,0.1c-21.6,0-43.2,0-64.8,0
			c-11.5,0-20-7.1-21.9-18.2c-0.1-0.9-0.2-1.8-0.2-2.7c0-22.1,0-44.3,0-66.4C258.5,258.7,258.5,258.3,258.6,257.7z M302.9,310
			c2,2,3.7,3.8,5.4,5.6c1.4,1.4,3.1,2,5,1.8c2.3-0.3,3.9-1.6,4.7-3.8c0.9-2.3,0.2-4.3-1.4-5.9c-1.8-1.9-3.8-3.6-6-5.5
			c2.1-2,3.9-3.7,5.6-5.4c2.8-2.8,2.8-6.1,0.3-8.6c-2.3-2.3-5.9-2.1-8.5,0.5c-1.7,1.7-3.3,3.5-5.1,5.5c-2.1-2.2-3.8-4.1-5.6-5.9
			c-3.3-3.1-8.2-1.9-9.7,2.4c-0.8,2.4,0.1,4.4,1.7,6c1.7,1.7,3.6,3.3,5.6,5.2c-2.1,2-3.8,3.6-5.5,5.3c-2.8,2.9-2.9,6.2-0.3,8.7
			c2.3,2.2,5.9,2,8.5-0.6C299.5,313.6,301,311.9,302.9,310z"/>
		<path class="st46" d="M355.2,346.3c0-29.5,0-59,0-88.6c29.6,0,59.1,0,88.8,0c0,0.8,0,1.5,0,2.3c0,21.5,0,43,0,64.6
			c0,12.4-8.6,21.7-21.1,21.9c-22.3,0.2-44.6,0.1-66.8,0.1C355.8,346.5,355.6,346.4,355.2,346.3z M399.6,284.7
			C399.6,284.7,399.6,284.7,399.6,284.7c-5.6,0-11.2,0-16.7,0c-2,0-3.8,0.5-5.1,2.1c-1.4,1.8-1.7,3.9-0.8,6c1.2,2.7,3.5,3.4,6.3,3.4
			c10.9,0,21.8,0,32.7,0c1.2,0,2.5-0.2,3.6-0.7c2.4-1,3.7-3.7,3.2-6.1c-0.5-2.7-2.6-4.7-5.5-4.7
			C411.3,284.7,405.4,284.7,399.6,284.7z M399.6,307.9C399.6,307.9,399.6,307.9,399.6,307.9c-5.6,0-11.2-0.2-16.7,0
			c-1.6,0.1-3.5,0.8-4.8,1.8c-1.8,1.3-2.1,3.6-1.4,5.7c0.7,2.1,2.2,3.8,4.6,3.8c12.2,0.1,24.4,0,36.6,0c0.6,0,1.2-0.2,1.8-0.5
			c2.3-1.2,3.5-3.8,3-6.2c-0.6-2.7-2.6-4.5-5.4-4.5C411.3,307.8,405.5,307.9,399.6,307.9z"/>
		<path class="st38" d="M401.5,211.2c-5.9,0-11.7,0.1-17.6,0c-2.9,0-5-1.9-5.5-4.7c-0.5-2.4,0.8-5.1,3.1-6.1c1-0.5,2.3-0.7,3.4-0.7
			c11,0,22.1,0,33.1,0c2.7,0,4.9,0.8,6.1,3.4c1,2.1,0.7,4.2-0.7,6c-1.3,1.7-3.1,2.2-5.1,2.2C412.7,211.2,407.1,211.2,401.5,211.2
			C401.5,211.2,401.5,211.2,401.5,211.2z"/>
		<path class="st38" d="M295.2,201.6c0-2.6,0-5,0-7.4c0-3.5,2.4-6,5.7-6.1c3.3-0.1,5.8,2.5,5.9,6.1c0,2.4,0,4.8,0,7.4
			c2.6,0,5,0,7.4,0c2.6,0.1,4.7,1.1,5.7,3.7c0.9,2.2,0.6,4.4-1.2,5.9c-1.3,1-3.1,1.7-4.8,1.9c-2.2,0.3-4.5,0.1-7.1,0.1
			c0,2.6,0.1,5.2,0,7.7c-0.1,2.9-1.9,5.1-4.5,5.6c-2.9,0.6-5.5-0.7-6.6-3.4c-0.3-0.8-0.4-1.7-0.4-2.6c-0.1-2.3,0-4.7,0-7.3
			c-2.4,0-4.7,0-7.1,0c-2.3,0-4.3-0.7-5.6-2.8c-2-3.3-0.3-7.7,3.5-8.4c1.8-0.4,3.7-0.3,5.5-0.3C292.7,201.5,293.9,201.6,295.2,201.6
			z"/>
		<path class="st38" d="M302.9,310c-1.8,1.9-3.4,3.7-5.1,5.3c-2.6,2.6-6.2,2.8-8.5,0.6c-2.6-2.5-2.5-5.9,0.3-8.7
			c1.6-1.7,3.4-3.2,5.5-5.3c-2-1.8-3.9-3.4-5.6-5.2c-1.6-1.6-2.5-3.6-1.7-6c1.5-4.3,6.4-5.5,9.7-2.4c1.8,1.7,3.5,3.7,5.6,5.9
			c1.8-2,3.4-3.8,5.1-5.5c2.6-2.6,6.2-2.8,8.5-0.5c2.6,2.5,2.5,5.8-0.3,8.6c-1.7,1.7-3.5,3.3-5.6,5.4c2.1,2,4.2,3.6,6,5.5
			c1.6,1.6,2.3,3.6,1.4,5.9c-0.9,2.2-2.4,3.5-4.7,3.8c-2,0.2-3.7-0.4-5-1.8C306.6,313.8,304.9,312,302.9,310z"/>
		<path class="st38" d="M399.6,284.7c5.9,0,11.7-0.1,17.6,0c2.9,0,5,2,5.5,4.7c0.5,2.4-0.8,5.1-3.2,6.1c-1.1,0.5-2.4,0.7-3.6,0.7
			c-10.9,0-21.8,0-32.7,0c-2.7,0-5.1-0.8-6.3-3.4c-1-2.1-0.7-4.2,0.8-6c1.3-1.7,3.1-2.1,5.1-2.1C388.4,284.7,394,284.7,399.6,284.7
			C399.6,284.7,399.6,284.7,399.6,284.7z"/>
		<path class="st38" d="M399.6,307.9c5.9,0,11.7-0.1,17.6,0c2.8,0,4.8,1.9,5.4,4.5c0.5,2.4-0.7,5.1-3,6.2c-0.5,0.3-1.2,0.5-1.8,0.5
			c-12.2,0-24.4,0.1-36.6,0c-2.4,0-3.9-1.7-4.6-3.8c-0.7-2.1-0.4-4.3,1.4-5.7c1.3-1,3.2-1.7,4.8-1.8
			C388.4,307.7,394,307.9,399.6,307.9C399.6,307.9,399.6,307.9,399.6,307.9z"/>
	</g>
</g>
</svg>
