<?xml version="1.0" encoding="utf-8"?>
<!-- Generator: Adobe Illustrator 22.1.0, SVG Export Plug-In . SVG Version: 6.00 Build 0)  -->
<svg version="1.1" id="Calque_1" xmlns="http://www.w3.org/2000/svg" xmlns:xlink="http://www.w3.org/1999/xlink" x="0px" y="0px"
	 viewBox="0 0 700 480" style="enable-background:new 0 0 700 480;" xml:space="preserve">
<style type="text/css">
	.st0{fill:#DAECFF;}
	.st1{fill:#FFD258;}
	.st2{fill:#FBCEC6;}
	.st3{fill:#ADCCFF;}
	.st4{fill:#FF5F7D;}
	.st5{fill:none;stroke:#000000;stroke-width:2;stroke-miterlimit:10;}
	.st6{fill:#FFFBF2;}
	.st7{fill:#73B7A4;}
	.st8{fill:none;stroke:#000000;stroke-miterlimit:10;}
	.st9{fill:#98BFFF;}
	.st10{fill:#FFD258;stroke:#000000;stroke-width:2;stroke-miterlimit:10;}
	.st11{fill:#FEF0E1;stroke:#070707;stroke-miterlimit:10;}
	.st12{fill:#D3A533;}
	.st13{fill:#FFB5C0;stroke:#020202;stroke-miterlimit:10;}
	.st14{fill:#FF8E9E;}
	.st15{fill:#FF8E9E;stroke:#000000;stroke-miterlimit:10;}
	.st16{fill:#EA5B70;}
	.st17{fill:#020202;}
	.st18{fill:#FFD258;stroke:#050505;stroke-width:0.5;stroke-miterlimit:10;}
	.st19{fill:#FEF0E1;stroke:#020202;stroke-width:0.5;stroke-miterlimit:10;}
	.st20{fill:#DDB143;}
	.st21{fill:#D6AF8B;}
	.st22{fill:#FFFBF2;stroke:#020202;stroke-width:2;stroke-miterlimit:10;}
	.st23{fill:#FF5F7D;stroke:#020202;stroke-width:2;stroke-miterlimit:10;}
	.st24{fill:#FFFFFF;}
	.st25{fill:#ADCCFF;stroke:#020202;stroke-width:2;stroke-miterlimit:10;}
	.st26{fill:#FFD258;stroke:#050505;stroke-width:2;stroke-miterlimit:10;}
	.st27{fill:#85AAE0;}
	.st28{fill:#C99E32;}
	.st29{fill:#FFCF47;stroke:#020202;stroke-miterlimit:10;}
	.st30{fill:#FF5F7D;stroke:#050505;stroke-width:2;stroke-miterlimit:10;}
	.st31{fill:#F36B7F;stroke:#000000;stroke-miterlimit:10;}
	.st32{fill:#DBA92C;}
	.st33{fill:#73B7A4;stroke:#020202;stroke-width:2;stroke-miterlimit:10;}
	.st34{fill:#FFCF47;stroke:#020202;stroke-width:2;stroke-miterlimit:10;}
	.st35{fill:#99C6B8;}
	.st36{fill:#E2B23B;}
	.st37{fill:#C11A3E;}
	.st38{fill:#FEF0E1;stroke:#020202;stroke-miterlimit:10;}
	.st39{fill:#ADCCFF;stroke:#020202;stroke-miterlimit:10;}
	.st40{fill:#FFD258;stroke:#0C0C0C;stroke-width:0.75;stroke-miterlimit:10;}
	.st41{fill:#ADCCFF;stroke:#050505;stroke-width:2;stroke-miterlimit:10;}
	.st42{fill:#73B7A4;stroke:#050505;stroke-width:2;stroke-miterlimit:10;}
	.st43{fill:#FFFBF2;stroke:#050505;stroke-width:2;stroke-miterlimit:10;}
	.st44{fill:#FEF0E1;stroke:#020202;stroke-width:2;stroke-miterlimit:10;}
	.st45{fill:#D8A830;}
	.st46{fill:#FF5F7D;stroke:#050505;stroke-miterlimit:10;}
	.st47{fill:#73B7A4;stroke:#020202;stroke-miterlimit:10;}
	.st48{fill:#E8D2BF;}
	.st49{fill:#FFD258;stroke:#0A0A0A;stroke-width:2;stroke-miterlimit:10;}
	.st50{fill:#D8AB3A;}
	.st51{fill:#FFD258;stroke:#050505;stroke-miterlimit:10;}
	.st52{fill:#FBCEC6;stroke:#070707;stroke-miterlimit:10;}
	.st53{fill:#D84161;}
	.st54{fill:#FFD258;stroke:#0A0A0A;stroke-miterlimit:10;}
	.st55{fill:#FFD258;stroke:#0A0A0A;stroke-width:3;stroke-miterlimit:10;}
	.st56{fill:none;stroke:#0A0A0A;stroke-width:2;stroke-miterlimit:10;}
	.st57{fill:#FF5F7D;stroke:#000000;stroke-miterlimit:10;}
	.st58{fill:#FFD258;stroke:#000000;stroke-miterlimit:10;}
	.st59{fill:#FF5F7D;stroke:#050505;stroke-width:0.75;stroke-miterlimit:10;}
	.st60{fill:#FEF0E1;stroke:#020202;stroke-width:0.75;stroke-miterlimit:10;}
	.st61{fill:#FF5F7D;stroke:#050505;stroke-width:0.25;stroke-miterlimit:10;}
	.st62{fill:#FFD258;stroke:#0A0A0A;stroke-width:0.75;stroke-miterlimit:10;}
	.st63{fill:#73B7A4;stroke:#020202;stroke-width:0.25;stroke-miterlimit:10;}
	.st64{fill:#FBCEC6;stroke:#020202;stroke-miterlimit:10;}
	.st65{fill:#73B7A4;stroke:#020202;stroke-width:0.75;stroke-miterlimit:10;}
	.st66{fill:#73B7A4;stroke:#070707;stroke-miterlimit:10;}
	.st67{fill:#FFFBF2;stroke:#070707;stroke-miterlimit:10;}
	.st68{fill:#E2B139;}
	.st69{fill:#FFFBF2;stroke:#020202;stroke-miterlimit:10;}
	.st70{fill:#ADCCFF;stroke:#020202;stroke-width:0.75;stroke-miterlimit:10;}
	.st71{fill:#FFFBF2;stroke:#020202;stroke-width:0.75;stroke-miterlimit:10;}
	.st72{fill:#FFD258;stroke:#050505;stroke-width:0.75;stroke-miterlimit:10;}
	.st73{fill:#FBCEC6;stroke:#020202;stroke-width:0.75;stroke-miterlimit:10;}
	.st74{fill:#73B7A4;stroke:#050505;stroke-miterlimit:10;}
	.st75{fill:#73B7A4;stroke:#050505;stroke-width:0.75;stroke-miterlimit:10;}
	.st76{fill:#E2C2A6;}
	.st77{fill:#DBC69E;}
	.st78{fill:#D39C94;}
	.st79{fill:#E0B344;}
	.st80{fill:#E0AE32;}
	.st81{fill:#4F9982;}
	.st82{fill:#DDBA9B;}
	.st83{fill:#FF5F7D;stroke:#000000;stroke-width:0.75;stroke-miterlimit:10;}
	.st84{fill:#FFD258;stroke:#000000;stroke-width:0.75;stroke-miterlimit:10;}
	.st85{fill:none;stroke:#000000;stroke-width:0.5;stroke-miterlimit:10;}
	.st86{opacity:0.43;fill:#7F3B48;}
	.st87{opacity:0.88;fill:#98BFFF;}
	.st88{opacity:0.75;fill:#FFFBF2;}
	.st89{opacity:0.88;fill:#719BD8;}
	.st90{opacity:0.75;fill:#EAD9B7;}
	.st91{fill:#FEF0E1;}
	.st92{fill:none;stroke:#070707;stroke-miterlimit:10;}
	.st93{fill:#C1962B;}
	.st94{fill:#D6B154;}
	.st95{fill:#5DA08B;}
	.st96{fill:#C6961E;}
</style>
<rect x="1" y="1" class="st4" width="700" height="477"/>
<g id="K1nD7K.tif">
	<g>
		<path class="st24" d="M337.3,272.5c-2.7,0-5.2,0-7.6,0c-1.6,0-3.1,0-4.7-0.1c-3,0-6-0.1-9-0.1c-0.4,0-0.8,0-1.1,0.2
			c-1.1,0.7-1.9,2.7-1.6,4c0.2,1,0.5,2.1,0.9,3.1c0.3,0.7,0.9,1.3,1.5,1.7c3.5,1.9,5.6,4.6,5.6,8.7c0,1.6,0.2,3.2,0.8,4.7
			c0.4,1,0.4,2.3,0.1,3.3c-1.1,3.1-1.1,6.4-1.1,9.6c-0.1,7.3,0,14.5,0,21.8c0,0.9,0.1,1.8,0.1,2.7c0,2,0,4,0,6
			c0.1,2.9,0.1,5.9,0.3,8.8c0.1,1.6,0.3,3.1,0.3,4.7c0,1.5-0.3,3.1-0.3,4.6c-0.1,3.7-0.2,7.4-0.3,11.1c-0.1,1.8,0.3,3.4,1.5,4.8
			c0.5,0.5,0.8,1.1,1.2,1.8c1.2,2.5,3.2,3.7,6.1,3.8c1.3,0,2.6,0.3,3.9,0.4c2.6,0.1,5.1,0.2,7.7,0.2c3.7,0,7.4-1.8,11.1-0.1
			c0.1,0,0.2,0,0.4,0c3-0.1,5.3-1.4,6.8-4c0.4-0.7,0.7-1.4,1.1-2.1c1.1-1.6,1.4-3.3,1.1-5.2c-0.3-2-0.3-4,0.3-6.1
			c0.3-1,0.2-2.3,0.1-3.4c-0.6-5.5-1.4-11,0.3-16.5c0.1-0.3,0.1-0.6,0.1-0.8c-0.2-2.6-0.6-5.3-0.7-7.9c-0.2-3-0.4-6.1-0.1-9.1
			c0.2-1.9,0.4-3.6,0.1-5.5c-0.2-1.4-0.2-3,0.1-4.4c0.4-1.7,0.4-3.3,0.1-5c-0.3-1.4-0.2-3-0.3-4.4c-0.1-1.9-0.2-3.8-0.3-5.8
			c0-1.2-0.3-2.4,0-3.5c0.4-2,0.6-3.9,0.2-5.9c-0.3-1.5-0.1-2.8,1.5-3.6c1-0.5,1.8-1.3,2.6-2c2.1-1.8,3.8-3.8,4.5-6.5
			c0.7-2.8-1.4-5.1-4.1-4.7c-0.5,0.1-1.1,0.1-1.6,0.2c-2.4,0.2-4.9,0.5-7.3,0.7c-1.2,0.1-2.5,0-3.8-0.1c-1.8-0.1-3.5-0.2-5.3-0.3
			c-1.2,0-2.4,0.1-3.7,0c-1.6-0.1-2.8-2.1-2.4-3.7c0.4-1.5,0.8-3.2,0.8-4.7c-0.1-3.7-0.4-7.3-0.6-11c0-0.9-0.1-1.9,0.2-2.7
			c0.8-1.9,0.8-3.8,0.2-5.8c-0.2-0.8-0.3-1.7-0.3-2.6c0.1-1.7,0.3-3.4,0.3-5.1c0-1.2,0.6-1.6,1.6-1.7c1.7-0.1,3.3-0.3,5-0.4
			c0.8,0,1.7,0,2.5,0.2c1.9,0.4,3.7,0.4,5.5,0c1.1-0.2,2.3-0.3,3.4-0.3c2.4,0.1,4.7,0.3,7.1,0.5c0.9,0.1,1.8,0.1,2.7,0.1
			c1.8,0.1,3.6,0.3,5.4,0.2c3,0,6.1-0.2,9.1-0.3c1.6,0,3.2,0,4.8,0c1.9,0,3.8-0.2,5.6-0.2c1.1,0,2.2,0,3.2,0.4
			c1.7,0.7,3.4,0.8,5.1,0.6c1.8-0.2,3.5-0.4,5.3-0.5c1.4-0.1,2.8-0.2,4.3-0.1c3.1,0.1,6.3,0.4,9.4,0.5c1.9,0.1,3.8,0,5.7-0.1
			c1.3,0,2.6-0.1,3.9-0.1c1.7,0,3.4,0.2,5.1,0.2c3.2-0.1,6.4-0.4,9.6-0.4c2.7,0,4.2-1,5.2-3.4c0.9-2.2,0.8-4.4,0.5-6.6
			c-0.2-1.3-0.2-2.6-0.2-3.9c0-1.3,0.4-2.6,0.4-3.9c0-4.4-0.2-8.8-0.3-13.3c0-1.3-0.2-2.6-0.3-3.9c0-0.7-0.1-1.5,0.1-2.1
			c1.1-2.8,1.2-5.5-0.2-8.2c-0.1-0.2-0.1-0.4-0.1-0.6c0-2.2,0-4.5,0.1-6.7c0.2-2.2,0.9-4.4,0.8-6.5c-0.1-3.2-0.5-6.4-1.1-9.6
			c-0.5-2.3-2.2-3.7-4.7-3.9c-3.2-0.2-6.5-0.3-9.7-0.4c-4.7-0.2-9.5-0.3-14.2-0.4c-1.8,0-3.6,0-5.4,0c0,1.8,0,3.5,0,5.2
			c0.2,0,0.4,0.1,0.5,0.1c9.1,0.2,18.2,0.5,27.2,0.7c1.3,0,1.7,0.5,1.8,1.6c0.1,1.4,0.4,2.7,0.5,4.1c0,1-0.1,2.1-0.3,3.2
			c-0.1,0.6-0.3,1.2-0.4,1.9c-0.1,3.5-0.3,6.9-0.3,10.4c0,1.3,0.7,2.6,0.9,4c0.1,0.7,0.3,1.5,0.1,2.1c-0.8,1.8-1,3.6-0.9,5.6
			c0.1,2.4,0.2,4.8,0.3,7.2c0,1,0.1,2.1,0.1,3.1c0,3.3-0.1,6.6-0.1,9.9c0,1.6,0.1,3.2,0.1,4.8c0,0.9,0.2,1.9,0.2,2.8
			c0,1-0.4,1.4-1.5,1.4c-3,0.1-6,0.3-9,0.5c-1.2,0.1-2.5,0.2-3.7,0c-2-0.3-3.9-0.3-5.9,0.1c-1.2,0.3-2.6,0.2-3.9,0.1
			c-2.8-0.2-5.5-0.6-8.2-0.6c-2.5-0.1-5.1,0-7.6,0.2c-1.5,0.1-3,0.4-4.6,0.5c-0.9,0.1-1.9,0.1-2.7-0.2c-1.9-0.8-3.9-0.9-5.9-0.6
			c-1,0.2-2,0.4-2.9,0.3c-5.6-0.5-11.3-0.2-16.9,0.1c-0.9,0.1-1.7,0-2.6,0c-2-0.1-3.9-0.3-5.9-0.4c-1.6-0.1-3.3-0.3-4.9-0.3
			c-1.5,0-3.1,0.1-4.6,0.2c-1.2,0.1-2.4,0.5-3.5,0.2c-3.5-0.9-6.9-0.2-10.2,0.1c-3.5,0.3-5.5,2.7-5.7,6c-0.1,1.6-0.3,3.2-0.2,4.7
			c0,1.6,0.3,3.2,0.4,4.8c0.1,0.9,0,1.8,0,2.7c-0.2,1.5-0.6,3-0.6,4.5c0,2.1,0.4,4.2,0.5,6.4c0.1,2.1,0.4,4.3-0.1,6.2
			C337.1,267.7,336.3,269.9,337.3,272.5z"/>
		<path d="M337.3,272.5c-1-2.6-0.2-4.9,0.3-7.2c0.5-2,0.2-4.2,0.1-6.2c-0.1-2.1-0.5-4.2-0.5-6.4c0-1.5,0.4-3,0.6-4.5
			c0.1-0.9,0.1-1.8,0-2.7c-0.1-1.6-0.4-3.2-0.4-4.8c0-1.6,0.2-3.2,0.2-4.7c0.2-3.4,2.2-5.7,5.7-6c3.4-0.3,6.8-1,10.2-0.1
			c1.1,0.3,2.3-0.1,3.5-0.2c1.5-0.1,3.1-0.2,4.6-0.2c1.7,0,3.3,0.2,4.9,0.3c2,0.1,3.9,0.3,5.9,0.4c0.9,0.1,1.7,0.1,2.6,0
			c5.6-0.4,11.3-0.6,16.9-0.1c1,0.1,2-0.1,2.9-0.3c2-0.3,4-0.2,5.9,0.6c0.8,0.3,1.8,0.3,2.7,0.2c1.5-0.1,3-0.4,4.6-0.5
			c2.5-0.1,5.1-0.3,7.6-0.2c2.8,0.1,5.5,0.5,8.2,0.6c1.3,0.1,2.6,0.1,3.9-0.1c2-0.4,3.9-0.4,5.9-0.1c1.2,0.2,2.5,0.1,3.7,0
			c3-0.1,6-0.4,9-0.5c1.1,0,1.5-0.4,1.5-1.4c0-0.9-0.2-1.9-0.2-2.8c-0.1-1.6-0.1-3.2-0.1-4.8c0-3.3,0.1-6.6,0.1-9.9
			c0-1-0.1-2.1-0.1-3.1c-0.1-2.4-0.2-4.8-0.3-7.2c-0.1-1.9,0-3.8,0.9-5.6c0.3-0.6,0.1-1.4-0.1-2.1c-0.3-1.3-0.9-2.6-0.9-4
			c0-3.5,0.2-6.9,0.3-10.4c0-0.6,0.3-1.2,0.4-1.9c0.1-1,0.3-2.1,0.3-3.2c-0.1-1.4-0.4-2.7-0.5-4.1c-0.1-1.1-0.5-1.6-1.8-1.6
			c-9.1-0.2-18.2-0.4-27.2-0.7c-0.2,0-0.3,0-0.5-0.1c0-1.7,0-3.4,0-5.2c1.8,0,3.6,0,5.4,0c4.7,0.1,9.5,0.2,14.2,0.4
			c3.2,0.1,6.5,0.2,9.7,0.4c2.5,0.1,4.2,1.6,4.7,3.9c0.6,3.1,1,6.4,1.1,9.6c0.1,2.2-0.7,4.3-0.8,6.5c-0.2,2.2-0.1,4.5-0.1,6.7
			c0,0.2,0.1,0.4,0.1,0.6c1.5,2.7,1.3,5.4,0.2,8.2c-0.2,0.6-0.1,1.4-0.1,2.1c0.1,1.3,0.2,2.6,0.3,3.9c0.1,4.4,0.3,8.8,0.3,13.3
			c0,1.3-0.3,2.6-0.4,3.9c0,1.3,0,2.6,0.2,3.9c0.3,2.3,0.4,4.5-0.5,6.6c-1,2.5-2.5,3.4-5.2,3.4c-3.2,0.1-6.4,0.3-9.6,0.4
			c-1.7,0-3.4-0.2-5.1-0.2c-1.3,0-2.6,0.1-3.9,0.1c-1.9,0-3.8,0.1-5.7,0.1c-3.2-0.1-6.3-0.4-9.4-0.5c-1.4-0.1-2.8,0-4.3,0.1
			c-1.8,0.1-3.5,0.3-5.3,0.5c-1.8,0.2-3.4,0.1-5.1-0.6c-1-0.4-2.1-0.4-3.2-0.4c-1.9,0-3.8,0.2-5.6,0.2c-1.6,0-3.2,0-4.8,0
			c-3,0.1-6.1,0.3-9.1,0.3c-1.8,0-3.6-0.2-5.4-0.2c-0.9,0-1.8,0-2.7-0.1c-2.4-0.2-4.7-0.4-7.1-0.5c-1.1,0-2.3,0-3.4,0.3
			c-1.9,0.4-3.7,0.4-5.5,0c-0.8-0.2-1.6-0.2-2.5-0.2c-1.7,0.1-3.3,0.3-5,0.4c-1.1,0.1-1.6,0.6-1.6,1.7c0,1.7-0.3,3.4-0.3,5.1
			c0,0.9,0.1,1.7,0.3,2.6c0.5,2,0.5,3.9-0.2,5.8c-0.3,0.8-0.2,1.8-0.2,2.7c0.2,3.7,0.5,7.3,0.6,11c0,1.6-0.4,3.2-0.8,4.7
			c-0.4,1.5,0.8,3.6,2.4,3.7"/>
		<path class="st25" d="M344.6,272.5c1.2,0,2.4-0.1,3.7,0c1.8,0.1,3.5,0.2,5.3,0.3c1.2,0.1,2.5,0.1,3.8,0.1c2.4-0.2,4.9-0.4,7.3-0.7
			c0.6-0.1,1.1-0.1,1.6-0.2c2.8-0.5,4.9,1.9,4.1,4.7c-0.7,2.7-2.4,4.8-4.5,6.5c-0.8,0.7-1.7,1.5-2.6,2c-1.5,0.9-1.8,2.1-1.5,3.6
			c0.4,2,0.3,3.9-0.2,5.9c-0.2,1.1,0,2.3,0,3.5c0.1,1.9,0.2,3.8,0.3,5.8c0.1,1.5,0,3,0.3,4.4c0.3,1.7,0.3,3.3-0.1,5
			c-0.3,1.4-0.3,3-0.1,4.4c0.3,1.9,0.1,3.6-0.1,5.5c-0.3,3-0.1,6,0.1,9.1c0.1,2.6,0.5,5.3,0.7,7.9c0,0.3,0,0.6-0.1,0.8
			c-1.6,5.5-0.8,11-0.3,16.5c0.1,1.1,0.2,2.4-0.1,3.4c-0.7,2-0.7,4-0.3,6.1c0.3,1.9,0,3.6-1.1,5.2c-0.5,0.6-0.7,1.4-1.1,2.1
			c-1.5,2.6-3.8,3.9-6.8,4c-0.1,0-0.3,0-0.4,0c-3.7-1.6-7.4,0.2-11.1,0.1c-2.6,0-5.1-0.1-7.7-0.2c-1.3-0.1-2.6-0.4-3.9-0.4
			c-2.8,0-4.8-1.2-6.1-3.8c-0.3-0.6-0.7-1.3-1.2-1.8c-1.2-1.4-1.6-3-1.5-4.8c0.2-3.7,0.2-7.4,0.3-11.1c0.1-1.5,0.3-3.1,0.3-4.6
			c0-1.6-0.2-3.1-0.3-4.7c-0.1-2.9-0.2-5.9-0.3-8.8c0-2,0-4,0-6c0-0.9-0.1-1.8-0.1-2.7c0-7.3,0-14.5,0-21.8c0-3.2,0-6.4,1.1-9.6
			c0.3-1,0.3-2.3-0.1-3.3c-0.6-1.6-0.8-3.1-0.8-4.7c0.1-4.1-2.1-6.8-5.6-8.7c-0.6-0.3-1.2-1-1.5-1.7c-0.4-1-0.7-2-0.9-3.1
			c-0.3-1.3,0.5-3.3,1.6-4c0.3-0.2,0.7-0.2,1.1-0.2c3,0,6,0.1,9,0.1c1.6,0,3.1,0,4.7,0.1c2.4,0,4.9,0,7.6,0"/>
		<path class="st26" d="M413.3,197.9C413.3,197.9,413.2,197.5,413.3,197.9c-0.1,0.5-0.3-0.6-0.3,0c-0.1,0.6-0.2,0.3-0.4,0
			c-0.2-0.4-0.3,0.5-0.6,0c-0.2-0.3-0.4,0.6-0.7,0c-0.3,0.2-0.6-0.2-0.9,0c-0.3-0.3-0.7,0.2-1,0c-0.3,1.1-0.8-0.3-1.2,0
			c-0.4,0.3-0.8,0.7-1.3,0c-0.5-0.2-0.9,0.3-1.4,0c-0.5,0-1,0.2-1.6,0c-0.5,0-1.1,0.2-1.7,0c-0.6,0.4-1.2,0-1.8,0
			c-0.6-0.2-1.3,0-1.9,0c-0.7-0.4-1.3,0.2-2,0c-0.7,0.1-1.4,0-2.1,0c-0.7,0.2-1.4,0.1-2.2,0c-0.7,0.1-1.5,0.2-2.3,0
			c-0.8,0.1-1.6,0.1-2.4,0c-0.8,0.2-1.6,0.2-2.5,0c-0.8,0.2-1.7,0.1-2.5,0c-0.9-0.2-1.7,0.1-2.6,0c-0.9,0.1-1.8,0.1-2.6,0
			c-0.9-0.1-1.8,0.1-2.7,0c-0.9,0-1.8-0.1-2.8,0c-0.9,0-1.9-0.2-2.8,0c-0.9,0-1.9,0-2.8,0c-0.9,0.2-1.9,0.1-2.9,0
			c-1,0.1-1.9-0.1-2.9,0c-1,0.1-1.9,0.2-2.9,0c-1-0.1-2,0-2.9,0c-1-0.1-2-0.1-3,0c-1,0.3-2,0.1-3,0c-1-0.6-2,0-3,0c-1-0.3-2,0-3,0
			c-1,0.1-2,0.1-3,0c-1-0.1-2,0.1-2.9,0c-1,0.2-2-0.2-2.9,0c-1,0.3-1.9,0.1-2.9,0c-1-0.2-1.9-0.2-2.9,0c-0.9,0.1-1.9-0.1-2.8,0
			c-0.9,0.3-1.9,0.2-2.8,0c-0.9-0.2-1.8,0.1-2.8,0c-0.9,0-1.8-0.4-2.7,0c-0.9-0.4-1.8,0.1-2.6,0c-0.9,0.3-1.7-0.1-2.6,0
			c-0.8,0.1-1.7-0.2-2.5,0c-0.8-0.1-1.7-0.2-2.5,0c-0.8-0.2-1.6,0.1-2.4,0c-0.8,0-1.5-0.1-2.3,0c-0.7,0.1-1.5-0.2-2.2,0
			c-0.7,0-1.4,0.3-2.1,0c-0.7,0.3-1.3,0.3-2,0c-0.7-0.1-1.3,0.6-1.9,0c-0.6,0-1.2,0-1.8,0c-0.6-0.1-1.1,0.2-1.7,0
			c-0.5-0.1-1.1,0-1.6,0c-0.5-0.4-1,0-1.4,0c-0.5-0.1-0.9,0-1.3,0c-0.4,0-0.8,0.2-1.2,0c-0.4,0-0.7,0.3-1,0c-0.3-0.4-0.6,0.6-0.9,0
			c-0.3-0.1-0.5,0.1-0.7,0c-0.2-0.1-0.4-0.2-0.6,0c-0.2,0-0.3-0.2-0.4,0c-0.1-0.2-0.2-0.2-0.3,0c-0.1,0.1-0.1,0.2-0.1,0
			c-0.6-0.2-1.2-0.1-1.8-0.3c-0.6,0-1.1-0.5-1.6-0.8c-0.5-0.4-0.9-0.6-1.2-1.2c-0.4-0.6-0.6-1.2-0.8-1.6c-0.2-0.5-0.3-1.1-0.3-1.8
			c0,0.4,0-0.2,0-0.3c0-0.3,0,0,0-0.7c0-0.6-0.1-1.8,0-1.2c0,0.1,0-0.6,0-1.6c0-0.5,0-1.7,0-1.9c0-0.7,0-1.4,0-2.2
			c0-0.9,0-1.3,0-2.4c0-0.9,0.1-0.6,0-2.6c0-1.5,0-1.7,0-2.8c0-0.4,0-1.7,0-2.9c0-0.9,0-1.9,0-2.9c0-1.2,0-1.8,0-2.9
			c0-0.7,0-1.8,0-2.9c0-1.1,0-1.4,0-2.8c0-1.2,0-2.3,0-2.6c0-1.7,0-1.6,0-2.4c0-1.7,0-1.9,0-2.2c0-1.3-0.1-2.6,0-1.9
			c0,0.1,0-1.2,0-1.6c0.1,0.5,0-1.2,0-1.2c0-0.3,0-1.1,0-0.7c0-0.3,0.1,0.9,0-0.3c-0.1-1.7,0.2-0.1,0.3-1.8c0.2,0,0.5-1.2,0.8-1.6
			c0.3-0.8,0.8-1,1.2-1.2c0.5-0.5,1-1.1,1.6-0.8c0.5-0.9,1.1-0.6,1.8-0.3c0-0.7,0-0.1,0.1,0c0-0.4,0.1-0.5,0.3,0
			c0.1,0,0.3,0.2,0.4,0c0.2-0.3,0.4,0.3,0.6,0c0.2-0.2,0.5,0.4,0.7,0c0.3,0.1,0.6,0.4,0.9,0c0.3-0.3,0.7,0.3,1,0
			c0.3-0.4,0.8,0.5,1.2,0c0.4,0.2,0.9,0.3,1.3,0c0.5,0.2,1,0.3,1.4,0c0.5-0.3,1,0.1,1.6,0c0.6,0.2,1.1-0.1,1.7,0
			c0.6-0.2,1.2,0.4,1.8,0c0.6,0.1,1.3,0,1.9,0c16.4,0,43.5,0,67.6,0c1,0,1.9,0,2.9,0c1,0.2,1.9-0.1,2.8,0c0.9,0,1.9,0.1,2.8,0
			c0.9,0.2,1.9,0.3,2.8,0c0.9-0.2,1.8,0,2.7,0c0.9,0.1,1.8-0.2,2.6,0c0.9-0.3,1.7,0.1,2.6,0c0.9,0.2,1.7,0.1,2.5,0
			c0.8-0.3,1.6-0.2,2.5,0c0.8-0.4,1.6,0.5,2.4,0c0.8-0.2,1.5-0.2,2.3,0c0.7,0,1.5-0.2,2.2,0c0.7,0.2,1.4-0.1,2.1,0
			c0.7,0.1,1.4-0.1,2,0c0.7,0,1.3-0.2,1.9,0c0.6,0.1,1.2-0.1,1.8,0c0.6,0.1,1.1-0.2,1.7,0c0.5-0.3,1.1,0,1.6,0c0.5,0,1,0,1.4,0
			c0.5,0.1,0.9,0,1.3,0c0.4,0,0.8,0,1.2,0c0.4,0,0.7-0.1,1,0c0.3,0.1,0.6,0,0.9,0c0.3,0.5,0.5-0.1,0.7,0c0.2-0.2,0.4,0,0.6,0
			c0.2,0.1,0.3,0,0.4,0c0.1-1,0.2-0.8,0.3,0c0.1,0.1,0-0.7,0.1,0c0.7,0.8,1.2,0.1,1.8,0.3c0.6-0.1,1.1,1.3,1.6,0.8
			c0.5,0.6,0.9,1.5,1.2,1.2c0.3,0.5,0.6,1,0.8,1.6c0.2,0.6,0.3,1.2,0.3,1.8c0,0,0,1.4,0,3.7c0,0.6,0,1.2,0,1.9c0,0.6,0,1.5,0,2.2
			c0,0.6,0,1.5,0,2.4c0,0.9,0,1.6,0,2.6c0,0.9,0,1.5,0,2.8c0,1,0,2.1,0,2.9c0,0.8,0,1.8,0,2.9c0,1,0,1.9,0,2.9c0,0.9,0,1.8,0,2.9
			c0,0.7,0,1.9,0,2.8c0,0.6,0,1.7,0,2.6c0,1.7,0,1.2,0,2.4c0,0.5,0,2,0,2.2c0,0.8,0,1.9,0,1.9c0,0.1-0.1-0.3,0,1.6
			c0,0.2,0,1.4,0,1.2c0,0.1,0,0.3,0,0.7c-0.1-1.1,0,0.3,0,0.3c0,0.9-0.1,1.4-0.3,1.8c-0.2-0.1-0.5,0.7-0.8,1.6
			c-0.4,0.2-0.7,1.3-1.2,1.2c-0.5,0.2-1,0.4-1.6,0.8C414.4,196.9,413.9,197.5,413.3,197.9z"/>
	</g>
</g>
<g id="K1nD7K.tif_1_">
	<g>
		<path class="st27" d="M360.4,330c-1.8,4.8-3.7,9.5-5.4,14.2c-4.3,11.4-8.6,22.7-13.3,33.9c3.1-0.4,6.2-1.4,9.3,0
			c0.1,0,0.2,0,0.4,0c3-0.1,5.3-1.4,6.8-4c0.4-0.7,0.7-1.4,1.1-2.1c1.1-1.6,1.4-3.3,1.1-5.2c-0.3-2-0.3-4,0.3-6.1
			c0.3-1,0.2-2.3,0.1-3.4c-0.6-5.5-1.4-11,0.3-16.5c0.1-0.3,0.1-0.6,0.1-0.8c-0.2-2.6-0.6-5.3-0.7-7.9
			C360.4,331.5,360.4,330.8,360.4,330z"/>
		<path class="st28" d="M416.8,179.9c0-0.9,0-2,0-2.6c0-0.9,0-2.1,0-2.8c0-1,0-1.9,0-2.9c0-1,0-1.9,0-2.9c0-1.1,0-2.1,0-2.9
			c0-0.6,0-1.3,0-2c-4.9,10.5-9.2,21.2-13.5,32c0.5,0.2,0.9-0.3,1.3-0.1c0.5,0.7,0.9,0.3,1.3,0c0.4-0.3,0.9,1.1,1.2,0
			c0.4,0.2,0.7-0.3,1,0c0.3-0.2,0.6,0.2,0.9,0c0.3,0.6,0.5-0.3,0.7,0c0.2,0.5,0.4-0.4,0.6,0c0.2,0.3,0.3,0.6,0.4,0
			c0.1-0.6,0.2,0.5,0.3,0c0-0.4,0.1,0,0.1,0c0.6-0.4,1.2-1,1.8-0.3c0.6-0.5,1.1-0.6,1.6-0.8c0.5,0.1,0.9-1,1.2-1.2
			c0.3-0.8,0.6-1.6,0.8-1.6c0.2-0.4,0.3-0.9,0.3-1.8c0,0-0.1-1.3,0-0.3c0-0.4,0-0.6,0-0.7c0,0.3,0-1,0-1.2c-0.1-1.8,0-1.5,0-1.6
			c0,0,0-1.1,0-1.9c0-0.2,0-1.7,0-2.2C416.8,181.1,416.8,181.6,416.8,179.9z"/>
	</g>
</g>
</svg>
