<?xml version="1.0" encoding="utf-8"?>
<!-- Generator: Adobe Illustrator 22.1.0, SVG Export Plug-In . SVG Version: 6.00 Build 0)  -->
<svg version="1.1" id="Calque_1" xmlns="http://www.w3.org/2000/svg" xmlns:xlink="http://www.w3.org/1999/xlink" x="0px" y="0px"
	 viewBox="0 0 700 480" style="enable-background:new 0 0 700 480;" xml:space="preserve">
<style type="text/css">
	.st0{fill:#DAECFF;}
	.st1{fill:#FFD258;}
	.st2{fill:#FBCEC6;}
	.st3{fill:#ADCCFF;}
	.st4{fill:#FF5F7D;}
	.st5{fill:none;stroke:#000000;stroke-width:2;stroke-miterlimit:10;}
	.st6{fill:#FFFBF2;}
	.st7{fill:#73B7A4;}
	.st8{fill:none;stroke:#000000;stroke-miterlimit:10;}
	.st9{fill:#98BFFF;}
	.st10{fill:#FFD258;stroke:#000000;stroke-width:2;stroke-miterlimit:10;}
	.st11{fill:#FEF0E1;stroke:#070707;stroke-miterlimit:10;}
	.st12{fill:#D3A533;}
	.st13{fill:#FFB5C0;stroke:#020202;stroke-miterlimit:10;}
	.st14{fill:#FF8E9E;}
	.st15{fill:#FF8E9E;stroke:#000000;stroke-miterlimit:10;}
	.st16{fill:#EA5B70;}
	.st17{fill:#020202;}
	.st18{fill:#FFD258;stroke:#050505;stroke-width:0.5;stroke-miterlimit:10;}
	.st19{fill:#FEF0E1;stroke:#020202;stroke-width:0.5;stroke-miterlimit:10;}
	.st20{fill:#DDB143;}
	.st21{fill:#D6AF8B;}
	.st22{fill:#FFFBF2;stroke:#020202;stroke-width:2;stroke-miterlimit:10;}
	.st23{fill:#FF5F7D;stroke:#020202;stroke-width:2;stroke-miterlimit:10;}
	.st24{fill:#FFFFFF;}
	.st25{fill:#ADCCFF;stroke:#020202;stroke-width:2;stroke-miterlimit:10;}
	.st26{fill:#FFD258;stroke:#050505;stroke-width:2;stroke-miterlimit:10;}
	.st27{fill:#85AAE0;}
	.st28{fill:#C99E32;}
	.st29{fill:#FFCF47;stroke:#020202;stroke-miterlimit:10;}
	.st30{fill:#FF5F7D;stroke:#050505;stroke-width:2;stroke-miterlimit:10;}
	.st31{fill:#F36B7F;stroke:#000000;stroke-miterlimit:10;}
	.st32{fill:#DBA92C;}
	.st33{fill:#73B7A4;stroke:#020202;stroke-width:2;stroke-miterlimit:10;}
	.st34{fill:#FFCF47;stroke:#020202;stroke-width:2;stroke-miterlimit:10;}
	.st35{fill:#99C6B8;}
	.st36{fill:#E2B23B;}
	.st37{fill:#C11A3E;}
	.st38{fill:#FEF0E1;stroke:#020202;stroke-miterlimit:10;}
	.st39{fill:#ADCCFF;stroke:#020202;stroke-miterlimit:10;}
	.st40{fill:#FFD258;stroke:#0C0C0C;stroke-width:0.75;stroke-miterlimit:10;}
	.st41{fill:#ADCCFF;stroke:#050505;stroke-width:2;stroke-miterlimit:10;}
	.st42{fill:#73B7A4;stroke:#050505;stroke-width:2;stroke-miterlimit:10;}
	.st43{fill:#FFFBF2;stroke:#050505;stroke-width:2;stroke-miterlimit:10;}
	.st44{fill:#FEF0E1;stroke:#020202;stroke-width:2;stroke-miterlimit:10;}
	.st45{fill:#D8A830;}
	.st46{fill:#FF5F7D;stroke:#050505;stroke-miterlimit:10;}
	.st47{fill:#73B7A4;stroke:#020202;stroke-miterlimit:10;}
	.st48{fill:#E8D2BF;}
	.st49{fill:#FFD258;stroke:#0A0A0A;stroke-width:2;stroke-miterlimit:10;}
	.st50{fill:#D8AB3A;}
	.st51{fill:#FFD258;stroke:#050505;stroke-miterlimit:10;}
	.st52{fill:#FBCEC6;stroke:#070707;stroke-miterlimit:10;}
	.st53{fill:#D84161;}
	.st54{fill:#FFD258;stroke:#0A0A0A;stroke-miterlimit:10;}
	.st55{fill:#FFD258;stroke:#0A0A0A;stroke-width:3;stroke-miterlimit:10;}
	.st56{fill:none;stroke:#0A0A0A;stroke-width:2;stroke-miterlimit:10;}
	.st57{fill:#FF5F7D;stroke:#000000;stroke-miterlimit:10;}
	.st58{fill:#FFD258;stroke:#000000;stroke-miterlimit:10;}
	.st59{fill:#FF5F7D;stroke:#050505;stroke-width:0.75;stroke-miterlimit:10;}
	.st60{fill:#FEF0E1;stroke:#020202;stroke-width:0.75;stroke-miterlimit:10;}
	.st61{fill:#FF5F7D;stroke:#050505;stroke-width:0.25;stroke-miterlimit:10;}
	.st62{fill:#FFD258;stroke:#0A0A0A;stroke-width:0.75;stroke-miterlimit:10;}
	.st63{fill:#73B7A4;stroke:#020202;stroke-width:0.25;stroke-miterlimit:10;}
	.st64{fill:#FBCEC6;stroke:#020202;stroke-miterlimit:10;}
	.st65{fill:#73B7A4;stroke:#020202;stroke-width:0.75;stroke-miterlimit:10;}
	.st66{fill:#73B7A4;stroke:#070707;stroke-miterlimit:10;}
	.st67{fill:#FFFBF2;stroke:#070707;stroke-miterlimit:10;}
	.st68{fill:#E2B139;}
	.st69{fill:#FFFBF2;stroke:#020202;stroke-miterlimit:10;}
	.st70{fill:#ADCCFF;stroke:#020202;stroke-width:0.75;stroke-miterlimit:10;}
	.st71{fill:#FFFBF2;stroke:#020202;stroke-width:0.75;stroke-miterlimit:10;}
	.st72{fill:#FFD258;stroke:#050505;stroke-width:0.75;stroke-miterlimit:10;}
	.st73{fill:#FBCEC6;stroke:#020202;stroke-width:0.75;stroke-miterlimit:10;}
	.st74{fill:#73B7A4;stroke:#050505;stroke-miterlimit:10;}
	.st75{fill:#73B7A4;stroke:#050505;stroke-width:0.75;stroke-miterlimit:10;}
	.st76{fill:#E2C2A6;}
	.st77{fill:#DBC69E;}
	.st78{fill:#D39C94;}
	.st79{fill:#E0B344;}
	.st80{fill:#E0AE32;}
	.st81{fill:#4F9982;}
	.st82{fill:#DDBA9B;}
	.st83{fill:#FF5F7D;stroke:#000000;stroke-width:0.75;stroke-miterlimit:10;}
	.st84{fill:#FFD258;stroke:#000000;stroke-width:0.75;stroke-miterlimit:10;}
	.st85{fill:none;stroke:#000000;stroke-width:0.5;stroke-miterlimit:10;}
	.st86{opacity:0.43;fill:#7F3B48;}
	.st87{opacity:0.88;fill:#98BFFF;}
	.st88{opacity:0.75;fill:#FFFBF2;}
	.st89{opacity:0.88;fill:#719BD8;}
	.st90{opacity:0.75;fill:#EAD9B7;}
	.st91{fill:#FEF0E1;}
	.st92{fill:none;stroke:#070707;stroke-miterlimit:10;}
	.st93{fill:#C1962B;}
	.st94{fill:#D6B154;}
	.st95{fill:#5DA08B;}
	.st96{fill:#C6961E;}
</style>
<rect x="3.6" y="1.7" class="st1" width="703.1" height="476.3"/>
<g id="GMy6vH.tif">
	<g>
		<path class="st39" d="M472.6,225.9c-3.9,1-7.7,2.1-11.6,3.1c7.6,15.4,5.8,31.1-4.7,41.4c1.3,0.4,2.6,0.8,3.8,1.2
			c2.3,0.8,2.8,2.9,1,4.6c-0.8,0.7-1.7,1.4-2.7,1.7c-6.1,1.8-8.1,6.6-8.7,12.1c-0.4,3.3-0.1,6.6-0.1,10c0,1.5,0.8,2,2,2.4
			c3.3,1.1,6.6,2.3,9.9,3.4c0.9,0.3,1.7,0.7,2.4,1.3c0.7,0.6,1.2,1.5,1.8,2.2c-0.8,0.4-1.5,1.1-2.3,1.3c-11.5,2.8-22.9,5.6-34.4,8.4
			c-28,6.8-55.9,13.6-83.9,20.3c-1.6,0.4-3.5,0.3-5-0.2c-26.4-8.5-52.7-17-79-25.6c-4.6-1.5-7.4-4.8-9.1-9
			c-3.5-8.5-4.5-17.3-1.9-26.1c0.9-3,2.7-5.8,4.2-8.8c-1.5-0.5-3.6-1.2-5.6-1.9c-0.1-0.3-0.1-0.5-0.2-0.8c1.1-0.8,2.2-1.9,3.5-2.5
			c3.5-1.5,7.1-2.8,10.8-3.9c1.5-0.5,2.1-1.1,2.2-2.7c0.4-5.3,0.4-10.5-1.6-15.5c-1.1-2.8-3-4.7-5.8-5.8c-1.4-0.5-2.8-1.2-3.9-2.1
			c-2.2-1.7-1.7-4,1-4.8c2.8-0.9,5.6-1.7,8.5-2.6c-7-8-8.1-17.5-7.3-27.3c0.6-7.3,3.2-13.8,10.6-16.7c3.1-1.2,6.6-1.4,10-1.9
			c33-4.6,66-9.1,98.9-13.7c4.9-0.7,9.7-1.4,14.6-2c1.4-0.2,2.8-0.1,4.1,0.3c24.1,7.2,48.1,14.5,72.1,21.7c1.4,0.4,3.1,0.7,2.9,2.5
			c-0.2,1.2-1.3,2.3-2.2,3.3c-0.4,0.5-1.1,0.7-1.8,0.9c-5.2,1.5-7.5,5.4-8.2,10.3c-0.5,3.8-0.3,7.6-0.4,11.4
			c-0.1,1.6,0.7,2.3,2.2,2.7c3.4,1,6.8,2.2,10.1,3.6c1.5,0.6,2.7,1.7,4.1,2.6C472.7,225.1,472.6,225.5,472.6,225.9z M371.8,286.2
			c1.4-0.4,2.5-0.6,3.6-0.9c25.2-7,50.3-14,75.4-21.2c1.7-0.5,3.7-1.9,4.6-3.5c4.1-7.3,4.3-15.1,1.9-23c-1.2-3.9-4.2-5-8.2-3.8
			c-25.4,8.3-50.8,16.5-76.2,24.8c-1.6,0.5-2,1.2-2,2.8c0.3,7.2,0.4,14.3,0.7,21.5C371.6,283.9,371.7,284.9,371.8,286.2z
			 M342.4,328.2c0.1-1.1,0.1-1.9,0.1-2.7c0.2-7.2,0.4-14.3,0.8-21.5c0.1-2-0.4-2.9-2.4-3.5c-25-8.1-50-16.2-74.9-24.4
			c-5.4-1.8-8.6,0.1-9.8,5.7c-1.2,5.9-0.9,11.8,1,17.5c1,3,2.6,5.8,6.1,6.8c20.7,5.8,41.3,11.6,62,17.3
			C330.9,325,336.5,326.6,342.4,328.2z M349.2,244.3c0.1-1.1,0.2-1.7,0.2-2.4c0.2-7.3,0.4-14.7,0.7-22c0.1-1.9-0.5-2.7-2.3-3.3
			c-25.1-8.1-50.1-16.3-75.2-24.5c-5-1.6-8.2,0-9.4,5.1c-1.4,6.3-1.2,12.6,1,18.7c1,3,2.8,5.4,6.2,6.4c19.7,5.5,39.4,11,59.1,16.5
			C335.9,240.6,342.4,242.4,349.2,244.3z M354.5,217.6c-0.3,9-0.6,17.7-0.9,26.7c33.2-8.2,65.9-16.4,98.7-24.5
			c-0.8-7.7-1.3-15.3,2.2-22.7C421,204,387.8,210.8,354.5,217.6z M366.5,259.6c-33.4-6.9-66.5-13.7-100.1-20.6
			c3.6,7.6,3,15.1,2.3,22.8c32.9,8.2,65.6,16.3,98.7,24.5C367.1,277.1,366.8,268.5,366.5,259.6z M346.8,328.3
			c33.2-8.3,65.8-16.4,98.1-24.4c0-4-0.3-7.7,0.1-11.4c0.3-3.8,1.3-7.4,2-11.2c-0.1,0-0.5,0-0.9,0.1c-17.8,3.6-35.5,7.6-53.3,10.8
			c-8.7,1.5-16.7,5.5-25.8,5.7c-6.4,0.1-12.9,2.4-19.4,3.8C347.4,310.4,347.1,319.1,346.8,328.3z"/>
		<path class="st38" d="M371.8,286.2c-0.1-1.3-0.2-2.3-0.2-3.2c-0.2-7.2-0.4-14.3-0.7-21.5c-0.1-1.6,0.4-2.3,2-2.8
			c25.4-8.2,50.8-16.5,76.2-24.8c4-1.3,7-0.2,8.2,3.8c2.4,7.8,2.2,15.7-1.9,23c-0.9,1.5-2.8,3-4.6,3.5
			c-25.1,7.2-50.3,14.2-75.4,21.2C374.3,285.6,373.2,285.8,371.8,286.2z"/>
		<path class="st38" d="M342.4,328.2c-5.9-1.6-11.5-3.2-17.2-4.8c-20.7-5.8-41.3-11.6-62-17.3c-3.5-1-5.1-3.7-6.1-6.8
			c-1.9-5.7-2.2-11.6-1-17.5c1.2-5.7,4.4-7.5,9.8-5.7c25,8.1,49.9,16.3,74.9,24.4c2,0.6,2.5,1.5,2.4,3.5c-0.4,7.2-0.5,14.3-0.8,21.5
			C342.5,326.3,342.5,327.1,342.4,328.2z"/>
		<path class="st38" d="M349.2,244.3c-6.8-1.9-13.3-3.7-19.8-5.5c-19.7-5.5-39.4-11-59.1-16.5c-3.4-0.9-5.1-3.4-6.2-6.4
			c-2.1-6.1-2.4-12.4-1-18.7c1.1-5,4.4-6.7,9.4-5.1c25.1,8.2,50.1,16.4,75.2,24.5c1.8,0.6,2.4,1.4,2.3,3.3c-0.3,7.3-0.5,14.7-0.7,22
			C349.4,242.5,349.3,243.2,349.2,244.3z"/>
		<path class="st38" d="M354.5,217.6c33.3-6.9,66.5-13.7,100.1-20.6c-3.5,7.5-3,15-2.2,22.7c-32.8,8.2-65.5,16.3-98.7,24.5
			C353.9,235.3,354.2,226.6,354.5,217.6z"/>
		<path class="st38" d="M366.5,259.6c0.3,8.9,0.6,17.6,0.9,26.7c-33.1-8.2-65.8-16.4-98.7-24.5c0.7-7.7,1.3-15.2-2.3-22.8
			C300,245.9,333.1,252.7,366.5,259.6z"/>
		<path class="st38" d="M346.8,328.3c0.3-9.1,0.5-17.9,0.8-26.7c6.6-1.4,13-3.7,19.4-3.8c9.1-0.1,17.1-4.1,25.8-5.7
			c17.8-3.1,35.5-7.1,53.3-10.8c0.4-0.1,0.8-0.1,0.9-0.1c-0.7,3.8-1.6,7.5-2,11.2c-0.3,3.7-0.1,7.4-0.1,11.4
			C412.7,311.9,380,320,346.8,328.3z"/>
	</g>
</g>
</svg>
