<?xml version="1.0" encoding="utf-8"?>
<!-- Generator: Adobe Illustrator 22.1.0, SVG Export Plug-In . SVG Version: 6.00 Build 0)  -->
<svg version="1.1" id="Calque_1" xmlns="http://www.w3.org/2000/svg" xmlns:xlink="http://www.w3.org/1999/xlink" x="0px" y="0px"
	 viewBox="0 0 700 480" style="enable-background:new 0 0 700 480;" xml:space="preserve">
<style type="text/css">
	.st0{fill:#DAECFF;}
	.st1{fill:#FFD258;}
	.st2{fill:#FBCEC6;}
	.st3{fill:#ADCCFF;}
	.st4{fill:#FF5F7D;}
	.st5{fill:none;stroke:#000000;stroke-width:2;stroke-miterlimit:10;}
	.st6{fill:#FFFBF2;}
	.st7{fill:#73B7A4;}
	.st8{fill:none;stroke:#000000;stroke-miterlimit:10;}
	.st9{fill:#98BFFF;}
	.st10{fill:#FFD258;stroke:#000000;stroke-width:2;stroke-miterlimit:10;}
	.st11{fill:#FEF0E1;stroke:#070707;stroke-miterlimit:10;}
	.st12{fill:#D3A533;}
	.st13{fill:#FFB5C0;stroke:#020202;stroke-miterlimit:10;}
	.st14{fill:#FF8E9E;}
	.st15{fill:#FF8E9E;stroke:#000000;stroke-miterlimit:10;}
	.st16{fill:#EA5B70;}
	.st17{fill:#020202;}
	.st18{fill:#FFD258;stroke:#050505;stroke-width:0.5;stroke-miterlimit:10;}
	.st19{fill:#FEF0E1;stroke:#020202;stroke-width:0.5;stroke-miterlimit:10;}
	.st20{fill:#DDB143;}
	.st21{fill:#D6AF8B;}
	.st22{fill:#FFFBF2;stroke:#020202;stroke-width:2;stroke-miterlimit:10;}
	.st23{fill:#FF5F7D;stroke:#020202;stroke-width:2;stroke-miterlimit:10;}
	.st24{fill:#FFFFFF;}
	.st25{fill:#ADCCFF;stroke:#020202;stroke-width:2;stroke-miterlimit:10;}
	.st26{fill:#FFD258;stroke:#050505;stroke-width:2;stroke-miterlimit:10;}
	.st27{fill:#85AAE0;}
	.st28{fill:#C99E32;}
	.st29{fill:#FFCF47;stroke:#020202;stroke-miterlimit:10;}
	.st30{fill:#FF5F7D;stroke:#050505;stroke-width:2;stroke-miterlimit:10;}
	.st31{fill:#F36B7F;stroke:#000000;stroke-miterlimit:10;}
	.st32{fill:#DBA92C;}
	.st33{fill:#73B7A4;stroke:#020202;stroke-width:2;stroke-miterlimit:10;}
	.st34{fill:#FFCF47;stroke:#020202;stroke-width:2;stroke-miterlimit:10;}
	.st35{fill:#99C6B8;}
	.st36{fill:#E2B23B;}
	.st37{fill:#C11A3E;}
	.st38{fill:#FEF0E1;stroke:#020202;stroke-miterlimit:10;}
	.st39{fill:#ADCCFF;stroke:#020202;stroke-miterlimit:10;}
	.st40{fill:#FFD258;stroke:#0C0C0C;stroke-width:0.75;stroke-miterlimit:10;}
	.st41{fill:#ADCCFF;stroke:#050505;stroke-width:2;stroke-miterlimit:10;}
	.st42{fill:#73B7A4;stroke:#050505;stroke-width:2;stroke-miterlimit:10;}
	.st43{fill:#FFFBF2;stroke:#050505;stroke-width:2;stroke-miterlimit:10;}
	.st44{fill:#FEF0E1;stroke:#020202;stroke-width:2;stroke-miterlimit:10;}
	.st45{fill:#D8A830;}
	.st46{fill:#FF5F7D;stroke:#050505;stroke-miterlimit:10;}
	.st47{fill:#73B7A4;stroke:#020202;stroke-miterlimit:10;}
	.st48{fill:#E8D2BF;}
	.st49{fill:#FFD258;stroke:#0A0A0A;stroke-width:2;stroke-miterlimit:10;}
	.st50{fill:#D8AB3A;}
	.st51{fill:#FFD258;stroke:#050505;stroke-miterlimit:10;}
	.st52{fill:#FBCEC6;stroke:#070707;stroke-miterlimit:10;}
	.st53{fill:#D84161;}
	.st54{fill:#FFD258;stroke:#0A0A0A;stroke-miterlimit:10;}
	.st55{fill:#FFD258;stroke:#0A0A0A;stroke-width:3;stroke-miterlimit:10;}
	.st56{fill:none;stroke:#0A0A0A;stroke-width:2;stroke-miterlimit:10;}
	.st57{fill:#FF5F7D;stroke:#000000;stroke-miterlimit:10;}
	.st58{fill:#FFD258;stroke:#000000;stroke-miterlimit:10;}
	.st59{fill:#FF5F7D;stroke:#050505;stroke-width:0.75;stroke-miterlimit:10;}
	.st60{fill:#FEF0E1;stroke:#020202;stroke-width:0.75;stroke-miterlimit:10;}
	.st61{fill:#FF5F7D;stroke:#050505;stroke-width:0.25;stroke-miterlimit:10;}
	.st62{fill:#FFD258;stroke:#0A0A0A;stroke-width:0.75;stroke-miterlimit:10;}
	.st63{fill:#73B7A4;stroke:#020202;stroke-width:0.25;stroke-miterlimit:10;}
	.st64{fill:#FBCEC6;stroke:#020202;stroke-miterlimit:10;}
	.st65{fill:#73B7A4;stroke:#020202;stroke-width:0.75;stroke-miterlimit:10;}
	.st66{fill:#73B7A4;stroke:#070707;stroke-miterlimit:10;}
	.st67{fill:#FFFBF2;stroke:#070707;stroke-miterlimit:10;}
	.st68{fill:#E2B139;}
	.st69{fill:#FFFBF2;stroke:#020202;stroke-miterlimit:10;}
	.st70{fill:#ADCCFF;stroke:#020202;stroke-width:0.75;stroke-miterlimit:10;}
	.st71{fill:#FFFBF2;stroke:#020202;stroke-width:0.75;stroke-miterlimit:10;}
	.st72{fill:#FFD258;stroke:#050505;stroke-width:0.75;stroke-miterlimit:10;}
	.st73{fill:#FBCEC6;stroke:#020202;stroke-width:0.75;stroke-miterlimit:10;}
	.st74{fill:#73B7A4;stroke:#050505;stroke-miterlimit:10;}
	.st75{fill:#73B7A4;stroke:#050505;stroke-width:0.75;stroke-miterlimit:10;}
	.st76{fill:#E2C2A6;}
	.st77{fill:#DBC69E;}
	.st78{fill:#D39C94;}
	.st79{fill:#E0B344;}
	.st80{fill:#E0AE32;}
	.st81{fill:#4F9982;}
	.st82{fill:#DDBA9B;}
	.st83{fill:#FF5F7D;stroke:#000000;stroke-width:0.75;stroke-miterlimit:10;}
	.st84{fill:#FFD258;stroke:#000000;stroke-width:0.75;stroke-miterlimit:10;}
	.st85{fill:none;stroke:#000000;stroke-width:0.5;stroke-miterlimit:10;}
	.st86{opacity:0.43;fill:#7F3B48;}
	.st87{opacity:0.88;fill:#98BFFF;}
	.st88{opacity:0.75;fill:#FFFBF2;}
	.st89{opacity:0.88;fill:#719BD8;}
	.st90{opacity:0.75;fill:#EAD9B7;}
	.st91{fill:#FEF0E1;}
	.st92{fill:none;stroke:#070707;stroke-miterlimit:10;}
	.st93{fill:#C1962B;}
	.st94{fill:#D6B154;}
	.st95{fill:#5DA08B;}
	.st96{fill:#C6961E;}
</style>
<rect x="0" y="0" class="st4" width="700" height="477"/>
<g id="nXHlF9.tif_1_">
	<g>
		<path class="st11" d="M354.1,348.5c-1.5-1.4-3-1.2-4.4-0.1c-1.5-0.2-2.9-0.4-4.3-0.3c-1.4,0-2.9-0.1-4.3-0.4
			c-1.4-0.4-2.8,0.1-4.2-0.6c-1.4,0.1-2.8-0.3-4.2-0.8c-1.4,0-2.8-0.4-4.1-0.9c-1.4-0.5-2.7-0.6-4.1-1.1c-1.4-0.5-2.7-0.8-4-1.2
			c-1.3-0.1-2.6-0.9-3.9-1.4c-1.3-0.9-2.6-1.5-3.9-1.5c-1.3-0.9-2.6-1.4-3.8-1.7c-1.2-0.6-2.5-1.3-3.7-1.8c-1.2-0.8-2.5-1.6-3.6-2
			c-1.2-0.6-2.4-1.3-3.5-2.1c-1.1-0.1-2.3-1.1-3.5-2.2c-1.1-1-2.3-2.2-3.4-2.4c-1.1-0.4-2.2-2.4-3.3-2.5c-1.1-1.5-2.1-0.6-3.2-2.6
			c-1-0.9-2.1-2.1-3.1-2.7c-1-0.3-1.9-1.1-3-2.8c-0.9-0.4-1.9-2.2-2.8-3c-0.9-1-1.8-1.9-2.7-3.1c-0.9-0.9-1.8-2.3-2.6-3.2
			c-0.8-0.5-1.7-1.9-2.5-3.3c-0.8-1.7-1.6-1.8-2.4-3.4c-0.7-0.3-1.5-2.7-2.2-3.4c-0.7-1.5-1.4-1.9-2.1-3.5c-0.7-1.1-1.3-2.2-2-3.6
			c-0.6-0.8-1.3-2.9-1.8-3.7c-0.6-0.8-1.1-2-1.7-3.8c-0.6-1.5-1.1-3-1.6-3.9c-0.5-0.8-0.9-2.1-1.4-3.9c-0.5-1.9-0.9-3.1-1.3-4
			c-0.4-2-0.8-3.5-1.1-4.1c-0.3-1.3-0.7-3.5-0.9-4.1c-0.3-1.2-0.5-2.4-0.8-4.2c-0.2-1.2-0.4-3-0.6-4.2c-0.2-1.4-0.3-2.6-0.4-4.3
			c-0.1-1.7-0.2-1.9-0.3-4.3c0-1.1-0.1-3.2-0.1-4.4c0-1,0-3.7,0.1-4.4c0.1-0.4,0.2-2.3,0.3-4.4c0.1-2.2,0.3-2.6,0.4-4.3
			c0.2,0,0.4-2.6,0.6-4.3c0.2-1.2,0.5-2.9,0.8-4.2c0.1-0.7,0.3-1.3,0.5-1.9s0.3-0.8,0.5-2.2c0.1-1.3,0.3-2,0.5-2.9
			c0.1-1.6,0.4-0.9,0.6-1.2c0.2-1.1,0.4-1.6,0.6-1.8c0.2-0.3,0.4-1.5,0.6-2.2c0.2-0.8,0.4-1.8,0.7-1.8c0.3,0.3,0.5-1,0.7-2.2
			c0.2-1.6,0.5-1.5,0.8-1.8c0.3-0.7,0.6-0.8,0.8-2.1c0.2-1.1,0.5-1.4,0.8-1.9c0.3,0.2,0.6-1.6,0.9-1.9c0.6-0.7,1.1-2.7,1.7-3.4
			c0.6-0.8,1.1-2.5,1.8-3.3c0.6-1.1,1.2-2.3,1.9-3.2c0.7-0.8,1.3-2.4,2-3.1c0.6-1.9,1.4-2.3,2.1-3.1c0.7-1.6,1.5-1.7,2.2-3
			c0.7-1.3,1.5-1.7,2.3-2.9c0.8-1.2,1.6-1.9,2.4-2.8c0.9,0.1,1.7-0.7,2.5-2.8c0.9-0.3,1.7-2.1,2.6-2.7c0.4-1.2,1-0.8,1.5-1.4
			c0.5-1.2,1-1.1,1.5-1.5c0.5-0.4,1-1.2,1.5-1.4c0.5-0.5,1-0.9,1.5-1.4s1-0.9,1.6-1.4c0.5-0.1,1.1-0.8,1.6-1.2
			c0.5-0.3,1.1-1.2,1.6-2.1c0.6-0.1,1.1-0.9,1.7-0.4c0.5-0.5,1.1-0.8,1.7-1.5c0.6-0.5,1.1-1.4,1.7-0.9c0.6-0.3,1.1-1.2,1.7-1
			c0.6,0.1,1.1-1.2,1.7-1.2c0.6-0.9,1.2-0.1,1.8-0.9c0.6-0.6,1.2,0.2,1.8-1.2c1.1-1.1,2.3-0.9,3.4-1.8c1.1-0.7,2.3-1.2,3.4-1.7
			c1.2,0.1,2.3-0.7,3.5-1.6c1.2-0.8,2.4-1.1,3.6-1.5c1.2-0.8,2.5-0.1,3.6-1.3c1.2-0.5,2.5-0.5,3.7-1.2c1.2-0.7,2.5-0.5,3.8-1.1
			c1.2-0.6,2.5-0.4,3.8-0.9c1.3-0.3,2.6-0.1,3.9-0.8c1.3-0.6,2.6-0.5,3.9-0.7c1.3-0.7,2.6-0.8,3.9-0.5c1.3,0.1,2.7,0,4-0.4
			c1.3,0,2.7-0.2,4-0.2c1.3,0,2.7,0.6,4.1-0.1c1.4,0.9,2.7-1.2,4.1,0.1c1.4,0.5,2.7-0.1,4.1,0.3c1.4,0.3,2.7,0,4,0.4
			c1.4,0.5,2.7,0.3,4,0.6c1.3,0.2,2.6,0.3,4,0.7c1.3,0.6,2.7,1.4,3.9,0.8c1.3-0.1,2.6,0.7,3.8,1c1.3,1.2,2.5,0.7,3.8,1.1
			c1.3,0.9,2.5,0.7,3.7,1.2c1.3,1.2,2.4,0,3.7,1.4c1.2,0.8,2.5,2,3.6,1.5c1.1-0.6,2.4,1,3.5,1.6c1.1-0.1,2.3,1,3.5,1.8
			c1.2,0.8,2.3,1.6,3.4,1.9c1.1,0.4,2.2,0.4,3.3,2c1-0.3,2.2,1.7,3.2,2.1c0.7,2.8,1.1,0.2,1.7,1.2c0.6,0.4,1.2,1.7,1.7,1.2
			c0.6,1.9,1.1,1.2,1.6,1.2c0.5,0.3,1.1,0.7,1.6,1.3c1.1,1,2.1,1.9,3.2,2.6c1,1.1,2.1,2.5,3.1,2.7c1,0.9,2,2,2.9,2.8
			c1,1.3,1.9,1.4,2.8,2.9c0.9,0.8,1.8,1.2,2.7,3.1c0.9,1.5,1.7,0.9,2.6,3.2c0.9,1.2,1.7,1.9,2.5,3.3c0.8,0.3,1.5,1.3,2.4,3.4
			c0.8,1.5,1.5,2.3,2.2,3.4c0.7,1.4,1.4,2.5,2.1,3.5c0.7,1.5,1.3,2.4,2,3.6c0.7,1.7,1.2,2.4,1.8,3.7c0.6,0.9,1.1,2.2,1.7,3.8
			c0.5,0.7,1.1,3.5,1.5,3.9c0.5,1.4,0.9,2.2,1.4,3.9c0.4,1,0.9,2.6,1.2,4c0.4,0.8,0.7,1.7,1.1,4.1c0.4,1.6,0.6,2,0.9,4.1
			c0.3,2.4,0.5,2.1,0.8,4.2c0.3,3.2,0.5,3.3,0.6,4.2c0.2,1.5,0.3,1.8,0.4,4.3c0.1,1.1,0.3,4.3,0.3,4.3c0.1,1.4,0.1,3.2,0.1,4.4
			c0,1.3,0,2.7-0.1,4.4c-0.1,1.4-0.1,4.3-0.3,4.3c-0.1,1.8-0.3,2.7-0.4,4.3c-0.2,0.1-0.4,3.1-0.6,4.2c-0.2,1.1-0.5,2.6-0.8,4.2
			c-0.3,0.6-0.6,3.3-0.9,4.1c-0.4,1.1-0.7,2.8-1.1,4.1c-0.4,1.4-0.8,2.8-1.2,4c-0.5,0.9-0.9,2.6-1.4,3.9c-0.5,1.7-1,3-1.5,3.9
			c-0.5,1.7-1.1,2-1.7,3.8c-0.6,1.2-1.2,3.4-1.8,3.7c-0.6,1.6-1.3,1.5-2,3.6c-0.7,0.8-1.4,1.8-2.1,3.5c-0.7,1.6-1.5,1.9-2.2,3.4
			c-0.8-0.3-1.6,1.3-2.4,3.4c-0.8,1.4-1.6,3.3-2.5,3.3c-0.8,1.6-1.7,2.9-2.6,3.2c-0.9,1.2-1.8,2.6-2.7,3.1c-0.9,1.1-1.9,1.9-2.8,3
			c-1,1.2-2,1.5-3,2.8c-1,0.2-2,2.6-3.1,2.7c-1,0.8-2.1,1.1-3.2,2.6c-1.1,0-2.2,1.8-3.3,2.5c-1.1,0.9-2.2,1.7-3.4,2.4
			c-1.2-0.5-2.3,1.9-3.5,2.2c-1.1,1.6-2.4,0.8-3.5,2.1c-1.2-0.1-2.4,1.5-3.6,2c-1.2,1.4-2.4,1.5-3.7,1.8c-1.2,1.6-2.5,0.8-3.8,1.7
			c-1.3,0-2.6,0.9-3.9,1.6c-1.3,0.5-2.6,1.4-3.9,1.4c-1.3,0.3-2.7,0.9-4,1.3c-1.4,0-2.7,0.5-4.1,1.1c-1.4,0-2.8,0.4-4.1,0.9
			c-1.4,0.3-2.8,0.9-4.2,0.8c-1.4,0.5-2.8,0.3-4.2,0.6c-1.4-0.1-2.9,0-4.3,0.4c-1.4,0.4-2.9,0.2-4.3,0.3
			C357,348.4,355.5,347.1,354.1,348.5z M274.3,223.9c-7,28.9,5.9,53,9.2,59c3.7,6.7,16.3,28.4,43.1,37.8c19,6.6,35.7,3.9,43.1,2.1
			c30.9-7.3,57.6-34,63.3-67.2c1.1-6.5,3.5-25.5-6-46.2c-12.1-26.3-40.1-48.4-74.2-48.2C314,161.5,282.3,190.6,274.3,223.9z"/>
		<path class="st11" d="M353.7,308.5c-33.5,0.1-63.9-25.7-66-61.7c-2.3-38.9,25.5-69.3,64.2-71.4c34.7-1.8,66.7,27.2,68.7,61.7
			C422.7,273.4,395.7,307.8,353.7,308.5z M400.5,265.9c-0.1-11.8-9.7-21.3-21.4-21.4c-12,0-21.7,9.7-21.6,21.7
			c0.1,11.7,9.7,21.3,21.5,21.4C390.8,287.7,400.6,277.9,400.5,265.9z M329.1,244.6c-11.8-0.1-21.5,9.4-21.6,21.1
			c-0.1,12,9.4,21.8,21.4,22c11.6,0.1,21.5-9.6,21.7-21.2C350.6,254.5,341.1,244.6,329.1,244.6z M400.5,217.4
			c0-11.9-9.9-21.8-21.7-21.6c-11.8,0.2-21.3,9.8-21.3,21.5c0,12,9.7,21.6,21.7,21.5C391,238.8,400.5,229.2,400.5,217.4z
			 M307.5,217.6c0.1,11.8,9.6,21.2,21.5,21.3c12.1,0,21.7-9.7,21.5-21.7c-0.1-11.7-9.8-21.3-21.5-21.3
			C317.1,195.8,307.4,205.6,307.5,217.6z"/>
		<path class="st11" d="M379.1,275.5c-5.3,0.1-9.6-4-9.7-9.2c-0.1-5.2,4.1-9.4,9.4-9.5c5.3-0.1,9.6,4,9.7,9.2
			C388.6,271.2,384.4,275.5,379.1,275.5z"/>
		<path class="st11" d="M329.2,275.5c-5.3,0.1-9.6-3.9-9.8-9.1c-0.1-5.2,4-9.5,9.3-9.6c5.4-0.1,9.6,3.9,9.8,9.1
			C338.6,271.2,334.5,275.4,329.2,275.5z"/>
		<path class="st11" d="M378.9,208c5.1-0.1,9.6,4.3,9.6,9.3c0.1,5.1-4.3,9.5-9.5,9.5c-5.1,0.1-9.6-4.2-9.6-9.3
			C369.4,212.5,373.8,208.1,378.9,208z"/>
		<path class="st11" d="M328.9,226.9c-5.1,0-9.5-4.4-9.5-9.5c0-5.1,4.5-9.4,9.6-9.4c5.1,0,9.5,4.4,9.5,9.5
			C338.5,222.6,334.1,226.9,328.9,226.9z"/>
	</g>
</g>
<g id="nXHlF9.tif_2_">
	<g>
		<path class="st76" d="M459.4,236.2c-0.2-2.4-0.2-2.7-0.4-4.1c-0.1-0.9-0.3-1-0.6-4c-0.3-2-0.4-1.7-0.7-4c-0.3-2-0.6-2.4-0.9-3.9
			c-0.4-2.3-0.7-3.1-1-3.9c-0.4-1.3-0.8-2.9-1.2-3.8c-0.4-1.7-0.9-2.4-1.3-3.7c-0.3-0.3-0.7-1.7-1.1-2.8
			c-4.1,9.1-8.6,18.1-13.2,26.9c-1.5,3-3.1,5.9-4.7,8.9c0.3,7.3-0.5,13-1,15.9c-3.6,21.3-16.5,39.9-33.5,51.8
			c-1.8,3.8-3.7,7.6-5.5,11.4c-3.6,7.3-7.2,14.5-10.9,21.7c1-0.4,2-0.7,3.1-0.7c1.3-0.4,2.5-0.9,3.8-1.2c1.3,0,2.5-0.8,3.7-1.3
			c1.2-0.7,2.4-1.5,3.7-1.5c1.2-0.8,2.5-0.1,3.6-1.6c1.2-0.3,2.4-0.5,3.5-1.7c1.2-0.4,2.3-2,3.5-1.9c1.1-1.2,2.3-0.5,3.4-2
			c1.1-0.4,2.1-2.6,3.3-2.1c1.1-0.7,2.2-1.4,3.2-2.3c1.1-0.6,2-2.4,3.1-2.4c1-1.4,2-1.7,3-2.5c1-0.2,1.9-2.4,2.9-2.6
			c0.9-1.3,1.9-1.5,2.8-2.7c0.9-1,1.8-1.7,2.7-2.8c0.9-0.4,1.8-1.8,2.6-2.9c0.9-0.3,1.7-1.5,2.5-3c0.9,0,1.6-1.8,2.4-3.1
			c0.7-1.9,1.5-3.4,2.3-3.2c0.7-1.4,1.5-1.8,2.1-3.3c0.7-1.7,1.3-2.6,2-3.4c0.6-2,1.3-1.9,1.9-3.4c0.6-0.3,1.2-2.4,1.7-3.5
			c0.5-1.7,1.1-2,1.6-3.6c0.5-0.9,1-2.1,1.5-3.7c0.5-1.3,0.9-2.9,1.3-3.7c0.4-1.2,0.8-2.5,1.2-3.8c0.4-1.2,0.7-2.8,1-3.9
			c0.3-0.8,0.6-3.4,0.9-3.9c0.3-1.5,0.5-3,0.7-4c0.2-1.1,0.3-4,0.6-4c0.2-1.5,0.3-2.4,0.4-4.1c0.2-0.1,0.2-2.8,0.3-4.1
			c0-1.6,0.1-3,0.1-4.2c0-1.2,0-2.8-0.1-4.2C459.7,240.3,459.5,237.2,459.4,236.2z"/>
	</g>
</g>
</svg>
