<?xml version="1.0" encoding="utf-8"?>
<!-- Generator: Adobe Illustrator 22.1.0, SVG Export Plug-In . SVG Version: 6.00 Build 0)  -->
<svg version="1.1" id="Calque_1" xmlns="http://www.w3.org/2000/svg" xmlns:xlink="http://www.w3.org/1999/xlink" x="0px" y="0px"
	 viewBox="0 0 700 480" style="enable-background:new 0 0 700 480;" xml:space="preserve">
<style type="text/css">
	.st0{fill:#DAECFF;}
	.st1{fill:#FFD258;}
	.st2{fill:#FBCEC6;}
	.st3{fill:#ADCCFF;}
	.st4{fill:#FF5F7D;}
	.st5{fill:none;stroke:#000000;stroke-width:2;stroke-miterlimit:10;}
	.st6{fill:#FFFBF2;}
	.st7{fill:#73B7A4;}
	.st8{fill:none;stroke:#000000;stroke-miterlimit:10;}
	.st9{fill:#98BFFF;}
	.st10{fill:#FFD258;stroke:#000000;stroke-width:2;stroke-miterlimit:10;}
	.st11{fill:#FEF0E1;stroke:#070707;stroke-miterlimit:10;}
	.st12{fill:#D3A533;}
	.st13{fill:#FFB5C0;stroke:#020202;stroke-miterlimit:10;}
	.st14{fill:#FF8E9E;}
	.st15{fill:#FF8E9E;stroke:#000000;stroke-miterlimit:10;}
	.st16{fill:#EA5B70;}
	.st17{fill:#020202;}
	.st18{fill:#FFD258;stroke:#050505;stroke-width:0.5;stroke-miterlimit:10;}
	.st19{fill:#FEF0E1;stroke:#020202;stroke-width:0.5;stroke-miterlimit:10;}
	.st20{fill:#DDB143;}
	.st21{fill:#D6AF8B;}
	.st22{fill:#FFFBF2;stroke:#020202;stroke-width:2;stroke-miterlimit:10;}
	.st23{fill:#FF5F7D;stroke:#020202;stroke-width:2;stroke-miterlimit:10;}
	.st24{fill:#FFFFFF;}
	.st25{fill:#ADCCFF;stroke:#020202;stroke-width:2;stroke-miterlimit:10;}
	.st26{fill:#FFD258;stroke:#050505;stroke-width:2;stroke-miterlimit:10;}
	.st27{fill:#85AAE0;}
	.st28{fill:#C99E32;}
	.st29{fill:#FFCF47;stroke:#020202;stroke-miterlimit:10;}
	.st30{fill:#FF5F7D;stroke:#050505;stroke-width:2;stroke-miterlimit:10;}
	.st31{fill:#F36B7F;stroke:#000000;stroke-miterlimit:10;}
	.st32{fill:#DBA92C;}
	.st33{fill:#73B7A4;stroke:#020202;stroke-width:2;stroke-miterlimit:10;}
	.st34{fill:#FFCF47;stroke:#020202;stroke-width:2;stroke-miterlimit:10;}
	.st35{fill:#99C6B8;}
	.st36{fill:#E2B23B;}
	.st37{fill:#C11A3E;}
	.st38{fill:#FEF0E1;stroke:#020202;stroke-miterlimit:10;}
	.st39{fill:#ADCCFF;stroke:#020202;stroke-miterlimit:10;}
	.st40{fill:#FFD258;stroke:#0C0C0C;stroke-width:0.75;stroke-miterlimit:10;}
	.st41{fill:#ADCCFF;stroke:#050505;stroke-width:2;stroke-miterlimit:10;}
	.st42{fill:#73B7A4;stroke:#050505;stroke-width:2;stroke-miterlimit:10;}
	.st43{fill:#FFFBF2;stroke:#050505;stroke-width:2;stroke-miterlimit:10;}
	.st44{fill:#FEF0E1;stroke:#020202;stroke-width:2;stroke-miterlimit:10;}
	.st45{fill:#D8A830;}
	.st46{fill:#FF5F7D;stroke:#050505;stroke-miterlimit:10;}
	.st47{fill:#73B7A4;stroke:#020202;stroke-miterlimit:10;}
	.st48{fill:#E8D2BF;}
	.st49{fill:#FFD258;stroke:#0A0A0A;stroke-width:2;stroke-miterlimit:10;}
	.st50{fill:#D8AB3A;}
	.st51{fill:#FFD258;stroke:#050505;stroke-miterlimit:10;}
	.st52{fill:#FBCEC6;stroke:#070707;stroke-miterlimit:10;}
	.st53{fill:#D84161;}
	.st54{fill:#FFD258;stroke:#0A0A0A;stroke-miterlimit:10;}
	.st55{fill:#FFD258;stroke:#0A0A0A;stroke-width:3;stroke-miterlimit:10;}
	.st56{fill:none;stroke:#0A0A0A;stroke-width:2;stroke-miterlimit:10;}
	.st57{fill:#FF5F7D;stroke:#000000;stroke-miterlimit:10;}
	.st58{fill:#FFD258;stroke:#000000;stroke-miterlimit:10;}
	.st59{fill:#FF5F7D;stroke:#050505;stroke-width:0.75;stroke-miterlimit:10;}
	.st60{fill:#FEF0E1;stroke:#020202;stroke-width:0.75;stroke-miterlimit:10;}
	.st61{fill:#FF5F7D;stroke:#050505;stroke-width:0.25;stroke-miterlimit:10;}
	.st62{fill:#FFD258;stroke:#0A0A0A;stroke-width:0.75;stroke-miterlimit:10;}
	.st63{fill:#73B7A4;stroke:#020202;stroke-width:0.25;stroke-miterlimit:10;}
	.st64{fill:#FBCEC6;stroke:#020202;stroke-miterlimit:10;}
	.st65{fill:#73B7A4;stroke:#020202;stroke-width:0.75;stroke-miterlimit:10;}
	.st66{fill:#73B7A4;stroke:#070707;stroke-miterlimit:10;}
	.st67{fill:#FFFBF2;stroke:#070707;stroke-miterlimit:10;}
	.st68{fill:#E2B139;}
	.st69{fill:#FFFBF2;stroke:#020202;stroke-miterlimit:10;}
	.st70{fill:#ADCCFF;stroke:#020202;stroke-width:0.75;stroke-miterlimit:10;}
	.st71{fill:#FFFBF2;stroke:#020202;stroke-width:0.75;stroke-miterlimit:10;}
	.st72{fill:#FFD258;stroke:#050505;stroke-width:0.75;stroke-miterlimit:10;}
	.st73{fill:#FBCEC6;stroke:#020202;stroke-width:0.75;stroke-miterlimit:10;}
	.st74{fill:#73B7A4;stroke:#050505;stroke-miterlimit:10;}
	.st75{fill:#73B7A4;stroke:#050505;stroke-width:0.75;stroke-miterlimit:10;}
	.st76{fill:#E2C2A6;}
	.st77{fill:#DBC69E;}
	.st78{fill:#D39C94;}
	.st79{fill:#E0B344;}
	.st80{fill:#E0AE32;}
	.st81{fill:#4F9982;}
	.st82{fill:#DDBA9B;}
	.st83{fill:#FF5F7D;stroke:#000000;stroke-width:0.75;stroke-miterlimit:10;}
	.st84{fill:#FFD258;stroke:#000000;stroke-width:0.75;stroke-miterlimit:10;}
	.st85{fill:none;stroke:#000000;stroke-width:0.5;stroke-miterlimit:10;}
	.st86{opacity:0.43;fill:#7F3B48;}
	.st87{opacity:0.88;fill:#98BFFF;}
	.st88{opacity:0.75;fill:#FFFBF2;}
	.st89{opacity:0.88;fill:#719BD8;}
	.st90{opacity:0.75;fill:#EAD9B7;}
	.st91{fill:#FEF0E1;}
	.st92{fill:none;stroke:#070707;stroke-miterlimit:10;}
	.st93{fill:#C1962B;}
	.st94{fill:#D6B154;}
	.st95{fill:#5DA08B;}
	.st96{fill:#C6961E;}
</style>
<rect x="0" class="st0" width="700" height="480"/>
<line class="st8" x1="367.4" y1="222.3" x2="367.4" y2="408.1"/>
<path class="st31" d="M368.4,212.9c3.5,6,7,12,10.6,18l-23.2,0.2c3.4-6.1,6.8-12.1,10.2-18.2C366.8,212.9,367.6,212.9,368.4,212.9z"
	/>
<path class="st31" d="M423.1,143.5c0,0.7,0,0.4,0,2.6c0,0.5-0.1,1.6-0.1,2.5c-0.1,1-0.1,1.7-0.2,2.5s-0.2,1.5-0.3,2.6
	c-0.2,1.3-0.4,3-0.7,5c-0.3,1.7-0.6,4.3-1,4.8c-0.4,1.7-0.8,2.8-1.3,4.7c-0.5,2.3-1,2.4-1.5,4.5c-0.6,1.7-1.1,2.6-1.8,4.4
	c-0.3,0.3-0.6,1.4-1,2.4c-0.3,0.9-0.7,1.8-1,1.8c-0.4,0.5-0.7,1.3-1.1,2.1c-0.4,0.6-0.8,1.3-1.1,1.8c-0.4,0.3-0.8,1.9-1.2,2.2
	c-0.4,0.3-0.8,0.2-1.3,1.6c-0.4,0.8-0.9,0.4-1.3,1.4c-0.4-0.3-0.9,2-1.4,2.1c-0.5-0.4-0.9,0.1-1.4,2c-0.5,0.4-1,2.1-1.4,1.3
	c-1,0.6-2,2.1-3,3.1c-1,1.1-2.1,3-3.2,2.8c-1.1-0.2-2.2,1.3-3.3,2.5c-1.1,1.8-2.3,1.1-3.5,2.2c-1.2-1-2.4,1.4-3.6,1.9
	c-1.2,2-2.5,1.5-3.8,1.6c-1.3,2.1-2.6,0.5-3.9,1.3c-1.3,1.3-2.6,0.5-4,0.9c-1.3,0.7-2.7,0-4.1,0.6c-1.4,0.5-2.8,0.9-4.2,0.2
	c-0.9,0.9-1.9-1-2.8-0.1c-0.9-0.4-1.8,0.2-2.7-0.3c-0.9,0.1-1.8-0.4-2.7-0.4c-0.7-0.3-1.3-0.8-2-0.4c-0.7,0.4-1.3,0.7-2-0.5
	c-0.7-0.8-1.3,0.4-2-0.7c-0.6,0.8-1.3-0.3-1.9-0.5c-1.3,0-2.5-0.8-3.8-1.6c-1.2-1.6-2.4-3.2-3.6-1.9c-1.2-1.4-2.4-2.1-3.5-2.2
	c-1.1-0.9-2.3-1.6-3.3-2.5c-1.1,0.1-2.2-1.1-3.2-2.8c-1-3.8-2-2.3-3-3.1c-1,0.5-1.9-1.2-2.8-3.3c-0.9,0.9-1.8-3.9-2.7-3.5
	c-0.9,0.2-1.7-2.6-2.4-3.8c-0.8-2.2-1.5-0.4-2.2-4c-0.7-0.6-1.4-3.9-2-4.2c-0.6-0.3-1.2-1.9-1.8-4.4c-0.6-0.5-1.1-3.2-1.5-4.5
	c-0.5-0.1-0.9-1.5-1.3-4.7c-0.4-0.9-0.7-2.9-1-4.8c-0.3-1.7-0.5-2.8-0.7-5c-0.2,0.2-0.3-3.7-0.5-5.1c-0.1-1.9-0.2-0.5-0.2-5.2
	c0-1.6,0-2.6,0.1-3.9c0.1-2,0.1-2.6,0.3-3.8c0.2-2.5,0.6-5,1-7.5c0.3-1.6,0.6-2.7,1-4.8c0.4-2.1,0.8-2,1.3-4.7c0.5-0.7,1-5,1.5-4.5
	c0.6,1.4,1.1-7.4,1.8-4.4c0.3-0.7,0.6-1.6,1-2.4c0.3-0.8,0.7-1.5,1-1.8c0.4-0.6,0.7-1.3,1.1-2.2c0.4,1.4,0.8-1.4,1.1-1.8
	c0.4-1.2,0.8-0.9,1.2-2.5c0.4,0.4,0.8,0.8,1.3-1.3c0.4,1.5,0.9-2,1.3-1.7c0.4-1.2,0.9,0.5,1.4-1.9c0.9-2.8,1.9-1.6,2.8-3.3
	c1,0.1,2-5.2,3-3.1c1-1.9,2.1-3.7,3.2-2.8c1.1-0.9,2.2-2.1,3.3-2.5c1.1-0.7,2.3-3.5,3.5-2.2c1.2-2.2,2.4-0.9,3.6-1.9
	c1.2,0.9,2.5-3,3.8-1.6c1.3,0,2.6-0.1,3.9-1.3c1.3,0.7,2.6-1.8,4-0.9c1.3-0.9,2.7-2.5,4.1-0.6c1.4,1.5,2.8,0.1,4.2-0.2
	c1.4,0.6,2.8-0.9,4.2,0.2c1.4-1.5,2.7-2,4.1,0.6c1.3-0.7,2.7,1.4,4,0.9c1.3,0.6,2.6,2.8,3.9,1.3c1.3-2.1,2.5,3.6,3.8,1.6
	c1.2,1,2.4,2.2,3.6,1.9c1.2,0.5,2.4,1.8,3.5,2.2c1.1,1.1,2.3,1.5,3.3,2.5c1.1,0.9,2.2,1.6,3.2,2.8c1,1,2,2,3,3.1c0.9,1,1.8,2,2.6,3
	c0.9,1,1.7,1.7,2.5,3.2c0.8,1.2,1.6,2.3,2.3,3.4c0.7,0.6,1.4,2.7,2.1,3.6c0.7-0.2,1.3,2.3,1.9,3.8c0.6,2.2,1.2,4.2,1.7,4
	c0.5,2.8,1.1,1.1,1.5,4.1c0.5,1.5,0.9,3.4,1.3,4.2c0.4,1.5,0.8,2.2,1.1,4.4c0.2-1.6,0.3,2.6,0.5,2.2c0.1,1.1,0.3,0.1,0.4,2.3
	c0.1,1.1,0.2,0.5,0.3,2.4c0.1,0.8,0.2,1.6,0.3,2.2c0.1,0.6,0.2,2.2,0.2,2.3c0.1-0.7,0.1,1.8,0.2,2.4c0-0.2,0.1-0.6,0.1,1.7
	C423.1,141.3,423.1,141.8,423.1,143.5z"/>
<path class="st8" d="M366.9,213.1h-16.5c-0.1,0.1-0.2,0.4-0.2,0.6c-0.8,2.5,0.2,4.8,0.2,4.9c0.7,1.6,2.3,3.3,4.4,3.6
	c2.1,0.3,3.7-0.9,6.3-3C362.7,218,364.8,216,366.9,213.1z"/>
<path class="st8" d="M366.9,213.1h16.5c0.1,0.1,0.2,0.4,0.2,0.6c0.8,2.5-0.2,4.8-0.2,4.9c-0.7,1.6-2.3,3.3-4.4,3.6
	c-2.1,0.3-3.7-0.9-6.3-3C371.1,218,369,216,366.9,213.1z"/>
<path class="st85" d="M362.2,227.4c0.8-0.7,2.4-2.2,3.5-5.1c1.6-4,1.3-7.9,1.2-9.2c0.3,3,0.4,5.4,0.5,7.2c0.2,3.5,0.1,5.6,1,6.3
	c0.5,0.4,1,0.2,1.5,0"/>
<line class="st8" x1="392.5" y1="308.7" x2="366.9" y2="409.9"/>
<path class="st31" d="M394.3,303.7c1.1,3.8,2.2,7.5,3.3,11.3l-12.6-3.1c2.7-2.8,5.4-5.7,8.1-8.5
	C393.5,303.5,393.9,303.6,394.3,303.7z"/>
<path class="st31" d="M433.7,273.4c-0.4,0.2-0.9,4.4-1.4,4.7c-0.5,0.8-1.2,1.5-1.8,4.4c-0.7,1.4-1.4,0.2-2.2,4.1
	c-0.8,2-1.6,2-2.6,3.7c-0.9,0.6-1.9,1.9-2.8,3.4c-1,1.2-2,0-3.1,2.9c-1.1,0.8-2.2,1.3-3.3,2.5c-1.1,1.9-2.3,3.2-3.5,2.1
	c-1.2-1-2.4,0.6-3.7,1.6c-1.2,0.3-2.5,0.2-3.8,1.1c-1.3-0.9-2.6-0.3-3.8,0.5c-1.3-1.1-2.6-1.2-3.9-0.1c-1.3,0.6-2.6-0.4-3.9-0.7
	c-1.3-0.4-2.5-0.8-3.7-1.3c-1.2-0.2-2.3,0.1-3.4-1.8c-1.1,0.1-2.1,0.2-3.1-2.3c-1-0.6-1.9-0.9-2.8-2.7c-0.9-2.7-1.7-3.4-2.5-3.1
	c-0.8-0.9-1.5-2.4-2.1-3.5c-0.6-1.4-1.2-1.6-1.7-3.8c-0.5,0.1-1,0.7-1.3-4.1c-0.4-1.3-0.7-0.5-0.9-4.3c-0.2-1.5-0.4-2.7-0.5-4.5
	c-0.1-0.1-0.1-3.1,0-4.6c0.1-3.6,0.2-3.1,0.5-4.7c0.2-0.9,0.6-2.3,1-4.8c0.4-1.3,0.9-1.6,1.4-4.7c0.5-0.6,1.2-1.7,1.8-4.4
	c0.7-0.7,1.4-1.9,2.2-4.1c0.8-2.3,1.6-0.7,2.6-3.7c0.9-1.9,1.9-3.5,2.8-3.4c1-1.3,2-4.1,3.1-2.9c1.1-1.6,2.2-2.1,3.3-2.5
	c1.1,0.5,2.3-1.3,3.5-2.1c1.2,0.2,2.4-1,3.7-1.6c1.2-1,2.5-1,3.8-1.1c1.3,0,2.6-0.9,3.8-0.5c1.3,0.9,2.6-1.4,3.9,0.1
	c1.3-1.4,2.6,1.6,3.9,0.7c1.3,1.3,2.5-0.2,3.7,1.3c1.2-0.2,2.3,0,3.4,1.8c1.1-1.1,2.1,1,3.1,2.3c1,1.3,1.9,3.8,2.8,2.7
	c0.9,0.2,1.7,3.3,2.5,3.1c0.8-1.3,1.5,2.6,2.1,3.5c0.6,1.6,1.2,2.3,1.7,3.8c0.5,0.9,1,5.3,1.3,4.1c0.4,2.4,0.7,1.3,0.9,4.3
	c0.2,1,0.4,1.4,0.5,4.5c0.1,4.3,0.1,3.8,0,4.6c-0.1-0.3-0.2,3.4-0.5,4.7C434.4,271.5,434.1,275.4,433.7,273.4z"/>
<path class="st85" d="M393.5,303.6l-9-2.3c-0.1,0.1-0.1,0.2-0.2,0.3c-0.8,1.3-0.6,2.6-0.5,2.7c0.2,1,0.8,2.1,1.9,2.6
	c1.1,0.5,2.1,0,3.9-0.8C390.5,305.7,392,304.9,393.5,303.6z"/>
<path class="st85" d="M393.5,303.6l9,2.3c0,0.1,0,0.2,0,0.4c0.1,1.5-0.8,2.6-0.8,2.6c-0.6,0.8-1.7,1.5-2.9,1.3c-1.2-0.1-1.9-1-3-2.5
	C395.1,306.8,394.2,305.5,393.5,303.6z"/>
<path class="st85" d="M388.9,310.8c0.5-0.3,1.6-0.9,2.6-2.3c1.4-2,1.8-4.1,1.9-4.8c-0.2,1.7-0.5,3-0.7,4c-0.4,1.9-0.7,3.1-0.3,3.6
	c0.2,0.3,0.5,0.3,0.8,0.2"/>
<path class="st86" d="M415.3,155.2c5.3,5.6-5.5,26.4-20,39.4c-1.9,1.7-18.8,16.5-25.5,11.9c-5.3-3.7-1.7-17.6,1.4-24.8
	c8.1-19.2,27.2-25,29.9-25.8C407.1,154.1,412.7,152.5,415.3,155.2z"/>
<path class="st86" d="M427.6,272.7c2.7,2.9-2.8,13.7-10.4,20.5c-1,0.9-9.8,8.6-13.2,6.2c-2.7-1.9-0.9-9.2,0.7-12.9
	c4.2-10,14.1-13,15.5-13.4C423.4,272.2,426.3,271.3,427.6,272.7z"/>
</svg>
