<?xml version="1.0" encoding="utf-8"?>
<!-- Generator: Adobe Illustrator 22.1.0, SVG Export Plug-In . SVG Version: 6.00 Build 0)  -->
<svg version="1.1" id="Calque_1" xmlns="http://www.w3.org/2000/svg" xmlns:xlink="http://www.w3.org/1999/xlink" x="0px" y="0px"
	 viewBox="0 0 700 480" style="enable-background:new 0 0 700 480;" xml:space="preserve">
<style type="text/css">
	.st0{fill:#DAECFF;}
	.st1{fill:#FFD258;}
	.st2{fill:#FBCEC6;}
	.st3{fill:#ADCCFF;}
	.st4{fill:#FF5F7D;}
	.st5{fill:none;stroke:#000000;stroke-width:2;stroke-miterlimit:10;}
	.st6{fill:#FFFBF2;}
	.st7{fill:#73B7A4;}
	.st8{fill:none;stroke:#000000;stroke-miterlimit:10;}
	.st9{fill:#98BFFF;}
	.st10{fill:#FFD258;stroke:#000000;stroke-width:2;stroke-miterlimit:10;}
	.st11{fill:#FEF0E1;stroke:#070707;stroke-miterlimit:10;}
	.st12{fill:#D3A533;}
	.st13{fill:#FFB5C0;stroke:#020202;stroke-miterlimit:10;}
	.st14{fill:#FF8E9E;}
	.st15{fill:#FF8E9E;stroke:#000000;stroke-miterlimit:10;}
	.st16{fill:#EA5B70;}
	.st17{fill:#020202;}
	.st18{fill:#FFD258;stroke:#050505;stroke-width:0.5;stroke-miterlimit:10;}
	.st19{fill:#FEF0E1;stroke:#020202;stroke-width:0.5;stroke-miterlimit:10;}
	.st20{fill:#DDB143;}
	.st21{fill:#D6AF8B;}
	.st22{fill:#FFFBF2;stroke:#020202;stroke-width:2;stroke-miterlimit:10;}
	.st23{fill:#FF5F7D;stroke:#020202;stroke-width:2;stroke-miterlimit:10;}
	.st24{fill:#FFFFFF;}
	.st25{fill:#ADCCFF;stroke:#020202;stroke-width:2;stroke-miterlimit:10;}
	.st26{fill:#FFD258;stroke:#050505;stroke-width:2;stroke-miterlimit:10;}
	.st27{fill:#85AAE0;}
	.st28{fill:#C99E32;}
	.st29{fill:#FFCF47;stroke:#020202;stroke-miterlimit:10;}
	.st30{fill:#FF5F7D;stroke:#050505;stroke-width:2;stroke-miterlimit:10;}
	.st31{fill:#F36B7F;stroke:#000000;stroke-miterlimit:10;}
	.st32{fill:#DBA92C;}
	.st33{fill:#73B7A4;stroke:#020202;stroke-width:2;stroke-miterlimit:10;}
	.st34{fill:#FFCF47;stroke:#020202;stroke-width:2;stroke-miterlimit:10;}
	.st35{fill:#99C6B8;}
	.st36{fill:#E2B23B;}
	.st37{fill:#C11A3E;}
	.st38{fill:#FEF0E1;stroke:#020202;stroke-miterlimit:10;}
	.st39{fill:#ADCCFF;stroke:#020202;stroke-miterlimit:10;}
	.st40{fill:#FFD258;stroke:#0C0C0C;stroke-width:0.75;stroke-miterlimit:10;}
	.st41{fill:#ADCCFF;stroke:#050505;stroke-width:2;stroke-miterlimit:10;}
	.st42{fill:#73B7A4;stroke:#050505;stroke-width:2;stroke-miterlimit:10;}
	.st43{fill:#FFFBF2;stroke:#050505;stroke-width:2;stroke-miterlimit:10;}
	.st44{fill:#FEF0E1;stroke:#020202;stroke-width:2;stroke-miterlimit:10;}
	.st45{fill:#D8A830;}
	.st46{fill:#FF5F7D;stroke:#050505;stroke-miterlimit:10;}
	.st47{fill:#73B7A4;stroke:#020202;stroke-miterlimit:10;}
	.st48{fill:#E8D2BF;}
	.st49{fill:#FFD258;stroke:#0A0A0A;stroke-width:2;stroke-miterlimit:10;}
	.st50{fill:#D8AB3A;}
	.st51{fill:#FFD258;stroke:#050505;stroke-miterlimit:10;}
	.st52{fill:#FBCEC6;stroke:#070707;stroke-miterlimit:10;}
	.st53{fill:#D84161;}
	.st54{fill:#FFD258;stroke:#0A0A0A;stroke-miterlimit:10;}
	.st55{fill:#FFD258;stroke:#0A0A0A;stroke-width:3;stroke-miterlimit:10;}
	.st56{fill:none;stroke:#0A0A0A;stroke-width:2;stroke-miterlimit:10;}
	.st57{fill:#FF5F7D;stroke:#000000;stroke-miterlimit:10;}
	.st58{fill:#FFD258;stroke:#000000;stroke-miterlimit:10;}
	.st59{fill:#FF5F7D;stroke:#050505;stroke-width:0.75;stroke-miterlimit:10;}
	.st60{fill:#FEF0E1;stroke:#020202;stroke-width:0.75;stroke-miterlimit:10;}
	.st61{fill:#FF5F7D;stroke:#050505;stroke-width:0.25;stroke-miterlimit:10;}
	.st62{fill:#FFD258;stroke:#0A0A0A;stroke-width:0.75;stroke-miterlimit:10;}
	.st63{fill:#73B7A4;stroke:#020202;stroke-width:0.25;stroke-miterlimit:10;}
	.st64{fill:#FBCEC6;stroke:#020202;stroke-miterlimit:10;}
	.st65{fill:#73B7A4;stroke:#020202;stroke-width:0.75;stroke-miterlimit:10;}
	.st66{fill:#73B7A4;stroke:#070707;stroke-miterlimit:10;}
	.st67{fill:#FFFBF2;stroke:#070707;stroke-miterlimit:10;}
	.st68{fill:#E2B139;}
	.st69{fill:#FFFBF2;stroke:#020202;stroke-miterlimit:10;}
	.st70{fill:#ADCCFF;stroke:#020202;stroke-width:0.75;stroke-miterlimit:10;}
	.st71{fill:#FFFBF2;stroke:#020202;stroke-width:0.75;stroke-miterlimit:10;}
	.st72{fill:#FFD258;stroke:#050505;stroke-width:0.75;stroke-miterlimit:10;}
	.st73{fill:#FBCEC6;stroke:#020202;stroke-width:0.75;stroke-miterlimit:10;}
	.st74{fill:#73B7A4;stroke:#050505;stroke-miterlimit:10;}
	.st75{fill:#73B7A4;stroke:#050505;stroke-width:0.75;stroke-miterlimit:10;}
	.st76{fill:#E2C2A6;}
	.st77{fill:#DBC69E;}
	.st78{fill:#D39C94;}
	.st79{fill:#E0B344;}
	.st80{fill:#E0AE32;}
	.st81{fill:#4F9982;}
	.st82{fill:#DDBA9B;}
	.st83{fill:#FF5F7D;stroke:#000000;stroke-width:0.75;stroke-miterlimit:10;}
	.st84{fill:#FFD258;stroke:#000000;stroke-width:0.75;stroke-miterlimit:10;}
	.st85{fill:none;stroke:#000000;stroke-width:0.5;stroke-miterlimit:10;}
	.st86{opacity:0.43;fill:#7F3B48;}
	.st87{opacity:0.88;fill:#98BFFF;}
	.st88{opacity:0.75;fill:#FFFBF2;}
	.st89{opacity:0.88;fill:#719BD8;}
	.st90{opacity:0.75;fill:#EAD9B7;}
	.st91{fill:#FEF0E1;}
	.st92{fill:none;stroke:#070707;stroke-miterlimit:10;}
	.st93{fill:#C1962B;}
	.st94{fill:#D6B154;}
	.st95{fill:#5DA08B;}
	.st96{fill:#C6961E;}
</style>
<rect y="0.1" class="st1" width="700" height="479.9"/>
<path class="st5" d="M329.7,94.6c0,0,0-0.1,0.1,0.2c0-0.3,0.1,0.9,0.2,0.6c0.1,0.3,0.2,1.5,0.3,1.1c0.1-0.8,0.3,1.6,0.4,1.5
	c0.2,0.1,0.3,0.7,0.5,1.8c0.2-0.4,0.4,1.8,0.6,2.2c0.2,1.6,0.5,0.7,0.7,2.6c0.3,1.2,0.5,2.7,0.8,2.9c0.3,0.9,0.6,1.1,0.9,3.3
	c0.3,1.3,0.7,2.7,1,3.6c0.4,0.8,0.7,1.8,1.1,3.9c0.4,0.8,0.8,3.5,1.2,4.2c0.4,1.1,0.8,1.9,1.3,4.5c0.4,1.6,0.9,3.1,1.3,4.7
	s0.9,3.3,1.4,5c0.3,1,0.6,2.4,0.9,3.1c0.3,0.8,0.6,1.5,0.9,3.2c0.3,2.2,0.6,2.2,0.9,3.3c0.3,2,0.6,1.9,1,3.4c0.3,0.5,0.6,3.1,1,3.4
	c0.3,2.1,0.7,3.1,1,3.5c0.3,1.2,0.7,2,1,3.6c0.3,0.7,0.7,2.9,1,3.7c0.3,1.8,0.7,1.7,1.1,3.7c0.4,1.2,0.7,2.4,1.1,3.8
	c0.4,1.3,0.7,2.5,1.1,3.9c0.4,1.3,0.7,2.6,1.1,3.9c0.4,1.3,0.7,2.7,1.1,4c0.4,1.3,0.8,2.8,1.1,4c0.4,1.5,0.8,2.7,1.2,4.1
	c0.4,1.2,0.8,2.5,1.2,4.1c0.4,1.2,0.8,2.8,1.2,4.2c0.4,1.5,0.8,2.9,1.2,4.2c0.4,1.5,0.8,2.9,1.2,4.2c0.4,1.7,0.8,1.5,1.2,4.3
	c0.4,1.6,0.8,2.9,1.2,4.3c0.4,0.6,0.8,3.5,1.2,4.3c0.4,1.5,0.8,3.2,1.2,4.4c0.4,1.6,0.8,2.9,1.2,4.4c0.4,2,0.8,3.1,1.2,4.4
	c0.4,1.5,0.8,3.1,1.3,4.4c0.4,1.6,0.8,2.6,1.3,4.4c0.4,1.7,0.8,3,1.3,4.4c0.4,1.5,0.8,3.2,1.3,4.5c0.4,1.1,0.8,2.9,1.3,4.5
	c0.4,1.3,0.8,2.6,1.3,4.5c0.4,1,0.8,3,1.3,4.5c0.4,0.5,0.8,1.5,1.3,4.5c0.4,1,0.8,2.1,1.3,4.5c0.4,1.5,0.8,2.7,1.3,4.5
	c0.4,1.7,0.8,3,1.3,4.4c0.4,1.8,0.8,2.9,1.3,4.4c0.4,1.3,0.8,2.9,1.3,4.4c0.4-0.3,0.8,3.7,1.2,4.4c0.4,0.2,0.8,2.3,1.2,4.4
	c0.4,0.3,0.8,3.2,1.2,4.4c0.4,1,0.8,2.9,1.2,4.3c0.4,1.6,0.8,2,1.2,4.3c0.4,0.4,0.8,2.8,1.2,4.3c0.4-0.5,0.8,2.8,1.2,4.2
	c0.4,0.1,0.8,2.5,1.2,4.2c0.4,2.6,0.8,3.2,1.2,4.2c0.4,1.2,0.8,2.5,1.2,4.1c0.4,1.2,0.8,2.3,1.2,4.1c0.4,1.7,0.8,2.7,1.1,4
	c0.4,1.4,0.8,3.4,1.1,4c0.4,1.1,0.7,2.4,1.1,3.9c0.4,0.4,0.7,2.4,1.1,3.9c0.4,2.4,0.7,1.6,1.1,3.8c0.4,1.2,0.7,1.3,1.1,3.7
	c0.3,1.3,0.7,2.7,1,3.7c0.3,1.8,0.7,1.9,1,3.6c0.3,0.8,0.7,3,1,3.5c0.3,1.8,0.7,3,1,3.4c0.3,1.1,0.6,2.1,1,3.4
	c0.3,1.4,0.6,2.2,0.9,3.3c0.3,2.7,0.6,2.2,0.9,3.2c0.3,1.1,0.6,0.4,0.9,3.1c0.3-0.1,0.6,1.7,0.9,3c0.3,0.3,0.6,2.4,0.8,2.9
	c0.3,0.5,0.5,1.4,0.8,2.8c0.3,1.8,0.5,1.9,0.8,2.8c0.3,1.3,0.5,0.3,0.8,2.7c0.2,1.6,0.5,1,0.7,2.6c0.2,0.2,0.5,1.2,0.7,2.4
	c0.2,2,0.4,1.9,0.7,2.3c0.2,2.6,0.4,2.5,0.6,2.2c0.2,1.1,0.4,1.1,0.6,2.1c0.2,0.9,0.4,1.3,0.6,2c0.2,0.9,0.4,1.5,0.5,1.9
	c0.2,0.9,0.3,1.8,0.5,1.8c0.2,1.1,0.3,0.6,0.5,1.6c0.1,0.4,0.3,1.4,0.4,1.5c0.1,0,0.3,0.9,0.4,1.4c0.1,0.5,0.2,0.8,0.4,1.2
	c0.1,0.5,0.2,0.6,0.3,1.1c0.1,1.1,0.2,0.8,0.3,1c0.1,0.7,0.2,0.7,0.2,0.8c0.1,1.4,0.1-0.1,0.2,0.7c0.1,0.1,0.1,0.6,0.2,0.5
	c0,0.4,0.1,1.4,0.1,0.4c0-0.4,0.1,1.1,0.1,0.2c0-0.3,0,0.9,0,0.1"/>
<path class="st5" d="M419.5,238.2c0,0,1.2,41.3,2.4,86c0,1.4,0.1,2.7,0.1,4.1c0,1.2,0.1,2.5,0.1,4.1c0,1,0.1,3,0.1,4.1
	c0,2,0.1,2.4,0.1,4.1c0,1.5,0.1,2.9,0.1,4.1c0,1.2,0.1,2.3,0.1,4.1c0,2.3,0.1,2.7,0.1,4.1c0,2.1,0.1,1.9,0.1,4c0,0.9,0.1,3.3,0.1,4
	c0,1.3,0.1,2.3,0.1,4c0,0.4,0.1,2.9,0.1,3.9c0,1.2,0.1,3.2,0.1,3.9c0,0.6,0.1,2.7,0.1,3.8c0,0.7,0.1,2.5,0.1,3.7
	c0,1.5,0.1,2.6,0.1,3.7c0,2,0.1,2.6,0.1,3.6c0,1.4,0.1,1.4,0.1,3.5c0,0.6,0.1,2.1,0.1,3.4c0,0.7,0.1,3.2,0.1,3.3
	c0,1.9,0.1,2.5,0.1,3.2c0,1.1,0.1,2.1,0.1,3.1c0,1.2,0.1,2.3,0.1,3.4c0,1.4,0.1,2,0.1,3.2c0,1.2,0.1,2.7,0.1,3.1
	c0,1.1,0.1,1.8,0.1,2.9c0,1.2,0.1,1.6,0.1,2.7c0,0.5,0,2,0.1,2.5c0,1,0,1.9,0.1,2.3c0-0.4,0,1.7,0.1,2.1c0,0.9,0,1,0.1,1.9
	c0-0.1,0,1.9,0,1.7c0,1.1,0,1,0,1.4c0,2.1,0,1.9,0,1.2c0,1.1,0-0.2,0,1c0,1.5,0,0.1,0,0.7c0,1,0-0.5,0,0.4c0-1.2,0,0.1,0,0.1"/>
<path class="st5" d="M302.7,241.5c0,0,0,9.4,0,24.1c0,1,0,2.1,0,3.2c0,0.4,0,0.8,0,1.3s0,1.1,0,2c0-0.1,0,0.7,0,2
	c0,0.1-0.1-0.1,0,1.5c0,1.9,0.1,3.7,0,2.1c-0.1-0.7,0.1,2,0,1.5c0.1,2.1,0,1.6,0,1.8c0,1.3,0,1.2,0,1.9c0.1,1.6,0,1.3,0,1.3
	c0,0.8,0,1,0,2.6c0,1.5,0,1.4,0,1.9c0,0.1,0,1.9,0,2.1c0,1.1,0,1.7,0,2c-0.1-1,0,1.6,0,2.1c0,0.6,0,1.6,0,1.9c0,0.7,0,0.6,0,2.3
	c0,0.4,0,1.5,0,1.9c0-0.2,0,1.3,0,2.3c0,0.8,0,1,0,1.8c-0.1-0.2,0,1.2,0,2.6c0,0.3,0,1.2,0,2.2c-0.1-1,0,1.2,0,2.2
	c0-0.1,0,0.9,0,2.4c-0.1-1-0.1,0.2,0,2.1c0,1.1,0,1.7,0,2.2c0,0,0,1.1,0,2.3c0,1.1,0,1.4,0,2.3c-0.1-0.4,0.1,3.2,0,2.2
	c0.2,3.8,0,0.4,0,1.3c0.1,1.8-0.1-1.2,0,1.2c0-0.4-0.1-1.7,0,0.5c0,1.4-0.1-0.3,0,1.6c0,1.3-0.1-1.4,0,1.2c0,1.5,0,1.2,0,1.2
	c0,0,0,0.9,0,1.2c0.1,2.8-0.1-0.7,0,1.1c0-0.4-0.1-0.4,0,0.7c0.1,1.9,0.1,1.7,0,1.7c0-1,0-0.1,0,1.1c0,1.1-0.1,0.4,0,1.1
	c0,0.3,0,1.5,0,1.2c-0.1-1.7,0-1.4,0,1.1c0-0.9,0.1,2.2,0,0.8c0,0.8,0.1,2.2,0,1.5c0,1.3,0,0.2,0,1.5c0,0.8,0,0.7,0,0.9
	c0-0.6,0,0.6,0,1.2c0,1.2,0,1.2,0,1c0,1,0,1.6,0,1.6c0,0.7,0,0.9,0,0.8c0,0.8,0,0.2,0,0.8c0,0.9,0-0.1,0,1.4c0,0.3,0,0.7,0,2
	c0-0.6,0-0.4,0,1.1c0,1,0,2.1,0,1.5c0,0.5,0-0.1,0,0.7c0,1.4,0,1.6,0,1.5c-0.1-0.7,0,1.5,0,1.1c0-0.6,0,1,0,1.2
	c-0.1-2,0.1,2.5,0,0.8c0-0.3,0,1.4,0,1.5c0,0.4-0.1-0.7,0,0.7c0,0,0,1.4,0,1.4c0.1,2.6,0,0.9,0,2.1c-0.1-1.4,0,0.2,0,1.4
	c0,0.5,0-0.2,0,0.9c0-0.6-0.1-2.1,0,0.5c0.1,1.8-0.1-0.1,0,1.7c0.1,3.5,0,0.4,0,2.1c0,0.6,0,0.7,0,1.1c-0.1-0.6,0,1.7,0,1.2
	c0.1,2.5,0,2.5,0,2c0-0.4-0.1-0.1,0,1.6c-0.1-1.8,0,1.2,0,0.4c0,0.8,0-0.1,0,1c0,1.2,0,0.5,0,1.2c0,1.9,0,1.6,0,2.1
	c0.1,2.6,0,1.1,0,1.5c0,1.4,0.1,1.9,0,0.5c0.1,0.6-0.1-1.1,0,1.8c0.1,3.4,0.1,2.7,0,0.8c0,0.1,0,0,0,1.4c0,1.5,0-1.1,0,1.9
	c0.1,2.9,0,1,0,2c0,1.3,0,1.5,0,1.9c-0.1-1.7-0.1-1.5,0-0.1c0,3.3,0,1.8,0,1.9c0.1,3.6-0.1,0.8,0,1.9c0.1,1.9,0,0,0,0.3
	c-0.1-1.1-0.1,0,0,1.4c0,0.7,0,0.3,0,1.7c0,0.9,0,0.4,0,0.4c0,1.7,0-0.1,0,1.4c-0.1-1.3,0,2.6,0,2c0,0.8,0,1.4,0,1.4
	c-0.1-0.7,0,0.7,0,2c0,0.5,0,0.6,0,1.2c0.1,1.7-0.1,0.9,0,1.6c0.1,0.8-0.1-1.2,0,1.5c0.1,1.1,0.1,3.1,0,1.6c0,0-0.1-0.1,0,1.3
	c0-1.4-0.1,0.6,0,1.4c0,0.6,0,1.6,0,1.3c0,0.3,0.1,2.9,0,1.2c0.1,3.5,0,1.3,0,1.3c0,1.9,0,0.8,0,1.1c-0.2-2.4,0,0.3,0,1.2
	c-0.1-0.8,0,1.2,0,0.7c-0.1-3,0-0.6,0,0.1c0-0.4,0,1.2,0,1.3c-0.1-1.1,0,1,0,0.9c0,0.9,0-1.2,0,1c0,1.6,0-0.4,0,1
	c-0.1-1.7,0,2.4,0,0.7c0.1,2,0,0.5,0,1.4c0,0.5,0,2.2,0,1.2c0,0-0.1-1.3,0,1c0-0.1,0,1.3,0,0.7c0,1.1,0,0.6,0,0.4c0,0.8,0-2.1,0,0.1
	"/>
<circle class="st6" cx="356.2" cy="121.8" r="18.3"/>
<circle class="st6" cx="322.6" cy="135.1" r="18.3"/>
<circle class="st6" cx="368.4" cy="160.1" r="18.3"/>
<circle class="st6" cx="334.7" cy="173.4" r="18.3"/>
<path class="st4" d="M440.6,259.3c1.6,16.5-8.6,37-18.3,37.1c-9.7,0-20.4-20.6-18.3-37.1c0.7-5.2,3.3-10.8,8.6-22
	c5.9-12.5,7.5-15,9.7-15.1c1.8,0,3.8,1.6,9,12.7C437.1,247.4,440,253.6,440.6,259.3z"/>
<circle class="st7" cx="422.2" cy="314.7" r="18.3"/>
<path class="st8" d="M414.9,214c1.1,1,2.5,2.4,3.8,4.3c1.2,1.7,2,3.4,2.6,4.7"/>
<path class="st8" d="M428.9,214c-1.1,1-2.5,2.4-3.8,4.3c-1.2,1.7-2,3.4-2.6,4.7"/>
<line class="st8" x1="422.3" y1="222.3" x2="422.4" y2="210.5"/>
<path class="st7" d="M302.7,320.7h-44.2c-0.2,0.4-0.4,0.9-0.6,1.6c-2.2,6.7,0.5,12.9,0.6,13.2c2,4.2,6.3,8.8,11.8,9.6
	c5.6,0.8,9.9-2.5,17-8.1C291.4,333.7,297.1,328.5,302.7,320.7z"/>
<path class="st7" d="M302.7,320.7h44.2c0.2,0.4,0.4,0.9,0.6,1.6c2.2,6.7-0.5,12.9-0.6,13.2c-2,4.2-6.3,8.8-11.8,9.6
	c-5.6,0.8-9.9-2.5-17-8.1C314,333.7,308.3,328.5,302.7,320.7z"/>
<path class="st7" d="M302.7,320.7h44.2c0.2-0.4,0.4-0.9,0.6-1.6c2.2-6.7-0.5-12.9-0.6-13.2c-2-4.2-6.3-8.8-11.8-9.6
	c-5.6-0.8-9.9,2.5-17,8.1C314,307.7,308.3,312.9,302.7,320.7z"/>
<path class="st7" d="M302.7,320.7h-44.2c-0.2-0.4-0.4-0.9-0.6-1.6c-2.2-6.7,0.5-12.9,0.6-13.2c2-4.2,6.3-8.8,11.8-9.6
	c5.6-0.8,9.9,2.5,17,8.1C291.4,307.7,297.1,312.9,302.7,320.7z"/>
<path class="st9" d="M317.6,251.4c2.2,10.2-6.6,25-15.5,24.8c-8.6-0.2-16.3-14.5-14.4-24.8c0.9-4.8,3.2-5,7.2-12.9
	c6.3-12.3,6-22.2,7.7-22.1c1.7,0.1,0.2,9.4,5.6,20.3C312.5,245.3,316.4,245.5,317.6,251.4z"/>
<path class="st9" d="M371,117.4c1.3,0.2,3,8.2-1,13.4c-2,2.6-5.3,4.3-6.1,3.6c-0.6-0.6,0.6-2.4,3.4-9
	C370.2,118.8,370.4,117.4,371,117.4z"/>
<path class="st9" d="M383.5,155.1c1.3,0.2,3,8.2-1,13.4c-2,2.6-5.3,4.3-6.1,3.6c-0.6-0.6,0.6-2.4,3.4-9
	C382.8,156.5,383,155,383.5,155.1z"/>
<path class="st9" d="M337.4,131.9c1.3,0.2,3,8.2-1,13.4c-2,2.6-5.3,4.3-6.1,3.6c-0.6-0.6,0.6-2.4,3.4-9
	C336.7,133.3,336.9,131.9,337.4,131.9z"/>
<path class="st9" d="M350,169.6c1.3,0.2,3,8.2-1,13.4c-2,2.6-5.3,4.3-6.1,3.6c-0.6-0.6,0.6-2.4,3.4-9
	C349.2,171,349.4,169.5,350,169.6z"/>
</svg>
