<?xml version="1.0" encoding="utf-8"?>
<!-- Generator: Adobe Illustrator 22.1.0, SVG Export Plug-In . SVG Version: 6.00 Build 0)  -->
<svg version="1.1" id="Calque_1" xmlns="http://www.w3.org/2000/svg" xmlns:xlink="http://www.w3.org/1999/xlink" x="0px" y="0px"
	 viewBox="0 0 700 480" style="enable-background:new 0 0 700 480;" xml:space="preserve">
<style type="text/css">
	.st0{fill:#DAECFF;}
	.st1{fill:#FFD258;}
	.st2{fill:#FBCEC6;}
	.st3{fill:#ADCCFF;}
	.st4{fill:#FF5F7D;}
	.st5{fill:none;stroke:#000000;stroke-width:2;stroke-miterlimit:10;}
	.st6{fill:#FFFBF2;}
	.st7{fill:#73B7A4;}
	.st8{fill:none;stroke:#000000;stroke-miterlimit:10;}
	.st9{fill:#98BFFF;}
	.st10{fill:#FFD258;stroke:#000000;stroke-width:2;stroke-miterlimit:10;}
	.st11{fill:#FEF0E1;stroke:#070707;stroke-miterlimit:10;}
	.st12{fill:#D3A533;}
	.st13{fill:#FFB5C0;stroke:#020202;stroke-miterlimit:10;}
	.st14{fill:#FF8E9E;}
	.st15{fill:#FF8E9E;stroke:#000000;stroke-miterlimit:10;}
	.st16{fill:#EA5B70;}
	.st17{fill:#020202;}
	.st18{fill:#FFD258;stroke:#050505;stroke-width:0.5;stroke-miterlimit:10;}
	.st19{fill:#FEF0E1;stroke:#020202;stroke-width:0.5;stroke-miterlimit:10;}
	.st20{fill:#DDB143;}
	.st21{fill:#D6AF8B;}
	.st22{fill:#FFFBF2;stroke:#020202;stroke-width:2;stroke-miterlimit:10;}
	.st23{fill:#FF5F7D;stroke:#020202;stroke-width:2;stroke-miterlimit:10;}
	.st24{fill:#FFFFFF;}
	.st25{fill:#ADCCFF;stroke:#020202;stroke-width:2;stroke-miterlimit:10;}
	.st26{fill:#FFD258;stroke:#050505;stroke-width:2;stroke-miterlimit:10;}
	.st27{fill:#85AAE0;}
	.st28{fill:#C99E32;}
	.st29{fill:#FFCF47;stroke:#020202;stroke-miterlimit:10;}
	.st30{fill:#FF5F7D;stroke:#050505;stroke-width:2;stroke-miterlimit:10;}
	.st31{fill:#F36B7F;stroke:#000000;stroke-miterlimit:10;}
	.st32{fill:#DBA92C;}
	.st33{fill:#73B7A4;stroke:#020202;stroke-width:2;stroke-miterlimit:10;}
	.st34{fill:#FFCF47;stroke:#020202;stroke-width:2;stroke-miterlimit:10;}
	.st35{fill:#99C6B8;}
	.st36{fill:#E2B23B;}
	.st37{fill:#C11A3E;}
	.st38{fill:#FEF0E1;stroke:#020202;stroke-miterlimit:10;}
	.st39{fill:#ADCCFF;stroke:#020202;stroke-miterlimit:10;}
	.st40{fill:#FFD258;stroke:#0C0C0C;stroke-width:0.75;stroke-miterlimit:10;}
	.st41{fill:#ADCCFF;stroke:#050505;stroke-width:2;stroke-miterlimit:10;}
	.st42{fill:#73B7A4;stroke:#050505;stroke-width:2;stroke-miterlimit:10;}
	.st43{fill:#FFFBF2;stroke:#050505;stroke-width:2;stroke-miterlimit:10;}
	.st44{fill:#FEF0E1;stroke:#020202;stroke-width:2;stroke-miterlimit:10;}
	.st45{fill:#D8A830;}
	.st46{fill:#FF5F7D;stroke:#050505;stroke-miterlimit:10;}
	.st47{fill:#73B7A4;stroke:#020202;stroke-miterlimit:10;}
	.st48{fill:#E8D2BF;}
	.st49{fill:#FFD258;stroke:#0A0A0A;stroke-width:2;stroke-miterlimit:10;}
	.st50{fill:#D8AB3A;}
	.st51{fill:#FFD258;stroke:#050505;stroke-miterlimit:10;}
	.st52{fill:#FBCEC6;stroke:#070707;stroke-miterlimit:10;}
	.st53{fill:#D84161;}
	.st54{fill:#FFD258;stroke:#0A0A0A;stroke-miterlimit:10;}
	.st55{fill:#FFD258;stroke:#0A0A0A;stroke-width:3;stroke-miterlimit:10;}
	.st56{fill:none;stroke:#0A0A0A;stroke-width:2;stroke-miterlimit:10;}
	.st57{fill:#FF5F7D;stroke:#000000;stroke-miterlimit:10;}
	.st58{fill:#FFD258;stroke:#000000;stroke-miterlimit:10;}
	.st59{fill:#FF5F7D;stroke:#050505;stroke-width:0.75;stroke-miterlimit:10;}
	.st60{fill:#FEF0E1;stroke:#020202;stroke-width:0.75;stroke-miterlimit:10;}
	.st61{fill:#FF5F7D;stroke:#050505;stroke-width:0.25;stroke-miterlimit:10;}
	.st62{fill:#FFD258;stroke:#0A0A0A;stroke-width:0.75;stroke-miterlimit:10;}
	.st63{fill:#73B7A4;stroke:#020202;stroke-width:0.25;stroke-miterlimit:10;}
	.st64{fill:#FBCEC6;stroke:#020202;stroke-miterlimit:10;}
	.st65{fill:#73B7A4;stroke:#020202;stroke-width:0.75;stroke-miterlimit:10;}
	.st66{fill:#73B7A4;stroke:#070707;stroke-miterlimit:10;}
	.st67{fill:#FFFBF2;stroke:#070707;stroke-miterlimit:10;}
	.st68{fill:#E2B139;}
	.st69{fill:#FFFBF2;stroke:#020202;stroke-miterlimit:10;}
	.st70{fill:#ADCCFF;stroke:#020202;stroke-width:0.75;stroke-miterlimit:10;}
	.st71{fill:#FFFBF2;stroke:#020202;stroke-width:0.75;stroke-miterlimit:10;}
	.st72{fill:#FFD258;stroke:#050505;stroke-width:0.75;stroke-miterlimit:10;}
	.st73{fill:#FBCEC6;stroke:#020202;stroke-width:0.75;stroke-miterlimit:10;}
	.st74{fill:#73B7A4;stroke:#050505;stroke-miterlimit:10;}
	.st75{fill:#73B7A4;stroke:#050505;stroke-width:0.75;stroke-miterlimit:10;}
	.st76{fill:#E2C2A6;}
	.st77{fill:#DBC69E;}
	.st78{fill:#D39C94;}
	.st79{fill:#E0B344;}
	.st80{fill:#E0AE32;}
	.st81{fill:#4F9982;}
	.st82{fill:#DDBA9B;}
	.st83{fill:#FF5F7D;stroke:#000000;stroke-width:0.75;stroke-miterlimit:10;}
	.st84{fill:#FFD258;stroke:#000000;stroke-width:0.75;stroke-miterlimit:10;}
	.st85{fill:none;stroke:#000000;stroke-width:0.5;stroke-miterlimit:10;}
	.st86{opacity:0.43;fill:#7F3B48;}
	.st87{opacity:0.88;fill:#98BFFF;}
	.st88{opacity:0.75;fill:#FFFBF2;}
	.st89{opacity:0.88;fill:#719BD8;}
	.st90{opacity:0.75;fill:#EAD9B7;}
	.st91{fill:#FEF0E1;}
	.st92{fill:none;stroke:#070707;stroke-miterlimit:10;}
	.st93{fill:#C1962B;}
	.st94{fill:#D6B154;}
	.st95{fill:#5DA08B;}
	.st96{fill:#C6961E;}
</style>
<rect x="1.9" y="-2" class="st0" width="699.7" height="480"/>
<path class="st0" d="M483,452.5H241.3c-43.5,0-79.2-35.6-79.2-79.2V140.1c0-43.5,35.6-79.2,79.2-79.2H483
	c43.5,0,79.2,35.6,79.2,79.2v233.2C562.2,416.9,526.6,452.5,483,452.5z"/>
<g id="UxPZt7.tif">
	<g>
		<path class="st64" d="M410.3,281.3c-5.4,4-10.3,7.8-15.4,11.2c-6.4,4.2-10.5,9.6-11.3,17.4c-0.2,2.1-1,4.1-1.5,6.2
			c-1.8,7.6-1.8,7.6-10.3,6.9c-0.1-1.6-0.1-3.3-0.2-5.4c-1.9-0.6-3.8-1.2-5.9-1.8c-0.2-2-0.3-3.9-0.5-6.2c-1.8-0.4-3.6-0.9-5.8-1.4
			c-0.1-1.8-0.2-3.7-0.3-5.9c-1.9-0.5-3.8-1.1-6.1-1.7c0-2,0-3.9,0-5.9c-2.1-0.4-3.9-0.8-6-1.2c0-2,0-3.9,0-6
			c-2.1-0.5-3.9-0.9-6-1.4c0-2.1,0-4,0-6c-1.9-0.5-3.6-0.9-5.6-1.5c-0.2-1.9-0.4-3.9-0.6-6.1c-1.8-0.4-3.5-0.7-5.5-1.2
			c-0.1-1.8-0.2-3.7-0.4-6c-1.8-0.5-3.8-1-5.9-1.5c0-1.9,0-3.6,0-5.7c-2-0.6-4-1.3-6.1-2c-0.1-1.9-0.2-3.8-0.3-5.9
			c-1.8-0.4-3.5-0.8-5.5-1.3c-0.1-1.7-0.3-3.6-0.5-5.9c-1.6-0.4-3.4-0.9-5.6-1.5c-0.1-1.8-0.3-3.6-0.5-5.9c-1.7-0.5-3.5-1-5.6-1.5
			c0-1.8,0-3.7,0-5.9c-2-0.5-3.8-0.9-6-1.4c0-1.7,0-3.6,0-5.8c-2.1-0.6-4-1.1-6.3-1.8c-0.1-1.9-0.2-3.8-0.3-5.8
			c-1.9-0.5-3.5-0.9-5.6-1.5c-0.2-1.7-0.4-3.6-0.7-5.8c-1.6-0.5-3.4-1-5.5-1.7c-0.2-1.9-0.5-4-0.8-6.2c-1.9-0.5-3.8-1-4.1-1.1
			c-2.3-3.6-3.8-6-6.1-9.5c4.5-4.5,9.8-10.3,15.8-15.3c1.2-1.1,5.7,0,7.5,1.5c24.1,20.5,47.9,41.3,71.8,62.1
			c15.5,13.5,31.1,26.9,46.6,40.4C406.9,278,408.5,279.6,410.3,281.3z"/>
		<path class="st62" d="M384.1,327.4c1.8-8.3,3.1-15.6,5.2-22.6c0.7-2.4,2.9-4.6,5-6.2c4.5-3.7,9.4-6.8,14-10.4
			c3.7-2.9,7.1-2.7,10.5,0.1c9,7.4,18,14.7,26.9,22.2c3.8,3.3,3.3,6.3-1.2,8.5c-1.5,0.8-3.5,1.3-4.5,2.5
			c-8,10.7-16.1,21.3-23.6,32.4c-3.4,5-5.4,6-9.6,1.4c-6.4-7-12.9-14-19.1-21.2C386,332,385.1,329.2,384.1,327.4z M406.1,342
			c0.6-0.6,1.2-1.2,1.7-1.7c0.3-0.2,0.8-0.2,1-0.5c6.8-8.9,13.6-17.7,20.2-26.8c0.7-1,0.3-3.7-0.6-4.9c-1.3-1.9-3.4-3.1-5.2-4.6
			c-2.6-2.3-4.9-1.8-6.9,0.9c-5.6,7.4-11.4,14.7-16.8,22.3c-1,1.4-1.4,4.3-0.6,5.7C400.9,335.8,403.7,338.8,406.1,342z"/>
	</g>
</g>
</svg>
