<svg id="Calque_1" data-name="Calque 1" xmlns="http://www.w3.org/2000/svg" viewBox="0 0 190 190"><g id="abSmBV.tif"><g id="Groupe_377" data-name="Groupe 377"><path id="Tracé_5278" data-name="Tracé 5278" d="M22.65,97.52c.48-3.55.54-3.62,4.09-3.62h4.91c3.69,0,3.69,0,4.3,3.75h64.48c7.51,0,7.71.21,7.71,7.65v7a61.07,61.07,0,0,0,10-.13,8.86,8.86,0,0,0,7-8.94c0-2.46.14-5,0-7.44-.14-2.18,1.29-1.91,2.59-1.84s2.8-.41,2.66,1.77c-.2,3.21.07,6.55-.4,9.69a14.42,14.42,0,0,1-14.4,12.28c-2.39.07-4.78,0-7.44,0v36c0,3.82-1.23,5-5,5H22.37c-3.82,0-5-1.22-5-5V103.25C17.25,98.81,18.07,98,22.65,97.52ZM91.08,112.6a8.12,8.12,0,0,0-9.48-5.8,8.64,8.64,0,0,0-6.82,9.62,8.4,8.4,0,0,0,8,7.3c4.37.13,7.78-2.26,8.19-5.87-2.19,0-4.37-.07-6.48,0-1.91.07-3.48-.48-3.76-2.59-.2-1.5,1.44-2.6,3.69-2.66s4.36,0,6.68,0Zm-58.34,7.3A4.75,4.75,0,1,0,28.17,115h0a4.73,4.73,0,0,0,4.53,4.91Zm23.54-4.64a4.62,4.62,0,0,0-4.46-4.78h-.11a4.67,4.67,0,0,0-4.84,4.5,1.31,1.31,0,0,0,0,.28A4.77,4.77,0,0,0,51.64,120a4.72,4.72,0,0,0,4.65-4.71Z"/><path id="Tracé_5279" data-name="Tracé 5279" d="M91.09,112.6H84.4c-2.26,0-3.89,1.09-3.69,2.66.28,2.11,1.85,2.66,3.76,2.59,2.18-.07,4.3,0,6.48,0-.41,3.62-3.82,6-8.19,5.87a8.35,8.35,0,0,1-8-7.3,8.74,8.74,0,0,1,6.82-9.62A8,8,0,0,1,91.09,112.6Z"/><path id="Tracé_5280" data-name="Tracé 5280" d="M32.74,119.9a4.69,4.69,0,1,1,4.92-4.44,4.6,4.6,0,0,1-4.72,4.45Z"/><path id="Tracé_5281" data-name="Tracé 5281" d="M56.29,115.25a4.58,4.58,0,0,1-4.51,4.64h-.2a4.75,4.75,0,1,1,4.71-4.8v.16Z"/></g></g><g id="P0Xz2e.tif"><g id="Groupe_378" data-name="Groupe 378"><path id="Tracé_5282" data-name="Tracé 5282" d="M123,59.17V95.94h10.57V59.17c-.62-.07-1.16-.07-1.77-.14a2.17,2.17,0,0,1-.14-.75c0-3.41-.07-6.83,0-10.24a9.87,9.87,0,0,1,7-9.28,3.82,3.82,0,0,1,1.5.21c.41.06.82.34,1.23.27,3.27-.27,6.61-.61,9.89-.89a1.66,1.66,0,0,0,1.79-1.52,1.7,1.7,0,0,0,0-.39V32.9a1.61,1.61,0,0,0-1.36-1.83l-.21,0c-3.41-.27-6.75-.61-10.16-.88-.49,0-1.23.2-1.37.54-.34,1.1-1.23,1.1-2.05,1.29a17.41,17.41,0,0,0-13.1,16.79V59A15.67,15.67,0,0,1,123,59.17Zm38-29.28a5,5,0,1,0-3.19,9.39,5,5,0,0,0,2.58.17,43.35,43.35,0,0,0,10.51-4.78c0-.14.06-.34.06-.48-3.27-1.36-6.55-3.07-10-4.29Zm-39.44,31c0-.95-.27-1.7-1.29-1.77s-1.36.75-1.36,1.71v7.3c0,1,.34,1.7,1.36,1.63s1.29-.75,1.29-1.63V64.42h0A30,30,0,0,1,121.58,60.87Z"/><path id="Tracé_5283" data-name="Tracé 5283" d="M124.86,57.53V48.87A17.34,17.34,0,0,1,138,32.08c.82-.2,1.71-.2,2-1.29a1.9,1.9,0,0,1,1.36-.54c3.41.27,6.76.61,10.17.88a1.53,1.53,0,0,1,1.6,1.44,1.35,1.35,0,0,1,0,.4v3.55a1.66,1.66,0,0,1-1.38,1.89,1.7,1.7,0,0,1-.39,0c-3.28.27-6.62.61-9.9.89a7.54,7.54,0,0,1-1.23-.28c-.48-.06-1.09-.34-1.5-.2a9.88,9.88,0,0,0-7,9.28c-.06,3.41,0,6.82,0,10.23a3.11,3.11,0,0,0,.14.75c.62.07,1.16.07,1.77.14V96H123V59.24c.68-.07,1.23-.07,1.91-.14A11.71,11.71,0,0,1,124.86,57.53Zm4,1.5a2.64,2.64,0,0,0,.13-.68V48.52A12.61,12.61,0,0,1,138.85,36c.82-.2,1-.54.68-1.5a31.1,31.1,0,0,0-3.41,1.16,13.88,13.88,0,0,0-8.4,12.08c-.27,3.76-.06,7.51-.06,11.4a7.45,7.45,0,0,1,1.16-.07Zm13.64-22.51c2.46-.2,4.92-.41,7.37-.68.21,0,.55-.82.55-1.23s-.41-.88-.75-.88c-2.32-.27-4.71-.41-7.17-.62Z"/><path id="Tracé_5284" data-name="Tracé 5284" d="M171,34.74c-3.41,1.77-6.68,3.89-10.5,4.77a5,5,0,1,1,.61-9.55c3.41,1.23,6.69,2.87,10,4.37A1.11,1.11,0,0,0,171,34.74Zm-10.63-2.26a2.2,2.2,0,0,0-2.8.89,2.15,2.15,0,0,0,0,2.59,2.2,2.2,0,0,0,2.73.89c1.71-.62,3.34-1.29,5.05-2a.83.83,0,0,0-.07-.41c-1.65-.67-3.28-1.36-4.91-2Z"/><path id="Tracé_5285" data-name="Tracé 5285" d="M121.52,64.56V60.87c0-.95-.28-1.7-1.29-1.77s-1.37.75-1.37,1.71v7.3c0,1,.34,1.7,1.37,1.63s1.29-.75,1.29-1.63V64.56Z"/><path id="Tracé_5286" data-name="Tracé 5286" d="M142.46,33.1v3.42c2.46-.21,4.92-.41,7.37-.69.21,0,.55-.81.55-1.22s-.41-.89-.75-.89C147.31,33.45,144.92,33.31,142.46,33.1Z"/><path id="Tracé_5287" data-name="Tracé 5287" d="M165.25,34.4c-1.63-.68-3.27-1.36-5-2a2.21,2.21,0,0,0-2.8.89,2.15,2.15,0,0,0,0,2.59,2.21,2.21,0,0,0,2.73.89c1.71-.62,3.35-1.29,5.05-2A.43.43,0,0,0,165.25,34.4Z"/></g></g></svg>