<svg id="Calque_1" data-name="Calque 1" xmlns="http://www.w3.org/2000/svg" viewBox="0 0 308.33 190.41"><defs><style>.cls-1{fill:#e8e8e8;}.cls-2{fill:#afafb1;}.cls-3{fill:#4a6797;}</style></defs><g id="Groupe_353" data-name="Groupe 353"><path id="Tracé_85" data-name="Tracé 85" class="cls-1" d="M31.38,107a19.14,19.14,0,0,1-.49-2.92c.14-4.61.54-9.21.86-13.81.38-5.48.8-11,1.19-16.44q.64-8.82,1.27-17.66c.19-2.68.46-5.36.59-8,0-.72-.3-1.71.78-2.09a1.24,1.24,0,0,0,1.28.71c.41,0,.82,0,1.23,0H275.63c2.77,0,2.69,0,2.31-2.83a36.53,36.53,0,0,1-.08-4.56c.89.15.8.92.84,1.51.37,5.64.69,11.29,1.12,16.94s.82,11,1.24,16.57.82,11.06,1.17,16.59c.23,3.55.67,7.08.68,10.65a45.46,45.46,0,0,1-1.59,9.19"/><rect id="Rectangle_2940" data-name="Rectangle 2940" class="cls-2" x="27.04" y="104.34" width="262.96" height="11.82"/><path id="Tracé_86" data-name="Tracé 86" class="cls-2" d="M35.58,46c-.34,4.27-.7,8.54-1,12.8-.46,6-.95,12-1.35,18q-.31,5-.72,9.93c-.46,5.87-.75,11.75-1.12,17.62-.93-.12-.76-.93-.83-1.49-.3-2.36-1-4.67-1.14-7a7.72,7.72,0,0,0-2.87-5.37,4.36,4.36,0,0,1-.18-1.9q1.17-14.31,2.09-28.63c.22-3.37.53-6.75.72-10.12A7.37,7.37,0,0,1,30,46.4c.49-6.61,1-13.22,1.44-19.83.06-.87.28-1.32,1.22-1.21,1.21.13,2.43.23,3.64.35.89.09.75.77.71,1.32-.25,3.6-.53,7.2-.8,10.79-.08,1.1-.15,2.21-.22,3.31-.48,1.61.16,3.31-.36,4.92Z"/><path id="Tracé_87" data-name="Tracé 87" class="cls-2" d="M282.42,101.88q-.87-11.76-1.73-23.52c-.28-4-.46-8-.76-12-.42-5.69-.92-11.38-1.34-17.07-.19-2.67-.26-5.36-.41-8,0-.63.19-1.3-.32-1.85-.26-4.13-.49-8.26-.8-12.37-.07-.9.08-1.23,1-1.33,4.55-.48,4.45-.51,4.68,4.18.26,5.18.72,10.34,1.09,15.51,1.44,4.46,1.08,9.12,1.51,13.68.54,5.82.93,11.65,1.28,17.48a107.13,107.13,0,0,1,.72,13.63,1.83,1.83,0,0,1-.25.55c-2.37,1.13-2.93,3.31-3.13,5.63-.14,1.57-.63,3.06-.81,4.62-.05.42-.08,1-.76,1"/><path id="Tracé_88" data-name="Tracé 88" class="cls-3" d="M284.79,80.84a4.73,4.73,0,0,1,4.45,4.28q1.89,10.66,3.82,21.33a11.2,11.2,0,0,0,.39,1.37A86.38,86.38,0,0,1,294,122c0,1,0,2-1.07,2.48-3.46,1.5-3.62,4.65-3.74,7.69-.16,3.76-.52,4.2-4.42,4.14a4.12,4.12,0,0,1-.78-3.22q0-24.42,0-48.84a4,4,0,0,1,.8-3.2Z"/><path id="Tracé_89" data-name="Tracé 89" class="cls-3" d="M22.87,104.69c1.45-6.09,2.38-12.28,3.42-18.45a29.52,29.52,0,0,1,1.06-5.42,3.91,3.91,0,0,1,3.72-2.9,3.66,3.66,0,0,1,1.24,3.27q.06,24.28,0,48.59c0,3.17-.81,3.58-4.21,2.57-1.4-.39-.93-1.59-.88-2.43a16.52,16.52,0,0,0-.95-5.7,2.79,2.79,0,0,0-1.54-2.07c-2.31-.82-2.49-2.56-2.43-4.65a85.67,85.67,0,0,1,.58-12.81"/><path id="Tracé_90" data-name="Tracé 90" class="cls-3" d="M28.09,132.34c3.46,0,3.46,0,3.46-3.56q0-23.65,0-47.3a11,11,0,0,0-.5-3.56l.93-.15c4,1.33,3.8,5,4.4,8.14.69,3.62,1.3,7.26,1.94,10.89.18,1.29.35,2.58.53,3.87.45,1.77.45,3.62,1,5.37v0c.43,1,1.07,1.82,1.43,2.83A74.33,74.33,0,0,1,41.46,119c0,1.8-1.28,2.67-2.66,3.43-.86.28-1.24,1.15-1.95,1.62a10.41,10.41,0,0,0-1.32,5.51c.06,3-.61,3.66-3.65,3.7-1.31,0-2.79.46-3.79-.89"/><path id="Tracé_91" data-name="Tracé 91" class="cls-3" d="M284.79,81.07l0,55.26a5.72,5.72,0,0,1-3.79-.94.79.79,0,0,1-.33-.83,11.56,11.56,0,0,0-1.56-7.4,2.75,2.75,0,0,0-1.53-1.62,4.51,4.51,0,0,1-2.77-4.87,80.19,80.19,0,0,1,.28-9.17c.33-.86,1.06-1.5,1.4-2.36.38-4.25,1.81-8.33,2-12.61,1.26-3.82,1.22-7.9,2.3-11.75.59-2.08,1.58-3.68,4-3.71"/><path id="Tracé_92" data-name="Tracé 92" class="cls-3" d="M279.49,130.1l0-3.39c2,2.63,1.19,5.76,1.52,8.69-1.15-.86-.39-2.08-.61-3.12-.16-.78.45-1.86-.88-2.17"/><path id="Tracé_93" data-name="Tracé 93" class="cls-1" d="M35.58,46.05a16,16,0,0,1,.35-4.92c-.14,1.63.4,3.32-.35,4.92"/><path id="Tracé_95" data-name="Tracé 95" class="cls-3" d="M223.67,133.53c-.16-3.06-.23-6.14-3.69-7.63-.92-.39-1.07-1.3-1.07-2.24,0-2.25,0-4.5-.08-6.75C219,108.78,221.4,101,222.49,93c.32-2.32.71-4.64,1.23-6.92a4,4,0,0,1,3.94-3.56,3.6,3.6,0,0,1,1.24,3.27c0,16.13.06,32.25,0,48.38a5.65,5.65,0,0,1-.95,3.7,2.8,2.8,0,0,1-3.86-.43,2.88,2.88,0,0,1-.4-3.89"/><path id="Tracé_98" data-name="Tracé 98" class="cls-3" d="M155.45,132.32c-.45-2.93-.45-6-3.84-7.49-.92-.39-1.09-1.29-1.09-2.25,0-2.1-.05-4.2-.08-6.3.14-8.2,2.63-16,3.71-24.1A69.27,69.27,0,0,1,155.41,85a4.08,4.08,0,0,1,3.88-3.64c1.25.63,1.23,1.83,1.23,2.95q.07,24.6,0,49.2c0,2.73-.39,3-2.85,2.89-2.68-.33-2.29-2.32-2.22-4.13"/><path id="Tracé_99" data-name="Tracé 99" class="cls-3" d="M91.31,134.14c-.06-3.18-.28-6.28-3.68-7.92a2.34,2.34,0,0,1-1.19-2.42c0-1.92,0-3.84-.08-5.76.44-10.22,3.48-20,4.73-30.15a6.33,6.33,0,0,1,.32-1.66c.8-1.91,1.78-3.66,4.27-3.55a3.76,3.76,0,0,1,.78,3q0,24.38,0,48.76c0,3.41-.29,3.59-4.11,3.29-1.93-.72-2-2-1-3.54"/><path id="Tracé_100" data-name="Tracé 100" class="cls-3" d="M92.19,137.12c3.5-.07,3.5-.07,3.5-3.8V82.68A4.58,4.58,0,0,1,100,87c1.37,7.45,2.68,14.9,4,22.35,1.41,4.63.79,9.4.95,14.11a2.82,2.82,0,0,1-1.84,3.05,3.65,3.65,0,0,0-2.51,3.75c0,.13,0,.26,0,.39a5.49,5.49,0,0,0-.32,2.57,4.33,4.33,0,0,1-3.2,5.21l-.1,0c-1.73,0-3.76,1.17-4.75-1.36"/><path id="Tracé_102" data-name="Tracé 102" class="cls-3" d="M157.33,135.79c2,.59,2.5,0,2.49-2.15-.1-16.47-.06-32.95-.06-49.42a4.59,4.59,0,0,0-.47-2.82A4.49,4.49,0,0,1,164,85.57c1.1,5.92,2.08,11.86,3.12,17.78.3,1.74.67,3.47,1,5.2L168,109c.62.71.37,1.74.94,2.46l0,10.65c0,.89.09,1.78-.92,2.28-3.87,2-4.69,5.41-4.43,9.35,0,.48,0,1,.06,1.45-1,2.07-1.83,2.4-5.15,2-.62-.28-1.33-.49-1.24-1.41"/><path id="Tracé_103" data-name="Tracé 103" class="cls-3" d="M227.66,137.78a24.41,24.41,0,0,0,.5-5q0-23.34,0-46.67a11,11,0,0,0-.5-3.56,4.13,4.13,0,0,1,4.49,3.73v0c1.17,6.11,2.2,12.25,3.3,18.37.3,1.67.67,3.32,1,5l-.05.52c.64.51.34,1.46.91,2,0,3.52-.07,7,.1,10.57a3.24,3.24,0,0,1-2.16,3.52,3.32,3.32,0,0,0-2.28,3.32,27.55,27.55,0,0,1-.47,6.41c-.34,2.22-2.61,2.94-4.86,1.81"/><path id="Tracé_110" data-name="Tracé 110" class="cls-3" d="M36.94,117.7a8.35,8.35,0,0,1-1-5.36,10.65,10.65,0,0,1,1,5.36"/><path id="Tracé_111" data-name="Tracé 111" class="cls-3" d="M37.84,118.27v1.89c-1-.55-1-1.5-.89-2.48l.91.59"/><path id="Tracé_112" data-name="Tracé 112" class="cls-3" d="M275.6,111.16c0-.47,0-1,0-1.43l.91-.59c0,.8.32,1.74-.87,2"/><path id="Tracé_113" data-name="Tracé 113" class="cls-3" d="M160.21,111.5c-1-.55-1-1.51-.93-2.46,1.15.5,1,1.49.93,2.46"/><path id="Tracé_114" data-name="Tracé 114" class="cls-3" d="M149.57,136.69c-2.8-.15-3-.39-3-3.77l.16-.61c1,1-.5,3.27,1.88,3.48l1,.89"/><path id="Tracé_116" data-name="Tracé 116" class="cls-3" d="M237.32,112.15c-1.18-.27-.89-1.21-.9-2,1.32.2.9,1.2.9,2"/><path id="Tracé_118" data-name="Tracé 118" class="cls-3" d="M13.1,131.26a12.52,12.52,0,0,0-.51,4.71c.17,2.14-.79,3.14-2.94,3,2.42-.87,2.69-2.75,2.48-5-.09-1-.34-2.17,1-2.71"/><path id="Tracé_121" data-name="Tracé 121" class="cls-3" d="M40.38,141.56C38.92,147.65,38,153.83,37,160a29.35,29.35,0,0,1-1.06,5.42,3.9,3.9,0,0,1-3.71,2.9,3.62,3.62,0,0,1-1.25-3.26q-.06-24.3,0-48.59c0-3.17.81-3.59,4.21-2.58,1.4.4.93,1.59.88,2.43A16.28,16.28,0,0,0,37,122a2.77,2.77,0,0,0,1.54,2.07c2.31.81,2.5,2.55,2.44,4.64a87,87,0,0,1-.59,12.81"/><path id="Tracé_122" data-name="Tracé 122" class="cls-3" d="M35.17,113.9c-3.47,0-3.47,0-3.47,3.56q0,23.65,0,47.3a11,11,0,0,0,.5,3.56l-.94.15c-4-1.33-3.8-5-4.4-8.14-.68-3.63-1.3-7.26-1.94-10.89-.18-1.29-.35-2.58-.53-3.87-.44-1.76-.44-3.61-1-5.36v0c-.44-1-1.08-1.83-1.43-2.83a72.75,72.75,0,0,1-.17-10.12c0-1.8,1.28-2.68,2.66-3.43.86-.28,1.24-1.15,1.95-1.62a10.44,10.44,0,0,0,1.31-5.52c-.06-3,.61-3.66,3.66-3.71,1.3,0,2.78-.45,3.78.89"/><path id="Tracé_139" data-name="Tracé 139" class="cls-3" d="M87.73,110.23c1.45-6.09,2.38-12.28,3.42-18.45a29.35,29.35,0,0,1,1.06-5.42,3.91,3.91,0,0,1,3.71-2.9,3.64,3.64,0,0,1,1.25,3.27q.06,24.28,0,48.58c0,3.18-.81,3.59-4.21,2.58-1.4-.4-.93-1.59-.88-2.43a16.28,16.28,0,0,0-.94-5.7,2.79,2.79,0,0,0-1.54-2.07c-2.31-.81-2.5-2.55-2.44-4.64a87,87,0,0,1,.59-12.81"/><path id="Tracé_140" data-name="Tracé 140" class="cls-3" d="M92.94,137.88c3.47,0,3.47,0,3.47-3.56q0-23.65,0-47.3a11.27,11.27,0,0,0-.5-3.56l.93-.16c4,1.34,3.8,5,4.4,8.15.69,3.62,1.3,7.26,1.94,10.89.18,1.29.35,2.58.53,3.87.44,1.77.44,3.62,1,5.36v0c.43,1,1.07,1.83,1.43,2.84a74.28,74.28,0,0,1,.17,10.12c0,1.79-1.28,2.67-2.66,3.42-.86.28-1.24,1.15-2,1.62a10.47,10.47,0,0,0-1.31,5.53c.06,3-.61,3.66-3.65,3.71-1.31,0-2.79.45-3.79-.89"/><path id="Tracé_141" data-name="Tracé 141" class="cls-3" d="M105.24,147.09c-1.45,6.09-2.38,12.28-3.42,18.45a29.35,29.35,0,0,1-1.06,5.42,3.91,3.91,0,0,1-3.71,2.9,3.64,3.64,0,0,1-1.25-3.27q-.06-24.28,0-48.58c0-3.18.82-3.59,4.22-2.58,1.4.4.93,1.59.88,2.43a16.28,16.28,0,0,0,.94,5.7,2.79,2.79,0,0,0,1.54,2.07c2.31.81,2.5,2.55,2.44,4.64a87,87,0,0,1-.59,12.81"/><path id="Tracé_142" data-name="Tracé 142" class="cls-3" d="M100,119.44c-3.46,0-3.46,0-3.46,3.56q0,23.66,0,47.3a11,11,0,0,0,.5,3.56l-.93.15c-4-1.33-3.8-5-4.4-8.14-.69-3.63-1.3-7.26-1.94-10.89-.18-1.29-.35-2.58-.53-3.88-.45-1.76-.45-3.61-1-5.36v0c-.43-1-1.07-1.82-1.43-2.83a74.33,74.33,0,0,1-.17-10.12c0-1.8,1.28-2.67,2.66-3.43.86-.28,1.24-1.15,2-1.62a10.47,10.47,0,0,0,1.31-5.53c-.06-3,.61-3.66,3.65-3.7,1.31,0,2.79-.46,3.79.89"/><path id="Tracé_143" data-name="Tracé 143" class="cls-3" d="M151.8,109.47c1.45-6.09,2.38-12.28,3.42-18.45a30.38,30.38,0,0,1,1.06-5.42A3.89,3.89,0,0,1,160,82.71,3.61,3.61,0,0,1,161.25,86q.06,24.28,0,48.58c0,3.17-.81,3.58-4.21,2.57-1.4-.4-.93-1.59-.88-2.43a16.75,16.75,0,0,0-.94-5.7,2.8,2.8,0,0,0-1.55-2.07c-2.31-.81-2.49-2.55-2.43-4.64a87,87,0,0,1,.58-12.81"/><path id="Tracé_144" data-name="Tracé 144" class="cls-3" d="M157,137.12c3.47,0,3.47,0,3.47-3.56q0-23.64,0-47.29a11.09,11.09,0,0,0-.5-3.57l.93-.15c4,1.34,3.8,5,4.4,8.14.69,3.63,1.3,7.26,1.94,10.89.18,1.29.35,2.58.53,3.88.45,1.76.45,3.61,1,5.36v0c.43,1,1.07,1.83,1.43,2.83a74.33,74.33,0,0,1,.16,10.12c0,1.8-1.28,2.68-2.65,3.43-.87.28-1.24,1.15-1.95,1.62a10.48,10.48,0,0,0-1.32,5.53c.07,3-.6,3.66-3.65,3.7-1.3,0-2.78.46-3.78-.89"/><path id="Tracé_145" data-name="Tracé 145" class="cls-3" d="M169.32,146.34c-1.45,6.09-2.38,12.28-3.42,18.44a30.31,30.31,0,0,1-1.06,5.43,3.89,3.89,0,0,1-3.72,2.89,3.61,3.61,0,0,1-1.25-3.26q-.06-24.3,0-48.59c0-3.17.81-3.58,4.21-2.58,1.4.4.93,1.59.88,2.43a16.54,16.54,0,0,0,1,5.71,2.75,2.75,0,0,0,1.54,2.06c2.31.81,2.49,2.55,2.43,4.65a87,87,0,0,1-.58,12.81"/><path id="Tracé_146" data-name="Tracé 146" class="cls-3" d="M164.1,118.69c-3.47,0-3.47,0-3.47,3.56q0,23.64,0,47.29a11.09,11.09,0,0,0,.5,3.57l-.94.15c-4-1.34-3.8-5-4.4-8.15-.68-3.62-1.29-7.25-1.94-10.88-.17-1.29-.35-2.58-.53-3.88-.44-1.76-.44-3.61-1-5.36v0c-.44-1-1.08-1.83-1.43-2.83a72.75,72.75,0,0,1-.17-10.12c0-1.8,1.28-2.68,2.66-3.43.86-.28,1.24-1.15,2-1.62a10.56,10.56,0,0,0,1.31-5.53c-.07-3,.61-3.66,3.65-3.7,1.31,0,2.78-.46,3.78.89"/><path id="Tracé_147" data-name="Tracé 147" class="cls-3" d="M218.38,107.58c1.45-6.09,2.38-12.28,3.42-18.44a29.46,29.46,0,0,1,1.06-5.43,3.89,3.89,0,0,1,3.71-2.89,3.61,3.61,0,0,1,1.25,3.26q.06,24.3,0,48.59c0,3.17-.81,3.58-4.22,2.58-1.4-.4-.93-1.59-.88-2.43a16.33,16.33,0,0,0-.94-5.71,2.75,2.75,0,0,0-1.54-2.06c-2.31-.81-2.5-2.55-2.44-4.65a87.09,87.09,0,0,1,.59-12.81"/><path id="Tracé_148" data-name="Tracé 148" class="cls-3" d="M223.59,135.24c3.47-.05,3.47-.05,3.47-3.57q0-23.64,0-47.29a11.28,11.28,0,0,0-.51-3.56l.94-.16c4,1.34,3.8,5,4.4,8.15.68,3.62,1.3,7.26,1.94,10.88.18,1.3.35,2.59.53,3.88.44,1.77.44,3.61,1,5.36v0c.43,1,1.07,1.83,1.43,2.83a76.1,76.1,0,0,1,.17,10.13c0,1.79-1.28,2.67-2.66,3.42-.86.28-1.24,1.15-1.95,1.62a10.38,10.38,0,0,0-1.31,5.53c.06,3-.61,3.66-3.66,3.7-1.3,0-2.78.46-3.78-.89"/><path id="Tracé_149" data-name="Tracé 149" class="cls-3" d="M235.9,144.45c-1.45,6.09-2.38,12.28-3.42,18.44a30.31,30.31,0,0,1-1.06,5.43,3.89,3.89,0,0,1-3.72,2.89,3.61,3.61,0,0,1-1.25-3.26q-.06-24.3,0-48.59c0-3.17.81-3.58,4.21-2.58,1.4.4.93,1.59.88,2.43a16.54,16.54,0,0,0,.95,5.71,2.75,2.75,0,0,0,1.54,2.06c2.31.81,2.49,2.55,2.43,4.65a87,87,0,0,1-.58,12.81"/><path id="Tracé_150" data-name="Tracé 150" class="cls-3" d="M230.68,116.8c-3.47,0-3.47,0-3.47,3.56q0,23.65,0,47.29a11.37,11.37,0,0,0,.5,3.57l-.93.15c-4-1.34-3.8-5-4.4-8.14-.69-3.63-1.3-7.26-1.94-10.89-.18-1.29-.35-2.58-.53-3.88-.44-1.76-.44-3.61-1-5.36v0c-.43-1-1.07-1.82-1.43-2.83a76,76,0,0,1-.17-10.12c0-1.8,1.28-2.67,2.66-3.43.86-.28,1.24-1.15,1.95-1.62a10.47,10.47,0,0,0,1.31-5.53c-.06-3,.61-3.66,3.66-3.7,1.3,0,2.78-.46,3.78.89"/><path id="Tracé_151" data-name="Tracé 151" class="cls-3" d="M276.66,107.08C278.1,101,279,94.8,280.07,88.63a30.38,30.38,0,0,1,1.06-5.42,3.89,3.89,0,0,1,3.72-2.89,3.61,3.61,0,0,1,1.25,3.26q.06,24.3,0,48.59c0,3.17-.81,3.58-4.21,2.57-1.4-.39-.93-1.59-.88-2.43a16.17,16.17,0,0,0-.95-5.72,2.79,2.79,0,0,0-1.54-2.07c-2.31-.81-2.49-2.55-2.43-4.64a87,87,0,0,1,.58-12.81"/><path id="Tracé_152" data-name="Tracé 152" class="cls-3" d="M281.87,134.73c3.47,0,3.47,0,3.47-3.56q0-23.65,0-47.3a11,11,0,0,0-.5-3.56l.94-.15c4,1.33,3.8,5,4.4,8.14.68,3.62,1.29,7.26,1.94,10.89.17,1.29.35,2.58.53,3.88.44,1.76.44,3.61,1,5.35h0c.44,1,1.08,1.82,1.43,2.83a72.58,72.58,0,0,1,.17,10.11c0,1.8-1.28,2.67-2.65,3.42-.87.29-1.24,1.16-1.95,1.63a10.46,10.46,0,0,0-1.32,5.53c.07,3-.6,3.66-3.65,3.7-1.3,0-2.78.46-3.78-.89"/><path id="Tracé_153" data-name="Tracé 153" class="cls-3" d="M294.17,144c-1.45,6.09-2.38,12.27-3.42,18.44a30.48,30.48,0,0,1-1.06,5.43,3.9,3.9,0,0,1-3.72,2.89,3.61,3.61,0,0,1-1.25-3.26q-.06-24.3,0-48.59c0-3.17.81-3.58,4.21-2.58,1.4.4.93,1.59.88,2.43a16.62,16.62,0,0,0,.95,5.71,2.75,2.75,0,0,0,1.54,2.06c2.31.81,2.49,2.55,2.44,4.64a87,87,0,0,1-.59,12.81"/><path id="Tracé_154" data-name="Tracé 154" class="cls-3" d="M289,116.3c-3.46,0-3.46,0-3.46,3.56q0,23.64,0,47.29a11,11,0,0,0,.5,3.56l-.93.16c-4-1.34-3.8-5-4.4-8.15-.69-3.62-1.3-7.25-1.94-10.88-.18-1.29-.36-2.58-.53-3.88-.45-1.77-.45-3.61-1-5.36v0c-.43-1-1.07-1.82-1.43-2.83a74.33,74.33,0,0,1-.17-10.12c0-1.8,1.28-2.67,2.66-3.43.86-.28,1.24-1.15,1.95-1.62a10.47,10.47,0,0,0,1.31-5.53c-.06-3,.61-3.66,3.65-3.7,1.31,0,2.79-.46,3.79.89"/></g></svg>