<svg data-name="Groupe 1793" height="28.846" id="Groupe_1793" viewBox="0 0 22.673 28.846" width="22.673"
     xmlns="http://www.w3.org/2000/svg">
    <g data-name="Groupe 1069" id="Groupe_1069" transform="translate(0)">
        <path d="M48.308,10.2,46.114,7.936l.442-3.123a.894.894,0,0,0-.731-1.006l-3.107-.545L41.239.476A.894.894,0,0,0,40.057.091L37.223,1.476,34.389.091a.894.894,0,0,0-1.183.384L31.728,3.263l-3.107.545a.894.894,0,0,0-.731,1.006l.442,3.123L26.138,10.2a.894.894,0,0,0,0,1.244l2.193,2.267-.442,3.125a.894.894,0,0,0,.731,1.006l2.487.436v9.671a.894.894,0,0,0,1.294.8l4.822-2.41,4.821,2.41a.894.894,0,0,0,1.294-.8V18.281l2.487-.436a.894.894,0,0,0,.731-1.006l-.442-3.125,2.193-2.267A.894.894,0,0,0,48.308,10.2ZM37.623,24.542a.894.894,0,0,0-.8,0L32.9,26.505V20.591l.31.585a.894.894,0,0,0,1.183.384l2.834-1.386,2.833,1.386a.894.894,0,0,0,1.183-.384l.31-.585v5.914Z" data-name="Tracé 11017"
              fill="#f87280"
              id="Tracé_11017" transform="translate(-25.886 0)"/>
        <path d="M75.792,39.507a6.115,6.115,0,1,0,6.115,6.115A6.122,6.122,0,0,0,75.792,39.507Zm0,10.442a4.327,4.327,0,1,1,4.326-4.328A4.332,4.332,0,0,1,75.792,49.949Z" data-name="Tracé 11018"
              fill="#fff"
              id="Tracé_11018" transform="translate(-64.455 -34.797)"/>
        <path d="M98.045,69.831,95.4,72.472l-1.005-1a.894.894,0,1,0-1.264,1.265l1.637,1.636a.894.894,0,0,0,1.264,0L99.309,71.1a.894.894,0,0,0-1.264-1.265Z" data-name="Tracé 11019"
              fill="#fff"
              id="Tracé_11019" transform="translate(-84.885 -61.274)"/>
    </g>
</svg>
