<svg height="28.258" viewBox="0 0 26.918 28.258" width="26.918" xmlns="http://www.w3.org/2000/svg">
    <g data-name="Groupe 1808" id="Groupe_1808" transform="translate(-177.921 -1424.538)">
        <path d="M102.622,5707.457a2.866,2.866,0,0,0,.633.272,3,3,0,0,0,1.09.116h0a5.792,5.792,0,0,1-.935-.556c.028-.067,1.083.366,1.136.256s-.9-.654-.858-.723.986.419,1.038.333-.761-.6-.706-.7.882.278.9.239a20.535,20.535,0,0,0-2.242-1.211" data-name="Tracé 12531"
              fill="none"
              id="Tracé_12531" stroke="#595959" stroke-miterlimit="10" stroke-width="0.25"
              transform="translate(97.096 -4265.098)"/>
        <path d="M102.014,5708.849" data-name="Tracé 12532" fill="#636363" id="Tracé_12532"
              transform="translate(96.8 -4263.452)"/>
        <path d="M102.37,5704.6a5.469,5.469,0,0,0-.913-2.249l.24.011,1.022,2.2" data-name="Tracé 12533" fill="#595959"
              id="Tracé_12533" transform="translate(96.526 -4266.631)"/>
        <path d="M104.135,5705.485a6.466,6.466,0,0,1,.316,2.907,10.6,10.6,0,0,1-3.905,6.947l-.9-.354a9,9,0,0,0,3.71-3.911C104.57,5708.407,103.986,5705.49,104.135,5705.485Z" data-name="Tracé 12534"
              fill="#595959"
              id="Tracé_12534" transform="translate(95.64 -4265.098)"/>
        <path d="M103.254,5703.714" data-name="Tracé 12535" fill="#636363" id="Tracé_12535"
              transform="translate(97.407 -4265.964)"/>
        <path d="M104.688,5703.6" data-name="Tracé 12536" fill="#636363" id="Tracé_12536"
              transform="translate(98.108 -4266.02)"/>
        <path d="M96.287,5712.852c.509.214,1.019.431,1.543.612a8.014,8.014,0,0,0,1.157.29c.5.091,1.014.172,1.528.213,1.153.093,1.294.04,2.3.111.5.033,1.2.072,2.011.188a4.6,4.6,0,0,0,.554.047,2.19,2.19,0,0,0,1.105-.177c.182-.091.508-.257.533-.535a.644.644,0,0,0-.213-.461c-.457-.479-1.19-.348-2.026-.346a11.724,11.724,0,0,1-4.575-1.119c-.118-.06-.536-.268-.521-.314a8.331,8.331,0,0,1,1.352.384,14.487,14.487,0,0,0,2.793.627c.566.059,1.077.068,1.129.068,1.418.027,2.011-.155,2.423.255a1.032,1.032,0,0,1,.258.726,2.8,2.8,0,0,1-.554.9,3.169,3.169,0,0,1-2.94.595c-4.9-.654-6.719.309-9-1.8A.841.841,0,0,1,96.287,5712.852Z" data-name="Tracé 12537"
              fill="#595959"
              id="Tracé_12537" transform="translate(93.44 -4262.226)"/>
        <path d="M100.988,5711.615a2.161,2.161,0,0,0,.618.042c.514-.008,1.364-.082,1.5-.092a3.046,3.046,0,0,1,2.251.35,1.562,1.562,0,0,1,.55,1.123,1.3,1.3,0,0,1-.57,1.015,1.616,1.616,0,0,1-1.659.009.649.649,0,0,0,.387-.045.554.554,0,0,0,.24-.216.223.223,0,0,1,.1-.18c.1-.046.2.044.34.046a.607.607,0,0,0,.45-.3.963.963,0,0,0-.359-1.1c-.4-.315-.8-.391-2.959-.359l-.912.015c-.246-.245-.293-.337-.276-.368S100.825,5711.573,100.988,5711.615Z" data-name="Tracé 12538"
              fill="#595959"
              id="Tracé_12538" transform="translate(96.149 -4262.145)"/>
        <path d="M100.233,5698.912a17.521,17.521,0,0,0-6.007,6.432,11.317,11.317,0,0,0,.241,10.723,17.084,17.084,0,0,0,2.916,3.837" data-name="Tracé 12539"
              fill="none"
              id="Tracé_12539" stroke="#595959" stroke-miterlimit="10" stroke-width="0.5"
              transform="translate(92.384 -4268.314)"/>
        <path d="M95.963,5697.979a2.059,2.059,0,0,1,1.369-1.195,2.384,2.384,0,0,0,.7-.375l.052-.042c.01.055.021.111.031.171.015.1.024.167.025.18a2.985,2.985,0,0,0,.21.627,1.435,1.435,0,0,0-.494.021,1.519,1.519,0,0,0-.83.5,1.357,1.357,0,0,0-.349,1.244,1,1,0,0,0,1.422.568c.329-.113.494-.17.588-.107.155.1.174.383.165.6h0l0,.032a.542.542,0,0,0-.374.316.517.517,0,0,0-.179.137h-.049a.581.581,0,0,0-.268.061l-.019-.074c-.124-.005-.287-.006-.45-.018A1.879,1.879,0,0,1,95.963,5697.979Z" data-name="Tracé 12540"
              fill="#595959"
              id="Tracé_12540" transform="translate(93.76 -4269.56)"/>
        <path d="M88.012,5712.037c-.1,1.473,7.9,4.251,10.868,2.649a2.23,2.23,0,0,0,.253-3.853C96.4,5708.856,88.109,5710.563,88.012,5712.037Z" data-name="Tracé 12541"
              fill="#595959"
              id="Tracé_12541" transform="translate(89.947 -4262.918)"/>
        <path d="M97.237,5697.778a2.738,2.738,0,0,1,.789-2.015,2.692,2.692,0,0,1,1.126-.549,6.728,6.728,0,0,1,2.775-.129c2.912.3,3.619.156,4.175.381a1.563,1.563,0,0,1,.369.214,3.513,3.513,0,0,1,1.335,2.2" data-name="Tracé 12542"
              fill="none"
              id="Tracé_12542" stroke="#595959" stroke-miterlimit="10" stroke-width="0.5"
              transform="translate(94.461 -4270.229)"/>
        <g data-name="Groupe 1079" id="Groupe_1079" transform="translate(197.68 1425.368)">
            <g data-name="Groupe 743" id="Groupe_743" transform="translate(0 0)">
                <path d="M101.256,5699.784c-.043.064.319.429,2.042,1.733,0,0,.614.631.952.562a.208.208,0,0,1,.188.048,1.51,1.51,0,0,1,.24-.043c.018-.01.03-.029.048-.039a1.022,1.022,0,0,1,.427-.122c.019-.009.046-.006.074-.015a.634.634,0,0,0,.463-.539c.086-.509.183-1.015.271-1.532a.521.521,0,0,1,.077.022.768.768,0,0,1,.13-.342,2.1,2.1,0,0,0,.213-.976,4.558,4.558,0,0,0-.416-1.4,1.867,1.867,0,0,0,.165-.471,1.232,1.232,0,0,0-.4-.958,1.418,1.418,0,0,0-1.019-.313l-.027,0a.231.231,0,0,1-.092.015c-.027,0-.046.007-.073,0a.333.333,0,0,1-.1.013.457.457,0,0,1-.213.056c-.019.009-.028.009-.039.019a.517.517,0,0,1-.185.047c-.01.011-.01.021-.019.02-.356.128-.432.49-.541.828a.424.424,0,0,0,.01.189,1.891,1.891,0,0,0,.776,1.053,1.087,1.087,0,0,0,.341.162,1.163,1.163,0,0,0,.871-.179,1.516,1.516,0,0,1,.273.341c.36.627.231,1.513-.025,1.582a.238.238,0,0,1-.188-.046,4.09,4.09,0,0,0-.475-.292,1.648,1.648,0,0,0-.243.074,4.1,4.1,0,0,0-.916.634,2.692,2.692,0,0,1-.633.316,2.29,2.29,0,0,1-.3.078,2.546,2.546,0,0,1-.874-.04c0,.015.165.048.411.158a1.284,1.284,0,0,0,.214.1c0-.007-.063-.053-.08-.067C102.39,5700.323,101.322,5699.686,101.256,5699.784Zm3.226-3.59c.007.032-.061.089-.1.128-.037-.087-.085-.176-.115-.261-.007-.013.051-.06.122-.147A.843.843,0,0,1,104.482,5696.194Zm.575,3.9c.009-.031.067-.232.191-.285.034-.017.024.025.27.055.073.008.131.037.116.177-.042.368-.083.747-.144,1.111a.361.361,0,0,1-.11.173c-.2-.024-.273-.132-.281-.33C105.07,5700.323,105,5700.271,105.057,5700.093Zm-1.329.445a.531.531,0,0,1,.232-.393c.058-.029.054,0,.536-.1.139-.037.273-.028.3.106a11.08,11.08,0,0,1,.191,1.148c.018.081-.1.187-.134.229-.386.09-.567.033-.667-.153C103.851,5700.758,103.706,5700.739,103.729,5700.538Z" data-name="Tracé 12295"
                      fill="#595959"
                      id="Tracé_12295" transform="translate(-101.253 -5695.4)"/>
            </g>
        </g>
        <path d="M104.032,5699.765c.182,1.24-.2,1.827-.62,2.132a5.887,5.887,0,0,0-1.464.971,2,2,0,0,0-.423.779" data-name="Tracé 12543"
              fill="none"
              id="Tracé_12543" stroke="#595959" stroke-miterlimit="10" stroke-width="0.25"
              transform="translate(96.56 -4267.898)"/>
        <path d="M97.117,5696.367" data-name="Tracé 12544" fill="#636363" id="Tracé_12544"
              transform="translate(94.403 -4269.56)"/>
        <g data-name="Groupe 1080" id="Groupe_1080" transform="translate(195.032 1426.69)">
            <g data-name="Groupe 745" id="Groupe_745" transform="translate(0)">
                <path d="M100.15,5697.375a1.239,1.239,0,0,0,1.029-.621.126.126,0,0,0-.015-.114,1.194,1.194,0,0,0-1.4-.2,1.24,1.24,0,0,0-.287.56c-.015.053.1.166.182.2A3.221,3.221,0,0,0,100.15,5697.375Z" data-name="Tracé 12298"
                      fill="#595959"
                      id="Tracé_12298" transform="translate(-99.475 -5696.289)"/>
            </g>
        </g>
        <g data-name="Groupe 1081" id="Groupe_1081" transform="translate(195.804 1426.942)">
            <ellipse cx="0.291" cy="0.291" data-name="Ellipse 90" fill="#fff" id="Ellipse_90" rx="0.291"
                     ry="0.291" transform="translate(0)"/>
        </g>
        <path d="M102.374,5703.125" data-name="Tracé 12545" fill="#636363" id="Tracé_12545"
              transform="translate(96.975 -4266.253)"/>
        <path d="M105.379,5704.818" data-name="Tracé 12546" fill="#636363" id="Tracé_12546"
              transform="translate(98.446 -4265.424)"/>
        <path d="M102.914,5710.2" data-name="Tracé 12547" fill="#636363" id="Tracé_12547"
              transform="translate(97.24 -4262.79)"/>
        <line data-name="Ligne 721" fill="none" id="Ligne_721" transform="translate(197.8 1435.648)" x2="0.058"
              y1="0.163"/>
        <path d="M101.534,5702.335l.058-.163-.18.382" data-name="Tracé 12548" fill="none"
              id="Tracé_12548" transform="translate(96.505 -4266.719)"/>
        <path d="M102.017,5702.589" data-name="Tracé 12549" fill="#636363" id="Tracé_12549"
              transform="translate(96.801 -4266.515)"/>
        <path d="M98.814,5705.187c.27.116.667.278,1.159.444a13.731,13.731,0,0,0,5.383.669,4.244,4.244,0,0,0,2.983-1.089h0a4.5,4.5,0,0,1-1,.051c-.019-.082,1.008-.333.987-.453s-1.236,0-1.247-.083,1.163-.272,1.151-.386-1.078-.038-1.095-.164.977-.289.968-.377a26.2,26.2,0,0,0-4.437.124" data-name="Tracé 12550"
              fill="none"
              id="Tracé_12550" stroke="#595959" stroke-miterlimit="10" stroke-width="0.25"
              transform="translate(95.232 -4265.951)"/>
        <path d="M96.844,5698.718a.881.881,0,0,1,.125-1.232" data-name="Tracé 12551" fill="#595959"
              id="Tracé_12551" transform="translate(94.172 -4269.014)"/>
        <path d="M99.055,5711.706" data-name="Tracé 12552" fill="#636363" id="Tracé_12552"
              transform="translate(95.351 -4262.053)"/>
        <g data-name="Groupe 1082" id="Groupe_1082" transform="translate(177.941 1446.727)">
            <line data-name="Ligne 533" fill="none" id="Ligne_533" stroke="#fff" stroke-miterlimit="10"
                  stroke-width="0.1" transform="translate(6.643 0.117)" x1="2.269" y2="5.262"/>
            <line data-name="Ligne 534" fill="none" id="Ligne_534" stroke="#fff" stroke-miterlimit="10" stroke-width="0.1"
                  transform="translate(4.506 0)" x1="2.154" y2="4.994"/>
            <line data-name="Ligne 535" fill="none" id="Ligne_535" stroke="#fff" stroke-miterlimit="10"
                  stroke-width="0.1" transform="translate(2.534 0.295)" x1="1.751" y2="4.06"/>
            <line data-name="Ligne 536" fill="none" id="Ligne_536" stroke="#fff" stroke-miterlimit="10"
                  stroke-width="0.1" transform="translate(0.843 1.324)" x2="9.386" y2="4.048"/>
            <line data-name="Ligne 537" fill="none" id="Ligne_537" stroke="#fff" stroke-miterlimit="10"
                  stroke-width="0.1" transform="translate(2.515 0.735)" x2="9.126" y2="3.935"/>
            <line data-name="Ligne 538" fill="none" id="Ligne_538" stroke="#fff" stroke-miterlimit="10"
                  stroke-width="0.1" transform="translate(4.403 0.24)" x2="7.713" y2="3.326"/>
            <line data-name="Ligne 539" fill="none" id="Ligne_539" stroke="#fff" stroke-miterlimit="10"
                  stroke-width="0.1" transform="translate(8.856 0.706)" x1="2.095" y2="4.859"/>
            <line data-name="Ligne 540" fill="none" id="Ligne_540" stroke="#fff" stroke-miterlimit="10"
                  stroke-width="0.1" transform="translate(11.025 2.311)" x1="1.187" y2="2.753"/>
            <line data-name="Ligne 541" fill="none" id="Ligne_541" stroke="#fff" stroke-miterlimit="10" stroke-width="0.1"
                  transform="translate(0 2.132)" x2="8.197" y2="3.535"/>
            <line data-name="Ligne 542" fill="none" id="Ligne_542" stroke="#fff" stroke-miterlimit="10"
                  stroke-width="0.1" transform="translate(0.573 0.981)" x1="0.959" y2="2.225"/>
            <line data-name="Ligne 543" fill="none" id="Ligne_543" stroke="#fff" stroke-miterlimit="10"
                  stroke-width="0.1" transform="translate(7.485 0.077)" x2="4.799" y2="2.069"/>
        </g>
        <path d="M106.06,5713.451" data-name="Tracé 12553" fill="#636363" id="Tracé_12553"
              transform="translate(98.779 -4261.199)"/>
    </g>
</svg>
