<svg data-name="Groupe 1868" height="41.864" id="Groupe_1868" viewBox="0 0 49.902 41.864" width="49.902"
     xmlns="http://www.w3.org/2000/svg">
    <g data-name="Groupe 1072" id="Groupe_1072" transform="translate(0 0)">
        <g data-name="Groupe 1071" id="Groupe_1071" transform="translate(0)">
            <path d="M8.162,57.664H54.54A1.743,1.743,0,0,0,56.3,55.9V24.611a1.743,1.743,0,0,0-1.762-1.762H41.086V17.562A1.743,1.743,0,0,0,39.324,15.8h-15.9a1.743,1.743,0,0,0-1.762,1.762v5.33H8.162A1.743,1.743,0,0,0,6.4,24.654V55.945A1.791,1.791,0,0,0,8.162,57.664Zm17.021-38.34H37.562v3.567H25.183Z" data-name="Tracé 11020"
                  fill="#c6c6c6"
                  id="Tracé_11020" transform="translate(-6.4 -15.8)"/>
        </g>
        <rect data-name="Rectangle 1816" fill="#c6c6c6" height="2.436" id="Rectangle_1816"
              transform="translate(0 23.153)" width="49.902"/>
        <rect data-name="Rectangle 1817" fill="#c6c6c6" height="8.31" id="Rectangle_1817" rx="1.547"
              transform="translate(13.152 20.144)" width="3.095"/>
        <rect data-name="Rectangle 1818" fill="#c6c6c6" height="8.31" id="Rectangle_1818" rx="1.547"
              transform="translate(33.784 20.144)" width="3.095"/>
    </g>
</svg>
