<?xml version="1.0" encoding="utf-8"?>
<!-- Generator: Adobe Illustrator 22.1.0, SVG Export Plug-In . SVG Version: 6.00 Build 0)  -->
<svg style="enable-background:new 0 0 237.4 237.4;" id="Calque_1" version="1.1" viewBox="0 0 237.4 237.4" x="0px"
     xmlns="http://www.w3.org/2000/svg" y="0px" xml:space="preserve">
<style type="text/css">
	.st0{fill:#FFFFFF;stroke:#04BDD7;stroke-width:8;stroke-miterlimit:10;}
	.st1{fill:#D8D7DA;}
	.st2{fill:#898890;}
	.st3{fill:#848484;stroke:#FFFFFF;stroke-width:2;stroke-miterlimit:10;}
	.st4{opacity:0.48;fill:#EF9486;enable-background:new    ;}
	.st5{opacity:0.46;fill:#00A5C3;enable-background:new    ;}
</style>
    <title></title>
    <g>
	<g id="Calque_1_1_">
		<path class="st0"
              d="M211.7,91.4c16.3,52.2-12.8,107.7-65,124s-107.7-12.8-124-65s12.8-107.7,65-124c24.8-7.7,51.7-5.4,74.8,6.5"
        />
        <path class="st1" d="M118.4,118.8l-3.1-5.8l-8.7,4.6l3.1,5.8l3-1.6l2.7-1.4L118.4,118.8z"/>
        <path class="st2" d="M82.6,69l5.8-3l25.4,47.8l-5.8,3.1L82.6,69z"/>
        <path class="st2" d="M132.1,83.3c-0.5,1.7-2.4,2.7-4.1,2.2c-1.7-0.5-2.7-2.4-2.2-4.1c0.5-1.7,2.4-2.7,4.1-2.2
			C131.6,79.8,132.6,81.6,132.1,83.3z"/>
        <path class="st1" d="M162.3,125.2c-0.8,2.6-3.5,4.1-6.2,3.3c-2.6-0.8-4.1-3.5-3.3-6.2c0.8-2.6,3.5-4.1,6.2-3.3c0,0,0,0,0,0
			C161.6,119.8,163.1,122.6,162.3,125.2z"/>
        <path class="st1" d="M79.8,113.8c-0.8,2.6-3.6,4.1-6.2,3.3c-2.6-0.8-4.1-3.6-3.3-6.2c0.8-2.6,3.5-4.1,6.1-3.3
			C79.2,108.4,80.6,111.2,79.8,113.8C79.8,113.8,79.8,113.8,79.8,113.8z"/>
        <path class="st2" d="M95,159.7c-0.5,1.7-2.4,2.7-4.1,2.2s-2.7-2.4-2.2-4.1c0.5-1.7,2.4-2.7,4.1-2.2c0,0,0,0,0,0
			C94.6,156.1,95.6,157.9,95,159.7C95,159.7,95,159.7,95,159.7z"/>
        <path class="st3" d="M157.6,157l-23.8-33.9c-3.2-4.5-8.7-6.9-14.2-6.1l-2.7-5.2c-0.2-0.4-0.6-0.7-1-0.8c-0.4-0.1-0.9-0.1-1.2,0.1
			L89.9,64.8c-0.4-0.8-1.4-1.1-2.2-0.7l-5.8,3.1c-0.8,0.4-1.1,1.4-0.7,2.2c0,0,0,0,0,0l24.7,46.3c-0.8,0.4-1.1,1.4-0.7,2.2l2.7,5.2
			c-3.7,4.1-4.8,10-2.8,15.2l14.8,38.6c0.2,0.4,0.5,0.8,1,0.9h0.1c0.4,0.1,0.9,0.1,1.2-0.1l7.3-3.9c0.7-0.4,1.1-1.2,0.8-2l-3.2-9.6
			l6.2,8c0.5,0.6,1.4,0.8,2.1,0.4l8.7-4.6c0.7-0.4,1.1-1.2,0.8-2l-3.2-9.6l6.2,8c0.5,0.6,1.4,0.8,2.1,0.4l7.3-3.9
			c0.8-0.4,1.1-1.4,0.7-2.2c0-0.1-0.1-0.1-0.1-0.2L157.6,157z M149.3,160L138,145.2c-0.5-0.7-1.6-0.9-2.3-0.3
			c-0.6,0.4-0.8,1.2-0.6,1.9l5.9,17.6l-6.2,3.3L123.5,153c-0.5-0.7-1.6-0.9-2.3-0.3c-0.6,0.4-0.8,1.2-0.6,1.8l5.9,17.6l-4.4,2.3
			l-14.1-36.9c-2.1-5.4,0.2-11.5,5.3-14.3l2.7-1.4c5.1-2.7,11.5-1.2,14.8,3.5l22.8,32.3L149.3,160z"/>
        <path class="st4" d="M127.5,87.1c2.6,0.8,5.4-0.6,6.2-3.2c0.8-2.6-0.6-5.4-3.2-6.2c-2.6-0.8-5.4,0.6-6.2,3.2c0,0,0,0,0,0
			C123.5,83.5,124.9,86.3,127.5,87.1z M129.4,80.8c0.9,0.3,1.4,1.2,1.1,2.1c-0.3,0.9-1.2,1.4-2.1,1.1c-0.9-0.3-1.4-1.2-1.1-2.1
			c0,0,0,0,0,0C127.6,81,128.6,80.5,129.4,80.8z"/>
        <path class="st5" d="M155.7,130.1c3.5,1.1,7.2-0.9,8.2-4.4c1.1-3.5-0.9-7.2-4.4-8.2c-3.5-1.1-7.2,0.9-8.2,4.4c0,0,0,0,0,0
			C150.2,125.3,152.2,129,155.7,130.1C155.6,130,155.6,130.1,155.7,130.1z M158.5,120.6c1.7,0.5,2.7,2.4,2.2,4.1
			c-0.5,1.7-2.4,2.7-4.1,2.2c-1.7-0.5-2.7-2.4-2.2-4.1c0,0,0,0,0,0C155,121.1,156.8,120.1,158.5,120.6z"/>
        <path class="st5" d="M77,106.1c-3.5-1.1-7.2,0.9-8.2,4.4s0.9,7.2,4.4,8.2c3.5,1.1,7.2-0.9,8.2-4.4c0,0,0,0,0,0
			C82.5,110.8,80.5,107.1,77,106.1z M74.2,115.5c-1.7-0.5-2.7-2.4-2.2-4.1s2.4-2.7,4.1-2.2s2.7,2.4,2.2,4.1c0,0,0,0,0,0
			C77.7,115.1,75.9,116,74.2,115.5C74.2,115.5,74.2,115.5,74.2,115.5z"/>
        <path class="st5" d="M93.3,154c-2.6-0.8-5.4,0.7-6.2,3.3c-0.8,2.6,0.7,5.4,3.3,6.2c2.6,0.8,5.4-0.7,6.1-3.3
			C97.4,157.6,95.9,154.8,93.3,154z M91.4,160.3c-0.9-0.2-1.4-1.1-1.1-2s1.1-1.4,2-1.1s1.4,1.1,1.1,2c0,0,0,0,0,0.1
			C93.2,160.1,92.3,160.5,91.4,160.3L91.4,160.3z"/>
        <path class="st4" d="M119.7,123.3l-2.7,1.4c-5.8,3-8.3,9.9-6,16l14.5,37.9l7.1-3.8l-6.2-18.6l11.9,15.5l8.5-4.5l-6.2-18.6
			l11.9,15.5l7.1-3.8l-23.3-33.1C132.5,122,125.4,120.3,119.7,123.3z"/>
	</g>
</g>
</svg>
