<svg viewBox="0 0 237.43 237.43" xmlns="http://www.w3.org/2000/svg">
    <defs>
        <style>
            .cls-1{isolation:isolate;}.cls-2{fill:#fff;stroke:#bababa;stroke-width:5px;}.cls-2,.cls-5{stroke-miterlimit:10;}.cls-3{fill:#d8d7da;}.cls-4{fill:#898890;}.cls-5{fill:#848484;stroke:#fff;stroke-width:2px;}.cls-6{fill:#ef9486;opacity:0.48;}.cls-7{fill:#00a5c3;opacity:0.46;mix-blend-mode:multiply;}.cls-8{fill:#e2e2e2;opacity:0.59;}
        </style>
    </defs>
    <title></title>
    <g class="cls-1">
        <g data-name="Calque 1" id="Calque_1">
            <path class="cls-2" d="M209.75,89.88a99,99,0,1,1-49.19-58.52"/>
            <path class="cls-3" d="M116.41,117.26l-3.1-5.8-8.7,4.63,3.09,5.81,3-1.6,2.73-1.45Z"/>
            <path class="cls-4" d="M80.62,67.54l5.8-3.09,25.44,47.78-5.8,3.09Z"/>
            <path class="cls-4" d="M130.15,81.84A3.29,3.29,0,1,1,128,77.73,3.3,3.3,0,0,1,130.15,81.84Z"/>
            <path class="cls-3" d="M160.34,123.7a4.93,4.93,0,1,1-3.28-6.15A4.93,4.93,0,0,1,160.34,123.7Z"/>
            <path class="cls-3" d="M77.89,112.3a4.93,4.93,0,1,1-3.28-6.16A4.93,4.93,0,0,1,77.89,112.3Z"/>
            <path class="cls-4" d="M93.11,158.19a3.29,3.29,0,1,1-2.19-4.11A3.3,3.3,0,0,1,93.11,158.19Z"/>
            <path class="cls-5"
                  d="M155.64,155.45,131.8,121.6a14.79,14.79,0,0,0-14.19-6.12l-2.74-5.15a1.7,1.7,0,0,0-1-.8,1.63,1.63,0,0,0-1.24.13L88,63.33a1.66,1.66,0,0,0-2.23-.68L80,65.74A1.65,1.65,0,0,0,79.27,68l24.67,46.33a1.65,1.65,0,0,0-.68,2.22l2.74,5.15a14.84,14.84,0,0,0-2.85,15.19l14.78,38.67a1.64,1.64,0,0,0,1,.95l.1,0a1.63,1.63,0,0,0,1.26-.12l7.25-3.86a1.63,1.63,0,0,0,.78-2l-3.22-9.61,6.17,8a1.64,1.64,0,0,0,2.08.45l8.7-4.63a1.66,1.66,0,0,0,.79-2l-3.23-9.61,6.17,8a1.65,1.65,0,0,0,2.07.45l7.26-3.87a1.63,1.63,0,0,0,.83-1.07,1.65,1.65,0,0,0-.26-1.33Zm-8.25,3-11.33-14.76a1.64,1.64,0,0,0-2.86,1.53l5.93,17.63-6.25,3.33-11.33-14.76a1.64,1.64,0,0,0-2.86,1.52l5.93,17.64L120.23,173,106.12,136a11.52,11.52,0,0,1,5.34-14.27l2.73-1.45A11.53,11.53,0,0,1,129,123.83l22.76,32.33Z"/>
            <path class="cls-6"
                  d="M125.56,85.59a4.93,4.93,0,1,0-3.27-6.15A4.93,4.93,0,0,0,125.56,85.59Zm1.92-6.29a1.65,1.65,0,1,1-2,1.1A1.65,1.65,0,0,1,127.48,79.3Z"/>
            <path class="cls-7"
                  d="M153.71,128.55a6.58,6.58,0,1,0-4.37-8.21A6.56,6.56,0,0,0,153.71,128.55Zm2.87-9.43a3.29,3.29,0,1,1-4.1,2.18A3.29,3.29,0,0,1,156.58,119.12Z"/>
            <path class="cls-7"
                  d="M75.09,104.57a6.58,6.58,0,1,0,4.37,8.21A6.58,6.58,0,0,0,75.09,104.57ZM72.21,114a3.29,3.29,0,1,1,4.11-2.18A3.28,3.28,0,0,1,72.21,114Z"/>
            <path class="cls-7"
                  d="M91.4,152.51a4.93,4.93,0,1,0,3.28,6.16A4.94,4.94,0,0,0,91.4,152.51Zm-1.92,6.29a1.64,1.64,0,1,1,2-1.09A1.63,1.63,0,0,1,89.48,158.8Z"/>
            <path class="cls-6"
                  d="M117.76,121.8l-2.67,1.42a12.87,12.87,0,0,0-6,16L123.59,177l7.1-3.78-6.24-18.56,11.92,15.53,8.52-4.54-6.23-18.55,11.91,15.53,7.1-3.78-23.33-33.14A12.88,12.88,0,0,0,117.76,121.8Z"/>
            <circle class="cls-8" cx="115.22" cy="119.39" r="96.5"/>
        </g>
    </g>
</svg>
