<svg id="Calque_1" data-name="Calque 1" xmlns="http://www.w3.org/2000/svg" viewBox="0 0 328 329"><defs><style>.cls-1{fill:#dae6fe;}.cls-2{fill:#b2ccfc;}</style></defs><title>Sans titre - 3</title><circle class="cls-1" cx="164.5" cy="164.5" r="159.5"/><g id="UoFXae"><path class="cls-2" d="M133.85,104.21H127.7c-13.83,0-27.66,0-41.49,0-11.8,0-18.22,6.46-18.23,18.24q0,52,0,104c0,11.7,6.45,18.22,18.24,18.23q80.73.06,161.45,0c11.33,0,17.85-6.28,17.89-17.5q.17-52.72,0-105.46c0-11.24-6.58-17.39-17.93-17.45-14-.07-28,0-42,0-1.77,0-3.54-.15-5.12-.23a6,6,0,0,1-.48-1.38c-.05-5.83,0-11.66-.11-17.49-.12-8.54-4.66-13.66-13-13.83q-20-.39-40,0c-8.56.18-12.93,5.09-13,13.72C133.8,91.14,133.85,97.27,133.85,104.21Z"/><path d="M133.85,104.21c0-6.94,0-13.07,0-19.21.09-8.63,4.46-13.54,13-13.72q20-.42,40,0c8.38.17,12.92,5.29,13,13.83.08,5.83.06,11.66.11,17.49a6,6,0,0,0,.48,1.38c1.58.08,3.35.22,5.12.23,14,0,28,0,42,0,11.35.06,17.89,6.21,17.93,17.45q.21,52.74,0,105.46c0,11.22-6.56,17.49-17.89,17.5q-80.73.09-161.45,0c-11.79,0-18.23-6.53-18.24-18.23q0-52,0-104c0-11.78,6.43-18.2,18.23-18.24,13.83-.06,27.66,0,41.49,0Zm32.61,131.84h79.46c9.44,0,11.59-2,11.61-11.31q.11-50.73,0-101.44c0-8-2.48-10.48-10.46-10.48q-80.46,0-160.91,0c-7.59,0-10.07,2.61-10.08,10.33q0,51.22,0,102.44c0,8,2.42,10.45,10.4,10.46Q126.48,236.07,166.46,236.05ZM142.28,103.91h48.83V96.23H142.28Zm.05-16.36h48.4c1.2-6.51.17-8-5.86-8q-17.94-.1-35.88,0C142.84,79.61,141.9,80.76,142.33,87.55Z"/><path d="M164.67,211.78H100.2c-1.33,0-3,.32-3.91-.32-1.48-1-3.68-2.9-3.45-4,.35-1.62,2.41-3,4-4.16.66-.48,1.94-.15,2.94-.15q64.49,0,129,0c3.37,0,8-.91,8,4.25,0,5-4.6,4.31-8,4.31q-32,.06-64,0Z"/><path d="M165,137.05q32,0,64,0c1.65,0,3.61-.26,4.87.51s2.8,2.75,2.73,4.11-1.87,2.83-3.26,3.67c-1,.6-2.59.28-3.92.28l-129,0c-1.17,0-2.6.39-3.44-.14a32.33,32.33,0,0,1-4.4-3.91,38.2,38.2,0,0,1,4.49-4.42c.78-.55,2.27-.12,3.44-.12Z"/><path d="M165,178.58c-21.33,0-42.66.06-64-.05-3.24,0-8,1.18-8.13-4s4.59-4.28,8-4.28q63.75-.06,127.48,0h1.5c3.24,0,7.08-.09,6.92,4.37s-4.07,4-7.25,4Z"/></g></svg>