<?xml version="1.0" encoding="utf-8"?>
<!-- Generator: Adobe Illustrator 22.1.0, SVG Export Plug-In . SVG Version: 6.00 Build 0)  -->
<svg style="enable-background:new 0 0 237.4 237.4;" id="Calque_1" version="1.1" viewBox="0 0 237.4 237.4" x="0px"
     xmlns="http://www.w3.org/2000/svg" y="0px" xml:space="preserve">
<style type="text/css">
	.st0{fill:#FFFFFF;stroke:#04BDD7;stroke-width:8;stroke-miterlimit:10;}
	.st1{fill:#686868;}
	.st2{fill:#FFFFFF;}
	.st3{opacity:0.48;fill:#EF9486;enable-background:new    ;}
	.st4{opacity:0.57;}
	.st5{fill:#4FBDD7;}
	.st6{fill:#898890;}
	.st7{fill:#D8D7DA;}
	.st8{opacity:0.46;fill:#00A5C3;enable-background:new    ;}
</style>
    <title></title>
    <g>
	<g id="Calque_1_1_">
		<path class="st0"
              d="M211.7,91.4c16.3,52.2-12.8,107.7-65,124s-107.7-12.8-124-65s12.8-107.7,65-124c24.8-7.7,51.7-5.4,74.8,6.5"
        />
        <path class="st1" d="M151.7,132c1.5-1.8,2.4-4.2,2.3-6.6c-0.1-2.1-0.9-4.1-2.2-5.7c1.6-3.5,0.7-7.6-2.1-10.2
			c-2.6-2.4-7.1-3.5-13.4-3.2c-2.8,0.1-5.5,0.5-8.2,1l0,0c-0.8,0.2-1.7,0.3-2.6,0.5c-0.1-1.1,0.1-3.7,2.1-9.7
			c2.3-7.1,2.2-12.5-0.4-16.1c-2-2.6-5.2-4.1-8.5-4.1c-1.2,0-2.4,0.5-3.2,1.5c-1.8,2.1-1.6,6.1-1.4,7.9c-2.2,5.9-8.4,20.3-13.6,24.3
			c-0.1,0.1-0.2,0.1-0.3,0.2c-1.3,1.4-2.5,3.1-3.3,4.9c-1-0.5-2.1-0.8-3.3-0.8H83.6c-3.8,0-6.9,3.1-6.9,6.9v27
			c0,3.8,3.1,6.9,6.9,6.9h10.1c1.4,0,2.8-0.4,4-1.3l3.9,0.5c7.4,0.9,14.8,1.3,22.2,1.2c2,0.1,3.8,0.2,5.6,0.2c2.6,0,5.2-0.2,7.7-0.7
			c5.1-1.1,8.6-3.2,10.3-6.4c1.1-1.9,1.5-4.2,1.1-6.4c2.5-2.1,3.9-5.3,3.8-8.6C152.3,134.2,152.1,133.1,151.7,132z M83.6,152.3
			c-1.3,0-2.4-1.1-2.4-2.4v-27.1c0-1.3,1.1-2.4,2.4-2.4h10.1c1.3,0,2.4,1.1,2.4,2.4l0,0v27c0,1.3-1.1,2.4-2.4,2.4L83.6,152.3
			L83.6,152.3z"/>
        <path class="st2" d="M147.4,130c-0.7,0.7-0.8,1.8-0.3,2.7c0.4,0.9,0.7,1.8,0.8,2.8c0.1,2.2-0.9,4.1-3.1,5.8
			c-0.8,0.6-1.1,1.6-0.8,2.6c0.4,1.4,0.2,3-0.4,4.3c-1.1,2-3.6,3.4-7.4,4.2c-4,0.7-8.1,0.8-12.1,0.4h-0.2
			c-7.2,0.1-14.5-0.3-21.6-1.2l0,0l-1.7-0.2c0.1-0.5,0.2-1,0.2-1.5v-27c0-0.7-0.1-1.4-0.3-2.1c0.6-2.1,1.6-4.1,3.1-5.7
			c7.5-5.9,14.8-25.9,15.1-26.8c0.1-0.4,0.2-0.7,0.1-1.1c-0.3-1.9-0.2-4.2,0.2-4.8c1.8,0,3.5,0.8,4.7,2.2c1.7,2.3,1.6,6.5-0.2,12.1
			c-2.8,8.5-3,12.9-0.8,14.9c1,0.9,2.4,1.1,3.6,0.7c1-0.2,2-0.4,2.9-0.6h0.2c5.1-1.1,14.3-1.8,17.4,1.1c2.7,2.5,0.8,5.7,0.6,6.1
			c-0.6,0.9-0.4,2.2,0.4,2.9c2.3,2,2.5,5.4,0.5,7.7C148,129.6,147.7,129.9,147.4,130L147.4,130z"/>
        <path class="st3" d="M147.4,135c-0.7,0.7-0.8,1.8-0.3,2.7c0.4,0.9,0.7,1.8,0.8,2.8c0.1,2.2-0.9,4.1-3.1,5.8
			c-0.8,0.6-1.1,1.6-0.8,2.6c0.4,1.4,0.2,3-0.4,4.3c-1.1,2-3.6,3.4-7.4,4.2c-4,0.7-8.1,0.8-12.1,0.4h-0.2
			c-7.2,0.1-14.4-0.3-21.6-1.2l0,0l-1.7-0.2c0.1-0.5,0.2-1,0.2-1.5v-27c0-0.7-0.1-1.4-0.3-2.1c0.6-2.1,1.6-4.1,3.1-5.7
			c7.5-5.9,14.8-25.9,15.1-26.7c0.1-0.4,0.2-0.7,0.1-1.1c-0.3-1.9-0.2-4.1,0.2-4.8c1.8,0,3.5,0.8,4.7,2.2c1.7,2.3,1.6,6.5-0.2,12.1
			c-2.8,8.5-3,12.9-0.8,14.9c1,0.9,2.4,1.1,3.6,0.6c1-0.2,2-0.4,2.9-0.6l0.2-0.1c5.1-1.1,14.2-1.8,17.4,1.1c2.7,2.5,0.8,5.7,0.6,6.1
			c-0.6,0.9-0.4,2.2,0.4,2.9c1.1,1,1.7,2.4,1.9,3.9C149.5,132.3,148.7,133.9,147.4,135z"/>
        <g class="st4">
			<path class="st5" d="M84.1,136.9c-0.6,0-1-0.6-1-1.2c0,0,0,0,0,0v-13.1c-0.1-0.6,0.4-1.1,1-1.2c0,0,0,0,0,0h3.9
				c0.6,0,1,0.6,1,1.2c0,0,0,0,0,0v13.1c0.1,0.6-0.4,1.1-1,1.2c0,0,0,0,0,0H84.1z"/>
		</g>
        <path class="st6" d="M152,61.3c-0.5,1.7-2.4,2.7-4.1,2.2c-1.7-0.5-2.7-2.4-2.2-4.1c0.5-1.7,2.4-2.7,4.1-2.2
			C151.5,57.8,152.5,59.6,152,61.3z"/>
        <path class="st7" d="M182.1,103.2c-0.8,2.6-3.5,4.1-6.2,3.3c-2.6-0.8-4.1-3.5-3.3-6.2c0.8-2.6,3.5-4.1,6.2-3.3c0,0,0,0,0,0
			C181.5,97.8,182.9,100.6,182.1,103.2z"/>
        <path class="st7" d="M61.7,122.8c-0.8,2.6-3.6,4.1-6.2,3.3c-2.6-0.8-4.1-3.6-3.3-6.2c0.8-2.6,3.5-4.1,6.1-3.3
			C61,117.4,62.5,120.2,61.7,122.8C61.7,122.8,61.7,122.8,61.7,122.8z"/>
        <path class="st6" d="M76.9,168.7c-0.5,1.7-2.4,2.7-4.1,2.2s-2.7-2.4-2.2-4.1c0.5-1.7,2.4-2.7,4.1-2.2
			C76.5,165.1,77.4,167,76.9,168.7z"/>
        <path class="st3" d="M147.4,65.1c2.6,0.8,5.4-0.7,6.2-3.3c0.8-2.6-0.7-5.4-3.3-6.2c-2.6-0.8-5.4,0.7-6.2,3.3c0,0,0,0,0,0
			C143.3,61.5,144.8,64.3,147.4,65.1z M149.3,58.8c0.9,0.3,1.4,1.2,1.1,2.1c-0.3,0.9-1.2,1.4-2.1,1.1c-0.9-0.3-1.4-1.2-1.1-2.1
			c0,0,0,0,0,0C147.5,59,148.4,58.5,149.3,58.8z"/>
        <path class="st8" d="M175.5,108.1c3.5,1.1,7.2-0.9,8.2-4.4s-0.9-7.2-4.4-8.2c-3.5-1.1-7.2,0.9-8.2,4.4c0,0,0,0,0,0
			C170.1,103.3,172,107,175.5,108.1C175.5,108,175.5,108,175.5,108.1z M178.4,98.6c1.7,0.5,2.7,2.4,2.2,4.1s-2.4,2.7-4.1,2.2
			c-1.7-0.5-2.7-2.4-2.2-4.1c0,0,0,0,0,0C174.8,99.1,176.7,98.1,178.4,98.6z"/>
        <path class="st8" d="M58.9,115.1c-3.5-1.1-7.2,0.9-8.2,4.4c-1.1,3.5,0.9,7.2,4.4,8.2s7.2-0.9,8.2-4.4c0,0,0,0,0,0
			C64.3,119.8,62.4,116.1,58.9,115.1z M56,124.5c-1.7-0.5-2.7-2.4-2.2-4.1s2.4-2.7,4.1-2.2c1.7,0.5,2.7,2.4,2.2,4.1c0,0,0,0,0,0
			C59.6,124.1,57.8,125,56,124.5C56,124.5,56,124.5,56,124.5z"/>
        <path class="st8" d="M75.2,163c-2.6-0.8-5.4,0.7-6.2,3.3c-0.8,2.6,0.7,5.4,3.3,6.2c2.6,0.8,5.4-0.7,6.1-3.3
			C79.3,166.6,77.8,163.8,75.2,163z M73.3,169.3c-0.9-0.2-1.4-1.1-1.1-2s1.1-1.4,2-1.1s1.4,1.1,1.1,2c0,0,0,0,0,0.1
			C75,169.1,74.1,169.5,73.3,169.3L73.3,169.3z"/>
	</g>
</g>
</svg>
