<svg id="Calque_1" data-name="Calque 1" xmlns="http://www.w3.org/2000/svg" viewBox="0 0 328 329"><defs><style>.cls-1{fill:#f9e2dd;}.cls-2{fill:#f8d061;}.cls-3{fill:#b2ccfc;}.cls-4{fill:#b0cdf9;}.cls-5{fill:#f4d169;}.cls-6{fill:#494448;}.cls-7{fill:#f46a82;}</style></defs><title>Sans titre - 3</title><circle class="cls-1" cx="164.5" cy="164.5" r="159.5"/><g id="ZidPth"><path d="M239.11,68.31v19c.6.44.86.8,1.11.8,14.56-.16,19.76,9.12,19.58,21.85-.43,31.81-.14,63.62-.14,95.44,0,16.29-3.92,20.82-20.4,23.15v36.11H91.51V232.31l-8.21-.58v-7.67l7.67-.47V207.67l-7.66-.7v-7.69l7.59-.46V183.23l-7.6-.53v-8L91,174V158.51l-7.7-.59v-7.81l7.53-.51V134l-7.56-.66v-8.11l7.54-.38V109.24l-7.49-.48v-7.7l7.77-.67V68.31Zm-8.38,187.92V76.38H100.08v24l7.38.65v7.65l-7.46.59v15.53l7.44.52v8l-7.38.69v15.52l7.45.63v7.66l-7.54.73V174l7.51.76v7.9l-7.48.63v15.5l7.52.52v7.55l-7.5.83v15.89l7.47.57v7.53l-7.48.64v23.93Z"/></g><path class="cls-2" d="M230.73,255.23V75.38H100.08v24l7.38.65v7.65l-7.46.59v15.53l7.44.52v8l-7.38.69v15.52l7.45.63v7.66l-7.54.73V173l7.51.76v7.9l-7.48.63v15.5l7.52.52v7.55l-7.5.83v15.89l7.47.57v7.53l-7.48.64v23.93Z"/><path d="M143,141.38V101h56.71v40.34Z"/><path class="cls-3" d="M151.3,109.14V133h40.2V109.14Z"/><path class="cls-4" d="M240.38,129.56v24.11h11.51V129.56Z"/><path class="cls-5" d="M240.55,162.31v24.17h11.32V162.31Z"/><path class="cls-6" d="M240.22,219c7.36,1.07,11.5-1.1,11.92-6.65s.09-11.18.09-16.92h-12Z"/><path class="cls-7" d="M240.36,120.79h11.38a6.83,6.83,0,0,0,.48-1.66c.06-4.31.16-8.63.07-12.94-.17-7.56-3.91-10.33-11.93-8.82Z"/></svg>