<svg id="Calque_1" data-name="Calque 1" xmlns="http://www.w3.org/2000/svg" viewBox="0 0 328 329"><defs><style>.cls-1{fill:#f0f0f0;}</style></defs><title>Sans titre - 3</title><circle class="cls-1" cx="164.5" cy="164.5" r="159.5"/><g id="JIBaEj"><path d="M69,163.4q0-35.75,0-71.49C69,75.84,78.73,66,94.65,66q71.49,0,143,0c16.21,0,26.23,9.94,26.24,26.05q0,71,0,142c0,16.92-10.05,26.88-27.12,26.89q-70.74,0-141.48,0C78.8,260.86,69,251,69,234.39Q68.94,198.9,69,163.4Zm8-.08q0,35.73,0,71.46c0,10.93,6.79,18,17.55,18.05q71.72.09,143.43,0c11.12,0,17.94-7.09,17.95-18.33q0-71.22,0-142.43c0-11.26-6.87-18.12-18-18.13q-71.46,0-142.93,0c-11.41,0-18,6.56-18,17.93Q76.88,127.58,76.92,163.32Z"/><path d="M239.52,163.41c0,40.16-33.1,73.25-73.08,73.08-40.64-.18-73.6-33.07-73.47-73.31S126.26,90,166.66,90C206.56,90,239.54,123.23,239.52,163.41Zm-8.36,0c.07-35.7-29-65.15-64.45-65.29-35.83-.13-65.6,29.59-65.56,65.47,0,35.2,29.27,64.33,64.74,64.52A64.57,64.57,0,0,0,231.16,163.45Z"/><path d="M170.53,159.07c5.95,0,11.56,0,17.16,0,1.47,0,3.29-.16,4.31.6,1.26.95,2.7,2.92,2.49,4.19a5,5,0,0,1-3.63,3.19c-9.41.27-18.83.14-28.8.14V141.37q0-8.48,0-17c0-2.89.6-5.52,4.13-5.65,3.76-.14,4.07,2.65,4.07,5.49q0,14.7,0,29.41C170.31,155.29,170.44,156.91,170.53,159.07Z"/></g></svg>