<svg id="Calque_1" data-name="Calque 1" xmlns="http://www.w3.org/2000/svg" viewBox="0 0 328 329"><defs><style>.cls-1{fill:#f9e2dd;}.cls-2{fill:#f8d061;}.cls-3{fill:#fff;}</style></defs><title>Sans titre - 3</title><circle class="cls-1" cx="163.5" cy="164.5" r="159.5"/><g id="JIBaEj"><path d="M68,163.4q0-35.75,0-71.49C68,75.84,77.73,66,93.65,66q71.49,0,143,0c16.21,0,26.23,9.94,26.24,26.05q0,71,0,142c0,16.92-10.05,26.88-27.12,26.89q-70.74,0-141.48,0C77.8,260.86,68,251,68,234.39Q67.94,198.9,68,163.4Zm8-.08q0,35.73,0,71.46c0,10.93,6.79,18,17.55,18.05q71.72.09,143.43,0c11.12,0,17.94-7.09,17.95-18.33q0-71.22,0-142.43c0-11.26-6.87-18.12-18-18.13q-71.46,0-142.93,0c-11.41,0-18,6.56-18,17.93Q75.88,127.58,75.92,163.32Z"/><path class="cls-2" d="M75.91,163.32q0-35.73,0-71.47c0-11.37,6.6-17.92,18-17.93q71.48,0,142.93,0c11.12,0,18,6.87,18,18.13q0,71.2,0,142.43c0,11.24-6.83,18.31-17.95,18.33q-71.71.12-143.43,0c-10.76,0-17.54-7.12-17.55-18.05Q75.91,199.05,75.91,163.32Zm162.61.09c0-40.18-33-73.42-72.86-73.43-40.4,0-73.55,32.91-73.69,73.2s32.83,73.13,73.47,73.31C205.42,236.66,238.51,203.57,238.52,163.41Z"/><path d="M238.52,163.41c0,40.16-33.1,73.25-73.08,73.08-40.64-.18-73.6-33.07-73.47-73.31S125.26,90,165.66,90C205.56,90,238.54,123.23,238.52,163.41Zm-8.36,0c.07-35.7-29-65.15-64.45-65.29-35.83-.13-65.6,29.59-65.56,65.47,0,35.2,29.27,64.33,64.74,64.52A64.57,64.57,0,0,0,230.16,163.45Z"/><path class="cls-3" d="M230.16,163.45a64.57,64.57,0,0,1-65.27,64.7c-35.47-.19-64.69-29.32-64.74-64.52,0-35.88,29.73-65.6,65.56-65.47C201.16,98.3,230.23,127.75,230.16,163.45Zm-60.63-4.38c-.09-2.16-.22-3.78-.22-5.4q0-14.7,0-29.41c0-2.84-.31-5.63-4.07-5.49-3.53.13-4.12,2.76-4.13,5.65q0,8.47,0,17v25.84c10,0,19.39.13,28.8-.14a5,5,0,0,0,3.63-3.19c.21-1.27-1.23-3.24-2.49-4.19-1-.76-2.84-.58-4.31-.6C181.09,159,175.48,159.07,169.53,159.07Z"/><path d="M169.53,159.07c5.95,0,11.56,0,17.16,0,1.47,0,3.29-.16,4.31.6,1.26.95,2.7,2.92,2.49,4.19a5,5,0,0,1-3.63,3.19c-9.41.27-18.83.14-28.8.14V141.37q0-8.48,0-17c0-2.89.6-5.52,4.13-5.65,3.76-.14,4.07,2.65,4.07,5.49q0,14.7,0,29.41C169.31,155.29,169.44,156.91,169.53,159.07Z"/></g></svg>