<svg id="Calque_1" data-name="Calque 1" xmlns="http://www.w3.org/2000/svg" viewBox="0 0 480 480"><defs><style>.cls-1{fill:#fbcec6;}.cls-2{fill:#adccff;}.cls-2,.cls-3,.cls-4,.cls-5{stroke:#050505;stroke-miterlimit:10;stroke-width:2px;}.cls-3{fill:#73b7a4;}.cls-4{fill:#fffbf2;}.cls-5{fill:#ff5f7d;}</style></defs><title>Beautéé</title><rect class="cls-1" x="38.9" y="54.02" width="391.54" height="391.54" rx="79.16" ry="79.16"/><g id="_4U5ewR.tif" data-name="4U5ewR.tif"><path class="cls-2" d="M275.19,233.73A83.2,83.2,0,0,1,264.06,271a115.3,115.3,0,0,1-21,26.94c-2.49,2.39-5.52,2.63-7.83.41-13.5-13-24-27.92-29.36-46.08s-2.53-35.52,5.9-52.16a113.77,113.77,0,0,1,23.15-30.87c2.33-2.23,5.48-2.42,7.7-.26,14.07,13.62,25,29.22,29.92,48.46C273.9,222.77,274.34,228.3,275.19,233.73Z"/><path class="cls-3" d="M195.65,210.21c-1,5.73-2.22,11.23-2.82,16.81-1.55,14.38,1.59,28,7.49,41a119.2,119.2,0,0,0,18.28,28.37c.53.62,1.05,1.24,1.57,1.88.08.09.08.25.18.55a104.73,104.73,0,0,1-24.78-6.17c-24.18-9.26-38-27.37-44.39-51.86a116.14,116.14,0,0,1-3.69-31.72c.08-3.62,2-5.9,5.56-6A114.06,114.06,0,0,1,195.28,210C195.52,210.08,195.73,210.25,195.65,210.21Z"/><path class="cls-3" d="M257.44,298.63c1.29-1.56,2.6-3.1,3.87-4.68,10.48-13,18.54-27.29,22.25-43.77a75.35,75.35,0,0,0-1.12-37.52l-.71-2.54c4.2-1.25,8.3-2.65,12.48-3.69a117.38,117.38,0,0,1,29.52-3.35c4.71,0,6.6,2,6.65,6.78a115.37,115.37,0,0,1-6.19,39.08c-8.36,24.19-25.2,39.32-49.57,46.3-5.57,1.6-11.3,2.64-16.95,3.94Z"/><path class="cls-3" d="M250.16,310.66c25.83-2.42,49.4-9.72,68.09-29.75,3.71,3.52,7.6,6.89,11.08,10.64,2,2.15,1.43,4.79-1,7.27a80.46,80.46,0,0,1-25.7,18.05,50.14,50.14,0,0,1-26.26,4.18C266.73,319.89,258.18,316,250.16,310.66Z"/><path class="cls-3" d="M159.69,281c18.57,19.92,42.19,27.25,68.36,29.47-.52.42-.74.65-1,.81-11.23,7-23.16,11.36-36.68,9.77a57,57,0,0,1-25.63-9.86,149.43,149.43,0,0,1-15-12.22c-3.29-2.94-3.17-5.88,0-9S156.37,284,159.69,281Z"/><path class="cls-4" d="M238.94,316.61,258.65,328c-.14.28-.43.94-.78,1.56a84,84,0,0,1-15,19.18,5.29,5.29,0,0,1-7.54.23,81.73,81.73,0,0,1-16-20.72c-.08-.17-.12-.36-.09-.25Z"/><path class="cls-5" d="M199.77,199.94l-17.59-5.06a8,8,0,0,1,.25-1.39c1.58-4.33,3.09-8.7,4.81-13,1.37-3.42,4.25-4.58,7.65-3.14,4.67,2,9.27,4.13,13.87,6.19Z"/><path class="cls-5" d="M295.63,194.9l-17.54,5-8.95-16.29c3.37-1.59,6.85-3.24,10.35-4.85a41.46,41.46,0,0,1,4.15-1.69c2.59-.88,5.47,0,6.47,2.41,2,4.88,3.74,9.9,5.56,14.86A1.26,1.26,0,0,1,295.63,194.9Z"/></g></svg>