<svg id="Calque_1" data-name="Calque 1" xmlns="http://www.w3.org/2000/svg" viewBox="0 0 480 480"><defs><style>.cls-1{fill:#fbcec6;}.cls-2{fill:#adccff;}.cls-2,.cls-3,.cls-4{stroke:#000;stroke-miterlimit:10;stroke-width:0.75px;}.cls-3{fill:#ff5f7d;}.cls-4{fill:#ffd258;}</style></defs><title>Conciergerie</title><rect class="cls-1" x="19.16" y="63.14" width="391.54" height="391.54" rx="79.16" ry="79.16"/><g id="cQqULi.tif"><path class="cls-2" d="M223.2,354l-74.7-101.1L171.44,233l-21.05-16.5c4.89-9,9.63-17.76,15.12-27.86l58.84,165Z"/><path class="cls-2" d="M285.9,188.8c5.27,9.75,9.85,18.21,14.81,27.36l-21.15,16.35,22.56,20L228.36,353.72l-1.15-.57Z"/><path class="cls-3" d="M237.7,218.38h12.19l.29-.72-11.69-4.85,14.37-7.18c-5.48-1.81-11.16,3.79-17.16-2.4,8.73-2,16.18-3.85,23.74-5.1,1.17-.2,4,2.48,4.07,4,.44,7,.31,14,.15,21-.08,3.24-2,4.85-5.33,4.07-7-1.63-14-3.29-21.3-5l.82-4Z"/><path class="cls-3" d="M200.12,218.2c12.63,0,12.63,0,14.51,4-7.63,1.75-15.1,3.63-22.66,5-1.16.21-3.88-1.75-3.92-2.8-.36-7.73-.41-15.49-.05-23.22.06-1.14,3-3.26,4.26-3,7.39,1.28,14.69,3.12,22.13,4.8-1.63,3.4-1.63,3.4-15.21,3l13.95,6.69Z"/><path class="cls-3" d="M237.85,218.21c-3.64,4.54-8.45,6-14.08,5.43-6.38-.69-10.67-5.2-10.62-11.14s4.4-10.3,10.86-10.84c11.54-.95,16.92,5.63,13.69,16.72ZM235,212.52c-.06-4.49-3.63-7.52-8.88-7.54s-8.82,2.88-8.92,7.45c-.11,4.74,3.64,8,9.12,7.88C231.44,220.21,235,217,235,212.52Z"/><path class="cls-4" d="M233.05,283.89c-2.55,1.61-5,4.25-7.69,4.57-3.84.45-6.31-2.54-6.14-6.51s2.92-6.74,6.67-6c2.66.53,4.87,3.4,7.28,5.22Z"/><path class="cls-4" d="M224.1,267.39c-1.65-2.5-4.36-4.86-4.7-7.54-.5-3.81,2.42-6.29,6.43-6.15s6.86,2.6,6.09,6.48c-.53,2.66-3.3,4.87-5.07,7.28Z"/><path class="cls-4" d="M233.12,239.21c-2.46,1.74-4.75,4.53-7.43,5-3.79.63-6.4-2.23-6.45-6.22s2.52-6.87,6.34-6.28c2.69.42,5,3.12,7.53,4.79Z"/><path class="cls-4" d="M232.19,305.93c-2.4,1.51-4.71,4-7.24,4.27a4.86,4.86,0,0,1-5.37-6.24c.63-2.26,3.76-5.28,5.8-5.31,2.28,0,4.6,3,6.9,4.62Z"/></g></svg>