<svg id="Calque_1" data-name="Calque 1" xmlns="http://www.w3.org/2000/svg" viewBox="0 0 480 480"><defs><style>.cls-1{fill:#ff5f7d;}.cls-2,.cls-5{fill:#ffd258;}.cls-2{stroke:#0a0a0a;stroke-width:0.75px;}.cls-2,.cls-4{stroke-miterlimit:10;}.cls-3{fill:#fef0e1;}.cls-4{fill:none;stroke:#070707;}.cls-6{fill:#c1962b;}</style></defs><title>Cours</title><rect class="cls-1" x="41.23" y="56.82" width="391.54" height="391.54" rx="79.16" ry="79.16"/><g id="Q5M9xm.tif"><path class="cls-2" d="M145.56,234.77l7.16,4.28c-.47.4-.74.68-1.06.9a11.71,11.71,0,0,0-5.32,10.17q0,31.36,0,62.74a2.8,2.8,0,0,0,1.77,2.85,11.69,11.69,0,0,1,5.73,13.19,12,12,0,0,1-11.18,8.81c-5.21.07-10.39-3.77-11.59-8.59a11.56,11.56,0,0,1,5.67-13.4,2.93,2.93,0,0,0,1.78-3.1q-.06-28.74,0-57.49c0-11.28.13-11.66,6.74-20.52l-11.44-6.78c.76-.52,1.3-1,1.89-1.31q51.51-30.36,103-60.75a3,3,0,0,1,3.58-.09q51.58,30.49,103.24,60.89c.5.29,1,.61,1.83,1.15-.84.55-1.47,1-2.13,1.38q-51.42,30.3-102.83,60.62a3,3,0,0,1-3.58.07Q197,265.06,155.14,240.42c-.55-.32-1.06-.72-2.13-1.45,2-.44,3.49-.89,5-1.07q27.39-3.39,54.79-6.71,13.76-1.68,27.51-3.43c2.92-.38,4.54-2.22,4.15-4.56s-2.34-3.5-5.12-3.16L156,230.25A19.44,19.44,0,0,0,145.56,234.77Z"/><path class="cls-2" d="M319,253.75v3c0,11.58-.31,23.17.1,34.73.32,9.07-3.46,15.93-9.8,21.73a60.83,60.83,0,0,1-18,11c-19.05,7.91-39,10.4-59.43,9.35a125.3,125.3,0,0,1-40.78-8.85c-9.1-3.68-17.62-8.34-23.81-16.33A23.92,23.92,0,0,1,162,292.89c.15-12.9.05-25.81.05-39.2,1,.56,1.75.95,2.48,1.38q36,21.23,72,42.5a7,7,0,0,0,8,0q35.85-21.3,71.82-42.38C317.15,254.74,317.94,254.34,319,253.75Z"/><path class="cls-3" d="M142.53,338.56c2.56,14,5.11,28.07,7.7,42.31l-23.56,7.85c5.25-17.09,10.34-33.63,15.43-50.17Z"/></g><g id="Q5M9xm.tif-2" data-name="Q5M9xm.tif"><path class="cls-4" d="M144.61,233.79l7.15,4.28a13.8,13.8,0,0,1-1,.9,11.7,11.7,0,0,0-5.32,10.17q0,31.37,0,62.73a2.79,2.79,0,0,0,1.77,2.86,11.69,11.69,0,0,1,5.73,13.19,12,12,0,0,1-11.19,8.81c-5.2.07-10.39-3.78-11.59-8.59-1.36-5.48.82-10.84,5.68-13.4a3,3,0,0,0,1.78-3.1q-.06-28.74,0-57.49c0-11.28.12-11.66,6.73-20.52l-11.43-6.78c.75-.53,1.3-1,1.89-1.31q51.51-30.37,103-60.76a3,3,0,0,1,3.58-.08q51.58,30.5,103.24,60.89c.5.29,1,.61,1.83,1.14-.84.55-1.47,1-2.14,1.39q-51.42,30.3-102.82,60.62a3,3,0,0,1-3.58.06Q196,264.07,154.18,239.44c-.54-.33-1.05-.72-2.13-1.45,2-.45,3.5-.89,5-1.08q27.39-3.37,54.79-6.7,13.75-1.69,27.51-3.44c2.92-.37,4.53-2.21,4.15-4.55s-2.35-3.5-5.12-3.16q-41.65,5.1-83.3,10.21A19.33,19.33,0,0,0,144.61,233.79Z"/><path class="cls-4" d="M318.09,252.77v3c0,11.57-.31,23.17.1,34.73.32,9.07-3.46,15.93-9.8,21.73a61,61,0,0,1-18.05,11c-19,7.9-38.95,10.4-59.43,9.35a125.25,125.25,0,0,1-40.78-8.85c-9.11-3.68-17.62-8.35-23.82-16.33A24,24,0,0,1,161,291.91c.15-12.91,0-25.82,0-39.2,1,.55,1.76.95,2.49,1.38q36,21.22,72,42.5a6.94,6.94,0,0,0,8,0q35.85-21.29,71.82-42.38C316.19,253.75,317,253.36,318.09,252.77Z"/><path class="cls-4" d="M141.58,337.58c2.55,14,5.11,28.07,7.69,42.31l-23.55,7.84,15.43-50.17Z"/></g><circle class="cls-5" cx="141.5" cy="325.87" r="10.87"/><g id="Q5M9xm.tif-3" data-name="Q5M9xm.tif"><path class="cls-6" d="M343.58,227.09,312.94,209c-1.64,5.39-3.42,10.73-5.29,16-3.89,11.09-8.14,22-12.53,32.94l48.15-28.37c.66-.39,1.29-.84,2.14-1.39C344.56,227.71,344.08,227.39,343.58,227.09Z"/><path class="cls-6" d="M317.12,257.28v-3c-1.1.59-1.9,1-2.66,1.43L290.25,270c-8.41,20.51-17,40.93-24.48,61.83a122.41,122.41,0,0,0,23.59-7.06,60.74,60.74,0,0,0,18.05-11c6.35-5.8,10.13-12.65,9.81-21.72C316.81,280.45,317.12,268.86,317.12,257.28Z"/></g></svg>