<svg id="Calque_1" data-name="Calque 1" xmlns="http://www.w3.org/2000/svg" viewBox="0 0 480 480"><defs><style>.cls-1{fill:#ffd258;}.cls-2{fill:#adccff;stroke:#020202;}.cls-2,.cls-3{stroke-miterlimit:10;stroke-width:2px;}.cls-3{fill:#ff5f7d;stroke:#050505;}</style></defs><title>Beautéé</title><rect class="cls-1" x="39.46" y="50.43" width="391.54" height="391.54" rx="79.16" ry="79.16"/><g id="vnSpFW.tif"><path class="cls-2" d="M157.48,261.51c-1.21-1.58-2.49-3.17-3.68-4.81-26.74-36.71-13.62-88.79,27.35-108.58,43.14-20.84,94.57,5.08,103.44,52.13a73,73,0,0,1-41.52,80.05,72.25,72.25,0,0,1-30.92,6.53q-32.58-.16-65.18-.3a22,22,0,0,1-2.57-.14,5,5,0,0,1-3.63-7.89,13.77,13.77,0,0,1,1.83-2.07l14.65-14.49A2.26,2.26,0,0,0,157.48,261.51Zm55.67-52.68h-29.5a19.56,19.56,0,0,0-2.76.15,5,5,0,0,0-4.21,4.58c-.24,3.56,2.14,5.68,6.45,5.68q29.9,0,59.8,0a12,12,0,0,0,2.54-.26,5.09,5.09,0,0,0,3.32-7.45c-1.28-2.27-3.37-2.72-5.74-2.71C233.09,208.85,223.12,208.83,213.15,208.83ZM213,198.38h29.69a19.77,19.77,0,0,0,2.18-.06,5.09,5.09,0,0,0,4.6-4.88,5,5,0,0,0-4-5.15,12.6,12.6,0,0,0-2.74-.26q-29.69,0-59.38,0a12.09,12.09,0,0,0-2.55.22,5,5,0,0,0-4.07,5.83c.39,2.63,2.56,4.28,5.77,4.29Q197.72,198.4,213,198.38ZM213,240H242.7a17,17,0,0,0,2.37-.08,5.1,5.1,0,0,0,4.36-4.89,5,5,0,0,0-3.83-5.08,12,12,0,0,0-2.73-.29q-29.79,0-59.58,0a12,12,0,0,0-2.93.32,5,5,0,0,0-3.12,7.25c1.14,2.09,3,2.79,5.28,2.79Q197.76,240,213,240Z"/><path class="cls-3" d="M193.2,297.27c6.34,0,12.34,0,18.35,0,12.44,0,24.49-2,35.73-7.47,26.66-12.84,42.73-33.88,48-63,2.12-11.81,1.15-23.52-2-35.13,10.24,4.86,22.79,30.19,24,49.37A70.59,70.59,0,0,1,300,292.7c5.07,5.28,10,10.36,14.85,15.46a13.1,13.1,0,0,1,1.78,2.11,5.07,5.07,0,0,1-3.8,7.72c-1.11.12-2.24.06-3.36.07l-63.79.35a74.84,74.84,0,0,1-25.1-4,73,73,0,0,1-26.36-16C193.92,298.14,193.65,297.79,193.2,297.27Z"/><path class="cls-1" d="M213.15,208.83c10,0,19.94,0,29.9,0,2.37,0,4.46.44,5.74,2.71a5.09,5.09,0,0,1-3.32,7.45,12,12,0,0,1-2.54.26q-29.91,0-59.8,0c-4.31,0-6.69-2.12-6.45-5.68a5,5,0,0,1,4.21-4.58,19.56,19.56,0,0,1,2.76-.15Z"/><path class="cls-1" d="M213,198.38q-15.24,0-30.48,0c-3.21,0-5.38-1.66-5.77-4.29a5,5,0,0,1,4.07-5.83,12.09,12.09,0,0,1,2.55-.22q29.68,0,59.38,0a12.6,12.6,0,0,1,2.74.26,5,5,0,0,1,4,5.15,5.09,5.09,0,0,1-4.6,4.88,19.77,19.77,0,0,1-2.18.06Z"/><path class="cls-1" d="M213,240q-15.25,0-30.49,0c-2.29,0-4.14-.7-5.28-2.79a5,5,0,0,1,3.12-7.25,12,12,0,0,1,2.93-.32q29.79,0,59.58,0a12,12,0,0,1,2.73.29,5,5,0,0,1,3.83,5.08,5.1,5.1,0,0,1-4.36,4.89,17,17,0,0,1-2.37.08Z"/></g></svg>