<svg id="Calque_1" data-name="Calque 1" xmlns="http://www.w3.org/2000/svg" viewBox="0 0 480 480"><defs><style>.cls-1{fill:#ffd258;}.cls-2{fill:#adccff;}.cls-2,.cls-3,.cls-5{stroke:#020202;stroke-miterlimit:10;}.cls-3{fill:#fffbf2;}.cls-4{fill:#fff;}.cls-5{fill:#73b7a4;}</style></defs><title>Beautéé</title><rect class="cls-1" x="43.51" y="56" width="391.54" height="391.54" rx="79.16" ry="79.16"/><g id="lqkedl.tif"><path class="cls-2" d="M317.5,254q0,42.27,0,84.53a22,22,0,0,1-16.74,21.71,28.59,28.59,0,0,1-6.85.74q-56.71.07-113.42,0c-14.06,0-23.49-9.5-23.49-23.54q0-83.92,0-167.85c0-10.51,6.66-19.29,16.62-21.8a28.18,28.18,0,0,1,6.85-.78q56.84-.08,113.66,0c13.91,0,23.37,9.54,23.37,23.41Q317.52,212.21,317.5,254Zm-142.7-9.17v74.26c0,4.88,1.33,6.2,6.25,6.21H293.52c4.88,0,6.18-1.32,6.18-6.26V171.21c0-5-1.39-6.4-6.37-6.41H181.1c-4.85,0-6.3,1.44-6.3,6.23Zm62.4,85.05a8.93,8.93,0,0,0-8.9,8.95,9,9,0,0,0,17.9-.09A8.93,8.93,0,0,0,237.2,329.87Z"/><path class="cls-3" d="M174.8,244.82V171c0-4.79,1.45-6.23,6.3-6.23H293.33c5,0,6.37,1.41,6.37,6.41V319c0,4.94-1.3,6.26-6.18,6.26H181.05c-4.92,0-6.25-1.33-6.25-6.21Z"/><path class="cls-4" d="M237.2,329.87a8.93,8.93,0,0,1,9,8.86,9,9,0,0,1-17.9.09A8.93,8.93,0,0,1,237.2,329.87Z"/></g><path class="cls-5" d="M248.07,276.82c-2.3-.39-3.88-.31-5.11-.93-3.86-1.92-7.41-1.52-11.39-.05-5.14,1.89-10.06.88-13.7-3.61-7.73-9.51-12.45-20.05-9.16-32.53,3.16-12,12-16.4,23.93-13.51,3.58.86,7.76.17,11.48-.64,7.42-1.62,13.25.18,17.7,6.1,2,2.64,2.06,4.33-1,6.61-2.29,1.7-5,5.19-4.66,7.46.39,2.64,4,4.77,6,7.23,1.11,1.32,3,3.18,2.74,4.27-2,7.06-5.34,13.47-11.56,17.77C251.68,276.15,249.38,276.39,248.07,276.82Z"/><path class="cls-5" d="M236.7,216.52c0-8,6.44-14.61,12.8-14.93,3.35-.17,4.53,1.46,4.24,4.61-.57,6-6.27,12.13-12.33,12.42C239.66,218.71,237.81,217.05,236.7,216.52Z"/></svg>