<svg id="Calque_1" data-name="Calque 1" xmlns="http://www.w3.org/2000/svg" viewBox="0 0 480 480"><defs><style>.cls-1{fill:#ffd258;}.cls-2{fill:#fbcec6;stroke:#070707;}.cls-2,.cls-3{stroke-miterlimit:10;}.cls-3{fill:#ff5f7d;stroke:#050505;}</style></defs><title>Beautéé</title><rect class="cls-1" x="33.64" y="53.56" width="391.54" height="391.54" rx="79.16" ry="79.16"/><g id="A0HqIW.tif"><path class="cls-2" d="M346.76,207a105.61,105.61,0,0,1,6.11,30.35c.05,1-.94,2.4-1.83,3.17A134.42,134.42,0,0,1,311.22,264a178.71,178.71,0,0,1-48.81,10.94A229.17,229.17,0,0,1,204.62,273c-26.38-4.4-50.65-13.74-71.79-30.56-3-2.4-4.05-4.72-3.58-8.61a129.22,129.22,0,0,1,5.91-26.65,3.53,3.53,0,0,1,.82.52c15,18.45,34.77,29.43,57.33,35.77,19.77,5.56,40,6.89,60.39,5.71,16.4-.95,32.39-3.88,47.75-9.79C319.17,232.58,334.54,222.36,346.76,207Z"/><path class="cls-3" d="M352.38,256.69c-1.4,11.68-4.9,22.36-9.5,32.76a11.75,11.75,0,0,1-6.43,6.37A213.76,213.76,0,0,1,275,313.08a271,271,0,0,1-60.58.86c-24.62-2.38-48.32-8.39-70.69-19.13a8.26,8.26,0,0,1-3.52-3.5c-5.72-11.48-9.83-25.38-10.4-34.61.64.4,1.21.71,1.73,1.09,19.79,14.12,41.92,22.58,65.65,27.21a234.51,234.51,0,0,0,60.7,3.44c30.47-2,59.44-9.35,85.59-25.82C346.36,260.77,349.21,258.79,352.38,256.69Z"/><path class="cls-3" d="M157.71,168.78c2.95,4.85,5.46,9.95,8.86,14.36,8.94,11.62,21.32,18.26,35.17,21.94,28.07,7.45,56.19,7.49,83.91-1.62,14.65-4.82,26.73-13.42,34.45-27.23,1.38-2.46,2.5-5,4.11-8.34.48.82.81,1.49,1.23,2.09q7.14,10.38,14.3,20.72c1,1.43.85,2.6-.16,4A83.13,83.13,0,0,1,315.14,218c-15.55,9.66-32.64,14.78-50.69,17a184.44,184.44,0,0,1-53.75-1,121.43,121.43,0,0,1-41.42-14.6,84.66,84.66,0,0,1-26.86-24.61,3.37,3.37,0,0,1-.22-4.06,118.05,118.05,0,0,1,15-21.46A3.76,3.76,0,0,1,157.71,168.78Z"/><path class="cls-2" d="M194.91,141.42c-1.71,12.84,7.18,20.38,16.17,23.89a80.51,80.51,0,0,0,19.75,4.92c12.66,1.48,25.34.87,37.4-3.82a48.69,48.69,0,0,0,11.42-6.48c5.9-4.43,7.86-9.85,7.5-18.64,3.38,1.77,6.72,3.25,9.76,5.18,4.84,3.07,9.45,6.5,14.25,9.66,1.67,1.11,1.68,2.43,1.25,4.07a38.53,38.53,0,0,1-11.47,19.24c-9.05,8.15-19.94,12.6-31.69,14.92a139.92,139.92,0,0,1-62.64-1.4,59.9,59.9,0,0,1-24.36-12.17,38.42,38.42,0,0,1-12.75-21,3,3,0,0,1,1.21-3.6A113.46,113.46,0,0,1,194.91,141.42Z"/><path class="cls-2" d="M327.36,313.85c-46.72,56.91-129.86,53.68-172.51.08,28,10.35,56.8,14.44,86.2,14.43S299.11,324.3,327.36,313.85Z"/><path class="cls-3" d="M240.93,157.71c-8.71-.13-17.31-.94-25.31-4.73a22.12,22.12,0,0,1-5.74-3.87c-2.93-2.8-2.9-6.14,0-9a16.25,16.25,0,0,1,5.08-3.53,67.38,67.38,0,0,1,52,0A16.36,16.36,0,0,1,272,140c3,2.92,3.22,6.57-.06,9.11a31,31,0,0,1-10.63,5.67c-6.63,1.74-13.52,2.44-20.31,3.58Z"/></g></svg>