<svg id="Calque_1" data-name="Calque 1" xmlns="http://www.w3.org/2000/svg" viewBox="0 0 480 480"><defs><style>.cls-1,.cls-4{fill:#ffd258;}.cls-2{fill:#73b7a4;stroke:#020202;}.cls-2,.cls-4{stroke-miterlimit:10;}.cls-3{fill:#fff;}.cls-4{stroke:#0a0a0a;stroke-width:3px;}.cls-5{fill:#daecff;}</style></defs><title>Voiture</title><rect class="cls-1" x="43.65" y="56.53" width="391.54" height="391.54" rx="79.16" ry="79.16"/><g id="IUvIMg.tif"><path class="cls-2" d="M240.44,357.48A112.14,112.14,0,0,1,128.6,243.69c1-60,49.77-110.27,112.18-110.17,63.55.09,113,52.43,111.84,114A112.15,112.15,0,0,1,240.44,357.48Zm.18-196c-46.09,0-84,37.59-84,83.42a84.06,84.06,0,0,0,83.86,84.56c46.15.18,84.11-37.63,84.13-83.8A84.1,84.1,0,0,0,240.62,161.49Z"/><path class="cls-3" d="M240.62,161.49a84.1,84.1,0,0,1,84,84.18c0,46.17-38,84-84.13,83.8a84.06,84.06,0,0,1-83.86-84.56C156.67,199.08,194.53,161.49,240.62,161.49Zm74.63,84a74.64,74.64,0,1,0-74.71,74.61A74.59,74.59,0,0,0,315.25,245.49Z"/><path class="cls-4" d="M315.25,245.49a74.64,74.64,0,1,1-74.7-74.63A74.58,74.58,0,0,1,315.25,245.49Zm-74.88-65.62c-6.23,1.17-12.62,2.21-18.92,3.61-3.16.7-4.09,2.31-3.87,5.49a36.68,36.68,0,0,0,8.12,21.35c7.59,9.22,19.42,10,28.07,1.78,6.26-6,8.91-13.72,9.81-22.12.46-4.28-.57-5.93-4.73-6.83C252.85,181.86,246.77,181,240.37,179.87Zm0,131.59c6.33-1.14,12.73-2.13,19-3.5,3.53-.76,4.47-2.38,4.17-6a37.07,37.07,0,0,0-8-20.87c-7.2-8.87-18.48-10.11-27.14-2.72-7.2,6.14-10,14.52-10.85,23.65-.34,3.6.65,5.18,4.21,6C227.89,309.32,234,310.29,240.41,311.46Zm-46-61A42.87,42.87,0,0,0,180,254c-2.69,1.24-3.8,3-3.26,5.51a64.31,64.31,0,0,0,18.89,33.63,4.48,4.48,0,0,0,6.7-.13c5.71-6.07,10.34-12.83,12.51-21,2.31-8.69-1.19-15.87-9.61-19C201.79,251.66,198,251.24,194.39,250.42Zm-.95-9.19c4.14-.72,7.25-.95,10.17-1.83,9-2.69,13.26-9.38,11.46-18.46S208.18,204.8,202,198.38c-1.85-1.92-4.5-1.56-6.67.54A63.94,63.94,0,0,0,177,231c-.86,3.67-.1,5.72,3.43,6.88C185,239.36,189.71,240.29,193.44,241.23Zm95.07.14c4.43-1.29,8.71-2.3,12.81-3.78,2.76-1,3.71-3,3.15-5.52a64.06,64.06,0,0,0-19-33.57,4.44,4.44,0,0,0-6.5.11c-5.77,6.13-10.48,12.95-12.63,21.22-2.24,8.61,1.22,15.79,9.55,18.86C279.86,240.15,284.24,240.5,288.51,241.37Zm.25,8.37c-4,.64-7.8.82-11.33,1.88-8.92,2.68-13,9.35-11.28,18.34s6.87,16.13,13.06,22.58c1.83,1.9,4.57,1.57,6.69-.47A63.94,63.94,0,0,0,304.18,260c.9-3.8.1-5.72-3.6-7C296.7,251.64,292.63,250.79,288.76,249.74Zm-48.23,14.33A18.59,18.59,0,1,0,222,245.27,18.46,18.46,0,0,0,240.53,264.07Z"/><path class="cls-5" d="M240.37,179.87c6.4,1.11,12.48,2,18.48,3.28,4.16.9,5.19,2.55,4.73,6.83-.9,8.4-3.55,16.16-9.81,22.12-8.65,8.26-20.48,7.44-28.07-1.78A36.68,36.68,0,0,1,217.58,189c-.22-3.18.71-4.79,3.87-5.49C227.75,182.08,234.14,181,240.37,179.87Z"/><path class="cls-5" d="M240.41,311.46c-6.37-1.17-12.52-2.14-18.59-3.48-3.56-.79-4.55-2.37-4.21-6,.86-9.13,3.65-17.51,10.85-23.65,8.66-7.39,19.94-6.15,27.14,2.72a37.07,37.07,0,0,1,8,20.87c.3,3.63-.64,5.25-4.17,6C253.14,309.33,246.74,310.32,240.41,311.46Z"/><path class="cls-5" d="M194.39,250.42c3.62.82,7.4,1.24,10.84,2.53,8.42,3.17,11.92,10.35,9.61,19-2.17,8.17-6.8,14.93-12.51,21a4.48,4.48,0,0,1-6.7.13,64.31,64.31,0,0,1-18.89-33.63c-.54-2.46.57-4.27,3.26-5.51A42.87,42.87,0,0,1,194.39,250.42Z"/><path class="cls-5" d="M193.44,241.23c-3.73-.94-8.45-1.87-13-3.37-3.53-1.16-4.29-3.21-3.43-6.88a63.94,63.94,0,0,1,18.26-32.06c2.17-2.1,4.82-2.46,6.67-.54,6.22,6.42,11.33,13.62,13.11,22.56s-2.44,15.77-11.46,18.46C200.69,240.28,197.58,240.51,193.44,241.23Z"/><path class="cls-5" d="M288.51,241.37c-4.27-.87-8.65-1.22-12.62-2.68-8.33-3.07-11.79-10.25-9.55-18.86,2.15-8.27,6.86-15.09,12.63-21.22a4.44,4.44,0,0,1,6.5-.11,64.06,64.06,0,0,1,19,33.57c.56,2.53-.39,4.52-3.15,5.52C297.22,239.07,292.94,240.08,288.51,241.37Z"/><path class="cls-5" d="M288.76,249.74c3.87,1,7.94,1.9,11.82,3.27,3.7,1.29,4.5,3.21,3.6,7a63.94,63.94,0,0,1-18.28,32.05c-2.12,2-4.86,2.37-6.69.47C273,286.09,267.9,278.91,266.15,270s2.36-15.66,11.28-18.34C281,250.56,284.76,250.38,288.76,249.74Z"/><path class="cls-5" d="M240.53,264.07a18.59,18.59,0,1,1,18.69-18.38A18.46,18.46,0,0,1,240.53,264.07Z"/></g></svg>