<?xml version="1.0" encoding="utf-8"?>
<!-- Generator: Adobe Illustrator 22.1.0, SVG Export Plug-In . SVG Version: 6.00 Build 0)  -->
<svg version="1.1" id="Calque_1" xmlns="http://www.w3.org/2000/svg" xmlns:xlink="http://www.w3.org/1999/xlink" x="0px" y="0px"
	 viewBox="0 0 1920 951" style="enable-background:new 0 0 1920 951;" xml:space="preserve">
<style type="text/css">
	.st0{opacity:0.84;fill:#FFFDF6;}
	.st1{fill:#606060;}
	.st2{fill:#2F4948;}
	.st3{fill:#172D2B;}
	.st4{fill:#586B6A;}
	.st5{fill:#385E5B;}
	.st6{fill:#3C514F;}
	.st7{opacity:0.51;fill:#DAD5D2;}
	.st8{opacity:0.77;fill:#66605A;}
	.st9{opacity:0.77;fill:#485E60;}
	.st10{opacity:0.77;fill:#C9B293;}
	.st11{opacity:0.77;fill:#6A6561;}
	.st12{opacity:0.77;fill:#A2B0B0;}
	.st13{opacity:0.77;fill:#948D83;}
	.st14{opacity:0.36;fill:#FFFFFF;}
	.st15{opacity:0.36;}
	.st16{fill:#E8C085;}
	.st17{opacity:0.79;fill:#FFEDE2;}
	.st18{fill:#B7C2C6;}
	.st19{fill:#25323B;}
	.st20{fill:#BBBBBC;}
	.st21{fill:#FEDED2;}
	.st22{fill:#FFD7D3;}
	.st23{fill:#EEA987;}
	.st24{fill:#102F40;}
	.st25{fill:#282828;}
	.st26{fill:#295173;}
	.st27{fill:#3B6363;}
	.st28{fill:#0E2D3C;}
	.st29{fill:none;stroke:#CFD5D5;stroke-width:18;stroke-miterlimit:10;}
	.st30{fill:none;stroke:#93A29F;stroke-width:24;stroke-miterlimit:10;}
	.st31{opacity:0.69;fill:#375F5F;}
	.st32{fill:#A3B4BC;}
	.st33{fill:#CFD5D5;}
	.st34{fill:#B0CDC8;}
	.st35{fill:#33484B;}
	.st36{fill:#FFFFFF;}
	.st37{fill:#FF921E;}
	.st38{fill:#485E60;}
	.st39{fill:#FFD648;}
	.st40{fill:#F9A69E;}
	.st41{fill:#F2DA99;}
	.st42{fill:#AFAFAF;}
	.st43{fill:#C19F72;}
	.st44{fill:#EAE0C5;}
	.st45{fill:#434444;}
	.st46{fill:url(#SVGID_1_);}
	.st47{fill:#F8F1E1;}
	.st48{fill:#D7DAD1;}
	.st49{fill:#564636;}
	.st50{fill:#FFFCF5;}
	.st51{fill:#606061;}
	.st52{fill:#E0CDC7;}
	.st53{fill:#EEA886;}
	.st54{fill:#FDFDF1;}
	.st55{opacity:0.57;fill:none;stroke:#CFD5D5;stroke-width:18;stroke-miterlimit:10;}
	.st56{opacity:0.34;fill:none;stroke:#CFD5D5;stroke-width:18;stroke-miterlimit:10;}
	.st57{fill:#FFFDF6;}
	.st58{fill:#637A78;}
</style>
<g id="VMNl6p.tif">
	<image style="overflow:visible;" width="1920" height="951" id="Layer_0_4_" xlink:href="1BF200811E45E2A5.png" >
	</image>
</g>
<path class="st0" d="M1922,487.5c-2.4-12.3-4.6-25.2-7.2-39.4c-13.3-74.1-17.7-82.4-23.8-90.3c-26.6-34.6-70.3-41.3-78.2-42.5
	c-25.7-4-36.7,2.2-83,11.9c-75.6,15.8-113.5,23.7-150.7,9.5c-40.8-15.6-33.8-34.9-70-49.8c-78-32.2-129.8,59.4-249.1,54.6
	c-66.3-2.7-93.1-32.7-128.1-30.3c-7.4,0.5-14.8,2.6-22.9,6c-37.2,15.6-52.6,53.5-58.2,67.4c-11.6,28.6-11.8,53.9-11.5,63.7
	c2.6,78.8,72.5,103.6,59.3,161.3c-9.8,42.8-43.6,37.2-66.4,92.5c-22.4,54.5,5.1,111.9,9.5,121c20.5,42.8,53.8,64.1,67.9,72.9
	c65,40.6,136,31.5,169.3,26.7c61-8.7,114.2-33.8,173.2-61.7c0,0,77.4-35.2,132.9-30.8c35.2,2.8,42.2,12.9,85.4,26.1
	c70.6,21.6,173.8,16,196.9,11.9c22.4-4,40.6-9.2,52.7-13C1920.7,732.5,1921.3,610,1922,487.5z"/>
<path class="st7" d="M1285.3,775.4H1117c-1-153.5-2-306.9-3-460.4c7-1.8,17.5-3.8,30-3c17.7,1.1,22.2,6.6,47,15
	c12.7,4.3,40.2,12.6,74,14c8.4,0.3,15.3,0.2,20,0C1285.1,485.8,1285.2,630.6,1285.3,775.4z"/>
<rect x="1119.1" y="482.4" class="st7" width="166.2" height="343.8"/>
<path class="st8" d="M1397.9,538.7c13.3,7.4,18.5,9.8,19,9.1c0.8-1.2-15-12.1-14.1-13.5c0.5-0.8,5.7,1.6,9.3,4.1
	c2.3,1.6,4.8,3.3,6.4,6.4c0.5,0.9,0.6,1.4,1.2,2.1c1.8,2.4,4.7,2.9,6.4,3.3c3.6,0.9,2.4,1.5,9.7,4.6c9.5,4.1,14.1,4.1,17,8.5
	c0.3,0.5,1.6,2.3,1,3.1c-0.6,0.9-3.2,0-5.2-0.8c-6.6-2.6-16.3-8-23.6-12.3c-0.2,0.2-0.5,0.4-0.7,0.6c0.9,1.3,2.5,3.7,4.3,6.8
	c6.1,10,14.1,23.3,10.7,28.5c-0.2,0.3-0.9,1.4-1.8,1.4c-1.6-0.1-2.6-3.4-3.3-5.7c0,0-3.8-12-11.6-26.9c-0.1-0.2-0.2-0.4-0.5-0.8
	c-2.8-5.2-3.6-5.8-4.4-6.1c-0.8-0.3-1,0-2.3-0.1c-2.5-0.1-4.3-1.1-6.3-2.3c-9.3-5.3-11.1-6.3-11.3-8.4
	C1397.6,539.6,1397.8,539,1397.9,538.7z"/>
<path class="st9" d="M1479.5,711c0,0.7,0.1,1.3,0.1,2c0.4,6.4,0.7,9.1-0.8,12.4c-0.6,1.2-1.6,3.6-4.1,5.4c-4.3,3.1-9.7,2.2-9.8,3.3
	c-0.1,0.6,1.7,1.3,2.2,1.4c5.4,1.9,11.8,1.2,16.4,0.2c0.3,0.4,0.6,0.7,0.8,1.1c1.9,0.1,3.7,0.2,5.6,0.2c0.2-0.4,0.4-1,0.6-1.7
	c0.6-2.5-0.3-4.5-0.7-6.2c-0.2-1-0.1-0.8,0-7.2c0-3.7,0-7.4,0-11.1C1486.4,710.9,1482.9,710.9,1479.5,711z"/>
<path class="st9" d="M1525.8,716.1c-1.2-3.6-1.6-5.2-2.5-7.9c-0.1,0.1-0.3,0.1-0.4,0.2c-3.5,1.6-6.7,3.2-10,5.2c0,0-0.1,0-0.2,0
	c0.2,0.6,0.4,1.2,0.6,1.9c3.6,10.7,3.8,11.5,3.3,12.9c-2.5,7.3-14.9,8.7-14.4,11.6c0.2,1.2,2.5,1.7,4.1,2c5,1.1,9.8-1,11.7-2
	c2.6-1.3,4.5-3,5.6-2.3c0.6,0.4,0.4,1.2,0.8,1.8c0.8,0.9,3,1.1,9.3-1.6c0-1,0-1.9,0-2.9C1531.7,730.9,1528.7,724.4,1525.8,716.1z"/>
<path class="st10" d="M1451.3,580.3c0.1-0.1-0.1-0.4,0-0.5c0.1,0,0.2,0,0.2,0c0-0.1,0-0.2,0-0.2c0.1,0,0.2,0,0.2,0
	c0-0.1,0-0.2,0-0.2c0.1,0,0.2,0,0.2,0c0-0.1,0-0.2,0-0.2c0.2-0.2,0.5-0.4,0.6-0.5c1.1-1.4,2.4-2.4,3.3-3.8c-0.7-0.8-1.7-1.8-2.9-3.1
	c-1.9-2-2.7-2.7-3.3-4.3c-1.3-3.3,0.2-4.9-1.4-7.2c-1.6-2.2-4.5-2.7-5.3-2.9c-0.3-0.1-1.6-0.3-3.2,0c-0.8,0.1-4,0.7-4.3,2.2
	c-0.2,0.9,0.7,1.7,2.5,3.2c1.4,1.3,2.5,2.3,4.2,2.5c1.3,0.2,1.6-0.2,2.5,0.1c1,0.4,1.7,1.3,2.4,3.2c1.1,2.9,0.8,4.7,1.1,6.5
	c0.4,2.2,1.5,3.9,3,5.4c0,0,0-0.1,0-0.1C1451.1,580.3,1451.2,580.3,1451.3,580.3z"/>
<path class="st10" d="M1492.4,572.7c0.1-0.2-0.1-0.5,0.1-0.7c0.3-0.5,0.1-0.7,0.2-1c0.1,0,0.2,0,0.2,0c0.1-0.2-0.1-0.5,0-0.7
	c0.1-0.1,0.2-0.1,0.2-0.2c0.1-0.2-0.1-0.4,0-0.5c0.2-0.4,0.5-0.7,0.5-1.2c0-0.1,0.2-0.2,0.2-0.2c0.1-1.2,0.1-2.4,0-3.6
	c-0.1-0.1-0.2-0.1-0.2-0.2c-0.1-0.2,0.1-0.4,0-0.5c-0.4-0.4-0.5-1-0.6-1.4c-0.2-0.7-0.7-1.2-0.8-1.9c-0.1,0-0.2,0-0.2,0
	c0-0.1,0-0.2,0-0.2c-1.3-0.7-2.2-1.7-3.6-2.2c0-0.1,0-0.2,0-0.2c-0.1-0.1-0.4,0.1-0.5,0c-0.4-0.3-0.5-0.8-1-0.9
	c-2.1-0.2-4.1-0.1-6.2-0.1c-0.1,0-0.2,0.2-0.2,0.2c-0.7-0.1-1.1,0.2-1.7,0.4c-0.2,0.1-0.3,0.1-0.5,0.1c-0.6,1.5-2.5,3.7-3.7,6.6
	c-2.3,5.9-0.8,12.9,2.5,15.9c0.7,0.6,1.7,1.5,3.2,1.8c2.3,0.4,3.7-1.1,4.7-0.4c1,0.7,1.1,3.2-0.1,4.4c-0.1,0.1-0.1,0.1-0.2,0.1
	c1,0,2.1-0.1,3.2,0.2c1.3,0.2,2.6-0.1,3.8,0.2c0.6,0.1,1.2,0.1,1.8,0.1c-0.4-0.2-0.7-0.4-1.1-0.8c-1.1-1.2-1.1-2.8-1.1-5.9
	c0-2.9,0.1-4.6,0.8-5.8c0-0.4,0-0.7,0-1.1C1492.2,572.9,1492.4,572.8,1492.4,572.7z"/>
<path class="st11" d="M1501.7,558.4c-0.6-3.2-3.7-5.2-9.9-8.9c-1.5-0.9-7.7-4.6-8.6-3.5c-0.5,0.6,0.6,2.1,0.4,2.3
	c-0.4,0.2-3.1-3.9-3.5-3.7c-0.4,0.2,1.8,4.2,1.2,4.7c-0.7,0.5-3.8-3.4-4.8-2.8c-0.4,0.3,0.1,1.1-0.5,2.8c-0.3,0.9-1,2-1,2
	c0,0,2-0.2,2-0.1c0,0.1-3.2,0.2-3.5,1.3c-0.1,0.6,0.5,1.2,0.8,1.6c1.7,1.7,3.3,1.2,3.9,2c0.3,0.4,0.2,0.9,0,1.4c0.2,0,0.3,0,0.5-0.1
	c0.6-0.2,1-0.5,1.7-0.4c0.1,0,0.2-0.2,0.2-0.2c2.1-0.1,4.1-0.1,6.2,0.1c0.5,0.1,0.5,0.6,1,0.9c0.1,0.1,0.4-0.1,0.5,0
	c0,0.1,0,0.2,0,0.2c1.4,0.5,2.3,1.5,3.6,2.2c0,0.1,0,0.2,0,0.2c0.1,0,0.2,0,0.2,0c0.2,0.7,0.6,1.3,0.8,1.9c0.1,0.5,0.2,1,0.6,1.4
	c0.1,0.1-0.1,0.3,0,0.5c0.1,0.1,0.2,0.2,0.2,0.2c0.1,1.2,0.1,2.4,0,3.6c-0.1,0.1-0.2,0.2-0.2,0.2c0,0.5-0.2,0.8-0.5,1.2
	c-0.1,0.1,0.1,0.3,0,0.5c-0.1,0.1-0.2,0.1-0.2,0.2c-0.1,0.2,0.1,0.5,0,0.7c-0.1,0-0.2,0-0.2,0c-0.1,0.3,0.1,0.5-0.2,1
	c-0.1,0.1,0,0.4-0.1,0.7c-0.1,0.1-0.2,0.2-0.2,0.2c0,0.4,0,0.7,0,1.1c0.1-0.2,0.3-0.4,0.5-0.6c1.2-1.2,2.2-0.7,3.2-2
	c1.1-1.4,0.4-2.3,1.4-3.9c0.9-1.5,1.9-1.4,3-2.6C1502.4,562.4,1501.7,558.7,1501.7,558.4z"/>
<path class="st12" d="M1505.6,629.9c-2-3.6-3.2-6.4-5.7-12c-1.9-4.2-3.3-7.8-1.9-11c0.6-1.4,1.2-1.4,2-3.2c1.7-3.7,1.1-7.4,1-8
	c-0.2-0.9-1.3-6.3-5.4-8.4c-0.8-0.4-1.4-0.5-2-0.8c-0.6,0-1.2,0-1.8-0.1c-1.3-0.3-2.5,0.1-3.8-0.2c-1.1-0.3-2.1-0.1-3.2-0.2
	c-1.4,1.1-3.8,0.2-10.6-1.7c-11.2-3.2-11.6-2.9-13.5-4.3c-1.8-1.3-1.3-1.5-4.7-5.3c-0.9,1.4-2.3,2.4-3.3,3.8
	c-0.1,0.1-0.4,0.4-0.6,0.5c0,0.1,0,0.2,0,0.2c-0.1,0-0.2,0-0.2,0c0,0.1,0,0.2,0,0.2c-0.1,0-0.2,0-0.2,0c0,0.1,0,0.2,0,0.2
	c-0.1,0-0.2,0-0.2,0c-0.1,0.1,0.1,0.4,0,0.5c-0.1,0-0.2,0-0.2,0c0,0,0,0.1,0,0.1c1.2,1.2,2.5,2.2,3.7,3.1c5.3,4,8.5,2.9,10.6,6.7
	c0.9,1.5,1,2.8,2.5,3.7c1.4,0.8,2.1,0.2,5.1,1.1c2.6,0.7,3.1,1.5,3.3,2c0.1,0.2,0.4,1.1,0,1.7c-0.7,0.8-2.4-0.2-4.9,0
	c-1.9,0.1-2.7,0.9-3.8,1.2c-3.1,0.9-5.8-2.3-13.9-8.6c-0.5,1.7-2.1,2.9-3.2,4.5c0,0.1,0,0.3,0,0.4c4.1,2.7,9.3,4.1,13.3,9.6
	c0.6,0.8,2.3,3.3,4.1,3.1c0.9-0.1,1.2-0.8,2.5-1.1c1.3-0.3,2.5,0,3,0.2c2.1,1,0.7,6.4,0.6,12.6c-0.2,7.5,1.4,16.2,3.6,21.7
	c0.3,0.7,0.9,2.2,1.3,4.3c0,0.2,0.1,0.4,0.1,0.6c3.7-0.2,7.3-0.9,11-1.9c0.3-0.1,0.7,0.1,1-0.1c0.9-0.4,1.9-0.7,2.9-0.7
	c1.3-0.1,2.6-0.5,3.8-1c1.2-0.4,2.5-0.8,3.8-0.9c0.2-0.1,0.3-0.2,0.5-0.2c0.5,0,1-0.1,1.4-0.2c0.2-0.1,0.5,0,0.7,0
	c0.2-0.1,0.5-0.2,0.7-0.2c0.2,0,0.5,0.1,0.7,0c1.2-0.5,2.5-0.3,3.7-0.6C1508.5,636.7,1507.5,633.2,1505.6,629.9z"/>
<path class="st10" d="M1453.8,591.4c-0.2-0.2-0.4-0.3-0.7-0.5c-5.9-4.5-8.5-6-9.3-8.7c-0.5-1.8-1.4-3.5-1.8-5.4
	c-0.1-0.6-0.3-1.5-1.1-2.3c-0.9-0.9-2.3-1.3-2.8-0.8c-0.6,0.6,0.8,2.4,0.4,2.8c-0.4,0.3-1.6-0.8-4.2-2c-2.4-1.1-2.7-0.9-2.8-0.8
	c-0.5,0.5,0.1,2.1,0.7,3.7c0.7,1.8,1,1.9,1,2.6c0,1.6-1.4,2.4-1,3.3c0.2,0.5,0.7,0.6,1.1,0.8c3.5,1.6,3.6,3.5,6.3,4.1
	c1.5,0.3,1.6-0.3,2.9,0.1c2.1,0.7,3.2,2.7,3.6,3.5c1.2,2.1,2.7,3.4,4.4,4.6c0-0.1-0.1-0.3,0-0.4
	C1451.7,594.3,1453.3,593.1,1453.8,591.4z"/>
<path class="st13" d="M1522.8,706.9c-3.9-11.2-7-14.3-9.6-20.6c-3.9-9.6,0.4-9.4-2.4-33c-0.6-4.8-1-8.6-1.6-11.8
	c-1.2,0.3-2.5,0.1-3.7,0.6c-0.2,0.1-0.5,0-0.7,0c-0.2,0.1-0.5,0.2-0.7,0.2c-0.2,0-0.5-0.1-0.7,0c-0.5,0.2-1,0.2-1.4,0.2
	c-0.2,0-0.3,0.2-0.5,0.2c-1.4,0.1-2.6,0.5-3.8,0.9c-1.3,0.4-2.5,0.8-3.8,1c-1,0.1-2,0.4-2.9,0.7c-0.3,0.1-0.7,0-1,0.1
	c-3.7,1-7.3,1.7-11,1.9c0.6,3.8,0.1,6.7-0.1,7.8c-1.3,7.5,0.8,9.7,0.1,30c-0.2,5.5-0.3,5.1-0.4,8.5c0,2.4,0,5.9,0.8,17.3
	c3.4,0,6.9,0,10.3,0c0,0,0-0.1,0-0.1c0-2,0-4.1,0-6.1c-0.5-3.9-1.1-9.6-1-16.5c0.2-10.9,2.3-26.2,5.3-26.3c2.2-0.1,5.6,8.5,6.1,15.9
	c0.2,3.3-0.1,5.6,1.1,9.5c1.1,3.5,2.6,5.3,4.2,7.7c1.1,1.6,1.7,2.9,7.1,18.7c0.1,0,0.1,0,0.2,0c3.3-2,6.6-3.6,10-5.2
	c0.1-0.1,0.3-0.1,0.4-0.2C1523.1,707.8,1523,707.4,1522.8,706.9z"/>
<path class="st14" d="M1259.6,616c0-0.1,0-0.2,0.1-0.4c0,0,0-0.1,0-0.1c-0.4-0.4-0.8-0.6-1.2-0.8C1259,615,1259.4,615.4,1259.6,616z
	"/>
<g id="_x38_LWSgx.tif_3_" class="st15">
	<g>
		<path class="st16" d="M1267.5,602.5c-0.6-0.2-1.3-0.4-2-0.5c0.1-1.5-0.1-3-1.4-4c-0.5-0.3-1-0.5-1.6-0.8c0.2-0.9,1.4-5.6,2.9-7.2
			c0.3-0.1,0.4-0.2,0.6-0.2c0.6,0.2,0.5,2.3,0.4,4.3c0.4-0.1,0.7-0.2,0.8-0.4c1.2-1.8,2.7-0.6,3.9-0.3c0.4,0.2,0.4,1.8,0.6,2.7
			c0,0.4,0.1,0.8,0.1,1.2c-0.2,0.4-0.2,0.6-0.3,1C1270.1,599.9,1268.8,601.3,1267.5,602.5z"/>
	</g>
</g>
<path class="st17" d="M1603,832.2h-540.1c-0.6-0.2-1.2-0.4-1.8-0.7c-6.8-2.6-13.1-5.5-19-8.7c-4.6-7.5-33.4-56.7-13.7-110.6
	c8.4-22.9,22.4-38.2,32-46.8c0-0.2,0.1-1,0.7-1.6c0.5-0.4,1.1-0.7,1.8-0.7c43.2-22.1,75.6-23.4,97.8-20.1
	c28.1,4.3,38.1,15.8,80.2,24.8c32.6,6.9,58.7,6.9,71.4,6.8c66.5-0.6,73.7-20.5,126.6-18c39.1,1.8,42.8,13.1,87.7,14.6
	c32.1,1.1,58.7-3.7,76.4-8.1c0.2,0,1.1,0,1.8,0.7c0.5,0.4,0.7,1,0.7,1.6C1604.6,721,1603.8,776.6,1603,832.2z"/>
<path class="st18" d="M1667.4,832.4h-80.8V338.5c7.7,2.3,16.9,4.5,27.5,5.5c22.4,2.1,41.1-1.7,53.4-5.5
	C1667.4,503.2,1667.4,667.8,1667.4,832.4z"/>
<g>
	<path class="st2" d="M1560.2,730c7.9-8.2,17.5-14.9,27.9-19.5"/>
</g>
<g>
	<path class="st2" d="M1557.3,729.6c-0.2-1.1,0.5-2.1,1.2-3c3.2-4.3,6.7-8.4,10.4-12.3"/>
</g>
<g>
	<path class="st2" d="M1557.2,728.7c-0.1-5.5,2.2-10.7,4.3-15.8c0.8-1.8,1.6-3.7,2.7-5.4"/>
</g>
<g>
	<path class="st2" d="M1548.3,728.2c-0.1-6.1,1.5-12,3.2-17.9c7.7-26.5,17.8-52.7,33.8-75.1"/>
</g>
<g>
	<path class="st2" d="M1539.4,727.9c0.3-25.8-4.7-51.7-14.5-75.6"/>
</g>
<g>
	<path class="st2" d="M1538.6,728.4c0.3-8.6,0.6-17.3-0.2-25.8c-0.5-5.9-1.6-11.6-2.5-17.5c-2.1-14-3-28.2-2.8-42.4"/>
</g>
<g>
	<path class="st2" d="M1540,728.6c0.5-8,1.6-16,3.3-23.9"/>
</g>
<g>
	<path class="st2" d="M1551,709c0.2-6.3,0.4-12.6,0.6-18.9c0.1-1.9,0.2-3.9,1.1-5.6"/>
</g>
<g>
	<path class="st2" d="M1545.8,693.6c3.6-3.3,7-6.9,10.1-10.6c2.8-3.3,5.4-6.9,6.8-11"/>
</g>
<g>
	<path class="st2" d="M1512.2,676.1c-1.1,12.6,1.5,25.6,7.6,36.8c2.6,4.9,6,9.6,7.1,15"/>
</g>
<g>
	<path class="st2" d="M1521.8,664.8c-3.6,21.4-1,43.8,7.4,63.8"/>
</g>
<g>
	<path class="st2" d="M1529.4,727.7c-0.9-3.9-1.8-8.2-0.2-11.9c1.1-2.6,3.3-5,2.7-7.7"/>
</g>
<path class="st3" d="M1560.5,710.5c-3.4-2.5,0.1-13.6,3.4-20.3c10.8-21.7,36.9-31.3,39.1-28.4c1.9,2.4-10.7,17.3-14.8,21.8
	c-1,1.1-3.6,3.8-6,8.1c-2.1,3.7-2.3,5.6-3.4,7.7C1574.9,707.3,1563.9,712.9,1560.5,710.5z"/>
<path class="st4" d="M1583.5,711.9c-1-2.5,2.7-6.6,6.3-8.4c3.8-1.9,7.5-1,11.1-0.2c4.5,1.1,7.7,3.2,14,7.6c4.5,3.1,4.6,3.7,4.5,4
	c-0.4,1.3-5.5,0.4-13.6-0.3C1589.9,713.2,1584.6,714.5,1583.5,711.9z"/>
<path class="st2" d="M1539,701.4c-0.5-6.4-0.8-7.9-0.2-8.2c1.1-0.4,3.7,2.7,4.8,5.8c0.3,0.9,1.1,3,0.6,5.6c-0.6,3.3-2.8,6.6-4,6.3
	C1539.5,710.7,1539.6,709,1539,701.4z"/>
<path class="st4" d="M1551.6,688.5c-1.4,0.5-3.6-1.7-4.7-3.6c-1.6-2.6-1.1-4.3-1.9-9.5c-0.9-5.6-2.2-7.4-1.5-7.9
	c1.2-0.8,5.9,3.2,8.2,8.2c0.3,0.6,1.7,3.7,1.5,7.7C1553.1,685.1,1553,688,1551.6,688.5z"/>
<path class="st2" d="M1579.7,638.5c-0.9-1-2.2-3.6,0.6-11.5c7.6-20.7,29.7-37.4,35.7-33.2c2,1.4,2,5,1.9,6.3
	c-0.1,4.5-2.7,6.4-6.5,12.3c-4.4,6.9-3.1,7.9-8.2,16.1c-2.9,4.5-4.3,6.8-6.8,8.6C1591.1,640.7,1582.7,642.1,1579.7,638.5z"/>
<path class="st2" d="M1531.6,652c-1.2-0.9,0.3-6.3,3.6-17.1c3.3-11.2,6.4-19.1,9.8-26.6c3.8-8.2,6.4-13.8,8.2-13.4
	c1.9,0.4,3.1,7.3,1.5,12.9c-0.7,2.3-1.6,3.5-2.1,6.8c-0.3,1.9-0.3,3.1-0.3,6.5c0,0,0,1.5-0.2,8.6
	C1551.9,639.2,1535.2,654.5,1531.6,652z"/>
<path class="st5" d="M1524.3,657.5c-11.9-23.8-18.2-37.9-21.5-45.7c-1.2-2.8-3.6-8.6-2.3-9.5c1.8-1.2,9.4,6.9,9.7,7.3
	c5.4,5.9,5.7,8.9,11.3,16c4.6,5.8,5,4.6,8.4,9.2c1.5,2.1,10.9,14.9,6.8,20.5C1534.2,658.8,1527.4,658.1,1524.3,657.5z"/>
<path class="st2" d="M1512.4,680.1c-2.9,0.5-5.6-2.7-9-6.6c-3.9-4.6-7.3-10.3-9.8-18.1c-1.9-5.9-5.5-16.9-1.9-19.4
	c2-1.4,5.5,0.6,9.7,2.9c2.7,1.5,9.3,5.3,13.9,13.6c1.5,2.8,3.9,7.1,3.9,13.1C1518.9,671.2,1516.7,679.4,1512.4,680.1z"/>
<path class="st2" d="M1561,669.5c2.4-5.9,2.9-7.5,3.6-7.4c1.2,0.1,2.1,4,1.7,7.4c-0.1,1-0.4,3.2-2,5.3c-2,2.7-5.5,4.6-6.5,3.8
	C1557.2,678.1,1558.1,676.6,1561,669.5z"/>
<path class="st6" d="M1525.3,684.7c-1,0.1-3.2,0-7.2-4.8c-10.6-12.7-13.2-32.8-8.4-35c1.6-0.7,4,0.7,4.8,1.2
	c2.9,1.7,3.1,4.1,5.6,8.7c2.9,5.4,4,5,7.4,11.3c1.9,3.5,2.8,5.3,3,7.5C1531,678.4,1528.7,684.2,1525.3,684.7z"/>
<rect x="1715" y="460.2" class="st19" width="162.6" height="217.4"/>
<g>
	<g>
		<path class="st19" d="M1758.3,519.7c-1.7-0.8-1.7-0.9-3.6-0.8c-0.8,0.1-1.5,0.6-1.5,1.5c-0.1,20.9-0.2,41.9-0.3,62.8
			c0,1.9,3,1.9,3,0c0.1-20.9,0.2-41.9,0.3-62.8c-0.5,0.5-1,1-1.5,1.5c0.7,0.1,1.4,0.2,2.1,0.3C1758.5,523.2,1760,520.6,1758.3,519.7
			L1758.3,519.7z"/>
	</g>
</g>
<g>
	<g>
		<path class="st20" d="M1745.8,530c-1.4,24.2-0.3,48.4,3,72.5c0.8,5.7,9.5,3.3,8.7-2.4c-3.2-23.2-4-46.7-2.7-70.1
			C1755.1,524.2,1746.1,524.3,1745.8,530L1745.8,530z"/>
	</g>
</g>
<g>
	<g>
		<path class="st20" d="M1753.1,606.7c27.3-0.2,54.5-0.4,81.8-0.6c5.8,0,5.8-9,0-9c-27.3,0.2-54.5,0.4-81.8,0.6
			C1747.3,597.8,1747.3,606.8,1753.1,606.7L1753.1,606.7z"/>
	</g>
</g>
<g>
	<g>
		<path class="st20" d="M1759.9,596.1c18.5,1.5,32.8-9.9,39.8-26.2c3.2-7.6,5.5-16.1,10.9-22.5c6.3-7.5,16.5-9.8,25.6-12
			c5.6-1.3,3.2-10-2.4-8.7c-8.5,2-17.2,4.2-24.3,9.5c-6.6,4.9-10.5,11.8-13.6,19.2c-3.2,7.5-5.5,15.9-11.1,22.2
			c-6.3,7.1-15.5,10.3-24.9,9.5C1754.1,586.6,1754.1,595.6,1759.9,596.1L1759.9,596.1z"/>
	</g>
</g>
<rect x="1488.6" y="784.2" class="st21" width="409.8" height="48.2"/>
<path class="st22" d="M1192.7,618.5c0.3,0,1.1,0.2,1.5-0.1c0.3,0,0.5-0.3,0.8-0.3c3.7,7.2,14.8,8.9,21.9,6.3c3.3-1,7.7-3.2,8.5-7.4
	c0.5-0.3,1.2-0.6,1.7-0.9c1-1.1,1.9-2.2,3.1-3.1c0.1,4.4-0.2,10.6-2,17.7c-2,7.9-5.4,13.6-7.9,17.6c-0.4,10.9-0.2,23.7,1.1,37.8
	c1.7,14.8,4.4,27.8,7.3,38.6c-4.6,0.1-9.5,0.2-14.4,0.6c-5.4,0.4-10.8,0.8-15.6,1.5c0.4-8,0.6-16.3,0.5-24.5
	C1198.9,671.8,1196.5,644,1192.7,618.5z"/>
<path class="st23" d="M1216.9,624.3c-7.3,2.6-18.2,0.6-21.9-6.3c4.4-2.7,9.4-5.1,7-9.3c-2.6-3.7-8.9-5.5-10.9-10.8
	c-6.1-8.8-8.1-18.7-5.2-26.9c9.5,6.2,20.5,8,31.4,6.4c-2.1,3.3,0.6,7.7-2.3,11c-0.4,1.3-4.1,10.1,0.7,19c3,5.7,7.9,8.4,9.7,9.3
	C1224.6,621.2,1220.2,623.6,1216.9,624.3z"/>
<path class="st24" d="M1202.1,608.7c2.9,4.7-3.6,7.2-8.3,10.2c0-0.5-0.1-0.8-0.1-1.3l-0.1-0.8c0,0,0.3,1,0.1,1.8
	c-0.5,0.8-2,1.2-6.9,0.5c1.2-4.5,2.4-9.2,3.5-14.4c0.3-2.3,0.7-4.7,1-6.8C1193.1,603.2,1199.5,605.1,1202.1,608.7z"/>
<path class="st25" d="M1188.1,800.8c4,8.8,6.4,16.9,8.3,24.4c0.9,0,1.8,0.1,2.8,0.1c5.6,0.2,11.1,0.6,16.7,1
	c-6.2-19.2-14.7-34.8-12.4-43.5c0.6-2.1,3.1-9.5,4.3-14.3c0.4-1,0.6-2.1,1.3-3.4c0.9-1.6,1.9-2.5,2.5-4.1c0.2-0.5,0.4-1.3,0.9-2.7
	c1.8-6.8,0.9-11.9,3.6-13.4c1-0.6,2.3-0.2,2.3-0.2c3.2,1.1,3.7,7.2,3.8,9c1.4,12,7,13.9,13.1,40.5c0.8,3.1,3.1,13.2,4.3,26.5
	c0.3,3.1,0.5,5.8,0.7,8.4c5.9,0.9,11.7,2,17.5,3.2c0.1,0,0.2,0,0.3,0.1c-0.1-17.9-1.1-27.7-2.3-33.3c-1.6-7.1-1.9-14.8-4-21.9
	c-1.4-5.3-3.3-9.3-2.5-12.2c-7.3,2.4-11.8-3-13.7-10.6c-2.3-10.1-4.9-20.5-7.2-30.6c-4.6,0.1-9.5,0.2-14.4,0.6
	c-5.4,0.4-10.5,0.8-15.6,1.5c-0.4,5.4-1,11.2-1.8,17.1c-0.8,5.7-1.7,11.2-2.6,16.4c-0.2,3.7-6.6,3.9-11.8,4
	c-0.1,1.8-0.2,3.9-0.3,5.9c-0.3,6.5-0.2,11.6,1.3,17.7C1184.7,793.5,1186.5,797.6,1188.1,800.8z"/>
<path class="st26" d="M1192.7,618.5c-0.9-2-1.5-3-1.5-3L1192.7,618.5z"/>
<path class="st27" d="M1183.7,622.5c0.5-0.3,0.9-0.6,0.9-0.6c0.3-0.2,0.4-0.3,0.4-0.3c0.4-0.2,0.6-0.4,0.6-0.4c1.7-1,4-1.9,7-2.5
	c3.8,19.6,6.8,43.4,7,70.7c0.2,28.1-2.6,52.7-6.1,72.8c-0.2,3.9-6.7,3.8-11.8,4c0.8-9.4,2.7-19,5.8-35c3.3-17.3,3.3-17,3.3-17.3
	c0.9-7,1.4-15.2,1.1-24.4c-0.7-16.1-4-29.5-7.3-39.6c-0.8,3.6-2,8.6-3.8,14.6c-3,9.9-4.8,13-3.2,14.8c3.4,3.9,16.9-5.6,21.4-1.1
	c2,2,1.4,5.9,0.6,8.8c-3.4,1.4-25.2,10.2-32.1,2.1c-1.3-1.5-1.8-3.3-2.1-7.3c-0.8-10.5,1.1-17.1,6.9-38.8
	C1172.6,643.1,1176.7,627.4,1183.7,622.5z"/>
<path class="st23" d="M1230.9,611.7c-0.2,0.3-0.5,0.6-0.7,1.1c-1.2,1.1-2.2,2.2-3.1,3.1c-3.8,3.6-10.2-1.5-13.9-5.9l-0.3,0
	c2.4,0.9,5.8,1.6,9.7,1.8C1225.5,612.1,1228.6,612.1,1230.9,611.7z"/>
<path class="st28" d="M1258.5,597.1c0.2-0.6,0.3-1.1,0.5-1.7C1258.8,596,1258.7,596.6,1258.5,597.1z"/>
<path class="st28" d="M1213,583.1c-2.2,1.2-5.3,1.2-18.1-4c-4.3-1.7-7.8-3.5-10.4-4.6c0.4-2.1,1.2-5,3.3-8
	c0.9-1.3,6.7-10.1,16.3-9.7c7.5,0.2,12.6,6.3,14.6,8.9c5.4,6.8,5.7,14.2,6.1,19.4c0.6,11.6-2.8,20.8-5.7,26.5l0,0
	c-5.4-3.4-8.4-9.1-8.1-14.9c0.5-4.4,2.8-7.4,4-8.8c0.4-1.1,1.3-2.7,1.5-4.5c0.1-1.5-0.3-3.3,0.2-4.7c0.2-0.5,0.4-1.1,0.7-1.6
	c-0.2,0.5-0.4,1.1-0.7,1.6C1215.4,581.7,1214,582.8,1213,583.1z"/>
<path class="st27" d="M1238.5,612.7c11.1,4.1,9.5,16.5,22.5,44.4c2.8,5.7,5.2,10.2,3.5,15.2c-2.1,6.3-9.9,9.3-13.2,10.3
	c3,5.9,6.1,11.9,9.1,17.9c-1.9,1.7-3.9,3.4-5.8,5.1c2.5,18.4,4.9,37,7.3,55.4c-3.6-0.3-9-0.1-11.4,3.2c-0.2,0.5-0.4,1.1-0.7,1.6
	c-2.3,0.7-4.3,0.9-5.9,0.2c-5-1.7-6.8-7.7-7.8-10.8c-7.2-23.4-22.3-72.5-15.9-107.1c1.7-8.6,4.1-17.6,4.1-17.6
	c2.1-6.9,3.9-12.9,5.9-17.5c0.5-0.3,0.7-0.6,1.2-0.9C1234.5,611.6,1236.9,612.3,1238.5,612.7z"/>
<line class="st29" x1="1336" y1="331" x2="1336.3" y2="837.5"/>
<line class="st30" x1="1715.6" y1="734.3" x2="1589.5" y2="791.1"/>
<line class="st29" x1="1586.5" y1="419.7" x2="1335.2" y2="419.7"/>
<path class="st31" d="M1368.5,735.4c-2.8-4.1-1.4-7.2-0.7-25.9c0.5-13,0.1-19.3,0-32.1c-0.2-33.6,22.3-179.5,38.1-178.2
	c2.8,0.2,6.4,24.1,13.6,71.7c0,0,13.6,90.2,7.5,123.2c-0.1,0.3-0.6,2.8-0.7,6.3c-0.1,2.9,0.2,3.4,0.7,9.8
	c0.9,11.6,1.4,17.4,0.7,19.6C1423.3,743.9,1378.9,750.6,1368.5,735.4z"/>
<rect x="1695.1" y="677.6" class="st32" width="203.3" height="108.8"/>
<g>
	<g>
		<path class="st33" d="M1698.9,711.5c66.6,2.3,133.3,1.1,199.7-3.6c3.8-0.3,3.9-6.3,0-6c-66.5,4.7-133.1,5.9-199.7,3.6
			C1695,705.3,1695,711.3,1698.9,711.5L1698.9,711.5z"/>
	</g>
</g>
<g>
	<g>
		<path class="st33" d="M1697.6,752.4c66.6,2.3,133.3,1.1,199.7-3.6c3.8-0.3,3.9-6.3,0-6c-66.5,4.7-133.1,5.9-199.7,3.6
			C1693.7,746.2,1693.7,752.2,1697.6,752.4L1697.6,752.4z"/>
	</g>
</g>
<g>
	<g>
		<path class="st33" d="M1762.9,777.4c2.3-31.6,1-63.2-3.7-94.5c-0.6-3.8-6.4-2.2-5.8,1.6c4.6,30.8,5.7,61.9,3.4,92.9
			C1756.6,781.2,1762.6,781.2,1762.9,777.4L1762.9,777.4z"/>
	</g>
</g>
<g>
	<g>
		<path class="st33" d="M1839.4,778c2.3-31.6,1-63.2-3.7-94.5c-0.6-3.8-6.4-2.2-5.8,1.6c4.6,30.8,5.7,61.9,3.4,92.9
			C1833.1,781.8,1839.1,781.8,1839.4,778L1839.4,778z"/>
	</g>
</g>
<path class="st34" d="M1437.6,713.8c92.5,6.4,185,12.9,277.4,19.3c-24.2,14.1-280.4,162.3-436.3,189.3
	c-61.7,10.7-100.5,1.2-118.8-4.6c-51.5-16.2-85.8-48.2-104.2-68.5c-3.5-2.9-9.7-8.8-13.7-18.3c-2.6-6.1-3.4-11.7-3.7-15.5
	C1171.5,781.6,1304.5,747.7,1437.6,713.8z"/>
<path class="st35" d="M1790.3,634.9c-0.6,0.2-1.2,0.3-1.8,0.4c1.3,1.7,2.2,3.7,2.8,5.8C1791.3,639,1791,637,1790.3,634.9z"/>
<path class="st36" d="M1794.3,691.4c-0.2,8.5-0.7,17.1-1.2,25.7C1794.1,708.6,1794.5,700,1794.3,691.4z"/>
<path class="st25" d="M1752.3,789.5c-0.2-0.1-0.4-0.2-0.6-0.3c-1.4,5.3-2.7,9.2-0.5,11.8c1,1.3,2.9,2.3,3.6,1.8
	c1-0.7-0.9-4.7,0.1-5.3c0.6-0.4,1.7,0.9,4.1,2.3c1.4,0.9,4.3,2.4,7.6,2.8c2.5,0.3,6.1,0,6.3-1c0.2-0.9-1.9-1.7-8.5-6.3
	c-0.2,0-0.3,0-0.5,0C1759.9,795.7,1755.1,792.4,1752.3,789.5z"/>
<path class="st37" d="M1763.6,772.4c0.2,0.1,0.3,0.1,0.4,0.2C1763.9,772.5,1763.8,772.4,1763.6,772.4z"/>
<path class="st38" d="M1793.4,656.3c0.2-3.2,0.8-10.7-3.2-18.2c-0.6-1.2-1.2-2.1-1.7-2.8c-3.3,0.8-6.5,1.7-9.7,2.8
	c0.2,1.4,0.2,3,0.1,4.4c-0.4,3.6-1.8,4-3,8.9c-1.7,6.9-0.6,12.3-0.2,15.5c0.7,5-1.2,12.7-4,28.3c-3.2,18.2-7.8,33.3-11.1,43.9
	c-4,12.9-6.2,18.2-6.8,28c-0.1,1.9-0.2,3.4-0.1,4.7c0.5,0,0.9,0,1.4,0c-0.4,0-0.7,0-1.1-0.1c0.4,0,0.7,0.1,1.1,0.1
	c1.7,0,3.5-0.3,5.2-0.2c1.2,0,2.3,0.2,3.4,0.6c0.2,0.1,0.3,0.1,0.4,0.2c0,0,0,0,0.1,0c0.1-0.1,0.2-0.1,0.3-0.2
	c3.5-2,8.8,3.1,10.7,1.1c1.1-1.1-0.5-3,0.2-6.6c0.5-3,2.1-3.9,3.4-6.4c2.8-5.1-0.1-7.3,1.5-13.9c0.8-3.4,1.8-3.8,7.3-13.2
	c1.8-3.1,3.3-5.9,4.5-8c0.4-2.8,0.8-5.5,1.1-8.3c0.7-6.4,1.1-13,1.2-25.7C1794.5,661.5,1792.7,667.1,1793.4,656.3z"/>
<path class="st37" d="M1760.3,771.7c-1.7,0-3.5,0.2-5.2,0.2C1756.8,772,1758.5,771.7,1760.3,771.7z"/>
<path class="st37" d="M1760.3,771.7c1.2,0,2.3,0.2,3.4,0.6C1762.5,771.9,1761.4,771.7,1760.3,771.7z"/>
<path class="st23" d="M1763.6,772.4c-1-0.5-2.2-0.6-3.4-0.6c-1.7,0-3.5,0.2-5.2,0.2c-0.5,0-0.9,0-1.4,0c0,4.3,0.5,6.4-0.6,11.8
	c-0.4,2-0.9,3.8-1.3,5.5c0.2,0.1,0.4,0.2,0.6,0.3c-0.2-0.2-0.3-0.3-0.5-0.5c0.2,0.2,0.3,0.3,0.5,0.5c3.7,2.3,7,6,11.6,5.8
	c0.2,0,0.3,0,0.5-0.1l0,0c-2.1-1.4-2.8-2-3.4-3.1c-1.1-2.1-0.5-4.2,0.2-7.3c2.2-9.4,1.6-11.2,2.9-12.2c0,0,0,0-0.1,0
	C1763.9,772.5,1763.8,772.4,1763.6,772.4z"/>
<path class="st37" d="M1764.1,772.6C1764.1,772.6,1764.1,772.6,1764.1,772.6S1764.1,772.6,1764.1,772.6
	C1764.1,772.6,1764.1,772.6,1764.1,772.6z"/>
<path class="st35" d="M1791,656.4c2,11.7,3.1,23.4,3.3,35c0.3-12.6,0-25.3-1.3-38.2c-0.5-4-0.7-8.2-1.8-12.1
	C1791.4,646.3,1790.2,651.6,1791,656.4z"/>
<path class="st35" d="M1821.2,766.4c-0.2-7.4-1.4-8.9-2.6-17.5c-1.7-12.1,0.1-13.6-2.1-19c-0.4-1-1.5-3.4-1.4-6.7
	c0-3.1,1-5.3,1.2-5.9c2.1-5.1,1.7-13.7,1.4-23.6c-0.5-16.6-0.6-25.5-4.5-35.3c-1.4-3.6-2.5-5.2-3.4-9.1c-1.5-6.7-1-13.7-3.6-16.4
	c-0.2-0.2-0.7-0.7-0.9-1.3c-5,1.3-10.1,2.3-15.1,3.5c0.7,2,0.9,4.1,1,6.2c1.1,3.8,1.3,8.1,1.8,12.1c1.3,12.9,1.6,25.6,1.3,38.2
	c0.1,8.6-0.3,17.2-1.2,25.7c-0.2,2.4-0.3,4.7-0.5,7.1c0.2-2.4,0.3-4.7,0.5-7.1c-0.3,2.8-0.7,5.6-1.1,8.3c0.3-0.7,0.7-1.2,0.9-1.7
	c-0.2,5.4,0,10,0.4,13.5c1.3,12.3,4,14.2,4.1,23.9c0.1,7.9-1.6,11.9,0.6,13.4c3.1,2.1,8.4-4.2,12.9-2.4c0.3,0.2,0.7,0.3,1,0.5
	c3.3-0.9,6.5-1.4,9.2-2.9C1821.2,768.9,1821.2,768,1821.2,766.4z"/>
<path class="st39" d="M1795.6,805.9c-1.9,0.6-3.6,1.6-5.5,2.4C1792.1,808,1793.8,806.7,1795.6,805.9z"/>
<path class="st39" d="M1795.6,805.9c1.4-0.5,2.8-0.8,4.2-0.7C1798.2,804.8,1796.9,805.2,1795.6,805.9z"/>
<path class="st25" d="M1829,795.2c-0.4,0.3-0.9,0.7-1.4,0.9c-0.1,0.1-0.2,0.1-0.3,0.2c-0.1,0-0.2,0-0.3,0c-0.3,0.1-0.6,0.1-1,0
	c0,0,0,0-0.1,0c-2-0.3-3.7-1.6-5.5-2.4c-1.4-0.5-2.8-0.8-4.2-0.7c-0.3,0.1-0.5,0.2-0.8,0.3c0.3-0.1,0.5-0.2,0.8-0.3
	c-0.4,0-0.8,0.1-1.2,0.2c-0.2,1.5-0.5,3.4-0.9,5.6c0,0-0.5,2,0,3.1c0.7,1.2,3.5,1.7,4.5,0.6c1.2-1.4-0.9-4.5,0-5.1
	c0.8-0.6,2.6,2,6.7,3.7c2.8,1.1,5.3,1.2,7.3,1.2c2,0,3.1,0.1,3.3-0.4C1836.5,801,1832.3,799.4,1829,795.2z"/>
<path class="st23" d="M1820.5,793.8c1.9,0.7,3.6,1.7,5.5,2.4c0.3,0,0.7,0.1,1,0c0.2,0,0.4-0.1,0.6-0.2c0.5-0.3,0.9-0.7,1.4-1
	c0,0,0,0,0-0.1c-1.3-1.6-2-3.4-3.5-6.9c-1.7-4.1-3.7-9.1-4.3-15.6c-0.1-1.4-0.1-2.1,0-2.9c-2.8,1.6-6,2.1-9.2,2.9
	c3.2,2.3,4,8.8,4.1,14.2c0,0-0.1,1.4-0.9,6.6c0.4-0.1,0.8-0.2,1.2-0.2C1817.9,792.8,1819.2,793.2,1820.5,793.8z"/>
<path class="st36" d="M1773.1,596.9c1.8-2.6,2.1-5.2,1.9-7.7c-0.2,3.2-1.3,6.1-3,8.7C1772.3,597.6,1772.8,597.2,1773.1,596.9z"/>
<path class="st36" d="M1770.6,599c-0.2,0.5-0.5,0.9-0.7,1.3c0.7-0.8,1.4-1.6,2-2.4C1771.2,598.3,1770.6,598.7,1770.6,599z"/>
<path class="st36" d="M1767,549.2c2.4,5.7,4.5,11,3.7,17.5c0,1.2,1.6,3.3,1.6,4.9c0.4,3.3,0.4,6.5,0.8,9.4c0.6,2.7,1.6,5.4,1.9,8.2
	c0.1-1.5,0-3-0.2-4.5c-2.4-10.2-2.4-19.6-4.9-29.3c-1.2-4.2-3.7-8.4-2.7-12.9c0,0.1-0.1,0.2-0.2,0.3
	C1765.7,544.7,1766.2,547.1,1767,549.2z"/>
<path class="st36" d="M1769.9,600.3c-2.1,2.3-4.8,4-7.9,5.2c-4.3,1.6-8.7-1.4-13-1.2c0,0.2,0.1,0.3,0.1,0.5
	C1756.1,608.4,1765.6,607.8,1769.9,600.3z"/>
<path class="st23" d="M1749.7,634.8c-0.7,0.5-1.4,1.1-1.8,1.9c1.1,8.9,4.7,22.7,8.5,29.9c0.4,0.7,1.1,2.1,1.2,4
	c0.2,4-2.7,8.3-5.5,10.9c-0.7,0.6-1.8,1.5-1.6,1.7c0.2,0.3,3.5-1.5,3.7-1.1c0.2,0.4-3.6,3-3.4,3.4c0.2,0.3,3-0.7,5.7-2.3
	c1.6-1,2.3-1.7,2.9-1.4c1.1,0.5,0.2,4,0.5,4.1c0.4,0.1,2-3.8,2.6-8.6c0.2-1.1,0.3-2.4,0.3-4.1c0-3.7-0.9-6.1-1.4-8
	c-1.2-4.7,0.5-4.9,0-11.4c-0.3-4.7-0.8-10.6-3.5-16.4c-0.3-0.8-0.8-1.7-0.9-2.8C1754.5,634.5,1751.9,634.1,1749.7,634.8z"/>
<path class="st23" d="M1782.8,570.8c-0.4-1.9-1-4.1-2.1-6.5c-1.1-2.4-2.3-4.4-3.5-5.9c0.9-0.3,3.6-1.2,4.9-3.8
	c0.2-0.4,0.7-1.7,0.4-4.7c-0.2-1.8-0.8-6.8-4.9-10.9c-2.5-2.5-5.2-3.7-6.4-4.1c-0.6-0.2-1.4-0.5-2.2-0.6c-0.2,2.1-0.5,4.1-1,6.2
	c-0.1,1.2-0.3,2.4-0.9,3.5c-1.1,1-2.5,2.4-2.6,4.4c-0.2,3.4,4,4.9,5.3,8.6c0.9,2.4,0.7,6.2-4.2,12.7c3.6,0.1,7.3,0.3,11.2,0.7
	C1778.8,570.4,1780.9,570.6,1782.8,570.8z"/>
<path class="st23" d="M1846.9,540.4c-1.1-1.5-3-1.9-4.5-2c1.9-6.4,1.8-8,1.4-8.2c-0.8-0.3-3.1,2.9-4.4,5.8c0,0-1.7,3.8-1.8,8.3
	c-0.1,3.1,0.3,3.2,0,5.3c-0.4,2.8-1.1,3.1-2.3,6.7c-1.4,4.5-0.7,5.4-2.3,8.3c-0.6,1.2-2.1,4.1-4.1,4.1c0,0,0,0-0.1,0
	c1.4,3,2.8,5.8,4.5,8.9c0,0,0,0,0.1-0.1c0.9-0.7,2.2,0.7,3.9,0c2.1-0.9,2.6-4.3,2.9-6.1c0.8-5.1,2.2-10.3,5.1-20.6
	C1846.8,545.4,1848.4,542.6,1846.9,540.4z"/>
<path class="st40" d="M1833.4,577.6c-1.7-3.1-3.1-5.9-4.5-8.9c-1,0-1.5-0.8-2.8-0.6c-1.2,0.2-1.3,1-2.4,1.2c-1.2,0.2-1.7-0.7-3-0.7
	c-1.6-0.1-2.8,1.1-3.1,1.3c-1.6,1.3-10.1,1.9-34.6,0.3c0-0.2-0.1-0.3-0.1-0.5c-0.3-2-0.7-3.9-1-5.9c-1.7,0.3-3.5,0.5-5.4,0.8
	c-2.3,0.3-4.5,0.5-6.6,0.5c1.1,6.4,2.2,12.8,3.1,19.4c0.2,1.4,0.4,2.7,0.6,4.1c-0.3,1.5-0.5,2.7-0.6,3.5c-0.3,2.5-0.3,4.4-1.2,5.7
	c-0.4,0.6-0.9,1.2-0.9,1.2c-0.4,0.5-0.8,0.9-1,1.2c-3.5,3.4-6.3,4.2-8.3,4.3c-2.7,0.1-4.8-1-9.5-0.7c-1.4,0.1-2.5,0.3-3.2,0.4
	c-0.2,1.4-0.4,3.5-0.8,6.1c-1.9,11.8-5.3,21-3.3,22c0.8,0.4,1.8-0.6,2.6,0c0.8,0.6,0.5,2.3,0.2,3.6c0.2-0.2,0.5-0.5,0.9-0.7
	c0.3-0.2,0.7-0.3,1-0.5c2-1.2,4.7-1.2,7.1-1.2c-2.3,0-5.1,0-7.1,1.2c2.1-0.7,4.8-0.3,7.3-0.3c0-0.3-0.1-0.8,0.2-1.3
	c0.5-0.9,1.9-0.7,2.6-1.1c2.7-1.6-2.9-12.9,0.1-15.4c0.9-0.7,2.1-0.5,3.3-0.3c0.6,0.1,2.7,0.5,5.6,3.8c1.1,1.2,3.7,4.3,4.9,9
	c0.8,3,0.4,4.7,2.1,6.7c1,1.2,2.3,1.9,3.2,2.3c1.5-0.5,3.1-1,4.8-1.6c1.6-0.5,3.2-0.9,4.9-1.3c-0.5-0.6-1-1.2-1.6-1.7
	c0.6,0.5,1.1,1.1,1.6,1.7c5.6-1.4,11.2-2.4,16.9-3.9c-0.1-0.2-0.1-0.5-0.1-0.7c0-1.2,1.4-1.7,1.6-2.9c0.6-2.5-0.7-4.6-1.6-6.5
	c-0.4-0.9-1.6-4.9-3.9-12.8c-1.7-5.8-1.8-7.1-1.6-8.8c0.1-0.7,0.7-6.2,3.9-7.3c1.7-0.6,2.3,0.8,6.1,0.8c2.9,0,5.2-0.7,6.1-1
	c2.1-0.7,1.9-1,3.3-1.4c3.8-1,5.6,1.4,10.6,1.2c2.6-0.1,4.2-0.1,5.1-1.2C1837.5,587.6,1831.6,579.4,1833.4,577.6z"/>
<path class="st41" d="M1762.1,607.1c3.1-1.2,5.7-3,7.9-5.2c0.2-0.4,0.5-0.9,0.7-1.3c0-0.2,0.6-0.7,1.3-1.1c1.7-2.5,2.8-5.5,3-8.7
	c-0.3-2.7-1.2-5.4-1.9-8.2c-0.4-2.9-0.4-6.1-0.8-9.4c0-1.6-1.6-3.7-1.6-4.9c2.2-14.9,1.3-18.9-0.1-19.6c-0.2-0.1-1.3-0.5-1.9-1.6
	c-0.5-0.9-0.7-2.2-0.1-2.6c0.4-0.3,0.9,0.2,1.8,0.2c1.4-0.1,1.4-1.7,3.6-3.5c0.7-0.6,1.1-0.7,1.4-1.3c0.5-0.9,0.4-1.9,0.2-2.6
	c1.8,1-3.5-2.4-5.5-2.8c-4.7-0.9-9.2,4.2-9.7,4.8c-1.7,2-2.5,4-2.8,4.7c-4.9,13.4-4.1,25.2-10.4,33.7c-6,8.2-14.4,7.8-14.3,13
	c0.1,3.5,4.5,7.7,8.8,10.3c3.5,2.1,5.7,1.8,6.9,4.1c0.2,0.3,0.3,0.7,0.4,1C1753.4,605.7,1757.7,608.7,1762.1,607.1z"/>
<g>
	<path class="st42" d="M1772.5,486.4c0-1,0.2-3,1.4-3.6c0.7-0.3,2.4-0.2,2.4,0.9c0,0.2-0.1,0.3-0.3,0.3c-0.5,0-0.6-0.7-1.3-0.7h-0.1
		c-1.2,0.1-1.4,1.9-1.4,2.9v0.3c0.1,1.3,0.1,2.3,0.3,3.5c0.1,0.6,0.5,1.3,1.2,1.3h0.1c1.2-0.1,1.2-1.6,1.2-2.4l-0.1-1.9
		c-0.4,0-0.8,0.1-1.2,0.1c-0.1-0.1-0.2-0.4-0.2-0.4c0-0.4,0.9-0.3,1.8-0.3c0.4,0.1,0.3,0.8,0.4,1.6v0.1c0.1,1.4,0.2,3.9-1.7,3.9
		c-0.1,0-0.2,0-0.3,0C1773,492,1772.5,489.8,1772.5,486.4z"/>
	<path class="st42" d="M1778.1,491c0-3,0.1-5.9,0.2-8.9c0-0.6,0.2-0.6,0.8-0.6h0.1c1.2,0,2,0.8,2,1.9v0.1c0,1-0.2,2.1-1.1,2.7
		c0.1,0.1,0.4,0.4,0.4,0.5c0.6,0.8,0.4,2.7,0.5,3.6c0,0.1,0.1,0.7,0.1,0.8v0.1c0,0.2-0.2,0.2-0.4,0.2h0c-0.1,0-0.3,0-0.4-0.2
		c0-0.4-0.1-2.4-0.2-2.9c-0.1-0.6-0.2-1.5-1-1.5h-0.2c0,0.1-0.1,0.6-0.1,0.8c0,0.1-0.1,3-0.1,4.1c0,0.2,0,0.5-0.3,0.5
		c-0.1,0-0.3-0.1-0.4-0.2V491z M1779.1,485.9c0.9,0,1.3-1.7,1.3-2.3c0-0.6-0.3-1.4-1-1.4c-0.2,0-0.3,0.1-0.3,0.3
		c0,1.1-0.1,2.1-0.1,3.3C1778.9,485.9,1779,485.9,1779.1,485.9z"/>
	<path class="st42" d="M1784.9,481.6c2.3,0.3,2,5.9,1.9,7.6c-0.1,1-0.6,2.6-1.9,2.6c-2.3,0-2.4-4-2.4-5.5
		C1782.5,484.6,1782.6,481.6,1784.9,481.6z M1783.2,486.2c0,3.8,0.7,4.9,1.6,4.9c1.3,0,1.3-3.3,1.3-4.2v-0.1c0-1-0.3-4.7-1.5-4.7
		c-1,0-1.4,2.2-1.4,2.8C1783.2,485.5,1783.2,485.9,1783.2,486.2z"/>
	<path class="st42" d="M1790.3,491.7C1790.3,491.7,1790.3,491.7,1790.3,491.7c-0.1,0.3-0.1,0.6-0.5,0.6c-0.2,0-0.2,0-0.3-0.1
		l-0.2-0.9c-0.4-2.4-0.7-4.7-1.1-7.1c-0.1-0.5-0.2-1.1-0.4-1.6c0-0.1,0-0.1,0-0.1c0-0.4,0.8-0.4,0.8-0.1c0.4,1.8,0.7,4.2,1,6
		l0.2,1.4c0.3-1,0.4-2.1,0.5-3c0-0.2,0.2-0.4,0.4-0.4c0.1,0,0.3,0,0.4,0.1l1.5,3.6c0.1-2.3,0.3-6.2,0.5-8.2c0.1-0.3,0.7-0.4,0.8,0.1
		c0,0.4-0.1,1.3-0.2,1.7c-0.2,2.8-0.2,5.5-0.4,8.3c-0.1,0.2-0.1,0.3-0.4,0.3h-0.1c-0.3,0-0.3-0.3-0.4-0.6l-1.6-4
		C1790.8,489.5,1790.5,490.5,1790.3,491.7z"/>
	<path class="st42" d="M1796.5,482.4c-0.8,0.1-1.2,0-1.2-0.2c0-0.4,0-0.6,1.4-0.5h1.1c0.3,0,0.8,0.1,0.8,0.4c0,0.1-0.1,0.2-0.3,0.2
		h-1.1l0.2,8.3c0,0.1-0.3,0.2-0.3,0.2c-0.1,0-0.3-0.1-0.3-0.2L1796.5,482.4z"/>
	<path class="st42" d="M1800.1,488v3.7c0,0.6-0.7,0.4-0.7,0.2c0-0.5,0-2.7,0-3.1c0-1,0.1-6.3,0.1-7.3c0.1-0.1,0.2-0.1,0.4-0.1
		c0.2,0,0.3,0.1,0.4,0.3c0,1.3-0.1,3.1-0.1,4.4c0,0.2,0,1,0,1.2c0.1,0.1,0.2,0.1,0.3,0.1c0.5,0,1,0,1.5,0c0.1-1.5,0.2-4,0.1-5.7
		v-0.1c0-0.2,0.2-0.3,0.3-0.3c0.2,0,0.3,0.1,0.4,0.3c0,0.3,0,1.1-0.1,1.4c-0.2,6,0.1,9.1-0.3,9.1c-0.5,0-0.5-0.6-0.5-1.4
		c0-0.2-0.1-2.4-0.1-2.6H1800.1z"/>
</g>
<line class="st30" x1="1715" y1="531.1" x2="1667.4" y2="532.5"/>
<path class="st43" d="M1494.7,784.2c1.6,0.4,2.1,1.1,3.3,1.7c0.4,2.3-0.9,4.5-1.7,6.7c-3.4,0.1-5.2,0.3-5.9,0.5
	c-0.1,0.1-1.8,1-2.5,0.3c-0.7-0.6,0.5-2.3-0.2-3.1c-1.3-1.7-6.8,1.4-7.2,0.7C1480.1,790.3,1488,782.5,1494.7,784.2z"/>
<path class="st16" d="M1561.6,740.3c-0.2-2.4-0.8-5.6-3.2-7.4c-4-3.1-9.4,0.5-12.2-2.5c-1.9-2,0.1-3.8-1.8-9.7
	c-0.7-2.3-0.9-1.5-3.4-7.5c-0.8-1.8-1.9-4.5-2.2-8.1c-0.1-1.7-0.5-7.2,2.2-14.7c2.6-7.2,4.2-11.6,8.3-13.5
	c8.4-4.1,22.1,4.9,25.6,14.6c2.5,6.8-1.3,9-0.4,21.1c0.4,5.9,1.3,15.1,7,21.7c0.1,0,0,0.1,0.1,0.1
	C1574.6,735.1,1567.6,736.4,1561.6,740.3z"/>
<path class="st44" d="M1547.5,780.2c0.1-0.8,0.3-2.1,1.2-3.3c0.9-1.3,2.1-1.3,3.2-2c1.9-1.2,2.5-3.7,2.9-6.5
	c1.7-11.5-1.2-20.2,3.1-23.7c1.3-1,2.4-0.9,3.1-1.5c0,0,0.2-0.3,0.5-0.6c0-0.1,0.1-1,0.1-2.2c5.9-3.9,12.9-5.2,19.9-6
	c6.8,7.6,15.6,3.2,23.9,10.3c5.7,4.9,6.6,12.7,8.5,28.2c0.6,5.2,0.9,10.1,1,14.7c0.1,9.9-0.9,17.3-2.7,30.9
	c-0.5,3.9-1.3,9.4-2.4,15.9c-32.9,0.9-43.1-5.6-46-12.1c-2.5-5.6-0.8-15.8-7.8-19.2c-1.7-0.8-4.9-1.4-7.4-1.8
	c-0.3-4.3-0.6-7.7-0.9-10C1547.7,791.2,1547,785.8,1547.5,780.2z"/>
<path class="st44" d="M1508.2,779.6c10.2-3.2,21.2-1.2,25-0.5c3.7,0.7,10,2.2,13.4,0c0.6-0.4,1.5-1,2.1-1.9
	c1.8,6.3,4.9,12.4,6.8,18.8c-1.5,0.2-2.7,0.3-3.4,0.5c-1.7,0.3-3.5,0.9-3.5,0.9c-1.9,0.7-3,0.4-8.5-0.3c-6.9-0.9-6.3-0.4-9.7-1
	c-4-0.8-6.1-1.6-8.7-2.4c-12.9-3.8-24.1-0.1-25.2-3.7c-0.3-1,0.5-1.6-0.1-2.4c-0.1-0.1-0.1-0.1-0.2-0.2c0.3-2.2,1-4.4,1.5-6.6
	C1501.7,781.9,1505.3,780.4,1508.2,779.6z"/>
<path class="st16" d="M1492.2,778.2c2.2,0.5,2.4,1.7,5.1,2.5c0.1,0,0.1,0,0.2,0.1c-0.5,2.2-1.1,4.4-1.5,6.6
	c-1.9-1.6-9.2,2.2-10.7,0.1c-0.7-1,0.5-2.2-0.2-3.1c-1.3-1.7-6.8,1.4-7.2,0.7C1477.7,784.3,1485.5,776.4,1492.2,778.2z"/>
<path d="M1575.3,716.3c2.3-4.5,5-10.9,6.8-18.1c0.7-3.1,1.5-6.8,0-10.5c-0.5-1.2-1.2-2.3-2.1-3.5c-1.3-1.6-3.2-3.1-5-3.8
	c-5-1.6-9.7-3.6-13.4-7.6c-2.8-3-6.2-2.9-10-1.1c-3.9,1.9-5.9,7-5.6,9.7c0.2,2.2,1.5,2.7,3.5,2.1c4-1,8-0.9,12.2,1
	c-0.8,1-1.3,1.8-1.9,2.3c-5.5,4.6-2.5,11.7,2,15.6c0.3,0.3,1.8-0.2,2.3-0.7c0.9-1.1,1.1-2.8,2.2-3.8c1.2-1.2,2.9-2.4,4.5-2.5
	c2.1-0.2,3,1.7,3.1,3.6c0.1,1.4-0.2,3-0.5,4.3c-0.7,2.4-0.1,4.4,0.2,6.3C1573.7,711.4,1574.2,713.7,1575.3,716.3z"/>
<path class="st2" d="M1525.4,836.9c0.9-2.7,2.7-7.8,6-13.7c24.3-42.9,83.7-43.7,94.5-43.5c9.3,0.1,13.7,1.3,16.5,4.5
	c11.4,13.1-12.8,49.4-15,52.7C1593.4,836.9,1559.4,836.9,1525.4,836.9z"/>
<path class="st45" d="M1470,795.6h44.5v-2.5c-15-0.4-29.9-0.8-44.8-1.3C1469.8,793,1469.9,794.3,1470,795.6z"/>
<path class="st45" d="M1467.1,794.8c0.8,1,2.2,1.3,2.8,0.9c0.5-0.3,0.6-0.9,0.6-1.1c-4.6-16.1-9.3-32.3-13.9-48.4l-0.4-1.4l-4.4,0.9
	C1456.8,762,1461.9,778.4,1467.1,794.8z"/>
<linearGradient id="SVGID_1_" gradientUnits="userSpaceOnUse" x1="-9067.5166" y1="-7474.3872" x2="-9115.6836" y2="-7474.3872" gradientTransform="matrix(-0.9997 2.607791e-02 -2.607791e-02 -0.9997 -7804.3071 -6481.4141)">
	<stop  offset="0" style="stop-color:#FFFFFF;stop-opacity:0.3"/>
	<stop  offset="1" style="stop-color:#FFFFFF;stop-opacity:0.1"/>
</linearGradient>
<path class="st46" d="M1466.8,786.8c12.5,1,24.9,2.1,37.4,3.2c-2.5-24.8-5-49.5-7.6-74.3c-14,9.3-27.9,18.6-41.8,28
	C1458.8,758,1462.8,772.3,1466.8,786.8z"/>
<path class="st47" d="M1139.4,801.2c-16.7,3.8-33.4,7.6-50.1,11.4c13.7,7.2,27.3,14.4,41,21.6
	C1133.3,823.3,1136.4,812.2,1139.4,801.2z"/>
<path class="st48" d="M1109.1,813.1c8.4-1.4,16.9-2.9,25.3-4.3c-1.4,5.3-2.8,10.6-4.2,15.9C1123.2,820.9,1116.1,817,1109.1,813.1z"
	/>
<path class="st23" d="M1221.4,682c0.1,0.4-0.4,0.7-0.4,0.7l0,0l0,0c0,0-4.5,0.7-5.4,1.1c-0.2,0-0.4,0.1-0.3,0.3
	c0,0.2,0.3,0.3,0.4,0.3c0.7-0.2,1.4-0.3,2.2-0.4c0.9-0.2,1.8-0.4,2.7-0.6c0.4-0.1,0.6,0.1,0.7,0.4s-0.1,0.6-0.4,0.7
	c-1.8,0.4-3.6,0.7-5.4,1.1c0,0.2,0.1,0.4,0.1,0.6c1.4-0.3,2.9-0.6,4.3-0.9c0.4-0.1,0.6,0.1,0.7,0.4s-0.1,0.6-0.4,0.7
	c-1.1,0.4-2.8,0.8-4.9,1c-1.7,0.2-4.4,0.4-11.4-0.5c-3.3-0.5-5.8-0.9-5.8-0.9c-1.6-0.3-2.9-0.5-4.2-0.6c0.7-2.2,0.4-4.4,1.6-6.5
	c2.6,0,4.6-0.4,6.9-1.2c3.5-1.5,6-3.5,7.4-4.9c0.2,0.1,0.6,0.3,0.7,0.4c0.7,1.4-4.3,4.5-3.9,5.9c0.4,1,3.5,1.5,12.4,0.2
	c0.4-0.1,0.6,0.1,0.7,0.4s-0.1,0.6-0.4,0.7c-1.4,0.5-2.8,1-4.2,1.4c0,0.2,0.1,0.4,0.1,0.6c1.8-0.2,3.7-0.4,5.5-0.6
	C1220.8,681.7,1221.2,681.8,1221.4,682z"/>
<path class="st49" d="M1067.2,731.9C1067.3,731.8,1067.3,731.8,1067.2,731.9c5.1-5.8,5.9-13.8,6.2-18.9c0.7-10.5-2.5-12.5-0.4-18.3
	c3-8.4,14.9-16.2,22.2-12.7c3.5,1.7,4.9,5.5,7.2,11.8c2.3,6.5,2,11.3,1.9,12.7c-0.3,3.1-1.2,4.4-1.9,7.1c-0.4,1.4-0.5,2.5-0.6,3.4
	c-0.4,3.8,0.4,4.8,0,7.1c-0.1,0.6-0.7,4-3,5.6c-3.6,2.6-8.2-1.3-11.6,1c-1.2,0.8-2.5,2.4-2.8,6.4
	C1079.3,733.7,1073.3,732.6,1067.2,731.9z"/>
<path class="st50" d="M1086.9,790.5c-1.9,10.4-2.9,15.6-4.3,17.8c-8,12.4-30.4,11.5-40,10.5c-1-5.7-1.6-10.4-2.1-13.8
	c-1.6-11.8-2.5-18.3-2.4-26.8c0.1-4,0.3-8.2,0.9-12.8c1.6-13.4,2.4-20.2,7.4-24.5c7.1-6.2,14.8-2.4,20.7-8.9
	c6.1,0.7,12.1,1.8,17.3,5.2c0,1.1,0.1,1.8,0.1,1.9c0.2,0.3,0.4,0.5,0.4,0.5c0.7,0.6,1.6,0.5,2.7,1.3c4.2,3.2,3.7,10,2.7,20.6
	C1089.1,775.3,1088.4,782.1,1086.9,790.5z"/>
<path class="st50" d="M1131.2,793.6c0.4,1.9,1,3.8,1.3,5.8c-0.1,0.1-0.1,0.1-0.2,0.2c-0.5,0.6,0.2,1.2-0.1,2.1
	c-1,3.1-10.7-0.1-21.9,3.2c-2.2,0.7-4,1.4-7.6,2.1c-3,0.5-2.5,0.1-8.5,0.8c-4.7,0.6-5.7,0.9-7.4,0.3c0,0-1.6-0.5-3-0.8
	c-0.6-0.1-1.7-0.3-2.9-0.4c1.7-5.6,4.3-10.9,5.9-16.3c0.6,0.8,1.3,1.3,1.8,1.7c2.9,1.9,8.4,0.6,11.6,0c3.3-0.6,12.9-2.3,21.7,0.5
	C1124.6,793.4,1127.8,794.7,1131.2,793.6z"/>
<path d="M1074.8,712.4c1.9-5.3,4.4-8.9,5.4-10.1c3.1-4.2,7.4-9.9,12.4-9.8c1,0,2.5,0.3,5.8,0.4c1.6,0,2.9,0,3.8,0
	c-0.1-0.7-1.2-10.6-8.2-13.5c-2.5-1-4.9-0.9-5.9-0.8c-4,0.2-6.7,1.9-10.2,4.1c-5,3.1-7.6,6.4-8.6,7.6c-0.8,1-1.3,1.8-1.8,3
	c-1.3,3.2-0.7,6.4,0,9.1c1.6,6.3,3.9,11.8,5.9,15.7C1073.5,716.7,1074,714.7,1074.8,712.4z"/>
<rect x="1218.2" y="662" transform="matrix(0.8945 -0.447 0.447 0.8945 -176.7065 624.1499)" class="st51" width="32.1" height="49.1"/>
<rect x="1221.5" y="666" transform="matrix(0.8945 -0.447 0.447 0.8945 -176.8542 624.0803)" class="st52" width="24.9" height="41.7"/>
<path class="st27" d="M1243.1,668c4.1,3.5,8.3,7.1,12.4,10.7c-8.3,5.8-16.7,11.6-24.7,17.4c-3.1-2.9-6.4-6-7.5-10
	C1229.6,679.9,1236.4,674,1243.1,668z"/>
<path class="st53" d="M1210.9,691.2c3.5-1.3,7-2.6,10.5-3.9c0.5-0.6,1-0.9,1.7-1.4c1.4,4,4.7,7.1,7.5,10c-1.2,0.9-2.5,1.7-3.7,2.6
	c-3.8,4.1-8.3,6-11.3,4.7c-1.9-0.9-2.6-3.1-3.5-5.1C1211.2,695.3,1211,692.7,1210.9,691.2z"/>
<path class="st49" d="M1133.5,697.9c2.4-0.4,4.9-0.8,7.3-1.1"/>
<path d="M1085.4,707c-0.8-2.1-2.3-2.3-3.5-0.6c-0.3,0.4-2.2,2.6-2.7,5.4c-1.2,6.5,4.8,17.6,12.3,20.6c2.1,0.9,4.4,1.1,4.9,1.1
	c2.6,0.2,4.9,0.4,6.4-1.1c1.5-1.6,1.3-3.9,1.3-4.1c-0.1-0.7-0.2-0.7-0.8-2.5c-0.6-1.9-1.1-3.2-1.2-4.9c-0.2-2,0.2-2.6-0.4-3.2
	c-0.6-0.6-1.6-0.7-3-0.6c-1.1,0.1-2.2,0.3-3.2,0.5c-4.6,0.8-5.9,0.1-7.6-4.2c-0.3-1-0.7-1.9-1-2.8
	C1086.3,709.4,1085.9,708.1,1085.4,707z"/>
<path class="st49" d="M1146.6,800.1c-0.4,0.7-5.8-2.4-7.2-0.7c-0.7,0.9,0.5,2.2-0.2,3.1c-1.4,2.1-8.7-1.8-10.7-0.1
	c-0.3-2.2-1-4.4-1.5-6.6c0.1-0.1,0.1-0.1,0.2-0.1c2.7-0.9,2.9-2,5.1-2.5C1139.3,791.4,1147.1,799.2,1146.6,800.1z"/>
<path class="st54" d="M1145.2,775.7c-5.6,20.1-11.2,40.3-16.7,60.4c0.2,0.1,0.3,0.2,0.5,0.3c18.5-7.4,36.9-14.8,55.4-22.2
	c4.9-17.4,9.7-34.7,14.6-52.1C1181,766.7,1163.1,771.2,1145.2,775.7z"/>
<path class="st2" d="M1053.9,805.5c-1.5-2.7-2.8-4.2-9.1-12.6c-3.2-4.3-5.8-7.7-7-9.3c0.1,11.9,0.3,23.8,0.4,35.6
	c7.3,0,14.5,0,21.8,0C1059.1,816.5,1057.3,811.4,1053.9,805.5z"/>
<line class="st55" x1="1276.5" y1="419.7" x2="1118" y2="419.7"/>
<line class="st56" x1="1147.4" y1="325.8" x2="1147.4" y2="482.4"/>
<path class="st38" d="M1032,804c-17.2,1.7-25.2-2.5-29.4-6.8c-3.5-3.7-5-7.5-12.2-15.9c-5-5.8-7-7-12.5-15.8
	c-12.2-19.3-25.9-41-22.3-66.2c0.7-4.8,2.7-19.2,12-23.1c6.1-2.6,10,1.6,19.1,0c9.2-1.6,18.2-8,21.5-15.2c5.5-11.8-4.2-26.1-12-39.9
	c-7.6-13.4,3.8,4.1-31.1-81.4c-2.9-7.1-18.8-46-19.1-81.4c0-4.4,0.1-12.7,4.8-15.2c6.6-3.5,19.1,6.3,26.3,14.4
	c15.8,17.6,8.9,29.9,23.9,47.9c10.6,12.7,24.3,18.7,27.1,19.9c12.6,5.4,19.5,3.9,35.9,11.2c6.3,2.8,12.9,5.8,18.4,10.4
	c16.1,13.6,19.3,39.4,16.8,57.4c-2.9,20.2-17.6,38.2-47.1,73.4c-8,9.5-13.2,15.3-16.9,19.1c-2.2,2.3-5.4,4.7-8.6,9.1
	c0,0-4.1,5.6-6.7,13c-3.9,10.9-6.1,31.2,0,55C1021.9,781.5,1025.4,792.1,1032,804z"/>
<g>
	<g>
		<path class="st58" d="M984.1,718.5c5.4,17.4,16.7,32.1,32,42c1.6,1,3.1-1.6,1.5-2.6c-14.7-9.4-25.5-23.6-30.7-40.2
			C986.4,715.9,983.5,716.7,984.1,718.5L984.1,718.5z"/>
	</g>
</g>
<g>
	<g>
		<path class="st58" d="M976,739.2c4.8,0.3,9.5,0.7,14.3,0.9c1.8,0.1,3.8,0.5,5.1-1c1.8-2,2.1-6.3,2.8-8.8c1.3-4.7,2.6-9.3,3.9-14
			c0.5-1.9-2.4-2.7-2.9-0.8c-1.7,6.2-2.8,13.3-5.3,19.2c-0.8,1.7-0.6,2.2-2.7,2.4c-1.4,0.2-3-0.2-4.5-0.3c-3.6-0.2-7.1-0.5-10.7-0.7
			C974.1,736.1,974.1,739.1,976,739.2L976,739.2z"/>
	</g>
</g>
<g>
	<g>
		<path class="st58" d="M986,752.2c4.8,0.3,9.5,0.7,14.3,0.9c1.8,0.1,3.8,0.5,5.1-1c1.8-2,2.1-6.3,2.8-8.8c1.3-4.7,2.6-9.3,3.9-14
			c0.5-1.9-2.4-2.7-2.9-0.8c-1.7,6.2-2.8,13.3-5.3,19.2c-0.8,1.7-0.6,2.2-2.7,2.4c-1.4,0.2-3-0.2-4.5-0.3c-3.6-0.2-7.1-0.5-10.7-0.7
			C984.1,749.1,984.1,752.1,986,752.2L986,752.2z"/>
	</g>
</g>
<g>
	<g>
		<path class="st58" d="M972.2,500.3c27.6,52,66.6,97.2,113.9,132.3c1.6,1.2,3-1.5,1.5-2.6c-46.9-34.7-85.5-79.7-112.8-131.2
			C973.9,497,971.3,498.6,972.2,500.3L972.2,500.3z"/>
	</g>
</g>
<g>
	<g>
		<path class="st58" d="M999.3,575.3c5.9,0.4,11.7,0.7,17.6,1.1c3.2,0.2,8.2,1.6,10.5-1.4c1.2-1.6,1.4-4,1.9-5.8
			c0.8-2.9,1.6-5.7,2.4-8.6c1.7-6.1,3.4-12.1,5-18.2c0.5-1.9-2.4-2.7-2.9-0.8c-2.6,9.2-5.1,18.5-7.7,27.7c-0.9,3.4-1.8,4-5.3,4.3
			c-2.2,0.2-4.7-0.3-6.9-0.4c-4.9-0.3-9.8-0.6-14.7-0.9C997.4,572.2,997.4,575.2,999.3,575.3L999.3,575.3z"/>
	</g>
</g>
<g>
	<g>
		<path class="st58" d="M1023.3,608.5c7.6,0.5,15.3,1,22.9,1.5c4,0.3,10.7,2.2,13.4-1.8c1.4-2.1,1.8-5.6,2.5-8
			c1.1-3.8,2.1-7.6,3.2-11.4c2.1-7.6,4.2-15.1,6.3-22.7c0.5-1.9-2.4-2.7-2.9-0.8c-3.3,12-6.7,24-10,36c-0.3,1.1-0.4,2.9-1.1,3.8
			c-1.9,3-4.1,2.4-6.7,2.2c-2.9-0.2-5.7-0.4-8.6-0.5c-6.4-0.4-12.7-0.8-19.1-1.2C1021.4,605.4,1021.4,608.4,1023.3,608.5
			L1023.3,608.5z"/>
	</g>
</g>
<g>
	<g>
		<path class="st58" d="M979.3,542.7c4.9,0.3,9.7,0.7,14.6,0.9c1.8,0.1,3.8,0.5,5.2-1c1.8-2,2.2-6.5,2.9-9c1.3-4.8,2.6-9.5,4-14.3
			c0.5-1.9-2.4-2.7-2.9-0.8c-1.8,6.3-2.8,13.6-5.4,19.6c-0.8,1.8-0.6,2.2-2.8,2.5c-1.4,0.2-3.1-0.2-4.6-0.3c-3.7-0.2-7.3-0.5-11-0.7
			C977.4,539.6,977.4,542.6,979.3,542.7L979.3,542.7z"/>
	</g>
</g>
<path class="st38" d="M1071,346c-3-8.3-10.8-25.9-29-38c-23.5-15.6-59.4-18.5-70-4c-8.2,11.3,3.6,26.7,18,63
	c34.1,86,19,128.4,61,165c9.4,8.2,25.3,19.3,31,15c13.4-10.1-53.1-88.5-31-163C1056.4,365.7,1065.8,352.6,1071,346z"/>
<g>
	<g>
		<path class="st58" d="M998.2,311.3c26.9,55.8,47.7,114.4,61.8,174.6c0.4,1.9,3.3,1.1,2.9-0.8c-14.3-60.5-35.1-119.4-62.2-175.4
			C1000,308,997.4,309.5,998.2,311.3L998.2,311.3z"/>
	</g>
</g>
<g>
	<g>
		<path class="st58" d="M1009.5,386.9c5.7,2.5,11.4,5,17.1,7.5c3.1,1.4,6.8,4,10,1.8c3.3-2.3,5.9-7.9,8.2-11.2
			c3.9-5.4,7.7-10.7,11.6-16.1c1.1-1.6-1.5-3.1-2.6-1.5c-5.2,7.3-10.4,14.5-15.6,21.8c-4.3,6-9.3,3-14.5,0.7
			c-4.2-1.8-8.4-3.7-12.6-5.5C1009.3,383.6,1007.8,386.1,1009.5,386.9L1009.5,386.9z"/>
	</g>
</g>
<g>
	<g>
		<path class="st58" d="M1002,349.5c4.5,2,8.9,3.9,13.4,5.9c1.8,0.8,3.7,1.9,5.6,0.8c2.4-1.4,4.1-5.2,5.7-7.5c2.9-4,5.8-8,8.6-12
			c1.1-1.6-1.5-3.1-2.6-1.5c-3.5,4.9-6.7,10.6-10.8,15c-3,3.2-5.6,2.3-9.3,0.7c-3.1-1.4-6.1-2.7-9.2-4.1
			C1001.7,346.1,1000.2,348.7,1002,349.5L1002,349.5z"/>
	</g>
</g>
<g>
	<g>
		<path class="st58" d="M1025.5,429.9c6.6,2.9,13.2,5.8,19.7,8.7c3.4,1.5,6.1,2.5,8.6-0.9c1.1-1.6-1.5-3.1-2.6-1.5
			c-2,2.8-21.4-7.7-24.2-8.9C1025.3,426.6,1023.8,429.1,1025.5,429.9L1025.5,429.9z"/>
	</g>
</g>
<g>
	<g>
		<path class="st58" d="M1034.5,466.9c6.6,2.9,13.2,5.8,19.7,8.7c3.4,1.5,6.1,2.5,8.6-0.9c1.1-1.6-1.5-3.1-2.6-1.5
			c-2,2.8-21.4-7.7-24.2-8.9C1034.3,463.6,1032.8,466.1,1034.5,466.9L1034.5,466.9z"/>
	</g>
</g>
</svg>
