<?xml version="1.0" encoding="utf-8"?>
<!-- Generator: Adobe Illustrator 22.0.1, SVG Export Plug-In . SVG Version: 6.00 Build 0)  -->
<svg style="enable-background:new 0 0 300 300;" id="Calque_1" version="1.1" viewBox="0 0 300 300" x="0px"
     xmlns="http://www.w3.org/2000/svg" y="0px" xml:space="preserve">
<style type="text/css">
	.st0{fill:#07BCE5;}
	.st1{fill:#FCFCFC;}
</style>
    <g>
	<circle class="st0" cx="147" cy="150" r="137"/>
</g>
    <g>
	<path class="st1" d="M107.3,117.3c1.7-5.6,4.3-10.5,7.8-14.7c3.5-4.2,7.8-7.4,13.1-9.8c5.3-2.3,11.3-3.5,18.2-3.5
		c5.2,0,10.2,0.8,14.9,2.4s8.9,4,12.5,7c3.6,3,6.4,6.8,8.6,11.2c2.1,4.5,3.2,9.5,3.2,15c0,5.8-0.9,10.7-2.8,14.8
		c-1.8,4.1-4.3,7.8-7.3,11c-3,3.2-6.5,6.1-10.4,8.7c-3.9,2.6-7.7,5.2-11.7,7.7c-3.9,2.6-7.7,5.3-11.4,8.2c-3.7,2.9-7,6.4-9.8,10.3
		h54v19.9h-83.8c0-6.6,1-12.4,2.9-17.3c1.9-4.9,4.5-9.3,7.7-13.1c3.3-3.9,7.1-7.4,11.5-10.7c4.4-3.3,9-6.6,13.9-9.9
		c2.5-1.7,5.2-3.5,8-5.3c2.8-1.8,5.4-3.8,7.7-5.9c2.3-2.2,4.3-4.6,5.9-7.3c1.6-2.7,2.4-5.8,2.4-9.3c0-5.5-1.6-9.9-4.8-13
		c-3.2-3.1-7.3-4.6-12.3-4.6c-3.4,0-6.2,0.8-8.6,2.4c-2.3,1.6-4.2,3.6-5.6,6.2c-1.4,2.6-2.4,5.4-3,8.5c-0.6,3.1-0.9,6.2-0.9,9.2H105
		C104.8,128.9,105.6,122.9,107.3,117.3z"/>
</g>
</svg>
