<?xml version="1.0" encoding="utf-8"?>
<!-- Generator: Adobe Illustrator 22.0.1, SVG Export Plug-In . SVG Version: 6.00 Build 0)  -->
<svg style="enable-background:new 0 0 300 300;" id="Calque_1" version="1.1" viewBox="0 0 300 300" x="0px"
     xmlns="http://www.w3.org/2000/svg" y="0px" xml:space="preserve">
<style type="text/css">
	.st0{fill:#07BCE5;}
	.st1{fill:#FCFCFC;}
</style>
    <g>
	<circle class="st0" cx="147" cy="150" r="137"/>
</g>
    <g>
	<path class="st1" d="M144.2,137.7c2.8-0.2,5.5-0.8,7.9-1.9c2.4-1,4.5-2.5,6-4.5c1.6-2,2.4-4.6,2.4-7.8c0-4.9-1.6-8.6-4.9-11.2
		s-7-3.9-11.2-3.9c-5.9,0-10.3,1.9-13.3,5.8c-3,3.9-4.4,8.7-4.3,14.6h-22c0.2-5.9,1.3-11.2,3.2-16.1c1.9-4.8,4.6-9,8-12.5
		c3.4-3.5,7.5-6.2,12.3-8.1c4.8-1.9,10.1-2.9,16-2.9c4.6,0,9.1,0.7,13.7,2c4.6,1.4,8.7,3.4,12.3,6.1c3.6,2.7,6.6,6,8.9,9.9
		c2.3,3.9,3.4,8.4,3.4,13.5c0,5.5-1.3,10.4-4,14.7c-2.7,4.2-6.7,7.1-12,8.6v0.3c6.3,1.4,11.2,4.5,14.8,9.1
		c3.6,4.7,5.4,10.3,5.4,16.8c0,6-1.2,11.3-3.5,16c-2.3,4.7-5.5,8.6-9.4,11.7c-3.9,3.2-8.4,5.5-13.5,7.2c-5.1,1.6-10.4,2.4-16,2.4
		c-6.4,0-12.3-0.9-17.5-2.8c-5.3-1.8-9.8-4.5-13.4-8.1c-3.7-3.5-6.5-7.8-8.6-13c-2-5.1-3-11-2.9-17.6h22c0.1,3,0.6,6,1.5,8.7
		c0.9,2.8,2.1,5.2,3.7,7.2c1.6,2,3.7,3.6,6.1,4.8c2.4,1.2,5.4,1.8,8.7,1.8c5.2,0,9.6-1.6,13.2-4.8c3.6-3.2,5.4-7.6,5.4-13.1
		c0-4.3-0.8-7.7-2.5-9.9c-1.7-2.3-3.8-3.9-6.4-5c-2.6-1-5.5-1.6-8.6-1.8c-3.1-0.2-6.1-0.2-8.9-0.2v-16.3
		C138.7,138,141.3,138,144.2,137.7z"/>
</g>
</svg>
