<svg height="20.521" viewBox="0 0 16.057 20.521" width="16.057" xmlns="http://www.w3.org/2000/svg">
    <path d="M274.542,14959.223l-.392.033-.391.063-.425.061-.36.1-.391.092-.752.252-.684.348-.687.377-.587.441-.587.5-.522.566-.457.566-.391.66-.359.66-.26.725-.1.377-.1.348-.065.41-.066.377-.031.379v.406l.031.568.066.566.1.6.164.566.163.566.228.566.229.566.26.566.294.535.326.568.685,1.035.718,1.008.752.945.75.881.718.789.686.723.62.6.88.818.36.314.36-.314.88-.818.62-.6.685-.723.718-.789.752-.881.752-.945.718-1.008.685-1.035.326-.568.294-.535.26-.566.229-.566.228-.566.163-.566.164-.566.1-.6.065-.566.033-.568v-.406l-.033-.379-.065-.377-.065-.41-.1-.348-.1-.377-.26-.725-.36-.66-.392-.66-.456-.566-.522-.566-.587-.5-.587-.441-.686-.377-.684-.348-.752-.252-.391-.092-.36-.1-.425-.061-.391-.062-.394-.033Zm.784,4.439.326.064.327.061.326.125.294.127.293.188.262.189.228.221.228.221.2.25.2.285.132.283.13.314.065.313.065.318v.689l-.065.316-.065.313-.13.318-.132.281-.2.283-.2.252-.228.221-.228.221-.262.189-.293.188-.294.125-.326.127-.327.064-.326.063h-.719l-.326-.062-.327-.064-.326-.127-.294-.125-.293-.187-.262-.189-.228-.221-.228-.221-.2-.252-.2-.283-.132-.281-.13-.318-.065-.312-.065-.316v-.689l.065-.318.065-.312.13-.314.132-.283.2-.285.2-.25.228-.221.228-.221.262-.189.293-.187.294-.127.326-.125.327-.061.326-.064Z" data-name="Tracé 13306"
          fill="white"
          fillRule="evenodd" id="Tracé_13306" transform="translate(-266.938 -14959.223)"/>
</svg>
