<?xml version="1.0" encoding="utf-8"?>
<!-- Generator: Adobe Illustrator 22.1.0, SVG Export Plug-In . SVG Version: 6.00 Build 0)  -->
<svg style="enable-background:new 0 0 456 312;" id="Calque_1" version="1.1" viewBox="0 0 456 312" x="0px"
     xmlns="http://www.w3.org/2000/svg" y="0px" xml:space="preserve">
<style type="text/css">
	.st0{fill:#005DAA;}
	.st1{fill:#F8981D;}
</style>
    <g id="QNGrLG.tif">
	<g>
		<path class="st0" d="M153.6,271.7c-52.5-0.8-117-58.1-118.6-105c10.9,0,21.9-0.1,32.8,0.2c1,0,2.3,2.3,2.9,3.8
			c4.5,11.3,7.9,23.1,13.3,33.8c14.3,28.3,37.8,47.7,64.2,64.1C149.7,269.4,151.1,270.2,153.6,271.7z"/>
        <path class="st1" d="M413.2,139c-12.5,0-24.9,0-37.8,0c-8.9-52.2-39.7-83.1-92.1-93.1c4.1,0.2,8.2,0.2,12.3,0.6
			c4.3,0.4,8.6,0.8,12.9,1.5c26.3,4,51.1,11.9,71.3,30c17.2,15.4,29.2,34.1,33.6,57.1c0.1,0.7,0.2,1.3,0.3,2
			C413.6,137.4,413.5,137.7,413.2,139z"/>
        <path class="st0" d="M162.9,166c3.3,2.2,5.8,3.8,8.6,5.7c-0.7,1.3-1.2,2.5-2,3.5c-11.2,14.2-34.2,13.1-44.3-2.1
			c-8.5-12.7-8.4-34.4,0.2-47.1c11.1-16.4,37.1-15.9,45.6,1.1c-0.4,0.4-0.8,0.9-1.4,1.2c-2.2,1.4-4.5,2.8-7.2,4.5
			c-3.5-4.8-7.7-8.2-14-8.1c-8,0.1-13.8,4-16.6,12c-2.9,8.3-2.9,16.8-0.3,25.1c4.5,14.3,20.3,17.4,30.3,6.2
			C162.1,167.5,162.3,166.9,162.9,166z"/>
        <path class="st0" d="M222.7,162c-12.6,0-23.5,0-34.4,0c-0.3,12.7,9.4,16.8,23.6,10.1c1.8,2,3.7,4,5.5,6
			c-11.2,11.9-30.8,8.6-37.2-6.2c-4-9.3-3.8-18.9,0.1-28.2c3.5-8.3,11.2-12.8,20.4-12.4c9.1,0.4,15.7,4.7,18.7,13.2
			C221.2,149.8,221.6,155.5,222.7,162z M211,153.2c-0.6-8.5-5-12.7-12.4-12.3c-6.3,0.4-10.3,5.1-10.1,12.3
			C196,153.2,203.3,153.2,211,153.2z"/>
        <path class="st0" d="M304.5,132.8c3.6,0,6.6,0,9.9,0c0,16.9,0,33.6,0,50.8c-3.7-0.1-7.8,2.6-10.7-2.4c-2.5,1.1-5.1,2.7-7.9,3.4
			c-10.7,2.7-20.5-2.9-21.6-14.1c-1.2-12.3-0.3-24.8-0.3-37.6c2.7,0,5.6,0,9.1,0c0.1,1.6,0.2,3.4,0.3,5.1c0.1,8.8-0.2,17.7,0.2,26.5
			c0.4,7.6,4,11.2,10.1,11.2c6.2,0,10.2-3.9,10.5-11.4c0.4-8.1,0.2-16.3,0.3-24.5C304.5,137.7,304.5,135.6,304.5,132.8z"/>
        <path class="st0" d="M263.6,137.1c-1.6,2.9-2.9,5.1-3.9,7c-4.8-1.2-9-2.7-13.3-3.3c-2.9-0.4-6.9-0.2-7.1,3.6
			c-0.1,2,2.4,4.8,4.5,6.1c3.8,2.3,8.3,3.5,12.3,5.5c7.8,3.8,10.6,9,9.3,16.9c-1.1,6.7-5.9,11-14,12c-8.9,1.1-17.1-0.8-24.8-6.3
			c1.5-2.5,2.9-4.7,4.2-6.9c4.4,1.5,8.5,3.2,12.8,4.1c6,1.2,11.1-0.8,11.6-4.1c0.8-5.7-4.2-6.4-7.8-8.2c-4.2-2.1-8.6-3.7-12.6-5.9
			c-5.5-3.1-6.9-8.3-6.1-14.2c0.7-5.6,4.2-9,9.4-10.5C247,129.9,255.3,131.7,263.6,137.1z"/>
	</g>
</g>
</svg>
