<?xml version="1.0" encoding="UTF-8"?><svg id="Calque_1" xmlns="http://www.w3.org/2000/svg" viewBox="0 0 2028.26 1107.51"><defs><style>.cls-1{isolation:isolate;}.cls-1,.cls-2{fill:#141325;fill-rule:evenodd;}.cls-1,.cls-3{opacity:.1;}</style></defs><g id="Groupe_1293"><g id="Groupe_1279" class="cls-3"><path id="Tracé_17017" class="cls-2" d="M930.24,1044.35l7.62,.64,.64,.64,.64,1.26v13.97l-.64,11.42-.64,11.42-.62,1.9v1.26l-.64,.64h-1.91l-8.88,1.26h-17.14l-4.45-1.26-1.9-.64-1.26-1.26-1.9-3.16-.64-4.45-1.26-7.62-.64-7.61,.64-8.26,1.26-7.62h.64l.62-.64,11.42-.62,12.06-1.28h6.97Zm-11.42-2.52l-21.57,1.9-.64,.62-.64,.64v.64l.64,.62h.64l-1.28,4.45-.62,4.45-.64,9.52,.64,10.16,.62,6.33,1.28,2.55,1.26,3.16,.64,1.28,1.26,1.26,2.54,1.26,3.17,.64h2.54l8.88,.64,8.88-.64h6.35l3.81-.64,1.26-.62,1.28-.64,1.26-3.17,.64-3.81v-6.99l.62-15.88v-16.5l-.62-.64-5.71-.62h-16.52Z"/><path id="Tracé_17018" class="cls-2" d="M918.19,1055.77l-.64,1.9v1.91h-1.26l-1.28,.64v1.26l.64,.64h1.9v6.36l.64,.64h1.26l.64-.64v-7h1.26l3.17,.64h2.55l.64-.64v-1.9l-1.28-.62h-6.33v-1.9l-.64-1.28h-1.27Z"/><path id="Tracé_17019" class="cls-2" d="M810.92,1073.55v3.19l-1.26,3.16-1.29,2.55h-1.26l-.64-1.91-.62-1.91v-1.9l1.26-1.28,3.17-1.26-.62-.64h1.26Zm-.64-2.53l-1.91,.62-1.26,1.28-1.26,1.26-1.28,1.26-1.26,1.9v1.28l1.26,3.81,1.28,1.26,1.26,.64h1.26l1.91-.64,1.28-1.26,.62-1.28,.64-3.81,.64-3.16-.64-1.91-1.26-.64-1.28-.62Z"/><path id="Tracé_17020" class="cls-2" d="M273.31,1010.07l6.35,.64,2.53,1.26,1.28,1.28,.62,2.53v2.55l-.62,5.71-1.28,4.45-.62,2.53-1.28,1.28-1.26,.62-1.9,.64-11.42,1.26h-8.88l-9.52-.62-6.99-.64h-1.26l-.64-.64-.62-1.91-.64-3.81,.64-8.24,.62-8.26,6.99,.64,6.98-.64,13.97-.64h6.98Zm-4.45-2.53l-10.14,.62-10.8,.64h-5.07l-4.45-.64h-1.9v1.9l-.62,6.35-.64,8.26v4.43l.64,3.19,.62,2.53,1.28,.64,.62,.64,11.42,.62h10.8l10.78-.62,10.78-1.28,.64-.62v-.64l1.9-6.98,.64-3.81,.62-3.81v-3.81l-1.26-2.54-.63-1.91-1.26-.64-1.9-1.26-1.9-.64-5.07-.62h-5.09Z"/><path id="Tracé_17021" class="cls-2" d="M857.88,1064.03l-.62,.64v1.26l2.53,.64,2.54,.64h5.71l.64-.64,.62-.64v-.64l-.62-.62-2.54-.64h-8.26Z"/><path id="Tracé_17022" class="cls-2" d="M843.93,1041.18l-4.45,1.26-1.9,.64-1.26,1.26-.64,1.28,.64,.62h1.26l.64-.62,1.26-.64,1.9-.64,4.45-.62,8.24,.62,17.78,.64,6.35,.64,2.53,.62,2.54,1.28,1.26,.62,.64,1.28,.64,3.17-.64,5.71,.64,12.06-.64,12.07-.64,4.43v.64h-1.26l-1.91,.64h-5.07l-13.33-.64-5.71,.64-5.71,.62h-2.55l-2.54-1.26-1.9-1.26-1.26-2.54-1.27-4.45-.64-4.43v-19.06l.64-8.88-.64-.64v-.62h-.64l-.62,.62-.64,4.45-.64,5.07v8.9l.64,11.42,.64,5.07,.62,3.18,.64,1.91,1.26,1.91,1.9,1.26,1.28,.64,1.9,.62,3.81,.64,4.43-.64h22.85l7.62-.62,.64-.64v-.64l.64-8.88,.62-8.26-.62-17.13v-5.07l-.64-1.28-1.26-1.91-1.28-.62-1.26-1.28-5.07-1.26-6.36-.65h-6.35l-12.69-.62-4.45-.64h-4.43Z"/><path id="Tracé_17023" class="cls-2" d="M704.91,1008.81l5.09,1.26h4.43l12.71,.64h6.34l6.35-.64h0l-1.26,9.52v8.9l-.64,2.53v1.91l-1.9,1.28h-1.91l-12.06,.62h-5.71l-8.24,.64-4.45-.64h-3.81l-2.54-1.26-.62-.64-.64-.62-.64-14.61v-6.98l-.62,.64-.64-.64h.64v-1.26l5.07-.64h5.07Zm-8.24-2.54l-2.54,.64-1.9,.64-.64,.62v1.28l.64,.62h1.27l-.62,2.55v12.68l.62,9.52,.64,.64,.64,.64,5.07,1.26,5.07,.64h26.66l5.09-.64,1.9-.64,1.26-1.26,.64-1.26,.62-1.9v-11.43l.64-5.71,.64-5.71-.64-1.28-1.26-.62-6.99,.62h-7.62l-15.85-1.26-8.9-.64h-4.43Z"/><path id="Tracé_17024" class="cls-2" d="M695.39,1041.82l-7.61,.62-5.07,.64-1.9,.64-2.55,1.26-.62,1.91-.64,1.91v4.45l-.64,22.85-.62,5.71,.62,3.17,.64,1.28,.64,.62h.62v-5.71l.64-5.07,.64-18.42v-5.71l.62-3.16,.64-1.26,1.26-1.28,3.81-1.26,4.45-.64h6.98l7.61,.64,6.99,.64,6.98,1.91-.64,6.98,.64,6.97-1.26,11.45-.64,12.05-5.71,1.28h-6.36l-12.05-1.28h-8.9l-3.81,1.28-1.9,.62-1.26,1.91v.64h1.9l2.54-.64,3.81-.62h5.71l5.71,.62,10.14,.64h5.09l5.07-1.26v1.26l.64,.64,.62,.62h.64l.64-.62,.62-3.81v-3.81l.64-7.62v-6.99l.64-7.62-.64-10.16v-2.52h.64v-1.91l-.64-.64h-.64l-7.61-1.9-8.24-1.26h-8.9Z"/><path id="Tracé_17025" class="cls-2" d="M953.73,1097.04l-8.26,1.26-5.07,.64-5.07-.64h-4.45l-4.45,1.28v-.64l-.62-.64h-.64l-.64,.64-.62,5.07v5.1l-.64,10.14h2.55l.62-8.24-.62-8.9,5.07-.62,5.07-.64h13.97l3.81-.64,4.45-.62h3.81l2.54,1.26,1.26,1.91,1.26,1.91,.64,3.16v11.42h1.9v-6.34l-.64-6.99-.62-2.53-1.9-2.55-1.91-2.54-3.19-1.26h-7.62Z"/><path id="Tracé_17026" class="cls-2" d="M987.38,1096.4l-6.99,1.9-.62,.64v.64l-1.28,9.52v10.14h2.54v-8.88l.64-5.07v-2.55l-.64-2.54,5.71-.62,5.71-.64h25.39l2.53,.64,1.91,1.26,1.28,1.91,1.26,3.81v12.69h2.54v-14.59l-.64-1.91-1.27-1.91-1.28-1.9-1.9-1.26-1.91-.64-1.91-.64h-31.09Z"/><path id="Tracé_17027" class="cls-2" d="M258.07,1079.26l-2.54,.64-1.26,.64h-1.26v.62l.62,.64h3.81l4.45-.64,.64-.62h.62l-.62-1.28h-4.45Z"/><path id="Tracé_17028" class="cls-2" d="M827.42,1046.25l2.54,.64,.64,.64,.62,12.05v12.06l-.62,5.71-.64,5.71-1.26,2.54-1.28,1.91-1.9,1.91-2.53,.64h-9.52l-9.52-.64h-5.73l-3.17-.64-2.54-.62-1.9-1.28-1.91-1.27-1.26-2.54-.64-3.16v-3.81l.64-3.81,.64-6.99v-4.43l-.64-4.45v-8.88l21.59-.64,12.06-.64h6.34Zm-17.76-1.9l-22.23,.64-.64,.64h-.62l-1.28,3.81v3.81l.64,8.24v8.26l-1.26,8.9,.62,3.81,.64,3.16,1.9,1.91,1.9,1.91,2.54,1.26,3.17,.64,6.99,.64,10.14,.62h10.8l2.53-.62,2.54-.64,2.55-1.26,.62-1.28,.64-.62,.64-5.71,.62-5.09v-10.79l-.62-10.8v-11.43h-22.84Z"/><path id="Tracé_17029" class="cls-2" d="M278.38,1046.89v8.88l-.62,8.9,.62,5.71,.64,5.71,.64,3.17v3.81l-.64,3.19-1.26,1.26-1.29,.64-3.17,.62-3.17,.64h-16.51l-4.43-.64-4.45-.62h-5.72l-.64-.64-.62-.64-.64-3.16v-8.88l1.26-8.9v-9.52l-.62-3.81-.64-4.45,10.16-.62,10.14,.62,10.8-.62,10.15-.64Zm.64-2.54l-5.07,.64-5.71,.64h-10.8l-10.78-.64-10.78,.64-1.29,.62v1.91h1.29l-.64,10.17v10.16l-.64,10.78v5.09l.64,5.07v1.26h7.61l6.36,.64,12.69,.64h9.52l4.45-.64,1.9-.64,1.9-1.26,1.26-1.26,.64-1.91,.62-3.81v-3.81l-.62-3.81-.64-5.09-.64-5.07,.64-9.52v-9.52l-.64-.64-1.26-.64Z"/><path id="Tracé_17030" class="cls-2" d="M741.73,1044.99l9.52,.64,9.52,.62,9.52,.64,2.54,.64,1.9,.62,.62,1.91,.64,1.9,.64,4.45v4.45l-.64,10.16-.64,10.14-.62,3.18-1.29,1.91-1.9,1.91-1.9,.62-2.53,.64h-2.55l-5.07-.64-11.42-.62-7.62-.64-3.81-.64-1.91-1.26-.64-1.26-1.26-4.45-.64-4.45v-9.52l.64-9.52v-9.52l4.43-1.26,4.45-.64Zm-3.17-1.9l-6.99,1.26-.62,.64v1.26l-.64,12.71v21.58l.64,2.53,.62,2.54,1.28,1.91,1.9,1.26,1.91,.64,1.9,.64h4.43l9.52,1.26h8.9l4.43,.64,4.45-.64,1.9-.64,1.9-.62,1.26-1.9,1.28-1.91,1.26-5.71,.64-5.71v-12.07l.62-8.9-.62-3.81-.64-2.53-1.26-1.28-1.9-1.26-1.9-.64-5.09-.62h-9.52l-13.33-.64h-6.34Z"/><path id="Tracé_17031" class="cls-2" d="M755.06,1074.83l1.9,.62-1.26,1.28-.64,.62h-1.9l-.64-1.26v-1.26h2.55Zm-1.26-2.54l-1.29,.64-1.26,.62-.64,.64-.62,1.26v1.28l1.26,1.9,2.55,1.26h1.9l-.64,.64-.64,1.26-.62-.64h-1.29v1.91l.64,1.28h1.26l1.28-.64,1.26-1.26,1.26-1.91,.64-2.54,.64-1.91-.64-.64-1.26-.62-.64-1.28-1.26-.62-1.9-.64Z"/><path id="Tracé_17032" class="cls-2" d="M256.17,1071.03v.62l.64,.64,1.9-.64-2.54,2.55-1.26,.64h-.64l.64-1.9,.62-1.28,.64-.62Zm-.64-1.91l-1.26,1.26-1.26,.64-.64,3.17v1.9l1.26,.64h3.19l2.53-1.91,1.28-1.28,1.26-1.26v-1.26l-.64-1.28h-.62l-1.28-.62h-3.81Z"/><path id="Tracé_17033" class="cls-2" d="M840.74,1097.68l-8.24,.62h-14.61l-4.43,.64-1.28,.64v1.26l-.62,2.54v15.85h2.53v-17.76l6.99-.64,6.98-.64,6.98,.64,6.36-.64h6.98l3.81,.64,3.19,.64,1.91,.62,1.26,1.28,.64,1.9,.62,1.91v8.24l-.62,3.81h2.53l.64-5.07v-6.35l-.64-3.81-1.26-2.53-2.54-1.9-2.53-.64-3.19-.64-3.17-.62h-8.26Z"/><path id="Tracé_17034" class="cls-2" d="M368.51,1071.02l-2.53,1.26-1.9,1.91v1.26h1.26l2.54-1.91,1.9-.62,1.26,.62-4.45,3.81-3.17,3.19-.64,.62v1.28h.64l1.26,.62,5.71-1.27h2.54l.64-.64v-1.26l-.64-.64h-2.54l-2.53,.64,5.07-5.07,.64-.64v-.64l-.64-1.26-1.26-1.26h-3.19Z"/><path id="Tracé_17035" class="cls-2" d="M480.85,1010.71l19.06,.64h5.71l1.9,.62,1.26,.64,.64,1.27v5.08l-.64,4.43v5.71l.64,2.54,.62,2.54-8.88,.62h-9.52l-7.62,.64-8.26,1.26-4.45-.62-4.43-1.28-.64-.62-.64-.64v-14.59l-.62-6.35h.62l1.9-1.26,1.9-.64h11.43Zm-12.05-2.54l-1.9,.64-1.9,1.26v-1.26h-1.29l-.62,5.71v17.14l.62,1.91,.64,1.9,1.26,1.26,1.9,1.28,4.45,.62,5.07,.64,10.16-1.26,6.35-.64h12.07l6.33-.64,1.28-.62v-1.28l-1.28-3.17-.62-3.17v-6.35l.62-3.81v-3.16l-.62-3.19-1.91-3.17h-.64l-.64-.64-6.34,.64h-6.35l-13.33-.65h-13.33Z"/><path id="Tracé_17036" class="cls-2" d="M737.92,1096.4l-9.52,.64-9.52,.64h-14.59l-.64,.62-.64,.64v.64l.64,.62-.64,3.81v4.45l.64,8.26v2.53h2.54v-8.88l-.64-5.07v-4.45l14.59-.64,14.61-1.26h5.07l4.45,.64,2.53,.62,1.29,1.91,.62,1.9,.64,2.54v6.35l-.64,6.33h1.9l1.28-6.98v-6.35l-.64-3.81-1.26-2.53-2.54-1.91-3.17-.64-3.19-.64h-3.17Z"/><path id="Tracé_17037" class="cls-2" d="M682.07,1010.07l.64,.64h.64v1.9l-.64,5.71-1.9,10.78-.64,3.19-1.26,1.9-1.9,.62-3.81,.64-6.36,.64-6.97-.64-10.79-.64h-6.35l-3.19-.62-1.26-.64-1.26-1.26-.64-1.28-.64-1.9v-11.42l1.28-6.33,4.43-.64h5.73l8.88-.64h26.02Zm-34.9-2.53l-5.09,.62-5.07,.64-.64-.64h-.64l-.62,.64v.64l-.64,.62-.64,1.28v.62l.64,.64-1.26,8.26v8.24l.62,2.54,.64,1.91,1.26,1.26,1.28,1.28,5.07,1.26,5.09,.64,10.78,.62h12.06l5.71-.62,6.34-1.28,.64-.62v-.64l.64-6.35,.62-6.34,.64-6.35,.64-6.98v-.64h-.64l-7.62-.64-6.98-.62-15.23,.62-7.61-.62Z"/><path id="Tracé_17038" class="cls-2" d="M303.77,1008.81l5.07,1.26h4.45l12.69,.64h6.35l6.36-.64h0l-1.26,9.52v8.9l-.64,2.53v1.91l-1.9,1.28h-1.9l-12.06,.62h-5.72l-8.26,.64-4.43-.64h-3.81l-2.55-1.26-.64-.64-.62-.62-.64-14.61v-6.98l-.64,.64-.62-.64h.62v-1.26l5.09-.64h5.07Zm-8.26-2.54l-2.53,.64-1.91,.64-.64,.62v1.28l.64,.62h1.26l-.64,2.55v12.68l.64,9.52,.64,.64,.62,.64,5.09,1.26,5.07,.64h26.66l5.07-.64,1.92-.64,1.26-1.26,.64-1.26,.62-1.9v-11.43l.64-5.71,.64-5.71-.64-1.28-1.26-.62-7,.62h-7.61l-15.88-1.26-8.88-.64h-4.45Z"/><path id="Tracé_17039" class="cls-2" d="M927.07,1007.54l7.61,.62,8.88,.64,8.26,.64,6.35,.62h6.35l1.26,.64,.64,1.26,1.26,5.09v12.05l-.64,3.81-.62,1.28-.64,.62-2.54,1.28h-5.07l-8.26-.64-4.45-.64h-3.81l-10.78,1.28-4.45-.64h-1.26l-.64-.64-.62-1.26-.64-3.81v-20.94l-.64-.64,4.45-.63Zm-3.17-1.9l-3.19,.62-2.53,1.91-.64,.64,.64,.64,.62,.62,.64-.62,1.9-.64,.64-.32v.32l-1.28,6.35-.62,5.71v3.81l.62,3.81v7.62l.64,1.26h.64l5.71,.64h5.71l12.05-.64,4.45,.64,4.45,.62h9.52l2.55-1.26,2.53-1.91,.64-3.16,.64-3.81v-6.99l-.64-6.33-1.26-3.81-1.28-1.91-1.26-1.28-3.17-.63-3.19,.62h-2.53l-3.19-.62-5.71-.64-8.88-.64-8.9-.62h-6.33Z"/><path id="Tracé_17040" class="cls-2" d="M796.95,1010.72l-1.27,23.49-10.8,.62-10.78-.62h-10.78l-10.8,.62-1.9-5.71-.62-6.34-.64-5.71,1.26-5.71,1.9-.64h1.9l3.81,.64,9.52,.62h14.61l14.59-1.26Zm-42.53-3.17l-3.81,.62h-.62l-.64,.64h-.64l-.62,1.26,.62,.64-1.26,3.17-.64,3.18v6.97l1.29,6.98,1.9,5.71,.62,.64,1.28,.64,5.71-.64,5.71-.64,11.42,.64,11.42,.64,11.42-.64,.62-.64,.64-.62v-13.33l.64-13.33v-1.28l-1.28-.62-15.86,1.26-7.62,.64-8.26-.64-7.61-.64-4.45-.62Z"/><path id="Tracé_17041" class="cls-2" d="M381.84,1044.99l4.45,.64,2.54,.62,1.26,1.28,.64,2.53,.62,2.54v4.45l-.62,4.43-1.28,9.54v13.33l-.62,2.53-1.9,1.28-1.9,.62h-2.55l-2.55-.62-4.43-1.28h-6.99l-6.34,.64-3.81,.64h-4.45l-2.54-.64-1.26-.64-1.9-1.26-.64-1.9v-14.6l.64-6.35-.64-6.35v-10.16h14.62l14.59-1.26h5.07Zm-1.9-2.54l-9.52,.64-9.52,.64h-14.59l-.64,.62-.62,.64v.64l.62,.62-.62,3.81v4.45l.62,8.26-.62,12.69v6.35l.62,6.35,.64,.62,.64,.64,6.33,.64,6.36,.62,13.33-1.26,3.81,.64,4.45,1.26,5.07,.64,1.9-.64,1.26-.64,1.28-1.91,.62-1.26,.64-3.81v-12.07l.64-4.43,.62-8.9,.64-6.35-.64-3.81-1.26-2.53-2.54-1.91-3.17-.64-3.17-.64h-3.19Z"/><path id="Tracé_17042" class="cls-2" d="M395.81,1010.72l-1.26,23.49-10.8,.62-10.79-.62h-10.78l-10.8,.62-1.9-5.71-.62-6.34-.64-5.71,1.26-5.71,1.9-.64h1.9l3.81,.64,9.52,.62h14.61l14.59-1.26Zm-42.53-3.17l-3.81,.62h-.62l-.64,.64h-.64l-.62,1.26,.62,.64-1.26,3.17-.64,3.18v6.97l1.28,6.98,1.9,5.71,.62,.64,1.28,.64,5.71-.64,5.71-.64,11.42,.64,11.42,.64,11.42-.64,.62-.64,.64-.62v-13.33l.64-13.33v-1.28l-1.28-.62-15.85,1.26-7.62,.64-8.26-.64-7.62-.64-4.45-.62Z"/><path id="Tracé_17043" class="cls-2" d="M390.74,1097.68l-7.62,.62-5.09,.64-1.9,.64-2.53,1.26-.64,1.9-.64,1.91v4.45l-.62,10.14h2.53l.64-5.71v-5.71l.64-3.16,.62-1.26,1.28-1.28,3.81-1.26,4.43-.64h6.99l7.62,.64,6.98,.64,6.98,1.91-.62,6.98,.62,6.97-.62,1.9h3.17v-3.16l-.64-10.16v-2.53h.64v-1.91l-.64-.64h-.62l-7.61-1.91-8.26-1.26h-8.88Z"/><path id="Tracé_17044" class="cls-2" d="M802.66,1096.4l-6.98,.64-7,.64-6.98,.62h-18.39l-2.55-.62-2.54,.62-.62,1.28v.62l.62,.64v6.35l.64,5.71v6.33h2.55v-7.61l-.64-3.81-.64-3.81,.64-3.81,1.9,.64,4.45,.64,12.05-.64,22.23-1.26v9.52l-.64,10.14h3.19v-21.57l-.64-.64-.64-.64Z"/><path id="Tracé_17045" class="cls-2" d="M438.34,1008.17l8.88,.64,1.26,.64h1.29l.62,.62v1.28l.64,2.53-.65,2.54v8.88l.64,4.45,.64,3.81-20.95,1.26h-21.58l-1.26-15.24v-8.88l7.61-.64,7.62-.62,7.61-.64,7.62-.64Zm-13.33-1.91l-8.26,1.28-8.88,.62v-1.26h-1.29v1.26h-2.53l-.64,1.28,.64,.62,.62,.64h1.28l-.64,6.35v6.34l1.26,12.71,.64,1.26,.64,.64h22.85l22.85-1.9h.62l.64-1.28-1.26-6.98-.64-6.35v-13.33l-.64-1.26h-.62l-13.33-.64h-13.33Z"/><path id="Tracé_17046" class="cls-2" d="M839.48,1008.17l8.88,.64,1.28,.64h1.26l.64,.62v1.28l.62,2.53-.62,2.54v8.88l.62,4.45,.64,3.81-20.95,1.26h-21.58l-1.26-15.24v-8.88l7.62-.64,7.61-.62,7.62-.64,7.61-.64Zm-13.33-1.91l-8.26,1.28-8.88,.62v-1.26h-1.26v1.26h-2.54l-.64,1.28,.64,.62,.64,.64h1.26l-.64,6.35v6.34l1.28,12.71,.62,1.26,.64,.64h22.85l22.85-1.9h.64l.62-1.28-1.26-6.98-.64-6.35v-13.33l-.62-1.26h-.64l-13.33-.64h-13.33Z"/><path id="Tracé_17047" class="cls-2" d="M1007.68,1075.45l-1.91,.64-1.9,1.26-1.91,.64-1.26,1.26v1.91l.62,1.28,1.28,.62,3.16,1.28h1.26l.64-.64-.64-1.26-.62-.64h7.62l3.81-.64,.62-.62,.64-.64-.64-.64-.62-.62-7.62,.62h-5.09l1.28-.62,1.91-1.28,.62-.62v-.64l-.62-.64h-.64Z"/><path id="Tracé_17048" class="cls-2" d="M980.39,1009.46l7.61,.62,21.59,.64h7.61l3.81,.64h1.9l1.26,.62,.64,2.54v19.04l-.64,.64-1.26,1.26-3.81,.64h-12.69l-13.33-1.28-8.26-.62-1.9-.64-1.26-1.91-1.28-2.54v-2.53l-.62-6.35v-5.07l.62-2.55-.63-3.17h.63Zm0-2.54l-3.81,.64-.62,.62v1.28l.62,.62h1.28v2.54l-.64,3.17v3.81l.64,8.26,1.91,8.26,.62,.62h6.35l5.71,.64,11.42,1.26h16.5l5.71-1.26,.64-.64,.64-.62v-18.42l-1.28-5.71-.62-1.91-1.9-.62-1.91-.64h-14.62l-12.68-1.26-8.88-.64h-5.09Z"/><path id="Tracé_17049" class="cls-2" d="M998.8,1045.63l20.95,.62h1.91l1.26,1.91,.64,2.54,.62,2.55v22.85l-.62,8.26-.64,2.53-1.26,.64-11.43,1.26h-23.49l-11.42-1.26-11.42-.64h-5.71l-5.71,.64-.64-13.97-.64-13.97,1.28-6.33v-6.35h1.26l1.91-.64h7.62l12.06-.62h23.49Zm-39.98-2.55l-3.19,.64-3.17,.62-.64,.64h-.64l-.62,.64v.62l.62,.64h.64l-1.26,1.26-.64,1.28-.64,4.43-.62,8.26v13.33l1.26,13.97,.64,.64,1.26,.62,8.9-.62h9.52l18.4,1.26,8.88,.64,8.9-.64,17.76-1.26,.64-.64,.64-.64,.62-8.24,.64-8.9v-17.13l-.64-3.81-1.26-3.16-.64-1.91-1.26-.64-1.26-1.26h-1.91l-17.13-.64h-17.78l-19.04,.64-6.98-.64Z"/><path id="Tracé_17050" class="cls-2" d="M316.46,1069.74l-.62,.64-2.54,1.91-2.54,2.54v1.26l.64,.64h.64l2.53-1.91h0l-.62,6.97,.62,.64,.64,.62,1.26-.62v-.64l.64-5.07,.64-5.09v-1.27l-.64-.64h-.64Z"/><path id="Tracé_17051" class="cls-2" d="M882.01,1010.71l19.04,.64h5.71l1.91,.62,1.26,.64,.64,1.27v5.08l-.64,4.43v5.71l.64,2.54,.62,2.54-8.88,.62h-9.52l-7.62,.64-8.26,1.26-4.42-.62-4.45-1.28-.64-.62-.62-.64v-14.6l-.64-6.35h.64l1.9-1.26,1.91-.64h11.42Zm-12.07-2.54l-1.9,.64-1.9,1.26v-1.26h-1.26l-.64,5.71v17.14l.64,1.91,.62,1.9,1.28,1.26,1.9,1.28,4.43,.62,5.09,.64,10.14-1.26,6.35-.64h12.06l6.33-.64,1.28-.62v-1.28l-1.28-3.17-.62-3.17v-6.35l.62-3.81v-3.16l-.62-3.19-1.91-3.17h-.64l-.64-.64-6.33,.64h-6.35l-13.33-.64h-13.33Z"/><path id="Tracé_17052" class="cls-2" d="M324.72,1098.3l-6.98,1.28v.62h-.64l-.64,.64-.62,9.52v8.88h2.53v-6.98l.64-5.07-.64-2.54-.62-2.54h.62l5.71-.62,5.71-.64h25.39l2.54,.64,1.9,1.26,1.26,1.91,1.28,3.16v11.42h2.53v-8.88l-.62-4.45-1.28-3.81-1.26-1.26-1.9-1.26-1.9-.64-1.9-.64h-31.11Z"/><path id="Tracé_17053" class="cls-2" d="M330.43,1046.25l1.26,.64,.64,.64,.64,.62v11.42l-.64,9.54v9.52l.64,9.52-5.09,1.26-5.07,.64-10.78-.64-10.16-.64-5.07-.62-3.19-.64-1.26-1.26-1.26-4.45v-14.59l.62-10.16,.64-10.16h20.3l12.07-.64h5.72Zm-39.35-2.53l-.64,.62-.64,.64v.64l.64,.62-1.26,5.71-.64,5.71v11.44l.64,12.69v3.17l.62,1.9,.64,1.28,.64,.62,.62,.64,2.55,.64,6.98,.62,6.99,1.28,13.33,.62,6.98-.62,3.17-.64,3.19-.64,.62-.62v-1.28l-.62-5.07v-16.5l.62-10.8v-11.42l-1.26-.64-10.78-.62h-10.8l-10.78,.62-10.79-.62Z"/><path id="Tracé_17054" class="cls-2" d="M649.7,1097.68l-1.26,.62v1.91l-.64,4.45-.62,5.07-.64,9.52h2.54l1.26-18.4h20.94l11.42-.64h5.71l1.26,.64,.64,.64,.64,.62,.62,1.9-.62,15.23h1.9l.62-9.52v-10.78l-.62-.64-10.8-.62-10.79,.62h-10.79l-10.8-.62Z"/><path id="Tracé_17055" class="cls-2" d="M295.51,1095.78l-4.43,.62-6.99,.64-10.78,.64h-20.94l-10.16,.62-3.81,.64-1.9,1.26-1.9,2.54-1.26,2.54-.64,3.81v10.14h3.18v-7.61l.62-5.07,.64-2.54,1.26-1.9,1.28-.62,2.53-.64h21.58l17.78-.64,6.98-.62,8.88-.64,3.81,.64,3.81,1.26,2.54,1.91,.64,1.26,.62,1.91,.64,6.35-.64,6.98h3.81v-7.61l-1.26-7.62v-1.9l-1.26-1.27-2.54-2.54-3.81-1.26-3.81-.64-4.45-.63Z"/><path id="Tracé_17056" class="cls-2" d="M699.2,1074.83l.64,1.26-.64,.64-2.53-1.28,1.26-.62h1.26Zm-2.53-1.9l-1.9,.62-1.29,1.91v1.28l.64,.62,3.17,.64v.64h1.28l-1.9,.62-1.28,1.28-.62,.62,.62,1.28,3.19,.62,2.53-.62h.64l.64-.64-.64-2.54-1.26-1.91,1.26-.62v-1.91l-1.26-1.28-1.9-.62h-1.91Z"/><path id="Tracé_17057" class="cls-2" d="M614.16,1097.68l-21.58,1.9-.64,.62-.62,.64v.64l.62,.62h.64l-1.26,4.45-.64,4.45-.64,8.24h2.55v-8.24l1.26-8.26h.64l.64-.64,11.42-.62,12.05-1.28h6.99l7.62,.64,.62,.64,.64,1.26v16.5h2.54v-20.3l-.64-.64-5.71-.62h-16.5Z"/><path id="Tracé_17058" class="cls-2" d="M642.72,1072.29l-3.19,1.26v.64l.64,.64h3.81l-3.17,5.71-.64,2.53,.64,.64h1.9l.62-1.26,.64-1.91,1.26-3.19,1.28-3.81v-.62l-1.28-.64h-2.53Z"/><path id="Tracé_17059" class="cls-2" d="M424.37,1071.64l-3.17,2.55-.64,.64h2.55l1.26-.64,.64,.64-1.9,1.26-1.91,1.26-.64,.64v1.26l.64,.64h.62l2.55-.64h2.54l-1.28,1.28-2.53,.62-.64,.64-.64,.64,.64,.62,.64,.64,2.53-.64,1.28-.62,1.9-1.28,1.26-1.26v-1.26l-.64-.64-1.91-.64-1.9-.62,1.28-1.28,.62-.62-1.9-2.54v-.64h-1.27Z"/><path id="Tracé_17060" class="cls-2" d="M443.41,1044.99v10.79l-.64,10.8-.62,10.16,.62,10.78h-20.3l-19.68,.64v-13.33l.64-13.34v-3.81l-.64-3.81-.62-3.81v-3.81l2.53,.64h16.51l22.21-1.91Zm1.26-2.54l-6.98,.64h-6.98l-6.99,.64-6.98,.62h-11.42l-2.54-.62-2.53,.62-.64,1.28v.62l.64,.64v6.35l.62,5.71v7.61l-.62,7.62v15.88l1.26,.62,21.59-.62h21.57l.64-.64,.64-1.26-.64-5.09v-17.14l.64-10.78v-11.42l-.64-.64-.64-.64Z"/><path id="Tracé_17061" class="cls-2" d="M494.2,1046.25l3.17,1.28,1.9,.62,1.26,1.28,.64,1.91,.64,1.91v4.43l-.64,3.81-.64,6.99-1.26,7.61v3.81l-.64,4.45-.62,1.91-.64,1.26-1.9,1.26h-2.54l-17.14-1.26h-17.14l-.64-7.61-.62-6.98-1.28-7.64v-17.76l6.35-.64,6.98-.64h24.77Zm-11.44-2.53l-8.24,.62h-14.61l-5.07,.64-.64,.64v.62l-.62,2.55-.64,3.16,.64,5.71v8.26l1.26,7.62,.64,7.62,.62,8.26,.64,.64,.64,.62,6.98-.62h6.36l13.33,.62,7.62,1.28h3.81l1.26-.64,1.9-.64,1.28-1.26,.62-1.26,1.28-3.19v-6.34l1.27-9.52,1.26-9.54v-6.33l-.62-3.19-1.28-2.53-2.53-1.91-3.19-1.28-2.53-.62h-11.45Z"/><path id="Tracé_17062" class="cls-2" d="M480.23,1072.93l-1.28,1.26-1.26,1.26-3.17,3.81-.64,.64v.64l.64,.62h3.81l3.17-.62v3.81l.64,.62h.62l.64-.62v-.64h1.26l-.62-1.26,.62-3.81v-.64l-.62-.64-.64-.62-.64,.62-2.53,1.28h-3.19l3.19-3.18,.62-1.26v-1.26h-.62Z"/><path id="Tracé_17063" class="cls-2" d="M536.09,1101.49l-.64,.62-.64,4.45-.62,3.81v8.88h2.52v-8.24l.64-8.26-.64-.64v-.62h-.62Z"/><path id="Tracé_17064" class="cls-2" d="M433.89,1098.94l-6.98,1.26-.64,.64v1.26l-.64,17.13h1.9l.64-8.24v-8.26l4.45-1.26,4.43-.64,9.52,.64,9.52,.62,9.52,.64,2.54,.64,1.9,.62,.64,1.91,.62,1.9,.64,4.45v6.98h1.9v-.62l.64-8.9-.64-3.81-.64-2.53-1.26-1.28-1.9-1.26-1.9-.64-5.07-.62h-9.52l-13.33-.64h-6.35Z"/><path id="Tracé_17065" class="cls-2" d="M517.05,1044.99l5.07,.64,15.23,.62h12.69l1.28,.64,.62,.64,1.28,2.53,.62,3.81v3.81l-.62,8.9v5.71l-.64,7.61-.64,3.81-1.91,3.81-.62,1.26-.64,.64-2.54,.64-5.71,.62h-10.78l-5.07-.62-5.71-1.28-2.54-1.26-1.9-1.26-1.26-2.54-.64-2.54v-6.34l.64-5.71,.62-5.73-.62-6.33-1.28-12.07h5.09Zm-6.36-2.55l-1.26,1.28-.64,.62v.64l.64,.64,1.26,.62-.64,3.81v3.18l.64,7.61v7.62l-.64,6.98-.62,5.71,.62,2.54,.64,1.9,1.26,1.91,1.9,1.91,1.9,1.26,2.55,1.28,6.98,1.26,6.35,.64h6.98l6.99-1.28h2.53l1.9-1.26,1.91-1.26,1.28-1.9,1.9-3.81,.62-5.09,.64-5.07v-24.13l-1.26-3.17-1.28-1.91-1.26-.64-1.9-.62-1.9-.64h-7.62l-21.58-.64h-8.88Z"/><path id="Tracé_17066" class="cls-2" d="M590.03,1079.26l1.29,.64v.64l-1.29,.62h-1.26l-1.26-.62h-.64l2.54-1.28h.62Zm-.62-6.98l-3.19,1.26-1.9,2.54-1.26,1.26v2.54l.64,.64-.64,.62v.64l.64,.64,.62,.62,1.29-.62,1.9,1.26h3.81l1.26-.64,1.26-1.26v-2.54l-.62-1.26-1.9-.64-1.9-.62-1.9,.62-1.9,1.28v-1.28l1.26-1.26,1.26-1.26,1.9-.64h1.9l.64-.64-.64-1.26h-2.53Z"/><path id="Tracé_17067" class="cls-2" d="M579.24,1009.46l7.62,.62,21.58,.64h7.62l3.81,.64h1.9l1.26,.62,.64,2.54v19.04l-.64,.64-1.26,1.26-3.81,.64h-12.71l-13.33-1.28-8.24-.62-1.9-.64-1.28-1.91-1.26-2.54v-2.53l-.64-6.35v-5.07l.64-2.55-.64-3.17h.64Zm0-2.54l-3.81,.64-.64,.62v1.28l.64,.62h1.26v2.54l-.62,3.17v3.81l.62,8.26,1.9,8.26,.64,.62h6.36l5.71,.64,11.42,1.26h16.5l5.71-1.26,.64-.64,.62-.62v-18.42l-1.26-5.71-.64-1.91-1.9-.62-1.9-.64h-14.6l-12.69-1.26-8.9-.64h-5.07Z"/><path id="Tracé_17068" class="cls-2" d="M539.26,1097.04l-4.45,1.26-1.9,.64-1.26,1.26-.64,1.28,.64,.62h1.26l.64-.62,1.26-.64,1.9-.64,4.45-.62,8.26,.62,17.76,.64,6.35,.64,2.54,.62,2.53,1.28,1.29,.62,.62,1.28,.64,3.17-.64,5.71,.64,5.07h1.9v-13.95l-.64-1.28-1.26-1.9-1.26-.62-1.28-1.28-5.07-1.26-6.35-.64h-6.34l-12.71-.62-4.43-.64h-4.45Z"/><path id="Tracé_17069" class="cls-2" d="M659.86,1044.99l2.54,.64,1.9,1.26,1.27,1.91,1.26,3.81v12.06l-1.26,10.16-.64,4.43-1.9,5.09-1.26,1.91-1.26,1.26-2.54,1.26-1.9,.64h-10.16l-17.13-.64-2.55-.62-1.9-1.91-1.26-1.91-.64-2.54v-5.71l.64-5.07v-14.61l.64-5.07-.64-2.54-.64-2.55h.64l5.71-.62,5.71-.64h25.39Zm-30.47-2.54l-6.99,1.28v.62h-.62l-.64,.64-.64,8.26v24.11l-.62,4.45,.62,3.81,.64,1.26,.64,1.91,1.26,1.28,1.9,.62,5.71,1.28,5.71,.62,11.42-.62h4.45l5.07-.64,2.55-.64,1.9-.62,1.9-1.28,1.26-1.91,2.54-5.07,.64-5.07,.62-10.8,.64-10.16v-5.07l-.64-1.9-1.26-2.55-1.26-1.26-1.9-1.26-1.9-.64-1.91-.64h-31.11Z"/><path id="Tracé_17070" class="cls-2" d="M529.73,1074.19v3.16l.64,1.28,.62,.62h3.19l.62,1.28v1.26h-3.17l-.64-.64-.62,.64-.64,.64v1.26l.64,.64h5.07l.64-.64,.62-.64,.64-1.9v-1.91l-.64-1.26-1.26-.64-1.26-.62h-1.9v-.65h1.9l1.26-.64,1.9-.62v-.64h-7.62Z"/><path id="Tracé_17071" class="cls-2" d="M603.99,1045.63l2.55,1.26,1.26,2.54,1.26,2.53,.64,3.81v6.99l-.64,5.71v13.33l-.62,4.45-1.28,2.53-1.9,1.28h-5.71l-6.33-.64-5.09-.64h-11.43l-5.71,.64-3.17-.64-1.26-.62v-11.43l1.26-10.16,.64-8.9-.64-9.52,5.07-1.26h18.42l4.43-1.26h8.26Zm-8.26-2.54l-8.24,1.26h-14.61l-4.43,1.28v-.64l-.64-.64h-.64l-.62,.64-.64,5.71-.64,6.35v11.42l-1.26,11.43v10.78l.64,.64,.62,.64h11.43l11.42-.64,4.45,.64,4.45,.62,4.43,.64h4.45l1.26-.64,1.28-.62,1.9-2.54,1.26-3.17v-32.39l-1.26-3.81-1.28-3.17-2.53-1.91-3.19-1.9h-7.62Z"/><path id="Tracé_17072" class="cls-2" d="M525.93,1007.54l7.62,.62,8.88,.64,8.26,.64,6.36,.62h6.33l1.29,.64,.62,1.26,1.28,5.09v12.05l-.64,3.81-.64,1.28-.62,.62-2.55,1.28h-5.07l-8.26-.64-4.45-.64h-3.81l-10.79,1.28-4.45-.64h-1.26l-.64-.64-.62-1.26-.64-3.81v-20.94l-.64-.64,4.45-.63Zm-3.17-1.9l-3.19,.62-2.53,1.91-.64,.64,.64,.64,.62,.62,.64-.62,1.9-.64,.64-.32h0v.32l-1.28,6.35-.62,5.71v3.81l.62,3.81v7.62l.64,1.26h.64l5.71,.64h5.71l12.05-.64,4.45,.64,4.45,.62h9.52l2.53-1.26,2.54-1.91,.64-3.16,.62-3.81v-6.99l-.62-6.33-1.28-3.81-1.26-1.91-1.26-1.28-3.19-.63-3.17,.62h-2.54l-3.17-.62-5.71-.64-8.88-.64-8.9-.62h-6.33Z"/><path id="Tracé_17073" class="cls-2" d="M504.98,1100.21l-22.23,.64-.62,.64h-.64l-1.26,3.81v3.81l.62,8.24v1.9h2.55l-.64-7.61-.62-4.43,.62-3.81,21.59-.64,12.06-.64h6.36l2.53,.64,.64,.64,.64,15.85h1.91l-.64-18.4v-.64h-22.85Z"/><path id="Tracé_17074" class="cls-2" d="M259.34,959.3l-12.05,.64h-5.71l-6.35,.62-6.36,1.9-2.53,.64-2.54,1.91-.64,1.26-1.26,1.28-.64,3.17,.64,6.97-1.26,11.42-.64,10.8-1.26,11.42-.64,11.42-.64,48.24v24.11l1.28,24.11h2.53v-19.03l.64-19.66-.64-38.72,.64-17.78,1.26-17.78,1.29-17.76,.62-17.78v-1.27l.64-1.28,2.54-1.9,3.17-1.26,4.45-1.26,5.71-1.28h6.34l13.33-.62h13.97l12.69,.62,16.51,.64,53.96,1.26,22.85,.64,9.52-.64h194.86l114.24,.64,114.24,1.26,113.62,1.28,114.25,.62,2.54,1.91,2.53,2.54,1.91,2.54,1.28,3.81,2.53,7.61,.64,8.88v17.14l-.64,13.97-.62,23.47-.64,23.49-1.26,22.85v22.84h4.43v-50.76l1.29-26.04,1.26-26.02,.64-12.07-.64-7.61-.64-7.62-1.26-6.98-1.91-6.97-1.9-2.54-1.91-2.54-1.9-2.53-2.55-1.28-.62-1.91-.64-.62h-.64l-110.44-.64-111.08-1.26-110.44-1.28-110.45-.63H340.59l-26.04,.62-19.66-.62-24.13-.64h-11.42Z"/><path id="Tracé_17075" class="cls-2" d="M871.85,1096.4l-3.17,.64-1.28,.64-.62,.62v.64l.62,.64,1.28,.62-.64,3.81v3.19l.64,7.62v4.43h3.17l-.64-10.14-1.26-9.52h10.16l15.23,.62h13.33l1.26,.64,.64,1.91,1.26,1.91v14.59h2.54v-4.43l.62-7-.62-3.81-1.28-3.17-1.26-1.26-1.26-1.28-1.91-.62-1.28-.64h-8.24l-21.59-.64h-5.71Z"/></g><g id="Groupe_1280" class="cls-3"><path id="Tracé_17076" class="cls-2" d="M2011.43,175.81l-5.24,1.21-5.24,1.6-5.23,2.02-4.84,2.01-.41,.41v.8l.41,.41,.4,.39,3.63-.39,3.23-.81,6.85-2.42,6.85-2.01v-3.22h-.4Z"/><path id="Tracé_17077" class="cls-2" d="M2011.83,145.97l-2.81,.8-7.25,2.02-7.66,2.42-14.51,5.64-.41,.41,.41,.39h4.03l4.02-.39,4.03-1.21,4.03-1.21,8.06-2.83,4.03-1.21,4.02-1.21v-3.62Z"/><path id="Tracé_17078" class="cls-2" d="M2011.83,155.65l-4.43,1.62-6.04,2.01-5.64,2.01-6.04,2.02-5.24,2.42-.41,.39h3.63l2.83-.39,6.04-1.21,6.04-1.62,5.64-2.01,3.63-1.62v-3.63Z"/><path id="Tracé_17079" class="cls-2" d="M2011.83,194.34l-4.02,1.21-3.23,.81-4.02,.8-2.02,.8-1.6,1.21-.81,1.21-.8,1.62h.41l4.02-.8,4.03-1.21,8.06-2.02v-3.62Z"/><path id="Tracé_17080" class="cls-2" d="M2011.83,134.29l-16.52,5.23-8.06,2.83-7.66,3.22-.41,.41,.41,.41h4.43l4.44-.81,4.43-1.6,4.43-1.62,7.25-2.83,7.25-2.42v-2.82Z"/><path id="Tracé_17081" class="cls-2" d="M2011.83,185.48l-10.47,4.02-9.67,4.44-.41,.39,.81,.41,4.84-.41,4.84-1.21,5.23-1.6,4.84-1.62v-4.43Z"/><path id="Tracé_17082" class="cls-2" d="M1879.24,179.03l-2.83,1.21-3.63,1.62-6.86,3.63-3.63,1.21-3.63,.8-1.6,.41h-2.02l-1.6-.41-1.62-.8h-.8l-.81,.39-.8,1.21-.8,1.21-1.21,.41-.81,.41-.8-.41-.8-.8-2.02-2.42,.41-2.02-.41-.8-.4-.41h-1.21l-2.02,1.62-.8,1.62-.41,1.6,.41,1.21-1.62,1.62-1.21,.41-1.6,.8h-1.62l-.8-.8v-.81l.4-1.21v-.39l-.4-.81-.81-.39h-.8l-.41,.8-.4,2.01-1.21,2.42-2.02,2.02-2.01,1.21-2.83,.39h-2.42l-1.6-.39,2.01-4.44,.8-3.22v-.8l-.4-.41-.41-.41-.8,.41-2.83,1.62-2.01,2.81-.41,1.21-.41,1.21v1.62l.81,1.21-3.26,3.63-.8,.8-.8,.41h-.81l-.4-.41-1.21-.8-.81-2.01v-2.02l.41-2.42,1.21-2.01,.8-.8,1.21-.81,.41-.39v-.41l-.41-.41h-.4l-1.21,.41-.81,.41-1.6,1.6-1.21,2.42-.81,2.83v2.83l.41,2.42,.41,.8,.8,1.21,.8,.41,1.21,.39,1.21,.41,1.21-.41,1.21-.39,1.21-.81,2.42-2.42,2.02-3.22,.8,.41,2.01,.39,2.02,.41,2.01-.41,2.01-.39,1.62-.81,1.62-1.21,1.21-1.21,1.21-1.6,.8,.39,1.21,.41,2.42-.41,2.83-1.21,2.42-1.6,1.6,.8,2.02,.41,2.42,.39,2.01-.8,1.62-.8,1.21-.81,.8-.39,1.62-.41h4.84l4.43-1.21,4.43-1.21,4.84-2.01,4.44-2.02,2.01-1.6,2.02-1.21v-1.21l-.41-.41h-.79Z"/><path id="Tracé_17083" class="cls-2" d="M1946.13,260.03l-6.04,.8-6.04,1.21-6.04,1.62-6.04,2.01-12.09,4.44-6.04,2.01-6.04,1.62-31.43,8.87-14.1,3.63-8.87,2.01-2.83,.8h-1.21l-1.21,.41-.8,.8-.8,.81-.41-.41h-2.01v.8l.4,.81,.41,.39,7.66-.8,7.25-1.21,7.25-1.61,7.25-1.6,14.51-4.44,14.51-4.43,6.45-1.62,6.44-2.42,13.3-4.84,6.45-2.01,6.85-2.02,6.86-1.21,6.44-.39,.81-.41,.8-.41v-.39l.41-.81-.41-.8v-.41l-.8-.39-.82-.41Z"/><path id="Tracé_17084" class="cls-2" d="M1737.37,224.97l.81,.8,1.21,1.21,2.01,2.02,6.45,6.44,6.04,6.86,6.85,7.25,7.25,6.44,2.01,1.21,2.03,1.61,4.43,2.42,2.01,1.21,2.02,1.62,1.21,2.01,.8,2.02-1.6,.39-1.22-.39-1.6-.81-1.21-1.21-1.21-1.62-1.21-1.21-2.83-2.42-3.22-2.42-3.23-2.01-6.85-3.63-4.03-2.83-4.02-3.22-3.63-3.22-3.63-3.63-5.24-6.05-2.83-2.83-2.81-2.42,.4-.41,1.62-1.6,1.62-.81,1.6-.8Zm-1.21-2.42l-1.6,.8-2.42,1.62-1.62,2.01-.41,.41v.8l.41,.41,.41,.41,.8-.41,2.01,2.42,2.42,2.83,3.63,5.64,5.24,5.64,5.64,5.24,3.63,2.42,3.63,2.42,7.25,4.43,3.23,2.42,3.22,2.42,3.22,3.23,2.42,3.63,1.21,1.62,1.21,.8,1.22,.8,1.21,.41h.8l1.21-.41,1.62-1.6,1.21-1.62v-3.22l-.81-1.21-.8-.81-1.21-.8-.8-1.62-1.62-2.01-1.21-1.21-1.62-.81-3.63-1.6-2.83-1.62-2.81-2.01-5.65-4.84-7.65-8.07-7.66-8.46-5.24-4.84-2.42-2.42-2.81-2.01-.41-.8-.41-.41h-1.21Z"/><path id="Tracé_17085" class="cls-2" d="M2011.83,202.8l-7.65,2.42-3.63,1.62-3.63,2.01v1.21h.4l14.51-3.63v-3.63Z"/><path id="Tracé_17086" class="cls-2" d="M1724.07,228.19l-.4,.41v-.41h.4Zm12.09-11.68l4.84,3.22,4.03,3.23,8.06,7.25,4.84,4.43,4.84,4.03,4.84,4.02,4.44,4.03,8.06,8.06,7.66,8.46,2.02,2.02v.8l.81,.81h.8l6.04,5.64,2.83,3.22,2.82,2.83-1.21,1.62-1.21,1.6-2.01,2.83-3.63,4.03-1.62,2.42-1.6,2.01-3.63-4.43-3.63-3.63-4.03-4.03-4.03-3.63-10.47-9.67-5.24-4.44-5.64-4.02-5.24-4.03-5.24-4.84-4.43-5.24-4.43-5.23-2.02-2.42-4.02-4.44-3.63-3.63-1.62-.8-.41-.41h.41l.41-.39,1.6-1.21,2.02-3.23,3.63-3.63,1.6-1.6,2.41-1.62Zm188.62-81.82l1.62,4.84,1.6,4.84,4.03,9.28,1.62,3.63,1.21,4.02,2.01,7.66,2.83,16.12,3.22,16.93-2.83,.41-2.81,.39-5.65,1.62-10.47,4.03-8.87,2.81-8.86,2.42-18.54,4.03-9.28,2.01-9.67,2.42-18.53,5.65-7.25,2.01-7.66,1.62-4.03,1.21-3.63,1.21-3.22,1.21-3.22,2.01-.41,.41v.8l.41,.8h.8l7.25-2.42,7.25-1.6,7.25-1.62,7.25-2.01,17.33-5.24,17.33-4.43,17.73-3.63,8.46-2.02,8.46-2.42,6.45-2.42,6.44-2.42,6.45-2.01,3.22-.8,3.63-.41,1.21,6.05h-2.42l-2.81,.41-4.84,1.21-9.67,3.63-8.07,2.81-8.46,2.42-16.52,4.44-35.46,9.67-17.73,4.43-17.74,4.43-.8,.41v1.21l.41,.8,.8,.41,8.46-1.21,8.06-1.21,8.46-2.01,8.07-2.02,16.52-4.84,16.12-4.84,17.33-4.84,17.32-5.23,11.7-3.63,6.04-1.62,6.04-1.21,1.21,6.45-15.72,4.84-15.72,4.84-16.12,4.02-15.72,3.63-15.72,3.63-15.32,4.03-14.9,3.63-3.63,1.21-3.63,1.2-2.42,1.62-1.62,.39-.8,.41-.81,.41-.4,.39v.81l.8,.39,.8,.81h1.21l2.02-1.21,4.43-1.62,4.03-1.21,8.46-2.01,16.11-4.44,8.07-2.01,8.46-1.62,17.33-4.02,17.32-4.44,17.33-4.84,16.93-5.23,1.21,4.84-16.12,4.02-16.11,4.44-16.12,4.43-16.12,3.22-7.66,2.02-7.25,2.01-14.1,4.84-6.85,1.62-7.25,1.6-6.86,1.62-3.22,1.21-3.22,1.62v1.6h.8l7.25-1.21,6.85-1.6,14.11-4.03,14.1-4.43,6.85-2.02,7.27-1.6,16.11-3.23,8.07-2.01,8.06-2.01,16.12-4.44,16.12-4.43,1.62,5.64h-.41l-8.46,1.21-8.06,2.02-8.06,2.01-8.46,2.42-16.13,5.64-8.06,2.42-8.07,2.42-32.64,8.06-6.45,1.62-7.25,1.6-3.63,1.21-3.22,1.21-2.83,1.62-2.42,2.01v.41l.41,.41h2.83l3.63-.41,3.22-.8,3.63-1.21,6.45-2.02,6.44-2.01,30.24-7.66,8.46-2.42,8.06-2.42,16.52-5.24,8.46-2.81,8.46-2.02,8.46-2.01,8.46-1.21,1.21-.41,1.62,6.45h-3.22l-3.23,.8-8.06,2.42-8.06,2.42-10.88,3.23-10.49,3.22-10.88,3.22-10.47,3.23-29.02,7.66-15.33,3.63-4.02,1.21-2.42,.39h-2.42l-.41,.41v.8l1.62,.81,1.6,.39h2.02l2.01-.39,4.03-.81,3.22-.8,16.12-4.03,16.12-4.02,17.73-4.84,8.87-2.43,8.46-2.81,21.36-6.45,7.66-2.83,4.03-1.21h4.84l6.04,23.38-29.82,8.87-29.82,8.87-29.42,7.65-8.07,2.02-8.06,1.6-8.06,2.02-7.66,2.42-.41,.4v.81h.41l6.85-.41,6.86-.8,12.89-3.23,16.52-4.02,16.11-4.44,31.43-8.86,31.04-9.28,1.21,5.65-6.45,2.01-6.45,1.62-6.44,1.6-6.45,1.62-16.12,4.84-8.06,2.42-8.06,2.42-29.42,7.25-14.91,3.63-7.25,2.01-7.25,2.42-1.21,.41-8.06-8.06-6.04-6.86-6.86-7.25-3.63-3.22-3.63-3.22-4.02-2.83-4.03-2.01-1.21-4.44v-.8l-.41-.41-.4-.39-4.03-11.7-2.01-6.05-1.62-6.05-4.43-17.33-3.63-17.73-3.63-16.52-2.02-8.46-1.21-8.07v-3.22l.41-2.83,.8-2.42,1.21-2.42,1.62-2.01,2.01-1.62,2.42-1.62,2.42-1.21,3.23-1.21,1.21-.8,.8-1.21h.41l5.64-.41,5.64-1.21,11.29-3.22,9.27-2.42,8.87-2.42,9.27-2.83,9.28-2.01,16.52-3.63,16.53-3.63,16.11-3.63,8.07-2.42,8.06-2.82Zm38.69,153.15l1.21,6.04-25.8,5.24-12.89,3.22-12.89,3.23-14.51,4.02-14.11,4.84-6.85,2.02-6.86,2.01-6.85,2.01-6.85,2.42-2.83,.41-2.42,1.21-5.24-5.24,1.62-.4,1.62-.41,1.21-.8,6.44-1.21,6.04-1.21,12.5-3.63,32.25-8.07,8.06-2.42,7.66-2.42,16.11-4.84,11.7-2.81,6.04-1.21,5.63-2.03Zm2.01,9.28l1.21,5.64-13.3,3.22-13.3,3.23-12.89,4.02-12.89,4.44-12.09,4.43-12.5,4.43-6.85,2.02-6.86,1.21-14.1,2.42-.41,.4-.41,.41-5.64-4.84-1.21-1.21,2.42-.8,2.42-.81,6.04-1.6,3.22-.41,1.62-.41,1.21-.8h.41l10.88-3.64,14.51-4.84,14.1-4.43,13.71-3.23,13.3-3.22,27.4-5.64Zm-162.41-13.3l4.84,3.22,4.44,3.22,4.43,3.63,4.03,3.63,8.06,7.66,7.66,8.06,8.46,8.87,8.46,8.46,4.02,3.22,4.03,3.23,4.03,3.63,3.63,3.22-.81,.8-.4,.81v.4l-2.42,2.83-2.42,2.42-2.42,2.01-2.83-1.6-2.42-1.62-4.43-4.03-4.84-4.02-4.84-4.03-9.67-9.27-10.08-8.87-8.87-7.25-4.43-3.63-4.03-4.43-4.43-5.24-2.42-2.42-2.83-2.01,3.23-4.03,3.63-4.03,1.6-2.82Zm164.03,22.16l1.62,8.07,3.22,17.73-27.81,6.85-27.81,6.86-16.52,4.43-16.53,4.84-8.06,2.42,1.21-.8,.8-1.21,.41-1.21v-1.62l-.81-1.21-1.21-1.21-1.21-1.21-2.81-2.42,1.21-2.42v-.8l-.81-.41v-.41l4.03-.4,4.03-.81,8.46-2.01,8.06-2.42,7.66-2.42,4.84-1.62,4.84-2.01,9.27-4.43,4.44-1.62,4.84-1.62,4.84-1.21,5.23-.4h.81l.4-.41,.41-1.21-.41-1.21-.4-.41-.81-.4-4.43,.4-4.03,.81-4.43,.8-4.03,1.62-8.06,3.22-7.66,3.63-4.84,2.01-5.23,1.62-9.67,2.83-10.49,2.42-4.84,1.6-4.84,1.62-7.66-6.45,3.23,.41h3.22l6.04-.41,6.45-1.21,6.45-2.01,6.44-2.01,6.45-2.42,11.68-4.44,13.3-4.84,13.71-4.02,14.1-3.63,13.71-3.23Zm-96.72,41.92l1.21,1.21,2.42,2.01,1.21,.8,.4,.81v.8l-1.21,.8-1.21,1.62-1.6,.8-2.02,.81h-2.01l-2.42-1.21-1.21-.81-.8-.8,2.01-1.62,1.62-1.6,3.62-3.62Zm66.09-218.44l.81,1.21h1.21l-.81,.8v1.62l1.21,4.02,2.83,7.66,4.43,13.71,4.03,13.71,3.63,16.11,2.01,8.07,2.02,8.06,4.43,15.72,2.01,7.66,2.02,8.06,1.6,8.06,1.21,8.46,1.21,8.46,1.62,8.48,3.22,16.52,4.03,16.52,4.03,14.91,4.84,14.92,4.43,14.9,4.84,14.91-2.01-1.62-1.62-2.01-.4-.41-.81-.4-.8,.4-.41,.41-1.6,2.42-.81,2.42-1.6,4.44-2.83-6.06-2.42-6.44-2.01-6.45-2.02-6.45,.41-.4-.41-.81v-.4l-.8-.41-1.63-7.65-2.01-9.67-2.02-9.67-1.6-8.06,.4-.8v-.41l-.4-.8-.41-.41-3.22-16.12,.4-.4v-.81l-.4-.39-.81-.81-1.22-5.64,.41-1.21v-.8l-.41-.81-.8-.39-5.64-22.58-5.24-20.55v-1.21l-.8-.8-3.63-16.12v-1.21l-2.02-8.06,.41-1.21-.41-.81-.4-.39-2.42-12.09-2.83-16.53-2.01-8.06-2.02-8.46-2.42-5.65-2.42-6.04-2.81-5.64-1.21-3.22-.81-2.83,.41-1.21-.41-.41-.4-.39v-.41h.4l3.23-1.21,3.22-.41,3.22-.4Zm75.37-31.84l-19.74,6.05-19.75,5.64-19.75,4.84-20.15,4.84-39.9,9.67-20.16,4.84-19.75,4.84-16.11,4.44-15.72,4.84-31.43,10.07-7.66,2.83-4.03,1.62-4.03,2.42-3.22,2.42-1.62,1.6-.8,1.62-.8,2.02-.41,1.6-.41,2.02,.41,2.42-.41,4.43,.41,4.84,1.21,4.84,1.21,4.84,3.63,9.67,2.83,8.87,12.09,42.71-7.66-8.06-8.06-7.66-4.84-4.84-5.24-4.02-5.24-4.44-4.84-4.84-3.22-2.81-3.63-3.23-2.01-1.6-2.02-.81-2.01-.39-2.42,.39v-.8l-.41-.8-.8-.41h-.8l-2.02,1.21-2.01,2.01-3.22,3.63-2.83,3.24-1.21,2.01-.41,.8v.81h-.39l-.41,.39-.41,.41-.4,.41,.4,.39,.41,.41,2.01,1.21,1.62,1.62,3.22,3.22,6.04,7.25,3.63,4.43,4.03,4.44,4.43,4.02,4.44,4.03,10.47,8.07,10.47,8.86,4.84,4.44,4.85,4.84,4.43,5.23,4.03,5.24,.8,.8h1.62l.4-.8,.41-.41,1.21,1.62,1.21,1.21,.8,.41v.4l3.23,10.08,3.22,10.47,2.42,10.08,2.01,10.47,4.44,20.96,2.42,10.49,3.22,10.47,6.85,21.76,6.86,21.76,1.21,2.83,1.21,2.42,1.21,2.42,1.6,2.42,2.03,2.01,2.01,2.01,2.42,1.62,2.83,1.21,3.22,.8,3.63,.81,3.63,.4h3.63l3.63-.4,3.63-.41,7.25-1.62,7.25-2.01,7.25-2.42,13.3-4.84,23.38-6.45,23.38-6.44,12.09-4.03,12.48-4.03,6.06-2.01,6.44-1.62,6.04-1.6,6.45-.81,.8-.4,.81-1.21h1.6l2.02-.41,4.02-.8,3.63-1.21v-4.04l-7.65,2.42-3.23,1.21-2.01,1.21-5.24,.41-4.84,1.21-9.67,2.42-18.94,6.44-10.88,3.24-10.88,3.22-22.17,6.04-16.93,5.24-16.92,5.23-6.86,2.02-6.85,2.01-7.25,.8-3.63,.41h-3.63l-4.43-.8-3.63-1.62-2.83-2.01-2.83-2.83-2.01-3.22-2.01-3.63-1.62-3.63-1.21-4.03-3.22-10.47-3.63-10.08-6.86-20.55-2.81-9.27-2.42-9.28-4.03-18.54-4.03-18.94-2.42-8.87-3.22-9.27,1.21,1.21,3.22,3.63,3.23,3.63,7.65,6.45,2.02,4.43,1.21,4.84,2.42,9.67,2.01,10.08,1.62,9.67,2.42,14.51,3.22,14.51,2.42,12.89,2.01,6.86,2.02,7.25,3.22,6.44,1.62,2.83,2.01,2.83,2.42,2.42,2.42,2.01,2.83,1.62,2.81,1.6,4.03,.81,4.03,.4h4.02l4.03-.4,4.03-.81,4.03-1.21,7.65-2.01,9.28-3.22,9.27-3.63,9.67-3.63,9.27-3.23,51.6-14.9,12.89-4.03,13.3-4.03,9.67-2.81v-3.63l-16.11,5.23-25.4,8.07-25.39,7.25-20.95,6.44-10.08,3.23-10.08,3.63-9.67,3.63-9.27,3.22-5.24,1.62-4.84,.8-4.84,.8-4.84,.41h-4.43l-4.03-1.21-3.22-1.21-3.23-2.42-2.81-2.42-2.42-3.22-2.02-3.23-1.6-3.63-1.62-4.02-1.62-4.03-2.01-8.06-1.62-8.07-1.6-7.65-2.42-14.91-2.42-15.32-1.21-7.65-1.62-7.25-2.01-7.25-2.42-7.25,.4,.4,10.88,10.08,5.24,4.84,5.24,4.84,4.84,3.63,2.42,2.01,2.01,1.62,3.63,3.22,1.62,1.21,2.42,.81,.8,.4,.8-.4,.41-.41v.41l.41,.4,2.01,1.62,2.42,1.21-6.04,1.21-2.83,.8-2.42,1.22-.8,.8v.8l.8,.81h.81l15.31-4.03,15.32-4.03,15.31-4.43,15.31-4.03,27.81-6.85,27.81-6.86,1.21,4.84-3.22,.41-3.63,.41-7.25,1.6-13.3,3.63-9.67,2.42-9.27,2.83-18.55,5.65-18.94,6.06-9.28,3.22-9.67,2.83-4.03,.4-4.02,.81-2.02,.4-2.01,1.21-1.21,1.21-1.21,1.62v.41h.41l5.23-1.62,5.24-1.21,5.24-.8,5.23-1.62,17.33-5.24,17.33-5.64,15.72-4.84,16.12-4.44,7.25-2.42,7.65-2.01,7.66-1.62,4.03-.4h3.63l2.01,6.44-7.25,1.21-7.25,1.62-14.51,3.63-29.02,8.07-14.91,4.02-14.9,4.44-14.91,5.23-14.51,5.24-.41,.41v.4l.41,.81h.4l7.25-1.21,7.25-1.62,6.86-2.01,7.25-2.83,14.1-4.84,6.86-2.42,7.25-2.01,14.9-4.03,15.32-4.44,15.31-3.63,7.66-1.6,7.66-1.62,4.02,10.49,2.02,5.23,2.81,4.84,.41,.81h.8l1.21-.41,.41-.8,1.62-5.24,.8-2.42,.8-2.42,1.21,1.21,1.21,.8,3.23,1.21,.4,1.21,.41,.41,.41,.41h1.21l.8-.41,.41-.8v-.41l-.41-.8v-1.21l-.41-.81-4.84-16.12-4.83-16.12-5.23-16.53-4.44-16.11-2.01-8.46-2.01-8.87-2.83-17.33-3.23-17.33-1.6-8.46-1.62-8.86-2.42-7.66-2.01-8.06-4.44-15.32-4.43-17.73-2.01-8.87-2.42-8.87-3.63-11.28-3.63-10.88-1.21-5.24-1.21-2.83-.81-2.42,2.83,.41,3.63-.41,8.06-1.6v2.81l.41,3.23,1.21,6.05,1.62,6.05,2.01,6.05,2.01,8.46,2.02,8.46,3.63,17.33,2.01,8.86,2.01,8.46,4.84,17.74,10.08,34.25,9.67,33.86,4.84,16.52,4.44,16.93,2.81,9.67,3.63,9.67v-9.27l-2.01-5.24-1.62-5.64-4.43-16.12-4.43-16.12-9.28-31.85-9.67-33.04-4.84-16.93-4.43-16.53-3.23-16.52-3.63-16.12-2.01-8.06-2.42-7.66-2.01-8.06-1.62-8.07,10.47-2.81,5.65-2.02,10.08-3.22,9.67-3.63,9.67-3.22,10.07-2.83v-3.22l-1.6,.8-27.41,9.27-13.71,4.44-13.3,4.02-8.06,2.42-4.84,.81h-2.01l-1.62-.41-.41-.41-1.6-.39h-5.24l-3.22,.8-1.62,.8-1.21,.81h-1.21l-.41,.39v2.43l-8.06,2.42-8.06,2.42-16.53,4.03-16.52,3.22-16.53,3.63-9.27,2.42-9.27,2.83-18.14,4.84-7.25,2.01-6.86,1.62-4.44,1.21-2.42,.8h-1.61v1.21l-5.23,1.62-2.83,1.21-2.41,1.62-2.01,1.62-2.02,1.6-1.6,2.42-1.21,2.83-.81,2.83-.4,3.63,.4,3.63,.41,3.63,2.01,6.85,1.62,6.45,4.02,20.55,4.84,20.55,1.6,6.85,2.02,6.85,4.43,13.31-5.24-4.84-5.23-5.24-1.21-5.65-1.21-5.63-3.23-11.29-3.63-11.28-3.63-11.29-2.83-9.67-3.22-10.08-1.21-4.43-.8-4.43-1.62-8.87,.41-.41v-.8l-.41-2.83,.41-2.42,.8-2.01,1.62-2.02,2.01-2.01,2.01-1.62,2.83-1.6,2.83-1.21,6.04-2.42,6.45-1.62,9.67-2.83,33.04-10.08,16.93-4.84,16.53-4.44,35.47-8.46,35.46-8.46,17.74-4.43,17.73-4.43,17.74-4.84,17.32-5.24v-3.63Z"/><path id="Tracé_17087" class="cls-2" d="M2011.83,234.64l-4.84,1.21-2.01,1.21-2.42,1.21v.41h4.84l4.43-.81v-3.22Z"/><path id="Tracé_17088" class="cls-2" d="M2011.83,212.08l-5.64,2.81-2.83,.81-3.22,.8-.8,.41v.8l.4,.41,.41,.8h2.83l3.22-.41,2.83-1.21,2.81-1.21v-4.02Z"/><path id="Tracé_17089" class="cls-2" d="M2011.83,243.51l-2.01,.8-2.01,.8-.81,.81v.8l.41,.41,.8,.39h2.02l1.6-.39v-3.62Z"/></g><path id="Tracé_17090" class="cls-1" d="M269,399.95l1.43,2.2,2.01,1.18,2.59,2.05-2.66,3.59-.14,.72-2.73-1.33-2.74-1.35,1.05-3.16,.9-2.47,.3-1.44Zm9.17,8.37l.57,.87,1.29,1.03,2.58,2.06-1.31,.85-3.81,3.72-1.85-1.9-1.58-1.47,1.48-1.57,2.64-3.59Zm8.33,5.16l2.16,.46,9.39,2,5.05,1.06,4.62,1.36-2.66,3.59-3.38,3.43-6.73,6.87-3.8,3.7-1.91,1.87-.89,2.44-4.24-8.44-3.36-9.02-1.56-3.35,1.92-1.86,3.65-3,1.74-1.14Zm25.12,6.09l4.17,1.65-6.76,8.74-6.89,7.6-4.55,5.43-4.55,5.45-3.26-5.98,2.35-2.13,2.34-2.15,4.83-5,6.31-6.59,3.37-3.43,2.65-3.59Zm8.82,1.11l6.15,6.6,6.57,6.3,13.03,11.44,8.32,7.06,8.91,6.03,8.9,6.05,8.47,6.33,7.74,6.17,7.58,6.9,14.01,13.91,5.3,5.28,5.29,5.27,5.74,4.98,3.02,1.77,3.46,1.49-6.33,8.46-7.04,8.31-6.46,7.3-3.53,4.16-2.64,3.59-6.58-6.29-6.31-5.86-13.32-11.88-14.88-13.35-8.03-6.62-7.74-6.17-14.35-10.6-7.46-5.73-6.75-5.58-6.72-5.58-7.18-5.3-7.01-6.02-6.75-5.58,.15-.73,6.17-7.74,6.46-7.3,7.77-8.15,3.24-4.6,2.79-4.32Zm116.09,98.24l2.7,3.22,2.88,2.49,6.72,5.58-1.59,.42-1.31,.85-3.66,2.99-4.99,5.73-7.06,8.32-4.83,5-2.94,3.15-3.3-2.2-2.86-2.5-3.02-1.77-3.17-1.04,2.78-2.44,2.93-3.14,5-5.74,8.07-9.6,7.66-9.32Zm-200.31,118.92l4.03,2.36,4.33,.92,5.05,1.08,4.2-.25,3.92-.68,4.07-1.39,3.78-1.84,4.73,4.4,5.3,5.28,2.45,.89,2.02,1.18,4.76,.64-5.22,1.52-5.08,.8-5.08,.82-5.21-.35-5.05-1.08-4.9-1.79-4.91-1.8-4.59-3.23-4.6-3.24-4-4.24Zm210.79-100.85l-7.63,9.32-5.74,7.46-3.08,3.87-2.36,4.03,.57,.87,3.5-2.27,2.94-3.15,5.42-6.02,7.04-8.31,6.61-8.03,1.57,1.48-7.02,6.43-6.46,7.3-5.61,8.61-2.35,4.03-1.65,4.17-2.58-2.06-5.58-5.71,4.25-4,4.68-4.28,7.93-8.88,5.55-4.86Zm-274.5-20.21l7.86-3.24,7.14-3.38,14.41-7.5,14.14-7.94,14.14-7.94,15.14-7.34,15.58-7.63,15.58-7.64,15.02-8.5,5,4.83,5.3,5.28,11.77,8.53,15.04,12.63,15.64,11.62,10.61,8.67,10.91,9.11-.16,.72,6.56,8.2,5.25,9.03,4.8,9.32,4.38,9.62,6.45,17.58,4.25,8.45,4.68,8.16-6.44,5.42-13.56,8.81-7.57,3.68-15.15,7.35-14.69,7.06-13.11,6.65-12.83,7.08-25.36,14.6-.85-1.31-.72-.14-.72-.16-3.48,.39-3.77-.05-3.17-1.04-3.17-1.04-2.58-2.06-2.58-2.06-3.99-6.14-1.01-.59-1.16,.12-3.07,1.99-2.9,1.28-3.2,.82-3.19,.84-3.04,.1-3.05,.11-6.93-1.11-2.73-1.33-3.61-.77-5.99-7.31-4.69-8.16-4.67-8.16-3.96-8-11.33-21.28-11.16-21.99-5.67-10.64-5.22-10.91-4.78-11.2-4.37-11.49Zm286.5,22.38l.57,.87-2.34,2.15-2.5,2.86-3.53,4.16-4.4,4.72-3.83,5.61-3.84,5.59-1.33,2.73-1.04,3.17-3.44-3.37,4.84-5.01,4.99-5.73,4.55-5.45,4.99-5.72,2.49-2.88,1.9-1.85,1.91-1.85Zm3.99,4.24l.57,.88-12.48,14.31-5.88,8.18-2.37,4.04-2.36,4.01-2.86-2.49,3.96-4.44,3.96-4.44,3.24-4.6,3.67-4.88,5.13-4.57,2.93-3.14,2.49-2.88Zm3,3.66l1.57,1.48-2.34,2.15-2.35,2.13-3.67,4.88-7.5,10.48-3.41,5.31-3.1,5.75-3.14-2.93,1.89-1.86,1.9-1.85,3.09-3.87,3.24-4.6,3.09-3.87,5.87-6.3,2.64-3.59,2.21-3.3Zm4,4.26l2.58,2.06-6.76,8.74-7.33,7.88-4.72,6.17-2.49,2.85-1.49,3.46-3.58-2.64,3.79-3.72,3.53-4.16,2.81-4.3,3.24-4.6,10.42-11.73Zm5.17,4.11l2.29,1.62-11.15,13.48-5.74,7.46-2.36,4.03-2.08,4.45-4.76-2.51,3.38-3.43,2.93-3.16,5.58-6.72,6.45-7.32,5.46-7.89Zm-208.9-156.8l-.3,1.44-.9,2.45-.61,2.89,.14,1.15,.41,1.6,.73,.15,1.28,1.03,1.01,.59,2.57,2.06-.58,1.01,.12,1.16,.57,.89,.72,.14,2.69,5.11,1.71,2.63,1.55,3.33,2.39,6.55,1.96,4.95,2.41,4.65,2.4,4.67,3.29,4.09,1.28,1.03-.43,.28-30.01,15.13-29.43,16.02-29.72,15.57-29.71,15.56-.73-.15-.87,.57-.16,.73-.16,.72,.29,.44,1.96,6.83,2.38,6.53,2.39,6.55,2.81,6.27,6.81,12.38,6.52,11.94,6.91,13.55,6.51,13.83,6.49,13.83,7.38,13.27,2.68,5.1,3.41,5.25,3.85,4.96,4.28,4.69,3.99,4.25,4.89,3.68,5.75,3.1,5.63,1.95,4.17,1.65,4.77,.63,4.77,.63,5.2,.35,5.07-.82,5.08-.81,4.23-2.12,3.21-2.71,7.7-2.51,7.13-3.39,6.42-3.54,7.27-4.11,13.42-8.09,13.26-7.38,15.14-7.34,14.99-6.63,7.3-4.11,7.28-4.1,6.72-4.99,6.72-4.99,1.74-1.13,.16-.72-.13-1.17-3.98-6.12-3.39-7.13-5.46-15.12-5.9-14.83-3.24-7.86-3.98-6.12,12.47,10.57,6.01,5.43,6.31,5.87,1.01,.59,1.31-.85,.58-1.01,2.44,2.78,3.31,2.21,5.59,3.83,6.02,5.43,6.28,5.86,4.58,5.12,7.15,7.19,3.87,3.09,3.58,2.64,1.74,.74,1.45,.32,1.88,.02,1.75-1.14,.3-1.44,2.92-3.15,3.09-3.87,5.02-7.6,10.73-13.2,1,.59,.73,.16,1.31-.85,.3-1.45-.28-.43-.13-1.17-.44,.29,1.03-1.28,.6-1.02-.29-.44-.42-1.59-1.44-.31-1.31,.85-.59,1.01-2.59-2.05,.6-1.01-1.01-.58-1.02-.6-.71-.15-3.87-3.09-3.59-2.66-3-3.66-6.14-6.58-4.28-4.69-5.45-4.55-5.59-3.83-6.04-3.55,.87-.57,.31-1.44-.56-.87-1.01-.6-1.45-.3-.57-.87-3.45-1.49-3.75-1.93-2.86-2.5-2.87-2.48-5.58-5.71-5.58-5.71-13.45-13.05-6.58-6.3-7.02-6.03-8.18-5.88-7.88-5.45-8.34-5.16-7.74-6.17-7.74-6.17-7.15-7.19-7.6-6.89-7.3-6.46-.85-1.31-.72-.14-.72-.16-.88,.57-.14,.72-.6,1-4.01-2.36-4.47-2.07-4.62-1.37-4.76-.64-5.78-1.22-5.05-1.08-4.9-1.79-2.74-1.35-2.3-1.61-.57-.87-1.28-1.03-3.02-1.77-2.88-2.49-1.28-1.03-1.46-.31-.71-.15-.16,.72-.72-.14-.87,.57Z"/><g id="Groupe_1281" class="cls-3"><path id="Tracé_17091" class="cls-2" d="M782.92,41.5l6.74,.76,7.48,1.49,6.74,1.51,6.01,2.25,2.98,5.23,2.25,5.25-30.7,.76-29.97,.73h-40.45l-13.48,.76h0l26.23-8.99,14.22-3.74,14.24-3,14.24-2.25,6.74-.76h6.74Zm19.47,20.98l-16.49,5.25-23.21,8.23-11.99,4.5-11.24,5.25-6.74,3.73-6.74,4.5-5.99,5.25-6.01,5.25h-.74l-6.74,.74-6.76,.76-14.22-.76-14.24-.74-7.5,.74-6.74,1.51v-6.74l.76-8.26,1.49-5.99,3-6.01,3.74-4.5,4.49-3.74,5.25-3,5.99-2.98,6.01-2.25,14.22,1.49h42.72l29.22-1.49,28.46-.76Zm14.97,2.25l1.51,8.99v9.74l-.76,.74-3.74,3-4.49,3-5.25,2.25-5.99,1.5-11.99,3.74-9.74,3-19.47,6.74-18.73,8.26-7.48,3.74-6.01,4.49-5.99,5.25-4.49,5.99-3,4.5-1.49,4.49-3,8.99-1.49,4.49-1.49,4.5-3,4.49-3,3.74-.76,1.51-6.74-3-7.47-3.74-6.01-5.25-5.99-6.74-3-4.5-2.25-5.25-4.5-11.24-2.99-11.24-.76-11.97h0l6.74,1.49h32.22l11.99-.76-9.01,11.24-8.99,11.24-16.46,23.23v.76l.73,.73h1.51l3.74-3.74,3.74-3.74,6.74-8.25,12.75-17.22,8.23-10.48,8.99-8.99,9.75-8.25,11.24-6.75,8.99-4.5,8.99-3.74,19.47-6.01,38.2-10.47Zm1.51,26.21l-1.51,9.01-2.98,8.99-3,8.99-4.5,8.23-4.49,7.5-5.25,7.48-5.99,6.01-6.74,5.23-5.99,3.76-6.01,2.98-12.72,4.49-12.73,3.76-13.48,2.98-8.25,1.51-8.23,.73h-15.73l4.5-5.23,3-5.25,2.25-5.99,2.25-6.01,2.25-5.99,2.25-5.25,3.74-4.5,3-4.49,4.49-3.74,4.49-3,10.48-5.99,11.99-5.25,11.97-3.74,23.98-7.5,13.49-3.73,6.74-3,6.74-3.01Zm-50.95-53.18l-13.48,1.49-19.47,4.49-18.73,5.25-18.73,5.99-18.71,6.74-6.74,3-6.01,3.74-4.5,5.25-3.74,5.25-3,5.99-1.49,6.74-1.49,6.75v6.74l.73,7.5,.76,7.5,1.49,6.74,2.25,7.48,3,6.74,3,6.74,2.98,6.01,3.76,5.23,4.5,6.01,5.99,4.5,5.99,3.74,6.01,3,7.47,1.49,6.76,.76h7.48l7.5-.76,17.22-2.25,16.49-4.49,8.23-2.25,8.25-3.74,8.23-3.76,7.5-3.74,5.99-4.49,5.25-5.25,5.23-5.99,4.49-5.99,4.49-7.5,3.76-6.74,2.98-8.23,2.25-7.5,1.51-8.25,.74-8.23,.76-8.23-.76-8.25-1.49-7.48-1.49-7.5-3-7.5-3.74-5.99-.76-1.49h-2.25l-1.49,.74-6.01-2.25-7.48-2.25-6.74-.73-7.5-.76h-14.25Z"/><path id="Tracé_17092" class="cls-2" d="M842.84,69.98l3,.74,5.99,2.25,3.74,3,3,3,2.25,3.74-13.48,.76h-5.99l-6.74,1.49,.74-.76,1.51-9.72,.73-3,2.25-1.49h3.01Zm202.25,26.97l2.25,.73,2.25,1.51,1.51,1.49,1.49,1.51,.76,2.25v5.23l-.76,2.25-2.25,3-3,1.49-2.98,1.51-3,.74-5.25-.74h-4.5l3.76-5.25,3.74-4.5,3-5.99,2.98-5.24Zm-377.53,71.15l5.23,4.49,5.25,3.76,5.99,2.98,6.01,3-3.76,1.49-4.49,1.51h-4.5l-5.23-.76-3.76-1.49-2.25-1.51-.74-1.49-.76-2.25,.76-1.49,.74-4.5,1.52-3.75ZM833.09,8.55l-27.7,8.23-10.5,2.25-10.48,3-11.24,2.25-10.47,2.25-20.23,5.99-19.49,6.74-40.45,12.75-17.22,4.5-17.24,5.22-7.48,2.25-3.76,1.51-2.98,1.49h-2.25v.76l-.76,1.49v11.99l1.49,12.73,2.25,11.99,3,12.73,5.25,11.99,5.23,11.24,6.74,10.48,7.5,9.74,3,3.74v.76l-3,4.49-1.49,5.25v5.23l1.49,2.25,2.25,2.25,3,1.51,2.98,1.49,3,.76h11.25l5.99-2.25,2.25-1.51,2.25-1.49,6.01,1.49,6.74,1.51,12.73,2.25h13.48l13.48-1.51,11.24-2.98,11.24-3,10.5-4.49,10.48-5.25,9.74-6.74,8.23-7.48,3.74-3.76,3.76-5.23,2.25-4.49,2.98-5.25,4.5-12.73,3-11.99,2.25-12.73,2.25-12.75,27.72-2.25,.73-.76,2.25,6.01,2.25,5.99,2.25,4.5,3,4.49,6.74,7.5,7.5,7.5,8.99,5.99,9.74,5.25,10.48,4.5,9.74,2.98,9.72,2.25,8.99,1.51,9.74,.74h8.99l8.99-.74,8.99-1.51,8.99-2.25,8.23-2.25,8.99-3.74,6.01-3,5.98-3.74,5.25-3.74,5.23-4.49,3,1.49,3.74,.76h6.74l4.49-1.51,3.76-1.49,2.98-3,2.25-2.98,1.51-3v-3.76l-.76-3-.76-3-1.49-2.25-3-3-2.25-1.49-2.98-.76,2.25-8.99,2.25-8.99,2.25-14.22,.73-14.24,.76-14.24-.76-14.22V8.55h-5.99v14.24l.76,14.22-.76,14.24-1.48,14.24-2.25,13.48-.76,5.23-2.25,5.25-3.74,9.74-6.01,8.99-6.74,7.5-8.23,6.74-8.23,5.23-9.74,4.49-10.48,3.76-8.99,2.25-8.99,.73-8.99,.76h-8.99l-8.99-.76-8.99-1.49-8.26-2.25-8.98-2.25-5.99-3-6.74-2.98-5.98-3.76-6.01-3.74-5.99-4.5-5.25-5.25-4.49-5.23-3.74-6.01-3.76-7.5-2.98-7.47-3.76-7.5-2.25-3.74-2.98-3-3.76-2.25-5.23-1.49-5.25-1.51-4.5,.76-3,1.49-1.49,1.51-1.49,2.25-.76,2.25-1.49,5.23-.76,6.01-4.49,24.72-3,11.99-3.74,11.97-2.25,6.01-3,5.23-2.98,5.25-3.76,4.5-4.49,4.49-4.5,3.74-5.23,3.76-6.01,3.74-13.48,5.25-13.48,4.5-13.48,3.74-13.48,1.49h-13.48l-6.74-.74-6.74-1.51-6.74-2.25-6.74-2.25-6.74-3.74-5.99-3.74-5.25-3.76-5.25-4.5-4.49-5.23-4.5-5.25-4.49-5.99-2.98-6.01-6.74-13.48-4.49-14.22-3-13.51-2.25-14.22v-13.48l6.74-3,6.74-3,15.73-3.74,14.97-3.74,15-3.76,37.44-11.24,18.73-5.99,18.73-5.99,18.71-3.76,18.73-4.49,17.22-4.49,8.99-2.25,8.25-2.25,16.47-3.74h-24.72Z"/><path id="Tracé_17093" class="cls-2" d="M1024.86,39.26l5.25,17.24,1.49,8.99,.76,9.72v5.25l-.76,4.49-.73-.76-20.98-12.73-10.48-5.99-10.5-5.25-8.23-4.49-4.5-1.49-4.49-1.51,26.96-5.99,13.49-3.74,12.73-3.76Zm-63.66,15.73l14.22,5.25,6.74,2.25,7.5,3,9.74,5.23,9.72,6.01,9.74,5.99,9.74,5.99h1.49l-2.25,5.25-3,4.49-3.74,4.5-4.5,3.76-8.99-10.5-5.25-5.25-5.23-5.23-6.01-4.49-5.98-3.76-6.74-2.98-6.74-.76-11.24-.76-11.24,.76-22.47,1.49-21.72,2.26-22.49,1.51-1.49,.74v.76l-.76-1.49-2.98-3.76,8.99-2.25,8.99-2.25,17.98-4.5,35.96-8.23,11.99-3Zm2.98,23.23l5.25,.76,4.5,.74,5.25,.76,4.49,2.25,5.23,2.25,4.49,3.74,5.25,4.49,4.5,5.25,9.74,11.24-6.74,3-7.5,3-8.23,2.25-8.26,2.25-16.46,2.25-15,1.49-12.73,.76-5.99-.76-6.01-.76-5.99-1.49-5.25-2.25-5.23-3-5.25-3.74-6.74-6.74-5.25-7.5-10.48-16.49h0l.74,.76h18l17.22-.76,17.98-2.25,17.22-1.49h11.23ZM896.03,8.55l-6,2.25-6.74,3-5.26,3.74-4.49,3-4.5,3.74-3.74,4.49-2.25,4.5-2.25,5.25v10.48l.76,5.25,2.25,5.99,5.23,11.24,6.75,11.99,6.74,10.48,7.5,10.5,6.74,8.99,4.49,3.74,4.5,3,4.49,2.98,4.5,3,5.25,1.49,5.99,1.51,8.26,.74h8.23l8.23-.74,8.99-.76,16.49-2.25,16.49-3.74,6.74-1.51,5.99-2.25,5.98-2.25,5.25-2.98,4.5-3,4.49-4.49,4.5-4.5,3-6.01,2.98-5.99,1.51-5.99v-18.72l-1.51-6.74-2.25-11.99-5.23-18.71-6.03-18.73h-7.47l3.74,8.99,3,10.48,1.49,6.01-17.98,5.23-19.47,5.25-37.47,8.99-17.98,3.74-19.47,3-8.99,2.25-8.99,3-8.99,2.98-7.5,4.5-4.5-6.74-3-6.74-2.25-6.74-1.48-7.47,3.74,.74h8.25l3.74-1.49,8.25-3,6.74-2.98,49.44-16.49,15.73-6.74,16.47-6.74h-14.97l-11.99,5.25-11.97,4.5-73.42,25.45,.76-5.23,.74-3,1.51-3,3.74-5.23,5.98-4.5,6.76-3.76,7.48-3.74,6.74-2.25,7.5-2.25,5.99-.76h.76l.76-1.49h-17.98Z"/></g></g></svg>