<?xml version="1.0" encoding="UTF-8"?><svg id="Calque_1" xmlns="http://www.w3.org/2000/svg" viewBox="0 0 173.84 178.2"><g id="Groupe_82"><path id="Tracé_122" d="M153.82,107.99l.1,6.48v12.79l.1,6.67,.14,3.33,.5,3.31-1.44-.12-1.26-.12-2.71-.44-3.95-.19h-3.95l-4.5-.17h-4.31s-4.3,.21-4.3,.21l-4.29,.38-9.83,1-9.65,.81-19.68,1.45-5.9,.45-.54-.16-.37-.17-.35,.21-.35,.2-11.82,.54-.38-.54-.37-.17-.54,.02-.7,.22-.51,.58-13.43,.61-.55-.35-.37-.17-.53,.21-.34,.39-1.43,.06-6.26,.66-6.43,.66-2.86,.13-3.04,.14-.55-.34-.54-.17-.54,.02-.53,.22-1.44-.12-1.46-.49-.02-.55-.2-.55-.55-.34-.38-.36,.25-2.61,.07-2.58-.22-5.19v-8.15s-.33-8.14-.33-8.14l-1.05-16.08-1.03-15.89-.89-16.64-1.17-27.57,.08-2.58,.06-2.79,3.21-.52,3.04-.32,6.26-.28,6.81-.31,6.62-.49,14.16-.27,13.99-.26,7.17-.33,6.98-.51,13.96-.81,5.74-.26,5.74-.08,5.92-.08,5.72-.45,24.2-.77c.87,5.34,1.66,10.83,2.37,16.49,1.41,11.17,2.35,21.88,2.92,32.06l1.03,11.45,.66,11.47,.09,6.28Z" fill="none" stroke="#fff" stroke-miterlimit="10"/><path id="Tracé_125" d="M75.85,53.48v26.84c-1.56,.07-3.76,.15-6.42,.19s-4.65,.02-6.81,0c-3.22-.03-7.56-.09-12.84-.19v16.72c3.6,.22,7.36,.36,11.27,.39,5.2,.04,10.13-.11,14.78-.39-.13,9.34-.26,18.67-.39,28l18.28-1.55-1.36-26.45h26.65v-17.31h-25.07l-1.36,.19-.58-28.39-16.14,1.95Z" fill="none" stroke="#fff" stroke-miterlimit="10" stroke-width="1.5"/><path id="Tracé_126" d="M79.47,122.39l-1.04,.7-1.11,.64-.62,.32-.7,.25-.42,.09,.02-1.32,.49-.1,.42-.16,.76-.47,.62-.32,.62-.47,.34-.31,.2-.3,.2-.31-.02-.36-.29-.06h-.28s-.21,.1-.21,.1l-.28,.16-.97,.63-.7,.32-.7,.33-.21,.08,.08-1.62,.35-.02,.42-.23,.76-.47,1.11-.7,.48-.39,.47-.53,.21,4.53Z" fill="#fff" fill-rule="evenodd"/><path id="Tracé_127" d="M80.75,116l-1.38,.94-1.47,.85-.83,.43-.94,.34-.56,.12,.02-1.76,.65-.13,.56-.22,1.01-.63,.83-.43,.82-.62,.45-.41,.27-.4,.27-.4-.02-.48-.38-.08-.38,.02-.28,.11-.37,.21-1.28,.84-.94,.43-.93,.43-.28,.11,.1-2.15,.47-.02,.55-.32,1.01-.63,1.47-.94,.64-.52,.63-.7,.28,6.02Z" fill="#fff" fill-rule="evenodd"/><path id="Tracé_128" d="M79.47,107.96l-1.04,.7-1.11,.64-.62,.32-.7,.25-.42,.09,.02-1.32,.49-.1,.42-.16,.76-.47,.62-.32,.62-.47,.34-.31,.2-.3,.2-.31-.02-.36-.29-.06h-.28s-.21,.1-.21,.1l-.28,.16-.97,.63-.7,.32-.7,.33-.21,.08,.08-1.62,.35-.02,.42-.23,.76-.47,1.11-.7,.48-.39,.47-.53,.21,4.53Z" fill="#fff" fill-rule="evenodd"/><path id="Tracé_129" d="M118.87,85.61l-1.38,.94-1.47,.85-.83,.43-.94,.34-.56,.13,.02-1.76,.66-.13,.56-.22,1.01-.63,.83-.43,.82-.62,.45-.41,.27-.4,.27-.41-.02-.48-.38-.08-.38,.02-.28,.11-.37,.21-1.28,.84-.94,.43-.93,.43-.28,.11,.1-2.15,.47-.02,.55-.32,1.01-.63,1.47-.94,.64-.52,.63-.7,.28,6.02Z" fill="#fff" fill-rule="evenodd"/><path id="Tracé_130" d="M118.23,91.91l-1.04,.7-1.11,.64-.62,.32-.7,.25-.42,.09,.02-1.32,.49-.1,.42-.16,.76-.47,.62-.32,.62-.47,.34-.31,.2-.3,.2-.31-.02-.36-.29-.06h-.28s-.21,.1-.21,.1l-.28,.16-.97,.63-.7,.32-.7,.33-.21,.08,.08-1.62,.35-.02,.42-.23,.76-.47,1.11-.7,.48-.39,.47-.53,.21,4.53Z" fill="#fff" fill-rule="evenodd"/><path id="Tracé_131" d="M76.03,54.87l.17-1.9,.42,.47,.42,.47,1.02,.78,1.11,.69,1.12,.41-.05,1.17-.52-.2-.52-.21-.61-.12-.51-.3-1.02-.58-1.03-.68Z" fill="#fff" fill-rule="evenodd"/><path id="Tracé_132" d="M75.35,56.87l.17-1.9,.42,.47,.42,.47,1.02,.78,1.11,.69,1.12,.41-.05,1.17-.52-.2-.52-.21-.61-.12-.51-.3-1.03-.59-1.03-.67Z" fill="#fff" fill-rule="evenodd"/><path id="Tracé_133" d="M76.03,59.98l.17-1.9,.42,.47,.42,.47,1.02,.78,1.11,.69,1.12,.41-.05,1.17-.52-.2-.52-.21-.61-.12-.51-.3-1.02-.58-1.03-.68Z" fill="#fff" fill-rule="evenodd"/><path id="Tracé_134" d="M75.99,62.76l.17-1.9,.42,.47,.42,.47,1.02,.78,1.11,.69,1.12,.41-.05,1.17-.52-.2-.52-.21-.61-.12-.51-.3-1.03-.59-1.02-.67Z" fill="#fff" fill-rule="evenodd"/><path id="Tracé_135" d="M50.26,81.26l1.05-1.59,.15,.62,.14,.62,.53,1.17,.65,1.13,.79,.9-.6,1.01-.36-.43-.36-.43-.47-.39-.31-.5-.62-1.01-.59-1.1Z" fill="#fff" fill-rule="evenodd"/><path id="Tracé_136" d="M49.95,85.52l.17-1.9,.42,.47,.42,.47,1.02,.78,1.11,.69,1.12,.41-.05,1.17-.52-.2-.52-.21-.61-.12-.51-.3-1.03-.59-1.03-.67Z" fill="#fff" fill-rule="evenodd"/><path id="Tracé_137" d="M49.96,89.41l.17-1.9,.42,.47,.42,.47,1.02,.78,1.11,.69,1.12,.41-.05,1.17-.52-.2-.52-.21-.61-.12-.51-.3-1.03-.59-1.02-.67Z" fill="#fff" fill-rule="evenodd"/><path id="Tracé_138" d="M49.79,93.75l.17-1.9,.42,.47,.42,.47,1.02,.78,1.11,.69,1.12,.41-.05,1.17-.52-.2-.52-.21-.61-.12-.51-.3-1.03-.59-1.03-.67Z" fill="#fff" fill-rule="evenodd"/><path id="Tracé_139" d="M64.06,80.89l1.9-.08-.41,.47-.42,.47-.64,1.11-.54,1.19-.27,1.17-1.17,.1,.13-.54,.14-.54,.04-.62,.23-.55,.46-1.1,.54-1.09Z" fill="#fff" fill-rule="evenodd"/><path id="Tracé_140" d="M67.66,80.2l1.91-.08-.41,.47-.42,.47-.64,1.11-.54,1.19-.27,1.17-1.17,.1,.13-.54,.14-.54,.04-.62,.23-.55,.46-1.1,.54-1.09Z" fill="#fff" fill-rule="evenodd"/><path id="Tracé_141" d="M60.27,80.47l1.9-.08-.41,.47-.42,.47-.64,1.11-.54,1.19-.27,1.17-1.17,.1,.13-.54,.14-.54,.04-.62,.23-.55,.46-1.1,.54-1.09Z" fill="#fff" fill-rule="evenodd"/><path id="Tracé_142" d="M55.6,80.46l1.56-1.1-.09,.62-.09,.62,.07,1.28,.2,1.29,.42,1.13-.93,.72-.18-.53-.18-.53-.31-.54-.1-.59-.22-1.17-.15-1.21Z" fill="#fff" fill-rule="evenodd"/><path id="Tracé_143" d="M80.95,53.77l.63,1.8-.46-.32-.46-.32-.97-.43-1-.32-.9-.07-.43-1.1,.42,.04,.42,.05,.45-.06,.45,.13,.91,.26,.94,.33Z" fill="#fff" fill-rule="evenodd"/><path id="Tracé_144" d="M147.86,106.01l.09,5.91v11.67l.09,6.08,.13,3.04,.47,3.02-1.32-.11-1.15-.12-2.47-.4-3.61-.18h-3.6l-4.1-.16h-3.93l-3.92,.18-3.91,.35-8.96,.91-8.81,.74-17.95,1.32-5.39,.41-.5-.15-.34-.16-.32,.19-.31,.18-10.78,.49-.35-.49-.34-.15-.49,.02-.65,.2-.47,.53-12.25,.56-.5-.32-.34-.15-.47,.19-.31,.35-1.31,.06-5.71,.6-5.87,.6-2.61,.12-2.77,.13-.5-.31-.5-.15-.49,.02-.48,.2-1.32-.12-1.33-.45-.02-.5-.18-.5-.5-.31-.35-.32,.23-2.38,.06-2.36-.23-4.73v-7.44s-.3-7.43-.3-7.43l-.95-14.67-.94-14.49-.81-15.18-1.07-25.15,.07-2.36,.05-2.54,2.93-.47,2.77-.29,5.71-.26,6.21-.28,6.04-.45,12.92-.25,12.76-.23,6.54-.3,6.36-.47,12.74-.74,5.23-.23,5.24-.07,5.4-.07,5.22-.41,22.08-.7c.78,4.87,1.5,9.88,2.16,15.03,1.28,10.19,2.13,19.96,2.66,29.25l.94,10.45,.61,10.46,.08,5.76Z" fill="none" stroke="#fff" stroke-miterlimit="10"/></g></svg>