<?xml version="1.0" encoding="UTF-8"?><svg id="Calque_2" xmlns="http://www.w3.org/2000/svg" viewBox="0 0 19.56 18.42"><defs><style>.cls-1{fill-rule:evenodd;}</style></defs><g id="Calque_1-2"><path id="Tracé_170" class="cls-1" d="M18.64,.84l.37,.05-.02,.37-.12,.02-.12,.05-.22,.12-.27,.15-.27,.2-.1,.07-.02-.05-.07-.1-.05-.02-.07-.03-.3-.02,.17-.12,.17-.12,.37-.25,.27-.17,.15-.07,.14-.08Zm.32,.76l-.02,.81v.79l-.22,.17-.22,.2-.27,.22-.12,.12-.1,.15-.03-.62v-.07l.22-.2,.22-.2,.32-.3,.12-.12,.05-.07,.02-.1-.02-.05-.05-.02-.1-.02-.07,.02-.1,.02-.07,.07-.15,.15-.12,.12-.27,.3v-.42l-.05-.42,.1-.05,.27-.12,.27-.17,.2-.1,.19-.1Zm-.02,1.97v.37l-.02,.96h-.03l-.12,.07-.12,.12-.22,.26-.2,.15-.2,.15v-.59l.35-.2,.15-.07,.17-.07,.15-.1,.05-.05,.03-.07h0s-.03-.06-.03-.06l-.07-.05h-.15l-.07,.02-.17,.07-.15,.07-.25,.17-.02-.54,.2-.1,.17-.1,.32-.25,.25-.18Zm-.02,1.79l-.03,.71-.25,.1-.22,.12-.2,.15-.22,.15h0l.02-.66,.15-.05,.15-.07,.12-.07,.12-.07,.17-.12,.18-.18Zm-.05,1.13v.05l-.1,.03-.1,.05-.17,.12-.15,.1-.12,.12-.25,.27,.03-.44,.22-.05,.22-.07,.42-.17Zm0,.42l-.02,.52v.32l-.17,.12-.17,.12-.3,.2-.3,.22,.05-.59,.02-.4,.35-.2,.35-.2,.2-.12Zm-.05,1.28l-.02,.32-.12,.07-.15,.07-.22,.22-.25,.22-.22,.25,.05-.69,.4-.17,.4-.2,.15-.1Zm-.02,.71v.27l-.25,.2-.37,.32-.35,.34-.02,.03v.02l.02,.02h.05l.44-.17,.2-.12,.22-.12,.03-.03v.42l-.12,.05-.12,.05-.2,.15-.3,.25-.27,.26v-.49l.05-.76,.27-.15,.27-.2,.17-.17,.2-.15,.08-.02Zm-.02,1.55v.64l-.17,.12-.15,.1-.35,.3-.15,.15-.15,.17-.02-.25-.03-.52,.17-.07,.15-.1,.3-.25,.39-.3Zm0,1.08l.02,.4-.2,.1-.17,.12-.35,.27-.07-.05h-.12l-.05-.22,.72-.47,.22-.15ZM2.12,1.92l.3,.07,.32,.02,.64,.05,1.04,.05,1.01,.03h1.04l1.04-.03,2.1-.07,1.98-.05,1.98-.03h1.01l.99,.05,.99,.05,.99,.1-.02,.34-.03,.34v.71l.05,.69,.02,.69v.76l-.02,.74-.1,1.52-.1,1.25-.05,.64-.03,.64-.02,.44-.02,.47,.02,.49,.02,.25,.05,.22h-7.63l-.99,.02-1.01,.03-1.98,.1-.54,.02h-.54l-.52-.05-.52-.05-.54-.1-.3-.03-.27,.03-.05-.22-.02-.25-.02-.49,.02-.96v-.66l-.02-.69-.03-1.33v-.79l-.02-.81-.05-1.57-.03-1.65v-.52l-.05-.26-.02-.1-.04-.13ZM18.82,12.24l.03,.15-.17,.05-.15,.1-.32,.17-.07,.05,.02-.1v-.1l.35-.17,.32-.15ZM8.88,.52l1.58,.07,3.16,.17,.72,.02,.72,.03,1.45-.03,.77-.02h0l-.12,.1-.12,.1v.07l.03,.02h.05l.27-.15,.27-.15,.44,.02-.25,.15-.2,.15-.17,.15-.15,.2-.05,.1-.03,.12-.96-.07-.96-.05-.96-.05h-.94l-1.92,.02-1.9,.07-2,.07-1.98,.02-1.04-.02-1.04-.02-.37-.05-.42-.05h-.42l-.2,.03-.17,.05-.05,.03-.05,.02v.15l.05,.05-.05,.12-.05,.12-.03,.15-.02,.12v2.21l.05,1.67,.02,.84v.84l.05,1.4v1.38l-.03,.47-.02,.54v.27l.05,.25,.07,.25,.1,.2,.07,.07,.1,.05,.1-.03,.07-.05,.3,.07,.3,.02,.59,.1,.49,.05,.47,.05h.94l1.04-.03,1.05-.05,1.04-.05,1.04-.02h7.84l.07,.05h.15l.07-.05h.15l-.15,.1-.15,.12-.12,.15-.12,.15v.05l.02,.03h.05l.22-.05,.2-.07,.4-.2,.3-.15,.27-.12,.05,.22-.27,.15-.42,.25-.4,.27-.04,.02v.05l.02,.02,.05,.02,.25-.02,.22-.05,.2-.07,.22-.12,.22-.12,.07,.4-.54,.05-.52,.02-.54-.02-.54-.05-1.06-.12-.54-.05-.52-.02h-2.49l-2.49,.02-1.21,.02-1.19,.05-2.42,.15-1.16,.05-1.16,.02-.62-.02-.62-.03-.27-.02-.3-.02v-.03l-.12-.32-.07-.32-.07-.32-.02-.34v-4.05l.02-.93,.07-1.72,.07-1.74,.02-.88v-.86l-.02-.86-.02-.88,.1,.07,.15,.07,.12,.05,.17,.05,.35,.05,.37,.02,.37-.02h.35l.52-.05,1.01-.1,1.04-.12,1.01-.07,.52-.05h2.1Zm2.37,13.63v.17l-.17,.07-.15,.09-.3,.2-.2,.15-.17,.17-.17,.17-.15,.2v.05l.02,.05,.03,.05h.07l.17-.1,.15-.1,.3-.25,.27-.17,.27-.17h0l-.02,.5-.12,.05-.12,.07-.22,.12-.15,.07-.17,.12-.15,.12-.05,.05-.02,.1v.02l.02,.02h.17l.15-.02,.3-.15,.35-.17-.02,.34-.25,.15-.15,.1-.15,.12-.12,.15-.15,.12-.02,.02v.02l.02,.03h.05l.3-.12,.27-.12,.17-.07v.22l-.07,.03-.15,.07-.12,.07-.22,.2-.02,.05v.1l.07,.03h.07l.25-.1,.25-.1,.03,.1-.13,.07-.1,.1-.25,.2-.02,.03v.02l.02,.02h.03l.17-.02,.17-.05,.15-.07,.15-.1,.15,.07,.15,.02,.17,.03h.17l.35-.03,.3-.02,.4,.02h.17l.2,.05,.17,.05,.12,.1,.12,.12,.1,.12-.25-.02h-.99l-.74,.05-1.48,.07-.74,.02-.74,.02-1.16,.03h-1.13l-.47-.05-.37-.02-.32-.03,.1-.15,.15-.1,.12-.1,.17-.07,.17-.05,.17-.05,.4-.02,.3,.02,.32,.03,.17-.03h.15l.15-.05,.12-.07,.02-.05,.07,.02h.07l.05-.02,.05-.05,.05-.07,.02-.12v-.15l-.02-.03,.02-.3v-1.35l.03-.32v-.47l-.03-.12,.81-.02h0l-.12,.1-.15,.12-.15,.15-.03,.05-.02,.05-.02,.1v.05l.02,.02h.12l.1-.02,.17-.12,.17-.12,.27-.17,.25-.22h.25l-.22,.2-.2,.2-.2,.22-.15,.25v.05l.02,.02h.05l.12-.05,.12-.05,.25-.15,.44-.35,.27-.12,.2-.1,.15-.12h.3ZM7.03,0l-1.04,.07-1.04,.07-1.04,.12-.94,.1-.47,.02h-.81l-.35-.07-.69-.12-.02-.05-.05-.03-.07-.02h-.05l-.07,.02-.05,.03-.03,.07-.02,.07-.05,.88-.02,.91-.02,1.77-.03,.98-.05,.98L.03,7.76l-.03,.93v.93l.02,1.84-.02,.65v.37l.02,.34,.03,.37,.07,.34,.12,.3,.07,.15,.07,.12,.07,.1,.1,.02h.07l.1-.02,.17,.07,.17,.02,.35,.05,.69,.05,.64,.05h.62l.62-.02,.62-.03,3.45-.17h0l-.05,.12-.02,.14-.03,.32v1.11l-.02,.54-.02,.25v.25l-.15-.05-.2-.05h-.2l-.22-.03-.42,.03-.35,.05-.25,.05-.22,.07-.2,.07-.2,.12-.17,.15-.15,.17-.1,.2-.1,.25v.15l.05,.07,.05,.02,.07,.03h.07l.07-.03,.07-.04,.12,.07,.15,.05,.15,.05,.17,.02,.35,.03h.25l.59,.02h.57l1.16-.02,1.38-.03,1.36-.07,1.53-.05h.25l.27,.02,.27-.02h.15l.1-.05,.07,.05h.15l.05-.03,.05-.05,.05-.05,.03-.07-.03-.07-.07-.25-.1-.2-.15-.2-.17-.15-.2-.12-.2-.1-.25-.07-.22-.05h-.47l-.47,.07-.32,.02-.32,.02-.03-.2,.05-.05,.02-.07v-.05l-.05-.02-.05-.02v-.47l.02-.44,.07-.76v-.37l-.02-.2-.05-.17h3.16l.57,.03,.59,.05,1.13,.12,.59,.05h.57l.57-.03,.3-.02,.27-.07,.1-.02,.07-.07,.02-.07-.02-.1v-.1l-.13-.73,.1-.12v-.1l-.03-.02h-.12l-.05-.47-.02-.47-.05-.96v-.93l.02-.96v-.1l.07-1.77,.07-1.67,.03-1.67,.05-1.52,.03-.79-.03-.37-.02-.4,.05-.05,.02-.05,.02-.07v-.07l-.02-.05-.05-.05-.05-.05-.07-.02-.62-.12-.62-.05-.62-.02h-.65l-1.26,.05h-1.23l-1.58-.07-1.58-.1-1.58-.07-1.57-.05h-1.04Z"/></g></svg>