<?xml version="1.0" encoding="UTF-8"?><svg id="Calque_1" xmlns="http://www.w3.org/2000/svg" viewBox="0 0 173.84 178.2"><path id="Tracé_170" d="M147.34,38.97l2.55,.34-.16,2.54-.85,.16-.85,.34-1.52,.84-1.86,1.02-1.87,1.35-.68,.51-.16-.34-.5-.67-.34-.16-.51-.17-2.04-.16,1.19-.85,1.2-.84,2.55-1.7,1.86-1.18,1.02-.51,1-.52Zm2.2,5.24l-.16,5.58v5.44l-1.52,1.18-1.52,1.35-1.87,1.52-.84,.85-.68,1.02-.17-4.24v-.51l1.52-1.35,1.52-1.35,2.2-2.03,.85-.85,.34-.51,.16-.67-.16-.34-.34-.16-.68-.16-.51,.16-.68,.16-.51,.51-1.02,1.02-.84,.85-1.87,2.03v-2.88l-.34-2.88,.68-.34,1.86-.85,1.87-1.18,1.36-.67,1.34-.7Zm-.16,13.54v2.54l-.16,6.6h-.17l-.84,.51-.85,.85-1.52,1.81-1.36,1.02-1.35,1.02v-4.06l2.38-1.35,1.02-.51,1.2-.51,1.02-.68,.34-.34,.17-.51v-.08l-.17-.34-.51-.34h-1.04l-.51,.16-1.19,.51-1.02,.51-1.7,1.19-.16-3.73,1.35-.67,1.19-.67,2.21-1.7,1.7-1.22Zm-.16,12.35l-.17,4.91-1.7,.67-1.52,.85-1.36,1.02-1.53,1.03h0l.16-4.54,1.02-.34,1.02-.51,.84-.51,.85-.51,1.19-.84,1.21-1.22Zm-.34,7.78v.34l-.68,.17-.68,.34-1.19,.85-1.02,.67-.85,.85-1.7,1.86,.17-3.05,1.52-.34,1.52-.51,2.89-1.18Zm0,2.88l-.16,3.56v2.2l-1.2,.84-1.19,.85-2.04,1.35-2.04,1.52,.34-4.06,.16-2.72,2.38-1.35,2.38-1.35,1.37-.85Zm-.34,8.8l-.16,2.2-.85,.51-1.02,.51-1.52,1.52-1.73,1.51-1.52,1.69,.34-4.74,2.72-1.19,2.72-1.35,1.03-.66Zm-.16,4.91v1.86l-1.7,1.35-2.55,2.2-2.38,2.37-.16,.17v.16l.16,.16h.34l3.06-1.18,1.35-.85,1.52-.84,.17-.17v2.88l-.85,.34-.85,.34-1.35,1.02-2.04,1.7-1.87,1.81v-3.37l.34-5.25,1.87-1.02,1.86-1.35,1.19-1.19,1.36-1.02,.52-.12Zm-.16,10.66v4.4l-1.2,.84-1.02,.68-2.38,2.03-1.02,1.02-1.02,1.18-.15-1.69-.17-3.56,1.2-.51,1.02-.68,2.03-1.69,2.7-2.03Zm0,7.45l.16,2.72-1.36,.67-1.19,.85-2.38,1.86-.51-.34h-.85l-.34-1.52,4.93-3.21,1.54-1.03ZM33.56,46.42l2.04,.51,2.21,.16,4.41,.34,7.13,.34,6.97,.17h7.13l7.13-.17,14.43-.51,13.61-.34,13.61-.17h6.97l6.79,.34,6.8,.34,6.79,.67-.16,2.37-.17,2.37v4.91l.34,4.74,.16,4.74v5.24l-.16,5.07-.68,10.5-.68,8.62-.34,4.4-.17,4.4-.16,3.05-.16,3.21,.16,3.38,.16,1.69,.34,1.52h-52.54l-6.79,.16-6.97,.17-13.61,.67-3.74,.16h-3.72l-3.57-.34-3.57-.34-3.74-.67-2.04-.17-1.87,.17-.34-1.52-.16-1.7-.16-3.37,.16-6.6v-4.54l-.16-4.74-.17-9.13v-5.44l-.16-5.58-.34-10.82-.2-11.35v-3.56l-.34-1.81-.16-.68-.3-.88Zm114.97,71.05l.17,1.02-1.2,.34-1.02,.67-2.2,1.19-.51,.34,.16-.67v-.67l2.38-1.19,2.21-1.03ZM80.09,36.78l10.89,.51,21.77,1.18,4.93,.16,4.93,.17,9.98-.17,5.27-.16h0l-.85,.67-.85,.68v.51l.17,.16h.34l1.87-1.02,1.87-1.02,3.06,.16-1.71,1.02-1.35,1.02-1.2,1.02-1.02,1.35-.34,.67-.17,.85-6.62-.51-6.62-.34-6.62-.34h-6.45l-13.25,.16-13.08,.51-13.75,.51-13.61,.16-7.13-.16-7.13-.16-2.55-.34-2.89-.34h-2.89l-1.35,.17-1.18,.36-.34,.17-.34,.16v1.02l.34,.34-.34,.84-.34,.85-.17,1.02-.16,.85v15.22l.34,11.5,.16,5.76v5.75l.34,9.64v9.47l-.17,3.22-.16,3.72v1.86l.34,1.69,.51,1.69,.68,1.35,.51,.51,.68,.34,.68-.17,.51-.34,2.04,.51,2.04,.16,4.07,.67,3.4,.34,3.22,.34h6.46l7.13-.17,7.26-.34,7.13-.34,7.13-.16h54l.51,.34h1.02l.51-.34h1.02l-1.02,.67-1.02,.85-.85,1.02-.84,1.02v.34l.16,.17h.34l1.52-.34,1.35-.51,2.72-1.35,2.04-1.02,1.87-.84,.34,1.52-1.87,1.02-2.89,1.69-2.72,1.86-.29,.15v.34l.16,.16,.34,.16,1.7-.16,1.52-.34,1.35-.51,1.52-.84,1.52-.85,.51,2.72-3.74,.34-3.57,.16-3.74-.16-3.74-.34-7.3-.84-3.74-.34-3.57-.16h-17.16l-17.15,.16-8.32,.16-8.17,.34-16.65,1.02-7.98,.34-7.97,.16-4.25-.16-4.25-.17-1.86-.16-2.04-.16v-.17l-.85-2.2-.51-2.2-.51-2.2-.16-2.37v-27.92l.16-6.43,.51-11.84,.51-12.01,.16-6.09v-5.92l-.16-5.92-.16-6.09,.68,.51,1.02,.51,.85,.34,1.19,.34,2.38,.34,2.57,.14,2.54-.16h2.38l3.57-.34,6.97-.67,7.13-.85,6.96-.51,3.57-.34h14.43Zm16.33,93.9v1.19l-1.19,.51-1.05,.64-2.04,1.35-1.36,1.02-1.19,1.18-1.19,1.18-1.02,1.35v.34l.16,.34,.17,.34h.51l1.19-.67,1.02-.68,2.04-1.69,1.86-1.18,1.87-1.19h0l-.15,3.41-.85,.34-.85,.51-1.52,.84-1.02,.51-1.2,.85-1.02,.85-.34,.34-.16,.68v.16l.16,.16h1.2l1.02-.16,2.04-1.02,2.38-1.18-.16,2.37-1.7,1.02-1.02,.68-1.02,.84-.85,1.02-1.02,.85-.16,.16v.16l.16,.17h.34l2.04-.85,1.86-.85,1.2-.51v1.52l-.51,.17-1.02,.51-.85,.51-1.52,1.35-.16,.34v.67l.51,.17h.51l1.7-.68,1.7-.67,.17,.67-.89,.51-.68,.68-1.71,1.35-.16,.17v.16l.16,.16h.17l1.19-.16,1.19-.34,1.02-.51,1.02-.67,1.02,.51,1.02,.16,1.2,.17h1.19l2.38-.17,2.04-.16,2.72,.16h1.19l1.36,.34,1.19,.34,.85,.67,.85,.85,.68,.84-1.7-.16h-6.8l-5.1,.34-10.19,.51-5.09,.16-5.1,.16-7.98,.17h-7.81l-3.23-.34-2.55-.16-2.2-.17,.68-1.02,1.02-.67,.85-.67,1.19-.51,1.2-.34,1.19-.34,2.72-.16,2.04,.16,2.21,.17,1.19-.17h1.02l1.02-.34,.85-.51,.16-.34,.51,.16h.51l.34-.16,.33-.34,.34-.51,.16-.84v-1.02l-.16-.17,.16-2.03v-9.31l.17-2.2v-3.21l-.17-.85,5.61-.16h0l-.84,.67-1.02,.85-1.02,1.02-.17,.34-.16,.34-.16,.67v.34l.16,.16h.85l.68-.16,1.19-.85,1.2-.84,1.86-1.19,1.71-1.52h1.7l-1.52,1.35-1.36,1.35-1.35,1.52-1.02,1.69v.34l.16,.16h.34l.84-.34,.85-.34,1.7-1.02,3.02-2.4,1.87-.85,1.35-.67,1.02-.85,2.08,.05Zm-29.07-97.46l-7.13,.51-7.13,.51-7.13,.84-6.46,.68-3.22,.16h-5.61l-2.38-.51-4.75-.85-.16-.34-.34-.17-.51-.16h-.34l-.51,.16-.34,.17-.17,.51-.16,.51-.34,6.09-.16,6.26-.16,12.18-.17,6.77-.34,6.77-.68,13.36-.2,6.42v6.43l.16,12.7-.16,4.45v2.54l.16,2.37,.17,2.54,.51,2.37,.84,2.03,.51,1.02,.51,.85,.51,.67,.68,.16h.51l.68-.16,1.19,.51,1.2,.16,2.38,.34,4.75,.34,4.42,.34h4.25l4.25-.16,4.25-.23,23.78-1.19h0l-.34,.85-.15,.97-.17,2.2v7.61l-.16,3.72-.16,1.7v1.69l-1.02-.34-1.36-.34h-1.35l-1.52-.17-2.89,.17-2.38,.34-1.7,.34-1.52,.51-1.36,.51-1.36,.85-1.19,1.02-1.02,1.18-.68,1.35-.68,1.69v1.02l.34,.51,.34,.16,.51,.17h.51l.51-.17,.47-.3,.84,.51,1.02,.34,1.02,.34,1.2,.16,2.38,.17h1.71l4.07,.16h3.9l7.98-.16,9.51-.17,9.34-.51,10.52-.34h1.71l1.86,.16,1.87-.16h1.02l.68-.34,.51,.34h1.02l.34-.17,.34-.34,.34-.34,.17-.51-.17-.51-.51-1.69-.68-1.35-1.02-1.35-1.19-1.02-1.36-.84-1.36-.68-1.7-.51-1.52-.34h-3.22l-3.23,.51-2.2,.16-2.2,.16-.17-1.35,.34-.34,.16-.51v-.34l-.34-.16-.34-.16v-3.21l.16-3.05,.51-5.25v-2.54l-.16-1.35-.34-1.19h21.77l3.91,.17,4.07,.34,7.81,.85,4.07,.34h3.9l3.91-.17,2.04-.16,1.87-.51,.68-.16,.51-.51,.16-.51-.16-.68v-.67l-.9-5.04,.68-.85v-.67l-.17-.16h-.84l-.34-3.22-.16-3.21-.34-6.6v-6.43l.16-6.6v-.67l.51-12.18,.51-11.5,.17-11.5,.34-10.5,.17-5.44-.17-2.54-.16-2.72,.34-.34,.16-.34,.16-.51v-.51l-.16-.34-.34-.34-.34-.34-.51-.16-4.25-.85-4.25-.34-4.25-.16h-4.45l-8.66,.34h-8.48l-10.89-.51-10.89-.68-10.89-.51-10.78-.32h-7.13Z" fill="#fff" fill-rule="evenodd"/></svg>