<svg xmlns="http://www.w3.org/2000/svg" width="22.967" height="23.499" viewBox="0 0 22.967 23.499">
  <g id="Groupe_1495" data-name="Groupe 1495" transform="translate(-0.533 23.5)">
    <path id="Tracé_17298" data-name="Tracé 17298" d="M12.857-16.9l.291.067Zm-.679-.1.13.034L11.078-16l1-.962Zm1.456.333.356.2Zm-3.429,0v.033L10.076-15.6Zm4.529.63.646.465-1.068.232ZM9.4-16.1l.032.2Zm6.34.863.194.166-1.1.132Zm-7.051-.132.1.265Zm7.407.5.258.331-1.034.1Zm-8.087.6.1.1Zm8.83.7.1.331-1.034.033Zm-9.315.464.355.132ZM16-12.78l.226.1Zm.032.831.129.165Zm-7.958.364v0Zm-.646,1.063.776.067Zm8.475-.4.129.067.647,1.195Zm-.324,1,.162.1Zm-6.922.531.259.333-1.036-.3Zm3.365-5.94.258.033,1.327.432,1.165.962.55,1.394.032,1.063-.42,1.26-.842,1.03-1.2.63-1.262.1L10.464-8.8l-1.1-1-.485-1.128-.065-1.029.259-1.294.711-1.162,1.1-.63ZM9.331-8.663l.227.2Zm5.855-.632.162.2.388,1.03-1,.663-.1-1.228.258,1.1L14.766-8.73ZM10.141-8.1,10.4-8Zm.872.333L11.4-7.7Zm2.945-.366.161.5Zm-1.715.5-.1.3Zm1.1-.2-.064.431Zm-1.52-9.858-.388.067-1.068.266-1,.563L8.2-15.6l-.679,1.03-.616,1.36-.226,1.028.032,1.494.453,1.394.808,1.229,1.1,1.029,1.325.7,1.391.331h1.392l1.325-.331,1.165-.73,1-1.063.646-1.294.356-1.461.065-1.494-.291-1.427L16.8-15.1,15.38-16.5l-1-.63-1.068-.431ZM10.5-22.836l.356.033H11.92l1.359.1-1,.431,1.133.465-1.165.266,1.2.763-1.131.3,1,.731,1.068.331,1.262.465,1.036-.034,1.165-.9,1.068-.464,1.165,1.061.355,1.063-1-.829.517,1.1-1.034-.432.452,1.195-1-.431.55,1.693.549,1.029.1,1.063,1.036.364,1.131.134,1.133.265-.065,1.66.033,1.361-.453-1.162-.388,1.063-.388-1.129-.711,1.03-.614-1.03-.616,1.66L19.2-8.431,18.81-7.4l1.034.963.776,1.228L19.489-3.95l-1.2.73,1-.7-1.068.166-1.036-.266.485-1.061-1,.2-1.036.265-1.133.465-1.2.63-.582,1.03,1.068.1-1.068.73L11.11-.731l-.452-1.361L10.5-3.186l-1.068-.93-1.2-.5-1-.331-1.068.431.161,1.229-1-.664.517,1.029-1.456-.9-.905-1.1.744-1.061L5.32-7.4,4.706-8.8l-1.941-.9-1.1-.132-.452-1.327.1-1.262,1-.2,1.068-.63,1-.366.388-1.327.518-1.1L4.221-17.459l-.97-1.1.97-1.03,1.1-.862-.679,1.061,1.262-.8-.679,1.03,1.2-.7-.743,1.061,1.2-.3-.388,1.063,1.133-.565,1.1-.431,1.133-.366.452-1.128.162-1.626Zm.679-.664-.517.067-.905,1.061-.227,1.627-.743,1.061-1.941-.563-1.068-.7-1.295.265L3.314-19.45,2.8-18.123l1.2,1.593.227,1.262L3.93-14.207l-1.586.166-1.131.331L.63-12.68l-.1,1.262.032,1.162L1.73-9.2l1.521.233,1,.531.323,1.1L3.314-5.775,2.959-4.747l.711,1.162L4.738-2.524l1.036.331L7.1-3.054,8.135-4.117l1.133.6.743,1.262L10.076-.93l1,.929,1.65-.065L13.8-.134l.517-1.1.227-1.593,1.165-1,1.165.465,1.585,1.161,1.1-.8,1.165-1.195.647-1.063-1-1.626-.679-1.262.388-1.162,1.391.034,1.131-.067.907-2.191-.065-1.526-1.036-.9-1.391-.2-1-1.162-.129-1.028.711-1.063.744-1.028-.81-1.427-1.1-.963-1-.2-1.1.664-1.165.929-1-.465-.55-1.061-.194-1.063-.032-1.063-1.262-.364-1.456-.034Z" fill="#fff" fill-rule="evenodd"/>
  </g>
</svg>
