<?xml version="1.0" encoding="UTF-8"?><svg id="Calque_1" xmlns="http://www.w3.org/2000/svg" viewBox="0 0 173.84 178.2"><path id="Tracé_117" d="M95.17,49.39l-.19,.37-.19,.57v.57l.19,1.33,.57,1.51,.37,1.52,.38,.57,.38,.19,.37,.2,.57,.18,.57-.18,.38-.38,.38-.38v-1.51l-.38-.95-.57-1.7-.38-.75-.57-.57-.75-.57h-1.14Zm31.23,1.51l-.57,.57-1.13,1.14-1.14,1.14-.38,.76-.18,.75,.18,.38,.19,.19,.2,.38,.37,.18h.76l.75-.38,.75-.37,.76-.57,1.14-1.14,.57-.76,.19-.75-.2-.56-.38-.57-.57-.38h-1.3Zm10.97,17.79l-1.52,.37-1.32,.38-1.52,.57-.75,.19-.75,.38-.38,.57v.38l.19,.57,.38,.37,1.7,.38h1.89l.95-.19,.76-.19,.76-.37,.76-.57,.19-.38,.19-.38v-.96l-.19-.57-.37-.19-.38-.19-.57-.17Zm-48.06,.94l-.76,.2-1.89,.37-1.52,.19-.75,.37-.57,.38-.57,.57-.19,.57,.19,.75,.19,.2,.38,.19,.75,.38h3.79l1.14-.19,.95-.37,.94-.76,.19-.37v-.38l-.19-.76-.57-.76-.57-.37-.94-.2Zm21.38-9.45l1.7,.19,1.89,.38,1.7,.57,1.7,.94,1.33,1.13,1.32,1.33,1.32,1.51,.95,1.52,.75,1.7,.38,1.32,.19,1.33v1.32l-.19,1.32-.19,1.33-.38,1.32-.57,1.32-.75,1.13-.76,1.14-.75,.95-.95,.95-1.14,.94-1.13,.76-1.14,.76-1.14,.57-1.32,.38-1.32,.37-1.52,.2h-1.32l-1.13-.2-1.32-.37-1.14-.38-1.13-.57-.95-.76-.95-.76-.94-.94-.76-.95-.75-1.14-1.14-2.27-.95-2.65-.37-2.46v-2.46l.37-2.46,.38-1.32,.57-1.14,.76-1.32,1.13-1.14,2.65-1.33,2.65-1.32,1.51-.38,1.33-.19,1.52-.18Zm-.37-4.17l-2.27,.2-2.27,.37-2.08,.57-2.08,.95-1.89,1.32-1.52,1.33-.94,1.14-.95,.94-.95,1.52-.57,1.52-.57,1.51-.37,1.7-.19,1.52v3.41l.19,1.52,.37,1.89,.57,1.89,.57,1.7,.95,1.52,.95,1.52,1.14,1.51,1.14,1.13,1.32,1.14,1.52,1.14,1.51,.76,1.52,.57,1.89,.57,1.7,.19h1.9l1.89-.19,1.89-.38,1.7-.38,1.7-.75,1.52-.95,1.51-1.13,1.33-1.14,1.32-1.51,.95-1.33,.94-1.7,.76-1.51,.57-1.7,.57-1.9,.19-1.7,.19-1.89-.19-1.7-.38-1.89-.37-1.7-.95-1.89-1.13-1.89-1.32-1.7-1.52-1.52-1.7-1.32-1.89-1.14-1.9-.95-2.08-.57-1.89-.37-2.28-.2Zm-14.39,31.79l-.75,.19-.57,.37-1.14,1.14-.95,1.52-.57,1.32-.19,.76,.19,.75,.38,.57,.57,.38,.57,.18,.75-.18,.57-.38,.38-.75,.57-.95,.57-.95,1.13-2.07v-.76l-.19-.76-.57-.38h-.76Zm28.01,1.7l-.37,.2-.38,.37-.18,.57v.95l.18,.95,.38,.94,.37,.95,.76,.75,.94,.76,.76,.57,.75,.19h.75l.57-.38,.38-.57,.19-.57v-.75l-.19-.57-.57-.57-1.14-.75-.75-1.13-.95-1.14-.38-.38-.75-.38h-.38Zm-87.05,30.84l-.19,.2-.19,.19,.19,1.13,.19,.95,.37,1.14,.38,.94,1.13,1.89,1.14,1.89,1.32,1.89,1.33,1.9,1.51,1.7,1.7,1.7,.57,.19h.95l.38-.38,.37-.37,.19-.57-.19-.38-.37-.57-1.52-1.7-1.52-1.7-2.84-3.79-2.27-3.22-1.14-1.52-1.32-1.32-.19-.19Zm.19,11.17l-.38,.19-.19,.38-.19,.38,.37,.75,.57,.95,1.33,1.51,.57,.57,.94,.76,.76,.37,.57,.2h.37l.57-.38,.2-.38,.19-.57-.19-.37-.57-.57-.57-.38-1.13-.95-1.33-1.32-.75-.76-.75-.38h-.38Zm25.73-51.3l-1.14,.19-1.14,.38-.95,.57-1.14,.76-2.08,1.7-1.7,1.89-1.9,2.27-1.51,2.08-2.84,3.98-3.22,4.36-1.7,2.08-1.89,1.89-3.79,3.59-1.89,1.89-1.7,1.89-.38,.57v1.32l.38,.38,.57,.37,.57,.19h.57l.57-.38,.38-.38,.37,1.14,.38,1.14,1.13,2.46,2.08,3.22,1.7,3.22,2.08,3.41,1.13,1.7,1.14,1.52,1.33,1.32,1.32,1.13,.57,.19h.57l.57-.19,.37-.19,.57-.76v-.94l-.19-.38-.38-.38-1.32-1.32-1.14-1.32-2.07-3.03-2.08-3.02-1.7-3.22-1.7-3.22-1.32-2.27-1.33-1.9,2.65-2.46,1.14,2.27,1.13,2.08,2.46,3.78,1.7,2.65,1.7,2.65,1.14,1.32,.95,1.13,1.14,.95,1.32,.75,.57,.19h.38l.57-.19,.37-.19,.38-.57,.19-.38v-.57l-.19-.38-1.89-2.64-2.08-2.46-1.89-2.46-1.89-2.46-2.46-3.6-1.51-1.89-1.52-1.52,2.65-2.64,.75,1.13,.75,.94,1.7,2.46,1.71,2.46,1.32,1.7,1.7,1.7,.76,.75,.94,.76,1.14,.37,.95,.38h.75l.76-.19,.37-.57,.19-.57,.19-.57-.19-.57-.38-.57-.76-.38-.95-.38-.95-.57-.94-.75-.76-.74-1.51-1.7-1.33-1.7-2.26-2.65-1.13-1.32-.76-.57-.75-.38,2.46-2.84,.57-.75,1.14,1.52,1.14,1.51,2.46,2.65,4.17,4.35,.94,.76,.95,.75,.95,.57h1.32l.38-.19,.19-.38,.38-.38v-.37l-.2-.95-.37-.75-.76-.57-.76-.76-2.08-1.89-2.27-2.08-2.84-2.84-2.84-2.65-.37-.38,2.84-3.59,.75,1.52,1.14,1.51,2.27,2.46,1.52,1.51,1.7,1.7,1.89,1.52,.95,.57,.94,.57h1.14l.19-.38,.37-.38,.2-.37v-.57l-.2-.38-.19-.37-1.52-1.52-1.51-1.32-1.7-1.33-1.7-1.51-2.27-2.46-1.33-1.13-1.51-1.14,1.32-1.51,1.14-1.14,2.65,2.64,2.46,3.03,1.32,1.7,1.89,1.7,.94,.76,.95,.38,.95,.19h1.13l.57-.38,.37-.57v-.57l-.19-.57-.76-.75-.76-.57-.94-.57-.76-.75-.94-.76-.95-1.13-1.7-1.89-.95-1.14-.94-.95-1.33-.94-1.14-.57,3.22-2.65,4.73,4.73,2.46,2.46,2.08,2.64,2.65,3.22,2.27,3.22,4.93,6.62,6.05,7.57,6.06,7.57,2.84,3.97,2.84,3.97,2.84,3.98,1.52,1.89,1.7,1.7,.75,.57,.75,.19,.57-.19,.57-.38,.57-.57,.2-.57,.19-.94-.19-.76-.95-1.89-1.32-2.08-1.33-1.89-1.32-1.89-6.06-7.39-2.08-2.65,1.14-.76,.57,.94,.75,.95,1.14,1.32,1.32,1.52,1.52,1.14,1.52,1.13,.37,.19h.57l.57-.19,.38-.19,.38-.57,.19-.38v-.57l-.19-.57-1.18-1.09-1.13-1.13-2.65-2.08-2.27-2.27v-.19l2.65-3.59,.76,1.14,.57,.94,.95,1.14,1.13,1.33,1.14,1.13,.75,1.32,.57,.57,.38,.38h.57l.57-.2,.57-.37,.19-.57,.19-.57-.19-.76-.75-1.14-.76-1.13-2.08-1.89-1.14-1.14-1.13-1.14-.76-.75,2.27-2.08,.76,.75,.75,1.14,1.32,1.89,.57,1.14,.76,.94,.94,.76,.95,.75,.75,.19h.76l.38-.37,.57-.57,.19-.57v-.57l-.37-.57-.57-.57-.76-.57-.75-.76-1.32-1.7-1.32-1.89-.57-.75-.94-.76,1.7-1.51,2.08,1.13,1.89,1.51,1.51,1.7,1.7,1.89,2.84,4.16,2.65,3.79,3.98,5.11,3.97,5.28,1.52,2.46,1.7,2.84,.94,1.33,1.14,1.32,.95,.95,1.13,.75,.95,.19,.94-.19,.38-.38,.19-.19,.19-.38v-.57l-.38-1.51-.57-1.52-.75-1.52-1.14-1.32-2.08-2.84-2.08-2.65-2.08-2.84-2.08-2.64-4.36-5.49-2.64-4.16-1.7-2.27-1.7-2.27-2.08-1.9-.95-.94-1.14-.75-.94-.57-1.14-.57-1.32-.2h-1.14l-.76-.37h-.75l-1.32,.57-1.13,.75-1.33,.95-.94,.94-2.08,2.27-1.7,2.27-3.02,3.41-1.33,2.08-.57,1.14-.37,.94-9.28-11.36-2.64-3.4-2.65-3.6-2.65-3.41-2.64-3.41-2.27-2.64-2.65-2.65-1.32-1.32-1.52-.95-1.52-.95-1.7-.75-.57-.38-.74-.19Zm1.7-36.52l7.57,.19,7.57,.19,7.57,.38,7.57,.38,7.75,.19h15.33l13.25-.57h13.62v.57l-.19,1.89-.19,1.89v7l.38,6.81v9.65l-.38,9.65-.57,19.49v13.62l.19,13.62,.19,4.93,.19,5.11,.19,.94-4.93,.38-4.73,.19-9.65,.2h-19.3l-20.07,.19-20.26,.38h-9.46l-9.46-.2-10.21-.18h-3.59l-.57-7.57-.55-7.57-.38-7.39-.19-7.57v-8.5l.19-8.52v-8.7l-.19-8.51-.38-9.46-.38-9.65-.19-4.93v-4.93l-.19-1.7-.19-1.7h1.14l1.13,.19,1.14,.38,1.14,.19,3.41,.38h3.41l3.79-.19,3.98-.38,7.75-.57,7.76-.17Zm3.97-3.6l-7.95,.19-7.95,.37-7.75,.57-3.97,.2h-4.93l-1.32-.2-2.27-.37h-1.14l-1.14,.19-.95,.57-.57,.95-.38,.37-.37,.38-.38,1.32-.19,1.33-.2,1.7v10.21l.2,5.48,.37,10.98,.19,7.95v7.95l-.19,15.89,.19,9.47,.37,9.46,.76,9.27,.75,9.47,.19,.75,.38,.38,.57,.37,.57,.2h.57l.57-.38,.38-.38,.19-.57,2.46,.38h6.44l10.21,.38,10.03,.19,9.84-.19h9.86l19.68-.38,10.98-.19h11.16l10.97-.2,5.49-.18,5.49-.38,.75-.19h.57l.57-.19,.57-.38,.19-.57,.2-.57v-.75l-.2-.57-.57-.38h0l.57,.19h.2l-.2-.75-.19-.75-.19-4.36-.38-10.21v-15.89l.19-15.7,.57-19.3v-9.66l-.37-9.65,.19-3.03v-2.08l.19-2.27-.19-2.08-.57-1.7-.19-.75-.57-.38-.38-.38h-.95l-.57-.19-3.21-.57-3.41-.19-3.41-.19-3.41,.19-7.01,.37-6.62,.57-8.51,.2h-8.33l-8.32-.38-8.51-.38-7.95-.37-7.79-.19Zm-22.52-3.97l9.08,.37h27.63l17.04-.19h17.22l34.44,.19-.76,2.08-.37,2.27-.2,2.27v2.46l.2,4.73,.57,4.35,.75,7.75,.76,7.57,.19,7.75,.19,7.75-.38,9.86-.37,9.84-.57,9.84-.57,9.65v7.57l.19,7.57-.19,3.41v1.7l.19,1.7-3.79,.76-3.98,.38-3.78,.19-3.97,.19-7.75-.19-7.95-.19h-8.51l-8.51,.19-8.53,.38-8.51,.76-8.7,.75-8.51,.95-4.36,.19h-4.35l-4.36-.19-4.36-.38-7.19-.75-3.59-.38h-3.6l-8.51,.38-4.35,.57v-.38l.19-.37-.19-.38v-.37l-.39-.39,.19-1.89v-1.7l-.19-1.7-.38-3.22-.19-3.79v-11.72l.38-15.9,.19-7.94-.19-7.95-.19-15.33-.57-15.33-.19-7.2-.19-7.19v-2.64l.19-2.65,.19-2.84-.19-2.63,2.08,.37h2.27l4.54-.57,3.59-.19,3.79-.19h7.38Zm-8.71-3.23l-3.78,.38-6.24,.57-3.03,.19h-3.41l-.37,.19-.38,.57v.76l.19,.37,.38,.2-.57,1.13-.38,1.14-.37,2.64-.19,2.65-.19,2.46v7.75l.38,7.95,.57,16.08,.19,16.09v8.33l-.19,8.32-.38,16.66v7.57l.19,3.79,.19,3.78v3.98l.19,2.08,.19,.95,.2,.94h-.2l-.19,.38-.19,.38,.19,.57,.38,.57,.75,.37,3.79,.19h3.98l7.75-.19,4.17,.19,4.16,.19,8.51,1.14,4.16,.38h8.51l4.16-.38,8.51-.95,8.33-.75,8.51-.76,8.51-.38h17.04l7.75,.38,7.95-.19h4.01l3.79-.37,3.96-.39,3.97-.76,.57-.19,.38-.37,.19-.57v-.57h.19l.38-.95,.38-.76,.37-2.08-.19-3.79v-6.6l-.18-6.63,.37-9.47,.38-9.45,.75-9.47,.38-9.45v-14.95l-.38-7.39-.94-7.39-.76-6.62-.57-6.63-.19-2.46v-2.65l.19-2.65,.57-2.46,.57-.19,.57-.38,.19-.57,.19-.57-.19-.76-.38-.38-.38-.37-.75-.19-35.21-.19h-17.61l-17.61,.19-17.61,.19h-8.7l-8.89-.19-7.75-.19-3.78,.03Z" fill="#fff" fill-rule="evenodd"/></svg>