<?xml version="1.0" encoding="UTF-8"?><svg id="Calque_1" xmlns="http://www.w3.org/2000/svg" viewBox="0 0 173.84 178.2"><path id="Tracé_171" d="M93.96,48.62l-1.2,.14-1.07,.4-.4,.14-.4,.4-.26,.4-.14,.4,.14,.4,.26,.4,.27,.26,.4,.27,.8,.27,.93,.14,.8,.14,2,.14h1.99l.67-.14,.4-.26,.43-.4,.27-.54v-.53l-.14-.53-.26-.4-.4-.4-.57-.24-.4-.27-1.07-.14-3.07-.02Zm32.03,1.47l.4,2.01,.22,1.78-.09-.18-.14-.27-.4-.27h-.39l-1.74,.8-1.6,.94-1.2,.8-1.2,.8h-3.34l-3.34-.14h.13l3.87-1.86,4.01-1.6,1.2-.54,1.33-.66,1.2-.67,1.07-.95Zm.67,4.14v4.41h-.66l-.67,.27-1.33,.66-2.41,1.34,.14-2.54,.14-.53v-.67l.51-.3,2-1.07,1.87-1.07,.26-.4,.16-.11Zm-.14,6.01l-.26,3.21-.14,.53-1.47,.8-1.6,.8-1.6,.67,.14-3.61,1.33-.53,1.2-.67,1.2-.53,.54-.27,.65-.41Zm-.4,5.88l-.14,2.53-.4,.14-.93,.67-1.07,.53-2.14,.94v-3.35l1.07-.14,.8-.27,1.47-.4,1.32-.66Zm-.14,4.41v2.41l-.53,.26-.54,.27-1.07,.67-2.54,1.6v-3.47l1.34-.27,1.2-.4,1.07-.4,1.07-.67Zm0,4.68v2.01l-.67,.27-.66,.4-1.34,.93-2,1.07v-3.09l1.47-.26,1.33-.54,1.86-.78Zm0,3.74l-.14,2.8-1.07,.8-1.74,1.2-.94,.53-.8,.67v-3.47l.67-.14,.53-.27,1.34-.67,1.07-.66,1.07-.8Zm-.14,5.47v2.01l-.4,.14-.8,.4-.8,.4-1.47,1.07-1.07,.94v-2.54l1.07-.4,1.07-.53,2-1.2,.41-.27Zm0,4.01v3.47l-1.2,.8-1.2,.8-1.07,.8-1.07,.8v-4.01l.4-.14,.54-.14,.83-.53,1.47-.8,1.31-1.08Zm0,5.88v1.33l-.4,.14-.4,.14-.8,.66-.67,.67-.67,.53-.8,.54-.4,.4-.4,.4v-2.8l.67-.14,.8-.26,1.33-.67,1.74-.93Zm0,3.74v2.41l-.93,.54-.93,.54-1.33,.8-1.34,.8v-3.35l.27,.27h1.07l.8-.4,.66-.27,.8-.66,.92-.69Zm0,4.54v1.74l-.8,.26-.8,.4-1.47,.94-1.47,.93v-2.01l.8-.14,.67-.4,1.47-.8,1.61-.93Zm0,3.88v2.41l-1.2,.53-.94,.54-1.2,.53-1.2,.67v-2.14l.94-.4,.8-.53,1.47-.93,1.34-.68Zm0,4.54v1.47l-1.2,1.07-1.74,1.2-1.6,1.2v-3.35l.8-.14,.67-.14,1.47-.67,1.59-.66Zm.14,3.61v3.21l-1.07,.54-1.07,.8-1.2,.8-1.2,.8v-4.14l.93-.4,1.07-.26,.93-.54,.93-.4,.68-.42Zm0,5.35v.8l-.93,.53-.94,.53-1.33,.94-1.33,1.07v-1.49l.66-.27,.8-.27,1.34-.8,1.73-1.04Zm.14,2.8l.14,3.61-1.34,.66-1.2,.67-1.2,.8-1.07,.93v-3.74l1.6-1.07,1.47-1.07,1.61-.8Zm.14,5.88v1.47l-2.67,1.74-1.07,.67-1.07,.8v-2.44l1.6-.53,1.47-.8,1.74-.9Zm-17.88-70.01l5.74,.4h5.61l-.53,9.35-.38,9.35-.13,9.35v9.35l.26,18.71v9.33l.14,9.35h-2.41l-2.28-.1h-2.41l-2.27-.14-6.94,.14h-7.08l-6.54-.27-6.64-.14h-8.7l-2.93,.14,.14-.26v.14l.11-.14-.14-.27-.14-1.07v-1.74l.14-1.74,.4-9.36,.13-7.07,.14-6.95v-32.03l-.27-9.49-.13-3.21-.13-1.5,2.8,.4,2.94,.27,2.8,.14h2.93l5.87-.26,5.74-.27,7.07-.27,3.6-.14h3.49Zm-11.75,83.11l.66,.26,.54,.54,.4,.93,.13,.53,.14,.67v.67l-.14,.66-.13,.54-.27,.66-.4,.54-.4,.4-.67,.4-.8,.14h-.8l-.8-.27-.66-.26-.54-.54-.53-.66-.14-.67v-.8l.14-.93,.27-.67,.4-.8,.4-.53,.53-.4,.27,.14,.4-.14,.66-.14h.14l.26-.14,.27-.14h.68Zm-.54-2.67l-1.07,.14-.54,.27-.4,.27-.66,.14-.54,.14-.53,.4-.53,.27-.54,.53-.4,.54-.4,.53-.26,.67-.4,1.33-.14,1.33v.8l.14,.67,.13,.67,.27,.66,.4,.54,.4,.53,.53,.4,.53,.4,.67,.4,.53,.27,.67,.14,.8,.14h.67l.66-.14,.66-.14,.8-.27,.93-.53,.8-.8,.67-.94,.4-1.07,.27-1.07,.14-1.2v-1.2l-.27-1.07-.26-.93-.54-.93-.8-.8-.78-.71-.93-.27-1.07-.1Zm-21.75-94.59l2.67,.14,5.07,.27,5.07,.14,16.42,.14,9.48-.14-1.34,1.07-.66,.53-.4,.67v.27l.13,.14h.27l.93-.27,.93-.53,1.6-1.2,1.34-.67,2.26,.14,2.14,.14-1.07,.4-1.07,.67-1.86,1.07-1.6,.93-1.6,.94-1.36,1.17-.64,.71-.67,.67v.14l.13,.14v.14h.14l1.74-.53,1.74-.8,3.2-1.74,1.34-.53,1.47-.66,1.34-.8,.66-.4,.4-.4,.14-.4,.8,.4,.66,.66,.67,.67,.4,.8-1.74,1.07-1.73,.89-1.74,.8-2,.8-1.47,.66-1.6,.67-.66,.53-.54,.54-.53,.53-.53,.67v.4l.13,.26-3.34-.26h-7.07l-7.21,.4-6.54,.26-6.41,.14h-3.33l-3.2-.14-3.34-.26-3.2-.27h-.41l-.4,.14-.14,.4-.13,.4v.4l.13,.27,.27,.4,.4,.14,.13,1.2v1.87l-.13,4.94-.14,5.21-.14,3.88-.13,3.07v3.07l.13,6.28,.14,6.14,.14,6.28-.27,13.23-.13,6.55-.27,6.55-.27,3.61-.14,.94,.14,.93,.14,.8,.26,.67,.4,.4-.26,.53-.14,.53,.27,.54,.27,.14,.26,.14,1.6,.14,1.74,.14,3.34,.14,6.68-.26,7.2,.14,7.07,.27,3.47,.14h3.47l6.95-.27h2.8l2.8,.14h2.8l1.33-.14,1.47-.14,.26-.14,.24-.27,.27-.27,.16-.3v-.54l-.27-.66,1.74-.8,2-.94v3.35l-.94,.26-.93,.27-1.87,.8-1.07,.53-1.07,.53-1.07,.67-.79,.8v.14l.14,.14,.4,.14h.53l.93-.27,1.74-.66,2-.8,2-.54v1.74l-.67,.14-.53,.4-1.2,.67-1.2,.53-1.07,.8-1.2,.67-1.07,.53-.14,.14v.27l.14,.14h1.35l1.2-.14,1.22-.25,1.2-.4,.93-.4,1.07-.4v2.01l-1.2,.4-1.34,.4-2.93,.94-1.47,.53-1.33,.8-.14,.14v.4h.14l.8,.14h.67l1.47-.14,1.34-.26,1.33-.4,1.33-.27,1.47-.27v1.07l-3.6,1.6-1.74,.93-.8,.54-.67,.66-.13,.14v.14l.13,.14h.14l1.74-.14,1.6-.4,1.74-.67,1.6-.66v1.2l-.27,.66-.4,.67h-.82l-.8,.14-1.6,.54-2.14,.66-1.07,.4-1.07,.67-.14,.14-3.2-.14-3.2-.14h-4.41l-4.41,.14-9.07,.14h-9.07l-8.65-.26h-6.04l-.67-.27-1.6-.67-.8-.4-.93-.53-.63-.68-.71-.66-.26-.67-.27-.8-.39-1.47-.13-1.6-.14-1.47-.14-9.36,.13-9.37-.13-12.81-.27-21.1-.14-21.12v-7.88l.14-4.55,.27-2.67,.27-2.8,.53-2.68,.8-2.68,.43-.79,.67-.94,1.07-.66,1.34-.67,1.6-.4,2-.27,2.23-.14Zm-.14-2.55l-2.53,.14-2.14,.4-1.86,.4-1.6,.8-1.2,.8-1.07,.93-.8,1.07-.53,1.07-.4,1.2-.4,1.07-.14,1.2-.26,2.01-.14,1.6-.26,2.8-.27,2.8-.15,5.63,.13,5.48,.13,5.61v12.96l-.26,12.83,.13,6.55,.13,6.41,.27,6.55v16.16l.13,4.81,.27,4.98,.13,1.47,.27,1.47,.53,1.33,.67,1.34,.93,1.07,.95,.94,.66,.4,.67,.26,.67,.27,.8,.14,9.21,.14,6.54,.14,4.27,.14,5.35,.14h5.34l10.54-.19h2l2.14,.14,4.27,.26h2.14l2.14-.14,.93-.27,1.07-.26,.93-.27,.94-.53,.93-.67,.8-.93,.53-1.07,.54-1.33,.4-1.47,.26-1.6,.27-1.6,.14-1.74,.13-3.35v-3.07l-.13-4.27-.14-7.62-.14-7.62-.14-4.94-.14-6.41v-28.33l-.14-8.01v-3.87l.26-3.74,.27-3.74,.14-3.87v-2.14l-.14-2.41-.53-2.14-.27-1.07-.4-1.07-.4-.93-.52-.97-.67-.8-.67-.62-.93-.54-.93-.53-1.07-.27-1.2-.26-.27-.27-.53-.14-1.99-.16-2-.14h-4.16l-8.15,.14-17.35-.14-5.07-.14-5.07-.27-2.8-.14Z" fill="#8d8d8e" fill-rule="evenodd"/></svg>