<?xml version="1.0" encoding="UTF-8"?><svg id="Calque_1" xmlns="http://www.w3.org/2000/svg" viewBox="0 0 62.45 56.56"><defs><style>.cls-1{fill-rule:evenodd;}</style></defs><path id="Tracé_171" class="cls-1" d="M31.04,19.96l-.22,.03-.2,.07-.07,.03-.07,.07-.05,.07-.03,.07,.03,.07,.05,.07,.05,.05,.07,.05,.15,.05,.17,.03,.15,.03,.37,.03h.37l.12-.03,.07-.05,.08-.07,.05-.1v-.1l-.03-.1-.05-.07-.07-.07-.11-.04-.07-.05-.2-.03h-.57Zm5.93,.27l.07,.37,.04,.33-.02-.03-.03-.05-.07-.05h-.07l-.32,.15-.3,.17-.22,.15-.22,.15h-.62l-.62-.03h.02l.72-.35,.74-.3,.22-.1,.25-.12,.22-.12,.2-.18Zm.12,.77v.82h-.12l-.12,.05-.25,.12-.45,.25,.03-.47,.03-.1v-.12l.09-.06,.37-.2,.35-.2,.05-.07,.03-.02Zm-.03,1.11l-.05,.59-.03,.1-.27,.15-.3,.15-.3,.12,.03-.67,.25-.1,.22-.12,.22-.1,.1-.05,.12-.08Zm-.07,1.09l-.03,.47-.07,.03-.17,.12-.2,.1-.4,.17v-.62l.2-.03,.15-.05,.27-.07,.25-.12Zm-.03,.82v.45l-.1,.05-.1,.05-.2,.12-.47,.3v-.64l.25-.05,.22-.07,.2-.07,.2-.12Zm0,.87v.37l-.12,.05-.12,.07-.25,.17-.37,.2v-.57l.27-.05,.25-.1,.35-.14Zm0,.69l-.03,.52-.2,.15-.32,.22-.17,.1-.15,.12v-.64l.12-.03,.1-.05,.25-.12,.2-.12,.2-.15Zm-.03,1.01v.37l-.07,.03-.15,.07-.15,.07-.27,.2-.2,.17v-.47l.2-.07,.2-.1,.37-.22,.08-.05Zm0,.74v.64l-.22,.15-.22,.15-.2,.15-.2,.15v-.74l.07-.03,.1-.03,.15-.1,.27-.15,.24-.2Zm0,1.09v.25l-.07,.03-.07,.03-.15,.12-.12,.12-.12,.1-.15,.1-.07,.07-.07,.07v-.52l.12-.03,.15-.05,.25-.12,.32-.17Zm0,.69v.45l-.17,.1-.17,.1-.25,.15-.25,.15v-.62l.05,.05h.2l.15-.07,.12-.05,.15-.12,.17-.13Zm0,.84v.32l-.15,.05-.15,.07-.27,.17-.27,.17v-.37l.15-.03,.12-.07,.27-.15,.3-.17Zm0,.72v.45l-.22,.1-.17,.1-.22,.1-.22,.12v-.4l.17-.07,.15-.1,.27-.17,.25-.13Zm0,.84v.27l-.22,.2-.32,.22-.3,.22v-.62l.15-.03,.12-.03,.27-.12,.3-.12Zm.03,.67v.59l-.2,.1-.2,.15-.22,.15-.22,.15v-.77l.17-.07,.2-.05,.17-.1,.17-.07,.13-.08Zm0,.99v.15l-.17,.1-.17,.1-.25,.17-.25,.2v-.28l.12-.05,.15-.05,.25-.15,.32-.19Zm.03,.52l.03,.67-.25,.12-.22,.12-.22,.15-.2,.17v-.69l.3-.2,.27-.2,.3-.15Zm.03,1.09v.27l-.49,.32-.2,.12-.2,.15v-.45l.3-.1,.27-.15,.32-.17Zm-3.31-12.96l1.06,.07h1.04l-.1,1.73-.07,1.73-.02,1.73v1.73l.05,3.46v1.73l.03,1.73h-.45l-.42-.02h-.45l-.42-.03-1.28,.03h-1.31l-1.21-.05-1.23-.03h-1.61l-.54,.03,.03-.05v.03l.02-.03-.03-.05-.03-.2v-.32l.03-.32,.07-1.73,.02-1.31,.03-1.29v-5.93l-.05-1.76-.02-.59-.02-.28,.52,.07,.54,.05,.52,.03h.54l1.09-.05,1.06-.05,1.31-.05,.67-.03h.65Zm-2.17,15.38l.12,.05,.1,.1,.07,.17,.02,.1,.03,.12v.12l-.03,.12-.02,.1-.05,.12-.07,.1-.07,.07-.12,.07-.15,.03h-.15l-.15-.05-.12-.05-.1-.1-.1-.12-.03-.12v-.15l.03-.17,.05-.12,.07-.15,.07-.1,.1-.07,.05,.03,.07-.03,.12-.03h.03l.05-.03,.05-.03h.13Zm-.1-.49l-.2,.03-.1,.05-.07,.05-.12,.03-.1,.03-.1,.07-.1,.05-.1,.1-.07,.1-.07,.1-.05,.12-.07,.25-.03,.25v.15l.03,.12,.02,.12,.05,.12,.07,.1,.07,.1,.1,.07,.1,.07,.12,.07,.1,.05,.12,.03,.15,.03h.12l.12-.03,.12-.03,.15-.05,.17-.1,.15-.15,.12-.17,.07-.2,.05-.2,.03-.22v-.22l-.05-.2-.05-.17-.1-.17-.15-.15-.14-.13-.17-.05-.2-.02Zm-4.03-17.51l.49,.03,.94,.05,.94,.03,3.04,.03,1.75-.03-.25,.2-.12,.1-.07,.12v.05l.02,.03h.05l.17-.05,.17-.1,.3-.22,.25-.12,.42,.03,.4,.03-.2,.07-.2,.12-.35,.2-.3,.17-.3,.17-.25,.22-.12,.13-.12,.12v.03l.02,.03v.03h.03l.32-.1,.32-.15,.59-.32,.25-.1,.27-.12,.25-.15,.12-.07,.07-.07,.03-.07,.15,.07,.12,.12,.12,.12,.07,.15-.32,.2-.32,.16-.32,.15-.37,.15-.27,.12-.3,.12-.12,.1-.1,.1-.1,.1-.1,.12v.07l.02,.05-.62-.05h-1.31l-1.33,.07-1.21,.05-1.19,.03h-.62l-.59-.03-.62-.05-.59-.05h-.08l-.07,.03-.03,.07-.02,.07v.07l.02,.05,.05,.07,.07,.03,.02,.22v.35l-.02,.91-.03,.96-.03,.72-.02,.57v.57l.02,1.16,.03,1.14,.03,1.16-.05,2.45-.02,1.21-.05,1.21-.05,.67-.03,.17,.03,.17,.03,.15,.05,.12,.07,.07-.05,.1-.03,.1,.05,.1,.05,.03,.05,.03,.3,.03,.32,.03,.62,.03,1.24-.05,1.33,.03,1.31,.05,.64,.03h.64l1.29-.05h.52l.52,.03h.52l.25-.03,.27-.03,.05-.03,.04-.05,.05-.05,.03-.06v-.1l-.05-.12,.32-.15,.37-.17v.62l-.17,.05-.17,.05-.35,.15-.2,.1-.2,.1-.2,.12-.15,.15v.03l.03,.03,.07,.03h.1l.17-.05,.32-.12,.37-.15,.37-.1v.32l-.12,.03-.1,.07-.22,.12-.22,.1-.2,.15-.22,.12-.2,.1-.03,.03v.05l.03,.03h.25l.22-.03,.23-.05,.22-.07,.17-.07,.2-.07v.37l-.22,.07-.25,.07-.54,.17-.27,.1-.25,.15-.03,.03v.07h.03l.15,.03h.12l.27-.03,.25-.05,.25-.07,.25-.05,.27-.05v.2l-.67,.3-.32,.17-.15,.1-.12,.12-.02,.03v.03l.02,.03h.03l.32-.03,.3-.07,.32-.12,.3-.12v.22l-.05,.12-.07,.12h-.15l-.15,.03-.3,.1-.4,.12-.2,.07-.2,.12-.03,.03-.59-.03-.59-.03h-.82l-.82,.03-1.68,.03h-1.68l-1.6-.05h-1.12l-.12-.05-.3-.12-.15-.07-.17-.1-.12-.13-.13-.12-.05-.12-.05-.15-.07-.27-.02-.3-.03-.27-.03-1.73,.02-1.73-.02-2.37-.05-3.91-.03-3.91v-1.46l.03-.84,.05-.49,.05-.52,.1-.5,.15-.5,.08-.15,.12-.17,.2-.12,.25-.12,.3-.07,.37-.05,.41-.03Zm-.03-.47l-.47,.03-.4,.07-.35,.07-.3,.15-.22,.15-.2,.17-.15,.2-.1,.2-.07,.22-.07,.2-.03,.22-.05,.37-.03,.3-.05,.52-.05,.52-.03,1.04,.02,1.01,.02,1.04v2.4l-.05,2.38,.02,1.21,.02,1.19,.05,1.21v2.99l.02,.89,.05,.92,.02,.27,.05,.27,.1,.25,.12,.25,.17,.2,.18,.17,.12,.07,.12,.05,.12,.05,.15,.03,1.7,.03,1.21,.03,.79,.03,.99,.03h.99l1.95-.03h.37l.4,.03,.79,.05h.4l.4-.03,.17-.05,.2-.05,.17-.05,.17-.1,.17-.12,.15-.17,.1-.2,.1-.25,.07-.27,.05-.3,.05-.3,.03-.32,.02-.62v-.57l-.02-.79-.03-1.41-.03-1.41-.03-.91-.03-1.19v-5.24l-.03-1.48v-.72l.05-.69,.05-.69,.03-.72v-.4l-.03-.45-.1-.4-.05-.2-.07-.2-.07-.17-.1-.18-.12-.15-.12-.11-.17-.1-.17-.1-.2-.05-.22-.05-.05-.05-.1-.03-.37-.03-.37-.03h-.77l-1.51,.03-3.21-.03-.94-.03-.94-.05-.52-.03Z"/></svg>