<?xml version="1.0" encoding="UTF-8"?><svg id="Calque_1" xmlns="http://www.w3.org/2000/svg" viewBox="0 0 62.45 56.56"><defs><style>.cls-1{fill-rule:evenodd;}</style></defs><g id="Groupe_127"><path id="Tracé_169" class="cls-1" d="M38.45,18.65l.2,.18,.15,.18-.25,.15-.22,.13-.3,.2-.3,.2h-.45l-.42-.03,.47-.3,.59-.35,.22-.1,.12-.05,.1-.05,.07-.08v-.08Zm.5,.73l.07,.2,.03,.23-.17,.08-.17,.08-.32,.18-.15,.1-.17,.1h0l.03-.3,.03-.13v-.1l.22-.13,.32-.15,.3-.15Zm.15,.78v.55l-.05,.03-.22,.1-.22,.1-.57,.3,.03-.53,.3-.18,.3-.2,.22-.1,.22-.08Zm-.03,.9l-.03,.48-.27,.13-.25,.13-.49,.3v-.58l.17-.05,.15-.08,.32-.15,.2-.08,.2-.11Zm-.07,.85l-.03,.5-.27,.15-.25,.13-.2,.13-.17,.15-.08,.04,.03-.63,.25-.1,.25-.13,.25-.13,.23-.12Zm-.03,.88v.55l-.32,.18-.32,.18-.33,.2v-.63l.15-.05,.37-.2,.22-.13,.23-.09Zm0,.92v.55l-.25,.15-.22,.13-.25,.18-.12,.1-.13,.11v-.7l.2-.08,.2-.1,.57-.33Zm-.03,1.03v.5l-.54,.25-.2,.08-.2,.11v-.55l.15-.03,.15-.05,.3-.15,.35-.16Zm0,.95v.48l-.47,.23-.22,.13-.22,.15-.03-.66,.22-.05,.22-.08,.5-.2Zm0,.83v.53l-.1,.03-.12,.05-.15,.1-.27,.18-.15,.1-.12,.13v-.63l.25-.13,.67-.35Zm0,.9v.5l-.25,.13-.22,.13-.22,.13-.22,.13v-.5l.2-.08,.17-.1,.35-.23,.2-.12Zm0,.98v.4l-.25,.18-.17,.15-.47,.3-.03-.58,.17-.08,.17-.08,.3-.18,.27-.13Zm0,.92v.73l-.2,.13-.12,.1-.55,.4-.03-.83,.17-.08,.17-.1,.32-.2,.22-.16Zm0,1.23v.78l-.27,.15-.27,.2-.15,.1-.17,.13v-.8l.17-.1,.15-.08,.3-.2,.25-.18Zm0,1.18l.03,.45-.4,.23-.37,.28-.1,.08-.03-.5,.25-.13,.2-.13,.42-.26Zm.03,.92l.03,.43-.15,.08-.12,.1-.25,.18-.37,.23v-.43l.17-.1,.17-.13,.3-.23,.22-.13Zm.03,.98l.03,.55h-.03l-.17,.05-.15,.05-.3,.2-.25,.13-.03-.53,.15-.05,.15-.08,.3-.15,.3-.18Zm.03,.92v.43h-.1l-.2,.08-.2,.08-.22,.1-.17,.13v-.38l.15-.05,.15-.08,.3-.13,.3-.18Zm-3.32-14.49l1.02,.08h.99l-.07,1.08-.05,1.13h-.03l-.03,.03,.03,.03h.03l-.05,1.68v3.49l.03,1.78,.07,3.46,.03,1.63v1.55h-.42l-.42-.03h-.45l-.42-.03-3.29,.03h-3.27l-1.21-.05-1.24-.03h-1.61l-.54,.03,.03-.05v-.05l-.03-.2v-.64l.07-2.66,.05-1.33v-1.3l.03-2.61-.03-3.86-.03-2.11-.03-.68-.03-.33,.52,.08,.52,.05,.54,.03h.54l1.09-.05,1.04-.05,1.29-.03,2.03-.03,2.01-.03h1.29Zm3.32,15.18v.45h-.12l-.1,.05-.22,.13-.25,.15-.07-.08-.05-.03-.07-.03v-.25l.22-.08,.22-.1,.45-.23Zm-7.55,1.82l.12,.05,.07,.1,.1,.18,.03,.1v.38l-.03,.1-.05,.13-.07,.1-.1,.08-.12,.08-.15,.03h-.15l-.12-.05-.15-.05-.1-.1-.07-.13-.05-.13v-.15l.03-.18,.05-.13,.07-.15,.1-.1,.07-.08,.07,.03,.07-.03,.1-.03h.05l.05-.03,.03-.03h.15Zm-.12-.5l-.2,.03-.1,.05-.07,.05-.1,.03-.12,.03-.1,.08-.1,.05-.1,.1-.07,.1-.05,.1-.07,.13-.05,.25-.05,.25v.15l.03,.13,.05,.13,.05,.13,.05,.1,.1,.1,.07,.08,.12,.08,.1,.08,.12,.05,.12,.03,.12,.03h.12l.15-.03,.12-.03,.12-.05,.2-.1,.15-.15,.1-.18,.1-.2,.05-.2v-.45l-.03-.2-.07-.18-.1-.18-.12-.15-.17-.13-.17-.06-.2-.03Zm-5.92-18.25l.49,.03,.94,.05,.92,.03,3.52,.03h3.49l1.86-.03-.03,.03v.05l-.03,.03,.03,.03,.03,.03,.07,.03h.09l.12-.03,.22-.08,.2-.08,.64,.05h.03l.15,.05-.1,.03-.12,.05-.22,.13-.37,.25-.52,.3-.25,.18-.22,.18-.47-.03h-3.31l-2.01,.03-1.29,.05-1.21,.05-1.21,.03h-.59l-.62-.03-.59-.05-.59-.05h-.07l-.07,.03-.03,.08-.03,.08v.08l.03,.05,.05,.08,.07,.03v.28l.03,.45-.03,1.23-.03,1.3-.03,.85-.03,.58-.03,.58,.03,1.18,.05,1.15v1.18l-.03,2.93-.03,1.53-.05,1.38-.07,.68v.18l.03,.18,.03,.15,.05,.13,.05,.08-.05,.1v.1l.05,.1,.03,.03,.07,.03,.3,.03,.3,.03,.64,.03,1.24-.05,3.29,.03,2.03,.03,1.26,.03,.67,.03h.64l1.29-.05h.45l.45,.03,.42,.03,.45-.03h.05l.03-.03,.22-.03,.07-.03,.05-.05,.03-.05,.03-.05,.37-.18,.15-.08,.15-.1v.4l-.15,.1-.15,.1-.35,.15-.35,.13-.69,.2-.32,.13-.15,.08-.15,.1-.05,.08v.05l.03,.08h.07l.35-.03,.35-.05,.69-.2,.45-.13,.22-.1,.2-.1v.33l-.27,.08-.27,.08-.52,.18-.32,.13-.3,.1-.3,.15-.27,.18v.08l.03,.03h.03l.32-.05,.3-.08,.59-.18,.49-.13,.27-.08,.25-.1v.33l-.27,.05-.27,.1-.5,.23-.52,.23-.49,.25v.03l.03,.03h.25l.27-.05,.25-.05,.27-.08,.5-.15,.49-.2v.03l-.1,.2-.1,.15-.12,.1-.15,.1-.17,.05-.17,.05-.37,.05-.37,.03h-.4l-.79-.05h-.82l-.79,.03-3.69,.03h-3.67l-1.58-.05h-1.11l-.12-.05-.3-.13-.17-.08-.15-.1-.15-.13-.1-.13-.07-.13-.05-.15-.05-.28-.05-.3v-.28l-.02-1.74,.03-1.76-.03-2.41-.05-3.96-.03-3.96v-1.48l.03-.85,.03-.5,.07-.53,.1-.5,.15-.5,.08-.14,.12-.18,.2-.13,.25-.13,.3-.08,.37-.05,.42-.02Zm-.05-.48l-.47,.03-.4,.08-.32,.08-.3,.15-.22,.15-.2,.18-.15,.2-.1,.2-.1,.23-.05,.2-.03,.23-.05,.38-.03,.3-.05,.53-.05,.53-.03,1.05v1.03l.03,1.05,.03,1.2-.03,1.23-.03,2.41v1.23l.05,1.2,.03,1.23,.03,1.23-.03,.9,.03,.9,.03,.9,.05,.92,.03,.28,.05,.28,.1,.25,.12,.25,.15,.2,.2,.18,.12,.08,.12,.05,.12,.05,.15,.03,1.68,.03,1.21,.03,.82,.03,.67,.03h5.62l1.61-.03h.37l.4,.03,.79,.05h.4l.37-.03,.2-.05,.17-.05,.2-.05,.17-.1,.15-.13,.15-.18,.12-.2,.1-.25,.07-.28,.05-.3,.05-.3,.03-.33,.03-.63-.03-.58-.03-.8v-1.43l-.04-1.42-.03-.92v-1.2l-.03-2.76v-4.79l.03-.7,.05-.7,.05-.73v-.4l-.05-.45-.07-.4-.05-.2-.07-.2-.07-.18-.1-.18-.12-.15-.15-.13-.15-.1-.17-.1-.2-.05-.22-.05-.07-.05-.08-.03-.37-.03-.4-.03h-.74l-1.51,.03h-3.59l-3.62-.03-.92-.03-.94-.05-.54-.03Z"/></g></svg>