<?xml version="1.0" encoding="UTF-8"?><svg id="Calque_1" xmlns="http://www.w3.org/2000/svg" viewBox="0 0 173.84 178.2"><g id="Groupe_127"><path id="Tracé_169" d="M135.47,34.49l1.23,1.09,.92,1.08-1.53,.93-1.38,.77-1.84,1.25-1.84,1.25h-2.75l-2.61-.16,2.91-1.86,3.67-2.17,1.38-.62,.77-.31,.61-.31,.46-.46v-.48Zm3.07,4.49l.46,1.24,.15,1.39-1.07,.46-1.07,.46-1.99,1.09-.92,.62-1.07,.62h0l.15-1.86,.15-.77v-.63l1.38-.77,1.99-.93,1.83-.93Zm.92,4.8v3.41l-.31,.16-1.38,.62-1.38,.62-3.52,1.86,.15-3.26,1.84-1.08,1.84-1.25,1.38-.62,1.37-.46Zm-.15,5.58l-.15,2.94-1.68,.81-1.53,.81-3.05,1.86v-3.57l1.07-.31,.92-.46,1.99-.93,1.23-.46,1.21-.69Zm-.46,5.27l-.15,3.1-1.68,.93-1.53,.81-1.22,.77-1.07,.93-.5,.28,.15-3.88,1.53-.63,1.53-.77,1.53-.81,1.42-.73Zm-.15,5.43v3.41l-1.99,1.09-1.99,1.08-2.04,1.24v-3.88l.92-.31,2.3-1.25,1.38-.81,1.42-.58Zm0,5.7v3.41l-1.53,.93-1.38,.77-1.53,1.09-.77,.62-.81,.65v-4.34l1.23-.46,1.23-.62,3.55-2.05Zm-.15,6.36v3.1l-3.36,1.55-1.23,.46-1.26,.65v-3.41l.92-.15,.92-.31,1.84-.93,2.17-.96Zm0,5.9v2.94l-2.91,1.39-1.38,.81-1.38,.93-.15-4.07,1.38-.31,1.38-.46,3.06-1.23Zm0,5.11v3.26l-.61,.15-.77,.31-.92,.62-1.69,1.08-.92,.62-.76,.81v-3.88l1.53-.81,4.13-2.17Zm0,5.58v3.1l-1.53,.81-1.38,.77-1.38,.81-1.38,.81v-3.1l1.22-.46,1.07-.62,2.14-1.39,1.22-.74Zm0,6.04v2.48l-1.53,1.08-1.07,.93-2.91,1.86-.15-3.57,1.07-.46,1.07-.46,1.84-1.08,1.69-.77Zm0,5.7v4.49l-1.23,.81-.76,.62-3.37,2.48-.15-5.11,1.07-.46,1.07-.63,1.99-1.24,1.38-.97Zm0,7.6v4.8l-1.69,.93-1.68,1.25-.92,.62-1.07,.81v-4.96l1.07-.62,.92-.46,1.84-1.25,1.52-1.12Zm0,7.29l.15,2.79-2.44,1.39-2.3,1.7-.61,.46-.15-3.09,1.53-.81,1.22-.81,2.6-1.63Zm.15,5.7l.15,2.64-.92,.46-.77,.62-1.53,1.08-2.3,1.39v-2.63l1.07-.63,1.07-.77,1.84-1.39,1.38-.77Zm.15,6.04l.15,3.41h-.15l-1.07,.31-.92,.31-1.84,1.24-1.53,.81-.15-3.26,.92-.31,.92-.46,1.84-.93,1.84-1.12Zm.15,5.7v2.64h-.62l-1.23,.46-1.23,.46-1.38,.62-1.07,.81v-2.33l.92-.31,.92-.46,1.84-.77,1.84-1.12Zm-20.51-89.57l6.28,.46h6.12l-.46,6.66-.3,6.98h-.15l-.15,.16,.15,.15h.15l-.31,10.38v21.55l.15,11.01,.46,21.39,.15,10.08v9.61h-2.61l-2.61-.15h-2.75l-2.6-.16-20.36,.16h-20.21l-7.51-.31-7.65-.15h-9.95l-3.36,.15,.15-.31v-.31l-.15-1.25v-3.94l.46-16.43,.31-8.21v-8.06l.15-16.11-.15-23.87-.15-13.03-.15-4.19-.15-2.02,3.22,.46,3.22,.31,3.36,.15h3.36l6.73-.31,6.42-.31,7.96-.15,12.55-.16,12.4-.15,7.97-.09Zm20.51,93.93v2.79h-.77l-.61,.31-1.38,.81-1.53,.93-.46-.46-.31-.16-.46-.15v-1.55l1.38-.46,1.38-.62,2.75-1.43Zm-46.68,11.26l.76,.31,.46,.62,.62,1.09,.15,.62v2.33l-.15,.62-.31,.81-.46,.62-.61,.46-.77,.46-.92,.16h-.92l-.77-.31-.92-.31-.61-.62-.46-.81-.31-.77v-.93l.16-1.1,.3-.77,.46-.93,.62-.63,.46-.46,.46,.16,.46-.16,.61-.15h.31l.3-.15,.15-.16h.93Zm-.77-3.09l-1.23,.15-.61,.31-.46,.31-.61,.16-.77,.15-.61,.46-.62,.31-.61,.62-.46,.62-.31,.63-.46,.77-.3,1.56-.31,1.55v.93l.15,.81,.31,.77,.31,.81,.3,.62,.62,.63,.46,.46,.76,.46,.62,.46,.76,.31,.77,.16,.77,.15h.76l.92-.15,.77-.16,.77-.31,1.22-.63,.92-.93,.62-1.08,.61-1.25,.31-1.24v-2.79l-.15-1.25-.46-1.08-.61-1.09-.77-.93-1.07-.77-1.07-.37-1.23-.16ZM54.97,32.48l3.05,.15,5.82,.31,5.7,.15,21.73,.16h21.58l11.48-.16-.15,.16v.31l-.15,.16,.15,.15,.15,.15,.46,.16h.55l.77-.16,1.38-.46,1.23-.46,3.97,.31h.15l.92,.31-.62,.15-.76,.31-1.38,.77-2.3,1.56-3.22,1.86-1.53,1.09-1.38,1.08-2.91-.15h-20.49l-12.4,.15-7.96,.31-7.5,.31-7.5,.16h-3.63l-3.83-.16-3.67-.31-3.67-.31h-.46l-.46,.15-.15,.46-.15,.46v.46l.15,.31,.31,.46,.46,.15v1.71l.15,2.79-.15,7.6-.15,8.06-.15,5.27-.15,3.57-.15,3.56,.15,7.29,.31,7.12v7.29l-.15,18.13-.15,9.45-.31,8.53-.46,4.19v1.09l.15,1.08,.15,.93,.31,.77,.3,.46-.3,.63v.62l.3,.62,.15,.16,.46,.15,1.84,.15,1.84,.16,3.97,.15,7.65-.31,20.36,.16,12.55,.15,7.81,.15,4.14,.16h3.94l7.96-.31h2.75l2.75,.15,2.61,.16,2.75-.16h.3l.15-.15,1.38-.15,.46-.16,.3-.31,.15-.31,.15-.31,2.3-1.08,.92-.46,.92-.62v2.44l-.92,.62-.92,.63-2.14,.93-2.14,.77-4.29,1.25-1.99,.81-.92,.46-.92,.62-.31,.46v.31l.15,.46h.46l2.14-.16,2.14-.31,4.28-1.25,2.75-.81,1.38-.62,1.23-.62v2.01l-1.69,.46-1.68,.46-3.22,1.08-1.99,.81-1.84,.62-1.84,.93-1.68,1.09v.46l.15,.15h.15l1.99-.31,1.84-.46,3.67-1.08,3.05-.81,1.69-.46,1.53-.62v2.01l-1.68,.31-1.69,.62-3.09,1.39-3.22,1.39-3.05,1.56v.15l.15,.15h1.53l1.69-.31,1.53-.31,1.69-.46,3.06-.93,3.05-1.25v.16l-.61,1.24-.61,.93-.77,.63-.92,.62-1.07,.31-1.07,.31-2.3,.31-2.3,.15h-2.44l-4.89-.31h-5.05l-4.89,.15-22.8,.15h-22.69l-9.77-.31h-6.89l-.77-.31-1.84-.81-1.07-.46-.92-.62-.92-.81-.61-.77-.46-.81-.31-.93-.31-1.71-.3-1.86v-1.7l-.15-10.76,.15-10.85-.15-14.88-.3-24.48-.15-24.49v-9.15l.15-5.28,.15-3.09,.46-3.26,.61-3.1,.92-3.1,.48-.9,.77-1.09,1.23-.77,1.53-.81,1.84-.46,2.3-.31,2.57-.11Zm-.31-2.96l-2.91,.15-2.44,.46-1.99,.46-1.84,.93-1.38,.93-1.23,1.08-.92,1.25-.61,1.25-.61,1.39-.31,1.25-.15,1.39-.31,2.33-.15,1.86-.31,3.26-.31,3.26-.15,6.51v6.36l.15,6.51,.15,7.44-.15,7.6-.15,14.87v7.6l.31,7.44,.15,7.6,.15,7.6-.15,5.58,.15,5.58,.15,5.58,.3,5.7,.15,1.7,.3,1.71,.62,1.55,.76,1.56,.92,1.24,1.23,1.09,.77,.46,.76,.31,.77,.31,.92,.15,10.41,.16,7.5,.15,5.05,.15,4.14,.16h34.75l9.95-.16h2.3l2.44,.16,4.89,.31h2.44l2.3-.15,1.23-.31,1.07-.31,1.23-.31,1.07-.62,.92-.81,.92-1.08,.77-1.25,.61-1.55,.46-1.71,.31-1.86,.3-1.86,.15-2.01,.15-3.88-.15-3.56-.15-4.96v-8.83l-.28-8.79-.15-5.7v-7.44l-.15-17.05v-29.61l.15-4.34,.31-4.35,.31-4.49v-2.48l-.31-2.79-.46-2.44-.31-1.25-.46-1.24-.46-1.08-.61-1.09-.77-.93-.92-.77-.92-.63-1.07-.62-1.23-.31-1.38-.31-.46-.31-.51-.2-2.3-.16-2.44-.15h-4.59l-9.33,.15h-22.16l-22.35-.15-5.7-.15-5.82-.31-3.31-.16Z" fill="#929292" fill-rule="evenodd"/></g></svg>