<svg id="Calque_1" data-name="Calque 1" xmlns="http://www.w3.org/2000/svg" viewBox="0 0 350 300"><defs><style>.cls-1{fill:none;stroke:#000;stroke-miterlimit:10;stroke-width:4px;}</style></defs><title>selected</title><path class="cls-1" d="M265.82,76.63C264,59.16,227.57,52.38,211.65,50.27l-1.31,9.91C241.83,64.37,256,73.12,256,78c0,1.84-2,4.11-5.78,6.45-3.39-7.5-18.05-12.58-43.72-15.13l-1,10c22.23,2.21,32.66,6.5,35.13,8.74a13.72,13.72,0,0,1-4,2.29C223.37,94.53,203.41,97.9,177,98c-34.89-.17-56.71-6.16-60.66-10a108.72,108.72,0,0,1,12.86-5.11c3-1,14.91-4.7,38-5.43a243.33,243.33,0,0,1,38.24,1.8l1-10a230.38,230.38,0,0,0-30.43-2.08c-13.22,0-23.44-.07-35.8,3.13a99.58,99.58,0,0,0-34.07,16.41C99.07,83.7,96,80.77,96,78c.09-8.56,31.83-14.9,39.57-16.46,8.61-1.73,15.17-2.4,16.74-2.55a254.19,254.19,0,0,1,58,1.18c.43-3.3.87-6.61,1.31-9.91l-30-2.38a202.3,202.3,0,0,0-43.11,2.42c-8.2,1.36-14.71,2.48-22.71,5.72A83.74,83.74,0,0,0,86.19,76.6,283.79,283.79,0,0,0,66,181.85V228a5,5,0,0,0,5,5H281a5,5,0,0,0,5-5V181.85a285.22,285.22,0,0,0-5.13-53.79,285.47,285.47,0,0,0-15-51.43M92.06,89.49C105.77,101.67,141,108,176,108h2.5c5.46,0,42.15-.31,61.14-8.23,8.67-2.75,15.68-6.18,20.3-10.28A274.88,274.88,0,0,1,271,130a274.73,274.73,0,0,1,5,51.9V198H76V181.85A273.52,273.52,0,0,1,92.06,89.49M76,208H276v15H76Z"/><path class="cls-1" d="M146,158a30,30,0,1,0,30-30,30,30,0,0,0-30,30m25-19.29V148h10v-9.29a20,20,0,1,1-10,0"/><path class="cls-1" d="M147.74,135.27,141,130a43.57,43.57,0,0,0-5,8.06l7.72,3.69a33.76,33.76,0,0,1,4-6.45"/><path class="cls-1" d="M159.44,125.74l-3.81-7.66a43.37,43.37,0,0,0-8,5.14l5.4,6.64a34.59,34.59,0,0,1,6.38-4.12"/><path class="cls-1" d="M141.25,148.88,132.9,147a43.26,43.26,0,0,0-1,9.43h8.55a34.26,34.26,0,0,1,.84-7.55"/><path class="cls-1" d="M207.77,147.83l8.28-2.15a42.6,42.6,0,0,0-3.38-8.86l-7.61,3.92a33.8,33.8,0,0,1,2.71,7.09"/><path d="M213.32,159.2c0,.2,0,.4,0,.6l-.55-.1c0-.16,0-.32,0-.49h.56m4.08-4.13-8.56.27,0,1.09a34.54,34.54,0,0,1-.61,6.49l8.4,1.6a43.13,43.13,0,0,0,.77-8.09l0-1.36Z"/><path class="cls-1" d="M174.09,122.21l-.13-8.56a43.14,43.14,0,0,0-9.4,1.19l2,8.32a34.81,34.81,0,0,1,7.53-1"/><path class="cls-1" d="M200.86,134.42l6.55-5.5a43.33,43.33,0,0,0-6.86-6.54l-5.19,6.8a35,35,0,0,1,5.5,5.24"/><path d="M186.45,119.48l.58.19-.23.51-.46-.15.11-.55m-3.06-4.94-1.73,8.38a34.49,34.49,0,0,1,7.2,2.36l3.56-7.77a42.84,42.84,0,0,0-9-3Z"/><path class="cls-1" d="M202.19,176.72l6.89,5.08a42.55,42.55,0,0,0,4.75-8.22L206,170.15a33.62,33.62,0,0,1-3.8,6.57"/><path class="cls-1" d="M138.27,177.82a6.42,6.42,0,1,0-6.41-6.42,6.42,6.42,0,0,0,6.41,6.42"/></svg>