<svg id="Calque_1" data-name="Calque 1" xmlns="http://www.w3.org/2000/svg" viewBox="0 0 350 300"><title>selected</title><path d="M286.19,48a1.27,1.27,0,0,1,.74.24l56.66,40.42a1.28,1.28,0,0,1-.47,2.28l-30.2,6.64-2,.44-.81,1.9-10.91,25.73a1.3,1.3,0,0,1-1.18.78,1.43,1.43,0,0,1-.49-.1,1.27,1.27,0,0,1-.68-.7,1.22,1.22,0,0,1,0-1l10.33-24.34,1.25-3-2.61-1.86-8.49-6.06L293.83,87l-2.24,3.65L226.65,196.37l-.84,1.37.34,1.58,10.6,48.41L239.43,260l4.91-11.57,46.23-109a1.27,1.27,0,0,1,1.18-.78,1.23,1.23,0,0,1,.49.1,1.26,1.26,0,0,1,.68.69,1.29,1.29,0,0,1,0,1l-52.61,124-.05.08-.06.14a1.3,1.3,0,0,1-.16.29,1.29,1.29,0,0,1-1,.47H67.5a1.26,1.26,0,0,1-1.25-1.54L70,246.64l.54-2.45-2-1.55C55.1,232.05,23.65,203,23,161.62A84.51,84.51,0,0,1,24,147.11a8.34,8.34,0,0,0,.85.26l.26.07a11,11,0,0,0,1.4.21,82.55,82.55,0,0,0-1,14.09C26.09,200.54,54,227.9,66,237.87L71,242.08l1.41-6.43,2.45-11.19.54-2.5-2.05-1.55a73.5,73.5,0,0,1,44.2-132.22,72.69,72.69,0,0,1,45.9,16.1,73.76,73.76,0,0,1,22.65,30.89l1,2.55h19.51l-1.77-5.27a92.05,92.05,0,0,0-176.41,6.22v0a1.27,1.27,0,0,1-2.46-.65A94.59,94.59,0,0,1,176.66,87.82a95.58,95.58,0,0,1,31.64,47.07l.77,2.6,2.7.25a1.26,1.26,0,0,1,1.12,1l10,45.73,2.12,9.7,5.2-8.46,61.07-99.47.82-1.34-.31-1.55-6.86-33.81a1.27,1.27,0,0,1,.55-1.33,1.37,1.37,0,0,1,.7-.2m24.08,47.56,1.74-.39L331,91l8.79-1.93-7.33-5.23-36.1-25.76-8.26-5.9,2,10,4.2,20.71.32,1.54,1.28.92,12.93,9.22,1.45,1M76,219.55l1.45-6.61,16.24-74.2a1.28,1.28,0,0,1,1.25-1h89.76l-2.6-5.67a71.53,71.53,0,0,0-20.17-25.79,70.2,70.2,0,0,0-44.31-15.53A71,71,0,0,0,70.87,215.1L76,219.55M69.08,262.9H237.46L236.4,258,211.31,143.42l-.69-3.14H95.92l-.69,3.14L70.14,258l-1.06,4.86M286.19,44A5.28,5.28,0,0,0,281,50.32l6.86,33.82L226.81,183.6l-10-45.72a5.28,5.28,0,0,0-4.66-4.12,98.6,98.6,0,0,0-190,3.32,5.3,5.3,0,0,0,3.79,6.42l.15,0a5.65,5.65,0,0,0,1.16.13,5.3,5.3,0,0,0,5.09-3.87l0-.09,0,.09h0l0-.09a88,88,0,0,1,168.75-6H189.86A77.58,77.58,0,0,0,166,101.16a76.67,76.67,0,0,0-48.4-17A77.5,77.5,0,0,0,71,223.61l-2.45,11.18c-8.14-6.77-38.43-33.58-39-73.1a80.53,80.53,0,0,1,2.75-21.89,5.27,5.27,0,0,1-5.08,3.87,5.18,5.18,0,0,1-1.17-.13l-.15,0a5.28,5.28,0,0,1-3.79-6.42A89,89,0,0,0,19,161.69c.74,46.09,38.07,77,47.13,84.09L62.34,263a5.29,5.29,0,0,0,5.16,6.4H239.05a5.25,5.25,0,0,0,4.1-2,5.17,5.17,0,0,0,.72-1.19l0,0L296.6,142a5.27,5.27,0,0,0-2.8-6.91,5.15,5.15,0,0,0-2.05-.42,5.26,5.26,0,0,0-4.86,3.21l-46.23,109-10.6-48.41L295,92.7l8.49,6.06-10.33,24.33a5.27,5.27,0,1,0,9.71,4.12l10.91-25.72L344,94.85a5.28,5.28,0,0,0,1.93-9.45L289.25,45a5.3,5.3,0,0,0-3.06-1Zm25,47.27L298.21,82,294,61.33l36.11,25.76-19,4.18ZM73.5,212.09A67,67,0,0,1,117.58,94.74a67,67,0,0,1,60.84,39H94.9a5.27,5.27,0,0,0-5.15,4.15L73.5,212.09Zm.55,46.81L99.14,144.28H207.4L232.49,258.9Zm145,10.54H87.53v7.69H219v-7.69Z"/><path d="M305,105l2.32,1L279,171.94l-2.32-1L305,105m-2.1-5.25-31.44,73.3,9.67,4.15,31.45-73.3-9.68-4.15Z"/></svg>