<svg id="Calque_1" data-name="Calque 1" xmlns="http://www.w3.org/2000/svg" viewBox="0 0 350 300"><title>selected</title><path d="M86,28.39a11.87,11.87,0,0,0-7.77,2.89l-27,23.32A11.89,11.89,0,0,0,50,71.39l7.48,8.67a55.5,55.5,0,0,0,88.71,60.26,54.45,54.45,0,0,0,9.31-10.45l66,61.26a4,4,0,0,0,5.27.09l18-15.55a4,4,0,0,0,.42-5.6L151.92,62a55.2,55.2,0,0,0-41.8-19.16,56,56,0,0,0-5.91.32L95,32.51a11.91,11.91,0,0,0-9-4.12ZM61,72l-5-5.78a4,4,0,0,1,.41-5.59l27-23.33a4,4,0,0,1,2.61-1h.28A4,4,0,0,1,89,37.7l6.09,7c-.1,0-.2.08-.31.11-1.72.48-3.4,1-5.06,1.69L88.67,47c-1.49.62-3,1.31-4.42,2.06l-.63.31c-1.57.85-3.09,1.8-4.59,2.79L78,52.9c-1.47,1-2.91,2.12-4.28,3.3l-.08,0a55,55,0,0,0-4.3,4.2c-.42.44-.81.92-1.21,1.38-1,1.09-1.85,2.21-2.72,3.37-.38.51-.76,1-1.13,1.55-1,1.41-1.89,2.87-2.73,4.37-.14.25-.32.47-.44.73L61,72Zm48.83,73.89a47.57,47.57,0,0,1-44.14-65.2,45.35,45.35,0,0,1,2.43-5.19A46.78,46.78,0,0,1,78.79,62.26c.86-.75,1.74-1.46,2.66-2.12a47,47,0,0,1,18.3-8.34q1.65-.36,3.33-.6a47.49,47.49,0,0,1,42.84,16l80.35,93.07L212.61,172l-55.22-51.25a3.94,3.94,0,0,0-2.69-1.06,4.07,4.07,0,0,0-.61,0,4,4,0,0,0-2.85,2h0a47.57,47.57,0,0,1-41.41,24.13Zm114.49,37-5.85-5.42,13-11.22,5.18,6-12.33,10.63Z"/><path d="M109.89,78.45a19.85,19.85,0,1,0,5.28.72,19.83,19.83,0,0,0-5.28-.72Zm0,31.74c-.29,0-.58,0-.86,0v0a11.27,11.27,0,1,1,.87,0Z"/><path d="M248,205.68a4,4,0,0,0-3,6.56l18.15,21a12,12,0,0,0,9,4.11,10.05,10.05,0,0,0,1.09-.05,11.9,11.9,0,0,0,9.19-5.82,11.59,11.59,0,0,0,.74-10.6,12,12,0,0,0-11-7.32,11.58,11.58,0,0,0-2.33.23,4,4,0,0,0-2.14,6.47,3.7,3.7,0,0,0,2.9,1.39,3.88,3.88,0,0,0,.67-.06,4,4,0,1,1-2.1,6.46l-18.14-21a4,4,0,0,0-3-1.38Z"/><path d="M249.6,183.3a4,4,0,0,0-3,6.56l12.56,14.56a12.81,12.81,0,0,0,6.83,4.3,11.9,11.9,0,1,0,2.56-23.52,12.06,12.06,0,0,0-2.31.23,4,4,0,0,0-2.15,6.46,3.72,3.72,0,0,0,2.91,1.4,3.79,3.79,0,0,0,.67-.06,4,4,0,1,1,.9,7.83h-.29a3.94,3.94,0,0,1-2.72-1.36l-13-15a4,4,0,0,0-3-1.38Z"/></svg>