<svg id="Calque_1" data-name="Calque 1" xmlns="http://www.w3.org/2000/svg" viewBox="0 0 350 300"><title>selected</title><path d="M136.34,171c0,.24.1.48.16.71l-.11-.08-.06-.59v0m.07,88.25c9.5,0,18.28,2.64,23.73,6.82-1.58-.12-3.47-.18-5.74-.18-2.85,0-5.93.08-9.2.16s-6.67.18-9.79.18c-.92,0-1.82,0-2.69,0-1.6,0-3,0-4.37,0-2,0-4,0-6.68.07a83.94,83.94,0,0,0-8.79.42c5.52-4.73,13.93-7.4,23.53-7.4M153.59,14a70.09,70.09,0,0,0-17.25,2.14c-9.65,2.46-18.87,7.32-25,15.38a38.7,38.7,0,0,0-7,15.13,41.25,41.25,0,0,0-.86,8.44c0,2.49.58,4.95.7,7.41A10.5,10.5,0,0,0,102.56,64c-3.67,4.32-3.21,10.57-2.43,15.8.88,6,2.09,11.81,2.75,17.83,1,8.63,1.72,17.28,2.37,25.93,1.25,16.85,1.77,33.74,2.62,50.61s2.39,33.54,4,50.31c.64,6.72,1,15.4,4.85,21.21l.15.21c-2.2.16-4.4.32-6.6.51-10.07.87-19.28,3.41-25.34,12.08-3.57,5.11-5.45,13.2-1.29,18.54,2.31,3,5.84,3.92,9.43,4.27,4.76.48,9.65.62,14.44.9s9.76.37,14.66.37c5.76,0,11.52-.13,17.24-.26,10.2-.23,20.52-.22,30.69-1,6.17-.45,17.16-.12,17.93-8.33.73-7.74-4-15.48-10.1-19.84s-13.74-6.09-21-7.3a68.52,68.52,0,0,0-11.41-1.3h0c-.84,0-1.67,0-2.5,0a8.59,8.59,0,0,0,1.31-2.26,59.3,59.3,0,0,0,15.13,1.49l6.6,0h1.87c5,.06,10,.13,15.07.13,3.54,0,7.08,0,10.62-.14,7.87-.22,15.72-.64,23.58-.88,1.93-.06,3.86-.08,5.79-.08,2.86,0,5.73,0,8.59.06,4.09,0,8.18.45,12.27.45.71,0,1.42,0,2.12,0,3.94-.17,7.83-.78,11.72-1.33,7.92-1.14,17.8-2.66,22.55-9.9,4.31-6.57,3.75-15.53,3.78-23,.06-14.15-2.1-35.82-17.8-41-.09-.21-.19-.41-.3-.62a39.92,39.92,0,0,0-.47-8.87c-1-7.59-2.62-15.14-4-22.66a126,126,0,0,0-9.69-30.63c-4.47-9.45-10.63-18.42-19.24-24.53a34.62,34.62,0,0,0-18-6.39,15.08,15.08,0,0,0-.11-5.69,12.21,12.21,0,0,0-6.54-9.23,2.58,2.58,0,0,0,.11-.76c-.23-12-6.83-24.42-16-32C181.4,18,167.39,14,153.59,14Zm-8.87,20.63c0-1.91-.88-4.05-1.21-5.73-.56-2.9-.87-5.92-1.58-8.81a64.37,64.37,0,0,1,10.89-.91c1.46,0,2.92.05,4.35.14A17.49,17.49,0,0,0,155,24a48.11,48.11,0,0,0-2.36,9.51,1.41,1.41,0,0,0,0,.29,42.47,42.47,0,0,0-6.29.51c-.53.08-1.06.18-1.58.3Zm20,.86A40.94,40.94,0,0,0,157.08,34c.95-2.1.95-5,1.44-7.14s1.12-5.19,2.62-7.19c1.85.23,3.67.52,5.43.89a59.65,59.65,0,0,1,10,3,17.89,17.89,0,0,0-5.35,3.25,28.17,28.17,0,0,0-6.35,8.09,2.08,2.08,0,0,0-.19.58Zm-30.24,3a41.41,41.41,0,0,0-5.08-7.68,16,16,0,0,0-4.88-4.29,46.35,46.35,0,0,1,14.75-5.91,27.27,27.27,0,0,0-.13,7.87c.18,2,0,5.25,1,7.46a37.76,37.76,0,0,0-5.63,2.55Zm40.68,2A34.93,34.93,0,0,0,168.88,37c1.5-1.57,2.42-4,3.62-5.67,2.08-2.9,5.05-4.22,7.86-6.06A41.59,41.59,0,0,1,190,31.8l.32.31A26.43,26.43,0,0,0,184,33.92a19.82,19.82,0,0,0-5.7,3.7,34.47,34.47,0,0,0-3.13,2.83ZM125.93,45a22,22,0,0,0-5.3-4.14c-2.38-1.33-5.07-1.68-7.58-2.57a33.06,33.06,0,0,1,7.39-8.83,18.07,18.07,0,0,1,3.77,2,22.76,22.76,0,0,1,3.06,3.3c1.33,1.65,2.63,4,4.35,5.47a34.52,34.52,0,0,0-5.69,4.8Zm58.14,4.71a35.74,35.74,0,0,0-4.83-5.93l-.72-.65c.51-.48,1-1,1.5-1.51a21,21,0,0,1,4.65-3.75A30.35,30.35,0,0,1,193.05,35a42.26,42.26,0,0,1,7.09,11.48,13.35,13.35,0,0,0-3-.31,22.37,22.37,0,0,0-4.54.53c-2.42.51-6.62,1.11-8.57,3.07Zm-49.13,96.1q-1.58-14.51-3.44-29.39-3.47-27.51-7.67-53.6a2.33,2.33,0,0,0,.25-1.19c-.31-8.53,6.79-15.85,14-19.43a33.73,33.73,0,0,1,15.05-3.4c1.23,0,2.46.06,3.67.18a33.67,33.67,0,0,1,17.39,6.85,27.12,27.12,0,0,1,6.18,6.86c1.37,2.18,2.14,4.81,3.3,7.13a11,11,0,0,0-5.45,5.22,9.65,9.65,0,0,0,1.09,10.42,52.14,52.14,0,0,0-11.87,3.86c-15,7.06-22.67,22.85-27,38.08a167.33,167.33,0,0,0-5.47,28.41ZM108.69,51.25a32.68,32.68,0,0,1,.63-3.69A34.64,34.64,0,0,1,111.17,42c2.48.83,5.11,1.16,7.44,2.32,1.71.86,3.33,2.35,5.09,3.34a24.37,24.37,0,0,0-3.37,6.22,25.37,25.37,0,0,0-4.18-1.78,21.74,21.74,0,0,0-5.87-1,10.27,10.27,0,0,0-1.59.11Zm78.74,7.35a15.92,15.92,0,0,0-1.62-5.75c2.12-.05,4.57-1.49,6.45-2a38.51,38.51,0,0,1,9.05-1.16,33.33,33.33,0,0,1,1.54,8.25,29,29,0,0,0-4.93-.39c-1.12,0-2.24.05-3.34.14-1.38.1-2.8.23-4.21.47a23.39,23.39,0,0,0-2.94.44Zm-80.2,2.29a30.62,30.62,0,0,0,1-5.4,9,9,0,0,0,1.05.06l1.4,0h.42a26.54,26.54,0,0,1,5.48.71c.66.15,1.78.51,2.9.68a20.35,20.35,0,0,0-.38,3.43,19.76,19.76,0,0,0-5.11-.66,18.89,18.89,0,0,0-6.77,1.2Zm78.89,13.58c-.27-.09-.54-.19-.8-.3a5.09,5.09,0,0,1-2.73-6.64c1.47-3.57,6.27-4,9.58-4.16.5,0,1,0,1.51,0,2.13,0,4.27.15,6.4.18h.26c.87,0,1.68-.06,2.46-.06a5.86,5.86,0,0,1,3.84,1.13A8.07,8.07,0,0,1,209.41,70a14,14,0,0,1,.1,3.49,2.49,2.49,0,0,1-1.58.35c-.91,0-2-.14-2.49-.14h-.07c-1.3,0-2.59.13-3.89.26-1.33-.07-2.68-.11-4-.11-3.26,0-6.52.2-9.73.45l-1.61.15ZM127.56,243.68l-7.87-.5c-.23-2.06-.58-5.22-1-9.07-1.36-11.79-2.43-20.32-2.59-21.82-1.62-15.28-2.46-30.62-3.2-45.95-1.38-28.34-2-57.19-7-85.16-.46-2.56-2.81-9.05.4-12.85,1.76-2.08,5-3.18,8-3.18a9.1,9.1,0,0,1,6.31,2.15c3.39,3.32,2,10.35,2.77,20,0,.26.09,1,.16,2,.21,3.07.18,4.44.3,5.91a36.46,36.46,0,0,0,.94,5.81q.85,7.44,1.85,14.89c2.29,17.11,3.71,34.28,5.35,51.46,2.63,27.45,3.83,37.81,5.1,46.56.65,4.53.89,9.13,1.89,13.6,1.72,7.78,4,12.75,1.83,14.67-.75.67-1.48.46-5.36.66-3.39.18-6.12.51-7.86.75ZM205.93,79a23.5,23.5,0,0,0,2.92-.15c8.7.17,17,2.86,23.76,8.84,8,7,13.28,16.78,17,26.61a145,145,0,0,1,6.88,25.94c-1.52,1.45-4.3,2.56-5.57,3.16a66.47,66.47,0,0,1-7.42,2.93c-16.36,5.45-33.24,9.18-50.51,9.18q-1.87,0-3.75-.06a116.79,116.79,0,0,1-27.12-4.07,93.28,93.28,0,0,1-12.11-4.11c-3.13-1.34-5.86-3.22-9.05-4.12,1.51-12,4.14-24.12,8.75-35.05,5-11.78,12.75-21.59,25.26-25.56a67.38,67.38,0,0,1,14.09-2.65c.55,0,1.1,0,1.65,0a71.59,71.59,0,0,0,8-.6c1.21-.06,2.42-.12,3.63-.2h.39c.54-.06,1.09-.1,1.63-.14Zm26.8,97c-2.38,0-4.76,0-7.11,0l-6.75,0c1-3.3.58-7.22.19-10.46a24.74,24.74,0,0,0-1.68-7.25c3.09-.56,6.16-1.21,9.21-2,8-2,16.09-4.29,23.54-7.76a28.4,28.4,0,0,0,7.11-4.4c1.36,7.2,3.23,14.49,3.25,21.83,0,6.67-6.68,8.6-12.25,9.31a121.25,121.25,0,0,1-15.51.79ZM177.92,175c-7.94-.4-15.88-.8-23.83-.9-3.17,0-6.5.07-9.66-.26-2.84-.29-3.75-1.05-4.23-3.87-1-5.85-.58-12.52-.07-18.39.1-1.2.22-2.41.35-3.63,2.6,2.21,6.12,3.45,9.29,4.72a104,104,0,0,0,15.83,4.84A116.69,116.69,0,0,0,178,159.62a55.78,55.78,0,0,0,.38,5.92c.06,2,.13,4,0,6,0,1.19-.34,2.32-.49,3.48Zm15-14.48a136.37,136.37,0,0,0,21.72-1.77,42.44,42.44,0,0,1-.59,17.16,0,0,0,0,0,0,0q-6,0-12-.08c-6.34-.05-12.67-.31-19-.61.85-3,.13-7.15-.2-9.68a36.31,36.31,0,0,0-.86-5.52c3.65.32,7.3.47,10.95.47Zm72.62,74.68a13.78,13.78,0,0,0,2.33-3.94c1.67-4.3,1.55-9.12,1.26-13.65-.39-6.16-.78-12.32-1.27-18.47a158.54,158.54,0,0,1-.67-19.73c.08-1.89.23-3.95.14-6a32.71,32.71,0,0,1,3.66,3.5c3.17,3.61,5,8.36,6.16,12.95a69.73,69.73,0,0,1,1.77,16.67,123.44,123.44,0,0,1-.42,14.26c-.42,3.85-1.48,8.1-4.59,10.7a20.14,20.14,0,0,1-8.37,3.69Zm-2.31-60.68c-.23,3.13-1,6.38-1.17,9.06-.44,7.34.62,14.86,1,22.19.29,5,.66,10,.72,15,0,3.78-.11,8.22-2.77,11.2-3.46,3.88-10.84,4.41-15.66,4.86-3.68.34-7.37.43-11.06.43-2.47,0-4.95,0-7.43-.07-1.28,0-2.57,0-3.85,0-12.45,0-24.9.79-37.36.88h-1.4c-6.31,0-12.61-.29-18.92-.29h-.43c-1.94,0-3.89,0-5.83,0a51.67,51.67,0,0,1-13.46-1.37,3.06,3.06,0,0,0-.51-.1c-.09-1.73-.35-3.46-.53-5.16q-.67-6.27-1.42-12.53c-1.59-13.58-3.38-27.13-4.92-40.7a7.71,7.71,0,0,0,1.9,1c2.86,1,6,.86,9,.93,3.83.09,7.65.09,11.47.21,8.94.3,17.85,1.12,26.79,1.35s18,.26,27,.26c4.53,0,9.06.06,13.6.06,4.3,0,8.6,0,12.9-.24,6.81-.31,14.55-.55,20.2-4.86a12.64,12.64,0,0,0,2.13-2Zm-161.12,102c-2.86-.14-5.73-.28-8.56-.55s-5.67-1.07-6.5-4.16c-1.62-6,3.13-12.38,7.8-15.53a22.62,22.62,0,0,1,8-3.2,177.3,177.3,0,0,1,37.33-3.89l3.45,0a77.35,77.35,0,0,1,11,1.08c7,1.12,14.39,2.6,20.36,6.61a18.91,18.91,0,0,1,6.53,7.49c1.05,2.15,3.11,7.8.9,9.76-.84.74-3,.8-4.06,1-2.18.38-4.38.64-6.58.82l-1.62.12a17.39,17.39,0,0,0-1.87-6.72c-4.66-8.87-18.15-14.06-31.78-14.06-10.71,0-21.51,3.2-28.17,10.32a27.76,27.76,0,0,0-6.17,10.89Zm33.34-6.23c6.22,0,13.28-.34,19-.34s9.87.32,10.86,1.62a12.76,12.76,0,0,1,1.27,2.14,18.34,18.34,0,0,1,.78,2.55c-2.8.14-5.61.2-8.42.25-11.77.19-23.62.77-35.43.77-5.49,0-11-.13-16.43-.47a5.61,5.61,0,0,1,.72-3.55c1.59-2.5,5.33-2.83,14-3,2.73,0,4.65-.07,6.61-.07,1.33,0,2.67,0,4.29,0,.9,0,1.82,0,2.77,0Z"/><path d="M225.92,210.2h0c-4.68,0-9.32.88-14,.88h0c-4.78,0-9.54-.34-14.31-.47-.45,0-.9,0-1.35,0-6.1,0-12.39,1.06-18.56,1.06a35.3,35.3,0,0,1-9-1,2.78,2.78,0,0,0-.73-.1c-2.74,0-3.68,4.38-.67,5.16a38.49,38.49,0,0,0,9.78,1.11c6.37,0,12.81-1,19.15-1l1.37,0c4.73.12,9.46.43,14.19.43h1.53c4.44-.07,9.71-.17,13.58-2.6a1.84,1.84,0,0,0-.91-3.4Z"/><path d="M226.84,219.93h0c-4.68,0-9.32.87-14,.87h0c-4.78,0-9.54-.33-14.31-.47l-1.35,0c-6.1,0-12.39,1.07-18.56,1.07a34.87,34.87,0,0,1-9-1,3.27,3.27,0,0,0-.73-.1c-2.74,0-3.68,4.38-.67,5.17a38.94,38.94,0,0,0,9.78,1.11c6.37,0,12.81-1,19.15-1h1.37c4.73.12,9.46.43,14.2.43h1.52c4.44-.06,9.71-.17,13.58-2.59a1.84,1.84,0,0,0-.91-3.4Z"/><path d="M197.62,90c7.21,0,11.86,1.75,13.45,2.88-1.59,1.13-6.24,2.88-13.45,2.88S185.75,94,184.17,92.84c1.58-1.13,6.23-2.88,13.45-2.88m0-4c-9.88,0-17.88,3.08-17.88,6.88s8,6.88,17.88,6.88,17.87-3.08,17.87-6.88-8-6.88-17.87-6.88Z"/></svg>