<svg id="Calque_1" data-name="Calque 1" xmlns="http://www.w3.org/2000/svg" viewBox="0 0 350 300"><defs><style>.cls-1{fill:none;stroke:#000;stroke-miterlimit:10;stroke-width:5px;}</style></defs><title>selected</title><path class="cls-1" d="M285.69,204.43A49.15,49.15,0,0,0,253.36,190l-14.29-14.3c22.54-23.43,41.67-50.25,52.94-74.37,8.9-19,17.83-47.17,3-62s-43.41-5.9-62.47,3.14C205.05,55.5,177,77.6,158.64,95.27l-8.95,9c-22.45,23.34-41.35,49.93-52.3,73.72-8.77,19-17,46.54-2.31,61.29s42.29,6.46,61.31-2.29c23.8-10.95,50.39-29.84,73.73-52.29l14.3,14.29a49.15,49.15,0,0,0,14.43,32.33L273,245.46a6.34,6.34,0,0,0,9,0l17.89-17.9a6.3,6.3,0,0,0,0-8.94Zm-46.4-123C250.5,75,259,71.47,264.56,69.75c-1.71,5.54-5.23,14.07-11.62,25.29-1.8,3.18-3.94,6.75-6.43,10.63L228.66,87.82c3.88-2.49,7.45-4.63,10.63-6.44M150.17,197.83c-10.91,6.12-19.3,9.47-24.76,11.08,1.61-5.46,5-13.84,11.08-24.75,1.81-3.22,4-6.86,6.51-10.84l18,18c-4,2.53-7.62,4.69-10.84,6.5m21.51-13.72-21.45-21.46a285.37,285.37,0,0,1,26.3-31.59l26.75,26.75a284.47,284.47,0,0,1-31.6,26.3m40.55-35.25-26.75-26.74A292.1,292.1,0,0,1,218,95.05l21.28,21.28a292.84,292.84,0,0,1-27.05,32.53"/><path d="M111.73,38.29a1.32,1.32,0,0,1,.94.39L126.9,52.82a44.39,44.39,0,0,1,13.08,29l.1,1.9,1.34,1.35,6.12,6.14L154,97.67c.05.51.07.94.07,1.28-1.79-.45-4.9-2.15-8.25-5.79l-.08-.09-.08-.08-6.06-6-1.36-1.35-1.91-.1a44.38,44.38,0,0,1-29.1-12.88L93,58.51a1.29,1.29,0,0,1-.4-.93,1.31,1.31,0,0,1,.39-.94l17.83-18a1.37,1.37,0,0,1,.94-.4m0-5h0a6.32,6.32,0,0,0-4.46,1.87l-17.84,18a6.31,6.31,0,0,0,0,8.94L103.68,76.2a49.07,49.07,0,0,0,32.37,14.32l6,6c4.67,5.08,9.56,7.54,12.82,7.54a4.1,4.1,0,0,0,2.58-.77c2.28-1.8,1.44-6.57,1.14-8L145,81.55a49.18,49.18,0,0,0-14.54-32.28L116.19,35.13a6.31,6.31,0,0,0-4.46-1.84Z"/><path class="cls-1" d="M295.51,39.41c-14.9-14.8-43-5.77-62,3.19C209.42,54,182.66,73.18,159.31,95.79l-4.48-4.45a82.52,82.52,0,0,0-9.73,8.17l5.29,5.26c-22.36,23.42-41.17,50.07-52,73.91-8.69,19-16.87,46.62-2.08,61.31s42.27,6.33,61.28-2.51c23.75-11,50.28-30,73.54-52.55q4.47-4.49,8.92-9c17.61-18.43,39.62-46.55,52.56-74.07,9-19.08,17.84-47.67,2.94-62.47M151.2,198.4h0c-10.89,6.15-19.26,9.53-24.71,11.17,1.59-5.47,4.91-13.87,11-24.81,1.8-3.22,3.94-6.87,6.47-10.86L162,191.85c-4,2.55-7.59,4.73-10.81,6.55m21.46-13.81-21.53-21.38a284.51,284.51,0,0,1,26.2-31.69l26.83,26.66a284.4,284.4,0,0,1-31.5,26.41m40.42-35.39-26.84-26.65a291,291,0,0,1,32.44-27.17L240,116.59a293.1,293.1,0,0,1-26.95,32.61m40.55-53.94c-1.8,3.18-3.93,6.75-6.41,10.64l-17.9-17.78c3.87-2.51,7.43-4.66,10.6-6.47,11.2-6.42,19.72-10,25.26-11.71-1.7,5.54-5.2,14.08-11.55,25.32"/></svg>