<svg id="Calque_1" data-name="Calque 1" xmlns="http://www.w3.org/2000/svg" viewBox="0 0 350 300"><title>selected</title><path d="M231.14,193.34a17.8,17.8,0,1,1-17.8,17.8,17.83,17.83,0,0,1,17.8-17.8m0,29.07a11.27,11.27,0,1,0-11.26-11.27,11.29,11.29,0,0,0,11.26,11.27m0-33.07a21.8,21.8,0,1,0,21.8,21.8,21.83,21.83,0,0,0-21.8-21.8Zm0,29.07a7.27,7.27,0,1,1,7.27-7.27,7.27,7.27,0,0,1-7.27,7.27Z"/><path d="M231.14,18A46.91,46.91,0,0,1,278,64.86V211.14A46.91,46.91,0,0,1,231.14,258H63.06A25.09,25.09,0,0,1,38,232.94V72.12A25.09,25.09,0,0,1,63.06,47.06H88.12V76.12h96.16V64.86A46.91,46.91,0,0,1,231.14,18M190.81,185.39l6.86-7a46.77,46.77,0,0,1,66.94,0l6.86,7V64.86a40.33,40.33,0,0,0-80.66,0V185.39M44.53,214.72l6-3.48a25,25,0,0,1,12.52-3.36H81.59V53.59H63.06A18.55,18.55,0,0,0,44.53,72.12v142.6m43.59-.31H63.06a18.53,18.53,0,0,0,0,37.06H205.39l-7-6.86a46.51,46.51,0,0,1-14.1-33.47V82.66H88.12V214.41m143,37.06a40.33,40.33,0,1,0-40.33-40.33,40.37,40.37,0,0,0,40.33,40.33m0-237.47a50.92,50.92,0,0,0-50.86,50.86v7.26H92.12V43.06H63.06A29.1,29.1,0,0,0,34,72.12V232.94A29.1,29.1,0,0,0,63.06,262H231.14A50.92,50.92,0,0,0,282,211.14V64.86A50.92,50.92,0,0,0,231.14,14ZM194.81,175.59V64.86a36.33,36.33,0,0,1,72.66,0V175.59a50.76,50.76,0,0,0-72.66,0ZM48.53,207.78V72.12A14.55,14.55,0,0,1,63.06,57.59H77.59V203.88H63.06a28.88,28.88,0,0,0-14.53,3.9Zm14.53,39.69a14.53,14.53,0,0,1,0-29.06H92.12V86.66h88.16V211.14a50.7,50.7,0,0,0,15.31,36.33Zm168.08,0a36.33,36.33,0,1,1,36.33-36.33,36.37,36.37,0,0,1-36.33,36.33Z"/></svg>