<svg id="Calque_1" data-name="Calque 1" xmlns="http://www.w3.org/2000/svg" viewBox="0 0 350 300"><title>selected</title><path d="M263.08,73.33a2,2,0,0,1,.32.14,4.34,4.34,0,0,0,2,.5,5.27,5.27,0,0,0,2.2-.52l-2.07,2,2.62,2.86.92,1c.49.55.88,1,1.32,1.43l6,6c2.77,2.77,5.55,5.55,8.31,8.33a6.24,6.24,0,0,1,.77.89,5.71,5.71,0,0,1-.65.74Q238.81,142.89,192.68,189a6.34,6.34,0,0,1-.69.61,6.25,6.25,0,0,1-.76-.67c-3.8-3.78-7.6-7.59-11.45-11.45L175,172.64l-2.81-2.82,9.68-9.67,7.28-7.26,2.75-2.74-2.65-2.83-.64-.68c-.45-.5-.89-1-1.36-1.44l-5.75-5.75q-4.3-4.3-8.6-8.62c-.14-.14-.25-.26-.35-.38l.4.31a24.78,24.78,0,0,0,16.29,6.39l.83,0-1.49.17-8.22.95,5.86,5.85,2.69,2.68,5,5A27.19,27.19,0,0,0,207,159.34a24,24,0,0,1-11.86-6.26l-2.83-2.72-2.77,2.78-.22.22L175.61,167l-2.83,2.84,2.84,2.83,7.78,7.76,5.78,5.76L192,189l2.82-2.82,16.92-16.91,2.55-2.54,6.43-6.43-9.08-.4-1.2-.07c.48,0,1,0,1.44,0,6.44,0,12.65-2.8,18-8.1Q249.28,132.4,268.69,113l12.22-12.23c.44-.44.87-.89,1.25-1.3l.44-.46,2.7-2.84-2.78-2.76L265.16,76.13l-2.51-2.5a3.14,3.14,0,0,1,.43-.3m-5,4.77-.1.12q-10.54,10.57-21.11,21.12l-1,1c7.54-7.54,15-15,22.18-22.21M227.24,109c-6.67,6.68-13.43,13.44-20.09,20.14a25.82,25.82,0,0,1-12.34,7.29,26.17,26.17,0,0,0,11.93-7L227.24,109m58.46,49.2a846.19,846.19,0,0,1-76.15,50,875.38,875.38,0,0,0,76.15-50m-118,16-2.16,2.18c-3.32,3.36-6.46,6.53-9.74,9.69a10.22,10.22,0,0,1-3.23,2.16c-25.75,10.36-52,20.85-77.3,31L53.1,228.13c.75-.37,1.56-.73,2.44-1.08,28.87-11.39,58.15-23.17,86.46-34.56l9.33-3.75a16.15,16.15,0,0,0,5.22-3.43c3.7-3.66,7.42-7.36,11.14-11.06m19,47.13a8.69,8.69,0,0,0-4.23,6.8v-1a28.62,28.62,0,0,1,.07-3.49,25.69,25.69,0,0,1,2.87-1.66l1.29-.7m-4.23,9.48c.11,5-1.31,8.93-4.3,11.88,2.69-2.9,4.22-6.94,4.3-11.88M47,233.45a9.48,9.48,0,0,0-.74,6.51,10,10,0,0,0,9.62,7.77c1.31,0,17.46,0,48,0h35.6c-11,0-22.86,0-36.09,0l-38.2,0h-9a9.9,9.9,0,0,1-9.85-7.37c-.11-.34-.23-.66-.35-.95v-3.65a12.64,12.64,0,0,1,1-2.34M294.9,43c-1.21,0-2.47.8-4.06,2.39q-11.71,11.7-23.43,23.39a4.27,4.27,0,0,1-2,1.19.31.31,0,0,1-.17,0,4.81,4.81,0,0,0-2.23-.62c-1.69,0-3,1.19-4.33,2.54q-27.36,27.42-54.79,54.8a20,20,0,0,1-28.41,1.09,5.66,5.66,0,0,0-3.61-1.61,3.61,3.61,0,0,0-2.62,1.16c-1.79,1.81-1.55,4.07.73,6.36q7.17,7.2,14.36,14.37c.62.63,1.21,1.28,1.91,2-11,10.95-21.73,21.72-32.54,32.41a12.08,12.08,0,0,1-3.9,2.57c-31.9,12.83-63.79,25.68-95.77,38.3-5.9,2.33-10.3,5.62-12.07,11.88v5c.18.47.39.92.54,1.39a13.93,13.93,0,0,0,13.65,10.15q23.63,0,47.23,0,31.53,0,63.07-.12a21.24,21.24,0,0,0,9.54-2.5c7.57-4.06,10.84-10.87,10.4-19.34-.15-2.8.8-4.22,3.24-5.58,36.65-20.44,72.11-42.73,105.53-68.17a38.31,38.31,0,0,0,3.67-3.65v-2c-1.29-2.06-2.48-3.07-3.9-3.07a6.38,6.38,0,0,0-3.62,1.62c-33.24,25.3-68.48,47.51-104.87,68-9.16,5.14-7.95,3-8,13.59-.05,8.33-4.92,13.23-13.27,13.23H103.91c-24.75,0-46.45,0-47.95,0A6.09,6.09,0,0,1,50.17,239c-.72-3,1-5.81,4.41-7.19q49.74-19.92,99.47-39.85a14.56,14.56,0,0,0,4.52-3c4.57-4.4,9-8.95,13.55-13.53,5.54,5.54,10.9,10.93,16.29,16.3,1.31,1.3,2.45,1.95,3.59,1.95a5.15,5.15,0,0,0,3.5-1.9q46.14-46.09,92.23-92.23c2.6-2.6,2.55-4.61-.11-7.28-4.78-4.81-9.58-9.58-14.36-14.38-.57-.57-1.09-1.19-2.12-2.31,9.34-9.1,18.54-18.08,27.73-27.05v-3c-1.5-1.71-2.71-2.56-4-2.56Zm-83,112.89c-5.28,0-10.56-2.33-15.23-7L189,141.27c2.13-.25,3.7-.35,5.24-.63A29.24,29.24,0,0,0,210,132q25.4-25.5,50.87-50.92A14.39,14.39,0,0,0,262.34,79L279.7,96.2c-.47.49-1,1.1-1.61,1.69Q252.56,123.44,227,149c-4.63,4.63-9.88,6.93-15.13,6.93ZM192,183.37l-13.57-13.53L192.32,156a28.64,28.64,0,0,0,19.15,7.95c-6.7,6.69-13.17,13.15-19.46,19.45Z"/><path d="M262.65,84.91l9.63,9.55,1.79,1.78-11,11q-19.43,19.44-38.86,38.86c-3.77,3.77-8,5.76-12.3,5.76s-8.59-2-12.41-5.8c-.68-.69-1.37-1.37-2.06-2.06a33.77,33.77,0,0,0,15.4-9.24c9.9-9.94,20-20,29.75-29.79l20.08-20.09m-.31-6a14.39,14.39,0,0,1-1.49,2.09Q235.43,106.52,210,132a29.24,29.24,0,0,1-15.75,8.67c-1.54.28-3.11.38-5.24.63l7.67,7.65c4.67,4.65,10,7,15.23,7s10.5-2.31,15.13-6.93q25.54-25.52,51.07-51.07c.58-.59,1.14-1.2,1.61-1.69L262.34,79Z"/><path d="M192.54,161.41a31.29,31.29,0,0,0,10.55,5.22L193.75,176,192,177.72l-7.9-7.88,8.44-8.43m-.22-5.44-13.88,13.87L192,183.37c6.29-6.3,12.76-12.76,19.46-19.45A28.64,28.64,0,0,1,192.32,156Z"/></svg>