<?xml version="1.0" encoding="utf-8"?>
<!-- Generator: Adobe Illustrator 22.1.0, SVG Export Plug-In . SVG Version: 6.00 Build 0)  -->
<svg version="1.1" id="Calque_1" xmlns="http://www.w3.org/2000/svg" xmlns:xlink="http://www.w3.org/1999/xlink" x="0px" y="0px"
	 viewBox="0 0 350 300" style="enable-background:new 0 0 350 300;" xml:space="preserve">
<style type="text/css">
	.st0{fill:#070707;}
</style>
<title>selected</title>
<g>
	<path class="st0" d="M167,238.5l0.2-69.4l12,0l-0.2,69.4c0,3.5,2.9,6.3,6.5,6.3l38.4,0.1c3.6,0,6.5-2.8,6.5-6.3l0.2-69.4l24.8,0.1
		c3.6,0,6.5-2.9,6.5-6.3l0.1-54.5c0-1.7-1.4-3.1-3.1-3.1c-1.7,0-3.1,1.4-3.1,3.1l-0.1,47.5l-25.1-40.5c-0.5-3-3.2-5.3-6.4-5.3
		l-7.4,0l0.2-68.9c0,0,0.1-0.1,0.3-0.1l38.4,0.1c0.2,0,0.3,0.1,0.3,0.1c-0.1,22.2-0.3,44.3-0.4,66.5c1,14.7,2,22,3,22c1,0,2-7,3-21
		c0.2-22.5,0.4-45,0.5-67.5c0-3.5-2.9-6.3-6.5-6.3l-38.4-0.1c-3.6,0-6.5,2.8-6.5,6.3l-0.2,68.9l-12,0l0.2-68.9
		c0-3.5-2.9-6.3-6.5-6.3L153.9,35c-3.6,0-6.5,2.8-6.5,6.3l-0.2,68.9l-12,0l0.2-68.9c0-3.5-2.9-6.3-6.5-6.3l-38.4-0.1
		c-3.6,0-6.5,2.8-6.5,6.3L84,110l-24.8-0.1c-3.6,0-6.5,2.8-6.5,6.3l-0.3,122.1c0,3.5,2.9,6.3,6.5,6.3l38.4,0.1
		c3.6,0,6.5-2.8,6.5-6.3l0.2-69.4l12,0l-0.2,69.4c0,3.5,2.9,6.3,6.5,6.3l11,0c1.7,0,3.1-1.4,3.1-3.1c0-1.7-1.4-3.1-3.1-3.1l-11,0
		c-0.2,0-0.3-0.1-0.3-0.1c0-1.7,0.3-119.2,0.3-122.1c0,0,0,0,0,0c0,0,0,0,0,0c0,0,0,0,0,0c0,0,0,0,0,0c0,0,0,0,0.1,0c0,0,0,0,0,0
		c0,0,0.1,0,0.1,0c4.3,0,34,0.1,38.4,0.1c0.2,0,0.3,0.1,0.3,0.1c0,2-0.3,120.1-0.3,122.1c0,0-0.1,0.1-0.3,0.1l-13,0
		c-1.7,0-3.1,1.4-3.1,3.1c0,1.7,1.4,3.1,3.1,3.1l13,0C164.1,244.8,167,242,167,238.5z M167.2,163l0.1-35.8l12,19.3l0,16.5L167.2,163
		z M223.9,238.8l-38.4-0.1c-0.2,0-0.3-0.1-0.3-0.1c0-1.7,0.3-119.2,0.3-122.1c0,0,0,0,0,0c0,0,0,0,0,0c0,0,0,0,0,0c0,0,0,0,0,0
		c0,0,0,0,0.1,0c0,0,0,0,0,0c0,0,0.1,0,0.1,0c4.3,0,34,0.1,38.4,0.1c0.2,0,0.3,0.1,0.3,0.1l-0.3,122.1
		C224.2,238.7,224.1,238.8,223.9,238.8z M252.9,163.2l-22.3-0.1l0.1-35.8L252.9,163.2z M153.6,41.2c0,0,0.1-0.1,0.3-0.1l38.4,0.1
		c0.2,0,0.3,0.1,0.3,0.1l-0.2,68.9l-6.6,0c-3.6,0-6.5,2.8-6.5,6.3l0,18.4l-12.1-19.5c-0.5-3-3.2-5.3-6.4-5.3l-7.4,0L153.6,41.2z
		 M97.2,238.5l-38.4-0.1c-0.2,0-0.3-0.1-0.3-0.1l0.3-122.1c0,0,0.1-0.1,0.3-0.1c4,0,33.9,0.1,38.4,0.1c0.2,0,0.3,0.1,0.3,0.1
		l-0.3,122.1C97.5,238.4,97.4,238.5,97.2,238.5z M103.8,162.8l0.1-35.8l12,19.3l0,16.5L103.8,162.8z M116,116.3l0,18.4l-12.1-19.5
		c-0.5-3-3.2-5.3-6.4-5.3l-7.4,0l0.2-68.9c0,0,0.1-0.1,0.3-0.1l38.4,0.1c0.2,0,0.3,0.1,0.3,0.1l-0.2,68.9l-6.6,0
		C118.9,110.1,116,112.9,116,116.3z"/>
	<rect x="121.6" y="237.4" class="st0" width="40" height="7.3"/>
</g>
<g>
	<g>
		<path class="st0" d="M289.3,166.1c-0.5-0.2-1-0.1-1.5,0.2l-61.1,42.2c-0.4,0.3-0.7,0.8-0.7,1.3c0,0.5,0.2,1,0.6,1.4l27.9,25.4
			c-1.1,1.8-1.1,4.2,0.2,6l2.7,3.9c1.7,2.5,5.1,3.1,7.6,1.4l17.6-12.2l9.4,18.7c1.2,2.5,3.5,4.3,6.2,5c2.7,0.7,5.5,0.2,7.8-1.4
			s3.8-4,4.1-6.8c0.3-2.7-0.6-5.5-2.5-7.5l-14.2-15.4L311,216c2.5-1.7,3.1-5.1,1.4-7.6l-2.7-3.9c-1.3-1.8-3.5-2.7-5.6-2.3
			l-13.8-35.1C290.2,166.6,289.8,166.2,289.3,166.1z M309.6,210.3c0.6,0.9,0.4,2.2-0.5,2.9l-19.3,13.3c-0.4,0.3-0.7,0.7-0.7,1.2
			c-0.1,0.5,0.1,1,0.4,1.3l15.5,16.9c1.2,1.3,1.8,3.1,1.6,4.8c-0.2,1.8-1.1,3.4-2.6,4.4c-1.5,1-3.3,1.3-5,0.9
			c-1.7-0.4-3.2-1.6-4-3.2l-10.3-20.5c-0.2-0.4-0.6-0.8-1.1-0.9c-0.5-0.1-1,0-1.4,0.2L263,245c-0.9,0.6-2.2,0.4-2.9-0.5l-2.7-3.9
			c-0.6-0.9-0.4-2.2,0.5-2.9l46.1-31.8c0.9-0.6,2.2-0.4,2.9,0.5L309.6,210.3L309.6,210.3z M301.1,203.8L257,234.2L234.7,214
			c-0.9-0.8-1.7-1.6-2.6-2.4l-1.7-1.6l57.6-39.7L301.1,203.8z"/>
	</g>
</g>
</svg>
