<svg id="Calque_1" data-name="Calque 1" xmlns="http://www.w3.org/2000/svg" viewBox="0 0 350 300"><title>selected</title><path d="M166.39,52a90.9,90.9,0,0,1,36.4,7.36,96.56,96.56,0,0,1,29.76,20A94.43,94.43,0,0,1,252.64,109a93.72,93.72,0,0,1,0,72.81,94.46,94.46,0,0,1-49.85,49.85,93.44,93.44,0,0,1-72.7,0,94,94,0,0,1-29.72-20.09,96.56,96.56,0,0,1-20-29.76,93.72,93.72,0,0,1,0-72.81,93.42,93.42,0,0,1,49.73-49.62A91.16,91.16,0,0,1,166.39,52M132.74,191.29h67.52a12,12,0,0,0,12-12V111.52a11.51,11.51,0,0,0-3.52-8.29,11.77,11.77,0,0,0-8.51-3.51H132.74a11.77,11.77,0,0,0-8.51,3.51,11.51,11.51,0,0,0-3.52,8.29v67.74a12,12,0,0,0,12,12m56.16-68.2h0v44.58H144.09V123.1H188.9M166.39,48a94.62,94.62,0,0,0-37.89,7.69,97.56,97.56,0,0,0-51.81,51.7,97.73,97.73,0,0,0,0,76,100.16,100.16,0,0,0,20.84,31,97.39,97.39,0,0,0,31,20.95,97.46,97.46,0,0,0,75.89,0,98.66,98.66,0,0,0,51.92-51.92,97.73,97.73,0,0,0,0-76,97.69,97.69,0,0,0-20.95-30.86,100.16,100.16,0,0,0-31-20.84,94.38,94.38,0,0,0-38-7.69ZM132.74,187.29a8,8,0,0,1-8-8V111.52a7.48,7.48,0,0,1,2.34-5.46,7.75,7.75,0,0,1,5.69-2.34h67.52a7.75,7.75,0,0,1,5.69,2.34,7.48,7.48,0,0,1,2.34,5.46v67.74a8,8,0,0,1-8,8Zm56.16-68.2H144.1a3.84,3.84,0,0,0-4,4v44.58a3.84,3.84,0,0,0,4,4h44.8a3.84,3.84,0,0,0,4-4V123.1a3.84,3.84,0,0,0-4-4Z"/></svg>