<svg id="Calque_1" data-name="Calque 1" xmlns="http://www.w3.org/2000/svg" viewBox="0 0 350 300"><title>selected</title><path d="M260.88,43.4c-1.37,0-13.42,9.88-27.51,22.59-14.54,13.11-25.74,24.25-25,24.9a.17.17,0,0,0,.1,0c1.37,0,13.42-9.89,27.52-22.59,14.53-13.11,25.73-24.26,25-24.9a.15.15,0,0,0-.1,0Z"/><path d="M270.64,41.2c-1.37,0-13.42,9.88-27.51,22.59-14.54,13.11-25.74,24.25-25,24.9a.12.12,0,0,0,.09,0c1.37,0,13.42-9.89,27.52-22.59,14.53-13.11,25.73-24.26,25-24.9a.13.13,0,0,0-.1,0Z"/><path d="M281.62,39c-1.37,0-13.42,9.88-27.51,22.59-14.53,13.11-25.74,24.25-25,24.9a.13.13,0,0,0,.1,0c1.37,0,13.42-9.89,27.51-22.59,14.53-13.11,25.74-24.26,25-24.9a.13.13,0,0,0-.1,0Z"/><path d="M290.17,39c-1.37,0-13.42,9.88-27.52,22.59-14.53,13.11-25.73,24.25-25,24.9a.13.13,0,0,0,.1,0c1.37,0,13.42-9.89,27.51-22.59,14.54-13.11,25.74-24.26,25-24.9a.12.12,0,0,0-.09,0Z"/><path d="M295.05,41.2c-1.37,0-13.42,9.88-27.52,22.59C253,76.9,241.8,88,242.51,88.69a.13.13,0,0,0,.1,0c1.37,0,13.42-9.89,27.51-22.59,14.54-13.11,25.74-24.26,25-24.9a.12.12,0,0,0-.09,0Z"/><path d="M301.15,43.4c-1.37,0-13.42,9.88-27.52,22.59-14.53,13.11-25.73,24.25-25,24.9a.15.15,0,0,0,.1,0c1.37,0,13.42-9.89,27.51-22.59,14.54-13.11,25.74-24.26,25-24.9a.17.17,0,0,0-.1,0Z"/><path d="M302.18,48C300.83,48,289,58,275.1,71c-14.29,13.32-25.27,24.64-24.55,25.28a.22.22,0,0,0,.1,0c1.34,0,13.22-10.07,27.08-23C292,59.93,303,48.61,302.28,48a.17.17,0,0,0-.1,0Z"/><path d="M299.91,56.79c-1.35,0-13.22,10.08-27.09,23-14.28,13.33-25.27,24.65-24.54,25.28a.12.12,0,0,0,.09,0c1.35,0,13.22-10.07,27.09-23C289.74,68.77,300.73,57.45,300,56.82a.12.12,0,0,0-.09,0Z"/><path d="M297.66,66.73c-1.35,0-13.22,10.07-27.09,23C256.29,103.07,245.3,114.39,246,115a.12.12,0,0,0,.09,0c1.35,0,13.22-10.08,27.09-23,14.28-13.33,25.27-24.65,24.54-25.28a.12.12,0,0,0-.09,0Z"/><path d="M297.8,74.43c-1.34,0-13.22,10.08-27.08,23-14.28,13.33-25.27,24.65-24.55,25.28a.17.17,0,0,0,.1,0c1.34,0,13.22-10.07,27.08-23,14.29-13.33,25.27-24.65,24.55-25.28a.15.15,0,0,0-.1,0Z"/><path d="M300.33,78.79c-1.35,0-13.22,10.08-27.09,23C259,115.13,248,126.45,248.7,127.09l.09,0c1.35,0,13.22-10.07,27.09-23,14.28-13.33,25.27-24.65,24.54-25.28a.12.12,0,0,0-.09,0Z"/><path d="M302.87,84.26c-1.34,0-13.22,10.07-27.08,23-14.28,13.33-25.27,24.65-24.55,25.28a.15.15,0,0,0,.1,0c1.34,0,13.22-10.08,27.08-23C292.7,96.23,303.69,84.92,303,84.28l-.1,0Z"/><path d="M223.9,68.11l52.75,45.75L140.24,271.14,87.48,225.38,223.9,68.11m-.4-5.65L81.84,225.78l58.8,51L282.3,113.46l-58.8-51Z"/></svg>