<svg id="Calque_1" data-name="Calque 1" xmlns="http://www.w3.org/2000/svg" viewBox="0 0 350 300"><defs><style>.cls-1{fill:none;stroke:#000;stroke-miterlimit:10;stroke-width:5px;}</style></defs><title>selected</title><path class="cls-1" d="M284.93,115.51l-5.19-17.46H234.23l6,20.27H214.83V92h12.51a6.88,6.88,0,0,1,6.56,4.89l.33,1.12h45.51l-4.52-15.23a43.69,43.69,0,0,0-41.89-31.25H216.84V48.46A18.48,18.48,0,0,0,198.38,30H172.32a18.48,18.48,0,0,0-18.46,18.46v3.11H137.38A43.67,43.67,0,0,0,95.49,82.82L91,98.05h45.51l.34-1.12A6.87,6.87,0,0,1,143.36,92h13.28v26.28H130.45q3-10.14,6-20.27H91q-2.59,8.73-5.18,17.46a115.51,115.51,0,0,0-1.4,60.63L92,206.8A43.62,43.62,0,0,0,134.39,240H236.32a43.6,43.6,0,0,0,42.41-33.2l7.59-30.66a115.61,115.61,0,0,0-1.39-60.63m-128.29,84H140.87a6.83,6.83,0,0,1-6.64-5.2L129,173.26h27.63Zm0-38.58H126.92a6.42,6.42,0,0,0-.89.07,65.63,65.63,0,0,1,.8-30.4h29.81Zm45.89,38.58H168.94V173.26h33.59Zm0-38.58H168.94V130.63h33.59Zm0-42.63H168.94V92h33.59Zm2-66.75H166.17V48.46a6.15,6.15,0,0,1,6.15-6.15h26.06a6.15,6.15,0,0,1,6.15,6.15Zm31.94,142.76a6.83,6.83,0,0,1-6.64,5.2h-15V173.26h26.86ZM244.69,161H214.83V130.63h29a65.88,65.88,0,0,1,1.74,9q.15,6.15.32,12.31a67.06,67.06,0,0,1-1.24,9"/><path d="M240.56,103.91V105h-2.07v-1.07h2.07m5-5H233.49V110h12.07V98.91Z"/><path d="M240.79,185.65v1.07h-2.07v-1.07h2.07m5-5H233.72v11.07h12.07V180.65Z"/><path class="cls-1" d="M120,147a5.27,5.27,0,1,1-5.27-5.27A5.27,5.27,0,0,1,120,147"/></svg>