<svg id="Calque_1" data-name="Calque 1" xmlns="http://www.w3.org/2000/svg" viewBox="0 0 350 300"><title>selected</title><path d="M280.63,42c5,1.4,7.92,3.34,9.31,6.27a15.29,15.29,0,0,1,1.66,6.28c.1,64.05.09,129.17.09,192.15V271h-.55V55.53c0-8-4.27-12.77-12.1-13.53h1.6M89.35,42a18.62,18.62,0,0,0-2.48.4L88,42h1.38m-7.79,2.9c-2.77,2.28-4.23,5.81-4.23,10.46V271h-.57V57.55c0-6.83.91-10.12,4.8-12.65M281.16,38H87.29c-11.56,4-14.53,8-14.53,19.55V275H295.6c0-.49.08-.8.08-1.1q0-109.68-.08-219.36a19.24,19.24,0,0,0-2.05-8c-2.32-4.88-7.08-7.15-12.39-8.55ZM81.33,267.17v-2.42q0-104.7,0-209.39c0-6.44,3.31-9.47,10.33-9.47H276.72c7.16,0,10.41,3,10.41,9.64v211.6h-8.51l-197.29,0Z"/><path d="M115.79,59.1c10.17,0,19.86,8.35,21.16,18.23a35.85,35.85,0,0,1,.34,4.48v6.46c0,5.43,0,10.93,0,16.46l-.72-.07V95l-5.53,2.31-13.36,5.56-3.76-.37a23.47,23.47,0,0,1-12.83-5.57l-6.51-5.23V121.4l6.54-5.36A24.33,24.33,0,0,1,114,110.42l.45,0,4,.31c3.43.27,7.46,2.13,11.65,5.37l6.44,5V107.77l.72-.08c0,7.82,0,15.69,0,23.48-.06,12.83-9.33,22.57-21.56,22.66h-.15c-12,0-21.51-9.72-21.68-22.11-.08-5.72-.06-11.54,0-17.18q0-3.92,0-7.84c0-2.59,0-5.19,0-7.79,0-5.74,0-11.67,0-17.48C94,69.71,101.57,61,113.15,59.29a17.74,17.74,0,0,1,2.64-.19h0m-.22,42.75h.08a21.1,21.1,0,0,0,.06-42.19h-.21a21.1,21.1,0,0,0,.07,42.19m.16,51.42c11.15,0,20.54-9.29,20.93-20.71a21,21,0,0,0-20.32-21.43h-.84a21.24,21.24,0,0,0-21,20.79c-.23,11.32,9.3,21.1,20.8,21.35h.45m.06-98.17a20.57,20.57,0,0,0-3.23.24c-13.44,2-22.53,12.4-22.67,26.05-.08,8.44,0,16.88,0,25.31s-.09,16.72,0,25.07c.2,14.63,11.54,26.06,25.68,26.06h.18c14.3-.1,25.46-11.67,25.53-26.64.07-16.46,0-32.92,0-49.38a39.92,39.92,0,0,0-.38-5c-1.58-12.07-13.14-21.71-25.12-21.71Zm-.22,42.75a17.1,17.1,0,0,1-.07-34.19h.17a17.1,17.1,0,0,1,0,34.19Zm-17,15.1V100a27.68,27.68,0,0,0,15,6.43,28.18,28.18,0,0,0-15,6.51Zm34-.06c-4.56-3.53-9.33-5.84-13.78-6.19L132.6,101v11.93Zm-16.87,36.38h-.36c-9.36-.2-17.08-8.09-16.89-17.27a17.12,17.12,0,0,1,17-16.87h.68c9.35.37,16.8,8.18,16.48,17.29a17.25,17.25,0,0,1-16.93,16.85Z"/><path d="M115.25,81l.62.52c.35.31.75.64,1.18,1l.15.16a5.49,5.49,0,0,0,3.71,2c1,.07,2.1.1,3.48.1h2l1.72,0a13.15,13.15,0,0,1-12.44,9.1h-.05a13.16,13.16,0,0,1-12.44-9.1h3.67c1.46,0,2.59,0,3.66-.09,2.8-.17,4.31-2.75,4.71-3.54l.08-.15m.25-17.33a17.1,17.1,0,0,0,.07,34.19h.07a17.1,17.1,0,0,0,0-34.19Zm-8.7,17.11-3.74,0c-.46-6.48,5.06-12.36,11.67-12.69l.74,0c7.07,0,12.56,5.22,12.84,12.71-1.35,0-2.64,0-3.92,0-1.08,0-2.15,0-3.21-.09-.57,0-1.07-.92-1.65-1.35-1.26-.94-2.44-2.29-3.86-2.63a2.94,2.94,0,0,0-.71-.09c-1.5,0-2.61,1.22-3.36,2.72-.28.56-.88,1.32-1.37,1.34-1.14.07-2.29.09-3.43.09Z"/><path d="M115.68,131.94h0a4.06,4.06,0,0,1,.53,1.23l.84,2.88H128a13.14,13.14,0,0,1-12.27,9.22h-.27a13.46,13.46,0,0,1-12.39-9.22h11.58l.56-3.35a2,2,0,0,1,.23-.74l.15,0h.09m-.18-16.82a17.12,17.12,0,0,0-17,16.87c-.19,9.18,7.53,17.07,16.89,17.27h.36a17.25,17.25,0,0,0,16.93-16.85c.32-9.11-7.13-16.92-16.48-17.29ZM103,132.05c-.42-6.67,5.47-12.64,12.44-12.75h.19c6.91,0,12.83,5.92,12.55,12.75h-8.13c-.64-2.18-1.82-4.11-4.39-4.11h-.32c-2.38.14-3.71,1.73-4.1,4.1Z"/></svg>