<svg id="Calque_1" data-name="Calque 1" xmlns="http://www.w3.org/2000/svg" viewBox="0 0 350 300"><title>selected</title><path d="M141.76,121.29h42c.89,0,1.68,0,2.44.07a25.24,25.24,0,0,1,23.91,23.55c.25,3.68.22,7.35.2,11.23,0,1.78,0,3.62,0,5.45,0,.46,0,.93.06,1.49,0,.24,0,.51,0,.81l.4,8.73,6.35-6,.64-.6c.41-.39.74-.7,1.07-1l24.91-24.85,3.51-3.5,3.09-3.09q3.95-3.92,7.87-7.86c1-1.06,1.71-1.06,2-1.06l.39,0c1,.16,2.32.36,2.32,3.51v79.14c0,10.1,0,20.55-.06,30.81a5.31,5.31,0,0,1-.67,2.73,1.87,1.87,0,0,1-1.58.9,3.81,3.81,0,0,1-2.51-1.25l-25.65-25.63-13.69-13.69c-.35-.36-.7-.67-1.11-1l-.66-.61-6.72-6.21v11.27c0,1.51,0,3,0,4.54,0,3.22,0,6.55,0,9.81-.18,14.52-10.53,25.65-24.09,25.9-11.51.21-23.66.31-36.1.31s-25.5-.1-39.54-.31c-9.49-.14-16.74-5.08-21.55-14.68a26.83,26.83,0,0,1-1.76-5.43c-.21-.83-.43-1.67-.67-2.53V144.1c.21-.79.4-1.58.59-2.35a25.27,25.27,0,0,1,1.55-5c5-10.38,13-15.43,24.3-15.45q14.34,0,28.7,0m0-4q-14.35,0-28.71,0c-13,0-22.28,6.12-27.89,17.71-1.28,2.63-1.72,5.68-2.54,8.53v79.23c.92,3.07,1.44,6.35,2.86,9.18,5.14,10.26,13.44,16.7,25.06,16.88q19.8.3,39.6.31,18.09,0,36.18-.31c16-.29,27.81-13.48,28-29.85.06-4.8,0-9.6,0-14.4v-2.12c.75.68,1.22,1.09,1.66,1.54q19.68,19.65,39.34,39.32a7.69,7.69,0,0,0,5.34,2.42,5.85,5.85,0,0,0,4.83-2.57,9.27,9.27,0,0,0,1.42-5c.11-13.44.06-26.88.06-40.32V128.17c0-4.34-1.95-6.89-5.71-7.46a7.07,7.07,0,0,0-1-.08,6.7,6.7,0,0,0-4.83,2.24c-3.63,3.66-7.3,7.29-10.95,10.94l-28.42,28.35c-.45.45-.93.89-1.64,1.56,0-.91-.09-1.54-.09-2.16-.06-5.64.17-11.3-.21-16.92a29.3,29.3,0,0,0-27.64-27.26c-.9,0-1.8-.08-2.7-.08Z"/></svg>