<svg id="Calque_1" data-name="Calque 1" xmlns="http://www.w3.org/2000/svg" viewBox="0 0 350 300"><title>selected</title><path d="M173.09,42a6.58,6.58,0,0,1,4.24,6.29V73.74a7.08,7.08,0,0,1-1.77,4.7l-1.1,1.2.06,1.63c.51,14.34,4.18,49.33,27.21,64.53a4.18,4.18,0,0,1,.41.27l.1.08.1.08c19.43,14.56,31,38.38,31,63.71A80.33,80.33,0,0,1,209,268H112.79a80.32,80.32,0,0,1-24.41-58.06c0-24.16,10.27-46.54,28.17-61.42l.22-.18.19-.21c.15-.17.35-.36.63-.64l.36-.35c20-19.63,30.83-42.25,31.4-65.42L149.4,80l-1.28-1.23a6.87,6.87,0,0,1-2.09-5V48.29a6.58,6.58,0,0,1,4.08-6.24l.13,0h22.85m1-4H148.71v.3a10.58,10.58,0,0,0-6.68,10V73.74a10.92,10.92,0,0,0,3.33,7.88c-.56,22.12-11,43.75-30.21,62.66-.55.55-.9.89-1.15,1.17-18.83,15.64-29.62,39.12-29.62,64.49,0,23.3,9.42,45.58,25.83,61.13l1,.93h99.36l1-.93c16.42-15.55,25.84-37.83,25.84-61.13,0-26.59-12.2-51.59-32.64-66.91a7.45,7.45,0,0,0-.83-.6c-7.2-4.74-23.92-20.16-25.38-61.3a11,11,0,0,0,2.81-7.39V48.29a10.52,10.52,0,0,0-7.23-10.17V38Z"/></svg>