<svg id="Calque_1" data-name="Calque 1" xmlns="http://www.w3.org/2000/svg" viewBox="0 0 350 300"><title>selected</title><g id="QyYfFt"><path d="M228.24,34.84c.22.75.46,1.45.72,2.11-5.72,1.92-11.51,3.92-17.11,5.85-6,2.07-12.16,4.2-18.24,6.24a2.42,2.42,0,0,1-.5,0,4.83,4.83,0,0,1-1.05-.12,8.2,8.2,0,0,0,.74-1.78c5.54-1.94,11.17-3.9,16.63-5.79,6.16-2.13,12.53-4.34,18.81-6.55M179.67,76.11v.44h10.86c0,.2,0,.4,0,.6a22.94,22.94,0,0,0,.15,4.23c.27,1.79,1.56,5.1,4.64,6.19s4.71,2.71,4.38,7.83c-.05.94,0,1.84,0,2.71,0,.37,0,.76,0,1.17v4.12l4.05.79c3.94.76,5.69,2.31,5.62,9.41-.13,12.65-.06,25.48,0,37.9,0,7.44.08,15.14.08,22.7,0,13.42-.06,27.07-.12,40.28q0,9-.08,18v7.61l3.61,1c.24.07.47.12.69.17l-27.12,0-37.16,0c.45-.14,1-.31,1.47-.52l3.1-1.27v-5.48c0-1.59,0-3.2,0-4.82q0-10.14-.07-20.27c-.06-14.79-.11-30.09-.12-45.13,0-10.3.05-20.78.1-30.92,0-6.5.07-13,.08-19.52,0-2.77.11-5.49.8-6.53s3.09-2.15,5.59-3.19l3.07-1.29V88.8h.05a12.35,12.35,0,0,0,5.6-1.6c1.78-1.13,3.89-3.41,3.84-7.86,0-.77,0-1.83,0-2.7.83,0,1.88-.08,2.87-.11a20.39,20.39,0,0,0,2.26-.21l1.08-.13.69-.07m49.8-46.67a6.8,6.8,0,0,0-2.21.44c-12.15,4.29-24.35,8.45-36.51,12.72-1,.34-2.51,1.17-2.54,1.82-.15,3.62-3,4-5.28,4.6-3.46.94-4.71,2.9-4.55,6.49.23,5.18.06,10.39.06,15.7-1.27.14-2.1.29-2.93.32-7.64.2-7.83.2-7.74,7.86,0,3.88-2.44,4.17-5,4.43a24.81,24.81,0,0,1-2.59.11c-1,0-2.1,0-3.16,0-.78,0-1.56,0-2.33.08A3.75,3.75,0,0,0,152,85.65c-1.51,3.93.12,6.22,4.25,6.51a14,14,0,0,1,2.07.49v6.44c-8.32,3.48-9.43,5.22-9.46,14.32,0,16.82-.18,33.63-.18,50.45,0,21.81.12,43.61.19,65.42,0,2.34,0,4.68,0,6.93-1.57.64-3.39.82-4.12,1.82a7.19,7.19,0,0,0-1.44,5c.57,2.92,3.16,3.36,5.78,3.36h0q32.37,0,64.75,0h0c.44,0,.94.05,1.41.05a2.34,2.34,0,0,0,1.45-.35c1.32-1.06,3.16-2.51,3.22-3.87.07-1.58-1.35-3.4-2.5-4.8-.57-.69-2-.66-3.18-1,0-1.36,0-2.59,0-3.82.07-19.44.21-38.88.2-58.31,0-20.18-.31-40.37-.1-60.55.07-7.37-1.65-12.81-9.67-14.37,0-1.34,0-2.45,0-3.56.39-6.13-1.6-10.72-7.71-12.87a3.11,3.11,0,0,1-1.35-2.22,27.85,27.85,0,0,1-.08-4.48c0-3-1.28-4.61-4.27-4.61h-.17c-.78,0-1.56,0-2.36,0h-4.07c0-4.81,0-9,0-13.26a4.4,4.4,0,0,1,4.5-4.72,6.29,6.29,0,0,1,1.52.2,9.67,9.67,0,0,0,2.42.31,6.71,6.71,0,0,0,2.08-.3c11.87-4,23.67-8.16,35.54-12.15,3.24-1.09,4.42-2.84,3-6.14a21.24,21.24,0,0,1-1-2.82c-.6-2.22-1.68-3.23-3.35-3.23Z"/><path d="M260.62,27.88,258.35,31c-2.88.09-5.75.15-8.58.21l-3.78.08A22.3,22.3,0,0,1,251.9,29a68.79,68.79,0,0,1,8.72-1.08m10.63-5.45H271c-6.7.24-13.5.34-20,1.62-4.4.87-8.53,3.48-12.56,5.71-.91.5-1.57,2.87-1.2,4s2.11,1.93,3.4,2.57a1.84,1.84,0,0,0,.86.17c.54,0,1.14-.12,1.68-.14,7.89-.21,15.8-.24,23.68-.75,3.51-.23,7-1.42,11.06-2.3l-12-4.12.5-.69L278,25.32l-.09-1.47c-2.22-.49-4.46-1.42-6.66-1.42Z"/><path d="M143.75,75.92a7,7,0,0,0,0,14h.06a7,7,0,0,0,.06-14Z"/><path d="M170.74,119.73h.5c5.2.06,8.29,1,9.41,1.68,0,7.19-.11,14.5-.23,21.58-.07,4-.13,8.13-.18,12.2s0,8.33,0,12.39c0,1.85,0,3.71,0,5.56v5h.49V183q0,19.73,0,39.44c0,.41,0,.82,0,1.22,0,.17,0,.37,0,.54-.67.44-3.06,1.62-9.39,1.69h-.62c-6,0-8.93-1.08-9.89-1.72v-.24q-.1-8.56-.23-17.13c-.19-14.21-.39-28.9-.42-43.34,0-9.48.18-19.14.37-28.5q.14-6.39.25-12.78v-.53c.77-.58,3.62-1.88,9.9-1.88m0-5c-8.6,0-14.29,2.22-14.86,5.83a10.74,10.74,0,0,0,0,1.5c-.22,13.79-.65,27.58-.62,41.38,0,20.17.41,40.34.65,60.51a4.41,4.41,0,0,0,.24,2.24c1.53,2.88,6.49,4.66,14.65,4.66h.68c8-.09,12.9-1.89,14-4.71a9.6,9.6,0,0,0,.24-3.73q0-24.63,0-49.26h-.49c0-6,0-11.93,0-17.9.13-11.57.44-23.14.4-34.72,0-3.47-6-5.7-14.35-5.79Z"/></g></svg>