<svg id="Calque_1" data-name="Calque 1" xmlns="http://www.w3.org/2000/svg" viewBox="0 0 350 300"><defs><style>.cls-1{fill:none;stroke:#000;stroke-miterlimit:10;stroke-width:4px;}</style></defs><title>selected</title><path class="cls-1" d="M250.83,80.25H163a25.11,25.11,0,0,0-12.79-7.92L117,63.91a4.09,4.09,0,0,0-4.09,6.45l15.81,20.43-57.19,106L71,197.82C59.15,225,75.16,247.75,97.63,247.75a30.5,30.5,0,0,0,27.5-17.32c59.64-38.08,57.19-36.36,57.43-36.77a40.47,40.47,0,0,0,13.2-19.45c28.6,0,44.94,5.89,55.31,34a4.09,4.09,0,0,0,7.93-1.31V88.42a8.17,8.17,0,0,0-8.17-8.17m0,109.28c-13.24-20-32.11-23.08-53.35-23.37a41,41,0,0,0-1.8-16.87c-1.38-4.25-3.24-9.95-8.49-14.68a26.84,26.84,0,0,0-12.27-6.17l-5.25,6.2c2.22.8,13.23,5,18,16.32,5,11.84,1.06,26.61-10.07,36.28C114.59,227.48,119.73,224,119,225s-.7,1-.7,1a22.47,22.47,0,0,1-43.1-8.86,36.09,36.09,0,0,1,3.68-16.59L134.11,97.9l7.28,9.35a4.08,4.08,0,1,0,6.45-5L126.52,74.82c12.79-.75,19,3.19,21.69,5.43,3.13,2.6,8.44,8.68,12.25,13,1.15,1.32,2.09,2.41,2.72,3.15.77,2.36,2.08,4,3.12,3.83,1.23-.15,1.84-2.74,2.15-4a12.39,12.39,0,0,0,.18-4.49,13.71,13.71,0,0,0-.89-3.31h9.55a30.59,30.59,0,0,1,12.26,12.26c3.8,7.37,2.83,14.17,4.38,14.28s4.29-7.06,3.79-14.28a26.74,26.74,0,0,0-4.08-12.26h4.08c4.43,2.19,10.17,6,12.26,12.26,3.82,11.51-7.26,23.53-5.94,24.39s14.77-10,14.11-24.39a24.89,24.89,0,0,0-4.09-12.26h4.09c4.31,2.15,10.07,5.92,12.25,12.26,3.86,11.18-6,22.77-4.66,23.58s13.5-9.8,12.83-23.58a25,25,0,0,0-4.08-12.26h16.34Z"/><path class="cls-1" d="M85.45,181.2a67.74,67.74,0,0,1,22.23,15.16A68.6,68.6,0,0,1,125,228"/><path class="cls-1" d="M136.44,136.09a4.55,4.55,0,1,1-4.55-4.55,4.55,4.55,0,0,1,4.55,4.55"/><path d="M86.41,209.24a.55.55,0,0,1,.55.55.55.55,0,0,1-.55.55.55.55,0,0,1-.55-.55.54.54,0,0,1,.55-.55m0-4A4.55,4.55,0,1,0,91,209.79a4.55,4.55,0,0,0-4.55-4.55Z"/></svg>