<svg id="Calque_1" data-name="Calque 1" xmlns="http://www.w3.org/2000/svg" viewBox="0 0 350 300"><defs><style>.cls-1{fill:#8c8c8c;}</style></defs><title>selected</title><path d="M264.06,23.79l2.33,1.66,2.45,1.74-4.46,9.22-6.13,12.68-.85-.56-9.3-6.29-.82-.55,9.29-9.91,7.49-8m-.67-6.61L242.45,39.53,227.81,54.18h-.25a6.75,6.75,0,0,0-5.61,3l-5.86,8.69a6.73,6.73,0,0,0-.61,6.44l-20.92,31a3.45,3.45,0,0,0,.71,4.6,3.35,3.35,0,0,0,2.12.73,3.46,3.46,0,0,0,2.86-1.49l1.24-1.84A10.59,10.59,0,0,0,214.07,116a11.12,11.12,0,0,0,2.29-.74l-10,14.85a10.75,10.75,0,0,0-.18-2.39,10.58,10.58,0,0,0-10.36-8.57,10.68,10.68,0,0,0-4.34.93l1.11-1.65a3.43,3.43,0,1,0-5.68-3.84L113.16,223.75c-.91,1.17-15.78,19.83-42.8,28.14a8,8,0,0,0-2.11,14.33l11.8,8a3.39,3.39,0,0,0,1.9.58,3.42,3.42,0,0,0,1.94-6.27l-11.8-8a1.17,1.17,0,0,1,.29-2.08,99.69,99.69,0,0,0,33.61-18l20.6,13.92a100,100,0,0,0-4.15,37.91,1.17,1.17,0,0,1-1.18,1.24,1.13,1.13,0,0,1-.65-.2L95.26,276.19a3.36,3.36,0,0,0-1.91-.59,3.43,3.43,0,0,0-1.93,6.27L116.77,299a8.15,8.15,0,0,0,4.53,1.37,7.86,7.86,0,0,0,2.49-.4,8.1,8.1,0,0,0,5-4.67,7.94,7.94,0,0,0,.52-3.61c-2.38-28.2,9.41-49,10.13-50.21l40.89-60.54a3.43,3.43,0,1,0-5.68-3.84l-.87,1.29a10.66,10.66,0,0,0-.18-2.39,10.58,10.58,0,0,0-10.36-8.57,10.84,10.84,0,0,0-4.34.92l10-14.85a10.54,10.54,0,0,0,12.57,10.77,10.19,10.19,0,0,0,2.29-.73l-1.47,2.19a3.46,3.46,0,0,0,.7,4.6,3.45,3.45,0,0,0,5-.76L241.73,90h.15a6.85,6.85,0,0,0,1.28-.12A6.72,6.72,0,0,0,247.48,87l5.87-8.68a6.79,6.79,0,0,0,.56-6.54L262,52.75q6.57-13.59,13.16-27.19l-11.8-8.38ZM248.53,66.94l-14.19-9.59,11-11,9.31,6.28-6.08,14.27ZM241.85,83.1l-20-13.52,5.75-8.51,20,13.52-5.75,8.51ZM207.75,96l12.82-19,14.87,10-12.82,19A10.61,10.61,0,0,0,218,96.86a10.5,10.5,0,0,0-5.89-1.8,10.64,10.64,0,0,0-4.34.92Zm4.3,13.37a3.71,3.71,0,0,1-2.08-.63,3.72,3.72,0,0,1,1.87-6.8h.21a3.72,3.72,0,1,1,0,7.44Zm-16.22,24.1a3.7,3.7,0,0,1-.78-7.34,3.23,3.23,0,0,1,.69-.07,3.72,3.72,0,0,1,2.78,6.22,3.59,3.59,0,0,1-2.69,1.19Zm-10.65-4.06a11.23,11.23,0,0,0,.18,2.38,10.58,10.58,0,0,0,10.38,8.57,10.65,10.65,0,0,0,2-.19,10.35,10.35,0,0,0,2.29-.73l-10,14.85a10.61,10.61,0,0,0-4.64-9.16,10.6,10.6,0,0,0-10.23-.88l10-14.84Zm-5.73,28.21a3.7,3.7,0,0,1-2.07-.63,3.72,3.72,0,0,1,1.87-6.8h.21a3.72,3.72,0,1,1,0,7.44Zm-16.29,24.13H163a3.72,3.72,0,0,1-.55-7.37,3.05,3.05,0,0,1,.67-.07,3.81,3.81,0,0,1,3.56,4.93,3.76,3.76,0,0,1-3.53,2.51Zm-20.6,10.75,10-14.85a10.66,10.66,0,0,0,.18,2.39,10.58,10.58,0,0,0,10.38,8.57,10.65,10.65,0,0,0,2-.19,10.9,10.9,0,0,0,2.29-.73l-10,14.85a10.57,10.57,0,0,0-14.88-10Zm4.29,13.38a3.92,3.92,0,0,1-.76-.08,3.72,3.72,0,0,1-1-6.91,3.7,3.7,0,0,1,1.77-.45,3.72,3.72,0,0,1,3.1,5.8h0a3.79,3.79,0,0,1-3.11,1.64Zm-7.93,24.07-14.87-10,12.25-18.14a10.54,10.54,0,0,0,12.58,10.77,10.19,10.19,0,0,0,2.29-.73l-12.25,18.14Zm-10,17.73-17.61-11.89a69.21,69.21,0,0,0,7.36-8c.54-.72,1-1.5,1.52-2.25l14.87,10.05c-.5.74-1.05,1.48-1.51,2.25a67.37,67.37,0,0,0-4.63,9.79Z"/><path d="M201.56,96.05a3,3,0,0,0-2.5,1.32l-17.55,26a3,3,0,0,0,.81,4.17,3,3,0,0,0,4.17-.81l17.55-26a3,3,0,0,0-2.48-4.68Z"/><path d="M192.39,154.12a3,3,0,0,0-2.5,1.32l-17.55,26a3,3,0,0,0,.81,4.18,3.06,3.06,0,0,0,1.68.51,3,3,0,0,0,2.5-1.32l17.55-26a3,3,0,0,0-.81-4.18h0a3.06,3.06,0,0,0-1.68-.51Z"/><rect class="cls-1" x="110.44" y="290.7" width="28.35" height="6.87" rx="3.44" ry="3.44" transform="translate(118.38 -25.25) rotate(21.84)"/></svg>