<svg id="Calque_1" data-name="Calque 1" xmlns="http://www.w3.org/2000/svg" viewBox="0 0 350 300"><defs><style>.cls-1{fill:none;stroke:#000;stroke-miterlimit:10;stroke-width:4px;}</style></defs><title>selected</title><path d="M73.43,73.82A23.12,23.12,0,0,0,52.14,88,23.39,23.39,0,0,0,51,102.28a24.25,24.25,0,0,0,.85,2.76,65.8,65.8,0,0,1,3.45,19.34c0,.83,0,1.92,0,3.2v4.8c0,13.22-11.3,17.71-18,19.21l-18.66,4.15a9.82,9.82,0,0,0-7.74,9.64v73.75a3.29,3.29,0,0,0,3.29,3.29H132.71a3.29,3.29,0,0,0,3.29-3.29V165.38a9.82,9.82,0,0,0-7.74-9.64s-20.84-4.68-21.87-5a3.17,3.17,0,0,0-1-.16,3.3,3.3,0,0,0-2.36,1,2.76,2.76,0,0,0-.78,1.3c-.26,2.23,9,5.52,16,7.29,3.15.81,8.61,2,8.61,2a3.27,3.27,0,0,1,2.57,3.21v17.77H17.46V165.38A3.27,3.27,0,0,1,20,162.17L38.7,158c9.54-2.12,16.44-6.77,20.13-13.31a24.83,24.83,0,0,0,3.08-12.33V128a1.4,1.4,0,0,1,0-.86v-2.74c0-6.62-2.44-17.85-3.88-21.68a17.93,17.93,0,0,1-.55-1.75,16.36,16.36,0,0,1,4.4-15.8,16.53,16.53,0,0,1,5-3.4,17.45,17.45,0,0,1,6.39-1.34h.38c9.87.3,16.08,12.26,16.2,15.94a24.69,24.69,0,0,1-.45,4.4c-.19.78-.45,1.52-.45,1.52a.93.93,0,0,1-.07.2c-1.85,5.11-4.13,16.91-4.13,16.91s-.07.35-.12.63v7.9c.67.71,1.25.62,3.29,2,2.28,1.51,2.92,2.53,3.45,2.53l.14,0c1-.35.09-3.89,0-8.38a60.22,60.22,0,0,1,3.56-19.28,21.49,21.49,0,0,0,.88-3.07,22.59,22.59,0,0,0,.48-5.51,22.88,22.88,0,0,0-1.08-6.28,23.24,23.24,0,0,0-15.26-15,22.78,22.78,0,0,0-6.34-1Zm-56,162V189.73h112v46.11h-6.58V199.61a3.3,3.3,0,0,0-6.59,0v36.23H83.31V199.61a3.29,3.29,0,1,0-6.58,0v36.23H70.14V199.61a3.29,3.29,0,0,0-6.58,0v36.23H57V199.61a3.29,3.29,0,0,0-6.58,0v36.23H43.8V199.61a3.3,3.3,0,0,0-6.59,0v36.23H30.63V199.61a3.3,3.3,0,0,0-6.59,0v36.23Z"/><path d="M73.44,87a9.88,9.88,0,1,0,9.87,9.87A9.89,9.89,0,0,0,73.44,87Zm0,15.84a6.61,6.61,0,1,1,6.6-6.6,6.61,6.61,0,0,1-6.6,6.6Z"/><path class="cls-1" d="M88,120v5.18c0,15.06,8.28,25.87,22.71,29.66l7.67,2"/><path d="M92.89,196.53a3.3,3.3,0,0,0-3.29,3.29v36.5a3.29,3.29,0,0,0,6.58,0v-36.5a3.3,3.3,0,0,0-3.29-3.29Z"/><path d="M106.71,196.53a3.3,3.3,0,0,0-3.29,3.29v36.5a3.29,3.29,0,0,0,6.58,0v-36.5a3.3,3.3,0,0,0-3.29-3.29Z"/><path d="M300.67,124v12.62H289.91l-.47,3.47-7,52.06L282,195h-6.22c-10.17,0-18.45,8-18.45,17.75a17.06,17.06,0,0,0,2.32,8.6l-2.32-2v14a17.17,17.17,0,0,0,3,9.75H175L161,140.05l-.47-3.47H149.8V124H300.67M344,217.87V220l-1.54,1.32a17,17,0,0,0,1.54-3.49M301.06,120H149.41a3.53,3.53,0,0,0-3.61,3.44v13.75a3.53,3.53,0,0,0,3.61,3.43h7.66l14,103.55a3.57,3.57,0,0,0,3.59,3h85A22.08,22.08,0,0,0,275.79,254h5.65a26.53,26.53,0,0,0,11.42-2.57,19.29,19.29,0,0,1,16.4,0A26.59,26.59,0,0,0,320.68,254h5.66c12,0,21.65-9.24,21.66-20.62V212.76c-.08-1.35-.81-10.95-9-16.76a21.55,21.55,0,0,0-12.4-3.87h-5.92a26.73,26.73,0,0,0-11.42,2.56,19.19,19.19,0,0,1-16.4,0,26.54,26.54,0,0,0-6.49-2.06l7-52.06h7.66a3.52,3.52,0,0,0,3.61-3.43V123.4a3.52,3.52,0,0,0-3.61-3.44Zm0,83.44a26.77,26.77,0,0,0,11.43-2.55,19.08,19.08,0,0,1,8.19-1.84h5.66c8,0,14.44,6.15,14.44,13.75s-6.47,13.74-14.44,13.74h-5.66a19.08,19.08,0,0,1-8.19-1.84,26.89,26.89,0,0,0-22.86,0,19.08,19.08,0,0,1-8.19,1.84h-5.65c-8,0-14.45-6.15-14.45-13.74S267.81,199,275.79,199h5.65a19.08,19.08,0,0,1,8.19,1.84,26.8,26.8,0,0,0,11.43,2.55Zm19.62,30h5.66a22.2,22.2,0,0,0,14.44-5.29v5.29c0,7.59-6.47,13.75-14.44,13.75h-5.66a19.23,19.23,0,0,1-8.19-1.85,26.89,26.89,0,0,0-22.86,0,19.23,19.23,0,0,1-8.19,1.85h-5.65c-8,0-14.45-6.16-14.45-13.75v-5.29a22.21,22.21,0,0,0,14.45,5.29h5.65a26.53,26.53,0,0,0,11.42-2.57,19.29,19.29,0,0,1,16.4,0,26.59,26.59,0,0,0,11.42,2.57Z"/></svg>