<svg id="Calque_1" data-name="Calque 1" xmlns="http://www.w3.org/2000/svg" viewBox="0 0 350 300"><title>selected</title><path d="M200.72,7A27,27,0,0,1,227,28.54l9,44.82v.06l-4.4,70.4a.4.4,0,0,1-.41.38H210l-.16,3.83c-.16,3.63-.45,7.2-.86,10.63l-12.6,104a.41.41,0,0,1-.4.35h-17.6a.4.4,0,0,1-.4-.4v-136h-16.8v136a.4.4,0,0,1-.4.4h-17.6a.41.41,0,0,1-.4-.35l-12.61-104c-.4-3.36-.68-6.84-.85-10.64l-.17-3.82H108a.41.41,0,0,1-.4-.39l-4.4-70.41a.41.41,0,0,1,0-.1l8.95-44.75A27,27,0,0,1,138.41,7H152a.4.4,0,0,1,.25.09,28.88,28.88,0,0,0,17.35,5.74,28.86,28.86,0,0,0,17.36-5.75.41.41,0,0,1,.24-.08h1.37l-2.2,1.49a29.91,29.91,0,0,1-16.77,5.13A29.91,29.91,0,0,1,152.8,8.49l-1-.69h-4l-1,2.42L135.43,36.73l-.63,1.48.56,1.5,9.89,26.36a18.15,18.15,0,0,1-.75,14.37c-1.61,3.21-3.16,6.71-4.75,10.71l-1.44,3.62,3.58,1.53L168,107.49l1.57.67,1.58-.67L197.24,96.3l3.58-1.53-1.44-3.62c-1.6-4-3.15-7.51-4.74-10.7a18.09,18.09,0,0,1-.76-14.38l9.88-26.36.57-1.51-.64-1.48-11.44-26.5L190.86,7h9.86m4.71,30.6-4,10.69-6.78,18.07a17.29,17.29,0,0,0,.72,13.72,138.74,138.74,0,0,1,9.94,26.43l7.87,29.84V73.43l0-.32-4-24.07L208.26,44l1.28,2.86a.56.56,0,0,1,0,.1l4.4,26.4V143.4H230.8l.23-3.75L235.12,74l0-.52-.1-.52L226.21,28.7A26.15,26.15,0,0,0,200.73,7.8h-8.54l2.5,5.62L205.43,37.6M108.35,143.4h16.82V73.35h0l4.4-26.43,0-.07L130.88,44,130,49l-4,24.07-.06.32v62.92l7.87-29.84a139.16,139.16,0,0,1,9.94-26.43,17.29,17.29,0,0,0,.72-13.72l-6.77-18.07-4-10.7,10.74-24.17L147,7.8h-8.54a26.15,26.15,0,0,0-25.49,20.9l-8.84,44.21-.11.52,0,.52,4.1,65.7.24,3.75M169.57,109l-.16,0L142,97.23l-4-1.73-1.35,4.17A138.17,138.17,0,0,0,131,158.58l.64,5.31.11.86.45.74c4.19,6.9,13.61,19.83,22.32,24.51l5.89,3.17v-67a.4.4,0,0,1,.4-.4h17.6a.4.4,0,0,1,.4.4v67l5.89-3.17c8.72-4.69,18.13-17.61,22.32-24.5l.45-.74.11-.86.64-5.31a138.22,138.22,0,0,0-5.69-58.92l-1.35-4.17-4,1.73L169.72,109a.37.37,0,0,1-.15,0M151.51,215.46a26.18,26.18,0,0,0,5.76-.68l3.1-.72V193.18l-2.48-1A40.47,40.47,0,0,1,141,179.05l-9-12,1.8,14.85,3,25.14.11.93.51.78c2,3.08,6.89,6.68,14,6.68m36.39,0c7.92,0,12.08-4.17,13.51-6l.7-.88.14-1.12,3.1-25.58,1.8-14.85-9,12a40.35,40.35,0,0,1-16.93,13.11l-2.48,1V214l3.06.74a25.79,25.79,0,0,0,6.07.76M143.53,262.2h16.84V215.11l-4.66.79a26.69,26.69,0,0,1-4.1.35h-.15a19.92,19.92,0,0,1-7.69-1.54l-6.34-2.64.83,6.81,4.84,39.8.43,3.52m44.31-45.95h-.07a27.07,27.07,0,0,1-4.31-.38l-4.69-.83V262.2h16.85l.42-3.52L200.86,219l.81-6.73-6.28,2.54a20.14,20.14,0,0,1-7.55,1.47M200.73,3H187.17a4.41,4.41,0,0,0-2.64.88,25,25,0,0,1-15,5,25,25,0,0,1-15-4.95A4.41,4.41,0,0,0,152,3H138.41a30.88,30.88,0,0,0-30.2,24.76L99.26,72.52a3.94,3.94,0,0,0-.08,1.14l4.4,70.4A4.4,4.4,0,0,0,108,148.2h17.34c.16,3.65.44,7.3.88,10.94l12.61,104a4.4,4.4,0,0,0,4.37,3.87h17.6a4.4,4.4,0,0,0,4.4-4.4v-132H174v132a4.4,4.4,0,0,0,4.4,4.4H196a4.4,4.4,0,0,0,4.37-3.87l12.6-104q.66-5.46.88-10.94h17.36a4.4,4.4,0,0,0,4.39-4.13l4.4-70.4a4.28,4.28,0,0,0-.08-1.13l-9-44.78A30.88,30.88,0,0,0,200.73,3ZM218,139.4v-66a4.37,4.37,0,0,0-.06-.72l-4.4-26.4a4.4,4.4,0,0,0-.32-1.07L198.34,11.8h2.39a22.07,22.07,0,0,1,21.56,17.69l8.84,44.21L227,139.4ZM169.57,17.62a33.92,33.92,0,0,0,19-5.82L200,38.31l-9.89,26.36a22,22,0,0,0,.93,17.56c1.7,3.41,3.2,6.89,4.6,10.4l-26.09,11.18L143.46,92.63c1.41-3.52,2.91-7,4.61-10.4A22,22,0,0,0,149,64.67l-9.89-26.36L150.47,11.8h.09a33.92,33.92,0,0,0,19,5.82ZM112.1,139.4,108,73.7l8.84-44.21A22.06,22.06,0,0,1,138.41,11.8h2.39L126,45.21a4.4,4.4,0,0,0-.32,1.07l-4.4,26.4a4.37,4.37,0,0,0-.06.72v66Zm97.07-33.91A142.59,142.59,0,0,0,198.94,78.3a13.2,13.2,0,0,1-.55-10.54l6.77-18.06,4,24.07v31.72Zm-79.2,0V73.77l4-24.07,6.78,18.06a13.25,13.25,0,0,1-.56,10.54A143.52,143.52,0,0,0,130,105.49Zm39.6,7.51a4.33,4.33,0,0,0,1.73-.36l27.39-11.74a133.26,133.26,0,0,1,5.52,57.2l-.65,5.32c-5.1,8.41-13.82,19.31-20.79,23.06V126.2a4.4,4.4,0,0,0-4.4-4.4h-17.6a4.4,4.4,0,0,0-4.4,4.4v60.28c-7-3.74-15.68-14.64-20.79-23.07l-.65-5.31a133.26,133.26,0,0,1,5.52-57.2l27.39,11.74a4.33,4.33,0,0,0,1.73.36Zm-18.06,98.46c-7.16,0-10.28-4.23-10.69-4.87l-3-25.14a44.45,44.45,0,0,0,18.6,14.41v15a21.76,21.76,0,0,1-4.86.58Zm36.39,0a21.81,21.81,0,0,1-5.13-.65v-15a44.34,44.34,0,0,0,18.61-14.41L198.28,207c-1,1.26-4.16,4.45-10.38,4.45ZM147.07,258.2l-4.84-39.8a24,24,0,0,0,9.23,1.85h.17a30.13,30.13,0,0,0,4.74-.41V258.2Zm40.77-37.95a24.22,24.22,0,0,0,9-1.76l-4.82,39.71h-9.3V219.81a31,31,0,0,0,5,.44Z"/></svg>