<svg id="Calque_1" data-name="Calque 1" xmlns="http://www.w3.org/2000/svg" viewBox="0 0 350 300"><defs><style>.cls-1{fill:none;stroke:#000;stroke-miterlimit:10;stroke-width:5px;}</style></defs><title>selected</title><path class="cls-1" d="M243.39,163.69a4.63,4.63,0,0,0,3.31-1.41,5,5,0,0,0,0-6.84,4.59,4.59,0,0,0-6.62,0,5,5,0,0,0,0,6.84,4.63,4.63,0,0,0,3.31,1.41"/><path class="cls-1" d="M283.9,193.85,260,169.13a4.58,4.58,0,0,0-6.61,0,4.93,4.93,0,0,0,0,6.83l23.94,24.71a5,5,0,0,1,0,6.83,4.57,4.57,0,0,1-6.62,0l-87.19-90,6.61-6.83L253.34,176c21.37,19.39,27.26,23.12,28.1,22.26s-2.77-6.95-21.49-29.09l-49.13-50.72,6.24-6.43a15.52,15.52,0,0,0,0-21.41,14.36,14.36,0,0,0-20.74,0L190.08,97,159.35,65.28A14.65,14.65,0,0,0,164,54.49,14.29,14.29,0,0,0,150,40H143.1a19.81,19.81,0,0,0-18.35,12.65A20.93,20.93,0,0,0,129.06,75l27.84,28.74,9.36,9.66,18.09,18.68q3.32,3.42,6.62,6.83l25.91,26.75,9.36,9.66,37.81,39a13.74,13.74,0,0,0,19.85,0,14.83,14.83,0,0,0,0-20.48m-81-96.45a5.21,5.21,0,0,1,7.51,0,5.62,5.62,0,0,1,0,7.75l-6.24,6.44-7.5-7.75Zm-30.85,8.34a4.57,4.57,0,0,0-1.06-1.09L135.67,68.16a11,11,0,0,1-2.27-11.81,10.45,10.45,0,0,1,9.7-6.69H150a4.84,4.84,0,0,1,.78,9.59,4.7,4.7,0,0,0-3.69,3.29,4.93,4.93,0,0,0,1.14,4.89l35.28,36.41-6.62,6.83Z"/><polygon points="171.9 116.53 99.95 190.81 106.08 197.13 178.03 122.86 171.9 116.53 171.9 116.53"/><path class="cls-1" d="M158,196.94C158,224,136.76,246,110.51,246S63,224,63,196.94s21.27-49,47.51-49,47.52,22,47.52,49"/><path class="cls-1" d="M110.43,147.6c0,27.38,21.21,49.55,47.42,49.55"/><path class="cls-1" d="M69.37,172.37c0,30.13,35.14,54.51,78.57,54.51"/><path class="cls-1" d="M63,197.15c0-18.39,33.88-33.27,75.74-33.27"/><path class="cls-1" d="M69.37,221.21c0-13.3,39.58-24.06,88.48-24.06"/><path class="cls-1" d="M123.17,243.87c0-53.22-5.7-96.27-12.74-96.27"/><path class="cls-1" d="M86.36,238.91c0-44.21-2.53-80-5.66-80"/></svg>