<svg id="Calque_1" data-name="Calque 1" xmlns="http://www.w3.org/2000/svg" viewBox="0 0 350 300"><title>selected</title><g id="Oolsfv"><path d="M79.42,8.07a2.38,2.38,0,0,1,1,.41,14.62,14.62,0,0,1,3.16,2.59c16,17.15,32.29,34.61,48,51.49l9.16,9.84c-1.32-1.16-2.65-2.29-4-3.4-1.78-1.52-3.63-3.08-5.42-4.67l-3.37-3-3.33,3.06-2,1.79c-1.61,1.47-3.35,3.06-5.08,4.67-1.21,1.11-2,1.41-2.2,1.41s-1-.31-2.18-1.46c-2.8-2.72-5.54-5.69-8.19-8.57-.89-1-1.79-1.95-2.7-2.92C91.28,47.37,80.38,35.65,70,24.47a19.34,19.34,0,0,1-2.15-2.62c-1.17-1.85-1.16-2,.46-3.5l2.8-2.64,1.48-1.4,2.63-2.47.45-.39c1-.9,2.1-1.82,3.13-2.9a1.58,1.58,0,0,1,.63-.48h0M190.56,130.19l.94,1.07a8.51,8.51,0,0,0-.95-.12c0-.3,0-.62,0-.95m15.87,86.24c5.95,2.65,12,5.28,17.83,7.83l6.33,2.77c.5.22,1,.4,1.42.56l.58.22,3.18,1.22-.05.21,3.68,1.63c.89.39,1.8.77,2.7,1.15,1.88.8,3.66,1.55,5.32,2.42,1.26.67,2.52,1.32,3.79,2A148.25,148.25,0,0,1,264.76,244a13.58,13.58,0,0,1,2.21,1.69,16.58,16.58,0,0,1-1.07,3.1c-.23.58-.47,1.15-.72,1.73-.67,1.58-1.36,3.22-1.94,5-3.78-.69-7.56-1.56-11.23-2.47.36-.89.75-1.8,1.14-2.73l1-2.42,1.84-4.49-4.43-2-4.59-2-2.86-1.28-2.06-.92-2.06,1-.85.38-4.38,2,1.85,4.45.09.23-3.41.75h-.12a7.54,7.54,0,0,0-2.66.8,11.06,11.06,0,0,0-1.43.93l-.66-.24a14.74,14.74,0,0,0-2.53-4.9,13.79,13.79,0,0,1-.92-1.4l.55-1.46.24-.21,1.25-1.1,5.89-5.18-7.19-3.15-6.41-2.83c-5-2.21-9.73-4.3-14.57-6.33.65-1.52,1.2-3,1.69-4.48m-2.54,6.39h0M79.42,3.07a5.8,5.8,0,0,0-4.26,2C73.91,6.42,72.48,7.56,71,8.85l-.49-.53a4,4,0,0,1-.28.3A7.5,7.5,0,0,1,68.48,10c.23.24.45.48.67.73-1.58,1.49-2.92,2.76-4.27,4-3.34,3.14-3.74,5.9-1.27,9.82a22.9,22.9,0,0,0,2.72,3.35Q82.52,45.32,98.75,62.71c3.65,3.92,7.22,7.93,11,11.66,2,1.94,3.84,2.88,5.67,2.88s3.64-.93,5.6-2.75c2.45-2.27,4.93-4.53,7-6.44,5.79,5.16,11.7,9.63,16.65,15,13.52,14.67,26.66,29.7,39.88,44.65a4.66,4.66,0,0,1,.94,3.15c-.26,3.33,1.24,5.09,4.48,5.26a5.3,5.3,0,0,1,3.32,1.38q17.07,18.93,34,38c12.67,14.29,12.46,30.51,7,47.64-.66-.25-1.23-.45-1.78-.69-8.77-3.84-17.55-7.64-26.29-11.55a4.48,4.48,0,0,0-1.79-.49c-1,0-1.63.65-2.09,2.13a60.07,60.07,0,0,1-2.92,7.81c-1.15,2.44-.58,3.57,1.91,4.6,7.37,3,14.64,6.34,22.29,9.7l-2.18,1.92c-4.47-1.37-8.54-2.85-12.73-3.82a48.75,48.75,0,0,0-8.89-.8h0c-.57,0-1.18.8-1.78,1.22a10.43,10.43,0,0,0,1.79,1.21,1.51,1.51,0,0,0,.53.08c.29,0,.6-.05.89-.05h.11a40.88,40.88,0,0,1,18.85,5.08c-1.69,4.53,3.84,6.57,3.45,10.81-.07.79,3.68,2.24,5.82,2.74a.58.58,0,0,0,.19,0c.9,0,2.09-1.32,3.17-1.91a5.36,5.36,0,0,1,1.41-.3l6.4-1.41c.09-.33.21-.42.35-.42a3.11,3.11,0,0,1,.37.08c.95.21,1.92.37,2.89.55-.49-.88-1-1.74-1.44-2.65-.59-1.29-1.1-2.62-1.64-3.94l.85-.39,7.44,3.32c-1.17,2.88-2.37,5.48-3.26,8.19-.27.79.14,2.6.56,2.71,5.45,1.39,10.93,2.75,16.46,3.71a4.23,4.23,0,0,0,.7.06c1.8,0,3.24-1.28,3.92-3.36.73-2.24,1.73-4.4,2.62-6.59,2.34-5.72,2.26-7.38-3-10.86-5.64-3.72-11.78-6.69-17.77-9.85-2.68-1.42-5.55-2.5-8.32-3.72,1.11-5.45,2.13-10.49,3.16-15.53,3-14.62-.41-27.62-10.2-38.81-11.54-13.17-23.3-26.15-34.95-39.22-1.09-1.21-2.15-2.45-3.19-3.64,2.94-4.93,5.74-9.59,8.49-14.28,2.66-4.51,5.38-9,7.85-13.61,1.13-2.11.33-4.15-1.83-5.21a4.54,4.54,0,0,0-2-.52,4.16,4.16,0,0,0-3.39,2c-.41.59-.74,1.23-1.12,1.85-4.6,7.64-9.19,15.29-13.9,23.1-6.89-7.68-13.8-15.13-20.41-22.83C161.84,90.2,152.52,81.84,146.29,71Q116.8,39.3,87.28,7.66A19.36,19.36,0,0,0,83,4.17a7.18,7.18,0,0,0-3.59-1.1Z"/><path d="M79.42,8.07a2.38,2.38,0,0,1,1,.41,14.62,14.62,0,0,1,3.16,2.59c16,17.15,32.29,34.61,48,51.49l9.16,9.84c-1.32-1.16-2.65-2.29-4-3.4-1.78-1.52-3.63-3.08-5.42-4.67l-3.37-3-1.92,1.76a7.27,7.27,0,0,0-1.47-5.61c-3.17-3.61-6.48-7.15-9.68-10.56l-2.88-3.09-2.75-3-3.4,2,0,0-2.37-2.6-1.48-1.61L98.72,35,95,38.28l-.72.64-1,.94c-1.92,1.76-3.49,3.21-4,5.32l-7-7.58a9.11,9.11,0,0,0,5.86,2.12,7.5,7.5,0,0,0,.82,0,8.94,8.94,0,0,0,8.5-9.13A9,9,0,0,0,94.8,24a9.37,9.37,0,0,0-6.64-2.79h-.3a9.36,9.36,0,0,0-6.56,3.05,9.18,9.18,0,0,0-.74,11.58L70,24.47a19.34,19.34,0,0,1-2.15-2.62c-1.17-1.85-1.16-2,.46-3.5l2.8-2.64,1.48-1.4,2.63-2.47.45-.39c1-.9,2.1-1.82,3.13-2.9a1.58,1.58,0,0,1,.63-.48h0M190.56,130.19l.94,1.07a8.51,8.51,0,0,0-.95-.12c0-.3,0-.62,0-.95m15.87,86.24c5.95,2.65,12,5.28,17.83,7.83l6.33,2.77c.5.22,1,.4,1.42.56l.58.22,3.18,1.22-.05.21,3.68,1.63c.89.39,1.8.77,2.7,1.15,1.88.8,3.66,1.55,5.32,2.42,1.26.67,2.52,1.32,3.79,2A148.25,148.25,0,0,1,264.76,244a13.58,13.58,0,0,1,2.21,1.69,16.58,16.58,0,0,1-1.07,3.1c-.23.58-.47,1.15-.72,1.73-.67,1.58-1.36,3.22-1.94,5-3.78-.69-7.56-1.56-11.23-2.47.36-.89.75-1.8,1.14-2.73l1-2.42,1.84-4.49-4.43-2-4.59-2-2.86-1.28-2.06-.92-.75.34-3.31.05h-.84l.22-.48L233,235l-1.15-.55-.23-.1,1.32-1.16-7.19-3.15-6.41-2.83c-5-2.21-9.73-4.3-14.57-6.33.65-1.52,1.2-3,1.69-4.48m-2.54,6.39h0M79.42,3.07a5.8,5.8,0,0,0-4.26,2C73.91,6.42,72.48,7.56,71,8.85l-.49-.53a4,4,0,0,1-.28.3A7.5,7.5,0,0,1,68.48,10c.23.24.45.48.67.73-1.58,1.49-2.92,2.76-4.27,4-3.34,3.14-3.74,5.9-1.27,9.82a22.9,22.9,0,0,0,2.72,3.35Q82.52,45.32,98.75,62.71c3.65,3.92,7.22,7.93,11,11.66,2,1.94,3.84,2.88,5.67,2.88s3.64-.93,5.6-2.75c2.45-2.27,4.93-4.53,7-6.44,5.79,5.16,11.7,9.63,16.65,15,13.52,14.67,26.66,29.7,39.88,44.65a4.66,4.66,0,0,1,.94,3.15c-.26,3.33,1.24,5.09,4.48,5.26a5.3,5.3,0,0,1,3.32,1.38q17.07,18.93,34,38c12.67,14.29,12.46,30.51,7,47.64-.66-.25-1.23-.45-1.78-.69-8.77-3.84-17.55-7.64-26.29-11.55a4.48,4.48,0,0,0-1.79-.49c-1,0-1.63.65-2.09,2.13a60.07,60.07,0,0,1-2.92,7.81c-1.15,2.44-.58,3.57,1.91,4.6,7.37,3,14.64,6.34,22.29,9.7l-2.18,1.92c-4.47-1.37-8.54-2.85-12.73-3.82a48.75,48.75,0,0,0-8.89-.8h0c-.57,0-1.18.8-1.78,1.22a10.43,10.43,0,0,0,1.79,1.21,1.51,1.51,0,0,0,.53.08c.29,0,.6-.05.89-.05h.11a40.88,40.88,0,0,1,18.85,5.08c-1.69,4.53,3.84,6.57,3.45,10.81-.07.79,3.68,2.24,5.82,2.74a.58.58,0,0,0,.19,0c.9,0,2.09-1.32,3.17-1.91a5.36,5.36,0,0,1,1.41-.3l6.4-1.41c.09-.33.21-.42.35-.42a3.11,3.11,0,0,1,.37.08c.95.21,1.92.37,2.89.55-.49-.88-1-1.74-1.44-2.65-.59-1.29-1.1-2.62-1.64-3.94l.85-.39,7.44,3.32c-1.17,2.88-2.37,5.48-3.26,8.19-.27.79.14,2.6.56,2.71,5.45,1.39,10.93,2.75,16.46,3.71a4.23,4.23,0,0,0,.7.06c1.8,0,3.24-1.28,3.92-3.36.73-2.24,1.73-4.4,2.62-6.59,2.34-5.72,2.26-7.38-3-10.86-5.64-3.72-11.78-6.69-17.77-9.85-2.68-1.42-5.55-2.5-8.32-3.72,1.11-5.45,2.13-10.49,3.16-15.53,3-14.62-.41-27.62-10.2-38.81-11.54-13.17-23.3-26.15-34.95-39.22-1.09-1.21-2.15-2.45-3.19-3.64,2.94-4.93,5.74-9.59,8.49-14.28,2.66-4.51,5.38-9,7.85-13.61,1.13-2.11.33-4.15-1.83-5.21a4.54,4.54,0,0,0-2-.52,4.16,4.16,0,0,0-3.39,2c-.41.59-.74,1.23-1.12,1.85-4.6,7.64-9.19,15.29-13.9,23.1-6.89-7.68-13.8-15.13-20.41-22.83C161.84,90.2,152.52,81.84,146.29,71Q116.8,39.3,87.28,7.66A19.36,19.36,0,0,0,83,4.17a7.18,7.18,0,0,0-3.59-1.1Zm8.64,31.65a4.26,4.26,0,0,1-4.21-4A4.36,4.36,0,0,1,88,26.22h.14a4.18,4.18,0,0,1,4.22,4.22,4,4,0,0,1-3.95,4.26l-.37,0Zm26.56,34.2c-1.1,0-2.12-1.71-5.49-5.22-4.34-4.52-8.55-9.16-12.82-13.75-3-3.28-3-3.29.34-6.41.45-.42.92-.82,1.71-1.53l3.85,4.21c1.52,1.66,2.22,2.41,3.11,2.41.72,0,1.58-.5,3.11-1.41,4.16,4.47,8.41,8.93,12.46,13.55a3,3,0,0,1-.21,3c-3.76,3.43-5,5.18-6.06,5.18ZM223.49,243.15c-.06-1-.44-2.13-.09-3a13.68,13.68,0,0,1,2.3-3c.29.22.58.44.86.67l-2.22,5.25-.85,0Zm4.83,2-1-.42c.78-1.93,1.57-3.85,2.35-5.78l1.16.55c-.83,1.88-1.67,3.77-2.51,5.65Zm7.72,3.05-.94-.76,2.18-4.89h.79c.09.94.51,2,.19,2.77a13.68,13.68,0,0,1-2.22,2.89Z"/><path d="M225.7,237.21a13.68,13.68,0,0,0-2.3,3c-.35.83,0,2,.09,3l.85,0,2.22-5.25c-.28-.23-.57-.45-.86-.67Z"/><path d="M238.07,242.59h-.79l-2.18,4.89.94.76a13.68,13.68,0,0,0,2.22-2.89c.32-.76-.1-1.83-.19-2.77Z"/><path d="M229.67,239c-.78,1.93-1.57,3.85-2.35,5.78l1,.42c.84-1.88,1.68-3.77,2.51-5.65l-1.16-.55Z"/></g><path d="M102.3,45.34l.37.39c2.51,2.69,5.1,5.45,7.6,8.24l-.48.47c-.58-.63-1.25-1.37-2.05-2.2-2.11-2.2-4.22-4.46-6.3-6.7a8.26,8.26,0,0,0,.86-.2M93.36,34c-.79.71-1.26,1.11-1.71,1.53-3.39,3.12-3.39,3.13-.34,6.41,4.27,4.59,8.48,9.23,12.82,13.75,3.37,3.51,4.39,5.22,5.49,5.22s2.3-1.75,6.06-5.18a3,3,0,0,0,.21-3c-4-4.62-8.3-9.08-12.46-13.55-1.53.91-2.39,1.41-3.11,1.41-.89,0-1.59-.75-3.11-2.41L93.36,34Z"/><path d="M83.16,18.22H83a4.36,4.36,0,0,0-4.17,4.48,4.26,4.26,0,0,0,4.21,4l.37,0a4,4,0,0,0,3.95-4.26,4.18,4.18,0,0,0-4.22-4.22Z"/></svg>