<svg id="Calque_1" data-name="Calque 1" xmlns="http://www.w3.org/2000/svg" viewBox="0 0 350 300"><title>selected</title><g id="_85mCRQ" data-name="85mCRQ"><path d="M223.9,42c4.68.58,7.94,4,11.41,8,.77.89,1.6,1.69,2.32,2.39l.36.34c1.28,1.24,2.59,2.46,3.85,3.63,1.77,1.65,3.43,3.2,5,4.83,1.34,1.34,2.14,2.16,2.52,2.64,3.14,4,3.39,8.91,3.67,14.64.33,6.65-1,9.61-1.57,11a10.36,10.36,0,0,0-.42,1.07,18.11,18.11,0,0,0-7.9,5.15,13.21,13.21,0,0,1-4.37,2.55l-.47.19a58.22,58.22,0,0,1-10.23,3.46,19.33,19.33,0,0,0-12.82,9.36,23.73,23.73,0,0,0-3.13,9.09l-3.37.64.88,4.87,7.48,41.54.9,5,3.19-.61c.45,3.15.91,6.37,1.41,9.55.21,1.35.38,2.68.57,4.09.71,5.46,1.45,11.11,4.3,16.8,2.3,4.57,1.15,9.6-2.8,12.23-7,4.7-9.59,10.79-7.76,18.6v.09l.21,9.67,0,1.28c-.31-2.22-.63-4.45-1-6.72-.49-3.43-1-6.9-1.47-10.4L214.1,222l-4.95.69c-1.32.18-2.65.39-3.94.6-2.84.45-5.52.87-8.18,1-1.47.09-2.9.13-4.25.13-9.43,0-16.71-2.11-22.91-6.64-5.59-4.09-8.89-8.41-10.37-13.61-3.73-13.07-7.48-26.39-11.1-39.26q-3-10.5-5.92-21-1.09-3.84-2.2-7.67c-.92-3.17-1.87-6.44-2.76-9.65a8.55,8.55,0,0,0-3.4-5,8.08,8.08,0,0,0-4.46-1.28,9.89,9.89,0,0,0-2.24.26c-1.37.28-9,1-36.94,2.69l-.31-2.63,4.39-.2,1-.05,5-.22-.24-5-.51-10.7-.24-5.09-5.09.34-.48,0-2.33.15c-.12-.55-.26-1.11-.41-1.68s-.24-.89-.35-1.31c-.81-3.19-1.74-6.8-5.22-9.62a25.52,25.52,0,0,0-6.87-4.1H91.94L85.63,77l7-2.1c6.53-1.95,13.28-4,19.9-6.06a14.6,14.6,0,0,0,5.12-3.21c.45-.39.87-.75,1.23-1,.64-.46,1.22-.95,1.74-1.38A10.43,10.43,0,0,1,122.3,62c22.93-6.47,46-12.78,63.57-17.55a9.2,9.2,0,0,1,2.3-.37,2.67,2.67,0,0,1,.55,0,27,27,0,0,0,6.67.8,55.22,55.22,0,0,0,12-1.71c2.15-.47,4.18-.92,6.19-1.2H223.9M180.78,218.28a13.75,13.75,0,0,0,5.72-1.63,14.59,14.59,0,0,1,2.29-.76,23,23,0,0,0,4.31-1.57c3.18-1.65,5.37-3.64,6.51-5.92a9.21,9.21,0,0,0,.79-7.36,7.75,7.75,0,0,0-2.71-3.67c-.4-2.18-.78-4.4-1.15-6.55-.42-2.43-.86-4.95-1.32-7.44q-2.43-13.11-4.91-26.22-1.41-7.47-2.81-14.93c-.85-4.57-1.7-9.13-2.57-13.83l-1.23-6.6-.89-4.81-4.83.79-3.81.6c-2.6.39-5,.77-7.51,1.29-5.08,1.1-9,3.57-11.29,7.15s-2.92,8.07-1.82,13.05c1.4,6.4,3.07,13.84,5.09,21.09,4.71,16.85,9.56,33.7,14.41,50.07.53,1.79,2.15,7.25,7.73,7.25M224.18,37h-10.9c-6,.78-11.82,2.91-17.89,2.91a22,22,0,0,1-5.46-.65,7.19,7.19,0,0,0-1.76-.2,14,14,0,0,0-3.61.55q-31.84,8.66-63.62,17.55c-1.83.52-3.33,2.2-5,3.37s-3.11,2.95-4.94,3.52C99.57,67.67,88,71,76.51,74.52a27.87,27.87,0,0,0-4.81,2.56l0-.07-.09.11h0c-2,2.41-4,4.85-6,7.24-.82,1-1.67,2.44-2.69,2.61-7.55,1.28-14.2,4.69-20.23,8.37L47,97.49l-1-2.18a17.08,17.08,0,0,1,7.32-2c3.22,0,6.14,1.5,8.63,5.3l.68-1-5.6-8c3.13-.56,6.67-.78,9.93-1.85a16.23,16.23,0,0,1,5-.86c3.83,0,7.22,1.58,10.58,4.29,2.53,2,2.92,4.77,3.89,8.35,1.82,6.79.86,11.74.08,15.79a8.62,8.62,0,0,1-2.61,5.23,6.5,6.5,0,0,1-2.58,1.27c-3,.79-5.3,1.58-6.55,1.86a53.69,53.69,0,0,0-7,2,6.07,6.07,0,0,1-2,.33,5.45,5.45,0,0,1-2.16-.44,5.54,5.54,0,0,1-1.9-1.4L49,127.65a35.3,35.3,0,0,0,5.61.54h1.18c4.87,0,8.55-.45,15.8-1.87a12.08,12.08,0,0,1,2.09-.28,2.33,2.33,0,0,1,1.21.27,12.35,12.35,0,0,0,6.45,2.09,10.25,10.25,0,0,0,4.56-1.13l.15,1.26c23.34-1.41,39.89-2.54,42.41-3.09a6,6,0,0,1,1.18-.14,3.09,3.09,0,0,1,1.71.46A3.61,3.61,0,0,1,132.7,128c1.61,5.79,3.33,11.55,5,17.33,5.67,20.1,11.29,40.2,17,60.28,2,7,6.44,12.05,12.24,16.28,7.87,5.76,16.65,7.6,25.85,7.6,1.5,0,3,0,4.54-.14,4.23-.25,8.42-1.11,12.52-1.67,1.64,11.83,3.36,23.24,4.75,34.68.76,6.19,1,12.45,1.41,18.68h6.82c0-1.68.1-3.36.06-5q-.44-21.48-.91-42.95a3.06,3.06,0,0,0,0-.68c-1.54-6,0-10.07,5.56-13.74,6.11-4.08,7.89-11.88,4.49-18.64-3.15-6.27-3.37-12.86-4.4-19.41-1.53-9.75-2.69-19.57-4.47-29.27a208.11,208.11,0,0,0-5.52-23.33c-2.47-8,2.14-19.28,11.49-21.14a65.6,65.6,0,0,0,11.59-3.91,18.12,18.12,0,0,0,6-3.66c2-2,3.89-3.58,6.77-4.12.93-.17,2.07-1.73,2.29-2.82s2.76-4.52,2.28-14.09c-.3-6.08-.61-12.27-4.74-17.49-.53-.66-1.31-1.48-2.9-3.07-2.9-2.92-6-5.65-9-8.52-.81-.79-1.64-1.56-2.38-2.41-4-4.68-8.28-9-14.91-9.71ZM71.39,78.17c.08-.29.19-.67.3-1a25.52,25.52,0,0,1,4.06-.61,5.34,5.34,0,0,1,4,1.66Zm22.94,37.26V104.72l.48,0q.25,5.35.52,10.71l-1,0Zm86.45,97.85c-1.41,0-2.16-1.07-2.94-3.67q-7.38-24.93-14.38-50c-1.92-6.87-3.5-13.85-5-20.82-1.65-7.52,1.71-12.61,9.28-14.24,3.42-.73,6.91-1.16,11.08-1.85,1.32,7.09,2.55,13.76,3.8,20.44q3.85,20.57,7.72,41.15c.9,4.87,1.68,9.76,2.59,14.64.13.7.46,1.71,1,1.95,2.72,1.26,2.05,3.7,1.27,5.26s-2.67,2.86-4.35,3.73c-2,1-4.38,1.28-6.42,2.24a9.66,9.66,0,0,1-3.6,1.16Zm41.3-46.76q-3.74-20.78-7.48-41.55l.82-.15,8,41.44-1.35.26Z"/><path d="M174.76,128.4l.34,1.83c.87,4.7,1.72,9.27,2.57,13.84q1.41,7.47,2.81,14.94,2.46,13.11,4.91,26.2c.45,2.42.88,4.91,1.3,7.31s.84,4.88,1.29,7.33a8.26,8.26,0,0,0,2.23,4.51,10.42,10.42,0,0,1-1.71,1.08,14,14,0,0,1-2.43.82,25.34,25.34,0,0,0-3.63,1.25c-4.77-16.11-9.54-32.67-14.16-49.24-2-7-3.59-14.28-5-20.54-.51-2.36-.36-4.21.47-5.5,1.06-1.64,3.29-2.42,5-2.78,1.9-.41,3.83-.72,6-1m4-5.69c-4.17.69-7.66,1.12-11.08,1.85-7.57,1.63-10.93,6.72-9.28,14.24,1.53,7,3.11,13.95,5,20.82q7,25,14.38,50c.78,2.6,1.53,3.67,2.94,3.67a9.66,9.66,0,0,0,3.6-1.16c2-1,4.43-1.21,6.42-2.24,1.68-.87,3.55-2.14,4.35-3.73s1.45-4-1.27-5.26c-.52-.24-.85-1.25-1-1.95-.91-4.88-1.69-9.77-2.59-14.64q-3.84-20.58-7.72-41.15c-1.25-6.68-2.48-13.35-3.8-20.44Z"/><path d="M172.69,101.64c-1.64.67-3.28,1.88-4.92,1.89-4.19,0-4.19-.19-4.51,3.52,1.6-.22,3.3-.32,4.92-.71a4,4,0,0,1,.94-.09l.9,0c1.31,0,2.58-.24,2.7-2.78l-1.67.89-.18-.35,2.13-1.54c-.1-.28-.2-.56-.31-.85Z"/><path d="M235.93,82.19c-2.22,0-3.34,1.14-3.57,3.37l6.75-2.83a11.72,11.72,0,0,0-3.18-.54Z"/><path d="M94.81,104.68l-.48,0v10.71l1,0q-.27-5.36-.52-10.71Z"/><path d="M75.75,76.51a25.52,25.52,0,0,0-4.06.61c-.11.38-.22.76-.3,1h8.32a5.32,5.32,0,0,0-4-1.66Zm-4,.5-.11.12h.08l0-.11Z"/></g><path d="M53.79,97.55c4.49,0,8.29,5.51,8.29,12s-3.8,12-8.29,12-8.29-5.52-8.29-12,3.8-12,8.29-12m0-5c-7.34,0-13.29,7.63-13.29,17s6,17,13.29,17,13.29-7.63,13.29-17-5.95-17-13.29-17Z"/></svg>