<svg id="Calque_1" data-name="Calque 1" xmlns="http://www.w3.org/2000/svg" viewBox="0 0 350 300"><title>selected</title><g id="nLPAxf"><path d="M235.54,40.85a16.26,16.26,0,0,1,6.9,1.69c2.48,1.16,3,3.16,3.71,8.16l0,.2c.45,3.08.82,6.19,1.16,8.93.13,1.12.26,2.17.38,3.13l.4,3.16,3,1c1.87.6,3.67,1.09,5.42,1.57a39.59,39.59,0,0,1,9.06,3.21c1.19.67,1.5,1.94,1.88,5.64a28.85,28.85,0,0,0,1.14,6.24l1,3.14,3.3.26.62,0c0,.15,0,.31-.06.48-1.4,11.44,2.11,20.79,10.43,27.8,3,2.55,4.15,5.62,3.72,10.26a93,93,0,0,0-.09,11.55c0,1.07.07,2.14.09,3.2a3,3,0,0,1,0,.56,2.29,2.29,0,0,1-.5.27c-7.77,3.38-15.79,6.87-23.83,10.53-2.86-3.83-5.81-7.57-8.92-11.53l-4-5.13-7.47-9.58-1.44,12.06c-.06.53-.12,1-.18,1.38a17.92,17.92,0,0,0-.25,2.69V144c0,5.49,0,11.17.13,16.78a3,3,0,0,1-.06.72,2.24,2.24,0,0,1-.68.4c-6.54,2.83-15.07,6.54-23.63,10.41-2.89-3.82-5.89-7.62-9.06-11.63l-4.24-5.38-8.93-11.38v14.47c0,2.37,0,4.64-.05,6.83,0,4.91-.1,9.55.14,14.19.12,2.38-.19,2.86-2.4,3.73-7.21,2.83-14.19,6-21.91,9.65l-.1,0c-2.8-3.93-5.81-7.69-9-11.68-1.38-1.71-2.81-3.49-4.28-5.37l-8.93-11.35v14.44c0,2.37,0,4.63-.05,6.82,0,4.91-.1,9.55.15,14.19.13,2.36-.19,2.85-2.42,3.72-6.54,2.58-13.41,5.59-21.59,9.49l-.44.2-.2-.26c-4.94-6.67-10.18-13.29-15.25-19.69q-3-3.79-6-7.63l-2.43-3.1-3.58,1.63-3.61,1.62c-2.53,1.13-5.15,2.3-7.71,3.56-.73-1-1.48-1.93-2.22-2.89-2-2.6-4.07-5.28-6-8,0-.12,0-.33-.08-.67-.13-1.55-.26-3.11-.4-4.66-.45-5.24-.92-10.65-1.08-15.92-.17-5.47-1.9-9.71-5.29-13-2.54-2.45-3.47-5.16-3.12-9.09.34-3.75.32-7.48.31-11.08,0-1.52,0-3.08,0-4.6h0c4.12-1.4,8.43-3.1,13.58-5.35,2.22-1,5-3.21,5.72-6.3.58-2.68,1.88-4.33,7.08-5.35a14.17,14.17,0,0,1,2.78-.28c3.1,0,6.16,1.09,9.64,3.43l10,6.7-2.26-11.79a4.42,4.42,0,0,1-.1-1.41A13.39,13.39,0,0,1,116.28,98l.53-.17c1.31-.45,2.54-1,3.74-1.43,1-.42,2-.81,2.92-1.14,3.17-1.11,8.47-3,10.34-10.12.14-.52.55-2.1,6-3.06a16.14,16.14,0,0,1,2.88-.26,15.94,15.94,0,0,1,9.47,3.37L161.65,92,160,80.43a3.53,3.53,0,0,1,0-1.61h0a10.88,10.88,0,0,1,3-1.3l1.16-.4c1-.36,1.93-.74,2.85-1.11s2-.81,2.94-1.13c3.19-1.08,8.53-2.89,10.43-10.11.14-.55.58-2.23,6.25-3.16a17.3,17.3,0,0,1,2.64-.22,15.62,15.62,0,0,1,9.28,3.24l9,6.3L206.36,60c-.18-1.86-.18-1.86,3.34-3,.44-.14.87-.29,1.29-.44,1-.35,1.92-.73,2.81-1.11s1.78-.73,2.61-1c3.35-1.13,8.92-3,10.48-10.12a8.44,8.44,0,0,1,2.51-1.91,13.16,13.16,0,0,1,6.14-1.55m0-5a18.2,18.2,0,0,0-8.43,2.1c-2.08,1.07-4.66,3.11-5.06,5.1-.88,4.38-3.83,5.49-7.23,6.64-1.86.62-3.64,1.49-5.5,2.15-4,1.42-8.59,2.21-7.93,8.7a20.65,20.65,0,0,0-12.16-4.15,21.42,21.42,0,0,0-3.45.29c-4.43.72-9.1,2.29-10.28,6.82-1.13,4.31-3.8,5.5-7.19,6.65-2,.67-3.9,1.55-5.88,2.26-3.91,1.4-8.35,2.23-7.4,8.74a20.16,20.16,0,0,0-16.12-4c-4.31.76-8.79,2.35-9.93,6.71s-3.79,5.49-7.16,6.67c-2.23.78-4.38,1.79-6.62,2.55-3.78,1.29-7.75,2.32-6.58,8.44-4.27-2.87-8.28-4.28-12.43-4.28a19.37,19.37,0,0,0-3.75.37c-5.3,1-9.69,3.17-11,9.21-.24,1.09-1.68,2.26-2.84,2.77-4.32,1.89-8.71,3.68-13.17,5.19A4.42,4.42,0,0,0,62,119.44c-.08,5.13.15,10.28-.31,15.37s.88,9.52,4.63,13.13c2.69,2.6,3.64,5.75,3.76,9.53.22,7,.93,13.9,1.49,20.84a6.07,6.07,0,0,0,.84,2.95c3,4.13,6.2,8.15,9.3,12.22A3.07,3.07,0,0,0,84.18,195a4.35,4.35,0,0,0,1.91-.54c4-2,8-3.73,12.21-5.63,7.19,9.17,14.4,18,21.19,27.22,1.3,1.75,2.42,2.48,3.76,2.48a7.31,7.31,0,0,0,3-.89c7-3.32,14.07-6.51,21.27-9.34,4.21-1.66,5.83-4.13,5.58-8.65-.35-6.49-.09-13-.09-20.74,4.93,6.27,9.3,11.46,13.22,17,1.14,1.61,2.18,2.27,3.41,2.27a6.76,6.76,0,0,0,2.79-.79c7.14-3.33,14.3-6.65,21.63-9.53,4.23-1.66,5.8-4.14,5.56-8.64-.34-6.49-.08-13-.08-20.76,5.1,6.51,9.52,12,13.74,17.61.89,1.19,1.7,1.78,2.74,1.78a4.61,4.61,0,0,0,1.86-.48c8.13-3.69,16.31-7.27,24.51-10.82a5.6,5.6,0,0,0,3.75-5.81c-.13-6.3-.13-12.61-.14-18.92a34.13,34.13,0,0,1,.4-3.47c4.78,6.13,9.14,11.54,13.28,17.11.94,1.27,1.81,1.9,2.91,1.9a5,5,0,0,0,2-.53c8.13-3.7,16.32-7.27,24.5-10.83a5.32,5.32,0,0,0,3.54-5.53,126.75,126.75,0,0,1,0-14.19c.54-5.88-.9-10.69-5.48-14.54-7.29-6.13-9.85-13.88-8.68-23.36.67-5.45-.06-5.71-5.13-6.12-1.66-5,.06-11.61-5.28-14.65-4.44-2.53-9.83-3.39-15.43-5.19-.42-3.32-.91-7.75-1.55-12.16-.7-4.83-1.35-9.72-6.56-12.17a21.16,21.16,0,0,0-9-2.16Z"/><path d="M235.7,40.85a16.34,16.34,0,0,1,6.91,1.69c2.48,1.16,3,3.16,3.71,8.16l0,.2c.45,3.08.83,6.19,1.16,8.93.14,1.12.26,2.18.38,3.14l.4,3.15,3,1c1.87.6,3.68,1.09,5.42,1.57a39.43,39.43,0,0,1,9.08,3.21c1.19.67,1.5,1.94,1.88,5.64a28.85,28.85,0,0,0,1.14,6.24l1.05,3.14,3.29.26.63.06c0,.14,0,.3-.06.47-1.41,11.44,2.1,20.8,10.44,27.8,3,2.55,4.15,5.62,3.72,10.26a93,93,0,0,0-.09,11.55c0,1.07.07,2.14.09,3.2a3,3,0,0,1,0,.56,2.29,2.29,0,0,1-.5.27c-7.78,3.38-15.81,6.88-23.86,10.53-2.86-3.83-5.81-7.58-8.93-11.53l-4-5.13-7.47-9.57-1.44,12.05c-.06.53-.13,1-.18,1.38a17.92,17.92,0,0,0-.25,2.69V144c0,5.49,0,11.17.13,16.78a2,2,0,0,1-.06.72,1.85,1.85,0,0,1-.67.39c-6.56,2.84-15.1,6.56-23.67,10.43-2.88-3.83-5.89-7.63-9.06-11.64l-4.25-5.38-8.93-11.37v14.46c0,2.37,0,4.64-.05,6.83,0,4.91-.1,9.55.15,14.19.12,2.37-.19,2.86-2.4,3.73-7.22,2.83-14.21,6-21.94,9.65l-.1,0c-2.8-3.93-5.82-7.69-9-11.68-1.38-1.72-2.8-3.49-4.28-5.37l-8.93-11.34v14.43c0,2.37,0,4.63,0,6.82-.05,4.91-.1,9.55.15,14.19.13,2.36-.19,2.85-2.42,3.72-6.55,2.58-13.42,5.59-21.61,9.49l-.45.2-.2-.26c-4.94-6.67-10.19-13.29-15.26-19.69-2-2.53-4-5.07-6-7.63l-2.43-3.1-3.57,1.63-3.62,1.62c-2.54,1.13-5.15,2.3-7.72,3.56l-2.22-2.89c-2-2.6-4.07-5.28-6-8a5.48,5.48,0,0,1-.08-.67c-.13-1.56-.26-3.11-.4-4.66-.45-5.24-.92-10.65-1.08-15.92-.17-5.47-1.9-9.71-5.3-13-2.54-2.45-3.47-5.16-3.12-9.09.34-3.75.33-7.48.31-11.08,0-1.52,0-3.08,0-4.6h0c4.12-1.4,8.44-3.1,13.59-5.35,2.22-1,5-3.2,5.72-6.3.59-2.68,1.89-4.33,7.09-5.35a14.27,14.27,0,0,1,2.79-.28c3.1,0,6.17,1.09,9.65,3.43l10,6.69-2.26-11.78a4,4,0,0,1-.09-1.41,13.43,13.43,0,0,1,2.85-1.17l.53-.18c1.31-.45,2.54-1,3.74-1.43,1-.42,2-.81,2.92-1.14,3.17-1.11,8.48-3,10.36-10.12.13-.52.55-2.1,6-3.06a16.14,16.14,0,0,1,2.88-.26,16,16,0,0,1,9.49,3.37L161.74,92l-1.68-11.56a3.36,3.36,0,0,1,0-1.61h0a10.74,10.74,0,0,1,3-1.3l1.16-.4c1-.36,1.94-.74,2.85-1.11s2-.81,2.95-1.13c3.19-1.08,8.54-2.88,10.43-10.11.14-.55.58-2.23,6.26-3.16a17.43,17.43,0,0,1,2.65-.22,15.67,15.67,0,0,1,9.29,3.24l9,6.3L206.49,60c-.19-1.86-.19-1.86,3.35-3l1.28-.44c1-.35,1.92-.73,2.82-1.1s1.78-.74,2.61-1c3.35-1.13,8.92-3,10.49-10.12a8.3,8.3,0,0,1,2.51-1.91,13.17,13.17,0,0,1,6.15-1.55m-132,101.29-3.32,1.77,6.22,2.25.89,1.18.85-.55,2.59.94a22.09,22.09,0,0,0,7.47,1.33c9.22,0,16.34-6.12,16.56-14.24l.14-5-2.8-.1-5.47-3.36A16.82,16.82,0,0,0,118,124a17.37,17.37,0,0,0-12.15,4.72c-4.08,4-4.83,8.84-2.18,13.42m132-106.29a18.23,18.23,0,0,0-8.44,2.1c-2.08,1.07-4.67,3.11-5.07,5.1-.88,4.38-3.83,5.49-7.23,6.64-1.87.62-3.65,1.49-5.5,2.15-4,1.42-8.6,2.21-7.94,8.7a20.7,20.7,0,0,0-12.17-4.15,21.54,21.54,0,0,0-3.46.29c-4.43.72-9.1,2.29-10.29,6.82-1.13,4.31-3.8,5.5-7.2,6.65-2,.67-3.9,1.55-5.88,2.26-3.92,1.4-8.36,2.23-7.41,8.74a20.18,20.18,0,0,0-16.13-4c-4.31.76-8.8,2.35-9.94,6.71s-3.8,5.49-7.17,6.67c-2.23.78-4.38,1.79-6.62,2.55-3.79,1.29-7.76,2.32-6.59,8.44-4.27-2.87-8.29-4.28-12.44-4.28a19.37,19.37,0,0,0-3.75.37c-5.3,1-9.71,3.17-11,9.21-.24,1.09-1.68,2.26-2.84,2.77-4.33,1.89-8.72,3.68-13.19,5.19A4.42,4.42,0,0,0,62,119.44c-.08,5.13.15,10.28-.31,15.37s.88,9.52,4.63,13.13c2.7,2.6,3.65,5.75,3.77,9.53.21,7,.92,13.9,1.49,20.84a6.07,6.07,0,0,0,.84,2.95c3,4.13,6.2,8.15,9.31,12.22A3.07,3.07,0,0,0,84.2,195a4.32,4.32,0,0,0,1.91-.54c4-2,8-3.73,12.23-5.63,7.19,9.17,14.4,18,21.2,27.22,1.3,1.75,2.42,2.48,3.76,2.48a7.31,7.31,0,0,0,3.06-.89c7-3.32,14.08-6.51,21.29-9.34,4.21-1.66,5.83-4.13,5.58-8.65-.35-6.49-.09-13-.09-20.74,4.94,6.27,9.31,11.46,13.23,17,1.14,1.61,2.19,2.27,3.42,2.27a6.76,6.76,0,0,0,2.79-.79c7.15-3.33,14.32-6.65,21.65-9.53,4.24-1.66,5.8-4.14,5.57-8.64-.34-6.49-.09-13-.09-20.76,5.11,6.51,9.54,12,13.76,17.61.89,1.19,1.7,1.78,2.74,1.78a4.61,4.61,0,0,0,1.86-.48c8.14-3.69,16.33-7.27,24.53-10.82a5.58,5.58,0,0,0,3.75-5.81c-.13-6.3-.12-12.61-.13-18.92a34.13,34.13,0,0,1,.4-3.47c4.79,6.13,9.15,11.54,13.29,17.11.94,1.27,1.81,1.9,2.92,1.9a5,5,0,0,0,2-.53c8.13-3.7,16.33-7.27,24.52-10.83a5.32,5.32,0,0,0,3.54-5.53,126.75,126.75,0,0,1,0-14.19c.54-5.88-.9-10.69-5.48-14.54-7.3-6.13-9.86-13.88-8.7-23.36.68-5.45,0-5.71-5.13-6.12-1.66-5,.06-11.61-5.28-14.65-4.45-2.53-9.85-3.39-15.44-5.19-.42-3.32-.92-7.75-1.56-12.16-.7-4.83-1.35-9.72-6.57-12.17a21.16,21.16,0,0,0-9-2.16Zm-127,104.77c-2.55-3.37-1.68-6,.71-8.34A12.45,12.45,0,0,1,118,129a11.85,11.85,0,0,1,6.18,1.65l-15.52,10Zm9.71,3.44a17,17,0,0,1-5.77-1c5.78-3.09,9.93-8.35,16.87-8.35h.46c-.15,5.6-5.27,9.38-11.56,9.38Z"/><path d="M117.94,129a12.45,12.45,0,0,0-8.63,3.28c-2.39,2.36-3.25,5-.7,8.34l15.5-10a11.79,11.79,0,0,0-6.17-1.65Z"/><path d="M129.4,134.67c-6.93,0-11.08,5.26-16.86,8.35a17,17,0,0,0,5.77,1c6.29,0,11.4-3.78,11.55-9.38Z"/><path d="M97.43,110.86a12.43,12.43,0,0,0-8.62,3.28c-2.39,2.36-3.25,5-.71,8.35l15.5-10a11.79,11.79,0,0,0-6.17-1.65Z"/><path d="M108.89,116.53c-6.93,0-11.08,5.26-16.85,8.35a16.94,16.94,0,0,0,5.77,1c6.28,0,11.39-3.78,11.55-9.38Z"/><path d="M166.05,110.86a12.45,12.45,0,0,0-8.63,3.28c-2.39,2.36-3.25,5-.7,8.35l15.5-10a11.79,11.79,0,0,0-6.17-1.65Z"/><path d="M177.51,116.53c-6.93,0-11.09,5.26-16.86,8.35a17,17,0,0,0,5.77,1c6.28,0,11.39-3.78,11.55-9.38Z"/><path d="M145.54,92.72A12.43,12.43,0,0,0,136.92,96c-2.39,2.36-3.25,5-.71,8.35l15.5-10a11.79,11.79,0,0,0-6.17-1.65Z"/><path d="M157,98.39c-6.93,0-11.08,5.26-16.85,8.35a16.94,16.94,0,0,0,5.77,1c6.28,0,11.39-3.78,11.55-9.38Z"/><path d="M208.64,87.2A12.45,12.45,0,0,0,200,90.48c-2.39,2.36-3.25,5-.71,8.35l15.51-10a11.82,11.82,0,0,0-6.17-1.65Z"/><path d="M220.1,92.87c-6.93,0-11.09,5.26-16.86,8.35a17,17,0,0,0,5.77,1c6.28,0,11.39-3.78,11.55-9.38Z"/><path d="M188.13,69.06a12.45,12.45,0,0,0-8.63,3.28c-2.38,2.36-3.25,5-.7,8.35l15.5-10a11.79,11.79,0,0,0-6.17-1.65Z"/><path d="M199.59,74.73c-6.93,0-11.08,5.26-16.85,8.35a16.93,16.93,0,0,0,5.76,1c6.29,0,11.4-3.78,11.55-9.38Z"/><path d="M246.49,70.64a12.45,12.45,0,0,0-8.63,3.28c-2.38,2.36-3.24,5-.7,8.34l15.5-10a11.79,11.79,0,0,0-6.17-1.65Z"/><path d="M258,76.31c-6.93,0-11.08,5.26-16.85,8.35a16.94,16.94,0,0,0,5.77,1c6.28,0,11.39-3.78,11.55-9.38Z"/><path d="M226,52.5a12.45,12.45,0,0,0-8.63,3.28c-2.39,2.36-3.25,5-.71,8.34l15.51-10A11.79,11.79,0,0,0,226,52.5Z"/><path d="M237.45,58.17c-6.93,0-11.09,5.26-16.86,8.35a17,17,0,0,0,5.77,1c6.28,0,11.39-3.78,11.55-9.38Z"/></g></svg>