<svg id="Calque_1" data-name="Calque 1" xmlns="http://www.w3.org/2000/svg" viewBox="0 0 350 300"><title>selected</title><path d="M222.86,36.93a12.62,12.62,0,0,1,12.6,12.61V244.4a12.61,12.61,0,0,1-12.6,12.6h-96a12.61,12.61,0,0,1-12.59-12.6V49.54A12.62,12.62,0,0,1,126.9,36.93h96M151.2,55h47.38c3.51,0,6.17-3.44,6.17-8s-2.66-8-6.17-8H151.2c-3.57,0-6.16,3.36-6.16,8s2.59,8,6.16,8M118.75,212.29H231V57H118.75V212.29m56.14,36.31a14.6,14.6,0,1,0-14.6-14.6,14.61,14.61,0,0,0,14.6,14.6m48-215.67h-96a16.59,16.59,0,0,0-16.59,16.61V244.4A16.59,16.59,0,0,0,126.9,261h96a16.6,16.6,0,0,0,16.6-16.6V49.54a16.61,16.61,0,0,0-16.6-16.61ZM151.2,51C150,51,149,49.23,149,47s1-4,2.16-4h47.38c1.19,0,2.17,1.78,2.17,4s-1,4-2.17,4ZM122.75,208.29V61H227V208.29Zm52.14,36.31A10.6,10.6,0,1,1,185.47,234a10.61,10.61,0,0,1-10.58,10.6Z"/></svg>