<svg id="Calque_1" data-name="Calque 1" xmlns="http://www.w3.org/2000/svg" viewBox="0 0 350 300"><defs><style>.cls-1{fill:none;stroke:#000;stroke-miterlimit:10;stroke-width:5px;}</style></defs><title>selected</title><path class="cls-1" d="M288.28,75.42,176.11,34.18a17.38,17.38,0,0,0-12,0L53.86,75.4A7.13,7.13,0,0,0,49,82V96.71c0,3.92,3.53,7.09,7.88,7.09h5.9a1.88,1.88,0,0,1,2,1.77v93.94c0,8.81,7.94,16,17.73,16h5.14V130.23H254.55v85.23h5.15c9.79,0,17.72-7.14,17.72-16V105.57a1.88,1.88,0,0,1,2-1.77h5.91c4.35,0,7.88-3.17,7.88-7.09V82a7.15,7.15,0,0,0-4.9-6.56M138,179.63H126.8v15.46h-5.23V179.63H110.29a7.38,7.38,0,0,0-7.38,7.38v24.61a7.37,7.37,0,0,0,7.38,7.38H138a7.37,7.37,0,0,0,7.38-7.38V187a7.38,7.38,0,0,0-7.38-7.38m47,0H173.75v15.46h-5.23V179.63H157.24a7.38,7.38,0,0,0-7.38,7.38v24.61a7.38,7.38,0,0,0,7.38,7.38H185a7.37,7.37,0,0,0,7.38-7.38V187a7.38,7.38,0,0,0-7.38-7.38m47.83,0H221.58v15.46h-5.24V179.63H205.06a7.39,7.39,0,0,0-7.38,7.38v24.61a7.38,7.38,0,0,0,7.38,7.38h27.73a7.38,7.38,0,0,0,7.38-7.38V187a7.39,7.39,0,0,0-7.38-7.38m-71.21-44.41h-11.2v15.47h-5.24V135.22H133.86a7.39,7.39,0,0,0-7.38,7.38v24.61a7.38,7.38,0,0,0,7.38,7.38h27.72a7.37,7.37,0,0,0,7.38-7.38V142.6a7.38,7.38,0,0,0-7.38-7.38m48.1,0H198.47v15.47h-5.23V135.22H182a7.38,7.38,0,0,0-7.38,7.38v24.61a7.37,7.37,0,0,0,7.38,7.38h27.72a7.37,7.37,0,0,0,7.38-7.38V142.6a7.38,7.38,0,0,0-7.38-7.38"/></svg>