<svg id="Calque_1" data-name="Calque 1" xmlns="http://www.w3.org/2000/svg" viewBox="0 0 350 300"><title>selected</title><path d="M56.3,28.26A14.7,14.7,0,1,0,71,43a14.7,14.7,0,0,0-14.7-14.7Zm0,19.6A4.9,4.9,0,1,1,61.2,43a4.9,4.9,0,0,1-4.9,4.9Z"/><path d="M281.7,27.26A14.7,14.7,0,1,0,296.4,42a14.7,14.7,0,0,0-14.7-14.7Zm0,19.6a4.9,4.9,0,1,1,4.9-4.9,4.9,4.9,0,0,1-4.9,4.9Z"/><path d="M56.3,87.06A14.7,14.7,0,1,0,71,101.76a14.7,14.7,0,0,0-14.7-14.7Zm0,19.6a4.9,4.9,0,1,1,4.9-4.9,4.9,4.9,0,0,1-4.9,4.9Z"/><path d="M56.3,62.56a4.9,4.9,0,0,0-4.9,4.9v9.8a4.9,4.9,0,1,0,9.8,0v-9.8a4.9,4.9,0,0,0-4.9-4.9Z"/><path d="M263.22,7.51c-6.12,0-10,0-10.92.15a6,6,0,0,0-3.47,1.44,4.91,4.91,0,0,0-1.43,3.46v117.6a4.9,4.9,0,0,0,4.9,4.9H267v24.5H232.7v-14.7a4.9,4.9,0,0,0-4.9-4.9H110.2a4.9,4.9,0,0,0-4.9,4.9v14.7H71v-24.5H85.7a4.9,4.9,0,0,0,4.9-4.9V12.56a4.9,4.9,0,0,0-4.9-4.9H26.9a4.9,4.9,0,0,0-4.9,4.9v117.6a4.9,4.9,0,0,0,4.9,4.9H41.6v24.5H26.9a4.9,4.9,0,0,0-4.9,4.9v29.4a4.9,4.9,0,0,0,4.9,4.9V238a4.9,4.9,0,0,0,4.9,4.9H306.2a4.9,4.9,0,0,0,4.9-4.9v-39.2a4.9,4.9,0,0,0,4.9-4.9v-29.4a4.9,4.9,0,0,0-4.9-4.9H296.4v-24.5h14.7a4.9,4.9,0,0,0,4.9-4.9V8c-22.76-.32-41.59-.49-52.78-.49Zm-6,117.75V17.46h49v107.8Zm-225.4,0V17.46h49v107.8Zm245,34.3v-24.5h9.8v24.5Zm-225.4,0v-24.5h9.8v24.5Zm63.7,0v-9.8H222.9v9.8ZM31.8,189v-19.6H306.2V189Zm4.9,44.1v-34.3H301.3v34.3Z"/><path d="M281.7,86.06a14.7,14.7,0,1,0,14.7,14.7,14.7,14.7,0,0,0-14.7-14.7Zm0,19.6a4.9,4.9,0,1,1,4.9-4.9,4.9,4.9,0,0,1-4.9,4.9Z"/><path d="M281.7,61.56a4.9,4.9,0,0,0-4.9,4.9v9.8a4.9,4.9,0,0,0,9.8,0v-9.8a4.9,4.9,0,0,0-4.9-4.9Z"/></svg>