<svg id="Calque_1" data-name="Calque 1" xmlns="http://www.w3.org/2000/svg" viewBox="0 0 350 300"><title>selected</title><path d="M148.84,160.92a11.5,11.5,0,1,0,11.49,11.5,11.51,11.51,0,0,0-11.49-11.5Zm0,15.22a3.73,3.73,0,1,1,3.73-3.72,3.73,3.73,0,0,1-3.73,3.72Z"/><path d="M133.24,225a11.49,11.49,0,1,0,11.49,11.49A11.51,11.51,0,0,0,133.24,225Zm0,15.22a3.73,3.73,0,1,1,3.73-3.73,3.75,3.75,0,0,1-3.73,3.73Z"/><path d="M179.69,34.44l-.21.18,0,0,.23-.15M220.87,46.3l.57,1.21L223,46.43a19.52,19.52,0,0,0-1.59,1.79q-.23-1-.51-1.92M126.55,65l0,.1.42,0a10.9,10.9,0,0,0-1.13.42l.66-.48m111,11.89-1.3.38.09.26-.27-.53a14.52,14.52,0,0,0,1.48-.11m-107.76,10h.52v.13l-.52-.14m54.3,0-.52.13v-.12h.52m-.52,29.79,1.12,1,.15.13c.36.3.72.6,1.08.88l-2.35-1.41v-.58M185.62,152c-.71.55-1.4,1.13-2.07,1.72v-.44l2.07-1.28m-13.5,46a41,41,0,0,0,38.11,27.32l-1.83.18,3.22,5.41,10.6,17.82a8.47,8.47,0,0,1-7.28,12.79H98.9a8.47,8.47,0,0,1-7.27-12.79l28.22-47.46a5.46,5.46,0,0,1,4.66-2.65h47.75l-.14-.62M152.74,15a34.24,34.24,0,0,0-31.07,48.59,14.95,14.95,0,0,0,4.86,26.62V104a3.88,3.88,0,1,0,7.76,0V90.7h45.26v61.63a44.71,44.71,0,0,0-12.34,42.29h-42.7a9.47,9.47,0,0,0-8.1,4.61L88.19,246.69A12.46,12.46,0,0,0,98.9,265.52h116a12.46,12.46,0,0,0,10.71-18.83l-10.59-17.82a44.56,44.56,0,0,0,7-1.24l9.31,15.67a19.09,19.09,0,0,1-16.41,28.85H98.9A19.1,19.1,0,0,1,82.49,243.3l51.26-86.21a3.93,3.93,0,0,0,.54-2V121.63a3.88,3.88,0,0,0-7.76,0V154L75.82,239.33A26.85,26.85,0,0,0,98.9,279.91h116A26.85,26.85,0,0,0,238,239.33L229.48,225a44.65,44.65,0,0,0,24.85-30.54,3.88,3.88,0,0,0-2.91-4.65,3.77,3.77,0,0,0-.88-.1,3.88,3.88,0,0,0-3.77,3,37.16,37.16,0,0,1-12.85,20.47,36.5,36.5,0,0,1-23.17,8.17,37,37,0,1,1,36.17-44.65,3.88,3.88,0,0,0,3.79,3.08,4.45,4.45,0,0,0,.81-.08,3.89,3.89,0,0,0,3-4.6,44.72,44.72,0,0,0-67.2-28.81v-22a37.12,37.12,0,0,0,54.11-44.29,21.6,21.6,0,0,0-6-42.36A21.42,21.42,0,0,0,223,41.49a28.92,28.92,0,0,0-2.7-4.61,3.85,3.85,0,0,0-3.16-1.64,3.93,3.93,0,0,0-2.25.72,3.89,3.89,0,0,0-.91,5.41,21.35,21.35,0,0,1,3.5,7.94,3.89,3.89,0,0,0,3,3,4,4,0,0,0,.84.09,3.86,3.86,0,0,0,3.09-1.53,13.84,13.84,0,0,1,24.88,8.35A13.92,13.92,0,0,1,235.77,73a3.89,3.89,0,0,0-3.35,5.7,28.94,28.94,0,0,1,3.4,13.71,29.35,29.35,0,0,1-48.46,22.3l-.05,0V90.21a15,15,0,0,0-3.82-29.41h-.75a8.55,8.55,0,0,1,7.62-4.69h1.39a3.88,3.88,0,0,0,0-7.76h-1.39A16.34,16.34,0,0,0,174.51,60.8H130.35a12.44,12.44,0,0,0-1.37.07A26.47,26.47,0,0,1,176,36.66a3.85,3.85,0,0,0,2.73,2,4,4,0,0,0,.68.06,3.84,3.84,0,0,0,2.57-1,21.59,21.59,0,0,1,19.65-4.8,3.79,3.79,0,0,0,.94.12,3.89,3.89,0,0,0,.95-7.65,29.37,29.37,0,0,0-23.08,3.79A34.2,34.2,0,0,0,152.74,15ZM130.35,82.94a7.19,7.19,0,0,1,0-14.38h53.14a7.19,7.19,0,0,1,0,14.38Z"/><path d="M224,164.26H211.19a20.44,20.44,0,0,0-20.41,20.41v12.76a7,7,0,0,0,7,7h12.76A20.44,20.44,0,0,0,231,184V171.27a7,7,0,0,0-7-7ZM198.54,191v-6.35A12.66,12.66,0,0,1,211.19,172h12v12a12.67,12.67,0,0,1-12.65,12.65h-6.69l9.67-9.67a3.88,3.88,0,0,0-2.75-6.62,3.85,3.85,0,0,0-2.74,1.13l-9.5,9.5Z"/><polygon points="134 97 127 97 127 139 134 139 134 97 134 97"/><path d="M211.5,147.5a36,36,0,1,1-36,36,36,36,0,0,1,36-36m0-4a40,40,0,1,0,40,40,40,40,0,0,0-40-40Z"/></svg>