<svg id="Calque_1" data-name="Calque 1" xmlns="http://www.w3.org/2000/svg" viewBox="0 0 350 300"><title>selected</title><path d="M168.33,173.28v1.41h-1.42v-1.41h1.42m4-4h-9.42v9.41h9.42v-9.41Z"/><path d="M113.71-1c0,.48,0,1,.07,1.42h-2.93l1,4.78L139,141.42V281.58H144c0,.47,0,.95.07,1.42h-6.57V141.09l-.08-.39L109.12-1h4.59m3.86-4H104.24l29.29,146.45V287h15.09a37.36,37.36,0,0,1-.51-9.42H143V141L115.73,4.46h2.37c-.3-3.13-.46-6.27-.53-9.42Z"/><path d="M221.26-1c0,.49,0,1,0,1.42h-6l-.67,3.18L187.25,135l-.09.41V141a19.52,19.52,0,0,1-3.95,11.78l-1-1.06.89-1.48a18.18,18.18,0,0,0,2.62-9.24V131.6a18.14,18.14,0,0,0-12.08-17l-5.34-1.91v27.64h4.51l.64,1.92h0l5.9,17.7,3.09,9.24v19.66h-4.71v92.76h9.74V283H144.13c0-.47-.08-.95-.11-1.42h13.47V188.82h-4.71V169.16l3.09-9.26.7-2.11h0l2.76-8.26,3.07-9.22h4.51V112.67l-5.34,1.91a18.13,18.13,0,0,0-12.08,17V141a18.05,18.05,0,0,0,2.61,9.3l3.81,6.37-1.18-1.05A19.57,19.57,0,0,1,148.07,141v-5.58L148,135,120.62,3.64,120,.46h-6.19c0-.46-.05-.93-.07-1.42h21.68V.46h-14l1,4.82,2,9.41.66,3.19h10.34V19.3H125.32l1,4.81,2,9.42.67,3.18h17.38l-1-4.81L143.28,22l-.86-4.14h0l-1-4.82-2-9.42L138.79.46h0L138.49-1h1.45L162.84,109l.69,3.29,3.35-.11c.3,0,.55,0,.74-.06s.44,0,.74.06l3.35.11.69-3.29L195.3-1h1.45l-.3,1.42h0l-.66,3.18-2,9.42-1,4.82h0L192,22,189.9,31.9l-1,4.81h17.38l.67-3.18,2-9.42,1-4.81h-10V17.88h10.34l.66-3.19,2-9.41,1-4.82h-14V-1h21.39M185,55.55h17.39l.66-3.18L205,43l1-4.82H188.6l-.66,3.19-2,9.41-1,4.82m-52.09,0h17.39l-1-4.82-2-9.41-.66-3.19H129.25l1,4.82,2,9.42.66,3.18m48.17,18.84h17.39l.66-3.19,2-9.42,1-4.81H184.68L184,60.15l-2,9.42-1,4.82m-44.24,0h17.38l-1-4.82-2-9.42L150.56,57H133.17l1,4.81,2,9.42.67,3.19m40.31,18.83h10v1.42H176.83l-.67,3.18-2.44,11.74-.64,3.08,2.84,1.35a19.4,19.4,0,0,1,6.58,5.13l4.66,5.55v3.81l.64-3.06.38-1.82,6.9-33.1,2.06-9.88,1-4.82H180.75L180.09,79l-2,9.42-1,4.81M147,123.09l.49,2.33h0l.63,3.06v-3.81l4.67-5.55a19.31,19.31,0,0,1,6.57-5.12l2.85-1.35-.64-3.08-2.44-11.74-.67-3.19H148.07V93.22h10.05l-1-4.81-2-9.42-.67-3.19H137.1l1,4.82,2.06,9.88L147,123.09m7.25,64.31H181v-18l-.21-.62-8.1-24.3-.91-2.74h-8.4l-.91,2.73-8.1,24.31-.21.62v18m4.71,18.84h17.42V188.82H158.91v17.42m0,18.83h17.42V207.66H158.91v17.41m0,18.84h17.42V226.49H158.91v17.42m0,18.84h17.42V245.33H158.91v17.42m0,18.83h17.42V264.16H158.91v17.42M225.12-5H192l-23.56,113.1c-.29,0-.56-.08-.86-.08s-.57.07-.86.08L143.19-5H109.55c.06,3.15.21,6.29.52,9.42h6.63l27.37,131.39V141a23.57,23.57,0,0,0,8,17.61l-3.3,9.88v24.31h4.71v84.76H140.11a31.35,31.35,0,0,0,.61,9.42h50.77v-9.42h-9.74V192.82h4.71V168.51l-3.29-9.86,0,0a23.54,23.54,0,0,0,8-17.66v-5.16L218.54,4.46h6.65c.15-3.1.08-6.27-.07-9.42ZM197.74,13.88l2-9.42h9.22l-2,9.42Zm-69.46,0-2-9.42h9.22l2,9.42Zm65.54,18.83,2.05-9.87v.46H205l-2,9.41Zm-61.61,0-2-9.41h9.13v-.46l2,9.87Zm57.68,18.84,2-9.42h9.21l-2,9.42Zm-53.76,0-2-9.42h9.22l2,9.42ZM186,70.39l2-9.42h9.22l-2,9.42Zm-45.91,0-2-9.42h9.22l2,9.42Zm42,18.83,2-9.42h9.21l-2.06,9.88v-.46Zm-38,.46-2-9.88h9.21l2,9.42h-9.13v.46Zm41.5,26.86a23.6,23.6,0,0,0-7.94-6.16l2.45-11.74h9.21l-3.72,17.9Zm-35.9,0-3.73-17.9h9.22l2.44,11.74a23.57,23.57,0,0,0-7.93,6.16Zm22.66,19.77v-18a14.11,14.11,0,0,1,9.42,13.26v3.28l-.1.47.1,0V141a14,14,0,0,1-2.06,7.19l-4-11.9Zm-16.8,12a14.18,14.18,0,0,1-2-7.25V131.6a14.11,14.11,0,0,1,9.42-13.26v18h-3.4l-4,12Zm2.67,35.13V170l8.11-24.31h2.63L177,170V183.4Zm4.71,18.84v-9.42h9.42v9.42Zm0,18.83v-9.41h9.42v9.41Zm0,18.84v-9.42h9.42v9.42Zm0,18.84v-9.42h9.42v9.42Zm0,18.83v-9.42h9.42v9.42Z"/><path d="M223.12-1,194.79,140.7l-.08.39V283H184.49v-1.42h8.8v-4l.09-137.08L220.43,5.24l1-4.78h-3.15c0-.46,0-.93,0-1.42h4.9M228-5H214.09c.14,3.15.22,6.31.1,9.42h2.32L189.39,140.1l-.1,137.48h-8.8V287h18.22V141.49L228-5Z"/></svg>