<svg id="Calque_1" data-name="Calque 1" xmlns="http://www.w3.org/2000/svg" viewBox="0 0 350 300"><defs><style>.cls-1{fill:none;stroke:#020202;stroke-miterlimit:10;stroke-width:4px;}</style></defs><title>selected</title><path class="cls-1" d="M160.62,192.57a4.35,4.35,0,0,0-3.2,5.25l11.42,47.29a4.35,4.35,0,1,0,8.45-2.05l-11.42-47.28a4.35,4.35,0,0,0-5.25-3.21"/><path class="cls-1" d="M112.93,164.07a178.41,178.41,0,0,0,54.36-34.15L163.44,114a185.4,185.4,0,0,1-54.58,33.26Z"/><path class="cls-1" d="M117.89,184.64a175.05,175.05,0,0,0,54.37-34.16l-3.85-15.93a185.43,185.43,0,0,1-54.58,33.27Z"/><path class="cls-1" d="M103,122.93a178.17,178.17,0,0,0,54.36-34.15l-3.84-15.89a186.2,186.2,0,0,1-54.58,33.23Z"/><path class="cls-1" d="M108,143.5a178.29,178.29,0,0,0,54.36-34.15l-3.85-15.93a185.27,185.27,0,0,1-54.58,33.26Z"/><path class="cls-1" d="M75.86,91.15C97.62,93.5,153.66,80,171.74,68l-59.9-38Z"/><path class="cls-1" d="M94.92,89.52,98,102.2a171.21,171.21,0,0,0,39-21.77,302.69,302.69,0,0,1-42.08,9.09"/><path class="cls-1" d="M140.58,199.86a127.68,127.68,0,0,0,40.48-12.92L178,174.27a189.21,189.21,0,0,1-37.42,25.59"/><path class="cls-1" d="M143,196.84a4.35,4.35,0,0,0-3.21,5.24l11.43,47.29a4.35,4.35,0,0,0,8.45-2L148.23,200a4.35,4.35,0,0,0-5.25-3.2"/><path class="cls-1" d="M122.61,204.15A174.91,174.91,0,0,0,177,170l-3.85-15.93a185.35,185.35,0,0,1-54.57,33.26Z"/><path class="cls-1" d="M209.19,202.59a4.35,4.35,0,0,0-5.23,3.22L192.7,253.14a4.35,4.35,0,0,0,8.46,2l11.26-47.32a4.36,4.36,0,0,0-3.23-5.24"/><path class="cls-1" d="M179.61,155.56a178.2,178.2,0,0,0,63.93-5.8l3.8-15.94a185.62,185.62,0,0,1-63.73,4.91Z"/><path class="cls-1" d="M174.71,176.14a174.92,174.92,0,0,0,63.94-5.79l3.79-15.95a185.13,185.13,0,0,1-63.73,4.91Z"/><path class="cls-1" d="M189.4,114.39a178.25,178.25,0,0,0,63.94-5.8l3.78-15.9a186.31,186.31,0,0,1-63.72,4.87Z"/><path class="cls-1" d="M184.5,135a178,178,0,0,0,63.94-5.79l3.79-15.94a185.33,185.33,0,0,1-63.72,4.9Z"/><path class="cls-1" d="M179.62,73.76c18.34,12,74.41,25.34,96,22.83l-36.17-61Z"/><path class="cls-1" d="M197.35,81l-3,12.69A170.8,170.8,0,0,0,239,91.92a302.17,302.17,0,0,1-41.63-11"/><path class="cls-1" d="M188,200A127.55,127.55,0,0,0,230,206.84l3-12.69A188.45,188.45,0,0,1,188,200"/><path class="cls-1" d="M191.54,198.39a4.36,4.36,0,0,0-5.24,3.22l-11.25,47.33a4.35,4.35,0,1,0,8.46,2l11.25-47.32a4.35,4.35,0,0,0-3.22-5.24"/><path class="cls-1" d="M170.06,195.68a175.12,175.12,0,0,0,63.94-5.8l3.79-15.94a185.31,185.31,0,0,1-63.72,4.9Z"/></svg>