<svg id="Calque_1" data-name="Calque 1" xmlns="http://www.w3.org/2000/svg" viewBox="0 0 350 300"><title>selected</title><path d="M182.23,46a.76.76,0,0,1,.77.77V64.65a.76.76,0,0,1-.77.76h-3.46A12.83,12.83,0,0,0,166,78.23a.76.76,0,0,1-.77.77h-7.57V213.34h7.57a.76.76,0,0,1,.77.76,12.83,12.83,0,0,0,12.82,12.82h3.46a.77.77,0,0,1,.77.77v17.88a.77.77,0,0,1-.77.77H31.34a.77.77,0,0,1-.76-.77V227.69a.77.77,0,0,1,.76-.77h3.47A12.83,12.83,0,0,0,47.62,214.1a.77.77,0,0,1,.77-.76H56V79H48.39a.77.77,0,0,1-.77-.77A12.83,12.83,0,0,0,34.81,65.41H31.34a.76.76,0,0,1-.76-.76V46.77a.76.76,0,0,1,.76-.77H182.23M32.11,63.88H181.46V47.54H32.11V63.88M49.47,77.47H164.11l.8-3a14.31,14.31,0,0,1,1.27-3.16l3.27-5.93H44.13l3.26,5.93a13.77,13.77,0,0,1,1.28,3.17l.8,3M110.15,122l1.67-.76,12.4-5.67,8-3.64-8-3.64L63.16,80.42,57.5,77.83V98L59.83,99l48.66,22.25,1.66.76m45.93-22.65V79h-44.6l16.71,7.64L150.41,96.8l5.67,2.59M134,111.12l1.67-.76,12.39-5.66,8-3.64-8-3.64-39.5-18.06-.79-.36h-44l16.71,7.64,51.9,23.72,1.66.76M86.29,133l1.66-.76,12.4-5.67,8-3.64-8-3.64-37.19-17L57.5,99.65v20.14l2.33,1.06,24.79,11.34,1.67.76m-28.79,35,5.66-2.59,90.58-41.41,2.34-1.07V102.73l-5.67,2.59L59.83,146.73,57.5,147.8v20.13m0-21.82,5.66-2.59,13.32-6.09,8-3.64-8-3.64-13.32-6.09-5.66-2.59v24.64m0,43.64,5.66-2.59,90.58-41.41,2.34-1.06V124.55l-5.67,2.59L59.83,168.55l-2.33,1.07v20.13m0,21.82L63.16,209l90.58-41.4,2.34-1.07V146.37L150.41,149,59.83,190.37l-2.33,1.07v20.13m-.17,1.77h44l.8-.37,51.57-23.57,2.34-1.07V168.2l-5.67,2.58L74,205.7l-16.71,7.64m47.74,0h51V190l-5.67,2.59L121.78,205.7l-16.71,7.64M44.13,226.92H169.45L166.18,221a14.2,14.2,0,0,1-1.27-3.17l-.8-3H49.47l-.8,3A14,14,0,0,1,47.39,221l-3.26,5.92m-12,17.88H181.46V228.46H32.11V244.8M182.23,42H31.34a4.76,4.76,0,0,0-4.76,4.77V64.65a4.76,4.76,0,0,0,4.76,4.76h3.47a8.83,8.83,0,0,1,8.81,8.82A4.77,4.77,0,0,0,48.39,83H52V209.34H48.39a4.77,4.77,0,0,0-4.77,4.76,8.82,8.82,0,0,1-8.81,8.82H31.34a4.77,4.77,0,0,0-4.76,4.77v17.88a4.77,4.77,0,0,0,4.76,4.77H182.23a4.77,4.77,0,0,0,4.77-4.77V227.69a4.77,4.77,0,0,0-4.77-4.77h-3.46A8.83,8.83,0,0,1,170,214.1a4.76,4.76,0,0,0-4.77-4.76h-3.57V83h3.57A4.76,4.76,0,0,0,170,78.23a8.83,8.83,0,0,1,8.82-8.82h3.46A4.76,4.76,0,0,0,187,64.65V46.77A4.76,4.76,0,0,0,182.23,42ZM36.11,59.88V51.54H177.46v8.34ZM52.53,73.47a18.44,18.44,0,0,0-1.63-4.06H162.68A18.46,18.46,0,0,0,161,73.47Zm99.55,19.69L129.85,83h22.23V93.16ZM134,106.73,82.12,83h24.8l39.5,18.06L134,106.73Zm-23.87,10.91L61.5,95.39V84.06L122.56,112l-12.41,5.67ZM86.29,128.55,61.5,117.22V105.88l37.19,17-12.4,5.67ZM61.5,161.7V150.37L152.08,109V120.3L61.5,161.7Zm0-21.82V127.7l13.32,6.09L61.5,139.88Zm0,43.64V172.19l90.58-41.41v11.34L61.5,183.52Zm0,21.83V194l90.58-41.41v11.34L61.5,205.35Zm14.2,4,76.38-34.92v11.34L100.5,209.34Zm47.74,0,28.64-13.09v13.09ZM50.9,222.92a18.16,18.16,0,0,0,1.63-4H161a18.19,18.19,0,0,0,1.64,4ZM36.11,240.8v-8.34H177.46v8.34Z"/><path d="M261.53,47.15a8.16,8.16,0,0,1,3.27,1.4,6.86,6.86,0,0,1,2.89,4.93c0,.25.05.51.06.77a10.05,10.05,0,0,0-6.22-7.1M241.12,62.93l-2.1,5c-1.88,4.49-3.33,8.7-4.21,11.45l-2.6,8.12-4.15,13,10.51-8.68,6.57-5.43c.83-.69,3.08-2.57,5.83-5.12l1.74-1.61,0,.07,3.2-3.29a74.11,74.11,0,0,0,7.54-8.88,81.6,81.6,0,0,1-7,10.46L255,80l0,0-2.57,3.23L139.72,224.6l98-156.13.07-.1.06-.11c.26-.49,1.44-2.61,3.24-5.33m22-42.6c-.45,0-.91,0-1.36,0-11.63.68-19.89,10-22.09,24.93a46.06,46.06,0,0,0-.14,12.92,82.67,82.67,0,0,0-5.14,8.12L131.82,229.65c-.78,1.24-1.75,2.79-.75,4.62l1,1.73h2c1.73,0,2.66-1.16,3.55-2.28l118-148c7.52,6.38,16.54,11.2,24.67,15.33-3.64,11.27-8.47,23.63-14.19,37.22-15.7,37.34-8.38,68.18,2.67,75.22a3.38,3.38,0,0,0,1.8.52,3.34,3.34,0,0,0,1.79-6.15c-7.79-5-14.68-32.33-.11-67,5.61-13.33,10.39-25.53,14.06-36.77.93.48,1.84.94,2.71,1.4,18.06,9.55,32.45,50.82,32.59,51.23a3.34,3.34,0,0,0,3.16,2.25,3.46,3.46,0,0,0,1.09-.18,3.36,3.36,0,0,0,2.06-4.25c-.63-1.8-15.4-44.18-35.79-54.95-1.22-.65-2.5-1.3-3.81-2,6.12-20.56,8.1-37.75,4.08-52.66-3.78-14-16.44-24.59-29.2-24.59ZM245.84,50.66a43.12,43.12,0,0,1,.4-4.39C248,34.53,253.77,27.51,262.13,27l.92,0c8.76,0,19.44,7.14,22.81,19.65,3.59,13.33,1.84,29-3.67,47.88-7.73-3.94-15.86-8.38-22.49-14.07,4.43-5.73,13.11-18.27,12-27.47a10.83,10.83,0,0,0-4.56-7.71,12,12,0,0,0-7-2.26C255,43,250,46.44,245.84,50.66Zm7.26,23a34,34,0,0,1-6.26-12.73c3.23-5.76,7.1-10.41,11.18-10.41a5.93,5.93,0,0,1,3.22,1,5.69,5.69,0,0,1,2.74,4.6c.3,4.83-5.27,11.82-10.88,17.58ZM236,88.72l2.6-8.12c.76-2.37,2.19-6.59,4.09-11.11a41.9,41.9,0,0,0,5.54,8.84c-2.52,2.33-4.65,4.13-5.66,5L236,88.72Z"/></svg>