<svg id="Calque_1" data-name="Calque 1" xmlns="http://www.w3.org/2000/svg" viewBox="0 0 350 300"><title>selected</title><path d="M146.82,40.08h0a9.73,9.73,0,0,1,1.07.06l70.16,7.66a9.75,9.75,0,0,1,8.61,10.73l-3.83,35.08A1.88,1.88,0,0,1,221,95.28h-.21l-1.95-.21-4-.44-.44,4L204.51,189l-.43,4,4,.43,1.95.21a1.9,1.9,0,0,1,1.67,2.08l-3.83,35.08a9.71,9.71,0,0,1-10.73,8.61L127,231.75A9.74,9.74,0,0,1,118.34,221L122.17,186a1.89,1.89,0,0,1,1.87-1.68l.21,0,2,.21,4,.43.43-4,9.88-90.43.43-4-4-.43L135,85.9a1.82,1.82,0,0,1-1.26-.69,1.86,1.86,0,0,1-.41-1.38l3.84-35.08a9.71,9.71,0,0,1,9.65-8.67M220.52,80l.44-4,2-18.64c.31-2.93-2-5.5-5.36-5.87l-70.16-7.66a6.51,6.51,0,0,0-.77,0c-3,0-5.43,1.94-5.73,4.61l-2,18.64-.44,4,4,.44,74.06,8.09,4,.43M200.34,192.6l.43-4,9.88-90.43.43-4-4-.44-26.82-2.93-1.89-.2L177.05,92a15.07,15.07,0,0,0-4.34,9.07,14.8,14.8,0,0,0,3.94,11.9,18.84,18.84,0,0,1-3.1,28.39A15.08,15.08,0,0,0,171.07,164a18.56,18.56,0,0,1,5,14.91,19.25,19.25,0,0,1-1.5,5.62l-2.2,5,5.42.59,18.61,2,4,.44m-2.07,43.12A5.51,5.51,0,0,0,204,231l2.19-20.1.44-4-4-.43-74.06-8.09-4-.43-.44,4L122,222.05c-.33,3,2,5.6,5.34,6l70.16,7.67a6.28,6.28,0,0,0,.75,0M146.82,36.08a13.74,13.74,0,0,0-13.63,12.23l-3.83,35.08a5.87,5.87,0,0,0,5.2,6.49l1.95.21-9.88,90.43-1.95-.21c-.21,0-.43,0-.64,0a5.88,5.88,0,0,0-5.84,5.25l-3.83,35.08a13.73,13.73,0,0,0,12.15,15.13l70.16,7.67c.5,0,1,.08,1.5.08a13.75,13.75,0,0,0,13.63-12.24l3.83-35.08a5.86,5.86,0,0,0-5.2-6.48l-1.95-.22L218.37,99l1.95.21c.21,0,.43,0,.64,0A5.88,5.88,0,0,0,226.8,94L230.63,59a13.72,13.72,0,0,0-12.15-15.13l-70.16-7.67c-.5,0-1-.08-1.5-.08ZM217,75.61l-74.06-8.09,2-18.64c.07-.61.82-1,1.75-1a1.83,1.83,0,0,1,.33,0l70.17,7.66c1.07.12,1.88.77,1.81,1.46l-2,18.63ZM196.79,188.19l-18.6-2a23.17,23.17,0,0,0,1.82-6.8,22.57,22.57,0,0,0-6-18.1,11.1,11.1,0,0,1,1.82-16.59,22.83,22.83,0,0,0,3.76-34.47,10.88,10.88,0,0,1-2.86-8.71,11,11,0,0,1,3.18-6.65l26.81,2.93-9.88,90.43Zm1.48,43.53-.31,0L127.8,224c-1.08-.12-1.89-.82-1.81-1.56l2.2-20.09,74.06,8.09-2.2,20.09c-.07.67-.84,1.15-1.78,1.15Z"/></svg>