<svg id="Calque_1" data-name="Calque 1" xmlns="http://www.w3.org/2000/svg" viewBox="0 0 350 300"><title>selected</title><path d="M97.21,211.92l12.53,13.41a.55.55,0,0,1,0,.38l-10,10.66L87.24,222.94a.41.41,0,0,1,0-.36l10-10.66m0-5.2a4.56,4.56,0,0,0-3.36,1.47l-10.26,11a5.35,5.35,0,0,0,0,7.19L96.43,240.1a4.57,4.57,0,0,0,6.72,0l10.26-11a5.39,5.39,0,0,0,0-7.19l-12.84-13.74a4.59,4.59,0,0,0-3.36-1.47Z"/><path d="M107.59,195.78c-3.65,0-6.89,5.1-3.55,8.69l12.85,13.74a4.2,4.2,0,0,0,3.11,1.46c3.64,0,7-5.06,3.6-8.65l-12.84-13.74a4.26,4.26,0,0,0-3.17-1.5Z"/><path d="M271.59,38.16l.4.43h2.51a53,53,0,0,1,8.58.59l-3.8-.27c-1.63-.11-3.33-.16-5-.16a93.25,93.25,0,0,0-11.13.7c-10.64,1.27-18.93,4.07-22.19,7.47l-.28.29a7.1,7.1,0,0,0,.07-5.09l.08.08,2.44,2.62,3.27-1.47c.8-.37,1.69-.72,2.63-1.05l7-2.47.42.45,2.64-.44c.92-.15,1.89-.29,2.94-.43l9.42-1.24m16.57,4.16c-.11.52-.57,1.31-2.11,2.29l-.25.17-.06,0-1.42,1,3.84-3.46M266.62,69.83l.47.51L265,71.87a8.49,8.49,0,0,0,1.61-2M178,72.57h0a15.25,15.25,0,0,1,2.44.19.65.65,0,0,1,0,.32c-4.41,6.08-8,12-10.26,18.68a6.42,6.42,0,0,0-.79-1.83c-.84-1.32-2.95-3.53-7.74-3.53a20.66,20.66,0,0,0-8.4,1.94l-.56.27c8.73-10.37,17.64-16,25.27-16m85.19.62A7.56,7.56,0,0,1,260,74.32l-8,.94-1.54.18.06-.07-.08-.08,2.29-.27,7.44-.87a8.5,8.5,0,0,0,3.05-1M122.67,144.55a33.07,33.07,0,0,1-12.89,3.91c-3,.32-6.08.41-9.1.49-5.19.15-10.09.28-15,1.52A33.47,33.47,0,0,0,78.72,153a32.28,32.28,0,0,1,7.2-2.77c4.82-1.21,9.89-1.35,14.8-1.49,3.15-.08,6.12-.17,9.18-.5a35.48,35.48,0,0,0,12.77-3.73m90.4,26.34a8.14,8.14,0,0,1,1,.06l-.9.05c-.51,0-1,.09-1.56.16l-23.05,3.27a16.42,16.42,0,0,1-2.35.22,5,5,0,0,1-2.34-.49,2.71,2.71,0,0,1-.37-.21l.36.14a6,6,0,0,0,2.27.4,19.5,19.5,0,0,0,2.58-.24L211.77,171a9.69,9.69,0,0,1,1.3-.09M208,188.63a70.73,70.73,0,0,1-11.15,4.81l-.07,0a84.7,84.7,0,0,0-8.51,3.47c-.83.41-1.66.86-2.46,1.33,1-.57,1.92-1.11,2.91-1.6a84.68,84.68,0,0,1,8.5-3.45A76.52,76.52,0,0,0,208,188.63M103.61,258.72C110,262.5,119.69,267,129.7,267a28.11,28.11,0,0,0,14-3.52l.27-.16-.76.45a27.58,27.58,0,0,1-13.61,3.36c-7.8,0-16.38-2.73-25.48-8.12l-.47-.28M264.36,25c-3.64,0-6.89,5.11-3.54,8.69l.7.75c-1,.14-2.07.29-3.1.46l-5-5.31a4.29,4.29,0,0,0-3.17-1.5c-3.65,0-6.9,5.1-3.55,8.69l.74.79c-1.07.38-2.08.78-3,1.21l-3.12-3.34a4.3,4.3,0,0,0-3.17-1.5c-3.65,0-6.89,5.11-3.55,8.69,2.59,1.55,1.28,2.29.84,4.58l-2.29,11.9L173.1,123.37a91.22,91.22,0,0,1-.59-17.55h0v0c.83-12.09,5.4-20.65,12-29.78,2.13-3,.49-7.5-3-8.13a20.27,20.27,0,0,0-3.55-.31c-22.2,0-44.35,36.09-47.79,52.24-1,4.78-1.31,10.23-3.73,14.53-3.72,6.59-12.32,8.45-17.12,9-2.85.31-5.73.39-8.78.48-5.17.14-10.52.29-15.87,1.63-10.31,2.59-19.2,9.58-25,19.69a55.44,55.44,0,0,0-5.8,38.83c2.72,12.11,8.92,23.88,18.44,35a117.89,117.89,0,0,0,29.2,24.38c11.26,6.67,20.63,8.82,28,8.82a32.38,32.38,0,0,0,16.07-4c12.79-7.22,16.59-20.27,20-31.79.79-2.71,1.61-5.51,2.51-8.16,4.08-12,12.24-21.71,22.38-26.75a80.9,80.9,0,0,1,8.07-3.28c9-3.3,19.27-7,23.72-18.31,3.25-8.22-2-13.93-9.2-13.93a15.29,15.29,0,0,0-2,.14L188,169.3a16.1,16.1,0,0,1-1.88.19,1.69,1.69,0,0,1-.45-.05c-.23-.17-.66-.84-1.42-3.12-1.07-3.25-2.12-6.45-3.14-9.66l71.42-76.43,8-.94a12.68,12.68,0,0,0,6-2.4l2.1,2.25a4.2,4.2,0,0,0,3.12,1.46c3.64,0,7-5.06,3.6-8.65l-3-3.22c.46-.87,1-1.8,1.56-2.78l3.53,3.77a4.2,4.2,0,0,0,3.12,1.46c3.64,0,6.95-5.06,3.6-8.65l-4.62-4.94c.53-.68,1.08-1.36,1.65-2l5.62,6A4.2,4.2,0,0,0,290,63.05c3.64,0,6.95-5.06,3.6-8.65L288.53,49l.24-.16c4.23-2.71,4.69-5.81,4.33-7.94-.85-5-6.52-6.13-8.39-6.49a55.34,55.34,0,0,0-10.21-.8h-.35l-6.62-7.08a4.26,4.26,0,0,0-3.17-1.5ZM252.11,70.05,242.69,60l1.84-9.6c1.7-1.77,7.81-4.61,19.17-6a90.38,90.38,0,0,1,10.54-.66c1.57,0,3.14,0,4.7.15-7.86,7.07-13.57,17.2-16.54,23.23a3.65,3.65,0,0,1-2.85,2.06l-7.44.87ZM131,195.94l-6.12-6.56L237.52,68.82l6.12,6.55L131,195.94ZM129.7,262c-9,0-18-4.32-23.57-7.59-17.36-10.27-37.78-29.55-43-52.83a44.44,44.44,0,0,1,4.65-31.13c3.17-5.51,9.06-12.6,19.1-15.12,4.4-1.11,9-1.23,14-1.37,3.09-.09,6.28-.18,9.49-.52,11.33-1.23,20-6.15,24.29-13.83,2.49-4.4,3.33-9.13,4.14-13.7,3.1-17.46,7.91-29,16.65-33a15.56,15.56,0,0,1,6.28-1.47c1.67,0,3,.39,3.51,1.2,1,1.64-2.16,4.64-2.16,12.44v0a102.16,102.16,0,0,0,.74,20.34c.29,2.2.65,4.48,1.07,6.8l-50.06,53.58a5.39,5.39,0,0,0,0,7.19l12.84,13.74a4.58,4.58,0,0,0,6.72,0l39.31-42.06c.5,1.56,1,3.12,1.54,4.69l0-.06s.15.45.26.8c.82,2.46,2.35,6.6,6.19,8.54a10.09,10.09,0,0,0,4.59,1,21.33,21.33,0,0,0,3-.27l23.05-3.27c.47-.06.85-.1,1.15-.11-2.83,7-10.19,9.66-18,12.51a88.57,88.57,0,0,0-9,3.68c-12.4,6.17-22.35,18-27.29,32.48-1,2.88-1.84,5.8-2.66,8.62-3.22,11-6,20.57-15.32,25.83A23.07,23.07,0,0,1,129.7,262Zm45.49-92.64.12.37-.12-.37Zm.12.37c.19.57.25.77.25.77l-.13-.4c0-.13-.08-.26-.12-.37Z"/></svg>