<?xml version="1.0" encoding="utf-8"?>
<!-- Generator: Adobe Illustrator 22.1.0, SVG Export Plug-In . SVG Version: 6.00 Build 0)  -->
<svg version="1.1" id="Calque_1" xmlns="http://www.w3.org/2000/svg" xmlns:xlink="http://www.w3.org/1999/xlink" x="0px" y="0px"
	 viewBox="0 0 350 300" style="enable-background:new 0 0 350 300;" xml:space="preserve">
<style type="text/css">
	.st0{fill:#070707;}
</style>
<title>selected</title>
<path class="st0" d="M183.9,14.9l-7.3-0.1c0-0.1,0-0.2,0-0.3c1-4.8-1-7.2-2.7-8.4c-4.1-2.8-8.7,0.5-10.3,1.6
	c-2.8,2.1-5.4,4.4-7.7,6.9l-9.5-0.1c-6.2-0.1-5.7,9.5,0.5,9.6h1c-0.6,0.8-1.2,1.7-1.8,2.5l-7.1-0.1c-6.2-0.1-5.7,9.5,0.5,9.6h1.1
	c-0.5,1-0.9,2-1.2,2.9h-4.5c-6.2-0.1-5.7,9.5,0.5,9.6c2.8-0.8,2.5,0.6,3.8,2.5l6.8,9.7c3.3,35.6,6.5,71.2,9.8,106.7
	c-3.9-11.7-9.8-22.7-17.6-32.3l0,0l0,0c0,0-4-4.9-6-8.1c-5.7-9.1-5.6-13.2-7-20.5c-0.6-3.5-5-5.4-7.7-3.4
	c-18.8,13.7-7.5,57.4,2.1,71.4c2.7,3.9,6.4,7.8,7.8,12.5c2.2,7.1-2.3,14.4-5.2,18.2c-1.7,2.2-3.6,4.3-5.6,6.5
	c-3.4,3.8-6.8,7.6-9.6,12.3c-5.1,9-6.2,20-2.9,31c3.9,12.6,12.3,23.4,23.6,30.3c10.4,6.3,22.9,9.8,37.2,10.6c12.5,0.6,25-0.8,37-4.2
	c12.3-3.5,20.2-8.6,25.2-13.9c3.9-3.9,6.6-8.8,8-14.1c3.5-13.9-3.1-25.4-9-35.6c-1.4-2.4-2.8-4.9-4.1-7.3c-5.7-11-7.1-23.3-3.8-33.9
	c0.9-2.7,2-5.3,3.1-7.9c3.8-8.6,8-18.4,3.1-29.2c-3.9-8.6-12.6-8-17.3-1.4l-13.3,18.5c-0.4,0.6-0.9,1.2-1.5,1.7
	c-0.3,0-1-0.1-3.2-1.1c-3-1.4-6-2.9-9-4.3l-5.9-102.2l4.8-6.3c1.3-1.7,2.1-3.7,2.4-5.9h3c6.1,0.1,5.7-9.5-0.6-9.6l-4.3,0
	c-0.3-0.9-0.6-1.9-0.9-2.9h5.1c6.1,0.1,5.7-9.5-0.5-9.6l-6.6-0.1c-0.1-0.8-0.2-1.7-0.3-2.5l8.1,0.1c2.6-0.6,4.3-3.3,3.6-5.9
	C187.6,16.7,186,15.2,183.9,14.9L183.9,14.9z M174.2,225.6l-8.8-0.1l-9.2-161.2l8.8,0.1L174.2,225.6z M185.6,176.5
	c0,0,6.2,3.1,10.6,1.5c2.9-1,4.6-3.4,5.7-4.9l13.3-18.5c0.3-0.4,0.5-0.7,0.7-0.9c3,6.7,0,13.7-3.3,21.2c-1.3,2.9-2.5,5.8-3.5,8.9
	c-4,12.9-2.3,28,4.5,41.3c1.4,2.6,2.9,5.2,4.3,7.7c5.6,9.7,10.5,18.1,7.9,28.3c-3.3,13.1-18.4,19.2-27,21.6
	c-19,5.4-46.4,6.8-66.4-5.3c-9.1-5.5-15.8-14.2-18.9-24.3c-1.8-6-2.8-14.9,2.2-23.7c2.2-3.9,5.2-7.2,8.5-10.8c2-2.2,4.1-4.6,6-7.1
	c6.8-8.8,9.1-18.3,6.6-26.5c-1.4-4.7-4.2-8.5-6.8-12.2c-10.3-14-15.1-25.2-12.1-34.1c1.4-4,4.5-7.5,6.4-7.1c1.9,0.4,1.8,4.7,7.3,9.9
	l0,0c5.4,6.7,10.4,13.8,14.7,21.2c2.6,4.4,4.9,8.6,6.8,12.7c1,18.3,1.9,36.5,2.9,54.8c0.2,2.7,2.4,4.8,5.1,4.9l18.4,0.2
	c2.5,0,4.5-1.9,4.5-4.4c0-0.1,0-0.2,0-0.3l-3.2-56.2L185.6,176.5L185.6,176.5z"/>
</svg>
