<svg id="Calque_1" data-name="Calque 1" xmlns="http://www.w3.org/2000/svg" viewBox="0 0 350 300"><title>selected</title><path d="M113.55,214.91c-1.1,4-3.91,14.09-5.57,20.06l-5.57-20.06h11.14M130,56H86A11,11,0,0,0,75,67v124.6a11,11,0,0,0,11,11h7.33A3.68,3.68,0,0,1,97,206.25v7.33a4.06,4.06,0,0,0,.13,1l7.33,26.38a3.66,3.66,0,0,0,7.06,0l7.33-26.38a3.63,3.63,0,0,0,.14-1v-7.33a3.67,3.67,0,0,1,3.66-3.67H130a11,11,0,0,0,11-11V67a11,11,0,0,0-11-11ZM82.33,70.66V67A3.66,3.66,0,0,1,86,63.33h44A3.66,3.66,0,0,1,133.63,67v3.67Zm0,22V78h51.3v88H82.33V100h0V92.65Zm0,87.95v-7.33h51.3v7.33ZM86,195.26a3.67,3.67,0,0,1-3.66-3.67v-3.66h51.3v3.66a3.67,3.67,0,0,1-3.66,3.67h-7.33a11,11,0,0,0-11,11v3.66h-7.33v-3.66a11,11,0,0,0-11-11Z"/><path d="M97.89,111.39h-.08a5.12,5.12,0,0,0-1.94.44,8.14,8.14,0,0,0-1.78,1.08,9.25,9.25,0,0,0-1.5,1.5,9.45,9.45,0,0,0-1.08,1.67l-.21.45a2,2,0,0,0-.13.32c0,.1-.06.2-.09.29s0,.22-.08.36l0,.22c0,.06.05.09.14.09h.1a3.57,3.57,0,0,0,.52-.13,4.41,4.41,0,0,0,.54-.24.67.67,0,0,0,.3-.27h0a9.21,9.21,0,0,1,.78-1.86,7.53,7.53,0,0,1,1.18-1.64,5.71,5.71,0,0,1,1.52-1.18,3.72,3.72,0,0,1,1.81-.46h0a1,1,0,0,1,.82.34,1.44,1.44,0,0,1,.32,1,4,4,0,0,1-.27,1,12.32,12.32,0,0,1-.6,1.35c-.25.5-.54,1-.87,1.58s-.7,1.12-1.1,1.7a13.59,13.59,0,0,0-1.52-.32,11.65,11.65,0,0,0-1.73-.12h-.42l-.43,0a9.77,9.77,0,0,0-2.49.47,8.56,8.56,0,0,0-2.19,1.06,5.69,5.69,0,0,0-1.58,1.59,3.63,3.63,0,0,0-.59,2,2.28,2.28,0,0,0,.89,2,4.73,4.73,0,0,0,2.66.61,4.9,4.9,0,0,0,2-.48,11.6,11.6,0,0,0,2.13-1.3A18.84,18.84,0,0,0,95,122.65,26.91,26.91,0,0,0,97,120.43c.36.12.72.25,1.08.4l1.12.47q-.47,1.24-.75,2.31a8.11,8.11,0,0,0-.34,1.82.67.67,0,0,0,.17.35,3.08,3.08,0,0,0,.37.44,4.32,4.32,0,0,0,.38.32.35.35,0,0,0,.14.07s0,0,0-.06a13.35,13.35,0,0,1,.45-2c.23-.79.53-1.65.88-2.58l.36.17,1.07.51a.68.68,0,0,0,.25-.1,1.3,1.3,0,0,0,.26-.17.61.61,0,0,0,.16-.17s0-.09,0-.11h0c-.3-.13-.6-.27-.89-.42l-.87-.47c.29-.72.61-1.44,1-2.18s.73-1.45,1.12-2.15.78-1.36,1.18-2a20.37,20.37,0,0,1,1.23-1.68.52.52,0,0,0-.1-.54,1.91,1.91,0,0,0-.48-.46,2,2,0,0,0-.58-.27l-.2,0a.21.21,0,0,0-.15,0c-.32.46-.67,1-1,1.66s-.75,1.35-1.13,2.1-.76,1.53-1.13,2.34-.72,1.61-1,2.39a18.68,18.68,0,0,0-1.84-.93c.39-.55.75-1.1,1.08-1.64a17.9,17.9,0,0,0,.85-1.59,13.32,13.32,0,0,0,.59-1.44,5.28,5.28,0,0,0,.27-1.23,1.91,1.91,0,0,0-.21-.89,2.12,2.12,0,0,0-.55-.71,2.86,2.86,0,0,0-.84-.47,3,3,0,0,0-1-.15Zm-9.82,13.94a2.38,2.38,0,0,1-.62-.09,1.86,1.86,0,0,1-.6-.29,2,2,0,0,1-.47-.53,1.91,1.91,0,0,1-.26-.75,2.1,2.1,0,0,1,.53-1.31A5.2,5.2,0,0,1,88,121.18a9,9,0,0,1,1.9-.91,7.91,7.91,0,0,1,2.09-.45l.47,0H93c.46,0,.89,0,1.3.06a9.06,9.06,0,0,1,1.18.17c-.53.69-1.1,1.36-1.7,2a14.32,14.32,0,0,1-1.84,1.69A9.85,9.85,0,0,1,90,124.89a4.46,4.46,0,0,1-1.9.44Z"/><path d="M107.46,117.5a3,3,0,0,0-1,.17,5.16,5.16,0,0,0-1,.47,5.38,5.38,0,0,0-.88.64,6,6,0,0,0-.62.66,8,8,0,0,0-1,1.74,3.74,3.74,0,0,0-.3,1.59,1.91,1.91,0,0,0,.62,1.39,2.39,2.39,0,0,0,1.63.51h.47a3.4,3.4,0,0,0,.65-.11,3.52,3.52,0,0,0,.76-.28,3.07,3.07,0,0,0,.79-.52,8.77,8.77,0,0,0,1.21-1.35c.33-.46.6-.87.83-1.24l.27-.44a.22.22,0,0,0,0-.24.24.24,0,0,0-.16-.13.39.39,0,0,0-.15,0h-.12a.37.37,0,0,0-.22.14l-.34.6c-.13.2-.26.42-.41.63a7.62,7.62,0,0,1-.88,1.07,5,5,0,0,1-.88.72,2.74,2.74,0,0,1-.8.38,1.6,1.6,0,0,1-.45.07.65.65,0,0,1-.2,0,.9.9,0,0,1-.56-.55,2.32,2.32,0,0,1-.18-.89v-.11a7.49,7.49,0,0,0,2.29-1.11,5.68,5.68,0,0,0,1.63-1.85,1.75,1.75,0,0,0,.34-.93.88.88,0,0,0-.33-.71,1.34,1.34,0,0,0-.86-.28Zm-2.92,4.41a7.06,7.06,0,0,1,.39-1,7.38,7.38,0,0,1,.67-1.14,4.57,4.57,0,0,1,.89-1,2.28,2.28,0,0,1,1.05-.53h.06a.21.21,0,0,1,.19.09.62.62,0,0,1,.08.33,1.19,1.19,0,0,1-.12.51,5.64,5.64,0,0,1-3.21,2.77Z"/><path d="M114.09,117.53a2.75,2.75,0,0,0-1.25.38,6.82,6.82,0,0,0-1.11.85.07.07,0,0,0,0-.05h0a.51.51,0,0,0-.09-.48,1.58,1.58,0,0,0-.44-.41,2,2,0,0,0-.56-.24.87.87,0,0,0-.26,0,.46.46,0,0,0-.21,0c-.11.42-.23.8-.36,1.15s-.26.69-.39,1c-.26.7-.51,1.4-.74,2.1a7.65,7.65,0,0,0-.4,2.1.46.46,0,0,0,.22.29,2.07,2.07,0,0,0,.45.27,1.79,1.79,0,0,0,.46.13h.07c.09,0,.15,0,.15-.11a9.16,9.16,0,0,1,.33-1.81,15.2,15.2,0,0,1,.62-1.71c.29-.36.58-.69.85-1s.58-.59.91-.89a1.87,1.87,0,0,1,.58-.41l.08,0c.07,0,.1,0,.1.11a1.52,1.52,0,0,1-.08.44,4.91,4.91,0,0,1-.19.53l-.45,1.08-.33.88a6.93,6.93,0,0,0-.22.76,3.47,3.47,0,0,0-.1.71,1.39,1.39,0,0,0,.1.63,1.1,1.1,0,0,0,.31.44,1.43,1.43,0,0,0,.45.26,1.91,1.91,0,0,0,.54.08,1.74,1.74,0,0,0,1-.3,5.64,5.64,0,0,0,.9-.73,7,7,0,0,0,.76-.89c.23-.3.41-.56.54-.77l.74-1.23a.12.12,0,0,0,0-.17.5.5,0,0,0-.18-.11.71.71,0,0,0-.2,0h0a.25.25,0,0,0-.17.08l-.22.4c-.16.27-.33.54-.51.8a6.64,6.64,0,0,1-1.12,1.34,4.28,4.28,0,0,1-.92.67l-.1,0a.13.13,0,0,1-.1,0,.17.17,0,0,1,0-.15,7.07,7.07,0,0,1,.09-.72,4.91,4.91,0,0,1,.17-.63c.07-.2.15-.41.24-.61l.29-.68c.13-.28.27-.6.43-1s.33-.79.49-1.23a.5.5,0,0,0-.05-.35,1.47,1.47,0,0,0-.25-.38,2,2,0,0,0-.36-.29.73.73,0,0,0-.37-.12Z"/><path d="M121.32,117.53a2.72,2.72,0,0,0-1.25.38,6.42,6.42,0,0,0-1.11.85.43.43,0,0,0,0-.05h0a.53.53,0,0,0-.09-.48,1.58,1.58,0,0,0-.44-.41,2.1,2.1,0,0,0-.56-.24.87.87,0,0,0-.26,0,.46.46,0,0,0-.21,0c-.11.42-.23.8-.36,1.15l-.39,1c-.26.7-.51,1.4-.74,2.1a8.05,8.05,0,0,0-.41,2.1.48.48,0,0,0,.23.29,2.07,2.07,0,0,0,.45.27,1.68,1.68,0,0,0,.46.13h.07c.09,0,.14,0,.15-.11a9.16,9.16,0,0,1,.33-1.81,13.46,13.46,0,0,1,.62-1.71c.29-.36.57-.69.85-1s.57-.59.9-.89a2,2,0,0,1,.59-.41l.08,0c.07,0,.1,0,.1.11a1.52,1.52,0,0,1-.08.44c0,.17-.12.34-.19.53l-.45,1.08-.33.88c-.09.27-.17.52-.23.76a3.45,3.45,0,0,0-.09.71,1.55,1.55,0,0,0,.09.63,1.12,1.12,0,0,0,.32.44,1.43,1.43,0,0,0,.45.26,1.91,1.91,0,0,0,.54.08,1.77,1.77,0,0,0,1-.3,5.64,5.64,0,0,0,.9-.73,7,7,0,0,0,.76-.89c.23-.3.41-.56.54-.77l.74-1.23a.14.14,0,0,0,0-.17.61.61,0,0,0-.18-.11.71.71,0,0,0-.2,0h0a.22.22,0,0,0-.16.08l-.22.4c-.16.27-.33.54-.51.8A6.64,6.64,0,0,1,121.8,123a4.54,4.54,0,0,1-.92.67l-.1,0a.16.16,0,0,1-.11,0,.21.21,0,0,1,0-.15,7.07,7.07,0,0,1,.09-.72,4.91,4.91,0,0,1,.17-.63c.07-.2.15-.41.24-.61l.29-.68c.12-.28.27-.6.43-1s.33-.79.49-1.23a.5.5,0,0,0,0-.35,1.78,1.78,0,0,0-.25-.38,2,2,0,0,0-.36-.29.76.76,0,0,0-.37-.12Z"/><path d="M130,114.16h0l-2.18,2.34c0,.1,0,.17.11.2h.1a.49.49,0,0,0,.28-.09h0l.57-.31h0l.87-.47c.28-.17.6-.38,1-.64,0,0,0-.12,0-.25a2.75,2.75,0,0,0-.2-.38,1.81,1.81,0,0,0-.26-.33.25.25,0,0,0-.15-.09Zm-2.21,3.34a3,3,0,0,0-1,.17,5.16,5.16,0,0,0-1,.47,5.38,5.38,0,0,0-.88.64,5.15,5.15,0,0,0-.62.66,8,8,0,0,0-1,1.74,3.74,3.74,0,0,0-.3,1.59,1.91,1.91,0,0,0,.62,1.39,2.39,2.39,0,0,0,1.63.51h.47a3.53,3.53,0,0,0,.65-.11,3.73,3.73,0,0,0,.76-.28,3.25,3.25,0,0,0,.79-.52,9.23,9.23,0,0,0,1.2-1.35c.33-.46.61-.87.84-1.24l.27-.44a.22.22,0,0,0,0-.24.26.26,0,0,0-.17-.13.32.32,0,0,0-.14,0h-.12a.37.37,0,0,0-.22.14l-.34.6c-.13.2-.26.42-.41.63a7.62,7.62,0,0,1-.88,1.07,5.37,5.37,0,0,1-.88.72,2.74,2.74,0,0,1-.8.38,1.6,1.6,0,0,1-.45.07.71.71,0,0,1-.21,0,.88.88,0,0,1-.55-.55,2.32,2.32,0,0,1-.18-.89v-.11a7.49,7.49,0,0,0,2.29-1.11,5.68,5.68,0,0,0,1.63-1.85,1.84,1.84,0,0,0,.34-.93.88.88,0,0,0-.33-.71,1.36,1.36,0,0,0-.86-.28Zm-2.92,4.41a6.09,6.09,0,0,1,.39-1,7.31,7.31,0,0,1,.66-1.14,4.89,4.89,0,0,1,.9-1,2.28,2.28,0,0,1,1-.53h.06a.23.23,0,0,1,.19.09.62.62,0,0,1,.07.33,1.17,1.17,0,0,1-.11.51,5.79,5.79,0,0,1-1.36,1.72,5.87,5.87,0,0,1-1.85,1Z"/><polygon points="195.29 104.52 192.28 107.53 186.3 105.54 187.21 112.23 193.43 114.3 196.43 111.31 195.29 104.52 195.29 104.52"/><path d="M164.93,134.64a.35.35,0,0,1,.3.17l4.88,7.31h-1.87l-4-6.92a.35.35,0,0,1-.06-.19.37.37,0,0,1,.36-.37h.42m0-5h-.42a5.37,5.37,0,0,0-4.63,8.07l5.49,9.41h7.42l3.33-5L169.39,132a5.35,5.35,0,0,0-4.46-2.39Z"/><path d="M188.35,84.7a4.11,4.11,0,0,0-3,1.2,4,4,0,0,0-1.19,2.88v.46a3.64,3.64,0,0,0,0,.57L185.55,100l5.38,1.8,3.36-3.35-1.71-10.22a4.25,4.25,0,0,0-4.23-3.55Z"/><polygon points="173.3 160.72 175.38 164.28 176.09 161.42 173.3 160.72 173.3 160.72"/><polygon points="180.55 173.15 183.01 177.37 183.7 173.93 180.55 173.15 180.55 173.15"/><polygon points="221.57 104.67 211.58 104.67 211.58 109.67 221.57 109.67 221.57 104.67 221.57 104.67"/><path d="M221.57,114.66h-10v12.49h10V114.66Zm-7.49,7.49v-5h5v5Z"/><path d="M244.74,84.7a4.07,4.07,0,0,0-4.14,3.38L240,91.51l4.39,2.92,4.09-1.36.48-3.25a3.41,3.41,0,0,0,.05-.63,4.34,4.34,0,0,0-4.29-4.49Z"/><polygon points="239.13 96.91 237.91 104.17 242.45 106.95 246.6 105.68 247.67 98.61 243.67 99.94 239.13 96.91 239.13 96.91"/><path d="M216.57,77.21a5,5,0,0,0-5,5V99.68h10V82.2a5,5,0,0,0-5-5Z"/><path d="M221.56,204.55V212h10v5h-25v-5h10v-7.49h5m0-28.93v13.94h-5V175.62l-5,5v16.45h-5V185.61l-5,5V207h-5V195.59l-2.5,2.5V222H244V198.09l-2.5-2.5V207h-5V190.6l-5-5v11.45h-5V180.61l-5-5Zm-5,23.93v-5h5v5Zm10,7.49v-5h5v5Zm-20,0v-5h5v5Zm30,10v-5h5v5Zm-40,0v-5h5v5Z"/><path d="M234,154.69a14.54,14.54,0,0,0-7.41,3.89v1h-.08a12.62,12.62,0,0,1,2.58,2.58v-.08h1a14.37,14.37,0,0,0,3.9-7.41Z"/><path d="M204.17,154.69a14.54,14.54,0,0,0,3.89,7.41h1v.08a12.62,12.62,0,0,1,2.58-2.58h-.08v-1a14.44,14.44,0,0,0-7.41-3.9Z"/><path d="M206,167.11a14.65,14.65,0,0,0-8,2.48,14.63,14.63,0,0,0,8.14,2.5h.68a11,11,0,0,1-.07-4.32l-.06.06-.72-.72Z"/><path d="M219.07,148.54a14.65,14.65,0,0,0-2.48,8l.72.72-.06.06a12.2,12.2,0,0,1,1.82-.18,12.07,12.07,0,0,1,1.82.18l-.06-.06.73-.72a14.66,14.66,0,0,0-2.49-8Z"/><path d="M219.07,162.1a7.5,7.5,0,0,0-7.49,7.49,7.35,7.35,0,0,0,.75,3.21l.71-.71a8.72,8.72,0,0,1,12.06,0l.71.71a7.35,7.35,0,0,0,.75-3.21,7.5,7.5,0,0,0-7.49-7.49Z"/><polygon points="262.41 154.46 259.87 155.73 261.2 158.38 262.41 154.46 262.41 154.46"/><path d="M270.32,112.17a3.63,3.63,0,0,0-3.28,2L265,118.34l7.62,3,1.26-4.08a3.62,3.62,0,0,0,.16-1.08v-.39a3.67,3.67,0,0,0-3.68-3.67Z"/><path d="M195.64,137l.68,4.08a10.15,10.15,0,0,0,1.17,3.33h-.89a9.5,9.5,0,0,0-.09-1.05l-.87-6.36m66.09,2.61-1.45,4.71-3.64,1.82,3.27-6.53h1.82m-25.16,2.62a10.47,10.47,0,0,0,.38,2.18h-.22l-1.09,0a10.24,10.24,0,0,0,.93-2.2m7.65,9.46a10.7,10.7,0,0,0,2.67.4l1.81,3.61,2.76,5.52L247.94,163a24.28,24.28,0,0,0-5-3.29,24.56,24.56,0,0,0,1.26-7.77v-.22M194,153.41a24.41,24.41,0,0,0,1.22,6.3,24.22,24.22,0,0,0-6.38,4.58l-.49.49-2.59-.65L187,159l.5-2a10.72,10.72,0,0,0,6.46-3.58M246.87,177l1.59,3.18a39,39,0,0,1-2.22,3.75l-.87,1.32-4.78-4.78a24.57,24.57,0,0,0,6.28-3.47M193,178.26a25.49,25.49,0,0,0,4.53,2.25l-4.37,4.37-1.1-1.9.94-4.72m44-68.77-5.12,30.79a5.2,5.2,0,0,1-10.33-.86v-7.28h-10v7.28a5.2,5.2,0,0,1-10.33.87l-3.82-22.93L194.78,120,188,117.74l3.59,26.33a5,5,0,0,1,.06.77v1.52a5.75,5.75,0,0,1-10.54,3.19l-1.95-2.93-3.65,5.49h-7.19l1.51,2.59,12.36,3.09-2.5,10,9.88,2.47-2.73,13.62,5.33,9.14,15.92-15.92h-1.89a19.7,19.7,0,0,1-13.82-5.72l-1.77-1.77,1.77-1.76a19.66,19.66,0,0,1,9.72-5.27,19.43,19.43,0,0,1-3.14-10.62v-2.5h2.5A19.43,19.43,0,0,1,212,152.58a19.66,19.66,0,0,1,5.27-9.72l1.76-1.77,1.77,1.77a19.66,19.66,0,0,1,5.27,9.72,19.38,19.38,0,0,1,10.62-3.14h2.49v2.5a19.43,19.43,0,0,1-3.14,10.62,19.66,19.66,0,0,1,9.72,5.27l1.77,1.76-1.77,1.77A19.69,19.69,0,0,1,232,177.08h-1.89l16.06,16.06,4.26-6.39A47.59,47.59,0,0,0,254,180.2l-5.86-11.72,10-5-5-10,11.26-5.63,6.68-21.68-8.39-3.35L252.12,144a5.59,5.59,0,0,1-10.58-2.5v-1.68a5.42,5.42,0,0,1,.06-.81l4.18-27.9-4,1.23L237,109.49Zm24.5,25.15v-5h5v5Z"/><polygon points="257.87 169.21 254.88 170.71 256.45 173.84 257.87 169.21 257.87 169.21"/><path d="M232.15,167.11l-.72.72-.06-.06a11,11,0,0,1-.07,4.32H232a14.66,14.66,0,0,0,8.15-2.5,14.71,14.71,0,0,0-8-2.48Z"/></svg>