<svg id="Calque_1" data-name="Calque 1" xmlns="http://www.w3.org/2000/svg" viewBox="0 0 350 300"><title>selected</title><g id="UIyuBT.tif"><path d="M218.19,63.26l.5,1.39.33.94.15.42-.69,3.64-.29-6.39M226,37.2H122c-3.46,1.23-6.23,3.26-7,7.06a22,22,0,0,0-.23,5.9c.55,6.31-1,12.1-3.24,18a384.09,384.09,0,0,0-21.11,82.57c-3.48,24.19-4,48.53-3.74,72.9.06,5.34.07,10.67.11,16H248.91c0-3.36.11-6.71.08-10.07-.1-13.83,0-27.66-.43-41.48a371,371,0,0,0-11.29-78.18,384.67,384.67,0,0,0-13.88-44c-.3-.79-.57-1.59-.94-2.62H233V58.63c0-3.16-.16-6.33,0-9.48.35-5.66-1.49-9.88-7.09-11.95ZM120.85,57.14c0-3.81-.14-7.55.1-11.27.06-.87,1.27-1.82,2.17-2.42a2.36,2.36,0,0,1,1.31-.28l1,0H215v14Zm100.29,0c0-3.93-.09-7.77.05-11.61A2.47,2.47,0,0,1,224,43.29h0c1.42,0,2.74.73,2.8,2.25.14,3.84.05,7.7.05,11.64ZM92.9,233.51a10.59,10.59,0,0,1-.16-1.43c.1-14.16,0-28.33.38-42.49a358.42,358.42,0,0,1,7.77-63.43A387.34,387.34,0,0,1,119.12,65c.46-1.17.92-1.73,2.33-1.73h0q45.26.08,90.52,0c.4,0,.79,0,1.46.07-1.6,4.43-3.14,8.61-4.63,12.82A385.51,385.51,0,0,0,190.5,152a404.17,404.17,0,0,0-3.63,57.34c0,7.38,0,14.76,0,22.14v2Zm149.84-4.33c-.33-.26-.74-.51-1.09-.84-6.52-6.14-13.05-12.27-19.52-18.47a3.86,3.86,0,0,1-1.13-2.5q-.09-64.6-.05-129.21c0-.06,0-.13.14-.72,17.72,49.37,23.64,99.94,21.65,151.74Zm-49.58.17c-1.9-51.93,3.94-102.46,21.67-151.85,0,1.12.11,1.73.11,2.33q0,63.55,0,127.1a4,4,0,0,1-1.36,3.25c-6.32,5.87-12.58,11.82-18.86,17.74-.47.45-1,.87-1.59,1.43Zm4.49,4.1c6.83-6.43,13.47-12.71,20.31-19.16l20.34,19.16Z"/><path d="M124.89,47.18H211v6H124.82c0-2,0-4,.07-6m-.46-4a2.36,2.36,0,0,0-1.31.28c-.9.6-2.11,1.55-2.17,2.42-.24,3.72-.1,7.46-.1,11.27H215v-14H125.42l-1,0Z"/><path d="M218,219.79l7.29,6.87,3,2.79h-20.5L218,219.79m0-5.5c-6.84,6.45-13.48,12.73-20.31,19.16H238.3L218,214.29Z"/><path d="M234.54,161.32l-5.95.7c.58,6.5,1.14,12.82,1.72,19.27l6-.33c-.61-6.64-1.19-13-1.79-19.64Z"/></g><path d="M170,131v37.83h-7.49V131H170m4-4H158.51v45.83H174V127Z"/><path d="M150.7,150.3v18.53H132V150.3H150.7m4-4H128v26.53H154.7V146.3Z"/><path d="M150.7,131v7.49H113V131h37.7m4-4H109v15.49h45.7V127Z"/><path d="M120.23,150.3V188H113V150.3h7.23m4-4H109V192h15.23V146.3Z"/><path d="M170,180.64V188H132v-7.36h38m4-4H128V192h46V176.64Z"/></svg>