<svg id="Calque_1" data-name="Calque 1" xmlns="http://www.w3.org/2000/svg" viewBox="0 0 350 300"><title>selected</title><g id="_1w5nsj" data-name="1w5nsj"><path d="M45.06,25.06l.44,3.17c-1.27.3-2.56.59-3.88.88l-.24.06,3.68-4.11m-18,12.71-.11.13-2.19,2.38-2.4-1.49L26.07,38l1-.21m28.43,11.9,1.85.55-2.92.65,1.07-1.2M39.87,59.53h0l-2.62,3-2.54-1.8,4.26-1,.91-.2m13.83,23c-.16.18-.33.36-.49.55l-1.76,2L49,83.55l3.77-.82.93-.19M51.33,14.06a46.26,46.26,0,0,0-4.87,2,9.83,9.83,0,0,0-2,2.17c-3.24,3.62-6.48,7.25-10,11.17-1.21-1.72-1.71-2.86-2.57-3.54A26.18,26.18,0,0,0,28,23.67,22.74,22.74,0,0,0,27.89,28c.2,1.21,1,2.32,1.73,4C24.3,33.3,19.4,34.18,14.67,35.6c-2.05.62-3.76,2.36-5.62,3.6,2,.34,4.1.68,6.15,1.06.28.05.52.3,1.34.81-3.62,2.16-7.12,4-10.28,6.27-1.17.84-1.55,2.77-2.28,4.21.26,0,.53,0,.8,0l1.33,0a5.2,5.2,0,0,0,2.37-.41c3.58-1.82,7-4,10.41-6.1l.76,1a13.9,13.9,0,0,0-2.18,3,12.66,12.66,0,0,0-.36,3.62c1.31-.27,2.82-.23,3.88-.9,1.21-.77,2-2.19,3-3.3,3.06-3.36,6.13-6.71,9.35-10.22l9.24,15.48c-5.5,1.29-10.38,2.23-15.12,3.63-2,.58-3.63,2.15-5.44,3.27,2,.47,4,.92,5.95,1.4.26.07.47.32,1.36,1C26,65,22.83,66.65,20,68.74c-1.38,1-2.12,2.88-3.15,4.36,1.77-.2,3.76.05,5.28-.69,3.4-1.65,6.56-3.79,9.81-5.73l.82,1.17a11.72,11.72,0,0,0-2,2.71,19.73,19.73,0,0,0-.62,4,13.94,13.94,0,0,0,3.8-1,13.71,13.71,0,0,0,2.74-2.88l9.63-10.84,10.14,17C51,78.05,46.1,78.92,41.37,80.34c-2.06.62-3.78,2.35-5.66,3.58,2.07.36,4.13.7,6.19,1.08.27,0,.51.31,1.31.81-3.62,2.16-7.13,4-10.31,6.29-1.15.83-1.49,2.76-2.2,4.19.36,0,.74,0,1.12,0h.67a5.9,5.9,0,0,0,2.67-.43c3.59-1.84,7-4.06,10.46-6.13l1,.94a5.61,5.61,0,0,0-.77,1.21c-.65,1.93-1.23,3.88-1.84,5.82,1.84-1,4-1.71,5.47-3.14,3.6-3.59,6.86-7.53,10.77-11.89,14.9,25,29.37,49.25,43.8,73.45,4.44-1.54,3.29-3.78,1.76-6.33Q86.72,117.83,67.68,85.83L64.2,80c6.2-1.51,11.67-2.66,17-4.22,1.8-.53,3.29-2.08,4.92-3.16-1.82-.44-3.64-.88-5.47-1.3-.52-.12-1.06-.18-2.87-.47,4.17-2.49,7.41-4.14,10.31-6.28,1.3-1,1.91-2.87,2.83-4.35-1.64.17-3.49-.09-4.87.59-3.39,1.69-6.56,3.81-9.82,5.75-.47-1.37-.34-1.67-.24-2,.65-2,1.28-3.94,1.91-5.92-1.85,1-4.08,1.58-5.49,3-3.82,3.85-7.29,8.05-11.27,12.54-3.57-6-6.75-11.33-10.36-17.38,5.37-1.26,10.24-2.16,15-3.62,2.37-.73,6.5.45,6.29-3.76,0-.76-4.18-1.33-6.87-2.12,3.31-2,6.89-3.89,10.18-6.22,1-.72,1.25-2.58,1.83-3.92H77c-.72,0-1.5-.1-2.22-.1a3.38,3.38,0,0,0-1.58.3c-3.6,1.87-7,4.09-10.53,6.18-.27-.4-.55-.8-.82-1.21a13.7,13.7,0,0,0,2.26-3.14c.39-1.06.12-2.36.14-3.56a12.92,12.92,0,0,0-3.54.84A11.34,11.34,0,0,0,58.32,39L47.42,51.17c-3.36-5.63-6.28-10.54-9.58-16.06,5.69-1.35,10.91-2.35,15.95-3.9,2-.63,3.72-2.45,5.56-3.72-2.09-.32-4.18-.61-6.26-1-.23,0-.4-.44-1-1.11,3.74-2.23,7.47-4.34,11-6.68.74-.49.9-1.88,1.33-2.85a12.68,12.68,0,0,0-3-1,1.75,1.75,0,0,0-.4.05,18.57,18.57,0,0,0-4.38,2.34c-2.38,1.4-4.74,2.82-7.11,4.24a4.22,4.22,0,0,1,.49-2.76c.49-1.55.82-3.15,1.22-4.73Z"/></g><polygon points="256.65 32.03 148.15 219.96 153.35 222.96 261.85 35.03 256.65 32.03 256.65 32.03"/><polygon points="30.52 22 25.79 24.82 148.22 230.08 152.95 227.26 30.52 22 30.52 22"/><path d="M257.14,222.83l0,.07h17.26l0,.06h26.92c.89.12,1.67.23,2.52.28,4,.27,4,1.61,4,3,0,1.6,0,3.11-4.19,3.11H150.19c-2.87,0-3.76-.69-4-.9a3.65,3.65,0,0,1-.5-2.24c0-1.72.05-3,4.33-3q21.75,0,43.51,0h55.53l-.15-.43h8.2m-14.89-60.57c-.28,1.6-1.18,3.4-.74,4.78,2.33,7.29,4.24,14.86,7.73,21.6,4.62,8.91.68,15.46-4.15,23-.9-2.19-1.65-3.81-2.25-5.49-4.76-13.32-9.41-26.69-14.34-39.95-.58-1.57-2.66-2.59-4-3.86-.1,1.78-.75,3.74-.22,5.3,4.29,12.43,8.82,24.78,13.24,37.17,1.49,4.17,2.88,8.39,4.61,13.43H193.56q-21.75,0-43.51,0c-6.21,0-9.23,2.64-9.33,7.88-.1,5.46,3,8.21,9.46,8.23H303.62c6,0,9.14-2.82,9.18-8.07,0-5-2.91-7.68-8.7-8.06-1.11-.07-2.22-.27-4-.5,1-2.2,1.71-4,2.56-5.73,7.08-14.51,14.25-29,21.18-43.57.82-1.72.34-4.06.47-6.11-1.51,1.42-3.55,2.57-4.45,4.3-4.15,8-8,16.12-11.94,24.18-3.34,6.79-6.71,13.55-10.43,21-4.06-7.94-6.59-14.51-1.43-22.27,4-6.05,6.77-13,9.72-19.67,1-2.27.9-5,1.3-7.54a6.38,6.38,0,0,0-.84-.06c-3.39,0-3.31,3.53-4.37,5.53-3.95,7.43-7.52,15.06-11.24,22.62-3.29-6.42-8-12.27-2.72-19.38a13.27,13.27,0,0,0,2.3-5c.26-1.18-.48-2.57-.78-3.87-1,.6-2.42,1-3.05,1.87a65,65,0,0,0-3.75,6.84c-1.25-3-1.75-5-2.83-6.58-.66-1-2.19-1.36-3.32-2a11.63,11.63,0,0,0-.8,3.46,8.92,8.92,0,0,0,1.31,3.74c5.05,8.29-.48,14.28-4.31,21.53-3.58-7.52-7.15-14.12-1.39-21.37a5.41,5.41,0,0,0,1.23-2.7,31.9,31.9,0,0,0-.32-4.76c-1.29,1-2.83,1.77-3.82,3-1.13,1.41-1.78,3.21-2.95,5.45-.84-1.51-1.11-2.11-1.48-2.64-1.39-1.94-3.8-5.63-4.13-5.63h0c-3.78,2.1-1.14,5.22,0,7.19,4.77,8.47-.79,14.26-4.69,22.07-3.41-9.55-6.26-17.85-9.4-26-.53-1.38-2.26-2.3-3.43-3.43Zm37.92,48.34c-6.32-7.76-5.85-16,1.62-25.37,6.63,9.19,5,17.47-1.62,25.37Zm-17.7.58c-5.85-11.54-5.37-17.16,2-25.86,6.06,9.4,5.65,15.55-2,25.86Zm-14.72,6.65c2.25-4.56,4.13-8.36,6-12.16l1.27-.12,4.35,12.28Zm34.64.13c2.24-4.51,4.14-8.37,6.05-12.22l1.32.09L294.2,218Zm-17.27-.06,5.95-12.16,1.43,0c1.36,3.89,2.71,7.78,4.22,12.12Z"/><path d="M149.93-1.76a30.57,30.57,0,0,0-2.11,4.4,12.21,12.21,0,0,0-.08,3.48c0,9.83,0,19.65,0,29.48,0,1.68-.28,3.35-.52,6.12-2.38-2.24-3.85-3.55-5.24-4.93-7.2-7.17-14.32-14.41-21.64-21.46-1-1-3-1-4.53-1.5.47,1.54.48,3.53,1.48,4.57,7.51,7.78,15.23,15.37,22.86,23.05,1,1,1.81,2.11,3.41,4-2.83.15-4.6.31-6.37.32H124.42c-6.07,0-12.15,0-18.22.12-1.52,0-3,1.25-4.53,1.92,1.54.8,3.06,2.28,4.62,2.31,5.53.11,11.06.13,16.59.13h14.89a47.85,47.85,0,0,1,4.9.5c.34.63.67,1.27,1,1.9a65.66,65.66,0,0,0-6.32,4.85C130.44,64.23,123.6,71.05,116.91,78c-.88.91-.73,2.81-1.06,4.25,1.43-.38,3.19-.38,4.22-1.24a87,87,0,0,0,7.14-7q9.31-9.66,18.57-19.37l1.69,1c.09,1.78.26,3.56.26,5.34,0,28.82-.11,57.64.13,86.46,0,5,1.66,10,2.55,14.94l2-.26v-108c2.14,1.94,3.35,2.94,4.45,4,7.67,7.63,15.27,15.35,23,22.87.92.89,2.8.8,4.24,1.16-.34-1.41-.21-3.27-1.07-4.17-6.92-7.2-14-14.22-21.09-21.3-1.7-1.72-3.37-3.47-6-6.19,3.15-.17,4.9-.35,6.64-.36h15.44c5.18,0,10.37,0,15.54-.12,1.61,0,3.2-1.42,4.79-2.19-1.64-.72-3.26-2-4.92-2.06-5-.1-10.08-.12-15.12-.12l-11.85,0h-4c-1.71,0-3.42-.22-6.29-.41,2.1-2.25,3.28-3.58,4.54-4.84,7.29-7.31,14.68-14.53,21.82-22,1-1.09,1-3.25,1.42-4.91-1.54.59-3.47.78-4.56,1.83-7.42,7.18-14.65,14.55-22,21.83-1.31,1.3-2.79,2.44-5.24,4.57V35c0-10.83.09-21.66-.09-32.48,0-1.44-1.42-2.86-2.18-4.28Z"/><polygon points="153 56 147 56 147 226 153 226 153 56 153 56"/><path d="M150.5,42a6.5,6.5,0,1,1-6.5,6.5,6.51,6.51,0,0,1,6.5-6.5m0-5A11.5,11.5,0,1,0,162,48.5,11.5,11.5,0,0,0,150.5,37Z"/><path d="M217.12,32.05c-.68,0-1.38.06-2.05.06l-.56,0c.76,1.39,1.22,3.15,2.36,4.07a56.32,56.32,0,0,0,6.81,4.17l15.11,8.93-.45,1.24c-6.11.15-12.22.19-18.32.54-1.13.07-2.19,1.43-3.28,2.19,1,.76,2,2,3.19,2.18a13.7,13.7,0,0,0,2.13.15c1.44,0,2.9-.15,4.35-.17l19.42-.26c-3.2,5.41-5.92,9.56-8.17,13.94-1.13,2.2-2.28,3.17-3.73,3.17a7.43,7.43,0,0,1-3.68-1.4c-8.47-5.3-17.14-10.28-25.84-15.21a2,2,0,0,0-1-.23c-.89,0-1.95.31-2.86.36.57,1.18.84,2.85,1.78,3.44,5.92,3.73,12,7.2,18,10.8,1.45.87,2.8,1.9,4.2,2.86-6.52,1.33-12.63,1.42-18.72,1.77-1,.06-2,1.25-3,1.92,1,.86,1.93,2.32,3,2.45a20.83,20.83,0,0,0,2.5.13c1.82,0,3.66-.16,5.48-.18,5.57-.09,11.14-.15,18.11-.23l-4.64,7.84c-3.53,6-5.05,8.54-7.59,8.54-1.92,0-4.44-1.49-8.86-4.1-6.6-3.9-13.16-7.87-19.86-11.59a3.19,3.19,0,0,0-1.51-.31c-.89,0-1.88.19-2.77.19h-.06c.66,1.3,1,3.12,2,3.81,4.59,3,9.4,5.69,14.13,8.49l7.8,4.61L210,97.61c-6.09.16-12.18.24-18.26.58-1,0-2,1.26-3,1.94,1,.85,1.89,2.11,3,2.46a5.36,5.36,0,0,0,1.46.18c1,0,2-.18,3-.19l21.25-.33c-1.36,2.6-2.17,4.34-3.15,6Q182.9,161.6,151.42,215c-1.16,2-1.14,4.65-1.66,7,1.8-1.57,4.17-2.82,5.33-4.77q31.85-53.47,63.44-107.08c1.24-2.11,2.66-4.12,4.3-6.64l4.59,2.71c8.47,5,16.9,10.06,25.46,14.88a2,2,0,0,0,1,.23c1,0,2.2-.42,3.24-.51-.64-1.16-1-2.75-2-3.41-3.44-2.33-7.1-4.34-10.68-6.47q-6.48-3.83-12.95-7.66a6.2,6.2,0,0,1,3.83-1.43c5-.14,10-.11,15-.46,1.13-.08,2.17-1.46,3.24-2.24a13.76,13.76,0,0,0-3.3-2.09,5.25,5.25,0,0,0-1.54-.19c-.8,0-1.64.1-2.44.11l-20.17.33c3.08-5.22,5.7-9.2,7.85-13.42,1.07-2.11,2.19-3,3.57-3a7.06,7.06,0,0,1,3.5,1.31c8.51,5.25,17.16,10.27,25.84,15.23a3.24,3.24,0,0,0,1.59.32c.68,0,1.42-.09,2.1-.09h.27c-.59-1.31-.82-3.18-1.83-3.82-6.33-4-12.85-7.72-19.28-11.57-1.43-.86-2.77-1.88-4.15-2.82,5.38-1.21,10.35-1.05,15.26-1.52,2.26-.21,4.4-1.65,6.6-2.54-2.18-.67-4.34-1.88-6.53-1.92-1.14,0-2.27,0-3.41,0-5.42,0-10.93.24-17,.37,3.75-6.33,6.9-11.67,10.29-17.41l5.07,3c8,4.75,16,9.58,24.14,14.16a5,5,0,0,0,2.45.45H284c.29,0,.57,0,.84,0-.87-1.48-1.39-3.52-2.68-4.34-6-3.85-12.3-7.35-18.45-11-1.43-.85-2.75-1.87-4.12-2.82,5.1-1.14,9.77-1,14.37-1.45a4,4,0,0,1,.49,0c1.1,0,2.34.3,3.5.3,1.51,0,2.86-.52,3.47-2.94-2.52-.61-5-1.66-7.56-1.74-1.55-.05-3.1-.06-4.65-.06-4.62,0-9.18.16-13.44.22-.09-2.85-.16-4.82-.22-6.79-1.66,1.26-3.74,2.23-4.89,3.85a3.13,3.13,0,0,1-2.52,1.68,6.35,6.35,0,0,1-2.94-1.19C236.56,42.54,228,37.4,219.28,32.48a4.29,4.29,0,0,0-2.16-.43Z"/></svg>