<svg id="Calque_1" data-name="Calque 1" xmlns="http://www.w3.org/2000/svg" viewBox="0 0 350 300"><title>selected</title><path d="M105.51,57A15.19,15.19,0,0,0,99,62.29l1.09-4.11A34.88,34.88,0,0,1,105.51,57M42.25,111.67a15.27,15.27,0,0,0-6.13,5.77,35.72,35.72,0,0,1,1.9-5.25l4.23-.52m67.68-59.94A40,40,0,0,0,83.79,61.5l-40.23,35h0A40.07,40.07,0,0,0,30,123.74l-3,43.65a33.75,33.75,0,0,0,31.3,36l87.28,6c.79.05,1.58.08,2.36.08a33.67,33.67,0,0,0,33.59-31.38l6-87.29a33.74,33.74,0,0,0-31.29-35.95l-43.65-3c-.89-.06-1.79-.09-2.69-.09ZM147.9,190a14.27,14.27,0,0,0,14.23-13.28l6-87.29a14.26,14.26,0,0,0-13.25-15.21l-53.66-3.71,0-.33a10.06,10.06,0,0,1,10-9.35c.24,0,.47,0,.71,0l43.64,3a24.65,24.65,0,0,1,22.87,26.27l-6,87.29a24.61,24.61,0,0,1-24.55,22.92c-.57,0-1.14,0-1.72-.06l-87.29-6A24.66,24.66,0,0,1,36,168l3-43.65a10.06,10.06,0,0,1,10-9.35l.7,0,.32,0-3.71,53.66a14.26,14.26,0,0,0,13.24,15.21l87.29,6c.33,0,.66,0,1,0ZM46.77,106.09a28.35,28.35,0,0,1,2.75-2.73l40.23-35A31.58,31.58,0,0,1,92.82,66a19.25,19.25,0,0,0-.59,3.58l-1,14.56a24.66,24.66,0,0,1-24.55,22.93c-.57,0-1.14,0-1.72-.06L50.4,106c-.43,0-.87,0-1.3,0a17.88,17.88,0,0,0-2.33.15Zm19.9,10a33.75,33.75,0,0,0,33.61-31.38l.35-5.17L154.3,83.3a5.17,5.17,0,0,1,4.81,5.52l-6,87.29a5.18,5.18,0,0,1-5.17,4.83h-.36l-87.29-6a5.23,5.23,0,0,1-3.55-1.77,5.12,5.12,0,0,1-1.26-3.76l3.71-53.67,5.18.36c.78.06,1.57.08,2.34.08Z"/><path d="M280.5,121.37v49.5h-41v-49.5h41M254.34,39.88h-17a2.83,2.83,0,0,0-2.83,2.83v17a2.84,2.84,0,0,0,2.83,2.84H243v2.83a31.19,31.19,0,0,0-31,28.33h-3a2.83,2.83,0,0,0-2.83,2.83V195.7a2.83,2.83,0,0,0,2.83,2.83h73.66a2.83,2.83,0,0,0,2.83-2.83V96.54a2.83,2.83,0,0,0-2.83-2.83h-3a31.19,31.19,0,0,0-31-28.33V62.55h5.67a2.84,2.84,0,0,0,2.83-2.84v-17a2.83,2.83,0,0,0-2.83-2.83Zm-14.17,17V45.55H251.5v2.83h-2.83a2.84,2.84,0,0,0,0,5.67h2.83v2.83ZM217.66,93.71A25.55,25.55,0,0,1,243,71h5.66A25.54,25.54,0,0,1,274,93.71Zm-5.82,99.15V99.37h68v17H237.34a2.84,2.84,0,0,0-2.83,2.84V173a2.84,2.84,0,0,0,2.83,2.84h42.49v17Z"/><path d="M268.5,48.38h-2.83a2.84,2.84,0,0,0,0,5.67h2.83a2.84,2.84,0,1,0,0-5.67Z"/><path d="M279.83,48.38H277a2.84,2.84,0,0,0,0,5.67h2.83a2.84,2.84,0,1,0,0-5.67Z"/><path d="M291.17,48.38h-2.84a2.84,2.84,0,0,0,0,5.67h2.84a2.84,2.84,0,0,0,0-5.67Z"/><path d="M279.12,35.4a2.89,2.89,0,0,0-.91.15l-2.69.9a2.83,2.83,0,1,0,1.8,5.37l2.68-.9a2.83,2.83,0,0,0-.88-5.52Z"/><path d="M268.36,39a2.83,2.83,0,0,0-.9.15l-2.69.9a2.83,2.83,0,0,0,.9,5.52,2.88,2.88,0,0,0,.9-.15l2.68-.89a2.84,2.84,0,0,0-.89-5.53Z"/><path d="M289.85,31.82A3.06,3.06,0,0,0,289,32l-2.68.9a2.83,2.83,0,0,0,.89,5.52,3.06,3.06,0,0,0,.89-.14l2.69-.9a2.83,2.83,0,0,0-.9-5.52Z"/><path d="M276.42,60.46a2.83,2.83,0,0,0-.9,5.52l2.69.9A2.83,2.83,0,0,0,280,61.5l-2.68-.89a2.88,2.88,0,0,0-.9-.15Z"/><path d="M287.17,64.05a2.83,2.83,0,0,0-.9,5.52l2.69.9a3.13,3.13,0,0,0,.9.14,2.83,2.83,0,0,0,.89-5.52l-2.69-.9a3,3,0,0,0-.89-.14Z"/><path d="M265.67,56.88a2.83,2.83,0,0,0-.9,5.52l2.69.9a2.83,2.83,0,0,0,1.79-5.38L266.57,57a2.88,2.88,0,0,0-.9-.15Z"/><path d="M246.27,121.45v49.18H216.61V121.45h29.66m5-5H211.61v59.18h39.66V116.45Z"/></svg>