<svg id="Calque_1" data-name="Calque 1" xmlns="http://www.w3.org/2000/svg" viewBox="0 0 350 300"><title>selected</title><path d="M186.46,7.5H149.54c-5.09,0-9.23,5.45-9.23,12.15,0,5.28,2.58,9.73,6.16,11.41V56.11H125.86c-7.38,0-14,6.17-16.4,15.35a325.51,325.51,0,0,0,0,163.73c2.42,9.18,9,15.35,16.4,15.35h84.28c7.38,0,14-6.17,16.4-15.35a325.51,325.51,0,0,0,0-163.73c-2.42-9.18-9-15.35-16.4-15.35H189.53v-25c3.58-1.68,6.16-6.13,6.16-11.41,0-6.7-4.14-12.15-9.23-12.15ZM149.54,23.71c-1.7,0-3.07-1.82-3.07-4.06s1.37-4,3.07-4h36.92c1.7,0,3.07,1.82,3.07,4s-1.37,4.06-3.07,4.06ZM161.85,48h12.3c1.7,0,3.08-1.82,3.08-4V31.81h6.15v24.3H152.62V31.81h6.15V44c0,2.23,1.38,4,3.08,4Zm3.07-8.1v-8.1h6.16v8.1ZM125.86,242.44c-4.77,0-9-4-10.59-9.91a315.09,315.09,0,0,1,0-158.41c1.56-5.93,5.82-9.91,10.59-9.91h84.28c4.77,0,9,4,10.59,9.91a315.09,315.09,0,0,1,0,158.41c-1.56,5.93-5.82,9.91-10.59,9.91Z"/><path d="M168,115.18a3.63,3.63,0,0,0-2.09.63c-1.42,1-34.83,25.06-34.83,46.8,0,24.48,19.07,33.2,36.92,33.2s36.92-8.72,36.92-33.2c0-21.74-33.41-45.79-34.83-46.8a3.63,3.63,0,0,0-2.09-.63Zm0,75.89c-19.26,0-30.76-10.64-30.76-28.46,0-16.73,23.52-36.17,30.76-41.75,7.24,5.57,30.76,25,30.76,41.75,0,17.82-11.5,28.46-30.76,28.46Z"/><path d="M168,129.41a3.55,3.55,0,0,0-2.12.65c-.54.4-13.26,9.84-13.26,18.62,0,10.28,8.28,13.93,15.38,13.93s15.38-3.65,15.38-13.93c0-8.78-12.72-18.22-13.26-18.62a3.57,3.57,0,0,0-2.12-.65Zm0,28.46c-5.86,0-9.23-3.35-9.23-9.19,0-4.59,5.5-10.29,9.23-13.49,3.73,3.19,9.23,8.9,9.23,13.49,0,5.84-3.37,9.19-9.23,9.19Z"/><polygon points="158.77 176.84 152.62 176.84 152.62 181.58 158.77 181.58 158.77 176.84 158.77 176.84"/><polygon points="171.08 176.84 164.92 176.84 164.92 181.58 171.08 181.58 171.08 176.84 171.08 176.84"/><polygon points="183.38 176.84 177.23 176.84 177.23 181.58 183.38 181.58 183.38 176.84 183.38 176.84"/></svg>