<svg id="Calque_1" data-name="Calque 1" xmlns="http://www.w3.org/2000/svg" viewBox="0 0 350 300"><title>selected</title><path d="M153.36,13H101.18a3.73,3.73,0,0,0-3.73,3.73V31.64a3.73,3.73,0,0,0,3.73,3.72h3.73v10A26.11,26.11,0,0,0,90,68.91V218a26.13,26.13,0,0,0,26.09,26.09H227.91A26.13,26.13,0,0,0,254,218V68.91a26.12,26.12,0,0,0-26.09-26.09H149.64V35.36h3.72a3.72,3.72,0,0,0,3.73-3.72V16.73A3.72,3.72,0,0,0,153.36,13ZM104.91,27.91V20.45h44.73v7.46Zm7.45,15.21V35.36h29.82v7.46H116.09a25.59,25.59,0,0,0-3.73.3Zm72.37,22.06L169.82,50.27h58.09a18.67,18.67,0,0,1,18.64,18.64V127l-14.91-14.91V76.36a11.2,11.2,0,0,0-11.19-11.18ZM116.09,236.64A18.67,18.67,0,0,1,97.45,218V68.91a18.67,18.67,0,0,1,18.64-18.64h43.18l87.28,87.27V218a18.67,18.67,0,0,1-18.64,18.64Zm108.09-132-32-32h28.27a3.73,3.73,0,0,1,3.73,3.72v28.28Z"/><path d="M153.25,61.73l81.84,81.84v70.7a10.92,10.92,0,0,1-10.91,10.91H119.82a10.92,10.92,0,0,1-10.91-10.91V72.64a10.92,10.92,0,0,1,10.91-10.91h33.43m.11-4H119.82a14.92,14.92,0,0,0-14.91,14.91V214.27a14.92,14.92,0,0,0,14.91,14.91H224.18a14.92,14.92,0,0,0,14.91-14.91V143.45a3.71,3.71,0,0,0-1.09-2.63l-82-82a3.71,3.71,0,0,0-2.64-1.09Z"/><path d="M168.27,144.68,179,164.26a32.48,32.48,0,0,1,4,15.53v.94A14.65,14.65,0,0,1,178,191.67a14.4,14.4,0,0,1-9.71,3.69,15.86,15.86,0,0,1-1.82-.1c-7.19-.85-12.82-7.65-12.82-15.47a32.57,32.57,0,0,1,4-15.54l10.67-19.57m0-8.35-14.18,26a36.6,36.6,0,0,0-4.45,17.46c0,9.82,7.18,18.36,16.35,19.44a19.66,19.66,0,0,0,2.29.13,18.63,18.63,0,0,0,18.63-18.63v-.94a36.54,36.54,0,0,0-4.45-17.45l-14.19-26Z"/><path d="M167.78,125.35l16.83,30.85a48.4,48.4,0,0,1,5.89,23.1v1.35a22.71,22.71,0,0,1-7.64,17,22.32,22.32,0,0,1-15.07,5.73,24.19,24.19,0,0,1-2.81-.16c-11.17-1.32-19.91-11.82-19.91-23.9A48.35,48.35,0,0,1,151,156.19l16.82-30.84m0-8.35-20.34,37.28a52.42,52.42,0,0,0-6.37,25c0,14.08,10.3,26.32,23.44,27.87a28,28,0,0,0,3.28.19,26.41,26.41,0,0,0,17.73-6.74,26.73,26.73,0,0,0,9-20V179.3a52.36,52.36,0,0,0-6.38-25L167.78,117Z"/></svg>