<svg id="Calque_1" data-name="Calque 1" xmlns="http://www.w3.org/2000/svg" viewBox="0 0 350 300"><defs><style>.cls-1{fill:none;stroke:#000;stroke-miterlimit:10;stroke-width:5px;}</style></defs><title>selected</title><path class="cls-1" d="M276.39,180c-2-.49-2.24-1.35-2.24-3.05q.06-32.12,0-64.24c0-.89.09-1.78.14-2.86,1.67,0,3.08.07,4.48,0a9.87,9.87,0,0,0,1.92-19.38,16.4,16.4,0,0,0-4-.35H159.51c-.66,0-1.51-.2-2,.13-1,.71-2.35,1.61-2.5,2.59a4.42,4.42,0,0,0,1.56,3.26c.67.61,2,.58,3.1.58q34.62,0,69.24,0,24.12,0,48.25,0c2.63,0,4.18,1.23,4.24,3.21s-1.61,3.4-4.29,3.44c-.34,0-.67,0-1,0H75.91a16.87,16.87,0,0,1-2.25,0A3.18,3.18,0,0,1,70.6,100a3.11,3.11,0,0,1,3.14-3.23,15.57,15.57,0,0,1,2.5,0c1.72.3,26.6.33,83.47,0,20.73-1.39,25.11-2.52,25.11-3.3,0-1.46-15-2.8-25.31-3.26-2.7-.11-8.2-.3-17.66,0-9.09.29-24.56.09-55.5,0l-9.27,0c-1.55,0-2.71-.07-3.86,0a9.88,9.88,0,0,0,.24,19.73c1.37.06,2.75,0,4.13,0a12.15,12.15,0,0,1,.21,1.35q0,33.24,0,66.49c0,1.55-.7,1.86-2,2.19A15.23,15.23,0,0,0,64,195.49c.32,7.2,5.62,13,13,14.34a11.85,11.85,0,0,1,1.43.47v2.84q0,19.25,0,38.5c0,3.33,1,4.31,4.32,4.34,4.75,0,9.5,0,14.25,0,3.53,0,4.48-1,4.49-4.42,0-4.67.1-9.34,0-14,0-1.84.6-2.38,2.34-2.63a25.1,25.1,0,0,0,18.91-12.51c2.13-3.66,3.26-7.91,5.06-12.44h22.68c0-2.19.07-4.39.1-6.58-38.32.22-66.26.13-71.25-.06a9.35,9.35,0,0,1-5.49-1.79,8.85,8.85,0,0,1-3.12-5.12A8.49,8.49,0,0,1,75.57,187a14.2,14.2,0,0,1,5.35-.89Q176,186,271.16,186a19.84,19.84,0,0,1,3,.17,8.62,8.62,0,0,1-.61,17.1,25.67,25.67,0,0,1-4.25.07c-4.44-.9-35.36-1.17-118.7,0,0,2.19-.06,4.39-.1,6.58,41.23.16,70.47.2,72.26,0a2.68,2.68,0,0,1,2,.41,2.37,2.37,0,0,1,.72,1.56c2,12.42,10.53,21,23,23,1.52.25,2.11.75,2.08,2.35-.11,4.67-.05,9.33,0,14,0,3.79.89,4.66,4.75,4.67q6.87,0,13.75,0c3.67,0,4.57-.93,4.57-4.59q0-19.26,0-38.5v-2.75l1.68-.35A15.33,15.33,0,0,0,288,195.48,15.09,15.09,0,0,0,276.39,180M101.78,210.16H119.9c.9,8.29-8.64,18-18.12,18.23Zm-16.65,0h9.76v39.05H85.13ZM238.71,110h17.22v53H238.71Zm-71.32,0h17.23v52.8H167.39Zm-71.29.08h17.24V163H96.1Zm-6.91,69.2H84.54V110h4.65Zm24.2,0H95.94c0-2.66-.1-5.29.09-7.9a2.37,2.37,0,0,1,1.73-1.49c5.13-.12,10.25-.07,15.63-.07Zm11.41,0h-4.63V110h4.63Zm24.11,0H131.7v-9.5h17.21Zm0-16.45H131.72V110.1H149Zm11.47,16.48H156V110h4.46Zm24.21,0h-17.4c0-2.92,0-5.8.06-8.67,0-.38.82-1,1.27-1,5.3-.08,10.6-.05,16.07-.05Zm11.43,0h-4.49V110h4.49Zm24.18,0H203v-9.56h17.21Zm0-16.42H203.05V110.1h17.23Zm11.56,16.49h-4.65V110h4.65Zm24.22,0H238.59v-9.42c5.37,0,10.66,0,15.94.08.52,0,1.42,1.1,1.46,1.73.17,2.47.07,5,.07,7.61m11.31,0H262.8V110h4.57Zm-17.11,49c-8.67.44-18.19-8.91-18.22-18h18.22Zm16.63,20.91h-9.72v-39h9.72Z"/><path class="cls-1" d="M184.63,169.5v9.77h-17.4c0-2.92,0-5.8.06-8.67,0-.38.82-1,1.27-1,5.3-.08,10.6-.05,16.07-.05"/><polygon points="148.91 169.74 131.7 169.74 131.7 179.24 148.91 179.24 148.91 169.74 148.91 169.74"/><polygon points="220.24 169.65 203.03 169.65 203.03 179.21 220.24 179.21 220.24 169.65 220.24 169.65"/><path d="M245.63,169.81h-7v9.42h17.47c0-2.65.1-5.14-.07-7.61-.05-.63-.94-1.72-1.46-1.73-3-.07-5.92-.09-8.9-.09Z"/><path class="cls-1" d="M113.39,169.78v9.46H95.94c0-2.66-.1-5.29.09-7.9a2.35,2.35,0,0,1,1.73-1.49c5.13-.12,10.25-.07,15.63-.07"/><path d="M155,174.23c29.11,0,63.63,0,99,.13a69.84,69.84,0,0,1,12.16,1.39,12.15,12.15,0,0,1,0,2.29H82.85v-3.8H155m0-5H77.85V183h193c0-3.89,1.12-7.53-.77-11.15-.49-.92-10.33-2.51-16.11-2.53q-49.38-.17-99-.13Z"/></svg>