<svg id="Calque_1" data-name="Calque 1" xmlns="http://www.w3.org/2000/svg" viewBox="0 0 350 300"><defs><style>.cls-1{fill:#8c8c8c;}.cls-2{fill:none;stroke:#000;stroke-miterlimit:10;stroke-width:5px;}</style></defs><title>selected</title><path d="M272.78,199.05a15.1,15.1,0,0,1,5.49,3.65c.1.11.21.22.31.34a50.64,50.64,0,0,0-8.29,12.31l-.15.31a32.72,32.72,0,0,1,.77-11.15,50.53,50.53,0,0,1,1.87-5.46m-29.45.4a33.26,33.26,0,0,1,3,13.71,7.37,7.37,0,0,1,0,.77c0,.54-.05,1.19,0,2l-.07-.12c-1.19-2-2.42-4.13-3.77-6.19a36.83,36.83,0,0,0-4.9-6,16,16,0,0,1,5.76-4.17m27.11-6.15c-.64,0-.88.37-1.33,1.46a73.87,73.87,0,0,0-3,8.44,40.75,40.75,0,0,0-.9,13.22c.13,3.1.46,5.55-.91,6.42a1.8,1.8,0,0,1-1,.26c-.57,0-1.38-.1-2.72-.19-1.59-.11-2.94-.14-4-.14h-.65l-2.94-.16a28.65,28.65,0,0,1-1.53-5.62,26,26,0,0,1-.06-4,37.15,37.15,0,0,0-4.58-17.76c-.61-1.07-1-1.5-1.79-1.5a4.78,4.78,0,0,0-1.33.26,21.43,21.43,0,0,0-12.21,9.47,1,1,0,0,0,.24,1.59,31.39,31.39,0,0,1,6.6,7.25c1.84,2.8,3.47,5.73,5.19,8.6a34.13,34.13,0,0,0,6.62,8.45,12.51,12.51,0,0,0,8.41,3.28,13.32,13.32,0,0,0,1.66-.1c3.38-.4,5.92-2.31,8.12-4.76a44.93,44.93,0,0,0,6.48-10.23,42.48,42.48,0,0,1,9.77-13.35,1,1,0,0,0,.15-1.52c-.94-1.16-1.8-2.41-2.84-3.48a20.18,20.18,0,0,0-10.07-5.69,7.44,7.44,0,0,0-1.34-.23Z"/><path d="M115.62,148.91a24.9,24.9,0,0,1,1.06,2.85c0,.16.11.33.17.5h-1.59l.37,5.35.2,2.87v.2h-.59V152h-.91l.15-.49c.27-.82.63-1.95.94-2.62h.19m7.67-128c0,5.21.17,9.13-.1,13-.09,1.25-1.32,2.43-2,3.64-.7-1.12-1.87-2.18-2-3.36-.48-4-.59-8-.91-13.14-3.36,1.75-6.17,2.81-8.51,4.51C102.27,31,97.85,38.78,94.52,47.16c-6.91,17.43-8,35.63-6,54,1.87,17.39,4.47,34.71,6.68,52.07.37,2.91,2.09,3.78,4.65,3.79h10.38v5c-2.17,0-4.24,0-6.28,0-1.29,0-2.56,0-3.84,0h-.32c-3.4,0-5,1.64-4.86,5.18.21,6.34-.26,12.77.6,19,1.73,12.53,3.38,25.17,6.62,37.34,1.62,6.06,5.82,12.08,10.38,16.57a16.36,16.36,0,0,0,11.57,4.93A17.37,17.37,0,0,0,138.45,237,55,55,0,0,0,145,223.13c5.57-17.46,6.47-35.61,7.07-53.75.21-6.63-.52-7.28-7.09-7.34-1.59,0-3.18-.16-5.08-.27.11-1.78.19-3.06.29-4.74,1.41,0,2.7-.05,3.94-.05.74,0,1.47,0,2.19.07l.84,0c3.57,0,4.77-1.92,5.32-5.81,1.53-10.87,3-21.87,5.85-32.43,7.27-26.57,4.31-51.77-8.37-76-3.76-7.19-8.75-13.51-15.88-17.64-3.08-1.79-6.68-2.71-10.76-4.3Zm23.84,91.74h0a11.72,11.72,0,0,0,1.78-.37c-3.55-1.51-6.63-2.64-9.54-4.1-6.19-3.11-10.81-8-11.14-15-1-22-1.44-44-2.1-66.06l1.79-.38c6.33,3.77,11.8,8,11,16.77-.94,10.84-1.53,21.71-2.27,32.56a35.42,35.42,0,0,0,0,6.35c1.63-13.59,3.27-27.17,5-41.38,9.43,15.71,12.41,32.18,11.19,49.71.32-1.7.63-3.4,1-5.44,3.23,7.17-1.09,35.72-6,39-.13-1.93-.23-3.64-.38-6-.47,5.64-.92,7.42-4,7.42a27,27,0,0,1-4.72-.65v-7.67H138v7.65H124.44v-11.4l-.51-.09c-.45,2.51-1.07,5-1.33,7.53-.36,3.62-2.6,4.15-5.65,4.17h0c-3.49,0-2.6-2.62-2.92-4.47A244.2,244.2,0,0,0,108.92,96c.77,6.16,1.58,12.32,2.28,18.48a66.83,66.83,0,0,1,.54,8.59c0,.84-1.14,1.66-1.75,2.48-.81-.65-2.13-1.17-2.35-2a119.92,119.92,0,0,0-3.36-12.08c.38,4.46.75,8.93,1.15,13.72l-4.25-.46c-.14.32-.28.64-.41,1,3.39,1.51,6.78,3,10.19,4.53a21.41,21.41,0,0,0,3.39,1.28c5.08,1.26,10.74,1.82,10.44,9.23.14-1.91.27-3.81.42-6h16.87c.6,3.2,1.14,6.13,1.72,9.23,2.5-3.09-2.51-9,4.38-10.68v19.87h-6.74c-.94-2.92-1.45-5.79-2.82-8.17-.52-.91-2.62-1.26-4.16-1.26h-.37c-4.2.17-5.6,2.94-4.92,9.46h-6.66c-1.36-3.34-1.87-6.59-3.76-8.49a4.78,4.78,0,0,0-3.09-.82,5.43,5.43,0,0,0-3.4.9c-1.82,1.73-2.25,4.91-3.61,8.3h-5.14v-11.4l-.85-.09q-1,5.87-2,11.72H99.55a6.42,6.42,0,0,1-.85-1.75c-2-14.51-4.47-29-5.61-43.54-1-13-.51-26.19-.65-39.3,0-.5.3-1,1.29-1.54q1.8,11,3.59,22l.68-.07c-.88-8.55-1.6-17.13-2.68-25.66-1.37-10.92,4.3-19.17,9.2-27.76l1.27.22c.77,12.55,1.54,25.1,2.34,38.24,0-13,.24-25.39-.11-37.76-.15-5,1.94-7.5,6.74-9.42.2,2.09.34,3.82.53,5.54,2.2,19.52,3.91,39.1,6.76,58.52,2,13.56,12.18,21.57,25.08,21.57ZM123.26,56.28C120.72,53.74,118.87,43.37,120,42a2.32,2.32,0,0,1,1.62-.71,1.12,1.12,0,0,1,.27,0,2.12,2.12,0,0,1,1.34,1.46c.11,4.12.06,8.25.06,13.53Zm.15,27.15L121,59.34l2.21-.21q.6,12.1,1.19,24.22l-1,.08Zm11.15,78.08-.82-.06V149.57l.82,0v11.92Zm-13.64.15c-.09-1.31-.18-2.58-.3-4.4h8.86c.1,1.46.19,2.73.3,4.4Zm-2.07,78.2a15.8,15.8,0,0,1-9.95-9.57c-3.21-8.72-6.53-17.62-8-26.74-1.93-12.29-2.14-24.86-3.12-37.87h48.93c0,.39,0,.79,0,1.18H113c.37,7.17.68,13.28,1,20.6.54-4,1.08-6.82,1.27-9.69s0-6,0-9h22.58c.4,6.1.75,11.63,1.11,17.17h.39c.39-5.45.78-10.91,1.2-16.64h7.43c-1.59,12.11-3.15,23.94-4.71,35.77l-.9-.07V199.1L121.55,198q-.42-7.62-.82-15.2l-.6-.05c-.38,5-.77,10.07-1.16,15.34l-13.23,1c-1.22,9.53,3.22,17.78,5.14,26.5-1-7.83-2-15.65-3.09-23.77,3.13,0,6,0,8.78,0s5.33,0,7.93.14a3.63,3.63,0,0,1,2.45,2.45c.73,5.66,1.14,11.36,1.67,17.13l-9.47.68c-.23-1.65-.49-3.64-.76-5.63l-.87.05c.44,7.7.88,15.4,1.33,23.24Zm20.47-38.05c-.9,7.47-1.8,14.84-2.69,22.21l.37.1c1.33-5.48,2.67-11,4.27-17.55.54,1.82,1.19,2.79,1,3.52-2.1,7.38-4,14.87-6.72,22-1.16,3-3.92,5.79-6.64,7.7a7.31,7.31,0,0,1-3.84,1.64c-1.89,0-3-1.86-3.57-5.64,1.27-.11,2.54-.15,3.79-.36,4.4-.74,6.67-4.87,5.52-9.19a41.28,41.28,0,0,1-1.26-9c-.2-4.95-.06-9.92-.06-15.44ZM123.93,234c-3.1,0-4.82-2-5.3-5.13.22-3.35,1.88-5.47,5.25-5.62h.34c3.19,0,5.13,2,5.29,5.16.17,3.32-1.91,5.43-5.2,5.59Z"/><path class="cls-1" d="M118.63,228.83c.22-3.35,1.88-5.47,5.25-5.62s5.46,1.92,5.63,5.15-1.91,5.43-5.2,5.59S119.13,232.07,118.63,228.83Zm1.36-.46c.38,2.87,1.8,4.71,4.6,4,1.47-.35,2.58-2.19,4.58-4Z"/><path d="M121.59,41.26A2.32,2.32,0,0,0,120,42c-1.1,1.4.75,11.77,3.29,14.31,0-5.28,0-9.41-.06-13.53a2.12,2.12,0,0,0-1.34-1.46,1.12,1.12,0,0,0-.27,0Z"/><path d="M129.72,156.76h-8.91c.12,1.83.21,3.1.31,4.42H130c-.11-1.68-.2-3-.3-4.42Z"/><path d="M123.4,58.07l-2.23.2q1.23,12.12,2.44,24.24l1-.09q-.6-12.17-1.19-24.35Z"/><path d="M201.33,36.83a2.73,2.73,0,0,1,.5.05c1.83.43,3.57,3.94,4.15,5.1a64.57,64.57,0,0,1,4.67,13.21l-3.38-.38a54.14,54.14,0,0,0-6.24-.34,99.24,99.24,0,0,0-10.71.69c-1.95.22-3.8.6-5.59,1l-.61.13q2.44-4.53,5.26-8.89c4.48-6.84,9.5-10.53,12-10.53m11,27.32c1.63,11.13,2,26.07-.64,45.63-1.14,8.36-1.72,12.55-2.76,16.83-.59,2.41-1.2,4.59-1.82,6.59l-.3-2.78-.14-1.37-.25-2.36,1.92-.2-.51-5-.14-1.36-.25-2.37,2.25-.23-.53-5v-.08l-.13-1.3-.25-2.28,1.3-.13-.5-5-.13-1.32v-.08l-.23-2.32,1.52-.14-.2-4.74,0-.71,0-.75-.12-2.66,2-.21-.48-5-.13-1.34-.26-2.52,1.75-.19-.52-5-.13-1.28-.26-2.51h.06l-.51-4.95-.13-1.26-.28-2.64.88-.1M176.54,72.9l.1,1.43-.65.07c.18-.5.36-1,.55-1.5m-2.61,7.68,0,.42.24,2.35-1.13.11c.27-1,.55-1.93.84-2.88m-1.72,6.17.18,1.8.13,1.34.25,2.51-2.1.22.48,4.93.11,1.16h0l.24,2.59-1.95.21.49,5,.06.63.07.64.24,2.45-1.88.2,1.39,5.59.17.69.16.61.42,1.7-1.89.2.23,4.72,0,.66,0,.68.26,5.27.32,0,.27,2.5.13,1.25.52,5,5-.5.38,0,26.48-2.72,4-.41c-.49,1.51-1,2.92-1.44,4.26-2.38,6.9-4.25,12.35-2.52,18.68a32.69,32.69,0,0,1,.76,4.6,39.18,39.18,0,0,0,1.07,6.22c.42,1.49.5,1.76-1.68,3l-.27.16a30.47,30.47,0,0,1-8.56,3.57,19.62,19.62,0,0,1-3.68.32c-5.57,0-12.48-1.79-19.25-4.95-.77-5.3-1.67-10.64-2.49-15.48-.71-4.25-1.39-8.27-1.89-11.69,0,0-.17-1.23-.38-3.35l1.81-2.17,1.49-1.8-.41-2.3A101.38,101.38,0,0,1,172.11,87l.09-.24v0m29-61.57a24.86,24.86,0,0,0-3.58.28,20.51,20.51,0,0,0-5.42,1.47c-.25.11-.8.35-1.47.7a25.21,25.21,0,0,0-8.43,8.16C152.54,82.67,161.52,144.9,161.52,144.9c1.22,8.45,3.5,20.16,4.95,31.23h0l-.12-1.4c8.84,4.54,17.26,6.57,23.71,6.57a24.46,24.46,0,0,0,4.63-.41,35.46,35.46,0,0,0,10.34-4.29c3.56-2,5.27-4.28,4-8.69-1-3.51-.86-7.27-1.82-10.79-2.09-7.62,2.85-14.14,6.55-29.33,1.1-4.54,1.68-8.8,2.85-17.34,6-43.53-3.17-64.54-6.23-70.7-1.57-3.15-3.79-6.89-7.51-7.75a7.45,7.45,0,0,0-1.62-.18c-7.59,0-15.23,11.41-16.14,12.79a138.37,138.37,0,0,0-17.78,40.7,105.43,105.43,0,0,0-3.35,50.14h0a123.34,123.34,0,0,1-1.91-39c3.44-29.51,17.41-51.1,26.6-62.9,1.74-1.78,5.91-5.56,11.06-5.56a8.19,8.19,0,0,1,.85,0c6.79.55,11.75,7.28,12.89,10.75,9.79,29.68,17.24,59.72,3.68,90.47-.13.3.14.78.36,1.87a117.79,117.79,0,0,0,8.89-50.06,115.45,115.45,0,0,0-4.41-26.72c-.73-2.71-4-14.8-6.32-19.3-.35-.69-.72-1.31-.72-1.31a21.25,21.25,0,0,0-5.09-6,14.61,14.61,0,0,0-8.77-2.6ZM183.55,62.45c0-.32-.08-.64-.13-1,2.48-.46,5-1.07,7.45-1.35A93,93,0,0,1,201,59.47a49.39,49.39,0,0,1,5.68.31l-23.16,2.67Zm-2.1,9L181.36,70l25.45-2.61c0,.41.08.83.13,1.25l-25.49,2.77Zm-2.5,9c0-.45-.09-.9-.14-1.34l28.83-3c.05.43.09.86.14,1.29L179,80.48ZM177.5,89.4c-.05-.45-.09-.9-.14-1.35l29.44-3c0,.44.09.88.13,1.33l-29.43,3Zm-1.26,8.84c0-.39-.07-.78-.11-1.17L205.51,94l.06,1.46-29.33,2.83Zm-1.09,9L175,106l29.48-3.09c0,.47.09.94.14,1.41l-29.5,3Zm0,8.82-.33-1.3,29.31-3.06.15,1.38-29.13,3Zm-1,8.93c0-.45,0-.89-.07-1.34l28.75-3,.14,1.36-28.82,3Zm.95,8.7-.13-1.24,26.85-2.88c.05.45.09.91.14,1.37L175,133.7Z"/><path d="M210,191c2.64,8.21,5.26,16.71,4.58,25.67-.84,11.18-5.79,17.34-15.11,18.81a26.36,26.36,0,0,1-4.11.33c-8.87,0-15.92-4.77-19.34-13.1a42.66,42.66,0,0,1-2.77-11,86.89,86.89,0,0,1-.63-14.95c0-.29,0-.58.05-.88l18.69-2.45L210,191m3.48-5.51-45.73,6v0h0c0,1.75,0,3.44-.09,5a91.93,91.93,0,0,0,.65,15.89,48.28,48.28,0,0,0,3.11,12.27c4.26,10.37,13.25,16.2,24,16.2a31.57,31.57,0,0,0,4.89-.39c11.58-1.83,18.29-9.78,19.32-23.37.87-11.49-3.08-22-6.09-31.56Z"/><g id="KneIcB.tif"><path d="M258.83,142.24h.5a7.54,7.54,0,0,1,6.85,7.46A7.35,7.35,0,0,1,259,157h-.36a7.09,7.09,0,0,1-7.33-7.49,7.33,7.33,0,0,1,7.49-7.24m0-5a12.3,12.3,0,0,0-12.49,12.11A12.06,12.06,0,0,0,258.54,162H259a12.35,12.35,0,0,0,12.15-12.06,12.53,12.53,0,0,0-11.55-12.66l-.8,0Z"/><path d="M258.83,137.24a12.3,12.3,0,0,0-12.49,12.11A12.06,12.06,0,0,0,258.54,162H259a12.35,12.35,0,0,0,12.15-12.06,12.53,12.53,0,0,0-11.55-12.66l-.8,0ZM258.72,161a11.37,11.37,0,0,1-11.29-11.62,11.25,11.25,0,0,1,11-10.94h.65a11.28,11.28,0,0,1-.23,22.55Z"/><path d="M258.45,138.39a11.25,11.25,0,0,0-11,10.94A11.37,11.37,0,0,0,258.72,161h.15a11.28,11.28,0,0,0,.23-22.55h-.65Z"/></g><path class="cls-2" d="M273,102.55q.39-12.73.74-25.47c-7.41-11.59-14.2-22.47-17-26.33l-.31-.45c3.21,3.6,6.06,7.66,9,11.11s5.72,7,8.54,10.46l.15-5q-4.15-5.1-8.38-10.13C261.4,51.68,257.5,45.82,252,42c-.77-1.52-1.47-2.15-2.7-1.25a1.65,1.65,0,0,0-1.2,1.14,35.3,35.3,0,0,0-2.58,3.43c-7.07,10.33-8.15,19.29-4.35,29.62s3,46.72,3,46.72,1.63,2.17,3.26,1.08-2.17-35.58.82-39.66c0,0,12.76-7.06,23.63,17.12.37.82.73,1.6,1.08,2.36"/><path d="M258.68,146.55a3.39,3.39,0,0,1,2.41,1,2.49,2.49,0,0,1,.74,1.8c0,1-.37,3.27-2.71,3.27h-.63a2.73,2.73,0,0,1-2-.8,3.18,3.18,0,0,1-.84-2.36,3,3,0,0,1,3-2.93h.05m0-5h-.12a8,8,0,0,0-7.91,7.83,7.82,7.82,0,0,0,7.84,8.26h.63c4.39,0,7.54-3.32,7.71-8.09a8,8,0,0,0-8.15-8Z"/></svg>