<svg id="Calque_1" data-name="Calque 1" xmlns="http://www.w3.org/2000/svg" viewBox="0 0 350 300"><title>selected</title><path d="M208.42,51a36.4,36.4,0,0,1,10.33,1.49,35.84,35.84,0,0,1,4.94,1.87,36.25,36.25,0,0,1,10.37,58.52c-.37.37-.76.74-1.2,1.15l-.19.16-.23.21-.8.69-.33.27-.2.16-.73.58-.59.43-.69.5-.65.44-.66.42-.69.44-.61.35-.05,0-.74.41-.31.17-.2.1-.05,0c-.28.14-.55.29-.84.42l-.05,0-.21.1a37,37,0,0,1-5.2,2h0c-.43.13-.86.24-1.27.35l-.14,0h0l-1.3.31-.14,0-1.33.25h-.09c-.45.08-.9.15-1.38.21l-.53.07L172.43,83.08l.06-.55c.06-.45.13-.91.21-1.39l0-.11c.08-.42.16-.85.25-1.27l0-.17c.09-.43.19-.85.3-1.27l0-.12v0c.11-.42.23-.85.34-1.23l0-.14a35.94,35.94,0,0,1,2-5.11l.11-.24,0-.06c.14-.29.3-.58.46-.89l.06-.13.2-.38c.13-.24.27-.48.41-.72l0-.06.35-.6c.15-.24.29-.48.44-.71l.43-.66c.14-.22.29-.43.44-.64s.32-.46.5-.7.28-.39.43-.58.38-.5.58-.74l.12-.16c.11-.12.21-.25.3-.37s.46-.53.71-.8l.17-.21.19-.21c.39-.43.77-.82,1.14-1.19A36.11,36.11,0,0,1,208.42,51m-50,49.93,36.26,36.26-79.24,63a1.26,1.26,0,0,1-.79.28,1.28,1.28,0,0,1-.91-.38l-4.5-4.5-3.54-3.54-3.53,3.54L86.27,211.49a31.12,31.12,0,0,0,0,44l.46.46a31.07,31.07,0,0,0,44,0l59.75-59.74a33.62,33.62,0,0,1,47.57,0l16.62,16.61a1.24,1.24,0,0,1,.37.9,1.21,1.21,0,0,1-.37.9,1.26,1.26,0,0,1-.91.38,1.28,1.28,0,0,1-.9-.37L236.21,198a31.08,31.08,0,0,0-44,0L132.5,257.71a33.62,33.62,0,0,1-47.57,0l-.46-.45a33.68,33.68,0,0,1,0-47.58l15.86-15.87,3.54-3.53-3.54-3.54L95,181.4a1.28,1.28,0,0,1-.1-1.71l63.5-78.76m50-54.93a41.43,41.43,0,0,0-17.37,3.82,39.83,39.83,0,0,0-5.32,3,41.83,41.83,0,0,0-6.48,5.28c-.44.44-.87.9-1.29,1.35l-.42.49c-.27.3-.54.6-.79.91l-.49.6c-.22.28-.44.55-.65.83s-.34.45-.5.67l-.57.79c-.17.25-.34.49-.5.74l-.48.74c-.17.27-.34.54-.5.81s-.27.46-.4.69l-.5.88c-.11.2-.21.4-.31.6s-.35.67-.52,1c-.05.1-.09.21-.14.31a40.82,40.82,0,0,0-2.26,5.85l0,.11c-.14.48-.28,1-.4,1.45,0,.06,0,.12-.05.18-.12.48-.23,1-.34,1.44a1.42,1.42,0,0,1,0,.2c-.1.49-.19,1-.28,1.47,0,0,0,.09,0,.13-.09.52-.17,1-.23,1.55-.14,1-.24,2.05-.3,3.08l43.47,43.48c1-.06,2.06-.17,3.08-.3.52-.07,1-.15,1.55-.24l.13,0c.5-.08,1-.18,1.48-.28l.19,0c.48-.1,1-.22,1.45-.34l.17,0,1.46-.4.1,0a39.91,39.91,0,0,0,5.87-2.26l.3-.14c.34-.16.68-.34,1-.52l.58-.3.89-.5.69-.4.8-.51q.38-.23.75-.48l.74-.5.78-.56.68-.5.82-.65.61-.49.91-.79.48-.43q.69-.63,1.35-1.29a41.27,41.27,0,0,0-6.47-63.62,40.66,40.66,0,0,0-11-5.1A41.18,41.18,0,0,0,208.42,46ZM158,93.44,91,176.56a6.27,6.27,0,0,0,.45,8.37l5.35,5.35L80.93,206.15a38.69,38.69,0,0,0,0,54.64l.46.46a38.63,38.63,0,0,0,54.64,0l59.75-59.75a26.09,26.09,0,0,1,36.89,0l16.62,16.62a6.27,6.27,0,1,0,8.87-8.87l-16.61-16.62a38.63,38.63,0,0,0-54.64,0l-59.75,59.75a26.09,26.09,0,0,1-36.9,0l-.46-.46a26.12,26.12,0,0,1,0-36.89l15.87-15.87,4.51,4.51a6.26,6.26,0,0,0,8.34.47l83.65-66.52-.33-.3L158.37,93.84c-.13-.13-.24-.27-.36-.4Z"/></svg>