<svg id="Calque_1" data-name="Calque 1" xmlns="http://www.w3.org/2000/svg" viewBox="0 0 350 300"><title>selected</title><g id="YooJ50"><path d="M124.22,190l4.65,4.24,5.91,5.39L137,192c0-.11.07-.22.1-.33l.64,2.2,1.34,4.66,2.77,9.55,5.32-7c-.55,1.36-1.17,2.74-1.86,4.18l-4.53,9.52,10.24-2.51,1.93-.47c-1.47,1.28-3.15,2.59-5.06,4l-8.11,6,9.69,2.82,1.75.51a56.33,56.33,0,0,1-6.14.63l-10.8.56,7.43,7.87,1.57,1.65c-1.83-.66-3.77-1.47-5.89-2.38l-9.16-3.93,2.32,9.69.36,1.5-4.78-4.38-6-5.5L118,238.67l-.06.19-1.84-6-2.64-8.66L107.52,231l-.19.22c.54-1.64,1.22-3.35,2-5.21l.35-.91,3.57-9-9.42,2.34-1.67.42c.66-.57,1.37-1.16,2.13-1.78,1-.79,1.93-1.6,3-2.51l7-6L105.33,206l-1.46-.42c1.94-.34,4-.57,6.19-.79l10.12-1-7-7.4-1.43-1.52a57.06,57.06,0,0,1,5.79,2.57l9.72,4.86-2.63-10.55-.43-1.7M262.37-5c-2.75,0-5.51,0-8.26.16-8.79.35-17.15-.37-26,4.14-14.95,7.59-25.49,17.58-29.82,33.8Q189.08,67.48,180,101.87c-1.79,6.7-3.62,13.4-5.51,20.38l-27.64-7.48a19.63,19.63,0,0,0-5-.81,6.31,6.31,0,0,0-5.59,2.64c-2.85,4.16-6.66,4.32-10.72,4.84s-8.2,1.15-12.31,1.63a8.16,8.16,0,0,0-7.48,6.35c-1.56,5.51-2.93,11.08-4.61,16.55-1.55,5.07.11,8.51,4.46,11.31,3.31,2.12,6.27,4.8,10.23,7.89H115c-15.47,0-25.58,7.65-34.21,17.94-5.63,6.72-9.49,14.38-10.36,23.19-.15,1.46,1.72,3.11,2.65,4.67,1.18-1.21,3.2-2.3,3.41-3.67,1.76-11.36,7.92-20.09,16.29-27.32,5.32-4.6,11.46-8.18,18.52-8.18A21.06,21.06,0,0,1,114,172c6.42.84,12.69,3,19,4.72,1,.29,2.58,1.91,2.43,2.6-.84,3.91-2.12,7.73-3.18,11.29l-15-13.69L116.05,178c1.15,4.61,2.31,9.22,3.75,15-5.91-2.95-11.18-4.87-17-4.87a26.5,26.5,0,0,0-4,.31l10.75,11.42c-7.84.77-14.47,1.81-20.16,6.8L104,210.78c-3.15,2.74-5.87,4.7-8.07,7.13s-4,5.5-6.75,9.33l15.86-4c-2.81,7.14-5.59,13.46-2.65,21.36l9-10.36c2,6.65,3.94,12.91,5.86,19.18l1.81.19L122.79,240l15,13.71,1.22-1c-1.09-4.54-2.18-9.09-3.5-14.63,5.65,2.42,10.77,4.52,16.4,4.52a22.48,22.48,0,0,0,4.32-.42l-10.79-11.41c8.06-.42,14.53-1.85,20.39-6.61l-14.87-4.32c6.37-4.72,11.46-9.06,14.07-16.11l-15.11,3.7c3.37-7.08,5.47-13.4,4.35-20.25l-1.67-1.36-8.62,11.34c-2.1-7.25-3.83-13.22-5.6-19.35a9.5,9.5,0,0,1,1.52.2c24.13,6.93,25.65,5.23,35.87,29.4.5,1.19,2.86,1.6,4.36,2.37.45-1.65,1.7-3.57,1.24-4.9-3-8.6-6.87-16.78-13.59-23.3a4.87,4.87,0,0,1-1.22-3.88c2.83-11.4,5.83-22.77,8.86-34.12Q190,88.65,204.75,33.76a39.25,39.25,0,0,1,19-24.69c2.07-1.2,4.15-2.55,6.32-2.55a6,6,0,0,1,4.28,2c.65.64,2.1.64,3.19.65q10.47,0,20.95.06,7.21,0,14.42-.06c4.45,0,7.48-3.11,7.43-7s-3-6.86-7.56-7c-3.46-.09-6.92-.16-10.38-.16Zm-6.89,3.46c3.1,0,6.21-.09,9.31-.09,2.47,0,4.93,0,7.37.24,1.68.13,4.28,1.93,4.6,3.37.63,2.91-1.79,4-4.54,4C266.8,6,261.38,6,256,6c-6,0-12.06,0-18.08-.2-1.56,0-3.06-2.35-4.58-3.61,1.51-1.26,2.94-3.48,4.54-3.6,2.65-.2,5.31-.25,8-.25,3.21,0,6.44.08,9.65.08Zm-83.63,132.1-35-9.47c-.07-.55-.15-1.11-.22-1.67,2.08-.6,4.33-2,6.28-2a4.13,4.13,0,0,1,.78.08c9.86,2.25,19.59,5.1,29.68,7.81-.56,1.91-1,3.37-1.55,5.23ZM130.92,124c-3.74,13.64-7.24,26.45-11,40.06-5.06-3.84-9.74-7.05-14-10.8-1.21-1.09-1.75-3.84-1.41-5.6a135,135,0,0,1,4.33-17.1,7.13,7.13,0,0,1,4.44-4.12c5.4-1.16,11-1.59,17.56-2.44Zm29.34,51.82L123.15,166c3.72-14.12,7.29-27.71,11-41.77l37.2,10c-3.71,13.93-7.33,27.53-11.08,41.58Z"/><path d="M130.92,124c-6.6.85-12.16,1.28-17.56,2.44a7.13,7.13,0,0,0-4.44,4.12,135,135,0,0,0-4.33,17.1c-.34,1.76.2,4.51,1.41,5.6,4.21,3.75,8.89,7,14,10.8,3.73-13.61,7.23-26.42,11-40.06Zm-12.21,29.9L117.43,152c1.86-7.15,3.48-13.57,5.27-20,.19-.68,1.43-1.06,2.18-1.58.28.76.94,1.61.79,2.27q-2.28,9.68-4.87,19.27c-.21.77-1.37,1.27-2.09,1.9Zm-8.65-4.52c-.44-.95-1.43-2-1.24-2.83,1-4.44,2.35-8.82,3.59-13.21A22.37,22.37,0,0,1,114,130.6c.71,2,1.53,3.14,1.34,4.05-.88,4.31-2,8.59-3.18,12.82-.22.78-1.34,1.3-2,1.94Zm4.6,2.29-2-.94q2.67-9.88,5.36-19.78l1.31-.16c.39,1,1.36,2.28,1.08,3.07-2.1,5.86-1.92,12.66-5.79,17.81Z"/><path d="M264.77-1.63c-3.09,0-6.19.08-9.29.08h-.09c-3.18,0-6.37-.07-9.54-.07-2.68,0-5.34.05-8,.25-1.6.12-3,2.34-4.54,3.6,1.52,1.26,3,3.57,4.58,3.61,6,.16,12.05.2,18.07.2l16.26,0c2.75,0,5.17-1.12,4.54-4-.32-1.44-2.92-3.24-4.6-3.37-2.45-.19-4.92-.24-7.39-.24Z"/><path d="M149,138.15a12.19,12.19,0,0,0-12,11.68c-.15,6.41,5.71,12,12.51,12h.23c5.44-.1,11.09-6.35,11.1-12.28s-5.65-11.36-11.79-11.4Zm-.74,20.1c-4.25,0-7.7-4.13-7.66-9.17,0-3.94,4-7.67,8.23-7.74H149c4.69,0,8,3.49,8.09,8.54s-3.33,8.36-8.82,8.38Z"/></g></svg>