<svg id="Calque_1" data-name="Calque 1" xmlns="http://www.w3.org/2000/svg" viewBox="0 0 350 300"><defs><style>.cls-1{fill:none;stroke:#000;stroke-miterlimit:10;stroke-width:5px;}</style></defs><title>selected</title><path d="M168.32,189.41A68.07,68.07,0,0,0,143,194.32a2.45,2.45,0,0,0,.9,4.72,2.58,2.58,0,0,0,.91-.17,63.14,63.14,0,0,1,47.12,0,2.67,2.67,0,0,0,.92.17,2.45,2.45,0,0,0,.9-4.72,68.08,68.08,0,0,0-25.38-4.91Z"/><path class="cls-1" d="M240,244.35V134.85a72.51,72.51,0,0,0-21.7-51.94,2.26,2.26,0,0,1-.2-.13V80.1a51.1,51.1,0,0,0-102.2,0v2.66A72.35,72.35,0,0,0,94,134.85v109.5"/><path class="cls-1" d="M102.17,244.2V138.35a65,65,0,0,1,14.6-41.22V153A18.29,18.29,0,0,0,135,171.2h65.7A18.27,18.27,0,0,0,219,153V97.09a65.12,65.12,0,0,1,14.6,41.26V244.2"/><path d="M169.22,107.37a3.66,3.66,0,0,0-3.65,3.65,11,11,0,0,1-10.95,11,3.65,3.65,0,0,0,0,7.3,11,11,0,0,1,10.95,10.95,3.65,3.65,0,0,0,7.3,0,11,11,0,0,1,10.95-10.95,3.65,3.65,0,0,0,0-7.3,11,11,0,0,1-10.95-11,3.65,3.65,0,0,0-3.65-3.65Zm0,21.91a18.4,18.4,0,0,0-3.66-3.66,18.13,18.13,0,0,0,3.66-3.66,18.4,18.4,0,0,0,3.66,3.66,18.66,18.66,0,0,0-3.66,3.66Z"/><path d="M157.39,49.87c-12.85,0-23.27,13.08-23.29,29.2,0,2,1.3,3.65,2.91,3.65s2.91-1.63,2.91-3.65c0-12.09,7.83-21.88,17.47-21.9,1.61,0,2.91-1.63,2.91-3.65s-1.3-3.65-2.91-3.65Z"/><path d="M166.57,193.78a68.07,68.07,0,0,0-25.37,4.91,2.45,2.45,0,0,0-.61,4.2,2.41,2.41,0,0,0,1.51.52,2.37,2.37,0,0,0,.91-.17,63.14,63.14,0,0,1,47.12,0,2.46,2.46,0,0,0,.92.17,2.41,2.41,0,0,0,1.51-.52,2.45,2.45,0,0,0,.91-2.27,2.48,2.48,0,0,0-1.52-1.93,68.08,68.08,0,0,0-25.38-4.91Z"/></svg>