<svg id="Calque_1" data-name="Calque 1" xmlns="http://www.w3.org/2000/svg" viewBox="0 0 350 300"><title>selected</title><path d="M107.28,58.42v.11a.73.73,0,0,1-.14.47L93,75.67H82.58v-.76h7.9a6.63,6.63,0,0,0,5.06-2.39l10.8-12.69a7.07,7.07,0,0,0,.94-1.41m4-6.69H104.1V55a3.5,3.5,0,0,1-.81,2.27L92.5,69.93a2.64,2.64,0,0,1-2,1H78.58v8.76h14.7A3.57,3.57,0,0,0,96,78.35L110.2,61.59a4.78,4.78,0,0,0,1.08-3.06v-6.8Z"/><path d="M111.28,50H104.1a1.72,1.72,0,0,0-1.73,1.73V55a1.78,1.78,0,0,1-.39,1.15L91.18,68.81a.93.93,0,0,1-.7.37H78.58a1.72,1.72,0,0,0-1.73,1.73v8.76a1.72,1.72,0,0,0,1.73,1.73h14.7a5.34,5.34,0,0,0,4-1.93l14.19-16.76A6.47,6.47,0,0,0,113,58.53v-6.8A1.73,1.73,0,0,0,111.28,50Zm-31,28V72.64H90.48a4.41,4.41,0,0,0,3.34-1.59l10.79-12.69A5.2,5.2,0,0,0,105.83,55V53.46h3.72v5.07a3.06,3.06,0,0,1-.67,1.94L94.69,77.23a1.87,1.87,0,0,1-1.41.72Z"/><path d="M250.3,45.35a9,9,0,0,1,9,9V220.47a9,9,0,0,1-9,9H238.77a9,9,0,0,1-9-9V121.09a8.33,8.33,0,0,0-8.33-8.32H221v-.65h.47a9,9,0,0,1,9,9v99.38a8.33,8.33,0,0,0,8.33,8.32H250.3a8.33,8.33,0,0,0,8.32-8.32V54.32A8.33,8.33,0,0,0,250.3,46H122.36v-.65H250.3m0-4h-132c0,.07,0,.14,0,.21v8.23c0,.07,0,.14,0,.21h132a4.33,4.33,0,0,1,4.32,4.32V220.47a4.33,4.33,0,0,1-4.32,4.32H238.77a4.33,4.33,0,0,1-4.33-4.32V121.09a13,13,0,0,0-13-13H217v8.65h4.47a4.33,4.33,0,0,1,4.33,4.32v99.38a13,13,0,0,0,13,13H250.3a13,13,0,0,0,13-13V54.32a13,13,0,0,0-13-13Z"/><path d="M250.3,39.62h-132a1.73,1.73,0,0,0-1.73,1.83,1.37,1.37,0,0,0,0,.19v8.07a1.11,1.11,0,0,0,0,.19,1.69,1.69,0,0,0,.47,1.28,1.71,1.71,0,0,0,1.26.55h132a2.59,2.59,0,0,1,2.59,2.59V220.47a2.6,2.6,0,0,1-2.59,2.6H238.77a2.61,2.61,0,0,1-2.6-2.6V121.09a14.71,14.71,0,0,0-14.7-14.7H217a1.73,1.73,0,0,0-1.73,1.73v8.65A1.74,1.74,0,0,0,217,118.5h4.47a2.6,2.6,0,0,1,2.6,2.59v99.38a14.71,14.71,0,0,0,14.7,14.7H250.3a14.71,14.71,0,0,0,14.7-14.7V54.32a14.72,14.72,0,0,0-14.7-14.7ZM120.09,48.27V43.08H250.3a11.25,11.25,0,0,1,11.24,11.24V220.47a11.25,11.25,0,0,1-11.24,11.24H238.77a11.25,11.25,0,0,1-11.24-11.24V121.09a6.06,6.06,0,0,0-6.06-6h-2.74v-5.19h2.74a11.25,11.25,0,0,1,11.24,11.24v99.38a6.06,6.06,0,0,0,6.06,6.05H250.3a6.05,6.05,0,0,0,6.05-6.05V54.32a6.05,6.05,0,0,0-6.05-6Z"/><path d="M213,107.36v10.16h-2.81V107.36H213m.54-4h-7.35v18.16h7.35a3.46,3.46,0,0,0,3.46-3.46V106.82a3.46,3.46,0,0,0-3.46-3.46Z"/><path d="M213.54,101.63h-7.35a1.74,1.74,0,0,0-1.73,1.73v18.16a1.73,1.73,0,0,0,1.73,1.73h7.35a5.19,5.19,0,0,0,5.19-5.19V106.82a5.19,5.19,0,0,0-5.19-5.19Zm-5.62,18.16v-14.7h5.62a1.73,1.73,0,0,1,1.73,1.73v11.24a1.72,1.72,0,0,1-1.73,1.73Z"/><path d="M191.49,87.67a10.72,10.72,0,0,1,10.7,10.71V213.31a10.84,10.84,0,0,1-10.82,10.83H126.1a10.82,10.82,0,0,1-10.82-11l.1-6.84v-.06c.3-6.12.81-12.28,1.53-18.34l0-.47v-.16A260.4,260.4,0,0,1,128.48,136V136a178.31,178.31,0,0,1,9.17-23.49l0,0,0-.05.09-.21,0-.07a65.16,65.16,0,0,1,5.63-10l0,0,0,0c.24-.37.46-.69.67-1h0l0-.06c1-1.36,1.58-2.12,1.78-2.35l.07-.06.16-.2A59.38,59.38,0,0,1,155.62,89a9.54,9.54,0,0,1,5.1-1.31h30.77m0-4H160.72a13.34,13.34,0,0,0-7.43,2.06,63.66,63.66,0,0,0-10.18,10.12A29.71,29.71,0,0,0,141,98.67l0,0h0c-.24.34-.49.71-.76,1.12a69.51,69.51,0,0,0-6,10.63l-.12.28a180.39,180.39,0,0,0-9.38,24A264.06,264.06,0,0,0,113,186.81c0,.21-.06.42-.1.64h0q-1.09,9.26-1.55,18.61h0v.11l-.1,6.93a14.82,14.82,0,0,0,14.82,15h65.27a14.82,14.82,0,0,0,14.82-14.83V98.38a14.71,14.71,0,0,0-14.7-14.71Z"/><path d="M186.4,87.67l-6.55,26.77a27.08,27.08,0,0,1-24.7,15.91H130.37a167.33,167.33,0,0,1,7.3-17.87l0-.06,0-.06.08-.18,0-.08a65.16,65.16,0,0,1,5.63-10l0,0v0c.24-.37.46-.69.68-1v0l0-.06c1-1.41,1.63-2.17,1.79-2.37l.08-.07.13-.17A59.86,59.86,0,0,1,155.62,89a9.54,9.54,0,0,1,5.1-1.31H186.4m5.09-4H160.72a13.34,13.34,0,0,0-7.43,2.06,63.66,63.66,0,0,0-10.18,10.12A29.71,29.71,0,0,0,141,98.67l0,0h0c-.24.34-.49.71-.76,1.12a69.51,69.51,0,0,0-6,10.63l-.12.28a179.73,179.73,0,0,0-9.25,23.62h30.33a31.1,31.1,0,0,0,28.5-18.61l7.84-32.07Z"/><path d="M191.49,83.67l3.48.44a14.3,14.3,0,0,0-3.48-.44Z"/><path d="M202.19,211.38v1.93a10.83,10.83,0,0,1-10.82,10.82H126.1a10.79,10.79,0,0,1-10.72-9.43v-3.32h86.81m4-4H111.38v7.56a14.81,14.81,0,0,0,14.72,13.19h65.27a14.81,14.81,0,0,0,14.82-14.82v-5.93Z"/><path d="M74.58,37.13v46.2H61.82V37.13H74.58m4-4H57.82V83.87a3.46,3.46,0,0,0,3.46,3.46H75.12a3.46,3.46,0,0,0,3.46-3.46V33.13Z"/><path d="M114.36,41.89v7.57H82.58V41.89h31.78m.33-4H78.58V53.46h36.11a3.67,3.67,0,0,0,3.67-3.67V41.56a3.67,3.67,0,0,0-3.67-3.67Z"/><path d="M91.24,57.19H91l-12.4,1.45v6.48l13.24-3.66a2.18,2.18,0,0,0-.58-4.28Z"/><path d="M68.52,91.36v120h-.64v-120h.64m4-4H63.88v128h8.64v-128Z"/><path d="M191.49,81.94H160.72a15,15,0,0,0-8.38,2.34l-.12.09a65.52,65.52,0,0,0-10.43,10.36,36.39,36.39,0,0,0-2.26,3l0,0h0l-.77,1.13a71.5,71.5,0,0,0-6.13,10.9l-.1.24a184.54,184.54,0,0,0-9.46,24.23,266.13,266.13,0,0,0-11.75,52.34l-.1.64a1.82,1.82,0,0,0,0,.33c-.71,6.06-1.22,12.23-1.53,18.34,0,0,0,.11,0,.17v.11h0l-.1,6.93a16.54,16.54,0,0,0,16.55,16.79h65.27a16.56,16.56,0,0,0,16.55-16.55V98.37a16.45,16.45,0,0,0-16.43-16.43ZM126.1,226.41A13.11,13.11,0,0,1,113,213.12l.1-6.91v-.06c.3-6.16.82-12.38,1.54-18.5a.74.74,0,0,0,0-.21l.07-.43a262.54,262.54,0,0,1,11.61-51.72,181.85,181.85,0,0,1,9.3-23.85l.13-.28a68,68,0,0,1,5.84-10.39l.7-1,.06-.08a28.31,28.31,0,0,1,2-2.59l.12-.14a62,62,0,0,1,9.84-9.8,11.66,11.66,0,0,1,6.42-1.73h30.77a13,13,0,0,1,13,13V213.31a13.11,13.11,0,0,1-13.09,13.1Z"/><path d="M190.63,194.08a18.49,18.49,0,1,1-18.49,18.49,18.51,18.51,0,0,1,18.49-18.49m0-4a22.49,22.49,0,1,0,22.48,22.49,22.49,22.49,0,0,0-22.48-22.49Z"/><path d="M190.63,188.35a24.22,24.22,0,1,0,24.21,24.22,24.25,24.25,0,0,0-24.21-24.22Zm0,45a20.76,20.76,0,1,1,20.75-20.75,20.78,20.78,0,0,1-20.75,20.75Z"/><path d="M78.58,31.4H57.82a1.74,1.74,0,0,0-1.73,1.73V83.87a5.2,5.2,0,0,0,5.19,5.19H75.12a5.2,5.2,0,0,0,5.19-5.19V33.13a1.74,1.74,0,0,0-1.73-1.73ZM61.28,85.6a1.74,1.74,0,0,1-1.73-1.73v-49h17.3v49a1.74,1.74,0,0,1-1.73,1.73Z"/><path d="M114.69,36.16H78.58a1.73,1.73,0,0,0-1.73,1.73V53.46a1.73,1.73,0,0,0,1.73,1.73h36.11a5.4,5.4,0,0,0,5.4-5.4V41.56a5.4,5.4,0,0,0-5.4-5.4ZM80.31,51.73V39.62h34.38a1.94,1.94,0,0,1,1.94,1.94v8.23a1.94,1.94,0,0,1-1.94,1.94Z"/><path d="M91.24,55.46a3.54,3.54,0,0,0-.46,0l-12.4,1.45a1.72,1.72,0,0,0-1.53,1.72v6.48a1.72,1.72,0,0,0,1.73,1.73A1.82,1.82,0,0,0,79,66.8l13.24-3.67a3.91,3.91,0,0,0-1-7.67Zm-10.93,7.4V60.19l10.87-1.27h.06a.44.44,0,0,1,.44.45.44.44,0,0,1-.33.43l-11,3.06Z"/><path d="M77.59,30v.65h-18V30h18M79,26H58.24a2.6,2.6,0,0,0-2.6,2.6v3.46a2.59,2.59,0,0,0,2.6,2.59H79a2.6,2.6,0,0,0,2.6-2.59V28.63A2.61,2.61,0,0,0,79,26Z"/><path d="M79,24.3H58.24a4.33,4.33,0,0,0-4.33,4.33v3.46a4.33,4.33,0,0,0,4.33,4.32H79a4.33,4.33,0,0,0,4.33-4.32V28.63A4.33,4.33,0,0,0,79,24.3ZM58.24,33a.87.87,0,0,1-.87-.86V28.63a.87.87,0,0,1,.87-.87H79a.87.87,0,0,1,.87.87v3.46A.87.87,0,0,1,79,33Z"/><path d="M72.52,85.63H63.88a1.73,1.73,0,0,0-1.73,1.73v128a1.72,1.72,0,0,0,1.73,1.73h8.64a1.72,1.72,0,0,0,1.73-1.73v-128a1.73,1.73,0,0,0-1.73-1.73Zm-6.92,128V89.09h5.19V213.62Z"/><path d="M70.25,214.09v9.3h-4.1v-9.3h4.1m1.41-4H64.74c-1.43,0-2.59,1.7-2.59,3.8v11c0,1.4.77,2.53,1.73,2.53h8.64c1,0,1.73-1.13,1.73-2.53v-11c0-2.1-1.16-3.8-2.59-3.8Z"/><path d="M71.66,208.36H64.74c-2.42,0-4.32,2.43-4.32,5.53v11c0,2.39,1.52,4.26,3.46,4.26h8.64c1.94,0,3.46-1.87,3.46-4.26v-11c0-3.1-1.9-5.53-4.32-5.53Zm-7.59,17.3a1.59,1.59,0,0,1-.19-.8v-11c0-1.33.64-2.07.86-2.07h6.92c.21,0,.86.74.86,2.07v11a1.59,1.59,0,0,1-.19.8Z"/><path d="M136,196a2,2,0,1,1-2,2,2,2,0,0,1,2-2m0-4a6,6,0,1,0,6,6,6,6,0,0,0-6-6Z"/><path d="M179.07,152.19h0c-3.43,0-6.84.64-10.3.64h0c-3.51,0-7-.24-10.51-.34h-1c-4.48,0-9.1.78-13.63.78a25.75,25.75,0,0,1-6.61-.76,2.14,2.14,0,0,0-.54-.08c-2,0-2.7,3.22-.49,3.8a28.64,28.64,0,0,0,7.19.81c4.67,0,9.41-.75,14.06-.75h1c3.47.09,6.95.31,10.43.31h1.11c3.26,0,7.14-.13,10-1.91a1.35,1.35,0,0,0-.67-2.5Z"/><path d="M180.07,160.19h0c-3.43,0-6.84.64-10.3.64h0c-3.51,0-7-.24-10.51-.34h-1c-4.48,0-9.1.78-13.63.78a25.75,25.75,0,0,1-6.61-.76,2.14,2.14,0,0,0-.54-.08c-2,0-2.7,3.22-.49,3.8a28.64,28.64,0,0,0,7.19.81c4.67,0,9.41-.75,14.06-.75h1c3.47.09,6.95.31,10.43.31h1.11c3.26,0,7.14-.13,10-1.91a1.35,1.35,0,0,0-.67-2.5Z"/><path d="M180.07,170.19h0c-3.43,0-6.84.64-10.3.64h0c-3.51,0-7-.24-10.51-.34h-1c-4.48,0-9.1.78-13.63.78a25.75,25.75,0,0,1-6.61-.76,2.14,2.14,0,0,0-.54-.08c-2,0-2.7,3.22-.49,3.8a28.64,28.64,0,0,0,7.19.81c4.67,0,9.41-.75,14.06-.75h1c3.47.09,6.95.31,10.43.31h1.11c3.26,0,7.14-.13,10-1.91a1.35,1.35,0,0,0-.67-2.5Z"/><path d="M190.4,202.73a9.84,9.84,0,1,1-9.61,9.84,9.73,9.73,0,0,1,9.61-9.84m0-4A13.84,13.84,0,1,0,204,212.57a13.73,13.73,0,0,0-13.6-13.84Z"/></svg>