<svg id="Calque_1" data-name="Calque 1" xmlns="http://www.w3.org/2000/svg" viewBox="0 0 350 300"><title>selected</title><path d="M99.8,118.45A23.5,23.5,0,1,0,123.3,142a23.58,23.58,0,0,0-23.5-23.5ZM84.63,138A15.67,15.67,0,0,1,115,138ZM99.8,157.62a15.72,15.72,0,0,1-15.17-11.75H115A15.72,15.72,0,0,1,99.8,157.62Z"/><path d="M248.08,118.89a23.51,23.51,0,1,0,23.5,23.51,23.57,23.57,0,0,0-23.5-23.51Zm-15.17,19.59a15.67,15.67,0,0,1,30.34,0Zm15.17,19.58a15.72,15.72,0,0,1-15.17-11.75h30.34a15.72,15.72,0,0,1-15.17,11.75Z"/><path d="M301.9,103.65a9.86,9.86,0,0,1,10.1,10.1v65.8a9.88,9.88,0,0,1-10.1,10.1H48.1A9.88,9.88,0,0,1,38,179.55v-65.8a9.88,9.88,0,0,1,10.1-10.1H301.9m-13.4,84.6h13.4a8.41,8.41,0,0,0,8.7-8.7v-65.8a8.42,8.42,0,0,0-8.7-8.7H288.5v83.2m-132.3-59.7a9.88,9.88,0,0,1-10.1-10.1v-13.4H62.9v83.2H287.1v-83.2H203.9v13.4a9.88,9.88,0,0,1-10.1,10.1H156.2m0-1.4h37.6a8.41,8.41,0,0,0,8.7-8.7v-13.4h-55v13.4a8.41,8.41,0,0,0,8.7,8.7M48.1,188.25H61.5v-83.2H48.1a9,9,0,0,0-8.7,8.7v65.81a8.41,8.41,0,0,0,8.7,8.69m253.8-88.6H48.1A13.85,13.85,0,0,0,34,113.75v65.8a13.85,13.85,0,0,0,14.1,14.1H301.9a13.85,13.85,0,0,0,14.1-14.1v-65.8a13.85,13.85,0,0,0-14.1-14.1Zm-9.4,84.6v-75.2h9.4a4.44,4.44,0,0,1,4.7,4.7v65.8a4.44,4.44,0,0,1-4.7,4.7Zm-136.3-51.7h37.6a13.85,13.85,0,0,0,14.1-14.1v-9.4h75.2v75.2H66.9v-75.2h75.2v9.4a13.85,13.85,0,0,0,14.1,14.1Zm0-9.4a4.44,4.44,0,0,1-4.7-4.7v-9.4h47v9.4a4.44,4.44,0,0,1-4.7,4.7ZM48.1,184.25a4.43,4.43,0,0,1-4.7-4.69V113.75a5.05,5.05,0,0,1,4.7-4.7h9.4v75.2Z"/><path d="M84.91,138c-.83,0-1.51,1.65-1.51,3.69s.68,3.7,1.51,3.7,1.5-1.65,1.5-3.7-.68-3.69-1.5-3.69Z"/><path d="M263.39,138.7c-.61,0-1.11,1.65-1.11,3.7s.5,3.69,1.11,3.69,1.12-1.65,1.12-3.69-.5-3.7-1.12-3.7Z"/><path d="M176.68,108.43c-2,0-3.7,3.43-3.7,7.67s1.66,7.68,3.7,7.68,3.7-3.43,3.7-7.68-1.66-7.67-3.7-7.67Z"/></svg>