<svg id="Calque_1" data-name="Calque 1" xmlns="http://www.w3.org/2000/svg" viewBox="0 0 350 300"><defs><style>.cls-1{fill:none;stroke:#000;stroke-miterlimit:10;stroke-width:4px;}</style></defs><title>selected</title><path class="cls-1" d="M57.47,272.7c21.64,8.29,45,.21,54.31-18.81l0,0,17.95-36.62c1.65-.57,3.82-5,3.26-6.66L129.84,209l-.14-.11s-.11,0-.16,0l-23.19-11.36L169.68,68.2h0v0l6-12.26a26.06,26.06,0,0,0,8.74-1.38,25.79,25.79,0,0,0,14.88-13.11s0,0,0,0l9.79-20a3.7,3.7,0,0,0-1.7-5l-40-19.59a3.71,3.71,0,0,0-5,1.7l-9.79,20h0a25.82,25.82,0,0,0-1.24,19.83,26.11,26.11,0,0,0,4.26,7.75L86.36,187.69,63.17,176.33c-.05,0-.09-.09-.14-.11l-.18,0-3.16-1.55c-2.23-.28-3.7,6.44-3.28,6.65L38.47,217.91a.06.06,0,0,1,0,0,39,39,0,0,0-1.67,30,46.4,46.4,0,0,0,20.09,24.45,4.6,4.6,0,0,0,.59.29Zm3-6.81c-16.31-10-22.89-29.21-15.31-44.68,0,0,0,0,0,0l17.94-36.61,26.67,13.06-14.68,30a3.68,3.68,0,0,0-.18,2.83,3.56,3.56,0,0,0,1,1.5c1.57,1.4,4.7.93,5.66-.58a2.25,2.25,0,0,0,.22-.48l14.69-30L123.09,214l-17.93,36.6s0,0,0,0a35.08,35.08,0,0,1-44.69,15.29ZM158.47,36a18.45,18.45,0,0,1,.89-14.17h0l3.27-6.66L196,31.45l-3.25,6.63,0,0A18.55,18.55,0,0,1,158.47,36Zm40.76-11.18L165.89,8.45l1.64-3.33,33.34,16.33ZM168.05,54.65l-3.39,6.94,3.15-6.42-6.42-3.79q-1.86,16.59,0,17T168.05,54.65ZM99.68,194.22,93,191,154.73,65l6.66,3.27ZM18.27,209.93"/><path d="M222.27,2.82v4a14.14,14.14,0,0,1,14.11,14.09l.4,202.29v4h4l45.9-.09a.46.46,0,0,1,.35.14.48.48,0,0,1,.14.35l.09,46.59a.53.53,0,1,1-1.06,0l0-22.78v-4h-4l-11.89,0h-4v4l.05,23.32a.53.53,0,1,1-1.06,0l-.05-23.32v-4h-4l-12.45,0h-4v4l0,23.32a.51.51,0,0,1-.15.37.49.49,0,0,1-.38.16.52.52,0,0,1-.52-.53l-.05-23.31v-4h-4l-12.45,0h-4v4l0,23.31a.53.53,0,0,1-1.06,0l0-23.31v-4h-4l-12.45,0h-4v4l.05,23.31a.53.53,0,0,1-.53.53.53.53,0,0,1-.53-.53l0-23.31v-4h-4l-12.46,0h-4v4l.05,23.31a.53.53,0,0,1-.16.38.51.51,0,0,1-.37.15.52.52,0,0,1-.53-.52l-.05-23.32v-4h-4l-11.89,0h-4v4l0,22.78a.53.53,0,0,1-1.06,0l-.09-46.6a.49.49,0,0,1,.51-.48l45.87-.09h4v-4L208.15,21A14.12,14.12,0,0,1,222.24,6.82l0-4M209.51,173.48h4l18.11,0h4v-4l-.29-148.52a13.06,13.06,0,1,0-26.11.05l.29,148.52v4m.1,53.78h4l18.12,0h4v-4l-.09-44.73v-4h-4l-18.11,0h-4v4l.08,44.73v4M159.26,246.6h4l118.89-.24h4v-4l0-10.19v-4h-4l-118.88.24h-4v4l0,10.19v4m63-243.78h0A18.11,18.11,0,0,0,204.15,21l.4,202.3-45.88.09h0a4.49,4.49,0,0,0-4.49,4.47v0l.09,46.59a4.53,4.53,0,0,0,4.53,4.52h0a4.53,4.53,0,0,0,4.52-4.54l0-22.78,11.89,0,.05,23.31a4.52,4.52,0,0,0,4.53,4.52h0a4.52,4.52,0,0,0,4.52-4.53l-.05-23.32,12.46,0,0,23.31a4.53,4.53,0,0,0,4.53,4.52h0a4.53,4.53,0,0,0,4.52-4.54l-.05-23.31,12.46,0,0,23.31a4.53,4.53,0,0,0,4.53,4.52h0a4.53,4.53,0,0,0,4.52-4.54l0-23.31,12.45,0,.05,23.32a4.52,4.52,0,0,0,4.52,4.52h0a4.53,4.53,0,0,0,4.52-4.54l0-23.31,12.45,0,.05,23.32a4.53,4.53,0,0,0,4.53,4.52h0a4.54,4.54,0,0,0,4.52-4.54l-.05-23.32,11.89,0,0,22.78a4.53,4.53,0,0,0,4.53,4.52h0a4.53,4.53,0,0,0,4.52-4.54l-.09-46.58a4.49,4.49,0,0,0-4.49-4.49h0l-45.87.09-.4-202.3A18.12,18.12,0,0,0,222.27,2.82ZM213.5,169.47,213.21,21a9,9,0,0,1,9-9.07h0a9.05,9.05,0,0,1,9.06,9l.29,148.51-18.11,0Zm.1,53.78-.08-44.72,18.11,0,.09,44.72-18.12,0ZM163.26,242.6l0-10.19,118.88-.24,0,10.19-118.88.24Z"/></svg>