<svg id="Calque_1" data-name="Calque 1" xmlns="http://www.w3.org/2000/svg" viewBox="0 0 350 300"><defs><style>.cls-1{fill:none;stroke:#000;stroke-miterlimit:10;stroke-width:3px;}</style></defs><title>selected</title><path d="M255.22,44a1.26,1.26,0,0,1,1.26,1.26V232.74a1.27,1.27,0,0,1-1.26,1.26H238.17a1.27,1.27,0,0,1-1.26-1.26V214.83h-23v17.91a1.27,1.27,0,0,1-1.26,1.26H178.52a1.27,1.27,0,0,1-1.26-1.26V214.83h-23v17.91A1.27,1.27,0,0,1,153,234H118.87a1.26,1.26,0,0,1-1.26-1.26V214.83h-23v17.91A1.26,1.26,0,0,1,93.3,234h-17A1.27,1.27,0,0,1,75,232.74V45.26A1.27,1.27,0,0,1,76.26,44h17a1.26,1.26,0,0,1,1.26,1.26V63.17h23V45.26A1.26,1.26,0,0,1,118.87,44H153a1.27,1.27,0,0,1,1.26,1.26V63.17h23V45.26A1.27,1.27,0,0,1,178.52,44h34.09a1.27,1.27,0,0,1,1.26,1.26V63.17h23V45.26A1.27,1.27,0,0,1,238.17,44h17.05M239.43,231.48H254v-185H239.43v185m-161.91,0H92v-185H77.52v185M213.87,127.09h23V87h-23v40.09m-59.65,0h23V87h-23v40.09m-59.66,0h23V87h-23v40.09M213.87,191h23V150.91h-23V191m-59.65,0h23V150.91h-23V191m-59.66,0h23V150.91h-23V191M255.22,41H238.17a4.26,4.26,0,0,0-4.26,4.26V60.17h-17V45.26A4.26,4.26,0,0,0,212.61,41H178.52a4.26,4.26,0,0,0-4.26,4.26V60.17h-17V45.26A4.26,4.26,0,0,0,153,41H118.87a4.26,4.26,0,0,0-4.26,4.26V60.17h-17V45.26A4.26,4.26,0,0,0,93.3,41h-17A4.26,4.26,0,0,0,72,45.26V232.74A4.26,4.26,0,0,0,76.26,237h17a4.26,4.26,0,0,0,4.26-4.26V217.83h17v14.91a4.26,4.26,0,0,0,4.26,4.26H153a4.26,4.26,0,0,0,4.26-4.26V217.83h17v14.91a4.26,4.26,0,0,0,4.26,4.26h34.09a4.26,4.26,0,0,0,4.26-4.26V217.83h17v14.91a4.26,4.26,0,0,0,4.26,4.26h17.05a4.26,4.26,0,0,0,4.26-4.26V45.26A4.26,4.26,0,0,0,255.22,41ZM242.43,228.48v-179H251v179Zm-161.91,0v-179H89v179ZM216.87,124.09V90h17v34.09Zm-59.65,0V90h17v34.09Zm-59.66,0V90h17v34.09ZM216.87,188V153.91h17V188Zm-59.65,0V153.91h17V188Zm-59.66,0V153.91h17V188Z"/><path d="M207.64,52.52v173H184.82v-173h22.82m3-3H181.82v179h28.82v-179Z"/><path d="M147.54,52.14v173H124.71v-173h22.83m3-3H121.71v179h28.83v-179Z"/><path class="cls-1" d="M202.36,75.84a1.73,1.73,0,1,1,1.73-1.73,1.73,1.73,0,0,1-1.73,1.73"/><path class="cls-1" d="M190.14,75.84a1.73,1.73,0,1,1,1.72-1.73,1.73,1.73,0,0,1-1.72,1.73"/><path class="cls-1" d="M202.34,141.87a1.72,1.72,0,1,1,1.73-1.72,1.72,1.72,0,0,1-1.73,1.72"/><path class="cls-1" d="M190.12,141.87a1.72,1.72,0,1,1,1.72-1.72,1.73,1.73,0,0,1-1.72,1.72"/><path class="cls-1" d="M202.36,206.76a1.73,1.73,0,1,1,1.73-1.72,1.72,1.72,0,0,1-1.73,1.72"/><path class="cls-1" d="M190.14,206.76a1.73,1.73,0,1,1,1.72-1.72,1.72,1.72,0,0,1-1.72,1.72"/><path class="cls-1" d="M142.64,73.92a1.72,1.72,0,1,1,1.73-1.72,1.72,1.72,0,0,1-1.73,1.72"/><path class="cls-1" d="M130.42,73.92a1.72,1.72,0,1,1,1.72-1.72,1.73,1.73,0,0,1-1.72,1.72"/><path class="cls-1" d="M142.62,140a1.73,1.73,0,1,1,1.73-1.73,1.72,1.72,0,0,1-1.73,1.73"/><path class="cls-1" d="M130.4,140a1.73,1.73,0,1,1,1.72-1.73A1.73,1.73,0,0,1,130.4,140"/><path class="cls-1" d="M142.64,204.84a1.72,1.72,0,1,1,1.73-1.72,1.72,1.72,0,0,1-1.73,1.72"/><path class="cls-1" d="M130.42,204.84a1.72,1.72,0,1,1,1.72-1.72,1.73,1.73,0,0,1-1.72,1.72"/><path class="cls-1" d="M84.46,73.54a1.73,1.73,0,1,1,1.72-1.72,1.73,1.73,0,0,1-1.72,1.72"/><path class="cls-1" d="M84.44,139.57a1.72,1.72,0,1,1,1.72-1.72,1.73,1.73,0,0,1-1.72,1.72"/><path class="cls-1" d="M84.46,204.46a1.72,1.72,0,1,1,1.72-1.72,1.73,1.73,0,0,1-1.72,1.72"/><path class="cls-1" d="M247.29,74.69A1.73,1.73,0,1,1,249,73a1.72,1.72,0,0,1-1.72,1.73"/><path class="cls-1" d="M247.27,140.72A1.72,1.72,0,1,1,249,139a1.72,1.72,0,0,1-1.72,1.72"/><path class="cls-1" d="M247.29,205.61a1.73,1.73,0,1,1,1.72-1.72,1.72,1.72,0,0,1-1.72,1.72"/></svg>