<?xml version="1.0" encoding="utf-8"?>
<!-- Generator: Adobe Illustrator 22.1.0, SVG Export Plug-In . SVG Version: 6.00 Build 0)  -->
<svg version="1.1" id="Calque_1" xmlns="http://www.w3.org/2000/svg" xmlns:xlink="http://www.w3.org/1999/xlink" x="0px" y="0px"
	 viewBox="0 0 350 300" style="enable-background:new 0 0 350 300;" xml:space="preserve">
<title>selected</title>
<g>
	<path d="M314.1,50.6c-0.4,0.1-1,0.3-1.5,0.3c-0.4,0-1,0-1.4,0c-86.3,0-172.6,0-258.9,0c-9.5,0-19,0-28.7,0
		c1.8,9.2,6.4,15.9,12.1,16.3c1.9,0.1,3.8,0,5.6,0c0.1,1.8,0.3,2.6,0.3,3.4c0,55.5,0,110.9,0,166.4c0,0.1-0.3,1.5-0.5,3.5
		c-1.2,8.2-2,14.9-2.6,19.7c2.4-0.7,4.9-1.5,7.2-2.2c150.9,0.4,254.1,0.4,258.5-0.1c0.3,0,2-0.3,4.1,0.4c2.4,1,4.1,2.9,5.3,5
		c-1.6-6.3-3.4-14-4.6-23.1c0,0-0.5-2.6-0.5-5.2c0-53.5,0-107.2,0-160.8c0-2.2,0.1-4.5,0.1-7.2c2.3,0,4.2,0.1,6.1,0
		c5.4-0.5,9.9-7.2,11.7-16.3C322.5,50.8,318.3,50.6,314.1,50.6z M260.4,67.6h23.4v132.5h-23.4V67.6z M163.5,67.6h23.4v132.1h-23.4
		L163.5,67.6L163.5,67.6z M66.6,67.7H90v132.4H66.6V67.7z M57.2,240.9H51V67.6h6.3V240.9z M90.1,240.8H66.5c0-6.7-0.1-13.2,0.1-19.8
		c0-1.4,1.5-3.7,2.3-3.7c6.9-0.3,14-0.1,21.2-0.1L90.1,240.8L90.1,240.8z M105.6,240.9h-6.3V67.6h6.3V240.9z M138.4,240.8H115V217
		h23.4V240.8z M138.5,199.7h-23.4V67.9h23.4V199.7z M154,240.9h-6V67.6h6.1v173.3H154z M186.9,240.9h-23.6c0-7.3,0-14.5,0.1-21.7
		c0-1,1.1-2.6,1.8-2.6c7.2-0.1,14.4-0.1,21.9-0.1v24.5H186.9z M202.5,240.8h-6.1V67.5h6.1V240.8z M235.3,240.8h-23.4v-23.9h23.4
		V240.8z M235.4,199.7H212V67.9h23.4V199.7z M251,240.9h-6.3V67.6h6.3V240.9z M284.1,240.8h-23.8v-23.5c7.3,0,14.5-0.1,21.6,0.1
		c0.7,0,1.9,2.7,2,4.3C284.2,228,284.1,234.2,284.1,240.8z M299.4,240.9h-6.3V67.6h6.3V240.9z"/>
	<path d="M186.9,216.4v24.5h-23.6c0-7.3-0.1-14.5,0.1-21.7c0-1,1.1-2.6,1.8-2.6C172.3,216.4,179.6,216.4,186.9,216.4"/>
	<rect x="115" y="217" width="23.4" height="23.8"/>
	<rect x="211.9" y="216.8" width="23.4" height="23.9"/>
	<path d="M260.3,240.8v-23.5c7.3,0,14.5-0.1,21.6,0.1c0.7,0,1.9,2.7,2,4.3c0.3,6.1,0.1,12.4,0.1,19H260.3z"/>
	<path d="M90.1,217.1v23.6H66.5c0-6.7-0.1-13.2,0.1-19.8c0-1.4,1.5-3.7,2.3-3.7C75.9,217,82.8,217.1,90.1,217.1"/>
	<path d="M42,244.3v-44c80.6,0,160-0.3,239.3,0.4c7.9,0,21.2,5.2,21.9,8.2c2.6,11.6,1.1,23.1,1.1,35.6H42V244.3z"/>
</g>
</svg>
