<svg id="Calque_1" data-name="Calque 1" xmlns="http://www.w3.org/2000/svg" viewBox="0 0 350 300"><title>selected</title><g id="_4-Partiture" data-name="4-Partiture"><path d="M99.8,150.42a18.2,18.2,0,1,0,18.2,18.2,18.21,18.21,0,0,0-18.2-18.2Zm0,27.3a9.1,9.1,0,1,1,9.1-9.1,9.11,9.11,0,0,1-9.1,9.1Z"/><path d="M145.3,132.22a18.2,18.2,0,1,0,18.2,18.2,18.21,18.21,0,0,0-18.2-18.2Zm0,27.3a9.1,9.1,0,1,1,9.1-9.1,9.11,9.11,0,0,1-9.1,9.1Z"/><path d="M113.45,95.82a4.55,4.55,0,0,0-4.55,4.55v68.25a4.55,4.55,0,0,0,9.1,0V100.37a4.55,4.55,0,0,0-4.55-4.55Z"/><path d="M159,77.62a4.55,4.55,0,0,0-4.55,4.55v68.25a4.55,4.55,0,0,0,9.1,0V82.17A4.55,4.55,0,0,0,159,77.62Z"/><path d="M159,77.61a4.54,4.54,0,0,0-1.69.33l-45.5,18.2a4.56,4.56,0,0,0-2.86,4.23v18.2a4.54,4.54,0,0,0,6.24,4.22l45.5-18.2a4.54,4.54,0,0,0,2.86-4.22V82.17A4.57,4.57,0,0,0,159,77.61ZM118,111.85v-8.4l36.4-14.56v8.4L118,111.85Z"/><path d="M199.9,177.72a18.2,18.2,0,1,0,18.2,18.2,18.21,18.21,0,0,0-18.2-18.2Zm0,27.3a9.1,9.1,0,1,1,9.1-9.1,9.11,9.11,0,0,1-9.1,9.1Z"/><path d="M213.55,123.12a4.55,4.55,0,0,0-4.55,4.55v68.25a4.55,4.55,0,0,0,9.1,0V127.67a4.55,4.55,0,0,0-4.55-4.55Z"/><path d="M259.05,104.92a4.53,4.53,0,0,0-1.69.32l-45.5,18.2a4.56,4.56,0,0,0-2.86,4.23v18.2a4.54,4.54,0,0,0,6.24,4.22l45.5-18.2a4.54,4.54,0,0,0,2.86-4.22v-18.2a4.56,4.56,0,0,0-2-3.77,4.5,4.5,0,0,0-2.55-.78Zm-41,34.23v-8.4l36.4-14.56v8.4l-36.4,14.56Z"/><path d="M295.45,36.67H31.55A4.55,4.55,0,0,0,27,41.22v218.4a4.55,4.55,0,0,0,4.55,4.55h263.9a4.55,4.55,0,0,0,4.55-4.55V41.22a4.55,4.55,0,0,0-4.55-4.55ZM36.1,255.07V45.77H290.9v209.3Z"/><path d="M95.25,109.47H31.55a4.55,4.55,0,0,0,0,9.1h63.7a4.55,4.55,0,1,0,0-9.1Z"/><path d="M295.45,109.47h-18.2a4.55,4.55,0,0,0,0,9.1h18.2a4.55,4.55,0,1,0,0-9.1Z"/><path d="M295.45,182.27h-63.7a4.55,4.55,0,1,0,0,9.1h63.7a4.55,4.55,0,1,0,0-9.1Z"/><path d="M72.5,182.27H31.55a4.55,4.55,0,0,0,0,9.1h41a4.55,4.55,0,1,0,0-9.1Z"/><path d="M54.3,36.67H31.55A4.55,4.55,0,0,0,27,41.22v218.4a4.55,4.55,0,0,0,4.55,4.55H54.3a4.55,4.55,0,0,0,4.55-4.55V41.22a4.55,4.55,0,0,0-4.55-4.55ZM36.1,255.07V45.77H49.75v209.3Z"/></g></svg>