<svg id="Calque_1" data-name="Calque 1" xmlns="http://www.w3.org/2000/svg" viewBox="0 0 350 300"><defs><style>.cls-1{fill:none;stroke:#000;stroke-miterlimit:10;stroke-width:4px;}</style></defs><title>selected</title><path class="cls-1" d="M15.71,118.73,16.59,194c0,1,1.35,1.85,3.48,2.31l151,31.47a15.91,15.91,0,0,0,3.14.32h0a10.2,10.2,0,0,0,1.57.54,15.34,15.34,0,0,0,3.4.37,15.12,15.12,0,0,0,3.14-.32l149-32.18c2.14-.46,3.48-1.36,3.48-2.32v-78.3s0,0,0-.07a.43.43,0,0,0,0,0c0-.08-.08-.15-.09-.22a1.75,1.75,0,0,0-.22-.43,3.44,3.44,0,0,0-.27-.27,2.53,2.53,0,0,0-.47-.36,4.77,4.77,0,0,0-.46-.25,5.19,5.19,0,0,0-.67-.28,5.62,5.62,0,0,0-.62-.2l-.42-.13c-.14,0-.3-.05-.46-.08s-.23-.06-.36-.09L177.18,83.83a16,16,0,0,0-5.57.08L19.79,115.42c-2.22.45-3.62,1.35-3.64,2.35,0,0,0,0,0,0a1.43,1.43,0,0,0-.46.92m297.16-2.55L179.07,146,37.38,117.8,174.84,89.17ZM185.77,221.93V150.52L321.56,120.3v72.29Z"/><path class="cls-1" d="M195.62,161.88c7.06-.67,13.45-1.48,19.56-2.35.36,1.55.74,3.08,1.13,4.59-4.68.76-9.58,1.49-14.84,2.16.92,5,1.9,9.86,2.77,14.65,5.09-1.06,9.9-2.1,14.46-3.15.34,1.41.66,2.8,1,4.2q-6.93,1.74-14.61,3.54a93.3,93.3,0,0,1,1.53,19.25c-1.62.58-3.22,1.16-4.8,1.76-.3-14.44-4-29-6.15-44.65"/><path class="cls-1" d="M225.58,157.94c3.31,13.82,9.08,24.79,8.44,37.55l-4.82,1.59c1-13-4.5-24.43-7.85-38.47l4.23-.67"/><path class="cls-1" d="M265.71,170.68c-1.94-4-4-9.07-4.62-13.27l-.15,0a83.35,83.35,0,0,0-.42,12.69c.14,5.32.51,10.67-.42,16.67l-3.26,1a116.86,116.86,0,0,0-9.72-14.15,84.37,84.37,0,0,1-8.26-12.7l-.09,0c1.18,4.69,3.21,10.5,4.65,15.61a51.36,51.36,0,0,1,2.25,15.06l-4.38,1.43c.83-12.62-4.8-23.08-7-36.54l5.36-.84a98.05,98.05,0,0,0,10.65,15.94,95.79,95.79,0,0,1,7,9.88l.15,0c-.17-3.47-.47-7.16-.65-11.39-.14-5.43-.08-10.87,1.66-16.92,1.92-.21,3.84-.41,5.8-.6.91,11.57,7.37,19.92,11.21,29.88-1.36.36-2.71.74-4.06,1.12a138.13,138.13,0,0,0-5.75-12.91"/><path class="cls-1" d="M308.06,163.64c2.93,8.67-4.1,13.5-12.8,15.05-9.05,1.58-17.26-2.74-20.74-11.29-3.8-8.94,4.21-16.69,14.2-16.77,9.63,0,16.24,5.67,19.34,13m-28.92,3a14.19,14.19,0,0,0,15.31,9.26c7.18-1.07,10.06-6,8.16-11.81-1.85-5-6.48-10.49-14.24-10.27-8.06.32-11.65,6.81-9.23,12.82"/></svg>