<svg id="Calque_1" data-name="Calque 1" xmlns="http://www.w3.org/2000/svg" viewBox="0 0 350 300"><title>selected</title><path d="M41.66,26.39V245.18a13,13,0,0,1-12.66-13V39.42a13.06,13.06,0,0,1,12.66-13m48.38-4H42a17,17,0,0,0-17,17V232.15a17.06,17.06,0,0,0,17,17H90a3.63,3.63,0,1,0,0-7.25H45.66v-6.8H90a3.62,3.62,0,1,0,0-7.24H45.66v-7.49H90a3.62,3.62,0,1,0,0-7.24H45.66v-7.49H90a3.62,3.62,0,1,0,0-7.24H45.66V191H90a3.63,3.63,0,1,0,0-7.25H45.66v-7.48H90A3.62,3.62,0,1,0,90,169H45.66V161.5H90a3.62,3.62,0,1,0,0-7.24H45.66v-7.49H90a3.62,3.62,0,1,0,0-7.24H45.66v-7.48H90a3.63,3.63,0,1,0,0-7.25H45.66v-7.48H90a3.62,3.62,0,1,0,0-7.24H45.66v-7.49H90a3.62,3.62,0,1,0,0-7.24H45.66V87.86H90a3.62,3.62,0,1,0,0-7.24H45.66V73.13H90a3.62,3.62,0,1,0,0-7.24H45.66V58.41H90a3.62,3.62,0,1,0,0-7.24H45.66V43.68H90a3.62,3.62,0,1,0,0-7.24H45.66V29.63H90a3.62,3.62,0,1,0,0-7.24Z"/><path d="M267.93,26.26a3.2,3.2,0,0,1,1.49.38,3,3,0,0,1,1.44,3.85l-4.13,8.19-6.51-4,5.17-7,0,0,0,0a3,3,0,0,1,2.48-1.33M118,26.65A3,3,0,0,1,120.51,28l0,0,0,0,5.2,7-6.48,4-4.17-8.15A3,3,0,0,1,116.53,27a3.18,3.18,0,0,1,1.51-.39m149.89-4.39a7,7,0,0,0-5.76,3l-68.93,93.4-69.46-93a7,7,0,0,0-5.74-3,7.14,7.14,0,0,0-3.4.87,7,7,0,0,0-3.24,8.87c0,.11.1.22.16.33l20.29,39.69a3.92,3.92,0,0,0,7-3.56L122.71,37.32l112.73,151a3.91,3.91,0,0,0,3.14,1.57,3.85,3.85,0,0,0,2.34-.78,3.91,3.91,0,0,0,.8-5.48l-26.06-34.9L274.43,32.3c.05-.11.11-.23.15-.34a7,7,0,0,0-3.28-8.85,7.14,7.14,0,0,0-3.37-.85ZM210.42,141.72l-12.29-16.47L263.3,37,210.42,141.72Z"/><path d="M257.6,206.66a17,17,0,1,0,3.07.27,17.69,17.69,0,0,0-3.07-.27Zm0,26.27a9.22,9.22,0,0,1,0-18.44,9.32,9.32,0,0,1,1.66.15,9.22,9.22,0,0,1-1.63,18.29Z"/><path d="M129.46,207a17.19,17.19,0,0,0-14.1,7.41,17.05,17.05,0,0,0,14,26.71,17.06,17.06,0,0,0,.08-34.12Zm-.06,26.29a9.23,9.23,0,1,1,9.08-10.91,9.22,9.22,0,0,1-7.37,10.75,9.89,9.89,0,0,1-1.71.16Z"/><path d="M135.45,70.81l5.68,11.13-5.71-11.13h0M281.86,235.87l-.38,1-.15,0-.06.09,0-.06.13-.18.1-.2.34-.65M274,245.3l-1,.91-.14-.12.17-.11.93-.68M136,66.78A9.23,9.23,0,0,0,130,69l41,79.89L137.5,194.22A30.92,30.92,0,1,0,129.37,255h0A30.9,30.9,0,0,0,155,206.65l38.38-44.19,38.67,44a30.94,30.94,0,0,0,25.7,48.21,30.59,30.59,0,0,0,14.65-3.73c4.1,3.59,13.58,9.06,33.33,9.08h0a11.38,11.38,0,0,0,11-8.86A11.32,11.32,0,0,0,306.2,237.4a93.18,93.18,0,0,1-19.55-3,31.8,31.8,0,0,0,1.43-5.23,30.9,30.9,0,0,0-41.54-34.35,3.92,3.92,0,0,0,1.41,7.58,3.88,3.88,0,0,0,1.41-.27A23.09,23.09,0,0,1,278,234.63a3.82,3.82,0,0,0-.38.69,23.16,23.16,0,0,1-19.93,11.5,23.49,23.49,0,0,1-4.16-.38,23.07,23.07,0,0,1-13.48-37.65,3.91,3.91,0,0,0-.05-5.12l-42.69-48.56a3.92,3.92,0,0,0-2.95-1.33h-.21l-1.18.06a4,4,0,0,0-.7-.06,4,4,0,0,0-1.12.17l-8.56.47L138,67a9.51,9.51,0,0,0-2-.22Zm3,136a3.94,3.94,0,0,0,3.16-1.59l32.81-44.46,1.84,3.59a3.9,3.9,0,0,0,3.49,2.13h.22l2.65-.15L147,203.92a3.92,3.92,0,0,0,0,5.12,23.25,23.25,0,1,1-9.35-6.56,4,4,0,0,0,1.39.25ZM305.7,252.17c-15.23,0-23.09-3.58-26.72-6.07a30.62,30.62,0,0,0,4-4.57,98.57,98.57,0,0,0,22.87,3.69,3.52,3.52,0,0,1,2.65,1.39,3.4,3.4,0,0,1,.62,2.83,3.49,3.49,0,0,1-3.38,2.73Z"/></svg>