<svg id="Calque_1" data-name="Calque 1" xmlns="http://www.w3.org/2000/svg" viewBox="0 0 350 300"><defs><style>.cls-1{fill:none;stroke:#000;stroke-miterlimit:10;stroke-width:4px;}</style></defs><title>selected</title><path d="M262,22h0a18.45,18.45,0,0,1,18,14.67l.66,3.19h16.19l1.16-2c.07-.12.14-.24.22-.36V61c-.08-.11-.15-.23-.22-.35l-1.15-2h-16.2l-.66,3.2a18.45,18.45,0,0,1-18,14.67H235.31l-.85.42L202.14,93.09l-2.21,1.11v26.51a.47.47,0,0,1-.46.47H186.53v17.39a36.3,36.3,0,0,1-36.2,36.21h-8.46v25.88l-.84,0-1.58,0-.8-.38L123.34,193a.46.46,0,0,1-.27-.41V121.18H88.27v80.26h-.94V121.18H65.47a.47.47,0,0,1-.47-.47V22.44a.47.47,0,0,1,.47-.46H262m-8.47,53.6H262a17.43,17.43,0,0,0,17.4-17.4V40.31A17.43,17.43,0,0,0,262,22.91h-8.47V75.58m-17.86,0H252.6V22.91H235.67V75.58M199.93,93.16l5.79-2.9,26.8-13.4,2.21-1.1V22.91h-34.8V93.16M92.27,57.71H199V22.91H83.8V49.24a8.48,8.48,0,0,0,8.47,8.47M65.93,120.24H199V58.64H92.27a9.4,9.4,0,0,1-9.4-9.4V22.91H65.93v97.33m97.8,26.8h4.94V148h-4.94a9.41,9.41,0,0,1-9.4-9.4v-17.4H141.87v52.66h8.47a35.35,35.35,0,0,0,35.26-35.26v-17.4H155.27v17.4a8.46,8.46,0,0,0,8.46,8.46m-22.8,53.33V121.18H124v71.18l2.29,1.08,8.93,4.23,5.71,2.7m183.6-165a.47.47,0,0,1,.47.46v26.8a.47.47,0,0,1-.47.47H302.21a4.88,4.88,0,0,1-2.85-.93h24.71V36.31H299.35a4.9,4.9,0,0,1,2.85-.93h22.33M262,18H65.47A4.47,4.47,0,0,0,61,22.44v98.27a4.47,4.47,0,0,0,4.47,4.47H83.33v80.3l8.94-.07V125.18h26.8v67.44a4.44,4.44,0,0,0,2.55,4l15.31,7.3v.81l8.94-.16V178.78h4.46a40.25,40.25,0,0,0,40.2-40.2v-13.4h8.94a4.47,4.47,0,0,0,4.46-4.47v-24l32.32-16.16H262a22.37,22.37,0,0,0,21.89-17.87h10.62a8.9,8.9,0,0,0,7.69,4.47h22.33A4.47,4.47,0,0,0,329,62.64V35.84a4.47,4.47,0,0,0-4.47-4.46H302.2a8.9,8.9,0,0,0-7.69,4.46H283.89A22.37,22.37,0,0,0,262,18Zm-4.47,53.6V26.91H262a13.4,13.4,0,0,1,13.4,13.4V58.18A13.4,13.4,0,0,1,262,71.58Zm-17.86,0V26.91h8.93V71.58Zm-35.74,15.1V26.91h26.8V73.28l-26.8,13.4Zm-111.66-33a4.47,4.47,0,0,1-4.47-4.47V26.91H195v26.8ZM69.93,116.24V26.91h8.94V49.24a13.4,13.4,0,0,0,13.4,13.4H195v53.6ZM302.2,58.18V40.31h17.87V58.18ZM163.73,143a4.46,4.46,0,0,1-4.46-4.46v-13.4H181.6v13.4a31.3,31.3,0,0,1-31.27,31.26h-4.46V125.18h4.46v13.4a13.4,13.4,0,0,0,13.4,13.4h8.94V143Zm-26.8,51L128,189.82V125.18h8.93v68.87Z"/><path d="M141.87,192.72v14.8h17.4l.16,0,49.13,17.87a.46.46,0,0,1,.31.43v35.74a.47.47,0,0,1-.47.46H65.47a.47.47,0,0,1-.47-.46V216.92a9.41,9.41,0,0,1,9.4-9.4H87.33v-14h.94v14h52.66V192.74l.94,0m-75.94,68.4h142V244.19h-44.2a.47.47,0,0,1-.33-.14l-16.55-16.56-1.18-1.17H105.35v-.93h40.52a.51.51,0,0,1,.33.13l16.55,16.56,1.18,1.17h44V226.18l-2.63-1-45.45-16.53-.66-.24H74.4a8.48,8.48,0,0,0-8.47,8.47v44.2m79.94-72.47-8.94.16v14.71H92.27V189.47l-8.94.07v14H74.4A13.4,13.4,0,0,0,61,216.92v44.67a4.47,4.47,0,0,0,4.47,4.46H208.4a4.47,4.47,0,0,0,4.47-4.46V225.85a4.48,4.48,0,0,0-2.94-4.19l-49.14-17.87a4.39,4.39,0,0,0-1.52-.27h-13.4V188.65ZM69.93,257.12v-40.2a4.47,4.47,0,0,1,4.47-4.47h84.08L203.93,229v10.27H165.58L149,222.69a4.47,4.47,0,0,0-3.15-1.3H101.35v8.93H144l16.56,16.56a4.48,4.48,0,0,0,3.15,1.31h40.2v8.93Z"/><path class="cls-1" d="M64.71,105.65C71,94.36,71.76,66,66.46,42.27"/></svg>