<svg id="Calque_1" data-name="Calque 1" xmlns="http://www.w3.org/2000/svg" viewBox="0 0 350 300"><defs><style>.cls-1{fill:none;stroke:#000;stroke-miterlimit:10;stroke-width:5px;}</style></defs><title>selected</title><path class="cls-1" d="M128.36,184.11h-9.63a3.65,3.65,0,0,0-3.91,3.4V217.1c0,4.6,9.68,4.6,9.68,0v-8.84h3.4c13.72,0,12.6-12.1,12.65-12.24,0-7.57-4.44-11.91-12.19-11.91m-.46,16.15h-3.4v-7.4c3.25.2,6.37-1,6.37,3.44-.09.21.58,4-3,4"/><path class="cls-1" d="M161.44,187.51V197.7H154.6V187.51c0-4.56-9.68-4.56-9.68,0V217.1c0,4.6,9.68,4.6,9.68,0V205.7h6.84v11.4c0,4.6,9.68,4.6,9.68,0V187.51c0-4.56-9.68-4.56-9.68,0"/><path class="cls-1" d="M186.46,111a51.65,51.65,0,0,0-.3-6.65,43.49,43.49,0,0,0-86.39,0,53.23,53.23,0,0,0-.3,6.65,6.66,6.66,0,0,0,6.66,6.66H179.8a6.66,6.66,0,0,0,6.66-6.66M156.57,85.93a6.65,6.65,0,0,0-9,2.67L139,104.34h-25.8a30.18,30.18,0,0,1,59.51,0H154.15l5.1-9.39a6.65,6.65,0,0,0-2.68-9"/><path class="cls-1" d="M141.88,126.1a20.22,20.22,0,1,0,20.22,20.22,20.24,20.24,0,0,0-20.22-20.22m0,27.13a6.91,6.91,0,1,1,6.91-6.91,6.92,6.92,0,0,1-6.91,6.91"/><path class="cls-1" d="M260.11,45.24H245.86a1.44,1.44,0,0,1-.43-.06H244.1a13.77,13.77,0,0,0-13.75,13.75v28.8a10.37,10.37,0,0,0,5.49,9.14v41a15.19,15.19,0,0,0,10.88,14.56q.21,31.16.43,62.3a3.46,3.46,0,0,0,6.77.16q.69-31.23,1.39-62.46a15.2,15.2,0,0,0,10.88-14.56V97.32a10.38,10.38,0,0,0,6.42-9.59V58.93a13.76,13.76,0,0,0-12.5-13.69m-2.5,89.39a6.6,6.6,0,1,1-13.19,0V93.25h13.19ZM264,87.73a1.78,1.78,0,0,1-1.78,1.78H240.71a1.78,1.78,0,0,1-1.77-1.78V58.93a5.17,5.17,0,0,1,5.16-5.17h14.76A5.18,5.18,0,0,1,264,58.93Z"/><path class="cls-1" d="M187.92,39.49H151.57V33.22a6.92,6.92,0,0,1,6.91-6.91h78.16a6.92,6.92,0,0,1,6.91,6.91V46.45h13.31V33.22A20.24,20.24,0,0,0,236.64,13H158.48a20.23,20.23,0,0,0-20.21,20.22v6.27H98a17,17,0,0,0-17,17V220a17,17,0,0,0,17,17h89.9a17,17,0,0,0,17-17V56.5a17,17,0,0,0-17-17M191.63,220a3.71,3.71,0,0,1-3.71,3.71H98A3.71,3.71,0,0,1,94.31,220V178.31h97.32Zm0-55H94.31V56.5A3.71,3.71,0,0,1,98,52.8h89.9a3.71,3.71,0,0,1,3.71,3.7Z"/></svg>