<svg id="Calque_1" data-name="Calque 1" xmlns="http://www.w3.org/2000/svg" viewBox="0 0 350 300"><title>selected</title><path d="M93.55,33.83a78.71,78.71,0,0,0-36.8,36.82,79.62,79.62,0,0,1,12.8-19,76.23,76.23,0,0,1,24-17.85M264.87,90a46.43,46.43,0,0,1,14.67,9.69A44.87,44.87,0,0,1,290,115.19,46.55,46.55,0,0,0,264.87,90m13.25,118.59v52.55a9.9,9.9,0,0,1-9.89,9.88H158.64c0-4-3.28-6.35-5.45-7.75a5.08,5.08,0,0,0-4.28-2.26,4.8,4.8,0,0,0-.85.07c-1.3.06-4.68.17-8.85.32-10.7.36-28.62,1-43.83,1.77-8.45.44-15.09.89-19.72,1.33-2.78.26-4.86.53-6.37.8a11.31,11.31,0,0,0-3.77,1.28,9.85,9.85,0,0,1-1.64-5.44V208.57H278.12M124.28,22q-2.46,0-4.92.15C77.13,24.75,44,61.87,44,104.55v104a5,5,0,0,0,5,5h9.92v47.63A14.91,14.91,0,0,0,73.77,276h75.08C92.1,274.24,68,272.57,68,271c0-2.69,75.6-4.65,80.73-5a.39.39,0,0,1,.18,0H149l-.27,0a.08.08,0,0,0,0,.05c-.28.52,5,2.51,5,5a5,5,0,0,1-4.79,5H268.23a14.91,14.91,0,0,0,14.89-14.88V213.49H293a5,5,0,0,0,5-5V131.14c0-27.31-23.06-49.61-50.6-49.61H228.26c-13.85,0-26.91-7.92-34.94-21.19C179,36.69,152.3,22,124.28,22ZM53.92,183.72V104.55c0-37.74,29.63-70.26,66.05-72.5,1.44-.08,2.88-.13,4.31-.13,24.6,0,48,12.85,60.55,33.56,9.84,16.26,26.08,26,43.43,26H247.4c22,0,40.68,18.18,40.68,39.69v52.58H221.6V116.26a5,5,0,0,0-5-5H125.36a5,5,0,0,0-5,5v67.46Zm122,0v-62.5h35.72v62.5Zm-45.64,0v-62.5H166v62.5Zm-76.4,19.85v-9.92H288.08v9.92Z"/><path d="M139.72,256.49h1.86l5,.05h1.07l0,5.73-7.94-.07.05-5.74m1.34-27.35,0,2-.11,12-.08,8.29-5.74-.05h-.34l-.14,15.74H135l17.61.17.15-15.73-6.08-.06.09-8.38.11-12,0-2-5.79-.05Z"/><path d="M74.93,233.51l3.4,0-.08,9.85-.08,7.51,0,5,5,.05h.55l-.06,5.74-9-.09.17-18.05.09-10.05m-5-5,0,3-.11,12-.22,23.06,18.95.17L88.73,251l-5.56,0,.08-7.51.1-12,0-2.84L70,228.47Z"/><path d="M96.64,256.08h1.08l2.42,0h0l5,.05h.46l0,5.73-9-.08.06-5.74M98,228.73l0,2.63-.11,12-.08,7.7L91.69,251l-.15,15.73,19,.18.15-15.73-5.47-.05.07-7.82.12-12,0-2.53L98,228.73Z"/><path d="M118.65,256.29h1.08l1.48,0h0l5,.05h1.08l-.06,5.73-8.64-.08.06-5.74M120,228.94l0,2.33-.12,12-.08,8-6.07-.05L113.55,267l18.64.18.14-15.73-6.07-.06.07-8.1.11-12,0-2.24-6.48-.06Z"/><path d="M266.38,234.38l2.89,0-.08,8.61L269,262.51l-9-.09,0-5.73h1.08l5,0,.05-5,.08-8.58.08-8.79m-4.95-5,0,1.77-.11,12-.08,8.58-5.05,0h-1L255,267.37l1,0,17.94.17.23-24.49.11-12,0-1.59-12.89-.12Z"/><path d="M160.72,256.49h1.86l5,.05h1.07l0,5.73-7.94-.07.05-5.74m1.34-27.35,0,2-.11,12-.08,8.29-5.74-.05h-.34l-.14,15.74H156l17.61.17.15-15.73-6.08-.06.09-8.38.11-12,0-2-5.79-.05Z"/><path d="M201.72,256.49h1.86l5,.05h1.07l0,5.73-7.94-.07.05-5.74m1.34-27.35,0,2-.11,12-.08,8.29-5.74-.05h-.34l-.14,15.74H197l17.61.17.15-15.73-6.08-.06.09-8.38.11-12,0-2-5.79-.05Z"/><path d="M180.65,256.29h1.08l1.48,0h0l5,.05h1.08l-.06,5.73-8.64-.08.06-5.74M182,228.94l0,2.33-.12,12-.08,8-6.07-.05L175.55,267l18.64.18.14-15.73-6.07-.06.07-8.1.11-12,0-2.24-6.48-.06Z"/><path d="M221.72,256.49h1.86l5,.05h1.07l0,5.73-7.94-.07.05-5.74m1.34-27.35,0,2-.11,12-.08,8.29-5.74-.05h-.34l-.14,15.74H217l17.61.17.15-15.73-6.08-.06.09-8.38.11-12,0-2-5.79-.05Z"/><path d="M240.72,256.49h1.86l5,.05h1.07l0,5.73-7.94-.07.05-5.74m1.34-27.35,0,2-.11,12-.08,8.29-5.74-.05h-.34l-.14,15.74H236l17.61.17.15-15.73-6.08-.06.09-8.38.11-12,0-2-5.79-.05Z"/></svg>