<?xml version="1.0" encoding="utf-8"?>
<!-- Generator: Adobe Illustrator 22.1.0, SVG Export Plug-In . SVG Version: 6.00 Build 0)  -->
<svg version="1.1" id="Calque_1" xmlns="http://www.w3.org/2000/svg" xmlns:xlink="http://www.w3.org/1999/xlink" x="0px" y="0px"
	 viewBox="0 0 350 300" style="enable-background:new 0 0 350 300;" xml:space="preserve">
<title>selected</title>
<g>
	<path d="M234.6,98.8V39.2c0-10.3-8.9-18.7-20-18.7h-20.6c-2.6,0-4.7,2-4.7,4.4c7,3.4,10.6,10.6,9,17.3
		c-2.1,8.5-12.1,13.3-20.4,11.2c-8.1-2.1-11.1-9.9-11.4-10.7V24.8c0-2.4-2.1-4.4-4.7-4.4h-20.6c-11,0-20,8.4-20,18.7v59.6
		C57.9,143.9,49,208.8,49,272.4c0,11.1,9.6,20.1,21.4,20.1s21.4-9,21.4-20.1c0-42.2,3.8-85.7,30.9-118.9
		c26.2-1.2,48.2-22.3,50.4-48.1h9.8c2.3,25.8,24.2,46.9,50.4,48.1c27.2,33.2,30.9,76.7,30.9,118.9c0,11.1,9.6,20.1,21.4,20.1
		c11.8,0,21.4-9,21.4-20.1C307.1,208.8,298.2,143.9,234.6,98.8z M208.5,42.1c0.5-5.8-3.6-11.3-9.8-12.9h15.9c5.9,0,10.6,4.5,10.6,10
		v14.1h-29.9C202.3,53.3,208,48.3,208.5,42.1z M130.8,39.2c0-5.5,4.8-10,10.6-10h15.9v13.4c0,10.7,9.3,19.5,20.7,19.5h47.2v34.5
		h-37.9h-18.7h-37.9L130.8,39.2L130.8,39.2z M120.4,144.8c-1.4,0-2.8,0.6-3.6,1.6c-13.2,15.6-22.3,34-27.7,56.5
		c-4.5,18.8-6.6,40.9-6.6,69.5c0,6.2-5.4,11.3-12,11.3c-6.6,0-12-5.1-12-11.3c0-61.4,8.4-124.2,69.3-167h36.1
		C161.5,127.1,142.6,144.8,120.4,144.8z M285.7,283.7c-6.6,0-12-5.1-12-11.3c0-28.6-2.1-50.7-6.6-69.5
		c-5.4-22.4-14.5-40.9-27.7-56.5c-0.9-1-2.2-1.6-3.6-1.6c-22.2,0-41.1-17.6-43.4-39.4h36.1c60.9,42.8,69.3,105.5,69.3,167
		C297.8,278.6,292.4,283.7,285.7,283.7z"/>
	<path d="M190.7,132.5c-3.3,2.6-7.8,4-12.7,4c-4.8,0-9.3-1.4-12.6-3.9c-2-1.5-4.9-1.2-6.6,0.6c-1.6,1.9-1.3,4.6,0.7,6.2
		c5,3.8,11.6,5.9,18.5,5.9c7,0,13.6-2.1,18.6-6c2-1.5,2.3-4.3,0.7-6.2C195.7,131.2,192.7,130.9,190.7,132.5z"/>
	<path d="M178,90.6c6.6,0,11.9-5,11.9-11.2s-5.4-11.2-11.9-11.2s-11.9,5-11.9,11.2S171.5,90.6,178,90.6z M178,76.9
		c1.4,0,2.6,1.1,2.6,2.4s-1.2,2.4-2.6,2.4c-1.4,0-2.6-1.1-2.6-2.4S176.6,76.9,178,76.9z"/>
</g>
</svg>
