<svg id="Calque_1" data-name="Calque 1" xmlns="http://www.w3.org/2000/svg" viewBox="0 0 350 300"><title>selected</title><path d="M52.89,131.94a4.76,4.76,0,0,0-4.76,4.75v47.57a4.76,4.76,0,0,0,9.51,0V136.69a4.75,4.75,0,0,0-4.75-4.75Z"/><path d="M199.66,60.83c-1,.79-2,1.61-2.92,2.47l2-2.47h.9m-59,9.52c-.22.4-.42.81-.61,1.22l.25-1.22h.36M140,87.58c.2.44.42.88.66,1.3h-.39l-.27-1.3m33.42,58.87L172,147.91l1.06-1.46h.4M81.42,27.3H38.62a9.52,9.52,0,0,0-9.52,9.51v9.51a9.52,9.52,0,0,0,9.52,9.51h42.8a4.93,4.93,0,0,1,3.46,1.44,4.4,4.4,0,0,1,1.3,3.12,33.32,33.32,0,0,0,33.3,33.49h19.14a23.69,23.69,0,0,0,18.91,9.52h19V138q-2.25,1.63-4.33,3.46h-29v-9.51a19.06,19.06,0,0,0-19-19H48.13a19,19,0,0,0-19,19V189a19,19,0,0,0,19,19h76.1a19.06,19.06,0,0,0,19-19V179.5H153c-.13,1.57-.24,3.15-.24,4.76v17.45l-8.07,10.88a4.63,4.63,0,0,0-.43.71,9.49,9.49,0,0,0-1,4.25H143a7.46,7.46,0,0,1,.8,2.25c6.58-.17,13.15-.37,19.73-.45l5.73,0c8.11,0,16.22.17,24.33.23,40.18.32,80.36.32,120.54.32a9.37,9.37,0,0,0-.68-6.57,4.68,4.68,0,0,0-.44-.71L305,201.71V184.26A57,57,0,0,0,281.19,138V98.64A52.24,52.24,0,0,0,198.9,55.83H157.53a22.32,22.32,0,0,0-18.91,9.52H119.48A4.93,4.93,0,0,1,116,63.91a4.37,4.37,0,0,1-1.3-3.11,33.32,33.32,0,0,0-33.3-33.5Zm-42.8,19V36.81h42.8a23.8,23.8,0,0,1,23.79,23.93,13.83,13.83,0,0,0,4.06,9.88,14.49,14.49,0,0,0,10.21,4.24h14.75a23.43,23.43,0,0,0,0,9.51H119.48A23.8,23.8,0,0,1,95.69,60.44a13.83,13.83,0,0,0-4.06-9.88,14.53,14.53,0,0,0-10.21-4.24Zm147.45,86.12V98.64a42.78,42.78,0,0,1,81.12-19H252.65a4.76,4.76,0,0,0,0,9.51h17.93a42.89,42.89,0,0,1,1.1,9.51h-19a4.76,4.76,0,0,0,0,9.51h19v24.29a56.63,56.63,0,0,0-23.78-5.26H209.85a56.6,56.6,0,0,0-23.78,5.26ZM157.53,93.88a14.27,14.27,0,1,1,0-28.53h31.08a52.63,52.63,0,0,0-11.75,28.53ZM48.13,198.53A9.53,9.53,0,0,1,38.62,189V131.94a9.53,9.53,0,0,1,9.51-9.52h76.1a9.54,9.54,0,0,1,9.52,9.52V189a9.54,9.54,0,0,1-9.52,9.52Zm114.15,0V184.26a47.62,47.62,0,0,1,47.57-47.57H247.9a47.62,47.62,0,0,1,47.56,47.57v14.27Zm-19-28.54V151h20.32a56.88,56.88,0,0,0-8.93,19Zm9.61,47.56,7-9.51h137.9l7.06,9.51Z"/><path d="M309.49,224.25v2.05H148.83v-2.05H309.49m5-5H143.83V231.3H314.49V219.25Z"/></svg>