<svg id="Calque_1" data-name="Calque 1" xmlns="http://www.w3.org/2000/svg" viewBox="0 0 350 300"><title>selected</title><path d="M214,30.19v3.5H187v9.18h-3.49V33.69h-27v-3.5H214m5-5H151.56v13.5h27v9.18H192V38.69h27V25.19Z"/><path d="M50.57,12.73A37.88,37.88,0,0,1,62.45,26.15a38.65,38.65,0,0,1,3.3,26.33l-1.46,6.15H79.1V170.05H64.69l2.37,6.67a25.3,25.3,0,0,0,23.79,16.82h38.73V67.07L129.44,54l-.08-8.12,49.25-.71,4.93-.07v-7H187v7.08H222.2l18.8.07V224.47H129.58V197H90.85a28.81,28.81,0,0,1-28.15-23l-.82-4H48.63V58.63H61.51l.57-4.35c2-15.14-.34-27.3-6.91-36.17a69.09,69.09,0,0,0-4.6-5.38m1.55,153.83H75.61V62.12H52.12V166.56M45,4c-1.57.19-3.45.68-4.1,2.05-1.64,3.43,6,9.26,10.25,15s8.19,15.65,6,32.54H43.63V175.05H57.8a33.78,33.78,0,0,0,33.05,27h33.73v27.44H246V40.24l-27-.1H192V33.06H178.54v7.08l-54.24.78q.15,13.1.28,26.2V188.54H90.85a20.28,20.28,0,0,1-19.08-13.49H84.1V53.63H70.61A42.84,42.84,0,0,0,45,4ZM57.12,161.56V67.12H70.61v94.44Z"/></svg>