<svg id="Calque_1" data-name="Calque 1" xmlns="http://www.w3.org/2000/svg" viewBox="0 0 350 300"><defs><style>.cls-1{fill:none;stroke:#000;stroke-miterlimit:10;stroke-width:5px;}</style></defs><title>selected</title><path class="cls-1" d="M334.38,180.38H3.62A2.62,2.62,0,0,0,1,183v52.5a2.62,2.62,0,0,0,2.62,2.62H334.38a2.62,2.62,0,0,0,2.62-2.62V183a2.62,2.62,0,0,0-2.62-2.63m-2.63,52.5H6.25V185.63h325.5Z"/><path class="cls-1" d="M281.88,169.88H77.13a2.63,2.63,0,1,0,0,5.25H281.88a2.63,2.63,0,0,0,0-5.25"/><path class="cls-1" d="M281.88,148.88a2.63,2.63,0,0,0-2.63,2.63v21a2.63,2.63,0,0,0,5.25,0v-21a2.62,2.62,0,0,0-2.62-2.63"/><path class="cls-1" d="M77.13,148.88a2.63,2.63,0,0,0-2.63,2.63v21a2.63,2.63,0,0,0,5.25,0v-21a2.62,2.62,0,0,0-2.62-2.63"/><path class="cls-1" d="M281.88,148.88c-24.49,0-38.71-7.15-52.47-14.08-12.44-6.26-24.19-12.17-42-12.17s-32.88,5.86-48.94,12.07c-18,7-36.7,14.18-61.32,14.18a2.63,2.63,0,0,0,0,5.25c25.6,0,44.72-7.38,63.21-14.53,15.59-6,30.31-11.72,47-11.72s27.8,5.64,39.67,11.61c13.64,6.86,29.09,14.64,54.83,14.64a2.63,2.63,0,0,0,0-5.25"/><path class="cls-1" d="M106,120c0-7.5,2.53-10.48,5.21-13.64,2.48-2.92,5.28-6.23,5.29-12.61,0-18.31-44.3-27.8-49.35-28.83a2.63,2.63,0,0,0-2.3,4.51C69,73.24,79.75,85,79.75,93.76c0,1.7-2,7.09-3.75,11.85-3.16,8.57-6.75,18.28-6.75,24.9,0,13.37,5.78,17.52,6.44,18a2.59,2.59,0,0,0,3.57-.74,2.66,2.66,0,0,0-.65-3.63S74.5,141,74.5,130.51c0-5.68,3.56-15.33,6.42-23.08,2.61-7,4.08-11.15,4.08-13.67,0-7.7-5.74-16.09-10.47-21.7,16.72,4.44,36.73,12.69,36.72,21.69,0,4.46-1.7,6.46-4,9.22-2.87,3.39-6.45,7.61-6.45,17,0,11.45,10.81,22.39,11.27,22.85a2.62,2.62,0,0,0,3.71-3.71c-.09-.1-9.73-9.87-9.73-19.14"/><path class="cls-1" d="M178.67,124.05l-73.5-69a2.62,2.62,0,1,0-3.59,3.83l73.5,69a2.62,2.62,0,1,0,3.59-3.82"/><path class="cls-1" d="M170.73,120.67h-30.4a2.63,2.63,0,1,0,0,5.25h30.4a2.63,2.63,0,1,0,0-5.25"/><path class="cls-1" d="M137.71,109.5a2.63,2.63,0,0,0-2.63,2.63v21a2.63,2.63,0,1,0,5.25,0v-21a2.62,2.62,0,0,0-2.62-2.63"/><path class="cls-1" d="M260.87,134.37c-1.45,0-2.62,2.1-2.62,4.7v7.16c0,2.6,1.17,4.7,2.62,4.7s2.63-2.1,2.63-4.7v-7.16c0-2.6-1.17-4.7-2.63-4.7"/><path class="cls-1" d="M276.63,134.37c-1.46,0-2.63,2.1-2.63,4.7v7.16c0,2.6,1.17,4.7,2.63,4.7s2.62-2.1,2.62-4.7v-7.16c0-2.6-1.17-4.7-2.62-4.7"/><path class="cls-1" d="M282.5,119.93c-2.61-2.61-6.95-2.6-12-2.55H267c-5.07-.06-9.41-.06-12,2.55a7.21,7.21,0,0,0-2,5.33c0,4.27,2.39,9.71,5.94,13.53a2.63,2.63,0,0,0,3.85-3.58c-3-3.16-4.54-7.49-4.54-10,0-1.17.33-1.5.45-1.61,1.07-1.07,4.72-1.06,8.3-1h3.5c3.59,0,7.23,0,8.3,1,.12.11.45.44.45,1.61,0,2.46-1.59,6.79-4.54,10a2.62,2.62,0,0,0,.14,3.71,2.59,2.59,0,0,0,1.79.7,2.64,2.64,0,0,0,1.92-.83c3.55-3.82,5.94-9.26,5.94-13.53a7.18,7.18,0,0,0-2-5.33"/><path class="cls-1" d="M196.86,89.42a16.92,16.92,0,0,0-9.31-9.1,20.59,20.59,0,0,0-26.79,11.45,25.08,25.08,0,0,0,13.93,32.64,2.62,2.62,0,1,0,2-4.87,19.84,19.84,0,0,1-11-25.82,15.35,15.35,0,0,1,20-8.53,11.79,11.79,0,0,1,6.54,15.3,8.89,8.89,0,0,1-11.56,4.93,6.6,6.6,0,0,1-3.65-8.56,4.75,4.75,0,0,1,6.17-2.63,2.64,2.64,0,0,0,3.41-1.47,2.61,2.61,0,0,0-1.46-3.4,10,10,0,0,0-13,5.55,11.84,11.84,0,0,0,6.56,15.38A14.13,14.13,0,0,0,197,102.44a16.94,16.94,0,0,0-.14-13"/><path class="cls-1" d="M164.62,46.45a2.61,2.61,0,0,0-3.71,0,11.37,11.37,0,0,1-15.71,0,8.37,8.37,0,0,1,0-11.83,6.18,6.18,0,0,1,8.72,0,4.41,4.41,0,0,1,0,6.23,2.62,2.62,0,1,0,3.71,3.71,9.64,9.64,0,0,0,0-13.65,11.43,11.43,0,0,0-16.14,0,13.6,13.6,0,0,0,0,19.25,16.36,16.36,0,0,0,23.13,0,2.61,2.61,0,0,0,0-3.71"/><path class="cls-1" d="M333.72,187.26v20.6a186.88,186.88,0,0,1-19.2,6c-25.57,6.59-59.18,10.77-94.62,11.76-54.63,1.53-111.95-4.53-168.46-3.4-16.22.32-31.65,1.27-45.19,2.78v-8.78c5.33-.31,10.76-.59,16.18-.81,45.15-1.9,90.69-1,133.17.32l2.08.06c13,.4,26.39.81,39.85.43,16.63-.47,30.79-2.14,40.94-4.85,20.42-5.44,22.57-14.09,17.78-20.37a31.33,31.33,0,0,0-7.6-6.64h75.29c5.39,0,9.78,1.31,9.78,2.91"/><path class="cls-1" d="M98.82,201A507.62,507.62,0,0,0,151.9,205q3.19.08,6.29.08c13.56,0,25.38-1.08,33.75-3.09,15.56-3.75,15.34-9.62-.19-16.39H233.2c4.37,2.44,7.39,4.71,9.19,6.89,5,6.06-.42,12.11-13.77,15.41-10.18,2.51-23.8,3.34-33.44,3.59-12.14.32-24.83,0-37.11-.39l-2.08-.06c-43-1.21-89.2-2.08-135.43-.28-4.79.18-9.58.4-14.31.65V189.62c22.76.94,44.24,4.2,65.07,7.37,9,1.36,18.27,2.77,27.5,4"/><path class="cls-1" d="M6.25,234.76v-4.23A390.61,390.61,0,0,1,52.38,227c55.78-1.29,111.52,5.8,169.14,3.94,38.15-1.24,74.37-6.46,102-14.71q5.69-1.69,10.88-3.57v22.14c0,1.86-4.4,3.37-9.81,3.37H16.06c-5.41,0-9.81-1.51-9.81-3.37"/><path class="cls-1" d="M158.93,187.5c0,2.83-15.37,5.12-34.34,5.12s-34.34-2.29-34.34-5.12,15.37-5.12,34.34-5.12,34.34,2.29,34.34,5.12"/></svg>