<svg id="Calque_1" data-name="Calque 1" xmlns="http://www.w3.org/2000/svg" viewBox="0 0 350 300"><title>selected</title><path d="M179.68,34.34a2.32,2.32,0,0,1,1.56.59L237.9,85.48a2.34,2.34,0,0,1,.78,1.62,2.29,2.29,0,0,1-.58,1.68,2.33,2.33,0,0,1-1.74.77A2.31,2.31,0,0,1,234.8,89l-3.9-3.48-3-2.67-2.66,3-8.9,10-1.84,2.06,1.27,2.44a13.94,13.94,0,0,1-17.33,19.43l-2.58-1-1.83,2L127.84,195,126,197l1.27,2.45a13.93,13.93,0,0,1-17.34,19.42l-2.57-1L105.54,220l-7.25,8.12-2.66,3,3,2.67,5,4.42a2.33,2.33,0,1,1-3.1,3.47L43.81,191.11A2.32,2.32,0,0,1,45.35,187a2.31,2.31,0,0,1,1.56.59l2.84,2.54,3,2.66,2.66-3,7.25-8.12,1.83-2.05-1.27-2.45A13.93,13.93,0,0,1,80.55,157.8l2.57,1L85,156.72,96.29,144,99,141l-3-2.66L82.6,126.42l-2.06-1.83-2.44,1.26a14,14,0,0,1-19.49-17.39l1-2.57-2-1.83-8.45-7.54-3-2.66-2.66,3L40,100.73a2.32,2.32,0,0,1-1.74.77,2.34,2.34,0,0,1-1.76-3.89L86.88,41.09a2.3,2.3,0,0,1,1.74-.78,2.35,2.35,0,0,1,1.76,3.9L86.91,48.1l-2.66,3,3,2.67,8.46,7.54,2,1.83,2.44-1.26a14.14,14.14,0,0,1,6.42-1.55,14,14,0,0,1,13.08,18.94l-1,2.57,2,1.83,13.38,11.94,3,2.66,2.66-3,11.37-12.74L153,80.46,151.72,78a13.94,13.94,0,0,1,17.33-19.43l2.57,1,1.84-2,8.9-10,2.66-3-3-2.66-3.9-3.48a2.32,2.32,0,0,1,1.54-4.07M211,94.76l2.66-3,8.12-9.1,2.66-3-3-2.66L191.5,50.33l-3-2.66-2.66,3-8.12,9.1-2.66,3,3,2.67L208,92.1l3,2.66m-148.24,7.7,2.67-3L92,69.63l2.66-3-3-2.66-7.58-6.76-3-2.66-2.67,3L51.85,87.4l-2.66,3,3,2.66,7.57,6.76,3,2.66M203.41,116a9.27,9.27,0,0,0,6.16-16.2L170.27,64.7a9.27,9.27,0,1,0-12.35,13.84l39.3,35.06a9.3,9.3,0,0,0,6.19,2.36M71.67,122.74a9.29,9.29,0,0,0,6.92-3.1l35-39.2A9.29,9.29,0,0,0,99.7,68.07l-35,39.2a9.29,9.29,0,0,0,6.94,15.47M137.16,103a4.49,4.49,0,0,1-3-1.14l-15.64-14-3-2.66-2.66,3L86.26,118.09l-2.67,3,3,2.66,15.65,14a4.47,4.47,0,0,1,.37,6.29L89.23,159l-2.66,3,3,2.66,29.92,26.7,3,2.66,2.66-3,64.63-72.45,2.66-3-3-2.67L159.51,86.2l-3-2.67-2.67,3-13.39,15a4.42,4.42,0,0,1-3.31,1.48M114.9,215.16a9.28,9.28,0,0,0,6.17-16.2l-39.3-35.05a9.27,9.27,0,1,0-12.35,13.84l39.3,35.05a9.27,9.27,0,0,0,6.18,2.36M92.13,228l2.66-3,6.46-7.24,2.67-3-3-2.66L71,185.4l-3-2.66-2.66,3L58.9,193l-2.66,3,3,2.66,29.93,26.7,3,2.66M179.68,30.34a6.33,6.33,0,0,0-4.2,11.06l3.89,3.47-8.9,10a18.11,18.11,0,0,0-6.4-1.17,17.9,17.9,0,0,0-15.91,26.18L136.79,92.6,123.42,80.67A18,18,0,0,0,98.35,58.3L89.9,50.76l3.46-3.89a6.34,6.34,0,1,0-9.46-8.44L33.48,94.94a6.34,6.34,0,0,0,9.46,8.45l3.47-3.89,8.46,7.55a18,18,0,0,0,25.06,22.36l13.38,11.93L82,154.06a17.92,17.92,0,0,0-22.31,25l-7.24,8.12-2.84-2.53a6.33,6.33,0,1,0-8.43,9.44l56.66,50.55a6.33,6.33,0,1,0,8.42-9.45l-5-4.42,7.24-8.12a17.92,17.92,0,0,0,22.31-25L197,123.45a18.17,18.17,0,0,0,6.41,1.17,17.9,17.9,0,0,0,15.9-26.18l8.9-10,3.9,3.48a6.33,6.33,0,1,0,8.43-9.44L183.9,32a6.32,6.32,0,0,0-4.22-1.61Zm31,58.78-29.93-26.7,8.12-9.1L218.77,80l-8.12,9.1ZM62.41,96.82l-7.57-6.76L81.47,60.21,89,67,62.41,96.82Zm141,15.14a5.25,5.25,0,0,1-3.52-1.35l-39.3-35a5.28,5.28,0,1,1,7-7.88l39.3,35.06a5.28,5.28,0,0,1-3.5,9.22ZM71.67,118.74a5.3,5.3,0,0,1-4-8.8l35-39.2a5.29,5.29,0,0,1,7.9,7L75.6,117a5.27,5.27,0,0,1-3.93,1.76ZM137.16,107a8.42,8.42,0,0,0,6.3-2.82l13.39-15,29.92,26.7-64.63,72.44L92.22,161.63l13.36-15a8.47,8.47,0,0,0-.69-11.94l-15.65-14L115.87,90.9l15.65,14a8.44,8.44,0,0,0,5.64,2.15ZM114.9,211.16a5.28,5.28,0,0,1-3.52-1.34l-39.3-35.06a5.28,5.28,0,0,1,7-7.87L118.4,202a5.27,5.27,0,0,1-3.5,9.21ZM91.81,222.33l-29.93-26.7,6.46-7.24,29.93,26.69-6.46,7.25Z"/><path d="M231.06,129.2a65.9,65.9,0,1,1-65.9,65.9,66,66,0,0,1,65.9-65.9m0,124.27A58.37,58.37,0,1,0,172.7,195.1a58.44,58.44,0,0,0,58.36,58.37m0-128.27A69.9,69.9,0,1,0,301,195.1a70,70,0,0,0-69.9-69.9Zm0,124.27a54.37,54.37,0,1,1,54.37-54.37,54.43,54.43,0,0,1-54.37,54.37Z"/><path d="M231.08,163.43a31.66,31.66,0,1,1-31.66,31.66,31.69,31.69,0,0,1,31.66-31.66m0,57a25.4,25.4,0,1,0-25.4-25.39,25.42,25.42,0,0,0,25.4,25.39m0-61a35.66,35.66,0,1,0,35.65,35.66,35.7,35.7,0,0,0-35.65-35.66Zm0,57a21.4,21.4,0,1,1,21.39-21.39,21.42,21.42,0,0,1-21.39,21.39Z"/></svg>