<svg id="Calque_1" data-name="Calque 1" xmlns="http://www.w3.org/2000/svg" viewBox="0 0 350 300"><title>selected</title><path d="M249.59,9.4a28.15,28.15,0,0,1,4.92.42l-.28.46-.8,1.24L252.49,13,251,12.05,247,9.5c.86-.07,1.71-.1,2.55-.1m-16.22,4-1.92,3-.94,1.47-1.46-.93-.81-.52-.16-.1a49.06,49.06,0,0,1,5.29-2.93m36.46,6.25a28.55,28.55,0,0,1,3.44,6.64l-4-2.55-1.47-.93.94-1.47.79-1.24.28-.45m5.7,20.66a51.36,51.36,0,0,1-.42,6l-.16-.1-.81-.51-1.46-.94.93-1.47,1.92-3m-74.8,17.89.23.15,1.17.75,1.47.94-.94,1.46-2.53,4a50.44,50.44,0,0,1,.6-7.28m1.07,19.57L207,81l1.46.94-.93,1.46-1.41,2.21-.29.46a29.45,29.45,0,0,1-4-8.38m44,9.18,1.47.93,1.17.75.23.15a51.5,51.5,0,0,1-6.34,3.61l2.53-4,.94-1.46m-22,4.85,1.46.93L230.43,96a32.68,32.68,0,0,1-4.37.31,28.14,28.14,0,0,1-4.92-.43l.29-.46,1.41-2.2.94-1.47M249.59,5.4a39.81,39.81,0,0,0-13.52,2.51c-11.59,4.19-22.14,13-29.71,24.87a70.83,70.83,0,0,0-3.75,6.65l-.05.09A63.83,63.83,0,0,0,197.1,55.7l0,.16a53,53,0,0,0-.76,14.33,43.81,43.81,0,0,0,.86,5.63v.05c1.94,8.79,6.5,15.78,13.17,20a28.87,28.87,0,0,0,15.71,4.41,36.73,36.73,0,0,0,8-.91,45.51,45.51,0,0,0,5.51-1.6,52.93,52.93,0,0,0,12.69-6.73l.11-.08a63.12,63.12,0,0,0,12.39-11.78l.06-.07a72,72,0,0,0,4.46-6.21c7.56-11.85,11.13-25.13,10-37.42-1-11.45-6-20.58-14-25.71A28.8,28.8,0,0,0,249.59,5.4ZM243.4,24l-8.58-5.48,3.37-5.27a37.16,37.16,0,0,1,4.61-1.34l.44-.09,5.64,3.6L243.4,24Zm22-4.85-8.59-5.48.8-1.24a21.57,21.57,0,0,1,4.62,2.21,22.15,22.15,0,0,1,4,3.27l-.79,1.24Zm-8.57,13.41-8.58-5.47,5.47-8.58L262.3,24l-5.48,8.57Zm-35.4-3.71L218.2,26.8a56.45,56.45,0,0,1,7.88-7l.81.52-5.47,8.57Zm13.41,8.57-8.57-5.48,5.47-8.58,8.58,5.48-5.48,8.58Zm35.41,3.71-8.58-5.48,5.48-8.58,5.64,3.61a39.3,39.3,0,0,1,.83,5.17l-3.37,5.28Zm-57.39,1.14-3.94-2.51c.71-1.32,1.48-2.61,2.29-3.9,1-1.61,2.12-3.15,3.26-4.64l3.87,2.47-5.48,8.58ZM248.25,46l-8.58-5.48,5.48-8.57,8.58,5.47L248.25,46Zm-22,4.86-8.58-5.48,5.48-8.58,8.58,5.48-5.48,8.58Zm35.4,3.71-8.58-5.48,5.48-8.58L267.15,46l-5.48,8.58Zm-57.38,1.14-1.18-.75a57.41,57.41,0,0,1,3.27-10l3.38,2.16-5.47,8.58Zm35.4,3.71-8.58-5.48,5.47-8.58,8.59,5.48-5.48,8.58Zm30,.29-3.22-2.06L272,49.06l.81.51a56.65,56.65,0,0,1-3.07,10.12Zm-52,4.56-8.58-5.47,5.48-8.58,8.58,5.47-5.48,8.58ZM253.11,68l-8.58-5.47L250,53.91l8.58,5.47L253.11,68Zm-22,4.86-8.58-5.48L228,58.76l8.58,5.48-5.48,8.58Zm30.77.75-3.95-2.52,5.48-8.58,3.87,2.47q-1.29,2.49-2.84,4.91-1.23,1.92-2.56,3.72Zm-52.75,4.1-6.59-4.21c-.22-1.16-.39-2.36-.5-3.6l4-6.24,8.57,5.47-5.47,8.58Zm35.4,3.71L236,75.91l5.48-8.58L250,72.8l-5.48,8.58Zm-22,4.85L214,80.76l5.47-8.58L228,77.66l-5.47,8.57Zm28-1-1.17-.75,5.48-8.58,3.38,2.16a57.52,57.52,0,0,1-7.69,7.17ZM234,93.53l-6.58-4.21,5.47-8.58,8.58,5.48-4,6.24c-1.17.42-2.34.77-3.49,1.07Zm-15.92-.25a20.89,20.89,0,0,1-8.58-5.48l1.41-2.2,8.58,5.47-1.41,2.21Z"/><path d="M249.57-6.1c-12.26,0-25.37,5-37,14.58a2.83,2.83,0,0,0-.58.67l.39-.32c10.14-8,21.14-11.78,23.66-11.78.29,0,.47.05.52.15.46.86-8.91,5-20.18,15.47l-.57.52a2.42,2.42,0,0,0,.42-.29C226.8,4.18,238.63-.35,249.57-.35A34.62,34.62,0,0,1,268.4,5c20,12.77,22.57,44.65,5.71,71.06-9.94,15.58-24.46,25.82-38.8,29-.57.13-1.14.24-1.71.34l-.13,0h0a41.67,41.67,0,0,1-7.41.67,34.49,34.49,0,0,1-18.77-5.3,33.35,33.35,0,0,1-8.07-7.26v0A39,39,0,0,1,192,78.93h0c0-.07,0-.14-.05-.2-6.7-23.3,7.37-45.57,9.57-49a81.51,81.51,0,0,1,14.31-16.51,2.83,2.83,0,0,1-1.41.37A2.86,2.86,0,0,1,212,9.15,73.33,73.33,0,0,0,196.7,26.61c-3.26,5.13-13.76,22.36-11.81,44.61a55.13,55.13,0,0,0,1.36,8.32l-12.44,46.93-2.62,4.1-.47,0a4.28,4.28,0,0,0-.87.09,4.12,4.12,0,0,0-2.58,1.8L162.43,140a4.09,4.09,0,0,0-.05,4.34L158,151.26a2.79,2.79,0,0,0-.41,1l.56-.87c3.12-4,8.06-10,9.42-10a.29.29,0,0,1,.17,0c1,.66-2.6,8.18-5,12.91l-.35.54a2.93,2.93,0,0,0,.45-.54l4.17-6.53,14.51,9.26-33.4,52.34a1.75,1.75,0,0,1-1.46.8,1.7,1.7,0,0,1-.92-.27l-11.62-7.41a1.73,1.73,0,0,1-.52-2.38l28.79-45.27a2.87,2.87,0,0,1-1.35.72,3.18,3.18,0,0,1-.62.06,2.81,2.81,0,0,1-1.54-.45,2.86,2.86,0,0,1-1.28-2.92q-14.43,22.38-28.84,44.77a7.47,7.47,0,0,0,2.27,10.3l11.62,7.42a7.49,7.49,0,0,0,10.3-2.28l33.64-52.7a3.71,3.71,0,0,0,.47,0,3.63,3.63,0,0,0,.87-.1,4.05,4.05,0,0,0,2.58-1.8l4.85-7.59a4.14,4.14,0,0,0,0-4.34l2.62-4.1,26.43-21.64,1-1.17-1,.81a2.93,2.93,0,0,1-1.21.6,3.37,3.37,0,0,1-.62.07,2.87,2.87,0,0,1-1.84-5.08l4.45-3.7h-.09q-5.44,4.33-13.78,11.53L194,137.78a2.85,2.85,0,0,0-.59.66l-2.63,4.13-14.51-9.27,2.63-4.12a3,3,0,0,0,.36-.81L189.66,89.1A42,42,0,0,0,193.83,96l-7.7,27.33a5.95,5.95,0,0,0,5.71,7.55,5.92,5.92,0,0,0,3.86-1.44l21.55-18.48a42,42,0,0,0,7.9.88q8.28-6.6,9.86-6.61a.36.36,0,0,1,.28.1q1,1-9.86,13.81l9.9-8.23,1.14-.23a55.63,55.63,0,0,0,7-2c14-5,26.57-15.53,35.49-29.49s13.12-29.82,11.82-44.61C289.45,19.42,282.6,7.21,271.49.12A40.38,40.38,0,0,0,249.57-6.1ZM191.85,125.1a.24.24,0,0,1-.12,0,.17.17,0,0,1-.08-.22l6.7-23.78A39.07,39.07,0,0,0,210.72,109L192,125a.15.15,0,0,1-.11.06Zm-5.32,28.38-18.39-11.74,3.09-4.83,18.39,11.73-3.09,4.84Z"/><path d="M73.84,12.79c.84,0,1.69,0,2.55.11l-4,2.55-1.47.93L70,14.91l-.79-1.24-.29-.45a28.14,28.14,0,0,1,4.92-.43m16.23,4a50.61,50.61,0,0,1,5.28,2.92l-.16.11-.8.51-1.47.94L92,19.77l-1.92-3M53.6,23l.29.45.79,1.24.93,1.46-1.46.94-4,2.54A29.07,29.07,0,0,1,53.6,23M47.9,43.67l1.92,3,.94,1.46-1.47.94-.81.52-.15.1a49.32,49.32,0,0,1-.43-6m74.8,17.89a49.09,49.09,0,0,1,.61,7.28l-2.54-4-.93-1.46,1.46-.94,1.18-.75.22-.15m-1.06,19.57a29.26,29.26,0,0,1-4,8.37l-.29-.45-1.41-2.21L115,85.37l1.47-.93,5.19-3.31m-44,9.17.94,1.47,2.54,4a49.82,49.82,0,0,1-6.35-3.61L75,92l1.17-.75,1.47-.94m22,4.86.93,1.46L102,98.83l.29.46a28.15,28.15,0,0,1-4.92.42A31.21,31.21,0,0,1,93,99.4l5.19-3.31,1.47-.93M73.84,8.79A28.93,28.93,0,0,0,58.12,13.2c-8,5.14-13,14.27-14,25.72C43,51.2,46.58,64.49,54.15,76.34a68.19,68.19,0,0,0,4.45,6.2l.06.08A63.68,63.68,0,0,0,71.05,94.4l.11.08a52.89,52.89,0,0,0,12.69,6.72,43.84,43.84,0,0,0,5.51,1.61,37.32,37.32,0,0,0,8,.9,28.82,28.82,0,0,0,15.72-4.41c6.66-4.25,11.22-11.25,13.16-20l0,0a45.65,45.65,0,0,0,.85-5.63,53,53,0,0,0-.75-14.33l0-.16a63.34,63.34,0,0,0-5.47-16.18.41.41,0,0,0-.05-.09,67.49,67.49,0,0,0-3.75-6.65C109.51,24.33,99,15.5,87.36,11.3A40,40,0,0,0,73.84,8.79ZM80,27.4l-5.47-8.58,5.64-3.6c.14,0,.29,0,.43.09a37.82,37.82,0,0,1,4.61,1.33l3.37,5.28L80,27.4Zm-22-4.85-.79-1.24a21.27,21.27,0,0,1,4-3.27,21.88,21.88,0,0,1,4.63-2.21l.79,1.24-8.58,5.48ZM66.61,36l-5.47-8.58,8.58-5.47,5.48,8.58L66.61,36ZM102,32.25l-5.48-8.58.81-.51a56.45,56.45,0,0,1,7.88,7L102,32.25ZM88.6,40.81l-5.48-8.57,8.58-5.48,5.48,8.58L88.6,40.81ZM53.2,44.53l-3.37-5.28a36.61,36.61,0,0,1,.83-5.18l5.64-3.6,5.48,8.58L53.2,44.53Zm57.38,1.14-5.47-8.58L109,34.62q1.71,2.22,3.26,4.64c.82,1.28,1.58,2.58,2.3,3.89l-4,2.52Zm-35.4,3.71L69.7,40.8l8.58-5.48,5.48,8.58-8.58,5.48Zm22,4.85-5.48-8.58,8.58-5.47,5.48,8.58-8.58,5.47ZM61.76,57.94l-5.47-8.58,8.57-5.47,5.48,8.58-8.58,5.47Zm57.39,1.15-5.48-8.58,3.39-2.16a57.09,57.09,0,0,1,3.26,10l-1.17.75ZM83.75,62.8l-5.48-8.58,8.58-5.48,5.48,8.58L83.75,62.8Zm-30,.28A56.3,56.3,0,0,1,50.64,53l.81-.52L56.92,61l-3.21,2Zm52,4.57-5.48-8.58,8.58-5.47,5.48,8.58-8.58,5.47Zm-35.4,3.71-5.48-8.58,8.58-5.47,5.48,8.58-8.58,5.47Zm22,4.86-5.47-8.58,8.58-5.48,5.47,8.58-8.58,5.48ZM61.55,77q-1.34-1.8-2.57-3.72-1.53-2.41-2.84-4.91L60,65.87l5.48,8.58L61.55,77Zm52.75,4.1-5.48-8.58L117.4,67l4,6.25c-.11,1.24-.28,2.44-.5,3.6l-6.58,4.21ZM78.89,84.78,73.42,76.2,82,70.72l5.47,8.58-8.58,5.48Zm22,4.85L95.4,81.05,104,75.58l5.48,8.58-8.58,5.47Zm-28-1a58.13,58.13,0,0,1-7.69-7.17l3.39-2.16,5.47,8.58-1.17.75Zm16.57,8.31c-1.15-.3-2.31-.65-3.48-1.07l-4-6.24,8.58-5.48L96,92.72l-6.59,4.21Zm15.92-.25L104,94.47,112.55,89,114,91.2a22.09,22.09,0,0,1-4,3.27,21.65,21.65,0,0,1-4.63,2.21Z"/><path d="M73.86-2.7A40.34,40.34,0,0,0,51.94,3.52C40.84,10.61,34,22.82,32.67,37.89c-1.3,14.8,2.89,30.64,11.81,44.61S66,107,80,112a57.29,57.29,0,0,0,7,2l1.14.24L98,122.5q-10.89-12.77-9.85-13.82a.37.37,0,0,1,.27-.09q1.58,0,9.86,6.61a42.21,42.21,0,0,0,7.91-.89l21.54,18.49a5.92,5.92,0,0,0,7.06.49,5.89,5.89,0,0,0,2.52-6.6l-7.7-27.33a42.32,42.32,0,0,0,4.17-6.87l10.41,39.28a2.65,2.65,0,0,0,.35.81l2.64,4.12L132.66,146,130,141.84a3.05,3.05,0,0,0-.58-.66l-17.39-14.46q-8.34-7.18-13.78-11.52H98.2l4.44,3.7a2.86,2.86,0,0,1-1.83,5.07,3.18,3.18,0,0,1-.62-.06,2.93,2.93,0,0,1-1.21-.6l-1-.81,1,1.17,26.43,21.63,2.63,4.11a4.09,4.09,0,0,0,0,4.34l4.84,7.59a4.11,4.11,0,0,0,2.58,1.8,4.28,4.28,0,0,0,.87.09l.47,0,33.64,52.7a7.45,7.45,0,0,0,4.69,3.26,7.31,7.31,0,0,0,1.62.18,7.45,7.45,0,0,0,4-1.16l11.62-7.42a7.49,7.49,0,0,0,2.28-10.3q-14.43-22.38-28.84-44.77a2.88,2.88,0,0,1-1.29,2.92,2.79,2.79,0,0,1-1.54.45,2.56,2.56,0,0,1-.62-.07,2.85,2.85,0,0,1-1.35-.71l28.8,45.27a1.73,1.73,0,0,1-.53,2.38l-11.61,7.4a1.66,1.66,0,0,1-.92.27,1.74,1.74,0,0,1-1.46-.79l-33.41-52.34,14.51-9.26,4.17,6.53a2.93,2.93,0,0,0,.45.54l-.34-.54c-2.41-4.73-6.06-12.25-5-12.91a.35.35,0,0,1,.18-.05c1.36,0,6.3,6.06,9.42,10,.18.29.37.58.56.87a2.9,2.9,0,0,0-.41-1l-4.4-6.89a3.94,3.94,0,0,0,.5-1.24,4.07,4.07,0,0,0-.54-3.1l-4.85-7.59a4.09,4.09,0,0,0-2.58-1.8,4.3,4.3,0,0,0-.87-.1,3.71,3.71,0,0,0-.47,0l-2.62-4.1L137.19,82.94a56.34,56.34,0,0,0,1.36-8.33C140.5,52.36,130,35.14,126.73,30a73.27,73.27,0,0,0-15.32-17.47,2.87,2.87,0,0,1-3.83,4.05A81.51,81.51,0,0,1,121.89,33.1c2.21,3.45,16.28,25.72,9.58,49l-.06.2h0a39.12,39.12,0,0,1-7.15,14.54h0a33,33,0,0,1-8.07,7.27,34.45,34.45,0,0,1-18.77,5.3,42.42,42.42,0,0,1-7.4-.67h0l-.13,0c-.58-.1-1.15-.21-1.72-.34-14.34-3.17-28.86-13.42-38.8-29C32.46,53,35,21.13,55,8.36A34.66,34.66,0,0,1,73.87,3C84.81,3,96.63,7.57,107.16,16.3a2.86,2.86,0,0,0,.42.29l-.56-.52C95.75,5.62,86.37,1.46,86.83.6c0-.1.23-.15.52-.15,2.53,0,13.53,3.78,23.66,11.78l.4.31a3,3,0,0,0-.59-.66C99.23,2.27,86.12-2.7,73.86-2.7Zm57.72,131.2s-.07,0-.11-.06l-18.76-16.09a39.07,39.07,0,0,0,12.37-7.89l6.7,23.78c0,.09,0,.14-.08.22a.24.24,0,0,1-.12,0Zm5.32,28.38L133.82,152,152.2,140.3l3.09,4.84L136.9,156.88Z"/><path d="M231.26,178.07a16.81,16.81,0,1,1-16.81,16.81,16.83,16.83,0,0,1,16.81-16.81m0-4a20.81,20.81,0,1,0,20.81,20.81,20.8,20.8,0,0,0-20.81-20.81Z"/></svg>