<svg id="Calque_1" data-name="Calque 1" xmlns="http://www.w3.org/2000/svg" viewBox="0 0 350 300"><title>selected</title><path d="M154.14-2a102.34,102.34,0,0,1,50.45,13.23l-.75,8.27A67.39,67.39,0,0,0,182.2,34.08c-10,10-15.53,23.14-16.93,26.73l-3.52,3.4a77.25,77.25,0,0,0-19.86,11L138.24,78l3.3,3.22,65.8,64.29-4.73,4.84L170.51,119l-6.79-6.64V202l1.17,1.17L196.66,235l-4.79,4.78-28.71-28.71-2.83-2.83-2.83,2.83-28.71,28.71L124,235l31.77-31.78,1.17-1.17V105.77l-1.2-1.18L136.57,85.86l-3.18-3.1-2.75,3.48a90.83,90.83,0,0,0-12.4,21.69l-3,3.17c-3.61,1.56-18.26,8.22-26.9,16.86A67.45,67.45,0,0,0,73.74,149.6l-8.27.75A102.69,102.69,0,0,1,52.92,88.16,102,102,0,0,1,142.4-1.32,102,102,0,0,1,154.14-2M68.85,143,73,136.33a75,75,0,0,1,10.51-13.15c8.42-8.43,21.77-15,27.13-17.46l1.41-.65.61-1.44c2.11-5,8.07-17.68,17.79-27.4a82.26,82.26,0,0,1,27.07-17.67l1.56-.62.65-1.55c2.55-6.07,8.23-17.67,17.66-27.1a75.06,75.06,0,0,1,13.16-10.51l6.65-4.17-7.28-2.93a95.71,95.71,0,0,0-35.78-6.91A95.14,95.14,0,0,0,86.9,32.66,94.31,94.31,0,0,0,59.64,88.94a96.18,96.18,0,0,0,6.28,46.76L68.85,143M154.14-6a103.85,103.85,0,0,0-12.2.71,106,106,0,0,0-93,93A106.51,106.51,0,0,0,63.3,154.56l13.24-1.19a63.44,63.44,0,0,1,14.6-22.58h0c9.18-9.18,26.24-16.27,26.4-16.34l4.15-4.34a86.55,86.55,0,0,1,12.08-21.39l19.17,18.73v92.92L118.34,235l10.45,10.44,31.54-31.54,31.54,31.54L202.32,235l-34.6-34.61V121.89l35,34.15L213,145.47,144.33,78.39A71.19,71.19,0,0,1,163.89,67.7l4.81-4.64c.05-.15,5.39-15.21,16.33-26.15A63.38,63.38,0,0,1,207.6,22.3l1.2-13.24A106.6,106.6,0,0,0,154.14-6ZM69.63,134.21a92.06,92.06,0,0,1-6-44.8A91.16,91.16,0,0,1,154.16,8.77a92.11,92.11,0,0,1,34.28,6.62,79.53,79.53,0,0,0-13.86,11.07C164.53,36.52,158.53,49,156.06,54.84A86.63,86.63,0,0,0,127.64,73.4c-10.06,10.06-16.2,22.88-18.65,28.68-5.94,2.71-19.5,9.47-28.29,18.27a78.79,78.79,0,0,0-11.07,13.86Z"/></svg>