<svg id="Calque_1" data-name="Calque 1" xmlns="http://www.w3.org/2000/svg" viewBox="0 0 350 300"><title>selected</title><path d="M146.84,13.85a2.39,2.39,0,0,0-1.18.31L28.41,78.87A2.73,2.73,0,0,0,27,81.16h0L24.7,130.52a2.74,2.74,0,0,0,1.17,2.42L66.44,160.4a2.5,2.5,0,0,0,1.37.42,2.54,2.54,0,0,0,2.1-1.16,18.38,18.38,0,0,1,6.4-6.07,17,17,0,0,1,8.3-2.08,22.15,22.15,0,0,1,5.28.67l-14.37,8c-6.12,3.38-9.93,10.42-10.71,19.81-.74,8.93,1.36,19,5.91,28.47s11,17.11,18.28,21.64a25.5,25.5,0,0,0,12.24,4.2l.87,0a16.8,16.8,0,0,0,8.2-2.08l20.37-11.31c4-2.22,7-6,8.86-11l37.6,25.45a2.46,2.46,0,0,0,1.26.42h.11a2.49,2.49,0,0,0,1.18-.3l35.57-19.63,65.13,17L299.74,246a2.38,2.38,0,0,0,1.25.43h.12a2.52,2.52,0,0,0,2.16-1.26,2.82,2.82,0,0,0-.76-3.75l-19.13-13-19.05-39.66,32.61-18a2.79,2.79,0,0,0,1.39-2.3l2.32-49.36h0a2.76,2.76,0,0,0-1.17-2.42L148.21,14.27a2.45,2.45,0,0,0-1.37-.42Zm-78,90.78L34.69,81.51,144.05,21.16l-2,43.09L68.85,104.63ZM256.78,138.7,147.13,64.48l2-43.1L293,118.73l-36.2,20ZM181,180.52,73.83,108l70.53-38.92,107.16,72.54L181,180.52Zm-113.74-26L29.87,129.19l2-43.11,146.32,99-2,43.11-43.83-29.67A83,83,0,0,0,126,180.34c-6.05-12.52-14.65-22.72-24.24-28.72-5.88-3.68-11.74-5.54-17.18-5.54A21.68,21.68,0,0,0,74,148.77a22.8,22.8,0,0,0-6.73,5.71Zm114.05,74,2-43.09,112-61.81-2,43.09-112,61.81Zm-62.12-7.28A33.46,33.46,0,0,0,121,212.4c.74-8.93-1.36-19-5.91-28.47s-11-17.11-18.27-21.64A28.74,28.74,0,0,0,89,158.8l7.42-4.12c9.3,4.81,18.6,14.81,25,28.17a77.09,77.09,0,0,1,6.14,18,2.68,2.68,0,0,0,1.12,1.7l6.4,4.34c-1,3.34-3,7.11-6.78,9.19l-9.17,5.08Zm-17.13,7.71c-9.09,0-20-9-26.78-23-4.12-8.53-6-17.59-5.37-25.52.62-7.46,3.44-12.94,8-15.43a12.05,12.05,0,0,1,5.92-1.49c9.09,0,20,9,26.79,23,8.3,17.21,7.14,35.58-2.59,40.95a12.22,12.22,0,0,1-5.93,1.48Zm172.78-6.31-32.12-21.9,17.08-9.42,15,31.32Zm-7.77,1.17L222.16,212l15.3-8.45,29.6,20.18Z"/><path d="M87.22,177.82a5.8,5.8,0,0,0-2.82.72c-2.66,1.47-4,4.85-3.76,9.53a34.78,34.78,0,0,0,3.6,12.9c4.41,9.13,9.87,13.33,14.1,13.53h.32a5.61,5.61,0,0,0,2.77-.69c4.32-2.38,5.76-10.85.17-22.43a33,33,0,0,0-7.75-10.61c-2.31-2-4.58-3-6.63-3Zm11.37,31.29c-1.89,0-6.33-3.46-9.81-10.65a29.73,29.73,0,0,1-3-10.71c-.13-2.57.42-4.07,1-4.39a1.06,1.06,0,0,1,.47-.1h.08A6.47,6.47,0,0,1,90.65,185a27.87,27.87,0,0,1,6.4,8.86c3.84,7.95,3.51,14.29,2,15.1a1.1,1.1,0,0,1-.51.11Z"/></svg>