<svg id="Calque_1" data-name="Calque 1" xmlns="http://www.w3.org/2000/svg" viewBox="0 0 350 300"><title>selected</title><path d="M196.26,84.38l-5.72,5.71-.22.23.9-1.85,1.29-2.65,3.75-1.44M126.85,49A17.5,17.5,0,0,0,116,52.82l-3.37,2.67a4.23,4.23,0,0,0-1.17,5.16l14.91,30.62a77.6,77.6,0,0,0-48.8,72.15v21.74a64.41,64.41,0,0,1-19.09,45.6l-.54.53A19.74,19.74,0,0,0,79,263.73l5.4-2.13a60.08,60.08,0,0,1,22-4.17,61.08,61.08,0,0,1,13,1.4c1.7.37,3.51.79,5.43,1.24,9.67,2.25,21.7,5,35.17,5s25.5-2.79,35.17-5c1.92-.45,3.73-.87,5.43-1.24a61,61,0,0,1,13-1.4,60.08,60.08,0,0,1,22,4.17l5.4,2.13a19.75,19.75,0,0,0,21.1-32.44l-.54-.53a64.41,64.41,0,0,1-19.09-45.6V163.42A77.37,77.37,0,0,0,218,106.8c.31-.27.61-.54.9-.83l.12-.13a17.26,17.26,0,0,0,0-24.42l-.12-.13a17.35,17.35,0,0,0-18.44-3.89l8.18-16.76a4.22,4.22,0,0,0-1.16-5.16l-3.31-2.64a17.44,17.44,0,0,0-21.82,0l0,0a9.07,9.07,0,0,1-11.31,0l-.05,0a17.45,17.45,0,0,0-21.82,0,9,9,0,0,1-11.32,0l-.05,0A17.53,17.53,0,0,0,126.85,49Zm8,40.42L120.48,60l.72-.57a9.07,9.07,0,0,1,11.31,0l.05,0a17.45,17.45,0,0,0,21.82,0,9,9,0,0,1,11.31,0l.05,0a17.46,17.46,0,0,0,21.8,0l.06,0a9,9,0,0,1,11.31,0l.66.52L186.73,86.28l-5-5a17.29,17.29,0,0,0-24.42,0l-.12.12h0a17.16,17.16,0,0,0-4.54,8Zm34.72,13.17a8.81,8.81,0,0,1-6.25-2.59l-.12-.12a8.84,8.84,0,0,1,0-12.48l.12-.13a8.85,8.85,0,0,1,12.49,0l6.37,6.37L175.77,100a8.8,8.8,0,0,1-6.24,2.58Zm37.16,0a8.8,8.8,0,0,1-6.24-2.58l-6.37-6.37,6.37-6.37a8.84,8.84,0,0,1,12.48,0l.13.13a8.84,8.84,0,0,1,0,12.48l-.13.13a8.8,8.8,0,0,1-6.24,2.58Zm-135,154.1a11.26,11.26,0,0,1-7.51-2.88,11.32,11.32,0,0,1-.4-16.5l.53-.52A72.89,72.89,0,0,0,86,185.16V163.42a69.18,69.18,0,0,1,46.9-65.57h19.79a17.17,17.17,0,0,0,4.55,8l.12.12A17.16,17.16,0,0,0,169.53,111a17.6,17.6,0,0,0,4.76-.67v13.87a4.23,4.23,0,0,0,8.45,0V105l5.37-5.37,3.18,3.18v36.05a4.22,4.22,0,0,0,8.44,0V109.56a17.31,17.31,0,0,0,7,1.46,17.62,17.62,0,0,0,3.07-.28A69,69,0,0,1,234,163.42v21.74a72.89,72.89,0,0,0,21.61,51.62l.53.52a11.32,11.32,0,0,1-7.91,19.38,11.48,11.48,0,0,1-4.17-.8l-5.4-2.13A68.51,68.51,0,0,0,213.61,249a70.15,70.15,0,0,0-14.8,1.6c-1.76.39-3.6.81-5.55,1.27C184,254,172.5,256.67,160,256.67s-24-2.67-33.26-4.82c-1.95-.46-3.79-.88-5.55-1.27a70.15,70.15,0,0,0-14.8-1.6,68.31,68.31,0,0,0-25.09,4.77l-5.4,2.13a11.27,11.27,0,0,1-4.17.8Z"/><polygon points="185.92 141 185.27 141 183.3 141.29 180.57 141.77 177.4 142.54 174.13 143.5 170.95 144.65 169.53 145.23 168.33 145.8 167.24 146.38 166.47 146.96 165.93 147.53 165.38 148.11 164.94 148.78 164.51 149.46 164.29 150.13 164.07 150.8 163.85 151.57 163.75 152.24 163.75 153.01 163.85 153.68 163.96 154.45 164.18 155.12 164.51 155.8 164.84 156.47 165.27 157.14 165.71 157.72 175.54 149.07 175.98 148.88 176.31 148.78 176.75 148.88 177.07 149.07 177.29 149.36 177.4 149.74 177.29 150.13 177.07 150.41 167.24 159.06 168 159.45 168.66 159.83 169.43 160.21 170.3 160.41 171.06 160.6 171.83 160.7 172.7 160.79 173.47 160.79 174.34 160.7 175.11 160.6 175.87 160.41 176.75 160.12 177.4 159.83 178.16 159.45 178.82 158.97 179.47 158.39 180.13 157.72 180.9 156.76 181.55 155.7 182.21 154.45 183.41 151.76 184.5 148.78 185.38 146 186.03 143.59 186.25 141.87 186.36 141.38 186.25 141.1 185.92 141 185.92 141"/><path d="M160.91,205.32l2.28.2,2.05.19,1.91.34,1.92.45,1.81.51,1.68.66,1.72.81,1.72.89,1.57.95,1.53,1.07,1.48,1.12,1.3,1.2,1.37,1.35.68.77-1.83.43-3.62.57-4,.49-4.32.39-4.56.19-4.78.1-4.67-.1-4.56-.19-4.32-.39-4-.49-3.63-.57-1.82-.43.68-.77,1.37-1.35,1.3-1.2,1.47-1.12,1.54-1.07,1.57-.95,1.72-.89,1.72-.81L151,207l1.81-.51,1.92-.45,1.91-.34,2-.19,2.27-.2m.05-61.49-.61.1-.51.1-.42.31-.41.3-.31.41-.3.41-.11.5-.1.51v14.94l.61,1.52.52,1.53.2,1.52.11,1.63-.11,1.63-.2,1.52-.52,1.63-.61,1.52v26.63l-2.27.2-2.26.41-2.16.51-2.16.61-2.05.81-1.95.91-2,1-1.85,1.12-1.75,1.22L138,208.67l-1.54,1.43L135,211.62l-1.44,1.63L132.17,215l-1.23,1.73-1.13,1.83L131,219l1.34.51,3,.81,3.39.81,3.91.61,4.12.51,4.52.41,4.73.2,4.83.1,4.94-.1,4.73-.2,4.52-.41,4.12-.51,3.9-.61,3.4-.81,3-.81,1.34-.51,1.23-.51-1.13-1.83L189.65,215l-1.33-1.72-1.44-1.63-1.55-1.52-1.54-1.43-1.74-1.32-1.75-1.22L178.45,205l-2-1-2-.91-2.06-.81-2.16-.61-2.16-.51-2.26-.41-2.26-.2V157.75l-.52-1.22-.3-1.22-.21-1.22-.1-1.22.1-1.32.21-1.22.3-1.22.52-1.21v-1.43l-.1-.51-.11-.5-.31-.41-.3-.41-.42-.3L162,144l-.51-.1-.52-.1Z"/><path d="M146.36,163.11l.83.41.73.46.45.4.41.47.38.49.26.47.36.72-3.42-3.42m-8.7,8.46,3.54,3.54-.71-.36-.48-.26-.49-.38-.47-.41-.4-.45-.52-.84-.47-.84m-9.37-19.26h-1l-.2.1-.1.2v1l.1,1.11.2,1.41.81,3.42,1.11,4,1.41,4.12.7,2,.8,1.91.81,1.71.9,1.61.81,1.31.9,1,.81.71.91.7.9.5,1,.51,1,.4,1,.31,1,.19h2.12l1-.1,1-.09,1.11-.31.9-.4,1-.51.9-.5.91-.7L136,162.88l-.2-.3-.11-.41.11-.4.2-.4.4-.2.4-.11.41.11.3.2,15.09,15.09.6-.91.61-.9.5-.91.4-1,.3-1,.11-1.1.09-1v-1.11l-.09-1-.11-1-.3-1-.4-1-.5-1-.51-.9-.7-.91-.71-.81-1-.9-1.31-.81-1.61-.8-1.71-.91-1.91-.8-2-.71-4.13-1.4-4-1.11-3.43-.81-1.4-.2-1.11-.1Z"/></svg>