<svg id="Calque_1" data-name="Calque 1" xmlns="http://www.w3.org/2000/svg" viewBox="0 0 350 300"><title>selected</title><path d="M93.5,24H67.64a3.33,3.33,0,0,0-2.4,1L48.07,42.6a3.35,3.35,0,0,0,2.4,5.69h43a3.36,3.36,0,0,0,3.29-2.68h4.67a3.38,3.38,0,0,0,1.61.41h12.36a14.21,14.21,0,0,1,8,4.12A5.54,5.54,0,0,1,125.26,54l-4.78,168.6c0,.48,0,1,0,1.44a48,48,0,0,0,96,0v-9.69c0-23.1,2.06-36.67,6.89-45.36,4.5-8.11,11.33-12,21.68-17.86l.81-.46c5-2.83,9.71-5.51,14.87-5.51h4.17a3.34,3.34,0,0,0,2.22-5.86L215.44,87.65A3.35,3.35,0,0,0,209.72,90a22.84,22.84,0,0,1-7.78,17.24,90.5,90.5,0,0,0-31,68.24v47.74a9.83,9.83,0,0,1-9.81,9.81,9.84,9.84,0,0,1-8.63-5.16A12,12,0,0,0,150.84,209l-.25-7.79a12,12,0,0,0-.64-20.78l-.21-6.79a12,12,0,0,0-.68-21.7l-.18-6a12,12,0,0,0-.7-22.42l-.16-5.31a12,12,0,0,0-.72-23l-1.25-40.2c-.24-7.65-3.83-15-10.12-20.76-5.78-5.27-13.25-8.42-20-8.42H103.07a4.05,4.05,0,0,0-.7.07H96.55a3.36,3.36,0,0,0-3-2ZM86.91,41.59V30.7h3.24V41.59Zm-10.2,0V30.7H80.2V41.59Zm-18.28,0L69.05,30.7h1V41.59Zm48-2.27V32.59H116c10.28,0,23,10.12,23.4,22.69l1.25,40.19-.06,0c-.26.08-.53.18-.78.28l-.13.06c-.26.1-.51.22-.76.34h0l-.07,0V93.94a3.36,3.36,0,0,0-6.71,0V236.29a3.36,3.36,0,0,0,6.71,0v-6.56a11.81,11.81,0,0,0,5.53,1.36c.32,0,.64,0,1,0l.25,0,.86-.11.08,0a16.51,16.51,0,0,0,31.14-7.65V175.5a83.82,83.82,0,0,1,28.75-63.19,29.33,29.33,0,0,0,9.19-15.07L257,138.73c-5.35.87-10,3.52-14.55,6.09l-.81.46c-10.52,6-18.82,10.68-24.23,20.43s-7.73,24.3-7.73,48.62V224a41.28,41.28,0,0,1-82.55,0c0-.41,0-.83,0-1.25L132,54.2a12.15,12.15,0,0,0-3.67-8.68c-3.76-4-9.26-6.12-12.75-6.2h-9.13Zm-9.57-.42V32.67h2.87V38.9Zm47.46,73.27a5.29,5.29,0,0,1-.17-10.57h.17a5.29,5.29,0,0,1,.17,10.58h-.17Zm-5.53,12.13v-6.78l.58.28.15.07c.26.12.53.22.8.32l.15,0c.28.09.56.18.86.26h0l.15,4.79h-.05c-.29.07-.57.15-.85.24l-.15.06c-.28.09-.56.2-.83.31l-.09,0-.72.35Zm5.53,15.93a5.29,5.29,0,0,1,0-10.58h.37a5.28,5.28,0,0,1,.3,10.51,4.8,4.8,0,0,1-.67,0Zm-5.53,12.12v-6.77l.39.2.1,0c.28.13.57.25.86.36l0,0c.3.11.6.2.91.29l.13,0c.3.08.6.15.91.21l.08,0,.13,4.41-.26.05-.22,0-.39.09-.16,0-.54.15-.16.05-.37.13-.21.08-.31.12-.22.1-.29.13-.22.11-.2.1Zm5.53,15.93A5.29,5.29,0,0,1,139,163a5.44,5.44,0,0,1,0-.57l0-.17a2.32,2.32,0,0,1,.06-.38,1.05,1.05,0,0,1,.05-.19,3.57,3.57,0,0,1,.1-.35,1.46,1.46,0,0,1,.07-.19c0-.11.08-.21.13-.32l.09-.19a2.69,2.69,0,0,1,.16-.29l.11-.19.18-.26.14-.18.19-.23.17-.18.18-.18.22-.19.13-.11a5.28,5.28,0,0,1,1.64-.87h0l.41-.11.13,0,.37-.05.2,0h.81l.52.06h0a5.29,5.29,0,0,1,.32,10.35h0a4.89,4.89,0,0,1-1.18.14Zm-5.53,12.13v-6.78l.2.1.24.12.28.12.24.11.28.11.25.09.29.1.25.08.31.09.24.07.33.07.24.05.36.07.21,0,.57.07.13,4.18h-.06l-.26,0-.32,0-.27,0-.31.05-.26.06-.3.07-.26.06-.3.09-.25.08-.3.1-.24.09-.29.11-.24.1-.28.13-.23.11-.25.13Zm5.53,15.92a5.27,5.27,0,1,1,1.74-.29,5.09,5.09,0,0,1-1.74.29Zm-5.53,12.13v-6.78l.23.12.24.12.28.12.25.11.29.11.25.1.3.1.26.08.3.08.26.07.31.07.27.06.31.05.28,0,.32,0,.27,0,.33,0,.28,0h.13l.13,4.07h-.2l-.29,0-.32,0-.28,0-.32,0-.28,0-.31.05-.27.06-.31.07-.27.07-.3.08-.26.08-.29.1-.26.09-.29.11-.25.11-.28.13-.25.11-.26.14Zm5.53,15.93a5.29,5.29,0,0,1,0-10.58,5.36,5.36,0,0,1,2,.38,5.3,5.3,0,0,1-2,10.2Zm70.77-114.9a3.3,3.3,0,0,0-2.2.83,91.09,91.09,0,0,0-29,48.92,3.35,3.35,0,0,0,2.56,4,3.53,3.53,0,0,0,.72.08,3.35,3.35,0,0,0,3.27-2.64,84.39,84.39,0,0,1,26.82-45.3,3.35,3.35,0,0,0-2.2-5.88Zm-21.42,72.65a12.58,12.58,0,1,0,12.57,12.58,12.6,12.6,0,0,0-12.57-12.58Zm0,18.45a5.87,5.87,0,1,1,5.87-5.87,5.87,5.87,0,0,1-5.87,5.87Zm0,8.54a12.58,12.58,0,1,0,12.57,12.58,12.59,12.59,0,0,0-12.57-12.58Zm0,18.45a5.87,5.87,0,1,1,5.87-5.87,5.88,5.88,0,0,1-5.87,5.87Z"/></svg>