<svg id="Calque_1" data-name="Calque 1" xmlns="http://www.w3.org/2000/svg" viewBox="0 0 350 300"><defs><style>.cls-1{fill:none;stroke:#000;stroke-miterlimit:10;stroke-width:4px;}</style></defs><title>selected</title><path d="M197.3,50a42.58,42.58,0,0,0-4.36.22l-.17,0-64.6,10a3.18,3.18,0,0,0,.48,6.33,2.77,2.77,0,0,0,.49,0l64.52-10c1.21-.12,2.43-.18,3.64-.18a37.55,37.55,0,1,1,0,75.1c-1.22,0-2.43-.05-3.65-.17L96.87,116.36V71.49l19.71-3a3.18,3.18,0,0,0-.48-6.33,2.7,2.7,0,0,0-.49,0L94.06,65.48,68.69,55.27A7.09,7.09,0,0,0,59,61.84V97.36a.59.59,0,0,0,0,.08V97c.83,1.63,1.84,3,3,3h0c1.62-.06,2.49-3,3-3h0l0,0,.3-35.18a.71.71,0,0,1,.72-.71.63.63,0,0,1,.26,0L90.5,70.91v46l-24.19,9.73a.65.65,0,0,1-.26.06.74.74,0,0,1-.41-.13.88.88,0,0,1-.31-.59c-.21-1.19,1-28.14-.3-29l0,4-.5,0a5.9,5.9,0,0,1-2.35-.48A6.27,6.27,0,0,1,59,97.44c-.08,15.55-.07,26.83,0,28.56a7.48,7.48,0,0,0,.52,2.66,7.09,7.09,0,0,0,9.21,3.91l25.37-10.2L182.69,136l2.06,4.66-8.48,4.76a9.74,9.74,0,0,0-3.44,13.72l8.5,13.35L172,191.65a23.87,23.87,0,0,0,1.09,23l7.95,13a11.48,11.48,0,0,0,6.61,5v10.09a7,7,0,0,0,6.14,7h6.37a7,7,0,0,0,6.14-7V231.56a11.31,11.31,0,0,0,5.32-7.23l6.17-26.45a3.18,3.18,0,0,0-2.38-3.82,2.94,2.94,0,0,0-.72-.08,3.18,3.18,0,0,0-3.1,2.46l-6.17,26.44a5.08,5.08,0,0,1-4.9,3.89h-9.76a5.07,5.07,0,0,1-4.29-2.41l-7.95-13a17.54,17.54,0,0,1-.8-16.91l13.57-27.8a30.52,30.52,0,0,0,.48-25.82s0,0,0,0h0l-1.58-3.56,2.33.36a32.05,32.05,0,0,0,4.8.28,44,44,0,0,0,29.49-11.35c.49-.44,1-.9,1.43-1.36l-13.75,58.94a3.18,3.18,0,0,0,2.38,3.82,2.87,2.87,0,0,0,.71.08,3.2,3.2,0,0,0,3.11-2.46l17.79-76.22A43.91,43.91,0,0,0,197.3,50ZM183.6,165.82l-6.4-10.06a3.37,3.37,0,0,1,1.19-4.75l7.73-4.34a24.16,24.16,0,0,1-1.55,17.17l-1,2Zm10.08,77.62a.67.67,0,0,1-.67-.66v-9.65h5.93v9.65a.67.67,0,0,1-.67.66Z"/><polygon points="66 61 59 61 59 127 66 127 66 61 66 61"/><polygon points="222.2 151.21 207.17 215.47 213.39 216.93 228.42 152.66 222.2 151.21 222.2 151.21"/><polygon points="164.61 54.63 96.02 65.27 96.97 71.44 165.57 60.8 164.61 54.63 164.61 54.63"/><path class="cls-1" d="M202.73,109.46c6.29-6.19,7.08-21.71,1.76-34.7"/><path class="cls-1" d="M208.72,109.46c6.29-6.19,7.08-21.71,1.76-34.7"/><path class="cls-1" d="M205.73,109.46c6.29-6.19,7.07-21.71,1.75-34.7"/><path class="cls-1" d="M211.71,109.46c6.3-6.19,7.08-21.71,1.76-34.7"/><path class="cls-1" d="M206.52,109.46c-6.29-6.19-7.08-21.71-1.76-34.7"/><path class="cls-1" d="M200.53,109.46c-6.29-6.19-7.08-21.71-1.76-34.7"/><path class="cls-1" d="M203.52,109.46c-6.29-6.19-7.07-21.71-1.75-34.7"/><path class="cls-1" d="M197.53,109.46c-6.29-6.19-7.07-21.71-1.75-34.7"/><polygon points="214.13 74 195.13 74 195.13 76.27 214.13 76.27 214.13 74 214.13 74"/><polygon points="213.16 108.73 196.59 108.73 196.59 111 213.16 111 213.16 108.73 213.16 108.73"/><polygon points="206 75.58 203.74 75.58 203.74 109 206 109 206 75.58 206 75.58"/></svg>