<svg id="Calque_1" data-name="Calque 1" xmlns="http://www.w3.org/2000/svg" viewBox="0 0 350 300"><title>selected</title><path d="M183.08,64.54a77.19,77.19,0,0,0-8.5.91c-14.11,2.3-45.87,12.26-45.87,12.26S117.28,83.79,107,83.79A16.91,16.91,0,0,1,97.3,81.2c-.26-.2-.48-.4-.73-.6v32.1s-5.86,82.79,85.71,85.73h.8V64.54ZM107,89.66c10.44,0,21.43-5.22,24-6.51,4-1.24,32-9.86,44.59-11.91.56-.09,1.12-.18,1.68-.25v121.3c-24.31-1.7-43.1-9.72-55.89-23.83-20.82-23-18.93-55-18.91-55.35V89.31a28.73,28.73,0,0,0,4.54.35Z"/><path d="M193,64.78V198.32c78.2-4,47.92-83.43,47.92-83.43s-5.3-23-1.42-44.39a83.65,83.65,0,0,1-9.66.52c-12.44,0-24.16-2.28-25.92-3.38-1.57-1-5.35-2.26-10.92-2.86ZM198.83,192V71.85a9.73,9.73,0,0,1,1.95.77c3.56,2.23,17.4,4.27,29,4.27,1,0,1.93,0,2.87,0-1.92,19.8,2.29,38.49,2.49,39.37l.09.39.14.37c.15.35,12.94,34.84-1.39,56.76C227.33,184,215.52,190.05,198.83,192Z"/><path d="M279.57,19.42c3.63,0,4.6.79,4.69.88,4.45,22.49-12.54,30.44-27.53,37.47-2,.91-3.78,1.77-5.53,2.64A37.12,37.12,0,0,1,239,63.6a79.09,79.09,0,0,1-9.19.49c-12.06,0-22.27-2.14-23.92-2.84-2.87-1.74-9.58-3.73-19.31-3.73a78.54,78.54,0,0,0-12.63,1c-14.23,2.31-45.13,12-46.43,12.39l-.36.11-.33.17c-.1.06-10.65,5.62-19.86,5.62A13,13,0,0,1,99.67,75l-.2-.16-.39-.33c-9.06-7.25-14-15.2-14.62-23.65-.74-9.71,4.38-17.81,6.83-21.08,35.25,5,66,7.6,91.41,7.6,42.28,0,56.73-7,59.6-8.65,3-1.12,25.22-9.34,37.27-9.34m0-4c-13.78,0-39,9.74-39,9.74s-12.39,8.25-57.83,8.25c-22.26,0-52.47-2-93.08-7.88,0,0-24.85,26.68,7,52.14.25.2.47.4.73.6A16.91,16.91,0,0,0,107,80.86c10.32,0,21.74-6.09,21.74-6.09s31.77-10,45.88-12.25a74.66,74.66,0,0,1,12-1c9.11,0,15.22,1.88,17.31,3.2,1.76,1.09,13.48,3.37,25.92,3.37a83.77,83.77,0,0,0,9.66-.52A41.45,41.45,0,0,0,253,64c15.37-7.69,41-15.75,35.15-44.69-.73-2.81-4-3.88-8.57-3.88Z"/><path d="M186.67,64.46H186V223.12c-10,1.43-17.7,13.45-18.58,29h-6.86v17h55.67v-17H208.6c-.86-15.53-8.56-27.55-18.57-29V64.54c-1.06-.06-2.18-.08-3.36-.08ZM171.86,252.08c.88-13.66,7.91-24.73,16.16-24.73s15.28,11.06,16.18,24.73Zm-5.43,11.1v-5.25h44v5.25Z"/></svg>