<svg id="Calque_1" data-name="Calque 1" xmlns="http://www.w3.org/2000/svg" viewBox="0 0 350 300"><title>selected</title><path d="M188.5,47.5h-42A10.48,10.48,0,0,0,143,67.86V89.5H119.56a19.77,19.77,0,0,0-18.66,13.27,216.14,216.14,0,0,0,0,141.47,19.77,19.77,0,0,0,18.66,13.26h95.88a19.77,19.77,0,0,0,18.66-13.26,216.17,216.17,0,0,0,0-141.48A19.77,19.77,0,0,0,215.44,89.5H192V67.86a10.48,10.48,0,0,0-3.5-20.36Zm-42,14a3.5,3.5,0,0,1,0-7h42a3.5,3.5,0,0,1,0,7Zm14,21h14A3.5,3.5,0,0,0,178,79V68.5h7v21H150v-21h7V79a3.5,3.5,0,0,0,3.5,3.5Zm3.5-7v-7h7v7Zm-44.44,175a12.76,12.76,0,0,1-12-8.56,209.16,209.16,0,0,1,0-136.87,12.76,12.76,0,0,1,12-8.57h95.88a12.76,12.76,0,0,1,12.05,8.57,209.16,209.16,0,0,1,0,136.87,12.76,12.76,0,0,1-12.05,8.56Z"/><path d="M167.5,114a3.48,3.48,0,0,0-2.37.93c-1.62,1.5-39.63,37-39.63,69.07,0,36.13,21.7,49,42,49s42-12.87,42-49c0-32.09-38-67.57-39.62-69.07a3.5,3.5,0,0,0-2.38-.93Zm0,112c-21.92,0-35-15.7-35-42,0-24.69,26.77-53.38,35-61.61,8.24,8.23,35,36.89,35,61.61,0,26.3-13.08,42-35,42Z"/><path d="M167.5,135a3.45,3.45,0,0,0-2.41,1c-.62.59-15.09,14.52-15.09,27.47,0,15.18,9.43,20.56,17.5,20.56s17.5-5.38,17.5-20.56c0-12.95-14.47-26.88-15.09-27.47a3.45,3.45,0,0,0-2.41-1Zm0,42c-6.67,0-10.5-4.94-10.5-13.56,0-6.77,6.26-15.18,10.5-19.89,4.24,4.7,10.5,13.12,10.5,19.89,0,8.62-3.83,13.56-10.5,13.56Z"/><polygon points="157 205 150 205 150 212 157 212 157 205 157 205"/><polygon points="171 205 164 205 164 212 171 212 171 205 171 205"/><polygon points="185 205 178 205 178 212 185 212 185 205 185 205"/></svg>