<svg id="Calque_1" data-name="Calque 1" xmlns="http://www.w3.org/2000/svg" xmlns:xlink="http://www.w3.org/1999/xlink" viewBox="0 0 350 300"><defs><style>.cls-1,.cls-3{fill:none;}.cls-2{clip-path:url(#clip-path);}.cls-3{stroke:#000;stroke-miterlimit:10;stroke-width:4px;}</style><clipPath id="clip-path"><rect class="cls-1" x="86" y="71.97" width="188.03" height="188.03"/></clipPath></defs><title>selected</title><g class="cls-2"><path class="cls-3" d="M167.06,76.21A90.7,90.7,0,1,1,90.24,178.94,90.71,90.71,0,0,1,167.06,76.21"/><path d="M180.13,79.27a86.86,86.86,0,1,1-12.5.9,86.65,86.65,0,0,1,12.5-.9h0m0-4a92,92,0,0,0-13.07.94A90.71,90.71,0,0,0,179.9,256.7a92,92,0,0,0,13.07-.94A90.71,90.71,0,0,0,180.13,75.27Z"/><path class="cls-3" d="M188.47,224.55c-31.87,4.6-62.16-.13-86.06-11.58a91,91,0,0,0,30.3,30.4,164.7,164.7,0,0,0,114.56-16.53,90.91,90.91,0,0,0,20.47-37.73c-19.69,17.74-47.41,30.84-79.27,35.44"/><path d="M259.34,201a87.62,87.62,0,0,1-14.6,22.67,157.64,157.64,0,0,1-53.82,17.87,164.33,164.33,0,0,1-23.45,1.7,151.54,151.54,0,0,1-33.23-3.62A87.56,87.56,0,0,1,113.83,222a153.65,153.65,0,0,0,50.58,8.29A173.56,173.56,0,0,0,189,228.51c26.23-3.79,50.69-13.42,70.3-27.51m8.4-11.89c-19.69,17.74-47.41,30.84-79.27,35.44a169.45,169.45,0,0,1-24.06,1.74c-22.89,0-44.21-4.8-62-13.32a91,91,0,0,0,30.3,30.4,154.66,154.66,0,0,0,34.76,3.87,167.44,167.44,0,0,0,24-1.74,160.47,160.47,0,0,0,55.78-18.66,90.91,90.91,0,0,0,20.47-37.73Z"/><path class="cls-3" d="M172.38,113.07a159.22,159.22,0,0,0,60-21.13A91.07,91.07,0,0,0,210.62,80.6a164.55,164.55,0,0,1-41.27,11.51,164.55,164.55,0,0,1-42.84.63,91.23,91.23,0,0,0-17.64,17,159.14,159.14,0,0,0,63.51,3.31"/><path d="M210.72,84.9a86.38,86.38,0,0,1,14,6.83,157.57,157.57,0,0,1-52.92,17.38,164.19,164.19,0,0,1-23.44,1.7,150.74,150.74,0,0,1-32.25-3.41,87.35,87.35,0,0,1,11.51-10.51,163.92,163.92,0,0,0,17.77,1,171.72,171.72,0,0,0,24.52-1.78,168.19,168.19,0,0,0,40.8-11.17m-.1-4.3a164.55,164.55,0,0,1-41.27,11.51,166.38,166.38,0,0,1-23.95,1.74,160.3,160.3,0,0,1-18.89-1.11,91.23,91.23,0,0,0-17.64,17,153.62,153.62,0,0,0,39.5,5,167.2,167.2,0,0,0,24-1.74,159.22,159.22,0,0,0,60-21.13A91.07,91.07,0,0,0,210.62,80.6Z"/><path class="cls-3" d="M175.72,136.26c-28.43,4.1-55.61.77-78.12-8.12a89.65,89.65,0,0,0-5.87,17.05c24,11.77,54.73,16.69,87,12s60.32-18.05,80.06-36.15a90,90,0,0,0-10.45-14.69c-19.07,14.9-44.2,25.78-72.64,29.88"/><path d="M247.05,109.59a89.87,89.87,0,0,1,6.21,8.22c-19.19,17.72-45.48,30.23-74.44,35.35a164.06,164.06,0,0,1-28.43,2.52c-19.13,0-37.58-3.53-53.6-10.22a86.74,86.74,0,0,1,3-9.85,150.52,150.52,0,0,0,46.94,7.21,171.87,171.87,0,0,0,29.79-2.64c26.74-4.72,51-15.27,70.52-30.59m.44-5.5c-18.59,15.49-43.36,27.15-71.65,32.15a167,167,0,0,1-29.1,2.58,146.12,146.12,0,0,1-49.25-8.23,90.06,90.06,0,0,0-5.32,17.23c16.9,7.62,36.87,11.86,58.22,11.86a167.14,167.14,0,0,0,29.13-2.59c32.12-5.67,59.72-19.94,78.89-38.65a89.77,89.77,0,0,0-10.92-14.35Z"/><path class="cls-3" d="M89.3,165.34a92.28,92.28,0,0,0,.94,13.6c.34,2.34.79,4.64,1.3,6.91,24.89,14.25,58.27,20.61,93.58,15.51S250.65,180.74,270.5,160c-.16-2.32-.37-4.65-.71-7a92,92,0,0,0-3-13.32C247,160.1,217,175.36,182.09,180.4s-68-1.12-92.79-15.06"/><path d="M264.7,147.36c.45,2.07.83,4.16,1.13,6.24.22,1.52.4,3.14.55,4.92A127.32,127.32,0,0,1,231.84,183a158.1,158.1,0,0,1-47.29,14.44,164.89,164.89,0,0,1-23.49,1.7c-24.4,0-47.18-5.48-66-15.86-.36-1.74-.65-3.35-.87-4.87q-.45-3.13-.68-6.31c18.89,9.23,41,14.08,64.51,14.08a173.81,173.81,0,0,0,24.64-1.78c32.1-4.63,61-17.69,82-37m2.14-7.65C247,160.1,217,175.36,182.09,180.4A168,168,0,0,1,158,182.14c-25.85,0-49.71-6.11-68.73-16.8a92.28,92.28,0,0,0,.94,13.6c.34,2.34.79,4.64,1.3,6.91,19.15,11,43.31,17.25,69.52,17.25a168,168,0,0,0,24.06-1.74c35.31-5.1,65.53-20.62,85.38-41.34-.16-2.32-.37-4.65-.71-7a92,92,0,0,0-3-13.32Z"/></g></svg>