<svg id="Calque_1" data-name="Calque 1" xmlns="http://www.w3.org/2000/svg" viewBox="0 0 350 300"><defs><style>.cls-1{fill:none;stroke:#000;stroke-miterlimit:10;stroke-width:5px;}</style></defs><title>selected</title><path d="M269,37V73.46H257.57V222h-1.42V210.57H96.85V222H95.43V73.46H84V37h1.43V55.18l7.5-4.35a17.81,17.81,0,0,1,8.92-2.4h149.3a17.81,17.81,0,0,1,8.92,2.4l7.5,4.35V37H269M85.43,72H267.57V66.28a16.44,16.44,0,0,0-16.42-16.43H101.85A16.44,16.44,0,0,0,85.43,66.28V72m11.42,45.7h24.49L119,111.07a12.14,12.14,0,0,1,11.45-16.18h23.46c10.08-.47,19.32-.76,27.58-.89a22,22,0,0,0-4.25,13v.06a11.67,11.67,0,0,0,.6,4.67c1.95,4.9,7.15,6.67,10.72,7.41H96.85v44.28h159.3V119.17H201.83a99.07,99.07,0,0,0,16.68-4.31c4.31-1.5,11.2-4.22,16.21-7.78a12,12,0,0,1-.69,4l-2.37,6.67h24.49V73.46H96.85v44.28m0,91.41h159.3V164.87H96.85v44.28M274,32H262.57V46.5a22.68,22.68,0,0,0-11.42-3.07H101.85A22.68,22.68,0,0,0,90.43,46.5V32H79V78.46H90.43V227h11.42V215.57h149.3V227h11.42V78.46H274V32ZM90.43,67v-.76a11.44,11.44,0,0,1,11.42-11.43h149.3a11.44,11.44,0,0,1,11.42,11.43V67Zm11.42,45.7V78.46h149.3v34.28H238.74a17.12,17.12,0,0,0-2.49-16h0c1.39,7.59-28.22,18.12-41.8,18.12a18.79,18.79,0,0,1-2.72-.17c-2.33-.35-7.85-1.16-9.27-4.73a8.15,8.15,0,0,1-.25-2.89,17.16,17.16,0,0,1,17.14-17.14h16.89c-6.54-.61-15-1-26-1-10,0-22.09.3-36.59,1H130.42a17.14,17.14,0,0,0-16.16,22.85Zm0,45.71V124.17h149.3v34.28Zm0,45.7V169.87h149.3v34.28ZM222.58,89.89h-6.34c8.41.78,13.58,2,16.56,3.39a17,17,0,0,0-10.22-3.39Zm10.22,3.39a16.94,16.94,0,0,1,3.45,3.42c-.22-1.2-1.23-2.37-3.45-3.42Z"/><path class="cls-1" d="M184.5,141.12a6.67,6.67,0,1,1-6.67-6.67,6.67,6.67,0,0,1,6.67,6.67"/><path class="cls-1" d="M184.5,188.34a6.67,6.67,0,1,1-6.67-6.66,6.67,6.67,0,0,1,6.67,6.66"/></svg>