<svg id="Calque_1" data-name="Calque 1" xmlns="http://www.w3.org/2000/svg" viewBox="0 0 350 300"><title>selected</title><path d="M280.68,53l6.71.72c5.06.54,8.67,3.09,11.33,8s4,11,4.25,18.8c.32,12.21-1.92,25.12-6.83,39.46-7,20.36-16.08,36.21-27.86,48.43A183.83,183.83,0,0,1,252,182.77L250.43,184l-6.76-1.15-3.29-.57-4.86-.83-3.18-5.9c-4.44-8.23-4.93-17.26-4.79-25.79l.07-4.32-4.26-.7-4.86-.8-10.83-1.78L152,133.14l-17.46-2.84L121,128.09,85,122.24V89.53l40.12,6.29L145.69,99l30.9,4.85,33.26,5.22,14.72,2.28,6.48,1,3.81.59,1.54-3.53c5.49-12.57,11.48-23.49,17.32-31.57,2-2.76,3.69-4.81,4.52-5.78a86,86,0,0,1,15.27-14L280.68,53m-23.27,98.7a14.25,14.25,0,0,0,5-.93,24.52,24.52,0,0,0,8.47-5.26c9.89-9.77,15.84-22.87,17.21-37.88l0-.21v-.22c0-7.38-.79-11.67-2.93-15.28a14.13,14.13,0,0,0-12.05-7.34,13.25,13.25,0,0,0-5.59,1.26,31.7,31.7,0,0,0-10.14,7.38C249,102.7,244,114.58,242.58,128.5c-.63,6.32.24,11.32,2.72,15.71a14,14,0,0,0,12.11,7.46M84,25.54c-2.26,0-3.78,1.23-4,3.22s1.29,3.61,3.88,3.91l36.26,4.14L165.48,42l44.65,5.08,49.3,5.62c3.54.41,7.07.85,11.18,1.34a90,90,0,0,0-16.17,14.82c-.55.64-2.45,2.88-4.77,6.1-8,11-14.28,24.32-17.85,32.5l-21.19-3.29L146.47,94.09q-30.56-4.78-61.09-9.57a10.72,10.72,0,0,0-1.6-.14c-2.61,0-3.75,1.38-3.75,4.54v33.84c0,2.76.94,3.88,3.69,4.33l50.05,8.14,73.1,11.89,15.68,2.59c-.16,9.77.54,19.26,5.39,28.24-1.1-.14-1.9-.23-2.68-.36L200,173.35q-33.78-5.68-67.55-11.4l-47.81-8.06a6,6,0,0,0-.93-.08A3.52,3.52,0,0,0,80,156.86c-.28,2,1.06,3.63,3.49,4.06,2.62.46,5.26.89,7.89,1.34l13.66,2.35c-3,2.21-5.44,4.21-8.09,5.95a5.66,5.66,0,0,1-3,.79,3.62,3.62,0,0,1-.47,0c-2.5-.22-5-.86-7.47-1.16l-.58,0a3.27,3.27,0,0,0-3.43,3c-.3,2,.79,3.46,2.94,4,.68.18,1.38.3,2.48.54-1.15.88-2,1.51-2.87,2.21a3.46,3.46,0,0,0-.74,4.94,3.4,3.4,0,0,0,2.77,1.47,3.9,3.9,0,0,0,2.16-.69,20.82,20.82,0,0,0,3.56-2.67,9.85,9.85,0,0,1,7.17-3.31,11.82,11.82,0,0,1,3.87.71,37.31,37.31,0,0,0,5.71,1c-3.73,3-6.91,5.68-10.2,8.2a3.33,3.33,0,0,1-1.91.54,4,4,0,0,1-.5,0c-3.45-.49-6.87-1.19-10.31-1.7a3.85,3.85,0,0,0-.67,0,3.35,3.35,0,0,0-3.43,2.87,3.4,3.4,0,0,0,2.82,4.09c1.7.4,3.43.67,5.49,1.05-.69.65-1.14,1.09-1.61,1.5-1.87,1.66-2.22,3.62-1,5.27a3.28,3.28,0,0,0,2.63,1.39,4.72,4.72,0,0,0,2.86-1.15c1.86-1.47,3.67-3,5.54-4.47a3.24,3.24,0,0,1,1.6-.8h.12c4,.63,8.07,1.38,12.51,2.17-3.14,2.65-6,4.89-8.64,7.37a4.66,4.66,0,0,1-3.36,1.42,7.75,7.75,0,0,1-1.46-.16c-4.36-.88-8.75-1.58-13.13-2.33a5.29,5.29,0,0,0-.86-.08,3.43,3.43,0,0,0-3.55,2.77c-.45,2.12.74,3.77,3.11,4.29.8.17,1.61.29,2.41.43l7.58,1.4c-4.12,3.49-7.85,6.66-11.6,9.79-1.35,1.13-2.26,2.44-1.67,4.25s2,2.29,3.77,2.54c5.17.74,10.3,1.72,16,2.69-1.14,1-1.9,1.67-2.67,2.32-3.9,3.31-7.83,6.59-11.72,9.93-2,1.71-2.29,3.81-.87,5.43a3.27,3.27,0,0,0,2.49,1.22,4.94,4.94,0,0,0,3-1.28c.58-.46,1.14-.95,1.7-1.43,5.27-4.45,10.54-8.92,15.82-13.36.52-.43,1.2-1.07,1.74-1.07h.1c4.42.68,8.82,1.51,13.74,2.39-3.47,3-6.51,5.56-9.55,8.14-1.36,1.16-2.07,2.53-1.38,4.32a3.27,3.27,0,0,0,3.12,2.26,4.6,4.6,0,0,0,2.92-1.18c4.2-3.53,8.34-7.14,12.55-10.66a3.93,3.93,0,0,1,2.11-1.06l.16,0c4.37.62,8.72,1.44,13.11,2.21-.12.36-.12.54-.21.62-1.29,1.12-2.6,2.21-3.88,3.34-2,1.72-2.35,3.8-1,5.43a3.23,3.23,0,0,0,2.55,1.31,5,5,0,0,0,3.11-1.34c2.63-2.18,5.2-4.43,7.85-6.57a3.67,3.67,0,0,1,2-.9h.17c3.87.58,7.72,1.33,11.84,2.07-1.92,3.13-1.59,5.34.78,6.42a3.4,3.4,0,0,0,1.42.33,5.27,5.27,0,0,0,3.2-1.56q37.44-30.87,74.9-61.73c7.2-6,14.68-11.69,21.14-18.39,13.76-14.29,22.61-31.64,29-50.28,4.57-13.35,7.46-27,7.1-41.21-.19-7.32-1.31-14.49-4.85-21.05-3.28-6.06-8.17-9.85-15.2-10.6Q275,47.34,262,45.85q-28.29-3.23-56.58-6.49T148.85,33q-32-3.66-64.1-7.36a5.14,5.14,0,0,0-.77-.05ZM257.41,146.67a9,9,0,0,1-7.76-4.92c-2.25-4-2.53-8.37-2.09-12.76,1.21-12.18,5.38-23.26,13.56-32.48a26.59,26.59,0,0,1,8.51-6.16,8.06,8.06,0,0,1,3.48-.8,9.2,9.2,0,0,1,7.75,4.88c1.53,2.59,2.26,6,2.23,12.72-1.09,11.9-5.48,24.63-15.74,34.77a19.61,19.61,0,0,1-6.73,4.14,9.11,9.11,0,0,1-3.21.61ZM115.93,175.19a1.36,1.36,0,0,1-.29,0c-3.28-.51-6.54-1.09-10.45-1.76,3.45-2.54,6.43-4.76,9.43-6.94a1.05,1.05,0,0,1,.6-.16l.25,0c3.19.54,6.39,1.1,10,1.74-3,2.45-5.71,4.65-8.43,6.78a2,2,0,0,1-1.15.35ZM137.62,179a.93.93,0,0,1-.24,0c-3.63-.6-7.25-1.26-11.51-2,3.09-2.5,5.7-4.66,8.37-6.74a2.34,2.34,0,0,1,1.36-.43,1.14,1.14,0,0,1,.26,0c3.57.54,7.13,1.16,11.16,1.83-3,2.54-5.7,4.82-8.43,7a1.58,1.58,0,0,1-1,.3Zm24.3,4.18a6.38,6.38,0,0,1-1-.11c-4.31-.73-8.62-1.51-13.54-2.38,3-2.55,5.63-4.83,8.33-7a2.17,2.17,0,0,1,1.29-.32,5.07,5.07,0,0,1,.8.07c4.32.69,8.62,1.46,13.5,2.3-3.08,2.6-5.83,5-8.66,7.24a1.14,1.14,0,0,1-.72.18Zm22.94,4a1.37,1.37,0,0,1-.29,0c-4.2-.7-8.39-1.45-13-2.27,3-2.55,5.72-4.84,8.45-7.07a1.94,1.94,0,0,1,1.17-.37,1,1,0,0,1,.25,0c4.15.67,8.29,1.4,12.92,2.2-3.05,2.61-5.77,4.95-8.53,7.24a1.53,1.53,0,0,1-.95.27Zm24.22,4.14a2.35,2.35,0,0,1-.47,0c-4.53-.74-9.05-1.52-14.09-2.38,3-2.61,5.53-4.88,8.17-7a2.84,2.84,0,0,1,1.68-.46,3.48,3.48,0,0,1,.57,0c4.45.69,8.9,1.47,13.86,2.32-3.11,2.6-5.9,5-8.75,7.29a1.61,1.61,0,0,1-1,.25Zm-89.28,2.75h-.22c-3.91-.64-7.81-1.33-12.19-2.08,3.74-3,7.09-5.82,10.53-8.48a2.18,2.18,0,0,1,1.29-.33,5.07,5.07,0,0,1,.8.07c3.51.55,7,1.2,11,1.91-3.67,3.1-6.93,5.87-10.23,8.61a1.67,1.67,0,0,1-1,.31Zm112.74,1.56-.27,0c-4.28-.77-8.54-1.6-13.42-2.53,3.14-2.66,5.82-5,8.56-7.2a2.26,2.26,0,0,1,1.33-.41,1.37,1.37,0,0,1,.29,0c4.49.72,9,1.51,13.8,2.33-3.2,2.63-6.15,5.07-9.14,7.45a1.92,1.92,0,0,1-1.15.36ZM144,198.27l-.2,0c-4.58-.76-9.14-1.58-14.28-2.49,3.65-3.07,6.8-5.76,10-8.39a2.39,2.39,0,0,1,1.39-.51h.2c4.39.71,8.76,1.49,13.14,2.27.19,0,.34.24.68.48-3.28,2.79-6.48,5.52-9.72,8.21a2.08,2.08,0,0,1-1.21.44Zm23,4a2.6,2.6,0,0,1-.5,0c-4.09-.68-8.17-1.43-12.71-2.24,2.64-2.26,5.18-4.15,7.37-6.37a6.84,6.84,0,0,1,5.05-2.38,8.65,8.65,0,0,1,2.27.33c3,.82,6.22,1.14,9.83,1.77-3.63,3.1-6.86,5.9-10.15,8.62a1.93,1.93,0,0,1-1.16.31Zm24.07,4.11a6,6,0,0,1-.77-.06c-4.31-.71-8.61-1.47-13.47-2.31,3.63-3.1,6.87-5.9,10.15-8.63a1.7,1.7,0,0,1,1-.28,2.6,2.6,0,0,1,.4,0c4.52.73,9,1.52,14.06,2.37-3.64,3.07-6.93,5.88-10.29,8.6a1.85,1.85,0,0,1-1.12.28Zm21.17,3.84a13.75,13.75,0,0,1-4.35-.76,52,52,0,0,0-6.95-1.31c3.61-3,6.86-5.82,10.17-8.51a2.29,2.29,0,0,1,1.34-.36,3.91,3.91,0,0,1,.51,0c4.16.69,8.31,1.45,13,2.29a46.42,46.42,0,0,0-5.26,4.41c-2.51,2.81-5.29,4.2-8.49,4.2Zm-87.73,3a9.34,9.34,0,0,1-3-.51c-3-1-6.21-1.16-10-1.8,3.66-3.1,6.85-5.83,10.1-8.51a2.26,2.26,0,0,1,1.33-.42l.28,0c4.51.75,9,1.56,14.05,2.46-2.38,2-4.56,3.63-6.41,5.54s-4,3.22-6.45,3.22Zm23.46,4a9.89,9.89,0,0,1-2.82-.45c-2.81-.84-5.82-1.06-9.28-1.65,3.69-3.12,6.95-5.9,10.25-8.63a1.65,1.65,0,0,1,1-.32l.23,0c4.22.69,8.44,1.43,13.26,2.27a83.23,83.23,0,0,0-6.79,5.9,7.77,7.77,0,0,1-5.84,2.86Zm25,4.26a3.86,3.86,0,0,1-.6,0c-4.24-.69-8.47-1.47-13.23-2.31a36.44,36.44,0,0,0,4.45-3.91c2.67-3.27,5.73-4.76,9.22-4.76a16,16,0,0,1,5.11.93,49.79,49.79,0,0,0,6.62,1.24c-3.63,3.07-6.83,5.82-10.11,8.46a2.4,2.4,0,0,1-1.46.39Zm23.24,4-.18,0c-4.2-.69-8.38-1.43-13-2.24,3.64-3.07,6.89-5.83,10.18-8.56a1.78,1.78,0,0,1,1-.35l.18,0c4.28.69,8.55,1.43,13.33,2.24-3.76,3.08-7.12,5.84-10.5,8.56a1.75,1.75,0,0,1-1,.35Zm-87.88,3.07-.22,0c-4.64-.81-9.28-1.65-14.4-2.57,3.69-3.11,7-5.92,10.35-8.67a1.63,1.63,0,0,1,1-.26,2.25,2.25,0,0,1,.46,0c4.5.75,9,1.55,14,2.44-3.7,3.14-7,6-10.41,8.79a1.35,1.35,0,0,1-.81.25Zm23.11,4a3,3,0,0,1-.54-.05c-4.15-.7-8.29-1.46-12.94-2.29,3.13-2.66,6-5,8.79-7.51a4.64,4.64,0,0,1,3.26-1.42,6.09,6.09,0,0,1,1.29.15c3.64.8,7.34,1.35,11.58,2.11-3.71,3.14-7,6-10.33,8.71a1.82,1.82,0,0,1-1.11.3Zm23.76,4.18-.23,0c-4.44-.74-8.88-1.52-13.77-2.37,3.65-3.13,6.84-5.88,10.06-8.59a2.28,2.28,0,0,1,1.24-.55h.12c4.51.74,9,1.55,14,2.44-3.73,3.14-7.08,6-10.47,8.78a1.64,1.64,0,0,1-1,.31Zm21.13,3.81a8.08,8.08,0,0,1-2.24-.34c-2.81-.79-5.77-1.09-9.23-1.71,3.69-3.11,6.89-5.85,10.15-8.53a2.7,2.7,0,0,1,1.55-.53h.25c4,.62,8,1.33,12.57,2.11-2.92,2.41-5.57,4.36-7.93,6.62a7.2,7.2,0,0,1-5.12,2.37Z"/></svg>