<svg id="Calque_1" data-name="Calque 1" xmlns="http://www.w3.org/2000/svg" viewBox="0 0 350 300"><defs><style>.cls-1{fill:none;stroke:#000;stroke-miterlimit:10;stroke-width:4px;}</style></defs><title>selected</title><path d="M143,81.86,145.55,87l1.76,3.59,3.59-1.77,3.22-1.58,3.16,6.42-3.22,1.59L92.34,125.62l-3.21,1.58L86,120.78l1.39-.69L91,118.33l-1.77-3.59-2.53-5.15,1-.51,3.58-1.76,1.68-.83.59-.29,2.15-1.06,1.68-.82,3.59-1.77h0l0,0h0l2.74-1.35,1.7-.83h0l.83-.41,1.28-.63,2-1,1.69-.83,3.58-1.77h0l.83-.4L119,93.66l.27-.13L122.42,92l1.32-.66h0l.28-.14,3.59-1.76.84-.41,3.19-1.57,1.24-.61h0l.05,0,3.59-1.76,1.68-.83,1.26-.62,1.47-.72,1.68-.83.41-.2M162.85,105l.86,1.74.33.85.27.71c12.74,32.9,54.68,141,59.49,150.78,0,.19-.1,1.34-1.73,3.41-7.1,9.06-27.89,19.78-38.34,19.78-1.3,0-3.58-.18-4.18-1.41C172.8,267.15,96.77,142.32,96,141.07l-.28-.47-1-2.07L97.91,137l61.73-30.36,3.21-1.58m31.34,158.13a8.49,8.49,0,0,0,3.78-.86c6.44-3.17,7.17-13.95,1.7-25.07-4.43-9-11.15-14.81-17.12-14.81a8.55,8.55,0,0,0-3.78.86c-3.51,1.73-5.43,5.62-5.4,11a33.41,33.41,0,0,0,3.69,14.12c4.42,9,11.15,14.8,17.13,14.8M135.67,57.86l-4,2,9.17,18.65-1.67.83L130,60.65,127.26,62l9.17,18.65-1.68.83-9.17-18.65-2.81,1.38L132,82.85l-1.68.82L121.1,65l-2.75,1.35L127.53,85l-1.68.83L116.67,67.2l-3,1.5,9.18,18.65-1.68.83-9.18-18.65-2.73,1.34,9.18,18.65-1.69.83L107.53,71.7l-2.8,1.38,9.17,18.65-1.68.82L103,73.9l-2.72,1.35,9.17,18.65-1.69.83L98.63,76.08l-3.3,1.62,9.17,18.65-1.67.83L93.65,78.53l-2.74,1.35,9.17,18.64-1.67.83L89.23,80.7l-2.8,1.38,9.17,18.65-1.67.82L84.75,82.9,82,84.25l9.18,18.65-1.68.83L80.33,85.08l-3,1.5,9.17,18.64-1.67.83L75.61,87.4l-3.49,1.72,13.47,27.39-5,2.45,11.92,24.22.06,0c6.21,10.19,77,126.54,83.37,139.49,1.26,2.56,4.07,3.64,7.77,3.64,15.87,0,48.08-20,43.67-28.94-5.21-10.59-55.28-139.94-59.63-151.18l.09,0L155.94,81.9l-6.8,3.34L135.67,57.86Zm-39.52,75.5-2-4.15,61.72-30.36,2,4.15L96.15,133.36Zm98,125.78c-4.22,0-9.85-5-13.54-12.57-4.33-8.8-4.38-17.62-.11-19.72a4.55,4.55,0,0,1,2-.45c4.22,0,9.83,5.06,13.53,12.58,4.33,8.8,4.38,17.62.12,19.71a4.42,4.42,0,0,1-2,.45Z"/><path d="M152.26,169.52a13.07,13.07,0,0,1,1.58,3.21,13.73,13.73,0,0,1-.9-1.56,13.18,13.18,0,0,1-.68-1.65m-2-6.25a2.24,2.24,0,0,0-1,.21c-2,1-2,5.24.06,9.46,1.78,3.61,4.48,6,6.5,6a2.11,2.11,0,0,0,1-.22c2-1,2-5.24-.06-9.46-1.78-3.6-4.47-6-6.5-6Z"/><line class="cls-1" x1="74" y1="80" x2="86" y2="105"/><line class="cls-1" x1="78" y1="78" x2="90" y2="103"/><line class="cls-1" x1="82" y1="76" x2="94" y2="101"/><line class="cls-1" x1="86" y1="74" x2="98" y2="99"/><line class="cls-1" x1="90" y1="72" x2="102" y2="97"/><line class="cls-1" x1="94" y1="70" x2="106" y2="95"/><line class="cls-1" x1="98" y1="68" x2="110" y2="93"/><line class="cls-1" x1="102" y1="66" x2="114" y2="91"/><line class="cls-1" x1="106" y1="64" x2="118" y2="89"/><line class="cls-1" x1="110" y1="62" x2="122" y2="87"/><line class="cls-1" x1="114" y1="60" x2="126" y2="85"/><line class="cls-1" x1="118" y1="58" x2="130" y2="83"/><line class="cls-1" x1="122" y1="57" x2="134" y2="82"/><line class="cls-1" x1="126" y1="55" x2="138" y2="80"/><line class="cls-1" x1="130" y1="53" x2="142" y2="78"/></svg>