<svg id="Calque_1" data-name="Calque 1" xmlns="http://www.w3.org/2000/svg" viewBox="0 0 350 300"><title>selected</title><path d="M273.88,63.32a12.71,12.71,0,0,0-3.22.42,12.58,12.58,0,0,0-9.27,13.77c-2.8,3.61-11.91,11.71-31.14,22a386.42,386.42,0,0,1-36.09,16.73l-.57-2.18A11.06,11.06,0,0,0,183,106a10.5,10.5,0,0,0-2.71.35,11,11,0,0,0-7.79,13.34l1.21,4.58q-4.07,1.5-8.18,3l-1.4-5.33a11.07,11.07,0,0,0-10.64-8.14A10.89,10.89,0,0,0,143,127.42l1.8,6.86q-4.12,1.36-8.25,2.68l-1.93-7.33a11.07,11.07,0,0,0-10.64-8.14,10.43,10.43,0,0,0-2.7.35,11,11,0,0,0-7.79,13.35l2.16,8.22c-14.67,4.38-28.88,8.33-41.85,11.77a11.83,11.83,0,0,0-21.55,9.15l3.58,13.6a12,12,0,0,0,11.51,8.81,11.33,11.33,0,0,0,2.93-.38A12,12,0,0,0,79,175.29c8-2.09,15.91-4.09,23.61-6a43.7,43.7,0,0,0-8.22,38.42,43.89,43.89,0,0,0,3.31,8.71c1.22,2.37,5.76,11,14.88,16.54a3.36,3.36,0,0,1,2.19-5.91,3.14,3.14,0,0,1,1,.14A49.12,49.12,0,0,1,104,213.88a44.42,44.42,0,0,1-3.06-7.85,37.23,37.23,0,0,1,26.24-45l67.19-17.69a35.68,35.68,0,0,1,9.12-1.18c16.31,0,31.58,11.08,35.88,27.42a36.87,36.87,0,0,1-26.24,45l-67.2,17.69a36.37,36.37,0,0,1-9.31,1.2,37,37,0,0,1-20-5.86,2.89,2.89,0,0,0-.86-.39c.52.4,1,.79,1.61,1.18,10.7,7.53,21.15,7.86,21,8.95-.09.51-2.4,1.05-5.88,1.05a39.45,39.45,0,0,1-18.91-4.86l-.94-.55a3.73,3.73,0,0,0,.38.28,43.94,43.94,0,0,0,23.69,6.91,42.78,42.78,0,0,0,10.95-1.41l67.19-17.69A43.51,43.51,0,0,0,233.31,147c5.44-.3,10.33-.42,14.69-.42,20.68,0,29.82,2.82,32.62,3.93a12.59,12.59,0,0,0,11.61,7.8,12.71,12.71,0,0,0,3.22-.42,12.59,12.59,0,0,0,9-15.37L286,72.7a12.59,12.59,0,0,0-12.14-9.38Zm-3.59,38.59a3.24,3.24,0,0,0,.86-.12,3.35,3.35,0,0,0,2.39-4.1L268.2,77.4a5.86,5.86,0,0,1,4.17-7.15,5.93,5.93,0,0,1,1.49-.2,5.86,5.86,0,0,1,5.66,4.37l18.39,69.83a5.86,5.86,0,0,1-4.17,7.15,5.93,5.93,0,0,1-1.49.2,5.86,5.86,0,0,1-5.66-4.37l-9.7-36.84a3.36,3.36,0,0,0-3.25-2.5,3.22,3.22,0,0,0-.86.11,3.39,3.39,0,0,0-2.39,4.11l8.07,30.65c-5.49-1.42-14.86-2.91-30.09-2.91-6.69,0-14.5.28-23.6,1l-.53-.27a43.74,43.74,0,0,0-31.59-3.73l-67.19,17.69a43.61,43.61,0,0,0-12.26,5.34c-11.35,2.66-23.25,5.62-35.4,8.79l-1.87-7.1c16.21-4.3,31.07-8.51,44.68-12.61h0c17.48-5.13,34.78-10.89,51.9-17.12,6.9-2.52,20.78-7.95,20.88-8,44-17.72,62.46-31.44,69.87-38.57L267,99.4a3.37,3.37,0,0,0,3.25,2.51Zm-90.3,20s-1-3.91-1-3.92a4.2,4.2,0,1,1,8.12-2.14l.79,3q-3.9,1.55-7.88,3.06Zm-28.84,10.29s-1.7-6.43-1.7-6.44a4.2,4.2,0,0,1,8.13-2.14l1.54,5.86q-4,1.38-8,2.72Zm-29.1,9.31-2.11-8a4.21,4.21,0,0,1,3-5.13,4.13,4.13,0,0,1,1-.14,4.25,4.25,0,0,1,4.09,3.13l2,7.64q-4,1.26-8,2.48ZM67.24,180a5.16,5.16,0,0,1-5-3.8l-3.58-13.6a5.1,5.1,0,0,1,3.64-6.23,5,5,0,0,1,1.27-.16,5.17,5.17,0,0,1,5,3.79s3.57,13.58,3.58,13.6a5.14,5.14,0,0,1-3.64,6.23,5,5,0,0,1-1.27.17Z"/><path d="M203.54,151.81a26.71,26.71,0,0,0-6.72.87l-67.19,17.69a27.46,27.46,0,0,0-19.36,33.2c3.12,11.85,14.53,20.23,26.55,20.23a25.64,25.64,0,0,0,2.9-.17,25.26,25.26,0,0,0,3.75-.7l67.19-17.69a27.16,27.16,0,0,0-7.12-53.43Zm11.59,44.13-9.83-37.37a20.45,20.45,0,0,1,9.83,37.37Zm-14.34,4.94-10.41-39.55,8.12-2.13,10.42,39.55-8.13,2.13Zm-14.87,3.92L175.5,165.25l8.38-2.2,10.41,39.55-8.37,2.2Zm-14.63,3.85L160.88,169.1,169,167l10.41,39.55-8.12,2.14Zm-14.88,3.92L146,173l8.37-2.2,10.41,39.55-8.37,2.2Zm-14.63,3.85-10.41-39.55,8.12-2.14,10.42,39.55-8.13,2.14ZM135,217a20.44,20.44,0,0,1-9.84-37.36L135,217Z"/><path d="M269.49,92.28a2.89,2.89,0,0,0-.76.1,3,3,0,0,0-2.13,3.67l5.85,22.24a3,3,0,0,0,2.91,2.23,3.35,3.35,0,0,0,.76-.09,3,3,0,0,0,2.13-3.67L272.4,94.52a3,3,0,0,0-2.91-2.24Z"/></svg>