<svg id="Calque_1" data-name="Calque 1" xmlns="http://www.w3.org/2000/svg" viewBox="0 0 350 300"><defs><style>.cls-1{fill:none;stroke:#000;stroke-miterlimit:10;stroke-width:4px;}</style></defs><title>selected</title><g id="surface1"><path class="cls-1" d="M277.93,247.43l-12.39-6.93a3.62,3.62,0,0,0-5.27,1.86,4.94,4.94,0,0,0,2.12,6l1.8,1-1,2.4a4.93,4.93,0,0,0,2.11,6,3.62,3.62,0,0,0,5.26-1.86l1-2.4"/><path class="cls-1" d="M267.79,241.84l-17.3-9.63a7,7,0,0,0-1.69.77,5.71,5.71,0,0,0-2.19,2.17,4.92,4.92,0,0,0,2.11,6l1.81,1-1,2.41a4.93,4.93,0,0,0,2.12,6,3.71,3.71,0,0,0,3.06.31c.43-.15.59-.37,2.2-2.17a8.35,8.35,0,0,1,1.55-1.68c.85-.5,2.62-.26,6.68,3.2"/><path class="cls-1" d="M271.57,253.47l5.63,3.15-1,2.4a4.94,4.94,0,0,0,2.11,6,3.63,3.63,0,0,0,5.27-1.86l1-2.41,5.63,3.15-1,2.4a4.93,4.93,0,0,0,2.11,6,3.63,3.63,0,0,0,5.27-1.86l1.13-2.81a18.93,18.93,0,0,0,8.05.76l1.1,3.09a4,4,0,1,0,7.44-2.63l-1.11-3.13a19,19,0,0,0,5.7-5.67l2.75,1.54a3.63,3.63,0,0,0,5.27-1.86,4.94,4.94,0,0,0-2.12-6l-2.76-1.55a24.67,24.67,0,0,0,.1-8.78l2.77-1a4.52,4.52,0,0,0-3-8.46l-2.74,1a24.76,24.76,0,0,0-5.59-6.88l1.13-2.82a4.93,4.93,0,0,0-2.11-6,3.62,3.62,0,0,0-5.26,1.86l-1,2.4-5.63-3.14,1-2.4a4.92,4.92,0,0,0-2.11-6,3.62,3.62,0,0,0-5.26,1.85l-1,2.41-5.62-3.15,1-2.4a4.94,4.94,0,0,0-2.11-6,3.61,3.61,0,0,0-5.26,1.86l-1,2.4-5.63-3.14,1-2.41a4.92,4.92,0,0,0-2.11-6,3.62,3.62,0,0,0-5.26,1.85l-1,2.41-5.63-3.15,1-2.4a4.92,4.92,0,0,0-2.12-6,3.62,3.62,0,0,0-5.26,1.86l-1,2.4-5.63-3.15,1-2.4a4.93,4.93,0,0,0-2.12-6,3.62,3.62,0,0,0-5.26,1.86l-1,2.4L235.78,184l1-2.41a4.91,4.91,0,0,0-2.11-6,3.62,3.62,0,0,0-5.26,1.85l-1,2.41-5.63-3.15,1-2.4a4.92,4.92,0,0,0-2.11-6,3.61,3.61,0,0,0-5.26,1.86l-1,2.4-5.63-3.14,1-2.41a4.93,4.93,0,0,0-2.11-6,3.62,3.62,0,0,0-5.26,1.86l-1,2.4-5.62-3.14,1-2.4a4.93,4.93,0,0,0-2.11-6,3.62,3.62,0,0,0-5.26,1.85l-1,2.41L183.78,155l1-2.4a4.93,4.93,0,0,0-2.11-6,3.61,3.61,0,0,0-5.26,1.86l-1,2.4-5.63-3.14,1-2.41a4.94,4.94,0,0,0-2.11-6,3.62,3.62,0,0,0-5.26,1.86l-1,2.4-12.17-6.8,3-7.36c5.09-12.68-.47-28.42-12.4-35.09L118.15,81.1a8.6,8.6,0,0,0-12.49,4.41l-5.38,13.41A8.73,8.73,0,0,1,87.6,103.4,11.88,11.88,0,0,1,82.51,89L84,85.34a7,7,0,0,0-.79-6.48,6,6,0,0,0-5.5-2.76L57.25,78.39a14.73,14.73,0,0,1-8.87-1.88C36.45,69.84,22.6,74.73,17.51,87.42L6.19,115.59c-5.09,12.68.47,28.42,12.4,35.09l8.59,4.8a3.62,3.62,0,0,0,5.26-1.86,4.23,4.23,0,0,0,.3-1.31,5,5,0,0,0-2.41-4.67l-8.59-4.8a19.08,19.08,0,0,1-8.17-23.13L24.88,91.54a14,14,0,0,1,20.35-7.2A22.4,22.4,0,0,0,58.69,87.2l16.24-1.82a21.76,21.76,0,0,0,9.52,25.86,16.06,16.06,0,0,0,16.63-.16,15.62,15.62,0,0,0,3.55-3.07,17.3,17.3,0,0,0,3-5L113,89.63a1.35,1.35,0,0,1,2-.69l23.64,13.21a19.08,19.08,0,0,1,8.17,23.13l-22.59,56.27a14,14,0,0,1-20.36,7.19l-73.11-41c-2.46-1.39-5.22-1-6.34.39-1.38,1.71-.76,5.53,2.62,7.41l73.69,41a21.24,21.24,0,0,0,30.87-10.91l3.42-8.52,12.17,6.8-1,2.4a4.93,4.93,0,0,0,2.12,6,3.67,3.67,0,0,0,3.06.31,3.73,3.73,0,0,0,2.2-2.17l1-2.4,5.63,3.14-1,2.41a4.93,4.93,0,0,0,2.11,6,3.62,3.62,0,0,0,5.26-1.86l1-2.4,5.63,3.14-1,2.4a4.92,4.92,0,0,0,2.11,6,3.62,3.62,0,0,0,5.26-1.85l1-2.41,5.62,3.15-1,2.4a4.92,4.92,0,0,0,2.11,6,3.62,3.62,0,0,0,5.26-1.86l1-2.4,5.62,3.14-1,2.41a4.94,4.94,0,0,0,2.11,6,3.62,3.62,0,0,0,5.26-1.86l1-2.4,5.63,3.14-1,2.4a4.93,4.93,0,0,0,2.11,6,3.63,3.63,0,0,0,5.27-1.86l1-2.4,5.63,3.15-1,2.4a4.93,4.93,0,0,0,2.12,6,3.62,3.62,0,0,0,5.26-1.86l1-2.4,5.63,3.14-1,2.41a4.92,4.92,0,0,0,2.12,6,3.62,3.62,0,0,0,5.26-1.86l1-2.4,2,1.12a3.62,3.62,0,0,0,5.26-1.85,5,5,0,0,0-2.11-6l-112.56-62.9,9.92-24.71,158.73,88.72a15,15,0,0,1,6.62,7.86c0,.16.09.32.14.48l.16.39a15.07,15.07,0,0,1-.24,10.07s0,0,0,0,0,.05,0,.07A12.74,12.74,0,0,1,311,256a11.33,11.33,0,0,1-3.92,2.75,4.21,4.21,0,0,0-.48.12,4,4,0,0,0-.47.21,11.68,11.68,0,0,1-9.28-1.09l-19-10.6"/><path d="M112.13,141.67a9.11,9.11,0,0,1,4.45,1.21,11.41,11.41,0,0,1,3.57,3.17,10.16,10.16,0,0,0-2.81-2.31,9.41,9.41,0,0,0-4.58-1.22,8.79,8.79,0,0,0-3,.51,9.26,9.26,0,0,0-5.44,5.3,10.35,10.35,0,0,0-.73,3.58,11.31,11.31,0,0,1,.78-4.72,8.34,8.34,0,0,1,7.73-5.52m10.65,11.82a11.34,11.34,0,0,1-.79,4.69,8.58,8.58,0,0,1-5.06,5.07,8,8,0,0,1-2.66.45,9.12,9.12,0,0,1-4.46-1.21,11.6,11.6,0,0,1-3.58-3.18,10.31,10.31,0,0,0,2.83,2.32,9.35,9.35,0,0,0,4.58,1.22A9.07,9.07,0,0,0,122,157a10.48,10.48,0,0,0,.74-3.55m-10.65-15.82a12.29,12.29,0,0,0-11.44,8A16.74,16.74,0,0,0,107.86,166a13.11,13.11,0,0,0,6.41,1.72,11.9,11.9,0,0,0,4-.68,12.56,12.56,0,0,0,7.44-7.35,16.74,16.74,0,0,0-7.16-20.28,13.13,13.13,0,0,0-6.41-1.72Zm1.51,21.18a5.36,5.36,0,0,1-2.63-.71,6.88,6.88,0,0,1-3-8.32,5.17,5.17,0,0,1,3.06-3,5,5,0,0,1,1.64-.28,5.39,5.39,0,0,1,2.63.71,6.86,6.86,0,0,1,2.94,8.32,5,5,0,0,1-4.69,3.3Z"/><path d="M38.32,100.41a9.06,9.06,0,0,1,4.47,1.23,11.49,11.49,0,0,1,3.77,3.42,10.23,10.23,0,0,0-3-2.57A9.38,9.38,0,0,0,39,101.27a8.79,8.79,0,0,0-3,.51,9.05,9.05,0,0,0-5.43,5.3,10.08,10.08,0,0,0-.74,3.56,11.41,11.41,0,0,1,.79-4.7,8.57,8.57,0,0,1,5-5.07,8,8,0,0,1,2.66-.46M49,111.91a11.55,11.55,0,0,1-.79,5A8.58,8.58,0,0,1,43.13,122a8,8,0,0,1-2.65.46A9.16,9.16,0,0,1,36,121.24a11.51,11.51,0,0,1-3.55-3.15,10.33,10.33,0,0,0,2.79,2.29,9.45,9.45,0,0,0,4.59,1.23,8.88,8.88,0,0,0,3-.51,9.05,9.05,0,0,0,5.43-5.3,10.12,10.12,0,0,0,.74-3.89M38.32,96.41a11.88,11.88,0,0,0-4,.69,12.55,12.55,0,0,0-7.44,7.35,16.73,16.73,0,0,0,7.17,20.28,13.16,13.16,0,0,0,6.42,1.74,11.92,11.92,0,0,0,4-.69,12.51,12.51,0,0,0,7.43-7.35,16.71,16.71,0,0,0-7.16-20.29,13.15,13.15,0,0,0-6.42-1.73Zm1.52,21.2a5.29,5.29,0,0,1-2.63-.72,6.86,6.86,0,0,1-2.94-8.32,5,5,0,0,1,4.69-3.3,5.38,5.38,0,0,1,2.63.71,6.86,6.86,0,0,1,2.94,8.33,5,5,0,0,1-4.69,3.3Z"/><path d="M98.77,69.46a3.22,3.22,0,0,1,1.57.44,5.21,5.21,0,0,1,2.17,6.15L95.46,93.62a3,3,0,0,1-1.71,1.76,2.72,2.72,0,0,1-.86.14,3.22,3.22,0,0,1-1.57-.44,5.21,5.21,0,0,1-2.17-6.15l7.06-17.57a2.76,2.76,0,0,1,2.56-1.9m0-4a6.76,6.76,0,0,0-6.28,4.41l-7,17.57a9.18,9.18,0,0,0,3.93,11.13,7.11,7.11,0,0,0,3.52,1,6.67,6.67,0,0,0,2.19-.37,6.9,6.9,0,0,0,4.09-4l7-17.57a9.18,9.18,0,0,0-3.93-11.13,7.22,7.22,0,0,0-3.52-1Z"/><path class="cls-1" d="M285.2,252.27l-12.4-6.93"/></g><path d="M74,131.63a.7.7,0,0,0-.7.34c-1,2.06-1.28,4.45-2.32,6.5s-2.35,4-3.5,6.05c-2.29,4-2.15,9.58-6.27,12.61-1.22.89,1.45,3,3.18,3a1.4,1.4,0,0,0,.83-.24c4.35-3.23,4.27-8.9,6.67-13.18,1.25-2.23,2.7-4.35,3.77-6.68.91-2,2-4.31.73-7A3,3,0,0,0,74,131.63Z"/><path d="M80.67,134.83a.74.74,0,0,0-.71.33c-1,2.06-1.28,4.45-2.31,6.51s-2.36,4-3.51,6c-2.29,4-2.14,9.58-6.26,12.61-1.22.9,1.45,3,3.17,3a1.37,1.37,0,0,0,.84-.24c4.34-3.22,4.27-8.9,6.66-13.17,1.25-2.23,2.7-4.36,3.78-6.68.9-2,2-4.31.73-7a3,3,0,0,0-2.39-1.37Z"/><path d="M67.3,128.44a.73.73,0,0,0-.71.33c-1,2.06-1.28,4.45-2.31,6.51s-2.36,4-3.51,6c-2.29,4-2.15,9.58-6.27,12.61-1.22.9,1.45,3,3.18,3a1.39,1.39,0,0,0,.84-.24c4.34-3.22,4.26-8.9,6.66-13.17,1.25-2.23,2.7-4.36,3.77-6.68.91-2,2-4.31.74-7a3,3,0,0,0-2.39-1.37Z"/></svg>