<svg id="Calque_1" data-name="Calque 1" xmlns="http://www.w3.org/2000/svg" viewBox="0 0 350 300"><title>selected</title><path d="M195.07,53.83h.1l22.43,5c.31.07.18.66.18.69l-2.66,12-.67,3,2.74,1.42a60.86,60.86,0,0,1-27.76,115,60.83,60.83,0,0,1-1.19-121.64l3.14-.07.68-3.06,2.6-11.73c.08-.34.27-.54.41-.54m3,50.37a10.71,10.71,0,0,0,10.4-8.58l7.09-31.9.87-3.91L212.56,59l-12.93-2.88-3.91-.86-.86,3.9L187.77,91a10.64,10.64,0,0,0,8,12.92,10.81,10.81,0,0,0,2.33.26m-8.62,85.47A59.67,59.67,0,0,0,218.94,78.24l-4.72-2.7L213,80.84l-3.34,15a11.84,11.84,0,0,1-23.12-5.14L190,75.41l1.15-5.2-5.31.34a59.62,59.62,0,0,0,3.66,119.12m5.58-139.84a4.49,4.49,0,0,0-4.31,3.68l-2.61,11.72A64.76,64.76,0,1,0,219,72.35l2.66-12a4.39,4.39,0,0,0-3.21-5.46l-22.43-5a4.63,4.63,0,0,0-1-.1Zm3,50.37a6.64,6.64,0,0,1-6.44-8.32L198.76,60l12.93,2.87-7.08,31.91a6.74,6.74,0,0,1-6.5,5.44Zm-8.62,85.47a55.62,55.62,0,0,1-3.4-111.13l-3.41,15.35a15.83,15.83,0,0,0,12,18.89,15.65,15.65,0,0,0,3.45.38A15.83,15.83,0,0,0,213.6,96.75l3.34-15a55.64,55.64,0,0,1-27.45,104Z"/><path d="M189.47,35.2A94.79,94.79,0,1,1,169,222.51a92.93,92.93,0,0,1-48.15-27.33l-5.18-5.53-1.64,7.4-5.85,26.31-.86,3.91,3.9.87,3.07.68h.07a.28.28,0,0,1,.21.34l0,.09,0,.09-3.76,17c-.09.38-.3.57-.4.57h-.08l-3.07-.68-3.9-.87-.87,3.91-3.4,15.31,0,0-.08.14-.07.15-13.21,28a.61.61,0,0,1-.54.34l-.14,0H85L65,288.74h0a.55.55,0,0,1-.44-.5l0-30.69.06-.18,0-.2,3.45-15.55.87-3.91-3.91-.86-3.39-.76a.6.6,0,0,1-.45-.71v-.06l3.77-17a.44.44,0,0,1,.42-.35l.11,0h.09l3.24.71,3.91.87.86-3.91,21.86-99.6.29.06L96.5,112c.08-.46.32-1.67.54-2.63A94.83,94.83,0,0,1,189.47,35.2m.05,188.36a93.55,93.55,0,1,0-20.3-2.23,94,94,0,0,0,20.3,2.23M106.17,227l.87-3.91,7.38-33.22.39-1.78-1.09-1.47a96.06,96.06,0,0,1-16.64-36l-4-17.3-3.83,17.33L74.84,216l-.86,3.9,3.9.86,24.39,5.42,3.9.87m3.56,18.49.87-3.91,1.75-7.87.87-3.9-3.91-.87L70,220.21l-3.9-.87-.87,3.9-1.75,7.88-.86,3.9,3.9.87,39.36,8.74,3.9.87m-25,46.36L86.09,289l11.56-24.12.2-.42L98,264l3.34-15,.87-3.91-3.9-.87-24.18-5.37L70.17,238l-.86,3.9L66,256.91l-.09.42v.43l-.1,26.67,0,3.22,3.15.7,12.72,2.82,3.1.69M189.47,31.2a98.83,98.83,0,0,0-96.34,77.28c-.22,1-.48,2.27-.57,2.84l-.09,0L69.75,214.82l-3.23-.72-.13,0a4.36,4.36,0,0,0-.94-.1,4.43,4.43,0,0,0-4.33,3.51l-3.77,17h0A4.61,4.61,0,0,0,60.78,240l3.43.76-3.45,15.55a4.47,4.47,0,0,0-.2,1l0,31a4.55,4.55,0,0,0,3.63,4.42l19.92,4.43a4.79,4.79,0,0,0,1.06.12,4.59,4.59,0,0,0,4.13-2.59l13.24-28a4.87,4.87,0,0,0,.41-.94l3.46-15.55,3.07.68a4.42,4.42,0,0,0,.94.1,4.49,4.49,0,0,0,4.3-3.71l3.77-16.95.06-.26a4.28,4.28,0,0,0-3.33-5.05l-3.07-.68L118,197.91a97.27,97.27,0,0,0,50.21,28.51A98.77,98.77,0,1,0,189.47,31.2Zm.05,188.36a89.54,89.54,0,1,1,87.38-70.13,89.24,89.24,0,0,1-87.38,70.13Zm-86.39,2.67-24.38-5.41,14.43-65.34h0A100.76,100.76,0,0,0,110.51,189l-7.38,33.22Zm3.57,18.5L67.34,232l1.75-7.87,39.35,8.74-1.74,7.88ZM82.49,287.27l-12.72-2.83.1-26.66,3.34-15,24.18,5.37-3.34,15L82.49,287.27Z"/></svg>