<svg id="Calque_1" data-name="Calque 1" xmlns="http://www.w3.org/2000/svg" viewBox="0 0 350 300"><defs><style>.cls-1{fill:none;stroke:#000;stroke-miterlimit:10;stroke-width:5px;}</style></defs><title>selected</title><path class="cls-1" d="M270.17,72.11,214.57,72l0-9.37A16.57,16.57,0,0,0,198.08,46L172.91,46a16.58,16.58,0,0,0-16.59,16.51l0,9.38-55.6-.13A16.56,16.56,0,0,0,84.12,88.24l-.3,132a16.57,16.57,0,0,0,16.51,16.58l169.47.38a16.57,16.57,0,0,0,16.59-16.51l.29-132a16.57,16.57,0,0,0-16.51-16.58M165,62.5a7.91,7.91,0,0,1,7.93-7.9l25.17.06A7.91,7.91,0,0,1,206,62.59l0,9.38-41-.09Z"/><path d="M100.65,85.12v5l55.6.13,8.63,0,41,.09,8.63,0,55.6.12A2.92,2.92,0,0,1,273,93.42l-.13,56.68-175.3-.39L97.74,93a2.92,2.92,0,0,1,2.91-2.91v-5m0,0A7.92,7.92,0,0,0,92.74,93L92.6,154.7l185.3.41h0L278,93.43a7.93,7.93,0,0,0-7.91-7.93l-55.6-.12-8.63,0-41-.09-8.63,0-55.6-.13Z"/><path d="M97.65,135.48l175.3.39-.16,71h0l0,5c0,3.23-1.77,5.38-2.93,5.38l-169.46-.38c-.72,0-1.37-.75-1.62-1.08a7.17,7.17,0,0,1-1.28-4.31l.17-76m-5-5-.18,80.95c0,5.74,3.52,10.4,7.89,10.41l169.46.38h0c4.36,0,7.92-4.65,7.93-10.37h0l.18-81-185.3-.41Z"/><path class="cls-1" d="M224.4,145.3l-1.83-1.94L216.17,126a7.54,7.54,0,0,0-7-4.9l-46-.11a7.54,7.54,0,0,0-7,4.88L149.78,143l-2.65,2.44a10.29,10.29,0,0,0-3.64,7.84l-.06,25.27a7.51,7.51,0,0,0,7.49,7.5h4.75a7.52,7.52,0,0,0,7.53-7.46v-3.67l44.57.1v3.67a7.51,7.51,0,0,0,7.49,7.49H220a7.52,7.52,0,0,0,7.53-7.46l.06-25.93a10.48,10.48,0,0,0-3.2-7.49m-64.86-18.2a3.87,3.87,0,0,1,3.65-2.51l46,.1a3.91,3.91,0,0,1,3.65,2.52l5.57,15.11h-4.19a12.32,12.32,0,0,0-24.38-.05l-35.91-.08Zm51,15.21-17.09,0a8.73,8.73,0,0,1,17.09,0M159.6,178.57a3.9,3.9,0,0,1-3.92,3.87h-4.75a3.91,3.91,0,0,1-3.91-3.89v-4.71a7.23,7.23,0,0,0,3.92,1l8.66,0Zm64.34.14a3.9,3.9,0,0,1-3.92,3.87h-4.75a3.92,3.92,0,0,1-3.91-3.89V175l8.66,0a7.32,7.32,0,0,0,3.92-1Zm-3.9-7.27L151,171.29a3.88,3.88,0,0,1-3.91-3.86l0-14.16a6.72,6.72,0,0,1,2.4-5.13l.07-.07,2.45-2.3,68.06.15,1.72,1.86s.08.05.09.09a6.73,6.73,0,0,1,2.11,4.91l0,14.82h0a3.89,3.89,0,0,1-3.93,3.84"/><path class="cls-1" d="M194.21,159.51l-17.36,0a1.48,1.48,0,1,0,0,2.89l17.36,0a1.48,1.48,0,1,0,0-2.89"/><path class="cls-1" d="M194.22,155l-17.36,0a1.48,1.48,0,1,0,0,2.89l17.36,0a1.48,1.48,0,1,0,0-2.89"/><path class="cls-1" d="M167.28,159.78a7,7,0,1,1-6.95-7,7,7,0,0,1,6.95,7"/><path class="cls-1" d="M219.4,159.89a7,7,0,1,1-7-7,7,7,0,0,1,7,7"/><path class="cls-1" d="M194.2,164l-17.36,0a1.48,1.48,0,1,0,0,2.89l17.36,0a1.48,1.48,0,1,0,0-2.89"/></svg>