<svg id="Calque_1" data-name="Calque 1" xmlns="http://www.w3.org/2000/svg" viewBox="0 0 350 300"><title>selected</title><path d="M250.79,126.46v27.91h11.53a15.77,15.77,0,0,1,15.55,18.37L262.5,265H188.93l-15.38-92.26a15.79,15.79,0,0,1,15.56-18.37h11.53V126.46h50.15m.51-4H200.13a3.49,3.49,0,0,0-3.49,3.49v24.42h-7.53a19.79,19.79,0,0,0-19.5,23l15.45,92.68A3.48,3.48,0,0,0,188.5,269h74.43a3.48,3.48,0,0,0,3.44-2.92l15.45-92.68a19.79,19.79,0,0,0-19.5-23h-7.53V126a3.49,3.49,0,0,0-3.49-3.49Z"/><path d="M121.08,67.24a2.89,2.89,0,0,0-1.1,5.57l49.73,20.55A2.89,2.89,0,0,0,171.92,88L122.19,67.46a2.89,2.89,0,0,0-1.11-.22Z"/><path d="M256,136.42H195.48a3.49,3.49,0,1,0,0,7H256a3.49,3.49,0,0,0,0-7Z"/><path d="M67.59,29.32a17.92,17.92,0,0,1,6.92,1.38L106.58,44,127,52.4,113.11,86l-52.5-21.7a18.2,18.2,0,0,1,7-35m0-4A22.2,22.2,0,0,0,59.08,68l53.53,22.12a2.84,2.84,0,0,0,1.1.22,2.89,2.89,0,0,0,2.68-1.79l14.75-35.68a2.91,2.91,0,0,0-1.57-3.79l-21.46-8.86L76,27a22.11,22.11,0,0,0-8.45-1.68Z"/><path d="M49.5,45.19a26.2,26.2,0,0,0,13.66,13l52.5,21.7L113.11,86l-52.5-21.7A18.26,18.26,0,0,1,49.5,45.19M51,32.74A22.19,22.19,0,0,0,59.08,68l53.53,22.12a2.84,2.84,0,0,0,1.1.22,2.89,2.89,0,0,0,2.68-1.79l4.51-10.92-2.27-.94a2.25,2.25,0,0,1-.42-.13L64.69,54.48A22.23,22.23,0,0,1,51,32.74Z"/><path d="M173.9,91.92l36.51,1.32L201,116,173.9,91.92m-3-4.11a2.91,2.91,0,0,0-2.68,1.79v0a2.89,2.89,0,0,0,.77,3.24l30.54,27.18a2.86,2.86,0,0,0,2.58.65,2.89,2.89,0,0,0,2-1.71L214.71,93.3a2.89,2.89,0,0,0-2.57-4L171,87.82Z"/><path d="M262.11,154.37h.21a15.77,15.77,0,0,1,15.55,18.37L262.5,265h-9.85l15.16-90.95a23.58,23.58,0,0,0-.58-10.4,20.42,20.42,0,0,0-4.91-9.07l-.21-.21M255,150c-.94.46-1.95,1.13-2,2-.1,1.66,3.37,2.18,6.45,5.37a16.59,16.59,0,0,1,3.94,7.37,19.88,19.88,0,0,1,.47,8.66l-15.44,92.68A3.49,3.49,0,0,1,245,269h18a3.48,3.48,0,0,0,3.44-2.92l15.45-92.69a19.79,19.79,0,0,0-19.5-23L255,150Z"/><path d="M174.17,91.25l9.65.35,19.94,17.73-2.49,6-27.1-24.1m-3-4.11a2.91,2.91,0,0,0-2.68,1.79v0a2.89,2.89,0,0,0,.76,3.24l30.55,27.17a2.89,2.89,0,0,0,1.93.74,3,3,0,0,0,.65-.08,2.9,2.9,0,0,0,2-1.71l4.17-10.09L185.41,87.65l-14.16-.51Z"/></svg>