<svg id="Calque_1" data-name="Calque 1" xmlns="http://www.w3.org/2000/svg" viewBox="0 0 350 300"><defs><style>.cls-1{fill:none;stroke:#000;stroke-miterlimit:10;stroke-width:5px;}</style></defs><title>selected</title><path class="cls-1" d="M139.74,161.34a3.3,3.3,0,0,0,2.51,0,3.34,3.34,0,0,0,1.75-1.81,3.29,3.29,0,0,0-1.86-4.26L115.42,144.7l2.41-6.11,28,11a3.29,3.29,0,1,0,2.4-6.12l-31-12.23a16.44,16.44,0,0,0-21.3,9.26,3.27,3.27,0,0,0,1.85,4.26Zm-28.23-24.63-2.2,5.58-5.59-2.2a9.88,9.88,0,0,1,7.79-3.38"/><path class="cls-1" d="M243.26,194.33a16.45,16.45,0,0,0-10.15-18.13L212,167.88a3.28,3.28,0,1,0-2.41,6.11l18.08,7.12-2.41,6.11-16.81-6.62a3.28,3.28,0,1,0-2.41,6.11l19.87,7.83,12.22,4.81,13.43,5.29a3.27,3.27,0,0,0,4.26-1.85,3.28,3.28,0,0,0-1.85-4.26Zm-6.34-2.5-5.57-2.2,2.19-5.58a9.89,9.89,0,0,1,3.38,7.78"/><path class="cls-1" d="M246.41,24.08l-5.1-2,3-8a3.28,3.28,0,0,0-1.88-4.2l-9.35-3.68A3.29,3.29,0,0,0,228.82,8l-5.81,14-4-1.58a3.09,3.09,0,0,0-1.9,5.77L220.48,28l-2.84,6.82-4.22-1.67a3.47,3.47,0,0,0-2.25,6.18l4,1.55L193.38,93a44.25,44.25,0,0,0-47.55,27.49l-3.66,9.31a3.29,3.29,0,0,0,1.26,3.95,11.51,11.51,0,0,1,3.34,15.92l-6.31,9.68a11.5,11.5,0,0,1-15.92,3.34,3.29,3.29,0,0,0-4.86,1.55L114.26,178a52.59,52.59,0,0,0,26.63,66.88l-8.46,21.49a3.28,3.28,0,0,0,1.85,4.26,3.27,3.27,0,0,0,4.26-1.85L147,247.33a52.57,52.57,0,0,0,65.09-30.75l5.42-13.76a3.28,3.28,0,0,0-2.49-4.44,11.53,11.53,0,0,1-9.37-13.3l2-11.39A11.52,11.52,0,0,1,221,164.33a3.29,3.29,0,0,0,3.61-2l3.67-9.3a44.25,44.25,0,0,0-16-52.54l22-59.13,4.65,1.83a3.91,3.91,0,0,0,2.49-6.08l-4.85-1.91L239,28.23l4.59,1.3a3.16,3.16,0,0,0,2.8-5.45m-24.29,126.5-2.76,7a18.11,18.11,0,0,0-18.19,15l-2,11.38a18.12,18.12,0,0,0,10.9,19.8L206,214.17a46,46,0,1,1-85.61-33.73l4.1-10.41A18.08,18.08,0,0,0,146,163l6.31-9.68A18.08,18.08,0,0,0,149.19,130l2.76-7a37.5,37.5,0,0,1,38.81-23.61l-22.41,53.8a3.28,3.28,0,0,0,1.82,4.32l15.08,5.94a3.31,3.31,0,0,0,2.51,0l0,0a3.26,3.26,0,0,0,1.74-1.85l20.3-54.64a37.5,37.5,0,0,1,12.29,43.74m-37.58,5.47-8.84-3.48L217,53.39l4.93,2Zm39.7-106.87-4.7-1.85,14.11-33.86L237,14.79Z"/><path d="M152.74,190.42a3.28,3.28,0,0,0-1.2,6.34l19.15,7.55a3.36,3.36,0,0,0,1.2.23,3.33,3.33,0,0,0,3.06-2.08,3.29,3.29,0,0,0-1.85-4.26L154,190.65a3.46,3.46,0,0,0-1.21-.23Z"/><path d="M147,201.69a3.3,3.3,0,0,0-3.18,2.46l-7.59,29.35a3.29,3.29,0,0,0,6.36,1.65l6.66-25.76,12.25,4.83L148.85,237.6a3.29,3.29,0,0,0,2.88,4.85,3.35,3.35,0,0,0,1.32-.27,3.29,3.29,0,0,0,1.57-1.45l14.46-26.64a3.3,3.3,0,0,0-1.68-4.63l-19.15-7.54a3.37,3.37,0,0,0-1.21-.23Z"/><line class="cls-1" x1="153.95" y1="190.65" x2="233.65" y2="13.47"/><line class="cls-1" x1="161.32" y1="195.19" x2="233.65" y2="13.47"/><line class="cls-1" x1="173.1" y1="198.2" x2="237.01" y2="14.79"/><line class="cls-1" x1="165.77" y1="198.33" x2="233.65" y2="13.47"/></svg>