<svg id="Calque_1" data-name="Calque 1" xmlns="http://www.w3.org/2000/svg" viewBox="0 0 350 300"><defs><style>.cls-1{fill:none;stroke:#000;stroke-miterlimit:10;stroke-width:5px;}</style></defs><title>selected</title><polygon points="142.38 237.68 142.33 240.02 152.42 240.23 152.47 237.9 142.38 237.68 142.38 237.68"/><path d="M143.47,16.79a3.86,3.86,0,0,0-2.25.68,2.25,2.25,0,0,0-1,1.7l-.12,3.21h-1.57a2,2,0,0,0-2.19,1.6c0,.9.9,1.63,2.09,1.64H140l-.12,3.22a2,2,0,0,0,.87,1.71,3.51,3.51,0,0,0,1.86.7l-.17,4.4-2.26,0h0a2,2,0,0,0-2.19,1.61c0,.89.9,1.63,2.09,1.64l2.27,0-.1,2.5-2.26,0h0A2,2,0,0,0,137.7,43c0,.89.9,1.63,2.09,1.64l2.27,0L142,46.08a5,5,0,0,0-2,3.55l-3.2,51.46c-.33.11-4.25,1.62-4.76,5a5.07,5.07,0,0,0,.12,2l4.37-2.66-3.25,52.08,4.27,0q3.38-53.9,6.76-107.78a2,2,0,0,1,.66-1.3l5.86,0a1.91,1.91,0,0,1,.56,1.31l-1,107.83,3.68,0,.78-52.1,4.82,3.16c-.18-.83-.29-1.5-.37-2-.22-1.38-4.38-5.5-4.38-5.5l.77-51.48A4.64,4.64,0,0,0,154,46.19l.16-4.07,2.34,0h0a2.55,2.55,0,0,0,1.51-.46,1.49,1.49,0,0,0,.68-1.14c0-.89-.9-1.63-2.09-1.64l-2.35,0,.1-2.51,2.34,0h0a2.61,2.61,0,0,0,1.52-.47,1.5,1.5,0,0,0,.67-1.14c0-.89-.9-1.63-2.09-1.64l-2.34,0,.06-1.77a3.84,3.84,0,0,0,1.92-.67,2.21,2.21,0,0,0,1-1.7l.13-3.21h1.56a2.63,2.63,0,0,0,1.52-.46,1.53,1.53,0,0,0,.68-1.14c0-.9-.9-1.63-2.1-1.64l-1.54,0-3-5.65-11.21-.09Zm9.7,11.33-9-.08.31-8,9,.07-.31,8Zm-3.49,17.1-3.33,0,.54-13.88,3.33,0-.54,13.88Z"/><path d="M134.83,101.75l-14.61,11.74a45.5,45.5,0,0,0-17,34.6,43.44,43.44,0,0,0,1.12,12.07c1.13,3.84,2.19,7.46,5.31,9.84,2.55,1.95,5.12,2,7.4,2h.64c2,0,3.8.07,5.07,1.56,3,3.49-.23,11.37-3.51,16.12-4.1,5.94-9.21,8.27-12.69,10.39C94,207.75,83.25,224.46,83.66,239.64c.44,16.48,13.62,28.09,17.86,31,8.86,6,20.28,10,32.87,11.63-.09-1.47-.29-2.93-.48-4.4-11.51-1.6-21.9-5.31-30-10.8-4-2.74-15.66-13.08-16-27.32-.38-17,15.91-31.46,20.65-35.68,6.29-5.6,10.64-7.36,14.57-14.45,4.85-8.75,5.57-19.29,2.36-21.09a2.14,2.14,0,0,0-1-.26c-1.81,0-4,1.91-6.89,1.91a6.32,6.32,0,0,1-2-.34c-2.57-.87-4-3-5.15-4.85-4-6.32-3.45-13.51-3-16.78a41.25,41.25,0,0,1,15.43-31.34l12.2-9.8c-.08-1.76-.18-3.54-.29-5.3Z"/><path d="M156.91,206.72a6.9,6.9,0,0,0-6.86,6.16,2.16,2.16,0,0,0,.72,4.17l1.33,0h0A2.15,2.15,0,0,0,154.3,215l0-1.41a2.58,2.58,0,0,1,2.58-2.53H157a2.58,2.58,0,0,1,2.52,2.64l-.55,25.77a6.91,6.91,0,0,0,6.75,7.05h.15a6.91,6.91,0,0,0,6.86-6.16,2.16,2.16,0,0,0-.72-4.18l-1.33,0h0a2.16,2.16,0,0,0-2.16,2.11l0,1.42a2.58,2.58,0,0,1-2.58,2.52h-.06a2.57,2.57,0,0,1-2.52-2.64l.55-25.76a6.91,6.91,0,0,0-6.75-7.05Z"/><path d="M137.06,207.32l-.57,0a6.91,6.91,0,0,0-6.31,7.45l2.12,25.69a2.59,2.59,0,0,1-2.37,2.79h-.21a2.59,2.59,0,0,1-2.57-2.37L127,239.5a2.16,2.16,0,0,0-2.15-2h-.18l-1.33.11a2.16,2.16,0,0,0-.46,4.22,6.93,6.93,0,0,0,6.8,5.74l.57,0a6.92,6.92,0,0,0,6.31-7.45l-2.12-25.69a2.57,2.57,0,0,1,2.36-2.78h.22a2.58,2.58,0,0,1,2.56,2.36l.12,1.42a2.14,2.14,0,0,0,.76,1.46,2.1,2.1,0,0,0,1.39.52h.18l1.33-.11a2.16,2.16,0,0,0,.45-4.22,6.9,6.9,0,0,0-6.79-5.74Z"/><path d="M157.86,103.45c-.15,1.74-.29,3.49-.41,5.23l12,9.95a40.59,40.59,0,0,1,14.76,31.29c.43,3.25.86,10.36-3.31,16.51-1.22,1.79-2.67,3.87-5.25,4.67a6.3,6.3,0,0,1-1.9.3c-2.94,0-5.2-2-7.05-2a2.18,2.18,0,0,0-1,.23c-3.25,1.7-2.75,12.13,1.91,20.88,3.78,7.09,8.09,8.92,14.26,14.59,4.65,4.28,20.62,19,19.89,35.7-.61,14.06-12.47,24-16.55,26.63-8.18,5.24-18.64,8.67-30.18,10-.22,1.44-.46,2.89-.57,4.34,12.62-1.31,24.12-5,33.1-10.76,4.3-2.76,17.72-13.93,18.52-30.2.73-15-9.63-31.72-22-39.55-3.44-2.17-8.49-4.58-12.46-10.54-3.18-4.77-6.21-12.61-3.17-16,1.12-1.25,2.6-1.44,4.29-1.44.75,0,1.54,0,2.37,0a10.47,10.47,0,0,0,6.53-1.86c3.16-2.29,4.3-5.83,5.51-9.6a42.67,42.67,0,0,0,1.38-11.9,44.8,44.8,0,0,0-16.31-34.55l-14.35-11.92Z"/><path d="M156,267.14a5.28,5.28,0,0,1,5.24,5.09A5.13,5.13,0,0,1,159.8,276a5.19,5.19,0,0,1-3.65,1.66l-18.5.57h-.16a5.28,5.28,0,0,1-5.24-5.09,5.28,5.28,0,0,1,5.08-5.41l18.5-.56H156m0-5h-.32l-18.49.56a10.29,10.29,0,0,0-9.93,10.56h0a10.29,10.29,0,0,0,10.24,9.94h.32l18.49-.56a10.25,10.25,0,0,0-.31-20.49Z"/><path d="M241,252.62q0,4,0,8.1c-.18,1.14-1.29,7-6.06,9.28a12.09,12.09,0,0,1-5.13,1.1c-2.59,0-5.79-.83-7.05-3.18a6.18,6.18,0,0,1-.29-4.22l1.13,0a19.06,19.06,0,0,0,11.69-3.56,18.15,18.15,0,0,0,5.75-7.54M224.83,29.31c-2,0-3.07.28-3.24.85s.32,1.11,1.4,2l16.56,4.16c.5,112.25-.08,194.26-1.47,207.24-.28,2.68-1.06,9.07-5.83,12.64a14.26,14.26,0,0,1-8.69,2.56,26.32,26.32,0,0,1-4.47-.41c-.49,1-3.46,7-.78,12,2.12,4,6.77,5.82,11.46,5.82a16.94,16.94,0,0,0,7.3-1.6c7.68-3.7,8.81-12.75,8.89-13.44.47-93.55.92-220.68-.23-227.39a4.87,4.87,0,0,0-.49-1.44q-14.88-2.92-20.41-2.92Z"/><line class="cls-1" x1="222.93" y1="30.07" x2="223.09" y2="258.56"/></svg>