<svg id="Calque_1" data-name="Calque 1" xmlns="http://www.w3.org/2000/svg" viewBox="0 0 350 300"><defs><style>.cls-1{fill:none;stroke:#000;stroke-miterlimit:10;stroke-width:4px;}</style></defs><title>selected</title><path class="cls-1" d="M276.05,136.25l-5.1-5.4L253.05,82.6A21,21,0,0,0,233.5,69H105.65A20.92,20.92,0,0,0,86.1,82.6L68.45,130.25l-7.35,6.8A28.73,28.73,0,0,0,51,158.9v70.3A20.9,20.9,0,0,0,71.9,250H85.1A20.9,20.9,0,0,0,106,229.2V219H230v10.2A20.9,20.9,0,0,0,250.9,250h13.2A20.9,20.9,0,0,0,285,229.2V157.05a29,29,0,0,0-8.95-20.8M95.5,86a10.81,10.81,0,0,1,10.15-7h127.9a10.89,10.89,0,0,1,10.15,7l15.6,42H247.65a34.3,34.3,0,0,0-67.85,0H79.9Zm142,42H189.9a24.29,24.29,0,0,1,47.55,0M96,229.2A10.87,10.87,0,0,1,85.1,240H71.9A10.87,10.87,0,0,1,61,229.2V216.1A20.31,20.31,0,0,0,71.9,219H96Zm179,0A10.87,10.87,0,0,1,264.1,240H250.9A10.9,10.9,0,0,1,240,229.2V219h24.1a20.31,20.31,0,0,0,10.9-2.9ZM264.1,209H71.9A10.79,10.79,0,0,1,61,198.3V158.9a18.77,18.77,0,0,1,6.65-14.3l.2-.2,6.8-6.4H264l4.8,5.15c.05.1.2.15.25.25a18.84,18.84,0,0,1,5.9,13.65V198.3H275A10.82,10.82,0,0,1,264.1,209"/><path class="cls-1" d="M192.15,176h-48.3c-2.75,0-5,1.81-5,4s2.25,4,5,4h48.3c2.75,0,5-1.81,5-4s-2.25-4-5-4"/><path class="cls-1" d="M192.15,163.5h-48.3c-2.75,0-5,1.81-5,4s2.25,4,5,4h48.3c2.75,0,5-1.81,5-4s-2.25-4-5-4"/><path class="cls-1" d="M117.25,176.87A19.38,19.38,0,1,1,97.88,157.5a19.37,19.37,0,0,1,19.37,19.37"/><path class="cls-1" d="M262.25,176.87a19.38,19.38,0,1,1-19.38-19.37,19.37,19.37,0,0,1,19.38,19.37"/><path class="cls-1" d="M192.15,188.42h-48.3c-2.75,0-5,1.81-5,4s2.25,4,5,4h48.3c2.75,0,5-1.81,5-4s-2.25-4-5-4"/></svg>