<?xml version="1.0" encoding="UTF-8"?><svg id="Calque_1" xmlns="http://www.w3.org/2000/svg" viewBox="0 0 91.78 106.25"><defs><style>.cls-1{fill:#f4f4f4;fill-rule:evenodd;}</style></defs><g id="Groupe_1273"><path id="Tracé_16998" class="cls-1" d="M43.94,36.5l1.13,1.05-.25,.28-.23,.33v.12s-.35-.88-.35-.88l-.29-.9Zm1.61,1.52l.44,.37-.23,.33-.23,.33-.2,.26-.16,.36-.33-.7,.33-.37,.2-.26,.18-.31Zm1.07,.9l.5,.52-.19,.13-.15,.24-.26,.4-.29,.47-.22,.51-.45-.84,.28-.35,.21-.38,.4-.51,.16-.19Zm1.18,1.03l.02,.05,.37,.33-.36,.44-.29,.47-.46,.66-.46,.66-.32-.65,.27-.22,.2-.26,.32-.55,.46-.66,.25-.28Zm1.11,1l.48,.47-1.07,1.38-.51,.68-.28,.35-.21,.38-.46-1.01,.29-.18,.27-.22,.5-.55,.62-.84,.37-.44Zm1.22,1.13l.28,.25-.28,.35-.21,.38-.44,.71-.4,.51-.3,.6-.3,.6-.23,.63-.71-1.51,.42-.16,.3-.3,.6-.6,.67-.74,.62-.72Zm12.9-.75l-.26,.4-.19,.43h-.17s-.54,.16-.54,.16l1.16-.99Zm-27.26,10.43l-.08,.39,.02,.35,.04,.1,.06,.15h-.42s-.48,0-.48,0l-1,.03,1.86-1.03Zm1.68-.9l-.4,1.11-.12,.46-.59,.17,.03-.07,.15-.24,.05-.32,.16-.36,.21-.38,.11-.16,.39-.21Zm13.71-8l.33,.23-.05,.02-.26,.7-.33,.67-.72,1.36-.57,1-.29,.47-.27,.52-.6-1.38,.52-.5,.43-.59,.82-1.1,.48-.6,.26-.4,.26-.41Zm-11.81,6.9l-.11,.34-.09,.69-.16,.66-.02,.25-.02,.25-.66,.14-.56,.1,.19-.43,.45-1.13,.24-.45,.74-.41Zm2.23-1.47l-.16,.36-.16,.36-.24,.75-.29,.95-.15,.54-.1,.51-.91,.12,.13-.29v-.3l.1-.51,.13-.59,.22-.51,.13-.29,.18-.31,1.12-.8Zm19.81-5.55l.22,.1,.25,.02h.48s-.28,.82-.28,.82l-.44-.07-.44-.07-.4,.04-.45,.06,1.08-.9Zm-18.74,5.37l.45,.24,.38,.21-.05,.02-.25,.28-.16,.36-.21,.68-.3,.77-.14,.41-.03,.37-1.12,.2,.16-.36,.1-.34,.19-.73,.39-.99,.27-.52,.18-.31,.08-.27,.06-.02Zm1.41,.7l.76,.42-.12,.46-.13,.59-.08,.57-.04,.2,.06,.15-1.43,.14,.24-.45,.19-.43,.24-.75,.16-.36,.14-.41v-.13Zm-1.03-11.95l.06,.46,.16,.41,.33,.83,.38,.81,.38,.81,.82,1.65,.95,1.96,.9,1.98,.79,2.02,.79,2.02-.58-.25-.56-.2-.82-.27-1.55-.77-1.61-.75-.58-.25-.32-.05-.27-.07,.07-.74,.19-.73,.31-1.49,.14-.71,.04-.67,.02-.72-.04-.7-.09-1.46-.04-1.48,.03-.85,.12-.76Zm2.47,12.71l.07,.03,.58,.25-.11,.16-.08,.09-.11,.34-.13,.29-.05,.32-.79,.13,.11-.16,.1-.22,.18-.31,.23-.93Zm14.47-5.6l.91,.18,.89,.13-.13,.29-.19,.43-.39-.09h-1.02s-.65,0-.65,0h-.6l1.18-.95Zm-7.84-.51l.17,.12-.03,.07-.75,1.91-.66,1.99-.25,.58-.28,.65-.28,.65-.28,.65-.43-1.4,.38-.57,.32-.54,.63-1.14,.8-1.45,.37-.74,.3-.76Zm.9,.3h.6s.63-.06,.63-.06l1.17-.22,.78-.13,.7-.21,1.42-.49,1.52-.54,1.54-.48-1.33,1.18-1.32,1.05-2.76,2.1-3.31,2.37-.88,.64-.93,.66,.51-1.45,.79-2.1,.42-1.06,.42-1.06,.04-.2Zm-6.42,6.33l1.48,.74h0l-1.84,.18,.13-.29,.12-.29,.13-.29-.02-.05Zm11.67-4.81l.31,.18,.39,.09,.39,.09,.37,.03,1.29,.09-.44,.71-.44-.07h-.42s-.77,0-.77,0l-1.09-.05-.55-.02-.51,.08,1.47-1.12Zm-1.74,1.34l.24,.15,.29,.12,.59,.13,.57,.08,.62,.06,.57,.07,.69,.09-.47,.78-.24-.15-.22-.1-.27-.07h-.9s-.53,.02-.53,.02l-1.27-.04-.62-.05h-.65s1.55-1.07,1.55-1.07l.05-.02Zm-1.95,1.42l.24,.15,.27,.07,.61,.18,.57,.08h.6l1.74,.03h.42s.12,.02,.12,.02h.18s-.42,.75-.42,.75l-.05,.02-.91,.12-.88,.04-.92-.06-.89-.13-1.08-.17-.57-.08-.55-.02,1.52-1.01Zm-4.06,3.5l1-.03,.97,.04-.13,.29-.21,.38-.1,.22v.18s-1.54-1.07-1.54-1.07Zm-.67,1.64l.34,.7-.05,.02h-.42s.11-.65,.11-.65l.03-.07Zm2.63-3.66l.73,.19,.78,.17,1.47,.26,.76,.12,.74,.07h.78l.73-.11-.22,.5-.03,.07-2.57-.14h-1.25s-1.3,.04-1.3,.04l-1.09-.05h-.6l-.63,.07,.85-.57,.83-.63Zm.86,2.05l.88-.04-.1,.22-.72,1.06-.15,.24-.13,.29-.8-.52,.05-.02,.23-.33,.18-.31,.2-.26,.32-.24,.03-.07Zm-20.16,2.04l.82-.03,.86-.1,1.62-.28,.59-.17,.54-.15,.59-.17,.59-.17,2.5-.32,1.85-.31,1.84-.18,3.75-.33-1.64,1.9-1.74,1.82-1.53,1.43-.42,.46-.2,.26-.13,.29-.09-.08-.73-.49-.78-.47-.86-.38-.84-.33-1.77-.56-.82-.27-.84-.33-.63-.23-.68-.21-1.22-.36-.62-.23Zm21.93-2.08l1.39,.05-.48,.61-.45,.53-.54,.75-.19,.43-.19,.43-1.13-.75,.14-.11,.13-.11,.23-.33,.38-.57,.73-.88-.02-.05Zm-5.62,3.04h.3l.22,.1,.55,.03,.39,.98,.12,.31-.64-.11-.62-.06-.35,.02-.28,.05,.32-1.32Zm-.39,1.59l.31,.18,.36,.16,.68,.21,.46,.12,.55,.03,.42,1.09-.8-.22-.75-.24-.37-.03-.39-.09-.4,.04-.39,.09,.32-1.32Zm8.45-4.5l.55,.02,.05,.28,.1,.26-.3,.3-.23,.33-.46,.66-.57,.82-.24,.45-.1,.22-.02,.25,.04,.1,.07,.03,.21-.08,.19-.13,.3-.3,.26-.4,.26-.4,.41-.64,.48-.6,.33,.53,.34,.4-.49,.43-.45,.53-.27,.22-.26,.4-.21,.38-.1,.22v.18s-1.43-.93-1.43-.93l-.96-.64,.27-.23,.3-.3,.48-.61,.73-.88,.7-.81,.03-.06Zm2.24,2.83l.6,.78-.05,.02-.27,.53-.34,.49-.31,.42-.31,.42-.03,.07-1.22-.83,.16-.06,.14-.11,.25-.28,.43-.59,.98-.86Zm-11.03,3.24l.39,.08,.46,.12,.81,.4,.43,.19,.41,.14,.45,.07h.42s.05,0,.05,0l.61,1.55-.27-.07-.27-.07-.51-.22-1.01-.44-.56-.2-.62-.06-.58,.05-.58,.05,.34-1.57Zm12.1-1.87l.4,.56-.24,.15-.15,.24-.31,.42-.14,.41-.09,.22v.18s-.96-.64-.96-.64l.42-.29,.41-.34,.36-.44,.29-.47Zm-12.5,3.76l.66,.16,.66,.16,.68,.21,.6,.3,.79,.35,.43,.19,.39,.09-.45,.53-.32-.05-.35,.02-.62-.06-.64-.11-.52-.1-.48-.17-.54-.15-.52-.1,.21-1.27Zm-.3,1.67l.18,.17,.22,.09,.45,.24,.48,.17,.46,.12,.73,.19,.44,.07,.45,.07-.64,.67-.78-.17-.8-.22-.7-.26-.63-.23,.11-.64,.02-.25Zm13.6-4.31l.68,.99-.16,.36-.16,.36-.04,.2-.04,.2,.02,.05-1.37-.9,.27-.22,.25-.28,.28-.35,.26-.4Zm-13.86,5.79l.26,.2,.31,.18,.52,.27,.7,.26,.66,.16-.66,.92-.23,.03h-.42s-.42-.03-.42-.03l-.46-.12h-.48s-.12,0-.12,0l.18-.91,.16-.96Zm15.07-3.93l.85,1.4-1.35-.85,.1-.04,.13-.11,.08-.09,.18-.31Zm-15.56,6.33l.45,.24,.48,.17,.64,.11-.52,.8-.22-.09-.22-.1h-.42s-.27-.09-.27-.09l-.33,.07,.2-.55,.2-.55Zm3.76-12.04l.57,.38,.99,.69,1.02,.62,2,1.31,1.91,1.22,1.88,1.29,1.86,1.24,1.84,1.19h-.3l-1.72-.28-1.7-.23-1.46-.08-.72-.02h-.77s-1.13,.03-1.13,.03h-.6l-.58,.05-.04-.1-.14-.66-.21-.69-.24-.62-.31-.65-.61-1.25-.61-1.25-.9-2.16Zm-2.27-.31l-.36,1.52-.33,1.44-.46,2.63-.46,2.63-.35,2.47-.29,1.25-.13,.59-.23,.63-.21,.68-.16,.66-.09,.69-.09,.69-.45-1.61-.31-1.55-.31-1.55-.24-1.52-.22-1.47-.29-1.5-.34-1.48-.11-.13,.35-.02,.34-.19,.37-.27,.35-.32,.58-.65,.52-.5,1.49-1.54,1.42-1.57Zm-2.11,13.97l.22,.1,.2,.04,.47,.12,.37,.03-.63,.84-.25,.28-.3,.3-.64,.49,.15-.24,.07-.27,.13-.59,.13-.59,.09-.52Zm-3.75-32.15l-.13,.11-.12,.16-.1,.04-.25,.28-.18,.31-.12,.29-.11,.34-.19,.73-.05,.8,.02,.83,.06,.76,.12,1.38,.06,1.53v.78l-.07,.74-.15,.84-.2,.85-.1,.82-.07,.44v.42s-.61,.47-.61,.47l-.61,.42-1.3,.8-2.68,1.53-1.58,.86-1.63,.88-.5,.25-.52,.2-.55,.27-.17,.19-.17,.18-.04,.2,.06,.15,.06,.16,.08,.21,.17,.11,.37,.33,.43,.19,.41,.14,.7,.26,.7,.26,1.48,.44,1.47,.56,1.52,.54,.97,.34,.99,.39,.96,.46,.47,.29,.42,.31,.17,.11,.23-.03,.17,1.49,.22,1.47,.5,2.97,.25,1.4,.29,1.5,.18,.77,.16,.71,.26,.67,.32,.65,.13,.19,.14,.06,.25,.02,.15-.06,.28-.05,.33-.07,.29-.17,.24-.15,.56-.4,.55-.57,.43-.58,.48-.6,.67-1.04,.51-.68,.51-.68,1.14-1.34,1.09-1.32,.51-.68,.51-.68,.34,.11,.37,.03,.8,.05,1.78-.04,.92,.06,.92,.06,1.68,.18,1.72,.28,.66,.16,.71,.14,.37,.03,.37,.03,.33-.07,.29-.17,.1-.04v-.12s.2-.13,.2-.13l.11-.17,.04-.2-.03-.23-.4-.86-.45-.84-.48-.77-.5-.82-1.14-1.53-1.14-1.53-1.11-1.48-.11-.14-1-1.34-.04-.1-.11-.14-.09-.08,.08-.09,.08-.09,.09-.22,.06-.14,.32-.72,.39-.69,.76-1.43,.8-1.32,.77-1.38,.32-.72,.33-.67,.29-.77,.19-.73,.42-1.06,.18-.61,.02-.25v-.3l-.02-.05-.13-.19-.17-.12-.24-.15-.25-.02h-.3l-.28,.05-.54,.15-.54,.15-1.59,.5-1.54,.49-1.45,.57-1.44,.44-.59,.17-.61,.12-.63,.07-.59,.17-.09-.09-.11-.13-.69-.39-.64-.41-.66-.46-.6-.48-1.21-.96-1.15-1.1-2.28-2.15-1.18-1.03-1.22-1.02-.2-.04h-.17Z"/><path id="Tracé_16999" class="cls-1" d="M54.17,60.28h.17l.2-.03,.36,.04-.15,.43-.23,.64-.08,.22-.05,.09v.07s-.03,.06-.03,.06l.09,.05,.11,.09,.12,.03,.23-.15,.13-.14,.06-.15,.22-.42,.11-.4,.09-.11,.11,.09,.25,.22-.18,.23-.1,.34-.2,.68-.1,.67v.43s.04,.04,.04,.04l.02,.04h.06s.08-.04,.08-.04l.13-.14,.1-.18,.16-.33,.29-.8,.17-.33,.02,.04,.29,.68-.15,.26-.09,.28-.28,.74-.07,.32-.04,.19,.04,.14,.05,.08,.09,.05,.14-.04,.15-.1,.19-.29,.17-.33,.15-.27,.08-.21,.3,.46,.1,.15-.42,1.1-.13,.47-.05,.25,.02,.2v.1s.08,.01,.08,.01h.1s.17-.18,.17-.18l.18-.23,.23-.48,.26-.61,.45,.69-.17,.33-.17,.33-.24,.54-.07,.32-.03,.13v.16l.05,.08,.13,.03,.23-.15,.2-.19,.33-.49,.23-.32,.38,.57-.2,.35-.2,.35-.24,.54-.09,.28-.05,.25,.05,.08v.06s.14,.06,.14,.06l.13,.03,.11-.08,.28-.4,.22-.42,.29-.47,.43,.65-.27,.34-.15,.26-.17,.33-.13,.3v.17l.04,.14,.05,.08,.09,.05h.06s.08-.04,.08-.04l.24-.21,.19-.29,.15-.27,.19-.29,.25,.38-.2,.35-.2,.36-.18,.39-.15,.43v.06s.01,.04,.01,.04h.06s.23-.14,.23-.14l.17-.16,.27-.34,.33-.49,.4,.61-.14,.37-.14,.37-.14,.36-.08,.38v.43s.04,.04,.04,.04l.04-.03,.26-.28,.15-.26,.36-.62,.1-.18,.3,.46-.26,.44-.17,.49-.08,.22v.23s-.03,.39-.03,.39l.05,.08,.04-.03,.17-.16,.13-.14,.13-.14,.1-.18,.32-.59,.57,.77v.06s-.42,.87-.42,.87l-.22,.42-.05,.25-.08,.22,.08,.11,.09,.05,.18-.06,.34-.23,.14-.2,.24-.38,.15-.43,.42,.55-.09,.11-.16,.49-.13,.47-.19,.95,.05,.08,.04-.03,.24-.38,.24-.38,.33-.82,.64,.89-.1,.18-.23,.32-.14,.37-.15,.26-.04,.36-.03,.12,.06,.18,.08,.11,.08,.11,.13,.02h.06s.08-.04,.08-.04l.11-.24,.08-.22,.05-.25,.12-.24,.11-.24,.18-.23,.25,.38-.15,.26-.11,.24-.18,.56-.14,.53-.08,.54,.03,.04h.06s.06,.03,.06,.03l.34-.39,.29-.47,.34-.72,.6,.91-.22,.42-.15,.43-.15,.59-.09,.28-.13,.3,.02,.04,.03,.04,.04-.03,.39-.32,.18-.23,.14-.2,.38-.75,.43,.65-.19,.29-.15,.26-.19,.29-.17,.33-.1,.34-.04,.19v.17l.05,.07,.05,.08,.13,.03,.08-.05,.24-.22,.22-.25,.34-.56,.23-.32,.15,.23-.2,.19-.18,.23-.15,.26-.15,.27-.1,.34-.05,.25-.03,.29,.04,.3v.07s.05,.01,.05,.01h.06s.06,.03,.06,.03l.16-.17,.17-.16,.22-.42,.26-.44,.23-.48,.35,.53-.13,.14-.12,.24-.17,.33-.19,.46-.17,.49-.05,.25v.23s.02,.14,.02,.14l.06,.18v.06s.08,.05,.08,.05h.06s.08-.04,.08-.04l.17-.16,.05-.09,.09-.11,.4-.81,.32-.59,.53,.8-.17,.16-.11,.24-.22,.42-.1,.34-.1,.34-.04,.36,.03,.2,.08,.11,.09,.05h.1s.11-.09,.11-.09l.13-.14,.09-.28,.36-.79,.17-.33,.25,.38-.14,.2-.15,.26-.12,.57-.21,.52-.06,.32v.27s.09,.11,.09,.11h.1s.23-.16,.23-.16l.18-.23,.15-.27,.09-.28,.29-.63,.38,.57-.3,.37-.33,.49-.12,.24-.05,.25v.23s.04,.24,.04,.24l.05,.08,.02,.04h.07s.3-.19,.3-.19l.15-.26,.51-.72,.08-.05,.49,.83-.18,.39-.18,.39-.08,.21-.08,.21v.26s.1,.22,.1,.22l.02,.04,.23-.15,.17-.16,.27-.34,.17-.33,.2,.3-.08,.05-.24,.38-.26,.44-.08,.21-.08,.21-.05,.25,.02,.2v.1s.1,.05,.1,.05h.1s.1-.02,.1-.02l.25-.28,.23-.32,.4-.64,.44,.75-.22,.42-.18,.39-.2,.52v.23s-.03,.23-.03,.23l.05,.07,.03,.04h.06s.08-.04,.08-.04l.13-.14,.13-.14,.33-.49,.29-.47,.3,.46-.13,.14-.1,.18-.14,.37-.17,.49-.17,.49,.04,.14,.05,.08,.08,.11,.13,.03-.5,.33-.51,.39-1.26-1.74-1.22-1.75-1.18-1.79-1.16-1.75-2.29-3.63-2.3-3.57-2.41-3.72-2.41-3.72-2.38-3.68-2.48-3.67v-.17l-.04-.14-.24-.44-.14-.46-.07-.44v-.49l.08-.21,.06-.15,.13-.14,.15-.11Zm21.13,29.7l.39,.51-.98,.59,.19-.29,.17-.33,.23-.48Zm-21.73-30.29l-.2,.19-.14,.2-.14,.2-.09,.28-.05,.25-.02,.29-.03,.29,.04,.3,.07,.28,.1,.32,.11,.25,.18,.27v.1s4.8,7.56,4.8,7.56l4.84,7.47,2.39,3.78,2.38,3.84,1.23,1.88,1.23,1.86,1.27,1.84,1.34,1.8,.14,.12,.15,.07,.14-.04,.14-.04,.14-.04,.09-.11,.06-.15v-.1s.61-.3,.61-.3l.63-.36,1.15-.82,.08-.05,.05-.09,.13,.02,.14-.04,.11-.08,.05-.09,.07-.15v-.1s-.01-.17-.01-.17l-.08-.11-.78-.85-.64-.89-.67-.93-.63-.95-1.12-1.94-1.15-1.93-1.36-2.06-1.37-1.99-2.83-4.04-1.93-2.66-1.89-2.69,.03-.13-.04-.14-.08-.11h-.06s-.06-.03-.06-.03l-.04,.03-1.41-2.13-1.03-1.56-1.07-1.54-.44-.75-.05-.24-.14-.29-.25-.55-.62-1.01-.2-.3-.24-.28-.24-.28-.29-.19-.29-.19-.33-.16-.34-.1-.35-.04h-.33l-.34,.06-.28,.07-.23,.14Z"/><path id="Tracé_17000" class="cls-1" d="M22.79,37.29l.11,.11-.03,.03-.02,.03h0s-.04-.08-.04-.08l-.03-.09Zm.16,.15l.04,.04-.02,.03-.02,.03-.02,.03-.02,.04-.03-.07,.03-.04,.02-.03,.02-.03Zm.11,.09l.05,.05h-.02s-.02,.04-.02,.04l-.03,.04-.03,.05-.02,.05-.05-.09,.03-.04,.02-.04,.04-.05,.02-.02Zm.12,.1h0s.04,.04,.04,.04l-.04,.04-.03,.05-.05,.07-.05,.07-.03-.07,.03-.02,.02-.03,.03-.06,.05-.07,.03-.03Zm.11,.1l.05,.05-.11,.14-.05,.07-.03,.04-.02,.04-.05-.1,.03-.02,.03-.02,.05-.06,.06-.09,.04-.05Zm.12,.12l.03,.03-.03,.04-.02,.04-.04,.07-.04,.05-.03,.06-.03,.06-.02,.06-.07-.15,.04-.02,.03-.03,.06-.06,.07-.07,.06-.07Zm1.31-.08l-.03,.04-.02,.04h-.02l-.05,.02,.12-.1Zm-2.76,1.05v.04s0,.04,0,.04h0s0,.03,0,.03h-.19l.19-.1Zm.17-.09l-.04,.11v.05s-.07,.02-.07,.02h0s.02-.03,.02-.03v-.03s.02-.04,.02-.04l.02-.04v-.02s.05-.02,.05-.02Zm1.39-.81l.03,.02h0l-.03,.07-.03,.07-.07,.14-.06,.1-.03,.05-.03,.05-.06-.14,.05-.05,.04-.06,.08-.11,.05-.06,.03-.04,.03-.04Zm-1.2,.7v.04s-.02,.07-.02,.07l-.02,.07v.05h-.07s-.06,.02-.06,.02l.02-.04,.05-.12,.02-.05,.07-.04Zm.23-.15l-.02,.04-.02,.04-.02,.08-.03,.1-.02,.05v.05s-.1,.01-.1,.01v-.03s.01-.03,.01-.03v-.05s.02-.06,.02-.06l.02-.05v-.03s.03-.03,.03-.03l.11-.09Zm2-.56h.02s.02,0,.02,0h.05l-.03,.08h-.05s-.05-.01-.05-.01h-.09s.11-.08,.11-.08Zm-1.9,.54l.05,.02,.04,.02h0l-.02,.03-.02,.04-.02,.07-.03,.08v.04s-.01,.04-.01,.04l-.11,.02,.02-.04v-.04s.03-.07,.03-.07l.04-.1,.03-.05,.02-.03v-.03h.01Zm.14,.07l.08,.04v.05s-.02,.06-.02,.06v.06s0,.02,0,.02v.02s-.14,.01-.14,.01l.02-.05,.02-.04,.02-.08,.02-.04v-.04s.01-.01,.01-.01Zm-.11-1.21v.05s.02,.04,.02,.04l.03,.08,.04,.08,.04,.08,.08,.17,.1,.2,.09,.2,.08,.2,.08,.2-.06-.03-.06-.02-.08-.03-.16-.08-.16-.07-.06-.03h-.03s-.03-.01-.03-.01v-.07s.03-.07,.03-.07l.03-.15v-.07s.01-.07,.01-.07v-.29s0-.15,0-.15v-.15Zm.26,1.29h0l.06,.03v.02s-.02,0-.02,0v.04s-.02,.03-.02,.03v.03s-.08,.01-.08,.01v-.02s.02-.02,.02-.02l.02-.03,.02-.09Zm1.46-.57l.09,.02h.09s-.01,.04-.01,.04l-.02,.04h-.04s-.23,0-.23,0l.12-.1Zm-.79-.05h.02v.02l-.08,.19-.07,.2-.02,.06-.03,.07-.03,.07-.03,.07-.04-.14,.04-.06,.03-.05,.06-.12,.08-.15,.04-.07,.03-.08Zm.09,.03h.12s.12-.03,.12-.03h.08s.07-.04,.07-.04l.14-.05,.15-.05,.16-.05-.13,.12-.13,.11-.28,.21-.33,.24-.09,.07-.09,.07,.05-.15,.08-.21,.04-.11,.04-.11v-.02Zm-.65,.64l.15,.07h0l-.19,.02v-.03s.03-.03,.03-.03v-.03s.01,0,.01,0Zm1.18-.49l.03,.02h.04s.04,.02,.04,.02h.17s-.04,.08-.04,.08h-.05s-.12,0-.12,0h-.11s-.05,0-.05,0h-.05s.15-.1,.15-.1Zm-.18,.14h.02s.03,.03,.03,.03h.06s.06,.02,.06,.02h.06s.06,.01,.06,.01h.07s-.05,.09-.05,.09h-.02s-.02-.02-.02-.02h-.03s-.09,0-.09,0h-.24s-.07,0-.07,0l.16-.11h0Zm-.2,.14h.02s.03,.02,.03,.02l.06,.02h.06s.06,0,.06,0h.25l-.04,.08h-.1s-.09,.01-.09,.01h-.09s-.09-.02-.09-.02l-.11-.02h-.06s-.06,0-.06,0l.15-.09Zm-.41,.35h.2v.03s-.03,.04-.03,.04v.02s-.01,.02-.01,.02l-.16-.11Zm-.07,.17l.03,.07h-.05v-.07s.01,0,.01,0Zm.27-.37l.07,.02,.08,.02,.15,.03h.08s.08,.02,.08,.02h.15s-.02,.04-.02,.04h0s-.26,0-.26,0h-.37s-.06,0-.06,0h-.06s.09-.05,.09-.05l.08-.06Zm.09,.21h.09v.02s-.08,.11-.08,.11l-.02,.02v.03s-.09-.05-.09-.05h0l.02-.03,.02-.03,.02-.03,.03-.02h0Zm-2.04,.19h.17s.16-.04,.16-.04l.06-.02h.05s.06-.03,.06-.03l.06-.02,.25-.03,.19-.03,.19-.02,.38-.03-.17,.19-.18,.18-.15,.15-.04,.05-.02,.03v.03s-.02,0-.02,0l-.07-.05-.08-.05-.09-.04-.09-.03-.18-.06-.08-.03-.09-.03-.06-.02-.07-.02-.12-.04-.06-.03Zm2.22-.21h.14s-.05,.07-.05,.07l-.05,.05-.05,.07-.02,.04-.02,.04-.11-.08h.01s.01-.02,.01-.02l.02-.03,.04-.06,.07-.09h0Zm-.57,.3h.05s.06,0,.06,0l.04,.1v.03s-.05-.01-.05-.01h-.06s-.04,0-.04,0h-.03l.03-.12Zm-.04,.16l.03,.02,.04,.02,.07,.02h.05s.06,.01,.06,.01l.04,.11-.08-.02-.08-.02h-.08s-.04,0-.04,0h-.04s.03-.12,.03-.12Zm.86-.46h.06v.06s-.02,.03-.02,.03l-.02,.03-.05,.07-.06,.08-.02,.05v.02s-.01,.02-.01,.02h0s0,.01,0,.01h.02s.02-.02,.02-.02l.03-.03,.03-.04,.03-.04,.04-.07,.05-.06,.03,.05,.03,.04-.05,.04-.05,.05-.03,.02-.03,.04-.02,.04v.02s0,.02,0,.02l-.15-.09-.1-.07,.03-.02,.03-.03,.05-.06,.07-.09,.07-.08h.01Zm.23,.28l.06,.08h0l-.03,.05-.04,.05-.03,.04-.03,.04h0s-.12-.08-.12-.08h.02s.01-.02,.01-.02l.02-.03,.04-.06,.09-.09Zm-1.12,.33h.04s.05,.02,.05,.02l.08,.04,.04,.02h.04s.05,.02,.05,.02h.05l.06,.16h-.03s-.03-.02-.03-.02l-.05-.02-.1-.04-.06-.02h-.06s-.06,0-.06,0h-.06l.03-.15Zm1.23-.19l.04,.06-.02,.02-.02,.02-.03,.04v.04s-.02,.02-.02,.02v.02l-.1-.07,.04-.03,.04-.03,.04-.04,.03-.05Zm-1.27,.38l.07,.02,.07,.02,.07,.02,.06,.03,.08,.04,.04,.02h.04s-.05,.06-.05,.06h-.03s-.04,0-.04,0h-.06s-.07-.02-.07-.02h-.05s-.05-.03-.05-.03h-.05s-.05-.02-.05-.02l.02-.13Zm-.03,.17l.02,.02h.02s.05,.03,.05,.03l.05,.02h.05s.07,.03,.07,.03h.05s.05,.01,.05,.01l-.07,.07-.08-.02-.08-.02-.07-.03-.06-.02v-.07s.01-.03,.01-.03Zm1.38-.44l.07,.1-.02,.04-.02,.04v.04h0s-.14-.09-.14-.09l.03-.02,.03-.03,.03-.04,.02-.04Zm-1.4,.59l.03,.02,.03,.02,.05,.03,.07,.03,.07,.02-.07,.09h-.16s-.06-.01-.06-.01l.02-.09,.02-.1Zm1.52-.4l.09,.14-.14-.09h.02s0-.02,0-.02l.02-.03Zm-1.57,.64l.05,.02,.05,.02h.07s-.05,.09-.05,.09h-.02s-.02-.02-.02-.02h-.07s-.03,0-.03,0l.02-.06,.02-.06Zm.38-1.22l.06,.04,.1,.07,.1,.06,.2,.13,.19,.12,.19,.13,.19,.13,.19,.12h-.03l-.17-.03-.17-.02h-.15s-.07,0-.07,0h-.3s-.01-.08-.01-.08l-.02-.07-.02-.06-.03-.07-.06-.13-.06-.13-.1-.21Zm-.23-.03l-.04,.15-.03,.15-.05,.27-.05,.27-.04,.25-.03,.13v.06s-.04,.06-.04,.06l-.02,.07-.02,.07v.07s-.02,.07-.02,.07l-.05-.16-.03-.16-.03-.16-.02-.15-.02-.15-.03-.15-.04-.15h-.01s.04-.01,.04-.01l.04-.02,.04-.03,.04-.03,.06-.07,.05-.05,.15-.15,.14-.16Zm-.21,1.41h.02s.02,0,.02,0h.05s.04,.01,.04,.01l-.06,.09-.03,.03-.03,.03-.07,.05,.02-.02v-.03s.02-.06,.02-.06v-.06s.02-.05,.02-.05Zm-.38-3.25h-.01s-.01,.03-.01,.03h-.01l-.02,.03-.02,.03v.03s-.02,.04-.02,.04l-.02,.07v.24s.02,.14,.02,.14v.15s0,.08,0,.08v.07s-.02,.08-.02,.08l-.02,.09v.08s-.02,.04-.02,.04v.04l-.06,.05-.06,.04-.13,.08-.27,.15-.16,.09-.17,.09-.05,.03-.05,.02-.06,.03-.02,.02-.02,.02v.02h0s0,.03,0,.03v.02s.02,.01,.02,.01l.04,.03,.04,.02h.04s.07,.04,.07,.04l.07,.03,.15,.04,.15,.06,.15,.05,.1,.04,.1,.04,.1,.05,.05,.03,.04,.03h.02s.02,.01,.02,.01l.02,.15,.02,.15,.05,.3,.02,.14,.03,.15,.02,.08,.02,.07,.03,.07,.03,.07v.02s.03,0,.03,0h.04s.03-.01,.03-.01h.03s.03-.03,.03-.03h.02s.06-.06,.06-.06l.06-.06,.04-.06,.05-.06,.07-.1,.05-.07,.05-.07,.12-.14,.11-.13,.05-.07,.05-.07h.04s.04,0,.04,0h.35s.09,.01,.09,.01l.17,.02,.17,.03,.07,.02h.07s.04,.01,.04,.01h.07s.03-.02,.03-.02h.01s.02-.03,.02-.03v-.02s.01-.02,.01-.02v-.02l-.04-.09-.05-.09-.05-.08-.05-.08-.11-.15-.11-.15-.11-.15h-.01s-.1-.15-.1-.15h0s-.01-.03-.01-.03h0s0-.02,0-.02h0s.01-.03,.01-.03h0s.03-.09,.03-.09l.04-.07,.08-.15,.08-.13,.08-.14,.03-.07,.03-.07,.03-.08,.02-.07,.04-.11,.02-.06v-.06h0s-.01-.02-.01-.02h-.02s-.02-.03-.02-.03h-.08s-.05,.02-.05,.02l-.05,.02-.16,.05-.16,.05-.15,.06-.15,.04-.06,.02h-.06s-.06,.02-.06,.02l-.06,.02h-.01s-.01-.02-.01-.02l-.07-.04-.06-.04-.07-.05-.06-.05-.12-.1-.12-.11-.23-.22-.12-.1-.12-.1h-.06Z"/><path id="Tracé_17001" class="cls-1" d="M15.12,40.46l.11,.11-.02,.03-.02,.03h0s-.04-.08-.04-.08l-.03-.09Zm.16,.15l.04,.04-.02,.03-.02,.03-.02,.03-.02,.04-.03-.07,.03-.04,.02-.03,.02-.03Zm.11,.09l.05,.05h-.02s-.02,.04-.02,.04l-.03,.04-.03,.05-.02,.05-.05-.09,.03-.04,.02-.04,.04-.05,.02-.02Zm.12,.1h0s.04,.04,.04,.04l-.04,.04-.03,.05-.05,.07-.05,.07-.03-.07,.03-.02,.02-.03,.03-.05,.05-.07,.03-.03Zm.11,.1l.05,.05-.11,.14-.05,.07-.03,.04-.02,.04-.05-.1,.03-.02,.03-.02,.05-.06,.06-.09,.04-.04Zm.12,.12l.03,.02-.03,.04-.02,.04-.04,.07-.04,.05-.03,.06-.03,.06-.02,.06-.07-.15,.04-.02,.03-.03,.06-.06,.07-.07,.06-.07Zm1.3-.08l-.03,.04-.02,.04h-.02l-.05,.02,.12-.1Zm-2.76,1.06v.04s0,.04,0,.04h0s0,.03,0,.03h-.19l.19-.1Zm.17-.09l-.04,.11v.05s-.07,.02-.07,.02h0s.01-.03,.01-.03v-.03s.02-.04,.02-.04l.02-.04v-.02s.06-.02,.06-.02Zm1.39-.81l.03,.02h0l-.03,.07-.03,.07-.07,.14-.06,.1-.03,.05-.03,.05-.06-.14,.05-.05,.04-.06,.08-.11,.05-.06,.03-.04,.03-.04Zm-1.2,.7v.04s-.02,.07-.02,.07l-.02,.07v.05h-.07s-.06,.02-.06,.02l.02-.04,.05-.11,.02-.05,.07-.04Zm.23-.15l-.02,.04-.02,.04-.03,.08-.03,.1-.02,.05v.05s-.1,.01-.1,.01v-.03s.01-.03,.01-.03v-.05s.02-.06,.02-.06l.02-.05v-.03s.03-.03,.03-.03l.11-.09Zm2-.56h.02s.07,0,.07,0l-.03,.08h-.05s-.04-.01-.04-.01h-.09s.11-.08,.11-.08Zm-1.9,.54l.05,.02,.04,.02h0l-.02,.03-.02,.04-.02,.07-.03,.08v.04s-.01,.04-.01,.04l-.11,.02,.02-.04v-.04s.03-.07,.03-.07l.04-.1,.03-.05,.02-.03v-.03s.01,0,.01,0Zm.14,.07l.08,.04v.05s-.02,.06-.02,.06v.06s0,.02,0,.02v.02s-.14,.01-.14,.01l.02-.05,.02-.04,.02-.08,.02-.04v-.04s0-.01,0-.01Zm-.1-1.2v.05s.02,.04,.02,.04l.03,.08,.04,.08,.04,.08,.08,.17,.1,.2,.09,.2,.08,.21,.08,.2-.06-.03-.06-.02-.08-.03-.16-.08-.16-.08-.06-.03h-.03s-.03-.01-.03-.01v-.07s.03-.07,.03-.07l.03-.15v-.07s.01-.07,.01-.07v-.29s0-.15,0-.15v-.16Zm.26,1.29h0l.06,.03v.02s-.02,0-.02,0v.04s-.02,.03-.02,.03v.03s-.08,.01-.08,.01v-.02s.02-.02,.02-.02l.02-.03,.02-.09Zm1.46-.57l.09,.02h.09s-.01,.04-.01,.04l-.02,.04h-.04s-.02,0-.02,0h-.2l.11-.1Zm-.79-.05h.02v.02l-.08,.19-.07,.2-.03,.06-.03,.07-.03,.07-.03,.07-.04-.14,.04-.06,.03-.05,.06-.12,.08-.15,.04-.07,.03-.08Zm.09,.03h.12s.12-.03,.12-.03h.08s.07-.04,.07-.04l.14-.05,.15-.05,.15-.05-.13,.12-.13,.11-.28,.21-.33,.24-.09,.07-.09,.07,.05-.15,.08-.21,.04-.11,.04-.11v-.02Zm-.65,.64l.15,.07h0l-.19,.02v-.03s.03-.03,.03-.03v-.03s.01,0,.01,0Zm1.18-.49l.03,.02h.04s.04,.02,.04,.02h.17s-.04,.08-.04,.08h-.05s-.04,0-.04,0h-.19s-.06,0-.06,0h-.05s.15-.1,.15-.1Zm-.18,.13h.02s.03,.03,.03,.03h.06s.06,.02,.06,.02h.06s.06,.01,.06,.01h.07s-.05,.09-.05,.09h-.02s-.02-.02-.02-.02h-.03s-.09,0-.09,0h-.24s-.07,0-.07,0l.16-.11h0Zm-.2,.14h.02s.03,.02,.03,.02l.06,.02h.06s.06,0,.06,0h.25l-.04,.08h-.1s-.09,.01-.09,.01h-.09s-.09-.02-.09-.02l-.11-.02h-.06s-.06,0-.06,0l.15-.09Zm-.41,.35h.2v.03s-.04,.04-.04,.04v.02s0,.02,0,.02l-.16-.11Zm-.07,.17l.04,.07h-.05v-.07s.01,0,.01,0Zm.27-.37l.07,.02,.08,.02,.15,.03h.08s.08,.02,.08,.02h.15s-.02,.04-.02,.04h0s-.26,0-.26,0h-.49s.09-.05,.09-.05l.08-.06Zm.09,.21h.09v.02s-.08,.11-.08,.11v.02s-.03,.03-.03,.03l-.08-.05h0l.02-.03,.02-.03,.02-.03,.03-.02h0Zm-2.04,.19h.17s.16-.04,.16-.04l.06-.02h.05s.06-.03,.06-.03l.06-.02,.25-.03,.19-.03,.19-.02,.38-.03-.17,.19-.18,.18-.15,.15-.04,.05-.02,.03v.03s-.02,0-.02,0l-.07-.05-.08-.05-.09-.04-.09-.03-.18-.06-.08-.03-.08-.03-.06-.02-.07-.02-.12-.04-.06-.03Zm2.22-.21h.14s-.05,.07-.05,.07l-.05,.05-.05,.08-.02,.04-.02,.04-.11-.08h.01s.01-.02,.01-.02l.02-.03,.04-.06,.07-.09h0Zm-.57,.3h.05s.06,0,.06,0l.04,.1v.03s-.05-.01-.05-.01h-.06s-.04,0-.04,0h-.03s.03-.13,.03-.13Zm-.04,.16l.03,.02,.04,.02,.07,.02h.05s.06,.01,.06,.01l.04,.11-.08-.02-.08-.02h-.08s-.04,0-.04,0h-.04s.03-.12,.03-.12Zm.86-.46h.06v.05s-.02,.03-.02,.03l-.02,.03-.05,.07-.06,.08-.02,.05v.02s-.01,.02-.01,.02h0s0,0,0,0h.02s.02-.02,.02-.02l.03-.03,.03-.04,.03-.04,.04-.07,.05-.06,.03,.05,.03,.04-.05,.04-.05,.05-.03,.02-.03,.04-.02,.04v.02s-.01,.02-.01,.02l-.15-.09-.1-.07,.03-.02,.03-.03,.05-.06,.07-.09,.07-.08h.01Zm.23,.29l.06,.08h0l-.03,.05-.04,.05-.03,.04-.03,.04h0s-.12-.08-.12-.08h.02s.01-.02,.01-.02l.03-.03,.04-.06,.1-.09Zm-1.12,.33h.04s.05,.02,.05,.02l.08,.04,.04,.02h.04s.05,.02,.05,.02h.05l.06,.16h-.03s-.03-.02-.03-.02l-.05-.02-.1-.04-.06-.02h-.06s-.06,0-.06,0h-.06l.03-.16Zm1.23-.19l.04,.06-.02,.02v.02s-.05,.04-.05,.04v.04s-.02,.02-.02,.02v.02l-.1-.07,.04-.03,.04-.03,.04-.04,.03-.05Zm-1.27,.38l.07,.02,.07,.02,.07,.02,.06,.03,.08,.04,.04,.02h.04s-.05,.06-.05,.06h-.03s-.04,0-.04,0h-.06s-.07-.02-.07-.02h-.05s-.05-.03-.05-.03h-.05s-.05-.03-.05-.03l.02-.13Zm-.03,.17l.02,.02h.02s.05,.03,.05,.03l.05,.02h.05s.07,.03,.07,.03h.05s.05,.01,.05,.01l-.07,.07-.08-.02-.08-.02-.07-.03-.06-.02v-.07s.01-.03,.01-.03Zm1.38-.44l.07,.1-.02,.04-.02,.04v.04h0s-.14-.09-.14-.09l.03-.02,.03-.03,.03-.04,.02-.04Zm-1.4,.59l.03,.02,.03,.02,.05,.03,.07,.03,.07,.02-.07,.09h-.16s-.05-.01-.05-.01h-.01l.02-.09,.02-.1Zm1.52-.4l.09,.14-.14-.09h.02s0-.02,0-.02l.02-.04Zm-1.57,.64l.05,.02,.05,.02h.07s-.05,.09-.05,.09h-.02s-.02-.02-.02-.02h-.07s-.03,0-.03,0l.02-.06,.02-.06Zm.38-1.22l.06,.04,.1,.07,.1,.06,.2,.13,.19,.12,.19,.13,.19,.12,.19,.12h-.03l-.17-.03-.17-.02h-.15s-.15,0-.15,0h-.23s-.01-.08-.01-.08l-.02-.07-.02-.06-.03-.07-.06-.13-.06-.13-.09-.21Zm-.23-.03l-.04,.15-.03,.15-.05,.27-.05,.27-.04,.25-.03,.13v.06s-.04,.06-.04,.06l-.02,.07-.02,.07v.07s-.02,.07-.02,.07l-.05-.16-.03-.16-.03-.16-.02-.15-.02-.15-.03-.15-.03-.15h-.01s.04-.01,.04-.01l.04-.02,.04-.03,.04-.03,.06-.07,.05-.05,.15-.15,.14-.16Zm-.21,1.41h.02s.02,0,.02,0h.05s.04,.01,.04,.01l-.06,.09-.02,.03-.03,.03-.07,.05,.02-.02v-.03s.02-.06,.02-.06v-.06s.02-.05,.02-.05Zm-.38-3.25h-.01s-.01,.03-.01,.03h-.01l-.03,.03-.02,.03v.03s-.02,.04-.02,.04l-.02,.07v.24s.02,.14,.02,.14v.15s0,.08,0,.08v.07s-.02,.08-.02,.08l-.02,.09v.08s-.02,.04-.02,.04v.04l-.06,.05-.06,.04-.13,.08-.27,.15-.16,.09-.17,.09-.05,.03-.05,.02-.05,.03-.02,.02-.02,.02v.04s.01,.02,.01,.02v.02s.02,.01,.02,.01l.04,.03,.04,.02h.04s.07,.04,.07,.04l.07,.03,.15,.04,.15,.06,.15,.05,.1,.03,.1,.04,.1,.05,.05,.03,.04,.03h.02s.02,.01,.02,.01l.02,.15,.02,.15,.05,.3,.02,.14,.03,.15,.02,.08,.02,.07,.03,.07,.03,.07v.02s.03,0,.03,0h.04s.03-.01,.03-.01h.03s.03-.02,.03-.02l.02-.02,.06-.04,.06-.06,.04-.06,.05-.06,.07-.1,.05-.07,.05-.07,.12-.14,.11-.13,.05-.07,.05-.07h.03s.04,0,.04,0h.35s.09,.01,.09,.01l.17,.02,.17,.03,.07,.02h.07s.04,.01,.04,.01h.07s.03-.02,.03-.02h.01s.02-.03,.02-.03v-.02s.01-.02,.01-.02v-.02l-.04-.09-.05-.09-.05-.08-.05-.08-.11-.15-.11-.15-.11-.15h-.01s-.1-.15-.1-.15h0s-.01-.03-.01-.03h0s0-.02,0-.02h0s.01-.03,.01-.03h0s.03-.09,.03-.09l.04-.07,.08-.15,.08-.13,.08-.14,.03-.07,.03-.07,.03-.08,.02-.07,.04-.11,.02-.06v-.08s-.03-.01-.03-.01h-.02s-.03-.01-.03-.01h-.06l-.05,.02h-.05s-.16,.07-.16,.07l-.16,.05-.15,.06-.15,.04-.06,.02h-.06s-.06,.02-.06,.02l-.06,.02h0s-.01-.02-.01-.02l-.07-.04-.07-.04-.07-.05-.06-.05-.12-.1-.12-.11-.23-.22-.12-.1-.12-.1h-.06Z"/><path id="Tracé_17002" class="cls-1" d="M27.59,43.38l.11,.11-.02,.03-.02,.03h0s-.04-.08-.04-.08l-.03-.09Zm.16,.15l.04,.04-.02,.03-.02,.03-.02,.03-.02,.04-.03-.07,.03-.04,.02-.03,.02-.03Zm.11,.09l.05,.05h-.02s-.02,.04-.02,.04l-.03,.04-.03,.05-.02,.05-.05-.09,.03-.04,.02-.04,.04-.05,.02-.02Zm.12,.1h0s.04,.04,.04,.04l-.04,.04-.03,.05-.05,.07-.05,.07-.03-.07,.03-.02,.02-.03,.03-.05,.05-.07,.03-.03Zm.11,.1l.05,.05-.11,.14-.05,.07-.03,.04-.02,.04-.05-.1,.03-.02,.03-.02,.05-.06,.06-.09,.04-.05Zm.12,.11l.03,.03-.03,.04-.02,.04-.04,.07-.04,.05-.03,.06-.03,.06-.02,.06-.07-.15,.04-.02,.03-.03,.06-.06,.07-.07,.06-.07Zm1.3-.08l-.03,.04-.02,.04h-.02l-.05,.02,.12-.1Zm-2.76,1.06v.04s0,.04,0,.04h0s0,.03,0,.03h-.19l.19-.1Zm.17-.09l-.04,.11v.05s-.07,.02-.07,.02h0s.02-.03,.02-.03v-.03s.02-.04,.02-.04l.02-.04v-.02s.05-.02,.05-.02Zm1.39-.81l.03,.02h0l-.03,.07-.03,.07-.07,.14-.06,.1-.03,.05-.03,.05-.06-.14,.05-.05,.04-.06,.08-.11,.05-.06,.03-.04,.03-.04Zm-1.2,.7v.04s-.02,.07-.02,.07l-.02,.07v.05h-.07s-.06,.02-.06,.02l.02-.04,.05-.11,.02-.05,.07-.04Zm.23-.15l-.02,.04-.02,.04-.02,.08-.03,.1-.02,.05v.05s-.1,.01-.1,.01v-.03s.01-.03,.01-.03v-.05s.02-.06,.02-.06l.02-.05v-.03s.03-.03,.03-.03l.11-.08Zm2-.56h.02s.02,0,.02,0h.05l-.03,.08h-.05s-.05-.01-.05-.01h-.09s.11-.08,.11-.08Zm-1.9,.54l.05,.02,.04,.02h0l-.02,.03-.02,.04-.02,.07-.03,.08v.04s-.01,.04-.01,.04l-.11,.02,.02-.04v-.04s.03-.07,.03-.07l.04-.1,.03-.05,.02-.03v-.03s.01,0,.01,0Zm.14,.07l.08,.04v.05s-.02,.06-.02,.06v.06s0,.02,0,.02v.02s-.14,.01-.14,.01l.02-.05,.02-.04,.02-.08,.02-.04v-.04s0-.01,0-.01Zm-.11-1.21v.05s.02,.04,.02,.04l.03,.08,.04,.08,.04,.08,.08,.17,.1,.2,.09,.2,.08,.2,.08,.2-.06-.03-.06-.02-.08-.03-.16-.08-.16-.07-.06-.03h-.03s-.03-.01-.03-.01v-.07s.03-.07,.03-.07l.03-.15v-.07s.01-.07,.01-.07v-.29s0-.15,0-.15v-.16Zm.26,1.29h0l.06,.03v.02s-.02,0-.02,0v.04s-.02,.03-.02,.03v.03s-.08,.01-.08,.01v-.02s.02-.02,.02-.02l.02-.03,.02-.09Zm1.46-.57l.09,.02h.09s-.01,.04-.01,.04l-.02,.04h-.04s-.01,0-.01,0h-.2l.1-.1Zm-.79-.05h.02v.02l-.08,.19-.07,.2-.02,.06-.03,.07-.03,.07-.03,.07-.04-.14,.04-.06,.03-.05,.06-.12,.08-.15,.04-.07,.03-.08Zm.09,.03h.12s.12-.03,.12-.03h.08s.07-.04,.07-.04l.14-.05,.15-.05,.16-.05-.13,.12-.13,.11-.28,.21-.33,.24-.09,.07-.09,.07,.05-.15,.08-.21,.04-.11,.04-.11v-.02Zm-.65,.64l.15,.07h0l-.18,.02v-.03s.03-.03,.03-.03v-.03s.01,0,.01,0Zm1.18-.49l.03,.02h.04s.04,.02,.04,.02h.17s-.04,.08-.04,.08h-.05s-.04,0-.04,0h-.19s-.05,0-.05,0h-.05s.15-.1,.15-.1Zm-.18,.14h.02s.03,.03,.03,.03h.06s.06,.02,.06,.02h.06s.06,.01,.06,.01h.07s-.05,.09-.05,.09h-.02s-.02-.02-.02-.02h-.03s-.09,0-.09,0h-.24s-.07,0-.07,0l.16-.11h0Zm-.2,.14h.02s.03,.02,.03,.02l.06,.02h.06s.06,0,.06,0h.25l-.04,.08h-.1s-.09,.01-.09,.01h-.09s-.09-.02-.09-.02l-.11-.02h-.06s-.06,0-.06,0l.15-.09Zm-.41,.35h.2v.03s-.03,.04-.03,.04v.02s-.01,.02-.01,.02l-.16-.11Zm-.07,.17l.03,.07h-.05v-.07s.01,0,.01,0Zm.27-.37l.07,.02,.08,.02,.15,.03h.08s.08,.02,.08,.02h.15s-.02,.04-.02,.04h0s-.26,0-.26,0h-.49s.09-.05,.09-.05l.08-.06Zm.09,.21h.09v.02s-.08,.11-.08,.11l-.02,.02v.03s-.09-.05-.09-.05h0l.02-.03,.02-.03,.02-.03,.03-.02h0Zm-2.04,.19h.17s.16-.04,.16-.04l.06-.02h.05s.06-.03,.06-.03l.06-.02,.25-.03,.19-.03,.19-.02,.38-.03-.17,.19-.18,.18-.15,.15-.04,.05-.02,.03v.03s-.02,0-.02,0l-.07-.05-.08-.05-.09-.04-.09-.03-.18-.06-.08-.03-.09-.03-.06-.02-.07-.02-.12-.04-.06-.03Zm2.22-.21h.14s-.05,.07-.05,.07l-.05,.05-.05,.08-.02,.04-.02,.04-.11-.08h.01s.01-.02,.01-.02l.02-.03,.04-.06,.07-.09h0Zm-.57,.3h.05s.06,0,.06,0l.04,.1v.03s-.05-.01-.05-.01h-.06s-.04,0-.04,0h-.03s.03-.13,.03-.13Zm-.04,.16l.03,.02,.04,.02,.07,.02h.05s.06,.01,.06,.01l.04,.11-.08-.02-.08-.02h-.08s-.04,0-.04,0h-.04s.03-.12,.03-.12Zm.86-.46h.06v.05s-.02,.03-.02,.03l-.02,.03-.05,.07-.06,.08-.02,.05v.02s-.01,.02-.01,.02h0s0,.01,0,.01h.02s.02-.02,.02-.02l.03-.03,.03-.04,.03-.04,.04-.07,.05-.06,.03,.05,.03,.04-.05,.04-.05,.05-.03,.02-.03,.04-.02,.04v.02s0,.02,0,.02l-.15-.09-.1-.07,.03-.02,.03-.03,.05-.06,.07-.09,.07-.08h.01Zm.23,.29l.06,.08h0l-.03,.05-.04,.05-.03,.04-.03,.04h0s-.12-.08-.12-.08h.02s.01-.02,.01-.02l.03-.03,.04-.06,.09-.09Zm-1.12,.33h.04s.05,.02,.05,.02l.08,.04,.04,.02h.04s.05,.02,.05,.02h.05l.06,.16h-.03s-.03-.02-.03-.02l-.05-.02-.1-.04-.06-.02h-.06s-.06,0-.06,0h-.06l.03-.16Zm1.23-.19l.04,.06-.02,.02-.02,.02-.03,.04v.04s-.02,.02-.02,.02v.02l-.1-.07,.04-.03,.04-.03,.04-.04,.03-.05Zm-1.27,.38l.07,.02,.07,.02,.07,.02,.06,.03,.08,.04,.04,.02h.04s-.05,.06-.05,.06h-.03s-.04,0-.04,0h-.06s-.07-.02-.07-.02h-.05s-.05-.03-.05-.03h-.05s-.05-.02-.05-.02l.02-.13Zm-.03,.17l.02,.02h.02s.05,.03,.05,.03l.05,.02h.05s.07,.03,.07,.03h.05s.05,.01,.05,.01l-.07,.07-.08-.02-.08-.02-.07-.03-.06-.02v-.07s.01-.03,.01-.03Zm1.38-.44l.07,.1-.02,.04-.02,.04v.04h0s-.14-.09-.14-.09l.03-.02,.03-.03,.03-.04,.02-.04Zm-1.4,.59l.03,.02,.03,.02,.05,.03,.07,.03,.07,.02-.07,.09h-.16s-.06-.01-.06-.01l.02-.09,.02-.1Zm1.52-.4l.09,.14-.14-.09h.02s0-.02,0-.02l.02-.04Zm-1.57,.64l.05,.02,.05,.02h.07s-.05,.09-.05,.09h-.02s-.02-.02-.02-.02h-.07s-.03,0-.03,0l.02-.06,.02-.06Zm.38-1.22l.06,.04,.1,.07,.1,.06,.2,.13,.19,.12,.19,.13,.19,.13,.19,.12h-.03l-.17-.03-.17-.02h-.15s-.33,0-.33,0h-.06s-.01-.08-.01-.08l-.02-.07-.02-.06-.03-.07-.06-.13-.06-.13-.09-.21Zm-.23-.03l-.04,.15-.03,.15-.05,.27-.05,.27-.04,.25-.03,.13v.06s-.04,.06-.04,.06l-.02,.07-.02,.07v.07s-.02,.07-.02,.07l-.05-.16-.03-.16-.03-.16-.02-.15-.02-.15-.03-.15-.04-.15h-.01s.04-.01,.04-.01l.04-.02,.04-.03,.04-.03,.06-.07,.05-.05,.15-.15,.14-.16Zm-.21,1.41h.02s.02,0,.02,0h.05s.04,.01,.04,.01l-.06,.09-.03,.03-.03,.03-.07,.05,.02-.02v-.03s.02-.06,.02-.06v-.06s.02-.05,.02-.05Zm-.38-3.25h-.01s-.01,.03-.01,.03h-.01l-.02,.03-.02,.03v.03s-.02,.04-.02,.04l-.02,.07v.08s0,.08,0,.08v.08s.02,.14,.02,.14v.15s0,.08,0,.08v.07s-.02,.08-.02,.08l-.02,.09v.08s-.02,.04-.02,.04v.04l-.06,.05-.06,.04-.13,.08-.27,.15-.16,.09-.17,.09-.05,.03-.05,.02-.06,.03-.02,.02-.02,.02v.04s.01,.02,.01,.02v.02s.02,.01,.02,.01l.04,.03,.04,.02h.04s.07,.04,.07,.04l.07,.03,.15,.04,.15,.06,.15,.05,.1,.03,.1,.04,.1,.05,.05,.03,.04,.03h.02s.02,.01,.02,.01l.02,.15,.02,.15,.05,.3,.02,.14,.03,.15,.02,.08,.02,.07,.03,.07,.03,.07v.02s.03,0,.03,0h.04s.03-.01,.03-.01h.03s.03-.02,.03-.02l.02-.02,.06-.04,.06-.06,.04-.06,.05-.06,.07-.1,.05-.07,.05-.07,.12-.14,.11-.13,.05-.07,.05-.07h.04s.04,.01,.04,.01h.35s.09,.01,.09,.01l.17,.02,.17,.03,.07,.02h.07s.04,.01,.04,.01h.07s.03-.02,.03-.02h.01s.02-.03,.02-.03v-.02s.01-.02,.01-.02v-.02l-.04-.09-.05-.09-.05-.08-.05-.08-.11-.15-.11-.15-.11-.15h-.01s-.1-.15-.1-.15h0s-.01-.03-.01-.03h0s0-.02,0-.02h0s.01-.03,.01-.03h0s.03-.09,.03-.09l.04-.07,.08-.15,.08-.13,.08-.14,.03-.07,.03-.07,.03-.08,.02-.07,.04-.11,.02-.06v-.06h0s-.01-.02-.01-.02h-.02s-.02-.03-.02-.03h-.14s-.05,.03-.05,.03l-.16,.05-.16,.05-.15,.06-.15,.04-.06,.02h-.06s-.06,.02-.06,.02l-.06,.02h-.01s-.01-.02-.01-.02l-.07-.04-.06-.04-.07-.05-.06-.05-.12-.1-.12-.11-.23-.22-.12-.1-.12-.1h-.05Z"/><path id="Tracé_17003" class="cls-1" d="M34.41,14.5l.11,.11-.03,.03-.02,.03h0s-.04-.08-.04-.08l-.03-.09Zm.16,.15l.04,.04-.02,.03-.02,.03-.02,.03-.02,.04-.03-.07,.03-.04,.02-.03,.02-.03Zm.11,.09l.05,.05h-.02s-.01,.04-.01,.04l-.03,.04-.03,.05-.02,.05-.05-.09,.03-.04,.02-.04,.04-.05,.02-.02Zm.12,.1h0s.04,.04,.04,.04l-.04,.04-.03,.05-.05,.07-.05,.07-.03-.07,.03-.02,.02-.03,.03-.06,.05-.07,.03-.03Zm.11,.1l.05,.05-.11,.14-.05,.07-.03,.04-.02,.04-.05-.1,.03-.02,.03-.02,.05-.06,.06-.09,.04-.05Zm.12,.12l.03,.03-.03,.04-.02,.04-.04,.07-.04,.05-.03,.06-.03,.06-.02,.06-.07-.15,.04-.02,.03-.03,.06-.06,.07-.07,.06-.07Zm1.3-.08l-.03,.04-.02,.04h-.02l-.05,.02,.12-.1Zm-2.76,1.05v.04s0,.04,0,.04h0s0,.03,0,.03h-.19l.19-.1Zm.17-.09l-.04,.11v.05s-.07,.02-.07,.02h0s.01-.03,.01-.03v-.03s.02-.04,.02-.04l.02-.04v-.02s.05-.02,.05-.02Zm1.39-.81l.03,.02h0l-.03,.07-.03,.07-.07,.14-.06,.1-.03,.05-.03,.05-.06-.14,.05-.05,.04-.06,.08-.11,.05-.06,.03-.04,.03-.04Zm-1.19,.7v.04s-.02,.07-.02,.07l-.02,.07v.05h-.07s-.06,.02-.06,.02l.02-.04,.05-.12,.02-.05,.07-.04Zm.23-.15l-.02,.04-.02,.04-.02,.08-.03,.1-.02,.05v.05s-.1,.01-.1,.01v-.03s.01-.03,.01-.03v-.05s.02-.06,.02-.06l.02-.05v-.04s.03-.03,.03-.03l.12-.08Zm2-.56h.02s.02,0,.02,0h.05l-.03,.08h-.05s-.04-.01-.04-.01h-.09s.11-.08,.11-.08Zm-1.9,.54l.05,.02,.04,.02h0l-.03,.03-.02,.04-.02,.07-.03,.08v.04s-.01,.04-.01,.04l-.11,.02,.02-.04v-.04s.03-.07,.03-.07l.04-.1,.03-.05,.02-.03v-.03s0,0,0,0Zm.14,.07l.08,.04v.05s-.02,.06-.02,.06v.06s0,.02,0,.02v.02s-.14,.01-.14,.01l.02-.05,.02-.04,.02-.08,.02-.04v-.04s.01-.01,.01-.01Zm-.11-1.21v.05s.02,.04,.02,.04l.03,.08,.04,.08,.04,.08,.08,.17,.1,.2,.09,.2,.08,.2,.08,.2-.06-.03-.06-.02-.08-.03-.16-.08-.16-.07-.06-.03h-.03s-.03-.01-.03-.01v-.07s.03-.07,.03-.07l.03-.15v-.07s.01-.07,.01-.07v-.29s-.01-.15-.01-.15v-.16Zm.26,1.29h0l.06,.03v.02s-.02,0-.02,0v.04s-.02,.03-.02,.03v.03s-.08,.01-.08,.01v-.02s.02-.02,.02-.02l.02-.03,.02-.09Zm1.46-.57l.09,.02h.09s-.01,.04-.01,.04l-.02,.04h-.04s-.23,0-.23,0l.12-.1Zm-.79-.05h.02v.02l-.08,.19-.07,.2-.03,.06-.03,.07-.03,.07-.03,.07-.04-.14,.04-.06,.03-.05,.06-.12,.08-.15,.04-.07,.03-.08Zm.09,.03h.12s.12-.03,.12-.03h.08s.07-.04,.07-.04l.14-.05,.15-.05,.16-.05-.14,.12-.13,.11-.28,.21-.33,.24-.09,.07-.1,.07,.05-.15,.08-.21,.04-.11,.04-.11v-.02Zm-.65,.64l.15,.07h0l-.19,.02v-.03s.03-.03,.03-.03v-.03s.01,0,.01,0Zm1.18-.49l.03,.02h.04s.04,.02,.04,.02h.17s-.04,.08-.04,.08h-.04s-.04,0-.04,0h-.19s-.06,0-.06,0h-.05s.15-.1,.15-.1Zm-.18,.14h.02s.03,.03,.03,.03h.06s.06,.02,.06,.02h.06s.06,.01,.06,.01h.07s-.05,.09-.05,.09h-.02s-.02-.02-.02-.02h-.03s-.09,0-.09,0h-.24s-.07,0-.07,0l.16-.11h0Zm-.2,.14h.02s.03,.02,.03,.02l.06,.02h.06s.06,0,.06,0h.25l-.04,.08h-.09s-.09,.01-.09,.01h-.09s-.09-.02-.09-.02l-.11-.02h-.06s-.06,0-.06,0l.15-.09Zm-.41,.35h.2v.03s-.03,.04-.03,.04v.02s-.01,.02-.01,.02l-.16-.11Zm-.07,.17l.04,.07h-.05v-.07s.01,0,.01,0Zm.27-.37l.07,.02,.08,.02,.15,.03h.08s.08,.02,.08,.02h.15s-.02,.04-.02,.04h0s-.26,0-.26,0h-.37s-.06,0-.06,0h-.06s.09-.05,.09-.05l.08-.06Zm.09,.21h.09v.02s-.08,.11-.08,.11v.02s-.03,.03-.03,.03l-.08-.05h0l.02-.03,.02-.03,.02-.03,.03-.02h0Zm-2.04,.19h.17s.16-.04,.16-.04l.06-.02h.05s.06-.03,.06-.03l.06-.02,.25-.03,.19-.03,.19-.02,.38-.03-.17,.19-.18,.18-.15,.15-.04,.05-.02,.03v.03s-.02,0-.02,0l-.07-.05-.08-.05-.09-.04-.09-.03-.18-.06-.08-.03-.09-.03-.06-.02-.07-.02-.12-.04-.06-.03Zm2.22-.21h.14s-.05,.07-.05,.07l-.05,.05-.05,.08-.02,.04-.02,.04-.11-.08h.01s.01-.02,.01-.02l.02-.03,.04-.06,.07-.09h0Zm-.57,.3h.05s.05,0,.05,0l.04,.1v.03s-.05-.01-.05-.01h-.06s-.04,0-.04,0h-.03l.03-.12Zm-.04,.16l.03,.02,.04,.02,.07,.02h.05s.06,.01,.06,.01l.04,.11-.08-.02-.08-.02h-.08s-.04,0-.04,0h-.04s.03-.12,.03-.12Zm.86-.46h.06v.03s.02,.03,.02,.03l-.03,.03-.02,.03-.05,.07-.06,.08-.02,.05v.02s0,.02,0,.02h0s0,.01,0,.01h.02s.02-.02,.02-.02l.03-.03,.03-.04,.03-.04,.04-.07,.05-.06,.03,.05,.03,.04-.05,.04-.05,.05-.03,.02-.03,.04-.02,.04v.02s-.01,.02-.01,.02l-.15-.09-.1-.07,.03-.02,.03-.03,.05-.06,.07-.09,.07-.08h0Zm.23,.28l.06,.08h0l-.03,.05-.04,.05-.03,.04-.03,.04h0s-.12-.08-.12-.08h.02s.01-.02,.01-.02l.03-.03,.04-.06,.09-.09Zm-1.12,.33h.04s.05,.02,.05,.02l.08,.04,.04,.02h.04s.05,.02,.05,.02h.05l.06,.16h-.03s-.03-.01-.03-.01l-.05-.02-.1-.04-.05-.02h-.06s-.06,0-.06,0h-.06l.03-.15Zm1.23-.19l.04,.06-.02,.02v.02s-.05,.04-.05,.04v.04s-.02,.02-.02,.02v.02l-.1-.07,.04-.03,.04-.03,.04-.04,.03-.05Zm-1.27,.38l.07,.02,.07,.02,.07,.02,.06,.03,.08,.04,.04,.02h.04s-.05,.06-.05,.06h-.03s-.04,0-.04,0h-.06s-.06-.02-.06-.02h-.05s-.05-.03-.05-.03h-.05s-.05-.02-.05-.02l.02-.13Zm-.03,.17l.02,.02h.02s.05,.03,.05,.03l.05,.02h.05s.07,.03,.07,.03h.04s.05,.01,.05,.01l-.06,.07-.08-.02-.08-.02-.07-.03-.06-.02v-.07s.01-.03,.01-.03Zm1.38-.44l.07,.1-.02,.04-.02,.04v.04h0s-.14-.09-.14-.09l.03-.02,.03-.03,.03-.04,.02-.04Zm-1.4,.59l.03,.02,.03,.02,.05,.03,.07,.03,.07,.02-.07,.09h-.16s-.06-.01-.06-.01l.02-.09,.02-.1Zm1.52-.4l.09,.14-.14-.09h.02s0-.02,0-.02l.02-.03Zm-1.57,.64l.05,.02,.05,.02h.07s-.05,.09-.05,.09h-.02s-.02-.02-.02-.02h-.07s-.03,0-.03,0l.02-.06,.02-.06Zm.38-1.22l.06,.04,.1,.07,.1,.06,.2,.13,.19,.12,.19,.13,.19,.13,.19,.12h-.03l-.17-.03-.17-.02h-.15s-.15,0-.15,0h-.23s-.01-.08-.01-.08l-.02-.07-.02-.06-.03-.07-.06-.13-.06-.13-.09-.21Zm-.23-.03l-.04,.15-.03,.15-.05,.27-.05,.27-.04,.25-.03,.13v.06s-.04,.06-.04,.06l-.02,.07-.02,.07v.07s-.02,.07-.02,.07l-.05-.16-.03-.16-.03-.16-.02-.15-.02-.15-.03-.15-.03-.15h-.01s.04-.01,.04-.01l.04-.02,.04-.03,.04-.03,.06-.07,.05-.05,.15-.15,.14-.16Zm-.21,1.41h.02s.02,0,.02,0h.05s.04,.01,.04,.01l-.06,.09-.03,.03-.03,.03-.07,.05,.02-.02v-.03s.02-.06,.02-.06v-.06s.02-.04,.02-.04Zm-.38-3.25h-.01s-.01,.03-.01,.03h-.01l-.03,.03-.02,.03v.03s-.02,.04-.02,.04l-.02,.07v.24s.02,.14,.02,.14v.15s0,.08,0,.08v.07s-.02,.08-.02,.08l-.02,.09v.08s-.02,.04-.02,.04v.04l-.06,.05-.06,.04-.13,.08-.27,.15-.16,.09-.16,.09-.05,.03-.05,.02-.06,.03-.02,.02-.02,.02v.02h0s0,.03,0,.03v.02s.02,.01,.02,.01l.04,.03,.04,.02h.04s.07,.04,.07,.04l.07,.03,.15,.04,.15,.06,.15,.05,.1,.04,.1,.04,.1,.05,.05,.03,.04,.03h.02s.02,.01,.02,.01l.02,.15,.02,.15,.05,.3,.03,.14,.03,.15,.02,.08,.02,.07,.03,.07,.03,.07v.02s.03,0,.03,0h.04s.03-.01,.03-.01h.03s.03-.03,.03-.03h.02s.06-.06,.06-.06l.06-.06,.04-.06,.05-.06,.07-.1,.05-.07,.05-.07,.12-.14,.11-.13,.05-.07,.05-.07h.04s.04,.01,.04,.01h.35s.09,.01,.09,.01l.17,.02,.17,.03,.07,.02h.07s.04,.01,.04,.01h.07s.03-.02,.03-.02h.01s.02-.03,.02-.03v-.02s.01-.02,.01-.02v-.02l-.04-.09-.05-.09-.05-.08-.05-.08-.11-.15-.11-.15-.11-.15h-.01s-.1-.15-.1-.15h0s-.01-.02-.01-.02h-.01s0-.02,0-.02h0s0-.03,0-.03h0s.03-.09,.03-.09l.04-.07,.08-.15,.08-.13,.08-.14,.03-.07,.03-.07,.03-.08,.02-.07,.04-.11,.02-.06v-.06h0s-.01-.02-.01-.02h-.02s-.02-.03-.02-.03h-.08s-.05,.02-.05,.02l-.05,.02-.16,.05-.16,.05-.15,.06-.15,.04-.06,.02h-.06s-.06,.02-.06,.02l-.06,.02h0s-.01-.02-.01-.02l-.07-.04-.07-.04-.07-.05-.06-.05-.12-.1-.12-.11-.23-.22-.12-.1-.12-.1h-.06Z"/><path id="Tracé_17004" class="cls-1" d="M34.55,21.39l.11,.11-.03,.03-.02,.03h0s-.04-.08-.04-.08l-.03-.09Zm.16,.15l.04,.04-.02,.03-.02,.03-.02,.03-.02,.04-.03-.07,.03-.04,.02-.03,.02-.03Zm.11,.09l.05,.05h-.02s-.01,.04-.01,.04l-.03,.04-.03,.05-.02,.05-.05-.09,.03-.04,.02-.04,.04-.05,.02-.02Zm.12,.1h0s.04,.04,.04,.04l-.04,.04-.03,.05-.05,.07-.05,.07-.03-.07,.03-.02,.02-.03,.03-.06,.05-.07,.03-.03Zm.11,.1l.05,.05-.11,.14-.05,.07-.03,.04-.02,.04-.05-.1,.03-.02,.03-.02,.05-.06,.06-.09,.04-.05Zm.12,.12l.03,.02-.03,.04-.02,.04-.04,.07-.04,.05-.03,.06-.03,.06-.02,.06-.07-.15,.04-.02,.03-.03,.06-.06,.07-.07,.06-.07Zm1.31-.08l-.03,.04-.02,.04h-.07s.12-.09,.12-.09Zm-2.76,1.06v.04s0,.04,0,.04h0s0,.03,0,.03h-.19l.19-.1Zm.17-.09l-.04,.11v.05s-.07,.02-.07,.02h0s.02-.03,.02-.03v-.03s.02-.04,.02-.04l.02-.04v-.02s.05-.02,.05-.02Zm1.39-.81l.03,.02h0l-.03,.07-.03,.07-.07,.14-.06,.1-.03,.05-.03,.05-.06-.14,.05-.05,.04-.06,.08-.11,.05-.06,.03-.04,.02-.04Zm-1.2,.7v.04s-.02,.07-.02,.07l-.02,.07v.05h-.07s-.06,.03-.06,.03l.02-.04,.05-.11,.02-.05,.07-.04Zm.23-.15l-.02,.04-.02,.04-.02,.08-.03,.1-.02,.05v.05s-.1,.01-.1,.01v-.03s.01-.03,.01-.03v-.05s.02-.06,.02-.06l.02-.05v-.03s.03-.03,.03-.03l.11-.08Zm2-.56h.02s.02,0,.02,0h.05l-.03,.08h-.04s-.05-.01-.05-.01h-.09s.11-.08,.11-.08Zm-1.9,.54l.05,.02,.04,.02h0l-.03,.03-.02,.04-.02,.07-.03,.08v.04s-.01,.04-.01,.04l-.11,.02,.02-.04v-.03s.03-.07,.03-.07l.04-.1,.03-.05,.02-.03v-.03h0Zm.14,.07l.08,.04v.05s-.02,.06-.02,.06v.06s0,.02,0,.02v.02s-.14,.01-.14,.01l.02-.05,.02-.04,.02-.08,.02-.04v-.04s0-.01,0-.01Zm-.1-1.21v.05s.02,.04,.02,.04l.03,.08,.04,.08,.04,.08,.08,.17,.1,.2,.09,.2,.08,.2,.08,.2-.06-.03-.06-.02-.08-.03-.16-.08-.16-.07-.06-.03h-.03s-.03-.01-.03-.01v-.07s.03-.07,.03-.07l.03-.15v-.07s.01-.07,.01-.07v-.29s0-.15,0-.15v-.16Zm.26,1.29h0l.06,.03v.02s-.02,0-.02,0v.04s-.02,.03-.02,.03v.03s-.08,.01-.08,.01v-.02s.02-.02,.02-.02l.02-.03,.02-.09Zm1.46-.57l.09,.02h.09s-.01,.04-.01,.04l-.02,.04h-.04s-.23,0-.23,0l.12-.1Zm-.79-.05h.02v.02l-.08,.19-.07,.2-.03,.06-.03,.07-.03,.07-.03,.07-.04-.14,.04-.06,.03-.05,.06-.12,.08-.15,.04-.07,.03-.08Zm.09,.03h.12s.12-.03,.12-.03h.08s.07-.03,.07-.03l.14-.05,.15-.05,.16-.05-.13,.12-.13,.11-.28,.21-.33,.24-.09,.07-.1,.07,.05-.15,.08-.21,.04-.11,.04-.11v-.02Zm-.65,.64l.15,.07h0l-.19,.02v-.03s.03-.03,.03-.03v-.03s.01,0,.01,0Zm1.18-.49l.03,.02h.04s.04,.02,.04,.02h.17s-.04,.08-.04,.08h-.05s-.12,0-.12,0h-.22s.15-.11,.15-.11Zm-.18,.13h.02s.03,.03,.03,.03h.06s.06,.02,.06,.02h.06s.06,.01,.06,.01h.07s-.05,.09-.05,.09h-.02s-.02-.02-.02-.02h-.03s-.09,0-.09,0h-.24s-.07,0-.07,0l.16-.11h0Zm-.2,.14h.02s.03,.02,.03,.02l.06,.02h.06s.06,0,.06,0h.25l-.04,.08h-.1s-.09,.01-.09,.01h-.09s-.09-.02-.09-.02l-.11-.02h-.06s-.05,0-.05,0l.15-.09Zm-.41,.35h.2v.03s-.03,.04-.03,.04v.02s-.01,.02-.01,.02l-.16-.11Zm-.07,.17l.03,.07h-.05v-.07s.01,0,.01,0Zm.27-.37l.07,.02,.08,.02,.15,.03h.08s.08,.02,.08,.02h.15s-.02,.04-.02,.04h0s-.26,0-.26,0h-.37s-.06,0-.06,0h-.06s.09-.05,.09-.05l.08-.06Zm.09,.21h.09v.02s-.08,.11-.08,.11l-.02,.02v.03s-.09-.05-.09-.05h0l.02-.03,.02-.03,.02-.03,.03-.02h0Zm-2.04,.19h.17s.16-.04,.16-.04l.06-.02,.05-.02,.06-.02,.06-.02,.25-.03,.19-.03,.19-.02,.38-.03-.17,.19-.18,.18-.15,.15-.04,.05-.02,.03v.03s-.02,0-.02,0l-.07-.05-.08-.05-.09-.04-.09-.03-.18-.06-.08-.03-.09-.03-.06-.02-.07-.02-.12-.04-.06-.03Zm2.22-.21h.14s-.05,.07-.05,.07l-.05,.05-.05,.08-.02,.04-.02,.04-.11-.08h.01s.01-.02,.01-.02l.02-.03,.04-.06,.07-.09h0Zm-.57,.3h.05s.06,0,.06,0l.04,.1v.03s-.05-.01-.05-.01h-.06s-.04,0-.04,0h-.03l.03-.12Zm-.04,.16l.03,.02,.04,.02,.07,.02h.05s.06,.01,.06,.01l.04,.11-.08-.02-.08-.02h-.08s-.04,0-.04,0h-.04s.03-.12,.03-.12Zm.86-.46h.05v.03s.02,.03,.02,.03l-.03,.03-.02,.03-.05,.07-.06,.08-.02,.05v.02s-.01,.03-.01,.03h0s0,.01,0,.01h.02s.02-.02,.02-.02l.03-.03,.03-.04,.03-.04,.04-.07,.05-.06,.03,.05,.04,.04-.05,.04-.05,.05-.03,.02-.03,.04-.02,.04v.02s-.01,.02-.01,.02l-.15-.1-.1-.06,.03-.02,.03-.03,.05-.06,.07-.09,.07-.08h0Zm.23,.28l.06,.08h0l-.03,.05-.04,.05-.03,.04-.03,.04h0s-.12-.08-.12-.08h.02s.01-.02,.01-.02l.02-.03,.04-.06,.1-.09Zm-1.11,.33h.04s.05,.02,.05,.02l.08,.04,.04,.02h.04s.05,.02,.05,.02h.05l.06,.16h-.03s-.03-.02-.03-.02l-.05-.02-.1-.04-.06-.02h-.06s-.06,0-.06,0h-.06s.03-.15,.03-.15Zm1.22-.19l.04,.06h-.02s-.02,.04-.02,.04l-.03,.04v.04s-.02,.02-.02,.02v.02l-.1-.07,.04-.03,.04-.04,.04-.04,.03-.05Zm-1.27,.38l.07,.02,.07,.02,.07,.02,.06,.03,.08,.04,.04,.02h.04s-.05,.06-.05,.06h-.03s-.04,0-.04,0h-.06s-.07-.02-.07-.02h-.05s-.05-.03-.05-.03h-.05s-.05-.02-.05-.02l.02-.13Zm-.03,.17l.02,.02h.02s.05,.03,.05,.03l.05,.02h.05s.07,.03,.07,.03h.04s.05,.01,.05,.01l-.06,.07-.08-.02-.08-.02-.07-.03-.06-.02v-.07s.01-.03,.01-.03Zm1.38-.44l.07,.1-.02,.04-.02,.04v.04h0s-.14-.09-.14-.09l.03-.02,.02-.03,.03-.04,.02-.04Zm-1.4,.59l.03,.02,.03,.02,.05,.03,.07,.03,.07,.02-.07,.09h-.16s-.06-.01-.06-.01l.02-.09,.02-.1Zm1.52-.4l.09,.14-.14-.09h.02s0-.02,0-.02l.02-.04Zm-1.57,.64l.05,.02,.05,.02h.07s-.05,.09-.05,.09h-.02s-.02-.02-.02-.02h-.07s-.03,0-.03,0l.02-.06,.02-.06Zm.38-1.22l.06,.04,.1,.07,.1,.06,.2,.13,.19,.12,.19,.13,.19,.12,.18,.12h-.03l-.17-.03-.17-.02h-.15s-.07,0-.07,0h-.31s0,0,0,0v-.07s-.04-.07-.04-.07l-.02-.06-.03-.07-.06-.13-.06-.13-.09-.22Zm-.23-.03l-.04,.15-.03,.15-.05,.27-.05,.27-.04,.25-.03,.13v.06s-.04,.06-.04,.06l-.02,.07-.02,.07v.07s-.02,.07-.02,.07l-.05-.16-.03-.16-.03-.16-.02-.15-.02-.15-.03-.15-.04-.15h-.01s.04-.01,.04-.01l.04-.02,.04-.03,.04-.03,.06-.07,.05-.05,.15-.15,.14-.16Zm-.21,1.41h.02s.02,0,.02,0h.05s.04,.01,.04,.01l-.06,.09-.02,.03-.03,.03-.07,.05,.02-.02v-.03s.02-.06,.02-.06v-.06s.02-.05,.02-.05Zm-.38-3.25h-.01s-.01,.03-.01,.03h-.01l-.03,.03-.02,.03v.03s-.02,.04-.02,.04l-.02,.07v.24s.02,.14,.02,.14v.15s0,.08,0,.08v.07s-.02,.09-.02,.09l-.02,.09v.08s-.02,.04-.02,.04v.04l-.06,.05-.06,.04-.13,.08-.27,.15-.16,.09-.16,.09-.05,.03-.05,.02-.06,.03-.02,.02-.02,.02v.04s.01,.02,.01,.02v.02s.02,.01,.02,.01l.04,.03,.04,.02h.04s.07,.04,.07,.04l.07,.03,.15,.04,.15,.06,.15,.05,.1,.03,.1,.04,.1,.05,.05,.03,.04,.03h.02s.02,.01,.02,.01l.02,.15,.02,.15,.05,.3,.03,.14,.03,.15,.02,.08,.02,.07,.03,.07,.03,.07v.02s.03,0,.03,0h.04s.03,0,.03,0h.03s.03-.02,.03-.02l.02-.02,.06-.04,.06-.06,.04-.06,.05-.06,.07-.1,.05-.07,.05-.07,.12-.14,.11-.13,.05-.07,.05-.07h.03s.04,.01,.04,.01h.35s.09,.01,.09,.01l.17,.02,.17,.03,.07,.02h.07s.04,.01,.04,.01h.07s.03-.03,.03-.03h.01s.02-.03,.02-.03v-.02s.01-.02,.01-.02v-.02l-.04-.09-.05-.09-.05-.08-.05-.08-.11-.15-.11-.15-.11-.15h-.01s-.1-.15-.1-.15h0s-.01-.03-.01-.03h-.01s0-.02,0-.02h0s.01-.03,.01-.03h0s.03-.09,.03-.09l.04-.07,.08-.15,.08-.13,.08-.14,.03-.07,.03-.07,.03-.08,.02-.07,.04-.11,.02-.06v-.06h0v-.02s-.03-.01-.03-.01h-.02s-.02-.01-.02-.01h-.06s-.05,.02-.05,.02h-.05s-.16,.07-.16,.07l-.16,.05-.15,.06-.15,.04-.06,.02h-.06s-.06,.02-.06,.02l-.06,.02h0s-.01-.02-.01-.02l-.07-.04-.07-.04-.07-.05-.06-.05-.12-.1-.12-.11-.23-.22-.12-.1-.12-.1h-.05Z"/><path id="Tracé_17005" class="cls-1" d="M43.03,22.03l.11,.11-.03,.03-.02,.03h0s-.04-.08-.04-.08l-.03-.09Zm.16,.15l.04,.04-.02,.03-.02,.03-.02,.03-.02,.04-.03-.07,.03-.04,.02-.03,.02-.03Zm.11,.09l.05,.05h-.02s-.02,.04-.02,.04l-.03,.04-.03,.05-.02,.05-.05-.09,.03-.04,.02-.04,.04-.05,.02-.02Zm.12,.1h0s.04,.04,.04,.04l-.04,.04-.03,.05-.05,.07-.05,.07-.03-.07,.03-.02,.02-.03,.03-.05,.05-.07,.03-.03Zm.11,.1l.05,.05-.11,.14-.05,.07-.03,.04-.02,.04-.05-.1,.03-.02,.03-.02,.05-.06,.06-.09,.04-.04Zm.12,.12l.03,.02-.03,.04-.02,.04-.04,.07-.04,.05-.03,.06-.03,.06-.02,.06-.07-.15,.04-.02,.03-.03,.06-.06,.07-.07,.06-.07Zm1.3-.08l-.03,.04-.02,.04h-.07s.12-.09,.12-.09Zm-2.76,1.06v.04s0,.04,0,.04h0s0,.03,0,.03h-.19l.19-.1Zm.17-.09l-.04,.11v.05s-.07,.02-.07,.02h0s.01-.03,.01-.03v-.03s.02-.04,.02-.04l.02-.04v-.02s.05-.02,.05-.02Zm1.39-.81l.03,.02h0l-.03,.07-.03,.07-.07,.14-.06,.1-.03,.05-.03,.05-.06-.14,.05-.05,.04-.06,.08-.11,.05-.06,.03-.04,.03-.04Zm-1.2,.7v.04s-.02,.07-.02,.07l-.02,.07v.05h-.07s-.06,.03-.06,.03l.02-.04,.05-.11,.02-.05,.07-.04Zm.23-.15l-.02,.04-.02,.04-.02,.08-.03,.1-.02,.05v.05s-.1,.01-.1,.01v-.03s.01-.03,.01-.03v-.05s.02-.06,.02-.06l.02-.05v-.03s.03-.03,.03-.03l.11-.08Zm2-.56h.02s.07,0,.07,0l-.03,.08h-.05s-.04-.01-.04-.01h-.09s.11-.08,.11-.08Zm-1.9,.54l.05,.02,.04,.02h0l-.03,.03-.02,.04-.02,.07-.03,.08v.04s-.01,.04-.01,.04l-.11,.02,.02-.04v-.04s.03-.07,.03-.07l.04-.1,.03-.05,.02-.03v-.03s0,0,0,0Zm.14,.07l.08,.04v.05s-.02,.06-.02,.06v.06s0,.02,0,.02v.02s-.14,.01-.14,.01l.02-.05,.02-.04,.02-.08,.02-.04v-.04s.01-.01,.01-.01Zm-.11-1.21v.05s.02,.04,.02,.04l.03,.08,.04,.08,.04,.08,.08,.17,.1,.2,.09,.2,.08,.2,.08,.2-.06-.03-.06-.02-.08-.03-.16-.08-.16-.07-.06-.03h-.03s-.03-.01-.03-.01v-.07s.03-.07,.03-.07l.03-.15v-.07s.01-.07,.01-.07v-.29s-.01-.15-.01-.15v-.16Zm.26,1.29h0l.06,.03v.02s-.02,0-.02,0v.03s-.02,.03-.02,.03v.03s-.08,.01-.08,.01v-.02s.02-.02,.02-.02l.02-.03,.02-.09Zm1.46-.57l.09,.02h.09s-.01,.04-.01,.04l-.02,.04h-.04s-.23,0-.23,0l.12-.1Zm-.79-.05h.02v.02l-.08,.19-.07,.2-.02,.06-.03,.07-.03,.07-.03,.07-.04-.14,.04-.06,.03-.05,.06-.12,.08-.15,.04-.07,.03-.08Zm.09,.03h.12s.12-.03,.12-.03h.08s.07-.04,.07-.04l.14-.05,.15-.05,.16-.05-.14,.12-.13,.11-.28,.21-.33,.24-.09,.07-.09,.07,.05-.15,.08-.21,.04-.11,.04-.11v-.02Zm-.65,.64l.15,.07h0l-.19,.02v-.03s.03-.03,.03-.03v-.03s.01,0,.01,0Zm1.18-.49l.03,.02h.04s.04,.02,.04,.02h.17s-.04,.08-.04,.08h-.04s-.12,0-.12,0h-.22s.15-.11,.15-.11Zm-.18,.13h.02s.03,.03,.03,.03h.06s.06,.02,.06,.02h.06s.06,.01,.06,.01h.07s-.05,.09-.05,.09h-.02s-.02-.02-.02-.02h-.03s-.09,0-.09,0h-.24s-.07,0-.07,0l.16-.11h0Zm-.2,.14h.02s.03,.02,.03,.02l.06,.02h.06s.06,0,.06,0h.25l-.04,.08h-.1s-.09,.01-.09,.01h-.09s-.09-.02-.09-.02l-.11-.02h-.06s-.06,0-.06,0l.15-.09Zm-.41,.35h.2v.03s-.04,.04-.04,.04v.02s0,.02,0,.02l-.16-.11Zm-.07,.17l.04,.07h-.05v-.07s.01,0,.01,0Zm.27-.37l.07,.02,.08,.02,.15,.03h.08s.08,.02,.08,.02h.15s-.02,.04-.02,.04h0s-.26,0-.26,0h-.49s.09-.05,.09-.05l.08-.07Zm.09,.21h.09v.02s-.08,.11-.08,.11v.02s-.03,.03-.03,.03l-.08-.05h0l.02-.03,.02-.03,.02-.03,.03-.02h0Zm-2.04,.19h.17s.16-.04,.16-.04l.06-.02,.05-.02,.06-.02,.06-.02,.25-.03,.19-.03,.19-.02,.38-.03-.17,.19-.18,.18-.15,.15-.04,.05-.02,.03v.03s-.02,0-.02,0l-.07-.05-.08-.05-.09-.04-.09-.03-.18-.06-.08-.03-.08-.03-.06-.02-.07-.02-.12-.04-.06-.03Zm2.22-.21h.14s-.05,.07-.05,.07l-.05,.05-.05,.08-.02,.04-.02,.04-.11-.08h.01s.01-.02,.01-.02l.02-.03,.04-.06,.07-.09h0Zm-.57,.3h.05s.05,0,.05,0l.04,.1v.03s-.05-.01-.05-.01h-.06s-.04,0-.04,0h-.03s.03-.13,.03-.13Zm-.04,.16l.03,.02,.04,.02,.07,.02h.05s.06,.01,.06,.01l.04,.11-.08-.02-.08-.02h-.08s-.04,0-.04,0h-.04s.03-.12,.03-.12Zm.86-.46h.06v.03s.02,.03,.02,.03l-.03,.03-.02,.03-.05,.07-.06,.08-.02,.05v.02s-.01,.02-.01,.02h0s0,0,0,0h.02s.02-.02,.02-.02l.03-.03,.03-.04,.03-.04,.04-.07,.05-.06,.03,.05,.03,.04-.05,.04-.05,.05-.03,.02-.03,.04-.02,.04v.02s-.01,.02-.01,.02l-.15-.1-.1-.06,.03-.02,.03-.03,.05-.06,.07-.09,.07-.08h0Zm.23,.28l.06,.08h0l-.03,.05-.04,.05-.03,.04-.03,.04h0s-.12-.08-.12-.08h.02s.01-.02,.01-.02l.03-.03,.04-.06,.09-.09Zm-1.12,.33h.04s.05,.02,.05,.02l.08,.04,.04,.02h.04s.05,.02,.05,.02h.05l.06,.16h-.03s-.03-.01-.03-.01l-.05-.02-.1-.04-.06-.02h-.06s-.06,0-.06,0h-.06l.03-.15Zm1.23-.19l.04,.06-.02,.02v.02s-.05,.04-.05,.04v.04s-.02,.02-.02,.02v.02l-.1-.07,.04-.03,.04-.03,.04-.04,.03-.05Zm-1.27,.38l.07,.02,.07,.02,.07,.02,.06,.03,.08,.04,.04,.02h.04s-.05,.06-.05,.06h-.03s-.04,0-.04,0h-.06s-.07-.02-.07-.02h-.05s-.05-.03-.05-.03h-.05s-.05-.02-.05-.02l.02-.13Zm-.03,.17l.02,.02h.02s.05,.03,.05,.03l.05,.02h.05s.07,.03,.07,.03h.05s.05,.01,.05,.01l-.06,.07-.08-.02-.08-.02-.07-.03-.06-.02v-.07s.01-.03,.01-.03Zm1.38-.44l.07,.1-.02,.04-.02,.04v.04h0l-.14-.09,.03-.02,.03-.03,.03-.04,.02-.04Zm-1.4,.59l.03,.02,.03,.02,.05,.03,.07,.03,.07,.02-.07,.09h-.16s-.05-.01-.05-.01h-.01l.02-.09v-.1Zm1.54-.4l.08,.14-.14-.09h.02s0-.02,0-.02l.02-.04Zm-1.57,.64l.05,.02,.05,.02h.07s-.05,.09-.05,.09h-.02s-.02-.02-.02-.02h-.07s-.03,0-.03,0l.02-.06,.02-.06Zm.38-1.22l.06,.04,.1,.07,.1,.06,.2,.13,.19,.12,.19,.13,.19,.12,.19,.12h-.03l-.17-.03-.17-.02h-.15s-.15,0-.15,0h-.23s0,0,0,0v-.07s-.04-.07-.04-.07l-.02-.06-.03-.07-.06-.13-.06-.13-.09-.22Zm-.23-.03l-.04,.15-.03,.15-.05,.27-.05,.27-.04,.25-.03,.13v.06s-.04,.06-.04,.06l-.02,.07-.02,.07v.07s-.02,.07-.02,.07l-.05-.16-.03-.16-.03-.16-.02-.15-.02-.15-.03-.15-.03-.15h-.01s.04-.01,.04-.01l.03-.02,.04-.03,.04-.03,.06-.07,.05-.05,.15-.16,.14-.16Zm-.21,1.41h.02s.02,0,.02,0h.05s.04,.01,.04,.01l-.06,.09-.03,.03-.03,.03-.07,.05,.02-.02v-.03s.02-.06,.02-.06v-.06s.02-.05,.02-.05Zm-.38-3.25h-.01s-.01,.03-.01,.03h-.01l-.02,.03-.02,.03v.03s-.02,.04-.02,.04l-.02,.07v.24s.02,.14,.02,.14v.15s0,.08,0,.08v.07s-.02,.09-.02,.09l-.02,.09v.08s-.02,.04-.02,.04v.04l-.06,.05-.06,.04-.13,.08-.27,.15-.16,.09-.16,.09-.05,.03-.05,.02-.06,.03-.02,.02-.02,.02v.04s.01,.02,.01,.02v.02s.02,.01,.02,.01l.04,.03,.04,.02h.04s.07,.04,.07,.04l.07,.03,.15,.04,.15,.06,.15,.05,.1,.03,.1,.04,.1,.05,.05,.03,.04,.03h.02s.02,.01,.02,.01l.02,.15,.02,.15,.05,.3,.02,.14,.03,.15,.02,.08,.02,.07,.03,.07,.03,.07v.02s.03,0,.03,0h.04s.03,0,.03,0h.03s.03-.02,.03-.02l.02-.02,.06-.04,.06-.06,.04-.06,.05-.06,.07-.1,.05-.07,.05-.07,.12-.14,.11-.13,.05-.07,.05-.07h.04s.04,.01,.04,.01h.35s.09,.01,.09,.01l.17,.02,.17,.03,.07,.02h.07s.04,.01,.04,.01h.07s.03-.02,.03-.02h.01s.02-.03,.02-.03v-.02s.01-.02,.01-.02v-.02l-.04-.09-.05-.09-.05-.08-.05-.08-.11-.15-.11-.15-.11-.15h-.01s-.1-.15-.1-.15h0s-.01-.03-.01-.03h-.01s0-.02,0-.02h0s0-.03,0-.03h0s.03-.09,.03-.09l.04-.07,.08-.14,.08-.13,.08-.14,.03-.07,.03-.07,.03-.08,.02-.07,.04-.11,.02-.06v-.08s-.03-.01-.03-.01h-.02s-.02-.01-.02-.01h-.06s-.05,.02-.05,.02h-.05s-.16,.07-.16,.07l-.16,.05-.15,.06-.15,.04-.06,.02h-.06s-.06,.02-.06,.02l-.06,.02h0s-.01-.02-.01-.02l-.07-.04-.07-.04-.07-.05-.06-.05-.12-.1-.12-.11-.23-.22-.12-.1-.12-.1h-.05Z"/><path id="Tracé_17006" class="cls-1" d="M35.63,30.41l.11,.11-.02,.03-.02,.03h0s-.04-.08-.04-.08l-.03-.09Zm.16,.15l.04,.04-.02,.03-.02,.03-.02,.03-.02,.04-.04-.07,.03-.04,.02-.03,.02-.03Zm.11,.09l.05,.05h-.02s-.01,.04-.01,.04l-.03,.04-.03,.05-.02,.05-.05-.09,.03-.04,.02-.04,.04-.05,.02-.02Zm.12,.1h0s.04,.04,.04,.04l-.04,.04-.03,.05-.05,.07-.05,.07-.03-.07,.03-.02,.02-.03,.03-.05,.05-.07,.03-.03Zm.11,.1l.05,.05-.11,.14-.05,.07-.03,.04-.02,.04-.05-.1,.03-.02,.03-.02,.05-.06,.06-.09,.04-.04Zm.12,.12l.03,.02-.03,.04-.02,.04-.04,.07-.04,.05-.03,.06-.03,.06-.02,.06-.07-.15,.04-.02,.03-.03,.06-.06,.07-.07,.06-.07Zm1.3-.08l-.03,.04-.02,.04h-.07s.12-.09,.12-.09Zm-2.76,1.06v.04s0,.04,0,.04h0s0,.03,0,.03h-.19l.19-.1Zm.17-.09l-.04,.11v.05s-.07,.02-.07,.02h0s.01-.03,.01-.03v-.03s.02-.04,.02-.04l.02-.04v-.02s.05-.02,.05-.02Zm1.39-.81l.03,.02h0l-.03,.07-.03,.07-.07,.14-.06,.1-.03,.05-.03,.05-.06-.14,.05-.05,.04-.06,.08-.11,.05-.06,.03-.04,.03-.04Zm-1.19,.7v.04s-.02,.07-.02,.07l-.02,.07v.05h-.07s-.06,.03-.06,.03l.02-.04,.05-.11,.02-.05,.07-.04Zm.23-.15l-.02,.04-.02,.04-.02,.08-.03,.1-.02,.05v.05s-.1,.01-.1,.01v-.03s.01-.03,.01-.03v-.05s.02-.06,.02-.06l.02-.05v-.03s.03-.03,.03-.03l.11-.08Zm2-.56h.02s.02,0,.02,0h.05l-.03,.08h-.05s-.04-.01-.04-.01h-.09s.11-.08,.11-.08Zm-1.9,.54l.05,.02,.04,.02h0l-.03,.03-.02,.04-.02,.07-.03,.08v.04s-.01,.04-.01,.04l-.11,.02,.02-.04v-.04s.03-.07,.03-.07l.04-.1,.03-.05,.02-.03v-.03s.01,0,.01,0Zm.14,.07l.08,.04v.05s-.02,.06-.02,.06v.06s0,.02,0,.02v.02s-.14,.01-.14,.01l.02-.05,.02-.04,.02-.08,.02-.04v-.04s.01-.01,.01-.01Zm-.11-1.21v.05s.02,.04,.02,.04l.03,.08,.04,.08,.04,.08,.08,.17,.1,.2,.09,.2,.08,.2,.08,.2-.06-.03-.06-.02-.08-.03-.16-.08-.16-.07-.06-.03h-.03s-.03-.01-.03-.01v-.07s.03-.07,.03-.07l.03-.15v-.07s.01-.07,.01-.07v-.29s-.01-.15-.01-.15v-.16Zm.26,1.29h0l.06,.03v.02s-.02,0-.02,0v.04s-.02,.03-.02,.03v.03s-.08,.01-.08,.01v-.02s.02-.02,.02-.02l.02-.03,.02-.09Zm1.46-.57l.09,.02h.09s-.01,.04-.01,.04l-.02,.04h-.04s-.23,0-.23,0l.12-.1Zm-.79-.05h.02v.02l-.08,.19-.07,.2-.03,.06-.03,.07-.03,.07-.03,.07-.04-.14,.04-.06,.03-.05,.06-.12,.08-.15,.04-.07,.03-.08Zm.09,.03h.12s.12-.03,.12-.03h.08s.07-.04,.07-.04l.14-.05,.15-.05,.16-.05-.14,.12-.13,.11-.28,.21-.33,.24-.09,.07-.1,.07,.05-.15,.08-.21,.04-.11,.04-.11v-.02Zm-.65,.64l.15,.07h0l-.19,.02v-.03s.03-.03,.03-.03v-.03s.01,0,.01,0Zm1.18-.49l.03,.02h.04s.04,.02,.04,.02h.17s-.04,.08-.04,.08h-.04s-.12,0-.12,0h-.22s.15-.11,.15-.11Zm-.18,.13h.02s.03,.03,.03,.03h.06s.06,.02,.06,.02h.06s.06,.01,.06,.01h.07s-.05,.09-.05,.09h-.02s-.02-.02-.02-.02h-.03s-.09,0-.09,0h-.24s-.07,0-.07,0l.16-.11h0Zm-.2,.14h.02s.03,.02,.03,.02l.06,.02h.06s.06,0,.06,0h.25l-.04,.08h-.09s-.09,.01-.09,.01h-.09s-.09-.02-.09-.02l-.11-.02h-.06s-.06,0-.06,0l.15-.09Zm-.41,.35h.2v.03s-.03,.04-.03,.04v.02s-.01,.02-.01,.02l-.16-.11Zm-.07,.17l.03,.07h-.05v-.07s.01,0,.01,0Zm.27-.37l.07,.02,.08,.02,.15,.03h.08s.08,.02,.08,.02h.15s-.02,.04-.02,.04h0s-.26,0-.26,0h-.49s.09-.05,.09-.05l.08-.06Zm.09,.21h.09v.02s-.08,.11-.08,.11v.02s-.03,.03-.03,.03l-.08-.05h0l.02-.03,.02-.03,.02-.03,.03-.02h0Zm-2.04,.19h.17s.17-.04,.17-.04l.06-.02,.05-.02,.06-.02,.06-.02,.25-.03,.19-.03,.19-.02,.38-.03-.17,.19-.18,.18-.15,.15-.04,.05-.02,.03v.03s-.02,0-.02,0l-.07-.05-.08-.05-.09-.04-.09-.03-.18-.06-.08-.03-.09-.03-.06-.02-.07-.02-.12-.04-.06-.03Zm2.22-.21h.14s-.05,.07-.05,.07l-.05,.05-.05,.08-.02,.04-.02,.04-.11-.08h.01s.03-.02,.03-.02l.02-.03,.04-.06,.07-.09h-.02Zm-.57,.3h.05s.05,0,.05,0l.04,.1v.03s-.05-.01-.05-.01h-.06s-.04,0-.04,0h-.03s.03-.13,.03-.13Zm-.04,.16l.03,.02,.04,.02,.07,.02h.05s.06,.01,.06,.01l.04,.11-.08-.02-.08-.02h-.08s-.04,0-.04,0h-.04s.03-.12,.03-.12Zm.86-.46h.06v.03s.02,.03,.02,.03l-.03,.03-.02,.03-.05,.07-.06,.08-.02,.05v.02s0,.02,0,.02h0s0,.01,0,.01h.02s.02-.02,.02-.02l.03-.03,.03-.04,.03-.04,.04-.07,.05-.06,.03,.05,.04,.04-.05,.04-.05,.05-.03,.02-.03,.04-.02,.04v.02s-.01,.02-.01,.02l-.15-.1-.1-.06,.03-.02,.03-.03,.05-.06,.07-.09,.07-.08h0Zm.23,.28l.06,.08h0l-.03,.05-.04,.05-.03,.04-.03,.04h0s-.12-.08-.12-.08h.02s.01-.02,.01-.02l.03-.03,.04-.06,.1-.09Zm-1.12,.33h.04s.05,.02,.05,.02l.08,.04,.04,.02h.04s.05,.02,.05,.02h.05l.06,.16h-.03s-.03-.01-.03-.01l-.05-.02-.1-.04-.06-.02h-.06s-.06,0-.06,0h-.06l.03-.15Zm1.23-.19l.04,.06h-.02s-.01,.04-.01,.04l-.03,.04v.04s-.02,.02-.02,.02v.02l-.1-.07,.04-.03,.04-.04,.04-.04,.03-.05Zm-1.27,.38l.07,.02,.07,.02,.07,.02,.06,.03,.08,.04,.04,.02h.04s-.05,.06-.05,.06h-.03s-.04,0-.04,0h-.06s-.07-.02-.07-.02h-.05s-.05-.03-.05-.03h-.05s-.05-.02-.05-.02l.02-.13Zm-.03,.17l.02,.02h.02s.05,.03,.05,.03l.05,.02h.05s.07,.03,.07,.03h.04s.05,.01,.05,.01l-.06,.07-.08-.02-.08-.02-.07-.03-.06-.02v-.07s.01-.02,.01-.02Zm1.38-.44l.07,.1-.02,.04-.02,.04v.04h0l-.14-.09,.03-.02,.02-.03,.03-.04,.02-.04Zm-1.4,.59l.03,.02,.03,.02,.05,.03,.07,.03,.07,.02-.07,.09h-.16s-.05-.01-.05-.01h-.01l.02-.09,.02-.1Zm1.52-.4l.09,.14-.14-.09h.02s0-.02,0-.02l.02-.04Zm-1.57,.64l.05,.02,.05,.02h.07s-.05,.09-.05,.09h-.02s-.02-.02-.02-.02h-.07s-.03,0-.03,0l.02-.06,.02-.06Zm.38-1.22l.06,.04,.1,.07,.1,.06,.2,.13,.19,.12,.19,.13,.19,.12,.18,.12h-.03l-.17-.03-.17-.02h-.15s-.07,0-.07,0h-.31s0,0,0,0v-.07s-.04-.07-.04-.07l-.02-.06-.03-.07-.06-.13-.06-.13-.09-.22Zm-.23-.03l-.04,.15-.03,.15-.05,.27-.05,.27-.04,.25-.03,.13v.06s-.04,.06-.04,.06l-.02,.07-.02,.07v.07s-.02,.07-.02,.07l-.05-.16-.03-.16-.03-.16-.02-.15-.02-.15-.03-.15-.03-.15h-.01s.04-.01,.04-.01l.04-.02,.04-.03,.04-.03,.06-.07,.05-.05,.15-.15,.14-.16Zm-.21,1.41h.02s.02,0,.02,0h.05s.04,.01,.04,.01l-.06,.09-.03,.03-.03,.03-.07,.05,.02-.02v-.03s.02-.06,.02-.06v-.06s.02-.05,.02-.05Zm-.37-3.25h-.01s-.01,.03-.01,.03h-.01l-.03,.03-.02,.03v.03s-.02,.04-.02,.04l-.02,.07v.24s.02,.14,.02,.14v.15s0,.08,0,.08v.07s-.02,.09-.02,.09l-.02,.09v.08s-.02,.04-.02,.04v.04l-.06,.05-.06,.04-.13,.08-.27,.15-.16,.09-.17,.09-.05,.03-.05,.02-.06,.03-.02,.02-.02,.02v.04s.01,.02,.01,.02v.02s.02,.01,.02,.01l.04,.03,.04,.02h.04s.07,.04,.07,.04l.07,.03,.15,.04,.15,.06,.15,.05,.1,.03,.1,.04,.1,.05,.05,.03,.04,.03h.02s.02,.01,.02,.01l.02,.15,.02,.15,.05,.3,.03,.14,.03,.15,.02,.08,.02,.07,.03,.07,.03,.07v.02s.03,0,.03,0h.04s.03,0,.03,0h.03s.03-.02,.03-.02l.02-.02,.06-.04,.06-.06,.04-.06,.05-.06,.07-.1,.05-.07,.05-.07,.12-.14,.11-.13,.05-.07,.05-.07h.04s.04,.01,.04,.01h.35s.09,.01,.09,.01l.17,.02,.17,.03,.07,.02h.07s.04,.01,.04,.01h.07s.03-.03,.03-.03h.01s.02-.03,.02-.03v-.02s.01-.02,.01-.02v-.02l-.04-.09-.05-.09-.05-.08-.05-.08-.11-.15-.11-.15-.11-.15h-.01s-.1-.15-.1-.15h0s-.01-.03-.01-.03h-.01s0-.02,0-.02h0s0-.03,0-.03h0s.03-.09,.03-.09l.04-.07,.08-.14,.08-.13,.08-.14,.03-.07,.03-.07,.03-.08,.02-.07,.04-.11,.02-.06v-.06h0s-.01-.02-.01-.02h-.02s-.02-.03-.02-.03h-.08s-.05,.02-.05,.02h-.05s-.16,.07-.16,.07l-.16,.05-.15,.06-.15,.04-.06,.02h-.06s-.06,.02-.06,.02l-.06,.02h0s-.01-.02-.01-.02l-.07-.04-.07-.04-.07-.05-.06-.05-.12-.1-.12-.11-.23-.22-.12-.1-.12-.1h-.05Z"/></g></svg>