<?xml version="1.0" encoding="UTF-8"?><svg id="Calque_1" xmlns="http://www.w3.org/2000/svg" viewBox="0 0 173.84 178.2"><g id="Groupe_79"><path id="Tracé_118" d="M81.98,35.53l-.07,.62-.16,.62,.02,.44-.6,.09h0l.07-.16,.08-.44v-.44s-.29-.6-.29-.6l-.37-.6-.46-.6-.47-.5,1.14-.13,1.05-.21-.07,.62,.13,1.31Zm-.99,1.79l-2.45,.26h0l.07-.44-.1-.27-.09-.17-.92-1.2-1.01-1.28-.18-.17,1.84-.06,.09,.09,.37,.6,.45,.51,.74,1.2,.19,.34,.27,.25,.62,.33h.1Zm-3.85,.41l-1.05,.05-.37-.6-.37-.52-1.01-1.11-.55-.69-.55-.68,1.32-.04h.35l.19,.52,.27,.52,.65,.86,.82,1.2,.29,.49Zm-2.8,.19l-1.67-.04h-.44s-.82-1.19-.82-1.19l-.92-1.2-.38-.69-.55-.51,2.1-.07,.27,.52,.37,.6,.82,.94,1.19,1.63Zm-3.69-.05l-1.5-.04-.27-.43-.36-.43-.82-.85-.82-.94-.45-.42-.55-.34,2.73-.09,.1,.44,.19,.43,.65,.94,1.1,1.72Zm-3.34-.07l-2.11-.02,.08-.27v-.35l-.1-.27-.46-.6-.46-.6-.55-.42-.9-.76,2.37-.08,.11,.61,.27,.52,.37,.52,.37,.43,1,1.3Zm-3.34-.06l-2.11-.02-.82-.76-.82-.85-.64-.59-.63-.59,2.28-.25,.37,.43,.36,.43,.72,.68,.46,.42,.45,.51,.38,.6Zm-4.22-.04l-1.76-.03-.27-.35-.27-.25-.46-.51-.55-.42-.63-.42-.63-.42,2.62-.27,.19,.43,.2,.52,.73,.77,.82,.95Zm-3.69-.05h-2.19l-.19-.43-.27-.34-.64-.77-.55-.51,2.45-.26,.38,.95,.64,.86,.36,.5Zm-4.04-.04l-2.73,.09-.45-.51-.92-1.11,2.88-.36,.27,.52,.27,.52,.67,.86Zm-4.47,.15l-1.67,.05-.55-.51-.55-.51-.36-.25-.45-.25,2.89-.19h.18v.44s.11,.44,.11,.44l.19,.34,.19,.43Zm-3.68,.12l-1.75,.06-1-1.02-.55-.51,2.28-.08,.37,.69,.55,.69,.1,.17Zm-3.68,.13l-2.55,.08-.27-.35-.19-.26-.55-.59-.55-.51h2.81l.27,.43,.37,.43,.65,.76Zm-4.39,.14l-1.14,.04-.19-.26-.82-.85-.9-.76,1.4,.04,.27,.43,.36,.34,.73,.77,.28,.25Zm-2.98,0h-.18l-1.23-.04-.45-.51-.55-.51-1.09-.84h0l2.55,.09-.08,.18-.08,.18v.27l.18,.17,.94,1.02Zm-3.16-.07l-2.47-.18-.27-.43-.37-.43-.72-.68-.45-.34h0l3,.16,.19,.52,.37,.52,.72,.86Zm57.84,18.33l.1,5.45-.08,5.45c.09,4.83,.03,9.92-.25,15.26-.14,2.7-.32,5.32-.55,7.88l-11.84,.55h-2.81l-2.89,.19-2.8,.18-2.81,.09-6.84,.14-3.42,.02-3.51,.12-6.83,.41-6.92,.41-3.25,.02-3.33,.11-3.07,.1-1.49-.04-1.59-.13-.13-1.31-.13-1.22-.44-13.07-.17-7.9-.08-7.54-.08-7.63-.13-3.86-.31-3.85-.08-2.45-.13-1.22-.22-1.22,.17-.18,.26-.18,.08-.27v-.27l.69-.29,.7-.11,.27,.08h.27l.27-.1,.26-.18,1.49-.05,1.4-.05,3.16,.07,3.08,.07h.65s.18,.17,.18,.17l.27,.08,.17-.09,.26-.19,6.58-.22,.27,.25,.35,.07h.27l.17-.09,.17-.27,5.79-.19,.18,.08,.18,.08,.17-.1,.27-.1h2.9l9.65-.06,4.74,.02,4.83,.1,2.11,.02,2.1-.07,2.1-.16,2.18-.25,1.93-.15,1.91-.24,1.31-.31,.61-.11,.7-.11-.12,1.58,.05,1.58,.2,3.15,.47,6.04,.19,3.06,.19,2.95ZM25.28,37.96l-1.58,.14-.72-.59-.72-.59-.55-.42-.55-.34-.71-.15-.61,.02h-.09v.17l.37,.69,.55,.59,1.26,1.09-.69,.29-.6,.27-1.17-.84-1.43-.92-1.43-.83,.87-.29,.79-.11,1.75-.23,1.84-.06,1.75,.03,.27,.43,.27,.43,.64,.68,.49,.54Zm-3.88,51.83l-.71-.06-.7,.02-1.49,.14-.22-1.31h0l.8,.24,1.15,.31,.53,.07,.61-.02,.02,.61Zm-.05-1.4l-.27-.25-.36-.16-.62-.24-1.24-.49-.89-.41-.11-.87h0l1.06,.31,.71,.15,.8,.15,.53,.07,.27-.1,.14,1.84Zm-.46-19.03l-.89-.41-.97-.32-.98-.23-.88-.15-.05-1.49,.89,.32,.71,.15,1.07,.49,.62,.15,.27,.08,.17-.1,.05,1.49Zm.03,3.6l-.82-.59-.9-.58-.55-.25-.44-.16-.55-.16h-.44s-.04-1.3-.04-1.3h.35l.88,.23,.8,.24,.71,.33,.45,.16,.44,.07,.1,2.01Zm-.03-6.06l-.45-.34-.44-.25-.72-.41-.8-.24-.71-.33-.35-.07-.35-.17-.15-1.75,.53,.07,.8,.24,.89,.32,.71,.42,.55,.25,.45,.16,.06,2.1Zm.04,6.58l-.08,.27,.08,2.28-.55-.42-.55-.34-1.07-.49-.71-.24-.44-.07-.36-.08v-.35l.04-1.58,.88,.15,.89,.23,1.87,.63Zm.24,12.37l-.27-.17-.72-.42-.62-.24-.8-.32-.8-.32-.27-.17-.16-1.93,.8,.32,.71,.33,1.07,.4,.18,.08h.72l.09,.09,.07,2.34Zm-.27-24.13l-.03,1.93-.45-.42-.55-.25-.8-.41-1.07-.49-.62-.16-.53,.02-.17-2.54,.55,.25,.55,.25,.99,.67,1.09,.67,.55,.25,.5,.24Zm.08,15.62l-.02,2.02-.36-.25-.36-.25-.89-.32-1.06-.23-1-.22v-2.2l.53,.07,.55,.25,.9,.5,.71,.32,.45,.16,.55,.14Zm.11,5.79l-.19-.34-.27-.34-.55-.42-.55-.42-1.07-.49-1.06-.31-.04-1.23,1.15,.22,1.16,.31,1.23,.31h.09l.1,2.72Zm-.21-24.48l-.03,1.84-.45-.42-.46-.43-1.08-.67-1.16-.57-1.15-.31-.04-1.14,.55,.16,.55,.16,.62,.07,.55,.25,1.07,.49,1.04,.58Zm-.05-1.58l-.89-.5-.8-.33-.62-.24-.71-.33-.71-.15h-.35l-.35,.1-.27-3.06,.89,.41,.89,.41,1.52,.82,.62,.33,.36,.25h.17l.17-.09,.07,2.38Zm-.11-3.25l-.63-.59-.63-.42-1.43-.74-.98-.49-.55-.25h-.44s-.24-1.89-.24-1.89l.27,.08,.89,.32,.89,.32,1.25,.66,.36,.16,.27,.08h.35l.35-.1v-.44s-.29-.34-.29-.34l-.27-.34-.45-.34-.82-.5-.81-.35-.98-.49-.55-.16-.62-.07-.14-1.58,.53,.07,.89,.23,.8,.32,1.43,.65,1.34,.74,.2,5.43Zm-.7-13.05l-.05,1.14,.04,1.23-1.26-.93-1.35-.92-1.25-.66-.55-.25-.44-.16v-.35l.04-1.23,.04-1.23,1.17,.93,1.16,.75,1.26,.83,1.17,.84Zm.48,6.57l-.46-.43-.55-.42-1.16-.57-.62-.33-.71-.33-.79-.14-.35-.08h-.44s-.3-3.4-.3-3.4l.99,.67,.72,.42,1.79,1.09,.9,.67,.36,.34,.36,.34,.26,2.18Zm68.65,8.41l-.19-3.06-.19-3.07-.55-6.04-.32-4.2-.02-.7-.2-.69,.08-.18,.08-.27-.1-.27-.18-.17-.46-.14-.44-.16-.88-.06-1.05,.04-.96,.2,.07-.62-.02-.61-.13-1.14-.02-.61-.11-.7-.1-.35-.18-.26-.18-.17-.35-.08h-.27l-.88-.06-.88-.06h-1.92s-3.68,.2-3.68,.2l-4.39,.06-4.3,.06-2.45,.17-2.45,.08-4.91,.43-4.91,.52-4.91,.52-2.28,.16-2.28,.08-4.56-.02-4.57-.02-4.57-.11-3.34-.24-1.67-.03-1.67-.12-1.75,.06-1.66,.14-1.57,.32-.78,.2-.76,.28-.34,.27-.17,.27-.07,.35,.1,.35-.35,.1-.35,.19-.16,.27-.24,.38-.23,.89-.14,1.06-.05,1.05,.04,1.05,.13,1.4,.19,3.15,.27,3.15,.55,6.22,.33,4.55,.33,4.63,.15,4.56,.07,4.65,.08,4.83-.08,.35v.35l.09,.17,.1,2.81,.27,2.89,.36,2.79,.53,2.79,.1,.27,.09,.17,.1,.44,.19,.35,.36,.25h.45l.87-.11,.87-.11,.87-.21,.87-.03,.23,1.75,.19,.34,.27,.34,.27,.17,.27,.17,1.5,.21,1.5,.12,1.5,.04,1.49-.05,3.07-.1,2.98-.1,3.59-.21,3.59-.12,7.27-.51,3.6-.12,3.59-.12,7.19-.07,3.42-.11,3.51-.03,1.75-.14,1.66-.23,1.75-.23,7.54-.18c1.85,.33,3.74-.23,5.11-1.51,.56-.74,.66-1.57,.5-5.39-.09-2.14-.21-3.98-.32-5.38l.72-12.58-.02-5.88-.09-5.91Z" fill="#fff" fill-rule="evenodd"/><path id="Tracé_119" d="M98.18,33.71l-.07-.62,1.05,.21,1.14,.13-.46,.51-.46,.6-.37,.6-.27,.6-.02,.44,.08,.44,.07,.16h0l-.6-.09v-.44s-.14-.62-.14-.62l-.07-.62,.12-1.32Zm.95,3.1l.62-.33,.27-.25,.19-.34,.74-1.2,.46-.51,.37-.6,.09-.09,1.84,.06-.18,.17-1.01,1.28-.92,1.2-.09,.17-.1,.27,.07,.44h0l-2.45-.26h.09Zm4.04-.14l.82-1.2,.65-.86,.27-.52,.19-.52h.35l1.32,.04-.55,.68-.55,.69-1,1.11-.37,.52-.37,.6-1.05-.04,.29-.5Zm3.72-.93l.82-.94,.37-.6,.27-.52,2.1,.07-.55,.51-.38,.69-.92,1.2-.83,1.2h-.44s-1.67,.02-1.67,.02l1.21-1.63Zm3.61-.14l.64-.94,.19-.43,.1-.44,2.73,.09-.55,.34-.46,.42-.82,.94-.82,.85-.37,.43-.27,.43-1.49,.04,1.11-1.72Zm3.23,.37l.37-.43,.37-.52,.27-.52,.11-.61,2.37,.08-.9,.76-.55,.42-.46,.6-.46,.6-.1,.27v.35l.08,.27-2.11,.02,1-1.3Zm2.7,.62l.45-.51,.46-.42,.72-.68,.36-.43,.36-.43,2.28,.25-.63,.59-.64,.59-.82,.85-.82,.76-2.11,.02,.38-.6Zm4.66-.37l.73-.77,.19-.52,.19-.43,2.63,.27-.63,.42-.63,.42-.55,.42-.46,.51-.27,.25-.27,.35-1.76,.03,.82-.95Zm3.24,.37l.64-.86,.38-.95,2.45,.26-.55,.51-.64,.77-.27,.34-.19,.43h-2.19l.36-.5Zm4.31-.38l.27-.52,.27-.52,2.88,.36-.92,1.11-.46,.51-2.73-.09,.67-.86Zm4.02,.57l.19-.34,.1-.44v-.44h.19l2.89,.19-.45,.25-.36,.25-.55,.51-.55,.51-1.67-.05,.19-.43Zm3.59,.38l.55-.69,.36-.69,2.28,.08-.55,.51-1,1.02-1.75-.06,.11-.17Zm4.23-.47l.37-.43,.27-.43h2.81l-.55,.51-.55,.59-.19,.26-.27,.35-2.55-.08,.65-.76Zm4.02,.66l.73-.77,.36-.34,.27-.43,1.41-.04-.9,.76-.82,.85-.19,.26-1.14-.04,.28-.25Zm3.62-.76l.18-.17v-.27l-.08-.18-.08-.18,2.55-.09h0l-1.09,.84-.55,.51-.46,.51-1.23,.04h-.18l.93-1.02Zm2.98,.1l.37-.52,.2-.52,3-.16h0l-.45,.34-.72,.68-.36,.43-.27,.43-2.45,.18,.7-.86Zm-58.4,16.21l.19-3.06,.47-6.04,.2-3.16,.05-1.58-.13-1.58,.7,.11,.61,.11,1.31,.31,1.92,.24,1.93,.15,2.18,.25,2.1,.16,2.1,.07,2.11-.02,4.83-.1,4.74-.02,9.65,.06h2.9l.27,.1,.17,.1,.18-.08,.18-.08,5.79,.19,.17,.27,.17,.09h.27l.35-.07,.27-.26,6.58,.22,.26,.19,.17,.09,.27-.08,.18-.17,.7,.02,3.08-.07,3.16-.07,1.4,.05,1.49,.05,.26,.18,.27,.1h.27l.27-.08,.7,.11,.69,.29v.27l.08,.27,.26,.18,.17,.18-.22,1.22-.13,1.22-.08,2.45-.31,3.85-.13,3.86-.08,7.63-.08,7.54-.17,7.9-.44,13.07-.13,1.22-.13,1.31-1.58,.13-1.5,.04-3.07-.1-3.33-.11h-3.31s-6.92-.41-6.92-.41l-6.83-.41-3.51-.12-3.42-.02-6.84-.14-2.81-.09-2.8-.18-2.89-.19h-2.81l-11.84-.55c-.23-2.55-.41-5.18-.55-7.88-.27-5.33-.34-10.42-.25-15.26l-.08-5.45,.1-5.45,.18-2.97Zm62.5-15.99l.64-.68,.27-.43,.27-.43,1.75-.03,1.84,.06,1.75,.23,.79,.11,.87,.29-1.43,.83-1.43,.92-1.17,.84-.6-.27-.69-.27,1.27-1.09,.55-.59,.37-.69v-.17h-.09l-.59-.08-.71,.15-.55,.34-.55,.42-.72,.59-.72,.59-1.58-.14,.46-.49Zm3.45,51.72l.61,.02,.53-.07,1.16-.31,.8-.24h0l-.22,1.31-1.49-.14-.7-.02-.71,.06,.02-.61Zm.17-2.63l.27,.1,.53-.07,.8-.15,.71-.15,1.06-.31h0l-.11,.87-.89,.41-1.24,.49-.62,.24-.35,.16-.27,.25,.13-1.84Zm.36-18.68l.17,.1,.27-.08,.62-.15,1.07-.49,.71-.15,.89-.32-.05,1.49-.88,.15-.97,.23-.98,.32-.89,.41,.05-1.49Zm0,3.07l.44-.07,.45-.16,.71-.33,.8-.24,.89-.23h.35l-.04,1.32h-.44s-.55,.14-.55,.14l-.45,.16-.55,.25-.9,.58-.82,.59,.1-2.01Zm.03-6.14l.45-.16,.55-.25,.71-.42,.89-.32,.8-.24,.53-.07-.15,1.75-.35,.17-.35,.07-.71,.33-.8,.24-.72,.41-.44,.25-.45,.34,.06-2.1Zm1.75,8.04l.88-.23,.88-.15,.04,1.58v.35l-.36,.08-.44,.07-.71,.24-1.07,.49-.55,.34-.55,.42,.08-2.28-.08-.27,1.87-.63Zm-2.03,10.64l.09-.09h.72l.18-.08,1.07-.4,.68-.31,.8-.32-.16,1.93-.27,.17-.8,.32-.8,.32-.62,.24-.72,.42-.27,.17,.1-2.36Zm.74-22.01l.55-.25,1.07-.67,.99-.67,.55-.25,.55-.25-.17,2.54-.53-.02-.62,.16-1.07,.49-.8,.41-.55,.25-.45,.42-.02-1.93,.51-.24Zm-.08,15.71l.44-.16,.71-.33,.9-.5,.55-.25,.53-.07v2.2l-.98,.23-1.06,.23-.89,.32-.36,.25-.36,.25-.02-2.02,.54-.16Zm-.55,3.23h.09l1.24-.31,1.16-.31,1.15-.22-.04,1.23-1.06,.31-1.07,.49-.55,.42-.55,.42-.27,.34-.19,.34,.1-2.72Zm1.19-22.35l1.07-.49,.55-.25,.62-.07,.55-.16,.55-.16-.04,1.14-1.15,.31-1.16,.57-1.08,.67-.46,.43-.46,.42-.02-1.84,1.04-.58Zm-.94-3.37l.17,.09h.17l.36-.25,.62-.33,1.52-.82,.89-.41,.89-.41-.27,3.06-.35-.1h-.35l-.71,.15-.71,.33-.62,.24-.8,.33-.89,.5,.07-2.38Zm.21-6.31l1.34-.74,1.43-.65,.8-.32,.89-.23,.53-.07-.14,1.58-.62,.07-.53,.16-.98,.49-.8,.33-.82,.5-.45,.34-.27,.34-.27,.34v.44s.33,.1,.33,.1h.35l.27-.08,.36-.16,1.25-.66,.89-.32,.89-.32,.27-.08-.24,1.91h-.44s-.55,.23-.55,.23l-.98,.49-1.43,.74-.63,.42-.63,.59,.18-5.41Zm1.69-8.45l1.26-.83,1.17-.75,1.17-.93,.05,1.23,.04,1.23v.35l-.47,.15-.55,.25-1.25,.66-1.35,.92-1.26,.93,.04-1.23-.05-1.14,1.2-.83Zm-1.42,5.21l.36-.34,.36-.34,.9-.67,1.79-1.09,.72-.42,.99-.67-.29,3.41h-.44s-.35,.07-.35,.07l-.79,.15-.71,.33-.62,.34-1.16,.57-.55,.42-.45,.43,.25-2.19Zm-69.01,16.47l-.02,5.88c.24,4.19,.48,8.38,.72,12.58-.11,1.4-.23,3.23-.32,5.38-.16,3.82-.06,4.65,.5,5.39,1.37,1.28,3.26,1.83,5.11,1.51l7.54,.18,1.74,.23,1.66,.23,1.75,.14,3.51,.03,3.42,.11,7.19,.06,3.59,.12,3.6,.12,7.27,.51,3.59,.12,3.59,.21,2.98,.1,3.07,.1,1.49,.05,1.49-.04,1.5-.12,1.5-.21,.27-.17,.27-.17,.27-.34,.19-.34,.24-1.75,.87,.03,.87,.21,.88,.11,.87,.11h.45l.36-.25,.19-.35,.1-.44,.09-.17,.1-.27,.52-2.75,.36-2.79,.27-2.89,.09-2.81,.09-.17v-.35l-.08-.35,.08-4.83,.07-4.65,.15-4.56,.33-4.63,.33-4.55,.56-6.22,.27-3.15,.19-3.15,.13-1.4,.04-1.05-.05-1.05-.14-1.06-.23-.89-.25-.36-.16-.27-.35-.19-.35-.1,.1-.35-.08-.35-.17-.27-.34-.27-.78-.29-.78-.2-1.57-.32-1.66-.14-1.75-.06-1.67,.12-1.67,.03-3.34,.24-4.57,.11-4.57,.02-4.56,.02-2.28-.08-2.28-.16-4.91-.52-4.91-.52-4.91-.43-2.45-.08-2.45-.17-4.3-.06-4.39-.06-3.68-.21-1.93,.02-.88,.06-.88,.06h-.27l-.35,.07-.18,.17-.18,.26-.05,.31-.11,.7-.02,.61-.13,1.14-.02,.61,.07,.62-.96-.2-1.05-.04-.88,.06-.44,.16-.44,.16-.18,.17-.1,.27,.08,.27,.08,.18-.2,.69-.02,.7-.32,4.2-.55,6.04-.19,3.07-.19,3.06-.12,5.86Z" fill="#fff" fill-rule="evenodd"/><path id="Tracé_120" d="M99.4,152.95l.08-.61,.15-.62v-.44l.55-.08h0l-.07,.16-.08,.44v.44l.25,.61,.33,.61,.4,.61,.41,.52-1.03,.1-.95,.19,.07-.62-.1-1.32Zm.94-1.76l2.23-.2h0l-.07,.44,.08,.27,.08,.17,.82,1.22,.89,1.31,.16,.17-1.67,.02-.08-.09-.33-.61-.4-.52-.65-1.22-.16-.35-.24-.27-.56-.34h-.08Zm3.5-.3h.96l.33,.61,.32,.52,.89,1.13,.49,.7,.49,.7h-1.52l-.16-.52-.25-.52-.57-.87-.73-1.22-.24-.52Zm2.55-.12l1.52,.07h.4l.73,1.22,.82,1.22,.33,.7,.49,.52-1.91,.02-.25-.52-.33-.61-.73-.95-1.07-1.66Zm3.35,.14l1.36,.07,.24,.44,.32,.44,.73,.87,.73,.96,.41,.43,.48,.35-2.47,.03-.08-.44-.17-.44-.57-.96-.98-1.74Zm3.03,.14l1.91,.06-.08,.27v.35l.08,.27,.4,.61,.41,.61,.48,.43,.82,.78-2.15,.02-.09-.62-.25-.52-.32-.52-.33-.43-.89-1.32Zm3.03,.14l1.91,.07,.72,.78,.73,.87,.57,.6,.56,.61-2.07,.2-.32-.43-.32-.44-.65-.69-.4-.43-.4-.52-.32-.61Zm3.82,.13l1.6,.07,.25,.35,.24,.27,.41,.52,.48,.43,.56,.43,.56,.43-2.39,.2-.16-.43-.17-.52-.65-.78-.73-.98Zm3.35,.14l1.99,.06,.17,.44,.24,.35,.57,.78,.49,.52-2.23,.2-.33-.96-.57-.87-.33-.52Zm3.67,.13l2.47-.03,.4,.52,.82,1.13-2.63,.29-.25-.52-.25-.52-.57-.87Zm4.06-.05l1.52-.02,.49,.52,.49,.52,.32,.26,.4,.26-2.63,.12h-.16v-.44l-.08-.44-.16-.35-.17-.43Zm3.35-.04l1.59-.02,.89,1.04,.48,.52-2.07,.02-.33-.69-.49-.7-.08-.17Zm3.35-.04l2.31-.03,.24,.35,.16,.27,.49,.61,.48,.52-2.55-.06-.25-.44-.32-.44-.57-.8Zm3.99-.05h1.04l.16,.27,.73,.87,.82,.78-1.28-.08-.25-.43-.32-.35-.65-.78-.25-.28Zm2.71,.06h.16l1.12,.07,.4,.52,.48,.52,.97,.86h0l-2.31-.15,.08-.18,.08-.18v-.27l-.16-.17-.81-1.03Zm2.87,.14l2.24,.24,.25,.44,.32,.44,.64,.69,.4,.35h0l-2.71-.23-.17-.52-.32-.52-.65-.87Zm-52.19-19.65v-5.45s.19-5.45,.19-5.45c0-4.83,.16-9.92,.51-15.24,.18-2.69,.4-5.31,.65-7.86l10.76-.27,2.55,.06,2.63-.12,2.55-.12,2.55-.03h6.21l3.11,.05,3.19-.04,6.21-.25,6.29-.25,2.95,.05,3.03-.04,2.79-.03,1.36,.07,1.44,.16,.09,1.32,.1,1.22,.16,13.08v7.9l-.07,7.54-.07,7.63,.04,3.86,.21,3.86,.03,2.45,.09,1.23,.17,1.23-.16,.18-.24,.18-.08,.27v.27l-.63,.27-.64,.1-.24-.09h-.24l-.24,.09-.24,.18-1.36,.02h-1.28s-2.87-.13-2.87-.13l-2.79-.14h-.64l-.16-.17-.24-.08-.16,.09-.24,.18-5.98,.07-.24-.27-.32-.08h-.24l-.16,.09-.16,.27-5.26,.06-.16-.08-.16-.09-.16,.09-.24,.09-2.63-.05-8.77-.16-4.31-.13-4.38-.21-1.91-.06-1.91,.02-1.91,.11-1.99,.2-1.75,.11-1.75,.2-1.19,.27-.55,.09-.64,.09,.14-1.58-.02-1.58-.12-3.16-.31-6.05-.11-3.07-.13-2.96Zm56.18,19.87l1.43-.1,.64,.6,.65,.61,.48,.43,.48,.35,.64,.17h.62v-.17l-.32-.7-.49-.6-1.1-1.15,.63-.27,.55-.27,1.05,.87,1.28,.95,1.28,.86-.79,.27-.72,.1-1.59,.2-1.67,.02-1.59-.07-.25-.43-.25-.44-.57-.69-.41-.51Zm4.49-51.72l.64,.08h.63l1.36-.1,.17,1.31h0l-.72-.25-1.04-.34-.48-.08h-.55l-.03-.61Zm.02,1.4l.24,.27,.32,.17,.56,.26,1.12,.52,.82,.43,.09,.88h0l-.96-.34-.64-.17-.72-.16-.48-.08-.24,.09-.12-1.86Zm.06,19.04l.8,.43,.88,.34,.88,.25,.8,.17,.02,1.49-.8-.34-.64-.17-.96-.52-.56-.17-.24-.09-.16,.09-.02-1.49Zm.04-3.6l.72,.61,.8,.6,.48,.26,.4,.17,.48,.17h.4l.02,1.32h-.32l-.8-.25-.72-.26-.64-.34-.4-.17-.4-.08-.03-2.01Zm-.09,6.05l.4,.35,.4,.26,.65,.43,.72,.25,.64,.35,.32,.08,.32,.17,.1,1.75-.48-.08-.72-.25-.8-.34-.64-.43-.48-.26-.4-.17-.03-2.1Zm.08-6.58l.08-.27-.03-2.28,.48,.43,.48,.35,.96,.52,.64,.26,.4,.08,.32,.08v.35l-.06,1.58-.8-.17-.8-.25-1.68-.68Zm0-12.37l.24,.17,.64,.43,.56,.26,.72,.34,.72,.34,.24,.17,.1,1.93-.72-.34-.64-.34-.96-.43-.16-.08h-.63l-.08-.09-.03-2.36Zm-.19,24.13l.06-1.93,.4,.43,.48,.26,.72,.43,.96,.52,.56,.17h.48l.11,2.54-.48-.26-.48-.26-.89-.69-.96-.69-.48-.26-.48-.26Zm.22-15.62l.05-2.02,.32,.26,.32,.27,.8,.34,.96,.25,.88,.25-.05,2.2-.48-.08-.48-.26-.82-.52-.64-.34-.4-.17-.47-.18Zm0-5.79l.16,.35,.24,.35,.48,.43,.48,.43,.96,.52,.96,.34v1.23s-1.02-.25-1.02-.25l-1.04-.34-1.12-.34h-.08l-.03-2.72Zm-.27,24.48l.06-1.84,.4,.43,.41,.43,.96,.69,1.04,.6,1.04,.34v1.14l-.48-.17-.48-.17-.55-.08-.48-.26-.96-.52-.96-.6Zm.02,1.58l.8,.52,.72,.35,.56,.26,.64,.34,.64,.17h.32l.32-.09,.19,3.07-.8-.43-.8-.43-1.36-.86-.56-.34-.32-.26h-.16l-.16,.09-.03-2.38Zm.04,3.25l.56,.6,.56,.43,1.28,.77,.89,.52,.48,.26h.4l.18,1.93-.24-.08-.8-.34-.82-.34-1.12-.69-.32-.17-.24-.09h-.32l-.32,.09v.44l.25,.35,.24,.35,.4,.35,.72,.52,.72,.35,.89,.52,.48,.17,.55,.08,.1,1.58-.48-.08-.8-.25-.72-.34-1.28-.69-1.2-.77-.04-5.44Zm.39,13.07l.07-1.14v-1.23s1.11,.95,1.11,.95l1.21,.95,1.13,.69,.48,.26,.4,.17v.35l-.06,1.23-.07,1.23-1.05-.95-1.04-.78-1.13-.86-1.04-.87Zm-.32-6.58l.4,.44,.48,.43,1.04,.6,.56,.34,.64,.35,.72,.16,.32,.09h.4l.2,3.42-.89-.69-.64-.43-1.61-1.12-.82-.69-.32-.35-.32-.35-.18-2.2Zm-62.16-9.97l.12,3.07,.11,3.07,.39,6.05,.21,4.21v.7l.17,.7-.08,.18-.08,.27,.08,.27,.16,.17,.4,.17,.4,.17,.8,.08h.96l.87-.18-.07,.61v.61l.09,1.14v.61l.09,.7,.08,.35,.16,.27,.16,.18,.32,.08h.24l.8,.08,.8,.08,1.75,.07,3.35-.13,3.99,.04,3.9,.04,2.23-.11,2.23-.03,4.46-.31,4.46-.4,4.46-.41,2.07-.11,2.07-.02,4.14,.13,4.15,.13,4.14,.22,3.03,.32,1.52,.07,1.52,.16,1.59-.02,1.51-.11,1.43-.27,.72-.18,.71-.27,.32-.27,.16-.27,.07-.35-.08-.35,.32-.09,.32-.18,.16-.27,.23-.35,.23-.88,.15-1.05,.07-1.05v-1.05l-.1-1.4-.12-3.16-.2-3.16-.39-6.22-.21-4.56-.22-4.63-.05-4.56,.03-4.65,.02-4.83,.08-.35v-.35l-.08-.17-.03-2.81-.2-2.89-.27-2.8-.43-2.8-.08-.27-.08-.17-.06-.47-.16-.35-.32-.27h-.4l-.8,.1-.8,.1-.79,.19h-.8l-.18-1.75-.16-.35-.24-.35-.24-.17-.24-.17-1.36-.25-1.36-.16-1.36-.07-1.36,.02-2.77,.06-2.71,.03-3.27,.13-3.27,.04-6.61,.34-3.27,.04-3.27,.04-6.54-.1-3.11,.04-3.19-.05-1.59,.11-1.52,.19-1.59,.19h-6.85c-1.69-.36-3.45,.16-4.67,1.39-.52,.72-.63,1.55-.55,5.37,.04,2.15,.12,3.98,.19,5.38-.3,4.18-.59,8.36-.89,12.55l-.09,5.88v5.89Z" fill="#fff" fill-rule="evenodd"/><path id="Tracé_121" d="M85.16,153.09l.11,.61-1.03-.13-1.11-.04,.4-.55,.4-.63,.32-.63,.23-.62-.02-.44-.11-.44-.08-.15h0l.59,.04,.02,.44,.2,.6,.11,.61-.03,1.32Zm-1.15-3.02l-.58,.38-.24,.27-.16,.36-.63,1.26-.4,.55-.32,.63-.08,.09-1.78,.08,.16-.18,.88-1.36,.8-1.27,.08-.18,.07-.27-.1-.44h0l2.38,.07-.09,.02Zm-3.89,.44l-.71,1.26-.56,.91-.23,.55-.14,.55-.34,.02-1.27,.06,.48-.72,.48-.72,.89-1.18,.32-.55,.32-.63,1.02-.05-.24,.52Zm-3.52,1.21l-.72,.99-.31,.63-.23,.55-2.04,.09,.49-.55,.31-.72,.8-1.27,.71-1.26,.43-.02,1.61-.16-1.03,1.71Zm-3.47,.42l-.55,.99-.15,.45-.07,.44-2.63,.12,.49-.38,.41-.46,.72-1,.72-.91,.32-.46,.24-.45,1.44-.15-.95,1.8Zm-3.15-.12l-.32,.45-.32,.55-.23,.55-.06,.62-2.29,.1,.82-.82,.49-.46,.4-.63,.4-.63,.08-.27v-.35s-.13-.26-.13-.26l2.03-.18-.86,1.35Zm-2.65-.41l-.4,.55-.41,.46-.65,.73-.32,.46-.32,.45-2.22-.07,.57-.64,.57-.64,.72-.91,.73-.82,2.03-.18-.31,.63Zm-4.47,.73l-.65,.82-.15,.55-.15,.44-2.55-.06,.57-.47,.57-.47,.49-.46,.4-.55,.25-.27,.24-.37,1.7-.16-.73,.99Zm-3.15-.12l-.55,.9-.3,.98-2.38-.07,.49-.55,.55-.82,.24-.36,.15-.45,2.11-.18-.31,.54Zm-4.14,.71l-.23,.55-.23,.55-2.81-.14,.8-1.18,.4-.55,2.63-.12-.56,.89Zm-3.92-.27l-.16,.36-.07,.44,.02,.44h-.17l-2.8,.04,.41-.27,.33-.27,.49-.55,.49-.55,1.61-.07-.15,.43Zm-3.49-.11l-.48,.72-.31,.71-2.21,.1,.49-.55,.89-1.09,1.7-.08-.08,.17Zm-4.05,.8l-.32,.46-.23,.45-2.73,.21,.49-.55,.48-.64,.16-.27,.24-.37,2.45-.11-.55,.81Zm-3.92-.35l-.65,.82-.32,.37-.24,.45-1.36,.15,.82-.82,.72-.91,.16-.27,1.09-.05-.22,.27Zm-3.44,1.04l-.16,.18v.27l.09,.17,.09,.17-2.45,.27h0l.98-.92,.49-.55,.4-.55,1.19-.14h.17l-.79,1.08Zm-2.88,.13l-.32,.55-.15,.55-2.87,.4h0l.41-.37,.65-.73,.32-.46,.23-.45,2.37-.37-.64,.89Zm55.14-20.68l.05,3.07v6.06l.05,3.16,.07,1.58,.24,1.57-.68-.06-.6-.06-1.28-.2-1.87-.09h-1.87l-2.13-.08h-2.04l-2.04,.09-2.03,.18-4.65,.47-4.58,.38-9.32,.69-2.8,.21-.26-.08-.17-.08-.17,.1-.16,.09-5.6,.25-.18-.26-.17-.08h-.26l-.33,.1-.24,.27-6.38,.34-.27-.16-.17-.08-.25,.1-.16,.18-.68,.03-2.96,.31-3.05,.31-1.36,.06-1.44,.07-.27-.16-.26-.08h-.25l-.25,.1-.68-.06-.69-.23v-.27l-.1-.26-.27-.16-.18-.17,.12-1.23,.03-1.23-.1-2.45v-3.86l-.16-3.86-.5-7.63-.49-7.53-.42-7.88-.55-13.06,.04-1.23,.03-1.32,1.52-.25,1.44-.15,2.97-.14,3.23-.15,3.13-.23,6.71-.13,6.63-.13,3.4-.16,3.31-.24,6.61-.39,2.73-.13,2.73-.04,2.8-.04,2.71-.21,11.47-.36c.41,2.53,.78,5.13,1.12,7.81,.66,5.29,1.11,10.36,1.38,15.19l.49,5.42,.32,5.43,.06,2.99Zm-59.13,20.77l-.57,.73-.24,.45-.23,.45-1.69,.17-1.78,.08-1.71-.1-.77-.05-.86-.23,1.32-.94,1.32-1.02,1.07-.93,.6,.24,.69,.23-1.14,1.2-.48,.63-.31,.72v.17h.08l.59-.03,.67-.2,.5-.38,.49-.46,.65-.65,.65-.64,1.53,.02-.39,.55Zm-7.2-51.3l-.59,.03-.51,.11-1.09,.4-.75,.3h0l.11-1.32,1.45,.02,.68-.03,.68-.12,.03,.61Zm.03,2.64l-.26-.08-.5,.11-.76,.21-.67,.21-1,.4h0l.05-.88,.83-.47,1.16-.58,.59-.29,.33-.19,.25-.27v1.84Zm1.04,18.66l-.17-.08-.25,.1-.59,.2-.99,.57-.67,.21-.83,.39-.06-1.49,.84-.22,.92-.31,.92-.39,.83-.48,.07,1.49Zm-.22-3.07l-.42,.11-.42,.2-.66,.38-.75,.3-.84,.3-.34,.02-.05-1.32,.42-.02,.5-.2,.42-.2,.5-.27,.82-.65,.74-.65,.09,2.01Zm.43,6.13l-.42,.2-.5,.27-.66,.47-.84,.39-.75,.3-.5,.11v-1.75l.33-.19,.33-.1,.66-.38,.75-.3,.66-.47,.41-.27,.41-.37,.11,2.11Zm-2.29-7.89l-.84,.3-.84,.22-.15-1.57-.02-.35,.34-.1,.42-.11,.67-.29,.99-.57,.49-.38,.49-.46,.1,2.28,.1,.27-1.75,.77Zm1.16-10.77l-.08,.09h-.67l-.17,.1-1,.49-.66,.38-.75,.38v-1.93l.25-.19,.75-.38,.75-.38,.58-.29,.66-.47,.25-.19,.1,2.4Zm.93,22l-.5,.27-.99,.75-.9,.74-.5,.27-.5,.27-.02-2.54,.51-.02,.59-.2,1-.57,.74-.47,.5-.27,.4-.46,.17,1.92-.5,.31Zm-1.09-15.67l-.42,.2-.66,.38-.82,.56-.5,.29-.5,.11-.18-2.18,.92-.31,1.01-.31,.83-.39,.33-.27,.33-.27,.17,2.01-.51,.17Zm.29-3.27h-.09l-1.17,.4-1.09,.4-1.09,.31-.05-1.23,1-.4,.99-.57,.49-.46,.49-.46,.24-.36,.16-.36,.11,2.72Zm.52,22.37l-.99,.57-.5,.27-.59,.11-.5,.2-.5,.19-.05-1.14,1.09-.4,1.08-.66,.99-.75,.41-.46,.41-.46,.16,1.84-1,.67Zm1.16,3.27l-.17-.08h-.17l-.33,.27-.58,.38-1.41,.95-.82,.47-.82,.48,.04-3.08,.35,.08,.34-.02,.67-.21,.66-.38,.59-.29,.75-.39,.82-.56,.08,2.38Zm.27,6.31l-1.24,.85-1.33,.76-.75,.38-.84,.3-.5,.11,.02-1.58,.59-.12,.5-.2,.91-.57,.75-.39,.74-.56,.41-.37,.24-.36,.24-.37-.02-.44-.34-.08-.34,.02-.25,.1-.34,.19-1.16,.8-.84,.39-.83,.39-.25,.1,.09-1.93,.42-.02,.5-.27,.91-.59,1.32-.85,.58-.47,.57-.64,.24,5.4Zm-.99,8.56l-1.15,.93-1.07,.84-1.06,1.02-.14-1.23-.14-1.22-.02-.35,.41-.2,.5-.27,1.16-.75,1.23-1.02,1.15-1.02,.05,1.23,.13,1.13-1.06,.92Zm.96-5.31l-.32,.36-.32,.37-.82,.74-1.63,1.22-.66,.47-.9,.74,.02-3.43,.43-.02,.34-.11,.76-.21,.66-.38,.58-.38,1.08-.66,.49-.46,.41-.46-.09,2.2Zm65.39-21.76l-.42-5.87c-.54-4.16-1.09-8.32-1.63-12.48,0-1.41-.02-3.24-.1-5.39-.13-3.82-.29-4.63-.89-5.33-1.42-1.16-3.31-1.56-5.07-1.07l-7.29,.4-1.7-.1-1.62-.1h-1.7l-3.39,.24-3.31,.15-6.95,.49-3.48,.16-3.48,.16-7.06,.06-3.48,.14-3.48,.07-2.88,.13-2.97,.14-1.44,.07-1.44,.16-1.44,.24-1.43,.33-.25,.19-.25,.19-.24,.36-.16,.36-.1,1.76-.85,.04-.86-.14-.86-.05-.85-.05h-.43l-.33,.27-.16,.36-.07,.44-.08,.18-.08,.27-.3,2.83-.14,2.81-.05,2.9,.12,2.81-.08,.18v.35s.11,.35,.11,.35l.29,4.82,.27,4.63,.19,4.56,.03,4.65,.02,4.56-.07,6.24-.04,3.16,.05,3.16-.02,1.4,.04,1.05,.13,1.05,.22,1.04,.29,.87,.27,.34,.18,.26,.35,.16,.34,.07-.07,.35,.1,.35,.18,.26,.35,.25,.77,.23,.77,.14,1.54,.19,1.62,.02,1.7-.08,1.6-.25,1.61-.16,3.21-.5,4.4-.46,4.41-.37,4.4-.38,2.21-.1h2.21l4.77,.14,4.76,.13,4.76,.05,2.37-.11,2.38-.02,4.15-.27,4.24-.27,3.57-.08,1.86-.17,.84-.13,.85-.13h.26l.33-.1,.16-.19,.16-.27,.07-.35,.05-.71-.03-.61,.04-1.15-.03-.61-.11-.61,.94,.13,1.02-.05,.85-.13,.41-.2,.42-.19,.16-.18,.07-.27-.09-.27-.1-.17,.14-.71-.03-.7v-4.22l.08-6.06-.05-3.07-.04-3.07-.31-5.87Z" fill="#fff" fill-rule="evenodd"/></g></svg>