<svg xmlns="http://www.w3.org/2000/svg" width="16.667" height="25.78" viewBox="0 0 16.667 25.78">
  <g id="Groupe_1494" data-name="Groupe 1494" transform="translate(-593.863 -1209.767)">
    <path id="Tracé_17292" data-name="Tracé 17292" d="M594.3,1285.893c1.959,0,3.9,0,5.834,0,2.468-.006,4.937,0,7.4-.044.539-.009.707.163.686.67a2.362,2.362,0,0,1-.3,1.535c-.264.363-.108,1.021-.172,1.544-.323,2.634-.683,5.264-.974,7.9-.108.981-.052,1.98-.092,2.969-.04,1.007-.111,1.112-1.093,1.136q-4.489.112-8.98.16c-1.023.01-.953-.075-1.1-1.065-.572-3.758-.114-7.6-.93-11.329-.1-.454.189-1.09-.538-1.315-.057-.017-.057-.315-.034-.475C594.09,1287.042,594.193,1286.507,594.3,1285.893Zm.386,2.424c.047.568.089,1.091.133,1.613.3,3.607.65,7.212.869,10.824.046.753.309.856.878.845,1.117-.023,2.234-.065,3.351-.081,1.828-.025,3.657-.019,5.484-.058,1-.021,1.1-.141,1.125-1.143s-.037-2.033.075-3.035c.263-2.344.619-4.676.913-7.017.1-.762.116-1.534.179-2.421Zm13.311-.637V1286.1H594.467l-.359,2.016Z" transform="translate(0 -66.342)" fill="#fff" stroke="#fff" stroke-width="0.25"/>
    <path id="Tracé_17293" data-name="Tracé 17293" d="M630.257,1214.068a2.161,2.161,0,0,1,1.713,1.876c.026.187-.014.467.093.547,1.094.822-.058,1.349-.181,2.094-.5-.226-.928-.4-1.337-.6-3.572-1.805-7.137-3.623-10.713-5.42a.78.78,0,0,1-.443-1.172c.156-.339.3-.685.455-1.052l.787.3c.559-1.1,1.447-.619,2.157-.269a1.942,1.942,0,0,0,2.3-.15,1.462,1.462,0,0,1,1.8-.039c.891.519,1.817.979,2.743,1.433a1.012,1.012,0,0,1,.6,1.278,4.986,4.986,0,0,0,.046,1.2c-.518-.216-1.046-.413-1.554-.651-2.219-1.039-4.432-2.09-6.651-3.132a.873.873,0,0,0-.481-.122,2.449,2.449,0,0,0-.58.279c.116.158.2.377.353.465,1.284.727,2.586,1.422,3.87,2.149.171.1.27.319.4.483-1.678-.861-3.351-1.732-5.04-2.571-.226-.113-.72-.165-.769-.074-.2.381-.575.793-.152,1.406l.111-.457c.064.127.12.476.307.573,2.225,1.162,4.467,2.29,6.708,3.421,1.642.829,3.289,1.65,4.971,2.494l.635-1.242-2.571-1.521c.571,0,1.031.651,1.675.4a.352.352,0,0,0,.008.192c.029.078.126.13.216.216a1.7,1.7,0,0,0-.891-1.867A4.125,4.125,0,0,1,630.257,1214.068Zm-1.257-.695c0-.491.144-.984-.024-1.141a4.343,4.343,0,0,0-3.08-1.2.55.55,0,0,0-.408.3c-.034.09.133.328.263.4C626.752,1212.255,627.768,1212.755,629,1213.374Zm-4-2.024c.451-.234.8-.582,1.112-.548a4.667,4.667,0,0,1,3.037,1.358.678.678,0,0,1,.14.6c-.306.534.034.714.459.949.032-.519.6-.962.059-1.474l.378-.136a30.021,30.021,0,0,1-2.723-1.441,2.388,2.388,0,0,0-3.044.132,1.121,1.121,0,0,0-.1.107Z" transform="translate(-22.076)" fill="#fff" stroke="#fff" stroke-width="0.25"/>
    <path id="Tracé_17294" data-name="Tracé 17294" d="M638,1313.291c0-1.118-.018-2.236.009-3.354a4.921,4.921,0,0,1,.2-1.306,1.3,1.3,0,0,1,1.756-.89,1.144,1.144,0,0,1,.546.767,10.278,10.278,0,0,1,.237,2.385c-.149,2.525-.382,5.045-.586,7.567a1.971,1.971,0,0,1-.081.37c-.1.354-.095.8-.61.838a.834.834,0,0,1-.9-.737c-.217-1.175-.379-2.363-.5-3.552-.069-.69-.012-1.392-.012-2.088Zm2.648-1.359c-.1-1.335-.156-2.24-.243-3.141-.047-.487-.205-.894-.822-.922a1.024,1.024,0,0,0-1.177.737,6.456,6.456,0,0,0-.235,1.68c.007,2.047.028,4.095.118,6.139a10.679,10.679,0,0,0,.438,2.411c.076.266.481.439.736.655.152-.248.409-.484.44-.747C640.192,1316.338,640.439,1313.927,640.652,1311.932Z" transform="translate(-38.432 -85.376)" fill="#fff" stroke="#fff" stroke-width="0.25"/>
    <path id="Tracé_17295" data-name="Tracé 17295" d="M609.69,1315c0-1.282-.011-2.485,0-3.687.012-.981.29-1.355.993-1.408.867-.066,1.359.308,1.445,1.287a25.1,25.1,0,0,1,.086,3.409c-.1,2-.283,3.994-.455,5.989a2.808,2.808,0,0,1-.287.962c-.263.537-.724.576-.992.04a4.626,4.626,0,0,1-.474-1.617C609.859,1318.3,609.787,1316.609,609.69,1315Zm.174-.487c.092,1.767.159,3.474.282,5.178a7.006,7.006,0,0,0,.36,1.592c.059.186.3.315.458.469.145-.159.35-.3.422-.483a3.439,3.439,0,0,0,.249-1.039q.222-4.1.4-8.208a3.912,3.912,0,0,0-.149-1.121.977.977,0,0,0-1.206-.833c-.546.067-.807.4-.811,1.088C609.859,1312.3,609.864,1313.436,609.864,1314.515Z" transform="translate(-13.704 -87.349)" fill="#fff" stroke="#fff" stroke-width="0.25"/>
    <path id="Tracé_17296" data-name="Tracé 17296" d="M670.376,1310.666a39.963,39.963,0,0,1-1.126,7.368,3.466,3.466,0,0,1-.4.989c-.344.569-.858.549-1.064-.073a6.246,6.246,0,0,1-.381-1.97c.024-2.738.109-5.475.2-8.211a1.278,1.278,0,0,1,2.539-.165C670.273,1309.281,670.3,1309.978,670.376,1310.666Zm-.2-.418c-.037-.376-.079-.964-.157-1.547-.089-.663-.525-.933-1.189-.962a1.071,1.071,0,0,0-1.071,1.1c-.09,2.3-.184,4.594-.228,6.892a11.77,11.77,0,0,0,.2,2.325,4.809,4.809,0,0,0,.569,1.177,4.685,4.685,0,0,0,.731-1.162A35.839,35.839,0,0,0,670.173,1310.248Z" transform="translate(-64.114 -85.277)" fill="#fff" stroke="#fff" stroke-width="0.25"/>
    <path id="Tracé_17297" data-name="Tracé 17297" d="M682.933,1245.073l2.377,1.152c-.459-.2-.924-.378-1.374-.593C683.592,1245.467,683.267,1245.261,682.933,1245.073Z" transform="translate(-77.677 -30.731)" fill="#fff" stroke="#fff" stroke-width="0.25"/>
  </g>
</svg>
