<?xml version="1.0" encoding="UTF-8"?><svg id="Calque_1" xmlns="http://www.w3.org/2000/svg" viewBox="0 0 173.84 178.2"><path id="Tracé_167" d="M114.88,55.94l1.17,.15,1.03,.15,2.34,.74,1.02,.44,.88,.44,.73,.59,.58,.74,.59,.88,.58,.88,.44,.88,.29,.88,.14,1.03,.14,1.03,.15,2.06-.44,1.91-.29,1.03-.29,.88-.88,1.62-1.17,1.32-1.17,1.32-1.46,1.18-2.78,2.21-1.32,1.18-1.17,1.32-4.39-3.39-2.19-1.77-2.19-1.77-1.91-1.77-1.9-2.06-1.75-2.06-1.61-2.36,.73-.29,.73-.59,1.46-1.17,1.32-1.32,1.17-1.18,3.22-2.5,1.75-1.03,1.75-.88,1.17-.44,1.17-.15,1.17-.15h1.18Zm-.15-3.38l-1.17,.15-2.35,.44-2.34,.59-2.19,1.03-2.05,1.32-1.46,1.03-1.32,1.18-2.63,2.35-1.75,1.62-.88,1.03-.29,.44v.59l-.59,.15-.44,.44-.29,.44,.14,.73,.58,1.48,.73,1.47,.73,1.32,1.02,1.32,1.02,1.18,1.02,1.32,2.49,2.21,2.63,2.21,2.63,2.06,2.63,1.91,2.49,1.91,.44,.3,.58,.15h.44l.58-.15,.29-.3,.44-.44,.14-.44v-.44l1.17-.88,.88-.74,3.8-3.09,1.75-1.77,1.61-1.91,1.32-2.06,.59-1.03,.44-1.18,.29-1.03,.29-1.03,.14-1.18v-1.03l-.14-2.21-.44-2.06-.88-2.06-1.02-1.91-.73-.88-.73-.74-.72-.73-.88-.74-1.03-.59-1.17-.59-1.03-.44-1.17-.29-1.17-.3-1.32-.15h-1.18Zm-47.68,23.85l-7.9,7.35-3.66,3.39-.44-.73-.59-.45-1.32-1.17-1.9-2.06-1.75-2.06-1.61-1.91-.88-.88-1.03-.88h10.4l5.55-.3,5.11-.28Zm-29.09,.59l1.75,.15h1.6l.14,.3,.14,.15,1.32,1.32,1.47,1.18,1.9,1.91,1.75,2.21,2.19,2.65,1.32,1.48,.72,.59,.73,.44-1.02,.74-.59-.88-.72-.88-1.75-1.62-3.36-2.65-3.8-3.53-3.79-3.53Zm52.5,11.18l-.72,.15-.59,.29-1.02,1.03-1.02,1.03-1.03,1.03-1.17,1.03-2.8,2.35-2.92,2.5-2.05,1.76-1.17,1.03-1.16,1.34-1.03,1.17-.72,1.48-.17,.57-.14,.74v.59l.14,.59,.29,.59,.29,.29,.58,.15h.44l.58-.3,.59-.3,.72-.88,1.61-1.91,1.32-1.32,1.32-1.32,2.78-2.35,2.49-1.91,2.63-2.06,1.32-1.03,1.02-1.18,.88-1.32,.73-1.32,.14-.74v-.73l-.44-.44-.44-.3-.72-.3h-.57Zm-44.76,27.82l.72,.3v.88l-.29,.44-.29,.29-.73,.59-.72,.59-1.03,.44-1.17,.44h0l.88-1.18,.88-1.17,.72-.88,.59-.59h.14l.3-.14Zm-.29-2.94l-.58,.15-.44,.15-1.03,.59-.72,.74-.88,.88-.88,1.03-1.47,2.06-.44,1.03-.58,1.03-.14,.59-.15,.44v.58l.29,.44,.29,.3,.29,.3h.73l.44-.15h.88l.88-.15,1.02-.3,.88-.29,1.75-.88,1.32-.88,.73-.59,.73-.73,.44-.88,.43-.87,.14-.88v-.44l-.14-.44-.15-.44-.28-.45-.44-.3-.59-.3-.58-.73-.73-.44-.57-.15h-.45ZM126.72,38.58l3.35,.44,3.37,.44,3.37,.74,3.35,.88-.58,.3-.44,.44-.58,.44v.15l.14,.15,.29,.3,.29,.15,.73,.15,.73-.15h.44l.29-.29,.15,.73,.14,.59-.73,.15-.58,.3-.58,.29-.59,.44-.14,.15v.44l.14,.29,.44,.15,.29,.15,.44,.15,.88-.15,.73-.3,.14,1.18-1.17,.44-.72,.3-.59,.59-.29,.3v.59l.14,.3,.44,.29,.58,.15,.59-.15,1.17-.29,.15,.73-.88,.15-1.03,.3-.44,.3-.29,.44-.15,.59v.44l.29,.3,.44,.29h2.05l.14-.15v1.77l-2.63,.74-.29,.15-.14,.15-.29,.59v.29l.15,.3,.14,.15,.29,.3,.58,.15h.73l1.32-.15h0l-.29,2.95-1.02-.59-1.17-.29-.58-.15-.44,.15-.59,.15-.29,.44v.3l.44,.59,.72,.3,1.17,.59,1.02,.59,.44,.15-.58,2.35-1.61-.59-1.32-.74-1.46-.44h-.44v.44l.29,.59,.29,.44,.59,.59,.44,.44,1.32,.73,1.32,.44-.73,2.21-.73,1.91-.29-.3-.27-.29-.72-.59-.58-.44-.73-.44-.58-.15-.58-.15h-.59l-.72,.3-.15,.15v.59l.15,.15,.58,.59,.44,.44,.44,.3,1.32,1.03,.58,.3,.73,.15h.29l-1.03,1.62h-.72l-.61-.14-.58-.3-.44-.3-.73-.73-.88-.74-.87-.45-.44-.15h-.58l-.44,.15-.58,.3-.3,.3v.3l.29,.3,.29,.15h.44l.59,.3,.88,.73,.88,.88,.72,.74,.73,.59,.88,.3-2.48,2.93-3.07-1.32-.88-.44-.88-.15h-.72l-.88,.3-.15,.15-.14,.15v.29l.14,.15,.44,.59,.59,.44,1.46,.88,2.05,1.03-1.75,1.77-.88-.29-.88-.15-.88-.15-.88-.15-1.75-.88-.88-.3-.88-.3-.29,.15-.29,.3v.59l.44,.59,.44,.59,1.32,1.03,1.75,.73,.73,.3,.88,.15-1.75,1.91-1.32-.3-1.32-.3-1.17-.44-1.17-.73-.15-.15h-.29l-.29,.3-.14,.3v.44l.29,.59,.44,.59,1.03,.74,1.02,.59,1.32,.44-1.61,1.77-.29-.15-1.75-.59-1.75-.59-1.76-.58-1.75-.59h-.3l-.14,.15-.15,.3,.15,.15,.44,.74,.72,.73,.59,.59,.88,.44,1.75,.88,1.75,.59-2.19,2.35-.13-.29-.44-.3-1.61-1.18-1.91-.88-1.02-.44-.87-.29-1.02-.3h-1.32l-.15,.3v.29l.15,.15,1.46,1.33,1.61,1.03,1.75,1.03,1.75,.88,.29,.15-.44,.44-.88,.88-.29-.44-.44-.44-1.03-.59-2.19-.89-1.17-.29-1.18-.44-1.17-.15-1.32-.15h-.29l-.14,.15-.14,.3,.14,.45,.29,.3,1.17,.59,1.02,.59,2.19,1.32,1.46,.74,.73,.29,.88,.15-3.51,3.53-.73-.59-.88-.59-1.32-.74-1.17-.88-1.32-.88-1.32-.59-.73-.29h-.88l-.14,.15v.15l.14,.15,1.03,1.17,1.75,1.62,2.05,1.77,1.02,.59,1.03,.44-2.05,2.06-.73-.3-.72-.3-1.17-.59-2.36-1.47-1.32-.59-.59-.15-.72-.15-.44,.15-.15,.3-.16,.44,.29,.29,1.61,1.32,1.75,1.32,1.32,.88,1.61,.74-1.75,1.77-1.61-1.32-1.61-1.32-1.03-.88-1.02-.74-1.17-.59-1.17-.3-.29,.15v.15l-.14,.15,.14,.3,3.8,3.97,1.02,1.18,1.32,1.03-.88,1.03-.73-.59-.88-.44-1.61-.88-2.49-1.62-1.17-.88-1.17-.88-.14-.15-.15,.15-.14,.15,.14,.15,1.75,2.5,1.03,1.03,1.17,1.18,1.32,1.03,.73,.44,.72,.44-1.61,1.47-2.05-1.47-2.04-1.47-1.03-.59-1.17-.44-1.03-.44h-1.17l-.29,.15v.29l.73,.74,.88,.74,1.61,1.32,3.66,3.09-1.03,1.03-1.02-.74-1.02-.59-2.05-1.03-1.32-.88-1.02-1.03-1.03-1.03-.88-1.32-.44-.3h-.43l-.29,.15-.29,.44-.13,.74,.14,.88,.14,.74,.44,.74,.44,.73,.59,.59,1.17,1.17,2.19,1.62,1.17,.74,1.32,.59-1.46,1.32-1.75-.88-1.91-.88-1.75-.89-.88-.59-.88-.44-.14-.15h-.14l-.15,.15v.31l.44,1.03,.59,1.03,.72,.74,.88,.73,2.78,1.91-1.75,1.77-2.35-2.36-2.46-2.22-4.83-4.26-2.49-2.06-2.34-2.21-2.35-2.35-2.19-2.36-2.04-2.65-2.19-2.79-2.06-2.5-1.17-1.32-1.17-1.18-1.61-1.32-1.76-1.18-1.75-1.34-1.61-1.16-.14-.44,2.05-1.77,2.19-1.77,2.19-1.77,2.04-1.77,5.85-5.45,5.71-5.59,2.34-2.36,2.19-2.5,4.24-5.15,4.23-5.15,4.24-5.15,2.34-2.65,2.49-2.35,2.63-2.21,2.78-2.06,2.78-1.77,3.09-1.62,3.22-1.17,3.35-1.03,3.37-.73,3.51-.44,3.37-.15h3.51Zm-22.53,76.66v2.21l-.14,2.21-.28,4.71-.14,4.86-.14,4.71-1.03-1.48-1.17-1.32-2.49-2.65-.73-1.03-.87-1.18-.88-1.17-.59-.59-.44-.29,2.63-2.65,3.21-3.09,3.06-3.24Zm-50.16,6.92l.73,.15,.88,.3v.44l.14,.3h-.72l-.29,.15-.29,.3-1.02,1.17-1.02,1.18-1.18,1.19-.44,.59-.29,.74v.44l.15,.29,.14,.3,.29,.15h1.02l.73-.29,.72-.44,.73-.59,1.32-1.32,1.17-1.62,.14-.44v-.9l-.29-.3,.29,.15,.29,.44v.74l-.15,1.18-.29,1.17-1.17,2.36-.88,1.62-.44,.74-.73,.59-.58,.44-.88,.44-1.61,.44-1.75,.3-1.17,.15h-1.17l.88-1.62,.73-1.77,1.17-2.95,.58-1.47,.72-1.48,.88-1.32,1.03-1.17,.44-.44,.44-.15,.29-.15h.46Zm-2.19-26.48l.73,.88,.88,.88,1.9,1.17,1.47,1.17,1.32,1.18,1.32,1.32,1.17,1.32,2.19,2.8,2.19,2.96,2.19,2.65,2.35,2.65,2.63,2.35,2.48,2.36,5.42,4.7,2.48,2.36,2.63,2.5-.14,.15-.44,.29-.29,.44v.44l-.44,1.18-.44,1.32-.88,2.5-5.71-4.42-5.56-4.56-2.78-2.5-2.78-2.36-2.49-2.5-2.48-2.65-4.38-5.01-2.2-2.65-2.19-2.5-2.34-2.5-2.49-2.21-2.63-2.06-1.46-.88-1.32-.88h.88l.72-.15,1.75-.29,3.38-.6,3.35-.88Zm11.56,38.26l.72,.15-.14,.3-.14,.44-.44,.29-.88,.59-1.75,.73h0l.29-.73,.44-.88,.59-.59,.58-.29h.74Zm-10.53-15.01l-.73,.29-.73,.3-.58,.44-1.17,1.18-1.03,1.32-.88,1.47-.72,1.62-1.32,3.38-.73,1.62-.88,1.62-1.02,1.47-.59,.59-.58,.44-.29,.44-.29,.44-.15,.44,.15,.44,.14,.44,.29,.3,.29,.15,.59,.15h.58l.58-.15h3.36l1.61-.15,1.46-.15,1.46-.3,1.46-.44,.88-.44,.73-.44,.58-.59,.73-.59,.88-1.32,.88-1.77,.88-1.91,.44-1.47,.29-1.48,.29-1.62-.14-1.32v-.59l-.29-.44-.29-.44-.44-.29-.44-.59-.44-.59-.59-.43-.58-.3-1.32-.59-1.45-.15h-.89Zm9.5,11.92l-.72,.29-.73,.3-.73,.44-.58,.59-.58,.74-.59,.74-.44,.88-.29,.88-.29,.88-.14,.88v.88l.14,.59,.44,.59,.58,.3,.29,.15,.29-.15,1.46-.44,1.32-.59,1.61-.74,.88-.44,.72-.44,.59-.59,.44-.59,.44-.73,.14-.88v-.44l-.14-.59-.29-.59-.29-.44-.58-.59-.58-.44-.73-.3-.73-.15h-.88Zm31.15-5.16l.59,1.32,.72,1.18,1.61,2.06,1.46,1.77,1.61,1.77,1.46,1.77,.58,1.03,.44,1.03,.15,.44,.29,.3,.44,.15,.29,.15v1.48l-.14,1.47-1.03-.74-.88-.88-1.75-1.91-2.92-4.12-2.34-3.09-1.47-1.62-.88-.74-.72-.73,1.61-1.18,.44-.44,.44-.44Zm30.86-90.5l-3.51,.15-3.51,.3-3.35,.59-3.51,.74-3.37,1.17-3.07,1.32-3.07,1.62-2.93,1.91-2.63,2.06-2.63,2.35-2.49,2.5-2.49,2.5-2.34,2.8-4.39,5.59-4.39,5.45-2.34,2.8-2.49,2.5-1.17,1.17h-1.9l-2.05,.15-3.8,.44-5.56,.44-5.56,.15h-13.01l-4.39-.3h-.29l-.29,.15-.29,.45-.15,.58,.14,.44-.14,.59,.29,.44,.88,1.32,1.03,1.32,2.19,2.36,2.34,2.21,2.49,2.21,2.34,2.21,2.49,2.35,1.02,1.18,1.17,1.03-4.68,1.18-1.46,.29-1.61,.16-1.3,.44-.74,.28-.58,.45-.29,.15v.88l-.44,.15-.29,.3-.15,.29-.14,.44v.59l.14,.29,.44,.44,3.07,2.35,2.93,2.36,2.78,2.65,2.78,2.65,2.35,2.8,2.34,2.8,2.49,2.8,2.34,2.65,2.63,2.8,2.78,2.65,2.93,2.65,2.93,2.5,5.98,4.7,6.14,4.71,.59,.3h.58l.44-.15,.44-.29,.29-.44,.14-.59v-.59l-.29-.59,.89-1.77,.59-1.77,.58-1.91,.29-1.91,1.02-.59,1.75,1.91,2.19,2.8,2.19,3.09,1.61,2.21,1.75,2.21,.88,1.03,1.03,.88,1.02,.88,1.17,.73,.44,.15,.29,.15h.44l.44-.15h.73l.73-.3,.58-.3,.29-.73,.44-1.48,.14-1.47,.29-2.95,.14-4.56v-4.41l.14-4.86,.29-4.71,.14-1.91,.15-1.91-.15-1.91-.14-1.03-.29-.74,2.93-3.24,3.37-3.53,3.66-3.38,3.51-3.52,3.36-3.53,3.22-3.83,1.46-1.91,1.75-1.77,3.37-3.53,3.37-3.68,1.17-1.32,1.17-1.62,1.02-1.48,.88-1.62,.73-1.77,.88-1.62,.58-1.77,.59-1.77,.88-3.53,.58-3.68,.29-3.83v-3.68l-.14-3.39-.14-2.5-.29-2.8-.58-2.65-.29-1.03-.44-1.03-.58-.74-.58-.44-.73-.3-.73,.15-3.22-1.03-3.51-.73-3.37-.59-3.51-.28h-3.51Z" fill="#fff" fill-rule="evenodd"/></svg>