<?xml version="1.0" encoding="UTF-8" standalone="no"?>
<svg
   id="Calque_1"
   viewBox="0 0 173.84 178.2"
   version="1.1"
   sodipodi:docname="duplicate.svg"
   inkscape:version="1.1.2 (0a00cf5339, 2022-02-04)"
   xmlns:inkscape="http://www.inkscape.org/namespaces/inkscape"
   xmlns:sodipodi="http://sodipodi.sourceforge.net/DTD/sodipodi-0.dtd"
   xmlns="http://www.w3.org/2000/svg"
   xmlns:svg="http://www.w3.org/2000/svg">
  <defs
     id="defs34" />
  <sodipodi:namedview
     id="namedview32"
     pagecolor="#ffffff"
     bordercolor="#666666"
     borderopacity="1.0"
     inkscape:pageshadow="2"
     inkscape:pageopacity="0.0"
     inkscape:pagecheckerboard="0"
     showgrid="false"
     inkscape:zoom="4.4949495"
     inkscape:cx="43.048315"
     inkscape:cy="89.1"
     inkscape:window-width="1920"
     inkscape:window-height="1016"
     inkscape:window-x="0"
     inkscape:window-y="27"
     inkscape:window-maximized="1"
     inkscape:current-layer="Calque_1" />
  <g
     id="Groupe_82"
     transform="translate(9.5571266,-1.8354476)">
    <path
       id="Tracé_122"
       d="m 153.82,107.99 0.1,6.48 v 12.79 l 0.1,6.67 0.14,3.33 0.5,3.31 -1.44,-0.12 -1.26,-0.12 -2.71,-0.44 -3.95,-0.19 h -3.95 l -4.5,-0.17 h -4.31 c 0,0 -4.3,0.21 -4.3,0.21 l -4.29,0.38 -9.83,1 -9.65,0.81 -19.68,1.45 -5.9,0.45 -0.54,-0.16 -0.37,-0.17 -0.35,0.21 -0.35,0.2 -11.82,0.54 -0.38,-0.54 -0.37,-0.17 -0.54,0.02 -0.7,0.22 -0.51,0.58 -13.43,0.61 -0.55,-0.35 -0.37,-0.17 -0.53,0.21 -0.34,0.39 -1.43,0.06 -6.26,0.66 -6.43,0.66 -2.86,0.13 -3.04,0.14 -0.55,-0.34 -0.54,-0.17 -0.54,0.02 -0.53,0.22 -1.44,-0.12 -1.46,-0.49 -0.02,-0.55 -0.2,-0.55 -0.55,-0.34 -0.38,-0.36 0.25,-2.61 0.07,-2.58 -0.22,-5.19 v -8.15 c 0,0 -0.33,-8.14 -0.33,-8.14 L 20.23,101.47 19.2,85.58 18.31,68.94 17.14,41.37 17.22,38.79 17.28,36 l 3.21,-0.52 3.04,-0.32 6.26,-0.28 6.81,-0.31 6.62,-0.49 14.16,-0.27 13.99,-0.26 7.17,-0.33 6.98,-0.51 13.96,-0.81 5.74,-0.26 5.74,-0.08 5.92,-0.08 5.72,-0.45 24.2,-0.77 c 0.87,5.34 1.66,10.83 2.37,16.49 1.41,11.17 2.35,21.88 2.92,32.06 l 1.03,11.45 0.66,11.47 0.09,6.28 z"
       fill="none"
       stroke="#ffffff"
       stroke-miterlimit="10" />
    <path
       id="Tracé_125"
       d="m 75.85,53.48 v 26.84 c -1.56,0.07 -3.76,0.15 -6.42,0.19 -2.66,0.04 -4.65,0.02 -6.81,0 -3.22,-0.03 -7.56,-0.09 -12.84,-0.19 v 16.72 c 3.6,0.22 7.36,0.36 11.27,0.39 5.2,0.04 10.13,-0.11 14.78,-0.39 -0.13,9.34 -0.26,18.67 -0.39,28 l 18.28,-1.55 -1.36,-26.45 h 26.65 V 79.73 H 93.94 L 92.58,79.92 92,51.53 75.86,53.48 Z"
       fill="none"
       stroke="#ffffff"
       stroke-miterlimit="10"
       stroke-width="1.5" />
    <path
       id="Tracé_126"
       d="m 79.47,122.39 -1.04,0.7 -1.11,0.64 -0.62,0.32 -0.7,0.25 -0.42,0.09 0.02,-1.32 0.49,-0.1 0.42,-0.16 0.76,-0.47 0.62,-0.32 0.62,-0.47 0.34,-0.31 0.2,-0.3 0.2,-0.31 -0.02,-0.36 -0.29,-0.06 h -0.28 c 0,0 -0.21,0.1 -0.21,0.1 l -0.28,0.16 -0.97,0.63 -0.7,0.32 -0.7,0.33 -0.21,0.08 0.08,-1.62 0.35,-0.02 0.42,-0.23 0.76,-0.47 1.11,-0.7 0.48,-0.39 0.47,-0.53 0.21,4.53 z"
       fill="#ffffff"
       fill-rule="evenodd" />
    <path
       id="Tracé_127"
       d="m 80.75,116 -1.38,0.94 -1.47,0.85 -0.83,0.43 -0.94,0.34 -0.56,0.12 0.02,-1.76 0.65,-0.13 0.56,-0.22 1.01,-0.63 0.83,-0.43 0.82,-0.62 0.45,-0.41 0.27,-0.4 0.27,-0.4 -0.02,-0.48 -0.38,-0.08 -0.38,0.02 -0.28,0.11 -0.37,0.21 -1.28,0.84 -0.94,0.43 -0.93,0.43 -0.28,0.11 0.1,-2.15 0.47,-0.02 0.55,-0.32 1.01,-0.63 1.47,-0.94 0.64,-0.52 0.63,-0.7 0.28,6.02 z"
       fill="#ffffff"
       fill-rule="evenodd" />
    <path
       id="Tracé_128"
       d="m 79.47,107.96 -1.04,0.7 -1.11,0.64 -0.62,0.32 -0.7,0.25 -0.42,0.09 0.02,-1.32 0.49,-0.1 0.42,-0.16 0.76,-0.47 0.62,-0.32 0.62,-0.47 0.34,-0.31 0.2,-0.3 0.2,-0.31 -0.02,-0.36 -0.29,-0.06 h -0.28 c 0,0 -0.21,0.1 -0.21,0.1 l -0.28,0.16 -0.97,0.63 -0.7,0.32 -0.7,0.33 -0.21,0.08 0.08,-1.62 0.35,-0.02 0.42,-0.23 0.76,-0.47 1.11,-0.7 0.48,-0.39 0.47,-0.53 0.21,4.53 z"
       fill="#ffffff"
       fill-rule="evenodd" />
    <path
       id="Tracé_129"
       d="m 118.87,85.61 -1.38,0.94 -1.47,0.85 -0.83,0.43 -0.94,0.34 -0.56,0.13 0.02,-1.76 0.66,-0.13 0.56,-0.22 1.01,-0.63 0.83,-0.43 0.82,-0.62 0.45,-0.41 0.27,-0.4 0.27,-0.41 -0.02,-0.48 -0.38,-0.08 -0.38,0.02 -0.28,0.11 -0.37,0.21 -1.28,0.84 -0.94,0.43 -0.93,0.43 -0.28,0.11 0.1,-2.15 0.47,-0.02 0.55,-0.32 1.01,-0.63 1.47,-0.94 0.64,-0.52 0.63,-0.7 0.28,6.02 z"
       fill="#ffffff"
       fill-rule="evenodd" />
    <path
       id="Tracé_130"
       d="m 118.23,91.91 -1.04,0.7 -1.11,0.64 -0.62,0.32 -0.7,0.25 -0.42,0.09 0.02,-1.32 0.49,-0.1 0.42,-0.16 0.76,-0.47 0.62,-0.32 0.62,-0.47 0.34,-0.31 0.2,-0.3 0.2,-0.31 -0.02,-0.36 -0.29,-0.06 h -0.28 c 0,0 -0.21,0.1 -0.21,0.1 l -0.28,0.16 -0.97,0.63 -0.7,0.32 -0.7,0.33 -0.21,0.08 0.08,-1.62 0.35,-0.02 0.42,-0.23 0.76,-0.47 1.11,-0.7 0.48,-0.39 0.47,-0.53 0.21,4.53 z"
       fill="#ffffff"
       fill-rule="evenodd" />
    <path
       id="Tracé_131"
       d="m 76.03,54.87 0.17,-1.9 0.42,0.47 0.42,0.47 1.02,0.78 1.11,0.69 1.12,0.41 -0.05,1.17 -0.52,-0.2 -0.52,-0.21 -0.61,-0.12 -0.51,-0.3 -1.02,-0.58 z"
       fill="#ffffff"
       fill-rule="evenodd" />
    <path
       id="Tracé_132"
       d="m 75.35,56.87 0.17,-1.9 0.42,0.47 0.42,0.47 1.02,0.78 1.11,0.69 1.12,0.41 -0.05,1.17 -0.52,-0.2 -0.52,-0.21 -0.61,-0.12 -0.51,-0.3 -1.03,-0.59 -1.03,-0.67 z"
       fill="#ffffff"
       fill-rule="evenodd" />
    <path
       id="Tracé_133"
       d="m 76.03,59.98 0.17,-1.9 0.42,0.47 0.42,0.47 1.02,0.78 1.11,0.69 1.12,0.41 -0.05,1.17 -0.52,-0.2 -0.52,-0.21 -0.61,-0.12 -0.51,-0.3 -1.02,-0.58 z"
       fill="#ffffff"
       fill-rule="evenodd" />
    <path
       id="Tracé_134"
       d="m 75.99,62.76 0.17,-1.9 0.42,0.47 0.42,0.47 1.02,0.78 1.11,0.69 1.12,0.41 -0.05,1.17 -0.52,-0.2 -0.52,-0.21 -0.61,-0.12 -0.51,-0.3 -1.03,-0.59 z"
       fill="#ffffff"
       fill-rule="evenodd" />
    <path
       id="Tracé_135"
       d="m 50.26,81.26 1.05,-1.59 0.15,0.62 0.14,0.62 0.53,1.17 0.65,1.13 0.79,0.9 -0.6,1.01 -0.36,-0.43 -0.36,-0.43 -0.47,-0.39 -0.31,-0.5 -0.62,-1.01 z"
       fill="#ffffff"
       fill-rule="evenodd" />
    <path
       id="Tracé_136"
       d="m 49.95,85.52 0.17,-1.9 0.42,0.47 0.42,0.47 1.02,0.78 1.11,0.69 1.12,0.41 -0.05,1.17 -0.52,-0.2 L 53.12,87.2 52.51,87.08 52,86.78 50.97,86.19 49.94,85.52 Z"
       fill="#ffffff"
       fill-rule="evenodd" />
    <path
       id="Tracé_137"
       d="m 49.96,89.41 0.17,-1.9 0.42,0.47 0.42,0.47 1.02,0.78 1.11,0.69 1.12,0.41 -0.05,1.17 -0.52,-0.2 -0.52,-0.21 -0.61,-0.12 -0.51,-0.3 -1.03,-0.59 z"
       fill="#ffffff"
       fill-rule="evenodd" />
    <path
       id="Tracé_138"
       d="m 49.79,93.75 0.17,-1.9 0.42,0.47 0.42,0.47 1.02,0.78 1.11,0.69 1.12,0.41 -0.05,1.17 -0.52,-0.2 -0.52,-0.21 -0.61,-0.12 -0.51,-0.3 -1.03,-0.59 -1.03,-0.67 z"
       fill="#ffffff"
       fill-rule="evenodd" />
    <path
       id="Tracé_139"
       d="m 64.06,80.89 1.9,-0.08 -0.41,0.47 -0.42,0.47 -0.64,1.11 -0.54,1.19 -0.27,1.17 -1.17,0.1 0.13,-0.54 0.14,-0.54 0.04,-0.62 0.23,-0.55 0.46,-1.1 0.54,-1.09 z"
       fill="#ffffff"
       fill-rule="evenodd" />
    <path
       id="Tracé_140"
       d="m 67.66,80.2 1.91,-0.08 -0.41,0.47 -0.42,0.47 -0.64,1.11 -0.54,1.19 -0.27,1.17 -1.17,0.1 0.13,-0.54 0.14,-0.54 0.04,-0.62 0.23,-0.55 0.46,-1.1 0.54,-1.09 z"
       fill="#ffffff"
       fill-rule="evenodd" />
    <path
       id="Tracé_141"
       d="m 60.27,80.47 1.9,-0.08 -0.41,0.47 -0.42,0.47 -0.64,1.11 -0.54,1.19 -0.27,1.17 -1.17,0.1 0.13,-0.54 0.14,-0.54 0.04,-0.62 0.23,-0.55 0.46,-1.1 0.54,-1.09 z"
       fill="#ffffff"
       fill-rule="evenodd" />
    <path
       id="Tracé_142"
       d="m 55.6,80.46 1.56,-1.1 -0.09,0.62 -0.09,0.62 0.07,1.28 0.2,1.29 0.42,1.13 -0.93,0.72 -0.18,-0.53 -0.18,-0.53 -0.31,-0.54 -0.1,-0.59 -0.22,-1.17 -0.15,-1.21 z"
       fill="#ffffff"
       fill-rule="evenodd" />
    <path
       id="Tracé_143"
       d="m 80.95,53.77 0.63,1.8 -0.46,-0.32 -0.46,-0.32 -0.97,-0.43 -1,-0.32 -0.9,-0.07 -0.43,-1.1 0.42,0.04 0.42,0.05 0.45,-0.06 0.45,0.13 0.91,0.26 0.94,0.33 z"
       fill="#ffffff"
       fill-rule="evenodd" />
    <path
       id="Tracé_144"
       d="m 147.86,106.01 0.09,5.91 v 11.67 l 0.09,6.08 0.13,3.04 0.47,3.02 -1.32,-0.11 -1.15,-0.12 -2.47,-0.4 -3.61,-0.18 h -3.6 l -4.1,-0.16 h -3.93 l -3.92,0.18 -3.91,0.35 -8.96,0.91 -8.81,0.74 -17.95,1.32 -5.39,0.41 -0.5,-0.15 -0.34,-0.16 -0.32,0.19 -0.31,0.18 -10.78,0.49 -0.35,-0.49 -0.34,-0.15 -0.49,0.02 -0.65,0.2 -0.47,0.53 -12.25,0.56 -0.5,-0.32 -0.34,-0.15 -0.47,0.19 -0.31,0.35 -1.31,0.06 -5.71,0.6 -5.87,0.6 -2.61,0.12 -2.77,0.13 -0.5,-0.31 -0.5,-0.15 -0.49,0.02 -0.48,0.2 -1.32,-0.12 -1.33,-0.45 -0.02,-0.5 -0.18,-0.5 -0.5,-0.31 -0.35,-0.32 0.23,-2.38 0.06,-2.36 -0.23,-4.73 v -7.44 c 0,0 -0.3,-7.43 -0.3,-7.43 L 25.97,100.02 25.03,85.53 24.22,70.35 23.15,45.2 l 0.07,-2.36 0.05,-2.54 2.93,-0.47 2.77,-0.29 5.71,-0.26 6.21,-0.28 6.04,-0.45 12.92,-0.25 12.76,-0.23 6.54,-0.3 6.36,-0.47 12.74,-0.74 5.23,-0.23 5.24,-0.07 5.4,-0.07 5.22,-0.41 22.08,-0.7 c 0.78,4.87 1.5,9.88 2.16,15.03 1.28,10.19 2.13,19.96 2.66,29.25 l 0.94,10.45 0.61,10.46 0.08,5.76 z"
       fill="none"
       stroke="#ffffff"
       stroke-miterlimit="10" />
  </g>
  <rect
     style="fill:none;fill-opacity:1;stroke:#000f00;stroke-width:5.23086614;stroke-miterlimit:4;stroke-dasharray:15.69259843,5.23086614;stroke-dashoffset:0;stroke-opacity:1"
     id="rect157"
     width="57.51516"
     height="116.90089"
     x="40.417126"
     y="22.493666" />
  <rect
     style="fill:#000000;fill-opacity:1;stroke:#000f00;stroke-width:0.961791;stroke-opacity:1"
     id="rect157-3"
     width="52.044998"
     height="103.78751"
     x="69.856918"
     y="47.914825" />
  <rect
     style="fill:#f9f9f9;fill-opacity:1;stroke:#000f00;stroke-width:3.1566;stroke-miterlimit:4;stroke-dasharray:none;stroke-dashoffset:0;stroke-opacity:0"
     id="rect998-3"
     width="44.000092"
     height="8.9202433"
     x="76.044449"
     y="-101.88284"
     transform="matrix(-0.00545962,0.9999851,-0.99999918,-0.00128249,0,0)"
     inkscape:transform-center-x="23.616049"
     inkscape:transform-center-y="8.4613712" />
  <rect
     style="fill:#f9f9f9;fill-opacity:1;stroke:#000f00;stroke-width:3.1566;stroke-miterlimit:4;stroke-dasharray:none;stroke-dashoffset:0;stroke-opacity:0"
     id="rect998-3-6"
     width="44.000092"
     height="8.9202433"
     x="73.942322"
     y="94.554092"
     transform="matrix(0.99998563,-0.0053601,0.00953713,0.99995452,0,0)"
     inkscape:transform-center-x="-8.7163954"
     inkscape:transform-center-y="23.523124" />
</svg>
