<?xml version="1.0" encoding="UTF-8"?><svg id="Calque_1" xmlns="http://www.w3.org/2000/svg" viewBox="0 0 173.84 178.2"><path id="Tracé_172" d="M37.35,34.98l1.12,.16,2.26,6.25-6.03,3.52,4.14-5.92-4.94-4h3.45Zm80.32-6.57l.96,.96,5.42,4.65,4.94,5.45,5.42,5.92-7.17,2.89-6.85-.32-3.01-10.09,.3-9.46Zm-76.85,15.54l.16,1.92-5.42,4.01,4.46-5.45,.8-.48Zm.16,5.13v3.01l-5.74,4.52,2.87-5.45,2.87-2.08Zm-.16,6.73l-.16,2.73-4.94,4,5.1-6.73Zm-.32,6.09l-.16,3.84-6.03,4.16,2.08-4.97,4.11-3.04Zm36.16,2.08l-.32,.16-5.42,4.17-4.94-1.6-4.93,1.28-4.93-1.12,4.93,4.17h5.1l5.58-.17,5.42-1.92,6.03,1.76,5.58-.48h5.27l5.74,.48,5.42-.81,5.27,1.92,5.42-.96,5.42,.81,5.09-2.4h-5.27l-4.93-.48-4.93-.32-5.1-2.56-5.1,2.56-5.09-2.72-5.42,2.4-5.27-1.92-5.58,1.28-3.02-3.52Zm-36.5,4l-.17,3.84-5.27,5.13,1.12-5.45,4.32-3.53Zm-.32,7.69l-.16,3.21-4.63,4.97,.63-5.12,4.15-3.05Zm62.47,4.32l-.47,.32-5.27,3.01-5.74-.32-5.09-2.57-5.27,3.37-4.94-3.37-6.22,3.52-5.09-3.36-5.42,3.2,5.42,.16,5.42,2.89,4.93-.96,5.58,1.12,5.58-2.26,5.89,.96,4.93,.32,5.42-1.6,5.27,.96,5.1,.17,5.74-.48,4.93-.65-4.93-2.26-5.27,1.12-5.27-.48-4.93-2.89-.29,.08Zm-62.79,2.4l-.16,4,.16-4Zm-.32,7.37h0Zm66.94,3.36l-.47,.17-5.58,4.32-4.93-1.28-4.93-1.92-5.42,3.21-5.1-3.01-5.1,.65-5.42,2.4-5.27-.96-5.1-1.44-.47,5.27,5.27,.16h5.42l4.93-1.76,5.27,.81,5.74,1.12,4.93-2.4,5.89,.65,5.1,1.44,5.42-1.6,5.42,.81h5.12l5.58-1.6-5.1-1.12-5.09-.48-5.1-3.2-1.01-.21Zm-66.94,4.81h0Zm0,6.73h0Zm18.48,2.57l-.32,.16-2.26,4.97,5.42,2.73,5.42-1.44,4.94,1.12,5.58-1.6,7.01,.32,5.74,.32,5.74-1.28-4.93-1.6-5.58-.32-5.89,.16-6.38,.81-4.93-.48-5.89,.32-3.65-4.17Zm-18.48,4.16h0Zm0,8.01h0Zm-.11,5.44v.32l-3.66,5.92,3.66-6.25Zm-.47,5.76l-.32,4.52,.32-4.52ZM75.59,26.13l9.89,.16,9.88,.48,19.77,.96-1.12,5.12,.17,5.45,.47,5.27,.32,5.12,6.86,2.89,5.42,.17h5.27l5.1-.48-.17,5.12,.17,5.27,.16,5.13v5.13l-.32,12.49v12.66l.32,12.49,.32,12.65-.17,5.92v11.75l-.47,5.61-28.37,.32-14.32-.17-13.86-.32-13.77-.32h-7l-7.17,.32-6.54,.16-4.78-5.13v-5.27l.32-5.76,.32-5.61v-34.45l.47-17.62,.47-8.65,.47-8.81,.16-7.69-.47-7.85-.63-7.04,5.09-4.52,5.72-.14,11-.48,5.42-.16,5.6-.19Zm-37.29,112.49l.16,2.89-3.99,5.76v-5.76l3.83-2.89Zm.96,6.08l.32,1.28-2.87,5.76,2.55-7.04Zm92.75,4.17h0Zm-2.55,0l-.32,.48-2.55,5.61-.17-5.45,3.04-.63Zm-34.45-.32l-.8,1.6-1.43,5.12-.47-5.92,2.7-.81Zm6.53,.17l-1.27,1.44-2.26,5.12-.8-4.97,4.33-1.6Zm-11.15-.32l-.47,.81-2.7,5.45-.8-5.45,3.98-.81Zm11.96,.32l.63,.16,1.28,5.13-1.91-5.29Zm22.6,.32l-.32,.48-2.55,5.27-1.59-5.27,4.46-.48Zm-43.83-.96l3.35,.17-2.87,5.12-4.93,2.26,3.5-5.61,.96-1.94Zm28.21,.81l3.83,.16-2.55,6.57-1.75-4.97,.47-1.76Zm10.68,.16l-.63,.32-3.99,6.25-.32-6.4,4.93-.17Zm-44.45-1.12l3.19,.16-3.83,5.61,.64-5.76Zm-2.87,0l-.96,1.6-2.07,5.13-5.42,1.6,3.18-5.92,5.27-2.4Zm-6.03,0l-.96,1.12-3.35,5.45-.64-4.97-5.42,5.13,.47-6.73h9.89Zm-23.75,.47l2.26,.16-2.71,6.89-5.74,1.44,4.63-6.41,1.57-2.08Zm11.96-.48l-.8,.81-3.01,5.45-6.69,3.21,4.14-6.25,6.36-3.22ZM74.32,23.12l-5.42,.17-5.58,.16-11,.64-7.79,.32-4.78,5.61-5.27,1.76-3.19,5.27,.16,10.25-.16,8.01-.16,7.85,.16,8.97,.47,9.01,.63,8.97,.47,8.97,.17,8.33-.17,8.33-.47,8.36-.47,8.29-.47,6.08-.48,6.1,.17,6.25,1.27,5.76,5.42,3.52,5.73,.48,8.29-.32,5.58-.32,11.3-.64,8.45-.32,8.29-.32h8.45l8.29,.17,8.92,.16h6.69l5.1-.32,5.27-.48,5.1-.8,2.26-5.45,4.94-5.27,.79-5.45,.17-5.45v-5.61l-.17-5.45v-6.57l-.16-6.56-.32-13.3v-13.13l.32-13.13v-12.66l-.32-6.25-.96-6.25-5.42-6.56-5.27-5.27-6.54-5.92-4.93-4.17-21.85-1.28-10.83-.32-10.68-.18Z" fill="#373838" fill-rule="evenodd"/></svg>