<?xml version="1.0" encoding="UTF-8"?><svg id="Calque_1" xmlns="http://www.w3.org/2000/svg" viewBox="0 0 173.84 178.2"><path id="Tracé_116" d="M37.02,33.17l1.14,.16,1.14,.33h.81l.13,1.12h0l-.29-.14-.81-.17h-.82l-1.14,.49-1.12,.66-1.14,.81-.98,.82-.16-2.11-.33-1.95,1.15,.16,2.42-.16Zm3.25,1.95l.33,4.55h0l-.82-.16-.49,.16-.32,.16-2.28,1.63-2.44,1.79-.33,.33v-3.42l.16-.16,1.14-.66,.98-.81,2.28-1.31,.65-.33,.49-.49,.65-1.14v-.16Zm78.76-8.63l1.14,.98,1.79,1.63,1.79,1.63,1.79,1.47,1.62,1.79,1.79,1.95,1.79,1.79,3.42,3.58,1.14,1.15,.97,1.29,.82,1.31,1.14,1.31-2.44,.16-2.27,.16h-4.72l-4.55-.16-2.44-.16-2.28,.32-.32-5.21-.33-5.37-.16-2.44v-2.26l.32-4.9Zm-78.27,15.78v1.95l-1.14,.66-.98,.65-2.11,1.79-1.31,.98-1.31,.97v-3.1l.98-.32,.97-.49,1.63-1.15,2.27-1.47,.98-.48Zm.17,5.22l-.17,3.09v.82l-2.28,1.47-2.28,1.63-1.31,.65-.98,.98v-3.92l.98-.49,1.14-.66,1.79-1.47,3.1-2.1Zm-.33,6.83l-.16,2.77-.82,.49-.82,.65-1.63,1.47-1.79,1.47-.81,.82-.66,.98v-5.05l.82-.16,.81-.33,1.79-1.14,3.26-1.95Zm-.33,6.18l-.16,3.91-.49-.17h-.65l-.49,.17-1.14,.81-1.12,.82-.82,.97-1.47,1.63v-4.39l1.14-.16,.98-.49,.97-.65,.81-.66,2.43-1.78Zm-.32,6.18l-.17,3.91-1.47,1.47-1.63,1.47-1.14,1.14-1.14,1.14-.32-4.23,.81-.65,.81-.65,1.31-1.31,.81-.82,.97-.81,1.15-.65Zm-.33,7.81l-.16,3.26-.66,.49-.49,.49-.98,.81-.81,.98-.82,1.14-.81,1.12-.32-4.88,.81-.32,.98-.33,1.47-1.31,1.79-1.45Zm-.33,6.83l-.16,4.07-.82,.33-.65,.49-1.47,1.12-.98,.98-.33-4.55,1.79-.65,1.63-1.14,.98-.64Zm-.32,7.48v5.05l-.98,.81-2.12,1.63-.49-5.37,.98-.49,.97-.49,1.63-1.15Zm0,8.3v3.1l-.98,.97-.98,.98-.49,.65-.49,.82-.17-5.37v-.33h.82l.82-.16,.65-.33,.82-.32Zm0,6.83v3.26l-1.95,1.79-.97,.97v-4.23l1.29-.65,1.31-.98,.33-.16Zm0,6.83v4.72l-.66,.49-.49,.33-1.14,.97-.98,.98,.16-5.22,.82-.49,.82-.65,1.47-1.13Zm0,8.14v2.11l-.49,.33-1.63,1.47-1.47,1.63,.17-2.61,.81-.49,.65-.65,1.47-1.31,.49-.48Zm-.17,5.53v.33l-.16,2.28-.97,.81-.98,.98-1.63,1.95h0l.32-4.71,.33,.16,.33,.16h.49l.32-.32,1.95-1.63Zm-.32,5.86l-.49,4.56-.82,.49-.81,.65-1.3,1.3-.66,.81h0l.49-5.53,.97-.33,.98-.65,1.63-1.31ZM76.07,24.23l10.09,.16,10.09,.49,20.18,.98-.33,1.31-.32,1.14-.33,2.76-.16,2.61,.16,2.93,.49,5.37,.33,2.76v2.44l.16,.49,.16,.49,.33,.17,.33,.32,.16,.33,.49,.33,1.31,.32,1.3,.33,2.93,.16,5.37,.17h5.37l2.61-.17,2.61-.32-.17,5.2,.17,5.37,.16,5.22v5.22l-.16,12.68-.17,6.34v6.47l.33,12.68,.33,12.85-.16,6.02v11.88l-.16,2.77-.33,2.93-2.44,.16-2.27,.16h-24.25l-14.65-.16-13.99-.32-14.17-.33h-7.16l-7.16,.33h-4.56l-2.27,.16-2.28,.33-.33-.33-.32-.49-.49-.16h-.49l-.49-1.31-.18-1.29,.17-.49v-.49l-.17-.49-.32-.49v-5.36l.32-5.86,.33-5.7v-1.31l.33-.32,.16-.49-.16-.33-.33-.49v-12.2l.49-.49,.16-.65v-.49l-.16-.33-.49-.33v-10.71l.16-.32,.16-.33-.16-.33-.16-.49,.16-5.37,.49-17.9,.33-8.79,.49-8.95,.16-3.91v-3.91l-.16-3.9-.33-4.07-.16-3.58-.33-3.58-.49-2.44-.16-1.14-.16-1.31,2.93,.33h2.93l5.86-.17,11.23-.49,5.69-.16,5.55-.15Zm-38.07,114.22l.16,2.93-1.14,1.29-1.14,1.31-.81,.97-.66,.98-.32,1.31v1.3h.32l1.31-.65,1.14-.97,2.12-2.28,.49,1.31,.49,1.14-1.63,2.12-1.79,2.61-1.63,2.61-.49-1.63-.16-1.47-.33-3.26v-3.42l.16-3.25,.81-.49,.81-.49,1.31-1.14,.98-.83Zm95.83,10.41l-.16,1.31v1.3l.16,2.77-2.44,.33h0l.49-1.47,.66-2.12,.16-.97v-1.14h1.14Zm-2.61,0l-.49,.49-.33,.65-.49,1.14-.98,2.27-.81,1.63-1.63,.16h0l.65-1.95,.33-1.31,.32-1.47,.16-.98-.16-.49,3.42-.15Zm-35.31-.33l-.82,1.63-.65,1.79-.49,1.79-.33,1.63h-2.76l.65-1.63,.33-1.31,.98-1.95,.32-1.14,.17-.49-.17-.33h2.77Zm6.67,.17l-1.14,1.47-1.14,1.63-.49,.98-.33,.81-.32,.98v.81h-2.44v-.65l.49-1.63,.49-1.47,.65-1.31,.33-.82,.16-.81h3.74Zm-11.23-.32l-.66,.81-.49,.81-.81,1.31-.49,1.47-.66,1.31-.16,.65-.33,.65-3.25,.17,.16-.98,.49-1.47,.65-1.63,.81-1.3,.49-.98,.33-.81h3.91Zm12.2,.32l.49,.16h4.23l-.81,.98-.66,.97-.97,1.95-.49,1.31-.16,.81-.16,.66h-.63l-2.93-.17,.33-1.63,.49-1.63,1.28-3.42Zm22.94,.32l-.33,.49-.82,1.31-.49,1.14-.65,1.47-.65,1.47-.33,.49-3.58,.17,.65-1.47,.65-1.31,.82-1.95,.16-.33v-1.3l.16-.16h4.4Zm-44.76-.98l3.58,.17-.81,.81-.49,.98-.82,1.47-.98,1.95-.33,1.14v.98l-4.71,.16,.49-.98,.49-.98,1.29-1.79,1.31-1.95,.49-.98,.49-.98Zm28.96,.82l3.73,.16-.49,.66-.49,.65-.65,1.63-.49,1.95-.49,1.79-4.07-.16,.17-.98,.49-.98,.97-1.63,.65-1.3,.33-.81,.34-.98Zm10.74,.16l-.65,.33-.65,.49-.82,.97-.82,.98-.97,1.95-.65,1.95h-2.28l.49-2.11,.66-2.12,.65-2.28v-.16h5.04Zm-45.4-1.14l3.42,.16-.81,.82-.82,.82-1.31,1.95-1.12,2.11-.65,2.11h-2.11l.32-.98,.33-.98,.16-1.12,.49-.98,.97-1.95,1.12-1.97Zm-2.92,0l-.97,1.63-.66,1.47-.49,1.14-.65,1.3-.33,1.31v.65l.16,.66-5.7,.32,.82-1.63,.81-1.63,1.63-2.77,.65-1.14,.49-.65v-.32l-.16-.33h4.39Zm-6.02,0l-1.14,1.14-.82,1.14-1.47,2.61-.97,1.79-.49,.98v.81l-3.58,.33,.16-.49,.66-1.63,.65-1.63,1.31-2.28,.32-.65,.17-.49v-.65l-.17-.65h-.81l-.66,.49-.65,.49-.65,.81-.98,1.47-.66,1.47-.98,1.79-.32,.98-.17,1.12-2.93,.17,.16-.98,.49-1.63,.65-1.47,1.31-2.61,1.47-2.44,10.08,.02Zm-24.25,.49l2.11,.16h2.28l-1.79,2.28-1.79,2.44-1.3,2.28-.49,.97-.33,.81h-.65l-2.28-.16-2.28-.16,1.79-2.12,1.47-2.11,1.63-2.28,1.63-2.11Zm12.2-.49l-.82,.82-.82,.98-1.12,2.11-.65,1.14-.65,1.31-.32,1.47-.17,.65v.82l-6.34,.33,1.31-1.79,.82-1.31,2.11-3.25,1.31-1.63,.65-.65,.65-.65,4.05-.33ZM74.92,21.13l-5.69,.17-5.7,.16-11.23,.65-7.81,.33h-1.31l-1.29,.33-.33-.16-.49-.16-.49,.16-.33,.33-.32,.82-.33,.81-.16,1.63v1.95l.32,1.79-1.14-.16h-1.12l-2.12,.16h-1.14l-1.31,.16-.65,.17-.49,.32-.33,.33-.16,.65v.49l-.16,1.63-.16,1.63-.16,3.58,.16,6.83-.16,8.14-.16,7.97,.16,4.56v4.56l.49,9.12,.65,9.11,.66,9.11,.16,4.23v4.23l-.33,8.46-.32,8.47-.5,8.45-.66,6.18-.16,3.1-.33,3.09v3.26l.17,3.09,.49,2.93,.32,1.47,.49,1.47,.49,.65,.49,.33,.66,.16,.65-.16,.16,.65,.33,.66,.49,.32,.65,.49,1.63,.49,1.95,.33,1.95,.16h1.95l2.61-.16,5.86-.16,5.86-.33,11.56-.65,8.46-.33,8.62-.33h8.47l8.62,.16,8.95,.16,.65,.16h.65l.33-.16h5.22l5.37-.33,5.2-.49,5.22-.81,.49-.16,.32-.16,.82-.16,.65-.33,.49-.65v-.82l-.16-1.63-.16-1.63-.33-1.63v-1.63l3.26-.33,.65-.33,.65-.49,.33-.49,.33-.49,.49-2.76,.32-2.77,.17-2.77v-14.01l-.17-6.67v-6.67l-.49-13.51v-13.32l.33-13.34v-6.34l.16-6.51-.16-3.25-.33-3.1-.32-3.25-.66-3.1-.16-.32-.49-.33-.65-1.14-.82-.97-1.63-1.95-1.79-1.95-1.79-1.79-3.58-3.58-3.25-3.1-1.63-1.47-1.63-1.46-2.11-1.79-.98-.98-1.14-.65-.32-.49-.16-.16-.49-.16-.49-.16-21.8-1.14-10.91-.32-10.96-.18Z" fill="#f3f3f3" fill-rule="evenodd"/></svg>