<?xml version="1.0" encoding="UTF-8"?><svg id="Calque_1" xmlns="http://www.w3.org/2000/svg" viewBox="0 0 173.84 178.2"><path id="Tracé_115" d="M62.28,67.73l1.49,.17,1.49,.33,1.49,.5,1.33,.67,1.16,.66,1.16,1,1.16,.99,.83,1.16,.83,1.16,.66,1.32,.5,1.33,.33,1.49,.17,1.49,.16,1.65-.16,1.49-.33,1.16-.34,1.16-.5,.99-.5,1.16-.66,.83-.83,1-1.65,1.49-1.82,1.32-2.14,1-2.14,.83-2.32,.33-1.33,.16h-1.16l-1.32-.16-1.33-.33-1.16-.5-1.16-.5-1.16-.5-.99-.83-1-.66-1-1-.83-.99-.66-.99-.66-1.16-.5-1.16-.34-1.16-.16-1.33v-1.66l.16-1.49,.34-1.32,.5-1.49,.66-1.33,.83-1.33,1-1.16,.99-1.16,.99-1,1.16-.66,1.15-.66,1.16-.66,2.31-.83,2.65-.83h1.49Zm.17-3.46l-1.99,.17h-.5l-.33,.16-.5,.5-1.32,.33-1.33,.33-1.16,.5-1.33,.5-2.32,1.33-1.99,1.65-1.32,1.16-1.16,1.32-1,1.66-.99,1.49-.66,1.65-.5,1.82-.33,1.82-.16,1.82,.16,1.65,.17,1.65,.5,1.66,.66,1.49,.83,1.32,.99,1.33,1.16,1.16,1.33,1.17,1.32,.99,1.33,.82,1.49,.66,1.65,.66,1.66,.33,1.49,.33,1.65,.17,1.65-.17,1.49-.16,1.49-.16,1.33-.5,1.49-.5,1.32-.5,1.33-.83,1.15-.83,1.16-.82,1.16-.99,1-1,.83-1.16,.82-1.32,.67-1.33,.5-1.33,.5-1.32,.33-1.49,.17-1.99v-1.99l-.34-1.82-.33-1.82-.66-1.66-.99-1.65-1-1.49-1.16-1.49-1.33-1.16-1.49-1.16-1.49-.99-1.65-.82-1.82-.5-1.82-.5-1.82-.17Zm-7.45-31.13l1.49,.16h1.65l3.14,.16,4.14,.17,1.99,.16h1.99v2.32l-1.82-.66-1-.16-.99-.16h-.83l-1,.16-.82,.33-.67,.66-.16,.34v.16l.16,.33h2.14l1.82,.16,1.66,.5,1.82,.66,.17,.99h-1.33l-4.31-.33-1.49-.17h-.66l-.83,.33-.16,.34v.33l.33,.66,.5,.5,.66,.33,.66,.17,1.66,.16,1.32,.16,1.99,.33,2.14,.16,.33,2.32h-.16l-1-.33-.99-.33-2.14-.17-1.66-.33h-1.99v.33l-.16,.34,.5,.83,.5,.5,.83,.33,.82,.33,2.32,.5,2.32,.34h.5l.33-.17,.33-.16,.16-.16,.5,.82,.33,.5,.33,.17,.5,.16h.33l1.66,.5,1.65,.66,1.49,.83,1.49,.99,.34,.16,.32,.17h.83l.5-.5,.33-.5,.82-.5,.83-.5,1.33-1.17,3.14-2.31,1.65-1,1.66-.83,.5-.34,.16-.33,.66,.5,1.99,1.49,1.82,1.49,1.49,1.65,1.49,1.65,.66,.83,.67,.83-1.16,1.32-1.49-1.32-1.49-1.33-.66-.5-.83-.34-.83-.32-.83-.17-.34,.17-.16,.16-.16,.34,.16,.33,.5,.67,.5,.5,1.16,1,1.49,1.49,1.49,1.15h.17l-1.16,1.49-.66-.83-.83-.82-.5-.67-.66-.66-.66-.66-.83-.33h-.16l-.33,.16v.5l.16,.83,.33,.83,1,1.65,.66,1.16,1,1.16-.66,.82-.83,1.33-.66-1.16-.99-1.16-.83-1.16-.66-1.16-.33-.33-.33-.16h-.5l-.33,.5v.82l.16,.66,.33,.82,.34,.66,2.5,3.81,.33,.33,.5,.16,.17,.17,.16,.16,.83,1.82,.33,1.99,.17,1.16,.16,1.15v1.16l.16,1.16,.33,.5,.34,.16,.5,.17h.5l1.49,.5,1.49,.16,2.98,.33,2.14,.33,2.14,.34,1.49,.5,.67,.33h.66l-.16,1.82-.17,1.82,.17,3.48-.17,2.98v1.49l.17,1.49-1.49,.16h0l.16-.66v-.67l-.16-1.32-.33-1.82-.16-.66-.34-.83-.16-.16-.17-.17-.33,.17-.17,.16-.33,.83-.17,.66-.16,1.82v1.49l.16,.66,.34,.66-2.65,.17h-.67l.34-.67,.33-1.65,.33-1.65,.17-1.82-.17-.5-.5-.33h-.5l-.33,.33-.17,.33-.99,3.14-.5,1.49v1.16l.17,.34h-1.33l-1.33,.16,.34-1.99,.16-1.82-.16-.99-.16-.83-.17-.34-.16-.16h-.33l-.33,.16-.5,.67-.17,.66-.5,1.49-.98,4.31v.32l.17,.5-.83,1.66-.83,1.65-.66,1-.66,.99-1.33,1.65-.34,.5v.33l.17,.5,.16,.33,.33,.33h.82l.5-.16,.66,1.16,1,.99,1.65,2.14,1.82,2.65,1.65,2.65-1.15,1.49-1.33,1.49-2.65,2.65-1.99,1.99-.99,.99-.83,1.16-1.49-.99,1.16-.5,.99-.66,1.82-1.16,.33-.33,.16-.34v-.5l-.16-.33-.17-.16-.33-.34h-.5l-.5,.17-1.49,.82-1.66,.99-1.82,.83-.83-.5,.34-.16,1.49-1,.66-.66,.5-.82,.16-.34v-.33l-.16-.5-.16-.33-.33-.17-.33-.16h-.33l-.5,.16-1.16,1.16-1.32,.99-.83,.66-1.65-1.49,1.49-1,.82-.5,.83-.5,.33-.34,.16-.33,.16-.5v-.5l-.16-.34-.33-.16h-.82l-.83,.5-.66,.33-1.66,.99-1.65,1-.66-.16h-.99l-.33,.33h-.98l-.66,.5-.83,.5-1,.33-1.82,.5-.82,.34-.67,.5h-.82l-.34,.33-.16,.33v.17h-.33l-.83,.33-.66,.33-1.49,.83-.83,.16-.66,.16-.66,.17-.67,.16-.33,.5,.16,.34,.33,.5,.66,.33,.66,.17,.83-.17,.83-.16,.83-.33,1.66-.82-.17,.82-1.16,.67-1.33,.66-1.49,.5-.66,.34-.5,.32-.16,.5,.16,.33,.34,.34,.5,.16,.82,.16,1-.32,.99-.15,1.16-.5-.34,1.66v.16l-.33,.16-1.65,.5-1.65,.5-1,.17-.5,.16v.34l-.17,.16v.33l.17,.16,.5,.33,.66,.16,.66,.16h.67l.66-.16,1.33-.33h0l-.17,1.16v1.32h-3.31l-3.31,.33h-5.79v-1.49l-.17-1.65-.33-2.82-.33-2.14-.5-2.66-.34-1.32-.5-.99-.66-1-.34-.17-.5-.33h-.5l-.5,.16-1.49-.5-1.32-.34-1-.5-.99-.5-.99-.5-1-.33-.5-.5-.5-.33h-.67l-.32,.16-.34,.33-2.14-1-1.49-.66-.67-.17h-.33l-.33,.17-.34,.16v.66l.17,.5,.66,.5,1.49,1,1.16,.83-.82,.99-.17-.5-.33-.34-.67-.32h-.66l-.99-.17-.83-.33-.66-.5-.83-.5-.66-.5-.83-.33h-.33l-.17,.16-.16,.17v.66l.16,.5,.17,.5,.33,.34,.83,.82,.99,.66,.66,.5,.83,.33,1,.17h.83l-2.14,1.82-.16-.33-.16-.33-.34-.16-.5-.17h-.66l-.5-.16-.99-.66-1-.83-.17-.16-.33-.17-.34-.16-.33-.16h-.16l-.16,.16-.17,.66v.83l.17,.5,.33,.5,.67,.66,1.15,1,.66,.33,.83,.34-1.33,.66-.33-.16-2.5-2.14-2.5-2.31-2.14-2.14-.99-1.32-.83-1.16,1-1.15,.82-1.16,1.49-2.5,2.5-3.15,2.32-3.14,.16-.16,.5-.33,.33-.66v-.5l-.16-.33-.33-.34-.83-.82-.82-1-1.49-1.82-.83-1.33v-.66l-.16-.5-.17-.5-.5-.34-.66-.16-6.46-.34-3.14-.5-1.66-.16-1.49-.5v-.66l-.16-.83-.34-1.49v-4.8l.34-3.14,.16-1.65v-.83l-.16-.82,1.15-.33,2.5-.5-.66,.99-.5,1-.83,2.14v.67l.17,.16,.16,.33,.5,.33h.66l.34-.16,.16-.16,.33-.5,.5-1.49,.66-1.49,.5-1,.67-1.16,1.16-.16-.66,.99-.5,1.16-.33,1.16-.34,.99v.33l.17,.33,.16,.34,.33,.33,.33,.17h.5l.5-.33,.33-.34v-.16l.33-1.49,.5-1.49,.66-.99,.33-.99h1l-.33,.83-.66,1.82-.17,.83-.16,.83,.16,.33,.17,.33,.5,.34h.66l.33-.17,.16-.33,.34-1.33,.33-1.49,.33-1.16,.16-.99,.83-.17,.33-.16,.33-.34,.17-.33v-.33l.33-.5,.17-.5v-1.02l.16-1,.66-1.82,1.33-3.64,.66-.5,.34-.66v-.67l-.16-.33-.34-.5-2.14-2.32-2.14-2.32-2.14-2.5-2.14-2.31,1.15-.99,1.16-1.17,1.99-2.5,1.16-1.16,1.16-1.16,1.16-.83,1.49-.66,.5-.17h.17l-.99,.67-.83,.66-1,.99-.83,.99-.16,.66v.99l.33,.34,.33,.16h.5l.5-.33,.33-.34,.66-.83,.83-.99,1-.82,1.33-.83,.5,.33-.83,.66-.66,.5-.83,.83-.66,.82-.5,.99-.17,.5v.5l.17,.34,.16,.16,.5,.17h.5l.5-.17,.5-.66,.33-.66,.66-.67,.66-.66,1.33-1.33,.66,.5,.99,.5-1.49,.83-1.32,.83-.99,.82-1,.99-.5,.67-.17,.5v.66l.17,.66,.33,.33,.5,.16,.5-.16,.34-.33,.66-.82,.5-.83,.83-.66,.83-.5,1.32-.83,1.33-.99,1.65,1.16-1.81,1.33-.83,.5-1,.83-.83,.82-.16,.5-.16,.5,.16,.34,.16,.16,.34,.17h.33l.33-.17,.33-.33,.66-.5,.83-.83,.99-.66,2.14-1.49,.34,.16,.5,.16h.5l.5-.32,.33-.34,1.49-.66,1.82-.67,3.48-.99,.5-.32,.33-.5,.16-.17,.34-.99,.33-1,.16-1.99,.33-4.14,.5-2.98,.16-1.65v-1.49l-.05,.03Zm74.52,79.49l.17,.33,.33,.34,.5,.16h.5l1.99,.16,1.99,.5,1.82,.83,.83,.5,.66,.66,.66,.67,.5,.66,.5,.83,.33,.82,.16,.99,.17,1v.99l-.17,1.17-.5,1.49-.66,1.49-1,1.32-.99,1.16-1.16,1.16-1.33,.99-1.33,.66-1.49,.67-1,.16h-1.99l-1-.16-.99-.34-.82-.5-.83-.66-.66-.67-1.33-1.49-1.16-1.65-.66-1.99-.33-1.82v-2.31l.33-1.16,.5-1,.5-.99,.67-.99,.66-.82,.83-.83,1-.83,1.16-.66,1.16-.5,1.33-.33h.16ZM57.98,30.3l-2.14,.16-1.16,.34-.99,.33-.33,.16-.17,.16-.16,.33v.34l-.5,.66-.33,.66-.33,1-.17,.83-.33,3.64-.66,3.48-.16,1.66v1.82l-1.65,.5-1.49,.67-3.15,1.49-5.63-3.97-1.33-1-1.65-1.16-.83-.5-.83-.5-.99-.16h-.7l-.5-.34h-.83l-.66,.34-.83,.5-1.49,1-1.33,1.15-1.15,1.33-2.65,2.82-1.32,1.32-1.16,1.66-.33,.16-.33,.34-.16,.33,.16,.5,.83,1.49,1,1.33,2.14,2.65,2.14,2.98,1.33,1.33,1.15,1.33-.82,1.32-.67,1.49-.82,2.14-.33,1.32v1.16h-1.82l-1.99,.16-3.48,.66-1.49,.17-1.81,.5-.83,.33-.83,.33-.66,.5-.5,.5-.33,.16-.33,.17-.33,.66-.34,.83-.16,1.65-.5,5.47v4.14l.16,.99,.33,.99,.34,.83,.82,.5-.16,.5,.16,.32,.17,.34,.32,.16,1.66,.67,1.49,.5,1.82,.33,1.66,.17,3.48,.5,3.48,.16,.5,1.15,.5,.83,1.15,1.99,1.49,1.65-1.33,1.16-.99,1.32-2.14,2.5-2.32,2.98-1.16,1.33-.33,.83-.33,.66v.5l.16,.5v.83l.16,.82,.33,.67,.5,.82,1.16,1.49,1.16,1.17,1.49,1.65,1.49,1.49,1.82,1.49,1.66,1.33,.33,.32h.34l.66-.16,.83,.16,.66-.16,.83-.16,.83-.34,1.49-.99,1.16-.83,1.65-1.32,1.66-1.49,2.98-3.31,.66,.66,.83,.33,1.49,.66,2.14,.99,1.16,.34,1.16,.16,.33,1.33,.17,1.16,.5,2.66,.33,2.65v3.15l.17,.67,.16,.82,.33,.5,.5,.5,.16,.17,.16,.33,.67,.34,.66,.33,.83,.16,.82,.16h1.66l1.48-.16,4.14-.16h4.17l.66-.17,.5-.33,.33-.67,.16-.5,.17-.16,.5-.66,.33-.83,.5-1.82,.33-3.48,.5-3.31,.16-1.66v-1.65h1.82l1.65-.5,1.66-.68,.82-.5,.67-.5,.82,.82,.99,.83,1.99,1.49,3.48,2.5,3.65,2.5,.33,.16,.5,.17,.34-.17,.33-.16,.66-.5,.16-.83,1.33-.99,1.16-1.16,2.32-2.5,2.82-2.82,1.32-1.49,1.32-1.5,.16-.5v-.5l.17-.66-.17-.66-.99-1.66-1-1.65-2.31-2.98-.83-1.16-1-1.16-1.15-.99-1.16-.82,.99-1.49,1-1.66,.5-1.65,.34-1.65,.83,.16,.66,.16h1.65l3.15-.16,3.31-.16,3.48-.34,.5-.16,.33-.33,.16-.34,.17-.32,.5-.17,.33-.33,.33-.5v-10.6l-.33-3.32-.16-.5-.34-.5-.5-.16-.5-.17-.33-.82-.5-.67-.67-.5-.82-.33-1.82-.5-1.65-.17-3.65-.5-1.82-.16h-1.99l-.17-1.99-.33-1.82-.17-1.15-.33-1.16-.5-1.16-.5-.99,.82-1.16,.67-.99,2.5-3.64,1.49-1.82,1.49-1.65,.33-.67v-.66l-.16-.5,.16-.34-.16-.5v-.5l-.5-.66-1.33-1.49-1.65-1.82-1.82-1.82-1.32-1.16-1.82-1.32-.83-.5-1-.5-.99-.17-.83,.17h-.33l-.5,.16-1.65,.83-1.66,1-3.14,2.14-1.82,1.33-.99,.82-.82,.83-1.33-.83-1.49-.66-1.65-.5-1.49-.16-.17-.17-.66-1.99-.33-1.99v-.16l.17-.33v-.16l-.5-.83-.34-3.64-.16-1.82-.5-1.65,.33-.33v-.33l.17-.33-.17-.34-.16-.5-.16-.16-.33-.33h-.5l-2.14-.33h-2.14l-4.29-.17h-2.14l-2.38-.17Zm71.21,79.32l-1.16,.33-2.31,.66-1.82,.83-1.16,.83-1.16,1-1,1.32-.82,1.16-.67,1.32-.5,1.49-.32,1.49-.34,1.49v2.65l.34,1.32,.32,1.33,.67,1.33,.66,1.16,.83,1.15,.83,1.16,.99,.99,1.16,.82,1.16,.67,1.16,.66,1.33,.5,1.33,.33h2.65l1.16-.33,1.16-.16,1.99-1,1.99-1.16,1.65-1.49,1.49-1.82,1.33-1.99,1-1.99,.66-2.14,.16-1.32,.17-1.49-.17-1.16-.33-1.32-.34-.99-.5-1.17-.83-.99-.66-.82-1-.83-.83-.83-1.16-.66-1.16-.5-1.16-.5-1.16-.33-1.33-.33-1.16-.17-1-.33-1.15-.17h-.99Zm3.31-15.23l-.66,.5v.16l-.34,.5,.17,.5,.33,.33-.5,.33-.33,.17-.17,.33v.66l.33,.5,.34,.33,.33,.33,.5,.16-.16,.17-.33,.33-.16,.34,.16,.5,.33,.66,.5,.5,.66,.17,.5,.16,1.82,.33,.99,.16,.33,.16,.33-.16,.5,.5,.66,.33h.33l1.82,.66,.83,.34,.66,.5,.5,.33,.5,.17,.5-.17,.33-.16,.33-.16,.17-.33,1.16-.83,.5-.5,.66-.33,1.49-1.16,1.66-.82,.16-.17,1,.83,1.16,.99,1.49,1.49h0l-.5-.33-.99-.66-.5-.16-.66-.17h-.16l-.5,.17-.34,.5-.16,.33,.16,.5,.34,.5-.5,.33-.33,.33v.5l.5,1.16,.5,1.16,.83,1-.33-.33-.66-.83-.34-.66-.16-.34-.33-.16-.34-.17h-.68l-.33,.17-.16,.33-.16,.34v1.15l.5,1.16,1.49,2.32,.33,.33,.5,.16,.33,1,.16,.99,.17,1.16v.82l.16,.83,.16,.5,.34,.33,.5,.16h.66l1.33,.34,1.33,.16,.83,.16,1.16,.17,1.32,.16,.67,.16,.5,.33v3.64l-.17-.16-.33-.34-.5-.16-.5,.16-.33,.34-.16,.33-.33-.5-.34-.34h-.16l-.33-.16-.5,.16-.33,.34-.34,.32-.33,1.33-.16,.66-.33,.99v-1.49l-.16-.99-.16-.33-.17-.17-.33-.16-.33-.16-.5,.16-.34,.33-.16,.33-.16,.5-.33,.83v.33l-.66,2.5v.5l-.5,.99-.33,.82-.66,1-.67,.83-.16,.33-.34,.33v1.16l.34,.33,.16,.17,.5,.16,.34,.16h.16l.99,1.16,.83,.99,.83,1.33,.99,1.49-.99,.99-.99,1.16-.5,.33-.5-.33-.5-.16-.67,.16-.66,.33v-.66l-.16-.5-.5-.5-.67-.17-.5,.17v-.83l-.16-.5-.16-.16-.34-.17-.33-.16-.5,.16-.5,.17-.66,.33-1.33,.83-.33,.33-.83-.17h-.33l-.33,.17-.67,.16-.5,.34-.82,.5-.67,.16-.66,.16-.66,.33-.67,.16-.5,.34-.66,.33-.5,.16-.5,.33-.66,.16-.67,.16-.66,.34-.16,.33-.17,.16v.5l.17,.34,.16,.33,.5,.33-.33,.33-.16,.33-.16,.34,.16,.33,.16,.33,.33,.33,.5,.16h-.16l-.66,.17-.33,.33-.34,.5,.16,.5,.17,.34,.5,.33,.66,.16-2.14,.16h-2.65l-.16-1.16-.16-1.16-.17-.67v-.66l-.16-1.49-.34-1.49-.33-.66-.33-.5-.5-.5-.66-.34-.33-.16h-.33l-1-.17-.5-.16-1-.5-1.32-.5-.5-.5-.67-.16-.66,.16h-.16l-.83-.33-.16-.16-.67-.34-.82-.16-.67,.16-.32,.5-.17,.5,.17,.67h0l-.34-.17-.66-.5-.67-.33h-.28l-.33,.16-.34,.16-.16,.17-.16,.33,.16,.83,.34,.66h-.34l-.33-.16-.33-.16-.5,.16-.16,.5-.17,.16v.5l-.66-.5-.99-.99-.99-1.16,.66-.83,.5-1,.67-.82,1.16-1.66,1.65-2.14,.5-.5,.16-.5v-.66l-.5-.66-1-.99-.66-1-.33-.33-.17-.33v-.16l-.16-.66-.34-.33-.33-.33-.67-.16-2.14-.16-2.5-.17-2.5-.5-.16-.82v-.5l-.17-1.33,.17-1.49v-.99l.16,.33,.5,.16,.5,.16h.34l.33-.16,.17-.16,.5-.5,.32,.32,.34,.17,.33,.16,.5-.16,.5-.17,.33-.5,.5,.34,.5,.16h.34l.33-.16,.33-.16,.17-.34,.16-.83,.16-.66,.17-.33v-.5l.16-.5,.5-.16,.34-.16,.16-.33,.16-.5,.17-.33v-.33l.16-.83,.16-.83,.5-1.49,.5-1,.34-.5,.33-.66-.16-.66-.34-.67-1.32-1.32-1.33-1.49-1.99-2.32,.83-1,.83-.99,.33-.34,.17,.5,.33,.17,.34,.33h.83v.33l.33,.34,.5,.33v.66l.16,.66,.5,.5,.67,.16,.66-.16,.33-.5,.5-.66-.17,.5-.16,.5,.16,.33,.17,.5,.32,.17h.83l.5-.34,.33-.33h.16l1-1,.5-.16,.5-.33h.5l.66-.16,.5-.33,1.82-.66,1.99-.66,.66-.33,.34-.5,.16-.16,.17-.83,.33-1v-1.82l.17-1.32,.16-1,.16-.99,.17-1,3.8-.05Zm-2.65-3.15l-1.65,.17-1.33,.33-.5,.33-.33,.66-.33,.67-.34,.82-.16,1.82-.17,.83-.16,.99-.16,1.49-.17,1.32-1.49,.67-1.49,.66-1.32-.83-1.82-1.32-.66-.5-1.49-.99-.83-.5-1-.17-.66-.16-.5,.16-.99,.5-.99,.67-1.49,1.49-.83,.82-1.16,1.33-1.15,1.16-.34,.33-.16,.34-.17,.5,.17,.5,.32,.66,.34,.66,.99,1.33,.83,.83,.16,.5,1.16,1.32,1.16,1.33-.67,1.15v.17l-.5,1.16-.33,1.16-1.49,.17-1.49,.16-.83,.16h-.35l-1,.34-1.16,.16-.83,.5-.66,.5-.33,.34-.5,.5-.16,.5-.16,.99v.34l-.34,3.3v2.82l.34,1.16,.16,.5,.5,.33,.16,.66,.5,.34,1.66,.66,1.82,.33,1.82,.34,1.82,.16h.99l.16,.66,.16,.33,.67,.83,.66,1-1.15,.99-.83,1.16-.34,.5-1.32,1.65-.34,.34-.66,.82-.17,.5-.16,.34,.16,.83v.5l.17,.5,.33,.99,.67,.82,.66,.83,.34,.16,1.81,1.99,2.14,1.82,.49,.16,.33,.17,.5-.17h.33l.82-.16,.99-.33,1.49-.99,.17-.16,1.82-1.49,1.66-1.65,1.16,.5,.16,.16,.33,.16,1,.5,1.16,.17v.5l.17,.5,.33,1.65,.17,1.49v2.5l.33,.83,.67,.66,.16,.16,.5,.33,.83,.34,1.32,.16,.83-.16h2.98l2.65-.17h.5l.5-.33,.34-.5,.16-.5,.5-.83,.33-.83,.34-1.82v-.99l.33-1.66,.17-1.65,.82-.16,.67-.17,.99-.33,.66-.34,1.33,1,.66,.5,2.14,1.49,2.14,1.49,.5,.34h.33l.5-.17,.5-.16,.33-.5,.33-.5,1.65-1.49,1-1.16,1.82-1.66,1.49-1.99,.33-.33v-.99l-.16-.67-1.15-2.14-1.49-1.82-.83-1.16-1.16-1,.83-1.49,.5-1.49,.83,.17,1.49-.17h1.65l1.66-.16,1.82-.16,.67-.33,.33-.5,.33-.33,.33-.33,.16-.33v-5.96l-.16-2.65v-.34l-.33-.5-.33-.16-.33-.17-.34-.5-.33-.5-1-.5-1.15-.33-1-.17h-.16l-1.82-.33h-1.99l-.33-1.49v-.34l-.33-1.33-.5-1.16,.5-.66,.16-.33,.66-.83,1.16-1.65,1.32-1.65,.33-.33,.16-.34v-.82l-.16-.17,.16-.16-.16-.66-.16-.5-.83-.83-.16-.33-1.16-1.16-1.16-.99v-.16l-.83-.67-.99-.82-.99-.5-.66-.17-.5-.16-.5,.16h-.16l-.5,.17-1.17,.5-.99,.66-1.82,1.33-.67,.33-1.32,1-1.49-.66-1.66-.33-.33-1.65,.16-.5-.16-.34-.17-.5-.16-.82-.16-1.49-.34-1.66,.16-.5v-.66l-.16-.34-.33-.33-.33-.17-.5-.16-1.82-.16h-3.31l-.82-.17-1.78-.03Z" fill="#f3f3f3" fill-rule="evenodd"/></svg>