<?xml version="1.0" encoding="UTF-8"?><svg id="Calque_1" xmlns="http://www.w3.org/2000/svg" viewBox="0 0 173.84 178.2"><path d="M75.23,65.5c13.13,0,26.26-.06,39.39,.04,3.62,.03,7.23,.63,10.85,.83,4.76,.25,7.51,2.67,7.89,7.39,.63,7.81,1.87,15.69,1.37,23.45-.62,9.6-8.6,12.78-16.51,13.86-10.33,1.42-20.85,1.75-31.3,2.04-11.74,.32-23.5,.08-35.26,.07-9.9-.02-16.82-6.9-16.67-16.86,.08-5.65,.38-11.32,.99-16.94,.84-7.8,8.41-11.34,13.71-11.86,8.47-.83,17.01-1.02,25.52-1.48,0-.18,.01-.35,.02-.53Zm47.07,32.69c2.67-6.15,11.64-7.91,7.65-15.71-2.35,2.52-4.79,5.15-7.24,7.79-.41-.32-.81-.64-1.22-.96,2.16-5.08,9.19-8.11,7.47-15.83-3.02,3.67-5.42,6.6-7.82,9.52-.36-.31-.71-.62-1.07-.92,2.41-3.47,4.81-6.94,7.39-10.65-2.17-.27-3.7-.47-4.79-.61-2.43,3.41-4.7,6.59-6.96,9.77-.42-.31-.83-.61-1.25-.92,2.06-2.98,4.12-5.96,6.6-9.54-6.95,.09-6.67,7.45-12.53,9.36,2.46-3.54,4.32-6.23,6.25-9.02-7.21-1.89-6.28,7.55-12.54,8.23,1.67-2.73,3.02-4.93,4.25-6.93-6.14-3.24-8.61,3.43-13.43,4.05,1.19-1.32,2.38-2.64,4.17-4.63-3.54,0-6.2-.16-8.83,.03-12.89,.89-25.77,2.04-38.68,2.75-7.96,.44-9.36,1.72-8.91,9.85,.9,.17,1.77,.33,2.53,.47-1.01,1.7-1.8,3.03-2.6,4.37,1.7-.1,3.41-.19,6.42-.36-4.05,3.35-7.35,6.26-5.15,11.22,2.45-2.06,4.95-4.15,7.45-6.25,.23,.26,.47,.51,.7,.77-2.92,3.61-5.84,7.21-8.76,10.82,.15,.07,.29,.14,.44,.21,3.57-2.61,7.15-5.21,10.72-7.82,.35,.31,.7,.63,1.05,.94-1.94,2.69-3.89,5.37-5.75,7.95,5.47,2.92,6.86-7.02,13.12-4.22-1.88,1.64-3.3,2.88-4.72,4.12,.24,.46,.47,.93,.71,1.39,4.01-1.42,8.01-2.84,12.49-4.43-.98,1.64-1.74,2.92-3.18,5.32,17.62-.94,34.19-1.65,50.73-2.79,6.58-.45,12.47-4,12.98-12.42-2.34,1.55-4.54,3.01-7.69,5.1Z"/><path d="M138.22,145.43c-5.33,.4-10.45,1.03-15.57,1.12-13.77,.25-27.54,.24-41.31,.39-11.39,.12-22.78,.33-34.17,.5-.79,.01-1.6-.07-2.38,.04-10.48,1.39-11.1,.79-9.53-9.82,1.3-.06,2.67-.12,4.05-.18,15.43-.7,30.85-1.68,46.28-1.99,11.57-.23,23.16,.43,34.74,.65,3.81,.08,7.64,.33,11.42,0,4.48-.39,6.55,1.18,6.16,5.77-.09,1.03,.17,2.1,.31,3.53Zm-15.54-7.58c-4.24,.64-8.36,.3-12.4,.32-22.74,.12-45.47,.89-68.2,1.74-1.8,.07-3.52,2.43-5.27,3.72l.86,1.21c1.24-.77,2.48-1.54,3.88-2.41,.11,1.09,.19,1.77,.24,2.26,3.63-.73,7.05-1.42,10.82-2.18,.05,.22,.23,1.11,.18,.86,3.36,.53,5.93,1.33,8.48,1.28,15.49-.26,30.98-.71,46.47-1.1,8.84-.22,17.68-.47,26.51-.64,3.23-.06,2.75-1.3,1.6-3.34-1.63,.94-2.79,1.62-3.96,2.3-.09-.19-.18-.37-.27-.56l2.62-3.5c-.16-.16-.32-.33-.48-.49-1.95,1.11-3.9,2.22-6.6,3.76,.59-1.69,.79-2.26,1.13-3.25-2.28,1.21-4.14,2.19-6.86,3.63,.6-1.73,.85-2.47,1.25-3.61Z"/><path d="M30.64,33.84c12.26-.27,24.05-.45,35.84-.81,18.78-.57,37.56-1.26,56.35-1.89,.48-.02,.96,.02,1.43-.06,10.16-1.68,10.42-1.44,9.64,8.89-.25,.18-.5,.51-.75,.52-30.8,1.02-61.6,2.07-92.4,2.97-8.58,.25-8.59,.04-10.1-9.61Zm9.53,7.49c.1,.18,.19,.36,.29,.54,2.09-1.03,4.17-2.06,7.35-3.63-.92,1.73-1.28,2.4-1.81,3.39,4.54,.04,9-.14,13.32-.23,22.55-.43,45.08-1.56,67.6-2.8,1.97-.11,3.79-2.75,5.68-4.22-.37-.45-.73-.91-1.1-1.36-1.41,.96-2.81,1.91-5.11,3.48,.93-1.73,1.33-2.46,2.43-4.48-2.86,1.7-4.58,2.72-6.04,3.59-2.86-3.41-4.28-.59-6.26,1.83v-2.76c-3.26-.26-6.22-.79-9.15-.68-14.84,.53-29.67,1.31-44.5,1.83-10.19,.36-20.4,.42-31.2,.63,.62,1.99,.92,2.95,1.3,4.13,1.61-1.06,2.92-1.93,4.23-2.79,.09,.15,.18,.31,.28,.46-1.04,1.31-2.09,2.61-3.13,3.92,.17,.18,.35,.36,.52,.54,2.09-1.19,4.18-2.38,6.28-3.57,.13,.23,.25,.45,.38,.68-.45,.5-.89,1.01-1.34,1.51Z"/><path d="M119.83,127.01c-22.67,1.16-44.89,2.3-67.29,3.45-.19-1.11-.36-1.7-.37-2.29-.19-7.48-.19-7.27,7.48-7.4,15.98-.27,31.95-.77,47.92-1.22,2.44-.07,4.89-.63,7.31-.49,1.15,.07,2.74,.99,3.25,1.98,.9,1.75,1.14,3.84,1.7,5.98Zm-53.1-2.3c1.46,.71,2.7,1.85,3.91,1.82,5.03-.12,10.04-.57,15.06-.94,2.5-.18,5.02-.32,7.47-.78,.78-.15,1.37-1.28,2.05-1.97-.55-.41-1.36-1.29-1.62-1.16-4.63,2.51-9.35,.27-14.01,.39-6.62,.17-13.24,.42-19.86,.61-1.5,.04-3,0-4.36,0,.35,2.03,.58,3.38,.88,5.1,1.35-1.22,2.48-2.24,3.77-3.4,.4,1.34,.66,2.19,.92,3.04,2.02-.96,4.04-1.91,5.78-2.73Zm32.26-2.09c0,.4-.02,.8-.03,1.2,4.78,.56,9.56,1.29,14.36,1.56,.99,.06,2.08-1.58,3.52-2.76h-17.85Z"/><path d="M49.29,52.74c22.47-1.57,44.73-3.12,67.17-4.68,.23,1.11,.43,1.68,.45,2.27,.25,7.48,.23,7.27-7.39,7.52-16.11,.54-32.22,1.31-48.33,2.03-2.25,.1-4.5,.72-6.73,.63-1.13-.05-2.7-.89-3.21-1.84-.98-1.81-1.36-3.95-1.97-5.93Zm53.78,1.2c-2.19-.76-3.77-1.63-5.41-1.79-1.83-.18-3.73,.33-5.6,.48-9.55,.78-19.09,1.63-28.65,2.23-2.45,.15-4.98-.88-7.44-.73-1.17,.07-2.25,1.64-3.37,2.53,.3,.23,.61,.47,.91,.7,20.12-.53,40.24-1.06,60.33-1.59-.3-1.79-.53-3.2-.77-4.6-.5-.49-1-.98-1.51-1.48-.4,1.76-.81,3.51-1.21,5.27-2.13-5.16-2.9-5.07-7.29-1.02Z"/></svg>