<?xml version="1.0" encoding="UTF-8"?><svg id="Calque_1" xmlns="http://www.w3.org/2000/svg" viewBox="0 0 173.84 178.2"><path id="Tracé_146" d="M126.27,56.13l-.09,.82-.21,.83,.02,.58-.8,.12h0l.09-.21,.1-.59-.02-.58-.38-.81-.5-.8-.61-.8-.61-.67,1.51-.16,1.39-.28-.09,.83,.17,1.74Zm-1.32,2.38l-3.26,.34h0l.1-.59-.13-.35-.12-.22-1.23-1.59-1.35-1.71-.24-.22,2.46-.08,.12,.11,.5,.79,.6,.67,.99,1.61,.25,.45,.36,.34,.83,.44,.11,.02Zm-5.12,.52l-1.4,.05-.5-.8-.49-.69-1.34-1.47-.73-.91-.73-.91,1.75-.06,.47-.02,.25,.69,.37,.69,.86,1.14,1.1,1.59,.38,.69Zm-3.74,.25l-2.22-.05-.59,.02-1.1-1.59-1.22-1.6-.5-.92-.72-.67,2.8-.09,.38,.69,.5,.8,1.09,1.25,1.59,2.17Zm-4.91-.07l-1.99-.05-.37-.58-.48-.57-1.09-1.12-1.1-1.25-.6-.56-.72-.45,3.62-.12,.13,.58,.25,.58,.86,1.25,1.48,2.29Zm-4.45-.09l-2.8-.02,.11-.35-.02-.47-.13-.35-.61-.8-.61-.8-.72-.56-1.2-1.01,3.15-.11,.14,.82,.37,.69,.49,.67,.49,.56,1.34,1.72Zm-4.44-.09l-2.81-.03-1.08-1.01-1.09-1.12-.85-.79-.84-.79,3.03-.33,.49,.56,.48,.57,.97,.9,.61,.56,.6,.67,.49,.8Zm-5.62-.05l-2.34-.04-.36-.45-.36-.34-.61-.67-.72-.56-.83-.56-.84-.56,3.5-.35,.25,.58,.26,.69,.97,1.02,1.09,1.23Zm-4.91-.07l-2.92-.02-.26-.58-.36-.45-.85-1.02-.72-.67,3.26-.34,.51,1.27,.85,1.14,.5,.68Zm-5.38-.05l-3.62,.12-.6-.67-1.22-1.48,3.84-.48,.37,.69,.38,.69,.86,1.14Zm-5.96,.2l-2.22,.07-.72-.67-.72-.67-.48-.34-.6-.33,3.85-.25h.22l.02,.59,.13,.58,.25,.45,.26,.58Zm-4.9,.16l-2.34,.08-1.33-1.35-.72-.67,3.04-.1,.5,.92,.73,.91,.13,.22Zm-4.9,.16l-3.39,.11-.36-.45-.25-.34-.73-.79-.72-.67h3.75s.37,.56,.37,.56l.48,.57,.85,1.01Zm-5.85,.19l-1.51,.05-.25-.34-1.09-1.14-1.2-1.01,1.87,.06,.37,.57,.48,.45,.97,1.02,.36,.34Zm-3.97,.01h-.22l-1.64-.06-.6-.67-.72-.67-1.44-1.12h0l3.39,.12-.11,.24-.11,.24v.35s.25,.22,.25,.22l1.21,1.36Zm-4.21-.09l-3.28-.24-.37-.57-.48-.57-.96-.9-.6-.45h0l3.98,.22,.26,.69,.49,.67,.97,1.14Zm77.05,24.43l.13,7.25-.11,7.25c.12,6.43,.04,13.21-.33,20.31-.19,3.59-.43,7.09-.74,10.49l-15.76,.74h-3.74l-3.85,.25-3.73,.24-3.74,.13-9.11,.19-4.56,.03-4.67,.16-9.1,.54-9.22,.54-4.32,.02-4.44,.15-4.08,.14-1.99-.05-2.11-.16-.17-1.75-.18-1.63-.58-17.4-.22-10.51-.11-10.05-.11-10.17-.17-5.14-.41-5.13-.11-3.27-.17-1.63-.29-1.63,.22-.25,.34-.24,.1-.35v-.35s.91-.38,.91-.38l.93-.15,.35,.11h.35s.35-.14,.35-.14l.34-.24,1.98-.07,1.87-.06,4.21,.09,4.1,.1,.94-.03,.24,.22,.35,.1,.22-.12,.34-.25,8.76-.29,.36,.34,.47,.1h.35s.22-.13,.22-.13l.22-.36,7.71-.26,.22,.11,.24,.11,.22-.13,.35-.13h3.86s12.85-.09,12.85-.09l6.31,.02,6.43,.13,2.81,.02,2.8-.09,2.8-.21,2.92-.34,2.59-.19,2.56-.32,1.74-.41,.81-.14,.93-.15-.16,2.11,.07,2.1,.26,4.2,.62,8.05,.25,4.08,.25,3.97ZM50.75,59.36l-2.1,.19-.96-.79-.96-.79-.72-.56-.72-.45-.94-.2-.82,.03h-.11v.22l.5,.92,.73,.79,1.68,1.47-.92,.38-.81,.38-1.56-1.12-1.91-1.22-1.89-1.09,1.15-.39,1.05-.15,2.33-.31,2.45-.08,2.33,.04,.37,.57,.37,.57,.85,.9,.59,.69Zm-5.17,69.02l-.94-.08-.93,.03-1.98,.18-.29-1.74h0l1.06,.31,1.54,.42,.71,.09,.81-.03,.03,.82Zm-.06-1.87l-.36-.34-.47-.22-.83-.32-1.66-.65-1.19-.54-.15-1.16h0l1.42,.42,.94,.2,1.06,.2,.7,.09,.35-.13,.2,2.45Zm-.61-25.34l-1.19-.55-1.3-.42-1.3-.31-1.17-.2-.07-1.98,1.18,.43,.94,.2,1.42,.65,.83,.2,.35,.11,.22-.13,.07,1.98Zm.04,4.79l-1.08-.79-1.19-.78-.71-.33-.59-.22-.71-.21-.58,.02-.06-1.75,.47-.02,1.18,.31,1.06,.31,.95,.43,.59,.22,.58,.1,.09,2.69Zm-.03-8.07l-.6-.45-.59-.33-.96-.55-1.06-.31-.95-.45-.47-.1-.47-.22-.2-2.33,.7,.09,1.06,.31,1.19,.43,.95,.55,.71,.33,.59,.22,.09,2.81Zm.06,8.77l-.1,.35,.1,3.03-.72-.56-.72-.45-1.42-.65-.94-.33-.58-.1-.47-.1-.02-.47,.05-2.11,1.17,.2,1.18,.31,2.48,.87Zm.32,16.47l-.36-.22-.96-.55-.83-.32-1.07-.43-1.07-.43-.36-.22-.21-2.56,1.07,.43,.95,.43,1.42,.54,.24,.11h.35s.35-.02,.35-.02h.22l.12,.11,.12,3.15Zm-.38-32.14l-.03,2.57-.6-.56-.71-.33-1.07-.55-1.43-.65-.83-.21-.7,.02-.22-3.37,.71,.33,.71,.33,1.32,.89,1.44,.89,.71,.33,.71,.32Zm.11,20.8l-.03,2.7-.48-.34-.48-.34-1.18-.43-1.41-.3-1.29-.31,.02-2.92,.7,.1,.71,.33,1.19,.66,.95,.43,.59,.22,.7,.2Zm.14,7.71l-.25-.45-.37-.45-.72-.56-.72-.56-1.42-.65-1.42-.42-.06-1.64,1.53,.3,1.54,.42,1.65,.41h.12l.12,3.61Zm-.27-32.62l-.03,2.46-.6-.56-.61-.56-1.43-.9-1.54-.76-1.53-.41-.05-1.52,.71,.2,.71,.21,.82,.09,.71,.33,1.42,.65,1.43,.78Zm-.07-2.1l-1.19-.66-1.07-.43-.83-.32-.95-.43-.94-.2-.47,.02-.47,.14-.36-4.08,1.19,.55,1.19,.54,2.02,1.1,.83,.44,.48,.34h.22l.22-.12,.11,3.14Zm-.14-4.32l-.84-.79-.84-.56-1.9-.99-1.31-.66-.71-.33-.58,.02-.32-2.56,.35,.1,1.18,.43,1.19,.43,1.66,.88,.48,.22,.35,.11,.47-.02,.46-.13-.02-.58-.36-.45-.37-.45-.6-.45-1.08-.67-1.06-.44-1.31-.66-.71-.2-.82-.09-.19-2.1,.71,.1,1.18,.31,1.07,.43,1.9,.87,1.79,.99,.24,7.23Zm-.93-17.38l-.06,1.52,.05,1.64-1.68-1.23-1.8-1.23-1.67-.88-.71-.33-.59-.22-.02-.47,.06-1.64,.06-1.64,1.57,1.23,1.55,1,1.68,1.11,1.55,1.13Zm.64,8.75l-.61-.57-.71-.55-1.54-.76-.83-.44-.95-.44-1.06-.2-.47-.1-.58,.02-.39-4.55,1.32,.9,.96,.56,2.38,1.44,1.2,.9,.48,.45,.48,.45,.32,2.89Zm91.43,11.19l-.26-4.08-.25-4.08-.74-8.04-.42-5.6-.03-.94-.27-.92,.11-.24,.1-.35-.13-.35-.24-.22-.59-.21-.59-.22-1.17-.07-1.4,.05-1.27,.27,.09-.82-.03-.81-.16-1.52v-.8s-.16-.93-.16-.93l-.13-.46-.24-.34-.25-.22-.47-.1h-.35s-1.17-.07-1.17-.07l-1.17-.08-2.58-.03-4.9,.28-5.85,.08-5.72,.08-3.27,.22-3.27,.11-6.52,.57-6.52,.67-6.52,.69-3.03,.22-3.04,.1-6.07-.03-6.07-.03-6.07-.15-4.45-.32-2.23-.04-2.23-.16-2.33,.08-2.22,.19-2.09,.42-1.06,.27-1.04,.39-.45,.36-.22,.36-.1,.47,.13,.46-.45,.13-.46,.25-.22,.36-.34,.48-.31,1.18-.19,1.41-.07,1.41,.05,1.4,.18,1.86,.26,4.2,.38,4.2,.74,8.28,.45,6.07,.45,6.18,.2,6.07,.09,6.19,.1,6.43-.1,.47,.02,.47,.12,.22,.13,3.74,.36,3.84,.47,3.72,.7,3.72,.13,.35,.12,.22,.13,.58,.25,.45,.48,.34h.57s1.16-.17,1.16-.17l1.17-.15,1.16-.27,1.17-.04,.31,2.33,.25,.45,.36,.45,.36,.22,.36,.22,1.99,.28,1.99,.16,1.99,.05,1.98-.07,4.09-.14,3.97-.13,4.79-.28,4.78-.16,9.67-.67,4.79-.16,4.78-.16,9.58-.09,4.55-.15,4.68-.04,2.33-.19,2.21-.31,2.33-.31,10.04-.25c1.57,.13,5.13,.2,6.8-2.01,.74-.98,.88-2.09,.67-7.17-.12-2.86-.28-5.29-.42-7.16,.32-5.58,.64-11.17,.96-16.75l-.03-7.83-.17-7.83Z" fill="#141325" fill-rule="evenodd"/></svg>