<?xml version="1.0" encoding="UTF-8"?><svg id="Calque_1" xmlns="http://www.w3.org/2000/svg" viewBox="0 0 173.84 178.2"><path d="M86.19,96.51c-.58,0-1.16,0-1.74,0-8.05-.05-16.1-.09-24.15-.15-5.68-.04-11.36-.09-17.04-.14-8.82-.09-17.65-.18-26.47-.28-1.05-.01-1.39-.62-.85-1.53,.65-1.1,1.79-1.55,2.88-2.07,.72-.34,1.46-.22,2.24-.19,2.85,.1,5.7,.12,8.56,.13,8.58,.05,17.17,.08,25.75,.14,9.26,.06,18.52,.16,27.78,.23,5.42,.04,10.83,.08,16.25,.12,9.77,.07,19.53,.15,29.3,.23,8.61,.07,17.21,.14,25.82,.21,.82,0,1.64,.06,2.46,.06,1.25,0,1.82,.85,1.35,2.02-.48,1.21-1.48,1.86-2.79,1.85-8.63-.07-17.26-.14-25.89-.21-11.7-.1-23.4-.2-35.1-.28-2.78-.02-5.56,0-8.34,0,0-.05,0-.09,0-.14Zm9.91-2.76c-.29,0-.48,0-.66,0-5.99-.05-11.99-.1-17.98-.14-7.35-.05-14.7-.1-22.05-.15-4.83-.04-9.67-.09-14.5-.13-6.65-.05-13.3-.08-19.94-.16-1.29-.02-1.83,.91-2.55,1.66,1.06,.02,2.1,.29,3.03-.53,.6-.53,.93-.34,1.17,.45,.83,.07,1.62,.06,2.33-.48,.26-.2,.6-.33,.93-.39,.27-.05,.57,.05,.86,.08-.06,.26-.12,.52-.21,.88,.38-.08,.82-.14,1.24-.27,.59-.2,1.15-.51,1.75-.66,.34-.09,.99-.06,1.05,.09,.22,.55-.37,.58-.71,.76-.03,.02-.05,.07-.2,.32,.83-.2,1.5-.33,2.15-.53,.94-.29,1.86-.65,2.8-.92,.16-.05,.42,.2,.63,.32-.15,.18-.26,.43-.45,.53-.31,.16-.66,.21-1.13,.34,1.51,.32,2.85,.22,4.09-.22,.63-.22,1.28-.42,1.93-.57,.18-.04,.4,.16,.61,.25-.09,.17-.17,.36-.28,.52-.05,.08-.16,.12-.24,.18,.96-.27,1.86-.65,2.8-.93,.31-.09,.7,.05,1.05,.09-.22,.26-.45,.51-.67,.77-.03,.03-.05,.07-.12,.18,.36-.06,.68-.07,.96-.16,.73-.24,1.44-.55,2.17-.77,.28-.08,.62,.03,.93,.06-.07,.27-.13,.54-.19,.8,.95,.11,1.89,.11,2.61-.81,.15-.19,.78-.3,.93-.17,.37,.34-.05,.61-.3,.85-.02,.02,0,.08,.03,.31,.64-.19,1.25-.34,1.84-.56,.5-.18,.95-.47,1.45-.65,.18-.06,.43,.06,.65,.11-.07,.22-.12,.45-.22,.66-.04,.09-.17,.14-.26,.2,.03,.08,.06,.16,.09,.24,.7-.18,1.39-.35,2.09-.54,.49-.13,1.05-.61,1.32,.29,.02,.07,.29,.1,.44,.1,1.35,.03,2.71,.16,3.89-.7,.09-.07,.22-.12,.33-.13,.27-.02,.66-.13,.79,0,.15,.15,.07,.52,.09,.82,.9,.28,1.65-.39,2.5-.66,.28-.09,.63-.16,.88-.06,.14,.05,.13,.47,.18,.71,.85,0,1.73,.11,2.57-.03,.89-.15,1.74-.55,2.62-.79,.26-.07,.57,.03,.85,.05-.07,.28-.13,.56-.2,.84,.23,0,.56,.07,.84-.01,.67-.2,1.3-.49,1.97-.7,.74-.23,.97,.01,.75,.88,.44-.11,.83-.18,1.21-.29,.9-.27,1.78-.58,2.69-.82,.16-.04,.39,.16,.59,.24-.1,.19-.18,.4-.31,.57-.06,.08-.21,.1-.32,.15,.02,.08,.04,.16,.06,.24,1.47-.29,2.95-.58,4.42-.88,.87-.18,.92-.15,.99,.71,.71,.1,1.33,.07,1.89-.52,.34-.36,.9-.54,1.4-.7,.19-.06,.47,.16,.71,.25-.13,.19-.23,.43-.41,.57-.19,.15-.46,.21-.76,.34,1.07,.33,2.05,.24,2.84-.22,.33-.19,.67-.39,1.02-.53,.4-.16,.93-.52,1.21,.01,.27,.53-.4,.57-.69,.8-.01,0-.01,.04-.03,.1h3.22c-.28-.83,.54-.97,.92-1.55Zm56.41,.53c-.95-.04-1.76-.29-2.48,.39-.38,.36-.85,.64-1.32,.87-.17,.09-.46-.06-.7-.1,.08-.22,.11-.49,.26-.65,.18-.2,.46-.32,.7-.48-.04-.06-.07-.12-.11-.19-1.24,.51-2.47,1.03-3.72,1.5-.25,.09-.77,.05-.86-.1-.25-.44,.19-.6,.52-.75,.35-.16,.7-.31,1.04-.46-.03-.09-.07-.17-.1-.26-.83,.26-1.66,.49-2.47,.79-.65,.24-1.26,.61-1.91,.85-.24,.09-.56-.05-.85-.08,.13-.24,.25-.48,.41-.7,.07-.1,.21-.14,.32-.21-.19-.04-.34,0-.49,.06-.72,.26-1.43,.58-2.17,.77-.28,.07-.83-.04-.91-.22-.21-.49,.31-.53,.63-.64,.41-.15,.83-.28,1.24-.42-.03-.1-.06-.2-.1-.3-.92,.25-1.85,.49-2.77,.76-.53,.16-1.04,.41-1.58,.52-.29,.06-.62-.1-.93-.17,.2-.23,.38-.47,.6-.68,.1-.1,.27-.13,.55-.26-.63,0-1.3-.19-1.49,.03-.63,.73-1.54,.71-2.31,1.04-.24,.1-.57-.02-.86-.04,.06-.27,.11-.55,.19-.95-.99,.46-1.95,.91-2.92,1.36,.26,.14,.47,.17,.68,.18,8.84,.11,17.69,.22,26.53,.32,.96,.01,1.79-.84,1.84-1.84-.75,0-1.5-.04-2.24,.02-.34,.03-.69,.19-.99,.37-.45,.28-.83,.66-1.28,.92-.2,.12-.5,.05-.76,.07,.06-.25,.09-.52,.21-.74,.09-.18,.3-.3,.61-.59Zm-56.62,.93c.01,.09,.03,.18,.04,.27,4.1,0,8.21,0,12.31,0,.13,0,.27-.06,.38-.13,.31-.19,.59-.44,.91-.61,.49-.26,1.01-.47,1.51-.71-1.06-.16-2.07-.16-3.08-.15-.13,0-.27,.07-.4,.12-1.03,.39-2.05,.79-3.09,1.15-.15,.05-.4-.14-.6-.23,.11-.2,.18-.48,.35-.6,.3-.19,.66-.28,1-.41-1.84-.17-1.86-.17-3.12,.77-.27,.2-.52,.45-.83,.57-.2,.08-.47-.02-.71-.04,.07-.23,.08-.5,.22-.67,.2-.24,.5-.4,.76-.6-1.27-.14-2.5-.14-3.72-.14-.11,0-.24,.05-.33,.12-.55,.42-1.09,.85-1.63,1.28Zm21.99-1.1c-.02-.08-.03-.16-.05-.25-.43,.1-.88,.16-1.3,.3-.75,.25-1.47,.59-2.23,.82-.26,.08-.6-.09-.9-.15,.18-.23,.35-.46,.55-.68,.07-.08,.18-.11,.27-.17-1.47-.05-2.51,.86-3.73,1.37,.01,.06,.03,.12,.04,.19h13.18c-.24-1.18,1.08-.9,1.53-1.52-.69-.02-1.26-.12-1.87,.34-.59,.44-1.39,.64-2.12,.88-.18,.06-.44-.13-.67-.21,.12-.2,.2-.46,.38-.59,.23-.18,.53-.27,.8-.39-.02-.07-.05-.14-.07-.21-.54,.13-1.09,.22-1.62,.39-.96,.31-1.89,.69-2.86,.99-.17,.05-.43-.18-.64-.29,.15-.19,.26-.44,.45-.55,.25-.15,.57-.19,.86-.27Zm10.72-.18c-.5,.18-1,.36-1.49,.54-.88,.33-1.77,.65-2.65,.98,.02,.05,.03,.11,.05,.16,.83,0,1.67,0,2.51,0-.12-1.22,1.17-.88,1.59-1.68Z"/><path d="M128.6,93.92c-.41,.8-1.71,.46-1.59,1.68-.84,0-1.67,0-2.5,0-.02-.05-.03-.11-.05-.16,.88-.33,1.77-.65,2.65-.98,.5-.18,.99-.36,1.49-.54Z" fill="#fff"/></svg>