<?xml version="1.0" encoding="UTF-8"?><svg id="Calque_1" xmlns="http://www.w3.org/2000/svg" viewBox="0 0 173.84 178.2"><path d="M88.01,118.64c-.21,4.06-.39,7.87-.61,11.67-.18,3.21-2.07,5.16-5.24,5.4-1.05,.08-2.12-.02-3.17,.04-.75,.05-1.49,.31-2.23,.34-3.44,.17-6.87,.36-10.31,.39-.98,.01-2.01-.36-2.95-.73-1.87-.74-2.91-2.19-2.91-4.21-.01-2.42,.15-4.83,.16-7.25,.07-13.19,.13-26.38,.15-39.57,0-.56-.29-1.21-.64-1.68-5.39-7.3-10.82-14.57-16.23-21.86-.37-.5-.69-1.05-.99-1.6-.32-.61-.56-1.37,.03-1.83,.46-.36,1.24-.58,1.8-.47,1.19,.23,2.33,.71,3.49,1.09,4.17,1.38,8.33,2.77,12.5,4.15,.06,.02,.13-.01,.25-.03,.02-.18,.05-.36,.06-.55,.07-4.18,.13-8.35,.22-12.53,.02-.99,.07-1.99,.21-2.97,.29-2.02,1.45-3.35,3.38-4.02,2.69-.93,5.4-.69,8.15-.33,1.03,.14,2.1,.09,3.14,.02,2.11-.16,4.14,.09,6.14,.8,3.5,1.25,5.24,3.99,5.94,7.38,.51,2.48,.74,5.05,.78,7.58,.08,4.64-.05,9.28-.13,13.92-.01,.69,.17,1.02,.86,1.3,14.93,6.08,29.85,12.18,44.77,18.3,.73,.3,1.45,.67,2.11,1.1,2.2,1.43,2.72,3.54,1.43,5.84-2.06,3.7-4.82,6.88-7.61,10.03-6.65,7.48-12.97,15.23-18.96,23.25-1,1.33-2.23,2.55-3.53,3.58-1.39,1.1-3.12,1.25-4.67,.32-1.26-.76-2.53-1.64-3.48-2.73-3.64-4.21-7.16-8.52-10.72-12.8-.33-.4-.68-.79-1.17-1.35Zm-6.88-66.68c.06,0,.12,0,.17,0,0-2.02-.06-4.04,.02-6.06,.08-2.02-.43-2.68-2.49-2.85-1.19-.1-2.38-.16-3.56-.35-2.95-.47-5.88-.31-8.76,.4-2.73,.67-3.58,1.88-3.61,4.68,0,.43,0,.86,0,1.29,.13,12.46,.31,24.92,.37,37.38,.07,14.68,.03,29.36,.04,44.03,0,2,.49,2.66,2.26,3.05,.55,.12,1.11,.24,1.67,.22,2.94-.11,5.89-.19,8.83-.42,2.18-.17,2.93-1.01,3-3.17,.17-4.77,.3-9.54,.43-14.31,.32-11.53,.64-23.05,.93-34.58,.25-9.77,.46-19.54,.68-29.3Zm7.71,21.76c0,3.35,.01,6.47,0,9.58-.01,1.92-.03,1.92,1.81,2.47,9.32,2.76,18.39,6.22,27.43,9.76,1.19,.47,2.34,1.11,3.38,1.84,1.53,1.07,1.6,2.05,.39,3.48-3.37,3.97-6.75,7.92-10.13,11.87-1.23,1.43-2.44,2.89-3.72,4.27-1.8,1.95-3.52,1.95-5.37,.08-.44-.45-.88-.9-1.26-1.4-3.99-5.24-7.96-10.5-11.94-15.75-.22-.3-.44-.6-.84-1.13-.14,5.29-.29,10.25-.39,15.21,0,.36,.29,.78,.55,1.09,3.98,4.79,7.95,9.59,11.98,14.33,1.02,1.2,2.21,2.27,3.39,3.32,.63,.56,1.49,.68,2.22,.2,.75-.5,1.41-1.14,2-1.63-.7-.88-1.36-1.54-1.8-2.34-.22-.4-.21-1.15,.04-1.52,.14-.22,1-.18,1.42,0,.76,.34,1.44,.87,2.16,1.32,.93-1.24,1.83-2.46,2.77-3.72-.33-.11-.61-.18-.88-.29-1.69-.67-3.06-1.73-3.8-3.43-.13-.3-.1-.83,.09-1.08,.15-.2,.66-.21,.99-.17,.35,.04,.73,.18,1.01,.39,1.29,1,2.54,2.04,3.86,3.1,1.3-1.59,2.79-3.4,3.94-4.8-.47-.69-.94-1.23-1.23-1.86-.2-.43-.38-1.12-.17-1.43,.21-.31,.95-.49,1.38-.39,.75,.16,1.45,.58,2.27,.93,1.15-1.38,2.34-2.82,3.54-4.27-2.04-.53-3.71-1.49-4.87-3.17-.25-.36-.23-.91-.33-1.37,.49-.08,1.03-.32,1.46-.2,2.02,.56,3.61,1.75,4.73,3.61,1.7-1.88,3.38-3.74,5.01-5.53-.67-.51-1.39-.89-1.88-1.47-.3-.36-.52-1.21-.31-1.48,.28-.35,1.07-.59,1.53-.46,.88,.25,1.67,.79,2.66,1.3,1.27-1.84,2.68-3.76,3.97-5.76,.84-1.3,.64-2.15-.75-2.85-2.44-1.23-4.96-2.3-7.22-3.34-.5,1.29-.92,2.5-1.46,3.64-.14,.29-.74,.59-1.04,.52-.31-.08-.58-.56-.75-.93-.13-.28-.14-.66-.09-.98,.18-1.12,.41-2.22,.63-3.4-2.09-.91-4.28-1.86-6.39-2.78-.25,.78-.34,1.51-.7,2.06-.28,.44-1.01,.99-1.34,.89-.46-.15-1-.86-1.02-1.35-.03-.87,.31-1.76,.51-2.73-1.85-.81-3.87-1.7-5.8-2.55-.3,1.3-.51,2.54-.89,3.72-.24,.76-.57,1.85-1.52,1.69-.94-.16-.95-1.32-.88-2.1,.12-1.46,.44-2.91,.69-4.48-1.71-.76-3.58-1.58-5.38-2.38-.2,.99-.26,1.9-.6,2.7-.21,.49-.84,.8-1.28,1.19-.35-.48-.95-.94-.99-1.45-.1-1.15,.07-2.33,.14-3.67-1.81-.81-3.84-1.73-5.98-2.69,0,.54,.07,.94-.01,1.31-.21,.96-.43,1.92-.78,2.83-.12,.32-.66,.69-.97,.65-.31-.03-.59-.52-.84-.84-.11-.15-.13-.37-.17-.56-.37-1.52,.02-2.94,.63-4.37-.85-.39-1.65-.76-2.79-1.28Zm-.24,12.36c0,3.79,0,7.57,.02,11.34,0,.27,.22,.6,.42,.81,1.6,1.68,3.27,3.28,4.81,5.01,3.44,3.86,6.79,7.79,10.21,11.66,1.08,1.22,1.23,1.18,2.26-.05,2.78-3.29,5.55-6.59,8.33-9.88,1.57-1.86,3.15-3.72,4.9-5.79-10.32-4.37-20.49-8.68-30.95-13.11Zm-27.73-6.32c.05-.23,.09-.32,.09-.41,.04-3.81,.08-7.62,.1-11.43,0-.22,.01-.53-.12-.66-1.17-1.17-.87-2.3,.13-3.47-1.84-.5-3.63-.99-5.51-1.5,0,.67,.09,1.18-.02,1.65-.17,.77-.56,1.54-1.48,1.47-.9-.08-1.26-.86-1.23-1.67,.03-.69,.27-1.37,.42-2.03-2.64-.83-5.31-1.67-7.99-2.51-.08,.1-.15,.2-.23,.31,5.24,6.71,10.49,13.43,15.82,20.26Zm21.99-18.48v7.21c1.21,.09,2.37,.18,3.68,.28v-7.49h-3.68Zm-2.88,73.55c.05,.09,.11,.19,.16,.28,1.15-.37,2.32-.68,3.43-1.13,1.15-.47,1.89-1.4,1.98-2.64,.1-1.44,.02-2.89,.02-4.27h-3.49c-.21,2.71,.37,5.64-2.1,7.76Zm6.85-75.73v-5.6c-1.4-.12-2.72-.24-4.03-.35v5.22c1.39,.25,2.66,.48,4.03,.73Zm-4.1,35.04c1.02-.13,2.02-.26,3.15-.4v-6.48c-.99,.07-2.02,.14-3.15,.22v6.67Zm3.35-9.51v-5.35c-1.03-.15-2.12-.31-3.24-.47v5.82h3.24Zm.2-8.25v-5.07c-1.12-.07-2.24-.14-3.4-.21v5.28h3.4Zm-4.05,47.81c1.15,.12,2.25,.24,3.35,.36v-5.09c-1.14-.1-2.21-.2-3.35-.3v5.02Zm3.38-14.97v-5.57c-.57,.07-1.06,.16-1.55,.17-.48,.01-.97-.05-1.53-.09v5.26c1.07,.08,2.05,.15,3.08,.22Zm.84-58.5c-.11-2.68-2.06-5.84-3.84-6.35v6.35h3.84Zm-4.06,66.18c1.03-.13,2.09-.25,3.2-.39v-4.73h-3.2v5.12Zm3.36-15.94v-4.3h-3.08v4.3h3.08Z"/></svg>