<?xml version="1.0" encoding="UTF-8"?><svg id="Calque_1" xmlns="http://www.w3.org/2000/svg" viewBox="0 0 173.84 178.2"><g><path d="M61.94,44.62c6.27,.13,12.55,.26,18.82,.41,2.31,.06,4.6,.31,6.77,1.18,2.91,1.16,4.98,3.12,6.03,6.14,.77,2.23,1.23,4.5,1.22,6.86,0,1.09-.08,2.18-.09,3.27,0,.49,.1,.98,.11,1.47,.06,2.94-.12,5.87-.48,8.79-.31,2.46-.52,4.93-.93,7.37-.34,2.03-.86,4.03-1.39,6.03-.34,1.3-1,2.47-1.8,3.55-.8,1.08-1.85,1.8-3.15,2.08-3.18,.67-6.31,1.6-9.57,1.91-2.39,.23-4.78,.44-7.17,.6-4.06,.28-8.12,.5-12.17,.79-5.93,.43-11.87,.48-17.81,.24-3.05-.12-6.02-.72-8.92-1.66-1.4-.45-2.8-.96-4.12-1.61-2.39-1.18-3.59-3.19-3.51-5.85,.06-1.85,.28-3.7,.46-5.55,.36-3.7,.77-7.39,1.12-11.09,.35-3.78,.61-7.56,.97-11.34,.14-1.42,.47-2.82,.72-4.22,.09-.53,.38-.89,.92-1.04,.13-.04,.3-.15,.35-.27,.64-1.54,1.89-2.52,3.17-3.47,2.28-1.7,4.8-2.98,7.41-4.09,1.18-.51,2.46-.62,3.73-.62,1.27,0,2.54-.03,3.81-.03,5.16,.02,10.33,.04,15.49,.06,0,.04,0,.07,0,.11Zm-3.33,5.5c0-.05,0-.1,0-.16-2.64,0-5.27-.03-7.91,0-4.14,.06-8.29,.15-12.43,.28-1.49,.05-2.98,.21-4.46,.37-1.5,.16-2.62,.89-3.24,2.31-.22,.51-.5,.99-.77,1.48-.19,.33-.35,.7-.63,.94-.3,.26-.4,.55-.44,.9-.22,2.12-.47,4.23-.65,6.35-.38,4.44-.7,8.89-1.1,13.34-.24,2.66-.62,5.3-.87,7.95-.11,1.16-.13,2.35,0,3.51,.22,1.92,1.52,3.05,3.21,3.75,4.25,1.75,8.68,2.56,13.27,2.69,7.94,.22,15.84-.36,23.75-.83,2.63-.16,5.25-.46,7.88-.65,2.62-.19,5.21-.5,7.78-1.08,1.15-.26,1.92-.9,2.52-1.86,1.02-1.63,1.5-3.46,1.9-5.31,.91-4.23,1.36-8.53,1.65-12.84,.2-2.93,.08-5.87,.12-8.81,.03-2.15-.36-4.22-1.05-6.26-.88-2.59-2.66-4.19-5.22-5-1.73-.55-3.52-.66-5.32-.7-6-.13-12.01-.25-18.01-.38Zm13.44-3.47s-.01-.06-.02-.09c-.07,0-.14-.02-.21-.03-2.27-.05-4.54-.1-6.81-.14-.17,0-.35,.04-.5,.11-1.16,.58-2.32,1.17-3.47,1.76-.11,.06-.2,.13-.31,.2,0,.05,0,.1,.01,.16,.74,0,1.47,.02,2.21,0,.22,0,.47-.08,.66-.2,1.24-.73,2.54-1.3,3.94-1.65,.27-.07,.57-.09,.84-.05,.16,.03,.36,.2,.41,.36,.03,.09-.17,.31-.31,.39-.19,.11-.42,.12-.63,.19-.83,.29-1.65,.58-2.47,.87,.01,.06,.03,.13,.04,.19,.9,0,1.79,0,2.69,0,.1,0,.21-.07,.3-.12,1.06-.57,2.12-1.15,3.18-1.72,.15-.08,.3-.15,.44-.22Zm7.01,.14v-.16c-1.2,0-2.4-.03-3.6,.01-.48,.02-.98,.09-1.42,.27-1.16,.47-2.28,1.02-3.42,1.54-.14,.07-.28,.16-.41,.25l.04,.16c.99,0,1.99-.03,2.98,.01,.73,.03,1.39-.12,2.06-.43,1.24-.59,2.52-1.1,3.78-1.65Zm2.76,2.56c1.1,.45,2.04,.85,3,1.22,.13,.05,.3-.02,.45-.06,1.15-.29,2.3-.58,3.45-.88,.15-.04,.31-.07,.47-.1,.01-.05,.03-.1,.04-.16-.56-.38-1.12-.77-1.69-1.12-.33-.21-.68-.51-1.09-.08-.08,.08-.27,.05-.41,.08-1.38,.35-2.75,.71-4.23,1.09Zm-27.64-1.09c.02,.08,.04,.15,.05,.23,1.25,0,2.5,0,3.74,0,.15,0,.31-.07,.45-.13,.95-.44,1.89-.89,2.83-1.35,.37-.18,.72-.38,1.08-.57-.02-.07-.04-.13-.05-.2-.82,0-1.65,.04-2.47-.01-.78-.05-1.51,.08-2.21,.42-1.14,.55-2.28,1.08-3.43,1.61Zm34.39,5.76c.45,1.18,.86,2.26,1.29,3.39,.71-.34,1.42-.66,2.1-1.02,.11-.06,.21-.29,.18-.41-.15-.71-.33-1.42-.53-2.12-.03-.12-.21-.29-.3-.27-.92,.13-1.83,.29-2.74,.44Zm-2.61-2.77c.29,.24,.5,.4,.7,.57,.2,.18,.46,.33,.58,.55,.47,.83,1.13,.87,1.95,.62,.63-.19,1.3-.25,2.05-.39-.35-.67-.64-1.28-.98-1.87-.07-.12-.28-.2-.43-.21-1.31-.07-2.53,.33-3.88,.72Zm-43.31-2.97s.04,.1,.05,.15c.06,.01,.11,.03,.17,.03,1.11-.01,2.22-.01,3.33-.05,.21,0,.43-.11,.62-.21,1.04-.57,2.07-1.16,3.11-1.75,.13-.07,.25-.15,.44-.26h-4.29c.19,.65-.24,.67-.65,.84-.94,.37-1.85,.83-2.77,1.26Zm42.51-.86v-.15c-.83-.13-1.67-.28-2.5-.4-.44-.06-.91-.2-1.26,.26-.07,.08-.23,.09-.35,.14-1.32,.48-2.65,.95-3.97,1.43-.09,.03-.17,.11-.29,.19,1.01,.08,1.96,.16,2.91,.21,.2,.01,.4-.07,.59-.13,1.37-.44,2.74-.9,4.11-1.34,.25-.08,.5-.14,.76-.21Zm-29.22-1.12s-.02-.1-.02-.15c-.82,0-1.63-.02-2.45,0-.34,.01-.71,.06-1.01,.21-1.2,.57-2.39,1.18-3.58,1.78-.1,.05-.17,.13-.35,.27,1.22,0,2.32,0,3.41,0,.13,0,.28-.06,.4-.12,1.05-.58,2.1-1.18,3.15-1.77,.14-.08,.3-.15,.44-.23Zm34.31,26.15c.58-.33,1.05-.56,1.48-.85,.17-.12,.35-.34,.37-.54,.11-.88,.17-1.77,.23-2.65,.01-.18,0-.36,0-.67-.53,.25-.97,.46-1.4,.67-.38,.18-.54,.46-.53,.91,.02,.63-.05,1.27-.08,1.9-.02,.37-.05,.74-.08,1.23Zm-45.94-26.19c-.68,0-1.4-.03-2.1,.01-.35,.02-.72,.12-1.03,.29-.85,.49-1.68,1.03-2.51,1.55-.16,.1-.31,.24-.52,.4,.8,0,1.51,0,2.21,0,.1,0,.22-.05,.31-.1,1.21-.71,2.42-1.43,3.63-2.15Zm48.1,17.66c-.69,.36-1.29,.67-1.95,1.01v2.54c.6-.22,1.17-.41,1.72-.63,.09-.04,.21-.17,.21-.27,.02-.85,0-1.7,0-2.65Zm-2-3.28c.63-.39,1.2-.74,1.77-1.11,.09-.05,.2-.16,.2-.25,0-.62-.02-1.24-.04-1.95-.79,.36-1.47,.66-2.14,.97-.07,.03-.14,.18-.13,.26,.1,.67,.22,1.33,.34,2.06Zm-.58,15.7c.63-.26,1.14-.47,1.64-.69,.07-.03,.16-.13,.17-.2,.11-.89,.21-1.78,.31-2.67-.04-.03-.09-.06-.13-.09-.56,.37-1.12,.74-1.68,1.12-.03,.02-.06,.08-.06,.12-.08,.77-.16,1.54-.24,2.41Zm1.65,.48s-.07-.08-.11-.12c-.38,.22-.76,.42-1.12,.65-.21,.13-.52,.27-.56,.45-.15,.75-.22,1.52-.34,2.4,.62-.3,1.13-.53,1.63-.79,.09-.05,.18-.19,.2-.3,.11-.76,.2-1.53,.3-2.3Zm.93-16.23c-.72,.47-1.32,.85-1.91,1.23-.04,.03-.07,.11-.07,.16,0,.61,0,1.21,0,1.91,.68-.41,1.26-.76,1.84-1.11,.07-.04,.14-.15,.14-.23,.01-.61,0-1.22,0-1.97Zm-2.15,23.04c-.51,.11-1,.22-1.54,.34-.17,.7-.35,1.48-.55,2.29,1.34-.38,2.03-1.29,2.09-2.62Zm-1.37-.52c.61-.3,1.11-.53,1.6-.78,.07-.04,.14-.14,.16-.22,.1-.49,.19-.98,.3-1.57-.61,.28-1.12,.51-1.63,.76-.07,.03-.14,.14-.15,.22-.09,.49-.17,.99-.28,1.59Zm-.94,3.84c-.1,.31-.22,.69-.34,1.06,.03,.02,.06,.05,.1,.07,.44-.41,1.24-.31,1.48-1.02-.41-.04-.79-.07-1.24-.11ZM35.45,48.68s.03,.08,.04,.11c.36-.03,.71-.06,1.07-.1,.07,0,.15-.05,.19-.11,.3-.39,.6-.78,.92-1.2-.75,.44-1.49,.87-2.22,1.3Zm52.67,40.31c-.35-.17-.56-.27-.79-.38-.23,.44-.45,.88-.67,1.31,.05,.04,.1,.08,.14,.12,.42-.33,.83-.67,1.31-1.05Z"/><path d="M117.39,99.41c5.73,.1,11.47,.2,17.2,.3,2.41,.04,4.83,.06,7.22,.47,1.99,.34,3.87,.99,5.59,2.08,1.54,.97,2.56,2.34,3.29,3.97,.93,2.08,1.36,4.26,1.31,6.53-.02,.84-.08,1.67-.08,2.51,0,.44,.09,.88,.1,1.33,.04,2.61-.12,5.2-.51,7.78-.34,2.18-.55,4.38-.98,6.54-.36,1.81-.89,3.61-1.48,5.36-.51,1.52-1.4,2.85-2.66,3.88-.72,.59-1.56,.95-2.46,1.1-3.44,.6-6.87,1.33-10.33,1.68-4.9,.49-9.82,.72-14.73,.99-4.38,.24-8.76,.49-13.14,.57-4.09,.07-8.2,.04-12.29-.16-4.13-.2-8.15-1.1-12.02-2.56-.88-.33-1.71-.85-2.47-1.4-1.25-.92-1.85-2.26-1.85-3.8,0-1.22,.13-2.44,.28-3.65,.28-2.35,.67-4.68,.92-7.04,.42-3.93,.71-7.87,1.15-11.8,.23-2.03,.66-4.04,1-6.05,.11-.66,.42-1.16,1.15-1.28,.1-.02,.22-.09,.27-.18,.75-1.53,2.16-2.31,3.53-3.15,2.49-1.53,5.15-2.68,7.9-3.65,1.24-.44,2.55-.51,3.85-.52,.95,0,1.91,0,2.86,0,5.8,0,11.59,0,17.39,0v.14Zm-8.75,43.76s0-.09,0-.14c2.49-.12,4.98-.21,7.47-.36,4.66-.27,9.32-.58,13.98-.87,2.84-.17,5.67-.43,8.46-1,1.03-.21,1.8-.72,2.43-1.54,.77-1,1.26-2.13,1.63-3.32,1.29-4.18,1.79-8.51,2.15-12.84,.22-2.72,.11-5.46,.14-8.19,.02-1.43-.24-2.81-.68-4.16-.8-2.49-2.33-4.28-4.86-5.17-1.73-.61-3.53-.85-5.33-.89-8.54-.19-17.09-.39-25.63-.47-5.32-.05-10.64,.09-15.96,.2-1.6,.03-3.2,.19-4.8,.33-1.57,.14-2.8,.82-3.54,2.3-.33,.66-.74,1.32-1.26,1.83-.34,.34-.51,.64-.56,1.08-.37,3.62-.72,7.23-1.1,10.85-.29,2.79-.6,5.59-.93,8.38-.25,2.1-.57,4.18-.8,6.28-.14,1.32,0,2.61,.93,3.68,.64,.74,1.48,1.2,2.39,1.52,3.6,1.27,7.3,2.16,11.11,2.29,4.92,.17,9.84,.16,14.77,.22Zm7.56-40.35l.02,.14c.7,0,1.41,.02,2.11-.01,.32-.02,.64-.12,.95-.22,1.38-.47,2.74-.97,4.13-1.43,.27-.09,.6-.06,.89-.02,.14,.02,.26,.2,.38,.3-.11,.12-.19,.29-.32,.36-.18,.09-.4,.1-.59,.16-.87,.25-1.74,.5-2.61,.76,.01,.06,.02,.13,.03,.19,.93,0,1.85,0,2.78,0,.1,0,.21-.07,.31-.12,.85-.4,1.69-.8,2.54-1.19,.38-.18,.77-.33,1.16-.49-.1-.09-.19-.11-.28-.11-2.35-.05-4.7-.1-7.04-.14-.15,0-.32,.02-.46,.08-1.25,.53-2.5,1.07-3.75,1.61-.08,.03-.15,.09-.22,.14Zm19.24-1.49c-.17-.06-.21-.08-.25-.08-2.51-.12-5.02-.22-7.35,1.02-.43,.23-.91,.38-1.36,.57-.11,.05-.2,.12-.3,.17,0,.04,.01,.09,.02,.13,.64,0,1.29-.04,1.93,0,1.45,.12,2.82-.08,4.17-.69,.97-.44,2.02-.74,3.14-1.14Zm3.08,2.24s.02,.09,.03,.13c.96,.34,1.93,.69,2.9,1.02,.12,.04,.28-.02,.41-.05,.99-.23,1.97-.47,2.96-.69,.41-.09,.82-.14,1.34-.22-.77-.66-1.57-1.04-2.39-1.37-.08-.03-.21,.04-.31,.07-.24,.07-.48,.15-.72,.2-1.41,.31-2.81,.61-4.22,.92Zm6.82,4.2c.47,1.05,.89,2.01,1.35,3.03,.8-.33,1.6-.64,2.38-.98,.08-.04,.17-.24,.14-.34-.17-.63-.35-1.25-.56-1.87-.04-.11-.23-.26-.34-.25-.99,.12-1.97,.26-2.97,.4Zm-35.99-5.16c.01,.07,.02,.14,.04,.21,.89,0,1.78-.04,2.66,0,.91,.05,1.75-.08,2.57-.51,.58-.31,1.24-.48,1.86-.72,.45-.18,.88-.38,1.32-.57-.01-.06-.02-.12-.03-.18-.71,0-1.43,.05-2.13-.01-1.12-.1-2.17,.08-3.2,.52-1.02,.43-2.05,.83-3.08,1.24Zm38.94,3.87c-.4-.64-.73-1.18-1.08-1.69-.06-.09-.25-.14-.38-.14-.63,.04-1.27,.06-1.89,.16-.74,.12-1.47,.31-2.3,.48,.49,.37,.94,.59,1.23,.95,.61,.76,1.31,.86,2.21,.6,.66-.2,1.36-.23,2.22-.36Zm-6.47-4.62s0-.08,0-.12c-.81-.11-1.62-.24-2.43-.33-.52-.06-1.07-.2-1.53,.24-.08,.08-.24,.07-.36,.11-1.37,.41-2.73,.82-4.1,1.24-.1,.03-.19,.1-.32,.17,1.85,.2,3.63,.34,5.34-.42,.34-.15,.73-.21,1.1-.3,.76-.2,1.52-.39,2.28-.59Zm-41.04-1.08c.06,.56-.29,.61-.66,.73-.98,.33-1.93,.72-2.9,1.08l.05,.16c.09,.01,.18,.03,.27,.03,1.11-.01,2.22-.01,3.33-.05,.24,0,.49-.11,.72-.22,1.05-.49,2.1-.99,3.14-1.49,.13-.06,.26-.13,.5-.25h-4.45Zm2.74,1.84l.03,.11c1.18,0,2.36,0,3.54,0,.09,0,.18-.06,.26-.1,1.1-.52,2.21-1.04,3.31-1.56,.13-.06,.26-.12,.4-.18,0-.05-.02-.09-.02-.14-.87,0-1.73-.01-2.6,0-.31,0-.64,.05-.92,.17-1.19,.48-2.37,.98-3.56,1.48-.15,.06-.29,.15-.44,.22Zm43.57,21.54c.71-.34,1.33-.64,1.94-.95,.06-.03,.11-.13,.12-.2,.11-.98,.22-1.97,.34-3.06-.41,.13-.7,.22-.98,.31-.87,.27-1.41,.73-1.3,1.76,.07,.66-.07,1.34-.12,2.13Zm.23-4.45c.7-.21,1.32-.4,1.94-.59,.09-.03,.21-.14,.22-.21,.02-.77,0-1.54,0-2.35-.75,.31-1.42,.59-2.17,.9v2.26Zm-48.4-18.87c-.85,0-1.65-.01-2.44,0-.25,0-.51,.06-.73,.17-.96,.48-1.91,.99-2.86,1.5-.14,.07-.26,.18-.39,.27,.02,.04,.04,.08,.06,.12,1.09-.13,2.19,.1,3.24-.57,.95-.6,2.04-.99,3.12-1.5Zm50.55,9.82c-.97,.37-1.77,.68-2.56,.98,.12,.68,.23,1.33,.35,2.03,.72-.38,1.38-.72,2.03-1.08,.08-.05,.17-.17,.17-.26,.02-.51,0-1.03,0-1.67Zm-2.83,16.95c.7-.25,1.28-.46,1.86-.68,.08-.03,.17-.12,.18-.2,.12-.77,.21-1.55,.34-2.47-.77,.41-1.4,.74-2.02,1.08-.05,.02-.08,.1-.09,.16-.09,.67-.17,1.34-.27,2.12Zm1.89,.22c-.76,.35-1.37,.63-1.99,.92-.04,.02-.07,.07-.08,.11-.11,.68-.21,1.36-.33,2.17,.71-.29,1.31-.53,1.9-.78,.06-.03,.13-.11,.14-.18,.12-.69,.22-1.39,.36-2.25Zm.96-14.12c-.15-.01-.18-.03-.21-.02-.63,.32-1.27,.65-1.9,.98-.05,.02-.1,.09-.1,.14,0,.54,0,1.09,0,1.74,.76-.39,1.41-.71,2.05-1.06,.08-.04,.15-.18,.16-.27,.02-.5,0-1,0-1.52Zm-4.61,22.67s.06,.06,.09,.09c.39-.21,.76-.48,1.17-.61,.94-.29,.88-1.11,1.1-1.8-.59,.08-1.13,.15-1.75,.23-.18,.63-.4,1.35-.61,2.08Zm3.06-5.07c-.68,.24-1.27,.45-1.85,.66-.05,.02-.11,.08-.12,.13-.11,.47-.21,.94-.33,1.52,.7-.29,1.29-.54,1.88-.8,.06-.03,.11-.11,.13-.18,.1-.41,.18-.82,.29-1.33Zm-1.86,5.82c-.5-.09-.92-.16-1.39-.24-.13,.34-.28,.73-.43,1.12,.59-.32,1.35-.28,1.82-.87Zm-2,1.23c-.24,.4-.51,.84-.77,1.28,.04,.05,.09,.1,.13,.15,.48-.3,.96-.6,1.49-.94-.35-.2-.57-.33-.85-.49Zm-54.41-35.42s.03,.1,.04,.14c.37-.05,.8,0,1.1-.17,.33-.19,.55-.59,.82-.89,0-.02-.02-.04-.03-.05-.64,.32-1.29,.65-1.93,.97Z"/><path d="M127.4,44.63c4.49,.13,8.99,.26,13.48,.4,1.63,.05,3.23,.29,4.7,1.05,2.13,1.1,3.51,2.83,4.23,5.1,.81,2.55,1.24,5.15,1.23,7.83,0,1.15-.06,2.31-.07,3.46,0,.59,.08,1.17,.09,1.76,.07,4.45-.3,8.89-.76,13.31-.26,2.59-.65,5.16-1.07,7.73-.27,1.68-.81,3.3-1.69,4.78-.56,.93-1.36,1.52-2.39,1.85-1.18,.38-2.31,.93-3.5,1.2-1.74,.39-3.52,.68-5.3,.88-3.85,.43-7.7,.78-11.56,1.15-4.18,.4-8.38,.47-12.56,.17-3.17-.23-6.11-1.3-8.8-2.97-1.72-1.07-2.56-2.71-2.8-4.7-.22-1.81-.03-3.62,.13-5.42,.54-6.28,.96-12.57,1.26-18.86,.15-3.07,.54-6.13,.83-9.2,.02-.23,.1-.47,.2-.68,.33-.7,.67-1.4,1.03-2.09,.98-1.88,2.53-3.24,4.2-4.48,.74-.55,1.51-1.06,2.28-1.56,1.01-.66,2.12-.87,3.31-.83,.71,.03,1.43-.03,2.14-.03,3.8,0,7.59,0,11.39,0,0,.05,0,.11,0,.16Zm-2.37,5.46s0-.07,0-.11c-1.18,0-2.35,0-3.53,0-4.22-.03-8.45-.04-12.66,.42-1.83,.2-3.06,.95-3.55,2.81-.2,.74-.58,1.44-.88,2.15-.1,.24-.26,.47-.3,.72-.08,.42-.1,.85-.13,1.28-.21,3.52-.38,7.04-.62,10.56-.29,4.39-.64,8.77-.93,13.16-.13,2.01-.27,4.02-.25,6.03,.02,1.8,.86,3.23,2.48,4.12,2.52,1.39,5.18,2.31,8.07,2.51,5.84,.41,11.65-.16,17.45-.66,2.18-.19,4.35-.5,6.53-.72,1.92-.19,3.81-.48,5.64-1.1,.66-.22,1.13-.61,1.47-1.2,.69-1.22,1.05-2.55,1.33-3.91,.91-4.51,1.23-9.09,1.48-13.67,.19-3.52,.14-7.05,.14-10.57,0-1.23-.13-2.47-.31-3.69-.21-1.45-.53-2.88-1.21-4.19-.46-.87-.93-1.78-2.02-2.07-.08-.02-.14-.12-.21-.18-.19-.17-.36-.39-.59-.5-1.16-.59-2.43-.69-3.7-.75-2.01-.1-4.03-.12-6.05-.18-2.56-.08-5.11-.16-7.67-.24Zm1.55-1.64s.02,.06,.03,.1c.49,.02,.97,.08,1.46,.06,.23,0,.47-.12,.67-.24,.8-.48,1.59-.98,2.39-1.46,.19-.11,.42-.2,.63-.19,.22,.01,.53,.11,.61,.27,.16,.31-.12,.46-.38,.58-.59,.27-1.18,.55-1.76,.83-.1,.05-.17,.14-.37,.3,.5,0,.85-.03,1.19,0,.62,.07,1.12-.07,1.57-.55,.37-.38,.85-.65,1.29-.97,.28-.2,.56-.38,.95-.64-.23-.02-.32-.03-.41-.03-1.44-.04-2.89-.06-4.33-.13-.45-.02-.83,.06-1.19,.33-.78,.58-1.57,1.15-2.36,1.72Zm6.79,.21c.02,.07,.04,.14,.06,.21,.89,0,1.77,0,2.66,0,.18,0,.37-.07,.53-.17,.99-.58,1.96-1.17,2.94-1.76,.08-.05,.16-.12,.23-.18-.52-.11-1.01-.06-1.5-.12-1.16-.15-2.19,.13-3.12,.83-.58,.43-1.2,.8-1.81,1.2Zm-5.55-2.27c-1.69-.33-3.19-.26-4.48,.88-.3,.26-.65,.45-.98,.68-.17,.12-.34,.25-.5,.38,.02,.05,.03,.11,.05,.16,.88,0,1.77,.01,2.65-.01,.17,0,.35-.12,.5-.22,.6-.38,1.2-.78,1.79-1.17,.31-.21,.61-.43,.97-.69Zm17.68,1.54c-1.25,.48-2.38,.91-3.5,1.33,.42,.28,.85,.37,1.16,.61,.74,.56,1.43,.57,2.24,.15,.5-.26,1.09-.34,1.78-.54-.63-.58-1.18-1.09-1.68-1.55Zm-29.45-1.76c.13,.53-.12,.67-.5,.86-.71,.36-1.34,.86-2.01,1.3,.41,.11,.78,.07,1.13,.11,1.16,.14,2.11-.21,2.94-1.05,.44-.45,1.01-.79,1.58-1.22h-3.13Zm28.21,1.12c-.54-.13-.98-.25-1.43-.34-.52-.1-1.07-.38-1.49,.22-.02,.03-.08,.04-.13,.06-.91,.45-1.82,.89-2.72,1.35-.11,.06-.21,.15-.38,.27,.8,.07,1.51,.13,2.22,.19,.07,0,.16-.02,.23-.05,1.19-.55,2.38-1.1,3.7-1.7Zm-21-1.1c-1.27-.07-2.41-.24-3.4,.65-.53,.48-1.15,.85-1.73,1.26-.1,.07-.21,.12-.31,.17,.03,.04,.07,.09,.1,.13,.43,0,.85-.03,1.28,0,.79,.07,1.44-.08,2.04-.69,.56-.57,1.28-.98,2.02-1.53Zm21.78,4.83c.58,.75,1.07,1.38,1.59,2.05,.57-.14,1.19-.3,1.87-.47-.2-.59-.41-1.12-.57-1.66-.12-.41-.41-.52-.76-.45-.7,.15-1.4,.34-2.14,.53Zm2.88,6.1c.39-.26,.74-.48,1.08-.72,.09-.06,.18-.21,.16-.31-.13-.84-.28-1.68-.43-2.6-.63,.14-1.19,.27-1.73,.39,.31,1.1,.61,2.13,.92,3.23Zm-37.6-8.7c.05,.07,.09,.13,.14,.2,.78-.08,1.62,.12,2.24-.66,.24-.3,.6-.52,.91-.76,.41-.31,.83-.61,1.34-.97-1.11-.01-2.13-.18-2.91,.72-.29,.33-.66,.59-1,.88-.24,.2-.48,.39-.72,.59Zm38.04,23.5s.1,.1,.14,.14c.2-.26,.55-.5,.58-.78,.14-1.14,.18-2.29,.26-3.46-.83,.22-.94,.36-.95,1.07,0,.4-.02,.79-.03,1.19,0,.61,0,1.22,0,1.83Zm.03-4.81l.13,.08c.27-.19,.76-.35,.78-.56,.09-.88,.04-1.78,.04-2.67-.05-.03-.1-.05-.15-.08-.27,.32-.71,.62-.77,.98-.12,.73-.04,1.5-.04,2.26Zm-.04-6.84c.37-.37,.85-.63,.94-.99,.15-.59,.04-1.24,.04-1.99-.46,.3-.8,.5-1.11,.72-.07,.05-.13,.19-.12,.28,.07,.62,.16,1.24,.25,1.98Zm-.38,15.64s.07,.05,.11,.08c.23-.18,.64-.33,.67-.55,.14-.88,.17-1.78,.24-2.67l-.15-.08c-.22,.26-.59,.49-.64,.78-.15,.8-.17,1.63-.24,2.44Zm.7,.86s-.09-.06-.14-.09c-.21,.21-.57,.39-.62,.63-.15,.79-.19,1.61-.27,2.42,.05,.03,.1,.06,.14,.09,.22-.23,.59-.44,.64-.71,.15-.77,.17-1.56,.24-2.35Zm-.3-13.44c.07,.05,.14,.09,.22,.14,.25-.3,.65-.57,.71-.9,.12-.6,.03-1.25,.03-1.87l-.14-.08c-.27,.32-.7,.61-.78,.98-.13,.55-.03,1.15-.03,1.73Zm-1.1,19.35c1.2-.42,.77-1.37,1.03-2.11-1.17,.36-.72,1.35-1.03,2.11Zm-.4,3.02c1-.43,.71-1.38,1-2.21-1.13,.48-.74,1.48-1,2.21Zm-38.54-36.93s.02,.07,.03,.1c.26-.03,.53-.05,.79-.09,.08-.01,.18-.07,.22-.14,.2-.38,.39-.77,.62-1.24-.59,.49-1.12,.93-1.66,1.37Zm38.06,38.7c.06,.06,.13,.11,.19,.17,.16-.19,.33-.38,.49-.57-.06-.05-.12-.11-.18-.16-.16,.19-.33,.38-.49,.56Z"/><path d="M47.92,99.53c4.14,.12,8.29,.24,12.43,.38,2.16,.07,4.17,.6,5.82,2.12,1.32,1.22,1.98,2.77,2.43,4.45,.53,1.99,.82,4.01,.79,6.08-.04,3.54,.01,7.08-.18,10.61-.22,4.14-.53,8.27-1.3,12.36-.29,1.55-.68,3.07-1.4,4.49-.56,1.11-1.38,1.88-2.61,2.2-1.95,.51-3.86,1.22-5.84,1.52-3.26,.49-6.56,.76-9.85,1.07-2.29,.22-4.59,.41-6.89,.51-2.86,.12-5.72,.18-8.56-.23-2.25-.32-4.36-1.14-6.35-2.24-2.15-1.19-3.1-3.12-3.06-5.49,.03-2.25,.27-4.5,.41-6.75,.32-5.07,.6-10.14,.96-15.21,.17-2.39,.45-4.77,.7-7.16,.05-.51,.14-1.02,.72-1.24,.07-.03,.13-.14,.16-.22,.46-1.71,1.75-2.82,2.99-3.91,1.12-.98,2.36-1.82,3.58-2.68,.77-.55,1.67-.75,2.61-.76,2.94-.01,5.88-.02,8.81-.02,1.21,0,2.41,0,3.62,0,0,.05,0,.09,0,.14Zm17.11,19.18c0-1.27,0-2.54,0-3.81-.01-1.81-.3-3.57-.78-5.31-.45-1.63-1.25-2.98-2.75-3.85-1.21-.7-2.55-.85-3.91-.9-4.62-.15-9.24-.3-13.86-.41-4.29-.1-8.57-.11-12.85,.32-1.67,.17-2.8,.85-3.25,2.55-.18,.67-.53,1.29-.79,1.93-.1,.24-.26,.48-.28,.73-.23,3.26-.43,6.53-.65,9.79-.3,4.48-.64,8.96-.93,13.45-.1,1.6-.18,3.2-.14,4.8,.03,1.49,.74,2.68,2.05,3.45,1.72,1.02,3.57,1.76,5.54,2.12,2.77,.5,5.57,.44,8.36,.32,5.09-.22,10.17-.67,15.23-1.32,1.61-.21,3.2-.43,4.77-.89,.91-.27,1.52-.81,1.81-1.67,.39-1.14,.82-2.28,1.02-3.46,1.02-5.9,1.39-11.85,1.4-17.83Zm-10.41-17.35c-.13-.04-.2-.07-.27-.08-1.4-.05-2.79-.09-4.19-.14-.08,0-.17,0-.23,.03-.85,.59-1.7,1.18-2.55,1.78,.02,.04,.03,.08,.05,.12,.26,.02,.53,.03,.79,.06,.51,.06,.91-.09,1.34-.41,.64-.48,1.38-.83,2.09-1.21,.17-.09,.4-.12,.6-.1,.12,.01,.3,.16,.33,.27,.03,.12-.05,.31-.15,.4-.1,.1-.28,.13-.43,.2-.52,.25-1.04,.5-1.56,.76,.02,.05,.04,.1,.06,.16,.78-.06,1.59,.3,2.31-.47,.5-.53,1.17-.89,1.82-1.37Zm-1.11,1.75c.03,.08,.06,.16,.09,.25,.82,0,1.64,0,2.46,0,.12,0,.24-.08,.34-.14,.83-.5,1.66-1,2.48-1.5,.1-.06,.18-.14,.28-.21,0-.04-.02-.08-.03-.12-.47,0-.94,0-1.41,0-.44,0-.95-.12-1.31,.05-1,.49-1.93,1.11-2.89,1.68Zm10.88-.57c-1.17,.45-2.24,.86-3.38,1.3,.69,.4,1.25,.74,1.84,1.05,.1,.05,.29-.01,.43-.06,.46-.17,.9-.38,1.36-.55,.36-.13,.74-.21,1.26-.36-.58-.54-1.08-.99-1.51-1.39Zm.91,5.5c.29,1.07,.55,2.04,.83,3.06,.5-.33,.95-.61,1.38-.93,.1-.07,.18-.27,.16-.4-.09-.63-.2-1.25-.34-1.87-.02-.11-.24-.27-.35-.25-.56,.1-1.11,.25-1.69,.39Zm-16.91-6.88c-.11-.05-.15-.09-.19-.09-1.37-.18-2.68-.11-3.79,.88-.29,.26-.65,.45-.97,.68-.09,.06-.16,.16-.24,.24,.01,.05,.03,.1,.04,.15,.76,0,1.52,0,2.27,0,.13,0,.27-.08,.39-.15,.61-.4,1.22-.8,1.83-1.21,.22-.15,.42-.31,.66-.5Zm18.69,5.55c-.19-.52-.37-1.02-.54-1.52-.09-.28-.28-.37-.54-.35-.82,.07-1.58,.35-2.31,.68,.4,.57,.76,1.11,1.14,1.63,.05,.07,.19,.13,.27,.12,.64-.17,1.27-.35,1.98-.56Zm-9.3-3.46s.02,.1,.04,.14c.46,.05,.92,.06,1.38,.14,.38,.07,.7-.02,1.04-.19,.85-.42,1.73-.78,2.59-1.17,.1-.05,.19-.11,.29-.16,0-.04,0-.09-.01-.13-.63-.12-1.26-.25-1.9-.36-.1-.02-.22,.07-.33,.13-.19,.1-.37,.23-.56,.33-.84,.42-1.69,.84-2.53,1.26Zm-22.06-.45c.03,.06,.05,.12,.08,.18,1.09-.12,2.29,.33,3.19-.76,.24-.29,.59-.47,.89-.71,.22-.17,.44-.33,.73-.55h-2.72c.06,.45-.16,.6-.51,.77-.59,.29-1.11,.7-1.66,1.07Zm8.47-1.8s-.09-.05-.14-.06c-1.07-.11-2.09-.06-2.94,.73-.25,.24-.57,.41-.85,.62-.23,.17-.45,.36-.68,.53,.02,.04,.03,.08,.05,.11,.68,0,1.35,0,2.03,0,.07,0,.16-.03,.22-.08,.77-.61,1.53-1.23,2.31-1.86Zm22.26,23.58c.68-.47,1.38-.85,1.28-1.86-.05-.47,.04-.95,.06-1.42,0-.26,0-.52,0-.79-.88,.24-1.28,.73-1.31,1.53,0,.21-.02,.41-.02,.62,0,.63,0,1.25,0,1.92Zm-33.7-21.65c.03,.05,.06,.11,.09,.16,.65-.09,1.35,.15,1.9-.5,.27-.32,.65-.56,.99-.82,.32-.25,.65-.47,.97-.71-.01-.04-.02-.08-.04-.13-.56,.04-1.22-.09-1.65,.16-.82,.49-1.52,1.21-2.26,1.83Zm33.77,17.22c.43-.22,.78-.39,1.13-.58,.08-.05,.19-.15,.19-.24,.01-.77,0-1.54,0-2.38-.48,.33-.88,.6-1.33,.9v2.29Zm-.05-6.21c1.21-.62,1.71-1.81,1.21-2.86-.43,.27-.86,.53-1.29,.8-.07,.04-.13,.15-.12,.23,.06,.61,.13,1.22,.2,1.84Zm1.07,11s-.08-.04-.12-.06c-.38,.35-.95,.64-1.09,1.07-.23,.66-.17,1.41-.23,2.22,.46-.27,.8-.47,1.13-.68,.08-.05,.13-.18,.14-.28,.07-.76,.12-1.51,.18-2.27Zm-1.74,6.55s.09,.06,.13,.09c.36-.27,.93-.47,1.04-.82,.22-.69,.2-1.46,.28-2.2-.06-.03-.11-.05-.17-.08-.37,.34-.91,.63-1.06,1.05-.22,.6-.16,1.3-.22,1.96Zm.69-14.6c1.28-.79,1.64-1.62,1.27-2.86-.42,.36-.82,.7-1.21,1.05-.04,.03-.05,.12-.05,.18,0,.52,0,1.03,0,1.63Zm-.09,17.87c-.32,.06-.64,.13-1.02,.2-.11,.66-.24,1.39-.38,2.17,1.06-.59,1.52-1.42,1.4-2.38Zm-.86-.57c1.13-.6,1.46-1.18,1.26-2.17-1.05,.45-1.29,.86-1.26,2.17Zm.2,3.64c-.32-.09-.57-.16-.84-.24-.09,.38-.18,.78-.27,1.17,.34-.36,.97-.38,1.11-.93Zm-1.69,2.56c.05,.04,.1,.07,.15,.11,.28-.31,.56-.62,.76-.84-.21-.22-.35-.36-.47-.48-.12,.34-.28,.78-.44,1.22ZM31.02,103.19c.95,.24,.86-.61,1.25-.9-.03-.03-.05-.06-.08-.09-.37,.31-.74,.62-1.18,.98Z"/><path d="M72.05,46.64c-.15,.07-.3,.14-.44,.22-1.06,.57-2.12,1.15-3.18,1.72-.1,.05-.2,.12-.3,.12-.9,0-1.79,0-2.69,0-.01-.06-.03-.13-.04-.19,.82-.29,1.65-.58,2.47-.87,.21-.07,.45-.09,.63-.19,.14-.08,.34-.3,.31-.39-.05-.15-.25-.33-.41-.36-.27-.04-.57-.02-.84,.05-1.39,.35-2.7,.92-3.94,1.65-.19,.11-.44,.19-.66,.2-.74,.02-1.47,0-2.21,0,0-.05,0-.1-.01-.16,.1-.07,.2-.15,.31-.2,1.16-.59,2.31-1.18,3.47-1.76,.15-.07,.33-.12,.5-.11,2.27,.04,4.54,.09,6.81,.14,.07,0,.14,.02,.21,.03,0,.03,.01,.06,.02,.09Z" fill="#fff"/><path d="M79.06,46.78c-1.26,.54-2.54,1.06-3.78,1.65-.67,.32-1.32,.46-2.06,.43-.99-.04-1.99-.01-2.98-.01l-.04-.16c.14-.08,.27-.18,.41-.25,1.14-.52,2.26-1.07,3.42-1.54,.44-.18,.94-.26,1.42-.27,1.2-.04,2.4-.01,3.6-.01v.16Z" fill="#fff"/><path d="M81.82,49.34c1.48-.38,2.85-.74,4.23-1.09,.14-.04,.33,0,.41-.08,.41-.43,.75-.13,1.09,.08,.57,.36,1.13,.75,1.69,1.12-.01,.05-.03,.1-.04,.16-.16,.03-.31,.06-.47,.1-1.15,.29-2.3,.59-3.45,.88-.15,.04-.33,.1-.45,.06-.96-.37-1.9-.77-3-1.22Z" fill="#fff"/><path d="M54.18,48.25c1.14-.54,2.29-1.07,3.43-1.61,.7-.34,1.43-.46,2.21-.42,.82,.05,1.64,.01,2.47,.01,.02,.07,.04,.13,.05,.2-.36,.19-.72,.39-1.08,.57-.94,.46-1.88,.9-2.83,1.35-.14,.07-.3,.13-.45,.13-1.25,.01-2.5,0-3.74,0-.02-.08-.04-.15-.05-.23Z" fill="#fff"/><path d="M88.57,54.01c.91-.15,1.83-.31,2.74-.44,.09-.01,.27,.16,.3,.27,.2,.7,.38,1.41,.53,2.12,.03,.12-.07,.36-.18,.41-.68,.36-1.39,.68-2.1,1.02-.43-1.13-.84-2.21-1.29-3.39Z" fill="#fff"/><path d="M85.96,51.24c1.35-.39,2.57-.79,3.88-.72,.15,0,.37,.09,.43,.21,.33,.59,.63,1.2,.98,1.87-.76,.14-1.42,.2-2.05,.39-.83,.25-1.48,.21-1.95-.62-.13-.22-.38-.38-.58-.55-.2-.17-.41-.34-.7-.57Z" fill="#fff"/><path d="M42.65,48.27c.92-.42,1.83-.88,2.77-1.26,.41-.16,.84-.19,.65-.84h4.29c-.19,.11-.31,.19-.44,.26-1.03,.58-2.07,1.17-3.11,1.75-.19,.1-.41,.2-.62,.21-1.11,.03-2.22,.04-3.33,.05-.06,0-.11-.02-.17-.03-.02-.05-.04-.1-.05-.15Z" fill="#fff"/><path d="M85.16,47.41c-.25,.07-.51,.13-.76,.21-1.37,.45-2.74,.9-4.11,1.34-.19,.06-.4,.14-.59,.13-.95-.05-1.89-.14-2.91-.21,.12-.08,.2-.16,.29-.19,1.32-.48,2.65-.95,3.97-1.43,.12-.04,.28-.05,.35-.14,.35-.46,.82-.32,1.26-.26,.84,.12,1.67,.26,2.5,.4v.15Z" fill="#fff"/><path d="M55.94,46.28c-.15,.08-.3,.15-.44,.23-1.05,.59-2.1,1.18-3.15,1.77-.12,.07-.26,.12-.4,.12-1.09,0-2.19,0-3.41,0,.18-.14,.25-.22,.35-.27,1.19-.6,2.37-1.21,3.58-1.78,.3-.14,.67-.2,1.01-.21,.81-.03,1.63,0,2.45,0,0,.05,.02,.1,.02,.15Z" fill="#fff"/><path d="M90.25,72.43c.03-.48,.06-.86,.08-1.23,.03-.63,.1-1.27,.08-1.9-.01-.45,.15-.72,.53-.91,.44-.21,.87-.42,1.4-.67,0,.31,.01,.49,0,.67-.07,.88-.13,1.77-.23,2.65-.02,.19-.2,.42-.37,.54-.43,.29-.9,.52-1.48,.85Z" fill="#fff"/><path d="M44.31,46.24c-1.21,.72-2.42,1.44-3.63,2.15-.09,.05-.21,.1-.31,.1-.7,0-1.41,0-2.21,0,.21-.16,.36-.3,.52-.4,.83-.53,1.66-1.06,2.51-1.55,.3-.17,.68-.27,1.03-.29,.71-.04,1.42-.01,2.1-.01Z" fill="#fff"/><path d="M92.42,63.9c0,.95,0,1.8,0,2.65,0,.09-.12,.23-.21,.27-.56,.22-1.12,.41-1.72,.63v-2.54c.65-.34,1.25-.65,1.95-1.01Z" fill="#fff"/><path d="M90.41,60.62c-.12-.73-.24-1.4-.34-2.06-.01-.08,.06-.23,.13-.26,.67-.32,1.34-.61,2.14-.97,.02,.71,.04,1.33,.04,1.95,0,.08-.11,.19-.2,.25-.57,.36-1.15,.72-1.77,1.11Z" fill="#fff"/><path d="M89.83,76.32c.09-.87,.16-1.64,.24-2.41,0-.04,.03-.1,.06-.12,.56-.37,1.12-.74,1.68-1.12,.04,.03,.09,.06,.13,.09-.1,.89-.2,1.78-.31,2.67,0,.08-.1,.17-.17,.2-.5,.22-1.01,.43-1.64,.69Z" fill="#fff"/><path d="M91.48,76.8c-.1,.77-.19,1.53-.3,2.3-.02,.11-.1,.25-.2,.3-.5,.26-1.01,.49-1.63,.79,.12-.88,.18-1.65,.34-2.4,.04-.18,.35-.32,.56-.45,.37-.23,.75-.44,1.12-.65,.04,.04,.07,.08,.11,.12Z" fill="#fff"/><path d="M92.41,60.56c0,.74,0,1.35,0,1.97,0,.08-.07,.19-.14,.23-.57,.36-1.16,.7-1.84,1.11,0-.7,0-1.3,0-1.91,0-.06,.03-.14,.07-.16,.59-.39,1.19-.77,1.91-1.23Z" fill="#fff"/><path d="M90.26,83.61c-.06,1.34-.76,2.24-2.09,2.62,.19-.81,.38-1.59,.55-2.29,.54-.12,1.04-.23,1.54-.34Z" fill="#fff"/><path d="M88.88,83.08c.1-.61,.18-1.1,.28-1.59,.02-.08,.08-.19,.15-.22,.51-.25,1.02-.48,1.63-.76-.11,.59-.2,1.08-.3,1.57-.02,.08-.09,.18-.16,.22-.49,.25-.99,.48-1.6,.78Z" fill="#fff"/><path d="M87.94,86.92c.45,.04,.83,.07,1.24,.11-.24,.72-1.04,.61-1.48,1.02-.03-.02-.06-.05-.1-.07,.12-.38,.24-.75,.34-1.06Z" fill="#fff"/><path d="M35.45,48.68c.74-.43,1.47-.86,2.22-1.3-.33,.43-.62,.82-.92,1.2-.04,.05-.12,.1-.19,.11-.35,.04-.71,.07-1.07,.1-.01-.04-.03-.08-.04-.11Z" fill="#fff"/><path d="M88.12,88.99c-.48,.38-.9,.72-1.31,1.05-.05-.04-.1-.08-.14-.12,.22-.43,.44-.86,.67-1.31,.23,.11,.44,.21,.79,.38Z" fill="#fff"/><path d="M116.19,102.82c.07-.05,.14-.11,.22-.14,1.25-.54,2.5-1.08,3.75-1.61,.14-.06,.31-.08,.46-.08,2.35,.04,4.7,.09,7.04,.14,.09,0,.18,.02,.28,.11-.39,.16-.78,.31-1.16,.49-.85,.39-1.69,.8-2.54,1.19-.1,.05-.2,.12-.31,.12-.93,0-1.85,0-2.78,0-.01-.06-.02-.13-.03-.19,.87-.25,1.74-.51,2.61-.76,.2-.06,.42-.06,.59-.16,.13-.07,.22-.24,.32-.36-.13-.11-.24-.28-.38-.3-.29-.04-.62-.07-.89,.02-1.38,.46-2.75,.96-4.13,1.43-.31,.11-.63,.21-.95,.22-.7,.03-1.41,.01-2.11,.01l-.02-.14Z" fill="#fff"/><path d="M135.44,101.33c-1.13,.4-2.17,.7-3.14,1.14-1.34,.61-2.72,.8-4.17,.69-.64-.05-1.28,0-1.93,0,0-.04-.01-.09-.02-.13,.1-.06,.2-.13,.3-.17,.45-.19,.93-.34,1.36-.57,2.33-1.24,4.83-1.14,7.35-1.02,.04,0,.08,.03,.25,.08Z" fill="#fff"/><path d="M138.51,103.57c1.41-.31,2.82-.61,4.22-.92,.24-.05,.48-.14,.72-.2,.1-.03,.23-.1,.31-.07,.82,.33,1.62,.7,2.39,1.37-.52,.09-.93,.13-1.34,.22-.99,.22-1.98,.46-2.96,.69-.14,.03-.29,.09-.41,.05-.97-.33-1.93-.68-2.9-1.02,0-.04-.02-.09-.03-.13Z" fill="#fff"/><path d="M145.33,107.77c1-.14,1.99-.29,2.97-.4,.1-.01,.3,.13,.34,.25,.21,.61,.39,1.24,.56,1.87,.03,.1-.06,.31-.14,.34-.78,.34-1.57,.65-2.38,.98-.45-1.02-.88-1.98-1.35-3.03Z" fill="#fff"/><path d="M109.34,102.61c1.03-.41,2.06-.81,3.08-1.24,1.03-.44,2.08-.62,3.2-.52,.71,.06,1.42,.01,2.13,.01,.01,.06,.02,.12,.03,.18-.44,.19-.87,.39-1.32,.57-.62,.25-1.28,.41-1.86,.72-.82,.44-1.66,.56-2.57,.51-.88-.05-1.77,0-2.66,0-.01-.07-.02-.14-.04-.21Z" fill="#fff"/><path d="M148.27,106.49c-.86,.13-1.56,.17-2.22,.36-.89,.27-1.59,.16-2.21-.6-.29-.36-.74-.58-1.23-.95,.83-.18,1.56-.37,2.3-.48,.62-.1,1.26-.12,1.89-.16,.13,0,.31,.05,.38,.14,.35,.52,.68,1.05,1.08,1.69Z" fill="#fff"/><path d="M141.8,101.87c-.76,.2-1.52,.39-2.28,.59-.37,.1-.76,.15-1.1,.3-1.71,.76-3.49,.62-5.34,.42,.13-.07,.22-.14,.32-.17,1.36-.42,2.73-.83,4.1-1.24,.12-.04,.28-.03,.36-.11,.46-.44,1-.3,1.53-.24,.81,.09,1.62,.22,2.43,.33,0,.04,0,.08,0,.12Z" fill="#fff"/><path d="M100.76,100.79h4.45c-.24,.12-.37,.19-.5,.25-1.05,.5-2.09,1-3.14,1.49-.23,.1-.47,.21-.72,.22-1.11,.04-2.22,.04-3.33,.05-.09,0-.18-.02-.27-.03l-.05-.16c.96-.36,1.92-.76,2.9-1.08,.37-.12,.72-.18,.66-.73Z" fill="#fff"/><path d="M103.5,102.63c.15-.07,.29-.16,.44-.22,1.18-.5,2.36-1,3.56-1.48,.29-.11,.61-.16,.92-.17,.86-.02,1.73,0,2.6,0,0,.05,.02,.09,.02,.14-.13,.06-.26,.12-.4,.18-1.1,.52-2.21,1.04-3.31,1.56-.09,.04-.17,.1-.26,.1-1.18,0-2.36,0-3.54,0l-.03-.11Z" fill="#fff"/><path d="M147.07,124.18c.05-.79,.19-1.47,.12-2.13-.1-1.04,.43-1.5,1.3-1.76,.28-.09,.56-.18,.98-.31-.12,1.09-.22,2.08-.34,3.06,0,.07-.06,.17-.12,.2-.62,.31-1.24,.61-1.94,.95Z" fill="#fff"/><path d="M147.31,119.73v-2.26c.75-.31,1.42-.59,2.17-.9,0,.82,0,1.59,0,2.35,0,.07-.13,.18-.22,.21-.62,.2-1.24,.38-1.94,.59Z" fill="#fff"/><path d="M98.91,100.86c-1.08,.51-2.17,.9-3.12,1.5-1.05,.67-2.15,.44-3.24,.57-.02-.04-.04-.08-.06-.12,.13-.09,.25-.2,.39-.27,.95-.51,1.9-1.01,2.86-1.5,.22-.11,.48-.17,.73-.17,.8-.02,1.59,0,2.44,0Z" fill="#fff"/><path d="M149.46,110.68c0,.64,0,1.16,0,1.67,0,.09-.09,.21-.17,.26-.65,.36-1.31,.7-2.03,1.08-.12-.7-.23-1.34-.35-2.03,.8-.3,1.59-.61,2.56-.98Z" fill="#fff"/><path d="M146.63,127.63c.1-.78,.18-1.45,.27-2.12,0-.06,.04-.13,.09-.16,.62-.34,1.25-.67,2.02-1.08-.12,.92-.22,1.7-.34,2.47-.01,.08-.1,.17-.18,.2-.57,.22-1.15,.43-1.86,.68Z" fill="#fff"/><path d="M148.52,127.85c-.13,.85-.24,1.55-.36,2.25-.01,.07-.08,.15-.14,.18-.59,.25-1.19,.49-1.9,.78,.12-.81,.23-1.49,.33-2.17,0-.04,.04-.1,.08-.11,.62-.29,1.24-.57,1.99-.92Z" fill="#fff"/><path d="M149.48,113.73c0,.51,0,1.01,0,1.52,0,.09-.08,.23-.16,.27-.64,.34-1.28,.67-2.05,1.06,0-.65,0-1.19,0-1.74,0-.05,.05-.12,.1-.14,.63-.33,1.26-.65,1.9-.98,.02-.01,.06,0,.21,.02Z" fill="#fff"/><path d="M144.86,136.4c.21-.72,.42-1.45,.61-2.08,.62-.08,1.16-.16,1.75-.23-.21,.69-.15,1.5-1.1,1.8-.41,.13-.78,.4-1.17,.61-.03-.03-.06-.06-.09-.09Z" fill="#fff"/><path d="M147.93,131.33c-.11,.51-.2,.92-.29,1.33-.02,.07-.07,.16-.13,.18-.59,.26-1.18,.5-1.88,.8,.13-.58,.22-1.05,.33-1.52,.01-.05,.07-.12,.12-.13,.59-.21,1.17-.42,1.85-.66Z" fill="#fff"/><path d="M146.07,137.15c-.46,.59-1.22,.55-1.82,.87,.15-.39,.3-.78,.43-1.12,.46,.08,.88,.15,1.39,.24Z" fill="#fff"/><path d="M144.07,138.38c.28,.16,.51,.29,.85,.49-.54,.34-1.01,.64-1.49,.94-.04-.05-.09-.1-.13-.15,.27-.44,.53-.88,.77-1.28Z" fill="#fff"/><path d="M89.66,102.96c.64-.32,1.29-.65,1.93-.97,0,.02,.02,.04,.03,.05-.27,.31-.48,.7-.82,.89-.3,.17-.73,.12-1.1,.17-.01-.05-.03-.1-.04-.14Z" fill="#fff"/><path d="M126.58,48.45c.79-.57,1.58-1.14,2.36-1.72,.36-.27,.74-.35,1.19-.33,1.44,.07,2.89,.09,4.33,.13,.09,0,.18,.01,.41,.03-.39,.26-.68,.44-.95,.64-.44,.31-.92,.58-1.29,.97-.45,.47-.95,.62-1.57,.55-.34-.04-.69,0-1.19,0,.2-.17,.27-.26,.37-.3,.58-.28,1.17-.56,1.76-.83,.26-.12,.54-.28,.38-.58-.08-.16-.39-.25-.61-.27-.21-.01-.44,.08-.63,.19-.8,.47-1.59,.98-2.39,1.46-.2,.12-.45,.23-.67,.24-.49,.02-.97-.04-1.46-.06-.01-.03-.02-.06-.03-.1Z" fill="#fff"/><path d="M133.38,48.67c.6-.4,1.23-.77,1.81-1.2,.94-.7,1.96-.98,3.12-.83,.48,.06,.98,.01,1.5,.12-.08,.06-.15,.13-.23,.18-.98,.59-1.96,1.18-2.94,1.76-.16,.09-.35,.16-.53,.17-.89,.02-1.77,0-2.66,0-.02-.07-.04-.14-.06-.21Z" fill="#fff"/><path d="M127.83,46.4c-.36,.26-.66,.48-.97,.69-.59,.4-1.19,.79-1.79,1.17-.15,.1-.33,.22-.5,.22-.88,.02-1.77,.01-2.65,.01-.02-.05-.03-.11-.05-.16,.17-.13,.33-.26,.5-.38,.32-.23,.68-.42,.98-.68,1.29-1.14,2.79-1.2,4.48-.88Z" fill="#fff"/><path d="M145.51,47.94c.5,.46,1.05,.97,1.68,1.55-.69,.2-1.28,.28-1.78,.54-.81,.42-1.5,.41-2.24-.15-.31-.24-.75-.32-1.16-.61,1.12-.43,2.25-.86,3.5-1.33Z" fill="#fff"/><path d="M116.05,46.18h3.13c-.57,.43-1.14,.77-1.58,1.22-.82,.85-1.77,1.2-2.94,1.05-.35-.04-.71,0-1.13-.11,.67-.44,1.3-.94,2.01-1.3,.38-.19,.63-.33,.5-.86Z" fill="#fff"/><path d="M144.26,47.3c-1.32,.61-2.51,1.16-3.7,1.7-.07,.03-.15,.05-.23,.05-.71-.06-1.42-.12-2.22-.19,.17-.12,.26-.21,.38-.27,.91-.45,1.82-.9,2.72-1.35,.04-.02,.1-.03,.13-.06,.42-.6,.97-.33,1.49-.22,.45,.09,.89,.21,1.43,.34Z" fill="#fff"/><path d="M123.26,46.2c-.74,.55-1.47,.96-2.02,1.53-.6,.61-1.25,.76-2.04,.69-.42-.04-.85,0-1.28,0-.03-.04-.07-.09-.1-.13,.1-.06,.22-.1,.31-.17,.58-.41,1.2-.78,1.73-1.26,.98-.89,2.13-.72,3.4-.65Z" fill="#fff"/><path d="M145.05,51.03c.74-.19,1.43-.38,2.14-.53,.35-.07,.64,.04,.76,.45,.16,.54,.36,1.07,.57,1.66-.67,.17-1.29,.32-1.87,.47-.52-.67-1.01-1.3-1.59-2.05Z" fill="#fff"/><path d="M147.93,57.13c-.31-1.09-.6-2.12-.92-3.23,.54-.12,1.1-.25,1.73-.39,.16,.91,.3,1.75,.43,2.6,.01,.09-.08,.24-.16,.31-.33,.24-.68,.46-1.08,.72Z" fill="#fff"/><path d="M110.33,48.43c.24-.2,.49-.39,.72-.59,.34-.29,.71-.55,1-.88,.78-.9,1.79-.74,2.91-.72-.51,.37-.93,.66-1.34,.97-.32,.24-.67,.45-.91,.76-.61,.78-1.46,.58-2.24,.66-.05-.07-.09-.13-.14-.2Z" fill="#fff"/><path d="M148.37,71.93c0-.61,0-1.22,0-1.83,0-.4,.02-.79,.03-1.19,.01-.71,.13-.85,.95-1.07-.08,1.17-.12,2.32-.26,3.46-.03,.28-.38,.52-.58,.78-.05-.05-.1-.1-.14-.14Z" fill="#fff"/><path d="M148.4,67.12c0-.75-.08-1.52,.04-2.26,.06-.36,.5-.65,.77-.98,.05,.03,.1,.05,.15,.08,0,.89,.05,1.79-.04,2.67-.02,.21-.51,.38-.78,.56l-.13-.08Z" fill="#fff"/><path d="M148.37,60.27c-.1-.75-.19-1.36-.25-1.98,0-.09,.05-.23,.12-.28,.32-.22,.65-.43,1.11-.72,0,.75,.11,1.41-.04,1.99-.09,.36-.57,.62-.94,.99Z" fill="#fff"/><path d="M147.99,75.92c.07-.82,.09-1.64,.24-2.44,.05-.29,.42-.52,.64-.78l.15,.08c-.07,.89-.1,1.79-.24,2.67-.03,.21-.44,.37-.67,.55-.04-.03-.07-.05-.11-.08Z" fill="#fff"/><path d="M148.69,76.78c-.07,.78-.09,1.58-.24,2.35-.05,.27-.42,.47-.64,.71-.05-.03-.1-.06-.14-.09,.08-.81,.12-1.62,.27-2.42,.05-.24,.4-.42,.62-.63,.05,.03,.09,.06,.14,.09Z" fill="#fff"/><path d="M148.39,63.33c0-.58-.1-1.19,.03-1.73,.09-.37,.51-.65,.78-.98l.14,.08c0,.63,.08,1.27-.03,1.87-.06,.33-.46,.6-.71,.9-.07-.05-.14-.09-.22-.14Z" fill="#fff"/><path d="M147.29,82.68c.31-.77-.15-1.75,1.03-2.11-.26,.74,.17,1.69-1.03,2.11Z" fill="#fff"/><path d="M146.89,85.71c.26-.73-.13-1.72,1-2.21-.29,.83,0,1.77-1,2.21Z" fill="#fff"/><path d="M108.35,48.78c.54-.44,1.07-.89,1.66-1.37-.23,.47-.42,.86-.62,1.24-.04,.07-.14,.12-.22,.14-.26,.04-.53,.06-.79,.09-.01-.03-.02-.07-.03-.1Z" fill="#fff"/><path d="M146.41,87.48c.16-.19,.33-.38,.49-.56,.06,.05,.12,.11,.18,.16-.16,.19-.33,.38-.49,.57-.06-.06-.13-.11-.19-.17Z" fill="#fff"/><path d="M54.62,101.35c-.65,.48-1.32,.84-1.82,1.37-.72,.77-1.53,.41-2.31,.47-.02-.05-.04-.1-.06-.16,.52-.25,1.04-.51,1.56-.76,.14-.07,.32-.09,.43-.2,.1-.1,.18-.29,.15-.4-.03-.12-.2-.26-.33-.27-.19-.02-.43,.01-.6,.1-.71,.38-1.45,.74-2.09,1.21-.43,.32-.83,.47-1.34,.41-.26-.03-.52-.04-.79-.06-.02-.04-.03-.08-.05-.12,.85-.59,1.7-1.19,2.55-1.78,.06-.04,.15-.04,.23-.03,1.4,.04,2.79,.09,4.19,.14,.07,0,.14,.04,.27,.08Z" fill="#fff"/><path d="M53.51,103.1c.96-.57,1.89-1.19,2.89-1.68,.36-.18,.87-.05,1.31-.05,.47,0,.94,0,1.41,0,0,.04,.02,.08,.03,.12-.09,.07-.18,.15-.28,.21-.83,.5-1.65,1-2.48,1.5-.11,.06-.23,.14-.34,.14-.82,.01-1.64,0-2.46,0-.03-.08-.06-.16-.09-.25Z" fill="#fff"/><path d="M64.39,102.53c.43,.4,.93,.85,1.51,1.39-.52,.15-.9,.23-1.26,.36-.46,.16-.91,.37-1.36,.55-.13,.05-.32,.12-.43,.06-.58-.31-1.15-.65-1.84-1.05,1.13-.44,2.21-.85,3.38-1.3Z" fill="#fff"/><path d="M65.3,108.03c.58-.14,1.13-.29,1.69-.39,.1-.02,.32,.14,.35,.25,.14,.62,.25,1.25,.34,1.87,.02,.13-.06,.33-.16,.4-.43,.32-.89,.6-1.38,.93-.28-1.02-.54-2-.83-3.06Z" fill="#fff"/><path d="M48.39,101.15c-.24,.18-.45,.35-.66,.5-.6,.41-1.21,.81-1.83,1.21-.12,.07-.26,.15-.39,.15-.76,.01-1.52,0-2.27,0-.01-.05-.03-.1-.04-.15,.08-.08,.15-.18,.24-.24,.32-.23,.68-.42,.97-.68,1.11-.99,2.42-1.07,3.79-.88,.04,0,.08,.04,.19,.09Z" fill="#fff"/><path d="M67.08,106.7c-.71,.2-1.35,.39-1.98,.56-.08,.02-.22-.05-.27-.12-.38-.52-.74-1.05-1.14-1.63,.73-.33,1.49-.61,2.31-.68,.26-.02,.45,.07,.54,.35,.16,.5,.35,1,.54,1.52Z" fill="#fff"/><path d="M57.78,103.24c.85-.42,1.69-.84,2.53-1.26,.19-.1,.37-.23,.56-.33,.1-.06,.23-.14,.33-.13,.64,.1,1.27,.23,1.9,.36,0,.04,0,.09,.01,.13-.1,.05-.19,.11-.29,.16-.87,.39-1.74,.76-2.59,1.17-.34,.17-.66,.26-1.04,.19-.45-.08-.92-.1-1.38-.14-.01-.05-.02-.1-.04-.14Z" fill="#fff"/><path d="M35.72,102.79c.55-.36,1.08-.78,1.66-1.07,.35-.17,.56-.32,.51-.77h2.72c-.29,.22-.51,.39-.73,.55-.3,.23-.66,.42-.89,.71-.9,1.08-2.1,.64-3.19,.76-.03-.06-.05-.12-.08-.18Z" fill="#fff"/><path d="M44.2,100.99c-.78,.63-1.55,1.25-2.31,1.86-.06,.05-.14,.08-.22,.08-.68,0-1.35,0-2.03,0-.02-.04-.03-.08-.05-.11,.23-.18,.45-.36,.68-.53,.28-.21,.59-.38,.85-.62,.85-.79,1.87-.83,2.94-.73,.05,0,.1,.04,.14,.06Z" fill="#fff"/><path d="M66.46,124.58c0-.67,0-1.3,0-1.92,0-.21,.02-.41,.02-.62,.03-.8,.43-1.29,1.31-1.53,0,.27,0,.53,0,.79-.02,.48-.1,.96-.06,1.42,.1,1-.6,1.39-1.28,1.86Z" fill="#fff"/><path d="M32.76,102.93c.75-.62,1.44-1.34,2.26-1.83,.43-.26,1.09-.12,1.65-.16,.01,.04,.02,.08,.04,.13-.33,.24-.66,.47-.97,.71-.34,.26-.71,.5-.99,.82-.55,.65-1.25,.4-1.9,.5-.03-.05-.06-.11-.09-.16Z" fill="#fff"/><path d="M66.53,120.15v-2.29c.44-.3,.84-.57,1.33-.9,0,.84,0,1.61,0,2.38,0,.08-.1,.19-.19,.24-.35,.19-.7,.36-1.13,.58Z" fill="#fff"/><path d="M66.48,113.94c-.07-.62-.14-1.23-.2-1.84,0-.07,.06-.18,.12-.23,.42-.27,.86-.53,1.29-.8,.5,1.05,0,2.25-1.21,2.86Z" fill="#fff"/><path d="M67.55,124.94c-.06,.76-.11,1.51-.18,2.27,0,.1-.07,.23-.14,.28-.33,.22-.67,.41-1.13,.68,.07-.81,0-1.57,.23-2.22,.15-.43,.72-.72,1.09-1.07,.04,.02,.08,.04,.12,.06Z" fill="#fff"/><path d="M65.81,131.48c.06-.66,0-1.36,.22-1.96,.16-.42,.69-.7,1.06-1.05,.06,.03,.11,.05,.17,.08-.08,.74-.05,1.51-.28,2.2-.11,.35-.68,.55-1.04,.82-.04-.03-.09-.06-.13-.09Z" fill="#fff"/><path d="M66.49,116.89c0-.6,0-1.11,0-1.63,0-.06,.01-.14,.05-.18,.4-.35,.8-.69,1.21-1.05,.37,1.24,.02,2.06-1.27,2.86Z" fill="#fff"/><path d="M66.4,134.76c.13,.95-.34,1.79-1.4,2.38,.14-.78,.26-1.51,.38-2.17,.38-.08,.7-.14,1.02-.2Z" fill="#fff"/><path d="M65.54,134.19c-.03-1.32,.21-1.72,1.26-2.17,.19,1-.13,1.57-1.26,2.17Z" fill="#fff"/><path d="M65.74,137.83c-.14,.55-.77,.57-1.11,.93,.09-.39,.18-.79,.27-1.17,.27,.08,.52,.15,.84,.24Z" fill="#fff"/><path d="M64.05,140.38c.16-.44,.32-.88,.44-1.22,.12,.13,.26,.27,.47,.48-.2,.22-.48,.53-.76,.84-.05-.04-.1-.07-.15-.11Z" fill="#fff"/></g><path d="M31.02,103.19c.44-.37,.81-.68,1.18-.98,.03,.03,.05,.06,.08,.09-.4,.29-.3,1.14-1.25,.9Z" fill="#fff"/></svg>