<?xml version="1.0" encoding="UTF-8"?><svg id="Calque_1" xmlns="http://www.w3.org/2000/svg" viewBox="0 0 173.84 178.2"><path id="Tracé_153" d="M89.89,38.83l.77,.13,.64,.25,.65,.38,.65,.38,.51,.51,.51,.51,.26,.64,.26,.77,.13,.77,.13,1.53-.25,1.4-.39,1.53-.65,1.53-1.29,2.94-1.42,2.81-1.16-.13h-1.93l-1.55-4.33-1.16-2.94-.65-1.28-.51-1.02-.13-1.28,.13-.64,.13-.51,.26-.64,.26-.64,.4-.53,.51-.51,.65-.51,.64-.51,.65-.26,.77-.25,.77-.13h1.42Zm13.9,4.86l.77,.26,.77,.25,.77,.51,.52,.51,.64,.64,.39,.64,.39,.77,.26,.77,.13,.77v1.66l-.13,.77-.39,.89-.39,.64-.51,.77-1.16,.89-1.29,.89-1.42,.64-1.66,.64-1.55,.38-1.66,.51-2.96,.64-.52-.77-.64-.64-.65-.51-.77-.51,1.42-2.81,1.16-2.94,.64-1.28,.65-1.15,.77-1.02,.77-.89,1.03-.77,1.03-.64,1.16-.38,1.42-.13h1.01Zm-26.82-.51l.91,.13,.77,.26,.77,.51,.64,.64,.65,.89,.65,.89,.51,2.3,.9,2.43,.52,1.15,.64,1.15,.65,1.02,.77,.9-.51,.25-.91,.51-.9,.64-.65,.89-.64,.9-.52-.38-.51-.38-1.16-.77-2.45-1.02-2.33-1.4-1.93-1.15-.52-.26-.49-.39-.26-.51-.25-.51v-1.15l.25-1.28,.52-1.66,.77-1.53,.51-.77,.65-.64,.51-.64,.77-.51,.9-.38,.77-.12Zm11.5,14.29l.13,.25-.51,.38-.65,.38-1.03,1.15-.91,1.28-.77,1.15-.77,1.4-.15-.63v-1.28l.26-.64,.25-.51,.77-1.15,.91-.89,.64-.38,.52-.26,.64-.13,.67-.13Zm1.42,.51l.9,.26,.77,.38-.9,.64-.91,.77-.77,.9-.77,.89-.64,.89-.77,1.28-.52,1.15-.25,.64-.13,.64-.51-.38-.39-.51,.26-1.15,.51-1.15,.65-1.02,.77-1.02,1.29-1.4,.77-1.02,.65-.77Zm3.09,2.55l.13,.89-.13,.89-.26,.9-.39,.89-.51,.77-.77,.77-.77,.64-.91,.51,.26-.77,1.66-3.19,1.68-2.3Zm-1.03-1.66l.51,.51-.64,.64-.52,.64-.64,.89-1.03,1.79-.9,1.79-.52,.89-.51,1.02-.77-.13,.51-.89,.39-.89,.39-.9,.39-.89,.65-1.28,.9-1.15,.77-1.02,1.04-1.02Zm-21.01-2.16l1.16,.13,1.29,.26,.77,.25,.9,.51,2.07,1.02,1.03,.51,1.03,.38,.9,.25,1.03,.13-.39,1.4v1.66l-.9,.13-.91,.26-.9,.25-.77,.51-1.66,.89-1.55,1.02-2.84,1.78-1.55,.13-1.56,.11h-.64l-.65-.26-.64-.5-.64-.64-.39-.77-.39-.89-.13-.77-.12-.89v-.9l.13-.89,.26-.89,.26-.77,.64-1.15,.77-.77,1.03-.64,1.03-.51,1.16-.26,1.15-.13Zm39.06,.25l1.42,.26,.9,.38,.52,.51,.51,.77,.26,.77,.25,.9,.13,.77v1.66l-.13,.89-.25,.9-.26,1.02-.39,.77-.52,.89-.65,.77-.65,.51-.77,.51-.9,.13-.9,.13-.91-.13-.9-.26-1.42-.78-1.55-.77-1.16-.51-1.29-.77-1.29-.9-1.29-.89-1.29-.64-.77-.25-.64-.13,.13-.25,.13-1.02v-1.02l.91-.89,2.19-.51,2.19-.64,2.19-.77,1.93-.89,1.42-.38,1.42-.13,1.43,.02Zm-15.21,9.32l1.42,.64,1.42,.77,1.42,.77,1.55,.77,.52,.38,1.8,.77,1.66,.64,.91,.51,.77,.51,.51,.51,.51,.77,.39,.64,.39,.77,.13,.77v.89l-.13,.89-.25,.64-.39,.51-.52,.51-.51,.51-1.29,.64-1.29,.38-.64,.13-.65,.13-.64-.13h-.51l-1.03-.38-1.03-.64-.77-.89-.77-.89-.65-1.02-.64-1.02-.52-1.15-.39-1.28-.77-2.3-.39-1.79-.27-.91-.39-.77,1.04-1.26Zm-13.92-2.04l.52,1.15,.51,1.28,.77,1.02,1.03,.9-.39,1.4-.13,1.66-.13,1.4-.65,2.04-.51,1.91-.26,.51-.77,1.28-1.03,1.02-1.16,.89-1.29,.51-.64,.25-.77,.13h-1.3l-.77-.13-.64-.25-.65-.38-.51-.51-.52-.51-.52-.52-.65-1.28-.39-1.28v-1.28l.13-1.28,.39-1.28,.64-1.15,1.03-1.02,.9-.89,1.16-.89,2.19-1.53,2.33-1.53,2.05-1.65Zm10.06,5.36l.65,1.28,.51,1.4,.77,2.43,.77,2.3,1.03,2.66,.39,1.28,.13,1.41v1.02l-.39,.77-.39,.64-.64,.64-.77,.38-.77,.25-.91,.13h-.9l-1.29-.13-1.16-.25-1.16-.38-1.16-.64-.65-.51-.65-.51-.39-.64-.25-.64-.13-.77v-.77l.13-1.66,.51-.9,.51-1.02,.26-1.02,.26-.89,.39-2.04,.39-1.4,.77-1.91,.9,.13h.9l1.16-.26,1.17-.36Zm24.24,18.12v.25l-1.03,3.83-1.29,4.98-.65,2.42-.77,2.3-.65,1.53-.77,1.28-.9,1.15-1.16,1.15-1.16,1.02-1.29,.77-1.42,.77-1.42,.64-1.16,.38-1.29,.13h-1.29l-1.29-.13-.39-.13,1.29-.77,1.29-.9,2.07-1.66,1.16-1.15,1.29-1.28,1.29-1.41,1.16-1.66,1.03-1.53,.77-1.79,.64-1.66,.13-.89v-1.15l-.26-.38-.26-.26-.25-.13h-.39l-.39,.13-.39,.13-.26,.26-.77,1.28-.65,1.28-.64,1.4-.65,1.28-.9,1.28-1.03,1.28-1.03,1.28-1.16,1.15-1.29,1.02-1.29,1.02-1.29,.89-1.42,.77-.51,.26-.13-1.02-.13-.89v-2.43l.39-2.42,.51-1.91,.65-1.91,.39-.77,.51-.89,.65-.77,.77-.64,1.81-1.4,1.93-1.28,2.06-1.02,2.19-.9,2.19-.77,2.33-.64,2.33-.51,2.17-.23Zm-57.26,7.77l1.81,.26,1.8,.13,1.81,.13,1.81,.26,2.57,.38,2.45,.77,2.45,.77,2.33,1.15,1.03,.64,1.03,.77,.91,.77,.9,1.02,.77,.89,.77,1.02,1.29,2.17,.65,1.28,.26,1.15,.13,1.28-.13,1.28-.26,2.42-.39,2.55-.9-.38-1.03-.51-1.81-1.16-1.8-1.4-1.81-1.53-2.33-1.91-2.05-2.04-.91-1.02-.76-1.15-.77-1.15-.9-.9-.28-.14h-.25l-.26,.13-.13,.26-.13,.77v.64l.13,.77,.26,.78,.39,.64,.52,.77,1.16,1.41,1.29,1.28,1.29,1.28,2.33,1.91,1.66,1.4,1.8,1.41,1.81,1.15,1.81,1.02-2.07,.89-2.19,.51-2.19,.26-1.03,.13-1.03-.13-1.03-.13-1.03-.26-1.03-.26-1.03-.51-.9-.51-1.03-.64-.9-.77-.91-.89-.9-1.02-.76-1.15-.67-1.15-.63-1.28-.52-1.28-.39-1.4-.64-2.66-.39-2.83-.39-2.66-.26-2.82-.39-2.81Zm30.95-58.82l-1.66,.13-1.55,.51-.91,.38-.77,.51-.77,.51-.51,.77-.51,.64-.39,.77-.26,.89-.26,.77-.78-.64-1.03-.64-.91-.38-1.03-.13h-1.03l-1.16,.13-1.03,.38-1.03,.64-.91,.77-.9,.9-.77,1.02-.65,1.02-.51,1.15-.39,1.15-.26,1.28-.25,1.15v1.02l.13,1.02,.26,1.02,.39,.9-1.29,.25-1.16,.38-1.03,.64-.91,.77-.9,.89-.65,1.02-.64,1.02-.52,1.15-.25,1.15-.13,1.15v1.15l.13,1.15,.39,1.02,.39,1.15,.51,.89,.65,1.02,.39,.38,.51,.38,1.03,.64,1.29,.38,1.29,.25-.64,1.28-.39,1.4-.13,1.41,.13,1.41,.25,1.4,.52,1.41,.64,1.28,.91,1.15,.64,.51,.52,.51,.64,.51,.77,.26,.65,.26,.65,.25,1.55,.13,1.42-.13,1.42-.25,1.55-.64,1.29-.77,.39-.26,.26,1.15,.51,1.02,.65,1.02,.9,.77,.91,.77,1.16,.51,1.16,.51,1.29,.38-.39,1.15-.13,1.15-.13,1.28v1.28l.13,2.55,.13,2.3-.14,3.95-.13,3.95-.39,3.83-.51,3.95-.65,3.7-1.16-.13,.39-2.81,.26-2.81v-1.27l-.13-1.41-.26-1.41-.51-1.4-.52-1.15-.78-1.28-.77-1.15-.9-1.15-.9-1.02-1.03-1.02-1.16-.89-1.03-.77-1.16-.77-1.16-.64-1.29-.51-1.28-.38-2.58-.77-2.71-.51-2.58-.51-2.83-.38-1.42-.13h-1.43l-1.29,.13-1.29,.38-.39,.26-.13,.39v.38l.26,.38-.13,1.53-.13,1.53v3.19l.13,1.79,.26,1.66,.26,1.66,.39,1.66,.51,1.53,.65,1.66,.64,1.53,.65,1.53,.9,1.41,.77,1.28,1.03,1.15,1.03,1.15,1.03,.89,1.16,.64,1.16,.64,1.16,.64,1.29,.38,1.29,.26,1.29,.26,1.42,.13,1.29-.16h1.42l1.29-.26,1.29-.38,1.29-.38,1.16-.64,1.16-.64,1.03-.77h.91l1.55,.13-1.17,4.09-1.16,4.08-1.29,3.45-.64,1.66-.91,1.66-.77,1.28-.9,1.41-.39,.64-.39,.77-.13,.77-.13,.77,.13,.25v.26l.39,.25,.51,.12,.51-.26,1.16-1.15,1.03-1.28,.9-1.41,.77-1.53,.65-1.53,.65-1.53,1.16-3.06,1.16-3.58,1.03-3.7,.77-3.57,.77-3.7,.52-3.57,1.16,.26h1.29l1.16-.13,1.29-.38,.77,.38,.91,.38,.9,.26,.9,.13,1.93,.26,1.66-.26,1.42-.25,1.42-.51,1.55-.64,1.29-.77,1.29-.9,1.29-.89,1.03-1.15,.91-1.15,1.03-1.53,.77-1.53,.65-1.66,.65-1.66,.9-3.44,.9-3.45,.52-1.91,.39-1.15,.39-1.28,.13-1.15v-1.66l-.26-.51-.25-.38-.26-.26-.51-.26-.39,.13-.39,.13-.26,.38-1.16-.13-1.29,.13-1.16,.26-1.29,.25-2.45,.77-2.33,.9-2.71,1.15-2.71,1.4-1.42,.77-1.16,.77-1.29,.9-1.16,1.02-.77,.77-.64,1.02-.52,1.02-.51,1.15-.26,1.15-.36,1.3-.39,2.3-.13,1.4-.13,1.91,.13,1.02,.13,1.02,.26,.77,.51,.64-1.55,.51-1.55,.64,.26-4.46,.13-4.59-.13-3.06-.26-3.06-.25-3.06v-3.06l.9,.13h.77l.77-.13,.77-.13,.77-.26,.77-.26,.65-.38,.64-.38,.52-.51,.51-.64,.39-.51,.26-.77,.25-.64,.13-.77,.13-.89-.13-.89,1.03,.64,.91,.51,1.03,.38,1.03,.13h2.33l1.16-.38,1.16-.38,.77-.38,.77-.38,.64-.51,.52-.51,.51-.64,.51-.64,.26-.77,.26-.64,.25-.77,.13-.77v-1.51l-.13-.77-.25-.77-.39-.77-.39-.77v-.13l.89-.14,.77-.26,.77-.38,.77-.51,.51-.64,.65-.64,.51-.77,.39-.77,.65-1.66,.39-1.79,.13-1.78v-1.66l-.39-1.53-.51-1.15-.65-1.02-.9-.77-1.03-.64-1.16-.38-1.29-.13-1.29-.13,.9-1.02,.39-.64,.39-.77,.26-.77,.13-.89,.13-.77v-.77l-.13-.89-.26-.77-.51-1.53-.77-1.53-1.03-1.28-.64-.51-.65-.51-.65-.38-.64-.26-1.29-.38-1.42-.13-1.42,.13-1.42,.38-1.29,.51-1.29,.77-1.03,.9v-1.41l-.25-1.41-.26-.77-.26-.77-.51-.64-.51-.62-.65-.51-.65-.38-.77-.26-.77-.26-1.55-.25h-1.68Z" fill="#373838" fill-rule="evenodd"/></svg>