<?xml version="1.0" encoding="UTF-8"?><svg id="Calque_1" xmlns="http://www.w3.org/2000/svg" viewBox="0 0 173.84 178.2"><path id="Tracé_152" d="M92.66,60.59l-.14,.28-.15,.42v.42l.15,.99,.43,1.13,.28,1.13,.28,.42,.28,.14,.28,.14,.43,.14,.43-.14,.28-.28,.28-.28v-1.13l-.28-.71-.43-1.27-.28-.56-.43-.42-.56-.42h-.85Zm23.48,1.12l-.43,.42-.84,.84-.84,.84-.28,.56-.14,.56,.14,.28,.14,.14,.15,.28,.28,.14h.56l.56-.28,.56-.28,.56-.42,.84-.84,.43-.56,.14-.56-.14-.42-.28-.42-.43-.28h-.99Zm8.25,13.26l-1.13,.28-.99,.28-1.13,.42-.56,.14-.56,.28-.28,.42v.28l.14,.42,.28,.28,1.28,.28h1.41l.71-.14,.56-.14,.56-.28,.56-.42,.14-.28,.15-.28v-.7l-.15-.42-.28-.14-.28-.14-.44-.14Zm-36.13,.7l-.56,.14-1.41,.28-1.13,.14-.56,.28-.43,.28-.43,.42-.14,.42,.14,.56,.14,.14,.28,.14,.56,.28h2.85l.84-.14,.71-.28,.71-.56,.15-.28v-.28l-.15-.56-.43-.56-.43-.28-.72-.14Zm16.08-7.04l1.28,.14,1.41,.28,1.28,.42,1.28,.7,1,.84,.99,.99,.99,1.13,.71,1.13,.56,1.27,.28,.99,.14,.99v.99l-.14,.99-.14,.99-.28,.99-.43,.99-.56,.84-.56,.84-.56,.71-.71,.71-.84,.7-.84,.56-.84,.56-.84,.42-.99,.28-.99,.28-1.13,.14h-.99l-.84-.14-1.05-.28-.84-.28-.84-.42-.71-.56-.71-.56-.71-.7-.56-.71-.56-.84-.84-1.69-.71-1.97-.28-1.83v-1.83l.28-1.84,.28-.99,.43-.84,.56-.99,.84-.84,1.99-.99,1.99-.99,1.13-.28,1-.14,1.12-.15Zm-.28-3.1l-1.71,.14-1.71,.28-1.57,.42-1.57,.71-1.41,.99-1.13,.99-.71,.84-.71,.7-.71,1.13-.43,1.13-.43,1.13-.28,1.27-.15,1.13v2.53l.15,1.13,.28,1.41,.43,1.41,.43,1.27,.71,1.13,.71,1.13,.84,1.13,.84,.84,.99,.84,1.13,.84,1.13,.56,1.13,.42,1.41,.42,1.28,.14h1.43l1.41-.14,1.41-.28,1.28-.28,1.28-.56,1.13-.71,1.13-.84,1-.84,.99-1.13,.71-.99,.79-1.26,.56-1.13,.43-1.27,.43-1.41,.14-1.27,.14-1.41-.14-1.27-.28-1.41-.28-1.27-.71-1.41-.84-1.41-.99-1.27-1.13-1.13-1.28-.99-1.41-.84-1.43-.71-1.56-.42-1.41-.28-1.75-.14Zm-10.82,23.67l-.56,.14-.43,.28-.84,.84-.71,1.13-.45,.99-.14,.56,.14,.56,.28,.42,.43,.28,.43,.14,.56-.14,.43-.28,.28-.56,.43-.71,.43-.71,.84-1.55v-.56l-.14-.56-.43-.28h-.54Zm21.06,1.27l-.28,.14-.28,.28-.14,.42v.71l.14,.71,.28,.7,.28,.71,.56,.56,.71,.56,.56,.42,.56,.14h.56l.43-.28,.28-.42,.14-.42v-.56l-.14-.42-.43-.42-.84-.56-.56-.84-.71-.84-.28-.28-.56-.28h-.28Zm-65.45,22.97l-.15,.14-.14,.14,.14,.84,.15,.71,.28,.84,.28,.7,.84,1.41,.84,1.41,.99,1.41,1,1.41,1.13,1.27,1.28,1.27,.43,.14h.75l.28-.28,.28-.28,.15-.42-.15-.28-.28-.42-1.13-1.27-1.13-1.27-2.13-2.82-1.71-2.39-.84-1.13-.99-.99-.18-.14Zm.14,8.32l-.28,.14-.14,.28-.14,.28,.28,.56,.42,.71,1,1.13,.43,.42,.71,.56,.56,.28,.43,.14h.28l.43-.28,.15-.28,.14-.42-.14-.28-.43-.42-.43-.28-.84-.71-1-.99-.56-.56-.56-.28h-.3Zm19.35-38.2l-.84,.14-.84,.28-.71,.42-.84,.56-1.56,1.27-1.28,1.41-1.43,1.69-1.13,1.55-2.17,2.97-2.42,3.24-1.28,1.55-1.41,1.41-2.85,2.68-1.41,1.41-1.28,1.41-.28,.42v.99l.28,.28,.43,.28,.41,.15h.43l.43-.28,.28-.28,.28,.84,.28,.84,.84,1.84,1.57,2.39,1.28,2.4,1.56,2.53,.84,1.27,.84,1.13,1,.99,.99,.84,.43,.14h.43l.43-.14,.28-.14,.43-.56v-.7l-.14-.28-.28-.28-.99-.99-.84-.99-1.56-2.25-1.57-2.25-1.28-2.4-1.28-2.4-.99-1.69-1-1.41,1.99-1.83,.84,1.69,.84,1.55,1.85,2.82,1.28,1.97,1.28,1.97,.84,.99,.71,.84,.84,.71,.99,.56,.43,.14h.28l.43-.14,.28-.14,.28-.42,.14-.28v-.42l-.14-.28-1.41-1.97-1.57-1.84-1.41-1.83-1.41-1.83-1.85-2.68-1.13-1.41-1.13-1.13,1.99-1.97,.56,.84,.56,.7,1.28,1.84,1.28,1.83,.99,1.27,1.28,1.27,.56,.56,.71,.56,.84,.28,.71,.28h.56l.56-.14,.28-.42,.15-.42,.14-.42-.14-.42-.28-.42-.56-.28-.71-.28-.72-.43-.71-.56-.56-.56-1.13-1.27-1-1.27-1.69-1.97-.84-.99-.56-.42-.56-.28,1.85-2.11,.43-.56,.84,1.13,.84,1.13,1.85,1.97,3.13,3.24,.71,.56,.71,.56,.71,.42h.99l.28-.14,.14-.28,.28-.28v-.28l-.15-.71-.28-.56-.56-.42-.56-.56-1.57-1.41-1.71-1.55-2.13-2.11-2.13-1.97-.28-.28,2.13-2.68,.56,1.13,.84,1.13,1.71,1.84,1.13,1.13,1.28,1.27,1.41,1.13,.71,.42,.71,.42h.84l.15-.28,.28-.28,.15-.28v-.42l-.15-.28-.14-.28-1.13-1.13-1.13-.99-1.28-.99-1.28-1.13-1.71-1.84-1-.84-1.13-.84,.99-1.13,.84-.84,1.99,1.97,1.85,2.25,.99,1.27,1.43,1.27,.71,.56,.71,.28,.71,.14h.84l.43-.28,.28-.42v-.42l-.14-.42-.56-.56-.56-.42-.71-.42-.56-.56-.71-.56-.71-.84-1.28-1.41-.71-.84-.71-.71-1-.7-.84-.42,2.42-1.97,3.56,3.52,1.85,1.84,1.56,1.97,1.99,2.4,1.71,2.4,3.7,4.93,4.55,5.63,4.56,5.63,2.13,2.96,2.13,2.96,2.13,2.96,1.13,1.41,1.28,1.27,.56,.42,.56,.14,.43-.14,.43-.28,.43-.42,.15-.42,.14-.7-.14-.56-.71-1.41-.99-1.55-1-1.41-.99-1.41-4.56-5.5-1.56-1.97,.84-.56,.43,.7,.56,.71,.84,.99,.99,1.13,1.13,.84,1.13,.84,.28,.14h.43l.43-.14,.28-.14,.28-.42,.14-.28v-.42l-.08-.43-.84-.84-.84-.84-1.99-1.55-1.71-1.69v-.14l1.99-2.68,.56,.84,.43,.7,.71,.84,.84,.99,.84,.84,.56,.99,.43,.42,.28,.28h.42l.43-.14,.43-.28,.14-.42,.14-.42-.14-.56-.56-.84-.56-.84-1.56-1.41-.84-.84-.84-.84-.56-.56,1.71-1.55,.56,.56,.56,.84,.99,1.41,.43,.84,.56,.7,.71,.56,.71,.56,.56,.14h.56l.28-.28,.43-.42,.14-.42v-.41l-.28-.42-.43-.42-.56-.42-.56-.56-.99-1.27-.99-1.41-.43-.56-.71-.56,1.28-1.13,1.57,.84,1.41,1.13,1.13,1.27,1.28,1.41,2.13,3.1,1.99,2.82,2.99,3.8,2.99,3.94,1.13,1.83,1.28,2.11,.71,.99,.84,.99,.71,.71,.84,.56,.71,.14,.71-.14,.28-.28,.14-.14,.15-.28v-.42l-.28-1.13-.43-1.13-.56-1.13-.84-.99-1.57-2.11-1.57-1.97-1.56-2.11-1.57-1.97-3.24-4.09-1.99-3.1-1.28-1.69-1.28-1.69-1.57-1.41-.71-.7-.84-.56-.71-.42-.84-.42-1.01-.15h-.84l-.56-.28h-.56l-.99,.42-.84,.56-1,.71-.71,.7-1.57,1.69-1.28,1.69-2.28,2.53-1,1.55-.43,.84-.28,.7-6.98-8.45-1.99-2.53-1.99-2.68-1.99-2.53-1.99-2.53-1.71-1.97-1.99-1.97-.99-.99-1.13-.71-1.13-.71-1.28-.56-.43-.28-.63-.15Zm1.28-27.2l5.7,.13,5.7,.14,5.69,.28,5.69,.28,5.83,.14h11.53l9.96-.42h10.23v.42l-.14,1.41-.15,1.41v5.21l.28,5.07v7.19l-.28,7.22-.43,14.52v10.14l.15,10.14,.14,3.66,.14,3.84,.15,.7-3.7,.28-3.56,.14-7.25,.15h-14.52l-15.08,.14-15.23,.28h-7.12l-7.11-.14-7.68-.14h-2.7l-.43-5.63-.43-5.63-.28-5.5-.14-5.63v-6.36l.14-6.34v-6.48l-.14-6.34-.28-7.04-.28-7.19-.14-3.66v-3.66l-.14-1.27-.16-1.3h.84l.84,.14,.84,.28,.84,.14,2.56,.28h2.56l2.85-.14,2.99-.28,5.83-.42,5.87-.13Zm2.99-2.68l-5.98,.14-5.98,.28-5.83,.42-2.99,.14h-3.7l-.99-.15-1.71-.28h-.84l-.84,.14-.71,.42-.43,.71-.28,.28-.28,.28-.28,.99-.14,.99-.15,1.27v7.6l.15,4.08,.28,8.17,.15,5.91v5.91l-.15,11.83,.15,7.04,.28,7.04,.56,6.9,.56,7.04,.14,.56,.28,.28,.43,.28,.43,.14h.43l.43-.28,.28-.28,.14-.42,1.85,.28h4.83l7.68,.28,7.54,.14,7.4-.06h7.4l14.8-.28,8.26-.14h8.39l8.25-.14,4.13-.14,4.13-.28,.56-.14h.43l.43-.14,.43-.28,.14-.42,.15-.42v-.56l-.15-.42-.43-.28h0l.43,.14h.15l-.15-.56-.14-.56-.14-3.24-.28-7.6v-11.83l.14-11.69,.43-14.38v-7.22l-.28-7.19,.14-2.25v-1.55l.14-1.69-.14-1.55-.43-1.27-.14-.56-.43-.28-.28-.28h-.73l-.43-.14-2.4-.44-2.56-.14-2.56-.14-2.56,.14-5.27,.28-4.98,.42-6.4,.14h-6.26l-6.26-.28-6.4-.28-5.98-.28-5.84-.14Zm-16.93-2.95l6.82,.28h20.78l12.81-.14h12.95l25.91,.14-.56,1.55-.28,1.69-.15,1.69v1.83l.15,3.52,.43,3.24,.56,5.78,.56,5.63,.15,5.78,.14,5.78-.28,7.32-.28,7.32-.43,7.32-.43,7.19v5.63l.14,5.63-.14,2.53v1.27l.14,1.27-2.85,.56-2.99,.28-2.84,.14-2.99,.14-5.83-.14-5.98-.14h-6.43l-6.4,.14-6.4,.28-6.4,.56-6.54,.56-6.4,.71-3.27,.14h-3.27l-3.27-.14-3.27-.28-5.4-.56-2.7-.28h-2.71l-6.4,.28-3.27,.42v-.28l.14-.28-.14-.28v-.28l-.28-.28,.14-1.41v-1.27l-.14-1.27-.28-2.39-.14-2.82v-8.73l.28-11.83,.14-5.91-.14-5.91-.15-11.42-.43-11.42-.14-5.35-.14-5.35v-1.97l.14-1.97,.14-2.11-.14-2,1.57,.28h1.71l3.42-.42,2.7-.14,2.85-.14h5.55Zm-6.55-2.4l-2.84,.28-4.7,.42-2.28,.14h-2.57l-.28,.14-.28,.42v.56l.14,.28,.28,.14-.43,.84-.28,.84-.28,1.97-.15,1.97-.13,1.83v5.78l.28,5.91,.43,12,.13,11.98v6.2l-.14,6.2-.28,12.41v5.63l.14,2.82,.15,2.82v2.98l.14,1.55,.14,.71,.15,.7h-.14l-.14,.28-.14,.28,.14,.42,.28,.42,.56,.28,2.85,.14h3l5.83-.14,3.13,.14,3.13,.14,6.4,.84,3.13,.28h6.4l3.13-.28,6.4-.71,6.26-.56,6.4-.56,6.4-.28h12.81l5.83,.28,5.98-.14h2.99l2.85-.28,2.99-.28,2.99-.56,.43-.14,.28-.28,.14-.42v-.42h.14l.28-.71,.28-.56,.28-1.55-.14-2.82v-4.92l-.14-4.94,.28-7.04,.28-7.04,.56-7.04,.28-7.04v-11.17l-.28-5.5-.71-5.5-.56-4.93-.43-4.94-.14-1.83v-1.97l.14-1.97,.43-1.84,.43-.14,.43-.28,.15-.42,.14-.42-.14-.56-.28-.28-.28-.28-.56-.14-26.47-.15h-13.24l-13.24,.14-13.24,.14h-6.54l-6.69-.14-5.83-.14h-2.85Z" fill="#373838" fill-rule="evenodd"/></svg>