<?xml version="1.0" encoding="UTF-8"?><svg id="Calque_1" xmlns="http://www.w3.org/2000/svg" viewBox="0 0 173.84 178.2"><path d="M111.07,121.21c-14.34,0-28.68-.08-43.02,.02-13.5,.09-26.99,.37-40.49,.57-3.71,.06-7.42,.25-11.12,.19-2.9-.05-3.31-.42-3.16-3.19,.22-4.03,.73-8.03,1.11-12.05,.11-1.21,.24-2.41,.33-3.62,.07-.94,2.16-1.73,3.65-1.68,3.56,.11,7.13,.07,10.7,.06,.76,0,1.52-.15,2.29-.17,9.08-.14,18.16-.27,27.23-.4,8.95-.12,17.9-.25,26.86-.34,11.13-.12,22.26-.21,33.4-.32,7.23-.07,14.46-.12,21.69-.28,3.19-.07,6.36-.49,9.55-.55,2.42-.04,4.85,.18,7.26,.38,1.54,.13,2.45,.76,2.54,2.64,.23,4.93,.74,9.85,1.15,14.78,.16,1.97-.63,3.16-2.58,3.54-1.18,.23-2.4,.38-3.6,.38-14.59,.03-29.19,.02-43.78,.02h0Zm33.37-18.86c-.76,0-1.51,0-2.27,0-13.82,.17-27.64,.4-41.46,.5-23.29,.17-46.58,.27-69.86,.4-.32,0-.64-.01-.96,.03-.17,.02-.32,.15-.51,.25,.28,.34,.53,.64,.94,1.14-3.01,.26-5.46-2.97-8.39-.76,.67,.28,1.32,.55,2.55,1.06-2.49,1.17-4.48,2.11-6.46,3.04,.09,.16,.19,.32,.28,.49,.95-.33,1.89-.65,2.84-.98,.04,.11,.08,.21,.11,.32-1.15,.91-2.3,1.82-3.45,2.73,.08,.11,.15,.21,.23,.32,.89-.23,1.77-.46,2.66-.69-.51,.89-1.2,1.49-1.89,2.11-.6,.54-2.01,.61-1.31,1.83,.98-.21,1.88-.4,2.96-.63-.65,2.18-3.76,1.96-3.7,4.49,2.78-1.81,5.31-3.45,7.83-5.09,.16,.21,.32,.43,.48,.64-2.17,1.99-4.34,3.97-6.51,5.96,.12,.14,.24,.29,.36,.43,1.06-.83,2.06-1.76,3.21-2.44,1.05-.62,2.13-1.76,3.77-.67-1.28,1.3-2.41,2.44-3.74,3.78,2.93-.26,4.47-3.49,7.67-2.92-.62,.74-1.11,1.34-1.64,1.97,3.38,1.01,5.17-2.93,8.77-2.4-1.25,.94-2.18,1.64-3.23,2.43,2.38,.31,4.38,.25,6.02-1.57,.54-.6,1.59-.76,2.41-1.12,.07,.12,.13,.24,.2,.35-.61,.75-1.22,1.5-1.83,2.25,.1,.18,.2,.36,.3,.55,2.66-.94,5.33-1.89,7.99-2.83,.06,.15,.11,.3,.17,.45-.65,.48-1.31,.97-2.39,1.77,1.49,0,2.43,.02,3.38,0,9.53-.18,19.05-.46,28.58-.54,22.71-.18,45.43-.27,68.14-.4,.68,0,1.36,0,2.04,0-.12-.69-.22-1.22-.32-1.8,1.94-.15,2.7,3.04,4.89,1.46-.57-1.11-1.13-2.22-1.7-3.33,.37-.31,.74-.61,1.11-.92,.96,1.47,1.92,2.94,2.88,4.41,.26-.21,.52-.42,.77-.64-1.01-1.67-2.03-3.35-3.04-5.02,.18-.13,.35-.25,.53-.38,.69,.47,1.38,.95,2.07,1.42,.1-.06,.2-.12,.31-.18-.71-1.6-1.43-3.19-2.14-4.79,.14-.08,.28-.15,.42-.23,.61,.34,1.22,.68,2.07,1.16-.25-1.35-.45-2.42-.62-3.37-.98,.59-1.87,1.13-2.76,1.66-.19-.22-.39-.44-.58-.66,.61-.68,1.14-1.47,1.85-2.02,1.03-.81,.98-1.41,.03-2.12-.86,.91-1.65,1.73-2.44,2.56-.22-.13-.45-.26-.67-.4,.32-.87,.64-1.74,.96-2.63-2.55-1.17-2.61,2.09-4.94,2.82,.57-1.29,.93-2.11,1.28-2.9-3.02-1.32-2.56,2.52-4.42,2.98-1.89-1.16,.42-1.97,.16-3.33Z"/><path d="M111.73,96.36c-14.14,0-28.29-.05-42.43,.01-13.18,.06-26.36,.23-39.53,.39-3.38,.04-6.77,.42-10.14,.27-4.42-.2-4.51-.09-3.81-4.85,.4-2.69,.81-5.39,1.27-8.07,.05-.29,.42-.65,.71-.74,.78-.24,1.6-.47,2.41-.48,13.24-.13,26.48-.23,39.73-.32,19.13-.14,38.26-.25,57.39-.41,9.4-.08,18.8-.28,28.2-.39,3.75-.04,7.5,.04,11.26,.04,1.45,0,2.37,.35,2.5,2.11,.23,3.28,.74,6.54,1.07,9.82,.12,1.24-.42,2.11-1.78,2.24-1.33,.13-2.67,.35-4.01,.35-14.27,.03-28.54,.02-42.82,.02h0Zm-63.35-1.12c1.32,0,2.07,0,2.83,0,15.24-.13,30.47-.27,45.71-.38,16.58-.12,33.16-.2,49.74-.34,.62,0,1.23-.52,2.19-.94,.95,.3,2.35,.74,3.75,1.18,.04-.16,.08-.31,.13-.47-.48-.7-.96-1.4-1.44-2.1,.16-.13,.31-.27,.47-.4,1.14,.81,2.28,1.62,3.42,2.43,.13-.11,.26-.23,.39-.34-.89-1.04-1.78-2.08-2.67-3.12,.13-.12,.26-.25,.38-.37,.66,.26,1.31,.51,2.44,.96-.87-1.36-1.48-2.32-2.38-3.74,1.2,.37,1.75,.54,2.59,.8-.27-.86-.46-1.44-.61-1.92-1.01,.31-1.92,.58-2.82,.86-.09-.18-.17-.36-.26-.54,.81-.63,1.62-1.25,2.63-2.04-1.69-1.28-2.35,1.68-3.92,.59,.26-.51,.53-1.03,.8-1.56-.09-.13-.19-.25-.28-.38-1.3,.71-2.61,1.41-3.91,2.12l-.27-.33c.3-.46,.6-.92,.88-1.33-1.29-.85-2.04-.02-2.89,.84-.47,.47-1.2,.66-1.82,.98-.1-.18-.2-.36-.3-.55,.4-.51,.79-1.02,1-1.29H31.5c.17,.76,.23,1.04,.31,1.4-2.81-.4-5.32-2.08-8-.54,.65,.11,1.34,.23,2.03,.35,.02,.18,.04,.36,.06,.53-1.81,.53-3.63,1.07-5.44,1.6,.02,.11,.05,.22,.07,.32,.84-.1,1.68-.2,2.98-.35-1.39,.8-2.34,1.35-3.3,1.9,.04,.08,.07,.16,.11,.24,.83-.15,1.65-.3,2.48-.45-.45,.66-1.04,.99-1.61,1.35-.55,.33-1.09,.68-1.63,1.03,.07,.1,.14,.21,.22,.31,.85-.14,1.7-.28,2.55-.42,.04,.15,.09,.3,.13,.44-1.21,.69-2.43,1.39-3.64,2.08,.08,.15,.16,.3,.25,.45,2.51-1.11,5.03-2.23,7.54-3.34,.09,.19,.18,.37,.28,.56-2.07,1.33-4.13,2.66-6.2,3.99,2.39-.51,4.25-2.61,7.31-2.04-1.41,.99-2.49,1.76-3.57,2.52l.12,.29c2.29-.82,4.58-1.64,6.87-2.45,.16,.23,.33,.46,.49,.69-.63,.31-1.25,.62-1.88,.92,.14,.21,.27,.42,.41,.63,2.53-.79,5.05-1.58,7.58-2.37,.06,.19,.12,.38,.18,.56-.99,.47-1.98,.93-2.98,1.4,.06,.2,.12,.39,.18,.59,2.8-.76,5.6-1.53,8.39-2.29,.08,.08,.15,.15,.23,.23-.58,.46-1.17,.92-1.75,1.38,.08,.13,.15,.26,.23,.39,2.65-.69,5.3-1.38,7.95-2.08,.03,.12,.06,.24,.1,.36-.54,.3-1.09,.61-2.17,1.21Z"/><path d="M157.96,66.96c.46,2.21,.87,4.22,1.31,6.22,.11,.49,.32,.96,.43,1.46,.53,2.34-.02,3.28-2.41,3.36-3.83,.12-7.67-.03-11.51-.06-9.34-.06-18.69-.15-28.03-.17-31.43-.08-62.86-.13-94.29-.21-1.34,0-2.72-.06-3.98-.43-.66-.19-1.59-1.15-1.56-1.71,.18-2.71,.71-5.39,.98-8.09,.14-1.37,.96-1.7,2.06-1.74,2.94-.12,5.88-.28,8.82-.27,4.67,.03,9.34,.25,14.01,.28,22.91,.14,45.83,.23,68.74,.38,14.27,.1,28.54,.28,42.8,.47,.92,.01,1.84,.35,2.62,.51Zm-7.31,10.22c.02-.07,.04-.14,.06-.21l-2.8-1.78c.06-.17,.13-.33,.19-.5,1.32,.28,2.63,.57,3.95,.85,.02-.08,.05-.17,.07-.25-1.15-.6-2.29-1.19-3.44-1.79,.07-.18,.14-.36,.21-.54,1.65,.55,3.29,1.09,4.94,1.64,.03-.09,.06-.17,.08-.26-.3-.28-.6-.56-1.25-1.17,1.27,.13,2.07,.21,2.88,.3,.02-.09,.04-.17,.06-.26-.98-.5-1.96-.99-3.24-1.64,.9-.11,1.38-.17,2.17-.27-.96-.48-1.62-.81-2.29-1.14l.07-.22c.78,.09,1.56,.17,2.34,.26,0-.08,.01-.15,.02-.23-1.7-.44-3.41-.88-5.11-1.32l.11-.44c.33-.12,.65-.24,1.18-.44-3.12-.9-6.1,1.36-8.97-.24-10.43-.08-20.86-.17-31.28-.24-4.16-.03-8.32,.02-12.48,0-20.03-.13-40.05-.27-60.08-.4-1.39,0-2.77,0-4.42,0,.5,.65,.81,1.05,1.12,1.46-.11,.17-.21,.34-.32,.5-1.32-.65-2.65-1.3-3.97-1.95-.07,.15-.14,.3-.22,.45,.13,.35,.27,.71,.56,1.49-1.57-.72-2.74-1.26-4.16-1.91,.18,.83,.27,1.26,.44,2.03-1.31-.5-2.32-.89-3.33-1.28-.05,.16-.1,.31-.15,.47,.72,.49,1.43,.97,2.15,1.46-.07,.14-.15,.29-.22,.43-.84-.18-1.69-.36-2.66-.56-.14,.38-.29,.81-.49,1.38,.76-.13,1.28-.22,2.37-.4-.87,1.1-1.41,1.78-2.14,2.69,.97-.18,1.64-.3,2.32-.43,.07,.13,.14,.26,.22,.4-.82,.73-1.63,1.47-2.45,2.2,.08,.1,.16,.2,.23,.31,1.17-.58,2.33-1.16,3.5-1.74l.27,.49c-.4,.5-.81,.99-1.21,1.49,1.01,.12,1.81-.19,2.63-.37,.6-.13,1.25-.19,1.85-.09,.51,.08,.97,.63,1.45,.63,6.46,.09,12.93,.14,19.39,.17,22.27,.11,44.54,.21,66.81,.31,2.91,.01,5.82,0,9.08,0-.68-.51-1.01-.75-1.79-1.34,3.06,.66,5.55,1.2,8.04,1.75,.05-.12,.1-.25,.14-.37-.39-.36-.78-.72-1.45-1.33,2.83,.71,5.29,1.34,7.76,1.96,.05-.17,.1-.35,.15-.52-.68-.36-1.36-.73-2.04-1.09,.05-.15,.11-.3,.16-.45l7.09,1.9,.1-.39c-.3-.36-.61-.72-1.26-1.51,2.71,.8,4.88,1.44,7.05,2.08Z"/></svg>