<?xml version="1.0" encoding="UTF-8"?><svg id="Calque_1" xmlns="http://www.w3.org/2000/svg" viewBox="0 0 173.84 178.2"><path d="M108.4,105.26c-12.05,0-24.09-.03-36.14,.01-6.01,.02-12.03,.19-18.04,.31-5,.1-10,.19-15,.33-2.65,.07-5.31,.24-7.96,.32-.85,.03-1.72,.01-2.55-.12-1.37-.23-2.29-.76-2.09-2.5,.58-4.98,1.01-9.98,1.49-14.97,.02-.21,.07-.42,.05-.62-.15-1.88,1.01-2.68,2.94-2.57,2.91,.17,5.85,0,8.77-.03,.42,0,.84-.15,1.26-.16,6.87-.12,13.73-.27,20.6-.35,11.34-.13,22.68-.21,34.03-.34,6.23-.07,12.45-.21,18.68-.32,6.17-.11,12.35-.17,18.52-.34,2.86-.08,5.71-.45,8.57-.54,1.69-.05,3.4,.12,5.08,.32,1.32,.16,2.08,.82,2.15,2.35,.24,5.04,.69,10.07,.93,15.12,.15,3.25-.53,3.85-4.36,4.02-4.84,.21-9.7,.05-14.55,.05-7.46,0-14.92,0-22.39,0h0Zm38.83-19.38c-12.45-.51-24.56-.85-36.57,.83-.43,5.34-.86,10.78-1.31,16.31,7,0,13.65,.09,20.3-.03,5.34-.1,10.67-.58,16-.63,1.48-.01,1.57-.59,1.57-1.58,.02-4.03,0-8.07,0-12.1,0-.93,0-1.87,0-2.8Zm-98.79,18.66c2.44-2.25,4.62-4.25,6.79-6.26,.53-.5,1.18-.95,1.51-1.56,.3-.56,.23-1.32,.33-1.99-.7-.01-1.4-.09-2.09-.01-.32,.04-.64,.33-.91,.57-2.33,2.08-4.65,4.17-6.97,6.25-.83,.74-1.68,1.47-2.52,2.2,.07,.12,.14,.23,.2,.35,.95-.12,1.9-.24,2.86-.36,.08-.17,.16-.34,.24-.52,.19,.44,.39,.89,.58,1.33Zm-9.29,.09c1.16-.62,2.24-1.04,3.13-1.71,1.87-1.39,4.5-2.16,4.56-5.14,0-.42-.08-.84-.12-1.26-.48,.06-1.11-.05-1.43,.21-1.88,1.53-3.77,3.07-5.47,4.79-.72,.73-1.73,1.75-.67,3.11Zm13.59-1.76c.66,1.65,1.42,1.61,2.89,1.16,3.17-.96,4.12-3.88,6.05-5.92,.23-.24,.07-.83,.1-1.25-.42,.11-.91,.11-1.25,.33-1.97,1.32-3.91,2.68-5.83,4.06-.68,.49-1.3,1.06-1.97,1.61Zm-21.85,.84c2.58,1.62,3.78-.37,5.28-1.73,1.64-1.49,2.44-3.36,3.04-5.72-1.04,.15-1.8,.22-2.54,.39-.24,.05-.52,.31-.63,.55-.25,.53-.27,1.22-.63,1.64-1.49,1.7-3.06,3.32-4.52,4.88Zm-1.05-1.31c.97-1.14,1.83-2.07,2.61-3.08,.79-1.03,1.54-2.09,2.23-3.18,.67-1.05,.57-1.73-.88-2.08-.83-.19-1.24-.39-1.67,.57-.37,.81-1.26,1.38-1.64,2.18-.79,1.68-1.37,3.45-.65,5.58Zm35.55,.35c.13,.24,.26,.47,.38,.71,1.05-.12,2.39,.11,3.1-.44,1.43-1.11,2.59-2.61,3.71-4.06,.29-.38,.03-1.18,.02-1.79-.55,.14-1.21,.14-1.64,.45-.9,.63-1.71,1.4-2.52,2.15-1.04,.97-2.04,1.98-3.05,2.98Zm-5.66,.53l.28,.52c.96-.15,2.21,.03,2.83-.5,1.29-1.1,2.3-2.56,3.32-3.95,.17-.23-.07-1.1-.31-1.19-.39-.15-1.11-.09-1.39,.19-1.63,1.59-3.17,3.28-4.73,4.93Zm13.18-.18c2.72,.84,4.39-.03,5.73-1.96,.6-.87,1.37-1.59,.87-2.91-3.29,.13-3.8,3.75-6.6,4.87Zm8.32-.46c.1,.14,.2,.28,.29,.42,.94,0,1.95,.2,2.81-.07,.65-.2,1.15-.98,1.6-1.58,.15-.2,0-.93-.08-.94-.62-.1-1.4-.31-1.86-.04-1.01,.59-1.85,1.45-2.76,2.2Z"/><path d="M48.44,104.53c-.19-.44-.38-.88-.58-1.33-.08,.17-.16,.34-.24,.52-.95,.12-1.9,.24-2.86,.36-.07-.12-.14-.23-.2-.35,.84-.73,1.69-1.46,2.52-2.2,2.33-2.08,4.64-4.17,6.97-6.25,.27-.24,.59-.54,.91-.57,.69-.08,1.39,0,2.09,.01-.09,.67-.03,1.42-.33,1.99-.33,.61-.98,1.07-1.51,1.56-2.17,2.01-4.35,4.01-6.79,6.26Z" fill="#fff"/><path d="M39.15,104.62c-1.06-1.36-.05-2.38,.67-3.11,1.7-1.72,3.6-3.25,5.47-4.79,.32-.26,.94-.15,1.43-.21,.04,.42,.13,.84,.12,1.26-.06,2.97-2.7,3.75-4.56,5.14-.9,.67-1.98,1.09-3.13,1.71Z" fill="#fff"/><path d="M52.74,102.86c.67-.55,1.29-1.12,1.97-1.61,1.93-1.38,3.87-2.74,5.83-4.06,.34-.23,.83-.23,1.25-.33-.02,.43,.13,1.02-.1,1.25-1.94,2.03-2.88,4.96-6.05,5.92-1.48,.44-2.23,.49-2.89-1.16Z" fill="#fff"/><path d="M30.89,103.7c1.45-1.55,3.03-3.18,4.52-4.88,.36-.41,.38-1.11,.63-1.64,.11-.24,.39-.5,.63-.55,.74-.17,1.5-.24,2.54-.39-.6,2.37-1.4,4.23-3.04,5.72-1.49,1.36-2.7,3.35-5.28,1.73Z" fill="#fff"/><path d="M29.85,102.38c-.72-2.14-.14-3.91,.65-5.58,.38-.81,1.27-1.38,1.64-2.18,.43-.95,.85-.76,1.67-.57,1.44,.34,1.55,1.03,.88,2.08-.7,1.09-1.44,2.16-2.23,3.18-.77,1-1.64,1.94-2.61,3.08Z" fill="#fff"/><path d="M65.4,102.73c1.02-.99,2.01-2.01,3.05-2.98,.81-.75,1.62-1.52,2.52-2.15,.44-.31,1.09-.31,1.64-.45,0,.61,.27,1.41-.02,1.79-1.12,1.45-2.28,2.94-3.71,4.06-.71,.55-2.05,.32-3.1,.44-.13-.24-.26-.47-.38-.71Z" fill="#fff"/><path d="M59.74,103.26c1.57-1.65,3.11-3.34,4.73-4.93,.28-.28,1-.34,1.39-.19,.24,.1,.47,.96,.31,1.19-1.02,1.38-2.02,2.84-3.32,3.95-.63,.54-1.87,.36-2.83,.5l-.28-.52Z" fill="#fff"/><path d="M72.92,103.08c2.8-1.12,3.31-4.74,6.6-4.87,.5,1.32-.26,2.05-.87,2.91-1.34,1.92-3,2.79-5.73,1.96Z" fill="#fff"/><path d="M81.24,102.62c.91-.75,1.76-1.61,2.76-2.2,.46-.27,1.24-.06,1.86,.04,.08,.01,.23,.74,.08,.94-.46,.6-.96,1.38-1.6,1.58-.86,.27-1.87,.07-2.81,.07-.1-.14-.2-.28-.29-.42Z" fill="#fff"/></svg>