<?xml version="1.0" encoding="UTF-8"?><svg id="Calque_1" xmlns="http://www.w3.org/2000/svg" viewBox="0 0 173.84 178.2"><g id="Groupe_102"><circle id="Ellipse_36" cx="34.62" cy="92.3" r="8.24" fill="#2a2b2b"/><circle id="Ellipse_37" cx="34.62" cy="92.3" r="4.67" fill="#fff"/><path id="Tracé_158" d="M37.17,89.82l.38,.38-.47,.46-.38,.47-.47,.65-.76,1.31-.66,1.31-.38,.65-.38,.76-.57-.1,.38-.65,.28-.65,.28-.66,.28-.65,.47-.93,.66-.84,.57-.76,.75-.75Z" fill="#2a2b2b" fill-rule="evenodd"/><path id="Tracé_159" d="M37.93,91.04l.09,.65-.09,.65-.19,.66-.28,.65-.38,.57-.57,.57-.57,.47-.66,.38,.19-.57,1.23-2.33,1.23-1.7Z" fill="#2a2b2b" fill-rule="evenodd"/><path id="Tracé_160" d="M35.66,89.17l.66,.19,.57,.28-.66,.46-.66,.57-.57,.66-.57,.65-.47,.65-.57,.94-.38,.84-.19,.46-.1,.47-.38-.28-.28-.38,.19-.84,.38-.84,.47-.76,.57-.76,.95-1.02,.57-.76,.47-.54Z" fill="#2a2b2b" fill-rule="evenodd"/><path id="Tracé_161" d="M34.63,88.8l.09,.19-.38,.28-.47,.28-.76,.84-.66,.94-.57,.84-.57,1.02-.09-.46v-.94l.19-.46,.19-.38,.57-.84,.66-.65,.47-.28,.38-.19,.47-.09,.48-.09Z" fill="#2a2b2b" fill-rule="evenodd"/></g><g id="Groupe_103"><circle id="Ellipse_36-2" cx="34.62" cy="72.13" r="8.24" fill="#2a2b2b"/><circle id="Ellipse_37-2" cx="34.62" cy="72.13" r="4.67" fill="#fff"/><path id="Tracé_158-2" d="M37.17,69.66l.38,.38-.47,.46-.38,.47-.47,.65-.76,1.31-.66,1.31-.38,.65-.38,.76-.57-.1,.38-.65,.28-.65,.28-.66,.28-.65,.47-.93,.66-.84,.57-.76,.75-.75Z" fill="#2a2b2b" fill-rule="evenodd"/><path id="Tracé_159-2" d="M37.93,70.87l.09,.65-.09,.65-.19,.66-.28,.65-.38,.57-.57,.57-.57,.47-.66,.38,.19-.57,1.23-2.33,1.23-1.7Z" fill="#2a2b2b" fill-rule="evenodd"/><path id="Tracé_160-2" d="M35.66,69l.66,.19,.57,.28-.66,.46-.66,.57-.57,.66-.57,.65-.47,.65-.57,.94-.38,.84-.19,.46-.1,.47-.38-.28-.28-.38,.19-.84,.38-.84,.47-.76,.57-.76,.95-1.02,.57-.76,.47-.54Z" fill="#2a2b2b" fill-rule="evenodd"/><path id="Tracé_161-2" d="M34.63,68.63l.09,.19-.38,.28-.47,.28-.76,.84-.66,.94-.57,.84-.57,1.02-.09-.46v-.94l.19-.46,.19-.38,.57-.84,.66-.65,.47-.28,.38-.19,.47-.09,.48-.09Z" fill="#2a2b2b" fill-rule="evenodd"/></g><g id="Groupe_104"><circle id="Ellipse_36-3" cx="34.62" cy="112.46" r="8.24" fill="#2a2b2b"/><circle id="Ellipse_37-3" cx="34.62" cy="112.46" r="4.67" fill="#fff"/><path id="Tracé_158-3" d="M37.17,109.99l.38,.38-.47,.46-.38,.47-.47,.65-.76,1.31-.66,1.31-.38,.65-.38,.76-.57-.1,.38-.65,.28-.65,.28-.66,.28-.65,.47-.93,.66-.84,.57-.76,.75-.75Z" fill="#2a2b2b" fill-rule="evenodd"/><path id="Tracé_159-3" d="M37.93,111.2l.09,.65-.09,.65-.19,.66-.28,.65-.38,.57-.57,.57-.57,.47-.66,.38,.19-.57,1.23-2.33,1.23-1.7Z" fill="#2a2b2b" fill-rule="evenodd"/><path id="Tracé_160-3" d="M35.66,109.33l.66,.19,.57,.28-.66,.46-.66,.57-.57,.66-.57,.65-.47,.65-.57,.94-.38,.84-.19,.46-.1,.47-.38-.28-.28-.38,.19-.84,.38-.84,.47-.76,.57-.76,.95-1.02,.57-.76,.47-.54Z" fill="#2a2b2b" fill-rule="evenodd"/><path id="Tracé_161-3" d="M34.63,108.96l.09,.19-.38,.28-.47,.28-.76,.84-.66,.94-.57,.84-.57,1.02-.09-.46v-.94l.19-.46,.19-.38,.57-.84,.66-.65,.47-.28,.38-.19,.47-.09,.48-.09Z" fill="#2a2b2b" fill-rule="evenodd"/></g><path id="Tracé_162" d="M129.72,66.78l-.07,.08-.18,.08,.02,.06h-.68s.08,0,.08,0l.09-.06-.02-.06-.32-.08-.43-.08-.52-.08-.52-.07,1.3-.02,1.19-.03-.07,.08,.14,.18Zm-1.14,.24l-2.79,.03h0l.08-.06-.11-.03-.11-.02-1.05-.16-1.15-.17-.21-.02h2.2s.43,.09,.43,.09l.52,.07,.85,.16,.21,.05,.31,.03,.71,.04h.1Zm-4.38,.04h-1.2l-.43-.08-.42-.07-1.14-.15-.63-.09-.62-.09h1.9l.22,.07,.32,.07,.73,.11,.95,.16,.31,.07Zm-3.2,.02h-2.4l-.95-.16-1.04-.16-.43-.09-.62-.07h2.4l.32,.07,.43,.08,.94,.12,1.36,.2Zm-4.2,0h-1.7l-.32-.06-.41-.06-.93-.11-.94-.12-.52-.05-.61-.04h3.1s.12,.05,.12,.05l.22,.06,.73,.12,1.27,.22Zm-3.8,0h-2.4l.09-.04v-.05s-.13-.03-.13-.03l-.52-.08-.52-.08-.62-.06-1.03-.1h2.7s.12,.07,.12,.07l.32,.07,.42,.07,.42,.06,1.15,.17Zm-3.8,0h-2.4l-.93-.1-.93-.11-.73-.08-.72-.08,2.59-.03,.42,.06,.41,.06,.83,.09,.52,.05,.52,.07,.42,.07Zm-4.8,0h-2l-.31-.05-.3-.06-.52-.07-.62-.05-.71-.05-.72-.05,2.99-.03,.21,.06,.22,.07,.83,.1,.92,.15Zm-4.2,0h-2.5l-.22-.06-.31-.05-.73-.1-.62-.07,2.79-.03,.43,.12,.73,.11,.42,.07Zm-4.6,0l-3.09-.03-.52-.07-1.05-.15,3.29-.05,.32,.07,.32,.07,.73,.16Zm-5.1,.02h-1.89l-.62-.07-.62-.07-.41-.03-.51-.03,3.29-.02h.2l.02,.06,.12,.06,.22,.05,.21,.06Zm-4.2,.02h-2l-1.14-.13-.62-.07h2.6s.43,.08,.43,.08l.62,.09,.11,.03Zm-4.2,.02h-2.9s-.31-.03-.31-.03l-.21-.03-.62-.08-.62-.07h3.2l.32,.06,.41,.06,.73,.1Zm-5,.02h-1.3l-.21-.03-.93-.11-1.03-.1h1.6l.32,.06,.41,.05,.83,.1,.31,.05Zm-3.4,0h-1.61l-.52-.07-.62-.07-1.23-.11h2.9s-.09,.03-.09,.03l-.09,.02v.03s.21,.02,.21,.02l1.05,.13Zm-3.6,0l-2.81-.02-.32-.06-.41-.06-.82-.09-.52-.05h0l3.41,.02,.22,.07,.42,.07,.83,.12Zm65.91,2.37l.11,.72-.09,.72c.11,.68,.01,1.39-.28,2.01-.17,.37-.38,.72-.63,1.04l-13.49,.07h-3.19l-3.29,.02-3.19,.02h-3.2s-7.79,.03-7.79,.03h-3.9l-4,.02-7.79,.05-7.88,.05h-3.7l-3.8,.02h-3.5s-1.7,.01-1.7,.01l-1.81-.02-.15-.17-.15-.16-.5-1.73-.19-1.04-.09-1-.09-1.01-.15-.51-.35-.51-.09-.32-.15-.16-.25-.16,.19-.02,.29-.02,.09-.04v-.03s.78-.04,.78-.04l.8-.02h.3s.3,.01,.3,.01h.3s.29-.04,.29-.04h10.4s.8,0,.8,0l.2,.02h.3s.19,0,.19,0l.29-.02,7.49-.03,.31,.03h.4s.3,0,.3,0h.19s.19-.05,.19-.05l6.59-.02h.2s.2,.02,.2,.02h.19s.3-.03,.3-.03h25.2s2.4,.01,2.4,.01h2.4l2.4-.02,2.49-.03,2.19-.02,2.19-.03,1.49-.04h.69s.8-.03,.8-.03l-.14,.21,.06,.21,.22,.42,.53,.8,.22,.41,.23,.37Zm-70.91-2.44l-1.8,.02-.82-.08-.82-.08-.62-.05-.61-.04-.81-.02h-.8v.02l.43,.09,.62,.08,1.44,.15-.79,.04-.69,.04-1.33-.11-1.63-.12-1.63-.11,.99-.04,.9-.02,1.99-.03h4.1l.32,.06,.32,.06,.73,.09,.52,.06Zm-4.41,6.85h-1.6l-1.7,.02-.25-.17h0l.91,.03,1.31,.04h1.3l.03,.08Zm-.05-.19l-.32-.03-.41-.02-.71-.03-1.42-.06-1.02-.05-.13-.12h0l1.21,.04,.81,.02,.91,.02h.9s.18,.23,.18,.23Zm-.52-2.51l-1.02-.05-1.11-.04-1.11-.03-1.01-.02-.06-.19,1.01,.04,.81,.02,1.22,.06,.71,.02h.3s.19,0,.19,0l.06,.19Zm.03,.48l-.92-.08-1.02-.08-.61-.03-.51-.02-.61-.02h-.5l-.05-.17h.4l1.01,.03,.91,.03,.81,.04,.51,.02h.5s.08,.28,.08,.28Zm-.03-.8l-.52-.05-.51-.03-.82-.05-.91-.03-.81-.04h-.41s-.41-.02-.41-.02l-.17-.23h.6l.91,.03,1.01,.04,.81,.05,.61,.03,.51,.02,.09,.28Zm.05,.87l-.09,.04,.09,.3-.62-.05-.62-.03-1.22-.06-.81-.03h-.5s-.41-.02-.41-.02v-.05s.03-.21,.03-.21l1,.02,1.01,.03,2.13,.07Zm.27,1.63l-.31-.02-.82-.05-.71-.03-.91-.04-.91-.04-.31-.02-.18-.25,.91,.04,.81,.04,1.22,.05h.2s.8,.01,.8,.01h.1s.09,.32,.09,.32Zm-.32-3.19l-.03,.26-.51-.05-.61-.03-.91-.05-1.22-.06-.71-.02h-.6l-.19-.34,.61,.03,.61,.03,1.14,.09,1.23,.09,.61,.03,.59,.03Zm.09,2.06l-.02,.27-.41-.03-.41-.03-1.01-.04-1.21-.03-1.11-.03,.02-.29h.6s.61,.04,.61,.04l1.02,.07,.81,.04,.51,.02,.61,.02Zm.12,.76l-.21-.03-.32-.04-.62-.05-.62-.05-1.22-.06-1.21-.04-.05-.16,1.31,.03,1.32,.04,1.41,.04h.1l.11,.33Zm-.23-3.23l-.03,.24-.52-.05-.52-.06-1.23-.09-1.33-.08-1.31-.04-.05-.15,.61,.02,.61,.02h.7l.61,.03,1.22,.06,1.23,.09Zm-.06-.21l-1.02-.07-.91-.04-.71-.03-.81-.04-.81-.02h-.8s-.31-.39-.31-.39l1.01,.05,1.01,.05,1.73,.11,.71,.04,.41,.03h.38s.1,.3,.1,.3Zm-.12-.43l-.72-.08-.72-.05-1.63-.1-1.12-.06-.61-.03h-.5l-.27-.25h.3s1.01,.05,1.01,.05l1.01,.04,1.42,.09,.41,.02h.3s.4,.01,.4,.01h.39s-.02-.07-.02-.07l-.31-.05-.31-.05-.51-.04-.92-.07-.91-.04-1.12-.06-.61-.02h-.7l-.16-.21h.6s1,.05,1,.05l.91,.04,1.62,.09,1.53,.1,.22,.7Zm-.8-1.73l-.05,.15,.05,.16-1.45-.11-1.54-.12-1.43-.09-.61-.03-.5-.02v-.05s.04-.16,.04-.16l.05-.16,1.34,.12,1.33,.1,1.43,.11,1.34,.09Zm.55,.87l-.52-.06-.62-.05-1.33-.08-.71-.04-.81-.04-.91-.02h-.4s-.5,0-.5,0l-.33-.45,1.14,.09,.82,.05,2.04,.14,1.03,.09,.41,.05,.41,.05,.28,.29Zm78.23,1.11l-.22-.41-.22-.41-.63-.8-.36-.55-.03-.09-.23-.09,.09-.02,.09-.04-.11-.03-.21-.02-.51-.02-.5-.02h-2.2l-1.09,.03,.08-.08-.02-.08-.14-.15-.02-.08-.12-.09-.12-.05-.21-.03-.21-.02h-.4s-.3,0-.3,0h-2.02s-2.2,0-2.2,0l-4.19,.03h-9.9l-2.79,.02h-2.8s-5.59,.07-5.59,.07l-5.57,.07-5.59,.08-2.59,.02h-2.6s-5.2,0-5.2,0h-5.21l-5.2-.02-3.81-.03h-1.9l-1.89-.02h-2l-1.89,.02-1.79,.04-.89,.03-.89,.04-.38,.04-.19,.04-.08,.05,.11,.05h-.39s-.4,.04-.4,.04l-.19,.04-.29,.05-.27,.12-.16,.14-.06,.14,.04,.14,.15,.19,.22,.42,.32,.42,.63,.82,.38,.6,.38,.61,.17,.6,.07,.61,.09,.64-.09,.05v.05s.12,.02,.12,.02l.11,.38,.31,.38,.41,.37,.6,.37,.11,.03,.11,.02,.12,.06,.21,.05,.41,.03h.5l1-.02,1-.02,.99-.03h1l.27,.23,.22,.05,.31,.05,.3,.02,.31,.02,1.7,.03,1.7,.02h6.91s3.4-.03,3.4-.03l4.09-.03,4.09-.02,8.28-.07,4.1-.02,4.09-.02h8.2l3.9-.02h4l1.99-.02,1.89-.03,1.99-.03,8.59-.02c1.94,.05,3.89-.02,5.82-.2,.64-.1,.76-.21,.57-.71-.09-.25-.21-.49-.36-.71l.82-1.66-.03-.78-.14-.83Z" fill="#141325" fill-rule="evenodd"/><path id="Tracé_163" d="M129.72,87.96l-.07,.08-.18,.08,.02,.06h-.68s.08,0,.08,0l.09-.06-.02-.06-.32-.08-.43-.08-.52-.08-.52-.07,1.3-.02,1.19-.03-.07,.08,.14,.18Zm-1.14,.24l-2.79,.03h0l.08-.06-.11-.03-.11-.02-1.05-.16-1.15-.17-.21-.02h2.2s.43,.09,.43,.09l.52,.07,.85,.16,.21,.05,.31,.03,.71,.04h.1Zm-4.38,.04h-1.2l-.43-.08-.42-.07-1.14-.15-.63-.09-.62-.09h1.9l.22,.07,.32,.07,.73,.11,.95,.16,.31,.07Zm-3.2,.02h-2.4l-.95-.16-1.04-.16-.43-.09-.62-.07h2.4l.32,.07,.43,.08,.94,.12,1.36,.2Zm-4.2,0h-1.7l-.32-.06-.41-.06-.93-.11-.94-.12-.52-.05-.61-.04h3.1s.12,.05,.12,.05l.22,.06,.73,.12,1.27,.22Zm-3.8,0h-2.4l.09-.04v-.05s-.13-.03-.13-.03l-.52-.08-.52-.08-.62-.06-1.03-.1h2.7s.12,.07,.12,.07l.32,.07,.42,.07,.42,.06,1.15,.17Zm-3.8,0h-2.4l-.93-.1-.93-.11-.73-.08-.72-.08,2.59-.03,.42,.06,.41,.06,.83,.09,.52,.05,.52,.07,.42,.07Zm-4.8,0h-2l-.31-.05-.3-.06-.52-.07-.62-.05-.71-.05-.72-.05,2.99-.03,.21,.06,.22,.07,.83,.1,.92,.15Zm-4.2,0h-2.5l-.22-.06-.31-.05-.73-.1-.62-.07,2.79-.03,.43,.12,.73,.11,.42,.07Zm-4.6,0l-3.09-.03-.52-.07-1.05-.15,3.29-.05,.32,.07,.32,.07,.73,.16Zm-5.1,.02h-1.89l-.62-.07-.62-.07-.41-.03-.51-.03,3.29-.02h.2l.02,.06,.12,.06,.22,.05,.21,.06Zm-4.2,.02h-2l-1.14-.13-.62-.07h2.6s.43,.08,.43,.08l.62,.09,.11,.03Zm-4.2,.02h-2.9s-.31-.03-.31-.03l-.21-.03-.62-.08-.62-.07h3.2l.32,.06,.41,.06,.73,.1Zm-5,.02h-1.3l-.21-.03-.93-.11-1.03-.1h1.6l.32,.06,.41,.05,.83,.1,.31,.05Zm-3.4,0h-1.61l-.52-.07-.62-.07-1.23-.11h2.9s-.09,.03-.09,.03l-.09,.02v.03s.21,.02,.21,.02l1.05,.13Zm-3.6,0l-2.81-.02-.32-.06-.41-.06-.82-.09-.52-.05h0l3.41,.02,.22,.07,.42,.07,.83,.12Zm65.91,2.37l.11,.72-.09,.72c.11,.68,.01,1.39-.28,2.01-.17,.37-.38,.72-.63,1.04l-13.49,.07h-3.19l-3.29,.02-3.19,.02h-3.2s-7.79,.03-7.79,.03h-3.9l-4,.02-7.79,.05-7.88,.05h-3.7l-3.8,.02h-3.5s-1.7,.01-1.7,.01l-1.81-.02-.15-.17-.15-.16-.5-1.73-.19-1.04-.09-1-.09-1.01-.15-.51-.35-.51-.09-.32-.15-.16-.25-.16,.19-.02,.29-.02,.09-.04v-.03s.78-.04,.78-.04l.8-.02h.3s.3,.01,.3,.01h.3s.29-.04,.29-.04h10.4s.8,0,.8,0l.2,.02h.3s.19,0,.19,0l.29-.02,7.49-.03,.31,.03h.4s.3,0,.3,0h.19s.19-.05,.19-.05l6.59-.02h.2s.2,.02,.2,.02h.19s.3-.03,.3-.03h25.2s2.4,.01,2.4,.01h2.4l2.4-.02,2.49-.03,2.19-.02,2.19-.03,1.49-.04h.69s.8-.03,.8-.03l-.14,.21,.06,.21,.22,.42,.53,.8,.22,.41,.23,.37Zm-70.91-2.44l-1.8,.02-.82-.08-.82-.08-.62-.05-.61-.04-.81-.02h-.8v.02l.43,.09,.62,.08,1.44,.15-.79,.04-.69,.04-1.33-.11-1.63-.12-1.63-.11,.99-.04,.9-.02,1.99-.03h4.1l.32,.06,.32,.06,.73,.09,.52,.06Zm-4.41,6.85h-1.6l-1.7,.02-.25-.17h0l.91,.03,1.31,.04h1.3l.03,.08Zm-.05-.19l-.32-.03-.41-.02-.71-.03-1.42-.06-1.02-.05-.13-.12h0l1.21,.04,.81,.02,.91,.02h.9s.18,.23,.18,.23Zm-.52-2.51l-1.02-.05-1.11-.04-1.11-.03-1.01-.02-.06-.19,1.01,.04,.81,.02,1.22,.06,.71,.02h.3s.19,0,.19,0l.06,.19Zm.03,.48l-.92-.08-1.02-.08-.61-.03-.51-.02-.61-.02h-.5l-.05-.17h.4l1.01,.03,.91,.03,.81,.04,.51,.02h.5s.08,.28,.08,.28Zm-.03-.8l-.52-.05-.51-.03-.82-.05-.91-.03-.81-.04h-.41s-.41-.02-.41-.02l-.17-.23h.6l.91,.03,1.01,.04,.81,.05,.61,.03,.51,.02,.09,.28Zm.05,.87l-.09,.04,.09,.3-.62-.05-.62-.03-1.22-.06-.81-.03h-.5s-.41-.02-.41-.02v-.05s.03-.21,.03-.21l1,.02,1.01,.03,2.13,.07Zm.27,1.63l-.31-.02-.82-.05-.71-.03-.91-.04-.91-.04-.31-.02-.18-.25,.91,.04,.81,.04,1.22,.05h.2s.8,.01,.8,.01h.1s.09,.32,.09,.32Zm-.32-3.19l-.03,.26-.51-.05-.61-.03-.91-.05-1.22-.06-.71-.02h-.6l-.19-.34,.61,.03,.61,.03,1.14,.09,1.23,.09,.61,.03,.59,.03Zm.09,2.06l-.02,.27-.41-.03-.41-.03-1.01-.04-1.21-.03-1.11-.03,.02-.29h.6s.61,.04,.61,.04l1.02,.07,.81,.04,.51,.02,.61,.02Zm.12,.76l-.21-.03-.32-.04-.62-.05-.62-.05-1.22-.06-1.21-.04-.05-.16,1.31,.03,1.32,.04,1.41,.04h.1l.11,.33Zm-.23-3.23l-.03,.24-.52-.05-.52-.06-1.23-.09-1.33-.08-1.31-.04-.05-.15,.61,.02,.61,.02h.7l.61,.03,1.22,.06,1.23,.09Zm-.06-.21l-1.02-.07-.91-.04-.71-.03-.81-.04-.81-.02h-.8s-.31-.39-.31-.39l1.01,.05,1.01,.05,1.73,.11,.71,.04,.41,.03h.38s.1,.3,.1,.3Zm-.12-.43l-.72-.08-.72-.05-1.63-.1-1.12-.06-.61-.03h-.5l-.27-.25h.3s1.01,.05,1.01,.05l1.01,.04,1.42,.09,.41,.02h.3s.4,.01,.4,.01h.39s-.02-.07-.02-.07l-.31-.05-.31-.05-.51-.04-.92-.07-.91-.04-1.12-.06-.61-.02h-.7l-.16-.21h.6s1,.05,1,.05l.91,.04,1.62,.09,1.53,.1,.22,.7Zm-.8-1.73l-.05,.15,.05,.16-1.45-.11-1.54-.12-1.43-.09-.61-.03-.5-.02v-.05s.04-.16,.04-.16l.05-.16,1.34,.12,1.33,.1,1.43,.11,1.34,.09Zm.55,.87l-.52-.06-.62-.05-1.33-.08-.71-.04-.81-.04-.91-.02h-.4s-.5,0-.5,0l-.33-.45,1.14,.09,.82,.05,2.04,.14,1.03,.09,.41,.05,.41,.05,.28,.29Zm78.23,1.11l-.22-.41-.22-.41-.63-.8-.36-.55-.03-.09-.23-.09,.09-.02,.09-.04-.11-.03-.21-.02-.51-.02-.5-.02h-2.2l-1.09,.03,.08-.08-.02-.08-.14-.15-.02-.08-.12-.09-.12-.05-.21-.03-.21-.02h-.4s-.3,0-.3,0h-2.02s-2.2,0-2.2,0l-4.19,.03h-9.9l-2.79,.02h-2.8s-5.59,.07-5.59,.07l-5.57,.07-5.59,.08-2.59,.02h-2.6s-5.2,0-5.2,0h-5.21l-5.2-.02-3.81-.03h-1.9l-1.89-.02h-2l-1.89,.02-1.79,.04-.89,.03-.89,.04-.38,.04-.19,.04-.08,.05,.11,.05h-.39s-.4,.04-.4,.04l-.19,.04-.29,.05-.27,.12-.16,.14-.06,.14,.04,.14,.15,.19,.22,.42,.32,.42,.63,.82,.38,.6,.38,.61,.17,.6,.07,.61,.09,.64-.09,.05v.05s.12,.02,.12,.02l.11,.38,.31,.38,.41,.37,.6,.37,.11,.03,.11,.02,.12,.06,.21,.05,.41,.03h.5l1-.02,1-.02,.99-.03h1l.27,.23,.22,.05,.31,.05,.3,.02,.31,.02,1.7,.03,1.7,.02h6.91s3.4-.03,3.4-.03l4.09-.03,4.09-.02,8.28-.07,4.1-.02,4.09-.02h8.2l3.9-.02h4l1.99-.02,1.89-.03,1.99-.03,8.59-.02c1.94,.05,3.89-.02,5.82-.2,.64-.1,.76-.21,.57-.71-.09-.25-.21-.49-.36-.71l.82-1.66-.03-.78-.14-.83Z" fill="#141325" fill-rule="evenodd"/><path id="Tracé_164" d="M129.72,111.05l-.07,.08-.18,.08,.02,.06h-.68s.08,0,.08,0l.09-.06-.02-.06-.32-.08-.43-.08-.52-.08-.52-.07,1.3-.02,1.19-.03-.07,.08,.14,.18Zm-1.14,.24l-2.79,.03h0l.08-.06-.11-.03-.11-.02-1.05-.16-1.15-.17-.21-.02h2.2s.43,.09,.43,.09l.52,.07,.85,.16,.21,.05,.31,.03,.71,.04h.1Zm-4.38,.04h-1.2l-.43-.08-.42-.07-1.14-.15-.63-.09-.62-.09h1.9l.22,.07,.32,.07,.73,.11,.95,.16,.31,.07Zm-3.2,.02h-2.4l-.95-.16-1.04-.16-.43-.09-.62-.07h2.4l.32,.07,.43,.08,.94,.12,1.36,.2Zm-4.2,0h-1.7l-.32-.06-.41-.06-.93-.11-.94-.12-.52-.05-.61-.04h3.1s.12,.05,.12,.05l.22,.06,.73,.12,1.27,.22Zm-3.8,0h-2.4l.09-.04v-.05s-.13-.03-.13-.03l-.52-.08-.52-.08-.62-.06-1.03-.1h2.7s.12,.07,.12,.07l.32,.07,.42,.07,.42,.06,1.15,.17Zm-3.8,0h-2.4l-.93-.1-.93-.11-.73-.08-.72-.08,2.59-.03,.42,.06,.41,.06,.83,.09,.52,.05,.52,.07,.42,.07Zm-4.8,0h-2l-.31-.05-.3-.06-.52-.07-.62-.05-.71-.05-.72-.05,2.99-.03,.21,.06,.22,.07,.83,.1,.92,.15Zm-4.2,0h-2.5l-.22-.06-.31-.05-.73-.1-.62-.07,2.79-.03,.43,.12,.73,.11,.42,.07Zm-4.6,0l-3.09-.03-.52-.07-1.05-.15,3.29-.05,.32,.07,.32,.07,.73,.16Zm-5.1,.02h-1.89l-.62-.07-.62-.07-.41-.03-.51-.03,3.29-.02h.2l.02,.06,.12,.06,.22,.05,.21,.06Zm-4.2,.02h-2l-1.14-.13-.62-.07h2.6s.43,.08,.43,.08l.62,.09,.11,.03Zm-4.2,.02h-2.9s-.31-.03-.31-.03l-.21-.03-.62-.08-.62-.07h3.2l.32,.06,.41,.06,.73,.1Zm-5,.02h-1.3l-.21-.03-.93-.11-1.03-.1h1.6l.32,.06,.41,.05,.83,.1,.31,.05Zm-3.4,0h-1.61l-.52-.07-.62-.07-1.23-.11h2.9s-.09,.03-.09,.03l-.09,.02v.03s.21,.02,.21,.02l1.05,.13Zm-3.6,0l-2.81-.02-.32-.06-.41-.06-.82-.09-.52-.05h0l3.41,.02,.22,.07,.42,.07,.83,.12Zm65.91,2.37l.11,.72-.09,.72c.11,.68,.01,1.39-.28,2.01-.17,.37-.38,.72-.63,1.04l-13.49,.07h-3.19l-3.29,.02-3.19,.02h-3.2s-7.79,.03-7.79,.03h-3.9l-4,.02-7.79,.05-7.88,.05h-3.7l-3.8,.02h-3.5s-1.7,.01-1.7,.01l-1.81-.02-.15-.17-.15-.16-.5-1.73-.19-1.04-.09-1-.09-1.01-.15-.51-.35-.51-.09-.32-.15-.16-.25-.16,.19-.02,.29-.02,.09-.04v-.03s.78-.04,.78-.04l.8-.02h.3s.3,.01,.3,.01h.3s.29-.04,.29-.04h10.4s.8,0,.8,0l.2,.02h.3s.19,0,.19,0l.29-.02,7.49-.03,.31,.03h.4s.3,0,.3,0h.19s.19-.05,.19-.05l6.59-.02h.2s.2,.02,.2,.02h.19s.3-.03,.3-.03h25.2s2.4,.01,2.4,.01h2.4l2.4-.02,2.49-.03,2.19-.02,2.19-.03,1.49-.04h.69s.8-.03,.8-.03l-.14,.21,.06,.21,.22,.42,.53,.8,.22,.41,.23,.37Zm-70.91-2.44l-1.8,.02-.82-.08-.82-.08-.62-.05-.61-.04-.81-.02h-.8v.02l.43,.09,.62,.08,1.44,.15-.79,.04-.69,.04-1.33-.11-1.63-.12-1.63-.11,.99-.04,.9-.02,1.99-.03h4.1l.32,.06,.32,.06,.73,.09,.52,.06Zm-4.41,6.85h-1.6l-1.7,.02-.25-.17h0l.91,.03,1.31,.04h1.3l.03,.08Zm-.05-.19l-.32-.03-.41-.02-.71-.03-1.42-.06-1.02-.05-.13-.12h0l1.21,.04,.81,.02,.91,.02h.9s.18,.23,.18,.23Zm-.52-2.51l-1.02-.05-1.11-.04-1.11-.03-1.01-.02-.06-.19,1.01,.04,.81,.02,1.22,.06,.71,.02h.3s.19,0,.19,0l.06,.19Zm.03,.48l-.92-.08-1.02-.08-.61-.03-.51-.02-.61-.02h-.5l-.05-.17h.4l1.01,.03,.91,.03,.81,.04,.51,.02h.5s.08,.28,.08,.28Zm-.03-.8l-.52-.05-.51-.03-.82-.05-.91-.03-.81-.04h-.41s-.41-.02-.41-.02l-.17-.23h.6l.91,.03,1.01,.04,.81,.05,.61,.03,.51,.02,.09,.28Zm.05,.87l-.09,.04,.09,.3-.62-.05-.62-.03-1.22-.06-.81-.03h-.5s-.41-.02-.41-.02v-.05s.03-.21,.03-.21l1,.02,1.01,.03,2.13,.07Zm.27,1.63l-.31-.02-.82-.05-.71-.03-.91-.04-.91-.04-.31-.02-.18-.25,.91,.04,.81,.04,1.22,.05h.2s.8,.01,.8,.01h.1s.09,.32,.09,.32Zm-.32-3.19l-.03,.26-.51-.05-.61-.03-.91-.05-1.22-.06-.71-.02h-.6l-.19-.34,.61,.03,.61,.03,1.14,.09,1.23,.09,.61,.03,.59,.03Zm.09,2.06l-.02,.27-.41-.03-.41-.03-1.01-.04-1.21-.03-1.11-.03,.02-.29h.6s.61,.04,.61,.04l1.02,.07,.81,.04,.51,.02,.61,.02Zm.12,.76l-.21-.03-.32-.04-.62-.05-.62-.05-1.22-.06-1.21-.04-.05-.16,1.31,.03,1.32,.04,1.41,.04h.1l.11,.33Zm-.23-3.23l-.03,.24-.52-.05-.52-.06-1.23-.09-1.33-.08-1.31-.04-.05-.15,.61,.02,.61,.02h.7l.61,.03,1.22,.06,1.23,.09Zm-.06-.21l-1.02-.07-.91-.04-.71-.03-.81-.04-.81-.02h-.8s-.31-.39-.31-.39l1.01,.05,1.01,.05,1.73,.11,.71,.04,.41,.03h.38s.1,.3,.1,.3Zm-.12-.43l-.72-.08-.72-.05-1.63-.1-1.12-.06-.61-.03h-.5l-.27-.25h.3s1.01,.05,1.01,.05l1.01,.04,1.42,.09,.41,.02h.3s.4,.01,.4,.01h.39s-.02-.07-.02-.07l-.31-.05-.31-.05-.51-.04-.92-.07-.91-.04-1.12-.06-.61-.02h-.7l-.16-.21h.6s1,.05,1,.05l.91,.04,1.62,.09,1.53,.1,.22,.7Zm-.8-1.73l-.05,.15,.05,.16-1.45-.11-1.54-.12-1.43-.09-.61-.03-.5-.02v-.05s.04-.16,.04-.16l.05-.16,1.34,.12,1.33,.1,1.43,.11,1.34,.09Zm.55,.87l-.52-.06-.62-.05-1.33-.08-.71-.04-.81-.04-.91-.02h-.4s-.5,0-.5,0l-.33-.45,1.14,.09,.82,.05,2.04,.14,1.03,.09,.41,.05,.41,.05,.28,.29Zm78.23,1.11l-.22-.41-.22-.41-.63-.8-.36-.55-.03-.09-.23-.09,.09-.02,.09-.04-.11-.03-.21-.02-.51-.02-.5-.02h-2.2l-1.09,.03,.08-.08-.02-.08-.14-.15-.02-.08-.12-.09-.12-.05-.21-.03-.21-.02h-.4s-.3,0-.3,0h-2.02s-2.2,0-2.2,0l-4.19,.03h-9.9l-2.79,.02h-2.8s-5.59,.07-5.59,.07l-5.57,.07-5.59,.08-2.59,.02h-2.6s-5.2,0-5.2,0h-5.21l-5.2-.02-3.81-.03h-1.9l-1.89-.02h-2l-1.89,.02-1.79,.04-.89,.03-.89,.04-.38,.04-.19,.04-.08,.05,.11,.05h-.39s-.4,.04-.4,.04l-.19,.04-.29,.05-.27,.12-.16,.14-.06,.14,.04,.14,.15,.19,.22,.42,.32,.42,.63,.82,.38,.6,.38,.61,.17,.6,.07,.61,.09,.64-.09,.05v.05s.12,.02,.12,.02l.11,.38,.31,.38,.41,.37,.6,.37,.11,.03,.11,.02,.12,.06,.21,.05,.41,.03h.5l1-.02,1-.02,.99-.03h1l.27,.23,.22,.05,.31,.05,.3,.02,.31,.02,1.7,.03,1.7,.02h6.91s3.4-.03,3.4-.03l4.09-.03,4.09-.02,8.28-.07,4.1-.02,4.09-.02h8.2l3.9-.02h4l1.99-.02,1.89-.03,1.99-.03,8.59-.02c1.94,.05,3.89-.02,5.82-.2,.64-.1,.76-.21,.57-.71-.09-.25-.21-.49-.36-.71l.82-1.66-.03-.78-.14-.83Z" fill="#141325" fill-rule="evenodd"/></svg>