<?xml version="1.0" encoding="UTF-8"?><svg id="Calque_1" xmlns="http://www.w3.org/2000/svg" viewBox="0 0 173.84 178.2"><path d="M59.32,108.34c-3.45-.21-6.79-.42-10.13-.6-.9-.05-1.81,0-2.72-.01-.62,0-.93,.27-1.12,.88-1.04,3.25-2.04,6.52-3.22,9.72-.74,1.99-1.77,3.88-2.69,5.81-.34,.71-.76,1.39-1.11,2.09-.54,1.06-1.09,1.1-1.99,.3-1.3-1.15-2.67-2.21-4.01-3.3-.14-.12-.31-.21-.48-.29-1.08-.57-1.05-.56-.82-1.78,1.22-6.51,3.85-12.51,6.68-18.42,3.15-6.58,6.27-13.18,9.61-19.66,3.14-6.1,6.87-11.87,11.03-17.34,.72-.94,1.52-1.82,2.38-2.64,.94-.9,1.72-.7,2.07,.54,.56,1.96,1.1,3.94,1.47,5.95,1.01,5.49,2.55,10.85,3.87,16.26,2.68,10.95,5.44,21.88,7,33.07,.33,2.37,.82,4.72,1.2,7.08,.26,1.6-.03,1.87-1.6,2.03-2.94,.3-5.86,.65-8.79,1-1.55,.18-3.09,.41-4.64,.6-.84,.1-1.28-.28-1.31-1.14-.15-3.97-.29-7.95-.42-11.92-.09-2.72-.16-5.44-.25-8.16,0-.06-.03-.13-.01-.06Zm15.89,16.7c-.3-.14-.62-.2-.77-.38-1.17-1.44-2.33-2.9-3.44-4.39-.15-.21-.05-.61-.06-.92,.27,.13,.61,.19,.78,.4,.54,.64,1,1.35,1.51,2.01,.53,.68,1.08,1.35,1.63,2.02,.04-.03,.08-.05,.12-.08-.14-.79-.28-1.59-.41-2.27-.3-.1-.59-.11-.7-.25-1.13-1.56-2.24-3.14-3.31-4.74-.12-.17,.04-.53,.07-.8,.25,.14,.58,.22,.73,.43,.57,.82,1.07,1.69,1.63,2.51,.38,.56,.82,1.08,1.23,1.62,.02-.79-.07-1.5-.23-2.2-.08-.33-.27-.66-.47-.95-.87-1.21-1.78-2.39-2.63-3.61-.12-.17,0-.5,0-.75,.24,.08,.55,.08,.7,.24,.34,.38,.59,.83,.89,1.25,.32,.45,.66,.88,.99,1.32,.05-.87-.1-1.59-.65-2.25-.87-1.05-1.66-2.18-2.44-3.31-.16-.23-.25-.79-.14-.88,.39-.3,.66,.09,.89,.38,.16,.2,.29,.42,.44,.63,.43,.6,.86,1.19,1.3,1.78-.2-.95,.24-2.12-.94-2.67-.09-.04-.14-.18-.2-.28-.58-.87-1.17-1.73-1.72-2.63-.21-.35-.76-.84-.17-1.18,.53-.31,.69,.37,.91,.71,.49,.73,.94,1.47,1.41,2.21-.88-4.58-5.5-25.26-6.39-27.01-.48,1.15-.94,2.31-1.46,3.45-.12,.26-.56,.62-.7,.56-.48-.19-.24-.61-.1-.95,.3-.71,.63-1.4,.91-2.11,.23-.58,.4-1.18,.59-1.78,.09-.28,.16-.56,.23-.84,.06,0,.12,.02,.18,.03-.18-.71-.36-1.43-.57-2.25-.1,.28-.16,.46-.22,.63-.31,.9-.58,1.81-.93,2.7-.09,.22-.39,.36-.6,.54-.09-.28-.23-.55-.24-.83-.01-.21,.14-.44,.21-.66,.31-.95,.61-1.9,.94-2.84,.1-.29,.28-.56,.42-.84,.05,.02,.1,.03,.15,.05-.15-.66-.29-1.33-.44-1.99-.34,.68-.51,1.38-.8,2.02-.12,.27-.49,.44-.74,.66-.03-.31-.15-.64-.07-.93,.23-.92,.57-1.82,.78-2.74,.18-.79,.63-1.6,.01-2.5-.23,.74-.44,1.42-.66,2.1-.11,.34-.22,.76-.67,.57-.15-.07-.25-.55-.19-.8,.3-1.09,.62-2.19,1.05-3.24,.27-.67,.08-1.21-.1-1.99-.45,.99-.82,1.81-1.21,2.63-.16,.34-.27,.89-.78,.67-.59-.25-.18-.72-.03-1.07,.46-1.06,.93-2.13,1.45-3.17,.27-.53,.18-.96-.12-1.48-.08,.17-.15,.28-.2,.4-.33,.87-.63,1.75-.99,2.6-.08,.19-.35,.29-.53,.43-.1-.23-.31-.47-.29-.67,.05-.41,.23-.8,.38-1.19,.27-.72,.57-1.44,.92-2.33-.23,.18-.31,.23-.38,.3-.23,.24-.46,.47-.66,.72-4.28,5.16-7.78,10.84-11.06,16.66-4.63,8.2-8.36,16.86-12.39,25.36-.42,.89-.78,1.81-1.22,2.85,.75-.57,1.34-1.06,1.99-1.47,.19-.12,.53,.02,.81,.05-.11,.23-.15,.52-.33,.66-.79,.68-1.64,1.3-2.42,2-.56,.51-1.22,1-1.22,2.01,.76-.62,1.44-1.21,2.17-1.72,.23-.16,.75-.28,.87-.15,.35,.34-.03,.61-.3,.83-.81,.67-1.61,1.34-2.43,1.98-.23,.18-.53,.29-.79,.43-.04-.04-.07-.08-.11-.12-.08,.24-.16,.47-.24,.71,.9-.46,1.66-1,2.42-1.52,.31-.21,.67-.66,1.01-.23,.39,.49-.18,.74-.49,.96-.83,.6-1.64,1.24-2.55,1.7-1.06,.53-1.11,1.46-1.32,2.54,.62-.54,1.1-1.01,1.64-1.4,.21-.15,.56-.12,.85-.17-.09,.28-.09,.63-.27,.81-.7,.68-1.45,1.3-2.18,1.95-.45,.41-.67,.91-.64,1.6,.75-.35,1.42-.71,2.13-.98,.25-.1,.74-.1,.83,.04,.27,.41-.12,.6-.44,.76-.72,.35-1.44,.68-2.2,1.04,.57,.49,.57,.48,1.05,.18,.59-.37,1.17-.77,1.8-1.07,.26-.12,.62-.02,.93-.02-.16,.26-.27,.61-.5,.77-.57,.4-1.21,.73-1.82,1.08l.06,.29c.31-.02,.67,.06,.92-.07,.88-.47,1.71-1.03,2.58-1.52,.2-.11,.5-.04,.75-.05-.07,.26-.1,.55-.24,.77-.12,.18-.37,.28-.56,.4-.63,.38-1.27,.75-1.98,1.17,.62,.76,1.2,1.47,1.87,2.29,1.16-2.3,2.42-4.38,3.28-6.62,1.42-3.7,2.58-7.51,3.84-11.27,.05-.14,.06-.31,.03-.46-.1-.53,.15-.93,.71-.98,1.04-.08,2.09-.19,3.13-.14,2.3,.1,4.59,.33,6.89,.45,2.49,.12,4.97,.09,7.4-.58,.39-.11,.99-.55,1.18,.11,.18,.62-.54,.66-.94,.78-.81,.24-1.66,.39-2.51,.59,0,.19,0,.35,0,.51,.09,3.3,.18,6.6,.28,9.9,.1,3.14,.21,6.27,.32,9.41,.01,.4,.03,.75,.61,.67,1.2-.17,2.4-.31,3.59-.48,2.23-.31,4.46-.64,6.7-.92,.99-.13,2-.16,3.11-.24-.2-.23-.3-.35-.41-.47-.87-1-1.76-1.98-2.61-3-.14-.17-.11-.48-.16-.72,.27,.03,.55,.02,.8,.11,.15,.05,.25,.26,.38,.4,.77,.89,1.53,1.79,2.29,2.68,.04-.02,.08-.05,.13-.07-.04-.31-.09-.62-.12-.86Z"/><path d="M124.53,95.09c.21-.61,.41-1.22,.63-1.83,.1-.26,.19-.55,.37-.74,.16-.16,.45-.19,.69-.28,.03,.23,.15,.49,.08,.69-.36,1.1-.75,2.19-1.16,3.28-.3,.79-.2,1.7-.9,2.41-.3,.3-.15,1.06-.08,1.64,.1-.33,.15-.67,.31-.97,.13-.24,.37-.43,.57-.63,.1,.3,.35,.63,.27,.88-.31,1.04-.75,2.05-1.07,3.09-.26,.84-.42,1.72-.62,2.58,.1,.03,.2,.06,.29,.09,.2-.53,.37-1.07,.62-1.57,.11-.23,.38-.38,.57-.56,.1,.27,.34,.6,.27,.81-.35,1.01-.83,1.97-1.2,2.97-.29,.82-.48,1.67-.72,2.51,.08,.03,.16,.06,.23,.08,.25-.51,.46-1.04,.77-1.51,.14-.22,.49-.3,.74-.44,.02,.29,.08,.58,.04,.86-.02,.19-.16,.38-.27,.56-1.39,2.12-1.54,4.48-1.55,6.93-.03,5.02-.3,10.04-.94,15.03-.08,.65-.77,1.08-1.39,.96-.95-.19-1.92-.32-2.89-.4-1.18-.1-2.36-.12-3.54-.17v4.42c6.29-.5,12.47-.69,18.69,.13-.21-.55-.46-1.2-.72-1.89-.2,.29-.32,.57-.53,.72-.17,.11-.45,.06-.68,.08,0-.21-.04-.44,.03-.62,.2-.5,.45-.98,.7-1.51-.78-.05-1.16,.3-1.27,1.19-.05,.42-.1,.8-.62,.68-.57-.14-.4-.58-.27-.96,.1-.3,.22-.6,.34-.9-1.16-.23-1.25-.16-1.66,.91-.09,.24-.3,.49-.52,.62-.16,.09-.5,.07-.63-.05-.11-.1-.11-.43-.04-.61,.15-.34,.4-.65,.47-1.07-.33,.34-.65,.69-.98,1.03-.27,.27-.57,.72-.97,.33-.43-.41,.05-.68,.32-.95,.06-.06,.11-.14,.17-.21-.06-.04-.1-.08-.13-.08-1.47,.1-1.75-.2-1.63-1.68,.08-1,.17-1.99,.2-2.99,0-.33-.13-.67-.25-.99-.33-.91-.71-1.81-1.02-2.73-.06-.19,.15-.46,.23-.7,.21,.16,.51,.28,.61,.5,.21,.48,.32,1,.55,1.49,.11-.7,.21-1.32,0-2.07-.4-1.44-.52-2.97-.71-4.46-.02-.19,.26-.41,.39-.62,.17,.21,.44,.4,.48,.63,.12,.65,.14,1.31,.2,1.97,.06,0,.11,0,.17,0,.08-.68,.17-1.35,.24-2.03,0-.07,.02-.18-.02-.2-.9-.59-.59-1.62-.88-2.44-.16-.45-.23-.96-.24-1.44,0-.27,.12-.75,.28-.79,.48-.13,.52,.32,.58,.66,.14,.75,.27,1.5,.58,2.25,.12-1.42,.27-2.83,.35-4.25,.2-3.57,.29-7.16,.57-10.72,.38-4.72,.91-9.44,1.35-14.16,.03-.31-.18-.64-.3-.96-.5-1.35-1.01-2.69-1.49-4.05-.07-.19,.05-.45,.09-.67,.23,.09,.58,.13,.67,.29,.35,.68,.63,1.39,.92,2.1,.09,.21,.15,.43,.29,.63,.02-.97,.57-1.95-.46-2.84-.69-.59-1.17-1.44-1.67-2.21-.12-.19,.02-.56,.04-.85,.23,.14,.53,.22,.69,.42,.52,.65,.98,1.34,1.56,1.98,.06-.73,.47-1.4-.29-2.11-.64-.6-.99-1.5-1.45-2.28-.07-.12-.15-.28-.12-.39,.05-.22,.18-.42,.28-.63,.18,.11,.43,.19,.52,.35,.41,.7,.77,1.42,1.15,2.14,.06,0,.13-.02,.19-.03,.05-.99,.1-1.98,.15-2.99-.89-.15-1.16-.86-1.47-1.49-.07-.14,.09-.4,.14-.6,.2,.07,.44,.09,.59,.22,.21,.2,.35,.47,.6,.82,.03-.28,.06-.43,.05-.57-.01-.62,.31-.86,.9-.89,1.65-.08,3.3-.18,4.94-.28,.27-.02,.54-.08,.76-.11-.17-1.72-.32-3.38-.53-5.03-.02-.15-.44-.36-.68-.36-1.6,0-3.21,0-4.81,.09-4.69,.23-9.38,.49-14.07,.74-.21,.01-.41,.05-.6,.07v4.9c1-.85,1.9-1.61,2.81-2.36,.25-.21,.49-.45,.78-.57,.21-.08,.5,.02,.75,.03-.07,.22-.08,.52-.23,.65-.65,.57-1.33,1.09-2.01,1.62-.09,.07-.17,.15-.28,.25,1.23-.02,1.71-.24,2.57-.99,.66-.58,1.37-1.11,2.09-1.62,.29-.21,.71-.45,.96,0,.24,.43-.21,.57-.49,.77-.56,.39-1.11,.79-1.67,1.19,.04,.09,.09,.19,.13,.28,.79-.25,1.59-.48,2.37-.76,.98-.35,1.94-.77,2.93-1.09,.21-.07,.51,.15,.77,.23-.19,.21-.34,.52-.58,.62-.62,.25-1.27,.41-1.77,.56-.07,.45-.03,.81-.2,1.05-.08,.12-.51,0-.78-.01-.14,0-.3-.06-.4,0-1,.59-2.11,.05-3.14,.32-1.05,.27-2.14,.44-3.21,.66-.16,.03-.32,.08-.48,.11-1.42,.27-1.84-.01-1.91-1.46-.07-1.49-.07-2.98-.1-4.47-.01-.58,.29-.86,.84-.89,.91-.05,1.81-.08,2.72-.13,3.25-.18,6.5-.39,9.75-.55,2.21-.11,4.42-.18,6.62-.26,.28-.01,.56,0,.84,.03,1.15,.13,1.4,.46,1.51,1.59,.15,1.57,.37,3.13,.6,4.69,.11,.78,.04,.98-.76,1.05-1.76,.14-3.53,.25-5.29,.33-.53,.02-.72,.17-.71,.73,.07,6.67-.67,13.27-1.46,19.88-.35,2.9-.46,5.84-.66,8.76-.33,4.82-.58,9.65-.96,14.47-.33,4.08-.81,8.14-1.21,12.21-.05,.48,0,.97,0,1.47,1.99,0,3.98,.04,5.96-.02,.67-.02,1.06,.17,1.3,.76,.57,1.4,1.15,2.79,1.7,4.19,.07,.18,.05,.51-.06,.63-.11,.12-.44,.15-.63,.09-2.18-.77-4.43-.94-6.73-.9-3.05,.06-6.09-.02-9.14,.03-.95,.02-1.89,.26-2.83,.37-1.39,.16-1.58-.05-1.59-1.42-.02-1.35-.09-2.69-.18-4.04-.04-.6,.15-.87,.77-.86,2.39,.04,4.78,.04,7.25,.6,.22-2.62,.49-5.21,.63-7.8,.18-3.39,.27-6.78,.39-10.18,.12-3.29,.16-6.59,.34-9.88,.25-4.46,.61-8.9,.9-13.36,.27-4.13,.53-8.26,.74-12.39,.06-1.13-.08-2.28-.09-3.41,0-.34,.04-.7,.16-1.01,.06-.14,.37-.21,.57-.22,.07,0,.22,.28,.22,.43,.02,2.02,.07,4.04,0,6.06-.11,2.69-.32,5.38-.49,8.07-.17,2.57-.34,5.14-.52,7.72,.04,0,.08,.01,.12,.02Z"/><path d="M99,125.86c-1.1,1-2.12,1.98-3.2,2.89-.7,.6-1.43,1.21-2.26,1.61-.86,.41-1.83,.7-2.77,.8-2.45,.25-4.88,.05-7.16-1-3.03-1.4-4.68-3.89-5.39-7.04-.65-2.84,.07-5.53,1.21-8.13,2.14-4.85,6.04-7.43,11.04-8.65,2.5-.61,5.01-.85,7.53-.28,.89,.2,1.73,.61,2.65,.95,.08-1.24-.21-2.45-.75-3.62-1.23-2.67-3.3-4.28-6.14-5.03-3.44-.92-6.82-1.11-10.17,.34-.6,.26-1.17,0-1.48-.65-.52-1.08-.36-2.14,.19-3.14,.71-1.31,1.8-2.31,3.13-2.89,5.13-2.25,10.37-2.72,15.49-.12,4.82,2.45,7.46,6.52,7.58,11.97,.04,1.81-.44,3.64-.76,5.44-.34,1.92-.88,3.81-1.15,5.74-.38,2.73-.11,5.47,.16,8.2,.17,1.67,.08,3.38-.02,5.07-.06,1.13-.7,2.06-1.47,2.86-1.06,1.11-2.57,1.21-3.78,.28-1.66-1.27-2.26-3.06-2.43-5.05-.01-.16-.02-.32-.03-.53Zm-5.63-34.58c.69,.75,1.33,1.41,1.93,2.12,.15,.17,.15,.47,.21,.72-.27-.02-.63,.06-.79-.08-.61-.57-1.15-1.22-1.71-1.84-.25-.28-.48-.57-.8-.94-.37,.04-.87,.09-1.53,.16,.76,.86,1.43,1.57,2.04,2.32,.18,.22,.36,.72,.25,.85-.36,.42-.67,0-.9-.25-.6-.65-1.18-1.32-1.74-2-.72-.88-.71-.89-2-.36,.53,.48,1.04,.89,1.47,1.36,.16,.17,.14,.5,.2,.76-.27-.05-.62,0-.8-.15-.5-.41-.95-.89-1.38-1.38-.33-.39-.64-.49-1.08-.06,.47,.68,.97,1.36,1.4,2.07,.13,.21,.09,.52,.13,.79-.26-.06-.59-.05-.77-.21-.27-.23-.46-.58-.66-.89-.32-.47-.62-.96-.96-1.5-.57,.39-1.08,.74-1.62,1.12,.26,.37,.52,.65,.66,.98,.08,.18-.03,.45-.06,.68-.21-.06-.46-.07-.61-.19-.24-.2-.41-.48-.61-.73-.59,.42-.52,.82-.12,1.24,.16,.17,.35,.34,.43,.54,.06,.18-.02,.41-.04,.62-.19-.03-.42,0-.57-.09-.22-.13-.39-.35-.58-.53-.05,.03-.11,.05-.16,.08,.1,.45,.19,.9,.29,1.35,.19-.02,.27,0,.33-.03,3.62-1.56,7.29-1.33,10.99-.29,4.11,1.15,6.45,3.88,7.2,8,.17,.94,.01,1.94-.04,2.91-.01,.23-.19,.45-.29,.67-.23-.15-.61-.24-.68-.45-.25-.76-.82-1.1-1.49-1.34-2.21-.8-4.47-.76-6.74-.33-2.81,.54-5.53,1.37-7.81,3.16-3.42,2.69-5.1,6.34-5.44,10.6-.17,2.11,.58,4.04,1.8,5.82,.4-.78,.73-1.5,1.13-2.17,.1-.17,.45-.19,.68-.28,.02,.23,.14,.5,.06,.68-.28,.66-.6,1.31-.94,1.94-.3,.56-.18,.95,.41,1.24,.39-.59,.73-1.19,1.17-1.73,.18-.22,.55-.27,.83-.41-.04,.31,0,.66-.13,.91-.34,.63-.77,1.21-1.19,1.85,.3,.18,.53,.31,.65,.38,.71-.99,1.38-1.95,2.08-2.89,.08-.11,.43-.16,.53-.09,.12,.09,.18,.37,.13,.54-.07,.24-.24,.45-.39,.65-.51,.71-1.03,1.41-1.55,2.12,.04,.06,.08,.12,.12,.18,.2-.1,.48-.16,.6-.32,.48-.68,.89-1.42,1.37-2.1,.13-.18,.43-.25,.65-.37,.05,.27,.16,.54,.12,.79-.04,.24-.23,.45-.37,.67-.34,.54-.69,1.07-1.05,1.62,1.25,.5,1.28,.49,1.94-.52,.23-.35,.44-.72,.74-1.01,.17-.17,.49-.2,.75-.29-.01,.27,.06,.59-.06,.8-.26,.48-.62,.92-.95,1.38,1.16,.41,1.48,.29,2.08-.58,.46-.67,.94-1.33,1.48-1.94,.16-.18,.54-.18,.83-.26-.06,.28-.04,.62-.19,.84-.43,.63-.92,1.21-1.39,1.81,.04,.06,.08,.11,.12,.17,.93-.43,2.03-.53,2.71-1.47,.59-.81,1.17-1.63,1.79-2.41,.12-.15,.42-.17,.64-.25,.05,.2,.11,.4,.14,.61,.01,.1-.06,.2-.13,.4,.17-.09,.27-.1,.32-.16,.92-1.04,1.83-2.09,2.77-3.12,.16-.17,.44-.24,.66-.36,.07,.25,.21,.5,.21,.75,0,.38-.19,.78-.13,1.14,.09,.61,.3,1.2,.48,1.79,.26,.87,.45,1.76,.82,2.58,.37,.82,.88,.9,1.57,.39,1.5-1.11,2.22-2.55,1.97-4.46-.37-2.87-.44-5.76,.15-8.61,.7-3.34,1.47-6.66,2.22-9.99,.51-2.25,.53-4.51-.24-6.68-.56-1.58-.94-3.37-2.73-4.19-.16-.07-.27-.25-.38-.4-.31-.41-.57-.85-.9-1.24-.66-.79-1.54-1.25-2.45-1.67,.36,.47,.8,.86,1.19,1.28,.12,.13,.1,.4,.15,.6-.21,.03-.44,.13-.61,.07-.25-.1-.48-.29-.66-.49-.55-.6-1.13-1.18-1.6-1.84-.66-.91-1.62-.89-2.58-.98,.6,.76,1.26,1.43,1.88,2.15,.15,.17,.16,.47,.24,.71-.27-.01-.56,.03-.8-.06-.2-.07-.36-.29-.51-.46-.53-.59-1.08-1.16-1.56-1.79-.56-.73-1.24-.98-2.23-.73Z"/><path d="M60.16,100.25c.72-.14,1.33-.29,1.95-.37,.22-.03,.47,.12,.7,.19-.13,.24-.21,.58-.42,.68-.34,.17-.75,.24-1.14,.28-3.98,.34-7.96,.67-11.95,.99-.97,.08-1.94,.13-2.9,.12-.21,0-.43-.28-.64-.44,.22-.13,.45-.38,.66-.38,.48,.01,.69-.17,.86-.6,2.91-7.47,6.18-14.78,9.69-21.99,.19-.4,.38-.8,.63-1.16,.11-.16,.4-.3,.58-.27,.17,.03,.35,.26,.45,.45,.09,.15,.1,.36,.11,.54,.29,3.73,.62,7.46,.86,11.19,.2,3.2,.31,6.41,.46,9.61,.02,.34,.06,.68,.1,1.14Zm-12.03,1.03c3.73-.3,7.36-.59,11.01-.88-.04-7.05-.76-13.92-1.39-21-3.52,7.25-6.74,14.41-9.62,21.88Z"/><path d="M94.52,109.68c2.02-.1,3.8,.82,5.36,2.35,1.74,1.72,1.61,1.24,.53,3.41-.56,1.12-1.13,2.24-1.81,3.29-2.41,3.68-5.87,5.54-10.24,5.57-1.08,0-2.22-.31-3.24-.71-1.97-.79-2.78-2.62-2.29-4.75,1.12-4.84,6.52-9.14,11.7-9.15Zm-6.37,13.72c4.19-.24,7.26-1.75,9.4-4.88,.86-1.26,1.44-2.7,2.27-3.99,.42-.66,.26-1.06-.21-1.5-2.48-2.33-5.4-2.98-8.54-1.82-3.64,1.35-5.96,4.11-7.25,7.72-.57,1.61,.12,3.13,1.66,3.74,.98,.39,2.04,.56,2.67,.73Z"/></svg>