<svg data-name="Calque 1" id="Calque_1" viewBox="0 0 29.04 24.32" xmlns="http://www.w3.org/2000/svg">
    <defs>
        <style>
            .cls-1{fill:#636363;}.cls-2,.cls-3{fill:#52d1e2;}.cls-3,.cls-6{stroke:#52d1e2;stroke-miterlimit:10;}.cls-3{stroke-width:0.25px;}.cls-4{fill:#fff;}.cls-5,.cls-6{fill:none;}
        </style>
    </defs>
    <title>favicon alfred2</title>
    <path class="cls-1" d="M21.74,19.41" transform="translate(-0.62 -6.06)"/>
    <path class="cls-1" d="M23.54,19.24" transform="translate(-0.62 -6.06)"/>
    <path class="cls-2"
          d="M7.32,21.62c-.62.81-1.17,1.38-1.7,2s-1.22,1-1.77,1.56a11.71,11.71,0,0,0-1.44,2,12.78,12.78,0,0,0-1.07,2.34l-.19,0a10.77,10.77,0,0,1,.33-2.69A9.66,9.66,0,0,1,2.55,24.2,5.6,5.6,0,0,1,4.39,22a4,4,0,0,1,2.86-.57Z"
          transform="translate(-0.62 -6.06)"/>
    <path class="cls-2"
          d="M1,15.93a4.83,4.83,0,0,1,3-3.07,4.93,4.93,0,0,0,1.54-1l.11-.1c0,.14.05.28.07.43s0,.44.06.47a8.23,8.23,0,0,0,.45,1.61,2.74,2.74,0,0,0-1.08,0,3.37,3.37,0,0,0-1.81,1.3,3.89,3.89,0,0,0-.76,3.19,2.1,2.1,0,0,0,3.11,1.47c.71-.3,1.08-.44,1.28-.28s.38,1,.36,1.55h0v.08a1.24,1.24,0,0,0-.81.81,1.12,1.12,0,0,0-.39.36H6a1.13,1.13,0,0,0-.59.16c0-.07,0-.13,0-.19-.27,0-.62,0-1-.05C1.55,22.49-.15,19.09,1,15.93Z"
          transform="translate(-0.62 -6.06)"/>
    <path class="cls-2"
          d="M5.23,13.69a8,8,0,0,1,.52-3.94A5.23,5.23,0,0,1,6.9,8,5.85,5.85,0,0,1,8.67,6.86a10,10,0,0,1,4-.8,31,31,0,0,1,3.94.44c1.29.17,2.57.31,3.87.42l1.94.15a8.77,8.77,0,0,1,2,.32,3.32,3.32,0,0,1,.92.52,9.47,9.47,0,0,1,.73.69,7.15,7.15,0,0,1,1.16,1.62A11.84,11.84,0,0,1,28.4,14l-.1,0A11.39,11.39,0,0,0,27,10.37a6.86,6.86,0,0,0-1.18-1.49,4,4,0,0,0-1.53-1,7.47,7.47,0,0,0-1.86-.22l-2-.08c-1.3-.06-2.61-.16-3.91-.28a29.76,29.76,0,0,0-3.84-.24,11,11,0,0,0-3.62.74,5,5,0,0,0-1.56.85,5.58,5.58,0,0,0-1.12,1.41,9.83,9.83,0,0,0-1,3.64Z"
          transform="translate(-0.62 -6.06)"/>
    <path class="cls-3"
          d="M20.05,20.61c-.13.22.94,1,2.75,3.2,0,0,1.34,1.62,2.08,1.44a.38.38,0,0,1,.4.12,4.52,4.52,0,0,1,.53-.11s.06-.07.1-.1a2.05,2.05,0,0,1,.94-.31s.1,0,.16,0c.5-.08.9-.69,1-1.39.19-1.3.4-2.6.59-3.93l.17.05a2.12,2.12,0,0,1,.28-.87,6.23,6.23,0,0,0,.47-2.51,13.62,13.62,0,0,0-.91-3.59A5.15,5.15,0,0,0,29,11.36a3.4,3.4,0,0,0-.87-2.45,2.8,2.8,0,0,0-2.23-.81h-.06a.42.42,0,0,1-.2,0l-.16,0a.83.83,0,0,1-.22,0,.89.89,0,0,1-.46.14.26.26,0,0,0-.09,0,.93.93,0,0,1-.4.12s0,0,0,0c-.78.33-.94,1.26-1.18,2.13a1.15,1.15,0,0,0,0,.49,4.88,4.88,0,0,0,1.69,2.7,2.13,2.13,0,0,0,.75.41,2.24,2.24,0,0,0,1.9-.45,3.59,3.59,0,0,1,.59.87c.79,1.61.51,3.89-.05,4.07-.09,0-.21,0-.41-.12a9.44,9.44,0,0,0-1-.75,4,4,0,0,0-.53.19c-.89.41-1.22,1-2,1.63a5.25,5.25,0,0,1-1.38.81,3.39,3.39,0,0,1-.65.2,4.67,4.67,0,0,1-1.91-.1s.36.12.9.41a2.08,2.08,0,0,0,.47.24s-.16-.15-.18-.17C20.86,20.78,20.16,20.45,20.05,20.61Zm5.33-10.48c0,.08-.13.23-.22.33-.08-.23-.18-.45-.25-.68,0,0,.11-.15.27-.38A2.53,2.53,0,0,1,25.38,10.13Zm1.26,10c0-.08.14-.59.41-.73.08,0,.06.07.59.14.16,0,.29.1.26.46-.09.94-.19,1.91-.32,2.85a1,1,0,0,1-.24.45c-.43-.06-.6-.34-.61-.85C26.67,20.74,26.51,20.61,26.64,20.14Zm-2.9,1.15a1.39,1.39,0,0,1,.51-1c.12-.07.11,0,1.17-.26.3-.1.59-.08.64.28.17,1,.34,2,.42,2.95,0,.2-.22.47-.29.58-.84.23-1.24.09-1.46-.39C24,21.86,23.69,21.81,23.74,21.29Z"
          transform="translate(-0.62 -6.06)"/>
    <path class="cls-1" d="M4.89,11.79" transform="translate(-0.62 -6.06)"/>
    <path class="cls-2"
          d="M14,14.28a2.7,2.7,0,0,0,2.24-1.6.34.34,0,0,0,0-.29c-.6-.76-2.26-1.32-3.06-.5a3.5,3.5,0,0,0-.63,1.44c0,.13.22.42.4.52A6.4,6.4,0,0,0,14,14.28Z"
          transform="translate(-0.62 -6.06)"/>
    <ellipse class="cls-4" cx="13.09" cy="6.82" rx="0.64" ry="0.75"/>
    <path class="cls-1" d="M21.55,30.62" transform="translate(-0.62 -6.06)"/>
    <path class="cls-1" d="M24.41,21" transform="translate(-0.62 -6.06)"/>
    <line class="cls-5" x1="18.29" x2="18.42" y1="24.32" y2="23.96"/>
    <path class="cls-6" d="M3.79,19.23a2.54,2.54,0,0,1,.27-3.16" transform="translate(-0.62 -6.06)"/>
    <path class="cls-1" d="M52.35-7.69" transform="translate(-0.62 -6.06)"/>
    <path class="cls-4"
          d="M26.15,10.25c-.11.38-.25.87-.68,1a1.12,1.12,0,0,1-1.37-.68,1.27,1.27,0,0,1,.69-1.37c.41-.24,1.09-.33,1.36,0S26.25,9.91,26.15,10.25Z"
          transform="translate(-0.62 -6.06)"/>
    <path class="cls-4" d="M25.62,9.62" transform="translate(-0.62 -6.06)"/>
</svg>
