<?xml version="1.0" encoding="utf-8"?>
<!-- Generator: Adobe Illustrator 22.1.0, SVG Export Plug-In . SVG Version: 6.00 Build 0)  -->
<svg version="1.1" id="Calque_1" xmlns="http://www.w3.org/2000/svg" xmlns:xlink="http://www.w3.org/1999/xlink" x="0px" y="0px"
	 viewBox="0 0 500 500" style="enable-background:new 0 0 500 500;" xml:space="preserve">
<style type="text/css">
	.st0{fill:#4FBDD7;}
	.st1{fill:#EAEAEA;}
	.st2{fill:#FFFFFF;}
	.st3{fill:#4FBDD7;stroke:#FFFFFF;stroke-width:5;stroke-miterlimit:10;}
	.st4{fill:#8C8C8C;}
	.st5{fill:#070707;}
	.st6{fill:none;stroke:#FFFFFF;stroke-width:7;stroke-miterlimit:10;}
	.st7{fill:none;stroke:#FFFFFF;stroke-width:10;stroke-miterlimit:10;}
	.st8{fill:#FFFFFF;stroke:#FFFFFF;stroke-width:3;stroke-miterlimit:10;}
	.st9{fill:none;stroke:#FDFFFF;stroke-width:6;stroke-miterlimit:10;}
	.st10{fill:#FAFEFF;}
	.st11{fill:none;stroke:#FFFFFF;stroke-width:2;stroke-miterlimit:10;}
	.st12{fill:#FFFFFF;stroke:#FFFFFF;stroke-width:2;stroke-miterlimit:10;}
	.st13{fill:#4FBDD7;stroke:#FFFFFF;stroke-width:4;stroke-miterlimit:10;}
	.st14{fill:#FFFFFF;stroke:#FFFFFF;stroke-width:4;stroke-miterlimit:10;}
	.st15{fill:none;stroke:#FFFFFF;stroke-miterlimit:10;}
	.st16{fill:#FFFFFF;stroke:#FFFFFF;stroke-width:13;stroke-miterlimit:10;}
	.st17{fill:#4FBDD7;stroke:#FFFFFF;stroke-width:8;stroke-miterlimit:10;}
	.st18{fill:#FFFFFF;stroke:#FFFFFF;stroke-width:0.75;stroke-miterlimit:10;}
	.st19{fill:#FFFFFF;stroke:#FFFFFF;stroke-width:0.5;stroke-miterlimit:10;}
	.st20{fill:#FFFFFF;stroke:#FFFFFF;stroke-width:8;stroke-miterlimit:10;}
	.st21{fill:#FFFFFF;stroke:#FFFFFF;stroke-miterlimit:10;}
	.st22{fill:#FFFFFF;stroke:#FFFFFF;stroke-width:11;stroke-miterlimit:10;}
	.st23{fill:#FFFFFF;stroke:#FFFFFF;stroke-width:6;stroke-miterlimit:10;}
	.st24{fill:#8C8C8C;stroke:#8C8C8C;stroke-width:4;stroke-miterlimit:10;}
	.st25{fill:#FFFFFF;stroke:#FFFFFF;stroke-width:1.05;stroke-miterlimit:10;}
	.st26{fill:none;}
	.st27{font-family:'HelveticaNeue-CondensedBold';}
	.st28{font-size:54px;}
	.st29{fill:none;stroke:#4FBDD7;stroke-width:5;stroke-miterlimit:10;}
	.st30{fill:none;stroke:#FFFFFF;stroke-width:4;stroke-miterlimit:10;}
	.st31{fill:#8C8C8C;stroke:#FFFFFF;stroke-width:4;stroke-miterlimit:10;}
	.st32{fill:#FFFFFF;stroke:#FFFFFF;stroke-width:10;stroke-miterlimit:10;}
	.st33{fill:none;stroke:#4FBDD7;stroke-width:2;stroke-miterlimit:10;}
	.st34{fill-rule:evenodd;clip-rule:evenodd;fill:#FFFFFF;}
	.st35{fill:#FFFFFF;stroke:#FFFFFF;stroke-width:7;stroke-miterlimit:10;}
	.st36{fill:#FFFFFF;stroke:#4FBDD7;stroke-width:7;stroke-miterlimit:10;}
	.st37{fill:#FCFCFC;}
	.st38{fill:#FFFFFF;stroke:#FFFFFF;stroke-width:5;stroke-miterlimit:10;}
	.st39{fill:none;stroke:#FFFFFF;stroke-width:3;stroke-miterlimit:10;}
	.st40{fill:none;stroke:#FFFFFF;stroke-width:8;stroke-miterlimit:10;}
	.st41{fill:none;stroke:#FFFFFF;stroke-width:6;stroke-miterlimit:10;}
	.st42{fill:#FFFFFF;stroke:#4FBDD7;stroke-width:3;stroke-miterlimit:10;}
	.st43{fill:none;stroke:#FFFFFF;stroke-width:0.75;stroke-miterlimit:10;}
	.st44{fill:#4FBDD7;stroke:#FFFFFF;stroke-width:9;stroke-miterlimit:10;}
	.st45{fill:none;stroke:#FFFFFF;stroke-width:9;stroke-miterlimit:10;}
	.st46{fill:none;stroke:#4FBDD7;stroke-width:3;stroke-miterlimit:10;}
</style>
<rect x="-6" y="-6" class="st0" width="512" height="512"/>
<g>
	<path class="st2" d="M372.1,103.1L344.4,98c-4.2-0.8-8.2,2-8.9,6.2l-21.8,118.3c-0.8,4.2,2,8.2,6.2,8.9l27.7,5.1
		c4.2,0.8,8.2-2,8.9-6.2l21.8-118.3C379,107.9,376.2,103.9,372.1,103.1z"/>
	<path class="st2" d="M172.1,270.5l16.7-10.6l3.5,5.5c2.3,3.6,7,4.6,10.6,2.4l23.8-15.1c3.6-2.3,4.6-7,2.4-10.6l-64.5-101.6
		c-2.3-3.6-7-4.6-10.6-2.4l-23.8,15.1c-3.6,2.3-4.6,7-2.4,10.6l4.2,6.7L115.4,181c-3,1.9-4,5.7-2.2,8.5l50.3,79.3
		C165.3,271.7,169.1,272.4,172.1,270.5z M148.8,234.7l11.3-7l0.1,0.2l2.5,4.1l6-3.7l8.7-5.3l1.5-0.9l2.6,4.2l-1.4,0.9l-8.7,5.3
		l-6,3.7l2.7,4.4l-11.3,7l-7.8-12.7L148.8,234.7z M147.5,171l5.9,9.6l-2,1.3l-8.7,5.3l-5.4,3.3l2.5,4l-11.3,7l-8.4-13.6l16.6-10.2
		l8.7-5.3L147.5,171z M141.1,196.7l2.7,4.4l5.5-3.4l8.7-5.3l1.9-1.2l3.3,5.3l-1.8,1.1l-8.7,5.3l-5.6,3.5l2.4,3.9l-11.3,7l-8.4-13.7
		L141.1,196.7z M170.9,212.7l-8.7,5.3l-5.8,3.6l2.7,4.4l-11.3,7l-8.3-13.4l11.3-7l2.7,4.4l5.8-3.5l8.7-5.3l1.7-1l2.9,4.7
		L170.9,212.7z M193.7,246.1l-1.1,0.7l-8.7,5.3L166.3,263l-7.9-12.9l-0.5-0.7l11.3-7l0.5,0.7l2.2,3.6l6.2-3.8l8.7-5.3l1.3-0.8
		L193.7,246.1z"/>
	<path class="st2" d="M183.8,123.8c-3,1.5-4.3,5.3-2.7,8.3L233,234.7c0.9,1.7,2.4,2.8,4.1,3.2c1.4,0.3,2.9,0.2,4.2-0.5
		c3-1.5,4.3-5.3,2.7-8.3l-51.9-102.5C190.6,123.5,186.9,122.3,183.8,123.8z"/>
	<path class="st2" d="M223.2,106.3c-3.3,1-5.1,4.4-4.1,7.7l33.8,112.2c0.7,2.2,2.4,3.7,4.5,4.2c1,0.2,2.1,0.2,3.2-0.1
		c3.3-1,5.1-4.4,4.1-7.7l-33.8-112.2C229.9,107.2,226.5,105.3,223.2,106.3z"/>
	<path class="st2" d="M277.5,224.7c0.7,0.2,1.4,0.2,2.1,0.1c3.4-0.4,5.9-3.4,5.5-6.8l-12.5-116.3c-0.4-3.4-3.4-5.9-6.8-5.5
		c-3.4,0.4-5.9,3.4-5.5,6.8l12.5,116.3C273.1,222,275,224.1,277.5,224.7z"/>
	<path class="st2" d="M315.8,102.5c0.3-3.4-2.1-6.4-5.6-6.8c-3.4-0.3-6.4,2.2-6.8,5.6l-11.3,116.5c-0.3,3.1,1.8,5.9,4.7,6.6
		c0.3,0.1,0.6,0.1,0.8,0.1c3.4,0.3,6.4-2.2,6.8-5.6L315.8,102.5z"/>
	<path class="st2" d="M170.9,134.4c-2.9,1.8-3.8,5.6-2,8.5l60.7,97.6c1,1.6,2.6,2.6,4.4,2.8c1.4,0.2,2.9-0.1,4.2-0.9
		c2.9-1.8,3.8-5.6,2-8.5l-60.7-97.6C177.6,133.5,173.8,132.6,170.9,134.4z"/>
	<path class="st2" d="M203.6,113.5c-3.2,1.3-4.7,4.9-3.4,8l43.5,108.8c0.8,2.1,2.7,3.5,4.8,3.8c1.1,0.2,2.1,0,3.2-0.4
		c3.2-1.3,4.7-4.9,3.5-8l-43.5-108.8C210.4,113.7,206.8,112.2,203.6,113.5z"/>
	<path class="st2" d="M269,226.7c0.7,0.1,1.4,0.1,2.1,0c3.4-0.7,5.5-3.9,4.9-7.3l-22.6-114.8c-0.7-3.4-3.9-5.5-7.3-4.9
		c-3.4,0.7-5.5,3.9-4.9,7.3l22.6,114.8C264.4,224.4,266.5,226.3,269,226.7z"/>
	<path class="st2" d="M294.5,101.6c0-3.4-2.7-6.2-6.1-6.2c-3.4,0-6.2,2.7-6.2,6.1l-1.1,117c0,3.1,2.3,5.7,5.3,6.2
		c0.3,0,0.6,0.1,0.9,0.1c3.4,0,6.2-2.7,6.2-6.1L294.5,101.6z"/>
	<path class="st2" d="M335,103.5c0.6-3.4-1.6-6.5-5-7.2c-3.4-0.6-6.6,1.7-7.2,5l-20.2,115.2c-0.5,3.1,1.3,6,4.2,7
		c0.3,0.1,0.5,0.2,0.8,0.2c3.4,0.6,6.6-1.7,7.2-5L335,103.5z"/>
	<circle class="st2" cx="361.7" cy="127" r="4"/>
	<circle class="st2" cx="358.8" cy="141.3" r="4"/>
	<circle class="st2" cx="345.7" cy="123" r="4"/>
	<circle class="st2" cx="342.8" cy="137.3" r="4"/>
	<circle class="st2" cx="355.7" cy="155" r="4"/>
	<circle class="st2" cx="352.8" cy="169.3" r="4"/>
	<circle class="st2" cx="339.7" cy="151" r="4"/>
	<circle class="st2" cx="336.8" cy="165.3" r="4"/>
</g>
<circle class="st0" cx="349.7" cy="184" r="4"/>
<circle class="st0" cx="346.8" cy="198.3" r="4"/>
<circle class="st0" cx="333.7" cy="180" r="4"/>
<circle class="st0" cx="330.8" cy="194.3" r="4"/>
<g>
	<rect x="-1" y="362" class="st26" width="500" height="144"/>
	<text transform="matrix(1 0 0 1 134.5747 400.5557)" class="st2 st27 st28">Accordéon</text>
</g>
</svg>
