<?xml version="1.0" encoding="utf-8"?>
<!-- Generator: Adobe Illustrator 22.1.0, SVG Export Plug-In . SVG Version: 6.00 Build 0)  -->
<svg version="1.1" id="Calque_1" xmlns="http://www.w3.org/2000/svg" xmlns:xlink="http://www.w3.org/1999/xlink" x="0px" y="0px"
	 viewBox="0 0 500 500" style="enable-background:new 0 0 500 500;" xml:space="preserve">
<style type="text/css">
	.st0{fill:#4FBDD7;}
	.st1{fill:#EAEAEA;}
	.st2{fill:#FFFFFF;}
	.st3{fill:#4FBDD7;stroke:#FFFFFF;stroke-width:5;stroke-miterlimit:10;}
	.st4{fill:#8C8C8C;}
	.st5{fill:#070707;}
	.st6{fill:none;stroke:#FFFFFF;stroke-width:7;stroke-miterlimit:10;}
	.st7{fill:none;stroke:#FFFFFF;stroke-width:10;stroke-miterlimit:10;}
	.st8{fill:#FFFFFF;stroke:#FFFFFF;stroke-width:3;stroke-miterlimit:10;}
	.st9{fill:none;stroke:#FDFFFF;stroke-width:6;stroke-miterlimit:10;}
	.st10{fill:#FAFEFF;}
	.st11{fill:none;stroke:#FFFFFF;stroke-width:2;stroke-miterlimit:10;}
	.st12{fill:#FFFFFF;stroke:#FFFFFF;stroke-width:2;stroke-miterlimit:10;}
	.st13{fill:#4FBDD7;stroke:#FFFFFF;stroke-width:4;stroke-miterlimit:10;}
	.st14{fill:#FFFFFF;stroke:#FFFFFF;stroke-width:4;stroke-miterlimit:10;}
	.st15{fill:none;stroke:#FFFFFF;stroke-miterlimit:10;}
	.st16{fill:#FFFFFF;stroke:#FFFFFF;stroke-width:13;stroke-miterlimit:10;}
	.st17{fill:#4FBDD7;stroke:#FFFFFF;stroke-width:8;stroke-miterlimit:10;}
	.st18{fill:#FFFFFF;stroke:#FFFFFF;stroke-width:0.75;stroke-miterlimit:10;}
	.st19{fill:#FFFFFF;stroke:#FFFFFF;stroke-width:0.5;stroke-miterlimit:10;}
	.st20{fill:#FFFFFF;stroke:#FFFFFF;stroke-width:8;stroke-miterlimit:10;}
	.st21{fill:#FFFFFF;stroke:#FFFFFF;stroke-miterlimit:10;}
	.st22{fill:#FFFFFF;stroke:#FFFFFF;stroke-width:11;stroke-miterlimit:10;}
	.st23{fill:#FFFFFF;stroke:#FFFFFF;stroke-width:6;stroke-miterlimit:10;}
	.st24{fill:#8C8C8C;stroke:#8C8C8C;stroke-width:4;stroke-miterlimit:10;}
	.st25{fill:#FFFFFF;stroke:#FFFFFF;stroke-width:1.05;stroke-miterlimit:10;}
	.st26{fill:none;stroke:#4FBDD7;stroke-width:5;stroke-miterlimit:10;}
	.st27{fill:none;stroke:#FFFFFF;stroke-width:4;stroke-miterlimit:10;}
	.st28{fill:#8C8C8C;stroke:#FFFFFF;stroke-width:4;stroke-miterlimit:10;}
	.st29{fill:#FFFFFF;stroke:#FFFFFF;stroke-width:10;stroke-miterlimit:10;}
	.st30{fill:none;stroke:#4FBDD7;stroke-width:2;stroke-miterlimit:10;}
	.st31{fill:none;}
	.st32{font-family:'HelveticaNeue-CondensedBold';}
	.st33{font-size:54px;}
	.st34{fill-rule:evenodd;clip-rule:evenodd;fill:#FFFFFF;}
	.st35{fill:#FFFFFF;stroke:#FFFFFF;stroke-width:7;stroke-miterlimit:10;}
	.st36{fill:#FFFFFF;stroke:#4FBDD7;stroke-width:7;stroke-miterlimit:10;}
	.st37{fill:#FCFCFC;}
	.st38{fill:#FFFFFF;stroke:#FFFFFF;stroke-width:5;stroke-miterlimit:10;}
	.st39{fill:none;stroke:#FFFFFF;stroke-width:3;stroke-miterlimit:10;}
	.st40{fill:none;stroke:#FFFFFF;stroke-width:8;stroke-miterlimit:10;}
	.st41{fill:none;stroke:#FFFFFF;stroke-width:6;stroke-miterlimit:10;}
	.st42{fill:#FFFFFF;stroke:#4FBDD7;stroke-width:3;stroke-miterlimit:10;}
	.st43{fill:none;stroke:#FFFFFF;stroke-width:0.75;stroke-miterlimit:10;}
	.st44{fill:#4FBDD7;stroke:#FFFFFF;stroke-width:9;stroke-miterlimit:10;}
	.st45{fill:none;stroke:#FFFFFF;stroke-width:9;stroke-miterlimit:10;}
	.st46{fill:none;stroke:#4FBDD7;stroke-width:3;stroke-miterlimit:10;}
</style>
<rect x="-4" y="-1" class="st0" width="505" height="505"/>
<g>
	<path class="st2" d="M122,107.8v141.4c0,1.4,0.2,2.6,0.6,3.7c0.4,1.1,1.1,1.9,2.2,2.6c1,0.6,1.9,1.2,2.6,1.6s2,0.7,3.8,0.8
		c1.8,0.1,3,0.2,3.6,0.3c0.6,0,2,0,4.1,0c2.1,0,3.3-0.1,3.6-0.1c0,9.8,4,18.1,12,25c8,6.9,17.7,10.4,29,10.4c11.3,0,21-3.5,29-10.4
		c8-6.9,12-15.2,12-25h61.6c0,9.8,4,18.1,12,25c8,6.9,17.7,10.4,29,10.4c11.3,0,21-3.5,29-10.4c8-6.9,12-15.2,12-25h10.3
		c0.3,0,1.5,0,3.6,0.1c2.1,0,3.4,0,4.1,0c0.6,0,1.8-0.1,3.6-0.3c1.8-0.1,3-0.4,3.8-0.8c0.7-0.4,1.6-0.9,2.6-1.6
		c1-0.6,1.7-1.5,2.2-2.6c0.4-1.1,0.6-2.3,0.6-3.7c0-2.4-1-4.5-3-6.2c-2-1.8-4.4-2.6-7.2-2.6v-44.2c0-0.7,0-2.3,0.1-4.8
		c0.1-2.5,0.1-4.2,0-5.2c-0.1-1-0.2-2.6-0.4-4.8c-0.2-2.2-0.6-3.9-1-5.1c-0.5-1.2-1.2-2.6-2.2-4.2c-1-1.6-2.2-2.9-3.6-4.1
		l-31.7-27.3c-2-1.7-4.7-3.2-8.1-4.4c-3.4-1.2-6.5-1.8-9.4-1.8h-25.6v-26.5c0-2.4-1-4.5-3-6.2c-2-1.7-4.4-2.6-7.2-2.6H132.3
		c-2.8,0-5.2,0.9-7.2,2.6C123,103.4,122,105.4,122,107.8z M306.7,258.1c0-4.8,2-8.9,6.1-12.4c4.1-3.5,8.9-5.2,14.4-5.2
		c5.6,0,10.4,1.8,14.4,5.2c4.1,3.5,6.1,7.6,6.1,12.4c0,4.8-2,8.9-6.1,12.4c-4.1,3.5-8.9,5.3-14.4,5.3c-5.6,0-10.4-1.8-14.4-5.3
		C308.7,267.1,306.7,262.9,306.7,258.1z M306.7,152H332c1.4,0,2.6,0.4,3.5,1.2l31.3,26.9c1,0.8,1.4,1.8,1.4,3v4.1h-61.6V152z
		 M163,258.1c0-4.8,2-8.9,6.1-12.4c4.1-3.5,8.9-5.2,14.4-5.2c5.6,0,10.4,1.8,14.4,5.2c4.1,3.5,6.1,7.6,6.1,12.4
		c0,4.8-2,8.9-6.1,12.4c-4.1,3.5-8.9,5.3-14.4,5.3c-5.6,0-10.4-1.8-14.4-5.3C165.1,267.1,163,262.9,163,258.1z"/>
</g>
<g>
	<rect x="-3" y="366" class="st31" width="500" height="144"/>
	<text transform="matrix(1 0 0 1 166.1094 404.5557)" class="st2 st32 st33">Camion</text>
</g>
</svg>
