<?xml version="1.0" encoding="utf-8"?>
<!-- Generator: Adobe Illustrator 22.1.0, SVG Export Plug-In . SVG Version: 6.00 Build 0)  -->
<svg version="1.1" id="Calque_1" xmlns="http://www.w3.org/2000/svg" xmlns:xlink="http://www.w3.org/1999/xlink" x="0px" y="0px"
	 viewBox="0 0 500 500" style="enable-background:new 0 0 500 500;" xml:space="preserve">
<style type="text/css">
	.st0{fill:#EAEAEA;}
	.st1{fill:#8C8C8C;}
	.st2{fill:none;}
	.st3{fill:#6B6B6B;}
	.st4{font-family:'HelveticaNeue-CondensedBold';}
	.st5{font-size:54px;}
	.st6{fill:#FFFFFF;}
	.st7{fill:#EAEAEA;stroke:#8C8C8C;stroke-width:7;stroke-miterlimit:10;}
	.st8{fill:#070707;}
	.st9{fill:none;stroke:#8C8C8C;stroke-width:7;stroke-miterlimit:10;}
	.st10{fill:none;stroke:#8C8C8C;stroke-width:10;stroke-miterlimit:10;}
	.st11{fill:#8C8C8C;stroke:#8C8C8C;stroke-width:3;stroke-miterlimit:10;}
	.st12{fill:none;stroke:#8C8C8C;stroke-width:8;stroke-miterlimit:10;}
	.st13{fill:none;stroke:#8E8E8E;stroke-width:6;stroke-miterlimit:10;}
	.st14{fill:#8E8E8E;}
	.st15{fill:#505050;}
	.st16{fill:none;stroke:#8E8E8E;stroke-width:2;stroke-miterlimit:10;}
	.st17{fill:#8C8C8C;stroke:#8C8C8C;stroke-width:2;stroke-miterlimit:10;}
	.st18{fill:#8C8C8C;stroke:#FFFFFF;stroke-width:2;stroke-miterlimit:10;}
	.st19{fill:none;stroke:#FFFFFF;stroke-width:2;stroke-miterlimit:10;}
	.st20{fill:none;stroke:#8C8C8C;stroke-miterlimit:10;}
	.st21{fill:none;stroke:#8C8C8C;stroke-width:13;stroke-miterlimit:10;}
	.st22{fill:#EAEAEA;stroke:#8C8C8C;stroke-width:8;stroke-miterlimit:10;}
	.st23{fill:none;stroke:#8C8C8C;stroke-width:4;stroke-miterlimit:10;}
	.st24{fill:#8C8C8C;stroke:#8C8C8C;stroke-width:0.75;stroke-miterlimit:10;}
	.st25{fill:none;stroke:#8C8C8C;stroke-width:9;stroke-miterlimit:10;}
	.st26{fill:#8C8C8C;stroke:#8C8C8C;stroke-width:0.5;stroke-miterlimit:10;}
	.st27{stroke:#8C8C8C;stroke-width:8;stroke-miterlimit:10;}
	.st28{fill:#8C8C8C;stroke:#8C8C8C;stroke-miterlimit:10;}
	.st29{fill:none;stroke:#8C8C8C;stroke-width:11;stroke-miterlimit:10;}
	.st30{fill:none;stroke:#8C8C8C;stroke-width:6;stroke-miterlimit:10;}
	.st31{stroke:#8C8C8C;stroke-width:6;stroke-miterlimit:10;}
	.st32{fill:#8C8C8C;stroke:#8C8C8C;stroke-width:4;stroke-miterlimit:10;}
	.st33{fill:#8C8C8C;stroke:#8C8C8C;stroke-width:1.05;stroke-miterlimit:10;}
	.st34{fill:#D6D6D6;}
	.st35{fill:none;stroke:#EAEAEA;stroke-width:5;stroke-miterlimit:10;}
	.st36{fill:#8C8C8C;stroke:#8C8C8C;stroke-width:10;stroke-miterlimit:10;}
	.st37{fill:none;stroke:#CECECE;stroke-width:2;stroke-miterlimit:10;}
	.st38{fill:none;stroke:#FFFFFF;stroke-width:4;stroke-miterlimit:10;}
	.st39{fill-rule:evenodd;clip-rule:evenodd;fill:#8C8C8C;}
	.st40{fill:#8C8C8C;stroke:#8C8C8C;stroke-width:8;stroke-miterlimit:10;}
	.st41{fill:#8C8C8C;stroke:#8C8C8C;stroke-width:7;stroke-miterlimit:10;}
	.st42{fill:#DBDBDB;stroke:#8C8C8C;stroke-width:7;stroke-miterlimit:10;}
	.st43{fill:none;stroke:#8C8C8C;stroke-width:5;stroke-miterlimit:10;}
	.st44{fill:none;stroke:#8C8C8C;stroke-width:3;stroke-miterlimit:10;}
	.st45{clip-path:url(#SVGID_2_);fill:#8C8C8C;}
	.st46{clip-path:url(#SVGID_2_);fill:none;stroke:#8C8C8C;stroke-width:8;stroke-miterlimit:10;}
	.st47{clip-path:url(#SVGID_2_);fill:#FFFFFF;}
	.st48{clip-path:url(#SVGID_2_);fill:#EAEAEA;}
	.st49{clip-path:url(#SVGID_2_);fill:none;stroke:#8C8C8C;stroke-miterlimit:10;}
	.st50{fill:none;stroke:#FFFFFF;stroke-width:0.75;stroke-miterlimit:10;}
	.st51{fill:none;stroke:#8C8C8C;stroke-width:14;stroke-miterlimit:10;}
	.st52{fill:none;stroke:#EAEAEA;stroke-width:2;stroke-miterlimit:10;}
	.st53{fill:none;stroke:#8C8C8C;stroke-width:2;stroke-miterlimit:10;}
</style>
<rect x="0" y="-1" class="st0" width="500" height="500"/>
<g>
	<rect x="-5" y="362" class="st2" width="500" height="144"/>
	<text transform="matrix(1 0 0 1 122.0435 400.5557)"><tspan x="0" y="0" class="st3 st4 st5">Désherbant </tspan><tspan x="13.5" y="64.8" class="st3 st4 st5">thermique</tspan></text>
</g>
<g id="QyYfFt_1_">
	<g>
		<path class="st1" d="M311.4,153.7c-1.8-12.6-3.2-25.4-5.4-37.9c-1.9-10.9-5.5-22-13.5-30c-7.4-7.4-17.4-11.2-27.7-9.1
			c0,0-0.1,0-0.1,0c-0.9-0.4-2-0.3-3.5,0.2c-12.2,4.3-24.4,8.4-36.5,12.7c-1,0.3-2.5,1.2-2.5,1.8c-0.1,3.6-3,4-5.3,4.6
			c-3.5,0.9-4.7,2.9-4.5,6.5c0.2,5.2,0.1,10.4,0.1,15.7c-1.3,0.1-2.1,0.3-2.9,0.3c-7.6,0.2-7.8,0.2-7.7,7.9c0,3.9-2.4,4.2-5,4.4
			c-2.7,0.3-5.4-0.1-8.1,0.2c-1,0.1-2.5,0.8-2.8,1.7c-1.5,3.9,0.1,6.2,4.3,6.5c0.7,0,1.3,0.3,2.1,0.5v6.4c-8.3,3.5-9.4,5.2-9.5,14.3
			c0,16.8-0.2,33.6-0.2,50.5c0,21.8,0.1,43.6,0.2,65.4c0,2.3,0,4.7,0,6.9c-1.6,0.6-3.4,0.8-4.1,1.8c-1,1.3-1.7,3.4-1.4,5
			c0.6,2.9,3.2,3.4,5.8,3.4c21.6,0,43.2,0,64.8,0c1,0,2.2,0.2,2.9-0.3c1.3-1.1,3.2-2.5,3.2-3.9c0.1-1.6-1.3-3.4-2.5-4.8
			c-0.6-0.7-2-0.7-3.2-1c0-1.4,0-2.6,0-3.8c0.1-19.4,0.2-38.9,0.2-58.3c0-20.2-0.3-40.4-0.1-60.5c0.1-7.4-1.7-12.8-9.7-14.4
			c0-1.3-0.1-2.5,0-3.6c0.4-6.1-1.6-10.7-7.7-12.9c-0.6-0.2-1.2-1.4-1.4-2.2c-0.2-1.5-0.1-3-0.1-4.5c0-3-1.3-4.7-4.4-4.6
			c-2,0-4.1,0-6.4,0c0-4.8,0-9,0-13.3c0-3.5,2.7-5.4,6-4.5c1.4,0.4,3.1,0.5,4.5,0c11.9-4,23.7-8.2,35.5-12.1
			c1.7-0.6,2.8-1.3,3.3-2.4c8.4-1.3,16.4,4.1,20.9,10.9c5.5,8.3,7.1,18.6,8.5,28.2c1.5,10.3,2.9,20.7,4.3,31
			c1.5,10.7,3.5,21.6,1.3,32.3c-1.3,6.3,8.3,9,9.6,2.7C315.3,178.8,313.2,166.3,311.4,153.7z"/>
		<path class="st1" d="M177.9,122.9c3.9,0.1,7,3.3,6.8,7.2c-0.1,3.8-3.1,6.8-6.9,6.8c-3.9,0-6.9-3-6.9-7
			C170.9,125.9,173.9,122.9,177.9,122.9z"/>
		<path class="st0" d="M219.7,220.1c0,16.4,0,32.8,0,49.3c0,1.2,0.3,2.5-0.2,3.7c-1.1,2.8-6,4.6-14,4.7c-8.6,0.1-13.8-1.7-15.3-4.7
			c-0.4-0.7-0.2-1.5-0.2-2.2c-0.2-20.2-0.6-40.3-0.6-60.5c0-13.8,0.4-27.6,0.6-41.4c0-0.5,0-1,0-1.5c0.6-3.7,6.5-5.9,15.4-5.8
			c8.4,0.1,14.3,2.3,14.3,5.8c0,11.6-0.3,23.1-0.4,34.7c-0.1,6,0,11.9,0,17.9C219.4,220.1,219.6,220.1,219.7,220.1z"/>
	</g>
</g>
<path class="st1" d="M273,296.5c6-35,11.9-70.1,17.9-105.1c0-3.5,2.2-6.4,5-6.4h23.3c2.7,0,5,2.9,5,6.4c6,34.7,11.9,69.3,17.9,104
	C319,295.8,296,296.2,273,296.5z"/>
</svg>
