<?xml version="1.0" encoding="utf-8"?>
<!-- Generator: Adobe Illustrator 22.1.0, SVG Export Plug-In . SVG Version: 6.00 Build 0)  -->
<svg version="1.1" id="Calque_1" xmlns="http://www.w3.org/2000/svg" xmlns:xlink="http://www.w3.org/1999/xlink" x="0px" y="0px"
	 viewBox="0 0 500 500" style="enable-background:new 0 0 500 500;" xml:space="preserve">
<style type="text/css">
	.st0{fill:#4FBDD7;}
	.st1{fill:#EAEAEA;}
	.st2{fill:#FFFFFF;}
	.st3{fill:#4FBDD7;stroke:#FFFFFF;stroke-width:5;stroke-miterlimit:10;}
	.st4{fill:#8C8C8C;}
	.st5{fill:#070707;}
	.st6{fill:none;stroke:#FFFFFF;stroke-width:7;stroke-miterlimit:10;}
	.st7{fill:none;stroke:#FFFFFF;stroke-width:10;stroke-miterlimit:10;}
	.st8{fill:#FFFFFF;stroke:#FFFFFF;stroke-width:3;stroke-miterlimit:10;}
	.st9{fill:none;stroke:#FDFFFF;stroke-width:6;stroke-miterlimit:10;}
	.st10{fill:#FAFEFF;}
	.st11{fill:none;stroke:#FFFFFF;stroke-width:2;stroke-miterlimit:10;}
	.st12{fill:#FFFFFF;stroke:#FFFFFF;stroke-width:2;stroke-miterlimit:10;}
	.st13{fill:#4FBDD7;stroke:#FFFFFF;stroke-width:4;stroke-miterlimit:10;}
	.st14{fill:#FFFFFF;stroke:#FFFFFF;stroke-width:4;stroke-miterlimit:10;}
	.st15{fill:none;stroke:#FFFFFF;stroke-miterlimit:10;}
	.st16{fill:#FFFFFF;stroke:#FFFFFF;stroke-width:13;stroke-miterlimit:10;}
	.st17{fill:#4FBDD7;stroke:#FFFFFF;stroke-width:8;stroke-miterlimit:10;}
	.st18{fill:#FFFFFF;stroke:#FFFFFF;stroke-width:0.75;stroke-miterlimit:10;}
	.st19{fill:#FFFFFF;stroke:#FFFFFF;stroke-width:0.5;stroke-miterlimit:10;}
	.st20{fill:#FFFFFF;stroke:#FFFFFF;stroke-width:8;stroke-miterlimit:10;}
	.st21{fill:#FFFFFF;stroke:#FFFFFF;stroke-miterlimit:10;}
	.st22{fill:#FFFFFF;stroke:#FFFFFF;stroke-width:11;stroke-miterlimit:10;}
	.st23{fill:#FFFFFF;stroke:#FFFFFF;stroke-width:6;stroke-miterlimit:10;}
	.st24{fill:#8C8C8C;stroke:#8C8C8C;stroke-width:4;stroke-miterlimit:10;}
	.st25{fill:#FFFFFF;stroke:#FFFFFF;stroke-width:1.05;stroke-miterlimit:10;}
	.st26{fill:none;stroke:#4FBDD7;stroke-width:5;stroke-miterlimit:10;}
	.st27{fill:none;stroke:#FFFFFF;stroke-width:4;stroke-miterlimit:10;}
	.st28{fill:#8C8C8C;stroke:#FFFFFF;stroke-width:4;stroke-miterlimit:10;}
	.st29{fill:#FFFFFF;stroke:#FFFFFF;stroke-width:10;stroke-miterlimit:10;}
	.st30{fill:none;stroke:#4FBDD7;stroke-width:2;stroke-miterlimit:10;}
	.st31{fill-rule:evenodd;clip-rule:evenodd;fill:#FFFFFF;}
	.st32{fill:#FFFFFF;stroke:#FFFFFF;stroke-width:7;stroke-miterlimit:10;}
	.st33{fill:#FFFFFF;stroke:#4FBDD7;stroke-width:7;stroke-miterlimit:10;}
	.st34{fill:none;}
	.st35{font-family:'HelveticaNeue-CondensedBold';}
	.st36{font-size:54px;}
	.st37{fill:#FCFCFC;}
	.st38{fill:#FFFFFF;stroke:#FFFFFF;stroke-width:5;stroke-miterlimit:10;}
	.st39{fill:none;stroke:#FFFFFF;stroke-width:3;stroke-miterlimit:10;}
	.st40{fill:none;stroke:#FFFFFF;stroke-width:8;stroke-miterlimit:10;}
	.st41{fill:none;stroke:#FFFFFF;stroke-width:6;stroke-miterlimit:10;}
	.st42{fill:#FFFFFF;stroke:#4FBDD7;stroke-width:3;stroke-miterlimit:10;}
	.st43{fill:none;stroke:#FFFFFF;stroke-width:0.75;stroke-miterlimit:10;}
	.st44{fill:#4FBDD7;stroke:#FFFFFF;stroke-width:9;stroke-miterlimit:10;}
	.st45{fill:none;stroke:#FFFFFF;stroke-width:9;stroke-miterlimit:10;}
	.st46{fill:none;stroke:#4FBDD7;stroke-width:3;stroke-miterlimit:10;}
</style>
<rect class="st0" width="500" height="500"/>
<path class="st2" d="M190.6,210.1c-1.2,0.7-1.5,2.1-0.8,3.3l4.1,6.3c0.7,1.1,2.3,1.5,3.5,0.8l8.2-4.6c1.2-0.7,1.5-2.1,0.8-3.3
	l-4.1-6.3c-0.7-1.1-2.3-1.5-3.5-0.8L190.6,210.1z"/>
<path class="st2" d="M186.5,203.9c-2.8,1.6-0.1,5.7,2.7,4.1l8.2-4.6c2.7-1.5,0.1-5.7-2.7-4.1L186.5,203.9z"/>
<path class="st2" d="M138.4,98.1l-3.2,1.8c0,0,0-0.1,0-0.1c-0.8-2.4-2.3-3-3.4-3c-2.5-0.2-3.7,2.5-4.1,3.3c-0.6,1.3-1.2,3.1-1.6,5
	l-4.2,2.4c-2.8,1.6-0.1,5.7,2.7,4.1l0.4-0.3c-0.1,0.5-0.1,1-0.1,1.6l-3.2,1.8c-2.8,1.6-0.1,5.7,2.7,4.1l0.5-0.3
	c0.1,0.6,0.1,1.1,0.2,1.6l-2,1.1c-2.8,1.6-0.1,5.7,2.7,4.1c1.1-1.1,1.3-0.4,2.3,0.1l5.5,2.5l24.2,36.8c-3.1-0.4-5.9-0.9-8.6-1.8
	c0,0,0,0,0,0c0,0,0,0,0,0c-5.8-1.8-9.4-5.1-13.1-9.3c-1.2-1.4-3.6-1.1-4.3,0.5c-4.8,10.9,11.4,27.3,19.2,31.1
	c2.2,1.1,4.8,1.8,6.6,3.5c2.8,2.6,2.7,7,2.4,9.4c-0.2,1.4-0.5,2.8-0.8,4.3c-0.5,2.5-1.1,5.2-1.1,7.9c0,5.3,2.4,10.5,6.6,14.5
	c4.8,4.5,11.6,7.3,18.2,7.4c6.2,0.1,12.7-1.5,19.2-4.9c5.5-2.8,10.8-6.8,15.3-11.4c4.6-4.7,6.7-9,7.6-12.6c0.9-3.5,0.5-6.4-0.1-8.3
	c-2-7.1-7.9-10.5-13.1-13.4c-1.2-0.7-2.5-1.4-3.7-2.2c-5.3-3.4-9.1-8.5-10.4-14c-0.3-1.3-0.5-2.8-0.6-4.3
	c-0.5-4.8-1.2-10.2-6.1-13.7c-3.9-2.8-7.6-0.3-8,3.8L182,163c0,0.3-0.1,1-0.2,1.1c-0.1,0.1-0.5,0.2-1.7,0.3
	c-1.7,0.1-3.4,0.3-5.1,0.4l-28.8-43.7l0.5-4c0.1-1.1,0-2.2-0.5-3.2l1.3-0.8c2.7-1.5,0.1-5.7-2.7-4.1l-1.9,1.1
	c-0.4-0.3-0.8-0.7-1.2-1.1l2.3-1.3c2.7-1.5,0.1-5.7-2.7-4.1l-2.9,1.7c-0.3-0.3-0.5-0.7-0.8-1l3.6-2
	C143.9,100.7,141.2,96.6,138.4,98.1z M188.2,193.9l-3.9,2.2l-45.5-69l3.9-2.2L188.2,193.9z M180.7,169.2c1.3-0.1,3.6-0.3,5.1-2
	c1-1.2,1.2-2.7,1.3-3.6l1.1-11.6c0-0.2,0-0.4,0.1-0.6c3.1,2.2,3.5,6.1,4,10.2c0.2,1.6,0.4,3.3,0.7,4.8c1.5,6.8,6.1,13,12.6,17.1
	c1.3,0.8,2.6,1.6,3.9,2.3c5,2.9,9.3,5.3,10.8,10.5c1.9,6.7-3.2,13.2-6.4,16.5c-7,7.2-18.8,14.9-30.8,14.7
	c-5.3-0.1-10.8-2.3-14.6-5.9c-2.3-2.2-5.1-5.9-5.1-11.1c0-2.3,0.5-4.5,1-7c0.3-1.5,0.7-3.1,0.9-4.7c0.7-5.7-0.6-10.4-3.9-13.4
	c-1.9-1.7-4.1-2.7-6.2-3.6c-8.1-3.6-13.2-7.2-14.1-12c-0.4-2.1,0.1-4.5,1-4.8c0.9-0.3,2,1.6,5.8,2.5c0,0,0,0,0,0c3.1,1,6.4,1.6,10,2
	c1.1,0.1,2.3,0.2,3.4,0.3l20.2,30.7c0.7,1.1,2.3,1.5,3.5,0.8l8.2-4.6c1.2-0.7,1.5-2.1,0.8-3.3L178,169.5
	C178.9,169.4,179.8,169.3,180.7,169.2C181.9,169.1,179.8,169.3,180.7,169.2z M141.6,116.5l-0.5,3.7c-2,1.1-4,2.3-6,3.4l-4.5-2
	c-0.7-1-1.3-4.3-0.7-10c0.3-2.5,0.8-5.1,1.5-7.5c2.5,4.7,6.8,8.6,9.4,10.8C141.5,115.2,141.7,115.8,141.6,116.5z"/>
<path class="st2" d="M369.8,160c0.5,1.2,1.8,1.8,3,1.3c1.2-0.5,1.8-1.8,1.3-3l-27.8-69.4c-0.5-1.2-1.8-1.8-3-1.3
	c-1.2,0.5-1.8,1.8-1.3,3c2.4,6.1-3.7,14.8-7.9,19.9c-8,9.4-19.6,18.1-27.2,21.8l-3.4-8.6l2.2-0.9c1.2-0.5,1.8-1.8,1.3-3
	c-0.5-1.2-1.8-1.8-3-1.3l-17.3,7c-1.2,0.5-1.8,1.8-1.3,3c0.5,1.2,1.8,1.8,3,1.3l2.2-0.9l3.5,8.7l-16.5,6.6
	c-17.9,7.2-26.7,27.6-19.5,45.6c7.2,17.9,27.6,26.7,45.6,19.5l27.3-10.9c13.7-5.5,20.4-21.8,13.2-35.7c-2.6-5.1-7-9.1-12.4-11.4
	c6.1-0.6,12.7-0.7,18.8,0C356.9,151.7,367.3,153.9,369.8,160z M298.2,135.8l-3.5-8.7l4.3-1.7l3.5,8.7L298.2,135.8z M311.6,150.5
	L283,162c-9.4,3.8-14.8,14.2-11.6,23.7c3.5,10.2,14.7,15.3,24.6,11.3c3-1.2,25.7-10.3,29.5-11.8c7.2-2.9,10.7-11,7.8-18.2
	c-2.9-7.2-11.1-10.7-18.2-7.8L285.6,171c-4.8,1.9-7.1,7.4-5.2,12.2c1.9,4.8,7.4,7.1,12.2,5.2l20.8-8.3c1.2-0.5,1.8-1.8,1.3-3
	l-4.3-10.8l4.3-1.7l6.1,15.2c0.5,1.2-0.1,2.6-1.3,3l-25.2,10.1c-7.4,3-15.9-0.8-18.5-8.5c-2.4-6.9,1.6-14.9,8.9-17.9
	c3.8-1.5,24.9-10,27.7-11.1c10.5-4.2,22.5-0.1,27.4,9.4c5.9,11.4,0.4,24.7-10.8,29.2l-27.3,10.9c-15.5,6.2-33.3-1.3-39.5-16.9
	s1.3-33.3,16.9-39.5l27.3-10.9c7.8-3.1,20.4-12,29.6-22.2l12.4,30.9C334.7,145.1,319.4,147.4,311.6,150.5z M325.6,179.9
	c-0.1-0.7-0.2-1.4-0.5-2.1l-6-14.9c4.1-0.5,8.3,1.8,9.9,5.8C330.7,172.9,329.1,177.6,325.6,179.9z M299.3,178.1l0.9,2.2l-5,2
	l-0.9-2.2c-0.5-1.2-1.8-1.8-3-1.3c-1.2,0.5-1.8,1.8-1.3,3l0.9,2.2c-2.4,1-5.1-0.2-6.1-2.6s0.2-5.1,2.6-6.1l18.6-7.5l3.5,8.7l-5,2
	l-0.9-2.2c-0.5-1.2-1.8-1.8-3-1.3C299.4,175.6,298.8,176.9,299.3,178.1z M339.4,111.2c3-3.9,5.2-7.5,6.4-10.9l20,49.9
	c-3.3-1.6-7.3-2.8-12.2-3.5L339.4,111.2z"/>
<path class="st2" d="M401.8,248c0,0,4.5-5.9-4.2-17c-0.4-0.5-0.9-1.1-1.7-1.4c-0.9-0.4-1.8-0.3-2.4-0.2l-17,2.5
	c-0.5-0.3-1-0.6-1.6-0.8c-3.3-1.4-7.7-0.6-11.2,0.1c-0.9,0.2-1.7,0.3-2.4,0.4c-5.1,0.7-10.3,1.7-15.3,2.9c-1.7,0.4-3.4,0.9-4.8,2
	c-0.8,0.6-1.4,1.3-1.9,2.1c-0.2,0-0.3,0-0.5,0c-26.7,3.3-53.5,7-80,10.9c-0.2-1.5-0.9-2.8-1.9-3.9c-1.6-1.6-3.7-2.2-5.1-2.3
	c-1.8-0.2-3.5,0-5,0.2c-2.2,0.3-4.7,0.8-6.8,2.4c-2.3,1.7-3.5,4.4-3,6.9c-2,0.3-4,0.6-6.1,0.9c-0.4-1.4-1-3.1-2.5-4.3
	c-2.1-1.7-5-1.4-6.7-1.2l-4.5,0.5c-2,0.2-4.4,0.5-6.5,1.9c-2,1.4-3.3,4.2-2.5,6.6c-7.6,1.2-15.3,2.5-22.8,3.7
	c-0.4-1.8-1.3-3.9-3.4-4.9c-1.6-0.7-3.2-0.5-4.4-0.3c-14.5,1.9-29.2,4-43.7,6.3c0,0,0,0,0,0c-2.3-1.2-5.1-1.6-7.9-0.9
	c-5.4,1.3-9.6,6.2-10,11.7c-2.4,0.4-4.7,0.8-7.1,1.2c-1.2,0.2-2.9,0.5-4.2,1.8c-1.6,1.7-1.4,4.1-1.3,5.3c0.2,3.2,0.7,6.3,1.4,9.5
	c0.4,2,1.1,4.2,3,5.5l0.1,0c1.6,1.1,3.4,1.1,5.1,1.1c8.3-0.1,16.8-0.7,25-1.9c0.5,1.7,1.5,3.3,2.9,4.5c0.3,0.3,0.7,0.6,1.1,0.9
	c1.7,1.2,3.7,2,6.2,2.5c2.2,0.5,4,0.6,5.7,0.4c4.3-0.6,8.1-3.8,9.6-7.9c0,0,0.1,0.1,0.1,0.1c0.3,0.3,0.7,0.6,1.1,0.9
	c1.7,1.2,3.7,2,6.2,2.5c2.2,0.5,4,0.6,5.7,0.4c3.6-0.5,6.8-2.8,8.7-6c6.9-0.6,13.8-1.3,20.6-2c0.8-0.1,2.3-0.2,3.3-1.4
	c0.6-0.7,0.8-1.6,0.9-2.1c0.3-1.3,0.5-2.7,0.6-4.1c6.2-0.9,12.4-1.9,18.6-2.9c0.2,0.3,0.3,0.7,0.4,1.2c0.3,1.1,0.8,2.4,2,3.4
	c0.1,0.1,0.1,0.1,0.2,0.1c0.7,0.5,1.4,0.7,2,0.9c3.9,1,8.1,0.7,11.8-1c1.9-0.9,3.3-1.9,4.4-3.2c1.1-1.5,1.7-3.3,1.6-4.9
	c1.7-0.3,3.4-0.5,5.1-0.8c0.1,1.7,1.4,2.7,2.5,3.4c0,0,0.1,0,0.1,0.1c1.8,1.3,3.9,1.5,5.4,1.6c3.6,0.2,7.3-0.5,10.7-1.9
	c1-0.4,2.2-1,3.1-2.1c1.2-1.5,1.5-3.3,1.5-4.9c23-3.8,46-7.8,68.8-11.8c0.4-0.1,0.7-0.3,1-0.6c3.2,0.4,6.4-0.1,9.1-0.6
	c5.4-1,10.8-2.4,16-4.1c2.1-0.7,4.4-1.5,6.1-3.2c0.2-0.2,0.4-0.4,0.6-0.6c0.2,0,0.4,0,0.7-0.1C394,251.2,399.9,250.6,401.8,248z
	 M242.1,248.9c1.5-1.1,3.5-1.4,5.3-1.7c1.3-0.2,2.7-0.4,4.1-0.2c1.3,0.1,2.3,0.6,3,1.3c0.5,0.5,0.8,1.2,0.9,1.9
	c-5,0.7-9.9,1.5-14.8,2.2C240.2,251.1,241.1,249.6,242.1,248.9z M211.8,256.4c-0.5-0.8,0.2-2.1,1-2.7c1.3-0.9,3.1-1.1,4.8-1.3
	l4.5-0.5c1.6-0.2,3.1-0.3,4,0.4c0.5,0.4,0.9,1.2,1.2,2.1c-5.1,0.8-10.3,1.6-15.4,2.4C211.9,256.7,211.9,256.6,211.8,256.4z
	 M178.1,259.5c0.8-0.1,1.8-0.2,2.5,0c0.7,0.3,1.1,1.2,1.4,2.2c-14.6,2.4-29.1,4.9-43.3,7.3c-0.1-1.3-0.6-2.6-1.3-3.7
	C150.8,263.2,164.5,261.3,178.1,259.5z M173.4,266.9l1.5,10.1c-1.9,0.1-3.8,0.6-5.6,1.4l-1.5-10.7c1.9-0.3,3.7-0.6,5.6-0.9
	C173.4,266.8,173.3,266.8,173.4,266.9z M147.6,282c-0.7-3.5-1.1-7.1-1.3-10.6c1.7-0.3,3.3-0.6,5-0.9c0.3,3.5,0.7,7,1.3,10.5
	C150.9,281,149.2,281.4,147.6,282z M156.3,281.3c-0.7-3.8-1.1-7.6-1.4-11.4c3.1-0.5,6.2-1.1,9.4-1.6l1.7,11.7c0,0.1,0,0.2,0.1,0.2
	c-1.2,0.9-2.4,1.9-3.3,3.1c-0.5,0.6-0.8,1.1-1.2,1.7C160.2,283.2,158.4,281.9,156.3,281.3z M126.8,264.7c2-0.5,4.1-0.2,5.6,0.7
	c1.5,0.9,2.6,2.6,2.6,4.2c-5.2,0.9-10.3,1.8-15.4,2.7C120.3,268.7,123.3,265.6,126.8,264.7z M112.9,293.9c-1.2,0-2.4,0-3.1-0.5
	c0,0,0,0,0,0c-0.9-0.6-1.3-2-1.6-3.3c-0.6-2.9-1.1-5.9-1.3-8.9c-0.1-1-0.1-2.1,0.4-2.6c0.4-0.4,1.4-0.6,2.2-0.7
	c11-1.9,22.1-3.8,33.3-5.8c0.2,3.8,0.7,7.5,1.4,11.2c0,0.1,0.1,0.3,0.1,0.4c-1.6,1-3.1,2.3-4.3,3.7c-1.3,1.6-2,3.1-2.3,4.7
	C129.5,293.2,121.1,293.8,112.9,293.9z M153.3,300.3c-1.3,0.2-2.7,0.1-4.4-0.3c-2.5-0.5-4.4-1.4-5.7-2.6c-1.5-1.3-2.3-3.2-2-4.8
	c0.2-0.9,0.7-1.9,1.5-3c2.9-3.5,7.8-5.6,12-5c0.8,0.1,1.6,0.5,2.3,0.9c2.4,1.7,3.7,5.1,3.4,7.8C159.9,296.9,156.9,299.9,153.3,300.3
	z M176,296.3c-1.3,0.2-2.7,0.1-4.4-0.3c-2.5-0.5-4.4-1.4-5.7-2.6c-1.5-1.3-2.3-3.2-2-4.8c0.2-0.9,0.7-1.9,1.5-3
	c2.9-3.5,7.8-5.6,12-5c0.8,0.1,1.6,0.5,2.3,0.9c2.4,1.7,3.7,5.1,3.4,7.8C182.6,292.9,179.5,295.9,176,296.3z M206.5,287.7
	c-0.1,0.2-0.1,0.4-0.1,0.5c-0.1,0.1-0.4,0.1-0.9,0.2c-6.3,0.7-12.6,1.3-18.9,1.9c0-0.1,0-0.2,0.1-0.3c0.1-0.6,0.1-1.3,0.1-1.9
	c6.7-1,13.5-2,20.2-3C206.8,285.9,206.7,286.8,206.5,287.7z M247.1,280.7c-0.7,0.8-1.7,1.6-3,2.2c-2.9,1.3-6.4,1.6-9.4,0.8
	c-0.3-0.1-0.7-0.2-0.9-0.4c-0.3-0.3-0.6-0.9-0.8-1.7c-0.1-0.2-0.1-0.4-0.2-0.6c5.1-0.8,10.2-1.6,15.2-2.4
	C247.9,279.2,247.6,280,247.1,280.7z M275.6,275.9c-0.4,0.5-1.1,0.9-1.8,1.1c-2.8,1.2-6,1.8-9.1,1.6c-1.7-0.1-2.8-0.4-3.6-1
	c-0.3-0.2-0.9-0.6-1-0.8c0,0,0-0.1,0.1-0.2c0,0,0,0,0-0.1c5.3-0.9,10.7-1.7,16-2.6C276.2,274.7,276,275.4,275.6,275.9z M278.2,270
	c-0.1,0-0.1,0-0.2,0c-0.2,0-0.4,0.1-0.6,0.1c-30.5,5-61,9.8-91.4,14.3c-1.2-3.5-3.9-6.5-7.5-7.3l-1.6-10.8c0-0.1,0-0.1,0-0.2
	c52.5-8.8,106.9-17.1,161.3-23.8c-0.3,1.9-0.2,3.9,0,5.8c0.2,2.1,0.4,4.4,1.5,6.6c0.8,1.5,1.9,2.8,3.4,3.8c0.1,0.1,0.2,0.2,0.4,0.2
	C321.8,262.6,300,266.4,278.2,270z M378.5,250.4c-1.2,1.2-3,1.8-4.8,2.4c-5.1,1.7-10.3,3-15.6,4c-2.7,0.5-5.9,1-8.8,0.5
	c-2.9-0.5-5.3-2.1-6.4-4.2c-0.8-1.5-1-3.4-1.1-5.3c-0.3-3.3-0.4-6.9,1.7-8.5c0.9-0.7,2.1-1,3.5-1.3c4.9-1.2,10-2.1,15-2.8
	c0.8-0.1,1.7-0.3,2.6-0.4c3-0.6,6.8-1.3,9.1-0.3c3,1.2,5.7,5,6.5,9.1C380.5,245.2,380.7,248.3,378.5,250.4z M383.6,248.2
	c0.4-1.6,0.4-3.4,0-5.3c-0.5-2.9-1.9-5.6-3.6-7.8l14-2.1c0.1,0,0.3-0.1,0.5-0.1c0,0,0.1,0.1,0.2,0.3c2.8,3.6,4.1,8.2,3.7,12.7
	c-1.4,0.8-3.5,1.7-6.1,2.2C388.7,248.9,385.6,248.6,383.6,248.2z"/>
<circle class="st2" cx="196.6" cy="272.2" r="5.7"/>
<circle class="st2" cx="211.8" cy="269.9" r="5.7"/>
<circle class="st2" cx="227.9" cy="266.9" r="5.7"/>
<circle class="st2" cx="243.1" cy="264.6" r="5.7"/>
<circle class="st2" cx="259.2" cy="261.5" r="5.7"/>
<circle class="st2" cx="274.4" cy="259.2" r="5.7"/>
<path class="st2" d="M370.7,249.3l-16.5,3.5c-3.1,0.6-6.1-1.3-6.8-4.4v0c-0.6-3.1,1.3-6.1,4.4-6.8l16.5-3.5c3.1-0.6,6.1,1.3,6.8,4.4
	v0C375.8,245.7,373.8,248.7,370.7,249.3z"/>
<g>
	<rect y="365" class="st34" width="500" height="144"/>
	<text transform="matrix(1 0 0 1 120.6177 403.5557)" class="st2 st35 st36">Instruments</text>
</g>
</svg>
