<?xml version="1.0" encoding="utf-8"?>
<!-- Generator: Adobe Illustrator 22.1.0, SVG Export Plug-In . SVG Version: 6.00 Build 0)  -->
<svg version="1.1" id="Calque_1" xmlns="http://www.w3.org/2000/svg" xmlns:xlink="http://www.w3.org/1999/xlink" x="0px" y="0px"
	 viewBox="0 0 500 500" style="enable-background:new 0 0 500 500;" xml:space="preserve">
<style type="text/css">
	.st0{fill:#EAEAEA;}
	.st1{fill:#8C8C8C;}
	.st2{fill:none;}
	.st3{fill:#6B6B6B;}
	.st4{font-family:'HelveticaNeue-CondensedBold';}
	.st5{font-size:54px;}
	.st6{fill:#FFFFFF;}
	.st7{fill:#EAEAEA;stroke:#8C8C8C;stroke-width:7;stroke-miterlimit:10;}
	.st8{fill:#070707;}
	.st9{fill:none;stroke:#8C8C8C;stroke-width:7;stroke-miterlimit:10;}
	.st10{fill:none;stroke:#8C8C8C;stroke-width:10;stroke-miterlimit:10;}
	.st11{fill:#8C8C8C;stroke:#8C8C8C;stroke-width:3;stroke-miterlimit:10;}
	.st12{fill:none;stroke:#8C8C8C;stroke-width:8;stroke-miterlimit:10;}
	.st13{fill:none;stroke:#8E8E8E;stroke-width:6;stroke-miterlimit:10;}
	.st14{fill:#8E8E8E;}
	.st15{fill:#505050;}
	.st16{fill:none;stroke:#8E8E8E;stroke-width:2;stroke-miterlimit:10;}
	.st17{fill:#8C8C8C;stroke:#8C8C8C;stroke-width:2;stroke-miterlimit:10;}
	.st18{fill:#8C8C8C;stroke:#FFFFFF;stroke-width:2;stroke-miterlimit:10;}
	.st19{fill:none;stroke:#FFFFFF;stroke-width:2;stroke-miterlimit:10;}
	.st20{fill:none;stroke:#8C8C8C;stroke-miterlimit:10;}
	.st21{fill:none;stroke:#8C8C8C;stroke-width:13;stroke-miterlimit:10;}
	.st22{fill:#EAEAEA;stroke:#8C8C8C;stroke-width:8;stroke-miterlimit:10;}
	.st23{fill:none;stroke:#8C8C8C;stroke-width:4;stroke-miterlimit:10;}
	.st24{fill:#8C8C8C;stroke:#8C8C8C;stroke-width:0.75;stroke-miterlimit:10;}
	.st25{fill:none;stroke:#8C8C8C;stroke-width:9;stroke-miterlimit:10;}
	.st26{fill:#8C8C8C;stroke:#8C8C8C;stroke-width:0.5;stroke-miterlimit:10;}
	.st27{stroke:#8C8C8C;stroke-width:8;stroke-miterlimit:10;}
	.st28{fill:#8C8C8C;stroke:#8C8C8C;stroke-miterlimit:10;}
	.st29{fill:none;stroke:#8C8C8C;stroke-width:11;stroke-miterlimit:10;}
	.st30{fill:none;stroke:#8C8C8C;stroke-width:6;stroke-miterlimit:10;}
	.st31{stroke:#8C8C8C;stroke-width:6;stroke-miterlimit:10;}
	.st32{fill:#8C8C8C;stroke:#8C8C8C;stroke-width:4;stroke-miterlimit:10;}
	.st33{fill:#8C8C8C;stroke:#8C8C8C;stroke-width:1.05;stroke-miterlimit:10;}
	.st34{fill:#D6D6D6;}
	.st35{fill:none;stroke:#EAEAEA;stroke-width:5;stroke-miterlimit:10;}
	.st36{fill:#8C8C8C;stroke:#8C8C8C;stroke-width:10;stroke-miterlimit:10;}
	.st37{fill:none;stroke:#CECECE;stroke-width:2;stroke-miterlimit:10;}
	.st38{fill:none;stroke:#FFFFFF;stroke-width:4;stroke-miterlimit:10;}
	.st39{fill-rule:evenodd;clip-rule:evenodd;fill:#8C8C8C;}
	.st40{fill:#8C8C8C;stroke:#8C8C8C;stroke-width:8;stroke-miterlimit:10;}
	.st41{fill:#8C8C8C;stroke:#8C8C8C;stroke-width:7;stroke-miterlimit:10;}
	.st42{fill:#DBDBDB;stroke:#8C8C8C;stroke-width:7;stroke-miterlimit:10;}
	.st43{fill:none;stroke:#8C8C8C;stroke-width:5;stroke-miterlimit:10;}
	.st44{fill:none;stroke:#8C8C8C;stroke-width:3;stroke-miterlimit:10;}
	.st45{clip-path:url(#SVGID_2_);fill:#8C8C8C;}
	.st46{clip-path:url(#SVGID_2_);fill:none;stroke:#8C8C8C;stroke-width:8;stroke-miterlimit:10;}
	.st47{clip-path:url(#SVGID_2_);fill:#FFFFFF;}
	.st48{clip-path:url(#SVGID_2_);fill:#EAEAEA;}
	.st49{clip-path:url(#SVGID_2_);fill:none;stroke:#8C8C8C;stroke-miterlimit:10;}
	.st50{fill:none;stroke:#FFFFFF;stroke-width:0.75;stroke-miterlimit:10;}
	.st51{fill:none;stroke:#8C8C8C;stroke-width:14;stroke-miterlimit:10;}
	.st52{fill:none;stroke:#EAEAEA;stroke-width:2;stroke-miterlimit:10;}
	.st53{fill:none;stroke:#8C8C8C;stroke-width:2;stroke-miterlimit:10;}
</style>
<rect x="1" class="st0" width="500" height="500"/>
<g>
	<rect x="-1" y="364" class="st2" width="500" height="144"/>
	<text transform="matrix(1 0 0 1 163.5459 402.5557)" class="st3 st4 st5">Lit bébé</text>
</g>
<g>
	<path class="st1" d="M351.4,230c-2-0.5-2.2-1.3-2.2-3c0-21.4,0-42.8,0-64.2c0-0.9,0.1-1.8,0.1-2.9c1.7,0,3.1,0.1,4.5,0
		c4.9-0.3,8.7-4.1,9.2-9c0.4-4.7-2.7-9.2-7.2-10.4c-1.3-0.3-2.6-0.3-4-0.4c-39.1,0-78.2,0-117.2,0c-0.7,0-1.5-0.2-2,0.1
		c-1,0.7-2.4,1.6-2.5,2.6c-0.2,1,0.7,2.5,1.6,3.3c0.7,0.6,2,0.6,3.1,0.6c23.1,0,46.2,0,69.2,0c16.1,0,32.2,0,48.2,0
		c2.6,0,4.2,1.2,4.2,3.2c0.1,2-1.6,3.4-4.3,3.4c-0.3,0-0.7,0-1,0c-66.7,0-133.5,0-200.2,0c-0.8,0-1.5,0.1-2.2,0
		c-1.9-0.3-3.1-1.4-3.1-3.3c0-1.9,1.2-3.1,3.1-3.2c1.4-0.1,2.4-0.1,2.5,0c1.7,0.3,26.6,0.3,83.5,0c20.7-1.4,25.1-2.5,25.1-3.3
		c0-1.5-15-2.8-25.3-3.3c-2.7-0.1-8.2-0.3-17.7,0c-9.1,0.3-24.6,0.1-55.5,0c-4,0-7.3,0-9.3,0c-1.6,0-2.7-0.1-3.9,0
		c-5.3,0.4-9.3,4.7-9.2,10c0.1,5.3,4.1,9.5,9.5,9.7c1.4,0.1,2.8,0,4.1,0c0.1,0.7,0.2,1,0.2,1.4c0,22.2,0,44.3,0,66.5
		c0,1.5-0.7,1.9-2,2.2c-7.4,1.9-12.1,8.2-11.8,15.6c0.3,7.2,5.6,13,13,14.3c0.5,0.1,0.9,0.3,1.4,0.5v2.8c0,12.8,0,25.7,0,38.5
		c0,3.3,1,4.3,4.3,4.3c4.7,0,9.5,0,14.2,0c3.5,0,4.5-1,4.5-4.4c0-4.7,0.1-9.3,0-14c-0.1-1.8,0.6-2.4,2.3-2.6
		c8.2-1.2,14.7-5.4,18.9-12.5c2.1-3.7,3.3-7.9,5.1-12.4h2.4c5,0,15.2,0,20.2,0c0-2.2,0.1-4.4,0.1-6.6c-38.3,0.2-66.3,0.1-71.2-0.1
		c-1,0-3.4-0.1-5.5-1.8c-1.5-1.2-2.6-3-3.1-5.1c-0.8-3.7,1.2-7.9,4.8-9.5c1.6-0.7,3.6-0.9,5.3-0.9c63.4,0,126.8,0,190.2,0
		c1,0,2,0,3,0.2c4.3,0.7,7.5,4.6,7.3,8.8c-0.2,4.3-3.6,7.9-7.9,8.3c-2.2,0.2-3.9,0.1-4.2,0.1c-4.4-0.9-35.4-1.2-118.7,0
		c0,2.2-0.1,4.4-0.1,6.6c41.2,0.2,70.5,0.2,72.3,0c0.2,0,1.2-0.2,2,0.4c0.4,0.3,0.6,0.8,0.7,1.6c2,12.4,10.5,21,23,23
		c1.5,0.2,2.1,0.7,2.1,2.3c-0.1,4.7,0,9.3,0,14c0,3.8,0.9,4.7,4.7,4.7c4.6,0,9.2,0,13.7,0c3.7,0,4.6-0.9,4.6-4.6
		c0-12.8,0-25.7,0-38.5v-2.7c0.7-0.2,1.2-0.3,1.7-0.3c7.2-1.4,12.5-7.2,12.8-14.3C363.3,238.2,358.6,231.7,351.4,230 M176.8,260.2
		h18.1c0.9,8.3-8.6,18-18.1,18.2V260.2z M160.1,260.2h9.8v39h-9.8V260.2z M313.7,160h17.2v53h-17.2V160z M242.4,160h17.2v52.8h-17.2
		V160z M171.1,160.1h17.2V213h-17.2V160.1z M164.2,229.3h-4.6V160h4.6V229.3z M188.4,229.2h-17.4c0-2.7-0.1-5.3,0.1-7.9
		c0-0.6,1.1-1.5,1.7-1.5c5.1-0.1,10.3-0.1,15.6-0.1V229.2z M199.8,229.3h-4.6V160h4.6V229.3z M223.9,229.2h-17.2v-9.5h17.2V229.2z
		 M224,212.8h-17.2v-52.7H224V212.8z M235.4,229.3H231V160h4.5V229.3z M259.6,229.3h-17.4c0-2.9,0-5.8,0.1-8.7c0-0.4,0.8-1,1.3-1.1
		c5.3-0.1,10.6,0,16.1,0V229.3z M271.1,229.2h-4.5V160h4.5V229.2z M295.2,229.2H278v-9.6h17.2V229.2z M295.3,212.8h-17.2v-52.7h17.2
		V212.8z M306.8,229.3h-4.6V160h4.6V229.3z M331.1,229.2h-17.5v-9.4c5.4,0,10.7-0.1,15.9,0.1c0.5,0,1.4,1.1,1.5,1.7
		C331.2,224.1,331.1,226.6,331.1,229.2 M342.4,229.3h-4.6V160h4.6V229.3z M325.3,278.3c-8.7,0.4-18.2-8.9-18.2-18h18.2V278.3z
		 M341.9,299.2h-9.7v-39h9.7V299.2z"/>
	<path class="st1" d="M259.6,219.5v9.8h-17.4c0-2.9-0.1-5.8,0.1-8.7c0-0.4,0.8-1,1.3-1.1C248.9,219.5,254.2,219.5,259.6,219.5"/>
	<rect x="206.7" y="219.7" class="st1" width="17.2" height="9.5"/>
	<rect x="278" y="219.6" class="st1" width="17.2" height="9.6"/>
	<path class="st1" d="M313.6,229.2v-9.4c5.4,0,10.7-0.1,15.9,0.1c0.5,0,1.4,1.1,1.5,1.7c0.2,2.5,0.1,5,0.1,7.6H313.6z"/>
	<path class="st1" d="M188.4,219.8v9.5h-17.4c0-2.7-0.1-5.3,0.1-7.9c0-0.6,1.1-1.5,1.7-1.5C177.9,219.7,183,219.8,188.4,219.8"/>
	<path class="st1" d="M152.8,233v-13.8c59.3,0,117.7-0.1,176.1,0.1c5.8,0,15.6,1.6,16.1,2.5c1.9,3.6,0.8,7.3,0.8,11.1H152.8z"/>
</g>
</svg>
