<?xml version="1.0" encoding="utf-8"?>
<!-- Generator: Adobe Illustrator 22.1.0, SVG Export Plug-In . SVG Version: 6.00 Build 0)  -->
<svg version="1.1" id="Calque_1" xmlns="http://www.w3.org/2000/svg" xmlns:xlink="http://www.w3.org/1999/xlink" x="0px" y="0px"
	 viewBox="0 0 500 500" style="enable-background:new 0 0 500 500;" xml:space="preserve">
<style type="text/css">
	.st0{fill:#EAEAEA;}
	.st1{fill:#8C8C8C;}
	.st2{fill:#FFFFFF;}
	.st3{fill:#EAEAEA;stroke:#8C8C8C;stroke-width:7;stroke-miterlimit:10;}
	.st4{fill:#070707;}
	.st5{fill:none;stroke:#8C8C8C;stroke-width:7;stroke-miterlimit:10;}
	.st6{fill:none;stroke:#8C8C8C;stroke-width:10;stroke-miterlimit:10;}
	.st7{fill:#8C8C8C;stroke:#8C8C8C;stroke-width:3;stroke-miterlimit:10;}
	.st8{fill:none;stroke:#8C8C8C;stroke-width:8;stroke-miterlimit:10;}
	.st9{fill:none;stroke:#8E8E8E;stroke-width:6;stroke-miterlimit:10;}
	.st10{fill:#8E8E8E;}
	.st11{fill:#505050;}
	.st12{fill:none;stroke:#8E8E8E;stroke-width:2;stroke-miterlimit:10;}
	.st13{fill:#8C8C8C;stroke:#8C8C8C;stroke-width:2;stroke-miterlimit:10;}
	.st14{fill:#8C8C8C;stroke:#FFFFFF;stroke-width:2;stroke-miterlimit:10;}
	.st15{fill:none;stroke:#FFFFFF;stroke-width:2;stroke-miterlimit:10;}
	.st16{fill:none;stroke:#8C8C8C;stroke-miterlimit:10;}
	.st17{fill:none;stroke:#8C8C8C;stroke-width:13;stroke-miterlimit:10;}
	.st18{fill:#EAEAEA;stroke:#8C8C8C;stroke-width:8;stroke-miterlimit:10;}
	.st19{fill:none;stroke:#8C8C8C;stroke-width:4;stroke-miterlimit:10;}
	.st20{fill:#8C8C8C;stroke:#8C8C8C;stroke-width:0.75;stroke-miterlimit:10;}
	.st21{fill:none;stroke:#8C8C8C;stroke-width:9;stroke-miterlimit:10;}
	.st22{fill:#8C8C8C;stroke:#8C8C8C;stroke-width:0.5;stroke-miterlimit:10;}
	.st23{fill:#6B6B6B;}
	.st24{fill:none;}
	.st25{stroke:#8C8C8C;stroke-width:8;stroke-miterlimit:10;}
	.st26{fill:#8C8C8C;stroke:#8C8C8C;stroke-miterlimit:10;}
	.st27{fill:none;stroke:#8C8C8C;stroke-width:11;stroke-miterlimit:10;}
	.st28{fill:none;stroke:#8C8C8C;stroke-width:6;stroke-miterlimit:10;}
	.st29{stroke:#8C8C8C;stroke-width:6;stroke-miterlimit:10;}
	.st30{fill:#8C8C8C;stroke:#8C8C8C;stroke-width:4;stroke-miterlimit:10;}
	.st31{fill:#8C8C8C;stroke:#8C8C8C;stroke-width:1.05;stroke-miterlimit:10;}
	.st32{fill:#D6D6D6;}
	.st33{fill:none;stroke:#EAEAEA;stroke-width:5;stroke-miterlimit:10;}
	.st34{fill:#8C8C8C;stroke:#8C8C8C;stroke-width:10;stroke-miterlimit:10;}
	.st35{fill:none;stroke:#CECECE;stroke-width:2;stroke-miterlimit:10;}
	.st36{fill:none;stroke:#FFFFFF;stroke-width:4;stroke-miterlimit:10;}
	.st37{fill-rule:evenodd;clip-rule:evenodd;fill:#8C8C8C;}
	.st38{fill:#8C8C8C;stroke:#8C8C8C;stroke-width:8;stroke-miterlimit:10;}
	.st39{fill:#8C8C8C;stroke:#8C8C8C;stroke-width:7;stroke-miterlimit:10;}
	.st40{fill:#DBDBDB;stroke:#8C8C8C;stroke-width:7;stroke-miterlimit:10;}
	.st41{fill:none;stroke:#8C8C8C;stroke-width:5;stroke-miterlimit:10;}
	.st42{font-family:'HelveticaNeue-CondensedBold';}
	.st43{font-size:54px;}
	.st44{fill:none;stroke:#8C8C8C;stroke-width:3;stroke-miterlimit:10;}
	.st45{clip-path:url(#SVGID_2_);fill:#8C8C8C;}
	.st46{clip-path:url(#SVGID_2_);fill:none;stroke:#8C8C8C;stroke-width:8;stroke-miterlimit:10;}
	.st47{clip-path:url(#SVGID_2_);fill:#FFFFFF;}
	.st48{clip-path:url(#SVGID_2_);fill:#EAEAEA;}
	.st49{clip-path:url(#SVGID_2_);fill:none;stroke:#8C8C8C;stroke-miterlimit:10;}
	.st50{fill:none;stroke:#FFFFFF;stroke-width:0.75;stroke-miterlimit:10;}
	.st51{fill:none;stroke:#8C8C8C;stroke-width:14;stroke-miterlimit:10;}
	.st52{fill:none;stroke:#EAEAEA;stroke-width:2;stroke-miterlimit:10;}
	.st53{fill:none;stroke:#8C8C8C;stroke-width:2;stroke-miterlimit:10;}
</style>
<rect x="-1" y="1" class="st0" width="500" height="500"/>
<g>
	<rect x="1" y="367" class="st24" width="500" height="144"/>
	<text transform="matrix(1 0 0 1 130.6089 405.5557)"><tspan x="0" y="0" class="st23 st42 st43">Matériel de </tspan><tspan x="31" y="64.8" class="st23 st42 st43">coffrage</tspan></text>
</g>
<path class="st1" d="M195.6,166.4c-3.9-2.7-7.1-5.1-10.4-7.2c-3.1-1.9-5.2-4.9-3-8.7c1.3-2.2,4.8-3.8,6.9-3
	c4.5,1.7,8.8,4.8,12.9,7.7c3.3,2.3,5.9,2.5,8.9-0.5c4.5-4.4,9.3-8.2,14.7-12.9c-4-2.7-7.9-4.7-11.1-7.8c-1.9-1.8-4-5.8-3.7-8.3
	c0.7-5.6,4.5-5.4,7.8-3.5c6.1,3.4,12.1,7.2,17.7,10.6c5.6-4.9,10.9-9.4,17.2-14.9c-4.4-3-8.3-5-11.7-8.2c-1.8-1.7-2.5-5.3-3.7-8
	c2.3-1.4,4.8-4.5,6.8-3.9c4.3,1.3,8.7,3.8,12.5,7.1c4.8,4.2,8.6,3.7,12.8-0.5c3.2-3.3,6.9-5.6,10.1,0.1c3.6,6.2-1.2,8.1-5.2,12.5
	c7.4,4.7,14,9.2,20.9,12.8c1.4,0.7,3.9-2.2,5.8-3.7c3.6-3,7.7-6.1,10.6,0.2c1.2,2.6-1,7.7-1.6,11.6c-0.7,0.1-1.4,0.2-2.1,0.3
	c3.2,2.2,6.4,4.4,9.6,6.6c3.3,2.3,5.4,5.4,3.6,10.4c-1.9,5.2-5.1,4.1-8.4,2c-0.6-0.4-1.1-0.7-1.7-1.1c-16.2-10.8-17.2-10.6-31.4,6
	c3.6,2.4,7.5,4.1,10.3,7.2c1.9,2.1,3.8,6.8,3.3,9.5c-1,5.4-4.6,4.8-8,2.5c-0.7-0.5-1.5-1-2.2-1.5c-15.4-10-19.5-9.1-32.6,7.2
	c3.5,2.3,6.8,4.4,10,6.6c3.4,2.3,6.2,5.3,4.1,10.7c-2.1,5.5-5.6,3.9-9,1.7c-2-1.4-4.2-2.5-6.1-4.1c-6.6-5.6-12.8-7.6-19,0.5
	c-2.8,3.7-6.6,5-9.3-0.9c-2.4-5.3,0.3-8.4,3.4-11c0.8-0.7,1.7-1.3,3.5-2.5c-6.9-4.6-13.2-9-19.7-12.9c-1.2-0.7-3.3,0.7-4.7,1.6
	c-2.5,1.7-4.7,4.6-7.3,5.5c-2.1,0.7-5.8,0.1-6.6-1.6c-1-2.2-0.3-6.3,0.5-9.2C191.5,169.7,193.6,168.6,195.6,166.4z M258.1,163.2
	c-7.1-4.7-13.2-8.7-19.3-12.6c-0.8-0.5-2.2-0.9-2.9-0.4c-5.9,4.8-11.6,9.8-18.3,15.5c7.4,4.8,13.5,8.8,19.6,12.6
	c0.8,0.5,2.2,0.7,2.9,0.1C245.9,173.7,251.6,168.8,258.1,163.2z M285.7,139.2c-7.2-4.9-14.5-9.7-21.7-14.6
	c-5.6,5.4-11.3,10.8-16.9,16.2c7,4.8,14,9.6,21,14.4C274,149.9,279.9,144.6,285.7,139.2z"/>
<path class="st1" d="M136,242.8c2.6-3.9,5-6.8,6.5-10.1c1.3-2.7,1.3-6,2.3-8.9c0.8-2.6,1.4-6.2,3.3-7.5c3.3-2.2,3.9-4.7,3.9-8.2
	c-0.1-12.4,10-18.5,20.8-12.4c24.2,13.7,48.3,27.8,72.4,41.8c0.5,0.3,1.3,0.4,1.6,0.9c2.9,4.9,5.7,9.8,8.6,14.7c0.6,1,1,2.2,1.9,2.9
	c8.1,6.8,7.3,15.7-1.8,20.9c-10,5.7-20,11.3-29.8,17.2c-3.5,2.1-6.2,2.1-9.6,0.2c-24.7-14.2-49.5-28.2-74.1-42.6
	C139.5,250.2,138.4,246.5,136,242.8z M242.9,238.9c-6.6-3.8-12.7-7.4-18.9-10.9c-17.1-9.7-34.3-19.1-51.2-29.1
	c-7.9-4.6-9.4-4.8-15.7,2.6c22.9,13.2,46,26.1,68.6,39.7C232.3,245.2,237.1,244.9,242.9,238.9z M224.8,274.6c1.7-6,0.5-9.5-4.9-12.4
	c-20.5-11.3-40.7-23.1-61-34.7c-3.5-2-7-3.9-10.9-6c-1.9,5.5-1.3,8.6,3.5,11.3c20.3,11.3,40.3,23,60.5,34.5
	C216.1,269.8,220.3,272.1,224.8,274.6z M155.1,203.8c-1.2,5.4-1,8.6,3.7,11.2c23.4,13.2,46.5,26.8,69.7,40.2
	c0.9,0.5,2.1,0.6,3.3,0.9c1-8.2,1-8.2-5.5-12c-7.1-4.1-14.2-8.2-21.3-12.3C188.6,222.6,172.2,213.4,155.1,203.8z M141,239
	c-2,6.5,0,9.7,4.9,12.4c20.2,11.3,40.2,23,60.3,34.5c3.8,2.1,7.6,4.1,11.6,6.2c1.8-6.1,0.2-9.4-4.9-12.1
	c-12.1-6.4-23.9-13.5-35.8-20.3C165.2,252.9,153.3,246.1,141,239z M224.2,277.6c-0.8-0.7-1.3-1.2-1.8-1.5
	c-24-13.8-48.1-27.5-72-41.3c-3.8-2.2-6-0.8-8.3,2.1c24.5,14,48.7,27.7,72.8,41.7C218.4,280.7,221.2,281.3,224.2,277.6z
	 M230.6,261.8c0-0.9,0-1.8,0-2.7c-22-12.6-44.1-25.3-66.2-37.9c-2.5-1.4-5-3-7.7-3.8c-2.1-0.6-4.6-0.1-8.1-0.1
	c1.6,1.7,1.9,2.3,2.4,2.6c24.1,14,48.2,28,72.4,41.8C225.3,262.6,228.2,261.8,230.6,261.8z M235,285.2c11.9-5,12.7-6.3,10.4-15.8
	C234,274.1,234,274.1,235,285.2z M245.5,241.6c-11.9,5.5-12.9,7.1-9.7,15.7C246.8,252.4,247.3,251.6,245.5,241.6z M248.9,277.2
	c11.4-4.7,12.9-7.2,9.9-15.6C248.1,266.1,247.5,266.9,248.9,277.2z M228.2,275c10.6-3.1,11.9-5.1,10.2-15.1
	C227.6,263.6,226.4,265.4,228.2,275z M221.2,293c10.8-4.7,13-5.1,10-15.5C220.6,282.2,220.6,282.2,221.2,293z M241.9,267.2
	c11.1-4,11.9-5.2,10.4-15C242,254.8,240.6,256.7,241.9,267.2z"/>
<path class="st1" d="M347.1,186.1c7,15,16.4,29.4,19.8,44.1c3.5,14.9,1.4,30.3,1.3,45.5c0,1.6-2.8,3.9-5.5,4.7
	c-16.1,5.2-32.8,9.8-48.6,15.2c-7,2.4-10.5,0.9-13.8-1.8c-5.7-4.6-12.1-8.2-23.7-7.4c-1.8,0.1-6-2.4-6-3.7
	c-0.2-15.4-0.1-30.8,0.7-46.2c0.2-3.3,2.6-6.8,5.4-9.9c5.8-6.4,12.3-12.6,10.5-20.3c-0.3-1.3,1.4-3.4,3.3-4
	c17.9-5.6,36.1-10.9,54.2-16.2C345.9,185.9,347.5,186.1,347.1,186.1z M290,216.8c25.8,24.2,18.3,50.7,19.9,77.6
	c17-5.3,32.1-9.8,46.4-14.8c3.8-1.4,7.4-4.7,7.5-7.1c0.7-12.7,0.5-25.4,0.3-38.2c-0.2-12.1-10-22.8-17-34.5
	C327.9,205.5,310.2,210.8,290,216.8z M287.3,284.5c0-20.8,0-41,0.1-61.2c-1.2,0-2.4,0-3.7,0c-17.6,19.7-5.8,40.7-10,61.2
	C280,284.5,283.7,284.5,287.3,284.5z M305.8,292.1c-3-21.9,6.2-43.2-12.3-63.1c-0.9,1.5-0.9,3-0.9,4.5c0.2,15,0.9,30,0.5,44.9
	C293,283.8,295.3,288,305.8,292.1z M291.2,211.7c0.8,0.6,1.7,1.3,2.5,1.9c4.3-2.1,8.6-4.3,12.8-6.5c6.4-3.4,12.1-6.9,23-5.8
	c4.2,0.4,9.5-2.1,15.8-3.7c-3.7-0.2-5.3-0.3-5.6-0.4c2.5-2.3,5-4.6,7.5-6.9c-1-0.5-2.1-0.9-3.1-1.4c-16.2,4.9-32.6,9.7-48.6,14.8
	c-2.5,0.8-3.7,2.9-6,4.7c4.1,0.4,6.3,0.5,11.4,1C295.7,210.7,293.4,211.2,291.2,211.7z"/>
<path class="st1" d="M290,216.8c20.2-6,37.9-11.3,57-17.1c7,11.7,16.9,22.3,17.1,34.5c0.2,12.7,0.5,25.5-0.2,38.2
	c-0.1,2.5-3.7,5.8-7.5,7.1c-14.3,5.1-29.4,9.5-46.4,14.9C308.4,267.5,315.8,241,290,216.8z M320.2,269.9c-1.8,1.1-3.6,2.2-5.5,3.3
	c0.5,0.4,1,0.8,1.6,1.2c14.6-4.4,29.1-8.8,43.7-13.2c-0.5-0.5-1-1.1-1.5-1.6c-3.8,0.7-7.6,1.4-11.4,2c4.1-1.8,8.3-3.6,12.4-5.3
	c-0.5-0.4-1.1-0.9-1.6-1.3c-14.7,4.5-29.3,9-44,13.5c0.3,0.5,0.7,0.9,1,1.4C316.7,269.8,318.5,269.8,320.2,269.9z M313.9,265.5
	c16-4.8,29.9-9,43.7-13.3c1.3-0.4,2.3-1.6,2.4-2.5c0.2-4.2,0.1-8.4,0.1-13.9c-16,4.8-30,8.9-43.8,13.2c-1.5,0.5-2.3,2.1-2.4,3.2
	C313.8,256.2,313.9,260.2,313.9,265.5z M314,276.9c0.7,0.6,1.5,1.2,2.2,1.8c14.7-4.5,29.4-9,44.1-13.5c-0.6-0.6-1.3-1.2-1.9-1.8
	C343.6,268,328.8,272.4,314,276.9z"/>
<path class="st1" d="M320.2,269.9c-1.7-0.1-3.5-0.1-5.2-0.2c-0.3-0.5-0.7-0.9-1-1.4c14.7-4.5,29.3-9,44-13.5
	c0.5,0.4,1.1,0.9,1.6,1.3c-4.1,1.8-8.3,3.6-12.4,5.3C338.2,264.3,329.2,267.1,320.2,269.9z"/>
</svg>
