<?xml version="1.0" encoding="utf-8"?>
<!-- Generator: Adobe Illustrator 22.1.0, SVG Export Plug-In . SVG Version: 6.00 Build 0)  -->
<svg version="1.1" id="Calque_1" xmlns="http://www.w3.org/2000/svg" xmlns:xlink="http://www.w3.org/1999/xlink" x="0px" y="0px"
	 viewBox="0 0 500 500" style="enable-background:new 0 0 500 500;" xml:space="preserve">
<style type="text/css">
	.st0{fill:#EAEAEA;}
	.st1{fill:#8C8C8C;}
	.st2{fill:none;}
	.st3{fill:#6B6B6B;}
	.st4{font-family:'HelveticaNeue-CondensedBold';}
	.st5{font-size:54px;}
	.st6{fill:#FFFFFF;}
	.st7{fill:#EAEAEA;stroke:#8C8C8C;stroke-width:7;stroke-miterlimit:10;}
	.st8{fill:#070707;}
	.st9{fill:none;stroke:#8C8C8C;stroke-width:7;stroke-miterlimit:10;}
	.st10{fill:none;stroke:#8C8C8C;stroke-width:10;stroke-miterlimit:10;}
	.st11{fill:#8C8C8C;stroke:#8C8C8C;stroke-width:3;stroke-miterlimit:10;}
	.st12{fill:none;stroke:#8C8C8C;stroke-width:8;stroke-miterlimit:10;}
	.st13{fill:none;stroke:#8E8E8E;stroke-width:6;stroke-miterlimit:10;}
	.st14{fill:#8E8E8E;}
	.st15{fill:#505050;}
	.st16{fill:none;stroke:#8E8E8E;stroke-width:2;stroke-miterlimit:10;}
	.st17{fill:#8C8C8C;stroke:#8C8C8C;stroke-width:2;stroke-miterlimit:10;}
	.st18{fill:#8C8C8C;stroke:#FFFFFF;stroke-width:2;stroke-miterlimit:10;}
	.st19{fill:none;stroke:#FFFFFF;stroke-width:2;stroke-miterlimit:10;}
	.st20{fill:none;stroke:#8C8C8C;stroke-miterlimit:10;}
	.st21{fill:none;stroke:#8C8C8C;stroke-width:13;stroke-miterlimit:10;}
	.st22{fill:#EAEAEA;stroke:#8C8C8C;stroke-width:8;stroke-miterlimit:10;}
	.st23{fill:none;stroke:#8C8C8C;stroke-width:4;stroke-miterlimit:10;}
	.st24{fill:#8C8C8C;stroke:#8C8C8C;stroke-width:0.75;stroke-miterlimit:10;}
	.st25{fill:none;stroke:#8C8C8C;stroke-width:9;stroke-miterlimit:10;}
	.st26{fill:#8C8C8C;stroke:#8C8C8C;stroke-width:0.5;stroke-miterlimit:10;}
	.st27{stroke:#8C8C8C;stroke-width:8;stroke-miterlimit:10;}
	.st28{fill:#8C8C8C;stroke:#8C8C8C;stroke-miterlimit:10;}
	.st29{fill:none;stroke:#8C8C8C;stroke-width:11;stroke-miterlimit:10;}
	.st30{fill:none;stroke:#8C8C8C;stroke-width:6;stroke-miterlimit:10;}
	.st31{stroke:#8C8C8C;stroke-width:6;stroke-miterlimit:10;}
	.st32{fill:#8C8C8C;stroke:#8C8C8C;stroke-width:4;stroke-miterlimit:10;}
	.st33{fill:#8C8C8C;stroke:#8C8C8C;stroke-width:1.05;stroke-miterlimit:10;}
	.st34{fill:#D6D6D6;}
	.st35{fill:none;stroke:#EAEAEA;stroke-width:5;stroke-miterlimit:10;}
	.st36{fill:#8C8C8C;stroke:#8C8C8C;stroke-width:10;stroke-miterlimit:10;}
	.st37{fill:none;stroke:#CECECE;stroke-width:2;stroke-miterlimit:10;}
	.st38{fill:none;stroke:#FFFFFF;stroke-width:4;stroke-miterlimit:10;}
	.st39{fill-rule:evenodd;clip-rule:evenodd;fill:#8C8C8C;}
	.st40{fill:#8C8C8C;stroke:#8C8C8C;stroke-width:8;stroke-miterlimit:10;}
	.st41{fill:#8C8C8C;stroke:#8C8C8C;stroke-width:7;stroke-miterlimit:10;}
	.st42{fill:#DBDBDB;stroke:#8C8C8C;stroke-width:7;stroke-miterlimit:10;}
	.st43{fill:none;stroke:#8C8C8C;stroke-width:5;stroke-miterlimit:10;}
	.st44{fill:none;stroke:#8C8C8C;stroke-width:3;stroke-miterlimit:10;}
	.st45{clip-path:url(#SVGID_2_);fill:#8C8C8C;}
	.st46{clip-path:url(#SVGID_2_);fill:none;stroke:#8C8C8C;stroke-width:8;stroke-miterlimit:10;}
	.st47{clip-path:url(#SVGID_2_);fill:#FFFFFF;}
	.st48{clip-path:url(#SVGID_2_);fill:#EAEAEA;}
	.st49{clip-path:url(#SVGID_2_);fill:none;stroke:#8C8C8C;stroke-miterlimit:10;}
	.st50{fill:none;stroke:#FFFFFF;stroke-width:0.75;stroke-miterlimit:10;}
	.st51{fill:none;stroke:#8C8C8C;stroke-width:14;stroke-miterlimit:10;}
	.st52{fill:none;stroke:#EAEAEA;stroke-width:2;stroke-miterlimit:10;}
	.st53{fill:none;stroke:#8C8C8C;stroke-width:2;stroke-miterlimit:10;}
</style>
<rect x="-1" y="-1" class="st0" width="500" height="500"/>
<g>
	<polygon class="st2" points="499,507 -1,507 -1,363 290.9,363 499,363 	"/>
	<text transform="matrix(1 0 0 1 128.6089 401.5557)"><tspan x="0" y="0" class="st3 st4 st5">Matériel de </tspan><tspan x="31" y="64.8" class="st3 st4 st5">broderie</tspan></text>
</g>
<g>
	<path class="st1" d="M259.9,203.1h-48.7c-6.1,0-11.5,4.1-13.1,10l-3.7,13.8c-1.2,4.4-5.2,7.5-9.8,7.5h-31.2c-2.7,0-5.1-1.1-6.9-3.1
		c-1.8-2-2.7-4.5-2.4-7.2l4.5-47.1c0.9-9.6,8.9-16.8,18.5-16.8h21.3c1.7,0,3.1-1.4,3.1-3.1c0-1.7-1.4-3.1-3.1-3.1h-15.1v-7.6
		c0-1.7-1.4-3.1-3.1-3.1s-3.1,1.4-3.1,3.1v7.6c-12.9,0-23.5,9.7-24.7,22.5l-4.5,47.1c-0.4,4.4,1,8.7,4,12s7.2,5.1,11.6,5.1h1.5v5.7
		c0,4.3,3.5,7.8,7.8,7.8h3.5v15.6h-39.2c-1.7,0-3.1,1.4-3.1,3.1v22.9c0,10.4,8.4,18.8,18.8,18.8h20.4c1.7,0,3.1-1.4,3.1-3.1
		c0-1.7-1.4-3.1-3.1-3.1h-20.4c-6.9,0-12.5-5.6-12.5-12.5V276h17.1v8c0,1.7,1.4,3.1,3.1,3.1h39.4c1.7,0,3.1-1.4,3.1-3.1v-8h30.6
		v-6.3h-51v-15.6h3.5c4.3,0,7.8-3.5,7.8-7.8v-5.7h0.7c7.4,0,13.9-5,15.9-12.1l3.7-13.8c0.9-3.2,3.7-5.4,7-5.4h48.7
		c3.4,0,6.2,2.8,6.2,6.2v48c0,3.4-2.8,6.2-6.2,6.2h-10.3c-1.7,0-3.1,1.4-3.1,3.1c0,1.7,1.4,3.1,3.1,3.1h10.3
		c6.9,0,12.5-5.6,12.5-12.5v-48C272.4,208.7,266.8,203.1,259.9,203.1z M186.8,276v4.9h-33.2V276H186.8z M177.7,246.3
		c0,0.9-0.7,1.6-1.6,1.6h-13.3c-0.9,0-1.6-0.7-1.6-1.6v-5.7h16.4V246.3z"/>
	<path class="st1" d="M247.9,269.7H213v6.3h34.8c6.5,0,11.8-1.4,11.8-3.1C259.7,271.1,254.4,269.7,247.9,269.7z"/>
	<path class="st1" d="M307.6,154h-3.8v-22.1c0-1.7-1.6-3.1-3.6-3.1h-6.6v-4.1c0-1.7-1.6-3.1-3.6-3.1s-3.6,1.4-3.6,3.1v4.1h-6.6
		c-2,0-3.6,1.4-3.6,3.1V154h-95.1c-2,0-3.6,1.4-3.6,3.1c0,1.7,1.6,3.1,3.6,3.1h126.4c11.7,0,21.3,8.3,21.3,18.6v117
		c0,6.9-6.4,12.5-14.4,12.5H152.2c-2,0-3.6,1.4-3.6,3.1s1.6,3.1,3.6,3.1h162.3c11.9,0,21.5-8.4,21.5-18.8v-117
		C336,165.1,323.2,154,307.6,154z"/>
	<path class="st1" d="M300.7,202.4c-11.4,0-20.7,9.3-20.7,20.7c0,11.4,9.3,20.7,20.7,20.7s20.7-9.3,20.7-20.7
		S312.1,202.4,300.7,202.4z M300.7,235.4c-6.8,0-12.3-5.5-12.3-12.3c0-6.8,5.5-12.3,12.3-12.3s12.3,5.5,12.3,12.3
		C313,229.9,307.5,235.4,300.7,235.4z"/>
</g>
</svg>
