<?xml version="1.0" encoding="utf-8"?>
<!-- Generator: Adobe Illustrator 22.1.0, SVG Export Plug-In . SVG Version: 6.00 Build 0)  -->
<svg version="1.1" id="Calque_1" xmlns="http://www.w3.org/2000/svg" xmlns:xlink="http://www.w3.org/1999/xlink" x="0px" y="0px"
	 viewBox="0 0 500 500" style="enable-background:new 0 0 500 500;" xml:space="preserve">
<style type="text/css">
	.st0{fill:#EAEAEA;}
	.st1{fill:#8C8C8C;}
	.st2{fill:#FFFFFF;}
	.st3{fill:#EAEAEA;stroke:#8C8C8C;stroke-width:7;stroke-miterlimit:10;}
	.st4{fill:#070707;}
	.st5{fill:none;stroke:#8C8C8C;stroke-width:7;stroke-miterlimit:10;}
	.st6{fill:none;stroke:#8C8C8C;stroke-width:10;stroke-miterlimit:10;}
	.st7{fill:#8C8C8C;stroke:#8C8C8C;stroke-width:3;stroke-miterlimit:10;}
	.st8{fill:none;stroke:#8C8C8C;stroke-width:8;stroke-miterlimit:10;}
	.st9{fill:none;stroke:#8E8E8E;stroke-width:6;stroke-miterlimit:10;}
	.st10{fill:#8E8E8E;}
	.st11{fill:#505050;}
	.st12{fill:none;stroke:#8E8E8E;stroke-width:2;stroke-miterlimit:10;}
	.st13{fill:#8C8C8C;stroke:#8C8C8C;stroke-width:2;stroke-miterlimit:10;}
	.st14{fill:#8C8C8C;stroke:#FFFFFF;stroke-width:2;stroke-miterlimit:10;}
	.st15{fill:none;stroke:#FFFFFF;stroke-width:2;stroke-miterlimit:10;}
	.st16{fill:none;stroke:#8C8C8C;stroke-miterlimit:10;}
	.st17{fill:none;stroke:#8C8C8C;stroke-width:13;stroke-miterlimit:10;}
	.st18{fill:#EAEAEA;stroke:#8C8C8C;stroke-width:8;stroke-miterlimit:10;}
	.st19{fill:none;stroke:#8C8C8C;stroke-width:4;stroke-miterlimit:10;}
	.st20{fill:#8C8C8C;stroke:#8C8C8C;stroke-width:0.75;stroke-miterlimit:10;}
	.st21{fill:none;stroke:#8C8C8C;stroke-width:9;stroke-miterlimit:10;}
	.st22{fill:#8C8C8C;stroke:#8C8C8C;stroke-width:0.5;stroke-miterlimit:10;}
	.st23{fill:#6B6B6B;}
	.st24{fill:none;}
	.st25{stroke:#8C8C8C;stroke-width:8;stroke-miterlimit:10;}
	.st26{fill:#8C8C8C;stroke:#8C8C8C;stroke-miterlimit:10;}
	.st27{fill:none;stroke:#8C8C8C;stroke-width:11;stroke-miterlimit:10;}
	.st28{fill:none;stroke:#8C8C8C;stroke-width:6;stroke-miterlimit:10;}
	.st29{stroke:#8C8C8C;stroke-width:6;stroke-miterlimit:10;}
	.st30{fill:#8C8C8C;stroke:#8C8C8C;stroke-width:4;stroke-miterlimit:10;}
	.st31{fill:#8C8C8C;stroke:#8C8C8C;stroke-width:1.05;stroke-miterlimit:10;}
	.st32{fill:#D6D6D6;}
	.st33{fill:none;stroke:#EAEAEA;stroke-width:5;stroke-miterlimit:10;}
	.st34{fill:#8C8C8C;stroke:#8C8C8C;stroke-width:10;stroke-miterlimit:10;}
	.st35{font-family:'HelveticaNeue-CondensedBold';}
	.st36{font-size:54px;}
	.st37{fill:none;stroke:#CECECE;stroke-width:2;stroke-miterlimit:10;}
	.st38{fill:none;stroke:#FFFFFF;stroke-width:4;stroke-miterlimit:10;}
	.st39{fill-rule:evenodd;clip-rule:evenodd;fill:#8C8C8C;}
	.st40{fill:#8C8C8C;stroke:#8C8C8C;stroke-width:8;stroke-miterlimit:10;}
	.st41{fill:#8C8C8C;stroke:#8C8C8C;stroke-width:7;stroke-miterlimit:10;}
	.st42{fill:#DBDBDB;stroke:#8C8C8C;stroke-width:7;stroke-miterlimit:10;}
	.st43{fill:none;stroke:#8C8C8C;stroke-width:5;stroke-miterlimit:10;}
	.st44{fill:none;stroke:#8C8C8C;stroke-width:3;stroke-miterlimit:10;}
	.st45{clip-path:url(#SVGID_2_);fill:#8C8C8C;}
	.st46{clip-path:url(#SVGID_2_);fill:none;stroke:#8C8C8C;stroke-width:8;stroke-miterlimit:10;}
	.st47{clip-path:url(#SVGID_2_);fill:#FFFFFF;}
	.st48{clip-path:url(#SVGID_2_);fill:#EAEAEA;}
	.st49{clip-path:url(#SVGID_2_);fill:none;stroke:#8C8C8C;stroke-miterlimit:10;}
	.st50{fill:none;stroke:#FFFFFF;stroke-width:0.75;stroke-miterlimit:10;}
	.st51{fill:none;stroke:#8C8C8C;stroke-width:14;stroke-miterlimit:10;}
	.st52{fill:none;stroke:#EAEAEA;stroke-width:2;stroke-miterlimit:10;}
	.st53{fill:none;stroke:#8C8C8C;stroke-width:2;stroke-miterlimit:10;}
</style>
<rect x="-4" y="-3" class="st0" width="500" height="500"/>
<g id="N2Km1Q.tif">
	<g>
		<path class="st30" d="M274.2,135.5c0,4.7,0,8.8,0,13.5c-4.1,0-8,0-12.1,0c0-4.7,0-8.9,0-13.5C266,135.5,269.7,135.5,274.2,135.5z"
			/>
		<path class="st30" d="M293.3,73.4c3.2,3.2,5.8,5.9,9,9c-4.4,3.7-7.9,6.6-11.3,9.4c-2.3-2.1-5.1-4.8-8-7.6
			C286.1,80.9,289.2,77.7,293.3,73.4z"/>
		<path class="st30" d="M301.8,132.5c-10,10.8-7.6,11.4-18.1-0.7c2.9-2.7,5.7-5.4,8.8-8.2C294.9,125.9,298.2,129,301.8,132.5z"/>
		<path class="st30" d="M234,82.5c3.1-3.1,5.7-5.8,8.8-8.9c3.8,4.2,6.9,7.5,10,10.9c-2.5,2.4-5.3,5.2-8.3,8.2
			C241.3,89.6,238,86.4,234,82.5z"/>
		<path class="st30" d="M262.3,66.7c3.9,0,7.5,0,11.6,0c0,4.3,0,8.6,0,13.4c-3.7,0-7.5,0-11.6,0C262.3,75.8,262.3,71.4,262.3,66.7z"
			/>
		<path class="st30" d="M240.8,102.1c0,4.2,0,7.6,0,11c-12.8,3.7-15.4,1.6-13.2-11C231.7,102.1,236,102.1,240.8,102.1z"/>
		<path class="st30" d="M235.1,132.8c3.3-3.6,6.2-6.9,9.2-10.1c2.9,3.2,5.5,5.9,8.2,8.8C242.3,144,243.2,142.6,235.1,132.8z"/>
		<path class="st30" d="M295.4,114.7c0-5,0-8.6,0-13.5c4.7,0.6,9.4,0.4,13.3,2.1c1.2,0.5,1.3,8.3,0,9
			C305,114.1,300.4,113.9,295.4,114.7z"/>
	</g>
</g>
<circle class="st19" cx="268.2" cy="107.6" r="42.6"/>
<circle class="st19" cx="267.6" cy="108.1" r="26.8"/>
<path class="st19" d="M310.8,101c8.9,34.2,17.9,68.5,26.8,102.7H193c11.1-34.2,22.2-68.5,33.4-102.7"/>
<line class="st30" x1="200" y1="183.9" x2="329.4" y2="183.9"/>
<path class="st26" d="M242.8,312.1c-1.7,7-4.6,9.3-11.8,9.3c-53.4,0-106.9,0-160.3,0.1c-2.9,0-5.9,0.6-8.7,1.4
	c-4.8,1.4-8.7,0.2-12.1-4.6c-5.8-8.2-6.6-17.5-6.3-27.1c0.3-7.5,2.9-14.3,7.1-20c1.8-2.5,6.5-4.1,9.9-4.1c7,0,13.9,1.9,20.9,2.2
	c10.2,0.4,20.4,0.1,30.5,0c14.1-0.1,28.2-0.1,42.3-0.4c4.2-0.1,6.6,1.1,9.2,4.8c17.6,25.5,41.5,39.2,73,38.2c1.8-0.1,3.7,0,5.5,0
	C242.2,311.8,242.5,312,242.8,312.1z"/>
<line class="st34" x1="54" y1="271.5" x2="237" y2="271.5"/>
<path class="st30" d="M454,315.9c-1,1.4-1.6,2.3-2.4,3.4c-0.9-0.9-1.5-1.3-2-2c-9.5-13.2-18.9-26.4-28.5-39.5
	c-1.1-1.5-3-2.8-4.6-2.8c-23.9-0.1-47.8,0.2-71.7,0.2c-8.7,0-17.5-0.3-26.2,0c-2,0.1-4.4,1.7-5.8,3.6c-9.3,12.5-18.3,25.4-27.4,38.1
	c-0.5,0.7-1.1,1.3-1.8,2.1c-0.9-1-1.6-1.9-2.5-2.9c0.2-0.6,0.4-1.1,0.6-1.4c10-14.1,20-28.2,30.2-42.1c1.1-1.5,3.1-2.6,4.6-2.6
	c33.8-0.2,67.7-0.2,101.5-0.1c1.5,0,3.4,0.8,4.4,2.3C432.9,286.5,443.2,300.9,454,315.9z"/>
<path class="st30" d="M328.5,286.5c7.8-1.5,8.1-1.3,8.1,5.7c0,6.7,0,13.3-0.1,20c0,1.4,0,3.3-0.9,4.2c-1.4,1.5-3.4,2.3-5.1,3.4
	c-0.7-2-1.9-4-2-6C328.3,304.6,328.5,295.5,328.5,286.5z"/>
<path class="st30" d="M411.4,319.3c-3.6,1.3-5.6-2.1-5.7-4.8c-0.5-9.4-0.2-18.8-0.2-28.2c5.8-1.1,5.9-1.1,5.9,6.3
	C411.4,301.3,411.4,310.1,411.4,319.3z"/>
<g>
	<rect x="2" y="371" class="st24" width="500" height="132"/>
	<text transform="matrix(1 0 0 1 91.7046 409.5557)" class="st23 st35 st36">Matériel agility</text>
</g>
</svg>
