<?xml version="1.0" encoding="utf-8"?>
<!-- Generator: Adobe Illustrator 22.1.0, SVG Export Plug-In . SVG Version: 6.00 Build 0)  -->
<svg version="1.1" id="Calque_1" xmlns="http://www.w3.org/2000/svg" xmlns:xlink="http://www.w3.org/1999/xlink" x="0px" y="0px"
	 viewBox="0 0 500 500" style="enable-background:new 0 0 500 500;" xml:space="preserve">
<style type="text/css">
	.st0{fill:#EAEAEA;}
	.st1{fill:#8C8C8C;}
	.st2{fill:#FFFFFF;}
	.st3{fill:#EAEAEA;stroke:#8C8C8C;stroke-width:7;stroke-miterlimit:10;}
	.st4{fill:#070707;}
	.st5{fill:none;stroke:#8C8C8C;stroke-width:7;stroke-miterlimit:10;}
	.st6{fill:none;stroke:#8C8C8C;stroke-width:10;stroke-miterlimit:10;}
	.st7{fill:#8C8C8C;stroke:#8C8C8C;stroke-width:3;stroke-miterlimit:10;}
	.st8{fill:none;stroke:#8C8C8C;stroke-width:8;stroke-miterlimit:10;}
	.st9{fill:none;stroke:#8E8E8E;stroke-width:6;stroke-miterlimit:10;}
	.st10{fill:#8E8E8E;}
	.st11{fill:#505050;}
	.st12{fill:none;stroke:#8E8E8E;stroke-width:2;stroke-miterlimit:10;}
	.st13{fill:#8C8C8C;stroke:#8C8C8C;stroke-width:2;stroke-miterlimit:10;}
	.st14{fill:#8C8C8C;stroke:#FFFFFF;stroke-width:2;stroke-miterlimit:10;}
	.st15{fill:none;stroke:#FFFFFF;stroke-width:2;stroke-miterlimit:10;}
	.st16{fill:none;stroke:#8C8C8C;stroke-miterlimit:10;}
	.st17{fill:none;stroke:#8C8C8C;stroke-width:13;stroke-miterlimit:10;}
	.st18{fill:#EAEAEA;stroke:#8C8C8C;stroke-width:8;stroke-miterlimit:10;}
	.st19{fill:none;stroke:#8C8C8C;stroke-width:4;stroke-miterlimit:10;}
	.st20{fill:#8C8C8C;stroke:#8C8C8C;stroke-width:0.75;stroke-miterlimit:10;}
	.st21{fill:none;stroke:#8C8C8C;stroke-width:9;stroke-miterlimit:10;}
	.st22{fill:#8C8C8C;stroke:#8C8C8C;stroke-width:0.5;stroke-miterlimit:10;}
	.st23{fill:none;}
	.st24{fill:#6B6B6B;}
	.st25{font-family:'HelveticaNeue-CondensedBold';}
	.st26{font-size:54px;}
	.st27{stroke:#8C8C8C;stroke-width:8;stroke-miterlimit:10;}
	.st28{fill:#8C8C8C;stroke:#8C8C8C;stroke-miterlimit:10;}
	.st29{fill:none;stroke:#8C8C8C;stroke-width:11;stroke-miterlimit:10;}
	.st30{fill:none;stroke:#8C8C8C;stroke-width:6;stroke-miterlimit:10;}
	.st31{stroke:#8C8C8C;stroke-width:6;stroke-miterlimit:10;}
	.st32{fill:#8C8C8C;stroke:#8C8C8C;stroke-width:4;stroke-miterlimit:10;}
	.st33{fill:#8C8C8C;stroke:#8C8C8C;stroke-width:1.05;stroke-miterlimit:10;}
	.st34{fill:#D6D6D6;}
	.st35{fill:none;stroke:#EAEAEA;stroke-width:5;stroke-miterlimit:10;}
	.st36{fill:#8C8C8C;stroke:#8C8C8C;stroke-width:10;stroke-miterlimit:10;}
	.st37{fill:none;stroke:#CECECE;stroke-width:2;stroke-miterlimit:10;}
	.st38{fill:none;stroke:#FFFFFF;stroke-width:4;stroke-miterlimit:10;}
	.st39{fill-rule:evenodd;clip-rule:evenodd;fill:#8C8C8C;}
	.st40{fill:#8C8C8C;stroke:#8C8C8C;stroke-width:8;stroke-miterlimit:10;}
	.st41{fill:#8C8C8C;stroke:#8C8C8C;stroke-width:7;stroke-miterlimit:10;}
	.st42{fill:#DBDBDB;stroke:#8C8C8C;stroke-width:7;stroke-miterlimit:10;}
	.st43{fill:none;stroke:#8C8C8C;stroke-width:5;stroke-miterlimit:10;}
	.st44{fill:none;stroke:#8C8C8C;stroke-width:3;stroke-miterlimit:10;}
	.st45{clip-path:url(#SVGID_2_);fill:#8C8C8C;}
	.st46{clip-path:url(#SVGID_2_);fill:none;stroke:#8C8C8C;stroke-width:8;stroke-miterlimit:10;}
	.st47{clip-path:url(#SVGID_2_);fill:#FFFFFF;}
	.st48{clip-path:url(#SVGID_2_);fill:#EAEAEA;}
	.st49{clip-path:url(#SVGID_2_);fill:none;stroke:#8C8C8C;stroke-miterlimit:10;}
	.st50{fill:none;stroke:#FFFFFF;stroke-width:0.75;stroke-miterlimit:10;}
	.st51{fill:none;stroke:#8C8C8C;stroke-width:14;stroke-miterlimit:10;}
	.st52{fill:none;stroke:#EAEAEA;stroke-width:2;stroke-miterlimit:10;}
	.st53{fill:none;stroke:#8C8C8C;stroke-width:2;stroke-miterlimit:10;}
</style>
<rect class="st0" width="500" height="500"/>
<g>
	<path class="st1" d="M171,90.6c2,0,3.6-1.6,3.6-3.6c0-2-1.6-3.6-3.6-3.6h-48c-9.4,0-17,7.6-17,17v192.7c0,9.4,7.6,17,17,17h48
		c2,0,3.6-1.6,3.6-3.6c0-2-1.6-3.6-3.6-3.6h-44.4v-6.8H171c2,0,3.6-1.6,3.6-3.6c0-2-1.6-3.6-3.6-3.6h-44.4v-7.5H171
		c2,0,3.6-1.6,3.6-3.6c0-2-1.6-3.6-3.6-3.6h-44.4v-7.5H171c2,0,3.6-1.6,3.6-3.6c0-2-1.6-3.6-3.6-3.6h-44.4V252H171
		c2,0,3.6-1.6,3.6-3.6s-1.6-3.6-3.6-3.6h-44.4v-7.5H171c2,0,3.6-1.6,3.6-3.6S173,230,171,230h-44.4v-7.5H171c2,0,3.6-1.6,3.6-3.6
		s-1.6-3.6-3.6-3.6h-44.4v-7.5H171c2,0,3.6-1.6,3.6-3.6s-1.6-3.6-3.6-3.6h-44.4V193H171c2,0,3.6-1.6,3.6-3.6s-1.6-3.6-3.6-3.6h-44.4
		v-7.5H171c2,0,3.6-1.6,3.6-3.6s-1.6-3.6-3.6-3.6h-44.4v-7.5H171c2,0,3.6-1.6,3.6-3.6s-1.6-3.6-3.6-3.6h-44.4v-7.5H171
		c2,0,3.6-1.6,3.6-3.6s-1.6-3.6-3.6-3.6h-44.4v-7.5H171c2,0,3.6-1.6,3.6-3.6s-1.6-3.6-3.6-3.6h-44.4v-7.5H171c2,0,3.6-1.6,3.6-3.6
		s-1.6-3.6-3.6-3.6h-44.4v-7.5H171c2,0,3.6-1.6,3.6-3.6c0-2-1.6-3.6-3.6-3.6h-44.4v-6.8H171z"/>
</g>
<g>
	<g>
		<path class="st1" d="M352.3,84.1c-3.2-1.7-7-0.8-9.1,2.2l-68.9,93.4l-69.5-93c-2.1-3-5.9-3.9-9.1-2.1c-3.2,1.7-4.6,5.5-3.2,8.9
			c0,0.1,0.1,0.2,0.2,0.3l20.3,39.7c1,1.9,3.3,2.7,5.3,1.7c1.9-1,2.7-3.3,1.7-5.3l-16.1-31.5l112.7,151c0.8,1,1.9,1.6,3.1,1.6
			c0.8,0,1.6-0.3,2.3-0.8c1.7-1.3,2.1-3.7,0.8-5.5l-26.1-34.9l58.8-116.4c0.1-0.1,0.1-0.2,0.2-0.3C356.9,89.5,355.5,85.8,352.3,84.1
			z M291.4,202.7l-12.3-16.5L344.3,98L291.4,202.7z"/>
	</g>
</g>
<g>
	<g>
		<path class="st1" d="M352.7,275c-2.6-3.7-6.5-6.3-11-7.1c-4.5-0.8-9,0.2-12.8,2.8c-7.7,5.4-9.6,16-4.3,23.7
			c3.3,4.8,8.6,7.3,14,7.3c3.4,0,6.7-1,9.7-3C356.1,293.4,358,282.7,352.7,275z M343.9,292.3c-4.2,2.9-9.9,1.9-12.8-2.3
			c-2.9-4.2-1.9-9.9,2.3-12.8c1.6-1.1,3.4-1.6,5.2-1.6c0.6,0,1.1,0,1.7,0.1c2.4,0.4,4.5,1.8,5.9,3.8
			C349.1,283.6,348.1,289.4,343.9,292.3z"/>
	</g>
</g>
<g>
	<g>
		<path class="st1" d="M227.2,281.9c-0.8-4.5-3.4-8.4-7.1-10.9c-3.8-2.6-8.3-3.5-12.8-2.7c-4.5,0.8-8.4,3.4-10.9,7.1
			c-5.3,7.8-3.3,18.4,4.4,23.7c2.9,2,6.2,3,9.6,3c1,0,2.1-0.1,3.2-0.3c4.5-0.8,8.4-3.4,10.9-7.1C227.1,290.9,228,286.4,227.2,281.9z
			 M218,290.3c-1.4,2-3.5,3.4-5.9,3.8c-2.4,0.5-4.9-0.1-6.9-1.5c-4.2-2.9-5.3-8.6-2.4-12.8c1.8-2.6,4.7-4,7.6-4
			c1.8,0,3.6,0.5,5.2,1.6c2,1.4,3.4,3.5,3.8,5.9C219.9,285.8,219.4,288.2,218,290.3z"/>
	</g>
</g>
<g>
	<g>
		<path class="st1" d="M395.7,302.9c-2-2.7-5.1-4.3-8.5-4.5c-5.2-0.3-12.4-1-19.6-3c0.6-1.7,1.1-3.4,1.4-5.2
			c1.5-8.1-0.3-16.3-5-23.1c-8.1-11.7-23.2-16.4-36.5-11.2c-2,0.8-3,3-2.2,5.1c0.8,2,3,3,5.1,2.2c10-3.8,21.2-0.4,27.3,8.4
			c3.5,5.1,4.8,11.2,3.8,17.3c-0.4,2.4-1.2,4.7-2.4,6.8c-0.1,0.2-0.3,0.4-0.4,0.7c-1.7,2.9-4,5.4-6.8,7.4
			c-5.1,3.5-11.2,4.8-17.3,3.8c-6.1-1.1-11.4-4.5-14.9-9.6c-5.9-8.6-5.4-20.1,1.4-28.1c1.3-1.5,1.2-3.7,0-5.1l-42.7-48.6
			c-0.8-0.9-2-1.4-3.2-1.3l-1.2,0.1c-0.6-0.1-1.2-0.1-1.8,0.1l-8.6,0.5c-14.9-29.1-29.7-58.3-44.6-87.4c-0.8-0.2-2.3-0.4-4,0
			c-2,0.4-3.4,1.5-4,2c13.7,26.6,27.3,53.3,41,79.9l-33.5,45.3c-12.6-3.4-26.1,1.4-33.6,12.3c-9.6,14.1-6.1,33.4,8,43
			c5.3,3.7,11.4,5.4,17.5,5.4c9.9,0,19.6-4.7,25.5-13.4c7.3-10.6,7.1-24.5,0-34.9l38.4-44.2l38.7,44c-7.1,10.5-7.1,24.4,0.2,34.9
			c4.7,6.8,11.8,11.3,19.9,12.8c1.9,0.3,3.7,0.5,5.6,0.5c5.1,0,10.1-1.3,14.7-3.7c4.1,3.6,13.6,9.1,33.3,9.1c0,0,0,0,0,0
			c5.2,0,9.9-3.7,11-8.9C398.5,308.9,397.7,305.5,395.7,302.9z M227.9,264.9c-1.3,1.5-1.3,3.6,0,5.1c6.8,7.9,7.4,19.5,1.5,28.1
			c-7.2,10.5-21.6,13.2-32.1,6c-10.5-7.2-13.2-21.6-6-32.1c6-8.8,17.2-12.3,27.2-8.5c1.6,0.6,3.5,0.1,4.5-1.3l32.8-44.5l1.8,3.6
			c0.7,1.4,2.2,2.2,3.7,2.1l2.7-0.1L227.9,264.9z M390.1,310.4c-0.4,1.6-1.8,2.7-3.4,2.7c0,0,0,0,0,0c-15.2,0-23.1-3.6-26.7-6.1
			c1.5-1.4,2.8-2.9,4-4.6c8.3,2.5,16.9,3.4,22.9,3.7c1.1,0.1,2,0.6,2.6,1.4C389.8,308.1,390.4,309.1,390.1,310.4z"/>
	</g>
</g>
<g>
	<rect x="-6" y="359" class="st23" width="520" height="158"/>
	<text transform="matrix(1 0 0 1 77.1528 397.5557)" class="st24 st25 st26">Peigne / ciseaux</text>
</g>
</svg>
