<?xml version="1.0" encoding="utf-8"?>
<!-- Generator: Adobe Illustrator 22.1.0, SVG Export Plug-In . SVG Version: 6.00 Build 0)  -->
<svg version="1.1" id="Calque_1" xmlns="http://www.w3.org/2000/svg" xmlns:xlink="http://www.w3.org/1999/xlink" x="0px" y="0px"
	 viewBox="0 0 500 500" style="enable-background:new 0 0 500 500;" xml:space="preserve">
<style type="text/css">
	.st0{fill:#4FBDD7;}
	.st1{fill:#EAEAEA;}
	.st2{fill:#FFFFFF;}
	.st3{fill:#4FBDD7;stroke:#FFFFFF;stroke-width:5;stroke-miterlimit:10;}
	.st4{fill:#8C8C8C;}
	.st5{fill:#070707;}
	.st6{fill:none;stroke:#FFFFFF;stroke-width:7;stroke-miterlimit:10;}
	.st7{fill:none;stroke:#FFFFFF;stroke-width:10;stroke-miterlimit:10;}
	.st8{fill:#FFFFFF;stroke:#FFFFFF;stroke-width:3;stroke-miterlimit:10;}
	.st9{fill:none;stroke:#FDFFFF;stroke-width:6;stroke-miterlimit:10;}
	.st10{fill:#FAFEFF;}
	.st11{fill:none;stroke:#FFFFFF;stroke-width:2;stroke-miterlimit:10;}
	.st12{fill:#FFFFFF;stroke:#FFFFFF;stroke-width:2;stroke-miterlimit:10;}
	.st13{fill:#4FBDD7;stroke:#FFFFFF;stroke-width:4;stroke-miterlimit:10;}
	.st14{fill:#FFFFFF;stroke:#FFFFFF;stroke-width:4;stroke-miterlimit:10;}
	.st15{fill:none;stroke:#FFFFFF;stroke-miterlimit:10;}
	.st16{fill:#FFFFFF;stroke:#FFFFFF;stroke-width:13;stroke-miterlimit:10;}
	.st17{fill:#4FBDD7;stroke:#FFFFFF;stroke-width:8;stroke-miterlimit:10;}
	.st18{fill:#FFFFFF;stroke:#FFFFFF;stroke-width:0.75;stroke-miterlimit:10;}
	.st19{fill:#FFFFFF;stroke:#FFFFFF;stroke-width:0.5;stroke-miterlimit:10;}
	.st20{fill:none;}
	.st21{font-family:'HelveticaNeue-CondensedBold';}
	.st22{font-size:54px;}
	.st23{fill:#FFFFFF;stroke:#FFFFFF;stroke-width:8;stroke-miterlimit:10;}
	.st24{fill:#FFFFFF;stroke:#FFFFFF;stroke-miterlimit:10;}
	.st25{fill:#FFFFFF;stroke:#FFFFFF;stroke-width:11;stroke-miterlimit:10;}
	.st26{fill:#FFFFFF;stroke:#FFFFFF;stroke-width:6;stroke-miterlimit:10;}
	.st27{fill:#8C8C8C;stroke:#8C8C8C;stroke-width:4;stroke-miterlimit:10;}
	.st28{fill:#FFFFFF;stroke:#FFFFFF;stroke-width:1.05;stroke-miterlimit:10;}
	.st29{fill:none;stroke:#4FBDD7;stroke-width:5;stroke-miterlimit:10;}
	.st30{fill:none;stroke:#FFFFFF;stroke-width:4;stroke-miterlimit:10;}
	.st31{fill:#8C8C8C;stroke:#FFFFFF;stroke-width:4;stroke-miterlimit:10;}
	.st32{fill:#FFFFFF;stroke:#FFFFFF;stroke-width:10;stroke-miterlimit:10;}
	.st33{fill:none;stroke:#4FBDD7;stroke-width:2;stroke-miterlimit:10;}
	.st34{fill-rule:evenodd;clip-rule:evenodd;fill:#FFFFFF;}
	.st35{fill:#FFFFFF;stroke:#FFFFFF;stroke-width:7;stroke-miterlimit:10;}
	.st36{fill:#FFFFFF;stroke:#4FBDD7;stroke-width:7;stroke-miterlimit:10;}
	.st37{fill:#FCFCFC;}
	.st38{fill:#FFFFFF;stroke:#FFFFFF;stroke-width:5;stroke-miterlimit:10;}
	.st39{fill:none;stroke:#FFFFFF;stroke-width:3;stroke-miterlimit:10;}
	.st40{fill:none;stroke:#FFFFFF;stroke-width:8;stroke-miterlimit:10;}
	.st41{fill:none;stroke:#FFFFFF;stroke-width:6;stroke-miterlimit:10;}
	.st42{fill:#FFFFFF;stroke:#4FBDD7;stroke-width:3;stroke-miterlimit:10;}
	.st43{fill:none;stroke:#FFFFFF;stroke-width:0.75;stroke-miterlimit:10;}
	.st44{fill:#4FBDD7;stroke:#FFFFFF;stroke-width:9;stroke-miterlimit:10;}
	.st45{fill:none;stroke:#FFFFFF;stroke-width:9;stroke-miterlimit:10;}
	.st46{fill:none;stroke:#4FBDD7;stroke-width:3;stroke-miterlimit:10;}
</style>
<rect x="1" y="-2" class="st0" width="506" height="506"/>
<path class="st2" d="M117.9,211.9c-2.6,0-4.8,2.1-4.8,4.8v47.6c0,2.6,2.1,4.8,4.8,4.8c2.6,0,4.8-2.1,4.8-4.8v-47.6
	C122.6,214.1,120.5,211.9,117.9,211.9z"/>
<path class="st2" d="M378.5,293.3c-0.1-0.2-0.3-0.5-0.4-0.7l-8.1-10.9v-17.5c0-18.4-8.9-35.6-23.8-46.3v-39.4
	c0-19.5-10.8-37.4-28.1-46.4c-17.3-9-38.2-7.6-54.2,3.6h-41.4c-6.3,0-12.4,2.5-16.8,7c-0.7,0.8-1.4,1.6-2.1,2.5h-19.1
	c-1.3,0-2.5-0.5-3.5-1.4c-0.8-0.8-1.3-1.9-1.3-3.1c0-8.9-3.4-17.4-9.7-23.7c-6.2-6.3-14.7-9.8-23.6-9.8h-42.8
	c-5.3,0-9.5,4.3-9.5,9.5v9.5c0,5.3,4.3,9.5,9.5,9.5h42.8c1.3,0,2.5,0.5,3.5,1.4c0.8,0.8,1.3,1.9,1.3,3.1c0,8.9,3.4,17.4,9.7,23.7
	c6.2,6.3,14.7,9.8,23.6,9.8h19.1c4.5,6,11.5,9.5,18.9,9.5h19V218c-1.5,1.1-2.9,2.2-4.3,3.5h-29v-9.5c0-10.5-8.5-19-19-19h-76.1
	c-10.5,0-19,8.5-19,19V269c0,10.5,8.5,19,19,19h76.1c10.5,0,19-8.5,19-19v-9.5h9.8c-0.1,1.6-0.2,3.2-0.2,4.8v17.5l-8.1,10.9
	c-0.2,0.2-0.3,0.5-0.4,0.7c-0.6,1.3-1,2.8-1,4.3H208c0.4,0.7,0.7,1.5,0.8,2.3c6.6-0.2,13.2-0.4,19.7-0.5c10-0.1,20,0.1,30.1,0.2
	c40.2,0.3,80.4,0.3,120.5,0.3C379.7,297.7,379.5,295.4,378.5,293.3z M199.2,164.4h-14.8c-6.3,0-12.4-2.5-16.9-7
	c-4.5-4.5-7-10.6-6.9-16.9c0-3.7-1.4-7.3-4.1-9.9c-2.7-2.7-6.4-4.2-10.2-4.2h-42.8v-9.5h42.8c6.3,0,12.4,2.5,16.9,7
	c4.5,4.5,7,10.6,6.9,16.9c0,3.7,1.4,7.3,4.1,9.9c2.7,2.7,6.4,4.2,10.2,4.2h14.8C198.6,158,198.6,161.2,199.2,164.4z M198.7,269
	c0,5.3-4.3,9.5-9.5,9.5h-76.1c-5.3,0-9.5-4.3-9.5-9.5v-57.1c0-5.3,4.3-9.5,9.5-9.5h76.1c5.3,0,9.5,4.3,9.5,9.5V269z M268.2,144.4
	c17-12.8,40.9-11.1,55.9,4c3.3,3.3,6,7.1,8.1,11.2h-14.5c-2.6,0-4.8,2.1-4.8,4.8c0,2.6,2.1,4.8,4.8,4.8h17.9
	c0.7,3.1,1.1,6.3,1.1,9.5h-19c-2.6,0-4.8,2.1-4.8,4.8c0,2.6,2.1,4.8,4.8,4.8h19v24.3c-7.5-3.5-15.6-5.2-23.8-5.3h-38.1
	c-8.2,0-16.3,1.8-23.8,5.3v-33.8C251.1,165.2,257.5,152.5,268.2,144.4z M222.5,173.9c-7.9,0-14.3-6.4-14.3-14.3
	c0-3.8,1.5-7.4,4.2-10.1c2.7-2.7,6.3-4.2,10.1-4.2h31.1c-6.7,8.1-10.8,18.1-11.7,28.5H222.5z M274.8,216.7h38.1
	c26.3,0,47.5,21.3,47.6,47.6v14.3H227.3v-14.3C227.3,238,248.6,216.7,274.8,216.7z M208.3,250v-19h20.3c-4.1,5.7-7.2,12.2-8.9,19
	H208.3z M217.9,297.6l7.1-9.5h137.9l7.1,9.5H217.9z"/>
<rect x="208.8" y="299.2" class="st2" width="170.7" height="12.1"/>
<g>
	<rect x="-9" y="362" class="st20" width="500" height="144"/>
	<text transform="matrix(1 0 0 1 137.5366 400.5557)" class="st2 st21 st22">Ponceuse</text>
</g>
</svg>
