<?xml version="1.0" encoding="utf-8"?>
<!-- Generator: Adobe Illustrator 22.1.0, SVG Export Plug-In . SVG Version: 6.00 Build 0)  -->
<svg version="1.1" id="Calque_1" xmlns="http://www.w3.org/2000/svg" xmlns:xlink="http://www.w3.org/1999/xlink" x="0px" y="0px"
	 viewBox="0 0 500 500" style="enable-background:new 0 0 500 500;" xml:space="preserve">
<style type="text/css">
	.st0{fill:#4FBDD7;}
	.st1{fill:#EAEAEA;}
	.st2{fill:#FFFFFF;}
	.st3{fill:#4FBDD7;stroke:#FFFFFF;stroke-width:5;stroke-miterlimit:10;}
	.st4{fill:#8C8C8C;}
	.st5{fill:#070707;}
	.st6{fill:none;stroke:#FFFFFF;stroke-width:7;stroke-miterlimit:10;}
	.st7{fill:none;stroke:#FFFFFF;stroke-width:10;stroke-miterlimit:10;}
	.st8{fill:#FFFFFF;stroke:#FFFFFF;stroke-width:3;stroke-miterlimit:10;}
	.st9{fill:none;stroke:#FDFFFF;stroke-width:6;stroke-miterlimit:10;}
	.st10{fill:#FAFEFF;}
	.st11{fill:none;stroke:#FFFFFF;stroke-width:2;stroke-miterlimit:10;}
	.st12{fill:#FFFFFF;stroke:#FFFFFF;stroke-width:2;stroke-miterlimit:10;}
	.st13{fill:#4FBDD7;stroke:#FFFFFF;stroke-width:4;stroke-miterlimit:10;}
	.st14{fill:#FFFFFF;stroke:#FFFFFF;stroke-width:4;stroke-miterlimit:10;}
	.st15{fill:none;stroke:#FFFFFF;stroke-miterlimit:10;}
	.st16{fill:#FFFFFF;stroke:#FFFFFF;stroke-width:13;stroke-miterlimit:10;}
	.st17{fill:#4FBDD7;stroke:#FFFFFF;stroke-width:8;stroke-miterlimit:10;}
	.st18{fill:#FFFFFF;stroke:#FFFFFF;stroke-width:0.75;stroke-miterlimit:10;}
	.st19{fill:#FFFFFF;stroke:#FFFFFF;stroke-width:0.5;stroke-miterlimit:10;}
	.st20{fill:#FFFFFF;stroke:#FFFFFF;stroke-width:8;stroke-miterlimit:10;}
	.st21{fill:#FFFFFF;stroke:#FFFFFF;stroke-miterlimit:10;}
	.st22{fill:#FFFFFF;stroke:#FFFFFF;stroke-width:11;stroke-miterlimit:10;}
	.st23{fill:#FFFFFF;stroke:#FFFFFF;stroke-width:6;stroke-miterlimit:10;}
	.st24{fill:#8C8C8C;stroke:#8C8C8C;stroke-width:4;stroke-miterlimit:10;}
	.st25{fill:#FFFFFF;stroke:#FFFFFF;stroke-width:1.05;stroke-miterlimit:10;}
	.st26{fill:none;stroke:#4FBDD7;stroke-width:5;stroke-miterlimit:10;}
	.st27{fill:none;stroke:#FFFFFF;stroke-width:4;stroke-miterlimit:10;}
	.st28{fill:#8C8C8C;stroke:#FFFFFF;stroke-width:4;stroke-miterlimit:10;}
	.st29{fill:#FFFFFF;stroke:#FFFFFF;stroke-width:10;stroke-miterlimit:10;}
	.st30{fill:none;stroke:#4FBDD7;stroke-width:2;stroke-miterlimit:10;}
	.st31{fill-rule:evenodd;clip-rule:evenodd;fill:#FFFFFF;}
	.st32{fill:#FFFFFF;stroke:#FFFFFF;stroke-width:7;stroke-miterlimit:10;}
	.st33{fill:#FFFFFF;stroke:#4FBDD7;stroke-width:7;stroke-miterlimit:10;}
	.st34{fill:#FCFCFC;}
	.st35{fill:#FFFFFF;stroke:#FFFFFF;stroke-width:5;stroke-miterlimit:10;}
	.st36{fill:none;stroke:#FFFFFF;stroke-width:3;stroke-miterlimit:10;}
	.st37{fill:none;stroke:#FFFFFF;stroke-width:8;stroke-miterlimit:10;}
	.st38{fill:none;stroke:#FFFFFF;stroke-width:6;stroke-miterlimit:10;}
	.st39{fill:#FFFFFF;stroke:#4FBDD7;stroke-width:3;stroke-miterlimit:10;}
	.st40{fill:none;stroke:#FFFFFF;stroke-width:0.75;stroke-miterlimit:10;}
	.st41{fill:none;}
	.st42{font-family:'HelveticaNeue-CondensedBold';}
	.st43{font-size:54px;}
	.st44{fill:#4FBDD7;stroke:#FFFFFF;stroke-width:9;stroke-miterlimit:10;}
	.st45{fill:none;stroke:#FFFFFF;stroke-width:9;stroke-miterlimit:10;}
	.st46{fill:none;stroke:#4FBDD7;stroke-width:3;stroke-miterlimit:10;}
</style>
<rect x="-2" class="st0" width="507" height="500"/>
<g>
	<path class="st2" d="M409.4,230.4H78.6c-1.5,0-2.6,1.2-2.6,2.6v52.5c0,1.5,1.2,2.6,2.6,2.6h330.8c1.5,0,2.6-1.2,2.6-2.6V233
		C412,231.6,410.8,230.4,409.4,230.4 M406.8,282.9H81.2v-47.2h325.5V282.9z"/>
	<path class="st2" d="M356.9,219.9H152.1c-1.5,0-2.6,1.2-2.6,2.6s1.2,2.6,2.6,2.6h204.7c1.5,0,2.6-1.2,2.6-2.6
		S358.3,219.9,356.9,219.9"/>
	<path class="st2" d="M356.9,198.9c-1.5,0-2.6,1.2-2.6,2.6v21c0,1.5,1.2,2.6,2.6,2.6s2.6-1.2,2.6-2.6v-21
		C359.5,200.1,358.3,198.9,356.9,198.9"/>
	<path class="st2" d="M152.1,198.9c-1.5,0-2.6,1.2-2.6,2.6v21c0,1.5,1.2,2.6,2.6,2.6s2.6-1.2,2.6-2.6v-21
		C154.8,200.1,153.6,198.9,152.1,198.9"/>
	<path class="st2" d="M356.9,198.9c-24.5,0-38.7-7.2-52.5-14.1c-12.4-6.3-24.2-12.2-42-12.2c-17.7,0-32.9,5.9-48.9,12.1
		c-18,7-36.7,14.2-61.3,14.2c-1.5,0-2.6,1.2-2.6,2.6c0,1.5,1.2,2.6,2.6,2.6c25.6,0,44.7-7.4,63.2-14.5c15.6-6,30.3-11.7,47-11.7
		c16.6,0,27.8,5.6,39.7,11.6c13.6,6.9,29.1,14.6,54.8,14.6c1.5,0,2.6-1.2,2.6-2.6C359.5,200.1,358.3,198.9,356.9,198.9"/>
	<path class="st2" d="M181,170c0-7.5,2.5-10.5,5.2-13.6c2.5-2.9,5.3-6.2,5.3-12.6c0-18.3-44.3-27.8-49.4-28.8
		c-1.2-0.2-2.3,0.3-2.9,1.4c-0.5,1.1-0.3,2.3,0.6,3.1c4.1,3.8,14.9,15.6,14.9,24.3c0,1.7-2,7.1-3.8,11.9c-3.2,8.6-6.7,18.3-6.7,24.9
		c0,13.4,5.8,17.5,6.4,18c0.4,0.3,0.9,0.4,1.4,0.4c0.8,0,1.7-0.4,2.2-1.2c0.8-1.2,0.5-2.8-0.6-3.6c0,0-4.1-3.1-4.1-13.6
		c0-5.7,3.6-15.3,6.4-23.1c2.6-7,4.1-11.2,4.1-13.7c0-7.7-5.7-16.1-10.5-21.7c16.7,4.4,36.7,12.7,36.7,21.7c0,4.5-1.7,6.5-4,9.2
		c-2.9,3.4-6.5,7.6-6.5,17c0,11.5,10.8,22.4,11.3,22.9c1,1,2.7,1,3.7,0c1-1,1-2.7,0-3.7C190.6,189.1,181,179.3,181,170"/>
	<path class="st2" d="M253.7,174l-73.5-69c-1.1-1-2.7-0.9-3.7,0.1c-1,1.1-0.9,2.7,0.1,3.7l73.5,69c0.5,0.5,1.1,0.7,1.8,0.7
		c0.7,0,1.4-0.3,1.9-0.8C254.8,176.7,254.7,175,253.7,174"/>
	<path class="st2" d="M245.7,170.7h-30.4c-1.5,0-2.6,1.2-2.6,2.6s1.2,2.6,2.6,2.6h30.4c1.5,0,2.6-1.2,2.6-2.6
		S247.2,170.7,245.7,170.7"/>
	<path class="st2" d="M212.7,159.5c-1.5,0-2.6,1.2-2.6,2.6v21c0,1.5,1.2,2.6,2.6,2.6c1.5,0,2.6-1.2,2.6-2.6v-21
		C215.3,160.7,214.2,159.5,212.7,159.5"/>
	<path class="st2" d="M335.9,184.4c-1.5,0-2.6,2.1-2.6,4.7v7.2c0,2.6,1.2,4.7,2.6,4.7s2.6-2.1,2.6-4.7v-7.2
		C338.5,186.5,337.3,184.4,335.9,184.4"/>
	<path class="st2" d="M351.6,184.4c-1.5,0-2.6,2.1-2.6,4.7v7.2c0,2.6,1.2,4.7,2.6,4.7c1.5,0,2.6-2.1,2.6-4.7v-7.2
		C354.2,186.5,353.1,184.4,351.6,184.4"/>
	<path class="st2" d="M357.5,169.9c-2.6-2.6-7-2.6-12-2.6l-1.7,0l-1.7,0c-5.1-0.1-9.4-0.1-12,2.6c-1.3,1.3-2,3.1-2,5.3
		c0,4.3,2.4,9.7,5.9,13.5c1,1.1,2.6,1.1,3.7,0.1c1.1-1,1.1-2.7,0.1-3.7c-2.9-3.2-4.5-7.5-4.5-10c0-1.2,0.3-1.5,0.4-1.6
		c1.1-1.1,4.7-1.1,8.3-1l1.8,0l1.8,0c3.6,0,7.2,0,8.3,1c0.1,0.1,0.4,0.4,0.4,1.6c0,2.5-1.6,6.8-4.5,10c-1,1.1-0.9,2.7,0.1,3.7
		c0.5,0.5,1.1,0.7,1.8,0.7c0.7,0,1.4-0.3,1.9-0.8c3.6-3.8,5.9-9.3,5.9-13.5C359.5,173,358.8,171.2,357.5,169.9"/>
	<path class="st2" d="M271.9,139.4c-1.8-4.2-5.1-7.4-9.3-9.1c-5.1-2.1-10.7-2-15.8,0.2c-5.1,2.2-9,6.2-11,11.3
		c-2.5,6.2-2.4,13,0.2,19.2c2.6,6.2,7.5,10.9,13.7,13.4c0.3,0.1,0.7,0.2,1,0.2c1,0,2-0.6,2.4-1.6c0.5-1.3-0.1-2.9-1.5-3.4
		c-4.9-2-8.8-5.8-10.9-10.6c-2.1-4.9-2.1-10.3-0.2-15.2c1.5-3.8,4.5-6.8,8.2-8.4c3.8-1.6,7.9-1.7,11.7-0.1c6,2.4,9,9.3,6.5,15.3
		c-0.9,2.2-2.6,3.9-4.8,4.9c-2.2,0.9-4.6,1-6.8,0.1c-3.4-1.4-5-5.2-3.7-8.6c1-2.4,3.7-3.6,6.2-2.6c1.3,0.5,2.9-0.1,3.4-1.5
		c0.5-1.3-0.1-2.9-1.5-3.4c-5.1-2-10.9,0.4-13,5.6c-2.4,6,0.5,13,6.6,15.4c3.5,1.4,7.4,1.4,10.8-0.1c3.5-1.5,6.2-4.2,7.6-7.7
		C273.7,148.2,273.6,143.6,271.9,139.4"/>
	<path class="st2" d="M239.6,96.4c-1-1-2.7-1-3.7,0c-4.2,4.2-11.5,4.2-15.7,0c-1.6-1.6-2.4-3.7-2.4-5.9c0-2.2,0.9-4.3,2.4-5.9
		c2.4-2.4,6.3-2.4,8.7,0c0.8,0.8,1.3,1.9,1.3,3.1c0,1.2-0.5,2.3-1.3,3.1c-1,1-1,2.7,0,3.7c1,1,2.7,1,3.7,0c1.8-1.8,2.8-4.2,2.8-6.8
		c0-2.6-1-5-2.8-6.8c-4.5-4.5-11.7-4.5-16.1,0c-2.6,2.6-4,6-4,9.6c0,3.6,1.4,7.1,4,9.6c3.1,3.1,7.2,4.8,11.6,4.8
		c4.4,0,8.5-1.7,11.6-4.8C240.6,99.1,240.6,97.5,239.6,96.4"/>
	<path class="st2" d="M408.7,237.3v20.6c-5.7,2.2-12.2,4.2-19.2,6c-25.6,6.6-59.2,10.8-94.6,11.8c-54.6,1.5-111.9-4.5-168.5-3.4
		c-16.2,0.3-31.6,1.3-45.2,2.8v-8.8c5.3-0.3,10.8-0.6,16.2-0.8c45.2-1.9,90.7-1,133.2,0.3l2.1,0.1c13,0.4,26.4,0.8,39.8,0.4
		c16.6-0.5,30.8-2.1,40.9-4.8c20.4-5.4,22.6-14.1,17.8-20.4c-1.6-2.2-4.1-4.3-7.6-6.6h75.3C404.3,234.4,408.7,235.7,408.7,237.3"/>
	<path class="st2" d="M173.8,251c17.7,2.3,35.5,3.7,53.1,4.1c2.1,0,4.2,0.1,6.3,0.1c13.6,0,25.4-1.1,33.7-3.1
		c15.6-3.7,15.3-9.6-0.2-16.4h41.4c4.4,2.4,7.4,4.7,9.2,6.9c5,6.1-0.4,12.1-13.8,15.4c-10.2,2.5-23.8,3.3-33.4,3.6
		c-12.1,0.3-24.8,0-37.1-0.4l-2.1-0.1c-43-1.2-89.2-2.1-135.4-0.3c-4.8,0.2-9.6,0.4-14.3,0.7v-21.8c22.8,0.9,44.2,4.2,65.1,7.4
		C155.3,248.3,164.6,249.8,173.8,251"/>
	<path class="st2" d="M81.2,284.8v-4.2c13.4-1.9,29.3-3.2,46.1-3.6c55.8-1.3,111.5,5.8,169.1,3.9c38.1-1.2,74.4-6.5,102-14.7
		c3.8-1.1,7.4-2.3,10.9-3.6v22.1c0,1.9-4.4,3.4-9.8,3.4H91.1C85.6,288.1,81.2,286.6,81.2,284.8"/>
	<path class="st2" d="M233.9,237.5c0,2.8-15.4,5.1-34.3,5.1s-34.3-2.3-34.3-5.1c0-2.8,15.4-5.1,34.3-5.1S233.9,234.7,233.9,237.5"/>
</g>
<g>
	<rect x="-1" y="362" class="st41" width="500" height="144"/>
	<text transform="matrix(1 0 0 1 186.5498 400.5557)" class="st2 st42 st43">Rabot</text>
</g>
</svg>
