<?xml version="1.0" encoding="utf-8"?>
<!-- Generator: Adobe Illustrator 22.1.0, SVG Export Plug-In . SVG Version: 6.00 Build 0)  -->
<svg version="1.1" id="Calque_1" xmlns="http://www.w3.org/2000/svg" xmlns:xlink="http://www.w3.org/1999/xlink" x="0px" y="0px"
	 viewBox="0 0 500 500" style="enable-background:new 0 0 500 500;" xml:space="preserve">
<style type="text/css">
	.st0{fill:#4FBDD7;}
	.st1{fill:#EAEAEA;}
	.st2{fill:#FFFFFF;}
	.st3{fill:#4FBDD7;stroke:#FFFFFF;stroke-width:5;stroke-miterlimit:10;}
	.st4{fill:#8C8C8C;}
	.st5{fill:#070707;}
	.st6{fill:none;stroke:#FFFFFF;stroke-width:7;stroke-miterlimit:10;}
	.st7{fill:none;stroke:#FFFFFF;stroke-width:10;stroke-miterlimit:10;}
	.st8{fill:#FFFFFF;stroke:#FFFFFF;stroke-width:3;stroke-miterlimit:10;}
	.st9{fill:none;stroke:#FDFFFF;stroke-width:6;stroke-miterlimit:10;}
	.st10{fill:#FAFEFF;}
	.st11{fill:none;stroke:#FFFFFF;stroke-width:2;stroke-miterlimit:10;}
	.st12{fill:#FFFFFF;stroke:#FFFFFF;stroke-width:2;stroke-miterlimit:10;}
	.st13{fill:#4FBDD7;stroke:#FFFFFF;stroke-width:4;stroke-miterlimit:10;}
	.st14{fill:#FFFFFF;stroke:#FFFFFF;stroke-width:4;stroke-miterlimit:10;}
	.st15{fill:none;stroke:#FFFFFF;stroke-miterlimit:10;}
	.st16{fill:#FFFFFF;stroke:#FFFFFF;stroke-width:13;stroke-miterlimit:10;}
	.st17{fill:#4FBDD7;stroke:#FFFFFF;stroke-width:8;stroke-miterlimit:10;}
	.st18{fill:#FFFFFF;stroke:#FFFFFF;stroke-width:0.75;stroke-miterlimit:10;}
	.st19{fill:#FFFFFF;stroke:#FFFFFF;stroke-width:0.5;stroke-miterlimit:10;}
	.st20{fill:none;}
	.st21{font-family:'HelveticaNeue-CondensedBold';}
	.st22{font-size:54px;}
	.st23{fill:#FFFFFF;stroke:#FFFFFF;stroke-width:8;stroke-miterlimit:10;}
	.st24{fill:#FFFFFF;stroke:#FFFFFF;stroke-miterlimit:10;}
	.st25{fill:#FFFFFF;stroke:#FFFFFF;stroke-width:11;stroke-miterlimit:10;}
	.st26{fill:#FFFFFF;stroke:#FFFFFF;stroke-width:6;stroke-miterlimit:10;}
	.st27{fill:#8C8C8C;stroke:#8C8C8C;stroke-width:4;stroke-miterlimit:10;}
	.st28{fill:#FFFFFF;stroke:#FFFFFF;stroke-width:1.05;stroke-miterlimit:10;}
	.st29{fill:none;stroke:#4FBDD7;stroke-width:5;stroke-miterlimit:10;}
	.st30{fill:none;stroke:#FFFFFF;stroke-width:4;stroke-miterlimit:10;}
	.st31{fill:#8C8C8C;stroke:#FFFFFF;stroke-width:4;stroke-miterlimit:10;}
	.st32{fill:#FFFFFF;stroke:#FFFFFF;stroke-width:10;stroke-miterlimit:10;}
	.st33{fill:none;stroke:#4FBDD7;stroke-width:2;stroke-miterlimit:10;}
	.st34{fill-rule:evenodd;clip-rule:evenodd;fill:#FFFFFF;}
	.st35{fill:#FFFFFF;stroke:#FFFFFF;stroke-width:7;stroke-miterlimit:10;}
	.st36{fill:#FFFFFF;stroke:#4FBDD7;stroke-width:7;stroke-miterlimit:10;}
	.st37{fill:#FCFCFC;}
	.st38{fill:#FFFFFF;stroke:#FFFFFF;stroke-width:5;stroke-miterlimit:10;}
	.st39{fill:none;stroke:#FFFFFF;stroke-width:3;stroke-miterlimit:10;}
	.st40{fill:none;stroke:#FFFFFF;stroke-width:8;stroke-miterlimit:10;}
	.st41{fill:none;stroke:#FFFFFF;stroke-width:6;stroke-miterlimit:10;}
	.st42{fill:#FFFFFF;stroke:#4FBDD7;stroke-width:3;stroke-miterlimit:10;}
	.st43{fill:none;stroke:#FFFFFF;stroke-width:0.75;stroke-miterlimit:10;}
	.st44{fill:#4FBDD7;stroke:#FFFFFF;stroke-width:9;stroke-miterlimit:10;}
	.st45{fill:none;stroke:#FFFFFF;stroke-width:9;stroke-miterlimit:10;}
	.st46{fill:none;stroke:#4FBDD7;stroke-width:3;stroke-miterlimit:10;}
</style>
<rect x="-3" y="-5" class="st0" width="509" height="509"/>
<g id="surface1">
	<path class="st2" d="M358.9,308.4l-12.4-6.9c-2-1.1-4.4-0.3-5.3,1.9c-0.9,2.2,0.1,4.8,2.1,6l1.8,1l-1,2.4c-0.9,2.2,0.1,4.8,2.1,6
		c1,0.6,2.1,0.6,3.1,0.3c1-0.3,1.8-1.1,2.2-2.2l1-2.4"/>
	<path class="st2" d="M348.8,302.8c-5.8-3.2-11.5-6.4-17.3-9.6c-0.4,0.1-1,0.4-1.7,0.8c-0.2,0.1-1.7,1-2.2,2.2
		c-0.9,2.2,0.1,4.8,2.1,6l1.8,1l-1,2.4c-0.9,2.2,0.1,4.8,2.1,6c1,0.6,2.1,0.6,3.1,0.3c0.4-0.2,0.6-0.4,2.2-2.2
		c0.2-0.2,1-1.3,1.5-1.7c0.9-0.5,2.6-0.3,6.7,3.2"/>
	<path class="st2" d="M352.6,314.5l5.6,3.1l-1,2.4c-0.9,2.2,0.1,4.8,2.1,6c1,0.6,2.1,0.6,3.1,0.3c1-0.3,1.8-1.1,2.2-2.2l1-2.4
		l5.6,3.1l-1,2.4c-0.9,2.2,0.1,4.8,2.1,6c1,0.6,2.1,0.6,3.1,0.3c1-0.3,1.8-1.1,2.2-2.2l1.1-2.8c2.7,0.8,5.4,1.1,8.1,0.8l1.1,3.1
		c0.8,2.3,3.2,3.6,5.2,2.9c2.1-0.7,3.1-3.2,2.2-5.5l-1.1-3.1c2.3-1.4,4.2-3.3,5.7-5.7l2.8,1.5c1,0.6,2.1,0.6,3.1,0.3
		c1-0.3,1.8-1.1,2.2-2.2c0.9-2.2-0.1-4.8-2.1-6l-2.8-1.5c0.6-2.9,0.6-5.9,0.1-8.8l2.8-1c2.1-0.7,3.1-3.2,2.2-5.5
		c-0.8-2.3-3.2-3.6-5.2-2.9l-2.7,1c-1.4-2.6-3.3-4.9-5.6-6.9l1.1-2.8c0.9-2.2-0.1-4.8-2.1-6c-2-1.1-4.4-0.3-5.3,1.9l-1,2.4l-5.6-3.1
		l1-2.4c0.9-2.2-0.1-4.8-2.1-6c-2-1.1-4.4-0.3-5.3,1.9l-1,2.4l-5.6-3.1l1-2.4c0.9-2.2-0.1-4.8-2.1-6c-2-1.1-4.4-0.3-5.3,1.9l-1,2.4
		l-5.6-3.1l1-2.4c0.9-2.2-0.1-4.8-2.1-6c-2-1.1-4.4-0.3-5.3,1.9l-1,2.4l-5.6-3.1l1-2.4c0.9-2.2-0.1-4.8-2.1-6
		c-2-1.1-4.4-0.3-5.3,1.9l-1,2.4l-5.6-3.1l1-2.4c0.9-2.2-0.1-4.8-2.1-6c-2-1.1-4.4-0.3-5.3,1.9l-1,2.4l-5.6-3.1l1-2.4
		c0.9-2.2-0.1-4.8-2.1-6c-2-1.1-4.4-0.3-5.3,1.9l-1,2.4l-5.6-3.1l1-2.4c0.9-2.2-0.1-4.8-2.1-6c-2-1.1-4.4-0.3-5.3,1.9l-1,2.4
		l-5.6-3.1l1-2.4c0.9-2.2-0.1-4.8-2.1-6c-2-1.1-4.4-0.3-5.3,1.9l-1,2.4l-5.6-3.1l1-2.4c0.9-2.2-0.1-4.8-2.1-6
		c-2-1.1-4.4-0.3-5.3,1.9l-1,2.4l-5.6-3.1l1-2.4c0.9-2.2-0.1-4.8-2.1-6c-2-1.1-4.4-0.3-5.3,1.9l-1,2.4l-5.6-3.1l1-2.4
		c0.9-2.2-0.1-4.8-2.1-6c-2-1.1-4.4-0.3-5.3,1.9l-1,2.4l-12.2-6.8l3-7.4c5.1-12.7-0.5-28.4-12.4-35.1l-23.6-13.2
		c-4.8-2.7-10.4-0.7-12.5,4.4l-5.4,13.4c-2.1,5.2-7.8,7.2-12.7,4.5c-2.4-1.3-4.2-3.6-5.2-6.3c-1-2.7-0.9-5.6,0.1-8.1l1.5-3.7
		c0.8-2.1,0.5-4.5-0.8-6.5c-1.3-1.9-3.4-3-5.5-2.8l-20.4,2.3c-3,0.3-6.1-0.3-8.9-1.9c-11.9-6.7-25.8-1.8-30.9,10.9l-11.3,28.2
		c-5.1,12.7,0.5,28.4,12.4,35.1l8.6,4.8c2,1.1,4.4,0.3,5.3-1.9c0.2-0.4,0.3-0.9,0.3-1.3c0.2-1.8-0.8-3.8-2.4-4.7l-8.6-4.8
		c-7.9-4.4-11.5-14.8-8.2-23.1l11.3-28.2c3.4-8.4,12.5-11.6,20.4-7.2c4.3,2.4,8.9,3.4,13.5,2.9l16.2-1.8c-1.7,4.5-1.6,9.6,0.1,14.4
		c1.8,5,5.1,9.1,9.5,11.5c5.6,3.2,11.8,2.9,16.6-0.2c1.3-0.8,2.5-1.9,3.6-3.1c1.2-1.4,2.3-3.1,3-5l5.4-13.4c0.3-0.8,1.2-1.1,2-0.7
		l23.6,13.2c7.9,4.4,11.5,14.8,8.2,23.1l-22.6,56.3c-1.6,4.1-4.6,7-8.5,8.4c-3.8,1.4-8.1,0.9-11.9-1.2c-24.4-13.7-48.7-27.3-73.1-41
		c-2.5-1.4-5.2-1-6.3,0.4c-1.4,1.7-0.8,5.5,2.6,7.4c24.6,13.7,49.1,27.4,73.7,41c5.8,3.2,12.2,3.9,18,1.8
		c5.8-2.1,10.4-6.6,12.9-12.7l3.4-8.5l12.2,6.8l-1,2.4c-0.9,2.2,0.1,4.8,2.1,6c1,0.6,2.1,0.6,3.1,0.3c1-0.3,1.8-1.1,2.2-2.2l1-2.4
		l5.6,3.1l-1,2.4c-0.9,2.2,0.1,4.8,2.1,6c1,0.6,2.1,0.6,3.1,0.3c1-0.3,1.8-1.1,2.2-2.2l1-2.4l5.6,3.1l-1,2.4c-0.9,2.2,0.1,4.8,2.1,6
		c1,0.6,2.1,0.6,3.1,0.3c1-0.3,1.8-1.1,2.2-2.2l1-2.4l5.6,3.1l-1,2.4c-0.9,2.2,0.1,4.8,2.1,6c1,0.6,2.1,0.6,3.1,0.3s1.8-1.1,2.2-2.2
		l1-2.4l5.6,3.1l-1,2.4c-0.9,2.2,0.1,4.8,2.1,6c1,0.6,2.1,0.6,3.1,0.3s1.8-1.1,2.2-2.2l1-2.4l5.6,3.1l-1,2.4c-0.9,2.2,0.1,4.8,2.1,6
		c1,0.6,2.1,0.6,3.1,0.3c1-0.3,1.8-1.1,2.2-2.2l1-2.4l5.6,3.1l-1,2.4c-0.9,2.2,0.1,4.8,2.1,6c1,0.6,2.1,0.6,3.1,0.3
		c1-0.3,1.8-1.1,2.2-2.2l1-2.4l5.6,3.1l-1,2.4c-0.9,2.2,0.1,4.8,2.1,6c1,0.6,2.1,0.6,3.1,0.3c1-0.3,1.8-1.1,2.2-2.2l1-2.4l2,1.1
		c2,1.1,4.4,0.3,5.3-1.9c0.9-2.2-0.1-4.8-2.1-6l-112.6-62.9l9.9-24.7l158.7,88.7c3.1,1.7,5.4,4.6,6.6,7.9c0,0.2,0.1,0.3,0.1,0.5
		c0,0.1,0.1,0.3,0.2,0.4c1,3.3,1,6.8-0.2,10.1c0,0,0,0,0,0c0,0,0,0,0,0.1c-0.6,1.5-1.4,2.7-2.4,3.8c-1.1,1.2-2.4,2.1-3.9,2.7
		c-0.2,0-0.3,0.1-0.5,0.1c-0.2,0.1-0.3,0.1-0.5,0.2c-3,0.9-6.3,0.6-9.3-1.1l-19-10.6"/>
	<path class="st2" d="M199.3,228c3.2-1.1,6-3.7,7.4-7.3c2.9-7.3-0.3-16.4-7.2-20.3c-6.9-3.9-14.9-1-17.8,6.3
		c-2.9,7.3,0.3,16.4,7.2,20.3C192.3,228.9,196,229.2,199.3,228z M192.1,207.8c1.3-0.5,2.9-0.4,4.3,0.4c2.8,1.6,4.1,5.3,2.9,8.3
		c-1.2,3-4.5,4.2-7.3,2.6c-2.8-1.6-4.1-5.3-2.9-8.3C189.7,209.3,190.8,208.3,192.1,207.8z"/>
	<path class="st2" d="M125.5,186.8c3.4-1.2,6-3.8,7.4-7.4c1.4-3.6,1.5-7.6,0.1-11.4c-1.4-3.8-3.9-7-7.3-8.8c-3.3-1.9-7-2.2-10.4-1
		c-3.4,1.2-6,3.8-7.4,7.4c-2.9,7.3,0.3,16.4,7.2,20.3C118.4,187.6,122.1,188,125.5,186.8z M115.3,169.6c0.6-1.5,1.7-2.5,3.1-3
		c1.4-0.5,2.9-0.3,4.3,0.4c1.4,0.8,2.4,2.1,3,3.6c0.6,1.6,0.5,3.2,0,4.7c-0.6,1.5-1.7,2.5-3.1,3s-2.9,0.3-4.3-0.4
		C115.4,176.3,114.1,172.6,115.3,169.6z"/>
	<path class="st2" d="M173.5,130.9l-7.1,17.6c-1.6,4,0.1,9,3.9,11.1c1.9,1.1,3.9,1.2,5.7,0.6s3.3-2,4.1-4l7.1-17.6
		c1.6-4-0.1-9-3.9-11.1C179.5,125.3,175.1,126.8,173.5,130.9z"/>
	<path class="st2" d="M366.2,313.3l-12.4-6.9"/>
</g>
<g>
	<g>
		<path class="st2" d="M146.2,220.9c4.3-3.2,4.3-8.9,6.7-13.2c1.3-2.2,2.7-4.4,3.8-6.7c0.9-2,2-4.3,0.7-7c-0.5-1.1-2.7-1.9-3.1-1
			c-1,2.1-1.3,4.4-2.3,6.5c-1,2.1-2.4,4-3.5,6c-2.3,4-2.1,9.6-6.3,12.6C140.7,219.2,144.8,221.9,146.2,220.9z"/>
	</g>
</g>
<g>
	<g>
		<path class="st2" d="M152.9,224.1c4.3-3.2,4.3-8.9,6.7-13.2c1.3-2.2,2.7-4.4,3.8-6.7c0.9-2,2-4.3,0.7-7c-0.5-1.1-2.7-1.9-3.1-1
			c-1,2.1-1.3,4.4-2.3,6.5c-1,2.1-2.4,4-3.5,6c-2.3,4-2.1,9.6-6.3,12.6C147.4,222.4,151.5,225.1,152.9,224.1z"/>
	</g>
</g>
<g>
	<g>
		<path class="st2" d="M139.5,217.7c4.3-3.2,4.3-8.9,6.7-13.2c1.3-2.2,2.7-4.4,3.8-6.7c0.9-2,2-4.3,0.7-7c-0.5-1.1-2.7-1.9-3.1-1
			c-1,2.1-1.3,4.4-2.3,6.5c-1,2.1-2.4,4-3.5,6c-2.3,4-2.1,9.6-6.3,12.6C134.1,216,138.1,218.8,139.5,217.7z"/>
	</g>
</g>
<g>
	<rect x="-3" y="366" class="st20" width="500" height="144"/>
	<text transform="matrix(1 0 0 1 95.6392 404.5557)" class="st2 st21 st22">Tronçonneuse</text>
</g>
</svg>
