<svg xmlns="http://www.w3.org/2000/svg" width="197.974" height="196.518" viewBox="0 0 197.974 196.518">
  <g id="Groupe_1809" data-name="Groupe 1809" transform="translate(-103.238 -6225.775)">
    <path id="Tracé_13543" data-name="Tracé 13543" d="M1351.909,159.849s3.231-5.86,1.041-12.049" transform="translate(-1054.624 6169.77)" fill="none" stroke="#fff" stroke-linecap="round" stroke-linejoin="round" stroke-miterlimit="10" stroke-width="0.5"/>
    <path id="Tracé_13544" data-name="Tracé 13544" d="M1370,125.062A98.3,98.3,0,1,0,1500.23-.3" transform="translate(-1263.022 6229.759)" fill="none" stroke="#00a5c3" stroke-miterlimit="10" stroke-width="8" opacity="0.46"/>
    <path id="Tracé_13545" data-name="Tracé 13545" d="M1543.319,124.647c-4.381-.438-8.544-.986-12.706-1.2a18.714,18.714,0,0,0-11.446,2.793c-5.093,3.341-4.546,8.708-.876,12.487,4.162,4.381,9.913,6.3,15.609,7.886a64.179,64.179,0,0,0,23.714,2.355,4.576,4.576,0,0,1,2.574.383c5.641,3.122,11.885,2.957,18.018,3.286,5.531.329,11.118.6,16.7.712,4,.11,8-.11,11.994-.11,2.464,0,4.874.164,7.229-.986,3.341-1.643,4-4.546,1.1-6.846a18.679,18.679,0,0,0-5.75-2.793c-3.56-1.1-7.284-1.753-10.9-2.793a23.122,23.122,0,0,1-10.625-6.517c-.548-.548-1.15-.986-1.7-1.479l-.657.6a40.376,40.376,0,0,0,5.038,5.97c5.312,4.272,12.158,4.82,18.4,6.791a4.053,4.053,0,0,1,2.026.931,5.511,5.511,0,0,1,1.588,3.176c-.055,1.533-1.753,1.369-2.9,1.369-4.984,0-10.022,0-15.006-.11-5.531-.164-11.008-.438-16.54-.767-3.56-.219-7.065-.657-10.625-.822-3.834-.164-6.517-2.519-9.256-4.655-.329-.274-.6-.657-.931-.931-8.927-6.955-11.337-16.649-11.282-27.219a138.654,138.654,0,0,1,1.753-22.345,187.364,187.364,0,0,1,5.531-21.14c2.629-9.037,7.832-16.7,13.692-23.933a54.265,54.265,0,0,1,6.134-5.641c.876-.767,1.862-1.533,2.684-2.41.274-.274.164-.876.274-1.369-.438,0-.931-.219-1.2,0a36.993,36.993,0,0,0-6.736,4.491,76.324,76.324,0,0,0-13.2,18.018,97.6,97.6,0,0,0-9.365,23c-3.341,12.816-4.655,25.741-2.41,38.83A2.044,2.044,0,0,1,1543.319,124.647Z" transform="translate(-1407.541 6218.882)" fill="#626262"/>
    <path id="Tracé_13546" data-name="Tracé 13546" d="M1473.906,183.64c.6-1.7,1.15-3.176,1.7-4.655a48.642,48.642,0,0,0,2.465-25.467,66.853,66.853,0,0,0-2.793-9.8c-.164-.548-.876-.876-1.369-1.314-.11.6-.493,1.314-.329,1.862,4.162,14.9,2.026,29.136-4.71,42.883a3.42,3.42,0,0,0-.548,1.2,3.857,3.857,0,0,0,.329,1.369,4.48,4.48,0,0,0,1.314-.548c.438-.438.657-1.1,1.15-1.533.438-.438,1.369-1.314,1.972-1.26,3.122.164,6.353.329,9.091,2.191a3.176,3.176,0,0,1,1.369,3.45,3.089,3.089,0,0,1-3.067,2.793c-4.984,0-10.022.11-15.006.219a7.654,7.654,0,0,0-1.862.438l-.109.657a6.659,6.659,0,0,0,1.972.986c4.272.493,8.544,1.1,12.815,1.26a23.446,23.446,0,0,0,6.682-1.15,5.544,5.544,0,0,0,4.162-4.874,6.383,6.383,0,0,0-3.724-5.751c-3.177-.986-6.463-1.7-9.694-2.465A18.171,18.171,0,0,0,1473.906,183.64Z" transform="translate(-1251.158 6172.212)" fill="#626262"/>
    <path id="Tracé_13547" data-name="Tracé 13547" d="M1545.375,109.965q-1.479.411-2.958.986c-7.065,3.56-14.677,4.272-22.4,4.436a80.608,80.608,0,0,1-14.951-1.2,34.088,34.088,0,0,1-21.3-11.939c-4-4.929-6.353-10.789-8.16-16.814-.219-.712,0-1.807-1.369-1.479-1.15.274-1.26,1.15-1.041,2.081a46.454,46.454,0,0,0,1.588,6.024,38.522,38.522,0,0,0,19.442,21.14c6.079,3.067,12.651,4,19.5,4.162a97.022,97.022,0,0,0,22.838-2.191,44.4,44.4,0,0,0,8-3.231c.493-.219.767-.876,1.15-1.314Z" transform="translate(-1312.988 6198.678)" fill="#626262"/>
    <path id="Tracé_13548" data-name="Tracé 13548" d="M1503.612,11.726a16.324,16.324,0,0,1-4.765-10.9c-.274-3.888,1.807-6.572,4.819-8.489a4.531,4.531,0,0,1,5.367.383,6.594,6.594,0,0,0,8.051.6,24.265,24.265,0,0,1,8.051-2.793,42.721,42.721,0,0,1,20.812,2.081c4.436,1.533,6.517,5.422,8.434,9.31.274.548.493,1.1.712,1.643l.6-.164a19.858,19.858,0,0,0-.712-3.122A18.967,18.967,0,0,0,1543.7-10.071a41.392,41.392,0,0,0-15.718-1.917,39.3,39.3,0,0,0-12.6,2.465,2.614,2.614,0,0,1-1.917-.274,10.3,10.3,0,0,0-14.24,3.177,10.522,10.522,0,0,0-1.588,4.546,16.252,16.252,0,0,0,2.957,11.72,22.851,22.851,0,0,0,2.574,2.574Z" transform="translate(-1336.343 6242.094)" fill="#626262"/>
    <path id="Tracé_13549" data-name="Tracé 13549" d="M1506.769,31.394c3.779,0,6.3-2.848,6.189-6.955a7.8,7.8,0,0,0-7.339-7.339c-3.615,0-6.079,3.177-6.024,7.558A7.115,7.115,0,0,0,1506.769,31.394Zm-5.148-9.475c1.588,1.369,1.588,2.136,0,3.122Z" transform="translate(-1294.756 6228.889)" fill="#626262"/>
    <path id="Tracé_13550" data-name="Tracé 13550" d="M1497.292,48.974c0,2.355,0,4.655,1.369,6.791,1.041,1.479,1.807,3.177,2.9,4.655a3.717,3.717,0,0,0,2.081,1.588c2.9.329,5.805.438,8.763.548,1.753,0,6.408-5.093,6.243-6.955-.055-.164-.109-.383-.164-.548a29.5,29.5,0,0,1-3.45,2.355,3.407,3.407,0,0,1-3.943-.6c1.7-3.177,3.177-6.408,1.369-10.406-.438,2.026-.712,3.724-1.2,5.367-.986,3.669-2.793,5.093-6.463,5.258-2.465.11-4.71-1.643-5.86-4.655-.438-1.15-.767-2.355-1.15-3.56Zm10.844,10.351v.767l-3.505-.219v-.548Z" transform="translate(-1299.19 6215.636)" fill="#626262"/>
    <path id="Tracé_13551" data-name="Tracé 13551" d="M1482.362,95.891a14.988,14.988,0,0,0,6.408-.6c.383-.164.548-.876.767-1.314-.493,0-1.1-.329-1.479-.164-5.477,1.862-9.694-.274-13.254-4.162a29.886,29.886,0,0,1-2.9-3.505c-.767-1.15-2.465-1.643-2.574-.548a2.386,2.386,0,0,0,.6,1.972C1470.368,88.114,1476.283,94.96,1482.362,95.891Z" transform="translate(-1254.74 6198.184)" fill="#626262"/>
    <path id="Tracé_13552" data-name="Tracé 13552" d="M1488.117,33.474a19.643,19.643,0,0,0,.438,1.917c2.136,6.408.822,12.213-3.012,17.635-.329.438-.11,1.2-.164,1.807.657,0,1.534.11,1.862-.219a9.681,9.681,0,0,0,1.807-2.848c2.793-5.641,3.45-11.392.548-17.2a6.239,6.239,0,0,0-.986-1.369Z" transform="translate(-1265.478 6221.606)" fill="#626262"/>
    <path id="Tracé_13553" data-name="Tracé 13553" d="M1586.013,12.058a12.02,12.02,0,0,0,1.369-.931c.219-.164.274-.438.493-.6,1.753-1.479,2.793-2.957,1.588-5.477-.438-.986.383-2.519.548-3.834a3.764,3.764,0,0,0-.274-1.314c-.383.164-.876.219-1.041.493-1.753,3.067-3.45,6.243-3.4,9.913A4.4,4.4,0,0,0,1586.013,12.058Z" transform="translate(-1418.745 6236.669)" fill="#626262"/>
    <path id="Tracé_13554" data-name="Tracé 13554" d="M1475.214,129.286c2.41-1.1,4.765-2.081,7.065-3.341.438-.219.493-1.2.712-1.862a5.264,5.264,0,0,0-1.862.164c-2.136.931-4.162,1.972-6.244,3.012-.438.219-.657.712-.986,1.1Z" transform="translate(-1250.714 6180.507)" fill="#626262"/>
    <path id="Tracé_13555" data-name="Tracé 13555" d="M1457.581,117.753c1.862-.822,3.669-1.533,5.422-2.41.329-.164.383-.822.548-1.26a3.731,3.731,0,0,0-1.534-.383,40.691,40.691,0,0,0-4.929,1.26c-.6.219-1.041.931-1.588,1.369Z" transform="translate(-1221.197 6185.194)" fill="#626262"/>
    <path id="Tracé_13556" data-name="Tracé 13556" d="M1482.708,114.7,1474,119.136l.329.767a13.258,13.258,0,0,0,7.777-2.848c.548-.438.712-1.314,1.1-1.972Z" transform="translate(-1250.979 6184.742)" fill="#626262"/>
    <path id="Tracé_13557" data-name="Tracé 13557" d="M1447.3,121.559c1.972,2.191,7.175,1.26,9.256-1.369-.438-.219-.931-.712-1.26-.6C1452.777,120.135,1450.148,120.847,1447.3,121.559Z" transform="translate(-1209.71 6182.538)" fill="#626262"/>
    <path id="Tracé_13558" data-name="Tracé 13558" d="M1466.082,107.666a8.234,8.234,0,0,0-1.643,0q-1.725.329-3.45.822a6.7,6.7,0,0,0-1.588.931c.548.438.986,1.15,1.588,1.26C1463.508,111.171,1465.041,110.24,1466.082,107.666Z" transform="translate(-1225.864 6187.942)" fill="#626262"/>
    <path id="Tracé_13559" data-name="Tracé 13559" d="M1481.469,112.917c.493.383.876.876,1.1.822,1.807-.657,3.56-1.369,5.313-2.136.219-.11.219-.767.109-1.15,0-.11-.712-.274-.986-.11C1485.248,111.109,1483.5,111.931,1481.469,112.917Z" transform="translate(-1259.926 6186.744)" fill="#626262"/>
    <path id="Tracé_13560" data-name="Tracé 13560" d="M1518.05,25.8v3.122C1519.693,27.936,1519.693,27.169,1518.05,25.8Z" transform="translate(-1311.185 6224.954)" fill="#fff"/>
    <path id="Tracé_13561" data-name="Tracé 13561" d="M1520.005,69.1H1516.5v1.479l3.505.548Z" transform="translate(-1311.059 6205.368)" fill="#fff"/>
    <path id="Tracé_13562" data-name="Tracé 13562" d="M1512.7,69.3H1509.2v1.15l3.505.438Z" transform="translate(-1299.76 6205.277)" fill="#fff"/>
    <path id="Tracé_13563" data-name="Tracé 13563" d="M1665.423,215.371s4.984-8.653,1.862-17.471" transform="translate(-1540.927 6147.108)" fill="none" stroke="#fff" stroke-linecap="round" stroke-linejoin="round" stroke-width="0.5"/>
    <path id="Tracé_13564" data-name="Tracé 13564" d="M1653.706,220.719s5.531-9.913,1.314-20.319" transform="translate(-1522.802 6145.977)" fill="none" stroke="#fff" stroke-linecap="round" stroke-linejoin="round" stroke-width="0.5"/>
    <path id="Tracé_13565" data-name="Tracé 13565" d="M1666.336,210.382s-10.241-10.461-29.136-10.187" transform="translate(-1523.494 6146.072)" fill="none" stroke="#fff" stroke-linecap="round" stroke-linejoin="round" stroke-width="0.5"/>
    <path id="Tracé_13566" data-name="Tracé 13566" d="M1667.391,219.366s-10.132-9.968-29.191-9.2" transform="translate(-1525.096 6141.579)" fill="none" stroke="#fff" stroke-linecap="round" stroke-linejoin="round" stroke-width="0.5"/>
    <path id="Tracé_13567" data-name="Tracé 13567" d="M1667.938,227.075s-8.16-7.886-22.838-7.394" transform="translate(-1529.422 6137.266)" fill="none" stroke="#fff" stroke-linecap="round" stroke-linejoin="round" stroke-width="0.5"/>
    <path id="Tracé_13568" data-name="Tracé 13568" d="M1643.308,222.085s4-6.955,1.314-14.185" transform="translate(-1506.052 6142.584)" fill="none" stroke="#fff" stroke-linecap="round" stroke-linejoin="round" stroke-width="0.5"/>
    <path id="Tracé_13569" data-name="Tracé 13569" d="M1538.4,16.938c3.4-2.026,5.641.712,8.324,2.026a3.026,3.026,0,0,0-2.464-3.56h0C1541.464,14.474,1539.383,14.857,1538.4,16.938Z" transform="translate(-1349.824 6229.873)" fill="#626262"/>
    <path id="Tracé_13570" data-name="Tracé 13570" d="M1440,82.6c.931.712,1.862.767,2.3-.438,1.2-3.56,2.3-7.175,3.45-10.789a3.425,3.425,0,0,0-.383-.876Z" transform="translate(-1194.907 6204.734)" fill="#626262"/>
    <path id="Tracé_13571" data-name="Tracé 13571" d="M1462.067,70.5c-.109,3.231-.219,6.408-.383,9.694,1.369,0,2.355-.164,2.026-1.862-.493-2.574-.876-5.2-1.369-7.832Z" transform="translate(-1224.806 6204.734)" fill="#626262"/>
    <path id="Tracé_13572" data-name="Tracé 13572" d="M1436.829,98.9l-7.229,4.929.6.822c2.629-1.314,4.6-3.56,6.955-5.312Z" transform="translate(-1180.619 6191.889)" fill="#626262"/>
    <path id="Tracé_13573" data-name="Tracé 13573" d="M1572.072,177.646a16.123,16.123,0,0,0-6.572-9.146" transform="translate(-1389.961 6160.406)" fill="none" stroke="#fff" stroke-linecap="round" stroke-linejoin="round" stroke-miterlimit="10" stroke-width="0.5"/>
    <path id="Tracé_13574" data-name="Tracé 13574" d="M1579.072,178.846a16.123,16.123,0,0,0-6.572-9.146" transform="translate(-1400.795 6159.864)" fill="none" stroke="#fff" stroke-linecap="round" stroke-linejoin="round" stroke-miterlimit="10" stroke-width="0.5"/>
    <path id="Tracé_13575" data-name="Tracé 13575" d="M1563.751,177.006A18.6,18.6,0,0,0,1555.7,166.6" transform="translate(-1376.273 6161.266)" fill="none" stroke="#fff" stroke-linecap="round" stroke-linejoin="round" stroke-miterlimit="10" stroke-width="0.5"/>
    <path id="Tracé_13576" data-name="Tracé 13576" d="M1575.287,169.606a20.442,20.442,0,0,0-14.787,3.505" transform="translate(-1390.438 6160.012)" fill="none" stroke="#fff" stroke-linecap="round" stroke-linejoin="round" stroke-miterlimit="10" stroke-width="0.5"/>
    <path id="Tracé_13577" data-name="Tracé 13577" d="M1571.587,174.806a20.442,20.442,0,0,0-14.787,3.505" transform="translate(-1384.712 6157.66)" fill="none" stroke="#fff" stroke-linecap="round" stroke-linejoin="round" stroke-miterlimit="10" stroke-width="0.5"/>
    <path id="Tracé_13578" data-name="Tracé 13578" d="M1566.861,181.427a18.912,18.912,0,0,0-12.761,1.643" transform="translate(-1378.507 6154.764)" fill="none" stroke="#fff" stroke-linecap="round" stroke-linejoin="round" stroke-miterlimit="10" stroke-width="0.5"/>
    <path id="Tracé_13579" data-name="Tracé 13579" d="M1452.365,157.173s-.876-7.667-7.065-11.173" transform="translate(-1204.425 6170.584)" fill="none" stroke="#fff" stroke-linecap="round" stroke-linejoin="round" stroke-miterlimit="10" stroke-width="0.5"/>
    <path id="Tracé_13580" data-name="Tracé 13580" d="M1461.365,160.673s-.876-7.667-7.065-11.173" transform="translate(-1218.354 6169)" fill="none" stroke="#fff" stroke-linecap="round" stroke-linejoin="round" stroke-miterlimit="10" stroke-width="0.5"/>
    <path id="Tracé_13581" data-name="Tracé 13581" d="M1442.863,154.442s-1.1-8.653-8.763-12.542" transform="translate(-1188.788 6172.438)" fill="none" stroke="#fff" stroke-linecap="round" stroke-linejoin="round" stroke-miterlimit="10" stroke-width="0.5"/>
    <path id="Tracé_13582" data-name="Tracé 13582" d="M1452.55,142.489s-11.5-.767-23.55,9.256" transform="translate(-1195.682 6172.178)" fill="none" stroke="#fff" stroke-linecap="round" stroke-linejoin="round" stroke-miterlimit="10" stroke-width="0.5"/>
    <path id="Tracé_13583" data-name="Tracé 13583" d="M1448.957,147.9s-11.172-.548-23.057,9.858" transform="translate(-1190.392 6169.729)" fill="none" stroke="#fff" stroke-linecap="round" stroke-linejoin="round" stroke-miterlimit="10" stroke-width="0.5"/>
    <path id="Tracé_13584" data-name="Tracé 13584" d="M1445.428,155.1s-8.982-.329-18.128,7.613" transform="translate(-1187.63 6166.469)" fill="none" stroke="#fff" stroke-linecap="round" stroke-linejoin="round" stroke-miterlimit="10" stroke-width="0.5"/>
    <path id="Tracé_13585" data-name="Tracé 13585" d="M1467.36,165.027s-.712-6.134-5.86-8.927" transform="translate(-1228.292 6166.015)" fill="none" stroke="#fff" stroke-linecap="round" stroke-linejoin="round" stroke-miterlimit="10" stroke-width="0.5"/>
    <path id="Tracé_13586" data-name="Tracé 13586" d="M1645.748,48H1642.9v.986c.931.11,1.862.219,2.848.329Z" transform="translate(-1506.027 6214.912)" fill="#fff"/>
    <path id="Tracé_13587" data-name="Tracé 13587" d="M1637.566,37.8a2.893,2.893,0,1,0,1.917-3.615A2.921,2.921,0,0,0,1637.566,37.8Z" transform="translate(-1500.529 6221.223)" fill="#898890"/>
    <path id="Tracé_13588" data-name="Tracé 13588" d="M1561.977,267.579a4.349,4.349,0,1,0,2.9-5.422A4.318,4.318,0,0,0,1561.977,267.579Z" transform="translate(-1386.329 6118.122)" fill="#d8d7da"/>
    <path id="Tracé_13589" data-name="Tracé 13589" d="M1413.176,95.679a4.349,4.349,0,1,0,2.9-5.422A4.341,4.341,0,0,0,1413.176,95.679Z" transform="translate(-1156.035 6195.877)" fill="#d8d7da"/>
    <path id="Tracé_13590" data-name="Tracé 13590" d="M1431.766,207a2.893,2.893,0,1,0,1.917-3.615A2.877,2.877,0,0,0,1431.766,207Z" transform="translate(-1182.018 6144.688)" fill="#898890"/>
    <path id="Tracé_13591" data-name="Tracé 13591" d="M1640.4,39.865a4.349,4.349,0,1,1,2.9-5.422A4.341,4.341,0,0,1,1640.4,39.865Zm-1.7-5.531a1.456,1.456,0,1,0,1.807.986A1.464,1.464,0,0,0,1638.7,34.333Z" transform="translate(-1499.309 6222.445)" fill="#ef9486" opacity="0.48"/>
    <path id="Tracé_13592" data-name="Tracé 13592" d="M1566.627,270.653a5.786,5.786,0,1,1,3.834-7.229A5.842,5.842,0,0,1,1566.627,270.653Zm-2.574-8.325a2.893,2.893,0,1,0,3.615,1.917A2.877,2.877,0,0,0,1564.053,262.328Z" transform="translate(-1385.119 6119.32)" fill="#00a5c3" opacity="0.46"/>
    <path id="Tracé_13593" data-name="Tracé 13593" d="M1414.444,87.69a5.786,5.786,0,1,1-3.834,7.229A5.774,5.774,0,0,1,1414.444,87.69Zm2.519,8.325a2.893,2.893,0,1,0-3.615-1.917A2.921,2.921,0,0,0,1416.963,96.014Z" transform="translate(-1154.838 6197.075)" fill="#00a5c3" opacity="0.46"/>
    <path id="Tracé_13594" data-name="Tracé 13594" d="M1432.043,200.74a4.349,4.349,0,1,1-2.9,5.422A4.341,4.341,0,0,1,1432.043,200.74Zm1.643,5.532a1.456,1.456,0,1,0-1.807-.986A1.4,1.4,0,0,0,1433.686,206.272Z" transform="translate(-1180.761 6145.911)" fill="#ef9486" opacity="0.48"/>
    <path id="Tracé_13595" data-name="Tracé 13595" d="M1665.423,215.371s4.984-8.653,1.862-17.471" transform="translate(-1547.927 6147.108)" fill="none" stroke="#fff" stroke-linecap="round" stroke-linejoin="round" stroke-width="0.5"/>
  </g>
</svg>
