<svg id="Groupe_1794" data-name="Groupe 1794" xmlns="http://www.w3.org/2000/svg" width="25.93" height="21.753" viewBox="0 0 25.93 21.753">
  <g id="Groupe_1072" data-name="Groupe 1072" transform="translate(0 0)">
    <g id="Groupe_1071" data-name="Groupe 1071" transform="translate(0 0)">
      <path id="Tracé_11020" data-name="Tracé 11020" d="M7.316,37.554h24.1a.906.906,0,0,0,.916-.916V20.379a.906.906,0,0,0-.916-.916H24.424V16.716a.906.906,0,0,0-.916-.916H15.244a.906.906,0,0,0-.916.916v2.769H7.316A.906.906,0,0,0,6.4,20.4V36.66A.931.931,0,0,0,7.316,37.554ZM16.16,17.631h6.432v1.854H16.16Z" transform="translate(-6.4 -15.8)" fill="#f87280"/>
    </g>
    <rect id="Rectangle_1816" data-name="Rectangle 1816" width="25.93" height="1.266" transform="translate(0 12.031)" fill="#fff"/>
    <rect id="Rectangle_1817" data-name="Rectangle 1817" width="1.608" height="4.318" rx="0.804" transform="translate(6.834 10.467)" fill="#fff"/>
    <rect id="Rectangle_1818" data-name="Rectangle 1818" width="1.608" height="4.318" rx="0.804" transform="translate(17.555 10.467)" fill="#fff"/>
  </g>
</svg>
