<svg height="23.675" viewBox="0 0 26.305 23.675" width="26.305" xmlns="http://www.w3.org/2000/svg"><path d="m24.551 24h-20.167a1.754 1.754 0 0 0 -1.754 1.754v14.029h-2.192a.438.438 0 0 0 -.438.438 1.754 1.754 0 0 0 1.754 1.754h12.714v5.261a.438.438 0 0 0 .748.31l2.321-2.321 2.321 2.321a.438.438 0 0 0 .31.128.433.433 0 0 0 .168-.033.438.438 0 0 0 .271-.405v-5.261h1.315a1.754 1.754 0 0 0 1.754-1.754v-14.029h2.192a.438.438 0 0 0 .438-.438 1.754 1.754 0 0 0 -1.755-1.754zm-.759 1.315a.877.877 0 0 1 1.518 0z" fill="#f87280" transform="translate(0 -24)"/><g fill="#fff"><path d="m251.837 181.493-.562-1.006.564-1.005a.438.438 0 0 0 -.167-.6l-.033-.017-1.047-.479-.135-1.144a.438.438 0 0 0 -.487-.384l-.033.005-1.13.224-.782-.847a.452.452 0 0 0 -.639 0h-.005l-.782.847-1.13-.224a.438.438 0 0 0 -.515.345q0 .017-.005.033l-.135 1.144-1.046.48a.438.438 0 0 0 -.216.581q.008.017.017.033l.564 1-.564 1.005a.438.438 0 0 0 .167.6l.033.017 1.046.48.135 1.145a.438.438 0 0 0 .487.384l.033-.005 1.13-.224.782.847a.438.438 0 0 0 .62.024l.024-.024.782-.847 1.13.224a.432.432 0 0 0 .343-.075.438.438 0 0 0 .175-.3l.135-1.144 1.047-.48a.438.438 0 0 0 .216-.581c-.006-.01-.011-.025-.017-.032zm-1.446-.792.451.8-.838.384a.438.438 0 0 0 -.253.347l-.108.918-.906-.179a.432.432 0 0 0 -.407.132l-.626.679-.626-.678a.438.438 0 0 0 -.322-.141.4.4 0 0 0 -.085.009l-.906.179-.108-.918a.438.438 0 0 0 -.253-.347l-.838-.384.451-.8a.43.43 0 0 0 0-.429l-.451-.8.838-.384a.438.438 0 0 0 .253-.347l.108-.918.906.179a.434.434 0 0 0 .407-.132l.626-.68.626.678a.432.432 0 0 0 .407.132l.906-.179.108.918a.438.438 0 0 0 .253.347l.838.385-.451.8a.439.439 0 0 0 -.001.428z" transform="translate(-230.167 -167.773)"/><path d="m282.192 216a2.192 2.192 0 1 0 2.192 2.192 2.192 2.192 0 0 0 -2.192-2.192zm0 3.507a1.315 1.315 0 1 1 1.315-1.315 1.315 1.315 0 0 1 -1.315 1.315z" transform="translate(-264.655 -205.478)"/><path d="m5 5.045h16v1h-16z"/><path d="m5 7.046h16v1h-16z"/><path d="m6 12.046h5v2h-5z"/></g></svg>