<svg id="Groupe_1867" data-name="Groupe 1867" xmlns="http://www.w3.org/2000/svg" width="43.633" height="55.513" viewBox="0 0 43.633 55.513">
  <g id="Groupe_1069" data-name="Groupe 1069" transform="translate(0)">
    <path id="Tracé_11017" data-name="Tracé 11017" d="M69.036,19.636l-4.222-4.363.85-6.01a1.721,1.721,0,0,0-1.407-1.936L58.279,6.279,55.432.915A1.721,1.721,0,0,0,53.156.176L47.7,2.841,42.25.176a1.721,1.721,0,0,0-2.276.74L37.129,6.279l-5.98,1.048a1.721,1.721,0,0,0-1.407,1.936l.85,6.01L26.37,19.636a1.721,1.721,0,0,0,0,2.393l4.221,4.363-.85,6.013a1.721,1.721,0,0,0,1.407,1.936l4.786.839V53.792a1.721,1.721,0,0,0,2.491,1.539L47.7,50.694l9.278,4.638a1.721,1.721,0,0,0,2.491-1.539V35.181l4.786-.839a1.721,1.721,0,0,0,1.407-1.936l-.85-6.013,4.221-4.363A1.721,1.721,0,0,0,69.036,19.636ZM48.473,47.23a1.721,1.721,0,0,0-1.539,0l-7.558,3.778V39.626l.6,1.126a1.721,1.721,0,0,0,2.276.739L47.7,38.825l5.452,2.667a1.72,1.72,0,0,0,2.276-.739l.6-1.125V51.008Z" transform="translate(-25.886 0)" fill="#b5b5b5"/>
    <path id="Tracé_11018" data-name="Tracé 11018" d="M81.446,39.507A11.769,11.769,0,1,0,93.213,51.275,11.782,11.782,0,0,0,81.446,39.507Zm0,20.1a8.327,8.327,0,1,1,8.326-8.328A8.337,8.337,0,0,1,81.446,59.6Z" transform="translate(-59.628 -30.442)" fill="#b5b5b5"/>
    <path id="Tracé_11019" data-name="Tracé 11019" d="M102.827,70.073l-5.084,5.082-1.935-1.932a1.721,1.721,0,1,0-2.432,2.435l3.151,3.148a1.721,1.721,0,0,0,2.433,0l6.3-6.3a1.721,1.721,0,0,0-2.433-2.434Z" transform="translate(-77.502 -53.606)" fill="#b5b5b5"/>
  </g>
</svg>
