<svg id="Groupe_1868" data-name="Groupe 1868" xmlns="http://www.w3.org/2000/svg" width="49.902" height="41.864" viewBox="0 0 49.902 41.864">
  <g id="Groupe_1072" data-name="Groupe 1072" transform="translate(0 0)">
    <g id="Groupe_1071" data-name="Groupe 1071" transform="translate(0)">
      <path id="Tracé_11020" data-name="Tracé 11020" d="M8.162,57.664H54.54A1.743,1.743,0,0,0,56.3,55.9V24.611a1.743,1.743,0,0,0-1.762-1.762H41.086V17.562A1.743,1.743,0,0,0,39.324,15.8h-15.9a1.743,1.743,0,0,0-1.762,1.762v5.33H8.162A1.743,1.743,0,0,0,6.4,24.654V55.945A1.791,1.791,0,0,0,8.162,57.664Zm17.021-38.34H37.562v3.567H25.183Z" transform="translate(-6.4 -15.8)" fill="#c6c6c6"/>
    </g>
    <rect id="Rectangle_1816" data-name="Rectangle 1816" width="49.902" height="2.436" transform="translate(0 23.153)" fill="#c6c6c6"/>
    <rect id="Rectangle_1817" data-name="Rectangle 1817" width="3.095" height="8.31" rx="1.547" transform="translate(13.152 20.144)" fill="#c6c6c6"/>
    <rect id="Rectangle_1818" data-name="Rectangle 1818" width="3.095" height="8.31" rx="1.547" transform="translate(33.784 20.144)" fill="#c6c6c6"/>
  </g>
</svg>
