<svg id="Groupe_1869" data-name="Groupe 1869" xmlns="http://www.w3.org/2000/svg" width="50.624" height="45.561" viewBox="0 0 50.624 45.561">
  <g id="Groupe_1597" data-name="Groupe 1597" transform="translate(0 0)">
    <g id="Groupe_1596" data-name="Groupe 1596" transform="translate(0 0)">
      <path id="Tracé_13252" data-name="Tracé 13252" d="M47.249,24H8.437a3.375,3.375,0,0,0-3.375,3.375v27H.844A.844.844,0,0,0,0,55.218a3.375,3.375,0,0,0,3.375,3.375H27.843V68.717a.844.844,0,0,0,1.44.6l4.466-4.466,4.466,4.466a.844.844,0,0,0,.6.247.833.833,0,0,0,.323-.064.844.844,0,0,0,.521-.78V58.593h2.531a3.375,3.375,0,0,0,3.375-3.375v-27H49.78a.844.844,0,0,0,.844-.844A3.375,3.375,0,0,0,47.249,24Zm-1.46,2.531a1.687,1.687,0,0,1,2.921,0Z" transform="translate(0 -24)" fill="#d5d5d5"/>
    </g>
  </g>
  <g id="Groupe_1599" data-name="Groupe 1599" transform="translate(25.682 16.042)">
    <g id="Groupe_1598" data-name="Groupe 1598" transform="translate(0 0)">
      <path id="Tracé_13253" data-name="Tracé 13253" d="M259.533,186.471l-1.081-1.936,1.085-1.935a.844.844,0,0,0-.321-1.149c-.02-.011-.041-.022-.063-.032l-2.014-.922-.26-2.2a.844.844,0,0,0-.937-.738l-.064.01L253.7,178l-1.5-1.629a.869.869,0,0,0-1.229-.01l-.01.01-1.5,1.629-2.175-.431a.844.844,0,0,0-.991.664c0,.021-.008.043-.01.064l-.26,2.2L244,181.42a.844.844,0,0,0-.416,1.118q.015.032.032.063l1.085,1.933-1.085,1.935a.844.844,0,0,0,.321,1.149c.021.012.041.022.063.032l2.014.924.26,2.2a.844.844,0,0,0,.937.738l.064-.01,2.175-.431,1.5,1.629a.844.844,0,0,0,1.192.046q.024-.022.046-.046l1.5-1.629,2.175.431a.832.832,0,0,0,.66-.145.844.844,0,0,0,.338-.583l.26-2.2,2.014-.924a.844.844,0,0,0,.416-1.118C259.555,186.512,259.544,186.491,259.533,186.471Zm-2.783-1.525.868,1.549-1.613.74a.844.844,0,0,0-.486.668l-.208,1.766-1.744-.345a.832.832,0,0,0-.783.253l-1.2,1.306-1.2-1.3a.843.843,0,0,0-.619-.271.76.76,0,0,0-.164.017l-1.744.345-.208-1.766a.844.844,0,0,0-.486-.668l-1.613-.74.868-1.549a.828.828,0,0,0,0-.825v0l-.868-1.549,1.613-.74a.844.844,0,0,0,.486-.668l.208-1.766,1.744.345a.835.835,0,0,0,.783-.253l1.2-1.309,1.2,1.3a.831.831,0,0,0,.783.253l1.744-.345.208,1.766a.844.844,0,0,0,.486.668l1.613.74-.868,1.549A.844.844,0,0,0,256.749,184.946Z" transform="translate(-243.512 -176.109)" fill="#d5d5d5"/>
    </g>
  </g>
  <g id="Groupe_1601" data-name="Groupe 1601" transform="translate(29.53 20.249)">
    <g id="Groupe_1600" data-name="Groupe 1600" transform="translate(0 0)">
      <path id="Tracé_13254" data-name="Tracé 13254" d="M284.219,216a4.219,4.219,0,1,0,4.219,4.219A4.219,4.219,0,0,0,284.219,216Zm0,6.75a2.531,2.531,0,1,1,2.531-2.531A2.531,2.531,0,0,1,284.219,222.75Z" transform="translate(-280 -216)" fill="#d5d5d5"/>
    </g>
  </g>
  <g id="Groupe_1603" data-name="Groupe 1603" transform="translate(19 5.901)">
    <g id="Groupe_1602" data-name="Groupe 1602" transform="translate(0 0)">
      <rect id="Rectangle_2272" data-name="Rectangle 2272" width="12" transform="translate(0 -0.001)" fill="#d5d5d5"/>
    </g>
  </g>
  <g id="Groupe_1605" data-name="Groupe 1605" transform="translate(10 9.901)">
    <g id="Groupe_1604" data-name="Groupe 1604" transform="translate(0 0)">
      <rect id="Rectangle_2273" data-name="Rectangle 2273" width="30" height="2" transform="translate(0 -0.001)" fill="#d5d5d5"/>
    </g>
  </g>
  <g id="Groupe_1607" data-name="Groupe 1607" transform="translate(10 13.901)">
    <g id="Groupe_1606" data-name="Groupe 1606" transform="translate(0 0)">
      <rect id="Rectangle_2274" data-name="Rectangle 2274" width="30" height="2" transform="translate(0 -0.001)" fill="#d5d5d5"/>
    </g>
  </g>
  <g id="Groupe_1609" data-name="Groupe 1609" transform="translate(12 22.901)">
    <g id="Groupe_1608" data-name="Groupe 1608" transform="translate(0 0)">
      <rect id="Rectangle_2275" data-name="Rectangle 2275" width="9" height="4" transform="translate(0 -0.001)" fill="#d5d5d5"/>
    </g>
  </g>
</svg>
