<svg enable-background="new 0 0 624 741" viewBox="0 0 624 741" xmlns="http://www.w3.org/2000/svg">
    <g transform="translate(84.253 28.3)">
        <g fill="#616161">
            <path d="m436.9 631.5c3.7 0 7.2-.1 10.6 0 .7 0 1.5.2 2.2.2 7 1 7.2 6.7 4.8 10.5-1.7 2.6-3.9 4.8-6.5 6.5-8.5 5.5-18.4 8.6-28.5 9-1.2 0-3.1-.1-3.5.5-1.2 1.6-2 3.5-2.1 5.5.3 2.6.9 5.1 1.7 7.6.8 2.9 1.5 5.8 2.1 8.8.3 2.9-1.6 4.7-4.2 5.5-2.4.7-4.9-.2-6.3-2.2-3.1-3.7-5.5-7.9-7-12.4-1.2-3.7-2.6-7.4-4.2-11-1.1-1.9-2.4-3.6-3.9-5.2 1.3-.3 2.6.3 3.2 1.5 1.8 4 3.7 8.1 5.2 12.3 1.8 4.7 3.6 9.4 7.1 13.1 1.7 2.1 4.8 2.5 7 .7.6-.5 1.1-1.1 1.4-1.9.4-1 .5-2.1.2-3.2-.4-1.9-1.3-3.7-1.8-5.6-.8-2.9-1.4-5.8-1.8-8.8-.1-3.4 1.2-6.7 3.7-9.1 9.9-11.1 18.3-23.5 24.9-36.8 7.9-15.2 12.9-31.5 17.2-48 3.6-13.6 5.9-27.5 6.9-41.5.4-6.4 0-12.8-.2-19.2 0-2.9-.4-5.7-.6-8.6.2 0 .4-.1.6-.2.4.8.7 1.7.8 2.6 1.1 10.2 1.1 20.5.1 30.7-1.5 15.4-4.1 30.6-7.8 45.6-2.5 11.9-6.3 23.5-11.4 34.6-2.6 5.3-5.6 10.3-8.4 15.5-.4 1-.9 1.9-1.5 3z"/>
            <path d="m402.3 558.3c-4.6-.6-7.2-3.2-7.2-7.2 2.2 4.3 4.6 6.2 7.2 5.6s3.6-2.4 3.8-6.9c-3.1-.7-5.2-3.6-5-6.8.3-2.7 2-5.1 4.5-6.3 3-.6 6 .9 7.3 3.6.9 2.3.6 4.9-.7 7-.9 1.1-2.2 1.9-3.6 2.3-.9.2-1.5.9-1.5 1.8-.3 2.4 1.4 4.6 3.8 4.9h.9c5 0 6.9-1.8 7.9-7.2.9 2.6-.1 5.5-2.4 7-.3.3-.7.4-1.1.5-3 .4-4.1 2.5-4.6 5.1 0 1.4-1.2 2.6-2.6 2.6-.3 0-.7-.1-1-.2-.1 0-.3 0-.4 0-1.1 0-2.9.4-3.4-.1-.8-1.2-1.3-2.6-1.6-4.1 0-.5-.1-1-.3-1.6zm4.9-2c.1 5.6.6 6.6 3.1 6.4.4-1.5.9-3.1 1.3-4.6-1.5-.7-2.9-1.3-4.4-1.8zm-.1 6.9c-.4-2.9-.8-4.9-1.1-7-2.7 1.8-3 2.9-1.4 5.9.3.6 1.4.6 2.5 1.1zm3.8-19.8c1.5-2.4.9-3.6-1.6-3.8.6 1.4 1.1 2.6 1.6 3.8z"/>
            <path d="m362.5 649.1c-9.2-14.4-11-30.2-7.2-46.5 2.7-11.8 6-23.8 16.3-31.9-.1.3-.2.6-.4.9-6.2 6.2-9.5 14-11.8 22.4-3.3 11.9-4.3 24.3-2.9 36.5.7 4.6 2.2 9.1 4.5 13.1.9 1.7 1.5 3.5 2.2 5.2-.2.1-.4.2-.7.3z"/>
            <path d="m440.2 537.7c.5-.5 1.1-.9 1.6-1.3 2.5-1.8 4-4.7 4.2-7.7.3-4.1-2.8-7.6-6.9-7.8-.5 0-.9 0-1.4 0-1.6.3-3.1.8-4.5 1.6-1 .8-2.4.6-3.2-.3 0 0 0-.1-.1-.1-5.7-5.2-13.4-7.5-21-6.3-3.8.4-7.4 2-10.2 4.6-.2-.2-.3-.4-.4-.6 1.4-1.1 2.8-2.1 4.3-3 6.2-3.2 13.5-3.7 20.1-1.2 2.9 1 5.5 2.6 8.4 3.8.8.3 1.8.3 2.6.1 2.8-.9 5.4-1.6 8.3-.3 4.9 1.9 7.3 7.4 5.4 12.3-.6 1.5-1.5 2.8-2.7 3.8-1.2 1.1-2.7 2.1-4 3.1-.3-.4-.4-.6-.5-.7z"/>
            <path d="m377 557.3c-7.7-8.3-12.2-19-12.9-30.4-.5-9.6 1.7-19.1 6.5-27.5-8.7 20.5-3.7 39.5 6.4 57.9z"/>
            <path d="m384.7 655.2c-3 1.3-6 2.7-9 4-5.9 2.5-11.8 5-17.8 7.4-2.4 1-4.9 1.7-7.4 2.2-3.8.7-6-1.8-4.6-5.4.9-2.2 2.3-4.3 3.9-6 3.1-3.4 7.2-6 8.5-10.8.2.1.5.2.8.3-.1 1-.3 1.9-.8 2.8-1.8 2.3-3.7 4.4-5.6 6.6-1.4 1.3-2.6 2.7-3.7 4.2-.7 1.4-1 3-.6 4.5.5 1.7 2.5 1.9 4 1.5 3.5-.9 6.9-2.2 10.3-3.5 6.5-2.5 12.9-5.3 19.3-7.8.8-.3 1.6-.5 2.4-.7.1.2.2.5.3.7z"/>
            <path d="m360.3 575.4c-.3-.8-.5-1.1-.5-1.3 1.4-6.2-.4-12.1-1.9-17.9-2.9-10.6-4.7-21.5-5.4-32.5-.2-3.7.1-7.4.2-11.1.1-1 .5-2 1.2-2.8.1.4.2.7.2 1.1-1.6 11.1 0 22 2.2 32.8 1.3 6.3 3.4 12.5 4.6 18.8.4 3.5.5 7.1.3 10.6-.2.8-.5 1.6-.9 2.3z"/>
            <path d="m393.1 519.3c-.8-.3-1.6-.5-2.4-.7-3.2-.4-6.2 1.8-6.8 5-.7 3.1 0 6.5 1.9 9 .3.5.5 1 .6 1.6 0 .9 0 1.9-.1 2.8-.5 9.5 2.4 17.4 10.6 22.8.2.1.5.3.7.5.1 0 0 .1 0 .2-2.2-.1-5.8-2.6-7.5-5.3-3.4-5.7-6.3-11.5-5.4-18.4 0-.8-.2-1.6-.7-2.2-2.6-4.5-3.1-9.1-.4-13.8 1.7-2.9 5.1-4.2 8.4-3.3.6.4 1.1.8 1.6 1.3-.1.1-.3.3-.5.5z"/>
            <path d="m425.2 574.6c13.2-3.1 19.4-12.4 22-24.9.1.2.2.5.2.7-.6 5.7-2.4 11.3-5.2 16.2-2 3.4-5.2 6-9 7-1.4.4-2.6 1-4.1 1.3-1.2.2-2.4.3-3.7.4 0-.3-.1-.5-.2-.7z"/>
            <path d="m423.7 674.2c2.6 2.9 1.9 9.2-.9 12.7-1.9 2.3-4.6 3.6-6.7 2.6 7-2.8 7.5-8.8 7.6-15.3z"/>
            <path d="m438.6 534.2c-1-.9-1.9-1.8-2.7-2.7-.3-.3-.4-.8-.4-1.2.5-1.1 1-2.3 1.4-3.5.1-1.2 0-2.4-.2-3.5 3.1 1.1 4.1 7.6 1.9 10.9z"/>
            <path d="m452.7 528.9c.1-.6.1-1.2.2-1.9.5-4.5 1.1-9-.2-13.5-.3-.9.5-2.1.8-3.2.4.9 1.3 1.8 1.3 2.6-.2 5.1-.7 10.2-1.1 15.3-.1.2-.2.4-.3.6-.3.2-.5.2-.7.1z"/>
            <path d="m462 510.2c-2.5-4.3-1.2-8.6-1.8-13 2 1.1 2.8 7.6 1.8 13z"/>
            <path d="m428.3 536.9c-3.3-3-6.4-.5-9.5.4.1-1.9 1.6-3.4 3.5-3.4 3.2-.3 5.4.6 6 3z"/>
            <path d="m399.7 536.2c-1 0-2 .4-2.3 0-2.1-1.8-4-2.6-6.3-.3-.3.1-.6.1-.9-.1-.2-.3-.1-.6 0-.9 1.6-2.4 7.1-2.7 8.9-.5.2.5.4.9.6 1.8z"/>
            <path d="m362.3 512.8c-1.2-4.3.3-7.8 3.4-11-1.1 3.7-2.3 7.4-3.4 11z"/>
            <path d="m428 683.2c.8 2.3.1 4.9-1.8 6.4-.7.7-1.5 1.8-2.7 1 1.5-2.4 2.9-4.9 4.5-7.4z"/>
            <path d="m456.9 511.7c-.2-2.8-.4-5-.6-7.6 2 2.1 2.3 5.3.6 7.6z"/>
            <path d="m357.7 512.5c-1.7-1.5-.9-5.8 1.6-7.9z"/>
        </g>
        <path d="m407.2 556.3c1.5.6 2.8 1.2 4.5 1.8-.4 1.5-.9 3-1.3 4.6-2.6.1-3.1-.8-3.2-6.4z" fill="#fff"/>
        <path d="m407.1 563.2c-1.1-.5-2.2-.6-2.5-1.1-1.6-3-1.3-4.2 1.4-5.9.3 2.1.6 4.2 1.1 7z" fill="#fff"/>
        <path d="m410.9 543.4c-.5-1.2-1-2.4-1.6-3.8 2.5.2 3.1 1.4 1.6 3.8z" fill="#fff"/>
    </g>
    <g fill="none">
        <path d="m517.9 665.2s6.7 6.8 5.2 15.9" stroke="#fff" stroke-linecap="round" stroke-linejoin="round"
              stroke-miterlimit="10" stroke-width=".5"/>
        <path d="m512 668.7s6.7 6.8 5.2 15.9" stroke="#fff" stroke-linecap="round" stroke-linejoin="round"
              stroke-miterlimit="10" stroke-width=".5"/>
        <path d="m523.8 659.6s7.6 7.8 5.1 18.7" stroke="#fff" stroke-linecap="round" stroke-linejoin="round"
              stroke-miterlimit="10" stroke-width=".5"/>
        <path d="m537.9 666.1s-8.5 12.3-28 16.9" stroke="#fff" stroke-linecap="round" stroke-linejoin="round"
              stroke-miterlimit="10" stroke-width=".5"/>
        <path d="m536.4 662.2s-8.5 11.9-28.2 15.9" stroke="#fff" stroke-linecap="round" stroke-linejoin="round"
              stroke-miterlimit="10" stroke-width=".5"/>
        <path d="m531.9 659.9s-6.9 9.4-22 12.7" stroke="#fff" stroke-linecap="round" stroke-linejoin="round"
              stroke-miterlimit="10" stroke-width=".5"/>
        <path d="m530.6 659.9c3.2 3.5 4.7 8.2 4 12.9" stroke="#fff" stroke-linecap="round" stroke-linejoin="round"
              stroke-miterlimit="10" stroke-width=".5"/>
        <path d="m507.6 671.7c3.2 3.5 4.7 8.2 4 12.9" stroke="#fff" stroke-linecap="round" stroke-linejoin="round"
              stroke-miterlimit="10" stroke-width=".5"/>
        <path d="m476 679.2c2.1-4.2 5.7-7.6 10-9.4" stroke="#fff" stroke-linecap="round" stroke-linejoin="round"
              stroke-miterlimit="10" stroke-width=".5"/>
        <path d="m480.5 680.9c2.1-4.2 5.7-7.6 10-9.4" stroke="#fff" stroke-linecap="round" stroke-linejoin="round"
              stroke-miterlimit="10" stroke-width=".5"/>
        <path d="m469.6 678.2c2.6-4.9 6.9-8.6 12.1-10.5" stroke="#fff" stroke-linecap="round" stroke-linejoin="round"
              stroke-miterlimit="10" stroke-width=".5"/>
        <path d="m474.8 668.5c6.4.3 12.4 3.1 16.8 7.7" stroke="#fff" stroke-linecap="round" stroke-linejoin="round"
              stroke-miterlimit="10" stroke-width=".5"/>
        <path d="m471.7 671.4c6.4.3 12.4 3.1 16.8 7.7" stroke="#fff" stroke-linecap="round" stroke-linejoin="round"
              stroke-miterlimit="10" stroke-width=".5"/>
        <path d="m469 675.5c5.4-.1 10.6 1.7 14.9 5" stroke="#fff" stroke-linecap="round" stroke-linejoin="round"
              stroke-miterlimit="10" stroke-width=".5"/>
        <path d="m405.2 654.7s2.9-9 11.1-11.7" stroke="#fff" stroke-linecap="round" stroke-linejoin="round"
              stroke-miterlimit="10" stroke-width=".5"/>
        <path d="m392.3 633.4s13.9 1.8 25.9 16.7" stroke="#fff" stroke-linecap="round" stroke-linejoin="round"
              stroke-miterlimit="10" stroke-width=".5"/>
        <path d="m389.5 636.6s13.5 2 25.2 17.3" stroke="#fff" stroke-linecap="round" stroke-linejoin="round"
              stroke-miterlimit="10" stroke-width=".5"/>
        <path d="m409.6 657.3s2.3-7.2 9.1-9.3" stroke="#fff" stroke-linecap="round" stroke-linejoin="round"
              stroke-miterlimit="10" stroke-width=".5"/>
    </g>
    <path d="m544.7 599.6 3.4.7-.2 1.2c-1.1-.1-2.3-.2-3.5-.3z" fill="#fff"/>
    <path d="m564.8 624.6c-.9 1.7-3.1 2.4-4.8 1.4-1.7-.9-2.4-3.1-1.4-4.8.9-1.7 3.1-2.4 4.8-1.4 1.7 1 2.3 3.1 1.4 4.8z"
          fill="#898890"/>
    <path d="m499.5 714.6c-1.4 2.6-4.6 3.6-7.2 2.2s-3.6-4.6-2.2-7.2 4.6-3.6 7.2-2.2c2.6 1.3 3.6 4.5 2.2 7.2 0-.1 0-.1 0 0z"
          fill="#d8d7da"/>
    <path d="m410.4 692.6c-.9 1.7-3.1 2.4-4.8 1.4-1.7-.9-2.4-3.1-1.4-4.8.9-1.7 3.1-2.4 4.8-1.4 1.7.9 2.3 3.1 1.4 4.8z"
          fill="#898890"/>
    <path d="m558.9 628.9c2.6 1.4 5.8.4 7.2-2.2s.4-5.8-2.2-7.2-5.8-.4-7.2 2.2-.4 5.8 2.2 7.2zm3.3-6.2c.9.5 1.2 1.5.8 2.4-.5.9-1.5 1.2-2.4.8-.9-.5-1.2-1.5-.8-2.4.5-.9 1.6-1.3 2.4-.8z"
          fill="#ef9486" opacity=".48"/>
    <path d="m491.5 718.3c3.4 1.9 7.7.6 9.6-2.9 1.9-3.4.6-7.7-2.9-9.6-3.4-1.9-7.7-.6-9.6 2.9-1.8 3.5-.5 7.7 2.9 9.6zm5-9.4c1.7.9 2.4 3.1 1.4 4.8s-3.1 2.4-4.8 1.4c-1.7-.9-2.4-3.1-1.4-4.8 1-1.6 3.1-2.3 4.8-1.4z"
          fill="#00a5c3" opacity=".46"/>
    <path d="m409.8 686.2c-2.6-1.4-5.8-.4-7.2 2.2s-.4 5.8 2.2 7.2 5.8.4 7.2-2.2c1.3-2.6.4-5.8-2.2-7.2zm-3.3 6.2c-.9-.5-1.2-1.5-.8-2.4.5-.9 1.5-1.2 2.4-.8.9.5 1.2 1.5.8 2.4-.4.9-1.4 1.2-2.3.8 0 .1-.1.1-.1 0z"
          fill="#ef9486" opacity=".48"/>
    <path d="m526.4 685.6c-40.7-.7-61.6-20.5-72.1-54.5-8.9-28.7-13.2-58.9-19.8-88.4-5.5-24.8 1.2-39.7 27.1-50.3 43.6-17.9 77.8-48.5 103.7-93.2-43.1 28.1-134.7 97-136.1 79 0-62 35-134.4 53.9-194.7-100 137-124.6 228.1-52.3 387.8-16.5-4-24.2 3.2-28.3-.5-39.6-34.9-80 7-120.6 35.9-5.1 3.6-3.5 28-1.7 28.4 39.9 9.3 80 19.9 120.6 23.2 42.4 3.5 85.7 2.7 128-1.9 35.2-3.8 69.4-16.1 109.3-25.9-33.4-47.4-75.1-44.4-111.7-44.9z"
          fill="#dbdbdb"/>
    <path d="m594.4 339.4c-22.2 13-35.3 33.9-34.9 52.3.1 5.7 47.2-15.5 50-10.7 3.4 5.9-37.1 37-30.9 39.9 15.8 7.7 38.9 5.8 59.8-6.3 28.9-16.9 53.3-81.5 53.3-81.5s-68.4-10.6-97.3 6.3z"
          fill="#fff" stroke="#2d2d2d" stroke-miterlimit="10"/>
    <path d="m563.9 302.7c11.8 5.7 29.1 4.3 44.8-4.8 21.7-12.6 39.9-61.1 39.9-61.1s-51.1-7.9-72.8 4.7c-16.6 9.8-26.5 25.4-26.1 39.2.1 4.3 35.3-11.6 37.4-8 2.5 4.5-27.9 27.7-23.2 30z"
          fill="#fff" stroke="#2d2d2d" stroke-miterlimit="10"/>
    <path d="m497.6 363.5c8.9 4.4 22 3.3 33.8-3.6 16.4-9.6 30.1-46.2 30.1-46.2s-38.6-6-55 3.6c-12.6 7.4-20 19.2-19.7 29.6 0 3.2 26.6-8.8 28.3-6 2 3.3-21 20.9-17.5 22.6z"
          fill="#fff" stroke="#2d2d2d" stroke-miterlimit="10"/>
    <path d="m561.3 206.3c1.1 3 22.6-16.7 25-14.5 2.9 2.5-13.5 26.4-9.7 26.9 9.9 1.4 22-3.6 31.1-13.9 12.6-14.1 14.4-53.1 14.4-53.1s-38.6 6.2-51.2 20.3c-9.6 10.9-13 24.4-9.6 34.3z"
          fill="#fff" stroke="#2d2d2d" stroke-miterlimit="10"/>
    <path d="m563.3 124.5c2.9 2.5-13.5 26.4-9.7 26.9 9.9 1.4 22-3.7 31.1-13.9 12.6-14.1 14.4-53.2 14.4-53.2s-38.6 6.2-51.2 20.4c-9.7 10.9-13.1 24.4-9.6 34.3 1 3 22.6-16.7 25-14.5z"
          fill="#fff" stroke="#2d2d2d" stroke-miterlimit="10"/>
    <path d="m481 135.5c3.9 1.9 6.2-37.2 10.4-37.4 5.1-.3 11.8 38 16 34.8 10.7-7.9 17.6-24.1 16.7-42.4-1.1-25.3-36-64.4-36-64.4s-31.2 42.2-30 67.6c.9 19.4 10.4 35.6 22.9 41.8z"
          fill="#fff" stroke="#2d2d2d" stroke-miterlimit="10"/>
    <path d="m455.6 216.7c3.2.8-1.5-28.1 1.6-28.9 3.6-1 14.7 25.7 17.2 22.8 6.6-7.5 9-20.4 5.4-33.6-5-18.3-36.7-41.1-36.7-41.1s-15.9 35.7-10.9 54c3.8 14 13.3 24.3 23.4 26.8z"
          fill="#fff" stroke="#2d2d2d" stroke-miterlimit="10"/>
    <path d="m285.1 241.7c13.8 4.7 27.6 2.6 35.3-4.4 2.4-2.2-24.1-14.4-23.1-17.4 1.2-3.6 29.6 2.2 28.5-1.5-2.5-9.6-11.9-18.9-24.8-23.2-18-6.2-54.6 7.4-54.6 7.4s20.7 33 38.7 39.1z"
          fill="#fff" stroke="#2d2d2d" stroke-miterlimit="10"/>
    <path d="m194.9 205.5c13.8 4.7 27.6 2.6 35.3-4.4 2.3-2.2-24.1-14.4-23.1-17.5 1.2-3.6 29.5 2.3 28.5-1.5-2.6-9.6-11.9-18.8-24.8-23.2-18-6.1-54.6 7.4-54.6 7.4s20.7 33.1 38.7 39.2z"
          fill="#fff" stroke="#2d2d2d" stroke-miterlimit="10"/>
    <path d="m284 386.5c1.6-2.9-27.5-5.6-27.5-8.9-.1-3.8 28.6-7.7 26.4-10.8-5.6-8.2-17.5-13.9-31.1-13.8-19 .1-49.1 25-49.1 25s30.5 24.4 49.5 24.3c14.5-.1 26.8-6.7 31.8-15.8z"
          fill="#fff" stroke="#2d2d2d" stroke-miterlimit="10"/>
    <path d="m243.2 290.6c1.6-2.8-27.5-5.6-27.6-8.8 0-3.8 28.6-7.7 26.4-10.8-5.6-8.3-17.4-13.9-31.1-13.8-19 .1-49.1 25-49.1 25s30.5 24.4 49.5 24.2c14.5-.1 26.9-6.7 31.9-15.8z"
          fill="#fff" stroke="#2d2d2d" stroke-miterlimit="10"/>
    <path d="m314.4 169.6c3.2-.3-10.5-26-7.9-27.8 3.1-2.2 22.2 19.6 23.6 16 3.8-9.2 1.8-22.2-5.8-33.5-10.6-15.7-48-26.9-48-26.9s-3.4 38.9 7.3 54.6c8.1 12 20.4 18.6 30.8 17.6z"
          fill="#fff" stroke="#2d2d2d" stroke-miterlimit="10"/>
    <path d="m401.1 169.6c3.2-.3-10.5-26-7.9-27.8 3.1-2.2 22.2 19.6 23.6 16 3.7-9.2 1.8-22.2-5.8-33.5-10.6-15.7-48-26.9-48-26.9s-3.4 38.9 7.3 54.6c8.1 12 20.4 18.6 30.8 17.6z"
          fill="#fff" stroke="#2d2d2d" stroke-miterlimit="10"/>
    <path d="m484.9 221.3c-3.5 18.9 2 36.7 12.6 45.4 3.3 2.7 14.2-34.3 18.4-33.6 5 .9 2.8 39.2 7.5 37.1 12.1-5.2 22.3-19.2 25.7-37 4.6-24.6-20.2-70.1-20.2-70.1s-39.4 33.5-44 58.2z"
          fill="#fff" stroke="#2d2d2d" stroke-miterlimit="10"/>
    <path d="m380.3 259.1c11.2 15.7 27.8 24.1 41.5 22.5 4.2-.5-14.9-34.1-11.4-36.6 4.1-2.9 30.1 25.2 31.9 20.3 4.6-12.3 1.6-29.4-8.9-44.1-14.5-20.4-64.4-34.1-64.4-34.1s-3.2 51.6 11.3 72z"
          fill="#fff" stroke="#2d2d2d" stroke-miterlimit="10"/>
    <path d="m331 359.9c24.7 2.8 47.1-5.9 57.3-20.4 3.2-4.4-45.5-15.2-45-20.6.7-6.5 50.1-7.2 47.1-13.1-7.8-15-26.8-27-50.1-29.6-32.1-3.6-88.3 32.4-88.3 32.4s46.9 47.6 79 51.3z"
          fill="#fff" stroke="#2d2d2d" stroke-miterlimit="10"/>
    <path d="m390.5 398.1c-5.3-10.2-18.2-18.3-34-20.1-21.9-2.5-60.1 22.1-60.1 22.1s31.8 32.3 53.7 34.8c16.8 1.9 32-4 38.9-13.9 2.2-3-30.9-10.3-30.6-14 .6-4.4 34.2-4.8 32.1-8.9z"
          fill="#fff" stroke="#2d2d2d" stroke-miterlimit="10"/>
    <path d="m610.2 364c-25.3 14.8-40.2 38.6-39.8 59.6.1 6.5 53.7-17.7 57-12.2 3.9 6.7-42.3 42.1-35.2 45.5 18 8.7 44.3 6.6 68.1-7.2 32.9-19.3 60.7-92.9 60.7-92.9s-77.8-12.1-110.8 7.2z"
          fill="#5eb676" opacity=".67"/>
    <path d="m575.5 322.2c13.5 6.5 33.2 4.9 51-5.4 24.7-14.4 45.5-69.6 45.5-69.6s-58.2-9-83 5.4c-18.9 11.1-30.2 28.9-29.8 44.7.1 4.9 40.2-13.3 42.7-9.1 2.9 4.9-31.7 31.4-26.4 34z"
          fill="#5eb676" opacity=".67"/>
    <path d="m500 391.4c10.2 5 25.1 3.8 38.6-4.1 18.6-10.9 34.3-52.6 34.3-52.6s-44-6.8-62.7 4.1c-14.3 8.4-22.8 21.9-22.5 33.7.1 3.7 30.4-10 32.2-6.9 2.3 3.8-23.9 23.9-19.9 25.8z"
          fill="#5eb676" opacity=".67"/>
    <path d="m572.6 212.3c1.2 3.5 25.8-19 28.5-16.5 3.3 2.9-15.4 30-11 30.6 11.2 1.6 25.1-4.1 35.4-15.8 14.4-16.1 16.4-60.5 16.4-60.5s-44 7-58.3 23.2c-11 12.3-14.9 27.8-11 39z"
          fill="#5eb676" opacity=".67"/>
    <path d="m574.8 119.1c3.3 2.9-15.4 30-11 30.7 11.2 1.6 25.1-4.2 35.4-15.8 14.4-16.1 16.4-60.6 16.4-60.6s-44 7.1-58.3 23.2c-11 12.4-14.9 27.9-11 39.1 1.2 3.4 25.8-19 28.5-16.6z"
          fill="#5eb676" opacity=".67"/>
    <path d="m481.1 131.7c4.4 2.2 7-42.4 11.8-42.6 5.9-.3 13.4 43.3 18.2 39.7 12.2-9 20.1-27.5 19-48.4-1.3-28.9-41-73.4-41-73.4s-35.5 48-34.1 77c1 22.2 11.9 40.7 26.1 47.7z"
          fill="#5eb676" opacity=".67"/>
    <path d="m452.2 224.2c3.6.9-1.7-32 1.8-32.9 4.2-1.2 16.7 29.3 19.6 26 7.5-8.6 10.2-23.2 6.2-38.3-5.6-20.8-41.8-46.9-41.8-46.9s-18.1 40.7-12.4 61.5c4.2 16 15 27.7 26.6 30.6z"
          fill="#5eb676" opacity=".67"/>
    <path d="m257.8 252.7c15.7 5.4 31.4 2.9 40.3-5 2.7-2.5-27.5-16.4-26.3-19.9 1.4-4.1 33.7 2.5 32.5-1.7-2.9-11-13.5-21.5-28.2-26.5-20.5-7-62.2 8.4-62.2 8.4s23.5 37.7 43.9 44.7z"
          fill="#5eb676" opacity=".67"/>
    <path d="m155.1 211.4c15.7 5.3 31.4 2.9 40.3-5.1 2.7-2.5-27.5-16.4-26.3-19.9 1.4-4.1 33.7 2.6 32.5-1.7-2.9-11-13.6-21.4-28.3-26.5-20.5-7-62.2 8.4-62.2 8.4s23.5 37.8 44 44.8z"
          fill="#5eb676" opacity=".67"/>
    <path d="m256.7 417.6c1.8-3.3-31.3-6.4-31.3-10.1-.1-4.4 32.6-8.7 30.1-12.3-6.4-9.4-19.9-15.8-35.5-15.7-21.6.1-56 28.5-56 28.5s34.8 27.8 56.4 27.7c16.6-.2 30.6-7.7 36.3-18.1z"
          fill="#5eb676" opacity=".67"/>
    <path d="m210.1 308.4c1.8-3.2-31.4-6.4-31.4-10-.1-4.4 32.6-8.7 30.1-12.3-6.4-9.4-19.9-15.8-35.4-15.7-21.6.2-56 28.5-56 28.5s34.8 27.8 56.4 27.6c16.5-.2 30.6-7.7 36.3-18.1z"
          fill="#5eb676" opacity=".67"/>
    <path d="m291.3 170.6c3.7-.3-12-29.6-9-31.7 3.6-2.5 25.3 22.3 26.9 18.2 4.3-10.5 2.1-25.3-6.6-38.2-12.1-17.9-54.7-30.7-54.7-30.7s-3.9 44.3 8.3 62.2c9.2 13.7 23.2 21.3 35.1 20.2z"
          fill="#5eb676" opacity=".67"/>
    <path d="m390 170.6c3.7-.3-12-29.6-9-31.7 3.6-2.5 25.3 22.3 26.9 18.2 4.3-10.5 2.1-25.3-6.6-38.2-12.1-17.9-54.7-30.7-54.7-30.7s-3.9 44.3 8.3 62.2c9.2 13.7 23.3 21.3 35.1 20.2z"
          fill="#5eb676" opacity=".67"/>
    <path d="m485.5 229.4c-4 21.6 2.3 41.8 14.4 51.7 3.7 3.1 16.2-39.1 20.9-38.3 5.6 1.1 3.2 44.6 8.6 42.3 13.7-5.9 25.4-21.9 29.2-42.2 5.3-28-23-79.8-23-79.8s-44.8 38.2-50.1 66.3z"
          fill="#5eb676" opacity=".67"/>
    <path d="m366.4 272.5c12.8 17.9 31.6 27.4 47.2 25.6 4.8-.5-17-38.9-13-41.7 4.6-3.3 34.3 28.7 36.4 23.2 5.3-14 1.9-33.5-10.1-50.3-16.6-23.2-73.3-38.9-73.3-38.9s-3.8 58.8 12.8 82.1z"
          fill="#5eb676" opacity=".67"/>
    <path d="m310.2 387.3c28.1 3.1 53.6-6.7 65.3-23.2 3.7-5.1-51.9-17.3-51.2-23.5.8-7.4 57.1-8.2 53.6-14.9-8.9-17.1-30.5-30.7-57-33.7-36.6-4.2-100.6 37-100.6 37s53.3 54.2 89.9 58.3z"
          fill="#5eb676" opacity=".67"/>
    <path d="m378 430.9c-6-11.7-20.7-20.8-38.7-22.9-24.9-2.8-68.4 25.2-68.4 25.2s36.1 36.8 61.1 39.6c19.1 2.2 36.4-4.5 44.4-15.8 2.5-3.4-35.3-11.8-34.8-16 .4-5 38.7-5.5 36.4-10.1z"
          fill="#5eb676" opacity=".67"/>
    <path d="m273.2 509.9c-.3 3.5-.7 6.9-.9 10.4-.6 19.1 3.2 37.6 8.8 55.7 2.6 8.5 5.3 17 9.6 24.8 3.7 6.6 8.1 12.9 12.1 19.4.4.7.7 1.6 1 2.3-.8 0-1.7.2-2.5 0-3.6-.5-7.2-.9-10.8-.2-3.5.7-5.5 3.2-5 6.8.4 3.4 2.2 5.8 4.7 8 4.4 3.8 9.7 6 15.3 7.5 1.7.5 3.4 1.2 5.2 1.4 3.3.4 6.6.6 9.9.6 2 0 2.8.4 2.7 2.7-.2 2.7-.7 5.4-1.1 8.1-.4 2.4-.8 4.7-1.2 7.1-.1.5 0 1.1.1 1.6.6 5 4.6 5.7 7.9 3.9 1.7-.9 3.2-2.2 3.9-4 1.6-3.7 3-7.5 4.6-11.2 1.3-2.9 2.6-5.9 4.1-8.7.7-1.2 1.9-2.1 3-3.3-1.2-.1-2.3.1-3 1-1.3 1.9-2.7 3.8-3.6 5.9-1.4 3.1-2.3 6.4-3.6 9.6-.7 1.8-1.5 3.6-2.5 5.3-1.6 2.9-4.2 3.4-6.8 1.4-2.4-1.9-3-3.8-2.1-6.9 1.1-3.7 2-7.5 1.4-11.3-.4-2.4-1.6-4.7-2.4-7.1-1.3-3.6-4.6-5.5-6.7-8.4-2.9-3.9-6-7.7-8.9-11.6-6.1-8.5-11.6-17.3-16.1-26.7-3.7-7.8-6.8-16-9-24.4-2.9-10.8-5.8-21.5-7.2-32.6-1-8-.8-15.9-.3-23.9.1-1 .1-2.1.1-3.1-.2 0-.4-.1-.7-.1z"
          fill="#616161"/>
    <path d="m369.8 636.9c.7-1.2 1.4-2.4 2-3.6 3.7-7.6 5.9-15.6 5.8-24 0-6.9-.7-13.8-3.3-20.3-1.8-4.5-3.5-9.1-5.9-13.4-2.1-3.8-5-7.1-8.6-9.6-.4-.3-.8-.4-1.6-.7.3.6.4 1 .6 1.2 7.3 8.3 11.7 18 14.1 28.7 1.2 5.3 2.3 10.6 2.3 16 0 3.4-.7 6.8-1.2 10.1-.7 4.6-2.4 8.9-4.3 13.2-.3.7-.4 1.4-.6 2.1.3.1.5.2.7.3z"
          fill="#616161"/>
    <path d="m334 520.8c-.3-.4-.6-.9-1-1.1-2.2-.8-4.4-1.6-6.7-2.2-6.2-1.6-12.1-.8-17.6 2.5-1 .6-1.9 1.4-2.7 2.2-.6.6-1.2.5-2 .4-2-.3-4.1-.7-6-.5-5.9.6-8.1 7-6.6 11.7.6 1.9 1.9 3.6 3.1 5.3.6.9 1.8 1.6 3.3.5-.9-.5-1.8-.8-2.3-1.3-2.7-2.4-3.3-8.7-1.2-11.7 2.2-3.2 6.7-4.1 9.9-1.9 1.2.8 1.8.8 2.8-.3 4.8-5.1 10.9-6.5 17.6-5.5 2.8.4 5.5 1.4 8.3 2.1.3.1.7.1 1 .2-.1-.2 0-.3.1-.4z"
          fill="#616161"/>
    <path d="m351.7 643.3c.7.3 1.5.6 2.2.9 5.6 2.3 11.3 4.6 16.9 6.8 3 1.2 5.9 2.5 9 3.4 1.3.4 2.9.3 4.2 0 2.9-.7 4.1-4.3 2.1-6.7-1.9-2.4-4.2-4.5-6.6-6.5-2.3-2-4.2-4.1-5.1-7 0-.2 0-.3-.1-.4-.3-.3-.6-.6-.9-.9-.2.4-.5.8-.4 1.2.4 2.6 1.5 4.9 3.5 6.7 1.5 1.3 3.2 2.6 4.6 4.1 1.1 1.2 2.2 2.6 2.9 4.1.9 1.9.1 3.1-2 3.2-1 .1-2-.1-3-.3-6-1.2-11.4-4-17-6.3-2.6-1-5.2-1.9-7.9-2.7-.7-.2-1.6-.1-2.3-.1-.1.2-.1.4-.1.5z"
          fill="#616161"/>
    <path d="m349.9 551.3c18.2 5.2 30.6 17.5 40.6 32.8-.5-1.1-.8-2.3-1.4-3.4-4.8-8.5-11-15.9-18.8-21.7-5.5-4.1-11.6-7-18.4-8.1-.4-.1-.8-.1-1.2-.2-.1 0-.3.1-.4.1-.2.2-.3.3-.4.5z"
          fill="#616161"/>
    <path d="m338.9 521.1c.8 0 1.2-.1 1.6 0 1.3.3 2.9.4 3.8 1.2 2.5 2.3 4.1 5.1 3.4 8.7-.1.4-.2 1-.4 1.1-1.6.9-1.1 2.4-1.1 3.8.1 2.3.2 4.6.1 6.9-.2 3.8-1.8 7.1-4.5 9.8-.7.6-1.2 1.4-1.8 2.1.1.2.2.3.3.5.4-.2 1-.4 1.3-.7 5.5-5.3 7.2-11.8 6.3-19.1-.1-1.1 0-1.9.6-2.9 1.7-2.9.9-5.8-.5-8.6-1.2-2.4-3-4.1-5.9-4.4-1.3-.1-2.2.3-3.2 1.6z"
          fill="#616161"/>
    <path d="m289.5 546.2c.7 2.7 1.2 5.5 2.2 8.1 1.8 4.6 4.6 8.6 8 12.2 1.8 1.9 4 3 6.6 3.4 1.2.2 2.5.2 3.3-1.1-1.6-.5-3.2-.8-4.7-1.3-3.7-1.3-5.6-4.5-7.8-7.3-2.8-3.7-5-7.7-6.4-12.2-.2-.6-.5-1.2-.8-1.9-.1.1-.3.1-.4.1z"
          fill="#616161"/>
    <path d="m300.1 525.4c-1.7 2.3-2.8 4.8-2.6 7.8.2 2.2.9 2.5 2.8 1.4 1.3-.7 1.4-2.1.8-3.5-.5-1.3-.5-2.7-.6-4.1-.1-.5.1-1 .1-1.6-.1 0-.3 0-.5 0z"
          fill="#616161"/>
    <path d="m285.5 514.1c-3.1 1.4-2.1 13.7 1 17.4-1.5-5.7-2.3-11.3-1-17.4z" fill="#616161"/>
    <path d="m390.1 596.4c1.2-2.9-2.2-11.8-4.9-12.6 1.7 4.3 3.3 8.4 4.9 12.6z" fill="#616161"/>
    <path d="m383.8 588.4c1.1 2.7 2.2 5.5 3.4 8.3 1.4-2.1-.5-7.5-2.8-8.5-.3.1-.5.2-.6.2z" fill="#616161"/>
    <path d="m278.2 505.7c-2.1 1.5-2.2 7.3-.4 8.8.1-2.8.3-5.7.4-8.8z" fill="#616161"/>
    <path d="m334.3 536.9c1.4-2.2 3.4-2 5.5-1.2.1-1.3-.8-1.5-1.6-1.7-1.7-.5-3.5 0-4.2 1.2-.3.5-.2 1.1-.3 1.6.2 0 .4 0 .6.1z"
          fill="#616161"/>
    <path d="m281.9 516.2c0-2.6-.1-4.8-.1-7.2-1.8 1.4-1.9 5.1.1 7.2z" fill="#616161"/>
    <path d="m384.6 597.8c.9-1.9.3-3.4-.6-4.8-.2-.3-.8-.4-1.2-.5 0 .4-.1.9 0 1.2.5 1.3 1.2 2.7 1.8 4.1z"
          fill="#616161"/>
    <path d="m330.8 556.5c-.3 1.1-.4 2.4-1 3.2-.4.5-1.7.2-2.7.3-.1 0-.2 0-.3 0-1.6.5-2.5-.1-2.9-1.7-.5-2-1.4-3.6-3.8-3.8-.3 0-.6-.2-.9-.3-1.8-.9-2.9-3.5-2.2-5.3 1 4.2 2.6 5.5 6.5 5.2 2.3-.1 3.6-1.7 3.4-4-.1-.8-.4-1.1-1.2-1.3-1-.3-2.3-.8-2.9-1.6-1.2-1.6-1.4-3.5-.8-5.4.6-2.1 3.6-3.7 5.5-3.1 1.8.6 3.6 2.8 3.7 4.7.3 2.8-1 4.6-3.5 5.6.3 3.5 1.2 4.9 3.3 5.2 2 .3 3.8-1.2 5.3-4.7.2 3.1-1.7 5.3-5.3 5.9-.1.3-.1.7-.2 1.1zm-7-1c.4 1.1.8 2.3 1.3 3.5 2 0 2.3-.7 2.1-5.1-1.2.5-2.2 1-3.4 1.6zm5.7 2.8c1.2-2.4.9-3.3-1.3-4.5-.2 1.7-.3 3.2-.6 5.5.9-.5 1.7-.6 1.9-1zm-4.7-17.3c-2 .3-2.4 1.2-1.1 3 .3-.9.7-1.9 1.1-3z"
          fill="#616161"/>
    <path d="m327.1 553.8c-1.1.5-2.2 1-3.4 1.6.4 1.1.8 2.3 1.3 3.5 2 .1 2.3-.7 2.1-5.1z" fill="#fff"/>
    <path d="m327.6 559.3c.9-.4 1.7-.6 1.9-1 1.2-2.4.9-3.3-1.3-4.5-.2 1.6-.4 3.2-.6 5.5z" fill="#fff"/>
    <path d="m323.7 544c.3-.9.7-1.9 1.1-3-2 .3-2.4 1.2-1.1 3z" fill="#fff"/>
    <path d="m309.9 538.4c2.4-2.5 4.9-.7 7.4-.1-.2-1.6-1.2-2.3-2.9-2.5-2.5-.2-4.1.6-4.5 2.6z" fill="#616161"/>
    <path d="m315.5 664c-1.7 2.9-.2 8.3 2.8 10.8 2 1.7 4.5 2.3 6.1 1.2-6.4-1.3-7.7-6.4-8.9-12z" fill="#616161"/>
    <path d="m313.2 672.4c-.4 1.9.6 4.1 2.6 5.3.7.5 1.6 1.4 2.5.5-1.7-2-3.4-3.8-5.1-5.8z" fill="#616161"/>
    <path style="fill:none;stroke:#fff;stroke-width:.5;stroke-linecap:round;stroke-linejoin:round;stroke-miterlimit:10"
          d="m305.9 626.8s-6 6.6-4.1 14.7"/>
    <path style="fill:none;stroke:#fff;stroke-width:.5;stroke-linecap:round;stroke-linejoin:round;stroke-miterlimit:10"
          d="m311.6 629.6s-6 6.6-4.1 14.7"/>
    <path style="fill:none;stroke:#fff;stroke-width:.5;stroke-linecap:round;stroke-linejoin:round;stroke-miterlimit:10"
          d="m300.2 622.1s-6.7 7.6-3.9 17.2"/>
    <path style="fill:none;stroke:#fff;stroke-width:.5;stroke-linecap:round;stroke-linejoin:round;stroke-miterlimit:10"
          d="m287.3 628.9s8.5 10.6 27 13.5"/>
    <path style="fill:none;stroke:#fff;stroke-width:.5;stroke-linecap:round;stroke-linejoin:round;stroke-miterlimit:10"
          d="m288.5 625.2s8.5 10.2 27.1 12.6"/>
    <path style="fill:none;stroke:#fff;stroke-width:.5;stroke-linecap:round;stroke-linejoin:round;stroke-miterlimit:10"
          d="m292.6 622.9s6.9 8.1 21.2 10.1"/>
    <path style="fill:none;stroke:#fff;stroke-width:.5;stroke-linecap:round;stroke-linejoin:round;stroke-miterlimit:10"
          d="m293.8 622.8s-4.8 5.3-3.1 11.9"/>
    <path style="fill:none;stroke:#fff;stroke-width:.5;stroke-linecap:round;stroke-linejoin:round;stroke-miterlimit:10"
          d="m315.9 632s-4.8 5.3-3.1 11.9"/>
    <path d="m132.3 387.4s-19.7-11.6-15.4-33.7 28.8-21.8 32.2-3.9c0 0 4.3 24-14.5 37.6l2.2 2.2c-.8 1.2-2.1 2-3.5 2.2-1.3 0-2.6-.4-3.8-1.2z"
          fill="none" stroke="#727272" stroke-linecap="round" stroke-linejoin="round"/>
    <path d="m133.2 391.7s-8.3 11.8-1.2 22.3c7.1 10.4 11.2 11.1 11.4 16s-10 6.7-10.6 13.6 10.2 5.5 10.6 10.7c.4 5.1-12.8 6.1-12.6 12.8"
          fill="none" stroke="#727272" stroke-linecap="round" stroke-linejoin="round"/>
    <ellipse cx="138.5" cy="358.1" fill="#f09587" opacity=".48" rx="9.3" ry="19"/>
    <path d="m36.1 142.3s-21.9-12.9-17.1-37.5 32-24.2 35.9-4.3c0 0 4.8 26.6-16.1 41.8l2.4 2.4c-.9 1.4-2.3 2.2-3.9 2.4-1.5 0-2.9-.5-4.2-1.4z"
          fill="none" stroke="#727272" stroke-linecap="round" stroke-linejoin="round"/>
    <path d="m37.2 147.1s-9.2 13.2-1.4 24.8c7.9 11.6 12.5 12.3 12.7 17.8s-11.1 7.5-11.8 15.1c-.7 7.7 11.4 6.1 11.8 11.8s-14.3 6.8-14 14.3"
          fill="none" stroke="#727272" stroke-linecap="round" stroke-linejoin="round"/>
    <ellipse cx="43" cy="109.8" fill="#00a6c4" opacity=".46" rx="10.3" ry="21.2"/>
</svg>
