<svg id="Calque_1" data-name="Calque 1" xmlns="http://www.w3.org/2000/svg" viewBox="0 0 328 329"><defs><style>.cls-1{fill:#dae6fe;}.cls-2{fill:#fff;}.cls-3{fill:#b2ccfc;}</style></defs><title>Sans titre - 3</title><circle class="cls-1" cx="164.5" cy="164.5" r="159.5"/><g id="qDilPz"><path d="M98.89,259.1V221.55c-3.67,0-7.09.07-10.5,0C79.18,221.29,75,217,75,207.86q0-50.49,0-101c0-9.74,4.22-14,14-14q82.74,0,165.48,0c8.37,0,13.5,5,13.51,13.25q.09,51,0,102c0,8.61-4.82,13.24-14,13.34-13,.15-26,0-39,0-24.5,0-49,.1-73.5,0a10.47,10.47,0,0,0-8.25,3.54c-10.11,10.36-20.41,20.53-30.66,30.75C101.75,256.71,100.73,257.49,98.89,259.1Z"/><path class="cls-2" d="M147,157.12a8.23,8.23,0,0,0-7.77-8.12c-4.2-.1-8.24,4-8.2,8.28a7.91,7.91,0,0,0,8.37,7.86A7.61,7.61,0,0,0,147,157.12Zm32.33.17a8.45,8.45,0,0,0-8.21-8.29,8.71,8.71,0,0,0-8,8.09,7.93,7.93,0,0,0,8.28,8A7.71,7.71,0,0,0,179.35,157.29Zm24.29,7.83a8.06,8.06,0,0,0,7.94-8c0-4.28-4.26-8.39-8.43-8.17a8.49,8.49,0,0,0-7.62,8.43A7.76,7.76,0,0,0,203.64,165.12Z"/><path d="M147,157.12a7.61,7.61,0,0,1-7.6,8,7.91,7.91,0,0,1-8.37-7.86c0-4.31,4-8.38,8.2-8.28A8.23,8.23,0,0,1,147,157.12Z"/><path d="M179.35,157.29a7.71,7.71,0,0,1-7.92,7.84,7.93,7.93,0,0,1-8.28-8,8.71,8.71,0,0,1,8-8.09A8.45,8.45,0,0,1,179.35,157.29Z"/><path d="M203.64,165.12a7.76,7.76,0,0,1-8.11-7.69,8.49,8.49,0,0,1,7.62-8.43c4.17-.22,8.41,3.89,8.43,8.17A8.06,8.06,0,0,1,203.64,165.12Z"/></g><path class="cls-3" d="M107,238.65c7.78-7.79,14.56-14.37,21.1-21.18a14.79,14.79,0,0,1,11.71-5c37.48.24,75,.14,112.44.13,6.52,0,7.53-1,7.54-7.53q0-49,0-97.95c0-6.11-.93-7-6.87-7q-81.71,0-163.41,0c-5.84,0-6.66.81-6.66,6.66q0,49.49,0,99c0,6,.9,6.87,7,6.91,5.58.05,11.17,0,17.15,0Z"/><path d="M146,157.12a7.61,7.61,0,0,1-7.6,8,7.91,7.91,0,0,1-8.37-7.86c0-4.31,4-8.38,8.2-8.28A8.23,8.23,0,0,1,146,157.12Z"/><path d="M178.35,157.29a7.71,7.71,0,0,1-7.92,7.84,7.93,7.93,0,0,1-8.28-8,8.71,8.71,0,0,1,8-8.09A8.45,8.45,0,0,1,178.35,157.29Z"/><path d="M202.64,165.12a7.76,7.76,0,0,1-8.11-7.69,8.49,8.49,0,0,1,7.62-8.43c4.17-.22,8.41,3.89,8.43,8.17A8.06,8.06,0,0,1,202.64,165.12Z"/></svg>