<?xml version="1.0" encoding="utf-8"?>
<!-- Generator: Adobe Illustrator 22.1.0, SVG Export Plug-In . SVG Version: 6.00 Build 0)  -->
<svg style="enable-background:new 0 0 579.6 563.9;" version="1.1" viewBox="0 0 579.6 563.9" x="0px"
     xmlns="http://www.w3.org/2000/svg" y="0px" xml:space="preserve">
<style type="text/css">
	.st0{opacity:0.55;fill:#2BB9D2;}
	.st1{fill:#EE717C;}
	.st2{fill:#636362;}
	.st3{fill:#F0F0F1;}
	.st4{opacity:0.55;}
	.st5{fill:#2BB9D2;}
	.st6{fill:#D9072A;}
	.st7{opacity:0.54;fill:#2BB9D2;}
	.st8{fill:#676767;}
	.st9{fill:#FFFFFF;}
	.st10{fill:none;stroke:#FFFFFF;stroke-width:0.5;stroke-linecap:round;stroke-linejoin:round;stroke-miterlimit:10;}
	.st11{fill:#FFFFFF;stroke:#3E3E3E;stroke-width:5;stroke-miterlimit:10;}
	.st12{opacity:0.69;}
	.st13{fill:#070707;}
	.st14{fill:none;stroke:#FFFFFF;stroke-width:0.25;stroke-linecap:round;stroke-linejoin:round;stroke-miterlimit:10;}
	.st15{fill:none;stroke:#636362;stroke-width:2;stroke-linecap:round;stroke-linejoin:round;stroke-miterlimit:10;}
	.st16{fill:none;stroke:#636362;stroke-width:2;stroke-miterlimit:10;}
	.st17{fill:#636362;stroke:#636362;stroke-width:2;stroke-linecap:round;stroke-linejoin:round;stroke-miterlimit:10;}
	.st18{opacity:0.6;fill:#2BB9D2;}
	.st19{fill:#00A6C5;}
	.st20{fill:none;stroke:#EE717C;stroke-width:8;stroke-miterlimit:10;}
	.st21{fill:none;stroke:#444444;stroke-width:4;stroke-miterlimit:10;}
	.st22{fill:#FFFFFF;stroke:#454545;stroke-width:4;stroke-miterlimit:10;}
	.st23{opacity:0.57;fill:#2BB9D2;}
	.st24{fill:none;stroke:#636362;stroke-width:4;stroke-miterlimit:10;}
	.st25{fill:none;stroke:#636362;stroke-linecap:round;stroke-linejoin:round;stroke-miterlimit:10;}
	.st26{fill:none;stroke:#636362;stroke-miterlimit:10;}
	.st27{fill:none;stroke:#000000;stroke-miterlimit:10;}
	.st28{opacity:0.48;fill:#F09687;}
	.st29{opacity:0.46;fill:#00A6C5;}
	.st30{opacity:0.67;fill:#60B676;}
	.st31{fill:#FFFFFF;stroke:#636362;stroke-linecap:round;stroke-linejoin:round;stroke-miterlimit:10;}
	.st32{opacity:0.81;fill:#EE717C;}
	.st33{opacity:0.52;fill:#2BB9D2;}
</style>
    <g id="dessin">
	<g>
		<g>
			<path class="st1"
                  d="M65.8,275.1H42.7c-3.2,0-5.8,2.6-5.8,5.8s2.6,5.8,5.8,5.8h23.1c3.2,0,5.8-2.6,5.8-5.8S69,275.1,65.8,275.1z"
            />
		</g>
	</g>
        <g class="st4">
		<g>
			<path class="st5" d="M250.3,290.7c-1.1-3.5-23.1-50.1-31.4-55.2c-8.6-5.2-59.9-6.6-66.5-6.6c-6.6,0-57.9,1.4-66.5,6.6
				c-8.2,5-30.3,51.7-31.4,55.2c-1,3,0.7,6.3,3.8,7.3c3.1,1,6.3-0.7,7.3-3.8c1.8-5.7,21.8-44.8,26.2-48.7c4.9-2.3,40.9-5,60.6-5
				s55.8,2.7,60.2,4.7c4.8,4.2,24.8,43.2,26.6,49c0.8,2.5,3.1,4,5.5,4c0.6,0,1.2-0.1,1.8-0.3C249.6,296.9,251.3,293.7,250.3,290.7z"
            />
		</g>
	</g>
        <g class="st12">
		<g>
			<path class="st5" d="M65.8,390.6c-2.7,0-4.9,1.9-5.5,4.4l-34.9-8.7v-1.4c0-3.2-2.6-5.8-5.8-5.8s-5.8,2.6-5.8,5.8v23.1
				c0,9.6,7.8,17.3,17.3,17.3h23.1c9.6,0,17.3-7.8,17.3-17.3v-11.5C71.6,393.2,69,390.6,65.8,390.6z"/>
		</g>
	</g>
        <g class="st12">
		<g>
			<path class="st5" d="M285.2,379c-3.2,0-5.8,2.6-5.8,5.8v1.4l-34.9,8.7c-0.6-2.5-2.8-4.4-5.5-4.4c-3.2,0-5.8,2.6-5.8,5.8v11.5
				c0,9.6,7.8,17.3,17.3,17.3h23.1c9.6,0,17.3-7.8,17.3-17.3v-23.1C291,381.6,288.4,379,285.2,379z"/>
		</g>
	</g>
        <g>
		<g>
			<path class="st1" d="M262.1,275.1H239c-3.2,0-5.8,2.6-5.8,5.8s2.6,5.8,5.8,5.8h23.1c3.2,0,5.8-2.6,5.8-5.8
				S265.3,275.1,262.1,275.1z"/>
		</g>
	</g>
        <g>
		<g>
			<path class="st1" d="M290.5,329.6l-15.8,3.2c-1.9,0.3-40.7,5.9-50.5,5.9c-1.4,1.1-2.7,8.5-2.5,15.5c35.2-1.7,62.6-3.9,63-3.9
				l6.2-0.8C291,341.7,290.8,335.1,290.5,329.6z"/>
		</g>
	</g>
        <g class="st4">
		<g>
			<path class="st5" d="M281.1,304.2c-2.6-0.8-3.9-2.6-6.5-6.5l-2-2.9c-3.5-4.8-10.1-5-16.6-5.2c-1.9-0.1-5-0.1-6.5-0.5
				c-0.5-0.7-1.2-1.3-2-1.8c-10.8-5.9-51.6-12.3-95.2-12.3s-84.4,6.3-95.2,12.3c-0.8,0.4-1.5,1.1-2,1.8c-1.5,0.3-4.5,0.4-6.5,0.5
				c-6.4,0.2-13.1,0.4-16.6,5.2l-2,2.9c-2.6,3.8-3.9,5.7-6.5,6.5c-4.5,1.3-7,6-8.4,14.4l11.4,2.9c0.2,0,37.9,5.6,50.6,5.6
				c4.4,0,8.2,1.7,11.1,4.8c6.1,6.6,6.4,18.2,6.3,22.7c18.6,0.8,38.6,1.3,57.7,1.3c19.1,0,39.1-0.6,57.7-1.3
				c-0.1-5.1,0.2-17.9,5.9-23.9c2.2-2.4,5.1-3.6,8.2-3.6c7.5,0,37.6-4.1,48.6-5.7l16.5-3.3C288,309.9,285.5,305.5,281.1,304.2z
				 M192.8,344.4H112c-3.2,0-5.8-2.6-5.8-5.8c0-3.2,2.6-5.8,5.8-5.8h80.8c3.2,0,5.8,2.6,5.8,5.8C198.6,341.8,196,344.4,192.8,344.4z
				"/>
		</g>
	</g>
        <g class="st12">
		<g>
			<path class="st5" d="M286,361.7c-1,0.1-72.5,5.8-133.6,5.8s-132.6-5.7-133.3-5.8l-5-0.5c0.6,12.5,2.6,31.3,8.5,34.5
				c6.2,3.3,78.4,6.4,129.7,6.4s123.5-3.1,129.7-6.5c6-3.2,7.9-22.1,8.5-34.6L286,361.7z"/>
		</g>
	</g>
        <g>
		<g>
			<path class="st1" d="M80,339.7c-0.7-0.8-1.5-1.1-2.6-1.1c-13.6,0-51.2-5.6-52.8-5.8l-10.3-2.6c-0.3,5.5-0.4,11.9-0.4,19.3
				l6.4,0.7c0.4,0,27.8,2.2,63,3.9C83.3,349.9,82.7,342.6,80,339.7z"/>
		</g>
	</g>
        <g>
		<path class="st2" d="M450.8,196.1c1.4,0.9,2.9,1.6,4.2,2.6c18.6,12.6,28.4,31.3,37.1,51.1c8,18.4,13.9,37.4,16.9,57.1
			c3.5,23.2,5,46.6,0.8,70c-0.6,3.3,1.2,3.5,3.7,3.6c9.6,0.6,19.2,1.1,28.7,2.4c5.4,0.7,10.8,2.6,15.9,4.7c7.9,3.2,9.6,9.8,5.6,17.2
			c-3.4,6.4-9.1,9.4-15.4,11.8c-15.1,5.9-30.6,9.9-46.7,5.3c-6-1.7-11.4-5.4-17.1-8c-1.3-0.6-3.2-1.4-4.2-0.8
			c-9,4.5-18.8,4.8-28.5,5.9c-12.1,1.4-24.2,3.1-36.3,3.4c-12.3,0.3-24.6-0.7-36.8-1.5c-2.4-0.2-4.8-1.8-6.9-3.2
			c-3.1-2.1-2.8-6.3,0.3-9.6c4.9-5.3,11.4-7,18.2-8.1c6.4-1,13-1.4,19.3-2.9c5.4-1.3,10.6-3.7,15.8-5.6c-3.8,3.8-8,7.2-13.9,8.2
			c-7.1,1.2-14.1,2.6-21.1,4.1c-2.3,0.5-4.9,1.2-6.8,2.6c-1.7,1.2-3.6,3.5-3.6,5.2c0.1,1.7,2.2,4.2,3.9,4.9c3.3,1.3,7.1,1.9,10.7,2
			c24.3,0.8,48.4-2.4,72.3-6.1c16-2.5,32.4-19.1,35.6-35.2c-0.2-0.1-0.5-0.4-0.7-0.3c-13.7,5-28.2,5.1-42.5,5.6
			c-20.4,0.8-40.9,1.4-61.3,1.5c-10.1,0.1-20.3-1-30.4-1.6c-1.3-0.1-2.7-0.7-4-1.1c0.1-0.5,0.1-0.9,0.2-1.4
			c4.2,0.1,8.4,0.2,12.6,0.3c10.4,0.4,20.8,1.3,31.2,1.1c22.3-0.6,44.6-1.7,66.9-2.8c9.2-0.5,18.3-1.8,26.8-5.9
			c2.3-1.1,3.5-2.5,3.7-5.2c1.7-21.1,0.6-41.9-3.7-62.6c-0.5-2.5-1-5-1.4-7.6c-0.4-2.7-1.5-3.6-4.4-2.9c-3.7,0.9-7.5,1.2-11.2,1.4
			c-1.3,0.1-2.6-0.8-3.9-1.2c0.1-0.5,0.1-1,0.2-1.4c1.5-0.3,3-0.6,4.5-0.8c1.9-0.3,3.8-0.3,5.7-0.6c6.7-1.1,7.5-2.2,5.9-8.7
			c-1.6-6.2-3.3-12.5-5.9-18.6c-2.4,5.9-4.5,11.9-7.3,17.5c-5.8,11.8-14.5,21.4-25.6,28.3c-9,5.7-18.6,10.5-28.1,15.2
			c-3.6,1.8-7.7,2.4-11.7,3.2c-1.2,0.2-2.6-0.6-3.9-1c1-1,2-2.6,3.1-2.8c10.3-1.8,19.8-5.6,28.8-10.6c18.8-10.5,32.6-24.9,37.7-46.5
			c2.4-10.1,1.3-19.5-3.4-29.1c-7.3-14.8-17.1-27.5-28.7-39.1c-0.7-0.7-1.3-1.5-1.9-2.3C450.2,196.9,450.5,196.5,450.8,196.1z"/>
            <path class="st2" d="M341.2,322.5c-0.1,1.1-0.1,2.3-0.4,3.4c-4.5,16.6-3.9,33.2,0.6,49.7c1.5,5.6,4.2,10.8,6.7,16.1
			c0.6,1.3,2.5,2.1,3.9,2.9c0.9,0.6,2,0.8,3,2.2c-0.9,0.3-1.8,0.7-2.8,0.8c-6.8,1-13.6,2-20.4,3c-0.8,0.1-1.7,0.2-2.4,0.5
			c-2.7,1.2-5.8,2.2-5.7,5.9c0.1,3.8,3.1,4.4,5.9,4.9c10.2,1.7,20.5,3.4,30.7,5.1c0.9,0.2,2,0.1,2.8,0.5c0.8,0.4,1.4,1.3,2.1,2
			c-0.9,0.7-1.7,2-2.6,2c-2.7,0.1-5.4-0.3-8.1-0.6c-8.7-1-17.5-1.8-26.2-3.2c-3.5-0.6-7-2.2-10-4.1c-5.3-3.5-5.1-9.9,0.6-12.8
			c4.3-2.2,9.4-3,14.2-4.4c1.3-0.4,2.7-0.2,4-0.3c4.1-0.5,4.9-1.5,3.2-5.3c-5.7-12.9-7.1-26.6-7.1-40.5c0-6.8,1.2-13.7,2.4-20.5
			c0.5-2.8,2.5-5.3,3.8-8C340.2,322.1,340.7,322.3,341.2,322.5z"/>
            <path class="st2" d="M445.8,186.5c1.4-2.3,3.1-4.4,4.1-6.9c1.8-4.6,3.8-9.3,4.7-14.1c1-5.7-2-10.2-6.9-13.2c-4.4-2.7-8.5-1-12,1.7
			c-2.4,1.9-4.1,1.5-6.4-0.2c-15.6-11.2-32.9-15.3-51.6-10.9c-15.2,3.6-26.4,13-33.6,27.1c-0.6,1.2-1.4,2.3-2.8,4.5
			c-1.4-5.1,0.6-8.3,2.4-11.3c5.3-9,13.5-14.8,22.5-19.2c19.2-9.4,38.6-6.7,58-0.5c0.3,0.1,0.5,0.2,0.7,0.3
			c4.3,3.3,8.2,3.6,13.9,1.7c7.4-2.5,14.7,0.1,19,10.8c3.4,8.6-1,24.1-8.4,29.6c-0.8,0.6-1.8,0.9-2.7,1.4
			C446.3,187,446.1,186.8,445.8,186.5z"/>
            <path class="st2" d="M372,181.5c-0.7,0.5-0.8,0.6-0.9,0.6c-1.7,0.6-4.6,0.9-4.9,1.9c-0.8,2.8,1.1,4.4,3.7,5.8
			c1.1,0.6,1.8,3.6,1.3,5.1c-1.5,5.1-5,8.2-10.4,8.9c-5.5,0.7-9.6-1.7-12.5-5.9c-1.8-2.6-2.8-5.9-3.3-9.1c-1-5.8,2.2-11.4,7.6-14
			c5.5-2.6,13.3-1.6,17,2.5C370.6,178.5,371.2,180.1,372,181.5z"/>
            <path class="st2" d="M433.3,243.7c-8.2-0.2-14.6,8.7-12.7,15.5c0.6,2.1,0.3,5-0.7,6.8c-4.4,7.6-9.2,15-14,22.4
			c-0.8,1.2-2.4,2-3.6,2.9c0.4-1.6,0.4-3.3,1.2-4.6c3.9-6.7,7.9-13.2,12-19.8c1.6-2.5,2.2-4.9,1.5-8c-2.3-10.8,5.5-19.9,16.4-19.6
			c3.6,0.1,4.6,1.5,3.4,4.8c-0.7,1.9-1.5,3.8-2.2,5.7c0,0.1,0.1,0.2,0.3,0.8c1.1-1.8,1.9-3.5,2.9-4.9c0.8-1.1,2.3-2.9,3-2.7
			c1.3,0.3,2.6,1.8,3.3,3c4.8,8.7,0.9,20.5-8.4,24.8c-3.7,1.7-6,4.3-7.8,7.7c-3.2,6.1-6.7,12.1-10.2,18c-0.7,1.3-2.1,2.2-3.2,3.2
			c-0.4-0.3-0.8-0.6-1.2-0.9c0.4-1,0.6-2.1,1.2-3.1c4.5-8,8.9-16.1,13.6-24c0.8-1.4,2.9-2.3,4.5-3c9.1-3.7,13.1-13,8.5-21.7
			c-2,3.4-3.8,6.4-5.7,9.4c-0.8,1.3-1.6,2.5-2.4,3.8c-1,1.6-2.1,2.9-4.2,1.4c-1.9-1.3-2.9-2.6-1.6-5
			C429.3,252.5,431.1,248.3,433.3,243.7z"/>
            <path class="st2" d="M398.2,304.9c-0.2-2.2-0.5-4.3-0.6-6.5c-0.1-8.1-0.2-16.2,0.1-24.3c0.1-4.3-2.7-3.8-5.4-4.1
			c-3.2-0.4-3.6,1.4-3.5,3.9c0.1,8.8,0.1,17.6,0,26.4c0,1.5-0.9,3-1.4,4.5c-0.6-1.6-1.7-3.2-1.8-4.8c0-8.5,0-17.1,0.4-25.6
			c0.2-4-1.6-5.4-5-5.6c-4.2-0.3-8.4-0.7-12.5-0.9c-2.8-0.1-4.6-1-4.7-4.3c-0.1-2.9,1.4-3.5,3.9-4.4c3.7-1.3,7.2-3.6,10.1-6.2
			c1.7-1.6,3-2.2,5.2-2c6.5,0.7,12.9,1.4,19.4,1.7c3,0.2,4.2,1.5,4.4,4.1c0.2,3.5,0.2,7,0.1,10.5c-0.1,2.3-0.3,4.8-3.9,4
			c-0.5-0.1-2,2-2,3.1c-0.3,7.4-0.2,14.9-0.4,22.3c-0.1,2.7-0.4,5.4-0.7,8.1C399.3,304.9,398.8,304.9,398.2,304.9z M404.4,255.8
			c-4.3-0.4-8.2-0.8-12.1-1.1c-5.7-0.4-11.2-0.8-15.7,4.1c-1.6,1.7-4.5,2.3-6.7,3.6c-0.8,0.5-1.2,1.4-1.8,2.2
			c0.7,0.5,1.3,1.3,2.1,1.4c10.1,0.7,20.2,1.3,30.3,1.7c0.9,0,2.6-1.1,2.8-2C403.9,262.6,404,259.5,404.4,255.8z"/>
            <path class="st2" d="M342.3,241.9c-0.5,1.6-0.7,2.9-1.3,3.9c-8.1,12.8-8,26.6-4.8,40.8c2.6,11.4,6.6,22.3,13.3,32
			c0.4,0.6,1,1.2,1,1.7c0,1.3-0.3,2.7-0.4,4c-1.2-0.5-2.7-0.6-3.4-1.4c-6.2-7.4-11.8-15.3-13.8-25c-2.7-12.7-4.3-25.5-1.2-38.2
			c1.4-5.6,4.9-10.7,7.5-16c0.3-0.6,0.9-1,1.4-1.4C340.7,242.2,341.2,242.2,342.3,241.9z"/>
            <path class="st2" d="M443.7,330.1c-0.1,2-0.4,4.1-0.1,6.1c0.8,6.5,1.6,13.1,2.8,19.6c0.4,2.4-0.5,3-2.3,3.3
			c-3.2,0.6-6.4,1.1-9.6,1.4c-14.3,1.4-28.5,2.7-42.8,4c-4,0.4-6.3-1.3-6.4-5.3c-0.2-7.5-0.3-15.1-0.2-22.6c0-1.2,0.8-2.3,1.3-3.4
			c0.4,0,0.7,0.1,1.1,0.1c0.2,0.9,0.5,1.9,0.6,2.8c0.3,7.2,0.5,14.3,0.7,21.5c0.1,3.4,1.7,4.1,5,3.7c14-1.5,28-2.7,42-4
			c1.1-0.1,2.1-0.3,3.2-0.5c2.9-0.5,3.7-1.9,3.4-5.1c-0.6-6.4-0.3-12.9-0.3-19.4c0-0.7,0.4-1.4,0.6-2.1
			C442.9,330,443.3,330.1,443.7,330.1z"/>
            <path class="st2" d="M385,219c-0.6,1.1-1.1,2.3-1.9,3.2c-3.8,4.4-7.5,9-11.8,12.8c-1.8,1.6-5.2,1.4-7.9,2
			c-8.2,2.1-12.1-4.6-17.3-8.6c-0.5-0.4-0.3-1.4-0.6-2.9c1.7,0.3,3,0.6,4.2,0.8c4.2,0.7,6.3-1.7,4.8-5.6c-1.4-3.8-2.2-7.6-0.1-12.1
			c0.6,0.9,1.4,1.8,1.7,2.8c0.3,1.1,0.1,2.4,0.2,3.6c1.1,9.6,8.5,13.8,17.1,9.6c2.4-1.2,4.5-3,6.7-4.4c1.3-0.8,2.7-1.4,4.1-2.1
			C384.5,218.5,384.7,218.7,385,219z M366.9,233.3c0.1-0.5,0.3-1,0.4-1.5c-1.7-0.5-3.4-1-5.1-1.4c-0.2,0.6-0.3,1.3-0.5,1.9
			C363.4,232.5,365.2,232.9,366.9,233.3z"/>
            <path class="st2" d="M351.6,311.9c2.3,1.9,4.6,3.7,7.6,6.1c-0.2-1.7-0.4-2.4-0.4-3.2c0-0.9,0.1-2.3,0.5-2.4c0.9-0.3,2.4-0.4,3,0.2
			c2.6,2.4,5,5,7.2,7.7c0.4,0.5,0.2,2.1-0.3,2.8c-0.3,0.5-1.6,0.7-2.4,0.6c-0.9-0.1-1.7-0.8-2.5-1.2c-2.7,3.8-3.2,4-6.7,1
			c-2.4-2-4.5-4.3-6.4-6.7c-0.8-1-0.7-2.8-1-4.2C350.6,312.4,351.1,312.1,351.6,311.9z"/>
            <path class="st2" d="M443.1,195c-6.1,13.3-10.2,26.7-6.7,41.6c-0.6,0.1-1.2,0.2-1.7,0.3c-0.9-1.6-2.4-3.2-2.4-4.8
			c-0.2-4.5-0.5-9.2,0.5-13.6c1.6-7.5,3.5-15,8.4-21.3C441.7,196.4,442.4,195.7,443.1,195z"/>
            <path class="st2" d="M445,179.1c-4.3-0.1-5.7-2.8-5.2-6c0.5-3.7,0.1-7.5,0.3-11.2c0.1-1.3,0.7-2.6,1.1-3.8c0.9,1,2.4,1.8,2.6,2.9
			c1.1,4.7,1.9,9.5,2.5,14.3C446.5,176.5,445.4,178,445,179.1z"/>
            <path class="st2" d="M408.9,308c-1.4-1.1-2.4-1.8-3.4-2.6c1-0.7,1.9-1.7,3-2c3.2-1,6.4-1.9,9.7-2.6c0.7-0.2,2,0.3,2.2,0.8
			c0.2,0.7-0.2,2.1-0.8,2.3C416.2,305.3,412.7,306.6,408.9,308z"/>
            <path class="st2" d="M418.8,319.4c-0.7,1.1-1.2,2.9-2.1,3.1c-3.7,0.8-7.4,1.3-11.1,1.6c-0.7,0.1-1.5-1.1-2.3-1.7
			c0.7-0.5,1.3-1.4,2-1.6c4.1-0.8,8.2-1.5,12.4-2.2C418,318.9,418.4,319.1,418.8,319.4z"/>
            <path class="st2" d="M417.6,310.9c-3.6,3.9-7.7,4.3-11.5,5.1c-0.5,0.1-1.5-1-1.8-1.7c-0.2-0.5,0.2-2,0.5-2
			C408.7,311.7,412.5,309.1,417.6,310.9z"/>
            <path class="st2" d="M378.9,319.1c-4.6-1.3-7-3.9-7.3-7.9C375.4,311.2,379.2,315.2,378.9,319.1z"/>
	</g>
        <g>
		<g>
			<path class="st8" d="M399.6,179.2c-3.9,1.2-8.7-0.3-10.7-2.8c0,0-0.2-0.6-0.4-1.1c1.4-3.5,7.5-7.3,11.8-5.6
				c2,0.6,2.7,2.8,4.4,4.2c0.2,0.6-0.6,2-1.1,2.2C402.2,177.8,401.3,178.7,399.6,179.2z"/>
		</g>
	</g>
        <g>
		<circle class="st9" cx="399.3" cy="174.4" r="2.9"/>
	</g>
        <path class="st2" d="M343.7,232.5c-11.9-6.8-13.7-29.6-6.8-39.5c-2.4,10.5-2,20,2.7,29c1,1.9,2.4,3.6,3.3,5.6
		C343.5,228.8,343.4,230.3,343.7,232.5"/>
        <path class="st9" d="M352.9,228c0,0,0.7,5.1,3.7,6.9l4.3,0.1l-1.1-6.8L352.9,228z"/>
        <path class="st9" d="M361.1,228.3l1.1,6.8l3.9,0.1c0,0,1.9-5.3,2-7.5C368,227.7,364.3,228.9,361.1,228.3z"/>
        <path class="st10" d="M514.6,416.8c0,0,6.6-19,26.6-29.1"/>
        <path class="st10" d="M528,420.4c0,0,6.6-19,26.6-29.1"/>
        <path class="st10" d="M495.4,415.7c0,0,7.9-21.6,32.3-32.8"/>
        <path class="st10" d="M508,386.9c0,0,27.2-2.8,51.4,17.1"/>
        <path class="st10" d="M499.7,396.1c0,0,27.2-2.8,51.4,17.1"/>
        <path class="st10" d="M493.1,408.3c0,0,24.4-3.6,44.9,10.1"/>
        <g>
		<g>
			<path class="st21" d="M65.8,269.9H42.7c-3.2,0-5.8,2.6-5.8,5.8s2.6,5.8,5.8,5.8h23.1c3.2,0,5.8-2.6,5.8-5.8S69,269.9,65.8,269.9z
				"/>
		</g>
	</g>
        <g>
		<g>
			<path class="st21" d="M250.3,285.5c-1.1-3.5-23.1-50.1-31.4-55.2c-8.6-5.2-59.9-6.6-66.5-6.6s-57.9,1.4-66.5,6.6
				c-8.2,5-30.3,51.7-31.4,55.2c-1,3,0.7,6.3,3.8,7.3c3.1,1,6.3-0.7,7.3-3.8c1.8-5.7,21.8-44.8,26.2-48.7c4.9-2.3,40.9-5,60.6-5
				s55.8,2.7,60.2,4.7c4.8,4.2,24.8,43.2,26.6,49c0.8,2.5,3.1,4,5.5,4c0.6,0,1.2-0.1,1.8-0.3C249.6,291.8,251.3,288.6,250.3,285.5z"
            />
		</g>
	</g>
        <g>
		<g>
			<path class="st21" d="M65.8,385.4c-2.7,0-4.9,1.9-5.5,4.4l-34.9-8.7v-1.4c0-3.2-2.6-5.8-5.8-5.8s-5.8,2.6-5.8,5.8v23.1
				c0,9.6,7.8,17.3,17.3,17.3h23.1c9.6,0,17.3-7.8,17.3-17.3v-11.5C71.6,388,69,385.4,65.8,385.4z"/>
		</g>
	</g>
        <g>
		<g>
			<path class="st21" d="M285.2,373.9c-3.2,0-5.8,2.6-5.8,5.8v1.4l-34.9,8.7c-0.6-2.5-2.8-4.4-5.5-4.4c-3.2,0-5.8,2.6-5.8,5.8v11.5
				c0,9.6,7.8,17.3,17.3,17.3h23.1c9.6,0,17.3-7.8,17.3-17.3v-23.1C291,376.5,288.4,373.9,285.2,373.9z"/>
		</g>
	</g>
        <g>
		<g>
			<path class="st21" d="M262.1,269.9H239c-3.2,0-5.8,2.6-5.8,5.8s2.6,5.8,5.8,5.8h23.1c3.2,0,5.8-2.6,5.8-5.8
				S265.3,269.9,262.1,269.9z"/>
		</g>
	</g>
        <g>
		<g>
			<path class="st21" d="M290.5,324.4l-15.8,3.2c-1.9,0.3-40.7,5.9-50.5,5.9c-1.4,1.1-2.7,8.5-2.5,15.5c35.2-1.7,62.6-3.9,63-3.9
				l6.2-0.8C291,336.5,290.8,330,290.5,324.4z"/>
		</g>
	</g>
        <g>
		<g>
			<path class="st21" d="M281.1,299c-2.6-0.8-3.9-2.6-6.5-6.5l-2-2.9c-3.5-4.8-10.1-5-16.6-5.2c-1.9-0.1-5-0.1-6.5-0.5
				c-0.5-0.7-1.2-1.3-2-1.8c-10.8-5.9-51.6-12.3-95.2-12.3s-84.4,6.3-95.2,12.3c-0.8,0.4-1.5,1.1-2,1.8c-1.5,0.3-4.5,0.4-6.5,0.5
				c-6.4,0.2-13.1,0.4-16.6,5.2l-2,2.9c-2.6,3.8-3.9,5.7-6.5,6.5c-4.5,1.3-7,6-8.4,14.4l11.4,2.9c0.2,0,37.9,5.6,50.6,5.6
				c4.4,0,8.2,1.7,11.1,4.8c6.1,6.6,6.4,18.2,6.3,22.7c18.6,0.8,38.6,1.3,57.7,1.3c19.1,0,39.1-0.6,57.7-1.3
				c-0.1-5.1,0.2-17.9,5.9-23.9c2.2-2.4,5.1-3.6,8.2-3.6c7.5,0,37.6-4.1,48.6-5.7l16.5-3.3C288,304.8,285.5,300.3,281.1,299z
				 M192.8,339.2H112c-3.2,0-5.8-2.6-5.8-5.8c0-3.2,2.6-5.8,5.8-5.8h80.8c3.2,0,5.8,2.6,5.8,5.8C198.6,336.6,196,339.2,192.8,339.2z
				"/>
		</g>
	</g>
        <g>
		<g>
			<path class="st21" d="M286,356.5c-1,0.1-72.5,5.8-133.6,5.8s-132.6-5.7-133.3-5.8l-5-0.5c0.6,12.5,2.6,31.3,8.5,34.5
				c6.2,3.3,78.4,6.4,129.7,6.4s123.5-3.1,129.7-6.5c6-3.2,7.9-22.1,8.5-34.6L286,356.5z"/>
		</g>
	</g>
        <g>
		<g>
			<path class="st21" d="M80,334.5c-0.7-0.8-1.5-1.1-2.6-1.1c-13.6,0-51.2-5.6-52.8-5.8l-10.3-2.6c-0.3,5.5-0.4,11.9-0.4,19.3
				l6.4,0.7c0.4,0,27.8,2.2,63,3.9C83.3,344.8,82.7,337.5,80,334.5z"/>
		</g>
	</g>
</g>
    <g id="tracé">
</g>
</svg>
