<?xml version="1.0" encoding="utf-8"?>
<!-- Generator: Adobe Illustrator 22.1.0, SVG Export Plug-In . SVG Version: 6.00 Build 0)  -->
<svg style="enable-background:new 0 0 579.6 563.9;" version="1.1" viewBox="0 0 579.6 563.9" x="0px"
     xmlns="http://www.w3.org/2000/svg" y="0px" xml:space="preserve">
<style type="text/css">
	.st0{opacity:0.55;fill:#2BB9D2;}
	.st1{fill:#EE717C;}
	.st2{fill:#636362;}
	.st3{fill:#F0F0F1;}
	.st4{opacity:0.55;}
	.st5{fill:#2BB9D2;}
	.st6{fill:#D9072A;}
	.st7{opacity:0.54;fill:#2BB9D2;}
	.st8{fill:#676767;}
	.st9{fill:#FFFFFF;}
	.st10{fill:none;stroke:#FFFFFF;stroke-width:0.5;stroke-linecap:round;stroke-linejoin:round;stroke-miterlimit:10;}
	.st11{fill:#FFFFFF;stroke:#3E3E3E;stroke-width:5;stroke-miterlimit:10;}
	.st12{opacity:0.69;}
	.st13{fill:#070707;}
	.st14{fill:none;stroke:#FFFFFF;stroke-width:0.25;stroke-linecap:round;stroke-linejoin:round;stroke-miterlimit:10;}
	.st15{fill:none;stroke:#636362;stroke-width:2;stroke-linecap:round;stroke-linejoin:round;stroke-miterlimit:10;}
	.st16{fill:none;stroke:#636362;stroke-width:2;stroke-miterlimit:10;}
	.st17{fill:#636362;stroke:#636362;stroke-width:2;stroke-linecap:round;stroke-linejoin:round;stroke-miterlimit:10;}
	.st18{opacity:0.6;fill:#2BB9D2;}
	.st19{fill:#00A6C5;}
	.st20{fill:none;stroke:#EE717C;stroke-width:8;stroke-miterlimit:10;}
	.st21{fill:none;stroke:#444444;stroke-width:4;stroke-miterlimit:10;}
	.st22{fill:#FFFFFF;stroke:#454545;stroke-width:4;stroke-miterlimit:10;}
	.st23{opacity:0.57;fill:#2BB9D2;}
	.st24{fill:none;stroke:#636362;stroke-width:4;stroke-miterlimit:10;}
	.st25{fill:none;stroke:#636362;stroke-linecap:round;stroke-linejoin:round;stroke-miterlimit:10;}
	.st26{fill:none;stroke:#636362;stroke-miterlimit:10;}
	.st27{fill:none;stroke:#000000;stroke-miterlimit:10;}
	.st28{opacity:0.48;fill:#F09687;}
	.st29{opacity:0.46;fill:#00A6C5;}
	.st30{opacity:0.67;fill:#60B676;}
	.st31{fill:#FFFFFF;stroke:#636362;stroke-linecap:round;stroke-linejoin:round;stroke-miterlimit:10;}
	.st32{opacity:0.81;fill:#EE717C;}
	.st33{opacity:0.52;fill:#2BB9D2;}
</style>
    <g id="dessin">
</g>
    <g id="tracé">
	<path class="st1" d="M355.2,298.4h-13.8c-4.3,0-7.8-3.5-7.8-7.8v-4.2c0-4.3,3.5-7.8,7.8-7.8h13.8c4.3,0,7.8,3.5,7.8,7.8v4.2
		C363,294.9,359.5,298.4,355.2,298.4z"/>
        <rect class="st0" height="45.5" width="76" x="313.5" y="341.5"/>
        <path class="st1" d="M107.5,263.2c-1.9,1.3-3.7,2.8-3.4,3.6c0.9,2.6,19.7-2.9,20.3-1.2c0.4,1.3-9.9,6.1-25.1,12.4
		c-20.8,5-36.9-0.4-39.3-8.4c-2.1-6.7,5-16.7,13.3-21.4c7-3.9,13.9-3.6,16.7-3.3c1,0.8,2.5,1.9,4.4,3c1.6,0.9,2.6,1.3,2.6,1.3
		c0,0-5.5-1.1-7-4.3c-2.2-4.8,4.5-14.8,9.5-14.2c5,0.6,7.1,11.9,8,16.2C108.7,253.7,108.1,259.5,107.5,263.2z"/>
        <g>
		<g>
			<path class="st2" d="M330.5,284.6c-5.7,26.3,47.3,20.4,36.1-5.6c-1.3-2.9-5.6-0.4-4.3,2.5c7.4,17.3-30.7,21.9-27,4.4
				C336,282.8,331.2,281.5,330.5,284.6L330.5,284.6z"/>
		</g>
	</g>
        <g>
		<g>
			<path class="st2" d="M310.5,284c27-1.2,53.8-4.1,80.4-8.7c3.2-0.5,1.8-5.4-1.3-4.8c-26.2,4.5-52.6,7.3-79.1,8.5
				C307.3,279.1,307.3,284.1,310.5,284L310.5,284z"/>
		</g>
	</g>
        <g>
		<g>
			<path class="st2" d="M287.9,345.9c-1.3,18.5-0.3,37,3,55.2c1.3,7.1,2.5,13.8,9.8,16.8c7.4,3.1,16.4,3.8,24.3,4.4
				c18,1.4,36.2-0.5,54-3.4c9-1.5,18.7-2.5,27.5-5.1c6.4-1.9,8.2-6.4,8.9-12.6c2.8-21.7,3.5-43.7,2.5-65.5c-0.2-3.2-5.2-3.2-5,0
				c1,20.9,0.4,41.8-2.1,62.6c-0.3,2.4-0.2,5.7-1.5,7.9c-1.5,2.5-4.4,2.9-7,3.4c-5,1-10.1,1.9-15.1,2.8c-10.2,1.8-20.4,3.4-30.8,4.4
				c-9.8,0.9-19.7,1.2-29.5,0.6c-5.5-0.4-10.9-1-16.3-2.1c-5.3-1-11.2-1.8-13.1-7.7c-3.3-9.6-3.9-21-4.6-31.1
				c-0.7-10.2-0.6-20.5,0.1-30.7C293.2,342.7,288.2,342.7,287.9,345.9L287.9,345.9z"/>
		</g>
	</g>
        <g>
		<g>
			<path class="st2" d="M394.5,340.9c-2.3-54.1,3.4-112.4,39.6-155.5c2.1-2.4-1.5-6-3.5-3.5c-37.1,44.2-43.4,103.4-41.1,159
				C389.6,344.1,394.6,344.1,394.5,340.9L394.5,340.9z"/>
		</g>
	</g>
        <g>
		<g>
			<path class="st2" d="M302.3,335.7c1.9-19.4,1.1-38.9-2.3-58.1c-1.5-8.3-2.9-17.5-6.5-25.3c-2.5-5.4-6.7-9.7-12.9-9.5
				c-3.2,0.1-3.2,5.1,0,5c7.7-0.2,9.6,9.6,11.1,15.3c2,7.8,3.6,15.8,4.8,23.8c2.2,16.1,2.4,32.5,0.9,48.7
				C296.9,338.9,301.9,338.9,302.3,335.7L302.3,335.7z"/>
		</g>
	</g>
        <g>
		<g>
			<path class="st2" d="M263.5,336.7c10.3,0.2,20.2,3,30.3,4.6c10,1.6,20.1,2.7,30.2,3.2c20.8,1.1,41.7,0.3,62.5-0.5
				c3.2-0.1,3.2-5.1,0-5c-20.8,0.8-41.7,1.6-62.5,0.5c-10.6-0.6-21.2-1.6-31.7-3.5c-9.6-1.7-19-4.2-28.8-4.3
				C260.3,331.6,260.3,336.6,263.5,336.7L263.5,336.7z"/>
		</g>
	</g>
        <path class="st2" d="M391.3,339.7c-0.2,3.3-0.8,6.7-0.7,10c0.5,10.7,1.1,21.5,2.2,32.1c0.4,3.9-1,4.8-3.4,5.2
		c-4.4,0.7-8.9,1.4-13.4,1.7c-19.8,1.4-39.5,2.7-59.3,4.1c-5.6,0.4-8.6-2.5-8.4-9.1c0.4-12.3,0.9-24.6,1.5-36.9
		c0.1-1.9,1.3-3.7,2-5.6c0.5,0.1,1,0.1,1.5,0.2c0.2,1.5,0.6,3.1,0.6,4.6c-0.2,11.7-0.5,23.4-0.8,35.1c-0.1,5.5,1.9,6.7,6.6,6.3
		c19.4-1.7,38.8-2.8,58.2-4.2c1.5-0.1,3-0.3,4.5-0.6c4-0.7,5.3-2.9,5.1-8.2c-0.3-10.5,0.7-21.1,1.2-31.7c0.1-1.2,0.7-2.3,1-3.4
		C390.3,339.5,390.8,339.6,391.3,339.7z"/>
        <path class="st0" d="M104.8,229.7c-0.6-0.6-1.3-1.3-2-2.2c-1.3-1.8-2.6-4.1-3.3-6.1c-0.7-1.8-1.1-3.7-1.4-5.6c-0.3-1.9-0.7-4-0.7-6
		c0-1.1,0.1-3.1,1.5-3.5c0.6-0.2,1.2,0.2,2.2,1.1c0.5,0.4,1,0.9,1.6,1.2c2.2,1.2,4.7,1.4,7.2,1.4c1.8,0,3.5,0,5.1,0.5
		c3.2,0.8,5.9,2.9,7.6,6c1,1.7,1.4,3.6,1.4,5.5c0,3.9-2.1,7.7-5.7,9.8C114.1,234.2,108.9,233.4,104.8,229.7z"/>
        <path class="st0"
              d="M118.9,234.4c0.2-0.1,0.5-0.2,0.7-0.4c2.6-1.5,4.6-3.7,5.7-6.2l10.4,10.4l-6.5,6.5L118.9,234.4z"/>
        <path class="st0" d="M131.1,246.5c2.1-2.1,4.3-4.3,6.4-6.4c6.5,6.5,41.9,41.6,43.1,45.7c0.4,1.6-0.1,2.6-0.1,2.6
		c-0.7,1.5-2.5,2-3.5,2.1"/>
        <g>
		<path class="st1" d="M110,246.5c-1.3,0.3-3.2,1-4.4,2.7c-2.2,3.1-0.2,6.8-2.2,8.9c-0.8,0.8-2.3,1.6-5.8,1
			c-1.1-6.9-1.8-15.2-1.3-24.6c0.2-4.1,0.7-7.9,1.3-11.4c0.8,1,1.9,2.6,3.6,4.3c0.9,0.9,1.6,1.5,2.2,2.1c1.4,1.3,3.5,3.1,6,5.7
			C109.5,238.9,109.7,242.7,110,246.5z"/>
            <g>
			<path class="st2" d="M128.4,247.5C128.4,247.5,128.4,247.5,128.4,247.5l46.4,42.7c1.8,1.7,4.6,1.6,6.3-0.1
				c1.7-1.7,1.8-4.5,0.1-6.3l-28.9-31.4c-0.5-0.5-1.3-0.6-1.8-0.1c-0.5,0.5-0.6,1.3-0.1,1.8l28.9,31.4c0.7,0.8,0.7,2-0.1,2.8
				c-0.8,0.8-2,0.8-2.8,0.1l-45.4-41.8l1.1-1.1l5.3-5.3l8.8,9.6c0.5,0.5,1.3,0.6,1.8,0.1c0.5-0.5,0.6-1.3,0.1-1.8l-9.7-10.6
				c0,0,0,0,0,0c0,0,0,0,0,0l-12.2-12.2c0.8-3.2,0.4-6.8-1.4-9.9c-2.1-3.7-5.3-6.2-9.2-7.3c-1.9-0.5-3.9-0.5-5.7-0.5
				c-0.3,0-0.5,0-0.8,0c-2.1,0-3.6-0.2-5.2-1.1c-0.3-0.2-0.7-0.5-1.2-0.9c-1.1-0.9-2.6-2.2-4.6-1.6c-2.7,0.8-3.3,3.5-3.3,6.2
				c0,0,0,0.1,0,0.1c0,0,0,23.1,0,23.1c0,0.7,0.6,1.3,1.3,1.3c0.7,0,1.3-0.6,1.3-1.3v-10.1c0.8,2,2,4.2,3.3,5.9
				c0.8,1,1.5,1.9,2.3,2.6c1.9,1.7,4,2.9,6.2,3.6v10c0,1-0.8,1.8-1.8,1.8c-2.4,0-4.4,2-4.4,4.4v4c0,1.5-1.2,2.8-2.8,2.8
				c-1.5,0-2.8-1.2-2.8-2.8v-16.2c0-0.7-0.6-1.3-1.3-1.3c-0.7,0-1.3,0.6-1.3,1.3v16.2c0,2.9,2.4,5.3,5.3,5.3c2.9,0,5.3-2.4,5.3-5.3
				v-4c0-1,0.8-1.8,1.8-1.8c2.4,0,4.4-2,4.4-4.4v-9.4c1.5,0.2,3,0.1,4.4-0.3L128.4,247.5C128.4,247.5,128.4,247.5,128.4,247.5z
				 M104.8,229.7c-0.6-0.6-1.3-1.3-2-2.2c-1.3-1.8-2.6-4.1-3.3-6.1c-0.7-1.8-1.1-3.7-1.4-5.6c-0.3-1.9-0.7-4-0.7-6
				c0-1.1,0.1-3.1,1.5-3.5c0.6-0.2,1.2,0.2,2.2,1.1c0.5,0.4,1,0.9,1.6,1.2c2.2,1.2,4.7,1.4,7.2,1.4c1.8,0,3.5,0,5.1,0.5
				c3.2,0.8,5.9,2.9,7.6,6c1,1.7,1.4,3.6,1.4,5.5c0,3.9-2.1,7.7-5.7,9.8C114.1,234.2,108.9,233.4,104.8,229.7z M118.9,234.4
				c0.2-0.1,0.5-0.2,0.7-0.4c2.6-1.5,4.6-3.7,5.7-6.2l10.4,10.4l-6.5,6.5L118.9,234.4z"/>
		</g>
	</g>
        <g>
		<path class="st2" d="M291.4,125.7c-3.3,3.4-6,7.5-6,7.5c-1.6,2.4-2.8,4.7-3.7,6.5c0-0.1-0.1-0.1-0.1-0.2c-0.1,0.4-0.2,0.7-0.3,1
			c0,0.1-0.1,0.2-0.2,0.3c-0.4,0.8-1.2,2.2-1.8,2.9c-0.2,0.2-0.5,0.6-0.9,1c0.2,0.8,0.4,1.6,0.6,2.3c0.5,1.6,1,3.1,1.8,5.9
			c1.1-2.1,1.5-2.5,1.6-3c3.1-13.7,11-23.6,24.4-27.9c13.6-4.4,27.5-7.3,42.1-5.9c12.9,1.2,24.8,4.3,35.3,11.8
			c3.9,2.8,7,3.4,11.4,0.1c7.5-5.8,16.4-3,20,5.8c3.7,9.1,4,18.1-2,26.5c-2.3,3.2-4.4,6.5-7.1,9.3c-3,3.2-2,5.1,1.4,6.8
			c3.7,1.8,10.7,6.6,14.2,8.7c11,8.1,16.2,14.2,22,23.8c9,14.8,14.4,28.1,12.1,44.7c-0.2,1.5-0.2,3-0.4,4.4
			c-5.7,38.4-21.7,68.9-61.8,81.2c-1.8,0.5-3.1,2.7-4.6,4.1c2,0.7,4.3,2.3,6.1,1.9c4.9-1.1,9.5-3,14.3-4.6c0,0-0.2,0.1-0.2,0.1
			c9-7.4,19.2-13.7,26.7-22.4c14.9-17.2,22.4-38.3,28-60.1c0.5-2,1.3-4,2-5.9c0.5,0,1,0,1.6-0.1c3.3,8.4,7,16.7,9.8,25.3
			c10.6,31.7,14.1,64.1,9.8,97.3c-2.2,16.8-6,33.4-14.2,48.4c-8,14.6-19.8,25.9-36.3,29.1c-23.1,4.5-46.5,7.5-69.9,9.7
			c-12.2,1.2-24.8,0-37.1-1.2c-7.5-0.8-9.1-6.8-3.8-12.2c2-2,4.8-3.6,7.5-4.4c7.3-2.1,14.7-3.8,22.2-5.3
			c19.2-3.8,31.2-16.1,39.5-32.9c0.4-0.8,0.2-1.8,0.3-4.1c-1.6,1.9-2.5,2.5-2.9,3.4c-10.5,20.6-28.2,29.3-50.3,32
			c-8.1,1-16.2,3.7-23.8,7c-4.9,2.1-7.4,7.2-6.4,13.1c0.9,5.9,4.6,9.5,10.3,10.2c8.2,1,16.1,0.6,24.4,0.7c6.3-0.2,10.3-0.5,15.3-0.9
			c27.7-2.5,55.3-6,82.5-12.5c1.7-0.4,3.6-0.1,5.3,0.3c12.6,3.2,25,7.5,37.7,9.4c15.4,2.2,31.2,2.8,46.2-3.2
			c11-4.4,20.3-10.7,23.9-23.1c2.4-8.4-0.4-17.7-7.6-22.1c-4.1-2.5-8.5-4.5-13-6.2c-12.3-4.7-25.1-6.7-38.2-6.5
			c-3.6,0.1-6.2-0.7-5.1-5.5c4.3-19.2,5-38.6,4.1-58.2c-1.8-38.4-9.6-75.1-28.3-109c-8.7-15.8-17.8-31.5-32.4-42.7
			c-7.7-5.9-16.2-10.9-24.5-16.4c0.5-0.7,1.3-1.9,2.2-3c9.7-11.5,11.7-24.4,7.5-38.6c-3.4-11.1-15.2-16.8-25.2-11.1
			c-5.3,3-9.3,2.4-13.7-0.5c-8.3-5.3-31.2-9.7-49.9-8.9c-4.8,0.2-10.2,0.5-17.2,2.4C314,112.5,300.3,116.5,291.4,125.7z"/>
            <path class="st2" d="M282.7,244.7c-1.5,0.7-3.2,1.1-4.5,2.1c-0.8,0.6-1,1.9-1.4,3c-8.6,23.9-25.2,39-50.1,44.2
			c-6.2,1.3-12.9,0.9-19.3,0.8c-0.7,0-1.3-0.1-1.8-0.3c-7.4,1.3-14.9-1-21.8-4.6c-0.9-0.4-1.8-0.8-2.7-1.3c1.4,1.8,3.6,3.6,4.8,5.9
			c-2.9-1.3-4.4-2.3-6-2.6c-1.4-0.2-2.9,0.4-4.3,0.6c0.5,1.4,0.6,3.1,1.5,4.2c1.2,1.4,3,2.2,4.5,3.2c6.5,4.4,7.5,4.1,9.8-2
			c7.2,1,14.3,3.1,21.3,2.9c21.2-0.5,39.2-9.1,54.1-24.1c7.8-7.8,13.7-17.1,17-27.7C284.1,247.9,283.1,246.2,282.7,244.7z"/>
            <path class="st2" d="M238.9,436.6c-6.6,4.2-9.1,9.1-7.5,15.2c1.7,6.8,7.3,8.8,13.2,9.1c15,0.7,30,1,45,1.1c4.6,0,9.2-0.8,13.8-1.7
			c1.7-0.3,3.1-2,4.7-3c-1.8-0.9-3.5-2.4-5.3-2.6c-2.5-0.3-5.2,0.6-7.7,0.6c-13.7,0.1-27.4,0.5-41.1-0.1c-3.5-0.2-8.9-3.3-9.9-6.2
			c-1.6-4.8,2.4-8.9,7-11.4c1-0.5,2-1,3.1-1.3c6.4-1.7,13-3.2,19.3-5.1c3.8-1.1,6.7-0.9,9.1,2.8c0.8,1.3,3.3,1.4,5,2.1
			c0.6-2,1.6-4.1,1.6-6.1c-0.1-1.4-1.7-2.8-2.6-4.1c-4.1-6.4-8.7-12.5-12.3-19.1c-8.2-14.9-9.3-31.5-10.2-48.1
			c-0.9-15.3,3.4-29.8,9-43.8c0.8-2.1,2.3-4.2-1.3-5.1c0,0,0.2-0.1,0.2-0.1c-0.1,0.7,0,1.6-0.4,2.1c-7.2,12-10.7,25-12.6,38.8
			c-3.1,23.5,1.5,45.4,12.2,66.2c4.6,9,4.6,9-6,11.4C265,428.1,245.5,433.6,238.9,436.6z"/>
            <path class="st2" d="M318.8,169.7c-0.3,7.7-6.2,9.6-11.2,12c-5.9,2.8-11.8,1.8-16.5-2.7c-5.5-5.3-8.1-11.9-6.5-19.7
			c1.5-7.5,8.1-12.3,17.9-12.9c6.1-0.4,11.8,3.5,13.6,10c0.4,1.5-0.7,4.8-1.6,5c-2.9,0.8-4.5,2-3.8,4.9c0.7,3.2,2.9,4,5.9,3.1
			C317.1,169.3,317.6,169.5,318.8,169.7z"/>
            <path class="st2" d="M300.9,185.2c-0.1,1.8-0.4,3.7-0.3,5.5c0.1,4.6-0.6,9.4,0.6,13.7c2.3,8.1,8,10.4,16.2,7.2
			c2.7-1.1,5.4-2.6,7.8-4.2c2.4-1.6,4.5-3.7,6.7-5.6c0.5,0.2,1,0.3,1.5,0.5c-0.6,1.9-0.7,4.3-1.9,5.7c-4.7,5.7-9.7,11.2-14.8,16.6
			c-1.2,1.2-3.1,2-4.8,2.4c-1.8,0.4-3.8-0.1-5.5,0.3c-11.5,2.9-17.7-4.9-24.3-12c-1.1-1.2-1.2-3.5-1.7-5.3c0.4-0.3,0.8-0.6,1.2-0.8
			c1.6,1,3.4,1.9,4.9,3.1c3.4,2.7,6.9,1.8,9.7-0.3c1.1-0.9,0.5-4.1,0.6-6.2c0-5.3-0.2-10.7,0.1-16c0.1-1.7,1.6-3.3,2.5-5
			C299.8,184.9,300.3,185.1,300.9,185.2z"/>
            <path class="st2" d="M281.4,164.1c-0.4,1.2-0.5,2.7-1.2,3.5c-9.3,9.7-9.6,21.6-7.2,33.4c1.6,7.7,6.1,14.9,9.1,22.4
			c0.5,1.4,0.2,3.1,0.3,4.6c-1.6-0.5-4.1-0.5-4.6-1.5c-3.8-7.3-9.2-14.5-10.4-22.3c-2.1-13.8-0.7-27.8,9.9-38.9
			c0.7-0.7,1.7-1.2,2.5-1.8C280.4,163.6,280.9,163.8,281.4,164.1z"/>
            <path class="st2" d="M405.3,132.4c5.6,3.1,9.7,17.1,6.5,22.4c-0.5,0.9-2.2,2.2-2.3,2.1c-3.2-2.9-8.5-5.8-8.7-9
			C400.5,142.8,403.6,137.5,405.3,132.4z"/>
            <path class="st2" d="M271.8,309.5c-9.4,1.5-18.4,5.7-28.1,4.2c-0.1-0.7-0.3-1.4-0.4-2.2c13.8-4,27.6-8,41.3-11.9
			c-0.1,4.4-0.4,4.7-13,10C271.6,309.6,271.8,309.5,271.8,309.5z"/>
            <path class="st2" d="M189.9,319c-0.7-0.6-2.4-1.9-4-3.3c1.9-0.9,3.7-2.3,5.7-2.7c2.5-0.5,5.2-0.5,7.6-0.1c1.4,0.3,2.6,1.9,3.9,2.9
			c-1.1,1-2.1,2.5-3.4,2.8C197,319.2,194.2,318.9,189.9,319z"/>
            <path class="st2" d="M409.7,340.7c4.2-0.9,5.8,2,5.4,5c-0.4,2.4-2.3,5.3-4.4,6.6c-3.3,1.9-5.5,0.4-8.4-5c2.3-0.3,4.3-0.5,6.8-0.8
			c0.3-1.8,0.6-3.9,0.9-6C409.9,340.6,409.7,340.7,409.7,340.7z"/>
            <path class="st2" d="M194.3,309.7c-1.7,0.6-3.2,1.9-4.4,1.6c-3.5-0.9-7-2.3-10.3-3.6c-0.7-0.3-1.4-1.4-1.4-2.1
			c0-0.7,1.1-2,1.4-1.9c4.5,1,9,2.2,13.4,3.5C193.5,307.3,193.7,308.3,194.3,309.7z"/>
	</g>
        <g>
		<g>
			<path class="st8" d="M355,155.7c-5.1,1.4-11.3-0.8-13.7-4.1c0,0-0.2-0.7-0.4-1.5c1.9-4.5,10.1-9.1,15.5-6.6
				c2.6,0.9,3.4,3.8,5.5,5.6c0.2,0.7-0.9,2.6-1.6,2.8C358.5,153.9,357.2,155.1,355,155.7z"/>
		</g>
	</g>
        <g>
		<circle class="st9" cx="354.9" cy="149.4" r="3.8"/>
	</g>
        <path class="st10" d="M494.4,457.7c0,0,8.7-28.3,35.1-43.2"/>
        <path class="st10" d="M512,463c0,0,8.7-28.3,35.1-43.2"/>
        <path class="st10" d="M469.1,456.1c0,0,10.4-32,42.5-48.8"/>
        <path class="st10" d="M485.6,413.3c0,0,35.8-4.1,67.7,25.5"/>
        <path class="st10" d="M474.8,426.9c0,0,35.8-4.1,67.7,25.5"/>
        <path class="st10" d="M466,445.1c0,0,32.1-5.4,59.2,15"/>
        <path class="st9" d="M293.4,215.7c0,0,1,5.9,4.5,7.8h5l-1.5-7.8H293.4z"/>
        <path class="st9" d="M302.9,215.7l1.5,7.8h4.5c0,0,2.1-6.1,2.1-8.7C311,214.9,306.6,216.3,302.9,215.7z"/>
        <polygon class="st24" points="194.5,314.6 42.3,309.8 42.9,119 193.6,137.7 	"/>
        <polyline class="st24" points="194.5,314.6 184,317.1 31.6,314.5 32.2,128.6 42.9,119 	"/>
</g>
</svg>
