<?xml version="1.0" encoding="utf-8"?>
<!-- Generator: Adobe Illustrator 22.1.0, SVG Export Plug-In . SVG Version: 6.00 Build 0)  -->
<svg style="enable-background:new 0 0 579.6 563.9;" version="1.1" viewBox="0 0 579.6 563.9" x="0px"
     xmlns="http://www.w3.org/2000/svg" y="0px" xml:space="preserve">
<style type="text/css">
	.st0{opacity:0.55;fill:#2BB9D2;}
	.st1{fill:#EE717C;}
	.st2{fill:#636362;}
	.st3{fill:#F0F0F1;}
	.st4{opacity:0.55;}
	.st5{fill:#2BB9D2;}
	.st6{fill:#D9072A;}
	.st7{opacity:0.54;fill:#2BB9D2;}
	.st8{fill:#676767;}
	.st9{fill:#FFFFFF;}
	.st10{fill:none;stroke:#FFFFFF;stroke-width:0.5;stroke-linecap:round;stroke-linejoin:round;stroke-miterlimit:10;}
	.st11{fill:#FFFFFF;stroke:#3E3E3E;stroke-width:5;stroke-miterlimit:10;}
	.st12{opacity:0.69;}
	.st13{fill:#070707;}
	.st14{fill:none;stroke:#FFFFFF;stroke-width:0.25;stroke-linecap:round;stroke-linejoin:round;stroke-miterlimit:10;}
	.st15{fill:none;stroke:#636362;stroke-width:2;stroke-linecap:round;stroke-linejoin:round;stroke-miterlimit:10;}
	.st16{fill:none;stroke:#636362;stroke-width:2;stroke-miterlimit:10;}
	.st17{fill:#636362;stroke:#636362;stroke-width:2;stroke-linecap:round;stroke-linejoin:round;stroke-miterlimit:10;}
	.st18{opacity:0.6;fill:#2BB9D2;}
	.st19{fill:#00A6C5;}
	.st20{fill:none;stroke:#EE717C;stroke-width:8;stroke-miterlimit:10;}
	.st21{fill:none;stroke:#444444;stroke-width:4;stroke-miterlimit:10;}
	.st22{fill:#FFFFFF;stroke:#454545;stroke-width:4;stroke-miterlimit:10;}
	.st23{opacity:0.57;fill:#2BB9D2;}
	.st24{fill:none;stroke:#636362;stroke-width:4;stroke-miterlimit:10;}
	.st25{fill:none;stroke:#636362;stroke-linecap:round;stroke-linejoin:round;stroke-miterlimit:10;}
	.st26{fill:none;stroke:#636362;stroke-miterlimit:10;}
	.st27{fill:none;stroke:#000000;stroke-miterlimit:10;}
	.st28{opacity:0.48;fill:#F09687;}
	.st29{opacity:0.46;fill:#00A6C5;}
	.st30{opacity:0.67;fill:#60B676;}
	.st31{fill:#FFFFFF;stroke:#636362;stroke-linecap:round;stroke-linejoin:round;stroke-miterlimit:10;}
	.st32{opacity:0.81;fill:#EE717C;}
	.st33{opacity:0.52;fill:#2BB9D2;}
</style>
    <g id="dessin">
	<path class="st0" d="M229.5,135.2c0.3-0.8,3-7.5,4.3-7.2c1.4,0.3,0.6,8,0.5,8.8c-23.5,78.7-47.1,157.5-70.6,236.2l-11.7-3.7
		C177.8,291.3,203.6,213.2,229.5,135.2z"/>

        <rect class="st0" height="24.5" transform="matrix(0.3037 -0.9528 0.9528 0.3037 -254.087 412.183)" width="6.1"
              x="151.9" y="367.7"/>
        <path class="st0" d="M173,458h-14.3c-0.9-0.6-1.7-1.1-2.6-1.6c-5.5-3-13.7-7.6-13.7-22.9c0-19.7,8.2-28.4,8.3-28.5
		c1.2-1.2,1.1-3.1,0-4.3s-3.1-1.2-4.3,0c-0.4,0.4-10.1,10.4-10.1,32.8c0,13.4,5.7,20.5,11,24.5H134c-6-3-10.5-8.5-12.4-14.9
		c-2.8-11.4,4.8-23.1,4.9-23.2c0.9-1.4,0.5-3.3-0.9-4.2s-3.3-0.6-4.2,0.8c-0.4,0.6-9.2,14-5.7,28c1.2,5,3.9,9.6,7.7,13.2
		c-7.4-0.6-14-2.2-17.6-6.3c-3.2-3.7-4.3-9.4-3.3-17.6c3-24.1,20.5-37.6,39.2-48.5l19.1,6.1v26.7c0,16.1,11.1,31.9,17.7,39.9H173z"
        />
        <rect class="st1" height="12.3" width="12.3" x="77.4" y="353.1"/>
        <path class="st1" d="M98.9,337.8c5.1,0,9.2,4.1,9.2,9.2H95.8v-8.6C96.8,338,97.9,337.8,98.9,337.8z"/>
        <circle class="st1" cx="92.8" cy="386.8" r="3.1"/>
        <path class="st1" d="M117.3,353.4c1.7,0,3.1,1.4,3.1,3.1v6.1c0,1.7-1.4,3.1-3.1,3.1H95.8v-12.3H117.3z"/>
        <path class="st1"
              d="M65.2,310.5c0-6.8,5.5-12.3,12.3-12.3s12.3,5.5,12.3,12.3v22c-4.8-8.9-14.5-13.9-24.5-12.6V310.5z"/>
        <path class="st1" d="M31.4,341.1c0-3.8,2.4-7.3,6-8.6c3.6-1.3,7.7-0.3,10.2,2.6c0.6,0.7,1.6,1.1,2.6,1c1-0.1,1.9-0.6,2.4-1.5
		c3.9-6.5,11.4-9.9,18.8-8.7c7.5,1.3,13.4,7,14.9,14.4c0.2,1.2,1.1,2.1,2.3,2.4c0.4,0.1,0.8,0.1,1.2,0v4.5H77.4v-3.1
		c0-1.7-1.4-3.1-3.1-3.1s-3.1,1.4-3.1,3.1v58.3c0,0.8-0.3,1.6-0.9,2.2c-0.6,0.6-1.3,0.9-2.1,0.9c-1.7,0-3.1-1.4-3.1-3.1V381
		c0-5.1-4.1-9.2-9.2-9.2c-5.1,0-9.2,4.1-9.2,9.2v9.2c0,0.8-0.3,1.6-0.9,2.2c-0.6,0.6-1.3,0.9-2.1,0.9c-1.7,0-3.1-1.4-3.1-3.1v-46
		c0-1.7-1.4-3.1-3.1-3.1c-1.7,0-3.1,1.4-3.1,3.1v3.1h-0.6C32.3,345.6,31.4,343.4,31.4,341.1L31.4,341.1z"/>
        <path class="st1" d="M22.2,356.5c0-1.7,1.4-3.1,3.1-3.1h9.2v12.3h-9.2c-1.7,0-3.1-1.4-3.1-3.1V356.5z"/>
        <path class="st1" d="M97,457.7H45.6c-4.7,0-8.7-3.6-9.2-8.3l-7.8-77.6h5.8v18.4c0,5.1,4.1,9.2,9.2,9.2c5.1,0,9.2-4.1,9.2-9.2V381
		c0-1.7,1.4-3.1,3.1-3.1c0.8,0,1.6,0.3,2.2,0.9c0.6,0.6,0.9,1.3,0.9,2.1v21.5c0,5.1,4.1,9.2,9.2,9.2c5.1,0,9.2-4.1,9.2-9.2v-30.7
		h12.3v6.7c-4.2,1.5-6.8,5.8-6,10.2c0.8,4.4,4.6,7.6,9.1,7.6c4.5,0,8.3-3.2,9.1-7.6c0.8-4.4-1.8-8.7-6-10.2v-6.7h18.1l-2.8,28.4
		c-8.4,9-13.8,20.4-15.2,32.6c-1.2,10,0.3,17.3,4.8,22.4c0.4,0.4,0.8,0.7,1.2,1.1C100.4,457.2,98.7,457.7,97,457.7z"/>
        <g id="Page-1_2_">
		<g id="_x30_17---Spring-Clean_2_" transform="translate(0 -1)">
			<path class="st2" d="M68.2,418.5c-5.1,0-9.2,4.1-9.2,9.2s4.1,9.2,9.2,9.2s9.2-4.1,9.2-9.2S73.3,418.5,68.2,418.5z
				 M68.2,430.8c-1.7,0-3.1-1.4-3.1-3.1s1.4-3.1,3.1-3.1s3.1,1.4,3.1,3.1S69.9,430.8,68.2,430.8z" id="Shape_5_"/>
            <path class="st2" d="M197.1,458.4h-13c0-1.4-0.5-2.8-1.3-3.9c-6.1-7.4-16.3-21.8-16.3-36v-25.6
				c2.2-0.4,4-2,4.7-4.1l1.9-5.8c0.5-1.6,0.4-3.2-0.4-4.7c-0.7-1.4-2-2.5-3.6-3c23.5-80.8,47.1-161.7,70.6-242.5
				c2.5-6.7,1-12.4-1.4-13.3c-2.4-0.9-7.5,2.2-10.2,8.9c-27.5,79.8-55,159.7-82.5,239.5c-3.2-1-6.7,0.8-7.7,4l-1.9,5.8
				c-0.4,1.3-0.4,2.7,0.1,3.9c-6.4,3.7-12.5,8-18.2,12.8l2.2-22.3c3.8-1.2,6.4-4.7,6.4-8.7v-6.1c0-5.1-4.1-9.2-9.2-9.2h-3.1
				c0.1-4.6-2-9-5.6-11.9c-3.6-2.9-8.3-4-12.8-3.1v-21.8c0-10.2-8.2-18.4-18.4-18.4c-10.2,0-18.4,8.2-18.4,18.4v11
				c-3.8,1.5-7.1,4-9.7,7.1c-2.6-1.8-5.6-2.8-8.7-2.8c-5.2,0-10,2.6-12.8,6.9c-2.8,4.3-3.3,9.8-1.2,14.5h-1.3
				c-5.1,0-9.2,4.1-9.2,9.2v6.1c0,4,2.6,7.5,6.4,8.7l7.9,78.7c0.8,7.9,7.4,13.8,15.3,13.8H97c3.8,0,7.4-1.4,10.2-3.9
				c6.4,3.1,15,3.9,25.5,3.9C154.1,462.5,175.6,460.4,197.1,458.4z M229,135.6c0.3-0.8,3-7.5,4.3-7.2c1.4,0.3,0.6,8,0.5,8.8
				c-23.5,78.7-47.1,157.5-70.6,236.2l-11.7-3.7C177.3,291.6,203.2,213.6,229,135.6z M143.7,373.6l23.4,7.5l-1.9,5.8l-23.4-7.5
				L143.7,373.6z M117.3,354.1c1.7,0,3.1,1.4,3.1,3.1v6.1c0,1.7-1.4,3.1-3.1,3.1H95.8v-12.3H117.3z M77.4,354.1h12.3v12.3H77.4
				V354.1z M98.9,338.8c5.1,0,9.2,4.1,9.2,9.2H95.8v-8.6C96.8,339,97.9,338.8,98.9,338.8z M65.2,311.2c0-6.8,5.5-12.3,12.3-12.3
				s12.3,5.5,12.3,12.3v22c-4.8-8.9-14.5-13.9-24.5-12.6V311.2z M31.4,341.8c0-3.8,2.4-7.3,6-8.6s7.7-0.3,10.2,2.6
				c0.6,0.7,1.6,1.1,2.6,1c1-0.1,1.9-0.6,2.4-1.5c3.9-6.5,11.4-9.9,18.8-8.7c7.5,1.3,13.4,7,14.9,14.4c0.2,1.2,1.1,2.1,2.3,2.4
				c0.4,0.1,0.8,0.1,1.2,0v4.5H77.4v-3.1c0-1.7-1.4-3.1-3.1-3.1s-3.1,1.4-3.1,3.1v58.3c0,0.8-0.3,1.6-0.9,2.2
				c-0.6,0.6-1.3,0.9-2.1,0.9c-1.7,0-3.1-1.4-3.1-3.1v-21.5c0-5.1-4.1-9.2-9.2-9.2c-5.1,0-9.2,4.1-9.2,9.2v9.2
				c0,0.8-0.3,1.6-0.9,2.2c-0.6,0.6-1.3,0.9-2.1,0.9c-1.7,0-3.1-1.4-3.1-3.1v-46c0-1.7-1.4-3.1-3.1-3.1c-1.7,0-3.1,1.4-3.1,3.1v3.1
				h-0.6C32.3,346.3,31.4,344.1,31.4,341.8L31.4,341.8z M22.2,357.2c0-1.7,1.4-3.1,3.1-3.1h9.2v12.3h-9.2c-1.7,0-3.1-1.4-3.1-3.1
				V357.2z M97,458.4H45.6c-4.7,0-8.7-3.6-9.2-8.3l-7.8-77.6h5.8v18.4c0,5.1,4.1,9.2,9.2,9.2c5.1,0,9.2-4.1,9.2-9.2v-9.2
				c0-1.7,1.4-3.1,3.1-3.1c0.8,0,1.6,0.3,2.2,0.9c0.6,0.6,0.9,1.3,0.9,2.1v21.5c0,5.1,4.1,9.2,9.2,9.2c5.1,0,9.2-4.1,9.2-9.2v-30.7
				h12.3v6.7c-4.2,1.5-6.8,5.8-6,10.2c0.8,4.4,4.6,7.6,9.1,7.6c4.5,0,8.3-3.2,9.1-7.6c0.8-4.4-1.8-8.7-6-10.2v-6.7h18.1l-2.8,28.4
				c-8.4,9-13.8,20.4-15.2,32.6c-1.2,10,0.3,17.3,4.8,22.4c0.4,0.4,0.8,0.7,1.2,1.1C100.4,457.9,98.7,458.4,97,458.4z M95.8,387.8
				c0,1.7-1.4,3.1-3.1,3.1s-3.1-1.4-3.1-3.1s1.4-3.1,3.1-3.1S95.8,386.2,95.8,387.8z M172.5,458.4h-14.3c-0.9-0.6-1.7-1.1-2.6-1.6
				c-5.5-3-13.7-7.6-13.7-22.9c0-19.7,8.2-28.4,8.3-28.5c1.2-1.2,1.1-3.1,0-4.3c-1.2-1.2-3.1-1.2-4.3,0
				c-0.4,0.4-10.1,10.4-10.1,32.8c0,13.4,5.7,20.5,11,24.5h-13.2c-6-3-10.5-8.5-12.4-14.9c-2.8-11.4,4.8-23.1,4.9-23.2
				c0.9-1.4,0.5-3.3-0.9-4.2c-1.4-0.9-3.3-0.6-4.2,0.8c-0.4,0.6-9.2,14-5.7,28c1.2,5,3.9,9.6,7.7,13.2c-7.4-0.6-14-2.2-17.6-6.3
				c-3.2-3.7-4.3-9.4-3.3-17.6c3-24.1,20.5-37.6,39.2-48.5l19.1,6.1v26.7c0,16.1,11.1,31.9,17.7,39.9L172.5,458.4z" id="Shape_4_"/>
            <circle class="st2" cx="105" cy="292.7" id="Oval_5_" r="3.1"/>
            <circle class="st2" cx="52.9" cy="292.7" id="Oval_4_" r="3.1"/>
		</g>
	</g>
        <path class="st1" d="M349,293.7h-13.9c-4.3,0-7.8-3.5-7.8-7.8v-4.2c0-4.3,3.5-7.8,7.8-7.8H349c4.3,0,7.8,3.5,7.8,7.8v4.2
		C356.8,290.2,353.3,293.7,349,293.7z"/>
        <rect class="st0" height="45.5" width="76.1" x="307.2" y="336.8"/>
        <g>
		<g>
			<path class="st2" d="M324.3,279.9c-5.7,26.3,47.3,20.4,36.1-5.6c-1.3-2.9-5.6-0.4-4.3,2.5c7.4,17.3-30.7,21.9-27,4.4
				C329.8,278.1,325,276.8,324.3,279.9L324.3,279.9z"/>
		</g>
	</g>
        <g>
		<g>
			<path class="st2" d="M304.3,279.3c27-1.2,53.8-4.1,80.5-8.7c3.2-0.5,1.8-5.4-1.3-4.8c-26.2,4.5-52.6,7.3-79.1,8.5
				C301,274.4,301,279.4,304.3,279.3L304.3,279.3z"/>
		</g>
	</g>
        <g>
		<g>
			<path class="st2" d="M281.7,341.3c-1.3,18.5-0.3,37,3,55.3c1.3,7.1,2.5,13.8,9.8,16.8c7.4,3.1,16.4,3.8,24.3,4.4
				c18.1,1.4,36.2-0.5,54-3.4c9-1.5,18.7-2.5,27.5-5.1c6.4-1.9,8.2-6.4,9-12.6c2.8-21.7,3.5-43.7,2.5-65.5c-0.2-3.2-5.2-3.2-5,0
				c1,20.9,0.4,41.9-2.1,62.6c-0.3,2.4-0.2,5.7-1.5,7.9c-1.5,2.5-4.5,2.9-7,3.4c-5,1-10.1,1.9-15.1,2.8c-10.2,1.8-20.5,3.4-30.8,4.4
				c-9.8,0.9-19.7,1.2-29.5,0.6c-5.5-0.4-10.9-1-16.3-2.1c-5.3-1-11.2-1.8-13.1-7.7c-3.3-9.6-3.9-21-4.6-31.1
				c-0.7-10.2-0.6-20.5,0.1-30.8C286.9,338,281.9,338.1,281.7,341.3L281.7,341.3z"/>
		</g>
	</g>
        <g>
		<g>
			<path class="st2" d="M388.3,336.2c-2.3-54.1,3.4-112.5,39.6-155.6c2.1-2.4-1.5-6-3.5-3.5c-37.1,44.2-43.5,103.5-41.1,159.1
				C383.4,339.4,388.4,339.4,388.3,336.2L388.3,336.2z"/>
		</g>
	</g>
        <g>
		<g>
			<path class="st2" d="M296,331.1c1.9-19.4,1.1-38.9-2.4-58.1c-1.5-8.3-2.9-17.5-6.5-25.3c-2.5-5.4-6.7-9.7-12.9-9.5
				c-3.2,0.1-3.2,5.1,0,5c7.7-0.2,9.6,9.6,11.1,15.3c2,7.9,3.7,15.8,4.8,23.9c2.2,16.1,2.4,32.5,0.9,48.7
				C290.7,334.3,295.7,334.2,296,331.1L296,331.1z"/>
		</g>
	</g>
        <g>
		<g>
			<path class="st2" d="M257.3,332c10.3,0.2,20.2,3,30.4,4.6c10,1.6,20.1,2.7,30.2,3.2c20.8,1.1,41.7,0.3,62.5-0.5
				c3.2-0.1,3.2-5.1,0-5c-20.8,0.8-41.7,1.6-62.5,0.5c-10.6-0.6-21.2-1.6-31.7-3.5c-9.6-1.7-19-4.2-28.8-4.3
				C254.1,327,254.1,332,257.3,332L257.3,332z"/>
		</g>
	</g>
        <path class="st2" d="M385.1,335c-0.2,3.3-0.8,6.7-0.7,10c0.5,10.7,1.1,21.5,2.2,32.1c0.4,4-1,4.9-3.4,5.2
		c-4.4,0.7-8.9,1.4-13.4,1.7c-19.8,1.4-39.6,2.7-59.4,4.1c-5.6,0.4-8.6-2.5-8.4-9.1c0.4-12.3,0.9-24.7,1.5-37c0.1-1.9,1.3-3.7,2-5.6
		c0.5,0.1,1,0.1,1.5,0.2c0.2,1.5,0.6,3.1,0.6,4.6c-0.2,11.7-0.5,23.4-0.8,35.1c-0.1,5.6,1.9,6.8,6.6,6.3c19.4-1.7,38.8-2.8,58.2-4.2
		c1.5-0.1,3-0.3,4.5-0.6c4-0.7,5.3-2.9,5.1-8.2c-0.3-10.5,0.7-21.1,1.2-31.7c0.1-1.2,0.7-2.3,1-3.5
		C384.1,334.9,384.6,334.9,385.1,335z"/>
        <g>
		<path class="st2" d="M285.2,120.9c-3.3,3.4-6,7.5-6,7.5c-1.6,2.4-2.8,4.7-3.7,6.5c0-0.1-0.1-0.1-0.1-0.2c-0.1,0.4-0.2,0.7-0.3,1
			c0,0.1-0.1,0.2-0.2,0.3c-0.4,0.8-1.2,2.2-1.8,2.9c-0.2,0.2-0.5,0.6-0.9,1c0.2,0.8,0.4,1.6,0.6,2.3c0.5,1.6,1,3.1,1.8,5.9
			c1.1-2.1,1.5-2.5,1.6-3c3.1-13.7,11-23.6,24.4-28c13.6-4.4,27.5-7.3,42.1-5.9c12.9,1.2,24.8,4.3,35.4,11.8c3.9,2.8,7,3.4,11.4,0.1
			c7.5-5.8,16.4-3,20,5.8c3.7,9.1,4,18.1-2,26.5c-2.3,3.2-4.4,6.5-7.1,9.3c-3,3.2-2,5.1,1.4,6.8c3.7,1.8,10.7,6.6,14.2,8.7
			c11,8.1,16.2,14.2,22.1,23.8c9,14.8,14.4,28.1,12.1,44.7c-0.2,1.5-0.2,3-0.4,4.4c-5.7,38.4-21.8,68.9-61.8,81.2
			c-1.8,0.5-3.1,2.7-4.6,4.1c2,0.7,4.3,2.3,6.1,1.9c4.9-1.1,9.5-3,14.3-4.6c0,0-0.2,0.1-0.2,0.1c9-7.4,19.2-13.8,26.7-22.4
			c14.9-17.2,22.4-38.3,28-60.1c0.5-2,1.3-4,2-5.9c0.5,0,1,0,1.6-0.1c3.3,8.4,7,16.7,9.9,25.3c10.6,31.7,14.2,64.2,9.8,97.3
			c-2.2,16.8-6,33.4-14.2,48.4c-8,14.6-19.8,25.9-36.3,29.1c-23.1,4.5-46.5,7.5-70,9.7c-12.2,1.2-24.8,0-37.1-1.2
			c-7.6-0.8-9.1-6.8-3.8-12.2c2-2,4.8-3.6,7.5-4.4c7.3-2.1,14.7-3.8,22.2-5.3c19.2-3.8,31.2-16.1,39.5-32.9c0.4-0.8,0.2-1.8,0.3-4.1
			c-1.6,1.9-2.5,2.5-2.9,3.5c-10.5,20.6-28.3,29.3-50.3,32c-8.1,1-16.2,3.7-23.8,7c-4.9,2.1-7.4,7.2-6.4,13.1
			c0.9,5.9,4.6,9.5,10.3,10.2c8.2,1,16.1,0.6,24.4,0.7c6.3-0.2,10.3-0.5,15.3-0.9c27.8-2.5,55.4-6,82.5-12.5
			c1.7-0.4,3.6-0.1,5.3,0.3c12.6,3.2,25,7.5,37.7,9.4c15.4,2.2,31.2,2.8,46.2-3.2c11-4.4,20.4-10.7,23.9-23.1
			c2.4-8.4-0.4-17.8-7.6-22.1c-4.1-2.5-8.5-4.5-13-6.2c-12.3-4.7-25.1-6.7-38.2-6.5c-3.6,0.1-6.2-0.7-5.1-5.5
			c4.3-19.2,5-38.6,4.1-58.2c-1.8-38.4-9.6-75.2-28.4-109c-8.8-15.8-17.8-31.5-32.4-42.8c-7.7-5.9-16.2-10.9-24.5-16.4
			c0.5-0.7,1.3-1.9,2.2-3c9.7-11.5,11.7-24.5,7.5-38.6c-3.4-11.1-15.2-16.8-25.3-11.1c-5.3,3-9.3,2.4-13.7-0.5
			c-8.3-5.3-31.2-9.7-49.9-8.9c-4.8,0.2-10.2,0.5-17.2,2.4C307.8,107.7,294.1,111.6,285.2,120.9z"/>
            <path class="st2" d="M276.4,240c-1.5,0.7-3.2,1.1-4.5,2.1c-0.8,0.6-1,1.9-1.4,3c-8.6,24-25.2,39-50.2,44.2
			c-6.2,1.3-12.9,0.9-19.3,0.8c-0.7,0-1.3-0.1-1.8-0.3c-7.4,1.3-14.9-1-21.8-4.6c-0.9-0.4-1.8-0.8-2.7-1.3c1.4,1.8,3.6,3.6,4.8,5.9
			c-2.9-1.3-4.4-2.3-6-2.6c-1.4-0.2-2.9,0.4-4.3,0.6c0.5,1.4,0.6,3.1,1.5,4.2c1.2,1.4,3,2.2,4.5,3.2c6.5,4.4,7.5,4.1,9.8-2
			c7.2,1,14.3,3.1,21.4,2.9c21.2-0.5,39.3-9.2,54.1-24.1c7.8-7.8,13.7-17.1,17-27.7C277.8,243.1,276.8,241.5,276.4,240z"/>
            <path class="st2" d="M232.6,432c-6.7,4.2-9.1,9.2-7.5,15.2c1.8,6.8,7.3,8.8,13.2,9.1c15,0.7,30,1,45,1.1c4.6,0,9.2-0.8,13.8-1.7
			c1.7-0.3,3.1-2,4.7-3c-1.8-0.9-3.5-2.4-5.3-2.6c-2.5-0.3-5.2,0.6-7.7,0.6c-13.7,0.1-27.5,0.5-41.1-0.1c-3.5-0.2-8.9-3.3-9.9-6.2
			c-1.6-4.8,2.4-8.9,7-11.4c1-0.5,2-1,3.1-1.3c6.4-1.7,13-3.2,19.4-5.1c3.8-1.1,6.7-0.9,9.1,2.8c0.8,1.3,3.3,1.4,5.1,2.1
			c0.6-2,1.6-4.1,1.6-6.1c-0.1-1.4-1.7-2.8-2.6-4.1c-4.1-6.4-8.7-12.5-12.3-19.1c-8.2-14.9-9.3-31.6-10.2-48.1
			c-0.9-15.3,3.4-29.8,9-43.9c0.8-2.1,2.3-4.2-1.3-5.1c0,0,0.2-0.1,0.2-0.1c-0.1,0.7,0,1.6-0.4,2.1c-7.2,12-10.7,25-12.6,38.9
			c-3.1,23.6,1.5,45.4,12.2,66.2c4.6,9,4.6,9-6,11.4C258.7,423.5,239.2,428.9,232.6,432z"/>
            <path class="st2" d="M312.6,164.9c-0.3,7.7-6.2,9.6-11.2,12c-5.9,2.8-11.8,1.8-16.5-2.7c-5.5-5.3-8.1-11.9-6.5-19.7
			c1.5-7.6,8.1-12.3,17.9-12.9c6.1-0.4,11.8,3.5,13.6,10c0.4,1.5-0.7,4.8-1.6,5c-2.9,0.8-4.5,2-3.8,4.9c0.7,3.2,2.9,4,5.9,3.1
			C310.8,164.5,311.4,164.7,312.6,164.9z"/>
            <path class="st2" d="M294.6,180.4c-0.1,1.8-0.4,3.7-0.3,5.5c0.1,4.6-0.6,9.4,0.6,13.7c2.3,8.1,8,10.4,16.2,7.2
			c2.7-1.1,5.4-2.6,7.8-4.2c2.4-1.6,4.5-3.7,6.7-5.6c0.5,0.2,1,0.3,1.5,0.5c-0.6,1.9-0.7,4.3-1.9,5.7c-4.7,5.7-9.7,11.2-14.8,16.6
			c-1.2,1.2-3.1,2-4.8,2.4c-1.8,0.4-3.8-0.1-5.5,0.3c-11.5,2.9-17.7-4.9-24.3-12c-1.1-1.2-1.2-3.5-1.7-5.3c0.4-0.3,0.8-0.6,1.2-0.8
			c1.6,1,3.4,1.9,4.9,3.1c3.4,2.7,6.9,1.8,9.7-0.3c1.1-0.9,0.5-4.1,0.6-6.2c0-5.3-0.2-10.7,0.1-16c0.1-1.7,1.6-3.3,2.5-5
			C293.5,180.1,294.1,180.3,294.6,180.4z"/>
            <path class="st2" d="M275.2,159.3c-0.4,1.2-0.5,2.7-1.2,3.5c-9.3,9.7-9.6,21.6-7.2,33.4c1.6,7.8,6.1,14.9,9.1,22.4
			c0.5,1.4,0.2,3.1,0.3,4.6c-1.6-0.5-4.1-0.5-4.6-1.5c-3.8-7.3-9.2-14.5-10.4-22.3c-2.1-13.8-0.7-27.8,9.9-38.9
			c0.7-0.7,1.7-1.2,2.5-1.8C274.1,158.8,274.7,159,275.2,159.3z"/>
            <path class="st2" d="M399.1,127.5c5.6,3.1,9.8,17.1,6.5,22.4c-0.5,0.9-2.2,2.2-2.3,2.1c-3.2-2.9-8.5-5.8-8.7-9
			C394.3,138,397.4,132.7,399.1,127.5z"/>
            <path class="st2" d="M265.5,304.8c-9.4,1.5-18.4,5.7-28.1,4.2c-0.1-0.7-0.3-1.4-0.4-2.2c13.8-4,27.6-8,41.4-11.9
			c-0.1,4.4-0.4,4.7-13,10C265.3,304.9,265.5,304.8,265.5,304.8z"/>
            <path class="st2" d="M183.6,314.4c-0.7-0.6-2.4-1.9-4-3.3c1.9-0.9,3.7-2.3,5.7-2.7c2.5-0.5,5.2-0.5,7.6-0.1
			c1.4,0.3,2.6,1.9,3.9,2.9c-1.1,1-2.2,2.5-3.4,2.8C190.7,314.5,187.9,314.3,183.6,314.4z"/>
            <path class="st2" d="M403.5,336c4.2-0.9,5.8,2,5.4,5c-0.4,2.4-2.3,5.3-4.4,6.6c-3.3,1.9-5.5,0.4-8.4-5c2.3-0.3,4.3-0.5,6.8-0.8
			c0.3-1.8,0.6-3.9,0.9-6C403.7,335.9,403.5,336,403.5,336z"/>
            <path class="st2" d="M188,305c-1.7,0.6-3.2,1.9-4.4,1.6c-3.5-0.9-7-2.3-10.4-3.7c-0.7-0.3-1.4-1.4-1.4-2.1c0-0.7,1.1-2,1.4-1.9
			c4.5,1,9,2.2,13.4,3.5C187.2,302.6,187.4,303.7,188,305z"/>
	</g>
        <g>
		<g>
			<path class="st8" d="M348.8,150.9c-5.1,1.4-11.3-0.8-13.8-4.1c0,0-0.2-0.7-0.4-1.5c1.9-4.5,10.1-9.1,15.5-6.6
				c2.6,0.9,3.4,3.8,5.5,5.6c0.2,0.7-0.9,2.6-1.6,2.8C352.3,149.1,351,150.3,348.8,150.9z"/>
		</g>
	</g>
        <g>
		<circle class="st9" cx="348.6" cy="144.6" r="3.8"/>
	</g>
        <path class="st10" d="M488.3,453.1c0,0,8.7-28.3,35.1-43.3"/>
        <path class="st10" d="M505.9,458.4c0,0,8.7-28.3,35.1-43.3"/>
        <path class="st10" d="M462.9,451.5c0,0,10.4-32.1,42.6-48.8"/>
        <path class="st10" d="M479.5,408.7c0,0,35.8-4.1,67.7,25.5"/>
        <path class="st10" d="M468.6,422.3c0,0,35.8-4.1,67.7,25.5"/>
        <path class="st10" d="M459.9,440.4c0,0,32.2-5.4,59.2,15"/>
        <path class="st9" d="M287.2,211c0,0,1,5.9,4.5,7.8h5l-1.5-7.8H287.2z"/>
        <path class="st9" d="M296.7,211l1.5,7.8h4.5c0,0,2.1-6.1,2.1-8.7C304.8,210.1,300.4,211.6,296.7,211z"/>
</g>
    <g id="tracé">
</g>
</svg>
