<?xml version="1.0" encoding="utf-8"?>
<!-- Generator: Adobe Illustrator 22.1.0, SVG Export Plug-In . SVG Version: 6.00 Build 0)  -->
<svg style="enable-background:new 0 0 579.6 563.9;" version="1.1" viewBox="0 0 579.6 563.9" x="0px"
     xmlns="http://www.w3.org/2000/svg" y="0px" xml:space="preserve">
<style type="text/css">
	.st0{opacity:0.55;fill:#2BB9D2;}
	.st1{fill:#EE717C;}
	.st2{fill:#636362;}
	.st3{fill:#F0F0F1;}
	.st4{opacity:0.55;}
	.st5{fill:#2BB9D2;}
	.st6{fill:#D9072A;}
	.st7{opacity:0.54;fill:#2BB9D2;}
	.st8{fill:#676767;}
	.st9{fill:#FFFFFF;}
	.st10{fill:none;stroke:#FFFFFF;stroke-width:0.5;stroke-linecap:round;stroke-linejoin:round;stroke-miterlimit:10;}
	.st11{fill:#FFFFFF;stroke:#3E3E3E;stroke-width:5;stroke-miterlimit:10;}
	.st12{opacity:0.69;}
	.st13{fill:#070707;}
	.st14{fill:none;stroke:#FFFFFF;stroke-width:0.25;stroke-linecap:round;stroke-linejoin:round;stroke-miterlimit:10;}
	.st15{fill:none;stroke:#636362;stroke-width:2;stroke-linecap:round;stroke-linejoin:round;stroke-miterlimit:10;}
	.st16{fill:none;stroke:#636362;stroke-width:2;stroke-miterlimit:10;}
	.st17{fill:#636362;stroke:#636362;stroke-width:2;stroke-linecap:round;stroke-linejoin:round;stroke-miterlimit:10;}
	.st18{opacity:0.6;fill:#2BB9D2;}
	.st19{fill:#00A6C5;}
	.st20{fill:none;stroke:#EE717C;stroke-width:8;stroke-miterlimit:10;}
	.st21{fill:none;stroke:#444444;stroke-width:4;stroke-miterlimit:10;}
	.st22{fill:#FFFFFF;stroke:#454545;stroke-width:4;stroke-miterlimit:10;}
	.st23{opacity:0.57;fill:#2BB9D2;}
	.st24{fill:none;stroke:#636362;stroke-width:4;stroke-miterlimit:10;}
	.st25{fill:none;stroke:#636362;stroke-linecap:round;stroke-linejoin:round;stroke-miterlimit:10;}
	.st26{fill:none;stroke:#636362;stroke-miterlimit:10;}
	.st27{fill:none;stroke:#000000;stroke-miterlimit:10;}
	.st28{opacity:0.48;fill:#F09687;}
	.st29{opacity:0.46;fill:#00A6C5;}
	.st30{opacity:0.67;fill:#60B676;}
	.st31{fill:#FFFFFF;stroke:#636362;stroke-linecap:round;stroke-linejoin:round;stroke-miterlimit:10;}
	.st32{opacity:0.81;fill:#EE717C;}
	.st33{opacity:0.52;fill:#2BB9D2;}
</style>
    <g id="dessin">
</g>
    <g id="tracé">
	<path class="st0" d="M265,381.7c-2.8,2.7-6.6,5.6-9.4,4.6c-3.8-1.5-2.3-9.1-5.4-11c-3.2-2-11.3,2-31.4,23.6c-1-1.5-2.3-3.8-3-6.8
		c-1.5-6.7,1.5-10.7,1.5-15.3c-0.1-4.3-2.9-10.1-14.7-17c-1.5-3.1-3.5-7.8-4.8-13.6c-1.2-5.4-1.1-8.4-0.3-26.5
		c0.7-15.1,1.1-22.8,4.4-26.6c2.9-3.4,5.3-3.7,6.5-7c2.3-6-2.3-13.3-6.7-18.7c-3.4-4.7-3.2-10.8,0.1-14.6c3.6-4.1,9.2-3.6,9.8-3.5
		c1.3-2.5,6.7-12.5,18.5-16.3c2.8-0.9,9.3-3,16-0.6c4.2,1.5,5.5,3.7,13.3,8.7c3.6,2.3,6.7,4,8.7,5c0.8,2.5,1.9,7.3,0.8,13.2
		c-1.4,7.9-5.9,12.9-7.7,14.8c1.9,1,3.7,2.1,5.6,3.1c9.7,9.1,14.5,18.3,16.9,23.9c9.7,23,6.6,51.3-8.5,70.5
		C271.5,376.3,267.6,379.6,265,381.7z"/>
        <g>
		<path class="st2" d="M321.2,151.5c4.7,2.9,9.6,5.5,14.1,8.8c16.7,12.3,26.9,29.6,37,47.3c14,24.3,18.7,51.2,22.7,78.2
			c3.3,22,6.5,44.2,7.7,66.4c1.1,19.2-0.4,38.6-1.4,57.9c-0.3,6.3,1.7,7.1,7.2,7.3c28.5,1,54.5,9.6,77.4,26.7
			c9.5,7.1,11.6,19.8,5.6,30c-7,11.9-17.3,19.1-30.7,23.5c-34.3,11.3-66.4,5.1-97.8-10c-0.9-0.5-2-0.8-2.7-1.6
			c-8.1-8.4-16.6-6.2-26.1-2.3c-23,9.5-47.4,12.5-72.2,12.4c-13.7,0-27.3,0.8-41,0.8c-5,0-10.1-0.7-15-1.7
			c-6.7-1.4-11.6-5.3-13.2-12.1c-1.8-7.2,2.9-12,8.2-14.9c6.5-3.6,13.8-6.1,21-8.4c20.3-6.3,40.3-13.3,58.8-24.1
			c3.4-2,6.3-4.9,9.4-7.3c0.4,0.4,0.7,0.8,1.1,1.3c-5.8,4.5-11.1,10.3-17.6,13.3c-16,7.4-32.7,13.2-48.9,20.3
			c-6.4,2.8-12.8,6.5-17.8,11.2c-6.3,5.9-4.8,11.1,3.6,13.1c8.7,2.1,17.8,3.6,26.7,3.9c35,1.3,69.4-3.1,102.2-15.7
			c16.4-6.3,33.6-12.9,40-31.9c3-8.7,5.3-17.7,7.3-26.7c6.8-30,4.5-60.4,1.8-90.5c-2.1-23.6-6.7-47-10.4-70.4
			c-0.5-3.2-1.7-6.2-3.7-9.3c-1.2,4.4-2.4,8.8-3.7,13.2c-7.4,25.3-20,47.4-41.7,63c-12.5,9-26.5,15.4-41.5,19.4
			c-6.5,1.7-13,3.5-19.6,5c-1.2,0.3-2.6-0.5-3.8-0.9c0.9-1.2,1.6-3,2.7-3.3c9.1-2.7,18.3-4.7,27.4-7.5
			c35.7-11.1,57.5-35.8,70.7-70.1c10.7-27.8,1.8-51.4-12.9-74.4c-7.7-12.1-15.9-23.8-28.1-32c-1.9-1.3-3.2-3.6-4.7-5.5
			C319.9,153,320.6,152.3,321.2,151.5z"/>
            <path class="st2" d="M318.9,148.7c0.8-2.5,1.3-5.2,2.4-7.6c4.7-10,8.2-20.1,7.9-31.4c-0.5-17.9-17.7-30-34.6-19.2
			c-3.2,2-5.6,1.9-8.5-0.4c-26.8-21.7-56.1-21.6-86.8-10.3c-13.6,5-26.5,11-33.6,24.8c-1.9,3.8-3.8,7.6-6.7,11
			c-1.1-6.3,2-11.4,4.9-16.3c8.5-14.4,23.2-20.1,37.5-26.1c21.5-9.1,43.6-13,66.2-4.6c6.9,2.6,13.1,7.1,19.2,11.4
			c2.9,2,4.6,2.5,8.2,1.2c6.5-2.4,13.7-4.6,20.5-4.3c9.3,0.4,13.3,8.6,16.8,16.2c8.9,19,0.1,47.7-11.5,56.3
			C320.1,149.1,319.5,148.9,318.9,148.7z"/>
            <path class="st2" d="M205.8,125.1c-4.1,2-10.1,3.1-7.2,9.6c0.6,1.4,4.5,1.4,8.3,2.4c2.3,4.3,0.2,12.6-5.8,18.4
			c-5.2,5-14.8,5.9-21.1,1.9c-12.3-7.8-14.8-27.8-4.7-38.3C183.4,110.7,198.5,113.5,205.8,125.1z"/>
            <path class="st2" d="M311.6,374.3c-0.7,4.8-0.8,11-7.1,14c-6.8,3.2-13.5,1.9-18.7-3c-4.2-3.9-7.3-9.1-10.5-14
			c-0.7-1-0.1-3.2,0.4-4.6c2.2-5.9,4.4-11.8,7.2-17.4c0.9-1.7,3.8-3.8,5.5-3.5C300.2,347.7,311.7,361.6,311.6,374.3z"/>
            <path class="st2" d="M171.3,445.5c-6.9,8.8-16.3,12.8-27.4,13.6c-5.9,0.4-11.8-0.1-17.7,0.3c-9.5,0.7-18.3,3.5-24.1,11.8
			c-3.8,5.4-2.8,10.2,3.3,12.9c4.5,2,9.7,3.1,14.6,3.2c12.4,0.3,24.8-0.2,37.2-0.3c3.4,0,6.7,0,10.1,0.4c1,0.1,1.9,1.6,2.8,2.5
			c-1,0.9-2,2.5-2.9,2.5c-18.7-0.1-37.4,0.5-56-1.1c-8-0.7-17.1-3.9-20.2-13.8c-1.5-4.7-0.6-8.6,2.7-12.2
			c5.5-6.1,12.4-9.4,20.3-10.3c6.9-0.8,13.8-1.1,20.8-1.5c10.8-0.6,21.4-1.9,30.8-8c1.4-0.9,3.2-1.4,4.8-2.1
			C170.6,444.2,171,444.8,171.3,445.5z"/>
            <path class="st2" d="M164.4,341.2c-2.3-1.3-5.1-2.2-6.9-4c-27-27.3-34-60.3-26.7-97.1c2.3-11.6,8.7-20.8,17.7-28.3
			c1-0.8,2.8-0.6,4.3-0.9c-0.2,1.5,0.1,3.5-0.8,4.3c-15.1,15.6-17.8,34.6-16.6,55.3c1.4,24.2,13.5,43.3,26.2,62.5
			c1.3,2,2.8,3.9,4.3,5.9C165.5,339.7,164.9,340.5,164.4,341.2z"/>
            <path class="st2" d="M159.2,184.1c2.3,2.6,4.2,4.6,6,6.8c3.1,3.7,6.6,2.9,10.2,1.1c3.9-2,2.7-4.8,1.6-8
			c-2.4-7.4-2.6-14.7,2.6-21.7c0,2.2,0.3,4.4-0.1,6.5c-1.6,10,2.1,19.1,10.1,23.8c7.8,4.6,16.6,3.3,24.9-3.9
			c2.1-1.8,4.2-3.6,5.8-5.7c1.5-1.9,2.3-4.2,3.8-7.1c2.8,5.6,0.3,9.2-2.4,12.5c-6.3,7.6-12.4,15.2-19.1,22.3
			c-1.6,1.7-5.4,2.3-8.1,2.1c-6.5-0.4-12.9-1.5-19.3-2.3c-0.6-0.1-1.4-0.3-1.7-0.8c-5.1-7.7-10.1-15.4-15.1-23.1
			C158.2,186.3,158.8,185.5,159.2,184.1z M185.9,196.7c-0.8,4.4-1.2,8.4,3.9,9.2c3.4,0.5,8.4,2.2,8.7-4.9
			C194.4,199.6,190.3,198.3,185.9,196.7z M173.4,199c1.5,2.2,2.5,4.5,4.2,5.9c0.7,0.6,4.2-0.5,4.3-0.9c0.1-2.7-0.4-5.4-0.8-8.8
			C178,196.7,176.2,197.6,173.4,199z"/>
            <path class="st2" d="M133.5,396.3c-2.1-19.4,2.8-37.6,8.8-55.6c1-3,4-5.2,6-7.8c0,3.3,0.8,6.8-0.3,9.7
			c-11.5,30.8-10.1,61.8-1.8,92.9c0.4,1.4,1.3,2.9,1.2,4.2c-0.2,2.2-1.1,4.3-1.8,6.5c-1.7-1.5-4.6-2.8-5-4.7
			C137.4,426.6,135.1,411.4,133.5,396.3C134.1,396.2,132.8,396.4,133.5,396.3z"/>
            <path class="st2" d="M201.7,267.2c-8.1-5.3-7-17,1.6-21.3c4.2-2.1,6.9-4.7,9.3-8.6c5.9-9.6,22.1-14,32.6-9.1
			c4.3,2,8.2,4.9,12.4,7.4c1.2,0.7,2.6,1.8,3.7,1.6c6.9-1,10,4,11.4,8.7c1.2,4.1-0.2,9.2-1.1,13.7c-0.2,1.1-2.8,1.8-4.3,2.7
			c0-1.6-0.5-3.4-0.1-4.8c2.7-7.8,1.2-9.9-7.2-11.2c-2-0.3-4.1-2-5.4-3.7c-11.8-15.3-27.9-14.3-37.6,2.1c-1.1,1.9-3.4,4-5.4,4.4
			C199.5,251,196.8,255.3,201.7,267.2z"/>
            <path class="st2" d="M217.3,393.2c2.9-1.8,5.9-3.5,8.5-5.6c4.4-3.5,8.6-7.4,13-11c0.8-0.6,2.2-0.4,3.3-0.5
			c0.1,1.3,0.7,3.3,0.1,3.8c-7.6,6.5-15.1,13.3-23.4,18.8c-4.5,3-10.2-1.6-8.2-6.7c5.1-13.1,1.2-22.9-8-32.4
			c-2.8-2.9-3-8.3-4.8-13.6c6.8,7.6,12.2,14.1,18,20.1c4.6,4.8,6,9.9,3.4,16.1c-1.3,3.2-2.3,6.5-3.4,9.7
			C216.3,392.3,216.8,392.8,217.3,393.2z"/>
            <path class="st2" d="M154.2,203.6c-9.4-10.7-13.7-23.6-13.2-37.9c0.6-13.7,3.8-26.8,17.9-36.4c-0.6,3-0.4,4.7-1.1,5.5
			c-16.6,17.1-12.6,35.8-4.5,55c1.7,4,2.8,8.3,4.2,12.5C156.5,202.8,155.3,203.2,154.2,203.6z"/>
            <path class="st2" d="M269.1,275.6c10.6,6.5,17.7,15.9,20.6,28.1c1.4,5.8,1.2,12.1,1.3,18.1c0,1.5-1.4,3-2.2,4.5
			c-0.9-1.4-2.2-2.7-2.6-4.3c-2.4-8.6-3.9-17.5-7.1-25.8c-2-5.3-6.4-9.6-9.7-14.4c-1-1.5-1.7-3.2-2.6-4.8
			C267.6,276.5,268.4,276.1,269.1,275.6z"/>
            <path class="st2" d="M255.6,386.2c4.7-3.7,9.2-7.4,14-11c1.2-0.9,2.8-1.1,4.2-1.6c-0.1,1.7,0.4,4.1-0.5,4.9
			c-5.9,5.3-11.9,10.5-18.4,15c-2,1.4-6.8,1.3-8.4-0.1c-1.6-1.5-1.4-5.8-0.8-8.5c0.8-3.4,2.6-6.6,4.4-9.6c0.9-1.5,3-2.3,4.5-3.4
			c0.1,1.8,0.6,3.7,0.3,5.5c-0.4,2.5-1.2,4.9-1.9,7.4C254,385.2,254.8,385.7,255.6,386.2z"/>
            <path class="st2" d="M308.5,93.8c10.1,10.2,14.5,28.5,9.5,35.9c-4-2.5-8.1-4.9-12-7.6c-0.6-0.4-0.9-2.6-0.4-3.2
			c5.8-6.8,4.7-14.3,2.4-21.9C307.8,96.3,308.2,95.5,308.5,93.8z"/>
            <path class="st2" d="M247,104.9c0.9,0.3,3.9,0.6,5.4,2.2c1.7,1.8,2.1,4.9,3,7.4c-2.3,0.4-5,1.8-6.8,1.1c-5.3-2.2-9.2,0.6-13.6,2.5
			c-1.3,0.6-3,0.4-4.5,0.6c0.1-1.6-0.2-3.3,0.4-4.6C233.9,108.1,238.8,105.1,247,104.9z"/>
            <path class="st2" d="M163.1,311.9c7.1,9.9,13.5,18.9,20.2,28.4C173.4,341.5,160.1,322.7,163.1,311.9z"/>
            <path class="st2" d="M216.1,281.7c2.5-1.2,5.1-2.5,7.5-3.6c6.5,6.9,6.5,6.9,17.3,1.6c-1.4,2.2-2.3,5.1-4.3,6.6
			c-3.3,2.4-7.1,4.2-10.9,5.6c-2.9,1.1-5.8,0.9-6.6-3.4C218.6,286.4,217.3,284.5,216.1,281.7z"/>
            <path class="st2" d="M197.7,337.3c-5.6,0-16.3-11-16.2-15.6c0-0.9,0.7-2.4,1.3-2.5c1.5-0.3,3.9-0.5,4.6,0.3
			c4,4.5,7.8,9.3,11.3,14.2C199.2,334.3,198,336.3,197.7,337.3z"/>
            <path class="st2"
                  d="M208.5,285.9c-7.5,12.3-7.7,25.7-6.4,39.8c-4.7-2.9-5.2-4.8-4.6-16.6C198,300.1,200.3,291.8,208.5,285.9z"/>
            <path class="st2" d="M231.7,266.3c-0.6,6.5-3.1,10-7.6,9.6c-2.4-0.2-5.7-3.3-6.6-5.8c-1.3-3.5,3.9-9,7.5-8.2
			C227.7,262.6,230,265.1,231.7,266.3z"/>
            <path class="st2" d="M249.3,341.1c9.4-4.5,18-8.7,26.8-12.9C276.7,334.8,258.3,344.3,249.3,341.1z"/>
            <path class="st2" d="M252.9,327.6c7-2.9,13.6-5.7,20.8-8.7C272.3,326.4,258.5,332,252.9,327.6z"/>
            <path class="st2" d="M238.7,262.3c-2.6-1.6-4.1-2.6-5.6-3.6c2.7-1.9,5.2-4.2,8.1-5.4c1-0.4,3.1,2.2,4.7,3.4
			C243.7,258.5,241.4,260.2,238.7,262.3z"/>
            <path class="st2" d="M215.3,261.6c-2.3-2.6-4-4.5-5.7-6.4c1.2-0.8,3.1-2.6,3.5-2.3c1.8,1.3,3.4,3.1,4.6,5
			C218.1,258.3,216.5,259.8,215.3,261.6z"/>
            <path class="st9"
                  d="M185.9,196.7c4.4,1.5,8.5,2.9,12.7,4.3c-0.3,7-5.3,5.4-8.7,4.9C184.7,205.1,185.1,201.1,185.9,196.7z"/>
            <path class="st9" d="M173.4,199c2.8-1.4,4.7-2.4,7.6-3.9c0.4,3.4,0.9,6.1,0.8,8.8c0,0.4-3.5,1.5-4.3,0.9
			C175.9,203.5,174.9,201.3,173.4,199z"/>
	</g>
        <path class="st10" d="M408.6,492.2c0,0,10.6-37.5,44.7-58.2"/>
        <path class="st10" d="M432,498.5c0,0,10.6-37.5,44.7-58.2"/>
        <path class="st10" d="M375.3,491.2c0,0,12.7-42.5,54.4-65.8"/>
        <path class="st10" d="M395.8,434.3c0,0,46.9-6.8,89.7,30.8"/>
        <path class="st10" d="M381.9,452.6c0,0,46.9-6.8,89.7,30.8"/>
        <path class="st10" d="M371,476.7c0,0,42.1-8.3,78.2,17.3"/>
        <path class="st14" d="M286,370.5c0,0,9.6-6.8,21.4-3.7"/>
        <path class="st14" d="M290.2,377.7c0,0,9.6-6.8,21.4-3.7"/>
        <path class="st14" d="M278.5,362.2c0,0,11-7.5,25.1-3.2"/>
        <path class="st14" d="M294,353c0,0,12.1,9.6,14.9,29.3"/>
        <path class="st14" d="M287.3,354.2c0,0,12.1,9.6,14.9,29.3"/>
        <path class="st14" d="M280.2,357.6c0,0,11.3,8.1,14.8,23.2"/>
</g>
</svg>
