<?xml version="1.0" encoding="utf-8"?>
<!-- Generator: Adobe Illustrator 22.1.0, SVG Export Plug-In . SVG Version: 6.00 Build 0)  -->
<svg style="enable-background:new 0 0 579.6 563.9;" version="1.1" viewBox="0 0 579.6 563.9" x="0px"
     xmlns="http://www.w3.org/2000/svg" y="0px" xml:space="preserve">
<style type="text/css">
	.st0{opacity:0.55;fill:#2BB9D2;}
	.st1{fill:#EE717C;}
	.st2{fill:#636362;}
	.st3{fill:#F0F0F1;}
	.st4{opacity:0.55;}
	.st5{fill:#2BB9D2;}
	.st6{fill:#D9072A;}
	.st7{opacity:0.54;fill:#2BB9D2;}
	.st8{fill:#676767;}
	.st9{fill:#FFFFFF;}
	.st10{fill:none;stroke:#FFFFFF;stroke-width:0.5;stroke-linecap:round;stroke-linejoin:round;stroke-miterlimit:10;}
	.st11{fill:#FFFFFF;stroke:#3E3E3E;stroke-width:5;stroke-miterlimit:10;}
	.st12{opacity:0.69;}
	.st13{fill:#070707;}
	.st14{fill:none;stroke:#FFFFFF;stroke-width:0.25;stroke-linecap:round;stroke-linejoin:round;stroke-miterlimit:10;}
	.st15{fill:none;stroke:#636362;stroke-width:2;stroke-linecap:round;stroke-linejoin:round;stroke-miterlimit:10;}
	.st16{fill:none;stroke:#636362;stroke-width:2;stroke-miterlimit:10;}
	.st17{fill:#636362;stroke:#636362;stroke-width:2;stroke-linecap:round;stroke-linejoin:round;stroke-miterlimit:10;}
	.st18{opacity:0.6;fill:#2BB9D2;}
	.st19{fill:#00A6C5;}
	.st20{fill:none;stroke:#EE717C;stroke-width:8;stroke-miterlimit:10;}
	.st21{fill:none;stroke:#444444;stroke-width:4;stroke-miterlimit:10;}
	.st22{fill:#FFFFFF;stroke:#454545;stroke-width:4;stroke-miterlimit:10;}
	.st23{opacity:0.57;fill:#2BB9D2;}
	.st24{fill:none;stroke:#636362;stroke-width:4;stroke-miterlimit:10;}
	.st25{fill:none;stroke:#636362;stroke-linecap:round;stroke-linejoin:round;stroke-miterlimit:10;}
	.st26{fill:none;stroke:#636362;stroke-miterlimit:10;}
	.st27{fill:none;stroke:#000000;stroke-miterlimit:10;}
	.st28{opacity:0.48;fill:#F09687;}
	.st29{opacity:0.46;fill:#00A6C5;}
	.st30{opacity:0.67;fill:#60B676;}
	.st31{fill:#FFFFFF;stroke:#636362;stroke-linecap:round;stroke-linejoin:round;stroke-miterlimit:10;}
	.st32{opacity:0.81;fill:#EE717C;}
	.st33{opacity:0.52;fill:#2BB9D2;}
</style>
    <g id="dessin">
</g>
    <g id="tracé">
	<path class="st0" d="M129.7,268.6c-2.2-0.2-3.4-7.5-4-14.2c-2.1-4.2-4.3-8.4-6.4-12.6c7.3-3.9,11.6-8.4,14.2-11.9
		c3.6-4.9,4.5-8.5,7.9-9.3c3.9-0.9,9.6,2.3,10.9,6.7c1.9,6.4-7.1,10.2-15.1,26.2C132.7,262.5,131.7,268.8,129.7,268.6z"/>
        <g>
		<path class="st2" d="M428.4,455.3c-14.5,0.1-28.9-1.3-40.8-11.2c0,0-5.4-8.5-12.9-4.3c-23.3,10-47.9,10.4-72.6,10.8
			c-10.6,0.2-21.2,2.4-31.8,2.2c-9.2-0.2-18.6-1.6-27.5-4c-7.2-1.9-11.1-9.2-8.5-15.3c1.4-3.3,5.2-6.5,8.7-7.9
			c8.6-3.5,17.6-6.1,26.5-8.8c13.6-4.1,27.3-7.9,37.7-18.5c0.3-0.3,0.9-0.2,3-0.6c-1.1,2.6-1.4,5-2.7,6.1
			c-4.8,3.7-9.7,7.6-15.2,10.3c-9.8,4.9-20.1,8.7-30.1,13.4c-3.3,1.6-6.7,3.9-8.9,6.8c-3.1,4.2-1.9,7.9,3.2,9.2
			c5.7,1.4,11.8,2,17.7,2.1c13.8,0.2,27.6-0.9,41.3,0c13.3,0.8,26.2-0.1,39-3.5c9.5-2.5,17.1-8.3,25.2-13.6c7.7-5,12.2-12,17.1-19.1
			c1.9-2.8,3.4-6.2,4.1-9.5c7.1-19.6,5.3-58.1,5.3-58.1c-2.6-34.6-10.9-68-20.9-101.1c-0.9-3.1-2.3-6-3.2-8.4
			c-2.7,9.7-5.9,20.5-9.9,29.5c-9.1,20.6-18.1,30.1-35,42c-18,12.1-35.9,22.9-57.4,27.6c-7.3,1.6-14.5,1.4-21.5-1.6
			c-1.3-0.5-2.5-2.1-2.9-3.5c-1.1-3.7-1.4-7.7-2.8-11.2c-1-2.5-3.3-4.5-6-7.9c4.4-0.4,7.2-0.5,9.9-0.9c4.3-0.6,8.5-1.5,12.8-2.1
			c1.6-0.2,3.1-0.3,4.7-0.5c-0.3,1.5-0.5,3-0.8,4.5c-0.1,0.5-0.2,0.9-0.4,1.9c5-0.2,5.3,3.4,5,7.3c3.1,0,6-0.8,8,0.3
			c1.1,0.6,0.7,4.1,1.1,7.1c5.5-2.2,12-4.1,17.9-7.2c15.6-8.2,31.1-16.6,43.4-29.8c15.4-16.5,23.6-35.5,24.2-58.3
			c0.1-2.9,0.5-5.5,0.2-9.3c-0.2-3.7-0.5-9.2-3-12.4c-12.6-16.5-25.8-32.3-46.4-38.9c-1.4-6.4,2.9-9.5,6.7-13.1
			c9.2-8.5,11.3-25.9,4.8-36.6c-3.6-5.8-11.1-6.9-17-2.4c-2.5,1.9-4.5,4.6-7.2,6.1c-1.6,0.9-4.7,1.3-6,0.4
			c-13.2-9.6-28.1-12.6-43.9-12.1c-13.4,0.4-26.4,3.1-38.5,9.1c-7.2,3.5-10.3,10.6-13.6,17.3c-1.4,2.8-2.3,5.8-3.5,8.7
			c-3-8.8-0.4-16.4,4.6-23.1c4.8-6.4,11.1-11.2,18.8-14.4c24-9.8,47.8-8.6,71.6,0.2c3,1.1,6,2.2,9,3c1.2,0.3,2.8-0.1,4-0.6
			c1.7-0.6,3.2-1.8,5-2.3c15.6-4.2,24.2,3.9,26.6,21.1c1.4,10.2-2.8,18.9-9.6,26.4c-2.4,2.6-5,4.9-7.1,7
			c36.1,17.5,59,46.9,73.8,82.8c13.5,32.6,19.7,67.1,22,102.2c0.9,12.7-0.3,25.6-0.7,38.4c-0.2,4.7,1.5,7.7,6.1,9
			c13.1,3.8,26.2,7.3,39.1,11.6c4.7,1.6,9.3,4.6,13,8c7.7,7,8.1,14.3,1,22.8C482.4,438.5,465.4,456.1,428.4,455.3z"/>
            <path class="st2" d="M201.7,241.1c-0.6,4.2-1,8.8-3,12.4c-10.7,19.6-31.4,22-48,16.9c-2.5-0.8-4.9-1.8-8-3
			c0.8,6.3-1.7,8.1-7.1,6.4c-0.8-0.2-2,0.9-3,1.3c-1.8,0.6-3.6,1.1-5.3,1.7c-1.4,0.5-3.6,0.7-4.1,1.7c-0.6,1.3-0.3,3.4,0.3,4.9
			c1.1,3,3.5,5.5,3.8,8.7c0.5,5,0,8-4.7,10.7c-8.8,4.9-16.8,3.1-24.2-2.5c-4.8-3.7-9.8-7.7-13.3-12.6c-2.3-3.3-3.2-8.4-3-12.6
			c0.3-6.5,3.8-8.7,10.8-8.7c0.7,0,1.4-0.1,2,0.1c6.2,2.2,10.4,0.4,12.7-5.9c0.3-0.8,0.7-1.5,1-2.3c0.5,0.4,1.1,0.7,1.6,1.1
			c-0.7,2-1.6,4-2,6.1c-0.3,1.6-0.4,3.9,0.5,4.7c2.7,2.6,6,4.6,9.1,6.9c3.4-2.4,3.6-5,1.4-8.2c-2-2.8-4-5.7-5.6-8.8
			c-1.5-2.9-2.1-5.9,1.5-8.3c0.9-0.6,0.9-3.2,0.7-4.8c-0.4-2.9,0-4.7,3.5-5.3c1.6-0.3,3.2-2,4.2-3.4c4.5-6.4,8.7-13,13.3-19.3
			c0.9-1.3,2.9-2.3,4.6-2.4c8.1-0.8,15.8,7.2,14.9,15.4c-0.5,4,2.5,4.2,4.9,4.9c3.4,1,5.6-0.7,6.4-3.9c1.3-5.5,0.2-11-3.6-15
			c-6.9-7.3-15.4-12.2-25.6-13.4c-8.1-0.9-10.7,2.7-7.8,10.5c0.6,1.5,1.1,3,1.8,5.1c-5-3.5-7.9-9.7-6.1-13.7c1.9-4,3.8-8.6,9.4-9.1
			c12.7-1.2,33.7,11.8,37.4,24c1.2,4.1,1.6,9.2,0.2,13.1c-3.1,8.5-14.2,9.6-19.9,2.5c-4.1,4.6-7.9,8.9-11.7,13.2
			c-0.5-0.1-1-0.3-1.5-0.4c0.4-1.5,0.5-3.2,1.3-4.4c2.8-3.9,6-7.6,9-11.4c3.3-4.3,2.7-7.8-2.1-11.4c-4.6-3.5-7.7-3.2-10.8,1.2
			c-4,5.6-7.5,11.5-11.8,16.7c-3.3,4-2.2,7.2,0,10.7c1.2,1.8,2.5,3.4,3.9,5.3c3.7-2.5,6.7-1.6,10.1,0.6c17,11.3,33.4,11.8,50.4-0.3
			c3.8-2.7,7.6-7.3,9.1-12.5c0.7-1.1,1.4-2.9,2.1-4 M96.5,272.7c-4.8,0.5-9,2-10.2,6c-0.7,2.5,0.9,6.6,2.9,8.7
			c4,4.3,8.7,8.1,13.6,11.5c4,2.7,8.7,4.3,13.8,2.5c4.9-1.7,6.8-7.3,3.5-11.2c-3.4-3.9-6.8-7.9-10.9-11
			C105.4,276.5,100.7,274.8,96.5,272.7z"/>
            <path class="st2" d="M205.6,162.2c-5.5,2.4-7.1,6.7-8.2,11c-3.5,14.3-1,27.4,7.5,39.5c0.7,1,0.3,0.3,0.5,1.7
			c-1.3-1.5-1.3-1.6-2-2.6c-4.2-5.6-6.3-10.4-7.4-14.4c-0.8-2.9-2-9.2-2.2-12.2c-0.6-8.8,0-13.2,2.9-21.5c0.5-1.8,2.7-4,4.5-4.4
			c4.2-1,5.7-4,7.7-7.2c7.3-11.5,19.1-12.6,28.9-2.9c-5,6.4-5.2,9.4-0.4,13.9c1-1.8,1.8-3.5,2.9-5.5c3.2,3,3.2,6.7,2.1,10.3
			c-2.3,7.6-7.9,11.5-15.4,12.5c-4,0.5-5.2,2.3-4.4,6c0.4,2,0.5,4,1.1,5.9c1.7,5.9,4.4,11,11.2,12c7.2,1,13.1-1.6,17.3-7.6
			c2.1-3.1,4-6.4,6.2-9.8c2.6,3.1,2.7,6.7,0.6,9.6c-5,7-10.3,13.7-15.9,20.3c-1.1,1.3-3.6,1.7-5.4,1.9c-3.8,0.3-7.7-0.2-11.5,0.3
			c-8.5,1.1-13.3-4-17.6-9.9c-0.9-1.2-1.4-2.7-1.7-4.1c-0.2-1,0.5-2,0.8-3.1c0.9,0.3,0.2,0.3,0.9,0.9c2.3,2,6.2,5.9,9.4,3.3
			c1.4-1.1,0.4-5.3,0.4-8.2c0-4.6,0-9.3-0.2-13.9c-0.1-1.6-0.4-4.1-1.4-4.6C209.8,175.9,206.2,170.5,205.6,162.2z"/>
            <path class="st2" d="M190.4,301c-17.9,1.8-34.3-1.4-47.3-14.8c0.2-0.5,0.3-0.9,0.5-1.4c3.1,1.2,6.2,2.6,9.4,3.6
			c15.4,4.6,30.9,9,46.5,0.6c1.2-0.6,2.5-1.3,3.7-1.2c1.7,0.2,4.1,0.6,4.9,1.8c0.6,0.9-0.3,3.4-1.1,4.8c-1.6,2.7-3.6,5.2-5.4,7.8
			c-9.4,13.9-11.7,30.1-13.2,46c-2,20-0.8,40,8.5,58.5c0.5,0.9,0,2.3-0.1,3.5c-1.3-0.7-3.1-1.2-3.8-2.3c-6.9-9.6-10.6-20.4-11.7-32
			c-2.3-24.3-0.5-48.2,8.5-71.2c0.3-0.8,0.6-1.6,0.8-2.4C190.7,302,190.5,301.6,190.4,301z"/>
            <path class="st1" d="M208.6,226.4c0.5,0.8,1.2,1.6,1.4,2.5c4.3,16.9,15.5,29.2,27.9,40.5c2.4,2.2,4.2,5.2,8.7,4.8
			c3.5-0.3,5.6-1.3,8.1-3.6c27.7-25,48.4-54.7,62.4-89.3c0.2-0.4,0.6-0.7,1.9-0.8c-0.7,2.3-1.1,4.8-2.1,7
			c-11.4,27.7-27,52.7-48.2,74c-3,3.1-5.4,6.7-8.3,10c-3.1,3.7-6,6.9-5,12.7c0.5,2.6-2.5,6.9-5.1,8.8c-4.7,3.4-6.3,7.4-6,12.8
			c0.1,1.6,0.2,3.5-0.4,4.9c-0.7,1.7-1.9,3.8-3.4,4.4c-2.7,0.9-5.6,0.7-7.1-2.7c-4.9-11.3-7.9-22.6,1.6-33.1
			c3.2-3.6,0.4-5.2-1.6-7.3c-8.9-9.2-17.2-19-22.5-30.9c-2-4.5-2.9-9.5-4.3-14.2C207.3,226.8,207.9,226.6,208.6,226.4z M236.9,303.3
			c1.8-8.2,3.4-10.1,10.2-14.1c1.5-0.9,3-2.2,3.8-3.7c1.3-2.3-0.7-5.3-3-4.8c-2.2,0.5-5,0.7-6.4,2.1c-3,3.1-6.2,6.6-7.6,10.6
			C233.2,295.7,235.6,299.2,236.9,303.3z"/>
            <path class="st2" d="M216.4,437.2c-1.3,1.1-2.4,2.8-3.8,3c-8.8,1.6-17.5,3-26.4,4c-5.3,0.6-10.7,0.7-16,0.1
			c-3.9-0.5-8.1-1.9-11.3-4.2c-5.9-4-5.5-12.2,0.8-15.7c5.9-3.3,12.2-6.6,18.7-8.1c11.4-2.7,23.2-4.2,34.8-6.1
			c0.7-0.1,1.6,0.3,2.4,0.4c0.2,0.5,0.5,0.9,0.7,1.4c-2,1.2-3.8,2.9-6,3.4c-8.9,2-18.2,2.8-26.8,5.6c-4.6,1.5-8.6,5.7-12,9.5
			c-2.4,2.7-0.3,5.8,3,6.1c7.4,0.8,14.8,1.4,22.2,1.3c6.2-0.1,12.5-1.3,18.7-1.9C215.8,436.4,216.1,436.8,216.4,437.2z"/>
            <path class="st2" d="M331.7,134.9c-2.1,5-3.9,10.2-6.4,14.9c-1.2,2.2-4.1,2.5-4.7-0.6c-0.7-3.3-1.2-7-0.2-10.1
			c1.6-5.2,2.8-10.2,1.3-15.6c-0.4-1.5,0.5-3.3,0.9-5c1.5,1.1,3.6,1.8,4.3,3.3C328.7,125.9,330,130.2,331.7,134.9z"/>
            <path class="st0" d="M95.6,270.8c8.1,0.9,11.8,5.1,15.6,7.9c4.1,3.1,7.2,7.7,10.5,11.6c4.2,6-0.3,9.5-5.1,11.2
			c-5.1,1.7-9.8,0.2-13.8-2.5c-4.9-3.4-9.6-7.2-13.6-11.5c-2-2.1-4.8-9.1-4.1-11.6C86.2,271.8,90.7,271.3,95.6,270.8z"/>
            <path class="st1" d="M236.9,303.3c-1.3-4.1-3.7-7.5-2.9-9.9c1.4-4,4.5-7.5,7.6-10.6c1.4-1.4,4.2-1.6,6.4-2.1
			c2.3-0.5,4.3,2.5,3,4.8c-0.8,1.5-2.3,2.8-3.8,3.7C240.3,293.2,238.7,295.1,236.9,303.3z"/>
	</g>
        <g>
		<g>
			<path class="st8" d="M276,148.5c-5,1.7-11.3-0.1-13.9-3.2c0,0-0.2-0.7-0.5-1.4c1.6-4.6,9.5-9.7,15-7.6c2.6,0.7,3.6,3.6,5.8,5.2
				c0.2,0.7-0.7,2.6-1.4,2.9C279.3,146.5,278.1,147.8,276,148.5z"/>
		</g>
	</g>
        <g>
		<circle class="st9" cx="275.4" cy="142.3" r="3.8"/>
	</g>
        <path class="st9" d="M223.1,208.5c0,0,1,5.9,4.5,7.8h5l-1.5-7.8H223.1z"/>
        <path class="st9" d="M232.6,208.5l1.5,7.8h4.5c0,0,2.1-6.1,2.1-8.6C240.6,207.6,236.2,209.1,232.6,208.5z"/>
        <path class="st10" d="M423.6,446c0,0,5.6-23.9,28.8-38.5"/>
        <path class="st10" d="M440.4,448.7c0,0,5.6-23.9,28.8-38.5"/>
        <path class="st10" d="M400,447c0,0,6.9-27.1,35.2-43.8"/>
        <path class="st10" d="M411.7,410.5c0,0,32.8-6.6,64.9,14.6"/>
        <path class="st10" d="M402.8,422.6c0,0,32.8-6.6,64.9,14.6"/>
        <path class="st10" d="M396.2,438.3c0,0,29.3-7.3,56.1,6.8"/>
</g>
</svg>
