<?xml version="1.0" encoding="UTF-8" standalone="no"?>
<svg
   xmlns:dc="http://purl.org/dc/elements/1.1/"
   xmlns:cc="http://creativecommons.org/ns#"
   xmlns:rdf="http://www.w3.org/1999/02/22-rdf-syntax-ns#"
   xmlns:svg="http://www.w3.org/2000/svg"
   xmlns="http://www.w3.org/2000/svg"
   xmlns:sodipodi="http://sodipodi.sourceforge.net/DTD/sodipodi-0.dtd"
   xmlns:inkscape="http://www.inkscape.org/namespaces/inkscape"
   viewBox="0 0 470 470"
   version="1.1"
   id="svg534"
   sodipodi:docname="admin.svg"
   inkscape:version="1.0 (4035a4f, 2020-05-01)">
  <metadata
     id="metadata538">
    <rdf:RDF>
      <cc:Work
         rdf:about="">
        <dc:format>image/svg+xml</dc:format>
        <dc:type
           rdf:resource="http://purl.org/dc/dcmitype/StillImage" />
      </cc:Work>
    </rdf:RDF>
  </metadata>
  <sodipodi:namedview
     inkscape:document-rotation="0"
     pagecolor="#ffffff"
     bordercolor="#666666"
     borderopacity="1"
     objecttolerance="10"
     gridtolerance="10"
     guidetolerance="10"
     inkscape:pageopacity="0"
     inkscape:pageshadow="2"
     inkscape:window-width="1920"
     inkscape:window-height="1043"
     id="namedview536"
     showgrid="false"
     inkscape:zoom="1.8"
     inkscape:cx="235"
     inkscape:cy="235"
     inkscape:window-x="0"
     inkscape:window-y="0"
     inkscape:window-maximized="1"
     inkscape:current-layer="svg534" />
  <defs
     id="defs475">
    <style
       id="style473">.cls-1{isolation:isolate;}.cls-2{fill:#616161;}.cls-3{fill:#fff;}.cls-4{fill:none;stroke:#fff;stroke-linecap:round;stroke-linejoin:round;stroke-width:3px;}.cls-5{fill:#00a5c3;opacity:0.46;mix-blend-mode:multiply;}</style>
  </defs>
  <title
     id="title477">Sans titre - 1</title>
  <g
     class="cls-1"
     id="g532">
    <g
       id="Calque_1"
       data-name="Calque 1">
      <path
         style="fill:#ff0000"
         class="cls-2"
         d="M191.56,116.55q-4.92,5.65-9.4,11.45c1.24,0,2.48,0,3.72,0,1-1.49,2-3,3.05-4.45,5.81-8.28,6.29-7.94-2-14s-11-17.9-6.55-29.08c2.22-5.63,10.3-12.38,19.88-9.41,1.48.46,4-.68,5.37-1.85,4.74-4,9-8.54,13.8-12.47,25.8-21.15,57.66-14.86,77.65,10.21,5.93,7.43,11.11,15.46,16.8,23.44-7.59,5.95-9.15,14-6.05,23.53,2.45,7.54,7.79,10.45,15.47,10.34-.13,6-4,9.13-8.56,10.52-11.9,3.65-22.63,2.21-30.31-9.47,3.31,5.88,6.81,11.38,11.34,15.84s10,7.52,5.6,15.17c1.88.35,2.95.52,4,.76,8.43,1.95,9.43,2,12.81-6.12s5.3-16.66,8-25a9.15,9.15,0,0,1,2.71-4.48c5.26-3.89,8.39-11.46,6.91-17.71-1.89-8-7.43-13.31-14.81-14.37-1.32-.19-3-.57-3.76-1.48-4.22-5-8.71-9.82-12.18-15.29-8.58-13.52-19.57-24.14-34.8-29.4a54.3,54.3,0,0,0-33.49-1c-12,3.54-22.13,10.61-31.37,18.85-2.45,2.19-4.52,3.53-7.95,2.85-6.44-1.28-11.46,1.43-15.66,6.2-7.66,8.71-9.27,25.79-2.38,35.36C182.53,109.75,187.35,112.79,191.56,116.55Zm120.08,38c-5.1.27-7-1.43-5.88-5.89a23.33,23.33,0,0,0,.72-4.7c.19-4.56,2.74-5.5,7.6-4.43Q312.85,147.1,311.64,154.51Zm4.94-5.31-1.42-.47c3.08-3.75-1.64-10.06,6-13.44C319.42,140.61,318,144.9,316.58,149.2Zm11-55.26c1.43,3.88,2.54,6.9,4,10.91C324.33,102.46,322.9,98.75,327.61,93.94Z"
         id="path479" />
      <path
         style="fill:#ff0000"
         class="cls-2"
         d="M294,142.05c1.9,5.29-.26,8.93-2.76,12.32-1.4,1.9-3.39,3.36-5,5.1-4.84,5.11-9.64,10.26-13.87,14.77-.21-5.39,3.27-10.7,8.26-14.56a31.76,31.76,0,0,0,11.17-15.07C292,143.85,292.86,143.29,294,142.05Z"
         id="path481" />
      <path
         style="fill:#ff0000"
         class="cls-2"
         d="M195.54,104.28c-4.57-8.75-5.8-17.69-1.93-27.47C199.87,86,196.82,95.19,195.54,104.28Z"
         id="path483" />
      <path
         style="fill:#ff0000"
         class="cls-2"
         d="M275.88,100.94c-2.8-3-5.1-7.08-8.56-8.85S259.1,90.7,255,90.16c3.34-4.22,12.05-4.4,17.19-.21S278.61,97.72,275.88,100.94Z"
         id="path485" />
      <path
         class="cls-3"
         d="M327.61,93.94c1.43,3.88,2.54,6.9,4,10.91C324.33,102.46,322.9,98.75,327.61,93.94Z"
         id="path487" />
      <path
         style="fill:#ff0000"
         class="cls-2"
         d="M359.41,412.51c-2.41-7.37-7.12-12.46-15-14.5-5.27-1.37-10.33-3.55-15.65-5.43.33-1.55.47-2.75.84-3.88q7.43-22.62,14.93-45.21c1.44-4.3.65-6.79-3.52-8.38-7-2.65-14.1-5.09-21.21-7.44-6-2-12.1-3.71-18.27-5.58,2.6-5.3,2.84-7.66-.52-10.42a31.06,31.06,0,0,0-5.76-1L290.41,318l6.39,1.21-4.32,8.32-1,2.76,5.86,2,2.41-5.69L334.76,337l-8.52,7.5L321,343.24c-2.73-.75-5.68-1.11-8.1-2.43l-10.21-2.68c-30.75-9.36-60.87-18.14-90.29-29L220,303c-12.7-.49-19.1,2.58-22,13-4.72,17.24-9.73,34.4-14.75,51.56-.95,3.25-.17,4.57,3.16,5.47,8,2.14,15.8,4.73,23.67,7.16q18.41,5.69,36.8,11.42,17.87,5.61,35.7,11.33c3,1,6,2.35,9.08,3,6,1.28,12.25,1.66,18.12,3.36,6.57,1.91,7.44,8.27,2,12.66a14.16,14.16,0,0,1-6,3.24c-7.43,2.78-15.41,3.47-23,3.14-15-.65-30-1.4-44.91-4.24-25.3-2.51-49.35-10.12-73.26-18.19-4.12-1.39-8.07-2.13-12.9-5.15a11,11,0,0,1-4.11-3.85c-4-7.17-6.31-10.11-10.57-19.62-1.81-4.05-3.2-8.74-4.91-12.9-3.54-8.62-8-16.9-11-25.7a74.83,74.83,0,0,1-3.83-21.07c-.44-13.33-1.09-25.28-.29-40.06.05-.88,2-17,2.17-17.94,2.62-13.34,3-11.54,6-24.81,6.48-29,21.1-54.31,36.13-79.42a53.46,53.46,0,0,1,5.44-7.37,199.14,199.14,0,0,1,20-20.17c-1.14-.45-2.29-.87-3.45-1.27-16.46,15.24-31.62,31.68-42.48,51.48a302,302,0,0,0-15,32.91c-11.73,29.32-17.08,59.92-17.18,91.46,0,8-.09,16,0,23.95-36.74-12.24-66.8-11.11-77,3.88-3.71,5.45-3.8,11.46-3.74,14.25,1,43.91,120.52,61.09,120.52,61.09,4.68,1.93,8.87,4.26,13.37,5.41,26.77,6.87,53.16,15.35,80.65,19.29,14.52,2.08,29,4,43.75,3.71,10.95-.24,21.7-.8,30.29-9a4.33,4.33,0,0,1,3.29-.91q6.72,1.2,13.36,2.86a30.46,30.46,0,0,0,20.56-2.16C359.18,422.28,361.26,418.19,359.41,412.51Zm-157.65-89a65.31,65.31,0,0,0,2.47-9.77c.59-3.23,2.24-3.47,4.92-2.53,12,4.18,23.92,8.39,36,12.39,13.76,4.57,27.62,8.87,41.39,13.43l14.24,4.57c6.38,1.54,13.95,4.59,20.54,6.3,3.51.62,4,2.83,3,5.76-.46,1.46-1,2.9-1.47,4.34-2.22,6.53-3.36,6.79-9.92,4.38-7.42-2.74-15-5-22.61-7.28-5.55-1.67-11.25-2.87-16.78-4.61-1.31-.4-3-2.07-3.12-3.29-.4-4.16-2.9-5.73-6.46-6.56-2.38-.56-4.72-1.66-7.1-1.71-1.56,0-3.17,1.31-4.71,2.11-1.27.66-2.73,2.28-3.67,2-14.48-4.28-28.86-8.86-43.32-13.22C201.63,328.72,200.54,327,201.76,323.47Zm63,22.59c-.2,2.55-1.31,5-1.5,7.51-3.63,2.54-8.08,3.14-10.44-2.95l3-7.52C258.54,344.1,262,345,264.8,346.06Zm51.05,26.7c-3.22,8.21-5.81,16.67-8.44,25.1-1,3.13-3.51,4.71-7.07,3.76-17-4.54-34.14-8.81-51.07-13.69-15.7-4.52-31.22-9.66-46.8-14.59-4.22-1.33-9.29-2.88-14.68-4.75,1.68-4.63,2.43-8.42,3.81-13.07.34-1.15.45-2.37.76-3.53,1.41-5.34,3.8-11.22,6.07-20.55a46.67,46.67,0,0,0,8.23,3c3.4.78,6.71,2,10,3,8.11,2.58,16.14,5.39,24.32,7.71,6.41,1.82,8.45,3.46,8.45,7.62a49.47,49.47,0,0,0,.23,5,10.76,10.76,0,0,0,.8,3.22c.73,1.9,1.45,3,3.11,3.57,1.27.4,4.25-.5,5.85-1.5a20.72,20.72,0,0,0,4.2-3.2c1.67-1.81,3-3.9,4.85-6.28a2.47,2.47,0,0,1,1.16,0c14.55,4.54,29.08,9.17,43.66,13.64C316.54,368.24,317.21,369.3,315.85,372.76Zm1.69,28.38L319.18,391l-.05-.09c.55-2.62.88-5.32,1.67-7.87,2.46-7.91,5.09-15.77,7.66-23.66,1.27-3.89,2.14-8,4-11.58.83-1.62,3.6-2.25,5.49-3.33.4.46.8.91,1.19,1.37-2,6-3.86,12.09-5.92,18.09-3.73,10.91-7.48,21.82-11.42,32.65C321.26,398,319.55,399,317.54,401.14Zm35.79,15.91c-.29,1.72-3,4-4.93,4.28a67.94,67.94,0,0,1-14,.47c-4.2-.22-8.37-1.17-13.84-2l5.36-8.91-6.59-2.7.06-1.55c3.51-1.78,7-3.52,10.52-5.34,4.32-2.24,8,0,11.56,1.86a39.2,39.2,0,0,1,9.71,6.71A9.37,9.37,0,0,1,353.33,417.05Z"
         id="path489" />
      <path
         style="fill:#ff0000"
         class="cls-2"
         d="M219.67,296.63a96.53,96.53,0,0,0,34.58,22.13l3.64-9.22,10.12,2.7c-2-2.34-3.52-5.05-5.66-7.19-1.33-1.33-3.45-1.86-5.21-2.75-.38,1.69-4.27,7.93-5.57,10a9.85,9.85,0,0,1-1.94-.37c-19.43-8.44-34-22.56-43.62-41-12.88-24.6-15.49-51.08-9.22-78.08,2.85-12.27,7.26-24.18,11-36.4a14,14,0,0,0-1,1.32,80,80,0,0,0-4.45,7.48,126,126,0,0,0-11.62,64.68C192.84,255.33,201.2,278.21,219.67,296.63Z"
         id="path491" />
      <path
         style="fill:#ff0000"
         class="cls-2"
         d="M289.14,186.66c4.16-.23,8.33-.25,12.45-.73,16.29-1.87,31.37-7.5,46-14.73,26-12.87,43.32-33.59,54.48-59.94a24.55,24.55,0,0,1,2.59-4.82c.5-.71,1.67-.93,2.54-1.37.38,1.05,1.3,2.25,1.05,3.11a35.11,35.11,0,0,1-3.07,7.63c-11.35,19.72-24,38.56-43.5,51.14-14.29,9.2-29.7,16.4-46.39,20.24a160.09,160.09,0,0,1-20.24,3c-2,.2-4.15-1.19-6.23-1.85Z"
         id="path493" />
      <path
         style="fill:#ff0000"
         class="cls-2"
         d="M300.31,227.14c3.05,5.17,6.88,10,9,15.55a161.06,161.06,0,0,1,11,59.15,48.05,48.05,0,0,1-1.06,10.92c-.39,1.67-2.5,2.93-3.83,4.38-1-1.49-2.83-3-2.83-4.47,0-3.43,1.05-6.86,1.36-10.31,2-21.82-2-42.63-10.84-62.58-1.7-3.84-3.12-7.8-4.67-11.71Z"
         id="path495" />
      <path
         style="fill:#ff0000"
         class="cls-2"
         d="M344.57,235c17.13-14.82,32.33-31.41,47-48.52s23.56-37.65,34.12-57.23l1.68.67c-.27,1.44-.22,3.05-.87,4.29-6.56,12.4-12.7,25.07-20,37-10.64,17.4-24.45,32.3-39.47,46.06-4.61,4.22-9.13,8.56-13.95,12.53C350.53,231.93,347.42,233.33,344.57,235Z"
         id="path497" />
      <path
         style="fill:#ff0000"
         class="cls-2"
         d="M409.56,120.84c3-5.78,6-11.52,8.84-17.34.92-1.89,1.22-4.08,2.14-6,.44-.9,1.66-1.42,2.53-2.12.62.91,1.82,1.86,1.75,2.72a16.41,16.41,0,0,1-1.49,6.56c-2.85,5.18-6,10.2-9.32,15.11-.73,1.09-2.5,1.47-3.78,2.18Z"
         id="path499" />
      <path
         style="fill:#ff0000"
         class="cls-2"
         d="M428.9,114.77c-3.59,4.73-7.27,9.64-11.06,14.46a2.11,2.11,0,0,1-2,0,2.75,2.75,0,0,1-.44-2.38c2.83-4.85,5.75-9.65,8.83-14.35a3.24,3.24,0,0,1,2.74-.78C427.5,111.77,427.84,113,428.9,114.77Z"
         id="path501" />
      <path
         class="cls-3"
         d="M320.51,419.81l1.74-2.9a6,6,0,0,0-2.88-8.67l-.09,0c0-.7,0-.79-.06-1.49,3.55-1.8,7.11-3.56,10.64-5.4,4.32-2.24,8,0,11.56,1.86a39.2,39.2,0,0,1,9.71,6.71,9.37,9.37,0,0,1,2.2,7.17c-.29,1.72-3,4-4.93,4.28a67.94,67.94,0,0,1-14,.47C330.15,421.58,326,420.63,320.51,419.81Z"
         id="path503" />
      <path
         class="cls-3"
         d="M317.54,401.14,319.18,391l-.05-.09c.55-2.62.88-5.32,1.67-7.87,2.46-7.91,5.09-15.77,7.66-23.66,1.27-3.89,2.14-8,4-11.58.83-1.62,3.6-2.25,5.49-3.33l1.19,1.37c-2,6-3.86,12.09-5.92,18.09-3.73,10.91-7.48,21.82-11.42,32.65C321.26,398,319.55,399,317.54,401.14Z"
         id="path505" />
      <path
         class="cls-3"
         d="M335.12,68.21c4.67,1.1,6.14,3.93,6.07,8.14C336.16,75.2,334.58,73.09,335.12,68.21Z"
         id="path507" />
      <path
         style="fill:#ff0000"
         class="cls-2"
         d="M273.71,320c-1.88-5.62-3.85-11.43-5.69-17.29-.13-.41.73-1.62,1.16-1.63a2.78,2.78,0,0,1,2.22,1c2.4,5.08,4.72,10.2,6.86,15.39a3.24,3.24,0,0,1-.91,2.71C277,320.53,275.76,320.12,273.71,320Z"
         id="path509" />
      <path
         style="fill:#ff0000"
         class="cls-2"
         d="M284,320c-1.88-5.62-3.85-11.43-5.69-17.29-.13-.41.74-1.62,1.16-1.63a2.78,2.78,0,0,1,2.22,1c2.41,5.08,4.72,10.2,6.86,15.39a3.24,3.24,0,0,1-.91,2.71C287.3,320.53,286.09,320.12,284,320Z"
         id="path511" />
      <path
         class="cls-4"
         d="M72.32,376.77s3.12-27.72,25.59-40.45"
         id="path513" />
      <path
         class="cls-4"
         d="M90.21,383.73s3.12-27.72,25.58-40.44"
         id="path515" />
      <path
         class="cls-4"
         d="M50,373.55s4.07-31.37,31.73-45.38"
         id="path517" />
      <path
         class="cls-4"
         d="M39.82,329.43s41.71-2.82,85.47,33.57"
         id="path519" />
      <path
         class="cls-4"
         d="M33.65,340s40.6-1.89,83.75,35.75"
         id="path521" />
      <path
         class="cls-4"
         d="M36.43,354.34S69,353.09,102.27,381.9"
         id="path523" />
      <path
         class="cls-4"
         d="M38.82,357.22s2.57-22.2,21.27-32.39"
         id="path525" />
      <path
         class="cls-4"
         d="M104.53,388.61s2.57-22.21,21.27-32.4"
         id="path527" />
      <path
         class="cls-5"
         d="M198.8,353.61h0a17.5,17.5,0,0,0,11.63,21.28l73.76,23.21a17.49,17.49,0,0,0,21.89-11.27l.08-.26a17.49,17.49,0,0,0-11.44-22.12L220.87,341.5A17.5,17.5,0,0,0,198.8,353.61Z"
         id="path529"
         style="fill:#ff0000" />
    </g>
  </g>
</svg>
