<svg xmlns="http://www.w3.org/2000/svg" viewBox="0 0 470 470"><defs><style>.cls-1{isolation:isolate;}.cls-2{fill:#00a5c3;opacity:0.46;mix-blend-mode:multiply;}</style></defs><title>Sans titre - 1</title><g class="cls-1"><g id="Calque_1" data-name="Calque 1"><g id="_2j7QkI.tif" data-name="2j7QkI.tif"><path d="M235.73,403.29c-54.26,0-108.53.14-162.8-.13a169,169,0,0,1-29.33-2.9c-19-3.47-30.11-15.7-34.27-34.06a121.44,121.44,0,0,1-3.09-26.1q-.44-95.24-.18-190.47a151.14,151.14,0,0,1,1.66-22.09c4-26.37,18.5-40.78,45.15-42.77,18.33-1.38,36.83-.61,55.26-.66q143.18-.36,286.36-.56a167.57,167.57,0,0,1,30.05,2.24c23.54,4.3,36.07,17,38.8,40.79,2.11,18.48,2.66,37.23,2.66,55.85,0,54.91-.61,109.82-1.05,164.73a75.08,75.08,0,0,1-1,10.23c-4.21,29-19.23,43.45-48.7,45-19,1-38.16.25-57.24.26q-61.12,0-122.27,0Zm-208.9-20c5.63,2.77,10.53,6.59,15.93,7.56a198.35,198.35,0,0,0,34.34,3.56q158.63.38,317.24.09c7.93,0,15.89-.23,23.76-1,21.68-2.23,32.83-12.6,36.58-34.1a125.6,125.6,0,0,0,1.88-21.11q.21-94.92,0-189.84a130.12,130.12,0,0,0-2.3-24.29c-2.84-14.65-11.43-24.75-26.19-28.69-2.27-.61-5,.34-8.17.63l4,7.21-1.28,1.33-5.75-2.93-7,3.85-1.24-1.64,4.22-6.16c-3.12-8.2-9.63-5.06-15.94-5.15l5.35,7.93-1.52,1.61L391,95.54c-2.37,2.88-5.09,5.9-7.49,9.17-3.17,4.33-6.38,3.63-9.41.18s-5.56-7-8.35-10.6l-15.26,13.89-11-14.12c-8.2,3.46-9.65,13.24-19.59,14.62,3.84-8-3.08-9.38-6.31-13.47l-15.84,14.44-2.31-2.33,12-13.31c-15-2.42-19.91.27-20.53,10.72H276.8c3.95-5.4.05-8.08-3.09-10.19-1.64-1.11-5.41-1.1-6.94.07-4,3.1-8.49,6.55-10.73,10.91s-4.59,5.26-8.57,5.34c-.36-5.19-8.81-16.84-13.22-17.31-4-.42-9.08-2.23-11.84,3.63,2.21,2.33,4.35,4.4,6.23,6.69.53.64.28,1.91.39,2.89-1.13,0-2.65.53-3.33,0-2.47-2-4.67-4.27-6.59-6.1l-9.22,5.92-1.37-2.08L214.91,97c-6.21-7.06-17.43-5-23.49,4.23,2.16,2.26,4.48,4.48,6.52,6.94.65.78.55,2.2.79,3.32-1.28-.15-2.92.16-3.79-.53-2.61-2.06-4.91-4.5-6.46-6l-8.67,3.37c1.11-2.7,2.22-5.39,3.45-8.35-8-9.58-12.32-9.78-17.61-.76l3.95,7.31-1.95,1.23-6.53-5c-1.64,1.56-3.09,3.11-4.72,4.44s-3.15,2.19-4.73,3.27l-1.92-1.78,7.53-9.51c-5.13-9.33-14.32-8.6-22.4,4.22l8.89,11-2.16,1.89-10.49-9-6.49,3.43-1.35-1.43,4.14-6.83c-3-2.87-6-5.68-9-8.43a13.34,13.34,0,0,0-2.59-1.22l-6.58,7.36,2.23,6.52-7.06-1.43-7,4.51-1.49-1.87c1.82-2.43,3.63-4.87,5.08-6.82l-6.86-7.58c-10.87,10-10.87,10-10.4,17l-8.91-1.11c-.06-4.41-8.26-16.14-12.59-16.6-5.06-.53-10.76-1.13-14.59,4.81l5,4.66,7.78-4.21,1.29,1.7c-1.18,1.61-2.67,3.08-3.45,4.86s-.83,3.79-1.19,5.66c-6.53.39-7.9,1.62-10.82,11L28.56,103.57c-8.67,8.39-8.79,9.72-1.93,14.29l7.08-4,1.43,1.54-4.37,6.42c.61,1.86,1.24,3.79,2.33,7.08l-5.5-2.21c-4.08,3.62-7.39,6.56-10.73,9.51l9.39,11.49-1.9,1.78-8.93-6.56v22.8l1.59.72c4.67-4.58,9.21-9.3,14.07-13.66,1.44-1.3,3.76-1.63,5.68-2.4-.82,1.74-1.23,3.92-2.54,5.14-4.84,4.5-10,8.69-15,13l1.62,1.62,7,9.1L25.86,181c-1.57-1.22-3.17-2.4-4.71-3.66s-3-2.61-4.72-4c-3.84,7.36-3,16.76,1.59,20.31,1.22-1.12,2.52-2.21,3.72-3.4,5.33-5.3,10.56-10.68,16-15.87.83-.79,2.51-.7,3.8-1-.18,1.3,0,2.82-.63,3.84a19.37,19.37,0,0,1-3.56,3.69L21,196.35l5.16,8.19-1.6,1.59-10.63-8c.89,9-1.51,17,2.4,27,6.24-6.83,11.17-12.42,16.36-17.76,1.09-1.11,3.14-1.27,4.74-1.88-.51,1.6-.55,3.68-1.61,4.71-5.38,5.18-11,10.1-16.58,15.11L21,226.37c.65,2.24,1.31,4.48,2,6.72l-8.06-2.34v13.63l1.55,1.43c2.21-2.84,4.23-5.87,6.7-8.49s5.29-4.71,9.24-8.16c-1,7.4-12.06,18.59-17.91,20.05l10,11.86-1.85,1.8-8-5.59v18.8l17.52-16,2.32,2.4c-5.22,5.56-10.43,11.13-15.6,16.65l7.88,10-1.91,1.86-10-7.93V305l2.58,1.92c3.16-4,6-8.25,9.52-11.9,7.9-8.22,8-8.1,13.07-6.54L17.47,307.31l2,2L26,317.9l-1.48,1.66-9.42-6.4-.25.55,9.69,10.37,10.35-8.26L37,318l-8.36,9.66c.8,1.78,1.62,3.59,3.18,7l-8.24-2.52-8,8.5,10.35,11.43-1.78,2-9-5.52c.83,5.77,1.51,10.54,2.26,15.73,7.81-4.11,10.82-13,18.62-15l1.53,1.94L22.06,367.5C21.85,374.19,32.59,374.38,26.83,383.3ZM387.43,93.21H369.1l9.35,9.12Zm-349,11.58L37,103.55l3-7L33.11,100l10.17,11.56,7.23-4.72-6.14-5.67ZM69.8,92.53,79.07,102c2.88-3,5.46-5.69,9-9.44Zm181.69,10.61,8.93-9.33H243.61Zm107.19-8.25-.92-1.34h-11L351,100.4ZM15.9,322.86l-1.48.65c.22,3.05.44,6.11.77,10.73l6-6.43ZM137.68,93.62H125.49l5.22,7.14Zm182.26-.24,5.53,7,6.47-7Z"/><path class="cls-2" d="M27,383.62c5.76-8.93-5-9.1-4.79-15.79l15.46-16.21-1.54-1.93c-7.79,2-10.79,10.86-18.6,15-.75-5.19-1.44-9.95-2.28-15.72l9,5.5,1.77-2L15.73,341l8-8.52L32,335l-3.19-7,8.35-9.67L35,316.12l-10.34,8.29L15,314.05l.26-.55,9.42,6.39,1.48-1.67-6.56-8.59-2-2L40,288.73c-5.05-1.55-5.18-1.68-13.06,6.56-3.49,3.66-6.35,7.93-9.5,11.92l-2.58-1.92,0-21.83,10,7.92,1.9-1.87-7.9-10,15.58-16.67-2.32-2.4-17.5,16,0-18.8,8,5.57,1.85-1.79-10-11.86c5.84-1.46,16.92-12.67,17.88-20.06-3.95,3.45-6.81,5.6-9.23,8.17s-4.48,5.65-6.69,8.5l-1.55-1.43,0-13.63,8.06,2.32c-.65-2.24-1.31-4.47-2-6.71l-1.76-1.13c5.55-5,11.19-9.94,16.56-15.14,1.06-1,1.1-3.11,1.6-4.7-1.6.6-3.65.77-4.73,1.88-5.19,5.35-10.11,10.95-16.33,17.78-3.94-10-1.55-18-2.45-26.95l10.64,8,1.6-1.59c-1.45-2.3-2.91-4.6-5.18-8.18,5.26-5,10.82-10.25,16.37-15.53a19.63,19.63,0,0,0,3.55-3.69c.63-1,.45-2.54.63-3.84-1.29.31-3,.22-3.81,1-5.42,5.19-10.64,10.58-16,15.89-1.2,1.19-2.5,2.29-3.72,3.4-4.55-3.54-5.45-12.94-1.61-20.31,1.67,1.44,3.16,2.77,4.71,4s3.15,2.44,4.72,3.65l1.94-1.81-7-9.09-1.63-1.62c5-4.31,10.16-8.51,15-13,1.3-1.22,1.71-3.41,2.52-5.15-1.91.78-4.23,1.11-5.67,2.41-4.85,4.38-9.39,9.09-14,13.68l-1.6-.71,0-22.8,8.94,6.55L26.11,148q-4.69-5.75-9.39-11.48L27.42,127l5.5,2.21c-1.09-3.29-1.73-5.23-2.34-7.09l4.36-6.42-1.43-1.54-7.07,4.06c-6.87-4.56-6.75-5.89,1.91-14.29C34,109.56,39.72,115.24,46,121.57c2.91-9.36,4.28-10.6,10.81-11,.35-1.86.41-3.92,1.17-5.66s2.27-3.26,3.45-4.86l-1.3-1.7-7.77,4.22-5-4.65C51.25,92,57,92.57,62,93.09c4.33.45,12.55,12.17,12.62,16.58l8.91,1.1c-.49-7.1-.49-7.1,10.37-17.06l6.87,7.56-5.06,6.84L97.21,110l7-4.52,7.06,1.42c-.7-2-1.4-4.09-2.24-6.52,2-2.23,4.38-4.9,6.57-7.36a12.91,12.91,0,0,1,2.59,1.21c3,2.75,6,5.55,9,8.41l-4.12,6.84,1.35,1.43,6.49-3.44,10.5,9,2.16-1.9-8.91-11c8.05-12.83,17.24-13.57,22.39-4.25l-7.52,9.52,1.92,1.78c1.59-1.09,3.26-2.06,4.73-3.28,1.63-1.33,3.08-2.89,4.72-4.45l6.53,5,1.95-1.23c-1.28-2.37-2.57-4.74-4-7.3,5.27-9,9.61-8.83,17.61.73l-3.44,8.35,8.67-3.38c1.55,1.47,3.86,3.91,6.47,6,.86.68,2.5.37,3.79.52-.24-1.13-.15-2.54-.8-3.32-2-2.46-4.36-4.68-6.53-6.94,6.05-9.22,17.27-11.31,23.48-4.26l-6.38,7.48,1.38,2.08,9.21-5.93c1.93,1.82,4.13,4.13,6.6,6.09.68.54,2.2,0,3.33,0-.11-1,.13-2.25-.39-2.89-1.89-2.29-4-4.35-6.24-6.68,2.74-5.86,7.83-4.07,11.83-3.65,4.41.47,12.88,12.1,13.25,17.29,4-.08,6.4-1.11,8.56-5.35s6.67-7.83,10.72-10.93c1.52-1.17,5.29-1.18,6.93-.08,3.14,2.1,7,4.78,3.11,10.19l10.14,0c.61-10.45,5.48-13.14,20.52-10.75l-12,13.33,2.3,2.33,15.82-14.47c3.24,4.08,10.16,5.48,6.33,13.46,9.94-1.4,11.38-11.18,19.57-14.65l11,14.1,15.24-13.91c2.8,3.57,5.4,7.24,8.36,10.59s6.25,4.14,9.42-.2c2.39-3.27,5.11-6.3,7.48-9.18l9.67,6.57,1.52-1.61-5.36-7.92c6.3.09,12.82-3.06,15.95,5.13l-4.21,6.16,1.24,1.64,7-3.86,5.76,2.92,1.28-1.33-4-7.2c3.21-.3,5.9-1.25,8.18-.65,14.76,3.93,23.37,14,26.23,28.66a130,130,0,0,1,2.33,24.28q.42,94.92.31,189.84A126.62,126.62,0,0,1,454.86,359c-3.72,21.51-14.85,31.9-36.53,34.15a232.34,232.34,0,0,1-23.75,1.07q-158.62.36-317.25.4A197.41,197.41,0,0,1,43,391.15C37.58,390.19,32.68,386.39,27,383.62ZM231.44,351V351l130.62-.21c2.14,0,4.53.43,6.35-.37A6.78,6.78,0,0,0,372,346c.15-1.11-2-3-3.52-3.75s-3.36-.33-5.08-.33l-255.45.34c-4.29,0-8.64-.31-12.83.34-1.75.27-3.17,2.69-4.74,4.13,1.56,1.47,2.88,3.5,4.73,4.25s4.22.26,6.36.26Zm90.18-62.21q-22.85,0-45.7.08c-3.47,0-7.83-.22-7.29,4.61.19,1.65,4.65,4,7.17,4,30.46.26,60.92.14,91.38.1,3.48,0,7.64.21,7.48-4.73-.15-4.48-4.12-4.13-7.35-4.13Q344.47,288.74,321.62,288.8Zm.45-107.72V181c14.15,0,28.3.16,42.44-.25,2.53-.07,6.86-2.34,7.1-4.06.59-4.17-3.32-4.59-6.74-4.58q-42.45.06-84.9.08c-3.37,0-7,.2-6.93,4.65s4,4.27,7.22,4.27Q301.15,181.14,322.07,181.08Zm5.07,51.08c-15.21,0-30.42-.12-45.61.26-2.24.06-4.4,2.65-6.6,4.06,2.2,1.46,4.4,4.17,6.62,4.19,30.4.23,60.81.1,91.22,0,3.36,0,7.27-.34,6.64-4.67-.23-1.6-4.31-3.72-6.66-3.77C357.55,232,342.34,232.14,327.14,232.16Z"/><path class="cls-2" d="M387.43,93.21l-9,9.12-9.35-9.12Z"/><path class="cls-2" d="M38.4,104.79l6-3.62,6.14,5.67-7.23,4.72L33.11,100,40,96.5l-3,7Z"/><path class="cls-2" d="M69.8,92.53H88.11C84.53,96.28,82,99,79.07,102Z"/><path class="cls-2" d="M251.49,103.14l-7.88-9.33h16.81Z"/><path class="cls-2" d="M358.68,94.89,351,100.4l-4.24-6.85h11Z"/><path class="cls-2" d="M15.9,322.86l5.34,4.95-6,6.43c-.33-4.62-.55-7.68-.77-10.73Z"/><path class="cls-2" d="M137.68,93.62l-7,7.14-5.22-7.14Z"/><path class="cls-2" d="M319.94,93.38h12l-6.47,7Z"/><path d="M231.28,351h-130c-2.15,0-4.52.49-6.37-.26s-3.17-2.79-4.72-4.26c1.57-1.44,3-3.86,4.74-4.13,4.2-.64,8.55-.32,12.84-.32l255.45.06c1.71,0,3.65-.34,5.07.34s3.68,2.64,3.52,3.75a6.76,6.76,0,0,1-3.58,4.4c-1.82.8-4.21.36-6.35.36H231.28Z"/><path d="M321.55,288.93q22.84,0,45.69,0c3.23,0,7.2-.34,7.34,4.15.15,4.93-4,4.71-7.48,4.71-30.46,0-60.92.06-91.38-.24-2.53,0-7-2.37-7.16-4-.54-4.83,3.82-4.6,7.29-4.6Z"/><path d="M322.16,181.22q-20.9,0-41.81,0c-3.24,0-7.1.27-7.2-4.28s3.56-4.64,6.93-4.64l84.9.05c3.42,0,7.33.42,6.74,4.59-.25,1.72-4.58,4-7.11,4-14.14.39-28.3.19-42.45.19Z"/><path d="M327.15,232.31c15.21,0,30.42-.17,45.61.17,2.36.05,6.43,2.18,6.66,3.78.62,4.33-3.29,4.66-6.64,4.66-30.41,0-60.82.1-91.23-.18-2.22,0-4.41-2.74-6.61-4.2,2.2-1.41,4.37-4,6.6-4C296.74,232.13,312,232.31,327.15,232.31Z"/></g></g></g></svg>