<svg xmlns="http://www.w3.org/2000/svg" viewBox="0 0 470 470"><defs><style>.cls-1{isolation:isolate;}.cls-2{fill:#00a5c3;opacity:0.46;}.cls-2,.cls-3{mix-blend-mode:multiply;}.cls-3{fill:#ee707c;opacity:0.34;}</style></defs><title>Sans titre - 1</title><g class="cls-1"><g id="Calque_1" data-name="Calque 1"><path d="M47.62,366c-10.15-13.64-23-26.55-28.68-42C3.74,283,18.48,239,54.28,211.13c7.79-6,11.13-11.61,11.2-21.9.24-34.43,12.3-65,34.72-91.22C170.89,15.39,297,9.28,377.42,67.25,447.61,117.82,461,200.19,412,269.69c-7.54,10.68-15.34,21.18-23.8,32.82,14.3,17.48,36.17,27.95,61.47,32.94,4.8.95,8.94,5.29,13.38,8.06-3.58,3.94-6.4,9.57-10.85,11.57-47.34,21.34-93,18.6-136.92-10.12a25.77,25.77,0,0,0-15.47-4c-15.06,1.53-30,4.27-44.95,6.89-3,.53-6.61,1.88-8.37,4.09-30.13,37.85-71.23,46.87-116.67,45.59-4.94-.14-10.94,2.49-14.86,5.74C89,424.74,60.08,432.05,27.6,422.69c-4.41-1.27-7.84-5.93-11.72-9,3.45-3.41,6.32-8.17,10.47-10,13.39-5.83,25.73-12.55,34.18-26.89C55.67,372.84,50.69,370.16,47.62,366ZM168.27,183.32c46.95,8.69,83.52,31.4,95.62,80.33,4.05,16.37.37,34.7-.24,52.12-.14,4.29-2.1,8.51-3.92,15.4,14.7-2.9,27.46-5,40-8.06,8.32-2.07,14.49-.45,21.44,4.82,30.13,22.86,63.68,29.6,100,20.26-14.43-10.54-28.61-20.66-42.47-31.19-3.52-2.68-5.95-6.74-9-10.07-6.68-7.3-5.44-12.64,2-19.5,12.8-11.84,24.18-25.21,36.76-38.57-10.76-9.55-19.61-17-27.87-25-2-1.94-2.05-5.86-3-8.87,2.82.86,6.05,1.12,8.37,2.72,4,2.76,7.47,6.35,12.33,10.62l15.41-21.36-14-12.49-10,5.28-12.68-24.27c.17-6-1-12.37.9-17.74,1.75-5,6.68-9,11.05-14.42l-18.61-14.17c-3.65,4-7.19,8.47-11.31,12.27-1.36,1.24-4.22.86-6.39,1.23,0-2.17-.77-4.95.27-6.37,3.14-4.28,7-8,11-12.41a55.92,55.92,0,0,1-3.94-5.18c-2.18-3.73-4.18-7.58-6.25-11.38,4.11,1.75,8.25,3.45,12.33,5.27a21.14,21.14,0,0,1,3,2c6.48-6.75,5.37-8.65-11.1-19.14L338.32,114.6l-4.56-4,16.84-21.7L340.75,79l-18.22,19.1c-12.72-11.57-23.77-22.64-36-32.12-3.44-2.66-10.5-.63-17.78-.79,3.07-5.53,5.86-10.58,9.59-17.31l-25.21-.39,12.58,16.61-1.56,2.8-22.92-8.51c-2.62-14.12-6.67-14-27.09,2.69-4.84-11-12.8-6.77-20.59-4.14-40.63,13.68-74.34,36.41-95.81,74.53A116.79,116.79,0,0,0,82.1,193.58C111.1,182.05,139.31,178,168.27,183.32ZM107.11,386.81c5.91-6.18,11.65-7.6,19.57-6.83,25.35,2.47,50-.41,73.23-11.62,31.25-15.09,48.25-40.52,50.54-74.63s-13-60.24-41.66-78.5C159.48,183.8,86,195.25,48.32,240.05c-30.9,36.79-23.16,90.9,17,118.88,18.83,13.11,19.39,17.28,4.2,34.92-4,4.64-8.5,8.83-14.88,15.4C77.23,409,93.73,400.76,107.11,386.81ZM395.82,149.12l-12.3,19.57,14.85,12.39,13.11-18.45ZM323.15,83.85c4.76-6.62,9.65-13.41,14.38-20-14.88-9.62-16.91-9.17-29.09,9.51Zm68.79,19.55L378.3,121.57,396,136.74l10.43-12.66Zm27.44,97.71,3.69-1.52q-.42-14.16-.86-28.32L419.26,170l-14.51,15.53ZM301.92,67.48l10-14.56-23-2.74c-.42,1.33-.84,2.66-1.25,4Zm75.84,32c1.54.78,4.35-.91,6.58-1.47-3.83-4.44-7.29-9.3-11.7-13.06-1.5-1.29-5.38.21-8.17.43l-2.16,4.49C367.42,93.15,372.37,96.75,377.76,99.49Zm41.88,57.71c-3.4-9.86-5.75-16.63-9.35-27.08l-9.13,11.7Z"/><path class="cls-2" d="M82.1,193.58c29-11.53,57.21-15.62,86.17-10.26,46.95,8.69,83.52,31.4,95.62,80.33,4.05,16.37.37,34.7-.24,52.12-.14,4.29-2.1,8.51-3.92,15.4,14.7-2.9,27.46-5,40-8.06,8.32-2.07,14.49-.45,21.44,4.82,30.13,22.86,63.68,29.6,100,20.26-14.43-10.54-28.61-20.66-42.47-31.19-3.52-2.68-5.95-6.74-9-10.07-6.68-7.3-5.44-12.64,2-19.5,12.8-11.84,24.18-25.21,36.76-38.57-10.76-9.55-19.61-17-27.87-25-2-1.94-2.05-5.86-3-8.87,2.82.86,6.05,1.12,8.37,2.72,4,2.76,7.47,6.35,12.33,10.62l15.41-21.36-14-12.49-10,5.28-12.68-24.27c.17-6-1-12.37.9-17.74,1.75-5,6.68-9,11.05-14.42l-18.61-14.17c-3.65,4-7.19,8.47-11.31,12.27-1.36,1.24-4.22.86-6.39,1.23,0-2.17-.77-4.95.27-6.37,3.14-4.28,7-8,11-12.41a55.92,55.92,0,0,1-3.94-5.18c-2.18-3.73-4.18-7.58-6.25-11.38,4.11,1.75,8.25,3.45,12.33,5.27a21.14,21.14,0,0,1,3,2c6.48-6.75,5.37-8.65-11.1-19.14L338.32,114.6l-4.56-4,16.84-21.7L340.75,79l-18.22,19.1c-12.72-11.57-23.77-22.64-36-32.12-3.44-2.66-10.5-.63-17.78-.79,3.07-5.53,5.86-10.58,9.59-17.31l-25.21-.39,12.58,16.61-1.56,2.8-22.92-8.51c-2.62-14.12-6.67-14-27.09,2.69-4.84-11-12.8-6.77-20.59-4.14-40.63,13.68-74.34,36.41-95.81,74.53A116.79,116.79,0,0,0,82.1,193.58Z"/><path class="cls-3" d="M54.64,409.25c22.59-.26,39.09-8.49,52.47-22.44,5.91-6.18,11.65-7.6,19.57-6.83,25.35,2.47,50-.41,73.23-11.62,31.25-15.09,48.25-40.52,50.54-74.63s-13-60.24-41.66-78.5C159.48,183.8,86,195.25,48.32,240.05c-30.9,36.79-23.16,90.9,17,118.88,18.83,13.11,19.39,17.28,4.2,34.92C65.52,398.49,61,402.68,54.64,409.25Z"/><path class="cls-2" d="M411.48,162.63l-15.66-13.51-12.3,19.57,14.85,12.39Z"/><path class="cls-2" d="M308.44,73.36l14.71,10.49c4.76-6.62,9.65-13.41,14.38-20C322.65,54.23,320.62,54.68,308.44,73.36Z"/><path class="cls-2" d="M406.4,124.08,391.94,103.4,378.3,121.57,396,136.74Z"/><path class="cls-2" d="M404.75,185.57l14.63,15.54,3.69-1.52q-.42-14.16-.86-28.32L419.26,170Z"/><path class="cls-2" d="M287.66,54.17l14.26,13.31,10-14.56-23-2.74C288.49,51.51,288.07,52.84,287.66,54.17Z"/><path class="cls-2" d="M362.31,89.88c5.11,3.27,10.06,6.87,15.45,9.61,1.54.78,4.35-.91,6.58-1.47-3.83-4.44-7.29-9.3-11.7-13.06-1.5-1.29-5.38.21-8.17.43Z"/><path class="cls-2" d="M401.16,141.82l18.48,15.38c-3.4-9.86-5.75-16.63-9.35-27.08Z"/></g></g></svg>