<svg xmlns="http://www.w3.org/2000/svg" viewBox="0 0 470 470"><defs><style>.cls-1{isolation:isolate;}.cls-2{fill:#b5b5b5;opacity:0.46;}.cls-2,.cls-3{mix-blend-mode:multiply;}.cls-3{fill:none;stroke:#ee707c;stroke-miterlimit:10;stroke-width:38px;opacity:0.34;}</style></defs><title>Sans titre - 1</title><g class="cls-1"><g id="Calque_1" data-name="Calque 1"><g id="_2j7QkI.tif" data-name="2j7QkI.tif"><path d="M231,391.71c-54.26-.93-108.52-1.71-162.77-2.91A168.66,168.66,0,0,1,39,385.4c-18.89-3.79-29.84-16.21-33.69-34.64a121.64,121.64,0,0,1-2.64-26.15q1.19-95.24,3.07-190.45A151.18,151.18,0,0,1,7.74,112.1c4.42-26.29,19.19-40.45,45.87-42,18.35-1.06,36.84,0,55.26.29Q252,72.49,395.2,74.73a167.17,167.17,0,0,1,30,2.76c23.47,4.7,35.79,17.6,38.1,41.44,1.8,18.52,2,37.27,1.71,55.89-.94,54.9-2.48,109.79-3.86,164.68A76.54,76.54,0,0,1,460,349.72c-4.7,28.92-20,43.11-49.47,44.16-19,.68-38.15-.4-57.22-.72L231,391.07ZM22.47,368.15c5.58,2.88,10.41,6.77,15.8,7.84a198.15,198.15,0,0,0,34.27,4.14q158.59,3.09,317.2,5.51a232.68,232.68,0,0,0,23.77-.63c21.72-1.85,33-12,37.16-33.46a126.52,126.52,0,0,0,2.24-21.08q1.83-94.89,3.23-189.81a130.36,130.36,0,0,0-1.88-24.32c-2.59-14.7-11-24.94-25.7-29.14-2.26-.65-5,.25-8.18.49,1.86,3.51,2.85,5.4,3.85,7.28l-1.3,1.31-5.71-3L410.13,97l-1.21-1.67c1.41-2,2.83-4,4.32-6.08-3-8.25-9.54-5.22-15.84-5.42l5.21,8-1.55,1.58-9.55-6.75c-2.42,2.84-5.2,5.82-7.65,9-3.25,4.28-6.44,3.52-9.42,0S369,88.6,366.28,85l-15.5,13.63L340.06,84.3c-8.26,3.32-9.88,13.07-19.84,14.29,4-7.92-2.92-9.44-6.08-13.58L298.05,99.18l-2.26-2.38L308,83.7c-15-2.67-19.91-.07-20.71,10.37l-10.15-.17c4-5.34.19-8.09-2.91-10.25-1.63-1.13-5.39-1.19-6.94,0-4.1,3-8.61,6.4-10.91,10.72s-4.69,5.19-8.67,5.2c-.27-5.2-8.52-17-12.92-17.54-4-.49-9-2.38-11.89,3.43,2.16,2.37,4.27,4.47,6.11,6.79.51.65.24,1.92.33,2.9-1.13,0-2.65.49-3.32-.06-2.44-2-4.6-4.36-6.49-6.22l-9.32,5.76-1.33-2.1,6.51-7.36C209.33,78,198.07,79.84,191.86,89c2.12,2.29,4.4,4.56,6.4,7.05.63.8.51,2.2.73,3.33-1.28-.17-2.93.11-3.78-.59-2.57-2.1-4.83-4.59-6.36-6.08l-8.73,3.22,3.59-8.29c-7.82-9.71-12.15-10-17.59-1.06L170,93.91l-2,1.2c-2.06-1.66-4.13-3.31-6.43-5.15-1.67,1.53-3.15,3.06-4.8,4.36s-3.19,2.13-4.79,3.19l-1.89-1.81,7.69-9.39c-5-9.41-14.17-8.84-22.46,3.84,3,3.77,5.82,7.45,8.7,11.12l-2.19,1.86L131.47,94l-6.55,3.32-1.33-1.46,4.25-6.76c-3-2.92-5.88-5.77-8.83-8.58a13.47,13.47,0,0,0-2.57-1.26l-6.7,7.25c.79,2.44,1.45,4.5,2.12,6.55l-7-1.55-7.1,4.39L96.27,94l5.19-6.74-6.73-7.69c-11,9.76-11,9.76-10.68,16.86l-8.9-1.26c0-4.41-8-16.28-12.3-16.81C57.8,77.71,52.1,77,48.18,82.89l4.88,4.73,7.85-4.07,1.26,1.72c-1.21,1.59-2.72,3-3.54,4.8s-.89,3.78-1.28,5.64c-6.53.28-7.93,1.49-11,10.79-6.21-6.44-11.79-12.23-17.37-18-8.81,8.24-8.95,9.56-2.18,14.25L34,98.82l1.4,1.57-4.48,6.34c.58,1.87,1.19,3.82,2.21,7.13l-5.45-2.31-10.89,9.32q4.59,5.82,9.19,11.65L24,134.27l-8.82-6.71-.39,22.79,1.58.75c4.74-4.5,9.37-9.14,14.3-13.42,1.46-1.27,3.79-1.56,5.72-2.3-.85,1.72-1.3,3.9-2.63,5.09-4.92,4.43-10.13,8.53-15.23,12.75l1.6,1.65,6.8,9.22-2,1.77c-1.56-1.24-3.13-2.46-4.65-3.74s-3-2.66-4.65-4.13c-4,7.3-3.25,16.72,1.24,20.34,1.24-1.09,2.56-2.16,3.78-3.33,5.42-5.21,10.74-10.5,16.25-15.6.85-.78,2.53-.65,3.83-.94-.2,1.29,0,2.81-.7,3.83a20,20,0,0,1-3.62,3.62c-5.64,5.17-11.3,10.33-16.65,15.22l5,8.28L23.18,191l-10.49-8.21c.74,9-1.8,16.93,2,27C21,203,26,197.53,31.3,192.28c1.1-1.09,3.16-1.22,4.77-1.79-.54,1.58-.61,3.67-1.69,4.67-5.47,5.1-11.2,9.91-16.84,14.82l1.74,1.17c.62,2.25,1.23,4.5,1.85,6.75l-8-2.48-.23,13.64,1.52,1.45c2.26-2.81,4.34-5.8,6.84-8.37s5.37-4.62,9.38-8c-1.1,7.37-12.37,18.37-18.25,19.73l9.76,12-1.88,1.77-7.89-5.73L12,260.74l17.8-15.67,2.27,2.45L16.23,263.89l7.71,10.17L22,275.89l-9.89-8.11-.37,21.83,2.54,2c3.22-3.93,6.16-8.15,9.72-11.74,8-8.09,8.16-8,13.18-6.32L14.41,292l2,2,6.41,8.71-1.51,1.64L12,297.83l-.26.54,9.51,10.54,10.49-8.09,2,2.24-8.53,9.52,3.06,7.08L20.09,317,12,325.36,22.1,337l-1.81,2-8.92-5.67c.73,5.78,1.33,10.56,2,15.76,7.89-4,11-12.78,18.88-14.63l1.5,2L18,352.28C17.65,359,28.39,359.33,22.47,368.15ZM388,84.27,369.65,84l9.19,9.28ZM38.8,89.89l-1.41-1.27,3.12-7L33.59,85l10,11.74,7.31-4.59-6-5.79ZM70.4,78.17l9.11,9.59,9.2-9.28ZM251.89,91.88,261,82.7l-16.81-.28ZM359.2,85.45l-.9-1.35-11-.19,4.13,6.92ZM12.58,307.54l-1.49.63c.16,3.05.33,6.11.58,10.74l6.16-6.33ZM138.25,80.42l-12.18-.21,5.09,7.23Zm182.24,2.87c2,2.6,3.58,4.66,5.41,7.06l6.59-6.86Z"/><path class="cls-2" d="M22.68,368.48c5.9-8.83-4.83-9.19-4.53-15.87,4.51-4.57,10.12-10.26,15.74-15.94l-1.5-2c-7.83,1.86-11,10.68-18.86,14.66-.66-5.2-1.27-10-2-15.76l8.94,5.66,1.8-2L12.1,325.7l8.12-8.38L28.41,320l-3.07-7.07,8.52-9.53-2.05-2.24-10.47,8.1-9.53-10.52.26-.54,9.32,6.55c.5-.55,1-1.1,1.51-1.64l-6.42-8.71-2-2,22.74-18.54c-5-1.64-5.14-1.76-13.16,6.34-3.56,3.6-6.49,7.82-9.71,11.75l-2.55-2,.34-21.83,9.91,8.09L24,274.38l-7.73-10.16,15.86-16.39-2.28-2.44L12.09,261.08l.29-18.8L20.27,248l1.88-1.76-9.78-12c5.88-1.37,17.14-12.38,18.22-19.76-4,3.38-6.9,5.48-9.36,8s-4.57,5.57-6.83,8.39l-1.53-1.45.22-13.64,8,2.46-1.86-6.74-1.74-1.16c5.63-4.93,11.35-9.75,16.81-14.85,1.08-1,1.15-3.09,1.69-4.68-1.62.58-3.67.71-4.77,1.8-5.28,5.26-10.3,10.78-16.63,17.5-3.77-10.06-1.24-18-2-27l10.5,8.2,1.63-1.57-5-8.27c5.35-4.9,11-10.07,16.63-15.25A20,20,0,0,0,40,162.59c.64-1,.49-2.54.69-3.84-1.3.3-3,.17-3.83,1-5.5,5.1-10.82,10.4-16.22,15.61-1.22,1.18-2.54,2.25-3.78,3.34-4.49-3.61-5.23-13-1.27-20.33,1.65,1.46,3.12,2.82,4.65,4.12s3.1,2.49,4.66,3.73l2-1.78L20,155.2l-1.6-1.65c5.1-4.23,10.3-8.34,15.21-12.77,1.33-1.2,1.77-3.37,2.62-5.1-1.93.74-4.25,1-5.72,2.31-4.92,4.29-9.54,8.93-14.27,13.44l-1.58-.74L15,127.9l8.83,6.69,1.92-1.75L16.58,121.2l10.86-9.34,5.46,2.3c-1-3.3-1.63-5.25-2.22-7.12l4.47-6.35-1.4-1.56-7.14,3.94c-6.79-4.68-6.65-6,2.15-14.26l17.39,18c3.07-9.31,4.46-10.52,11-10.81.39-1.86.48-3.91,1.28-5.64s2.32-3.22,3.53-4.81l-1.27-1.71L52.84,87.9,48,83.17c3.92-5.89,9.62-5.19,14.67-4.58C66.94,79.11,75,91,74.94,95.38l8.9,1.25c-.37-7.1-.37-7.1,10.66-16.88l6.74,7.68c-1.48,1.94-3.33,4.34-5.18,6.75l1.45,1.89,7.1-4.4,7,1.54c-.66-2.06-1.33-4.11-2.12-6.55,2-2.21,4.45-4.84,6.69-7.26a12.87,12.87,0,0,1,2.57,1.26c3,2.8,5.85,5.65,8.85,8.57L123.38,96l1.33,1.46,6.54-3.34,10.35,9.16,2.19-1.86L135.07,90.3c8.28-12.69,17.47-13.28,22.46-3.87l-7.68,9.4,1.89,1.8c1.61-1,3.29-2,4.79-3.19,1.65-1.31,3.13-2.84,4.79-4.37l6.44,5.14,2-1.2-3.84-7.37c5.43-8.94,9.76-8.66,17.59,1L179.92,96l8.72-3.24A88,88,0,0,0,195,98.81c.85.7,2.5.42,3.78.59-.23-1.13-.1-2.54-.74-3.34-2-2.49-4.29-4.75-6.41-7,6.2-9.12,17.45-11,23.55-3.86l-6.51,7.37,1.34,2.1,9.31-5.78c1.9,1.86,4.06,4.21,6.5,6.21.67.55,2.19.07,3.32.06-.09-1,.18-2.25-.34-2.9-1.84-2.32-3.95-4.42-6.12-6.78,2.84-5.82,7.9-3.94,11.89-3.45,4.4.54,12.67,12.32,12.95,17.51,4,0,6.42-1,8.66-5.21s6.8-7.7,10.89-10.74c1.55-1.14,5.31-1.09,6.94,0,3.1,2.16,7,4.9,2.93,10.24L287.1,94c.78-10.44,5.7-13,20.7-10.4L295.58,96.71l2.27,2.37,16.07-14.19C317.08,89,324,90.53,320,98.45c10-1.23,11.56-11,19.81-14.32l10.75,14.29c3.76-3.31,8.67-7.65,15.48-13.64,2.73,3.61,5.27,7.32,8.17,10.73s6.18,4.24,9.42,0c2.45-3.23,5.22-6.21,7.63-9.06l9.57,6.74,1.54-1.58-5.22-8c6.3.19,12.87-2.85,15.86,5.4-1.5,2.1-2.91,4.09-4.32,6.08l1.21,1.67L417,93l5.71,3,1.3-1.3-3.87-7.28c3.23-.24,5.93-1.14,8.19-.5,14.7,4.18,23.13,14.4,25.74,29.1A130.26,130.26,0,0,1,456,140.32q-1.22,94.92-2.94,189.81a125.32,125.32,0,0,1-2.21,21.08c-4.08,21.45-15.39,31.64-37.1,33.53a235.6,235.6,0,0,1-23.77.66q-158.61-2.36-317.21-5a199.17,199.17,0,0,1-34.28-4.09C33.1,375.23,28.27,371.34,22.68,368.48ZM227.6,339.37v-.06l130.6,2c2.14,0,4.52.5,6.35-.27a6.76,6.76,0,0,0,3.66-4.34c.17-1.11-2-3.06-3.46-3.81s-3.36-.39-5.07-.42l-255.42-4c-4.29-.06-8.63-.45-12.84.13-1.75.24-3.21,2.63-4.8,4,1.53,1.49,2.82,3.55,4.65,4.33s4.22.33,6.36.36Zm91.23-60.66L273.14,278c-3.47-.05-7.83-.35-7.37,4.49.16,1.65,4.58,4.07,7.1,4.13,30.45.78,60.91,1.18,91.37,1.66,3.47.06,7.63.34,7.55-4.6-.07-4.48-4.05-4.2-7.27-4.26Q341.68,279,318.83,278.71ZM321.12,171v0c14.15.22,28.3.65,42.44.47,2.53,0,6.9-2.22,7.17-3.93.66-4.16-3.24-4.65-6.66-4.7l-84.89-1.37c-3.37-.05-7,.08-7,4.54s3.89,4.33,7.14,4.39Q300.22,170.71,321.12,171Zm4.19,51.16c-15.2-.23-30.4-.64-45.6-.52-2.23,0-4.45,2.57-6.67,3.95,2.18,1.49,4.33,4.24,6.55,4.3,30.4.75,60.8,1.14,91.21,1.6,3.35.05,7.27-.22,6.71-4.56-.2-1.61-4.24-3.79-6.59-3.88C355.73,222.48,340.52,222.41,325.31,222.17Z"/><path class="cls-2" d="M388,84.27l-9.14,9L369.65,84Z"/><path class="cls-2" d="M38.8,89.89l6-3.53,6,5.79-7.31,4.59L33.59,85l6.92-3.37-3.12,7Z"/><path class="cls-2" d="M70.4,78.17l18.31.31-9.2,9.28Z"/><path class="cls-2" d="M251.89,91.88l-7.73-9.46L261,82.7Z"/><path class="cls-2" d="M359.2,85.45l-7.76,5.38-4.13-6.92,11,.19Z"/><path class="cls-2" d="M12.58,307.54l5.25,5-6.16,6.33c-.25-4.63-.42-7.69-.58-10.74Z"/><path class="cls-2" d="M138.25,80.42l-7.09,7-5.09-7.23Z"/><path class="cls-2" d="M320.49,83.29l12,.2-6.59,6.86C324.07,88,322.49,85.89,320.49,83.29Z"/><path d="M227.44,339.36l-130-2.23c-2.14,0-4.52.42-6.36-.37s-3.12-2.84-4.65-4.34c1.6-1.41,3.06-3.8,4.81-4,4.21-.58,8.56-.18,12.84-.1q127.71,2.19,255.42,4.42c1.71,0,3.66-.28,5.06.42s3.63,2.71,3.45,3.81a6.74,6.74,0,0,1-3.65,4.35c-1.84.76-4.22.28-6.36.25l-130.6-2.23Z"/><path d="M318.76,278.84q22.85.39,45.68.79c3.23.05,7.21-.22,7.27,4.27.07,4.93-4.08,4.64-7.56,4.58-30.45-.52-60.91-1-91.36-1.8-2.53-.06-6.94-2.49-7.09-4.14-.46-4.84,3.9-4.53,7.37-4.48Z"/><path d="M321.21,171.15q-20.9-.36-41.8-.72c-3.24-.06-7.11.15-7.13-4.41s3.64-4.58,7-4.52q42.43.75,84.89,1.5c3.41.06,7.32.55,6.65,4.71-.27,1.71-4.64,3.9-7.17,3.93-14.15.14-28.3-.3-42.45-.54Z"/><path d="M325.33,222.31c15.2.26,30.41.36,45.6,1,2.36.09,6.39,2.29,6.59,3.89.55,4.34-3.37,4.61-6.72,4.55-30.4-.51-60.81-.94-91.21-1.74-2.22-.06-4.36-2.81-6.54-4.31,2.22-1.38,4.44-3.92,6.67-3.94C294.92,221.62,310.13,222.05,325.33,222.31Z"/><line class="cls-3" x1="319" y1="36" x2="144" y2="434"/></g></g></g></svg>