<?xml version="1.0" encoding="UTF-8"?>
<!-- Generator: Adobe Illustrator 22.1.0, SVG Export Plug-In . SVG Version: 6.00 Build 0)  -->
<svg version="1.1" id="Calque_1" xmlns="http://www.w3.org/2000/svg" x="0px" y="0px" viewBox="0 0 419.4 432.2"
     style="enable-background:new 0 0 419.4 432.2;" xml:space="preserve">
<style type="text/css">
	.st0{fill:#616161;}
	.st1{fill:#FFFFFF;}
	.st2{fill:none;stroke:#FFFFFF;stroke-width:0.5;stroke-linecap:round;stroke-linejoin:round;stroke-miterlimit:10;}
	.st3{opacity:0.48;fill:none;stroke:#EF9486;stroke-width:19;stroke-miterlimit:10;}
	.st4{fill:#898890;}
	.st5{fill:#D8D7DA;}
	.st6{opacity:0.48;fill:#EF9486;}
	.st7{opacity:0.46;fill:#00A5C3;}
</style>
<g>
	<path class="st0" d="M300.1,232.4c5.5-1.1,10.5-2.2,15.6-3.1c1.1-0.2,2.2-0.2,3.3-0.3c10.5-0.6,12.5,7.8,10.1,14   c-1.7,4.2-4.4,8.4-7.6,11.5c-11.1,10.6-24.2,17.9-39.2,21.6c-1.8,0.4-4.6,0.7-5,1.8c-1.2,2.7-2.1,6-1.5,8.7   c0.8,3.7,3.1,7.2,4.7,10.7c1.9,4.1,4.2,8.1,5.6,12.3c1.3,4.1-1,7.4-4.6,9.3c-3.4,1.8-6.9,1.1-9.9-1.4c-5.6-4.6-10.4-9.9-14-16.2   c-2.9-5.1-6-10.1-9.4-14.9c-1.9-2.6-4.8-4.4-7.2-6.5c1.6-0.6,3.8-0.6,5.1,1.3c3.9,5.4,7.8,10.8,11.3,16.5c4,6.4,8,12.7,14.3,17.2   c4.7,3.4,10.9,1.3,12-4.1c0.3-1.5,0-3.3-0.6-4.7c-1.2-2.7-3-5-4.3-7.7c-1.9-4.1-4-8.2-5.3-12.4c-1.5-5.1,0.1-9.9,2.8-14.4   c11.6-19.2,19.7-39.9,25.8-61.4c7.1-24.7,9.7-50,11.1-75.5c1.1-21.1,0.7-42.1-2.1-63c-1.3-9.5-3.8-18.8-5.9-28.2   c-0.9-4.2-2.2-8.3-3.4-12.4c0.3-0.1,0.6-0.3,0.8-0.4c0.7,1.2,1.6,2.3,2,3.6c4.7,14.7,7.5,29.8,9.1,45.1c2.5,23,2.8,46.1,2,69.2   c-0.6,18.2-2,36.4-6.5,54.2c-2.2,8.5-5.2,16.8-7.8,25.2C301.1,229.2,300.6,230.6,300.1,232.4z"/>
	<path class="st0" d="M227.8,135.1c-6.9,0.5-11.5-2.6-12.7-8.5c4.5,5.7,8.6,7.8,12.2,6.1c3.6-1.6,4.6-4.6,3.5-11.3   c-5.1-0.6-8.4-3.3-9.3-8.6c-0.6-3.6,1.6-8.6,4.7-10.6c3.2-2,9.7-0.4,11.8,3.2c1.9,3.3,2.5,7,1.1,10.5c-0.7,1.8-2.8,3.3-4.6,4.4   c-1.3,0.8-1.8,1.5-1.6,3.1c0.8,4.4,3.9,6.7,8.3,5.8c7.3-1.5,9.6-4.7,9.5-12.9c2.1,3,1.4,8.4-1.5,11c-0.4,0.4-0.9,0.9-1.5,1.1   c-4.3,1.5-5.3,4.9-5.2,8.9c0.1,3.1-1.4,4.7-4.6,4.6c-0.2,0-0.4,0.1-0.6,0.1c-1.7,0.3-4.1,1.5-5.1,0.8c-1.6-1.2-2.4-3.6-3.5-5.5   C228.5,136.5,228.2,135.8,227.8,135.1z M234.3,130.6c1.8,8.2,2.8,9.5,6.5,8.5c0.2-2.4,0.4-4.8,0.6-7.1   C238.9,131.4,236.7,131,234.3,130.6z M236.2,140.9c-1.5-4.1-2.6-7-3.7-10c-3.5,3.4-3.6,5.2-0.3,9.1   C232.8,140.7,234.4,140.5,236.2,140.9z M236,110.6c1.5-4,0.3-5.6-3.5-5.1C233.8,107.4,234.9,109,236,110.6z"/>
	<path class="st0" d="M196,280.1c-17.8-18.5-25-41.1-24.3-66.2c0.5-18.2,1.8-36.7,14.5-51.7c-0.1,0.5-0.1,1-0.4,1.4   c-7.3,11-9.8,23.4-10.7,36.3c-1.2,18.6,0.7,36.8,6.5,54.5c2.2,6.7,6,12.5,10.4,18c1.8,2.2,3.2,4.7,4.8,7   C196.6,279.7,196.3,279.9,196,280.1z"/>
	<path class="st0" d="M277.3,93.6c0.7-0.8,1.2-1.7,2-2.4c3.4-3.6,4.3-8,3.9-12.6c-0.5-6.6-8.2-11.4-14.4-9c-2.2,0.9-4.4,2.1-6.2,3.7   c-1.8,1.6-3,1.5-4.9,0.3c-10.4-6-21.3-7-32.7-3.1c-5.4,1.9-10.2,4.9-13.7,9.7c-0.3-0.2-0.5-0.5-0.8-0.7c1.8-1.9,3.4-4.1,5.4-5.7   c8.6-6.7,18.4-9.2,29.1-7.7c4.5,0.6,8.9,2.2,13.5,3.1c1.2,0.2,2.8,0,3.9-0.6c3.8-2.1,7.5-3.9,12.1-2.9c10.7,2.3,15.3,14.2,8.6,22.9   c-1.5,2-3.3,3.8-5,5.7C277.8,94.1,277.6,93.8,277.3,93.6z"/>
	<path class="st0" d="M190.3,141c-13.9-10.6-23.6-24.1-27.8-40.8c-3.5-14-3.2-28.3,1.4-42.3C157.1,90.5,170,116.9,190.3,141z"/>
	<path class="st0" d="M230.3,282.5c-4,2.8-8,5.7-12,8.5c-7.9,5.4-15.8,10.8-23.9,16.1c-3.2,2.1-6.6,4-10.2,5.4   c-5.4,2.2-9.4-0.8-8.4-6.6c0.6-3.5,2.2-6.9,4-10c3.5-5.9,8.8-10.9,9.4-18.3c0.4,0.1,0.8,0.2,1.2,0.2c-0.1,1.4,0.3,3.1-0.3,4.3   c-1.9,3.9-4.2,7.5-6.3,11.3c-1.4,2.4-3.4,4.7-4.2,7.3c-0.6,2.1-0.6,4.9,0.4,6.8c1.2,2.4,4.2,2.1,6.3,1.1c4.8-2.4,9.5-5.2,14.1-8.1   c8.8-5.6,17.4-11.5,26.1-17.2c1-0.7,2.2-1.2,3.3-1.7C229.9,281.8,230.1,282.2,230.3,282.5z"/>
	<path class="st0" d="M171,172.5c-0.7-1.1-1.1-1.4-1.1-1.7c0.2-9.5-4.1-17.7-8-25.8c-7.1-14.9-13.4-30.1-17.5-46.2   c-1.4-5.4-2-10.9-2.9-16.4c-0.2-1.4,0.1-2.9,0.9-4.5c0.2,0.5,0.6,1.1,0.6,1.6c0.9,16.7,6.4,32.3,12.8,47.5   c3.8,8.9,8.6,17.4,12.3,26.3c2,4.9,2.5,10.3,3.6,15.5C171.9,169.8,171.4,170.9,171,172.5z"/>
	<path class="st0" d="M202.8,80.4c-1.3-0.1-2.6-0.4-3.8-0.3c-5,0.4-8.5,4.4-8.5,9.4c0,5,1.7,9.3,5.5,12.7c0.6,0.5,1.1,1.4,1.3,2.2   c0.4,1.4,0.5,2.8,0.7,4.2c2.1,14.1,8.7,24.8,22.3,30.3c0.4,0.1,0.7,0.3,1.1,0.5c0.1,0,0.1,0.2,0.1,0.3c-3.2,0.5-9.3-2.1-12.6-5.6   c-6.7-7.3-12.6-15-13.4-25.5c-0.1-1.1-0.9-2.2-1.7-3c-5.1-5.9-7.3-12.5-4.7-20.2c1.6-4.6,6.8-8.1,11.3-7.3c1,0.2,1.8,1,2.7,1.5   C203.2,79.8,203,80.1,202.8,80.4z"/>
	<path class="st0" d="M266.2,152.2c18.5-8.5,24.9-23.9,25-43.1c0.2,0.3,0.5,0.6,0.5,0.9c0.7,8.7-0.1,17.2-2.9,25.4   c-2,5.8-5.8,10.1-11.2,13c-1.9,1-3.6,2.2-5.6,3.1c-1.7,0.7-3.5,1.1-5.3,1.7C266.6,152.9,266.4,152.6,266.2,152.2z"/>
	<path class="st0" d="M293.2,299c4.6,3.5,5.5,13,2.4,18.9c-2.1,4-5.7,6.6-9,5.8C296,317.5,294.9,308.6,293.2,299z"/>
	<path class="st0" d="M274,89c-1.6-1-3.3-2-4.8-3.2c-0.5-0.4-1-1.2-0.9-1.7c0.2-1.9,1.1-3.7,1-5.5c0-1.7-0.9-3.4-1.4-5.1   C272.8,74.2,276.3,83.5,274,89z"/>
	<path class="st0" d="M293.1,77.1c-0.1-0.9-0.2-1.8-0.3-2.8c-0.6-6.7-1-13.5-4.3-19.7c-0.7-1.2,0.1-3.2,0.2-4.9   c0.9,1.2,2.5,2.2,2.7,3.5c1.2,7.6,2,15.2,2.9,22.8c0,0.3-0.2,0.7-0.3,1C293.7,77.1,293.4,77.1,293.1,77.1z"/>
	<path class="st0" d="M301.3,46.8c-5-5.6-4.3-12.2-6.5-18.5C298.1,29.4,301.1,38.6,301.3,46.8z"/>
	<path class="st0" d="M259.6,96c-5.7-3.4-9.5,1.2-13.8,3.4c-0.4-3,1.1-5,4.2-6C254.5,91.9,258,92.6,259.6,96z"/>
	<path class="st0" d="M217.5,103.4c-1.4,0.3-2.8,1.1-3.4,0.7c-3.6-2.1-6.7-2.6-9.3,1.4c-0.2,0.2-1,0.3-1.3,0.1   c-0.3-0.2-0.4-0.9-0.2-1.3c1.6-4,9.7-6.1,12.9-3.3C216.5,101.5,216.8,102.1,217.5,103.4z"/>
	<path class="st0" d="M155.6,80c-3-5.9-1.9-11.6,1.7-17.2C156.8,68.6,156.2,74.3,155.6,80z"/>
	<path class="st0" d="M302.1,310.9c1.9,2.8,1.6,6.8-0.8,10c-0.9,1.2-1.6,3.1-3.6,2.3C299.2,319.1,300.6,315.1,302.1,310.9z"/>
	<path class="st0" d="M294.3,50.6c-1.1-4-2-7.3-3.1-11C294.4,41.2,296.2,46.9,294.3,50.6z"/>
	<path class="st0" d="M148.8,80.8c-2.9-1.7-3-8.3,0-12.1C148.8,72.9,148.8,76.9,148.8,80.8z"/>
	<path class="st1" d="M234.3,130.6c2.4,0.4,4.5,0.9,7.1,1.3c-0.2,2.3-0.4,4.7-0.6,7.1C237.1,140.1,236.1,138.8,234.3,130.6z"/>
	<path class="st1" d="M236.2,140.9c-1.8-0.4-3.4-0.2-4-0.9c-3.3-3.9-3.2-5.7,0.3-9.1C233.6,133.9,234.7,136.8,236.2,140.9z"/>
	<path class="st1" d="M236,110.6c-1.1-1.6-2.2-3.2-3.5-5.1C236.3,105,237.5,106.6,236,110.6z"/>
</g>
<path class="st2" d="M296.9,241.2c0,0,11.9,8,12.3,21.8"/>
<path class="st2" d="M289.3,248.2c0,0,11.9,8,12.3,21.8"/>
<path class="st2" d="M303.8,231.3c0,0,13.4,9.3,13,25.9"/>
<path class="st2" d="M326.5,236.8c0,0-8.9,20.6-36.2,33"/>
<path class="st2" d="M323.1,231.4c0,0-9,19.9-36.8,31.7"/>
<path class="st2" d="M315.9,229.3c0,0-7.4,15.9-28.6,25.1"/>
<path class="st2" d="M314,229.8c0,0,9.5,6.5,9.7,17.8"/>
<path class="st2" d="M283.6,253.9c0,0,9.5,6.5,9.7,17.8"/>
<path class="st3" d="M356.6,294.7c-23.1,61-82,104.3-151.1,104.3C116.3,399,44,326.7,44,237.5c0-66.9,40.7-124.3,98.6-148.8"/>
<path class="st2" d="M239.5,274.2c0,0,2.3-10.4,12-16.7"/>
<path class="st2" d="M246.5,275.4c0,0,2.3-10.4,12-16.7"/>
<path class="st2" d="M229.7,274.6c0,0,2.9-11.8,14.7-19"/>
<path class="st2" d="M234.5,258.8c0,0,13.7-2.9,27,6.4"/>
<path class="st2" d="M230.8,264c0,0,13.7-2.9,27,6.4"/>
<path class="st2" d="M228.1,270.8c0,0,12.2-3.2,23.3,3"/>
<path class="st2" d="M119.3,255.4c0,0,1.6-14,12.9-20.4"/>
<path class="st2" d="M128.3,258.9c0,0,1.6-14,12.9-20.4"/>
<path class="st2" d="M108.1,253.8c0,0,2-15.8,16-22.9"/>
<path class="st2" d="M103,231.5c0,0,21-1.4,43,16.9"/>
<path class="st2" d="M99.9,236.9c0,0,20.4-1,42.1,18"/>
<path class="st2" d="M101.3,244.1c0,0,16.4-0.6,33.1,13.9"/>
<path class="st2" d="M135.5,261.4c0,0,1.3-11.2,10.7-16.3"/>
<path class="st1" d="M316.9,137c1.7,0,3.4,0,5.2,0c0,0.6,0,1.2,0,1.8c-1.7,0.2-3.4,0.4-5.2,0.6C316.9,138.6,316.9,137.8,316.9,137z"/>
<path class="st4" d="M353.8,167.9c-0.8,2.8-3.8,4.4-6.6,3.5c-2.8-0.9-4.4-3.8-3.5-6.6c0.8-2.8,3.8-4.4,6.6-3.5  C353.1,162.2,354.6,165.1,353.8,167.9z"/>
<path class="st5" d="M284.3,319.2c-1.3,4.2-5.7,6.5-9.9,5.3c-4.2-1.3-6.5-5.7-5.3-9.9c1.3-4.2,5.7-6.5,9.9-5.3  C283.2,310.5,285.6,315,284.3,319.2z"/>
<path class="st5" d="M102.5,189.3c-1.3,4.2-5.7,6.5-9.9,5.3c-4.2-1.3-6.5-5.7-5.3-9.9c1.3-4.2,5.7-6.5,9.9-5.3  C101.4,180.7,103.8,185.1,102.5,189.3z"/>
<path class="st4" d="M147,313.1c-0.9,2.8-3.8,4.4-6.6,3.5c-2.8-0.9-4.4-3.8-3.5-6.6c0.9-2.8,3.8-4.4,6.6-3.5  C146.3,307.3,147.8,310.3,147,313.1z"/>
<path class="st6" d="M346.4,175.9c4.2,1.3,8.6-1.1,9.9-5.3c1.3-4.2-1.1-8.6-5.3-9.9c-4.2-1.3-8.6,1.1-9.9,5.3  C339.9,170.2,342.2,174.7,346.4,175.9z M349.5,165.8c1.4,0.4,2.2,1.9,1.8,3.3c-0.4,1.4-1.9,2.2-3.3,1.8c-1.4-0.4-2.2-1.9-1.8-3.3  C346.6,166.2,348.1,165.4,349.5,165.8z"/>
<path class="st7" d="M273.6,327c5.6,1.7,11.5-1.4,13.2-7c1.7-5.6-1.4-11.5-7-13.2c-5.6-1.7-11.5,1.4-13.2,7  C264.9,319.3,268.1,325.3,273.6,327z M278.3,311.8c2.8,0.9,4.4,3.8,3.5,6.6c-0.9,2.8-3.8,4.4-6.6,3.5c-2.8-0.9-4.4-3.8-3.5-6.6  C272.5,312.5,275.5,310.9,278.3,311.8z"/>
<path class="st7" d="M98,176.9c-5.6-1.7-11.5,1.4-13.2,7c-1.7,5.6,1.4,11.5,7,13.2c5.6,1.7,11.5-1.4,13.2-7  C106.8,184.5,103.6,178.6,98,176.9z M93.4,192.1c-2.8-0.9-4.4-3.8-3.5-6.6c0.9-2.8,3.8-4.4,6.6-3.5c2.8,0.9,4.4,3.8,3.5,6.6  C99.2,191.4,96.2,192.9,93.4,192.1z"/>
<path class="st6" d="M144.2,303.9c-4.2-1.3-8.6,1.1-9.9,5.3c-1.3,4.2,1.1,8.6,5.3,9.9c4.2,1.3,8.6-1.1,9.9-5.3  C150.8,309.6,148.4,305.2,144.2,303.9z M141.2,314c-1.4-0.4-2.2-1.9-1.8-3.3s1.9-2.2,3.3-1.8c1.4,0.4,2.2,1.9,1.8,3.3  C144,313.7,142.6,314.5,141.2,314z"/>
</svg>
