<svg viewBox="0 0 1814 846.49" xmlns="http://www.w3.org/2000/svg">
    <path d="m181.42 716.79s-35.81-21.12-27.94-61.21 52.29-39.56 58.54-7c0 0 7.87 43.5-26.32 68.21l3.94 3.94a8.61 8.61 0 0 1 -6.42 3.94 12.47 12.47 0 0 1 -6.82-2.14z"
          fill="none" stroke="#727272" stroke-linecap="round" stroke-linejoin="round"
          transform="translate(-68.5 -155.3)"/>
    <path d="m183.22 724.64s-15 21.49-2.17 40.45 20.41 20.06 20.78 29-18.07 12.16-19.25 24.61 18.53 10 19.25 19.35-23.26 11.08-22.92 23.26"
          fill="none" stroke="#727272" stroke-linecap="round" stroke-linejoin="round"
          transform="translate(-68.5 -155.3)"/>
    <ellipse cx="124.19" cy="508.3" fill="#f09587" opacity=".48" rx="16.86" ry="34.53"/>
    <path d="m101.3 429.93s-39.8-23.48-31-68.06 58.12-44 65.08-7.75c0 0 8.76 48.37-29.27 75.81l4.39 4.38a9.67 9.67 0 0 1 -7.17 4.33 13.64 13.64 0 0 1 -7.55-2.46z"
          fill="none" stroke="#727272" stroke-linecap="round" stroke-linejoin="round"
          transform="translate(-68.5 -155.3)"/>
    <path d="m103.29 438.64s-16.71 23.91-2.46 45 22.7 22.28 23.09 32.25-20.08 13.53-21.39 27.47 20.6 11.12 21.39 21.49-25.87 12.3-25.48 25.87"
          fill="none" stroke="#727272" stroke-linecap="round" stroke-linejoin="round"
          transform="translate(-68.5 -155.3)"/>
    <ellipse cx="45.35" cy="215.53" fill="#00a6c4" opacity=".46" rx="18.73" ry="38.4"/>
    <path d="m386.74 239.82-186.07-5.91.74-233.34 184.19 22.96z" fill="none" stroke="#626262" stroke-miterlimit="10"/>
    <path d="m386.74 239.82-12.8 3-186.34-3.12.74-227.32 13.07-11.81" fill="none" stroke="#626262"
          stroke-miterlimit="10"/>
    <path d="m200.67 233.91-13.07 5.79" fill="none" stroke="#626262" stroke-miterlimit="10"/>
    <path d="m1443.18 253.84 184.05-5.91-.74-233.35-182.2 22.96z" fill="none" stroke="#626262" stroke-miterlimit="10"/>
    <path d="m1443.18 253.84 12.78 3 184.31-3.13-.74-227.32-13.04-11.81" fill="none" stroke="#626262"
          stroke-miterlimit="10"/>
    <path d="m1627.23 247.93 13.04 5.78" fill="none" stroke="#626262" stroke-miterlimit="10"/>
    <path d="m387.55 369.06-188.06 15.95.74 235.32 186.19-36.98z" fill="none" stroke="#626262" stroke-miterlimit="10"/>
    <path d="m387.55 369.06-12.8-1.01-188.33 13.17.74 227.31 13.07 11.8" fill="none" stroke="#626262"
          stroke-miterlimit="10"/>
    <path d="m199.49 385.01-13.07-3.79" fill="none" stroke="#626262" stroke-miterlimit="10"/>
    <path d="m1621.91 564.72-.3-172.53-173.6.06-.47 205.48 49.69 5.76" fill="none" stroke="#626262"
          stroke-linecap="round" stroke-linejoin="round"/>
    <path d="m1634.34 569.54-.32-175.79-12.41-1.56" fill="none" stroke="#626262" stroke-linecap="round"
          stroke-linejoin="round"/>
    <ellipse cx="381.1" cy="747.19" fill="none" rx="40.34" ry="11.57" stroke="#626262" stroke-miterlimit="10"/>
    <path d="m446.92 902.49s15-25.7-8.59-57.7a60.92 60.92 0 0 1 -6.53-63.21" fill="none" stroke="#626262"
          stroke-miterlimit="10" transform="translate(-68.5 -155.3)"/>
    <path d="m460.45 900s-3.56-136.88 7.39-154.6c10.53-17.23 16.89-.87 17.48 5.63s-2.81 14.77-8.47 6.77a32 32 0 0 1 -6-15.58"
          fill="none" stroke="#626262" stroke-miterlimit="10" transform="translate(-68.5 -155.3)"/>
    <path d="m438.33 752.11s-7-9.4-19.45 3.2-9.88 22.16-9.88 22.16a15 15 0 0 1 14.63-9.6c11.42.05 18.71-3.87 14.7-15.76z"
          fill="none" stroke="#626262" stroke-miterlimit="10" transform="translate(-68.5 -155.3)"/>
    <path d="m441.82 785.71s-11.1 1.7-11.84-13c0 0 .94-11.84 11.47-4.16 0-.07 6.55 6.33.37 17.16z" fill="none"
          stroke="#626262" stroke-miterlimit="10" transform="translate(-68.5 -155.3)"/>
    <path d="m461.14 787.81s-18.26-9-21.71 9.84 14.63 7.53 14.63 7.53-1.06-16.56 7.08-17.5" fill="none" stroke="#626262"
          stroke-miterlimit="10" transform="translate(-68.5 -155.3)"/>
    <path d="m426.17 813.28s18.26-9 21.68 10-14.59 7.53-14.59 7.53 1.05-16.56-7.09-17.5" fill="none" stroke="#626262"
          stroke-miterlimit="10" transform="translate(-68.5 -155.3)"/>
    <path d="m473 811.07s-11.1 1.7-11.84-13c0 0 .94-11.84 11.47-4.16-.02.03 6.56 6.57.37 17.16z" fill="none"
          stroke="#626262" stroke-miterlimit="10" transform="translate(-68.5 -155.3)"/>
    <path d="m409.33 902.49 12.82 87.92s28.66 24.47 58.37 0l9.5-87.92" fill="none" stroke="#626262"
          stroke-miterlimit="10" transform="translate(-68.5 -155.3)"/>
    <path d="m750.84 652.67-74.21 18.56" fill="none" stroke="#626262" stroke-miterlimit="10"/>
    <path d="m908.28 558.21v55.08l-179.47 44.87" fill="none" stroke="#626262" stroke-miterlimit="10"/>
    <path d="m908.28 69.7v488.51" fill="none" stroke="#626262" stroke-miterlimit="10"/>
    <path d="m327.07 767.79-111.73 32.35" fill="none" stroke="#626262" stroke-miterlimit="10"/>
    <path d="m1407.5 725.87 113.93 24.37" fill="none" stroke="#626262" stroke-miterlimit="10"/>
    <path d="m908.28 613.29 302.22 69.67" fill="none" stroke="#626262" stroke-miterlimit="10"/>
    <path d="m1652.72 212.26c.72-6.45 0-13.07-4.7-18-5.66-5.93-13.9-5.74-21.51-5.81a336.57 336.57 0 0 0 -64 5.41 263.51 263.51 0 0 0 -30.15 7 17.24 17.24 0 0 0 -13.24 14.77c-.25 1.65-.42 3.33-.55 4.93-3 10.38.64 24.12 1.53 33.67v.77c0 1.87.15 3.76.32 5.66.44 11.35.62 25.43 10.24 31.53 10.88 6.89 27.08 1.7 38.82 0l3.44-.47a511.05 511.05 0 0 0 53.76-3.66c11.45-1.41 27.4-1.38 31.24-12.66a7.38 7.38 0 0 0 2.46-6.52l-7.68-54.88c.02-.66.05-1.2.02-1.74z"
          fill="#f09587" opacity=".48" transform="translate(-68.5 -155.3)"/>
    <path d="m451.62 563.59c1.33-7.38 1.11-15-3.89-21-6-7.39-15.48-7.73-24.22-8.42a386.89 386.89 0 0 0 -73.85.94 302.69 302.69 0 0 0 -35.15 5.56c-8.78 2-14.4 6.94-16.41 15.9-.42 1.87-.74 3.77-1 5.66-4.23 11.67-1.25 27.72-1 38.75v7.38c-.42 13-1.38 29.19 9.13 36.92 11.92 8.81 31 4.19 44.53 3.28l4-.28a581.53 581.53 0 0 0 61.93.2c13.24-.64 31.53.69 36.92-11.91a8.55 8.55 0 0 0 3.38-7.39l-4.34-63.82a17 17 0 0 0 -.03-1.77z"
          fill="#00a6c4" opacity=".46" transform="translate(-68.5 -155.3)"/>
    <path d="m462 802.53a9.88 9.88 0 0 0 1.89-8.94 10.22 10.22 0 0 0 -12.31-7c-9.2 2.24-23 11.42-18.33 22.52a12.29 12.29 0 0 0 16.29 6 13.08 13.08 0 0 0 6.46-6.11 3.68 3.68 0 0 0 .15-.47 10.46 10.46 0 0 0 5.85-6z"
          fill="#5eb676" opacity=".67" transform="translate(-68.5 -155.3)"/>
    <path d="m481.62 740.89a6.59 6.59 0 0 0 -6.05-1.3 7 7 0 0 0 -4.75 8.39c1.52 6.25 7.75 15.61 15.28 12.43a8.34 8.34 0 0 0 4.09-11 8.74 8.74 0 0 0 -4.19-4.41h-.32a7 7 0 0 0 -4.06-4.11z"
          fill="#5eb676" opacity=".67" transform="translate(-68.5 -155.3)"/>
    <path d="m471.48 800a6.68 6.68 0 0 0 -6.05-1.28 6.94 6.94 0 0 0 -4.75 8.37c1.5 6.25 7.73 15.63 15.28 12.45a8.34 8.34 0 0 0 4.09-11 8.84 8.84 0 0 0 -4.19-4.38h-.32a7.12 7.12 0 0 0 -4.06-4.16z"
          fill="#5eb676" opacity=".67" transform="translate(-68.5 -155.3)"/>
    <path d="m438.67 764.4a9.13 9.13 0 0 0 2.29-9.28 12.78 12.78 0 0 0 -14.96-7.39c-11.15 2.34-27.84 11.87-22.15 23.41 3.24 6.62 12.3 8.94 19.69 6.25a14.7 14.7 0 0 0 7.82-6.4 2.67 2.67 0 0 0 .2-.46 12 12 0 0 0 7.11-6.13z"
          fill="#5eb676" opacity=".67" transform="translate(-68.5 -155.3)"/>
    <path d="m439.88 813.36a6.64 6.64 0 0 0 -6.06-1.28 7 7 0 0 0 -4.75 8.39c1.5 6.25 7.73 15.61 15.29 12.43a8.34 8.34 0 0 0 4.08-11 8.7 8.7 0 0 0 -4.18-4.38h-.32a7.15 7.15 0 0 0 -4.06-4.16z"
          fill="#5eb676" opacity=".67" transform="translate(-68.5 -155.3)"/>
    <ellipse cx="909.19" cy="766.29" fill="#00a6c4" opacity=".46" rx="222.1" ry="65.28"/>
    <path d="m276.41 326.17c1.11-1.13 6.33-3.42 7.16-2.58a.52.52 0 0 1 .17.39 5.37 5.37 0 0 0 .28 1.63c1.62 5.88 8.64 17.92 15 27.44a209.48 209.48 0 0 1 -9.18-19.69 46.23 46.23 0 0 1 -3.37-13.44 8.79 8.79 0 0 1 2.46-6.62c8.34-8.35 20.38 10.09 17.75 22.47a10.6 10.6 0 0 1 6.35.84c7.77 4 13.66 18 5.09 26.61a7.81 7.81 0 0 1 -6.18 2.46c-1.79 0-3.25-2.46-1.62-2.29a4.5 4.5 0 0 0 3.86-1.4c6.33-6.33-4.92-25.73-9.45-21.25a7.82 7.82 0 0 1 -3.2 2.86 2.93 2.93 0 0 1 -2.8-.76c-.32-.79.68-2.46 1.62-3.55 2.58-9.06-5.66-25.82-10.19-21.27-1.67 1.68-.89 7 2 14.45a220.32 220.32 0 0 0 16.47 32.37 1.31 1.31 0 0 1 -.35 1.8c-1.33 1.33-4.92 2.46-6.15 1.23-9.52-9.5-28.13-39.36-25.72-41.7z"
          fill="#626262" transform="translate(-68.5 -155.3)"/>
    <path d="m311 320.56a1.4 1.4 0 0 1 0-1.5 10.09 10.09 0 0 1 5.27-2c1 0 1.13 1.23 1.45 2a110.68 110.68 0 0 0 6.18 11.64c-2.32-6.32-4.66-14.62-4.21-19.54a2.07 2.07 0 0 1 .66-1.46 9.81 9.81 0 0 1 4.92-2c1.46 0 1.56 1 1.41 2.06a13.58 13.58 0 0 0 3.39 9.36c1.36 1.45 2.47 1.57 3.08 1 2.46-2.46 0-9.09-.61-11.94a1.13 1.13 0 0 1 2.19-.49c.78 3.25 2.8 9.84 1.06 13.61a6.88 6.88 0 0 1 -9.19 2.24 19 19 0 0 1 -4.48-7.51c-.27-.74-.32-.47-.27 0 .72 8 6.21 22.16 9.58 26a.8.8 0 0 1 0 1.28c-1.36 1.36-5.05 2-6.23.87a94.84 94.84 0 0 1 -14.2-23.62z"
          fill="#626262" transform="translate(-68.5 -155.3)"/>
    <path d="m322.56 284.28a14.49 14.49 0 0 1 4.93-1.8c1.37-.27 2.11.44 2.46 2.07.66 2.68 2.19 10.26.88 11.64-3.07 3.32-7.38-6.94-8-9-.56-1.51-.66-2.52-.27-2.91zm18 38.13a100.77 100.77 0 0 1 -11.37-20 1.5 1.5 0 0 1 0-1.58 10.3 10.3 0 0 1 5.19-1.94c1.09-.17 1.14 1.23 1.53 1.94a134.65 134.65 0 0 0 11.25 19.7c.69 1 1.18.49 1.18-.4 0-6.84-4-16-6.33-21.24a1.11 1.11 0 0 1 2-.89c2.29 5.22 10 22.62 5.15 27.45a4.93 4.93 0 0 1 -6.9-.74c-.49-.74-1.1-1.45-1.72-2.31z"
          fill="#626262" transform="translate(-68.5 -155.3)"/>
    <path d="m342.33 287.35a7.85 7.85 0 0 1 10.19-.56c3 3 4.7 7.95 3.42 9.25a7.57 7.57 0 0 1 -4.92 1.33c-.84 0-1.16-.83-.89-1.79a9 9 0 0 0 -.61-5.76c-.91-2-2-2.47-2.69-1.8-4.72 4.7 7.26 27.35 14.16 20.45 4.92-4.92-.79-17.69-3.75-24.81a1.09 1.09 0 0 1 .62-1.4 1.08 1.08 0 0 1 1.4.61c3.13 7.39 10.19 22.4 3.47 29.12-13.41 13.52-28.01-16.99-20.4-24.64z"
          fill="#626262" transform="translate(-68.5 -155.3)"/>
    <path d="m360.37 271.23c3.47-3.47 8.79-4 11.3-1.45a29 29 0 0 1 6.23 9.45 30.48 30.48 0 0 0 -2.29-13.83 1.12 1.12 0 0 1 2.07-.84 31.28 31.28 0 0 1 1.67 19.15c1.35 5.49.84 10.93-2.46 14.23-4 4-10.49 2.46-13.39-.49-5.54-5.57-9.85-15.68-7.73-22.87a5.76 5.76 0 0 1 4.6-3.35zm11.91 23.24a18.44 18.44 0 0 0 2.47-4 35.37 35.37 0 0 0 -8.35-15.47c-3.69-3.69-5.93-1.89-5.78 2.29.34 6.72 6.72 16.25 11.15 17.87a2.67 2.67 0 0 1 .64-.66z"
          fill="#626262" transform="translate(-68.5 -155.3)"/>
    <path d="m360.86 241.72c1.06-1.08 6.33-3.42 7.17-2.59a.54.54 0 0 1 .17.4 9.43 9.43 0 0 0 .22 1.67c2.24 7.85 14.3 27.08 21.17 36.06 1.13 1.36 1.57 1.36 1.57-.32-.22-6.72-4.08-15.53-6.37-20.62a1.11 1.11 0 0 1 2-.89c2.29 5.22 10 22.62 5.14 27.44-3.08 3.08-6.32-.27-8.34-2.63-9.9-11.69-24.92-36.36-22.73-38.52z"
          fill="#626262" transform="translate(-68.5 -155.3)"/>
    <path d="m402.27 260.65a1.52 1.52 0 0 0 -.35-.45c1.8 4.93 2.46 10.07 0 12.61a4.93 4.93 0 0 1 -6.95.42l-.21-.2c-6.85-5.39-13.39-18.22-10.81-26.73.72-2.74 4.09-3.4 7.12-4.41a4.33 4.33 0 0 0 -.45-1 1.57 1.57 0 0 1 0-1.57 10.44 10.44 0 0 1 5.22-2c1.06-.15 1.11 1.23 1.45 2a136.14 136.14 0 0 0 11.55 19.49c.66 1 1.18.52 1.18-.39 0-6.82-4.21-15.73-6.57-21a1.11 1.11 0 0 1 2-.91c2.31 5.22 10.19 22.42 5.39 27.22a4.92 4.92 0 0 1 -6.9-.71c-.44-.75-1.06-1.49-1.67-2.37zm-9.27-14.5a21.34 21.34 0 0 1 -.89-2 2.09 2.09 0 0 0 -2.06.62c-3.87 3.86 2.78 16.46 7.38 21.61.57.66 2.46 2.8 3.37 1.89 2.56-2.68-6-18.58-7.8-22.05z"
          fill="#626262" transform="translate(-68.5 -155.3)"/>
    <path d="m420.51 254.32a5.08 5.08 0 0 1 -7.17.32c-6.79-5.44-13.34-18.26-10.75-26.78a4.9 4.9 0 0 1 3-2.95 39.09 39.09 0 0 1 4.14-1.45 8.13 8.13 0 0 1 -.44-1 1.41 1.41 0 0 1 0-1.53 10.8 10.8 0 0 1 5.26-2c.67 0 1 .52 1.11 1.13a10.06 10.06 0 0 0 .91 1.9c2.69 5.17 5.76 10.36 8.45 14.62l.39.62a39.42 39.42 0 0 0 -3.33-18.2 1.06 1.06 0 0 1 1.92-.91 43.39 43.39 0 0 1 3.3 22.16 136.75 136.75 0 0 1 7.7 13.75c2.46 4.92 3 9.4-1.36 13.76a6.29 6.29 0 0 1 -5.41 1.85 8.52 8.52 0 0 1 -6.33-8.45c-.34-4.38 1.33-9.08 2.07-13.16-1.13-2-2.29-4.09-3.47-6.16 1.8 5.07 2.5 10.02.01 12.48zm-4.63-6.45c.54.67 2.46 2.81 3.35 1.9 2.68-2.69-5.94-18.59-7.68-22.16-.32-.68-.67-1.35-.94-2a2.22 2.22 0 0 0 -2.09.61c-3.79 3.87 2.85 16.47 7.36 21.61zm14.54 12.31c-1.28-2.63-2.9-5.71-4.7-9-.78 4.26-2.73 10.93 1 14.35a2.82 2.82 0 0 0 3.82.32c.93-1.06 1.23-3.13-.13-5.81z"
          fill="#626262" transform="translate(-68.5 -155.3)"/>
    <path d="m422.43 207.26c2.11-2.12 8.73-3 11.19-.54 5.2 5.19 3.13 15.33-1.18 19.69 2.86 3.08 6.16 4.6 8.74 2 4.53-4.53-.56-17.82-3.74-24.82-.62-1.28 1.45-2.11 2-.78 3.5 7.38 9.85 22.79 3.5 29.14-13.52 13.46-28.54-16.67-20.51-24.69zm8.83 17.7c3-3 1.85-10.91-2.63-15.39a1.48 1.48 0 0 0 -2.69.89c-.56 3.91 1.97 10.24 5.32 14.54z"
          fill="#626262" transform="translate(-68.5 -155.3)"/>
    <path d="m299.23 670.52a5.47 5.47 0 0 1 4.33 1.3c4.44 4.46 3.44 16.18 7.88 20.68.24.24.37.49.12.76-1.5 1.5-5.76 2.46-7.7.42-4.51-4.51-1.38-14-5.2-17.85a3.6 3.6 0 0 0 -5-.8l-.37.31c-12.13 12.14 11 56.62 24.62 43a13.69 13.69 0 0 0 3.52-6.28c0-.42.29-.42.68-.29s.62.49.87 1c1.77 3.52 0 7.38-2.69 9.85-21.24 21.21-51.29-30-32.44-48.86 3.48-3.49 7.76-4.87 11.38-3.24z"
          fill="#626262" transform="translate(-68.5 -155.3)"/>
    <path d="m319.66 674.65c3.86-3.89 9.84-4.45 12.65-1.62a32.59 32.59 0 0 1 6.94 10.58 33.89 33.89 0 0 0 -2.46-15.48 1.25 1.25 0 0 1 2.31-.94 35 35 0 0 1 1.9 21.42c1.51 6.15.94 12.31-2.75 15.9-4.51 4.53-11.72 2.71-15-.54-6.2-6.2-11.15-17.55-8.64-25.55a6.5 6.5 0 0 1 5.05-3.77zm13.36 26a21 21 0 0 0 2.83-4.46 39.21 39.21 0 0 0 -9.32-17.35c-4.14-4.14-6.65-2.12-6.45 2.58.37 7.51 7.5 18.14 12.45 20a2.6 2.6 0 0 1 .47-.77z"
          fill="#626262" transform="translate(-68.5 -155.3)"/>
    <path d="m325.29 641.32a16.2 16.2 0 0 1 5.37-2c1.58-.32 2.46.49 2.83 2.31.74 3 2.46 11.47 1 13-3.45 3.7-8.27-7.75-9-10.06-.49-1.57-.64-2.8-.2-3.25zm20 42.66a111.37 111.37 0 0 1 -12.7-22.35 1.75 1.75 0 0 1 0-1.77 11.65 11.65 0 0 1 5.81-2.19c1.21-.17 1.25 1.38 1.7 2.19a149.43 149.43 0 0 0 12.64 22.14c.74 1.11 1.3.54 1.3-.44 0-7.66-4.45-17.85-7.06-23.75a1.24 1.24 0 0 1 .81-1.55 1.23 1.23 0 0 1 1.43.56c2.46 5.81 11.15 25.3 5.76 30.67a5.36 5.36 0 0 1 -7.56-.64 1.15 1.15 0 0 1 -.14-.17 19.55 19.55 0 0 0 -1.95-2.68z"
          fill="#626262" transform="translate(-68.5 -155.3)"/>
    <path d="m359.73 645.09a1.25 1.25 0 0 1 2.31-.94 21.11 21.11 0 0 1 -2.75 17.65 67 67 0 0 1 19.47 20.36 16 16 0 0 1 2.46 7 5 5 0 0 1 -1.94 4.07c-1.51 1.52-5.08 3.2-6.45 1.82a66.78 66.78 0 0 1 -4.93-5.69 242.07 242.07 0 0 1 -28.75-44.53c-1.74-3.76-2.46-6.32-1.87-7 1.18-1.21 7.09-3.82 8-2.88a.66.66 0 0 1 .17.44 11.68 11.68 0 0 0 .25 1.87c1.45 4.92 6.4 14 11.79 22.8a18 18 0 0 0 2.24-14.97zm17.6 39.51a57.65 57.65 0 0 0 -15.53-17.9c4.31 6.45 8.88 12.9 13.83 19 1.75 2.12 2.83 3.05 3.08 2.81s-1.01-3.15-1.38-3.91z"
          fill="#626262" transform="translate(-68.5 -155.3)"/>
    <path d="m372.41 632.44a1.25 1.25 0 0 1 2.31-.94 21.2 21.2 0 0 1 -2.72 17.65 66.49 66.49 0 0 1 19.47 20.36 15.87 15.87 0 0 1 2.47 7 4.92 4.92 0 0 1 -1.95 4.06c-1.5 1.53-5.07 3.2-6.45 1.83a64.94 64.94 0 0 1 -4.92-5.69 241 241 0 0 1 -28.75-44.53c-1.75-3.76-2.46-6.32-1.87-7 1.18-1.19 7.06-3.82 8-2.88a.6.6 0 0 1 .18.44 11.81 11.81 0 0 0 .24 1.87c1.45 4.92 6.4 14 11.79 22.79a17.94 17.94 0 0 0 2.2-14.96zm17.59 39.38a57.87 57.87 0 0 0 -15.53-17.89c4.3 6.45 8.88 12.89 13.83 19 1.75 2.12 2.83 3.06 3.08 2.81s-1-3-1.41-3.77z"
          fill="#626262" transform="translate(-68.5 -155.3)"/>
    <path d="m391.53 637.83a3.06 3.06 0 0 0 -.29-.57c1.94 5.69 2.88 11.28 0 14.08a6.57 6.57 0 0 1 -8.69.2c-.69-.94-1.38-1.75-2.07-2.71a106.24 106.24 0 0 1 -12.72-22.35 1.7 1.7 0 0 1 .12-1.75 11.75 11.75 0 0 1 5.83-2.19c1.13 0 1.26 1.38 1.63 2.27a151.3 151.3 0 0 0 11.34 20.08c1.11 1.75 2.47 2.14 3.06 1.45 3-3-6.33-21.11-8.27-25.05-1-2-2-3.94-2.69-5.84a1.79 1.79 0 0 1 0-1.74 11.67 11.67 0 0 1 5.84-2.2c1.18-.17 1.25 1.38 1.67 2.2a149.43 149.43 0 0 0 12.6 22.15c.74 1.13 1.31.57 1.38-.49 0-7.58-4.53-17.8-7.14-23.68a1.24 1.24 0 0 1 .81-1.55 1.23 1.23 0 0 1 1.43.56c2.46 5.81 11.15 25.28 5.76 30.67a5.41 5.41 0 0 1 -7.62-.71l-.08-.1a13.52 13.52 0 0 0 -1.9-2.73z"
          fill="#626262" transform="translate(-68.5 -155.3)"/>
    <path d="m389.29 605a1.63 1.63 0 0 1 0-1.7 11.57 11.57 0 0 1 5.91-2.27c1.11-.12 1.26 1.38 1.63 2.27a116.45 116.45 0 0 0 6.89 13c-2.59-7.07-5.22-16.34-4.7-21.86a2.31 2.31 0 0 1 .73-1.62 11 11 0 0 1 5.52-2.27c1.62 0 1.75 1.13 1.57 2.32a15.24 15.24 0 0 0 3.82 10.46c1.5 1.65 2.76 1.77 3.45 1.08 2.63-2.63 0-10.17-.69-13.34a1.25 1.25 0 0 1 .94-1.51 1.26 1.26 0 0 1 1.52.94c.88 3.62 3.12 11.15 1.18 15.21a7.64 7.64 0 0 1 -10.27 2.47 21.07 21.07 0 0 1 -4.92-8.4c-.32-.81-.39-.49-.32 0 .81 9 6.94 24.74 10.71 29.12a.89.89 0 0 1 .22 1.24 1.1 1.1 0 0 1 -.22.21c-1.5 1.51-5.64 2.27-7 .94a105.52 105.52 0 0 1 -15.97-26.29z"
          fill="#626262" transform="translate(-68.5 -155.3)"/>
    <path d="m414 578.21c2.46-2.46 9.84-3.4 12.53-.64 5.83 5.83 3.52 17.23-1.31 22 3.2 3.45 6.89 5.15 9.85 2.27 5.07-5.07-.64-19.92-4.21-27.74a1.21 1.21 0 1 1 2.26-.89c3.87 8.39 11 25.5 3.89 32.57-15.23 15.01-32.01-18.63-23.01-27.57zm9.84 19.69c3.4-3.39 2.07-12.3-2.93-17.23-1.32-1.33-2.83-.69-3 1-.59 4.48 2.24 11.55 6 16.32z"
          fill="#626262" transform="translate(-68.5 -155.3)"/>
    <path d="m1544.3 685.88a4.48 4.48 0 0 1 3.57 1.08c3.69 3.67 2.85 13.41 6.52 17.08.22.22.32.42 0 .64a5.27 5.27 0 0 1 -6.38.35c-3.74-3.72-1.13-11.6-4.3-14.77a3 3 0 0 0 -4.12-.7l-.34.28c-10 10 9.11 46.77 20.36 35.57a11.19 11.19 0 0 0 2.9-5.17c0-.37.25-.37.57-.27s.51.42.74.83a7.24 7.24 0 0 1 -2.24 8.13c-17.55 17.57-42.42-24.79-26.83-40.4a8.49 8.49 0 0 1 9.55-2.65z"
          fill="#626262" transform="translate(-68.5 -155.3)"/>
    <path d="m1561.3 689.3c3.2-3.23 8.13-3.69 10.47-1.36a26.74 26.74 0 0 1 5.73 8.77 27.52 27.52 0 0 0 -2.12-12.8 1.05 1.05 0 0 1 .57-1.36 1 1 0 0 1 1.35.57 28.88 28.88 0 0 1 1.56 17.72c1.25 5.07.78 10.09-2.27 13.15a9.11 9.11 0 0 1 -12.31-.45c-5.14-5.14-9.23-14.52-7.16-21.14a5.42 5.42 0 0 1 4.18-3.1zm11 21.49a17.71 17.71 0 0 0 2.46-3.67 32.19 32.19 0 0 0 -7.73-14.35c-3.42-3.42-5.48-1.77-5.31 2.12.29 6.22 6.2 15 10.29 16.51a1.85 1.85 0 0 1 .17-.61z"
          fill="#626262" transform="translate(-68.5 -155.3)"/>
    <path d="m1591.41 688a1 1 0 0 0 -.3-.39c1.65 4.65 2.46 9.3 0 11.64a4.6 4.6 0 0 1 -6.5.31l-.12-.11c-6.32-4.92-12.31-16.81-10-24.62.66-2.46 3.76-3.17 6.57-4.08a3.3 3.3 0 0 0 -.42-.94 1.4 1.4 0 0 1 0-1.45 9.48 9.48 0 0 1 4.92-1.82c1-.15 1 1.16 1.33 1.87a128.71 128.71 0 0 0 10.69 18c.61.93 1.08.46 1.08-.37 0-6.3-3.89-14.55-6.06-19.42a1 1 0 0 1 1.88-.82c2.11 4.93 9.42 20.71 4.92 25.16a4.43 4.43 0 0 1 -6.25-.5 1 1 0 0 0 -.13-.16 17.54 17.54 0 0 0 -1.61-2.3zm-8.54-13.39a16.24 16.24 0 0 1 -.81-1.87 2 2 0 0 0 -1.92.57c-3.57 3.57 2.58 15.21 6.71 20 .52.62 2.29 2.47 3.13 1.78 2.49-2.47-5.44-17.24-7.11-20.44z"
          fill="#626262" transform="translate(-68.5 -155.3)"/>
    <path d="m1592.81 655.9a7.38 7.38 0 0 1 9.43-.52c2.81 2.8 4.36 7.38 3.15 8.54a7.07 7.07 0 0 1 -4.46 1.26c-.76 0-1.08-.79-.81-1.68a8.27 8.27 0 0 0 -.56-5.32c-.84-1.87-1.83-2.33-2.47-1.67-4.35 4.36 6.72 25.28 13.1 18.91 4.6-4.61-.71-16.37-3.47-22.95a1 1 0 0 1 1.87-.71c2.9 6.82 9.43 20.7 3.2 26.93-12.5 12.48-26.02-15.75-18.98-22.79z"
          fill="#626262" transform="translate(-68.5 -155.3)"/>
    <path d="m1613.32 641.91a50.23 50.23 0 0 0 7.21 23 15 15 0 0 0 1.7 2.11.77.77 0 0 1 .19 1.06.73.73 0 0 1 -.19.2c-1.23 1.23-4.56 2.26-5.69 1.13-9.13-9.11-25.89-36.36-23.73-38.52 1-1 5.86-3.15 6.62-2.46a.51.51 0 0 1 .18.37 4.8 4.8 0 0 0 .24 1.5c1.55 5.58 8.49 17.23 14.45 26.14a45.17 45.17 0 0 1 -3-18 2 2 0 0 1 .61-1.33c.79-.79 4.46-2.61 5.44-1.63a2.88 2.88 0 0 1 .42.74 13.46 13.46 0 0 0 .74 1.85 124.73 124.73 0 0 0 10 17.23c.67.89 1.09.69 1.13-.39 0-6.28-3.71-14.77-5.85-19.7a1 1 0 0 1 1.82-.76c2.11 4.8 9.2 20.92 4.77 25.35a4.38 4.38 0 0 1 -6.17-.52l-.15-.19a87.79 87.79 0 0 1 -10.74-17.18z"
          fill="#626262" transform="translate(-68.5 -155.3)"/>
    <path d="m1614.35 613.24a13.64 13.64 0 0 1 4.45-1.68c1.31-.24 2 .42 2.34 1.92.62 2.47 2 9.48.82 10.79-2.83 3.05-6.82-6.43-7.39-8.35-.47-1.4-.57-2.34-.22-2.68zm16.65 35.25a93.31 93.31 0 0 1 -10.55-18.49 1.4 1.4 0 0 1 .13-1.45 9.46 9.46 0 0 1 4.8-1.8c1-.17 1 1.13 1.4 1.8a124.59 124.59 0 0 0 10.41 18.29c.62.93 1.09.46 1.09-.37 0-6.3-3.67-14.77-5.86-19.69a1 1 0 0 1 .69-1.29 1 1 0 0 1 1.18.45c2.11 4.92 9.23 20.92 4.77 25.38a4.44 4.44 0 0 1 -6.27-.55l-.1-.12c-.57-.71-1.13-1.38-1.69-2.16z"
          fill="#626262" transform="translate(-68.5 -155.3)"/>
    <path d="m1629.17 621.31a1.27 1.27 0 0 1 0-1.4 9.39 9.39 0 0 1 4.92-1.87c.94 0 1 1.15 1.33 1.87a104.71 104.71 0 0 0 5.71 10.78c-2.12-5.86-4.31-13.51-3.89-18.09a2 2 0 0 1 .62-1.33c.74-.74 4.4-2.46 5.39-1.55a1.51 1.51 0 0 1 .42.71c.19.62.46 1.21.71 1.87a132.77 132.77 0 0 0 10 17.23c.64.91 1.11.67 1.11-.37 0-6.32-3.69-14.77-5.86-19.69a1 1 0 0 1 1.87-.81c2.12 4.8 9.21 20.92 4.75 25.38a3.93 3.93 0 0 1 -5.55.41l-.18-.17a106.68 106.68 0 0 1 -11.4-18.33c.25 7.21 5.69 21.34 9 25.13.52.51.25.88 0 1.18-1.25 1.25-4.68 1.87-5.76.79a87 87 0 0 1 -13.19-21.74z"
          fill="#626262" transform="translate(-68.5 -155.3)"/>
    <path d="m1665.3 625.15a4.67 4.67 0 0 1 -6.6.31l-.07-.06c-6.27-4.93-12.31-16.89-9.84-24.74a4.55 4.55 0 0 1 2.73-2.76 38.19 38.19 0 0 1 3.84-1.35 8.27 8.27 0 0 1 -.42-.91 1.35 1.35 0 0 1 0-1.4 9.88 9.88 0 0 1 4.92-1.88c.62 0 .89.47 1 1a8.92 8.92 0 0 0 .83 1.77c2.46 4.75 5.32 9.58 7.81 13.51l.37.57a36.7 36.7 0 0 0 -3-16.79c-.56-1.18 1.31-2 1.77-.81a40.1 40.1 0 0 1 3.06 20.55 132.31 132.31 0 0 1 7.14 12.73c2.19 4.68 2.8 8.71-1.24 12.75a5.94 5.94 0 0 1 -4.92 1.7 7.89 7.89 0 0 1 -5.86-7.8c-.32-4 1.23-8.4 1.92-12.19l-3.22-5.68c1.48 4.66 2.07 9.19-.22 11.48zm-4.28-6c.52.62 2.26 2.47 3.1 1.75 2.46-2.46-5.49-17.23-7.09-20.45-.32-.62-.64-1.23-.88-1.8a2 2 0 0 0 -1.92.57c-3.52 3.52 2.63 15.16 6.79 19.93zm13.46 11.3c-1.2-2.46-2.7-5.29-4.35-8.29-.74 3.94-2.46 10.09.93 13.27a2.62 2.62 0 0 0 3.52.29c.89-.89 1.13-2.81 0-5.27z"
          fill="#626262" transform="translate(-68.5 -155.3)"/>
    <path d="m1520 350.52c.93-.93 5.31-2.88 6-2.16a.48.48 0 0 1 .14.34 4.25 4.25 0 0 0 .25 1.36c1.35 4.92 7.24 15.08 12.6 23.08a176.92 176.92 0 0 1 -7.7-16.59 37 37 0 0 1 -2.83-11.29 7.38 7.38 0 0 1 2-5.57c7-7 17.23 8.47 14.94 18.88a9.1 9.1 0 0 1 5.32.72c6.54 3.34 11.49 15.18 4.28 22.37a6.51 6.51 0 0 1 -5.17 2.09c-1.53 0-2.73-2.09-1.38-1.94a3.71 3.71 0 0 0 3.25-1.18c5.34-5.32-4.18-21.62-8-17.85a6.49 6.49 0 0 1 -2.68 2.46 2.44 2.44 0 0 1 -2.46-.64c-.28-.66.56-2.16 1.37-3 2.17-7.63-4.77-21.71-8.59-17.89-1.4 1.4-.74 5.93 1.7 12.16a186.25 186.25 0 0 0 13.86 27.22 1.1 1.1 0 0 1 -.3 1.5c-1.13 1.14-4.13 2.07-5.16 1-7.85-7.97-23.44-33.07-21.44-35.07z"
          fill="#626262" transform="translate(-68.5 -155.3)"/>
    <path d="m1567 354.34a1 1 0 0 0 -.27-.37c1.5 4.23 2.17 8.49 0 10.61a4.22 4.22 0 0 1 -6 .25l-.08-.08c-5.76-4.5-11.27-15.31-9.11-22.47.62-2.29 3.45-2.86 6-3.72a2.43 2.43 0 0 0 -.37-.84 1.23 1.23 0 0 1 0-1.33 8.74 8.74 0 0 1 4.39-1.65c.88-.14.93 1 1.23 1.7a114.5 114.5 0 0 0 9.69 16.4c.57.86 1 .42 1-.32 0-5.76-3.52-13.25-5.51-17.68a.93.93 0 0 1 1.69-.76c1.95 4.38 8.59 18.86 4.53 22.92a4 4 0 0 1 -5.68-.5l-.1-.12a13.32 13.32 0 0 0 -1.41-2.04zm-7.79-12.34c-.27-.55-.52-1.12-.74-1.7a1.77 1.77 0 0 0 -1.74.52c-3.25 3.25 2.46 13.86 6.13 18.19.46.57 2.06 2.34 2.83 1.6 2.31-2.16-4.95-15.61-6.48-18.61z"
          fill="#626262" transform="translate(-68.5 -155.3)"/>
    <path d="m1555.69 314.81c.94-.94 5.32-2.86 6-2.17a.56.56 0 0 1 .15.35 5.22 5.22 0 0 0 .22 1.35 92.54 92.54 0 0 0 10.14 19.17 41 41 0 0 1 -1.84-6.54 5.19 5.19 0 0 1 8.81-5.42 26 26 0 0 1 5.88 11 23.31 23.31 0 0 0 -1.77-13 .93.93 0 0 1 1.72-.71 26.23 26.23 0 0 1 1 17.87c.59 4.38.27 8.27-1.42 9.85a4.44 4.44 0 0 1 -2.47.81c.27.27.89.71.23 1.35-1.14 1.13-4.14 2.09-5.17 1-7.87-7.72-23.45-32.92-21.48-34.91zm18.51 18.9a38.82 38.82 0 0 0 5.62 11 22 22 0 0 0 2.46-3.72 33.46 33.46 0 0 0 -7.56-15.19c-1.4-1.5-2.68-1.08-2.29 1a63.22 63.22 0 0 0 1.77 6.91z"
          fill="#626262" transform="translate(-68.5 -155.3)"/>
    <path d="m1589.05 304.64a9 9 0 0 1 4.43-1.7c.51 0 .78.42.93.94a12.68 12.68 0 0 0 .72 1.65c2.31 4.3 4.92 8.69 7.16 12.3l.32.52a34.14 34.14 0 0 0 -2.73-15.26c-.52-1.08 1.18-1.85 1.6-.76a36.34 36.34 0 0 1 2.78 18.7 101.7 101.7 0 0 1 6.45 11.65c2 4.18 2.61 7.87-1.11 11.59a5.23 5.23 0 0 1 -4.53 1.5 7.4 7.4 0 0 1 -5.37-7.06 47.69 47.69 0 0 1 1.78-11.13c-1-1.7-2.12-3.35-3.2-5.07 1.5 4.23 2.16 8.37 0 10.49a4.93 4.93 0 0 1 -6.55.14c-.52-.71-1-1.35-1.55-2a84.75 84.75 0 0 1 -9.58-16.82 1.46 1.46 0 0 1 0-1.32 8.74 8.74 0 0 1 4.38-1.65c.89-.15.94 1 1.28 1.65a115.93 115.93 0 0 0 8.47 15.16c.86 1.33 1.8 1.6 2.46 1 2-2-3.34-13.22-5.51-17.65-.17-.29-.32-.61-.52-.91a34.13 34.13 0 0 1 -2.16-4.6 1.2 1.2 0 0 1 .05-1.36zm17.82 33c-1.11-2.21-2.46-4.92-4-7.53-.66 3.57-2.46 9.23.84 12.06a2.45 2.45 0 0 0 3.2.27c.81-.78 1.13-2.48-.07-4.8z"
          fill="#626262" transform="translate(-68.5 -155.3)"/>
    <path d="m1606.1 317a5.65 5.65 0 0 1 1.51-4.93c.91-1.18 2-2.26 2.68-3.34-3.25-2.46-8.25-.91-11.87-4.53a7 7 0 0 1 .25-9.89l.12-.11a6.9 6.9 0 0 1 8 .25c1 1 1.7 3.77 1 4.43-1 1-3.2 1.77-3.67 1.31a.34.34 0 0 1 0-.28c.79-.81.18-2.73-.71-3.61s-1.28-.82-1.8-.3c-1.18 1.18.35 3.72 1.19 4.58 2.46 2.46 6.84 1.72 9.84 2.85a15.63 15.63 0 0 0 -1.5-11.56c-.57-1.06 1.08-1.85 1.65-.82a17.26 17.26 0 0 1 1.55 13.25c4.7 3.57 2.73 10.56-.91 14.17-2.9 2.96-6.66 1.63-7.33-1.47zm2.22-2.88a2 2 0 1 0 3.47 1.87 7 7 0 0 0 -.17-5.93c-.77 1.23-2.51 2.68-3.3 4.06z"
          fill="#626262" transform="translate(-68.5 -155.3)"/>
    <path d="m1615.75 267.57c.3.57.57 1.23.91 1.82a12.07 12.07 0 0 1 4.14-3 6.75 6.75 0 0 1 2.46 1.4 1.1 1.1 0 0 1 .37.67l-.15.14a23.84 23.84 0 0 0 -5.14 4 195.22 195.22 0 0 0 13 20.53c1 1.18 1.35 1.18 1.3-.28a58.43 58.43 0 0 0 -4.55-18.14.91.91 0 1 1 1.53-1 1.11 1.11 0 0 1 .12.27c1.92 4.38 7.38 20 3.62 23.88-2.64 2.65-5.37-.27-7.07-2.24-.51-.62-1-1.23-1.6-2 1.55 5.15 2.46 10.41.27 12.63a4.07 4.07 0 0 1 -5.72-.53l-.06-.09c-.52-.68-1-1.3-1.55-2a82.28 82.28 0 0 1 -9.58-16.91 1.23 1.23 0 0 1 0-1.28 9.59 9.59 0 0 1 4.38-1.75c.92 0 .94 1.13 1.24 1.7a113.92 113.92 0 0 0 9.55 16.73c.56.84 1 .42 1-.44a38.67 38.67 0 0 0 -3.39-13.27c-2.46-3.54-4.93-7.38-7.07-11-.34.42-.66.74-1 1.08-2 2-4.92 3.57-7.21 1.18a14.76 14.76 0 0 1 -3-5.71c-.42-1.35-.52-2.21-.22-2.46a12 12 0 0 1 4.08-1.55c1.18-.25 1.75.42 2.12 1.72a46.18 46.18 0 0 1 1.08 6.18c.86-1 1.7-2.07 2.46-3.1a52.13 52.13 0 0 1 -2.46-4.68c-.61-1.55-.79-2.68-.37-3.1.94-.94 4.93-2.58 5.74-1.9a.58.58 0 0 1 .15.35 1 1 0 0 0 0 .42 3.89 3.89 0 0 0 .62 1.73z"
          fill="#626262" transform="translate(-68.5 -155.3)"/>
    <path d="m1624.93 258.46c.3.67.62 1.28 1 1.9a10.9 10.9 0 0 1 4.09-3c.42-.12 2 .86 2.46 1.33s.37.47.32.71l-.15.13a21.09 21.09 0 0 0 -4.92 4 189.05 189.05 0 0 0 13 20.5c.93 1.13 1.33 1.13 1.28-.24a58.62 58.62 0 0 0 -4.58-18.14.93.93 0 0 1 .65-1.15.92.92 0 0 1 1 .41c1.92 4.38 7.38 20 3.57 23.82-2.64 2.64-5.32-.22-7-2.21a153.09 153.09 0 0 1 -12.3-18.19l-1 1.06c-.91.88-2.93 3-4.68 2.19-.51-.22-.61-.52-.14-1a49.43 49.43 0 0 0 4.21-4.92 39 39 0 0 1 -2.47-4.65c-.64-1.6-.78-2.69-.36-3.1.93-1 4.92-2.66 5.76-1.9a.59.59 0 0 1 0 .37v.34a4.28 4.28 0 0 0 .26 1.74z"
          fill="#626262" transform="translate(-68.5 -155.3)"/>
    <path d="m1628.63 245.47a11.91 11.91 0 0 1 4-1.5c1.18-.25 1.8.36 2.12 1.74.57 2.27 1.85 8.62.76 9.85-2.46 2.78-6.22-5.86-6.74-7.58-.39-1.33-.49-2.17-.14-2.51zm15.11 32a84.07 84.07 0 0 1 -9.55-16.84 1.47 1.47 0 0 1 0-1.31 8.6 8.6 0 0 1 4.38-1.64c.91-.15 1 1 1.28 1.64a111.38 111.38 0 0 0 9.48 16.62c.56.86 1 .44 1-.32 0-5.76-3.35-13.44-5.31-17.85a.92.92 0 0 1 .58-1.18.93.93 0 0 1 1.11.42c1.92 4.38 8.37 19 4.34 23.09a4.07 4.07 0 0 1 -5.73-.51 1 1 0 0 1 -.08-.11c-.45-.61-1-1.23-1.48-1.92z"
          fill="#626262" transform="translate(-68.5 -155.3)"/>
    <path d="m1642.09 252.83a1.15 1.15 0 0 1 0-1.28 8.64 8.64 0 0 1 4.43-1.7c.84 0 .94 1 1.23 1.7a96 96 0 0 0 5.17 9.84c-1.92-5.31-3.91-12.31-3.52-16.44a1.76 1.76 0 0 1 .57-1.23c.64-.64 4-2.29 4.92-1.4a1.66 1.66 0 0 1 .37.66c.2.57.42 1.08.66 1.7a115.85 115.85 0 0 0 9.14 15.73c.56.83 1 .61 1-.32 0-5.76-3.35-13.44-5.32-17.87a.94.94 0 0 1 .66-1.15.92.92 0 0 1 1 .41c1.92 4.38 8.4 19 4.33 23.09a3.57 3.57 0 0 1 -5 .39l-.18-.17a98.65 98.65 0 0 1 -10.39-16.67c.25 6.55 5.19 19.4 8.17 22.85.47.47.22.79 0 1.08-1.13 1.13-4.26 1.7-5.24.71a79 79 0 0 1 -12-19.93z"
          fill="#626262" transform="translate(-68.5 -155.3)"/>
    <path d="m1675 256.32a4.3 4.3 0 0 1 -6.06.25c-5.71-4.58-11.2-15.36-9-22.52a4 4 0 0 1 2.46-2.46 36.3 36.3 0 0 1 3.5-1.23 7.34 7.34 0 0 1 -.39-.86 1.19 1.19 0 0 1 0-1.26 9 9 0 0 1 4.43-1.7c.56 0 .81.42.93.94a8.38 8.38 0 0 0 .76 1.6c2.27 4.33 4.93 8.71 7.12 12.31l.34.51a33.87 33.87 0 0 0 -2.73-15.26.89.89 0 0 1 1.6-.76 36.26 36.26 0 0 1 2.76 18.71 115.46 115.46 0 0 1 6.52 11.59c2 4.23 2.46 7.9-1.13 11.59a5.42 5.42 0 0 1 -4.58 1.55 7.21 7.21 0 0 1 -5.32-7.11 45.25 45.25 0 0 1 1.75-11.08l-2.96-5.13c1.48 4.09 2 8.23 0 10.32zm-3.92-5.36c.47.56 2.07 2.46 2.83 1.62 2.27-2.26-4.92-15.65-6.45-18.63-.29-.57-.56-1.14-.81-1.65a2 2 0 0 0 -1.75.51c-3.22 3.19 2.4 13.74 6.16 18.19zm12.31 10.28c-1.08-2.21-2.46-4.92-4-7.55-.67 3.59-2.32 9.2.83 12.06a2.46 2.46 0 0 0 3.23.29c.74-.88.91-2.63-.15-4.87z"
          fill="#626262" transform="translate(-68.5 -155.3)"/>
    <path d="m1845.83 389.91s-41.23-24.35-32.15-70.52 60.23-45.66 67.42-8.05c0 0 9.06 50.11-30.32 78.57l4.55 4.53a10.09 10.09 0 0 1 -7.39 4.53 14.28 14.28 0 0 1 -7.82-2.47z"
          fill="none" stroke="#727272" stroke-linecap="round" stroke-linejoin="round"
          transform="translate(-68.5 -155.3)"/>
    <path d="m1847.9 399s-17.23 24.73-2.47 46.59 23.49 23.09 23.9 33.4-20.79 14-22.15 28.46 21.34 11.54 22.15 22.28-26.8 12.77-26.38 26.8"
          fill="none" stroke="#727272" stroke-linecap="round" stroke-linejoin="round"
          transform="translate(-68.5 -155.3)"/>
    <path d="m1858.82 288.89c10.74 0 19.43 17.82 19.43 39.78s-8.69 39.8-19.43 39.8-19.37-17.82-19.37-39.8 8.69-39.78 19.42-39.78"
          fill="#00a6c4" opacity=".46" transform="translate(-68.5 -155.3)"/>
    <ellipse cx="1724.65" cy="831.55" fill="none" rx="35.17" ry="11.89" stroke="#626262" stroke-linecap="round"
             stroke-linejoin="round"/>
    <path d="m1790.54 693v292.09s6 3.7 9.68 0 0-292.15 0-292.15" fill="#fff" stroke="#626262" stroke-linecap="round"
          stroke-linejoin="round" transform="translate(-68.5 -155.3)"/>
    <path d="m1763.37 602.26-21.2 80.64 16.62 6 35 4.16 31.33-1.85 22.16-4.92-19.7-84.06s-35.19-9.23-64.21.03z"
          fill="none" stroke="#626262" stroke-linecap="round" stroke-linejoin="round"
          transform="translate(-68.5 -155.3)"/>
    <path d="m1743.7 457.5 11.89 72.42" fill="none" stroke="#626262" stroke-linecap="round" stroke-linejoin="round"/>
    <path d="m1725.27 457.5-2.88 72.42" fill="none" stroke="#626262" stroke-linecap="round" stroke-linejoin="round"/>
    <path d="m1707.1 457.5-13.34 67.34" fill="none" stroke="#626262" stroke-linecap="round" stroke-linejoin="round"/>
    <path d="m1835.34 687.85a3.89 3.89 0 0 0 5-2.26 4.13 4.13 0 0 0 .15-.5c1.26-3.52.32-8.76-.44-13.61-2.22-13.64-4.93-27.3-8.47-40.77-1.65-6.44-3.4-13-5.39-19.27-1.5-4.8-3.45-7.75-6.06-8.61a11.34 11.34 0 0 0 -1.62-.42c-3.57-2-7.38 0-10.44.54h-.22a10.3 10.3 0 0 0 -1.75.12c-3.52.12-7.92 0-8.83 6.08a74.83 74.83 0 0 0 .81 24.62l.52 2.19c2 11.42 4.11 30.42 6.67 41.84 1.65 7.39-1.6 9.26 2.46 11.84.69 1.13 1.52 1.87 2.31 1.68l24.86-3.57z"
          fill="#00a6c4" opacity=".46" transform="translate(-68.5 -155.3)"/>
    <path d="m1749.64 541.44v50.82" fill="none" stroke="#626262" stroke-linecap="round" stroke-linejoin="round"/>
    <g transform="translate(-68.5 -155.3)">
        <path d="m1601.06 796c-6 1.38-6.65 1.43-9-4.3s-3.74-11.75-5.66-17.6a6.57 6.57 0 0 0 -1.89-3.18 12.77 12.77 0 0 1 -4.93-12.48 12.53 12.53 0 0 1 10.42-10.12 4.62 4.62 0 0 0 2.66-1.05 100.11 100.11 0 0 0 8.59-10.79c6-9.52 13.78-17 24.61-20.72a38.36 38.36 0 0 1 23.64-.74 58.8 58.8 0 0 1 22.15 13.29 5.9 5.9 0 0 0 5.61 2 11.15 11.15 0 0 1 11 4.38c5.41 6.13 6.55 18.17 1.7 24.91a57.06 57.06 0 0 1 -8.54 7.83c36.92 42.41 47.23 93.34 43.81 147.49 8.74-1.52 17.4-3.42 26.17-4.48 8.36-1 16.73-1.5 24.61 3 3.2 1.85 4.6 4.09 3.47 7a37.57 37.57 0 0 1 -6.47 11.57 55.65 55.65 0 0 1 -25.68 16.12c-11.66 3.52-23.18 7.39-35.59 7.39-.74 0-1.5.73-2.21 1.2-5.74 3.74-11.11 8.32-17.24 11.1a185.71 185.71 0 0 1 -56.61 15.86c-8.32.86-17.06 1.94-24.61-1.78a31.3 31.3 0 0 0 -20.07-2.46 9.23 9.23 0 0 1 -10.43-6.23c-1.33-3.81-.35-7.38 4.26-10.33a146 146 0 0 1 16-7.88c5.07-2.46 10.22-4.68 15.31-7 1.75-.78 1.9-1.84 1-3.49a41.4 41.4 0 0 1 -3.79-7.88c-3.11-10.8-6.43-21.56-8.72-32.54a160 160 0 0 1 -1.77-21.76 8.37 8.37 0 0 1 .52-2.14c2.46 13.71 4.18 27.32 7.38 40.61s10.66 25.31 19.5 35.77c8.09-3 12.6-9.06 16.73-15.58l1.36 1.11a74.31 74.31 0 0 1 -5.91 9c-4.7 5.39-11.22 8.17-17.57 11.1-3.57 1.65-7.39 3-10.76 4.92a8 8 0 0 0 -4.92 8.81c.86 4 4.28 4.63 7.5 5.17a73.73 73.73 0 0 0 28.88-1.08 215 215 0 0 0 44.59-15.02 44.75 44.75 0 0 0 25-30.33 123.88 123.88 0 0 0 3.2-15.5c1-6.67 1.89-13.37 2.26-20.09a132.66 132.66 0 0 0 -1.5-33.3c-2-10.14-3.08-20.48-5.24-30.57a140.13 140.13 0 0 0 -15.83-39.39c-4.55-8-9.55-15.78-14.77-23.31-4.09-5.83-4.43-5.61 1.38-9.84s7.75-12.63 4.63-20.51a11.78 11.78 0 0 0 -14-6.64 4.93 4.93 0 0 1 -3.77-1.31c-3.35-2.81-6.38-6-9.85-8.79-18.19-14.91-40.64-10.46-54.74 7.22-4.18 5.21-7.83 10.87-11.84 16.51 5.34 4.19 6.45 9.85 4.26 16.59-1.72 5.32-5.49 7.39-10.91 7.39a7.71 7.71 0 0 0 6 7.38c8.39 2.46 16 1.55 21.36-6.69a49.19 49.19 0 0 1 -8 11.17c-3.11 3-7.09 5.29-4 10.68a17.68 17.68 0 0 0 -2.74.33zm-6.45 164.13a25.45 25.45 0 0 0 -8.1 6.85c-1.28 1.55-2.46 5.07-1.48 6.23a13.07 13.07 0 0 0 6.77 3.44 16 16 0 0 0 5.34-.34 6 6 0 0 0 5.74-4 15.1 15.1 0 0 1 6.67-6.2c5.29-2.85 10.93-5.09 16.64-7.68l-6.33-9c-8.81 3.67-17.18 6.86-25.25 10.7zm6.2-170.06a15.52 15.52 0 0 1 -.52-3.32c-.14-3.23-1.94-3.89-5.36-3.13l1.72 10.59c3.6.19 4.95-1.11 4.16-4.14zm-18.24-30.87c5.15-1.69 6.13-4.3 2.83-7.7zm7.39 21.47 3.25 9.84 1-.32c-2.19-2.7 1.13-7.16-4.26-9.4z"
              fill="#626262"/>
        <path d="m1669.36 832.48c-4 3.65-8.14 7.19-12 11a96.26 96.26 0 0 1 -60.24 27.52c-13.81 1.25-27.27-2.31-39.93-8.2-3-1.43-5.9-3.25-8.88-4.92a26.89 26.89 0 0 0 -2.61-1.06l-.69 1a36.75 36.75 0 0 0 4.92 3.87 90.71 90.71 0 0 0 116.87-23.38 52.63 52.63 0 0 0 3.35-5.44z"
              fill="#626262"/>
        <path d="m1633.4 823.5c-2.73 3.27-5.51 6.52-8.2 9.84-13.19 16.13-30.59 20-50.14 16.69-6-1.06-10.19-5.9-14.15-10.43-.86-1-1.6-2.15-2.46-3.35-2.46 1.25-2.07 2.9-.91 4.68a33.55 33.55 0 0 0 34.14 14.2 64.22 64.22 0 0 0 24.42-10.13c7.38-4.92 12.55-12.16 17.42-19.52a4.89 4.89 0 0 0 .42-1.55z"
              fill="#626262"/>
        <path d="m1536.17 818.92a27.43 27.43 0 0 0 17.53 13.46 35.24 35.24 0 0 0 30.74-5.73 53.53 53.53 0 0 0 14.13-13.29 2.09 2.09 0 0 0 .17-2c-1.33 1.33-2.65 2.66-3.93 4a51 51 0 0 1 -21.42 14.25c-12.87 4-23.85 0-33.65-8.52l-2.26-2a6.44 6.44 0 0 0 -1.31-.17z"
              fill="#626262"/>
        <path d="m1527.63 834.77a12.38 12.38 0 0 0 1.95 3.28c4.5 3.86 9.05 7.65 13.78 11.22.84.64 3.32.66 3.72 0 1.25-1.87-.64-2.46-2-3.37-4.73-3.15-9.36-6.45-14-9.85a33 33 0 0 1 -2.61-2.26z"
              fill="#626262"/>
        <path d="m1609.48 785.94a8.6 8.6 0 0 0 5.24 7.16 44.2 44.2 0 0 0 4.7 1.87l13.12 5.66a13.13 13.13 0 0 0 -9.43-7.09 22.54 22.54 0 0 1 -11.47-6.62 8.32 8.32 0 0 0 -2.16-.98z"
              fill="#626262"/>
        <path d="m1678.52 758.81a22.12 22.12 0 0 0 1.35-19.37c-4.4 6.47-2.26 12.95-1.35 19.37z" fill="#626262"/>
        <path d="m1527.66 801.15c2-.57 3.15-1.77 1.92-3.65-3.67-5.61-7.54-11.1-11.38-16.59 0-.19-.56-.17-1.64-.41z"
              fill="#626262"/>
        <path d="m1621.86 756.45c2-2.14 3.62-4.93 6.05-6.26s5.79-1 8.67-1.35c-2.46-3-8.5-3.1-12.11-.15s-4.53 5.49-2.61 7.76z"
              fill="#626262"/>
        <path d="m1548.26 832.83-16.79-10.19c1.87 5.56 10.76 11.2 16.79 10.19z" fill="#626262"/>
        <path d="m1562.22 849.71-12.31-10.61c-.74 5.42 6.15 11.55 12.31 10.61z" fill="#626262"/>
        <path d="m1502.23 798.86 13.27 11.14c1.62-1.92 2.46-3.44-.37-4.92-4.14-2.14-8.25-4.4-12.31-6.6z"
              fill="#626262"/>
        <path d="m1526.7 829c2.46 4.92 11.52 9.06 15.63 6.72z" fill="#626262"/>
        <path d="m1549.19 848.93a12.05 12.05 0 0 0 12.16 7.38l.47-.91z" fill="#626262"/>
        <path d="m1544.64 789.31-1 15.53h1.85c1.1-5.12 0-10.31 0-15.46z" fill="#626262"/>
        <path d="m1619.86 949.45c-8.81 3.67-17.23 6.84-25.25 10.68a25.45 25.45 0 0 0 -8.1 6.85c-1.28 1.55-2.46 5.07-1.48 6.23a13.07 13.07 0 0 0 6.77 3.44 16 16 0 0 0 5.34-.34 6 6 0 0 0 5.74-4 15.1 15.1 0 0 1 6.67-6.2c5.29-2.85 10.93-5.09 16.64-7.68z"
              fill="#fff"/>
        <path d="m1596.65 794.21c3.6.19 4.92-1 4.16-4.14a15.52 15.52 0 0 1 -.52-3.32c-.14-3.23-1.94-3.89-5.36-3.13z"
              fill="#fff"/>
        <path d="m1585.4 751.5-2.83 7.7c5.15-1.69 6.13-4.3 2.83-7.7z" fill="#fff"/>
        <path d="m1594.17 790.14c-2.17-2.65 1.15-7.11-4.24-9.47l3.25 9.84z" fill="#fff"/>
        <path d="m1747.81 941.08s-1.89-16.14-15.51-23.55" fill="none" stroke="#fff" stroke-linecap="round"
              stroke-linejoin="round" stroke-width=".5"/>
        <path d="m1737 945.14s-1.89-16.14-15.51-23.55" fill="none" stroke="#fff" stroke-linecap="round"
              stroke-linejoin="round" stroke-width=".5"/>
        <path d="m1761.33 939.21s-2.47-18.26-19.25-26.43" fill="none" stroke="#fff" stroke-linecap="round"
              stroke-linejoin="round" stroke-width=".5"/>
        <path d="m1767.5 913.51s-25.28-1.64-51.69 19.55" fill="none" stroke="#fff" stroke-linecap="round"
              stroke-linejoin="round" stroke-width=".5"/>
        <path d="m1771.27 919.69s-24.62-1.1-50.78 20.83" fill="none" stroke="#fff" stroke-linecap="round"
              stroke-linejoin="round" stroke-width=".5"/>
        <path d="m1769.57 928s-19.69-.71-39.9 16.08" fill="none" stroke="#fff" stroke-linecap="round"
              stroke-linejoin="round" stroke-width=".5"/>
        <path d="m1765.41 929.71s-1.55-13-12.87-18.88" fill="none" stroke="#fff" stroke-linecap="round"
              stroke-linejoin="round" stroke-width=".5"/>
        <path d="m1728.29 948s-1.55-13-12.9-18.88" fill="none" stroke="#fff" stroke-linecap="round"
              stroke-linejoin="round" stroke-width=".5"/>
        <path d="m1458.06 896.48c7.75-.76 15.11-1.77 22.5-2.14a33.18 33.18 0 0 1 20.35 4.92c9 5.89 8.1 15.41 1.58 22.16-7.39 7.8-17.55 11.15-27.69 14a115.11 115.11 0 0 1 -42.09 4.18 8.39 8.39 0 0 0 -4.61.64c-10 5.56-21 5.22-32 5.81-9.84.54-19.69 1-29.68 1.28-7.09.17-14.2-.2-21.29-.2-4.39 0-8.64.32-12.85-1.74-5.91-2.91-7.12-8-2-12.11a31.27 31.27 0 0 1 10.19-4.93c6.33-1.94 12.9-3.15 19.3-4.92a41.44 41.44 0 0 0 18.81-11.52c.93-1 2-1.77 3-2.63l1.21 1a69.13 69.13 0 0 1 -9 10.63c-9.43 7.58-21.54 8.54-32.62 12a7.31 7.31 0 0 0 -3.59 1.62 10.11 10.11 0 0 0 -2.81 5.66c.12 2.73 3.08 2.46 5.17 2.46 8.86 0 17.75 0 26.63-.19 9.85-.27 19.55-.77 29.32-1.33 6.3-.35 12.55-1.14 18.86-1.43 6.79-.32 11.52-4.43 16.44-8.3.61-.46 1.08-1.13 1.7-1.62 15.85-12.31 20.16-29.54 20-48.32a244.87 244.87 0 0 0 -3.1-39.65 330.05 330.05 0 0 0 -9.84-37.52c-4.68-16.05-13.89-29.68-24.32-42.46a101.65 101.65 0 0 0 -10.91-10c-1.57-1.4-3.3-2.71-4.75-4.23-.47-.52-.32-1.6-.44-2.47.74 0 1.65-.39 2.14 0a69.29 69.29 0 0 1 12 8 132.53 132.53 0 0 1 23.39 32 174.41 174.41 0 0 1 16.66 40.86c5.88 22.72 8.22 45.64 4.23 68.93a11 11 0 0 0 .11 1.56z"
              fill="#626262"/>
        <path d="m1303.77 918.39c-1.08-3-2-5.66-3-8.25a86.92 86.92 0 0 1 -4.4-45.17 125.31 125.31 0 0 1 4.92-17.4c.3-.93 1.58-1.55 2.46-2.31.22 1.11.84 2.31.57 3.3-7.39 26.46-3.57 51.69 8.37 76.06a6.31 6.31 0 0 1 1 2.11 7.91 7.91 0 0 1 -.54 2.46 7 7 0 0 1 -2.29-.93c-.81-.76-1.18-2-2-2.71s-2.46-2.31-3.49-2.26c-5.59.27-11.27.54-16.17 3.84a5.57 5.57 0 0 0 -2.46 6.1 5.38 5.38 0 0 0 5.41 4.92c8.86 0 17.75.18 26.61.35a14.66 14.66 0 0 1 3.27.76l.2 1.13a12.39 12.39 0 0 1 -3.54 1.73c-7.59.91-15.17 2-22.77 2.24a40.38 40.38 0 0 1 -11.84-2.05 9.85 9.85 0 0 1 -7.39-8.66 11.27 11.27 0 0 1 6.62-10.17c5.64-1.79 11.5-3 17.23-4.38.77-.17 1.66-.34 3.23-.71z"
              fill="#626262"/>
        <path d="m1286.69 834.62a42 42 0 0 1 5.24 1.78c12.51 6.27 26.1 7.6 39.71 7.85a142.73 142.73 0 0 0 26.51-2.09 60.6 60.6 0 0 0 37.85-21.16c7.13-8.72 11.24-19.15 14.44-29.89.37-1.28 0-3.24 2.47-2.65 2.06.49 2.26 2 1.87 3.66a84.53 84.53 0 0 1 -2.86 10.74 68.45 68.45 0 0 1 -34.46 37.48c-10.78 5.42-22.45 7.09-34.61 7.39a173.14 173.14 0 0 1 -40.54-3.87 78 78 0 0 1 -14.23-5.76c-.86-.36-1.35-1.52-2-2.33z"
              fill="#626262"/>
        <path d="m1402.23 737.32a29.29 29.29 0 0 0 8.47-19.3c.47-6.86-3.22-11.64-8.52-15.09a8.15 8.15 0 0 0 -9.52.64 11.59 11.59 0 0 1 -14.25 1 42.27 42.27 0 0 0 -14.26-4.92 75.66 75.66 0 0 0 -36.92 3.71c-7.9 2.71-11.54 9.58-14.94 16.52-.44 1-.86 1.92-1.3 2.9l-1-.29a30.39 30.39 0 0 1 1.28-5.57 33.23 33.23 0 0 1 20-18.33 76 76 0 0 1 27.94-3.45 70.6 70.6 0 0 1 22.4 4.36 4.21 4.21 0 0 0 3.37-.49 18.28 18.28 0 0 1 28 13.68 28.42 28.42 0 0 1 -5.29 20.75 43.34 43.34 0 0 1 -4.61 4.58z"
              fill="#626262"/>
        <path d="m1322.8 748.79c-6.69 0-11.17-5.07-11-12.31a13.85 13.85 0 0 1 13-13c6.37 0 10.8 5.61 10.66 13.39a12.58 12.58 0 0 1 -12.66 11.92zm9.08-16.76c-2.85 2.46-2.85 3.79 0 5.59z"
              fill="#626262"/>
        <path d="m1347.49 756.45c0 4.16 0 8.24-2.46 12-1.85 2.66-3.25 5.61-5.15 8.22a6.62 6.62 0 0 1 -3.74 2.86c-5.14.59-10.31.73-15.51.93-3.15 0-11.39-9.06-11.12-12.31a4.45 4.45 0 0 1 .32-.93 38.66 38.66 0 0 0 6.15 4.13 6 6 0 0 0 7-1.05c-3-5.64-5.66-11.33-2.46-18.47.79 3.6 1.31 6.6 2.09 9.51 1.78 6.54 4.93 9.08 11.5 9.35 4.38.17 8.32-2.93 10.36-8.27.79-2.07 1.38-4.21 2-6.3zm-19.27 18.36v1.35l6.17-.34v-1z"
              fill="#626262"/>
        <path d="m1295.11 808.75a26.23 26.23 0 0 1 -11.37-1c-.67-.25-.94-1.53-1.41-2.34.91 0 1.9-.54 2.66-.27 9.7 3.3 17.23-.44 23.48-7.38a48.73 48.73 0 0 0 5.12-6.26c1.36-2 4.36-2.88 4.58-1a4.42 4.42 0 0 1 -1.06 3.48c-.71.94-11.2 13.15-22 14.77z"
              fill="#626262"/>
        <path d="m1303.9 739.61c-.21 1.15-.47 2.3-.79 3.42-3.77 11.37-1.5 21.69 5.34 31.29.54.76.2 2.14.27 3.22-1.13 0-2.71.2-3.27-.42a19.41 19.41 0 0 1 -3.25-5c-4.93-10-6.11-20.19-.94-30.5a15.52 15.52 0 0 1 1.8-2.46z"
              fill="#626262"/>
        <path d="m1402.23 728.31a27.26 27.26 0 0 1 -2.46-1.67c-.34-.25-.49-.76-.84-1.06-3.15-2.61-4.92-5.29-2.78-9.72.81-1.75-.66-4.51-.93-6.82a7.55 7.55 0 0 1 .51-2.34c.64.27 1.58.39 1.85.86 3.08 5.49 6.08 11.05 6 17.63a11.17 11.17 0 0 1 -1.35 3.12z"
              fill="#626262"/>
        <path d="m1300.67 836.64c-4.28-2-8.49-3.74-12.55-5.88-.79-.42-.86-2.14-1.28-3.27a10.5 10.5 0 0 1 3.35.24c3.76 1.65 7.38 3.47 11.12 5.34.74.37 1.21 1.31 1.77 2z"
              fill="#626262"/>
        <path d="m1279.58 824.53c-3.35-1.45-6.53-2.76-9.58-4.26-.54-.27-.66-1.42-1-2.19a6.59 6.59 0 0 1 2.68-.71 66.93 66.93 0 0 1 8.71 2.21c1.09.37 1.87 1.63 2.79 2.47z"
              fill="#626262"/>
        <path d="m1287.8 818.25 15.46 7.86-.59 1.35a23.15 23.15 0 0 1 -13.81-5.09c-1-.74-1.31-2.34-1.95-3.55z"
              fill="#626262"/>
        <path d="m1277.39 826.57c-3.5 3.87-12.75 2.22-16.47-2.46.79-.42 1.62-1.23 2.24-1.08 4.58.97 9.16 2.24 14.23 3.54z"
              fill="#626262"/>
        <path d="m1272.76 811.46a15.93 15.93 0 0 1 2.93 0 51.13 51.13 0 0 1 6.1 1.48 14.94 14.94 0 0 1 2.86 1.62c-.94.79-1.77 2.07-2.81 2.24-4.55.91-7.24-.74-9.08-5.34z"
              fill="#626262"/>
        <path d="m1305.91 818.67c-.86.64-1.6 1.55-2 1.43-3.18-1.16-6.31-2.46-9.38-3.81-.35-.15-.4-1.38-.22-2 0-.22 1.25-.45 1.74-.22 3.14 1.35 6.2 2.86 9.86 4.6z"
              fill="#626262"/>
        <path d="m1331.88 731.93v5.59c-2.88-1.8-2.88-3.25 0-5.59z" fill="#fff"/>
        <path d="m1328.22 773.92h6.17v2.66l-6.17 1z" fill="#fff"/>
        <path d="m1321.15 774.12h6.18v2l-6.18.74z" fill="#fff"/>
        <path d="m1478.12 930.13s-8.89-15.36-3.32-31" fill="none" stroke="#fff" stroke-linecap="round"
              stroke-linejoin="round" stroke-width=".5"/>
        <path d="m1488.93 926.29s-8.89-15.34-3.3-31" fill="none" stroke="#fff" stroke-linecap="round"
              stroke-linejoin="round" stroke-width=".5"/>
        <path d="m1466.67 937.66s-9.84-17.6-2.31-36.06" fill="none" stroke="#fff" stroke-linecap="round"
              stroke-linejoin="round" stroke-width=".5"/>
        <path d="m1445.53 919.47s18.14-18.58 51.69-18.12" fill="none" stroke="#fff" stroke-linecap="round"
              stroke-linejoin="round" stroke-width=".5"/>
        <path d="m1446.54 927.4s18-17.68 51.81-16.32" fill="none" stroke="#fff" stroke-linecap="round"
              stroke-linejoin="round" stroke-width=".5"/>
        <path d="m1453.26 933.4s14.5-14 40.54-13.09" fill="none" stroke="#fff" stroke-linecap="round"
              stroke-linejoin="round" stroke-width=".5"/>
        <path d="m1455.45 934s-7.11-12.3-2.31-25.18" fill="none" stroke="#fff" stroke-linecap="round"
              stroke-linejoin="round" stroke-width=".5"/>
        <path d="m1497.34 922.87s-7.11-12.31-2.31-25.16" fill="none" stroke="#fff" stroke-linecap="round"
              stroke-linejoin="round" stroke-width=".5"/>
        <path d="m1364.4 724.84c-6.06-3.62-10 1.23-14.77 3.57a5.47 5.47 0 0 1 4.41-6.35c4.9-1.58 8.56-.86 10.36 2.78z"
              fill="#626262"/>
        <path d="m1264.14 796.82c-1.67 1.25-3.32 1.4-4-.74-2.17-6.33-4.11-12.75-6.11-19.15a7.46 7.46 0 0 1 .69-1.55z"
              fill="#626262"/>
        <path d="m1278 775.3c.19 5.69.41 11.4.64 17.23-2.47 0-4.21-.24-3.65-3.27.86-4.6 1.6-9.23 2.46-13.86z"
              fill="#626262"/>
        <path d="m1244.38 802.94 12.82 8.79-1.06 1.5c-4.7-2.29-8.12-6.32-12.3-9.42z" fill="#626262"/>
        <path d="m638.25 959.49a184.66 184.66 0 0 1 -56.62-15.87c-6.18-2.76-11.54-7.39-17.23-11.08-.71-.47-1.47-1.23-2.21-1.23-12.31.25-23.93-3.74-35.6-7.24a56 56 0 0 1 -25.59-16.17 37.46 37.46 0 0 1 -6.47-11.59c-1.14-2.86.27-5.12 3.47-6.94 7.92-4.56 16.29-4.09 24.61-3.08 8.76 1.08 17.43 3 26.17 4.5-3.42-54.15 6.91-105.1 43.81-147.51a55.9 55.9 0 0 1 -8.54-7.8c-4.92-6.75-3.72-18.79 1.7-24.94a11.2 11.2 0 0 1 11-4.36 6 6 0 0 0 5.61-2 58.87 58.87 0 0 1 22.15-13.3 38.4 38.4 0 0 1 23.63.74c10.73 3.69 18.49 11.2 24.62 20.73a103.56 103.56 0 0 0 8.59 10.78 4.4 4.4 0 0 0 2.66 1 12.5 12.5 0 0 1 10.43 10.14 12.79 12.79 0 0 1 -4.92 12.48 6.58 6.58 0 0 0 -1.9 3.15c-1.92 5.86-3.29 11.94-5.66 17.63s-3.07 5.68-9 4.31c-.74-.18-1.48-.3-2.81-.55 3.13-5.39-.86-7.63-4-10.68a49.64 49.64 0 0 1 -8-11.17c5.41 8.22 13 9.25 21.36 6.67a7.69 7.69 0 0 0 6-7.39c-5.41 0-9.18-2-10.9-7.38-2.19-6.72-1.09-12.31 4.26-16.59-4-5.64-7.66-11.3-11.84-16.54-14.03-17.66-36.49-22.14-54.68-7.21-3.37 2.76-6.4 6-9.84 8.79a5 5 0 0 1 -3.77 1.3 11.8 11.8 0 0 0 -14 6.62c-3.13 7.9-1.23 16.22 4.63 20.51s5.46 4 1.38 9.84a269 269 0 0 0 -14.75 23.35 140.13 140.13 0 0 0 -15.83 39.39c-2.17 10.09-3.27 20.4-5.24 30.54a132.29 132.29 0 0 0 -1.5 33.31c.36 6.72 1.25 13.44 2.26 20.08a123.08 123.08 0 0 0 3.2 15.54 44.77 44.77 0 0 0 25 30.32 217.29 217.29 0 0 0 44.61 15.09"
              fill="#626262"/>
        <path d="m657.32 956.76c3.23-.51 6.65-1.13 7.39-5.14a8.05 8.05 0 0 0 -4.92-8.81c-3.45-1.87-7.19-3.23-10.76-4.93-6.35-2.9-12.88-5.71-17.58-11.07a75.44 75.44 0 0 1 -5.9-9l1.35-1.11c4.13 6.5 8.64 12.6 16.74 15.56 8.83-10.47 16.24-22.16 19.47-35.77s4.92-26.88 7.38-40.59a8.54 8.54 0 0 1 .51 2.1 165.41 165.41 0 0 1 -1.77 21.78c-2.29 11-5.62 21.74-8.72 32.52a40.12 40.12 0 0 1 -3.79 7.9c-.91 1.65-.76 2.71 1 3.49 5.09 2.32 10.24 4.61 15.31 7a152.56 152.56 0 0 1 16 7.87c4.61 2.91 5.59 6.55 4.26 10.37a9.26 9.26 0 0 1 -10.44 6.22"
              fill="#626262"/>
        <path d="m682.06 952.5a12.94 12.94 0 0 0 6.77-3.47c.86-1.13-.2-4.65-1.48-6.22a25.78 25.78 0 0 0 -8.09-6.85c-8.08-3.81-16.45-7-25.26-10.66l-6.33 9c5.72 2.61 11.35 4.92 16.64 7.7a15.12 15.12 0 0 1 6.69 6.2 6 6 0 0 0 5.74 4"
              fill="#626262"/>
        <path d="m677.21 770.06 1.73-10.61c-3.43-.74-5.22 0-5.37 3.15a14.74 14.74 0 0 1 -.52 3.3c-.79 3.15.57 4.36 4.16 4.16z"
              fill="#626262"/>
        <path d="m688.46 727.35c-3.32 3.4-2.31 6 2.83 7.68z" fill="#626262"/>
        <path d="m679.7 766 1 .35 3.25-9.85c-5.41 2.38-2.01 6.84-4.25 9.5z" fill="#626262"/>
        <path d="m604.5 808.36c4 3.67 8.15 7.21 12 11a96.12 96.12 0 0 0 60.2 27.55c13.81 1.25 27.28-2.29 39.93-8.2 3.05-1.43 5.91-3.22 8.89-4.92a26.75 26.75 0 0 1 2.61-1l.68 1a38.4 38.4 0 0 1 -4.92 3.89 90.72 90.72 0 0 1 -116.87-23.41 54 54 0 0 1 -3.35-5.44z"
              fill="#626262"/>
        <path d="m640.46 799.35c2.73 3.25 5.52 6.5 8.2 9.85 13.19 16.12 30.6 20.06 50.14 16.69 6.05-1 10.19-5.89 14.13-10.42a39.59 39.59 0 0 0 2.46-3.34c2.46 1.25 2.07 2.88.91 4.67a33.54 33.54 0 0 1 -34.14 14.2 64.76 64.76 0 0 1 -24.42-10.17c-7.38-4.92-12.55-12.18-17.43-19.52a5.55 5.55 0 0 1 -.41-1.55z"
              fill="#626262"/>
        <path d="m737.69 794.77a27.55 27.55 0 0 1 -17.52 13.47 35.5 35.5 0 0 1 -30.77-5.74 54.25 54.25 0 0 1 -14.11-13.29 2.12 2.12 0 0 1 -.17-2c1.33 1.33 2.66 2.63 3.94 4a50.57 50.57 0 0 0 21.41 14.23c12.88 4 23.86 0 33.65-8.52.77-.64 1.5-1.36 2.27-2 .14-.1.41-.05 1.3-.15z"
              fill="#626262"/>
        <path d="m746.23 810.62a12.35 12.35 0 0 1 -1.94 3.28c-4.51 3.84-9.06 7.65-13.79 11.22-.86.64-3.32.64-3.71 0-1.26-1.84.64-2.46 2-3.35 4.72-3.17 9.35-6.47 14-9.84a33.4 33.4 0 0 0 2.61-2.29z"
              fill="#626262"/>
        <path d="m664.39 761.76a8.57 8.57 0 0 1 -5.24 7.19 43.71 43.71 0 0 1 -4.71 1.9l-13.12 5.66a13.21 13.21 0 0 1 9.43-7.12 22.38 22.38 0 0 0 11.47-6.59c.37-.42 1.08-.54 2.17-1.04z"
              fill="#626262"/>
        <path d="m595.34 734.64a22.19 22.19 0 0 1 -1.34-19.37c4.4 6.45 2.25 12.97 1.34 19.37z" fill="#626262"/>
        <path d="m746.21 777c-2-.55-3.15-1.75-1.92-3.65 3.67-5.61 7.53-11.07 11.37-16.59.12-.17.57-.15 1.65-.39z"
              fill="#626262"/>
        <path d="m652 732.28c-2-2.15-3.62-4.93-6.06-6.23s-5.78-1-8.66-1.38c2.46-2.95 8.49-3.1 12.11-.12s4.54 5.45 2.61 7.73z"
              fill="#626262"/>
        <path d="m725.61 808.68 16.78-10.31c-1.87 5.68-10.78 11.29-16.78 10.31z" fill="#626262"/>
        <path d="m711.65 825.47 12.35-10.64c.69 5.52-6.2 11.65-12.35 10.64z" fill="#626262"/>
        <path d="m771.71 774.69-13.27 11.15c-1.62-1.92-2.46-3.45.35-4.93 4.16-2.14 8.27-4.4 12.3-6.62z" fill="#626262"/>
        <path d="m747.17 804.82c-2.46 4.92-11.52 9.08-15.63 6.74z" fill="#626262"/>
        <path d="m724.67 824.75a12 12 0 0 1 -12.16 7.39l-.47-.89z" fill="#626262"/>
        <path d="m729.22 765.16 1 15.51h-1.84c-1.11-5.1 0-10.29 0-15.44z" fill="#626262"/>
        <path d="m676.72 952.16a6 6 0 0 1 -5.74-4 15.12 15.12 0 0 0 -6.67-6.21c-5.29-2.88-10.92-5.09-16.64-7.7l6.33-9c8.81 3.67 17.23 6.85 25.26 10.66a25.78 25.78 0 0 1 8.09 6.85c1.28 1.57 2.34 5.09 1.48 6.22a12.94 12.94 0 0 1 -6.77 3.47"
              fill="#fff"/>
        <path d="m677.21 770.06c-3.59.2-4.92-1-4.16-4.16a14.74 14.74 0 0 0 .52-3.3c.15-3.22 1.94-3.89 5.37-3.15z"
              fill="#fff"/>
        <path d="m688.46 727.35 2.83 7.68c-5.14-1.67-6.15-4.28-2.83-7.68z" fill="#fff"/>
        <path d="m679.7 766c2.16-2.63-1.16-7.09 4.23-9.47l-3.25 9.84z" fill="#fff"/>
        <path d="m523.59 916.94s1.9-16.15 15.51-23.56" fill="none" stroke="#fff" stroke-linecap="round"
              stroke-linejoin="round" stroke-width=".5"/>
        <path d="m534.42 921.1s1.9-16.15 15.51-23.56" fill="none" stroke="#fff" stroke-linecap="round"
              stroke-linejoin="round" stroke-width=".5"/>
        <path d="m510.08 915.07s2.46-18.29 19.25-26.44" fill="none" stroke="#fff" stroke-linecap="round"
              stroke-linejoin="round" stroke-width=".5"/>
        <path d="m503.87 889.37s25.31-1.65 51.7 19.54" fill="none" stroke="#fff" stroke-linecap="round"
              stroke-linejoin="round" stroke-width=".5"/>
        <path d="m500.13 895.52s24.62-1.11 50.78 20.83" fill="none" stroke="#fff" stroke-linecap="round"
              stroke-linejoin="round" stroke-width=".5"/>
        <path d="m501.83 903.87s19.69-.72 39.9 16" fill="none" stroke="#fff" stroke-linecap="round"
              stroke-linejoin="round" stroke-width=".5"/>
        <path d="m506 905.54s1.55-12.92 12.88-18.86" fill="none" stroke="#fff" stroke-linecap="round"
              stroke-linejoin="round" stroke-width=".5"/>
        <path d="m543.11 923.83s1.55-12.92 12.89-18.83" fill="none" stroke="#fff" stroke-linecap="round"
              stroke-linejoin="round" stroke-width=".5"/>
    </g>
    <ellipse cx="928.61" cy="751.18" fill="none" rx="222.1" ry="65.28" stroke="#626262" stroke-miterlimit="10"/>
</svg>
