<svg xmlns="http://www.w3.org/2000/svg" width="146.467" height="42.185" viewBox="0 0 146.467 42.185">
  <g id="Logo-wappizy" transform="translate(-14.3 -16.83)">
    <path id="Tracé_1" data-name="Tracé 1" d="M15.156,19.007a1.1,1.1,0,0,1-.206-.685,1.016,1.016,0,0,1,.206-.617,1.1,1.1,0,0,1,.685-.206,1.016,1.016,0,0,1,.617.206,1,1,0,0,1,.206.617,1.116,1.116,0,0,1-.206.685,1,1,0,0,1-.617.206A1.116,1.116,0,0,1,15.156,19.007Zm0,4.356a1.1,1.1,0,0,1-.206-.685,1.016,1.016,0,0,1,.206-.617,1.1,1.1,0,0,1,.685-.206,1.016,1.016,0,0,1,.617.206,1,1,0,0,1,.206.617,1.116,1.116,0,0,1-.206.685,1,1,0,0,1-.617.206A1.116,1.116,0,0,1,15.156,23.363Zm0,4.356a1.1,1.1,0,0,1-.206-.685,1.016,1.016,0,0,1,.206-.617,1.1,1.1,0,0,1,.685-.206,1.016,1.016,0,0,1,.617.206,1,1,0,0,1,.206.617,1.116,1.116,0,0,1-.206.685,1,1,0,0,1-.617.206A1.116,1.116,0,0,1,15.156,27.718Zm0,4.356a1.1,1.1,0,0,1-.206-.685,1.016,1.016,0,0,1,.206-.617,1.1,1.1,0,0,1,.685-.206,1.016,1.016,0,0,1,.617.206,1,1,0,0,1,.206.617,1.116,1.116,0,0,1-.206.685,1,1,0,0,1-.617.206A1.116,1.116,0,0,1,15.156,32.074Zm0,4.356a1.1,1.1,0,0,1-.206-.685,1.016,1.016,0,0,1,.206-.617,1.1,1.1,0,0,1,.685-.206,1.016,1.016,0,0,1,.617.206,1,1,0,0,1,.206.617,1.116,1.116,0,0,1-.206.685,1,1,0,0,1-.617.206A1.116,1.116,0,0,1,15.156,36.43Zm0,4.356a1.1,1.1,0,0,1-.206-.685,1.016,1.016,0,0,1,.206-.617,1.1,1.1,0,0,1,.685-.206,1.016,1.016,0,0,1,.617.206,1,1,0,0,1,.206.617,1.116,1.116,0,0,1-.206.685,1,1,0,0,1-.617.206A1.117,1.117,0,0,1,15.156,40.785Zm0,4.356a1.1,1.1,0,0,1-.206-.685,1.016,1.016,0,0,1,.206-.617,1.1,1.1,0,0,1,.685-.206,1.016,1.016,0,0,1,.617.206,1,1,0,0,1,.206.617,1.116,1.116,0,0,1-.206.685,1,1,0,0,1-.617.206A1.116,1.116,0,0,1,15.156,45.141Zm4.356-4.356a1.1,1.1,0,0,1-.206-.685,1.016,1.016,0,0,1,.206-.617,1.1,1.1,0,0,1,.685-.206,1.016,1.016,0,0,1,.617.206,1,1,0,0,1,.206.617,1.117,1.117,0,0,1-.206.685,1,1,0,0,1-.617.206A1.117,1.117,0,0,1,19.511,40.785Zm4.356-4.356a1.1,1.1,0,0,1-.206-.685,1.016,1.016,0,0,1,.206-.617,1.1,1.1,0,0,1,.685-.206,1.016,1.016,0,0,1,.617.206,1,1,0,0,1,.206.617,1.116,1.116,0,0,1-.206.685,1,1,0,0,1-.617.206A1.116,1.116,0,0,1,23.867,36.43Zm4.356,4.356a1.1,1.1,0,0,1-.206-.685,1.016,1.016,0,0,1,.206-.617,1.1,1.1,0,0,1,.685-.206,1.016,1.016,0,0,1,.617.206,1,1,0,0,1,.206.617,1.117,1.117,0,0,1-.206.685,1,1,0,0,1-.617.206A1.117,1.117,0,0,1,28.223,40.785Zm4.356-21.8a1.1,1.1,0,0,1-.206-.685,1.016,1.016,0,0,1,.206-.617,1.1,1.1,0,0,1,.685-.206,1.016,1.016,0,0,1,.617.206,1,1,0,0,1,.206.617,1.117,1.117,0,0,1-.206.685,1,1,0,0,1-.617.206A1.116,1.116,0,0,1,32.578,18.987Zm0,4.356a1.1,1.1,0,0,1-.206-.685,1.016,1.016,0,0,1,.206-.617,1.1,1.1,0,0,1,.685-.206,1.016,1.016,0,0,1,.617.206,1,1,0,0,1,.206.617,1.117,1.117,0,0,1-.206.685,1,1,0,0,1-.617.206A1.116,1.116,0,0,1,32.578,23.343Zm0,4.356a1.1,1.1,0,0,1-.206-.685,1.016,1.016,0,0,1,.206-.617,1.1,1.1,0,0,1,.685-.206,1.016,1.016,0,0,1,.617.206,1,1,0,0,1,.206.617,1.117,1.117,0,0,1-.206.685,1,1,0,0,1-.617.206A1.117,1.117,0,0,1,32.578,27.7Zm0,4.356a1.1,1.1,0,0,1-.206-.685,1.016,1.016,0,0,1,.206-.617,1.1,1.1,0,0,1,.685-.206,1.016,1.016,0,0,1,.617.206,1,1,0,0,1,.206.617,1.117,1.117,0,0,1-.206.685,1,1,0,0,1-.617.206A1.116,1.116,0,0,1,32.578,32.054Zm0,4.356a1.1,1.1,0,0,1-.206-.685,1.016,1.016,0,0,1,.206-.617,1.1,1.1,0,0,1,.685-.206,1.016,1.016,0,0,1,.617.206,1,1,0,0,1,.206.617,1.117,1.117,0,0,1-.206.685,1,1,0,0,1-.617.206A1.116,1.116,0,0,1,32.578,36.41Zm0,4.356a1.1,1.1,0,0,1-.206-.685,1.016,1.016,0,0,1,.206-.617,1.1,1.1,0,0,1,.685-.206,1.016,1.016,0,0,1,.617.206,1,1,0,0,1,.206.617,1.116,1.116,0,0,1-.206.685,1,1,0,0,1-.617.206A1.116,1.116,0,0,1,32.578,40.766Zm0,4.356a1.1,1.1,0,0,1-.206-.685,1.016,1.016,0,0,1,.206-.617,1.1,1.1,0,0,1,.685-.206,1.016,1.016,0,0,1,.617.206,1,1,0,0,1,.206.617,1.117,1.117,0,0,1-.206.685,1,1,0,0,1-.617.206A1.117,1.117,0,0,1,32.578,45.121Z" transform="translate(0)" fill="#fff" stroke="#fff" stroke-miterlimit="10" stroke-width="1.3"/>
    <path id="Tracé_2" data-name="Tracé 2" d="M41.816,32.283a1.1,1.1,0,0,1-.206-.685,1.016,1.016,0,0,1,.206-.617,1.1,1.1,0,0,1,.685-.206,1.016,1.016,0,0,1,.617.206,1,1,0,0,1,.206.617,1.116,1.116,0,0,1-.206.685,1,1,0,0,1-.617.206A1.117,1.117,0,0,1,41.816,32.283Zm0,4.356a1.1,1.1,0,0,1-.206-.685,1.016,1.016,0,0,1,.206-.617,1.1,1.1,0,0,1,.685-.206,1.016,1.016,0,0,1,.617.206,1,1,0,0,1,.206.617,1.116,1.116,0,0,1-.206.685,1,1,0,0,1-.617.206A1.116,1.116,0,0,1,41.816,36.639Zm0,4.356a1.1,1.1,0,0,1-.206-.685,1.016,1.016,0,0,1,.206-.617,1.1,1.1,0,0,1,.685-.206,1.016,1.016,0,0,1,.617.206,1,1,0,0,1,.206.617,1.116,1.116,0,0,1-.206.685,1,1,0,0,1-.617.206A1.116,1.116,0,0,1,41.816,40.994Zm4.356-13.077a1.1,1.1,0,0,1-.206-.685,1.016,1.016,0,0,1,.206-.617,1.1,1.1,0,0,1,.685-.206,1.016,1.016,0,0,1,.617.206,1,1,0,0,1,.206.617,1.117,1.117,0,0,1-.206.685,1,1,0,0,1-.617.206A1.116,1.116,0,0,1,46.171,27.917Zm0,17.442a1.1,1.1,0,0,1-.206-.685,1.016,1.016,0,0,1,.206-.617,1.1,1.1,0,0,1,.685-.206,1.016,1.016,0,0,1,.617.206,1,1,0,0,1,.206.617,1.117,1.117,0,0,1-.206.685,1,1,0,0,1-.617.206A1.116,1.116,0,0,1,46.171,45.36Zm4.356-17.442a1.1,1.1,0,0,1-.206-.685,1.016,1.016,0,0,1,.206-.617,1.1,1.1,0,0,1,.685-.206,1.016,1.016,0,0,1,.617.206,1,1,0,0,1,.206.617,1.116,1.116,0,0,1-.206.685,1,1,0,0,1-.617.206A1.117,1.117,0,0,1,50.527,27.917Zm0,17.442a1.1,1.1,0,0,1-.206-.685,1.016,1.016,0,0,1,.206-.617,1.1,1.1,0,0,1,.685-.206,1.016,1.016,0,0,1,.617.206,1,1,0,0,1,.206.617,1.116,1.116,0,0,1-.206.685,1,1,0,0,1-.617.206A1.116,1.116,0,0,1,50.527,45.36Zm4.356-17.442a1.1,1.1,0,0,1-.206-.685,1.016,1.016,0,0,1,.206-.617,1.1,1.1,0,0,1,.685-.206,1.016,1.016,0,0,1,.617.206,1,1,0,0,1,.206.617,1.116,1.116,0,0,1-.206.685,1,1,0,0,1-.617.206A1.117,1.117,0,0,1,54.883,27.917Zm0,4.356a1.1,1.1,0,0,1-.206-.685,1.016,1.016,0,0,1,.206-.617,1.1,1.1,0,0,1,.685-.206,1.016,1.016,0,0,1,.617.206,1,1,0,0,1,.206.617,1.116,1.116,0,0,1-.206.685,1,1,0,0,1-.617.206A1.116,1.116,0,0,1,54.883,32.273Zm0,4.356a1.1,1.1,0,0,1-.206-.685,1.016,1.016,0,0,1,.206-.617,1.1,1.1,0,0,1,.685-.206,1.016,1.016,0,0,1,.617.206,1,1,0,0,1,.206.617,1.116,1.116,0,0,1-.206.685,1,1,0,0,1-.617.206A1.116,1.116,0,0,1,54.883,36.629Zm0,4.356a1.1,1.1,0,0,1-.206-.685,1.016,1.016,0,0,1,.206-.617,1.1,1.1,0,0,1,.685-.206,1.016,1.016,0,0,1,.617.206,1,1,0,0,1,.206.617,1.116,1.116,0,0,1-.206.685,1,1,0,0,1-.617.206A1.117,1.117,0,0,1,54.883,40.984Zm0,4.356a1.1,1.1,0,0,1-.206-.685,1.016,1.016,0,0,1,.206-.617,1.1,1.1,0,0,1,.685-.206,1.016,1.016,0,0,1,.617.206,1,1,0,0,1,.206.617,1.116,1.116,0,0,1-.206.685,1,1,0,0,1-.617.206A1.116,1.116,0,0,1,54.883,45.34Z" transform="translate(-0.565 -0.189)" fill="#42bac4" stroke="#42bac4" stroke-miterlimit="10" stroke-width="1.3"/>
    <path id="Tracé_3" data-name="Tracé 3" d="M64.016,27.917a1.1,1.1,0,0,1-.206-.685,1.016,1.016,0,0,1,.206-.617,1.1,1.1,0,0,1,.685-.206,1.016,1.016,0,0,1,.617.206,1,1,0,0,1,.206.617,1.117,1.117,0,0,1-.206.685,1,1,0,0,1-.617.206A1.117,1.117,0,0,1,64.016,27.917Zm0,4.356a1.1,1.1,0,0,1-.206-.685,1.016,1.016,0,0,1,.206-.617,1.1,1.1,0,0,1,.685-.206,1.016,1.016,0,0,1,.617.206,1,1,0,0,1,.206.617,1.117,1.117,0,0,1-.206.685,1,1,0,0,1-.617.206A1.116,1.116,0,0,1,64.016,32.272Zm0,4.356a1.1,1.1,0,0,1-.206-.685,1.016,1.016,0,0,1,.206-.617,1.1,1.1,0,0,1,.685-.206,1.016,1.016,0,0,1,.617.206,1,1,0,0,1,.206.617,1.117,1.117,0,0,1-.206.685,1,1,0,0,1-.617.206A1.116,1.116,0,0,1,64.016,36.628Zm0,4.356a1.1,1.1,0,0,1-.206-.685,1.016,1.016,0,0,1,.206-.617,1.1,1.1,0,0,1,.685-.206,1.016,1.016,0,0,1,.617.206,1,1,0,0,1,.206.617,1.117,1.117,0,0,1-.206.685,1,1,0,0,1-.617.206A1.116,1.116,0,0,1,64.016,40.984Zm0,4.356a1.1,1.1,0,0,1-.206-.685,1.016,1.016,0,0,1,.206-.617,1.1,1.1,0,0,1,.685-.206,1.016,1.016,0,0,1,.617.206,1,1,0,0,1,.206.617,1.117,1.117,0,0,1-.206.685,1,1,0,0,1-.617.206A1.116,1.116,0,0,1,64.016,45.339Zm0,4.287a1,1,0,0,1-.206-.617,1.117,1.117,0,0,1,.206-.685,1.1,1.1,0,0,1,.685-.206,1.016,1.016,0,0,1,.617.206,1.1,1.1,0,0,1,.206.685,1.016,1.016,0,0,1-.206.617,1,1,0,0,1-.617.206A1.116,1.116,0,0,1,64.016,49.627Zm0,4.356a1,1,0,0,1-.206-.617,1.117,1.117,0,0,1,.206-.685,1.1,1.1,0,0,1,.685-.206,1.016,1.016,0,0,1,.617.206,1.1,1.1,0,0,1,.206.685,1.016,1.016,0,0,1-.206.617,1,1,0,0,1-.617.206A1.116,1.116,0,0,1,64.016,53.982Zm0,4.356a1,1,0,0,1-.206-.617,1.117,1.117,0,0,1,.206-.685,1.1,1.1,0,0,1,.685-.206,1.016,1.016,0,0,1,.617.206,1.1,1.1,0,0,1,.206.685,1.016,1.016,0,0,1-.206.617,1,1,0,0,1-.617.206A1.116,1.116,0,0,1,64.016,58.338Zm4.356-30.451a1.1,1.1,0,0,1-.206-.685,1.016,1.016,0,0,1,.206-.617,1.1,1.1,0,0,1,.685-.206,1.016,1.016,0,0,1,.617.206,1,1,0,0,1,.206.617,1.117,1.117,0,0,1-.206.685,1,1,0,0,1-.617.206A1.116,1.116,0,0,1,68.371,27.887Zm0,17.442a1.1,1.1,0,0,1-.206-.685,1.016,1.016,0,0,1,.206-.617,1.1,1.1,0,0,1,.685-.206,1.016,1.016,0,0,1,.617.206,1,1,0,0,1,.206.617,1.117,1.117,0,0,1-.206.685,1,1,0,0,1-.617.206A1.116,1.116,0,0,1,68.371,45.33Zm4.356-17.442a1.1,1.1,0,0,1-.206-.685,1.016,1.016,0,0,1,.206-.617,1.1,1.1,0,0,1,.685-.206,1.016,1.016,0,0,1,.617.206,1,1,0,0,1,.206.617,1.117,1.117,0,0,1-.206.685,1,1,0,0,1-.617.206A1.116,1.116,0,0,1,72.727,27.887Zm0,17.442a1.1,1.1,0,0,1-.206-.685,1.016,1.016,0,0,1,.206-.617,1.1,1.1,0,0,1,.685-.206,1.016,1.016,0,0,1,.617.206,1,1,0,0,1,.206.617,1.117,1.117,0,0,1-.206.685,1,1,0,0,1-.617.206A1.116,1.116,0,0,1,72.727,45.33Zm4.356-13.077a1.1,1.1,0,0,1-.206-.685,1.016,1.016,0,0,1,.206-.617,1.1,1.1,0,0,1,.685-.206,1.016,1.016,0,0,1,.617.206,1,1,0,0,1,.206.617,1.116,1.116,0,0,1-.206.685,1,1,0,0,1-.617.206A1.117,1.117,0,0,1,77.083,32.253Zm0,4.356a1.1,1.1,0,0,1-.206-.685,1.016,1.016,0,0,1,.206-.617,1.1,1.1,0,0,1,.685-.206,1.016,1.016,0,0,1,.617.206,1,1,0,0,1,.206.617,1.116,1.116,0,0,1-.206.685,1,1,0,0,1-.617.206A1.116,1.116,0,0,1,77.083,36.609Zm0,4.356a1.1,1.1,0,0,1-.206-.685,1.016,1.016,0,0,1,.206-.617,1.1,1.1,0,0,1,.685-.206,1.016,1.016,0,0,1,.617.206,1,1,0,0,1,.206.617,1.116,1.116,0,0,1-.206.685,1,1,0,0,1-.617.206A1.116,1.116,0,0,1,77.083,40.964Z" transform="translate(-1.036 -0.189)" fill="#42bac4" stroke="#42bac4" stroke-miterlimit="10" stroke-width="1.3"/>
    <path id="Tracé_4" data-name="Tracé 4" d="M86.216,27.917a1.1,1.1,0,0,1-.206-.685,1.016,1.016,0,0,1,.206-.617,1.1,1.1,0,0,1,.685-.206,1.016,1.016,0,0,1,.617.206,1,1,0,0,1,.206.617,1.117,1.117,0,0,1-.206.685,1,1,0,0,1-.617.206A1.116,1.116,0,0,1,86.216,27.917Zm0,4.356a1.1,1.1,0,0,1-.206-.685,1.016,1.016,0,0,1,.206-.617,1.1,1.1,0,0,1,.685-.206,1.016,1.016,0,0,1,.617.206,1,1,0,0,1,.206.617,1.117,1.117,0,0,1-.206.685,1,1,0,0,1-.617.206A1.116,1.116,0,0,1,86.216,32.272Zm0,4.356a1.1,1.1,0,0,1-.206-.685,1.016,1.016,0,0,1,.206-.617,1.1,1.1,0,0,1,.685-.206,1.016,1.016,0,0,1,.617.206,1,1,0,0,1,.206.617,1.117,1.117,0,0,1-.206.685,1,1,0,0,1-.617.206A1.116,1.116,0,0,1,86.216,36.628Zm0,4.356a1.1,1.1,0,0,1-.206-.685,1.016,1.016,0,0,1,.206-.617,1.1,1.1,0,0,1,.685-.206,1.016,1.016,0,0,1,.617.206,1,1,0,0,1,.206.617,1.117,1.117,0,0,1-.206.685,1,1,0,0,1-.617.206A1.116,1.116,0,0,1,86.216,40.984Zm0,4.356a1.1,1.1,0,0,1-.206-.685,1.016,1.016,0,0,1,.206-.617,1.1,1.1,0,0,1,.685-.206,1.016,1.016,0,0,1,.617.206,1,1,0,0,1,.206.617,1.117,1.117,0,0,1-.206.685,1,1,0,0,1-.617.206A1.116,1.116,0,0,1,86.216,45.339Zm0,4.287a1,1,0,0,1-.206-.617,1.116,1.116,0,0,1,.206-.685,1.1,1.1,0,0,1,.685-.206,1.016,1.016,0,0,1,.617.206,1.1,1.1,0,0,1,.206.685,1.016,1.016,0,0,1-.206.617,1,1,0,0,1-.617.206A1.116,1.116,0,0,1,86.216,49.627Zm0,4.356a1,1,0,0,1-.206-.617,1.116,1.116,0,0,1,.206-.685,1.1,1.1,0,0,1,.685-.206,1.016,1.016,0,0,1,.617.206,1.1,1.1,0,0,1,.206.685,1.016,1.016,0,0,1-.206.617,1,1,0,0,1-.617.206A1.116,1.116,0,0,1,86.216,53.982Zm0,4.356a1,1,0,0,1-.206-.617,1.116,1.116,0,0,1,.206-.685,1.1,1.1,0,0,1,.685-.206,1.016,1.016,0,0,1,.617.206,1.1,1.1,0,0,1,.206.685,1.016,1.016,0,0,1-.206.617,1,1,0,0,1-.617.206A1.116,1.116,0,0,1,86.216,58.338Zm4.356-30.451a1.1,1.1,0,0,1-.206-.685,1.016,1.016,0,0,1,.206-.617,1.1,1.1,0,0,1,.685-.206,1.016,1.016,0,0,1,.617.206,1,1,0,0,1,.206.617,1.117,1.117,0,0,1-.206.685,1,1,0,0,1-.617.206A1.117,1.117,0,0,1,90.571,27.887Zm0,17.442a1.1,1.1,0,0,1-.206-.685,1.016,1.016,0,0,1,.206-.617,1.1,1.1,0,0,1,.685-.206,1.016,1.016,0,0,1,.617.206,1,1,0,0,1,.206.617,1.117,1.117,0,0,1-.206.685,1,1,0,0,1-.617.206A1.117,1.117,0,0,1,90.571,45.33Zm4.356-17.442a1.1,1.1,0,0,1-.206-.685,1.016,1.016,0,0,1,.206-.617,1.1,1.1,0,0,1,.685-.206,1.016,1.016,0,0,1,.617.206,1,1,0,0,1,.206.617,1.117,1.117,0,0,1-.206.685,1,1,0,0,1-.617.206A1.116,1.116,0,0,1,94.927,27.887Zm0,17.442a1.1,1.1,0,0,1-.206-.685,1.016,1.016,0,0,1,.206-.617,1.1,1.1,0,0,1,.685-.206,1.016,1.016,0,0,1,.617.206,1,1,0,0,1,.206.617,1.117,1.117,0,0,1-.206.685,1,1,0,0,1-.617.206A1.116,1.116,0,0,1,94.927,45.33Zm4.356-13.077a1.1,1.1,0,0,1-.206-.685,1.016,1.016,0,0,1,.206-.617,1.1,1.1,0,0,1,.685-.206,1.016,1.016,0,0,1,.617.206,1,1,0,0,1,.206.617,1.116,1.116,0,0,1-.206.685,1,1,0,0,1-.617.206A1.116,1.116,0,0,1,99.283,32.253Zm0,4.356a1.1,1.1,0,0,1-.206-.685,1.016,1.016,0,0,1,.206-.617,1.1,1.1,0,0,1,.685-.206,1.016,1.016,0,0,1,.617.206,1,1,0,0,1,.206.617,1.116,1.116,0,0,1-.206.685,1,1,0,0,1-.617.206A1.116,1.116,0,0,1,99.283,36.609Zm0,4.356a1.1,1.1,0,0,1-.206-.685,1.016,1.016,0,0,1,.206-.617,1.1,1.1,0,0,1,.685-.206,1.016,1.016,0,0,1,.617.206,1,1,0,0,1,.206.617,1.116,1.116,0,0,1-.206.685,1,1,0,0,1-.617.206A1.116,1.116,0,0,1,99.283,40.964Z" transform="translate(-1.506 -0.189)" fill="#42bac4" stroke="#42bac4" stroke-miterlimit="10" stroke-width="1.3"/>
    <path id="Tracé_5" data-name="Tracé 5" d="M108.416,32.189a1.1,1.1,0,0,1-.206-.685,1.016,1.016,0,0,1,.206-.617,1.1,1.1,0,0,1,.685-.206,1.016,1.016,0,0,1,.617.206,1,1,0,0,1,.206.617,1.117,1.117,0,0,1-.206.685,1,1,0,0,1-.617.206A1.116,1.116,0,0,1,108.416,32.189Zm0,13.077a1.1,1.1,0,0,1-.206-.685,1.016,1.016,0,0,1,.206-.617,1.1,1.1,0,0,1,.685-.206,1.016,1.016,0,0,1,.617.206,1,1,0,0,1,.206.617,1.117,1.117,0,0,1-.206.685,1,1,0,0,1-.617.206A1.116,1.116,0,0,1,108.416,45.265Zm4.356-21.8a1.1,1.1,0,0,1-.206-.685,1.016,1.016,0,0,1,.206-.617,1.1,1.1,0,0,1,.685-.206,1.016,1.016,0,0,1,.617.206,1,1,0,0,1,.206.617,1.117,1.117,0,0,1-.206.685,1,1,0,0,1-.617.206A1.116,1.116,0,0,1,112.771,23.467Zm0,8.721a1.1,1.1,0,0,1-.206-.685,1.016,1.016,0,0,1,.206-.617,1.1,1.1,0,0,1,.685-.206,1.016,1.016,0,0,1,.617.206,1,1,0,0,1,.206.617,1.117,1.117,0,0,1-.206.685,1,1,0,0,1-.617.206A1.116,1.116,0,0,1,112.771,32.189Zm0,4.356a1.1,1.1,0,0,1-.206-.685,1.016,1.016,0,0,1,.206-.617,1.1,1.1,0,0,1,.685-.206,1.016,1.016,0,0,1,.617.206,1,1,0,0,1,.206.617,1.117,1.117,0,0,1-.206.685,1,1,0,0,1-.617.206A1.116,1.116,0,0,1,112.771,36.544Zm0,4.356a1.1,1.1,0,0,1-.206-.685,1.016,1.016,0,0,1,.206-.617,1.1,1.1,0,0,1,.685-.206,1.016,1.016,0,0,1,.617.206,1,1,0,0,1,.206.617,1.117,1.117,0,0,1-.206.685,1,1,0,0,1-.617.206A1.116,1.116,0,0,1,112.771,40.9Zm0,4.356a1.1,1.1,0,0,1-.206-.685,1.016,1.016,0,0,1,.206-.617,1.1,1.1,0,0,1,.685-.206,1.016,1.016,0,0,1,.617.206,1,1,0,0,1,.206.617,1.117,1.117,0,0,1-.206.685,1,1,0,0,1-.617.206A1.116,1.116,0,0,1,112.771,45.256Zm4.356-13.077a1.1,1.1,0,0,1-.206-.685,1.016,1.016,0,0,1,.206-.617,1.1,1.1,0,0,1,.685-.206,1.016,1.016,0,0,1,.617.206,1,1,0,0,1,.206.617,1.116,1.116,0,0,1-.206.685,1,1,0,0,1-.617.206A1.117,1.117,0,0,1,117.127,32.179Zm0,13.077a1.1,1.1,0,0,1-.206-.685,1.016,1.016,0,0,1,.206-.617,1.1,1.1,0,0,1,.685-.206,1.016,1.016,0,0,1,.617.206,1,1,0,0,1,.206.617,1.116,1.116,0,0,1-.206.685,1,1,0,0,1-.617.206A1.117,1.117,0,0,1,117.127,45.256Z" transform="translate(-1.977 -0.095)" fill="#fff" stroke="#fff" stroke-miterlimit="10" stroke-width="1.3"/>
    <path id="Tracé_6" data-name="Tracé 6" d="M126.166,27.917a1.1,1.1,0,0,1-.206-.685,1.016,1.016,0,0,1,.206-.617,1.1,1.1,0,0,1,.685-.206,1.016,1.016,0,0,1,.617.206,1,1,0,0,1,.206.617,1.116,1.116,0,0,1-.206.685,1,1,0,0,1-.617.206A1.116,1.116,0,0,1,126.166,27.917Zm0,13.077a1.1,1.1,0,0,1-.206-.685,1.016,1.016,0,0,1,.206-.617,1.1,1.1,0,0,1,.685-.206,1.016,1.016,0,0,1,.617.206,1,1,0,0,1,.206.617,1.116,1.116,0,0,1-.206.685,1,1,0,0,1-.617.206A1.116,1.116,0,0,1,126.166,40.994Zm0,4.356a1.1,1.1,0,0,1-.206-.685,1.016,1.016,0,0,1,.206-.617,1.1,1.1,0,0,1,.685-.206,1.016,1.016,0,0,1,.617.206,1,1,0,0,1,.206.617,1.116,1.116,0,0,1-.206.685,1,1,0,0,1-.617.206A1.116,1.116,0,0,1,126.166,45.349Zm4.356-17.442a1.1,1.1,0,0,1-.206-.685,1.016,1.016,0,0,1,.206-.617,1.1,1.1,0,0,1,.685-.206,1.016,1.016,0,0,1,.617.206,1,1,0,0,1,.206.617,1.116,1.116,0,0,1-.206.685,1,1,0,0,1-.617.206A1.117,1.117,0,0,1,130.521,27.907Zm0,8.721a1.1,1.1,0,0,1-.206-.685,1.016,1.016,0,0,1,.206-.617,1.1,1.1,0,0,1,.685-.206,1.016,1.016,0,0,1,.617.206,1,1,0,0,1,.206.617,1.116,1.116,0,0,1-.206.685,1,1,0,0,1-.617.206A1.116,1.116,0,0,1,130.521,36.628Zm0,8.721a1.1,1.1,0,0,1-.206-.685,1.016,1.016,0,0,1,.206-.617,1.1,1.1,0,0,1,.685-.206,1.016,1.016,0,0,1,.617.206,1,1,0,0,1,.206.617,1.116,1.116,0,0,1-.206.685,1,1,0,0,1-.617.206A1.117,1.117,0,0,1,130.521,45.349Zm4.356-17.442a1.1,1.1,0,0,1-.206-.685,1.016,1.016,0,0,1,.206-.617,1.1,1.1,0,0,1,.685-.206,1.016,1.016,0,0,1,.617.206,1,1,0,0,1,.206.617,1.116,1.116,0,0,1-.206.685,1,1,0,0,1-.617.206A1.117,1.117,0,0,1,134.877,27.907Zm0,4.356a1.1,1.1,0,0,1-.206-.685,1.016,1.016,0,0,1,.206-.617,1.1,1.1,0,0,1,.685-.206,1.016,1.016,0,0,1,.617.206,1,1,0,0,1,.206.617,1.116,1.116,0,0,1-.206.685,1,1,0,0,1-.617.206A1.117,1.117,0,0,1,134.877,32.263Zm0,13.077a1.1,1.1,0,0,1-.206-.685,1.016,1.016,0,0,1,.206-.617,1.1,1.1,0,0,1,.685-.206,1.016,1.016,0,0,1,.617.206,1,1,0,0,1,.206.617,1.116,1.116,0,0,1-.206.685,1,1,0,0,1-.617.206A1.117,1.117,0,0,1,134.877,45.34ZM139.233,27.9a1.1,1.1,0,0,1-.206-.685,1.016,1.016,0,0,1,.206-.617,1.1,1.1,0,0,1,.685-.206,1.016,1.016,0,0,1,.617.206,1,1,0,0,1,.206.617,1.117,1.117,0,0,1-.206.685,1,1,0,0,1-.617.206A1.116,1.116,0,0,1,139.233,27.9Zm0,17.442a1.1,1.1,0,0,1-.206-.685,1.016,1.016,0,0,1,.206-.617,1.1,1.1,0,0,1,.685-.206,1.016,1.016,0,0,1,.617.206,1,1,0,0,1,.206.617,1.117,1.117,0,0,1-.206.685,1,1,0,0,1-.617.206A1.116,1.116,0,0,1,139.233,45.34Z" transform="translate(-2.353 -0.189)" fill="#fff" stroke="#fff" stroke-miterlimit="10" stroke-width="1.3"/>
    <path id="Tracé_7" data-name="Tracé 7" d="M148.366,27.917a1.1,1.1,0,0,1-.206-.685,1.016,1.016,0,0,1,.206-.617,1.1,1.1,0,0,1,.685-.206,1.016,1.016,0,0,1,.617.206,1,1,0,0,1,.206.617,1.117,1.117,0,0,1-.206.685,1,1,0,0,1-.617.206A1.117,1.117,0,0,1,148.366,27.917Zm0,4.356a1.1,1.1,0,0,1-.206-.685,1.016,1.016,0,0,1,.206-.617,1.1,1.1,0,0,1,.685-.206,1.016,1.016,0,0,1,.617.206,1,1,0,0,1,.206.617,1.117,1.117,0,0,1-.206.685,1,1,0,0,1-.617.206A1.116,1.116,0,0,1,148.366,32.273Zm0,4.356a1.1,1.1,0,0,1-.206-.685,1.016,1.016,0,0,1,.206-.617,1.1,1.1,0,0,1,.685-.206,1.016,1.016,0,0,1,.617.206,1,1,0,0,1,.206.617,1.117,1.117,0,0,1-.206.685,1,1,0,0,1-.617.206A1.116,1.116,0,0,1,148.366,36.628Zm0,4.356a1.1,1.1,0,0,1-.206-.685,1.016,1.016,0,0,1,.206-.617,1.1,1.1,0,0,1,.685-.206,1.016,1.016,0,0,1,.617.206,1,1,0,0,1,.206.617,1.117,1.117,0,0,1-.206.685,1,1,0,0,1-.617.206A1.117,1.117,0,0,1,148.366,40.984Zm0,13.008a1,1,0,0,1-.206-.617,1.117,1.117,0,0,1,.206-.685,1.1,1.1,0,0,1,.685-.206,1.016,1.016,0,0,1,.617.206,1.1,1.1,0,0,1,.206.685,1.016,1.016,0,0,1-.206.617,1,1,0,0,1-.617.206A1.116,1.116,0,0,1,148.366,53.992Zm4.356-8.653a1.1,1.1,0,0,1-.206-.685,1.016,1.016,0,0,1,.206-.617,1.1,1.1,0,0,1,.685-.206,1.016,1.016,0,0,1,.617.206,1,1,0,0,1,.206.617,1.116,1.116,0,0,1-.206.685,1,1,0,0,1-.617.206A1.116,1.116,0,0,1,152.721,45.34Zm0,13.008a1,1,0,0,1-.206-.617,1.117,1.117,0,0,1,.206-.685,1.1,1.1,0,0,1,.685-.206,1.016,1.016,0,0,1,.617.206,1.1,1.1,0,0,1,.206.685,1.016,1.016,0,0,1-.206.617,1,1,0,0,1-.617.206A1.117,1.117,0,0,1,152.721,58.348Zm4.356-13.008a1.1,1.1,0,0,1-.206-.685,1.016,1.016,0,0,1,.206-.617,1.1,1.1,0,0,1,.685-.206,1.016,1.016,0,0,1,.617.206,1,1,0,0,1,.206.617,1.116,1.116,0,0,1-.206.685,1,1,0,0,1-.617.206A1.116,1.116,0,0,1,157.077,45.34Zm0,13.008a1,1,0,0,1-.206-.617,1.117,1.117,0,0,1,.206-.685,1.1,1.1,0,0,1,.685-.206,1.016,1.016,0,0,1,.617.206,1.1,1.1,0,0,1,.206.685,1.016,1.016,0,0,1-.206.617,1,1,0,0,1-.617.206A1.116,1.116,0,0,1,157.077,58.348ZM161.433,27.9a1.1,1.1,0,0,1-.206-.685,1.016,1.016,0,0,1,.206-.617,1.1,1.1,0,0,1,.685-.206,1.016,1.016,0,0,1,.617.206,1,1,0,0,1,.206.617,1.117,1.117,0,0,1-.206.685,1,1,0,0,1-.617.206A1.116,1.116,0,0,1,161.433,27.9Zm0,4.356a1.1,1.1,0,0,1-.206-.685,1.016,1.016,0,0,1,.206-.617,1.1,1.1,0,0,1,.685-.206,1.016,1.016,0,0,1,.617.206,1,1,0,0,1,.206.617,1.117,1.117,0,0,1-.206.685,1,1,0,0,1-.617.206A1.116,1.116,0,0,1,161.433,32.253Zm0,4.356a1.1,1.1,0,0,1-.206-.685,1.016,1.016,0,0,1,.206-.617,1.1,1.1,0,0,1,.685-.206,1.016,1.016,0,0,1,.617.206,1,1,0,0,1,.206.617,1.117,1.117,0,0,1-.206.685,1,1,0,0,1-.617.206A1.116,1.116,0,0,1,161.433,36.609Zm0,4.356a1.1,1.1,0,0,1-.206-.685,1.016,1.016,0,0,1,.206-.617,1.1,1.1,0,0,1,.685-.206,1.016,1.016,0,0,1,.617.206,1,1,0,0,1,.206.617,1.117,1.117,0,0,1-.206.685,1,1,0,0,1-.617.206A1.116,1.116,0,0,1,161.433,40.964Zm0,4.356a1.1,1.1,0,0,1-.206-.685,1.016,1.016,0,0,1,.206-.617,1.1,1.1,0,0,1,.685-.206,1.016,1.016,0,0,1,.617.206,1,1,0,0,1,.206.617,1.117,1.117,0,0,1-.206.685,1,1,0,0,1-.617.206A1.116,1.116,0,0,1,161.433,45.32Zm0,4.287a1,1,0,0,1-.206-.617,1.117,1.117,0,0,1,.206-.685,1.1,1.1,0,0,1,.685-.206,1.016,1.016,0,0,1,.617.206,1.1,1.1,0,0,1,.206.685,1.016,1.016,0,0,1-.206.617,1,1,0,0,1-.617.206A1.116,1.116,0,0,1,161.433,49.607Zm0,4.356a1,1,0,0,1-.206-.617,1.117,1.117,0,0,1,.206-.685,1.1,1.1,0,0,1,.685-.206,1.016,1.016,0,0,1,.617.206,1.1,1.1,0,0,1,.206.685,1.016,1.016,0,0,1-.206.617,1,1,0,0,1-.617.206A1.116,1.116,0,0,1,161.433,53.963Z" transform="translate(-2.823 -0.189)" fill="#fff" stroke="#fff" stroke-miterlimit="10" stroke-width="1.3"/>
  </g>
</svg>
