<svg id="Calque_1" data-name="Calque 1" xmlns="http://www.w3.org/2000/svg" viewBox="0 0 114.16 91.77"><path d="M85.64,44.36h3.79A1.56,1.56,0,0,0,91,42.8V39a1.56,1.56,0,0,0-1.56-1.55H85.64A1.55,1.55,0,0,0,84.09,39V42.8A1.55,1.55,0,0,0,85.64,44.36Zm0-5.31h3.71v3.72H85.68Zm0,15.39h3.79A1.55,1.55,0,0,0,91,52.89V49.1a1.56,1.56,0,0,0-1.56-1.56H85.64a1.55,1.55,0,0,0-1.55,1.56v3.79A1.54,1.54,0,0,0,85.64,54.44Zm0-5.3h3.71v3.71H85.68ZM74.82,44.36h3.79a1.56,1.56,0,0,0,1.56-1.56V39a1.56,1.56,0,0,0-1.56-1.55H74.82A1.55,1.55,0,0,0,73.27,39V42.8A1.55,1.55,0,0,0,74.82,44.36Zm0-5.31h3.71v3.72H74.86ZM57,57.16H53.18a1.54,1.54,0,0,0-1.55,1.55V62.5a1.55,1.55,0,0,0,1.55,1.56H57a1.56,1.56,0,0,0,1.56-1.56V58.71A1.55,1.55,0,0,0,57,57.16Zm0,5.3H53.22V58.75h3.71Zm0-25H53.18A1.55,1.55,0,0,0,51.63,39V42.8a1.55,1.55,0,0,0,1.55,1.56H57a1.56,1.56,0,0,0,1.56-1.56V39A1.56,1.56,0,0,0,57,37.46Zm0,5.31H53.22V39.05h3.71ZM74.82,54.21h3.79a1.56,1.56,0,0,0,1.56-1.56V48.86a1.56,1.56,0,0,0-1.56-1.55H74.82a1.55,1.55,0,0,0-1.55,1.55v3.79A1.55,1.55,0,0,0,74.82,54.21Zm0-5.31h3.71v3.72H74.86ZM91.78,21.3H88.37V20.09A2.42,2.42,0,0,0,86,17.66h-.36a2.43,2.43,0,0,0-2.43,2.43V21.3H59.45V20.09A2.43,2.43,0,0,0,57,17.66h-.37a2.43,2.43,0,0,0-2.42,2.43V21.3h-3.4a4,4,0,0,0-4,4V68a4,4,0,0,0,4,4h41a4,4,0,0,0,4-4V25.29a4,4,0,0,0-4-4Zm-7-1.21a.83.83,0,0,1,.83-.83H86a.83.83,0,0,1,.83.83V21.3h-2Zm-28.93,0a.83.83,0,0,1,.83-.83H57a.83.83,0,0,1,.83.83V21.3h-2V20.09ZM94.17,68a2.39,2.39,0,0,1-2.39,2.39H50.83A2.39,2.39,0,0,1,48.44,68h0a3.94,3.94,0,0,0,2.4.8H83.12a4,4,0,0,0,2.82-1.16l8.23-8.24Zm-9-1.81a3.1,3.1,0,0,0,.1-.81V60.11A1.83,1.83,0,0,1,87,58.29h5.31a3.59,3.59,0,0,0,.81-.09Zm9-33.55H60.24a.79.79,0,0,0-.79.8.79.79,0,0,0,.79.79H94.17V54.88a1.82,1.82,0,0,1-1.82,1.82H87a3.41,3.41,0,0,0-3.41,3.41v5.31a1.82,1.82,0,0,1-1.82,1.82h-31a2.4,2.4,0,0,1-2.4-2.39V34.27h8.62a.79.79,0,0,0,.8-.79.8.8,0,0,0-.8-.8H48.44V25.29a2.4,2.4,0,0,1,2.4-2.39h3.4v2.34a2.43,2.43,0,0,0,2.42,2.42.8.8,0,0,0,.8-.8.79.79,0,0,0-.8-.79.83.83,0,0,1-.83-.83V22.9H83.16v2.34a2.43,2.43,0,0,0,2.43,2.42.79.79,0,0,0,.79-.8.79.79,0,0,0-.79-.79.83.83,0,0,1-.83-.83V22.9h7a2.39,2.39,0,0,1,2.39,2.39ZM57,47.31H53.18a1.55,1.55,0,0,0-1.55,1.55v3.79a1.55,1.55,0,0,0,1.55,1.56H57a1.56,1.56,0,0,0,1.56-1.56V48.86A1.56,1.56,0,0,0,57,47.31Zm0,5.31H53.22V48.9h3.71ZM64,44.36h3.79a1.56,1.56,0,0,0,1.56-1.56V39a1.56,1.56,0,0,0-1.56-1.55H64A1.55,1.55,0,0,0,62.45,39V42.8A1.55,1.55,0,0,0,64,44.36Zm0-5.31h3.71v3.72H64ZM74.86,62.46a.8.8,0,0,0-1.59,0,1.55,1.55,0,0,0,1.55,1.56h3.79a1.56,1.56,0,0,0,1.56-1.56V58.71a1.55,1.55,0,0,0-1.56-1.55H74.82a1.54,1.54,0,0,0-1.55,1.55V59.8a.79.79,0,0,0,.79.8.8.8,0,0,0,.8-.8v-1h3.71v3.71ZM64,54.21h3.79a1.56,1.56,0,0,0,1.56-1.56V48.86a1.56,1.56,0,0,0-1.56-1.55H64a1.55,1.55,0,0,0-1.55,1.55v3.79A1.55,1.55,0,0,0,64,54.21Zm0-5.31h3.71v3.72H64Zm0,15.16h3.79a1.56,1.56,0,0,0,1.56-1.56V58.71a1.55,1.55,0,0,0-1.56-1.55H64a1.54,1.54,0,0,0-1.55,1.55V62.5A1.55,1.55,0,0,0,64,64.06Zm0-5.31h3.71v3.71H64Z"/><path d="M26.32,36.25a11.06,11.06,0,1,0,11,11.06A11.07,11.07,0,0,0,26.32,36.25Zm0,2.21a8.85,8.85,0,1,1-8.85,8.85A8.83,8.83,0,0,1,26.32,38.46Zm-1.11,3.32V46.2H20.79v2.21h4.42v4.43h2.21V48.41h4.42V46.2H27.42V41.78Z"/></svg>