<svg id="Calque_1" data-name="Calque 1" xmlns="http://www.w3.org/2000/svg" viewBox="0 0 349 138"><defs><style>.cls-1,.cls-2{fill:#fff;}.cls-1{opacity:0.05;isolation:isolate;}</style></defs><title>aod logo</title><g id="Groupe_5" data-name="Groupe 5"><g id="Calque_2" data-name="Calque 2"><g id="Groupe_3" data-name="Groupe 3"><path id="Tracé_1" data-name="Tracé 1" class="cls-1" d="M44.91,47.55c2.65,0,8.16-1.22,10.41,0,1.43.82,1,1.64,1,3.68v25.1c0,1.23.82,6.33,0,7.35s-7.55.2-9,.2c-2.86,0-2.45.2-2.45-2.65Z"/><g id="Groupe_2" data-name="Groupe 2"><g id="Groupe_1" data-name="Groupe 1"><path id="Tracé_2" data-name="Tracé 2" class="cls-2" d="M347,81c-3.67-3.47-7.14-6.94-10.82-10.62-2,3.27-11,9.6-13.27,3.48-.81-2,0-5.72,0-7.76V24.49c0-1.23.82-5.51,0-6.53-1-1.43-5.3-.62-6.94-.62-1.83,0-10-1.22-11.43,0s-.4,7.76-.4,9.59V39.18c-13.48-10.61-32.25-4.49-39,10.61a37.7,37.7,0,0,0-2.86,11.44,41.55,41.55,0,0,0,.21,7.14c.4,3.06.61,3.27-2.05,4.9-8.77,4.69-19.39,4.49-27.35-1.84,14.09-.61,31.84-13.27,21-28.37-9.19-12.66-29.4-11.64-39.81-1.43a29,29,0,0,0-8.57,23.89c.21,1.22,1.84,5.51,1.64,6.73-.21,1-3.07,2.66-4.09,2.86-4.69,1.43-5.1-3.06-5.51-6.53a161,161,0,0,1-.61-17.15c0-2,1-8.16-.61-9.18-.82-.41-3.68,0-4.5,0h-8c-2.65,0-9.18,1.22-11.43,0-1.63-.82-3.26-5.51-4.69-7.15A21.86,21.86,0,0,0,157.58,29c-6.74-1.43-12.86,2.25-12.25,9.59a16.13,16.13,0,0,0,4.5,9.59,27.66,27.66,0,0,0,3.46,3.47c2.25,1.84,2.45,2.25,2.05,5.31a22.31,22.31,0,0,1-13.88,18,19.08,19.08,0,0,1-11.64,1.23c-2.86-.82-1.63-.41-2-2.86-.61-4.49,0-9.59,0-14.29,0-1.42-.61-4.89,0-6.12s.2-.61,2.25-.82c2.25-.2,5.71.82,7.75,0,2.05-.61,1,.62,1.43-1.63.62-2.45,0-5.51,0-8,0-1,.62-5.71,0-6.53-1.22-1.43-9.18-.2-11.43-.2A13,13,0,0,1,136,26.94c3.26-1,4.28.61,4.9-2.25a48.34,48.34,0,0,0,0-13.27,25.72,25.72,0,0,0-27.36,9.39,24.09,24.09,0,0,0-3.26,5.92c-.82,2.25-.62,5.1-1.63,7.35-1,2.44.2,1-2,1.42-1.22.21-4.08-.61-5.1,0-1.83,1.23-.61,10.62-.61,13.27,0,2.25-.61,2.45,1,3.06,1.43.62,5.92-1,6.94,0,.61.62,0,4.7,0,5.51v9.8c0,2.86-.61,4.08-3.27,5.92-2.45,1.63-9.79,3.68-11.63,0-1.23-2.45,0-8.16,0-10.61V15.09C87.57,16.52,81.45,18,75.12,19.38c.82,6.12,0,13.67,0,20.21,0,10,.41,20.2,0,30.21-.2,4.28-3.88,6.32-8.37,4.89-4.49-1.63-3.47-4.49-3.47-8.57V42c0-1.22.62-4.08,0-5.1-1-2-7.34-.82-9.79-.82-1.84,0-6.13-.81-7.76,0-1.43.82-1,1.84-1,3.88a24.51,24.51,0,0,0-12.86-5.1c-3.06-.2-6.12.61-9.18.61C4.5,40.21-1.42,62.45,6.33,78c8,15.71,26.74,18.78,39.6,7.14a22.09,22.09,0,0,0,15.51,8.17,29.37,29.37,0,0,0,9.39-.82A37.34,37.34,0,0,0,75.33,91c.61-.2,3.47-2.25,3.88-2.25,1,0,4.49,3.07,5.92,3.47a24.2,24.2,0,0,0,8.57,1.23c5.1,0,11.63-1.23,14.9-5.31,0,1.43-.82,6.33.2,7.14,1.23,1,7.56,0,9.19,0,1.84,0,7.55,1,9,0,1-.61.2-5.3.2-6.94,11.43,8,26.33.62,34.5-8.77A43,43,0,0,0,170,63.26c.41-1.83.41-5.3,1.83-5.71,1-.41,3.88.41,4.9.41-2,12.85-1.63,32,14.49,34.49a29,29,0,0,0,20.42-5.31c1.63-1.22,1.63-1.83,3.47-1.43a37,37,0,0,1,4.08,2.05,56,56,0,0,0,10.41,3.46,57,57,0,0,0,21.22.82,64.81,64.81,0,0,0,10.82-2.86,31.57,31.57,0,0,0,5.51-2.45c.41-.2,1-.61,1.43-.81,1-1.23,1.84-1,2.66.2,2.85,1.23,4.89,3.88,8,5.1a25.41,25.41,0,0,0,9.59,1.43,26,26,0,0,0,17.55-7.55c4.29,6.33,13.27,8.37,20.41,7.34C335.57,91.64,341.28,86.54,347,81ZM34.5,76.33c-15.31,0-15.31-25.92,0-25.92S49.81,76.33,34.5,76.33ZM227,60.62c-2.24,0,1.23-7.15,1.64-7.76a6.32,6.32,0,0,1,8.15-1.43c7.56,5.52-6.73,9-9.79,9.19ZM293.73,77c-15.92,0-15.92-26.94,0-26.94S309.85,77,293.73,77Z"/></g></g><path id="Tracé_3" data-name="Tracé 3" class="cls-2" d="M305.15,44.29c2.66,0,8.58-1.23,10.62,0,1.22.61.61,2.65.61,4.29V74.5c0,1.22.82,6.74,0,7.55-.81,1-8,.41-9.39.2-2.65-.4-2-.2-2-3.06V67.76C305.15,60,305.15,52.25,305.15,44.29Z"/><path id="Tracé_4" data-name="Tracé 4" class="cls-2" d="M44.91,47.55h9.8c3.06,0,3.47-.81,4.08,1.64.82,3.06,0,7.14,0,10.2V72.45c0,1.23.82,6.54,0,7.56s-6.94.2-8.37.2c-2,0-4.7.61-5.51-.82-1-1.83,0-7.14,0-9.18Z"/></g></g><g id="Groupe_4" data-name="Groupe 4"><path id="Tracé_5" data-name="Tracé 5" class="cls-2" d="M241.23,118.86q0,8.11-5,8.11t-5-8.24q0-8.26,5-8.27a4.86,4.86,0,0,1,2.25.49,4.12,4.12,0,0,1,1.57,1.53,8.44,8.44,0,0,1,.92,2.62A20.59,20.59,0,0,1,241.23,118.86Zm-3.06-.08a15.44,15.44,0,0,0-.42-4.39,1.52,1.52,0,0,0-1.48-1.25,1.55,1.55,0,0,0-1.5,1.23,15,15,0,0,0-.42,4.32,14.86,14.86,0,0,0,.42,4.3,1.51,1.51,0,0,0,3,0,13.87,13.87,0,0,0,.43-4.21Z"/><path id="Tracé_6" data-name="Tracé 6" class="cls-2" d="M244,110.73h2.95v1.83a3.78,3.78,0,0,1,3.28-2.1A2.92,2.92,0,0,1,253,112a8.19,8.19,0,0,1,.47,3.36v11.38h-3V116a5,5,0,0,0-.39-2.3,1.39,1.39,0,0,0-1.33-.68,2,2,0,0,0-.86.17,1.31,1.31,0,0,0-.56.58,3.09,3.09,0,0,0-.32,1,10.06,10.06,0,0,0-.1,1.56v10.34H244Z"/><path id="Tracé_7" data-name="Tracé 7" class="cls-2" d="M255.13,117.33h5.63v2.41h-5.63Z"/><path id="Tracé_8" data-name="Tracé 8" class="cls-2" d="M271.57,100.46v26.27h-2.95v-2a5.31,5.31,0,0,1-1.27,1.81,2.67,2.67,0,0,1-1.69.49,3,3,0,0,1-2.9-2,16.4,16.4,0,0,1-.93-6.4,24.5,24.5,0,0,1,.23-3.63,9.17,9.17,0,0,1,.7-2.52,3.4,3.4,0,0,1,1.22-1.46,3.22,3.22,0,0,1,1.76-.48,2.71,2.71,0,0,1,1.61.47,3.09,3.09,0,0,1,.63.62,6.44,6.44,0,0,1,.64,1V100.46Zm-6.68,18.2a15.58,15.58,0,0,0,.42,4.41,1.56,1.56,0,0,0,1.51,1.25c.66,0,1.14-.43,1.44-1.3a20.67,20.67,0,0,0,0-8.58c-.3-.86-.78-1.3-1.44-1.3a1.59,1.59,0,0,0-1.5,1.24A14,14,0,0,0,264.89,118.66Z"/><path id="Tracé_9" data-name="Tracé 9" class="cls-2" d="M281.11,121.34h2.75q-.32,5.64-4.64,5.64a4.69,4.69,0,0,1-2.21-.48,3.86,3.86,0,0,1-1.52-1.48,7.45,7.45,0,0,1-.89-2.55,20.6,20.6,0,0,1-.29-3.68,12.94,12.94,0,0,1,1.19-6.28,3.93,3.93,0,0,1,3.65-2q4.82,0,4.81,8.47v.38h-6.75q0,5.13,2,5.13C280.49,124.45,281.11,123.41,281.11,121.34Zm-.15-4.16a11,11,0,0,0-.57-3.31,1.34,1.34,0,0,0-1.3-.88,1.32,1.32,0,0,0-1.3.88,10.66,10.66,0,0,0-.57,3.31Z"/><path id="Tracé_10" data-name="Tracé 10" class="cls-2" d="M286.6,110.73h2.95v2a3.66,3.66,0,0,1,3.25-2.25,3,3,0,0,1,3,2.25,3.66,3.66,0,0,1,3.34-2.25,3.51,3.51,0,0,1,2.57.89,3.56,3.56,0,0,1,.89,2.62v12.76h-3V116.2a5.61,5.61,0,0,0-.34-2.43,1.3,1.3,0,0,0-1.27-.63,1.54,1.54,0,0,0-1.45.65,5.22,5.22,0,0,0-.37,2.41v10.53h-3.06V116.2a11.6,11.6,0,0,0-.09-1.44,2.57,2.57,0,0,0-.29-.94,1.24,1.24,0,0,0-.52-.52,1.86,1.86,0,0,0-.81-.16,1.58,1.58,0,0,0-1.45.69,4.73,4.73,0,0,0-.43,2.37v10.53H286.6Z"/><path id="Tracé_11" data-name="Tracé 11" class="cls-2" d="M315.08,110.73v16h-2.95v-2a5.31,5.31,0,0,1-1.27,1.81,2.67,2.67,0,0,1-1.67.49,3.08,3.08,0,0,1-2.92-2,16.4,16.4,0,0,1-.93-6.4,15,15,0,0,1,.93-6.12,3.07,3.07,0,0,1,2.92-2,3.34,3.34,0,0,1,2.94,2.08v-1.81Zm-6.68,7.93a15.58,15.58,0,0,0,.42,4.41,1.57,1.57,0,0,0,1.52,1.25c.66,0,1.14-.43,1.43-1.3a20.67,20.67,0,0,0,0-8.58c-.3-.86-.78-1.3-1.43-1.3a1.57,1.57,0,0,0-1.5,1.24A14.05,14.05,0,0,0,308.4,118.66Z"/><path id="Tracé_12" data-name="Tracé 12" class="cls-2" d="M318.43,110.73h3v1.83a3.77,3.77,0,0,1,3.27-2.1,3,3,0,0,1,2.79,1.53,8,8,0,0,1,.46,3.36v11.38h-3l0-10.7a4.88,4.88,0,0,0-.38-2.3,1.39,1.39,0,0,0-1.33-.68,2,2,0,0,0-.86.17,1.39,1.39,0,0,0-.57.58,3.07,3.07,0,0,0-.31,1,9,9,0,0,0-.1,1.56v10.34h-3Z"/><path id="Tracé_13" data-name="Tracé 13" class="cls-2" d="M340.39,100.46v26.27h-2.95v-2a5.17,5.17,0,0,1-1.27,1.81,2.65,2.65,0,0,1-1.68.49,3.05,3.05,0,0,1-2.91-2,16.4,16.4,0,0,1-.93-6.4,24.51,24.51,0,0,1,.24-3.63,8.83,8.83,0,0,1,.7-2.52,3.45,3.45,0,0,1,1.21-1.46,3.23,3.23,0,0,1,1.77-.48,2.61,2.61,0,0,1,1.6.47,3.14,3.14,0,0,1,.64.62,6.38,6.38,0,0,1,.63,1V100.46Zm-6.68,18.2a16.35,16.35,0,0,0,.42,4.41,1.57,1.57,0,0,0,1.52,1.25c.66,0,1.14-.43,1.44-1.3a21,21,0,0,0,0-8.58c-.3-.86-.78-1.3-1.44-1.3a1.57,1.57,0,0,0-1.5,1.24A14.05,14.05,0,0,0,333.71,118.66Z"/></g></g></svg>