<?xml version="1.0" encoding="utf-8"?>
<!-- Generator: Adobe Adobe Illustrator 24.2.0, SVG Export Plug-In . SVG Version: 6.00 Build 0)  -->
<svg version="1.1" xmlns="http://www.w3.org/2000/svg" xmlns:xlink="http://www.w3.org/1999/xlink" x="0px" y="0px"
	 viewBox="0 0 2000 770" style="enable-background:new 0 0 2000 770;" xml:space="preserve">
<style type="text/css">
	.st0{opacity:0.051;}
	.st1{display:none;}
	.st2{display:inline;fill:#315666;stroke:#000000;stroke-miterlimit:10;}
	.st3{display:inline;}
	.st4{opacity:0.051;fill:#FFFFFF;}
	.st5{fill:#FFFFFF;}
	.st6{display:inline;fill:#FFF2F2;}
</style>
<g id="Calque_2">
	<g>
		<rect x="435.4" y="335.14" class="st0" width="49.18" height="156.78"/>
		<path class="st0" d="M1444.9,428.98"/>
		<g>
			<g>
				<path d="M1746.23,480.9l-46.88-45.82c-0.01,0.01-0.01,0.03-0.01,0.04c-0.01-0.01-0.03-0.03-0.04-0.04
					c-4,6.31-8.84,11.92-14.3,16.63c-11.13,8.64-25.53,10.82-37.55,4.69c-1.95-1-3.82-2.22-5.59-3.64V206.13
					c0-0.81-0.66-1.47-1.47-1.47h-78.52c-0.81,0-1.47,0.66-1.47,1.47v93.59c-18.3-14.46-40.55-22.95-64.56-22.95
					c-1.46,0-2.91,0.04-4.35,0.1c-1.4-0.06-2.8-0.1-4.21-0.1c-60.27,0-109.13,57.3-109.13,127.97c0,12.25,1.47,24.1,4.21,35.32
					c-25.04,17.69-56.77,26.07-86.78,20.26c-15.98-3.1-31.11-10.48-43.66-20.87c9.11-0.44,18.59-1.83,28.18-4.28
					c42-10.71,72.55-37.99,75.74-65.04c0.67-3.81,1.03-7.71,1.03-11.68c0-44.82-43.82-81.2-98.08-81.67
					c-48.77-2.58-96.74,26.9-116.99,76.47c-12.37,30.3-12.09,62.49-1.64,90.31c-3.96,4.22-8.47,7.83-13.39,10.63
					c-7.52,4.3-18.12,6.09-23.37-1.02c-2.33-3.16-3-7.36-3.52-11.37c-2.65-20.12-3.9-40.48-3.97-66.13
					c0.03-0.12,0.05-0.23,0.05-0.36v-60.29c0-0.75-0.61-1.36-1.36-1.36l-105.87,0c-4.5-12.58-12.9-25.27-24.75-36.05
					c-28.57-25.99-66.32-31.03-84.31-11.26c-18,19.78-9.43,56.88,19.14,82.88c1.43,1.3,2.88,2.53,4.35,3.72
					c0.61,0.54,1.21,1.09,1.84,1.61c2.98,2.51,6.09,4.72,9.29,6.64c0.87,29.9-12.36,60.19-35.55,79.22
					c-24.16,19.83-58.19,26.68-85.42,18.02V356.63h49.7v-70.85H793.8c0.31-1.11,0.63-2.22,1-3.32c6.2-18.46,22.03-32.71,39.92-35.92
					c2.72-0.49,5.49-0.74,8.23-1.11h7.17v-60.71h0c0.05-1.37,0.1-2.76,0.16-4.13l-0.35,0.15l0.19-0.15
					c-33.3-9.43-70.99-1.98-98.1,19.54c-25.69,20.39-41.22,52.9-41.27,85.65h-33.72v70.85h35.28v77.63
					c-8.21,10.83-19.58,19.33-32.79,22.04c-10.97,2.25-23.06-0.26-32.21-7.21V223.64v-3.95v-23.72l0,0v0l-39.75,8.88l0.08,0.12
					l-41.72,9.32l0.6,0.61l-0.2-0.09v4.87h-0.03v223.27c-1.09,1.95-2.97,4.14-6.33,7.03c-0.9,0.77-10.51,5.62-18.69,6.02
					c-7.59,0.37-15.88-3.06-21.97-7.65c-1.62-1.22-3.13-2.62-4.38-3.94V286.64c0-0.47-0.38-0.85-0.85-0.85h-78.99
					c-0.47,0-0.85,0.38-0.85,0.85v16.41c-17.7-13.95-39.23-22.13-62.47-22.13c-1.01,0-2.01,0.02-3.02,0.05
					c-1.05-0.03-2.09-0.05-3.15-0.05c-0.29,0-0.57,0.01-0.85,0.01c-0.23,0-0.47-0.01-0.7-0.01c-8.25,0-16.28,1.04-24.02,2.99
					c-0.26,0.06-0.51,0.13-0.77,0.19c-0.05,0.01-0.1,0.02-0.15,0.04c-23.29,5.77-43.33,18.95-57.05,36.69
					c-17.37,20.13-28.3,49.33-28.3,81.82c0,0.63,0.01,1.26,0.02,1.89c-0.01,0.55-0.02,1.11-0.02,1.66
					c0,69.18,49.37,125.27,110.28,125.27c0.25,0,0.49-0.01,0.73-0.01c0.27,0,0.55,0.01,0.82,0.01c23.36,0,44.83-8.15,61.8-21.78
					c4.55-3.05,8.88-6.47,12.98-10.2c10,13.95,25.26,24.56,42.19,30.25c20.91,7.04,44.12,6.94,65.62,1.72
					c13.06-3.17,26.13-8.82,36.37-16.98c11.78,12.32,35.45,20.74,62.76,20.74c29.16,0,54.19-9.59,65-23.29v31.07h81.02v-29.79
					c12.3,8.69,27.13,13.59,42.01,14.51c21.23,1.32,42.47-4.91,61.4-15.07c47.56-25.54,80.64-77.66,86.76-133.09l24.73,2.22
					c-3.06,18.95-4.21,38.23-3.41,57.43c1.01,24.19,5.72,49.59,21.21,67.78c13.01,15.28,32.51,23.72,52.15,25.4
					c19.63,1.68,39.4-2.94,57.68-10.52c12.76-5.3,25.36-12.53,35.27-22.22c3.03,1.91,6.17,3.69,9.34,5.38
					c42.51,22.65,93.73,31.95,142.75,25.92c32.5-4,63.88-14.72,91.28-30.83c19.31,20.28,44.81,32.62,72.78,32.62
					c1.41,0,2.81-0.04,4.21-0.1c1.45,0.06,2.9,0.1,4.35,0.1c29.08,0,55.59-12.45,75.61-32.9c13.14,19.46,41.1,32.9,73.48,32.9
					c18.33,0,35.23-4.32,48.84-11.58c18.75-8.27,35.63-20.84,48.79-36.55c-0.01-0.02-0.02-0.05-0.03-0.07L1746.23,480.9z
					 M390.66,460.46c-28.01,0-50.72-25.12-50.72-56.1s22.71-56.1,50.72-56.1s50.72,25.12,50.72,56.1S418.67,460.46,390.66,460.46z
					 M566.31,449.05h-0.24c0.08-0.25,0.16-0.51,0.24-0.78V449.05z M915.15,363.46c-0.04-0.62-0.09-1.23-0.15-1.85
					c0.09,0.05,0.18,0.1,0.27,0.15C915.23,362.33,915.18,362.89,915.15,363.46z M1091.42,400.14c-0.03-0.11-0.06-0.22-0.1-0.33
					c0.04-0.07,0.09-0.13,0.13-0.2C1091.45,399.78,1091.44,399.96,1091.42,400.14z M1143.75,453.17c0.1-0.17,0.19-0.34,0.29-0.51
					c0.03,0.07,0.06,0.13,0.09,0.2C1144,452.95,1143.88,453.06,1143.75,453.17z M1211.97,480.05c0.07-0.14,0.14-0.28,0.21-0.42
					c0.16,0.13,0.31,0.27,0.47,0.4L1211.97,480.05z M1225.08,392.27c-0.95,0.11-1.84-0.56-1.95-1.51
					c-1.47-12.39,2.5-25.69,11.11-33.89c9-8.58,22.96-10.67,33.16-4.05c3.67,2.38,6.91,5.99,7.97,10.54
					c1.64,7.01-2.39,14.46-7.9,18.46c-5.51,4-12.21,5.32-18.7,6.55C1240.99,389.84,1233.22,391.32,1225.08,392.27z M1515.36,462.99
					c-29.29,0-53.03-26.15-53.03-58.41c0-32.26,23.74-58.41,53.03-58.41c29.29,0,53.03,26.15,53.03,58.41
					C1568.39,436.84,1544.65,462.99,1515.36,462.99z"/>
			</g>
		</g>
		<rect x="1564.32" y="321.61" width="49.18" height="164.46"/>
		<rect x="435.4" y="335.14" width="59.94" height="141.41"/>
	</g>
</g>
<g id="Calque_3" class="st1">
	<rect x="-40" y="-40" class="st2" width="2080" height="2080"/>
	<g id="Calque_4" class="st3">
	</g>
	<g class="st3">
		<rect x="435.23" y="940.98" class="st4" width="51.39" height="170.01"/>
		<path class="st4" d="M1490.06,1042.74"/>
		<g>
			<g>
				<path class="st5" d="M1804.93,1099.05l-48.99-49.69c-0.01,0.01-0.01,0.03-0.02,0.04c-0.01-0.02-0.03-0.03-0.04-0.04
					c-4.18,6.85-9.24,12.92-14.94,18.03c-11.63,9.37-26.67,11.74-39.23,5.09c-2.04-1.08-3.99-2.41-5.84-3.94V800.95
					c0-0.81-0.66-1.47-1.47-1.47h-82.18c-0.81,0-1.47,0.66-1.47,1.47v101.62c-19.12-15.68-42.37-24.89-67.45-24.89
					c-1.52,0-3.04,0.05-4.55,0.11c-1.46-0.07-2.92-0.11-4.4-0.11c-62.98,0-114.03,62.13-114.03,138.78c0,13.29,1.54,26.14,4.4,38.3
					c-26.16,19.18-59.32,28.28-90.67,21.97c-16.69-3.36-32.5-11.36-45.61-22.62c9.52-0.48,19.42-2,29.44-4.65
					c43.89-11.62,75.81-41.2,79.14-70.53c0.7-4.14,1.08-8.36,1.08-12.67c0-48.6-45.78-88.06-102.48-88.57
					c-50.97-2.8-101.09,29.17-122.25,82.93c-12.93,32.86-12.64,67.76-1.71,97.93c-4.14,4.57-8.86,8.49-13.99,11.53
					c-7.86,4.66-18.93,6.6-24.42-1.11c-2.44-3.42-3.13-7.98-3.68-12.33c-2.77-21.8-4.07-43.85-4.14-71.62
					c0.03-0.12,0.06-0.24,0.06-0.37v-65.61c0-0.75-0.61-1.36-1.36-1.36l-110.68,0c-4.7-13.64-13.47-27.4-25.86-39.09
					c-29.85-28.19-69.29-33.65-88.1-12.21c-18.8,21.45-9.85,61.68,20,89.87c1.49,1.41,3.01,2.74,4.55,4.04
					c0.63,0.59,1.27,1.18,1.93,1.75c3.11,2.72,6.37,5.11,9.7,7.2c0.91,32.43-12.92,65.27-37.15,85.91
					c-25.25,21.51-60.81,28.93-89.26,19.54V964.28h51.93v-76.83h-51.46c0.32-1.21,0.66-2.41,1.04-3.59
					c6.47-20.02,23.02-35.47,41.72-38.95c2.85-0.53,5.74-0.81,8.6-1.21h7.5v-65.84h-0.01c0.06-1.49,0.11-2.99,0.17-4.48l-0.36,0.17
					l0.2-0.17c-34.79-10.22-74.18-2.14-102.5,21.19c-26.84,22.11-43.07,57.36-43.12,92.88h-35.24v76.83h36.87v84.18
					c-8.58,11.74-20.46,20.96-34.26,23.91c-11.46,2.44-24.1-0.28-33.66-7.82V820.06v-4.28v-25.72v0l-41.54,9.63l0.08,0.13
					l-43.59,10.11l0.63,0.66l-0.21-0.1v5.28h-0.04v242.12c-1.14,2.12-3.1,4.49-6.62,7.63c-0.94,0.84-10.98,6.09-19.53,6.53
					c-7.93,0.41-16.59-3.32-22.96-8.3c-1.7-1.33-3.27-2.84-4.58-4.27V888.31c0-0.47-0.38-0.85-0.85-0.85h-82.62
					c-0.47,0-0.85,0.38-0.85,0.85v17.87c-18.49-15.12-40.99-24-65.27-24c-1.05,0-2.11,0.02-3.15,0.05
					c-1.09-0.03-2.19-0.05-3.29-0.05c-0.3,0-0.59,0.01-0.89,0.01c-0.24,0-0.49-0.01-0.73-0.01c-8.62,0-17.01,1.12-25.09,3.24
					c-0.27,0.07-0.54,0.14-0.81,0.21c-0.05,0.01-0.1,0.03-0.15,0.04c-24.33,6.25-45.28,20.55-59.61,39.78
					c-18.15,21.83-29.57,53.49-29.57,88.73c0,0.68,0.01,1.36,0.02,2.05c-0.01,0.6-0.02,1.2-0.02,1.8
					c0,75.02,51.59,135.84,115.23,135.84c0.26,0,0.51-0.01,0.77-0.01c0.29,0,0.57,0.01,0.86,0.01c24.4,0,46.84-8.83,64.58-23.62
					c4.76-3.3,9.28-7.01,13.56-11.06c10.45,15.13,26.4,26.63,44.09,32.81c21.85,7.63,46.1,7.53,68.57,1.87
					c13.65-3.44,27.31-9.57,38-18.42c12.31,13.36,37.05,22.49,65.58,22.49c30.47,0,56.62-10.4,67.92-25.26v33.69h84.66v-32.31
					c12.85,9.42,28.35,14.74,43.9,15.74c22.19,1.43,44.37-5.32,64.16-16.35c49.7-27.69,84.26-84.21,90.66-144.32l25.84,2.41
					c-3.2,20.55-4.4,41.46-3.56,62.28c1.06,26.23,5.98,53.78,22.16,73.5c13.59,16.57,33.97,25.72,54.49,27.55
					s41.17-3.18,60.27-11.41c13.34-5.74,26.5-13.59,36.85-24.1c3.17,2.07,6.45,4,9.76,5.83c44.42,24.56,97.93,34.64,149.16,28.11
					c33.96-4.33,66.75-15.96,95.38-33.43c20.18,21.99,46.83,35.37,76.04,35.37c1.47,0,2.94-0.05,4.4-0.11
					c1.51,0.07,3.03,0.11,4.55,0.11c30.39,0,58.09-13.5,79.01-35.67c13.73,21.1,42.95,35.67,76.78,35.67
					c19.15,0,36.81-4.68,51.04-12.56c19.6-8.97,37.23-22.6,50.99-39.64c-0.01-0.02-0.03-0.06-0.04-0.08L1804.93,1099.05z
					 M388.47,1076.88c-29.27,0-53-27.24-53-60.84s23.73-60.84,53-60.84s53,27.24,53,60.84S417.75,1076.88,388.47,1076.88z
					 M572.01,1064.51h-0.25c0.09-0.27,0.17-0.55,0.25-0.85V1064.51z M936.52,971.69c-0.04-0.67-0.1-1.34-0.15-2.01
					c0.09,0.06,0.19,0.11,0.28,0.17C936.6,970.46,936.56,971.08,936.52,971.69z M1120.71,1011.46c-0.03-0.12-0.07-0.24-0.1-0.36
					c0.05-0.07,0.1-0.14,0.14-0.21C1120.74,1011.08,1120.73,1011.27,1120.71,1011.46z M1175.39,1068.97c0.1-0.18,0.2-0.37,0.3-0.56
					c0.03,0.07,0.06,0.14,0.1,0.21C1175.65,1068.74,1175.52,1068.85,1175.39,1068.97z M1246.67,1098.13
					c0.07-0.15,0.15-0.31,0.22-0.46c0.17,0.14,0.33,0.29,0.5,0.43L1246.67,1098.13z M1260.37,1002.93
					c-0.99,0.12-1.92-0.61-2.04-1.64c-1.54-13.43,2.62-27.86,11.61-36.75c9.41-9.3,23.99-11.57,34.64-4.39
					c3.83,2.58,7.22,6.49,8.33,11.43c1.71,7.6-2.5,15.68-8.25,20.02s-12.76,5.77-19.54,7.1
					C1277,1000.3,1268.88,1001.9,1260.37,1002.93z M1563.69,1079.62c-30.6,0-55.41-28.36-55.41-63.34
					c0-34.98,24.81-63.34,55.41-63.34c30.6,0,55.41,28.36,55.41,63.34C1619.1,1051.26,1594.29,1079.62,1563.69,1079.62z"/>
			</g>
		</g>
		<rect x="1614.85" y="926.31" class="st5" width="51.39" height="178.35"/>
		<rect x="435.23" y="940.98" class="st5" width="62.64" height="153.34"/>
	</g>
	<rect x="1983.51" y="-461.54" class="st6" width="35" height="35"/>
</g>
</svg>
