<?xml version="1.0" encoding="utf-8"?>
<!-- Generator: Adobe Illustrator 22.1.0, SVG Export Plug-In . SVG Version: 6.00 Build 0)  -->
<svg style="enable-background:new 0 0 500 500;" id="Calque_1" version="1.1" viewBox="0 0 500 500" x="0px"
     xmlns="http://www.w3.org/2000/svg" y="0px" xml:space="preserve">
<style type="text/css">
	.st0{fill:#4FBDD7;}
	.st1{fill:#EAEAEA;}
	.st2{fill:#FFFFFF;}
	.st3{fill:#4FBDD7;stroke:#FFFFFF;stroke-width:5;stroke-miterlimit:10;}
	.st4{fill:#8C8C8C;}
	.st5{fill:#070707;}
	.st6{fill:none;stroke:#FFFFFF;stroke-width:7;stroke-miterlimit:10;}
	.st7{fill:none;stroke:#FFFFFF;stroke-width:10;stroke-miterlimit:10;}
	.st8{fill:#FFFFFF;stroke:#FFFFFF;stroke-width:3;stroke-miterlimit:10;}
	.st9{fill:none;stroke:#FDFFFF;stroke-width:6;stroke-miterlimit:10;}
	.st10{fill:#FAFEFF;}
	.st11{fill:none;stroke:#FFFFFF;stroke-width:2;stroke-miterlimit:10;}
	.st12{fill:#FFFFFF;stroke:#FFFFFF;stroke-width:2;stroke-miterlimit:10;}
	.st13{fill:#4FBDD7;stroke:#FFFFFF;stroke-width:4;stroke-miterlimit:10;}
	.st14{fill:#FFFFFF;stroke:#FFFFFF;stroke-width:4;stroke-miterlimit:10;}
	.st15{fill:none;stroke:#FFFFFF;stroke-miterlimit:10;}
	.st16{fill:#FFFFFF;stroke:#FFFFFF;stroke-width:13;stroke-miterlimit:10;}
	.st17{fill:#4FBDD7;stroke:#FFFFFF;stroke-width:8;stroke-miterlimit:10;}
	.st18{fill:#FFFFFF;stroke:#FFFFFF;stroke-width:0.75;stroke-miterlimit:10;}
	.st19{fill:#FFFFFF;stroke:#FFFFFF;stroke-width:0.5;stroke-miterlimit:10;}
	.st20{fill:#FFFFFF;stroke:#FFFFFF;stroke-width:8;stroke-miterlimit:10;}
	.st21{fill:#FFFFFF;stroke:#FFFFFF;stroke-miterlimit:10;}
	.st22{fill:#FFFFFF;stroke:#FFFFFF;stroke-width:11;stroke-miterlimit:10;}
	.st23{fill:#FFFFFF;stroke:#FFFFFF;stroke-width:6;stroke-miterlimit:10;}
	.st24{fill:#8C8C8C;stroke:#8C8C8C;stroke-width:4;stroke-miterlimit:10;}
	.st25{fill:#FFFFFF;stroke:#FFFFFF;stroke-width:1.05;stroke-miterlimit:10;}
	.st26{fill:none;stroke:#4FBDD7;stroke-width:5;stroke-miterlimit:10;}
	.st27{fill:none;stroke:#FFFFFF;stroke-width:4;stroke-miterlimit:10;}
	.st28{fill:#8C8C8C;stroke:#FFFFFF;stroke-width:4;stroke-miterlimit:10;}
	.st29{fill:#FFFFFF;stroke:#FFFFFF;stroke-width:10;stroke-miterlimit:10;}
	.st30{fill:none;stroke:#4FBDD7;stroke-width:2;stroke-miterlimit:10;}
	.st31{fill-rule:evenodd;clip-rule:evenodd;fill:#FFFFFF;}
	.st32{fill:#FFFFFF;stroke:#FFFFFF;stroke-width:7;stroke-miterlimit:10;}
	.st33{fill:#FFFFFF;stroke:#4FBDD7;stroke-width:7;stroke-miterlimit:10;}
	.st34{fill:none;}
	.st35{font-family:'HelveticaNeue-CondensedBold';}
	.st36{font-size:54px;}
	.st37{fill:#FCFCFC;}
	.st38{fill:#FFFFFF;stroke:#FFFFFF;stroke-width:5;stroke-miterlimit:10;}
	.st39{fill:none;stroke:#FFFFFF;stroke-width:3;stroke-miterlimit:10;}
	.st40{fill:none;stroke:#FFFFFF;stroke-width:8;stroke-miterlimit:10;}
	.st41{fill:none;stroke:#FFFFFF;stroke-width:6;stroke-miterlimit:10;}
	.st42{fill:#FFFFFF;stroke:#4FBDD7;stroke-width:3;stroke-miterlimit:10;}
	.st43{fill:none;stroke:#FFFFFF;stroke-width:0.75;stroke-miterlimit:10;}
	.st44{fill:#4FBDD7;stroke:#FFFFFF;stroke-width:9;stroke-miterlimit:10;}
	.st45{fill:none;stroke:#FFFFFF;stroke-width:9;stroke-miterlimit:10;}
	.st46{fill:none;stroke:#4FBDD7;stroke-width:3;stroke-miterlimit:10;}
</style>
    <rect class="st0" height="500" width="500" x="0"/>
    <g>
	<rect class="st34" height="144" width="500" x="1" y="362"/>
        <text transform="matrix(1 0 0 1 172.0801 400.5557)"><tspan class="st2 st35 st36" x="0" y="0">Bois de </tspan>
            <tspan class="st2 st35 st36" x="-55.9" y="64.8">construction</tspan></text>
</g>
    <path class="st2" d="M116.3,186.6c5.6-8.4,10.8-14.8,14.2-22c2.8-5.9,2.9-13,4.9-19.3c1.8-5.8,3-13.5,7.2-16.3
	c7.3-4.8,8.5-10.1,8.4-17.7c-0.2-26.9,21.8-40.3,45.3-27c52.7,29.9,104.9,60.5,157.4,90.8c1.2,0.7,2.9,1,3.5,1.9
	c6.3,10.6,12.4,21.4,18.7,32c1.3,2.2,2.2,4.7,4.1,6.3c17.6,14.7,15.9,34.2-3.9,45.4c-21.7,12.3-43.5,24.5-64.8,37.4
	c-7.5,4.6-13.6,4.6-21,0.3c-53.7-30.9-107.7-61.4-161.1-92.7C123.8,202.7,121.5,194.7,116.3,186.6z M348.7,178.1
	c-14.3-8.3-27.6-16.1-41-23.8c-37.1-21.1-74.6-41.6-111.4-63.3c-17.1-10.1-20.4-10.5-34.2,5.7c49.9,28.7,100,56.8,149.1,86.4
	C325.6,191.9,336.2,191.3,348.7,178.1z M309.3,255.8c3.6-13.1,1-20.6-10.7-27c-44.6-24.5-88.5-50.2-132.7-75.4
	c-7.6-4.3-15.3-8.4-23.8-13c-4.2,11.9-2.9,18.7,7.7,24.5c44.1,24.5,87.7,49.9,131.4,75C290.5,245.2,299.7,250.4,309.3,255.8z
	 M157.8,101.8c-2.6,11.7-2.2,18.7,8,24.4c50.8,28.7,101.1,58.2,151.6,87.3c2,1.2,4.6,1.3,7.1,2c2.2-17.8,2.2-17.9-11.9-26.1
	c-15.4-9-30.8-17.9-46.4-26.6C230.7,142.6,195,122.7,157.8,101.8z M127.1,178.4c-4.2,14.1,0,21.1,10.7,27
	c44,24.5,87.4,49.9,131.2,74.9c8.2,4.7,16.6,8.9,25.2,13.5c3.9-13.3,0.5-20.5-10.7-26.4c-26.4-13.9-52-29.3-77.9-44.1
	C179.7,208.6,154,193.8,127.1,178.4z M308,262.3c-1.8-1.5-2.8-2.6-3.9-3.2c-52.2-29.9-104.5-59.7-156.6-89.8
	c-8.3-4.8-13-1.8-18.1,4.6c53.2,30.4,105.9,60.3,158.3,90.6C295.4,269,301.5,270.3,308,262.3z M322,227.8c0-1.9,0.1-3.9,0.1-5.8
	c-47.9-27.4-95.9-54.9-143.8-82.3c-5.4-3.1-10.8-6.5-16.7-8.2c-4.6-1.3-9.9-0.3-17.7-0.3c3.5,3.7,4.2,4.9,5.3,5.6
	c52.4,30.4,104.7,60.9,157.4,90.8C310.5,229.8,316.8,227.8,322,227.8z M331.5,278.7c25.8-10.9,27.6-13.6,22.6-34.2
	C329.5,254.7,329.5,254.7,331.5,278.7z M354.4,184c-25.8,11.9-28,15.5-21.2,34.1C357.1,207.6,358.3,205.8,354.4,184z M361.8,261.4
	c24.7-10.3,28.1-15.8,21.6-33.8C359.9,237.2,358.7,239.1,361.8,261.4z M316.8,256.7c23-6.8,25.8-11,22.2-32.9
	C315.5,231.8,312.8,235.7,316.8,256.7z M301.4,295.8c23.5-10.2,28.3-11.1,21.8-33.8C300.2,272.4,300.2,272.4,301.4,295.8z
	 M346.6,239.6c24.1-8.8,25.9-11.3,22.6-32.7C346.8,212.6,343.8,216.8,346.6,239.6z"/>
</svg>
