<?xml version="1.0" encoding="utf-8"?>
<!-- Generator: Adobe Illustrator 22.1.0, SVG Export Plug-In . SVG Version: 6.00 Build 0)  -->
<svg version="1.1" id="Calque_1" xmlns="http://www.w3.org/2000/svg" x="0px" y="0px"
     viewBox="0 0 500 500" style="enable-background:new 0 0 500 500;" xml:space="preserve">
<style type="text/css">
	.st0{fill:#EAEAEA;}
	.st1{fill:#8C8C8C;}
	.st2{fill:#FFFFFF;}
	.st3{fill:#EAEAEA;stroke:#8C8C8C;stroke-width:7;stroke-miterlimit:10;}
	.st4{fill:#070707;}
	.st5{fill:none;stroke:#8C8C8C;stroke-width:7;stroke-miterlimit:10;}
	.st6{fill:none;stroke:#8C8C8C;stroke-width:10;stroke-miterlimit:10;}
	.st7{fill:#8C8C8C;stroke:#8C8C8C;stroke-width:3;stroke-miterlimit:10;}
	.st8{fill:none;stroke:#8C8C8C;stroke-width:8;stroke-miterlimit:10;}
	.st9{fill:none;stroke:#8E8E8E;stroke-width:6;stroke-miterlimit:10;}
	.st10{fill:#8E8E8E;}
	.st11{fill:#505050;}
	.st12{fill:none;stroke:#8E8E8E;stroke-width:2;stroke-miterlimit:10;}
	.st13{fill:#8C8C8C;stroke:#8C8C8C;stroke-width:2;stroke-miterlimit:10;}
	.st14{fill:#8C8C8C;stroke:#FFFFFF;stroke-width:2;stroke-miterlimit:10;}
	.st15{fill:none;stroke:#FFFFFF;stroke-width:2;stroke-miterlimit:10;}
	.st16{fill:none;stroke:#8C8C8C;stroke-miterlimit:10;}
	.st17{fill:none;stroke:#8C8C8C;stroke-width:13;stroke-miterlimit:10;}
	.st18{fill:#EAEAEA;stroke:#8C8C8C;stroke-width:8;stroke-miterlimit:10;}
	.st19{fill:none;stroke:#8C8C8C;stroke-width:4;stroke-miterlimit:10;}
	.st20{fill:#8C8C8C;stroke:#8C8C8C;stroke-width:0.75;stroke-miterlimit:10;}
	.st21{fill:none;stroke:#8C8C8C;stroke-width:9;stroke-miterlimit:10;}
	.st22{fill:#8C8C8C;stroke:#8C8C8C;stroke-width:0.5;stroke-miterlimit:10;}
	.st23{fill:none;}
	.st24{fill:#6B6B6B;}
	.st25{font-family:'HelveticaNeue-CondensedBold';}
	.st26{font-size:54px;}
	.st27{stroke:#8C8C8C;stroke-width:8;stroke-miterlimit:10;}
	.st28{fill:#8C8C8C;stroke:#8C8C8C;stroke-miterlimit:10;}
	.st29{fill:none;stroke:#8C8C8C;stroke-width:11;stroke-miterlimit:10;}
	.st30{fill:none;stroke:#8C8C8C;stroke-width:6;stroke-miterlimit:10;}
	.st31{stroke:#8C8C8C;stroke-width:6;stroke-miterlimit:10;}
	.st32{fill:#8C8C8C;stroke:#8C8C8C;stroke-width:4;stroke-miterlimit:10;}
	.st33{fill:#8C8C8C;stroke:#8C8C8C;stroke-width:1.05;stroke-miterlimit:10;}
	.st34{fill:#D6D6D6;}
	.st35{fill:none;stroke:#EAEAEA;stroke-width:5;stroke-miterlimit:10;}
	.st36{fill:#8C8C8C;stroke:#8C8C8C;stroke-width:10;stroke-miterlimit:10;}
	.st37{fill:none;stroke:#CECECE;stroke-width:2;stroke-miterlimit:10;}
	.st38{fill:none;stroke:#FFFFFF;stroke-width:4;stroke-miterlimit:10;}
	.st39{fill-rule:evenodd;clip-rule:evenodd;fill:#8C8C8C;}
	.st40{fill:#8C8C8C;stroke:#8C8C8C;stroke-width:8;stroke-miterlimit:10;}
	.st41{fill:#8C8C8C;stroke:#8C8C8C;stroke-width:7;stroke-miterlimit:10;}
	.st42{fill:#DBDBDB;stroke:#8C8C8C;stroke-width:7;stroke-miterlimit:10;}
	.st43{fill:none;stroke:#8C8C8C;stroke-width:5;stroke-miterlimit:10;}
	.st44{fill:none;stroke:#8C8C8C;stroke-width:3;stroke-miterlimit:10;}
	.st45{clip-path:url(#SVGID_2_);fill:#8C8C8C;}
	.st46{clip-path:url(#SVGID_2_);fill:none;stroke:#8C8C8C;stroke-width:8;stroke-miterlimit:10;}
	.st47{clip-path:url(#SVGID_2_);fill:#FFFFFF;}
	.st48{clip-path:url(#SVGID_2_);fill:#EAEAEA;}
	.st49{clip-path:url(#SVGID_2_);fill:none;stroke:#8C8C8C;stroke-miterlimit:10;}
	.st50{fill:none;stroke:#FFFFFF;stroke-width:0.75;stroke-miterlimit:10;}
	.st51{fill:none;stroke:#8C8C8C;stroke-width:14;stroke-miterlimit:10;}
	.st52{fill:none;stroke:#EAEAEA;stroke-width:2;stroke-miterlimit:10;}
	.st53{fill:none;stroke:#8C8C8C;stroke-width:2;stroke-miterlimit:10;}
</style>
<rect y="-1" class="st0" width="500" height="500"/>
<g>
	<g>
		<path class="st1" d="M426.9,146.4L370.2,106c-1.8-1.3-4.1-1.3-5.9-0.1c-1.8,1.2-2.7,3.3-2.3,5.5l6.9,33.8l-61.1,99.5l-10-45.7
			c-0.5-2.3-2.4-3.9-4.7-4.1c-5.7-19.2-17.3-36.5-33-49.1c-17.4-13.9-39.3-21.6-61.6-21.6c-45,0-84.2,30.4-95.5,74
			c-0.7,2.8,1,5.7,3.8,6.4c2.8,0.7,5.7-1,6.4-3.8c10-38.9,45.1-66.1,85.3-66.1c19.9,0,39.5,6.8,55,19.3
			c13.2,10.6,23.2,24.9,28.5,40.8h-11.2c-4.9-12.8-13.1-24-23.9-32.6c-13.9-11.1-30.6-17-48.4-17c-42.7,0-77.5,34.8-77.5,77.5
			c0,24.4,11.5,47.3,30.9,61.9l-2.4,11.2c-8.1-6.8-38.4-33.6-39-73.1c-0.1-8.1,1-15.5,2.8-22c-0.7,2.8-3.6,4.5-6.4,3.8
			c-2.8-0.7-4.5-3.6-3.8-6.4c-2,7.4-3.3,15.6-3.1,24.6c0.7,46.1,38.1,77,47.1,84.1l-3.8,17.3c-0.3,1.6,0,3.2,1,4.4
			c1,1.2,2.5,2,4.1,2h9.5h152.6h9.5c1.6,0,3.1-0.7,4.1-2c0.3-0.4,0.5-0.8,0.7-1.2c0,0,0,0,0-0.1L377.6,203c1.1-2.7-0.1-5.8-2.8-6.9
			c-2.7-1.1-5.8,0.1-6.9,2.8l-46.2,109l-10.6-48.4L376,153.7l8.5,6.1l-10.3,24.3c-1.1,2.7,0.1,5.8,2.8,6.9c0.7,0.3,1.4,0.4,2.1,0.4
			c2.1,0,4-1.2,4.9-3.2l10.9-25.7l30.2-6.6c2-0.4,3.6-2.1,4-4.1C429.4,149.7,428.6,147.6,426.9,146.4z M131.6,222.7
			c0-36.9,30-66.9,66.9-66.9c15.4,0,29.8,5.1,41.8,14.7c8.2,6.6,14.7,14.9,19,24.3h-83.5c-2.5,0-4.6,1.7-5.2,4.1l-16.2,74.2
			C140.1,260.5,131.6,242.1,131.6,222.7z M300,338.1H168.5v-7.7H300V338.1z M313.5,319.9H155l25.1-114.6h108.3L313.5,319.9z
			 M392.1,152.3l-12.9-9.2l-4.2-20.7l36.1,25.8L392.1,152.3z"/>
	</g>
</g>
<rect x="367.7" y="159.6" transform="matrix(0.919 0.3942 -0.3942 0.919 108.8371 -130.8783)" class="st1" width="10.5" height="79.8"/>
<g>
	<rect x="9" y="366" class="st23" width="500" height="144"/>
	<text transform="matrix(1 0 0 1 172.6284 404.5557)" class="st24 st25 st26">Arrosoir</text>
</g>
</svg>
