<?xml version="1.0" encoding="utf-8"?>
<!-- Generator: Adobe Illustrator 22.1.0, SVG Export Plug-In . SVG Version: 6.00 Build 0)  -->
<svg version="1.1" id="Calque_1" xmlns="http://www.w3.org/2000/svg" x="0px" y="0px"
     viewBox="0 0 500 500" style="enable-background:new 0 0 500 500;" xml:space="preserve">
<style type="text/css">
	.st0{fill:#4FBDD7;}
	.st1{fill:#EAEAEA;}
	.st2{fill:none;}
	.st3{fill:#FFFFFF;}
	.st4{font-family:'HelveticaNeue-CondensedBold';}
	.st5{font-size:54px;}
	.st6{fill:#4FBDD7;stroke:#FFFFFF;stroke-width:5;stroke-miterlimit:10;}
	.st7{fill:#8C8C8C;}
	.st8{fill:#070707;}
	.st9{fill:none;stroke:#FFFFFF;stroke-width:7;stroke-miterlimit:10;}
	.st10{fill:none;stroke:#FFFFFF;stroke-width:10;stroke-miterlimit:10;}
	.st11{fill:#FFFFFF;stroke:#FFFFFF;stroke-width:3;stroke-miterlimit:10;}
	.st12{fill:none;stroke:#FDFFFF;stroke-width:6;stroke-miterlimit:10;}
	.st13{fill:#FAFEFF;}
	.st14{fill:none;stroke:#FFFFFF;stroke-width:2;stroke-miterlimit:10;}
	.st15{fill:#FFFFFF;stroke:#FFFFFF;stroke-width:2;stroke-miterlimit:10;}
	.st16{fill:#4FBDD7;stroke:#FFFFFF;stroke-width:4;stroke-miterlimit:10;}
	.st17{fill:#FFFFFF;stroke:#FFFFFF;stroke-width:4;stroke-miterlimit:10;}
	.st18{fill:none;stroke:#FFFFFF;stroke-miterlimit:10;}
	.st19{fill:#FFFFFF;stroke:#FFFFFF;stroke-width:13;stroke-miterlimit:10;}
	.st20{fill:#4FBDD7;stroke:#FFFFFF;stroke-width:8;stroke-miterlimit:10;}
	.st21{fill:#FFFFFF;stroke:#FFFFFF;stroke-width:0.75;stroke-miterlimit:10;}
	.st22{fill:#FFFFFF;stroke:#FFFFFF;stroke-width:0.5;stroke-miterlimit:10;}
	.st23{fill:#FFFFFF;stroke:#FFFFFF;stroke-width:8;stroke-miterlimit:10;}
	.st24{fill:#FFFFFF;stroke:#FFFFFF;stroke-miterlimit:10;}
	.st25{fill:#FFFFFF;stroke:#FFFFFF;stroke-width:11;stroke-miterlimit:10;}
	.st26{fill:#FFFFFF;stroke:#FFFFFF;stroke-width:6;stroke-miterlimit:10;}
	.st27{fill:#8C8C8C;stroke:#8C8C8C;stroke-width:4;stroke-miterlimit:10;}
	.st28{fill:#FFFFFF;stroke:#FFFFFF;stroke-width:1.05;stroke-miterlimit:10;}
	.st29{fill:none;stroke:#4FBDD7;stroke-width:5;stroke-miterlimit:10;}
	.st30{fill:none;stroke:#FFFFFF;stroke-width:4;stroke-miterlimit:10;}
	.st31{fill:#8C8C8C;stroke:#FFFFFF;stroke-width:4;stroke-miterlimit:10;}
	.st32{fill:#FFFFFF;stroke:#FFFFFF;stroke-width:10;stroke-miterlimit:10;}
	.st33{fill:none;stroke:#4FBDD7;stroke-width:2;stroke-miterlimit:10;}
	.st34{fill-rule:evenodd;clip-rule:evenodd;fill:#FFFFFF;}
	.st35{fill:#FFFFFF;stroke:#FFFFFF;stroke-width:7;stroke-miterlimit:10;}
	.st36{fill:#FFFFFF;stroke:#4FBDD7;stroke-width:7;stroke-miterlimit:10;}
	.st37{fill:#FCFCFC;}
	.st38{fill:#FFFFFF;stroke:#FFFFFF;stroke-width:5;stroke-miterlimit:10;}
	.st39{fill:none;stroke:#FFFFFF;stroke-width:3;stroke-miterlimit:10;}
	.st40{fill:none;stroke:#FFFFFF;stroke-width:8;stroke-miterlimit:10;}
	.st41{fill:none;stroke:#FFFFFF;stroke-width:6;stroke-miterlimit:10;}
	.st42{fill:#FFFFFF;stroke:#4FBDD7;stroke-width:3;stroke-miterlimit:10;}
	.st43{fill:none;stroke:#FFFFFF;stroke-width:0.75;stroke-miterlimit:10;}
	.st44{fill:#4FBDD7;stroke:#FFFFFF;stroke-width:9;stroke-miterlimit:10;}
	.st45{fill:none;stroke:#FFFFFF;stroke-width:9;stroke-miterlimit:10;}
	.st46{fill:none;stroke:#4FBDD7;stroke-width:3;stroke-miterlimit:10;}
</style>
<rect x="0" y="-5" class="st0" width="500" height="514"/>
<g>
	<rect x="1" y="363" class="st2" width="500" height="144"/>
	<text transform="matrix(1 0 0 1 182.0698 401.5557)" class="st3 st4 st5">Aviron</text>
</g>
<g>
	<path class="st3" d="M360.7,254.4c-8.7-8.7-20.1-13.8-32.3-14.4l-14.3-14.3c22.5-23.4,41.7-50.3,52.9-74.4c8.9-19,17.8-47.2,3-62
		c-14.9-14.9-43.4-5.9-62.5,3.1c-27.5,13-55.5,35.1-73.9,52.8c-3,3-6,6-8.9,8.9c-22.5,23.3-41.3,49.9-52.3,73.7
		c-8.8,19-17,46.5-2.3,61.3c14.7,14.7,42.3,6.5,61.3-2.3c23.8-11,50.4-29.8,73.7-52.3l14.3,14.3c0.7,12.2,5.7,23.6,14.4,32.3
		l14.2,14.2c1.2,1.2,2.9,1.9,4.5,1.9c1.6,0,3.2-0.6,4.5-1.9l17.9-17.9c1.2-1.2,1.9-2.8,1.9-4.5c0-1.7-0.7-3.3-1.9-4.5L360.7,254.4z
		 M314.3,131.4c11.2-6.4,19.7-9.9,25.3-11.6c-1.7,5.5-5.2,14.1-11.6,25.3c-1.8,3.2-3.9,6.7-6.4,10.6l-17.8-17.8
		C307.5,135.3,311.1,133.2,314.3,131.4 M225.2,247.8c-10.9,6.1-19.3,9.5-24.8,11.1c1.6-5.5,5-13.8,11.1-24.7c1.8-3.2,4-6.9,6.5-10.8
		l18,18C232,243.9,228.4,246,225.2,247.8 M246.7,234.1l-21.5-21.5c6.8-9.5,15.5-20.3,26.3-31.6l26.7,26.7
		C267,218.7,256.2,227.3,246.7,234.1 M287.2,198.9l-26.7-26.7c11.6-11.1,22.7-20.1,32.5-27.1l21.3,21.3
		C307.3,176.2,298.4,187.3,287.2,198.9"/>
	<path class="st3" d="M178.7,126.2c8.7,8.7,20.2,13.7,32.4,14.3l6.1,6c6.2,6.7,12.7,8.9,15.4,6.8c2.3-1.8,1.4-6.6,1.1-8
		c-4.6-4.6-9.1-9.1-13.7-13.7c-0.7-12.2-5.8-23.6-14.5-32.3l-14.2-14.1c-1.2-1.2-2.8-1.8-4.5-1.8s-3.3,0.7-4.5,1.9l-17.8,18
		c-1.2,1.2-1.8,2.9-1.8,4.5c0,1.6,0.6,3.2,1.9,4.5L178.7,126.2z"/>
	<path class="st3" d="M370.5,89.4c-14.9-14.8-43-5.8-62,3.2c-24.1,11.4-50.8,30.6-74.2,53.2l-4.5-4.5c-3.4,2.5-6.7,5.2-9.7,8.2
		l5.3,5.3c-22.4,23.4-41.2,50.1-52,73.9c-8.7,19.1-16.9,46.6-2.1,61.3c14.8,14.7,42.3,6.3,61.3-2.5c23.7-11,50.3-30,73.5-52.5
		c3-3,5.9-6,8.9-9c17.6-18.4,39.6-46.6,52.6-74.1C376.5,132.8,385.4,104.2,370.5,89.4 M226.2,248.4L226.2,248.4
		c-10.9,6.2-19.3,9.5-24.7,11.2c1.6-5.5,4.9-13.9,11-24.8c1.8-3.2,3.9-6.9,6.5-10.9l18.1,17.9C233,244.4,229.4,246.6,226.2,248.4
		 M247.7,234.6l-21.5-21.4c6.8-9.5,15.4-20.3,26.2-31.7l26.8,26.7C267.9,219.1,257.2,227.8,247.7,234.6 M288.1,199.2l-26.8-26.7
		c11.6-11.2,22.6-20.1,32.4-27.2l21.4,21.2C308.1,176.4,299.2,187.6,288.1,199.2 M328.6,145.3c-1.8,3.2-3.9,6.8-6.4,10.6l-17.9-17.8
		c3.9-2.5,7.4-4.7,10.6-6.5c11.2-6.4,19.7-10,25.3-11.7C338.5,125.5,335,134,328.6,145.3"/>
</g>
</svg>
