<?xml version="1.0" encoding="utf-8"?>
<!-- Generator: Adobe Illustrator 22.1.0, SVG Export Plug-In . SVG Version: 6.00 Build 0)  -->
<svg style="enable-background:new 0 0 500 500;" id="Calque_1" version="1.1" viewBox="0 0 500 500" x="0px"
     xmlns="http://www.w3.org/2000/svg" y="0px" xml:space="preserve">
<style type="text/css">
	.st0{fill:#4FBDD7;}
	.st1{fill:#EAEAEA;}
	.st2{fill:#FFFFFF;}
	.st3{fill:#4FBDD7;stroke:#FFFFFF;stroke-width:5;stroke-miterlimit:10;}
	.st4{fill:#8C8C8C;}
	.st5{fill:#070707;}
	.st6{fill:none;stroke:#FFFFFF;stroke-width:7;stroke-miterlimit:10;}
	.st7{fill:none;stroke:#FFFFFF;stroke-width:10;stroke-miterlimit:10;}
	.st8{fill:#FFFFFF;stroke:#FFFFFF;stroke-width:3;stroke-miterlimit:10;}
	.st9{fill:none;stroke:#FDFFFF;stroke-width:6;stroke-miterlimit:10;}
	.st10{fill:#FAFEFF;}
	.st11{fill:none;stroke:#FFFFFF;stroke-width:2;stroke-miterlimit:10;}
	.st12{fill:#FFFFFF;stroke:#FFFFFF;stroke-width:2;stroke-miterlimit:10;}
	.st13{fill:#4FBDD7;stroke:#FFFFFF;stroke-width:4;stroke-miterlimit:10;}
	.st14{fill:#FFFFFF;stroke:#FFFFFF;stroke-width:4;stroke-miterlimit:10;}
	.st15{fill:none;stroke:#FFFFFF;stroke-miterlimit:10;}
	.st16{fill:#FFFFFF;stroke:#FFFFFF;stroke-width:13;stroke-miterlimit:10;}
	.st17{fill:#4FBDD7;stroke:#FFFFFF;stroke-width:8;stroke-miterlimit:10;}
	.st18{fill:#FFFFFF;stroke:#FFFFFF;stroke-width:0.75;stroke-miterlimit:10;}
	.st19{fill:#FFFFFF;stroke:#FFFFFF;stroke-width:0.5;stroke-miterlimit:10;}
	.st20{fill:none;}
	.st21{font-family:'HelveticaNeue-CondensedBold';}
	.st22{font-size:54px;}
	.st23{fill:#FFFFFF;stroke:#FFFFFF;stroke-width:8;stroke-miterlimit:10;}
	.st24{fill:#FFFFFF;stroke:#FFFFFF;stroke-miterlimit:10;}
	.st25{fill:#FFFFFF;stroke:#FFFFFF;stroke-width:11;stroke-miterlimit:10;}
	.st26{fill:#FFFFFF;stroke:#FFFFFF;stroke-width:6;stroke-miterlimit:10;}
	.st27{fill:#8C8C8C;stroke:#8C8C8C;stroke-width:4;stroke-miterlimit:10;}
	.st28{fill:#FFFFFF;stroke:#FFFFFF;stroke-width:1.05;stroke-miterlimit:10;}
	.st29{fill:none;stroke:#4FBDD7;stroke-width:5;stroke-miterlimit:10;}
	.st30{fill:none;stroke:#FFFFFF;stroke-width:4;stroke-miterlimit:10;}
	.st31{fill:#8C8C8C;stroke:#FFFFFF;stroke-width:4;stroke-miterlimit:10;}
	.st32{fill:#FFFFFF;stroke:#FFFFFF;stroke-width:10;stroke-miterlimit:10;}
	.st33{fill:none;stroke:#4FBDD7;stroke-width:2;stroke-miterlimit:10;}
	.st34{fill-rule:evenodd;clip-rule:evenodd;fill:#FFFFFF;}
	.st35{fill:#FFFFFF;stroke:#FFFFFF;stroke-width:7;stroke-miterlimit:10;}
	.st36{fill:#FFFFFF;stroke:#4FBDD7;stroke-width:7;stroke-miterlimit:10;}
	.st37{fill:#FCFCFC;}
	.st38{fill:#FFFFFF;stroke:#FFFFFF;stroke-width:5;stroke-miterlimit:10;}
	.st39{fill:none;stroke:#FFFFFF;stroke-width:3;stroke-miterlimit:10;}
	.st40{fill:none;stroke:#FFFFFF;stroke-width:8;stroke-miterlimit:10;}
	.st41{fill:none;stroke:#FFFFFF;stroke-width:6;stroke-miterlimit:10;}
	.st42{fill:#FFFFFF;stroke:#4FBDD7;stroke-width:3;stroke-miterlimit:10;}
	.st43{fill:none;stroke:#FFFFFF;stroke-width:0.75;stroke-miterlimit:10;}
	.st44{fill:#4FBDD7;stroke:#FFFFFF;stroke-width:9;stroke-miterlimit:10;}
	.st45{fill:none;stroke:#FFFFFF;stroke-width:9;stroke-miterlimit:10;}
	.st46{fill:none;stroke:#4FBDD7;stroke-width:3;stroke-miterlimit:10;}
</style>
    <rect class="st0" height="500" width="500" x="1" y="-1"/>
    <g>
	<path class="st2" d="M238.5,285.5l0.2-69.4l12,0l-0.2,69.4c0,3.5,2.9,6.3,6.5,6.3l38.4,0.1c3.6,0,6.5-2.8,6.5-6.3l0.2-69.4
		l24.8,0.1c3.6,0,6.5-2.9,6.5-6.3l0.1-54.5c0-1.7-1.4-3.1-3.1-3.1c-1.7,0-3.1,1.4-3.1,3.1l-0.1,47.5L302,162.6
		c-0.5-3-3.2-5.3-6.4-5.3l-7.4,0l0.2-68.9c0,0,0.1-0.1,0.3-0.1l38.4,0.1c0.2,0,0.3,0.1,0.3,0.1c-0.1,22.2-0.3,44.3-0.4,66.5
		c1,14.7,2,22,3,22c1,0,2-7,3-21c0.2-22.5,0.4-45,0.5-67.5c0-3.5-2.9-6.3-6.5-6.3l-38.4-0.1c-3.6,0-6.5,2.8-6.5,6.3l-0.2,68.9l-12,0
		l0.2-68.9c0-3.5-2.9-6.3-6.5-6.3L225.4,82c-3.6,0-6.5,2.8-6.5,6.3l-0.2,68.9l-12,0l0.2-68.9c0-3.5-2.9-6.3-6.5-6.3L162,81.8
		c-3.6,0-6.5,2.8-6.5,6.3l-0.2,68.9l-24.8-0.1c-3.6,0-6.5,2.8-6.5,6.3l-0.3,122.1c0,3.5,2.9,6.3,6.5,6.3l38.4,0.1
		c3.6,0,6.5-2.8,6.5-6.3l0.2-69.4l12,0l-0.2,69.4c0,3.5,2.9,6.3,6.5,6.3l11,0c1.7,0,3.1-1.4,3.1-3.1c0-1.7-1.4-3.1-3.1-3.1l-11,0
		c-0.2,0-0.3-0.1-0.3-0.1c0-1.7,0.3-119.2,0.3-122.1c0,0,0,0,0,0c0,0,0,0,0,0c0,0,0,0,0,0c0,0,0,0,0,0c0,0,0,0,0.1,0c0,0,0,0,0,0
		c0,0,0.1,0,0.1,0c4.3,0,34,0.1,38.4,0.1c0.2,0,0.3,0.1,0.3,0.1c0,2-0.3,120.1-0.3,122.1c0,0-0.1,0.1-0.3,0.1l-13,0
		c-1.7,0-3.1,1.4-3.1,3.1c0,1.7,1.4,3.1,3.1,3.1l13,0C235.5,291.8,238.4,289,238.5,285.5z M238.6,210l0.1-35.8l12,19.3l0,16.5
		L238.6,210z M295.3,285.8l-38.4-0.1c-0.2,0-0.3-0.1-0.3-0.1c0-1.7,0.3-119.2,0.3-122.1c0,0,0,0,0,0c0,0,0,0,0,0c0,0,0,0,0,0
		c0,0,0,0,0,0c0,0,0,0,0.1,0c0,0,0,0,0,0c0,0,0.1,0,0.1,0c4.3,0,34,0.1,38.4,0.1c0.2,0,0.3,0.1,0.3,0.1l-0.3,122.1
		C295.6,285.7,295.5,285.8,295.3,285.8z M324.3,210.2l-22.3-0.1l0.1-35.8L324.3,210.2z M225,88.2c0,0,0.1-0.1,0.3-0.1l38.4,0.1
		c0.2,0,0.3,0.1,0.3,0.1l-0.2,68.9l-6.6,0c-3.6,0-6.5,2.8-6.5,6.3l0,18.4l-12.1-19.5c-0.5-3-3.2-5.3-6.4-5.3l-7.4,0L225,88.2z
		 M168.6,285.5l-38.4-0.1c-0.2,0-0.3-0.1-0.3-0.1l0.3-122.1c0,0,0.1-0.1,0.3-0.1c4,0,33.9,0.1,38.4,0.1c0.2,0,0.3,0.1,0.3,0.1
		L169,285.4C169,285.4,168.9,285.5,168.6,285.5z M175.3,209.8l0.1-35.8l12,19.3l0,16.5L175.3,209.8z M187.4,163.3l0,18.4l-12.1-19.5
		c-0.5-3-3.2-5.3-6.4-5.3l-7.4,0l0.2-68.9c0,0,0.1-0.1,0.3-0.1l38.4,0.1c0.2,0,0.3,0.1,0.3,0.1l-0.2,68.9l-6.6,0
		C190.4,157.1,187.4,159.9,187.4,163.3z"/>
        <rect class="st2" height="7.3" width="40" x="193" y="284.4"/>
</g>
    <g>
	<g>
		<path class="st2" d="M360.7,213.1c-0.5-0.2-1-0.1-1.5,0.2l-61.1,42.2c-0.4,0.3-0.7,0.8-0.7,1.3c0,0.5,0.2,1,0.6,1.4l27.9,25.4
			c-1.1,1.8-1.1,4.2,0.2,6l2.7,3.9c1.7,2.5,5.1,3.1,7.6,1.4l17.6-12.2l9.4,18.7c1.2,2.5,3.5,4.3,6.2,5c2.7,0.7,5.5,0.2,7.8-1.4
			s3.8-4,4.1-6.8c0.3-2.7-0.6-5.5-2.5-7.5l-14.2-15.4l17.6-12.2c2.5-1.7,3.1-5.1,1.4-7.6l-2.7-3.9c-1.3-1.8-3.5-2.7-5.6-2.3
			l-13.8-35.1C361.6,213.6,361.2,213.2,360.7,213.1z M381.1,257.3c0.6,0.9,0.4,2.2-0.5,2.9l-19.3,13.3c-0.4,0.3-0.7,0.7-0.7,1.2
			c-0.1,0.5,0.1,1,0.4,1.3l15.5,16.9c1.2,1.3,1.8,3.1,1.6,4.8c-0.2,1.8-1.1,3.4-2.6,4.4c-1.5,1-3.3,1.3-5,0.9
			c-1.7-0.4-3.2-1.6-4-3.2l-10.3-20.5c-0.2-0.4-0.6-0.8-1.1-0.9c-0.5-0.1-1,0-1.4,0.2L334.5,292c-0.9,0.6-2.2,0.4-2.9-0.5l-2.7-3.9
			c-0.6-0.9-0.4-2.2,0.5-2.9l46.1-31.8c0.9-0.6,2.2-0.4,2.9,0.5L381.1,257.3L381.1,257.3z M372.6,250.8l-44.1,30.4L306.2,261
			c-0.9-0.8-1.7-1.6-2.6-2.4l-1.7-1.6l57.6-39.7L372.6,250.8z"/>
	</g>
</g>
    <rect class="st2" height="2.5" transform="matrix(-0.823 0.568 -0.568 -0.823 741.7692 247.4765)" width="71.6" x="296.5"
          y="238.1"/>
    <g>
	<rect class="st20" height="144" width="500" x="2" y="362"/>
        <text class="st2 st21 st22" transform="matrix(1 0 0 1 65.5942 400.5557)">Bandes à enduire</text>
</g>
</svg>
