<?xml version="1.0" encoding="utf-8"?>
<!-- Generator: Adobe Illustrator 22.1.0, SVG Export Plug-In . SVG Version: 6.00 Build 0)  -->
<svg version="1.1" id="Calque_1" xmlns="http://www.w3.org/2000/svg" x="0px" y="0px"
     viewBox="0 0 500 500" style="enable-background:new 0 0 500 500;" xml:space="preserve">
<style type="text/css">
	.st0{fill:#4FBDD7;}
	.st1{fill:#EAEAEA;}
	.st2{fill:#FFFFFF;}
	.st3{fill:#4FBDD7;stroke:#FFFFFF;stroke-width:5;stroke-miterlimit:10;}
	.st4{fill:#8C8C8C;}
	.st5{fill:#070707;}
	.st6{fill:none;stroke:#FFFFFF;stroke-width:7;stroke-miterlimit:10;}
	.st7{fill:none;stroke:#FFFFFF;stroke-width:10;stroke-miterlimit:10;}
	.st8{fill:#FFFFFF;stroke:#FFFFFF;stroke-width:3;stroke-miterlimit:10;}
	.st9{fill:none;stroke:#FDFFFF;stroke-width:6;stroke-miterlimit:10;}
	.st10{fill:#FAFEFF;}
	.st11{fill:none;stroke:#FFFFFF;stroke-width:2;stroke-miterlimit:10;}
	.st12{fill:#FFFFFF;stroke:#FFFFFF;stroke-width:2;stroke-miterlimit:10;}
	.st13{fill:#4FBDD7;stroke:#FFFFFF;stroke-width:4;stroke-miterlimit:10;}
	.st14{fill:#FFFFFF;stroke:#FFFFFF;stroke-width:4;stroke-miterlimit:10;}
	.st15{fill:none;stroke:#FFFFFF;stroke-miterlimit:10;}
	.st16{fill:#FFFFFF;stroke:#FFFFFF;stroke-width:13;stroke-miterlimit:10;}
	.st17{fill:#4FBDD7;stroke:#FFFFFF;stroke-width:8;stroke-miterlimit:10;}
	.st18{fill:#FFFFFF;stroke:#FFFFFF;stroke-width:0.75;stroke-miterlimit:10;}
	.st19{fill:#FFFFFF;stroke:#FFFFFF;stroke-width:0.5;stroke-miterlimit:10;}
	.st20{fill:#FFFFFF;stroke:#FFFFFF;stroke-width:8;stroke-miterlimit:10;}
	.st21{fill:#FFFFFF;stroke:#FFFFFF;stroke-miterlimit:10;}
	.st22{fill:#FFFFFF;stroke:#FFFFFF;stroke-width:11;stroke-miterlimit:10;}
	.st23{fill:#FFFFFF;stroke:#FFFFFF;stroke-width:6;stroke-miterlimit:10;}
	.st24{fill:#8C8C8C;stroke:#8C8C8C;stroke-width:4;stroke-miterlimit:10;}
	.st25{fill:none;}
	.st26{font-family:'HelveticaNeue-CondensedBold';}
	.st27{font-size:54px;}
	.st28{fill:#FFFFFF;stroke:#FFFFFF;stroke-width:1.05;stroke-miterlimit:10;}
	.st29{fill:none;stroke:#4FBDD7;stroke-width:5;stroke-miterlimit:10;}
	.st30{fill:none;stroke:#FFFFFF;stroke-width:4;stroke-miterlimit:10;}
	.st31{fill:#8C8C8C;stroke:#FFFFFF;stroke-width:4;stroke-miterlimit:10;}
	.st32{fill:#FFFFFF;stroke:#FFFFFF;stroke-width:10;stroke-miterlimit:10;}
	.st33{fill:none;stroke:#4FBDD7;stroke-width:2;stroke-miterlimit:10;}
	.st34{fill-rule:evenodd;clip-rule:evenodd;fill:#FFFFFF;}
	.st35{fill:#FFFFFF;stroke:#FFFFFF;stroke-width:7;stroke-miterlimit:10;}
	.st36{fill:#FFFFFF;stroke:#4FBDD7;stroke-width:7;stroke-miterlimit:10;}
	.st37{fill:#FCFCFC;}
	.st38{fill:#FFFFFF;stroke:#FFFFFF;stroke-width:5;stroke-miterlimit:10;}
	.st39{fill:none;stroke:#FFFFFF;stroke-width:3;stroke-miterlimit:10;}
	.st40{fill:none;stroke:#FFFFFF;stroke-width:8;stroke-miterlimit:10;}
	.st41{fill:none;stroke:#FFFFFF;stroke-width:6;stroke-miterlimit:10;}
	.st42{fill:#FFFFFF;stroke:#4FBDD7;stroke-width:3;stroke-miterlimit:10;}
	.st43{fill:none;stroke:#FFFFFF;stroke-width:0.75;stroke-miterlimit:10;}
	.st44{fill:#4FBDD7;stroke:#FFFFFF;stroke-width:9;stroke-miterlimit:10;}
	.st45{fill:none;stroke:#FFFFFF;stroke-width:9;stroke-miterlimit:10;}
	.st46{fill:none;stroke:#4FBDD7;stroke-width:3;stroke-miterlimit:10;}
</style>
<rect x="-1" class="st0" width="500" height="500"/>
<path class="st2" d="M163.7,284.9c8.1-14.6,10.5-26.5,6.3-29.9c-0.8-0.6-4-2.8-13.8,2.2v27.7c0,6.2,5,11.2,11.2,11.2h31.4
	c0.2,0.4,0.4,0.8,0.7,1.1l-5.2,18.1c-0.7,2.4-0.2,5,1.3,7c1.5,2,3.9,3.2,6.4,3.2c2.8,0,5.4-1.5,6.9-3.9l5-8.4
	c10,7.7,22.5,12.3,36.1,12.3s26.1-4.6,36.1-12.3l5,8.4c1.4,2.4,4.1,3.9,6.9,3.9c2.5,0,4.9-1.2,6.4-3.2c1.5-2,2-4.6,1.3-7l-5.2-18.1
	c5.5-9,8.7-19.5,8.7-30.8c0-2.2-0.1-4.3-0.3-6.4h11.6c6.2,0,11.2-5,11.2-11.2v-25.2c0-6.2-5-11.2-11.2-11.2h-4.9v-24
	c0,0,0-0.1,0-0.1c0,0,0-0.1,0-0.1v-6.2c0-6.2-5-11.2-11.2-11.2h-16.2c-2.1,0-3.8,1.7-3.8,3.8c0,2.1,1.7,3.8,3.8,3.8h16.2
	c2.1,0,3.8,1.7,3.8,3.8v2.6H262v-2.6c0-2.1,1.7-3.8,3.8-3.8h6.8c2.1,0,3.8-1.7,3.8-3.8c0-2.1-1.7-3.8-3.8-3.8h-6.8
	c-6.2,0-11.2,5-11.2,11.2v14.5h-8.9v-14.5c0-6.2-5-11.2-11.2-11.2h-38.6c-6.2,0-11.2,5-11.2,11.2v6.2c0,0,0,0.1,0,0.1
	c0,0,0,0.1,0,0.1v24h-17c-6.2,0-11.2,5-11.2,11.2v18c0,2.1,1.7,3.8,3.8,3.8c2.1,0,3.8-1.7,3.8-3.8 M324.1,223.6v2.9h-30.6
	c-0.6-0.6-1.1-1.2-1.7-1.8h12.4c3.8,0,7.2-1.9,9.2-4.8h6.9C322.5,219.9,324.1,221.6,324.1,223.6z M254.5,203.9v3.6
	c-1.5-0.1-3-0.2-4.5-0.2c-1.5,0-3,0.1-4.5,0.2v-3.6H254.5z M195.7,178.2h38.6c2.1,0,3.8,1.7,3.8,3.8v2.6H192v-2.6
	C192,179.9,193.7,178.2,195.7,178.2z M163.7,226.5v-2.9c0-2.1,1.7-3.8,3.7-3.8h19c2,2.9,5.4,4.8,9.2,4.8h12.4
	c-0.6,0.6-1.2,1.2-1.7,1.8H163.7z M202.4,317.9c-0.2,0.3-0.6,0.3-0.8,0c-0.1-0.1-0.1-0.3-0.1-0.4l3.6-12.5c1,1.1,2,2.2,3.1,3.3
	L202.4,317.9z M298.5,317.5c0,0.2,0,0.3-0.1,0.4c-0.2,0.3-0.6,0.2-0.8,0l-5.8-9.6c1.1-1.1,2.1-2.2,3.1-3.3L298.5,317.5z"/>
<path class="st2" d="M148.4,287v-95.2c0-3,0.8-6,2.3-8.6l27-46.7c5.8,3.5,11.5,7.1,17.3,10.6c6.7-0.7,10-1,10-1l0,0c0,0-2.3-2.3-6-6
	c-6.9-4-13.8-7.9-20.7-11.9c0,0,0,0-0.1,0c0,0,0,0-0.1,0l-25.7-14.9c-0.4-0.3-0.6-0.7-0.7-0.9c-0.1-0.2-0.1-0.6,0.1-1.1
	c0.4-0.7,1.3-0.9,1.9-0.5l19.3,11.1c1.6,0.9,3.7,0.5,4.8-1c1.2-1.5,3.3-1.9,4.9-1c1.6,1,2.3,3,1.6,4.7c-0.7,1.7,0,3.7,1.6,4.7
	l19.3,11.1c0.4,0.3,0.6,0.7,0.7,0.9c0.1,0.2,0.1,0.6-0.1,1.1c-0.4,0.7-1.3,0.9-1.9,0.5l-5-2.9c-1.8-1-4.1-0.4-5.1,1.4
	c-1,1.8-0.4,4.1,1.4,5.1l5,2.9c1.4,0.8,2.9,1.2,4.4,1.2c3.1,0,6.1-1.6,7.7-4.5c1.2-2.1,1.5-4.5,0.9-6.8c-0.6-2.3-2.1-4.2-4.2-5.4
	l-16.9-9.8c0.3-3-0.7-6.1-2.7-8.4l1.4-2.4c1-1.8,0.4-4.1-1.4-5.1s-4.1-0.4-5.1,1.4l-1.4,2.4c-3-0.6-6.1,0.1-8.6,1.9l-16.9-9.8
	c-4.3-2.5-9.7-1-12.2,3.3c-1.2,2.1-1.5,4.5-0.9,6.8c0.6,2.3,2.1,4.2,4.2,5.4l22.5,13l-27,46.7c-2.2,3.8-3.3,8-3.3,12.4V287
	l-18.5,33.1c-1,1.8-0.4,4.1,1.4,5.1c0.6,0.3,1.2,0.5,1.8,0.5c1.3,0,2.6-0.7,3.3-1.9l15.7-28.1l15.7,28.1c1,1.8,3.3,2.5,5.1,1.4
	s2.5-3.3,1.4-5.1L148.4,287z"/>
<path class="st2" d="M369.1,146.9h-19.5c-1.3-2.8-3.6-4.9-6.5-5.9v-2.7c0-2.1-1.7-3.8-3.8-3.8s-3.8,1.7-3.8,3.8v2.7
	c-2.9,1-5.2,3.2-6.5,5.9h-19.5c-4.9,0-8.9,4-8.9,8.9c0,4.9,4,8.9,8.9,8.9h26V287l-18.5,33.1c-1,1.8-0.4,4.1,1.4,5.1
	c1.8,1,4.1,0.4,5.1-1.4l15.7-28.1l15.7,28.1c0.7,1.2,2,1.9,3.3,1.9c0.6,0,1.2-0.2,1.8-0.5c1.8-1,2.5-3.3,1.4-5.1L343,287V164.7h26
	c4.9,0,8.9-4,8.9-8.9C378,150.9,374,146.9,369.1,146.9z M369.1,157.2h-29.7c0,0-0.1,0-0.1,0s-0.1,0-0.1,0h-29.7
	c-0.8,0-1.4-0.6-1.4-1.4s0.6-1.4,1.4-1.4h22.3c1.9,0,3.5-1.4,3.7-3.3c0.2-1.9,1.8-3.3,3.7-3.3h0.1h0.1c1.9,0,3.5,1.4,3.7,3.3
	s1.8,3.3,3.7,3.3h22.3c0.8,0,1.4,0.6,1.4,1.4S369.9,157.2,369.1,157.2z"/>
<path class="st2" d="M269.5,178h19c1.9,0,3.5-1.6,3.5-3.5l0,0c0-1.9-1.6-3.5-3.5-3.5h-19c-1.9,0-3.5,1.6-3.5,3.5l0,0
	C266,176.4,267.6,178,269.5,178z"/>
<path class="st2" d="M160,266L160,266c-2.2,0-4-1.8-4-4v-20c0-2.2,1.8-4,4-4l0,0c2.2,0,4,1.8,4,4v20C164,264.2,162.2,266,160,266z"
	/>
<g>
	<rect y="362" class="st25" width="500" height="144"/>
	<text transform="matrix(1 0 0 1 165.5454 400.5557)" class="st2 st26 st27">Batterie</text>
</g>
</svg>
