<?xml version="1.0" encoding="utf-8"?>
<!-- Generator: Adobe Illustrator 22.1.0, SVG Export Plug-In . SVG Version: 6.00 Build 0)  -->
<svg version="1.1" id="Calque_1" xmlns="http://www.w3.org/2000/svg" x="0px" y="0px"
     viewBox="0 0 500 500" style="enable-background:new 0 0 500 500;" xml:space="preserve">
<style type="text/css">
	.st0{fill:#4FBDD7;}
	.st1{fill:#EAEAEA;}
	.st2{fill:#FFFFFF;}
	.st3{fill:#4FBDD7;stroke:#FFFFFF;stroke-width:5;stroke-miterlimit:10;}
	.st4{fill:#8C8C8C;}
	.st5{fill:#070707;}
	.st6{fill:none;stroke:#FFFFFF;stroke-width:7;stroke-miterlimit:10;}
	.st7{fill:none;stroke:#FFFFFF;stroke-width:10;stroke-miterlimit:10;}
	.st8{fill:#FFFFFF;stroke:#FFFFFF;stroke-width:3;stroke-miterlimit:10;}
	.st9{fill:none;stroke:#FDFFFF;stroke-width:6;stroke-miterlimit:10;}
	.st10{fill:#FAFEFF;}
	.st11{fill:none;stroke:#FFFFFF;stroke-width:2;stroke-miterlimit:10;}
	.st12{fill:#FFFFFF;stroke:#FFFFFF;stroke-width:2;stroke-miterlimit:10;}
	.st13{fill:#4FBDD7;stroke:#FFFFFF;stroke-width:4;stroke-miterlimit:10;}
	.st14{fill:#FFFFFF;stroke:#FFFFFF;stroke-width:4;stroke-miterlimit:10;}
	.st15{fill:none;stroke:#FFFFFF;stroke-miterlimit:10;}
	.st16{fill:#FFFFFF;stroke:#FFFFFF;stroke-width:13;stroke-miterlimit:10;}
	.st17{fill:#4FBDD7;stroke:#FFFFFF;stroke-width:8;stroke-miterlimit:10;}
	.st18{fill:#FFFFFF;stroke:#FFFFFF;stroke-width:0.75;stroke-miterlimit:10;}
	.st19{fill:#FFFFFF;stroke:#FFFFFF;stroke-width:0.5;stroke-miterlimit:10;}
	.st20{fill:#FFFFFF;stroke:#FFFFFF;stroke-width:8;stroke-miterlimit:10;}
	.st21{fill:#FFFFFF;stroke:#FFFFFF;stroke-miterlimit:10;}
	.st22{fill:none;}
	.st23{font-family:'HelveticaNeue-CondensedBold';}
	.st24{font-size:54px;}
	.st25{fill:#FFFFFF;stroke:#FFFFFF;stroke-width:11;stroke-miterlimit:10;}
	.st26{fill:#FFFFFF;stroke:#FFFFFF;stroke-width:6;stroke-miterlimit:10;}
	.st27{fill:#8C8C8C;stroke:#8C8C8C;stroke-width:4;stroke-miterlimit:10;}
	.st28{fill:#FFFFFF;stroke:#FFFFFF;stroke-width:1.05;stroke-miterlimit:10;}
	.st29{fill:none;stroke:#4FBDD7;stroke-width:5;stroke-miterlimit:10;}
	.st30{fill:none;stroke:#FFFFFF;stroke-width:4;stroke-miterlimit:10;}
	.st31{fill:#8C8C8C;stroke:#FFFFFF;stroke-width:4;stroke-miterlimit:10;}
	.st32{fill:#FFFFFF;stroke:#FFFFFF;stroke-width:10;stroke-miterlimit:10;}
	.st33{fill:none;stroke:#4FBDD7;stroke-width:2;stroke-miterlimit:10;}
	.st34{fill-rule:evenodd;clip-rule:evenodd;fill:#FFFFFF;}
	.st35{fill:#FFFFFF;stroke:#FFFFFF;stroke-width:7;stroke-miterlimit:10;}
	.st36{fill:#FFFFFF;stroke:#4FBDD7;stroke-width:7;stroke-miterlimit:10;}
	.st37{fill:#FCFCFC;}
	.st38{fill:#FFFFFF;stroke:#FFFFFF;stroke-width:5;stroke-miterlimit:10;}
	.st39{fill:none;stroke:#FFFFFF;stroke-width:3;stroke-miterlimit:10;}
	.st40{fill:none;stroke:#FFFFFF;stroke-width:8;stroke-miterlimit:10;}
	.st41{fill:none;stroke:#FFFFFF;stroke-width:6;stroke-miterlimit:10;}
	.st42{fill:#FFFFFF;stroke:#4FBDD7;stroke-width:3;stroke-miterlimit:10;}
	.st43{fill:none;stroke:#FFFFFF;stroke-width:0.75;stroke-miterlimit:10;}
	.st44{fill:#4FBDD7;stroke:#FFFFFF;stroke-width:9;stroke-miterlimit:10;}
	.st45{fill:none;stroke:#FFFFFF;stroke-width:9;stroke-miterlimit:10;}
	.st46{fill:none;stroke:#4FBDD7;stroke-width:3;stroke-miterlimit:10;}
</style>
<rect x="-5" class="st0" width="506" height="500"/>
<g id="uMEr2s.tif">
	<g>
		<path class="st2" d="M243,85c0.3,0.1,0.6,0.3,0.9,0.4c4.8,1.1,8,4,9.6,8.5c0.4,1.1,0.9,1.6,2.1,1.8c36.1,7.2,59.2,28.6,69.5,63.8
			c2.9,9.8,2.9,19.9,2.8,30c0,1.3,0,2.6,0,4.1c4.2,0,8.1,0,12,0c3.3,0,5.3,1.5,5.8,4.3c0.6,2.9-1.3,5.7-4.3,6.1
			c-0.7,0.1-1.5,0.1-2.2,0.1c-22.8,0-45.7,0-68.5,0c-36,0-72,0-108,0c-1,0-2.1,0-3.1-0.1c-2.6-0.3-4.6-2.1-4.6-4.7
			c0-14-1.1-28.1,3.2-41.8c10.2-32.6,31.8-53,65-61.2c0.1,0,0.1,0,0.2,0c3.3-0.3,5.9-1.2,7.2-5c1.1-3.2,4.3-4.9,7.7-5.9
			c0.4-0.1,0.9-0.3,1.3-0.5C240.8,85,241.9,85,243,85z M225.1,114.2c0-4-3.5-6.5-7.5-5.2c-7.2,2.4-14,5.7-20,10.4
			c-4.4,3.3-8.3,7.2-12.3,11c-1.7,1.6-2.1,3.6-1.2,5.8c0.8,2.1,2.5,3.3,4.7,3.5c2.1,0.2,3.7-1,5.2-2.4c3.1-2.9,6.2-6,9.5-8.6
			c5.2-4.1,11.2-6.9,17.5-9.2C223.8,118.5,225.1,116.8,225.1,114.2z M176.4,159.7c3,0,5.5-2.4,5.6-5.4c0.1-3-2.5-5.6-5.6-5.6
			c-3,0-5.5,2.5-5.5,5.4C170.9,157.2,173.4,159.7,176.4,159.7z"/>
		<path class="st2" d="M240.5,294.5c-3.4-1.4-4.4-4-4.4-7.5c0.1-5.1,0.1-10.2,0-15.3c0-1-0.6-2.2-1.3-2.9
			c-18.4-15.6-36.8-31.1-55.2-46.6c-1.7-1.5-3.3-3-3.1-5.4c0.3-4,4.6-6.2,8.2-4.1c1.1,0.7,2.1,1.6,3.1,2.4
			c14.7,12.5,29.5,24.9,44.2,37.4c0.4,0.3,0.7,0.6,1.1,0.9c1.5,1,2.9,0.4,3.1-1.4c0.1-0.6,0-1.2,0-1.8c0-10.6,0-21.1,0-31.7
			c0-2.6,0.5-4.9,3.1-6.2c3.4-1.7,7.3,0.6,7.4,4.6c0.2,5,0.1,10,0.1,14.9c0,18.4-0.1,36.8,0,55.2c0,3.5-0.9,6.1-4.3,7.5
			C241.9,294.5,241.2,294.5,240.5,294.5z"/>
		<path class="st2" d="M225.1,114.2c0,2.6-1.3,4.3-4.2,5.3c-6.3,2.2-12.2,5.1-17.5,9.2c-3.4,2.6-6.4,5.7-9.5,8.6
			c-1.5,1.4-3.1,2.6-5.2,2.4c-2.2-0.2-3.8-1.4-4.7-3.5c-0.9-2.2-0.4-4.3,1.2-5.8c4-3.8,8-7.6,12.3-11c6-4.6,12.8-8,20-10.4
			C221.6,107.7,225.1,110.2,225.1,114.2z"/>
	</g>
</g>
<g>
	<rect x="-2" y="371" class="st22" width="500" height="132"/>
	<text transform="matrix(1 0 0 1 173.5615 409.5557)" class="st2 st23 st24">Bombe</text>
</g>
</svg>
