<svg id="Calque_1" data-name="Calque 1" xmlns="http://www.w3.org/2000/svg" viewBox="0 0 500 500"><defs><style>.cls-1{fill:#eaeaea;}.cls-2{fill:#8c8c8c;}.cls-3{font-size:54px;fill:#6b6b6b;font-family:HelveticaNeue-CondensedBold, Helvetica Neue;font-weight:700;}</style></defs><title>picto fourniture vectoriseÌ2</title><rect class="cls-1" x="1" width="500" height="500"/><path class="cls-2" d="M333.49,134.49l-14.15.39-.4-14.89a2.13,2.13,0,0,0-2.19-2.08l-37.64,1a2.15,2.15,0,0,0-2.07,2.2l.4,14.89-66.09,1.79-.4-14.89a2.15,2.15,0,0,0-2.19-2.08l-37.64,1a2.14,2.14,0,0,0-2.07,2.2l.4,14.89-14.14.38a13,13,0,0,0-12.61,13.31l3.65,134.44a13,13,0,0,0,13.31,12.61l178.18-4.84a13,13,0,0,0,12.6-13.31L346.8,147.1A13,13,0,0,0,333.49,134.49Zm-2.66,141.1-165.22,4.49-3.29-121.49,165.21-4.48,3.3,121.48Z"/><path class="cls-2" d="M284.3,185.72l7.89-.22.22,7.89a1.85,1.85,0,0,0,1.9,1.81l7.25-.2a1.85,1.85,0,0,0,1.8-1.9l-.21-7.9L311,185a1.86,1.86,0,0,0,1.81-1.91l-.2-7.24a1.86,1.86,0,0,0-1.91-1.81l-7.89.22-.21-7.89a1.86,1.86,0,0,0-1.91-1.81l-7.24.2a1.85,1.85,0,0,0-1.81,1.9l.22,7.9-7.9.21a1.86,1.86,0,0,0-1.8,1.91l.19,7.24A1.87,1.87,0,0,0,284.3,185.72Z"/><path class="cls-2" d="M180.46,188.53l26.74-.72A1.86,1.86,0,0,0,209,185.9l-.2-7.24a1.86,1.86,0,0,0-1.91-1.81l-26.74.73a1.86,1.86,0,0,0-1.8,1.91l.19,7.24A1.86,1.86,0,0,0,180.46,188.53Z"/><text class="cls-3" transform="translate(169.6 399.56)">Booster</text></svg>