<?xml version="1.0" encoding="utf-8"?>
<!-- Generator: Adobe Illustrator 22.1.0, SVG Export Plug-In . SVG Version: 6.00 Build 0)  -->
<svg version="1.1" id="Calque_1" xmlns="http://www.w3.org/2000/svg" x="0px" y="0px"
     viewBox="0 0 500 500" style="enable-background:new 0 0 500 500;" xml:space="preserve">
<style type="text/css">
	.st0{fill:#EAEAEA;}
	.st1{fill:#8C8C8C;}
	.st2{fill:#FFFFFF;}
	.st3{fill:#EAEAEA;stroke:#8C8C8C;stroke-width:7;stroke-miterlimit:10;}
	.st4{fill:#070707;}
	.st5{fill:none;stroke:#8C8C8C;stroke-width:7;stroke-miterlimit:10;}
	.st6{fill:none;stroke:#8C8C8C;stroke-width:10;stroke-miterlimit:10;}
	.st7{fill:#8C8C8C;stroke:#8C8C8C;stroke-width:3;stroke-miterlimit:10;}
	.st8{fill:none;stroke:#8C8C8C;stroke-width:8;stroke-miterlimit:10;}
	.st9{fill:none;stroke:#8E8E8E;stroke-width:6;stroke-miterlimit:10;}
	.st10{fill:#8E8E8E;}
	.st11{fill:#505050;}
	.st12{fill:none;stroke:#8E8E8E;stroke-width:2;stroke-miterlimit:10;}
	.st13{fill:#8C8C8C;stroke:#8C8C8C;stroke-width:2;stroke-miterlimit:10;}
	.st14{fill:#8C8C8C;stroke:#FFFFFF;stroke-width:2;stroke-miterlimit:10;}
	.st15{fill:none;stroke:#FFFFFF;stroke-width:2;stroke-miterlimit:10;}
	.st16{fill:none;stroke:#8C8C8C;stroke-miterlimit:10;}
	.st17{fill:none;stroke:#8C8C8C;stroke-width:13;stroke-miterlimit:10;}
	.st18{fill:#EAEAEA;stroke:#8C8C8C;stroke-width:8;stroke-miterlimit:10;}
	.st19{fill:none;stroke:#8C8C8C;stroke-width:4;stroke-miterlimit:10;}
	.st20{fill:#8C8C8C;stroke:#8C8C8C;stroke-width:0.75;stroke-miterlimit:10;}
	.st21{fill:none;stroke:#8C8C8C;stroke-width:9;stroke-miterlimit:10;}
	.st22{fill:#8C8C8C;stroke:#8C8C8C;stroke-width:0.5;stroke-miterlimit:10;}
	.st23{fill:#6B6B6B;}
	.st24{fill:none;}
	.st25{stroke:#8C8C8C;stroke-width:8;stroke-miterlimit:10;}
	.st26{fill:#8C8C8C;stroke:#8C8C8C;stroke-miterlimit:10;}
	.st27{fill:none;stroke:#8C8C8C;stroke-width:11;stroke-miterlimit:10;}
	.st28{fill:none;stroke:#8C8C8C;stroke-width:6;stroke-miterlimit:10;}
	.st29{stroke:#8C8C8C;stroke-width:6;stroke-miterlimit:10;}
	.st30{fill:#8C8C8C;stroke:#8C8C8C;stroke-width:4;stroke-miterlimit:10;}
	.st31{fill:#8C8C8C;stroke:#8C8C8C;stroke-width:1.05;stroke-miterlimit:10;}
	.st32{fill:#D6D6D6;}
	.st33{fill:none;stroke:#EAEAEA;stroke-width:5;stroke-miterlimit:10;}
	.st34{fill:#8C8C8C;stroke:#8C8C8C;stroke-width:10;stroke-miterlimit:10;}
	.st35{font-family:'HelveticaNeue-CondensedBold';}
	.st36{font-size:54px;}
	.st37{fill:none;stroke:#CECECE;stroke-width:2;stroke-miterlimit:10;}
	.st38{fill:none;stroke:#FFFFFF;stroke-width:4;stroke-miterlimit:10;}
	.st39{fill-rule:evenodd;clip-rule:evenodd;fill:#8C8C8C;}
	.st40{fill:#8C8C8C;stroke:#8C8C8C;stroke-width:8;stroke-miterlimit:10;}
	.st41{fill:#8C8C8C;stroke:#8C8C8C;stroke-width:7;stroke-miterlimit:10;}
	.st42{fill:#DBDBDB;stroke:#8C8C8C;stroke-width:7;stroke-miterlimit:10;}
	.st43{fill:none;stroke:#8C8C8C;stroke-width:5;stroke-miterlimit:10;}
	.st44{fill:none;stroke:#8C8C8C;stroke-width:3;stroke-miterlimit:10;}
	.st45{clip-path:url(#SVGID_2_);fill:#8C8C8C;}
	.st46{clip-path:url(#SVGID_2_);fill:none;stroke:#8C8C8C;stroke-width:8;stroke-miterlimit:10;}
	.st47{clip-path:url(#SVGID_2_);fill:#FFFFFF;}
	.st48{clip-path:url(#SVGID_2_);fill:#EAEAEA;}
	.st49{clip-path:url(#SVGID_2_);fill:none;stroke:#8C8C8C;stroke-miterlimit:10;}
	.st50{fill:none;stroke:#FFFFFF;stroke-width:0.75;stroke-miterlimit:10;}
	.st51{fill:none;stroke:#8C8C8C;stroke-width:14;stroke-miterlimit:10;}
	.st52{fill:none;stroke:#EAEAEA;stroke-width:2;stroke-miterlimit:10;}
	.st53{fill:none;stroke:#8C8C8C;stroke-width:2;stroke-miterlimit:10;}
</style>
<rect class="st0" width="500" height="500"/>
<path class="st1" d="M363,213.5c0,59.4-48.1,107.5-107.5,107.5S148,272.9,148,213.5S196.1,106,255.5,106S363,154.1,363,213.5z"/>
<path class="st0" d="M255.5,141.3l-7.1,8.5v127.5l7.1,8.5c39.9,0,72.2-32.3,72.2-72.2S295.4,141.3,255.5,141.3z M272.4,243.1
	c-7,0-12.7-5.7-12.7-12.7c0-7,5.7-12.7,12.7-12.7s12.7,5.7,12.7,12.7C285.1,237.4,279.4,243.1,272.4,243.1z M272.4,209.3
	c-7,0-12.7-5.7-12.7-12.7s5.7-12.7,12.7-12.7s12.7,5.7,12.7,12.7S279.4,209.3,272.4,209.3z"/>
<path class="st0" d="M183.3,213.5c0,39.9,32.3,72.2,72.2,72.2V141.3C215.6,141.3,183.3,173.6,183.3,213.5z M238.6,243.1
	c-7,0-12.7-5.7-12.7-12.7c0-7,5.7-12.7,12.7-12.7c7,0,12.7,5.7,12.7,12.7C251.3,237.4,245.6,243.1,238.6,243.1z M238.6,209.3
	c-7,0-12.7-5.7-12.7-12.7s5.7-12.7,12.7-12.7c7,0,12.7,5.7,12.7,12.7S245.6,209.3,238.6,209.3z"/>
<path class="st1" d="M255.5,158.2l-7.9,8.5v93.7l7.9,8.5c30.5,0,55.3-24.8,55.3-55.3S286,158.2,255.5,158.2z"/>
<path class="st1" d="M200.2,213.5c0,30.5,24.8,55.3,55.3,55.3V158.2C225,158.2,200.2,183,200.2,213.5z M238.6,238.9
	c-4.7,0-8.5-3.8-8.5-8.5s3.8-8.5,8.5-8.5s8.5,3.8,8.5,8.5S243.2,238.9,238.6,238.9z M238.6,205c-4.7,0-8.5-3.8-8.5-8.5
	s3.8-8.5,8.5-8.5s8.5,3.8,8.5,8.5S243.2,205,238.6,205z"/>
<circle class="st0" cx="276.2" cy="230.4" r="8.5"/>
<circle class="st0" cx="276.2" cy="196.6" r="8.5"/>
<circle class="st0" cx="238.4" cy="230.4" r="8.5"/>
<circle class="st0" cx="238.4" cy="196.6" r="8.5"/>
<g>
	<rect x="4" y="360" class="st24" width="500" height="144"/>
	<text transform="matrix(1 0 0 1 178.0767 398.5557)" class="st23 st35 st36">Bouton</text>
</g>
</svg>
