<?xml version="1.0" encoding="utf-8"?>
<!-- Generator: Adobe Illustrator 22.1.0, SVG Export Plug-In . SVG Version: 6.00 Build 0)  -->
<svg style="enable-background:new 0 0 500 500;" id="Calque_1" version="1.1" viewBox="0 0 500 500" x="0px"
     xmlns="http://www.w3.org/2000/svg" y="0px" xml:space="preserve">
<style type="text/css">
	.st0{fill:#EAEAEA;}
	.st1{fill:#8C8C8C;}
	.st2{fill:#FFFFFF;}
	.st3{fill:#EAEAEA;stroke:#8C8C8C;stroke-width:7;stroke-miterlimit:10;}
	.st4{fill:#070707;}
	.st5{fill:none;stroke:#8C8C8C;stroke-width:7;stroke-miterlimit:10;}
	.st6{fill:none;stroke:#8C8C8C;stroke-width:10;stroke-miterlimit:10;}
	.st7{fill:#8C8C8C;stroke:#8C8C8C;stroke-width:3;stroke-miterlimit:10;}
	.st8{fill:none;stroke:#8C8C8C;stroke-width:8;stroke-miterlimit:10;}
	.st9{fill:none;stroke:#8E8E8E;stroke-width:6;stroke-miterlimit:10;}
	.st10{fill:#8E8E8E;}
	.st11{fill:#505050;}
	.st12{fill:none;stroke:#8E8E8E;stroke-width:2;stroke-miterlimit:10;}
	.st13{fill:#8C8C8C;stroke:#8C8C8C;stroke-width:2;stroke-miterlimit:10;}
	.st14{fill:#8C8C8C;stroke:#FFFFFF;stroke-width:2;stroke-miterlimit:10;}
	.st15{fill:none;stroke:#FFFFFF;stroke-width:2;stroke-miterlimit:10;}
	.st16{fill:none;stroke:#8C8C8C;stroke-miterlimit:10;}
	.st17{fill:none;stroke:#8C8C8C;stroke-width:13;stroke-miterlimit:10;}
	.st18{fill:#EAEAEA;stroke:#8C8C8C;stroke-width:8;stroke-miterlimit:10;}
	.st19{fill:none;stroke:#8C8C8C;stroke-width:4;stroke-miterlimit:10;}
	.st20{fill:#8C8C8C;stroke:#8C8C8C;stroke-width:0.75;stroke-miterlimit:10;}
	.st21{fill:none;stroke:#8C8C8C;stroke-width:9;stroke-miterlimit:10;}
	.st22{fill:#8C8C8C;stroke:#8C8C8C;stroke-width:0.5;stroke-miterlimit:10;}
	.st23{fill:#6B6B6B;}
	.st24{fill:none;}
	.st25{stroke:#8C8C8C;stroke-width:8;stroke-miterlimit:10;}
	.st26{fill:#8C8C8C;stroke:#8C8C8C;stroke-miterlimit:10;}
	.st27{fill:none;stroke:#8C8C8C;stroke-width:11;stroke-miterlimit:10;}
	.st28{fill:none;stroke:#8C8C8C;stroke-width:6;stroke-miterlimit:10;}
	.st29{stroke:#8C8C8C;stroke-width:6;stroke-miterlimit:10;}
	.st30{fill:#8C8C8C;stroke:#8C8C8C;stroke-width:4;stroke-miterlimit:10;}
	.st31{fill:#8C8C8C;stroke:#8C8C8C;stroke-width:1.05;stroke-miterlimit:10;}
	.st32{fill:#D6D6D6;}
	.st33{fill:none;stroke:#EAEAEA;stroke-width:5;stroke-miterlimit:10;}
	.st34{fill:#8C8C8C;stroke:#8C8C8C;stroke-width:10;stroke-miterlimit:10;}
	.st35{fill:none;stroke:#CECECE;stroke-width:2;stroke-miterlimit:10;}
	.st36{fill:none;stroke:#FFFFFF;stroke-width:4;stroke-miterlimit:10;}
	.st37{fill-rule:evenodd;clip-rule:evenodd;fill:#8C8C8C;}
	.st38{fill:#8C8C8C;stroke:#8C8C8C;stroke-width:8;stroke-miterlimit:10;}
	.st39{fill:#8C8C8C;stroke:#8C8C8C;stroke-width:7;stroke-miterlimit:10;}
	.st40{fill:#DBDBDB;stroke:#8C8C8C;stroke-width:7;stroke-miterlimit:10;}
	.st41{fill:none;stroke:#8C8C8C;stroke-width:5;stroke-miterlimit:10;}
	.st42{font-family:'HelveticaNeue-CondensedBold';}
	.st43{font-size:54px;}
	.st44{fill:none;stroke:#8C8C8C;stroke-width:3;stroke-miterlimit:10;}
	.st45{clip-path:url(#SVGID_2_);fill:#8C8C8C;}
	.st46{clip-path:url(#SVGID_2_);fill:none;stroke:#8C8C8C;stroke-width:8;stroke-miterlimit:10;}
	.st47{clip-path:url(#SVGID_2_);fill:#FFFFFF;}
	.st48{clip-path:url(#SVGID_2_);fill:#EAEAEA;}
	.st49{clip-path:url(#SVGID_2_);fill:none;stroke:#8C8C8C;stroke-miterlimit:10;}
	.st50{fill:none;stroke:#FFFFFF;stroke-width:0.75;stroke-miterlimit:10;}
	.st51{fill:none;stroke:#8C8C8C;stroke-width:14;stroke-miterlimit:10;}
	.st52{fill:none;stroke:#EAEAEA;stroke-width:2;stroke-miterlimit:10;}
	.st53{fill:none;stroke:#8C8C8C;stroke-width:2;stroke-miterlimit:10;}
</style>
    <rect class="st0" height="500" width="500" x="1" y="1"/>
    <g>
	<rect class="st24" height="144" width="500" x="-1" y="367"/>
        <text class="st23 st42 st43" transform="matrix(1 0 0 1 165.0312 405.5557)">Brasure</text>
</g>
    <ellipse class="st1" cx="315.7" cy="128.2" rx="35.4"
             ry="1.7" transform="matrix(0.7428 -0.6695 0.6695 0.7428 -4.624 244.2804)"/>
    <ellipse class="st1" cx="325.4" cy="126" rx="35.4" ry="1.7"
             transform="matrix(0.7428 -0.6695 0.6695 0.7428 -0.6405 250.2498)"/>
    <ellipse class="st1" cx="336.4" cy="123.8" rx="35.4"
             ry="1.7" transform="matrix(0.7428 -0.6695 0.6695 0.7428 3.6568 257.0361)"/>
    <ellipse class="st1" cx="344.9" cy="123.8" rx="35.4"
             ry="1.7" transform="matrix(0.7428 -0.6695 0.6695 0.7428 5.8534 262.7545)"/>
    <ellipse class="st1" cx="349.8" cy="126" rx="35.4" ry="1.7"
             transform="matrix(0.7428 -0.6695 0.6695 0.7428 5.6354 266.588)"/>
    <ellipse class="st1" cx="355.9" cy="128.2" rx="35.4"
             ry="1.7" transform="matrix(0.7428 -0.6695 0.6695 0.7428 5.7312 271.2384)"/>
    <ellipse class="st1" cx="357.4" cy="133.1" rx="35.4"
             ry="1.7" transform="matrix(0.7313 -0.6821 0.6821 0.7313 5.2472 279.5451)"/>
    <ellipse class="st1" cx="355.1" cy="142" rx="35.4" ry="1.7"
             transform="matrix(0.7313 -0.6821 0.6821 0.7313 -1.3918 280.3699)"/>
    <ellipse class="st1" cx="352.9" cy="151.9" rx="35.4"
             ry="1.7" transform="matrix(0.7313 -0.6821 0.6821 0.7313 -8.7756 281.5045)"/>
    <ellipse class="st1" cx="353" cy="159.6" rx="35.4"
             ry="1.7" transform="matrix(0.7313 -0.6821 0.6821 0.7313 -13.9885 283.6736)"/>
    <ellipse class="st1" cx="355.6" cy="164" rx="35.4"
             ry="1.7" transform="matrix(0.7313 -0.6821 0.6821 0.7313 -16.2859 286.5673)"/>
    <ellipse class="st1" cx="358.1" cy="169.4" rx="35.4"
             ry="1.7" transform="matrix(0.7313 -0.6821 0.6821 0.7313 -19.328 289.7708)"/>
    <rect class="st1" height="77.8" transform="matrix(0.6552 -0.7554 0.7554 0.6552 -83.5208 278.239)" width="216.2" x="155"
          y="191.7"/>
</svg>
