<?xml version="1.0" encoding="utf-8"?>
<!-- Generator: Adobe Illustrator 22.1.0, SVG Export Plug-In . SVG Version: 6.00 Build 0)  -->
<svg version="1.1" id="Calque_1" xmlns="http://www.w3.org/2000/svg" x="0px" y="0px"
     viewBox="0 0 500 500" style="enable-background:new 0 0 500 500;" xml:space="preserve">
<style type="text/css">
	.st0{fill:#EAEAEA;}
	.st1{fill:#8C8C8C;}
	.st2{fill:none;}
	.st3{fill:#6B6B6B;}
	.st4{font-family:'HelveticaNeue-CondensedBold';}
	.st5{font-size:54px;}
	.st6{fill:#FFFFFF;}
	.st7{fill:#EAEAEA;stroke:#8C8C8C;stroke-width:7;stroke-miterlimit:10;}
	.st8{fill:#070707;}
	.st9{fill:none;stroke:#8C8C8C;stroke-width:7;stroke-miterlimit:10;}
	.st10{fill:none;stroke:#8C8C8C;stroke-width:10;stroke-miterlimit:10;}
	.st11{fill:#8C8C8C;stroke:#8C8C8C;stroke-width:3;stroke-miterlimit:10;}
	.st12{fill:none;stroke:#8C8C8C;stroke-width:8;stroke-miterlimit:10;}
	.st13{fill:none;stroke:#8E8E8E;stroke-width:6;stroke-miterlimit:10;}
	.st14{fill:#8E8E8E;}
	.st15{fill:#505050;}
	.st16{fill:none;stroke:#8E8E8E;stroke-width:2;stroke-miterlimit:10;}
	.st17{fill:#8C8C8C;stroke:#8C8C8C;stroke-width:2;stroke-miterlimit:10;}
	.st18{fill:#8C8C8C;stroke:#FFFFFF;stroke-width:2;stroke-miterlimit:10;}
	.st19{fill:none;stroke:#FFFFFF;stroke-width:2;stroke-miterlimit:10;}
	.st20{fill:none;stroke:#8C8C8C;stroke-miterlimit:10;}
	.st21{fill:none;stroke:#8C8C8C;stroke-width:13;stroke-miterlimit:10;}
	.st22{fill:#EAEAEA;stroke:#8C8C8C;stroke-width:8;stroke-miterlimit:10;}
	.st23{fill:none;stroke:#8C8C8C;stroke-width:4;stroke-miterlimit:10;}
	.st24{fill:#8C8C8C;stroke:#8C8C8C;stroke-width:0.75;stroke-miterlimit:10;}
	.st25{fill:none;stroke:#8C8C8C;stroke-width:9;stroke-miterlimit:10;}
	.st26{fill:#8C8C8C;stroke:#8C8C8C;stroke-width:0.5;stroke-miterlimit:10;}
	.st27{stroke:#8C8C8C;stroke-width:8;stroke-miterlimit:10;}
	.st28{fill:#8C8C8C;stroke:#8C8C8C;stroke-miterlimit:10;}
	.st29{fill:none;stroke:#8C8C8C;stroke-width:11;stroke-miterlimit:10;}
	.st30{fill:none;stroke:#8C8C8C;stroke-width:6;stroke-miterlimit:10;}
	.st31{stroke:#8C8C8C;stroke-width:6;stroke-miterlimit:10;}
	.st32{fill:#8C8C8C;stroke:#8C8C8C;stroke-width:4;stroke-miterlimit:10;}
	.st33{fill:#8C8C8C;stroke:#8C8C8C;stroke-width:1.05;stroke-miterlimit:10;}
	.st34{fill:#D6D6D6;}
	.st35{fill:none;stroke:#EAEAEA;stroke-width:5;stroke-miterlimit:10;}
	.st36{fill:#8C8C8C;stroke:#8C8C8C;stroke-width:10;stroke-miterlimit:10;}
	.st37{fill:none;stroke:#CECECE;stroke-width:2;stroke-miterlimit:10;}
	.st38{fill:none;stroke:#FFFFFF;stroke-width:4;stroke-miterlimit:10;}
	.st39{fill-rule:evenodd;clip-rule:evenodd;fill:#8C8C8C;}
	.st40{fill:#8C8C8C;stroke:#8C8C8C;stroke-width:8;stroke-miterlimit:10;}
	.st41{fill:#8C8C8C;stroke:#8C8C8C;stroke-width:7;stroke-miterlimit:10;}
	.st42{fill:#DBDBDB;stroke:#8C8C8C;stroke-width:7;stroke-miterlimit:10;}
	.st43{fill:none;stroke:#8C8C8C;stroke-width:5;stroke-miterlimit:10;}
	.st44{fill:none;stroke:#8C8C8C;stroke-width:3;stroke-miterlimit:10;}
	.st45{clip-path:url(#SVGID_2_);fill:#8C8C8C;}
	.st46{clip-path:url(#SVGID_2_);fill:none;stroke:#8C8C8C;stroke-width:8;stroke-miterlimit:10;}
	.st47{clip-path:url(#SVGID_2_);fill:#FFFFFF;}
	.st48{clip-path:url(#SVGID_2_);fill:#EAEAEA;}
	.st49{clip-path:url(#SVGID_2_);fill:none;stroke:#8C8C8C;stroke-miterlimit:10;}
	.st50{fill:none;stroke:#FFFFFF;stroke-width:0.75;stroke-miterlimit:10;}
	.st51{fill:none;stroke:#8C8C8C;stroke-width:14;stroke-miterlimit:10;}
	.st52{fill:none;stroke:#EAEAEA;stroke-width:2;stroke-miterlimit:10;}
	.st53{fill:none;stroke:#8C8C8C;stroke-width:2;stroke-miterlimit:10;}
</style>
<rect x="-2" y="-1" class="st0" width="500" height="500"/>
<g>
	<rect x="-1" y="359" class="st2" width="500" height="144"/>
	<text transform="matrix(1 0 0 1 146.0781 397.5557)"><tspan x="0" y="0" class="st3 st4 st5">Caisse de </tspan><tspan x="4" y="64.8" class="st3 st4 st5">transport</tspan></text>
</g>
<g>
	<path class="st1" d="M359.9,165.5c-1.7-5.8-3.5-11.6-5.2-17.5h-45.5c2,6.8,4,13.5,6,20.3h-25.4V142h12.5c3,0,5.7,2,6.6,4.9l0.3,1.1
		h45.5l-4.5-15.2c-2.7-9.1-8.2-16.9-15.8-22.6c-7.6-5.7-16.6-8.7-26.1-8.7h-16.5v-3.1c0-10.2-8.3-18.5-18.5-18.5h-26.1
		c-10.2,0-18.5,8.3-18.5,18.5v3.1h-16.5c-9.5,0-18.5,3-26.1,8.7c-7.6,5.7-13.1,13.5-15.8,22.6L166,148h45.5l0.3-1.1
		c0.9-2.9,3.6-4.9,6.6-4.9h13.3v26.3h-26.2c2-6.8,4-13.5,6-20.3H166c-1.7,5.8-3.5,11.6-5.2,17.5c-5.9,19.7-6.3,40.7-1.4,60.6
		l7.6,30.7c4.8,19.5,22.3,33.2,42.4,33.2h101.9c20.1,0,37.6-13.7,42.4-33.2l7.6-30.7C366.3,206.2,365.8,185.2,359.9,165.5
		 M231.6,249.5h-15.8c-3.2,0-5.9-2.1-6.6-5.2l-5.2-21.1h27.6V249.5z M231.6,211h-29.7c-0.3,0-0.6,0-0.9,0.1
		c-2.1-10-1.8-20.5,0.8-30.4c0,0,0.1,0,0.1,0h29.7V211z M277.5,249.5h-33.6v-26.3h33.6V249.5z M277.5,211h-33.6v-30.3h33.6V211z
		 M277.5,168.3h-33.6V142h33.6V168.3z M279.5,101.6h-38.4v-3.1c0-3.4,2.8-6.2,6.2-6.2h26.1c3.4,0,6.2,2.8,6.2,6.2V101.6z
		 M311.5,244.3c-0.8,3.1-3.5,5.2-6.6,5.2h-15v-26.3h26.9L311.5,244.3z M319.7,211h-29.9v-30.3h29c0.8,3,1.4,6,1.7,9
		c0.1,4.1,0.2,8.2,0.3,12.3C320.7,205,320.3,208,319.7,211"/>
	<rect x="308.5" y="148.9" class="st0" width="12.1" height="11.1"/>
	<rect x="308.7" y="230.6" class="st0" width="12.1" height="11.1"/>
	<path class="st0" d="M195,197c0,2.9-2.4,5.3-5.3,5.3s-5.3-2.4-5.3-5.3c0-2.9,2.4-5.3,5.3-5.3S195,194,195,197"/>
</g>
</svg>
