<?xml version="1.0" encoding="utf-8"?>
<!-- Generator: Adobe Illustrator 22.1.0, SVG Export Plug-In . SVG Version: 6.00 Build 0)  -->
<svg version="1.1" id="Calque_1" xmlns="http://www.w3.org/2000/svg" x="0px" y="0px"
     viewBox="0 0 500 500" style="enable-background:new 0 0 500 500;" xml:space="preserve">
<style type="text/css">
	.st0{fill:#4FBDD7;}
	.st1{fill:#FFFFFF;}
	.st2{fill:none;stroke:#FFFFFF;stroke-width:7;stroke-miterlimit:10;}
	.st3{fill:none;stroke:#FFFFFF;stroke-width:10;stroke-miterlimit:10;}
	.st4{fill:#FFFFFF;stroke:#FFFFFF;stroke-width:3;stroke-miterlimit:10;}
	.st5{fill:#8C8C8C;}
	.st6{fill:none;stroke:#FFFFFF;stroke-width:8;stroke-miterlimit:10;}
	.st7{fill:#FFFFFF;stroke:#FFFFFF;stroke-width:6;stroke-miterlimit:10;}
	.st8{fill:#FFFFFF;stroke:#FFFFFF;stroke-width:2;stroke-miterlimit:10;}
	.st9{fill:#FFFFFF;stroke:#FFFFFF;stroke-miterlimit:10;}
	.st10{fill:#FFFFFF;stroke:#FFFFFF;stroke-width:8;stroke-miterlimit:10;}
	.st11{fill:none;stroke:#4FBDD7;stroke-miterlimit:10;}
	.st12{fill:none;stroke:#FFFFFF;stroke-miterlimit:10;}
	.st13{fill:#FFFFFF;stroke:#FFFFFF;stroke-width:7;stroke-miterlimit:10;}
	.st14{fill:#FFFFFF;stroke:#8C8C8C;stroke-miterlimit:10;}
	.st15{fill:#FFFFFF;stroke:#FFFFFF;stroke-width:13;stroke-miterlimit:10;}
	.st16{fill:#FFFFFF;stroke:#FFFFFF;stroke-width:10;stroke-miterlimit:10;}
	.st17{fill:#FFFFFF;stroke:#FFFFFF;stroke-width:4;stroke-miterlimit:10;}
	.st18{fill:#FFFFFF;stroke:#FFFFFF;stroke-width:0.75;stroke-miterlimit:10;}
	.st19{fill:#FFFFFF;stroke:#8C8C8C;stroke-width:0.5;stroke-miterlimit:10;}
	.st20{fill:#FFFFFF;stroke:#FDFFFF;stroke-width:8;stroke-miterlimit:10;}
	.st21{fill:none;stroke:#FDFFFF;stroke-width:8;stroke-miterlimit:10;}
	.st22{fill:#FFFFFF;stroke:#FFFFFF;stroke-width:11;stroke-miterlimit:10;}
	.st23{fill:#FFFFFF;stroke:#8C8C8C;stroke-width:4;stroke-miterlimit:10;}
	.st24{fill:#FFFFFF;stroke:#FFFFFF;stroke-width:1.05;stroke-miterlimit:10;}
	.st25{fill:none;stroke:#4FBDD7;stroke-width:5;stroke-miterlimit:10;}
	.st26{fill:#FFFFFF;stroke:#8C8C8C;stroke-width:0.75;stroke-miterlimit:10;}
	.st27{fill:#FFFFFF;stroke:#FCFCFC;stroke-width:4;stroke-miterlimit:10;}
	.st28{fill:none;stroke:#FCFCFC;stroke-width:4;stroke-miterlimit:10;}
	.st29{fill:#FFFFFF;stroke:#FCFCFC;stroke-miterlimit:10;}
	.st30{fill:#FFFFFF;stroke:#FCFCFC;stroke-width:10;stroke-miterlimit:10;}
	.st31{fill-rule:evenodd;clip-rule:evenodd;fill:#FFFFFF;}
</style>
<rect class="st0" width="500" height="500"/>
<g>
	<g>
		<path class="st1" d="M145,106c0.5-0.3,1-0.5,1.5-0.8c0.2,0.3,0.5,0.6,0.8,0.9l28.3,28.3c1.8-2.1,4.4-3.4,7.2-3.4
			c0.9,0,1.8,0.1,2.7,0.4l3.5,1.1l2.2-7.4l-31.5-31.5c-0.5-0.5-1-0.9-1.6-1.3l0.1-0.3c0.1-0.3,0.2-0.5,0.3-0.8
			c0.1-0.2,0.1-0.4,0.2-0.6c0.1-0.2,0.2-0.4,0.3-0.7c0.2-0.4,0.3-0.8,0.5-1.2l0.6-1.2l0.7-1.2c0.3-0.5,0.6-1,1-1.6
			c0.2-0.3,0.4-0.6,0.6-0.9c0.2-0.2,0.4-0.5,0.5-0.7c0.5-0.6,0.9-1.2,1.4-1.7l0.3-0.4c0.6-0.7,1.2-1.4,1.9-2
			c0.2-0.2,0.4-0.4,0.6-0.5c0.2-0.2,0.5-0.5,0.7-0.7l1.4-1c0,0,0.1-0.1,0.1-0.1c0.6-0.4,1.2-0.8,1.9-1.2c0.3-0.2,0.6-0.3,0.8-0.5
			c0.6-0.4,1.2-0.6,1.9-0.9c0.3-0.1,0.6-0.3,1-0.4c0.2-0.1,0.4-0.2,0.6-0.2c0.2-0.1,0.4-0.2,0.6-0.2l1.5-0.4c0.3-0.1,0.7-0.2,1-0.3
			c0.5-0.1,1-0.3,1.3-0.3l4.1-0.6c0.6-0.1,1.1-0.4,1.5-0.8c0.4-0.4,0.7-1,0.8-1.7c0.1-1.3-0.7-2.4-1.9-2.8l-4-1.1
			c-0.7-0.2-1.4-0.3-2.1-0.4c-0.3,0-0.6-0.1-1-0.2l-1.8-0.3c-0.5-0.1-1.1-0.1-1.5-0.1c-0.2,0-0.4,0-0.6,0c-0.5,0-0.8,0-1.1,0
			c-1,0-2.2-0.1-3.4,0.1l-0.8,0.1c-1.2,0.1-2.5,0.2-3.9,0.5l-2.2,0.4c-0.7,0.2-1.2,0.3-1.8,0.5l-0.7,0.2c-1.6,0.4-3,1.1-4.5,1.7
			l-0.2,0.1c-1.2,0.5-2.3,1.1-3.4,1.7l-0.9,0.5c-0.1,0-0.1,0.1-0.2,0.1c-0.3,0.2-0.7,0.4-1,0.6c-0.9,0.6-1.9,1.2-2.8,1.8l-1.5,1.1
			c0,0-0.2,0.1-0.2,0.2l-1.5,1.2c-0.4,0.3-0.8,0.6-1.1,0.9c-2.7,0.4-5.2,1.7-7.3,3.7l-3.2,3.2c-1.5,1.5-2.8,3.5-4,5.8
			c-5-1-11.7,6.4-21.8,16.5l22.5,22.5C136.2,120.1,145.9,111,145,106z"/>
		<polygon class="st1" points="192.8,109.2 197.2,94.5 178,94.5 		"/>
		<path class="st1" d="M361.2,186.1v-54.6c-0.4,0.5-0.8,1.1-1.2,1.6c-5.9,7.5-13.8,12.9-22.6,15.8h2.5v37.3h-50h-7.1l26.8-36.5
			c0.5-0.6,0.9-1.3,1.3-1.9c15,3.7,31.4-1.2,41.6-14.1c7.4-9.4,10.3-21.5,7.9-33.2c-0.3-1.3-1.3-2.4-2.6-2.7
			c-1.3-0.3-2.7,0.2-3.6,1.2L337,120.7l-22.4-4.3l-9.4-20.8l17.3-21.8c0.8-1.1,1-2.5,0.4-3.7c-0.6-1.2-1.9-2-3.2-1.9
			c-12,0.4-23.1,5.9-30.5,15.3c-10.2,12.8-11.3,30-4.2,43.7c-0.5,0.6-1.1,1.2-1.6,1.8l-34.6,41.2l8.4,8.4c2.2,2.2,3.7,4.8,4.5,7.7
			h-3.7c-0.7-1.9-1.8-3.6-3.3-5.2l-47.7-47.7l-1.2,4.2l3.2,1c2.4,0.7,4.4,2.3,5.6,4.6c1.2,2.2,1.5,4.8,0.8,7.2
			c-0.4,1.3-1.1,2.5-1.9,3.5c0.2,2.2,0.1,4.5-0.6,6.7l-4.3,14.4l11.3,11.3h-3.6h-7.9h-8l8.4-28.3c0.7-2.4,0.7-4.9,0-7.1
			c1.2-0.6,2.1-1.7,2.5-3.1c0.8-2.7-0.7-5.5-3.4-6.3l-7.5-2.2l20.3-68.5l0.6,0.2l5.3-10.2l2.1-15.9l-8.8-2.6L213,56.6l-1.1,11.4
			l0.7,0.2l-20.3,68.5l-7.8-2.3c-2.7-0.8-5.5,0.7-6.3,3.4c-0.4,1.3-0.2,2.6,0.3,3.7c-1.9,1.5-3.3,3.6-4.1,6.1L163,186.1h-7.6h-3.1
			v-37.3h14.2l2.5-8.5c0.6-2.1,1.1-2.7,2.3-4.5l-22.9-23.4c-3.1,4.3-6.2,8.8-11,13.6l-6.4,6.4v53.7h-6.9v74.6
			c0,23.5,19.1,42.6,42.6,42.6h158.8c23.5,0,42.6-19.1,42.6-42.6v-74.6H361.2z M193.9,159.6c0.8-2.8,3.8-4.5,6.7-3.6
			c2.8,0.8,4.4,3.8,3.6,6.7l-7,23.4H186L193.9,159.6z M176.6,154.5c0.8-2.8,3.8-4.5,6.7-3.6c2.8,0.8,4.5,3.8,3.6,6.7l-8.5,28.6
			h-11.2L176.6,154.5z"/>
		<path class="st1" d="M221.5,94.5l-8.2,27.8l26.6,26.6h14.3l23.7-28.2c-3.3-8.4-4-17.5-2.4-26.1L221.5,94.5L221.5,94.5z"/>
	</g>
</g>
<path class="st1" d="M137,194h218v85c0,6.6-5.4,12-12,12H149c-6.6,0-12-5.4-12-12V194z"/>
<path class="st1" d="M187.5,229l0,22c0,3.4,1.3,6.6,3.7,9c2.4,2.4,5.6,3.7,9,3.7l68.4,0l18.8,0.1h0c7.1,0,12.8-5.8,12.9-12.8
	l0.3-17.6l0,0c0-3.4-1.3-6.7-3.8-9.1c-2.4-2.4-5.6-3.8-9.1-3.8l-13-0.1h0c-4.4,0-8.1,3.4-8.6,7.7l-4.7,4.7l-5.8-5.9l0,0
	c-0.5-0.5-1.3-0.9-2.1-0.9c-0.8,0-1.5,0.3-2.1,0.9l-5.8,5.8l-5.8-5.8c-0.6-0.6-1.3-0.9-2.1-0.9c-0.8,0-1.5,0.3-2.1,0.9l-5.8,5.9
	l-5.8-5.8c-1.1-1.1-3-1.1-4.1,0l-5.8,5.8l-5.8-5.8c-0.6-0.6-1.3-0.9-2.1-0.9c-0.8,0-1.5,0.3-2.1,0.9l-5.8,5.9l-5.8-5.8
	c-0.8-0.8-2.1-1.1-3.2-0.6C188.3,226.7,187.5,227.8,187.5,229z M200.3,257.9c-1.9,0-3.6-0.7-4.9-2s-2-3-2-4.9v-0.2l72.6,0l-0.1,7.1
	L200.3,257.9z M274.8,226.2l13,0.1l0,0c1.9,0,3.6,0.7,4.9,2c1.3,1.3,2,3.1,2,4.9l-0.3,17.6l0,0c0,3.9-3.1,7-7,7l-15.8-0.1L272,229
	l0,0C272,227.5,273.3,226.2,274.8,226.2z M196.3,238.9c0.6,0.6,1.3,0.9,2.1,0.9c0.8,0,1.5-0.3,2.1-0.9l5.8-5.9l5.8,5.8
	c1.1,1.1,3,1.1,4.1,0l5.8-5.8l5.8,5.8c0.6,0.6,1.3,0.9,2.1,0.9c0.8,0,1.5-0.3,2.1-0.9l5.8-5.9l5.8,5.8c1.1,1.1,3,1.1,4.1,0l5.8-5.8
	l5.8,5.9c0.6,0.5,1.3,0.9,2.1,0.9c0.8,0,1.5-0.3,2.1-0.9l2.5-2.5l-0.1,8.5l-72.6,0l0-8.9L196.3,238.9L196.3,238.9z"/>
<g>
	<path class="st1" d="M117.4,379.9c-0.7-1.3-1.9-1.9-3.6-1.9c-1,0-1.8,0.3-2.4,0.8c-0.6,0.5-1.1,1.4-1.5,2.5
		c-0.4,1.2-0.6,2.7-0.8,4.6c-0.1,1.9-0.2,4.2-0.2,6.9c0,2.9,0.1,5.3,0.3,7.1c0.2,1.8,0.5,3.2,0.9,4.2c0.4,1,0.9,1.7,1.6,2
		c0.6,0.3,1.4,0.5,2.2,0.5c0.7,0,1.3-0.1,1.9-0.4c0.6-0.2,1.1-0.7,1.5-1.4c0.4-0.7,0.8-1.7,1-3c0.3-1.3,0.4-3,0.4-5h7.8
		c0,2.1-0.2,4.1-0.5,5.9c-0.3,1.9-0.9,3.5-1.8,4.9c-0.9,1.4-2.1,2.5-3.7,3.3c-1.6,0.8-3.7,1.2-6.2,1.2c-2.9,0-5.2-0.5-7-1.4
		s-3.1-2.3-4-4c-0.9-1.8-1.5-3.9-1.8-6.3c-0.3-2.4-0.4-5.1-0.4-8.1c0-2.9,0.1-5.6,0.4-8.1c0.3-2.5,0.9-4.6,1.8-6.3
		c0.9-1.8,2.2-3.1,4-4.1c1.7-1,4.1-1.5,7-1.5c2.8,0,5,0.5,6.6,1.4c1.6,0.9,2.8,2,3.6,3.4c0.8,1.4,1.3,2.9,1.5,4.5
		c0.2,1.6,0.3,3.1,0.3,4.5h-7.8C118.4,383.2,118.1,381.2,117.4,379.9z"/>
	<path class="st1" d="M130.6,390.7c0-1.7,0.3-3.1,0.8-4.2c0.5-1.1,1.3-2.1,2.2-2.8c0.9-0.7,2-1.2,3.2-1.5c1.2-0.3,2.6-0.5,4-0.5
		c2.2,0,4,0.2,5.4,0.6c1.4,0.4,2.4,1,3.2,1.8c0.8,0.8,1.3,1.7,1.5,2.8c0.3,1.1,0.4,2.3,0.4,3.6v15.3c0,1.4,0.1,2.4,0.2,3.2
		c0.1,0.8,0.4,1.6,0.7,2.4h-7.1c-0.3-0.5-0.4-1-0.6-1.5c-0.1-0.5-0.2-1-0.4-1.5h-0.1c-0.9,1.5-1.9,2.5-3,2.9
		c-1.1,0.4-2.6,0.7-4.4,0.7c-1.3,0-2.4-0.2-3.3-0.7c-0.9-0.4-1.6-1.1-2.2-1.9c-0.5-0.8-0.9-1.7-1.2-2.7c-0.3-1-0.4-2-0.4-2.9
		c0-1.4,0.1-2.5,0.4-3.5c0.3-1,0.7-1.8,1.3-2.5c0.6-0.7,1.3-1.3,2.3-1.8c0.9-0.5,2-0.9,3.3-1.2l4.2-1.1c1.1-0.3,1.9-0.7,2.3-1.2
		c0.4-0.5,0.6-1.2,0.6-2.2c0-1.1-0.3-2-0.8-2.6c-0.5-0.6-1.4-0.9-2.7-0.9c-1.2,0-2,0.3-2.6,1c-0.6,0.7-0.9,1.6-0.9,2.8v0.8h-6.7
		V390.7z M142.6,398c-0.6,0.2-1.1,0.4-1.6,0.5c-1.5,0.3-2.6,0.9-3.2,1.6c-0.6,0.8-1,1.8-1,3.1c0,1.1,0.2,2.1,0.6,2.9
		c0.4,0.8,1.2,1.2,2.2,1.2c0.5,0,1-0.1,1.6-0.2c0.5-0.2,1-0.4,1.5-0.8c0.5-0.4,0.8-0.8,1.1-1.4c0.3-0.6,0.4-1.3,0.4-2.1V397
		C143.7,397.4,143.2,397.7,142.6,398z"/>
	<path class="st1" d="M164.4,372.6v6.4h-7.5v-6.4H164.4z M164.4,382.5v29.1h-7.5v-29.1H164.4z"/>
	<path class="st1" d="M175.1,403c0,1.3,0.3,2.3,1,3.1c0.7,0.8,1.6,1.2,2.9,1.2c1.2,0,2.1-0.3,2.8-0.9c0.7-0.6,1-1.4,1-2.6
		c0-0.9-0.3-1.6-0.8-2.1c-0.5-0.5-1.2-0.9-1.9-1.2l-5.2-1.9c-2.1-0.7-3.6-1.7-4.6-3.1c-1-1.3-1.6-3-1.6-5c0-1.2,0.2-2.3,0.6-3.4
		c0.4-1.1,1-2,1.9-2.8c0.9-0.8,2-1.4,3.3-1.9c1.3-0.5,3-0.7,4.9-0.7c3.4,0,5.9,0.7,7.5,2.2c1.6,1.4,2.4,3.5,2.4,6.1v1.2h-6.7
		c0-1.5-0.2-2.6-0.7-3.3c-0.5-0.7-1.3-1.1-2.6-1.1c-0.9,0-1.8,0.3-2.5,0.8c-0.7,0.5-1.1,1.3-1.1,2.3c0,0.7,0.2,1.4,0.7,1.9
		c0.5,0.6,1.3,1.1,2.6,1.5l4.5,1.5c2.3,0.8,4,1.8,5,3.1c1,1.3,1.5,3,1.5,5.2c0,1.5-0.3,2.9-0.8,4c-0.5,1.1-1.3,2.1-2.2,2.8
		c-1,0.8-2.1,1.3-3.4,1.6c-1.3,0.3-2.8,0.5-4.3,0.5c-2.1,0-3.8-0.2-5.2-0.6c-1.4-0.4-2.5-1-3.3-1.8c-0.8-0.8-1.4-1.8-1.7-2.9
		c-0.3-1.1-0.5-2.4-0.5-3.8v-1h6.7V403z"/>
	<path class="st1" d="M199.1,403c0,1.3,0.3,2.3,1,3.1c0.7,0.8,1.6,1.2,2.9,1.2c1.2,0,2.1-0.3,2.8-0.9c0.7-0.6,1-1.4,1-2.6
		c0-0.9-0.3-1.6-0.8-2.1c-0.5-0.5-1.2-0.9-1.9-1.2l-5.2-1.9c-2.1-0.7-3.6-1.7-4.6-3.1c-1-1.3-1.6-3-1.6-5c0-1.2,0.2-2.3,0.6-3.4
		c0.4-1.1,1-2,1.9-2.8c0.9-0.8,2-1.4,3.3-1.9c1.3-0.5,3-0.7,4.9-0.7c3.4,0,5.9,0.7,7.5,2.2c1.6,1.4,2.4,3.5,2.4,6.1v1.2h-6.7
		c0-1.5-0.2-2.6-0.7-3.3c-0.5-0.7-1.3-1.1-2.6-1.1c-0.9,0-1.8,0.3-2.5,0.8c-0.7,0.5-1.1,1.3-1.1,2.3c0,0.7,0.2,1.4,0.7,1.9
		c0.5,0.6,1.3,1.1,2.6,1.5l4.5,1.5c2.3,0.8,4,1.8,5,3.1c1,1.3,1.5,3,1.5,5.2c0,1.5-0.3,2.9-0.8,4c-0.5,1.1-1.3,2.1-2.2,2.8
		c-1,0.8-2.1,1.3-3.4,1.6c-1.3,0.3-2.8,0.5-4.3,0.5c-2.1,0-3.8-0.2-5.2-0.6c-1.4-0.4-2.5-1-3.3-1.8c-0.8-0.8-1.4-1.8-1.7-2.9
		c-0.3-1.1-0.5-2.4-0.5-3.8v-1h6.7V403z"/>
	<path class="st1" d="M223.9,400.5c0,0.9,0.1,1.7,0.2,2.5c0.1,0.8,0.3,1.5,0.6,2.2c0.3,0.6,0.7,1.1,1.1,1.5c0.5,0.4,1,0.6,1.7,0.6
		c1.3,0,2.2-0.4,2.8-1.4c0.6-0.9,1-2.3,1.2-4.1h6.7c-0.1,3.4-1,6-2.7,7.7c-1.7,1.8-4.3,2.6-7.8,2.6c-2.7,0-4.8-0.5-6.3-1.4
		s-2.6-2.1-3.3-3.6c-0.7-1.5-1.2-3.1-1.3-5s-0.2-3.7-0.2-5.5c0-1.9,0.1-3.8,0.4-5.6c0.3-1.8,0.8-3.4,1.6-4.8c0.8-1.4,2-2.5,3.5-3.3
		c1.5-0.8,3.5-1.2,6-1.2c2.2,0,3.9,0.4,5.3,1.1c1.4,0.7,2.5,1.7,3.3,3c0.8,1.3,1.3,2.8,1.6,4.6c0.3,1.8,0.4,3.8,0.4,6.1v1.7h-14.7
		V400.5z M231.3,390.8c-0.1-0.8-0.3-1.6-0.6-2.2c-0.3-0.6-0.6-1-1.1-1.4c-0.5-0.3-1.1-0.5-1.9-0.5s-1.4,0.2-1.9,0.5
		c-0.5,0.3-0.9,0.8-1.2,1.4c-0.3,0.6-0.5,1.2-0.6,1.9c-0.1,0.7-0.2,1.4-0.2,2.1v1.1h7.6C231.5,392.6,231.5,391.6,231.3,390.8z"/>
	<path class="st1" d="M255.5,390.7c0-1.7,0.3-3.1,0.8-4.2c0.5-1.1,1.3-2.1,2.2-2.8s2-1.2,3.2-1.5c1.2-0.3,2.6-0.5,4-0.5
		c2.2,0,4,0.2,5.4,0.6c1.4,0.4,2.4,1,3.2,1.8c0.8,0.8,1.3,1.7,1.5,2.8s0.4,2.3,0.4,3.6v15.3c0,1.4,0.1,2.4,0.2,3.2
		c0.1,0.8,0.4,1.6,0.7,2.4H270c-0.3-0.5-0.4-1-0.6-1.5c-0.1-0.5-0.2-1-0.4-1.5H269c-0.9,1.5-1.9,2.5-3,2.9c-1.1,0.4-2.6,0.7-4.4,0.7
		c-1.3,0-2.4-0.2-3.3-0.7c-0.9-0.4-1.6-1.1-2.2-1.9c-0.5-0.8-0.9-1.7-1.2-2.7c-0.3-1-0.4-2-0.4-2.9c0-1.4,0.1-2.5,0.4-3.5
		c0.3-1,0.7-1.8,1.3-2.5c0.6-0.7,1.3-1.3,2.3-1.8c0.9-0.5,2-0.9,3.3-1.2l4.2-1.1c1.1-0.3,1.9-0.7,2.3-1.2c0.4-0.5,0.6-1.2,0.6-2.2
		c0-1.1-0.3-2-0.8-2.6c-0.5-0.6-1.4-0.9-2.7-0.9c-1.2,0-2,0.3-2.6,1c-0.6,0.7-0.9,1.6-0.9,2.8v0.8h-6.7V390.7z M259.2,371.3h7.5
		l2.9,7.8h-5.1L259.2,371.3z M267.5,398c-0.6,0.2-1.1,0.4-1.6,0.5c-1.5,0.3-2.6,0.9-3.2,1.6c-0.6,0.8-1,1.8-1,3.1
		c0,1.1,0.2,2.1,0.6,2.9c0.4,0.8,1.2,1.2,2.2,1.2c0.5,0,1-0.1,1.6-0.2s1-0.4,1.5-0.8c0.4-0.4,0.8-0.8,1.1-1.4
		c0.3-0.6,0.4-1.3,0.4-2.1V397C268.6,397.4,268,397.7,267.5,398z"/>
	<path class="st1" d="M294.1,390.4c0.4-1.9,1-3.5,1.9-4.8c0.9-1.3,2.1-2.2,3.5-2.9c1.5-0.7,3.2-1,5.4-1c2.2,0,4.1,0.3,5.6,0.9
		c1.5,0.6,2.6,1.6,3.5,2.9c0.9,1.3,1.5,2.9,1.8,4.8c0.4,1.9,0.5,4.1,0.5,6.7c0,2.5-0.2,4.7-0.6,6.6c-0.4,1.9-1,3.5-1.9,4.8
		c-0.9,1.3-2.1,2.2-3.5,2.8c-1.5,0.6-3.2,0.9-5.4,0.9c-2.2,0-4.1-0.2-5.6-0.8c-1.5-0.6-2.6-1.5-3.5-2.8s-1.5-2.9-1.8-4.8
		c-0.4-1.9-0.5-4.1-0.5-6.7C293.5,394.5,293.7,392.4,294.1,390.4z M301.1,401.1c0.1,1.3,0.2,2.3,0.5,3.2c0.3,0.9,0.7,1.6,1.2,2.1
		c0.5,0.5,1.3,0.8,2.2,0.8c1.5,0,2.6-0.8,3.1-2.4c0.6-1.6,0.9-4.2,0.9-7.8c0-3.6-0.3-6.2-0.9-7.8c-0.6-1.6-1.6-2.4-3.1-2.4
		c-0.9,0-1.6,0.3-2.2,0.8c-0.5,0.5-0.9,1.2-1.2,2.1c-0.3,0.9-0.4,2-0.5,3.2c-0.1,1.3-0.1,2.6-0.1,4.1
		C301,398.5,301,399.9,301.1,401.1z"/>
	<path class="st1" d="M335.2,408.2c-0.8,1.4-1.8,2.5-3.1,3.1c-1.3,0.6-2.7,0.9-4.3,0.9c-2.4,0-4.2-0.6-5.5-1.9
		c-1.3-1.2-1.9-3.3-1.9-6.2v-21.5h7.5v20c0,1.5,0.3,2.6,0.8,3.2c0.5,0.6,1.3,0.9,2.4,0.9c2.6,0,3.9-1.6,3.9-4.8v-19.3h7.5v29.1h-7.1
		v-3.4H335.2z"/>
	<path class="st1" d="M356.5,374.2v8.3h4.3v5.1h-4.3v15.7c0,1.2,0.2,2,0.5,2.5c0.3,0.5,1.1,0.7,2.1,0.7c0.3,0,0.6,0,0.9,0
		c0.3,0,0.6,0,0.8-0.1v5.2c-0.8,0-1.6,0-2.4,0.1c-0.8,0.1-1.6,0.1-2.5,0.1c-1.4,0-2.6-0.1-3.5-0.3c-0.9-0.2-1.6-0.6-2.1-1.2
		c-0.5-0.6-0.8-1.4-1-2.3c-0.2-1-0.3-2.2-0.3-3.7v-16.6h-3.8v-5.1h3.8v-8.3H356.5z"/>
	<path class="st1" d="M371.1,372.6v6.4h-7.5v-6.4H371.1z M371.1,382.5v29.1h-7.5v-29.1H371.1z"/>
	<path class="st1" d="M384.1,373v38.6h-7.5V373H384.1z"/>
	<path class="st1" d="M394.7,403c0,1.3,0.3,2.3,1,3.1c0.7,0.8,1.6,1.2,2.9,1.2c1.2,0,2.1-0.3,2.8-0.9c0.7-0.6,1-1.4,1-2.6
		c0-0.9-0.3-1.6-0.8-2.1c-0.5-0.5-1.2-0.9-1.9-1.2l-5.2-1.9c-2.1-0.7-3.6-1.7-4.6-3.1c-1-1.3-1.6-3-1.6-5c0-1.2,0.2-2.3,0.6-3.4
		c0.4-1.1,1-2,1.9-2.8c0.9-0.8,2-1.4,3.3-1.9c1.3-0.5,3-0.7,4.9-0.7c3.4,0,5.9,0.7,7.5,2.2c1.6,1.4,2.4,3.5,2.4,6.1v1.2h-6.7
		c0-1.5-0.2-2.6-0.7-3.3c-0.5-0.7-1.3-1.1-2.6-1.1c-0.9,0-1.8,0.3-2.5,0.8c-0.7,0.5-1.1,1.3-1.1,2.3c0,0.7,0.2,1.4,0.7,1.9
		c0.5,0.6,1.3,1.1,2.6,1.5l4.5,1.5c2.3,0.8,4,1.8,5,3.1c1,1.3,1.5,3,1.5,5.2c0,1.5-0.3,2.9-0.8,4c-0.5,1.1-1.3,2.1-2.2,2.8
		c-1,0.8-2.1,1.3-3.4,1.6c-1.3,0.3-2.8,0.5-4.3,0.5c-2.1,0-3.8-0.2-5.2-0.6c-1.4-0.4-2.5-1-3.3-1.8c-0.8-0.8-1.4-1.8-1.7-2.9
		c-0.3-1.1-0.5-2.4-0.5-3.8v-1h6.7V403z"/>
</g>
</svg>
