<?xml version="1.0" encoding="utf-8"?>
<!-- Generator: Adobe Illustrator 22.1.0, SVG Export Plug-In . SVG Version: 6.00 Build 0)  -->
<svg version="1.1" id="Calque_1" xmlns="http://www.w3.org/2000/svg" x="0px" y="0px"
     viewBox="0 0 500 500" style="enable-background:new 0 0 500 500;" xml:space="preserve">
<style type="text/css">
	.st0{fill:#EAEAEA;}
	.st1{fill:#8C8C8C;}
	.st2{fill:#FFFFFF;}
	.st3{fill:#EAEAEA;stroke:#8C8C8C;stroke-width:7;stroke-miterlimit:10;}
	.st4{fill:#070707;}
	.st5{fill:none;stroke:#8C8C8C;stroke-width:7;stroke-miterlimit:10;}
	.st6{fill:none;stroke:#8C8C8C;stroke-width:10;stroke-miterlimit:10;}
	.st7{fill:#8C8C8C;stroke:#8C8C8C;stroke-width:3;stroke-miterlimit:10;}
	.st8{fill:none;stroke:#8C8C8C;stroke-width:8;stroke-miterlimit:10;}
	.st9{fill:none;stroke:#8E8E8E;stroke-width:6;stroke-miterlimit:10;}
	.st10{fill:#8E8E8E;}
	.st11{fill:#505050;}
	.st12{fill:none;stroke:#8E8E8E;stroke-width:2;stroke-miterlimit:10;}
	.st13{fill:#8C8C8C;stroke:#8C8C8C;stroke-width:2;stroke-miterlimit:10;}
	.st14{fill:#8C8C8C;stroke:#FFFFFF;stroke-width:2;stroke-miterlimit:10;}
	.st15{fill:none;stroke:#FFFFFF;stroke-width:2;stroke-miterlimit:10;}
	.st16{fill:none;stroke:#8C8C8C;stroke-miterlimit:10;}
	.st17{fill:none;stroke:#8C8C8C;stroke-width:13;stroke-miterlimit:10;}
	.st18{fill:#EAEAEA;stroke:#8C8C8C;stroke-width:8;stroke-miterlimit:10;}
	.st19{fill:none;stroke:#8C8C8C;stroke-width:4;stroke-miterlimit:10;}
	.st20{fill:#8C8C8C;stroke:#8C8C8C;stroke-width:0.75;stroke-miterlimit:10;}
	.st21{fill:none;stroke:#8C8C8C;stroke-width:9;stroke-miterlimit:10;}
	.st22{fill:#8C8C8C;stroke:#8C8C8C;stroke-width:0.5;stroke-miterlimit:10;}
	.st23{fill:none;}
	.st24{fill:#6B6B6B;}
	.st25{font-family:'HelveticaNeue-CondensedBold';}
	.st26{font-size:54px;}
	.st27{stroke:#8C8C8C;stroke-width:8;stroke-miterlimit:10;}
	.st28{fill:#8C8C8C;stroke:#8C8C8C;stroke-miterlimit:10;}
	.st29{fill:none;stroke:#8C8C8C;stroke-width:11;stroke-miterlimit:10;}
	.st30{fill:none;stroke:#8C8C8C;stroke-width:6;stroke-miterlimit:10;}
	.st31{stroke:#8C8C8C;stroke-width:6;stroke-miterlimit:10;}
	.st32{fill:#8C8C8C;stroke:#8C8C8C;stroke-width:4;stroke-miterlimit:10;}
	.st33{fill:#8C8C8C;stroke:#8C8C8C;stroke-width:1.05;stroke-miterlimit:10;}
	.st34{fill:#D6D6D6;}
	.st35{fill:none;stroke:#EAEAEA;stroke-width:5;stroke-miterlimit:10;}
	.st36{fill:#8C8C8C;stroke:#8C8C8C;stroke-width:10;stroke-miterlimit:10;}
	.st37{fill:none;stroke:#CECECE;stroke-width:2;stroke-miterlimit:10;}
	.st38{fill:none;stroke:#FFFFFF;stroke-width:4;stroke-miterlimit:10;}
	.st39{fill-rule:evenodd;clip-rule:evenodd;fill:#8C8C8C;}
	.st40{fill:#8C8C8C;stroke:#8C8C8C;stroke-width:8;stroke-miterlimit:10;}
	.st41{fill:#8C8C8C;stroke:#8C8C8C;stroke-width:7;stroke-miterlimit:10;}
	.st42{fill:#DBDBDB;stroke:#8C8C8C;stroke-width:7;stroke-miterlimit:10;}
	.st43{fill:none;stroke:#8C8C8C;stroke-width:5;stroke-miterlimit:10;}
	.st44{fill:none;stroke:#8C8C8C;stroke-width:3;stroke-miterlimit:10;}
	.st45{clip-path:url(#SVGID_2_);fill:#8C8C8C;}
	.st46{clip-path:url(#SVGID_2_);fill:none;stroke:#8C8C8C;stroke-width:8;stroke-miterlimit:10;}
	.st47{clip-path:url(#SVGID_2_);fill:#FFFFFF;}
	.st48{clip-path:url(#SVGID_2_);fill:#EAEAEA;}
	.st49{clip-path:url(#SVGID_2_);fill:none;stroke:#8C8C8C;stroke-miterlimit:10;}
	.st50{fill:none;stroke:#FFFFFF;stroke-width:0.75;stroke-miterlimit:10;}
	.st51{fill:none;stroke:#8C8C8C;stroke-width:14;stroke-miterlimit:10;}
	.st52{fill:none;stroke:#EAEAEA;stroke-width:2;stroke-miterlimit:10;}
	.st53{fill:none;stroke:#8C8C8C;stroke-width:2;stroke-miterlimit:10;}
</style>
<rect x="1" class="st0" width="500" height="500"/>
<path class="st13" d="M302.2,135.6c0.1,1.9,0,4.1-1,6c-1.2,2.3-3.8,4.6-6.9,4.6c-4.2,0-7.6-3.4-7.6-7.6v-1.4c0-5.1-4.2-9.3-9.3-9.3
	c-5.1,0-9.3,4.2-9.3,9.3v10.9c0,4.2-3.4,7.6-7.6,7.6c-4.2,0-7.6-3.4-7.6-7.6v-30c0-4.5,3.7-8.2,8.2-8.2h32.6c4.5,0,8.2,3.7,8.2,8.2
	v12.7 M307.5,135.4c-0.1-2.8-0.9-4.8-1.3-4.9c-0.6-0.1-1,2.8-2.1,2.8c-1,0-1.7-2.2-2.1-2.1c-0.4,0.1,0.1,2,0.3,4.3 M306.7,130.4
	v-0.3h47.4c6.9,0,12.5-5.6,12.5-12.5S361,105,354.1,105h-93c-7.2,0-13.1,5.9-13.1,13.1v30c0,6.9,5.6,12.5,12.5,12.5
	c6.9,0,12.5-5.6,12.5-12.5v-11c0-2.4,2-4.4,4.4-4.4s4.4,2,4.4,4.4v1.4c0,6.9,5.6,12.5,12.5,12.5c7.2,0,11.2-7.1,11.4-7.5
	c1.5-2.8,1.9-5.7,1.8-8.1 M301.8,130.8v0.4c0,1.4,1.1,2.5,2.5,2.5s2.5-1.1,2.5-2.5v-0.8 M354.1,125.2h-47.4v-7.1
	c0-3.1-1.1-5.9-2.9-8.2h50.3c4.2,0,7.6,3.4,7.6,7.6C361.7,121.8,358.3,125.2,354.1,125.2z"/>
<path class="st1" d="M329.3,203.9h-2.6v-23.5c0-6.3-5.1-11.4-11.4-11.4H178.5c-6.3,0-11.4,5.1-11.4,11.4v23.5h-2.6
	c-6,0-10.9,4.9-10.9,10.9v40.5c0,2.5,0.2,5,0.5,7.5c0.3,1.8,1.9,3,3.7,2.7c1.8-0.3,3-1.9,2.7-3.7c-0.3-2.2-0.5-4.4-0.5-6.6v-40.5
	c0-2.5,2-4.5,4.5-4.5h164.9c2.5,0,4.5,2,4.5,4.5v40.5c0,25.5-20.7,46.2-46.2,46.2h-81.5c-5.9,0-11.7-1.1-17.1-3.3
	c-3.7-1.5-6.5-3.2-7.8-4c-10.7-6.9-19.8-19.5-20.2-28.3c0-0.1,0-3.5-0.9-3.7c-0.7-0.2-1.3,1.6-2.8,1.9c-1.5,0.2-2.3-1.2-2.8-0.9
	c-1.2,0.6,1.2,11.5,8.2,21.9c1.7,2.5,6.5,9.2,15.1,14.7c8.5,5.5,18.3,8.3,28.4,8.3h81.5c29,0,52.6-23.6,52.6-52.6v-40.5
	C340.2,208.9,335.3,203.9,329.3,203.9z M320.2,203.9H173.5v-5h146.7V203.9z M320.2,180.5H173.5v-0.1c0-2.7,2.2-5,5-5h136.8
	C318,175.5,320.2,177.7,320.2,180.5L320.2,180.5z M148.8,266.9"/>
<g>
	<rect x="-6" y="366" class="st23" width="520" height="144"/>
	<text transform="matrix(1 0 0 1 211.5298 404.5557)"><tspan x="0" y="0" class="st24 st25 st26">Cire </tspan><tspan x="-71.9" y="64.8" class="st24 st25 st26">dépilatoire </tspan></text>
</g>
</svg>
