<?xml version="1.0" encoding="utf-8"?>
<!-- Generator: Adobe Illustrator 22.1.0, SVG Export Plug-In . SVG Version: 6.00 Build 0)  -->
<svg version="1.1" id="Calque_1" xmlns="http://www.w3.org/2000/svg" x="0px" y="0px"
     viewBox="0 0 500 500" style="enable-background:new 0 0 500 500;" xml:space="preserve">
<style type="text/css">
	.st0{fill:#EAEAEA;}
	.st1{fill:#8C8C8C;}
	.st2{fill:none;}
	.st3{fill:#6B6B6B;}
	.st4{font-family:'HelveticaNeue-CondensedBold';}
	.st5{font-size:54px;}
	.st6{fill:#FFFFFF;}
	.st7{fill:#EAEAEA;stroke:#8C8C8C;stroke-width:7;stroke-miterlimit:10;}
	.st8{fill:#070707;}
	.st9{fill:none;stroke:#8C8C8C;stroke-width:7;stroke-miterlimit:10;}
	.st10{fill:none;stroke:#8C8C8C;stroke-width:10;stroke-miterlimit:10;}
	.st11{fill:#8C8C8C;stroke:#8C8C8C;stroke-width:3;stroke-miterlimit:10;}
	.st12{fill:none;stroke:#8C8C8C;stroke-width:8;stroke-miterlimit:10;}
	.st13{fill:none;stroke:#8E8E8E;stroke-width:6;stroke-miterlimit:10;}
	.st14{fill:#8E8E8E;}
	.st15{fill:#505050;}
	.st16{fill:none;stroke:#8E8E8E;stroke-width:2;stroke-miterlimit:10;}
	.st17{fill:#8C8C8C;stroke:#8C8C8C;stroke-width:2;stroke-miterlimit:10;}
	.st18{fill:#8C8C8C;stroke:#FFFFFF;stroke-width:2;stroke-miterlimit:10;}
	.st19{fill:none;stroke:#FFFFFF;stroke-width:2;stroke-miterlimit:10;}
	.st20{fill:none;stroke:#8C8C8C;stroke-miterlimit:10;}
	.st21{fill:none;stroke:#8C8C8C;stroke-width:13;stroke-miterlimit:10;}
	.st22{fill:#EAEAEA;stroke:#8C8C8C;stroke-width:8;stroke-miterlimit:10;}
	.st23{fill:none;stroke:#8C8C8C;stroke-width:4;stroke-miterlimit:10;}
	.st24{fill:#8C8C8C;stroke:#8C8C8C;stroke-width:0.75;stroke-miterlimit:10;}
	.st25{fill:none;stroke:#8C8C8C;stroke-width:9;stroke-miterlimit:10;}
	.st26{fill:#8C8C8C;stroke:#8C8C8C;stroke-width:0.5;stroke-miterlimit:10;}
	.st27{stroke:#8C8C8C;stroke-width:8;stroke-miterlimit:10;}
	.st28{fill:#8C8C8C;stroke:#8C8C8C;stroke-miterlimit:10;}
	.st29{fill:none;stroke:#8C8C8C;stroke-width:11;stroke-miterlimit:10;}
	.st30{fill:none;stroke:#8C8C8C;stroke-width:6;stroke-miterlimit:10;}
	.st31{stroke:#8C8C8C;stroke-width:6;stroke-miterlimit:10;}
	.st32{fill:#8C8C8C;stroke:#8C8C8C;stroke-width:4;stroke-miterlimit:10;}
	.st33{fill:#8C8C8C;stroke:#8C8C8C;stroke-width:1.05;stroke-miterlimit:10;}
	.st34{fill:#D6D6D6;}
	.st35{fill:none;stroke:#EAEAEA;stroke-width:5;stroke-miterlimit:10;}
	.st36{fill:#8C8C8C;stroke:#8C8C8C;stroke-width:10;stroke-miterlimit:10;}
	.st37{fill:none;stroke:#CECECE;stroke-width:2;stroke-miterlimit:10;}
	.st38{fill:none;stroke:#FFFFFF;stroke-width:4;stroke-miterlimit:10;}
	.st39{fill-rule:evenodd;clip-rule:evenodd;fill:#8C8C8C;}
	.st40{fill:#8C8C8C;stroke:#8C8C8C;stroke-width:8;stroke-miterlimit:10;}
	.st41{fill:#8C8C8C;stroke:#8C8C8C;stroke-width:7;stroke-miterlimit:10;}
	.st42{fill:#DBDBDB;stroke:#8C8C8C;stroke-width:7;stroke-miterlimit:10;}
	.st43{fill:none;stroke:#8C8C8C;stroke-width:5;stroke-miterlimit:10;}
	.st44{fill:none;stroke:#8C8C8C;stroke-width:3;stroke-miterlimit:10;}
	.st45{clip-path:url(#SVGID_2_);fill:#8C8C8C;}
	.st46{clip-path:url(#SVGID_2_);fill:none;stroke:#8C8C8C;stroke-width:8;stroke-miterlimit:10;}
	.st47{clip-path:url(#SVGID_2_);fill:#FFFFFF;}
	.st48{clip-path:url(#SVGID_2_);fill:#EAEAEA;}
	.st49{clip-path:url(#SVGID_2_);fill:none;stroke:#8C8C8C;stroke-miterlimit:10;}
	.st50{fill:none;stroke:#FFFFFF;stroke-width:0.75;stroke-miterlimit:10;}
	.st51{fill:none;stroke:#8C8C8C;stroke-width:14;stroke-miterlimit:10;}
	.st52{fill:none;stroke:#EAEAEA;stroke-width:2;stroke-miterlimit:10;}
	.st53{fill:none;stroke:#8C8C8C;stroke-width:2;stroke-miterlimit:10;}
</style>
<rect x="1" class="st0" width="500" height="500"/>
<g>
	<rect x="-4" y="363" class="st2" width="500" height="144"/>
	<text transform="matrix(1 0 0 1 169.0513 401.5557)" class="st3 st4 st5">Cithare</text>
</g>
<g>
	<path class="st1" d="M222.5,81.5L195.2,96l-32.1,17.1l-27.3,14.5l-5.6,3l6,11.3l4.8-2.5l35.8,80.1l-5.7,3l6,11.3l4.9-2.6l21,46.9
		c6.9,15.5,19.6,27,35.6,32.6s33.1,4.2,48.1-3.8c14.3-7.6,24.7-20.2,29.5-35.7c0.2-0.7,0.4-1.4,0.6-2.1c4.4-16.4,1.9-33.3-7.1-47.7
		l-27.2-43.6l4.9-2.6l-6-11.3l-5.7,3l-46.4-74.5l4.8-2.5l-6-11.3L222.5,81.5z M152.4,133.3l5.4-2.9l41.1,77.3l-10.7,5.7L152.4,133.3
		z M298.8,228.2c7.1,11.3,9,24.7,5.6,37.6c-3.5,12.9-11.9,23.5-23.7,29.7c-11.8,6.3-25.3,7.3-37.9,3c-12.6-4.3-22.6-13.5-28-25.7
		l-21.3-47.8l6.9-3.7c0.5,3.5,1.6,6.8,3.2,10c6.7,12.6,21.2,18.5,34.4,14.9l16.2,30.4l-8.7,4.6l6,11.3l43.2-23l-6-11.3l-8.7,4.6
		l-16.2-30.4c4.3-3.7,7.4-8.5,9.1-14c2.3-7.7,1.6-15.8-2.2-22.9c-1.7-3.2-3.9-6-6.5-8.3l6.9-3.7L298.8,228.2z M264.3,172.9
		l-10.7,5.7l-41.1-77.3l4.5-2.4l0.9-0.5L264.3,172.9z"/>

		<rect x="210.3" y="109.1" transform="matrix(0.8881 -0.4597 0.4597 0.8881 -55.7096 119.3907)" class="st0" width="14" height="130"/>
	<path class="st0" d="M212.8,215.8c-0.4-0.8-0.7-1.6-1.1-2.4c-14.5-28.5-29-57-43.5-85.5c3.5-1.8,7-3.7,10.6-5.5
		c19.1,38,38.2,75.9,57.3,113.9c-1.5,0.7-6.4,2.7-11.9,1c-2.8-0.8-4.8-2.3-5.9-3.2c-1.7-1.4-3.2-3.2-4.3-5.2
		C211.8,224.9,211.4,220.3,212.8,215.8"/>
	<path class="st0" d="M263.8,200.5c1,2.1,1.6,4.3,1.8,6.5c0.1,1.4,0.1,3.9-0.8,6.6c-1.9,5.5-6.3,8.3-7.7,9.2
		c-20-37.5-40.1-75-60.1-112.5c3.5-1.8,7-3.6,10.6-5.5c15,28.3,29.9,56.5,44.9,84.8l1.3,2.2C258.1,193.3,261.7,196.4,263.8,200.5"/>
</g>
</svg>
