<?xml version="1.0" encoding="utf-8"?>
<!-- Generator: Adobe Illustrator 22.1.0, SVG Export Plug-In . SVG Version: 6.00 Build 0)  -->
<svg version="1.1" id="Calque_1" xmlns="http://www.w3.org/2000/svg" xmlns:xlink="http://www.w3.org/1999/xlink" x="0px" y="0px"
	 viewBox="0 0 500 500" style="enable-background:new 0 0 500 500;" xml:space="preserve">
<style type="text/css">
	.st0{fill:#4FBDD7;}
	.st1{fill:#EAEAEA;}
	.st2{fill:#FFFFFF;}
	.st3{fill:#4FBDD7;stroke:#FFFFFF;stroke-width:5;stroke-miterlimit:10;}
	.st4{fill:#8C8C8C;}
	.st5{fill:#070707;}
	.st6{fill:none;stroke:#FFFFFF;stroke-width:7;stroke-miterlimit:10;}
	.st7{fill:none;stroke:#FFFFFF;stroke-width:10;stroke-miterlimit:10;}
	.st8{fill:#FFFFFF;stroke:#FFFFFF;stroke-width:3;stroke-miterlimit:10;}
	.st9{fill:none;stroke:#FDFFFF;stroke-width:6;stroke-miterlimit:10;}
	.st10{fill:#FAFEFF;}
	.st11{fill:none;stroke:#FFFFFF;stroke-width:2;stroke-miterlimit:10;}
	.st12{fill:#FFFFFF;stroke:#FFFFFF;stroke-width:2;stroke-miterlimit:10;}
	.st13{fill:#4FBDD7;stroke:#FFFFFF;stroke-width:4;stroke-miterlimit:10;}
	.st14{fill:#FFFFFF;stroke:#FFFFFF;stroke-width:4;stroke-miterlimit:10;}
	.st15{fill:none;stroke:#FFFFFF;stroke-miterlimit:10;}
	.st16{fill:#FFFFFF;stroke:#FFFFFF;stroke-width:13;stroke-miterlimit:10;}
	.st17{fill:#4FBDD7;stroke:#FFFFFF;stroke-width:8;stroke-miterlimit:10;}
	.st18{fill:#FFFFFF;stroke:#FFFFFF;stroke-width:0.75;stroke-miterlimit:10;}
	.st19{fill:#FFFFFF;stroke:#FFFFFF;stroke-width:0.5;stroke-miterlimit:10;}
	.st20{fill:#FFFFFF;stroke:#FFFFFF;stroke-width:8;stroke-miterlimit:10;}
	.st21{fill:#FFFFFF;stroke:#FFFFFF;stroke-miterlimit:10;}
	.st22{fill:#FFFFFF;stroke:#FFFFFF;stroke-width:11;stroke-miterlimit:10;}
	.st23{fill:#FFFFFF;stroke:#FFFFFF;stroke-width:6;stroke-miterlimit:10;}
	.st24{fill:#8C8C8C;stroke:#8C8C8C;stroke-width:4;stroke-miterlimit:10;}
	.st25{fill:#FFFFFF;stroke:#FFFFFF;stroke-width:1.05;stroke-miterlimit:10;}
	.st26{fill:none;}
	.st27{font-family:'HelveticaNeue-CondensedBold';}
	.st28{font-size:54px;}
	.st29{fill:none;stroke:#4FBDD7;stroke-width:5;stroke-miterlimit:10;}
	.st30{fill:none;stroke:#FFFFFF;stroke-width:4;stroke-miterlimit:10;}
	.st31{fill:#8C8C8C;stroke:#FFFFFF;stroke-width:4;stroke-miterlimit:10;}
	.st32{fill:#FFFFFF;stroke:#FFFFFF;stroke-width:10;stroke-miterlimit:10;}
	.st33{fill:none;stroke:#4FBDD7;stroke-width:2;stroke-miterlimit:10;}
	.st34{fill-rule:evenodd;clip-rule:evenodd;fill:#FFFFFF;}
	.st35{fill:#FFFFFF;stroke:#FFFFFF;stroke-width:7;stroke-miterlimit:10;}
	.st36{fill:#FFFFFF;stroke:#4FBDD7;stroke-width:7;stroke-miterlimit:10;}
	.st37{fill:#FCFCFC;}
	.st38{fill:#FFFFFF;stroke:#FFFFFF;stroke-width:5;stroke-miterlimit:10;}
	.st39{fill:none;stroke:#FFFFFF;stroke-width:3;stroke-miterlimit:10;}
	.st40{fill:none;stroke:#FFFFFF;stroke-width:8;stroke-miterlimit:10;}
	.st41{fill:none;stroke:#FFFFFF;stroke-width:6;stroke-miterlimit:10;}
	.st42{fill:#FFFFFF;stroke:#4FBDD7;stroke-width:3;stroke-miterlimit:10;}
	.st43{fill:none;stroke:#FFFFFF;stroke-width:0.75;stroke-miterlimit:10;}
	.st44{fill:#4FBDD7;stroke:#FFFFFF;stroke-width:9;stroke-miterlimit:10;}
	.st45{fill:none;stroke:#FFFFFF;stroke-width:9;stroke-miterlimit:10;}
	.st46{fill:none;stroke:#4FBDD7;stroke-width:3;stroke-miterlimit:10;}
</style>
<rect x="1" y="1" class="st0" width="500" height="500"/>
<path class="st2" d="M329.7,44.7c-4.4-1.9-8.9-3.8-13.3-5.7l0,0c-5.2,8.8-10.5,17.5-15.7,26.3l-11.2,17.4c-2.2,0.4-4.2,1.9-5.1,4.1
	l-3.9,9.7c-0.9,2.2-0.5,4.6,0.8,6.4l-13.9,34.7c-0.7,1.6,0.1,3.6,1.7,4.4c1.8,0.9,4,0,4.7-1.8l0.8-2.1c0.6,3.5,3,6.6,6.5,8
	c2.7,1.1,5.6,1,8.1-0.1c0.7-0.3,1.4-0.7,2.1-1.2l-6.7,16.6c-0.1-0.8-0.4-1.6-0.7-2.3c-1.1-2.6-3.2-4.6-5.8-5.7
	c-3.5-1.4-7.3-0.8-10.2,1.3l0.7-1.8c0.7-1.8-0.1-3.8-1.9-4.5c-1.8-0.7-3.8,0.1-4.5,1.9l-49,122.2c-0.6,1.3-11.2,22.7-35.9,36.5
	c-2.7,1.5-4.3,4.4-4.1,7.5c0.2,3.1,2.1,5.8,5,6.9l13.2,5.3c1.8,0.7,4-0.3,4.6-2.2c0.5-1.7-0.4-3.6-2-4.2l-13.2-5.3
	c-0.9-0.4-1-1.6-0.2-2.1c13.4-7.5,22.8-16.9,29.1-24.7l23.1,9.2c-0.9,9.9-0.5,23.3,3.9,37.9c0.3,0.9-0.7,1.8-1.6,1.4l-28.4-11.4
	c-1.8-0.7-3.8,0.1-4.5,1.9c-0.7,1.8,0.1,3.8,1.9,4.5l28.4,11.4c2.3,0.9,4.9,0.7,7.1-0.5c2-1.2,3.5-3.3,3.9-5.6
	c0.2-1.2,0.1-2.5-0.3-3.6c-8.3-27.1-1.2-49.8-0.7-51.2l27.2-67.8c0.7-1.8-0.1-3.8-1.9-4.5c-1.8-0.7-3.8,0.1-4.5,1.9l-0.6,1.4
	c-0.1-0.8-0.4-1.6-0.7-2.3c-1.1-2.6-3.2-4.6-5.8-5.7c-3.5-1.4-7.3-0.8-10.2,1.3l6.7-16.6c0.6,3.5,3,6.6,6.5,8c2.7,1.1,5.6,1,8.1-0.1
	c0.7-0.3,1.4-0.7,2.1-1.2l-1,2.4c-0.7,1.6,0.1,3.6,1.7,4.4c1.8,0.9,4,0,4.7-1.8l35.7-89.1c0.5-0.1,0.9-0.2,1.4-0.4
	c1.6-0.7,2.9-2,3.6-3.7l3.9-9.7c0.9-2.2,0.5-4.7-0.8-6.5l3.9-20.3C325,64.3,327.4,54.5,329.7,44.7z M283.5,139.8
	c-1.4-0.6-2.3-1.9-2.3-3.5c0-1.7,1.1-3.1,2.7-3.6c1.6-0.4,3.3,0.2,4.1,1.6c0.8,1.3,0.8,3-0.1,4.2C287,139.9,285.1,140.4,283.5,139.8
	L283.5,139.8z M288.9,126.5c-3.5-1.4-7.3-0.8-10.2,1.3l8.5-21.3l16.7,6.7l-8.5,21.3C294.7,131,292.4,127.9,288.9,126.5z
	 M272.6,159.9c1.5-0.6,3.3-0.2,4.3,1c1,1.2,1.2,2.9,0.4,4.3c-1.6,2.8-5.9,2.3-6.8-0.8C270,162.6,270.9,160.6,272.6,159.9
	L272.6,159.9z M245.1,245.8c-0.6,1.4-1.9,2.3-3.5,2.3c-1.5,0-2.9-0.9-3.5-2.3c-0.6-1.5-0.2-3.2,1-4.2c1.3-1.1,3.2-1.2,4.6-0.2
	C245.2,242.4,245.7,244.2,245.1,245.8L245.1,245.8z M237.7,254.2c2.7,1.1,5.6,1,8.1-0.1c0.7-0.3,1.4-0.7,2.1-1.2l-8.1,20.3
	l-16.7-6.7l8.1-20.3C231.8,249.7,234.2,252.8,237.7,254.2z M236.2,282.1c-0.1,0.4-1.4,4.3-2.5,10.5l-19.7-7.9
	c3.6-5.3,5.3-8.9,5.5-9.3c0.4-0.8,0.7-1.7,1-2.5l16.7,6.7C236.8,280.4,236.4,281.3,236.2,282.1z M251,213.9c2.5-1.1,5.5,1.1,5.2,3.9
	c-0.2,1.6-1.5,3-3.1,3.2c-1.6,0.3-3.3-0.6-4-2.1C248.2,217.1,249.1,214.8,251,213.9L251,213.9z M248.5,227.2c2.7,1.1,5.6,1,8.1-0.1
	c0.7-0.3,1.4-0.7,2.1-1.2l-6.7,16.6c-0.6-3.5-3-6.6-6.5-8s-7.3-0.8-10.2,1.3l6.7-16.6c0.1,0.8,0.4,1.6,0.7,2.3
	C243.8,224.1,245.9,226.1,248.5,227.2z M261.9,193.8c-1.4-0.6-2.3-1.9-2.3-3.5c0-1.7,1.1-3.1,2.7-3.6c1.6-0.4,3.3,0.2,4.1,1.6
	c0.8,1.3,0.8,3-0.1,4.2C265.3,193.9,263.5,194.4,261.9,193.8z M267.2,180.5c-3.5-1.4-7.3-0.8-10.2,1.3l6.7-16.6
	c0.1,0.8,0.4,1.6,0.7,2.3c1.1,2.6,3.2,4.6,5.8,5.7c2.7,1.1,5.6,1,8.1-0.1c0.7-0.3,1.4-0.7,2.1-1.2l-6.7,16.6
	C273.1,185,270.7,181.9,267.2,180.5z M309.3,108l-22.4-9l3.8-9.5l22.4,9L309.3,108z M312.4,90.8l-15.9-6.4l8.4-13l10.4,4.2
	L312.4,90.8z"/>
<path class="st21" d="M274.4,129.3L274.4,129.3c1.5,0.6,2.3,2.4,1.7,3.9l-11.7,29.1c-0.6,1.5-2.4,2.3-3.9,1.7v0
	c-1.5-0.6-2.3-2.4-1.7-3.9l11.7-29.1C271.1,129.4,272.9,128.7,274.4,129.3z"/>
<path class="st25" d="M277.7,188L277.7,188c1.5,0.6,2.3,2.4,1.7,3.9L267.7,221c-0.6,1.5-2.4,2.3-3.9,1.7l0,0
	c-1.5-0.6-2.3-2.4-1.7-3.9l11.7-29.1C274.4,188.1,276.2,187.4,277.7,188z"/>
<path class="st2" d="M212.3,337.3l-19.9-8c-1.8-0.7-2.6-2.7-1.9-4.5v0c0.7-1.8,2.7-2.6,4.5-1.9l19.9,8c1.8,0.7,2.6,2.7,1.9,4.5h0
	C216.1,337.2,214.1,338,212.3,337.3z"/>
<g>
	<rect x="-1" y="362" class="st26" width="500" height="144"/>
	<text transform="matrix(1 0 0 1 145.0791 400.5557)" class="st2 st27 st28">Clarinette</text>
</g>
</svg>
