<?xml version="1.0" encoding="utf-8"?>
<!-- Generator: Adobe Illustrator 22.1.0, SVG Export Plug-In . SVG Version: 6.00 Build 0)  -->
<svg version="1.1" id="Calque_1" xmlns="http://www.w3.org/2000/svg" x="0px" y="0px"
     viewBox="0 0 500 500" style="enable-background:new 0 0 500 500;" xml:space="preserve">
<style type="text/css">
	.st0{fill:#4FBDD7;}
	.st1{fill:#EAEAEA;}
	.st2{fill:#FFFFFF;}
	.st3{fill:#4FBDD7;stroke:#FFFFFF;stroke-width:5;stroke-miterlimit:10;}
	.st4{fill:#8C8C8C;}
	.st5{fill:#070707;}
	.st6{fill:none;stroke:#FFFFFF;stroke-width:7;stroke-miterlimit:10;}
	.st7{fill:none;stroke:#FFFFFF;stroke-width:10;stroke-miterlimit:10;}
	.st8{fill:#FFFFFF;stroke:#FFFFFF;stroke-width:3;stroke-miterlimit:10;}
	.st9{fill:none;stroke:#FDFFFF;stroke-width:6;stroke-miterlimit:10;}
	.st10{fill:#FAFEFF;}
	.st11{fill:none;stroke:#FFFFFF;stroke-width:2;stroke-miterlimit:10;}
	.st12{fill:#FFFFFF;stroke:#FFFFFF;stroke-width:2;stroke-miterlimit:10;}
	.st13{fill:#4FBDD7;stroke:#FFFFFF;stroke-width:4;stroke-miterlimit:10;}
	.st14{fill:#FFFFFF;stroke:#FFFFFF;stroke-width:4;stroke-miterlimit:10;}
	.st15{fill:none;stroke:#FFFFFF;stroke-miterlimit:10;}
	.st16{fill:#FFFFFF;stroke:#FFFFFF;stroke-width:13;stroke-miterlimit:10;}
	.st17{fill:#4FBDD7;stroke:#FFFFFF;stroke-width:8;stroke-miterlimit:10;}
	.st18{fill:#FFFFFF;stroke:#FFFFFF;stroke-width:0.75;stroke-miterlimit:10;}
	.st19{fill:#FFFFFF;stroke:#FFFFFF;stroke-width:0.5;stroke-miterlimit:10;}
	.st20{fill:#FFFFFF;stroke:#FFFFFF;stroke-width:8;stroke-miterlimit:10;}
	.st21{fill:#FFFFFF;stroke:#FFFFFF;stroke-miterlimit:10;}
	.st22{fill:#FFFFFF;stroke:#FFFFFF;stroke-width:11;stroke-miterlimit:10;}
	.st23{fill:#FFFFFF;stroke:#FFFFFF;stroke-width:6;stroke-miterlimit:10;}
	.st24{fill:#8C8C8C;stroke:#8C8C8C;stroke-width:4;stroke-miterlimit:10;}
	.st25{fill:none;}
	.st26{font-family:'HelveticaNeue-CondensedBold';}
	.st27{font-size:54px;}
	.st28{fill:#FFFFFF;stroke:#FFFFFF;stroke-width:1.05;stroke-miterlimit:10;}
	.st29{fill:none;stroke:#4FBDD7;stroke-width:5;stroke-miterlimit:10;}
	.st30{fill:none;stroke:#FFFFFF;stroke-width:4;stroke-miterlimit:10;}
	.st31{fill:#8C8C8C;stroke:#FFFFFF;stroke-width:4;stroke-miterlimit:10;}
	.st32{fill:#FFFFFF;stroke:#FFFFFF;stroke-width:10;stroke-miterlimit:10;}
	.st33{fill:none;stroke:#4FBDD7;stroke-width:2;stroke-miterlimit:10;}
	.st34{fill-rule:evenodd;clip-rule:evenodd;fill:#FFFFFF;}
	.st35{fill:#FFFFFF;stroke:#FFFFFF;stroke-width:7;stroke-miterlimit:10;}
	.st36{fill:#FFFFFF;stroke:#4FBDD7;stroke-width:7;stroke-miterlimit:10;}
	.st37{fill:#FCFCFC;}
	.st38{fill:#FFFFFF;stroke:#FFFFFF;stroke-width:5;stroke-miterlimit:10;}
	.st39{fill:none;stroke:#FFFFFF;stroke-width:3;stroke-miterlimit:10;}
	.st40{fill:none;stroke:#FFFFFF;stroke-width:8;stroke-miterlimit:10;}
	.st41{fill:none;stroke:#FFFFFF;stroke-width:6;stroke-miterlimit:10;}
	.st42{fill:#FFFFFF;stroke:#4FBDD7;stroke-width:3;stroke-miterlimit:10;}
	.st43{fill:none;stroke:#FFFFFF;stroke-width:0.75;stroke-miterlimit:10;}
	.st44{fill:#4FBDD7;stroke:#FFFFFF;stroke-width:9;stroke-miterlimit:10;}
	.st45{fill:none;stroke:#FFFFFF;stroke-width:9;stroke-miterlimit:10;}
	.st46{fill:none;stroke:#4FBDD7;stroke-width:3;stroke-miterlimit:10;}
</style>
<rect x="1" class="st0" width="500" height="500"/>
<g>
	<path class="st2" d="M364.2,301.2h-15v-7.5c0-2.1-1.7-3.8-3.8-3.8h-11.2c-2.1,0-3.8,1.7-3.8,3.8v3.8h-9.7
		c13-15.1,20.9-34.8,20.9-56.2c0-47.6-38.7-86.2-86.2-86.2c-9.3,0-18.2,1.5-26.6,4.2c3.9-10.5,11.1-25.7,21.2-26.7H263
		c2.1,0,3.8-1.7,3.8-3.8c0-2.1-1.7-3.8-3.8-3.8h-13.2h-2.7c-4.1-9.9-24.2-15-44.2-15s-40.1,5.1-44.2,15h-1h-11.1
		c-2.1,0-3.8,1.7-3.8,3.8c0,2.1,1.7,3.8,3.8,3.8h10.8c19.9,2,25.9,40.8,27.6,58.9c-10,14.1-15.9,31.3-15.9,49.8
		c0,47.6,38.7,86.2,86.2,86.2c1.1,0,2.2,0,3.3-0.1c0.1,0,0.3,0.1,0.4,0.1h71.2v3.8c0,2.1,1.7,3.8,3.8,3.8h11.2
		c2.1,0,3.8-1.7,3.8-3.8v-7.5h15c2.1,0,3.8-1.7,3.8-3.8v-15C368,302.9,366.3,301.2,364.2,301.2z M203,117.5
		c16.8,0,29.3,3.7,34.7,7.5h-69.3C173.7,121.2,186.2,117.5,203,117.5z M191.8,183.1c-2.2-17.5-7.3-39.3-18.5-50.6h62
		c-7.1,7.5-12,19.3-15.7,30.3c-0.2,0.1-0.4,0.2-0.6,0.3c-2.2,1-4.3,2.1-6.3,3.3c-0.5,0.3-0.9,0.5-1.4,0.8c-2,1.2-3.9,2.5-5.8,3.8
		c-0.5,0.3-0.9,0.6-1.4,1c-1.9,1.4-3.6,2.8-5.4,4.3c-0.4,0.4-0.9,0.7-1.3,1.1c-1.7,1.6-3.4,3.2-5,4.9
		C192.3,182.6,192.1,182.8,191.8,183.1z M176.8,241.2c0-21.7,8.8-41.3,23-55.5c0.1-0.1,0.2-0.2,0.3-0.3c1.6-1.6,3.4-3.2,5.1-4.7
		c0.1-0.1,0.2-0.2,0.3-0.3c1.9-1.5,3.8-3,5.8-4.4c0.1-0.1,0.2-0.2,0.4-0.2c1.8-1.2,3.7-2.4,5.7-3.5c0.3-0.2,0.6-0.3,0.9-0.5
		c11.1-6,23.7-9.3,37.1-9.3c43.4,0,78.8,35.3,78.8,78.8c0,26.9-13.6,50.7-34.2,64.9c-0.3,0.2-0.7,0.5-1,0.7
		c-1.9,1.3-3.9,2.5-5.9,3.6c-0.1,0.1-0.2,0.1-0.3,0.2c-2,1.1-4,2-6,2.9c-0.4,0.2-0.7,0.3-1.1,0.5c-2.2,0.9-4.3,1.7-6.6,2.4
		c-0.2,0.1-0.4,0.1-0.7,0.2c-7.3,2.2-15,3.4-22.9,3.4C212.1,320,176.8,284.7,176.8,241.2z M290.7,320c0.3-0.1,0.5-0.3,0.8-0.4
		c1.7-0.8,3.4-1.6,5.1-2.5c0.3-0.2,0.6-0.4,0.9-0.5c1.4-0.8,2.9-1.7,4.3-2.6c0.5-0.3,1-0.6,1.5-0.9c1.5-1,3-2,4.4-3.1
		c0.5-0.4,1-0.8,1.5-1.2c1.3-1,2.5-2,3.7-3.1c0.2-0.2,0.5-0.4,0.7-0.6h16.9v15L290.7,320L290.7,320z M341.8,327.5H338v-3.8v-22.5
		v-3.8h3.8v7.5v15V327.5z M360.5,316.2h-11.2v-7.5h11.2V316.2z"/>
	<path class="st2" d="M326.8,241.2c0-19-7.5-36.2-19.7-49c0-0.1-0.1-0.1-0.1-0.2c-0.1-0.1-0.2-0.2-0.4-0.3c-1.2-1.2-2.5-2.4-3.7-3.5
		c-0.5-0.5-1-1-1.5-1.4c-1.1-0.9-2.2-1.8-3.4-2.6c-0.8-0.6-1.6-1.2-2.4-1.8c-0.7-0.5-1.5-0.9-2.2-1.4c-1.3-0.8-2.6-1.6-3.9-2.4
		c0,0,0,0,0,0c-10.3-5.6-21.8-8.6-33.9-8.6s-23.6,3-33.9,8.6c0,0,0,0,0,0c-1.3,0.7-2.6,1.5-3.9,2.4c-0.7,0.5-1.5,0.9-2.2,1.4
		c-0.8,0.6-1.6,1.2-2.4,1.8c-1.1,0.9-2.3,1.7-3.4,2.6c-0.5,0.4-1,0.9-1.5,1.4c-1.3,1.1-2.5,2.3-3.7,3.5c-0.1,0.1-0.2,0.2-0.4,0.3
		c-0.1,0.1-0.1,0.1-0.1,0.2c-12.2,12.8-19.7,30-19.7,49c0,39.3,32,71.2,71.2,71.2S326.8,280.5,326.8,241.2z M249.1,304.7
		c-0.7-0.1-1.4-0.2-2.1-0.3c-1.4-0.2-2.8-0.4-4.1-0.6c-0.8-0.2-1.6-0.4-2.4-0.6c-1.2-0.3-2.4-0.6-3.6-0.9c-0.9-0.3-1.7-0.6-2.5-0.9
		c-1.1-0.4-2.2-0.8-3.3-1.2c-0.8-0.3-1.7-0.8-2.5-1.1c-1-0.5-2-0.9-3-1.5c-0.8-0.4-1.6-0.9-2.4-1.4c-0.9-0.6-1.9-1.1-2.8-1.7
		c-0.8-0.5-1.5-1.1-2.3-1.6c-0.9-0.6-1.7-1.3-2.6-1.9c-0.7-0.6-1.4-1.2-2.1-1.8c-0.8-0.7-1.6-1.4-2.4-2.1c-0.7-0.7-1.3-1.4-2-2.1
		c-0.7-0.8-1.4-1.5-2.1-2.3c-0.6-0.7-1.2-1.5-1.8-2.2c-0.6-0.8-1.3-1.7-1.9-2.5c-0.6-0.8-1.1-1.6-1.6-2.4c-0.6-0.9-1.1-1.8-1.6-2.7
		c-0.5-0.8-0.9-1.7-1.4-2.6c-0.5-0.9-0.9-1.9-1.4-2.8c-0.4-0.9-0.8-1.8-1.1-2.7c-0.4-1-0.8-2-1.1-3c-0.3-0.9-0.6-1.9-0.9-2.8
		c-0.3-1-0.6-2.1-0.8-3.1c-0.2-1-0.4-1.9-0.6-2.9c-0.2-1.1-0.4-2.2-0.5-3.2c-0.1-1-0.2-2-0.3-3c0-0.5,0-0.9-0.1-1.4h22.3v22.5v7.5
		c0,1,0.4,2,1.1,2.7l3.8,3.8c0.7,0.7,1.7,1.1,2.7,1.1h7.5c1,0,1.9-0.4,2.7-1.1l3.8-3.8c0.7-0.7,1.1-1.7,1.1-2.7v-7.5V245h7.5v22.5
		v7.5c0,1,0.4,2,1.1,2.7l3.8,3.8c0.7,0.7,1.7,1.1,2.7,1.1h7.5c1,0,2-0.4,2.7-1.1l3.8-3.8c0.7-0.7,1.1-1.7,1.1-2.7v-7.5V245h7.5v22.5
		v7.5c0,1,0.4,2,1.1,2.7l3.8,3.8c0.7,0.7,1.7,1.1,2.7,1.1h7.5c1,0,2-0.4,2.7-1.1l3.8-3.8c0.7-0.7,1.1-1.7,1.1-2.7v-7.5V245h22.3
		c0,0.5,0,0.9-0.1,1.4c-0.1,1-0.2,2-0.3,3c-0.1,1.1-0.3,2.2-0.5,3.2c-0.2,1-0.4,2-0.6,2.9c-0.2,1-0.5,2.1-0.8,3.1
		c-0.3,1-0.6,1.9-0.9,2.8c-0.3,1-0.7,2-1.1,3c-0.4,0.9-0.7,1.8-1.1,2.7c-0.4,1-0.9,1.9-1.4,2.8c-0.4,0.9-0.9,1.7-1.4,2.6
		c-0.5,0.9-1.1,1.8-1.6,2.7c-0.5,0.8-1,1.6-1.6,2.4c-0.6,0.9-1.2,1.7-1.9,2.5c-0.6,0.8-1.2,1.5-1.8,2.2c-0.7,0.8-1.4,1.6-2.1,2.3
		c-0.7,0.7-1.3,1.4-2,2.1c-0.8,0.7-1.6,1.4-2.4,2.1c-0.7,0.6-1.4,1.3-2.1,1.8c-0.8,0.7-1.7,1.3-2.6,1.9c-0.8,0.6-1.5,1.1-2.3,1.6
		c-0.9,0.6-1.9,1.1-2.8,1.7c-0.8,0.5-1.6,1-2.4,1.4c-1,0.5-2,1-3,1.5c-0.8,0.4-1.6,0.8-2.5,1.1c-1.1,0.4-2.2,0.8-3.3,1.2
		c-0.8,0.3-1.7,0.6-2.5,0.9c-1.2,0.4-2.4,0.6-3.6,0.9c-0.8,0.2-1.6,0.4-2.4,0.6c-1.4,0.3-2.8,0.4-4.1,0.6c-0.7,0.1-1.4,0.2-2.1,0.3
		c-2.1,0.2-4.2,0.3-6.4,0.3S251.2,304.9,249.1,304.7z M216.2,191.1c1.3-1,2.5-2,3.8-2.9c1.3-0.9,2.6-1.6,3.9-2.4
		c0.4-0.2,0.8-0.5,1.2-0.7c1.7-0.9,3.4-1.7,5.2-2.5c0.1,0,0.2-0.1,0.3-0.1c1.8-0.8,3.7-1.5,5.6-2.1c0.1,0,0.1-0.1,0.2-0.1
		c1.8-0.6,3.7-1,5.5-1.4c0.2,0,0.4-0.1,0.6-0.1c1.7-0.4,3.5-0.6,5.3-0.8c0.3,0,0.7-0.1,1-0.2c2.1-0.2,4.3-0.3,6.4-0.3
		s4.3,0.1,6.5,0.3c0.3,0,0.7,0.1,1,0.2c1.8,0.2,3.6,0.5,5.3,0.8c0.2,0,0.4,0.1,0.6,0.2c1.9,0.4,3.7,0.9,5.5,1.4
		c0.1,0,0.1,0.1,0.2,0.1c1.9,0.6,3.8,1.3,5.6,2.1c0.1,0,0.2,0.1,0.3,0.1c1.8,0.8,3.5,1.6,5.2,2.5c0.4,0.2,0.8,0.5,1.2,0.7
		c1.3,0.8,2.7,1.5,3.9,2.4c1.3,0.9,2.6,1.9,3.8,2.9c0.3,0.3,0.7,0.5,1,0.7c1.6,1.3,3.2,2.7,4.7,4.2c-0.7,6.4-6.2,11.4-12.8,11.4H278
		h-15h-15h-15h-9.6c-6.6,0-12.1-5-12.8-11.4c1.5-1.5,3-2.9,4.7-4.2C215.6,191.6,215.9,191.4,216.2,191.1z M229.2,241.2V260h-7.5
		v-18.8V215h1.6h5.9V241.2z M221.8,269.1l1.6-1.6h4.4l1.6,1.6v4.4l-1.6,1.6h-4.4l-1.6-1.6V269.1z M236.8,215h7.5v22.5h-7.5V215z
		 M259.2,241.2V260h-7.5v-18.8V215h7.5V241.2z M251.8,269.1l1.6-1.6h4.4l1.6,1.6v4.4l-1.6,1.6h-4.4l-1.6-1.6V269.1z M266.8,215h7.5
		v22.5h-7.5V215z M289.2,215v26.2V260h-7.5v-18.8V215h5.9H289.2z M281.8,269.1l1.6-1.6h4.4l1.6,1.6v4.4l-1.6,1.6h-4.4l-1.6-1.6
		V269.1z M296.8,212.8c4.2-2.1,7.6-5.7,9.5-10c7.4,9.8,12,21.7,12.8,34.7h-22.3V212.8z M214.2,212.8v24.7h-22.3
		c0.8-13,5.4-24.9,12.8-34.7C206.7,207.2,210,210.7,214.2,212.8z"/>
</g>
<g>
	<rect y="362" class="st25" width="500" height="144"/>
	<text transform="matrix(1 0 0 1 213.5508 400.5557)" class="st2 st26 st27">Cor</text>
</g>
</svg>
