<?xml version="1.0" encoding="utf-8"?>
<!-- Generator: Adobe Illustrator 22.1.0, SVG Export Plug-In . SVG Version: 6.00 Build 0)  -->
<svg version="1.1" id="Calque_1" xmlns="http://www.w3.org/2000/svg" x="0px" y="0px"
     viewBox="0 0 500 500" style="enable-background:new 0 0 500 500;" xml:space="preserve">
<style type="text/css">
	.st0{fill:#4FBDD7;}
	.st1{fill:#EAEAEA;}
	.st2{fill:#FFFFFF;}
	.st3{fill:#4FBDD7;stroke:#FFFFFF;stroke-width:5;stroke-miterlimit:10;}
	.st4{fill:#8C8C8C;}
	.st5{fill:#070707;}
	.st6{fill:none;stroke:#FFFFFF;stroke-width:7;stroke-miterlimit:10;}
	.st7{fill:none;stroke:#FFFFFF;stroke-width:10;stroke-miterlimit:10;}
	.st8{fill:#FFFFFF;stroke:#FFFFFF;stroke-width:3;stroke-miterlimit:10;}
	.st9{fill:none;stroke:#FDFFFF;stroke-width:6;stroke-miterlimit:10;}
	.st10{fill:#FAFEFF;}
	.st11{fill:none;stroke:#FFFFFF;stroke-width:2;stroke-miterlimit:10;}
	.st12{fill:#FFFFFF;stroke:#FFFFFF;stroke-width:2;stroke-miterlimit:10;}
	.st13{fill:#4FBDD7;stroke:#FFFFFF;stroke-width:4;stroke-miterlimit:10;}
	.st14{fill:#FFFFFF;stroke:#FFFFFF;stroke-width:4;stroke-miterlimit:10;}
	.st15{fill:none;stroke:#FFFFFF;stroke-miterlimit:10;}
	.st16{fill:#FFFFFF;stroke:#FFFFFF;stroke-width:13;stroke-miterlimit:10;}
	.st17{fill:#4FBDD7;stroke:#FFFFFF;stroke-width:8;stroke-miterlimit:10;}
	.st18{fill:#FFFFFF;stroke:#FFFFFF;stroke-width:0.75;stroke-miterlimit:10;}
	.st19{fill:#FFFFFF;stroke:#FFFFFF;stroke-width:0.5;stroke-miterlimit:10;}
	.st20{fill:#FFFFFF;stroke:#FFFFFF;stroke-width:8;stroke-miterlimit:10;}
	.st21{fill:#FFFFFF;stroke:#FFFFFF;stroke-miterlimit:10;}
	.st22{fill:#FFFFFF;stroke:#FFFFFF;stroke-width:11;stroke-miterlimit:10;}
	.st23{fill:#FFFFFF;stroke:#FFFFFF;stroke-width:6;stroke-miterlimit:10;}
	.st24{fill:#8C8C8C;stroke:#8C8C8C;stroke-width:4;stroke-miterlimit:10;}
	.st25{fill:#FFFFFF;stroke:#FFFFFF;stroke-width:1.05;stroke-miterlimit:10;}
	.st26{fill:none;stroke:#4FBDD7;stroke-width:5;stroke-miterlimit:10;}
	.st27{fill:none;stroke:#FFFFFF;stroke-width:4;stroke-miterlimit:10;}
	.st28{fill:#8C8C8C;stroke:#FFFFFF;stroke-width:4;stroke-miterlimit:10;}
	.st29{fill:#FFFFFF;stroke:#FFFFFF;stroke-width:10;stroke-miterlimit:10;}
	.st30{fill:none;stroke:#4FBDD7;stroke-width:2;stroke-miterlimit:10;}
	.st31{fill-rule:evenodd;clip-rule:evenodd;fill:#FFFFFF;}
	.st32{fill:#FFFFFF;stroke:#FFFFFF;stroke-width:7;stroke-miterlimit:10;}
	.st33{fill:#FFFFFF;stroke:#4FBDD7;stroke-width:7;stroke-miterlimit:10;}
	.st34{fill:none;}
	.st35{font-family:'HelveticaNeue-CondensedBold';}
	.st36{font-size:54px;}
	.st37{fill:#FCFCFC;}
	.st38{fill:#FFFFFF;stroke:#FFFFFF;stroke-width:5;stroke-miterlimit:10;}
	.st39{fill:none;stroke:#FFFFFF;stroke-width:3;stroke-miterlimit:10;}
	.st40{fill:none;stroke:#FFFFFF;stroke-width:8;stroke-miterlimit:10;}
	.st41{fill:none;stroke:#FFFFFF;stroke-width:6;stroke-miterlimit:10;}
	.st42{fill:#FFFFFF;stroke:#4FBDD7;stroke-width:3;stroke-miterlimit:10;}
	.st43{fill:none;stroke:#FFFFFF;stroke-width:0.75;stroke-miterlimit:10;}
	.st44{fill:#4FBDD7;stroke:#FFFFFF;stroke-width:9;stroke-miterlimit:10;}
	.st45{fill:none;stroke:#FFFFFF;stroke-width:9;stroke-miterlimit:10;}
	.st46{fill:none;stroke:#4FBDD7;stroke-width:3;stroke-miterlimit:10;}
</style>
<rect y="-1" class="st0" width="500" height="500"/>
<g>
	<rect x="3" y="362" class="st34" width="500" height="144"/>
	<text transform="matrix(1 0 0 1 168.5996 400.5557)"><tspan x="0" y="0" class="st2 st35 st36">Coton &amp; </tspan><tspan x="-56" y="64.8" class="st2 st35 st36">démaquillant</tspan></text>
</g>
<g>
	<path class="st2" d="M348.7,158.5c0-2.1-1.7-3.9-3.9-3.9l-77,0c-2.1,0-3.9,1.7-3.9,3.9l0,104c0,2.1,1.7,3.9,3.9,3.9l77,0
		c2.1,0,3.9-1.7,3.9-3.9L348.7,158.5z M341,258.6l-69.3,0l0-96.3l69.3,0L341,258.6z"/>
	<path class="st2" d="M337.2,104.8l0-34.9c0-2.1-1.7-3.9-3.9-3.9l-53.9,0c-2.1,0-3.9,1.7-3.9,3.9l0,34.9
		c-17.3,1.9-30.8,16.6-30.8,34.4l0,42.1c0,0.1-0.1,0.2-0.1,0.3c0,0.1,0.1,0.2,0.1,0.3l0,111.4c0,10.6,8.6,19.3,19.3,19.3l84.7,0
		c10.6,0,19.3-8.6,19.3-19.3l0-154.1v0C368,121.4,354.5,106.7,337.2,104.8 M283.2,73.7l46.2,0l0,7.7l-15.4,0c-2.1,0-3.9,1.7-3.9,3.9
		c0,2.1-1.7,3.9-3.9,3.9c-2.1,0-3.9-1.7-3.9-3.9v0c0-0.3-0.1-0.6-0.2-1c0-0.2,0-0.4-0.1-0.5c0-0.1-0.1-0.1-0.2-0.2
		c-0.6-1.2-1.9-2.1-3.4-2.1h0l-15.4,0L283.2,73.7z M283.2,89.1l12.3,0c1.6,4.5,5.8,7.7,10.8,7.7s9.2-3.2,10.8-7.7l12.3,0l0,15.4
		l-46.2,0L283.2,89.1z M360.3,293.3c0,6.4-5.2,11.6-11.6,11.6l-84.7,0c-6.4,0-11.6-5.2-11.6-11.6l0-154.1c0-14.9,12.1-27,27-27
		l53.9,0c14.9,0,27,12.1,27,27L360.3,293.3z"/>
	<path class="st2" d="M306.4,242.5c10.6,0,19.3-12.8,19.3-28.6c0-14.4-13.8-34.6-16.6-38.5c-1.5-2.1-3.8-2.1-5.3,0
		c-2.8,3.9-16.6,24.1-16.6,38.5C287.1,229.7,295.7,242.5,306.4,242.5 M306.3,187.6c5.5,8.5,11.6,20.2,11.6,26.3
		c0,9.5-5.2,17.2-11.6,17.2s-11.6-7.7-11.6-17.2C294.8,207.9,300.9,196.1,306.3,187.6"/>
	<path class="st2" d="M183.1,131.5c-27.6,0-50.1,22.5-50.1,50.1l0,11.6c0,4,0.5,7.8,1.4,11.6c-0.9,3.8-1.4,7.6-1.4,11.6l0,11.6
		c0,4,0.5,7.8,1.4,11.6c-0.9,3.8-1.4,7.6-1.4,11.6l0,11.6c0,27.6,22.5,50.1,50.1,50.1s50.1-22.5,50.1-50.1l0-11.6
		c0-3.9-0.5-7.8-1.4-11.6c0.9-3.7,1.4-7.6,1.4-11.5l0-11.6c0-3.9-0.5-7.8-1.4-11.6c0.9-3.7,1.4-7.6,1.4-11.5l0-11.6
		C233.1,154,210.7,131.5,183.1,131.5 M183.1,304.9c-14,0-26.5-6.9-34.2-17.4c9,8.4,21,13.6,34.2,13.6c13.2,0,25.2-5.2,34.2-13.6
		C209.5,298,197.1,304.9,183.1,304.9 M183.1,293.3c-22.1,0-40.3-17-42.2-38.6c8.9,13.9,24.5,23.2,42.2,23.2
		c17.7,0,33.3-9.3,42.2-23.2C223.3,276.3,205.2,293.3,183.1,293.3 M148.9,252.8c9,8.4,21,13.6,34.2,13.6c13.2,0,25.2-5.2,34.2-13.6
		c-7.7,10.5-20.1,17.4-34.2,17.4C169,270.2,156.6,263.3,148.9,252.8 M183.1,258.6c-22.1,0-40.3-17-42.2-38.6
		c8.9,13.9,24.5,23.2,42.2,23.2c17.7,0,33.3-9.3,42.2-23.2C223.3,241.6,205.2,258.6,183.1,258.6 M148.9,218.1
		c9,8.4,21,13.6,34.2,13.6c13.2,0,25.2-5.2,34.2-13.6c-7.7,10.5-20.1,17.4-34.2,17.4C169,235.5,156.6,228.6,148.9,218.1 M183.1,224
		c-23.4,0-42.4-19-42.4-42.4s19-42.4,42.4-42.4c23.4,0,42.4,19,42.4,42.4C225.4,205,206.4,224,183.1,224"/>
</g>
</svg>
