<?xml version="1.0" encoding="utf-8"?>
<!-- Generator: Adobe Illustrator 22.1.0, SVG Export Plug-In . SVG Version: 6.00 Build 0)  -->
<svg version="1.1" id="Calque_1" xmlns="http://www.w3.org/2000/svg" xmlns:xlink="http://www.w3.org/1999/xlink" x="0px" y="0px"
	 viewBox="0 0 500 500" style="enable-background:new 0 0 500 500;" xml:space="preserve">
<style type="text/css">
	.st0{fill:#EAEAEA;}
	.st1{fill:#8C8C8C;}
	.st2{fill:#FFFFFF;}
	.st3{fill:#EAEAEA;stroke:#8C8C8C;stroke-width:7;stroke-miterlimit:10;}
	.st4{fill:#070707;}
	.st5{fill:none;stroke:#8C8C8C;stroke-width:7;stroke-miterlimit:10;}
	.st6{fill:none;stroke:#8C8C8C;stroke-width:10;stroke-miterlimit:10;}
	.st7{fill:#8C8C8C;stroke:#8C8C8C;stroke-width:3;stroke-miterlimit:10;}
	.st8{fill:none;stroke:#8C8C8C;stroke-width:8;stroke-miterlimit:10;}
	.st9{fill:none;stroke:#8E8E8E;stroke-width:6;stroke-miterlimit:10;}
	.st10{fill:#8E8E8E;}
	.st11{fill:#505050;}
	.st12{fill:none;stroke:#8E8E8E;stroke-width:2;stroke-miterlimit:10;}
	.st13{fill:#8C8C8C;stroke:#8C8C8C;stroke-width:2;stroke-miterlimit:10;}
	.st14{fill:#8C8C8C;stroke:#FFFFFF;stroke-width:2;stroke-miterlimit:10;}
	.st15{fill:none;stroke:#FFFFFF;stroke-width:2;stroke-miterlimit:10;}
	.st16{fill:none;stroke:#8C8C8C;stroke-miterlimit:10;}
	.st17{fill:none;stroke:#8C8C8C;stroke-width:13;stroke-miterlimit:10;}
	.st18{fill:#EAEAEA;stroke:#8C8C8C;stroke-width:8;stroke-miterlimit:10;}
	.st19{fill:none;stroke:#8C8C8C;stroke-width:4;stroke-miterlimit:10;}
	.st20{fill:#8C8C8C;stroke:#8C8C8C;stroke-width:0.75;stroke-miterlimit:10;}
	.st21{fill:none;stroke:#8C8C8C;stroke-width:9;stroke-miterlimit:10;}
	.st22{fill:#8C8C8C;stroke:#8C8C8C;stroke-width:0.5;stroke-miterlimit:10;}
	.st23{fill:#6B6B6B;}
	.st24{fill:none;}
	.st25{stroke:#8C8C8C;stroke-width:8;stroke-miterlimit:10;}
	.st26{fill:#8C8C8C;stroke:#8C8C8C;stroke-miterlimit:10;}
	.st27{fill:none;stroke:#8C8C8C;stroke-width:11;stroke-miterlimit:10;}
	.st28{fill:none;stroke:#8C8C8C;stroke-width:6;stroke-miterlimit:10;}
	.st29{stroke:#8C8C8C;stroke-width:6;stroke-miterlimit:10;}
	.st30{fill:#8C8C8C;stroke:#8C8C8C;stroke-width:4;stroke-miterlimit:10;}
	.st31{font-family:'HelveticaNeue-CondensedBold';}
	.st32{font-size:54px;}
	.st33{fill:#8C8C8C;stroke:#8C8C8C;stroke-width:1.05;stroke-miterlimit:10;}
	.st34{fill:#D6D6D6;}
	.st35{fill:none;stroke:#EAEAEA;stroke-width:5;stroke-miterlimit:10;}
	.st36{fill:#8C8C8C;stroke:#8C8C8C;stroke-width:10;stroke-miterlimit:10;}
	.st37{fill:none;stroke:#CECECE;stroke-width:2;stroke-miterlimit:10;}
	.st38{fill:none;stroke:#FFFFFF;stroke-width:4;stroke-miterlimit:10;}
	.st39{fill-rule:evenodd;clip-rule:evenodd;fill:#8C8C8C;}
	.st40{fill:#8C8C8C;stroke:#8C8C8C;stroke-width:8;stroke-miterlimit:10;}
	.st41{fill:#8C8C8C;stroke:#8C8C8C;stroke-width:7;stroke-miterlimit:10;}
	.st42{fill:#DBDBDB;stroke:#8C8C8C;stroke-width:7;stroke-miterlimit:10;}
	.st43{fill:none;stroke:#8C8C8C;stroke-width:5;stroke-miterlimit:10;}
	.st44{fill:none;stroke:#8C8C8C;stroke-width:3;stroke-miterlimit:10;}
	.st45{clip-path:url(#SVGID_2_);fill:#8C8C8C;}
	.st46{clip-path:url(#SVGID_2_);fill:none;stroke:#8C8C8C;stroke-width:8;stroke-miterlimit:10;}
	.st47{clip-path:url(#SVGID_2_);fill:#FFFFFF;}
	.st48{clip-path:url(#SVGID_2_);fill:#EAEAEA;}
	.st49{clip-path:url(#SVGID_2_);fill:none;stroke:#8C8C8C;stroke-miterlimit:10;}
	.st50{fill:none;stroke:#FFFFFF;stroke-width:0.75;stroke-miterlimit:10;}
	.st51{fill:none;stroke:#8C8C8C;stroke-width:14;stroke-miterlimit:10;}
	.st52{fill:none;stroke:#EAEAEA;stroke-width:2;stroke-miterlimit:10;}
	.st53{fill:none;stroke:#8C8C8C;stroke-width:2;stroke-miterlimit:10;}
</style>
<rect x="-1" class="st0" width="500" height="500"/>
<g>
	<path class="st1" d="M281.1,165.9v-44c0-7.6-6.2-13.9-13.9-13.9H253c-1.8,0-3.2,1.5-3.2,3.2c4.9,2.5,7.4,7.9,6.3,12.8
		c-1.4,6.3-8.4,9.8-14.2,8.3c-5.6-1.5-7.7-7.3-7.9-7.9v-13.1c0-1.8-1.5-3.2-3.2-3.2h-14.3c-7.6,0-13.8,6.2-13.8,13.9v44
		c-44.2,33.3-50.3,81.3-50.3,128.3c0,8.2,6.7,14.8,14.8,14.8s14.8-6.7,14.8-14.8c0-31.2,2.6-63.3,21.5-87.8
		c18.2-0.9,33.4-16.5,35-35.5h6.8c1.6,19,16.8,34.7,35,35.5c18.9,24.5,21.5,56.7,21.5,87.8c0,8.2,6.7,14.8,14.8,14.8
		c8.2,0,14.8-6.7,14.8-14.8C331.4,247.2,325.3,199.2,281.1,165.9z M263,124c0.4-4.3-2.5-8.3-6.8-9.5h11c4.1,0,7.4,3.3,7.4,7.4v10.4
		h-20.8C258.6,132.3,262.6,128.6,263,124z M209.1,121.9c0-4.1,3.3-7.4,7.4-7.4h11v9.9c0,7.9,6.4,14.4,14.4,14.4h32.8v25.5h-26.3h-13
		h-26.3L209.1,121.9L209.1,121.9z M201.8,199.9c-1,0-1.9,0.4-2.5,1.2c-9.2,11.5-15.5,25.1-19.2,41.7c-3.1,13.9-4.6,30.2-4.6,51.4
		c0,4.6-3.8,8.4-8.4,8.4c-4.6,0-8.4-3.8-8.4-8.4c0-45.4,5.9-91.8,48.1-123.4H232C230.4,186.8,217.2,199.9,201.8,199.9z M316.6,302.5
		c-4.6,0-8.4-3.8-8.4-8.4c0-21.1-1.5-37.5-4.6-51.4c-3.8-16.6-10-30.2-19.2-41.7c-0.6-0.8-1.5-1.2-2.5-1.2
		c-15.4,0-28.5-13-30.1-29.1h25.1c42.3,31.6,48.1,78,48.1,123.4C324.9,298.8,321.2,302.5,316.6,302.5z"/>
	<path class="st1" d="M250.6,190.8c-2.3,1.9-5.4,2.9-8.8,2.9c-3.3,0-6.5-1-8.8-2.9c-1.4-1.1-3.4-0.9-4.6,0.5
		c-1.1,1.4-0.9,3.4,0.5,4.6c3.5,2.8,8,4.4,12.9,4.4c4.9,0,9.4-1.6,12.9-4.4c1.4-1.1,1.6-3.2,0.5-4.6
		C254.1,189.8,252,189.6,250.6,190.8z"/>
	<path class="st1" d="M241.8,159.8c4.6,0,8.3-3.7,8.3-8.3s-3.7-8.3-8.3-8.3s-8.3,3.7-8.3,8.3S237.3,159.8,241.8,159.8z M241.8,149.7
		c1,0,1.8,0.8,1.8,1.8s-0.8,1.8-1.8,1.8s-1.8-0.8-1.8-1.8S240.8,149.7,241.8,149.7z"/>
</g>
<g>
	<rect x="-1" y="371" class="st24" width="500" height="132"/>
	<text transform="matrix(1 0 0 1 106.1182 409.5557)" class="st23 st31 st32">Coupe griffes</text>
</g>
</svg>
