<?xml version="1.0" encoding="utf-8"?>
<!-- Generator: Adobe Illustrator 22.1.0, SVG Export Plug-In . SVG Version: 6.00 Build 0)  -->
<svg version="1.1" id="Calque_1" xmlns="http://www.w3.org/2000/svg" x="0px" y="0px"
     viewBox="0 0 500 500" style="enable-background:new 0 0 500 500;" xml:space="preserve">
<style type="text/css">
	.st0{fill:#4FBDD7;}
	.st1{fill:#EAEAEA;}
	.st2{fill:#FFFFFF;}
	.st3{fill:#4FBDD7;stroke:#FFFFFF;stroke-width:5;stroke-miterlimit:10;}
	.st4{fill:#8C8C8C;}
	.st5{fill:#070707;}
	.st6{fill:none;stroke:#FFFFFF;stroke-width:7;stroke-miterlimit:10;}
	.st7{fill:none;stroke:#FFFFFF;stroke-width:10;stroke-miterlimit:10;}
	.st8{fill:#FFFFFF;stroke:#FFFFFF;stroke-width:3;stroke-miterlimit:10;}
	.st9{fill:none;stroke:#FDFFFF;stroke-width:6;stroke-miterlimit:10;}
	.st10{fill:#FAFEFF;}
	.st11{fill:none;stroke:#FFFFFF;stroke-width:2;stroke-miterlimit:10;}
	.st12{fill:#FFFFFF;stroke:#FFFFFF;stroke-width:2;stroke-miterlimit:10;}
	.st13{fill:#4FBDD7;stroke:#FFFFFF;stroke-width:4;stroke-miterlimit:10;}
	.st14{fill:#FFFFFF;stroke:#FFFFFF;stroke-width:4;stroke-miterlimit:10;}
	.st15{fill:none;stroke:#FFFFFF;stroke-miterlimit:10;}
	.st16{fill:#FFFFFF;stroke:#FFFFFF;stroke-width:13;stroke-miterlimit:10;}
	.st17{fill:#4FBDD7;stroke:#FFFFFF;stroke-width:8;stroke-miterlimit:10;}
	.st18{fill:#FFFFFF;stroke:#FFFFFF;stroke-width:0.75;stroke-miterlimit:10;}
	.st19{fill:#FFFFFF;stroke:#FFFFFF;stroke-width:0.5;stroke-miterlimit:10;}
	.st20{fill:none;}
	.st21{font-family:'HelveticaNeue-CondensedBold';}
	.st22{font-size:54px;}
	.st23{fill:#FFFFFF;stroke:#FFFFFF;stroke-width:8;stroke-miterlimit:10;}
	.st24{fill:#FFFFFF;stroke:#FFFFFF;stroke-miterlimit:10;}
	.st25{fill:#FFFFFF;stroke:#FFFFFF;stroke-width:11;stroke-miterlimit:10;}
	.st26{fill:#FFFFFF;stroke:#FFFFFF;stroke-width:6;stroke-miterlimit:10;}
	.st27{fill:#8C8C8C;stroke:#8C8C8C;stroke-width:4;stroke-miterlimit:10;}
	.st28{fill:#FFFFFF;stroke:#FFFFFF;stroke-width:1.05;stroke-miterlimit:10;}
	.st29{fill:none;stroke:#4FBDD7;stroke-width:5;stroke-miterlimit:10;}
	.st30{fill:none;stroke:#FFFFFF;stroke-width:4;stroke-miterlimit:10;}
	.st31{fill:#8C8C8C;stroke:#FFFFFF;stroke-width:4;stroke-miterlimit:10;}
	.st32{fill:#FFFFFF;stroke:#FFFFFF;stroke-width:10;stroke-miterlimit:10;}
	.st33{fill:none;stroke:#4FBDD7;stroke-width:2;stroke-miterlimit:10;}
	.st34{fill-rule:evenodd;clip-rule:evenodd;fill:#FFFFFF;}
	.st35{fill:#FFFFFF;stroke:#FFFFFF;stroke-width:7;stroke-miterlimit:10;}
	.st36{fill:#FFFFFF;stroke:#4FBDD7;stroke-width:7;stroke-miterlimit:10;}
	.st37{fill:#FCFCFC;}
	.st38{fill:#FFFFFF;stroke:#FFFFFF;stroke-width:5;stroke-miterlimit:10;}
	.st39{fill:none;stroke:#FFFFFF;stroke-width:3;stroke-miterlimit:10;}
	.st40{fill:none;stroke:#FFFFFF;stroke-width:8;stroke-miterlimit:10;}
	.st41{fill:none;stroke:#FFFFFF;stroke-width:6;stroke-miterlimit:10;}
	.st42{fill:#FFFFFF;stroke:#4FBDD7;stroke-width:3;stroke-miterlimit:10;}
	.st43{fill:none;stroke:#FFFFFF;stroke-width:0.75;stroke-miterlimit:10;}
	.st44{fill:#4FBDD7;stroke:#FFFFFF;stroke-width:9;stroke-miterlimit:10;}
	.st45{fill:none;stroke:#FFFFFF;stroke-width:9;stroke-miterlimit:10;}
	.st46{fill:none;stroke:#4FBDD7;stroke-width:3;stroke-miterlimit:10;}
</style>
<rect class="st0" width="500" height="500"/>
<path class="st2" d="M273.4,216.1c1.9,1,4.2,0.4,5.5-1.3l47.2-67.5c0,0,0-0.1,0.1-0.1c9.7-14.6,13-32.6,9.1-49.6l-2.8-12.3
	c-0.5-2.3-2.8-3.8-5.1-3.2c-1,0.2-1.9,0.8-2.5,1.7l-76.4,106.9L229,60.7c-0.4-2.4-2.5-4-4.8-3.6c-1,0.2-1.9,0.7-2.6,1.5l-8.1,9.7
	c-11.2,13.4-16.4,31-14.4,48.3c0,0,0,0.1,0,0.1l11.4,81.6c0.3,2.2,2.1,3.7,4.3,3.7l9.8-0.2l3.5,6.3l-5.7,3.5l-4.5-2.4
	c-7-3.8-15.6-1-19.4,6.1c0,0,0,0,0,0l-11.3,21.4l-35.8,67.6c-1.1,2.1-0.4,4.7,1.7,5.8c0,0,0,0,0,0l30.9,16.7c1,0.5,2.2,0.6,3.2,0.3
	c1.1-0.3,2-1.1,2.5-2.1l47.1-89c3.8-7.1,1.2-15.9-5.7-19.7l6-3.7l11.7,2.8l3.7,6c-7.9,0.2-14.2,6.9-14.1,14.9l1.5,100.7
	c0,2.4,2,4.3,4.3,4.2l35.1-0.8c2.3-0.1,4.2-2,4.1-4.4c0,0,0,0,0,0l-1.2-76.5l-0.3-24.2c-0.1-8-6.6-14.4-14.5-14.2l-5,0.1l-3.5-5.7
	l6-4L273.4,216.1z M218.3,193.3l-10.8-77.8c-1.7-15,2.8-30.1,12.5-41.7l2.1-2.5l18.2,121.4L218.3,193.3z M184.2,317.2l-23.4-12.6
	l31.7-60l23.4,12.6L184.2,317.2z M229.7,227.4c0.4,1.5,0.3,3.1-0.5,4.5l-9.3,17.6l-23.4-12.6l9.3-17.6c1.5-2.9,5.1-4,7.9-2.5
	l13.1,7.1C228.2,224.7,229.3,225.9,229.7,227.4L229.7,227.4z M254.8,208l-19.7-4.7l-0.9-1.7l11.1-0.3c0.2,0,0.5,0,0.7-0.1
	c0.2,0.2,0.4,0.3,0.6,0.4l9.8,5.3L254.8,208z M274.8,332l-26.6,0.6l-1-67.8l26.6-0.6L274.8,332z M267.5,229.8
	c3.2-0.1,5.9,2.5,5.9,5.8c0,0,0,0,0,0l0.3,19.9l-26.6,0.6l-0.3-19.9c0-3.3,2.5-6,5.8-6.1c0,0,0,0,0,0L267.5,229.8z M254.9,196.3
	l71.4-99.8l0.7,3.2c3.3,14.7,0.5,30.2-7.8,42.8l-45,64.3L254.9,196.3z"/>
<g>
	<rect y="369" class="st20" width="500" height="144"/>
	<text transform="matrix(1 0 0 1 77.0938 407.5557)" class="st2 st21 st22">Coupe branches</text>
</g>
</svg>
