<?xml version="1.0" encoding="utf-8"?>
<!-- Generator: Adobe Illustrator 22.1.0, SVG Export Plug-In . SVG Version: 6.00 Build 0)  -->
<svg version="1.1" id="Calque_1" xmlns="http://www.w3.org/2000/svg" xmlns:xlink="http://www.w3.org/1999/xlink" x="0px" y="0px"
	 viewBox="0 0 500 500" style="enable-background:new 0 0 500 500;" xml:space="preserve">
<style type="text/css">
	.st0{fill:#4FBDD7;}
	.st1{fill:#EAEAEA;}
	.st2{fill:#FFFFFF;}
	.st3{fill:#4FBDD7;stroke:#FFFFFF;stroke-width:5;stroke-miterlimit:10;}
	.st4{fill:#8C8C8C;}
	.st5{fill:#070707;}
	.st6{fill:none;stroke:#FFFFFF;stroke-width:7;stroke-miterlimit:10;}
	.st7{fill:none;stroke:#FFFFFF;stroke-width:10;stroke-miterlimit:10;}
	.st8{fill:#FFFFFF;stroke:#FFFFFF;stroke-width:3;stroke-miterlimit:10;}
	.st9{fill:none;stroke:#FDFFFF;stroke-width:6;stroke-miterlimit:10;}
	.st10{fill:#FAFEFF;}
	.st11{fill:none;stroke:#FFFFFF;stroke-width:2;stroke-miterlimit:10;}
	.st12{fill:#FFFFFF;stroke:#FFFFFF;stroke-width:2;stroke-miterlimit:10;}
	.st13{fill:#4FBDD7;stroke:#FFFFFF;stroke-width:4;stroke-miterlimit:10;}
	.st14{fill:#FFFFFF;stroke:#FFFFFF;stroke-width:4;stroke-miterlimit:10;}
	.st15{fill:none;stroke:#FFFFFF;stroke-miterlimit:10;}
	.st16{fill:#FFFFFF;stroke:#FFFFFF;stroke-width:13;stroke-miterlimit:10;}
	.st17{fill:#4FBDD7;stroke:#FFFFFF;stroke-width:8;stroke-miterlimit:10;}
	.st18{fill:#FFFFFF;stroke:#FFFFFF;stroke-width:0.75;stroke-miterlimit:10;}
	.st19{fill:#FFFFFF;stroke:#FFFFFF;stroke-width:0.5;stroke-miterlimit:10;}
	.st20{fill:#FFFFFF;stroke:#FFFFFF;stroke-width:8;stroke-miterlimit:10;}
	.st21{fill:#FFFFFF;stroke:#FFFFFF;stroke-miterlimit:10;}
	.st22{fill:#FFFFFF;stroke:#FFFFFF;stroke-width:11;stroke-miterlimit:10;}
	.st23{fill:#FFFFFF;stroke:#FFFFFF;stroke-width:6;stroke-miterlimit:10;}
	.st24{fill:#8C8C8C;stroke:#8C8C8C;stroke-width:4;stroke-miterlimit:10;}
	.st25{fill:#FFFFFF;stroke:#FFFFFF;stroke-width:1.05;stroke-miterlimit:10;}
	.st26{fill:none;stroke:#4FBDD7;stroke-width:5;stroke-miterlimit:10;}
	.st27{fill:none;stroke:#FFFFFF;stroke-width:4;stroke-miterlimit:10;}
	.st28{fill:#8C8C8C;stroke:#FFFFFF;stroke-width:4;stroke-miterlimit:10;}
	.st29{fill:#FFFFFF;stroke:#FFFFFF;stroke-width:10;stroke-miterlimit:10;}
	.st30{fill:none;}
	.st31{font-family:'HelveticaNeue-CondensedBold';}
	.st32{font-size:54px;}
	.st33{fill:none;stroke:#4FBDD7;stroke-width:2;stroke-miterlimit:10;}
	.st34{fill-rule:evenodd;clip-rule:evenodd;fill:#FFFFFF;}
	.st35{fill:#FFFFFF;stroke:#FFFFFF;stroke-width:7;stroke-miterlimit:10;}
	.st36{fill:#FFFFFF;stroke:#4FBDD7;stroke-width:7;stroke-miterlimit:10;}
	.st37{fill:#FCFCFC;}
	.st38{fill:#FFFFFF;stroke:#FFFFFF;stroke-width:5;stroke-miterlimit:10;}
	.st39{fill:none;stroke:#FFFFFF;stroke-width:3;stroke-miterlimit:10;}
	.st40{fill:none;stroke:#FFFFFF;stroke-width:8;stroke-miterlimit:10;}
	.st41{fill:none;stroke:#FFFFFF;stroke-width:6;stroke-miterlimit:10;}
	.st42{fill:#FFFFFF;stroke:#4FBDD7;stroke-width:3;stroke-miterlimit:10;}
	.st43{fill:none;stroke:#FFFFFF;stroke-width:0.75;stroke-miterlimit:10;}
	.st44{fill:#4FBDD7;stroke:#FFFFFF;stroke-width:9;stroke-miterlimit:10;}
	.st45{fill:none;stroke:#FFFFFF;stroke-width:9;stroke-miterlimit:10;}
	.st46{fill:none;stroke:#4FBDD7;stroke-width:3;stroke-miterlimit:10;}
</style>
<rect x="-6" y="-2" class="st0" width="511" height="506"/>
<path class="st2" d="M421.2,123.3c2.3,1.1,3.2,3.9,2.1,6.2l-38.7,78.9c-1.1,2.3-3.9,3.2-6.2,2.1c-2.3-1.1-3.2-3.9-2.1-6.2l38.7-78.9
	C416.1,123.1,418.9,122.2,421.2,123.3z"/>
<path class="st2" d="M404.6,115.2c2.3,1.1,3.2,3.9,2.1,6.2L368,200.3c-1.1,2.3-3.9,3.2-6.2,2.1c-2.3-1.1-3.2-3.9-2.1-6.2l38.7-78.9
	C399.5,115,402.3,114.1,404.6,115.2z"/>
<path class="st2" d="M412.7,98.6l16.6,8.1c1.9,0.9,2.9,3,2.5,5.1l-4,18.6c-0.3,1.4-1.2,2.6-2.5,3.2c-1.3,0.6-2.8,0.6-4.1,0
	l-24.9-12.2c-1.3-0.6-2.2-1.8-2.5-3.2c-0.3-1.4,0.1-2.8,1-3.9l12.3-14.6C408.5,98.1,410.8,97.6,412.7,98.6z M422,113.4l-10.1-5
	l-6.1,7.3l14.3,7L422,113.4z"/>
<path class="st2" d="M399.8,166.9c1.1,0.5,1.9,1.4,2.3,2.7c0.8,2.4-0.5,5-2.9,5.9l-12.4,4.2c-2.4,0.8-5-0.5-5.9-2.9
	c-0.8-2.4,0.5-5,2.9-5.9l12.4-4.2C397.5,166.3,398.7,166.4,399.8,166.9z"/>
<path class="st2" d="M383.2,158.8c1.1,0.5,1.9,1.4,2.3,2.7l4.2,12.4c0.8,2.4-0.5,5-2.9,5.9s-5-0.5-5.9-2.9l-4.2-12.4
	c-0.8-2.4,0.5-5,2.9-5.9C380.9,158.2,382.1,158.3,383.2,158.8z"/>
<path class="st2" d="M389.6,187.7c1.1,0.5,1.9,1.4,2.3,2.7c0.8,2.4-0.5,5-2.9,5.9l-12.4,4.2c-2.4,0.8-5-0.5-5.9-2.9s0.5-5,2.9-5.9
	l12.4-4.2C387.3,187.1,388.6,187.2,389.6,187.7z"/>
<path class="st2" d="M373,179.6c1.1,0.5,1.9,1.4,2.3,2.7l4.2,12.4c0.8,2.4-0.5,5-2.9,5.9c-2.4,0.8-5-0.5-5.9-2.9l-4.2-12.4
	c-0.8-2.4,0.5-5,2.9-5.9C370.7,178.9,372,179,373,179.6z"/>
<path class="st2" d="M361.7,192.1l24.9,12.2c2.3,1.1,3.2,3.9,2.1,6.2c-1.1,2.3-3.9,3.2-6.2,2.1l-24.9-12.2c-2.3-1.1-3.2-3.9-2.1-6.2
	C356.7,191.9,359.4,190.9,361.7,192.1z"/>
<path class="st2" d="M131.8,146.4c2.3,1.1,3.2,3.9,2.1,6.2c-28,57.3-4.3,126.6,53,154.7s126.6,4.3,154.7-53c1.1-2.3,3.9-3.2,6.2-2.1
	c2.3,1.1,3.2,3.9,2.1,6.2c-30.3,61.8-105.2,87.5-167.1,57.2c-61.8-30.3-87.5-105.2-57.2-167.1C126.7,146.2,129.5,145.2,131.8,146.4z
	"/>
<path class="st2" d="M280.3,95.5c57.3,28,81,97.4,53,154.7c-1.1,2.3-3.9,3.2-6.2,2.1c-2.3-1.1-3.2-3.9-2.1-6.2
	c25.8-52.7,3.9-116.5-48.7-142.3s-116.5-3.9-142.3,48.7c-1.1,2.3-3.9,3.2-6.2,2.1c-2.3-1.1-3.2-3.9-2.1-6.2
	C153.6,91.2,223,67.5,280.3,95.5z"/>
<path class="st2" d="M148.4,154.5c2.3,1.1,3.2,3.9,2.1,6.2c-23.6,48.1-3.6,106.4,44.5,129.9s106.4,3.6,129.9-44.5
	c1.1-2.3,3.9-3.2,6.2-2.1c2.3,1.1,3.2,3.9,2.1,6.2c-25.8,52.7-89.6,74.5-142.3,48.7c-52.7-25.8-74.5-89.6-48.7-142.3
	C143.3,154.3,146.1,153.4,148.4,154.5z"/>
<path class="st2" d="M272.2,112.1c48.1,23.6,68,81.9,44.5,129.9c-1.1,2.3-3.9,3.2-6.2,2.1c-2.3-1.1-3.2-3.9-2.1-6.2
	c21.3-43.5,3.3-96.3-40.3-117.6s-96.3-3.3-117.6,40.3c-1.1,2.3-3.9,3.2-6.2,2.1c-2.3-1.1-3.2-3.9-2.1-6.2
	C165.8,108.5,224.1,88.6,272.2,112.1z"/>
<path class="st2" d="M374.2,198.2c2.3,1.1,3.2,3.9,2.1,6.2l-26.5,54c-1.1,2.3-3.9,3.2-6.2,2.1c-2.3-1.1-3.2-3.9-2.1-6.2l26.5-54
	C369.1,198,371.9,197,374.2,198.2z"/>
<path class="st2" d="M165,162.6c2.3,1.1,3.2,3.9,2.1,6.2c-19.1,38.9-2.9,86.1,36,105.2s86.1,2.9,105.2-36c1.1-2.3,3.9-3.2,6.2-2.1
	c2.3,1.1,3.2,3.9,2.1,6.2c-21.3,43.5-74.1,61.6-117.6,40.3c-43.5-21.3-61.6-74.1-40.3-117.6C159.9,162.4,162.7,161.5,165,162.6z"/>
<path class="st2" d="M264,128.7c2.3,1.1,3.2,3.9,2.1,6.2c-1.1,2.3-3.9,3.2-6.2,2.1c-34.4-16.8-76-2.6-92.8,31.8
	c-1.1,2.3-3.9,3.2-6.2,2.1c-2.3-1.1-3.2-3.9-2.1-6.2C177.9,125.8,225.1,109.7,264,128.7z"/>
<path class="st2" d="M264,128.7l16.6,8.1c2.3,1.1,3.2,3.9,2.1,6.2s-3.9,3.2-6.2,2.1l-16.6-8.1c-2.3-1.1-3.2-3.9-2.1-6.2
	C258.9,128.6,261.7,127.6,264,128.7z"/>
<path class="st2" d="M419.6,126.4c1.1,0.5,1.9,1.4,2.3,2.7c0.8,2.4-0.5,5-2.9,5.9l-12.4,4.2c-2.4,0.8-5-0.5-5.9-2.9
	c-0.8-2.4,0.5-5,2.9-5.9l12.4-4.2C417.3,125.8,418.6,125.9,419.6,126.4z"/>
<path class="st2" d="M403,118.3c1.1,0.5,1.9,1.4,2.3,2.7l4.2,12.4c0.8,2.4-0.5,5-2.9,5.9s-5-0.5-5.9-2.9l-4.2-12.4
	c-0.8-2.4,0.5-5,2.9-5.9C400.7,117.7,402,117.8,403,118.3z"/>
<path class="st2" d="M409.5,147.2c1.1,0.5,1.9,1.4,2.3,2.7c0.8,2.4-0.5,5-2.9,5.9l-12.4,4.2c-2.4,0.8-5-0.5-5.9-2.9s0.5-5,2.9-5.9
	l12.4-4.2C407.1,146.6,408.4,146.7,409.5,147.2z"/>
<path class="st2" d="M392.9,139.1c1.1,0.5,1.9,1.4,2.3,2.7l4.2,12.4c0.8,2.4-0.5,5-2.9,5.9c-2.4,0.8-5-0.5-5.9-2.9l-4.2-12.4
	c-0.8-2.4,0.5-5,2.9-5.9C390.5,138.4,391.8,138.5,392.9,139.1z"/>
<g>
	<rect x="2" y="371" class="st30" width="500" height="132"/>
	<text transform="matrix(1 0 0 1 152.0479 409.5557)" class="st2 st31 st32">Cravache</text>
</g>
</svg>
