<?xml version="1.0" encoding="utf-8"?>
<!-- Generator: Adobe Illustrator 22.1.0, SVG Export Plug-In . SVG Version: 6.00 Build 0)  -->
<svg version="1.1" id="Calque_1" xmlns="http://www.w3.org/2000/svg" x="0px" y="0px"
     viewBox="0 0 500 500" style="enable-background:new 0 0 500 500;" xml:space="preserve">
<style type="text/css">
	.st0{fill:#4FBDD7;}
	.st1{fill:#EAEAEA;}
	.st2{fill:none;}
	.st3{fill:#FFFFFF;}
	.st4{font-family:'HelveticaNeue-CondensedBold';}
	.st5{font-size:54px;}
	.st6{fill:#4FBDD7;stroke:#FFFFFF;stroke-width:5;stroke-miterlimit:10;}
	.st7{fill:#8C8C8C;}
	.st8{fill:#070707;}
	.st9{fill:none;stroke:#FFFFFF;stroke-width:7;stroke-miterlimit:10;}
	.st10{fill:none;stroke:#FFFFFF;stroke-width:10;stroke-miterlimit:10;}
	.st11{fill:#FFFFFF;stroke:#FFFFFF;stroke-width:3;stroke-miterlimit:10;}
	.st12{fill:none;stroke:#FDFFFF;stroke-width:6;stroke-miterlimit:10;}
	.st13{fill:#FAFEFF;}
	.st14{fill:none;stroke:#FFFFFF;stroke-width:2;stroke-miterlimit:10;}
	.st15{fill:#FFFFFF;stroke:#FFFFFF;stroke-width:2;stroke-miterlimit:10;}
	.st16{fill:#4FBDD7;stroke:#FFFFFF;stroke-width:4;stroke-miterlimit:10;}
	.st17{fill:#FFFFFF;stroke:#FFFFFF;stroke-width:4;stroke-miterlimit:10;}
	.st18{fill:none;stroke:#FFFFFF;stroke-miterlimit:10;}
	.st19{fill:#FFFFFF;stroke:#FFFFFF;stroke-width:13;stroke-miterlimit:10;}
	.st20{fill:#4FBDD7;stroke:#FFFFFF;stroke-width:8;stroke-miterlimit:10;}
	.st21{fill:#FFFFFF;stroke:#FFFFFF;stroke-width:0.75;stroke-miterlimit:10;}
	.st22{fill:#FFFFFF;stroke:#FFFFFF;stroke-width:0.5;stroke-miterlimit:10;}
	.st23{fill:#FFFFFF;stroke:#FFFFFF;stroke-width:8;stroke-miterlimit:10;}
	.st24{fill:#FFFFFF;stroke:#FFFFFF;stroke-miterlimit:10;}
	.st25{fill:#FFFFFF;stroke:#FFFFFF;stroke-width:11;stroke-miterlimit:10;}
	.st26{fill:#FFFFFF;stroke:#FFFFFF;stroke-width:6;stroke-miterlimit:10;}
	.st27{fill:#8C8C8C;stroke:#8C8C8C;stroke-width:4;stroke-miterlimit:10;}
	.st28{fill:#FFFFFF;stroke:#FFFFFF;stroke-width:1.05;stroke-miterlimit:10;}
	.st29{fill:none;stroke:#4FBDD7;stroke-width:5;stroke-miterlimit:10;}
	.st30{fill:none;stroke:#FFFFFF;stroke-width:4;stroke-miterlimit:10;}
	.st31{fill:#8C8C8C;stroke:#FFFFFF;stroke-width:4;stroke-miterlimit:10;}
	.st32{fill:#FFFFFF;stroke:#FFFFFF;stroke-width:10;stroke-miterlimit:10;}
	.st33{fill:none;stroke:#4FBDD7;stroke-width:2;stroke-miterlimit:10;}
	.st34{fill-rule:evenodd;clip-rule:evenodd;fill:#FFFFFF;}
	.st35{fill:#FFFFFF;stroke:#FFFFFF;stroke-width:7;stroke-miterlimit:10;}
	.st36{fill:#FFFFFF;stroke:#4FBDD7;stroke-width:7;stroke-miterlimit:10;}
	.st37{fill:#FCFCFC;}
	.st38{fill:#FFFFFF;stroke:#FFFFFF;stroke-width:5;stroke-miterlimit:10;}
	.st39{fill:none;stroke:#FFFFFF;stroke-width:3;stroke-miterlimit:10;}
	.st40{fill:none;stroke:#FFFFFF;stroke-width:8;stroke-miterlimit:10;}
	.st41{fill:none;stroke:#FFFFFF;stroke-width:6;stroke-miterlimit:10;}
	.st42{fill:#FFFFFF;stroke:#4FBDD7;stroke-width:3;stroke-miterlimit:10;}
	.st43{fill:none;stroke:#FFFFFF;stroke-width:0.75;stroke-miterlimit:10;}
	.st44{fill:#4FBDD7;stroke:#FFFFFF;stroke-width:9;stroke-miterlimit:10;}
	.st45{fill:none;stroke:#FFFFFF;stroke-width:9;stroke-miterlimit:10;}
	.st46{fill:none;stroke:#4FBDD7;stroke-width:3;stroke-miterlimit:10;}
</style>
<rect y="-1" class="st0" width="500" height="505"/>
<g>
	<rect x="-2" y="363" class="st2" width="500" height="144"/>
	<text transform="matrix(1 0 0 1 53.6855 401.5557)" class="st3 st4 st5">Crayons &amp; fusains</text>
</g>
<g>
	<path d="M273.3,292l55.3,8.8l21.2-133.3l-12.3-36.1l-9.3-27.3l-17.3,23.1l-22.9,30.5L266.9,291C269,291.3,271.2,291.7,273.3,292"/>
	<path class="st42" d="M273.3,292l55.3,8.8l21.2-133.3l-12.3-36.1l-9.3-27.3l-17.3,23.1l-22.9,30.5L266.9,291
		C269,291.3,271.2,291.7,273.3,292z"/>
	<path class="st3" d="M349.8,167.5c-10,3.4-21,4.5-32.1,2.7c-4.1-0.6-8-1.6-11.8-3c-6.5-2.3-12.6-5.6-17.9-9.6l40.2-53.6l0,0
		L349.8,167.5z"/>
	<path class="st6" d="M349.8,167.5c-10,3.4-21,4.5-32.1,2.7c-4.1-0.6-8-1.6-11.8-3c-6.5-2.3-12.6-5.6-17.9-9.6l40.2-53.6l0,0
		L349.8,167.5z"/>
	<path class="st3" d="M337.5,131.4c-4.3,1.5-9,1.9-13.8,1.2c-1.8-0.3-3.5-0.7-5.1-1.3c-2.8-1-5.4-2.4-7.7-4.1l17.3-23.1L337.5,131.4
		z"/>
	<path class="st42" d="M229.7,294.6c19.2-0.2,38.3-0.3,57.5-0.3v-135l-17.8-33.7l-13.5-25.5l-13.5,25.5l-17.8,33.7v135.3
		C226.4,294.7,228.1,294.7,229.7,294.6"/>
	<path class="st43" d="M229.7,294.6c19.2-0.2,38.3-0.3,57.5-0.3v-135l-17.8-33.7l-13.5-25.5l-13.5,25.5l-17.8,33.7v135.3
		C226.4,294.7,228.1,294.7,229.7,294.6z"/>
	<path class="st6" d="M288.2,158.4c-9.3,4.9-20,7.7-31.3,7.7c-4.1,0-8.2-0.4-12.1-1.1c-6.8-1.2-13.3-3.5-19.2-6.7l31.3-59.2l0,0
		L288.2,158.4z"/>
	<path class="st3" d="M269.4,125.7c-4,2.1-8.6,3.3-13.5,3.3c-1.8,0-3.5-0.2-5.2-0.5c-2.9-0.5-5.7-1.5-8.3-2.9l13.5-25.5L269.4,125.7
		z"/>
	<path d="M206.5,305c18.5-3.4,36.8-8,55-12.8L228,161l-25.6-28.2l-5.8-6.4L183,111.4l-6.7,28l-8.9,37.1L200.5,306
		C202.5,305.7,204.5,305.3,206.5,305"/>
	<path class="st42" d="M206.5,305c18.5-3.4,36.8-8,55-12.8L228,161l-25.6-28.2l-5.8-6.4L183,111.4l-6.7,28l-8.9,37.1L200.5,306
		C202.5,305.7,204.5,305.3,206.5,305z"/>
	<path class="st3" d="M228,161.1c-7.8,7.1-17.5,12.5-28.4,15.3c-4,1-8,1.7-12,1.9c-6.9,0.5-13.7-0.1-20.2-1.7l15.6-65.1l0,0
		L228,161.1z"/>
	<path class="st6" d="M228,161.1c-7.8,7.1-17.5,12.5-28.4,15.3c-4,1-8,1.7-12,1.9c-6.9,0.5-13.7-0.1-20.2-1.7l15.6-65.1l0,0
		L228,161.1z"/>
	<path class="st3" d="M202.4,131.2c-3.4,3.1-7.5,5.4-12.2,6.6c-1.7,0.4-3.5,0.7-5.2,0.8c-3,0.2-5.9-0.1-8.7-0.7l6.7-28L202.4,131.2z
		"/>
</g>
</svg>
