<?xml version="1.0" encoding="utf-8"?>
<!-- Generator: Adobe Illustrator 22.1.0, SVG Export Plug-In . SVG Version: 6.00 Build 0)  -->
<svg version="1.1" id="Calque_1" xmlns="http://www.w3.org/2000/svg" xmlns:xlink="http://www.w3.org/1999/xlink" x="0px" y="0px"
	 viewBox="0 0 500 500" style="enable-background:new 0 0 500 500;" xml:space="preserve">
<style type="text/css">
	.st0{fill:#4FBDD7;}
	.st1{fill:#EAEAEA;}
	.st2{fill:none;}
	.st3{fill:#FFFFFF;}
	.st4{font-family:'HelveticaNeue-CondensedBold';}
	.st5{font-size:54px;}
	.st6{fill:#4FBDD7;stroke:#FFFFFF;stroke-width:5;stroke-miterlimit:10;}
	.st7{fill:#8C8C8C;}
	.st8{fill:#070707;}
	.st9{fill:none;stroke:#FFFFFF;stroke-width:7;stroke-miterlimit:10;}
	.st10{fill:none;stroke:#FFFFFF;stroke-width:10;stroke-miterlimit:10;}
	.st11{fill:#FFFFFF;stroke:#FFFFFF;stroke-width:3;stroke-miterlimit:10;}
	.st12{fill:none;stroke:#FDFFFF;stroke-width:6;stroke-miterlimit:10;}
	.st13{fill:#FAFEFF;}
	.st14{fill:none;stroke:#FFFFFF;stroke-width:2;stroke-miterlimit:10;}
	.st15{fill:#FFFFFF;stroke:#FFFFFF;stroke-width:2;stroke-miterlimit:10;}
	.st16{fill:#4FBDD7;stroke:#FFFFFF;stroke-width:4;stroke-miterlimit:10;}
	.st17{fill:#FFFFFF;stroke:#FFFFFF;stroke-width:4;stroke-miterlimit:10;}
	.st18{fill:none;stroke:#FFFFFF;stroke-miterlimit:10;}
	.st19{fill:#FFFFFF;stroke:#FFFFFF;stroke-width:13;stroke-miterlimit:10;}
	.st20{fill:#4FBDD7;stroke:#FFFFFF;stroke-width:8;stroke-miterlimit:10;}
	.st21{fill:#FFFFFF;stroke:#FFFFFF;stroke-width:0.75;stroke-miterlimit:10;}
	.st22{fill:#FFFFFF;stroke:#FFFFFF;stroke-width:0.5;stroke-miterlimit:10;}
	.st23{fill:#FFFFFF;stroke:#FFFFFF;stroke-width:8;stroke-miterlimit:10;}
	.st24{fill:#FFFFFF;stroke:#FFFFFF;stroke-miterlimit:10;}
	.st25{fill:#FFFFFF;stroke:#FFFFFF;stroke-width:11;stroke-miterlimit:10;}
	.st26{fill:#FFFFFF;stroke:#FFFFFF;stroke-width:6;stroke-miterlimit:10;}
	.st27{fill:#8C8C8C;stroke:#8C8C8C;stroke-width:4;stroke-miterlimit:10;}
	.st28{fill:#FFFFFF;stroke:#FFFFFF;stroke-width:1.05;stroke-miterlimit:10;}
	.st29{fill:none;stroke:#4FBDD7;stroke-width:5;stroke-miterlimit:10;}
	.st30{fill:none;stroke:#FFFFFF;stroke-width:4;stroke-miterlimit:10;}
	.st31{fill:#8C8C8C;stroke:#FFFFFF;stroke-width:4;stroke-miterlimit:10;}
	.st32{fill:#FFFFFF;stroke:#FFFFFF;stroke-width:10;stroke-miterlimit:10;}
	.st33{fill:none;stroke:#4FBDD7;stroke-width:2;stroke-miterlimit:10;}
	.st34{fill-rule:evenodd;clip-rule:evenodd;fill:#FFFFFF;}
	.st35{fill:#FFFFFF;stroke:#FFFFFF;stroke-width:7;stroke-miterlimit:10;}
	.st36{fill:#FFFFFF;stroke:#4FBDD7;stroke-width:7;stroke-miterlimit:10;}
	.st37{fill:#FCFCFC;}
	.st38{fill:#FFFFFF;stroke:#FFFFFF;stroke-width:5;stroke-miterlimit:10;}
	.st39{fill:none;stroke:#FFFFFF;stroke-width:3;stroke-miterlimit:10;}
	.st40{fill:none;stroke:#FFFFFF;stroke-width:8;stroke-miterlimit:10;}
	.st41{fill:none;stroke:#FFFFFF;stroke-width:6;stroke-miterlimit:10;}
	.st42{fill:#FFFFFF;stroke:#4FBDD7;stroke-width:3;stroke-miterlimit:10;}
	.st43{fill:none;stroke:#FFFFFF;stroke-width:0.75;stroke-miterlimit:10;}
	.st44{fill:#4FBDD7;stroke:#FFFFFF;stroke-width:9;stroke-miterlimit:10;}
	.st45{fill:none;stroke:#FFFFFF;stroke-width:9;stroke-miterlimit:10;}
	.st46{fill:none;stroke:#4FBDD7;stroke-width:3;stroke-miterlimit:10;}
</style>
<rect y="-1" class="st0" width="500" height="500"/>
<g>
	<rect x="1" y="361" class="st2" width="500" height="144"/>
	<text transform="matrix(1 0 0 1 168.0571 399.5557)" class="st3 st4 st5">Crochet</text>
</g>
<g>
	<path class="st3" d="M324.4,224.7c1.2,0,2.4-0.5,3.3-1.4c0.9-0.9,1.4-2.1,1.4-3.4c0-1.3-0.5-2.5-1.4-3.4c-0.9-0.9-2.1-1.4-3.3-1.4
		c-1.2,0-2.4,0.5-3.3,1.4c-0.9,0.9-1.4,2.1-1.4,3.4c0,1.3,0.5,2.5,1.4,3.4C322,224.2,323.2,224.7,324.4,224.7"/>
	<path class="st3" d="M364.9,254.8L341,230.1c-1.8-1.9-4.8-1.9-6.6,0c-1.8,1.9-1.8,4.9,0,6.8l23.9,24.7c1.8,1.9,1.8,4.9,0,6.8
		c-1.8,1.9-4.8,1.9-6.6,0l-87.2-90l6.6-6.8c21.1,21.8,42.2,43.5,63.3,65.3c21.4,19.4,27.3,23.1,28.1,22.3c0.8-0.9-2.8-6.9-21.5-29.1
		c-16.4-16.9-32.8-33.8-49.1-50.7l6.2-6.4c5.7-5.9,5.7-15.5,0-21.4c-5.7-5.9-15-5.9-20.7,0l-6.2,6.4l-30.7-31.7
		c2.9-2.7,4.7-6.5,4.7-10.8c0-8-6.3-14.5-14-14.5h-6.9c-8.1,0-15.3,5-18.3,12.7c-3.1,7.7-1.4,16.5,4.3,22.3l27.8,28.7
		c3.1,3.2,6.2,6.4,9.4,9.7c6,6.2,12.1,12.5,18.1,18.7c2.2,2.3,4.4,4.6,6.6,6.8l25.9,26.7c3.1,3.2,6.2,6.4,9.4,9.7l37.8,39
		c2.7,2.8,6.3,4.2,9.9,4.2c3.6,0,7.2-1.4,9.9-4.2C370.4,269.7,370.4,260.5,364.9,254.8 M283.9,158.4c2.1-2.1,5.4-2.1,7.5,0
		c1,1,1.6,2.4,1.6,3.9c0,1.5-0.6,2.8-1.6,3.9l-6.2,6.4l-7.5-7.7L283.9,158.4z M253.1,166.7c-0.3-0.4-0.7-0.8-1.1-1.1l-35.4-36.5
		c-3-3.1-3.9-7.7-2.3-11.8c1.6-4.1,5.4-6.7,9.7-6.7h6.9c2.6,0,4.7,2.2,4.7,4.8c0,2.4-1.6,4.4-3.9,4.8c-1.7,0.3-3.2,1.6-3.7,3.3
		c-0.5,1.7-0.1,3.6,1.1,4.9l35.3,36.4l-6.6,6.8L253.1,166.7z"/>
	<polygon class="st3" points="187.1,258.1 181,251.8 252.9,177.5 259,183.9 	"/>
	<path class="st3" d="M239,257.9c0,27.1-21.3,49-47.5,49s-47.5-22-47.5-49c0-27.1,21.3-49,47.5-49S239,230.9,239,257.9"/>
</g>
<path class="st29" d="M191.4,208.6c0,27.4,21.2,49.6,47.4,49.6"/>
<path class="st29" d="M150.4,233.4c0,30.1,35.1,54.5,78.6,54.5"/>
<path class="st29" d="M144,258.1c0-18.4,33.9-33.3,75.7-33.3"/>
<path class="st29" d="M150.4,282.2c0-13.3,39.6-24.1,88.5-24.1"/>
<path class="st29" d="M204.2,304.9c0-53.2-5.7-96.3-12.7-96.3"/>
<path class="st29" d="M167.4,299.9c0-44.2-2.5-80-5.7-80"/>
</svg>
