<?xml version="1.0" encoding="utf-8"?>
<!-- Generator: Adobe Illustrator 22.1.0, SVG Export Plug-In . SVG Version: 6.00 Build 0)  -->
<svg version="1.1" id="Calque_1" xmlns="http://www.w3.org/2000/svg" x="0px" y="0px"
     viewBox="0 0 500 500" style="enable-background:new 0 0 500 500;" xml:space="preserve">
<style type="text/css">
	.st0{fill:#EAEAEA;}
	.st1{fill:#8C8C8C;}
	.st2{fill:#FFFFFF;}
	.st3{fill:#EAEAEA;stroke:#8C8C8C;stroke-width:7;stroke-miterlimit:10;}
	.st4{fill:#070707;}
	.st5{fill:none;stroke:#8C8C8C;stroke-width:7;stroke-miterlimit:10;}
	.st6{fill:none;stroke:#8C8C8C;stroke-width:10;stroke-miterlimit:10;}
	.st7{fill:#8C8C8C;stroke:#8C8C8C;stroke-width:3;stroke-miterlimit:10;}
	.st8{fill:none;stroke:#8C8C8C;stroke-width:8;stroke-miterlimit:10;}
	.st9{fill:none;stroke:#8E8E8E;stroke-width:6;stroke-miterlimit:10;}
	.st10{fill:#8E8E8E;}
	.st11{fill:#505050;}
	.st12{fill:none;stroke:#8E8E8E;stroke-width:2;stroke-miterlimit:10;}
	.st13{fill:#8C8C8C;stroke:#8C8C8C;stroke-width:2;stroke-miterlimit:10;}
	.st14{fill:#8C8C8C;stroke:#FFFFFF;stroke-width:2;stroke-miterlimit:10;}
	.st15{fill:none;stroke:#FFFFFF;stroke-width:2;stroke-miterlimit:10;}
	.st16{fill:none;stroke:#8C8C8C;stroke-miterlimit:10;}
	.st17{fill:none;stroke:#8C8C8C;stroke-width:13;stroke-miterlimit:10;}
	.st18{fill:#EAEAEA;stroke:#8C8C8C;stroke-width:8;stroke-miterlimit:10;}
	.st19{fill:none;stroke:#8C8C8C;stroke-width:4;stroke-miterlimit:10;}
	.st20{fill:#8C8C8C;stroke:#8C8C8C;stroke-width:0.75;stroke-miterlimit:10;}
	.st21{fill:none;stroke:#8C8C8C;stroke-width:9;stroke-miterlimit:10;}
	.st22{fill:#8C8C8C;stroke:#8C8C8C;stroke-width:0.5;stroke-miterlimit:10;}
	.st23{fill:#6B6B6B;}
	.st24{fill:none;}
	.st25{stroke:#8C8C8C;stroke-width:8;stroke-miterlimit:10;}
	.st26{fill:#8C8C8C;stroke:#8C8C8C;stroke-miterlimit:10;}
	.st27{fill:none;stroke:#8C8C8C;stroke-width:11;stroke-miterlimit:10;}
	.st28{fill:none;stroke:#8C8C8C;stroke-width:6;stroke-miterlimit:10;}
	.st29{stroke:#8C8C8C;stroke-width:6;stroke-miterlimit:10;}
	.st30{fill:#8C8C8C;stroke:#8C8C8C;stroke-width:4;stroke-miterlimit:10;}
	.st31{fill:#8C8C8C;stroke:#8C8C8C;stroke-width:1.05;stroke-miterlimit:10;}
	.st32{fill:#D6D6D6;}
	.st33{fill:none;stroke:#EAEAEA;stroke-width:5;stroke-miterlimit:10;}
	.st34{fill:#8C8C8C;stroke:#8C8C8C;stroke-width:10;stroke-miterlimit:10;}
	.st35{fill:none;stroke:#CECECE;stroke-width:2;stroke-miterlimit:10;}
	.st36{fill:none;stroke:#FFFFFF;stroke-width:4;stroke-miterlimit:10;}
	.st37{fill-rule:evenodd;clip-rule:evenodd;fill:#8C8C8C;}
	.st38{fill:#8C8C8C;stroke:#8C8C8C;stroke-width:8;stroke-miterlimit:10;}
	.st39{fill:#8C8C8C;stroke:#8C8C8C;stroke-width:7;stroke-miterlimit:10;}
	.st40{fill:#DBDBDB;stroke:#8C8C8C;stroke-width:7;stroke-miterlimit:10;}
	.st41{font-family:'HelveticaNeue-CondensedBold';}
	.st42{font-size:54px;}
	.st43{fill:none;stroke:#8C8C8C;stroke-width:5;stroke-miterlimit:10;}
	.st44{fill:none;stroke:#8C8C8C;stroke-width:3;stroke-miterlimit:10;}
	.st45{clip-path:url(#SVGID_2_);fill:#8C8C8C;}
	.st46{clip-path:url(#SVGID_2_);fill:none;stroke:#8C8C8C;stroke-width:8;stroke-miterlimit:10;}
	.st47{clip-path:url(#SVGID_2_);fill:#FFFFFF;}
	.st48{clip-path:url(#SVGID_2_);fill:#EAEAEA;}
	.st49{clip-path:url(#SVGID_2_);fill:none;stroke:#8C8C8C;stroke-miterlimit:10;}
	.st50{fill:none;stroke:#FFFFFF;stroke-width:0.75;stroke-miterlimit:10;}
	.st51{fill:none;stroke:#8C8C8C;stroke-width:14;stroke-miterlimit:10;}
	.st52{fill:none;stroke:#EAEAEA;stroke-width:2;stroke-miterlimit:10;}
	.st53{fill:none;stroke:#8C8C8C;stroke-width:2;stroke-miterlimit:10;}
</style>
<rect x="1" y="-1" class="st0" width="500" height="500"/>
<g>
	<path class="st1" d="M130,129.3v168.5c0,7.3,6,13.3,13.3,13.3h239.4c7.3,0,13.3-6,13.3-13.3V129.3c0-7.3-6-13.3-13.3-13.3H143.3
		C136,116,130,122,130,129.3z M382.7,124.9c2.4,0,4.4,2,4.4,4.4v168.5c0,2.4-2,4.4-4.4,4.4H143.3c-2.4,0-4.4-2-4.4-4.4V129.3
		c0-2.4,2-4.4,4.4-4.4H382.7z"/>
	<path class="st1" d="M285.9,255.2l17.6,17.6c5.2,5.2,13.7,5.1,18.8-0.2c5.1-5.2,5.1-13.5,0-18.7l-25.3-25.3
		c8.3-40.8-18-80.6-58.8-88.9s-80.6,18-88.9,58.8s18,80.6,58.8,88.9C238.1,293.5,268.9,280.8,285.9,255.2L285.9,255.2z M316,260.2
		c1.7,1.7,1.7,4.5,0,6.3c-1.7,1.7-4.5,1.7-6.3,0L269,225.8l6.3-6.3L316,260.2z"/>
	<path class="st2" d="M243,212.2c0-9.7-7.8-17.5-17.5-17.5c-9.7,0-17.5,7.8-17.5,17.5c0,9.7,7.8,17.5,17.5,17.5
		C235.1,229.7,243,221.8,243,212.2z M214.9,212.2c0-5.8,4.7-10.5,10.5-10.5c5.8,0,10.5,4.7,10.5,10.5s-4.7,10.5-10.5,10.5
		C219.7,222.7,214.9,218,214.9,212.2z"/>
</g>
<path class="st1" d="M169.9,284.5c0-7.3-6-13.3-13.3-13.3s-13.3,6-13.3,13.3c0,7.3,6,13.3,13.3,13.3S169.9,291.8,169.9,284.5z"/>
<path class="st1" d="M143.3,142.6c0,7.3,6,13.3,13.3,13.3s13.3-6,13.3-13.3s-6-13.3-13.3-13.3S143.3,135.3,143.3,142.6z"/>
<path class="st1" d="M307.3,284.5c0-7.3-6-13.3-13.3-13.3c-7.3,0-13.3,6-13.3,13.3c0,7.3,6,13.3,13.3,13.3
	C301.4,297.8,307.3,291.8,307.3,284.5z"/>
<path class="st1" d="M280.7,142.6c0,7.3,6,13.3,13.3,13.3c7.3,0,13.3-6,13.3-13.3s-6-13.3-13.3-13.3
	C286.7,129.3,280.7,135.3,280.7,142.6z"/>
<path class="st1" d="M356.9,138.2h-23c-2.4,0-4.4,2-4.4,4.4v141.9c0,2.4,2,4.4,4.4,4.4h23c2.4,6.9,10,10.5,16.9,8.1
	c5.3-1.9,8.9-6.9,8.9-12.5V142.6c0-7.3-5.9-13.3-13.2-13.3C363.8,129.3,358.8,132.8,356.9,138.2z M356.9,147
	c2.3,6.8,9.7,10.5,16.6,8.2c0.1,0,0.2-0.1,0.3-0.1v31.2h-35.5V147H356.9z M338.4,195.2h35.5V272c-6.8-2.5-14.3,0.9-16.8,7.7
	c0,0.1-0.1,0.2-0.1,0.3h-18.5V195.2z"/>
<g>
	<rect y="360" class="st24" width="500" height="144"/>
	<text transform="matrix(1 0 0 1 144.0532 398.5557)"><tspan x="0" y="0" class="st23 st41 st42">Disque de </tspan><tspan x="-18.5" y="64.8" class="st23 st41 st42">sauvegarde</tspan></text>
</g>
</svg>
