<?xml version="1.0" encoding="utf-8"?>
<!-- Generator: Adobe Illustrator 22.1.0, SVG Export Plug-In . SVG Version: 6.00 Build 0)  -->
<svg style="enable-background:new 0 0 500 500;" id="Calque_1" version="1.1" viewBox="0 0 500 500" x="0px"
     xmlns="http://www.w3.org/2000/svg" y="0px" xml:space="preserve">
<style type="text/css">
	.st0{fill:#EAEAEA;}
	.st1{fill:#8C8C8C;}
	.st2{fill:#FFFFFF;}
	.st3{fill:#EAEAEA;stroke:#8C8C8C;stroke-width:7;stroke-miterlimit:10;}
	.st4{fill:#070707;}
	.st5{fill:none;stroke:#8C8C8C;stroke-width:7;stroke-miterlimit:10;}
	.st6{fill:none;stroke:#8C8C8C;stroke-width:10;stroke-miterlimit:10;}
	.st7{fill:#8C8C8C;stroke:#8C8C8C;stroke-width:3;stroke-miterlimit:10;}
	.st8{fill:none;stroke:#8C8C8C;stroke-width:8;stroke-miterlimit:10;}
	.st9{fill:none;stroke:#8E8E8E;stroke-width:6;stroke-miterlimit:10;}
	.st10{fill:#8E8E8E;}
	.st11{fill:#505050;}
	.st12{fill:none;stroke:#8E8E8E;stroke-width:2;stroke-miterlimit:10;}
	.st13{fill:#8C8C8C;stroke:#8C8C8C;stroke-width:2;stroke-miterlimit:10;}
	.st14{fill:#8C8C8C;stroke:#FFFFFF;stroke-width:2;stroke-miterlimit:10;}
	.st15{fill:none;stroke:#FFFFFF;stroke-width:2;stroke-miterlimit:10;}
	.st16{fill:none;stroke:#8C8C8C;stroke-miterlimit:10;}
	.st17{fill:none;stroke:#8C8C8C;stroke-width:13;stroke-miterlimit:10;}
	.st18{fill:#EAEAEA;stroke:#8C8C8C;stroke-width:8;stroke-miterlimit:10;}
	.st19{fill:none;stroke:#8C8C8C;stroke-width:4;stroke-miterlimit:10;}
	.st20{fill:#8C8C8C;stroke:#8C8C8C;stroke-width:0.75;stroke-miterlimit:10;}
	.st21{fill:none;stroke:#8C8C8C;stroke-width:9;stroke-miterlimit:10;}
	.st22{fill:#8C8C8C;stroke:#8C8C8C;stroke-width:0.5;stroke-miterlimit:10;}
	.st23{fill:none;}
	.st24{fill:#6B6B6B;}
	.st25{font-family:'HelveticaNeue-CondensedBold';}
	.st26{font-size:54px;}
	.st27{stroke:#8C8C8C;stroke-width:8;stroke-miterlimit:10;}
	.st28{fill:#8C8C8C;stroke:#8C8C8C;stroke-miterlimit:10;}
	.st29{fill:none;stroke:#8C8C8C;stroke-width:11;stroke-miterlimit:10;}
	.st30{fill:none;stroke:#8C8C8C;stroke-width:6;stroke-miterlimit:10;}
	.st31{stroke:#8C8C8C;stroke-width:6;stroke-miterlimit:10;}
	.st32{fill:#8C8C8C;stroke:#8C8C8C;stroke-width:4;stroke-miterlimit:10;}
	.st33{fill:#8C8C8C;stroke:#8C8C8C;stroke-width:1.05;stroke-miterlimit:10;}
	.st34{fill:#D6D6D6;}
	.st35{fill:none;stroke:#EAEAEA;stroke-width:5;stroke-miterlimit:10;}
	.st36{fill:#8C8C8C;stroke:#8C8C8C;stroke-width:10;stroke-miterlimit:10;}
	.st37{fill:none;stroke:#CECECE;stroke-width:2;stroke-miterlimit:10;}
	.st38{fill:none;stroke:#FFFFFF;stroke-width:4;stroke-miterlimit:10;}
	.st39{fill-rule:evenodd;clip-rule:evenodd;fill:#8C8C8C;}
	.st40{fill:#8C8C8C;stroke:#8C8C8C;stroke-width:8;stroke-miterlimit:10;}
	.st41{fill:#8C8C8C;stroke:#8C8C8C;stroke-width:7;stroke-miterlimit:10;}
	.st42{fill:#DBDBDB;stroke:#8C8C8C;stroke-width:7;stroke-miterlimit:10;}
	.st43{fill:none;stroke:#8C8C8C;stroke-width:5;stroke-miterlimit:10;}
	.st44{fill:none;stroke:#8C8C8C;stroke-width:3;stroke-miterlimit:10;}
	.st45{clip-path:url(#SVGID_2_);fill:#8C8C8C;}
	.st46{clip-path:url(#SVGID_2_);fill:none;stroke:#8C8C8C;stroke-width:8;stroke-miterlimit:10;}
	.st47{clip-path:url(#SVGID_2_);fill:#FFFFFF;}
	.st48{clip-path:url(#SVGID_2_);fill:#EAEAEA;}
	.st49{clip-path:url(#SVGID_2_);fill:none;stroke:#8C8C8C;stroke-miterlimit:10;}
	.st50{fill:none;stroke:#FFFFFF;stroke-width:0.75;stroke-miterlimit:10;}
	.st51{fill:none;stroke:#8C8C8C;stroke-width:14;stroke-miterlimit:10;}
	.st52{fill:none;stroke:#EAEAEA;stroke-width:2;stroke-miterlimit:10;}
	.st53{fill:none;stroke:#8C8C8C;stroke-width:2;stroke-miterlimit:10;}
</style>
    <rect class="st0" height="500" width="500" x="1" y="-1"/>
    <g>
	<path class="st1" d="M227.9,126.6l-45.5,148.6L167,325.3h-14.3l68.1-222.1L227.9,126.6z"/>
        <path class="st1" d="M278,103.2l6.6,21.5h-13.2L278,103.2z"/>
        <path class="st1" d="M282.5,135.4L268.2,182v0h-9h0l-2.7-8.7l11.6-37.9v0H282.5z"/>
        <path class="st1" d="M239.7,275.2l-15.4,50.2H210l15.4-50.2H239.7z"/>
        <path class="st1" d="M249.4,196.7l7.2,23.4l-16.8,55h-14.3L249.4,196.7z"/>
</g>
    <path class="st1" d="M302.2,182l3.3,10.7h-43l-3.3-10.7h9H302.2z"/>
    <path class="st1" d="M292.4,103.2l68,222.2h-14.3l-5.5-17.9l-3.3-10.7L323,250.1l-3.3-10.7l-14.3-46.6l-3.3-10.7l-14.3-46.6
	l-3.3-10.7l-6.6-21.5H292.4z"/>
    <path class="st1" d="M284.6,124.7l3.3,10.7h-5.4h-14.3h-23.2l-3.3-10.7h29.8H284.6z"/>
    <path class="st1" d="M337.3,296.7l3.3,10.7h-43l-3.3-10.7H337.3z"/>
    <path class="st1" d="M319.8,239.3l3.3,10.7h-43l-3.3-10.7L319.8,239.3L319.8,239.3z"/>
    <path class="st1" d="M297.6,307.4l5.5,17.9h-14.3l-15.4-50.2l-16.9-55l-7.2-23.4l-21.5-70.1l-7.2-23.4v-0.1H235l6.6,21.5l3.3,10.7
	l11.6,37.9l2.7,8.7h0l3.3,10.7l14.3,46.6l3.3,10.7l14.3,46.6L297.6,307.4z"/>
    <path class="st1" d="M303.1,328.9c-1.5,0-3-1-3.4-2.5l-68.1-222.2c-0.6-1.9,0.5-3.9,2.4-4.5c1.9-0.6,3.9,0.5,4.5,2.4l68.1,222.2
	c0.6,1.9-0.5,3.9-2.4,4.5C303.8,328.9,303.5,328.9,303.1,328.9z"/>
    <path class="st1" d="M288.8,328.9c-1.5,0-3-1-3.4-2.5l-68.1-222.2c-0.6-1.9,0.5-3.9,2.4-4.5c1.9-0.6,3.9,0.5,4.5,2.4l68.1,222.2
	c0.6,1.9-0.5,3.9-2.4,4.5C289.5,328.9,289.1,328.9,288.8,328.9z"/>
    <path class="st1"
          d="M235,106.8h-14.3c-2,0-3.6-1.6-3.6-3.6s1.6-3.6,3.6-3.6H235c2,0,3.6,1.6,3.6,3.6S237,106.8,235,106.8z"/>
    <path class="st1" d="M303.1,328.9h-14.3c-2,0-3.6-1.6-3.6-3.6c0-2,1.6-3.6,3.6-3.6h14.3c2,0,3.6,1.6,3.6,3.6
	C306.7,327.3,305.1,328.9,303.1,328.9z"/>
    <path class="st1" d="M152.7,328.9c-0.3,0-0.7-0.1-1-0.2c-1.9-0.6-3-2.6-2.4-4.5l68.1-222.2c0.6-1.9,2.6-3,4.5-2.4
	c1.9,0.6,3,2.6,2.4,4.5l-68.1,222.2C155.6,327.9,154.2,328.9,152.7,328.9L152.7,328.9z"/>
    <path class="st1" d="M167,328.9c-0.3,0-0.7-0.1-1-0.2c-1.9-0.6-3-2.6-2.4-4.5l60.9-198.7c0.6-1.9,2.6-3,4.5-2.4
	c1.9,0.6,3,2.6,2.4,4.5l-60.9,198.7C169.9,327.9,168.5,328.9,167,328.9L167,328.9z"/>
    <path class="st1" d="M167,328.9h-14.3c-2,0-3.6-1.6-3.6-3.6c0-2,1.6-3.6,3.6-3.6H167c2,0,3.6,1.6,3.6,3.6
	C170.6,327.3,169,328.9,167,328.9z"/>
    <path class="st1" d="M271.4,128.3c-0.3,0-0.7-0.1-1-0.2c-1.9-0.6-3-2.6-2.4-4.5l6.6-21.5c0.6-1.9,2.6-3,4.5-2.4
	c1.9,0.6,3,2.6,2.4,4.5l-6.6,21.5C274.4,127.3,273,128.3,271.4,128.3z"/>
    <path class="st1" d="M256.5,176.9c-0.3,0-0.7-0.1-1-0.2c-1.9-0.6-3-2.6-2.4-4.5l11.6-37.9c0.6-1.9,2.6-3,4.5-2.4
	c1.9,0.6,3,2.6,2.4,4.5L260,174.4C259.5,175.9,258.1,176.9,256.5,176.9L256.5,176.9z"/>
    <path class="st1" d="M210,328.9c-0.3,0-0.7-0.1-1-0.2c-1.9-0.6-3-2.6-2.4-4.5l39.4-128.6c0.6-1.9,2.6-3,4.5-2.4
	c1.9,0.6,3,2.6,2.4,4.5l-39.4,128.6C212.9,327.9,211.5,328.9,210,328.9L210,328.9z"/>
    <path class="st1" d="M268.2,185.6c-0.3,0-0.7-0.1-1-0.2c-1.9-0.6-3-2.6-2.4-4.5l14.3-46.6c0.6-1.9,2.6-3,4.5-2.4
	c1.9,0.6,3,2.6,2.4,4.5l-14.3,46.6C271.2,184.6,269.8,185.6,268.2,185.6L268.2,185.6z"/>
    <path class="st1" d="M224.3,328.9c-0.3,0-0.7-0.1-1-0.2c-1.9-0.6-3-2.6-2.4-4.5l32.2-105.2c0.6-1.9,2.6-3,4.5-2.4
	c1.9,0.6,3,2.6,2.4,4.5l-32.2,105.2C227.3,327.9,225.8,328.9,224.3,328.9L224.3,328.9z"/>
    <path class="st1" d="M224.3,328.9H210c-2,0-3.6-1.6-3.6-3.6c0-2,1.6-3.6,3.6-3.6h14.3c2,0,3.6,1.6,3.6,3.6
	C227.9,327.3,226.3,328.9,224.3,328.9z"/>
    <path class="st1" d="M360.4,328.9c-1.5,0-3-1-3.4-2.5l-68.1-222.2c-0.6-1.9,0.5-3.9,2.4-4.5c1.9-0.6,3.9,0.5,4.5,2.4l68.1,222.2
	c0.6,1.9-0.5,3.9-2.4,4.5C361.1,328.9,360.8,328.9,360.4,328.9z"/>
    <path class="st1" d="M346.1,328.9c-1.5,0-3-1-3.4-2.5l-68.1-222.2c-0.6-1.9,0.5-3.9,2.4-4.5c1.9-0.6,3.9,0.5,4.5,2.4l68.1,222.2
	c0.6,1.9-0.5,3.9-2.4,4.5C346.8,328.9,346.4,328.9,346.1,328.9z"/>
    <path class="st1"
          d="M292.4,106.8H278c-2,0-3.6-1.6-3.6-3.6s1.6-3.6,3.6-3.6h14.3c2,0,3.6,1.6,3.6,3.6S294.3,106.8,292.4,106.8z"/>
    <path class="st1" d="M360.4,328.9h-14.3c-2,0-3.6-1.6-3.6-3.6c0-2,1.6-3.6,3.6-3.6h14.3c2,0,3.6,1.6,3.6,3.6
	C364,327.3,362.4,328.9,360.4,328.9z"/>
    <path class="st1" d="M340.6,311h-43c-2,0-3.6-1.6-3.6-3.6c0-2,1.6-3.6,3.6-3.6h43c2,0,3.6,1.6,3.6,3.6
	C344.2,309.4,342.6,311,340.6,311z"/>
    <path class="st1" d="M337.3,300.3h-43c-2,0-3.6-1.6-3.6-3.6c0-2,1.6-3.6,3.6-3.6h43c2,0,3.6,1.6,3.6,3.6
	C340.9,298.7,339.3,300.3,337.3,300.3z"/>
    <path class="st1" d="M323,253.7h-43c-2,0-3.6-1.6-3.6-3.6c0-2,1.6-3.6,3.6-3.6h43c2,0,3.6,1.6,3.6,3.6
	C326.6,252.1,325,253.7,323,253.7z"/>
    <path class="st1" d="M319.7,242.9h-42.9c-2,0-3.6-1.6-3.6-3.6c0-2,1.6-3.6,3.6-3.6h42.9c2,0,3.6,1.6,3.6,3.6
	C323.3,241.3,321.7,242.9,319.7,242.9z"/>
    <path class="st1"
          d="M305.5,196.4h-43c-2,0-3.6-1.6-3.6-3.6s1.6-3.6,3.6-3.6h43c2,0,3.6,1.6,3.6,3.6S307.5,196.4,305.5,196.4z"/>
    <path class="st1"
          d="M302.2,185.6h-43c-2,0-3.6-1.6-3.6-3.6s1.6-3.6,3.6-3.6h43c2,0,3.6,1.6,3.6,3.6S304.2,185.6,302.2,185.6z"/>
    <path class="st1" d="M287.9,139h-43c-2,0-3.6-1.6-3.6-3.6c0-2,1.6-3.6,3.6-3.6h43c2,0,3.6,1.6,3.6,3.6
	C291.5,137.4,289.9,139,287.9,139z"/>
    <path class="st1"
          d="M284.6,128.3h-43c-2,0-3.6-1.6-3.6-3.6s1.6-3.6,3.6-3.6h43c2,0,3.6,1.6,3.6,3.6S286.6,128.3,284.6,128.3z"/>
    <path class="st1" d="M273.4,278.8h-91c-2,0-3.6-1.6-3.6-3.6c0-2,1.6-3.6,3.6-3.6h91c2,0,3.6,1.6,3.6,3.6
	C277,277.2,275.4,278.8,273.4,278.8z"/>
    <g>
	<rect class="st23" height="144" width="500" x="5" y="366"/>
        <text transform="matrix(1 0 0 1 162.6079 404.5557)"><tspan class="st24 st25 st26" x="0" y="0">Echelle / </tspan>
            <tspan class="st24 st25 st26" x="-10.1" y="64.8">escabeau</tspan></text>
</g>
</svg>
