<?xml version="1.0" encoding="utf-8"?>
<!-- Generator: Adobe Illustrator 22.1.0, SVG Export Plug-In . SVG Version: 6.00 Build 0)  -->
<svg version="1.1" id="Calque_1" xmlns="http://www.w3.org/2000/svg" xmlns:xlink="http://www.w3.org/1999/xlink" x="0px" y="0px"
	 viewBox="0 0 500 500" style="enable-background:new 0 0 500 500;" xml:space="preserve">
<style type="text/css">
	.st0{fill:#4FBDD7;}
	.st1{fill:#EAEAEA;}
	.st2{fill:#FFFFFF;}
	.st3{fill:#4FBDD7;stroke:#FFFFFF;stroke-width:5;stroke-miterlimit:10;}
	.st4{fill:#8C8C8C;}
	.st5{fill:#070707;}
	.st6{fill:none;stroke:#FFFFFF;stroke-width:7;stroke-miterlimit:10;}
	.st7{fill:none;stroke:#FFFFFF;stroke-width:10;stroke-miterlimit:10;}
	.st8{fill:#FFFFFF;stroke:#FFFFFF;stroke-width:3;stroke-miterlimit:10;}
	.st9{fill:none;stroke:#FDFFFF;stroke-width:6;stroke-miterlimit:10;}
	.st10{fill:#FAFEFF;}
	.st11{fill:none;stroke:#FFFFFF;stroke-width:2;stroke-miterlimit:10;}
	.st12{fill:#FFFFFF;stroke:#FFFFFF;stroke-width:2;stroke-miterlimit:10;}
	.st13{fill:#4FBDD7;stroke:#FFFFFF;stroke-width:4;stroke-miterlimit:10;}
	.st14{fill:#FFFFFF;stroke:#FFFFFF;stroke-width:4;stroke-miterlimit:10;}
	.st15{fill:none;stroke:#FFFFFF;stroke-miterlimit:10;}
	.st16{fill:#FFFFFF;stroke:#FFFFFF;stroke-width:13;stroke-miterlimit:10;}
	.st17{fill:#4FBDD7;stroke:#FFFFFF;stroke-width:8;stroke-miterlimit:10;}
	.st18{fill:#FFFFFF;stroke:#FFFFFF;stroke-width:0.75;stroke-miterlimit:10;}
	.st19{fill:#FFFFFF;stroke:#FFFFFF;stroke-width:0.5;stroke-miterlimit:10;}
	.st20{fill:#FFFFFF;stroke:#FFFFFF;stroke-width:8;stroke-miterlimit:10;}
	.st21{fill:#FFFFFF;stroke:#FFFFFF;stroke-miterlimit:10;}
	.st22{fill:#FFFFFF;stroke:#FFFFFF;stroke-width:11;stroke-miterlimit:10;}
	.st23{fill:#FFFFFF;stroke:#FFFFFF;stroke-width:6;stroke-miterlimit:10;}
	.st24{fill:#8C8C8C;stroke:#8C8C8C;stroke-width:4;stroke-miterlimit:10;}
	.st25{fill:#FFFFFF;stroke:#FFFFFF;stroke-width:1.05;stroke-miterlimit:10;}
	.st26{fill:none;stroke:#4FBDD7;stroke-width:5;stroke-miterlimit:10;}
	.st27{fill:none;stroke:#FFFFFF;stroke-width:4;stroke-miterlimit:10;}
	.st28{fill:#8C8C8C;stroke:#FFFFFF;stroke-width:4;stroke-miterlimit:10;}
	.st29{fill:#FFFFFF;stroke:#FFFFFF;stroke-width:10;stroke-miterlimit:10;}
	.st30{fill:none;stroke:#4FBDD7;stroke-width:2;stroke-miterlimit:10;}
	.st31{fill-rule:evenodd;clip-rule:evenodd;fill:#FFFFFF;}
	.st32{fill:#FFFFFF;stroke:#FFFFFF;stroke-width:7;stroke-miterlimit:10;}
	.st33{fill:#FFFFFF;stroke:#4FBDD7;stroke-width:7;stroke-miterlimit:10;}
	.st34{fill:none;}
	.st35{font-family:'HelveticaNeue-CondensedBold';}
	.st36{font-size:54px;}
	.st37{fill:#FCFCFC;}
	.st38{fill:#FFFFFF;stroke:#FFFFFF;stroke-width:5;stroke-miterlimit:10;}
	.st39{fill:none;stroke:#FFFFFF;stroke-width:3;stroke-miterlimit:10;}
	.st40{fill:none;stroke:#FFFFFF;stroke-width:8;stroke-miterlimit:10;}
	.st41{fill:none;stroke:#FFFFFF;stroke-width:6;stroke-miterlimit:10;}
	.st42{fill:#FFFFFF;stroke:#4FBDD7;stroke-width:3;stroke-miterlimit:10;}
	.st43{fill:none;stroke:#FFFFFF;stroke-width:0.75;stroke-miterlimit:10;}
	.st44{fill:#4FBDD7;stroke:#FFFFFF;stroke-width:9;stroke-miterlimit:10;}
	.st45{fill:none;stroke:#FFFFFF;stroke-width:9;stroke-miterlimit:10;}
	.st46{fill:none;stroke:#4FBDD7;stroke-width:3;stroke-miterlimit:10;}
</style>
<rect y="-1" class="st0" width="500" height="500"/>
<g>
	<rect x="1" y="362" class="st34" width="500" height="144"/>
	<text transform="matrix(1 0 0 1 191.0337 400.5557)"><tspan x="0" y="0" class="st2 st35 st36">Engin </tspan><tspan x="-21.4" y="64.8" class="st2 st35 st36">associé</tspan></text>
</g>
<path class="st2" d="M170,134c5.7-3.7,11.3-7.3,17-11c11.8,13.2,23.6,26.4,35.4,39.6c6.4-17.3,12.8-33.1,18-49.2c2.6-8,7.5-11,15-11
	c18.3-0.1,36.7-0.1,55,0.1c9.6,0.1,14.1,5,14.2,14.6c0,10,0.2,20.1-0.1,30.1c-0.1,4.7,1.6,6.6,6.3,6.5c7.3-0.2,14.7-0.2,22,0.1
	c10.4,0.4,15.7,5.8,15.9,16.1c0.2,12.5,0,25,0.4,37.4c0.2,5.8-2,7.4-7.8,7.4c-44.8-0.2-89.5-0.2-134.3,0c-2.7,0-4.9-0.3-6.8-1.4
	c-2.4-1.4-3.5-3.4-3.9-4.1C213.9,204.8,195.4,175,170,134z M238.6,171.4c22.1,0,42.4,0.2,62.6-0.3c1.8,0,4.9-3.9,5-6.1
	c0.5-13.7,0.2-27.4,0.3-41.1c0.1-4.9-2.3-6.3-6.8-6.2c-8.1,0.2-16.1,0.1-24.2,0.1c-18.3,0-18.3,0-24.4,17.1
	C247.1,146.6,243.2,158.2,238.6,171.4z"/>
<path class="st37" d="M293.8,277.9c-20.3,0-40.6,0.2-60.9-0.1c-12.8-0.1-22.6-7.1-26.5-18.2c-4-11.3-0.9-25.7,8.6-32.5
	c5.3-3.8,12.4-6.9,18.7-7c40.4-0.6,80.7-0.5,121.1-0.2c14,0.1,26.3,10.6,28.6,23.1c2.6,14-4,27-17.4,32.8c-3.9,1.7-8.5,1.9-12.9,2
	C333.4,278,313.6,277.9,293.8,277.9C293.8,277.9,293.8,277.9,293.8,277.9z"/>
<path class="st37" d="M153.2,237.1c-19-1.3-28.4-2.1-34.5-6.9c-19-15-10-51.5-4.3-56c3.7-2.9,5.7-2.8,8.5,1.6
	c3.3,5.3,8.4,8.3,15.5,5.7c1.7-0.6,5.4,1.2,6.5,3c6.1,9.6,11.9,19.5,17.5,29.5c2.5,4.4,5.3,7.1,10.8,6.4c4.2-0.5,4.5,1.4,7.7,1.8
	c5,0.6,7.3-1.1,8-0.1c1,1.4-2.8,6.9-7.6,10.4C176.2,236.2,169.2,238.2,153.2,237.1z"/>
<path class="st37" d="M124,182c-3-1.7-6-3.3-9-5c15.7-18,31.3-36,47-54c4.7,2.7,9.3,5.3,14,8C158.7,148,141.3,165,124,182z"/>
<path class="st37" d="M174.7,135.1c-6.4-0.2-12.3-5.9-12.4-11.9c-0.1-6.9,6.2-13.2,12.9-13c6.6,0.3,12,6.2,11.8,13.1
	C186.8,129.7,180.9,135.3,174.7,135.1z"/>
<path class="st0" d="M294.5,228.9c19.3,0,38.6,0,58,0c13,0,22.2,8.4,22.3,20.1c0.1,11.8-8.7,20.2-22,20.3
	c-38.9,0.1-77.8,0.1-116.7,0.1c-9,0-16.5-3.3-20.4-11.6c-3.5-7.4-3.1-15.7,3-21.1c4.5-4,11.3-7.2,17.2-7.4
	C255.3,228.3,274.9,228.9,294.5,228.9C294.5,228.9,294.5,228.9,294.5,228.9z M239.4,263.9c8,0,14.6-6.7,14.5-14.4
	c-0.1-7.7-7.2-14.5-14.8-14.2c-7.8,0.3-13.7,6.3-13.7,14.3C225.2,258.3,230.9,264,239.4,263.9z M350.1,263c7.6,0,14.7-7,14.6-14.4
	c-0.1-7.3-6.9-14-14.3-14.1c-7.7-0.2-14.5,6.5-14.5,14.3C335.9,257.1,341.7,263,350.1,263z M276,263.9c8.1,0.1,14.6-6.1,14.7-14.1
	c0.1-7.7-6.6-14.3-14.4-14.4c-8,0-13.9,5.8-13.9,13.8C262.2,258.2,267.3,263.7,276,263.9z M313,262.9c8.1,0.1,14.6-6.1,14.7-14.1
	c0.1-7.7-6.6-14.3-14.4-14.4c-8,0-13.9,5.8-13.9,13.8C299.2,257.2,304.3,262.7,313,262.9z"/>
</svg>
