<?xml version="1.0" encoding="utf-8"?>
<!-- Generator: Adobe Illustrator 22.1.0, SVG Export Plug-In . SVG Version: 6.00 Build 0)  -->
<svg version="1.1" id="Calque_1" xmlns="http://www.w3.org/2000/svg" x="0px" y="0px"
     viewBox="0 0 500 500" style="enable-background:new 0 0 500 500;" xml:space="preserve">
<style type="text/css">
	.st0{fill:#4FBDD7;}
	.st1{fill:#EAEAEA;}
	.st2{fill:none;}
	.st3{fill:#FFFFFF;}
	.st4{font-family:'HelveticaNeue-CondensedBold';}
	.st5{font-size:54px;}
	.st6{fill:#4FBDD7;stroke:#FFFFFF;stroke-width:5;stroke-miterlimit:10;}
	.st7{fill:#8C8C8C;}
	.st8{fill:#070707;}
	.st9{fill:none;stroke:#FFFFFF;stroke-width:7;stroke-miterlimit:10;}
	.st10{fill:none;stroke:#FFFFFF;stroke-width:10;stroke-miterlimit:10;}
	.st11{fill:#FFFFFF;stroke:#FFFFFF;stroke-width:3;stroke-miterlimit:10;}
	.st12{fill:none;stroke:#FDFFFF;stroke-width:6;stroke-miterlimit:10;}
	.st13{fill:#FAFEFF;}
	.st14{fill:none;stroke:#FFFFFF;stroke-width:2;stroke-miterlimit:10;}
	.st15{fill:#FFFFFF;stroke:#FFFFFF;stroke-width:2;stroke-miterlimit:10;}
	.st16{fill:#4FBDD7;stroke:#FFFFFF;stroke-width:4;stroke-miterlimit:10;}
	.st17{fill:#FFFFFF;stroke:#FFFFFF;stroke-width:4;stroke-miterlimit:10;}
	.st18{fill:none;stroke:#FFFFFF;stroke-miterlimit:10;}
	.st19{fill:#FFFFFF;stroke:#FFFFFF;stroke-width:13;stroke-miterlimit:10;}
	.st20{fill:#4FBDD7;stroke:#FFFFFF;stroke-width:8;stroke-miterlimit:10;}
	.st21{fill:#FFFFFF;stroke:#FFFFFF;stroke-width:0.75;stroke-miterlimit:10;}
	.st22{fill:#FFFFFF;stroke:#FFFFFF;stroke-width:0.5;stroke-miterlimit:10;}
	.st23{fill:#FFFFFF;stroke:#FFFFFF;stroke-width:8;stroke-miterlimit:10;}
	.st24{fill:#FFFFFF;stroke:#FFFFFF;stroke-miterlimit:10;}
	.st25{fill:#FFFFFF;stroke:#FFFFFF;stroke-width:11;stroke-miterlimit:10;}
	.st26{fill:#FFFFFF;stroke:#FFFFFF;stroke-width:6;stroke-miterlimit:10;}
	.st27{fill:#8C8C8C;stroke:#8C8C8C;stroke-width:4;stroke-miterlimit:10;}
	.st28{fill:#FFFFFF;stroke:#FFFFFF;stroke-width:1.05;stroke-miterlimit:10;}
	.st29{fill:none;stroke:#4FBDD7;stroke-width:5;stroke-miterlimit:10;}
	.st30{fill:none;stroke:#FFFFFF;stroke-width:4;stroke-miterlimit:10;}
	.st31{fill:#8C8C8C;stroke:#FFFFFF;stroke-width:4;stroke-miterlimit:10;}
	.st32{fill:#FFFFFF;stroke:#FFFFFF;stroke-width:10;stroke-miterlimit:10;}
	.st33{fill:none;stroke:#4FBDD7;stroke-width:2;stroke-miterlimit:10;}
	.st34{fill-rule:evenodd;clip-rule:evenodd;fill:#FFFFFF;}
	.st35{fill:#FFFFFF;stroke:#FFFFFF;stroke-width:7;stroke-miterlimit:10;}
	.st36{fill:#FFFFFF;stroke:#4FBDD7;stroke-width:7;stroke-miterlimit:10;}
	.st37{fill:#FCFCFC;}
	.st38{fill:#FFFFFF;stroke:#FFFFFF;stroke-width:5;stroke-miterlimit:10;}
	.st39{fill:none;stroke:#FFFFFF;stroke-width:3;stroke-miterlimit:10;}
	.st40{fill:none;stroke:#FFFFFF;stroke-width:8;stroke-miterlimit:10;}
	.st41{fill:none;stroke:#FFFFFF;stroke-width:6;stroke-miterlimit:10;}
	.st42{fill:#FFFFFF;stroke:#4FBDD7;stroke-width:3;stroke-miterlimit:10;}
	.st43{fill:none;stroke:#FFFFFF;stroke-width:0.75;stroke-miterlimit:10;}
	.st44{fill:#4FBDD7;stroke:#FFFFFF;stroke-width:9;stroke-miterlimit:10;}
	.st45{fill:none;stroke:#FFFFFF;stroke-width:9;stroke-miterlimit:10;}
	.st46{fill:none;stroke:#4FBDD7;stroke-width:3;stroke-miterlimit:10;}
</style>
<rect x="1" class="st0" width="500" height="500"/>
<g>
	<rect x="-4" y="363" class="st2" width="500" height="144"/>
	<text transform="matrix(1 0 0 1 107.1416 401.5557)"><tspan x="0" y="0" class="st3 st4 st5">Extensions &amp; </tspan><tspan x="61.4" y="64.8" class="st3 st4 st5">tissage</tspan></text>
</g>
<path class="st22" d="M238.7,67h-95.9c-1.5,0-2.7,1.8-2.7,4.1v36.6c0,2.3,1.2,4.1,2.7,4.1c1.8,0,3.7,0,5.5,0h2.7c1.8,0,3.7,0,5.5,0
	h2.7c1.8,0,3.7,0,5.5,0h2.7c1.8,0,3.7,0,5.5,0h2.7c1.8,0,3.7,0,5.5,0h2.7c1.8,0,3.7,0,5.5,0h2.7c1.8,0,3.7,0,5.5,0h2.7
	c1.8,0,3.7,0,5.5,0h2.7c1.8,0,3.7,0,5.5,0h2.7c1.8,0,3.7,0,5.5,0h2.7c1.8,0,3.7,0,5.5,0h2.7c1.8,0,3.7,0,5.5,0
	c1.5,0,2.7-1.8,2.7-4.1V71.1C241.4,68.8,240.2,67,238.7,67z M238.5,101.7h-94.7v-3.4h94.7V101.7z M145.9,93.7v-9.1h13.5v9.1H145.9z
	 M166.2,93.7v-9.1h20.3v9.1H166.2z M193.3,93.7v-9.1h16.9v9.1H193.3z M215.7,93.7v-9.1H236v9.1H215.7z M238.5,81.4h-94.7V78h94.7
	V81.4z"/>
<g id="Kb26js.tif">
	<g>
		<path class="st3" d="M187,175.7c-4.1,7.1-5.9,15.7-5,26.1c0.5,6.1,2.2,11.2,4.5,15.5c0.9,1.6,1.8,3.1,2.5,4.9
			c1.8,4.3,1.7,9.1,0,13.4c-0.6,1.6-1.4,3-2.2,4.3c-6.5,11.5-6.7,28.1-0.8,40.1c1.8,0,3.6,0,5.3,0c1.5,0,3.1,0,4.6,0
			c-0.5-1.9-1.3-5.1-2.6-8.8c-2-6.1-3.2-8-3.1-11.2c0.1-3.1,1.2-6.2,3.2-9.8c7.2-12.7,7.3-30.1,0.1-42.6c-4.4-7.7-4.4-13.3,0-21.2
			c7.2-12.9,7.2-29.8,0-42.7c-4.3-7.6-4.2-13-0.1-21c1.7-3.4,2.9-7.8,4.3-11.7h-10.1c-7.8,13.6-7.8,30.3-0.2,43.8
			C191.5,162.2,191.5,168.1,187,175.7z"/>
		<path class="st3" d="M219.1,175.8c-4,6.9-5.7,15.2-5,25.3c0.4,6.5,2.1,11.8,4.6,16.3c0.9,1.6,1.8,3.2,2.5,5c1.7,4.2,1.7,8.8,0,13
			c-0.6,1.6-1.4,3-2.2,4.4c-5.4,9.5-6.6,22.3-3.6,33.3c1.3-0.5,2.9-1.1,4.5-2c1.1-0.6,2.1-1.3,3-1.9c-0.7-3.3-0.7-6.1-0.6-8
			c0.1-1.6,0.2-4.8,1.9-8.4c0.6-1.3,1.3-2.4,2-3.6c6.3-11.3,6.3-29.5,0-40.7c-0.7-1.2-1.4-2.3-2-3.6c-2.5-5.2-2.5-10.5,0-15.7
			c0.6-1.3,1.3-2.4,1.9-3.6c6.5-11.5,6.5-29.4,0-41c-0.3-0.5-0.6-0.9-0.8-1.4c-3.9-7-3.8-12.6-0.1-19.7c1.3-2.5,2.5-5.3,3.7-8.1
			c0.5-1.2,0.6-2.8,0.9-4.2h-10.1c-7.8,14-7.8,30.1-0.1,44.2C223.6,162.4,223.5,168.2,219.1,175.8z"/>
		<path class="st3" d="M204.2,239.9c-6.3,11.2-6.7,27.5-1.1,39.4c1.8-0.2,3.5-0.4,5.3-0.7c1.5-0.2,3-0.4,4.5-0.6
			c-0.4-1.5-1.1-3.9-2.1-6.8c-2.3-7-3.3-8.4-3.2-11c0.1-3.3,1.2-6.5,3.3-10.2c2.9-4.9,4.7-10.7,5.1-18c0.5-9.2-1.1-17.1-4.6-23.5
			c-0.8-1.5-1.7-2.9-2.4-4.6c-1.9-4.5-1.9-9.6,0.1-14c0.7-1.6,1.6-3.1,2.4-4.6c6.1-11,6.2-28.5,0.3-39.8c-0.6-1.1-1.2-2.1-1.8-3.3
			c-3.2-6.1-3.2-11.7,0-17.9c1.3-2.6,2.6-5.2,3.8-8c0.6-1.5,0.8-3.5,1.2-5.3H205c-4.2,6.8-6.3,15.2-5.7,25.7
			c0.4,6.9,2.1,12.3,4.7,17c0.9,1.6,1.8,3.2,2.5,5c1.7,4.1,1.6,8.9-0.1,13c-0.7,1.7-1.5,3.2-2.4,4.6c-6.6,11.7-6.6,29.5,0,41.2
			c0.6,1.1,1.2,2.1,1.8,3.3c2.5,5.3,2.5,10.7-0.1,16C205.4,238,204.8,238.9,204.2,239.9z"/>
		<path class="st3" d="M171,240.3c-6.1,10.8-6.4,27.4-0.9,38.9c1.8,0,3.7,0.1,5.7,0.2c1.9,0.1,3.6,0.3,5.3,0.6
			c-0.6-1.8-1.7-4.8-3-8.5c-2.5-7.1-3.4-8.8-3.3-11.4c0.1-3.2,1.2-6.4,3.4-10.2c7-12.3,7-30-0.1-42.4c-4.3-7.5-4.4-13.3-0.2-20.9
			c7.4-13.5,7.4-30,0-43.2c-4-7.2-3.9-12.8-0.1-20.4c1.8-3.5,3-8,4.4-12H172c-8.4,13.1-6.9,33.9-0.1,44.3c4.3,6.6,3.9,12.9-0.4,20.5
			c-4,6.9-5.7,15.2-5,25.3c0.4,6.3,2,11.5,4.5,16c0.6,1.1,1.2,2.1,1.8,3.3c2.8,5.8,2.8,11.3,0,17C172.1,238.4,171.5,239.3,171,240.3
			z"/>
		<path class="st3" d="M154.4,176.6c-6.3,11.3-6.3,29.4,0,40.7c0.2,0.4,0.5,0.7,0.7,1.1c4.2,7.3,4.3,13.3,0.1,20.6
			c-3.1,5.4-5.1,11.5-5.4,19.5c-0.3,7.6,0.8,14.2,3.4,19.8c1.7,0,3.6,0,5.6,0.1c1.9,0.1,3.7,0.3,5.3,0.5c0-0.7-0.1-1.7-0.4-3
			c-0.7-3.2-2.1-4.5-3.3-7c-2.9-5.8-2.8-11.1,0-16.9c0.5-0.9,1-1.8,1.5-2.7c6.6-11.5,6.6-29.6,0-41.3c-0.4-0.8-0.9-1.6-1.3-2.4
			c-3.1-6.3-3.2-11.8,0.1-17.8c2.5-4.7,4.9-9.4,5.7-16.1c1.2-10.2-0.1-19.2-4.1-26.7c-0.7-1.3-1.5-2.5-2.1-3.9
			c-2.6-5.5-2.6-10.9,0.1-16.3c1.5-3.2,3.1-6.3,4.5-9.7c0.5-1.1,0.6-2.8,0.9-4.2h-10.1c-8.2,12.9-6.7,31.7-1.9,40.9
			c1,1.8,2,3.5,2.9,5.4c2.4,5.2,2.4,10.5-0.1,15.7C155.8,174.3,155.1,175.5,154.4,176.6z"/>
	</g>
</g>
<g id="Kb26js.tif_1_">
	<g>
		<path class="st3" d="M187,241.7c-4.1,7.1-5.9,15.7-5,26.1c0.5,6.1,2.2,11.2,4.5,15.5c0.9,1.6,1.8,3.1,2.5,4.9
			c1.8,4.3,1.7,9.1,0,13.4c-0.6,1.6-1.4,3-2.2,4.3c-5.4,9.5-6.5,22.5-3.3,33.6c3.6-0.1,7.2-0.4,10.8-0.4c-0.3-0.7-0.6-1.3-0.9-1.9
			c-4.1-8-4.2-13.5,0.1-21c7.2-12.7,7.3-30.1,0.1-42.6c-4.4-7.7-4.4-13.3,0-21.2c7.2-12.9,7.2-29.8,0-42.7c-4.3-7.6-4.2-13-0.1-21
			c1.7-3.4,2.9-7.8,4.3-11.7h-10.1c-7.8,13.6-7.8,30.3-0.2,43.8C191.5,228.2,191.5,234.1,187,241.7z"/>
		<path class="st3" d="M219.1,241.8c-4,6.9-5.7,15.2-5,25.3c0.4,6.5,2.1,11.8,4.6,16.3c0.9,1.6,1.8,3.2,2.5,5c1.7,4.2,1.7,8.8,0,13
			c-0.6,1.6-1.4,3-2.2,4.4c-5.4,9.5-6.6,22.3-3.6,33.3c3-1.3,6-2.8,9-4c-0.1-0.1-0.1-0.2-0.2-0.3c-2.6-5.3-2.6-10.6,0-16
			c0.6-1.3,1.3-2.4,2-3.6c6.3-11.3,6.3-29.5,0-40.7c-0.7-1.2-1.4-2.3-2-3.6c-2.5-5.2-2.5-10.5,0-15.7c0.6-1.3,1.3-2.4,1.9-3.6
			c6.5-11.5,6.5-29.4,0-41c-0.3-0.5-0.6-0.9-0.8-1.4c-3.9-7-3.8-12.6-0.1-19.7c1.3-2.5,2.5-5.3,3.7-8.1c0.5-1.2,0.6-2.8,0.9-4.2
			h-10.1c-7.8,14-7.8,30.1-0.1,44.2C223.6,228.4,223.5,234.2,219.1,241.8z"/>
		<path class="st3" d="M204.1,242.3c-6.6,11.7-6.6,29.5,0,41.2c0.6,1.1,1.2,2.1,1.8,3.3c2.5,5.3,2.5,10.7-0.1,16
			c-0.5,1.1-1.1,2-1.6,3c-5.4,9.4-6.4,22.5-3.3,33.5c3.9,0.4,7.8,0.9,11.7,1.1c-0.6-1.1-1.2-2.2-1.8-3.2c-4.3-8-4.3-13.6,0.1-21.2
			c2.9-4.9,4.7-10.7,5.1-18c0.5-9.2-1.1-17.1-4.6-23.5c-0.8-1.5-1.7-2.9-2.4-4.6c-1.9-4.5-1.9-9.6,0.1-14c0.7-1.6,1.6-3.1,2.4-4.6
			c6.1-11,6.2-28.5,0.3-39.8c-0.6-1.1-1.2-2.1-1.8-3.3c-3.2-6.1-3.2-11.7,0-17.9c1.3-2.6,2.6-5.2,3.8-8c0.6-1.5,0.8-3.5,1.2-5.3H205
			c-4.2,6.8-6.3,15.2-5.7,25.7c0.4,6.9,2.1,12.3,4.7,17c0.9,1.6,1.8,3.2,2.5,5c1.7,4.1,1.6,8.9-0.1,13
			C205.8,239.4,205,240.9,204.1,242.3z"/>
		<path class="st3" d="M171,306.3c-5.2,9.3-6.2,22.9-2.9,33.8c3.7-0.1,7.4-0.4,10.9-0.5c-0.3-0.7-0.7-1.4-1-2.1
			c-4.4-8.3-4.4-13.7,0.1-21.6c7-12.3,7-30-0.1-42.4c-4.3-7.5-4.4-13.3-0.2-20.9c7.4-13.5,7.4-30,0-43.2c-4-7.2-3.9-12.8-0.1-20.4
			c1.8-3.5,3-8,4.4-12H172c-8.4,13.1-6.9,33.9-0.1,44.3c4.3,6.6,3.9,12.9-0.4,20.5c-4,6.9-5.7,15.2-5,25.3c0.4,6.3,2,11.5,4.5,16
			c0.6,1.1,1.2,2.1,1.8,3.3c2.8,5.8,2.8,11.3,0,17C172.1,304.4,171.5,305.3,171,306.3z"/>
		<path class="st3" d="M154.4,242.6c-6.3,11.3-6.3,29.4,0,40.7c0.2,0.4,0.5,0.7,0.7,1.1c4.2,7.3,4.3,13.3,0.1,20.6
			c-3.1,5.4-5.1,11.5-5.4,19.5c-0.2,5,0.2,9.6,1.3,13.7c0.1,0,0.3,0.1,0.4,0.1c3.6,1.2,7.6,1.6,11.6,1.7c-0.7-1.8-1.9-3.3-2.7-5.1
			c-2.9-5.8-2.8-11.1,0-16.9c0.5-0.9,1-1.8,1.5-2.7c6.6-11.5,6.6-29.6,0-41.3c-0.4-0.8-0.9-1.6-1.3-2.4c-3.1-6.3-3.2-11.8,0.1-17.8
			c2.5-4.7,4.9-9.4,5.7-16.1c1.2-10.2-0.1-19.2-4.1-26.7c-0.7-1.3-1.5-2.5-2.1-3.9c-2.6-5.5-2.6-10.9,0.1-16.3
			c1.5-3.2,3.1-6.3,4.5-9.7c0.5-1.1,0.6-2.8,0.9-4.2h-10.1c-8.2,12.9-6.7,31.7-1.9,40.9c1,1.8,2,3.5,2.9,5.4
			c2.4,5.2,2.4,10.5-0.1,15.7C155.8,240.3,155.1,241.5,154.4,242.6z"/>
	</g>
</g>
<path class="st22" d="M360.7,67h-95.9c-1.5,0-2.7,1.8-2.7,4.1v36.6c0,2.3,1.2,4.1,2.7,4.1c1.8,0,3.7,0,5.5,0h2.7c1.8,0,3.7,0,5.5,0
	h2.7c1.8,0,3.7,0,5.5,0h2.7c1.8,0,3.7,0,5.5,0h2.7c1.8,0,3.7,0,5.5,0h2.7c1.8,0,3.7,0,5.5,0h2.7c1.8,0,3.7,0,5.5,0h2.7
	c1.8,0,3.7,0,5.5,0h2.7c1.8,0,3.7,0,5.5,0h2.7c1.8,0,3.7,0,5.5,0h2.7c1.8,0,3.7,0,5.5,0h2.7c1.8,0,3.7,0,5.5,0
	c1.5,0,2.7-1.8,2.7-4.1V71.1C363.4,68.8,362.2,67,360.7,67z M360.5,101.7h-94.7v-3.4h94.7V101.7z M267.9,93.7v-9.1h13.5v9.1H267.9z
	 M288.2,93.7v-9.1h20.3v9.1H288.2z M315.3,93.7v-9.1h16.9v9.1H315.3z M337.7,93.7v-9.1H358v9.1H337.7z M360.5,81.4h-94.7V78h94.7
	V81.4z"/>
<g id="Kb26js.tif_3_">
	<g>
		<path class="st3" d="M309,175.7c-4.1,7.1-5.9,15.7-5,26.1c0.5,6.1,2.2,11.2,4.5,15.5c0.9,1.6,1.8,3.1,2.5,4.9
			c1.8,4.3,1.7,9.1,0,13.4c-0.6,1.6-1.4,3-2.2,4.3c-6.5,11.5-6.7,28.1-0.8,40.1c1.8,0,3.6,0,5.3,0c1.5,0,3.1,0,4.6,0
			c-0.5-1.9-1.3-5.1-2.6-8.8c-2-6.1-3.2-8-3.1-11.2c0.1-3.1,1.2-6.2,3.2-9.8c7.2-12.7,7.3-30.1,0.1-42.6c-4.4-7.7-4.4-13.3,0-21.2
			c7.2-12.9,7.2-29.8,0-42.7c-4.3-7.6-4.2-13-0.1-21c1.7-3.4,2.9-7.8,4.3-11.7h-10.1c-7.8,13.6-7.8,30.3-0.2,43.8
			C313.5,162.2,313.5,168.1,309,175.7z"/>
		<path class="st3" d="M341.1,175.8c-4,6.9-5.7,15.2-5,25.3c0.4,6.5,2.1,11.8,4.6,16.3c0.9,1.6,1.8,3.2,2.5,5c1.7,4.2,1.7,8.8,0,13
			c-0.6,1.6-1.4,3-2.2,4.4c-5.4,9.5-6.6,22.3-3.6,33.3c1.3-0.5,2.9-1.1,4.5-2c1.1-0.6,2.1-1.3,3-1.9c-0.7-3.3-0.7-6.1-0.6-8
			c0.1-1.6,0.2-4.8,1.9-8.4c0.6-1.3,1.3-2.4,2-3.6c6.3-11.3,6.3-29.5,0-40.7c-0.7-1.2-1.4-2.3-2-3.6c-2.5-5.2-2.5-10.5,0-15.7
			c0.6-1.3,1.3-2.4,1.9-3.6c6.5-11.5,6.5-29.4,0-41c-0.3-0.5-0.6-0.9-0.8-1.4c-3.9-7-3.8-12.6-0.1-19.7c1.3-2.5,2.5-5.3,3.7-8.1
			c0.5-1.2,0.6-2.8,0.9-4.2h-10.1c-7.8,14-7.8,30.1-0.1,44.2C345.6,162.4,345.5,168.2,341.1,175.8z"/>
		<path class="st3" d="M326.2,239.9c-6.3,11.2-6.7,27.5-1.1,39.4c1.8-0.2,3.5-0.4,5.3-0.7c1.5-0.2,3-0.4,4.5-0.6
			c-0.4-1.5-1.1-3.9-2.1-6.8c-2.3-7-3.3-8.4-3.2-11c0.1-3.3,1.2-6.5,3.3-10.2c2.9-4.9,4.7-10.7,5.1-18c0.5-9.2-1.1-17.1-4.6-23.5
			c-0.8-1.5-1.7-2.9-2.4-4.6c-1.9-4.5-1.9-9.6,0.1-14c0.7-1.6,1.6-3.1,2.4-4.6c6.1-11,6.2-28.5,0.3-39.8c-0.6-1.1-1.2-2.1-1.8-3.3
			c-3.2-6.1-3.2-11.7,0-17.9c1.3-2.6,2.6-5.2,3.8-8c0.6-1.5,0.8-3.5,1.2-5.3H327c-4.2,6.8-6.3,15.2-5.7,25.7
			c0.4,6.9,2.1,12.3,4.7,17c0.9,1.6,1.8,3.2,2.5,5c1.7,4.1,1.6,8.9-0.1,13c-0.7,1.7-1.5,3.2-2.4,4.6c-6.6,11.7-6.6,29.5,0,41.2
			c0.6,1.1,1.2,2.1,1.8,3.3c2.5,5.3,2.5,10.7-0.1,16C327.4,238,326.8,238.9,326.2,239.9z"/>
		<path class="st3" d="M293,240.3c-6.1,10.8-6.4,27.4-0.9,38.9c1.8,0,3.7,0.1,5.7,0.2c1.9,0.1,3.6,0.3,5.3,0.6
			c-0.6-1.8-1.7-4.8-3-8.5c-2.5-7.1-3.4-8.8-3.3-11.4c0.1-3.2,1.2-6.4,3.4-10.2c7-12.3,7-30-0.1-42.4c-4.3-7.5-4.4-13.3-0.2-20.9
			c7.4-13.5,7.4-30,0-43.2c-4-7.2-3.9-12.8-0.1-20.4c1.8-3.5,3-8,4.4-12H294c-8.4,13.1-6.9,33.9-0.1,44.3c4.3,6.6,3.9,12.9-0.4,20.5
			c-4,6.9-5.7,15.2-5,25.3c0.4,6.3,2,11.5,4.5,16c0.6,1.1,1.2,2.1,1.8,3.3c2.8,5.8,2.8,11.3,0,17C294.1,238.4,293.5,239.3,293,240.3
			z"/>
		<path class="st3" d="M276.4,176.6c-6.3,11.3-6.3,29.4,0,40.7c0.2,0.4,0.5,0.7,0.7,1.1c4.2,7.3,4.3,13.3,0.1,20.6
			c-3.1,5.4-5.1,11.5-5.4,19.5c-0.3,7.6,0.8,14.2,3.4,19.8c1.7,0,3.6,0,5.6,0.1c1.9,0.1,3.7,0.3,5.3,0.5c0-0.7-0.1-1.7-0.4-3
			c-0.7-3.2-2.1-4.5-3.3-7c-2.9-5.8-2.8-11.1,0-16.9c0.5-0.9,1-1.8,1.5-2.7c6.6-11.5,6.6-29.6,0-41.3c-0.4-0.8-0.9-1.6-1.3-2.4
			c-3.1-6.3-3.2-11.8,0.1-17.8c2.5-4.7,4.9-9.4,5.7-16.1c1.2-10.2-0.1-19.2-4.1-26.7c-0.7-1.3-1.5-2.5-2.1-3.9
			c-2.6-5.5-2.6-10.9,0.1-16.3c1.5-3.2,3.1-6.3,4.5-9.7c0.5-1.1,0.6-2.8,0.9-4.2h-10.1c-8.2,12.9-6.7,31.7-1.9,40.9
			c1,1.8,2,3.5,2.9,5.4c2.4,5.2,2.4,10.5-0.1,15.7C277.8,174.3,277.1,175.5,276.4,176.6z"/>
	</g>
</g>
<g id="Kb26js.tif_2_">
	<g>
		<path class="st3" d="M309,241.7c-4.1,7.1-5.9,15.7-5,26.1c0.5,6.1,2.2,11.2,4.5,15.5c0.9,1.6,1.8,3.1,2.5,4.9
			c1.8,4.3,1.7,9.1,0,13.4c-0.6,1.6-1.4,3-2.2,4.3c-5.4,9.5-6.5,22.5-3.3,33.6c3.6-0.1,7.2-0.4,10.8-0.4c-0.3-0.7-0.6-1.3-0.9-1.9
			c-4.1-8-4.2-13.5,0.1-21c7.2-12.7,7.3-30.1,0.1-42.6c-4.4-7.7-4.4-13.3,0-21.2c7.2-12.9,7.2-29.8,0-42.7c-4.3-7.6-4.2-13-0.1-21
			c1.7-3.4,2.9-7.8,4.3-11.7h-10.1c-7.8,13.6-7.8,30.3-0.2,43.8C313.5,228.2,313.5,234.1,309,241.7z"/>
		<path class="st3" d="M341.1,241.8c-4,6.9-5.7,15.2-5,25.3c0.4,6.5,2.1,11.8,4.6,16.3c0.9,1.6,1.8,3.2,2.5,5c1.7,4.2,1.7,8.8,0,13
			c-0.6,1.6-1.4,3-2.2,4.4c-5.4,9.5-6.6,22.3-3.6,33.3c3-1.3,6-2.8,9-4c-0.1-0.1-0.1-0.2-0.2-0.3c-2.6-5.3-2.6-10.6,0-16
			c0.6-1.3,1.3-2.4,2-3.6c6.3-11.3,6.3-29.5,0-40.7c-0.7-1.2-1.4-2.3-2-3.6c-2.5-5.2-2.5-10.5,0-15.7c0.6-1.3,1.3-2.4,1.9-3.6
			c6.5-11.5,6.5-29.4,0-41c-0.3-0.5-0.6-0.9-0.8-1.4c-3.9-7-3.8-12.6-0.1-19.7c1.3-2.5,2.5-5.3,3.7-8.1c0.5-1.2,0.6-2.8,0.9-4.2
			h-10.1c-7.8,14-7.8,30.1-0.1,44.2C345.6,228.4,345.5,234.2,341.1,241.8z"/>
		<path class="st3" d="M326.1,242.3c-6.6,11.7-6.6,29.5,0,41.2c0.6,1.1,1.2,2.1,1.8,3.3c2.5,5.3,2.5,10.7-0.1,16
			c-0.5,1.1-1.1,2-1.6,3c-5.4,9.4-6.4,22.5-3.3,33.5c3.9,0.4,7.8,0.9,11.7,1.1c-0.6-1.1-1.2-2.2-1.8-3.2c-4.3-8-4.3-13.6,0.1-21.2
			c2.9-4.9,4.7-10.7,5.1-18c0.5-9.2-1.1-17.1-4.6-23.5c-0.8-1.5-1.7-2.9-2.4-4.6c-1.9-4.5-1.9-9.6,0.1-14c0.7-1.6,1.6-3.1,2.4-4.6
			c6.1-11,6.2-28.5,0.3-39.8c-0.6-1.1-1.2-2.1-1.8-3.3c-3.2-6.1-3.2-11.7,0-17.9c1.3-2.6,2.6-5.2,3.8-8c0.6-1.5,0.8-3.5,1.2-5.3H327
			c-4.2,6.8-6.3,15.2-5.7,25.7c0.4,6.9,2.1,12.3,4.7,17c0.9,1.6,1.8,3.2,2.5,5c1.7,4.1,1.6,8.9-0.1,13
			C327.8,239.4,327,240.9,326.1,242.3z"/>
		<path class="st3" d="M293,306.3c-5.2,9.3-6.2,22.9-2.9,33.8c3.7-0.1,7.4-0.4,10.9-0.5c-0.3-0.7-0.7-1.4-1-2.1
			c-4.4-8.3-4.4-13.7,0.1-21.6c7-12.3,7-30-0.1-42.4c-4.3-7.5-4.4-13.3-0.2-20.9c7.4-13.5,7.4-30,0-43.2c-4-7.2-3.9-12.8-0.1-20.4
			c1.8-3.5,3-8,4.4-12H294c-8.4,13.1-6.9,33.9-0.1,44.3c4.3,6.6,3.9,12.9-0.4,20.5c-4,6.9-5.7,15.2-5,25.3c0.4,6.3,2,11.5,4.5,16
			c0.6,1.1,1.2,2.1,1.8,3.3c2.8,5.8,2.8,11.3,0,17C294.1,304.4,293.5,305.3,293,306.3z"/>
		<path class="st3" d="M276.4,242.6c-6.3,11.3-6.3,29.4,0,40.7c0.2,0.4,0.5,0.7,0.7,1.1c4.2,7.3,4.3,13.3,0.1,20.6
			c-3.1,5.4-5.1,11.5-5.4,19.5c-0.2,5,0.2,9.6,1.3,13.7c0.1,0,0.3,0.1,0.4,0.1c3.6,1.2,7.6,1.6,11.6,1.7c-0.7-1.8-1.9-3.3-2.7-5.1
			c-2.9-5.8-2.8-11.1,0-16.9c0.5-0.9,1-1.8,1.5-2.7c6.6-11.5,6.6-29.6,0-41.3c-0.4-0.8-0.9-1.6-1.3-2.4c-3.1-6.3-3.2-11.8,0.1-17.8
			c2.5-4.7,4.9-9.4,5.7-16.1c1.2-10.2-0.1-19.2-4.1-26.7c-0.7-1.3-1.5-2.5-2.1-3.9c-2.6-5.5-2.6-10.9,0.1-16.3
			c1.5-3.2,3.1-6.3,4.5-9.7c0.5-1.1,0.6-2.8,0.9-4.2h-10.1c-8.2,12.9-6.7,31.7-1.9,40.9c1,1.8,2,3.5,2.9,5.4
			c2.4,5.2,2.4,10.5-0.1,15.7C277.8,240.3,277.1,241.5,276.4,242.6z"/>
	</g>
</g>
</svg>
