<?xml version="1.0" encoding="utf-8"?>
<!-- Generator: Adobe Illustrator 22.1.0, SVG Export Plug-In . SVG Version: 6.00 Build 0)  -->
<svg version="1.1" id="Calque_1" xmlns="http://www.w3.org/2000/svg" xmlns:xlink="http://www.w3.org/1999/xlink" x="0px" y="0px"
	 viewBox="0 0 500 500" style="enable-background:new 0 0 500 500;" xml:space="preserve">
<style type="text/css">
	.st0{fill:#4FBDD7;}
	.st1{fill:#EAEAEA;}
	.st2{fill:#FFFFFF;}
	.st3{fill:#4FBDD7;stroke:#FFFFFF;stroke-width:5;stroke-miterlimit:10;}
	.st4{fill:#8C8C8C;}
	.st5{fill:#070707;}
	.st6{fill:none;stroke:#FFFFFF;stroke-width:7;stroke-miterlimit:10;}
	.st7{fill:none;stroke:#FFFFFF;stroke-width:10;stroke-miterlimit:10;}
	.st8{fill:#FFFFFF;stroke:#FFFFFF;stroke-width:3;stroke-miterlimit:10;}
	.st9{fill:none;stroke:#FDFFFF;stroke-width:6;stroke-miterlimit:10;}
	.st10{fill:#FAFEFF;}
	.st11{fill:none;stroke:#FFFFFF;stroke-width:2;stroke-miterlimit:10;}
	.st12{fill:#FFFFFF;stroke:#FFFFFF;stroke-width:2;stroke-miterlimit:10;}
	.st13{fill:#4FBDD7;stroke:#FFFFFF;stroke-width:4;stroke-miterlimit:10;}
	.st14{fill:#FFFFFF;stroke:#FFFFFF;stroke-width:4;stroke-miterlimit:10;}
	.st15{fill:none;stroke:#FFFFFF;stroke-miterlimit:10;}
	.st16{fill:#FFFFFF;stroke:#FFFFFF;stroke-width:13;stroke-miterlimit:10;}
	.st17{fill:#4FBDD7;stroke:#FFFFFF;stroke-width:8;stroke-miterlimit:10;}
	.st18{fill:#FFFFFF;stroke:#FFFFFF;stroke-width:0.75;stroke-miterlimit:10;}
	.st19{fill:#FFFFFF;stroke:#FFFFFF;stroke-width:0.5;stroke-miterlimit:10;}
	.st20{fill:none;}
	.st21{font-family:'HelveticaNeue-CondensedBold';}
	.st22{font-size:54px;}
	.st23{fill:#FFFFFF;stroke:#FFFFFF;stroke-width:8;stroke-miterlimit:10;}
	.st24{fill:#FFFFFF;stroke:#FFFFFF;stroke-miterlimit:10;}
	.st25{fill:#FFFFFF;stroke:#FFFFFF;stroke-width:11;stroke-miterlimit:10;}
	.st26{fill:#FFFFFF;stroke:#FFFFFF;stroke-width:6;stroke-miterlimit:10;}
	.st27{fill:#8C8C8C;stroke:#8C8C8C;stroke-width:4;stroke-miterlimit:10;}
	.st28{fill:#FFFFFF;stroke:#FFFFFF;stroke-width:1.05;stroke-miterlimit:10;}
	.st29{fill:none;stroke:#4FBDD7;stroke-width:5;stroke-miterlimit:10;}
	.st30{fill:none;stroke:#FFFFFF;stroke-width:4;stroke-miterlimit:10;}
	.st31{fill:#8C8C8C;stroke:#FFFFFF;stroke-width:4;stroke-miterlimit:10;}
	.st32{fill:#FFFFFF;stroke:#FFFFFF;stroke-width:10;stroke-miterlimit:10;}
	.st33{fill:none;stroke:#4FBDD7;stroke-width:2;stroke-miterlimit:10;}
	.st34{fill-rule:evenodd;clip-rule:evenodd;fill:#FFFFFF;}
	.st35{fill:#FFFFFF;stroke:#FFFFFF;stroke-width:7;stroke-miterlimit:10;}
	.st36{fill:#FFFFFF;stroke:#4FBDD7;stroke-width:7;stroke-miterlimit:10;}
	.st37{fill:#FCFCFC;}
	.st38{fill:#FFFFFF;stroke:#FFFFFF;stroke-width:5;stroke-miterlimit:10;}
	.st39{fill:none;stroke:#FFFFFF;stroke-width:3;stroke-miterlimit:10;}
	.st40{fill:none;stroke:#FFFFFF;stroke-width:8;stroke-miterlimit:10;}
	.st41{fill:none;stroke:#FFFFFF;stroke-width:6;stroke-miterlimit:10;}
	.st42{fill:#FFFFFF;stroke:#4FBDD7;stroke-width:3;stroke-miterlimit:10;}
	.st43{fill:none;stroke:#FFFFFF;stroke-width:0.75;stroke-miterlimit:10;}
	.st44{fill:#4FBDD7;stroke:#FFFFFF;stroke-width:9;stroke-miterlimit:10;}
	.st45{fill:none;stroke:#FFFFFF;stroke-width:9;stroke-miterlimit:10;}
	.st46{fill:none;stroke:#4FBDD7;stroke-width:3;stroke-miterlimit:10;}
</style>
<rect x="-7" y="-6" class="st0" width="512" height="507"/>
<g>
	<path class="st2" d="M402,222.5l-31.1-72.8l9.5-9.5c2-2,2-5.3,0-7.4c-2-2-5.3-2-7.4,0l-6.5,6.5l-1.7-3.9
		c-3.4-8.1-11.3-13.3-20.1-13.3h-73.9c-41.1,0-79.8,18.1-106,49.7c-13.7,16.5-27.4,33-41.2,49.4l-2.1-2.1c-1.4-1.4-3.6-1.4-4.9,0
		c-1.4,1.4-1.4,3.6,0,4.9l2.5,2.5l-24.9,29.9c-1.3,1.6-1.6,3.7-0.7,5.5c0.9,1.8,2.7,3,4.7,3h5.6v4.9h-5.6c-2.9,0-5.2,2.3-5.2,5.2
		c0,2.9,2.3,5.2,5.2,5.2h229.7c2.9,0,5.2-2.3,5.2-5.2c0-2.9-2.3-5.2-5.2-5.2h-9.7v-9.7c25.8-4,51.1-10.5,75.8-19.4
		c2.1-0.8,6.1-3.1,8-7.5C403.8,229.2,402.8,224.9,402,222.5z M164.1,188.9c10.7-1.8,20.9-6.7,28.9-14.1
		c21.3-19.4,48.9-30.1,77.7-30.1h58.9c4.5,0,8.7-2.2,11.2-6c1.3-1.9,2-4,2.2-6.2h0.1c12.5,27.7,22.2,54.6,26.2,72.6
		c1.4,6.1-2.1,12.3-8.1,14.3c-80.1,27.1-206.2,23.5-240.8,21.8L164.1,188.9L164.1,188.9z M172.7,178.5c24.3-29.2,60-46,98-46h65.4
		c-0.2,0.8-0.5,1.6-1,2.3c-1.2,1.9-3.2,2.9-5.5,2.9h-58.9c-30.6,0-59.9,11.3-82.4,31.9c-4.8,4.4-10.5,7.8-16.6,10L172.7,178.5
		L172.7,178.5z M311.3,270H110.7v-4.9h144.5c18.8,0,37.5-1.3,56-3.8V270z M392.4,229.2c-0.4,0.9-1.1,1.5-2,1.8
		c-43.5,15.7-89,23.7-135.2,23.7H109.3l5.7-6.8c8.4,0.5,29.5,1.4,57,1.4c9.2,0,19.1-0.1,29.4-0.4c46.7-1.3,112.8-6.3,162.2-23
		c9.3-3.2,14.8-12.8,12.6-22.4c-3.8-17.2-12.7-42.2-24.2-68.4c1.4,1.1,2.5,2.6,3.2,4.3l37.2,87C392.8,227.4,392.8,228.4,392.4,229.2
		L392.4,229.2z"/>
	<path class="st2" d="M239.4,193.7h60.9c12,0,21.7-9.7,21.7-21.7c0-6.1-2.6-12-7.1-16.1c-4.5-4.1-10.6-6.1-16.7-5.5l-60.7,6
		c-9.6,1-16.8,8.9-16.8,18.6C220.7,185.3,229.1,193.7,239.4,193.7z M282.1,183.3h-32.3v-0.8c0-0.9,0.7-1.6,1.6-1.6h29.2
		c0.9,0,1.6,0.7,1.6,1.6V183.3z M238.6,166.8l60.7-6c3.2-0.3,6.3,0.7,8.7,2.9c2.4,2.2,3.7,5.1,3.7,8.4c0,6.2-5.1,11.3-11.3,11.3
		h-11.3v-0.8c0-4.7-3.8-8.5-8.5-8.5h-29.2c-4.7,0-8.5,3.8-8.5,8.5v0.8h-3.5c-4.6,0-8.3-3.7-8.3-8.3
		C231.1,170.7,234.3,167.2,238.6,166.8z"/>
	<path class="st2" d="M225.2,205.2c-6.7,0-12.1,5.4-12.1,12.1s5.4,12.1,12.1,12.1c6.7,0,12.1-5.4,12.1-12.1S231.9,205.2,225.2,205.2
		z M225.2,222.6c-2.9,0-5.2-2.3-5.2-5.2s2.3-5.2,5.2-5.2s5.2,2.3,5.2,5.2S228.1,222.6,225.2,222.6z"/>
	<path class="st2" d="M203.7,205.2c-6.7,0-12.1,5.4-12.1,12.1s5.4,12.1,12.1,12.1s12.1-5.4,12.1-12.1S210.4,205.2,203.7,205.2z
		 M203.7,222.6c-2.9,0-5.2-2.3-5.2-5.2s2.3-5.2,5.2-5.2s5.2,2.3,5.2,5.2S206.5,222.6,203.7,222.6z"/>
</g>
<g>
	<rect x="-1" y="366" class="st20" width="501" height="144"/>
	<text transform="matrix(1 0 0 1 96.1157 404.5557)" class="st2 st21 st22">Fer à repasser</text>
</g>
</svg>
