<?xml version="1.0" encoding="utf-8"?>
<!-- Generator: Adobe Illustrator 22.1.0, SVG Export Plug-In . SVG Version: 6.00 Build 0)  -->
<svg version="1.1" id="Calque_1" xmlns="http://www.w3.org/2000/svg" x="0px" y="0px"
     viewBox="0 0 500 500" style="enable-background:new 0 0 500 500;" xml:space="preserve">
<style type="text/css">
	.st0{fill:none;}
	.st1{fill:#4FBDD7;}
	.st2{fill:#FFFFFF;}
	.st3{font-family:'HelveticaNeue-CondensedBold';}
	.st4{font-size:54px;}
	.st5{fill:#EAEAEA;}
	.st6{fill:#4FBDD7;stroke:#FFFFFF;stroke-width:5;stroke-miterlimit:10;}
	.st7{fill:#8C8C8C;}
	.st8{fill:#070707;}
	.st9{fill:none;stroke:#FFFFFF;stroke-width:7;stroke-miterlimit:10;}
	.st10{fill:none;stroke:#FFFFFF;stroke-width:10;stroke-miterlimit:10;}
	.st11{fill:#FFFFFF;stroke:#FFFFFF;stroke-width:3;stroke-miterlimit:10;}
	.st12{fill:none;stroke:#FDFFFF;stroke-width:6;stroke-miterlimit:10;}
	.st13{fill:#FAFEFF;}
	.st14{fill:none;stroke:#FFFFFF;stroke-width:2;stroke-miterlimit:10;}
	.st15{fill:#FFFFFF;stroke:#FFFFFF;stroke-width:2;stroke-miterlimit:10;}
	.st16{fill:#4FBDD7;stroke:#FFFFFF;stroke-width:4;stroke-miterlimit:10;}
	.st17{fill:#FFFFFF;stroke:#FFFFFF;stroke-width:4;stroke-miterlimit:10;}
	.st18{fill:none;stroke:#FFFFFF;stroke-miterlimit:10;}
	.st19{fill:#FFFFFF;stroke:#FFFFFF;stroke-width:13;stroke-miterlimit:10;}
	.st20{fill:#4FBDD7;stroke:#FFFFFF;stroke-width:8;stroke-miterlimit:10;}
	.st21{fill:#FFFFFF;stroke:#FFFFFF;stroke-width:0.75;stroke-miterlimit:10;}
	.st22{fill:#FFFFFF;stroke:#FFFFFF;stroke-width:0.5;stroke-miterlimit:10;}
	.st23{fill:#FFFFFF;stroke:#FFFFFF;stroke-width:8;stroke-miterlimit:10;}
	.st24{fill:#FFFFFF;stroke:#FFFFFF;stroke-miterlimit:10;}
	.st25{fill:#FFFFFF;stroke:#FFFFFF;stroke-width:11;stroke-miterlimit:10;}
	.st26{fill:#FFFFFF;stroke:#FFFFFF;stroke-width:6;stroke-miterlimit:10;}
	.st27{fill:#8C8C8C;stroke:#8C8C8C;stroke-width:4;stroke-miterlimit:10;}
	.st28{fill:#FFFFFF;stroke:#FFFFFF;stroke-width:1.05;stroke-miterlimit:10;}
	.st29{fill:none;stroke:#4FBDD7;stroke-width:5;stroke-miterlimit:10;}
	.st30{fill:none;stroke:#FFFFFF;stroke-width:4;stroke-miterlimit:10;}
	.st31{fill:#8C8C8C;stroke:#FFFFFF;stroke-width:4;stroke-miterlimit:10;}
	.st32{fill:#FFFFFF;stroke:#FFFFFF;stroke-width:10;stroke-miterlimit:10;}
	.st33{fill:none;stroke:#4FBDD7;stroke-width:2;stroke-miterlimit:10;}
	.st34{fill-rule:evenodd;clip-rule:evenodd;fill:#FFFFFF;}
	.st35{fill:#FFFFFF;stroke:#FFFFFF;stroke-width:7;stroke-miterlimit:10;}
	.st36{fill:#FFFFFF;stroke:#4FBDD7;stroke-width:7;stroke-miterlimit:10;}
	.st37{fill:#FCFCFC;}
	.st38{fill:#FFFFFF;stroke:#FFFFFF;stroke-width:5;stroke-miterlimit:10;}
	.st39{fill:none;stroke:#FFFFFF;stroke-width:3;stroke-miterlimit:10;}
	.st40{fill:none;stroke:#FFFFFF;stroke-width:8;stroke-miterlimit:10;}
	.st41{fill:none;stroke:#FFFFFF;stroke-width:6;stroke-miterlimit:10;}
	.st42{fill:#FFFFFF;stroke:#4FBDD7;stroke-width:3;stroke-miterlimit:10;}
	.st43{fill:none;stroke:#FFFFFF;stroke-width:0.75;stroke-miterlimit:10;}
	.st44{fill:#4FBDD7;stroke:#FFFFFF;stroke-width:9;stroke-miterlimit:10;}
	.st45{fill:none;stroke:#FFFFFF;stroke-width:9;stroke-miterlimit:10;}
	.st46{fill:none;stroke:#4FBDD7;stroke-width:3;stroke-miterlimit:10;}
</style>
<rect x="-1" y="1" class="st1" width="500" height="500"/>
<g>
	<rect y="363" class="st0" width="500" height="144"/>
	<text transform="matrix(1 0 0 1 45.749 401.5557)"><tspan x="0" y="0" class="st2 st3 st4">Fermoirs, griffes et </tspan><tspan x="111.8" y="64.8" class="st2 st3 st4">attaches</tspan></text>
</g>
<g id="VHB9m0.tif">
	<g>
		<path class="st2" d="M294.3,303.9c-6.8-2.5-10.3-7.9-13.4-13.7c-1.1-2.1-1.5-4.6-2.6-6.8c-3.2-6.3-6.4-12.5-9.9-18.6
			c-0.6-1-2.4-1.8-3.8-1.9c-13.9-0.5-18.9-9.6-21.1-19c-0.5-2.4,0.6-5.3,0.9-7.9c0.2-1.7,0-2.9-0.7-3.8c-1.3-1.7-3.9-1.7-4.6-1.7
			c-8.6-0.2-26.1-15-47.1-16c-4.1-0.2-10.6,0-18.6,2.7c-0.7,0.4-6.7,3.4-12.6,0.4c-3.4-1.7-6.8-5.6-6.5-9.3c0.2-3,4.1-6.9,7.7-7.7
			c3.1-0.7,3.7-2.5,1.5-5c-4.3-5-8.8-10-12.9-15.1c-5.6-7-9.1-15.1-9.7-24.3c-0.5-7,0.2-13.9,2.5-20.5c2.2-6.4,5.2-10.6,8-14.4
			c4.2-5.8,11.3-15.7,24.4-22.2c3.5-1.7,13.3-6.6,25.3-6.1c25.8,1.2,40.9,26.4,42.5,29.1c-0.2,1.4-0.3,3.4-0.1,5.8
			c0,0,0.2,2.4,0.9,5c1,3.8,7.6,15.4,18.2,30c1.5,3.2,2.6,6.5,3.4,9.8c0,0,0,0,0,0c0.8,3,1.3,6,1.6,9.6c0.8,8.6-1.1,17.3-3.2,26.1
			c-1.2,4.9,2.9,9,9.7,9.7c11.2,1.2,20.6,15.8,15.3,25.4c-1.7,3-1.2,5.6,1.3,8.7c4.7,5.7,7.7,12.8,11.2,19.5c1.6,3,2.9,6.3,3.7,9.6
			c1.1,4.9,1.6,9.9,2.4,14.9C303.7,298.7,299,301.3,294.3,303.9z M182.3,124.8c-9.8,6.7-14,19.2-12.3,30.2
			c1.8,11.7,10,20.4,18.7,24.4c16,7.4,33.4-1.1,42.3-10.7c2.7-2.9,11.1-12,9.3-22.9c-2.4-14.8-21.2-20.9-26.1-22.5
			C207.3,121.1,193.9,116.8,182.3,124.8z M256.1,241.4c0.6,0.4,1.3,0.7,1.9,1.1c2.3-7.3,7.6-8.9,14.3-8.1c-4.3-2.3-8.7-4-12.9,0.1
			C257.7,236.2,257.2,239,256.1,241.4z"/>
		<path class="st2" d="M255.2,245.1c1.8-4,2.6-8.8,5.7-11.8c7.2-6.9,14.6-4,21.9-0.1c-11.3-1.4-20.4,1.3-24.3,13.7
			C257.4,246.3,256.3,245.7,255.2,245.1z"/>
	</g>
</g>
</svg>
