<?xml version="1.0" encoding="utf-8"?>
<!-- Generator: Adobe Illustrator 22.1.0, SVG Export Plug-In . SVG Version: 6.00 Build 0)  -->
<svg style="enable-background:new 0 0 500 500;" id="Calque_1" version="1.1" viewBox="0 0 500 500" x="0px"
     xmlns="http://www.w3.org/2000/svg" y="0px" xml:space="preserve">
<style type="text/css">
	.st0{fill:#EAEAEA;}
	.st1{fill:#8C8C8C;}
	.st2{fill:#FFFFFF;}
	.st3{fill:#EAEAEA;stroke:#8C8C8C;stroke-width:7;stroke-miterlimit:10;}
	.st4{fill:#070707;}
	.st5{fill:none;stroke:#8C8C8C;stroke-width:7;stroke-miterlimit:10;}
	.st6{fill:none;stroke:#8C8C8C;stroke-width:10;stroke-miterlimit:10;}
	.st7{fill:#8C8C8C;stroke:#8C8C8C;stroke-width:3;stroke-miterlimit:10;}
	.st8{fill:none;stroke:#8C8C8C;stroke-width:8;stroke-miterlimit:10;}
	.st9{fill:none;stroke:#8E8E8E;stroke-width:6;stroke-miterlimit:10;}
	.st10{fill:#8E8E8E;}
	.st11{fill:#505050;}
	.st12{fill:none;stroke:#8E8E8E;stroke-width:2;stroke-miterlimit:10;}
	.st13{fill:#8C8C8C;stroke:#8C8C8C;stroke-width:2;stroke-miterlimit:10;}
	.st14{fill:#8C8C8C;stroke:#FFFFFF;stroke-width:2;stroke-miterlimit:10;}
	.st15{fill:none;stroke:#FFFFFF;stroke-width:2;stroke-miterlimit:10;}
	.st16{fill:none;stroke:#8C8C8C;stroke-miterlimit:10;}
	.st17{fill:none;stroke:#8C8C8C;stroke-width:13;stroke-miterlimit:10;}
	.st18{fill:#EAEAEA;stroke:#8C8C8C;stroke-width:8;stroke-miterlimit:10;}
	.st19{fill:none;stroke:#8C8C8C;stroke-width:4;stroke-miterlimit:10;}
	.st20{fill:#8C8C8C;stroke:#8C8C8C;stroke-width:0.75;stroke-miterlimit:10;}
	.st21{fill:none;stroke:#8C8C8C;stroke-width:9;stroke-miterlimit:10;}
	.st22{fill:#8C8C8C;stroke:#8C8C8C;stroke-width:0.5;stroke-miterlimit:10;}
	.st23{fill:#6B6B6B;}
	.st24{fill:none;}
	.st25{stroke:#8C8C8C;stroke-width:8;stroke-miterlimit:10;}
	.st26{fill:#8C8C8C;stroke:#8C8C8C;stroke-miterlimit:10;}
	.st27{fill:none;stroke:#8C8C8C;stroke-width:11;stroke-miterlimit:10;}
	.st28{fill:none;stroke:#8C8C8C;stroke-width:6;stroke-miterlimit:10;}
	.st29{stroke:#8C8C8C;stroke-width:6;stroke-miterlimit:10;}
	.st30{fill:#8C8C8C;stroke:#8C8C8C;stroke-width:4;stroke-miterlimit:10;}
	.st31{fill:#8C8C8C;stroke:#8C8C8C;stroke-width:1.05;stroke-miterlimit:10;}
	.st32{fill:#D6D6D6;}
	.st33{fill:none;stroke:#EAEAEA;stroke-width:5;stroke-miterlimit:10;}
	.st34{fill:#8C8C8C;stroke:#8C8C8C;stroke-width:10;stroke-miterlimit:10;}
	.st35{font-family:'HelveticaNeue-CondensedBold';}
	.st36{font-size:54px;}
	.st37{fill:none;stroke:#CECECE;stroke-width:2;stroke-miterlimit:10;}
	.st38{fill:none;stroke:#FFFFFF;stroke-width:4;stroke-miterlimit:10;}
	.st39{fill-rule:evenodd;clip-rule:evenodd;fill:#8C8C8C;}
	.st40{fill:#8C8C8C;stroke:#8C8C8C;stroke-width:8;stroke-miterlimit:10;}
	.st41{fill:#8C8C8C;stroke:#8C8C8C;stroke-width:7;stroke-miterlimit:10;}
	.st42{fill:#DBDBDB;stroke:#8C8C8C;stroke-width:7;stroke-miterlimit:10;}
	.st43{fill:none;stroke:#8C8C8C;stroke-width:5;stroke-miterlimit:10;}
	.st44{fill:none;stroke:#8C8C8C;stroke-width:3;stroke-miterlimit:10;}
	.st45{clip-path:url(#SVGID_2_);fill:#8C8C8C;}
	.st46{clip-path:url(#SVGID_2_);fill:none;stroke:#8C8C8C;stroke-width:8;stroke-miterlimit:10;}
	.st47{clip-path:url(#SVGID_2_);fill:#FFFFFF;}
	.st48{clip-path:url(#SVGID_2_);fill:#EAEAEA;}
	.st49{clip-path:url(#SVGID_2_);fill:none;stroke:#8C8C8C;stroke-miterlimit:10;}
	.st50{fill:none;stroke:#FFFFFF;stroke-width:0.75;stroke-miterlimit:10;}
	.st51{fill:none;stroke:#8C8C8C;stroke-width:14;stroke-miterlimit:10;}
	.st52{fill:none;stroke:#EAEAEA;stroke-width:2;stroke-miterlimit:10;}
	.st53{fill:none;stroke:#8C8C8C;stroke-width:2;stroke-miterlimit:10;}
</style>
    <rect class="st0" height="500" width="500"/>
    <path class="st1" d="M246.2,144c2.6,0,4.8-2.1,4.8-4.8c0-4.9,4-8.8,8.8-8.8h3.5c2.6,0,4.8-2.1,4.8-4.8v-17.9c0-2.6-2.1-4.8-4.8-4.8
	H112.3c-2.6,0-4.8,2.1-4.8,4.8v17.9c0,2.6,2.1,4.8,4.8,4.8h3.5c4.9,0,8.8,4,8.8,8.8c0,2.6,2.1,4.8,4.8,4.8h3.6v64.3
	c0,7.8,0,15.7,0,23.5c0,12.8,0,25.7,0,38.5h-3.6c-2.6,0-4.8,2.1-4.8,4.8c0,4.9-4,8.8-8.8,8.8h-3.5c-2.6,0-4.8,2.1-4.8,4.8v17.9
	c0,2.6,2.1,4.8,4.8,4.8h150.9c2.6,0,4.8-2.1,4.8-4.8v-17.9c0-2.6-2.1-4.8-4.8-4.8h-3.5c-4.9,0-8.8-4-8.8-8.8c0-2.6-2.1-4.8-4.8-4.8
	h-3.6V144H246.2z M117.1,120.9v-8.3h141.4v8.3H117.1z M258.5,293.5v8.3H117.1v-8.3H258.5z M243.7,283.9H131.9
	c0.7-1.3,1.3-2.6,1.6-4.1H242C242.4,281.3,243,282.7,243.7,283.9z M227.4,162.1l-12.4,5.7L163.1,144h24.8L227.4,162.1z M210.9,144
	h22.2v10.2L210.9,144z M203.6,173l-12.4,5.7l-48.7-22.2v-11.3L203.6,173z M179.7,183.9l-12.4,5.7l0,0l-24.8-11.3v-11.3L179.7,183.9z
	 M155.8,194.8l-13.3,6.1v-12.2L155.8,194.8z M233.1,170v11.3l-90.6,41.4v-11.3L233.1,170z M233.1,191.8v11.3l-90.6,41.4v-11.3
	L233.1,191.8z M233.1,213.6v11.3l-90.6,41.4V255L233.1,213.6z M181.5,270.3h-24.8l76.4-34.9v11.3L181.5,270.3z M233.1,257.2v13.1
	h-28.6L233.1,257.2z M242,134.5H133.5c-0.4-1.4-0.9-2.8-1.6-4.1h111.8C243,131.7,242.4,133,242,134.5z"/>
    <g>
	<g>
		<path class="st1" d="M408.8,215.5c-0.6-1.8-15.4-44.2-35.8-55c-1.2-0.6-2.5-1.3-3.8-2c6.1-20.6,8.1-37.7,4.1-52.7
			c-3.9-14.5-17.3-25.3-30.6-24.6c-11.6,0.7-19.9,10-22.1,24.9c-0.7,4.7-0.7,9-0.1,12.9c-2.7,3.8-4.6,7.1-5.1,8.1L212.8,290.6
			c-0.8,1.2-1.8,2.8-0.8,4.6l1,1.7h2c1.7,0,2.7-1.2,3.5-2.3l118-148c7.5,6.4,16.5,11.2,24.7,15.3c-3.6,11.3-8.5,23.6-14.2,37.2
			c-15.7,37.3-8.4,68.2,2.7,75.2c0.6,0.4,1.2,0.5,1.8,0.5c1.1,0,2.2-0.5,2.8-1.5c1-1.6,0.5-3.6-1-4.6c-7.8-5-14.7-32.3-0.1-67
			c5.6-13.3,10.4-25.5,14.1-36.8c0.9,0.5,1.8,0.9,2.7,1.4c18.1,9.5,32.4,50.8,32.6,51.2c0.6,1.7,2.5,2.7,4.2,2.1
			C408.5,219.1,409.4,217.2,408.8,215.5z M323.6,144.3l-6.6,5.4l2.6-8.1c0.8-2.4,2.2-6.6,4.1-11.1c1.5,3.2,3.4,6.1,5.5,8.8
			C326.7,141.7,324.6,143.5,323.6,144.3z M334.1,134.6c-2.9-3.7-5.1-7.9-6.3-12.7c3.2-5.8,7.1-10.4,11.2-10.4c1.1,0,2.2,0.3,3.2,1
			c1.7,1.1,2.6,2.6,2.7,4.6C345.3,121.9,339.7,128.9,334.1,134.6z M363.2,155.5c-7.7-3.9-15.9-8.4-22.5-14.1
			c4.4-5.7,13.1-18.3,12-27.5c-0.4-3.2-2-5.9-4.6-7.7c-2.1-1.5-4.5-2.3-7-2.3c-5.2,0-10.1,3.4-14.3,7.6c0.1-1.4,0.2-2.9,0.4-4.4
			c1.7-11.7,7.5-18.8,15.9-19.3c0.3,0,0.6,0,0.9,0c8.8,0,19.4,7.1,22.8,19.7C370.5,121,368.7,136.7,363.2,155.5z"/>
	</g>
</g>
    <g>
	<rect class="st24" height="144" width="500" x="2" y="360"/>
        <text class="st23 st35 st36" transform="matrix(1 0 0 1 119.1631 398.5557)">Fil &amp; aiguille</text>
</g>
</svg>
