<?xml version="1.0" encoding="utf-8"?>
<!-- Generator: Adobe Illustrator 22.1.0, SVG Export Plug-In . SVG Version: 6.00 Build 0)  -->
<svg version="1.1" id="Calque_1" xmlns="http://www.w3.org/2000/svg" xmlns:xlink="http://www.w3.org/1999/xlink" x="0px" y="0px"
	 viewBox="0 0 500 500" style="enable-background:new 0 0 500 500;" xml:space="preserve">
<style type="text/css">
	.st0{fill:#EAEAEA;}
	.st1{fill:#8C8C8C;}
	.st2{fill:#FFFFFF;}
	.st3{fill:#EAEAEA;stroke:#8C8C8C;stroke-width:7;stroke-miterlimit:10;}
	.st4{fill:#070707;}
	.st5{fill:none;}
	.st6{fill:#6B6B6B;}
	.st7{font-family:'HelveticaNeue-CondensedBold';}
	.st8{font-size:54px;}
	.st9{fill:none;stroke:#8C8C8C;stroke-width:7;stroke-miterlimit:10;}
	.st10{fill:none;stroke:#8C8C8C;stroke-width:10;stroke-miterlimit:10;}
	.st11{fill:#8C8C8C;stroke:#8C8C8C;stroke-width:3;stroke-miterlimit:10;}
	.st12{fill:none;stroke:#8C8C8C;stroke-width:8;stroke-miterlimit:10;}
	.st13{fill:none;stroke:#8E8E8E;stroke-width:6;stroke-miterlimit:10;}
	.st14{fill:#8E8E8E;}
	.st15{fill:#505050;}
	.st16{fill:none;stroke:#8E8E8E;stroke-width:2;stroke-miterlimit:10;}
	.st17{fill:#8C8C8C;stroke:#8C8C8C;stroke-width:2;stroke-miterlimit:10;}
	.st18{fill:#8C8C8C;stroke:#FFFFFF;stroke-width:2;stroke-miterlimit:10;}
	.st19{fill:none;stroke:#FFFFFF;stroke-width:2;stroke-miterlimit:10;}
	.st20{fill:none;stroke:#8C8C8C;stroke-miterlimit:10;}
	.st21{fill:none;stroke:#8C8C8C;stroke-width:13;stroke-miterlimit:10;}
	.st22{fill:#EAEAEA;stroke:#8C8C8C;stroke-width:8;stroke-miterlimit:10;}
	.st23{fill:none;stroke:#8C8C8C;stroke-width:4;stroke-miterlimit:10;}
	.st24{fill:#8C8C8C;stroke:#8C8C8C;stroke-width:0.75;stroke-miterlimit:10;}
	.st25{fill:none;stroke:#8C8C8C;stroke-width:9;stroke-miterlimit:10;}
	.st26{fill:#8C8C8C;stroke:#8C8C8C;stroke-width:0.5;stroke-miterlimit:10;}
	.st27{stroke:#8C8C8C;stroke-width:8;stroke-miterlimit:10;}
	.st28{fill:#8C8C8C;stroke:#8C8C8C;stroke-miterlimit:10;}
	.st29{fill:none;stroke:#8C8C8C;stroke-width:11;stroke-miterlimit:10;}
	.st30{fill:none;stroke:#8C8C8C;stroke-width:6;stroke-miterlimit:10;}
	.st31{stroke:#8C8C8C;stroke-width:6;stroke-miterlimit:10;}
	.st32{fill:#8C8C8C;stroke:#8C8C8C;stroke-width:4;stroke-miterlimit:10;}
	.st33{fill:#8C8C8C;stroke:#8C8C8C;stroke-width:1.05;stroke-miterlimit:10;}
	.st34{fill:#D6D6D6;}
	.st35{fill:none;stroke:#EAEAEA;stroke-width:5;stroke-miterlimit:10;}
	.st36{fill:#8C8C8C;stroke:#8C8C8C;stroke-width:10;stroke-miterlimit:10;}
	.st37{fill:none;stroke:#CECECE;stroke-width:2;stroke-miterlimit:10;}
	.st38{fill:none;stroke:#FFFFFF;stroke-width:4;stroke-miterlimit:10;}
	.st39{fill-rule:evenodd;clip-rule:evenodd;fill:#8C8C8C;}
	.st40{fill:#8C8C8C;stroke:#8C8C8C;stroke-width:8;stroke-miterlimit:10;}
	.st41{fill:#8C8C8C;stroke:#8C8C8C;stroke-width:7;stroke-miterlimit:10;}
	.st42{fill:#DBDBDB;stroke:#8C8C8C;stroke-width:7;stroke-miterlimit:10;}
	.st43{fill:none;stroke:#8C8C8C;stroke-width:5;stroke-miterlimit:10;}
	.st44{fill:none;stroke:#8C8C8C;stroke-width:3;stroke-miterlimit:10;}
	.st45{clip-path:url(#SVGID_2_);fill:#8C8C8C;}
	.st46{clip-path:url(#SVGID_2_);fill:none;stroke:#8C8C8C;stroke-width:8;stroke-miterlimit:10;}
	.st47{clip-path:url(#SVGID_2_);fill:#FFFFFF;}
	.st48{clip-path:url(#SVGID_2_);fill:#EAEAEA;}
	.st49{clip-path:url(#SVGID_2_);fill:none;stroke:#8C8C8C;stroke-miterlimit:10;}
	.st50{fill:none;stroke:#FFFFFF;stroke-width:0.75;stroke-miterlimit:10;}
	.st51{fill:none;stroke:#8C8C8C;stroke-width:14;stroke-miterlimit:10;}
	.st52{fill:none;stroke:#EAEAEA;stroke-width:2;stroke-miterlimit:10;}
	.st53{fill:none;stroke:#8C8C8C;stroke-width:2;stroke-miterlimit:10;}
</style>
<rect x="1" y="-1" class="st0" width="500" height="500"/>
<g>
	<rect x="1" y="360" class="st5" width="500" height="144"/>
	<text transform="matrix(1 0 0 1 129.2051 398.5557)" class="st6 st7 st8">Foam roller</text>
</g>
<g>
	<path class="st1" d="M387.2,172.5c-4.7,7.3-11.3,12.2-19.1,16.1c-24.8,12.5-49.4,25.1-74.1,37.8c-6,3.1-11.9,6.3-18,9.3
		c-7.3,3.6-14.7,7-21.9,10.7c-10.8,5.5-21.4,11.1-32.1,16.6c-19.4,9.9-38.6,20.4-58.3,29.5c-18.2,8.4-35.2,7.1-50.8-7.9
		c-10.8-10.4-14.1-28.7-8.9-42.8c4.9-13.1,14.9-20.7,26.7-26.7c9.4-4.8,18.9-9.4,28.3-14.1c12.5-6.3,25-12.6,37.5-19
		c4.5-2.3,8.8-5.1,13.3-7.4c23.5-11.9,47.1-23.7,70.6-35.6c17.2-8.7,34.4-17.6,51.6-26.4c15.5-7.8,30.6-7.1,44.7,3.1
		c13.2,9.5,18.9,23,16.9,39.1c-0.7,6.1-3.5,11.9-5.3,17.9C387.8,172.7,387.5,172.6,387.2,172.5 M180.5,275c8.1-4.1,15.6-7.8,23-11.6
		c21.5-11,43-22.1,64.5-33.1c7-3.6,14.2-7,21.2-10.6c25-12.7,50-25.5,75.1-38.1c9.9-5,17.1-11.9,20.4-22.9
		c5.3-17.5-6.8-38.2-24.6-42c-10.2-2.2-19.3,0.3-28.3,4.9c-25,13-50.2,25.8-75.3,38.6c-22.5,11.5-45.2,22.8-67.7,34.2
		c-8.3,4.2-16.6,8.6-24.9,12.9c-4.5,2.3-9,4.6-13.8,7.1C179.5,224.9,190.1,244.5,180.5,275 M170.6,274.5
		c10.2-15.4,5.9-36.2-9.5-46.4c-15-9.9-36-5.6-45.8,9.4c-10.3,15.8-6.4,36,9.3,46.3C140.5,294.3,160.2,289.8,170.6,274.5"/>
</g>
</svg>
