<?xml version="1.0" encoding="utf-8"?>
<!-- Generator: Adobe Illustrator 22.1.0, SVG Export Plug-In . SVG Version: 6.00 Build 0)  -->
<svg version="1.1" id="Calque_1" xmlns="http://www.w3.org/2000/svg" x="0px" y="0px"
     viewBox="0 0 500 500" style="enable-background:new 0 0 500 500;" xml:space="preserve">
<style type="text/css">
	.st0{fill:#4FBDD7;}
	.st1{fill:#EAEAEA;}
	.st2{fill:#FFFFFF;}
	.st3{fill:#4FBDD7;stroke:#FFFFFF;stroke-width:5;stroke-miterlimit:10;}
	.st4{fill:#8C8C8C;}
	.st5{fill:#070707;}
	.st6{fill:none;stroke:#FFFFFF;stroke-width:7;stroke-miterlimit:10;}
	.st7{fill:none;stroke:#FFFFFF;stroke-width:10;stroke-miterlimit:10;}
	.st8{fill:#FFFFFF;stroke:#FFFFFF;stroke-width:3;stroke-miterlimit:10;}
	.st9{fill:none;stroke:#FDFFFF;stroke-width:6;stroke-miterlimit:10;}
	.st10{fill:#FAFEFF;}
	.st11{fill:none;stroke:#FFFFFF;stroke-width:2;stroke-miterlimit:10;}
	.st12{fill:#FFFFFF;stroke:#FFFFFF;stroke-width:2;stroke-miterlimit:10;}
	.st13{fill:#4FBDD7;stroke:#FFFFFF;stroke-width:4;stroke-miterlimit:10;}
	.st14{fill:#FFFFFF;stroke:#FFFFFF;stroke-width:4;stroke-miterlimit:10;}
	.st15{fill:none;stroke:#FFFFFF;stroke-miterlimit:10;}
	.st16{fill:#FFFFFF;stroke:#FFFFFF;stroke-width:13;stroke-miterlimit:10;}
	.st17{fill:#4FBDD7;stroke:#FFFFFF;stroke-width:8;stroke-miterlimit:10;}
	.st18{fill:#FFFFFF;stroke:#FFFFFF;stroke-width:0.75;stroke-miterlimit:10;}
	.st19{fill:#FFFFFF;stroke:#FFFFFF;stroke-width:0.5;stroke-miterlimit:10;}
	.st20{fill:#FFFFFF;stroke:#FFFFFF;stroke-width:8;stroke-miterlimit:10;}
	.st21{fill:#FFFFFF;stroke:#FFFFFF;stroke-miterlimit:10;}
	.st22{fill:#FFFFFF;stroke:#FFFFFF;stroke-width:11;stroke-miterlimit:10;}
	.st23{fill:#FFFFFF;stroke:#FFFFFF;stroke-width:6;stroke-miterlimit:10;}
	.st24{fill:#8C8C8C;stroke:#8C8C8C;stroke-width:4;stroke-miterlimit:10;}
	.st25{fill:#FFFFFF;stroke:#FFFFFF;stroke-width:1.05;stroke-miterlimit:10;}
	.st26{fill:none;stroke:#4FBDD7;stroke-width:5;stroke-miterlimit:10;}
	.st27{fill:none;stroke:#FFFFFF;stroke-width:4;stroke-miterlimit:10;}
	.st28{fill:#8C8C8C;stroke:#FFFFFF;stroke-width:4;stroke-miterlimit:10;}
	.st29{fill:#FFFFFF;stroke:#FFFFFF;stroke-width:10;stroke-miterlimit:10;}
	.st30{fill:none;stroke:#4FBDD7;stroke-width:2;stroke-miterlimit:10;}
	.st31{fill-rule:evenodd;clip-rule:evenodd;fill:#FFFFFF;}
	.st32{fill:#FFFFFF;stroke:#FFFFFF;stroke-width:7;stroke-miterlimit:10;}
	.st33{fill:#FFFFFF;stroke:#4FBDD7;stroke-width:7;stroke-miterlimit:10;}
	.st34{fill:none;}
	.st35{font-family:'HelveticaNeue-CondensedBold';}
	.st36{font-size:54px;}
	.st37{fill:#FCFCFC;}
	.st38{fill:#FFFFFF;stroke:#FFFFFF;stroke-width:5;stroke-miterlimit:10;}
	.st39{fill:none;stroke:#FFFFFF;stroke-width:3;stroke-miterlimit:10;}
	.st40{fill:none;stroke:#FFFFFF;stroke-width:8;stroke-miterlimit:10;}
	.st41{fill:none;stroke:#FFFFFF;stroke-width:6;stroke-miterlimit:10;}
	.st42{fill:#FFFFFF;stroke:#4FBDD7;stroke-width:3;stroke-miterlimit:10;}
	.st43{fill:none;stroke:#FFFFFF;stroke-width:0.75;stroke-miterlimit:10;}
	.st44{fill:#4FBDD7;stroke:#FFFFFF;stroke-width:9;stroke-miterlimit:10;}
	.st45{fill:none;stroke:#FFFFFF;stroke-width:9;stroke-miterlimit:10;}
	.st46{fill:none;stroke:#4FBDD7;stroke-width:3;stroke-miterlimit:10;}
</style>
<rect x="1" y="1" class="st0" width="500" height="500"/>
<g>
	<path class="st2" d="M246.6,229.3l-0.6,1.1c-0.5,0.9-1.4,1.5-2.3,1.7c-0.9,0.2-1.9,0.1-2.8-0.4c-1.8-1.1-2.3-3.3-1.3-5.1l2.6-4.2
		c0,0,10.7-17.7,10.7-17.7l-7-4.2L235.1,218c0,0-2.6,4.2-2.6,4.2c-0.5,0.9-1.4,1.5-2.3,1.7c-0.9,0.2-1.9,0.1-2.8-0.4
		c-1.8-1.1-2.3-3.3-1.3-5.1l0.6-1.1l-16.4-9.9c-1-0.6-2.2-0.8-3.3-0.5c-1.1,0.3-2.1,1-2.7,2l-1.6,2.6l60,36.3l1.6-2.6
		c1.2-2.1,0.6-4.8-1.5-6L246.6,229.3z"/>
	<path class="st2" d="M303.5,112.8c-0.9-0.5-1.7-1.2-2.5-1.8l-50.4,83.4l5.3,3.2l50.4-83.4C305.3,113.8,304.4,113.4,303.5,112.8z"/>
	<rect x="318.1" y="70" transform="matrix(0.517 -0.856 0.856 0.517 83.7459 315.2416)" class="st2" width="6.2" height="26.7"/>
	<path class="st2" d="M341.3,83.2l-29.2-17.7c-0.8-0.5-1.9-0.7-2.8-0.4c-1,0.2-1.8,0.8-2.3,1.7l-7.1,11.7c0,0-3.5,5.8-3.5,5.8
		c-3.9,6.5-3.9,14.4-0.5,20.6l-52.4,86.7c-0.9,0.2-1.6,0.8-2.2,1.6L230.7,211l-16.4-9.9c-2.7-1.6-5.9-2.1-8.9-1.4
		c-3.1,0.8-5.6,2.7-7.3,5.4l-45.5,75.3c-1.1,1.8-0.5,4,1.3,5.1c1.8,1.1,4,0.5,5.1-1.3l40.1-66.3l15.8,9.5l-40.1,66.3
		c-1.1,1.8-0.5,4,1.3,5.1c0.9,0.5,1.9,0.7,2.8,0.4c0.9-0.2,1.8-0.8,2.3-1.7l40.1-66.3l15.8,9.5l-40.1,66.3c-1.1,1.8-0.5,4,1.3,5.1
		c0.9,0.5,1.9,0.7,2.8,0.4s1.8-0.8,2.3-1.7l40.1-66.3l15.8,9.5L219,320.5c-1.1,1.8-0.5,4,1.3,5.1c0.9,0.5,1.9,0.7,2.8,0.4
		s1.8-0.8,2.3-1.7l45.5-75.3c3.4-5.6,1.6-12.8-4-16.2l-16.4-9.9l10.7-17.7c0.5-0.8,0.6-1.8,0.5-2.7l52.4-86.7c1.7,0,3.5-0.2,5.2-0.6
		c5.4-1.3,9.9-4.7,12.8-9.4l3.5-5.8l7.1-11.7c0.5-0.8,0.7-1.9,0.4-2.8S342.1,83.7,341.3,83.2z M331.1,93l-22.9-13.8l3.2-5.3
		l22.9,13.8L331.1,93z M307.3,106.5c-6.3-3.8-8.3-12-4.5-18.4l1.6-2.6l22.9,13.8l-1.6,2.6C321.8,108.2,313.6,110.3,307.3,106.5z"/>
</g>
<path class="st0" d="M231,224.9l68.4-113.5c1.1,0.9,2.2,1.7,3.4,2.5c1.2,0.7,2.5,1.4,3.8,1.9l-68.4,113.5L231,224.9z"/>
<g>
	<rect x="3" y="376" class="st34" width="500" height="118"/>
	<text transform="matrix(1 0 0 1 166.5464 414.5557)" class="st2 st35 st36">Fourche</text>
</g>
</svg>
