<?xml version="1.0" encoding="utf-8"?>
<!-- Generator: Adobe Illustrator 22.1.0, SVG Export Plug-In . SVG Version: 6.00 Build 0)  -->
<svg version="1.1" id="Calque_1" xmlns="http://www.w3.org/2000/svg" xmlns:xlink="http://www.w3.org/1999/xlink" x="0px" y="0px"
	 viewBox="0 0 500 500" style="enable-background:new 0 0 500 500;" xml:space="preserve">
<style type="text/css">
	.st0{fill:#4FBDD7;}
	.st1{fill:#EAEAEA;}
	.st2{fill:#FFFFFF;}
	.st3{fill:#4FBDD7;stroke:#FFFFFF;stroke-width:5;stroke-miterlimit:10;}
	.st4{fill:#8C8C8C;}
	.st5{fill:#070707;}
	.st6{fill:none;}
	.st7{font-family:'HelveticaNeue-CondensedBold';}
	.st8{font-size:54px;}
	.st9{fill:none;stroke:#FFFFFF;stroke-width:7;stroke-miterlimit:10;}
	.st10{fill:none;stroke:#FFFFFF;stroke-width:10;stroke-miterlimit:10;}
	.st11{fill:#FFFFFF;stroke:#FFFFFF;stroke-width:3;stroke-miterlimit:10;}
	.st12{fill:none;stroke:#FDFFFF;stroke-width:6;stroke-miterlimit:10;}
	.st13{fill:#FAFEFF;}
	.st14{fill:none;stroke:#FFFFFF;stroke-width:2;stroke-miterlimit:10;}
	.st15{fill:#FFFFFF;stroke:#FFFFFF;stroke-width:2;stroke-miterlimit:10;}
	.st16{fill:#4FBDD7;stroke:#FFFFFF;stroke-width:4;stroke-miterlimit:10;}
	.st17{fill:#FFFFFF;stroke:#FFFFFF;stroke-width:4;stroke-miterlimit:10;}
	.st18{fill:none;stroke:#FFFFFF;stroke-miterlimit:10;}
	.st19{fill:#FFFFFF;stroke:#FFFFFF;stroke-width:13;stroke-miterlimit:10;}
	.st20{fill:#4FBDD7;stroke:#FFFFFF;stroke-width:8;stroke-miterlimit:10;}
	.st21{fill:#FFFFFF;stroke:#FFFFFF;stroke-width:0.75;stroke-miterlimit:10;}
	.st22{fill:#FFFFFF;stroke:#FFFFFF;stroke-width:0.5;stroke-miterlimit:10;}
	.st23{fill:#FFFFFF;stroke:#FFFFFF;stroke-width:8;stroke-miterlimit:10;}
	.st24{fill:#FFFFFF;stroke:#FFFFFF;stroke-miterlimit:10;}
	.st25{fill:#FFFFFF;stroke:#FFFFFF;stroke-width:11;stroke-miterlimit:10;}
	.st26{fill:#FFFFFF;stroke:#FFFFFF;stroke-width:6;stroke-miterlimit:10;}
	.st27{fill:#8C8C8C;stroke:#8C8C8C;stroke-width:4;stroke-miterlimit:10;}
	.st28{fill:#FFFFFF;stroke:#FFFFFF;stroke-width:1.05;stroke-miterlimit:10;}
	.st29{fill:none;stroke:#4FBDD7;stroke-width:5;stroke-miterlimit:10;}
	.st30{fill:none;stroke:#FFFFFF;stroke-width:4;stroke-miterlimit:10;}
	.st31{fill:#8C8C8C;stroke:#FFFFFF;stroke-width:4;stroke-miterlimit:10;}
	.st32{fill:#FFFFFF;stroke:#FFFFFF;stroke-width:10;stroke-miterlimit:10;}
	.st33{fill:none;stroke:#4FBDD7;stroke-width:2;stroke-miterlimit:10;}
	.st34{fill-rule:evenodd;clip-rule:evenodd;fill:#FFFFFF;}
	.st35{fill:#FFFFFF;stroke:#FFFFFF;stroke-width:7;stroke-miterlimit:10;}
	.st36{fill:#FFFFFF;stroke:#4FBDD7;stroke-width:7;stroke-miterlimit:10;}
	.st37{fill:#FCFCFC;}
	.st38{fill:#FFFFFF;stroke:#FFFFFF;stroke-width:5;stroke-miterlimit:10;}
	.st39{fill:none;stroke:#FFFFFF;stroke-width:3;stroke-miterlimit:10;}
	.st40{fill:none;stroke:#FFFFFF;stroke-width:8;stroke-miterlimit:10;}
	.st41{fill:none;stroke:#FFFFFF;stroke-width:6;stroke-miterlimit:10;}
	.st42{fill:#FFFFFF;stroke:#4FBDD7;stroke-width:3;stroke-miterlimit:10;}
	.st43{fill:none;stroke:#FFFFFF;stroke-width:0.75;stroke-miterlimit:10;}
	.st44{fill:#4FBDD7;stroke:#FFFFFF;stroke-width:9;stroke-miterlimit:10;}
	.st45{fill:none;stroke:#FFFFFF;stroke-width:9;stroke-miterlimit:10;}
	.st46{fill:none;stroke:#4FBDD7;stroke-width:3;stroke-miterlimit:10;}
</style>
<rect x="0" y="-1" class="st0" width="500" height="500"/>
<g>
	<rect x="1" y="360" class="st6" width="500" height="144"/>
	<text transform="matrix(1 0 0 1 174.0513 398.5557)" class="st2 st7 st8">Fusible</text>
</g>
<g>
	<path class="st2" d="M238.9,190.8c0-3.2-2.7-5.9-5.9-5.9l-35.3,0.1c-7.6,0-13.7,6.2-13.7,13.8l0.2,70.6c0,7.6,6.2,13.7,13.8,13.7
		l35.3-0.1c3.2,0,5.9-2.7,5.9-5.9l0-2l91-0.3l0,2c0,3.2,2.7,5.9,5.9,5.9l35.3-0.1c7.6,0,13.7-6.2,13.7-13.8l-0.2-70.6
		c0-7.6-6.2-13.7-13.8-13.7l-35.3,0.1c-3.2,0-5.9,2.7-5.9,5.9l0,2l-91,0.3L238.9,190.8z M197.4,271.3c-0.7,0-1.4-0.9-1.4-2
		l-0.2-70.6c0-1.1,0.6-2,1.3-2l20.2-0.1l0.3,74.5L197.4,271.3z M239.1,263.3l-0.1-18.7c2.2,0.7,4.6,1.1,7,1c6.8,0,13.1-3,17.3-8
		c2-2.4,5.1-3.8,8.3-3.8c3.3,0,6.3,1.4,8.4,3.8c4.3,5.1,10.6,7.9,17.4,7.9c6.8,0,13.1-3,17.3-8c2-2.4,5.1-3.8,8.3-3.8
		c2.6,0,5,0.9,7,2.4l0.1,27L239.1,263.3z M371.7,196.2c0.7,0,1.3,0.9,1.3,2l0.2,70.6c0,1.1-0.6,2-1.2,2l-18.7,0.1l-0.3-74.5
		L371.7,196.2z"/>
</g>
<g>
	<path class="st2" d="M104.7,229.3c-3.2-0.4-6.1,2-6.5,5.2l-3.8,35.1c-0.8,7.5,4.6,14.3,12.2,15.1l70.2,7.7
		c7.5,0.8,14.3-4.6,15.1-12.2l3.8-35.1c0.4-3.2-2-6.1-5.2-6.5l-1.9-0.2l9.9-90.4l1.9,0.2c3.2,0.4,6.1-2,6.5-5.2l3.8-35.1
		c0.8-7.5-4.6-14.3-12.2-15.1l-70.2-7.7c-7.5-0.8-14.3,4.6-15.1,12.2l-3.8,35.1c-0.4,3.2,2,6.1,5.2,6.5l1.9,0.2l-9.9,90.4
		L104.7,229.3z M180.1,279.6c-0.1,0.7-1,1.2-2.1,1.1l-70.2-7.7c-1.1-0.1-1.9-0.8-1.8-1.6l2.2-20.1l74.1,8.1L180.1,279.6z
		 M176.8,237.2l-18.6-2c0.9-2.1,1.6-4.4,1.8-6.8c0.7-6.7-1.5-13.3-6-18.1c-2.2-2.3-3.2-5.4-2.9-8.7c0.4-3.3,2.1-6.1,4.7-7.9
		c5.5-3.7,9.1-9.7,9.8-16.4c0.7-6.7-1.5-13.3-6-18.1c-2.2-2.3-3.2-5.4-2.9-8.7c0.3-2.6,1.4-4.9,3.2-6.7l26.8,2.9L176.8,237.2z
		 M125,97.9c0.1-0.7,1-1.1,2.1-1l70.2,7.7c1.1,0.1,1.9,0.8,1.8,1.5l-2,18.6l-74.1-8.1L125,97.9z"/>
</g>
</svg>
