<?xml version="1.0" encoding="utf-8"?>
<!-- Generator: Adobe Illustrator 22.1.0, SVG Export Plug-In . SVG Version: 6.00 Build 0)  -->
<svg version="1.1" id="Calque_1" xmlns="http://www.w3.org/2000/svg" x="0px" y="0px"
     viewBox="0 0 500 500" style="enable-background:new 0 0 500 500;" xml:space="preserve">
<style type="text/css">
	.st0{fill:#4FBDD7;}
	.st1{fill:#EAEAEA;}
	.st2{fill:#FFFFFF;}
	.st3{fill:#4FBDD7;stroke:#FFFFFF;stroke-width:5;stroke-miterlimit:10;}
	.st4{fill:#8C8C8C;}
	.st5{fill:#070707;}
	.st6{fill:none;stroke:#FFFFFF;stroke-width:7;stroke-miterlimit:10;}
	.st7{fill:none;stroke:#FFFFFF;stroke-width:10;stroke-miterlimit:10;}
	.st8{fill:#FFFFFF;stroke:#FFFFFF;stroke-width:3;stroke-miterlimit:10;}
	.st9{fill:none;stroke:#FDFFFF;stroke-width:6;stroke-miterlimit:10;}
	.st10{fill:#FAFEFF;}
	.st11{fill:none;stroke:#FFFFFF;stroke-width:2;stroke-miterlimit:10;}
	.st12{fill:#FFFFFF;stroke:#FFFFFF;stroke-width:2;stroke-miterlimit:10;}
	.st13{fill:#4FBDD7;stroke:#FFFFFF;stroke-width:4;stroke-miterlimit:10;}
	.st14{fill:#FFFFFF;stroke:#FFFFFF;stroke-width:4;stroke-miterlimit:10;}
	.st15{fill:none;stroke:#FFFFFF;stroke-miterlimit:10;}
	.st16{fill:#FFFFFF;stroke:#FFFFFF;stroke-width:13;stroke-miterlimit:10;}
	.st17{fill:#4FBDD7;stroke:#FFFFFF;stroke-width:8;stroke-miterlimit:10;}
	.st18{fill:#FFFFFF;stroke:#FFFFFF;stroke-width:0.75;stroke-miterlimit:10;}
	.st19{fill:#FFFFFF;stroke:#FFFFFF;stroke-width:0.5;stroke-miterlimit:10;}
	.st20{fill:#FFFFFF;stroke:#FFFFFF;stroke-width:8;stroke-miterlimit:10;}
	.st21{fill:#FFFFFF;stroke:#FFFFFF;stroke-miterlimit:10;}
	.st22{fill:#FFFFFF;stroke:#FFFFFF;stroke-width:11;stroke-miterlimit:10;}
	.st23{fill:#FFFFFF;stroke:#FFFFFF;stroke-width:6;stroke-miterlimit:10;}
	.st24{fill:#8C8C8C;stroke:#8C8C8C;stroke-width:4;stroke-miterlimit:10;}
	.st25{fill:#FFFFFF;stroke:#FFFFFF;stroke-width:1.05;stroke-miterlimit:10;}
	.st26{fill:none;stroke:#4FBDD7;stroke-width:5;stroke-miterlimit:10;}
	.st27{fill:none;stroke:#FFFFFF;stroke-width:4;stroke-miterlimit:10;}
	.st28{fill:#8C8C8C;stroke:#FFFFFF;stroke-width:4;stroke-miterlimit:10;}
	.st29{fill:#FFFFFF;stroke:#FFFFFF;stroke-width:10;stroke-miterlimit:10;}
	.st30{fill:none;}
	.st31{font-family:'HelveticaNeue-CondensedBold';}
	.st32{font-size:54px;}
	.st33{fill:none;stroke:#4FBDD7;stroke-width:2;stroke-miterlimit:10;}
	.st34{fill-rule:evenodd;clip-rule:evenodd;fill:#FFFFFF;}
	.st35{fill:#FFFFFF;stroke:#FFFFFF;stroke-width:7;stroke-miterlimit:10;}
	.st36{fill:#FFFFFF;stroke:#4FBDD7;stroke-width:7;stroke-miterlimit:10;}
	.st37{fill:#FCFCFC;}
	.st38{fill:#FFFFFF;stroke:#FFFFFF;stroke-width:5;stroke-miterlimit:10;}
	.st39{fill:none;stroke:#FFFFFF;stroke-width:3;stroke-miterlimit:10;}
	.st40{fill:none;stroke:#FFFFFF;stroke-width:8;stroke-miterlimit:10;}
	.st41{fill:none;stroke:#FFFFFF;stroke-width:6;stroke-miterlimit:10;}
	.st42{fill:#FFFFFF;stroke:#4FBDD7;stroke-width:3;stroke-miterlimit:10;}
	.st43{fill:none;stroke:#FFFFFF;stroke-width:0.75;stroke-miterlimit:10;}
	.st44{fill:#4FBDD7;stroke:#FFFFFF;stroke-width:9;stroke-miterlimit:10;}
	.st45{fill:none;stroke:#FFFFFF;stroke-width:9;stroke-miterlimit:10;}
	.st46{fill:none;stroke:#4FBDD7;stroke-width:3;stroke-miterlimit:10;}
</style>
<rect class="st0" width="500" height="500"/>
<g>
	<g>
		<g>
			<path class="st2" d="M346.9,159.6c-9.5,0-16.3-3.2-20.6-9.9c-3.7-5.8-4.7-12.9-4.9-16.7v-4.1V65.1c0-2.8-2.3-5.1-5.1-5.1h-25.5
				H209h-25.5c-2.8,0-5.1,2.3-5.1,5.1v66.4v0.7c-0.1,3.8-0.9,10.9-4.6,17c-4.3,7-11.1,10.4-20.9,10.4c-2.8,0-5.1,2.3-5.1,5.1V254
				c0,19.7,16,35.7,35.7,35.7h132.8c9.6,0,18.5-3.2,25-9c6.9-6.1,10.7-14.7,10.7-24.2v-91.9C352,161.9,349.7,159.6,346.9,159.6z
				 M295.8,70.2h15.3v58.6c0,0.5-0.1,2.1,0,4.5v39.1h-15.3V70.2z M285.2,70.2c-2.5,17.3-17.4,30.6-35.4,30.6S217,87.5,214.5,70.2
				L285.2,70.2z M188.6,132.3v-0.8V70.2h15.3v102.1h-15.3V132.3z M178.4,254h-10.2v10.2h10.2v14.8c-11.6-2.4-20.4-12.7-20.4-25
				v-12.8h20.4V254z M178.4,231.1H158v-61.5c9.7-1.1,16.1-5.1,20.4-9.6v12.5c-5.6,0-10.2,4.6-10.2,10.2v25.5
				c0,5.6,4.6,10.2,10.2,10.2V231.1z M178.4,208.1v-25.5h35.7l0,25.5H178.4z M203.9,279.6h-15.3v-61.3h15.3V279.6z M311.1,279.6
				h-15.3v-61.3h15.3V279.6z M285.6,208.1v-25.5h35.7l0,25.5H285.6z M341.8,256.6c0,11.7-8.3,20.6-20.4,22.6v-14.9h10.2V254h-10.2
				v-12.8h20.4V256.6z M341.8,231.1h-20.4v-12.8c5.6,0,10.2-4.6,10.2-10.2v-25.5c0-5.6-4.6-10.2-10.2-10.2v-12.5
				c5.1,5.4,12.1,8.7,20.4,9.7V231.1z"/>
			<rect x="186" y="190.2" class="st2" width="20.4" height="10.2"/>
			<rect x="293.3" y="190.2" class="st2" width="20.4" height="10.2"/>
		</g>
	</g>
</g>
<g>
	<rect x="-1" y="366" class="st30" width="500" height="144"/>
	<text transform="matrix(1 0 0 1 168.0552 404.5557)"><tspan x="0" y="0" class="st2 st31 st32">Gilet de </tspan><tspan x="-29" y="64.8" class="st2 st31 st32">sauvetage</tspan></text>
</g>
</svg>
