<?xml version="1.0" encoding="utf-8"?>
<!-- Generator: Adobe Illustrator 22.1.0, SVG Export Plug-In . SVG Version: 6.00 Build 0)  -->
<svg version="1.1" id="Calque_1" xmlns="http://www.w3.org/2000/svg" xmlns:xlink="http://www.w3.org/1999/xlink" x="0px" y="0px"
	 viewBox="0 0 500 500" style="enable-background:new 0 0 500 500;" xml:space="preserve">
<style type="text/css">
	.st0{fill:#4FBDD7;}
	.st1{fill:#EAEAEA;}
	.st2{fill:#FFFFFF;}
	.st3{fill:#4FBDD7;stroke:#FFFFFF;stroke-width:5;stroke-miterlimit:10;}
	.st4{fill:#8C8C8C;}
	.st5{fill:#070707;}
	.st6{fill:none;stroke:#FFFFFF;stroke-width:7;stroke-miterlimit:10;}
	.st7{fill:none;stroke:#FFFFFF;stroke-width:10;stroke-miterlimit:10;}
	.st8{fill:#FFFFFF;stroke:#FFFFFF;stroke-width:3;stroke-miterlimit:10;}
	.st9{fill:none;stroke:#FDFFFF;stroke-width:6;stroke-miterlimit:10;}
	.st10{fill:#FAFEFF;}
	.st11{fill:none;stroke:#FFFFFF;stroke-width:2;stroke-miterlimit:10;}
	.st12{fill:#FFFFFF;stroke:#FFFFFF;stroke-width:2;stroke-miterlimit:10;}
	.st13{fill:#4FBDD7;stroke:#FFFFFF;stroke-width:4;stroke-miterlimit:10;}
	.st14{fill:#FFFFFF;stroke:#FFFFFF;stroke-width:4;stroke-miterlimit:10;}
	.st15{fill:none;stroke:#FFFFFF;stroke-miterlimit:10;}
	.st16{fill:#FFFFFF;stroke:#FFFFFF;stroke-width:13;stroke-miterlimit:10;}
	.st17{fill:#4FBDD7;stroke:#FFFFFF;stroke-width:8;stroke-miterlimit:10;}
	.st18{fill:#FFFFFF;stroke:#FFFFFF;stroke-width:0.75;stroke-miterlimit:10;}
	.st19{fill:#FFFFFF;stroke:#FFFFFF;stroke-width:0.5;stroke-miterlimit:10;}
	.st20{fill:#FFFFFF;stroke:#FFFFFF;stroke-width:8;stroke-miterlimit:10;}
	.st21{fill:#FFFFFF;stroke:#FFFFFF;stroke-miterlimit:10;}
	.st22{fill:#FFFFFF;stroke:#FFFFFF;stroke-width:11;stroke-miterlimit:10;}
	.st23{fill:#FFFFFF;stroke:#FFFFFF;stroke-width:6;stroke-miterlimit:10;}
	.st24{fill:#8C8C8C;stroke:#8C8C8C;stroke-width:4;stroke-miterlimit:10;}
	.st25{fill:#FFFFFF;stroke:#FFFFFF;stroke-width:1.05;stroke-miterlimit:10;}
	.st26{fill:none;stroke:#4FBDD7;stroke-width:5;stroke-miterlimit:10;}
	.st27{fill:none;stroke:#FFFFFF;stroke-width:4;stroke-miterlimit:10;}
	.st28{fill:#8C8C8C;stroke:#FFFFFF;stroke-width:4;stroke-miterlimit:10;}
	.st29{fill:#FFFFFF;stroke:#FFFFFF;stroke-width:10;stroke-miterlimit:10;}
	.st30{fill:none;stroke:#4FBDD7;stroke-width:2;stroke-miterlimit:10;}
	.st31{fill-rule:evenodd;clip-rule:evenodd;fill:#FFFFFF;}
	.st32{fill:none;}
	.st33{font-family:'HelveticaNeue-CondensedBold';}
	.st34{font-size:54px;}
	.st35{fill:#FFFFFF;stroke:#FFFFFF;stroke-width:7;stroke-miterlimit:10;}
	.st36{fill:#FFFFFF;stroke:#4FBDD7;stroke-width:7;stroke-miterlimit:10;}
	.st37{fill:#FCFCFC;}
	.st38{fill:#FFFFFF;stroke:#FFFFFF;stroke-width:5;stroke-miterlimit:10;}
	.st39{fill:none;stroke:#FFFFFF;stroke-width:3;stroke-miterlimit:10;}
	.st40{fill:none;stroke:#FFFFFF;stroke-width:8;stroke-miterlimit:10;}
	.st41{fill:none;stroke:#FFFFFF;stroke-width:6;stroke-miterlimit:10;}
	.st42{fill:#FFFFFF;stroke:#4FBDD7;stroke-width:3;stroke-miterlimit:10;}
	.st43{fill:none;stroke:#FFFFFF;stroke-width:0.75;stroke-miterlimit:10;}
	.st44{fill:#4FBDD7;stroke:#FFFFFF;stroke-width:9;stroke-miterlimit:10;}
	.st45{fill:none;stroke:#FFFFFF;stroke-width:9;stroke-miterlimit:10;}
	.st46{fill:none;stroke:#4FBDD7;stroke-width:3;stroke-miterlimit:10;}
</style>
<rect class="st0" width="500" height="500"/>
<g id="surface1_2_">
	<path class="st2" d="M332.6,130.5c7.1-9.2,7.1-17.7,7.1-27.4V103c0-3.3-2.7-6-6-6h-0.5c-9.2,0-17.3,0-26.4,6.6
		c-15.3-4.2-33.1-6.6-50.6-6.6c-17.8,0-35.9,2.3-51.4,6.6c-9-6.6-17.1-6.6-26.4-6.6H178c-3.3,0-6,2.7-6,6v0.1c0,9.7,0,18.1,7.1,27.4
		c-6,26.8-8.7,49.9-8.4,72.5c0.3,20.2,2.9,40.3,8.4,64.9c-7.1,9.2-7.1,17.7-7.1,27.4v0.1c0,3.3,2.7,6,6,6h0.4c9.2,0,17.4,0,26.4-6.6
		c15.5,4.3,33.5,6.6,51.1,6.6c0.1,0,0.2,0,0.3,0c17.4,0,35.3-2.4,50.6-6.6c9,6.6,17.1,6.6,26.4,6.6h0.4c3.3,0,6-2.7,6-6v-0.1
		c0-9.7,0-18.1-7.1-27.4c5.5-24.5,8.1-44.5,8.4-64.4C341.3,180.8,338.6,157.5,332.6,130.5z M321.6,273.5c4.7,5.3,5.8,9.7,6,15.9
		c-6-0.2-10.3-1.2-15.6-5.7c-1.6-1.3-3.7-1.8-5.6-1.2c-14.9,4.5-32.8,7-50.2,7c-17.7,0-35.9-2.5-51-7c-0.6-0.2-1.1-0.3-1.7-0.3
		c-1.4,0-2.8,0.5-3.9,1.5c-5.2,4.5-9.5,5.5-15.6,5.7c0.2-6.2,1.3-10.6,6-15.9c1.3-1.5,1.8-3.4,1.4-5.3c-10.1-43.7-13.3-80.2,0-137.9
		c0.4-1.9-0.1-3.9-1.4-5.3c-4.7-5.3-5.8-9.7-6-15.9c6,0.2,10.3,1.2,15.5,5.7c1.6,1.3,3.7,1.8,5.6,1.2c15.1-4.5,33.2-7,51-7
		c17.5,0,35.4,2.5,50.2,7c2,0.6,4.1,0.1,5.6-1.2c5.2-4.5,9.5-5.5,15.5-5.7c-0.2,6.2-1.3,10.6-6,15.9c-1.3,1.5-1.8,3.4-1.4,5.3
		c13.3,57.7,10.1,94.2,0,137.9C319.8,270,320.3,272,321.6,273.5z"/>
	<path class="st2" d="M297.8,150.9c0-3.3-2.7-6-6-6c-11.7,0-22.3,4.8-29.9,12.6v-6.6c0-3.3-2.7-6-6-6s-6,2.7-6,6v6.6
		c-7.6-7.8-18.2-12.6-29.9-12.6c-3.3,0-6,2.7-6,6c0,21.1,15.6,38.6,35.9,41.5v13c-7.6-7.8-18.2-12.6-29.9-12.6c-3.3,0-6,2.7-6,6
		c0,21.1,15.6,38.6,35.9,41.5v18.8c0,3.3,2.7,6,6,6s6-2.7,6-6v-18.8c20.3-2.9,35.9-20.4,35.9-41.5c0-3.3-2.7-6-6-6
		c-11.7,0-22.3,4.8-29.9,12.6v-13C282.1,189.5,297.8,172,297.8,150.9z M285,157.6c-2.6,11.1-11.3,19.8-22.4,22.4
		C265.2,169,273.9,160.2,285,157.6z M226.7,157.6c11.1,2.6,19.8,11.3,22.4,22.4C238,177.5,229.2,168.7,226.7,157.6z M226.7,205.6
		c11.1,2.6,19.8,11.3,22.4,22.4C238,225.4,229.2,216.6,226.7,205.6z M285,205.6c-2.6,11.1-11.3,19.8-22.4,22.4
		C265.2,216.9,273.9,208.1,285,205.6z"/>
</g>
<g>
	<rect x="1" y="363" class="st32" width="500" height="144"/>
	<text transform="matrix(1 0 0 1 147.0518 401.5557)"><tspan x="0" y="0" class="st2 st33 st34">Graines &amp; </tspan><tspan x="-105.3" y="64.8" class="st2 st33 st34">plantations potager</tspan></text>
</g>
</svg>
