<?xml version="1.0" encoding="utf-8"?>
<!-- Generator: Adobe Illustrator 22.1.0, SVG Export Plug-In . SVG Version: 6.00 Build 0)  -->
<svg version="1.1" id="Calque_1" xmlns="http://www.w3.org/2000/svg" x="0px" y="0px"
     viewBox="0 0 500 500" style="enable-background:new 0 0 500 500;" xml:space="preserve">
<style type="text/css">
	.st0{fill:#4FBDD7;}
	.st1{fill:#EAEAEA;}
	.st2{fill:#FFFFFF;}
	.st3{fill:#4FBDD7;stroke:#FFFFFF;stroke-width:5;stroke-miterlimit:10;}
	.st4{fill:#8C8C8C;}
	.st5{fill:#070707;}
	.st6{fill:none;stroke:#FFFFFF;stroke-width:7;stroke-miterlimit:10;}
	.st7{fill:none;stroke:#FFFFFF;stroke-width:10;stroke-miterlimit:10;}
	.st8{fill:#FFFFFF;stroke:#FFFFFF;stroke-width:3;stroke-miterlimit:10;}
	.st9{fill:none;stroke:#FDFFFF;stroke-width:6;stroke-miterlimit:10;}
	.st10{fill:#FAFEFF;}
	.st11{fill:none;stroke:#FFFFFF;stroke-width:2;stroke-miterlimit:10;}
	.st12{fill:#FFFFFF;stroke:#FFFFFF;stroke-width:2;stroke-miterlimit:10;}
	.st13{fill:#4FBDD7;stroke:#FFFFFF;stroke-width:4;stroke-miterlimit:10;}
	.st14{fill:#FFFFFF;stroke:#FFFFFF;stroke-width:4;stroke-miterlimit:10;}
	.st15{fill:none;stroke:#FFFFFF;stroke-miterlimit:10;}
	.st16{fill:#FFFFFF;stroke:#FFFFFF;stroke-width:13;stroke-miterlimit:10;}
	.st17{fill:#4FBDD7;stroke:#FFFFFF;stroke-width:8;stroke-miterlimit:10;}
	.st18{fill:#FFFFFF;stroke:#FFFFFF;stroke-width:0.75;stroke-miterlimit:10;}
	.st19{fill:#FFFFFF;stroke:#FFFFFF;stroke-width:0.5;stroke-miterlimit:10;}
	.st20{fill:#FFFFFF;stroke:#FFFFFF;stroke-width:8;stroke-miterlimit:10;}
	.st21{fill:#FFFFFF;stroke:#FFFFFF;stroke-miterlimit:10;}
	.st22{fill:#FFFFFF;stroke:#FFFFFF;stroke-width:11;stroke-miterlimit:10;}
	.st23{fill:#FFFFFF;stroke:#FFFFFF;stroke-width:6;stroke-miterlimit:10;}
	.st24{fill:#8C8C8C;stroke:#8C8C8C;stroke-width:4;stroke-miterlimit:10;}
	.st25{fill:#FFFFFF;stroke:#FFFFFF;stroke-width:1.05;stroke-miterlimit:10;}
	.st26{fill:none;stroke:#4FBDD7;stroke-width:5;stroke-miterlimit:10;}
	.st27{fill:none;stroke:#FFFFFF;stroke-width:4;stroke-miterlimit:10;}
	.st28{fill:#8C8C8C;stroke:#FFFFFF;stroke-width:4;stroke-miterlimit:10;}
	.st29{fill:#FFFFFF;stroke:#FFFFFF;stroke-width:10;stroke-miterlimit:10;}
	.st30{fill:none;stroke:#4FBDD7;stroke-width:2;stroke-miterlimit:10;}
	.st31{fill-rule:evenodd;clip-rule:evenodd;fill:#FFFFFF;}
	.st32{fill:#FFFFFF;stroke:#FFFFFF;stroke-width:7;stroke-miterlimit:10;}
	.st33{fill:#FFFFFF;stroke:#4FBDD7;stroke-width:7;stroke-miterlimit:10;}
	.st34{fill:#FCFCFC;}
	.st35{fill:#FFFFFF;stroke:#FFFFFF;stroke-width:5;stroke-miterlimit:10;}
	.st36{fill:none;stroke:#FFFFFF;stroke-width:3;stroke-miterlimit:10;}
	.st37{fill:none;stroke:#FFFFFF;stroke-width:8;stroke-miterlimit:10;}
	.st38{fill:none;stroke:#FFFFFF;stroke-width:6;stroke-miterlimit:10;}
	.st39{fill:#FFFFFF;stroke:#4FBDD7;stroke-width:3;stroke-miterlimit:10;}
	.st40{fill:none;stroke:#FFFFFF;stroke-width:0.75;stroke-miterlimit:10;}
	.st41{fill:#4FBDD7;stroke:#FFFFFF;stroke-width:9;stroke-miterlimit:10;}
	.st42{fill:none;stroke:#FFFFFF;stroke-width:9;stroke-miterlimit:10;}
	.st43{fill:none;stroke:#4FBDD7;stroke-width:3;stroke-miterlimit:10;}
	.st44{fill:none;}
	.st45{font-family:'HelveticaNeue-CondensedBold';}
	.st46{font-size:54px;}
	.st47{fill:none;stroke:#FFFFFF;stroke-width:5;stroke-miterlimit:10;}
</style>
<rect class="st0" width="500" height="500"/>
<g>
	<rect x="3" y="360" class="st44" width="500" height="144"/>
	<text transform="matrix(1 0 0 1 106.0957 398.5557)" class="st2 st45 st46">Guitare basse</text>
</g>
<path class="st2" d="M278.4,41.9l-7.4-0.1c0-0.1,0-0.2,0-0.3c1-4.9-1-7.4-2.7-8.6c-4.2-2.8-8.9,0.5-10.5,1.6
	c-2.4,1.7-5.1,4.1-7.9,7.1l-9.7-0.1c-6.3-0.1-5.8,9.8,0.6,9.8l1,0c-0.6,0.8-1.2,1.7-1.8,2.6l-7.3-0.1c-6.3-0.1-5.8,9.8,0.6,9.8
	l1.1,0c-0.5,1-0.9,2-1.2,3l-4.6,0c-6.3-0.1-5.8,9.8,0.6,9.8c2.9-0.8,2.5,0.7,3.9,2.6l7,9.9c3.3,36.4,6.6,72.7,9.9,109.1
	c-4.3-12.7-10.4-23.7-18-33c0,0,0,0,0,0c0,0,0,0,0,0c0,0-4.1-5-6.1-8.2c-5.8-9.3-5.7-13.5-7.1-21c-0.7-3.6-5.1-5.5-7.9-3.5
	c-19.2,14-7.7,58.6,2.1,73c2.8,4,6.5,8,7.9,12.7c2.2,7.2-2.4,14.7-5.3,18.6c-1.7,2.3-3.7,4.4-5.7,6.7c-3.5,3.8-7.1,7.8-9.8,12.6
	c-5.2,9.2-6.3,20.5-3,31.7c3.7,12.6,12.7,24.2,24.1,31c10.6,6.4,23.4,10,38,10.8c12.4,0.7,25.5-0.8,37.8-4.3
	c12.6-3.5,20.6-8.8,25.7-14.2c5-5.3,7.2-10.6,8.2-14.4c3.6-14.2-3.2-26-9.2-36.4c-1.4-2.4-2.9-5-4.2-7.5
	c-5.8-11.2-7.3-23.8-3.9-34.7c0.8-2.6,2-5.3,3.2-8.1c3.8-8.8,8.2-18.8,3.1-29.8c-4-8.8-12.9-8.1-17.7-1.4l-13.6,18.9
	c-0.3,0.5-1.2,1.6-1.5,1.8c-0.3,0.1-1.1-0.1-3.2-1.1c-3.1-1.5-6.1-2.9-9.2-4.4l-6-104.4l4.9-6.5c1.3-1.8,2.2-3.8,2.4-6l3.1,0
	c6.2,0.1,5.8-9.8-0.6-9.8l-4.4,0c-0.3-0.9-0.6-2-0.9-3l5.2,0.1c6.2,0.1,5.8-9.8-0.6-9.8l-6.8-0.1c-0.1-0.9-0.2-1.7-0.3-2.6l8.2,0.1
	c2.7-0.6,4.4-3.2,4-5.7C282.6,43.9,280.8,42.1,278.4,41.9z M268.5,257.3l-9-0.1l-9.4-164.7l9,0.1L268.5,257.3z M280.1,207.1
	c0,0,6.3,3.2,10.8,1.6c3-1.1,4.7-3.4,5.8-5l13.6-18.9c0.3-0.4,0.5-0.7,0.7-0.9c3.1,6.9,0,14.1-3.4,21.7c-1.3,3-2.6,6-3.6,9.1
	c-4.1,13.2-2.4,28.6,4.7,42.2c1.4,2.7,2.9,5.3,4.4,7.9c5.8,9.9,10.7,18.5,8.1,28.9c-3.4,13.4-18.8,19.6-27.6,22.1
	c-19.4,5.5-47.5,6.9-67.9-5.4c-9.1-5.5-16.3-14.8-19.3-24.9c-1.8-6.1-2.9-15.3,2.2-24.3c2.2-3.9,5.4-7.4,8.6-11
	c2.1-2.3,4.2-4.7,6.2-7.2c6.9-9,9.3-18.7,6.8-27.1c-1.5-4.8-4.3-8.7-7-12.4c-10.5-14.3-15.5-25.7-12.4-34.9c1.4-4.1,4.6-7.7,6.6-7.3
	c1.9,0.4,1.9,4.8,7.5,10.2c0,0,0,0,0,0c5,6.1,10.1,13.3,15.1,21.7c2.7,4.5,5,8.8,7,13c1,18.7,2,37.3,3,56c0.2,2.7,2.5,4.9,5.2,5
	l18.8,0.2c2.7,0,4.8-2.2,4.6-4.9l-3.3-57.5C278.5,206.3,280.1,207.1,280.1,207.1L280.1,207.1z"/>
</svg>
