<?xml version="1.0" encoding="utf-8"?>
<!-- Generator: Adobe Illustrator 22.1.0, SVG Export Plug-In . SVG Version: 6.00 Build 0)  -->
<svg version="1.1" id="Calque_1" xmlns="http://www.w3.org/2000/svg" x="0px" y="0px"
     viewBox="0 0 500 500" style="enable-background:new 0 0 500 500;" xml:space="preserve">
<style type="text/css">
	.st0{fill:#4FBDD7;}
	.st1{fill:#EAEAEA;}
	.st2{fill:#FFFFFF;}
	.st3{fill:#4FBDD7;stroke:#FFFFFF;stroke-width:5;stroke-miterlimit:10;}
	.st4{fill:#8C8C8C;}
	.st5{fill:#070707;}
	.st6{fill:none;stroke:#FFFFFF;stroke-width:7;stroke-miterlimit:10;}
	.st7{fill:none;stroke:#FFFFFF;stroke-width:10;stroke-miterlimit:10;}
	.st8{fill:#FFFFFF;stroke:#FFFFFF;stroke-width:3;stroke-miterlimit:10;}
	.st9{fill:none;stroke:#FDFFFF;stroke-width:6;stroke-miterlimit:10;}
	.st10{fill:#FAFEFF;}
	.st11{fill:none;stroke:#FFFFFF;stroke-width:2;stroke-miterlimit:10;}
	.st12{fill:#FFFFFF;stroke:#FFFFFF;stroke-width:2;stroke-miterlimit:10;}
	.st13{fill:#4FBDD7;stroke:#FFFFFF;stroke-width:4;stroke-miterlimit:10;}
	.st14{fill:#FFFFFF;stroke:#FFFFFF;stroke-width:4;stroke-miterlimit:10;}
	.st15{fill:none;stroke:#FFFFFF;stroke-miterlimit:10;}
	.st16{fill:#FFFFFF;stroke:#FFFFFF;stroke-width:13;stroke-miterlimit:10;}
	.st17{fill:#4FBDD7;stroke:#FFFFFF;stroke-width:8;stroke-miterlimit:10;}
	.st18{fill:#FFFFFF;stroke:#FFFFFF;stroke-width:0.75;stroke-miterlimit:10;}
	.st19{fill:#FFFFFF;stroke:#FFFFFF;stroke-width:0.5;stroke-miterlimit:10;}
	.st20{fill:#FFFFFF;stroke:#FFFFFF;stroke-width:8;stroke-miterlimit:10;}
	.st21{fill:#FFFFFF;stroke:#FFFFFF;stroke-miterlimit:10;}
	.st22{fill:#FFFFFF;stroke:#FFFFFF;stroke-width:11;stroke-miterlimit:10;}
	.st23{fill:#FFFFFF;stroke:#FFFFFF;stroke-width:6;stroke-miterlimit:10;}
	.st24{fill:#8C8C8C;stroke:#8C8C8C;stroke-width:4;stroke-miterlimit:10;}
	.st25{fill:#FFFFFF;stroke:#FFFFFF;stroke-width:1.05;stroke-miterlimit:10;}
	.st26{fill:none;stroke:#4FBDD7;stroke-width:5;stroke-miterlimit:10;}
	.st27{fill:none;stroke:#FFFFFF;stroke-width:4;stroke-miterlimit:10;}
	.st28{fill:#8C8C8C;stroke:#FFFFFF;stroke-width:4;stroke-miterlimit:10;}
	.st29{fill:#FFFFFF;stroke:#FFFFFF;stroke-width:10;stroke-miterlimit:10;}
	.st30{fill:none;stroke:#4FBDD7;stroke-width:2;stroke-miterlimit:10;}
	.st31{fill:none;}
	.st32{font-family:'HelveticaNeue-CondensedBold';}
	.st33{font-size:54px;}
	.st34{fill-rule:evenodd;clip-rule:evenodd;fill:#FFFFFF;}
	.st35{fill:#FFFFFF;stroke:#FFFFFF;stroke-width:7;stroke-miterlimit:10;}
	.st36{fill:#FFFFFF;stroke:#4FBDD7;stroke-width:7;stroke-miterlimit:10;}
	.st37{fill:#FCFCFC;}
	.st38{fill:#FFFFFF;stroke:#FFFFFF;stroke-width:5;stroke-miterlimit:10;}
	.st39{fill:none;stroke:#FFFFFF;stroke-width:3;stroke-miterlimit:10;}
	.st40{fill:none;stroke:#FFFFFF;stroke-width:8;stroke-miterlimit:10;}
	.st41{fill:none;stroke:#FFFFFF;stroke-width:6;stroke-miterlimit:10;}
	.st42{fill:#FFFFFF;stroke:#4FBDD7;stroke-width:3;stroke-miterlimit:10;}
	.st43{fill:none;stroke:#FFFFFF;stroke-width:0.75;stroke-miterlimit:10;}
	.st44{fill:#4FBDD7;stroke:#FFFFFF;stroke-width:9;stroke-miterlimit:10;}
	.st45{fill:none;stroke:#FFFFFF;stroke-width:9;stroke-miterlimit:10;}
	.st46{fill:none;stroke:#4FBDD7;stroke-width:3;stroke-miterlimit:10;}
</style>
<rect x="-1" y="-1" class="st0" width="500" height="500"/>
<path class="st2" d="M181.6,239.2c-1.8-2-4.9-2-6.7,0l-10.3,11c-1.9,2-1.9,5.2,0,7.2l12.8,13.7c1.8,2,4.9,2,6.7,0l10.3-11
	c1.8-2,1.8-5.2,0-7.2L181.6,239.2z"/>
<path class="st2" d="M191.8,228.3c-4.3-4.6-11.1,2.6-6.7,7.2l12.8,13.7c4.2,4.5,11.1-2.6,6.7-7.2L191.8,228.3z"/>
<path class="st2" d="M374.6,85.4l-5.1-5.4c0.1-0.1,0.2-0.1,0.2-0.2c4.2-2.7,4.7-5.8,4.3-7.9c-0.9-5-6.5-6.1-8.4-6.5
	c-2.8-0.6-6.5-0.8-10.6-0.8l-6.6-7.1c-4.3-4.6-11.1,2.6-6.7,7.2l0.7,0.8c-1,0.1-2.1,0.3-3.1,0.5l-5-5.3c-4.3-4.6-11.1,2.6-6.7,7.2
	l0.7,0.8c-1.1,0.4-2.1,0.8-3,1.2l-3.1-3.3c-4.3-4.6-11.1,2.6-6.7,7.2c2.6,1.5,1.3,2.3,0.8,4.6l-2.3,11.9l-60,64.3
	c-0.8-6.2-1-12-0.6-17.6c0,0,0,0,0,0c0,0,0,0,0,0c0.8-12.1,5.4-20.6,12-29.8c2.1-2.9,0.5-7.5-3-8.1c-23.3-4.2-47.7,34.9-51.3,51.9
	c-1,4.8-1.3,10.2-3.7,14.5c-3.7,6.6-12.3,8.4-17.1,9c-2.8,0.3-5.7,0.4-8.8,0.5c-5.2,0.1-10.5,0.3-15.9,1.6
	c-10.3,2.6-19.2,9.6-25,19.7c-6.5,11.3-8.7,25.9-5.8,38.8c2.7,12.1,8.9,23.9,18.4,35c8.1,9.4,18.2,17.9,29.2,24.4
	c11.3,6.7,20.6,8.8,28,8.8c7.3,0,12.7-2.1,16.1-4c12.8-7.2,16.6-20.3,20-31.8c0.8-2.7,1.6-5.5,2.5-8.2c4.1-12,12.2-21.7,22.4-26.8
	c2.4-1.2,5.2-2.2,8.1-3.3c9-3.3,19.3-7,23.7-18.3c3.5-9-3-14.9-11.2-13.8l-23.1,3.3c-0.6,0.1-2,0.3-2.3,0.1
	c-0.2-0.2-0.7-0.8-1.4-3.1c-1.1-3.3-2.1-6.5-3.1-9.7l71.4-76.4l8-0.9c2.2-0.3,4.3-1.1,6-2.4l2.1,2.2c4.2,4.5,11.1-2.6,6.7-7.2
	l-3-3.2c0.5-0.9,1-1.8,1.6-2.8l3.5,3.8c4.2,4.5,11.1-2.6,6.7-7.2l-4.6-4.9c0.5-0.7,1.1-1.4,1.6-2l5.6,6
	C372.1,97.1,378.9,90,374.6,85.4z M212,226.9l-6.1-6.6L318.5,99.8l6.1,6.6L212,226.9z M256.3,200.7c0.8,2.4,2.3,6.9,6.3,8.9
	c2.8,1.4,5.7,1,7.6,0.8l23.1-3.3c0.5-0.1,0.8-0.1,1.1-0.1c-2.8,7-10.2,9.7-18,12.5c-3,1.1-6.1,2.2-9,3.7
	c-12.4,6.2-22.4,18-27.3,32.5c-1,2.9-1.8,5.8-2.7,8.6c-3.2,11-6,20.6-15.3,25.8c-12.1,6.8-27.2,0-35.1-4.7
	c-17.4-10.3-37.8-29.6-43-52.8c-2.3-10.4-0.6-22,4.6-31.1c3.2-5.5,9.1-12.6,19.1-15.1c4.4-1.1,9-1.2,14-1.4c3.1-0.1,6.3-0.2,9.5-0.5
	c11.3-1.2,20-6.1,24.3-13.8c2.5-4.4,3.3-9.1,4.1-13.7c3.1-17.5,7.9-29,16.6-33c3.9-1.8,8.7-2,9.8-0.3c1,1.6-2.2,4.6-2.2,12.4
	c0,0,0,0,0,0c-0.4,6.5-0.2,13.2,0.7,20.3c0.3,2.2,0.6,4.5,1.1,6.8l-50.1,53.6c-1.8,2-1.8,5.2,0,7.2l12.8,13.7c1.8,2,4.9,2,6.7,0
	l39.3-42.1C255.2,197.3,255.7,199,256.3,200.7C257.1,203.1,255.7,199,256.3,200.7z M340.5,100.2l-7.4,0.9c-3.1-3.4-6.3-6.7-9.4-10.1
	l1.8-9.6c1.7-1.8,7.8-4.6,19.2-6c5-0.6,10.2-0.9,15.2-0.5c-7.9,7.1-13.6,17.2-16.5,23.2C342.8,99.3,341.8,100,340.5,100.2z"/>
<g>
	<rect x="-2" y="363" class="st31" width="500" height="144"/>
	<text transform="matrix(1 0 0 1 57.1128 401.5557)" class="st2 st32 st33">Guitare électrique</text>
</g>
</svg>
