<svg height="512pt" viewBox="0 0 512 512" width="512pt" xmlns="http://www.w3.org/2000/svg"><path d="m40 209.433594v46.566406c0 5.519531 4.476562 10 10 10s10-4.480469 10-10v-32.078125c17.265625 9.960937 36.898438 15.53125 57 16.039063v26.039062h-7c-16.542969 0-30 13.457031-30 30s13.457031 30 30 30h7.414062c.539063 6.75 1.476563 14.292969 3.097657 19.160156 7.476562 22.429688 32.824219 46.738282 37.933593 51.480469 1.914063 2.980469 2.113282 6.601563.5 9.828125-1.730468 3.464844-5.074218 5.53125-8.945312 5.53125h-60c-16.542969 0-30-13.457031-30-30v-46c0-5.523438-4.476562-10-10-10s-10 4.476562-10 10v46c0 24.144531 17.203125 44.347656 40 48.992188v11.007812c0 13.3125 8.71875 24.621094 20.742188 28.53125 4.0625 23.519531 24.597656 41.46875 49.257812 41.46875h286c5.523438 0 10-4.476562 10-10s-4.476562-10-10-10h-286c-13.816406 0-25.472656-9.390625-28.941406-22.121094 11.082031-4.410156 18.941406-15.242187 18.941406-27.878906v-10h10c24.707031 0 38.824219-28.238281 24-48.003906-.390625-.515625-.824219-.992188-1.304688-1.425782-7.40625-6.675781-27.8125-27.546874-33.210937-43.734374-1.605469-4.828126-2.484375-17.351563-2.484375-22.835938v-77.210938c20.515625-2.910156 16.726562-4.132812 199.03125-68.1875l82.675781 28.839844c6.457031 2.25 13.292969-2.523437 13.292969-9.441406v-160c0-6.878906-6.796875-11.703125-13.292969-9.441406l-83.195312 29.019531c-191.117188-46.117187-190.230469-49.578125-215.511719-49.578125-65.378906 0-120 52.996094-120 120 0 34.320312 14.523438 66.644531 40 89.433594zm77 96.566406h-7c-5.515625 0-10-4.484375-10-10s4.484375-10 10-10h7zm3 136c0 5.515625-4.484375 10-10 10s-10-4.484375-10-10v-10h20zm226-374.898438 66-23.023437v131.84375l-66-23.023437zm-226-47.101562c21.304688 0 18.386719 2.417969 206 47.832031v85.109375c-176.90625 61.695313-178.296875 67.058594-206 67.058594-23.203125 0-45.800781-8.113281-63.628906-22.847656 0 0-.003906 0-.003906-.003906-23.109376-19.089844-36.367188-47.210938-36.367188-77.148438 0-55.917969 45.59375-100 100-100zm0 0"/><path d="m120 190c38.652344 0 70-31.484375 70-70 0-38.503906-31.328125-70-70-70-38.652344 0-70 31.484375-70 70 0 38.503906 31.328125 70 70 70zm0-20c-15.972656 0-30.6875-7.664062-39.976562-20.011719h79.953124c-9.289062 12.347657-24.003906 20.011719-39.976562 20.011719zm0-100c15.972656 0 30.6875 7.65625 39.976562 20h-79.953124c9.289062-12.34375 24.003906-20 39.976562-20zm-48.984375 40h97.972656c.667969 3.273438 1.011719 6.617188 1.011719 10s-.34375 6.726562-1.011719 10h-97.972656c-.671875-3.273438-1.015625-6.617188-1.015625-10s.347656-6.726562 1.015625-10zm0 0"/><path d="m502 100h-40c-5.523438 0-10 4.476562-10 10s4.476562 10 10 10h40c5.523438 0 10-4.476562 10-10s-4.476562-10-10-10zm0 0"/><path d="m502 60h-40c-5.523438 0-10 4.476562-10 10s4.476562 10 10 10h40c5.523438 0 10-4.476562 10-10s-4.476562-10-10-10zm0 0"/><path d="m502 140h-40c-5.523438 0-10 4.476562-10 10s4.476562 10 10 10h40c5.523438 0 10-4.476562 10-10s-4.476562-10-10-10zm0 0"/><path d="m60 296c0 5.523438-4.476562 10-10 10s-10-4.476562-10-10 4.476562-10 10-10 10 4.476562 10 10zm0 0"/></svg>