<?xml version="1.0" encoding="utf-8"?>
<!-- Generator: Adobe Illustrator 22.1.0, SVG Export Plug-In . SVG Version: 6.00 Build 0)  -->
<svg version="1.1" id="Calque_1" xmlns="http://www.w3.org/2000/svg" xmlns:xlink="http://www.w3.org/1999/xlink" x="0px" y="0px"
	 viewBox="0 0 500 500" style="enable-background:new 0 0 500 500;" xml:space="preserve">
<style type="text/css">
	.st0{fill:#4FBDD7;}
	.st1{fill:#EAEAEA;}
	.st2{fill:#FFFFFF;}
	.st3{fill:#4FBDD7;stroke:#FFFFFF;stroke-width:5;stroke-miterlimit:10;}
	.st4{fill:#8C8C8C;}
	.st5{fill:#070707;}
	.st6{fill:none;stroke:#FFFFFF;stroke-width:7;stroke-miterlimit:10;}
	.st7{fill:none;stroke:#FFFFFF;stroke-width:10;stroke-miterlimit:10;}
	.st8{fill:#FFFFFF;stroke:#FFFFFF;stroke-width:3;stroke-miterlimit:10;}
	.st9{fill:none;stroke:#FDFFFF;stroke-width:6;stroke-miterlimit:10;}
	.st10{fill:#FAFEFF;}
	.st11{fill:none;stroke:#FFFFFF;stroke-width:2;stroke-miterlimit:10;}
	.st12{fill:#FFFFFF;stroke:#FFFFFF;stroke-width:2;stroke-miterlimit:10;}
	.st13{fill:#4FBDD7;stroke:#FFFFFF;stroke-width:4;stroke-miterlimit:10;}
	.st14{fill:#FFFFFF;stroke:#FFFFFF;stroke-width:4;stroke-miterlimit:10;}
	.st15{fill:none;stroke:#FFFFFF;stroke-miterlimit:10;}
	.st16{fill:#FFFFFF;stroke:#FFFFFF;stroke-width:13;stroke-miterlimit:10;}
	.st17{fill:#4FBDD7;stroke:#FFFFFF;stroke-width:8;stroke-miterlimit:10;}
	.st18{fill:#FFFFFF;stroke:#FFFFFF;stroke-width:0.75;stroke-miterlimit:10;}
	.st19{fill:#FFFFFF;stroke:#FFFFFF;stroke-width:0.5;stroke-miterlimit:10;}
	.st20{fill:#FFFFFF;stroke:#FFFFFF;stroke-width:8;stroke-miterlimit:10;}
	.st21{fill:#FFFFFF;stroke:#FFFFFF;stroke-miterlimit:10;}
	.st22{fill:#FFFFFF;stroke:#FFFFFF;stroke-width:11;stroke-miterlimit:10;}
	.st23{fill:#FFFFFF;stroke:#FFFFFF;stroke-width:6;stroke-miterlimit:10;}
	.st24{fill:#8C8C8C;stroke:#8C8C8C;stroke-width:4;stroke-miterlimit:10;}
	.st25{fill:#FFFFFF;stroke:#FFFFFF;stroke-width:1.05;stroke-miterlimit:10;}
	.st26{fill:none;stroke:#4FBDD7;stroke-width:5;stroke-miterlimit:10;}
	.st27{fill:none;stroke:#FFFFFF;stroke-width:4;stroke-miterlimit:10;}
	.st28{fill:#8C8C8C;stroke:#FFFFFF;stroke-width:4;stroke-miterlimit:10;}
	.st29{fill:#FFFFFF;stroke:#FFFFFF;stroke-width:10;stroke-miterlimit:10;}
	.st30{fill:none;stroke:#4FBDD7;stroke-width:2;stroke-miterlimit:10;}
	.st31{fill-rule:evenodd;clip-rule:evenodd;fill:#FFFFFF;}
	.st32{fill:#FFFFFF;stroke:#FFFFFF;stroke-width:7;stroke-miterlimit:10;}
	.st33{fill:#FFFFFF;stroke:#4FBDD7;stroke-width:7;stroke-miterlimit:10;}
	.st34{fill:none;}
	.st35{font-family:'HelveticaNeue-CondensedBold';}
	.st36{font-size:54px;}
	.st37{fill:#FCFCFC;}
	.st38{fill:#FFFFFF;stroke:#FFFFFF;stroke-width:5;stroke-miterlimit:10;}
	.st39{fill:none;stroke:#FFFFFF;stroke-width:3;stroke-miterlimit:10;}
	.st40{fill:none;stroke:#FFFFFF;stroke-width:8;stroke-miterlimit:10;}
	.st41{fill:none;stroke:#FFFFFF;stroke-width:6;stroke-miterlimit:10;}
	.st42{fill:#FFFFFF;stroke:#4FBDD7;stroke-width:3;stroke-miterlimit:10;}
	.st43{fill:none;stroke:#FFFFFF;stroke-width:0.75;stroke-miterlimit:10;}
	.st44{fill:#4FBDD7;stroke:#FFFFFF;stroke-width:9;stroke-miterlimit:10;}
	.st45{fill:none;stroke:#FFFFFF;stroke-width:9;stroke-miterlimit:10;}
	.st46{fill:none;stroke:#4FBDD7;stroke-width:3;stroke-miterlimit:10;}
</style>
<rect x="1" class="st0" width="500" height="500"/>
<g>
	<rect y="375" class="st34" width="500" height="118"/>
	<text transform="matrix(1 0 0 1 182.9863 413.5557)" class="st2 st35 st36">Henné</text>
</g>
<path class="st2" d="M211,117h-44c-6.1,0-11,4.9-11,11v124.6c0,6.1,4.9,11,11,11h7.3c2,0,3.7,1.6,3.7,3.7v7.3c0,0.3,0,0.7,0.1,1
	l7.3,26.4c0.4,1.6,1.9,2.7,3.5,2.7c1.6,0,3.1-1.1,3.5-2.7c0,0,7.3-26.4,7.3-26.4c0.1-0.3,0.1-0.7,0.1-1v-7.3c0-2,1.6-3.7,3.7-3.7
	h7.3c6.1,0,11-4.9,11-11V128C222,121.9,217,117,211,117z M163.3,128c0-2,1.6-3.7,3.7-3.7h44c2,0,3.7,1.6,3.7,3.7v3.7h-51.3V128z
	 M214.6,252.6c0,2-1.6,3.7-3.7,3.7h-7.3c-6.1,0-11,4.9-11,11v3.7h-7.3v-3.7c0-6.1-4.9-11-11-11H167c-2,0-3.7-1.6-3.7-3.7v-3.7h51.3
	V252.6z M214.6,241.6h-51.3v-7.3h51.3V241.6z M214.6,226.9h-51.3v-66h0v-7.3h0V139h51.3v14.7c0,5.4,0,10.7,0,16.1c0,0.1,0,0.3,0,0.4
	V226.9z"/>
<g>
	<path class="st2" d="M184.8,173c0-0.1,0.2-0.1,0.4,0c0.2,0.1,0.4,0.1,0.6,0.3c0.2,0.1,0.4,0.3,0.5,0.5c0.1,0.2,0.2,0.4,0.1,0.5
		c-0.4,0.5-0.8,1.1-1.2,1.7c-0.4,0.6-0.8,1.3-1.2,2c-0.4,0.7-0.8,1.4-1.1,2.2c-0.4,0.7-0.7,1.5-1,2.2c0.3,0.2,0.6,0.3,0.9,0.5
		c0.3,0.2,0.6,0.3,0.9,0.4h0c0.1,0,0.1,0.1,0,0.1c0,0.1-0.1,0.1-0.2,0.2c-0.1,0.1-0.2,0.1-0.3,0.2c-0.1,0.1-0.2,0.1-0.2,0.1
		l-1.1-0.5l-0.4-0.2c-0.4,0.9-0.7,1.8-0.9,2.6c-0.2,0.8-0.4,1.5-0.4,2c0,0.1-0.1,0.1-0.2,0c-0.1-0.1-0.2-0.2-0.4-0.3
		c-0.1-0.1-0.3-0.3-0.4-0.4c-0.1-0.2-0.2-0.3-0.2-0.3c0-0.5,0.1-1.1,0.3-1.8s0.4-1.5,0.7-2.3c-0.4-0.2-0.8-0.3-1.1-0.5
		c-0.4-0.1-0.7-0.3-1.1-0.4c-0.6,0.8-1.2,1.5-1.9,2.2c-0.7,0.7-1.4,1.3-2.1,1.9c-0.7,0.5-1.4,1-2.1,1.3c-0.7,0.3-1.4,0.5-2,0.5
		c-1.2,0-2.1-0.2-2.7-0.6c-0.6-0.4-0.9-1.1-0.9-2c0-0.7,0.2-1.4,0.6-2c0.4-0.6,0.9-1.1,1.6-1.6c0.7-0.4,1.4-0.8,2.2-1.1
		c0.8-0.3,1.6-0.4,2.5-0.5c0.1,0,0.3,0,0.4,0c0.1,0,0.3,0,0.4,0c0.6,0,1.2,0,1.7,0.1c0.5,0.1,1,0.2,1.5,0.3c0.4-0.6,0.8-1.1,1.1-1.7
		c0.3-0.6,0.6-1.1,0.9-1.6c0.2-0.5,0.5-0.9,0.6-1.4c0.2-0.4,0.2-0.7,0.3-1c0-0.4-0.1-0.8-0.3-1c-0.2-0.2-0.5-0.3-0.9-0.3
		c-0.6,0-1.2,0.2-1.8,0.5c-0.6,0.3-1.1,0.7-1.5,1.2c-0.5,0.5-0.8,1-1.2,1.6c-0.3,0.6-0.6,1.2-0.8,1.9h0c0,0.1-0.1,0.2-0.3,0.3
		c-0.2,0.1-0.4,0.2-0.5,0.2c-0.2,0.1-0.4,0.1-0.5,0.1c-0.2,0-0.2,0-0.2-0.1l0-0.2c0-0.1,0.1-0.3,0.1-0.4c0-0.1,0.1-0.2,0.1-0.3
		c0-0.1,0.1-0.2,0.1-0.3c0.1-0.1,0.1-0.3,0.2-0.4c0.3-0.6,0.6-1.1,1.1-1.7c0.4-0.6,0.9-1,1.5-1.5c0.6-0.4,1.2-0.8,1.8-1.1
		c0.6-0.3,1.3-0.4,1.9-0.4c0.4,0,0.7,0,1,0.2c0.3,0.1,0.6,0.3,0.8,0.5c0.2,0.2,0.4,0.4,0.6,0.7c0.1,0.3,0.2,0.6,0.2,0.9
		c0,0.4-0.1,0.8-0.3,1.2c-0.2,0.5-0.3,0.9-0.6,1.4c-0.2,0.5-0.5,1-0.9,1.6c-0.3,0.5-0.7,1.1-1.1,1.6c0.6,0.3,1.2,0.6,1.8,0.9
		c0.3-0.8,0.7-1.6,1-2.4c0.4-0.8,0.7-1.6,1.1-2.3c0.4-0.7,0.8-1.4,1.1-2.1C184.2,174,184.5,173.4,184.8,173z M169.1,186.3
		c0.6,0,1.3-0.1,1.9-0.4c0.6-0.3,1.3-0.7,1.9-1.2c0.6-0.5,1.2-1,1.8-1.7c0.6-0.6,1.2-1.3,1.7-2c-0.4-0.1-0.8-0.1-1.2-0.2
		c-0.4,0-0.8-0.1-1.3-0.1c-0.2,0-0.3,0-0.5,0c-0.2,0-0.3,0-0.5,0c-0.7,0.1-1.4,0.2-2.1,0.5c-0.7,0.2-1.3,0.5-1.9,0.9
		c-0.6,0.4-1,0.8-1.4,1.2c-0.3,0.4-0.5,0.9-0.5,1.3c0,0.3,0.1,0.5,0.3,0.8c0.1,0.2,0.3,0.4,0.5,0.5c0.2,0.1,0.4,0.2,0.6,0.3
		C168.7,186.3,168.9,186.3,169.1,186.3z"/>
	<path class="st2" d="M189.4,180.4c-0.4,0.7-0.9,1.4-1.6,1.8s-1.4,0.9-2.3,1.1v0.1c0,0.3,0.1,0.6,0.2,0.9c0.1,0.3,0.3,0.5,0.6,0.6
		c0.2,0,0.4,0,0.7,0c0.3-0.1,0.5-0.2,0.8-0.4c0.3-0.2,0.6-0.4,0.9-0.7c0.3-0.3,0.6-0.7,0.9-1.1c0.2-0.2,0.3-0.4,0.4-0.6
		c0.1-0.2,0.2-0.4,0.3-0.6c0.1-0.1,0.1-0.1,0.2-0.1c0.1,0,0.2,0,0.3,0c0.1,0,0.1,0.1,0.2,0.1c0,0.1,0,0.1,0,0.2l-0.3,0.4
		c-0.2,0.4-0.5,0.8-0.8,1.2c-0.3,0.5-0.7,0.9-1.2,1.4c-0.3,0.2-0.5,0.4-0.8,0.5c-0.3,0.1-0.5,0.2-0.8,0.3c-0.2,0.1-0.5,0.1-0.7,0.1
		c-0.2,0-0.4,0-0.5,0c-0.7,0-1.2-0.2-1.6-0.5c-0.4-0.3-0.6-0.8-0.6-1.4c0-0.5,0.1-1.1,0.3-1.6c0.2-0.5,0.6-1.1,1-1.7
		c0.2-0.2,0.4-0.4,0.6-0.7c0.3-0.2,0.6-0.5,0.9-0.6c0.3-0.2,0.7-0.4,1-0.5c0.4-0.1,0.7-0.2,1.1-0.2c0.4,0,0.6,0.1,0.9,0.3
		c0.2,0.2,0.3,0.4,0.3,0.7C189.7,179.8,189.6,180.1,189.4,180.4z M188.5,179.2c-0.4,0.1-0.7,0.3-1.1,0.5c-0.3,0.3-0.6,0.6-0.9,1
		c-0.3,0.4-0.5,0.7-0.7,1.1c-0.2,0.4-0.3,0.7-0.4,1c0.7-0.2,1.3-0.6,1.8-1.1c0.6-0.5,1-1,1.4-1.7c0.1-0.2,0.1-0.3,0.1-0.5
		c0-0.1,0-0.2-0.1-0.3C188.7,179.2,188.7,179.2,188.5,179.2z"/>
	<path class="st2" d="M196.7,183.7c-0.2,0.3-0.5,0.6-0.8,0.9c-0.3,0.3-0.6,0.5-0.9,0.7c-0.3,0.2-0.6,0.3-1,0.3c-0.2,0-0.4,0-0.5-0.1
		c-0.2-0.1-0.3-0.1-0.5-0.3c-0.1-0.1-0.2-0.3-0.3-0.4c-0.1-0.2-0.1-0.4-0.1-0.6c0-0.2,0-0.5,0.1-0.7c0.1-0.2,0.1-0.5,0.2-0.8
		c0.1-0.3,0.2-0.6,0.3-0.9c0.1-0.3,0.3-0.7,0.4-1.1c0.1-0.2,0.1-0.4,0.2-0.5c0.1-0.2,0.1-0.3,0.1-0.4c0-0.1-0.1-0.1-0.2-0.1
		c-0.1,0-0.3,0.2-0.6,0.4c-0.3,0.3-0.6,0.6-0.9,0.9c-0.3,0.3-0.6,0.6-0.8,1c-0.2,0.6-0.5,1.1-0.6,1.7c-0.2,0.6-0.3,1.2-0.3,1.8
		c0,0.1-0.1,0.1-0.2,0.1c-0.1,0-0.3-0.1-0.5-0.1c-0.2-0.1-0.3-0.2-0.5-0.3c-0.1-0.1-0.2-0.2-0.2-0.3c0-0.7,0.2-1.4,0.4-2.1
		c0.2-0.7,0.5-1.4,0.7-2.1c0.1-0.3,0.3-0.7,0.4-1c0.1-0.3,0.2-0.7,0.4-1.1c0.1-0.1,0.3-0.1,0.5,0c0.2,0.1,0.4,0.1,0.6,0.2
		c0.2,0.1,0.3,0.3,0.4,0.4c0.1,0.2,0.1,0.3,0.1,0.5h0c0,0,0,0,0,0c0.3-0.3,0.7-0.6,1.1-0.8c0.4-0.2,0.8-0.4,1.2-0.4
		c0.1,0,0.2,0,0.4,0.1c0.1,0.1,0.3,0.2,0.4,0.3c0.1,0.1,0.2,0.2,0.3,0.4c0.1,0.1,0.1,0.3,0,0.4c-0.2,0.4-0.3,0.8-0.5,1.2
		c-0.2,0.4-0.3,0.7-0.4,1c-0.1,0.2-0.2,0.5-0.3,0.7c-0.1,0.2-0.2,0.4-0.2,0.6c-0.1,0.2-0.1,0.4-0.2,0.6c0,0.2-0.1,0.5-0.1,0.7
		c0,0,0,0.1,0,0.1c0,0,0.1,0.1,0.2,0c0.2-0.1,0.6-0.3,0.9-0.7c0.4-0.3,0.7-0.8,1.1-1.3c0.2-0.3,0.3-0.5,0.5-0.8l0.2-0.4
		c0,0,0.1-0.1,0.2-0.1c0.1,0,0.2,0,0.2,0c0.1,0,0.1,0.1,0.2,0.1c0,0,0.1,0.1,0,0.2l-0.7,1.2C197.2,183.2,197,183.4,196.7,183.7z"/>
	<path class="st2" d="M204,183.7c-0.2,0.3-0.5,0.6-0.8,0.9c-0.3,0.3-0.6,0.5-0.9,0.7c-0.3,0.2-0.6,0.3-1,0.3c-0.2,0-0.4,0-0.5-0.1
		c-0.2-0.1-0.3-0.1-0.5-0.3c-0.1-0.1-0.2-0.3-0.3-0.4c-0.1-0.2-0.1-0.4-0.1-0.6c0-0.2,0-0.5,0.1-0.7c0.1-0.2,0.1-0.5,0.2-0.8
		c0.1-0.3,0.2-0.6,0.3-0.9c0.1-0.3,0.3-0.7,0.4-1.1c0.1-0.2,0.1-0.4,0.2-0.5c0.1-0.2,0.1-0.3,0.1-0.4c0-0.1-0.1-0.1-0.2-0.1
		c-0.1,0-0.3,0.2-0.6,0.4c-0.3,0.3-0.6,0.6-0.9,0.9c-0.3,0.3-0.6,0.6-0.8,1c-0.2,0.6-0.5,1.1-0.6,1.7c-0.2,0.6-0.3,1.2-0.3,1.8
		c0,0.1-0.1,0.1-0.2,0.1c-0.1,0-0.3-0.1-0.5-0.1s-0.3-0.2-0.5-0.3c-0.1-0.1-0.2-0.2-0.2-0.3c0-0.7,0.2-1.4,0.4-2.1
		c0.2-0.7,0.5-1.4,0.7-2.1c0.1-0.3,0.3-0.7,0.4-1c0.1-0.3,0.2-0.7,0.4-1.1c0.1-0.1,0.3-0.1,0.5,0c0.2,0.1,0.4,0.1,0.6,0.2
		c0.2,0.1,0.3,0.3,0.4,0.4c0.1,0.2,0.1,0.3,0.1,0.5h0c0,0,0,0,0,0c0.3-0.3,0.7-0.6,1.1-0.8c0.4-0.2,0.8-0.4,1.2-0.4
		c0.1,0,0.2,0,0.4,0.1c0.1,0.1,0.3,0.2,0.4,0.3c0.1,0.1,0.2,0.2,0.3,0.4c0.1,0.1,0.1,0.3,0,0.4c-0.2,0.4-0.3,0.8-0.5,1.2
		c-0.2,0.4-0.3,0.7-0.4,1c-0.1,0.2-0.2,0.5-0.3,0.7c-0.1,0.2-0.2,0.4-0.2,0.6c-0.1,0.2-0.1,0.4-0.2,0.6c0,0.2-0.1,0.5-0.1,0.7
		c0,0,0,0.1,0,0.1c0,0,0.1,0.1,0.2,0c0.2-0.1,0.6-0.3,0.9-0.7c0.4-0.3,0.7-0.8,1.1-1.3c0.2-0.3,0.3-0.5,0.5-0.8l0.2-0.4
		c0,0,0.1-0.1,0.2-0.1c0.1,0,0.2,0,0.2,0c0.1,0,0.1,0.1,0.2,0.1c0,0,0.1,0.1,0,0.2l-0.7,1.2C204.4,183.2,204.2,183.4,204,183.7z"/>
	<path class="st2" d="M209.7,180.4c-0.4,0.7-0.9,1.4-1.6,1.8s-1.4,0.9-2.3,1.1v0.1c0,0.3,0.1,0.6,0.2,0.9c0.1,0.3,0.3,0.5,0.6,0.6
		c0.2,0,0.4,0,0.7,0c0.3-0.1,0.5-0.2,0.8-0.4c0.3-0.2,0.6-0.4,0.9-0.7c0.3-0.3,0.6-0.7,0.9-1.1c0.2-0.2,0.3-0.4,0.4-0.6
		c0.1-0.2,0.2-0.4,0.3-0.6c0.1-0.1,0.1-0.1,0.2-0.1c0.1,0,0.2,0,0.3,0c0.1,0,0.1,0.1,0.2,0.1c0,0.1,0,0.1,0,0.2l-0.3,0.4
		c-0.2,0.4-0.5,0.8-0.8,1.2c-0.3,0.5-0.7,0.9-1.2,1.4c-0.3,0.2-0.5,0.4-0.8,0.5c-0.3,0.1-0.5,0.2-0.8,0.3c-0.2,0.1-0.5,0.1-0.7,0.1
		c-0.2,0-0.4,0-0.5,0c-0.7,0-1.2-0.2-1.6-0.5c-0.4-0.3-0.6-0.8-0.6-1.4c0-0.5,0.1-1.1,0.3-1.6c0.2-0.5,0.6-1.1,1-1.7
		c0.2-0.2,0.4-0.4,0.6-0.7c0.3-0.2,0.6-0.5,0.9-0.6c0.3-0.2,0.7-0.4,1-0.5c0.4-0.1,0.7-0.2,1.1-0.2c0.4,0,0.6,0.1,0.9,0.3
		c0.2,0.2,0.3,0.4,0.3,0.7C210,179.8,209.9,180.1,209.7,180.4z M208.8,179.2c-0.4,0.1-0.7,0.3-1.1,0.5c-0.3,0.3-0.6,0.6-0.9,1
		c-0.3,0.4-0.5,0.7-0.7,1.1c-0.2,0.4-0.3,0.7-0.4,1c0.7-0.2,1.3-0.6,1.8-1.1c0.6-0.5,1-1,1.4-1.7c0.1-0.2,0.1-0.3,0.1-0.5
		c0-0.1,0-0.2-0.1-0.3C209,179.2,209,179.2,208.8,179.2z M210.9,175.2c0,0,0.1,0,0.2,0.1c0.1,0.1,0.2,0.2,0.3,0.3s0.1,0.3,0.2,0.4
		c0.1,0.1,0.1,0.2,0,0.2c-0.4,0.3-0.7,0.5-1,0.6c-0.3,0.2-0.6,0.3-0.9,0.5h0l-0.6,0.3h0c-0.1,0.1-0.2,0.1-0.4,0.1
		c-0.1,0-0.2-0.1-0.1-0.2L210.9,175.2z"/>
</g>
<path class="st2" d="M267.3,166.5l0.9,6.7l6.2,2.1l3-3l-1.1-6.8l-3,3L267.3,166.5z"/>
<path class="st2" d="M257.1,203.1l-6.7-10.1c-1-1.5-2.7-2.4-4.5-2.4h-0.4c-3,0-5.4,2.4-5.4,5.4c0,0.9,0.3,1.9,0.7,2.7l5.5,9.4h7.4
	L257.1,203.1z"/>
<path class="st2" d="M266.5,161l5.4,1.8l3.4-3.4l-1.7-10.2c-0.3-2.1-2.1-3.5-4.2-3.5c-1.2,0-2.3,0.4-3,1.2c-0.8,0.8-1.2,1.8-1.2,2.9
	v0.5c0,0.2,0,0.4,0,0.6L266.5,161z"/>
<path class="st2" d="M256.4,225.3l0.7-2.9l-2.8-0.7L256.4,225.3z"/>
<path class="st2" d="M264,238.4l0.7-3.4l-3.1-0.8L264,238.4z"/>
<path class="st2" d="M292.6,165.7h10v5h-10V165.7z"/>
<path class="st2" d="M302.6,175.7h-10v12.5h10V175.7z M300.1,183.2h-5v-5h5V183.2z"/>
<path class="st2" d="M329.5,154.1l0.5-3.2c0-0.2,0-0.4,0-0.6c0-2.6-1.9-4.5-4.3-4.5c-2.1,0-3.8,1.4-4.1,3.4l-0.6,3.4l4.4,2.9
	L329.5,154.1z"/>
<path class="st2" d="M327.6,166.7l1.1-7.1l-4,1.3l-4.5-3l-1.2,7.3l4.5,2.8L327.6,166.7z"/>
<path class="st2" d="M302.6,143.2c0-2.8-2.2-5-5-5s-5,2.2-5,5v17.5h10V143.2z"/>
<path class="st2" d="M322.5,268h-5v-16.4l-5-5v11.5h-5v-16.4l-5-5v13.9h-5v-13.9l-5,5v16.4h-5v-11.5l-5,5V268h-5v-11.5l-2.5,2.5V283
	H325v-23.9l-2.5-2.5V268z M282.6,278h-5v-5h5V278z M292.6,268h-5v-5h5V268z M302.6,260.6h-5v-5h5V260.6z M312.6,268h-5v-5h5V268z
	 M322.5,278h-5v-5h5V278z"/>
<path class="st2" d="M307.6,220.6L307.6,220.6c0.9,0.7,1.8,1.6,2.5,2.6v-0.1h1c2-2.1,3.4-4.6,3.9-7.4c-2.8,0.5-5.3,1.9-7.4,3.9
	V220.6z"/>
<path class="st2" d="M290.1,223.1L290.1,223.1c0.7-0.9,1.6-1.8,2.6-2.5h-0.1v-1c-2.1-2-4.6-3.4-7.4-3.9c0.5,2.8,1.9,5.3,3.9,7.4
	H290.1z"/>
<path class="st2" d="M287.7,228.8l-0.7-0.7c-2.8,0-5.6,0.9-8,2.5c2.4,1.6,5.2,2.5,8.1,2.5h0.7c-0.2-0.8-0.3-1.6-0.3-2.5
	C287.6,230,287.7,229.4,287.7,228.8L287.7,228.8z"/>
<path class="st2" d="M300.1,209.5c-1.6,2.3-2.5,5.1-2.5,8l0.7,0.7l-0.1,0.1c0.6-0.1,1.2-0.2,1.8-0.2c0.6,0,1.2,0.1,1.8,0.2l-0.1-0.1
	l0.7-0.7C302.5,214.7,301.6,211.9,300.1,209.5z"/>
<path class="st2" d="M292.6,230.6c0,1.1,0.3,2.2,0.7,3.2l0.7-0.7c3.2-3.2,8.8-3.2,12.1,0l0.7,0.7c0.5-1,0.7-2.1,0.7-3.2
	c0-4.1-3.4-7.5-7.5-7.5S292.6,226.5,292.6,230.6z"/>
<path class="st2" d="M342.2,219.4l1.2-3.9l-2.5,1.3L342.2,219.4z"/>
<path class="st2" d="M351.3,173.2c-1.4,0-2.7,0.8-3.3,2l-2.1,4.1l7.6,3l1.3-4.1c0.1-0.3,0.2-0.7,0.2-1.1v-0.4
	C355,174.8,353.4,173.2,351.3,173.2z"/>
<path class="st2" d="M333.1,205c-1,1.9-2.9,3.1-5,3.1c-3.1,0-5.6-2.5-5.6-5.6v-1.7c0-0.3,0-0.5,0.1-0.8l4.2-27.9l-4,1.2l-4.7-2.9
	l-5.1,30.8c-0.4,2.5-2.6,4.3-5.1,4.3c-2.9,0-5.2-2.3-5.2-5.2v-7.3h-10v7.3c0,2.9-2.3,5.2-5.2,5.2c-2.6,0-4.7-1.8-5.1-4.3l-3.8-22.9
	l-2.7,2.7l-6.8-2.3l3.6,26.3c0,0.3,0.1,0.5,0.1,0.8v1.5c0,3.2-2.6,5.8-5.8,5.8c-1.9,0-3.7-1-4.8-2.6l-1.9-2.9l-3.7,5.5h-7.2l1.5,2.6
	l12.4,3.1l-2.5,10l9.9,2.5l-2.7,13.6l5.3,9.1l15.9-15.9h-1.9c-5.1,0-10.2-2.1-13.8-5.7l-1.8-1.8l1.8-1.8c2.7-2.7,6.1-4.5,9.7-5.3
	c-2-3.1-3.1-6.8-3.1-10.6v-2.5h2.5c3.8,0,7.5,1.1,10.6,3.1c0.8-3.7,2.6-7.1,5.3-9.7l1.8-1.8l1.8,1.8c2.7,2.7,4.5,6.1,5.3,9.7
	c3.1-2,6.8-3.1,10.6-3.1h2.5v2.5c0,3.8-1.1,7.5-3.1,10.6c3.7,0.8,7.1,2.6,9.7,5.3l1.8,1.8l-1.8,1.8c-3.6,3.6-8.7,5.7-13.8,5.7h-1.9
	l16.1,16.1l4.3-6.4c1.4-2.1,2.6-4.3,3.6-6.5l-5.9-11.7l10-5l-5-10l11.3-5.6l6.7-21.7l-8.4-3.4L333.1,205z M347.5,195.6h-5v-5h5
	V195.6z"/>
<path class="st2" d="M337.4,234.8l1.4-4.6l-3,1.5L337.4,234.8z"/>
<path class="st2" d="M313,233.1c2.9,0,5.8-0.9,8.1-2.5c-2.3-1.6-5.1-2.5-8-2.5l-0.7,0.7l-0.1-0.1c0.1,0.6,0.2,1.2,0.2,1.8
	c0,0.8-0.1,1.7-0.3,2.5H313z"/>
</svg>
