<?xml version="1.0" encoding="utf-8"?>
<!-- Generator: Adobe Illustrator 22.1.0, SVG Export Plug-In . SVG Version: 6.00 Build 0)  -->
<svg version="1.1" id="Calque_1" xmlns="http://www.w3.org/2000/svg" xmlns:xlink="http://www.w3.org/1999/xlink" x="0px" y="0px"
	 viewBox="0 0 500 500" style="enable-background:new 0 0 500 500;" xml:space="preserve">
<style type="text/css">
	.st0{fill:#EAEAEA;}
	.st1{fill:#8C8C8C;}
	.st2{fill:#FFFFFF;}
	.st3{fill:#EAEAEA;stroke:#8C8C8C;stroke-width:7;stroke-miterlimit:10;}
	.st4{fill:#070707;}
	.st5{fill:none;stroke:#8C8C8C;stroke-width:7;stroke-miterlimit:10;}
	.st6{fill:none;stroke:#8C8C8C;stroke-width:10;stroke-miterlimit:10;}
	.st7{fill:#8C8C8C;stroke:#8C8C8C;stroke-width:3;stroke-miterlimit:10;}
	.st8{fill:none;stroke:#8C8C8C;stroke-width:8;stroke-miterlimit:10;}
	.st9{fill:none;stroke:#8E8E8E;stroke-width:6;stroke-miterlimit:10;}
	.st10{fill:#8E8E8E;}
	.st11{fill:#505050;}
	.st12{fill:none;stroke:#8E8E8E;stroke-width:2;stroke-miterlimit:10;}
	.st13{fill:#8C8C8C;stroke:#8C8C8C;stroke-width:2;stroke-miterlimit:10;}
	.st14{fill:#8C8C8C;stroke:#FFFFFF;stroke-width:2;stroke-miterlimit:10;}
	.st15{fill:none;stroke:#FFFFFF;stroke-width:2;stroke-miterlimit:10;}
	.st16{fill:none;stroke:#8C8C8C;stroke-miterlimit:10;}
	.st17{fill:none;stroke:#8C8C8C;stroke-width:13;stroke-miterlimit:10;}
	.st18{fill:#EAEAEA;stroke:#8C8C8C;stroke-width:8;stroke-miterlimit:10;}
	.st19{fill:none;stroke:#8C8C8C;stroke-width:4;stroke-miterlimit:10;}
	.st20{fill:#8C8C8C;stroke:#8C8C8C;stroke-width:0.75;stroke-miterlimit:10;}
	.st21{fill:none;stroke:#8C8C8C;stroke-width:9;stroke-miterlimit:10;}
	.st22{fill:#8C8C8C;stroke:#8C8C8C;stroke-width:0.5;stroke-miterlimit:10;}
	.st23{fill:#6B6B6B;}
	.st24{fill:none;}
	.st25{stroke:#8C8C8C;stroke-width:8;stroke-miterlimit:10;}
	.st26{fill:#8C8C8C;stroke:#8C8C8C;stroke-miterlimit:10;}
	.st27{fill:none;stroke:#8C8C8C;stroke-width:11;stroke-miterlimit:10;}
	.st28{fill:none;stroke:#8C8C8C;stroke-width:6;stroke-miterlimit:10;}
	.st29{font-family:'HelveticaNeue-CondensedBold';}
	.st30{font-size:54px;}
	.st31{stroke:#8C8C8C;stroke-width:6;stroke-miterlimit:10;}
	.st32{fill:#8C8C8C;stroke:#8C8C8C;stroke-width:4;stroke-miterlimit:10;}
	.st33{fill:#8C8C8C;stroke:#8C8C8C;stroke-width:1.05;stroke-miterlimit:10;}
	.st34{fill:#D6D6D6;}
	.st35{fill:none;stroke:#EAEAEA;stroke-width:5;stroke-miterlimit:10;}
	.st36{fill:#8C8C8C;stroke:#8C8C8C;stroke-width:10;stroke-miterlimit:10;}
	.st37{fill:none;stroke:#CECECE;stroke-width:2;stroke-miterlimit:10;}
	.st38{fill:none;stroke:#FFFFFF;stroke-width:4;stroke-miterlimit:10;}
	.st39{fill-rule:evenodd;clip-rule:evenodd;fill:#8C8C8C;}
	.st40{fill:#8C8C8C;stroke:#8C8C8C;stroke-width:8;stroke-miterlimit:10;}
	.st41{fill:#8C8C8C;stroke:#8C8C8C;stroke-width:7;stroke-miterlimit:10;}
	.st42{fill:#DBDBDB;stroke:#8C8C8C;stroke-width:7;stroke-miterlimit:10;}
	.st43{fill:none;stroke:#8C8C8C;stroke-width:5;stroke-miterlimit:10;}
	.st44{fill:none;stroke:#8C8C8C;stroke-width:3;stroke-miterlimit:10;}
	.st45{clip-path:url(#SVGID_2_);fill:#8C8C8C;}
	.st46{clip-path:url(#SVGID_2_);fill:none;stroke:#8C8C8C;stroke-width:8;stroke-miterlimit:10;}
	.st47{clip-path:url(#SVGID_2_);fill:#FFFFFF;}
	.st48{clip-path:url(#SVGID_2_);fill:#EAEAEA;}
	.st49{clip-path:url(#SVGID_2_);fill:none;stroke:#8C8C8C;stroke-miterlimit:10;}
	.st50{fill:none;stroke:#FFFFFF;stroke-width:0.75;stroke-miterlimit:10;}
	.st51{fill:none;stroke:#8C8C8C;stroke-width:14;stroke-miterlimit:10;}
	.st52{fill:none;stroke:#EAEAEA;stroke-width:2;stroke-miterlimit:10;}
	.st53{fill:none;stroke:#8C8C8C;stroke-width:2;stroke-miterlimit:10;}
</style>
<rect x="1" class="st0" width="500" height="500"/>
<g id="UIyuBT.tif_1_">
	<g>
		<path class="st1" d="M329.9,300.6c-54,0-108.1,0-162.1,0c0-5.3,0-10.7-0.1-16c-0.3-24.4,0.3-48.7,3.7-72.9
			c4.1-28.3,10.9-55.9,21.1-82.6c2.2-5.9,3.8-11.7,3.2-18c-0.2-2-0.1-4,0.2-5.9c0.7-3.8,3.5-5.8,7-7.1c34.7,0,69.3,0,104,0
			c5.6,2.1,7.4,6.3,7.1,12c-0.2,3.1,0,6.3,0,9.5c0,1.5,0,3,0,4.7c-3.6,0-7,0-10.6,0c0.4,1,0.6,1.8,0.9,2.6c5.5,14.4,10.1,29,13.9,44
			c6.4,25.7,10.4,51.7,11.3,78.2c0.5,13.8,0.3,27.7,0.4,41.5C330,293.9,329.9,297.3,329.9,300.6z M294.4,124.3
			c-0.7,0-1.1-0.1-1.5-0.1c-30.2,0-60.4,0-90.5,0c-1.4,0-1.9,0.6-2.3,1.7c-7.7,19.9-13.9,40.3-18.2,61.2
			c-4.4,20.9-7.2,42.1-7.8,63.4c-0.4,14.2-0.3,28.3-0.4,42.5c0,0.5,0.1,1,0.2,1.4c31.4,0,62.6,0,94,0c0-0.8,0-1.4,0-2
			c0-7.4,0-14.8,0-22.1c-0.1-19.2,1-38.3,3.6-57.3c3.6-25.9,9.6-51.2,18.3-75.8C291.3,133,292.8,128.8,294.4,124.3z M274.2,290.3
			c0.6-0.6,1.1-1,1.6-1.4c6.3-5.9,12.5-11.9,18.9-17.7c1-0.9,1.4-1.9,1.4-3.3c0-42.4,0-84.7,0-127.1c0-0.6-0.1-1.2-0.1-2.3
			C278.1,187.9,272.3,238.4,274.2,290.3z M302.1,138.4c-0.1,0.6-0.1,0.7-0.1,0.7c0,43.1,0,86.1,0,129.2c0,0.8,0.5,1.9,1.1,2.5
			c6.5,6.2,13,12.3,19.5,18.5c0.3,0.3,0.8,0.6,1.1,0.8C325.7,238.4,319.8,187.8,302.1,138.4z M296,104.2c-0.5,0-1.1,0-1.7,0
			c-29.3,0-58.6,0-87.9,0c-0.8,0-1.7-0.1-2.3,0.3c-0.9,0.6-2.1,1.6-2.2,2.4c-0.2,3.7-0.1,7.5-0.1,11.3c31.4,0,62.7,0,94.2,0
			C296,113.5,296,109,296,104.2z M299,275.3c-6.8,6.4-13.5,12.7-20.3,19.2c13.7,0,27,0,40.6,0C312.4,287.9,305.7,281.7,299,275.3z
			 M307.8,118.2c0-3.9,0.1-7.8,0-11.6c-0.1-1.5-1.4-2.2-2.8-2.3c-1.4,0-2.7,0.8-2.8,2.3c-0.1,3.8,0,7.7,0,11.6
			C304.1,118.2,305.9,118.2,307.8,118.2z"/>
		<path class="st1" d="M296,104.2c0,4.8,0,9.3,0,14c-31.5,0-62.8,0-94.2,0c0-3.8-0.1-7.5,0.1-11.3c0.1-0.9,1.3-1.8,2.2-2.4
			c0.6-0.4,1.5-0.3,2.3-0.3c29.3,0,58.6,0,87.9,0C294.9,104.2,295.5,104.2,296,104.2z"/>
		<path class="st1" d="M299,275.3c6.8,6.4,13.4,12.6,20.3,19.2c-13.7,0-26.9,0-40.6,0C285.5,288,292.1,281.7,299,275.3z"/>
		<path class="st1" d="M311.3,242.3c-0.6-6.5-1.1-12.8-1.7-19.3c2-0.2,3.9-0.5,5.9-0.7c0.6,6.6,1.2,13,1.8,19.6
			C315.3,242.1,313.4,242.2,311.3,242.3z"/>
	</g>
</g>
<g>
	<rect x="-5" y="360" class="st24" width="500" height="144"/>
	<text transform="matrix(1 0 0 1 191.5679 398.5557)" class="st23 st29 st30">Joint</text>
</g>
<path class="st1" d="M239.5,188H255v45.8h-15.5V188z"/>
<path class="st1" d="M209,207.3h26.7v26.5H209V207.3z"/>
<path class="st1" d="M190,188h45.7v15.5H190V188z"/>
<path class="st1" d="M190,207.3h15.2V253H190V207.3z"/>
<path class="st1" d="M209,237.6h46V253h-46V237.6z"/>
</svg>
