<?xml version="1.0" encoding="utf-8"?>
<!-- Generator: Adobe Illustrator 22.1.0, SVG Export Plug-In . SVG Version: 6.00 Build 0)  -->
<svg version="1.1" id="Calque_1" xmlns="http://www.w3.org/2000/svg" x="0px" y="0px"
     viewBox="0 0 500 500" style="enable-background:new 0 0 500 500;" xml:space="preserve">
<style type="text/css">
	.st0{fill:#4FBDD7;}
	.st1{fill:#EAEAEA;}
	.st2{fill:#FFFFFF;}
	.st3{fill:#4FBDD7;stroke:#FFFFFF;stroke-width:5;stroke-miterlimit:10;}
	.st4{fill:#8C8C8C;}
	.st5{fill:#070707;}
	.st6{fill:none;stroke:#FFFFFF;stroke-width:7;stroke-miterlimit:10;}
	.st7{fill:none;stroke:#FFFFFF;stroke-width:10;stroke-miterlimit:10;}
	.st8{fill:#FFFFFF;stroke:#FFFFFF;stroke-width:3;stroke-miterlimit:10;}
	.st9{fill:none;stroke:#FDFFFF;stroke-width:6;stroke-miterlimit:10;}
	.st10{fill:#FAFEFF;}
	.st11{fill:none;stroke:#FFFFFF;stroke-width:2;stroke-miterlimit:10;}
	.st12{fill:#FFFFFF;stroke:#FFFFFF;stroke-width:2;stroke-miterlimit:10;}
	.st13{fill:#4FBDD7;stroke:#FFFFFF;stroke-width:4;stroke-miterlimit:10;}
	.st14{fill:#FFFFFF;stroke:#FFFFFF;stroke-width:4;stroke-miterlimit:10;}
	.st15{fill:none;stroke:#FFFFFF;stroke-miterlimit:10;}
	.st16{fill:#FFFFFF;stroke:#FFFFFF;stroke-width:13;stroke-miterlimit:10;}
	.st17{fill:#4FBDD7;stroke:#FFFFFF;stroke-width:8;stroke-miterlimit:10;}
	.st18{fill:#FFFFFF;stroke:#FFFFFF;stroke-width:0.75;stroke-miterlimit:10;}
	.st19{fill:#FFFFFF;stroke:#FFFFFF;stroke-width:0.5;stroke-miterlimit:10;}
	.st20{fill:#FFFFFF;stroke:#FFFFFF;stroke-width:8;stroke-miterlimit:10;}
	.st21{fill:#FFFFFF;stroke:#FFFFFF;stroke-miterlimit:10;}
	.st22{fill:#FFFFFF;stroke:#FFFFFF;stroke-width:11;stroke-miterlimit:10;}
	.st23{fill:#FFFFFF;stroke:#FFFFFF;stroke-width:6;stroke-miterlimit:10;}
	.st24{fill:#8C8C8C;stroke:#8C8C8C;stroke-width:4;stroke-miterlimit:10;}
	.st25{fill:#FFFFFF;stroke:#FFFFFF;stroke-width:1.05;stroke-miterlimit:10;}
	.st26{fill:none;stroke:#4FBDD7;stroke-width:5;stroke-miterlimit:10;}
	.st27{fill:none;stroke:#FFFFFF;stroke-width:4;stroke-miterlimit:10;}
	.st28{fill:#8C8C8C;stroke:#FFFFFF;stroke-width:4;stroke-miterlimit:10;}
	.st29{fill:#FFFFFF;stroke:#FFFFFF;stroke-width:10;stroke-miterlimit:10;}
	.st30{fill:none;stroke:#4FBDD7;stroke-width:2;stroke-miterlimit:10;}
	.st31{fill-rule:evenodd;clip-rule:evenodd;fill:#FFFFFF;}
	.st32{fill:#FFFFFF;stroke:#FFFFFF;stroke-width:7;stroke-miterlimit:10;}
	.st33{fill:#FFFFFF;stroke:#4FBDD7;stroke-width:7;stroke-miterlimit:10;}
	.st34{fill:#FCFCFC;}
	.st35{fill:none;}
	.st36{font-family:'HelveticaNeue-CondensedBold';}
	.st37{font-size:54px;}
	.st38{fill:#FFFFFF;stroke:#FFFFFF;stroke-width:5;stroke-miterlimit:10;}
	.st39{fill:none;stroke:#FFFFFF;stroke-width:3;stroke-miterlimit:10;}
	.st40{fill:none;stroke:#FFFFFF;stroke-width:8;stroke-miterlimit:10;}
	.st41{fill:none;stroke:#FFFFFF;stroke-width:6;stroke-miterlimit:10;}
	.st42{fill:#FFFFFF;stroke:#4FBDD7;stroke-width:3;stroke-miterlimit:10;}
	.st43{fill:none;stroke:#FFFFFF;stroke-width:0.75;stroke-miterlimit:10;}
	.st44{fill:#4FBDD7;stroke:#FFFFFF;stroke-width:9;stroke-miterlimit:10;}
	.st45{fill:none;stroke:#FFFFFF;stroke-width:9;stroke-miterlimit:10;}
	.st46{fill:none;stroke:#4FBDD7;stroke-width:3;stroke-miterlimit:10;}
</style>
<rect x="0" y="-1" class="st0" width="500" height="500"/>
<g>
	<rect x="-2" y="362" class="st35" width="500" height="144"/>
	<text transform="matrix(1 0 0 1 69.1821 400.5557)" class="st2 st36 st37">Kit de réparation</text>
</g>
<path class="st2" d="M139.3,264.3l87.3,6c18.5,1.3,34.7-12.6,35.9-31.3l6-87.3c1.3-18.5-12.8-34.7-31.3-35.9l-43.6-3
	c-10.5-0.7-21,2.8-28.8,9.7c0,0-40.2,35-40.2,35c0,0,0,0,0,0c-7.9,6.9-12.8,16.8-13.5,27.2l-3,43.6
	C106.7,246.9,120.7,263.1,139.3,264.3z M259.5,151.2l-6,87.3c-0.9,13.7-12.8,23.8-26.3,22.9l-87.3-6c-13.5-0.9-23.8-12.7-22.9-26.3
	l3-43.6c0.4-5.5,5.2-9.7,10.7-9.3l0.3,0l-3.7,53.7c-0.6,8,5.5,14.7,13.2,15.2l87.3,6c7.7,0.5,14.7-5.2,15.2-13.2l6-87.3
	c0.6-8-5.5-14.7-13.2-15.2l-53.7-3.7l0-0.3c0.4-5.5,5.2-9.7,10.7-9.3l43.6,3C250.2,125.8,260.4,137.6,259.5,151.2z M145.3,177.1
	c18.5,1.3,34.7-12.8,36-31.3l0.4-5.2l53.7,3.7c2.8,0.2,5,2.6,4.8,5.5l-6,87.3c-0.2,2.9-2.7,5-5.5,4.8l-87.3-6
	c-1.4-0.1-2.7-0.7-3.6-1.8c-0.9-1-1.4-2.4-1.3-3.8l3.7-53.7L145.3,177.1z M170.8,129.3c1-0.8,2-1.6,3.1-2.3
	c-0.3,1.2-0.5,2.3-0.6,3.6l-1,14.6c-0.9,13.5-12.7,23.8-26.3,22.9l-14.5-1c-1.2-0.1-2.4,0-3.6,0.1c0.9-1,1.8-1.9,2.8-2.7
	L170.8,129.3z"/>
<g>
	<path class="st2" d="M363.7,154.7h-3c-1.4-15.9-14.8-28.3-31-28.3v-2.8h5.7c1.6,0,2.8-1.3,2.8-2.8v-17c0-1.6-1.3-2.8-2.8-2.8h-17
		c-1.6,0-2.8,1.3-2.8,2.8v17c0,1.6,1.3,2.8,2.8,2.8h5.7v2.8c-16.2,0-29.6,12.5-31,28.3h-3c-1.6,0-2.8,1.3-2.8,2.8v99.2
		c0,1.6,1.3,2.8,2.8,2.8h73.7c1.6,0,2.8-1.3,2.8-2.8V234v-53.8v-22.7C366.5,156,365.2,154.7,363.7,154.7z M321.2,106.5h11.3v2.8
		h-2.8c-1.6,0-2.8,1.3-2.8,2.8s1.3,2.8,2.8,2.8h2.8v2.8h-11.3V106.5z M324,132h5.7c13.1,0,23.9,9.9,25.3,22.7h-56.3
		C300.1,142,310.9,132,324,132z M292.8,253.9v-93.5h2.8H358h2.8v17h-42.5c-1.6,0-2.8,1.3-2.8,2.8V234c0,1.6,1.3,2.8,2.8,2.8h42.5v17
		H292.8z"/>
	<path class="st2" d="M346.7,115h2.8c1.6,0,2.8-1.3,2.8-2.8s-1.3-2.8-2.8-2.8h-2.8c-1.6,0-2.8,1.3-2.8,2.8S345.1,115,346.7,115z"/>
	<path class="st2" d="M360.8,109.4H358c-1.6,0-2.8,1.3-2.8,2.8s1.3,2.8,2.8,2.8h2.8c1.6,0,2.8-1.3,2.8-2.8S362.4,109.4,360.8,109.4z
		"/>
	<path class="st2" d="M372.2,109.4h-2.8c-1.6,0-2.8,1.3-2.8,2.8s1.3,2.8,2.8,2.8h2.8c1.6,0,2.8-1.3,2.8-2.8S373.7,109.4,372.2,109.4
		z"/>
	<path class="st2" d="M357.4,103c0.3,0,0.6,0,0.9-0.1l2.7-0.9c1.5-0.5,2.3-2.1,1.8-3.6c-0.5-1.5-2.1-2.3-3.6-1.8l-2.7,0.9
		c-1.5,0.5-2.3,2.1-1.8,3.6C355.1,102.2,356.2,103,357.4,103z"/>
	<path class="st2" d="M346.7,106.5c0.3,0,0.6,0,0.9-0.1l2.7-0.9c1.5-0.5,2.3-2.1,1.8-3.6c-0.5-1.5-2.1-2.3-3.6-1.8l-2.7,0.9
		c-1.5,0.5-2.3,2.1-1.8,3.6C344.4,105.8,345.5,106.5,346.7,106.5z"/>
	<path class="st2" d="M368.2,99.4c0.3,0,0.6,0,0.9-0.1l2.7-0.9c1.5-0.5,2.3-2.1,1.8-3.6c-0.5-1.5-2.1-2.3-3.6-1.8l-2.7,0.9
		c-1.5,0.5-2.3,2.1-1.8,3.6C365.9,98.6,367,99.4,368.2,99.4z"/>
	<path class="st2" d="M356.5,127l2.7,0.9c0.3,0.1,0.6,0.1,0.9,0.1c1.2,0,2.3-0.8,2.7-1.9c0.5-1.5-0.3-3.1-1.8-3.6l-2.7-0.9
		c-1.5-0.5-3.1,0.3-3.6,1.8C354.2,124.9,355,126.5,356.5,127z"/>
	<path class="st2" d="M371.8,126.1l-2.7-0.9c-1.5-0.5-3.1,0.3-3.6,1.8c-0.5,1.5,0.3,3.1,1.8,3.6l2.7,0.9c0.3,0.1,0.6,0.1,0.9,0.1
		c1.2,0,2.3-0.8,2.7-1.9C374,128.2,373.2,126.6,371.8,126.1z"/>
	<path class="st2" d="M350.3,118.9l-2.7-0.9c-1.5-0.5-3.1,0.3-3.6,1.8c-0.5,1.5,0.3,3.1,1.8,3.6l2.7,0.9c0.3,0.1,0.6,0.1,0.9,0.1
		c1.2,0,2.3-0.8,2.7-1.9C352.5,121,351.7,119.4,350.3,118.9z"/>
</g>
<rect x="292.6" y="177.5" class="st2" width="39.7" height="59.2"/>
</svg>
