<?xml version="1.0" encoding="utf-8"?>
<!-- Generator: Adobe Illustrator 22.1.0, SVG Export Plug-In . SVG Version: 6.00 Build 0)  -->
<svg style="enable-background:new 0 0 500 500;" id="Calque_1" version="1.1" viewBox="0 0 500 500" x="0px"
     xmlns="http://www.w3.org/2000/svg" y="0px" xml:space="preserve">
<style type="text/css">
	.st0{fill:#EAEAEA;}
	.st1{fill:#8C8C8C;}
	.st2{fill:#FFFFFF;}
	.st3{fill:#EAEAEA;stroke:#8C8C8C;stroke-width:7;stroke-miterlimit:10;}
	.st4{fill:#070707;}
	.st5{fill:none;}
	.st6{fill:#6B6B6B;}
	.st7{font-family:'HelveticaNeue-CondensedBold';}
	.st8{font-size:54px;}
	.st9{fill:none;stroke:#8C8C8C;stroke-width:7;stroke-miterlimit:10;}
	.st10{fill:none;stroke:#8C8C8C;stroke-width:10;stroke-miterlimit:10;}
	.st11{fill:#8C8C8C;stroke:#8C8C8C;stroke-width:3;stroke-miterlimit:10;}
	.st12{fill:none;stroke:#8C8C8C;stroke-width:8;stroke-miterlimit:10;}
	.st13{fill:none;stroke:#8E8E8E;stroke-width:6;stroke-miterlimit:10;}
	.st14{fill:#8E8E8E;}
	.st15{fill:#505050;}
	.st16{fill:none;stroke:#8E8E8E;stroke-width:2;stroke-miterlimit:10;}
	.st17{fill:#8C8C8C;stroke:#8C8C8C;stroke-width:2;stroke-miterlimit:10;}
	.st18{fill:#8C8C8C;stroke:#FFFFFF;stroke-width:2;stroke-miterlimit:10;}
	.st19{fill:none;stroke:#FFFFFF;stroke-width:2;stroke-miterlimit:10;}
	.st20{fill:none;stroke:#8C8C8C;stroke-miterlimit:10;}
	.st21{fill:none;stroke:#8C8C8C;stroke-width:13;stroke-miterlimit:10;}
	.st22{fill:#EAEAEA;stroke:#8C8C8C;stroke-width:8;stroke-miterlimit:10;}
	.st23{fill:none;stroke:#8C8C8C;stroke-width:4;stroke-miterlimit:10;}
	.st24{fill:#8C8C8C;stroke:#8C8C8C;stroke-width:0.75;stroke-miterlimit:10;}
	.st25{fill:none;stroke:#8C8C8C;stroke-width:9;stroke-miterlimit:10;}
	.st26{fill:#8C8C8C;stroke:#8C8C8C;stroke-width:0.5;stroke-miterlimit:10;}
	.st27{stroke:#8C8C8C;stroke-width:8;stroke-miterlimit:10;}
	.st28{fill:#8C8C8C;stroke:#8C8C8C;stroke-miterlimit:10;}
	.st29{fill:none;stroke:#8C8C8C;stroke-width:11;stroke-miterlimit:10;}
	.st30{fill:none;stroke:#8C8C8C;stroke-width:6;stroke-miterlimit:10;}
	.st31{stroke:#8C8C8C;stroke-width:6;stroke-miterlimit:10;}
	.st32{fill:#8C8C8C;stroke:#8C8C8C;stroke-width:4;stroke-miterlimit:10;}
	.st33{fill:#8C8C8C;stroke:#8C8C8C;stroke-width:1.05;stroke-miterlimit:10;}
	.st34{fill:#D6D6D6;}
	.st35{fill:none;stroke:#EAEAEA;stroke-width:5;stroke-miterlimit:10;}
	.st36{fill:#8C8C8C;stroke:#8C8C8C;stroke-width:10;stroke-miterlimit:10;}
	.st37{fill:none;stroke:#CECECE;stroke-width:2;stroke-miterlimit:10;}
	.st38{fill:none;stroke:#FFFFFF;stroke-width:4;stroke-miterlimit:10;}
	.st39{fill-rule:evenodd;clip-rule:evenodd;fill:#8C8C8C;}
	.st40{fill:#8C8C8C;stroke:#8C8C8C;stroke-width:8;stroke-miterlimit:10;}
	.st41{fill:#8C8C8C;stroke:#8C8C8C;stroke-width:7;stroke-miterlimit:10;}
	.st42{fill:#DBDBDB;stroke:#8C8C8C;stroke-width:7;stroke-miterlimit:10;}
	.st43{fill:none;stroke:#8C8C8C;stroke-width:5;stroke-miterlimit:10;}
	.st44{fill:none;stroke:#8C8C8C;stroke-width:3;stroke-miterlimit:10;}
	.st45{clip-path:url(#SVGID_2_);fill:#8C8C8C;}
	.st46{clip-path:url(#SVGID_2_);fill:none;stroke:#8C8C8C;stroke-width:8;stroke-miterlimit:10;}
	.st47{clip-path:url(#SVGID_2_);fill:#FFFFFF;}
	.st48{clip-path:url(#SVGID_2_);fill:#EAEAEA;}
	.st49{clip-path:url(#SVGID_2_);fill:none;stroke:#8C8C8C;stroke-miterlimit:10;}
	.st50{fill:none;stroke:#FFFFFF;stroke-width:0.75;stroke-miterlimit:10;}
	.st51{fill:none;stroke:#8C8C8C;stroke-width:14;stroke-miterlimit:10;}
	.st52{fill:none;stroke:#EAEAEA;stroke-width:2;stroke-miterlimit:10;}
	.st53{fill:none;stroke:#8C8C8C;stroke-width:2;stroke-miterlimit:10;}
</style>
    <rect class="st0" height="500" width="500" x="0" y="1"/>
    <g>
	<rect class="st5" height="144" width="500" x="1" y="363"/>
        <text class="st6 st7 st8" transform="matrix(1 0 0 1 167.0586 401.5557)">Kitesurf</text>
</g>
    <g>
	<path class="st1" d="M128.1,205.5c4-60.2,48.1-101.9,68.9-118.4c5.7-4.5,16.5-8.3,23.8-8.6c37.2-1.7,59.8,3.9,72,8.7
		c6.8,2.7,5.7,5.5-1.5,6.8c-13.1,2.4-35.1,10.3-61.3,35.5c-13.1,12.6-24.6,28.9-34.2,45.2v67.2c1.4,0.8,2.3,2.2,2.3,3.9v26.7
		c0,3.2,2.6,5.9,5.9,5.9h97.1c3.2,0,5.9-2.6,5.9-5.9v-26.7c0-1.7,1-3.1,2.3-3.9v-32.8h4.6v32.8c1.4,0.8,2.3,2.2,2.3,3.9v26.7
		c0,8.4-6.8,15.2-15.2,15.2H204c-8.4,0-15.2-6.8-15.2-15.2v-26.7c0-1.7,1-3.1,2.3-3.9v-59.1c-9.8,17.7-17.3,34.6-21.8,45.5
		c-2.8,6.7-10.8,12.1-17.7,9.9C125.3,230,128.1,205.5,128.1,205.5"/>
        <path class="st1" d="M325.5,205.2c-7.6,3-22.1,7.1-32.1,0c-2.5-1.8-4.1-6.3-4.3-9.3c-0.9-16.7-5.2-67.5-24.3-100.7
		c0,0,36-22.3,62.8,14.9c24.7,34.2,19.5,70.5,6.5,88.6C332.3,201.1,328.4,204,325.5,205.2"/>
</g>
</svg>
