<?xml version="1.0" encoding="utf-8"?>
<!-- Generator: Adobe Illustrator 22.1.0, SVG Export Plug-In . SVG Version: 6.00 Build 0)  -->
<svg version="1.1" id="Calque_1" xmlns="http://www.w3.org/2000/svg" x="0px" y="0px"
     viewBox="0 0 500 500" style="enable-background:new 0 0 500 500;" xml:space="preserve">
<style type="text/css">
	.st0{fill:#EAEAEA;}
	.st1{fill:#8C8C8C;}
	.st2{fill:#FFFFFF;}
	.st3{fill:#EAEAEA;stroke:#8C8C8C;stroke-width:7;stroke-miterlimit:10;}
	.st4{fill:#070707;}
	.st5{fill:none;stroke:#8C8C8C;stroke-width:7;stroke-miterlimit:10;}
	.st6{fill:none;stroke:#8C8C8C;stroke-width:10;stroke-miterlimit:10;}
	.st7{fill:#8C8C8C;stroke:#8C8C8C;stroke-width:3;stroke-miterlimit:10;}
	.st8{fill:none;stroke:#8C8C8C;stroke-width:8;stroke-miterlimit:10;}
	.st9{fill:none;stroke:#8E8E8E;stroke-width:6;stroke-miterlimit:10;}
	.st10{fill:#8E8E8E;}
	.st11{fill:#505050;}
	.st12{fill:none;stroke:#8E8E8E;stroke-width:2;stroke-miterlimit:10;}
	.st13{fill:#8C8C8C;stroke:#8C8C8C;stroke-width:2;stroke-miterlimit:10;}
	.st14{fill:#8C8C8C;stroke:#FFFFFF;stroke-width:2;stroke-miterlimit:10;}
	.st15{fill:none;stroke:#FFFFFF;stroke-width:2;stroke-miterlimit:10;}
	.st16{fill:none;stroke:#8C8C8C;stroke-miterlimit:10;}
	.st17{fill:none;stroke:#8C8C8C;stroke-width:13;stroke-miterlimit:10;}
	.st18{fill:#EAEAEA;stroke:#8C8C8C;stroke-width:8;stroke-miterlimit:10;}
	.st19{fill:none;stroke:#8C8C8C;stroke-width:4;stroke-miterlimit:10;}
	.st20{fill:#8C8C8C;stroke:#8C8C8C;stroke-width:0.75;stroke-miterlimit:10;}
	.st21{fill:none;stroke:#8C8C8C;stroke-width:9;stroke-miterlimit:10;}
	.st22{fill:#8C8C8C;stroke:#8C8C8C;stroke-width:0.5;stroke-miterlimit:10;}
	.st23{fill:#6B6B6B;}
	.st24{fill:none;}
	.st25{stroke:#8C8C8C;stroke-width:8;stroke-miterlimit:10;}
	.st26{fill:#8C8C8C;stroke:#8C8C8C;stroke-miterlimit:10;}
	.st27{fill:none;stroke:#8C8C8C;stroke-width:11;stroke-miterlimit:10;}
	.st28{fill:none;stroke:#8C8C8C;stroke-width:6;stroke-miterlimit:10;}
	.st29{stroke:#8C8C8C;stroke-width:6;stroke-miterlimit:10;}
	.st30{fill:#8C8C8C;stroke:#8C8C8C;stroke-width:4;stroke-miterlimit:10;}
	.st31{fill:#8C8C8C;stroke:#8C8C8C;stroke-width:1.05;stroke-miterlimit:10;}
	.st32{fill:#D6D6D6;}
	.st33{fill:none;stroke:#EAEAEA;stroke-width:5;stroke-miterlimit:10;}
	.st34{fill:#8C8C8C;stroke:#8C8C8C;stroke-width:10;stroke-miterlimit:10;}
	.st35{fill:none;stroke:#CECECE;stroke-width:2;stroke-miterlimit:10;}
	.st36{fill:none;stroke:#FFFFFF;stroke-width:4;stroke-miterlimit:10;}
	.st37{font-family:'HelveticaNeue-CondensedBold';}
	.st38{font-size:54px;}
	.st39{fill-rule:evenodd;clip-rule:evenodd;fill:#8C8C8C;}
	.st40{fill:#8C8C8C;stroke:#8C8C8C;stroke-width:8;stroke-miterlimit:10;}
	.st41{fill:#8C8C8C;stroke:#8C8C8C;stroke-width:7;stroke-miterlimit:10;}
	.st42{fill:#DBDBDB;stroke:#8C8C8C;stroke-width:7;stroke-miterlimit:10;}
	.st43{fill:none;stroke:#8C8C8C;stroke-width:5;stroke-miterlimit:10;}
	.st44{fill:none;stroke:#8C8C8C;stroke-width:3;stroke-miterlimit:10;}
	.st45{clip-path:url(#SVGID_2_);fill:#8C8C8C;}
	.st46{clip-path:url(#SVGID_2_);fill:none;stroke:#8C8C8C;stroke-width:8;stroke-miterlimit:10;}
	.st47{clip-path:url(#SVGID_2_);fill:#FFFFFF;}
	.st48{clip-path:url(#SVGID_2_);fill:#EAEAEA;}
	.st49{clip-path:url(#SVGID_2_);fill:none;stroke:#8C8C8C;stroke-miterlimit:10;}
	.st50{fill:none;stroke:#FFFFFF;stroke-width:0.75;stroke-miterlimit:10;}
	.st51{fill:none;stroke:#8C8C8C;stroke-width:14;stroke-miterlimit:10;}
	.st52{fill:none;stroke:#EAEAEA;stroke-width:2;stroke-miterlimit:10;}
	.st53{fill:none;stroke:#8C8C8C;stroke-width:2;stroke-miterlimit:10;}
</style>
<rect x="1" y="-1" class="st0" width="500" height="500"/>
<path class="st1" d="M308.9,103.8h-78.3v-7.5h3.7c2.1,0,3.7-1.7,3.7-3.7V77.7c0-2.1-1.7-3.7-3.7-3.7h-52.2c-2.1,0-3.7,1.7-3.7,3.7
	v14.9c0,2.1,1.7,3.7,3.7,3.7h3.7v10c-8.8,4.2-14.9,13.2-14.9,23.5V279c0,14.4,11.7,26.1,26.1,26.1h111.8c14.4,0,26.1-11.7,26.1-26.1
	V129.9C335,115.5,323.3,103.8,308.9,103.8z M327.5,129.9V188l-14.9-14.9v-35.7c0-6.2-5-11.2-11.2-11.2h-35.7l-14.9-14.9h58.1
	C319.2,111.3,327.5,119.6,327.5,129.9z M305.2,165.6l-32-32h28.3c2.1,0,3.7,1.7,3.7,3.7V165.6z M185.9,81.5h44.7v7.5h-44.7V81.5z
	 M193.4,96.4h29.8v7.5h-26.1c-1.3,0-2.5,0.1-3.7,0.3V96.4z M308.9,297.6H197.1c-10.3,0-18.6-8.4-18.6-18.6V129.9
	c0-10.3,8.4-18.6,18.6-18.6h43.2l87.3,87.3V279C327.5,289.3,319.2,297.6,308.9,297.6z"/>
<path class="st1" d="M237,119.8c-0.7-0.7-1.6-1.1-2.6-1.1h-33.5c-8.2,0-14.9,6.7-14.9,14.9v141.6c0,8.2,6.7,14.9,14.9,14.9h104.4
	c8.2,0,14.9-6.7,14.9-14.9v-70.8c0-1-0.4-1.9-1.1-2.6L237,119.8z"/>
<path class="st2" d="M235.1,223.3l14.2-26l14.2,26c2.9,5.3,4.4,11.4,4.4,17.4v0.9c0,5.3-2.3,10.4-6.3,13.9c-4,3.6-9.2,5.2-14.7,4.6
	c-9.2-1.1-16.4-9.6-16.4-19.4C230.6,234.7,232.2,228.7,235.1,223.3z"/>
<path class="st36" d="M228.4,215.3l20.3-37.3l20.3,37.3c4.2,7.6,6.4,16.3,6.4,25v1.3c0,7.6-3.3,14.9-9,20c-5.8,5.1-13.3,7.5-21,6.6
	c-13.1-1.5-23.4-13.8-23.4-27.9C222.1,231.6,224.3,222.9,228.4,215.3z"/>
<g>
	<rect x="-1" y="365" class="st24" width="500" height="144"/>
	<text transform="matrix(1 0 0 1 35.5947 403.5557)" class="st23 st37 st38">Liquides d’entretien</text>
</g>
</svg>
