<?xml version="1.0" encoding="utf-8"?>
<!-- Generator: Adobe Illustrator 22.1.0, SVG Export Plug-In . SVG Version: 6.00 Build 0)  -->
<svg version="1.1" id="Calque_1" xmlns="http://www.w3.org/2000/svg" xmlns:xlink="http://www.w3.org/1999/xlink" x="0px" y="0px"
	 viewBox="0 0 500 500" style="enable-background:new 0 0 500 500;" xml:space="preserve">
<style type="text/css">
	.st0{fill:#4FBDD7;}
	.st1{fill:#EAEAEA;}
	.st2{fill:#FFFFFF;}
	.st3{fill:#4FBDD7;stroke:#FFFFFF;stroke-width:5;stroke-miterlimit:10;}
	.st4{fill:#8C8C8C;}
	.st5{fill:#070707;}
	.st6{fill:none;stroke:#FFFFFF;stroke-width:7;stroke-miterlimit:10;}
	.st7{fill:none;stroke:#FFFFFF;stroke-width:10;stroke-miterlimit:10;}
	.st8{fill:#FFFFFF;stroke:#FFFFFF;stroke-width:3;stroke-miterlimit:10;}
	.st9{fill:none;stroke:#FDFFFF;stroke-width:6;stroke-miterlimit:10;}
	.st10{fill:#FAFEFF;}
	.st11{fill:none;stroke:#FFFFFF;stroke-width:2;stroke-miterlimit:10;}
	.st12{fill:#FFFFFF;stroke:#FFFFFF;stroke-width:2;stroke-miterlimit:10;}
	.st13{fill:#4FBDD7;stroke:#FFFFFF;stroke-width:4;stroke-miterlimit:10;}
	.st14{fill:#FFFFFF;stroke:#FFFFFF;stroke-width:4;stroke-miterlimit:10;}
	.st15{fill:none;stroke:#FFFFFF;stroke-miterlimit:10;}
	.st16{fill:#FFFFFF;stroke:#FFFFFF;stroke-width:13;stroke-miterlimit:10;}
	.st17{fill:#4FBDD7;stroke:#FFFFFF;stroke-width:8;stroke-miterlimit:10;}
	.st18{fill:#FFFFFF;stroke:#FFFFFF;stroke-width:0.75;stroke-miterlimit:10;}
	.st19{fill:#FFFFFF;stroke:#FFFFFF;stroke-width:0.5;stroke-miterlimit:10;}
	.st20{fill:#FFFFFF;stroke:#FFFFFF;stroke-width:8;stroke-miterlimit:10;}
	.st21{fill:#FFFFFF;stroke:#FFFFFF;stroke-miterlimit:10;}
	.st22{fill:#FFFFFF;stroke:#FFFFFF;stroke-width:11;stroke-miterlimit:10;}
	.st23{fill:#FFFFFF;stroke:#FFFFFF;stroke-width:6;stroke-miterlimit:10;}
	.st24{fill:#8C8C8C;stroke:#8C8C8C;stroke-width:4;stroke-miterlimit:10;}
	.st25{fill:#FFFFFF;stroke:#FFFFFF;stroke-width:1.05;stroke-miterlimit:10;}
	.st26{fill:none;stroke:#4FBDD7;stroke-width:5;stroke-miterlimit:10;}
	.st27{fill:none;stroke:#FFFFFF;stroke-width:4;stroke-miterlimit:10;}
	.st28{fill:#8C8C8C;stroke:#FFFFFF;stroke-width:4;stroke-miterlimit:10;}
	.st29{fill:#FFFFFF;stroke:#FFFFFF;stroke-width:10;stroke-miterlimit:10;}
	.st30{fill:none;}
	.st31{font-family:'HelveticaNeue-CondensedBold';}
	.st32{font-size:54px;}
	.st33{fill:none;stroke:#4FBDD7;stroke-width:2;stroke-miterlimit:10;}
	.st34{fill-rule:evenodd;clip-rule:evenodd;fill:#FFFFFF;}
	.st35{fill:#FFFFFF;stroke:#FFFFFF;stroke-width:7;stroke-miterlimit:10;}
	.st36{fill:#FFFFFF;stroke:#4FBDD7;stroke-width:7;stroke-miterlimit:10;}
	.st37{fill:#FCFCFC;}
	.st38{fill:#FFFFFF;stroke:#FFFFFF;stroke-width:5;stroke-miterlimit:10;}
	.st39{fill:none;stroke:#FFFFFF;stroke-width:3;stroke-miterlimit:10;}
	.st40{fill:none;stroke:#FFFFFF;stroke-width:8;stroke-miterlimit:10;}
	.st41{fill:none;stroke:#FFFFFF;stroke-width:6;stroke-miterlimit:10;}
	.st42{fill:#FFFFFF;stroke:#4FBDD7;stroke-width:3;stroke-miterlimit:10;}
	.st43{fill:none;stroke:#FFFFFF;stroke-width:0.75;stroke-miterlimit:10;}
	.st44{fill:#4FBDD7;stroke:#FFFFFF;stroke-width:9;stroke-miterlimit:10;}
	.st45{fill:none;stroke:#FFFFFF;stroke-width:9;stroke-miterlimit:10;}
	.st46{fill:none;stroke:#4FBDD7;stroke-width:3;stroke-miterlimit:10;}
</style>
<rect class="st0" width="500" height="500"/>
<g>
	<path class="st2" d="M270.3,184.1h-57.4c-7.2,0-13.6,4.9-15.4,11.8l-4.4,16.2c-1.4,5.2-6.2,8.9-11.6,8.9h-36.7
		c-3.2,0-6.1-1.3-8.2-3.6c-2.1-2.3-3.1-5.3-2.8-8.5l5.3-55.5c1.1-11.3,10.5-19.8,21.8-19.8h25.2c2,0,3.7-1.7,3.7-3.7
		c0-2-1.7-3.7-3.7-3.7h-17.9v-9c0-2-1.7-3.7-3.7-3.7s-3.7,1.7-3.7,3.7v9c-15.2,0-27.7,11.4-29.1,26.5l-5.3,55.5
		c-0.5,5.2,1.2,10.3,4.7,14.1s8.5,6,13.7,6h1.8v6.7c0,5.1,4.1,9.2,9.2,9.2h4.1v18.4h-46.3c-2,0-3.7,1.7-3.7,3.7v27
		c0,12.2,10,22.1,22.2,22.1h24.1c2,0,3.7-1.7,3.7-3.7c0-2-1.7-3.7-3.7-3.7h-24.1c-8.2,0-14.8-6.6-14.8-14.8v-23.3h20.2v9.4
		c0,2,1.7,3.7,3.7,3.7h46.5c2,0,3.7-1.7,3.7-3.7v-9.4h36v-7.4h-60.2v-18.4h4.1c5.1,0,9.2-4.1,9.2-9.2v-6.7h0.8
		c8.7,0,16.4-5.9,18.7-14.3l4.4-16.2c1-3.7,4.4-6.4,8.3-6.4h57.4c4,0,7.3,3.3,7.3,7.3v56.6c0,4-3.3,7.3-7.3,7.3h-12.1
		c-2,0-3.7,1.7-3.7,3.7c0,2,1.7,3.7,3.7,3.7h12.1c8.1,0,14.7-6.6,14.7-14.7v-56.6C285,190.7,278.4,184.1,270.3,184.1z M184.1,270.1
		v5.7H145v-5.7H184.1z M173.3,235.1c0,1-0.8,1.8-1.8,1.8h-15.7c-1,0-1.8-0.8-1.8-1.8v-6.7h19.3V235.1z"/>
	<path class="st2" d="M256.1,262.7H215v7.4h41.1c7.7,0,13.9-1.7,13.9-3.7C270,264.4,263.8,262.7,256.1,262.7z"/>
	<path class="st2" d="M326.5,126.2H322v-26.1c0-2-1.9-3.7-4.2-3.7h-7.8v-4.8c0-2-1.9-3.7-4.2-3.7s-4.2,1.7-4.2,3.7v4.8h-7.8
		c-2.3,0-4.2,1.7-4.2,3.7v26.1H177.4c-2.3,0-4.2,1.7-4.2,3.7s1.9,3.7,4.2,3.7h149.1c13.8,0,25.1,9.8,25.1,21.9v137.9
		c0,8.1-7.6,14.8-16.9,14.8H143.2c-2.3,0-4.2,1.7-4.2,3.7c0,2,1.9,3.7,4.2,3.7h191.4c14,0,25.4-9.9,25.4-22.1V155.5
		C360,139.3,345,126.2,326.5,126.2z"/>
	<path class="st2" d="M318.4,183.3c-13.4,0-24.4,10.9-24.4,24.4c0,13.4,10.9,24.4,24.4,24.4c13.4,0,24.4-10.9,24.4-24.4
		C342.7,194.3,331.8,183.3,318.4,183.3z M318.4,222.2c-8,0-14.5-6.5-14.5-14.5c0-8,6.5-14.5,14.5-14.5s14.5,6.5,14.5,14.5
		C332.8,215.7,326.3,222.2,318.4,222.2z"/>
</g>
<polygon class="st0" points="314.7,105.1 311.9,106.4 300.2,101 305.8,101 "/>
<polygon class="st0" points="311,101 316,101 316,103.3 "/>
<polygon class="st0" points="309.3,107.6 306.5,108.8 295.5,103.8 295.5,101.2 "/>
<polygon class="st0" points="303.9,110 301.1,111.3 301.1,111.3 295.5,108.7 295.5,106.2 "/>
<polygon class="st0" points="298.5,112.5 295.5,113.9 295.5,111.1 "/>
<polygon class="st0" points="316,106.9 316,109.4 295.5,118.8 295.5,116.2 "/>
<polygon class="st0" points="316,111.8 316,114.4 295.5,123.8 295.5,121.2 "/>
<polygon class="st0" points="316,116.8 316,119.3 295.5,128.7 295.5,126.1 "/>
<polygon class="st0" points="316.1,121 316.1,122.7 302.4,129 302.4,127.3 "/>
<rect x="290" y="126" class="st2" width="32" height="4"/>
<g>
	<rect x="2" y="360" class="st30" width="500" height="144"/>
	<text transform="matrix(1 0 0 1 60.6533 398.5557)" class="st2 st31 st32">Machine à coudre</text>
</g>
</svg>
