<?xml version="1.0" encoding="utf-8"?>
<!-- Generator: Adobe Illustrator 22.1.0, SVG Export Plug-In . SVG Version: 6.00 Build 0)  -->
<svg version="1.1" id="Calque_1" xmlns="http://www.w3.org/2000/svg" x="0px" y="0px"
     viewBox="0 0 500 500" style="enable-background:new 0 0 500 500;" xml:space="preserve">
<style type="text/css">
	.st0{fill:#4FBDD7;}
	.st1{fill:#EAEAEA;}
	.st2{fill:#FFFFFF;}
	.st3{fill:#4FBDD7;stroke:#FFFFFF;stroke-width:5;stroke-miterlimit:10;}
	.st4{fill:#8C8C8C;}
	.st5{fill:#070707;}
	.st6{fill:none;stroke:#FFFFFF;stroke-width:7;stroke-miterlimit:10;}
	.st7{fill:none;stroke:#FFFFFF;stroke-width:10;stroke-miterlimit:10;}
	.st8{fill:#FFFFFF;stroke:#FFFFFF;stroke-width:3;stroke-miterlimit:10;}
	.st9{fill:none;stroke:#FDFFFF;stroke-width:6;stroke-miterlimit:10;}
	.st10{fill:#FAFEFF;}
	.st11{fill:none;stroke:#FFFFFF;stroke-width:2;stroke-miterlimit:10;}
	.st12{fill:#FFFFFF;stroke:#FFFFFF;stroke-width:2;stroke-miterlimit:10;}
	.st13{fill:#4FBDD7;stroke:#FFFFFF;stroke-width:4;stroke-miterlimit:10;}
	.st14{fill:#FFFFFF;stroke:#FFFFFF;stroke-width:4;stroke-miterlimit:10;}
	.st15{fill:none;stroke:#FFFFFF;stroke-miterlimit:10;}
	.st16{fill:#FFFFFF;stroke:#FFFFFF;stroke-width:13;stroke-miterlimit:10;}
	.st17{fill:#4FBDD7;stroke:#FFFFFF;stroke-width:8;stroke-miterlimit:10;}
	.st18{fill:#FFFFFF;stroke:#FFFFFF;stroke-width:0.75;stroke-miterlimit:10;}
	.st19{fill:#FFFFFF;stroke:#FFFFFF;stroke-width:0.5;stroke-miterlimit:10;}
	.st20{fill:none;}
	.st21{font-family:'HelveticaNeue-CondensedBold';}
	.st22{font-size:54px;}
	.st23{fill:#FFFFFF;stroke:#FFFFFF;stroke-width:8;stroke-miterlimit:10;}
	.st24{fill:#FFFFFF;stroke:#FFFFFF;stroke-miterlimit:10;}
	.st25{fill:#FFFFFF;stroke:#FFFFFF;stroke-width:11;stroke-miterlimit:10;}
	.st26{fill:#FFFFFF;stroke:#FFFFFF;stroke-width:6;stroke-miterlimit:10;}
	.st27{fill:#8C8C8C;stroke:#8C8C8C;stroke-width:4;stroke-miterlimit:10;}
	.st28{fill:#FFFFFF;stroke:#FFFFFF;stroke-width:1.05;stroke-miterlimit:10;}
	.st29{fill:none;stroke:#4FBDD7;stroke-width:5;stroke-miterlimit:10;}
	.st30{fill:none;stroke:#FFFFFF;stroke-width:4;stroke-miterlimit:10;}
	.st31{fill:#8C8C8C;stroke:#FFFFFF;stroke-width:4;stroke-miterlimit:10;}
	.st32{fill:#FFFFFF;stroke:#FFFFFF;stroke-width:10;stroke-miterlimit:10;}
	.st33{fill:none;stroke:#4FBDD7;stroke-width:2;stroke-miterlimit:10;}
	.st34{fill-rule:evenodd;clip-rule:evenodd;fill:#FFFFFF;}
	.st35{fill:#FFFFFF;stroke:#FFFFFF;stroke-width:7;stroke-miterlimit:10;}
	.st36{fill:#FFFFFF;stroke:#4FBDD7;stroke-width:7;stroke-miterlimit:10;}
	.st37{fill:#FCFCFC;}
	.st38{fill:#FFFFFF;stroke:#FFFFFF;stroke-width:5;stroke-miterlimit:10;}
	.st39{fill:none;stroke:#FFFFFF;stroke-width:3;stroke-miterlimit:10;}
	.st40{fill:none;stroke:#FFFFFF;stroke-width:8;stroke-miterlimit:10;}
	.st41{fill:none;stroke:#FFFFFF;stroke-width:6;stroke-miterlimit:10;}
	.st42{fill:#FFFFFF;stroke:#4FBDD7;stroke-width:3;stroke-miterlimit:10;}
	.st43{fill:none;stroke:#FFFFFF;stroke-width:0.75;stroke-miterlimit:10;}
	.st44{fill:#4FBDD7;stroke:#FFFFFF;stroke-width:9;stroke-miterlimit:10;}
	.st45{fill:none;stroke:#FFFFFF;stroke-width:9;stroke-miterlimit:10;}
	.st46{fill:none;stroke:#4FBDD7;stroke-width:3;stroke-miterlimit:10;}
</style>
<rect x="0" y="-5" class="st0" width="500" height="506"/>
<g>
	<g>
		<path class="st2" d="M215.7,155.9v-17.4c0-2.4,1.5-3.7,2.2-4.1c0.7-0.4,2.4-1.3,4.5-0.1l14.5,8.2c1.5,0.8,2.4,2.4,2.4,4.2v8.7
			c3-0.1,6.1-0.2,9.1-0.4v-8.4c0-5.3-2.8-10.1-7.2-12.6l-14.5-8.2c-4.3-2.4-9.3-2.3-13.4,0.3c-4.1,2.6-6.6,7.2-6.6,12.2v17.5
			C209.6,155.9,212.7,155.9,215.7,155.9z"/>
		<path class="st2" d="M253.8,232.7v-21c0-3.9-2.2-7.2-5.4-8.7v-17.4c-3,0.1-6.1,0.3-9.1,0.4v16.2h-23.6v-15.7c-3,0-6.1,0.1-9.1,0.1
			V203c-3.2,1.5-5.4,4.8-5.4,8.7v21c-4.6,0.5-8.2,4.5-8.2,9.5v67.5c0,7.9,6.1,14.3,13.6,14.3h41.8c7.5,0,13.6-6.4,13.6-14.3v-67.5
			C262,237.3,258.4,233.2,253.8,232.7z M244.8,211.8v20.9h-34.5v-20.9H244.8z M252.9,309.7c0,2.6-2,4.8-4.5,4.8h-8.2
			c-3,0-6.1,0-9.1,0h-24.5c-2.5,0-4.5-2.1-4.5-4.8v-67.5h50.8V309.7z"/>
	</g>
</g>
<g>
	<g>
		<path class="st2" d="M326.5,197.5h-20.9v-46.6h7.7c2.5,0,4.5-2.1,4.5-4.8c0-2.6-2-4.8-4.5-4.8h-7.7v-5.7h7.7
			c2.5,0,4.5-2.1,4.5-4.8c0-2.6-2-4.8-4.5-4.8h-7.7v-5.7h7.7c2.5,0,4.5-2.1,4.5-4.8c0-2.6-2-4.8-4.5-4.8h-7.7v-5.7h7.7
			c2.5,0,4.5-2.1,4.5-4.8c0-2.6-2-4.8-4.5-4.8h-7.7V90h7.7c4.6-2.5,4.6-4.3,4.5-4.8c-0.3-2.4-5.4-4.2-13-4.8
			c-0.5-8.2-1.9-14.3-3.6-14.4c-1.7-0.1-3.9,5.6-5.4,13.5c-7,0.3-11.5,3.1-11.6,5.7c-0.1,2.4,3.7,4.3,4.5,4.8h7.7v5.7h-7.7
			c-2.5,0-4.5,2.1-4.5,4.8c0,2.6,2,4.8,4.5,4.8h7.7v5.7h-7.7c-2.5,0-4.5,2.1-4.5,4.8c0,2.6,2,4.8,4.5,4.8h7.7v5.7h-7.7
			c-2.5,0-4.5,2.1-4.5,4.8c0,2.6,2,4.8,4.5,4.8h7.7v5.7h-7.7c-2.5,0-4.5,2.1-4.5,4.8c0,2.6,2,4.8,4.5,4.8h7.7v46.6h-20.9
			c-1.4,0.1-2.8,0.2-4.1,0.2c-0.1,19.2-0.3,38.4-0.4,57.6c0,23.4,6.1,46.3,17.7,66.3c0.8,1.4,2.3,2.3,3.9,2.3h16.8
			c1.6,0,3.1-0.9,3.9-2.3c11.6-20,17.7-42.9,17.7-66.3c0-19.2,0-38.4,0-57.6C329.5,197.6,328,197.6,326.5,197.5z"/>
	</g>
</g>
<rect x="206.5" y="152.6" class="st2" width="9" height="42.4"/>
<polygon class="st2" points="239,186 239.3,153.8 248.4,152.6 248.4,195 239.3,195.9 "/>
<g>
	<rect x="-3" y="362" class="st20" width="520" height="158"/>
	<text transform="matrix(1 0 0 1 138.6069 400.5557)" class="st2 st21 st22">Maquillage</text>
</g>
</svg>
