<?xml version="1.0" encoding="utf-8"?>
<!-- Generator: Adobe Illustrator 22.1.0, SVG Export Plug-In . SVG Version: 6.00 Build 0)  -->
<svg version="1.1" id="Calque_1" xmlns="http://www.w3.org/2000/svg" xmlns:xlink="http://www.w3.org/1999/xlink" x="0px" y="0px"
	 viewBox="0 0 500 500" style="enable-background:new 0 0 500 500;" xml:space="preserve">
<style type="text/css">
	.st0{fill:#EAEAEA;}
	.st1{fill:#8C8C8C;}
	.st2{fill:#FFFFFF;}
	.st3{fill:#EAEAEA;stroke:#8C8C8C;stroke-width:7;stroke-miterlimit:10;}
	.st4{fill:#070707;}
	.st5{fill:none;stroke:#8C8C8C;stroke-width:7;stroke-miterlimit:10;}
	.st6{fill:none;stroke:#8C8C8C;stroke-width:10;stroke-miterlimit:10;}
	.st7{fill:#8C8C8C;stroke:#8C8C8C;stroke-width:3;stroke-miterlimit:10;}
	.st8{fill:none;stroke:#8C8C8C;stroke-width:8;stroke-miterlimit:10;}
	.st9{fill:none;stroke:#8E8E8E;stroke-width:6;stroke-miterlimit:10;}
	.st10{fill:#8E8E8E;}
	.st11{fill:#505050;}
	.st12{fill:none;stroke:#8E8E8E;stroke-width:2;stroke-miterlimit:10;}
	.st13{fill:#8C8C8C;stroke:#8C8C8C;stroke-width:2;stroke-miterlimit:10;}
	.st14{fill:#8C8C8C;stroke:#FFFFFF;stroke-width:2;stroke-miterlimit:10;}
	.st15{fill:none;stroke:#FFFFFF;stroke-width:2;stroke-miterlimit:10;}
	.st16{fill:none;stroke:#8C8C8C;stroke-miterlimit:10;}
	.st17{fill:none;stroke:#8C8C8C;stroke-width:13;stroke-miterlimit:10;}
	.st18{fill:#EAEAEA;stroke:#8C8C8C;stroke-width:8;stroke-miterlimit:10;}
	.st19{fill:none;stroke:#8C8C8C;stroke-width:4;stroke-miterlimit:10;}
	.st20{fill:#8C8C8C;stroke:#8C8C8C;stroke-width:0.75;stroke-miterlimit:10;}
	.st21{fill:none;stroke:#8C8C8C;stroke-width:9;stroke-miterlimit:10;}
	.st22{fill:#8C8C8C;stroke:#8C8C8C;stroke-width:0.5;stroke-miterlimit:10;}
	.st23{fill:none;}
	.st24{fill:#6B6B6B;}
	.st25{font-family:'HelveticaNeue-CondensedBold';}
	.st26{font-size:54px;}
	.st27{stroke:#8C8C8C;stroke-width:8;stroke-miterlimit:10;}
	.st28{fill:#8C8C8C;stroke:#8C8C8C;stroke-miterlimit:10;}
	.st29{fill:none;stroke:#8C8C8C;stroke-width:11;stroke-miterlimit:10;}
	.st30{fill:none;stroke:#8C8C8C;stroke-width:6;stroke-miterlimit:10;}
	.st31{stroke:#8C8C8C;stroke-width:6;stroke-miterlimit:10;}
	.st32{fill:#8C8C8C;stroke:#8C8C8C;stroke-width:4;stroke-miterlimit:10;}
	.st33{fill:#8C8C8C;stroke:#8C8C8C;stroke-width:1.05;stroke-miterlimit:10;}
	.st34{fill:#D6D6D6;}
	.st35{fill:none;stroke:#EAEAEA;stroke-width:5;stroke-miterlimit:10;}
	.st36{fill:#8C8C8C;stroke:#8C8C8C;stroke-width:10;stroke-miterlimit:10;}
	.st37{fill:none;stroke:#CECECE;stroke-width:2;stroke-miterlimit:10;}
	.st38{fill:none;stroke:#FFFFFF;stroke-width:4;stroke-miterlimit:10;}
	.st39{fill-rule:evenodd;clip-rule:evenodd;fill:#8C8C8C;}
	.st40{fill:#8C8C8C;stroke:#8C8C8C;stroke-width:8;stroke-miterlimit:10;}
	.st41{fill:#8C8C8C;stroke:#8C8C8C;stroke-width:7;stroke-miterlimit:10;}
	.st42{fill:#DBDBDB;stroke:#8C8C8C;stroke-width:7;stroke-miterlimit:10;}
	.st43{fill:none;stroke:#8C8C8C;stroke-width:5;stroke-miterlimit:10;}
	.st44{fill:none;stroke:#8C8C8C;stroke-width:3;stroke-miterlimit:10;}
	.st45{clip-path:url(#SVGID_2_);fill:#8C8C8C;}
	.st46{clip-path:url(#SVGID_2_);fill:none;stroke:#8C8C8C;stroke-width:8;stroke-miterlimit:10;}
	.st47{clip-path:url(#SVGID_2_);fill:#FFFFFF;}
	.st48{clip-path:url(#SVGID_2_);fill:#EAEAEA;}
	.st49{clip-path:url(#SVGID_2_);fill:none;stroke:#8C8C8C;stroke-miterlimit:10;}
	.st50{fill:none;stroke:#FFFFFF;stroke-width:0.75;stroke-miterlimit:10;}
	.st51{fill:none;stroke:#8C8C8C;stroke-width:14;stroke-miterlimit:10;}
	.st52{fill:none;stroke:#EAEAEA;stroke-width:2;stroke-miterlimit:10;}
	.st53{fill:none;stroke:#8C8C8C;stroke-width:2;stroke-miterlimit:10;}
</style>
<rect class="st0" width="500" height="500"/>
<g>
	<g>
		<path class="st1" d="M279.7,285.3c-2.2-0.9-4.7,0.2-5.6,2.4c-0.9,2.2,0.2,4.7,2.4,5.6c2.2,0.9,4.7-0.2,5.6-2.4
			C283,288.7,281.9,286.2,279.7,285.3z"/>
	</g>
</g>
<g>
	<g>
		<path class="st1" d="M406.7,133.1l-20-8c0,0-0.1,0-0.1,0l-23.9-9.6c0,0-0.1,0-0.1,0l-23.9-9.6c0,0-0.1,0-0.1,0l-23.9-9.6
			c0,0-0.1,0-0.1,0l-20-8c-1.1-0.4-2.3-0.4-3.3,0c-1.1,0.4-1.9,1.3-2.3,2.4l-25.8,64.1l-3.2,8c-4.4,11,0.9,23.6,12,28.1l16,6.4
			c1.1,0.4,1.9,1.3,2.4,2.3c0.5,1.1,0.5,2.2,0,3.3l-3.2,7.9l-29.8,63.6c0,0,0,0,0,0c-0.3,0.5-0.5,1-0.7,1.6
			c-5.3,13.2,1.1,28.4,14.4,33.7c6.4,2.6,13.4,2.5,19.8-0.2c6.4-2.7,11.3-7.7,13.9-14.1c0.2-0.5,0.4-1.1,0.6-1.6c0,0,0,0,0,0
			c0,0,0,0,0,0l21.8-66.7l3.2-7.9c0.9-2.2,3.4-3.3,5.6-2.4l16,6.4c5.3,2.2,11.2,2.1,16.5-0.2c5.3-2.3,9.4-6.4,11.6-11.8l3.2-8
			l25.8-64.1C410,136.5,408.9,134,406.7,133.1z M297.1,290.6L297.1,290.6c-0.1,0.4-0.3,0.8-0.4,1.1c-1.7,4.3-5,7.6-9.3,9.4
			s-8.9,1.9-13.2,0.1c-8.8-3.6-13.1-13.6-9.6-22.5c0.1-0.4,0.3-0.7,0.5-1.1c0,0,0,0,0,0c0,0,0,0,0,0l28.1-60l24.5,9.9L297.1,290.6z
			 M372.1,207.6c-1.3,3.2-3.8,5.7-6.9,7.1c-3.2,1.4-6.7,1.4-9.9,0.1l-16-6.4c-6.6-2.7-14.2,0.6-16.8,7.2l-1.6,4l-24-9.7l1.6-4
			c1.3-3.2,1.3-6.7-0.1-9.9s-3.9-5.6-7.1-6.9l-16-6.4c-6.6-2.7-9.8-10.2-7.2-16.8l1.6-4l104.1,41.9L372.1,207.6z M376.9,195.6
			l-104.1-41.9l22.6-56.1l12,4.8l-11.3,28c-0.9,2.2,0.2,4.7,2.4,5.6c1.1,0.4,2.3,0.4,3.3,0c1-0.4,1.9-1.3,2.3-2.4l11.3-28l16,6.4
			l-11.3,28c-0.9,2.2,0.2,4.7,2.4,5.6c1.1,0.4,2.3,0.4,3.3,0c1-0.4,1.9-1.3,2.3-2.4l11.3-28l16,6.4l-11.3,28
			c-0.9,2.2,0.2,4.7,2.4,5.6c1.1,0.4,2.3,0.4,3.3,0c1-0.4,1.9-1.3,2.3-2.4l11.3-28l16,6.4l-11.3,28c-0.9,2.2,0.2,4.7,2.4,5.6
			c1.1,0.4,2.3,0.4,3.3,0c1-0.4,1.9-1.3,2.3-2.4l11.3-28l12,4.8L376.9,195.6z"/>
	</g>
</g>
<path class="st1" d="M325.9,103.8L325.9,103.8c2,0.8,3,3.2,2.2,5.2l-11.7,28.3c-0.8,2-3.2,3-5.2,2.2l0,0c-2-0.8-3-3.2-2.2-5.2
	l11.7-28.3C321.6,103.9,323.9,103,325.9,103.8z"/>
<path class="st1" d="M348.9,114.8L348.9,114.8c2,0.8,3,3.2,2.2,5.2l-11.7,28.3c-0.8,2-3.2,3-5.2,2.2l0,0c-2-0.8-3-3.2-2.2-5.2
	l11.7-28.3C344.6,114.9,346.9,114,348.9,114.8z"/>
<path class="st1" d="M372.9,123.8L372.9,123.8c2,0.8,3,3.2,2.2,5.2l-11.7,28.3c-0.8,2-3.2,3-5.2,2.2l0,0c-2-0.8-3-3.2-2.2-5.2
	l11.7-28.3C368.6,123.9,370.9,123,372.9,123.8z"/>
<path class="st1" d="M225.9,78.2l-18.5,11.5l-6.9-11.1c-3.8-6.1-11.9-8-18-4.2l-44.8,27.8c-2,1.3-2.7,4-1.4,6s4,2.7,6,1.4l44.8-27.8
	c2-1.3,4.7-0.6,6,1.4l18.4,29.6c1.3,2,0.6,4.7-1.4,6L87.3,195.2c-2,1.3-4.7,0.6-6-1.4l-18.4-29.6c-1.3-2-0.6-4.7,1.4-6l44.8-27.8
	c2-1.3,2.7-4,1.4-6c-1.3-2-4-2.7-6-1.4l-44.8,27.8c-6.1,3.8-8,11.9-4.2,18l6.9,11.1c-1.5,1-2.9,2.1-4.4,3.1c-1,1.6-1,3.6,0,5
	c1.3,1.7,3.9,2.3,6,1c1-0.6,2-1.1,3-1.7l6.9,11.1c3.8,6.1,11.9,8,18,4.2l122.9-76.4c6.1-3.8,8-11.9,4.2-18L212,97.1l14.8-9.2l23,37
	l-87.3,54.3c-2,1.3-2.7,4-1.4,6l19.8,31.8l-7.4,4.6c-6.1,3.8-8,11.9-4.2,18l4.6,7.4c3,4.8,8.6,7,13.9,5.9l29.4,47.3
	c3.8,6.1,11.9,8,18,4.2l7.4-4.6c6.1-3.8,8-11.9,4.2-18l-29.4-47.3c3.4-4.2,3.9-10.2,0.9-15.1l-4.6-7.4c-3.8-6.1-11.9-8-18-4.2
	l-7.4,4.6l-17.5-28.1l87.3-54.3c2-1.3,2.7-4,1.4-6l-27.6-44.4C230.7,77.6,228,77,225.9,78.2z M238,292.4l-7.4,4.6
	c-2,1.3-4.7,0.6-6-1.4l-29-46.6l14.8-9.2l29,46.6C240.6,288.4,240,291.1,238,292.4z M206.3,216.6l4.6,7.4c1.3,2,0.6,4.7-1.4,6
	l-22.2,13.8c-2,1.3-4.7,0.6-6-1.4l-4.6-7.4c-1.3-2-0.6-4.7,1.4-6l22.2-13.8C202.3,214,205,214.6,206.3,216.6z"/>
<rect x="119.2" y="44.2" transform="matrix(0.5296 0.8482 -0.8482 0.5296 156.7019 -49.9479)" class="st22" width="8.4" height="144.3"/>
<g>
	<rect x="-3" y="369" class="st23" width="500" height="144"/>
	<text transform="matrix(1 0 0 1 31.165 407.5557)" class="st24 st25 st26">Matériel de peinture</text>
</g>
</svg>
