<?xml version="1.0" encoding="utf-8"?>
<!-- Generator: Adobe Illustrator 22.1.0, SVG Export Plug-In . SVG Version: 6.00 Build 0)  -->
<svg version="1.1" id="Calque_1" xmlns="http://www.w3.org/2000/svg" xmlns:xlink="http://www.w3.org/1999/xlink" x="0px" y="0px"
	 viewBox="0 0 500 500" style="enable-background:new 0 0 500 500;" xml:space="preserve">
<style type="text/css">
	.st0{fill:#EAEAEA;}
	.st1{fill:#8C8C8C;}
	.st2{fill:#FFFFFF;}
	.st3{fill:#EAEAEA;stroke:#8C8C8C;stroke-width:7;stroke-miterlimit:10;}
	.st4{fill:#070707;}
	.st5{fill:none;stroke:#8C8C8C;stroke-width:7;stroke-miterlimit:10;}
	.st6{fill:none;stroke:#8C8C8C;stroke-width:10;stroke-miterlimit:10;}
	.st7{fill:#8C8C8C;stroke:#8C8C8C;stroke-width:3;stroke-miterlimit:10;}
	.st8{fill:none;stroke:#8C8C8C;stroke-width:8;stroke-miterlimit:10;}
	.st9{fill:none;stroke:#8E8E8E;stroke-width:6;stroke-miterlimit:10;}
	.st10{fill:#8E8E8E;}
	.st11{fill:#505050;}
	.st12{fill:none;stroke:#8E8E8E;stroke-width:2;stroke-miterlimit:10;}
	.st13{fill:#8C8C8C;stroke:#8C8C8C;stroke-width:2;stroke-miterlimit:10;}
	.st14{fill:#8C8C8C;stroke:#FFFFFF;stroke-width:2;stroke-miterlimit:10;}
	.st15{fill:none;stroke:#FFFFFF;stroke-width:2;stroke-miterlimit:10;}
	.st16{fill:none;stroke:#8C8C8C;stroke-miterlimit:10;}
	.st17{fill:none;stroke:#8C8C8C;stroke-width:13;stroke-miterlimit:10;}
	.st18{fill:#EAEAEA;stroke:#8C8C8C;stroke-width:8;stroke-miterlimit:10;}
	.st19{fill:none;stroke:#8C8C8C;stroke-width:4;stroke-miterlimit:10;}
	.st20{fill:#8C8C8C;stroke:#8C8C8C;stroke-width:0.75;stroke-miterlimit:10;}
	.st21{fill:none;stroke:#8C8C8C;stroke-width:9;stroke-miterlimit:10;}
	.st22{fill:#8C8C8C;stroke:#8C8C8C;stroke-width:0.5;stroke-miterlimit:10;}
	.st23{fill:#6B6B6B;}
	.st24{fill:none;}
	.st25{stroke:#8C8C8C;stroke-width:8;stroke-miterlimit:10;}
	.st26{fill:#8C8C8C;stroke:#8C8C8C;stroke-miterlimit:10;}
	.st27{fill:none;stroke:#8C8C8C;stroke-width:11;stroke-miterlimit:10;}
	.st28{fill:none;stroke:#8C8C8C;stroke-width:6;stroke-miterlimit:10;}
	.st29{stroke:#8C8C8C;stroke-width:6;stroke-miterlimit:10;}
	.st30{fill:#8C8C8C;stroke:#8C8C8C;stroke-width:4;stroke-miterlimit:10;}
	.st31{fill:#8C8C8C;stroke:#8C8C8C;stroke-width:1.05;stroke-miterlimit:10;}
	.st32{fill:#D6D6D6;}
	.st33{fill:none;stroke:#EAEAEA;stroke-width:5;stroke-miterlimit:10;}
	.st34{fill:#8C8C8C;stroke:#8C8C8C;stroke-width:10;stroke-miterlimit:10;}
	.st35{fill:none;stroke:#CECECE;stroke-width:2;stroke-miterlimit:10;}
	.st36{fill:none;stroke:#FFFFFF;stroke-width:4;stroke-miterlimit:10;}
	.st37{fill-rule:evenodd;clip-rule:evenodd;fill:#8C8C8C;}
	.st38{fill:#8C8C8C;stroke:#8C8C8C;stroke-width:8;stroke-miterlimit:10;}
	.st39{fill:#8C8C8C;stroke:#8C8C8C;stroke-width:7;stroke-miterlimit:10;}
	.st40{fill:#DBDBDB;stroke:#8C8C8C;stroke-width:7;stroke-miterlimit:10;}
	.st41{font-family:'HelveticaNeue-CondensedBold';}
	.st42{font-size:54px;}
	.st43{fill:none;stroke:#8C8C8C;stroke-width:5;stroke-miterlimit:10;}
	.st44{fill:none;stroke:#8C8C8C;stroke-width:3;stroke-miterlimit:10;}
	.st45{clip-path:url(#SVGID_2_);fill:#8C8C8C;}
	.st46{clip-path:url(#SVGID_2_);fill:none;stroke:#8C8C8C;stroke-width:8;stroke-miterlimit:10;}
	.st47{clip-path:url(#SVGID_2_);fill:#FFFFFF;}
	.st48{clip-path:url(#SVGID_2_);fill:#EAEAEA;}
	.st49{clip-path:url(#SVGID_2_);fill:none;stroke:#8C8C8C;stroke-miterlimit:10;}
	.st50{fill:none;stroke:#FFFFFF;stroke-width:0.75;stroke-miterlimit:10;}
	.st51{fill:none;stroke:#8C8C8C;stroke-width:14;stroke-miterlimit:10;}
	.st52{fill:none;stroke:#EAEAEA;stroke-width:2;stroke-miterlimit:10;}
	.st53{fill:none;stroke:#8C8C8C;stroke-width:2;stroke-miterlimit:10;}
</style>
<rect x="-1" y="1" class="st0" width="500" height="500"/>
<g>
	<rect x="1" y="362" class="st24" width="500" height="144"/>
	<text transform="matrix(1 0 0 1 130.6089 400.5557)"><tspan x="0" y="0" class="st23 st41 st42">Matériel de </tspan><tspan x="-8" y="64.8" class="st23 st41 st42">cordonnerie</tspan></text>
</g>
<path class="st1" d="M336.9,283.8c1.1,0,2.7,0,4.6,0.1c2.4,0.2,3.1,0.4,3.8-0.1c1.4-0.9,1-3.3,0.9-6.4c0-0.6-0.8-7.1,0.9-13.2
	c0.8-2.9,1.9-5.7,3-8.4c0.7-1.7,0.9-1.6,2.7-1.2c3.9,0.9,7.3,2.8,10.1,5.7c1,1.1,1.9,2.3,2.8,3.5c0.4,0.6,0.4,1-0.2,1.5
	c-4.2,3.7-7.3,8.3-9.8,13.3c-1.8,3.6-3.8,7.2-6.5,10.2c-2.2,2.5-4.7,4.4-8.1,4.8c-3.8,0.5-7.2-0.7-10.1-3.2
	c-2.7-2.4-4.8-5.4-6.6-8.5c-1.7-2.9-3.4-5.8-5.2-8.6c-1.8-2.7-4-5.2-6.6-7.3c-0.6-0.5-0.6-0.9-0.2-1.6c2.9-4.6,6.9-7.9,12.2-9.5
	c1.7-0.5,2.2-0.3,3.1,1.2c3.1,5.5,4.4,11.5,4.6,17.8c0,1.1-0.2,2.3,0.1,4c0.4,2.8,1.5,5.6,1.5,5.6l0,0
	C333.9,283.6,335,283.7,336.9,283.8z"/>
<path class="st1" d="M191.2,223c0-1.8,0-3.1,0-5c-3.5,0-7,0-10.4,0c-2.6,0-4.3-0.9-4.6-3.8c-2.2-17.4-4.8-34.7-6.7-52.1
	c-2-18.4-0.9-36.6,6-54c3.3-8.4,7.7-16.1,15.2-21.6c2.3-1.7,5.1-2.8,8.5-4.5c0.3,5.1,0.4,9.1,0.9,13.1c0.1,1.2,1.3,2.2,2,3.4
	c0.7-1.2,1.9-2.4,2-3.6c0.3-3.9,0.1-7.8,0.1-13c4.1,1.6,7.7,2.5,10.8,4.3c7.1,4.1,12.1,10.5,15.9,17.6c12.7,24.2,15.6,49.4,8.4,76
	c-2.9,10.6-4.3,21.6-5.9,32.4c-0.6,4.2-1.9,6.1-6.2,5.8c-1.9-0.1-3.9,0-6.1,0c-0.1,1.7-0.2,3-0.3,4.7c1.9,0.1,3.5,0.3,5.1,0.3
	c6.6,0.1,7.3,0.7,7.1,7.3c-0.6,18.1-1.5,36.3-7.1,53.7c-1.5,4.8-3.7,9.7-6.5,13.9c-6.2,9.2-18,10.9-25.9,3.2
	c-4.6-4.5-8.8-10.5-10.4-16.6c-3.2-12.2-4.9-24.8-6.6-37.3c-0.9-6.2-0.4-12.7-0.6-19c-0.1-3.6,1.6-5.3,5.2-5.2
	C184.4,223.1,187.7,223,191.2,223z M209,87.8c-0.6,0.1-1.2,0.3-1.8,0.4c0.7,22,1.1,44.1,2.1,66.1c0.3,7,4.9,11.9,11.1,15
	c2.9,1.5,6,2.6,9.5,4.1c-1,0.2-1.4,0.4-1.8,0.4c-12.9,0-23.1-8-25.1-21.6c-2.8-19.4-4.6-39-6.8-58.5c-0.2-1.7-0.3-3.5-0.5-5.5
	c-4.8,1.9-6.9,4.5-6.7,9.4c0.4,12.4,0.1,24.8,0.1,37.8c-0.8-13.1-1.6-25.7-2.3-38.2c-0.4-0.1-0.8-0.1-1.3-0.2
	c-4.9,8.6-10.6,16.8-9.2,27.8c1.1,8.5,1.8,17.1,2.7,25.7c-0.2,0-0.5,0-0.7,0.1c-1.2-7.3-2.4-14.7-3.6-22c-1,0.5-1.3,1-1.3,1.5
	c0.1,13.1-0.4,26.3,0.7,39.3c1.1,14.6,3.7,29,5.6,43.5c0.1,0.6,0.6,1.2,0.8,1.7c0.4,0,0.7,0,1.1,0c0.7-3.9,1.4-7.8,2-11.7
	c0.3,0,0.6,0.1,0.8,0.1c0,3.8,0,7.7,0,11.4c2.5,0,4.5,0,5.1,0c1.4-3.4,1.8-6.6,3.6-8.3c1.2-1.2,5.4-1.2,6.5-0.1
	c1.9,1.9,2.4,5.2,3.8,8.5c1.4,0,4,0,6.7,0c-0.7-6.5,0.7-9.3,4.9-9.5c1.5-0.1,4,0.3,4.5,1.3c1.4,2.4,1.9,5.3,2.8,8.2
	c1.9,0,4.3,0,6.7,0c0-6.7,0-13.1,0-19.9c-6.9,1.7-1.9,7.6-4.4,10.7c-0.6-3.1-1.1-6-1.7-9.2c-5.8,0-11.3,0-16.9,0
	c-0.2,2.2-0.3,4.1-0.4,6c0.3-7.4-5.4-8-10.4-9.2c-1.2-0.3-2.3-0.8-3.4-1.3c-3.4-1.5-6.8-3-10.2-4.5c0.1-0.3,0.3-0.6,0.4-1
	c1.3,0.1,2.6,0.3,4.3,0.5c-0.4-4.8-0.8-9.3-1.2-13.7c1.5,4,2.3,8.1,3.4,12.1c0.2,0.8,1.5,1.3,2.3,2c0.6-0.8,1.7-1.6,1.8-2.5
	c0-2.9-0.2-5.7-0.5-8.6c-0.7-6.2-1.5-12.3-2.3-18.5c2.3,8.2,3.6,16.5,5.1,24.8c0.3,1.9-0.6,4.5,3,4.5c3.1,0,5.3-0.5,5.7-4.2
	c0.3-2.5,0.9-5,1.3-7.5c0.2,0,0.3,0.1,0.5,0.1c0,3.7,0,7.4,0,11.4c4.6,0,8.9,0,13.5,0c0-2.6,0-5.1,0-7.7c0.3,0,0.5,0,0.8,0
	c0,2.6,0,5.2,0,7.7c7.4,1.5,8,1,8.7-6.8c0.1,2.4,0.3,4.1,0.4,6c4.9-3.3,9.2-31.8,6-39c-0.4,2-0.7,3.7-1,5.4
	c1.2-17.5-1.8-34-11.2-49.7c-1.7,14.2-3.3,27.8-5,41.4c-0.2-2.1-0.1-4.2,0-6.3c0.7-10.9,1.3-21.7,2.3-32.6
	C220.8,95.8,215.3,91.5,209,87.8z M178.8,226.7c1,13,1.2,25.6,3.1,37.9c1.4,9.1,4.8,18,8,26.7c1.6,4.5,5.2,8,9.9,9.6
	c-0.4-7.8-0.9-15.5-1.3-23.2c0.3,0,0.6,0,0.9-0.1c0.3,2,0.5,4,0.8,5.6c3.3-0.2,6.1-0.4,9.5-0.7c-0.5-5.8-0.9-11.5-1.7-17.1
	c-0.1-0.9-1.6-2.4-2.4-2.5c-5.2-0.2-10.5-0.1-16.7-0.1c1.1,8.1,2.1,15.9,3.1,23.8c-1.9-8.7-6.4-17-5.1-26.5c4.6-0.3,8.8-0.7,13.2-1
	c0.4-5.3,0.8-10.3,1.2-15.3c0.2,0,0.4,0,0.6,0c0.3,5.1,0.5,10.1,0.8,15.2c7.3,0.4,14,0.7,20.9,1.1c0,2.4,0,4.2,0,5.9
	c0.3,0,0.6,0,0.9,0.1c1.6-11.8,3.1-23.7,4.7-35.8c-2.9,0-5.1,0-7.4,0c-0.4,5.7-0.8,11.2-1.2,16.6c-0.1,0-0.3,0-0.4,0
	c-0.4-5.5-0.7-11.1-1.1-17.2c-7.7,0-15,0-22.6,0c0,3,0.2,6,0,9c-0.2,2.9-0.7,5.7-1.3,9.7c-0.4-7.3-0.7-13.4-1.1-20.6
	c11.2,0,22.5,0,33.8,0c0-0.4,0-0.8,0-1.2C211.9,226.7,196.1,226.7,178.8,226.7z M210.5,262.8c0,5.5-0.1,10.5,0.1,15.4
	c0.1,3,0.5,6.1,1.3,9c1.1,4.3-1.1,8.4-5.5,9.2c-1.2,0.2-2.5,0.2-3.8,0.4c0.9,5.8,3,7.1,7.4,4c2.7-1.9,5.5-4.7,6.6-7.7
	c2.8-7.1,4.6-14.6,6.7-22c0.2-0.7-0.4-1.7-1-3.5c-1.6,6.6-2.9,12.1-4.3,17.6c-0.1,0-0.2-0.1-0.4-0.1c0.9-7.4,1.8-14.7,2.7-22.2
	C216.4,262.8,213.6,262.8,210.5,262.8z M199.6,289.8c0.5,3.2,2.3,5.3,5.7,5.1c3.3-0.2,5.4-2.3,5.2-5.6c-0.2-3.2-2.2-5.3-5.6-5.2
	C201.5,284.4,199.8,286.5,199.6,289.8z M204.3,117.3c0-5.3,0-9.4-0.1-13.5c0-0.5-0.8-1.3-1.3-1.5c-0.6-0.1-1.5,0.2-1.9,0.7
	C199.9,104.4,201.7,114.7,204.3,117.3z M201.6,218.3c0.1,1.8,0.2,3.1,0.3,4.4c3.1,0,5.8,0,8.9,0c-0.1-1.7-0.2-2.9-0.3-4.4
	C207.5,218.3,204.9,218.3,201.6,218.3z M204.2,120.1c-0.7,0.1-1.5,0.1-2.2,0.2c0.8,8,1.6,16.1,2.4,24.1c0.3,0,0.6-0.1,1-0.1
	C205,136.3,204.6,128.2,204.2,120.1z M215.6,210.6c-0.3,0-0.5,0-0.8,0c0,4,0,7.9,0,11.9c0.3,0,0.5,0,0.8,0.1
	C215.6,218.5,215.6,214.6,215.6,210.6z"/>
<path class="st1" d="M199.6,289.8c0.2-3.4,1.9-5.5,5.3-5.6c3.4-0.1,5.5,1.9,5.6,5.2c0.2,3.3-1.9,5.4-5.2,5.6
	C202,295.1,200.1,293.1,199.6,289.8z M201,289.4c0.4,2.9,1.8,4.7,4.6,4c1.5-0.3,2.6-2.2,4.6-4C206.1,289.4,203.7,289.4,201,289.4z"
	/>
<path class="st1" d="M204.3,117.3c-2.5-2.5-4.4-12.9-3.3-14.3c0.4-0.5,1.3-0.8,1.9-0.7c0.5,0.1,1.3,0.9,1.3,1.5
	C204.3,107.9,204.3,112,204.3,117.3z"/>
<path class="st1" d="M201.8,217.8c3.3,0,5.9,0,8.9,0c0.1,1.5,0.2,2.7,0.3,4.4c-3.1,0-5.8,0-8.9,0C202,220.9,201.9,219.6,201.8,217.8
	z"/>
<path class="st1" d="M204.4,119.1c0.4,8.1,0.8,16.2,1.2,24.4c-0.3,0-0.7,0.1-1,0.1c-0.8-8.1-1.6-16.2-2.4-24.2
	C202.9,119.2,203.7,119.1,204.4,119.1z"/>
<path class="st1" d="M247.5,237.1C247.5,237.1,247.5,237.1,247.5,237.1c0-0.5,0-0.9-0.1-1.4c11.2,5.7,21.6,7.5,28.3,6.2
	c4.5-0.9,8.7-3.4,10.3-4.3c3.6-2,5.3-4.3,4-8.7c-1-3.5-0.9-7.3-1.8-10.8c-2.1-7.6,2.9-14.1,6.6-29.3c1.1-4.5,1.7-8.8,2.9-17.3
	c6-43.5-3.2-64.5-6.2-70.7c-1.6-3.1-3.8-6.9-7.5-7.7c-8.1-1.9-16.8,11.1-17.8,12.6c-5.9,9.1-13.2,22.8-17.8,40.7
	c0,0-8.3,22.6-3.4,50.1c0.1,0.6-4.4-17.8-1.9-38.9c3.4-29.5,17.4-51.1,26.6-62.9c1.8-1.9,6.4-6,11.9-5.5c6.8,0.6,11.8,7.3,12.9,10.7
	c9.8,29.7,17.2,59.7,3.7,90.5c-0.1,0.3,0.1,0.8,0.4,1.9c4.4-10.6,9.9-28.2,8.9-50.1c-0.5-10.4-2.3-19.5-4.4-26.7
	c-0.7-2.7-4-14.8-6.3-19.3c-0.4-0.7-0.7-1.3-0.7-1.3c-0.5-0.8-2.4-4-5.1-6c-4.5-3.4-10.3-2.6-12.4-2.3c-2.3,0.3-4.2,1-5.4,1.5
	c-0.3,0.1-0.8,0.3-1.5,0.7c0,0-4.9,2.6-8.4,8.2c-29.7,46.9-20.8,109.1-20.8,109.1C243.7,214.3,246,226.1,247.5,237.1z M256,194.7
	c0-0.4-0.1-0.8-0.1-1.2c8.9-1,17.9-1.9,26.8-2.9c0,0.5,0.1,0.9,0.1,1.4C273.9,192.9,265,193.8,256,194.7z M271.9,121.1
	c5.2-0.6,10.5-1,15.8-0.4c-7.7,0.9-15.4,1.8-23.2,2.7c0-0.3-0.1-0.6-0.1-1C266.9,122,269.4,121.4,271.9,121.1z M287.8,128.4
	c0,0.4,0.1,0.8,0.1,1.3c-8.5,0.9-17,1.9-25.5,2.8c0-0.5-0.1-0.9-0.1-1.4C270.8,130.2,279.3,129.3,287.8,128.4z M288.6,137.1
	c0,0.4,0.1,0.9,0.1,1.3c-9.6,1-19.2,2-28.8,3.1c0-0.4-0.1-0.9-0.1-1.3C269.4,139.1,279,138.1,288.6,137.1z M287.8,146.1
	c0,0.4,0.1,0.9,0.1,1.3c-9.8,1-19.6,2-29.4,3c0-0.4-0.1-0.9-0.1-1.3L287.8,146.1z M286.5,154.9c0,0.5,0,1,0.1,1.5
	c-9.8,0.9-19.6,1.9-29.3,2.8c0-0.4-0.1-0.8-0.1-1.2C266.9,157,276.7,156,286.5,154.9z M285.5,163.9c0,0.5,0.1,0.9,0.1,1.4
	c-9.8,1-19.7,2-29.5,3c0-0.4-0.1-0.9-0.1-1.3C265.9,165.9,275.7,164.9,285.5,163.9z M285.1,172.7c0,0.5,0.1,0.9,0.1,1.4
	c-9.7,1-19.4,2-29.1,3c-0.1-0.4-0.2-0.9-0.3-1.3L285.1,172.7z M283.8,181.7c0,0.5,0.1,0.9,0.1,1.4c-9.6,1-19.2,2-28.8,3
	c0-0.4,0-0.9-0.1-1.3C264.6,183.7,274.2,182.7,283.8,181.7z"/>
<path class="st1" d="M248.8,252.5L248.8,252.5C248.8,252.5,248.8,252.5,248.8,252.5c0,1.7,0,3.4-0.1,4.9c-0.1,1-0.4,7.5,0.7,15.9
	c0.5,4.2,1.5,8.4,3.1,12.3c4.9,11.9,16,17.8,28.9,15.8c11.6-1.8,18.3-9.8,19.3-23.4c0.9-11.5-3.1-22-6.1-31.6
	C279.3,248.5,264,250.5,248.8,252.5z"/>
<g id="KneIcB.tif_1_">
	<g>
		<path class="st1" d="M339.5,223c6.7,0.3,12.3-5.1,12.6-12c0.3-6.5-5.1-12.3-11.6-12.7c-7.1-0.4-13.1,4.8-13.3,12.1
			C327.2,216.8,331.7,222.8,339.5,223z"/>
		<path class="st1" d="M339.5,223c-7.8-0.2-12.4-6.2-12.2-12.6c0.2-7.3,6.2-12.5,13.3-12.1c6.4,0.4,11.8,6.2,11.6,12.7
			C351.9,217.9,346.3,223.2,339.5,223z M339.8,199.4c-6.2-0.2-11.2,5-11.4,10.9c-0.2,6.4,5.2,11.7,11.4,11.6
			c6.5-0.1,11.2-5.5,11.2-11.3C351.1,204.6,345.9,199.2,339.8,199.4z"/>
		<path class="st1" d="M339.8,199.4c6.1-0.2,11.3,5.2,11.3,11.2c0,5.9-4.7,11.2-11.2,11.3c-6.3,0.1-11.7-5.2-11.4-11.6
			C328.6,204.4,333.6,199.2,339.8,199.4z"/>
	</g>
</g>
<g>
	<path class="st1" d="M354,163.6c0.3-8.5,0.5-17,0.7-25.5c-7.4-11.6-14.2-22.5-17-26.3c-0.1-0.1-0.2-0.3-0.3-0.4
		c3.2,3.6,6.1,7.7,9,11.1c2.9,3.4,5.7,7,8.5,10.5c0-1.7,0.1-3.3,0.1-5c-2.8-3.4-5.6-6.8-8.4-10.1c-4.3-5.1-8.2-10.9-13.6-14.8
		c-0.8-1.5-1.5-2.1-2.7-1.2c-0.6,0.1-1,0.6-1.2,1.1c-0.7,0.8-1.5,1.9-2.6,3.4c-7.1,10.3-8.1,19.3-4.3,29.6c3.8,10.3,3,46.7,3,46.7
		s1.6,2.2,3.3,1.1c1.6-1.1-2.2-35.6,0.8-39.7c0,0,12.8-7.1,23.6,17.1C353.3,162,353.6,162.8,354,163.6"/>
</g>
<path class="st0" d="M339.9,218.6c4.5,0.1,7.8-3.2,7.9-8.1c0.2-4.4-3.7-8.1-8.3-8c-4.4,0.1-7.8,3.6-7.9,7.8
	C331.6,215.3,335.3,218.8,339.9,218.6z"/>
</svg>
