<?xml version="1.0" encoding="utf-8"?>
<!-- Generator: Adobe Illustrator 22.1.0, SVG Export Plug-In . SVG Version: 6.00 Build 0)  -->
<svg style="enable-background:new 0 0 500 500;" id="Calque_1" version="1.1" viewBox="0 0 500 500" x="0px"
     xmlns="http://www.w3.org/2000/svg" y="0px" xml:space="preserve">
<style type="text/css">
	.st0{fill:#4FBDD7;}
	.st1{fill:#EAEAEA;}
	.st2{fill:#FFFFFF;}
	.st3{fill:#4FBDD7;stroke:#FFFFFF;stroke-width:5;stroke-miterlimit:10;}
	.st4{fill:#8C8C8C;}
	.st5{fill:#070707;}
	.st6{fill:none;stroke:#FFFFFF;stroke-width:7;stroke-miterlimit:10;}
	.st7{fill:none;stroke:#FFFFFF;stroke-width:10;stroke-miterlimit:10;}
	.st8{fill:#FFFFFF;stroke:#FFFFFF;stroke-width:3;stroke-miterlimit:10;}
	.st9{fill:none;stroke:#FDFFFF;stroke-width:6;stroke-miterlimit:10;}
	.st10{fill:#FAFEFF;}
	.st11{fill:none;stroke:#FFFFFF;stroke-width:2;stroke-miterlimit:10;}
	.st12{fill:#FFFFFF;stroke:#FFFFFF;stroke-width:2;stroke-miterlimit:10;}
	.st13{fill:#4FBDD7;stroke:#FFFFFF;stroke-width:4;stroke-miterlimit:10;}
	.st14{fill:#FFFFFF;stroke:#FFFFFF;stroke-width:4;stroke-miterlimit:10;}
	.st15{fill:none;stroke:#FFFFFF;stroke-miterlimit:10;}
	.st16{fill:#FFFFFF;stroke:#FFFFFF;stroke-width:13;stroke-miterlimit:10;}
	.st17{fill:#4FBDD7;stroke:#FFFFFF;stroke-width:8;stroke-miterlimit:10;}
	.st18{fill:#FFFFFF;stroke:#FFFFFF;stroke-width:0.75;stroke-miterlimit:10;}
	.st19{fill:#FFFFFF;stroke:#FFFFFF;stroke-width:0.5;stroke-miterlimit:10;}
	.st20{fill:#FFFFFF;stroke:#FFFFFF;stroke-width:8;stroke-miterlimit:10;}
	.st21{fill:#FFFFFF;stroke:#FFFFFF;stroke-miterlimit:10;}
	.st22{fill:#FFFFFF;stroke:#FFFFFF;stroke-width:11;stroke-miterlimit:10;}
	.st23{fill:#FFFFFF;stroke:#FFFFFF;stroke-width:6;stroke-miterlimit:10;}
	.st24{fill:none;}
	.st25{font-family:'HelveticaNeue-CondensedBold';}
	.st26{font-size:54px;}
	.st27{fill:#8C8C8C;stroke:#8C8C8C;stroke-width:4;stroke-miterlimit:10;}
	.st28{fill:#FFFFFF;stroke:#FFFFFF;stroke-width:1.05;stroke-miterlimit:10;}
	.st29{fill:none;stroke:#4FBDD7;stroke-width:5;stroke-miterlimit:10;}
	.st30{fill:none;stroke:#FFFFFF;stroke-width:4;stroke-miterlimit:10;}
	.st31{fill:#8C8C8C;stroke:#FFFFFF;stroke-width:4;stroke-miterlimit:10;}
	.st32{fill:#FFFFFF;stroke:#FFFFFF;stroke-width:10;stroke-miterlimit:10;}
	.st33{fill:none;stroke:#4FBDD7;stroke-width:2;stroke-miterlimit:10;}
	.st34{fill-rule:evenodd;clip-rule:evenodd;fill:#FFFFFF;}
	.st35{fill:#FFFFFF;stroke:#FFFFFF;stroke-width:7;stroke-miterlimit:10;}
	.st36{fill:#FFFFFF;stroke:#4FBDD7;stroke-width:7;stroke-miterlimit:10;}
	.st37{fill:#FCFCFC;}
	.st38{fill:#FFFFFF;stroke:#FFFFFF;stroke-width:5;stroke-miterlimit:10;}
	.st39{fill:none;stroke:#FFFFFF;stroke-width:3;stroke-miterlimit:10;}
	.st40{fill:none;stroke:#FFFFFF;stroke-width:8;stroke-miterlimit:10;}
	.st41{fill:none;stroke:#FFFFFF;stroke-width:6;stroke-miterlimit:10;}
	.st42{fill:#FFFFFF;stroke:#4FBDD7;stroke-width:3;stroke-miterlimit:10;}
	.st43{fill:none;stroke:#FFFFFF;stroke-width:0.75;stroke-miterlimit:10;}
	.st44{fill:#4FBDD7;stroke:#FFFFFF;stroke-width:9;stroke-miterlimit:10;}
	.st45{fill:none;stroke:#FFFFFF;stroke-width:9;stroke-miterlimit:10;}
	.st46{fill:none;stroke:#4FBDD7;stroke-width:3;stroke-miterlimit:10;}
</style>
    <rect class="st0" height="500" width="500"/>
    <g id="UIyuBT.tif">
	<g>
		<path class="st2" d="M323.9,299.6c-54,0-108.1,0-162.1,0c0-5.3,0-10.7-0.1-16c-0.3-24.4,0.3-48.7,3.7-72.9
			c4.1-28.3,10.9-55.9,21.1-82.6c2.2-5.9,3.8-11.7,3.2-18c-0.2-2-0.1-4,0.2-5.9c0.7-3.8,3.5-5.8,7-7.1c34.7,0,69.3,0,104,0
			c5.6,2.1,7.4,6.3,7.1,12c-0.2,3.1,0,6.3,0,9.5c0,1.5,0,3,0,4.7c-3.6,0-7,0-10.6,0c0.4,1,0.6,1.8,0.9,2.6c5.5,14.4,10.1,29,13.9,44
			c6.4,25.7,10.4,51.7,11.3,78.2c0.5,13.8,0.3,27.7,0.4,41.5C324,292.9,323.9,296.3,323.9,299.6z M288.4,123.3
			c-0.7,0-1.1-0.1-1.5-0.1c-30.2,0-60.4,0-90.5,0c-1.4,0-1.9,0.6-2.3,1.7c-7.7,19.9-13.9,40.3-18.2,61.2
			c-4.4,20.9-7.2,42.1-7.8,63.4c-0.4,14.2-0.3,28.3-0.4,42.5c0,0.5,0.1,1,0.2,1.4c31.4,0,62.6,0,94,0c0-0.8,0-1.4,0-2
			c0-7.4,0-14.8,0-22.1c-0.1-19.2,1-38.3,3.6-57.3c3.6-25.9,9.6-51.2,18.3-75.8C285.3,132,286.8,127.8,288.4,123.3z M268.2,289.3
			c0.6-0.6,1.1-1,1.6-1.4c6.3-5.9,12.5-11.9,18.9-17.7c1-0.9,1.4-1.9,1.4-3.3c0-42.4,0-84.7,0-127.1c0-0.6-0.1-1.2-0.1-2.3
			C272.1,186.9,266.3,237.4,268.2,289.3z M296.1,137.4c-0.1,0.6-0.1,0.7-0.1,0.7c0,43.1,0,86.1,0,129.2c0,0.8,0.5,1.9,1.1,2.5
			c6.5,6.2,13,12.3,19.5,18.5c0.3,0.3,0.8,0.6,1.1,0.8C319.7,237.4,313.8,186.8,296.1,137.4z M290,103.2c-0.5,0-1.1,0-1.7,0
			c-29.3,0-58.6,0-87.9,0c-0.8,0-1.7-0.1-2.3,0.3c-0.9,0.6-2.1,1.6-2.2,2.4c-0.2,3.7-0.1,7.5-0.1,11.3c31.4,0,62.7,0,94.2,0
			C290,112.5,290,108,290,103.2z M293,274.3c-6.8,6.4-13.5,12.7-20.3,19.2c13.7,0,27,0,40.6,0C306.4,286.9,299.7,280.7,293,274.3z
			 M301.8,117.2c0-3.9,0.1-7.8,0-11.6c-0.1-1.5-1.4-2.2-2.8-2.3c-1.4,0-2.7,0.8-2.8,2.3c-0.1,3.8,0,7.7,0,11.6
			C298.1,117.2,299.9,117.2,301.8,117.2z"/>
        <path class="st2" d="M290,103.2c0,4.8,0,9.3,0,14c-31.5,0-62.8,0-94.2,0c0-3.8-0.1-7.5,0.1-11.3c0.1-0.9,1.3-1.8,2.2-2.4
			c0.6-0.4,1.5-0.3,2.3-0.3c29.3,0,58.6,0,87.9,0C288.9,103.2,289.5,103.2,290,103.2z"/>
        <path class="st2"
              d="M293,274.3c6.8,6.4,13.4,12.6,20.3,19.2c-13.7,0-26.9,0-40.6,0C279.5,287,286.1,280.7,293,274.3z"/>
        <path class="st2" d="M305.3,241.3c-0.6-6.5-1.1-12.8-1.7-19.3c2-0.2,3.9-0.5,5.9-0.7c0.6,6.6,1.2,13,1.8,19.6
			C309.3,241.1,307.4,241.2,305.3,241.3z"/>
	</g>
</g>
    <g>
	<g>
		<path class="st2" d="M232.3,153.2c-0.5-0.1-1-0.1-1.3,0.2l-55.9,38.6c-0.4,0.3-0.6,0.7-0.7,1.2c0,0.5,0.2,0.9,0.5,1.3l25.6,23.2
			c-1,1.6-1,3.8,0.1,5.5l2.5,3.6c1.6,2.3,4.7,2.9,7,1.3l16.2-11.1l8.6,17.1c1.1,2.3,3.2,3.9,5.6,4.5c2.4,0.6,5,0.2,7.1-1.3
			c2.1-1.4,3.4-3.7,3.7-6.2c0.3-2.5-0.5-5-2.2-6.9l-13-14.1l16.2-11.2c2.3-1.6,2.9-4.7,1.3-7l-2.5-3.6c-1.2-1.7-3.2-2.4-5.1-2.1
			l-12.6-32.1C233.1,153.7,232.8,153.4,232.3,153.2z M250.9,193.7c0.6,0.9,0.4,2-0.5,2.6l-17.6,12.2c-0.4,0.3-0.6,0.7-0.7,1.1
			c-0.1,0.4,0.1,0.9,0.4,1.2l14.2,15.4c1.1,1.2,1.6,2.8,1.4,4.4c-0.2,1.6-1.1,3.1-2.4,4s-3,1.2-4.6,0.8s-2.9-1.5-3.6-2.9l-9.4-18.7
			c-0.2-0.4-0.6-0.7-1-0.8c-0.4-0.1-0.9,0-1.3,0.2l-17.6,12.2c-0.9,0.6-2,0.4-2.6-0.5l-2.5-3.6c-0.6-0.9-0.4-2,0.5-2.6l42.2-29.1
			c0.9-0.6,2-0.4,2.6,0.5L250.9,193.7L250.9,193.7z M243.2,187.7l-40.4,27.9l-20.4-18.5c-0.8-0.7-1.6-1.4-2.4-2.2l-1.6-1.4
			l52.7-36.4L243.2,187.7z"/>
	</g>
</g>
    <rect class="st2" height="2.3" transform="matrix(-0.823 0.568 -0.568 -0.823 476.7934 205.9429)" width="65.6" x="173.5"
          y="176.1"/>
    <g>
	<rect class="st24" height="144" width="500" x="4" y="360"/>
        <text transform="matrix(1 0 0 1 90.6802 398.5557)"><tspan class="st2 st25 st26" x="0" y="0">Mortier adhésif</tspan>
            <tspan class="st2 st25 st26" x="73.4" y="64.8"> / Enduit</tspan></text>
</g>
</svg>
