<?xml version="1.0" encoding="utf-8"?>
<!-- Generator: Adobe Illustrator 22.1.0, SVG Export Plug-In . SVG Version: 6.00 Build 0)  -->
<svg style="enable-background:new 0 0 500 500;" id="Calque_1" version="1.1" viewBox="0 0 500 500" x="0px"
     xmlns="http://www.w3.org/2000/svg" y="0px" xml:space="preserve">
<style type="text/css">
	.st0{fill:#4FBDD7;}
	.st1{fill:#EAEAEA;}
	.st2{fill:#FFFFFF;}
	.st3{fill:#4FBDD7;stroke:#FFFFFF;stroke-width:5;stroke-miterlimit:10;}
	.st4{fill:#8C8C8C;}
	.st5{fill:#070707;}
	.st6{fill:none;stroke:#FFFFFF;stroke-width:7;stroke-miterlimit:10;}
	.st7{fill:none;stroke:#FFFFFF;stroke-width:10;stroke-miterlimit:10;}
	.st8{fill:#FFFFFF;stroke:#FFFFFF;stroke-width:3;stroke-miterlimit:10;}
	.st9{fill:none;stroke:#FDFFFF;stroke-width:6;stroke-miterlimit:10;}
	.st10{fill:#FAFEFF;}
	.st11{fill:none;stroke:#FFFFFF;stroke-width:2;stroke-miterlimit:10;}
	.st12{fill:#FFFFFF;stroke:#FFFFFF;stroke-width:2;stroke-miterlimit:10;}
	.st13{fill:#4FBDD7;stroke:#FFFFFF;stroke-width:4;stroke-miterlimit:10;}
	.st14{fill:#FFFFFF;stroke:#FFFFFF;stroke-width:4;stroke-miterlimit:10;}
	.st15{fill:none;stroke:#FFFFFF;stroke-miterlimit:10;}
	.st16{fill:#FFFFFF;stroke:#FFFFFF;stroke-width:13;stroke-miterlimit:10;}
	.st17{fill:#4FBDD7;stroke:#FFFFFF;stroke-width:8;stroke-miterlimit:10;}
	.st18{fill:#FFFFFF;stroke:#FFFFFF;stroke-width:0.75;stroke-miterlimit:10;}
	.st19{fill:#FFFFFF;stroke:#FFFFFF;stroke-width:0.5;stroke-miterlimit:10;}
	.st20{fill:#FFFFFF;stroke:#FFFFFF;stroke-width:8;stroke-miterlimit:10;}
	.st21{fill:#FFFFFF;stroke:#FFFFFF;stroke-miterlimit:10;}
	.st22{fill:#FFFFFF;stroke:#FFFFFF;stroke-width:11;stroke-miterlimit:10;}
	.st23{fill:#FFFFFF;stroke:#FFFFFF;stroke-width:6;stroke-miterlimit:10;}
	.st24{fill:#8C8C8C;stroke:#8C8C8C;stroke-width:4;stroke-miterlimit:10;}
	.st25{fill:#FFFFFF;stroke:#FFFFFF;stroke-width:1.05;stroke-miterlimit:10;}
	.st26{fill:none;stroke:#4FBDD7;stroke-width:5;stroke-miterlimit:10;}
	.st27{fill:none;stroke:#FFFFFF;stroke-width:4;stroke-miterlimit:10;}
	.st28{fill:#8C8C8C;stroke:#FFFFFF;stroke-width:4;stroke-miterlimit:10;}
	.st29{fill:#FFFFFF;stroke:#FFFFFF;stroke-width:10;stroke-miterlimit:10;}
	.st30{fill:none;stroke:#4FBDD7;stroke-width:2;stroke-miterlimit:10;}
	.st31{fill-rule:evenodd;clip-rule:evenodd;fill:#FFFFFF;}
	.st32{fill:#FFFFFF;stroke:#FFFFFF;stroke-width:7;stroke-miterlimit:10;}
	.st33{fill:#FFFFFF;stroke:#4FBDD7;stroke-width:7;stroke-miterlimit:10;}
	.st34{fill:none;}
	.st35{font-family:'HelveticaNeue-CondensedBold';}
	.st36{font-size:54px;}
	.st37{fill:#FCFCFC;}
	.st38{fill:#FFFFFF;stroke:#FFFFFF;stroke-width:5;stroke-miterlimit:10;}
	.st39{fill:none;stroke:#FFFFFF;stroke-width:3;stroke-miterlimit:10;}
	.st40{fill:none;stroke:#FFFFFF;stroke-width:8;stroke-miterlimit:10;}
	.st41{fill:none;stroke:#FFFFFF;stroke-width:6;stroke-miterlimit:10;}
	.st42{fill:#FFFFFF;stroke:#4FBDD7;stroke-width:3;stroke-miterlimit:10;}
	.st43{fill:none;stroke:#FFFFFF;stroke-width:0.75;stroke-miterlimit:10;}
	.st44{fill:#4FBDD7;stroke:#FFFFFF;stroke-width:9;stroke-miterlimit:10;}
	.st45{fill:none;stroke:#FFFFFF;stroke-width:9;stroke-miterlimit:10;}
	.st46{fill:none;stroke:#4FBDD7;stroke-width:3;stroke-miterlimit:10;}
</style>
    <rect class="st0" height="500" width="500" x="1"/>
    <g>
	<rect class="st34" height="118" width="500" x="3" y="375"/>
        <text class="st2 st35 st36" transform="matrix(1 0 0 1 175.1074 413.5557)">Nail art</text>
</g>
    <path class="st4" d="M274.7,255.3c-16.3-6.5-34.5-6.5-50.8,0c-0.8,0.3-1.4,1.1-1.5,1.9c-0.1,0.9,0.2,1.7,0.9,2.3
	c0.7,0.5,1.6,0.7,2.4,0.3c15.1-6.1,32-6.1,47.1,0c0.8,0.3,1.7,0.2,2.4-0.3c0.7-0.5,1-1.4,0.9-2.3
	C276.1,256.4,275.5,255.6,274.7,255.3z"/>
    <path class="st2" d="M321,305.4V195.9c0.1-19.5-7.8-38.3-21.7-51.9c-0.1-0.1-0.1-0.1-0.2-0.1v-2.7c0-28.2-22.9-51.1-51.1-51.1
	s-51.1,22.9-51.1,51.1v2.7c-14.1,13.7-22,32.5-21.9,52.1v109.5"/>
    <path class="st0" d="M183.2,305.2V199.3c0-15,5.1-29.6,14.6-41.2v55.8c0,10.1,8.2,18.2,18.3,18.2h65.7c10.1,0,18.2-8.2,18.2-18.2
	v-55.9c9.5,11.7,14.6,26.2,14.6,41.3v105.9"/>
    <path class="st0" d="M235.6,190.3c6,0,10.9,4.9,11,10.9c0,2,1.6,3.7,3.7,3.7c2,0,3.6-1.6,3.6-3.7c0-6,4.9-10.9,11-10.9
	c2,0,3.6-1.6,3.6-3.7s-1.6-3.6-3.6-3.6c-6,0-10.9-4.9-11-11c0-2-1.6-3.7-3.6-3.7c-2,0-3.7,1.6-3.7,3.7c0,6-4.9,10.9-11,11
	c-2,0-3.6,1.6-3.6,3.6S233.6,190.3,235.6,190.3z M250.2,183c1,1.4,2.3,2.6,3.7,3.7c-1.4,1-2.6,2.3-3.7,3.7c-1-1.4-2.3-2.6-3.7-3.7
	C247.9,185.6,249.2,184.3,250.2,183z"/>
    <path class="st0" d="M218,143.7c1.6,0,2.9-1.6,2.9-3.6c0-12.1,7.8-21.9,17.5-21.9c1.6,0,2.9-1.6,2.9-3.7c0-2-1.3-3.7-2.9-3.7
	c-12.9,0-23.3,13.1-23.3,29.2C215.1,142.1,216.4,143.7,218,143.7z"/>
    <path class="st2" d="M272.9,259.7c-16.3-6.5-34.5-6.5-50.8,0c-0.8,0.3-1.4,1.1-1.5,1.9c-0.1,0.9,0.2,1.7,0.9,2.3
	c0.7,0.5,1.6,0.7,2.4,0.3c15.1-6.1,32-6.1,47.1,0c0.8,0.3,1.7,0.2,2.4-0.3c0.7-0.5,1-1.4,0.9-2.3C274.3,260.8,273.8,260,272.9,259.7
	z"/>
</svg>
