<?xml version="1.0" encoding="utf-8"?>
<!-- Generator: Adobe Illustrator 22.1.0, SVG Export Plug-In . SVG Version: 6.00 Build 0)  -->
<svg version="1.1" id="Calque_1" xmlns="http://www.w3.org/2000/svg" xmlns:xlink="http://www.w3.org/1999/xlink" x="0px" y="0px"
	 viewBox="0 0 500 500" style="enable-background:new 0 0 500 500;" xml:space="preserve">
<style type="text/css">
	.st0{fill:#EAEAEA;}
	.st1{fill:#8C8C8C;}
	.st2{fill:#FFFFFF;}
	.st3{fill:#EAEAEA;stroke:#8C8C8C;stroke-width:7;stroke-miterlimit:10;}
	.st4{fill:#070707;}
	.st5{fill:none;stroke:#8C8C8C;stroke-width:7;stroke-miterlimit:10;}
	.st6{fill:none;stroke:#8C8C8C;stroke-width:10;stroke-miterlimit:10;}
	.st7{fill:#8C8C8C;stroke:#8C8C8C;stroke-width:3;stroke-miterlimit:10;}
	.st8{fill:none;stroke:#8C8C8C;stroke-width:8;stroke-miterlimit:10;}
	.st9{fill:none;stroke:#8E8E8E;stroke-width:6;stroke-miterlimit:10;}
	.st10{fill:#8E8E8E;}
	.st11{fill:#505050;}
	.st12{fill:none;stroke:#8E8E8E;stroke-width:2;stroke-miterlimit:10;}
	.st13{fill:#8C8C8C;stroke:#8C8C8C;stroke-width:2;stroke-miterlimit:10;}
	.st14{fill:#8C8C8C;stroke:#FFFFFF;stroke-width:2;stroke-miterlimit:10;}
	.st15{fill:none;stroke:#FFFFFF;stroke-width:2;stroke-miterlimit:10;}
	.st16{fill:none;stroke:#8C8C8C;stroke-miterlimit:10;}
	.st17{fill:none;stroke:#8C8C8C;stroke-width:13;stroke-miterlimit:10;}
	.st18{fill:#EAEAEA;stroke:#8C8C8C;stroke-width:8;stroke-miterlimit:10;}
	.st19{fill:none;stroke:#8C8C8C;stroke-width:4;stroke-miterlimit:10;}
	.st20{fill:#8C8C8C;stroke:#8C8C8C;stroke-width:0.75;stroke-miterlimit:10;}
	.st21{fill:none;stroke:#8C8C8C;stroke-width:9;stroke-miterlimit:10;}
	.st22{fill:#8C8C8C;stroke:#8C8C8C;stroke-width:0.5;stroke-miterlimit:10;}
	.st23{fill:#6B6B6B;}
	.st24{fill:none;}
	.st25{stroke:#8C8C8C;stroke-width:8;stroke-miterlimit:10;}
	.st26{fill:#8C8C8C;stroke:#8C8C8C;stroke-miterlimit:10;}
	.st27{fill:none;stroke:#8C8C8C;stroke-width:11;stroke-miterlimit:10;}
	.st28{fill:none;stroke:#8C8C8C;stroke-width:6;stroke-miterlimit:10;}
	.st29{stroke:#8C8C8C;stroke-width:6;stroke-miterlimit:10;}
	.st30{fill:#8C8C8C;stroke:#8C8C8C;stroke-width:4;stroke-miterlimit:10;}
	.st31{fill:#8C8C8C;stroke:#8C8C8C;stroke-width:1.05;stroke-miterlimit:10;}
	.st32{fill:#D6D6D6;}
	.st33{fill:none;stroke:#EAEAEA;stroke-width:5;stroke-miterlimit:10;}
	.st34{fill:#8C8C8C;stroke:#8C8C8C;stroke-width:10;stroke-miterlimit:10;}
	.st35{fill:none;stroke:#CECECE;stroke-width:2;stroke-miterlimit:10;}
	.st36{fill:none;stroke:#FFFFFF;stroke-width:4;stroke-miterlimit:10;}
	.st37{fill-rule:evenodd;clip-rule:evenodd;fill:#8C8C8C;}
	.st38{font-family:'HelveticaNeue-CondensedBold';}
	.st39{font-size:54px;}
	.st40{fill:#8C8C8C;stroke:#8C8C8C;stroke-width:8;stroke-miterlimit:10;}
	.st41{fill:#8C8C8C;stroke:#8C8C8C;stroke-width:7;stroke-miterlimit:10;}
	.st42{fill:#DBDBDB;stroke:#8C8C8C;stroke-width:7;stroke-miterlimit:10;}
	.st43{fill:none;stroke:#8C8C8C;stroke-width:5;stroke-miterlimit:10;}
	.st44{fill:none;stroke:#8C8C8C;stroke-width:3;stroke-miterlimit:10;}
	.st45{clip-path:url(#SVGID_2_);fill:#8C8C8C;}
	.st46{clip-path:url(#SVGID_2_);fill:none;stroke:#8C8C8C;stroke-width:8;stroke-miterlimit:10;}
	.st47{clip-path:url(#SVGID_2_);fill:#FFFFFF;}
	.st48{clip-path:url(#SVGID_2_);fill:#EAEAEA;}
	.st49{clip-path:url(#SVGID_2_);fill:none;stroke:#8C8C8C;stroke-miterlimit:10;}
	.st50{fill:none;stroke:#FFFFFF;stroke-width:0.75;stroke-miterlimit:10;}
	.st51{fill:none;stroke:#8C8C8C;stroke-width:14;stroke-miterlimit:10;}
	.st52{fill:none;stroke:#EAEAEA;stroke-width:2;stroke-miterlimit:10;}
	.st53{fill:none;stroke:#8C8C8C;stroke-width:2;stroke-miterlimit:10;}
</style>
<rect x="2" y="-1" class="st0" width="500" height="500"/>
<g>
	<g>
		<g>
			<path class="st1" d="M171.5,131.9h-11.9v8.8h14.7c1,0,2-0.5,2.7-1.3l14.2-16.8c0.7-0.8,1.1-1.9,1.1-3.1v-6.8h-7.2v3.2
				c0,0.8-0.3,1.7-0.8,2.3l-10.8,12.7C173,131.6,172.2,131.9,171.5,131.9z"/>
		</g>
	</g>
	<g>
		<g>
			<path class="st1" d="M174.3,142.4h-14.7c-1,0-1.7-0.8-1.7-1.7v-8.8c0-1,0.8-1.7,1.7-1.7h11.9c0.2,0,0.5-0.1,0.7-0.4l10.8-12.7
				c0.2-0.3,0.4-0.7,0.4-1.1v-3.2c0-1,0.8-1.7,1.7-1.7h7.2c1,0,1.7,0.8,1.7,1.7v6.8c0,1.6-0.5,3-1.5,4.2l-14.2,16.8
				C177.3,141.7,175.8,142.4,174.3,142.4z M161.3,138.9h13c0.5,0,1-0.3,1.4-0.7l14.2-16.8c0.4-0.5,0.7-1.2,0.7-1.9v-5.1h-3.7v1.5
				c0,1.3-0.4,2.5-1.2,3.4l-10.8,12.7c-0.9,1-2.1,1.6-3.3,1.6h-10.2V138.9z"/>
		</g>
	</g>
	<g>
		<g>
			<path class="st1" d="M331.3,102.4h-132c0,0.1,0,0.1,0,0.2v8.2c0,0.1,0,0.1,0,0.2h132c2.4,0,4.3,1.9,4.3,4.3v166.1
				c0,2.4-1.9,4.3-4.3,4.3h-11.5c-2.4,0-4.3-1.9-4.3-4.3v-99.4c0-7.2-5.8-13-13-13H298v8.6h4.5c2.4,0,4.3,1.9,4.3,4.3v99.4
				c0,7.2,5.8,13,13,13h11.5c7.2,0,13-5.8,13-13V115.3C344.3,108.2,338.5,102.4,331.3,102.4z"/>
		</g>
	</g>
	<g>
		<g>
			<path class="st1" d="M331.3,296.2h-11.5c-8.1,0-14.7-6.6-14.7-14.7v-99.4c0-1.4-1.2-2.6-2.6-2.6H298c-1,0-1.7-0.8-1.7-1.7v-8.6
				c0-1,0.8-1.7,1.7-1.7h4.5c8.1,0,14.7,6.6,14.7,14.7v99.4c0,1.4,1.2,2.6,2.6,2.6h11.5c1.4,0,2.6-1.2,2.6-2.6V115.3
				c0-1.4-1.2-2.6-2.6-2.6h-132c-0.5,0-0.9-0.2-1.3-0.5c-0.3-0.3-0.5-0.8-0.5-1.3c0-0.1,0-0.1,0-0.2v-8.1c0-0.1,0-0.1,0-0.2
				c0-0.5,0.1-0.9,0.5-1.3c0.3-0.3,0.8-0.5,1.3-0.5h132c8.1,0,14.7,6.6,14.7,14.7v166.1C346,289.6,339.4,296.2,331.3,296.2z
				 M299.7,176h2.7c3.3,0,6.1,2.7,6.1,6.1v99.4c0,6.2,5,11.2,11.2,11.2h11.5c6.2,0,11.2-5,11.2-11.2V115.3c0-6.2-5-11.2-11.2-11.2
				H201.1v5.2h130.2c3.3,0,6.1,2.7,6.1,6.1v166.1c0,3.3-2.7,6.1-6.1,6.1h-11.5c-3.3,0-6.1-2.7-6.1-6.1v-99.4c0-6.2-5-11.2-11.2-11.2
				h-2.7L299.7,176L299.7,176z"/>
		</g>
	</g>
	<g>
		<g>
			<path class="st1" d="M294.5,182.5h-7.4v-18.2h7.4c1.9,0,3.5,1.5,3.5,3.5v11.2C298,181,296.5,182.5,294.5,182.5z"/>
		</g>
	</g>
	<g>
		<g>
			<path class="st1" d="M294.5,184.3h-7.4c-1,0-1.7-0.8-1.7-1.7v-18.2c0-1,0.8-1.7,1.7-1.7h7.4c2.9,0,5.2,2.3,5.2,5.2v11.2
				C299.7,181.9,297.4,184.3,294.5,184.3z M288.9,180.8h5.6c1,0,1.7-0.8,1.7-1.7v-11.2c0-1-0.8-1.7-1.7-1.7h-5.6V180.8z"/>
		</g>
	</g>
	<g>
		<g>
			<path class="st1" d="M192.4,267.2l0-0.1h0c0.3-6.2,0.8-12.4,1.6-18.6l0,0c0-0.2,0.1-0.4,0.1-0.6c2.1-17.8,6.1-35.2,11.7-52
				c3.3-10.3,6.5-18.1,9.4-24c0-0.1,0.1-0.2,0.1-0.3c1.7-3.8,3.7-7.3,6-10.6c0.3-0.4,0.5-0.8,0.8-1.1h0c0,0,0,0,0,0
				c1.4-2,2.2-2.8,2.2-2.8c3-3.8,6.5-7.2,10.2-10.1c1.4-0.9,3.8-2.1,7.4-2.1h17.5h13.3c8.1,0,14.7,6.6,14.7,14.7v105.7v8.5v0.7
				c0,8.2-6.6,14.8-14.8,14.8h-65.3c-8.3,0-14.9-6.8-14.8-15L192.4,267.2z"/>
		</g>
	</g>
	<g>
		<g>
			<g>
				<path class="st0" d="M259.2,144.7h-17.5c-3.6,0-6,1.1-7.4,2.1c-3.7,2.9-7.1,6.3-10.2,10.1c0,0-0.8,0.9-2.2,2.8c0,0,0,0,0,0h0
					c-0.2,0.3-0.5,0.7-0.8,1.1c-2.3,3.3-4.3,6.8-6,10.6c0,0.1-0.1,0.2-0.1,0.3c-2.8,5.8-6,13.6-9.2,23.6h30.3
					c12.4,0,23.6-7.3,28.5-18.6l7.8-32.1L259.2,144.7L259.2,144.7z"/>
			</g>
		</g>
		<g>
			<g>
				<path class="st0" d="M272.5,144.7l3.5,0.4C274.9,144.8,273.7,144.7,272.5,144.7z"/>
			</g>
		</g>
	</g>
	<g>
		<g>
			<path class="st1" d="M192.4,275.9c0.8,7.4,7.1,13.2,14.7,13.2h65.3c8.2,0,14.8-6.6,14.8-14.8v-0.7v-5.2h-94.8V275.9z"/>
		</g>
	</g>
	<g>
		<g>
			<path class="st1" d="M159.6,94.1v50.7c0,1.9-1.5,3.5-3.5,3.5h-13.8c-1.9,0-3.5-1.5-3.5-3.5V94.1H159.6z"/>
		</g>
	</g>
	<g>
		<g>
			<path class="st1" d="M199.4,102.6v8.2c0,2-1.6,3.7-3.7,3.7h-36.1V98.9h36.1C197.7,98.9,199.4,100.5,199.4,102.6z"/>
		</g>
	</g>
	<g>
		<g>
			<path class="st1" d="M159.6,126.1v-6.5l12.4-1.4c1.3-0.2,2.4,0.9,2.4,2.2l0,0c0,1-0.7,1.8-1.6,2.1L159.6,126.1z"/>
		</g>
	</g>
	<g>
		<g>
			<rect x="144.9" y="148.4" class="st1" width="8.6" height="128"/>
		</g>
	</g>
	<g>
		<g>
			<path class="st1" d="M272.4,290.9h-65.3c-4.5,0-8.7-1.8-11.8-4.9c-3.1-3.2-4.8-7.4-4.8-11.9l0.1-6.9c0,0,0,0,0,0l0-0.1
				c0-0.1,0-0.1,0-0.2c0.3-6.1,0.8-12.3,1.5-18.3c0-0.1,0-0.2,0-0.3l0.1-0.6c2.1-17.8,6.1-35.5,11.7-52.3c2.9-9.1,6.1-17.2,9.5-24.2
				l0.1-0.2c1.7-3.8,3.8-7.5,6.1-10.9c0.3-0.4,0.5-0.8,0.8-1.1l0,0c0,0,0,0,0,0c1.1-1.6,2-2.6,2.3-3c3.1-3.8,6.6-7.3,10.4-10.4
				c0,0,0.1-0.1,0.1-0.1c1.6-1.1,4.4-2.3,8.4-2.3h30.8c9.1,0,16.4,7.4,16.4,16.4v114.9C288.9,283.4,281.5,290.9,272.4,290.9z
				 M194.1,267.2l-0.1,6.9c-0.1,3.5,1.3,6.9,3.8,9.4s5.8,3.9,9.3,3.9h65.3c7.2,0,13.1-5.9,13.1-13.1V159.4c0-7.2-5.8-13-13-13h-30.8
				c-3.1,0-5.2,0.9-6.4,1.7c-3.6,2.9-7,6.2-9.8,9.8c0,0-0.1,0.1-0.1,0.1l0,0c0,0-0.7,0.8-2,2.6c0,0,0,0.1-0.1,0.1
				c-0.2,0.3-0.4,0.6-0.7,1c-2.3,3.3-4.2,6.8-5.8,10.4l-0.1,0.3c-3.3,6.9-6.5,14.9-9.3,23.8c-5.6,16.7-9.5,34.1-11.6,51.7l-0.1,0.4
				c0,0.1,0,0.1,0,0.2C194.9,254.8,194.4,261,194.1,267.2C194.1,267.2,194.1,267.2,194.1,267.2z"/>
		</g>
	</g>
	<g>
		<g>
			<circle class="st0" cx="271.6" cy="273.6" r="22.5"/>
		</g>
	</g>
	<g>
		<g>
			<path class="st1" d="M271.6,297.8c-13.4,0-24.2-10.9-24.2-24.2s10.9-24.2,24.2-24.2s24.2,10.9,24.2,24.2S285,297.8,271.6,297.8z
				 M271.6,252.8c-11.4,0-20.8,9.3-20.8,20.8s9.3,20.8,20.8,20.8s20.8-9.3,20.8-20.8S283.1,252.8,271.6,252.8z"/>
		</g>
	</g>
	<g>
		<g>
			<path class="st0" d="M156.1,150.1h-13.8c-2.9,0-5.2-2.3-5.2-5.2V94.1c0-1,0.8-1.7,1.7-1.7h20.8c1,0,1.7,0.8,1.7,1.7v50.7
				C161.3,147.7,159,150.1,156.1,150.1z M140.6,95.9v49c0,1,0.8,1.7,1.7,1.7h13.8c1,0,1.7-0.8,1.7-1.7v-49H140.6z"/>
		</g>
	</g>
	<g>
		<g>
			<path class="st0" d="M195.7,116.2h-36.1c-1,0-1.7-0.8-1.7-1.7V98.9c0-1,0.8-1.7,1.7-1.7h36.1c3,0,5.4,2.4,5.4,5.4v8.2
				C201.1,113.8,198.7,116.2,195.7,116.2z M161.3,112.7h34.4c1.1,0,1.9-0.9,1.9-1.9v-8.2c0-1.1-0.9-1.9-1.9-1.9h-34.4V112.7z"/>
		</g>
	</g>
	<g>
		<g>
			<path class="st1" d="M159.6,127.9c-0.4,0-0.7-0.1-1-0.4c-0.4-0.3-0.7-0.8-0.7-1.4v-6.5c0-0.9,0.7-1.6,1.5-1.7l12.4-1.4
				c1.1-0.1,2.2,0.2,3.1,1c0.8,0.7,1.3,1.8,1.3,2.9c0,1.8-1.2,3.3-2.9,3.8l-13.2,3.7C159.9,127.8,159.7,127.9,159.6,127.9z
				 M161.3,121.2v2.7l11-3.1c0.2-0.1,0.3-0.2,0.3-0.4c0-0.2-0.1-0.3-0.2-0.3c-0.1-0.1-0.2-0.1-0.4-0.1L161.3,121.2z"/>
		</g>
	</g>
	<g>
		<g>
			<path class="st1" d="M162.6,89.6v3.5c0,1.4-1.2,2.6-2.6,2.6h-20.8c-1.4,0-2.6-1.2-2.6-2.6v-3.5c0-1.4,1.2-2.6,2.6-2.6H160
				C161.4,87,162.6,88.2,162.6,89.6z"/>
		</g>
	</g>
	<g>
		<g>
			<path class="st1" d="M160,97.4h-20.8c-2.4,0-4.3-1.9-4.3-4.3v-3.5c0-2.4,1.9-4.3,4.3-4.3H160c2.4,0,4.3,1.9,4.3,4.3v3.5
				C164.3,95.5,162.4,97.4,160,97.4z M139.2,88.8c-0.5,0-0.9,0.4-0.9,0.9v3.5c0,0.5,0.4,0.9,0.9,0.9H160c0.5,0,0.9-0.4,0.9-0.9v-3.5
				c0-0.5-0.4-0.9-0.9-0.9H139.2z"/>
		</g>
	</g>
	<g>
		<g>
			<path class="st1" d="M153.5,278.1h-8.6c-1,0-1.7-0.8-1.7-1.7v-128c0-1,0.8-1.7,1.7-1.7h8.6c1,0,1.7,0.8,1.7,1.7v128
				C155.3,277.3,154.5,278.1,153.5,278.1z M146.6,274.6h5.2V150.1h-5.2V274.6z"/>
		</g>
	</g>
	<g>
		<g>
			<path class="st1" d="M153.5,288.4h-8.6c-1,0-1.7-1.1-1.7-2.5v-11c0-2.1,1.2-3.8,2.6-3.8h6.9c1.4,0,2.6,1.7,2.6,3.8v11
				C155.3,287.3,154.5,288.4,153.5,288.4z"/>
		</g>
	</g>
	<g>
		<g>
			<path class="st1" d="M153.5,290.1h-8.6c-1.9,0-3.5-1.9-3.5-4.3v-11c0-3.1,1.9-5.5,4.3-5.5h6.9c2.4,0,4.3,2.4,4.3,5.5v11
				C157,288.2,155.5,290.1,153.5,290.1z M145.1,286.7h8.3c0.1-0.1,0.2-0.4,0.2-0.8v-11c0-1.3-0.6-2.1-0.9-2.1h-6.9
				c-0.2,0-0.9,0.7-0.9,2.1v11C144.9,286.2,145,286.5,145.1,286.7z"/>
		</g>
	</g>
	<circle class="st0" cx="217" cy="259" r="6"/>
</g>
<g>
	<g>
		<path class="st0" d="M217,217.2c7.3,1.9,14.9-0.1,22.3,0.1c3.8,0.1,7.7,0.4,11.5,0.3c3.3,0,7.1-0.1,10-1.9
			c1.1-0.7,0.7-2.5-0.7-2.5c-3.4,0-6.9,0.6-10.3,0.6c-3.5,0-7-0.2-10.5-0.3c-7-0.2-14.4,1.8-21.2,0
			C215.6,212.9,214.6,216.6,217,217.2z"/>
	</g>
</g>
<g>
	<g>
		<path class="st0" d="M218,225.2c7.3,1.9,14.9-0.1,22.3,0.1c3.8,0.1,7.7,0.4,11.5,0.3c3.3,0,7.1-0.1,10-1.9
			c1.1-0.7,0.7-2.5-0.7-2.5c-3.4,0-6.9,0.6-10.3,0.6c-3.5,0-7-0.2-10.5-0.3c-7-0.2-14.4,1.8-21.2,0
			C216.6,220.9,215.6,224.6,218,225.2z"/>
	</g>
</g>
<g>
	<g>
		<path class="st0" d="M218,235.2c7.3,1.9,14.9-0.1,22.3,0.1c3.8,0.1,7.7,0.4,11.5,0.3c3.3,0,7.1-0.1,10-1.9
			c1.1-0.7,0.7-2.5-0.7-2.5c-3.4,0-6.9,0.6-10.3,0.6c-3.5,0-7-0.2-10.5-0.3c-7-0.2-14.4,1.8-21.2,0
			C216.6,230.9,215.6,234.6,218,235.2z"/>
	</g>
</g>
<g>
	<rect x="1" y="360" class="st24" width="500" height="144"/>
	<text transform="matrix(1 0 0 1 60.6533 398.5557)"><tspan x="0" y="0" class="st23 st38 st39">Nettoyeur à haute </tspan><tspan x="98.4" y="64.8" class="st23 st38 st39">pression</tspan></text>
</g>
<g>
	<g>
		<ellipse class="st1" cx="271.4" cy="273.6" rx="13.6" ry="13.8"/>
	</g>
</g>
</svg>
