<?xml version="1.0" encoding="utf-8"?>
<!-- Generator: Adobe Illustrator 22.1.0, SVG Export Plug-In . SVG Version: 6.00 Build 0)  -->
<svg version="1.1" id="Calque_1" xmlns="http://www.w3.org/2000/svg" xmlns:xlink="http://www.w3.org/1999/xlink" x="0px" y="0px"
	 viewBox="0 0 500 500" style="enable-background:new 0 0 500 500;" xml:space="preserve">
<style type="text/css">
	.st0{fill:#4FBDD7;}
	.st1{fill:#EAEAEA;}
	.st2{fill:#FFFFFF;}
	.st3{fill:#4FBDD7;stroke:#FFFFFF;stroke-width:5;stroke-miterlimit:10;}
	.st4{fill:#8C8C8C;}
	.st5{fill:#070707;}
	.st6{fill:none;stroke:#FFFFFF;stroke-width:7;stroke-miterlimit:10;}
	.st7{fill:none;stroke:#FFFFFF;stroke-width:10;stroke-miterlimit:10;}
	.st8{fill:#FFFFFF;stroke:#FFFFFF;stroke-width:3;stroke-miterlimit:10;}
	.st9{fill:none;stroke:#FDFFFF;stroke-width:6;stroke-miterlimit:10;}
	.st10{fill:#FAFEFF;}
	.st11{fill:none;stroke:#FFFFFF;stroke-width:2;stroke-miterlimit:10;}
	.st12{fill:#FFFFFF;stroke:#FFFFFF;stroke-width:2;stroke-miterlimit:10;}
	.st13{fill:#4FBDD7;stroke:#FFFFFF;stroke-width:4;stroke-miterlimit:10;}
	.st14{fill:#FFFFFF;stroke:#FFFFFF;stroke-width:4;stroke-miterlimit:10;}
	.st15{fill:none;stroke:#FFFFFF;stroke-miterlimit:10;}
	.st16{fill:#FFFFFF;stroke:#FFFFFF;stroke-width:13;stroke-miterlimit:10;}
	.st17{fill:#4FBDD7;stroke:#FFFFFF;stroke-width:8;stroke-miterlimit:10;}
	.st18{fill:#FFFFFF;stroke:#FFFFFF;stroke-width:0.75;stroke-miterlimit:10;}
	.st19{fill:#FFFFFF;stroke:#FFFFFF;stroke-width:0.5;stroke-miterlimit:10;}
	.st20{fill:none;}
	.st21{font-family:'HelveticaNeue-CondensedBold';}
	.st22{font-size:54px;}
	.st23{fill:#FFFFFF;stroke:#FFFFFF;stroke-width:8;stroke-miterlimit:10;}
	.st24{fill:#FFFFFF;stroke:#FFFFFF;stroke-miterlimit:10;}
	.st25{fill:#FFFFFF;stroke:#FFFFFF;stroke-width:11;stroke-miterlimit:10;}
	.st26{fill:#FFFFFF;stroke:#FFFFFF;stroke-width:6;stroke-miterlimit:10;}
	.st27{fill:#8C8C8C;stroke:#8C8C8C;stroke-width:4;stroke-miterlimit:10;}
	.st28{fill:#FFFFFF;stroke:#FFFFFF;stroke-width:1.05;stroke-miterlimit:10;}
	.st29{fill:none;stroke:#4FBDD7;stroke-width:5;stroke-miterlimit:10;}
	.st30{fill:none;stroke:#FFFFFF;stroke-width:4;stroke-miterlimit:10;}
	.st31{fill:#8C8C8C;stroke:#FFFFFF;stroke-width:4;stroke-miterlimit:10;}
	.st32{fill:#FFFFFF;stroke:#FFFFFF;stroke-width:10;stroke-miterlimit:10;}
	.st33{fill:none;stroke:#4FBDD7;stroke-width:2;stroke-miterlimit:10;}
	.st34{fill-rule:evenodd;clip-rule:evenodd;fill:#FFFFFF;}
	.st35{fill:#FFFFFF;stroke:#FFFFFF;stroke-width:7;stroke-miterlimit:10;}
	.st36{fill:#FFFFFF;stroke:#4FBDD7;stroke-width:7;stroke-miterlimit:10;}
	.st37{fill:#FCFCFC;}
	.st38{fill:#FFFFFF;stroke:#FFFFFF;stroke-width:5;stroke-miterlimit:10;}
	.st39{fill:none;stroke:#FFFFFF;stroke-width:3;stroke-miterlimit:10;}
	.st40{fill:none;stroke:#FFFFFF;stroke-width:8;stroke-miterlimit:10;}
	.st41{fill:none;stroke:#FFFFFF;stroke-width:6;stroke-miterlimit:10;}
	.st42{fill:#FFFFFF;stroke:#4FBDD7;stroke-width:3;stroke-miterlimit:10;}
	.st43{fill:none;stroke:#FFFFFF;stroke-width:0.75;stroke-miterlimit:10;}
	.st44{fill:#4FBDD7;stroke:#FFFFFF;stroke-width:9;stroke-miterlimit:10;}
	.st45{fill:none;stroke:#FFFFFF;stroke-width:9;stroke-miterlimit:10;}
	.st46{fill:none;stroke:#4FBDD7;stroke-width:3;stroke-miterlimit:10;}
</style>
<rect x="-1" class="st0" width="505" height="500"/>
<g>
	<path class="st2" d="M146.2,165.9c-16.5,0-30.1,13.5-30.1,30.1s13.5,30.1,30.1,30.1c16.5,0,30.1-13.5,30.1-30.1
		S162.8,165.9,146.2,165.9z M146.2,176c9.3,0,17.2,6.4,19.4,15h-38.8C129.1,182.4,136.9,176,146.2,176z M146.2,216.1
		c-9.3,0-17.2-6.4-19.4-15h38.8C163.4,209.7,155.5,216.1,146.2,216.1z"/>
	<path class="st2" d="M336.1,226.7c16.5,0,30.1-13.5,30.1-30.1s-13.5-30.1-30.1-30.1c-16.5,0-30.1,13.5-30.1,30.1
		S319.5,226.7,336.1,226.7z M336.1,216.6c-9.3,0-17.2-6.4-19.4-15h38.8C353.2,210.2,345.4,216.6,336.1,216.6z M336.1,176.5
		c9.3,0,17.2,6.4,19.4,15h-38.8C318.9,182.9,326.8,176.5,336.1,176.5z"/>
	<path class="st2" d="M405,141.9h-18H278.6h-72.2H98.1H80c-10.2,0-18,7.8-18,18v84.2c0,10.2,7.8,18,18,18h18h288.8h18
		c10.2,0,18-7.8,18-18v-84.2C423,149.7,415.2,141.9,405,141.9z M218.4,184h48.1c10.2,0,18-7.8,18-18v-12h96.3v96.3H104.1v-96.3h96.3
		v12C200.4,176.2,208.2,184,218.4,184z M272.6,153.9v12c0,3.6-2.4,6-6,6h-48.1c-3.6,0-6-2.4-6-6v-12H272.6z M80,250.2
		c-3.6,0-6-2.4-6-6v-84.2c0-3,3-6,6-6h12v96.3H80z M411,244.2c0,3.6-2.4,6-6,6h-12v-96.3h12c3.6,0,6,2.4,6,6V244.2z"/>
	<ellipse class="st2" cx="127.2" cy="195.7" rx="1.9" ry="4.7"/>
	<ellipse class="st2" cx="355.7" cy="196.6" rx="1.4" ry="4.7"/>
	<ellipse class="st2" cx="244.7" cy="162.9" rx="4.7" ry="9.8"/>
</g>
<g>
	<rect x="-4" y="369" class="st20" width="500" height="144"/>
	<text transform="matrix(1 0 0 1 173.0474 407.5557)" class="st2 st21 st22">Niveau</text>
</g>
</svg>
