<?xml version="1.0" encoding="utf-8"?>
<!-- Generator: Adobe Illustrator 22.1.0, SVG Export Plug-In . SVG Version: 6.00 Build 0)  -->
<svg version="1.1" id="Calque_1" xmlns="http://www.w3.org/2000/svg" x="0px" y="0px"
     viewBox="0 0 500 500" style="enable-background:new 0 0 500 500;" xml:space="preserve">
<style type="text/css">
	.st0{fill:#EAEAEA;}
	.st1{fill:#8C8C8C;}
	.st2{fill:#FFFFFF;}
	.st3{fill:#EAEAEA;stroke:#8C8C8C;stroke-width:7;stroke-miterlimit:10;}
	.st4{fill:#070707;}
	.st5{fill:none;stroke:#8C8C8C;stroke-width:7;stroke-miterlimit:10;}
	.st6{fill:none;stroke:#8C8C8C;stroke-width:10;stroke-miterlimit:10;}
	.st7{fill:#8C8C8C;stroke:#8C8C8C;stroke-width:3;stroke-miterlimit:10;}
	.st8{fill:none;stroke:#8C8C8C;stroke-width:8;stroke-miterlimit:10;}
	.st9{fill:none;stroke:#8E8E8E;stroke-width:6;stroke-miterlimit:10;}
	.st10{fill:#8E8E8E;}
	.st11{fill:#505050;}
	.st12{fill:none;stroke:#8E8E8E;stroke-width:2;stroke-miterlimit:10;}
	.st13{fill:#8C8C8C;stroke:#8C8C8C;stroke-width:2;stroke-miterlimit:10;}
	.st14{fill:#8C8C8C;stroke:#FFFFFF;stroke-width:2;stroke-miterlimit:10;}
	.st15{fill:none;stroke:#FFFFFF;stroke-width:2;stroke-miterlimit:10;}
	.st16{fill:none;stroke:#8C8C8C;stroke-miterlimit:10;}
	.st17{fill:none;stroke:#8C8C8C;stroke-width:13;stroke-miterlimit:10;}
	.st18{fill:#EAEAEA;stroke:#8C8C8C;stroke-width:8;stroke-miterlimit:10;}
	.st19{fill:none;stroke:#8C8C8C;stroke-width:4;stroke-miterlimit:10;}
	.st20{fill:#8C8C8C;stroke:#8C8C8C;stroke-width:0.75;stroke-miterlimit:10;}
	.st21{fill:none;stroke:#8C8C8C;stroke-width:9;stroke-miterlimit:10;}
	.st22{fill:#8C8C8C;stroke:#8C8C8C;stroke-width:0.5;stroke-miterlimit:10;}
	.st23{fill:none;}
	.st24{fill:#6B6B6B;}
	.st25{font-family:'HelveticaNeue-CondensedBold';}
	.st26{font-size:54px;}
	.st27{stroke:#8C8C8C;stroke-width:8;stroke-miterlimit:10;}
	.st28{fill:#8C8C8C;stroke:#8C8C8C;stroke-miterlimit:10;}
	.st29{fill:none;stroke:#8C8C8C;stroke-width:11;stroke-miterlimit:10;}
	.st30{fill:none;stroke:#8C8C8C;stroke-width:6;stroke-miterlimit:10;}
	.st31{stroke:#8C8C8C;stroke-width:6;stroke-miterlimit:10;}
	.st32{fill:#8C8C8C;stroke:#8C8C8C;stroke-width:4;stroke-miterlimit:10;}
	.st33{fill:#8C8C8C;stroke:#8C8C8C;stroke-width:1.05;stroke-miterlimit:10;}
	.st34{fill:#D6D6D6;}
	.st35{fill:none;stroke:#EAEAEA;stroke-width:5;stroke-miterlimit:10;}
	.st36{fill:#8C8C8C;stroke:#8C8C8C;stroke-width:10;stroke-miterlimit:10;}
	.st37{fill:none;stroke:#CECECE;stroke-width:2;stroke-miterlimit:10;}
	.st38{fill:none;stroke:#FFFFFF;stroke-width:4;stroke-miterlimit:10;}
	.st39{fill-rule:evenodd;clip-rule:evenodd;fill:#8C8C8C;}
	.st40{fill:#8C8C8C;stroke:#8C8C8C;stroke-width:8;stroke-miterlimit:10;}
	.st41{fill:#8C8C8C;stroke:#8C8C8C;stroke-width:7;stroke-miterlimit:10;}
	.st42{fill:#DBDBDB;stroke:#8C8C8C;stroke-width:7;stroke-miterlimit:10;}
	.st43{fill:none;stroke:#8C8C8C;stroke-width:5;stroke-miterlimit:10;}
	.st44{fill:none;stroke:#8C8C8C;stroke-width:3;stroke-miterlimit:10;}
	.st45{clip-path:url(#SVGID_2_);fill:#8C8C8C;}
	.st46{clip-path:url(#SVGID_2_);fill:none;stroke:#8C8C8C;stroke-width:8;stroke-miterlimit:10;}
	.st47{clip-path:url(#SVGID_2_);fill:#FFFFFF;}
	.st48{clip-path:url(#SVGID_2_);fill:#EAEAEA;}
	.st49{clip-path:url(#SVGID_2_);fill:none;stroke:#8C8C8C;stroke-miterlimit:10;}
	.st50{fill:none;stroke:#FFFFFF;stroke-width:0.75;stroke-miterlimit:10;}
	.st51{fill:none;stroke:#8C8C8C;stroke-width:14;stroke-miterlimit:10;}
	.st52{fill:none;stroke:#EAEAEA;stroke-width:2;stroke-miterlimit:10;}
	.st53{fill:none;stroke:#8C8C8C;stroke-width:2;stroke-miterlimit:10;}
</style>
<rect y="1" class="st0" width="500" height="500"/>
<path class="st1" d="M138.5,333.7c21.6,8.3,45,0.2,54.3-18.8c0,0,0,0,0,0l17.9-36.6c1.7-0.6,3.8-5,3.3-6.7l-3.2-1.6
	c0,0-0.1-0.1-0.1-0.1c-0.1,0-0.1,0-0.2,0l-23.2-11.4l63.3-129.3c0,0,0,0,0,0c0,0,0,0,0,0l6-12.3c2.9,0,5.9-0.4,8.7-1.4
	c6.5-2.2,11.8-6.9,14.9-13.1c0,0,0,0,0,0l9.8-20c0.9-1.8,0.1-4.1-1.7-5l-40-19.6c-0.9-0.5-1.9-0.5-2.8-0.2c-0.9,0.3-1.7,1-2.1,1.9
	l-9.8,20c0,0,0,0,0,0c-3,6.2-3.5,13.3-1.2,19.8c1,2.9,2.4,5.5,4.3,7.8l-69.4,141.6l-23.2-11.4c-0.1,0-0.1-0.1-0.1-0.1
	c-0.1,0-0.1,0-0.2,0l-3.2-1.5c-2.2-0.3-3.7,6.4-3.3,6.7l-17.9,36.6c0,0,0,0,0,0c-4.7,9.6-5,20.2-1.7,30c3.3,9.7,10.2,18.5,20.1,24.4
	C138.1,333.5,138.3,333.6,138.5,333.7L138.5,333.7z M141.4,326.9c-16.3-10.1-22.9-29.2-15.3-44.7c0,0,0,0,0,0l17.9-36.6l26.7,13.1
	l-14.7,30c-0.5,0.9-0.5,1.9-0.2,2.8c0.1,0.2,0.3,0.9,1,1.5c1.6,1.4,4.7,0.9,5.7-0.6c0.1-0.2,0.2-0.4,0.2-0.5l14.7-30l26.7,13.1
	l-17.9,36.6c0,0,0,0,0,0c-1.4,2.5-6.8,11.6-18.5,16C154.9,332.4,143.8,327.9,141.4,326.9z M239.5,97c-1.6-4.7-1.3-9.7,0.9-14.2
	c0,0,0,0,0,0l3.3-6.7L277,92.4l-3.3,6.6c0,0,0,0,0,0c-2.2,4.4-6,7.8-10.7,9.4c-4.7,1.6-9.7,1.3-14.2-0.9
	C244.4,105.4,241.1,101.7,239.5,97z M280.2,85.8l-33.3-16.3l1.6-3.3l33.3,16.3L280.2,85.8z M249.1,115.6l-3.4,6.9
	c1.1-2.1,2.1-4.3,3.2-6.4c-2.1-1.3-4.3-2.5-6.4-3.8c-1.2,11.1-1.3,16.7,0,17C243.5,129.6,245.7,125.1,249.1,115.6z M180.7,255.2
	L174,252l61.7-126l6.7,3.3L180.7,255.2z M99.3,270.9"/>
<path class="st1" d="M239.8,340c2.5,0,4.5-2,4.5-4.5l0-22.8l11.9,0l0,23.3c0,2.5,2,4.5,4.5,4.5c2.5,0,4.5-2,4.5-4.5l0-23.3l12.5,0
	l0,23.3c0,2.5,2,4.5,4.5,4.5c2.5,0,4.5-2,4.5-4.5l0-23.3l12.5,0l0,23.3c0,2.5,2,4.5,4.5,4.5c2.5,0,4.5-2,4.5-4.5l0-23.3l12.5,0
	l0,23.3c0,2.5,2,4.5,4.5,4.5c2.5,0,4.5-2,4.5-4.5l0-23.3l12.5,0l0,23.3c0,2.5,2,4.5,4.5,4.5c2.5,0,4.5-2,4.5-4.5l0-23.3l11.9,0
	l0,22.8c0,2.5,2,4.5,4.5,4.5c2.5,0,4.5-2,4.5-4.5l-0.1-46.6c0-2.5-2-4.5-4.5-4.5c0,0,0,0,0,0l-45.9,0.1l-0.4-202.3
	c0-10-8.1-18.1-18.2-18.1c-10,0-18.1,8.1-18.1,18.2l0.4,202.3l-45.9,0.1c-2.5,0-4.5,2-4.5,4.5c0,0,0,0,0,0l0.1,46.6
	C235.3,338,237.3,340,239.8,340z M294.2,82c0-5,4-9.1,9-9.1c5,0,9.1,4,9.1,9l0.3,148.5l-18.1,0L294.2,82z M294.5,239.5l18.1,0
	l0.1,44.7l-18.1,0L294.5,239.5z M244.2,293.4l118.9-0.2l0,10.2l-118.9,0.2L244.2,293.4z"/>
<g>
	<rect x="1" y="366" class="st23" width="500" height="144"/>
	<text transform="matrix(1 0 0 1 157.0684 404.5557)"><tspan x="0" y="0" class="st24 st25 st26">Outils de </tspan><tspan x="-13" y="64.8" class="st24 st25 st26">Jardinage</tspan></text>
</g>
</svg>
