<?xml version="1.0" encoding="utf-8"?>
<!-- Generator: Adobe Illustrator 22.1.0, SVG Export Plug-In . SVG Version: 6.00 Build 0)  -->
<svg style="enable-background:new 0 0 500 500;" id="Calque_1" version="1.1" viewBox="0 0 500 500" x="0px"
     xmlns="http://www.w3.org/2000/svg" y="0px" xml:space="preserve">
<style type="text/css">
	.st0{fill:#EAEAEA;}
	.st1{fill:#8C8C8C;}
	.st2{fill:#FFFFFF;}
	.st3{fill:#EAEAEA;stroke:#8C8C8C;stroke-width:7;stroke-miterlimit:10;}
	.st4{fill:#070707;}
	.st5{fill:none;}
	.st6{fill:#6B6B6B;}
	.st7{font-family:'HelveticaNeue-CondensedBold';}
	.st8{font-size:54px;}
	.st9{fill:none;stroke:#8C8C8C;stroke-width:7;stroke-miterlimit:10;}
	.st10{fill:none;stroke:#8C8C8C;stroke-width:10;stroke-miterlimit:10;}
	.st11{fill:#8C8C8C;stroke:#8C8C8C;stroke-width:3;stroke-miterlimit:10;}
	.st12{fill:none;stroke:#8C8C8C;stroke-width:8;stroke-miterlimit:10;}
	.st13{fill:none;stroke:#8E8E8E;stroke-width:6;stroke-miterlimit:10;}
	.st14{fill:#8E8E8E;}
	.st15{fill:#505050;}
	.st16{fill:none;stroke:#8E8E8E;stroke-width:2;stroke-miterlimit:10;}
	.st17{fill:#8C8C8C;stroke:#8C8C8C;stroke-width:2;stroke-miterlimit:10;}
	.st18{fill:#8C8C8C;stroke:#FFFFFF;stroke-width:2;stroke-miterlimit:10;}
	.st19{fill:none;stroke:#FFFFFF;stroke-width:2;stroke-miterlimit:10;}
	.st20{fill:none;stroke:#8C8C8C;stroke-miterlimit:10;}
	.st21{fill:none;stroke:#8C8C8C;stroke-width:13;stroke-miterlimit:10;}
	.st22{fill:#EAEAEA;stroke:#8C8C8C;stroke-width:8;stroke-miterlimit:10;}
	.st23{fill:none;stroke:#8C8C8C;stroke-width:4;stroke-miterlimit:10;}
	.st24{fill:#8C8C8C;stroke:#8C8C8C;stroke-width:0.75;stroke-miterlimit:10;}
	.st25{fill:none;stroke:#8C8C8C;stroke-width:9;stroke-miterlimit:10;}
	.st26{fill:#8C8C8C;stroke:#8C8C8C;stroke-width:0.5;stroke-miterlimit:10;}
	.st27{stroke:#8C8C8C;stroke-width:8;stroke-miterlimit:10;}
	.st28{fill:#8C8C8C;stroke:#8C8C8C;stroke-miterlimit:10;}
	.st29{fill:none;stroke:#8C8C8C;stroke-width:11;stroke-miterlimit:10;}
	.st30{fill:none;stroke:#8C8C8C;stroke-width:6;stroke-miterlimit:10;}
	.st31{stroke:#8C8C8C;stroke-width:6;stroke-miterlimit:10;}
	.st32{fill:#8C8C8C;stroke:#8C8C8C;stroke-width:4;stroke-miterlimit:10;}
	.st33{fill:#8C8C8C;stroke:#8C8C8C;stroke-width:1.05;stroke-miterlimit:10;}
	.st34{fill:#D6D6D6;}
	.st35{fill:none;stroke:#EAEAEA;stroke-width:5;stroke-miterlimit:10;}
	.st36{fill:#8C8C8C;stroke:#8C8C8C;stroke-width:10;stroke-miterlimit:10;}
	.st37{fill:none;stroke:#CECECE;stroke-width:2;stroke-miterlimit:10;}
	.st38{fill:none;stroke:#FFFFFF;stroke-width:4;stroke-miterlimit:10;}
	.st39{fill-rule:evenodd;clip-rule:evenodd;fill:#8C8C8C;}
	.st40{fill:#8C8C8C;stroke:#8C8C8C;stroke-width:8;stroke-miterlimit:10;}
	.st41{fill:#8C8C8C;stroke:#8C8C8C;stroke-width:7;stroke-miterlimit:10;}
	.st42{fill:#DBDBDB;stroke:#8C8C8C;stroke-width:7;stroke-miterlimit:10;}
	.st43{fill:none;stroke:#8C8C8C;stroke-width:5;stroke-miterlimit:10;}
	.st44{fill:none;stroke:#8C8C8C;stroke-width:3;stroke-miterlimit:10;}
	.st45{clip-path:url(#SVGID_2_);fill:#8C8C8C;}
	.st46{clip-path:url(#SVGID_2_);fill:none;stroke:#8C8C8C;stroke-width:8;stroke-miterlimit:10;}
	.st47{clip-path:url(#SVGID_2_);fill:#FFFFFF;}
	.st48{clip-path:url(#SVGID_2_);fill:#EAEAEA;}
	.st49{clip-path:url(#SVGID_2_);fill:none;stroke:#8C8C8C;stroke-miterlimit:10;}
	.st50{fill:none;stroke:#FFFFFF;stroke-width:0.75;stroke-miterlimit:10;}
	.st51{fill:none;stroke:#8C8C8C;stroke-width:14;stroke-miterlimit:10;}
	.st52{fill:none;stroke:#EAEAEA;stroke-width:2;stroke-miterlimit:10;}
	.st53{fill:none;stroke:#8C8C8C;stroke-width:2;stroke-miterlimit:10;}
</style>
    <rect class="st0" height="500" width="500" x="-2" y="-1"/>
    <g>
	<rect class="st5" height="144" width="500" x="-3" y="363"/>
        <text class="st6 st7 st8" transform="matrix(1 0 0 1 174.0195 401.5557)">Paddle</text>
</g>
    <path class="st1" d="M235.5,306.9l8.8-3.6c1.2-0.5,2.4-0.5,3.6,0l8.8,3.6l0,0l1.8,0.7c3.8,1.6,8.1,0.6,10.9-2.2
	c0.8-0.8,1.3-1.6,1.5-2c14.5-24,14.8-39.2,14.8-39.2c0.1-5.1-0.5-11.2-1.5-11.3c-0.9-0.1-1.8,5-5.1,18.7c0,0-3.8,15.3-12.2,29.3
	c-1.4,2.3-4.1,3.2-6.6,2.2l-0.3-0.1V121.8c7.1,8.2,13.2,20,17.7,34.5c5.6,17.8,8.6,38.5,8.6,60c0,16.3-1.7,32-5,46.6
	c-0.3,1.3,0.5,2.5,1.8,2.8c1.3,0.3,2.5-0.5,2.8-1.8c3.4-14.9,5.1-31,5.1-47.6c0-44.2-12.5-84.3-31.8-102c0,0,0,0,0,0
	c-3.1-2.9-6.4-5.1-9.7-6.7c-2.1-1-4.6-1-6.8,0c-3.3,1.6-6.6,3.8-9.7,6.7c0,0,0,0,0,0c-8.4,7.7-15.7,19.9-21.2,35.2
	c-0.4,1.2,0.2,2.6,1.4,3c1.2,0.4,2.6-0.2,3-1.4c4.3-12.1,9.8-22.1,16-29.3l0,142.5v38.8l-0.3,0.1c-2.5,1-5.3,0.1-6.6-2.2
	c-17.3-28.8-19.4-84.8-19.4-84.8c-0.9-16,0-39.6,10.4-65c8.7-21.3,21.2-37.1,20.3-37.7c-0.8-0.6-13.6,13.3-22.6,30.9
	c-13.7,26.7-14.4,53.4-12.8,71.8c0,0,0.3,54.3,20.1,87.2c1.3,2.1,3.1,3.3,3.1,3.3C228,308.9,232.5,307.9,235.5,306.9z M247.4,111.8
	c2.6,1.3,5.2,3,7.8,5.2v184.2l-5.6-2.3c-2.3-0.9-4.8-0.9-7.1,0l-5.6,2.3v-3.3l0-180.8c2.5-2.2,5.1-4,7.8-5.2
	C245.6,111.4,246.6,111.4,247.4,111.8z"/>
    <path class="st1" d="M354.6,287.8c-1.9-2.1-3.9-4.1-5.8-6.2l-4.6-4.9c-0.5-0.5-1.1-0.8-1.7-1.1l-10.4-3.7c-1.1-0.4-2.3-0.3-3.3,0.3
	l-41.2-41.2c-0.1,1.3-0.2,2.6-0.3,3.8c-0.2,2.4-0.4,4.9-0.6,7.2l36.1,36.1c-0.5,1-0.6,2.2-0.3,3.3l3.7,10.4c0.2,0.6,0.6,1.2,1.1,1.7
	l19.3,19.1c1.7,1.6,4.3,1.6,6,0l10.8-9.6c1.6-1.7,1.6-4.3,0-6L354.6,287.8z"/>
    <path class="st1" d="M114.1,84l45.5,45.5l-4.2,4.2c-1,1-1.6,2.4-1.5,3.8c0,1.4,0.5,2.7,1.5,3.7l21.2,21.2c1,1,2.3,1.5,3.7,1.5
	c1.4,0,2.8-0.5,3.8-1.5l4.2-4.2l16.9,16.9c0.2-1.7,0.4-3.5,0.7-5.2c0.4-2.6,0.7-5.3,1.2-7.9l-11.2-11.2l4.2-4.2
	c2.1-2.1,2.1-5.4,0-7.5l-21.2-21.2c-2.1-2.1-5.4-2.1-7.5,0L167,122l-45.5-45.4l4.2-4.2c2.1-2.1,2.1-5.4,0-7.5
	c-2.1-2.1-5.4-2.1-7.5,0l-15.9,15.9c-1.8,2.1-1.7,5.3,0.3,7.2c2,2,5.1,2.1,7.2,0.2L114.1,84z"/>
</svg>
