<?xml version="1.0" encoding="utf-8"?>
<!-- Generator: Adobe Illustrator 22.1.0, SVG Export Plug-In . SVG Version: 6.00 Build 0)  -->
<svg version="1.1" id="Calque_1" xmlns="http://www.w3.org/2000/svg" x="0px" y="0px"
     viewBox="0 0 500 500" style="enable-background:new 0 0 500 500;" xml:space="preserve">
<style type="text/css">
	.st0{fill:#EAEAEA;}
	.st1{fill:#8C8C8C;}
	.st2{fill:none;}
	.st3{fill:#6B6B6B;}
	.st4{font-family:'HelveticaNeue-CondensedBold';}
	.st5{font-size:54px;}
	.st6{fill:#FFFFFF;}
	.st7{fill:#EAEAEA;stroke:#8C8C8C;stroke-width:7;stroke-miterlimit:10;}
	.st8{fill:#070707;}
	.st9{fill:none;stroke:#8C8C8C;stroke-width:7;stroke-miterlimit:10;}
	.st10{fill:none;stroke:#8C8C8C;stroke-width:10;stroke-miterlimit:10;}
	.st11{fill:#8C8C8C;stroke:#8C8C8C;stroke-width:3;stroke-miterlimit:10;}
	.st12{fill:none;stroke:#8C8C8C;stroke-width:8;stroke-miterlimit:10;}
	.st13{fill:none;stroke:#8E8E8E;stroke-width:6;stroke-miterlimit:10;}
	.st14{fill:#8E8E8E;}
	.st15{fill:#505050;}
	.st16{fill:none;stroke:#8E8E8E;stroke-width:2;stroke-miterlimit:10;}
	.st17{fill:#8C8C8C;stroke:#8C8C8C;stroke-width:2;stroke-miterlimit:10;}
	.st18{fill:#8C8C8C;stroke:#FFFFFF;stroke-width:2;stroke-miterlimit:10;}
	.st19{fill:none;stroke:#FFFFFF;stroke-width:2;stroke-miterlimit:10;}
	.st20{fill:none;stroke:#8C8C8C;stroke-miterlimit:10;}
	.st21{fill:none;stroke:#8C8C8C;stroke-width:13;stroke-miterlimit:10;}
	.st22{fill:#EAEAEA;stroke:#8C8C8C;stroke-width:8;stroke-miterlimit:10;}
	.st23{fill:none;stroke:#8C8C8C;stroke-width:4;stroke-miterlimit:10;}
	.st24{fill:#8C8C8C;stroke:#8C8C8C;stroke-width:0.75;stroke-miterlimit:10;}
	.st25{fill:none;stroke:#8C8C8C;stroke-width:9;stroke-miterlimit:10;}
	.st26{fill:#8C8C8C;stroke:#8C8C8C;stroke-width:0.5;stroke-miterlimit:10;}
	.st27{stroke:#8C8C8C;stroke-width:8;stroke-miterlimit:10;}
	.st28{fill:#8C8C8C;stroke:#8C8C8C;stroke-miterlimit:10;}
	.st29{fill:none;stroke:#8C8C8C;stroke-width:11;stroke-miterlimit:10;}
	.st30{fill:none;stroke:#8C8C8C;stroke-width:6;stroke-miterlimit:10;}
	.st31{stroke:#8C8C8C;stroke-width:6;stroke-miterlimit:10;}
	.st32{fill:#8C8C8C;stroke:#8C8C8C;stroke-width:4;stroke-miterlimit:10;}
	.st33{fill:#8C8C8C;stroke:#8C8C8C;stroke-width:1.05;stroke-miterlimit:10;}
	.st34{fill:#D6D6D6;}
	.st35{fill:none;stroke:#EAEAEA;stroke-width:5;stroke-miterlimit:10;}
	.st36{fill:#8C8C8C;stroke:#8C8C8C;stroke-width:10;stroke-miterlimit:10;}
	.st37{fill:none;stroke:#CECECE;stroke-width:2;stroke-miterlimit:10;}
	.st38{fill:none;stroke:#FFFFFF;stroke-width:4;stroke-miterlimit:10;}
	.st39{fill-rule:evenodd;clip-rule:evenodd;fill:#8C8C8C;}
	.st40{fill:#8C8C8C;stroke:#8C8C8C;stroke-width:8;stroke-miterlimit:10;}
	.st41{fill:#8C8C8C;stroke:#8C8C8C;stroke-width:7;stroke-miterlimit:10;}
	.st42{fill:#DBDBDB;stroke:#8C8C8C;stroke-width:7;stroke-miterlimit:10;}
	.st43{fill:none;stroke:#8C8C8C;stroke-width:5;stroke-miterlimit:10;}
	.st44{fill:none;stroke:#8C8C8C;stroke-width:3;stroke-miterlimit:10;}
	.st45{clip-path:url(#SVGID_2_);fill:#8C8C8C;}
	.st46{clip-path:url(#SVGID_2_);fill:none;stroke:#8C8C8C;stroke-width:8;stroke-miterlimit:10;}
	.st47{clip-path:url(#SVGID_2_);fill:#FFFFFF;}
	.st48{clip-path:url(#SVGID_2_);fill:#EAEAEA;}
	.st49{clip-path:url(#SVGID_2_);fill:none;stroke:#8C8C8C;stroke-miterlimit:10;}
	.st50{fill:none;stroke:#FFFFFF;stroke-width:0.75;stroke-miterlimit:10;}
	.st51{fill:none;stroke:#8C8C8C;stroke-width:14;stroke-miterlimit:10;}
	.st52{fill:none;stroke:#EAEAEA;stroke-width:2;stroke-miterlimit:10;}
	.st53{fill:none;stroke:#8C8C8C;stroke-width:2;stroke-miterlimit:10;}
</style>
<rect y="-1" class="st0" width="500" height="500"/>
<g>
	<rect x="-2" y="363" class="st2" width="500" height="144"/>
	<text transform="matrix(1 0 0 1 173.5352 401.5557)" class="st3 st4 st5">Palette</text>
</g>
<g>
	<path class="st1" d="M308.9,282.7c0,2.4,1.9,4.3,4.3,4.3h17c2.4,0,4.3-1.9,4.3-4.3V95.3c0-2.4-1.9-4.3-4.3-4.3h-17
		c-2.4,0-4.3,1.9-4.3,4.3v14.9h-17V95.3c0-2.4-1.9-4.3-4.3-4.3h-34.1c-2.4,0-4.3,1.9-4.3,4.3v14.9h-17V95.3c0-2.4-1.9-4.3-4.3-4.3
		h-34.1c-2.4,0-4.3,1.9-4.3,4.3v14.9h-17V95.3c0-2.4-1.9-4.3-4.3-4.3h-17c-2.4,0-4.3,1.9-4.3,4.3v187.5c0,2.4,1.9,4.3,4.3,4.3h17
		c2.4,0,4.3-1.9,4.3-4.3v-14.9h17v14.9c0,2.4,1.9,4.3,4.3,4.3H228c2.4,0,4.3-1.9,4.3-4.3v-14.9h17v14.9c0,2.4,1.9,4.3,4.3,4.3h34.1
		c2.4,0,4.3-1.9,4.3-4.3v-14.9h17V282.7z M164,278.5h-8.5v-179h8.5V278.5z M172.6,140h17v34.1h-17V140z M172.6,203.9h17V238h-17
		V203.9z M198.1,99.5h8.5v179h-8.5V99.5z M223.7,278.5h-8.5v-179h8.5V278.5z M232.2,140h17v34.1h-17V140z M232.2,203.9h17V238h-17
		V203.9z M283.3,278.5h-8.5v-179h8.5V278.5z M291.9,140h17v34.1h-17V140z M291.9,203.9h17V238h-17V203.9z M317.4,99.5h8.5v179h-8.5
		V99.5z"/>
	<rect x="256.8" y="99.5" class="st0" width="28.8" height="179"/>
	<rect x="196.7" y="99.1" class="st0" width="28.8" height="179"/>
	<path d="M277.4,125.8c-1,0-1.7-0.8-1.7-1.7c0-1,0.8-1.7,1.7-1.7s1.7,0.8,1.7,1.7C279.1,125.1,278.3,125.8,277.4,125.8"/>
	<path d="M265.1,125.8c-1,0-1.7-0.8-1.7-1.7c0-1,0.8-1.7,1.7-1.7s1.7,0.8,1.7,1.7C266.9,125.1,266.1,125.8,265.1,125.8"/>
	<path d="M277.3,191.9c-1,0-1.7-0.8-1.7-1.7c0-1,0.8-1.7,1.7-1.7s1.7,0.8,1.7,1.7C279.1,191.1,278.3,191.9,277.3,191.9"/>
	<path d="M265.1,191.9c-1,0-1.7-0.8-1.7-1.7c0-1,0.8-1.7,1.7-1.7s1.7,0.8,1.7,1.7C266.8,191.1,266.1,191.9,265.1,191.9"/>
	<path d="M277.4,256.8c-1,0-1.7-0.8-1.7-1.7s0.8-1.7,1.7-1.7s1.7,0.8,1.7,1.7S278.3,256.8,277.4,256.8"/>
	<path d="M265.1,256.8c-1,0-1.7-0.8-1.7-1.7s0.8-1.7,1.7-1.7s1.7,0.8,1.7,1.7S266.1,256.8,265.1,256.8"/>
	<path d="M217.6,123.9c-1,0-1.7-0.8-1.7-1.7c0-1,0.8-1.7,1.7-1.7c1,0,1.7,0.8,1.7,1.7C219.4,123.2,218.6,123.9,217.6,123.9"/>
	<path d="M205.4,123.9c-1,0-1.7-0.8-1.7-1.7c0-1,0.8-1.7,1.7-1.7c1,0,1.7,0.8,1.7,1.7C207.1,123.2,206.4,123.9,205.4,123.9"/>
	<path d="M217.6,190c-1,0-1.7-0.8-1.7-1.7c0-1,0.8-1.7,1.7-1.7c1,0,1.7,0.8,1.7,1.7C219.3,189.2,218.6,190,217.6,190"/>
	<path d="M205.4,190c-1,0-1.7-0.8-1.7-1.7c0-1,0.8-1.7,1.7-1.7c1,0,1.7,0.8,1.7,1.7C207.1,189.2,206.3,190,205.4,190"/>
	<path d="M217.6,254.8c-1,0-1.7-0.8-1.7-1.7s0.8-1.7,1.7-1.7c1,0,1.7,0.8,1.7,1.7S218.6,254.8,217.6,254.8"/>
	<path d="M205.4,254.8c-1,0-1.7-0.8-1.7-1.7s0.8-1.7,1.7-1.7c1,0,1.7,0.8,1.7,1.7S206.4,254.8,205.4,254.8"/>
	<path d="M159.5,123.5c-1,0-1.7-0.8-1.7-1.7c0-1,0.8-1.7,1.7-1.7c1,0,1.7,0.8,1.7,1.7C161.2,122.8,160.4,123.5,159.5,123.5"/>
	<path d="M159.4,189.6c-1,0-1.7-0.8-1.7-1.7c0-1,0.8-1.7,1.7-1.7s1.7,0.8,1.7,1.7C161.2,188.8,160.4,189.6,159.4,189.6"/>
	<path d="M159.5,254.5c-1,0-1.7-0.8-1.7-1.7s0.8-1.7,1.7-1.7c1,0,1.7,0.8,1.7,1.7S160.4,254.5,159.5,254.5"/>
	<path d="M322.3,124.7c-1,0-1.7-0.8-1.7-1.7c0-1,0.8-1.7,1.7-1.7s1.7,0.8,1.7,1.7C324,123.9,323.2,124.7,322.3,124.7"/>
	<path d="M322.3,190.7c-1,0-1.7-0.8-1.7-1.7c0-1,0.8-1.7,1.7-1.7s1.7,0.8,1.7,1.7C324,190,323.2,190.7,322.3,190.7"/>
	<path d="M322.3,255.6c-1,0-1.7-0.8-1.7-1.7s0.8-1.7,1.7-1.7s1.7,0.8,1.7,1.7S323.2,255.6,322.3,255.6"/>
</g>
</svg>
