<?xml version="1.0" encoding="utf-8"?>
<!-- Generator: Adobe Illustrator 22.1.0, SVG Export Plug-In . SVG Version: 6.00 Build 0)  -->
<svg version="1.1" id="Calque_1" xmlns="http://www.w3.org/2000/svg" x="0px" y="0px"
     viewBox="0 0 500 500" style="enable-background:new 0 0 500 500;" xml:space="preserve">
<style type="text/css">
	.st0{fill:#4FBDD7;}
	.st1{fill:#EAEAEA;}
	.st2{fill:#FFFFFF;}
	.st3{fill:#4FBDD7;stroke:#FFFFFF;stroke-width:5;stroke-miterlimit:10;}
	.st4{fill:#8C8C8C;}
	.st5{fill:#070707;}
	.st6{fill:none;stroke:#FFFFFF;stroke-width:7;stroke-miterlimit:10;}
	.st7{fill:none;stroke:#FFFFFF;stroke-width:10;stroke-miterlimit:10;}
	.st8{fill:#FFFFFF;stroke:#FFFFFF;stroke-width:3;stroke-miterlimit:10;}
	.st9{fill:none;stroke:#FDFFFF;stroke-width:6;stroke-miterlimit:10;}
	.st10{fill:#FAFEFF;}
	.st11{fill:none;stroke:#FFFFFF;stroke-width:2;stroke-miterlimit:10;}
	.st12{fill:#FFFFFF;stroke:#FFFFFF;stroke-width:2;stroke-miterlimit:10;}
	.st13{fill:#4FBDD7;stroke:#FFFFFF;stroke-width:4;stroke-miterlimit:10;}
	.st14{fill:#FFFFFF;stroke:#FFFFFF;stroke-width:4;stroke-miterlimit:10;}
	.st15{fill:none;stroke:#FFFFFF;stroke-miterlimit:10;}
	.st16{fill:#FFFFFF;stroke:#FFFFFF;stroke-width:13;stroke-miterlimit:10;}
	.st17{fill:#4FBDD7;stroke:#FFFFFF;stroke-width:8;stroke-miterlimit:10;}
	.st18{fill:#FFFFFF;stroke:#FFFFFF;stroke-width:0.75;stroke-miterlimit:10;}
	.st19{fill:#FFFFFF;stroke:#FFFFFF;stroke-width:0.5;stroke-miterlimit:10;}
	.st20{fill:#FFFFFF;stroke:#FFFFFF;stroke-width:8;stroke-miterlimit:10;}
	.st21{fill:#FFFFFF;stroke:#FFFFFF;stroke-miterlimit:10;}
	.st22{fill:#FFFFFF;stroke:#FFFFFF;stroke-width:11;stroke-miterlimit:10;}
	.st23{fill:#FFFFFF;stroke:#FFFFFF;stroke-width:6;stroke-miterlimit:10;}
	.st24{fill:#8C8C8C;stroke:#8C8C8C;stroke-width:4;stroke-miterlimit:10;}
	.st25{fill:#FFFFFF;stroke:#FFFFFF;stroke-width:1.05;stroke-miterlimit:10;}
	.st26{fill:none;stroke:#4FBDD7;stroke-width:5;stroke-miterlimit:10;}
	.st27{fill:none;stroke:#FFFFFF;stroke-width:4;stroke-miterlimit:10;}
	.st28{fill:#8C8C8C;stroke:#FFFFFF;stroke-width:4;stroke-miterlimit:10;}
	.st29{fill:#FFFFFF;stroke:#FFFFFF;stroke-width:10;stroke-miterlimit:10;}
	.st30{fill:none;stroke:#4FBDD7;stroke-width:2;stroke-miterlimit:10;}
	.st31{fill-rule:evenodd;clip-rule:evenodd;fill:#FFFFFF;}
	.st32{fill:#FFFFFF;stroke:#FFFFFF;stroke-width:7;stroke-miterlimit:10;}
	.st33{fill:#FFFFFF;stroke:#4FBDD7;stroke-width:7;stroke-miterlimit:10;}
	.st34{fill:#FCFCFC;}
	.st35{fill:#FFFFFF;stroke:#FFFFFF;stroke-width:5;stroke-miterlimit:10;}
	.st36{fill:none;stroke:#FFFFFF;stroke-width:3;stroke-miterlimit:10;}
	.st37{fill:none;stroke:#FFFFFF;stroke-width:8;stroke-miterlimit:10;}
	.st38{fill:none;stroke:#FFFFFF;stroke-width:6;stroke-miterlimit:10;}
	.st39{fill:#FFFFFF;stroke:#4FBDD7;stroke-width:3;stroke-miterlimit:10;}
	.st40{fill:none;stroke:#FFFFFF;stroke-width:0.75;stroke-miterlimit:10;}
	.st41{fill:#4FBDD7;stroke:#FFFFFF;stroke-width:9;stroke-miterlimit:10;}
	.st42{fill:none;stroke:#FFFFFF;stroke-width:9;stroke-miterlimit:10;}
	.st43{fill:none;stroke:#4FBDD7;stroke-width:3;stroke-miterlimit:10;}
	.st44{fill:none;}
	.st45{font-family:'HelveticaNeue-CondensedBold';}
	.st46{font-size:54px;}
	.st47{fill:none;stroke:#FFFFFF;stroke-width:5;stroke-miterlimit:10;}
</style>
<rect class="st0" width="500" height="500"/>
<g>
	<rect x="-2" y="363" class="st44" width="500" height="144"/>
	<text transform="matrix(1 0 0 1 199.5088 401.5557)" class="st2 st45 st46">Parc</text>
</g>
<g>
	<path class="st2" d="M355.2,121.5c-0.3,0.1-0.7,0.2-1.1,0.2c-0.3,0-0.7,0-1,0c-63.5,0-127,0-190.5,0c-7,0-14,0-21.1,0
		c1.3,6.8,4.7,11.7,8.9,12c1.4,0.1,2.8,0,4.1,0c0.1,1.3,0.2,1.9,0.2,2.5c0,40.8,0,81.6,0,122.4c0,0.1-0.2,1.1-0.4,2.6
		c-0.9,6-1.5,11-1.9,14.5c1.8-0.5,3.6-1.1,5.3-1.6c111,0.3,187,0.3,190.2-0.1c0.2,0,1.5-0.2,3,0.3c1.8,0.7,3,2.1,3.9,3.7
		c-1.2-4.6-2.5-10.3-3.4-17c0,0-0.4-1.9-0.4-3.8c0-39.4,0-78.9,0-118.3c0-1.6,0.1-3.3,0.1-5.3c1.7,0,3.1,0.1,4.5,0
		c4-0.4,7.3-5.3,8.6-12C361.4,121.6,358.3,121.5,355.2,121.5z M315.7,134h17.2v97.5h-17.2V134z M244.4,134h17.2v97.2h-17.2V134z
		 M173.1,134.1h17.2v97.4h-17.2V134.1z M166.2,261.5h-4.6V134h4.6V261.5z M190.4,261.4h-17.4c0-4.9-0.1-9.7,0.1-14.6
		c0-1,1.1-2.7,1.7-2.7c5.1-0.2,10.3-0.1,15.6-0.1V261.4z M201.8,261.5h-4.6V134h4.6V261.5z M225.9,261.4h-17.2v-17.5h17.2V261.4z
		 M226,231.2h-17.2v-97H226V231.2z M237.4,261.5H233V134h4.5V261.5z M261.6,261.5h-17.4c0-5.4,0-10.7,0.1-16c0-0.7,0.8-1.9,1.3-1.9
		c5.3-0.1,10.6-0.1,16.1-0.1V261.5z M273.1,261.4h-4.5V133.9h4.5V261.4z M297.2,261.4H280v-17.6h17.2V261.4z M297.3,231.2h-17.2v-97
		h17.2V231.2z M308.8,261.5h-4.6V134h4.6V261.5z M333.1,261.4h-17.5v-17.3c5.4,0,10.7-0.1,15.9,0.1c0.5,0,1.4,2,1.5,3.2
		C333.2,252,333.1,256.6,333.1,261.4z M344.4,261.5h-4.6V134h4.6V261.5z"/>
	<path class="st2" d="M261.6,243.5v18h-17.4c0-5.4-0.1-10.7,0.1-16c0-0.7,0.8-1.9,1.3-1.9C250.9,243.5,256.2,243.5,261.6,243.5"/>
	<rect x="208.7" y="243.9" class="st2" width="17.2" height="17.5"/>
	<rect x="280" y="243.8" class="st2" width="17.2" height="17.6"/>
	<path class="st2" d="M315.6,261.4v-17.3c5.4,0,10.7-0.1,15.9,0.1c0.5,0,1.4,2,1.5,3.2c0.2,4.5,0.1,9.1,0.1,14H315.6z"/>
	<path class="st2" d="M190.4,244v17.4h-17.4c0-4.9-0.1-9.7,0.1-14.6c0-1,1.1-2.7,1.7-2.7C179.9,243.9,185,244,190.4,244"/>
	<path class="st2" d="M155,264v-32.4c59.3,0,117.7-0.2,176.1,0.3c5.8,0,15.6,3.8,16.1,6c1.9,8.5,0.8,17,0.8,26.2H155z"/>
</g>
</svg>
