<?xml version="1.0" encoding="utf-8"?>
<!-- Generator: Adobe Illustrator 22.1.0, SVG Export Plug-In . SVG Version: 6.00 Build 0)  -->
<svg style="enable-background:new 0 0 500 500;" id="Calque_1" version="1.1" viewBox="0 0 500 500" x="0px"
     xmlns="http://www.w3.org/2000/svg" y="0px" xml:space="preserve">
<style type="text/css">
	.st0{fill:#EAEAEA;}
	.st1{fill:#8C8C8C;}
	.st2{fill:#FFFFFF;}
	.st3{fill:#EAEAEA;stroke:#8C8C8C;stroke-width:7;stroke-miterlimit:10;}
	.st4{fill:#070707;}
	.st5{fill:none;}
	.st6{fill:#6B6B6B;}
	.st7{font-family:'HelveticaNeue-CondensedBold';}
	.st8{font-size:54px;}
	.st9{fill:none;stroke:#8C8C8C;stroke-width:7;stroke-miterlimit:10;}
	.st10{fill:none;stroke:#8C8C8C;stroke-width:10;stroke-miterlimit:10;}
	.st11{fill:#8C8C8C;stroke:#8C8C8C;stroke-width:3;stroke-miterlimit:10;}
	.st12{fill:none;stroke:#8C8C8C;stroke-width:8;stroke-miterlimit:10;}
	.st13{fill:none;stroke:#8E8E8E;stroke-width:6;stroke-miterlimit:10;}
	.st14{fill:#8E8E8E;}
	.st15{fill:#505050;}
	.st16{fill:none;stroke:#8E8E8E;stroke-width:2;stroke-miterlimit:10;}
	.st17{fill:#8C8C8C;stroke:#8C8C8C;stroke-width:2;stroke-miterlimit:10;}
	.st18{fill:#8C8C8C;stroke:#FFFFFF;stroke-width:2;stroke-miterlimit:10;}
	.st19{fill:none;stroke:#FFFFFF;stroke-width:2;stroke-miterlimit:10;}
	.st20{fill:none;stroke:#8C8C8C;stroke-miterlimit:10;}
	.st21{fill:none;stroke:#8C8C8C;stroke-width:13;stroke-miterlimit:10;}
	.st22{fill:#EAEAEA;stroke:#8C8C8C;stroke-width:8;stroke-miterlimit:10;}
	.st23{fill:none;stroke:#8C8C8C;stroke-width:4;stroke-miterlimit:10;}
	.st24{fill:#8C8C8C;stroke:#8C8C8C;stroke-width:0.75;stroke-miterlimit:10;}
	.st25{fill:none;stroke:#8C8C8C;stroke-width:9;stroke-miterlimit:10;}
	.st26{fill:#8C8C8C;stroke:#8C8C8C;stroke-width:0.5;stroke-miterlimit:10;}
	.st27{stroke:#8C8C8C;stroke-width:8;stroke-miterlimit:10;}
	.st28{fill:#8C8C8C;stroke:#8C8C8C;stroke-miterlimit:10;}
	.st29{fill:none;stroke:#8C8C8C;stroke-width:11;stroke-miterlimit:10;}
	.st30{fill:none;stroke:#8C8C8C;stroke-width:6;stroke-miterlimit:10;}
	.st31{stroke:#8C8C8C;stroke-width:6;stroke-miterlimit:10;}
	.st32{fill:#8C8C8C;stroke:#8C8C8C;stroke-width:4;stroke-miterlimit:10;}
	.st33{fill:#8C8C8C;stroke:#8C8C8C;stroke-width:1.05;stroke-miterlimit:10;}
	.st34{fill:#D6D6D6;}
	.st35{fill:none;stroke:#EAEAEA;stroke-width:5;stroke-miterlimit:10;}
	.st36{fill:#8C8C8C;stroke:#8C8C8C;stroke-width:10;stroke-miterlimit:10;}
	.st37{fill:none;stroke:#CECECE;stroke-width:2;stroke-miterlimit:10;}
	.st38{fill:none;stroke:#FFFFFF;stroke-width:4;stroke-miterlimit:10;}
	.st39{fill-rule:evenodd;clip-rule:evenodd;fill:#8C8C8C;}
	.st40{fill:#8C8C8C;stroke:#8C8C8C;stroke-width:8;stroke-miterlimit:10;}
	.st41{fill:#8C8C8C;stroke:#8C8C8C;stroke-width:7;stroke-miterlimit:10;}
	.st42{fill:#DBDBDB;stroke:#8C8C8C;stroke-width:7;stroke-miterlimit:10;}
	.st43{fill:none;stroke:#8C8C8C;stroke-width:5;stroke-miterlimit:10;}
	.st44{fill:none;stroke:#8C8C8C;stroke-width:3;stroke-miterlimit:10;}
	.st45{clip-path:url(#SVGID_2_);fill:#8C8C8C;}
	.st46{clip-path:url(#SVGID_2_);fill:none;stroke:#8C8C8C;stroke-width:8;stroke-miterlimit:10;}
	.st47{clip-path:url(#SVGID_2_);fill:#FFFFFF;}
	.st48{clip-path:url(#SVGID_2_);fill:#EAEAEA;}
	.st49{clip-path:url(#SVGID_2_);fill:none;stroke:#8C8C8C;stroke-miterlimit:10;}
	.st50{fill:none;stroke:#FFFFFF;stroke-width:0.75;stroke-miterlimit:10;}
	.st51{fill:none;stroke:#8C8C8C;stroke-width:14;stroke-miterlimit:10;}
	.st52{fill:none;stroke:#EAEAEA;stroke-width:2;stroke-miterlimit:10;}
	.st53{fill:none;stroke:#8C8C8C;stroke-width:2;stroke-miterlimit:10;}
</style>
    <rect class="st0" height="500" width="500" x="-1" y="1"/>
    <g>
	<rect class="st5" height="144" width="500" y="363"/>
        <text class="st6 st7 st8" transform="matrix(1 0 0 1 143.6216 401.5557)">Pâte Fimo</text>
</g>
    <path class="st1" d="M90.7,168.7l0.9,75.3c0,1,1.4,1.9,3.5,2.3l151,31.5c1,0.2,2.1,0.3,3.1,0.3h0c0.5,0.2,1,0.4,1.6,0.5
	c1,0.2,2.2,0.4,3.4,0.4c1.1,0,2.2-0.1,3.1-0.3l149-32.2c2.1-0.5,3.5-1.4,3.5-2.3v-78.3c0,0,0,0,0-0.1c0,0,0,0,0-0.1
	c0-0.1-0.1-0.1-0.1-0.2c-0.1-0.1-0.1-0.3-0.2-0.4c-0.1-0.1-0.2-0.2-0.3-0.3c-0.1-0.1-0.3-0.2-0.5-0.4c-0.1-0.1-0.3-0.2-0.5-0.3
	c-0.2-0.1-0.4-0.2-0.7-0.3c-0.2-0.1-0.4-0.1-0.6-0.2c-0.1,0-0.3-0.1-0.4-0.1c-0.1,0-0.3,0-0.5-0.1c-0.1,0-0.2-0.1-0.4-0.1
	l-153.6-29.6c-1.8-0.3-3.8-0.3-5.6,0.1L94.8,165.4c-2.2,0.4-3.6,1.4-3.6,2.3c0,0,0,0,0,0C90.9,168.1,90.7,168.4,90.7,168.7
	 M387.9,166.2L254.1,196l-141.7-28.2l137.5-28.6L387.9,166.2z M260.8,271.9v-71.4l135.8-30.2v72.3L260.8,271.9z"/>
    <path class="st1" d="M270.6,211.9c7.1-0.7,13.5-1.5,19.6-2.4c0.4,1.6,0.7,3.1,1.1,4.6c-4.7,0.8-9.6,1.5-14.8,2.2
	c0.9,5,1.9,9.9,2.8,14.6c5.1-1.1,9.9-2.1,14.5-3.1c0.3,1.4,0.7,2.8,1,4.2c-4.6,1.2-9.5,2.3-14.6,3.5c1.1,6.5,1.8,12.8,1.5,19.2
	c-1.6,0.6-3.2,1.2-4.8,1.8C276.5,242.1,272.7,227.5,270.6,211.9"/>
    <path class="st1" d="M300.6,207.9c3.3,13.8,9.1,24.8,8.4,37.6c-1.6,0.5-3.2,1.1-4.8,1.6c1-13-4.5-24.4-7.9-38.5
	C297.8,208.4,299.2,208.2,300.6,207.9"/>
    <path class="st1" d="M340.7,220.7c-1.9-4-4-9.1-4.6-13.3c0,0-0.1,0-0.2,0c-0.5,4.1-0.5,8.2-0.4,12.7c0.1,5.3,0.5,10.7-0.4,16.7
	c-1.1,0.3-2.2,0.7-3.3,1c-2.6-4.8-6.1-9.4-9.7-14.1c-3.2-4.3-6.1-8.4-8.3-12.7c0,0-0.1,0-0.1,0c1.2,4.7,3.2,10.5,4.7,15.6
	c1.4,4.9,2.4,9.8,2.2,15.1c-1.4,0.5-2.9,1-4.4,1.4c0.8-12.6-4.8-23.1-7-36.5c1.8-0.3,3.6-0.6,5.4-0.8c3.1,6,6.9,11.2,10.6,15.9
	c2.8,3.7,5.2,6.8,7,9.9c0,0,0.1,0,0.1,0c-0.2-3.5-0.5-7.2-0.6-11.4c-0.1-5.4-0.1-10.9,1.7-16.9c1.9-0.2,3.8-0.4,5.8-0.6
	c0.9,11.6,7.4,19.9,11.2,29.9c-1.4,0.4-2.7,0.7-4.1,1.1C344.9,229.1,342.7,224.9,340.7,220.7"/>
    <path class="st1" d="M383.1,213.6c2.9,8.7-4.1,13.5-12.8,15c-9.1,1.6-17.3-2.7-20.7-11.3c-3.8-8.9,4.2-16.7,14.2-16.8
	C373.3,200.6,380,206.3,383.1,213.6 M354.1,216.6c2.3,5.9,8.3,10.3,15.3,9.3c7.2-1.1,10.1-6,8.2-11.8c-1.8-5-6.5-10.5-14.2-10.3
	C355.3,204.1,351.7,210.6,354.1,216.6"/>
</svg>
