<?xml version="1.0" encoding="utf-8"?>
<!-- Generator: Adobe Illustrator 22.1.0, SVG Export Plug-In . SVG Version: 6.00 Build 0)  -->
<svg style="enable-background:new 0 0 500 500;" id="Calque_1" version="1.1" viewBox="0 0 500 500" x="0px"
     xmlns="http://www.w3.org/2000/svg" y="0px" xml:space="preserve">
<style type="text/css">
	.st0{fill:#4FBDD7;}
	.st1{fill:#EAEAEA;}
	.st2{fill:#FFFFFF;}
	.st3{fill:#4FBDD7;stroke:#FFFFFF;stroke-width:5;stroke-miterlimit:10;}
	.st4{fill:#8C8C8C;}
	.st5{fill:#070707;}
	.st6{fill:none;stroke:#FFFFFF;stroke-width:7;stroke-miterlimit:10;}
	.st7{fill:none;stroke:#FFFFFF;stroke-width:10;stroke-miterlimit:10;}
	.st8{fill:#FFFFFF;stroke:#FFFFFF;stroke-width:3;stroke-miterlimit:10;}
	.st9{fill:none;stroke:#FDFFFF;stroke-width:6;stroke-miterlimit:10;}
	.st10{fill:#FAFEFF;}
	.st11{fill:none;stroke:#FFFFFF;stroke-width:2;stroke-miterlimit:10;}
	.st12{fill:#FFFFFF;stroke:#FFFFFF;stroke-width:2;stroke-miterlimit:10;}
	.st13{fill:#4FBDD7;stroke:#FFFFFF;stroke-width:4;stroke-miterlimit:10;}
	.st14{fill:#FFFFFF;stroke:#FFFFFF;stroke-width:4;stroke-miterlimit:10;}
	.st15{fill:none;stroke:#FFFFFF;stroke-miterlimit:10;}
	.st16{fill:#FFFFFF;stroke:#FFFFFF;stroke-width:13;stroke-miterlimit:10;}
	.st17{fill:#4FBDD7;stroke:#FFFFFF;stroke-width:8;stroke-miterlimit:10;}
	.st18{fill:#FFFFFF;stroke:#FFFFFF;stroke-width:0.75;stroke-miterlimit:10;}
	.st19{fill:#FFFFFF;stroke:#FFFFFF;stroke-width:0.5;stroke-miterlimit:10;}
	.st20{fill:#FFFFFF;stroke:#FFFFFF;stroke-width:8;stroke-miterlimit:10;}
	.st21{fill:#FFFFFF;stroke:#FFFFFF;stroke-miterlimit:10;}
	.st22{fill:#FFFFFF;stroke:#FFFFFF;stroke-width:11;stroke-miterlimit:10;}
	.st23{fill:#FFFFFF;stroke:#FFFFFF;stroke-width:6;stroke-miterlimit:10;}
	.st24{fill:#8C8C8C;stroke:#8C8C8C;stroke-width:4;stroke-miterlimit:10;}
	.st25{fill:#FFFFFF;stroke:#FFFFFF;stroke-width:1.05;stroke-miterlimit:10;}
	.st26{fill:none;stroke:#4FBDD7;stroke-width:5;stroke-miterlimit:10;}
	.st27{fill:none;stroke:#FFFFFF;stroke-width:4;stroke-miterlimit:10;}
	.st28{fill:#8C8C8C;stroke:#FFFFFF;stroke-width:4;stroke-miterlimit:10;}
	.st29{fill:#FFFFFF;stroke:#FFFFFF;stroke-width:10;stroke-miterlimit:10;}
	.st30{fill:none;stroke:#4FBDD7;stroke-width:2;stroke-miterlimit:10;}
	.st31{fill-rule:evenodd;clip-rule:evenodd;fill:#FFFFFF;}
	.st32{fill:#FFFFFF;stroke:#FFFFFF;stroke-width:7;stroke-miterlimit:10;}
	.st33{fill:#FFFFFF;stroke:#4FBDD7;stroke-width:7;stroke-miterlimit:10;}
	.st34{fill:#FCFCFC;}
	.st35{fill:#FFFFFF;stroke:#FFFFFF;stroke-width:5;stroke-miterlimit:10;}
	.st36{fill:none;stroke:#FFFFFF;stroke-width:3;stroke-miterlimit:10;}
	.st37{fill:none;stroke:#FFFFFF;stroke-width:8;stroke-miterlimit:10;}
	.st38{fill:none;stroke:#FFFFFF;stroke-width:6;stroke-miterlimit:10;}
	.st39{fill:#FFFFFF;stroke:#4FBDD7;stroke-width:3;stroke-miterlimit:10;}
	.st40{fill:none;stroke:#FFFFFF;stroke-width:0.75;stroke-miterlimit:10;}
	.st41{fill:none;}
	.st42{font-family:'HelveticaNeue-CondensedBold';}
	.st43{font-size:54px;}
	.st44{fill:#4FBDD7;stroke:#FFFFFF;stroke-width:9;stroke-miterlimit:10;}
	.st45{fill:none;stroke:#FFFFFF;stroke-width:9;stroke-miterlimit:10;}
	.st46{fill:none;stroke:#4FBDD7;stroke-width:3;stroke-miterlimit:10;}
</style>
    <rect class="st0" height="500" width="500" x="-1" y="1"/>
    <g>
	<rect class="st41" height="144" width="500" x="-3" y="365"/>
        <text class="st2 st42 st43" transform="matrix(1 0 0 1 157.5229 403.5557)">Peinture</text>
</g>
    <polygon class="st2" points="265.1,92 226.4,92 222.4,149.5 269.1,149.5 "/>
    <g>
	<path class="st2"
          d="M287.8,143.3c0-5.3-18.8-9.7-42-9.7s-42,4.3-42,9.7c0,5.3,18.8,9.7,42,9.7S287.8,148.7,287.8,143.3"/>
        <path class="st2"
              d="M287.8,143.3c0-5.3-18.8-9.7-42-9.7s-42,4.3-42,9.7c0,5.3,18.8,9.7,42,9.7S287.8,148.7,287.8,143.3z"/>
        <path class="st2" d="M305,298.4c-39.6,0.5-79.1,1.1-118.7,1.6v0l17.4-156.7h84l5.3,47.5l7.7,69.3L305,298.4z"/>
        <path class="st44" d="M305,298.4c-39.6,0.5-79.1,1.1-118.7,1.6v0l17.4-156.7h84l5.3,47.5l7.7,69.3L305,298.4z"/>
        <polygon class="st2" points="300.7,260 190.7,260 198.4,190.8 293,190.8 	"/>
        <polygon class="st2" points="300.7,260 190.7,260 198.4,190.8 293,190.8 	"/>
        <path class="st0" d="M268.7,234c-3.9,1.4-7.8,2.6-11.8,3.7c2.6-5.5,5-11.1,7.3-16.7c0.8-2-1.9-4-3.6-2.8
		c-6.6,4.5-11.6,12.2-18.6,16.2c5.1-8.6,9.4-17.8,9.1-28c-0.1-2.1-2.7-3.3-4.2-1.8c-4.8,4.7-9.5,9.4-14.3,14.2
		c-2.3,2.3-4.6,4.6-7,6.9c-0.3,0.3-0.7,0.7-1,1l5.7-10.7c1.6-2.9,3.3-5.8,4.7-8.8c1.1-2.4,1.7-4.9,0.3-7.3c-0.7-1.3-2.2-1.4-3.4-0.9
		c-7.9,3.4-15,8.4-21,14.7c-2.2,2.3,1.3,5.8,3.5,3.5c4.7-5,10.2-9,16.3-12.1c-0.7,1.6-1.9,3.3-2.4,4.1c-1.4,2.6-2.7,5.1-4.1,7.7
		c-2.7,5-5.3,10-8,15c-0.4,0.8-0.5,1.8,0,2.5c1.7,2.5,4.5,2.3,6.8,0.7c3.3-2.3,6.1-5.9,9-8.7c4.6-4.5,9.1-9.1,13.7-13.6
		c-1.6,9.1-6.7,17.2-11.6,25c-1.3,2,0.8,4,2.8,3.6c8-1.2,13.2-6.9,18.6-12.3c-1.7,3.7-3.4,7.5-5.2,11.1c-1,1.9,0.6,4.2,2.8,3.6
		c4.4-1.1,8.8-2.4,13.2-3.8c-0.2,0.9-0.5,1.7-0.8,2.6c-1.1,3,3.7,4.3,4.8,1.3c0.9-2.5,1.4-5,1.7-7.6
		C272,234.9,270.1,233.5,268.7,234"/>
</g>
</svg>
