<?xml version="1.0" encoding="utf-8"?>
<!-- Generator: Adobe Illustrator 22.1.0, SVG Export Plug-In . SVG Version: 6.00 Build 0)  -->
<svg version="1.1" id="Calque_1" xmlns="http://www.w3.org/2000/svg" xmlns:xlink="http://www.w3.org/1999/xlink" x="0px" y="0px"
	 viewBox="0 0 500 500" style="enable-background:new 0 0 500 500;" xml:space="preserve">
<style type="text/css">
	.st0{fill:#EAEAEA;}
	.st1{fill:#8C8C8C;}
	.st2{fill:#FFFFFF;}
	.st3{fill:#EAEAEA;stroke:#8C8C8C;stroke-width:7;stroke-miterlimit:10;}
	.st4{fill:#070707;}
	.st5{fill:none;stroke:#8C8C8C;stroke-width:7;stroke-miterlimit:10;}
	.st6{fill:none;stroke:#8C8C8C;stroke-width:10;stroke-miterlimit:10;}
	.st7{fill:#8C8C8C;stroke:#8C8C8C;stroke-width:3;stroke-miterlimit:10;}
	.st8{fill:none;stroke:#8C8C8C;stroke-width:8;stroke-miterlimit:10;}
	.st9{fill:none;stroke:#8E8E8E;stroke-width:6;stroke-miterlimit:10;}
	.st10{fill:#8E8E8E;}
	.st11{fill:#505050;}
	.st12{fill:none;stroke:#8E8E8E;stroke-width:2;stroke-miterlimit:10;}
	.st13{fill:#8C8C8C;stroke:#8C8C8C;stroke-width:2;stroke-miterlimit:10;}
	.st14{fill:#8C8C8C;stroke:#FFFFFF;stroke-width:2;stroke-miterlimit:10;}
	.st15{fill:none;stroke:#FFFFFF;stroke-width:2;stroke-miterlimit:10;}
	.st16{fill:none;stroke:#8C8C8C;stroke-miterlimit:10;}
	.st17{fill:none;stroke:#8C8C8C;stroke-width:13;stroke-miterlimit:10;}
	.st18{fill:#EAEAEA;stroke:#8C8C8C;stroke-width:8;stroke-miterlimit:10;}
	.st19{fill:none;stroke:#8C8C8C;stroke-width:4;stroke-miterlimit:10;}
	.st20{fill:#8C8C8C;stroke:#8C8C8C;stroke-width:0.75;stroke-miterlimit:10;}
	.st21{fill:none;stroke:#8C8C8C;stroke-width:9;stroke-miterlimit:10;}
	.st22{fill:#8C8C8C;stroke:#8C8C8C;stroke-width:0.5;stroke-miterlimit:10;}
	.st23{fill:#6B6B6B;}
	.st24{fill:none;}
	.st25{stroke:#8C8C8C;stroke-width:8;stroke-miterlimit:10;}
	.st26{fill:#8C8C8C;stroke:#8C8C8C;stroke-miterlimit:10;}
	.st27{fill:none;stroke:#8C8C8C;stroke-width:11;stroke-miterlimit:10;}
	.st28{fill:none;stroke:#8C8C8C;stroke-width:6;stroke-miterlimit:10;}
	.st29{stroke:#8C8C8C;stroke-width:6;stroke-miterlimit:10;}
	.st30{fill:#8C8C8C;stroke:#8C8C8C;stroke-width:4;stroke-miterlimit:10;}
	.st31{fill:#8C8C8C;stroke:#8C8C8C;stroke-width:1.05;stroke-miterlimit:10;}
	.st32{fill:#D6D6D6;}
	.st33{font-family:'HelveticaNeue-CondensedBold';}
	.st34{font-size:54px;}
	.st35{fill:none;stroke:#EAEAEA;stroke-width:5;stroke-miterlimit:10;}
	.st36{fill:#8C8C8C;stroke:#8C8C8C;stroke-width:10;stroke-miterlimit:10;}
	.st37{fill:none;stroke:#CECECE;stroke-width:2;stroke-miterlimit:10;}
	.st38{fill:none;stroke:#FFFFFF;stroke-width:4;stroke-miterlimit:10;}
	.st39{fill-rule:evenodd;clip-rule:evenodd;fill:#8C8C8C;}
	.st40{fill:#8C8C8C;stroke:#8C8C8C;stroke-width:8;stroke-miterlimit:10;}
	.st41{fill:#8C8C8C;stroke:#8C8C8C;stroke-width:7;stroke-miterlimit:10;}
	.st42{fill:#DBDBDB;stroke:#8C8C8C;stroke-width:7;stroke-miterlimit:10;}
	.st43{fill:none;stroke:#8C8C8C;stroke-width:5;stroke-miterlimit:10;}
	.st44{fill:none;stroke:#8C8C8C;stroke-width:3;stroke-miterlimit:10;}
	.st45{clip-path:url(#SVGID_2_);fill:#8C8C8C;}
	.st46{clip-path:url(#SVGID_2_);fill:none;stroke:#8C8C8C;stroke-width:8;stroke-miterlimit:10;}
	.st47{clip-path:url(#SVGID_2_);fill:#FFFFFF;}
	.st48{clip-path:url(#SVGID_2_);fill:#EAEAEA;}
	.st49{clip-path:url(#SVGID_2_);fill:none;stroke:#8C8C8C;stroke-miterlimit:10;}
	.st50{fill:none;stroke:#FFFFFF;stroke-width:0.75;stroke-miterlimit:10;}
	.st51{fill:none;stroke:#8C8C8C;stroke-width:14;stroke-miterlimit:10;}
	.st52{fill:none;stroke:#EAEAEA;stroke-width:2;stroke-miterlimit:10;}
	.st53{fill:none;stroke:#8C8C8C;stroke-width:2;stroke-miterlimit:10;}
</style>
<rect class="st0" width="500" height="500"/>
<path class="st1" d="M326.4,107.5h-19.1c-13.9,0-26.9-7.9-34.9-21.2c-15.1-25-44.2-40-74-38.2c-42.2,2.6-75.4,39.7-75.4,82.4v104
	c0,2.7,2.2,5,5,5h9.9v47.6c0,8.2,6.7,14.9,14.9,14.9h74.9c2.7,0,5-2.2,5-5c0-2.4-5.2-4.4-5-5c0.1-0.1,0.3-0.1,0.3-0.1
	c0,0.2-81,2.2-81,5c0,1.6,24.1,3.2,81,5c39.7,0,79.5,0,119.2,0c8.2,0,14.9-6.7,14.9-14.9v-47.6h9.9c2.7,0,5-2.2,5-5v-77.4
	C377,129.8,353.9,107.5,326.4,107.5z M132.9,229.6v-9.9h234.2v9.9H132.9z M290.7,147.2v62.5H255v-62.5H290.7z M245,209.7h-35.7
	v-62.5H245V209.7z M367.1,209.7h-66.5v-67.5c0-2.7-2.2-5-5-5h-91.3c-2.7,0-5,2.2-5,5v67.5h-66.5v-79.2c0-37.7,29.6-70.3,66.1-72.5
	c26.1-1.6,51.6,11.5,64.9,33.4c9.8,16.3,26.1,26,43.4,26h19.1c22.1,0,40.7,18.2,40.7,39.7V209.7z"/>
<polygon class="st0" points="213.6,293.2 213.8,277.4 214.1,277.5 219.9,277.5 219.9,269.2 220,257.2 220.1,255.1 225.9,255.2 
	225.8,257.2 225.7,269.2 225.6,277.6 231.7,277.6 231.6,293.3 214,293.2 "/>
<polygon class="st0" points="149,254.5 162.4,254.6 162.4,257.4 162.2,269.5 162.2,277 167.7,277 167.6,292.7 148.6,292.6 
	148.8,269.5 149,257.5 "/>
<polygon class="st0" points="170.7,277 176.8,277.1 176.8,269.4 176.9,257.4 177,254.7 184.4,254.8 184.4,257.3 184.3,269.4 
	184.2,277.2 189.7,277.2 189.5,292.9 170.5,292.8 "/>
<polygon class="st0" points="205.4,257.2 205.3,269.3 205.3,277.4 211.3,277.4 211.2,293.2 192.5,293 192.7,277.2 198.8,277.3 
	198.9,269.3 199,257.3 199,254.9 205.5,255 "/>
<polygon class="st0" points="353.3,255.5 353.3,257 353.2,269.1 353,293.6 335,293.4 334,293.4 334.1,277.6 335.2,277.7 
	340.2,277.7 340.3,269.1 340.4,257.1 340.4,255.3 "/>
<polygon class="st0" points="234.6,293.2 234.8,277.4 235.1,277.5 240.9,277.5 240.9,269.2 241,257.2 241.1,255.1 246.9,255.2 
	246.8,257.2 246.7,269.2 246.6,277.6 252.7,277.6 252.6,293.3 235,293.2 "/>
<polygon class="st0" points="275.6,293.2 275.8,277.4 276.1,277.5 281.9,277.5 281.9,269.2 282,257.2 282.1,255.1 287.9,255.2 
	287.8,257.2 287.7,269.2 287.6,277.6 293.7,277.6 293.6,293.3 276,293.2 "/>
<polygon class="st0" points="267.4,257.2 267.3,269.3 267.3,277.4 273.3,277.4 273.2,293.2 254.5,293 254.7,277.2 260.8,277.3 
	260.9,269.3 261,257.3 261,254.9 267.5,255 "/>
<polygon class="st0" points="295.6,293.2 295.8,277.4 296.1,277.5 301.9,277.5 301.9,269.2 302,257.2 302.1,255.1 307.9,255.2 
	307.8,257.2 307.7,269.2 307.6,277.6 313.7,277.6 313.6,293.3 296,293.2 "/>
<polygon class="st0" points="314.6,293.2 314.8,277.4 315.1,277.5 320.9,277.5 320.9,269.2 321,257.2 321.1,255.1 326.9,255.2 
	326.8,257.2 326.7,269.2 326.6,277.6 332.7,277.6 332.6,293.3 315,293.2 "/>
<g>
	<rect x="1" y="362" class="st24" width="500" height="144"/>
	<text transform="matrix(1 0 0 1 191.0605 400.5557)" class="st23 st33 st34">Piano</text>
</g>
</svg>
