<?xml version="1.0" encoding="utf-8"?>
<!-- Generator: Adobe Illustrator 22.1.0, SVG Export Plug-In . SVG Version: 6.00 Build 0)  -->
<svg version="1.1" id="Calque_1" xmlns="http://www.w3.org/2000/svg" x="0px" y="0px"
     viewBox="0 0 500 500" style="enable-background:new 0 0 500 500;" xml:space="preserve">
<style type="text/css">
	.st0{fill:#EAEAEA;}
	.st1{fill:#8C8C8C;}
	.st2{fill:#FFFFFF;}
	.st3{fill:#EAEAEA;stroke:#8C8C8C;stroke-width:7;stroke-miterlimit:10;}
	.st4{fill:#070707;}
	.st5{fill:none;stroke:#8C8C8C;stroke-width:7;stroke-miterlimit:10;}
	.st6{fill:none;stroke:#8C8C8C;stroke-width:10;stroke-miterlimit:10;}
	.st7{fill:#8C8C8C;stroke:#8C8C8C;stroke-width:3;stroke-miterlimit:10;}
	.st8{fill:none;stroke:#8C8C8C;stroke-width:8;stroke-miterlimit:10;}
	.st9{fill:none;stroke:#8E8E8E;stroke-width:6;stroke-miterlimit:10;}
	.st10{fill:#8E8E8E;}
	.st11{fill:#505050;}
	.st12{fill:none;stroke:#8E8E8E;stroke-width:2;stroke-miterlimit:10;}
	.st13{fill:#8C8C8C;stroke:#8C8C8C;stroke-width:2;stroke-miterlimit:10;}
	.st14{fill:#8C8C8C;stroke:#FFFFFF;stroke-width:2;stroke-miterlimit:10;}
	.st15{fill:none;stroke:#FFFFFF;stroke-width:2;stroke-miterlimit:10;}
	.st16{fill:none;stroke:#8C8C8C;stroke-miterlimit:10;}
	.st17{fill:none;stroke:#8C8C8C;stroke-width:13;stroke-miterlimit:10;}
	.st18{fill:#EAEAEA;stroke:#8C8C8C;stroke-width:8;stroke-miterlimit:10;}
	.st19{fill:none;stroke:#8C8C8C;stroke-width:4;stroke-miterlimit:10;}
	.st20{fill:#8C8C8C;stroke:#8C8C8C;stroke-width:0.75;stroke-miterlimit:10;}
	.st21{fill:none;stroke:#8C8C8C;stroke-width:9;stroke-miterlimit:10;}
	.st22{fill:#8C8C8C;stroke:#8C8C8C;stroke-width:0.5;stroke-miterlimit:10;}
	.st23{fill:#6B6B6B;}
	.st24{fill:none;}
	.st25{stroke:#8C8C8C;stroke-width:8;stroke-miterlimit:10;}
	.st26{fill:#8C8C8C;stroke:#8C8C8C;stroke-miterlimit:10;}
	.st27{fill:none;stroke:#8C8C8C;stroke-width:11;stroke-miterlimit:10;}
	.st28{fill:none;stroke:#8C8C8C;stroke-width:6;stroke-miterlimit:10;}
	.st29{stroke:#8C8C8C;stroke-width:6;stroke-miterlimit:10;}
	.st30{fill:#8C8C8C;stroke:#8C8C8C;stroke-width:4;stroke-miterlimit:10;}
	.st31{fill:#8C8C8C;stroke:#8C8C8C;stroke-width:1.05;stroke-miterlimit:10;}
	.st32{fill:#D6D6D6;}
	.st33{fill:none;stroke:#EAEAEA;stroke-width:5;stroke-miterlimit:10;}
	.st34{fill:#8C8C8C;stroke:#8C8C8C;stroke-width:10;stroke-miterlimit:10;}
	.st35{fill:none;stroke:#CECECE;stroke-width:2;stroke-miterlimit:10;}
	.st36{fill:none;stroke:#FFFFFF;stroke-width:4;stroke-miterlimit:10;}
	.st37{fill-rule:evenodd;clip-rule:evenodd;fill:#8C8C8C;}
	.st38{fill:#8C8C8C;stroke:#8C8C8C;stroke-width:8;stroke-miterlimit:10;}
	.st39{fill:#8C8C8C;stroke:#8C8C8C;stroke-width:7;stroke-miterlimit:10;}
	.st40{fill:#DBDBDB;stroke:#8C8C8C;stroke-width:7;stroke-miterlimit:10;}
	.st41{fill:none;stroke:#8C8C8C;stroke-width:5;stroke-miterlimit:10;}
	.st42{fill:none;stroke:#8C8C8C;stroke-width:3;stroke-miterlimit:10;}
	.st43{font-family:'HelveticaNeue-CondensedBold';}
	.st44{font-size:54px;}
	.st45{clip-path:url(#SVGID_2_);fill:#8C8C8C;}
	.st46{clip-path:url(#SVGID_2_);fill:none;stroke:#8C8C8C;stroke-width:8;stroke-miterlimit:10;}
	.st47{clip-path:url(#SVGID_2_);fill:#FFFFFF;}
	.st48{clip-path:url(#SVGID_2_);fill:#EAEAEA;}
	.st49{clip-path:url(#SVGID_2_);fill:none;stroke:#8C8C8C;stroke-miterlimit:10;}
	.st50{fill:none;stroke:#FFFFFF;stroke-width:0.75;stroke-miterlimit:10;}
	.st51{fill:none;stroke:#8C8C8C;stroke-width:14;stroke-miterlimit:10;}
	.st52{fill:none;stroke:#EAEAEA;stroke-width:2;stroke-miterlimit:10;}
	.st53{fill:none;stroke:#8C8C8C;stroke-width:2;stroke-miterlimit:10;}
</style>
<rect y="2" class="st0" width="500" height="500"/>
<g>
	<rect x="-2" y="368" class="st24" width="500" height="144"/>
	<text transform="matrix(1 0 0 1 93.1572 406.5557)" class="st23 st43 st44">Pile de montre</text>
</g>
<g>
	<g id="clock_2_">
		<circle class="st1" cx="192.6" cy="154.7" r="5.8"/>
		<circle class="st1" cx="192.6" cy="224.7" r="5.8"/>
		<circle class="st1" cx="157.6" cy="189.7" r="5.8"/>
		<circle class="st1" cx="227.6" cy="189.7" r="5.8"/>
		<circle class="st1" cx="167.9" cy="214.4" r="5.8"/>
		<circle class="st1" cx="167.9" cy="165" r="5.8"/>
		<circle class="st1" cx="217.4" cy="214.4" r="5.8"/>
		<path class="st1" d="M250.9,178c-0.4,0-0.8,0.2-1.1,0.2c-2-10.2-6.8-19.3-13.4-26.8l-8.4-45.5c-1-5.5-5.8-9.5-11.5-9.5h-46.6
			c-5.6,0-10.4,4-11.5,9.5l-8.2,44c-9.8,10.4-16,24.3-16,39.7c0,15.1,5.9,28.6,15.3,38.9l8.2,44.8c1,5.5,5.8,9.5,11.5,9.5h46.6
			c5.6,0,10.4-4,11.5-9.5l8.3-44.8c6.9-7.6,12-17,14.1-27.5c0.4,0.1,0.7,0.2,1.1,0.2c6.4,0,11.7-5.2,11.7-11.7
			C262.6,183.3,257.4,178,250.9,178z M169.9,108.1h46.6l5.8,31.4c-8.6-5-18.5-8.1-29.2-8.1c-10.7,0-20.5,3.1-29.2,8.1L169.9,108.1z
			 M215.9,271.3h-46.6l-5.8-31.4c8.6,5,18.5,8.1,29.2,8.1c10.7,0,20.5-3.1,29.2-8.1L215.9,271.3z M192.6,236.4
			c-25.7,0-46.6-20.9-46.6-46.6c0-25.7,20.9-46.6,46.6-46.6s46.6,20.9,46.6,46.6C239.3,215.4,218.3,236.4,192.6,236.4z"/>
		<line class="st41" x1="193.2" y1="188" x2="193.2" y2="154.7"/>
		<line class="st41" x1="170.9" y1="212.5" x2="193.2" y2="186.8"/>
		<circle class="st1" cx="217.4" cy="165" r="5.8"/>
	</g>
</g>
<circle class="st1" cx="349.2" cy="216.2" r="51.8"/>
<circle class="st52" cx="348.8" cy="214.8" r="36.2"/>
</svg>
