<?xml version="1.0" encoding="utf-8"?>
<!-- Generator: Adobe Illustrator 22.1.0, SVG Export Plug-In . SVG Version: 6.00 Build 0)  -->
<svg version="1.1" id="Calque_1" xmlns="http://www.w3.org/2000/svg" xmlns:xlink="http://www.w3.org/1999/xlink" x="0px" y="0px"
	 viewBox="0 0 500 500" style="enable-background:new 0 0 500 500;" xml:space="preserve">
<style type="text/css">
	.st0{fill:#EAEAEA;}
	.st1{fill:#8C8C8C;}
	.st2{fill:#FFFFFF;}
	.st3{fill:#EAEAEA;stroke:#8C8C8C;stroke-width:7;stroke-miterlimit:10;}
	.st4{fill:#070707;}
	.st5{fill:none;stroke:#8C8C8C;stroke-width:7;stroke-miterlimit:10;}
	.st6{fill:none;stroke:#8C8C8C;stroke-width:10;stroke-miterlimit:10;}
	.st7{fill:#8C8C8C;stroke:#8C8C8C;stroke-width:3;stroke-miterlimit:10;}
	.st8{fill:none;stroke:#8C8C8C;stroke-width:8;stroke-miterlimit:10;}
	.st9{fill:none;stroke:#8E8E8E;stroke-width:6;stroke-miterlimit:10;}
	.st10{fill:#8E8E8E;}
	.st11{fill:#505050;}
	.st12{fill:none;stroke:#8E8E8E;stroke-width:2;stroke-miterlimit:10;}
	.st13{fill:#8C8C8C;stroke:#8C8C8C;stroke-width:2;stroke-miterlimit:10;}
	.st14{fill:#8C8C8C;stroke:#FFFFFF;stroke-width:2;stroke-miterlimit:10;}
	.st15{fill:none;stroke:#FFFFFF;stroke-width:2;stroke-miterlimit:10;}
	.st16{fill:none;stroke:#8C8C8C;stroke-miterlimit:10;}
	.st17{fill:none;stroke:#8C8C8C;stroke-width:13;stroke-miterlimit:10;}
	.st18{fill:#EAEAEA;stroke:#8C8C8C;stroke-width:8;stroke-miterlimit:10;}
	.st19{fill:none;stroke:#8C8C8C;stroke-width:4;stroke-miterlimit:10;}
	.st20{fill:#8C8C8C;stroke:#8C8C8C;stroke-width:0.75;stroke-miterlimit:10;}
	.st21{fill:none;stroke:#8C8C8C;stroke-width:9;stroke-miterlimit:10;}
	.st22{fill:#8C8C8C;stroke:#8C8C8C;stroke-width:0.5;stroke-miterlimit:10;}
	.st23{fill:#6B6B6B;}
	.st24{fill:none;}
	.st25{font-family:'HelveticaNeue-CondensedBold';}
	.st26{font-size:54px;}
	.st27{stroke:#8C8C8C;stroke-width:8;stroke-miterlimit:10;}
	.st28{fill:#8C8C8C;stroke:#8C8C8C;stroke-miterlimit:10;}
	.st29{fill:none;stroke:#8C8C8C;stroke-width:11;stroke-miterlimit:10;}
	.st30{fill:none;stroke:#8C8C8C;stroke-width:6;stroke-miterlimit:10;}
	.st31{stroke:#8C8C8C;stroke-width:6;stroke-miterlimit:10;}
	.st32{fill:#8C8C8C;stroke:#8C8C8C;stroke-width:4;stroke-miterlimit:10;}
	.st33{fill:#8C8C8C;stroke:#8C8C8C;stroke-width:1.05;stroke-miterlimit:10;}
	.st34{fill:#D6D6D6;}
	.st35{fill:none;stroke:#EAEAEA;stroke-width:5;stroke-miterlimit:10;}
	.st36{fill:#8C8C8C;stroke:#8C8C8C;stroke-width:10;stroke-miterlimit:10;}
	.st37{fill:none;stroke:#CECECE;stroke-width:2;stroke-miterlimit:10;}
	.st38{fill:none;stroke:#FFFFFF;stroke-width:4;stroke-miterlimit:10;}
	.st39{fill-rule:evenodd;clip-rule:evenodd;fill:#8C8C8C;}
	.st40{fill:#8C8C8C;stroke:#8C8C8C;stroke-width:8;stroke-miterlimit:10;}
	.st41{fill:#8C8C8C;stroke:#8C8C8C;stroke-width:7;stroke-miterlimit:10;}
	.st42{fill:#DBDBDB;stroke:#8C8C8C;stroke-width:7;stroke-miterlimit:10;}
	.st43{fill:none;stroke:#8C8C8C;stroke-width:5;stroke-miterlimit:10;}
	.st44{fill:none;stroke:#8C8C8C;stroke-width:3;stroke-miterlimit:10;}
	.st45{clip-path:url(#SVGID_2_);fill:#8C8C8C;}
	.st46{clip-path:url(#SVGID_2_);fill:none;stroke:#8C8C8C;stroke-width:8;stroke-miterlimit:10;}
	.st47{clip-path:url(#SVGID_2_);fill:#FFFFFF;}
	.st48{clip-path:url(#SVGID_2_);fill:#EAEAEA;}
	.st49{clip-path:url(#SVGID_2_);fill:none;stroke:#8C8C8C;stroke-miterlimit:10;}
	.st50{fill:none;stroke:#FFFFFF;stroke-width:0.75;stroke-miterlimit:10;}
	.st51{fill:none;stroke:#8C8C8C;stroke-width:14;stroke-miterlimit:10;}
	.st52{fill:none;stroke:#EAEAEA;stroke-width:2;stroke-miterlimit:10;}
	.st53{fill:none;stroke:#8C8C8C;stroke-width:2;stroke-miterlimit:10;}
</style>
<rect class="st0" width="500" height="500"/>
<g id="uuJ75H.tif">
	<g>
		<path class="st1" d="M189.4,85.4c2.3,3,5.2,4.4,2.6,0.7c2.6,3.7,7.4,2.4,2.6,0.7c4.8,1.7,5.8,3,2.6,0.7c3.2,2.3,5,4.4,2.6,0.8
			c2.4,3.6,5.5,4.5,3,1.1c2.5,3.4,5.5,3.4,2.9,1.4c2.6,2.1,5.5,3.4,2.8,1.5c2.8,1.9,6.4,4.6,2.7,1.7c3.8,2.9,5.1,3.9,2.6,1.9
			c2.5,2,2.5,2,2.5,2s0,0,1.7,1.8c-1.7-1.8-1.7-1.8,0.5,1.9c-2.2-3.7-1.5-1.8-0.5,2.5c-1.2-3.5-0.7,2.1-1,3.1
			c-2.4,7.2-4.7,14.5-7.3,21.6c-2.4,6.6-3.7,13.3-4.3,20.2c-0.7,7.8-1.7,15.6-2.5,23.4c-0.1,1.2-0.2,2.3-0.2,3.5
			c0,43.6,0,87.1,0,130.7c0,5.3-1.2,10.1-5.3,13.7c-4.9,4.3-10.7,5.4-16.7,2.9c-6.4-2.6-9.5-7.8-9.9-14.6c-0.1-0.9,0-1.7,0-2.6
			c0-40.5-0.1-81.1,0.1-121.6c0-10.2-1.1-20.2-2.2-30.2c-0.5-4.8-1.1-9.6-1.7-14.4c-0.1-1.1-0.4-2.3-0.7-3.4c-2.5-7.5-5-15-7.5-22.4
			c-0.4-1.1-0.7-2.1-1.1-3.2c-1-2.8-2.2-6.5-1.1-3.2c-1.1-3.3-0.7-6.5-1.1-3.2c0.4-3.4,1.6-6.6-0.5-2.5c2.1-4.1,2.3-4.3,0.5-2.1
			c1.8-2.2,4.3-4.3,1.6-2c2.8-2.3,7-5.6,2.6-2.3c4.4-3.3,6.8-4.7,2.7-2.1c4-2.6,6.3-3.8,2.8-1.9c3.5-1.9,5.3-2.6,2.9-1.7
			c2.4-1,5.6-1,3.1-1.4c2.5,0.5,6-0.2,3.2-1.2c2.9,0.9,7.2-1.7,3.3-0.9c3.9-0.8,5.4,0.1,3.5-0.6c1.9,0.7,2.2,0.8,0.6-0.3
			c1.6,1.2,7.3,0.1,2.5,0c4.8,0.1,5.7,1.3,2.5,0C190.2,86.7,191.7,88.4,189.4,85.4z M178.7,193c0,0.9,0,1.5,0,2.2
			c0,37.3,0,74.7,0,112c0,0.9,0,1.9,0.2,2.8c1.1,5.1,6.3,7.8,11,5.7c3.5-1.6,4.7-4.6,4.7-8.3c0-37.3,0-74.7,0-112
			c0-0.7-0.1-1.5-0.1-2.3C189.2,193,184.1,193,178.7,193z M175.3,141.3c1,9.4,2.1,18.5,3.1,27.6c5.7,0,11.1,0,16.7,0
			c1-9.2,2.1-18.4,3.1-27.6C190.5,141.3,183.1,141.3,175.3,141.3z M194.5,177.2c-5.4,0-10.6,0-15.7,0c0,2.7,0,5.1,0,7.6
			c5.3,0,10.4,0,15.7,0C194.5,182.2,194.5,179.7,194.5,177.2z"/>
		<path class="st1" d="M318.6,287.2c0,9.1,0,18.1,0,27.2c0,3.3-2.5,4.8-8,4.8c-5,0-10,0-15,0c-4.1,0-6.9-1.6-6.9-4.1
			c0-10,0-20.1,0-30.1c-0.3,0-0.5,0-0.8,0c-2,0-3.9,0.1-5.9,0.2c0,2.3,0,4.5,0,6.8c0,0.8,0,1.7,0,2.5c0,6.7,0,13.5,0,20.2
			c0,5,5.4,8.5,13.3,8.6c5.5,0.1,11,0.1,16.6,0c4.5,0,8.1-1.2,10.8-3.4c2-1.7,2.5-3.6,2.5-5.6c0-8.8,0.1-17.6,0-26.4
			C323.1,287.7,320.9,287.5,318.6,287.2z"/>
		<path class="st1" d="M279.6,255.9c0.7,1.4,1.3,2.8,1.7,4.3c0.4,1.3,0.8,2.6,0.8,4c0,8.4,0,16.8,0,25.2c2.2-0.2,4.5-0.4,6.7-0.5
			c0-3.2,0-6.5,0-9.7c0-0.3,0.1-0.5,0.1-0.9h29.7c0,0.8,0.1,1.5,0.1,2.2c0,4.1,0,8.1,0,12.2c2.2,0.4,4.5,0.7,6.7,1.1
			c0-7-0.1-14-0.1-21c-0.1-7.2,0.8-13.9,4-20.3c1.3-2.7,2.3-5.7,2.9-8.6c1.2-5.5,2-11.1,2.8-16.7c0.3-2,0.1-4.1-0.4-6.1
			c-0.9-3.8-3.4-6.7-6.2-9.2c-6.8-6.2-15-10-23.5-13c-0.8-0.3-1.9-0.2-2.6,0.1c-6.3,2.7-12.7,5.3-18.8,8.5
			c-7.5,3.9-12.6,10.6-10.9,20.6C274.2,237.2,275.1,247,279.6,255.9z M318.5,271.3h-29.5v-6.4h29.5V271.3z M323.7,248.2
			c-1.2,3.1-2.4,6.1-3.7,9.1c-0.2,0.4-1,0.8-1.5,0.8c-9.9,0-19.7,0-29.6,0c-0.5,0-1.4-0.5-1.6-1c-1.2-2.8-2.4-5.7-3.6-8.9H323.7z"/>
		<path class="st1" d="M226.6,251.3c0-14.9-0.3-29.7,0.1-44.6c0.3-11.7-1.3-23.1-2.9-34.5c-1.7-11.5-3.2-23.1-4.9-34.6
			c-0.1-0.8-0.1-1.5-0.1-2.2c0.1-0.7,1.2-2.2,0.5-2c1.2-1.2,4.6-5.2,1.2-1.9c3.5-3.4,3.7-4.5,1.7-2.1c2-2.4,4.5-5.2,1.7-2.1
			c2.8-3.1,4-4,1.8-2.1c2.3-1.9,5.1-2.2,1.9-1.9c3.2-0.3,7.3-1.5,3-2.3c4.4,0.8,6.9-0.1,3.1-1.8c3.8,1.7,7.5,1.1,3.2-1.2
			c4.3,2.3,7,2.3,3.2-0.6c3.8,3,6,3.5,3.2,0c2.8,3.5,5,4.5,3.2,0.5c1.8,4,4.5,5.9,3.2,1.1c1.3,4.8,4.9,5.9,3.2,1.7
			c1.7,4.2,2.6,7,3.2,2.3c-0.5,4.7,0.6,6.2,2,1.7c-1.3,4.5,0.1,6.5,1.9,1.9c-1.8,4.7-0.9,6.3,1.8,2c-2.7,4.3-2.2,5,1.7,2
			c-3.9,3-2.2,3.3,1.7,2c-3.6,1.6-2,3.5,0.9,2.1c-2.7,2-3.3,3.4,0.1,2.4c-3.4,1.4-3.4,1.8-0.5,3.4c-3-1.2-1.1,1.3-0.5,3.4
			c-0.9-0.3-0.3,2.3-0.5,3.4c-2,14.9-4.1,29.8-6.2,44.6c-0.2,1.1-0.1,2.3-0.1,3.5c0,37.2,0,74.3,0,111.5c0,7.1-2.7,12.5-9.2,15.8
			c-9.7,4.9-21.8-2-22.6-12.9c-0.1-1.2-0.1-2.5-0.1-3.7C226.6,287.9,226.6,269.6,226.6,251.3z M234.5,212.9c0,1,0,1.7,0,2.5
			c0,30.5,0,61,0,91.4c0,0.8,0,1.6,0.1,2.3c0.4,4.9,5.1,8.2,9.9,6.9c4-1.1,6-4.1,6-9.1c0-30.6,0-61.1,0-91.7c0-0.8-0.1-1.5-0.1-2.4
			C245.1,212.9,240,212.9,234.5,212.9z M253.9,165.2c-7.8,0-15.2,0-22.8,0c1,8,2,15.8,3,23.6c5.8,0,11.2,0,16.8,0
			C251.9,180.9,252.9,173.2,253.9,165.2z M234.7,204.7c5.4,0,10.6,0,15.7,0c0-2.7,0-5.1,0-7.6c-5.3,0-10.5,0-15.7,0
			C234.7,199.7,234.7,202.2,234.7,204.7z"/>
	</g>
</g>
<g>
	<rect x="-13" y="366" class="st24" width="520" height="158"/>
	<text transform="matrix(1 0 0 1 122.0728 404.5557)"><tspan x="0" y="0" class="st23 st25 st26">Pinceaux et </tspan><tspan x="-8.5" y="64.8" class="st23 st25 st26">applicateurs</tspan></text>
</g>
</svg>
