<?xml version="1.0" encoding="utf-8"?>
<!-- Generator: Adobe Illustrator 22.1.0, SVG Export Plug-In . SVG Version: 6.00 Build 0)  -->
<svg version="1.1" id="Calque_1" xmlns="http://www.w3.org/2000/svg" xmlns:xlink="http://www.w3.org/1999/xlink" x="0px" y="0px"
	 viewBox="0 0 500 500" style="enable-background:new 0 0 500 500;" xml:space="preserve">
<style type="text/css">
	.st0{fill:#4FBDD7;}
	.st1{fill:#EAEAEA;}
	.st2{fill:none;}
	.st3{fill:#FFFFFF;}
	.st4{font-family:'HelveticaNeue-CondensedBold';}
	.st5{font-size:54px;}
	.st6{fill:#4FBDD7;stroke:#FFFFFF;stroke-width:5;stroke-miterlimit:10;}
	.st7{fill:#8C8C8C;}
	.st8{fill:#070707;}
	.st9{fill:none;stroke:#FFFFFF;stroke-width:7;stroke-miterlimit:10;}
	.st10{fill:none;stroke:#FFFFFF;stroke-width:10;stroke-miterlimit:10;}
	.st11{fill:#FFFFFF;stroke:#FFFFFF;stroke-width:3;stroke-miterlimit:10;}
	.st12{fill:none;stroke:#FDFFFF;stroke-width:6;stroke-miterlimit:10;}
	.st13{fill:#FAFEFF;}
	.st14{fill:none;stroke:#FFFFFF;stroke-width:2;stroke-miterlimit:10;}
	.st15{fill:#FFFFFF;stroke:#FFFFFF;stroke-width:2;stroke-miterlimit:10;}
	.st16{fill:#4FBDD7;stroke:#FFFFFF;stroke-width:4;stroke-miterlimit:10;}
	.st17{fill:#FFFFFF;stroke:#FFFFFF;stroke-width:4;stroke-miterlimit:10;}
	.st18{fill:none;stroke:#FFFFFF;stroke-miterlimit:10;}
	.st19{fill:#FFFFFF;stroke:#FFFFFF;stroke-width:13;stroke-miterlimit:10;}
	.st20{fill:#4FBDD7;stroke:#FFFFFF;stroke-width:8;stroke-miterlimit:10;}
	.st21{fill:#FFFFFF;stroke:#FFFFFF;stroke-width:0.75;stroke-miterlimit:10;}
	.st22{fill:#FFFFFF;stroke:#FFFFFF;stroke-width:0.5;stroke-miterlimit:10;}
	.st23{fill:#FFFFFF;stroke:#FFFFFF;stroke-width:8;stroke-miterlimit:10;}
	.st24{fill:#FFFFFF;stroke:#FFFFFF;stroke-miterlimit:10;}
	.st25{fill:#FFFFFF;stroke:#FFFFFF;stroke-width:11;stroke-miterlimit:10;}
	.st26{fill:#FFFFFF;stroke:#FFFFFF;stroke-width:6;stroke-miterlimit:10;}
	.st27{fill:#8C8C8C;stroke:#8C8C8C;stroke-width:4;stroke-miterlimit:10;}
	.st28{fill:#FFFFFF;stroke:#FFFFFF;stroke-width:1.05;stroke-miterlimit:10;}
	.st29{fill:none;stroke:#4FBDD7;stroke-width:5;stroke-miterlimit:10;}
	.st30{fill:none;stroke:#FFFFFF;stroke-width:4;stroke-miterlimit:10;}
	.st31{fill:#8C8C8C;stroke:#FFFFFF;stroke-width:4;stroke-miterlimit:10;}
	.st32{fill:#FFFFFF;stroke:#FFFFFF;stroke-width:10;stroke-miterlimit:10;}
	.st33{fill:none;stroke:#4FBDD7;stroke-width:2;stroke-miterlimit:10;}
	.st34{fill-rule:evenodd;clip-rule:evenodd;fill:#FFFFFF;}
	.st35{fill:#FFFFFF;stroke:#FFFFFF;stroke-width:7;stroke-miterlimit:10;}
	.st36{fill:#FFFFFF;stroke:#4FBDD7;stroke-width:7;stroke-miterlimit:10;}
	.st37{fill:#FCFCFC;}
	.st38{fill:#FFFFFF;stroke:#FFFFFF;stroke-width:5;stroke-miterlimit:10;}
	.st39{fill:none;stroke:#FFFFFF;stroke-width:3;stroke-miterlimit:10;}
	.st40{fill:none;stroke:#FFFFFF;stroke-width:8;stroke-miterlimit:10;}
	.st41{fill:none;stroke:#FFFFFF;stroke-width:6;stroke-miterlimit:10;}
	.st42{fill:#FFFFFF;stroke:#4FBDD7;stroke-width:3;stroke-miterlimit:10;}
	.st43{fill:none;stroke:#FFFFFF;stroke-width:0.75;stroke-miterlimit:10;}
	.st44{fill:#4FBDD7;stroke:#FFFFFF;stroke-width:9;stroke-miterlimit:10;}
	.st45{fill:none;stroke:#FFFFFF;stroke-width:9;stroke-miterlimit:10;}
	.st46{fill:none;stroke:#4FBDD7;stroke-width:3;stroke-miterlimit:10;}
</style>
<rect x="-4" y="-1" class="st0" width="505" height="505"/>
<g>
	<rect x="1" y="360" class="st2" width="500" height="144"/>
	<text transform="matrix(1 0 0 1 153.0449 398.5557)" class="st3 st4 st5">Pinceaux</text>
</g>
<g>
	<path class="st3" d="M310.1,139c-0.3,0.5-0.6,1.1-0.9,1.6c-14.6,25.2-53.2,4.2-40-21.7c0.3-0.6,0.6-1.1,0.9-1.6
		c4.3-7.9,10-14.6,16.7-19.9c8-6.3,17.2-10.7,27-12.8C320.4,101.7,319.6,121.5,310.1,139"/>
	<path class="st6" d="M310.1,139c-0.3,0.5-0.6,1.1-0.9,1.6c-14.6,25.2-53.2,4.2-40-21.7c0.3-0.6,0.6-1.1,0.9-1.6
		c4.3-7.9,10-14.6,16.7-19.9c8-6.3,17.2-10.7,27-12.8C320.4,101.7,319.6,121.5,310.1,139z"/>
	<path class="st7" d="M309.4,139.2c-2.4-0.5-9.1-2.4-14.6-8.7c-4.2-4.8-5.6-9.9-6.1-12.4c-2.3-2-5.4-3.9-9.2-4.1
		c-5.4-0.3-9.2,3.2-9.8,2.5c-0.6-0.7,2.5-5,16.2-19c8-6.3,17.2-10.7,27-12.8C319.7,101.9,318.9,121.7,309.4,139.2"/>
	<path class="st3" d="M309.4,139.2c-2.4-0.5-9.1-2.4-14.6-8.7c-4.2-4.8-5.6-9.9-6.1-12.4c-2.3-2-5.4-3.9-9.2-4.1
		c-5.4-0.3-9.2,3.2-9.8,2.5c-0.6-0.7,2.5-5,16.2-19c8-6.3,17.2-10.7,27-12.8C319.7,101.9,318.9,121.7,309.4,139.2z"/>
	<path class="st8" d="M297.7,152.2l-37,63L197,323.3c-3.8-2.6-7.5-5.3-11-8.2c-2.2-1.8-4.3-3.7-6.4-5.7L234,200.7l32.7-65.3
		L297.7,152.2z"/>
	<path class="st3" d="M297.7,152.2l-37,63L197,323.3c-3.8-2.6-7.5-5.3-11-8.2c-2.2-1.8-4.3-3.7-6.4-5.7L234,200.7l32.7-65.3
		L297.7,152.2z"/>
	<polygon class="st3" points="298.9,150 260.6,215.2 234,200.7 267.9,133.1 	"/>
	<polygon class="st6" points="298.9,150 260.6,215.2 234,200.7 267.9,133.1 	"/>
	<path class="st7" d="M250.5,120.4l-1,8.2l-7.8,62.6l-9.1,72.9c-5.1,6.5-10.7,12.4-16.8,17.8c-3,2.6-6,5.1-9.2,7.4l5.6-100.8l4-71.2
		L250.5,120.4z"/>
	<path class="st3" d="M250.5,120.4l-1,8.2l-7.8,62.6l-9.1,72.9c-5.1,6.5-10.7,12.4-16.8,17.8c-3,2.6-6,5.1-9.2,7.4l5.6-100.8l4-71.2
		L250.5,120.4z"/>
	<polygon class="st3" points="250.9,120.7 242.1,191.5 212.7,188.8 216.6,117.6 	"/>
	<polygon class="st6" points="250.9,120.7 242.1,191.5 212.7,188.8 216.6,117.6 	"/>
	<polygon class="st3" points="272.2,67 261.5,94.2 250.9,120.7 216.6,117.6 208.3,76.1 208.3,76.1 205.3,61 	"/>
	<polygon class="st6" points="272.2,67 261.5,94.2 250.9,120.7 216.6,117.6 208.3,76.1 208.3,76.1 205.3,61 	"/>
	<path class="st8" d="M272.2,67l-10.8,27.1c0.8-9.1-1-12.2-3-13.2c-6.3-3.4-24.6,8.7-30.9,10.9c-0.4,0.1-0.8,0.2-0.8,0.2
		c-11,3-16.7-7.3-18.4-16l0,0l-3-15.1L272.2,67z"/>
	<path class="st3" d="M272.2,67l-10.7,27.2c0.7-9.1-1.1-12.2-3-13.2c-6.3-3.4-24.6,8.8-30.9,10.9c-0.4,0.1-0.8,0.2-0.8,0.2
		c-11,3.1-16.7-7.3-18.4-16l0,0l-3-15.1L272.2,67z"/>
</g>
</svg>
