<?xml version="1.0" encoding="utf-8"?>
<!-- Generator: Adobe Illustrator 22.1.0, SVG Export Plug-In . SVG Version: 6.00 Build 0)  -->
<svg version="1.1" id="Calque_1" xmlns="http://www.w3.org/2000/svg" x="0px" y="0px"
     viewBox="0 0 500 500" style="enable-background:new 0 0 500 500;" xml:space="preserve">
<style type="text/css">
	.st0{fill:#4FBDD7;}
	.st1{fill:#EAEAEA;}
	.st2{fill:#FFFFFF;}
	.st3{fill:#4FBDD7;stroke:#FFFFFF;stroke-width:5;stroke-miterlimit:10;}
	.st4{fill:#8C8C8C;}
	.st5{fill:#070707;}
	.st6{fill:none;stroke:#FFFFFF;stroke-width:7;stroke-miterlimit:10;}
	.st7{fill:none;stroke:#FFFFFF;stroke-width:10;stroke-miterlimit:10;}
	.st8{fill:#FFFFFF;stroke:#FFFFFF;stroke-width:3;stroke-miterlimit:10;}
	.st9{fill:none;stroke:#FDFFFF;stroke-width:6;stroke-miterlimit:10;}
	.st10{fill:#FAFEFF;}
	.st11{fill:none;stroke:#FFFFFF;stroke-width:2;stroke-miterlimit:10;}
	.st12{fill:#FFFFFF;stroke:#FFFFFF;stroke-width:2;stroke-miterlimit:10;}
	.st13{fill:#4FBDD7;stroke:#FFFFFF;stroke-width:4;stroke-miterlimit:10;}
	.st14{fill:#FFFFFF;stroke:#FFFFFF;stroke-width:4;stroke-miterlimit:10;}
	.st15{fill:none;stroke:#FFFFFF;stroke-miterlimit:10;}
	.st16{fill:#FFFFFF;stroke:#FFFFFF;stroke-width:13;stroke-miterlimit:10;}
	.st17{fill:#4FBDD7;stroke:#FFFFFF;stroke-width:8;stroke-miterlimit:10;}
	.st18{fill:#FFFFFF;stroke:#FFFFFF;stroke-width:0.75;stroke-miterlimit:10;}
	.st19{fill:#FFFFFF;stroke:#FFFFFF;stroke-width:0.5;stroke-miterlimit:10;}
	.st20{fill:#FFFFFF;stroke:#FFFFFF;stroke-width:8;stroke-miterlimit:10;}
	.st21{fill:#FFFFFF;stroke:#FFFFFF;stroke-miterlimit:10;}
	.st22{fill:#FFFFFF;stroke:#FFFFFF;stroke-width:11;stroke-miterlimit:10;}
	.st23{fill:#FFFFFF;stroke:#FFFFFF;stroke-width:6;stroke-miterlimit:10;}
	.st24{fill:#8C8C8C;stroke:#8C8C8C;stroke-width:4;stroke-miterlimit:10;}
	.st25{fill:#FFFFFF;stroke:#FFFFFF;stroke-width:1.05;stroke-miterlimit:10;}
	.st26{fill:none;stroke:#4FBDD7;stroke-width:5;stroke-miterlimit:10;}
	.st27{fill:none;stroke:#FFFFFF;stroke-width:4;stroke-miterlimit:10;}
	.st28{fill:#8C8C8C;stroke:#FFFFFF;stroke-width:4;stroke-miterlimit:10;}
	.st29{fill:#FFFFFF;stroke:#FFFFFF;stroke-width:10;stroke-miterlimit:10;}
	.st30{fill:none;stroke:#4FBDD7;stroke-width:2;stroke-miterlimit:10;}
	.st31{fill-rule:evenodd;clip-rule:evenodd;fill:#FFFFFF;}
	.st32{fill:#FFFFFF;stroke:#FFFFFF;stroke-width:7;stroke-miterlimit:10;}
	.st33{fill:#FFFFFF;stroke:#4FBDD7;stroke-width:7;stroke-miterlimit:10;}
	.st34{fill:#FCFCFC;}
	.st35{fill:#FFFFFF;stroke:#FFFFFF;stroke-width:5;stroke-miterlimit:10;}
	.st36{fill:none;}
	.st37{font-family:'HelveticaNeue-CondensedBold';}
	.st38{font-size:54px;}
	.st39{fill:none;stroke:#FFFFFF;stroke-width:3;stroke-miterlimit:10;}
	.st40{fill:none;stroke:#FFFFFF;stroke-width:8;stroke-miterlimit:10;}
	.st41{fill:none;stroke:#FFFFFF;stroke-width:6;stroke-miterlimit:10;}
	.st42{fill:#FFFFFF;stroke:#4FBDD7;stroke-width:3;stroke-miterlimit:10;}
	.st43{fill:none;stroke:#FFFFFF;stroke-width:0.75;stroke-miterlimit:10;}
	.st44{fill:#4FBDD7;stroke:#FFFFFF;stroke-width:9;stroke-miterlimit:10;}
	.st45{fill:none;stroke:#FFFFFF;stroke-width:9;stroke-miterlimit:10;}
	.st46{fill:none;stroke:#4FBDD7;stroke-width:3;stroke-miterlimit:10;}
</style>
<rect x="-1" class="st0" width="505" height="500"/>
<g>
	<rect x="-4" y="367" class="st36" width="500" height="144"/>
	<text transform="matrix(1 0 0 1 100.6069 405.5557)" class="st2 st37 st38">Pince à béton</text>
</g>
<g id="uZUny9_1_">
	<g>
		<path class="st2" d="M194.8,224.1c-0.5,0.4-0.9,0.9-1.4,1.1c-2.1,1.2-4.3,2.2-6.3,3.4c-2.5,1.6-2.6,3.9-0.4,6
			c3.4-1.7,6.8-3.5,10.2-5.2c1.7-0.9,3.5-1.8,5.1-2.9c0.4-0.3,0.8-1.1,0.7-1.5c-0.7-3.6-0.5-4,3.2-4.6c0.5-0.1,1-0.1,1.8-0.1
			c-1,1.5-1.9,2.7-2.7,4c0.1,0.1,0.1,0.1,0.2,0.2c3.6-2.6,7.2-5.1,10.9-7.7c1.1-0.8,2.2-1.6,3.3-2.4c1.1-0.7,1.2-1.4,0.6-2.4
			c-0.5-0.7-0.8-1.5-1.3-2.4c-0.5,0.2-1,0.4-1.5,0.7c-0.1-0.1-0.1-0.3-0.2-0.4c1.9-0.8,3.7-1.7,5.8-2.7c-1.4-2-2.8-3.9-4-6
			c-2.7-4.5-5.5-9.1-8-13.7c-1.4-2.6-0.6-4,1.4-6.2c2-2.2,3.9-2.1,6.1-0.7c0.8,0.5,1.4,0.3,1.9-0.4c1.3-1.9,2.6-3.8,2.8-6.3
			c0.2-1.9,0.8-3.8,1.2-5.7c0.6-2.3,2.4-3.5,4.4-4.7c1.1,1.4,2.2,2.7,3.3,4c1.3-1.8,0.5-3.2,0-4.8c-0.2-0.8,0.2-1.8,0.5-3.1
			c-0.6-0.3-1.5-0.7-2.4-1.1c0-0.1,0-0.3,0.1-0.4c1.8,0.2,3.7,0.5,5.6,0.7c-0.3,1.5,0.3,2,1.6,1.8c0.5-0.1,1.2,0.1,1.7,0.4
			c1.8,1.1,2.3,1,3.7-1.3c-2.2,0-4.1,0-6.1,0c0-0.2,0-0.5,0-0.7c1.2,0.1,2.5,0.2,3.7,0.2c0.9,0,2.2,0.6,2.7-1c0.1-0.2,1-0.2,1.5-0.2
			c1.8,0.1,3.6,0,5.4,0.4c1.3,0.2,2.5,0.9,3.7,1.6c3.8,2,7.6,4.1,11.5,6.1c3.1,1.7,6.2,3.3,9.3,5c1.1,0.6,2,1.4,3.1,2
			c1.8,0.9,3.6,1.6,5.4,2.5c0.4,0.2,1,1.1,0.8,1.4c-1.1,3.1-1.9,6.1-5.1,8.1c-3.9,2.4-7.3,5.5-10.9,8.2c-0.2,0.2-0.3,0.4-0.5,0.6
			c0.1,0.1,0.2,0.3,0.3,0.4c5.6-3.9,11.3-7.9,17.1-11.9c-1.2-1-1.1-2.1-0.5-3.1c0.9-1.4,1.8-2.5,3.9-1.9c3,0.8,6.1,1.1,9.2,0.5
			c0.2,0,0.4-0.3,1-0.6c-0.8-0.3-1.4-0.5-1.9-0.8c-2-1.1-4.1-2.3-6.1-3.5c-0.2-0.1-0.2-0.4-0.3-0.5c-0.9-0.5-1.8-1-2.7-1.3
			c-0.8-0.3-1.6-0.4-2.4-0.6c0.3-1.8,1.1-2.7,2.5-3.5c1.7-0.9,3-2.5,4.7-3.2c4.2-1.8,8.6-2.4,12.6,0.7c2.2,1.7,3,4.4,3.9,6.9
			c-0.3-0.2-0.6-0.3-1.3-0.8c0.3,0.9,0.4,1.6,0.8,1.9c1.2,1.1,1.4,2,0.4,3.3c-0.7,0.9-1.5,1.7-2.2,2.6c1.3,0.7,1.4,1.2,0.2,2.2
			c-0.6,0.5-1.3,1-1.9,1.5c-1.5,1.2-1.5,1.4,0,3.1c1.1-1.4,2.3-2.8,3.4-4.3c0.1,0.1,0.3,0.2,0.4,0.3c-0.8,1.4-1.5,2.9-2.4,4.2
			c-0.6,0.8-0.5,1.4,0,2.3c2.5,4.1,4.8,8.3,7.1,12.5c-0.1,0.1-0.2,0.1-0.4,0.2c-2.5-4.4-5.1-8.7-7.9-13.6c-1.4,2.2-2.4,3.9-3.6,5.5
			c-1.3,1.9-2.6,3.8-4.2,5.4c-2,2.2-2.3,4.3-0.7,6.8c0.6,1,0.9,2.1,1.4,3.2c0.2,0,0.3,0,0.5,0c0.5-1.2,0.9-2.3,1.4-3.5
			c0.2,2.6-2.5,4.9-0.7,7.8c-0.4-0.3-0.8-0.5-1.3-0.9c-3,7.7-5.7,15.4-6.9,23.5c0.1-1.2,0.2-2.5,0.4-3.7c0.2-1.2,0.4-2.5,0.8-3.7
			c1.6-5.1,3.3-10.2,4.9-15.4c0.2-0.7,0.2-1.5,0.2-2.2c0-1-0.5-1.1-1.4-1c-0.8,0.1-1.6,0-2.3-0.3c-3.4-1.6-6.7-3.4-10.1-5
			c-0.6-0.3-1.4-0.2-2.1-0.3c-0.5,0-1,0.1-1.5-0.1c-3.6-1-6.6-0.5-8.8,2.6c2.3,1.6,4.1,3.5,4.6,6.6c0.2,1.5,1.3,2.9,1.8,4.4
			c1.4,3.7,2.7,7.5,4,11.3c0.6,1.7,0.3,4,2.6,4.1c-0.6,2.4-1.2,4.7-1.8,7.1c-0.3-0.2-0.7-0.5-0.9-0.8c-1.9-2.5-3.9-5-5.8-7.5
			c-0.6-0.8-1.1-1-2-0.5c-2.2,1-4.4,0.4-6.6,0c-3.1-0.5-5.3-0.5-8.2,0.5c0.5,0.8,0.9,1.4,1.3,2.2c1.7,3.3,3.5,6.6,5.1,10
			c0.9,1.9,0.3,3.7-1.2,5.2c-1.8,1.7-3.6,2.2-5.6,0.7c-2.6-1.9-5.1-3.9-7.2-6.3c-4.5-5-8.6-10.2-12.9-15.3c-0.3-0.4-0.6-0.7-1.1-1.3
			c-0.4,0.6-0.7,1-0.9,1.4c-0.5,0.8-1,1.2-2.1,1.4c-1.4,0.3-2.6,1.3-3.9,2.1c-0.6,0.4-1.1,0.9-1.8,0c-0.7-0.9-0.2-1.4,0.5-1.8
			c2.2-1,3.5-2.9,4.6-4.9c0.2-0.4,0.3-0.8,0.2-1.4c-2,2.5-4.8,3.8-7.4,5.2c-0.1-0.2-0.3-0.3-0.4-0.5c0.4-0.4,0.8-0.7,1.1-1.1
			c0.2-0.3,0.3-0.7,0.4-1.1c-0.4,0-0.9-0.2-1.2-0.1c-1.7,0.9-1.9,0.8-2.8-1.3c2.2-1.7,4.3-3.4,6.8-5.3c-0.2-0.3-0.4-0.9-0.8-1.3
			c-0.2-0.1-1,0.3-1.4,0.7c-0.7,0.7-1.4,1.5-2.1,2.2c-0.3,0.3-0.7,0.6-1.1,0.7c-1,0.3-2,0.4-3.4,0.7c-0.3-0.3-0.8-1-1.3-1.7
			c1-0.8,1.8-1.5,3-2.5c-1.9-0.2-2.7,2.5-4.2,1.1c0.2,1.2,0.4,2.5,0.7,3.8c-0.2,0.1-0.4,0.1-0.6,0.2c-0.3-0.3-0.5-0.6-0.8-0.9
			c-0.4-0.3-0.7-0.7-1.1-1c-0.2,0.4-0.4,0.9-0.7,1.3c-0.3-0.1-0.7-0.3-1.4-0.7c0.2,0.7,0.3,1.1,0.4,2c-0.7-0.7-1.2-1.1-1.7-1.6
			c-2.4,0.2-2.3,2.1-2.5,3.4c0.8,0.8,1.6,1.6,2.4,2.3c-0.5,0.7-0.8,1.2-1.3,1.9c0.8,0.3,1.6,0.5,2.3,0.9c0.7,0.4,1.7,1,1.7,1.5
			c-0.1,1.3,0.4,1.7,1.5,2c0.1,0,0,0.3,0.1,0.6c-0.5-0.2-0.9-0.3-1.6-0.6c0.1,0.6,0.1,1.1,0.1,1.7c-0.4-0.1-0.9-0.2-1.5-0.4
			c0.5,1.7-0.7,2.2-1.7,2.9c-1.9,1.3-3.7,2.5-5.8,4c0-0.1-0.3-0.5-0.4-1c0-0.7,0-1-1-1.1c-0.8-0.1-1.6-1.3-2.3-1.9
			c2.1-1.4,3.8-2.5,5.7-3.7c-0.1-0.4-0.2-0.8-0.3-1.2c-0.3-1.2-1.2-1.5-2.2-0.7c-0.6,0.5-1,1.2-1.6,1.7c-0.9,0.7-1.9,1.2-2.9,1.7
			c-0.2,0.1-0.8-0.3-1-0.6c-1-1.1-1.9-2.3-2.8-3.4c-0.4-0.5-0.6-1.1-0.9-1.7c-0.3,0.2-0.7,0.4-1,0.6c1.3,1.3,2.5,2.4,0.3,3.7
			c-1.6,0.9-2.1-0.4-2.9-1.1c-2,0.7-2.2,1.4-0.6,3c-1.3,1-2.6,2-3.9,3.1c-0.1,0,0,0.3,0.1,0.7c1.6-1.1,3-2,4.5-3.1
			c0.2,0.1,0.4,0.4,0.7,0.6c2.2,2.6,2.2,2.6-0.4,4.9c-1-0.8-2.2-1-2.8,0.3c-0.5,1.2,0.6,1.8,1.5,2c0.5,0.1,1.1-0.6,1.5-1.2
			c0.9-0.4,1.7-0.9,2.6-1.2c0.4-0.1,1.1-0.1,1.4,0.2c1.2,1.3,2.3,2.7,3.6,4.4c-1.6,1-3,1.9-4.4,2.8c-0.2-1.1-0.1-2.3-0.4-2.4
			c-0.7-0.2-1.5,0.1-2.7,0.2c0.6,0.8,0.9,1.3,1.3,1.7c0.5,0.5,1,1.1,1.7,1.5c0.6,0.3,1.4,0.7,2,0.5c0.9-0.2,1.7-0.9,2.6-1.4
			c1.6-1,1.7-1,2.9,1c-1.3,1-2.6,2.1-3.6,2.9c0.4,1.3,1,2.5,1,3.7c0,2.2-1.9,3.6-3.9,2.8c-2.8-1.2-4.9-0.5-7,1.5
			c-0.8,0.8-1.6,1.4-3,0.8c-0.5-0.2-1.5,0.8-2.3,1.2c-0.7,0.4-1.5,0.7-2.2,1.2c-0.4,0.3-0.7,0.7-1.2,1.3c-0.5-0.3-1.1-0.7-1.7-1.1
			c-1.6-1.4-2.9-1.5-4.6-0.4c-1,0.6-2.1,1-3,1.6c-4.3,2.7-8.6,5.5-12.8,8.3c-3.5,2.2-6.6,4.8-9.3,8c-0.8,0.9-1.8,1-2.8,0.5
			c-0.9-0.4-1.5-0.2-2.2,0.3c-4.2,3.2-8.4,6.4-12.6,9.5c-0.2,0.2-0.4,0.4-0.7,0.5c-3.6,0.6-5.3,3.8-7.7,5.8
			c-1.1,0.9-2.1,1.9-3.1,2.8c0-3.8,0-7.6,0-11.4c1.6-1.4,3.6-2.4,4.1-4.8c0.2-0.8,1.2-1.5,2-2.1c3.8-3,7.7-6.1,11.5-9
			c0.8-0.6,1.1-1.2,1.2-2.3c0-0.9,0.6-2.2,1.3-2.5c5.2-2.1,9.6-5.4,13.9-8.7c4.1-3.1,7.8-6.6,11.6-9.9c1.5-1.3,0.7-2.9,0.4-4.3
			c-0.4-2.1,0.5-3.8,2.7-4.2c2.3-0.4,2.4-0.8,2.5-3c0-1,0.6-2,1.2-2.8c0.4-0.6,1.3-1,2-1.4c1.3-0.8,2.2-1.7,2.4-3.4
			c0.2-2,2.1-2.9,4.1-2.2c1.2,0.5,1.8,0.1,2.8-0.6c2.3-1.6,4.8-2.8,7.3-4.2C193.5,224.8,194.1,224.4,194.8,224.1
			C194.8,224.1,194.8,224.1,194.8,224.1z M265.7,206.4c0.2-0.7,0.4-1.4,0.7-2.4c0,0-0.2-0.3-0.4-0.6c-5-7-11.3-12.6-17.7-18.1
			c-1.9-1.6-4.4-1.8-6.8-0.4c3.9,5.5,7.7,11.1,11.6,16.5c0.9,1.2,0.7,1.8-0.4,2.5c-2.1,1.4-4.1,2.9-6.2,4.3c0.1,0.1,0.2,0.2,0.2,0.4
			c2.6-1.7,5.1-3.4,7.8-5.1c0.3,0.5,0.6,0.9,0.9,1.4c-2.2,1.6-4.2,3.2-6.3,4.7c2.2-1,4.1-2.3,6.1-3.5c0.3-0.2,1.2-0.2,1.4,0.1
			c1.1,1.1,2.1,2.4,3,3.6c4,5.6,8.1,11.1,11.9,16.9c1.8,2.8,5.7,3.8,8.9,2.8c-2.4-6.3-5-12.5-8.6-18.2c-0.9-1.4-1.6-3.1-3.7-3.2
			c-0.2,0-0.5-0.3-0.6-0.3c0.4-0.2,0.8-0.4,1.3-0.6c-0.4-0.5-0.6-1.2-1.1-1.4C267,205.4,266.4,206,265.7,206.4z M285.2,191.4
			c-1.6-1.6-2-3.1-1.1-3.6c1.6-0.9,2.1-2.3,2-4.2c-1,0.2-2.2,0.1-3,0.7c-4.1,2.8-8.2,5.8-12.1,8.8c-1.4,1.1-2.3,2.7-3.4,4
			c0.1,0.1,0.1,0.1,0.2,0.2c3.3-2.2,6.7-4.4,10-6.6c0,0.1,0.1,0.1,0.1,0.2c-0.5,0.5-1.1,1-1.6,1.5c0.1,0.1,0.1,0.2,0.2,0.2
			c1.4-0.7,2.7-1.5,4.2-2.2c1,2.9,0.9,3.1-1.2,4.6c-0.8,0.6-1.7,1.2-2.5,1.9c0.1,0.1,0.2,0.3,0.3,0.4
			C279.8,195.3,282.5,193.4,285.2,191.4z M186.1,249.8c-1.9-2.8-3.5-5.3-5.2-7.8c-1.4,1.1-2.8,2-4.1,3.1c-0.3,0.2-0.5,0.9-0.4,1.2
			c1.5,2.4,3,4.7,4.6,7.2C182.9,252.1,184.5,251,186.1,249.8z M295,196.4c0.1,0.1,0.2,0.2,0.3,0.3c0.5-0.6,1.1-1.2,1.5-1.8
			c1.9-2.5,3.8-5,5.8-7.4c0.9-1.1,0.8-1.8,0.1-2.9c-0.6-1-1.4-0.7-1.8-0.1c-0.7,0.9-3.2,1.1-1.9,2.7c1.2,1.6,1,2.6-0.2,3.9
			c-0.6,0.7-1.1,1.4-1.7,2.2C296.4,194.4,295.7,195.4,295,196.4z M190.6,256.2c-1.2,0.5-2.7,0.6-3.3,1.5c-0.5,0.6,0.2,2.1,0.3,2.9
			c1-0.1,1.6-0.2,2-0.1c1,0.3,3.5-0.1,3.3-0.7c-0.2-0.8-1-1.5-1.5-2.2c-0.1-0.2-0.3-0.3-0.5-0.4c0.6-1.9,0.4-2.2-1.1-1.9
			C190.1,255.6,190.3,255.9,190.6,256.2z M177.1,242.5c0.4-0.2,1.8-0.6,1.8-1c-0.1-1.3-0.6-2.6-1-3.8c-3.3,1.2-3.6,1.6-3.2,3.6
			C175.6,241.7,176.1,242,177.1,242.5z M204.5,227.2c1.2,0.7,2.4,1.3,4,2.2c0-1.5,0-2.6,0-3.9c-0.1-0.2-0.1-1.1-0.4-1.1
			C206.7,224,204.8,225.6,204.5,227.2z M249.7,212.7c1.4,0.2,3-0.6,3.7-2.1c0.1-0.2,0.1-0.7-0.1-0.8c-0.2-0.1-0.7-0.2-0.9,0
			c-1.9,1.3-3.7,2.6-5.6,3.9c-0.2,0.1-0.2,0.7-0.1,0.9c0.1,0.2,0.7,0.3,0.9,0.2C248.3,214.2,248.8,213.5,249.7,212.7z M305.7,175.4
			c-0.9,1-2,1.7-2,2.4c0.1,1.6-0.9,2.3-1.8,3.1c-0.2,0.2-0.3,0.5-0.6,0.8C303.4,181.6,306.1,178,305.7,175.4z M294.4,166.5
			c-0.1-0.2-0.2-0.3-0.3-0.5c-0.9,0.5-1.8,0.9-2.6,1.5c-0.2,0.2-0.1,0.8-0.2,1.3c0.4-0.1,0.9,0,1.2-0.2
			C293.3,167.9,293.8,167.2,294.4,166.5z M305.1,171.4c0.2,1,0.3,1.8,0.6,2.5c0.1,0.2,0.5,0.4,0.7,0.5c0.1,0,0.4-0.2,0.4-0.4
			C307.5,173,306.8,171.6,305.1,171.4z M228.7,223.7c1,0.2,3.1-0.9,3.2-1.6c0-0.3-0.1-0.7-0.3-0.9c-0.2-0.2-0.7-0.2-0.8-0.1
			C230.1,222,229.5,222.8,228.7,223.7z M270.4,202c1.2-0.8,2.1-1.5,3.3-2.3C271.1,199.7,270.3,200.2,270.4,202z M205.7,229.6
			c-0.1-0.2-0.3-0.4-0.4-0.7c-1.1,0.7-2.1,1.5-3.2,2.2c0.1,0.2,0.2,0.3,0.3,0.5C203.6,230.9,204.6,230.3,205.7,229.6z M211.6,237
			c-0.7-0.3-1.1-0.7-1.3-0.6c-0.4,0.2-0.8,0.6-1,1c-0.1,0.1,0.5,0.7,0.6,0.7C210.3,238,210.6,237.7,211.6,237z M292.3,186.4
			c0,0.3,0.1,0.6,0.1,0.9c1-0.2,1.9-0.4,2.9-0.6c0-0.2-0.1-0.4-0.1-0.6C294.2,186.2,293.2,186.3,292.3,186.4z"/>
	</g>
</g>
<path class="st2" d="M353.4,160.4c-2.1,6.6-7.7,10.7-9.7,12.2c-2.3,1.7-6.2,4.5-11.7,4.9c-2.5,0.2-6.5-0.1-13.4-4.2
	c-3.2-1.9-20.3-12.2-24.5-32.3c-0.9-4.5-2-9.9,0.7-15.3c2-4.1,5-6.2,10.4-10.1c5.4-3.8,9.1-6.5,13.1-5.5c3,0.7,4.4,3,6.9,6.2
	c0.3,0.3,2.6,3.2,5.6,6.4c4.6-5.3,8.8-11.3,14.9-14.8c-0.3-0.7-0.6-1.4-0.9-2c-3.1-6.1-7.8-9.6-10.8-11.4c-19.6-8.8-41.5-7-57.1,4.9
	c-20.9,15.9-20.2,42.2-20.1,46.8c1,36.5,36.1,71.1,69.5,69.5c18.4-0.9,31.3-12.5,33.1-14.2c17.4-16.1,17.7-38.1,17.6-42.3
	C369.1,159.2,361.2,159.2,353.4,160.4z"/>
<path class="st39" d="M354,157.7c6.9-1,13.8-1.1,20.8-1.2c-0.9-1.1-1.8-2.5-2.7-4.1c-1.7-3-1.8-4.6-2.6-6.2
	c-3.2-6.5-14.8-10-17.9-6.9C348.6,142.3,355.3,148.7,354,157.7z"/>
<path class="st39" d="M332.5,124.4c4,4,8.7,7.7,11.5,6.7c3.8-1.3,5.4-11.6,2.5-21C340.8,113.6,336.9,119.4,332.5,124.4z"/>
</svg>
