<?xml version="1.0" encoding="utf-8"?>
<!-- Generator: Adobe Illustrator 22.1.0, SVG Export Plug-In . SVG Version: 6.00 Build 0)  -->
<svg version="1.1" id="Calque_1" xmlns="http://www.w3.org/2000/svg" xmlns:xlink="http://www.w3.org/1999/xlink" x="0px" y="0px"
	 viewBox="0 0 500 500" style="enable-background:new 0 0 500 500;" xml:space="preserve">
<style type="text/css">
	.st0{fill:#4FBDD7;}
	.st1{fill:#EAEAEA;}
	.st2{fill:#FFFFFF;}
	.st3{fill:#4FBDD7;stroke:#FFFFFF;stroke-width:5;stroke-miterlimit:10;}
	.st4{fill:#8C8C8C;}
	.st5{fill:#070707;}
	.st6{fill:none;stroke:#FFFFFF;stroke-width:7;stroke-miterlimit:10;}
	.st7{fill:none;stroke:#FFFFFF;stroke-width:10;stroke-miterlimit:10;}
	.st8{fill:#FFFFFF;stroke:#FFFFFF;stroke-width:3;stroke-miterlimit:10;}
	.st9{fill:none;stroke:#FDFFFF;stroke-width:6;stroke-miterlimit:10;}
	.st10{fill:#FAFEFF;}
	.st11{fill:none;stroke:#FFFFFF;stroke-width:2;stroke-miterlimit:10;}
	.st12{fill:#FFFFFF;stroke:#FFFFFF;stroke-width:2;stroke-miterlimit:10;}
	.st13{fill:#4FBDD7;stroke:#FFFFFF;stroke-width:4;stroke-miterlimit:10;}
	.st14{fill:#FFFFFF;stroke:#FFFFFF;stroke-width:4;stroke-miterlimit:10;}
	.st15{fill:none;stroke:#FFFFFF;stroke-miterlimit:10;}
	.st16{fill:#FFFFFF;stroke:#FFFFFF;stroke-width:13;stroke-miterlimit:10;}
	.st17{fill:#4FBDD7;stroke:#FFFFFF;stroke-width:8;stroke-miterlimit:10;}
	.st18{fill:#FFFFFF;stroke:#FFFFFF;stroke-width:0.75;stroke-miterlimit:10;}
	.st19{fill:#FFFFFF;stroke:#FFFFFF;stroke-width:0.5;stroke-miterlimit:10;}
	.st20{fill:#FFFFFF;stroke:#FFFFFF;stroke-width:8;stroke-miterlimit:10;}
	.st21{fill:#FFFFFF;stroke:#FFFFFF;stroke-miterlimit:10;}
	.st22{fill:#FFFFFF;stroke:#FFFFFF;stroke-width:11;stroke-miterlimit:10;}
	.st23{fill:#FFFFFF;stroke:#FFFFFF;stroke-width:6;stroke-miterlimit:10;}
	.st24{fill:#8C8C8C;stroke:#8C8C8C;stroke-width:4;stroke-miterlimit:10;}
	.st25{fill:#FFFFFF;stroke:#FFFFFF;stroke-width:1.05;stroke-miterlimit:10;}
	.st26{fill:none;stroke:#4FBDD7;stroke-width:5;stroke-miterlimit:10;}
	.st27{fill:none;stroke:#FFFFFF;stroke-width:4;stroke-miterlimit:10;}
	.st28{fill:#8C8C8C;stroke:#FFFFFF;stroke-width:4;stroke-miterlimit:10;}
	.st29{fill:#FFFFFF;stroke:#FFFFFF;stroke-width:10;stroke-miterlimit:10;}
	.st30{fill:none;stroke:#4FBDD7;stroke-width:2;stroke-miterlimit:10;}
	.st31{fill-rule:evenodd;clip-rule:evenodd;fill:#FFFFFF;}
	.st32{fill:#FFFFFF;stroke:#FFFFFF;stroke-width:7;stroke-miterlimit:10;}
	.st33{fill:#FFFFFF;stroke:#4FBDD7;stroke-width:7;stroke-miterlimit:10;}
	.st34{fill:#FCFCFC;}
	.st35{fill:#FFFFFF;stroke:#FFFFFF;stroke-width:5;stroke-miterlimit:10;}
	.st36{fill:none;stroke:#FFFFFF;stroke-width:3;stroke-miterlimit:10;}
	.st37{fill:none;stroke:#FFFFFF;stroke-width:8;stroke-miterlimit:10;}
	.st38{fill:none;stroke:#FFFFFF;stroke-width:6;stroke-miterlimit:10;}
	.st39{fill:#FFFFFF;stroke:#4FBDD7;stroke-width:3;stroke-miterlimit:10;}
	.st40{fill:none;stroke:#FFFFFF;stroke-width:0.75;stroke-miterlimit:10;}
	.st41{fill:#4FBDD7;stroke:#FFFFFF;stroke-width:9;stroke-miterlimit:10;}
	.st42{fill:none;stroke:#FFFFFF;stroke-width:9;stroke-miterlimit:10;}
	.st43{fill:none;stroke:#4FBDD7;stroke-width:3;stroke-miterlimit:10;}
	.st44{fill:none;}
	.st45{font-family:'HelveticaNeue-CondensedBold';}
	.st46{font-size:54px;}
	.st47{fill:none;stroke:#FFFFFF;stroke-width:5;stroke-miterlimit:10;}
</style>
<rect class="st0" width="500" height="500"/>
<g>
	<rect x="3" y="363" class="st44" width="500" height="144"/>
	<text transform="matrix(1 0 0 1 194.0054 401.5557)" class="st2 st45 st46">Pince</text>
</g>
<g id="jNoiH8.tif">
	<g>
		<path class="st2" d="M267,141c0.5,1.3,1,2.5,1.6,4.2c0.3-1.1,0.6-1.7,0.8-2.4c0.2-0.7,0.4-1.4,0.5-2.2c1.2-8.1,4.7-15.1,9.8-21.3
			c0.6-0.7,1.1-1.4,1.8-2c11.9-10.7,23.9-21.4,35.8-32c0.3-0.2,0.6-0.5,1.2-1c14.6-7.7,21.2-6.7,24.5-4.2
			c14.5,10.5-10.1,62.7-13.8,70.5c-3.2,6.8-7.7,12.4-11.5,14.9c-3.6,2.4-7.1,5-10.5,7.9c1.6-0.1,3.3-0.1,4.9-0.2
			c1.3-0.1,1.9,0.3,2.1,1.6c0.9,5,1.8,10,2.8,15c0.2,1.3-0.3,1.9-1.2,2.5c-5.3,3.6-10.7,7.2-15.9,10.9c-0.8,0.6-1.5,1.9-1.5,2.9
			c0.9,41.8-15.9,75-48.6,100.5c-10.1,7.9-21,14.3-32.6,19.7c-5.9,2.8-11.9,0.7-14.8-5.1c-2-3.9-4-7.9-5.9-11.8
			c-2.8-5.6-1-11.1,4.3-14.6c8.3-5.5,16.9-10.8,24.8-17c17-13.5,30-30.1,36.7-51.1c2.4-7.5,3.8-15.2,3.9-23.2c0-1.3-0.3-1.8-1.4-2.3
			c-2.2-1.1-4.3-2.4-6.2-4c-1.3-1.1-2.3-0.9-3.6-0.4c-12.5,5.5-23,13.6-31.8,24c-12.8,15.1-20.5,32.8-25.2,51.9
			c-1.4,5.5-2.3,11.1-3.3,16.7c-1.4,7.5-5.7,10.8-13.3,10.1c-3.9-0.4-7.9-0.7-11.8-1.2c-7-0.8-10.8-5.4-10.3-12.4
			c1.5-21.7,6.4-42.6,16.6-62c13.3-25.3,33.3-43.2,59.6-54.1c2.1-0.9,4.3-1.8,6.5-2.5c1.5-0.4,2-1.3,2.3-2.6
			c1.4-6.1,2.9-12.2,4.2-18.4c0.3-1.5,0.9-2.1,2.4-2.4C256.1,143.1,261.5,142,267,141z M205.6,306.6c0.1,0,0.3,0,0.4,0
			c0.4-0.2,0.8-0.4,1.2-0.6c18.2-10.3,34.1-23.2,47.2-39.6c6.3-8,11.5-16.6,15.7-25.9c2.7-6.1,7.7-8.5,14.1-7.2
			c0.9,0.2,1.7,0.3,2.7,0.5c0.3-1.2,0.5-2.1,0.6-3.1c1.7-9.5,2.2-19,1.6-28.6c-0.1-1.6,0.2-2.7,1.7-3.7c4.7-3,9.2-6.2,13.7-9.3
			c3.1-2.1,3.2-2.6,1.5-6.3c-5.4,0.3-10.8,0.6-16.2,0.9c-0.1,0.5-0.2,0.8-0.3,1.1c-0.6,8.5-5,14.2-13,17.1c-1.4,0.5-1.3,1.4-1.3,2.4
			c-0.4,4.2-0.5,8.5-1.3,12.7c-3.4,20.2-12.8,37.4-26.3,52.6c-11.9,13.4-26,23.9-41.4,32.8C203.7,303.6,203.7,304.1,205.6,306.6z
			 M181.4,290.1c3.3,0.9,3.7,0.6,4.2-2.4c2.9-19.1,8.3-37.4,17.9-54.3c11.3-20,26.8-35.6,48.1-44.9c1.6-0.7,1.6-1.6,1.5-3
			c-0.7-7.9,3.8-15.2,11.1-18.3c0.5-0.2,1-0.5,1.5-0.8c-1.6-5.1-3.1-10.1-4.6-14.9c-4.4,0.3-4.4,0.3-5.3,4
			c-1.3,5.5-2.6,10.9-3.8,16.4c-0.3,1.3-0.9,2-2.2,2.5c-9.6,3-18.7,7.1-27.3,12.4c-0.7,0.4-1.3,0.9-1.9,1.4c0.4,0.6,0.5,0.9,0.7,1.2
			c4.5,7,4,11.7-1.8,17.8c-3.2,3.4-6.3,6.8-9.1,10.5c-13.5,17.5-21.5,37.4-26.3,58.8C182.9,281,182.2,285.6,181.4,290.1z M329,87
			c-12.5,11-24.9,21.6-36.9,32.6c-3.5,3.2-6.6,7.5-8.1,11.9c-3.2,9.7-5.4,19.8-7.9,29.8c-0.2,0.7-0.1,1.6,0.3,2.1
			c1.2,1.4,2.6,2.7,4.1,4.3c2.5-3.6,5.6-8.1,9.1-13c11.9-17.1,17.8-25.6,19.3-27.7c9.8-13.6,14.5-20.8,24-34.3
			c0.4-0.6,0.8-1.3,1.2-1.8C332.4,89.5,330.7,88.3,329,87z M336.5,93c-0.2,0.1-0.4,0.3-0.6,0.4c-8.5,12.1-16.9,24.2-25.4,36.3
			c-9.3,13.3-18.7,26.7-28,40c1.1,0.5,2.1,0.7,2.9,1.2c2.4,1.5,4.4,1,6.6-0.7c6.8-5,13.7-9.7,20.6-14.4c5.8-3.9,9.5-9.5,12-15.6
			c6.5-15.6,12.6-28.5,15.1-38.9c0.5-2.1,0.9-3.9,1.2-5C339.6,95.3,338.1,94.2,336.5,93z M272.9,193.1c5-0.9,8.3-5.7,7.4-10.6
			c-0.8-4.5-6.2-8.3-10.8-7.4c-5,0.9-8.4,5.8-7.4,10.8C263.1,190.9,267.9,194.1,272.9,193.1z"/>
	</g>
</g>
</svg>
