<?xml version="1.0" encoding="utf-8"?>
<!-- Generator: Adobe Illustrator 22.1.0, SVG Export Plug-In . SVG Version: 6.00 Build 0)  -->
<svg version="1.1" id="Calque_1" xmlns="http://www.w3.org/2000/svg" xmlns:xlink="http://www.w3.org/1999/xlink" x="0px" y="0px"
	 viewBox="0 0 500 500" style="enable-background:new 0 0 500 500;" xml:space="preserve">
<style type="text/css">
	.st0{fill:#EAEAEA;}
	.st1{fill:#8C8C8C;}
	.st2{fill:none;}
	.st3{fill:#6B6B6B;}
	.st4{font-family:'HelveticaNeue-CondensedBold';}
	.st5{font-size:54px;}
	.st6{fill:#FFFFFF;}
	.st7{fill:#EAEAEA;stroke:#8C8C8C;stroke-width:7;stroke-miterlimit:10;}
	.st8{fill:#070707;}
	.st9{fill:none;stroke:#8C8C8C;stroke-width:7;stroke-miterlimit:10;}
	.st10{fill:none;stroke:#8C8C8C;stroke-width:10;stroke-miterlimit:10;}
	.st11{fill:#8C8C8C;stroke:#8C8C8C;stroke-width:3;stroke-miterlimit:10;}
	.st12{fill:none;stroke:#8C8C8C;stroke-width:8;stroke-miterlimit:10;}
	.st13{fill:none;stroke:#8E8E8E;stroke-width:6;stroke-miterlimit:10;}
	.st14{fill:#8E8E8E;}
	.st15{fill:#505050;}
	.st16{fill:none;stroke:#8E8E8E;stroke-width:2;stroke-miterlimit:10;}
	.st17{fill:#8C8C8C;stroke:#8C8C8C;stroke-width:2;stroke-miterlimit:10;}
	.st18{fill:#8C8C8C;stroke:#FFFFFF;stroke-width:2;stroke-miterlimit:10;}
	.st19{fill:none;stroke:#FFFFFF;stroke-width:2;stroke-miterlimit:10;}
	.st20{fill:none;stroke:#8C8C8C;stroke-miterlimit:10;}
	.st21{fill:none;stroke:#8C8C8C;stroke-width:13;stroke-miterlimit:10;}
	.st22{fill:#EAEAEA;stroke:#8C8C8C;stroke-width:8;stroke-miterlimit:10;}
	.st23{fill:none;stroke:#8C8C8C;stroke-width:4;stroke-miterlimit:10;}
	.st24{fill:#8C8C8C;stroke:#8C8C8C;stroke-width:0.75;stroke-miterlimit:10;}
	.st25{fill:none;stroke:#8C8C8C;stroke-width:9;stroke-miterlimit:10;}
	.st26{fill:#8C8C8C;stroke:#8C8C8C;stroke-width:0.5;stroke-miterlimit:10;}
	.st27{stroke:#8C8C8C;stroke-width:8;stroke-miterlimit:10;}
	.st28{fill:#8C8C8C;stroke:#8C8C8C;stroke-miterlimit:10;}
	.st29{fill:none;stroke:#8C8C8C;stroke-width:11;stroke-miterlimit:10;}
	.st30{fill:none;stroke:#8C8C8C;stroke-width:6;stroke-miterlimit:10;}
	.st31{stroke:#8C8C8C;stroke-width:6;stroke-miterlimit:10;}
	.st32{fill:#8C8C8C;stroke:#8C8C8C;stroke-width:4;stroke-miterlimit:10;}
	.st33{fill:#8C8C8C;stroke:#8C8C8C;stroke-width:1.05;stroke-miterlimit:10;}
	.st34{fill:#D6D6D6;}
	.st35{fill:none;stroke:#EAEAEA;stroke-width:5;stroke-miterlimit:10;}
	.st36{fill:#8C8C8C;stroke:#8C8C8C;stroke-width:10;stroke-miterlimit:10;}
	.st37{fill:none;stroke:#CECECE;stroke-width:2;stroke-miterlimit:10;}
	.st38{fill:none;stroke:#FFFFFF;stroke-width:4;stroke-miterlimit:10;}
	.st39{fill-rule:evenodd;clip-rule:evenodd;fill:#8C8C8C;}
	.st40{fill:#8C8C8C;stroke:#8C8C8C;stroke-width:8;stroke-miterlimit:10;}
	.st41{fill:#8C8C8C;stroke:#8C8C8C;stroke-width:7;stroke-miterlimit:10;}
	.st42{fill:#DBDBDB;stroke:#8C8C8C;stroke-width:7;stroke-miterlimit:10;}
	.st43{fill:none;stroke:#8C8C8C;stroke-width:5;stroke-miterlimit:10;}
	.st44{fill:none;stroke:#8C8C8C;stroke-width:3;stroke-miterlimit:10;}
	.st45{clip-path:url(#SVGID_2_);fill:#8C8C8C;}
	.st46{clip-path:url(#SVGID_2_);fill:none;stroke:#8C8C8C;stroke-width:8;stroke-miterlimit:10;}
	.st47{clip-path:url(#SVGID_2_);fill:#FFFFFF;}
	.st48{clip-path:url(#SVGID_2_);fill:#EAEAEA;}
	.st49{clip-path:url(#SVGID_2_);fill:none;stroke:#8C8C8C;stroke-miterlimit:10;}
	.st50{fill:none;stroke:#FFFFFF;stroke-width:0.75;stroke-miterlimit:10;}
	.st51{fill:none;stroke:#8C8C8C;stroke-width:14;stroke-miterlimit:10;}
	.st52{fill:none;stroke:#EAEAEA;stroke-width:2;stroke-miterlimit:10;}
	.st53{fill:none;stroke:#8C8C8C;stroke-width:2;stroke-miterlimit:10;}
</style>
<rect x="-1" y="1" class="st0" width="500" height="500"/>
<g>
	<rect x="-1" y="362" class="st2" width="500" height="144"/>
	<text transform="matrix(1 0 0 1 129.7168 400.5557)" class="st3 st4 st5">Croisillions</text>
</g>
<rect class="st0" width="500" height="500"/>
<g>
	<rect y="361" class="st2" width="500" height="144"/>
	<text transform="matrix(1 0 0 1 138.0869 399.5557)"><tspan x="0" y="0" class="st3 st4 st5">Produits &amp; </tspan><tspan x="-9" y="64.8" class="st3 st4 st5">ingrédients</tspan></text>
</g>
<g>
	<g>
		<path class="st1" d="M386.9,267.7l-0.7-3.7c-0.4-2.4-2.5-4.1-4.9-4.1c-0.3,0-0.6,0-0.9,0.1l-14,2.6l6.3-4.2
			c1.7-1.1,2.5-3.1,2.1-5.1c-0.1-0.5-0.3-1.1-0.6-1.5l-1.9-3.4c-0.7-1.2-1.8-2-3.1-2.4c-0.6-0.2-1.3-0.2-1.9-0.1
			c0.7-3.9,1.1-7.9,1.1-11.9c0-1.8-1.1-3.3-2.6-4c2-4.8,2.2-10.3,0.2-15.3c-0.2-0.4-0.4-0.8-0.7-1.1c-0.3-0.3-0.7-0.5-1.1-0.7
			c-2.4-1-4.9-1.4-7.5-1.4c-0.3,0-0.7,0-1,0c-0.4-7.4-6.5-13.3-13.9-13.3c-1,0-1.9,0.1-2.9,0.3c0.6-3.8,0.3-7.9-1.2-11.6
			c-0.2-0.4-0.4-0.8-0.7-1.1c-0.3-0.3-0.7-0.6-1.1-0.7c-2.6-1-5.3-1.5-8-1.5c-4.2,0-8.1,1.2-11.6,3.3c-1.3-3.6-3.3-7.1-6.2-10
			c-0.8-0.8-2-1.3-3.2-1.3s-2.3,0.5-3.2,1.3l-12.8,12.8c-2.4-2.1-5.5-3.4-8.9-3.4c-0.8,0-1.5,0.1-2.3,0.2c-2.8,0.5-5.3,1.8-7.2,3.8
			c-2.5-1.2-5.4-1.6-8.1-1.1c-0.6,0.1-1.2,0.3-1.8,0.4v-9.9c0-6.8-5.5-12.4-12.2-12.5v-5.6c2.1-0.4,3.7-2.2,3.7-4.3v-12.7
			c0-2.4-2-4.4-4.4-4.4h-21.5c-2.4,0-4.4,2-4.4,4.4v12.7c0,2.2,1.6,4,3.7,4.3v5.6c-6.8,0.1-12.2,5.7-12.2,12.5v77.1
			c-5.3,4.8-8.6,11.4-8.6,18.8c0,14.5,12.7,26.2,28.3,26.2l105.8,0c3.6,0,7-1.6,9.3-4.4c2.2-2.7,3.2-6.2,2.7-9.6l21.1,3.8
			c0.3,0.1,0.6,0.1,0.9,0.1c1.1,0,2.1-0.3,2.9-0.9c1.1-0.8,1.8-2,2-3.3l0.6-3.8c0.1-0.6,0.1-1.1,0-1.6c-0.4-2-1.9-3.5-3.8-4
			l-7.4-1.7l14-2.6c1.3-0.2,2.5-1,3.2-2.1C386.9,270.3,387.2,269,386.9,267.7z M229,145.3h19.7v10.9H229V145.3z M220.4,190.2
			c0-1.8,0-3.5,0-5.3v-5.4c0-4,3.2-7.2,7.2-7.2h22.6c4,0,7.2,3.2,7.2,7.2v5.4c0,1.8,0,3.5,0,5.3v2.3c-3,3-4.6,7.3-3.8,11.8
			c0,0,0,0,0,0c-4.2,2.9-6.5,8.1-5.6,13.3c0.1,0.3,0.1,0.6,0.2,0.9c-1.3,0.7-2.5,1.7-3.5,2.8h-24.1V190.2z M220.4,226.6L220.4,226.6
			h21.1c-0.3,0.9-0.5,1.8-0.6,2.8h-0.4c-2.4,0-4.4,2-4.4,4.4c0,4.2,0.4,8.3,1.1,12.3c-0.8-0.1-1.5-0.1-2.3-0.1
			c-3.2,0-6.2,0.5-8.6,1.4c-3.6,1.4-4.6,3.4-4.8,4.8c-0.4,0.2-0.7,0.4-1.1,0.6V226.6z M253.9,259.1c1,0.8,1.5,1.4,1.9,1.9
			c0,0-0.1,0-0.1,0c-1.5,0-4.2-0.6-7.2-2.3c-1.1-0.6-2.2-1.3-3-2.1c-1-0.8-2.4-0.8-3.4,0c-0.8,0.7-1.9,1.4-3,2.1
			c-3.1,1.7-5.7,2.3-7.2,2.3c0,0-0.1,0-0.1,0c0.3-0.5,0.9-1.1,1.9-1.9c0.8-0.7,1.2-1.8,0.9-2.8c-0.3-1-1.2-1.8-2.2-1.9
			c-2.6-0.3-4.2-1-5-1.4c1-0.6,3.4-1.6,7.7-1.6c3.6,0,6.2,0.8,7.5,1.5c0.8,0.5,1.8,0.5,2.6,0c1.3-0.7,3.9-1.5,7.5-1.5
			c4.4,0,6.8,1,7.7,1.6c-0.8,0.5-2.4,1.1-5,1.4c-1.1,0.1-1.9,0.9-2.2,1.9C252.7,257.3,253,258.4,253.9,259.1z M248.6,291.3l0.1,0.5
			c0.3,1.7,1,3.3,1.9,4.6h-15.7c-12.7,0-23-9.4-23-20.9c0-7.9,4.8-14.8,11.9-18.3c0.8,0.6,1.8,1.1,3,1.6c-0.5,0.8-0.8,1.7-0.9,2.6
			c-0.1,1.2,0.3,2.4,1.1,3.3c1,1.2,2.6,1.8,4.7,1.8c2.8,0,6.5-1.1,9.8-3c0.8-0.4,1.5-0.9,2.2-1.3c0.7,0.5,1.4,0.9,2.2,1.3
			c3.3,1.9,7,3,9.8,3h0c2.1,0,3.7-0.6,4.7-1.8c0.8-0.9,1.2-2,1.1-3.3c-0.1-0.9-0.4-1.8-0.9-2.6c1.2-0.4,2.2-0.9,3-1.6
			c5.6,2.8,9.8,7.7,11.3,13.6l-18.7,7.1C250.7,279.9,247.5,285.5,248.6,291.3z M345.9,293.9c-1.3,1.6-3.2,2.5-5.3,2.5l-2.8,0
			l-1.7-9.4c-0.3-1.4-1.6-2.4-3.1-2.1c-1.4,0.3-2.4,1.6-2.1,3.1l1.6,8.4l-9.1,0l-1.2-6.3c-0.3-1.4-1.6-2.4-3.1-2.1
			c-1.4,0.3-2.4,1.6-2.1,3.1l1,5.4l-21.2,0l-1.6-8.6c-0.3-1.4-1.6-2.4-3.1-2.1c-1.4,0.3-2.4,1.6-2.1,3.1l1.4,7.6l-30.9,0
			c0,0,0,0,0,0c-3.3,0-6.1-2.3-6.7-5.6l-0.1-0.5c-0.6-3.2,1.2-6.4,4.3-7.6l10.4-3.9l0.8,4.2c0.2,1.3,1.3,2.2,2.6,2.2
			c0.2,0,0.3,0,0.5,0c1.4-0.3,2.4-1.6,2.1-3.1l-0.9-5.1c9.9-3.9,19.7-7.7,29.6-11.6c14.5-6.5,20.3-9.6,20-10.3
			c-0.3-0.7-6.5,0.9-21.3,5.8c-7.3,2.7-14.6,5.4-21.9,8c-2-7.1-7.2-13.1-14-16.5c-0.2-1.4-1.2-3.4-4.8-4.8c-2.3-0.9-5.4-1.4-8.6-1.4
			c-2.2,0-4.3,0.2-6.2,0.7v-1.6c0-1.5-1.2-2.6-2.6-2.6c-0.6,0-1.2,0.2-1.6,0.6c-0.4-2.8-0.7-5.6-0.7-8.4h86.1c5.1,0,10.1,0,15.2,0
			h20.5c-0.1,4.8-0.7,9.6-1.9,14.2l-14.3,8.5c-0.9-3-2.9-5.6-5.7-7.2c-3.1-1.8-6.9-2-10.3-0.8l-29.5,11.2c-1.4,0.5-2.1,2-1.5,3.4
			c0.5,1.4,2,2.1,3.4,1.5l3.9-1.5l1.2,6.5c0.2,1.3,1.3,2.2,2.6,2.2c0.2,0,0.3,0,0.5,0c1.4-0.3,2.4-1.6,2.1-3.1l-1.4-7.5l20.6-7.8
			c1.9-0.7,4-0.6,5.8,0.4c1.8,1,3,2.7,3.4,4.7l5.3,28.9C347.7,290.3,347.2,292.3,345.9,293.9z M355.3,273.2
			c-1.2,0.2-2.1,1.3-2.2,2.5c0,1.3,0.8,2.4,2.1,2.6l19.7,4.5l-0.5,3.3l-22.8-4.1l-3.6-19.3l19.9-11.7l1.7,2.9l-16.8,11.2
			c-1,0.7-1.5,2-1,3.2c0.5,1.2,1.7,1.8,2.9,1.6l26.3-4.8l0.6,3.2L355.3,273.2z M324.4,212.3"/>
	</g>
</g>
<path class="st1" d="M121.6,150.4h2.9v1.6c1.9-0.1,3.9-0.2,5.8-0.3v-1.3h5.9v1.2c2,0,3.9,0.2,5.8,0.5v-1.6h2.9
	c1.6,0,2.9-1.3,2.9-2.9v-14.6c0-3.2-2.6-5.9-5.9-5.9h-17.5c-2.1,0-4,1.1-5,2.9c-0.3,1.9-0.5,3.9-0.8,5.8v11.7
	C118.6,149.1,119.9,150.4,121.6,150.4z M124.5,132.9H142v11.7h-17.5V132.9z"/>
<path class="st1" d="M221,154.1c0-1.6-1.3-2.9-2.9-2.9h-58.5c-1.6,0-2.9,1.3-2.9,2.9v11.7c0,0.1,0,0.1,0,0.2c0,0.1,0,0.1,0,0.2
	l0.4,3.2c-1.1-0.4-2.2-0.7-3.3-0.7h-5.9v-14.6c0-1.6-1.3-2.9-2.9-2.9H142V150c-1.9-0.4-3.9-0.6-5.8-0.7v1.8h-5.9v-1.7
	c-2,0.1-3.9,0.2-5.8,0.4v1.4h-2.9c-1.6,0-2.9,1.3-2.9,2.9v14.6h-5.8c-4.8,0-8.8,3.9-8.8,8.8v105.3c0,4.8,3.9,8.8,8.8,8.8h41
	c4.8,0,8.8-3.9,8.8-8.8v-67.1l5.9,49.7v26.2h40.8c0-1.9,0.1-3.9,0.1-5.9v-20.3l0.7-6c0.2-2,0.5-3.9,0.7-5.9l2.1-17.6
	c0.2-2,0.5-3.9,0.7-5.9l1.6-13.9c0.3-2.6,0.6-5.2,0.9-7.7l0.7-5.8c0.4-3.5,0.8-6.9,1.2-10.4l3.1-26.1c0-0.1,0-0.1,0-0.2
	c0-0.1,0-0.1,0-0.2V154.1z M124.5,157H142v11.7h-17.5V157z M156.6,253.5h-46.8v-55.6h46.8V253.5z M156.6,192.1h-46.8v-14.6
	c0-1.6,1.3-2.9,2.9-2.9h41c1.6,0,2.9,1.3,2.9,2.9V192.1z M164.5,157H213v5.9h-48.5V157z M203.4,285.7h-29.2v-5.9h5.9
	c0.8,0,1.5-0.3,2.1-0.9l2.1-2.1h9.3l2.1,2.1c0.5,0.5,1.3,0.9,2.1,0.9h5.8V285.7z M203.4,274h-4.6l-2.1-2.1c-0.3-0.3-0.6-0.5-0.9-0.6
	c-0.4-0.2-0.7-0.2-1.1-0.2H183c-0.8,0-1.5,0.3-2.1,0.9l-2.1,2.1h-4.6v-5.9h29.2V274z M203.8,262.3h-29.9l-11-93.6h51.9L203.8,262.3z
	"/>
</svg>
