<?xml version="1.0" encoding="utf-8"?>
<!-- Generator: Adobe Illustrator 22.1.0, SVG Export Plug-In . SVG Version: 6.00 Build 0)  -->
<svg version="1.1" id="Calque_1" xmlns="http://www.w3.org/2000/svg" xmlns:xlink="http://www.w3.org/1999/xlink" x="0px" y="0px"
	 viewBox="0 0 500 500" style="enable-background:new 0 0 500 500;" xml:space="preserve">
<style type="text/css">
	.st0{fill:#4FBDD7;}
	.st1{fill:#FFFFFF;}
	.st2{fill:none;stroke:#FFFFFF;stroke-width:7;stroke-miterlimit:10;}
	.st3{fill:none;stroke:#FFFFFF;stroke-width:10;stroke-miterlimit:10;}
	.st4{fill:#FFFFFF;stroke:#FFFFFF;stroke-width:3;stroke-miterlimit:10;}
	.st5{fill:#8C8C8C;}
	.st6{fill:none;stroke:#FFFFFF;stroke-width:8;stroke-miterlimit:10;}
	.st7{fill:#FFFFFF;stroke:#FFFFFF;stroke-width:6;stroke-miterlimit:10;}
	.st8{fill:#FFFFFF;stroke:#FFFFFF;stroke-width:2;stroke-miterlimit:10;}
	.st9{fill:#FFFFFF;stroke:#FFFFFF;stroke-miterlimit:10;}
	.st10{fill:#FFFFFF;stroke:#FFFFFF;stroke-width:8;stroke-miterlimit:10;}
	.st11{fill:none;stroke:#4FBDD7;stroke-miterlimit:10;}
	.st12{fill:none;stroke:#FFFFFF;stroke-miterlimit:10;}
	.st13{fill:#FFFFFF;stroke:#FFFFFF;stroke-width:7;stroke-miterlimit:10;}
	.st14{fill:#FFFFFF;stroke:#8C8C8C;stroke-miterlimit:10;}
	.st15{fill:#FFFFFF;stroke:#FFFFFF;stroke-width:13;stroke-miterlimit:10;}
	.st16{fill:#FFFFFF;stroke:#FFFFFF;stroke-width:10;stroke-miterlimit:10;}
	.st17{fill:#FFFFFF;stroke:#FFFFFF;stroke-width:4;stroke-miterlimit:10;}
	.st18{fill:#FFFFFF;stroke:#FFFFFF;stroke-width:0.75;stroke-miterlimit:10;}
	.st19{fill:#FFFFFF;stroke:#8C8C8C;stroke-width:0.5;stroke-miterlimit:10;}
	.st20{fill:#FFFFFF;stroke:#FDFFFF;stroke-width:8;stroke-miterlimit:10;}
	.st21{fill:none;stroke:#FDFFFF;stroke-width:8;stroke-miterlimit:10;}
	.st22{fill:#FFFFFF;stroke:#FFFFFF;stroke-width:11;stroke-miterlimit:10;}
	.st23{fill:#FFFFFF;stroke:#8C8C8C;stroke-width:4;stroke-miterlimit:10;}
	.st24{fill:#FFFFFF;stroke:#FFFFFF;stroke-width:1.05;stroke-miterlimit:10;}
	.st25{fill:none;stroke:#4FBDD7;stroke-width:5;stroke-miterlimit:10;}
	.st26{fill:#FFFFFF;stroke:#8C8C8C;stroke-width:0.75;stroke-miterlimit:10;}
	.st27{fill:#FFFFFF;stroke:#FCFCFC;stroke-width:4;stroke-miterlimit:10;}
	.st28{fill:none;stroke:#FCFCFC;stroke-width:4;stroke-miterlimit:10;}
	.st29{fill:#FFFFFF;stroke:#FCFCFC;stroke-miterlimit:10;}
	.st30{fill:#FFFFFF;stroke:#FCFCFC;stroke-width:10;stroke-miterlimit:10;}
	.st31{fill-rule:evenodd;clip-rule:evenodd;fill:#FFFFFF;}
</style>
<rect x="-1" class="st0" width="500" height="500"/>
<path class="st1" d="M256,93.4c-2.3,2.6-2.1,6.6,0.5,8.9l3.9,3.5l-8.9,10c-6.8-2.6-14.7-0.9-19.8,4.8s-5.8,13.8-2.5,20.2l-11.4,12.7
	l-13.4-11.9c2.6-6.8,0.9-14.7-4.8-19.8c-5.7-5.1-13.8-5.9-20.2-2.6l-8.5-7.5l3.5-3.9c2.3-2.6,2.1-6.6-0.5-8.9
	c-2.6-2.3-6.6-2.1-8.9,0.5l-50.4,56.5c-2.3,2.6-2.1,6.6,0.5,8.9c2.6,2.3,6.6,2.1,8.9-0.5l3.5-3.9l8.5,7.5
	c-2.6,6.8-0.9,14.7,4.9,19.8s13.8,5.9,20.2,2.6l13.4,11.9L163,215.1c-6.8-2.6-14.7-0.9-19.8,4.8c-5.1,5.7-5.8,13.8-2.5,20.2
	l-7.2,8.1l-2.8-2.5c-2.6-2.3-6.6-2.1-8.9,0.5c-2.3,2.6-2.1,6.6,0.5,8.9l56.7,50.5c2.6,2.3,6.6,2.1,8.9-0.5c2.3-2.6,2.1-6.6-0.5-8.9
	l-5-4.4l7.2-8.1c6.8,2.6,14.7,0.9,19.8-4.8s5.8-13.8,2.5-20.2l66.2-74.2c6.8,2.6,14.7,0.9,19.8-4.8c5.1-5.7,5.8-13.8,2.5-20.2
	l8.9-10l3.9,3.5c2.6,2.3,6.6,2.1,8.9-0.5c2.3-2.6,2.1-6.6-0.5-8.9L264.9,93C262.3,90.6,258.3,90.8,256,93.4z M156.6,178
	c-1.9,2.2-5.3,2.4-7.5,0.4c-2.2-1.9-2.4-5.3-0.4-7.5l35-39.2c1.9-2.2,5.3-2.4,7.5-0.4c2.2,1.9,2.4,5.3,0.4,7.5L156.6,178z
	 M162.5,121.2l7.6,6.8l-26.6,29.9l-7.6-6.8L162.5,121.2z M186.6,207.6c3.1-3.5,2.8-8.8-0.7-11.9l-15.6-14l26.6-29.9l15.6,14
	c3.5,3.1,8.8,2.8,11.9-0.7l13.4-15l29.9,26.7l-64.6,72.4l-29.9-26.7L186.6,207.6z M142.9,256.6l6.5-7.2l29.9,26.7l-6.5,7.2
	L142.9,256.6z M199.4,262.9c2.2,1.9,2.4,5.3,0.4,7.5c-1.9,2.2-5.3,2.4-7.5,0.4l-39.3-35.1c-2.2-1.9-2.4-5.3-0.4-7.5
	c1.9-2.2,5.3-2.4,7.5-0.4L199.4,262.9z M287.9,163.7c2.2,1.9,2.4,5.3,0.4,7.5c-1.9,2.2-5.3,2.4-7.5,0.4l-39.3-35.1
	c-2.2-1.9-2.4-5.3-0.4-7.5c1.9-2.2,5.3-2.4,7.5-0.4L287.9,163.7z M291.6,150.1l-29.9-26.7l8.1-9.1l29.9,26.7L291.6,150.1z"/>
<path class="st1" d="M312.1,186.2c-38.5,0-69.9,31.4-69.9,69.9s31.4,69.9,69.9,69.9s69.9-31.4,69.9-69.9S350.6,186.2,312.1,186.2z
	 M312.1,310.5c-30,0-54.4-24.4-54.4-54.4s24.4-54.4,54.4-54.4s54.4,24.4,54.4,54.4S342,310.5,312.1,310.5z"/>
<path class="st1" d="M312.1,220.4c-19.7,0-35.7,16-35.7,35.7s16,35.7,35.7,35.7c19.7,0,35.7-16,35.7-35.7S331.7,220.4,312.1,220.4z
	 M312.1,277.5c-11.8,0-21.4-9.6-21.4-21.4s9.6-21.4,21.4-21.4s21.4,9.6,21.4,21.4S323.9,277.5,312.1,277.5z"/>
<g>
	<path class="st1" d="M75.8,373c3.2,0,5.8,0.8,7.6,2.5c1.8,1.6,2.7,4.1,2.7,7.5c0,2.6-0.5,4.7-1.6,6.3c-1,1.6-2.7,2.7-4.9,3.2v0.1
		c1.9,0.3,3.4,0.9,4.3,1.9c0.9,1,1.5,2.5,1.7,4.7c0.1,0.7,0.1,1.5,0.2,2.3c0,0.8,0.1,1.8,0.1,2.8c0.1,2.1,0.2,3.6,0.3,4.7
		c0.2,1.1,0.7,1.8,1.4,2.2v0.3h-8.4c-0.4-0.5-0.6-1.2-0.8-1.9c-0.1-0.7-0.2-1.4-0.2-2.2l-0.2-7.4c-0.1-1.5-0.5-2.7-1.1-3.6
		c-0.7-0.9-1.8-1.3-3.5-1.3h-4.2v16.3h-7.8V373H75.8z M72.4,389.8c1.9,0,3.3-0.4,4.3-1.3c1-0.9,1.5-2.4,1.5-4.5
		c0-3.6-1.8-5.3-5.4-5.3h-3.7v11.1H72.4z"/>
	<path class="st1" d="M91.2,390.7c0-1.7,0.3-3.1,0.8-4.2c0.5-1.1,1.3-2.1,2.2-2.8c0.9-0.7,2-1.2,3.2-1.5c1.2-0.3,2.6-0.5,4-0.5
		c2.2,0,4,0.2,5.4,0.6c1.4,0.4,2.4,1,3.2,1.8c0.8,0.8,1.3,1.7,1.5,2.8c0.3,1.1,0.4,2.3,0.4,3.6v15.3c0,1.4,0.1,2.4,0.2,3.2
		c0.1,0.8,0.4,1.6,0.7,2.4h-7.1c-0.3-0.5-0.4-1-0.6-1.5c-0.1-0.5-0.2-1-0.4-1.5h-0.1c-0.9,1.5-1.9,2.5-3,2.9
		c-1.1,0.4-2.6,0.7-4.4,0.7c-1.3,0-2.4-0.2-3.3-0.7c-0.9-0.4-1.6-1.1-2.2-1.9c-0.5-0.8-0.9-1.7-1.2-2.7c-0.3-1-0.4-2-0.4-2.9
		c0-1.4,0.1-2.5,0.4-3.5c0.3-1,0.7-1.8,1.3-2.5c0.6-0.7,1.3-1.3,2.3-1.8c0.9-0.5,2-0.9,3.3-1.2l4.2-1.1c1.1-0.3,1.9-0.7,2.3-1.2
		c0.4-0.5,0.6-1.2,0.6-2.2c0-1.1-0.3-2-0.8-2.6c-0.5-0.6-1.4-0.9-2.7-0.9c-1.2,0-2,0.3-2.6,1c-0.6,0.7-0.9,1.6-0.9,2.8v0.8h-6.7
		V390.7z M103.2,398c-0.6,0.2-1.1,0.4-1.6,0.5c-1.5,0.3-2.6,0.9-3.2,1.6c-0.6,0.8-1,1.8-1,3.1c0,1.1,0.2,2.1,0.6,2.9
		c0.4,0.8,1.2,1.2,2.2,1.2c0.5,0,1-0.1,1.6-0.2c0.5-0.2,1-0.4,1.5-0.8c0.5-0.4,0.8-0.8,1.1-1.4c0.3-0.6,0.4-1.3,0.4-2.1V397
		C104.3,397.4,103.7,397.7,103.2,398z"/>
	<path class="st1" d="M131,390.9c-0.1-0.7-0.3-1.3-0.5-1.9c-0.2-0.6-0.6-1-1-1.4c-0.4-0.3-1-0.5-1.7-0.5c-0.9,0-1.6,0.2-2.2,0.6
		c-0.6,0.4-1,1-1.3,1.8s-0.5,1.8-0.6,3.1s-0.2,2.7-0.2,4.4c0,1.8,0.1,3.3,0.2,4.6c0.1,1.3,0.3,2.3,0.6,3.2s0.7,1.4,1.2,1.8
		c0.5,0.4,1.2,0.6,2,0.6c1.3,0,2.2-0.5,2.8-1.6c0.6-1.1,0.9-2.8,0.9-5.2h7.1c0,3.8-0.9,6.7-2.6,8.7s-4.5,3-8.5,3
		c-1.9,0-3.5-0.2-4.9-0.7s-2.5-1.3-3.5-2.4c-0.9-1.2-1.6-2.7-2.1-4.7c-0.5-2-0.7-4.4-0.7-7.3c0-3,0.3-5.5,0.9-7.4
		c0.6-2,1.4-3.5,2.4-4.7c1-1.2,2.3-2,3.7-2.5c1.4-0.5,3-0.7,4.8-0.7c3.5,0,6.1,1,7.8,3c1.7,2,2.6,4.8,2.6,8.2h-7.1
		C131.2,392.3,131.1,391.6,131,390.9z"/>
	<path class="st1" d="M156,390.9c-0.1-0.7-0.3-1.3-0.5-1.9c-0.2-0.6-0.6-1-1-1.4c-0.4-0.3-1-0.5-1.7-0.5c-0.9,0-1.6,0.2-2.2,0.6
		c-0.6,0.4-1,1-1.3,1.8s-0.5,1.8-0.6,3.1s-0.2,2.7-0.2,4.4c0,1.8,0.1,3.3,0.2,4.6c0.1,1.3,0.3,2.3,0.6,3.2s0.7,1.4,1.2,1.8
		c0.5,0.4,1.2,0.6,2,0.6c1.3,0,2.2-0.5,2.8-1.6c0.6-1.1,0.9-2.8,0.9-5.2h7.1c0,3.8-0.9,6.7-2.6,8.7s-4.5,3-8.5,3
		c-1.9,0-3.5-0.2-4.9-0.7s-2.5-1.3-3.5-2.4c-0.9-1.2-1.6-2.7-2.1-4.7c-0.5-2-0.7-4.4-0.7-7.3c0-3,0.3-5.5,0.9-7.4
		c0.6-2,1.4-3.5,2.4-4.7c1-1.2,2.3-2,3.7-2.5c1.4-0.5,3-0.7,4.8-0.7c3.5,0,6.1,1,7.8,3c1.7,2,2.6,4.8,2.6,8.2h-7.1
		C156.2,392.3,156.1,391.6,156,390.9z"/>
	<path class="st1" d="M166.8,390.4c0.4-1.9,1-3.5,1.9-4.8c0.9-1.3,2.1-2.2,3.5-2.9c1.5-0.7,3.2-1,5.4-1c2.2,0,4.1,0.3,5.6,0.9
		c1.5,0.6,2.6,1.6,3.5,2.9c0.9,1.3,1.5,2.9,1.8,4.8c0.4,1.9,0.5,4.1,0.5,6.7c0,2.5-0.2,4.7-0.6,6.6c-0.4,1.9-1,3.5-1.9,4.8
		c-0.9,1.3-2.1,2.2-3.5,2.8c-1.5,0.6-3.2,0.9-5.4,0.9c-2.2,0-4.1-0.2-5.6-0.8c-1.5-0.6-2.6-1.5-3.5-2.8c-0.9-1.3-1.5-2.9-1.8-4.8
		c-0.4-1.9-0.5-4.1-0.5-6.7C166.2,394.5,166.4,392.4,166.8,390.4z M173.8,401.1c0.1,1.3,0.2,2.3,0.5,3.2c0.3,0.9,0.7,1.6,1.2,2.1
		c0.5,0.5,1.3,0.8,2.2,0.8c1.5,0,2.6-0.8,3.1-2.4c0.6-1.6,0.9-4.2,0.9-7.8c0-3.6-0.3-6.2-0.9-7.8c-0.6-1.6-1.6-2.4-3.1-2.4
		c-0.9,0-1.6,0.3-2.2,0.8c-0.5,0.5-0.9,1.2-1.2,2.1c-0.3,0.9-0.4,2-0.5,3.2c-0.1,1.3-0.1,2.6-0.1,4.1
		C173.7,398.5,173.7,399.9,173.8,401.1z"/>
	<path class="st1" d="M200.2,382.5v3.9h0.1c0.8-1.4,1.7-2.5,2.8-3.4c1.1-0.8,2.4-1.3,3.9-1.3c0.2,0,0.4,0,0.7,0c0.2,0,0.5,0,0.7,0.1
		v7.1c-0.4,0-0.8-0.1-1.2-0.1c-0.4,0-0.8,0-1.2,0c-0.6,0-1.3,0.1-1.9,0.3c-0.6,0.2-1.2,0.5-1.8,0.9c-0.5,0.4-1,1-1.3,1.6
		c-0.3,0.7-0.5,1.5-0.5,2.5v17.4h-7.5v-29.1H200.2z"/>
	<path class="st1" d="M225.9,408.5c-0.8,1.4-1.8,2.3-2.8,2.9c-1,0.5-2.3,0.8-3.8,0.8c-3.1,0-5.3-1.2-6.8-3.5
		c-1.4-2.3-2.2-6.2-2.2-11.6s0.7-9.3,2.2-11.7c1.4-2.4,3.7-3.6,6.8-3.6c1.4,0,2.6,0.3,3.6,0.9c1,0.6,1.9,1.4,2.7,2.6h0.1V373h7.5
		v38.6H226v-3.1H225.9z M218.6,404.2c0.5,1.6,1.5,2.4,3.2,2.4c1.7,0,2.7-0.8,3.2-2.4c0.5-1.6,0.7-4,0.7-7.2c0-3.2-0.2-5.6-0.7-7.2
		c-0.5-1.6-1.6-2.4-3.2-2.4c-1.6,0-2.7,0.8-3.2,2.4c-0.5,1.6-0.7,4-0.7,7.2C217.8,400.2,218.1,402.6,218.6,404.2z"/>
	<path class="st1" d="M243.6,403c0,1.3,0.3,2.3,1,3.1c0.7,0.8,1.6,1.2,2.9,1.2c1.2,0,2.1-0.3,2.8-0.9c0.7-0.6,1-1.4,1-2.6
		c0-0.9-0.3-1.6-0.8-2.1c-0.5-0.5-1.2-0.9-1.9-1.2l-5.2-1.9c-2.1-0.7-3.6-1.7-4.6-3.1c-1-1.3-1.6-3-1.6-5c0-1.2,0.2-2.3,0.6-3.4
		c0.4-1.1,1-2,1.9-2.8c0.9-0.8,2-1.4,3.3-1.9c1.3-0.5,3-0.7,4.9-0.7c3.4,0,5.9,0.7,7.5,2.2c1.6,1.4,2.4,3.5,2.4,6.1v1.2H251
		c0-1.5-0.2-2.6-0.7-3.3c-0.5-0.7-1.3-1.1-2.6-1.1c-0.9,0-1.8,0.3-2.5,0.8c-0.7,0.5-1.1,1.3-1.1,2.3c0,0.7,0.2,1.4,0.7,1.9
		c0.5,0.6,1.3,1.1,2.6,1.5l4.5,1.5c2.3,0.8,4,1.8,5,3.1c1,1.3,1.5,3,1.5,5.2c0,1.5-0.3,2.9-0.8,4c-0.5,1.1-1.3,2.1-2.2,2.8
		c-1,0.8-2.1,1.3-3.4,1.6c-1.3,0.3-2.8,0.5-4.3,0.5c-2.1,0-3.8-0.2-5.2-0.6c-1.4-0.4-2.5-1-3.3-1.8c-0.8-0.8-1.4-1.8-1.7-2.9
		c-0.3-1.1-0.5-2.4-0.5-3.8v-1h6.7V403z"/>
	<path class="st1" d="M281.4,400.5c0,0.9,0.1,1.7,0.2,2.5c0.1,0.8,0.3,1.5,0.6,2.2c0.3,0.6,0.7,1.1,1.1,1.5c0.5,0.4,1,0.6,1.7,0.6
		c1.3,0,2.2-0.4,2.8-1.4c0.6-0.9,1-2.3,1.2-4.1h6.7c-0.1,3.4-1,6-2.7,7.7c-1.7,1.8-4.3,2.6-7.8,2.6c-2.7,0-4.8-0.5-6.3-1.4
		s-2.6-2.1-3.3-3.6c-0.7-1.5-1.2-3.1-1.3-5s-0.2-3.7-0.2-5.5c0-1.9,0.1-3.8,0.4-5.6c0.3-1.8,0.8-3.4,1.6-4.8c0.8-1.4,2-2.5,3.5-3.3
		c1.5-0.8,3.5-1.2,6-1.2c2.2,0,3.9,0.4,5.3,1.1c1.4,0.7,2.5,1.7,3.3,3c0.8,1.3,1.3,2.8,1.6,4.6c0.3,1.8,0.4,3.8,0.4,6.1v1.7h-14.7
		V400.5z M288.8,390.8c-0.1-0.8-0.3-1.6-0.6-2.2c-0.3-0.6-0.6-1-1.1-1.4c-0.5-0.3-1.1-0.5-1.9-0.5s-1.4,0.2-1.9,0.5
		c-0.5,0.3-0.9,0.8-1.2,1.4c-0.3,0.6-0.5,1.2-0.6,1.9c-0.1,0.7-0.2,1.4-0.2,2.1v1.1h7.6C289,392.6,288.9,391.6,288.8,390.8z"/>
	<path class="st1" d="M309.1,374.2v8.3h4.3v5.1h-4.3v15.7c0,1.2,0.2,2,0.5,2.5c0.3,0.5,1.1,0.7,2.1,0.7c0.3,0,0.6,0,0.9,0
		c0.3,0,0.6,0,0.8-0.1v5.2c-0.8,0-1.6,0-2.4,0.1c-0.8,0.1-1.6,0.1-2.5,0.1c-1.4,0-2.6-0.1-3.5-0.3c-0.9-0.2-1.6-0.6-2.1-1.2
		c-0.5-0.6-0.8-1.4-1-2.3c-0.2-1-0.3-2.2-0.3-3.7v-16.6h-3.8v-5.1h3.8v-8.3H309.1z"/>
	<path class="st1" d="M336.7,382.5v30.9c0,1.2-0.1,2.3-0.4,3.2c-0.3,0.9-0.7,1.7-1.4,2.3c-0.6,0.6-1.5,1.1-2.6,1.4
		c-1.1,0.3-2.5,0.5-4.1,0.5c-0.4,0-0.9,0-1.3,0c-0.5,0-1,0-1.5-0.1v-5.4c0.2,0.1,0.4,0.1,0.6,0.1h0.6c1.2,0,2-0.4,2.3-1.1
		c0.3-0.7,0.5-1.9,0.5-3.4v-28.5H336.7z M336.7,372.6v6.4h-7.5v-6.4H336.7z"/>
	<path class="st1" d="M341.6,390.4c0.4-1.9,1-3.5,1.9-4.8c0.9-1.3,2.1-2.2,3.5-2.9c1.5-0.7,3.2-1,5.4-1c2.2,0,4.1,0.3,5.6,0.9
		c1.5,0.6,2.6,1.6,3.5,2.9c0.9,1.3,1.5,2.9,1.8,4.8c0.4,1.9,0.5,4.1,0.5,6.7c0,2.5-0.2,4.7-0.6,6.6c-0.4,1.9-1,3.5-1.9,4.8
		c-0.9,1.3-2.1,2.2-3.5,2.8c-1.5,0.6-3.2,0.9-5.4,0.9c-2.2,0-4.1-0.2-5.6-0.8c-1.5-0.6-2.6-1.5-3.5-2.8c-0.9-1.3-1.5-2.9-1.8-4.8
		c-0.4-1.9-0.5-4.1-0.5-6.7C341,394.5,341.2,392.4,341.6,390.4z M348.5,401.1c0.1,1.3,0.2,2.3,0.5,3.2c0.3,0.9,0.7,1.6,1.2,2.1
		c0.5,0.5,1.3,0.8,2.2,0.8c1.5,0,2.6-0.8,3.1-2.4c0.6-1.6,0.9-4.2,0.9-7.8c0-3.6-0.3-6.2-0.9-7.8c-0.6-1.6-1.6-2.4-3.1-2.4
		c-0.9,0-1.6,0.3-2.2,0.8c-0.5,0.5-0.9,1.2-1.2,2.1c-0.3,0.9-0.4,2-0.5,3.2c-0.1,1.3-0.1,2.6-0.1,4.1
		C348.4,398.5,348.5,399.9,348.5,401.1z"/>
	<path class="st1" d="M375.6,372.6v6.4h-7.5v-6.4H375.6z M375.6,382.5v29.1h-7.5v-29.1H375.6z"/>
	<path class="st1" d="M387.9,382.5v3.4h0.1c0.8-1.4,1.8-2.5,3.1-3.2c1.3-0.7,2.7-1,4.3-1c2.4,0,4.2,0.6,5.5,1.9
		c1.3,1.3,1.9,3.4,1.9,6.3v21.5h-7.5v-20c0-1.5-0.3-2.6-0.8-3.2c-0.5-0.6-1.3-0.9-2.4-0.9c-2.6,0-3.9,1.6-3.9,4.8v19.3h-7.5v-29.1
		H387.9z"/>
	<path class="st1" d="M416.9,374.2v8.3h4.3v5.1h-4.3v15.7c0,1.2,0.2,2,0.5,2.5c0.3,0.5,1.1,0.7,2.1,0.7c0.3,0,0.6,0,0.9,0
		c0.3,0,0.6,0,0.8-0.1v5.2c-0.8,0-1.6,0-2.4,0.1c-0.8,0.1-1.6,0.1-2.5,0.1c-1.4,0-2.6-0.1-3.5-0.3c-0.9-0.2-1.6-0.6-2.1-1.2
		c-0.5-0.6-0.8-1.4-1-2.3c-0.2-1-0.3-2.2-0.3-3.7v-16.6h-3.8v-5.1h3.8v-8.3H416.9z"/>
	<path class="st1" d="M429.3,403c0,1.3,0.3,2.3,1,3.1c0.7,0.8,1.6,1.2,2.9,1.2c1.2,0,2.1-0.3,2.8-0.9c0.7-0.6,1-1.4,1-2.6
		c0-0.9-0.3-1.6-0.8-2.1c-0.5-0.5-1.2-0.9-1.9-1.2l-5.2-1.9c-2.1-0.7-3.6-1.7-4.6-3.1c-1-1.3-1.6-3-1.6-5c0-1.2,0.2-2.3,0.6-3.4
		c0.4-1.1,1-2,1.9-2.8c0.9-0.8,2-1.4,3.3-1.9c1.3-0.5,3-0.7,4.9-0.7c3.4,0,5.9,0.7,7.5,2.2c1.6,1.4,2.4,3.5,2.4,6.1v1.2h-6.7
		c0-1.5-0.2-2.6-0.7-3.3c-0.5-0.7-1.3-1.1-2.6-1.1c-0.9,0-1.8,0.3-2.5,0.8c-0.7,0.5-1.1,1.3-1.1,2.3c0,0.7,0.2,1.4,0.7,1.9
		c0.4,0.6,1.3,1.1,2.6,1.5l4.5,1.5c2.3,0.8,4,1.8,5,3.1c1,1.3,1.5,3,1.5,5.2c0,1.5-0.3,2.9-0.8,4c-0.5,1.1-1.3,2.1-2.2,2.8
		c-1,0.8-2.1,1.3-3.4,1.6c-1.3,0.3-2.8,0.5-4.3,0.5c-2.1,0-3.8-0.2-5.2-0.6s-2.5-1-3.3-1.8c-0.8-0.8-1.4-1.8-1.7-2.9
		c-0.3-1.1-0.5-2.4-0.5-3.8v-1h6.7V403z"/>
</g>
</svg>
