<?xml version="1.0" encoding="utf-8"?>
<!-- Generator: Adobe Illustrator 22.1.0, SVG Export Plug-In . SVG Version: 6.00 Build 0)  -->
<svg version="1.1" id="Calque_1" xmlns="http://www.w3.org/2000/svg" x="0px" y="0px"
     viewBox="0 0 500 500" style="enable-background:new 0 0 500 500;" xml:space="preserve">
<style type="text/css">
	.st0{fill:#EAEAEA;}
	.st1{fill:#8C8C8C;}
	.st2{fill:#FFFFFF;}
	.st3{fill:#EAEAEA;stroke:#8C8C8C;stroke-width:7;stroke-miterlimit:10;}
	.st4{fill:#070707;}
	.st5{fill:none;stroke:#8C8C8C;stroke-width:7;stroke-miterlimit:10;}
	.st6{fill:none;stroke:#8C8C8C;stroke-width:10;stroke-miterlimit:10;}
	.st7{fill:#8C8C8C;stroke:#8C8C8C;stroke-width:3;stroke-miterlimit:10;}
	.st8{fill:none;stroke:#8C8C8C;stroke-width:8;stroke-miterlimit:10;}
	.st9{fill:none;stroke:#8E8E8E;stroke-width:6;stroke-miterlimit:10;}
	.st10{fill:#8E8E8E;}
	.st11{fill:#505050;}
	.st12{fill:none;stroke:#8E8E8E;stroke-width:2;stroke-miterlimit:10;}
	.st13{fill:#8C8C8C;stroke:#8C8C8C;stroke-width:2;stroke-miterlimit:10;}
	.st14{fill:#8C8C8C;stroke:#FFFFFF;stroke-width:2;stroke-miterlimit:10;}
	.st15{fill:none;stroke:#FFFFFF;stroke-width:2;stroke-miterlimit:10;}
	.st16{fill:none;stroke:#8C8C8C;stroke-miterlimit:10;}
	.st17{fill:none;stroke:#8C8C8C;stroke-width:13;stroke-miterlimit:10;}
	.st18{fill:#EAEAEA;stroke:#8C8C8C;stroke-width:8;stroke-miterlimit:10;}
	.st19{fill:none;stroke:#8C8C8C;stroke-width:4;stroke-miterlimit:10;}
	.st20{fill:#8C8C8C;stroke:#8C8C8C;stroke-width:0.75;stroke-miterlimit:10;}
	.st21{fill:none;stroke:#8C8C8C;stroke-width:9;stroke-miterlimit:10;}
	.st22{fill:#8C8C8C;stroke:#8C8C8C;stroke-width:0.5;stroke-miterlimit:10;}
	.st23{fill:#6B6B6B;}
	.st24{fill:none;}
	.st25{stroke:#8C8C8C;stroke-width:8;stroke-miterlimit:10;}
	.st26{fill:#8C8C8C;stroke:#8C8C8C;stroke-miterlimit:10;}
	.st27{fill:none;stroke:#8C8C8C;stroke-width:11;stroke-miterlimit:10;}
	.st28{fill:none;stroke:#8C8C8C;stroke-width:6;stroke-miterlimit:10;}
	.st29{stroke:#8C8C8C;stroke-width:6;stroke-miterlimit:10;}
	.st30{fill:#8C8C8C;stroke:#8C8C8C;stroke-width:4;stroke-miterlimit:10;}
	.st31{fill:#8C8C8C;stroke:#8C8C8C;stroke-width:1.05;stroke-miterlimit:10;}
	.st32{fill:#D6D6D6;}
	.st33{fill:none;stroke:#EAEAEA;stroke-width:5;stroke-miterlimit:10;}
	.st34{fill:#8C8C8C;stroke:#8C8C8C;stroke-width:10;stroke-miterlimit:10;}
	.st35{fill:none;stroke:#CECECE;stroke-width:2;stroke-miterlimit:10;}
	.st36{fill:none;stroke:#FFFFFF;stroke-width:4;stroke-miterlimit:10;}
	.st37{fill-rule:evenodd;clip-rule:evenodd;fill:#8C8C8C;}
	.st38{fill:#8C8C8C;stroke:#8C8C8C;stroke-width:8;stroke-miterlimit:10;}
	.st39{fill:#8C8C8C;stroke:#8C8C8C;stroke-width:7;stroke-miterlimit:10;}
	.st40{fill:#DBDBDB;stroke:#8C8C8C;stroke-width:7;stroke-miterlimit:10;}
	.st41{font-family:'HelveticaNeue-CondensedBold';}
	.st42{font-size:54px;}
	.st43{fill:none;stroke:#8C8C8C;stroke-width:5;stroke-miterlimit:10;}
	.st44{fill:none;stroke:#8C8C8C;stroke-width:3;stroke-miterlimit:10;}
	.st45{clip-path:url(#SVGID_2_);fill:#8C8C8C;}
	.st46{clip-path:url(#SVGID_2_);fill:none;stroke:#8C8C8C;stroke-width:8;stroke-miterlimit:10;}
	.st47{clip-path:url(#SVGID_2_);fill:#FFFFFF;}
	.st48{clip-path:url(#SVGID_2_);fill:#EAEAEA;}
	.st49{clip-path:url(#SVGID_2_);fill:none;stroke:#8C8C8C;stroke-miterlimit:10;}
	.st50{fill:none;stroke:#FFFFFF;stroke-width:0.75;stroke-miterlimit:10;}
	.st51{fill:none;stroke:#8C8C8C;stroke-width:14;stroke-miterlimit:10;}
	.st52{fill:none;stroke:#EAEAEA;stroke-width:2;stroke-miterlimit:10;}
	.st53{fill:none;stroke:#8C8C8C;stroke-width:2;stroke-miterlimit:10;}
</style>
<rect y="-1" class="st0" width="500" height="500"/>
<g>
	<rect x="-3" y="362" class="st24" width="500" height="144"/>
	<text transform="matrix(1 0 0 1 146.0757 400.5557)" class="st23 st41 st42">Roulettes </text>
</g>
<g>
	<path class="st1" d="M210.6,148.9c-24.3-17.1-56.4-17.9-81.5-2c-25.1,15.9-38.1,45.3-33,74.6c3.3,19.2,14.1,36.3,30.1,47.4
		c5.3,3.7,11,6.7,17.1,9c24.6,9,52.1,4.1,72.2-12.7c20.1-16.8,29.7-43.1,25.2-68.9C237.4,177.1,226.6,160,210.6,148.9 M224.4,248.3
		c-15.9,22.7-44,33.5-71,27.4c-27-6.1-47.7-27.8-52.5-55.1c-4.2-24.1,4.8-48.6,23.5-64.3c18.7-15.7,44.4-20.2,67.4-11.9
		c5.7,2.1,11,4.9,15.9,8.4c14.9,10.5,25,26.4,28.1,44.3C239,215,234.8,233.4,224.4,248.3L224.4,248.3z"/>
	<path class="st1" d="M158.3,151c2.2-0.4,4.3-0.6,6.5-0.7c0.9-0.1,1.7-0.6,2-1.3c0.4-0.8,0.3-1.7-0.1-2.4c-0.5-0.7-1.3-1.1-2.2-1.1
		c-2.4,0.1-4.7,0.4-7.1,0.8c-13.6,2.3-26,9-35.5,19.1c-0.9,1-0.9,2.5,0.1,3.5c1,0.9,2.5,0.9,3.5-0.1
		C134.3,159.4,145.8,153.2,158.3,151"/>
	<path class="st1" d="M214.6,249c-0.5-0.4-1.1-0.7-1.8-0.7c-0.6,0-1.3,0.3-1.7,0.8c-8.7,9.3-20.2,15.5-32.7,17.6
		c-4.4,0.7-8.8,1-13.2,0.8c-1.2-0.1-2.3,0.8-2.5,2c-0.2,1.2,0.4,2.4,1.6,2.8c0.2,0.1,0.5,0.1,0.7,0.1c4.8,0.3,9.6,0,14.3-0.8
		c13.6-2.3,26-9,35.5-19.1C215.7,251.5,215.6,249.9,214.6,249"/>
	<path class="st1" d="M173.6,222.9c-0.1,0-0.2,0-0.2,0l-2.4,0.4l-4.9,0.8c-0.8,0.1-1.4,0.6-1.7,1.3c-1.5-0.4-3-1-4.4-1.8
		c0.1-1.2-0.3-2.5-1.1-3.4l-3.4-4.1c-0.8-1-1.9-1.6-3.2-1.7c-0.3-0.9-0.6-1.8-0.7-2.7c-0.2-0.9-0.2-1.9-0.2-2.8
		c1.1-0.6,2-1.5,2.4-2.7l1.8-5c0.4-1.2,0.4-2.5-0.1-3.6c1-1.2,2.2-2.3,3.6-3.1c0.5,0.6,1.3,0.8,2.1,0.7l2.1-0.4c0,0,0.1,0,0.1,0
		c0.1,0,0.2,0,0.2,0l2.4-0.4l4.9-0.8c0.8-0.1,1.4-0.6,1.7-1.3c1.5,0.4,3,1,4.4,1.8c-0.1,1.2,0.3,2.5,1.1,3.4l3.4,4.1
		c0.8,1,1.9,1.6,3.2,1.7c0.3,0.9,0.6,1.8,0.7,2.7c0.2,0.9,0.2,1.9,0.2,2.8c-1.1,0.6-2,1.5-2.4,2.7l-1.8,5c-0.4,1.2-0.4,2.5,0.1,3.6
		c-1,1.2-2.2,2.3-3.6,3.1c-0.5-0.5-1.3-0.8-2.1-0.7l-2,0.4C173.6,222.9,173.6,222.8,173.6,222.9 M134.1,231.8l17.6-12.4l3.4,4
		l-15.3,15.1L134.1,231.8z M131.2,190.5l19.8,9.2l-1.8,5l-21-5.8C128.8,196,129.8,193.2,131.2,190.5L131.2,190.5z M203,185.8
		l-17.9,12.6l-3.4-4.1l15.5-15.3C199.4,181,201.3,183.3,203,185.8L203,185.8z M205.6,227.3l-19.8-9.2l1.8-5l21,5.8
		C208,221.8,206.9,224.6,205.6,227.3L205.6,227.3z M161.3,167.9c1.5-0.2,2.9-0.4,4.4-0.5l1.9,21.7l-2.7,0.5l-2.5,0.4l-5.5-21.1
		C158.3,168.5,159.8,168.2,161.3,167.9 M171.1,250.4l-1.9-21.8l2.7-0.5l2.5-0.4l5.5,21.1C177,249.7,174.1,250.2,171.1,250.4
		L171.1,250.4z"/>
	<path class="st1" d="M174,200.9c-3.8-2.7-9-2.3-12.4,0.9c-3.4,3.2-4,8.4-1.5,12.3c2.5,3.9,7.4,5.6,11.8,3.9
		c4.4-1.7,6.9-6.2,6.1-10.8C177.6,204.6,176.1,202.4,174,200.9 M172.4,211.7c-1.5,2.1-4.3,2.7-6.5,1.4c-2.2-1.3-3.1-4-2-6.3
		c1.1-2.3,3.7-3.4,6.1-2.5c0.4,0.1,0.8,0.4,1.1,0.6c1.1,0.7,1.8,1.9,2,3.2C173.4,209.3,173.1,210.6,172.4,211.7L172.4,211.7z"/>
	<path class="st1" d="M189.5,216.5c-4.3,11.6-17.1,17.6-28.8,13.3c-11.6-4.3-17.6-17.1-13.3-28.8c4.3-11.6,17.1-17.6,28.8-13.3
		C187.8,192,193.8,204.9,189.5,216.5"/>
	<path class="st1" d="M361.8,136.5c-24.3-17.1-56.4-17.9-81.5-2c-25.1,15.9-38.1,45.3-33,74.6c3.3,19.2,14.1,36.3,30.1,47.4
		c5.3,3.7,11,6.7,17.1,9c24.6,9,52.1,4.1,72.2-12.7c20.1-16.8,29.7-43.1,25.2-68.9C388.6,164.8,377.8,147.7,361.8,136.5
		 M375.6,235.9c-15.9,22.7-44,33.5-71,27.4c-27-6.1-47.7-27.8-52.5-55.1c-4.2-24.1,4.8-48.6,23.5-64.3
		c18.7-15.7,44.4-20.2,67.4-11.9c5.7,2.1,11,4.9,15.9,8.4c14.9,10.5,25,26.4,28.1,44.3C390.2,202.7,386.1,221.1,375.6,235.9
		L375.6,235.9z"/>
	<path class="st1" d="M309.5,138.7c2.2-0.4,4.3-0.6,6.5-0.7c0.9-0.1,1.7-0.6,2-1.3c0.4-0.8,0.3-1.7-0.1-2.4
		c-0.5-0.7-1.3-1.1-2.2-1.1c-2.4,0.1-4.7,0.4-7.1,0.8c-13.6,2.3-26,9-35.5,19.1c-0.9,1-0.9,2.5,0.1,3.5c1,0.9,2.5,0.9,3.5-0.1
		C285.5,147,297,140.8,309.5,138.7"/>
	<path class="st1" d="M365.9,236.6c-0.5-0.4-1.1-0.7-1.8-0.7c-0.6,0-1.3,0.3-1.7,0.8c-8.7,9.3-20.2,15.5-32.7,17.6
		c-4.4,0.7-8.8,1-13.2,0.8c-1.2-0.1-2.3,0.8-2.5,2c-0.2,1.2,0.4,2.4,1.6,2.8c0.2,0.1,0.5,0.1,0.7,0.1c4.8,0.3,9.6,0,14.3-0.8
		c13.6-2.3,26-9,35.5-19.1C366.9,239.1,366.8,237.6,365.9,236.6"/>
	<path class="st1" d="M324.8,210.5c-0.1,0-0.2,0-0.2,0l-2.4,0.4l-4.9,0.8c-0.8,0.1-1.4,0.6-1.7,1.3c-1.5-0.4-3-1-4.4-1.8
		c0.1-1.2-0.3-2.5-1.1-3.4l-3.4-4.1c-0.8-1-1.9-1.6-3.2-1.7c-0.3-0.9-0.6-1.8-0.7-2.7c-0.2-0.9-0.2-1.9-0.2-2.8
		c1.1-0.6,2-1.5,2.4-2.7l1.8-5c0.4-1.2,0.4-2.5-0.1-3.6c1-1.2,2.2-2.3,3.6-3.1c0.5,0.6,1.3,0.8,2.1,0.7l2.1-0.4c0,0,0.1,0,0.1,0
		c0.1,0,0.2,0,0.2,0l2.4-0.4l4.9-0.8c0.8-0.1,1.4-0.6,1.7-1.3c1.5,0.4,3,1,4.4,1.8c-0.1,1.2,0.3,2.5,1.1,3.4l3.4,4.1
		c0.8,1,1.9,1.6,3.2,1.7c0.3,0.9,0.6,1.8,0.7,2.7c0.2,0.9,0.2,1.9,0.2,2.8c-1.1,0.6-2,1.5-2.4,2.7l-1.8,5c-0.4,1.2-0.4,2.5,0.1,3.6
		c-1,1.2-2.2,2.3-3.6,3.1c-0.5-0.5-1.3-0.8-2.1-0.7l-2,0.4C324.9,210.5,324.8,210.5,324.8,210.5 M285.3,219.4l17.6-12.4l3.4,4
		L291,226.2L285.3,219.4z M282.4,178.1l19.8,9.2l-1.8,5l-21-5.8C280,183.6,281.1,180.8,282.4,178.1L282.4,178.1z M354.2,173.4
		L336.3,186l-3.4-4.1l15.5-15.3C350.6,168.7,352.5,171,354.2,173.4L354.2,173.4z M356.8,214.9l-19.8-9.2l1.8-5l21,5.8
		C359.2,209.4,358.2,212.2,356.8,214.9L356.8,214.9z M312.5,155.6c1.5-0.2,2.9-0.4,4.4-0.5l1.9,21.7l-2.7,0.5l-2.5,0.4l-5.5-21.1
		C309.6,156.1,311,155.8,312.5,155.6 M322.3,238l-1.9-21.8l2.7-0.5l2.5-0.4l5.5,21.1C328.2,237.3,325.3,237.8,322.3,238L322.3,238z"
		/>
	<path class="st1" d="M325.2,188.5c-3.8-2.7-9-2.3-12.4,0.9c-3.4,3.2-4,8.4-1.5,12.3c2.5,3.9,7.4,5.6,11.8,3.9
		c4.4-1.7,6.9-6.2,6.1-10.8C328.8,192.3,327.4,190,325.2,188.5 M323.6,199.3c-1.5,2.1-4.3,2.7-6.5,1.4c-2.2-1.3-3.1-4-2-6.3
		c1.1-2.3,3.7-3.4,6.1-2.5c0.4,0.1,0.8,0.4,1.1,0.6c1.1,0.7,1.8,1.9,2,3.2C324.7,197,324.4,198.3,323.6,199.3L323.6,199.3z"/>
	<path class="st1" d="M340.8,204.2c-4.3,11.6-17.1,17.6-28.8,13.3c-11.6-4.3-17.6-17.1-13.3-28.8c4.3-11.6,17.1-17.6,28.8-13.3
		C339.1,179.7,345,192.6,340.8,204.2"/>
	<path class="st0" d="M179.1,212.7c-2.1,5.8-8.6,8.9-14.5,6.7c-5.8-2.1-8.8-8.6-6.7-14.5c2.1-5.8,8.6-8.9,14.5-6.7
		C178.2,200.4,181.2,206.9,179.1,212.7"/>
	<path class="st0" d="M329.7,199.2c-2.1,5.8-8.6,8.8-14.5,6.7c-5.8-2.1-8.9-8.6-6.7-14.5c2.1-5.8,8.6-8.8,14.5-6.7
		C328.8,186.8,331.8,193.3,329.7,199.2"/>
</g>
</svg>
