<?xml version="1.0" encoding="utf-8"?>
<!-- Generator: Adobe Illustrator 22.1.0, SVG Export Plug-In . SVG Version: 6.00 Build 0)  -->
<svg version="1.1" id="Calque_1" xmlns="http://www.w3.org/2000/svg" x="0px" y="0px"
     viewBox="0 0 500 500" style="enable-background:new 0 0 500 500;" xml:space="preserve">
<style type="text/css">
	.st0{fill:#EAEAEA;}
	.st1{fill:#8C8C8C;}
	.st2{fill:#FFFFFF;}
	.st3{fill:#EAEAEA;stroke:#8C8C8C;stroke-width:7;stroke-miterlimit:10;}
	.st4{fill:#070707;}
	.st5{fill:none;stroke:#8C8C8C;stroke-width:7;stroke-miterlimit:10;}
	.st6{fill:none;stroke:#8C8C8C;stroke-width:10;stroke-miterlimit:10;}
	.st7{fill:#8C8C8C;stroke:#8C8C8C;stroke-width:3;stroke-miterlimit:10;}
	.st8{fill:none;stroke:#8C8C8C;stroke-width:8;stroke-miterlimit:10;}
	.st9{fill:none;stroke:#8E8E8E;stroke-width:6;stroke-miterlimit:10;}
	.st10{fill:#8E8E8E;}
	.st11{fill:#505050;}
	.st12{fill:none;stroke:#8E8E8E;stroke-width:2;stroke-miterlimit:10;}
	.st13{fill:#8C8C8C;stroke:#8C8C8C;stroke-width:2;stroke-miterlimit:10;}
	.st14{fill:#8C8C8C;stroke:#FFFFFF;stroke-width:2;stroke-miterlimit:10;}
	.st15{fill:none;stroke:#FFFFFF;stroke-width:2;stroke-miterlimit:10;}
	.st16{fill:none;stroke:#8C8C8C;stroke-miterlimit:10;}
	.st17{fill:none;stroke:#8C8C8C;stroke-width:13;stroke-miterlimit:10;}
	.st18{fill:#EAEAEA;stroke:#8C8C8C;stroke-width:8;stroke-miterlimit:10;}
	.st19{fill:none;stroke:#8C8C8C;stroke-width:4;stroke-miterlimit:10;}
	.st20{fill:#8C8C8C;stroke:#8C8C8C;stroke-width:0.75;stroke-miterlimit:10;}
	.st21{fill:none;stroke:#8C8C8C;stroke-width:9;stroke-miterlimit:10;}
	.st22{fill:#8C8C8C;stroke:#8C8C8C;stroke-width:0.5;stroke-miterlimit:10;}
	.st23{fill:#6B6B6B;}
	.st24{fill:none;}
	.st25{stroke:#8C8C8C;stroke-width:8;stroke-miterlimit:10;}
	.st26{fill:#8C8C8C;stroke:#8C8C8C;stroke-miterlimit:10;}
	.st27{fill:none;stroke:#8C8C8C;stroke-width:11;stroke-miterlimit:10;}
	.st28{fill:none;stroke:#8C8C8C;stroke-width:6;stroke-miterlimit:10;}
	.st29{stroke:#8C8C8C;stroke-width:6;stroke-miterlimit:10;}
	.st30{fill:#8C8C8C;stroke:#8C8C8C;stroke-width:4;stroke-miterlimit:10;}
	.st31{fill:#8C8C8C;stroke:#8C8C8C;stroke-width:1.05;stroke-miterlimit:10;}
	.st32{fill:#D6D6D6;}
	.st33{fill:none;stroke:#EAEAEA;stroke-width:5;stroke-miterlimit:10;}
	.st34{fill:#8C8C8C;stroke:#8C8C8C;stroke-width:10;stroke-miterlimit:10;}
	.st35{fill:none;stroke:#CECECE;stroke-width:2;stroke-miterlimit:10;}
	.st36{fill:none;stroke:#FFFFFF;stroke-width:4;stroke-miterlimit:10;}
	.st37{fill-rule:evenodd;clip-rule:evenodd;fill:#8C8C8C;}
	.st38{fill:#8C8C8C;stroke:#8C8C8C;stroke-width:8;stroke-miterlimit:10;}
	.st39{fill:#8C8C8C;stroke:#8C8C8C;stroke-width:7;stroke-miterlimit:10;}
	.st40{fill:#DBDBDB;stroke:#8C8C8C;stroke-width:7;stroke-miterlimit:10;}
	.st41{fill:none;stroke:#8C8C8C;stroke-width:5;stroke-miterlimit:10;}
	.st42{fill:none;stroke:#8C8C8C;stroke-width:3;stroke-miterlimit:10;}
	.st43{font-family:'HelveticaNeue-CondensedBold';}
	.st44{font-size:54px;}
	.st45{clip-path:url(#SVGID_2_);fill:#8C8C8C;}
	.st46{clip-path:url(#SVGID_2_);fill:none;stroke:#8C8C8C;stroke-width:8;stroke-miterlimit:10;}
	.st47{clip-path:url(#SVGID_2_);fill:#FFFFFF;}
	.st48{clip-path:url(#SVGID_2_);fill:#EAEAEA;}
	.st49{clip-path:url(#SVGID_2_);fill:none;stroke:#8C8C8C;stroke-miterlimit:10;}
	.st50{fill:none;stroke:#FFFFFF;stroke-width:0.75;stroke-miterlimit:10;}
	.st51{fill:none;stroke:#8C8C8C;stroke-width:14;stroke-miterlimit:10;}
	.st52{fill:none;stroke:#EAEAEA;stroke-width:2;stroke-miterlimit:10;}
	.st53{fill:none;stroke:#8C8C8C;stroke-width:2;stroke-miterlimit:10;}
</style>
<rect x="-3" y="2" class="st0" width="500" height="500"/>
<g>
	<rect x="-5" y="368" class="st24" width="500" height="144"/>
	<text transform="matrix(1 0 0 1 158.0605 406.5557)" class="st23 st43 st44">Rouleau</text>
</g>
<path class="st1" d="M365.8,200.1L347,189.2l6.5-11.3c3.6-6.2,1.5-14.3-4.8-17.9l-45.6-26.4c-2.1-1.2-4.7-0.5-6,1.6
	c-1.2,2.1-0.5,4.7,1.6,6l45.6,26.4c2.1,1.2,2.8,3.9,1.6,6l-17.4,30.2c-1.2,2.1-3.9,2.8-6,1.6l-125.2-72.4c-2.1-1.2-2.8-3.9-1.6-6
	l17.4-30.2c1.2-2.1,3.9-2.8,6-1.6l45.6,26.4c2.1,1.2,4.7,0.5,6-1.6c1.2-2.1,0.5-4.7-1.6-6l-45.6-26.4c-6.2-3.6-14.3-1.5-17.9,4.8
	l-6.5,11.3c-1.6-0.8-3.2-1.6-4.8-2.4c-1.9-0.2-3.7,0.8-4.4,2.4c-0.9,1.9-0.2,4.5,1.9,5.8c1,0.6,1.9,1.2,2.9,1.8l-6.5,11.3
	c-3.6,6.2-1.5,14.3,4.8,17.9l125.2,72.4c6.2,3.6,14.3,1.5,17.9-4.8l6.5-11.3l15.1,8.7l-21.8,37.7l-89-51.4c-2.1-1.2-4.7-0.5-6,1.6
	l-18.7,32.4l-7.5-4.4c-6.2-3.6-14.3-1.5-17.9,4.8l-4.4,7.5c-2.8,4.9-2.1,10.9,1.4,15L166,296.9c-3.6,6.2-1.5,14.3,4.8,17.9l7.5,4.4
	c6.2,3.6,14.3,1.5,17.9-4.8l27.8-48.2c5.3,1,10.9-1.4,13.7-6.3l4.4-7.5c3.6-6.2,1.5-14.3-4.8-17.9l-7.5-4.4l16.6-28.7l89,51.4
	c2.1,1.2,4.7,0.5,6-1.6l26.2-45.3C368.6,203.9,367.9,201.3,365.8,200.1z M182.6,311.6l-7.5-4.4c-2.1-1.2-2.8-3.9-1.6-6l27.5-47.5
	l15.1,8.7L188.6,310C187.4,312.1,184.7,312.8,182.6,311.6z M234.5,248l-4.4,7.5c-1.2,2.1-3.9,2.8-6,1.6L201.6,244
	c-2.1-1.2-2.8-3.9-1.6-6l4.4-7.5c1.2-2.1,3.9-2.8,6-1.6l22.6,13.1C235,243.2,235.7,245.9,234.5,248z"/>
<rect x="279.7" y="55.4" transform="matrix(-0.4985 0.8669 -0.8669 -0.4985 536.0264 -54.9943)" class="st22" width="8.4" height="144.3"/>
</svg>
