<?xml version="1.0" encoding="utf-8"?>
<!-- Generator: Adobe Illustrator 22.1.0, SVG Export Plug-In . SVG Version: 6.00 Build 0)  -->
<svg version="1.1" id="Calque_1" xmlns="http://www.w3.org/2000/svg" x="0px" y="0px"
     viewBox="0 0 500 500" style="enable-background:new 0 0 500 500;" xml:space="preserve">
<style type="text/css">
	.st0{fill:#4FBDD7;}
	.st1{fill:#EAEAEA;}
	.st2{fill:#FFFFFF;}
	.st3{fill:#4FBDD7;stroke:#FFFFFF;stroke-width:5;stroke-miterlimit:10;}
	.st4{fill:#8C8C8C;}
	.st5{fill:#070707;}
	.st6{fill:none;stroke:#FFFFFF;stroke-width:7;stroke-miterlimit:10;}
	.st7{fill:none;stroke:#FFFFFF;stroke-width:10;stroke-miterlimit:10;}
	.st8{fill:#FFFFFF;stroke:#FFFFFF;stroke-width:3;stroke-miterlimit:10;}
	.st9{fill:none;stroke:#FDFFFF;stroke-width:6;stroke-miterlimit:10;}
	.st10{fill:#FAFEFF;}
	.st11{fill:none;stroke:#FFFFFF;stroke-width:2;stroke-miterlimit:10;}
	.st12{fill:#FFFFFF;stroke:#FFFFFF;stroke-width:2;stroke-miterlimit:10;}
	.st13{fill:#4FBDD7;stroke:#FFFFFF;stroke-width:4;stroke-miterlimit:10;}
	.st14{fill:#FFFFFF;stroke:#FFFFFF;stroke-width:4;stroke-miterlimit:10;}
	.st15{fill:none;stroke:#FFFFFF;stroke-miterlimit:10;}
	.st16{fill:#FFFFFF;stroke:#FFFFFF;stroke-width:13;stroke-miterlimit:10;}
	.st17{fill:#4FBDD7;stroke:#FFFFFF;stroke-width:8;stroke-miterlimit:10;}
	.st18{fill:#FFFFFF;stroke:#FFFFFF;stroke-width:0.75;stroke-miterlimit:10;}
	.st19{fill:#FFFFFF;stroke:#FFFFFF;stroke-width:0.5;stroke-miterlimit:10;}
	.st20{fill:#FFFFFF;stroke:#FFFFFF;stroke-width:8;stroke-miterlimit:10;}
	.st21{fill:#FFFFFF;stroke:#FFFFFF;stroke-miterlimit:10;}
	.st22{fill:#FFFFFF;stroke:#FFFFFF;stroke-width:11;stroke-miterlimit:10;}
	.st23{fill:#FFFFFF;stroke:#FFFFFF;stroke-width:6;stroke-miterlimit:10;}
	.st24{fill:#8C8C8C;stroke:#8C8C8C;stroke-width:4;stroke-miterlimit:10;}
	.st25{fill:#FFFFFF;stroke:#FFFFFF;stroke-width:1.05;stroke-miterlimit:10;}
	.st26{fill:none;stroke:#4FBDD7;stroke-width:5;stroke-miterlimit:10;}
	.st27{fill:none;stroke:#FFFFFF;stroke-width:4;stroke-miterlimit:10;}
	.st28{fill:#8C8C8C;stroke:#FFFFFF;stroke-width:4;stroke-miterlimit:10;}
	.st29{fill:#FFFFFF;stroke:#FFFFFF;stroke-width:10;stroke-miterlimit:10;}
	.st30{fill:none;stroke:#4FBDD7;stroke-width:2;stroke-miterlimit:10;}
	.st31{fill-rule:evenodd;clip-rule:evenodd;fill:#FFFFFF;}
	.st32{fill:none;}
	.st33{font-family:'HelveticaNeue-CondensedBold';}
	.st34{font-size:54px;}
	.st35{fill:#FFFFFF;stroke:#FFFFFF;stroke-width:7;stroke-miterlimit:10;}
	.st36{fill:#FFFFFF;stroke:#4FBDD7;stroke-width:7;stroke-miterlimit:10;}
	.st37{fill:#FCFCFC;}
	.st38{fill:#FFFFFF;stroke:#FFFFFF;stroke-width:5;stroke-miterlimit:10;}
	.st39{fill:none;stroke:#FFFFFF;stroke-width:3;stroke-miterlimit:10;}
	.st40{fill:none;stroke:#FFFFFF;stroke-width:8;stroke-miterlimit:10;}
	.st41{fill:none;stroke:#FFFFFF;stroke-width:6;stroke-miterlimit:10;}
	.st42{fill:#FFFFFF;stroke:#4FBDD7;stroke-width:3;stroke-miterlimit:10;}
	.st43{fill:none;stroke:#FFFFFF;stroke-width:0.75;stroke-miterlimit:10;}
	.st44{fill:#4FBDD7;stroke:#FFFFFF;stroke-width:9;stroke-miterlimit:10;}
	.st45{fill:none;stroke:#FFFFFF;stroke-width:9;stroke-miterlimit:10;}
	.st46{fill:none;stroke:#4FBDD7;stroke-width:3;stroke-miterlimit:10;}
</style>
<rect class="st0" width="500" height="500"/>
<path class="st2" d="M337.1,281.3l-0.5-0.5c-12.1-11.9-19.1-28.6-19.1-45.6v-21.7c0-21.6-8.9-42-24.5-56.6c0.3-0.3,0.6-0.5,0.9-0.8
	l0.1-0.1c3.3-3.3,5.1-7.6,5.1-12.2c0-4.6-1.8-9-5.1-12.2l-0.1-0.1c-5-5-12.3-6.3-18.4-3.9l8.2-16.8c0.9-1.8,0.4-3.9-1.2-5.2
	l-3.3-2.6c-6.4-5.1-15.4-5.1-21.8,0l-0.1,0c-3.3,2.6-8,2.6-11.3,0l-0.1,0c-6.4-5.1-15.4-5.1-21.8,0c-3.3,2.7-8,2.7-11.3,0l0,0
	c-6.4-5.1-15.4-5.1-21.8,0l-3.4,2.7c-1.6,1.2-2,3.4-1.2,5.2l14.9,30.6c-29.4,11.8-48.8,40.2-48.8,72.1v21.7c0,17-7,33.7-19.1,45.6
	l-0.5,0.5c-3.9,3.8-6,9.1-5.9,14.6c0.1,5.4,2.5,10.6,6.6,14.3c3.7,3.3,8.4,5,13.1,5c2.4,0,4.9-0.5,7.3-1.4l5.4-2.1
	c11.1-4.4,23.2-5.3,35-2.8c1.7,0.4,3.5,0.8,5.4,1.2c9.7,2.2,21.7,5,35.2,5s25.5-2.8,35.2-5c1.9-0.4,3.7-0.9,5.4-1.2
	c11.8-2.6,23.9-1.6,35,2.8l5.4,2.1c7,2.8,14.8,1.4,20.4-3.6c4.1-3.6,6.5-8.8,6.6-14.3C343.1,290.4,341,285.1,337.1,281.3z
	 M287.9,137.3l0.1,0.1c3.4,3.4,3.4,9,0,12.5l-0.1,0.1c-3.4,3.4-9,3.4-12.5,0l-6.4-6.4l6.4-6.4C278.9,133.8,284.5,133.8,287.9,137.3z
	 M196.2,109.4c3.3-2.6,8-2.6,11.3,0l0,0c6.4,5.1,15.4,5.1,21.8,0c3.3-2.7,8-2.7,11.3,0l0.1,0c6.4,5.1,15.4,5.1,21.8,0l0.1,0
	c3.3-2.6,8-2.6,11.3,0l0.7,0.5l-12.8,26.3l-5-5c-6.7-6.7-17.7-6.7-24.4,0l-0.1,0.1c0,0,0,0,0,0c-2.2,2.2-3.8,5-4.5,8h-17.8
	L195.5,110L196.2,109.4z M250.8,150c-3.4,3.4-9,3.4-12.5,0l-0.1-0.1c-3.4-3.4-3.4-9,0-12.5l0.1-0.1c3.4-3.4,9-3.4,12.5,0l6.4,6.4
	L250.8,150z M330.8,303.8c-3.2,2.9-7.7,3.7-11.7,2.1l-5.4-2.1c-12.7-5-26.5-6.1-39.9-3.2c-1.8,0.4-3.6,0.8-5.5,1.3
	c-9.2,2.1-20.8,4.8-33.3,4.8c-12.5,0-24-2.7-33.3-4.8c-2-0.5-3.8-0.9-5.5-1.3c-13.4-2.9-27.2-1.8-39.9,3.2l-5.4,2.1
	c-4,1.6-8.5,0.8-11.7-2.1c-2.4-2.1-3.7-5-3.8-8.2c-0.1-3.2,1.1-6.1,3.4-8.3l0.5-0.5c13.7-13.5,21.6-32.3,21.6-51.6v-21.7
	c0-29.7,18.8-56,46.9-65.6h19.8c0.8,3,2.3,5.8,4.5,8l0.1,0.1c3.3,3.3,7.6,5.1,12.2,5.1c1.6,0,3.2-0.2,4.8-0.7v13.9
	c0,2.3,1.9,4.2,4.2,4.2c2.3,0,4.2-1.9,4.2-4.2V155l5.4-5.4l3.2,3.2v36c0,2.3,1.9,4.2,4.2,4.2c2.3,0,4.2-1.9,4.2-4.2v-29.3
	c2.2,1,4.6,1.5,7,1.5c1,0,2.1-0.1,3.1-0.3c15.5,13.2,24.3,32.3,24.3,52.7v21.7c0,19.3,7.9,38.1,21.6,51.6l0.5,0.5
	c2.3,2.2,3.4,5.2,3.4,8.3C334.5,298.8,333.1,301.7,330.8,303.8z"/>
<polygon class="st31" points="260.3,191 258.3,191.3 255.6,191.8 252.4,192.5 249.1,193.5 246,194.7 244.5,195.2 243.3,195.8
	242.2,196.4 241.5,197 240.9,197.5 240.4,198.1 239.9,198.8 239.5,199.5 239.3,200.1 239.1,200.8 238.9,201.6 238.7,202.2
	238.7,203 238.9,203.7 239,204.5 239.2,205.1 239.5,205.8 239.8,206.5 240.3,207.1 240.7,207.7 250.5,199.1 251,198.9 251.3,198.8
	251.7,198.9 252.1,199.1 252.3,199.4 252.4,199.7 252.3,200.1 252.1,200.4 242.2,209.1 243,209.4 243.7,209.8 244.4,210.2
	245.3,210.4 246.1,210.6 246.8,210.7 247.7,210.8 248.5,210.8 249.3,210.7 250.1,210.6 250.9,210.4 251.7,210.1 252.4,209.8
	253.2,209.4 253.8,209 254.5,208.4 255.1,207.7 255.9,206.8 256.6,205.7 257.2,204.5 258.4,201.8 259.5,198.8 260.4,196 261,193.6
	261.3,191.9 261.4,191.4 261.3,191.1 260.9,191 "/>
<polygon class="st31" points="236,193.8 235.3,193.9 234.8,194 234.4,194.3 234,194.6 233.7,195 233.4,195.5 233.3,196 233.2,196.5
	233.2,211.4 233.8,212.9 234.3,214.5 234.5,216 234.6,217.6 234.5,219.2 234.3,220.8 233.8,222.4 233.2,223.9 233.2,250.5
	230.9,250.7 228.7,251.1 226.5,251.7 224.3,252.3 222.3,253.1 220.3,254 218.4,255 216.5,256.1 214.8,257.3 213,258.7 211.5,260.1
	209.9,261.6 208.5,263.2 207.2,265 205.9,266.7 204.8,268.5 206,269 207.4,269.5 210.4,270.4 213.8,271.2 217.7,271.8 221.8,272.3
	226.3,272.7 231,272.9 235.9,273 240.8,272.9 245.5,272.7 250.1,272.3 254.2,271.8 258.1,271.2 261.5,270.4 264.4,269.5 265.8,269
	267,268.5 265.9,266.7 264.7,265 263.3,263.2 261.9,261.6 260.3,260.1 258.8,258.7 257,257.3 255.3,256.1 253.4,255 251.5,254
	249.5,253.1 247.5,252.3 245.3,251.7 243.2,251.1 240.9,250.7 238.6,250.5 238.6,207.8 238.1,206.5 237.8,205.3 237.6,204.1
	237.5,202.9 237.6,201.6 237.8,200.3 238.1,199.1 238.6,197.9 238.6,196.5 238.5,196 238.4,195.5 238.1,195 237.8,194.6
	237.4,194.3 237,194 236.5,193.9 "/>
<polygon class="st31" points="202.3,202.3 202.1,202.4 202,202.6 202,202.8 202,203.6 202.1,204.7 202.3,206.1 203.1,209.6
	204.2,213.6 205.6,217.7 206.3,219.7 207.1,221.6 207.9,223.3 208.8,225 209.6,226.3 210.5,227.3 211.3,228 212.2,228.7
	213.1,229.2 214.2,229.7 215.2,230.1 216.2,230.4 217.2,230.6 219.3,230.6 220.3,230.5 221.3,230.4 222.4,230.1 223.3,229.7
	224.3,229.2 225.2,228.7 226.1,228 211,212.9 210.8,212.6 210.7,212.2 210.8,211.8 211,211.4 211.4,211.2 211.8,211.1 212.2,211.2
	212.5,211.4 227.6,226.5 228.2,225.6 228.8,224.6 229.3,223.7 229.8,222.7 230.1,221.7 230.2,220.6 230.3,219.6 230.3,218.5
	230.2,217.5 230.1,216.5 229.8,215.5 229.3,214.5 228.8,213.5 228.3,212.6 227.6,211.7 226.9,210.9 225.9,210 224.6,209.2
	223,208.3 221.3,207.4 219.4,206.6 217.4,205.9 213.3,204.5 209.2,203.4 205.8,202.6 204.4,202.4 203.3,202.3 "/>
<g>
	<rect x="1" y="363" class="st32" width="500" height="144"/>
	<text transform="matrix(1 0 0 1 60.5991 401.5557)" class="st2 st33 st34">Sac déchets verts</text>
</g>
</svg>
