<?xml version="1.0" encoding="utf-8"?>
<!-- Generator: Adobe Illustrator 22.1.0, SVG Export Plug-In . SVG Version: 6.00 Build 0)  -->
<svg version="1.1" id="Calque_1" xmlns="http://www.w3.org/2000/svg" x="0px" y="0px"
     viewBox="0 0 500 500" style="enable-background:new 0 0 500 500;" xml:space="preserve">
<style type="text/css">
	.st0{fill:#EAEAEA;}
	.st1{fill:#8C8C8C;}
	.st2{fill:#FFFFFF;}
	.st3{fill:#EAEAEA;stroke:#8C8C8C;stroke-width:7;stroke-miterlimit:10;}
	.st4{fill:#070707;}
	.st5{fill:none;stroke:#8C8C8C;stroke-width:7;stroke-miterlimit:10;}
	.st6{fill:none;stroke:#8C8C8C;stroke-width:10;stroke-miterlimit:10;}
	.st7{fill:#8C8C8C;stroke:#8C8C8C;stroke-width:3;stroke-miterlimit:10;}
	.st8{fill:none;stroke:#8C8C8C;stroke-width:8;stroke-miterlimit:10;}
	.st9{fill:none;stroke:#8E8E8E;stroke-width:6;stroke-miterlimit:10;}
	.st10{fill:#8E8E8E;}
	.st11{fill:#505050;}
	.st12{fill:none;stroke:#8E8E8E;stroke-width:2;stroke-miterlimit:10;}
	.st13{fill:#8C8C8C;stroke:#8C8C8C;stroke-width:2;stroke-miterlimit:10;}
	.st14{fill:#8C8C8C;stroke:#FFFFFF;stroke-width:2;stroke-miterlimit:10;}
	.st15{fill:none;stroke:#FFFFFF;stroke-width:2;stroke-miterlimit:10;}
	.st16{fill:none;stroke:#8C8C8C;stroke-miterlimit:10;}
	.st17{fill:none;stroke:#8C8C8C;stroke-width:13;stroke-miterlimit:10;}
	.st18{fill:#EAEAEA;stroke:#8C8C8C;stroke-width:8;stroke-miterlimit:10;}
	.st19{fill:none;stroke:#8C8C8C;stroke-width:4;stroke-miterlimit:10;}
	.st20{fill:#8C8C8C;stroke:#8C8C8C;stroke-width:0.75;stroke-miterlimit:10;}
	.st21{fill:none;stroke:#8C8C8C;stroke-width:9;stroke-miterlimit:10;}
	.st22{fill:#8C8C8C;stroke:#8C8C8C;stroke-width:0.5;stroke-miterlimit:10;}
	.st23{fill:none;}
	.st24{fill:#6B6B6B;}
	.st25{font-family:'HelveticaNeue-CondensedBold';}
	.st26{font-size:54px;}
	.st27{stroke:#8C8C8C;stroke-width:8;stroke-miterlimit:10;}
	.st28{fill:#8C8C8C;stroke:#8C8C8C;stroke-miterlimit:10;}
	.st29{fill:none;stroke:#8C8C8C;stroke-width:11;stroke-miterlimit:10;}
	.st30{fill:none;stroke:#8C8C8C;stroke-width:6;stroke-miterlimit:10;}
	.st31{stroke:#8C8C8C;stroke-width:6;stroke-miterlimit:10;}
	.st32{fill:#8C8C8C;stroke:#8C8C8C;stroke-width:4;stroke-miterlimit:10;}
	.st33{fill:#8C8C8C;stroke:#8C8C8C;stroke-width:1.05;stroke-miterlimit:10;}
	.st34{fill:#D6D6D6;}
	.st35{fill:none;stroke:#EAEAEA;stroke-width:5;stroke-miterlimit:10;}
	.st36{fill:#8C8C8C;stroke:#8C8C8C;stroke-width:10;stroke-miterlimit:10;}
	.st37{fill:none;stroke:#CECECE;stroke-width:2;stroke-miterlimit:10;}
	.st38{fill:none;stroke:#FFFFFF;stroke-width:4;stroke-miterlimit:10;}
	.st39{fill-rule:evenodd;clip-rule:evenodd;fill:#8C8C8C;}
	.st40{fill:#8C8C8C;stroke:#8C8C8C;stroke-width:8;stroke-miterlimit:10;}
	.st41{fill:#8C8C8C;stroke:#8C8C8C;stroke-width:7;stroke-miterlimit:10;}
	.st42{fill:#DBDBDB;stroke:#8C8C8C;stroke-width:7;stroke-miterlimit:10;}
	.st43{fill:none;stroke:#8C8C8C;stroke-width:5;stroke-miterlimit:10;}
	.st44{fill:none;stroke:#8C8C8C;stroke-width:3;stroke-miterlimit:10;}
	.st45{clip-path:url(#SVGID_2_);fill:#8C8C8C;}
	.st46{clip-path:url(#SVGID_2_);fill:none;stroke:#8C8C8C;stroke-width:8;stroke-miterlimit:10;}
	.st47{clip-path:url(#SVGID_2_);fill:#FFFFFF;}
	.st48{clip-path:url(#SVGID_2_);fill:#EAEAEA;}
	.st49{clip-path:url(#SVGID_2_);fill:none;stroke:#8C8C8C;stroke-miterlimit:10;}
	.st50{fill:none;stroke:#FFFFFF;stroke-width:0.75;stroke-miterlimit:10;}
	.st51{fill:none;stroke:#8C8C8C;stroke-width:14;stroke-miterlimit:10;}
	.st52{fill:none;stroke:#EAEAEA;stroke-width:2;stroke-miterlimit:10;}
	.st53{fill:none;stroke:#8C8C8C;stroke-width:2;stroke-miterlimit:10;}
</style>
<rect x="-1" class="st0" width="500" height="500"/>
<path class="st1" d="M326.2,154.9c0-12.4-5.3-24.3-14.5-32.6c-9.2-8.3-21.5-12.4-33.8-11.1c-0.1,0-0.1,0-0.2,0l-64.6,10
	c-1.7,0.3-2.9,1.9-2.7,3.6c0.3,1.7,1.9,2.9,3.6,2.7l64.5-10c10.5-1,21,2.4,28.9,9.5c7.9,7.1,12.4,17.3,12.4,27.8
	c0,10.6-4.5,20.7-12.4,27.8c-7.8,7.1-18.3,10.6-28.9,9.5l-96.8-14.9v-44.9l19.7-3c1.7-0.3,2.9-1.9,2.7-3.6c-0.3-1.7-1.9-2.9-3.6-2.7
	l-21.5,3.3l-25.4-10.2c-2.3-0.9-4.9-0.6-6.9,0.9c-1.8,1.3-2.9,3.5-2.9,5.7v35.5c0.2,0.5,1.1,2.3,3.2,3.2c1.2,0.5,2.3,0.5,2.9,0.5
	c0.1-13.1,0.2-26.1,0.3-39.2c0-0.5,0.5-0.9,1-0.7l24.2,9.7v46l-24.2,9.7c-0.2,0.1-0.5,0.1-0.7-0.1c0,0-0.2-0.2-0.3-0.6
	c-0.2-1.2,1-28.6-0.3-29c-0.5-0.1-1.3,2.9-3,3c-1.1,0-2.2-1.3-3-3c-0.1,15.8-0.1,27.3,0,29c0,0.4,0,1.5,0.5,2.7
	c0.5,1.3,1.4,2.4,2.6,3.2c1.9,1.3,4.4,1.6,6.6,0.7l25.4-10.2l88.6,13.7l2.1,4.7l-8.5,4.8c-2.3,1.3-4,3.5-4.7,6.1
	c-0.6,2.6-0.2,5.4,1.2,7.6l8.5,13.4l-9.3,19.1c-3.6,7.4-3.2,16,1.1,23l8,13c1.5,2.5,3.9,4.2,6.6,5v10.1c0,3.6,2.7,6.5,6.1,7h6.4
	c3.5-0.4,6.1-3.4,6.1-7v-11.2c2.6-1.5,4.6-4.1,5.3-7.2l6.2-26.4c0.4-1.7-0.7-3.4-2.4-3.8c-1.7-0.4-3.4,0.7-3.8,2.4l-6.2,26.4
	c-0.5,2.3-2.6,3.9-4.9,3.9h-9.8c-1.7,0-3.4-0.9-4.3-2.4l-8-13c-3.2-5.2-3.4-11.5-0.8-16.9l13.6-27.8c4-8.1,4.1-17.5,0.5-25.8
	c0,0,0,0,0,0c0,0,0,0,0,0l-1.6-3.6c0.8,0.1,1.6,0.2,2.3,0.4c1.6,0.2,3.2,0.3,4.8,0.3c10.8,0,21.4-4,29.5-11.4c0.5-0.4,1-0.9,1.4-1.4
	l-13.7,58.9c-0.4,1.7,0.7,3.4,2.4,3.8c1.7,0.4,3.4-0.7,3.8-2.4l17.8-76.2C325.3,165.4,326.2,160.2,326.2,154.9z M283.3,304.4h-4.6
	c-0.4,0-0.7-0.3-0.7-0.7v-9.6h5.9v9.6C283.9,304.1,283.6,304.4,283.3,304.4z M262.2,216.8c-0.5-0.8-0.7-1.7-0.4-2.6
	c0.2-0.9,0.8-1.7,1.6-2.1l7.7-4.3c1.6,5.7,1.1,11.8-1.6,17.2l-1,2L262.2,216.8z"/>
<rect x="144" y="122" class="st1" width="7" height="66"/>
<rect x="299.6" y="212.1" transform="matrix(0.9737 0.2277 -0.2277 0.9737 63.7577 -62.5103)" class="st1" width="6.4" height="66"/>
<rect x="212.7" y="89.3" transform="matrix(0.1532 0.9882 -0.9882 0.1532 305.2942 -108.2151)" class="st1" width="6.2" height="69.4"/>
<path class="st16" d="M287.7,170.5c6.3-6.2,7.1-21.7,1.8-34.7"/>
<path class="st16" d="M293.7,170.5c6.3-6.2,7.1-21.7,1.8-34.7"/>
<path class="st16" d="M290.7,170.5c6.3-6.2,7.1-21.7,1.8-34.7"/>
<path class="st16" d="M296.7,170.5c6.3-6.2,7.1-21.7,1.8-34.7"/>
<path class="st16" d="M291.5,170.5c-6.3-6.2-7.1-21.7-1.8-34.7"/>
<path class="st16" d="M285.5,170.5c-6.3-6.2-7.1-21.7-1.8-34.7"/>
<path class="st16" d="M288.5,170.5c-6.3-6.2-7.1-21.7-1.8-34.7"/>
<path class="st16" d="M282.5,170.5c-6.3-6.2-7.1-21.7-1.8-34.7"/>
<rect x="280.1" y="135" class="st1" width="19" height="2.3"/>
<rect x="281.6" y="169.7" class="st1" width="16.6" height="2.3"/>
<rect x="273.2" y="152.2" transform="matrix(6.123234e-17 -1 1 6.123234e-17 136.5791 443.163)" class="st1" width="33.4" height="2.3"/>
<g>
	<rect x="-1" y="362" class="st23" width="520" height="158"/>
	<text transform="matrix(1 0 0 1 98.5405 400.5557)" class="st24 st25 st26">Sèche cheveux</text>
</g>
</svg>
