<?xml version="1.0" encoding="utf-8"?>
<!-- Generator: Adobe Illustrator 22.1.0, SVG Export Plug-In . SVG Version: 6.00 Build 0)  -->
<svg version="1.1" id="Calque_1" xmlns="http://www.w3.org/2000/svg" xmlns:xlink="http://www.w3.org/1999/xlink" x="0px" y="0px"
	 viewBox="0 0 500 500" style="enable-background:new 0 0 500 500;" xml:space="preserve">
<style type="text/css">
	.st0{fill:#4FBDD7;}
	.st1{fill:#FFFFFF;}
	.st2{fill:none;stroke:#FFFFFF;stroke-width:7;stroke-miterlimit:10;}
	.st3{fill:none;stroke:#FFFFFF;stroke-width:10;stroke-miterlimit:10;}
	.st4{fill:#FFFFFF;stroke:#FFFFFF;stroke-width:3;stroke-miterlimit:10;}
	.st5{fill:#8C8C8C;}
	.st6{fill:none;stroke:#FFFFFF;stroke-width:8;stroke-miterlimit:10;}
	.st7{fill:#FFFFFF;stroke:#FFFFFF;stroke-width:6;stroke-miterlimit:10;}
	.st8{fill:#FFFFFF;stroke:#FFFFFF;stroke-width:2;stroke-miterlimit:10;}
	.st9{fill:#FFFFFF;stroke:#FFFFFF;stroke-miterlimit:10;}
	.st10{fill:#FFFFFF;stroke:#FFFFFF;stroke-width:8;stroke-miterlimit:10;}
	.st11{fill:none;stroke:#4FBDD7;stroke-miterlimit:10;}
	.st12{fill:none;stroke:#FFFFFF;stroke-miterlimit:10;}
	.st13{fill:#FFFFFF;stroke:#FFFFFF;stroke-width:7;stroke-miterlimit:10;}
	.st14{fill:#FFFFFF;stroke:#8C8C8C;stroke-miterlimit:10;}
	.st15{fill:#FFFFFF;stroke:#FFFFFF;stroke-width:13;stroke-miterlimit:10;}
	.st16{fill:#FFFFFF;stroke:#FFFFFF;stroke-width:10;stroke-miterlimit:10;}
	.st17{fill:#FFFFFF;stroke:#FFFFFF;stroke-width:4;stroke-miterlimit:10;}
	.st18{fill:#FFFFFF;stroke:#FFFFFF;stroke-width:0.75;stroke-miterlimit:10;}
	.st19{fill:#FFFFFF;stroke:#8C8C8C;stroke-width:0.5;stroke-miterlimit:10;}
	.st20{fill:#FFFFFF;stroke:#FDFFFF;stroke-width:8;stroke-miterlimit:10;}
	.st21{fill:none;stroke:#FDFFFF;stroke-width:8;stroke-miterlimit:10;}
	.st22{fill:#FFFFFF;stroke:#FFFFFF;stroke-width:11;stroke-miterlimit:10;}
	.st23{fill:#FFFFFF;stroke:#8C8C8C;stroke-width:4;stroke-miterlimit:10;}
	.st24{fill:#FFFFFF;stroke:#FFFFFF;stroke-width:1.05;stroke-miterlimit:10;}
	.st25{fill:none;stroke:#4FBDD7;stroke-width:5;stroke-miterlimit:10;}
	.st26{fill:#FFFFFF;stroke:#8C8C8C;stroke-width:0.75;stroke-miterlimit:10;}
	.st27{fill:#FFFFFF;stroke:#FCFCFC;stroke-width:4;stroke-miterlimit:10;}
	.st28{fill:none;stroke:#FCFCFC;stroke-width:4;stroke-miterlimit:10;}
	.st29{fill:#FFFFFF;stroke:#FCFCFC;stroke-miterlimit:10;}
	.st30{fill:#FFFFFF;stroke:#FCFCFC;stroke-width:10;stroke-miterlimit:10;}
	.st31{fill-rule:evenodd;clip-rule:evenodd;fill:#FFFFFF;}
</style>
<rect class="st0" width="500" height="500"/>
<path class="st1" d="M308.9,133.8c-0.1-7.6-3.1-14.9-8.4-20.3c-12.9-13.8-38.6-20.7-72.3-19.3c-67.9,2.7-68.6,49.9-68.6,76
	c-9.5,8.8-15,21.1-15.3,34c0,7.2,0.5,14.3,1.5,21.4c0,0.1,0,0.3,0.1,0.4c2.3,14.9,7.3,25.8,14.9,32.5c3.9,3.6,8.8,5.9,14.1,6.6v0.8
	c0,31.6,25.7,57.2,57.3,57.3h7.6c31.6,0,57.2-25.7,57.3-57.3v-0.8c5.7-0.6,11-3.1,15.1-7c9.3-8.8,13.2-24.5,11.6-46.6
	c-0.2-3.5-0.9-7-2-10.3C338.9,160.5,316.2,139.3,308.9,133.8z M228.5,101.8c42.4-1.6,59.8,9.9,66.4,16.9c3.1,3.1,5.2,7.1,6.1,11.5
	c-2.1-0.5-4.2-0.9-6.3-1.1c-19.2-14.6-43.7-20.3-67.4-15.8c-1.4,0.3-2.4,1.3-2.8,2.6c-0.4,1.3,0,2.8,0.9,3.8c1,1,2.4,1.4,3.7,1
	c17.2-3.1,35-0.4,50.4,7.7c-32.8,0.7-83.6,12.4-112.4,34.8C167.8,137.3,172.9,104,228.5,101.8z M165.7,252.6
	c-4.4-4-9.4-11.7-12-26.5c16.2-21.8,37.2-39.6,61.2-52.3c1.9-1,2.6-3.3,1.6-5.2s-3.3-2.6-5.2-1.6c-22.7,12-42.7,28.4-58.9,48.2
	c-0.3-3.4-0.4-7.1-0.4-11.2c0-11.4,5.3-21.9,15.9-31.4c31.4-28.2,96.4-39.1,124.5-36.3c0.3,0.1,0.7,0.2,1,0.2c0.1,0,0.1,0,0.2,0
	c3.2,0.2,6.4,1,9.3,2.3c2.8,1.8,25.5,17.9,14.2,52.8c-7.6-10.7-19.3-17.8-32.3-19.5c-36.1-6.5-85.3,15-109.7,68.6
	c-0.1,0.3-0.2,0.6-0.2,0.9c-0.1,0.2-0.1,0.4-0.1,0.6v15.1C171.4,256.7,168.2,255,165.7,252.6z M289.4,266
	c0,27.4-22.2,49.6-49.6,49.6h-7.6c-27.4,0-49.6-22.2-49.6-49.6v-22.7c9.1-20.4,23.9-37.8,42.6-50c28.2,0.8,47.3,6.2,56.8,16.2
	c8.1,8.5,7.7,18.9,7.5,26.5c0,1.2-0.1,2.3-0.1,3.3V266z M307,252.5c-2.7,2.7-6.2,4.4-9.9,5v-18.3c0-0.9,0-2,0.1-3.1
	c0.2-8.4,0.6-21.1-9.6-31.9c-9.5-10-25.7-15.9-49.5-17.9c14.2-6.6,30-8.9,45.5-6.6c15.4,2.8,26.2,11.1,30.5,22.9
	c1.1,3.1,1.8,6.3,2,9.5C317.5,231.5,314.4,245.4,307,252.5L307,252.5z"/>
<path class="st1" d="M209.2,235.4c-2.1,0-3.8,1.7-3.8,3.8v15.3c0,2.1,1.7,3.8,3.8,3.8c2.1,0,3.8-1.7,3.8-3.8v-15.3
	C213.1,237.1,211.3,235.4,209.2,235.4z"/>
<path class="st1" d="M262.7,235.4c-2.1,0-3.8,1.7-3.8,3.8v15.3c0,2.1,1.7,3.8,3.8,3.8c2.1,0,3.8-1.7,3.8-3.8v-15.3
	C266.5,237.1,264.8,235.4,262.7,235.4z"/>
<path class="st1" d="M255.1,277.5c-1-0.2-2,0-2.9,0.6s-1.4,1.4-1.6,2.4c-1.4,7.1-7.7,12.2-15,12.2c-7.3,0-13.5-5.1-15-12.2
	c-0.2-1.4-1.2-2.5-2.5-3s-2.8-0.2-3.8,0.8s-1.5,2.3-1.2,3.7c2.2,10.7,11.6,18.3,22.4,18.3c10.9,0,20.3-7.7,22.4-18.3
	C258.5,279.9,257.1,277.9,255.1,277.5z"/>
<g>
	<path class="st1" d="M170.5,411.6c0,0.9,0.1,1.7,0.2,2.5c0.1,0.7,0.4,1.4,0.8,1.9c0.4,0.5,0.9,0.9,1.6,1.2c0.7,0.3,1.5,0.4,2.5,0.4
		c1.2,0,2.3-0.4,3.2-1.2c1-0.8,1.4-2,1.4-3.6c0-0.9-0.1-1.6-0.4-2.2c-0.2-0.6-0.6-1.2-1.2-1.7c-0.5-0.5-1.3-1-2.1-1.4
		c-0.9-0.4-2-0.8-3.3-1.3c-1.7-0.6-3.2-1.2-4.5-1.9c-1.3-0.7-2.3-1.5-3.2-2.4c-0.8-0.9-1.5-2-1.9-3.2c-0.4-1.2-0.6-2.6-0.6-4.2
		c0-3.8,1.1-6.7,3.2-8.5c2.1-1.9,5-2.8,8.7-2.8c1.7,0,3.3,0.2,4.8,0.6s2.7,1,3.8,1.8c1.1,0.8,1.9,1.9,2.5,3.2
		c0.6,1.3,0.9,2.9,0.9,4.7v1.1h-7.5c0-1.8-0.3-3.2-1-4.2c-0.6-1-1.7-1.5-3.2-1.5c-0.9,0-1.6,0.1-2.2,0.4c-0.6,0.3-1,0.6-1.4,1
		c-0.3,0.4-0.6,0.9-0.7,1.4c-0.1,0.5-0.2,1.1-0.2,1.7c0,1.2,0.3,2.2,0.8,3c0.5,0.8,1.6,1.6,3.2,2.2l6,2.6c1.5,0.6,2.7,1.3,3.6,2
		c0.9,0.7,1.7,1.5,2.2,2.3c0.6,0.8,0.9,1.7,1.2,2.7c0.2,1,0.3,2.1,0.3,3.2c0,4.1-1.2,7-3.5,8.9c-2.4,1.9-5.6,2.8-9.9,2.8
		c-4.4,0-7.5-1-9.4-2.9c-1.9-1.9-2.8-4.6-2.8-8.2v-1.6h7.8V411.6z"/>
	<path class="st1" d="M198.4,411.5c0,0.9,0.1,1.7,0.2,2.5c0.1,0.8,0.3,1.5,0.6,2.2c0.3,0.6,0.7,1.1,1.1,1.5c0.5,0.4,1,0.6,1.7,0.6
		c1.3,0,2.2-0.4,2.8-1.4c0.6-0.9,1-2.3,1.2-4.1h6.7c-0.1,3.4-1,6-2.7,7.7c-1.7,1.8-4.3,2.6-7.8,2.6c-2.7,0-4.8-0.5-6.3-1.4
		c-1.5-0.9-2.6-2.1-3.3-3.6c-0.7-1.5-1.2-3.1-1.3-5s-0.2-3.7-0.2-5.5c0-1.9,0.1-3.8,0.4-5.6c0.3-1.8,0.8-3.4,1.6-4.8
		c0.8-1.4,2-2.5,3.5-3.3c1.5-0.8,3.5-1.2,6-1.2c2.2,0,3.9,0.4,5.3,1.1c1.4,0.7,2.5,1.7,3.3,3c0.8,1.3,1.3,2.8,1.6,4.6
		c0.3,1.8,0.4,3.8,0.4,6.1v1.7h-14.7V411.5z M205.8,401.8c-0.1-0.8-0.3-1.6-0.6-2.2c-0.3-0.6-0.6-1-1.1-1.4
		c-0.5-0.3-1.1-0.5-1.9-0.5s-1.4,0.2-1.9,0.5c-0.5,0.3-0.9,0.8-1.2,1.4c-0.3,0.6-0.5,1.2-0.6,1.9c-0.1,0.7-0.2,1.4-0.2,2.1v1.1h7.6
		C206,403.6,205.9,402.6,205.8,401.8z"/>
	<path class="st1" d="M224.2,393.5v3.9h0.1c0.8-1.4,1.7-2.5,2.8-3.4c1.1-0.8,2.4-1.3,3.9-1.3c0.2,0,0.4,0,0.7,0c0.2,0,0.5,0,0.7,0.1
		v7.1c-0.4,0-0.8-0.1-1.2-0.1c-0.4,0-0.8,0-1.2,0c-0.6,0-1.3,0.1-1.9,0.3c-0.6,0.2-1.2,0.5-1.8,0.9c-0.5,0.4-1,1-1.3,1.6
		c-0.3,0.7-0.5,1.5-0.5,2.5v17.4h-7.5v-29.1H224.2z"/>
	<path class="st1" d="M257.2,393.5l-7.3,29.1h-8.6l-7.5-29.1h7.8l4.2,20.8h0.1l3.9-20.8H257.2z"/>
	<path class="st1" d="M267.7,383.6v6.4h-7.5v-6.4H267.7z M267.7,393.5v29.1h-7.5v-29.1H267.7z"/>
	<path class="st1" d="M279.3,411.5c0,0.9,0.1,1.7,0.2,2.5c0.1,0.8,0.3,1.5,0.6,2.2c0.3,0.6,0.7,1.1,1.1,1.5c0.5,0.4,1,0.6,1.7,0.6
		c1.3,0,2.2-0.4,2.8-1.4c0.6-0.9,1-2.3,1.2-4.1h6.7c-0.1,3.4-1,6-2.7,7.7c-1.7,1.8-4.3,2.6-7.8,2.6c-2.7,0-4.8-0.5-6.3-1.4
		c-1.5-0.9-2.6-2.1-3.3-3.6c-0.7-1.5-1.2-3.1-1.3-5s-0.2-3.7-0.2-5.5c0-1.9,0.1-3.8,0.4-5.6c0.3-1.8,0.8-3.4,1.6-4.8
		c0.8-1.4,2-2.5,3.5-3.3c1.5-0.8,3.5-1.2,6-1.2c2.2,0,3.9,0.4,5.3,1.1c1.4,0.7,2.5,1.7,3.3,3c0.8,1.3,1.3,2.8,1.6,4.6
		c0.3,1.8,0.4,3.8,0.4,6.1v1.7h-14.7V411.5z M286.7,401.8c-0.1-0.8-0.3-1.6-0.6-2.2c-0.3-0.6-0.6-1-1.1-1.4
		c-0.5-0.3-1.1-0.5-1.9-0.5s-1.4,0.2-1.9,0.5c-0.5,0.3-0.9,0.8-1.2,1.4c-0.3,0.6-0.5,1.2-0.6,1.9c-0.1,0.7-0.2,1.4-0.2,2.1v1.1h7.6
		C286.9,403.6,286.8,402.6,286.7,401.8z"/>
	<path class="st1" d="M307,385.2v8.3h4.3v5.1H307v15.7c0,1.2,0.2,2,0.5,2.5c0.3,0.5,1.1,0.7,2.1,0.7c0.3,0,0.6,0,0.9,0
		c0.3,0,0.6,0,0.8-0.1v5.2c-0.8,0-1.6,0-2.4,0.1c-0.8,0.1-1.6,0.1-2.5,0.1c-1.4,0-2.6-0.1-3.5-0.3c-0.9-0.2-1.6-0.6-2.1-1.2
		c-0.5-0.6-0.8-1.4-1-2.3c-0.2-1-0.3-2.2-0.3-3.7v-16.6h-3.8v-5.1h3.8v-8.3H307z"/>
	<path class="st1" d="M323,385.2v8.3h4.3v5.1H323v15.7c0,1.2,0.2,2,0.5,2.5c0.3,0.5,1.1,0.7,2.1,0.7c0.3,0,0.6,0,0.9,0
		c0.3,0,0.6,0,0.8-0.1v5.2c-0.8,0-1.6,0-2.4,0.1c-0.8,0.1-1.6,0.1-2.5,0.1c-1.4,0-2.6-0.1-3.5-0.3c-0.9-0.2-1.6-0.6-2.1-1.2
		c-0.5-0.6-0.8-1.4-1-2.3c-0.2-1-0.3-2.2-0.3-3.7v-16.6h-3.8v-5.1h3.8v-8.3H323z"/>
	<path class="st1" d="M336.3,411.5c0,0.9,0.1,1.7,0.2,2.5c0.1,0.8,0.3,1.5,0.6,2.2c0.3,0.6,0.7,1.1,1.1,1.5c0.5,0.4,1,0.6,1.7,0.6
		c1.3,0,2.2-0.4,2.8-1.4c0.6-0.9,1-2.3,1.2-4.1h6.7c-0.1,3.4-1,6-2.7,7.7c-1.7,1.8-4.3,2.6-7.8,2.6c-2.7,0-4.8-0.5-6.3-1.4
		c-1.5-0.9-2.6-2.1-3.3-3.6c-0.7-1.5-1.2-3.1-1.3-5s-0.2-3.7-0.2-5.5c0-1.9,0.1-3.8,0.4-5.6c0.3-1.8,0.8-3.4,1.6-4.8
		c0.8-1.4,2-2.5,3.5-3.3c1.5-0.8,3.5-1.2,6-1.2c2.2,0,3.9,0.4,5.3,1.1c1.4,0.7,2.5,1.7,3.3,3c0.8,1.3,1.3,2.8,1.6,4.6
		c0.3,1.8,0.4,3.8,0.4,6.1v1.7h-14.7V411.5z M343.7,401.8c-0.1-0.8-0.3-1.6-0.6-2.2c-0.3-0.6-0.6-1-1.1-1.4
		c-0.5-0.3-1.1-0.5-1.9-0.5s-1.4,0.2-1.9,0.5c-0.5,0.3-0.9,0.8-1.2,1.4c-0.3,0.6-0.5,1.2-0.6,1.9c-0.1,0.7-0.2,1.4-0.2,2.1v1.1h7.6
		C343.9,403.6,343.8,402.6,343.7,401.8z"/>
</g>
</svg>
