<?xml version="1.0" encoding="utf-8"?>
<!-- Generator: Adobe Illustrator 22.1.0, SVG Export Plug-In . SVG Version: 6.00 Build 0)  -->
<svg version="1.1" id="Calque_1" xmlns="http://www.w3.org/2000/svg" x="0px" y="0px"
     viewBox="0 0 500 500" style="enable-background:new 0 0 500 500;" xml:space="preserve">
<style type="text/css">
	.st0{fill:#EAEAEA;}
	.st1{fill:#8C8C8C;}
	.st2{fill:#FFFFFF;}
	.st3{fill:#EAEAEA;stroke:#8C8C8C;stroke-width:7;stroke-miterlimit:10;}
	.st4{fill:#070707;}
	.st5{fill:none;stroke:#8C8C8C;stroke-width:7;stroke-miterlimit:10;}
	.st6{fill:none;stroke:#8C8C8C;stroke-width:10;stroke-miterlimit:10;}
	.st7{fill:#8C8C8C;stroke:#8C8C8C;stroke-width:3;stroke-miterlimit:10;}
	.st8{fill:none;stroke:#8C8C8C;stroke-width:8;stroke-miterlimit:10;}
	.st9{fill:none;stroke:#8E8E8E;stroke-width:6;stroke-miterlimit:10;}
	.st10{fill:#8E8E8E;}
	.st11{fill:#505050;}
	.st12{fill:none;stroke:#8E8E8E;stroke-width:2;stroke-miterlimit:10;}
	.st13{fill:#8C8C8C;stroke:#8C8C8C;stroke-width:2;stroke-miterlimit:10;}
	.st14{fill:#8C8C8C;stroke:#FFFFFF;stroke-width:2;stroke-miterlimit:10;}
	.st15{fill:none;stroke:#FFFFFF;stroke-width:2;stroke-miterlimit:10;}
	.st16{fill:none;stroke:#8C8C8C;stroke-miterlimit:10;}
	.st17{fill:none;stroke:#8C8C8C;stroke-width:13;stroke-miterlimit:10;}
	.st18{fill:#EAEAEA;stroke:#8C8C8C;stroke-width:8;stroke-miterlimit:10;}
	.st19{fill:none;stroke:#8C8C8C;stroke-width:4;stroke-miterlimit:10;}
	.st20{fill:#8C8C8C;stroke:#8C8C8C;stroke-width:0.75;stroke-miterlimit:10;}
	.st21{fill:none;stroke:#8C8C8C;stroke-width:9;stroke-miterlimit:10;}
	.st22{fill:#8C8C8C;stroke:#8C8C8C;stroke-width:0.5;stroke-miterlimit:10;}
	.st23{fill:#6B6B6B;}
	.st24{fill:none;}
	.st25{font-family:'HelveticaNeue-CondensedBold';}
	.st26{font-size:54px;}
	.st27{stroke:#8C8C8C;stroke-width:8;stroke-miterlimit:10;}
	.st28{fill:#8C8C8C;stroke:#8C8C8C;stroke-miterlimit:10;}
	.st29{fill:none;stroke:#8C8C8C;stroke-width:11;stroke-miterlimit:10;}
	.st30{fill:none;stroke:#8C8C8C;stroke-width:6;stroke-miterlimit:10;}
	.st31{stroke:#8C8C8C;stroke-width:6;stroke-miterlimit:10;}
	.st32{fill:#8C8C8C;stroke:#8C8C8C;stroke-width:4;stroke-miterlimit:10;}
	.st33{fill:#8C8C8C;stroke:#8C8C8C;stroke-width:1.05;stroke-miterlimit:10;}
	.st34{fill:#D6D6D6;}
	.st35{fill:none;stroke:#EAEAEA;stroke-width:5;stroke-miterlimit:10;}
	.st36{fill:#8C8C8C;stroke:#8C8C8C;stroke-width:10;stroke-miterlimit:10;}
	.st37{fill:none;stroke:#CECECE;stroke-width:2;stroke-miterlimit:10;}
	.st38{fill:none;stroke:#FFFFFF;stroke-width:4;stroke-miterlimit:10;}
	.st39{fill-rule:evenodd;clip-rule:evenodd;fill:#8C8C8C;}
	.st40{fill:#8C8C8C;stroke:#8C8C8C;stroke-width:8;stroke-miterlimit:10;}
	.st41{fill:#8C8C8C;stroke:#8C8C8C;stroke-width:7;stroke-miterlimit:10;}
	.st42{fill:#DBDBDB;stroke:#8C8C8C;stroke-width:7;stroke-miterlimit:10;}
	.st43{fill:none;stroke:#8C8C8C;stroke-width:5;stroke-miterlimit:10;}
	.st44{fill:none;stroke:#8C8C8C;stroke-width:3;stroke-miterlimit:10;}
	.st45{clip-path:url(#SVGID_2_);fill:#8C8C8C;}
	.st46{clip-path:url(#SVGID_2_);fill:none;stroke:#8C8C8C;stroke-width:8;stroke-miterlimit:10;}
	.st47{clip-path:url(#SVGID_2_);fill:#FFFFFF;}
	.st48{clip-path:url(#SVGID_2_);fill:#EAEAEA;}
	.st49{clip-path:url(#SVGID_2_);fill:none;stroke:#8C8C8C;stroke-miterlimit:10;}
	.st50{fill:none;stroke:#FFFFFF;stroke-width:0.75;stroke-miterlimit:10;}
	.st51{fill:none;stroke:#8C8C8C;stroke-width:14;stroke-miterlimit:10;}
	.st52{fill:none;stroke:#EAEAEA;stroke-width:2;stroke-miterlimit:10;}
	.st53{fill:none;stroke:#8C8C8C;stroke-width:2;stroke-miterlimit:10;}
</style>
<rect x="-2" y="1" class="st0" width="500" height="500"/>
<g id="l5ZpQC.tif">
	<g>
		<path class="st1" d="M117.6,297c-6-2.9-8.2-7.1-6.4-12c1.1-3.1,3.6-4.6,6.5-5.9c27.3-12.4,54.7-24.8,82-37.3
			c8.6-3.9,17.3-7.8,26.4-12c-9.9-4.5-19.3-8.8-28.7-13.1c-23.8-10.8-47.6-21.7-71.4-32.4c-2.1-0.9-4.5-1.4-6.8-1.5
			c-7.5-0.2-14.9-0.1-22.4-0.1c-8.1,0-13-4.2-13.1-11.1c-0.1-7,5-11.4,13.2-11.5c23.3,0,46.5,0,69.8,0c77.3,0,154.7,0,232,0
			c2.2,0,4.3,0,6.5,0.2c6.3,0.8,10.3,5.7,9.9,11.9c-0.3,5.9-4.9,10.4-11.1,10.5c-9.6,0.1-19.3,0-28.9,0.1c-1.5,0-3,0.3-4.4,0.9
			c-32.9,14.9-65.9,29.9-98.8,44.9c-0.7,0.3-1.3,0.7-2.4,1.2c3.2,1.5,6.1,2.8,9,4.2c33.2,15.1,66.4,30.2,99.7,45.3
			c5.7,2.6,8.2,7.5,5.7,12.1c-1.2,2.2-4,3.7-6,5.5c-1.5,0-3,0-4.5,0c-0.2-0.2-0.4-0.5-0.7-0.6c-41-18.6-81.9-37.2-122.9-55.7
			c-1.2-0.5-3-0.5-4.2,0c-41.4,18.7-82.7,37.5-124,56.3C120.2,297,118.9,297,117.6,297z M327.9,183.6c0-0.2-0.1-0.3-0.1-0.5
			c-53.4,0-106.7,0-160.8,0c1.2,0.7,1.8,1,2.3,1.3c25.4,11.6,50.9,23.2,76.4,34.6c1.3,0.6,3.4,0.4,4.8-0.2
			c22.9-10.3,45.8-20.7,68.7-31.1C322,186.3,324.9,184.9,327.9,183.6z"/>
	</g>
</g>
<path class="st1" d="M410,153c-3,3.9-16.7,3.9-44,4.1c-30.5,0.1-45.7,0.2-49-4.1c-5.8-7.5,17.3-29,46.5-29
	C392.7,124,415.8,145.5,410,153z"/>
<g>
	<rect x="-14" y="359" class="st24" width="520" height="158"/>
	<text transform="matrix(1 0 0 1 52.1973 397.5557)" class="st23 st25 st26">Table de massage</text>
</g>
</svg>
