<?xml version="1.0" encoding="utf-8"?>
<!-- Generator: Adobe Illustrator 22.1.0, SVG Export Plug-In . SVG Version: 6.00 Build 0)  -->
<svg version="1.1" id="Calque_1" xmlns="http://www.w3.org/2000/svg" x="0px" y="0px"
     viewBox="0 0 500 500" style="enable-background:new 0 0 500 500;" xml:space="preserve">
<style type="text/css">
	.st0{fill:#EAEAEA;}
	.st1{fill:#8C8C8C;}
	.st2{fill:#FFFFFF;}
	.st3{fill:#EAEAEA;stroke:#8C8C8C;stroke-width:7;stroke-miterlimit:10;}
	.st4{fill:#070707;}
	.st5{fill:none;stroke:#8C8C8C;stroke-width:7;stroke-miterlimit:10;}
	.st6{fill:none;stroke:#8C8C8C;stroke-width:10;stroke-miterlimit:10;}
	.st7{fill:#8C8C8C;stroke:#8C8C8C;stroke-width:3;stroke-miterlimit:10;}
	.st8{fill:none;stroke:#8C8C8C;stroke-width:8;stroke-miterlimit:10;}
	.st9{fill:none;stroke:#8E8E8E;stroke-width:6;stroke-miterlimit:10;}
	.st10{fill:#8E8E8E;}
	.st11{fill:#505050;}
	.st12{fill:none;stroke:#8E8E8E;stroke-width:2;stroke-miterlimit:10;}
	.st13{fill:#8C8C8C;stroke:#8C8C8C;stroke-width:2;stroke-miterlimit:10;}
	.st14{fill:#8C8C8C;stroke:#FFFFFF;stroke-width:2;stroke-miterlimit:10;}
	.st15{fill:none;stroke:#FFFFFF;stroke-width:2;stroke-miterlimit:10;}
	.st16{fill:none;stroke:#8C8C8C;stroke-miterlimit:10;}
	.st17{fill:none;stroke:#8C8C8C;stroke-width:13;stroke-miterlimit:10;}
	.st18{fill:#EAEAEA;stroke:#8C8C8C;stroke-width:8;stroke-miterlimit:10;}
	.st19{fill:none;stroke:#8C8C8C;stroke-width:4;stroke-miterlimit:10;}
	.st20{fill:#8C8C8C;stroke:#8C8C8C;stroke-width:0.75;stroke-miterlimit:10;}
	.st21{fill:none;stroke:#8C8C8C;stroke-width:9;stroke-miterlimit:10;}
	.st22{fill:#8C8C8C;stroke:#8C8C8C;stroke-width:0.5;stroke-miterlimit:10;}
	.st23{fill:#6B6B6B;}
	.st24{fill:none;}
	.st25{font-family:'HelveticaNeue-CondensedBold';}
	.st26{font-size:54px;}
	.st27{stroke:#8C8C8C;stroke-width:8;stroke-miterlimit:10;}
	.st28{fill:#8C8C8C;stroke:#8C8C8C;stroke-miterlimit:10;}
	.st29{fill:none;stroke:#8C8C8C;stroke-width:11;stroke-miterlimit:10;}
	.st30{fill:none;stroke:#8C8C8C;stroke-width:6;stroke-miterlimit:10;}
	.st31{stroke:#8C8C8C;stroke-width:6;stroke-miterlimit:10;}
	.st32{fill:#8C8C8C;stroke:#8C8C8C;stroke-width:4;stroke-miterlimit:10;}
	.st33{fill:#8C8C8C;stroke:#8C8C8C;stroke-width:1.05;stroke-miterlimit:10;}
	.st34{fill:#D6D6D6;}
	.st35{fill:none;stroke:#EAEAEA;stroke-width:5;stroke-miterlimit:10;}
	.st36{fill:#8C8C8C;stroke:#8C8C8C;stroke-width:10;stroke-miterlimit:10;}
	.st37{fill:none;stroke:#CECECE;stroke-width:2;stroke-miterlimit:10;}
	.st38{fill:none;stroke:#FFFFFF;stroke-width:4;stroke-miterlimit:10;}
	.st39{fill-rule:evenodd;clip-rule:evenodd;fill:#8C8C8C;}
	.st40{fill:#8C8C8C;stroke:#8C8C8C;stroke-width:8;stroke-miterlimit:10;}
	.st41{fill:#8C8C8C;stroke:#8C8C8C;stroke-width:7;stroke-miterlimit:10;}
	.st42{fill:#DBDBDB;stroke:#8C8C8C;stroke-width:7;stroke-miterlimit:10;}
	.st43{fill:none;stroke:#8C8C8C;stroke-width:5;stroke-miterlimit:10;}
	.st44{fill:none;stroke:#8C8C8C;stroke-width:3;stroke-miterlimit:10;}
	.st45{clip-path:url(#SVGID_2_);fill:#8C8C8C;}
	.st46{clip-path:url(#SVGID_2_);fill:none;stroke:#8C8C8C;stroke-width:8;stroke-miterlimit:10;}
	.st47{clip-path:url(#SVGID_2_);fill:#FFFFFF;}
	.st48{clip-path:url(#SVGID_2_);fill:#EAEAEA;}
	.st49{clip-path:url(#SVGID_2_);fill:none;stroke:#8C8C8C;stroke-miterlimit:10;}
	.st50{fill:none;stroke:#FFFFFF;stroke-width:0.75;stroke-miterlimit:10;}
	.st51{fill:none;stroke:#8C8C8C;stroke-width:14;stroke-miterlimit:10;}
	.st52{fill:none;stroke:#EAEAEA;stroke-width:2;stroke-miterlimit:10;}
	.st53{fill:none;stroke:#8C8C8C;stroke-width:2;stroke-miterlimit:10;}
</style>
<rect y="-1" class="st0" width="500" height="500"/>
<g id="surface1_1_">
	<path class="st1" d="M353.3,91.8l-11.4,12.4c-1.9,2-3.2,5-3,6.6c0.2,1.6,2,1.3,3.8-0.8l1.7-1.8l0.3,1.8c0.2,1.6,2,1.3,3.8-0.8
		c0.9-1,1.7-2.3,2.3-3.5c0.5-1.2,0.8-2.3,0.7-3.1l-0.3-1.8"/>
	<path class="st1" d="M344,102c-5.3,5.8-10.6,11.6-15.9,17.3c-0.3,0.5-0.6,1.3-0.9,2.2c-0.1,0.2-0.8,2.3-0.7,3.1
		c0.2,1.6,2,1.3,3.8-0.8l1.7-1.8l0.3,1.8c0.2,1.6,2,1.3,3.8-0.8c0.9-1,1.7-2.3,2.3-3.5c0.2-0.5,0.3-0.8,0.7-3.1
		c0-0.3,0.1-1.5,0.4-2.3c0.4-1.1,1.7-3.1,6-6.9"/>
	<path class="st1" d="M247.9,220.8l-17.8-19.8c-1.9-2.1-3.8-4.2-5.6-6.3l-5.3-5.9c-9.1-10.2-25.7-12.2-37-4.4l-22.3,15.3
		c-4.6,3.1-5.3,9-1.6,13.2l9.6,10.8c3.7,4.2,3,10.2-1.6,13.4c-2.2,1.5-5.1,2.2-7.9,1.9c-2.9-0.3-5.4-1.7-7.3-3.7l-2.6-2.9
		c-1.5-1.7-3.8-2.5-6.2-2.2c-2.3,0.3-4.2,1.7-4.9,3.7l-7,19.3c-1,2.8-3,5.3-5.6,7.1c-11.3,7.7-13,22.3-3.9,32.5l20.2,22.6
		c9.1,10.2,25.7,12.2,37,4.4l6.9-4.7c0.4-0.2,0.8-0.4,1.2-0.7c23.1-16,46.3-31.9,69.4-47.9c5.5-3.7,8.9-9.2,9.6-15.3
		c0.7-6.1-1.3-12.2-5.7-17.2l-6.1-6.8C251.6,225,249.7,222.9,247.9,220.8z M252.7,238.7c2.9,3.3,4.2,7.3,3.8,11.3
		c-0.5,4-2.7,7.6-6.3,10.1c-23.1,15.8-46.1,31.6-69.2,47.4c-0.3,0.2-0.7,0.5-0.9,0.8l-7.5,5.1c-7.4,5.1-18.4,3.8-24.4-2.9
		l-20.2-22.6c-6-6.7-4.9-16.3,2.6-21.4c4-2.8,7-6.5,8.5-10.8l5.6-15.4c3.3,3.5,7.9,5.7,12.9,6.3c5.2,0.6,10.4-0.6,14.5-3.4
		c5.3-3.7,7.8-9.4,7.2-15c-0.2-1.5-0.6-3.1-1.2-4.5c-0.7-1.7-1.8-3.4-3.1-4.9l-9.6-10.8c-0.6-0.6-0.5-1.6,0.2-2.1l22.3-15.3
		c7.4-5.1,18.4-3.8,24.4,2.9L252.7,238.7z"/>
	<path class="st1" d="M382.3,42.4c-2.8-2-9-0.5-13.8,4.9l-0.3-2.1c-0.2-1.6-2-1.3-3.8,0.8c-1.9,2-3.2,5-3,6.6l0.3,1.8l-5.2,5.6
		l-0.3-1.8c-0.2-1.6-2-1.3-3.8,0.8c-1.9,2-3.2,5-3,6.6l0.3,1.8l-5.2,5.6l-0.3-1.8c-0.2-1.6-2-1.3-3.8,0.8c-1.9,2-3.2,5-3,6.6
		l0.3,1.8l-5.2,5.6l-0.3-1.8c-0.2-1.6-2-1.3-3.8,0.8c-1.9,2-3.2,5-3,6.6l0.3,1.8l-5.2,5.6l-0.3-1.8c-0.2-1.6-2-1.3-3.8,0.8
		c-1.9,2-3.2,5-3,6.6l0.3,1.8l-5.2,5.6l-0.3-1.8c-0.2-1.6-2-1.3-3.8,0.8c-1.9,2-3.2,5-3,6.6l0.3,1.8l-5.2,5.6l-0.3-1.8
		c-0.2-1.6-2-1.3-3.8,0.8c-1.9,2-3.2,5-3,6.6l0.3,1.8l-5.2,5.6l-0.3-1.8c-0.2-1.6-2-1.3-3.8,0.8c-1.9,2-3.2,5-3,6.6l0.3,1.8
		l-5.2,5.6l-0.3-1.8c-0.2-1.6-2-1.3-3.8,0.8c-1.9,2-3.2,5-3,6.6l0.3,1.8l-5.2,5.6l-0.3-1.8c-0.2-1.6-2-1.3-3.8,0.8
		c-1.9,2-3.2,5-3,6.6l0.3,1.8l-5.2,5.6l-0.3-1.8c-0.2-1.6-2-1.3-3.8,0.8c-1.9,2-3.2,5-3,6.6l0.3,1.8l-5.2,5.6l-0.3-1.8
		c-0.2-1.6-2-1.3-3.8,0.8c-1.9,2-3.2,5-3,6.6c0.1,0.8,0.1,1.6,0.2,2.4c-0.6,0.7-1.3,1.3-1.9,2c0.4,1.6,0.6,3.5,0.8,5.6L365.8,56.7
		c2.9-3.1,5.6-4.9,7.7-5.5c0.1,0,0.2,0,0.3,0c0.1,0,0.2,0,0.3-0.1c2-0.3,3.4,0.7,3.8,3.1c0,0,0,0,0,0c0,0,0,0,0,0
		c0.2,1.1,0.1,2.4-0.2,3.8c-0.3,1.6-0.9,3.4-1.7,5.3c-0.1,0.2-0.2,0.4-0.3,0.6c-0.1,0.2-0.2,0.4-0.2,0.6c-1.8,3.8-4.2,7.5-6.9,10.4
		l-17.5,19l-2.1,9.1l5.2-5.6l0.3,1.8c0.2,1.6,2,1.3,3.8-0.8c0.9-1,1.7-2.3,2.3-3.5c0.5-1.2,0.8-2.3,0.7-3.1l-0.3-1.8l5.2-5.6
		l0.3,1.8c0.2,1.6,2,1.3,3.8-0.8c0.9-1,1.7-2.3,2.3-3.5c0.5-1.2,0.8-2.3,0.7-3.1l-0.3-2.1c2.2-2.8,4.2-5.9,6-9.1l2-0.4
		c1.5-0.3,3.7-2.6,4.8-5.2c1.2-2.6,0.9-4.4-0.6-4.1l-2,0.4c0.4-1,0.9-2.5,1.2-4.3C384.5,52.8,385.8,44.9,382.3,42.4z"/>
	<path class="st1" d="M326,121.4l-88.8,96.5c1.3,1.9,2.7,3.7,4.1,5.4c0.1-0.4,0.1-0.7,0-1.1l-0.3-1.8l5.2-5.6l0.3,1.8
		c0.2,1.6,2,1.3,3.8-0.8c0.9-1,1.7-2.3,2.3-3.5c0.5-1.2,0.8-2.3,0.7-3.1l-0.3-1.8l5.2-5.6l0.3,1.8c0.2,1.6,2,1.3,3.8-0.8
		c0.9-1,1.7-2.3,2.3-3.5c0.5-1.2,0.8-2.3,0.7-3.1l-0.3-1.8l5.2-5.6l0.3,1.8c0.2,1.6,2,1.3,3.8-0.8c0.9-1,1.7-2.3,2.3-3.5
		c0.5-1.2,0.8-2.3,0.7-3.1l-0.3-1.8l5.2-5.6l0.3,1.8c0.2,1.6,2,1.3,3.8-0.8c0.9-1,1.7-2.3,2.3-3.5c0.5-1.2,0.8-2.3,0.7-3.1l-0.3-1.8
		l5.2-5.6l0.3,1.8c0.2,1.6,2,1.3,3.8-0.8c0.9-1,1.7-2.3,2.3-3.5c0.5-1.2,0.8-2.3,0.7-3.1l-0.3-1.8l5.2-5.6l0.3,1.8
		c0.2,1.6,2,1.3,3.8-0.8c0.9-1,1.7-2.3,2.3-3.5c0.5-1.2,0.8-2.3,0.7-3.1l-0.3-1.8l5.2-5.6l0.3,1.8c0.2,1.6,2,1.3,3.8-0.8
		c0.9-1,1.7-2.3,2.3-3.5c0.5-1.2,0.8-2.3,0.7-3.1l-0.3-1.8l1.9-2c1.9-2,3.2-5,3-6.6C329.6,119,327.9,119.3,326,121.4z"/>
	<path class="st1" d="M237,237.6c0.4-3.4-0.7-7-3.3-9.9c-5.3-5.9-14.8-7-21.4-2.6c-6.5,4.5-7.5,12.9-2.3,18.8
		c5.3,5.9,14.8,7,21.4,2.6C234.7,244.2,236.6,241,237,237.6z M215.7,235.1c0.2-1.4,0.9-2.7,2.3-3.6c2.7-1.8,6.6-1.4,8.8,1.1
		c2.2,2.4,1.7,5.9-0.9,7.7c-2.7,1.8-6.6,1.4-8.8-1.1C216,237.9,215.5,236.4,215.7,235.1z"/>
	<path class="st1" d="M167.3,285.5c0.4-3.5-0.7-7.1-3.3-9.9c-2.6-2.9-6.2-4.7-10.2-5.2c-4-0.5-8,0.4-11.1,2.6
		c-3.2,2.2-5.1,5.3-5.6,8.9c-0.4,3.5,0.7,7.1,3.3,9.9c5.3,5.9,14.8,7,21.4,2.6C164.9,292.2,166.9,289,167.3,285.5z M147.4,287
		c-1-1.2-1.5-2.6-1.4-4.1c0.2-1.5,1-2.7,2.3-3.6c1.3-0.9,2.9-1.3,4.6-1.1s3.1,1,4.2,2.1c1,1.2,1.5,2.6,1.4,4.1s-1,2.7-2.3,3.6
		C153.5,289.9,149.5,289.4,147.4,287z"/>
	<path class="st1" d="M138.5,217.6l12.6,14.1c2.9,3.2,8.1,3.9,11.7,1.4c1.8-1.2,2.8-3,3-4.9s-0.4-3.8-1.8-5.5l-12.6-14.1
		c-2.9-3.2-8.2-3.9-11.7-1.4C136.2,209.8,135.6,214.4,138.5,217.6z"/>
</g>
<g>
	<g>
		<path class="st1" d="M206.6,282.9c-1-5.3-6.1-7.8-8.9-11.8c-1.4-2.1-2.7-4.4-4.3-6.3c-1.4-1.7-3-3.7-6-3.8c-1.2,0-2.9,1.6-2.3,2.3
			c1.4,1.8,3.4,3.1,4.8,5c1.4,1.9,2.6,3.9,3.9,5.8c2.6,3.8,7.6,6.2,8.5,11.2C202.7,287,207,284.7,206.6,282.9z"/>
	</g>
</g>
<g>
	<g>
		<path class="st1" d="M212.5,278.3c-1-5.3-6.1-7.8-8.9-11.8c-1.4-2.1-2.7-4.4-4.3-6.3c-1.4-1.7-3-3.7-6-3.8c-1.2,0-2.9,1.6-2.3,2.3
			c1.4,1.8,3.4,3.1,4.8,5c1.4,1.9,2.6,3.9,3.9,5.8c2.6,3.8,7.6,6.2,8.5,11.2C208.5,282.5,212.8,280.1,212.5,278.3z"/>
	</g>
</g>
<g>
	<g>
		<path class="st1" d="M200.8,287.5c-1-5.3-6.1-7.8-8.9-11.8c-1.4-2.1-2.7-4.4-4.3-6.3c-1.4-1.7-3-3.7-6-3.8c-1.2,0-2.9,1.6-2.3,2.3
			c1.4,1.8,3.4,3.1,4.8,5c1.4,1.9,2.6,3.9,3.9,5.8c2.6,3.8,7.6,6.2,8.5,11.2C196.9,291.6,201.1,289.2,200.8,287.5z"/>
	</g>
</g>
<path class="st1" d="M248.1,211.3l-0.2,0.2c-1.7,1.4-4.2,1.3-5.6-0.4l-9.6-11.1c-1.4-1.7-1.3-4.2,0.4-5.6l0.2-0.2
	c1.7-1.4,4.2-1.3,5.6,0.4l9.6,11.1C249.9,207.3,249.8,209.9,248.1,211.3z"/>
<path class="st1" d="M259.2,196.2l-0.2,0.2c-1.7,1.4-4.2,1.3-5.6-0.4l-9.6-11.1c-1.4-1.7-1.3-4.2,0.4-5.6l0.2-0.2
	c1.7-1.4,4.2-1.3,5.6,0.4l9.6,11.1C261,192.2,260.8,194.7,259.2,196.2z"/>
<path class="st1" d="M271.4,184.2l-0.2,0.2c-1.7,1.4-4.2,1.3-5.6-0.4l-9.6-11.1c-1.4-1.7-1.3-4.2,0.4-5.6l0.2-0.2
	c1.7-1.4,4.2-1.3,5.6,0.4l9.6,11.1C273.3,180.2,273.1,182.8,271.4,184.2z"/>
<path class="st1" d="M285,172.7l-0.2,0.2c-1.7,1.4-4.2,1.3-5.6-0.4l-9.6-11.1c-1.4-1.7-1.3-4.2,0.4-5.6l0.2-0.2
	c1.7-1.4,4.2-1.3,5.6,0.4l9.6,11.1C286.9,168.7,286.7,171.2,285,172.7z"/>
<path class="st1" d="M296.1,157.6l-0.2,0.2c-1.7,1.4-4.2,1.3-5.6-0.4l-9.6-11.1c-1.4-1.7-1.3-4.2,0.4-5.6l0.2-0.2
	c1.7-1.4,4.2-1.3,5.6,0.4l9.6,11.1C298,153.6,297.8,156.1,296.1,157.6z"/>
<path class="st1" d="M308.4,145.6l-0.2,0.2c-1.7,1.4-4.2,1.3-5.6-0.4l-9.6-11.1c-1.4-1.7-1.3-4.2,0.4-5.6l0.2-0.2
	c1.7-1.4,4.2-1.3,5.6,0.4l9.6,11.1C310.2,141.6,310,144.2,308.4,145.6z"/>
<path class="st1" d="M320.6,132.3l-0.2,0.2c-1.7,1.4-4.2,1.3-5.6-0.4l-9.6-11.1c-1.4-1.7-1.3-4.2,0.4-5.6l0.2-0.2
	c1.7-1.4,4.2-1.3,5.6,0.4l9.6,11.1C322.5,128.3,322.3,130.8,320.6,132.3z"/>
<path class="st1" d="M332.6,117.6l-0.2,0.2c-1.7,1.4-4.2,1.3-5.6-0.4l-9.6-11.1c-1.4-1.7-1.3-4.2,0.4-5.6l0.2-0.2
	c1.7-1.4,4.2-1.3,5.6,0.4l9.6,11.1C334.5,113.6,334.3,116.2,332.6,117.6z"/>
<path class="st1" d="M344,105.2l-0.2,0.2c-1.7,1.4-4.2,1.3-5.6-0.4l-9.6-11.1c-1.4-1.7-1.3-4.2,0.4-5.6l0.2-0.2
	c1.7-1.4,4.2-1.3,5.6,0.4l9.6,11.1C345.8,101.2,345.6,103.8,344,105.2z"/>
<path class="st1" d="M345.6,108.9l-0.2,0.2c-1.7,1.4-4.2,1.3-5.6-0.4l-9.6-11.1c-1.4-1.7-1.3-4.2,0.4-5.6l0.2-0.2
	c1.7-1.4,4.2-1.3,5.6,0.4l9.6,11.1C347.4,104.9,347.2,107.5,345.6,108.9z"/>
<path class="st1" d="M356.7,93.8l-0.2,0.2c-1.7,1.4-4.2,1.3-5.6-0.4l-9.6-11.1c-1.4-1.7-1.3-4.2,0.4-5.6l0.2-0.2
	c1.7-1.4,4.2-1.3,5.6,0.4l9.6,11.1C358.5,89.8,358.3,92.3,356.7,93.8z"/>
<path class="st1" d="M368.9,81.8l-0.2,0.2c-1.7,1.4-4.2,1.3-5.6-0.4l-9.6-11.1c-1.4-1.7-1.3-4.2,0.4-5.6l0.2-0.2
	c1.7-1.4,4.2-1.3,5.6,0.4l9.6,11.1C370.8,77.8,370.6,80.4,368.9,81.8z"/>
<path class="st1" d="M379.4,65.4l-0.2,0.2c-1.7,1.4-4.2,1.3-5.6-0.4l-9.6-11.1c-1.4-1.7-1.3-4.2,0.4-5.6l0.2-0.2
	c1.7-1.4,4.2-1.3,5.6,0.4l9.6,11.1C381.2,61.4,381,63.9,379.4,65.4z"/>
<g>
	<rect x="-2" y="363" class="st24" width="500" height="144"/>
	<text transform="matrix(1 0 0 1 122.6685 401.5557)" class="st23 st25 st26">Taille-haies</text>
</g>
</svg>
