<?xml version="1.0" encoding="utf-8"?>
<!-- Generator: Adobe Illustrator 22.1.0, SVG Export Plug-In . SVG Version: 6.00 Build 0)  -->
<svg version="1.1" id="Calque_1" xmlns="http://www.w3.org/2000/svg" x="0px" y="0px"
     viewBox="0 0 500 500" style="enable-background:new 0 0 500 500;" xml:space="preserve">
<style type="text/css">
	.st0{fill:#EAEAEA;}
	.st1{fill:#8C8C8C;}
	.st2{fill:none;}
	.st3{fill:#6B6B6B;}
	.st4{font-family:'HelveticaNeue-CondensedBold';}
	.st5{font-size:54px;}
	.st6{fill:#FFFFFF;}
	.st7{fill:#EAEAEA;stroke:#8C8C8C;stroke-width:7;stroke-miterlimit:10;}
	.st8{fill:#070707;}
	.st9{fill:none;stroke:#8C8C8C;stroke-width:7;stroke-miterlimit:10;}
	.st10{fill:none;stroke:#8C8C8C;stroke-width:10;stroke-miterlimit:10;}
	.st11{fill:#8C8C8C;stroke:#8C8C8C;stroke-width:3;stroke-miterlimit:10;}
	.st12{fill:none;stroke:#8C8C8C;stroke-width:8;stroke-miterlimit:10;}
	.st13{fill:none;stroke:#8E8E8E;stroke-width:6;stroke-miterlimit:10;}
	.st14{fill:#8E8E8E;}
	.st15{fill:#505050;}
	.st16{fill:none;stroke:#8E8E8E;stroke-width:2;stroke-miterlimit:10;}
	.st17{fill:#8C8C8C;stroke:#8C8C8C;stroke-width:2;stroke-miterlimit:10;}
	.st18{fill:#8C8C8C;stroke:#FFFFFF;stroke-width:2;stroke-miterlimit:10;}
	.st19{fill:none;stroke:#FFFFFF;stroke-width:2;stroke-miterlimit:10;}
	.st20{fill:none;stroke:#8C8C8C;stroke-miterlimit:10;}
	.st21{fill:none;stroke:#8C8C8C;stroke-width:13;stroke-miterlimit:10;}
	.st22{fill:#EAEAEA;stroke:#8C8C8C;stroke-width:8;stroke-miterlimit:10;}
	.st23{fill:none;stroke:#8C8C8C;stroke-width:4;stroke-miterlimit:10;}
	.st24{fill:#8C8C8C;stroke:#8C8C8C;stroke-width:0.75;stroke-miterlimit:10;}
	.st25{fill:none;stroke:#8C8C8C;stroke-width:9;stroke-miterlimit:10;}
	.st26{fill:#8C8C8C;stroke:#8C8C8C;stroke-width:0.5;stroke-miterlimit:10;}
	.st27{stroke:#8C8C8C;stroke-width:8;stroke-miterlimit:10;}
	.st28{fill:#8C8C8C;stroke:#8C8C8C;stroke-miterlimit:10;}
	.st29{fill:none;stroke:#8C8C8C;stroke-width:11;stroke-miterlimit:10;}
	.st30{fill:none;stroke:#8C8C8C;stroke-width:6;stroke-miterlimit:10;}
	.st31{stroke:#8C8C8C;stroke-width:6;stroke-miterlimit:10;}
	.st32{fill:#8C8C8C;stroke:#8C8C8C;stroke-width:4;stroke-miterlimit:10;}
	.st33{fill:#8C8C8C;stroke:#8C8C8C;stroke-width:1.05;stroke-miterlimit:10;}
	.st34{fill:#D6D6D6;}
	.st35{fill:none;stroke:#EAEAEA;stroke-width:5;stroke-miterlimit:10;}
	.st36{fill:#8C8C8C;stroke:#8C8C8C;stroke-width:10;stroke-miterlimit:10;}
	.st37{fill:none;stroke:#CECECE;stroke-width:2;stroke-miterlimit:10;}
	.st38{fill:none;stroke:#FFFFFF;stroke-width:4;stroke-miterlimit:10;}
	.st39{fill-rule:evenodd;clip-rule:evenodd;fill:#8C8C8C;}
	.st40{fill:#8C8C8C;stroke:#8C8C8C;stroke-width:8;stroke-miterlimit:10;}
	.st41{fill:#8C8C8C;stroke:#8C8C8C;stroke-width:7;stroke-miterlimit:10;}
	.st42{fill:#DBDBDB;stroke:#8C8C8C;stroke-width:7;stroke-miterlimit:10;}
	.st43{fill:none;stroke:#8C8C8C;stroke-width:5;stroke-miterlimit:10;}
	.st44{fill:none;stroke:#8C8C8C;stroke-width:3;stroke-miterlimit:10;}
	.st45{clip-path:url(#SVGID_2_);fill:#8C8C8C;}
	.st46{clip-path:url(#SVGID_2_);fill:none;stroke:#8C8C8C;stroke-width:8;stroke-miterlimit:10;}
	.st47{clip-path:url(#SVGID_2_);fill:#FFFFFF;}
	.st48{clip-path:url(#SVGID_2_);fill:#EAEAEA;}
	.st49{clip-path:url(#SVGID_2_);fill:none;stroke:#8C8C8C;stroke-miterlimit:10;}
	.st50{fill:none;stroke:#FFFFFF;stroke-width:0.75;stroke-miterlimit:10;}
	.st51{fill:none;stroke:#8C8C8C;stroke-width:14;stroke-miterlimit:10;}
	.st52{fill:none;stroke:#EAEAEA;stroke-width:2;stroke-miterlimit:10;}
	.st53{fill:none;stroke:#8C8C8C;stroke-width:2;stroke-miterlimit:10;}
</style>
<rect x="2" y="1" class="st0" width="500" height="500"/>
<g>
	<rect x="-3" y="364" class="st2" width="500" height="144"/>
	<text transform="matrix(1 0 0 1 163.1118 402.5557)" class="st3 st4 st5">Taloche</text>
</g>
<rect x="160.2" y="168.8" transform="matrix(0.8828 -0.4697 0.4697 0.8828 -71.3521 98.9013)" class="st6" width="4.6" height="47.3"/>
<rect x="160.2" y="168.8" transform="matrix(0.8828 -0.4697 0.4697 0.8828 -71.3521 98.9013)" class="st10" width="4.6" height="47.3"/>
<g>
	<path class="st20" d="M226.1,126c9.5-3.1,19.4-5.5,29.8-7.1c76.8-12.2,146.1,22.7,154.8,77.8c1.1,6.7,1.2,13.3,0.4,19.9"/>
	<path class="st10" d="M226.1,126c9.5-3.1,19.4-5.5,29.8-7.1c76.8-12.2,146.1,22.7,154.8,77.8c1.1,6.7,1.2,13.3,0.4,19.9"/>
	<path class="st20" d="M243,168.8c7-2.3,14.3-4.1,22-5.3c56.6-9,107.7,16.7,114.2,57.4c0.8,4.9,0.9,9.8,0.3,14.7"/>
	<path class="st10" d="M243,168.8c7-2.3,14.3-4.1,22-5.3c56.6-9,107.7,16.7,114.2,57.4c0.8,4.9,0.9,9.8,0.3,14.7"/>
	<path class="st20" d="M274.1,203.6c3-1,6.2-1.7,9.5-2.3c24.4-3.9,46.5,7.2,49.3,24.8c0.3,2.1,0.4,4.2,0.1,6.3"/>
	<path class="st10" d="M274.1,203.6c3-1,6.2-1.7,9.5-2.3c24.4-3.9,46.5,7.2,49.3,24.8c0.3,2.1,0.4,4.2,0.1,6.3"/>
	<path class="st20" d="M331.9,292.1c2.6-4,5.5-7.9,8.8-11.6c24.6-27.6,60.7-35.7,80.5-18c2.4,2.1,4.4,4.5,6.2,7.2"/>
	<path class="st10" d="M331.9,292.1c2.6-4,5.5-7.9,8.8-11.6c24.6-27.6,60.7-35.7,80.5-18c2.4,2.1,4.4,4.5,6.2,7.2"/>
	<path class="st20" d="M363.6,295.3c1.1-1.7,2.3-3.3,3.7-4.9c10.3-11.6,25.4-14.9,33.7-7.5c1,0.9,1.9,1.9,2.6,3"/>
	<path class="st10" d="M363.6,295.3c1.1-1.7,2.3-3.3,3.7-4.9c10.3-11.6,25.4-14.9,33.7-7.5c1,0.9,1.9,1.9,2.6,3"/>
</g>
<g>

		<rect x="111.2" y="105" transform="matrix(0.8831 -0.4691 0.4691 0.8831 -73.6788 99.2362)" class="st10" width="102.3" height="185"/>
</g>
</svg>
