<?xml version="1.0" encoding="utf-8"?>
<!-- Generator: Adobe Illustrator 22.1.0, SVG Export Plug-In . SVG Version: 6.00 Build 0)  -->
<svg style="enable-background:new 0 0 500 500;" id="Calque_1" version="1.1" viewBox="0 0 500 500" x="0px"
     xmlns="http://www.w3.org/2000/svg" y="0px" xml:space="preserve">
<style type="text/css">
	.st0{fill:#EAEAEA;}
	.st1{fill:#8C8C8C;}
	.st2{fill:none;}
	.st3{fill:#6B6B6B;}
	.st4{font-family:'HelveticaNeue-CondensedBold';}
	.st5{font-size:54px;}
	.st6{fill:#FFFFFF;}
	.st7{fill:#EAEAEA;stroke:#8C8C8C;stroke-width:7;stroke-miterlimit:10;}
	.st8{fill:#070707;}
	.st9{fill:none;stroke:#8C8C8C;stroke-width:7;stroke-miterlimit:10;}
	.st10{fill:none;stroke:#8C8C8C;stroke-width:10;stroke-miterlimit:10;}
	.st11{fill:#8C8C8C;stroke:#8C8C8C;stroke-width:3;stroke-miterlimit:10;}
	.st12{fill:none;stroke:#8C8C8C;stroke-width:8;stroke-miterlimit:10;}
	.st13{fill:none;stroke:#8E8E8E;stroke-width:6;stroke-miterlimit:10;}
	.st14{fill:#8E8E8E;}
	.st15{fill:#505050;}
	.st16{fill:none;stroke:#8E8E8E;stroke-width:2;stroke-miterlimit:10;}
	.st17{fill:#8C8C8C;stroke:#8C8C8C;stroke-width:2;stroke-miterlimit:10;}
	.st18{fill:#8C8C8C;stroke:#FFFFFF;stroke-width:2;stroke-miterlimit:10;}
	.st19{fill:none;stroke:#FFFFFF;stroke-width:2;stroke-miterlimit:10;}
	.st20{fill:none;stroke:#8C8C8C;stroke-miterlimit:10;}
	.st21{fill:none;stroke:#8C8C8C;stroke-width:13;stroke-miterlimit:10;}
	.st22{fill:#EAEAEA;stroke:#8C8C8C;stroke-width:8;stroke-miterlimit:10;}
	.st23{fill:none;stroke:#8C8C8C;stroke-width:4;stroke-miterlimit:10;}
	.st24{fill:#8C8C8C;stroke:#8C8C8C;stroke-width:0.75;stroke-miterlimit:10;}
	.st25{fill:none;stroke:#8C8C8C;stroke-width:9;stroke-miterlimit:10;}
	.st26{fill:#8C8C8C;stroke:#8C8C8C;stroke-width:0.5;stroke-miterlimit:10;}
	.st27{stroke:#8C8C8C;stroke-width:8;stroke-miterlimit:10;}
	.st28{fill:#8C8C8C;stroke:#8C8C8C;stroke-miterlimit:10;}
	.st29{fill:none;stroke:#8C8C8C;stroke-width:11;stroke-miterlimit:10;}
	.st30{fill:none;stroke:#8C8C8C;stroke-width:6;stroke-miterlimit:10;}
	.st31{stroke:#8C8C8C;stroke-width:6;stroke-miterlimit:10;}
	.st32{fill:#8C8C8C;stroke:#8C8C8C;stroke-width:4;stroke-miterlimit:10;}
	.st33{fill:#8C8C8C;stroke:#8C8C8C;stroke-width:1.05;stroke-miterlimit:10;}
	.st34{fill:#D6D6D6;}
	.st35{fill:none;stroke:#EAEAEA;stroke-width:5;stroke-miterlimit:10;}
	.st36{fill:#8C8C8C;stroke:#8C8C8C;stroke-width:10;stroke-miterlimit:10;}
	.st37{fill:none;stroke:#CECECE;stroke-width:2;stroke-miterlimit:10;}
	.st38{fill:none;stroke:#FFFFFF;stroke-width:4;stroke-miterlimit:10;}
	.st39{fill-rule:evenodd;clip-rule:evenodd;fill:#8C8C8C;}
	.st40{fill:#8C8C8C;stroke:#8C8C8C;stroke-width:8;stroke-miterlimit:10;}
	.st41{fill:#8C8C8C;stroke:#8C8C8C;stroke-width:7;stroke-miterlimit:10;}
	.st42{fill:#DBDBDB;stroke:#8C8C8C;stroke-width:7;stroke-miterlimit:10;}
	.st43{fill:none;stroke:#8C8C8C;stroke-width:5;stroke-miterlimit:10;}
	.st44{fill:none;stroke:#8C8C8C;stroke-width:3;stroke-miterlimit:10;}
	.st45{clip-path:url(#SVGID_2_);fill:#8C8C8C;}
	.st46{clip-path:url(#SVGID_2_);fill:none;stroke:#8C8C8C;stroke-width:8;stroke-miterlimit:10;}
	.st47{clip-path:url(#SVGID_2_);fill:#FFFFFF;}
	.st48{clip-path:url(#SVGID_2_);fill:#EAEAEA;}
	.st49{clip-path:url(#SVGID_2_);fill:none;stroke:#8C8C8C;stroke-miterlimit:10;}
	.st50{fill:none;stroke:#FFFFFF;stroke-width:0.75;stroke-miterlimit:10;}
	.st51{fill:none;stroke:#8C8C8C;stroke-width:14;stroke-miterlimit:10;}
	.st52{fill:none;stroke:#EAEAEA;stroke-width:2;stroke-miterlimit:10;}
	.st53{fill:none;stroke:#8C8C8C;stroke-width:2;stroke-miterlimit:10;}
</style>
    <rect class="st0" height="500" width="500" x="0" y="1"/>
    <g>
	<rect class="st2" height="144" width="500" x="1" y="363"/>
        <text class="st3 st4 st5" transform="matrix(1 0 0 1 163.1431 401.5557)">Tamtam</text>
</g>
    <g>
	<path class="st1" d="M171.1,258.2c0.4,0.1,0.9,0.2,1.3,0.2c1.8,0,3.4-1.1,4-2.9l9.6-28.9c4.9,11,11.2,18.7,19.4,20.5v18
		c0,2.3,1.9,4.2,4.2,4.2s4.2-1.9,4.2-4.2v-18.4c7.5-2.3,13.7-9.9,18.6-20.5l9.7,29.2c0.6,1.8,2.2,2.9,4,2.9c0.4,0,0.9-0.1,1.3-0.2
		c2.2-0.7,3.4-3.1,2.6-5.3l-12.8-38.5c3.1-1.9,5.1-4.3,5.1-7.2c0-1.2-0.4-2.8-1.8-4.5c2.2-8.5,3.9-17.5,5.2-26.5
		c1.3,16.3,3.7,34.6,7.5,51.3c-1.4,1.8-1.8,3.6-1.8,4.8c0,3.1,1.9,5.7,5.2,7.8l-14.7,44.2c-0.8,2.5,0.5,5.2,3,6
		c0.5,0.2,1,0.2,1.5,0.2c2,0,3.9-1.3,4.5-3.3l11-32.9c5.6,12.5,12.8,21.3,22,23.3v20.5c0,2.6,2.1,4.8,4.8,4.8s4.8-2.1,4.8-4.8v-20.9
		c8.6-2.6,15.5-11.3,21.1-23.3l11.1,33.3c0.7,2,2.5,3.3,4.5,3.3c0.5,0,1-0.1,1.5-0.2c2.5-0.8,3.8-3.5,3-6L320,240.5
		c3.6-2.1,5.8-4.8,5.8-8.2c0-1.3-0.4-3.2-2.1-5.1c9.7-46.7,10.5-71,10.2-83c-0.2-5.7-0.6-21-4-21.5c-1.2-0.2-2.4,1.5-3.3,3
		c0.6,7.8,0.8,14.2,0.9,18.5c0.7,37.9-6.1,67.4-10.4,83.5c-0.8,3-1.6,5.8-2.5,8.5c-4.3,1.9-11.5,3.7-21.4,4.2c-0.4-2.2-2.3-4-4.7-4
		c-2.4,0-4.3,1.7-4.7,4c-10.4-0.5-17.8-2.4-22-4.4c-6.3-27.2-10.8-58-11.3-91.7c-0.1-6.3-0.1-12.4,0.1-18.5c-0.5-0.3-1-0.6-1.4-0.9
		c0.4,0.3,0.9,0.6,1.4,0.9c1.7,1,4.1,2,7.2,2.9v2.5v2.5v7.2c-1.8,1.4-3,4-3,7.1c0,4.7,2.7,8.3,6.1,8.3c3.4,0,6.1-3.7,6.1-8.3
		c0-3.1-1.2-5.7-3-7.1v-5.6v-2.4v-2.5c5.7,1.2,12.8,2.1,21.2,2.3v2.4v2.4v9.2h6.3v-9.2V135v-2.4c9.5-0.2,17.2-1.3,23.2-2.8v2.5v2.4
		v6c-1.8,1.4-3,4-3,7.1c0,4.7,2.7,8.3,6.1,8.3c3.4,0,6.1-3.7,6.1-8.3c0-3.1-1.2-5.7-3-7.1V133v-2.5V128c2.3-0.7,4.1-1.6,5.3-2.3
		c1.9-1.1,3.3-1.9,3.3-3c0-1.3-2-2.3-2.6-2.6c-17.5-8.9-38.7-7.4-38.7-7.4c-21.6,0-35,4.7-39.6,8c0.2-0.9,0.6-3.2-0.4-5.8
		c-0.8-2.1-2.1-3.3-2.8-3.9c-4.2-0.2-6.3-0.1-6.5,0.5c-0.1,0.5,1.1,1.2,3.6,2.1c0.5,6.9,0.7,12.5,0.8,16.3
		c0.6,33.2-5.3,59.1-9.1,73.4c-0.7,2.6-1.4,5.1-2.2,7.4c-3.8,1.7-10.1,3.3-18.8,3.6c-0.3-2-2-3.5-4.1-3.5c-2.1,0-3.8,1.5-4.1,3.5
		c-9.1-0.4-15.6-2.1-19.3-3.9c-5.6-23.9-9.5-50.9-10-80.6c-0.1-5.5-0.1-10.9,0.1-16.2c0.4-0.7,0.6-1.5,0.3-2.1
		c-0.5-0.9-1.9-1.4-3.3-0.6c-1.1,5.9-2.1,12.2-2.7,18.9c-2.6,29.1,2.1,54.3,7.9,73.3c-1.3,1.6-1.6,3.1-1.6,4.2c0,2.7,1.7,5,4.5,6.8
		l-12.9,38.8C167.7,255.1,168.9,257.5,171.1,258.2 M293.4,246.6c6.3-0.3,12.5-1.1,17.8-2.5l0.4,1.1c-5.3,13.6-11.5,22.3-18.2,25.4
		V246.6z M265.4,243.8c5.4,1.6,11.9,2.5,18.5,2.7v24.6c-7.7-2.6-14-12.3-18.9-26.1L265.4,243.8z M213.8,219.8c5.5-0.2,11-1,15.7-2.2
		l0.3,0.9c-4.7,12-10.1,19.6-16,22.4V219.8z M189.1,217.4c4.8,1.4,10.5,2.2,16.3,2.4v21.6c-6.7-2.2-12.3-10.8-16.6-22.9L189.1,217.4
		z"/>
        <path class="st1" d="M176.2,113.5c1.5,0.8,3.6,1.7,6.3,2.6v2.2v2.2v6.3c-1.6,1.3-2.6,3.6-2.6,6.3c0,4.1,2.4,7.3,5.4,7.3
		s5.4-3.2,5.4-7.3c0-2.7-1-5-2.6-6.3v-5v-2.1v-2.2c5,1.1,11.2,1.9,18.7,2v2.1v2.1v8.1h5.6v-8.1v-2.1v-2.1c8.3-0.2,15.1-1.2,20.4-2.4
		v2.2v2.1v5.3c-1.6,1.3-2.6,3.6-2.6,6.3c0,4.1,2.4,7.3,5.4,7.3s5.4-3.2,5.4-7.3c0-2.7-1-5-2.6-6.3V120v-2.2v-2.3
		c1.9-0.7,3.5-1.4,4.7-2.1c1.9-1,2.9-2,2.9-2.6c0-0.6-0.8-1.4-2.3-2.3c-4.6-2.8-16.1-6.5-34-6.5c-20.3,0-32.4,4.8-35.5,7.6
		c-0.5,0.5-0.8,0.9-0.8,1.2C173.3,111.5,174.3,112.4,176.2,113.5"/>
        <path class="st1"
              d="M245.9,133.4c0,2.3-16.3,4.2-36.3,4.2s-36.3-1.9-36.3-4.2c0-2.3,16.3-4.2,36.3-4.2S245.9,131.1,245.9,133.4"/>
        <path class="st1" d="M330.3,151.4c0,2.5-19.6,4.5-43.7,4.5c-24.1,0-43.7-2-43.7-4.5s19.6-4.5,43.7-4.5
		C310.8,146.9,330.3,148.9,330.3,151.4"/>
</g>
</svg>
