<?xml version="1.0" encoding="utf-8"?>
<!-- Generator: Adobe Illustrator 22.1.0, SVG Export Plug-In . SVG Version: 6.00 Build 0)  -->
<svg style="enable-background:new 0 0 500 500;" id="Calque_1" version="1.1" viewBox="0 0 500 500" x="0px"
     xmlns="http://www.w3.org/2000/svg" y="0px" xml:space="preserve">
<style type="text/css">
	.st0{fill:#4FBDD7;}
	.st1{fill:#EAEAEA;}
	.st2{fill:#FFFFFF;}
	.st3{fill:#4FBDD7;stroke:#FFFFFF;stroke-width:5;stroke-miterlimit:10;}
	.st4{fill:#8C8C8C;}
	.st5{fill:#070707;}
	.st6{fill:none;stroke:#FFFFFF;stroke-width:7;stroke-miterlimit:10;}
	.st7{fill:none;stroke:#FFFFFF;stroke-width:10;stroke-miterlimit:10;}
	.st8{fill:#FFFFFF;stroke:#FFFFFF;stroke-width:3;stroke-miterlimit:10;}
	.st9{fill:none;stroke:#FDFFFF;stroke-width:6;stroke-miterlimit:10;}
	.st10{fill:#FAFEFF;}
	.st11{fill:none;stroke:#FFFFFF;stroke-width:2;stroke-miterlimit:10;}
	.st12{fill:#FFFFFF;stroke:#FFFFFF;stroke-width:2;stroke-miterlimit:10;}
	.st13{fill:#4FBDD7;stroke:#FFFFFF;stroke-width:4;stroke-miterlimit:10;}
	.st14{fill:#FFFFFF;stroke:#FFFFFF;stroke-width:4;stroke-miterlimit:10;}
	.st15{fill:none;stroke:#FFFFFF;stroke-miterlimit:10;}
	.st16{fill:#FFFFFF;stroke:#FFFFFF;stroke-width:13;stroke-miterlimit:10;}
	.st17{fill:#4FBDD7;stroke:#FFFFFF;stroke-width:8;stroke-miterlimit:10;}
	.st18{fill:#FFFFFF;stroke:#FFFFFF;stroke-width:0.75;stroke-miterlimit:10;}
	.st19{fill:#FFFFFF;stroke:#FFFFFF;stroke-width:0.5;stroke-miterlimit:10;}
	.st20{fill:#FFFFFF;stroke:#FFFFFF;stroke-width:8;stroke-miterlimit:10;}
	.st21{fill:#FFFFFF;stroke:#FFFFFF;stroke-miterlimit:10;}
	.st22{fill:#FFFFFF;stroke:#FFFFFF;stroke-width:11;stroke-miterlimit:10;}
	.st23{fill:#FFFFFF;stroke:#FFFFFF;stroke-width:6;stroke-miterlimit:10;}
	.st24{fill:#8C8C8C;stroke:#8C8C8C;stroke-width:4;stroke-miterlimit:10;}
	.st25{fill:#FFFFFF;stroke:#FFFFFF;stroke-width:1.05;stroke-miterlimit:10;}
	.st26{fill:none;stroke:#4FBDD7;stroke-width:5;stroke-miterlimit:10;}
	.st27{fill:none;stroke:#FFFFFF;stroke-width:4;stroke-miterlimit:10;}
	.st28{fill:#8C8C8C;stroke:#FFFFFF;stroke-width:4;stroke-miterlimit:10;}
	.st29{fill:#FFFFFF;stroke:#FFFFFF;stroke-width:10;stroke-miterlimit:10;}
	.st30{fill:none;}
	.st31{font-family:'HelveticaNeue-CondensedBold';}
	.st32{font-size:54px;}
	.st33{fill:none;stroke:#4FBDD7;stroke-width:2;stroke-miterlimit:10;}
	.st34{fill-rule:evenodd;clip-rule:evenodd;fill:#FFFFFF;}
	.st35{fill:#FFFFFF;stroke:#FFFFFF;stroke-width:7;stroke-miterlimit:10;}
	.st36{fill:#FFFFFF;stroke:#4FBDD7;stroke-width:7;stroke-miterlimit:10;}
	.st37{fill:#FCFCFC;}
	.st38{fill:#FFFFFF;stroke:#FFFFFF;stroke-width:5;stroke-miterlimit:10;}
	.st39{fill:none;stroke:#FFFFFF;stroke-width:3;stroke-miterlimit:10;}
	.st40{fill:none;stroke:#FFFFFF;stroke-width:8;stroke-miterlimit:10;}
	.st41{fill:none;stroke:#FFFFFF;stroke-width:6;stroke-miterlimit:10;}
	.st42{fill:#FFFFFF;stroke:#4FBDD7;stroke-width:3;stroke-miterlimit:10;}
	.st43{fill:none;stroke:#FFFFFF;stroke-width:0.75;stroke-miterlimit:10;}
	.st44{fill:#4FBDD7;stroke:#FFFFFF;stroke-width:9;stroke-miterlimit:10;}
	.st45{fill:none;stroke:#FFFFFF;stroke-width:9;stroke-miterlimit:10;}
	.st46{fill:none;stroke:#4FBDD7;stroke-width:3;stroke-miterlimit:10;}
</style>
    <rect class="st0" height="500" width="500"/>
    <g>
	<path class="st2" d="M315.9,87.5c-6.3,0-11.9,3.2-15.2,8.1H285c-4.6-5.2-11.3-8.6-18.9-8.6h-39.8c-7.5,0-14.2,3.4-18.9,8.6h-15.7
		c-3.2-5.2-8.9-8.6-15.5-8.6c-10.2,0-18.4,8.2-18.4,18.4v13.4c0,10.2,8.2,18.4,18.4,18.4c6.1,0,11.5-3,14.8-7.6h16.8
		c4.6,5,11.1,8.1,18.5,8.1h10.9v67.6c-2.7-2.2-6.4-2.1-8.7,0c-2.7,2.4-2.8,6.9,0,9.8h8.7v9.5c-3.3,0-6.7,0-10,0
		c-2.8,2.8-2.7,7.4,0,9.8c2.3,2.1,6.1,2.2,8.7,0v9.5h-8.7c-2.8,2.8-2.7,7.4,0,9.8c2.3,2.1,6.1,2.2,8.7,0v9.5h-10
		c-2.8,2.8-2.7,7.4,0,9.8c2.3,2.1,6.1,2.2,8.7,0v9.5h-7.5c-2.8,2.8-2.7,7.4,0,9.8c2.3,2.1,6.1,2.2,8.7,0v9.5
		c0.1,5.5,0.2,10.9,0.3,16.4c2.4-2.2,4.7-4.4,7.1-6.6c0.1-4.4,0.3-8.8,0.4-13.2c2.3,1.7,5.4,1.7,7.5,0c1.9-1.5,2.7-4,2.1-6.4h-8.7
		v-9.5c2.5,1.6,5.5,1.5,7.5,0c2.6-2.1,3-6.7,0-9.8h-8.7V263h10c2.8-2.8,2.7-7.4,0-9.8c-2.3-2.1-6.1-2.2-8.7,0v-9.5h8.7
		c2.8-2.8,2.7-7.4,0-9.8c-2.3-2.1-6.1-2.2-8.7,0v-9.5h10c2.8-2.8,2.7-7.4,0-9.8c-2.3-2.1-6.1-2.2-8.7,0v-6.7h5.1v-70.5h15
		c7.3,0,13.8-3.1,18.5-8.1h16.2c3.3,4.9,8.9,8.1,15.2,8.1c10.1,0,18.4-8.2,18.4-18.4v-13.4C334.3,95.7,326.1,87.5,315.9,87.5z"/>
</g>
    <g>
	<rect class="st30" height="144" width="500" x="5" y="362"/>
        <text class="st2 st31 st32" transform="matrix(1 0 0 1 111.6582 400.5557)">Tire-bouchon</text>
</g>
</svg>
