<?xml version="1.0" encoding="utf-8"?>
<!-- Generator: Adobe Illustrator 22.1.0, SVG Export Plug-In . SVG Version: 6.00 Build 0)  -->
<svg style="enable-background:new 0 0 500 500;" id="Calque_1" version="1.1" viewBox="0 0 500 500" x="0px"
     xmlns="http://www.w3.org/2000/svg" y="0px" xml:space="preserve">
<style type="text/css">
	.st0{fill:#4FBDD7;}
	.st1{fill:#EAEAEA;}
	.st2{fill:#FFFFFF;}
	.st3{fill:#4FBDD7;stroke:#FFFFFF;stroke-width:5;stroke-miterlimit:10;}
	.st4{fill:#8C8C8C;}
	.st5{fill:#070707;}
	.st6{fill:none;stroke:#FFFFFF;stroke-width:7;stroke-miterlimit:10;}
	.st7{fill:none;stroke:#FFFFFF;stroke-width:10;stroke-miterlimit:10;}
	.st8{fill:#FFFFFF;stroke:#FFFFFF;stroke-width:3;stroke-miterlimit:10;}
	.st9{fill:none;stroke:#FDFFFF;stroke-width:6;stroke-miterlimit:10;}
	.st10{fill:#FAFEFF;}
	.st11{fill:none;stroke:#FFFFFF;stroke-width:2;stroke-miterlimit:10;}
	.st12{fill:#FFFFFF;stroke:#FFFFFF;stroke-width:2;stroke-miterlimit:10;}
	.st13{fill:#4FBDD7;stroke:#FFFFFF;stroke-width:4;stroke-miterlimit:10;}
	.st14{fill:#FFFFFF;stroke:#FFFFFF;stroke-width:4;stroke-miterlimit:10;}
	.st15{fill:none;stroke:#FFFFFF;stroke-miterlimit:10;}
	.st16{fill:#FFFFFF;stroke:#FFFFFF;stroke-width:13;stroke-miterlimit:10;}
	.st17{fill:#4FBDD7;stroke:#FFFFFF;stroke-width:8;stroke-miterlimit:10;}
	.st18{fill:#FFFFFF;stroke:#FFFFFF;stroke-width:0.75;stroke-miterlimit:10;}
	.st19{fill:#FFFFFF;stroke:#FFFFFF;stroke-width:0.5;stroke-miterlimit:10;}
	.st20{fill:none;}
	.st21{font-family:'HelveticaNeue-CondensedBold';}
	.st22{font-size:54px;}
	.st23{fill:#FFFFFF;stroke:#FFFFFF;stroke-width:8;stroke-miterlimit:10;}
	.st24{fill:#FFFFFF;stroke:#FFFFFF;stroke-miterlimit:10;}
	.st25{fill:#FFFFFF;stroke:#FFFFFF;stroke-width:11;stroke-miterlimit:10;}
	.st26{fill:#FFFFFF;stroke:#FFFFFF;stroke-width:6;stroke-miterlimit:10;}
	.st27{fill:#8C8C8C;stroke:#8C8C8C;stroke-width:4;stroke-miterlimit:10;}
	.st28{fill:#FFFFFF;stroke:#FFFFFF;stroke-width:1.05;stroke-miterlimit:10;}
	.st29{fill:none;stroke:#4FBDD7;stroke-width:5;stroke-miterlimit:10;}
	.st30{fill:none;stroke:#FFFFFF;stroke-width:4;stroke-miterlimit:10;}
	.st31{fill:#8C8C8C;stroke:#FFFFFF;stroke-width:4;stroke-miterlimit:10;}
	.st32{fill:#FFFFFF;stroke:#FFFFFF;stroke-width:10;stroke-miterlimit:10;}
	.st33{fill:none;stroke:#4FBDD7;stroke-width:2;stroke-miterlimit:10;}
	.st34{fill-rule:evenodd;clip-rule:evenodd;fill:#FFFFFF;}
	.st35{fill:#FFFFFF;stroke:#FFFFFF;stroke-width:7;stroke-miterlimit:10;}
	.st36{fill:#FFFFFF;stroke:#4FBDD7;stroke-width:7;stroke-miterlimit:10;}
	.st37{fill:#FCFCFC;}
	.st38{fill:#FFFFFF;stroke:#FFFFFF;stroke-width:5;stroke-miterlimit:10;}
	.st39{fill:none;stroke:#FFFFFF;stroke-width:3;stroke-miterlimit:10;}
	.st40{fill:none;stroke:#FFFFFF;stroke-width:8;stroke-miterlimit:10;}
	.st41{fill:none;stroke:#FFFFFF;stroke-width:6;stroke-miterlimit:10;}
	.st42{fill:#FFFFFF;stroke:#4FBDD7;stroke-width:3;stroke-miterlimit:10;}
	.st43{fill:none;stroke:#FFFFFF;stroke-width:0.75;stroke-miterlimit:10;}
	.st44{fill:#4FBDD7;stroke:#FFFFFF;stroke-width:9;stroke-miterlimit:10;}
	.st45{fill:none;stroke:#FFFFFF;stroke-width:9;stroke-miterlimit:10;}
	.st46{fill:none;stroke:#4FBDD7;stroke-width:3;stroke-miterlimit:10;}
</style>
    <rect class="st0" height="505" width="505" x="-1"/>
    <g>
	<g>
		<path class="st16" d="M121,188.7V278h13.9c2-18.4,22-32.9,46.2-32.9s44.1,14.5,46.2,32.9h68.2c2-18.4,22-32.9,46.2-32.9
			c24.2,0,44.1,14.5,46.2,32.9h13.9v-56.8l-36.1-56.1h-72.5l-17-13.2l20.1-15.6l-11.6-9l-51.8,40.3l11.6,9l20.1-15.6l17,13.2v42.1
			H232l-21.9-27.6h-31.5v-11.4c0-14.1-14.7-25.6-32.9-25.6v37H121z"/>
	</g>
</g>
    <g>
	<g>
		<circle class="st17" cx="181.1" cy="293.1" r="29.9"/>
	</g>
</g>
    <g>
	<g>
		<g>
			<path class="st0" d="M273.4,266.8c2.7-5.2,0.2-10.8,0.6-16.1c0.2-2.8,0.7-5.6,0.7-8.4c0-2.4,0-5.2-2.3-7.3
				c-0.9-0.8-3.4-0.6-3.4,0.4c-0.1,2.5,0.7,5,0.6,7.5c-0.1,2.5-0.5,5.1-0.7,7.6c-0.4,5.1,2.1,10.5-0.5,15.4
				C267.5,267.6,272.5,268.5,273.4,266.8z"/>
		</g>
	</g>
</g>
    <g>
	<g>
		<g>
			<path class="st0" d="M281.1,266.9c2.7-5.2,0.2-10.8,0.6-16.1c0.2-2.8,0.7-5.6,0.7-8.4c0-2.4,0-5.2-2.3-7.3
				c-0.9-0.8-3.4-0.6-3.4,0.4c-0.1,2.5,0.7,5,0.6,7.5c-0.1,2.5-0.5,5.1-0.7,7.6c-0.4,5.1,2.1,10.5-0.5,15.4
				C275.2,267.7,280.2,268.6,281.1,266.9z"/>
		</g>
	</g>
</g>
    <g>
	<g>
		<g>
			<path class="st0" d="M265.7,266.6c2.7-5.2,0.2-10.8,0.6-16.1c0.2-2.8,0.7-5.6,0.7-8.4c0-2.4,0-5.2-2.3-7.3
				c-0.9-0.8-3.4-0.6-3.4,0.4c-0.1,2.5,0.7,5,0.6,7.5c-0.1,2.5-0.5,5.1-0.7,7.6c-0.4,5.1,2.1,10.5-0.5,15.4
				C259.8,267.4,264.8,268.3,265.7,266.6z"/>
		</g>
	</g>
</g>
    <g>
	<g>
		<g>
			<path class="st0" d="M250.4,266.8c2.7-5.2,0.2-10.8,0.6-16.1c0.2-2.8,0.7-5.6,0.7-8.4c0-2.4,0-5.2-2.3-7.3
				c-0.9-0.8-3.4-0.6-3.4,0.4c-0.1,2.5,0.7,5,0.6,7.5c-0.1,2.5-0.5,5.1-0.7,7.6c-0.4,5.1,2.1,10.5-0.5,15.4
				C244.5,267.6,249.5,268.5,250.4,266.8z"/>
		</g>
	</g>
</g>
    <g>
	<g>
		<g>
			<path class="st0" d="M258.1,266.9c2.7-5.2,0.2-10.8,0.6-16.1c0.2-2.8,0.7-5.6,0.7-8.4c0-2.4,0-5.2-2.3-7.3
				c-0.9-0.8-3.4-0.6-3.4,0.4c-0.1,2.5,0.7,5,0.6,7.5c-0.1,2.5-0.5,5.1-0.7,7.6c-0.4,5.1,2.1,10.5-0.5,15.4
				C252.2,267.7,257.2,268.6,258.1,266.9z"/>
		</g>
	</g>
</g>
    <g>
	<g>
		<g>
			<path class="st0" d="M242.7,266.6c2.7-5.2,0.2-10.8,0.6-16.1c0.2-2.8,0.7-5.6,0.7-8.4c0-2.4,0-5.2-2.3-7.3
				c-0.9-0.8-3.4-0.6-3.4,0.4c-0.1,2.5,0.7,5,0.6,7.5c-0.1,2.5-0.5,5.1-0.7,7.6c-0.4,5.1,2.1,10.5-0.5,15.4
				C236.8,267.4,241.8,268.3,242.7,266.6z"/>
		</g>
	</g>
</g>
    <g>
	<path class="st0" d="M283,237v29h-46v-29H283 M286,234h-52v35h52V234L286,234z"/>
</g>
    <g>
	<g>
		<circle class="st17" cx="340.1" cy="294.1" r="29.9"/>
	</g>
</g>
    <g>
	<rect class="st20" height="144" width="500" y="366"/>
        <text class="st2 st21 st22" transform="matrix(1 0 0 1 54.6572 404.5557)">Tracteur tondeuse</text>
</g>
</svg>
