<?xml version="1.0" encoding="utf-8"?>
<!-- Generator: Adobe Illustrator 22.1.0, SVG Export Plug-In . SVG Version: 6.00 Build 0)  -->
<svg version="1.1" id="Calque_1" xmlns="http://www.w3.org/2000/svg" x="0px" y="0px"
     viewBox="0 0 500 500" style="enable-background:new 0 0 500 500;" xml:space="preserve">
<style type="text/css">
	.st0{fill:#EAEAEA;}
	.st1{fill:#8C8C8C;}
	.st2{fill:#FFFFFF;}
	.st3{fill:#EAEAEA;stroke:#8C8C8C;stroke-width:7;stroke-miterlimit:10;}
	.st4{fill:#070707;}
	.st5{fill:none;stroke:#8C8C8C;stroke-width:7;stroke-miterlimit:10;}
	.st6{fill:none;stroke:#8C8C8C;stroke-width:10;stroke-miterlimit:10;}
	.st7{fill:#8C8C8C;stroke:#8C8C8C;stroke-width:3;stroke-miterlimit:10;}
	.st8{fill:none;stroke:#8C8C8C;stroke-width:8;stroke-miterlimit:10;}
	.st9{fill:none;stroke:#8E8E8E;stroke-width:6;stroke-miterlimit:10;}
	.st10{fill:#8E8E8E;}
	.st11{fill:#505050;}
	.st12{fill:none;stroke:#8E8E8E;stroke-width:2;stroke-miterlimit:10;}
	.st13{fill:#8C8C8C;stroke:#8C8C8C;stroke-width:2;stroke-miterlimit:10;}
	.st14{fill:#8C8C8C;stroke:#FFFFFF;stroke-width:2;stroke-miterlimit:10;}
	.st15{fill:none;stroke:#FFFFFF;stroke-width:2;stroke-miterlimit:10;}
	.st16{fill:none;stroke:#8C8C8C;stroke-miterlimit:10;}
	.st17{fill:none;stroke:#8C8C8C;stroke-width:13;stroke-miterlimit:10;}
	.st18{fill:#EAEAEA;stroke:#8C8C8C;stroke-width:8;stroke-miterlimit:10;}
	.st19{fill:none;stroke:#8C8C8C;stroke-width:4;stroke-miterlimit:10;}
	.st20{fill:#8C8C8C;stroke:#8C8C8C;stroke-width:0.75;stroke-miterlimit:10;}
	.st21{fill:none;stroke:#8C8C8C;stroke-width:9;stroke-miterlimit:10;}
	.st22{fill:#8C8C8C;stroke:#8C8C8C;stroke-width:0.5;stroke-miterlimit:10;}
	.st23{fill:#6B6B6B;}
	.st24{fill:none;}
	.st25{stroke:#8C8C8C;stroke-width:8;stroke-miterlimit:10;}
	.st26{fill:#8C8C8C;stroke:#8C8C8C;stroke-miterlimit:10;}
	.st27{fill:none;stroke:#8C8C8C;stroke-width:11;stroke-miterlimit:10;}
	.st28{fill:none;stroke:#8C8C8C;stroke-width:6;stroke-miterlimit:10;}
	.st29{stroke:#8C8C8C;stroke-width:6;stroke-miterlimit:10;}
	.st30{fill:#8C8C8C;stroke:#8C8C8C;stroke-width:4;stroke-miterlimit:10;}
	.st31{fill:#8C8C8C;stroke:#8C8C8C;stroke-width:1.05;stroke-miterlimit:10;}
	.st32{fill:#D6D6D6;}
	.st33{fill:none;stroke:#EAEAEA;stroke-width:5;stroke-miterlimit:10;}
	.st34{font-family:'HelveticaNeue-CondensedBold';}
	.st35{font-size:54px;}
	.st36{fill:#8C8C8C;stroke:#8C8C8C;stroke-width:10;stroke-miterlimit:10;}
	.st37{fill:none;stroke:#CECECE;stroke-width:2;stroke-miterlimit:10;}
	.st38{fill:none;stroke:#FFFFFF;stroke-width:4;stroke-miterlimit:10;}
	.st39{fill-rule:evenodd;clip-rule:evenodd;fill:#8C8C8C;}
	.st40{fill:#8C8C8C;stroke:#8C8C8C;stroke-width:8;stroke-miterlimit:10;}
	.st41{fill:#8C8C8C;stroke:#8C8C8C;stroke-width:7;stroke-miterlimit:10;}
	.st42{fill:#DBDBDB;stroke:#8C8C8C;stroke-width:7;stroke-miterlimit:10;}
	.st43{fill:none;stroke:#8C8C8C;stroke-width:5;stroke-miterlimit:10;}
	.st44{fill:none;stroke:#8C8C8C;stroke-width:3;stroke-miterlimit:10;}
	.st45{clip-path:url(#SVGID_2_);fill:#8C8C8C;}
	.st46{clip-path:url(#SVGID_2_);fill:none;stroke:#8C8C8C;stroke-width:8;stroke-miterlimit:10;}
	.st47{clip-path:url(#SVGID_2_);fill:#FFFFFF;}
	.st48{clip-path:url(#SVGID_2_);fill:#EAEAEA;}
	.st49{clip-path:url(#SVGID_2_);fill:none;stroke:#8C8C8C;stroke-miterlimit:10;}
	.st50{fill:none;stroke:#FFFFFF;stroke-width:0.75;stroke-miterlimit:10;}
	.st51{fill:none;stroke:#8C8C8C;stroke-width:14;stroke-miterlimit:10;}
	.st52{fill:none;stroke:#EAEAEA;stroke-width:2;stroke-miterlimit:10;}
	.st53{fill:none;stroke:#8C8C8C;stroke-width:2;stroke-miterlimit:10;}
</style>
<rect x="1" class="st0" width="500" height="500"/>
<path class="st1" d="M150.6,212.1c-2.7-1.6-5.9-2-9-1.2c-6.3,1.7-10.1,8.1-8.4,14.4c0,0,3.6,13.6,3.6,13.6
	c1.6,6.2,8.2,10.1,14.4,8.4c5-1.3,8.7-5.9,8.8-11.1c8-2.1,15.9-4.1,23.6-6c-1.4,1.7-2.6,3.5-3.7,5.4c-5.9,10.1-7.5,21.8-4.5,33
	c1.1,4.1,2.5,7.2,3.3,8.7c1.3,2.5,6.1,11.6,15.8,17.1c11.3,6.4,24.6,5,24.8,3.8c0.2-1.1-10.3-1.4-21-9c-6.6-4.6-10.8-10.2-13.4-14.5
	c0,0-2-3.9-3.1-7.9c-5.1-19.4,6.9-39.9,26.2-45c0,0,67.2-17.7,67.2-17.7c19.4-5.1,39.9,6.9,45,26.2c5.2,19.6-6.6,39.8-26.2,45
	l-67.2,17.7c-9.9,2.6-20.6,0.9-29.3-4.7c-1.6-1-3.6-0.6-4.6,1c-1,1.6-0.6,3.6,1,4.6c10.2,6.5,22.9,8.6,34.6,5.5l67.2-17.7
	c23.2-6.1,37.1-30,31-53.2c-2.2-8.3-6.7-15.4-12.5-20.9c31.2-1.7,43.9,2.2,47.3,3.5c1,2.5,2.9,4.7,5.3,6.1c2.9,1.7,6.3,2.2,9.5,1.3
	c3.2-0.9,6-2.9,7.7-5.8c1.7-2.9,2.2-6.3,1.3-9.5L367,133.7c-0.9-3.2-2.9-6-5.8-7.7c-2.9-1.7-6.3-2.2-9.5-1.3c-3.2,0.9-6,2.9-7.7,5.8
	c-1.4,2.4-2,5.2-1.6,7.9c-2.8,3.6-11.9,11.7-31.1,22c-10.8,5.8-23.1,11.4-36.1,16.7l-0.6-2.2c-1.5-5.8-7.6-9.3-13.3-7.8
	c-5.8,1.5-9.3,7.6-7.8,13.3l1.2,4.6c-2.7,1-5.4,2-8.2,3c0,0-1.4-5.3-1.4-5.3c-1.5-5.8-7.6-9.3-13.3-7.8c-5.8,1.5-9.3,7.6-7.8,13.4
	l1.8,6.9c-2.7,0.9-5.5,1.8-8.2,2.7c0,0-1.9-7.3-1.9-7.3c-1.5-5.7-7.6-9.3-13.3-7.8c-5.8,1.5-9.3,7.5-7.8,13.4l2.2,8.2
	c-14.7,4.4-28.9,8.3-41.9,11.8C153.7,214.5,152.3,213.1,150.6,212.1z M149.5,240.9c-2.7,0.7-5.5-0.9-6.2-3.6l-3.6-13.6
	c-0.7-2.7,0.9-5.5,3.6-6.2c2.7-0.7,5.5,0.9,6.2,3.6c0,0,3.6,13.6,3.6,13.6C153.9,237.3,152.2,240.1,149.5,240.9z M260,178.9
	c-0.6-2.2,0.8-4.5,3-5.1c2.2-0.6,4.5,0.8,5.1,3l0.8,3c-2.6,1-5.2,2-7.9,3.1C261,182.9,260,178.9,260,178.9z M230.5,186.7
	c-0.6-2.2,0.8-4.5,3-5.1c2.2-0.6,4.6,0.8,5.1,3l1.5,5.9c-2.6,0.9-5.3,1.8-8,2.7C232.1,193.2,230.5,186.7,230.5,186.7z M200.9,194.5
	c-0.6-2.2,0.8-4.5,3-5.1c2.2-0.6,4.5,0.8,5.1,3l2,7.6c-2.7,0.8-5.4,1.7-8,2.5L200.9,194.5z M201.6,209.9
	C201.6,209.9,201.6,209.9,201.6,209.9c17.5-5.1,34.8-10.9,51.9-17.1c6.9-2.5,20.8-7.9,20.9-8c44-17.7,62.5-31.4,69.9-38.6l3.7,14.2
	c0.5,1.8,2.3,2.9,4.1,2.4c1.8-0.5,2.9-2.3,2.4-4.1l-5.3-20.3c-0.8-3.1,1-6.3,4.2-7.1c3.1-0.8,6.3,1,7.1,4.2l18.4,69.8
	c0.8,3.1-1,6.3-4.2,7.1c-3.1,0.8-6.3-1-7.1-4.2l-9.7-36.8c-0.5-1.8-2.3-2.9-4.1-2.4c-1.8,0.5-2.9,2.3-2.4,4.1l8.1,30.7
	c-7.9-2-23.8-4.2-53.7-1.9c-0.2-0.1-0.3-0.2-0.5-0.3c-9.6-5.1-21-6.5-31.6-3.7c0,0-67.2,17.7-67.2,17.7c-4.3,1.1-8.5,2.9-12.3,5.3
	c-11.4,2.7-23.2,5.6-35.4,8.8l-1.9-7.1C173.1,218.3,188,214,201.6,209.9z"/>
<path class="st1" d="M220.7,284.6c1.3-0.1,2.5-0.4,3.7-0.7l67.2-17.7c14.3-3.8,23.1-18.9,19.4-33.2c-3.8-14.3-18.9-23.1-33.2-19.4
	l-67.2,17.7c-14.3,3.8-23.1,18.9-19.4,33.2C194.6,277.4,207.7,286.1,220.7,284.6z M220.5,235.7l10.4,39.5l-8.1,2.1l-10.4-39.5
	L220.5,235.7z M235.4,231.8l10.4,39.5l-8.4,2.2L227,234L235.4,231.8z M264.9,224l10.4,39.5l-8.4,2.2l-10.4-39.6L264.9,224z
	 M304.5,234.8c2.3,8.6-1.4,17.5-8.4,22.2l-9.8-37.4c3,0.2,6,1.2,8.7,2.7C299.8,225.1,303.1,229.5,304.5,234.8z M279.5,220.2
	l10.4,39.5l-8.1,2.1l-10.4-39.5L279.5,220.2z M250,228l10.4,39.5l-8.1,2.1l-10.4-39.6L250,228z M206.2,240.7L216,278
	c-3.1-0.2-6.1-1.2-8.7-2.7c-4.5-2.6-8-7-9.5-12.4C195.5,254.2,199.1,245.4,206.2,240.7z"/>
<path class="st20" d="M353.5,179.3l-5.9-22.2c-0.4-1.6,0.5-3.2,2.1-3.7l0,0c1.6-0.4,3.2,0.5,3.7,2.1l5.9,22.2
	c0.4,1.6-0.5,3.2-2.1,3.7l0,0C355.5,181.8,353.9,180.9,353.5,179.3z"/>
<g>
	<rect x="-1" y="362" class="st24" width="500" height="144"/>
	<text transform="matrix(1 0 0 1 139.1382 400.5557)" class="st23 st34 st35">Trompette</text>
</g>
</svg>
