<?xml version="1.0" encoding="utf-8"?>
<!-- Generator: Adobe Illustrator 22.1.0, SVG Export Plug-In . SVG Version: 6.00 Build 0)  -->
<svg version="1.1" id="Calque_1" xmlns="http://www.w3.org/2000/svg" xmlns:xlink="http://www.w3.org/1999/xlink" x="0px" y="0px"
	 viewBox="0 0 500 500" style="enable-background:new 0 0 500 500;" xml:space="preserve">
<style type="text/css">
	.st0{fill:#EAEAEA;}
	.st1{fill:#8C8C8C;}
	.st2{fill:none;}
	.st3{fill:#6B6B6B;}
	.st4{font-family:'HelveticaNeue-CondensedBold';}
	.st5{font-size:54px;}
	.st6{fill:#FFFFFF;}
	.st7{fill:#EAEAEA;stroke:#8C8C8C;stroke-width:7;stroke-miterlimit:10;}
	.st8{fill:#070707;}
	.st9{fill:none;stroke:#8C8C8C;stroke-width:7;stroke-miterlimit:10;}
	.st10{fill:none;stroke:#8C8C8C;stroke-width:10;stroke-miterlimit:10;}
	.st11{fill:#8C8C8C;stroke:#8C8C8C;stroke-width:3;stroke-miterlimit:10;}
	.st12{fill:none;stroke:#8C8C8C;stroke-width:8;stroke-miterlimit:10;}
	.st13{fill:none;stroke:#8E8E8E;stroke-width:6;stroke-miterlimit:10;}
	.st14{fill:#8E8E8E;}
	.st15{fill:#505050;}
	.st16{fill:none;stroke:#8E8E8E;stroke-width:2;stroke-miterlimit:10;}
	.st17{fill:#8C8C8C;stroke:#8C8C8C;stroke-width:2;stroke-miterlimit:10;}
	.st18{fill:#8C8C8C;stroke:#FFFFFF;stroke-width:2;stroke-miterlimit:10;}
	.st19{fill:none;stroke:#FFFFFF;stroke-width:2;stroke-miterlimit:10;}
	.st20{fill:none;stroke:#8C8C8C;stroke-miterlimit:10;}
	.st21{fill:none;stroke:#8C8C8C;stroke-width:13;stroke-miterlimit:10;}
	.st22{fill:#EAEAEA;stroke:#8C8C8C;stroke-width:8;stroke-miterlimit:10;}
	.st23{fill:none;stroke:#8C8C8C;stroke-width:4;stroke-miterlimit:10;}
	.st24{fill:#8C8C8C;stroke:#8C8C8C;stroke-width:0.75;stroke-miterlimit:10;}
	.st25{fill:none;stroke:#8C8C8C;stroke-width:9;stroke-miterlimit:10;}
	.st26{fill:#8C8C8C;stroke:#8C8C8C;stroke-width:0.5;stroke-miterlimit:10;}
	.st27{stroke:#8C8C8C;stroke-width:8;stroke-miterlimit:10;}
	.st28{fill:#8C8C8C;stroke:#8C8C8C;stroke-miterlimit:10;}
	.st29{fill:none;stroke:#8C8C8C;stroke-width:11;stroke-miterlimit:10;}
	.st30{fill:none;stroke:#8C8C8C;stroke-width:6;stroke-miterlimit:10;}
	.st31{stroke:#8C8C8C;stroke-width:6;stroke-miterlimit:10;}
	.st32{fill:#8C8C8C;stroke:#8C8C8C;stroke-width:4;stroke-miterlimit:10;}
	.st33{fill:#8C8C8C;stroke:#8C8C8C;stroke-width:1.05;stroke-miterlimit:10;}
	.st34{fill:#D6D6D6;}
	.st35{fill:none;stroke:#EAEAEA;stroke-width:5;stroke-miterlimit:10;}
	.st36{fill:#8C8C8C;stroke:#8C8C8C;stroke-width:10;stroke-miterlimit:10;}
	.st37{fill:none;stroke:#CECECE;stroke-width:2;stroke-miterlimit:10;}
	.st38{fill:none;stroke:#FFFFFF;stroke-width:4;stroke-miterlimit:10;}
	.st39{fill-rule:evenodd;clip-rule:evenodd;fill:#8C8C8C;}
	.st40{fill:#8C8C8C;stroke:#8C8C8C;stroke-width:8;stroke-miterlimit:10;}
	.st41{fill:#8C8C8C;stroke:#8C8C8C;stroke-width:7;stroke-miterlimit:10;}
	.st42{fill:#DBDBDB;stroke:#8C8C8C;stroke-width:7;stroke-miterlimit:10;}
	.st43{fill:none;stroke:#8C8C8C;stroke-width:5;stroke-miterlimit:10;}
	.st44{fill:none;stroke:#8C8C8C;stroke-width:3;stroke-miterlimit:10;}
	.st45{clip-path:url(#SVGID_2_);fill:#8C8C8C;}
	.st46{clip-path:url(#SVGID_2_);fill:none;stroke:#8C8C8C;stroke-width:8;stroke-miterlimit:10;}
	.st47{clip-path:url(#SVGID_2_);fill:#FFFFFF;}
	.st48{clip-path:url(#SVGID_2_);fill:#EAEAEA;}
	.st49{clip-path:url(#SVGID_2_);fill:none;stroke:#8C8C8C;stroke-miterlimit:10;}
	.st50{fill:none;stroke:#FFFFFF;stroke-width:0.75;stroke-miterlimit:10;}
	.st51{fill:none;stroke:#8C8C8C;stroke-width:14;stroke-miterlimit:10;}
	.st52{fill:none;stroke:#EAEAEA;stroke-width:2;stroke-miterlimit:10;}
	.st53{fill:none;stroke:#8C8C8C;stroke-width:2;stroke-miterlimit:10;}
</style>
<rect x="-1" y="-2" class="st0" width="500" height="500"/>
<g>
	<rect y="360" class="st2" width="500" height="144"/>
	<text transform="matrix(1 0 0 1 176.5879 398.5557)" class="st3 st4 st5">Truelle</text>
</g>
<g>
	<path class="st1" d="M378.6,213c3.7-5.6,2.7-14.3-2.2-18.9c-30.5-28.5-71.3-42.1-112.7-37.3l-9.5,1.1c-10.3,1.2-18.2,8.9-20.2,19.1
		l-1.9,11c-1.3,6.6-1.6,13.7-1.6,20.6l-11.8,1.4c-10.8-1.5-21.9-1.4-32.7-0.2c0,0,0,0-0.1,0c0,0,0,0-0.1,0c-0.1,0-0.2,0-0.3,0
		l-14.2,1.6c-7.1-5.6-14.2-8.4-21.1-9.2c-2.4-0.1-4.3,0.5-6.1,2.3c-1.4,1.8-2.3,4.3-2,6.6l4.5,38.7c0.3,2.4,1.7,4.6,3.5,6
		c1.8,1.4,4.2,1.5,6.5,0.8c6.5-2.3,12.7-7,18.4-13.7l14.2-1.7c11.1-1.3,22-3.7,32.3-7.7l11.7-1.4c1.4,6.9,3.7,13.6,6.4,20.1
		l7.7,17.9c2.1,4.6,7.3,7.6,12.4,7l17.8-2.1C318.5,270.4,355.4,247.7,378.6,213 M257.1,217.5l-3.5,4.4l-17.8,2.1l-12.2,1.4l-0.9-7.9
		l12.2-1.4l17.8-2.1L257.1,217.5z M149.9,210.4c5.2,0.2,10.7,2.8,16.8,7.2l2.4,20.5c-4.9,5.8-9.7,9.5-14.7,10.9L149.9,210.4z
		 M258.6,268.6c-2,0.2-3.7-0.8-4.3-2.3l-7.7-17.9c-2.2-5.2-4-11.2-5.5-17l14.9-1.7c1.2-0.1,1.9-0.6,2.6-1.5l7-8.8
		c0.7-0.9,1-2,0.8-3.1c0-0.1,0-0.1,0-0.2c-0.1-1.2-0.6-1.9-1.5-2.6l-8.8-7c-0.9-0.7-1.7-1-2.9-0.9l-14.6,1.7
		c-0.3-6,0.6-12.1,1.5-18.2l1.9-11c0.8-6.5,6.3-11.5,13-12.3l9.5-1.1c39.1-4.5,77.8,8.2,106.5,35.3c1.3,1,1.9,2.6,2.1,4.2
		s0,3.2-1.2,3.7c-21.8,32.9-56.5,54.2-95.6,58.7L258.6,268.6z"/>
</g>
</svg>
