<?xml version="1.0" encoding="utf-8"?>
<!-- Generator: Adobe Illustrator 22.1.0, SVG Export Plug-In . SVG Version: 6.00 Build 0)  -->
<svg version="1.1" id="Calque_1" xmlns="http://www.w3.org/2000/svg" x="0px" y="0px"
     viewBox="0 0 500 500" style="enable-background:new 0 0 500 500;" xml:space="preserve">
<style type="text/css">
	.st0{fill:#EAEAEA;}
	.st1{fill:#8C8C8C;}
	.st2{fill:#FFFFFF;}
	.st3{fill:#EAEAEA;stroke:#8C8C8C;stroke-width:7;stroke-miterlimit:10;}
	.st4{fill:#070707;}
	.st5{fill:none;stroke:#8C8C8C;stroke-width:7;stroke-miterlimit:10;}
	.st6{fill:none;stroke:#8C8C8C;stroke-width:10;stroke-miterlimit:10;}
	.st7{fill:#8C8C8C;stroke:#8C8C8C;stroke-width:3;stroke-miterlimit:10;}
	.st8{fill:none;stroke:#8C8C8C;stroke-width:8;stroke-miterlimit:10;}
	.st9{fill:none;stroke:#8E8E8E;stroke-width:6;stroke-miterlimit:10;}
	.st10{fill:#8E8E8E;}
	.st11{fill:#505050;}
	.st12{fill:none;stroke:#8E8E8E;stroke-width:2;stroke-miterlimit:10;}
	.st13{fill:#8C8C8C;stroke:#8C8C8C;stroke-width:2;stroke-miterlimit:10;}
	.st14{fill:#8C8C8C;stroke:#FFFFFF;stroke-width:2;stroke-miterlimit:10;}
	.st15{fill:none;stroke:#FFFFFF;stroke-width:2;stroke-miterlimit:10;}
	.st16{fill:none;stroke:#8C8C8C;stroke-miterlimit:10;}
	.st17{fill:none;stroke:#8C8C8C;stroke-width:13;stroke-miterlimit:10;}
	.st18{fill:#EAEAEA;stroke:#8C8C8C;stroke-width:8;stroke-miterlimit:10;}
	.st19{fill:none;stroke:#8C8C8C;stroke-width:4;stroke-miterlimit:10;}
	.st20{fill:#8C8C8C;stroke:#8C8C8C;stroke-width:0.75;stroke-miterlimit:10;}
	.st21{fill:none;stroke:#8C8C8C;stroke-width:9;stroke-miterlimit:10;}
	.st22{fill:#8C8C8C;stroke:#8C8C8C;stroke-width:0.5;stroke-miterlimit:10;}
	.st23{fill:#6B6B6B;}
	.st24{fill:none;}
	.st25{stroke:#8C8C8C;stroke-width:8;stroke-miterlimit:10;}
	.st26{fill:#8C8C8C;stroke:#8C8C8C;stroke-miterlimit:10;}
	.st27{fill:none;stroke:#8C8C8C;stroke-width:11;stroke-miterlimit:10;}
	.st28{fill:none;stroke:#8C8C8C;stroke-width:6;stroke-miterlimit:10;}
	.st29{stroke:#8C8C8C;stroke-width:6;stroke-miterlimit:10;}
	.st30{fill:#8C8C8C;stroke:#8C8C8C;stroke-width:4;stroke-miterlimit:10;}
	.st31{fill:#8C8C8C;stroke:#8C8C8C;stroke-width:1.05;stroke-miterlimit:10;}
	.st32{fill:#D6D6D6;}
	.st33{fill:none;stroke:#EAEAEA;stroke-width:5;stroke-miterlimit:10;}
	.st34{fill:#8C8C8C;stroke:#8C8C8C;stroke-width:10;stroke-miterlimit:10;}
	.st35{fill:none;stroke:#CECECE;stroke-width:2;stroke-miterlimit:10;}
	.st36{font-family:'HelveticaNeue-CondensedBold';}
	.st37{font-size:54px;}
	.st38{fill:none;stroke:#FFFFFF;stroke-width:4;stroke-miterlimit:10;}
	.st39{fill-rule:evenodd;clip-rule:evenodd;fill:#8C8C8C;}
	.st40{fill:#8C8C8C;stroke:#8C8C8C;stroke-width:8;stroke-miterlimit:10;}
	.st41{fill:#8C8C8C;stroke:#8C8C8C;stroke-width:7;stroke-miterlimit:10;}
	.st42{fill:#DBDBDB;stroke:#8C8C8C;stroke-width:7;stroke-miterlimit:10;}
	.st43{fill:none;stroke:#8C8C8C;stroke-width:5;stroke-miterlimit:10;}
	.st44{fill:none;stroke:#8C8C8C;stroke-width:3;stroke-miterlimit:10;}
	.st45{clip-path:url(#SVGID_2_);fill:#8C8C8C;}
	.st46{clip-path:url(#SVGID_2_);fill:none;stroke:#8C8C8C;stroke-width:8;stroke-miterlimit:10;}
	.st47{clip-path:url(#SVGID_2_);fill:#FFFFFF;}
	.st48{clip-path:url(#SVGID_2_);fill:#EAEAEA;}
	.st49{clip-path:url(#SVGID_2_);fill:none;stroke:#8C8C8C;stroke-miterlimit:10;}
	.st50{fill:none;stroke:#FFFFFF;stroke-width:0.75;stroke-miterlimit:10;}
	.st51{fill:none;stroke:#8C8C8C;stroke-width:14;stroke-miterlimit:10;}
	.st52{fill:none;stroke:#EAEAEA;stroke-width:2;stroke-miterlimit:10;}
	.st53{fill:none;stroke:#8C8C8C;stroke-width:2;stroke-miterlimit:10;}
</style>
<rect x="1" class="st0" width="500" height="500"/>
<path class="st1" d="M370.9,184c1,2.4,3.7,3.6,6.1,2.6c2.4-1,3.6-3.7,2.6-6.1L323.4,40.1c-1-2.4-3.7-3.6-6.1-2.6s-3.6,3.7-2.6,6.1
	c4.9,12.3-7.4,30-16,40.2c-16.1,19-39.6,36.5-55.1,44.1l-7-17.4l4.4-1.8c2.4-1,3.6-3.7,2.6-6.1c-1-2.4-3.7-3.6-6.1-2.6l-35.1,14.1
	c-2.4,1-3.6,3.7-2.6,6.1c1,2.4,3.7,3.6,6.1,2.6l4.4-1.8l7,17.5L183.9,152c-36.3,14.5-54,55.9-39.4,92.2s55.9,54,92.2,39.4l55.3-22.2
	c27.7-11.1,41.3-44,26.8-72.2c-5.4-10.4-14.2-18.5-25.2-23.2c12.4-1.2,25.7-1.4,38-0.1C344.8,167.4,365.9,171.7,370.9,184z
	 M226,135.2l-7-17.5l8.8-3.5l7,17.5L226,135.2z M253.3,165l-57.9,23.2c-19.1,7.7-30,28.7-23.5,48c7,20.6,29.7,31,49.9,22.9
	c6-2.4,52.1-20.9,59.7-23.9c14.5-5.8,21.6-22.3,15.8-36.9c-5.8-14.5-22.4-21.6-36.9-15.8l-59.7,23.9c-9.7,3.9-14.4,14.9-10.5,24.6
	c3.9,9.7,14.9,14.4,24.6,10.5l42.1-16.9c2.4-1,3.6-3.7,2.6-6.1l-8.8-21.9l8.8-3.5l12.3,30.7c1,2.4-0.2,5.2-2.6,6.1l-50.9,20.4
	c-15,6-32.1-1.7-37.4-17.2c-4.8-14,3.3-30.2,18-36.1c7.7-3.1,50.4-20.2,56-22.5c21.2-8.5,45.5-0.1,55.4,19.1
	c11.9,23.1,0.8,50-21.9,59.1l-55.3,22.2c-31.4,12.6-67.3-2.7-79.9-34.2s2.7-67.3,34.2-79.9l55.3-22.2c15.7-6.3,41.2-24.3,59.9-45
	l25,62.5C299.9,154.1,269,158.7,253.3,165z M281.5,224.5c-0.1-1.4-0.4-2.8-1-4.2l-12.1-30.2c8.3-1.1,16.7,3.6,20,11.7
	C291.8,210.3,288.6,219.7,281.5,224.5z M228.3,220.8l1.8,4.4l-10.1,4l-1.8-4.4c-1-2.4-3.7-3.6-6.1-2.6c-2.4,1-3.6,3.7-2.6,6.1
	l1.8,4.4c-4.8,1.9-10.4-0.4-12.3-5.3c-1.9-4.8,0.4-10.4,5.3-12.3l37.7-15.1l7,17.5l-10.1,4l-1.8-4.4c-1-2.4-3.7-3.6-6.1-2.6
	C228.5,215.7,227.3,218.4,228.3,220.8z M309.5,85.5c6.1-7.8,10.5-15.3,13-22.1l40.5,101c-6.6-3.2-14.9-5.6-24.7-7L309.5,85.5z"/>
<g>
	<rect x="2" y="363" class="st24" width="500" height="144"/>
	<text transform="matrix(1 0 0 1 199.0532 401.5557)" class="st23 st36 st37">Tuba</text>
</g>
</svg>
