<?xml version="1.0" encoding="utf-8"?>
<!-- Generator: Adobe Illustrator 22.1.0, SVG Export Plug-In . SVG Version: 6.00 Build 0)  -->
<svg style="enable-background:new 0 0 500 500;" id="Calque_1" version="1.1" viewBox="0 0 500 500" x="0px"
     xmlns="http://www.w3.org/2000/svg" y="0px" xml:space="preserve">
<style type="text/css">
	.st0{fill:#EAEAEA;}
	.st1{fill:#8C8C8C;}
	.st2{fill:#FFFFFF;}
	.st3{fill:#EAEAEA;stroke:#8C8C8C;stroke-width:7;stroke-miterlimit:10;}
	.st4{fill:#070707;}
	.st5{fill:none;stroke:#8C8C8C;stroke-width:7;stroke-miterlimit:10;}
	.st6{fill:none;stroke:#8C8C8C;stroke-width:10;stroke-miterlimit:10;}
	.st7{fill:#8C8C8C;stroke:#8C8C8C;stroke-width:3;stroke-miterlimit:10;}
	.st8{fill:none;stroke:#8C8C8C;stroke-width:8;stroke-miterlimit:10;}
	.st9{fill:none;stroke:#8E8E8E;stroke-width:6;stroke-miterlimit:10;}
	.st10{fill:#8E8E8E;}
	.st11{fill:#505050;}
	.st12{fill:none;stroke:#8E8E8E;stroke-width:2;stroke-miterlimit:10;}
	.st13{fill:#8C8C8C;stroke:#8C8C8C;stroke-width:2;stroke-miterlimit:10;}
	.st14{fill:#8C8C8C;stroke:#FFFFFF;stroke-width:2;stroke-miterlimit:10;}
	.st15{fill:none;stroke:#FFFFFF;stroke-width:2;stroke-miterlimit:10;}
	.st16{fill:none;stroke:#8C8C8C;stroke-miterlimit:10;}
	.st17{fill:none;stroke:#8C8C8C;stroke-width:13;stroke-miterlimit:10;}
	.st18{fill:#EAEAEA;stroke:#8C8C8C;stroke-width:8;stroke-miterlimit:10;}
	.st19{fill:none;stroke:#8C8C8C;stroke-width:4;stroke-miterlimit:10;}
	.st20{fill:#8C8C8C;stroke:#8C8C8C;stroke-width:0.75;stroke-miterlimit:10;}
	.st21{fill:none;stroke:#8C8C8C;stroke-width:9;stroke-miterlimit:10;}
	.st22{fill:#8C8C8C;stroke:#8C8C8C;stroke-width:0.5;stroke-miterlimit:10;}
	.st23{fill:none;}
	.st24{fill:#6B6B6B;}
	.st25{font-family:'HelveticaNeue-CondensedBold';}
	.st26{font-size:54px;}
	.st27{stroke:#8C8C8C;stroke-width:8;stroke-miterlimit:10;}
	.st28{fill:#8C8C8C;stroke:#8C8C8C;stroke-miterlimit:10;}
	.st29{fill:none;stroke:#8C8C8C;stroke-width:11;stroke-miterlimit:10;}
	.st30{fill:none;stroke:#8C8C8C;stroke-width:6;stroke-miterlimit:10;}
	.st31{stroke:#8C8C8C;stroke-width:6;stroke-miterlimit:10;}
	.st32{fill:#8C8C8C;stroke:#8C8C8C;stroke-width:4;stroke-miterlimit:10;}
	.st33{fill:#8C8C8C;stroke:#8C8C8C;stroke-width:1.05;stroke-miterlimit:10;}
	.st34{fill:#D6D6D6;}
	.st35{fill:none;stroke:#EAEAEA;stroke-width:5;stroke-miterlimit:10;}
	.st36{fill:#8C8C8C;stroke:#8C8C8C;stroke-width:10;stroke-miterlimit:10;}
	.st37{fill:none;stroke:#CECECE;stroke-width:2;stroke-miterlimit:10;}
	.st38{fill:none;stroke:#FFFFFF;stroke-width:4;stroke-miterlimit:10;}
	.st39{fill-rule:evenodd;clip-rule:evenodd;fill:#8C8C8C;}
	.st40{fill:#8C8C8C;stroke:#8C8C8C;stroke-width:8;stroke-miterlimit:10;}
	.st41{fill:#8C8C8C;stroke:#8C8C8C;stroke-width:7;stroke-miterlimit:10;}
	.st42{fill:#DBDBDB;stroke:#8C8C8C;stroke-width:7;stroke-miterlimit:10;}
	.st43{fill:none;stroke:#8C8C8C;stroke-width:5;stroke-miterlimit:10;}
	.st44{fill:none;stroke:#8C8C8C;stroke-width:3;stroke-miterlimit:10;}
	.st45{clip-path:url(#SVGID_2_);fill:#8C8C8C;}
	.st46{clip-path:url(#SVGID_2_);fill:none;stroke:#8C8C8C;stroke-width:8;stroke-miterlimit:10;}
	.st47{clip-path:url(#SVGID_2_);fill:#FFFFFF;}
	.st48{clip-path:url(#SVGID_2_);fill:#EAEAEA;}
	.st49{clip-path:url(#SVGID_2_);fill:none;stroke:#8C8C8C;stroke-miterlimit:10;}
	.st50{fill:none;stroke:#FFFFFF;stroke-width:0.75;stroke-miterlimit:10;}
	.st51{fill:none;stroke:#8C8C8C;stroke-width:14;stroke-miterlimit:10;}
	.st52{fill:none;stroke:#EAEAEA;stroke-width:2;stroke-miterlimit:10;}
	.st53{fill:none;stroke:#8C8C8C;stroke-width:2;stroke-miterlimit:10;}
</style>
    <rect class="st0" height="500" width="500"/>
    <path class="st1" d="M207.3,177c-7.8,34.9,14.2,69.6,49.1,77.3s69.6-14.4,77.3-49.3c6.4-28.8-7.7-58.3-33.7-71.7l2.7-12
	c0.6-2.5-0.7-4.9-3.2-5.5l-22.4-5c-2.5-0.6-4.7,1.1-5.3,3.6l-2.6,11.7C239.3,126.9,213.8,147.8,207.3,177z M285.6,155.8
	c-0.8,3.7-4.3,6.1-8,5.3c-3.7-0.8-5.8-4.4-5-8.2l7.1-31.9l12.9,2.9L285.6,155.8z M215.1,194.6c-1.9-30.7,21.3-57.1,52-59l-3.4,15.3
	c-1.9,8.5,3.5,17,12,18.9s17-3.5,18.9-12l3.3-15c21.1,12.1,31.9,36.6,26.7,60.3c-6.7,29.9-36.3,48.9-66.2,42.3
	C234.3,239.9,216.6,219.2,215.1,194.6z"/>
    <path class="st1" d="M147.5,275.1c0,0-0.1,0-0.1,0c-2.4-0.5-4.8,1-5.3,3.4l-3.8,17c0,0,0,0,0,0c-0.6,2.5,1,4.9,3.4,5.5l3.4,0.8
	l-3.5,15.5c-0.1,0.3-0.2,0.6-0.2,1l0,31c0,2.1,1.5,4,3.6,4.4l19.9,4.4c2.1,0.5,4.3-0.5,5.2-2.5l13.2-28c0.2-0.3,0.3-0.6,0.4-0.9
	l3.5-15.5l3.1,0.7c2.5,0.6,4.7-1.1,5.2-3.6l3.8-17c0-0.1,0-0.2,0.1-0.3c0.5-2.3-1-4.6-3.3-5l-3.1-0.7l5.8-26.3
	c13.5,14.4,31,24.3,50.2,28.5c53.2,11.8,105.9-21.9,117.7-75c11.8-53.2-21.8-106-75-117.8s-106,21.8-117.8,74.9
	c-0.2,1-0.5,2.3-0.6,2.8l-0.1,0l-22.7,103.5L147.5,275.1L147.5,275.1z M183.1,171.6c10.7-48.2,58.6-78.7,106.8-68
	s78.7,58.6,68,106.8s-58.6,78.7-106.8,68C202.9,267.7,172.4,219.8,183.1,171.6z M174.2,212.5c3.1,13.6,9,26.4,17.3,37.5l-7.4,33.2
	l-24.4-5.4L174.2,212.5L174.2,212.5z M154.2,303.7l24.2,5.4l-3.3,15.1l-11.6,24.1l-12.7-2.8l0.1-26.7L154.2,303.7z M150.1,285.1
	l39.4,8.7l-1.7,7.9l-39.4-8.7L150.1,285.1z"/>
    <g>
	<rect class="st23" height="144" width="500" x="-1" y="369"/>
        <text class="st24 st25 st26" transform="matrix(1 0 0 1 62.1631 407.5557)">Tuyau d’arrosage </text>
</g>
</svg>
