<?xml version="1.0" encoding="utf-8"?>
<!-- Generator: Adobe Illustrator 22.1.0, SVG Export Plug-In . SVG Version: 6.00 Build 0)  -->
<svg version="1.1" id="Calque_1" xmlns="http://www.w3.org/2000/svg" xmlns:xlink="http://www.w3.org/1999/xlink" x="0px" y="0px"
	 viewBox="0 0 500 500" style="enable-background:new 0 0 500 500;" xml:space="preserve">
<style type="text/css">
	.st0{fill:#EAEAEA;}
	.st1{fill:#8C8C8C;}
	.st2{fill:#FFFFFF;}
	.st3{fill:#EAEAEA;stroke:#8C8C8C;stroke-width:7;stroke-miterlimit:10;}
	.st4{fill:#070707;}
	.st5{fill:none;stroke:#8C8C8C;stroke-width:7;stroke-miterlimit:10;}
	.st6{fill:none;stroke:#8C8C8C;stroke-width:10;stroke-miterlimit:10;}
	.st7{fill:#8C8C8C;stroke:#8C8C8C;stroke-width:3;stroke-miterlimit:10;}
	.st8{fill:none;stroke:#8C8C8C;stroke-width:8;stroke-miterlimit:10;}
	.st9{fill:none;stroke:#8E8E8E;stroke-width:6;stroke-miterlimit:10;}
	.st10{fill:#8E8E8E;}
	.st11{fill:#505050;}
	.st12{fill:none;stroke:#8E8E8E;stroke-width:2;stroke-miterlimit:10;}
	.st13{fill:#8C8C8C;stroke:#8C8C8C;stroke-width:2;stroke-miterlimit:10;}
	.st14{fill:#8C8C8C;stroke:#FFFFFF;stroke-width:2;stroke-miterlimit:10;}
	.st15{fill:none;stroke:#FFFFFF;stroke-width:2;stroke-miterlimit:10;}
	.st16{fill:none;stroke:#8C8C8C;stroke-miterlimit:10;}
	.st17{fill:none;stroke:#8C8C8C;stroke-width:13;stroke-miterlimit:10;}
	.st18{fill:#EAEAEA;stroke:#8C8C8C;stroke-width:8;stroke-miterlimit:10;}
	.st19{fill:none;stroke:#8C8C8C;stroke-width:4;stroke-miterlimit:10;}
	.st20{fill:#8C8C8C;stroke:#8C8C8C;stroke-width:0.75;stroke-miterlimit:10;}
	.st21{fill:none;stroke:#8C8C8C;stroke-width:9;stroke-miterlimit:10;}
	.st22{fill:#8C8C8C;stroke:#8C8C8C;stroke-width:0.5;stroke-miterlimit:10;}
	.st23{fill:#6B6B6B;}
	.st24{fill:none;}
	.st25{stroke:#8C8C8C;stroke-width:8;stroke-miterlimit:10;}
	.st26{fill:#8C8C8C;stroke:#8C8C8C;stroke-miterlimit:10;}
	.st27{fill:none;stroke:#8C8C8C;stroke-width:11;stroke-miterlimit:10;}
	.st28{fill:none;stroke:#8C8C8C;stroke-width:6;stroke-miterlimit:10;}
	.st29{stroke:#8C8C8C;stroke-width:6;stroke-miterlimit:10;}
	.st30{fill:#8C8C8C;stroke:#8C8C8C;stroke-width:4;stroke-miterlimit:10;}
	.st31{fill:#8C8C8C;stroke:#8C8C8C;stroke-width:1.05;stroke-miterlimit:10;}
	.st32{fill:#D6D6D6;}
	.st33{fill:none;stroke:#EAEAEA;stroke-width:5;stroke-miterlimit:10;}
	.st34{fill:#8C8C8C;stroke:#8C8C8C;stroke-width:10;stroke-miterlimit:10;}
	.st35{fill:none;stroke:#CECECE;stroke-width:2;stroke-miterlimit:10;}
	.st36{fill:none;stroke:#FFFFFF;stroke-width:4;stroke-miterlimit:10;}
	.st37{fill-rule:evenodd;clip-rule:evenodd;fill:#8C8C8C;}
	.st38{font-family:'HelveticaNeue-CondensedBold';}
	.st39{font-size:54px;}
	.st40{fill:#8C8C8C;stroke:#8C8C8C;stroke-width:8;stroke-miterlimit:10;}
	.st41{fill:#8C8C8C;stroke:#8C8C8C;stroke-width:7;stroke-miterlimit:10;}
	.st42{fill:#DBDBDB;stroke:#8C8C8C;stroke-width:7;stroke-miterlimit:10;}
	.st43{fill:none;stroke:#8C8C8C;stroke-width:5;stroke-miterlimit:10;}
	.st44{fill:none;stroke:#8C8C8C;stroke-width:3;stroke-miterlimit:10;}
	.st45{clip-path:url(#SVGID_2_);fill:#8C8C8C;}
	.st46{clip-path:url(#SVGID_2_);fill:none;stroke:#8C8C8C;stroke-width:8;stroke-miterlimit:10;}
	.st47{clip-path:url(#SVGID_2_);fill:#FFFFFF;}
	.st48{clip-path:url(#SVGID_2_);fill:#EAEAEA;}
	.st49{clip-path:url(#SVGID_2_);fill:none;stroke:#8C8C8C;stroke-miterlimit:10;}
	.st50{fill:none;stroke:#FFFFFF;stroke-width:0.75;stroke-miterlimit:10;}
	.st51{fill:none;stroke:#8C8C8C;stroke-width:14;stroke-miterlimit:10;}
	.st52{fill:none;stroke:#EAEAEA;stroke-width:2;stroke-miterlimit:10;}
	.st53{fill:none;stroke:#8C8C8C;stroke-width:2;stroke-miterlimit:10;}
</style>
<rect y="1" class="st0" width="500" height="500"/>
<g>
	<path class="st1" d="M177.6,228.2c-18.8,0-34.1,15.3-34.1,34.1s15.3,34.1,34.1,34.1s34.1-15.3,34.1-34.1S196.4,228.2,177.6,228.2z
		 M152.6,262.3c0-13.8,11.2-25.1,25.1-25.1s25.1,11.2,25.1,25.1c0,13.8-11.2,25.1-25.1,25.1S152.6,276.1,152.6,262.3z"/>
	<path class="st1" d="M177.6,246.2c-8.9,0-16.1,7.2-16.1,16.1c0,8.9,7.2,16.1,16.1,16.1s16.1-7.2,16.1-16.1
		C193.7,253.4,186.5,246.2,177.6,246.2z M177.6,269.3c-3.9,0-7.1-3.2-7.1-7.1c0-3.9,3.2-7.1,7.1-7.1s7.1,3.2,7.1,7.1
		C184.7,266.2,181.5,269.3,177.6,269.3z"/>
	<path class="st1" d="M391,237c-6.1-0.1-12.2-0.3-18.3-0.4c-3,0-6,0-9,0h-9.3V111.2c0-12.1-9.8-21.9-21.9-21.9H130.9
		c-12.1,0-21.9,9.8-21.9,21.9v144.1c0,2.5,2,4.5,4.5,4.5h12.6c2.3,0.5,5.4,0.8,7.9-0.8c2.9-1.8,3.6-5.3,4-7c2.3-8.8,9-15.2,13-19
		c9.1-8.6,22-8.7,26.6-8.8c3.7,0,20.8-0.2,30.4,10.8c3.6,4.1,11.3,12.9,13,21c0.2,0.9,0.8,4.1,3,5c1.7,0.7,3.7-0.3,5.1-1.2h120.8
		h13.8v37.1c3,0,6,0,9,0v-37.1h13.8c2.5,0,4.5-2,4.5-4.5C391,249.2,391,243.1,391,237z M177.6,215.2c-22.7,0-42.4,14.7-49.4,35.6
		H118v-49.5h169c0,8.6,0,17.2,0,25.7c2.3,24,4,28,5,28c1,0,2.5-4.1,4-28c0-33.1,0-66.2,0-99.4h49.4v123.1H296l0-24
		c0-2.5-2-4.5-4.5-4.5c-2.5,0-4.5,2-4.5,4.5l0,24h-60C220.1,229.9,200.3,215.2,177.6,215.2z M130.9,98.3h201.7
		c7.1,0,12.9,5.8,12.9,12.9v7.5H118v-7.5C118,104.1,123.8,98.3,130.9,98.3z M236.7,176.7H287v15.5h-50.3V176.7L236.7,176.7z
		 M227.7,192.3h-50.3v-15.5h50.3V192.3z M287,167.7h-50.3v-15.5H287V167.7z M236.7,143.2v-15.5H287v15.5H236.7z M227.7,127.6v15.5
		h-50.3v-15.5L227.7,127.6z M227.7,152.2v15.5h-50.3v-15.5H227.7z M168.3,167.7H118v-15.5h50.3V167.7z M168.3,176.7v15.5H118v-15.5
		H168.3z M168.3,127.6v15.5H118v-15.5L168.3,127.6z M382,250.8h-27.6v-5.2H382V250.8z"/>
	<rect x="118" y="121" class="st1" width="169" height="78"/>
</g>
<g>
	<rect y="365" class="st24" width="500" height="144"/>
	<text transform="matrix(1 0 0 1 209.5005 403.5557)" class="st23 st38 st39">Van</text>
</g>
</svg>
