<?xml version="1.0" encoding="utf-8"?>
<!-- Generator: Adobe Illustrator 22.1.0, SVG Export Plug-In . SVG Version: 6.00 Build 0)  -->
<svg style="enable-background:new 0 0 500 500;" id="Calque_1" version="1.1" viewBox="0 0 500 500" x="0px"
     xmlns="http://www.w3.org/2000/svg" y="0px" xml:space="preserve">
<style type="text/css">
	.st0{fill:#4FBDD7;}
	.st1{fill:#EAEAEA;}
	.st2{fill:#FFFFFF;}
	.st3{fill:#4FBDD7;stroke:#FFFFFF;stroke-width:5;stroke-miterlimit:10;}
	.st4{fill:#8C8C8C;}
	.st5{fill:#070707;}
	.st6{fill:none;stroke:#FFFFFF;stroke-width:7;stroke-miterlimit:10;}
	.st7{fill:none;stroke:#FFFFFF;stroke-width:10;stroke-miterlimit:10;}
	.st8{fill:#FFFFFF;stroke:#FFFFFF;stroke-width:3;stroke-miterlimit:10;}
	.st9{fill:none;stroke:#FDFFFF;stroke-width:6;stroke-miterlimit:10;}
	.st10{fill:#FAFEFF;}
	.st11{fill:none;stroke:#FFFFFF;stroke-width:2;stroke-miterlimit:10;}
	.st12{fill:#FFFFFF;stroke:#FFFFFF;stroke-width:2;stroke-miterlimit:10;}
	.st13{fill:#4FBDD7;stroke:#FFFFFF;stroke-width:4;stroke-miterlimit:10;}
	.st14{fill:#FFFFFF;stroke:#FFFFFF;stroke-width:4;stroke-miterlimit:10;}
	.st15{fill:none;stroke:#FFFFFF;stroke-miterlimit:10;}
	.st16{fill:#FFFFFF;stroke:#FFFFFF;stroke-width:13;stroke-miterlimit:10;}
	.st17{fill:#4FBDD7;stroke:#FFFFFF;stroke-width:8;stroke-miterlimit:10;}
	.st18{fill:#FFFFFF;stroke:#FFFFFF;stroke-width:0.75;stroke-miterlimit:10;}
	.st19{fill:#FFFFFF;stroke:#FFFFFF;stroke-width:0.5;stroke-miterlimit:10;}
	.st20{fill:none;}
	.st21{font-family:'HelveticaNeue-CondensedBold';}
	.st22{font-size:54px;}
	.st23{fill:#FFFFFF;stroke:#FFFFFF;stroke-width:8;stroke-miterlimit:10;}
	.st24{fill:#FFFFFF;stroke:#FFFFFF;stroke-miterlimit:10;}
	.st25{fill:#FFFFFF;stroke:#FFFFFF;stroke-width:11;stroke-miterlimit:10;}
	.st26{fill:#FFFFFF;stroke:#FFFFFF;stroke-width:6;stroke-miterlimit:10;}
	.st27{fill:#8C8C8C;stroke:#8C8C8C;stroke-width:4;stroke-miterlimit:10;}
	.st28{fill:#FFFFFF;stroke:#FFFFFF;stroke-width:1.05;stroke-miterlimit:10;}
	.st29{fill:none;stroke:#4FBDD7;stroke-width:5;stroke-miterlimit:10;}
	.st30{fill:none;stroke:#FFFFFF;stroke-width:4;stroke-miterlimit:10;}
	.st31{fill:#8C8C8C;stroke:#FFFFFF;stroke-width:4;stroke-miterlimit:10;}
	.st32{fill:#FFFFFF;stroke:#FFFFFF;stroke-width:10;stroke-miterlimit:10;}
	.st33{fill:none;stroke:#4FBDD7;stroke-width:2;stroke-miterlimit:10;}
	.st34{fill-rule:evenodd;clip-rule:evenodd;fill:#FFFFFF;}
	.st35{fill:#FFFFFF;stroke:#FFFFFF;stroke-width:7;stroke-miterlimit:10;}
	.st36{fill:#FFFFFF;stroke:#4FBDD7;stroke-width:7;stroke-miterlimit:10;}
	.st37{fill:#FCFCFC;}
	.st38{fill:#FFFFFF;stroke:#FFFFFF;stroke-width:5;stroke-miterlimit:10;}
	.st39{fill:none;stroke:#FFFFFF;stroke-width:3;stroke-miterlimit:10;}
	.st40{fill:none;stroke:#FFFFFF;stroke-width:8;stroke-miterlimit:10;}
	.st41{fill:none;stroke:#FFFFFF;stroke-width:6;stroke-miterlimit:10;}
	.st42{fill:#FFFFFF;stroke:#4FBDD7;stroke-width:3;stroke-miterlimit:10;}
	.st43{fill:none;stroke:#FFFFFF;stroke-width:0.75;stroke-miterlimit:10;}
	.st44{fill:#4FBDD7;stroke:#FFFFFF;stroke-width:9;stroke-miterlimit:10;}
	.st45{fill:none;stroke:#FFFFFF;stroke-width:9;stroke-miterlimit:10;}
	.st46{fill:none;stroke:#4FBDD7;stroke-width:3;stroke-miterlimit:10;}
</style>
    <rect class="st0" height="513" width="507" x="-5" y="-6"/>
    <path class="st9" d="M318.4,207.4c-3.8-4.4-9.3-7-15.1-7h-7.5V176c0-1.9-1.6-3.5-3.5-3.5h-51.2c-1.9,0-3.5,1.6-3.5,3.5v24.4h-7.5
	c-5.8,0-11.3,2.5-15.1,7c-3.8,4.4-5.4,10.3-4.4,16l15.4,92.7c0.3,1.7,1.7,2.9,3.4,2.9h74.4c1.7,0,3.2-1.2,3.4-2.9l15.4-92.7
	C323.8,217.7,322.2,211.8,318.4,207.4z"/>
    <path class="st10" d="M159.4,119c0.6-1.5,2.3-2.2,3.8-1.6l49.7,20.6c1.5,0.6,2.2,2.3,1.6,3.8c-0.6,1.5-2.3,2.2-3.8,1.6L161,122.8
	C159.5,122.2,158.8,120.5,159.4,119z"/>
    <path class="st2"
          d="M297,193.4h-60.5c-1.9,0-3.5-1.6-3.5-3.5s1.6-3.5,3.5-3.5H297c1.9,0,3.5,1.6,3.5,3.5S298.9,193.4,297,193.4z"/>
    <path class="st2" d="M157.4,138.6l14.7-35.7c0.6-1.5-0.1-3.2-1.6-3.8l-21.5-8.9L117,77c-11.3-4.7-24.3,0.7-29,12
	c-4.7,11.3,0.7,24.3,12,29l53.5,22.1C155.1,140.8,156.8,140.1,157.4,138.6z"/>
    <path class="st2" d="M157.4,138.6l4.5-10.9l-2.3-0.9c-0.1,0-0.3-0.1-0.4-0.1l-53.5-22.1c-8.9-3.7-14.2-12.6-13.7-21.7
	c-1.6,1.8-3,3.9-4,6.3c-4.7,11.3,0.7,24.3,12,29l53.5,22.1C155.1,140.8,156.8,140.1,157.4,138.6z"/>
    <path class="st11" d="M243.1,170.7c0.9-0.2,1.7-0.8,2-1.7l10.6-25.7c0.4-0.9,0.3-1.9-0.2-2.7c-0.5-0.8-1.4-1.3-2.3-1.3l-41.2-1.5
	c-1.2,0-2.3,0.7-2.8,1.8c0,0,0,0,0,0c-0.5,1.1-0.1,2.4,0.8,3.2l30.5,27.2C241.2,170.7,242.2,170.9,243.1,170.7z"/>
    <g>
	<path class="st2" d="M318.4,207.4c-3.8-4.4-9.3-7-15.1-7c-2.4-0.1-4.9-0.2-7.3-0.4c-0.9,0.5-1.9,1.1-2,2c-0.1,1.7,3.4,2.2,6.4,5.4
		c2.6,2.7,3.5,5.8,3.9,7.4c0.8,2.8,1,5.7,0.5,8.7l-15.4,92.7c-0.3,1.7-1.7,2.9-3.4,2.9h18c1.7,0,3.2-1.2,3.4-2.9l15.4-92.7
		C323.8,217.7,322.2,211.8,318.4,207.4z"/>
</g>
    <path class="st10" d="M243.3,170c0.9-0.2,1.7-0.8,2-1.7l4.2-10.1l-23.1-20.6l-14.2-0.5c-1.2,0-2.3,0.7-2.8,1.8c0,0,0,0,0,0
	c-0.5,1.1-0.1,2.4,0.8,3.2l30.5,27.2C241.5,170,242.4,170.2,243.3,170z"/>
    <g>
	<rect class="st20" height="144" width="520" x="6" y="366"/>
        <text transform="matrix(1 0 0 1 130.6245 404.5557)"><tspan class="st2 st21 st22" x="0" y="0">Vernis / Gels </tspan>
            <tspan class="st2 st21 st22" x="37.9" y="64.8">Capsules </tspan></text>
</g>
</svg>
