<?xml version="1.0"?>
<svg xmlns="http://www.w3.org/2000/svg" xmlns:xlink="http://www.w3.org/1999/xlink" xmlns:svgjs="http://svgjs.com/svgjs" version="1.1" width="512" height="512" x="0" y="0" viewBox="0 0 64 64" style="enable-background:new 0 0 512 512" xml:space="preserve" class=""><g><path xmlns="http://www.w3.org/2000/svg" d="m54 30h-39.899l15.278-14.552c.8-.762.831-2.028.069-2.828-.761-.799-2.027-.831-2.828-.069l-17.448 16.62c-.755.756-1.172 1.76-1.172 2.829 0 1.068.417 2.073 1.207 2.862l17.414 16.586c.387.369.883.552 1.379.552.528 0 1.056-.208 1.449-.621.762-.8.731-2.065-.069-2.827l-15.342-14.552h39.962c1.104 0 2-.896 2-2s-.896-2-2-2z" fill="#ffffff" data-original="#000000" style="" class=""/></g></svg>
