<svg id="livetype" xmlns="http://www.w3.org/2000/svg" width="126.51549" height="40" viewBox="0 0 126.51549 40">
  <title>Download_on_the_App_Store_Badge_FR_RGB_wht_100217</title>
  <g>
    <g>
      <g>
        <path d="M116.98619,0H9.53468c-.3667,0-.729,0-1.09473.002-.30615.002-.60986.00781-.91895.0127A13.21476,13.21476,0,0,0,5.5171.19141a6.66509,6.66509,0,0,0-1.90088.627A6.43779,6.43779,0,0,0,1.99757,1.99707,6.25844,6.25844,0,0,0,.81935,3.61816a6.60119,6.60119,0,0,0-.625,1.90332,12.993,12.993,0,0,0-.1792,2.002C.00587,7.83008.00489,8.1377,0,8.44434V31.5586c.00489.3105.00587.6113.01515.9219a12.99232,12.99232,0,0,0,.1792,2.0019,6.58756,6.58756,0,0,0,.625,1.9043A6.20778,6.20778,0,0,0,1.99757,38.001a6.27445,6.27445,0,0,0,1.61865,1.1787,6.70082,6.70082,0,0,0,1.90088.6308,13.45514,13.45514,0,0,0,2.0039.1768c.30909.0068.6128.0107.91895.0107C8.80567,40,9.168,40,9.53468,40H116.98619c.3594,0,.7246,0,1.084-.002.3047,0,.6172-.0039.9219-.0107a13.279,13.279,0,0,0,2-.1768,6.80432,6.80432,0,0,0,1.9082-.6308,6.27742,6.27742,0,0,0,1.6172-1.1787,6.39482,6.39482,0,0,0,1.1816-1.6143,6.60413,6.60413,0,0,0,.6191-1.9043,13.50643,13.50643,0,0,0,.1856-2.0019c.0039-.3106.0039-.6114.0039-.9219.0078-.3633.0078-.7246.0078-1.0938V9.53613c0-.36621,0-.72949-.0078-1.09179,0-.30664,0-.61426-.0039-.9209a13.5071,13.5071,0,0,0-.1856-2.002,6.6177,6.6177,0,0,0-.6191-1.90332,6.46619,6.46619,0,0,0-2.7988-2.7998,6.76754,6.76754,0,0,0-1.9082-.627,13.04394,13.04394,0,0,0-2-.17676c-.3047-.00488-.6172-.01074-.9219-.01269-.3594-.002-.7246-.002-1.084-.002Z"/>
        <path d="M8.44483,39.125c-.30468,0-.602-.0039-.90429-.0107a12.68714,12.68714,0,0,1-1.86914-.1631,5.88381,5.88381,0,0,1-1.65674-.5479,5.40573,5.40573,0,0,1-1.397-1.0166,5.32082,5.32082,0,0,1-1.02051-1.3965,5.72186,5.72186,0,0,1-.543-1.6572,12.41351,12.41351,0,0,1-.1665-1.875c-.00634-.2109-.01464-.9131-.01464-.9131V8.44434S.88185,7.75293.8877,7.5498a12.37039,12.37039,0,0,1,.16553-1.87207,5.7555,5.7555,0,0,1,.54346-1.6621A5.37349,5.37349,0,0,1,2.61183,2.61768,5.56543,5.56543,0,0,1,4.01417,1.59521a5.82309,5.82309,0,0,1,1.65332-.54394A12.58589,12.58589,0,0,1,7.543.88721L8.44532.875h109.62l.9131.0127a12.38493,12.38493,0,0,1,1.8584.16259,5.93833,5.93833,0,0,1,1.6709.54785,5.59374,5.59374,0,0,1,2.415,2.41993,5.76267,5.76267,0,0,1,.5352,1.64892,12.995,12.995,0,0,1,.1738,1.88721c.0029.2832.0029.5874.0029.89014.0079.375.0079.73193.0079,1.09179V30.4648c0,.3633,0,.7178-.0079,1.0752,0,.3252,0,.6231-.0039.9297a12.73127,12.73127,0,0,1-.1709,1.8535,5.739,5.739,0,0,1-.54,1.67,5.48029,5.48029,0,0,1-1.0156,1.3857,5.4129,5.4129,0,0,1-1.3994,1.0225,5.86168,5.86168,0,0,1-1.668.5498,12.54218,12.54218,0,0,1-1.8692.1631c-.2929.0068-.5996.0107-.8974.0107l-1.084.002Z" style="fill: #fff"/>
      </g>
      <g id="_Group_" data-name="&lt;Group&gt;">
        <g id="_Group_2" data-name="&lt;Group&gt;">
          <g id="_Group_3" data-name="&lt;Group&gt;">
            <path id="_Path_" data-name="&lt;Path&gt;" d="M24.99671,19.88935a5.14625,5.14625,0,0,1,2.45058-4.31771,5.26776,5.26776,0,0,0-4.15039-2.24376c-1.74624-.1833-3.43913,1.04492-4.329,1.04492-.90707,0-2.27713-1.02672-3.75247-.99637a5.52735,5.52735,0,0,0-4.65137,2.8367c-2.01111,3.482-.511,8.59939,1.41551,11.414.96388,1.37823,2.09037,2.91774,3.56438,2.86315,1.4424-.05983,1.98111-.91977,3.7222-.91977,1.72494,0,2.23035.91977,3.73427.88506,1.54777-.02512,2.52292-1.38435,3.453-2.77563a11.39931,11.39931,0,0,0,1.579-3.21589A4.97284,4.97284,0,0,1,24.99671,19.88935Z"/>
            <path id="_Path_2" data-name="&lt;Path&gt;" d="M22.15611,11.47681a5.06687,5.06687,0,0,0,1.159-3.62989,5.15524,5.15524,0,0,0-3.33555,1.72582,4.82131,4.82131,0,0,0-1.18934,3.4955A4.26259,4.26259,0,0,0,22.15611,11.47681Z"/>
          </g>
        </g>
      </g>
    </g>
    <g id="_Group_4" data-name="&lt;Group&gt;">
      <g>
        <path d="M35.6216,14.70166V9.57813h-1.877V8.73486h4.67676v.84326h-1.873v5.12354Z"/>
        <path d="M42.731,13.48584a1.828,1.828,0,0,1-1.95117,1.30273,2.04531,2.04531,0,0,1-2.08008-2.32422,2.07685,2.07685,0,0,1,2.07617-2.35254c1.25293,0,2.00879.856,2.00879,2.27v.31006H39.605v.0498a1.1902,1.1902,0,0,0,1.19922,1.29,1.07934,1.07934,0,0,0,1.07129-.5459Zm-3.126-1.45117h2.27441a1.08647,1.08647,0,0,0-1.1084-1.1665A1.15162,1.15162,0,0,0,39.605,12.03467Zm.63672-2.58887,1.03809-1.42236h1.042L41.15969,9.4458Z"/>
        <path d="M44.01906,8.44092h.88867v6.26074h-.88867Z"/>
        <path d="M50.17434,13.48584a1.828,1.828,0,0,1-1.95117,1.30273,2.04531,2.04531,0,0,1-2.08008-2.32422,2.07685,2.07685,0,0,1,2.07617-2.35254c1.25293,0,2.00879.856,2.00879,2.27v.31006H47.04836v.0498a1.1902,1.1902,0,0,0,1.19922,1.29,1.07934,1.07934,0,0,0,1.07129-.5459Zm-3.126-1.45117h2.27441a1.08647,1.08647,0,0,0-1.1084-1.1665A1.15162,1.15162,0,0,0,47.04836,12.03467Zm.63672-2.58887,1.03809-1.42236h1.042L48.603,9.4458Z"/>
        <path d="M54.36965,11.67041a1.00546,1.00546,0,0,0-1.06348-.76465c-.74414,0-1.19922.57031-1.19922,1.52979,0,.97607.459,1.55908,1.19922,1.55908a.97873.97873,0,0,0,1.06348-.74023h.86426a1.762,1.762,0,0,1-1.92285,1.53418,2.06791,2.06791,0,0,1-2.11328-2.353,2.05305,2.05305,0,0,1,2.1084-2.32373,1.77731,1.77731,0,0,1,1.92773,1.55859Z"/>
        <path d="M56.41359,8.44092h.88086v2.48145h.07031a1.3856,1.3856,0,0,1,1.373-.80664,1.48339,1.48339,0,0,1,1.55078,1.67871v2.90723h-.88965v-2.688c0-.71924-.335-1.0835-.96289-1.0835a1.05194,1.05194,0,0,0-1.13379,1.1416v2.62988h-.88867Z"/>
        <path d="M61.40578,13.42822c0-.81055.60352-1.27783,1.6748-1.34424l1.21973-.07031V11.625c0-.47559-.31445-.74414-.92187-.74414-.49609,0-.83984.18213-.93848.50049h-.86035c.09082-.77344.81836-1.26953,1.83984-1.26953,1.12891,0,1.76563.562,1.76563,1.51318v3.07666h-.85547v-.63281H64.2593a1.515,1.515,0,0,1-1.35254.707A1.36026,1.36026,0,0,1,61.40578,13.42822Zm2.89453-.38477V12.667l-1.09961.07031c-.62012.0415-.90137.25244-.90137.64941,0,.40527.35156.64111.835.64111A1.0615,1.0615,0,0,0,64.30031,13.04346Z"/>
        <path d="M66.57668,10.19873h.85547v.69043h.06641a1.22092,1.22092,0,0,1,1.21582-.76514,1.86836,1.86836,0,0,1,.39648.03711v.877a2.43442,2.43442,0,0,0-.49609-.05371A1.05507,1.05507,0,0,0,67.46535,12.043v2.65869h-.88867Z"/>
        <path d="M69.92824,15.15234h.90918c.0752.32666.45117.5376,1.05078.5376.74023,0,1.17871-.35156,1.17871-.94678v-.86426h-.06641a1.51433,1.51433,0,0,1-1.38965.75635c-1.14941,0-1.86035-.88867-1.86035-2.23682,0-1.373.71875-2.27441,1.86914-2.27441a1.56045,1.56045,0,0,1,1.41406.79395H73.104v-.71924h.85156v4.54c0,1.02979-.80664,1.68311-2.08008,1.68311C70.75051,16.42188,70.023,15.91748,69.92824,15.15234Zm3.15527-2.7583c0-.897-.46387-1.47168-1.2207-1.47168-.76465,0-1.19434.57471-1.19434,1.47168,0,.89746.42969,1.47217,1.19434,1.47217C72.62453,13.86621,73.08352,13.2959,73.08352,12.394Z"/>
        <path d="M79.17922,13.48584A1.828,1.828,0,0,1,77.228,14.78857,2.04531,2.04531,0,0,1,75.148,12.46436a2.07685,2.07685,0,0,1,2.07617-2.35254c1.25293,0,2.00879.856,2.00879,2.27v.31006H76.05324v.0498a1.1902,1.1902,0,0,0,1.19922,1.29,1.07934,1.07934,0,0,0,1.07129-.5459Zm-3.126-1.45117h2.27441a1.08647,1.08647,0,0,0-1.1084-1.1665A1.15162,1.15162,0,0,0,76.05324,12.03467Z"/>
        <path d="M80.42629,10.19873h.85547v.69043h.06641A1.22092,1.22092,0,0,1,82.564,10.124a1.86836,1.86836,0,0,1,.39648.03711v.877a2.43442,2.43442,0,0,0-.49609-.05371A1.05507,1.05507,0,0,0,81.315,12.043v2.65869h-.88867Z"/>
        <path d="M86.16262,12.44824c0-1.42285.73145-2.32422,1.86914-2.32422a1.484,1.484,0,0,1,1.38086.79H89.479V8.44092h.88867v6.26074h-.85156v-.71143h-.07031a1.56284,1.56284,0,0,1-1.41406.78564C86.88625,14.77588,86.16262,13.87451,86.16262,12.44824Zm.918,0c0,.95508.4502,1.52979,1.20313,1.52979.749,0,1.21191-.583,1.21191-1.52588,0-.93848-.46777-1.52979-1.21191-1.52979C87.53566,10.92236,87.08059,11.501,87.08059,12.44824Z"/>
        <path d="M91.56887,13.42822c0-.81055.60352-1.27783,1.6748-1.34424l1.21973-.07031V11.625c0-.47559-.31445-.74414-.92187-.74414-.49609,0-.83984.18213-.93848.50049H91.7427c.09082-.77344.81836-1.26953,1.83984-1.26953,1.12891,0,1.76563.562,1.76563,1.51318v3.07666H94.4927v-.63281h-.07031a1.515,1.515,0,0,1-1.35254.707A1.36026,1.36026,0,0,1,91.56887,13.42822Zm2.89453-.38477V12.667l-1.09961.07031c-.62012.0415-.90137.25244-.90137.64941,0,.40527.35156.64111.835.64111A1.0615,1.0615,0,0,0,94.4634,13.04346Z"/>
        <path d="M96.73977,10.19873h.85547v.71533h.06641a1.348,1.348,0,0,1,1.34375-.80225,1.46456,1.46456,0,0,1,1.55859,1.6748v2.915h-.88867V12.00977c0-.72363-.31445-1.0835-.97168-1.0835a1.03294,1.03294,0,0,0-1.0752,1.14111v2.63428h-.88867Z"/>
        <path d="M103.58449,10.11182c1.0127,0,1.6748.47119,1.76172,1.26514h-.85254c-.082-.33057-.40527-.5415-.90918-.5415-.49609,0-.873.23535-.873.58691,0,.269.22754.43848.71582.55029l.748.17334c.85645.19873,1.25781.56689,1.25781,1.22852,0,.84766-.79,1.41406-1.86523,1.41406-1.07129,0-1.76953-.48389-1.84863-1.28174h.88965a.91365.91365,0,0,0,.97949.562c.55371,0,.94727-.248.94727-.60791,0-.26855-.21094-.44238-.66211-.5498l-.78516-.18213c-.85645-.20264-1.25293-.58691-1.25293-1.25684C101.83547,10.67383,102.56691,10.11182,103.58449,10.11182Z"/>
      </g>
    </g>
    <g>
      <path d="M35.1924,18.07813h1.85938v12.418H35.1924Z"/>
      <path d="M39.292,22.62207l1.01563-4.54395h1.80664l-1.23047,4.54395Z"/>
      <path d="M49.14065,27.13965h-4.7334l-1.13672,3.35645H41.26565l4.4834-12.418h2.083l4.4834,12.418H50.27639Zm-4.24316-1.54883h3.752l-1.84961-5.44727h-.05176Z"/>
      <path d="M61.99709,25.96973c0,2.81348-1.50586,4.62109-3.77832,4.62109a3.0693,3.0693,0,0,1-2.84863-1.584h-.043v4.48438h-1.8584V21.44238H55.2676v1.50586h.03418a3.21162,3.21162,0,0,1,2.88281-1.60059C60.48244,21.34766,61.99709,23.16406,61.99709,25.96973Zm-1.91016,0c0-1.833-.94727-3.03809-2.39258-3.03809-1.41992,0-2.375,1.23047-2.375,3.03809,0,1.82422.95508,3.0459,2.375,3.0459C59.13967,29.01563,60.08693,27.81934,60.08693,25.96973Z"/>
      <path d="M71.96242,25.96973c0,2.81348-1.50586,4.62109-3.77832,4.62109a3.0693,3.0693,0,0,1-2.84863-1.584h-.043v4.48438H63.43361V21.44238h1.79932v1.50586h.03418a3.21162,3.21162,0,0,1,2.88281-1.60059C70.44777,21.34766,71.96242,23.16406,71.96242,25.96973Zm-1.91016,0c0-1.833-.94727-3.03809-2.39258-3.03809-1.41992,0-2.375,1.23047-2.375,3.03809,0,1.82422.95508,3.0459,2.375,3.0459C69.105,29.01563,70.05227,27.81934,70.05227,25.96973Z"/>
      <path d="M78.54836,27.03613c.1377,1.23145,1.334,2.04,2.96875,2.04,1.56641,0,2.69336-.80859,2.69336-1.91895,0-.96387-.67969-1.541-2.28906-1.93652L80.312,24.833c-2.28027-.55078-3.33887-1.61719-3.33887-3.34766,0-2.14258,1.86719-3.61426,4.51855-3.61426,2.624,0,4.42285,1.47168,4.4834,3.61426h-1.876c-.1123-1.23926-1.13672-1.9873-2.63379-1.9873s-2.52148.75684-2.52148,1.8584c0,.87793.6543,1.39453,2.25488,1.79l1.36816.33594c2.54785.60254,3.60645,1.626,3.60645,3.44238,0,2.32324-1.85059,3.77832-4.79395,3.77832-2.75391,0-4.61328-1.4209-4.7334-3.667Z"/>
      <path d="M90.18508,19.2998v2.14258h1.72168v1.47168H90.18508v4.99121c0,.77539.34473,1.13672,1.10156,1.13672a5.80752,5.80752,0,0,0,.61133-.043v1.46289a5.10351,5.10351,0,0,1-1.03223.08594c-1.833,0-2.54785-.68848-2.54785-2.44434V22.91406H87.00148V21.44238h1.31641V19.2998Z"/>
      <path d="M92.90285,25.96973c0-2.84863,1.67773-4.63867,4.29395-4.63867,2.625,0,4.29492,1.79,4.29492,4.63867,0,2.85645-1.66113,4.63867-4.29492,4.63867C94.564,30.6084,92.90285,28.82617,92.90285,25.96973Zm6.69531,0c0-1.9541-.89551-3.10742-2.40137-3.10742s-2.40039,1.16211-2.40039,3.10742c0,1.96191.89453,3.10645,2.40039,3.10645S99.59816,27.93164,99.59816,25.96973Z"/>
      <path d="M103.02395,21.44238h1.77246v1.541h.043a2.1594,2.1594,0,0,1,2.17773-1.63574,2.86616,2.86616,0,0,1,.63672.06934v1.73828a2.59794,2.59794,0,0,0-.835-.1123,1.87264,1.87264,0,0,0-1.93652,2.083v5.37012h-1.8584Z"/>
      <path d="M116.22121,27.83691c-.25,1.64355-1.85059,2.77148-3.89844,2.77148-2.63379,0-4.26855-1.76465-4.26855-4.5957,0-2.83984,1.64355-4.68164,4.19043-4.68164,2.50488,0,4.08008,1.7207,4.08008,4.46582v.63672H109.9302v.1123a2.358,2.358,0,0,0,2.43555,2.56445,2.04834,2.04834,0,0,0,2.09082-1.27344ZM109.939,25.13477h4.52637a2.1773,2.1773,0,0,0-2.2207-2.29785A2.292,2.292,0,0,0,109.939,25.13477Z"/>
    </g>
  </g>
</svg>
