<svg id="Calque_1" data-name="Calque 1" xmlns="http://www.w3.org/2000/svg" viewBox="0 0 480 480"><defs><style>.cls-1{fill:#daecff;}.cls-2{fill:#ffb5c0;stroke:#020202;}.cls-2,.cls-4{stroke-miterlimit:10;}.cls-3,.cls-4{fill:#ff8e9e;}.cls-4{stroke:#000;}.cls-5{fill:#ea5b70;}.cls-6{fill:#020202;}</style></defs><title>Beautéé</title><rect class="cls-1" x="44.23" y="50.99" width="391.54" height="391.54" rx="79.16" ry="79.16"/><path class="cls-2" d="M207.18,231.5a12.22,12.22,0,0,0,.38,3.27c.28,1.23.72,2.7,1.2,2.94a4.78,4.78,0,0,0,1.9,2.5c.79,2,1.69,3.77,2.47,1.93.93,1.11,2,2.74,2.92,1.25,1.08,1.11,2.07-.76,3.26.45,0-.64.41,1.85.89,0,.55-.35,1.46,1.11,2.44,0,1-.37,2.34,1,3.68,0s3,1.46,4.63,0c1.69.53,3.42,0,5.24,0h16.36c1.66,0,3.17-.9,4.62,0,1.38-.51,2.67.45,3.69,0,1.06.35,1.72-2.77,2.44,0,.66,1.65,1,2.32.88,0,1.14.06,2.17-1.28,3.26-.45,1-1.26,1.94-2.3,2.93-1.25.85-1.49,1.69-2,2.47-1.93.89,2.37,1.36-1.73,1.89-2.5.46-2.05,1-1.28,1.2-2.94a11.28,11.28,0,0,0,.39-3.27c.13,1.66-.07-3-.09-4.05s0-1.22-.11-4c-.1-2.51-.08-2.58-.13-4,0-.43-.13-3.28-.16-4-.11-2.39-.05-1.36-.18-4,0,.55-.15-2.91-.21-4-.1-1.85-.17-3.2-.23-4,0,.16-.11-1.77-.25-4-.14-2.41-.2-3.16-.27-4-.09-1.18-.27-4-.3-4-.2-3.15-.21-2.6-.33-4-.15-2.08-.25-3.25-.34-4-.05.14-.13-.43-.37-4-.14-1.5-.16-.67-.4-4-.11-1-.29-3.13-.41-4-.15-1.42-.19-.81-.44-4a30.07,30.07,0,0,0-.46-3.95c0,1.75-.19-.15-.49-3.94a20.62,20.62,0,0,1-.5-3.94,13.06,13.06,0,0,0-.87-3.34c-.46-1.94-.92-1.29-1.6-2.94-.71-2.15-1.37-1.2-2.23-2.46-.78.28-1.74-1.13-2.73-1.88a3.13,3.13,0,0,0-3.14-1.19,3.66,3.66,0,0,1-3.43-.42c0,.87-.64-.28-1.47,0-.85,0-2.1-1.68-3.39,0-1.38.17-3,0-4.68,0-1.75-.89-3.5.36-5.33,0-1.86-1-3.53,1.61-5.32,0a5.21,5.21,0,0,1-4.7,0c-1.38.08-2.57-.27-3.41,0-.88-.45-1.35.86-1.5,0-1.22-.72-2.42-1.57-3.43.42-1,1.83-2.2-.21-3.14,1.19s-1.89,1.42-2.74,1.88c-1-1.7-1.6,1.21-2.22,2.46-.57,2.38-1.17,2.17-1.6,2.94a9,9,0,0,0-.87,3.34c-.2.77-.3,3.38-.51,3.94a22.13,22.13,0,0,0-.48,3.94c-.22.14-.29,3.17-.46,3.95a24.35,24.35,0,0,0-.44,4c-.15,1.26-.26,3.1-.42,4-.25-.86-.26,2.77-.39,4a24.84,24.84,0,0,0-.37,4,32.48,32.48,0,0,0-.35,4,32.42,32.42,0,0,1-.32,4,18.19,18.19,0,0,1-.3,4,22.34,22.34,0,0,0-.28,4c-.06,1.87-.16,2.91-.25,4,0,2.13-.18,2.13-.23,4,0,3.06-.09,3.68-.2,4-.16-.35-.13,2.7-.18,4s-.16,1.85-.16,4a25.09,25.09,0,0,1-.14,4,25.47,25.47,0,0,1-.11,4C207.3,230.1,207.22,230.46,207.18,231.5Z"/><path class="cls-3" d="M251.5,191.29a127.38,127.38,0,0,1-10.3,50.55h22.12c5.77,0,10.43-5.32,10.32-11.8a719.22,719.22,0,0,0-4.82-72.59c-.79-6.7-5.9-11.7-11.92-11.7H243.24A128.16,128.16,0,0,1,251.5,191.29Z"/><path class="cls-4" d="M182.94,261.16c0,1.08.08,3.18.09,4.14.12,3.1,0,1.71.11,4.15,0,1.19.16,4.08.14,4.13,0,1.28.1,2.72.16,4.13,0,0,.07,1.66.19,4.12l.21,4.12c.06,1.06.13,2.12.24,4.1.1,1.65.11,1.56.26,4.11.09,1.18.26,4.1.29,4.09.12,1.77.23,3.17.31,4.09.24,3.83.17,1.68.34,4.08.08.7.34,4.68.36,4.08,0-1.07.29,3.47.38,4.06a29.18,29.18,0,0,0,.41,4.06c.16,1.63.42,5.23.44,4.06.13,1,.27,2.15.45,4a37.39,37.39,0,0,0,.49,4c.18,1.65.29,1.92.5,4,.14.63.39,3.4.53,4a12.12,12.12,0,0,0,1,3.4c.59,3.11,1,.41,1.85,2.89.74.75,1.48-.88,2.57,2.25,1,1.62,2,.23,3.12,1.45,1.15.93,2.28.36,3.51.51,0,.42.18-.31.59,0s1,.76,1.7,0c.68-1,1.59-.74,2.67,0,1.07.42,2.23-.07,3.54,0,1.35.74,2.74,0,4.27,0,1.56.39,3.16-.19,4.89,0a9.44,9.44,0,0,0,5.37,0,8.66,8.66,0,0,0,5.75,0c1.87-1.79,3.94-.54,6,0,2,.1,4.1.6,6.11,0,2-.19,4.09,0,6.11,0s4,.07,6,0,3.9.31,5.75,0a21.92,21.92,0,0,1,5.37,0,13.17,13.17,0,0,0,4.89,0,40.48,40.48,0,0,0,4.27,0c1.32.19,2.48-.38,3.54,0,.95-1.65,2.1,3,2.68,0,.68-1,1.25-1.05,1.69,0,.37-.33.65,1,.6,0,1.26,1,2.3-1.77,3.5-.51,1.05-1.62,2.19-.3,3.12-1.45,1,0,1.77-2.34,2.57-2.25.7-1.77,1.41-1.19,1.85-2.89a12.94,12.94,0,0,0,1-3.4,36.81,36.81,0,0,1,.53-4c.19-.92.3-3.45.51-4a14.87,14.87,0,0,1,.48-4,36.29,36.29,0,0,1,.45-4c.14-1.61.3-2.62.44-4.06.12-1.76.25-3.12.41-4.06s.27-2.46.38-4.06c.18-.38.18-3.89.36-4.08a16.24,16.24,0,0,0,.34-4.08,38.15,38.15,0,0,0,.31-4.09,17.73,17.73,0,0,1,.29-4.09c.07-1.74.2-2.37.26-4.11.12-.71.12-3.48.24-4.1.07-1.46.17-2.23.21-4.12,0-2.75.15-2.29.19-4.12,0-2.17.08-3.33.16-4.13,0-2.19.15-1.8.14-4.13,0-1.94-.06-5.44.11-4.15,0-1.81.14-1.33.09-4.14a11.15,11.15,0,0,0-.38-3.27c-.26-.68-.65-1.33-1.2-2.94-.48,0-1.18-2-1.9-2.49-.68.2-1.5-.23-2.47-1.93-.84.69-1.89-1.07-2.92-1.25-1,.74-2.14-.53-3.26-.44-.1,1.75-.55-.21-1,0-.52-.71-1.1.18-1.85,0-.65,1.77-1.56,1.08-2.6,0a5.67,5.67,0,0,1-3.27,0c-1.24-.8-2.49-.14-3.86,0-1.35.63-2.92-1.42-4.38,0-1.53,0-3.2-1.22-4.81,0-1.67-.09-3.22,3.24-5.16,0-1.64,2.43-3.52,1.41-5.44,0H233.1c-1.83,1.38-3.8-.19-5.64,0s-3.58,1.63-5.44,0c-1.82-.91-3.58-1.65-5.16,0-1.69-.37-3.35-1.45-4.81,0s-3,.71-4.38,0-2.63.69-3.86,0c-1.21-.29-2.32-.57-3.27,0-1-1.09-1.88-.6-2.6,0-.81-1.19-1.4-.59-1.85,0a1,1,0,0,1-1,0c-1.2-1.33-2.22.22-3.26.44s-2,1.62-2.92,1.25-1.73,1.24-2.47,1.93c-.64,2.64-1.32,2.55-1.89,2.49-.5,1.47-1,.13-1.2,2.94C183.13,260.42,182.93,260.17,182.94,261.16Z"/><path class="cls-5" d="M270.55,299.25a117.13,117.13,0,0,1-10.4,48.42h21.52a11.63,11.63,0,0,0,11.5-10.13,654.07,654.07,0,0,0,5.65-74.83,11.65,11.65,0,0,0-11.61-11.88H260.15A117.13,117.13,0,0,1,270.55,299.25Z"/><rect class="cls-6" x="225.33" y="243.84" width="34.67" height="5" rx="2.5" ry="2.5"/></svg>