<svg id="Calque_1" data-name="Calque 1" xmlns="http://www.w3.org/2000/svg" viewBox="0 0 480 480"><defs><style>.cls-1{fill:#daecff;}.cls-2{fill:#fff;}.cls-3{fill:#ff5f7d;stroke:#050505;}.cls-3,.cls-4{stroke-miterlimit:10;}.cls-4{fill:#fef0e1;stroke:#020202;}</style></defs><title>Beautéé</title><rect class="cls-1" x="40.06" y="56.83" width="391.54" height="391.54" rx="79.16" ry="79.16"/><g id="TDb9PJ.tif"><path class="cls-2" d="M332.67,246.5a90.06,90.06,0,0,0-89.76-90c-49.7-.33-90.4,40.22-90.39,90.06a90.07,90.07,0,0,0,89.76,90C292,336.9,332.68,296.34,332.67,246.5Z"/><path class="cls-3" d="M332.67,246.5c0,49.84-40.69,90.4-90.39,90.07a90.07,90.07,0,0,1-89.76-90c0-49.84,40.69-90.39,90.39-90.06A90.06,90.06,0,0,1,332.67,246.5Zm-33.78.05a56.3,56.3,0,1,0-56.49,56.23A56.29,56.29,0,0,0,298.89,246.55Z"/><path class="cls-4" d="M298.89,246.55a56.3,56.3,0,1,1-56.45-56.25A56.3,56.3,0,0,1,298.89,246.55Zm-72.77.21c-8,11.3-8,19.42,0,27.2,7.47,7.28,21.72,8.19,30.55,2,9.54-6.74,10.21-14.51,2.62-30,7.94-11.16,7.7-19.66-.77-27.35-8-7.23-22.73-7.52-31.16-.62C218.27,225.46,217.84,233.77,226.12,246.76Z"/><path class="cls-3" d="M226.12,246.76c-8.28-13-7.85-21.3,1.26-28.76,8.43-6.9,23.19-6.61,31.16.62,8.47,7.69,8.71,16.19.77,27.35,7.59,15.44,6.92,23.21-2.62,30-8.83,6.23-23.08,5.32-30.55-2C218.16,266.18,218.08,258.06,226.12,246.76Zm16.37-5.94c5.88.05,11.21-3.85,11.29-8.25s-5.14-8.42-11.08-8.47-11.21,3.86-11.29,8.26S236.55,240.77,242.49,240.82Zm.09,11.43c-5.91,0-11.18,4-11.17,8.37s5.3,8.36,11.2,8.35,11.18-4,11.17-8.38S248.48,252.24,242.58,252.25Z"/><path class="cls-4" d="M242.49,240.82c-5.94,0-11.16-4-11.08-8.46s5.42-8.3,11.29-8.26,11.16,4,11.08,8.47S248.37,240.87,242.49,240.82Z"/><path class="cls-4" d="M242.58,252.25c5.9,0,11.19,3.93,11.2,8.34S248.52,269,242.61,269s-11.19-3.94-11.2-8.35S236.67,252.26,242.58,252.25Z"/></g></svg>