<svg id="Calque_1" data-name="Calque 1" xmlns="http://www.w3.org/2000/svg" viewBox="0 0 480 480"><defs><style>.cls-1{fill:#daecff;}.cls-2{fill:#ff5f7d;stroke:#050505;}.cls-2,.cls-3{stroke-miterlimit:10;stroke-width:0.75px;}.cls-3{fill:#fef0e1;stroke:#020202;}</style></defs><title>Beautéé</title><rect class="cls-1" x="57.19" y="50.63" width="391.54" height="391.54" rx="79.16" ry="79.16"/><g id="_7IEHO2.tif" data-name="7IEHO2.tif"><path class="cls-2" d="M257.58,327.24c-7.06,6.08-13.59,12.18-20.62,17.63a52.07,52.07,0,0,1-29.5,10.89,43.14,43.14,0,0,1-44.08-31.36c-2.76-9.36-2.93-18.8.74-27.87,5.45-13.51,10.93-27,17.2-40.18,13-27.22,26.42-54.23,39.89-81.23a111.07,111.07,0,0,1,9.74-15.8c12-16.46,40.37-16.23,52.21,0a104,104,0,0,1,9.2,14.77q21.76,43.88,43.09,88c5.89,12.21,11.74,24.48,15.53,37.58,6.54,22.67-6.69,50.39-33.5,55.2-11.45,2-22.21-.51-32.43-5.68-10-5.08-18.45-12.27-26.11-20.4C258.36,328.16,257.82,327.51,257.58,327.24Zm8.14-10.45c7.58,8.47,15.76,16,25.94,21.07,7.89,3.91,16.21,6,25,3.87,16.54-4,26.78-22,21.64-38.53a166.25,166.25,0,0,0-8.86-22.72c-16.74-34.9-33.75-69.66-50.7-104.45a54.76,54.76,0,0,0-3.77-6.15c-3.9-5.87-9.28-9.23-16.42-9.56s-13.54,1.51-17.81,7.58A108.08,108.08,0,0,0,232.3,182q-19.38,39.09-38.46,78.33c-6.43,13.17-12.72,26.42-17.23,40.41A34.15,34.15,0,0,0,175,316.59c2.65,17.62,18.41,28.93,35.81,25.54A50,50,0,0,0,229,334.2a103.89,103.89,0,0,0,19.37-17.4c-.57-.78-1-1.4-1.48-2a167.64,167.64,0,0,1-17.19-27.36c-4.1-8.3-6.94-16.95-7.37-26.25s1.6-17.78,7.52-25.06c8-9.9,18.65-13.91,31.18-12.55,13.1,1.42,22.57,8.23,27.83,20.38,4.64,10.69,3.57,21.59.08,32.33-4.17,12.84-11.29,24.12-19.11,35C268.51,313.1,267.15,314.87,265.72,316.79Zm-8.63-10.22c8.54-11.79,16.62-23.42,20.19-37.35a44.14,44.14,0,0,0,1.09-14c-.72-9.35-7.09-16.2-16-18.28-9.26-2.16-18.66,1.32-23.47,8.92a24.56,24.56,0,0,0-3,19.08A87,87,0,0,0,241,280.54C245.06,289.79,250.63,298.2,257.09,306.57Z"/><path class="cls-3" d="M265.72,316.79c1.43-1.92,2.79-3.69,4.09-5.51,7.82-10.88,14.94-22.16,19.11-35,3.49-10.74,4.56-21.64-.08-32.33-5.26-12.15-14.73-19-27.83-20.38-12.53-1.36-23.13,2.65-31.18,12.55-5.92,7.28-7.94,15.85-7.52,25.06s3.27,17.95,7.37,26.25a167.64,167.64,0,0,0,17.19,27.36c.46.61.91,1.23,1.48,2A103.89,103.89,0,0,1,229,334.2a50,50,0,0,1-18.22,7.93c-17.4,3.39-33.16-7.92-35.81-25.54a34.15,34.15,0,0,1,1.66-15.81c4.51-14,10.8-27.24,17.23-40.41Q213,221.15,232.3,182a108.08,108.08,0,0,1,8.46-14.14c4.27-6.07,10.65-7.91,17.81-7.58S271.09,164,275,169.88a54.76,54.76,0,0,1,3.77,6.15c16.95,34.79,34,69.55,50.7,104.45a166.25,166.25,0,0,1,8.86,22.72c5.14,16.58-5.1,34.55-21.64,38.53-8.81,2.13-17.13,0-25-3.87C281.48,332.82,273.3,325.26,265.72,316.79Z"/><path class="cls-3" d="M257.09,306.57c-6.46-8.37-12-16.78-16.12-26a87,87,0,0,1-5.06-15.64,24.56,24.56,0,0,1,3-19.08c4.81-7.6,14.21-11.08,23.47-8.92,8.93,2.08,15.3,8.93,16,18.28a44.14,44.14,0,0,1-1.09,14C273.71,283.15,265.63,294.78,257.09,306.57Z"/></g></svg>