<svg id="Calque_1" data-name="Calque 1" xmlns="http://www.w3.org/2000/svg" viewBox="0 0 480 480"><defs><style>.cls-1{fill:#fbcec6;}.cls-2{fill:#ffd258;stroke:#050505;stroke-width:2px;}.cls-2,.cls-3{stroke-miterlimit:10;}.cls-3{fill:#f36b7f;stroke:#000;}</style></defs><title>Beautéé</title><rect class="cls-1" x="46" y="64.02" width="391.54" height="391.54" rx="79.16" ry="79.16"/><path class="cls-2" d="M228.19,199.94c.24,0,.54,1.3.87,3a28.93,28.93,0,0,1,.87,3,22.34,22.34,0,0,0,.89,3c.3,1,.6,2,.91,3.1a21,21,0,0,0,.93,3.18,12.11,12.11,0,0,0,1,3.29,14.23,14.23,0,0,1-3.46,1.33c-1.19-.53-2.26.74-3.36,1.44-1.13-.17-2.19.94-3.25,1.56a10.55,10.55,0,0,1-3.14,1.67c-1,.19-2,2.1-3,1.79-1,.7-1.94,1.67-2.91,1.9s-1.86,1.87-2.8,2c-.86,1.58-1.79,1.64-2.67,2.16-.86.89-1.74,1.18-2.55,2.28-.78,1.56-1.67.8-2.42,2.4a14.74,14.74,0,0,0-2.29,2.54,8.32,8.32,0,0,0-2.16,2.68,12.27,12.27,0,0,0-2,2.81c-.62,1.6-1.25,2.6-1.89,2.94-.6,1-1.14,3-1.74,3.09-.6.4-1.15,1.2-1.61,3.24a32,32,0,0,1-1.45,3.37,32.41,32.41,0,0,1-1.31,3.53,34.9,34.9,0,0,1-1.1,3.5c-.38.22-.65,1.85-.89,3.5-.26,1.29-.49,2.63-.7,3.5-.16,2.09-.41,1.56-.51,3.51a10.8,10.8,0,0,0-.3,3.51c-.12.24-.06,3.25-.11,3.51-.06,0,0,2.51.09,3.51,0,.17.14,2.09.28,3.51.1.73.31,2.85.48,3.52a19.1,19.1,0,0,0,.67,3.51c.24.93.54,2.2.86,3.51a11.06,11.06,0,0,0,1.07,3.51,24.58,24.58,0,0,1,1.26,3.49,18.46,18.46,0,0,1,1.45,3.4,11.24,11.24,0,0,0,1.62,3.28c.54.42,1.16,2.05,1.79,3.17s1.26,1.76,1.95,3.05,1.36,1.66,2.11,2.93c.65-.39,1.48,2,2.25,2.8a34.75,34.75,0,0,1,2.39,2.66c.78.05,1.7,2.36,2.53,2.53.88,1.29,1.78,2.35,2.65,2.38,1,2.39,1.85,2.07,2.77,2.24.94.65,1.9,1.4,2.88,2.08.95,0,1.94.65,3,1.93a13.84,13.84,0,0,1,3.08,1.77,35.06,35.06,0,0,1,3.18,1.6c1.1.93,2.15.75,3.26,1.43,1.13,1,2.22,1,3.34,1.25s2.24.19,3.41,1.07a29,29,0,0,0,3.47.89,23,23,0,0,0,3.53.7,9.11,9.11,0,0,0,3.58.5c1.21.17,2.41.22,3.63.31s2.42-.12,3.65.1a10.39,10.39,0,0,1,3.69-.11c1.23-.28,2.47-.15,3.69-.31,1.26.45,2.45-.15,3.64-.52a5.09,5.09,0,0,0,3.57-.7c1.14-1.18,2.38.06,3.51-.9a9.32,9.32,0,0,0,3.42-1.07c1.13-.42,2.25-.75,3.35-1.26a11.59,11.59,0,0,1,3.26-1.43,14,14,0,0,0,3.16-1.6,5,5,0,0,0,3.07-1.77,5,5,0,0,0,3-1.92c1-.75,1.92-1.41,2.85-2.08A4.8,4.8,0,0,0,295.1,333c1,.93,1.81-.78,2.62-2.37.92.35,1.71-1.28,2.5-2.51.73-2.28,1.56-2.42,2.36-2.65a6.68,6.68,0,0,0,2.23-2.78c.75-.36,1.38-2.48,2.08-2.91.72,0,1.31-2.07,1.94-3a19.69,19.69,0,0,1,1.78-3.14c.54-1.56,1.13-1.62,1.62-3.26a11.35,11.35,0,0,0,1.45-3.36c.45-1.4.88-2.37,1.29-3.46a29.25,29.25,0,0,1,1.11-3.56c.36-.69.61-3.1.92-3.65.28-1,.5-2.64.72-3.56.21-1.24.39-2.29.54-3.5s.22-3,.35-3.45c.16.3.14-2.2.16-3.4.05-.6,0-2.67,0-3.34-.06-1.65-.15-3-.2-3.29-.09-.83-.24-2.42-.39-3.24-.16-1-.36-2.24-.58-3.19-.18-.34-.46-1.89-.76-3.13a19.37,19.37,0,0,1-.94-3.09c-.32-.36-.76-2.58-1.14-3a7.32,7.32,0,0,0-1.32-3c-.49-1.45-1-2.63-1.5-2.93-.52-.73-1.12-2.38-1.7-2.89a11.21,11.21,0,0,1-1.88-2.83c-.64-.65-1.35-1.9-2.07-2.79a29.69,29.69,0,0,0-2.26-2.74c-.78-1-1.56-1.1-2.44-2.69-.86-1.17-1.7-1.3-2.64-2.65a11.71,11.71,0,0,1-2.82-2.6,8.27,8.27,0,0,0-3-2.55c-1-.34-2.12-2-3.2-2.51a12.55,12.55,0,0,1-3.4-2.46c-1.15-.69-2.35-1.52-3.58-2.42-1.24-1.07-2.48-1.42-3.78-2.37a20.56,20.56,0,0,0-4-2.33c-1.24,1.33-2.71-1-4.15-2.28.34.19.57-1.61.84-2.94a26.45,26.45,0,0,1,.84-2.95c.36.38.54-2.39.85-3,.23-2,.61-1,.84-2.95.2-2.69.55-2.25.85-3,.28-1.06.49-3.27.84-2.95,1.08,1,2-.88,3.08.37a4.17,4.17,0,0,0,3.06.6c1,0,2.05.75,3.05.82a2.93,2.93,0,0,0,3,1c1-.21,2.06,1.84,3,1.25a6.09,6.09,0,0,1,3,1.45c1,.51,2,1.08,2.93,1.65s1.9.61,2.88,1.83a20.28,20.28,0,0,0,2.83,2c.94.94,1.9,2.31,2.77,2.18a18.77,18.77,0,0,1,2.7,2.33c.78-1.3,1.76,1.4,2.63,2.48.85.48,1.75,2.3,2.56,2.62a5.32,5.32,0,0,0,2.47,2.76c.81,1,1.63,2.51,2.38,2.88.78,1,1.56,2.52,2.28,3a13.15,13.15,0,0,1,2.18,3.11c.65,0,1.42,2.5,2.07,3.21s1.38,3.27,1.95,3.3c.73,2.88,1.26,2.52,1.83,3.38.62,1.6,1.09,1,1.71,3.46a9.8,9.8,0,0,1,1.56,3.52c.45.24,1,3.29,1.43,3.58.48,1.76.88,2.38,1.28,3.63a31.87,31.87,0,0,0,1.12,3.67,37.83,37.83,0,0,0,1,3.71c.33,1.91.57,2.68.79,3.73.26,1.55.42,1.88.63,3.74.19,1.4.37,3.24.45,3.75.09.8.27,3.75.26,3.75.07,1.52.1,3,.06,3.75,0,1.93,0,4.26-.11,3.88-.09.88-.1,3.88-.29,3.85-.16.57-.28,2.48-.45,3.8-.12,2.38-.41,2-.62,3.76a34.54,34.54,0,0,0-.78,3.7c-.27,1.4-.55,3.23-.93,3.65-.41-.3-.7,2.22-1.08,3.58a19,19,0,0,1-1.23,3.53A87.79,87.79,0,0,1,329,322.81c-.57,1.09-1.17,2.16-1.78,3.23-.61,1.32-1.27,1.93-1.92,3.14a23.77,23.77,0,0,1-2,3.05c-.71.83-1.42,2-2.16,3a14.64,14.64,0,0,0-2.28,2.86c-.8.57-1.57,2-2.39,2.77-.75,2.28-1.63,2.19-2.51,2.67-.8,1.88-1.64,3.2-2.61,2.56-.9.55-1.77,2-2.71,2.44a33.46,33.46,0,0,1-2.82,2.33c-.94,1.11-1.89,2.15-2.91,2.21a10,10,0,0,0-3,2.09,8.52,8.52,0,0,1-3.1,2,30.62,30.62,0,0,0-3.17,1.83c-1.1,0-2.14,1.52-3.26,1.7-1.05,1.42-2.23.79-3.34,1.55-1.14.1-2.23,1.51-3.4,1.42-1.17.15-2.3,1.14-3.48,1.26a13.89,13.89,0,0,0-3.55,1.12,5,5,0,0,0-3.61,1c-1.2.44-2.46,0-3.66.8-1.29-.87-2.52-.36-3.72.64-1.23.68-2.52.15-3.78.47s-2.58-.6-3.82.3c-1.32-.34-2.58.4-3.88.14-1.27.46-2.6-.41-3.86,0a12.67,12.67,0,0,1-3.83-.21c-1.27-.09-2.54-.39-3.79-.37a8.9,8.9,0,0,1-3.75-.53,8.45,8.45,0,0,1-3.71-.69,7.91,7.91,0,0,1-3.66-.84,4.21,4.21,0,0,1-3.61-1c-1.2-.51-2.4-1.29-3.55-1.14-1.17-.41-2.34-.9-3.49-1.28-1.18-1-2.34-2-3.42-1.42-1.11-.25-2.26-1.24-3.35-1.56a7.23,7.23,0,0,1-3.28-1.69c-1.13-1.65-2.19-2-3.19-1.81a6.15,6.15,0,0,0-3.12-1.94,4.23,4.23,0,0,0-3-2.07c-1-.8-2-1.43-2.93-2.18-1-1.68-1.86-.65-2.84-2.3-.93-.82-1.84-1.6-2.74-2.4a19.2,19.2,0,0,1-2.63-2.52,11,11,0,0,1-2.52-2.62c-.82-.89-1.68-2.91-2.41-2.72-.77-.6-1.59-2.71-2.29-2.81a25.61,25.61,0,0,1-2.17-2.91q-2.1-3-3.95-6.09c-.61-1-1.2-2.09-1.77-3.16a24.53,24.53,0,0,1-1.63-3.25,9.1,9.1,0,0,1-1.49-3.33c-.51-1.82-.89-1.67-1.34-3.39-.44-1.53-.8-2-1.19-3.47-.34-.61-.76-3.31-1-3.53a18.59,18.59,0,0,1-.86-3.59c-.26-1.06-.51-2.71-.7-3.65s-.37-2.2-.53-3.7-.28-2.6-.38-3.9-.17-2.6-.21-3.9-.06-2.62,0-3.88.05-2.56.12-3.86c0-1.86.19-2.05.28-3.84.11-1.37.28-2.25.44-3.8.23,0,.38-2.17.59-3.77.16-2.3.51-1.65.74-3.73.26-1.4.58-2.15.88-3.68.42.76.55-4.5,1-3.63a23.06,23.06,0,0,0,1.16-3.57,17.58,17.58,0,0,1,1.3-3.51c.43-1.75.9-3,1.44-3.43.54-.23,1-2.43,1.56-3.37.53-1.22,1.11-2,1.69-3.28.54-1.78,1.2-1.73,1.8-3.2.63-1,1.31-1.25,1.93-3.11s1.3-2.9,2-3c.67-1.53,1.47-.91,2.15-2.91.66-2.43,1.49-1.9,2.26-2.8.81-.22,1.54-2.27,2.37-2.69.81-.73,1.61-2.08,2.46-2.57.8-1.56,1.71-1.4,2.56-2.45a9.32,9.32,0,0,1,2.66-2.32c.85-1.73,1.8-1.74,2.75-2.19.95-.27,1.94-.09,2.83-2.05,1,0,1.94-1.12,2.92-1.9,1-1,2-1.09,3-1.75,1.06.36,2.07-.34,3.07-1.59,1.09.5,2.06-1.45,3.15-1.44a12.28,12.28,0,0,0,3.22-1.26c1.08-.36,2.13-1.59,3.28-1.1,1.13.11,2.2-1,3.35-.91C225.92,200.59,227.1,201.1,228.19,199.94Z"/><path class="cls-3" d="M245,215.88a27.61,27.61,0,0,1-.93-3.31c-.26-.06-.72-4-.94-3.3-.37-2.18-.59-1.59-.93-3.28-.3-.93-.63-2.38-.93-3.27-.36-2.12-.67-3.17-.92-3.27-.33-1.42-.68-3.23-.93-3.26-.38-2.55-.72-4.2-.92-3.25a21.59,21.59,0,0,1-.93-3.26c-.3-1-.6-2-.92-3.26-.29-.67-.87-7-.93-3.27-.26-.18-.66-3-.93-3.28-.36-2.07-.56-1.1-.93-3.28s-.59-1.52-.93-3.3c1.11-2.11,2.34-1.79,3.57-1.27,1.2-.08,2.35-.9,3.54-1a19.17,19.17,0,0,1,3.51-.76c1.23.9,2.28-1.46,3.5-.51,1.13-.79,2.34.1,3.48-.26a4.68,4.68,0,0,1,3.47,0c1.17.27,2.31-.05,3.48.25,1.13-.27,2.34.76,3.48.52,1.15.07,2.27-.58,3.49.77,1.24,1.65,2.26-.88,3.51,1,1.12-.7,2.35.69,3.54,1.3-.26,2.1-.64,2-.94,3.31-.31,1.12-.63,2.18-.94,3.29a30.91,30.91,0,0,1-.93,3.29,31.48,31.48,0,0,0-.93,3.27c-.31,1.22-.63,2-.93,3.26-.4-.58-.6,2.61-.93,3.26-.32.9-.53,3.81-.93,3.25-.3,1.09-.62,1.95-.92,3.26a8.52,8.52,0,0,1-.93,3.25c-.21,3-.57,3-.93,3.26-.25,2.08-.65,1.54-.93,3.27-.22,2.72-.72.23-.93,3.27-.36.11-.55,3.61-.93,3.29-1-.57-1.81.93-2.79,0-.85,1.47-1.86,0-2.79,0-1-1.59-1.84.93-2.84,0-1-.53-1.93.09-2.93,0C247,214.3,246.14,217.46,245,215.88Z"/></svg>