<svg id="Calque_1" data-name="Calque 1" xmlns="http://www.w3.org/2000/svg" viewBox="0 0 480 480"><defs><style>.cls-1{fill:#daecff;}.cls-2{fill:#adccff;stroke:#020202;stroke-miterlimit:10;stroke-width:2px;}</style></defs><title>Beautéé</title><rect class="cls-1" x="37.34" y="47.98" width="391.54" height="391.54" rx="79.16" ry="79.16"/><g id="J1hRLs.tif"><path class="cls-2" d="M285.47,283.66a62.77,62.77,0,0,1-4.12,24.64c-9,24-34.15,40.19-60,38.57-30-1.9-53.84-24.35-57.3-54.07a60.26,60.26,0,0,1,34.79-61.66c3.23-1.48,4.22-3.13,4-6.46-.28-4.48,0-9-.07-13.49,0-6.16,2.56-10.81,8.05-13.61,9.78-5,19.56-10,29.48-14.69A14.49,14.49,0,0,1,261.11,196c.12,13.08.06,26.16,0,39.24a4.35,4.35,0,0,0,1.85,3.75,62.9,62.9,0,0,1,12.95,14.14,3.8,3.8,0,0,0,2.77,1.34c8.41.1,16.83.05,25.24.06s13.74,4.36,15.61,12.54q7.1,30.89,14.25,61.77a14.61,14.61,0,0,1-8.72,17.12,14.37,14.37,0,0,1-18.24-6.56,29.13,29.13,0,0,1-2.26-7.34q-5.31-23.1-10.47-46.25c-.36-1.64-1-2.24-2.63-2.13C289.56,283.75,287.65,283.66,285.47,283.66Zm-82.66-38c-17.75,8.91-29.75,31.78-22.07,54.95a46.33,46.33,0,0,0,53.36,30.83c22.4-4.63,38.58-26,36.77-48.34-2.1-25.94-22.67-40.7-38.89-42.39,0,7.93,0,15.83,0,23.74A14.73,14.73,0,0,1,222,278a14.67,14.67,0,0,1-19.23-14.14C202.88,257.92,202.81,252,202.81,245.64Z"/><path class="cls-2" d="M271,145a22,22,0,1,1-21.9-22A22.05,22.05,0,0,1,271,145Z"/></g></svg>