<svg id="Calque_1" data-name="Calque 1" xmlns="http://www.w3.org/2000/svg" viewBox="0 0 480 480"><defs><style>.cls-1{fill:#daecff;}.cls-2{fill:#73b7a4;}.cls-2,.cls-4{stroke:#020202;}.cls-2,.cls-3,.cls-4{stroke-miterlimit:10;}.cls-3{fill:#ffd258;stroke:#0a0a0a;stroke-width:0.75px;}.cls-4{fill:#adccff;}</style></defs><title>Beautéé</title><rect class="cls-1" x="42.95" y="52.46" width="391.54" height="391.54" rx="79.16" ry="79.16"/><g id="STV5Ql.tif"><path class="cls-2" d="M347.08,284.87c0,3.65,0,6.9,0,10.14,0,2.42-1.28,3.67-3.67,3.85-.74.06-1.5,0-2.25,0H242.65c0-3.06-.11-6.1,0-9.14.64-15.31,1.36-30.62,2-45.93a15.9,15.9,0,0,1,2.39-8.53c2.71-4,6.47-6.31,11.28-6.34,15-.11,30-.16,45,0,7.56.08,13.22,5.91,13.68,13.55q1.07,17.82,2.06,35.64c.23,4,3.19,6.67,7.8,6.72,5.83.06,11.67,0,17.5,0Zm-66.61,7c7.82,0,15.65,0,23.47,0,5.63,0,8.46-3.11,8-8.67q-1.49-19.54-3-39.08c-.47-6-2.88-8.22-9-8.22H261.31c-6.37,0-8.7,2.22-9.17,8.55q-1.44,19.17-2.95,38.33c-.48,6.1,2.17,9.09,8.3,9.11C265.15,291.89,272.81,291.87,280.47,291.87Z"/><path class="cls-3" d="M194,291.89c1.17,0,3-.36,4.63.1,1.9.53,4.35,1.32,5.26,2.79,4.77,7.75,11.26,13,20.07,15.32.22,0,.39.28.58.42-5.26,14-4.94,16.92,3.5,30.36H148.23a12.1,12.1,0,0,1-2-.05c-2-.33-2.66-1.66-1.71-3.46a10.81,10.81,0,0,1,6.73-5.6,12.46,12.46,0,0,0,8.67-7.93c2-5.06,5.64-7.3,11.12-7.64,7.08-.43,12-4.38,14.85-10.92a38.64,38.64,0,0,1,1.7-4.14c.79-1.38,1.93-2.55,2.84-3.86C191.53,295.69,192.56,294,194,291.89Z"/><path class="cls-2" d="M263,326.87v14h-8.14c-3.25,0-6.5.11-9.74-.05a17.42,17.42,0,0,1-4.7-34.08,21.94,21.94,0,0,1,6.15-.84q34.1-.09,68.2,0c14,0,22.55,13.43,16.31,25.5-1.07,2.06-2.79,3.77-4.21,5.64l-.76-.31v-8.59c0-5.57-2.64-8.23-8.28-8.24q-29.73,0-59.45,0c-1.76,0-2.93-.25-4-2a10.14,10.14,0,0,0-11.67-4.55,10.46,10.46,0,0,0-.64,19.95A10.1,10.1,0,0,0,254,329.4a4.7,4.7,0,0,1,5.2-2.55A36.09,36.09,0,0,0,263,326.87Z"/><path class="cls-3" d="M193.07,155.91l77.68,65.73c-1,.11-1.56.23-2.14.23-3.58,0-7.16-.06-10.74.07-6.82.24-11.76,3.12-17.23,9.95l-12.41-15.67q-16.86-21.37-33.69-42.78a7.42,7.42,0,0,1-1.41-4C193,165.12,193.07,160.81,193.07,155.91Z"/><path class="cls-3" d="M172.07,236v-3.42c0-27.48,0-55,0-82.44a6.12,6.12,0,0,1,2.85-5.64c2.61-1.79,5-3.82,7.64-5.62a3,3,0,0,1,2.42-.53,2.76,2.76,0,0,1,1.1,2.17q.08,50.7,0,101.42a4.68,4.68,0,0,1-.17.83h-34.7V236Z"/><path class="cls-3" d="M165,249.88v41.71a22,22,0,0,1-14.09-6.79,23.61,23.61,0,0,1,.54-33.82,3.54,3.54,0,0,1,2.09-1.06C157.27,249.82,161,249.88,165,249.88Z"/><path class="cls-3" d="M186.08,291.78H172.21v-41.7h6.87v2.57c0,8.41,0,16.83,0,25.24,0,1.51.23,2.63,1.82,3,4.61,1.17,6.08,4.19,5.23,8.66A12.14,12.14,0,0,0,186.08,291.78Z"/><path class="cls-3" d="M165,184.8v43.89h-6.89V226.1c0-10.56.05-21.12,0-31.67a5.38,5.38,0,0,1,1.91-4.54C161.59,188.44,163,186.76,165,184.8Z"/><path class="cls-3" d="M165.08,161c0,4.31,0,8.62,0,12.93a3.24,3.24,0,0,1-.9,1.92c-3.2,3.28-6.42,6.53-9.72,9.71a7.9,7.9,0,0,1-2.31,1.06,8.14,8.14,0,0,1-1-2.54c-.22-9.6-.19-9.59,6.6-16.41,2.28-2.29,4.5-4.65,6.75-7Z"/><path class="cls-2" d="M298.2,327h6.7v13.74h-6.7Z"/><path class="cls-2" d="M284.2,327h6.7v13.75h-6.7Z"/><path class="cls-2" d="M270.2,327h6.7v13.74h-6.7Z"/><path class="cls-2" d="M318.9,340.6l-6.71.35V327.07h6.71Z"/><path class="cls-4" d="M249.07,323.26a3.5,3.5,0,1,1-3.62-3.37A3.52,3.52,0,0,1,249.07,323.26Z"/><path class="cls-4" d="M259.3,243h17.59v42H256.08C257.15,271,258.22,257,259.3,243Z"/><path class="cls-4" d="M284.22,243h17.62c1.08,13.91,2.15,27.74,3.24,41.78H284.22Z"/></g></svg>