<svg id="Calque_1" data-name="Calque 1" xmlns="http://www.w3.org/2000/svg" viewBox="0 0 480 480"><defs><style>.cls-1{fill:#adccff;}.cls-2{fill:#ffcf47;stroke:#020202;stroke-miterlimit:10;}.cls-3{fill:#dba92c;}</style></defs><title>Beautéé</title><rect class="cls-1" x="43.15" y="57.98" width="391.54" height="391.54" rx="79.16" ry="79.16"/><g id="OrfnND.tif"><path class="cls-2" d="M240.19,360c0-.53,0-1.71,0-1.93s0-1.23,0-2.16c0-1.42,0-1.82,0-2.14.1,1.12.08.09,0-1.95,0-1.31,0-1,0-1.79.05.22,0-1.39,0-2.3,0-.11,0-2,0-2,.11,1.53,0-.47,0-2-.05-2.21,0-3.2,0-4.08,0-1.15,0-3.47,0-4.07,0-1.29,0-3.34,0-4.07,0-1.81,0-3.46,0-4.07,0-1.74,0-2,0-4.07-.1-3.26,0-2.5,0-4.06,0-2.11,0-2.46,0-4.07,0-1.31,0-3,0-4.07-.06-2.41.07-1.34,0-4.07-.05-2.24,0-3.41,0-4.07,0-2.12,0-3.26,0-4.08,0-.54,0-3.11,0-4.08,0-.67,0-1.82,0-4.09-1.11,0-2.23-.28-3.32-.18-1.06.81-2.21-.11-3.3-.17-2.2-.12-4.39-.27-6.56-.52-4.56-.53-9.1-1.24-13.63-2a12.26,12.26,0,0,0-3.4-.55c-.6.82-1.3-.65-1.9-.53s-1.29-1.19-1.87-.73a15.6,15.6,0,0,0-1.89-1.5c-.25,0-.28-2.58.16-2.57a13.73,13.73,0,0,1,1.29-3.67c.44-1,.82-3.16,1.28-3.67a18.24,18.24,0,0,0,1.28-3.67c.37-2.23.87-2,1.27-3.67.42-1.44.8-3.42,1.27-3.67.35-2.77.88-1.89,1.27-3.67.44-.95.78-3.87,1.27-3.67a28.16,28.16,0,0,0,1.27-3.68A14.65,14.65,0,0,1,216,249c.41-1.4.8-3.38,1.27-3.67a9.57,9.57,0,0,1,1.27-3.67,13.52,13.52,0,0,1,1.28-3.67c.38-2.11.86-2.23,1.28-3.67a27.34,27.34,0,0,0,1.28-3.67c.19-1.43.46-.7.61-1.91s.28-2.34.47-1.9a13.79,13.79,0,0,1,.3-2.7,4.75,4.75,0,0,0,.24-1.07,16.35,16.35,0,0,0,0-3.72,27.84,27.84,0,0,0-.52-3.68c-.14,1-.62-2.72-1-3.64-.38-.33-.84-.37-1.55-3.62-.65-2.49-1.19-2.87-1.74-3.46-.57-1.1-1.17-2.59-1.73-3.46a25.78,25.78,0,0,0-1.73-3.46c-.56-.85-1.18-2.81-1.73-3.46a2,2,0,0,1-.81-.71c-.28-.44-.62-2-.92-2.76-.28-.57-.61-1.91-.87-2.05-.29-.48-.54-.42-.85-1.41-.4-2.14-.51.32-.81-1.65-.18.25-.38-.66-.56-2.18,0,1.25-.27-2.13-.27-2-.09-1.38-.15-3.09,0-1.61.1.54.09-2,.27-1.56,0-3,.27-1.83.52-1.71.2-1,.56.55.79-1.47.41,1.69.71.38,1-1.36.52-.47,1.07-1.6,1.75-1.61.7.38,1.38-1.11,2.18-1.34.7-2.23,1.59-1.95,2.58-1,.93-1.9,1.95-1.9,3-.93,1-.37,2-1.54,3-.92,1-.94,2-1.54,3-.93,1-.27,1.87-.07,2.59-1.18.76-.48,1.39-1.37,2-1.71s1-.88,1.26-2.26c.45,1.89.46-2.49.57-2.85a12.83,12.83,0,0,0,.79-2.92c.44-.94,1-3.25,1.89-1.83.79-.77,1.75-1.4,2.95-.67,1.15,0,2.35.89,3.45,0a6,6,0,0,0,3.45,0c1.17.4,2.3,0,3.45,0,1.11-.68,2.3.08,3.45,0a8.91,8.91,0,0,1,3.45,0,3.94,3.94,0,0,1,3,.65,4.09,4.09,0,0,1,1.93,1.84,8.51,8.51,0,0,1,.82,3,18.18,18.18,0,0,0,.6,2.83c.33,1.17.79,2.45,1.28,2.25.57,1.15,1.18.95,2,1.7a12.55,12.55,0,0,0,2.61,1.17,8.31,8.31,0,0,1,3.26,1c1-1.21,2.23,1.48,3.27,1a7.72,7.72,0,0,1,3.25,1c1.2,0,2.24-1,3.32,1.61,1.06,2.2,1.84,1.66,2.53,2.25.75,1.7,1.26,1.57,1.69,2.76a7.24,7.24,0,0,1,.79,3.14,10.09,10.09,0,0,1-.17,3.38c-.25.69-.64,1.91-1.19,3.5s-1.05,3.49-1.68,3.44c-.53,1.63-1.14,1.9-1.68,3.44-.5,2.51-1.12,2.48-1.7,3.43a19,19,0,0,0-1.72,3.42c-.6.65-1.22.89-1.73,3.42-.59.89-1,4.41-1.75,3.4-.63.32-1,3.81-1.53,3.37-.44,1.06-.74,3.41-1.09,3.37-.27,1.37-.61.14-.65,3.41-.18.35-.29.85-.21,3.42a29.81,29.81,0,0,0,.22,3.47,12.58,12.58,0,0,0,.64,3.51c.27.74.72,3.69,1.08,3.55a25.51,25.51,0,0,1,1.36,3.82,28.58,28.58,0,0,1,1.35,3.82,22.84,22.84,0,0,1,1.34,3.82c.52,2.78.87,2.17,1.33,3.82a26.4,26.4,0,0,1,1.33,3.83c.36-.29.92,3.16,1.33,3.83.48,2,1,4.23,1.32,3.83a13.52,13.52,0,0,0,1.31,3.83,26.39,26.39,0,0,0,1.32,3.83,40.49,40.49,0,0,0,1.32,3.83,9.7,9.7,0,0,0,1.31,3.83c.53,2.88.86,2.07,1.32,3.83a11.66,11.66,0,0,1,1.32,3.83,13,13,0,0,0,.65,2.6c0-.36-.15,1.51-.67,1.49-.47.73-1.3.31-2.45.91-1.11-.38-2.16.56-3.25.7s-2.17.31-3.25.64a6.72,6.72,0,0,0-3.27.59c-1.12-.23-2.16.81-3.28.54-1.14-.79-2.19.3-3.28.5-1.12-.34-2.17.77-3.29.46-1.09,0-2.16.67-3.28.35-1.14-.77-2.2.08-3.31.21a3.85,3.85,0,0,1-1.65.34,9.59,9.59,0,0,1-1.68-.18c-.55.31-1.15-.49-1.69-.06-.56.05-1.1.61-1.68.23,0,.93,0,1.27,0,1.68.09,2.41,0,1.2,0,2.4a8.27,8.27,0,0,1,0,1.35c0-.1.08,2.79,0,2.72a26.89,26.89,0,0,1,0,3.09c-.06-.44,0,.64,0,1-.14-2,0,2.08,0,2.14.07,1.87.08,2.78,0,1.93,0,.18-.09-.34,0,2.26,0,1,0,1.27,0,1.81,0,1.48,0,.88,0,2.14,0,1,.12,3.58,0,1.93,0,.06,0,1.63,0,2.18s0,1.23,0,1.88c0,0,0,2,0,2.1.13,3.18-.05.4,0,2,0,.75,0,1.46,0,2.7,0,1.07,0,2.22,0,1.36,0,1.27,0,.9,0,1.76-.1-1.29,0,1.7,0,2.3a12,12,0,0,1,0,1.54c.06,1.78,0,.46,0,2.53a21.21,21.21,0,0,0,0,2.59c0,.25.07,2.76,0,1.47.06,1.89,0,1.43,0,1.25,0,.36,0,1.48,0,2.81s.06,2.53,0,2.55c0,1.33,0,1.75,0,1.51,0,1.6,0,1.82,0,2.19,0,1,0,1,0,1.88,0,.4,0,.66,0,1.91,0,1.45,0,1.42,0,2.15-.09-1-.06.31,0,1.86,0,1.19,0,1.5,0,2.21a13.86,13.86,0,0,1,3.08.47l3.08.45c2,.31,4.08.66,6.09,1.14,1,.24,2,.52,3,.83a4.76,4.76,0,0,1,3,1.08,6.42,6.42,0,0,1,2.85,1.31,6,6,0,0,1,2.71,2.38,2.7,2.7,0,0,1,0,2.63,6.78,6.78,0,0,1-2.7,2.4c-1,.2-2.07,1.11-3.15,1.45a10.2,10.2,0,0,0-3.3,1.16c-1.09.84-2.25.53-3.37.83a5.07,5.07,0,0,1-3.88.69c-1.32-.25-2.57.81-3.89.55s-2.55.91-3.88.39c-1.25.94-2.49,1.92-3.88.24a5.13,5.13,0,0,1-3.87.09c-1.3-.09-2.56.49-3.87-.09-1.26.66-2.56.2-3.87-.25a4,4,0,0,0-3.86-.42c-1.29-.22-2.58-.44-3.86-.61-1.31-.75-2.53.06-3.84-.79-.57,1.3-1.28-.29-1.93-.46a7,7,0,0,1-1.92-.51c-.36-.53-.67-.14-1-.26-.38-.78-.72-1-1-.44-.35-.36-.71-1.18-1-.36-.34-.24-.61.55-1-.55-.38-1.39-.64-.57-.95-.78-.37-1.32-.61-.33-.9-.32-1-.06-1.73-1.35-2.07-2.21-.31-.3-.3-1.26.06-2.3a4.82,4.82,0,0,1,2.16-2.16,2.57,2.57,0,0,0,1.38-.82c.46-.39.92-.76,1.41-.69a2,2,0,0,0,1.44-.88c.46-.53.94-1,1.48-.25,1-.05,1.93-1.85,3-.84a15.16,15.16,0,0,0,3.08-.62c1.06.35,2.06-.6,3.11-.5.71-.61,1.53.82,2.23-.29.74-.1,1.42-1.71,2.26-.26A14.86,14.86,0,0,0,240.19,360Z"/></g><g id="OrfnND.tif-2" data-name="OrfnND.tif"><path class="cls-3" d="M279,196.62a5,5,0,0,0,1.39-3c.54-1.55,1.15-1.82,1.69-3.44.62,0,1.14-1.76,1.68-3.44s.93-2.82,1.18-3.5a9.89,9.89,0,0,0,.17-3.39,7.05,7.05,0,0,0-.79-3.13c-.42-1.19-.93-1.07-1.69-2.76-.65-.56-1.38-.12-2.34-1.89C280.13,180.29,279.67,188.47,279,196.62Z"/><path class="cls-3" d="M287.89,277.3c-.47-1.75-.8-.95-1.32-3.83a9.4,9.4,0,0,1-1.32-3.83c-.4-.61-.89-2.74-1.32-3.83a25,25,0,0,1-1.31-3.83,13.12,13.12,0,0,1-1.32-3.83c-.35.4-.84-1.81-1.32-3.83-.41-.67-1-4.12-1.32-3.83a28.33,28.33,0,0,0-1.33-3.82c-.47-1.65-.81-1-1.34-3.83a22.59,22.59,0,0,0-1.34-3.82,14.3,14.3,0,0,0-.71-2.22c-2.88,17.77-6.43,35.45-10,53.13,1.09.27,2.13-.31,3.2-.36,1.12.31,2.17-.8,3.29-.47,1.09-.19,2.14-1.28,3.28-.5,1.12.27,2.17-.77,3.28-.54,1.09-.3,2.16-.83,3.27-.58,1.08-.33,2.18-.36,3.26-.64s2.13-1.09,3.24-.7c1.15-.6,2-.19,2.46-.91.42,0,.58-1.21.64-1.48s-.31-1.21-.62-2.62A12.12,12.12,0,0,0,287.89,277.3Z"/><path class="cls-3" d="M277.65,367.25a6.14,6.14,0,0,0-2.72-2.37,6.56,6.56,0,0,0-2.85-1.32,4.8,4.8,0,0,0-3-1.07c-1-.31-1.95-.58-2.93-.81-2.94,4.7-4.95,10-7.18,15.11a4.81,4.81,0,0,1,2.26-.37,5.11,5.11,0,0,0,3.88-.69c1.13-.3,2.28,0,3.37-.84a10.44,10.44,0,0,1,3.3-1.16c1.09-.33,2.12-1.25,3.16-1.45a6.84,6.84,0,0,0,2.7-2.39A2.78,2.78,0,0,0,277.65,367.25Z"/></g></svg>