<svg id="Calque_1" data-name="Calque 1" xmlns="http://www.w3.org/2000/svg" viewBox="0 0 480 480"><defs><style>.cls-1{fill:#daecff;}.cls-2{fill:#adccff;}.cls-2,.cls-3{stroke:#050505;stroke-miterlimit:10;stroke-width:2px;}.cls-3{fill:#ff5f7d;}</style></defs><title>Beautéé</title><rect class="cls-1" x="45.57" y="47.92" width="391.54" height="391.54" rx="79.16" ry="79.16"/><g id="_8EphuD.tif" data-name="8EphuD.tif"><path class="cls-2" d="M340.53,339.09a5.13,5.13,0,0,1-3.86,5.06c-5,1.08-10,2.15-14.95,3.16a5,5,0,0,1-6.12-4.1q-4.5-21.1-9-42.21-4.2-19.8-8.37-39.61c-1.58-7.43-3.19-14.84-4.78-22.27q-2.1-9.83-4.18-19.65a3.28,3.28,0,0,1-.17-1.25c.08-.39.39-1,.69-1,6.34-1.4,12.7-2.75,19.05-4.1a31.18,31.18,0,0,0,3.35-.73c1.14-.38,1.51,0,1.72,1.09.72,3.53,1.49,7.06,2.24,10.58s1.53,7.23,2.3,10.84q2.19,10.4,4.4,20.77,2.43,11.4,4.87,22.79c1.61,7.59,3.2,15.2,4.82,22.79s3.23,15.11,4.83,22.66c1,4.86,2.06,9.72,3.09,14.58C340.5,338.7,340.51,339,340.53,339.09Z"/><path class="cls-2" d="M164.56,347.48c-2.11-.43-4.57-.91-7-1.43-2.87-.61-5.73-1.24-8.59-1.87a5,5,0,0,1-3.85-6q4.26-20.11,8.52-40.24,3.7-17.37,7.43-34.74c1.94-9.13,3.83-18.28,5.78-27.41.48-2.28,1.18-4.51,1.66-6.79,1-4.86,1.95-9.73,2.9-14.6.44-2.28.42-2.34,2.68-1.87,7.18,1.5,14.36,3.06,21.55,4.56.79.16,1,.53.8,1.24-.63,2.68-1.3,5.35-1.86,8-.83,3.9-1.57,7.81-2.35,11.72-.56,2.74-1.11,5.49-1.69,8.23q-2.43,11.37-4.86,22.75-2.47,11.58-4.93,23.16-2.4,11.34-4.8,22.68T171,337.85c-.4,1.87-.78,3.74-1.18,5.61A5.23,5.23,0,0,1,164.56,347.48Z"/><path class="cls-3" d="M206.92,141.66a10.5,10.5,0,0,1,8.24,3.89,1.73,1.73,0,0,0,2.17.68c2.18-.72,4.37-1.38,6.57-2a1.36,1.36,0,0,0,1.14-1.42c.3-6.65,4.89-11,11.52-11,4.29,0,8.58,0,12.87.06a10.93,10.93,0,0,1,11,10.72c0,.9.26,1.42,1.15,1.68,2.2.64,4.39,1.33,6.57,2a1.67,1.67,0,0,0,2.09-.58,10.83,10.83,0,0,1,15.28-1.58q5.22,4.08,10.34,8.28a10.89,10.89,0,0,1-.54,17.76,1.34,1.34,0,0,0-.68,1.58c.44,2,.83,4,1.24,6,.14.69.48,1,1.25.84,1.33-.3,2.66-.56,4-.81a4.94,4.94,0,0,1,5.88,3.8c1.55,7.09,3,14.19,4.56,21.29.24,1.12.45,2.25.72,3.36.18.75-.11,1.12-.83,1.27l-17.19,3.63c-1.83.39-3.66.75-5.49,1.15-.72.16-1.08,0-1.25-.8-1.51-7.22-3.06-14.45-4.59-21.67-.22-1-.46-2.07-.63-3.12a4.94,4.94,0,0,1,3.74-5.69c1.36-.34,2.73-.65,4.1-.91.77-.15,1-.49.81-1.24-.45-1.9-.88-3.8-1.25-5.72-.15-.74-.46-1.13-1.24-1.15a11,11,0,0,1-6.7-2.76c-3.2-2.59-6.42-5.15-9.64-7.72a10.86,10.86,0,0,1-4.39-8.92,1.31,1.31,0,0,0-1.07-1.46c-2.32-.7-4.61-1.47-6.95-2.09a1.94,1.94,0,0,0-1.6.52,11.19,11.19,0,0,1-9.15,4.2c-4.16,0-8.33,0-12.49,0a11.22,11.22,0,0,1-9.16-4.19,1.9,1.9,0,0,0-1.6-.52c-2.34.62-4.63,1.4-6.95,2.09a1.37,1.37,0,0,0-1.09,1.58,10.56,10.56,0,0,1-4.09,8.53c-3.49,2.85-7,5.65-10.54,8.45a9.89,9.89,0,0,1-5.83,2.28,1.35,1.35,0,0,0-1.53,1.29c-.34,1.88-.78,3.74-1.21,5.6-.18.74,0,1.1.79,1.24,1.3.24,2.58.54,3.86.85a4.91,4.91,0,0,1,3.94,6c-1.27,6.24-2.61,12.46-3.93,18.69-.39,1.87-.88,3.72-1.19,5.6-.18,1-.62,1.21-1.56,1-5.31-1.15-10.63-2.25-16-3.38-2.08-.43-4.15-.9-6.23-1.3-.86-.17-1.26-.46-1.05-1.45,1.76-8.13,3.47-16.27,5.23-24.4a4.94,4.94,0,0,1,6-3.89c1.25.25,2.5.47,3.74.76.78.19,1.22,0,1.38-.83.41-2,.88-4.07,1.21-6.12a1.72,1.72,0,0,0-.58-1.33c-6.46-4.87-6.63-13-.32-18.13,3.3-2.67,6.63-5.31,9.95-8A10.78,10.78,0,0,1,206.92,141.66Zm23.56.2c.07,0,.16.12.22.1,1.18-.32,2.36-.65,3.53-1a2.57,2.57,0,1,1,1.5,4.87c-1.1.35-2.2.73-3.48,1.15a4.93,4.93,0,0,0,4.08,1.57q6.24.06,12.48.05a7.85,7.85,0,0,0,2.27-.27,15.75,15.75,0,0,0,2.35-1.16,7.49,7.49,0,0,0-.83-.42l-2.78-.91c-1.74-.55-2.5-1.82-2-3.38.44-1.4,1.87-2,3.55-1.47,1.19.37,2.39.71,3.94,1.17a13,13,0,0,0-.57-2,5.83,5.83,0,0,0-5.67-3.36q-6.44,0-12.87,0a7.51,7.51,0,0,0-2,.3C232,137.76,230.34,139.94,230.48,141.86Zm-18,11.2c-1.86.55-3.47,1.05-5.09,1.5s-3-.12-3.44-1.47c-.49-1.55.22-2.76,2-3.37l4.35-1.44a5.22,5.22,0,0,0-7.07-.35c-3.62,2.8-7.16,5.7-10.73,8.58a5.84,5.84,0,0,0-2.1,3.8,4.54,4.54,0,0,0,1.78,4.52c.35-1.47.67-2.91,1-4.33a2.15,2.15,0,0,1,2.05-1.8,3.59,3.59,0,0,1,2.37,1.08A3.21,3.21,0,0,1,198,162c-.17,1.52-.55,3-.84,4.53l.34.24a9.39,9.39,0,0,0,2-1q5.66-4.43,11.23-9A4.89,4.89,0,0,0,212.52,153.06Zm60.43,0a5.3,5.3,0,0,0,1.93,3.95c3.62,2.93,7.26,5.85,10.94,8.72a12.1,12.1,0,0,0,2.16,1.08l.33-.28c-.29-1.48-.57-2.95-.87-4.43-.34-1.73.34-3,1.8-3.42s2.68.56,3.11,2.24c.34,1.29.62,2.6,1,4.24a14.87,14.87,0,0,0,1-1.23,5.77,5.77,0,0,0-1.41-7.45c-1.55-1.32-3.17-2.56-4.76-3.84-1.92-1.53-3.81-3.1-5.76-4.6-2.36-1.81-5.7-1.71-7.1.17a2.08,2.08,0,0,0,.42.26c1.41.47,2.83.89,4.22,1.39a2.52,2.52,0,0,1-1.43,4.82c-.58-.14-1.14-.33-1.71-.5Z"/></g></svg>