<svg id="Calque_1" data-name="Calque 1" xmlns="http://www.w3.org/2000/svg" viewBox="0 0 480 480"><defs><style>.cls-1{fill:#adccff;}.cls-2{fill:#ffd258;stroke:#000;stroke-miterlimit:10;stroke-width:2px;}.cls-3{fill:#d3a533;}</style></defs><title>Beautéé</title><rect class="cls-1" x="42.95" y="50.99" width="391.54" height="391.54" rx="79.16" ry="79.16"/><g id="qIAf8i.tif"><path class="cls-2" d="M192.65,299.17c0-1.31,0-1.06,0-1.94a14.77,14.77,0,0,1,0-1.55c0-.7,0-2.09,0-4-.05-2.43,0-2.51,0-4,.06-.28,0-2.52,0-4,0-.76,0-2.82,0-4,0-1.35,0-3.21,0-4,0-.58,0-2.36,0-4,0-1.91,0-1.9,0-4,0-1.05,0-2.11,0-4,0-.9-.05-3.64,0-4,.07-.11-.06-3.92,0-4,0-1.72,0-2.49,0-4,0-.51,0-3.05,0-4,0-.75,0-2.17,0-4,0-1.42,0-2.92,0-4,0-2.11,0-2,0-4s0-3.44,0-4c0-1.51,0-3.56,0-4,0-.63,0-1.08,0-2,0-.51,0-2.08,0-2-.05-1.7,0-.4,0-1.65,0-.51-.07-2.67,0-2.34,0-.92,0-.5,0-2-.07-1.94.08.25,0-2,0-.84,0-.69,0-1.89.05.31-.08-2.78,0-2.1,0-.25.11.39.11-1.09a9.18,9.18,0,0,1,.19-2.2c.12-.16.22-1.08.43-.65.18-.33.33-1.7.59-1.66.28.38.51-.71.87-.42s.68-.63,1.08-1.18c.42-.19.85-1,1.37-1.11a13.42,13.42,0,0,1,1.73-.07,21.22,21.22,0,0,0,3.93-1.11c1.36.68,2.66.11,3.92-1.12,1.33,0,2.59-1.33,3.93-1.11,1.35.44,2.6-1,3.92-1.11a11.23,11.23,0,0,1,3.93-1.11,5.4,5.4,0,0,0,3.92-1.11c1.35.4,2.61-.88,3.93-1.11,1.28-.79,2.62-.61,3.92-1.11s2.58-1.6,3.93-1.11c1.27-1.06,2.61-.88,3.92-1.11,1.3-.6,2.64-.34,3.93-1.11,1.31-.3,2.61-.79,3.93-1.11a14.5,14.5,0,0,1,3.92-1.11A9.45,9.45,0,0,1,254,188c1.33.16,2.6-.94,3.92-1.11s2.66.05,3.93-1.11c1.34.23,2.6-1.09,3.92-1.11,1.34.17,2.61-.88,3.93-1.11,1.29-.77,2.63-.49,3.92-1.11,1.29-.88,2.63-.5,3.93-1.11,1.31-.37,2.65-.19,3.92-1.11,1.34.22,2.6-1.25,3.93-1.11,1.26-1.3,2.64-.3,3.93-1.11,1.34.25,2.51-.63,3.61-.39,1.17,1.5,2.2,3,2.89,1,.9,2.07,1.58,2.73,2,2.46.15-1.32.4.73.54,1.63,0-1.35.27,2.79.18,1.72.07,2.72,0,3.3,0,4.13-.05.33,0,3.21,0,4.13a27.94,27.94,0,0,0,0,4.13c0,1.13-.07,1.33,0,4.13,0,1.56,0,2.92,0,4.13,0,1.91.08,4.25,0,4.13,0,1.12,0,2.87,0,4.12,0,2.12,0,2,0,4.13s0,3.13,0,4.13c0,1.59,0,2.57,0,4.13-.13-1.11,0,2,0,4.13a41.16,41.16,0,0,1,0,4.13c.09,3-.11.61,0,4.13.05,2.41,0,3.41,0,4.13,0,.88,0,3.32,0,4.13.06,2.54,0,1.87,0,4.13a38.86,38.86,0,0,1,0,4.13,40,40,0,0,0,0,4.13c-.12-.84,0,3,0,4.13s.06,3.94,0,4.12c0,1.31,0,3.08,0,4.13-.11-.72.07,4.15,0,4.13,0,.73,0,2.36,0,4.13,0,1.44,0,2.31,0,4.13.05,2.44-.07,1.49,0,4.13,0,1.67,0,3.1,0,4.13,0,1.65,0,3.23,0,4.13a20,20,0,0,1-.28,3.74,31.53,31.53,0,0,1-.82,3.61c-.34,1.61-.83,1.88-1.32,3.42-.53.9-1.2.68-1.79,3.18-.62,1.76-1.47.57-2.2,2.91-.8.92-1.67,1.64-2.59,2.58s-1.95.59-2.94,2.2c-1.11-.84-2.1,1.51-3.24,1.79-1.19-.66-2.32.67-3.52,1.31-1.22,1.12-2.56,0-3.8.83-1.24.64-2.55-.12-3.78.28s-2.52-.54-3.72-.26c-1.27-1.14-2.38.57-3.61-.78-1.09,1.43-2.39-1.88-3.46-1.28-1,.86-2.21-1.26-3.25-1.76a16.07,16.07,0,0,1-3-2.23c-1-2.27-1.85-1.74-2.7-2.68-.83-.7-1.65-2.37-2.36-3.1-.7-1.41-1.33-3.05-1.8-3.26-.59-2.59-.89-1.32-1.28-3.45-.31-.46-.55-1.4-.77-3.57a25.61,25.61,0,0,1-.27-3.64c-.14-3.91,0-4.35.24-3.64a19.85,19.85,0,0,0,.74-3.58c.31-1.59.79-1.45,1.23-3.47a12,12,0,0,0,1.73-3.29c.7-.15,1.39-2.12,2.21-3.06.87-.12,1.74-1.21,2.62-2.71.88-1.75,1.93-1,2.91-2.26,1-.24,2-1.94,3.14-1.81,1-2,2.2-.79,3.33-1.34,1.17.41,2.17-3,3.47-.86,1.16-.48,2.39.08,3.57-.38,1.16-.86,2.38-.6,3.63.13a3.35,3.35,0,0,1,3.63.64c1.19.08,2.49,2.46,3.59,1.17.45-.67,1,.78,1.5.63.45-1.16,1.12,1.42,1.68.73-.11-3.41,0-1.88,0-3.83-.13-3.85-.11-4.77,0-3.83.1.62.1-.65,0-3.82a35.54,35.54,0,0,1,0-3.82c0-1.43,0-2.75,0-3.82,0-2.14.06-1.53,0-3.81a37.15,37.15,0,0,0,0-3.82,19.33,19.33,0,0,1,0-3.81c0-.25,0-1,0-1.91,0-.62,0-2.08,0-1.92a13.3,13.3,0,0,1,0-2,10.89,10.89,0,0,1,0-1.79c0-1,0-1,0-2.06,0-.57,0-.78,0-1.77,0-.82,0-1.93,0-2.43-.05-1.53-.07-2.58,0-1.4.07.69.14,1.4.09-.21s-.07-2.69-.09-3.64c0-.49-.1-3.32,0-2.78,0-1.18-.05-2.15,0-1.07-.31,2-.78,1.18-1.25.29-.17.8-.45-.53-.68-1-.21,0-.41.2-.56,1.3-.65.29-1.35-.55-2-.16s-1.28.88-1.92,1.26c-1.38-1.13-2.59.91-3.9,1.1-1.36-.71-2.6,1-3.91,1.11-1.28.83-2.62.48-3.91,1.1a3.92,3.92,0,0,1-3.9,1.11c-1.33-.21-2.6.86-3.91,1.1a8.38,8.38,0,0,0-3.9,1.1c-1.34-.36-2.57,1.33-3.91,1.11-1.29.49-2.63.13-3.9,1.1-1.3.39-2.64.07-3.91,1.1-1.36-.77-2.65-.24-3.9,1.1-1.33-.05-2.6.78-3.91,1.11-1.29.64-2.63.29-3.91,1.1s-2.61.44-3.9,1.1a5.63,5.63,0,0,1-3.91,1.09c-1.29.52-2.61.55-3.91,1.1a39.84,39.84,0,0,1-3.9,1.1,16.91,16.91,0,0,0-3.91,1.09c-1.35-.44-2.52,2.49-3.91,1.09-1,1.45-1.73,1.78-2.21,1.28-.43.56-.63.39-.58,2.49-.06,0,0,3.22,0,4,0,1.94,0,1.8,0,4,0,.94-.07,1.35,0,4,0,.93,0,2.38,0,4,0,1.35,0,3.61,0,4,0,.63.15,5.43,0,4,0,2,0,2.91,0,4,0,1.64-.06,1.47,0,4-.06.19.06,3.82,0,4,0,.94,0,2.5,0,4,0,1,0,3.1,0,4,0,2,.05,3.56,0,4,0,1.56.05,3.67,0,4,.08,2.87,0,2.94,0,4,0,.73,0,2.66,0,4,0,.07,0,1.61,0,2,.07,1.93,0,2.1,0,2,0,.95,0,1.29,0,2.06,0,.42,0,1.49,0,2-.14-1.85-.08,0,0,1.3a23.92,23.92,0,0,0,0,2.74c0,1.5,0,2.25,0,2.43,0,.71,0,1.33,0,1.61a20.25,20.25,0,0,1-.05,2.8c0,1.07-.16.54-.25,1.41-.1.63-.22,1.22-.36,1.92a6.83,6.83,0,0,1-.49,2c-.39.86-.81,2.91-1.37,3.69a7.34,7.34,0,0,0-1.87,3.39c-.66,2-1.49,1.95-2.34,3-.9-.11-1.73,2.74-2.77,2.65a4.24,4.24,0,0,1-3.17,2.22c-1.07,1.61-2.33.71-3.54,1.76-1.25.42-2.55.76-3.89,1.27a5.84,5.84,0,0,1-3.86.65c-1.31-.33-2.64-1.43-3.82.07-1.23.44-2.38,2.13-3.72-.48-1.18.58-2.39-.14-3.58-1-1.11.43-2.27-.49-3.38-1.5-1.1-.77-2.08-.26-3.13-2-.94.47-2-1.88-2.85-2.39-.83.17-1.72-1.65-2.49-2.78-.75-.57-1.5-2.38-2.11-3.16-.56.24-1.15-1.6-1.66-3.48-.39.36-1-4.39-1.16-3.8a15.27,15.27,0,0,1-.58-3.82,33.68,33.68,0,0,1,0-3.78,30.89,30.89,0,0,1,.54-3.7c.18-3,.55-3.76,1.06-3.55.32-3.3.95-2.14,1.53-3.36.63-.3,1.2-3.06,2-3.11.72-1.19,1.48-2.82,2.39-2.81.82-1.53,1.74-2.54,2.76-2.46,1-.39,2-2.81,3.11-2a7.58,7.58,0,0,1,3.42-1.59c1.14-1.34,2.39-1.24,3.69-1.07,1-1.19,2.14-.24,3.19-.48,1.1.77,2.13.39,3.15-.11,1.18,2.69,2.05-.53,3.13.29,1,0,2.18,2.52,3.11.67.51.15,1.11,1.86,1.56.77.48-.49,1,.31,1.53.31.49-.34,1.07,1,1.55.7C191.65,299.14,192.08,297.86,192.65,299.17Z"/></g><g id="qIAf8i.tif-2" data-name="qIAf8i.tif"><path class="cls-3" d="M297.41,236.14c0-1.93-.11-4.85,0-3.82,0-1.45,0-2.36,0-3.83,0-.93,0-2,0-3.83s0-1.87,0-3.82c0-1.17,0-2.79,0-3.83a11.48,11.48,0,0,0,0-1.86,470.1,470.1,0,0,1-11.67,50.58c.07,2.51.07,3.52,0,3-.1-.87-.12,0,0,3.55,0,1.81-.1.39,0,3.55-.5.64-1.09-1.75-1.48-.68-.34.12-.72-.67-1-.73-4.69,15.55-10,30.92-15.54,46.18a.83.83,0,0,0,.23-.23c1.08,1.26,2-.33,3.17.73,1.05-.26,2.19.73,3.26.24s2.23.34,3.32-.26c1.08-.81,2.26.27,3.33-.77,1.05-.59,2-1.83,3.09-1.21,1-.26,1.87-2.44,2.84-1.66.86-1.5,1.77-1.22,2.58-2s1.57-1.54,2.27-2.39c.64-2.17,1.38-1.06,1.93-2.69.52-2.32,1.1-2.12,1.57-3a23.88,23.88,0,0,0,1.15-3.17,28.69,28.69,0,0,0,.73-3.34,21,21,0,0,0,.25-3.47c0-.83,0-2.29,0-3.82,0-1,0-2.28,0-3.83,0-2.44.05-1.56,0-3.82,0-1.69,0-2.5,0-3.83,0-1.64,0-3.15,0-3.83.07,0-.09-4.49,0-3.82,0-1,0-2.62,0-3.83.06-.17,0-2.68,0-3.83s-.11-4.59,0-3.82c0-1.68-.08-4.16,0-3.83a36.3,36.3,0,0,0,0-3.82c0-2.09.05-1.47,0-3.83,0-.75,0-3,0-3.83s0-1.59,0-3.82c-.1-3.27.07-1.06,0-3.83C297.4,238.39,297.52,239.57,297.41,236.14Z"/></g></svg>