<svg id="Calque_1" data-name="Calque 1" xmlns="http://www.w3.org/2000/svg" viewBox="0 0 480 480"><defs><style>.cls-1{fill:#ffd258;}.cls-2{fill:#ff5f7d;stroke:#050505;}.cls-2,.cls-3{stroke-miterlimit:10;}.cls-3{fill:#fffbf2;stroke:#020202;}</style></defs><title>Beautéé</title><rect class="cls-1" x="46.29" y="49" width="391.54" height="391.54" rx="79.16" ry="79.16"/><g id="fymyfv.tif"><path class="cls-2" d="M235.64,161.63h18c0,9.29.25,18.17-.07,27a42.15,42.15,0,0,0,7.94,26.77c6,8.45,8.4,17.8,8.29,28.22-.3,27.73-.08,55.45-.12,83.18,0,11-3.07,14-14.25,14.09-8,0-15.92.15-23.87,0-8.23-.2-11.84-3.69-11.87-11.78-.1-30.29-.34-60.59.25-90.87a36.15,36.15,0,0,1,5.71-18.75,57.29,57.29,0,0,0,10.12-37.79C235.27,175.34,235.64,168.92,235.64,161.63Zm26.65,139.21v-54.2H226.92v54.2Z"/><path class="cls-2" d="M233.9,158.35c2.27-5.14,3.31-9.81,6.11-12.89,1.45-1.6,7.34-1.72,8.86-.17,2.93,3,4.18,7.6,6.88,13.06Z"/><path class="cls-3" d="M262.29,300.84H226.92v-54.2h35.37Z"/></g></svg>