<svg id="Calque_1" data-name="Calque 1" xmlns="http://www.w3.org/2000/svg" viewBox="0 0 480 480"><defs><style>.cls-1{fill:#daecff;}.cls-2{fill:#ffd258;stroke:#0c0c0c;stroke-width:0.75px;}.cls-2,.cls-3{stroke-miterlimit:10;}.cls-3{fill:#adccff;stroke:#050505;stroke-width:2px;}</style></defs><title>Beautéé</title><rect class="cls-1" x="44.9" y="51.78" width="391.54" height="391.54" rx="79.16" ry="79.16"/><g id="MdLnQS.tif"><path class="cls-2" d="M301.38,337.88c0,4.81.07,9.29,0,13.77a4.64,4.64,0,0,1-4.71,4.82c-2.64,0-4.54-2-4.64-4.87,0-.91,0-1.83,0-2.75V338H180c0,4.54.21,9.11-.11,13.63a5.92,5.92,0,0,1-2.51,4.13,5,5,0,0,1-4.56-.28,6.5,6.5,0,0,1-2.11-4.41c-.28-4.29-.09-8.61-.09-13.21h-12.7c-7.45,0-13.88-2.37-18.86-8.11a22.11,22.11,0,0,1-5.68-14.83c0-28.25-.09-56.5,0-84.74,0-13.4,10.46-23,24.63-23.07q33.63-.07,67.25,0h88.24c4.46,0,8.79.57,12.77,2.82,7.92,4.48,12.26,11.23,12.3,20.31q.18,42.26,0,84.5c-.05,13.25-10.21,22.88-24.08,23.12C310.28,337.94,306,337.88,301.38,337.88ZM170.62,272.67q0-8.25,0-16.49c0-8.41,0-16.82,0-25.23,0-3.42-2.22-5.41-5.37-5-2.49.34-3.84,2.25-3.84,5.52q0,41,0,81.93c0,.5,0,1,0,1.5a4.47,4.47,0,0,0,4.72,4.15c2.83-.07,4.47-2,4.47-5.43Q170.63,293.15,170.62,272.67Zm28-.13v-27c0-5,0-10,0-15a4.5,4.5,0,0,0-5.48-4.6c-2.45.4-3.73,2.3-3.73,5.63V313.3c0,.5,0,1,0,1.49a4.48,4.48,0,0,0,4.86,4.28c2.72-.13,4.33-2.05,4.34-5.31Q198.64,293.15,198.62,272.54Zm18.76-.31v29c0,4.42,0,8.83,0,13.24a4.43,4.43,0,0,0,4.76,4.63c2.89-.08,4.44-2,4.44-5.71q0-36.6,0-73.19c0-3.25.07-6.5,0-9.74a4.55,4.55,0,0,0-5.86-4.39c-2.12.55-3.33,2.39-3.33,5.22Q217.38,251.75,217.38,272.23Zm28,.28v14.74c0,8.91,0,17.82,0,26.72,0,3.69,2.8,5.92,6,4.95,2.11-.63,3.17-2.48,3.17-5.59q0-40.84,0-81.68a12.75,12.75,0,0,0-.05-1.75,4.6,4.6,0,0,0-9.1-.1,18.78,18.78,0,0,0-.07,2.49Q245.38,252.4,245.38,272.51Zm37.24,0V257.76c0-8.91,0-17.82,0-26.73,0-3.69-2.79-5.92-6-5-2.1.62-3.18,2.48-3.18,5.59q0,40.83,0,81.68c0,.42,0,.83,0,1.25a4.61,4.61,0,0,0,9.21-.13c0-.66,0-1.33,0-2Zm18.76-.27V279c0,11.65,0,23.31,0,35,0,3.38,2,5.33,5,5.11,2.75-.2,4.19-2.13,4.2-5.7V238.92c0-2.83.08-5.67,0-8.5a4.53,4.53,0,0,0-6.11-4.29c-2.33.85-3.12,2.71-3.12,5.14C301.41,244.92,301.39,258.58,301.38,272.23Z"/><path class="cls-3" d="M241.07,137.56a9.24,9.24,0,0,1-.94,2.31c-5.29,7.46-4.2,14.87-.4,22.59a67.26,67.26,0,0,1,5.34,14.4c1.62,7.07-1,13.44-5.09,19.19a4.49,4.49,0,0,1-6.06,1,4.57,4.57,0,0,1-1.63-6.11,16.53,16.53,0,0,1,.9-1.5c3.06-4.79,3.85-9.9,1.73-15.23-1.22-3.08-2.71-6.07-4.18-9-5.12-10.37-5.19-20.46,1.48-30.24,1.37-2,3.25-2.89,5.59-2.18C239.82,133.41,240.92,134.92,241.07,137.56Z"/><path class="cls-3" d="M198.46,132.52c4.51,0,6.35,3.89,4.58,7.34a38.41,38.41,0,0,0-3.48,8.19c-1.37,5.54,1,10.45,3.52,15.2s4.66,9.78,5.12,15.26c.55,6.53-1.65,12.29-5.38,17.51a4.5,4.5,0,0,1-6,1.08c-2.14-1.32-3.14-4-1.64-6,5.89-8.13,3.89-15.87-.48-23.81s-6.68-16.38-3.12-25.36a34,34,0,0,1,3.71-7C196.09,133.63,197.77,133,198.46,132.52Z"/><path class="cls-3" d="M278.19,137.56a6.79,6.79,0,0,1-.77,2.11c-5.63,7.8-4.29,15.5-.16,23.46a58.42,58.42,0,0,1,4.78,12.5c1.88,7.42-.51,14.13-4.73,20.24a4.54,4.54,0,0,1-6.22,1.21,4.35,4.35,0,0,1-1.46-6.3c5.44-7.58,3.88-14.93,0-22.51A64.43,64.43,0,0,1,265,156.5c-2.27-8.05.26-15.26,4.75-21.93a4.39,4.39,0,0,1,5.28-1.78C277,133.43,278.11,134.91,278.19,137.56Z"/></g></svg>