<svg id="Calque_1" data-name="Calque 1" xmlns="http://www.w3.org/2000/svg" viewBox="0 0 480 480"><defs><style>.cls-1{fill:#daecff;}.cls-2{fill:#73b7a4;stroke:#020202;stroke-miterlimit:10;}</style></defs><title>Beautéé</title><rect class="cls-1" x="45.62" y="57.83" width="391.54" height="391.54" rx="79.16" ry="79.16"/><g id="VL87iC.tif"><path class="cls-2" d="M237.26,188.31c.23-2.62.4-4.7.63-7.32H252l1,6.94c4.91.87,10,1.52,15,2.69,32.6,7.69,55.27,34.39,59.49,69.88,2.12,17.82,1.32,18.74-16.43,18.74H254.39c-4.7,25.94,12.86,55.87,35.77,61.17v14.46c-16.52-.38-28.78-7.81-36.78-21.51-3.67-6.27-7.8-9.07-15-10.53-20.5-4.15-32-18.25-36.85-37.9-1.2-4.84-3.19-5.78-7.62-5.78-17.33,0-18.85-1.76-16.17-18.91a159.67,159.67,0,0,1,4.58-21.46C190.52,211.46,206.93,192.7,237.26,188.31Zm-20.57,91.31c.85,14.36,12.43,26.94,25.16,27.6-1.53-9.19-3-18.35-4.59-27.6Z"/><path class="cls-2" d="M289.64,286.7c8.69,0,17.4-.32,26.08.09,9.13.44,16.33-2,20-11.26,6.63,4.25,13.16,8,19.09,12.48,2,1.54,4,5.53,3.36,7.61-.76,2.51-4.29,5.93-6.65,5.95C329.89,301.81,308.67,299.35,289.64,286.7Z"/></g></svg>