<?xml version="1.0"?>
<svg xmlns="http://www.w3.org/2000/svg" viewBox="0 0 64 64" width="512" height="512"><g id="flat"><path d="M31,5A14,14,0,0,0,17,19v3A14,14,0,0,0,3,8v8A14,14,0,0,0,17,30h2A14,14,0,0,0,33,16V5Z" style="fill:#67c086"/><rect x="19" y="53" width="26" height="6" style="fill:#7d8d9c"/><path d="M8,30H56a0,0,0,0,1,0,0V42A11,11,0,0,1,45,53H19A11,11,0,0,1,8,42V30A0,0,0,0,1,8,30Z" style="fill:#e8e8e8"/><rect x="22" y="56" width="2" height="3" style="fill:#e8e8e8"/><rect x="26" y="56" width="2" height="3" style="fill:#e8e8e8"/><path d="M21,50a9.083,9.083,0,0,1-7-2.816c-3.492-3.795-3.019-10-3-10.267L13,37.082c0,.056-.418,5.612,2.481,8.754A7.168,7.168,0,0,0,21,48Z" style="fill:#7d8d9c"/><rect x="40" y="33" width="13" height="2" style="fill:#7d8d9c"/><rect x="36" y="33" width="2" height="2" style="fill:#7d8d9c"/><rect x="40.464" y="19.05" width="7.071" height="9.899" transform="translate(-4.083 38.142) rotate(-45)" style="fill:#aabece"/><rect x="45.879" y="15.05" width="4.243" height="9.899" transform="translate(-0.083 39.799) rotate(-45)" style="fill:#7d8d9c"/><path d="M59,17a5.431,5.431,0,0,0,0-8,5.431,5.431,0,0,0-8,0c-.867.867-5,6-5,6l7,7S58.133,17.867,59,17Z" style="fill:#ceac9a"/><rect x="54.586" y="11" width="2.828" height="2" transform="translate(7.917 43.113) rotate(-45)" style="fill:#e8e8e8"/><rect x="51.586" y="14" width="2.828" height="2" transform="translate(4.917 41.87) rotate(-45)" style="fill:#e8e8e8"/><path d="M17,29a1.008,1.008,0,0,1-.447-.105,21.668,21.668,0,0,1-9.49-11.544l1.874-.7a20.448,20.448,0,0,0,8,10.162c1.846-1.386,8.264-6.688,9.068-13.921l1.988.22c-1.04,9.356-10.056,15.467-10.439,15.722A1,1,0,0,1,17,29Z" style="fill:#3e8051"/><polygon points="38 23 45 30 31 30 38 23" style="fill:#ceac9a"/></g></svg>
