<svg id="Calque_1" data-name="Calque 1" xmlns="http://www.w3.org/2000/svg" viewBox="0 0 480 480"><defs><style>.cls-1{fill:#f5d060;}.cls-2{fill:#fef0e1;stroke:#020202;stroke-miterlimit:10;stroke-width:2px;}</style></defs><path class="cls-1" d="M350.2,439.5H116.9a79.45,79.45,0,0,1-79.2-79.2V127.1a79.45,79.45,0,0,1,79.2-79.2H350.1a79.45,79.45,0,0,1,79.2,79.2V360.3A79.36,79.36,0,0,1,350.2,439.5Z"/><path class="cls-2" d="M281.06,325.64a61.2,61.2,0,0,1,1.06-40.38L283,283c19.09-50.1,13.61-102.26,11-109.67a27.48,27.48,0,0,0,.38-4.55,27.12,27.12,0,0,0-27.09-27.08,26.74,26.74,0,0,0-6.24.73,33.91,33.91,0,0,0-55.23,0,26.83,26.83,0,0,0-6.25-.73,27.11,27.11,0,0,0-27.08,27.08,27.48,27.48,0,0,0,.38,4.55c-.64,1.84-10.15,54.06,11,109.67l.88,2.31a61.2,61.2,0,0,1,1.06,40.38l-1.25,3.89a20.32,20.32,0,0,0,18,29.72H264.3a20.32,20.32,0,0,0,18-29.72ZM199.6,155.19a13.36,13.36,0,0,1,6.16,1.48,6.78,6.78,0,0,0,9.24-3.2,20.33,20.33,0,0,1,36.93,0,6.77,6.77,0,0,0,9.23,3.2,13.42,13.42,0,0,1,6.16-1.48,13.22,13.22,0,0,1,13.55,13.14H260.55c-3.74,0-6.77,3.44-6.77,7.18v28a6.77,6.77,0,0,1-13.54,0V175.1a6.78,6.78,0,0,0-6.78-6.77h-47.4A13.22,13.22,0,0,1,199.6,155.19Zm-14.53,30.08v-.08l.31-2.91h41.31V203.5a20.32,20.32,0,0,0,40.63,0V182.28h14.23l.3,2.91v.08a197.2,197.2,0,0,1-11.52,92.86l-.88,2.31a74.79,74.79,0,0,0-3.95,38.18H201.42a74.9,74.9,0,0,0-3.95-38.18l-.88-2.31A197.07,197.07,0,0,1,185.07,185.27Zm85.09,157.06a6.65,6.65,0,0,1-5.86,3.38H202.63a6.65,6.65,0,0,1-5.86-3.38c-2.14-3.69-.21-5.68,1.23-10.17h70.93C270.48,337,272.23,338.76,270.16,342.33Z"/></svg>