<?xml version="1.0" encoding="utf-8"?>
<!-- Generator: Adobe Illustrator 22.1.0, SVG Export Plug-In . SVG Version: 6.00 Build 0)  -->
<svg version="1.1" id="Calque_1" xmlns="http://www.w3.org/2000/svg" xmlns:xlink="http://www.w3.org/1999/xlink" x="0px" y="0px"
	 viewBox="0 0 480 480" style="enable-background:new 0 0 480 480;" xml:space="preserve">
<style type="text/css">
	.st0{fill:#FFD258;}
	.st1{fill:#FF5F7D;}
	.st2{fill:#DAECFF;}
	.st3{fill:none;stroke:#000000;stroke-miterlimit:10;}
	.st4{fill:#F36B7F;stroke:#000000;stroke-miterlimit:10;}
	.st5{fill:none;stroke:#000000;stroke-width:0.5;stroke-miterlimit:10;}
	.st6{fill:#FFCF47;stroke:#020202;stroke-miterlimit:10;}
	.st7{fill:#D6B154;}
	.st8{fill:#73B7A4;stroke:#020202;stroke-miterlimit:10;}
	.st9{fill:#5DA08B;}
	.st10{fill:#FFD258;stroke:#0A0A0A;stroke-width:0.75;stroke-miterlimit:10;}
	.st11{fill:#FEF0E1;}
	.st12{fill:#ADCCFF;}
	.st13{fill:none;stroke:#000000;stroke-width:2;stroke-miterlimit:10;}
	.st14{fill:#FFFBF2;}
	.st15{fill:#73B7A4;}
	.st16{fill:#98BFFF;}
	.st17{fill:#FFD258;stroke:#000000;stroke-width:2;stroke-miterlimit:10;}
	.st18{opacity:0.88;fill:#98BFFF;}
	.st19{opacity:0.75;fill:#FFFBF2;}
	.st20{opacity:0.88;fill:#719BD8;}
	.st21{opacity:0.75;fill:#EAD9B7;}
	.st22{fill:none;stroke:#070707;stroke-miterlimit:10;}
	.st23{fill:#FEF0E1;stroke:#070707;stroke-miterlimit:10;}
	.st24{opacity:0.43;fill:#7F3B48;}
	.st25{fill:#D3A533;}
	.st26{fill:#C1962B;}
	.st27{fill:#FFB5C0;stroke:#020202;stroke-miterlimit:10;}
	.st28{fill:#FF8E9E;}
	.st29{fill:#FF8E9E;stroke:#000000;stroke-miterlimit:10;}
	.st30{fill:#EA5B70;}
	.st31{fill:#020202;}
	.st32{fill:#FFD258;stroke:#050505;stroke-width:0.5;stroke-miterlimit:10;}
	.st33{fill:#FEF0E1;stroke:#020202;stroke-width:0.5;stroke-miterlimit:10;}
	.st34{fill:#DDB143;}
	.st35{fill:#D6AF8B;}
	.st36{fill:#FBCEC6;}
	.st37{fill:#FFFBF2;stroke:#020202;stroke-width:2;stroke-miterlimit:10;}
	.st38{fill:#FF5F7D;stroke:#020202;stroke-width:2;stroke-miterlimit:10;}
	.st39{fill:#FFFFFF;}
	.st40{fill:#ADCCFF;stroke:#020202;stroke-width:2;stroke-miterlimit:10;}
	.st41{fill:#FFD258;stroke:#050505;stroke-width:2;stroke-miterlimit:10;}
	.st42{fill:#85AAE0;}
	.st43{fill:#C99E32;}
	.st44{fill:#FF5F7D;stroke:#050505;stroke-width:2;stroke-miterlimit:10;}
	.st45{fill:#DBA92C;}
	.st46{fill:#73B7A4;stroke:#020202;stroke-width:2;stroke-miterlimit:10;}
	.st47{fill:#FFCF47;stroke:#020202;stroke-width:2;stroke-miterlimit:10;}
	.st48{fill:#99C6B8;}
	.st49{fill:#E2B23B;}
	.st50{fill:#C11A3E;}
	.st51{fill:#FEF0E1;stroke:#020202;stroke-miterlimit:10;}
	.st52{fill:#ADCCFF;stroke:#020202;stroke-miterlimit:10;}
	.st53{fill:#FFD258;stroke:#0C0C0C;stroke-width:0.75;stroke-miterlimit:10;}
	.st54{fill:#ADCCFF;stroke:#050505;stroke-width:2;stroke-miterlimit:10;}
	.st55{fill:#73B7A4;stroke:#050505;stroke-width:2;stroke-miterlimit:10;}
	.st56{fill:#FFFBF2;stroke:#050505;stroke-width:2;stroke-miterlimit:10;}
	.st57{fill:#FEF0E1;stroke:#020202;stroke-width:2;stroke-miterlimit:10;}
	.st58{fill:#D8A830;}
	.st59{fill:#FF5F7D;stroke:#050505;stroke-miterlimit:10;}
	.st60{fill:#E8D2BF;}
	.st61{fill:#FFD258;stroke:#0A0A0A;stroke-width:2;stroke-miterlimit:10;}
	.st62{fill:#D8AB3A;}
	.st63{fill:#FFD258;stroke:#050505;stroke-miterlimit:10;}
	.st64{fill:#FBCEC6;stroke:#070707;stroke-miterlimit:10;}
	.st65{fill:#D84161;}
	.st66{fill:#FFD258;stroke:#0A0A0A;stroke-miterlimit:10;}
	.st67{fill:#FFD258;stroke:#0A0A0A;stroke-width:3;stroke-miterlimit:10;}
	.st68{fill:none;stroke:#0A0A0A;stroke-width:3;stroke-miterlimit:10;}
	.st69{fill:none;stroke:#0A0A0A;stroke-width:2;stroke-miterlimit:10;}
	.st70{fill:#FF5F7D;stroke:#000000;stroke-miterlimit:10;}
	.st71{fill:#FFD258;stroke:#000000;stroke-miterlimit:10;}
	.st72{fill:#FF5F7D;stroke:#050505;stroke-width:0.75;stroke-miterlimit:10;}
	.st73{fill:#FEF0E1;stroke:#020202;stroke-width:0.75;stroke-miterlimit:10;}
	.st74{fill:#FF5F7D;stroke:#050505;stroke-width:0.25;stroke-miterlimit:10;}
	.st75{fill:#73B7A4;stroke:#020202;stroke-width:0.25;stroke-miterlimit:10;}
	.st76{fill:#FBCEC6;stroke:#020202;stroke-miterlimit:10;}
	.st77{fill:#73B7A4;stroke:#020202;stroke-width:0.75;stroke-miterlimit:10;}
	.st78{fill:#73B7A4;stroke:#070707;stroke-miterlimit:10;}
	.st79{fill:#FFFBF2;stroke:#070707;stroke-miterlimit:10;}
	.st80{fill:#E2B139;}
	.st81{fill:#FFFBF2;stroke:#020202;stroke-miterlimit:10;}
	.st82{fill:#ADCCFF;stroke:#020202;stroke-width:0.75;stroke-miterlimit:10;}
	.st83{fill:#FFFBF2;stroke:#020202;stroke-width:0.75;stroke-miterlimit:10;}
	.st84{fill:#FFD258;stroke:#050505;stroke-width:0.75;stroke-miterlimit:10;}
	.st85{fill:#FBCEC6;stroke:#020202;stroke-width:0.75;stroke-miterlimit:10;}
	.st86{fill:#73B7A4;stroke:#050505;stroke-miterlimit:10;}
	.st87{fill:#73B7A4;stroke:#050505;stroke-width:0.75;stroke-miterlimit:10;}
	.st88{fill:#E2C2A6;}
	.st89{fill:#DBC69E;}
	.st90{fill:#E0B344;}
	.st91{fill:#E0AE32;}
	.st92{fill:#4F9982;}
	.st93{fill:#DDBA9B;}
	.st94{fill:#C6961E;}
	.st95{fill:#FF5F7D;stroke:#000000;stroke-width:0.75;stroke-miterlimit:10;}
	.st96{fill:#FFD258;stroke:#000000;stroke-width:0.75;stroke-miterlimit:10;}
</style>
<path class="st2" d="M344.3,443H111.1C67.6,443,32,407.4,32,363.8V130.6c0-43.5,35.6-79.2,79.2-79.2h233.2
	c43.5,0,79.2,35.6,79.2,79.2v233.2C423.5,407.4,387.9,443,344.3,443z"/>
<g id="ijbmXy.tif">
	<g>
		<path class="st39" d="M190.5,308.9c5.3-9.1,10.2-17.2,14.7-25.5c1.7-3.2,3.8-4.4,7.5-4.3c13.3,0.2,26.7,0.1,40.1,0.1
			c18.1,0.1,20.7-2.5,20.7-20.3c0-7.8,0-15.7,0-23.5c0-5.2,0-10.4,0-14.6c-11.9-2-22.9-3.7-32.4-5.3c-2.9,1.3-5.1,2.8-7.4,3.1
			c-3.5,0.5-7.2,0-10.8,0.2c-3.9,0.2-5.3-1.3-5.1-5.2c0.2-5.9,0.1-11.7,0.1-18.1c-19.8,0-38.9-0.3-57.9,0.1c-6.6,0.1-11,5.6-11,12.5
			c-0.1,19.5-0.2,39,0,58.5c0.1,6.8,4.7,11.7,11.3,12.3c2.5,0.3,5.1,0.4,7.6,0.1c4.1-0.5,6.5,1,8.5,4.8
			C180.5,292.1,185.4,300,190.5,308.9z M278.5,187.7c0-0.9,0-1.7,0-2.6c2.2,0,4.6,0.5,6.6-0.1c2.2-0.7,5.7-2.2,6-3.7
			c0.7-4.4-3.2-4-6.2-4c-6.7-0.1-13.4,0-21.5,0c1.5-4.3,2.9-7.3,3.6-10.4c1-4.9,1.9-9.8,1.9-14.7c0-1.3-3.1-2.7-4.8-4
			c-1,1.4-2.9,2.7-2.9,4.1c-0.8,13.2-8.4,21.1-19.4,26.8c-1.2,0.6-2.7,2.3-2.7,3.6c-0.2,9.5-0.1,18.9-0.1,27.5
			c14.7,9,30,6.5,44.9,6.6c2,0,4-2.5,6-3.9c-2.1-1.3-4-3-6.2-3.7c-2.3-0.7-4.9-0.5-7.4-0.7c0-0.7,0.1-1.5,0.1-2.2
			c3.3,0,6.6,0.5,9.8-0.2c2.2-0.4,4.2-2.4,6.3-3.7c-2-1.4-3.8-3.3-6.1-4c-2.7-0.8-5.8-0.5-8.7-0.7c0-0.7,0-1.4,0.1-2.1
			c3,0,6.1,0.5,9-0.1c2.4-0.5,6.5-2.2,6.6-3.6c0.4-4.6-3.7-4-6.9-4C283.7,187.6,281.1,187.7,278.5,187.7z M220.7,215.5
			c5.3,0,10.2,0,15.1,0c0-13.6,0-26.6,0-39.8c-5.2,0-10,0-15.1,0C220.7,189.2,220.7,202.3,220.7,215.5z"/>
		<path class="st76" d="M190.5,308.9c-5.2-8.9-10-16.8-14.3-25c-2-3.7-4.4-5.3-8.5-4.8c-2.5,0.3-5.1,0.2-7.6-0.1
			c-6.6-0.7-11.3-5.5-11.3-12.3c-0.2-19.5-0.2-39,0-58.5c0.1-6.9,4.4-12.4,11-12.5c19-0.4,38-0.1,57.9-0.1c0,6.4,0.2,12.2-0.1,18.1
			c-0.2,3.9,1.3,5.4,5.1,5.2c3.6-0.2,7.3,0.3,10.8-0.2c2.3-0.3,4.5-1.9,7.4-3.1c9.6,1.6,20.5,3.4,32.4,5.3c0,4.1,0,9.3,0,14.6
			c0,7.8,0,15.7,0,23.5c0.1,17.8-2.6,20.4-20.7,20.3c-13.4,0-26.7,0.1-40.1-0.1c-3.7-0.1-5.7,1.1-7.5,4.3
			C200.7,291.7,195.8,299.8,190.5,308.9z M211,247.5c5.6,0,10.1-4.3,10.2-9.9c0.1-5.8-4.7-10.6-10.4-10.4c-5.5,0.1-10,4.8-9.9,10.3
			C200.9,243,205.5,247.5,211,247.5z M188,237.6c0.1-5.5-4.5-10.2-9.9-10.4c-5.8-0.2-10.5,4.5-10.4,10.3c0.1,5.7,4.4,9.9,10.1,10
			C183.3,247.5,188,243.1,188,237.6z M254.4,237.1c-0.1-5.6-4.6-10-10.2-10c-5.4,0-10.1,4.8-10.2,10.1c0,5.7,4.9,10.4,10.7,10.2
			C250.4,247.3,254.6,242.9,254.4,237.1z"/>
		<path class="st8" d="M278.5,187.7c2.6,0,5.2,0,7.8,0c3.1,0,7.2-0.6,6.9,4c-0.1,1.4-4.1,3.1-6.6,3.6c-2.9,0.6-6,0.1-9,0.1
			c0,0.7,0,1.4-0.1,2.1c2.9,0.2,6-0.1,8.7,0.7c2.2,0.6,4.1,2.6,6.1,4c-2.1,1.3-4,3.2-6.3,3.7c-3.1,0.6-6.5,0.2-9.8,0.2
			c0,0.7-0.1,1.5-0.1,2.2c2.5,0.2,5.1,0,7.4,0.7c2.2,0.7,4.2,2.4,6.2,3.7c-2,1.4-4,3.9-6,3.9c-14.9-0.1-30.2,2.5-44.9-6.6
			c0-8.5-0.1-18,0.1-27.5c0-1.2,1.5-2.9,2.7-3.6c11-5.7,18.7-13.7,19.4-26.8c0.1-1.4,1.9-2.7,2.9-4.1c1.7,1.3,4.8,2.7,4.8,4
			c0,4.9-0.9,9.9-1.9,14.7c-0.6,3.1-2.1,6.1-3.6,10.4c8.1,0,14.8,0,21.5,0c2.9,0,6.8-0.4,6.2,4c-0.2,1.5-3.7,3-6,3.7
			c-2,0.6-4.4,0.1-6.6,0.1C278.5,185.9,278.5,186.8,278.5,187.7z"/>
		<path class="st8" d="M220.7,215.5c0-13.3,0-26.3,0-39.8c5.1,0,9.8,0,15.1,0c0,13.2,0,26.2,0,39.8
			C230.9,215.5,226,215.5,220.7,215.5z"/>
		<path class="st39" d="M211,247.5c-5.5,0-10.1-4.5-10.1-10c0-5.5,4.5-10.2,9.9-10.3c5.7-0.2,10.5,4.7,10.4,10.4
			C221.1,243.2,216.6,247.5,211,247.5z M218.7,237.1c-0.6-4.4-3.1-7.3-7.8-7.3c-4.4,0.1-7.2,2.8-7.3,7.2c-0.1,4.7,2.5,7.7,7.3,7.7
			C215.7,244.9,218.1,241.9,218.7,237.1z"/>
		<path class="st39" d="M188,237.6c-0.1,5.5-4.7,10-10.2,9.9c-5.7-0.1-10-4.3-10.1-10c-0.1-5.9,4.7-10.5,10.4-10.3
			C183.6,227.3,188.1,232.1,188,237.6z M177.9,245c4.8-0.7,7.6-3.4,7.4-8c-0.2-4.6-3.4-7.4-8-7.1c-4.3,0.3-7,3-6.9,7.5
			C170.5,242.2,173.4,244.5,177.9,245z"/>
		<path class="st39" d="M254.4,237.1c0.1,5.7-4.1,10.2-9.7,10.4c-5.8,0.2-10.7-4.5-10.7-10.2c0-5.4,4.8-10.1,10.2-10.1
			C249.8,227.1,254.3,231.6,254.4,237.1z M251.9,236.9c-0.6-4.3-3.1-7.3-7.8-7.1c-4.7,0.2-7.4,3.3-7.2,7.9c0.2,4.3,3,7,7.4,7
			C249.1,244.8,251.5,241.9,251.9,236.9z"/>
		<path class="st81" d="M218.7,237.1c-0.6,4.8-3,7.8-7.8,7.7c-4.8-0.1-7.4-3.1-7.3-7.7c0.1-4.4,3-7.1,7.3-7.2
			C215.6,229.8,218.1,232.7,218.7,237.1z"/>
		<path class="st81" d="M177.9,245c-4.5-0.5-7.4-2.8-7.5-7.6c-0.1-4.5,2.6-7.2,6.9-7.5c4.7-0.3,7.8,2.5,8,7.1
			C185.5,241.6,182.7,244.3,177.9,245z"/>
		<path class="st81" d="M251.9,236.9c-0.4,5-2.8,7.8-7.6,7.9c-4.5,0-7.2-2.7-7.4-7c-0.2-4.6,2.6-7.7,7.2-7.9
			C248.8,229.7,251.3,232.6,251.9,236.9z"/>
	</g>
</g>
</svg>
