<svg id="Calque_1" data-name="Calque 1" xmlns="http://www.w3.org/2000/svg" viewBox="0 0 480 480"><defs><style>.cls-1{fill:#ffd258;}.cls-2,.cls-6{fill:none;stroke:#000;stroke-miterlimit:10;}.cls-2{stroke-width:2px;}.cls-3{fill:#fffbf2;}.cls-4{fill:#ff5f7d;}.cls-5{fill:#73b7a4;}.cls-7{fill:#98bfff;}</style></defs><title>Beautéé</title><rect class="cls-1" x="50.45" y="43.17" width="391.54" height="391.54" rx="79.16" ry="79.16"/><path class="cls-2" d="M219.67,94.57s0,0,.07.22c0-.26.1.91.18.64.08.34.18,1.55.3,1.06.12-.81.26,1.56.41,1.46a4.41,4.41,0,0,1,.52,1.84c.2-.41.41,1.81.63,2.22.23,1.59.47.7.73,2.58.26,1.21.54,2.74.83,2.93a11.5,11.5,0,0,1,.93,3.27,30.13,30.13,0,0,0,1,3.59,16.52,16.52,0,0,1,1.1,3.89c.38.8.78,3.47,1.19,4.2a19.41,19.41,0,0,1,1.27,4.48c.43,1.63.88,3.12,1.34,4.75l1.42,5c.29,1,.59,2.36.88,3.13a13.34,13.34,0,0,1,.91,3.2,12.14,12.14,0,0,0,.93,3.29c.32,2,.64,1.86,1,3.37.32.48.65,3.1,1,3.45a9.15,9.15,0,0,0,1,3.52c.34,1.24.68,2,1,3.6.34.71.69,2.94,1,3.66.35,1.84.7,1.69,1.05,3.72.36,1.23.72,2.39,1.08,3.79s.72,2.46,1.09,3.86l1.11,3.9c.37,1.32.74,2.74,1.12,4s.75,2.84,1.14,4c.38,1.47.76,2.73,1.15,4.06s.77,2.54,1.16,4.11c.39,1.23.78,2.78,1.18,4.15.39,1.54.79,2.92,1.18,4.2.4,1.54.8,2.85,1.2,4.23.4,1.66.81,1.54,1.21,4.26.41,1.57.81,2.89,1.22,4.3.41.6.81,3.53,1.22,4.33.41,1.46.83,3.16,1.24,4.35.41,1.62.82,2.88,1.24,4.38a38.52,38.52,0,0,0,1.24,4.4c.42,1.51.84,3.08,1.26,4.42.41,1.61.83,2.63,1.25,4.43s.84,3,1.26,4.45.84,3.17,1.26,4.45c.42,1.06.84,2.88,1.27,4.46a43.81,43.81,0,0,1,1.26,4.47c.42,1,.85,3,1.27,4.47.42.54.84,1.53,1.26,4.46a18.88,18.88,0,0,1,1.27,4.47c.42,1.54.84,2.68,1.26,4.45s.84,3,1.26,4.45c.42,1.76.84,2.87,1.25,4.43.42,1.32.84,2.87,1.25,4.42.42-.27.84,3.72,1.25,4.39.41.18.83,2.31,1.24,4.38.41.33.82,3.19,1.23,4.36.41,1,.82,2.91,1.23,4.32a39,39,0,0,1,1.22,4.3c.4.37.8,2.8,1.21,4.27.4-.52.8,2.79,1.19,4.23.4.05.8,2.45,1.19,4.19a13.16,13.16,0,0,0,1.18,4.16c.39,1.21.78,2.53,1.16,4.11a35.67,35.67,0,0,1,1.15,4.06c.38,1.65.76,2.69,1.14,4a24,24,0,0,0,1.12,4c.37,1.07.74,2.44,1.11,3.91a17.64,17.64,0,0,1,1.09,3.85c.36,2.44.72,1.62,1.07,3.79a13.57,13.57,0,0,1,1.06,3.73c.35,1.26.69,2.65,1,3.66.34,1.76.68,1.92,1,3.59.33.8.66,3,1,3.53a10.66,10.66,0,0,0,1,3.44c.32,1.06.64,2.1,1,3.37s.63,2.2.94,3.29c.3,2.74.61,2.24.9,3.21s.6.43.89,3.13c.29-.09.58,1.66.86,3,.28.33.56,2.44.83,2.94a10.81,10.81,0,0,1,.81,2.85,10.55,10.55,0,0,0,.78,2.76c.26,1.32.51.25.75,2.65.25,1.59.49,1,.72,2.55a6.48,6.48,0,0,1,.7,2.45c.22,2,.44,1.88.66,2.34.22,2.57.43,2.52.63,2.23.21,1.12.41,1.14.6,2.11s.38,1.31.57,2a11.6,11.6,0,0,0,.53,1.88c.17.87.34,1.85.5,1.76.16,1.08.31.61.46,1.63a10.7,10.7,0,0,0,.43,1.51c.13,0,.26.9.39,1.37s.24.77.35,1.25.21.6.31,1.1c.1,1.1.19.8.28,1,.08.73.16.73.23.83.07,1.42.14-.13.19.68.06.1.11.56.16.54,0,.38.08,1.42.11.38,0-.36.05,1.08.06.24,0-.32,0,.87,0,.08"/><path class="cls-2" d="M309.46,238.15l2.42,86c0,1.36.08,2.68.11,4.08,0,1.24.08,2.53.12,4.08,0,1,.08,3,.11,4.09,0,2,.08,2.36.12,4.09,0,1.46.08,2.92.11,4.09s.08,2.32.12,4.07c0,2.35.07,2.7.11,4,0,2.08.08,1.87.12,4,0,.94.07,3.25.11,4,0,1.33.07,2.33.11,4,0,.45.07,2.91.11,3.92,0,1.23.07,3.17.11,3.86s.07,2.69.11,3.81c0,.66.07,2.52.1,3.74,0,1.5.07,2.56.1,3.67,0,2,.07,2.59.11,3.6,0,1.4.06,1.44.09,3.52,0,.58.07,2.14.1,3.42,0,.7.06,3.21.09,3.34,0,1.93.07,2.53.1,3.23l.08,3.12.1,3.38c0,1.37.06,2,.09,3.23s.06,2.74.09,3.06c0,1.11.05,1.85.08,2.9s0,1.57.07,2.71c0,.53.05,2,.07,2.52,0,1,.05,1.93.07,2.33,0-.35,0,1.72.06,2.12,0,.87,0,.95.05,1.91,0-.11,0,1.85.05,1.68,0,1.05,0,1,0,1.44,0,2.13,0,1.92,0,1.21,0,1,0-.19,0,.95,0,1.54,0,.09,0,.69,0,1,0-.53,0,.42,0-1.16,0,.11,0,.14"/><path class="cls-2" d="M192.71,241.48v30.7a12.68,12.68,0,0,0,0,2.05c0,.09-.07-.14,0,1.47,0,1.89.11,3.72,0,2.12-.07-.65,0,2,0,1.54.09,2.09,0,1.6,0,1.84,0,1.33,0,1.17,0,1.94,0,1.57,0,1.26,0,1.31,0,.8,0,1,0,2.6s0,1.38,0,1.92c0,.1,0,1.92,0,2.09,0,1.06,0,1.72,0,2-.09-1,0,1.62,0,2.09s0,1.65,0,1.94c0,.71-.05.56,0,2.26,0,.37,0,1.52,0,1.93-.05-.15,0,1.35,0,2.35,0,.76,0,1,0,1.8a16.9,16.9,0,0,0,0,2.55c0,.32,0,1.25,0,2.2-.09-1,0,1.15,0,2.22,0-.06,0,.93,0,2.42-.1-1-.09.16,0,2.05,0,1.13,0,1.68,0,2.18a22,22,0,0,0,0,2.33c0,1.14,0,1.41,0,2.32-.06-.43.09,3.22,0,2.23.17,3.81,0,.39,0,1.27.07,1.85-.11-1.16,0,1.17,0-.4-.1-1.69,0,.54,0,1.44-.07-.29,0,1.6,0,1.32-.11-1.44,0,1.18,0,1.45,0,1.15,0,1.18a7.26,7.26,0,0,0,0,1.16c.07,2.77-.08-.67,0,1.07,0-.42-.06-.38,0,.68,0,1.86.06,1.69,0,1.69,0-1-.05-.08,0,1.13a4.22,4.22,0,0,0,0,1.11,11.35,11.35,0,0,0,0,1.24c-.07-1.69,0-1.37,0,1.09,0-.86.11,2.23,0,.79,0,.83.08,2.24,0,1.48,0,1.29-.05.24,0,1.47,0,.78,0,.73,0,.91,0-.55,0,.61,0,1.22,0,1.23,0,1.17,0,1,0,1,0,1.65,0,1.65,0,.74,0,.95,0,.77,0,.85,0,.18,0,.77,0,.87,0-.1,0,1.39,0,.28,0,.73,0,2,0-.61,0-.37,0,1.05a14.41,14.41,0,0,1,0,1.5c0,.46,0-.14,0,.75,0,1.42,0,1.62,0,1.47-.07-.71,0,1.54,0,1.13-.05-.65,0,.95,0,1.16-.12-2,.1,2.5,0,.83,0-.3,0,1.4,0,1.49,0,.38-.06-.69,0,.74,0,0,0,1.39,0,1.41a14.4,14.4,0,0,1,0,2.07c-.11-1.37-.05.21,0,1.4a5.9,5.9,0,0,0,0,.95c0-.56-.11-2.15,0,.51.06,1.75-.08-.09,0,1.72a10,10,0,0,1,0,2.12c0,.57,0,.71,0,1.1-.06-.58,0,1.72,0,1.18.08,2.5,0,2.51,0,2s-.07-.11,0,1.63c-.12-1.82,0,1.21,0,.37,0,.83,0-.07,0,1s0,.46,0,1.2c0,1.87,0,1.55,0,2.07.12,2.64,0,1.15,0,1.54,0,1.35,0,1.89,0,.49.06.65-.09-1.11,0,1.83.13,3.36.1,2.74,0,.8,0,.05,0,0,0,1.38s-.05-1.08,0,1.92,0,1,0,2c0,1.33,0,1.52,0,1.92-.12-1.75-.11-1.52,0-.08,0,3.34,0,1.84,0,1.94.11,3.57-.05.85,0,1.92.09,1.91,0,0,0,.32-.06-1.09-.08,0,0,1.42,0,.71-.05.3,0,1.69,0,.95,0,.37,0,.45a10.45,10.45,0,0,0,0,1.38c-.07-1.3,0,2.59,0,2,0,.84,0,1.4,0,1.4-.06-.73,0,.74,0,2,0,.47,0,.56,0,1.2.06,1.69-.09.88,0,1.59s-.11-1.21,0,1.48c.09,1.12.07,3.13,0,1.6-.05,0-.06-.13,0,1.29,0-1.45-.06.65,0,1.41a5.56,5.56,0,0,1,0,1.31c0,.29.08,2.94,0,1.19.08,3.48,0,1.3,0,1.33,0,1.93,0,.79,0,1.13-.17-2.39,0,.29,0,1.2-.06-.77,0,1.24,0,.73-.12-3,0-.6,0,.08a8.8,8.8,0,0,0,0,1.31c-.14-1.12,0,1,0,.91,0,.86,0-1.21,0,1a7.16,7.16,0,0,0,0,.95c-.15-1.74,0,2.4,0,.73a6.37,6.37,0,0,1,0,1.44c0,.55,0,2.2,0,1.21,0,0-.07-1.29,0,.95,0-.14,0,1.29,0,.69v.42c0,.79,0-2.08,0,.14"/><circle class="cls-3" cx="246.23" cy="121.79" r="18.28"/><circle class="cls-3" cx="212.56" cy="135.1" r="18.28"/><circle class="cls-3" cx="258.39" cy="160.07" r="18.28"/><circle class="cls-3" cx="224.71" cy="173.38" r="18.28"/><path class="cls-4" d="M330.56,259.33c1.62,16.54-8.61,37-18.28,37.08S291.84,275.8,294,259.33c.68-5.21,3.32-10.81,8.6-22,5.88-12.49,7.53-15,9.68-15.06,1.78,0,3.85,1.6,9,12.66C327.09,247.4,330,253.64,330.56,259.33Z"/><circle class="cls-5" cx="312.22" cy="314.68" r="18.28"/><path class="cls-6" d="M304.93,214a24.6,24.6,0,0,1,6.41,9"/><path class="cls-6" d="M318.85,214a24.6,24.6,0,0,0-6.41,9"/><line class="cls-6" x1="312.28" y1="222.26" x2="312.44" y2="210.49"/><path class="cls-5" d="M192.71,320.72H148.47a16.94,16.94,0,0,0-.64,1.63,19.43,19.43,0,0,0,.64,13.16c2,4.25,6.25,8.77,11.8,9.57s9.87-2.49,17-8.09A80.42,80.42,0,0,0,192.71,320.72Z"/><path class="cls-5" d="M192.71,320.72h44.23a14.66,14.66,0,0,1,.64,1.63,19.43,19.43,0,0,1-.64,13.16c-2,4.25-6.25,8.77-11.8,9.57s-9.86-2.49-17-8.09A80.42,80.42,0,0,1,192.71,320.72Z"/><path class="cls-5" d="M192.71,320.72h44.23a14.18,14.18,0,0,0,.64-1.64,19.45,19.45,0,0,0-.64-13.16c-2-4.25-6.25-8.76-11.8-9.56s-9.86,2.49-17,8.09A80.42,80.42,0,0,0,192.71,320.72Z"/><path class="cls-5" d="M192.71,320.72H148.47a16.28,16.28,0,0,1-.64-1.64,19.45,19.45,0,0,1,.64-13.16c2-4.25,6.25-8.76,11.8-9.56s9.87,2.49,17,8.09A80.42,80.42,0,0,1,192.71,320.72Z"/><path class="cls-7" d="M207.61,251.36c2.17,10.25-6.59,25-15.47,24.83-8.62-.2-16.32-14.53-14.37-24.83.91-4.76,3.19-5,7.19-12.89,6.27-12.32,6-22.17,7.73-22.09s.19,9.38,5.56,20.3C202.48,245.27,206.38,245.54,207.61,251.36Z"/><path class="cls-7" d="M261,117.45c1.27.16,3,8.23-1,13.4-2,2.59-5.27,4.31-6.08,3.61-.64-.57.57-2.44,3.39-9C260.23,118.8,260.43,117.38,261,117.45Z"/><path class="cls-7" d="M273.55,155.1c1.27.17,3,8.23-1,13.41-2,2.58-5.28,4.31-6.08,3.6-.64-.56.57-2.43,3.39-9C272.8,156.46,273,155,273.55,155.1Z"/><path class="cls-7" d="M227.41,132c1.27.16,3,8.23-1,13.4-2,2.59-5.27,4.31-6.08,3.61-.64-.57.57-2.44,3.39-9C226.66,133.3,226.86,131.88,227.41,132Z"/><path class="cls-7" d="M240,169.6c1.27.17,3,8.23-1,13.41-2,2.58-5.28,4.31-6.08,3.6-.64-.56.57-2.43,3.39-9C239.23,171,239.43,169.54,240,169.6Z"/></svg>