<?xml version="1.0" encoding="utf-8"?>
<!-- Generator: Adobe Illustrator 22.1.0, SVG Export Plug-In . SVG Version: 6.00 Build 0)  -->
<svg version="1.1" id="Calque_1" xmlns="http://www.w3.org/2000/svg" xmlns:xlink="http://www.w3.org/1999/xlink" x="0px" y="0px"
	 viewBox="0 0 700 480" style="enable-background:new 0 0 700 480;" xml:space="preserve">
<style type="text/css">
	.st0{fill:#DAECFF;}
	.st1{fill:#FFD258;}
	.st2{fill:#FBCEC6;}
	.st3{fill:#ADCCFF;}
	.st4{fill:#FF5F7D;}
	.st5{fill:none;stroke:#000000;stroke-width:2;stroke-miterlimit:10;}
	.st6{fill:#FFFBF2;}
	.st7{fill:#73B7A4;}
	.st8{fill:none;stroke:#000000;stroke-miterlimit:10;}
	.st9{fill:#98BFFF;}
	.st10{fill:#FFD258;stroke:#000000;stroke-width:2;stroke-miterlimit:10;}
	.st11{fill:#FEF0E1;stroke:#070707;stroke-miterlimit:10;}
	.st12{fill:#D3A533;}
	.st13{fill:#FFB5C0;stroke:#020202;stroke-miterlimit:10;}
	.st14{fill:#FF8E9E;}
	.st15{fill:#FF8E9E;stroke:#000000;stroke-miterlimit:10;}
	.st16{fill:#EA5B70;}
	.st17{fill:#020202;}
	.st18{fill:#FFD258;stroke:#050505;stroke-width:0.5;stroke-miterlimit:10;}
	.st19{fill:#FEF0E1;stroke:#020202;stroke-width:0.5;stroke-miterlimit:10;}
	.st20{fill:#DDB143;}
	.st21{fill:#D6AF8B;}
	.st22{fill:#FFFBF2;stroke:#020202;stroke-width:2;stroke-miterlimit:10;}
	.st23{fill:#FF5F7D;stroke:#020202;stroke-width:2;stroke-miterlimit:10;}
	.st24{fill:#FFFFFF;}
	.st25{fill:#ADCCFF;stroke:#020202;stroke-width:2;stroke-miterlimit:10;}
	.st26{fill:#FFD258;stroke:#050505;stroke-width:2;stroke-miterlimit:10;}
	.st27{fill:#85AAE0;}
	.st28{fill:#C99E32;}
	.st29{fill:#FFCF47;stroke:#020202;stroke-miterlimit:10;}
	.st30{fill:#FF5F7D;stroke:#050505;stroke-width:2;stroke-miterlimit:10;}
	.st31{fill:#F36B7F;stroke:#000000;stroke-miterlimit:10;}
	.st32{fill:#DBA92C;}
	.st33{fill:#73B7A4;stroke:#020202;stroke-width:2;stroke-miterlimit:10;}
	.st34{fill:#FFCF47;stroke:#020202;stroke-width:2;stroke-miterlimit:10;}
	.st35{fill:#99C6B8;}
	.st36{fill:#E2B23B;}
	.st37{fill:#C11A3E;}
	.st38{fill:#FEF0E1;stroke:#020202;stroke-miterlimit:10;}
	.st39{fill:#ADCCFF;stroke:#020202;stroke-miterlimit:10;}
	.st40{fill:#FFD258;stroke:#0C0C0C;stroke-width:0.75;stroke-miterlimit:10;}
	.st41{fill:#ADCCFF;stroke:#050505;stroke-width:2;stroke-miterlimit:10;}
	.st42{fill:#73B7A4;stroke:#050505;stroke-width:2;stroke-miterlimit:10;}
	.st43{fill:#FFFBF2;stroke:#050505;stroke-width:2;stroke-miterlimit:10;}
	.st44{fill:#FEF0E1;stroke:#020202;stroke-width:2;stroke-miterlimit:10;}
	.st45{fill:#D8A830;}
	.st46{fill:#FF5F7D;stroke:#050505;stroke-miterlimit:10;}
	.st47{fill:#73B7A4;stroke:#020202;stroke-miterlimit:10;}
	.st48{fill:#E8D2BF;}
	.st49{fill:#FFD258;stroke:#0A0A0A;stroke-width:2;stroke-miterlimit:10;}
	.st50{fill:#D8AB3A;}
	.st51{fill:#FFD258;stroke:#050505;stroke-miterlimit:10;}
	.st52{fill:#FBCEC6;stroke:#070707;stroke-miterlimit:10;}
	.st53{fill:#D84161;}
	.st54{fill:#FFD258;stroke:#0A0A0A;stroke-miterlimit:10;}
	.st55{fill:#FFD258;stroke:#0A0A0A;stroke-width:3;stroke-miterlimit:10;}
	.st56{fill:none;stroke:#0A0A0A;stroke-width:2;stroke-miterlimit:10;}
	.st57{fill:#FF5F7D;stroke:#000000;stroke-miterlimit:10;}
	.st58{fill:#FFD258;stroke:#000000;stroke-miterlimit:10;}
	.st59{fill:#FF5F7D;stroke:#050505;stroke-width:0.75;stroke-miterlimit:10;}
	.st60{fill:#FEF0E1;stroke:#020202;stroke-width:0.75;stroke-miterlimit:10;}
	.st61{fill:#FF5F7D;stroke:#050505;stroke-width:0.25;stroke-miterlimit:10;}
	.st62{fill:#FFD258;stroke:#0A0A0A;stroke-width:0.75;stroke-miterlimit:10;}
	.st63{fill:#73B7A4;stroke:#020202;stroke-width:0.25;stroke-miterlimit:10;}
	.st64{fill:#FBCEC6;stroke:#020202;stroke-miterlimit:10;}
	.st65{fill:#73B7A4;stroke:#020202;stroke-width:0.75;stroke-miterlimit:10;}
	.st66{fill:#73B7A4;stroke:#070707;stroke-miterlimit:10;}
	.st67{fill:#FFFBF2;stroke:#070707;stroke-miterlimit:10;}
	.st68{fill:#E2B139;}
	.st69{fill:#FFFBF2;stroke:#020202;stroke-miterlimit:10;}
	.st70{fill:#ADCCFF;stroke:#020202;stroke-width:0.75;stroke-miterlimit:10;}
	.st71{fill:#FFFBF2;stroke:#020202;stroke-width:0.75;stroke-miterlimit:10;}
	.st72{fill:#FFD258;stroke:#050505;stroke-width:0.75;stroke-miterlimit:10;}
	.st73{fill:#FBCEC6;stroke:#020202;stroke-width:0.75;stroke-miterlimit:10;}
	.st74{fill:#73B7A4;stroke:#050505;stroke-miterlimit:10;}
	.st75{fill:#73B7A4;stroke:#050505;stroke-width:0.75;stroke-miterlimit:10;}
	.st76{fill:#E2C2A6;}
	.st77{fill:#DBC69E;}
	.st78{fill:#D39C94;}
	.st79{fill:#E0B344;}
	.st80{fill:#E0AE32;}
	.st81{fill:#4F9982;}
	.st82{fill:#DDBA9B;}
	.st83{fill:#FF5F7D;stroke:#000000;stroke-width:0.75;stroke-miterlimit:10;}
	.st84{fill:#FFD258;stroke:#000000;stroke-width:0.75;stroke-miterlimit:10;}
	.st85{fill:none;stroke:#000000;stroke-width:0.5;stroke-miterlimit:10;}
	.st86{opacity:0.43;fill:#7F3B48;}
	.st87{opacity:0.88;fill:#98BFFF;}
	.st88{opacity:0.75;fill:#FFFBF2;}
	.st89{opacity:0.88;fill:#719BD8;}
	.st90{opacity:0.75;fill:#EAD9B7;}
	.st91{fill:#FEF0E1;}
	.st92{fill:none;stroke:#070707;stroke-miterlimit:10;}
	.st93{fill:#C1962B;}
	.st94{fill:#D6B154;}
	.st95{fill:#5DA08B;}
	.st96{fill:#C6961E;}
</style>
<rect x="0.4" y="-1.1" class="st1" width="703.1" height="476.3"/>
<g>
	<g>
		<path class="st42" d="M239.9,213c8.5,6.7,0.6,34.5,9.1,62.9c8.5,28.4,6,41.7,1.2,55.6c-4.8,13.9,6.7,25.8,23.6,24.4
			c16.9-1.4,136.1-7.5,172.9-3.2c36.9,4.2,28-18.7,29.4-36.3c1.4-17.5-17.3-53.2-14.3-70.1c3-16.9,18-60.8,5.5-64.6
			c3.1-25.6-16.1-61.7-114.1-61.1c-85.9,0.5-101.9,40.9-104.9,56.7c-0.8,0.8-1.7,1.7-2.5,2.6C221.2,207.5,231.5,206.3,239.9,213z
			 M353.3,131.9c84.2,0.4,103.3,22.1,106.5,37c-1.2-0.3-2.9-0.5-5.3-0.4c-12.9,0.3-48,9.4-75.2,13c3.2,7.1,7.1,18.9,8.7,35.7
			c0.4,3.7-0.9,7.4-3.4,10.2c-0.7,0.7-1.4,1.4-2.2,1.9c7.1,8.3,10.3,18.1,13.4,27.5c1.3,4,2.6,7.8,4.1,11.5c1,2.4,0.7,5.1-0.7,7.2
			c-2.1,3.1-5.8,4.2-8.4,4.2c-0.1,0-0.1,0-0.2,0c-1.7,1.7-4.1,2.7-6.6,2.8c-1.7,1.6-4,2.5-6.7,2.5c-2.3,0-4.3-0.7-5.9-2.1
			c-4.4,2.5-9.6,1.6-12.2-1.7c-0.3-0.4-0.6-0.9-0.8-1.4c-2.8-0.1-5.2-1.4-6.6-3.6c-1.4-2.2-1.5-4.9-0.3-7.3c5-10.3,5.6-25,6-35.7
			l0.1-1.5l0.3-0.5c0.1-0.4,0.2-0.8,0.3-1.1c-4.3-2.3-7.4-6.7-7.8-11.7c-0.7-8.3-2.9-23.1-9.5-34.5c-18.9,3.5-35.1,12.5-43.8,0.6
			c0,0-15.9-19.3-34.5-15.5C281.1,133,353.3,131.9,353.3,131.9z"/>
		<path class="st62" d="M364.2,223.6c0.8,1.8,1.6,3.7,2.2,5.6c-1.2,0.9-1.5,2.1-1.5,2.8c0,0.1-0.1,0.1-0.1,0.2
			c-0.5,12.4-1.2,27.1-6.7,38.4c-1,2.1,3.7,1.5,4.4,0.1c2.5-5.1,4-10.7,5-16.5c-0.1,7-0.7,14-2.5,20.9c-0.5,2.1,4.2,1.5,4.7-0.4
			c1.2-4.6,1.8-9.1,2.2-13.7c0,3.4-0.2,6.8-0.8,10.3c-0.4,2.4,4.4,1.8,4.7-0.3c0.1-0.4,0.1-0.8,0.2-1.2c0,1.9-0.1,3.8-0.1,5.8
			c0,2.5,4.7,1.9,4.7-0.3c0.1-5.4,0.2-10.8-0.2-16.2c1,4.5,1.7,9.2,1.7,14.4c0,2.2,4.7,1.3,4.7-0.5c-0.1-5-0.7-9.7-1.6-14.2
			c1.4,4.1,2.7,8.3,4.4,12.3c0.8,1.9,5.4,0.5,4.7-1.3c-5.5-13.2-7.7-27.7-17.6-38.5c-0.3-0.4-0.5-0.7-0.8-1
			c-0.5-2.2-1.2-4.3-2.1-6.4h1.2c4,0,7.1-3.2,6.7-7.2c-2.7-28-12-40.7-12-40.7h-24.6c8.9,12.8,11.6,30.8,12.4,40.7
			C357.9,220.1,360.7,223,364.2,223.6z"/>
	</g>
</g>
</svg>
