<svg id="Calque_1" data-name="Calque 1" xmlns="http://www.w3.org/2000/svg" viewBox="0 0 480 480"><defs><style>.cls-1{fill:#adccff;}.cls-2{fill:#fff;}.cls-3{fill:#fef0e1;stroke:#020202;}.cls-3,.cls-4{stroke-miterlimit:10;stroke-width:2px;}.cls-4{fill:#ffd258;stroke:#050505;}</style></defs><title>Beautéé</title><rect class="cls-1" x="36.49" y="47.98" width="391.54" height="391.54" rx="79.16" ry="79.16"/><g id="qKrBz7.tif"><path class="cls-2" d="M161,277.92c-5,5-9.63,9.61-14.21,14.21-1.29,1.3-2.57,2.62-3.75,4C129.51,312,131.11,335,146.7,349.46a38.14,38.14,0,0,0,52.69-1q29.69-29.54,59.22-59.22a26,26,0,0,1,36.45,0c5.28,5.33,10.61,10.6,15.89,15.93a6.6,6.6,0,0,0,5.83,2.19,5.9,5.9,0,0,0,5.05-4.27,6,6,0,0,0-1.78-6.38q-8.1-8.16-16.25-16.27a38.13,38.13,0,0,0-54,.06q-29.57,29.46-59,59a26.1,26.1,0,0,1-35,1.46c-10.6-9.06-12.87-24.76-4.4-35.25,5.42-6.69,11.89-12.53,18.16-19,1.37,1.45,2.47,2.68,3.63,3.84,3.36,3.35,6.27,3.53,9.91.64l80-63.63c.56-.44,1.06-1,1.47-1.33l-43.49-43.47c-.38.44-.92,1.05-1.43,1.69q-7.69,9.52-15.37,19.06Q180,233.56,155.78,263.63c-3.12,3.87-3,6.54.54,10.06C157.73,275.09,159.26,276.38,161,277.92Zm151-101.64A41.14,41.14,0,0,0,274,135.57c-21.35-1.63-41.75,15.11-43.39,36.47a4.64,4.64,0,0,0,1.12,3.25q20.15,20.34,40.48,40.49a4.26,4.26,0,0,0,3,1A40.75,40.75,0,0,0,311.94,176.28Z"/><path class="cls-3" d="M161,277.92c-1.7-1.54-3.23-2.83-4.64-4.23-3.51-3.52-3.66-6.19-.54-10.06Q180,233.56,204.25,203.5q7.68-9.52,15.37-19.06c.51-.64,1-1.25,1.43-1.69l43.49,43.47c-.41.37-.91.89-1.47,1.33l-80,63.63c-3.64,2.89-6.55,2.71-9.91-.64-1.16-1.16-2.26-2.39-3.63-3.84-6.27,6.5-12.74,12.34-18.16,19-8.47,10.49-6.2,26.19,4.4,35.25a26.1,26.1,0,0,0,35-1.46q29.49-29.56,59-59a38.13,38.13,0,0,1,54-.06q8.16,8.1,16.25,16.27a6,6,0,0,1,1.78,6.38,5.9,5.9,0,0,1-5.05,4.27,6.6,6.6,0,0,1-5.83-2.19c-5.28-5.33-10.61-10.6-15.89-15.93a26,26,0,0,0-36.45,0Q229,318.87,199.39,348.43a38.14,38.14,0,0,1-52.69,1C131.11,335,129.51,312,143,296.15c1.18-1.4,2.46-2.72,3.75-4C151.33,287.53,155.93,283,161,277.92Z"/><path class="cls-4" d="M311.94,176.28a40.75,40.75,0,0,1-36.7,40.53,4.26,4.26,0,0,1-3-1q-20.32-20.16-40.48-40.49a4.64,4.64,0,0,1-1.12-3.25c1.64-21.36,22-38.1,43.39-36.47A41.14,41.14,0,0,1,311.94,176.28Z"/></g></svg>