<?xml version="1.0" encoding="utf-8"?>
<!-- Generator: Adobe Illustrator 22.1.0, SVG Export Plug-In . SVG Version: 6.00 Build 0)  -->
<svg version="1.1" id="Calque_1" xmlns="http://www.w3.org/2000/svg" xmlns:xlink="http://www.w3.org/1999/xlink" x="0px" y="0px"
	 viewBox="0 0 700 480" style="enable-background:new 0 0 700 480;" xml:space="preserve">
<style type="text/css">
	.st0{fill:#DAECFF;}
	.st1{fill:#FFD258;}
	.st2{fill:#FBCEC6;}
	.st3{fill:#ADCCFF;}
	.st4{fill:#FF5F7D;}
	.st5{fill:none;stroke:#000000;stroke-width:2;stroke-miterlimit:10;}
	.st6{fill:#FFFBF2;}
	.st7{fill:#73B7A4;}
	.st8{fill:none;stroke:#000000;stroke-miterlimit:10;}
	.st9{fill:#98BFFF;}
	.st10{fill:#FFD258;stroke:#000000;stroke-width:2;stroke-miterlimit:10;}
	.st11{fill:#FEF0E1;stroke:#070707;stroke-miterlimit:10;}
	.st12{fill:#D3A533;}
	.st13{fill:#FFB5C0;stroke:#020202;stroke-miterlimit:10;}
	.st14{fill:#FF8E9E;}
	.st15{fill:#FF8E9E;stroke:#000000;stroke-miterlimit:10;}
	.st16{fill:#EA5B70;}
	.st17{fill:#020202;}
	.st18{fill:#FFD258;stroke:#050505;stroke-width:0.5;stroke-miterlimit:10;}
	.st19{fill:#FEF0E1;stroke:#020202;stroke-width:0.5;stroke-miterlimit:10;}
	.st20{fill:#DDB143;}
	.st21{fill:#D6AF8B;}
	.st22{fill:#FFFBF2;stroke:#020202;stroke-width:2;stroke-miterlimit:10;}
	.st23{fill:#FF5F7D;stroke:#020202;stroke-width:2;stroke-miterlimit:10;}
	.st24{fill:#FFFFFF;}
	.st25{fill:#ADCCFF;stroke:#020202;stroke-width:2;stroke-miterlimit:10;}
	.st26{fill:#FFD258;stroke:#050505;stroke-width:2;stroke-miterlimit:10;}
	.st27{fill:#85AAE0;}
	.st28{fill:#C99E32;}
	.st29{fill:#FFCF47;stroke:#020202;stroke-miterlimit:10;}
	.st30{fill:#FF5F7D;stroke:#050505;stroke-width:2;stroke-miterlimit:10;}
	.st31{fill:#F36B7F;stroke:#000000;stroke-miterlimit:10;}
	.st32{fill:#DBA92C;}
	.st33{fill:#73B7A4;stroke:#020202;stroke-width:2;stroke-miterlimit:10;}
	.st34{fill:#FFCF47;stroke:#020202;stroke-width:2;stroke-miterlimit:10;}
	.st35{fill:#99C6B8;}
	.st36{fill:#E2B23B;}
	.st37{fill:#C11A3E;}
	.st38{fill:#FEF0E1;stroke:#020202;stroke-miterlimit:10;}
	.st39{fill:#ADCCFF;stroke:#020202;stroke-miterlimit:10;}
	.st40{fill:#FFD258;stroke:#0C0C0C;stroke-width:0.75;stroke-miterlimit:10;}
	.st41{fill:#ADCCFF;stroke:#050505;stroke-width:2;stroke-miterlimit:10;}
	.st42{fill:#73B7A4;stroke:#050505;stroke-width:2;stroke-miterlimit:10;}
	.st43{fill:#FFFBF2;stroke:#050505;stroke-width:2;stroke-miterlimit:10;}
	.st44{fill:#FEF0E1;stroke:#020202;stroke-width:2;stroke-miterlimit:10;}
	.st45{fill:#D8A830;}
	.st46{fill:#FF5F7D;stroke:#050505;stroke-miterlimit:10;}
	.st47{fill:#73B7A4;stroke:#020202;stroke-miterlimit:10;}
	.st48{fill:#E8D2BF;}
	.st49{fill:#FFD258;stroke:#0A0A0A;stroke-width:2;stroke-miterlimit:10;}
	.st50{fill:#D8AB3A;}
	.st51{fill:#FFD258;stroke:#050505;stroke-miterlimit:10;}
	.st52{fill:#FBCEC6;stroke:#070707;stroke-miterlimit:10;}
	.st53{fill:#D84161;}
	.st54{fill:#FFD258;stroke:#0A0A0A;stroke-miterlimit:10;}
	.st55{fill:#FFD258;stroke:#0A0A0A;stroke-width:3;stroke-miterlimit:10;}
	.st56{fill:none;stroke:#0A0A0A;stroke-width:2;stroke-miterlimit:10;}
	.st57{fill:#FF5F7D;stroke:#000000;stroke-miterlimit:10;}
	.st58{fill:#FFD258;stroke:#000000;stroke-miterlimit:10;}
	.st59{fill:#FF5F7D;stroke:#050505;stroke-width:0.75;stroke-miterlimit:10;}
	.st60{fill:#FEF0E1;stroke:#020202;stroke-width:0.75;stroke-miterlimit:10;}
	.st61{fill:#FF5F7D;stroke:#050505;stroke-width:0.25;stroke-miterlimit:10;}
	.st62{fill:#FFD258;stroke:#0A0A0A;stroke-width:0.75;stroke-miterlimit:10;}
	.st63{fill:#73B7A4;stroke:#020202;stroke-width:0.25;stroke-miterlimit:10;}
	.st64{fill:#FBCEC6;stroke:#020202;stroke-miterlimit:10;}
	.st65{fill:#73B7A4;stroke:#020202;stroke-width:0.75;stroke-miterlimit:10;}
	.st66{fill:#73B7A4;stroke:#070707;stroke-miterlimit:10;}
	.st67{fill:#FFFBF2;stroke:#070707;stroke-miterlimit:10;}
	.st68{fill:#E2B139;}
	.st69{fill:#FFFBF2;stroke:#020202;stroke-miterlimit:10;}
	.st70{fill:#ADCCFF;stroke:#020202;stroke-width:0.75;stroke-miterlimit:10;}
	.st71{fill:#FFFBF2;stroke:#020202;stroke-width:0.75;stroke-miterlimit:10;}
	.st72{fill:#FFD258;stroke:#050505;stroke-width:0.75;stroke-miterlimit:10;}
	.st73{fill:#FBCEC6;stroke:#020202;stroke-width:0.75;stroke-miterlimit:10;}
	.st74{fill:#73B7A4;stroke:#050505;stroke-miterlimit:10;}
	.st75{fill:#73B7A4;stroke:#050505;stroke-width:0.75;stroke-miterlimit:10;}
	.st76{fill:#E2C2A6;}
	.st77{fill:#DBC69E;}
	.st78{fill:#D39C94;}
	.st79{fill:#E0B344;}
	.st80{fill:#E0AE32;}
	.st81{fill:#4F9982;}
	.st82{fill:#DDBA9B;}
	.st83{fill:#FF5F7D;stroke:#000000;stroke-width:0.75;stroke-miterlimit:10;}
	.st84{fill:#FFD258;stroke:#000000;stroke-width:0.75;stroke-miterlimit:10;}
	.st85{fill:none;stroke:#000000;stroke-width:0.5;stroke-miterlimit:10;}
	.st86{opacity:0.43;fill:#7F3B48;}
	.st87{opacity:0.88;fill:#98BFFF;}
	.st88{opacity:0.75;fill:#FFFBF2;}
	.st89{opacity:0.88;fill:#719BD8;}
	.st90{opacity:0.75;fill:#EAD9B7;}
	.st91{fill:#FEF0E1;}
	.st92{fill:none;stroke:#070707;stroke-miterlimit:10;}
	.st93{fill:#C1962B;}
	.st94{fill:#D6B154;}
	.st95{fill:#5DA08B;}
	.st96{fill:#C6961E;}
</style>
<rect x="2.9" y="-1.8" class="st2" width="700" height="477.8"/>
<g id="AIGERG.tif">
	<g>
		<path class="st24" d="M390.2,259.8c0-8.8,0.5-16.6-0.1-24.4c-1.5-19.9-10.4-36-26.6-47.5c-20.6-14.5-43-16.7-65.8-5.5
			c-23.6,11.5-35.7,31.2-36.7,57.4c-0.5,14.3,0.2,28.7-0.3,43c-0.2,4.4-1.3,10-4.1,12.9c-6.8,6.9-7.6,14.8-7.6,23.6
			c0,7.2,2.8,9.8,9.7,9.7c19.3-0.2,38.6,0,57.9-0.1c1.4,0,2.9-0.4,5-0.7c-4.1-15.5-0.6-28.9,11.5-38.3c7-5.4,13-10.8,18.2-18.1
			C360.5,259,374.2,256.5,390.2,259.8z M402.9,294c-0.3-1.8-0.5-2.8-0.8-3.8c-3.1-12.6-11.2-19.7-22.8-20c-11.9-0.3-20,6.5-24,19.4
			c-0.6,2-3.5,3.9-5.7,4.6c-10.4,3.3-17.2,11.3-17.8,21.4c-0.8,14.8,9.2,25,25.5,25.2c23.7,0.2,47.5,0.1,71.2,0
			c2.8,0,5.7-0.4,8.5-1.2c11.7-3.4,16.2-16.3,9.3-26.3c-5.1-7.4-12.3-8.9-20.9-7C421.2,296.6,413.9,292.3,402.9,294z M352.8,168.7
			c4.7-14.1,3.3-15.6-10.1-16.8c-4.6-0.4-9.8-2.1-13.4-4.9c-8.1-6.3-17.2-7.1-26.6-6.3c-2.1,0.2-5.5,2.7-5.6,4.3
			c-0.4,7.7,0.1,15.5,0.3,24.2C317.2,162.6,334.9,162.7,352.8,168.7z M438.3,250.2c-0.7-1.2-1.1-3.3-2.2-3.8
			c-7.3-3.3-12.7-8.3-16.1-15.8c-0.6-1.2-5.6-1.9-7.2-0.8c-1.5,1-1.6,4.7-1.8,7.2c-0.3,3.5-0.2,7,0,10.5c0.1,2.4-0.1,5.3,1.2,6.9
			c1,1.2,4.1,1,6.2,1c3.8,0.2,7.8-0.6,11.4,0.2C434.8,256.9,437.1,254.9,438.3,250.2z M440,276.1c-4-2.9-6.3-5.9-8-5.5
			c-2.3,0.5-4.1,3.4-6.1,5.3c1.8,1.9,3.5,5.1,5.3,5.2C433.5,281.2,435.9,278.7,440,276.1z"/>
		<path class="st54" d="M390.2,259.8c-16-3.3-29.7-0.9-38.8,12.1c-5.2,7.3-11.2,12.7-18.2,18.1c-12.2,9.4-15.7,22.8-11.5,38.3
			c-2.1,0.3-3.6,0.7-5,0.7c-19.3,0-38.6-0.1-57.9,0.1c-6.9,0.1-9.7-2.5-9.7-9.7c0-8.9,0.9-16.7,7.6-23.6c2.8-2.9,4-8.5,4.1-12.9
			c0.5-14.3-0.2-28.7,0.3-43c0.9-26.2,13.1-45.9,36.7-57.4c22.7-11.1,45.2-9,65.8,5.5c16.2,11.4,25.1,27.6,26.6,47.5
			C390.7,243.2,390.2,251,390.2,259.8z"/>
		<path class="st46" d="M402.9,294c11-1.7,18.3,2.6,22.5,12.2c8.6-1.9,15.8-0.3,20.9,7c6.9,10,2.4,22.9-9.3,26.3
			c-2.7,0.8-5.6,1.2-8.5,1.2c-23.7,0.1-47.5,0.2-71.2,0c-16.2-0.2-26.2-10.3-25.5-25.2c0.5-10,7.4-18,17.8-21.4
			c2.2-0.7,5.1-2.6,5.7-4.6c4-12.9,12.1-19.7,24-19.4c11.5,0.3,19.6,7.4,22.8,20C402.4,291.2,402.6,292.2,402.9,294z"/>
		<path class="st54" d="M352.8,168.7c-18-6-35.6-6.1-55.4,0.6c-0.2-8.7-0.7-16.5-0.3-24.2c0.1-1.6,3.5-4.1,5.6-4.3
			c9.4-0.8,18.5-0.1,26.6,6.3c3.6,2.8,8.8,4.6,13.4,4.9C356.2,153,357.5,154.6,352.8,168.7z"/>
		<path class="st46" d="M438.3,250.2c-1.3,4.7-3.5,6.6-8.5,5.5c-3.6-0.8-7.6-0.1-11.4-0.2c-2.2-0.1-5.2,0.2-6.2-1
			c-1.3-1.6-1.1-4.5-1.2-6.9c-0.2-3.5-0.3-7,0-10.5c0.2-2.5,0.3-6.2,1.8-7.2c1.6-1.1,6.7-0.5,7.2,0.8c3.4,7.5,8.8,12.4,16.1,15.8
			C437.2,247,437.6,249,438.3,250.2z"/>
		<path class="st46" d="M440,276.1c-4.2,2.6-6.5,5.1-8.7,5c-1.9-0.1-3.6-3.4-5.3-5.2c2-1.9,3.8-4.9,6.1-5.3
			C433.7,270.2,436,273.2,440,276.1z"/>
	</g>
</g>
</svg>
