<?xml version="1.0" encoding="utf-8"?>
<!-- Generator: Adobe Illustrator 22.1.0, SVG Export Plug-In . SVG Version: 6.00 Build 0)  -->
<svg version="1.1" id="Calque_1" xmlns="http://www.w3.org/2000/svg" xmlns:xlink="http://www.w3.org/1999/xlink" x="0px" y="0px"
	 viewBox="0 0 700 480" style="enable-background:new 0 0 700 480;" xml:space="preserve">
<style type="text/css">
	.st0{fill:#DAECFF;}
	.st1{fill:#FFD258;}
	.st2{fill:#FBCEC6;}
	.st3{fill:#ADCCFF;}
	.st4{fill:#FF5F7D;}
	.st5{fill:none;stroke:#000000;stroke-width:2;stroke-miterlimit:10;}
	.st6{fill:#FFFBF2;}
	.st7{fill:#73B7A4;}
	.st8{fill:none;stroke:#000000;stroke-miterlimit:10;}
	.st9{fill:#98BFFF;}
	.st10{fill:#FFD258;stroke:#000000;stroke-width:2;stroke-miterlimit:10;}
	.st11{fill:#FEF0E1;stroke:#070707;stroke-miterlimit:10;}
	.st12{fill:#D3A533;}
	.st13{fill:#FFB5C0;stroke:#020202;stroke-miterlimit:10;}
	.st14{fill:#FF8E9E;}
	.st15{fill:#FF8E9E;stroke:#000000;stroke-miterlimit:10;}
	.st16{fill:#EA5B70;}
	.st17{fill:#020202;}
	.st18{fill:#FFD258;stroke:#050505;stroke-width:0.5;stroke-miterlimit:10;}
	.st19{fill:#FEF0E1;stroke:#020202;stroke-width:0.5;stroke-miterlimit:10;}
	.st20{fill:#DDB143;}
	.st21{fill:#D6AF8B;}
	.st22{fill:#FFFBF2;stroke:#020202;stroke-width:2;stroke-miterlimit:10;}
	.st23{fill:#FF5F7D;stroke:#020202;stroke-width:2;stroke-miterlimit:10;}
	.st24{fill:#FFFFFF;}
	.st25{fill:#ADCCFF;stroke:#020202;stroke-width:2;stroke-miterlimit:10;}
	.st26{fill:#FFD258;stroke:#050505;stroke-width:2;stroke-miterlimit:10;}
	.st27{fill:#85AAE0;}
	.st28{fill:#C99E32;}
	.st29{fill:#FFCF47;stroke:#020202;stroke-miterlimit:10;}
	.st30{fill:#FF5F7D;stroke:#050505;stroke-width:2;stroke-miterlimit:10;}
	.st31{fill:#F36B7F;stroke:#000000;stroke-miterlimit:10;}
	.st32{fill:#DBA92C;}
	.st33{fill:#73B7A4;stroke:#020202;stroke-width:2;stroke-miterlimit:10;}
	.st34{fill:#FFCF47;stroke:#020202;stroke-width:2;stroke-miterlimit:10;}
	.st35{fill:#99C6B8;}
	.st36{fill:#E2B23B;}
	.st37{fill:#C11A3E;}
	.st38{fill:#FEF0E1;stroke:#020202;stroke-miterlimit:10;}
	.st39{fill:#ADCCFF;stroke:#020202;stroke-miterlimit:10;}
	.st40{fill:#FFD258;stroke:#0C0C0C;stroke-width:0.75;stroke-miterlimit:10;}
	.st41{fill:#ADCCFF;stroke:#050505;stroke-width:2;stroke-miterlimit:10;}
	.st42{fill:#73B7A4;stroke:#050505;stroke-width:2;stroke-miterlimit:10;}
	.st43{fill:#FFFBF2;stroke:#050505;stroke-width:2;stroke-miterlimit:10;}
	.st44{fill:#FEF0E1;stroke:#020202;stroke-width:2;stroke-miterlimit:10;}
	.st45{fill:#D8A830;}
	.st46{fill:#FF5F7D;stroke:#050505;stroke-miterlimit:10;}
	.st47{fill:#73B7A4;stroke:#020202;stroke-miterlimit:10;}
	.st48{fill:#E8D2BF;}
	.st49{fill:#FFD258;stroke:#0A0A0A;stroke-width:2;stroke-miterlimit:10;}
	.st50{fill:#D8AB3A;}
	.st51{fill:#FFD258;stroke:#050505;stroke-miterlimit:10;}
	.st52{fill:#FBCEC6;stroke:#070707;stroke-miterlimit:10;}
	.st53{fill:#D84161;}
	.st54{fill:#FFD258;stroke:#0A0A0A;stroke-miterlimit:10;}
	.st55{fill:#FFD258;stroke:#0A0A0A;stroke-width:3;stroke-miterlimit:10;}
	.st56{fill:none;stroke:#0A0A0A;stroke-width:2;stroke-miterlimit:10;}
	.st57{fill:#FF5F7D;stroke:#000000;stroke-miterlimit:10;}
	.st58{fill:#FFD258;stroke:#000000;stroke-miterlimit:10;}
	.st59{fill:#FF5F7D;stroke:#050505;stroke-width:0.75;stroke-miterlimit:10;}
	.st60{fill:#FEF0E1;stroke:#020202;stroke-width:0.75;stroke-miterlimit:10;}
	.st61{fill:#FF5F7D;stroke:#050505;stroke-width:0.25;stroke-miterlimit:10;}
	.st62{fill:#FFD258;stroke:#0A0A0A;stroke-width:0.75;stroke-miterlimit:10;}
	.st63{fill:#73B7A4;stroke:#020202;stroke-width:0.25;stroke-miterlimit:10;}
	.st64{fill:#FBCEC6;stroke:#020202;stroke-miterlimit:10;}
	.st65{fill:#73B7A4;stroke:#020202;stroke-width:0.75;stroke-miterlimit:10;}
	.st66{fill:#73B7A4;stroke:#070707;stroke-miterlimit:10;}
	.st67{fill:#FFFBF2;stroke:#070707;stroke-miterlimit:10;}
	.st68{fill:#E2B139;}
	.st69{fill:#FFFBF2;stroke:#020202;stroke-miterlimit:10;}
	.st70{fill:#ADCCFF;stroke:#020202;stroke-width:0.75;stroke-miterlimit:10;}
	.st71{fill:#FFFBF2;stroke:#020202;stroke-width:0.75;stroke-miterlimit:10;}
	.st72{fill:#FFD258;stroke:#050505;stroke-width:0.75;stroke-miterlimit:10;}
	.st73{fill:#FBCEC6;stroke:#020202;stroke-width:0.75;stroke-miterlimit:10;}
	.st74{fill:#73B7A4;stroke:#050505;stroke-miterlimit:10;}
	.st75{fill:#73B7A4;stroke:#050505;stroke-width:0.75;stroke-miterlimit:10;}
	.st76{fill:#E2C2A6;}
	.st77{fill:#DBC69E;}
	.st78{fill:#D39C94;}
	.st79{fill:#E0B344;}
	.st80{fill:#E0AE32;}
	.st81{fill:#4F9982;}
	.st82{fill:#DDBA9B;}
	.st83{fill:#FF5F7D;stroke:#000000;stroke-width:0.75;stroke-miterlimit:10;}
	.st84{fill:#FFD258;stroke:#000000;stroke-width:0.75;stroke-miterlimit:10;}
	.st85{fill:none;stroke:#000000;stroke-width:0.5;stroke-miterlimit:10;}
	.st86{opacity:0.43;fill:#7F3B48;}
	.st87{opacity:0.88;fill:#98BFFF;}
	.st88{opacity:0.75;fill:#FFFBF2;}
	.st89{opacity:0.88;fill:#719BD8;}
	.st90{opacity:0.75;fill:#EAD9B7;}
	.st91{fill:#FEF0E1;}
	.st92{fill:none;stroke:#070707;stroke-miterlimit:10;}
	.st93{fill:#C1962B;}
	.st94{fill:#D6B154;}
	.st95{fill:#5DA08B;}
	.st96{fill:#C6961E;}
</style>
<rect x="6.5" y="2.6" class="st0" width="692.6" height="480"/>
<g id="_x38_EphuD.tif">
	<g>
		<path class="st41" d="M450.5,339.1c0,2.4-1.6,4.6-3.9,5.1c-5,1.1-10,2.2-14.9,3.2c-3,0.6-5.5-1.1-6.1-4.1c-3-14.1-6-28.1-9-42.2
			c-2.8-13.2-5.6-26.4-8.4-39.6c-1.6-7.4-3.2-14.8-4.8-22.3c-1.4-6.5-2.8-13.1-4.2-19.7c-0.1-0.4-0.3-0.9-0.2-1.2
			c0.1-0.4,0.4-1,0.7-1c6.3-1.4,12.7-2.7,19-4.1c1.1-0.2,2.3-0.4,3.4-0.7c1.1-0.4,1.5,0.1,1.7,1.1c0.7,3.5,1.5,7.1,2.2,10.6
			c0.8,3.6,1.5,7.2,2.3,10.8c1.5,6.9,2.9,13.9,4.4,20.8c1.6,7.6,3.3,15.2,4.9,22.8c1.6,7.6,3.2,15.2,4.8,22.8
			c1.6,7.6,3.2,15.1,4.8,22.7c1,4.9,2.1,9.7,3.1,14.6C450.5,338.7,450.5,339,450.5,339.1z"/>
		<path class="st41" d="M274.6,347.5c-2.1-0.4-4.6-0.9-7-1.4c-2.9-0.6-5.7-1.2-8.6-1.9c-2.7-0.6-4.4-3.3-3.9-6
			c2.8-13.4,5.7-26.8,8.5-40.2c2.5-11.6,5-23.2,7.4-34.7c1.9-9.1,3.8-18.3,5.8-27.4c0.5-2.3,1.2-4.5,1.7-6.8c1-4.9,2-9.7,2.9-14.6
			c0.4-2.3,0.4-2.3,2.7-1.9c7.2,1.5,14.4,3.1,21.6,4.6c0.8,0.2,1,0.5,0.8,1.2c-0.6,2.7-1.3,5.4-1.9,8c-0.8,3.9-1.6,7.8-2.3,11.7
			c-0.6,2.7-1.1,5.5-1.7,8.2c-1.6,7.6-3.2,15.2-4.9,22.7c-1.6,7.7-3.3,15.4-4.9,23.2c-1.6,7.6-3.2,15.1-4.8,22.7
			c-1.6,7.6-3.3,15.3-4.9,22.9c-0.4,1.9-0.8,3.7-1.2,5.6C279.3,345.8,277.3,347.5,274.6,347.5z"/>
		<path class="st30" d="M316.9,141.7c3.3,0.1,6.1,1.3,8.2,3.9c0.7,0.8,1.2,1,2.2,0.7c2.2-0.7,4.4-1.4,6.6-2c0.7-0.2,1.1-0.6,1.1-1.4
			c0.3-6.6,4.9-11,11.5-11c4.3,0,8.6,0,12.9,0.1c6.1,0.1,10.8,4.6,11,10.7c0,0.9,0.3,1.4,1.2,1.7c2.2,0.6,4.4,1.3,6.6,2
			c0.9,0.3,1.4,0.2,2.1-0.6c3.9-4.7,10.5-5.4,15.3-1.6c3.5,2.7,6.9,5.5,10.3,8.3c6,4.9,5.7,13.3-0.5,17.8c-0.6,0.4-0.8,0.8-0.7,1.6
			c0.4,2,0.8,4,1.2,6c0.1,0.7,0.5,1,1.3,0.8c1.3-0.3,2.7-0.6,4-0.8c2.7-0.5,5.3,1.1,5.9,3.8c1.6,7.1,3,14.2,4.6,21.3
			c0.2,1.1,0.5,2.2,0.7,3.4c0.2,0.8-0.1,1.1-0.8,1.3c-5.7,1.2-11.5,2.4-17.2,3.6c-1.8,0.4-3.7,0.7-5.5,1.1c-0.7,0.2-1.1,0-1.3-0.8
			c-1.5-7.2-3.1-14.5-4.6-21.7c-0.2-1-0.5-2.1-0.6-3.1c-0.4-2.6,1.2-5,3.7-5.7c1.4-0.3,2.7-0.7,4.1-0.9c0.8-0.1,1-0.5,0.8-1.2
			c-0.4-1.9-0.9-3.8-1.2-5.7c-0.1-0.7-0.5-1.1-1.2-1.1c-2.6-0.1-4.7-1.2-6.7-2.8c-3.2-2.6-6.4-5.2-9.6-7.7c-2.9-2.3-4.4-5.2-4.4-8.9
			c0-0.8-0.3-1.2-1.1-1.5c-2.3-0.7-4.6-1.5-6.9-2.1c-0.5-0.1-1.3,0.1-1.6,0.5c-2.4,2.9-5.4,4.2-9.2,4.2c-4.2,0-8.3,0-12.5,0
			c-3.7,0-6.8-1.3-9.2-4.2c-0.3-0.4-1.1-0.6-1.6-0.5c-2.3,0.6-4.6,1.4-6.9,2.1c-0.8,0.2-1.1,0.7-1.1,1.6c0,3.5-1.4,6.3-4.1,8.5
			c-3.5,2.8-7,5.6-10.5,8.4c-1.7,1.3-3.6,2.2-5.8,2.3c-0.9,0-1.4,0.3-1.5,1.3c-0.3,1.9-0.8,3.7-1.2,5.6c-0.2,0.7,0,1.1,0.8,1.2
			c1.3,0.2,2.6,0.5,3.9,0.9c2.9,0.7,4.5,3.1,3.9,6c-1.3,6.2-2.6,12.5-3.9,18.7c-0.4,1.9-0.9,3.7-1.2,5.6c-0.2,1-0.6,1.2-1.6,1
			c-5.3-1.2-10.6-2.3-15.9-3.4c-2.1-0.4-4.1-0.9-6.2-1.3c-0.9-0.2-1.3-0.5-1-1.4c1.8-8.1,3.5-16.3,5.2-24.4c0.6-2.9,3.2-4.5,6-3.9
			c1.2,0.2,2.5,0.5,3.7,0.8c0.8,0.2,1.2,0,1.4-0.8c0.4-2,0.9-4.1,1.2-6.1c0.1-0.4-0.2-1.1-0.6-1.3c-6.5-4.9-6.6-13-0.3-18.1
			c3.3-2.7,6.6-5.3,10-8C311.9,142.5,314.3,141.6,316.9,141.7z M340.5,141.9c0.1,0,0.2,0.1,0.2,0.1c1.2-0.3,2.4-0.7,3.5-1
			c1.6-0.5,3,0.1,3.5,1.5c0.5,1.5-0.3,2.9-2,3.4c-1.1,0.4-2.2,0.7-3.5,1.1c1.2,1.4,2.6,1.6,4.1,1.6c4.2,0,8.3,0.1,12.5,0
			c0.8,0,1.5,0,2.3-0.3c0.7-0.2,1.4-0.7,2.4-1.2c-0.5-0.3-0.7-0.4-0.8-0.4c-0.9-0.3-1.9-0.6-2.8-0.9c-1.7-0.5-2.5-1.8-2-3.4
			c0.4-1.4,1.9-2,3.5-1.5c1.2,0.4,2.4,0.7,3.9,1.2c-0.2-0.9-0.3-1.4-0.6-1.9c-1.2-2.3-3.1-3.4-5.7-3.4c-4.3,0-8.6,0-12.9,0
			c-0.7,0-1.4,0.1-2,0.3C342,137.8,340.3,139.9,340.5,141.9z M322.5,153.1c-1.9,0.5-3.5,1.1-5.1,1.5c-1.7,0.5-3-0.1-3.4-1.5
			c-0.5-1.5,0.2-2.8,2-3.4c1.4-0.5,2.8-0.9,4.4-1.4c-1.7-1.9-4.8-2.1-7.1-0.4c-3.6,2.8-7.2,5.7-10.7,8.6c-1.2,1-1.9,2.3-2.1,3.8
			c-0.3,1.8,0.4,3.7,1.8,4.5c0.3-1.5,0.7-2.9,1-4.3c0.3-1.1,1-1.8,2-1.8c0.8,0,1.8,0.5,2.4,1.1c0.4,0.5,0.5,1.5,0.4,2.3
			c-0.2,1.5-0.5,3-0.8,4.5c0.1,0.1,0.2,0.2,0.3,0.2c0.7-0.3,1.4-0.5,2-1c3.8-3,7.5-5.9,11.2-9C321.8,156,322.4,154.8,322.5,153.1z
			 M382.9,153.1c0.2,1.8,0.8,3,1.9,3.9c3.6,2.9,7.3,5.9,10.9,8.7c0.6,0.5,1.4,0.7,2.2,1.1c0.1-0.1,0.2-0.2,0.3-0.3
			c-0.3-1.5-0.6-3-0.9-4.4c-0.3-1.7,0.3-3,1.8-3.4c1.4-0.4,2.7,0.6,3.1,2.2c0.3,1.3,0.6,2.6,1,4.2c0.5-0.6,0.8-0.9,1-1.2
			c1.5-2.4,0.9-5.5-1.4-7.5c-1.5-1.3-3.2-2.6-4.8-3.8c-1.9-1.5-3.8-3.1-5.8-4.6c-2.4-1.8-5.7-1.7-7.1,0.2c0.1,0.1,0.3,0.2,0.4,0.3
			c1.4,0.5,2.8,0.9,4.2,1.4c1.4,0.5,2,1.8,1.6,3.2c-0.4,1.2-1.7,2-3,1.6c-0.6-0.1-1.1-0.3-1.7-0.5
			C385.6,153.8,384.4,153.5,382.9,153.1z"/>
	</g>
</g>
</svg>
