<?xml version="1.0" encoding="utf-8"?>
<!-- Generator: Adobe Illustrator 22.1.0, SVG Export Plug-In . SVG Version: 6.00 Build 0)  -->
<svg version="1.1" id="Calque_1" xmlns="http://www.w3.org/2000/svg" xmlns:xlink="http://www.w3.org/1999/xlink" x="0px" y="0px"
	 viewBox="0 0 700 480" style="enable-background:new 0 0 700 480;" xml:space="preserve">
<style type="text/css">
	.st0{fill:#DAECFF;}
	.st1{fill:#FFD258;}
	.st2{fill:#FBCEC6;}
	.st3{fill:#ADCCFF;}
	.st4{fill:#FF5F7D;}
	.st5{fill:none;stroke:#000000;stroke-width:2;stroke-miterlimit:10;}
	.st6{fill:#FFFBF2;}
	.st7{fill:#73B7A4;}
	.st8{fill:none;stroke:#000000;stroke-miterlimit:10;}
	.st9{fill:#98BFFF;}
	.st10{fill:#FFD258;stroke:#000000;stroke-width:2;stroke-miterlimit:10;}
	.st11{fill:#FEF0E1;stroke:#070707;stroke-miterlimit:10;}
	.st12{fill:#D3A533;}
	.st13{fill:#FFB5C0;stroke:#020202;stroke-miterlimit:10;}
	.st14{fill:#FF8E9E;}
	.st15{fill:#FF8E9E;stroke:#000000;stroke-miterlimit:10;}
	.st16{fill:#EA5B70;}
	.st17{fill:#020202;}
	.st18{fill:#FFD258;stroke:#050505;stroke-width:0.5;stroke-miterlimit:10;}
	.st19{fill:#FEF0E1;stroke:#020202;stroke-width:0.5;stroke-miterlimit:10;}
	.st20{fill:#DDB143;}
	.st21{fill:#D6AF8B;}
	.st22{fill:#FFFBF2;stroke:#020202;stroke-width:2;stroke-miterlimit:10;}
	.st23{fill:#FF5F7D;stroke:#020202;stroke-width:2;stroke-miterlimit:10;}
	.st24{fill:#FFFFFF;}
	.st25{fill:#ADCCFF;stroke:#020202;stroke-width:2;stroke-miterlimit:10;}
	.st26{fill:#FFD258;stroke:#050505;stroke-width:2;stroke-miterlimit:10;}
	.st27{fill:#85AAE0;}
	.st28{fill:#C99E32;}
	.st29{fill:#FFCF47;stroke:#020202;stroke-miterlimit:10;}
	.st30{fill:#FF5F7D;stroke:#050505;stroke-width:2;stroke-miterlimit:10;}
	.st31{fill:#F36B7F;stroke:#000000;stroke-miterlimit:10;}
	.st32{fill:#DBA92C;}
	.st33{fill:#73B7A4;stroke:#020202;stroke-width:2;stroke-miterlimit:10;}
	.st34{fill:#FFCF47;stroke:#020202;stroke-width:2;stroke-miterlimit:10;}
	.st35{fill:#99C6B8;}
	.st36{fill:#E2B23B;}
	.st37{fill:#C11A3E;}
	.st38{fill:#FEF0E1;stroke:#020202;stroke-miterlimit:10;}
	.st39{fill:#ADCCFF;stroke:#020202;stroke-miterlimit:10;}
	.st40{fill:#FFD258;stroke:#0C0C0C;stroke-width:0.75;stroke-miterlimit:10;}
	.st41{fill:#ADCCFF;stroke:#050505;stroke-width:2;stroke-miterlimit:10;}
	.st42{fill:#73B7A4;stroke:#050505;stroke-width:2;stroke-miterlimit:10;}
	.st43{fill:#FFFBF2;stroke:#050505;stroke-width:2;stroke-miterlimit:10;}
	.st44{fill:#FEF0E1;stroke:#020202;stroke-width:2;stroke-miterlimit:10;}
	.st45{fill:#D8A830;}
	.st46{fill:#FF5F7D;stroke:#050505;stroke-miterlimit:10;}
	.st47{fill:#73B7A4;stroke:#020202;stroke-miterlimit:10;}
	.st48{fill:#E8D2BF;}
	.st49{fill:#FFD258;stroke:#0A0A0A;stroke-width:2;stroke-miterlimit:10;}
	.st50{fill:#D8AB3A;}
	.st51{fill:#FFD258;stroke:#050505;stroke-miterlimit:10;}
	.st52{fill:#FBCEC6;stroke:#070707;stroke-miterlimit:10;}
	.st53{fill:#D84161;}
	.st54{fill:#FFD258;stroke:#0A0A0A;stroke-miterlimit:10;}
	.st55{fill:#FFD258;stroke:#0A0A0A;stroke-width:3;stroke-miterlimit:10;}
	.st56{fill:none;stroke:#0A0A0A;stroke-width:2;stroke-miterlimit:10;}
	.st57{fill:#FF5F7D;stroke:#000000;stroke-miterlimit:10;}
	.st58{fill:#FFD258;stroke:#000000;stroke-miterlimit:10;}
	.st59{fill:#FF5F7D;stroke:#050505;stroke-width:0.75;stroke-miterlimit:10;}
	.st60{fill:#FEF0E1;stroke:#020202;stroke-width:0.75;stroke-miterlimit:10;}
	.st61{fill:#FF5F7D;stroke:#050505;stroke-width:0.25;stroke-miterlimit:10;}
	.st62{fill:#FFD258;stroke:#0A0A0A;stroke-width:0.75;stroke-miterlimit:10;}
	.st63{fill:#73B7A4;stroke:#020202;stroke-width:0.25;stroke-miterlimit:10;}
	.st64{fill:#FBCEC6;stroke:#020202;stroke-miterlimit:10;}
	.st65{fill:#73B7A4;stroke:#020202;stroke-width:0.75;stroke-miterlimit:10;}
	.st66{fill:#73B7A4;stroke:#070707;stroke-miterlimit:10;}
	.st67{fill:#FFFBF2;stroke:#070707;stroke-miterlimit:10;}
	.st68{fill:#E2B139;}
	.st69{fill:#FFFBF2;stroke:#020202;stroke-miterlimit:10;}
	.st70{fill:#ADCCFF;stroke:#020202;stroke-width:0.75;stroke-miterlimit:10;}
	.st71{fill:#FFFBF2;stroke:#020202;stroke-width:0.75;stroke-miterlimit:10;}
	.st72{fill:#FFD258;stroke:#050505;stroke-width:0.75;stroke-miterlimit:10;}
	.st73{fill:#FBCEC6;stroke:#020202;stroke-width:0.75;stroke-miterlimit:10;}
	.st74{fill:#73B7A4;stroke:#050505;stroke-miterlimit:10;}
	.st75{fill:#73B7A4;stroke:#050505;stroke-width:0.75;stroke-miterlimit:10;}
	.st76{fill:#E2C2A6;}
	.st77{fill:#DBC69E;}
	.st78{fill:#D39C94;}
	.st79{fill:#E0B344;}
	.st80{fill:#E0AE32;}
	.st81{fill:#4F9982;}
	.st82{fill:#DDBA9B;}
	.st83{fill:#FF5F7D;stroke:#000000;stroke-width:0.75;stroke-miterlimit:10;}
	.st84{fill:#FFD258;stroke:#000000;stroke-width:0.75;stroke-miterlimit:10;}
	.st85{fill:none;stroke:#000000;stroke-width:0.5;stroke-miterlimit:10;}
	.st86{opacity:0.43;fill:#7F3B48;}
	.st87{opacity:0.88;fill:#98BFFF;}
	.st88{opacity:0.75;fill:#FFFBF2;}
	.st89{opacity:0.88;fill:#719BD8;}
	.st90{opacity:0.75;fill:#EAD9B7;}
	.st91{fill:#FEF0E1;}
	.st92{fill:none;stroke:#070707;stroke-miterlimit:10;}
	.st93{fill:#C1962B;}
	.st94{fill:#D6B154;}
	.st95{fill:#5DA08B;}
	.st96{fill:#C6961E;}
</style>
<rect x="3.4" y="4.2" class="st3" width="700" height="479.9"/>
<path class="st3" d="M445.2,439.5H203.5c-43.5,0-79.2-35.6-79.2-79.2V127.1c0-43.5,35.6-79.2,79.2-79.2h241.7
	c43.5,0,79.2,35.6,79.2,79.2v233.2C524.3,403.9,488.7,439.5,445.2,439.5z"/>
<g id="qKrBz7.tif">
	<g>
		<path class="st24" d="M271,277.9c-5,5-9.6,9.6-14.2,14.2c-1.3,1.3-2.6,2.6-3.8,4c-13.5,15.9-11.9,38.9,3.7,53.3
			c14.9,13.8,38.2,13.4,52.7-1c19.8-19.7,39.5-39.4,59.2-59.2c9.9-9.9,26.6-10,36.4,0c5.3,5.3,10.6,10.6,15.9,15.9
			c1.6,1.6,3.5,2.5,5.8,2.2c2.6-0.4,4.3-1.9,5.1-4.3c0.8-2.5,0-4.6-1.8-6.4c-5.4-5.4-10.8-10.9-16.3-16.3c-15-14.9-39-14.9-54,0.1
			c-19.7,19.6-39.4,39.3-59,59c-9.4,9.4-24.9,10.1-35,1.5c-10.6-9.1-12.9-24.8-4.4-35.2c5.4-6.7,11.9-12.5,18.2-19
			c1.4,1.5,2.5,2.7,3.6,3.8c3.4,3.3,6.3,3.5,9.9,0.6c26.7-21.2,53.3-42.4,80-63.6c0.6-0.4,1.1-1,1.5-1.3c-14.6-14.6-29-29-43.5-43.5
			c-0.4,0.4-0.9,1.1-1.4,1.7c-5.1,6.4-10.2,12.7-15.4,19.1c-16.2,20-32.3,40.1-48.5,60.1c-3.1,3.9-3,6.5,0.5,10.1
			C267.7,275.1,269.3,276.4,271,277.9z M421.9,176.3c-0.1-22.5-17.8-39.2-37.9-40.7c-21.3-1.6-41.7,15.1-43.4,36.5
			c-0.1,1.1,0.4,2.5,1.1,3.3c13.4,13.6,26.9,27,40.5,40.5c0.7,0.7,2,1.1,3,1C406.2,214.6,421.9,197.2,421.9,176.3z"/>
		<path class="st44" d="M271,277.9c-1.7-1.5-3.2-2.8-4.6-4.2c-3.5-3.5-3.7-6.2-0.5-10.1c16.1-20,32.3-40.1,48.5-60.1
			c5.1-6.4,10.2-12.7,15.4-19.1c0.5-0.6,1.1-1.2,1.4-1.7c14.5,14.5,28.9,28.9,43.5,43.5c-0.4,0.4-0.9,0.9-1.5,1.3
			c-26.7,21.2-53.3,42.4-80,63.6c-3.6,2.9-6.6,2.7-9.9-0.6c-1.2-1.2-2.3-2.4-3.6-3.8c-6.3,6.5-12.7,12.3-18.2,19
			c-8.5,10.5-6.2,26.2,4.4,35.2c10.1,8.6,25.7,7.9,35-1.5c19.7-19.7,39.3-39.4,59-59c15-14.9,38.9-14.9,54-0.1
			c5.4,5.4,10.9,10.8,16.3,16.3c1.8,1.8,2.6,3.9,1.8,6.4c-0.8,2.4-2.5,3.9-5.1,4.3c-2.3,0.3-4.2-0.6-5.8-2.2
			c-5.3-5.3-10.6-10.6-15.9-15.9c-9.9-10-26.5-9.9-36.4,0c-19.7,19.8-39.4,39.5-59.2,59.2c-14.5,14.4-37.8,14.8-52.7,1
			c-15.6-14.4-17.2-37.4-3.7-53.3c1.2-1.4,2.5-2.7,3.8-4C261.3,287.5,265.9,282.9,271,277.9z"/>
		<path class="st26" d="M421.9,176.3c0,20.9-15.7,38.3-36.7,40.5c-1,0.1-2.3-0.3-3-1c-13.6-13.4-27-26.9-40.5-40.5
			c-0.7-0.7-1.2-2.2-1.1-3.3c1.6-21.4,22-38.1,43.4-36.5C404.1,137.1,421.8,153.8,421.9,176.3z"/>
	</g>
</g>
</svg>
