<?xml version="1.0" encoding="utf-8"?>
<!-- Generator: Adobe Illustrator 22.1.0, SVG Export Plug-In . SVG Version: 6.00 Build 0)  -->
<svg version="1.1" id="Calque_1" xmlns="http://www.w3.org/2000/svg" xmlns:xlink="http://www.w3.org/1999/xlink" x="0px" y="0px"
	 viewBox="0 0 700 480" style="enable-background:new 0 0 700 480;" xml:space="preserve">
<style type="text/css">
	.st0{fill:#DAECFF;}
	.st1{fill:#FFD258;}
	.st2{fill:#FBCEC6;}
	.st3{fill:#ADCCFF;}
	.st4{fill:#FF5F7D;}
	.st5{fill:none;stroke:#000000;stroke-width:2;stroke-miterlimit:10;}
	.st6{fill:#FFFBF2;}
	.st7{fill:#73B7A4;}
	.st8{fill:none;stroke:#000000;stroke-miterlimit:10;}
	.st9{fill:#98BFFF;}
	.st10{fill:#FFD258;stroke:#000000;stroke-width:2;stroke-miterlimit:10;}
	.st11{fill:#FEF0E1;stroke:#070707;stroke-miterlimit:10;}
	.st12{fill:#D3A533;}
	.st13{fill:#FFB5C0;stroke:#020202;stroke-miterlimit:10;}
	.st14{fill:#FF8E9E;}
	.st15{fill:#FF8E9E;stroke:#000000;stroke-miterlimit:10;}
	.st16{fill:#EA5B70;}
	.st17{fill:#020202;}
	.st18{fill:#FFD258;stroke:#050505;stroke-width:0.5;stroke-miterlimit:10;}
	.st19{fill:#FEF0E1;stroke:#020202;stroke-width:0.5;stroke-miterlimit:10;}
	.st20{fill:#DDB143;}
	.st21{fill:#D6AF8B;}
	.st22{fill:#FFFBF2;stroke:#020202;stroke-width:2;stroke-miterlimit:10;}
	.st23{fill:#FF5F7D;stroke:#020202;stroke-width:2;stroke-miterlimit:10;}
	.st24{fill:#FFFFFF;}
	.st25{fill:#ADCCFF;stroke:#020202;stroke-width:2;stroke-miterlimit:10;}
	.st26{fill:#FFD258;stroke:#050505;stroke-width:2;stroke-miterlimit:10;}
	.st27{fill:#85AAE0;}
	.st28{fill:#C99E32;}
	.st29{fill:#FFCF47;stroke:#020202;stroke-miterlimit:10;}
	.st30{fill:#FF5F7D;stroke:#050505;stroke-width:2;stroke-miterlimit:10;}
	.st31{fill:#F36B7F;stroke:#000000;stroke-miterlimit:10;}
	.st32{fill:#DBA92C;}
	.st33{fill:#73B7A4;stroke:#020202;stroke-width:2;stroke-miterlimit:10;}
	.st34{fill:#FFCF47;stroke:#020202;stroke-width:2;stroke-miterlimit:10;}
	.st35{fill:#99C6B8;}
	.st36{fill:#E2B23B;}
	.st37{fill:#C11A3E;}
	.st38{fill:#FEF0E1;stroke:#020202;stroke-miterlimit:10;}
	.st39{fill:#ADCCFF;stroke:#020202;stroke-miterlimit:10;}
	.st40{fill:#FFD258;stroke:#0C0C0C;stroke-width:0.75;stroke-miterlimit:10;}
	.st41{fill:#ADCCFF;stroke:#050505;stroke-width:2;stroke-miterlimit:10;}
	.st42{fill:#73B7A4;stroke:#050505;stroke-width:2;stroke-miterlimit:10;}
	.st43{fill:#FFFBF2;stroke:#050505;stroke-width:2;stroke-miterlimit:10;}
	.st44{fill:#FEF0E1;stroke:#020202;stroke-width:2;stroke-miterlimit:10;}
	.st45{fill:#D8A830;}
	.st46{fill:#FF5F7D;stroke:#050505;stroke-miterlimit:10;}
	.st47{fill:#73B7A4;stroke:#020202;stroke-miterlimit:10;}
	.st48{fill:#E8D2BF;}
	.st49{fill:#FFD258;stroke:#0A0A0A;stroke-width:2;stroke-miterlimit:10;}
	.st50{fill:#D8AB3A;}
	.st51{fill:#FFD258;stroke:#050505;stroke-miterlimit:10;}
	.st52{fill:#FBCEC6;stroke:#070707;stroke-miterlimit:10;}
	.st53{fill:#D84161;}
	.st54{fill:#FFD258;stroke:#0A0A0A;stroke-miterlimit:10;}
	.st55{fill:#FFD258;stroke:#0A0A0A;stroke-width:3;stroke-miterlimit:10;}
	.st56{fill:none;stroke:#0A0A0A;stroke-width:2;stroke-miterlimit:10;}
	.st57{fill:#FF5F7D;stroke:#000000;stroke-miterlimit:10;}
	.st58{fill:#FFD258;stroke:#000000;stroke-miterlimit:10;}
	.st59{fill:#FF5F7D;stroke:#050505;stroke-width:0.75;stroke-miterlimit:10;}
	.st60{fill:#FEF0E1;stroke:#020202;stroke-width:0.75;stroke-miterlimit:10;}
	.st61{fill:#FF5F7D;stroke:#050505;stroke-width:0.25;stroke-miterlimit:10;}
	.st62{fill:#FFD258;stroke:#0A0A0A;stroke-width:0.75;stroke-miterlimit:10;}
	.st63{fill:#73B7A4;stroke:#020202;stroke-width:0.25;stroke-miterlimit:10;}
	.st64{fill:#FBCEC6;stroke:#020202;stroke-miterlimit:10;}
	.st65{fill:#73B7A4;stroke:#020202;stroke-width:0.75;stroke-miterlimit:10;}
	.st66{fill:#73B7A4;stroke:#070707;stroke-miterlimit:10;}
	.st67{fill:#FFFBF2;stroke:#070707;stroke-miterlimit:10;}
	.st68{fill:#E2B139;}
	.st69{fill:#FFFBF2;stroke:#020202;stroke-miterlimit:10;}
	.st70{fill:#ADCCFF;stroke:#020202;stroke-width:0.75;stroke-miterlimit:10;}
	.st71{fill:#FFFBF2;stroke:#020202;stroke-width:0.75;stroke-miterlimit:10;}
	.st72{fill:#FFD258;stroke:#050505;stroke-width:0.75;stroke-miterlimit:10;}
	.st73{fill:#FBCEC6;stroke:#020202;stroke-width:0.75;stroke-miterlimit:10;}
	.st74{fill:#73B7A4;stroke:#050505;stroke-miterlimit:10;}
	.st75{fill:#73B7A4;stroke:#050505;stroke-width:0.75;stroke-miterlimit:10;}
	.st76{fill:#E2C2A6;}
	.st77{fill:#DBC69E;}
	.st78{fill:#D39C94;}
	.st79{fill:#E0B344;}
	.st80{fill:#E0AE32;}
	.st81{fill:#4F9982;}
	.st82{fill:#DDBA9B;}
	.st83{fill:#FF5F7D;stroke:#000000;stroke-width:0.75;stroke-miterlimit:10;}
	.st84{fill:#FFD258;stroke:#000000;stroke-width:0.75;stroke-miterlimit:10;}
	.st85{fill:none;stroke:#000000;stroke-width:0.5;stroke-miterlimit:10;}
	.st86{opacity:0.43;fill:#7F3B48;}
	.st87{opacity:0.88;fill:#98BFFF;}
	.st88{opacity:0.75;fill:#FFFBF2;}
	.st89{opacity:0.88;fill:#719BD8;}
	.st90{opacity:0.75;fill:#EAD9B7;}
	.st91{fill:#FEF0E1;}
	.st92{fill:none;stroke:#070707;stroke-miterlimit:10;}
	.st93{fill:#C1962B;}
	.st94{fill:#D6B154;}
	.st95{fill:#5DA08B;}
	.st96{fill:#C6961E;}
</style>
<rect y="2.2" class="st2" width="700" height="477.8"/>
<g id="_x34_U5ewR.tif">
	<g>
		<path class="st41" d="M385.2,233.7c-0.6,13.4-4.6,25.7-11.1,37.3c-5.6,10-12.7,19-21,26.9c-2.5,2.4-5.5,2.6-7.8,0.4
			c-13.5-13-24-27.9-29.4-46.1c-5.4-18.2-2.5-35.5,5.9-52.2c5.9-11.6,13.7-21.9,23.1-30.9c2.3-2.2,5.5-2.4,7.7-0.3
			c14.1,13.6,25,29.2,29.9,48.5C383.9,222.8,384.3,228.3,385.2,233.7z"/>
		<path class="st42" d="M305.7,210.2c-1,5.7-2.2,11.2-2.8,16.8c-1.5,14.4,1.6,28,7.5,41c4.7,10.4,10.9,19.7,18.3,28.4
			c0.5,0.6,1.1,1.2,1.6,1.9c0.1,0.1,0.1,0.3,0.2,0.6c-8.6-1.1-16.8-3.1-24.8-6.2c-24.2-9.3-38-27.4-44.4-51.9
			c-2.7-10.4-3.9-21-3.7-31.7c0.1-3.6,2-5.9,5.6-6c14.5-0.3,28.6,1.8,42.2,6.9C305.5,210.1,305.7,210.3,305.7,210.2z"/>
		<path class="st42" d="M367.4,298.6c1.3-1.6,2.6-3.1,3.9-4.7c10.5-13,18.5-27.3,22.3-43.8c2.8-12.6,2.4-25.1-1.1-37.5
			c-0.2-0.7-0.4-1.4-0.7-2.5c4.2-1.3,8.3-2.6,12.5-3.7c9.7-2.4,19.5-3.4,29.5-3.3c4.7,0,6.6,2,6.6,6.8c0.1,13.4-1.8,26.4-6.2,39.1
			c-8.4,24.2-25.2,39.3-49.6,46.3c-5.6,1.6-11.3,2.6-17,3.9C367.6,299,367.5,298.8,367.4,298.6z"/>
		<path class="st42" d="M360.2,310.7c25.8-2.4,49.4-9.7,68.1-29.8c3.7,3.5,7.6,6.9,11.1,10.6c2,2.2,1.4,4.8-1,7.3
			c-7.4,7.6-15.9,13.8-25.7,18c-8.4,3.6-17.1,5.3-26.3,4.2C376.7,319.9,368.2,316,360.2,310.7z"/>
		<path class="st42" d="M269.7,281c18.6,19.9,42.2,27.3,68.4,29.5c-0.5,0.4-0.7,0.7-1,0.8c-11.2,7-23.2,11.4-36.7,9.8
			c-9.4-1.1-17.9-4.6-25.6-9.9c-5.3-3.6-10.2-7.9-15-12.2c-3.3-2.9-3.2-5.9,0-9C263,286.9,266.4,284,269.7,281z"/>
		<path class="st43" d="M348.9,316.6c6.4,3.7,13,7.5,19.7,11.4c-0.1,0.3-0.4,0.9-0.8,1.6c-4,7.2-9.2,13.4-15,19.2
			c-2.2,2.1-5.4,2.3-7.5,0.2c-6.3-6.1-11.9-12.9-16-20.7c-0.1-0.2-0.1-0.4-0.1-0.3C335.8,324.1,342.4,320.4,348.9,316.6z"/>
		<path class="st30" d="M309.8,199.9c-5.8-1.7-11.6-3.3-17.6-5.1c0.1-0.4,0.1-0.9,0.3-1.4c1.6-4.3,3.1-8.7,4.8-13
			c1.4-3.4,4.2-4.6,7.7-3.1c4.7,2,9.3,4.1,13.9,6.2C315.6,189.3,312.7,194.6,309.8,199.9z"/>
		<path class="st30" d="M405.6,194.9c-5.9,1.7-11.8,3.4-17.5,5c-2.9-5.3-5.8-10.6-8.9-16.3c3.4-1.6,6.8-3.2,10.3-4.8
			c1.4-0.6,2.7-1.2,4.2-1.7c2.6-0.9,5.5,0,6.5,2.4c2,4.9,3.7,9.9,5.6,14.9C405.7,194.6,405.6,194.8,405.6,194.9z"/>
	</g>
</g>
</svg>
