<?xml version="1.0" encoding="utf-8"?>
<!-- Generator: Adobe Illustrator 22.1.0, SVG Export Plug-In . SVG Version: 6.00 Build 0)  -->
<svg version="1.1" id="Calque_1" xmlns="http://www.w3.org/2000/svg" xmlns:xlink="http://www.w3.org/1999/xlink" x="0px" y="0px"
	 viewBox="0 0 700 480" style="enable-background:new 0 0 700 480;" xml:space="preserve">
<style type="text/css">
	.st0{fill:#DAECFF;}
	.st1{fill:#FFD258;}
	.st2{fill:#FBCEC6;}
	.st3{fill:#ADCCFF;}
	.st4{fill:#FF5F7D;}
	.st5{fill:none;stroke:#000000;stroke-width:2;stroke-miterlimit:10;}
	.st6{fill:#FFFBF2;}
	.st7{fill:#73B7A4;}
	.st8{fill:none;stroke:#000000;stroke-miterlimit:10;}
	.st9{fill:#98BFFF;}
	.st10{fill:#FFD258;stroke:#000000;stroke-width:2;stroke-miterlimit:10;}
	.st11{fill:#FEF0E1;stroke:#070707;stroke-miterlimit:10;}
	.st12{fill:#D3A533;}
	.st13{fill:#FFB5C0;stroke:#020202;stroke-miterlimit:10;}
	.st14{fill:#FF8E9E;}
	.st15{fill:#FF8E9E;stroke:#000000;stroke-miterlimit:10;}
	.st16{fill:#EA5B70;}
	.st17{fill:#020202;}
	.st18{fill:#FFD258;stroke:#050505;stroke-width:0.5;stroke-miterlimit:10;}
	.st19{fill:#FEF0E1;stroke:#020202;stroke-width:0.5;stroke-miterlimit:10;}
	.st20{fill:#DDB143;}
	.st21{fill:#D6AF8B;}
	.st22{fill:#FFFBF2;stroke:#020202;stroke-width:2;stroke-miterlimit:10;}
	.st23{fill:#FF5F7D;stroke:#020202;stroke-width:2;stroke-miterlimit:10;}
	.st24{fill:#FFFFFF;}
	.st25{fill:#ADCCFF;stroke:#020202;stroke-width:2;stroke-miterlimit:10;}
	.st26{fill:#FFD258;stroke:#050505;stroke-width:2;stroke-miterlimit:10;}
	.st27{fill:#85AAE0;}
	.st28{fill:#C99E32;}
	.st29{fill:#FFCF47;stroke:#020202;stroke-miterlimit:10;}
	.st30{fill:#FF5F7D;stroke:#050505;stroke-width:2;stroke-miterlimit:10;}
	.st31{fill:#F36B7F;stroke:#000000;stroke-miterlimit:10;}
	.st32{fill:#DBA92C;}
	.st33{fill:#73B7A4;stroke:#020202;stroke-width:2;stroke-miterlimit:10;}
	.st34{fill:#FFCF47;stroke:#020202;stroke-width:2;stroke-miterlimit:10;}
	.st35{fill:#99C6B8;}
	.st36{fill:#E2B23B;}
	.st37{fill:#C11A3E;}
	.st38{fill:#FEF0E1;stroke:#020202;stroke-miterlimit:10;}
	.st39{fill:#ADCCFF;stroke:#020202;stroke-miterlimit:10;}
	.st40{fill:#FFD258;stroke:#0C0C0C;stroke-width:0.75;stroke-miterlimit:10;}
	.st41{fill:#ADCCFF;stroke:#050505;stroke-width:2;stroke-miterlimit:10;}
	.st42{fill:#73B7A4;stroke:#050505;stroke-width:2;stroke-miterlimit:10;}
	.st43{fill:#FFFBF2;stroke:#050505;stroke-width:2;stroke-miterlimit:10;}
	.st44{fill:#FEF0E1;stroke:#020202;stroke-width:2;stroke-miterlimit:10;}
	.st45{fill:#D8A830;}
	.st46{fill:#FF5F7D;stroke:#050505;stroke-miterlimit:10;}
	.st47{fill:#73B7A4;stroke:#020202;stroke-miterlimit:10;}
	.st48{fill:#E8D2BF;}
	.st49{fill:#FFD258;stroke:#0A0A0A;stroke-width:2;stroke-miterlimit:10;}
	.st50{fill:#D8AB3A;}
	.st51{fill:#FFD258;stroke:#050505;stroke-miterlimit:10;}
	.st52{fill:#FBCEC6;stroke:#070707;stroke-miterlimit:10;}
	.st53{fill:#D84161;}
	.st54{fill:#FFD258;stroke:#0A0A0A;stroke-miterlimit:10;}
	.st55{fill:#FFD258;stroke:#0A0A0A;stroke-width:3;stroke-miterlimit:10;}
	.st56{fill:none;stroke:#0A0A0A;stroke-width:2;stroke-miterlimit:10;}
	.st57{fill:#FF5F7D;stroke:#000000;stroke-miterlimit:10;}
	.st58{fill:#FFD258;stroke:#000000;stroke-miterlimit:10;}
	.st59{fill:#FF5F7D;stroke:#050505;stroke-width:0.75;stroke-miterlimit:10;}
	.st60{fill:#FEF0E1;stroke:#020202;stroke-width:0.75;stroke-miterlimit:10;}
	.st61{fill:#FF5F7D;stroke:#050505;stroke-width:0.25;stroke-miterlimit:10;}
	.st62{fill:#FFD258;stroke:#0A0A0A;stroke-width:0.75;stroke-miterlimit:10;}
	.st63{fill:#73B7A4;stroke:#020202;stroke-width:0.25;stroke-miterlimit:10;}
	.st64{fill:#FBCEC6;stroke:#020202;stroke-miterlimit:10;}
	.st65{fill:#73B7A4;stroke:#020202;stroke-width:0.75;stroke-miterlimit:10;}
	.st66{fill:#73B7A4;stroke:#070707;stroke-miterlimit:10;}
	.st67{fill:#FFFBF2;stroke:#070707;stroke-miterlimit:10;}
	.st68{fill:#E2B139;}
	.st69{fill:#FFFBF2;stroke:#020202;stroke-miterlimit:10;}
	.st70{fill:#ADCCFF;stroke:#020202;stroke-width:0.75;stroke-miterlimit:10;}
	.st71{fill:#FFFBF2;stroke:#020202;stroke-width:0.75;stroke-miterlimit:10;}
	.st72{fill:#FFD258;stroke:#050505;stroke-width:0.75;stroke-miterlimit:10;}
	.st73{fill:#FBCEC6;stroke:#020202;stroke-width:0.75;stroke-miterlimit:10;}
	.st74{fill:#73B7A4;stroke:#050505;stroke-miterlimit:10;}
	.st75{fill:#73B7A4;stroke:#050505;stroke-width:0.75;stroke-miterlimit:10;}
	.st76{fill:#E2C2A6;}
	.st77{fill:#DBC69E;}
	.st78{fill:#D39C94;}
	.st79{fill:#E0B344;}
	.st80{fill:#E0AE32;}
	.st81{fill:#4F9982;}
	.st82{fill:#DDBA9B;}
	.st83{fill:#FF5F7D;stroke:#000000;stroke-width:0.75;stroke-miterlimit:10;}
	.st84{fill:#FFD258;stroke:#000000;stroke-width:0.75;stroke-miterlimit:10;}
	.st85{fill:none;stroke:#000000;stroke-width:0.5;stroke-miterlimit:10;}
	.st86{opacity:0.43;fill:#7F3B48;}
	.st87{opacity:0.88;fill:#98BFFF;}
	.st88{opacity:0.75;fill:#FFFBF2;}
	.st89{opacity:0.88;fill:#719BD8;}
	.st90{opacity:0.75;fill:#EAD9B7;}
	.st91{fill:#FEF0E1;}
	.st92{fill:none;stroke:#070707;stroke-miterlimit:10;}
	.st93{fill:#C1962B;}
	.st94{fill:#D6B154;}
	.st95{fill:#5DA08B;}
	.st96{fill:#C6961E;}
</style>
<rect x="0.6" y="2.1" class="st0" width="697.3" height="477.8"/>
<g id="c6IPAe.tif">
	<g>
		<path class="st39" d="M265.1,300.3c-4.7-4-5.8-7.4-3.9-11.4c1.7-3.7,4.9-5,11.1-4.3c3.1-6.9,6.3-13.8,9.5-20.8
			c10.3-22.7,20.6-45.4,31-68.1c0.7-1.4,0.7-2.4-0.4-3.8c-2.1-2.6-2.1-5.6-0.6-8.5c1.4-2.8,3.9-4.4,7.1-4.4c1.9,0.1,2.7-0.7,3.6-2.2
			c7.1-11.7,15.2-22.6,26.3-30.8c21.8-16,45.8-20.1,71-9.8c17.1,7,26.3,21,28.6,39.2c1.4,10.8,1.8,21.6,0.1,32.4
			c-1.8,11.8-5.9,22.4-16.5,29.2c-2.2,1.4-4.7,2.4-7.6,3.9c0-3.6,0-6.5,0-9.5c0-0.9,0.1-1.8,0-2.7c-0.4-3.8,0.3-7.1,3.1-10.2
			c3.4-3.9,4.3-9.2,4.8-14.2c1.1-9.6,0.9-19.2-0.6-28.6c-2.4-14.7-12.7-24.8-27.8-27.3c-21.4-3.5-39.5,2.8-54,18.9
			c-5.2,5.7-9.9,11.9-13.6,18.7c4.2,4.2,5.1,7.6,3.1,11.3c-1.9,3.5-5.4,4.8-10.8,3.7c-13.8,30.3-27.6,60.6-41.2,90.5
			c1.2,2.2,2.7,3.9,3.2,5.9c1.3,5.4-2.7,10.1-8.2,9.9c-1.8-0.1-2.5,0.5-3.1,2c-1.4,3.4-3,6.7-4.6,10.2c0.8,0.1,1.5,0.2,2.1,0.4
			c4,0.7,6.8,4.1,6.9,8c0,4.1-2.8,7.4-7,8.1c-0.8,0.1-1.7,0.2-2.5,0.2c-13.1,0-26.2,0-39.2,0c-5.4,0-9.1-3.2-9.3-7.8
			c-0.3-4.9,3.3-8.7,8.5-8.8c6.6-0.1,13.2-0.1,19.7,0c1.9,0,2.8-0.5,3.5-2.3C259.8,311.8,262.5,306.1,265.1,300.3z"/>
		<path class="st64" d="M415.9,281.4c-16.2-5.9-30.7-3.6-42,9.6c-12.1,14.2-11.5,29.7-1.6,45.4c-2.1,0-4,0-5.9,0
			c-10.4,0-20.8,0-31.2,0c-6,0-10.9-4.9-10-10.8c3-19,5.7-38,9.6-56.8c3.1-14.9,10.3-28.1,21.5-38.7c12.3-11.6,26.7-18.2,43.9-18
			c4.5,0,9,0,13.5,0c1.7,0,2.6,0.5,2.6,2.4c0,22,0,44-0.1,66C416,280.8,415.9,281.1,415.9,281.4z"/>
		<path class="st39" d="M428.6,314.6c0,15.2-12.5,27.5-27.8,27.5c-15.2-0.1-27.7-12.6-27.6-27.7c0.1-15.3,12.5-27.7,27.7-27.6
			C416.3,286.7,428.7,299.2,428.6,314.6z M387,314.3c0,7.7,6.3,14,14,13.9c7.6,0,13.9-6.2,13.9-13.8c0-7.6-6.3-14-14-14
			C393.4,300.5,387.1,306.8,387,314.3z"/>
	</g>
</g>
</svg>
