<?xml version="1.0" encoding="utf-8"?>
<!-- Generator: Adobe Illustrator 22.1.0, SVG Export Plug-In . SVG Version: 6.00 Build 0)  -->
<svg version="1.1" id="Calque_1" xmlns="http://www.w3.org/2000/svg" xmlns:xlink="http://www.w3.org/1999/xlink" x="0px" y="0px"
	 viewBox="0 0 700 480" style="enable-background:new 0 0 700 480;" xml:space="preserve">
<style type="text/css">
	.st0{fill:#DAECFF;}
	.st1{fill:#FFD258;}
	.st2{fill:#FBCEC6;}
	.st3{fill:#ADCCFF;}
	.st4{fill:#FF5F7D;}
	.st5{fill:none;stroke:#000000;stroke-width:2;stroke-miterlimit:10;}
	.st6{fill:#FFFBF2;}
	.st7{fill:#73B7A4;}
	.st8{fill:none;stroke:#000000;stroke-miterlimit:10;}
	.st9{fill:#98BFFF;}
	.st10{fill:#FFD258;stroke:#000000;stroke-width:2;stroke-miterlimit:10;}
	.st11{fill:#FEF0E1;stroke:#070707;stroke-miterlimit:10;}
	.st12{fill:#D3A533;}
	.st13{fill:#FFB5C0;stroke:#020202;stroke-miterlimit:10;}
	.st14{fill:#FF8E9E;}
	.st15{fill:#FF8E9E;stroke:#000000;stroke-miterlimit:10;}
	.st16{fill:#EA5B70;}
	.st17{fill:#020202;}
	.st18{fill:#FFD258;stroke:#050505;stroke-width:0.5;stroke-miterlimit:10;}
	.st19{fill:#FEF0E1;stroke:#020202;stroke-width:0.5;stroke-miterlimit:10;}
	.st20{fill:#DDB143;}
	.st21{fill:#D6AF8B;}
	.st22{fill:#FFFBF2;stroke:#020202;stroke-width:2;stroke-miterlimit:10;}
	.st23{fill:#FF5F7D;stroke:#020202;stroke-width:2;stroke-miterlimit:10;}
	.st24{fill:#FFFFFF;}
	.st25{fill:#ADCCFF;stroke:#020202;stroke-width:2;stroke-miterlimit:10;}
	.st26{fill:#FFD258;stroke:#050505;stroke-width:2;stroke-miterlimit:10;}
	.st27{fill:#85AAE0;}
	.st28{fill:#C99E32;}
	.st29{fill:#FFCF47;stroke:#020202;stroke-miterlimit:10;}
	.st30{fill:#FF5F7D;stroke:#050505;stroke-width:2;stroke-miterlimit:10;}
	.st31{fill:#F36B7F;stroke:#000000;stroke-miterlimit:10;}
	.st32{fill:#DBA92C;}
	.st33{fill:#73B7A4;stroke:#020202;stroke-width:2;stroke-miterlimit:10;}
	.st34{fill:#FFCF47;stroke:#020202;stroke-width:2;stroke-miterlimit:10;}
	.st35{fill:#99C6B8;}
	.st36{fill:#E2B23B;}
	.st37{fill:#C11A3E;}
	.st38{fill:#FEF0E1;stroke:#020202;stroke-miterlimit:10;}
	.st39{fill:#ADCCFF;stroke:#020202;stroke-miterlimit:10;}
	.st40{fill:#FFD258;stroke:#0C0C0C;stroke-width:0.75;stroke-miterlimit:10;}
	.st41{fill:#ADCCFF;stroke:#050505;stroke-width:2;stroke-miterlimit:10;}
	.st42{fill:#73B7A4;stroke:#050505;stroke-width:2;stroke-miterlimit:10;}
	.st43{fill:#FFFBF2;stroke:#050505;stroke-width:2;stroke-miterlimit:10;}
	.st44{fill:#FEF0E1;stroke:#020202;stroke-width:2;stroke-miterlimit:10;}
	.st45{fill:#D8A830;}
	.st46{fill:#FF5F7D;stroke:#050505;stroke-miterlimit:10;}
	.st47{fill:#73B7A4;stroke:#020202;stroke-miterlimit:10;}
	.st48{fill:#E8D2BF;}
	.st49{fill:#FFD258;stroke:#0A0A0A;stroke-width:2;stroke-miterlimit:10;}
	.st50{fill:#D8AB3A;}
	.st51{fill:#FFD258;stroke:#050505;stroke-miterlimit:10;}
	.st52{fill:#FBCEC6;stroke:#070707;stroke-miterlimit:10;}
	.st53{fill:#D84161;}
	.st54{fill:#FFD258;stroke:#0A0A0A;stroke-miterlimit:10;}
	.st55{fill:#FFD258;stroke:#0A0A0A;stroke-width:3;stroke-miterlimit:10;}
	.st56{fill:none;stroke:#0A0A0A;stroke-width:2;stroke-miterlimit:10;}
	.st57{fill:#FF5F7D;stroke:#000000;stroke-miterlimit:10;}
	.st58{fill:#FFD258;stroke:#000000;stroke-miterlimit:10;}
	.st59{fill:#FF5F7D;stroke:#050505;stroke-width:0.75;stroke-miterlimit:10;}
	.st60{fill:#FEF0E1;stroke:#020202;stroke-width:0.75;stroke-miterlimit:10;}
	.st61{fill:#FF5F7D;stroke:#050505;stroke-width:0.25;stroke-miterlimit:10;}
	.st62{fill:#FFD258;stroke:#0A0A0A;stroke-width:0.75;stroke-miterlimit:10;}
	.st63{fill:#73B7A4;stroke:#020202;stroke-width:0.25;stroke-miterlimit:10;}
	.st64{fill:#FBCEC6;stroke:#020202;stroke-miterlimit:10;}
	.st65{fill:#73B7A4;stroke:#020202;stroke-width:0.75;stroke-miterlimit:10;}
	.st66{fill:#73B7A4;stroke:#070707;stroke-miterlimit:10;}
	.st67{fill:#FFFBF2;stroke:#070707;stroke-miterlimit:10;}
	.st68{fill:#E2B139;}
	.st69{fill:#FFFBF2;stroke:#020202;stroke-miterlimit:10;}
	.st70{fill:#ADCCFF;stroke:#020202;stroke-width:0.75;stroke-miterlimit:10;}
	.st71{fill:#FFFBF2;stroke:#020202;stroke-width:0.75;stroke-miterlimit:10;}
	.st72{fill:#FFD258;stroke:#050505;stroke-width:0.75;stroke-miterlimit:10;}
	.st73{fill:#FBCEC6;stroke:#020202;stroke-width:0.75;stroke-miterlimit:10;}
	.st74{fill:#73B7A4;stroke:#050505;stroke-miterlimit:10;}
	.st75{fill:#73B7A4;stroke:#050505;stroke-width:0.75;stroke-miterlimit:10;}
	.st76{fill:#E2C2A6;}
	.st77{fill:#DBC69E;}
	.st78{fill:#D39C94;}
	.st79{fill:#E0B344;}
	.st80{fill:#E0AE32;}
	.st81{fill:#4F9982;}
	.st82{fill:#DDBA9B;}
	.st83{fill:#FF5F7D;stroke:#000000;stroke-width:0.75;stroke-miterlimit:10;}
	.st84{fill:#FFD258;stroke:#000000;stroke-width:0.75;stroke-miterlimit:10;}
	.st85{fill:none;stroke:#000000;stroke-width:0.5;stroke-miterlimit:10;}
	.st86{opacity:0.43;fill:#7F3B48;}
	.st87{opacity:0.88;fill:#98BFFF;}
	.st88{opacity:0.75;fill:#FFFBF2;}
	.st89{opacity:0.88;fill:#719BD8;}
	.st90{opacity:0.75;fill:#EAD9B7;}
	.st91{fill:#FEF0E1;}
	.st92{fill:none;stroke:#070707;stroke-miterlimit:10;}
	.st93{fill:#C1962B;}
	.st94{fill:#D6B154;}
	.st95{fill:#5DA08B;}
	.st96{fill:#C6961E;}
</style>
<rect x="4.5" y="7" class="st0" width="699.7" height="480"/>
<g id="FOQSVo.tif">
	<g>
		<path class="st54" d="M311.8,285.3c-7.7-10.2-12.4-21.7-14.3-34.5c-3.8,0.6-7.5,1.3-11.2,1.9c-5.3,0.7-9.5-1.1-12.4-5.6
			c-2.8-4.3-2.8-8.8-0.1-13.1c2.9-4.5,7-6.4,12.3-5.7c3.7,0.5,7.4,1.2,11.3,1.9c1.9-12.7,6.6-24.3,14.3-34.5
			c-3.3-2.4-6.5-4.5-9.5-6.9c-5.7-4.4-6.6-11.8-2.1-17.5c4.1-5.3,11.9-6.4,17.2-2.1c2.1,1.7,3.6,4.1,5.2,6.3
			c1.3,1.7,2.4,3.5,3.7,5.4c10.4-7.5,21.8-12.5,34.6-14.2c-0.6-3.9-1.2-7.6-1.8-11.3c-0.8-5.2,1.1-9.2,5.3-12.1
			c4.5-3.1,9.4-3.1,13.9,0c4.1,2.8,6.1,6.9,5.3,12.1c-0.6,3.7-1.2,7.4-1.8,11.3c12.7,1.8,24.1,6.7,34.5,14.2
			c2.3-3.2,4.5-6.4,6.9-9.5c3.2-4.2,7.6-5.5,12.6-4.4c4.9,1.1,8,4.4,9.2,9.2c1.3,5-0.4,9.2-4.4,12.4c-3,2.4-6.3,4.6-9.7,7
			c7.7,10.2,12.5,21.8,14.3,34.5c3.9-0.7,7.6-1.4,11.3-1.9c5.3-0.7,9.4,1.2,12.3,5.7c2.8,4.4,2.7,8.8-0.1,13.1
			c-2.9,4.5-7.1,6.3-12.3,5.6c-3.6-0.5-7.3-1.2-11.2-1.9c-1.9,12.7-6.6,24.2-14.4,34.5c3.2,2.3,6.4,4.5,9.4,6.8
			c4.1,3.2,5.9,7.4,4.7,12.5c-1.2,4.9-4.3,8.3-9.3,9.4c-5.1,1.1-9.5-0.3-12.7-4.7c-2.2-3-4.4-6.1-6.6-9.2
			c-10.3,7.5-21.7,12.4-34.5,14.2c0.6,3.8,1.2,7.5,1.8,11.2c0.9,5.2-1.1,9.4-5.3,12.2c-4.5,3-9.3,3-13.7,0c-4.2-2.9-6.2-7-5.3-12.2
			c0.6-3.6,1.2-7.3,1.8-11.2c-12.7-1.8-24.2-6.7-34.5-14.2c-2.3,3.2-4.6,6.4-6.9,9.5c-3.2,4.2-7.5,5.4-12.4,4.4
			c-4.9-1-8-4.4-9.3-9.1c-1.3-5,0.3-9.3,4.3-12.5C305.1,289.9,308.4,287.8,311.8,285.3z M327.7,205.6c-6.8,8.5-10.6,17.9-11.9,28.6
			c8.2,0,16.2,0,24.1-0.1c0.4,0,1-0.7,1.2-1.2c1.2-2.8,2.4-5.7,3.6-8.6c0.2-0.5,0.2-1.5-0.1-1.9C339.1,217,333.5,211.4,327.7,205.6z
			 M397.7,223.4c1.2,3,2.6,6.1,3.6,9.3c0.4,1.3,0.9,1.6,2.1,1.6c6.1,0,12.1,0,18.2,0c1.7,0,3.4,0,5.2,0
			c-1.3-10.8-5.2-20.2-11.7-28.4C409.3,211.8,403.5,217.7,397.7,223.4z M315.8,246.7c1.4,10.8,5.2,20.2,11.7,28.3
			c5.9-5.9,11.8-11.8,17.4-17.4c-1.2-3.3-2.5-6.7-3.8-10c-0.2-0.4-0.8-0.8-1.3-0.8C331.9,246.7,324,246.7,315.8,246.7z M415,275.3
			c6.8-8.5,10.6-17.9,11.9-28.7c-8.2,0-16.1,0-24.1,0.1c-0.4,0-1,0.7-1.2,1.1c-1.2,2.8-2.4,5.7-3.5,8.6c-0.2,0.6-0.2,1.6,0.2,2
			C403.7,264.1,409.2,269.6,415,275.3z M336.8,196.5c6,6,11.8,11.8,17.5,17.5c3-1.2,6-2.5,9.1-3.6c1.3-0.4,1.7-0.9,1.7-2.2
			c-0.1-7.2,0-14.5,0-21.7c0-0.5-0.1-1-0.2-1.6C354.3,186.2,345,190.2,336.8,196.5z M405.9,196.5c-8.2-6.3-17.6-10.3-28.3-11.5
			c0,8.2,0,16.2,0,24.3c0,0.3,0.5,0.9,0.9,1c3.3,1.3,6.7,2.6,9.9,3.8C394.1,208.3,400,202.5,405.9,196.5z M354.2,266.9
			c-5.7,5.6-11.6,11.5-17.6,17.4c8.4,6.4,17.7,10.5,28.5,11.6c0-8.2,0-16.1,0-24c0-0.4-0.5-1.1-0.9-1.2
			C360.9,269.4,357.5,268.2,354.2,266.9z M377.6,296c10.9-1.3,20.2-5.3,28.3-11.6c-6-6-11.8-11.8-17.5-17.5
			c-3.2,1.2-6.5,2.4-9.8,3.7c-0.5,0.2-1,0.9-1,1.3C377.5,279.9,377.6,287.8,377.6,296z"/>
	</g>
</g>
</svg>
