<?xml version="1.0" encoding="utf-8"?>
<!-- Generator: Adobe Illustrator 22.1.0, SVG Export Plug-In . SVG Version: 6.00 Build 0)  -->
<svg version="1.1" id="Calque_1" xmlns="http://www.w3.org/2000/svg" xmlns:xlink="http://www.w3.org/1999/xlink" x="0px" y="0px"
	 viewBox="0 0 480 480" style="enable-background:new 0 0 480 480;" xml:space="preserve">
<style type="text/css">
	.st0{fill:#FFD258;}
	.st1{fill:#FF5F7D;}
	.st2{fill:#DAECFF;}
	.st3{fill:none;stroke:#000000;stroke-miterlimit:10;}
	.st4{fill:#F36B7F;stroke:#000000;stroke-miterlimit:10;}
	.st5{fill:none;stroke:#000000;stroke-width:0.5;stroke-miterlimit:10;}
	.st6{fill:#FFCF47;stroke:#020202;stroke-miterlimit:10;}
	.st7{fill:#D6B154;}
	.st8{fill:#73B7A4;stroke:#020202;stroke-miterlimit:10;}
	.st9{fill:#5DA08B;}
	.st10{fill:#FFD258;stroke:#0A0A0A;stroke-width:0.75;stroke-miterlimit:10;}
	.st11{fill:#FEF0E1;}
	.st12{fill:#ADCCFF;}
	.st13{fill:none;stroke:#000000;stroke-width:2;stroke-miterlimit:10;}
	.st14{fill:#FFFBF2;}
	.st15{fill:#73B7A4;}
	.st16{fill:#98BFFF;}
	.st17{fill:#FFD258;stroke:#000000;stroke-width:2;stroke-miterlimit:10;}
	.st18{opacity:0.88;fill:#98BFFF;}
	.st19{opacity:0.75;fill:#FFFBF2;}
	.st20{opacity:0.88;fill:#719BD8;}
	.st21{opacity:0.75;fill:#EAD9B7;}
	.st22{fill:none;stroke:#070707;stroke-miterlimit:10;}
	.st23{fill:#FEF0E1;stroke:#070707;stroke-miterlimit:10;}
	.st24{opacity:0.43;fill:#7F3B48;}
	.st25{fill:#D3A533;}
	.st26{fill:#C1962B;}
	.st27{fill:#FFB5C0;stroke:#020202;stroke-miterlimit:10;}
	.st28{fill:#FF8E9E;}
	.st29{fill:#FF8E9E;stroke:#000000;stroke-miterlimit:10;}
	.st30{fill:#EA5B70;}
	.st31{fill:#020202;}
	.st32{fill:#FFD258;stroke:#050505;stroke-width:0.5;stroke-miterlimit:10;}
	.st33{fill:#FEF0E1;stroke:#020202;stroke-width:0.5;stroke-miterlimit:10;}
	.st34{fill:#DDB143;}
	.st35{fill:#D6AF8B;}
	.st36{fill:#FBCEC6;}
	.st37{fill:#FFFBF2;stroke:#020202;stroke-width:2;stroke-miterlimit:10;}
	.st38{fill:#FF5F7D;stroke:#020202;stroke-width:2;stroke-miterlimit:10;}
	.st39{fill:#FFFFFF;}
	.st40{fill:#ADCCFF;stroke:#020202;stroke-width:2;stroke-miterlimit:10;}
	.st41{fill:#FFD258;stroke:#050505;stroke-width:2;stroke-miterlimit:10;}
	.st42{fill:#85AAE0;}
	.st43{fill:#C99E32;}
	.st44{fill:#FF5F7D;stroke:#050505;stroke-width:2;stroke-miterlimit:10;}
	.st45{fill:#DBA92C;}
	.st46{fill:#73B7A4;stroke:#020202;stroke-width:2;stroke-miterlimit:10;}
	.st47{fill:#FFCF47;stroke:#020202;stroke-width:2;stroke-miterlimit:10;}
	.st48{fill:#99C6B8;}
	.st49{fill:#E2B23B;}
	.st50{fill:#C11A3E;}
	.st51{fill:#FEF0E1;stroke:#020202;stroke-miterlimit:10;}
	.st52{fill:#ADCCFF;stroke:#020202;stroke-miterlimit:10;}
	.st53{fill:#FFD258;stroke:#0C0C0C;stroke-width:0.75;stroke-miterlimit:10;}
	.st54{fill:#ADCCFF;stroke:#050505;stroke-width:2;stroke-miterlimit:10;}
	.st55{fill:#73B7A4;stroke:#050505;stroke-width:2;stroke-miterlimit:10;}
	.st56{fill:#FFFBF2;stroke:#050505;stroke-width:2;stroke-miterlimit:10;}
	.st57{fill:#FEF0E1;stroke:#020202;stroke-width:2;stroke-miterlimit:10;}
	.st58{fill:#D8A830;}
	.st59{fill:#FF5F7D;stroke:#050505;stroke-miterlimit:10;}
	.st60{fill:#E8D2BF;}
	.st61{fill:#FFD258;stroke:#0A0A0A;stroke-width:2;stroke-miterlimit:10;}
	.st62{fill:#D8AB3A;}
	.st63{fill:#FFD258;stroke:#050505;stroke-miterlimit:10;}
	.st64{fill:#FBCEC6;stroke:#070707;stroke-miterlimit:10;}
	.st65{fill:#D84161;}
	.st66{fill:#FFD258;stroke:#0A0A0A;stroke-miterlimit:10;}
	.st67{fill:#FFD258;stroke:#0A0A0A;stroke-width:3;stroke-miterlimit:10;}
	.st68{fill:none;stroke:#0A0A0A;stroke-width:3;stroke-miterlimit:10;}
	.st69{fill:none;stroke:#0A0A0A;stroke-width:2;stroke-miterlimit:10;}
	.st70{fill:#FF5F7D;stroke:#000000;stroke-miterlimit:10;}
	.st71{fill:#FFD258;stroke:#000000;stroke-miterlimit:10;}
	.st72{fill:#FF5F7D;stroke:#050505;stroke-width:0.75;stroke-miterlimit:10;}
	.st73{fill:#FEF0E1;stroke:#020202;stroke-width:0.75;stroke-miterlimit:10;}
	.st74{fill:#FF5F7D;stroke:#050505;stroke-width:0.25;stroke-miterlimit:10;}
	.st75{fill:#73B7A4;stroke:#020202;stroke-width:0.25;stroke-miterlimit:10;}
	.st76{fill:#FBCEC6;stroke:#020202;stroke-miterlimit:10;}
	.st77{fill:#73B7A4;stroke:#020202;stroke-width:0.75;stroke-miterlimit:10;}
	.st78{fill:#73B7A4;stroke:#070707;stroke-miterlimit:10;}
	.st79{fill:#FFFBF2;stroke:#070707;stroke-miterlimit:10;}
	.st80{fill:#E2B139;}
	.st81{fill:#FFFBF2;stroke:#020202;stroke-miterlimit:10;}
	.st82{fill:#ADCCFF;stroke:#020202;stroke-width:0.75;stroke-miterlimit:10;}
	.st83{fill:#FFFBF2;stroke:#020202;stroke-width:0.75;stroke-miterlimit:10;}
	.st84{fill:#FFD258;stroke:#050505;stroke-width:0.75;stroke-miterlimit:10;}
	.st85{fill:#FBCEC6;stroke:#020202;stroke-width:0.75;stroke-miterlimit:10;}
	.st86{fill:#73B7A4;stroke:#050505;stroke-miterlimit:10;}
	.st87{fill:#73B7A4;stroke:#050505;stroke-width:0.75;stroke-miterlimit:10;}
	.st88{fill:#E2C2A6;}
	.st89{fill:#DBC69E;}
	.st90{fill:#D39C94;}
	.st91{fill:#E0B344;}
	.st92{fill:#E0AE32;}
	.st93{fill:#4F9982;}
	.st94{fill:#DDBA9B;}
	.st95{fill:#C6961E;}
	.st96{fill:#FF5F7D;stroke:#000000;stroke-width:0.75;stroke-miterlimit:10;}
	.st97{fill:#FFD258;stroke:#000000;stroke-width:0.75;stroke-miterlimit:10;}
</style>
<path class="st0" d="M356,448.1H122.8c-43.5,0-79.2-35.6-79.2-79.2V135.7c0-43.5,35.6-79.2,79.2-79.2H356
	c43.5,0,79.2,35.6,79.2,79.2v233.2C435.2,412.4,399.6,448.1,356,448.1z"/>
<g id="IUvIMg.tif">
	<g>
		<path class="st8" d="M240.4,357.5c-63.5-0.2-112.8-52.4-111.8-113.8c1-60,49.8-110.3,112.2-110.2c63.6,0.1,113,52.4,111.8,114
			C351.5,307.4,302.7,357.4,240.4,357.5z M240.6,161.5c-46.1,0-83.9,37.6-84,83.4c-0.1,46.8,37.2,84.4,83.9,84.6
			c46.1,0.2,84.1-37.6,84.1-83.8C324.6,199.2,287,161.5,240.6,161.5z"/>
		<path class="st39" d="M240.6,161.5c46.4,0,84,37.7,84,84.2c0,46.2-38,84-84.1,83.8c-46.6-0.2-83.9-37.8-83.9-84.6
			C156.7,199.1,194.5,161.5,240.6,161.5z M315.2,245.5c0-41.3-33.4-74.7-74.7-74.6c-41.2,0.1-74.5,33.3-74.6,74.5
			c0,41.3,33.2,74.7,74.6,74.7C281.8,320.2,315.2,286.8,315.2,245.5z"/>
		<path class="st67" d="M315.2,245.5c0,41.3-33.5,74.7-74.7,74.6c-41.3-0.1-74.6-33.4-74.6-74.7c0-41.2,33.4-74.4,74.6-74.5
			C281.8,170.8,315.2,204.2,315.2,245.5z M240.4,179.9c-6.2,1.2-12.6,2.2-18.9,3.6c-3.2,0.7-4.1,2.3-3.9,5.5
			c0.6,7.9,3,15.2,8.1,21.3c7.6,9.2,19.4,10,28.1,1.8c6.3-6,8.9-13.7,9.8-22.1c0.5-4.3-0.6-5.9-4.7-6.8
			C252.9,181.9,246.8,181,240.4,179.9z M240.4,311.5c6.3-1.1,12.7-2.1,19-3.5c3.5-0.8,4.5-2.4,4.2-6c-0.6-7.7-3.1-14.8-8-20.9
			c-7.2-8.9-18.5-10.1-27.1-2.7c-7.2,6.1-10,14.5-10.9,23.7c-0.3,3.6,0.7,5.2,4.2,6C227.9,309.3,234,310.3,240.4,311.5z
			 M194.4,250.4c-5.1,0.4-9.9,1.5-14.4,3.6c-2.7,1.2-3.8,3-3.3,5.5c2.8,13.1,9.2,24.4,18.9,33.6c2.1,2,4.8,1.9,6.7-0.1
			c5.7-6.1,10.3-12.8,12.5-21c2.3-8.7-1.2-15.9-9.6-19C201.8,251.7,198,251.2,194.4,250.4z M193.4,241.2c4.1-0.7,7.3-1,10.2-1.8
			c9-2.7,13.3-9.4,11.5-18.5c-1.8-8.9-6.9-16.1-13.1-22.6c-1.9-1.9-4.5-1.6-6.7,0.5c-9.2,8.9-15.3,19.6-18.3,32.1
			c-0.9,3.7-0.1,5.7,3.4,6.9C185,239.4,189.7,240.3,193.4,241.2z M288.5,241.4c4.4-1.3,8.7-2.3,12.8-3.8c2.8-1,3.7-3,3.1-5.5
			c-2.9-13.1-9.2-24.3-19-33.6c-2-1.8-4.7-1.8-6.5,0.1c-5.8,6.1-10.5,12.9-12.6,21.2c-2.2,8.6,1.2,15.8,9.5,18.9
			C279.9,240.2,284.2,240.5,288.5,241.4z M288.8,249.7c-4,0.6-7.8,0.8-11.3,1.9c-8.9,2.7-13,9.3-11.3,18.3c1.8,9,6.9,16.1,13.1,22.6
			c1.8,1.9,4.6,1.6,6.7-0.5c9.2-8.9,15.4-19.6,18.3-32c0.9-3.8,0.1-5.7-3.6-7C296.7,251.6,292.6,250.8,288.8,249.7z M240.5,264.1
			c10.3,0,18.6-8.1,18.7-18.4c0.1-10.5-8.1-18.8-18.5-18.8c-10.3,0-18.6,8.1-18.7,18.4C221.9,255.7,230.1,264,240.5,264.1z"/>
		<path class="st2" d="M240.4,179.9c6.4,1.1,12.5,2,18.5,3.3c4.2,0.9,5.2,2.5,4.7,6.8c-0.9,8.4-3.6,16.2-9.8,22.1
			c-8.7,8.3-20.5,7.4-28.1-1.8c-5.1-6.2-7.6-13.4-8.1-21.3c-0.2-3.2,0.7-4.8,3.9-5.5C227.8,182.1,234.1,181,240.4,179.9z"/>
		<path class="st2" d="M240.4,311.5c-6.4-1.2-12.5-2.1-18.6-3.5c-3.6-0.8-4.6-2.4-4.2-6c0.9-9.1,3.7-17.5,10.9-23.7
			c8.7-7.4,19.9-6.1,27.1,2.7c4.9,6.1,7.4,13.1,8,20.9c0.3,3.6-0.6,5.2-4.2,6C253.1,309.3,246.7,310.3,240.4,311.5z"/>
		<path class="st2" d="M194.4,250.4c3.6,0.8,7.4,1.2,10.8,2.5c8.4,3.2,11.9,10.3,9.6,19c-2.2,8.2-6.8,14.9-12.5,21
			c-1.9,2.1-4.6,2.1-6.7,0.1c-9.7-9.3-16.1-20.5-18.9-33.6c-0.5-2.5,0.6-4.3,3.3-5.5C184.5,251.9,189.3,250.9,194.4,250.4z"/>
		<path class="st2" d="M193.4,241.2c-3.7-0.9-8.4-1.9-13-3.4c-3.5-1.2-4.3-3.2-3.4-6.9c2.9-12.5,9.1-23.2,18.3-32.1
			c2.2-2.1,4.8-2.5,6.7-0.5c6.2,6.4,11.3,13.6,13.1,22.6c1.8,9.1-2.4,15.8-11.5,18.5C200.7,240.3,197.6,240.5,193.4,241.2z"/>
		<path class="st2" d="M288.5,241.4c-4.3-0.9-8.6-1.2-12.6-2.7c-8.3-3.1-11.8-10.2-9.5-18.9c2.1-8.3,6.9-15.1,12.6-21.2
			c1.8-1.9,4.5-2,6.5-0.1c9.8,9.2,16.1,20.4,19,33.6c0.6,2.5-0.4,4.5-3.1,5.5C297.2,239.1,292.9,240.1,288.5,241.4z"/>
		<path class="st2" d="M288.8,249.7c3.9,1,7.9,1.9,11.8,3.3c3.7,1.3,4.5,3.2,3.6,7c-2.9,12.5-9.1,23.1-18.3,32
			c-2.1,2-4.9,2.4-6.7,0.5c-6.2-6.4-11.3-13.6-13.1-22.6c-1.8-9,2.4-15.7,11.3-18.3C281,250.6,284.8,250.4,288.8,249.7z"/>
		<path class="st2" d="M240.5,264.1c-10.4,0-18.6-8.3-18.5-18.8c0.1-10.3,8.4-18.4,18.7-18.4c10.4,0,18.6,8.3,18.5,18.8
			C259.1,256,250.9,264.1,240.5,264.1z"/>
	</g>
</g>
</svg>
