<?xml version="1.0" encoding="utf-8"?>
<!-- Generator: Adobe Illustrator 22.1.0, SVG Export Plug-In . SVG Version: 6.00 Build 0)  -->
<svg version="1.1" id="Calque_1" xmlns="http://www.w3.org/2000/svg" xmlns:xlink="http://www.w3.org/1999/xlink" x="0px" y="0px"
	 viewBox="0 0 700 480" style="enable-background:new 0 0 700 480;" xml:space="preserve">
<style type="text/css">
	.st0{fill:#DAECFF;}
	.st1{fill:#FFD258;}
	.st2{fill:#FBCEC6;}
	.st3{fill:#ADCCFF;}
	.st4{fill:#FF5F7D;}
	.st5{fill:none;stroke:#000000;stroke-width:2;stroke-miterlimit:10;}
	.st6{fill:#FFFBF2;}
	.st7{fill:#73B7A4;}
	.st8{fill:none;stroke:#000000;stroke-miterlimit:10;}
	.st9{fill:#98BFFF;}
	.st10{fill:#FFD258;stroke:#000000;stroke-width:2;stroke-miterlimit:10;}
	.st11{fill:#FEF0E1;stroke:#070707;stroke-miterlimit:10;}
	.st12{fill:#D3A533;}
	.st13{fill:#FFB5C0;stroke:#020202;stroke-miterlimit:10;}
	.st14{fill:#FF8E9E;}
	.st15{fill:#FF8E9E;stroke:#000000;stroke-miterlimit:10;}
	.st16{fill:#EA5B70;}
	.st17{fill:#020202;}
	.st18{fill:#FFD258;stroke:#050505;stroke-width:0.5;stroke-miterlimit:10;}
	.st19{fill:#FEF0E1;stroke:#020202;stroke-width:0.5;stroke-miterlimit:10;}
	.st20{fill:#DDB143;}
	.st21{fill:#D6AF8B;}
	.st22{fill:#FFFBF2;stroke:#020202;stroke-width:2;stroke-miterlimit:10;}
	.st23{fill:#FF5F7D;stroke:#020202;stroke-width:2;stroke-miterlimit:10;}
	.st24{fill:#FFFFFF;}
	.st25{fill:#ADCCFF;stroke:#020202;stroke-width:2;stroke-miterlimit:10;}
	.st26{fill:#FFD258;stroke:#050505;stroke-width:2;stroke-miterlimit:10;}
	.st27{fill:#85AAE0;}
	.st28{fill:#C99E32;}
	.st29{fill:#FFCF47;stroke:#020202;stroke-miterlimit:10;}
	.st30{fill:#FF5F7D;stroke:#050505;stroke-width:2;stroke-miterlimit:10;}
	.st31{fill:#F36B7F;stroke:#000000;stroke-miterlimit:10;}
	.st32{fill:#DBA92C;}
	.st33{fill:#73B7A4;stroke:#020202;stroke-width:2;stroke-miterlimit:10;}
	.st34{fill:#FFCF47;stroke:#020202;stroke-width:2;stroke-miterlimit:10;}
	.st35{fill:#99C6B8;}
	.st36{fill:#E2B23B;}
	.st37{fill:#C11A3E;}
	.st38{fill:#FEF0E1;stroke:#020202;stroke-miterlimit:10;}
	.st39{fill:#ADCCFF;stroke:#020202;stroke-miterlimit:10;}
	.st40{fill:#FFD258;stroke:#0C0C0C;stroke-width:0.75;stroke-miterlimit:10;}
	.st41{fill:#ADCCFF;stroke:#050505;stroke-width:2;stroke-miterlimit:10;}
	.st42{fill:#73B7A4;stroke:#050505;stroke-width:2;stroke-miterlimit:10;}
	.st43{fill:#FFFBF2;stroke:#050505;stroke-width:2;stroke-miterlimit:10;}
	.st44{fill:#FEF0E1;stroke:#020202;stroke-width:2;stroke-miterlimit:10;}
	.st45{fill:#D8A830;}
	.st46{fill:#FF5F7D;stroke:#050505;stroke-miterlimit:10;}
	.st47{fill:#73B7A4;stroke:#020202;stroke-miterlimit:10;}
	.st48{fill:#E8D2BF;}
	.st49{fill:#FFD258;stroke:#0A0A0A;stroke-width:2;stroke-miterlimit:10;}
	.st50{fill:#D8AB3A;}
	.st51{fill:#FFD258;stroke:#050505;stroke-miterlimit:10;}
	.st52{fill:#FBCEC6;stroke:#070707;stroke-miterlimit:10;}
	.st53{fill:#D84161;}
	.st54{fill:#FFD258;stroke:#0A0A0A;stroke-miterlimit:10;}
	.st55{fill:#FFD258;stroke:#0A0A0A;stroke-width:3;stroke-miterlimit:10;}
	.st56{fill:none;stroke:#0A0A0A;stroke-width:2;stroke-miterlimit:10;}
	.st57{fill:#FF5F7D;stroke:#000000;stroke-miterlimit:10;}
	.st58{fill:#FFD258;stroke:#000000;stroke-miterlimit:10;}
	.st59{fill:#FF5F7D;stroke:#050505;stroke-width:0.75;stroke-miterlimit:10;}
	.st60{fill:#FEF0E1;stroke:#020202;stroke-width:0.75;stroke-miterlimit:10;}
	.st61{fill:#FF5F7D;stroke:#050505;stroke-width:0.25;stroke-miterlimit:10;}
	.st62{fill:#FFD258;stroke:#0A0A0A;stroke-width:0.75;stroke-miterlimit:10;}
	.st63{fill:#73B7A4;stroke:#020202;stroke-width:0.25;stroke-miterlimit:10;}
	.st64{fill:#FBCEC6;stroke:#020202;stroke-miterlimit:10;}
	.st65{fill:#73B7A4;stroke:#020202;stroke-width:0.75;stroke-miterlimit:10;}
	.st66{fill:#73B7A4;stroke:#070707;stroke-miterlimit:10;}
	.st67{fill:#FFFBF2;stroke:#070707;stroke-miterlimit:10;}
	.st68{fill:#E2B139;}
	.st69{fill:#FFFBF2;stroke:#020202;stroke-miterlimit:10;}
	.st70{fill:#ADCCFF;stroke:#020202;stroke-width:0.75;stroke-miterlimit:10;}
	.st71{fill:#FFFBF2;stroke:#020202;stroke-width:0.75;stroke-miterlimit:10;}
	.st72{fill:#FFD258;stroke:#050505;stroke-width:0.75;stroke-miterlimit:10;}
	.st73{fill:#FBCEC6;stroke:#020202;stroke-width:0.75;stroke-miterlimit:10;}
	.st74{fill:#73B7A4;stroke:#050505;stroke-miterlimit:10;}
	.st75{fill:#73B7A4;stroke:#050505;stroke-width:0.75;stroke-miterlimit:10;}
	.st76{fill:#E2C2A6;}
	.st77{fill:#DBC69E;}
	.st78{fill:#D39C94;}
	.st79{fill:#E0B344;}
	.st80{fill:#E0AE32;}
	.st81{fill:#4F9982;}
	.st82{fill:#DDBA9B;}
	.st83{fill:#FF5F7D;stroke:#000000;stroke-width:0.75;stroke-miterlimit:10;}
	.st84{fill:#FFD258;stroke:#000000;stroke-width:0.75;stroke-miterlimit:10;}
	.st85{fill:none;stroke:#000000;stroke-width:0.5;stroke-miterlimit:10;}
	.st86{opacity:0.43;fill:#7F3B48;}
	.st87{opacity:0.88;fill:#98BFFF;}
	.st88{opacity:0.75;fill:#FFFBF2;}
	.st89{opacity:0.88;fill:#719BD8;}
	.st90{opacity:0.75;fill:#EAD9B7;}
	.st91{fill:#FEF0E1;}
	.st92{fill:none;stroke:#070707;stroke-miterlimit:10;}
	.st93{fill:#C1962B;}
	.st94{fill:#D6B154;}
	.st95{fill:#5DA08B;}
	.st96{fill:#C6961E;}
</style>
<rect x="-3" y="1.6" class="st0" width="700" height="480"/>
<path class="st0" d="M391.9,443.3H150.3c-43.5,0-79.2-35.6-79.2-79.2V130.9c0-43.5,35.6-79.2,79.2-79.2h241.7
	c43.5,0,79.2,35.6,79.2,79.2v233.2C471.1,407.7,435.5,443.3,391.9,443.3z"/>
<g id="_x39_rtBeP.tif">
	<g>
		<path class="st26" d="M411.9,287.1c9.1,5.2,17.8,10.2,26.7,15.3c-4.2,11.9-10,22.2-22.9,26.2c-2.5,0.8-5.2,1.1-7.9,1.1
			c-32.7,0.4-65.5,1-98.2,0.9c-17-0.1-31.8-9.8-37.9-27.8c-4.3-12.8-4.9-25.9-0.6-38.8c4.7-14.1,12.9-25.5,27.6-30.4
			c4.9-1.6,10.3-2.2,15.5-2.4c21.1-0.9,42.3-1.2,63.4-2.1c5.2-0.2,10.3-1.6,15.5-2.6c1.5-0.3,3-1.1,4.3-1.9
			c15.5-9.7,31-19.5,46.5-29.3c5.3-3.3,9.7-2,12,3.8c3.2,8.1,4.3,16.7,5.1,25.4c1.6,17.3,1.6,34.6-1.4,51.8
			c-0.7,4.3-1.7,8.5-2.8,12.7c-1.6,5.8-6.7,8.8-12.5,7.3c-2.1-0.5-4.1-1.4-6-2.4c-13.2-6.5-26.3-13-39.4-19.4
			c-7.5-3.7-15.6-5.1-23.9-5.4c-18.1-0.5-36.1-1.2-54.2-1.9c-3.9-0.1-7.9,0.2-11.4,2.2c-4.5,2.6-7.1,6.5-7,11.8c0,2.6,0,5.2,0.3,7.7
			c0.5,4.8,3.3,7.9,7.9,9.3c2,0.6,4.1,0.8,6.2,0.8c28.3,0.4,56.7,0.6,85,1.1c5.2,0.1,8.3-1.2,9.8-8
			C411.5,290.6,411.6,289.1,411.9,287.1z"/>
		<path class="st26" d="M279.5,236.5c-1.2,1.4-2.2,2.5-3,3.5c-3.9,4.5-6.9,9.6-8.7,15.3c-0.2,0.8-1.4,1.8-2.1,1.8
			c-6.3-0.4-12,1.9-17.8,3.6c-5.2,1.6-6.8,0.7-8.5-4.5c-2-6.2-1.6-12.3,0-18.5c1-3.6,4-5.8,7.1-4.4c9.7,4.3,19.8,3.6,30,3.2
			C277.3,236.5,278.1,236.5,279.5,236.5z"/>
		<path class="st26" d="M381.8,223.9c-7.5,0-14.7,0-22.1,0c0-3.2-0.2-6.3,0.1-9.3c0.2-3,2.8-5,5.8-5.1c3.4-0.1,6.8-0.1,10.2,0
			c3.3,0.1,5.7,2.3,6,5.5c0.2,2.2,0.1,4.3,0.1,6.5C381.9,222.2,381.9,223,381.8,223.9z"/>
		<path class="st26" d="M322,224c-7.5,0-14.6,0-22,0c0-3.3-0.2-6.6,0.1-9.7c0.2-2.4,2.7-4.6,5.1-4.7c3.8-0.1,7.6-0.1,11.5,0
			c2.7,0.1,5.1,2.3,5.2,4.8C322.2,217.5,322,220.6,322,224z"/>
		<path class="st26" d="M330.2,223.9c0-3.3-0.2-6.5,0.1-9.6c0.2-2.8,2.7-4.7,5.5-4.8c3.6-0.1,7.2-0.1,10.7,0c2.8,0.1,5.2,2,5.4,4.6
			c0.2,3.2,0.1,6.4,0.1,9.8C344.8,223.9,337.7,223.9,330.2,223.9z"/>
	</g>
</g>
</svg>
