<?xml version="1.0" encoding="utf-8"?>
<!-- Generator: Adobe Illustrator 22.1.0, SVG Export Plug-In . SVG Version: 6.00 Build 0)  -->
<svg version="1.1" id="Calque_1" xmlns="http://www.w3.org/2000/svg" xmlns:xlink="http://www.w3.org/1999/xlink" x="0px" y="0px"
	 viewBox="0 0 700 480" style="enable-background:new 0 0 700 480;" xml:space="preserve">
<style type="text/css">
	.st0{fill:#DAECFF;}
	.st1{fill:#FFD258;}
	.st2{fill:#FBCEC6;}
	.st3{fill:#ADCCFF;}
	.st4{fill:#FF5F7D;}
	.st5{fill:none;stroke:#000000;stroke-width:2;stroke-miterlimit:10;}
	.st6{fill:#FFFBF2;}
	.st7{fill:#73B7A4;}
	.st8{fill:none;stroke:#000000;stroke-miterlimit:10;}
	.st9{fill:#98BFFF;}
	.st10{fill:#FFD258;stroke:#000000;stroke-width:2;stroke-miterlimit:10;}
	.st11{fill:#FEF0E1;stroke:#070707;stroke-miterlimit:10;}
	.st12{fill:#D3A533;}
	.st13{fill:#FFB5C0;stroke:#020202;stroke-miterlimit:10;}
	.st14{fill:#FF8E9E;}
	.st15{fill:#FF8E9E;stroke:#000000;stroke-miterlimit:10;}
	.st16{fill:#EA5B70;}
	.st17{fill:#020202;}
	.st18{fill:#FFD258;stroke:#050505;stroke-width:0.5;stroke-miterlimit:10;}
	.st19{fill:#FEF0E1;stroke:#020202;stroke-width:0.5;stroke-miterlimit:10;}
	.st20{fill:#DDB143;}
	.st21{fill:#D6AF8B;}
	.st22{fill:#FFFBF2;stroke:#020202;stroke-width:2;stroke-miterlimit:10;}
	.st23{fill:#FF5F7D;stroke:#020202;stroke-width:2;stroke-miterlimit:10;}
	.st24{fill:#FFFFFF;}
	.st25{fill:#ADCCFF;stroke:#020202;stroke-width:2;stroke-miterlimit:10;}
	.st26{fill:#FFD258;stroke:#050505;stroke-width:2;stroke-miterlimit:10;}
	.st27{fill:#85AAE0;}
	.st28{fill:#C99E32;}
	.st29{fill:#FFCF47;stroke:#020202;stroke-miterlimit:10;}
	.st30{fill:#FF5F7D;stroke:#050505;stroke-width:2;stroke-miterlimit:10;}
	.st31{fill:#F36B7F;stroke:#000000;stroke-miterlimit:10;}
	.st32{fill:#DBA92C;}
	.st33{fill:#73B7A4;stroke:#020202;stroke-width:2;stroke-miterlimit:10;}
	.st34{fill:#FFCF47;stroke:#020202;stroke-width:2;stroke-miterlimit:10;}
	.st35{fill:#99C6B8;}
	.st36{fill:#E2B23B;}
	.st37{fill:#C11A3E;}
	.st38{fill:#FEF0E1;stroke:#020202;stroke-miterlimit:10;}
	.st39{fill:#ADCCFF;stroke:#020202;stroke-miterlimit:10;}
	.st40{fill:#FFD258;stroke:#0C0C0C;stroke-width:0.75;stroke-miterlimit:10;}
	.st41{fill:#ADCCFF;stroke:#050505;stroke-width:2;stroke-miterlimit:10;}
	.st42{fill:#73B7A4;stroke:#050505;stroke-width:2;stroke-miterlimit:10;}
	.st43{fill:#FFFBF2;stroke:#050505;stroke-width:2;stroke-miterlimit:10;}
	.st44{fill:#FEF0E1;stroke:#020202;stroke-width:2;stroke-miterlimit:10;}
	.st45{fill:#D8A830;}
	.st46{fill:#FF5F7D;stroke:#050505;stroke-miterlimit:10;}
	.st47{fill:#73B7A4;stroke:#020202;stroke-miterlimit:10;}
	.st48{fill:#E8D2BF;}
	.st49{fill:#FFD258;stroke:#0A0A0A;stroke-width:2;stroke-miterlimit:10;}
	.st50{fill:#D8AB3A;}
	.st51{fill:#FFD258;stroke:#050505;stroke-miterlimit:10;}
	.st52{fill:#FBCEC6;stroke:#070707;stroke-miterlimit:10;}
	.st53{fill:#D84161;}
	.st54{fill:#FFD258;stroke:#0A0A0A;stroke-miterlimit:10;}
	.st55{fill:#FFD258;stroke:#0A0A0A;stroke-width:3;stroke-miterlimit:10;}
	.st56{fill:none;stroke:#0A0A0A;stroke-width:2;stroke-miterlimit:10;}
	.st57{fill:#FF5F7D;stroke:#000000;stroke-miterlimit:10;}
	.st58{fill:#FFD258;stroke:#000000;stroke-miterlimit:10;}
	.st59{fill:#FF5F7D;stroke:#050505;stroke-width:0.75;stroke-miterlimit:10;}
	.st60{fill:#FEF0E1;stroke:#020202;stroke-width:0.75;stroke-miterlimit:10;}
	.st61{fill:#FF5F7D;stroke:#050505;stroke-width:0.25;stroke-miterlimit:10;}
	.st62{fill:#FFD258;stroke:#0A0A0A;stroke-width:0.75;stroke-miterlimit:10;}
	.st63{fill:#73B7A4;stroke:#020202;stroke-width:0.25;stroke-miterlimit:10;}
	.st64{fill:#FBCEC6;stroke:#020202;stroke-miterlimit:10;}
	.st65{fill:#73B7A4;stroke:#020202;stroke-width:0.75;stroke-miterlimit:10;}
	.st66{fill:#73B7A4;stroke:#070707;stroke-miterlimit:10;}
	.st67{fill:#FFFBF2;stroke:#070707;stroke-miterlimit:10;}
	.st68{fill:#E2B139;}
	.st69{fill:#FFFBF2;stroke:#020202;stroke-miterlimit:10;}
	.st70{fill:#ADCCFF;stroke:#020202;stroke-width:0.75;stroke-miterlimit:10;}
	.st71{fill:#FFFBF2;stroke:#020202;stroke-width:0.75;stroke-miterlimit:10;}
	.st72{fill:#FFD258;stroke:#050505;stroke-width:0.75;stroke-miterlimit:10;}
	.st73{fill:#FBCEC6;stroke:#020202;stroke-width:0.75;stroke-miterlimit:10;}
	.st74{fill:#73B7A4;stroke:#050505;stroke-miterlimit:10;}
	.st75{fill:#73B7A4;stroke:#050505;stroke-width:0.75;stroke-miterlimit:10;}
	.st76{fill:#E2C2A6;}
	.st77{fill:#DBC69E;}
	.st78{fill:#D39C94;}
	.st79{fill:#E0B344;}
	.st80{fill:#E0AE32;}
	.st81{fill:#4F9982;}
	.st82{fill:#DDBA9B;}
	.st83{fill:#FF5F7D;stroke:#000000;stroke-width:0.75;stroke-miterlimit:10;}
	.st84{fill:#FFD258;stroke:#000000;stroke-width:0.75;stroke-miterlimit:10;}
	.st85{fill:none;stroke:#000000;stroke-width:0.5;stroke-miterlimit:10;}
	.st86{opacity:0.43;fill:#7F3B48;}
	.st87{opacity:0.88;fill:#98BFFF;}
	.st88{opacity:0.75;fill:#FFFBF2;}
	.st89{opacity:0.88;fill:#719BD8;}
	.st90{opacity:0.75;fill:#EAD9B7;}
	.st91{fill:#FEF0E1;}
	.st92{fill:none;stroke:#070707;stroke-miterlimit:10;}
	.st93{fill:#C1962B;}
	.st94{fill:#D6B154;}
	.st95{fill:#5DA08B;}
	.st96{fill:#C6961E;}
</style>
<rect x="6.4" y="-2.9" class="st0" width="692.6" height="480"/>
<g id="MdLnQS.tif">
	<g>
		<path class="st40" d="M411.4,337.9c0,4.8,0.1,9.3,0,13.8c-0.1,2.9-2.1,4.8-4.7,4.8c-2.6,0-4.5-2-4.6-4.9c0-0.9,0-1.8,0-2.7
			c0-3.6,0-7.1,0-10.8c-37.4,0-74.5,0-112,0c0,4.5,0.2,9.1-0.1,13.6c-0.1,1.5-1.3,3.4-2.5,4.1c-1.2,0.7-3.5,0.5-4.6-0.3
			c-1.2-0.9-2-2.9-2.1-4.4c-0.3-4.3-0.1-8.6-0.1-13.2c-4.4,0-8.6,0-12.7,0c-7.4,0-13.9-2.4-18.9-8.1c-3.7-4.3-5.7-9.2-5.7-14.8
			c0-28.2-0.1-56.5,0-84.7c0.1-13.4,10.5-23,24.6-23.1c22.4,0,44.8,0,67.2,0c29.4,0,58.8,0,88.2,0c4.5,0,8.8,0.6,12.8,2.8
			c7.9,4.5,12.3,11.2,12.3,20.3c0.1,28.2,0.1,56.3,0,84.5c0,13.3-10.2,22.9-24.1,23.1C420.3,337.9,416,337.9,411.4,337.9z
			 M280.6,272.7c0-5.5,0-11,0-16.5c0-8.4,0-16.8,0-25.2c0-3.4-2.2-5.4-5.4-5c-2.5,0.3-3.8,2.2-3.8,5.5c0,27.3,0,54.6,0,81.9
			c0,0.5,0,1,0,1.5c0.3,2.5,2.2,4.2,4.7,4.2c2.8-0.1,4.5-2,4.5-5.4C280.6,300,280.6,286.3,280.6,272.7z M308.6,272.5c0-9,0-18,0-27
			c0-5,0.1-10,0-15c-0.1-3.2-2.5-5.1-5.5-4.6c-2.4,0.4-3.7,2.3-3.7,5.6c0,27.2,0,54.5,0,81.7c0,0.5,0,1,0,1.5
			c0.2,2.7,2.2,4.4,4.9,4.3c2.7-0.1,4.3-2,4.3-5.3C308.6,300,308.6,286.3,308.6,272.5z M327.4,272.2c0,9.7,0,19.3,0,29
			c0,4.4-0.1,8.8,0,13.2c0.1,2.9,2,4.7,4.8,4.6c2.9-0.1,4.4-2,4.4-5.7c0-24.4,0-48.8,0-73.2c0-3.2,0.1-6.5,0-9.7
			c-0.1-3.2-2.8-5.2-5.9-4.4c-2.1,0.5-3.3,2.4-3.3,5.2C327.4,244.9,327.4,258.6,327.4,272.2z M355.4,272.5c0,4.9,0,9.8,0,14.7
			c0,8.9,0,17.8,0,26.7c0,3.7,2.8,5.9,6,4.9c2.1-0.6,3.2-2.5,3.2-5.6c0-27.2,0-54.5,0-81.7c0-0.6,0-1.2-0.1-1.7
			c-0.3-2.3-2.1-3.9-4.4-4c-2.4-0.1-4.4,1.5-4.7,3.9c-0.1,0.8-0.1,1.7-0.1,2.5C355.4,245.7,355.4,259.1,355.4,272.5z M392.6,272.5
			c0-4.9,0-9.8,0-14.7c0-8.9,0-17.8,0-26.7c0-3.7-2.8-5.9-6-5c-2.1,0.6-3.2,2.5-3.2,5.6c0,27.2,0,54.5,0,81.7c0,0.4,0,0.8,0,1.2
			c0.2,2.7,2,4.5,4.7,4.5c2.6,0,4.4-1.8,4.5-4.6c0-0.7,0-1.3,0-2C392.6,299.1,392.6,285.8,392.6,272.5z M411.4,272.2
			c0,2.2,0,4.5,0,6.7c0,11.7,0,23.3,0,35c0,3.4,2,5.3,5,5.1c2.7-0.2,4.2-2.1,4.2-5.7c0-24.8,0-49.6,0-74.4c0-2.8,0.1-5.7,0-8.5
			c-0.1-3.3-3.1-5.4-6.1-4.3c-2.3,0.8-3.1,2.7-3.1,5.1C411.4,244.9,411.4,258.6,411.4,272.2z"/>
		<path class="st41" d="M351.1,137.6c-0.2,0.5-0.4,1.5-0.9,2.3c-5.3,7.5-4.2,14.9-0.4,22.6c2.3,4.6,4.2,9.4,5.3,14.4
			c1.6,7.1-1,13.4-5.1,19.2c-1.4,2-4.1,2.3-6.1,1c-2.1-1.3-2.8-3.8-1.6-6.1c0.3-0.5,0.6-1,0.9-1.5c3.1-4.8,3.8-9.9,1.7-15.2
			c-1.2-3.1-2.7-6.1-4.2-9c-5.1-10.4-5.2-20.5,1.5-30.2c1.4-2,3.2-2.9,5.6-2.2C349.8,133.4,350.9,134.9,351.1,137.6z"/>
		<path class="st41" d="M308.5,132.5c4.5,0,6.4,3.9,4.6,7.3c-1.4,2.6-2.8,5.3-3.5,8.2c-1.4,5.5,1,10.5,3.5,15.2
			c2.5,4.8,4.7,9.8,5.1,15.3c0.6,6.5-1.7,12.3-5.4,17.5c-1.4,2-4.1,2.3-6,1.1c-2.1-1.3-3.1-4-1.6-6.1c5.9-8.1,3.9-15.9-0.5-23.8
			c-4.4-8-6.7-16.4-3.1-25.4c1-2.5,2.2-4.9,3.7-7C306.1,133.6,307.8,133,308.5,132.5z"/>
		<path class="st41" d="M388.2,137.6c-0.1,0.4-0.3,1.4-0.8,2.1c-5.6,7.8-4.3,15.5-0.2,23.5c2,3.9,3.7,8.2,4.8,12.5
			c1.9,7.4-0.5,14.1-4.7,20.2c-1.4,2.1-4.2,2.5-6.2,1.2c-2.2-1.4-3-4.1-1.5-6.3c5.4-7.6,3.9-14.9,0-22.5c-1.9-3.7-3.5-7.7-4.6-11.8
			c-2.3-8,0.3-15.3,4.8-21.9c1.2-1.8,3.2-2.5,5.3-1.8C387,133.4,388.1,134.9,388.2,137.6z"/>
	</g>
</g>
</svg>
