<?xml version="1.0" encoding="utf-8"?>
<!-- Generator: Adobe Illustrator 22.1.0, SVG Export Plug-In . SVG Version: 6.00 Build 0)  -->
<svg version="1.1" id="Calque_1" xmlns="http://www.w3.org/2000/svg" xmlns:xlink="http://www.w3.org/1999/xlink" x="0px" y="0px"
	 viewBox="0 0 700 480" style="enable-background:new 0 0 700 480;" xml:space="preserve">
<style type="text/css">
	.st0{fill:#DAECFF;}
	.st1{fill:#FFD258;}
	.st2{fill:#FBCEC6;}
	.st3{fill:#ADCCFF;}
	.st4{fill:#FF5F7D;}
	.st5{fill:none;stroke:#000000;stroke-width:2;stroke-miterlimit:10;}
	.st6{fill:#FFFBF2;}
	.st7{fill:#73B7A4;}
	.st8{fill:none;stroke:#000000;stroke-miterlimit:10;}
	.st9{fill:#98BFFF;}
	.st10{fill:#FFD258;stroke:#000000;stroke-width:2;stroke-miterlimit:10;}
	.st11{fill:#FEF0E1;stroke:#070707;stroke-miterlimit:10;}
	.st12{fill:#D3A533;}
	.st13{fill:#FFB5C0;stroke:#020202;stroke-miterlimit:10;}
	.st14{fill:#FF8E9E;}
	.st15{fill:#FF8E9E;stroke:#000000;stroke-miterlimit:10;}
	.st16{fill:#EA5B70;}
	.st17{fill:#020202;}
	.st18{fill:#FFD258;stroke:#050505;stroke-width:0.5;stroke-miterlimit:10;}
	.st19{fill:#FEF0E1;stroke:#020202;stroke-width:0.5;stroke-miterlimit:10;}
	.st20{fill:#DDB143;}
	.st21{fill:#D6AF8B;}
	.st22{fill:#FFFBF2;stroke:#020202;stroke-width:2;stroke-miterlimit:10;}
	.st23{fill:#FF5F7D;stroke:#020202;stroke-width:2;stroke-miterlimit:10;}
	.st24{fill:#FFFFFF;}
	.st25{fill:#ADCCFF;stroke:#020202;stroke-width:2;stroke-miterlimit:10;}
	.st26{fill:#FFD258;stroke:#050505;stroke-width:2;stroke-miterlimit:10;}
	.st27{fill:#85AAE0;}
	.st28{fill:#C99E32;}
	.st29{fill:#FFCF47;stroke:#020202;stroke-miterlimit:10;}
	.st30{fill:#FF5F7D;stroke:#050505;stroke-width:2;stroke-miterlimit:10;}
	.st31{fill:#F36B7F;stroke:#000000;stroke-miterlimit:10;}
	.st32{fill:#DBA92C;}
	.st33{fill:#73B7A4;stroke:#020202;stroke-width:2;stroke-miterlimit:10;}
	.st34{fill:#FFCF47;stroke:#020202;stroke-width:2;stroke-miterlimit:10;}
	.st35{fill:#99C6B8;}
	.st36{fill:#E2B23B;}
	.st37{fill:#C11A3E;}
	.st38{fill:#FEF0E1;stroke:#020202;stroke-miterlimit:10;}
	.st39{fill:#ADCCFF;stroke:#020202;stroke-miterlimit:10;}
	.st40{fill:#FFD258;stroke:#0C0C0C;stroke-width:0.75;stroke-miterlimit:10;}
	.st41{fill:#ADCCFF;stroke:#050505;stroke-width:2;stroke-miterlimit:10;}
	.st42{fill:#73B7A4;stroke:#050505;stroke-width:2;stroke-miterlimit:10;}
	.st43{fill:#FFFBF2;stroke:#050505;stroke-width:2;stroke-miterlimit:10;}
	.st44{fill:#FEF0E1;stroke:#020202;stroke-width:2;stroke-miterlimit:10;}
	.st45{fill:#D8A830;}
	.st46{fill:#FF5F7D;stroke:#050505;stroke-miterlimit:10;}
	.st47{fill:#73B7A4;stroke:#020202;stroke-miterlimit:10;}
	.st48{fill:#E8D2BF;}
	.st49{fill:#FFD258;stroke:#0A0A0A;stroke-width:2;stroke-miterlimit:10;}
	.st50{fill:#D8AB3A;}
	.st51{fill:#FFD258;stroke:#050505;stroke-miterlimit:10;}
	.st52{fill:#FBCEC6;stroke:#070707;stroke-miterlimit:10;}
	.st53{fill:#D84161;}
	.st54{fill:#FFD258;stroke:#0A0A0A;stroke-miterlimit:10;}
	.st55{fill:#FFD258;stroke:#0A0A0A;stroke-width:3;stroke-miterlimit:10;}
	.st56{fill:none;stroke:#0A0A0A;stroke-width:2;stroke-miterlimit:10;}
	.st57{fill:#FF5F7D;stroke:#000000;stroke-miterlimit:10;}
	.st58{fill:#FFD258;stroke:#000000;stroke-miterlimit:10;}
	.st59{fill:#FF5F7D;stroke:#050505;stroke-width:0.75;stroke-miterlimit:10;}
	.st60{fill:#FEF0E1;stroke:#020202;stroke-width:0.75;stroke-miterlimit:10;}
	.st61{fill:#FF5F7D;stroke:#050505;stroke-width:0.25;stroke-miterlimit:10;}
	.st62{fill:#FFD258;stroke:#0A0A0A;stroke-width:0.75;stroke-miterlimit:10;}
	.st63{fill:#73B7A4;stroke:#020202;stroke-width:0.25;stroke-miterlimit:10;}
	.st64{fill:#FBCEC6;stroke:#020202;stroke-miterlimit:10;}
	.st65{fill:#73B7A4;stroke:#020202;stroke-width:0.75;stroke-miterlimit:10;}
	.st66{fill:#73B7A4;stroke:#070707;stroke-miterlimit:10;}
	.st67{fill:#FFFBF2;stroke:#070707;stroke-miterlimit:10;}
	.st68{fill:#E2B139;}
	.st69{fill:#FFFBF2;stroke:#020202;stroke-miterlimit:10;}
	.st70{fill:#ADCCFF;stroke:#020202;stroke-width:0.75;stroke-miterlimit:10;}
	.st71{fill:#FFFBF2;stroke:#020202;stroke-width:0.75;stroke-miterlimit:10;}
	.st72{fill:#FFD258;stroke:#050505;stroke-width:0.75;stroke-miterlimit:10;}
	.st73{fill:#FBCEC6;stroke:#020202;stroke-width:0.75;stroke-miterlimit:10;}
	.st74{fill:#73B7A4;stroke:#050505;stroke-miterlimit:10;}
	.st75{fill:#73B7A4;stroke:#050505;stroke-width:0.75;stroke-miterlimit:10;}
	.st76{fill:#E2C2A6;}
	.st77{fill:#DBC69E;}
	.st78{fill:#D39C94;}
	.st79{fill:#E0B344;}
	.st80{fill:#E0AE32;}
	.st81{fill:#4F9982;}
	.st82{fill:#DDBA9B;}
	.st83{fill:#FF5F7D;stroke:#000000;stroke-width:0.75;stroke-miterlimit:10;}
	.st84{fill:#FFD258;stroke:#000000;stroke-width:0.75;stroke-miterlimit:10;}
	.st85{fill:none;stroke:#000000;stroke-width:0.5;stroke-miterlimit:10;}
	.st86{opacity:0.43;fill:#7F3B48;}
	.st87{opacity:0.88;fill:#98BFFF;}
	.st88{opacity:0.75;fill:#FFFBF2;}
	.st89{opacity:0.88;fill:#719BD8;}
	.st90{opacity:0.75;fill:#EAD9B7;}
	.st91{fill:#FEF0E1;}
	.st92{fill:none;stroke:#070707;stroke-miterlimit:10;}
	.st93{fill:#C1962B;}
	.st94{fill:#D6B154;}
	.st95{fill:#5DA08B;}
	.st96{fill:#C6961E;}
</style>
<rect x="-2.8" y="4.3" class="st1" width="703.1" height="476.3"/>
<g id="LIisnw.tif">
	<g>
		<path class="st44" d="M351.6,268.9c-39.4,0.2-72-32.2-72.2-71.6c-0.2-40.2,32-72.7,72.1-72.8c39.6-0.1,72.1,32.1,72.2,71.6
			C423.8,236.3,391.7,268.7,351.6,268.9z M325.3,163.9c-3.6,0-6.6,2.9-6.7,6.4c-0.1,3.4,3.2,6.7,6.7,6.6c3.5-0.1,6.6-3.2,6.5-6.6
			C331.9,166.9,328.8,164,325.3,163.9z M358.1,183.6c0-3.5-2.8-6.5-6.4-6.6c-3.5-0.1-6.6,2.8-6.7,6.3c-0.1,3.7,2.8,6.7,6.5,6.7
			C355.1,190.1,358,187.2,358.1,183.6z M318.6,196.8c0.1-3.6-2.7-6.5-6.3-6.7c-3.6-0.1-6.8,2.9-6.8,6.5c0,3.5,2.9,6.4,6.5,6.5
			C315.7,203.2,318.6,200.4,318.6,196.8z M331.8,209.9c0,3.5,3.1,6.5,6.6,6.5c3.5,0,6.6-3,6.6-6.5c0-3.6-3.1-6.6-6.7-6.5
			C334.7,203.4,331.8,206.4,331.8,209.9z"/>
		<path class="st47" d="M344.8,335.4c-2-23.7-11.5-43.4-27.6-60.3c11,4.4,22.4,6.9,34.3,6.9c11.9,0,23.3-2.4,34.4-6.9
			c-16,16.9-25.7,36.5-27.5,60.2c1.1,0.1,2,0.1,2.8,0.1c5.3,0,10.7,0,16,0c4.2,0,7.1,2.6,7.2,6.3c0.1,3.7-2.9,6.7-7.1,6.7
			c-17.2,0.1-34.3,0.1-51.5,0c-4.2,0-7.1-2.8-7.1-6.5c0-3.8,2.9-6.5,7.3-6.5c5.2,0,10.5,0,15.7,0
			C342.6,335.4,343.5,335.4,344.8,335.4z"/>
		<path class="st1" d="M325.3,163.9c3.5,0,6.6,3,6.6,6.4c0,3.4-3.1,6.5-6.5,6.6c-3.5,0.1-6.8-3.2-6.7-6.6
			C318.7,166.9,321.7,163.9,325.3,163.9z"/>
		<path class="st1" d="M358.1,183.6c0,3.6-2.9,6.4-6.6,6.4c-3.7,0-6.6-3-6.5-6.7c0.1-3.5,3.2-6.4,6.7-6.3
			C355.2,177.2,358.1,180.1,358.1,183.6z"/>
		<path class="st1" d="M318.6,196.8c-0.1,3.6-2.9,6.4-6.6,6.3c-3.6,0-6.5-2.9-6.5-6.5c0-3.6,3.2-6.7,6.8-6.5
			C315.9,190.3,318.7,193.2,318.6,196.8z"/>
		<path class="st1" d="M331.8,209.9c0-3.5,2.9-6.5,6.4-6.6c3.7-0.1,6.8,2.9,6.7,6.5c0,3.5-3.1,6.5-6.6,6.5
			C334.9,216.4,331.8,213.4,331.8,209.9z"/>
		<path class="st48" d="M342.7,267.1c2.2,0.2,4.3,0.3,6.5,0.3c40.1-0.2,72.3-32.6,72.1-72.8c0-6.1-0.8-12.1-2.3-17.8
			C392.8,206.2,368.1,237,342.7,267.1z"/>
	</g>
</g>
</svg>
