<?xml version="1.0" encoding="utf-8"?>
<!-- Generator: Adobe Illustrator 22.1.0, SVG Export Plug-In . SVG Version: 6.00 Build 0)  -->
<svg version="1.1" id="Calque_1" xmlns="http://www.w3.org/2000/svg" xmlns:xlink="http://www.w3.org/1999/xlink" x="0px" y="0px"
	 viewBox="0 0 700 480" style="enable-background:new 0 0 700 480;" xml:space="preserve">
<style type="text/css">
	.st0{fill:#DAECFF;}
	.st1{fill:#FFD258;}
	.st2{fill:#FBCEC6;}
	.st3{fill:#ADCCFF;}
	.st4{fill:#FF5F7D;}
	.st5{fill:none;stroke:#000000;stroke-width:2;stroke-miterlimit:10;}
	.st6{fill:#FFFBF2;}
	.st7{fill:#73B7A4;}
	.st8{fill:none;stroke:#000000;stroke-miterlimit:10;}
	.st9{fill:#98BFFF;}
	.st10{fill:#FFD258;stroke:#000000;stroke-width:2;stroke-miterlimit:10;}
	.st11{fill:#FEF0E1;stroke:#070707;stroke-miterlimit:10;}
	.st12{fill:#D3A533;}
	.st13{fill:#FFB5C0;stroke:#020202;stroke-miterlimit:10;}
	.st14{fill:#FF8E9E;}
	.st15{fill:#FF8E9E;stroke:#000000;stroke-miterlimit:10;}
	.st16{fill:#EA5B70;}
	.st17{fill:#020202;}
	.st18{fill:#FFD258;stroke:#050505;stroke-width:0.5;stroke-miterlimit:10;}
	.st19{fill:#FEF0E1;stroke:#020202;stroke-width:0.5;stroke-miterlimit:10;}
	.st20{fill:#DDB143;}
	.st21{fill:#D6AF8B;}
	.st22{fill:#FFFBF2;stroke:#020202;stroke-width:2;stroke-miterlimit:10;}
	.st23{fill:#FF5F7D;stroke:#020202;stroke-width:2;stroke-miterlimit:10;}
	.st24{fill:#FFFFFF;}
	.st25{fill:#ADCCFF;stroke:#020202;stroke-width:2;stroke-miterlimit:10;}
	.st26{fill:#FFD258;stroke:#050505;stroke-width:2;stroke-miterlimit:10;}
	.st27{fill:#85AAE0;}
	.st28{fill:#C99E32;}
	.st29{fill:#FFCF47;stroke:#020202;stroke-miterlimit:10;}
	.st30{fill:#FF5F7D;stroke:#050505;stroke-width:2;stroke-miterlimit:10;}
	.st31{fill:#F36B7F;stroke:#000000;stroke-miterlimit:10;}
	.st32{fill:#DBA92C;}
	.st33{fill:#73B7A4;stroke:#020202;stroke-width:2;stroke-miterlimit:10;}
	.st34{fill:#FFCF47;stroke:#020202;stroke-width:2;stroke-miterlimit:10;}
	.st35{fill:#99C6B8;}
	.st36{fill:#E2B23B;}
	.st37{fill:#C11A3E;}
	.st38{fill:#FEF0E1;stroke:#020202;stroke-miterlimit:10;}
	.st39{fill:#ADCCFF;stroke:#020202;stroke-miterlimit:10;}
	.st40{fill:#FFD258;stroke:#0C0C0C;stroke-width:0.75;stroke-miterlimit:10;}
	.st41{fill:#ADCCFF;stroke:#050505;stroke-width:2;stroke-miterlimit:10;}
	.st42{fill:#73B7A4;stroke:#050505;stroke-width:2;stroke-miterlimit:10;}
	.st43{fill:#FFFBF2;stroke:#050505;stroke-width:2;stroke-miterlimit:10;}
	.st44{fill:#FEF0E1;stroke:#020202;stroke-width:2;stroke-miterlimit:10;}
	.st45{fill:#D8A830;}
	.st46{fill:#FF5F7D;stroke:#050505;stroke-miterlimit:10;}
	.st47{fill:#73B7A4;stroke:#020202;stroke-miterlimit:10;}
	.st48{fill:#E8D2BF;}
	.st49{fill:#FFD258;stroke:#0A0A0A;stroke-width:2;stroke-miterlimit:10;}
	.st50{fill:#D8AB3A;}
	.st51{fill:#FFD258;stroke:#050505;stroke-miterlimit:10;}
	.st52{fill:#FBCEC6;stroke:#070707;stroke-miterlimit:10;}
	.st53{fill:#D84161;}
	.st54{fill:#FFD258;stroke:#0A0A0A;stroke-miterlimit:10;}
	.st55{fill:#FFD258;stroke:#0A0A0A;stroke-width:3;stroke-miterlimit:10;}
	.st56{fill:none;stroke:#0A0A0A;stroke-width:2;stroke-miterlimit:10;}
	.st57{fill:#FF5F7D;stroke:#000000;stroke-miterlimit:10;}
	.st58{fill:#FFD258;stroke:#000000;stroke-miterlimit:10;}
	.st59{fill:#FF5F7D;stroke:#050505;stroke-width:0.75;stroke-miterlimit:10;}
	.st60{fill:#FEF0E1;stroke:#020202;stroke-width:0.75;stroke-miterlimit:10;}
	.st61{fill:#FF5F7D;stroke:#050505;stroke-width:0.25;stroke-miterlimit:10;}
	.st62{fill:#FFD258;stroke:#0A0A0A;stroke-width:0.75;stroke-miterlimit:10;}
	.st63{fill:#73B7A4;stroke:#020202;stroke-width:0.25;stroke-miterlimit:10;}
	.st64{fill:#FBCEC6;stroke:#020202;stroke-miterlimit:10;}
	.st65{fill:#73B7A4;stroke:#020202;stroke-width:0.75;stroke-miterlimit:10;}
	.st66{fill:#73B7A4;stroke:#070707;stroke-miterlimit:10;}
	.st67{fill:#FFFBF2;stroke:#070707;stroke-miterlimit:10;}
	.st68{fill:#E2B139;}
	.st69{fill:#FFFBF2;stroke:#020202;stroke-miterlimit:10;}
	.st70{fill:#ADCCFF;stroke:#020202;stroke-width:0.75;stroke-miterlimit:10;}
	.st71{fill:#FFFBF2;stroke:#020202;stroke-width:0.75;stroke-miterlimit:10;}
	.st72{fill:#FFD258;stroke:#050505;stroke-width:0.75;stroke-miterlimit:10;}
	.st73{fill:#FBCEC6;stroke:#020202;stroke-width:0.75;stroke-miterlimit:10;}
	.st74{fill:#73B7A4;stroke:#050505;stroke-miterlimit:10;}
	.st75{fill:#73B7A4;stroke:#050505;stroke-width:0.75;stroke-miterlimit:10;}
	.st76{fill:#E2C2A6;}
	.st77{fill:#DBC69E;}
	.st78{fill:#D39C94;}
	.st79{fill:#E0B344;}
	.st80{fill:#E0AE32;}
	.st81{fill:#4F9982;}
	.st82{fill:#DDBA9B;}
	.st83{fill:#FF5F7D;stroke:#000000;stroke-width:0.75;stroke-miterlimit:10;}
	.st84{fill:#FFD258;stroke:#000000;stroke-width:0.75;stroke-miterlimit:10;}
	.st85{fill:none;stroke:#000000;stroke-width:0.5;stroke-miterlimit:10;}
	.st86{opacity:0.43;fill:#7F3B48;}
	.st87{opacity:0.88;fill:#98BFFF;}
	.st88{opacity:0.75;fill:#FFFBF2;}
	.st89{opacity:0.88;fill:#719BD8;}
	.st90{opacity:0.75;fill:#EAD9B7;}
	.st91{fill:#FEF0E1;}
	.st92{fill:none;stroke:#070707;stroke-miterlimit:10;}
	.st93{fill:#C1962B;}
	.st94{fill:#D6B154;}
	.st95{fill:#5DA08B;}
	.st96{fill:#C6961E;}
</style>
<rect x="3.5" y="4.7" class="st0" width="692.6" height="480"/>
<g id="nlFGnf.tif">
	<g>
		<path class="st26" d="M275.1,166.4c-4.2,0-7.9,0-11.7,0c-4.7,0-6.3-1.7-6.3-6.4c0-8.3,0-16.7,0-25c0-4.4,1.6-6,6.1-6
			c16.4,0,32.8,0,49.2,0c7.9,0,14,3.4,17.4,10.4c3.7,7.5,2.3,14.6-3.1,21.1c-16.7,19.9-30,41.8-37.4,66.8
			c-3.1,10.4-4.8,21.1-3.9,32.1c0.8,10.4,4.7,19.8,11.2,27.9c12.5,15.6,28.6,25.2,48.5,28.1c8.1,1.2,16-0.3,23.6-2.9
			c13.6-4.7,25.2-12.4,34.4-23.5c10.6-12.7,14.2-27.3,12.2-43.6c-3-24.3-13.3-45.5-26.6-65.5c-4.5-6.7-9.5-13.1-14.6-19.3
			c-5.3-6.5-6.6-13.5-3-20.9c3.4-7,9.5-10.4,17.4-10.4c16.4,0,32.8,0,49.2,0c4.5,0,6.1,1.6,6.1,6c0,8.5,0,17,0,25.5
			c0,4-1.7,5.8-5.7,5.9c-3.9,0.1-7.8,0-12.2,0c0.6,1.1,1,1.8,1.4,2.5c11.2,19.2,19.4,39.5,23.4,61.5c4,21.8,3.2,43.1-5.9,63.6
			c-11.1,25-30.1,41.7-55.3,51.2c-41.5,15.6-79,7.6-112.1-21c-16.3-14.1-25-33.1-28.4-54.2c-3.3-20.4,0.2-40.3,6.2-59.8
			c4.3-14.2,10.6-27.6,18-40.5C273.8,168.7,274.3,167.8,275.1,166.4z M266.4,250.3c5.1,0.1,9.5-4.2,9.5-9.3c0-5-4.1-9.2-9.1-9.4
			c-5-0.2-9.5,4.1-9.6,9.1C257,245.9,261.3,250.2,266.4,250.3z M443.9,241c0-5.1-4.4-9.4-9.5-9.3c-5,0.1-9.2,4.2-9.3,9.2
			c-0.1,5.1,4.2,9.4,9.3,9.4C439.6,250.3,443.9,246,443.9,241z M294.5,185.1c0-5.1-4.2-9.4-9.3-9.4c-5,0-9.2,4.1-9.3,9.1
			c-0.1,5.2,4,9.4,9.2,9.5C290.1,194.4,294.5,190.2,294.5,185.1z M425.1,184.9c0-5.1-4.3-9.4-9.4-9.3c-5,0.1-9.2,4.3-9.2,9.3
			c0,5.1,4.2,9.4,9.3,9.4C421,194.3,425.1,190.1,425.1,184.9z M285.1,296.9c0-5.1-4.3-9.4-9.4-9.2c-5,0.1-9.2,4.3-9.2,9.3
			c0,5.1,4.2,9.4,9.3,9.4C281,306.3,285.1,302.1,285.1,296.9z M415.9,296.8c-0.1,5.2,4,9.4,9.2,9.5c5,0.1,9.3-4.1,9.4-9
			c0.1-5.2-4.2-9.6-9.4-9.6C420.1,287.7,415.9,291.8,415.9,296.8z M322.5,325.1c0-5.1-4.2-9.4-9.3-9.4c-5,0-9.2,4.1-9.3,9.1
			c-0.1,5.2,4,9.4,9.2,9.5C318.1,334.4,322.5,330.2,322.5,325.1z M397.1,325.1c0-5.2-4.1-9.4-9.3-9.4c-5,0-9.3,4.1-9.3,9.1
			c-0.1,5.1,4,9.4,9.2,9.5C392.8,334.4,397.1,330.2,397.1,325.1z"/>
	</g>
</g>
</svg>
