<?xml version="1.0" encoding="utf-8"?>
<!-- Generator: Adobe Illustrator 22.1.0, SVG Export Plug-In . SVG Version: 6.00 Build 0)  -->
<svg version="1.1" id="Calque_1" xmlns="http://www.w3.org/2000/svg" xmlns:xlink="http://www.w3.org/1999/xlink" x="0px" y="0px"
	 viewBox="0 0 700 480" style="enable-background:new 0 0 700 480;" xml:space="preserve">
<style type="text/css">
	.st0{fill:#DAECFF;}
	.st1{fill:#FFD258;}
	.st2{fill:#FBCEC6;}
	.st3{fill:#ADCCFF;}
	.st4{fill:#FF5F7D;}
	.st5{fill:none;stroke:#000000;stroke-width:2;stroke-miterlimit:10;}
	.st6{fill:#FFFBF2;}
	.st7{fill:#73B7A4;}
	.st8{fill:none;stroke:#000000;stroke-miterlimit:10;}
	.st9{fill:#98BFFF;}
	.st10{fill:#FFD258;stroke:#000000;stroke-width:2;stroke-miterlimit:10;}
	.st11{fill:#FEF0E1;stroke:#070707;stroke-miterlimit:10;}
	.st12{fill:#D3A533;}
	.st13{fill:#FFB5C0;stroke:#020202;stroke-miterlimit:10;}
	.st14{fill:#FF8E9E;}
	.st15{fill:#FF8E9E;stroke:#000000;stroke-miterlimit:10;}
	.st16{fill:#EA5B70;}
	.st17{fill:#020202;}
	.st18{fill:#FFD258;stroke:#050505;stroke-width:0.5;stroke-miterlimit:10;}
	.st19{fill:#FEF0E1;stroke:#020202;stroke-width:0.5;stroke-miterlimit:10;}
	.st20{fill:#DDB143;}
	.st21{fill:#D6AF8B;}
	.st22{fill:#FFFBF2;stroke:#020202;stroke-width:2;stroke-miterlimit:10;}
	.st23{fill:#FF5F7D;stroke:#020202;stroke-width:2;stroke-miterlimit:10;}
	.st24{fill:#FFFFFF;}
	.st25{fill:#ADCCFF;stroke:#020202;stroke-width:2;stroke-miterlimit:10;}
	.st26{fill:#FFD258;stroke:#050505;stroke-width:2;stroke-miterlimit:10;}
	.st27{fill:#85AAE0;}
	.st28{fill:#C99E32;}
	.st29{fill:#FFCF47;stroke:#020202;stroke-miterlimit:10;}
	.st30{fill:#FF5F7D;stroke:#050505;stroke-width:2;stroke-miterlimit:10;}
	.st31{fill:#F36B7F;stroke:#000000;stroke-miterlimit:10;}
	.st32{fill:#DBA92C;}
	.st33{fill:#73B7A4;stroke:#020202;stroke-width:2;stroke-miterlimit:10;}
	.st34{fill:#FFCF47;stroke:#020202;stroke-width:2;stroke-miterlimit:10;}
	.st35{fill:#99C6B8;}
	.st36{fill:#E2B23B;}
	.st37{fill:#C11A3E;}
	.st38{fill:#FEF0E1;stroke:#020202;stroke-miterlimit:10;}
	.st39{fill:#ADCCFF;stroke:#020202;stroke-miterlimit:10;}
	.st40{fill:#FFD258;stroke:#0C0C0C;stroke-width:0.75;stroke-miterlimit:10;}
	.st41{fill:#ADCCFF;stroke:#050505;stroke-width:2;stroke-miterlimit:10;}
	.st42{fill:#73B7A4;stroke:#050505;stroke-width:2;stroke-miterlimit:10;}
	.st43{fill:#FFFBF2;stroke:#050505;stroke-width:2;stroke-miterlimit:10;}
	.st44{fill:#FEF0E1;stroke:#020202;stroke-width:2;stroke-miterlimit:10;}
	.st45{fill:#D8A830;}
	.st46{fill:#FF5F7D;stroke:#050505;stroke-miterlimit:10;}
	.st47{fill:#73B7A4;stroke:#020202;stroke-miterlimit:10;}
	.st48{fill:#E8D2BF;}
	.st49{fill:#FFD258;stroke:#0A0A0A;stroke-width:2;stroke-miterlimit:10;}
	.st50{fill:#D8AB3A;}
	.st51{fill:#FFD258;stroke:#050505;stroke-miterlimit:10;}
	.st52{fill:#FBCEC6;stroke:#070707;stroke-miterlimit:10;}
	.st53{fill:#D84161;}
	.st54{fill:#FFD258;stroke:#0A0A0A;stroke-miterlimit:10;}
	.st55{fill:#FFD258;stroke:#0A0A0A;stroke-width:3;stroke-miterlimit:10;}
	.st56{fill:none;stroke:#0A0A0A;stroke-width:2;stroke-miterlimit:10;}
	.st57{fill:#FF5F7D;stroke:#000000;stroke-miterlimit:10;}
	.st58{fill:#FFD258;stroke:#000000;stroke-miterlimit:10;}
	.st59{fill:#FF5F7D;stroke:#050505;stroke-width:0.75;stroke-miterlimit:10;}
	.st60{fill:#FEF0E1;stroke:#020202;stroke-width:0.75;stroke-miterlimit:10;}
	.st61{fill:#FF5F7D;stroke:#050505;stroke-width:0.25;stroke-miterlimit:10;}
	.st62{fill:#FFD258;stroke:#0A0A0A;stroke-width:0.75;stroke-miterlimit:10;}
	.st63{fill:#73B7A4;stroke:#020202;stroke-width:0.25;stroke-miterlimit:10;}
	.st64{fill:#FBCEC6;stroke:#020202;stroke-miterlimit:10;}
	.st65{fill:#73B7A4;stroke:#020202;stroke-width:0.75;stroke-miterlimit:10;}
	.st66{fill:#73B7A4;stroke:#070707;stroke-miterlimit:10;}
	.st67{fill:#FFFBF2;stroke:#070707;stroke-miterlimit:10;}
	.st68{fill:#E2B139;}
	.st69{fill:#FFFBF2;stroke:#020202;stroke-miterlimit:10;}
	.st70{fill:#ADCCFF;stroke:#020202;stroke-width:0.75;stroke-miterlimit:10;}
	.st71{fill:#FFFBF2;stroke:#020202;stroke-width:0.75;stroke-miterlimit:10;}
	.st72{fill:#FFD258;stroke:#050505;stroke-width:0.75;stroke-miterlimit:10;}
	.st73{fill:#FBCEC6;stroke:#020202;stroke-width:0.75;stroke-miterlimit:10;}
	.st74{fill:#73B7A4;stroke:#050505;stroke-miterlimit:10;}
	.st75{fill:#73B7A4;stroke:#050505;stroke-width:0.75;stroke-miterlimit:10;}
	.st76{fill:#E2C2A6;}
	.st77{fill:#DBC69E;}
	.st78{fill:#D39C94;}
	.st79{fill:#E0B344;}
	.st80{fill:#E0AE32;}
	.st81{fill:#4F9982;}
	.st82{fill:#DDBA9B;}
	.st83{fill:#FF5F7D;stroke:#000000;stroke-width:0.75;stroke-miterlimit:10;}
	.st84{fill:#FFD258;stroke:#000000;stroke-width:0.75;stroke-miterlimit:10;}
	.st85{fill:none;stroke:#000000;stroke-width:0.5;stroke-miterlimit:10;}
	.st86{opacity:0.43;fill:#7F3B48;}
	.st87{opacity:0.88;fill:#98BFFF;}
	.st88{opacity:0.75;fill:#FFFBF2;}
	.st89{opacity:0.88;fill:#719BD8;}
	.st90{opacity:0.75;fill:#EAD9B7;}
	.st91{fill:#FEF0E1;}
	.st92{fill:none;stroke:#070707;stroke-miterlimit:10;}
	.st93{fill:#C1962B;}
	.st94{fill:#D6B154;}
	.st95{fill:#5DA08B;}
	.st96{fill:#C6961E;}
	.st97{fill:#FF5F7D;stroke:#FFFFFF;stroke-miterlimit:10;}
	.st98{fill:#FF5F7D;stroke:#070707;stroke-miterlimit:10;}
</style>
<rect x="4.8" y="3.3" class="st0" width="699.7" height="480"/>
<g id="yaIxzN.tif">
	<g>
		<path class="st62" d="M308.5,295.8c5.3,0,9.6,0,16.5,0c-3.1-9.9-6.1-18.5-8.3-27.3c-0.9-3.6-1.4-9.5,0.7-11.3
			c7.8-7,16.7-12.6,25.1-18.9c5.4-4,11.3-7.6,15.9-12.4c4.3-4.5,7.3-10.4,10.8-15.7c6.9-10.7,16.8-17.1,29.4-19.8
			c0-4.7,0-8.9,0-14.1c-4.9-0.4-9.8,0.1-14-1.4c-3.1-1.1-5.3-4.7-8-7.2c2.7-2.5,5.1-6.6,8.1-7.1c37.6-5.8,75.6,28.5,74.6,66.8
			c-0.4,13.5-7.9,21.5-21.4,23.6c-9,1.4-17.9,3.5-27.8,5.5c5.2,9.7,9.3,14,19.8,11.1c17.6-4.9,34.8,4.9,42,21.3
			c7.2,16.3,2,35.1-12.7,45.7c-14.2,10.2-33.1,9.3-46.5-2.3c-13.3-11.5-16.6-30.6-8.1-46.7c0.9-1.8,2.1-3.4,3.5-5.8
			c-3-3.6-6.1-7.4-9.5-11.5c-9,9.3-13.5,19.5-14,31.2c-0.4,9-4.4,12.3-13.4,12.1c-19.5-0.4-38.9,0-58.4-0.2
			c-5.3-0.1-8.2,1.4-10.9,6.3c-11.1,20.3-32.9,28.6-54,21.5c-20.3-6.9-33.5-28.2-30.3-49c3.3-21.9,21.6-38.4,43.5-39.1
			c21.8-0.7,40.5,14.2,45.7,36.4C307.5,290.1,307.9,292.7,308.5,295.8z M291.6,296.4c0-16.8-11-28.5-26.5-29.8
			c-15.7-1.2-29.5,9.2-32,24.2c-2.6,15.7,6.3,30.4,20.8,34.5c13.7,3.9,27.9-2,32.2-13.9c-5.5,0-10.9,0.3-16.2-0.1
			c-11.7-0.9-20.3-8-21.5-18.7c-0.4-3.4,2.8-7.2,4.3-10.8c3.2,2.1,8.2,3.5,9.2,6.3c2.3,6.2,5.9,8.4,12,8.2
			C279.6,296.3,285.2,296.4,291.6,296.4z M430.9,283.5c4.2,5.2,8.6,9.2,10.9,14.2c1.5,3.3,0,8-0.1,12.1c-3.8-0.9-8.4-0.7-11.1-2.9
			c-4.6-3.8-8.1-9-12.5-14.3c-5.1,13.4-2.4,23.3,6.9,29.7c8.4,5.7,20.3,4.8,27.7-2.2c7-6.6,9-18.3,4.4-26.7
			C452.1,284,442.9,280.2,430.9,283.5z"/>
		<path class="st62" d="M301.4,250.1c-14-12.8-31.8-13.4-49.6-14.8c-18.1-1.4-31.4-14.3-34.1-31.5c-1.5-9.5,1.4-12.5,11-13.3
			c18.9-1.5,35.9,1.5,51.9,13.1c13.4,9.7,28.6,16.9,43.2,25.2C316.9,235.4,309.7,242.2,301.4,250.1z"/>
		<path class="st62" d="M302.2,201c16.8-25.7,45.6-32,69.3-17.8c-7.7,10.3-15.3,20.8-23.4,30.9c-1.5,1.9-5.9,3.2-8.1,2.4
			C327.6,211.9,315.4,206.5,302.2,201z"/>
	</g>
</g>
</svg>
