<?xml version="1.0" encoding="utf-8"?>
<!-- Generator: Adobe Illustrator 22.1.0, SVG Export Plug-In . SVG Version: 6.00 Build 0)  -->
<svg version="1.1" id="Calque_1" xmlns="http://www.w3.org/2000/svg" xmlns:xlink="http://www.w3.org/1999/xlink" x="0px" y="0px"
	 viewBox="0 0 700 480" style="enable-background:new 0 0 700 480;" xml:space="preserve">
<style type="text/css">
	.st0{fill:#DAECFF;}
	.st1{fill:#FFD258;}
	.st2{fill:#FBCEC6;}
	.st3{fill:#ADCCFF;}
	.st4{fill:#FF5F7D;}
	.st5{fill:none;stroke:#000000;stroke-width:2;stroke-miterlimit:10;}
	.st6{fill:#FFFBF2;}
	.st7{fill:#73B7A4;}
	.st8{fill:none;stroke:#000000;stroke-miterlimit:10;}
	.st9{fill:#98BFFF;}
	.st10{fill:#FFD258;stroke:#000000;stroke-width:2;stroke-miterlimit:10;}
	.st11{fill:#FEF0E1;stroke:#070707;stroke-miterlimit:10;}
	.st12{fill:#D3A533;}
	.st13{fill:#FFB5C0;stroke:#020202;stroke-miterlimit:10;}
	.st14{fill:#FF8E9E;}
	.st15{fill:#FF8E9E;stroke:#000000;stroke-miterlimit:10;}
	.st16{fill:#EA5B70;}
	.st17{fill:#020202;}
	.st18{fill:#FFD258;stroke:#050505;stroke-width:0.5;stroke-miterlimit:10;}
	.st19{fill:#FEF0E1;stroke:#020202;stroke-width:0.5;stroke-miterlimit:10;}
	.st20{fill:#DDB143;}
	.st21{fill:#D6AF8B;}
	.st22{fill:#FFFBF2;stroke:#020202;stroke-width:2;stroke-miterlimit:10;}
	.st23{fill:#FF5F7D;stroke:#020202;stroke-width:2;stroke-miterlimit:10;}
	.st24{fill:#FFFFFF;}
	.st25{fill:#ADCCFF;stroke:#020202;stroke-width:2;stroke-miterlimit:10;}
	.st26{fill:#FFD258;stroke:#050505;stroke-width:2;stroke-miterlimit:10;}
	.st27{fill:#85AAE0;}
	.st28{fill:#C99E32;}
	.st29{fill:#FFCF47;stroke:#020202;stroke-miterlimit:10;}
	.st30{fill:#FF5F7D;stroke:#050505;stroke-width:2;stroke-miterlimit:10;}
	.st31{fill:#F36B7F;stroke:#000000;stroke-miterlimit:10;}
	.st32{fill:#DBA92C;}
	.st33{fill:#73B7A4;stroke:#020202;stroke-width:2;stroke-miterlimit:10;}
	.st34{fill:#FFCF47;stroke:#020202;stroke-width:2;stroke-miterlimit:10;}
	.st35{fill:#99C6B8;}
	.st36{fill:#E2B23B;}
	.st37{fill:#C11A3E;}
	.st38{fill:#FEF0E1;stroke:#020202;stroke-miterlimit:10;}
	.st39{fill:#ADCCFF;stroke:#020202;stroke-miterlimit:10;}
	.st40{fill:#FFD258;stroke:#0C0C0C;stroke-width:0.75;stroke-miterlimit:10;}
	.st41{fill:#ADCCFF;stroke:#050505;stroke-width:2;stroke-miterlimit:10;}
	.st42{fill:#73B7A4;stroke:#050505;stroke-width:2;stroke-miterlimit:10;}
	.st43{fill:#FFFBF2;stroke:#050505;stroke-width:2;stroke-miterlimit:10;}
	.st44{fill:#FEF0E1;stroke:#020202;stroke-width:2;stroke-miterlimit:10;}
	.st45{fill:#D8A830;}
	.st46{fill:#FF5F7D;stroke:#050505;stroke-miterlimit:10;}
	.st47{fill:#73B7A4;stroke:#020202;stroke-miterlimit:10;}
	.st48{fill:#E8D2BF;}
	.st49{fill:#FFD258;stroke:#0A0A0A;stroke-width:2;stroke-miterlimit:10;}
	.st50{fill:#D8AB3A;}
	.st51{fill:#FFD258;stroke:#050505;stroke-miterlimit:10;}
	.st52{fill:#FBCEC6;stroke:#070707;stroke-miterlimit:10;}
	.st53{fill:#D84161;}
	.st54{fill:#FFD258;stroke:#0A0A0A;stroke-miterlimit:10;}
	.st55{fill:#FFD258;stroke:#0A0A0A;stroke-width:3;stroke-miterlimit:10;}
	.st56{fill:none;stroke:#0A0A0A;stroke-width:2;stroke-miterlimit:10;}
	.st57{fill:#FF5F7D;stroke:#000000;stroke-miterlimit:10;}
	.st58{fill:#FFD258;stroke:#000000;stroke-miterlimit:10;}
	.st59{fill:#FF5F7D;stroke:#050505;stroke-width:0.75;stroke-miterlimit:10;}
	.st60{fill:#FEF0E1;stroke:#020202;stroke-width:0.75;stroke-miterlimit:10;}
	.st61{fill:#FF5F7D;stroke:#050505;stroke-width:0.25;stroke-miterlimit:10;}
	.st62{fill:#FFD258;stroke:#0A0A0A;stroke-width:0.75;stroke-miterlimit:10;}
	.st63{fill:#73B7A4;stroke:#020202;stroke-width:0.25;stroke-miterlimit:10;}
	.st64{fill:#FBCEC6;stroke:#020202;stroke-miterlimit:10;}
	.st65{fill:#73B7A4;stroke:#020202;stroke-width:0.75;stroke-miterlimit:10;}
	.st66{fill:#73B7A4;stroke:#070707;stroke-miterlimit:10;}
	.st67{fill:#FFFBF2;stroke:#070707;stroke-miterlimit:10;}
	.st68{fill:#E2B139;}
	.st69{fill:#FFFBF2;stroke:#020202;stroke-miterlimit:10;}
	.st70{fill:#ADCCFF;stroke:#020202;stroke-width:0.75;stroke-miterlimit:10;}
	.st71{fill:#FFFBF2;stroke:#020202;stroke-width:0.75;stroke-miterlimit:10;}
	.st72{fill:#FFD258;stroke:#050505;stroke-width:0.75;stroke-miterlimit:10;}
	.st73{fill:#FBCEC6;stroke:#020202;stroke-width:0.75;stroke-miterlimit:10;}
	.st74{fill:#73B7A4;stroke:#050505;stroke-miterlimit:10;}
	.st75{fill:#73B7A4;stroke:#050505;stroke-width:0.75;stroke-miterlimit:10;}
	.st76{fill:#E2C2A6;}
	.st77{fill:#DBC69E;}
	.st78{fill:#D39C94;}
	.st79{fill:#E0B344;}
	.st80{fill:#E0AE32;}
	.st81{fill:#4F9982;}
	.st82{fill:#DDBA9B;}
	.st83{fill:#FF5F7D;stroke:#000000;stroke-width:0.75;stroke-miterlimit:10;}
	.st84{fill:#FFD258;stroke:#000000;stroke-width:0.75;stroke-miterlimit:10;}
	.st85{fill:none;stroke:#000000;stroke-width:0.5;stroke-miterlimit:10;}
	.st86{opacity:0.43;fill:#7F3B48;}
	.st87{opacity:0.88;fill:#98BFFF;}
	.st88{opacity:0.75;fill:#FFFBF2;}
	.st89{opacity:0.88;fill:#719BD8;}
	.st90{opacity:0.75;fill:#EAD9B7;}
	.st91{fill:#FEF0E1;}
	.st92{fill:none;stroke:#070707;stroke-miterlimit:10;}
	.st93{fill:#C1962B;}
	.st94{fill:#D6B154;}
	.st95{fill:#5DA08B;}
	.st96{fill:#C6961E;}
</style>
<rect x="-1.6" y="4.3" class="st1" width="703.1" height="476.3"/>
<g id="Y6Hs4c.tif">
	<g>
		<path class="st38" d="M375.2,290.6c10.8,0.3,20.1-3.6,27.3-12.3c-4.9-5.9-11-9.7-18.6-11.5c4.1-6.7,5.8-13.6,4.9-21.3
			c-7.5-0.6-14.5,0.9-21.2,4.9c-1.7-7.6-6-13.4-11.5-18.5c-5.6,5.1-9.8,10.9-11.6,18.5c-6.6-3.9-13.5-5.4-21.2-4.9
			c-0.9,7.6,0.9,14.5,4.9,21.3c-7.5,1.8-13.6,5.6-18.6,11.5c7.3,8.6,16.5,12.6,27.3,12.2c-8.4,8.4-16.9,16.9-25.3,25.3
			c-2.4-4.2-5.2-8.8-7.8-13.4c-0.4-0.7-0.3-1.7-0.2-2.5c1.2-6.1,2.4-12.2,3.6-18.4c0.1-0.7,0.2-1.4,0.3-2.2
			c-5.3-1.3-10.5-2.7-15.9-4c1.3-5.4,2.6-10.8,4-16.3c-5.8-1.5-11.2-3.1-16.8-4.2c-2.9-0.6-4.5-2-5.4-5.1c2.9,0,5.6-0.2,8.4,0.1
			c2.2,0.2,3.6-0.5,4.7-2.4c1.2-2.2,2.8-4.2,4.4-6.5c1.2,1.8,2.2,3.3,3.3,4.8c2.5,3.5,6.7,4.9,10.8,3.6c3.5-1.1,6.6-4.9,6.3-8.8
			c-0.5-6.6-1.4-13.1-2.2-19.6c-1.1-8.2-2.2-16.4-3.4-24.6c-0.1-0.7-0.1-1.4-0.2-2.5c2.8,0.9,5.5,1.6,7.9,2.7c2.3,1,4,0.6,5.4-1.3
			c0.5-0.6,1.1-1.1,2-1.9c1.1,6.8,2.2,13.1,3.3,19.5c1,5.7,1.8,11.5,2.8,17.2c0.9,5.2,4.5,8,9.4,7.6c4.6-0.4,7.6-4,7.6-9.1
			c0-3.6,0-7.2,0-10.9c5.5,0,10.7,0,16.3,0c0,3.9-0.1,7.7,0,11.6c0.1,4.7,3.2,8.1,7.7,8.5c4.6,0.4,8.2-2.4,9.2-7.2
			c0.5-2.7,0.9-5.4,1.4-8.1c2.3-13.9,4.6-27.7,7-42c2.3,1.4,4.4,3.3,6.7,3.9c2.3,0.5,4.8-0.3,7.5-0.6c-0.6,4-1.2,8.2-1.8,12.5
			c-1.6,10.9-3.3,21.7-4.9,32.6c-0.2,1.7-0.3,3.5,0,5.3c0.5,4,3.7,7.1,7.6,7.7c4,0.6,7.7-1.2,9.6-5c5.3-10.6,10.6-21.2,15.9-31.8
			c0.4-0.8,0.9-1.7,1.4-2.7c4.5,1.8,8.9,3.6,13.5,5.4c-0.2,0.9-0.3,1.6-0.6,2.4c-3.2,10.3-6.3,20.7-9.6,31c-0.4,1.2-1.5,2.5-2.7,3.2
			c-5.3,2.8-10.6,5.4-16.3,8.2c2.7,5.4,5.3,10.8,8.1,16.3c-5.5,2.8-10.8,5.4-16.3,8.2c2.9,5.7,5.6,11.3,8.4,16.8
			c0.9,1.6,1.1,3,0.1,4.6c-3.8,6.2-7.6,12.4-11.2,18.4C392.2,307.6,383.7,299.1,375.2,290.6z M433.4,213.2c-2.6,0-5.2,0-7.8,0
			c0,2.7,0,5.3,0,7.9c2.7,0,5.2,0,7.8,0C433.4,218.5,433.4,216.1,433.4,213.2z"/>
		<path class="st38" d="M319.2,339.6c2.2,0,3.9-0.1,5.5,0c2.1,0.2,2.9-0.5,2.9-2.7c-0.1-7.2,0-14.4-0.1-21.7c0-1.8,0.4-3.1,1.8-4.4
			c2-1.8,3.8-3.9,6.2-6.4c0,6.7,0,12.6,0,18.7c2.8,0,5.3,0,8.2,0c0.1-0.8,0.2-1.8,0.2-2.7c0-7.2-0.1-14.4,0.1-21.7
			c0-1.4,0.8-3,1.7-4.1c1.8-2.1,3.9-4,6.3-6.5c0,4.3,0,8,0,11.6c0,3.6,0,7.2,0,11c2.6,0,5.1,0,8.1,0c0-3.7,0-7.3,0-11
			c0-3.6,0-7.2,0-11.7c3,3,5.5,5.5,7.9,8.1c0.4,0.5,0.3,1.5,0.3,2.3c0,7.2,0,14.4,0,21.7c0,0.9,0,1.9,0,3c2.7,0,5.2,0,7.9,0
			c0-5.9,0-11.9,0-17.8c0.2-0.1,0.4-0.2,0.7-0.3c2.5,2.5,5,5,7.4,7.5c0.4,0.5,0.3,1.5,0.3,2.3c0,7.2,0,14.4,0,21.7c0,0.9,0,1.9,0,3
			c2.7,0,5.2,0,7.9,0c0-5.9,0-11.9,0-18.3c2.7,1.9,4.4,3.4,4.4,6.7c-0.2,11-0.1,22-0.1,33c0,1,0,1.9,0,3c-27.2,0-54.3,0-81.4,0
			c-0.1-0.6-0.2-1.1-0.2-1.6c0-11.9-0.1-23.8,0.1-35.6c0-1.8,1.9-3.6,2.9-5.4c0.3,0.1,0.6,0.2,0.9,0.3
			C319.2,327.4,319.2,333.3,319.2,339.6z M335.8,339.4c2.8,0,5.3,0,7.8,0c0-2.8,0-5.3,0-7.9c-2.7,0-5.2,0-7.8,0
			C335.8,334.2,335.8,336.7,335.8,339.4z M319.5,347.8c0,2.7,0,5.3,0,7.9c2.7,0,5.2,0,7.8,0c0-2.7,0-5.3,0-7.9
			C324.6,347.8,322.1,347.8,319.5,347.8z M368.5,339.4c2.6,0,5.1,0,7.7,0c0-2.7,0-5.3,0-7.9c-2.7,0-5.2,0-7.7,0
			C368.5,334.3,368.5,336.8,368.5,339.4z M384.8,355.7c2.7,0,5.2,0,7.8,0c0-2.7,0-5.2,0-7.9c-2.6,0-5.1,0-7.8,0
			C384.8,350.5,384.8,353,384.8,355.7z M352.2,319.3c0,2.7,0,5.3,0,7.8c2.7,0,5.2,0,7.7,0c0-2.7,0-5.2,0-7.8
			C357.3,319.3,354.9,319.3,352.2,319.3z"/>
		<path class="st38" d="M359.9,164c-5.4,0-10.5,0-16,0c0-1.1,0-2,0-3c0-8.5-0.1-17,0-25.6c0-4.1,2.6-7,6.5-7.8c3.9-0.8,7.4,1,9,4.6
			c0.4,0.9,0.7,2,0.7,3c0,9.1,0,18.3,0,27.4C360.1,163.1,360,163.4,359.9,164z"/>
		<path class="st38" d="M274.3,241.3c-4.8,1.7-7.2-0.9-9.1-4.9c-1.6-3.4-3.8-6.5-5.6-9.8c-2.6-4.7-1.4-9.6,2.8-12.2
			c4.2-2.6,9.8-1.4,12.6,2.7c3.4,4.9,6.6,10,10,14.9c0.8,1.1,0.8,2-0.1,3c-0.3,0.4-0.7,0.8-0.9,1.3
			C282.1,240.5,279.2,243,274.3,241.3z"/>
		<path class="st38" d="M299,147.8c-0.1-5,2.3-7.7,6.2-8.1c3.5-0.4,6.9,2,7.6,5.6c1,5.2,1.8,10.4,2.5,15.6c0.1,0.9-0.8,1.9-1.4,2.8
			c-2.3,3.3-4.9,4-8.9,2.4c-3-1.2-4.2-2.6-4.4-5.7C300.3,155.9,299.5,151.4,299,147.8z"/>
		<path class="st38" d="M345.1,283.3c-2.4-5.6-0.9-11.3,3.6-14.7c4.5-3.4,10.9-3.3,15.2,0.2c4.3,3.6,5.7,9.2,3.3,14.4
			C359.8,276.9,352.5,276.8,345.1,283.3z"/>
		<path class="st38" d="M359.9,208.8c-5.4,0-10.6,0-15.9,0c0-6.7,0-13.3,0-20c5.3,0,10.5,0,15.9,0
			C359.9,195.4,359.9,202,359.9,208.8z M348.1,192.9c0,2.8,0,5.3,0,7.7c2.8,0,5.3,0,7.9,0c0-2.7,0-5.1,0-7.7
			C353.3,192.9,350.8,192.9,348.1,192.9z"/>
		<path class="st38" d="M405,147.6c-0.2,1.1-0.4,2.8-0.7,4.6c-0.1,0.4-0.2,0.9-0.5,1.1c-1.8,1.7-6.6,2-8.7,0.7
			c-0.1-0.1-0.3-0.2-0.4-0.3c-3.8-1.5-4.7-4.1-3.6-8.1c1-3.8,3.8-6.3,7.5-5.9C402.4,140.1,405,143.1,405,147.6z"/>
		<path class="st38" d="M388.9,159.6c2.4,1.6,4.4,3.6,6.7,4.2c2.1,0.5,4.6-0.6,7.2-1c-0.5,3.3-1,6.7-1.6,10.1
			c-0.1,0.4-0.3,0.8-0.6,1.1c-1.9,1.6-6.7,1.8-8.8,0.5c-4.9-3-4.9-3-4-8.9C388.2,163.8,388.5,161.9,388.9,159.6z"/>
		<path class="st38" d="M302.8,173.8c2.4,0.8,4.7,1.4,6.9,2.3c2,0.9,3.5,0.6,4.7-1.2c0.7-0.9,1.4-1.8,2.2-2.6
			c0.3,0.1,0.6,0.2,0.8,0.2c0.5,3.5,1.6,6.9,1.4,10.4c-0.1,1.6-2.5,3.3-4.1,4.5c-0.6,0.5-2.1,0-3.1-0.3c-7.8-2.5-7.8-2.5-8.6-10.7
			C302.8,175.6,302.8,174.8,302.8,173.8z"/>
		<path class="st38" d="M443.6,199.6c-4.3-1.7-8.2-3.3-12.5-5c1.4-2.7,2.5-5.3,4-7.7c1.5-2.4,4.7-2.9,7.3-1.8c2.3,1,3.9,3.9,3.4,6.6
			C445.3,194.2,444.4,196.7,443.6,199.6z"/>
		<path class="st38" d="M344,180.2c0-2.7,0-5.1,0-7.7c5.3,0,10.5,0,16,0c0,2.5,0,5,0,7.7C354.7,180.2,349.5,180.2,344,180.2z"/>
		<path class="st38" d="M331.8,254.2c4.6,0.7,8.1,2.8,11.3,5.5c0.2,0.2,0.4,0.4,0.5,0.6c0.7,3.1-2.6,3.5-3.7,5.4
			c-0.1,0.2-2.2-0.2-2.7-0.8C334.5,261.9,332.5,258.5,331.8,254.2z"/>
		<path class="st38" d="M376.3,282.2c0-2-0.2-3.9,0.1-5.7c0.1-0.8,1.2-2.1,1.9-2.1c4.3,0.1,8.2,1.4,11.9,3.7
			C387.1,281,381.7,282.5,376.3,282.2z"/>
		<path class="st38" d="M380.3,254.2c-0.7,4.6-3,8.1-5.8,11.4c-0.1,0.1-0.1,0.1-0.2,0.2c-3.1,1.3-3.5-2.2-5.3-3.2
			c-0.4-0.2-0.5-2.3,0-2.8C372.2,256.9,375.8,254.8,380.3,254.2z"/>
		<path class="st38" d="M335.8,282.3c-5.1,0.2-9.7-1-14-4c3.8-2.5,7.7-3.7,11.9-4c1.5-0.1,2.3,0.6,2.2,2.2
			C335.7,278.3,335.8,280.2,335.8,282.3z"/>
		<path class="st38" d="M356.1,244c2.5,3.8,3.9,7.8,4,12.2c0,0.2,0,0.4-0.1,0.5c-1.5,3-4.3,0.4-6.4,1.3c-0.1,0.1-1.5-1.6-1.5-2.5
			C352.2,251.5,353.7,247.8,356.1,244z"/>
		<path class="st38" d="M417.2,285.3c-1-2.1-1.7-3.4-2.5-5.1c1.5-0.8,2.8-1.5,4.8-2.5C418.6,280.4,418,282.5,417.2,285.3z"/>
		<path class="st38" d="M296.7,290.3c-1.1-1.9-2.2-3.8-3.6-6.2c2,0.5,3.4,0.9,5.1,1.3c-0.3,1.7-0.6,3.2-0.9,4.7
			C297.1,290.2,296.9,290.3,296.7,290.3z"/>
		<path class="st38" d="M281.4,264c1.8,0.4,3,0.7,4.4,1c-0.4,1.5-0.7,2.8-1.1,4.7C283.5,267.6,282.6,266,281.4,264z"/>
		<path class="st38" d="M424.9,260c-0.9-1.8-1.5-2.9-2.1-4.3c1.2-0.6,2.2-1.1,4-2C426.1,256,425.6,257.7,424.9,260z"/>
		<path class="st38" d="M433.4,213.2c0,2.9,0,5.3,0,7.9c-2.6,0-5.1,0-7.8,0c0-2.6,0-5.2,0-7.9C428.2,213.2,430.8,213.2,433.4,213.2z
			"/>
		<path class="st38" d="M335.8,339.4c0-2.7,0-5.2,0-7.9c2.6,0,5.1,0,7.8,0c0,2.5,0,5.1,0,7.9C341.1,339.4,338.6,339.4,335.8,339.4z"
			/>
		<path class="st38" d="M319.5,347.8c2.6,0,5.1,0,7.8,0c0,2.6,0,5.1,0,7.9c-2.6,0-5.1,0-7.8,0C319.5,353.1,319.5,350.5,319.5,347.8z
			"/>
		<path class="st38" d="M368.5,339.4c0-2.6,0-5.2,0-7.9c2.5,0,5,0,7.7,0c0,2.6,0,5.1,0,7.9C373.6,339.4,371.1,339.4,368.5,339.4z"/>
		<path class="st38" d="M384.8,355.7c0-2.7,0-5.2,0-7.9c2.6,0,5.1,0,7.8,0c0,2.6,0,5.1,0,7.9C390.1,355.7,387.6,355.7,384.8,355.7z"
			/>
		<path class="st38" d="M352.2,319.3c2.7,0,5.1,0,7.7,0c0,2.6,0,5.1,0,7.8c-2.5,0-5,0-7.7,0C352.2,324.6,352.2,322,352.2,319.3z"/>
		<path class="st38" d="M348.1,192.9c2.7,0,5.2,0,7.9,0c0,2.6,0,5,0,7.7c-2.6,0-5.1,0-7.9,0C348.1,198.1,348.1,195.6,348.1,192.9z"
			/>
	</g>
</g>
</svg>
