<?xml version="1.0" encoding="utf-8"?>
<!-- Generator: Adobe Illustrator 22.1.0, SVG Export Plug-In . SVG Version: 6.00 Build 0)  -->
<svg version="1.1" id="Calque_1" xmlns="http://www.w3.org/2000/svg" xmlns:xlink="http://www.w3.org/1999/xlink" x="0px" y="0px"
	 viewBox="0 0 700 480" style="enable-background:new 0 0 700 480;" xml:space="preserve">
<style type="text/css">
	.st0{fill:#DAECFF;}
	.st1{fill:#FFD258;}
	.st2{fill:#FBCEC6;}
	.st3{fill:#ADCCFF;}
	.st4{fill:#FF5F7D;}
	.st5{fill:none;stroke:#000000;stroke-width:2;stroke-miterlimit:10;}
	.st6{fill:#FFFBF2;}
	.st7{fill:#73B7A4;}
	.st8{fill:none;stroke:#000000;stroke-miterlimit:10;}
	.st9{fill:#98BFFF;}
	.st10{fill:#FFD258;stroke:#000000;stroke-width:2;stroke-miterlimit:10;}
	.st11{fill:#FEF0E1;stroke:#070707;stroke-miterlimit:10;}
	.st12{fill:#D3A533;}
	.st13{fill:#FFB5C0;stroke:#020202;stroke-miterlimit:10;}
	.st14{fill:#FF8E9E;}
	.st15{fill:#FF8E9E;stroke:#000000;stroke-miterlimit:10;}
	.st16{fill:#EA5B70;}
	.st17{fill:#020202;}
	.st18{fill:#FFD258;stroke:#050505;stroke-width:0.5;stroke-miterlimit:10;}
	.st19{fill:#FEF0E1;stroke:#020202;stroke-width:0.5;stroke-miterlimit:10;}
	.st20{fill:#DDB143;}
	.st21{fill:#D6AF8B;}
	.st22{fill:#FFFBF2;stroke:#020202;stroke-width:2;stroke-miterlimit:10;}
	.st23{fill:#FF5F7D;stroke:#020202;stroke-width:2;stroke-miterlimit:10;}
	.st24{fill:#FFFFFF;}
	.st25{fill:#ADCCFF;stroke:#020202;stroke-width:2;stroke-miterlimit:10;}
	.st26{fill:#FFD258;stroke:#050505;stroke-width:2;stroke-miterlimit:10;}
	.st27{fill:#85AAE0;}
	.st28{fill:#C99E32;}
	.st29{fill:#FFCF47;stroke:#020202;stroke-miterlimit:10;}
	.st30{fill:#FF5F7D;stroke:#050505;stroke-width:2;stroke-miterlimit:10;}
	.st31{fill:#F36B7F;stroke:#000000;stroke-miterlimit:10;}
	.st32{fill:#DBA92C;}
	.st33{fill:#73B7A4;stroke:#020202;stroke-width:2;stroke-miterlimit:10;}
	.st34{fill:#FFCF47;stroke:#020202;stroke-width:2;stroke-miterlimit:10;}
	.st35{fill:#99C6B8;}
	.st36{fill:#E2B23B;}
	.st37{fill:#C11A3E;}
	.st38{fill:#FEF0E1;stroke:#020202;stroke-miterlimit:10;}
	.st39{fill:#ADCCFF;stroke:#020202;stroke-miterlimit:10;}
	.st40{fill:#FFD258;stroke:#0C0C0C;stroke-width:0.75;stroke-miterlimit:10;}
	.st41{fill:#ADCCFF;stroke:#050505;stroke-width:2;stroke-miterlimit:10;}
	.st42{fill:#73B7A4;stroke:#050505;stroke-width:2;stroke-miterlimit:10;}
	.st43{fill:#FFFBF2;stroke:#050505;stroke-width:2;stroke-miterlimit:10;}
	.st44{fill:#FEF0E1;stroke:#020202;stroke-width:2;stroke-miterlimit:10;}
	.st45{fill:#D8A830;}
	.st46{fill:#FF5F7D;stroke:#050505;stroke-miterlimit:10;}
	.st47{fill:#73B7A4;stroke:#020202;stroke-miterlimit:10;}
	.st48{fill:#E8D2BF;}
	.st49{fill:#FFD258;stroke:#0A0A0A;stroke-width:2;stroke-miterlimit:10;}
	.st50{fill:#D8AB3A;}
	.st51{fill:#FFD258;stroke:#050505;stroke-miterlimit:10;}
	.st52{fill:#FBCEC6;stroke:#070707;stroke-miterlimit:10;}
	.st53{fill:#D84161;}
	.st54{fill:#FFD258;stroke:#0A0A0A;stroke-miterlimit:10;}
	.st55{fill:#FFD258;stroke:#0A0A0A;stroke-width:3;stroke-miterlimit:10;}
	.st56{fill:none;stroke:#0A0A0A;stroke-width:2;stroke-miterlimit:10;}
	.st57{fill:#FF5F7D;stroke:#000000;stroke-miterlimit:10;}
	.st58{fill:#FFD258;stroke:#000000;stroke-miterlimit:10;}
	.st59{fill:#FF5F7D;stroke:#050505;stroke-width:0.75;stroke-miterlimit:10;}
	.st60{fill:#FEF0E1;stroke:#020202;stroke-width:0.75;stroke-miterlimit:10;}
	.st61{fill:#FF5F7D;stroke:#050505;stroke-width:0.25;stroke-miterlimit:10;}
	.st62{fill:#FFD258;stroke:#0A0A0A;stroke-width:0.75;stroke-miterlimit:10;}
	.st63{fill:#73B7A4;stroke:#020202;stroke-width:0.25;stroke-miterlimit:10;}
	.st64{fill:#FBCEC6;stroke:#020202;stroke-miterlimit:10;}
	.st65{fill:#73B7A4;stroke:#020202;stroke-width:0.75;stroke-miterlimit:10;}
	.st66{fill:#73B7A4;stroke:#070707;stroke-miterlimit:10;}
	.st67{fill:#FFFBF2;stroke:#070707;stroke-miterlimit:10;}
	.st68{fill:#E2B139;}
	.st69{fill:#FFFBF2;stroke:#020202;stroke-miterlimit:10;}
	.st70{fill:#ADCCFF;stroke:#020202;stroke-width:0.75;stroke-miterlimit:10;}
	.st71{fill:#FFFBF2;stroke:#020202;stroke-width:0.75;stroke-miterlimit:10;}
	.st72{fill:#FFD258;stroke:#050505;stroke-width:0.75;stroke-miterlimit:10;}
	.st73{fill:#FBCEC6;stroke:#020202;stroke-width:0.75;stroke-miterlimit:10;}
	.st74{fill:#73B7A4;stroke:#050505;stroke-miterlimit:10;}
	.st75{fill:#73B7A4;stroke:#050505;stroke-width:0.75;stroke-miterlimit:10;}
	.st76{fill:#E2C2A6;}
	.st77{fill:#DBC69E;}
	.st78{fill:#D39C94;}
	.st79{fill:#E0B344;}
	.st80{fill:#E0AE32;}
	.st81{fill:#4F9982;}
	.st82{fill:#DDBA9B;}
	.st83{fill:#FF5F7D;stroke:#000000;stroke-width:0.75;stroke-miterlimit:10;}
	.st84{fill:#FFD258;stroke:#000000;stroke-width:0.75;stroke-miterlimit:10;}
	.st85{fill:none;stroke:#000000;stroke-width:0.5;stroke-miterlimit:10;}
	.st86{opacity:0.43;fill:#7F3B48;}
	.st87{opacity:0.88;fill:#98BFFF;}
	.st88{opacity:0.75;fill:#FFFBF2;}
	.st89{opacity:0.88;fill:#719BD8;}
	.st90{opacity:0.75;fill:#EAD9B7;}
	.st91{fill:#FEF0E1;}
	.st92{fill:none;stroke:#070707;stroke-miterlimit:10;}
	.st93{fill:#C1962B;}
	.st94{fill:#D6B154;}
	.st95{fill:#5DA08B;}
	.st96{fill:#C6961E;}
	.st97{fill:#FF5F7D;stroke:#FFFFFF;stroke-miterlimit:10;}
	.st98{fill:#FF5F7D;stroke:#070707;stroke-miterlimit:10;}
</style>
<rect x="2.6" y="0.5" class="st0" width="699.7" height="480"/>
<g id="LhmicA.tif">
	<g>
		<path class="st98" d="M423.4,164.3c-63.2,0-126.3,0-189.6,0c-0.1,0.9-0.1,1.6-0.1,2.3c0,45.9,0,91.8,0,137.7c0,1.7,0.7,3.4,1,5
			c0.3,0,0.6-0.1,0.9-0.1c0.2-0.6,0.4-1.2,0.5-1.8c3.5-19,20.2-32.8,39.1-32.4c19.5,0.4,35.6,14.5,38.4,33.8
			c0.2,1.6,0.7,2.2,2.3,2.1c2.7-0.1,5.5-0.1,8.2,0c2.3,0.1,3.6,1.3,3.6,3.3c0,2-1.3,3.3-3.6,3.3c-2.7,0.1-5.5,0.1-8.2,0
			c-1.6-0.1-2.1,0.4-2.4,2c-2.9,20.1-19.8,34.3-40,33.9c-18.6-0.4-34.9-14.9-37.5-33.3c-0.3-1.8-0.7-3-2.6-4
			c-4.2-2-6.2-5.7-6.3-10.3c-0.1-5.2,0-10.5,0-15.7c0-42.8,0-85.7,0-128.5c0-12.1,7.9-21.5,19.4-23.4c1.6-0.3,3.2-0.3,4.7-0.3
			c51.7,0,103.3,0.1,155-0.1c12.6-0.1,25.9,9.3,24.2,27.8c-0.2,1.9-1.2,3.2-3.1,3.3c-2,0.1-3.1-1-3.5-2.9
			C423.6,165.5,423.5,164.9,423.4,164.3z M423.1,157.4c-0.2-0.8-0.3-1.4-0.5-2c-2.4-6.9-8.5-10.9-16.5-10.9c-39.1,0-78.1,0-117.2,0
			c-12.8,0-25.7,0-38.5,0c-8.2,0-15.1,5.6-16.1,12.9C297.2,157.4,360.1,157.4,423.1,157.4z M307.2,314.4
			c0.1-17.9-14.2-32.4-32.2-32.6c-17.9-0.2-32.7,14.3-32.8,32.3c-0.2,17.9,14.4,32.7,32.4,32.8C292.6,346.9,307.1,332.5,307.2,314.4
			z"/>
		<path class="st98" d="M430.4,295.3c5,0,9.7,0,14.5,0c1,0,2,0,3,0.1c2,0.2,3.1,1.3,3.1,3.2c0.1,5.2,0.1,10.3,0,15.5
			c0,2.2-1.3,3.4-3.5,3.4c-1.2,0.1-2.5,0-4,0c0,1.6,0,2.9,0,4.2c0,9,0,18,0,27c0,3.7-1,4.7-4.8,4.7c-2.7,0-5.3,0-8,0
			c-3.1,0-4.2-1.2-4.2-4.2c0-9.8,0-19.7,0-29.5c0-0.6-0.1-1.2-0.1-2.1c-1.1,0-2.1,0-3.2,0c-27.7,0-55.5,0-83.2,0c-0.5,0-1,0-1.5,0
			c-2.7-0.1-4.1-1.3-4-3.4c0-2.1,1.5-3.2,4.2-3.3c2.2,0,4.3,0,6.8,0c0-1.3,0-2.3,0-3.4c0-39.2,0-78.3,0-117.5
			c0-9.3,5.4-16.1,14.3-17.8c1.3-0.3,2.6-0.3,4-0.3c11,0,22,0,33,0c11.1,0,18.3,7.2,18.3,18.4c0,39,0,78,0,117c0,1.1,0,2.1,0,3.4
			c2.9,0,5.6,0,8.6,0c0-1.1,0-2.2,0-3.2c0-42,0-84,0-126c0-1-0.3-2.2,0.2-2.9c0.7-1.1,1.8-2.5,3-2.8c1.7-0.4,3,0.8,3.4,2.6
			c0.2,1,0.2,2,0.2,3c0,36.8,0,73.7,0,110.5C430.4,292.9,430.4,294,430.4,295.3z M408.3,310.8c0-1.1,0-2.1,0-3.1
			c0-19.1,0-38.1,0-57.2c0-20.1,0-40.1,0-60.2c0-7.2-4.4-11.7-11.4-11.7c-11.2,0-22.5,0-33.7,0c-6.6,0-11.1,4.6-11.1,11.2
			c0,39.4,0,78.8,0,118.2c0,0.9,0,1.8,0,2.8C371,310.8,389.5,310.8,408.3,310.8z M430.5,310.7c4.8,0,9.2,0,13.7,0c0-3,0-5.8,0-8.6
			c-4.6,0-9.1,0-13.7,0C430.5,305,430.5,307.8,430.5,310.7z M433.3,317.7c0,9.8,0,19.3,0,28.9c1.3,0,2.4,0,3.5,0
			c0-9.7,0-19.3,0-28.9C435.6,317.7,434.5,317.7,433.3,317.7z"/>
		<path class="st98" d="M292.3,172c7.9,0,15.8,0,23.7,0c10.8,0,18.4,7.6,18.5,18.4c0.1,10.5,0.1,21,0,31.5
			c-0.1,10.7-7.5,18.4-18.2,18.5c-16.2,0.1-32.3,0.1-48.5,0c-10.2-0.1-17.9-7.6-18.1-17.8c-0.2-11-0.2-22,0-33
			c0.2-10.1,7.9-17.5,18-17.6C275.9,171.9,284.1,172,292.3,172z M271.1,178.7c0,18.4,0,36.5,0,54.8c3.2,0,6.2,0,9.3,0
			c0-18.4,0-36.5,0-54.8C277.2,178.7,274.2,178.7,271.1,178.7z M296.8,178.9c-3.3,0-6.3,0-9.4,0c0,18.4,0,36.4,0,54.6
			c3.2,0,6.2,0,9.4,0C296.8,215.2,296.8,197.1,296.8,178.9z M313,233.5c0-18.5,0-36.6,0-54.7c-3.3,0-6.3,0-9.3,0
			c0,18.4,0,36.5,0,54.7C306.9,233.5,309.9,233.5,313,233.5z M320.1,232.9c4.9-1.3,7.7-5.4,7.7-11.1c0-10.2,0-20.5,0-30.7
			c0-1.2-0.1-2.5-0.4-3.7c-0.9-3.9-3.3-6.5-7.4-8.1C320.1,197.3,320.1,215,320.1,232.9z M264.1,232.9c0-17.9,0-35.6,0-53.3
			c-4.2,0.8-7.5,4.7-7.6,9.4c-0.1,11.5-0.1,23,0,34.4C256.5,227.9,259.7,231.6,264.1,232.9z"/>
		<path class="st98" d="M423.1,157.4c-63.1,0-125.9,0-188.8,0c1-7.3,7.9-12.8,16.1-12.9c12.8-0.1,25.7,0,38.5,0
			c39.1,0,78.1,0,117.2,0c8.1,0,14.1,4,16.5,10.9C422.9,156,423,156.6,423.1,157.4z"/>
		<path class="st98" d="M307.2,314.4c-0.1,18.1-14.6,32.5-32.7,32.5c-17.9-0.1-32.5-14.8-32.4-32.8c0.2-18,14.9-32.5,32.8-32.3
			C293,282,307.3,296.5,307.2,314.4z M253.4,314.3c0,11.8,9.5,21.3,21.3,21.3c11.8,0,21.3-9.5,21.3-21.3c0-11.8-9.5-21.3-21.3-21.3
			C262.9,293,253.4,302.5,253.4,314.3z"/>
		<path class="st98" d="M430.5,310.7c0-2.9,0-5.7,0-8.6c4.6,0,9.1,0,13.7,0c0,2.8,0,5.6,0,8.6C439.8,310.7,435.3,310.7,430.5,310.7z
			"/>
		<path class="st98" d="M433.3,317.7c1.2,0,2.3,0,3.5,0c0,9.6,0,19.2,0,28.9c-1.1,0-2.2,0-3.5,0C433.3,337,433.3,327.5,433.3,317.7z
			"/>
		<path class="st98" d="M271.1,178.7c3.1,0,6.1,0,9.3,0c0,18.2,0,36.4,0,54.8c-3.1,0-6.1,0-9.3,0
			C271.1,215.2,271.1,197.1,271.1,178.7z"/>
		<path class="st98" d="M296.8,178.9c0,18.2,0,36.3,0,54.6c-3.2,0-6.2,0-9.4,0c0-18.2,0-36.3,0-54.6
			C290.5,178.9,293.6,178.9,296.8,178.9z"/>
		<path class="st98" d="M313,233.5c-3.1,0-6.1,0-9.3,0c0-18.2,0-36.4,0-54.7c3,0,6,0,9.3,0C313,196.9,313,215.1,313,233.5z"/>
		<path class="st98" d="M320.1,232.9c0-17.9,0-35.6,0-53.7c4,1.6,6.4,4.2,7.4,8.1c0.3,1.2,0.3,2.5,0.4,3.7c0,10.2,0,20.5,0,30.7
			C327.8,227.4,325,231.6,320.1,232.9z"/>
		<path class="st98" d="M264.1,232.9c-4.4-1.3-7.5-5-7.6-9.4c-0.1-11.5-0.1-23,0-34.4c0.1-4.7,3.4-8.6,7.6-9.4
			C264.1,197.3,264.1,215,264.1,232.9z"/>
		<path class="st98" d="M253.4,314.3c0-11.7,9.5-21.3,21.3-21.3c11.8,0,21.3,9.5,21.3,21.3c0,11.8-9.5,21.3-21.3,21.3
			C262.9,335.5,253.4,326,253.4,314.3z M260.1,314.2c0,8,6.5,14.7,14.5,14.7c8,0.1,14.6-6.5,14.7-14.5c0.1-8-6.5-14.7-14.5-14.7
			C266.7,299.6,260.1,306.1,260.1,314.2z"/>
		<path class="st98" d="M380.2,223.9c-3.8,0-7.7,0.1-11.5,0c-6-0.1-9.9-3.9-9.9-9.9c-0.1-6.2-0.1-12.3,0-18.5
			c0.1-6.1,4.1-10.2,10.2-10.3c7.6-0.1,15.2-0.1,22.7,0c6.1,0.1,9.9,4,10,10.1c0.1,6.2,0.1,12.5,0,18.7c-0.1,5.9-3.8,9.6-9.7,9.8
			c-0.2,0-0.3,0-0.5,0C387.6,223.9,383.9,223.9,380.2,223.9z M380.5,192C380.5,191.9,380.5,191.9,380.5,192c-3.8,0-7.7,0-11.5,0
			c-2.4,0-3.5,1.2-3.5,3.6c0,6.1,0,12.2,0,18.2c0,2.3,1,3.4,3.3,3.5c7.7,0,15.3,0,23,0c2.2,0,3.3-1.1,3.3-3.4c0-6,0-12,0-18
			c0-2.7-1.1-3.8-3.8-3.8C387.6,191.9,384.1,192,380.5,192z"/>
		<path class="st98" d="M355.5,248.9c0-5.2,4.2-9.3,9.4-9.3c5.1,0,9.4,4.2,9.4,9.3c0,5.2-4.3,9.5-9.5,9.4
			C359.6,258.3,355.4,254.1,355.5,248.9z M365.3,245.9c-0.4,0-0.8,0-1.1,0c-0.7,1-1.8,2-1.9,3.1c-0.2,1.6,1,2.6,2.7,2.5
			c1.6-0.1,2.8-1,2.5-2.7C367.2,247.8,366.1,246.9,365.3,245.9z"/>
		<path class="st98" d="M260.1,314.2c0-8.1,6.6-14.6,14.7-14.5c8.1,0,14.6,6.6,14.5,14.7c-0.1,8.1-6.6,14.6-14.7,14.5
			C266.6,328.8,260,322.2,260.1,314.2z"/>
		<path class="st98" d="M365.3,245.9c0.7,1,1.9,1.9,2.1,3c0.3,1.6-0.9,2.6-2.5,2.7c-1.7,0.1-2.9-0.9-2.7-2.5
			c0.1-1.1,1.3-2.1,1.9-3.1C364.6,246,365,245.9,365.3,245.9z"/>
	</g>
</g>
</svg>
