<?xml version="1.0" encoding="utf-8"?>
<!-- Generator: Adobe Illustrator 22.1.0, SVG Export Plug-In . SVG Version: 6.00 Build 0)  -->
<svg version="1.1" id="Calque_1" xmlns="http://www.w3.org/2000/svg" xmlns:xlink="http://www.w3.org/1999/xlink" x="0px" y="0px"
	 viewBox="0 0 700 480" style="enable-background:new 0 0 700 480;" xml:space="preserve">
<style type="text/css">
	.st0{fill:#DAECFF;}
	.st1{fill:#FFD258;}
	.st2{fill:#FBCEC6;}
	.st3{fill:#ADCCFF;}
	.st4{fill:#FF5F7D;}
	.st5{fill:none;stroke:#000000;stroke-width:2;stroke-miterlimit:10;}
	.st6{fill:#FFFBF2;}
	.st7{fill:#73B7A4;}
	.st8{fill:none;stroke:#000000;stroke-miterlimit:10;}
	.st9{fill:#98BFFF;}
	.st10{fill:#FFD258;stroke:#000000;stroke-width:2;stroke-miterlimit:10;}
	.st11{fill:#FEF0E1;stroke:#070707;stroke-miterlimit:10;}
	.st12{fill:#D3A533;}
	.st13{fill:#FFB5C0;stroke:#020202;stroke-miterlimit:10;}
	.st14{fill:#FF8E9E;}
	.st15{fill:#FF8E9E;stroke:#000000;stroke-miterlimit:10;}
	.st16{fill:#EA5B70;}
	.st17{fill:#020202;}
	.st18{fill:#FFD258;stroke:#050505;stroke-width:0.5;stroke-miterlimit:10;}
	.st19{fill:#FEF0E1;stroke:#020202;stroke-width:0.5;stroke-miterlimit:10;}
	.st20{fill:#DDB143;}
	.st21{fill:#D6AF8B;}
	.st22{fill:#FFFBF2;stroke:#020202;stroke-width:2;stroke-miterlimit:10;}
	.st23{fill:#FF5F7D;stroke:#020202;stroke-width:2;stroke-miterlimit:10;}
	.st24{fill:#FFFFFF;}
	.st25{fill:#ADCCFF;stroke:#020202;stroke-width:2;stroke-miterlimit:10;}
	.st26{fill:#FFD258;stroke:#050505;stroke-width:2;stroke-miterlimit:10;}
	.st27{fill:#85AAE0;}
	.st28{fill:#C99E32;}
	.st29{fill:#FFCF47;stroke:#020202;stroke-miterlimit:10;}
	.st30{fill:#FF5F7D;stroke:#050505;stroke-width:2;stroke-miterlimit:10;}
	.st31{fill:#F36B7F;stroke:#000000;stroke-miterlimit:10;}
	.st32{fill:#DBA92C;}
	.st33{fill:#73B7A4;stroke:#020202;stroke-width:2;stroke-miterlimit:10;}
	.st34{fill:#FFCF47;stroke:#020202;stroke-width:2;stroke-miterlimit:10;}
	.st35{fill:#99C6B8;}
	.st36{fill:#E2B23B;}
	.st37{fill:#C11A3E;}
	.st38{fill:#FEF0E1;stroke:#020202;stroke-miterlimit:10;}
	.st39{fill:#ADCCFF;stroke:#020202;stroke-miterlimit:10;}
	.st40{fill:#FFD258;stroke:#0C0C0C;stroke-width:0.75;stroke-miterlimit:10;}
	.st41{fill:#ADCCFF;stroke:#050505;stroke-width:2;stroke-miterlimit:10;}
	.st42{fill:#73B7A4;stroke:#050505;stroke-width:2;stroke-miterlimit:10;}
	.st43{fill:#FFFBF2;stroke:#050505;stroke-width:2;stroke-miterlimit:10;}
	.st44{fill:#FEF0E1;stroke:#020202;stroke-width:2;stroke-miterlimit:10;}
	.st45{fill:#D8A830;}
	.st46{fill:#FF5F7D;stroke:#050505;stroke-miterlimit:10;}
	.st47{fill:#73B7A4;stroke:#020202;stroke-miterlimit:10;}
	.st48{fill:#E8D2BF;}
	.st49{fill:#FFD258;stroke:#0A0A0A;stroke-width:2;stroke-miterlimit:10;}
	.st50{fill:#D8AB3A;}
	.st51{fill:#FFD258;stroke:#050505;stroke-miterlimit:10;}
	.st52{fill:#FBCEC6;stroke:#070707;stroke-miterlimit:10;}
	.st53{fill:#D84161;}
	.st54{fill:#FFD258;stroke:#0A0A0A;stroke-miterlimit:10;}
	.st55{fill:#FFD258;stroke:#0A0A0A;stroke-width:3;stroke-miterlimit:10;}
	.st56{fill:none;stroke:#0A0A0A;stroke-width:2;stroke-miterlimit:10;}
	.st57{fill:#FF5F7D;stroke:#000000;stroke-miterlimit:10;}
	.st58{fill:#FFD258;stroke:#000000;stroke-miterlimit:10;}
	.st59{fill:#FF5F7D;stroke:#050505;stroke-width:0.75;stroke-miterlimit:10;}
	.st60{fill:#FEF0E1;stroke:#020202;stroke-width:0.75;stroke-miterlimit:10;}
	.st61{fill:#FF5F7D;stroke:#050505;stroke-width:0.25;stroke-miterlimit:10;}
	.st62{fill:#FFD258;stroke:#0A0A0A;stroke-width:0.75;stroke-miterlimit:10;}
	.st63{fill:#73B7A4;stroke:#020202;stroke-width:0.25;stroke-miterlimit:10;}
	.st64{fill:#FBCEC6;stroke:#020202;stroke-miterlimit:10;}
	.st65{fill:#73B7A4;stroke:#020202;stroke-width:0.75;stroke-miterlimit:10;}
	.st66{fill:#73B7A4;stroke:#070707;stroke-miterlimit:10;}
	.st67{fill:#FFFBF2;stroke:#070707;stroke-miterlimit:10;}
	.st68{fill:#E2B139;}
	.st69{fill:#FFFBF2;stroke:#020202;stroke-miterlimit:10;}
	.st70{fill:#ADCCFF;stroke:#020202;stroke-width:0.75;stroke-miterlimit:10;}
	.st71{fill:#FFFBF2;stroke:#020202;stroke-width:0.75;stroke-miterlimit:10;}
	.st72{fill:#FFD258;stroke:#050505;stroke-width:0.75;stroke-miterlimit:10;}
	.st73{fill:#FBCEC6;stroke:#020202;stroke-width:0.75;stroke-miterlimit:10;}
	.st74{fill:#73B7A4;stroke:#050505;stroke-miterlimit:10;}
	.st75{fill:#73B7A4;stroke:#050505;stroke-width:0.75;stroke-miterlimit:10;}
	.st76{fill:#E2C2A6;}
	.st77{fill:#DBC69E;}
	.st78{fill:#D39C94;}
	.st79{fill:#E0B344;}
	.st80{fill:#E0AE32;}
	.st81{fill:#4F9982;}
	.st82{fill:#DDBA9B;}
	.st83{fill:#FF5F7D;stroke:#000000;stroke-width:0.75;stroke-miterlimit:10;}
	.st84{fill:#FFD258;stroke:#000000;stroke-width:0.75;stroke-miterlimit:10;}
	.st85{fill:none;stroke:#000000;stroke-width:0.5;stroke-miterlimit:10;}
	.st86{opacity:0.43;fill:#7F3B48;}
	.st87{opacity:0.88;fill:#98BFFF;}
	.st88{opacity:0.75;fill:#FFFBF2;}
	.st89{opacity:0.88;fill:#719BD8;}
	.st90{opacity:0.75;fill:#EAD9B7;}
	.st91{fill:#FEF0E1;}
	.st92{fill:none;stroke:#070707;stroke-miterlimit:10;}
	.st93{fill:#C1962B;}
	.st94{fill:#D6B154;}
	.st95{fill:#5DA08B;}
	.st96{fill:#C6961E;}
	.st97{fill:#FF5F7D;stroke:#FFFFFF;stroke-miterlimit:10;}
	.st98{fill:#FF5F7D;stroke:#070707;stroke-miterlimit:10;}
</style>
<rect x="2.4" y="2.9" class="st1" width="703.1" height="476.3"/>
<g id="fvtfLQ.tif">
	<g>
		<path class="st46" d="M223.1,261.7c4.2-26.8,24.4-42.2,45.1-44.3c22-2.2,44.8,9.7,53.7,35.7c3.6-3,7.3-5.5,12.2-5.5
			c5,0,8.8,2.3,12.6,5.6c4.9-14.2,13.6-24.9,27.2-31.3c9.8-4.6,20-5.8,30.5-3.9c19,3.5,37.1,18.3,41.6,43.6c-0.7-5.7-1-11.4-2.2-17
			c-4.9-23.1-10-46.1-15.2-69.2c-1.3-5.8-6.8-9.6-12.6-8.9c-6.3,0.7-10.6,5.4-10.7,11.6c0,1.4,0.1,2.7-0.1,4.1
			c-0.4,2.6-2.5,4.5-5,4.4c-2.5,0-4.7-1.9-5-4.5c-1.6-11.6,5.5-22.5,16.6-25.3c11.9-3,24,4.2,26.7,16.2c5.2,22.9,10.4,45.7,15,68.7
			c1.7,8.3,1.8,16.9,2.5,25.4c0.3,3.8-1.8,5.6-5.6,5.8c-4.8,0.2-4.8,0.2-5.7,4.8c-4.5,23.5-25.1,40.6-49.2,40.8
			c-23.8,0.2-44.8-16.5-49.8-39.8c-0.6-2.7-0.7-5.6-1.2-8.3c-0.9-5-3.4-9.1-7.7-11.9c-2-1.3-4.3-1-6.1,0.5
			c-3.8,3.3-6.6,7.2-6.9,12.4c-1.2,22.8-20,43.4-42.5,46.4c-29,3.9-53.5-14.3-58.1-43.2c-0.2-1.6-0.9-2-2.3-1.9
			c-7.1,0.7-9-1.4-8.7-9.3c0.5-13.3,3.2-26.2,6.1-39.1c3.8-16.9,7.5-33.7,11.3-50.6c2.6-11.7,12.4-18.7,24.5-17.5
			c10.7,1.1,19,10.8,19.1,22.2c0,1,0,2,0,3c-0.2,2.9-2.3,5-5,5c-2.6,0-4.8-1.9-5.1-4.7c-0.1-1.3,0-2.5-0.1-3.8
			c-0.1-6.3-4.4-10.9-10.7-11.6c-5.9-0.6-11.3,3.2-12.6,9.2c-4.4,19.9-9,39.7-13.2,59.6c-1.8,8.6-3,17.4-4.5,26.1
			C222.5,261.6,222.8,261.6,223.1,261.7z M273.4,308.5c22.2,0.1,40.5-18.1,40.7-40.4c0.1-22.3-17.9-40.6-40.4-40.9
			c-22.2-0.3-40.8,18.2-40.8,40.5C232.7,290.1,250.9,308.4,273.4,308.5z M395.2,308.5c22.2,0,40.5-18.1,40.7-40.4
			c0.1-22.4-17.9-40.6-40.5-40.8c-22.2-0.2-40.7,18.2-40.8,40.5C354.5,290.2,372.8,308.5,395.2,308.5z"/>
		<path class="st44" d="M243,266.5c0.3-15.7,12.4-29.2,25.8-29c2.6,0,4.5,1.9,4.6,4.6c0.2,2.8-1.2,4.8-3.9,5.4
			c-2.8,0.7-5.7,1-8.2,2.4c-6,3.3-9.1,9.2-9.5,17c-0.2,4-1.9,6.1-4.7,5.9C244.4,272.6,242.9,270.3,243,266.5z"/>
		<path class="st44" d="M394.1,237.5c3.6-0.1,5.9,1.7,6.1,4.6c0.2,3.2-1.8,5.4-5.6,5.6c-5.6,0.3-10.3,2.3-14.2,6.4
			c-3.5,3.7-5.4,8.1-5.5,13.2c-0.1,2.5-1,4.4-3.4,5.4c-3.3,1.3-6.7-1.1-6.9-4.7c-0.8-13.8,11.5-28.4,25.2-29.9
			C391.4,237.8,392.8,237.7,394.1,237.5z"/>
	</g>
</g>
</svg>
