<?xml version="1.0" encoding="utf-8"?>
<!-- Generator: Adobe Illustrator 22.1.0, SVG Export Plug-In . SVG Version: 6.00 Build 0)  -->
<svg version="1.1" id="Calque_1" xmlns="http://www.w3.org/2000/svg" xmlns:xlink="http://www.w3.org/1999/xlink" x="0px" y="0px"
	 viewBox="0 0 700 480" style="enable-background:new 0 0 700 480;" xml:space="preserve">
<style type="text/css">
	.st0{fill:#DAECFF;}
	.st1{fill:#FFD258;}
	.st2{fill:#FBCEC6;}
	.st3{fill:#ADCCFF;}
	.st4{fill:#FF5F7D;}
	.st5{fill:none;stroke:#000000;stroke-width:2;stroke-miterlimit:10;}
	.st6{fill:#FFFBF2;}
	.st7{fill:#73B7A4;}
	.st8{fill:none;stroke:#000000;stroke-miterlimit:10;}
	.st9{fill:#98BFFF;}
	.st10{fill:#FFD258;stroke:#000000;stroke-width:2;stroke-miterlimit:10;}
	.st11{fill:#FEF0E1;stroke:#070707;stroke-miterlimit:10;}
	.st12{fill:#D3A533;}
	.st13{fill:#FFB5C0;stroke:#020202;stroke-miterlimit:10;}
	.st14{fill:#FF8E9E;}
	.st15{fill:#FF8E9E;stroke:#000000;stroke-miterlimit:10;}
	.st16{fill:#EA5B70;}
	.st17{fill:#020202;}
	.st18{fill:#FFD258;stroke:#050505;stroke-width:0.5;stroke-miterlimit:10;}
	.st19{fill:#FEF0E1;stroke:#020202;stroke-width:0.5;stroke-miterlimit:10;}
	.st20{fill:#DDB143;}
	.st21{fill:#D6AF8B;}
	.st22{fill:#FFFBF2;stroke:#020202;stroke-width:2;stroke-miterlimit:10;}
	.st23{fill:#FF5F7D;stroke:#020202;stroke-width:2;stroke-miterlimit:10;}
	.st24{fill:#FFFFFF;}
	.st25{fill:#ADCCFF;stroke:#020202;stroke-width:2;stroke-miterlimit:10;}
	.st26{fill:#FFD258;stroke:#050505;stroke-width:2;stroke-miterlimit:10;}
	.st27{fill:#85AAE0;}
	.st28{fill:#C99E32;}
	.st29{fill:#FFCF47;stroke:#020202;stroke-miterlimit:10;}
	.st30{fill:#FF5F7D;stroke:#050505;stroke-width:2;stroke-miterlimit:10;}
	.st31{fill:#F36B7F;stroke:#000000;stroke-miterlimit:10;}
	.st32{fill:#DBA92C;}
	.st33{fill:#73B7A4;stroke:#020202;stroke-width:2;stroke-miterlimit:10;}
	.st34{fill:#FFCF47;stroke:#020202;stroke-width:2;stroke-miterlimit:10;}
	.st35{fill:#99C6B8;}
	.st36{fill:#E2B23B;}
	.st37{fill:#C11A3E;}
	.st38{fill:#FEF0E1;stroke:#020202;stroke-miterlimit:10;}
	.st39{fill:#ADCCFF;stroke:#020202;stroke-miterlimit:10;}
	.st40{fill:#FFD258;stroke:#0C0C0C;stroke-width:0.75;stroke-miterlimit:10;}
	.st41{fill:#ADCCFF;stroke:#050505;stroke-width:2;stroke-miterlimit:10;}
	.st42{fill:#73B7A4;stroke:#050505;stroke-width:2;stroke-miterlimit:10;}
	.st43{fill:#FFFBF2;stroke:#050505;stroke-width:2;stroke-miterlimit:10;}
	.st44{fill:#FEF0E1;stroke:#020202;stroke-width:2;stroke-miterlimit:10;}
	.st45{fill:#D8A830;}
	.st46{fill:#FF5F7D;stroke:#050505;stroke-miterlimit:10;}
	.st47{fill:#73B7A4;stroke:#020202;stroke-miterlimit:10;}
	.st48{fill:#E8D2BF;}
	.st49{fill:#FFD258;stroke:#0A0A0A;stroke-width:2;stroke-miterlimit:10;}
	.st50{fill:#D8AB3A;}
	.st51{fill:#FFD258;stroke:#050505;stroke-miterlimit:10;}
	.st52{fill:#FBCEC6;stroke:#070707;stroke-miterlimit:10;}
	.st53{fill:#D84161;}
	.st54{fill:#FFD258;stroke:#0A0A0A;stroke-miterlimit:10;}
	.st55{fill:#FFD258;stroke:#0A0A0A;stroke-width:3;stroke-miterlimit:10;}
	.st56{fill:none;stroke:#0A0A0A;stroke-width:2;stroke-miterlimit:10;}
	.st57{fill:#FF5F7D;stroke:#000000;stroke-miterlimit:10;}
	.st58{fill:#FFD258;stroke:#000000;stroke-miterlimit:10;}
	.st59{fill:#FF5F7D;stroke:#050505;stroke-width:0.75;stroke-miterlimit:10;}
	.st60{fill:#FEF0E1;stroke:#020202;stroke-width:0.75;stroke-miterlimit:10;}
	.st61{fill:#FF5F7D;stroke:#050505;stroke-width:0.25;stroke-miterlimit:10;}
	.st62{fill:#FFD258;stroke:#0A0A0A;stroke-width:0.75;stroke-miterlimit:10;}
	.st63{fill:#73B7A4;stroke:#020202;stroke-width:0.25;stroke-miterlimit:10;}
	.st64{fill:#FBCEC6;stroke:#020202;stroke-miterlimit:10;}
	.st65{fill:#73B7A4;stroke:#020202;stroke-width:0.75;stroke-miterlimit:10;}
	.st66{fill:#73B7A4;stroke:#070707;stroke-miterlimit:10;}
	.st67{fill:#FFFBF2;stroke:#070707;stroke-miterlimit:10;}
	.st68{fill:#E2B139;}
	.st69{fill:#FFFBF2;stroke:#020202;stroke-miterlimit:10;}
	.st70{fill:#ADCCFF;stroke:#020202;stroke-width:0.75;stroke-miterlimit:10;}
	.st71{fill:#FFFBF2;stroke:#020202;stroke-width:0.75;stroke-miterlimit:10;}
	.st72{fill:#FFD258;stroke:#050505;stroke-width:0.75;stroke-miterlimit:10;}
	.st73{fill:#FBCEC6;stroke:#020202;stroke-width:0.75;stroke-miterlimit:10;}
	.st74{fill:#73B7A4;stroke:#050505;stroke-miterlimit:10;}
	.st75{fill:#73B7A4;stroke:#050505;stroke-width:0.75;stroke-miterlimit:10;}
	.st76{fill:#E2C2A6;}
	.st77{fill:#DBC69E;}
	.st78{fill:#D39C94;}
	.st79{fill:#E0B344;}
	.st80{fill:#E0AE32;}
	.st81{fill:#4F9982;}
	.st82{fill:#DDBA9B;}
	.st83{fill:#FF5F7D;stroke:#000000;stroke-width:0.75;stroke-miterlimit:10;}
	.st84{fill:#FFD258;stroke:#000000;stroke-width:0.75;stroke-miterlimit:10;}
	.st85{fill:none;stroke:#000000;stroke-width:0.5;stroke-miterlimit:10;}
	.st86{opacity:0.43;fill:#7F3B48;}
	.st87{opacity:0.88;fill:#98BFFF;}
	.st88{opacity:0.75;fill:#FFFBF2;}
	.st89{opacity:0.88;fill:#719BD8;}
	.st90{opacity:0.75;fill:#EAD9B7;}
	.st91{fill:#FEF0E1;}
	.st92{fill:none;stroke:#070707;stroke-miterlimit:10;}
	.st93{fill:#C1962B;}
	.st94{fill:#D6B154;}
	.st95{fill:#5DA08B;}
	.st96{fill:#C6961E;}
</style>
<rect x="-0.3" class="st0" width="700.3" height="480"/>
<g id="IDuE4k.tif">
	<g>
		<path class="st29" d="M455.4,197.4c0,8.5,0,17.1,0,25.6c0,3.6-0.2,3.9-3.6,4.7c-6.2,1.5-11.7,4.3-16.5,8.4
			c-0.9,0.8-1.6,1.8-2.4,2.7c-2.1,2.3-3.6,5.1-4.9,7.9c-3.1,6.5-4.8,13.4-5.5,20.6c-1.1,11.8-1.4,23.6-0.7,35.5
			c0.2,4.1,0.4,8.1,0,12.2c-0.7,5.9-5.6,9.5-11.5,8.4c-4.1-0.8-6.8-3.2-8.6-6.8c-2.5-5.2-3.7-10.7-3.9-16.3
			c-0.3-8.3-0.5-16.7-0.6-25c0-1.2-0.3-1.8-1.5-2.1c-2.3-0.7-2.9-1.6-3-4.1c0-0.4,0-0.8,0-1.2c-0.1-2.3,1-4,3.1-4.7
			c1.4-0.5,1.8-1.2,1.7-2.6c-0.1-3.3,0.4-2.8-2.9-3.2c-1.8-0.2-2.7-0.9-2.7-2.6c-0.1-3.5-0.2-7,0.1-10.4c0.2-2.1,1.8-3.4,4-3.8
			c1.1-0.2,1.3-0.7,1.2-1.7c-0.2-1.8-1-3.4-2.1-4.9c-2.9-3.9-6.9-6.4-11.7-7.4c-8.2-1.8-16.5-3.4-24.8-5c-6.9-1.3-13.7-2.5-20.7-3.2
			c-5.1-0.5-10.4-0.3-15.6-0.3c-0.6,0-1.2-0.1-1.8,0c-1.1,0.2-1.5-0.2-1.5-1.4c0.1-13,0.1-26,0.1-39c0-1.1,0.4-1.4,1.4-1.4
			c9.6,0.2,19.1-0.9,28.6-2.6c10.5-1.9,21-4.1,31.4-6.2c11.4-2.3,22.7-4.4,34.3-5.5c7.2-0.6,14.3-0.5,21.4,0.5
			c5.4,0.8,10.7,1.9,15.7,3.9c2.8,1.1,3.4,2,3.3,4.9c0,5.9,0,11.7-0.1,17.6c0,2.8,0,5.6,0,8.5C455.5,197.4,455.4,197.4,455.4,197.4z
			"/>
		<path class="st3" d="M274.8,197.3c0-9.2,0-18.3,0-27.5c0-0.3,0-0.7,0-1c0.1-2.1,0.9-2.6,2.9-2.1c1,0.3,2.1,0.4,3.1,0.8
			c1.4,0.6,2.9,1.1,4.1,2.1c5.5,4.1,11.7,6.6,18.5,7.2c3.9,0.3,7.8,0.1,11.7,0.1c1,0,1.3,0.2,1.3,1.2c-0.1,12.9-0.2,25.8-0.2,38.6
			c0,0.9-0.4,1.2-1.2,1.1c-2.8-0.1-5.6-0.5-8.3-0.3c-6,0.3-11.8,1.3-17.1,4.4c-1.7,1-3.2,2.2-4.8,3.3c-2.6,1.8-5.5,2.8-8.7,2.5
			c-1.1-0.1-1.5-0.5-1.5-1.6c0.1-6.8,0.1-13.6,0.1-20.4C274.7,202.7,274.7,200,274.8,197.3C274.8,197.3,274.8,197.3,274.8,197.3z"/>
		<path class="st29" d="M459.6,224.9c0-0.7,0-1.1,0-1.6c0.1-17.1,0.1-34.1,0.2-51.2c0-1.4,0.2-1.5,1.5-1c4.3,1.5,7,4.7,9,8.5
			c3.7,7,4.7,14.6,3.7,22.4c-0.7,5.8-2.6,11.2-6.3,15.8c-2,2.6-4.5,4.7-7.2,6.6C460.3,224.5,460,224.6,459.6,224.9z"/>
	</g>
</g>
</svg>
