<?xml version="1.0" encoding="utf-8"?>
<!-- Generator: Adobe Illustrator 22.1.0, SVG Export Plug-In . SVG Version: 6.00 Build 0)  -->
<svg version="1.1" id="Calque_1" xmlns="http://www.w3.org/2000/svg" xmlns:xlink="http://www.w3.org/1999/xlink" x="0px" y="0px"
	 viewBox="0 0 480 480" style="enable-background:new 0 0 480 480;" xml:space="preserve">
<style type="text/css">
	.st0{fill:#FFD258;}
	.st1{fill:#FF5F7D;}
	.st2{fill:#DAECFF;}
	.st3{fill:none;stroke:#000000;stroke-miterlimit:10;}
	.st4{fill:#F36B7F;stroke:#000000;stroke-miterlimit:10;}
	.st5{fill:none;stroke:#000000;stroke-width:0.5;stroke-miterlimit:10;}
	.st6{fill:#FFCF47;stroke:#020202;stroke-miterlimit:10;}
	.st7{fill:#D6B154;}
	.st8{fill:#73B7A4;stroke:#020202;stroke-miterlimit:10;}
	.st9{fill:#5DA08B;}
	.st10{fill:#FFD258;stroke:#0A0A0A;stroke-width:0.75;stroke-miterlimit:10;}
	.st11{fill:#FEF0E1;}
	.st12{fill:#ADCCFF;}
	.st13{fill:none;stroke:#000000;stroke-width:2;stroke-miterlimit:10;}
	.st14{fill:#FFFBF2;}
	.st15{fill:#73B7A4;}
	.st16{fill:#98BFFF;}
	.st17{fill:#FFD258;stroke:#000000;stroke-width:2;stroke-miterlimit:10;}
	.st18{opacity:0.88;fill:#98BFFF;}
	.st19{opacity:0.75;fill:#FFFBF2;}
	.st20{opacity:0.88;fill:#719BD8;}
	.st21{opacity:0.75;fill:#EAD9B7;}
	.st22{fill:none;stroke:#070707;stroke-miterlimit:10;}
	.st23{fill:#FEF0E1;stroke:#070707;stroke-miterlimit:10;}
	.st24{opacity:0.43;fill:#7F3B48;}
	.st25{fill:#D3A533;}
	.st26{fill:#C1962B;}
	.st27{fill:#FFB5C0;stroke:#020202;stroke-miterlimit:10;}
	.st28{fill:#FF8E9E;}
	.st29{fill:#FF8E9E;stroke:#000000;stroke-miterlimit:10;}
	.st30{fill:#EA5B70;}
	.st31{fill:#020202;}
	.st32{fill:#FFD258;stroke:#050505;stroke-width:0.5;stroke-miterlimit:10;}
	.st33{fill:#FEF0E1;stroke:#020202;stroke-width:0.5;stroke-miterlimit:10;}
	.st34{fill:#DDB143;}
	.st35{fill:#D6AF8B;}
	.st36{fill:#FBCEC6;}
	.st37{fill:#FFFBF2;stroke:#020202;stroke-width:2;stroke-miterlimit:10;}
	.st38{fill:#FF5F7D;stroke:#020202;stroke-width:2;stroke-miterlimit:10;}
	.st39{fill:#FFFFFF;}
	.st40{fill:#ADCCFF;stroke:#020202;stroke-width:2;stroke-miterlimit:10;}
	.st41{fill:#FFD258;stroke:#050505;stroke-width:2;stroke-miterlimit:10;}
	.st42{fill:#85AAE0;}
	.st43{fill:#C99E32;}
	.st44{fill:#FF5F7D;stroke:#050505;stroke-width:2;stroke-miterlimit:10;}
	.st45{fill:#DBA92C;}
	.st46{fill:#73B7A4;stroke:#020202;stroke-width:2;stroke-miterlimit:10;}
	.st47{fill:#FFCF47;stroke:#020202;stroke-width:2;stroke-miterlimit:10;}
	.st48{fill:#99C6B8;}
	.st49{fill:#E2B23B;}
	.st50{fill:#C11A3E;}
	.st51{fill:#FEF0E1;stroke:#020202;stroke-miterlimit:10;}
	.st52{fill:#ADCCFF;stroke:#020202;stroke-miterlimit:10;}
	.st53{fill:#FFD258;stroke:#0C0C0C;stroke-width:0.75;stroke-miterlimit:10;}
	.st54{fill:#ADCCFF;stroke:#050505;stroke-width:2;stroke-miterlimit:10;}
	.st55{fill:#73B7A4;stroke:#050505;stroke-width:2;stroke-miterlimit:10;}
	.st56{fill:#FFFBF2;stroke:#050505;stroke-width:2;stroke-miterlimit:10;}
	.st57{fill:#FEF0E1;stroke:#020202;stroke-width:2;stroke-miterlimit:10;}
	.st58{fill:#D8A830;}
	.st59{fill:#FF5F7D;stroke:#050505;stroke-miterlimit:10;}
	.st60{fill:#E8D2BF;}
	.st61{fill:#FFD258;stroke:#0A0A0A;stroke-width:2;stroke-miterlimit:10;}
	.st62{fill:#D8AB3A;}
	.st63{fill:#FFD258;stroke:#050505;stroke-miterlimit:10;}
	.st64{fill:#FBCEC6;stroke:#070707;stroke-miterlimit:10;}
	.st65{fill:#D84161;}
	.st66{fill:#FFD258;stroke:#0A0A0A;stroke-miterlimit:10;}
	.st67{fill:#FFD258;stroke:#0A0A0A;stroke-width:3;stroke-miterlimit:10;}
	.st68{fill:none;stroke:#0A0A0A;stroke-width:3;stroke-miterlimit:10;}
	.st69{fill:none;stroke:#0A0A0A;stroke-width:2;stroke-miterlimit:10;}
	.st70{fill:#FF5F7D;stroke:#000000;stroke-miterlimit:10;}
	.st71{fill:#FFD258;stroke:#000000;stroke-miterlimit:10;}
	.st72{fill:#FF5F7D;stroke:#050505;stroke-width:0.75;stroke-miterlimit:10;}
	.st73{fill:#FEF0E1;stroke:#020202;stroke-width:0.75;stroke-miterlimit:10;}
	.st74{fill:#FF5F7D;stroke:#050505;stroke-width:0.25;stroke-miterlimit:10;}
	.st75{fill:#73B7A4;stroke:#020202;stroke-width:0.25;stroke-miterlimit:10;}
	.st76{fill:#FBCEC6;stroke:#020202;stroke-miterlimit:10;}
	.st77{fill:#73B7A4;stroke:#020202;stroke-width:0.75;stroke-miterlimit:10;}
	.st78{fill:#73B7A4;stroke:#070707;stroke-miterlimit:10;}
	.st79{fill:#FFFBF2;stroke:#070707;stroke-miterlimit:10;}
	.st80{fill:#E2B139;}
	.st81{fill:#FFFBF2;stroke:#020202;stroke-miterlimit:10;}
	.st82{fill:#ADCCFF;stroke:#020202;stroke-width:0.75;stroke-miterlimit:10;}
	.st83{fill:#FFFBF2;stroke:#020202;stroke-width:0.75;stroke-miterlimit:10;}
	.st84{fill:#FFD258;stroke:#050505;stroke-width:0.75;stroke-miterlimit:10;}
	.st85{fill:#FBCEC6;stroke:#020202;stroke-width:0.75;stroke-miterlimit:10;}
	.st86{fill:#73B7A4;stroke:#050505;stroke-miterlimit:10;}
	.st87{fill:#73B7A4;stroke:#050505;stroke-width:0.75;stroke-miterlimit:10;}
	.st88{fill:#E2C2A6;}
	.st89{fill:#DBC69E;}
	.st90{fill:#D39C94;}
	.st91{fill:#E0B344;}
	.st92{fill:#E0AE32;}
	.st93{fill:#4F9982;}
	.st94{fill:#DDBA9B;}
	.st95{fill:#C6961E;}
	.st96{fill:#FF5F7D;stroke:#000000;stroke-width:0.75;stroke-miterlimit:10;}
	.st97{fill:#FFD258;stroke:#000000;stroke-width:0.75;stroke-miterlimit:10;}
</style>
<path class="st36" d="M345.5,448.7H112.2c-43.5,0-79.2-35.6-79.2-79.2V136.3c0-43.5,35.6-79.2,79.2-79.2h233.2
	c43.5,0,79.2,35.6,79.2,79.2v233.2C424.6,413.1,389,448.7,345.5,448.7z"/>
<g id="zpUEfk.tif">
	<g>
		<path class="st59" d="M294.7,231.2c-0.4,30.2-19.9,57.9-46.4,66.4c-8.7,2.8-15,2.1-22-5.2c-22.3-23.5-45.6-46.2-68.7-69
			c-3.9-3.8-5.3-7.3-4.1-12.9c5-24.1,27.2-45.4,53.1-50.5c41-8.1,78.6,17,86.8,58C294.2,222.3,294.2,226.8,294.7,231.2z"/>
		<path class="st65" d="M287.7,200.8c-19.6,30.7-41.2,60.1-63.2,89.2c0.4,0.4,0.8,0.8,1.1,1.2c7,7.3,13.3,8,22,5.2
			c26.6-8.6,46-36.2,46.4-66.4c-0.4-4.4-0.5-8.9-1.3-13.2C291.6,211.1,289.9,205.8,287.7,200.8z"/>
		<path class="st51" d="M281.3,347.3c-13-0.1-23.9-10.8-24-23.9c-0.1-13.3,11-24.5,24.3-24.4c12.9,0.1,23.9,11,24.1,24
			C305.8,336.2,294.7,347.4,281.3,347.3z"/>
		<path class="st66" d="M153.9,233.3c21.9,21.9,43.8,43.9,65.6,65.8c-13.6,0.3-28.2-9.4-42.7-0.9c-7.1-7.4-14.3-14.8-21.8-22.7
			C163.9,262,153,247.4,153.9,233.3z"/>
		<path class="st66" d="M147.9,282.1c7.7,7.7,14.8,14.8,21.9,21.8c-9.6,10.1-18,21.8-29.1,29.6c-9.8,6.9-13.8-6.6-20.1-11.2
			c-4.4-3.2-4.6-8.1-0.6-12.2C129,300.8,138.3,291.7,147.9,282.1z"/>
	</g>
</g>
</svg>
