<?xml version="1.0" encoding="utf-8"?>
<!-- Generator: Adobe Illustrator 22.1.0, SVG Export Plug-In . SVG Version: 6.00 Build 0)  -->
<svg version="1.1" id="Calque_1" xmlns="http://www.w3.org/2000/svg" xmlns:xlink="http://www.w3.org/1999/xlink" x="0px" y="0px"
	 viewBox="0 0 700 480" style="enable-background:new 0 0 700 480;" xml:space="preserve">
<style type="text/css">
	.st0{fill:#DAECFF;}
	.st1{fill:#FFD258;}
	.st2{fill:#FBCEC6;}
	.st3{fill:#ADCCFF;}
	.st4{fill:#FF5F7D;}
	.st5{fill:none;stroke:#000000;stroke-width:2;stroke-miterlimit:10;}
	.st6{fill:#FFFBF2;}
	.st7{fill:#73B7A4;}
	.st8{fill:none;stroke:#000000;stroke-miterlimit:10;}
	.st9{fill:#98BFFF;}
	.st10{fill:#FFD258;stroke:#000000;stroke-width:2;stroke-miterlimit:10;}
	.st11{fill:#FEF0E1;stroke:#070707;stroke-miterlimit:10;}
	.st12{fill:#D3A533;}
	.st13{fill:#FFB5C0;stroke:#020202;stroke-miterlimit:10;}
	.st14{fill:#FF8E9E;}
	.st15{fill:#FF8E9E;stroke:#000000;stroke-miterlimit:10;}
	.st16{fill:#EA5B70;}
	.st17{fill:#020202;}
	.st18{fill:#FFD258;stroke:#050505;stroke-width:0.5;stroke-miterlimit:10;}
	.st19{fill:#FEF0E1;stroke:#020202;stroke-width:0.5;stroke-miterlimit:10;}
	.st20{fill:#DDB143;}
	.st21{fill:#D6AF8B;}
	.st22{fill:#FFFBF2;stroke:#020202;stroke-width:2;stroke-miterlimit:10;}
	.st23{fill:#FF5F7D;stroke:#020202;stroke-width:2;stroke-miterlimit:10;}
	.st24{fill:#FFFFFF;}
	.st25{fill:#ADCCFF;stroke:#020202;stroke-width:2;stroke-miterlimit:10;}
	.st26{fill:#FFD258;stroke:#050505;stroke-width:2;stroke-miterlimit:10;}
	.st27{fill:#85AAE0;}
	.st28{fill:#C99E32;}
	.st29{fill:#FFCF47;stroke:#020202;stroke-miterlimit:10;}
	.st30{fill:#FF5F7D;stroke:#050505;stroke-width:2;stroke-miterlimit:10;}
	.st31{fill:#F36B7F;stroke:#000000;stroke-miterlimit:10;}
	.st32{fill:#DBA92C;}
	.st33{fill:#73B7A4;stroke:#020202;stroke-width:2;stroke-miterlimit:10;}
	.st34{fill:#FFCF47;stroke:#020202;stroke-width:2;stroke-miterlimit:10;}
	.st35{fill:#99C6B8;}
	.st36{fill:#E2B23B;}
	.st37{fill:#C11A3E;}
	.st38{fill:#FEF0E1;stroke:#020202;stroke-miterlimit:10;}
	.st39{fill:#ADCCFF;stroke:#020202;stroke-miterlimit:10;}
	.st40{fill:#FFD258;stroke:#0C0C0C;stroke-width:0.75;stroke-miterlimit:10;}
	.st41{fill:#ADCCFF;stroke:#050505;stroke-width:2;stroke-miterlimit:10;}
	.st42{fill:#73B7A4;stroke:#050505;stroke-width:2;stroke-miterlimit:10;}
	.st43{fill:#FFFBF2;stroke:#050505;stroke-width:2;stroke-miterlimit:10;}
	.st44{fill:#FEF0E1;stroke:#020202;stroke-width:2;stroke-miterlimit:10;}
	.st45{fill:#D8A830;}
	.st46{fill:#FF5F7D;stroke:#050505;stroke-miterlimit:10;}
	.st47{fill:#73B7A4;stroke:#020202;stroke-miterlimit:10;}
	.st48{fill:#E8D2BF;}
	.st49{fill:#FFD258;stroke:#0A0A0A;stroke-width:2;stroke-miterlimit:10;}
	.st50{fill:#D8AB3A;}
	.st51{fill:#FFD258;stroke:#050505;stroke-miterlimit:10;}
	.st52{fill:#FBCEC6;stroke:#070707;stroke-miterlimit:10;}
	.st53{fill:#D84161;}
	.st54{fill:#FFD258;stroke:#0A0A0A;stroke-miterlimit:10;}
	.st55{fill:#FFD258;stroke:#0A0A0A;stroke-width:3;stroke-miterlimit:10;}
	.st56{fill:none;stroke:#0A0A0A;stroke-width:2;stroke-miterlimit:10;}
	.st57{fill:#FF5F7D;stroke:#000000;stroke-miterlimit:10;}
	.st58{fill:#FFD258;stroke:#000000;stroke-miterlimit:10;}
	.st59{fill:#FF5F7D;stroke:#050505;stroke-width:0.75;stroke-miterlimit:10;}
	.st60{fill:#FEF0E1;stroke:#020202;stroke-width:0.75;stroke-miterlimit:10;}
	.st61{fill:#FF5F7D;stroke:#050505;stroke-width:0.25;stroke-miterlimit:10;}
	.st62{fill:#FFD258;stroke:#0A0A0A;stroke-width:0.75;stroke-miterlimit:10;}
	.st63{fill:#73B7A4;stroke:#020202;stroke-width:0.25;stroke-miterlimit:10;}
	.st64{fill:#FBCEC6;stroke:#020202;stroke-miterlimit:10;}
	.st65{fill:#73B7A4;stroke:#020202;stroke-width:0.75;stroke-miterlimit:10;}
	.st66{fill:#73B7A4;stroke:#070707;stroke-miterlimit:10;}
	.st67{fill:#FFFBF2;stroke:#070707;stroke-miterlimit:10;}
	.st68{fill:#E2B139;}
	.st69{fill:#FFFBF2;stroke:#020202;stroke-miterlimit:10;}
	.st70{fill:#ADCCFF;stroke:#020202;stroke-width:0.75;stroke-miterlimit:10;}
	.st71{fill:#FFFBF2;stroke:#020202;stroke-width:0.75;stroke-miterlimit:10;}
	.st72{fill:#FFD258;stroke:#050505;stroke-width:0.75;stroke-miterlimit:10;}
	.st73{fill:#FBCEC6;stroke:#020202;stroke-width:0.75;stroke-miterlimit:10;}
	.st74{fill:#73B7A4;stroke:#050505;stroke-miterlimit:10;}
	.st75{fill:#73B7A4;stroke:#050505;stroke-width:0.75;stroke-miterlimit:10;}
	.st76{fill:#E2C2A6;}
	.st77{fill:#DBC69E;}
	.st78{fill:#D39C94;}
	.st79{fill:#E0B344;}
	.st80{fill:#E0AE32;}
	.st81{fill:#4F9982;}
	.st82{fill:#DDBA9B;}
	.st83{fill:#FF5F7D;stroke:#000000;stroke-width:0.75;stroke-miterlimit:10;}
	.st84{fill:#FFD258;stroke:#000000;stroke-width:0.75;stroke-miterlimit:10;}
	.st85{fill:none;stroke:#000000;stroke-width:0.5;stroke-miterlimit:10;}
	.st86{opacity:0.43;fill:#7F3B48;}
	.st87{opacity:0.88;fill:#98BFFF;}
	.st88{opacity:0.75;fill:#FFFBF2;}
	.st89{opacity:0.88;fill:#719BD8;}
	.st90{opacity:0.75;fill:#EAD9B7;}
	.st91{fill:#FEF0E1;}
	.st92{fill:none;stroke:#070707;stroke-miterlimit:10;}
	.st93{fill:#C1962B;}
	.st94{fill:#D6B154;}
	.st95{fill:#5DA08B;}
	.st96{fill:#C6961E;}
</style>
<rect x="0.5" y="1.8" class="st4" width="697.5" height="475.2"/>
<path class="st54" d="M319.5,172.7c0.3,2.6,0.6,6.1,1.1,10.3c13.1,5.5,27.2,8.1,41.4,7.8c14.2,0.4,28.3-2.3,41.4-7.8
	c0.5-4.2,0.9-7.7,1.1-10.3c-13.6,5.1-28,7.6-42.5,7.3C347.4,180.3,333,177.8,319.5,172.7z"/>
<path class="st54" d="M394.3,146.1c-4.1-3.4-7.6-7.5-10.3-12.2c-3-7-4.7-14.5-5.2-22c-5.3,2.4-11.1,3.6-16.9,3.5
	c-5.8,0.1-11.6-1.1-16.9-3.5c-0.5,7.6-2.3,15-5.2,22c-2.7,4.7-6.2,8.8-10.3,12.2c-5,3.6-8.6,8.8-10.4,14.7c13.5,6,28.1,8.9,42.8,8.4
	c14.7,0.4,29.3-2.4,42.8-8.4C403,154.9,399.3,149.8,394.3,146.1z"/>
<path class="st54" d="M286.5,169.2c0-5.3,1-10.6,2.9-15.5c-11.5,3.3-23.3,4.9-35.3,4.8c-11.9,0.1-23.8-1.5-35.3-4.8
	c1.9,5,2.9,10.2,2.9,15.5c0,9.3-7.9,14.5-15.5,19.4c-8.7,5.7-18.3,12.2-21.3,25.7c8.1,2.8,29.7,8.7,69,8.7c39.3,0,60.9-5.9,69-8.7
	c-2.9-13.6-12.5-20-21.3-25.7C294.4,183.7,286.5,178.5,286.5,169.2z"/>
<path class="st54" d="M377.1,263.1c11.2,5.5,23.6,8.2,36.1,7.7c12.5,0.5,24.9-2.2,36.1-7.7c-11.2-5.5-23.6-8.2-36.1-7.7
	C400.6,255,388.2,257.6,377.1,263.1z"/>
<path class="st54" d="M372.9,273.1v13.7c4.1,3,16.6,10.3,40.2,10.3c23.6,0,36.1-7.3,40.2-10.3v-13.7c-12.5,6-26.3,8.9-40.2,8.5
	C399.2,282,385.5,279.1,372.9,273.1z"/>
<path class="st39" d="M185.6,247.4c4.3,32.8,10.9,65.2,19.7,97c2.4,2.5,14.5,13.2,48.9,13.2c34.2,0,46.4-10.6,48.9-13.3
	c8.7-31.9,15.3-64.3,19.6-97c-22.4,5.9-45.5,8.6-68.6,8C231.1,256,208,253.4,185.6,247.4z"/>
<path class="st54" d="M362.2,284.4v-21.2c0-0.6,0.1-1.2,0.4-1.8c0.1-0.2,0.1-0.3,0.2-0.5c0.2-0.4,0.5-0.9,0.8-1.2
	c0.1-0.1,0.1-0.2,0.2-0.3c0.5-0.5,9.8-9.6,31.1-13.2c2.2-15.3,4.9-34.5,6.9-50.9c-12.8,4.4-26.3,6.5-39.9,6.3
	c-11.6,0.1-23.2-1.4-34.4-4.6c4.1,6.1,6.6,13.2,7.2,20.5l0,0.1c0.2,1.7,0.3,3.5,0.3,5.5c0,5.3-0.3,10.8-0.7,16.4c0,0.1,0,0.1,0,0.2
	c-0.6,8-1.6,16.1-2.8,24.4c1.4,9.8,2.6,17.4,3.1,20.8c3.3,2.4,7,4.3,10.9,5.6C350.6,287.3,356.3,285.2,362.2,284.4z"/>
<path class="st54" d="M184.3,225.4c0,3.4,0.1,6.8,0.4,10.3c8,2.8,29.6,8.8,69.6,8.8s61.6-6,69.6-8.8c0.2-3.5,0.3-6.9,0.4-10.3
	c-22.8,6.3-46.3,9.1-69.9,8.4C230.6,234.5,207,231.7,184.3,225.4z"/>
<path class="st39" d="M460.5,294.8c-5,3.9-19.7,13-47.4,13s-42.4-9.1-47.4-13c-5.8,0.4-11.3,2.4-15.9,5.8c-0.1,0-0.1,0.1-0.2,0.1
	c-6.3,5.2-9.7,13.2-9.2,21.3c0,27.5,30.9,61.4,36.6,67.4c11.7,3.6,23.9,5.6,36.1,5.9c12.3-0.3,24.4-2.3,36.1-5.9
	c5.7-6,36.6-39.9,36.6-67.4c0.4-7-2-13.9-6.8-19.1C474.2,297.9,467.5,294.9,460.5,294.8z"/>
<path class="st54" d="M218.9,142.3c11.4,3.7,23.4,5.6,35.4,5.4c12,0.2,24-1.6,35.4-5.4c-11.4-3.7-23.4-5.6-35.4-5.4
	C242.2,136.7,230.3,138.6,218.9,142.3z"/>
</svg>
