<?xml version="1.0" encoding="utf-8"?>
<!-- Generator: Adobe Illustrator 22.1.0, SVG Export Plug-In . SVG Version: 6.00 Build 0)  -->
<svg version="1.1" id="Calque_1" xmlns="http://www.w3.org/2000/svg" xmlns:xlink="http://www.w3.org/1999/xlink" x="0px" y="0px"
	 viewBox="0 0 700 480" style="enable-background:new 0 0 700 480;" xml:space="preserve">
<style type="text/css">
	.st0{fill:#DAECFF;}
	.st1{fill:#FFD258;}
	.st2{fill:#FBCEC6;}
	.st3{fill:#ADCCFF;}
	.st4{fill:#FF5F7D;}
	.st5{fill:none;stroke:#000000;stroke-width:2;stroke-miterlimit:10;}
	.st6{fill:#FFFBF2;}
	.st7{fill:#73B7A4;}
	.st8{fill:none;stroke:#000000;stroke-miterlimit:10;}
	.st9{fill:#98BFFF;}
	.st10{fill:#FFD258;stroke:#000000;stroke-width:2;stroke-miterlimit:10;}
	.st11{fill:#FEF0E1;stroke:#070707;stroke-miterlimit:10;}
	.st12{fill:#D3A533;}
	.st13{fill:#FFB5C0;stroke:#020202;stroke-miterlimit:10;}
	.st14{fill:#FF8E9E;}
	.st15{fill:#FF8E9E;stroke:#000000;stroke-miterlimit:10;}
	.st16{fill:#EA5B70;}
	.st17{fill:#020202;}
	.st18{fill:#FFD258;stroke:#050505;stroke-width:0.5;stroke-miterlimit:10;}
	.st19{fill:#FEF0E1;stroke:#020202;stroke-width:0.5;stroke-miterlimit:10;}
	.st20{fill:#DDB143;}
	.st21{fill:#D6AF8B;}
	.st22{fill:#FFFBF2;stroke:#020202;stroke-width:2;stroke-miterlimit:10;}
	.st23{fill:#FF5F7D;stroke:#020202;stroke-width:2;stroke-miterlimit:10;}
	.st24{fill:#FFFFFF;}
	.st25{fill:#ADCCFF;stroke:#020202;stroke-width:2;stroke-miterlimit:10;}
	.st26{fill:#FFD258;stroke:#050505;stroke-width:2;stroke-miterlimit:10;}
	.st27{fill:#85AAE0;}
	.st28{fill:#C99E32;}
	.st29{fill:#FFCF47;stroke:#020202;stroke-miterlimit:10;}
	.st30{fill:#FF5F7D;stroke:#050505;stroke-width:2;stroke-miterlimit:10;}
	.st31{fill:#F36B7F;stroke:#000000;stroke-miterlimit:10;}
	.st32{fill:#DBA92C;}
	.st33{fill:#73B7A4;stroke:#020202;stroke-width:2;stroke-miterlimit:10;}
	.st34{fill:#FFCF47;stroke:#020202;stroke-width:2;stroke-miterlimit:10;}
	.st35{fill:#99C6B8;}
	.st36{fill:#E2B23B;}
	.st37{fill:#C11A3E;}
	.st38{fill:#FEF0E1;stroke:#020202;stroke-miterlimit:10;}
	.st39{fill:#ADCCFF;stroke:#020202;stroke-miterlimit:10;}
	.st40{fill:#FFD258;stroke:#0C0C0C;stroke-width:0.75;stroke-miterlimit:10;}
	.st41{fill:#ADCCFF;stroke:#050505;stroke-width:2;stroke-miterlimit:10;}
	.st42{fill:#73B7A4;stroke:#050505;stroke-width:2;stroke-miterlimit:10;}
	.st43{fill:#FFFBF2;stroke:#050505;stroke-width:2;stroke-miterlimit:10;}
	.st44{fill:#FEF0E1;stroke:#020202;stroke-width:2;stroke-miterlimit:10;}
	.st45{fill:#D8A830;}
	.st46{fill:#FF5F7D;stroke:#050505;stroke-miterlimit:10;}
	.st47{fill:#73B7A4;stroke:#020202;stroke-miterlimit:10;}
	.st48{fill:#E8D2BF;}
	.st49{fill:#FFD258;stroke:#0A0A0A;stroke-width:2;stroke-miterlimit:10;}
	.st50{fill:#D8AB3A;}
	.st51{fill:#FFD258;stroke:#050505;stroke-miterlimit:10;}
	.st52{fill:#FBCEC6;stroke:#070707;stroke-miterlimit:10;}
	.st53{fill:#D84161;}
	.st54{fill:#FFD258;stroke:#0A0A0A;stroke-miterlimit:10;}
	.st55{fill:#FFD258;stroke:#0A0A0A;stroke-width:3;stroke-miterlimit:10;}
	.st56{fill:none;stroke:#0A0A0A;stroke-width:2;stroke-miterlimit:10;}
	.st57{fill:#FF5F7D;stroke:#000000;stroke-miterlimit:10;}
	.st58{fill:#FFD258;stroke:#000000;stroke-miterlimit:10;}
	.st59{fill:#FF5F7D;stroke:#050505;stroke-width:0.75;stroke-miterlimit:10;}
	.st60{fill:#FEF0E1;stroke:#020202;stroke-width:0.75;stroke-miterlimit:10;}
	.st61{fill:#FF5F7D;stroke:#050505;stroke-width:0.25;stroke-miterlimit:10;}
	.st62{fill:#FFD258;stroke:#0A0A0A;stroke-width:0.75;stroke-miterlimit:10;}
	.st63{fill:#73B7A4;stroke:#020202;stroke-width:0.25;stroke-miterlimit:10;}
	.st64{fill:#FBCEC6;stroke:#020202;stroke-miterlimit:10;}
	.st65{fill:#73B7A4;stroke:#020202;stroke-width:0.75;stroke-miterlimit:10;}
	.st66{fill:#73B7A4;stroke:#070707;stroke-miterlimit:10;}
	.st67{fill:#FFFBF2;stroke:#070707;stroke-miterlimit:10;}
	.st68{fill:#E2B139;}
	.st69{fill:#FFFBF2;stroke:#020202;stroke-miterlimit:10;}
	.st70{fill:#ADCCFF;stroke:#020202;stroke-width:0.75;stroke-miterlimit:10;}
	.st71{fill:#FFFBF2;stroke:#020202;stroke-width:0.75;stroke-miterlimit:10;}
	.st72{fill:#FFD258;stroke:#050505;stroke-width:0.75;stroke-miterlimit:10;}
	.st73{fill:#FBCEC6;stroke:#020202;stroke-width:0.75;stroke-miterlimit:10;}
	.st74{fill:#73B7A4;stroke:#050505;stroke-miterlimit:10;}
	.st75{fill:#73B7A4;stroke:#050505;stroke-width:0.75;stroke-miterlimit:10;}
	.st76{fill:#E2C2A6;}
	.st77{fill:#DBC69E;}
	.st78{fill:#D39C94;}
	.st79{fill:#E0B344;}
	.st80{fill:#E0AE32;}
	.st81{fill:#4F9982;}
	.st82{fill:#DDBA9B;}
	.st83{fill:#FF5F7D;stroke:#000000;stroke-width:0.75;stroke-miterlimit:10;}
	.st84{fill:#FFD258;stroke:#000000;stroke-width:0.75;stroke-miterlimit:10;}
	.st85{fill:none;stroke:#000000;stroke-width:0.5;stroke-miterlimit:10;}
	.st86{opacity:0.43;fill:#7F3B48;}
	.st87{opacity:0.88;fill:#98BFFF;}
	.st88{opacity:0.75;fill:#FFFBF2;}
	.st89{opacity:0.88;fill:#719BD8;}
	.st90{opacity:0.75;fill:#EAD9B7;}
	.st91{fill:#FEF0E1;}
	.st92{fill:none;stroke:#070707;stroke-miterlimit:10;}
	.st93{fill:#C1962B;}
	.st94{fill:#D6B154;}
	.st95{fill:#5DA08B;}
	.st96{fill:#C6961E;}
</style>
<rect x="5.7" y="3.9" class="st1" width="703.1" height="476.3"/>
<g id="_x32_5xorm.tif">
	<g>
		<path class="st11" d="M444.6,190.5c-1.6,0-2.7,0-3.9,0c-33.7,0-67.4-0.1-101,0c-32.1,0.2-56.9,14.1-74.2,41
			c-8.6,13.4-12.6,28.2-12.8,44.1c-0.1,4.3,2.3,6.7,6.6,6.9c0.8,0,1.6,0,2.4,0c39.4,0,78.9,0,118.3,0c23.4,0,46.7,0,70.1,0
			c5.1,0,7.6-2.2,7.6-6.9c0-26.3,0-52.6,0-78.9c0-8.3-2-16.3-6.4-23.4c-9.3-15.1-23-22.6-40.7-22.7c-25.7-0.1-51.5,0-77.2,0
			c-1.1,0-2.2,0.1-3.3,0.4c-2.9,0.8-4.5,3.4-4.2,6.5c0.3,2.9,2.4,5.1,5.4,5.4c1,0.1,2,0.1,3.1,0.1c25.3,0,50.5,0,75.8,0
			c6.5,0,12.7,1.3,18.3,4.6C437,172.7,442.3,180.2,444.6,190.5z M351.8,310.1c-32.4,0-64.8,0-97.2,0c-1.1,0-2.2,0-3.3,0.1
			c-3.9,0.5-6.2,4.4-4.9,8.1c1.1,3,3.2,4.2,7.4,4.2c63.9,0,127.8,0,191.7,0c2,0,3.9,0.1,5.9,0c3.7-0.2,6.3-3,6.2-6.4
			c-0.1-3.4-2.7-5.8-6.4-5.9c-0.6,0-1.3,0-1.9,0C416.8,310.1,384.3,310.1,351.8,310.1z"/>
		<path class="st11" d="M444.6,190.5c-2.3-10.3-7.6-17.8-16.3-22.9c-5.6-3.3-11.8-4.6-18.3-4.6c-25.3,0-50.5,0-75.8,0
			c-1,0-2.1,0-3.1-0.1c-3-0.3-5.1-2.5-5.4-5.4c-0.3-3.1,1.3-5.7,4.2-6.5c1-0.3,2.2-0.4,3.3-0.4c25.7,0,51.5-0.1,77.2,0
			c17.7,0.1,31.4,7.6,40.7,22.7c4.4,7.1,6.4,15,6.4,23.4c0,26.3,0,52.6,0,78.9c0,4.7-2.5,6.9-7.6,6.9c-23.4,0-46.7,0-70.1,0
			c-39.4,0-78.9,0-118.3,0c-0.8,0-1.6,0-2.4,0c-4.3-0.2-6.7-2.6-6.6-6.9c0.2-15.9,4.2-30.7,12.8-44.1c17.4-26.9,42.1-40.8,74.2-41
			c33.7-0.2,67.4,0,101,0C441.9,190.5,443,190.5,444.6,190.5z"/>
		<path class="st39" d="M351.8,310.1c32.5,0,65,0,97.5,0c0.6,0,1.3,0,1.9,0c3.7,0.1,6.3,2.5,6.4,5.9c0.1,3.4-2.5,6.2-6.2,6.4
			c-2,0.1-3.9,0-5.9,0c-63.9,0-127.8,0-191.7,0c-4.2,0-6.3-1.2-7.4-4.2c-1.3-3.7,1-7.6,4.9-8.1c1.1-0.1,2.2-0.1,3.3-0.1
			C287,310.1,319.4,310.1,351.8,310.1z"/>
	</g>
</g>
</svg>
