<?xml version="1.0" encoding="utf-8"?>
<!-- Generator: Adobe Illustrator 22.1.0, SVG Export Plug-In . SVG Version: 6.00 Build 0)  -->
<svg version="1.1" id="Calque_1" xmlns="http://www.w3.org/2000/svg" xmlns:xlink="http://www.w3.org/1999/xlink" x="0px" y="0px"
	 viewBox="0 0 480 480" style="enable-background:new 0 0 480 480;" xml:space="preserve">
<style type="text/css">
	.st0{fill:#FFD258;}
	.st1{fill:#FF5F7D;}
	.st2{fill:#DAECFF;}
	.st3{fill:none;stroke:#000000;stroke-miterlimit:10;}
	.st4{fill:#F36B7F;stroke:#000000;stroke-miterlimit:10;}
	.st5{fill:none;stroke:#000000;stroke-width:0.5;stroke-miterlimit:10;}
	.st6{fill:#FFCF47;stroke:#020202;stroke-miterlimit:10;}
	.st7{fill:#D6B154;}
	.st8{fill:#73B7A4;stroke:#020202;stroke-miterlimit:10;}
	.st9{fill:#5DA08B;}
	.st10{fill:#FFD258;stroke:#0A0A0A;stroke-width:0.75;stroke-miterlimit:10;}
	.st11{fill:#FEF0E1;}
	.st12{fill:#ADCCFF;}
	.st13{fill:none;stroke:#000000;stroke-width:2;stroke-miterlimit:10;}
	.st14{fill:#FFFBF2;}
	.st15{fill:#73B7A4;}
	.st16{fill:#98BFFF;}
	.st17{fill:#FFD258;stroke:#000000;stroke-width:2;stroke-miterlimit:10;}
	.st18{opacity:0.88;fill:#98BFFF;}
	.st19{opacity:0.75;fill:#FFFBF2;}
	.st20{opacity:0.88;fill:#719BD8;}
	.st21{opacity:0.75;fill:#EAD9B7;}
	.st22{fill:none;stroke:#070707;stroke-miterlimit:10;}
	.st23{fill:#FEF0E1;stroke:#070707;stroke-miterlimit:10;}
	.st24{opacity:0.43;fill:#7F3B48;}
	.st25{fill:#D3A533;}
	.st26{fill:#C1962B;}
	.st27{fill:#FFB5C0;stroke:#020202;stroke-miterlimit:10;}
	.st28{fill:#FF8E9E;}
	.st29{fill:#FF8E9E;stroke:#000000;stroke-miterlimit:10;}
	.st30{fill:#EA5B70;}
	.st31{fill:#020202;}
	.st32{fill:#FFD258;stroke:#050505;stroke-width:0.5;stroke-miterlimit:10;}
	.st33{fill:#FEF0E1;stroke:#020202;stroke-width:0.5;stroke-miterlimit:10;}
	.st34{fill:#DDB143;}
	.st35{fill:#D6AF8B;}
	.st36{fill:#FBCEC6;}
	.st37{fill:#FFFBF2;stroke:#020202;stroke-width:2;stroke-miterlimit:10;}
	.st38{fill:#FF5F7D;stroke:#020202;stroke-width:2;stroke-miterlimit:10;}
	.st39{fill:#FFFFFF;}
	.st40{fill:#ADCCFF;stroke:#020202;stroke-width:2;stroke-miterlimit:10;}
	.st41{fill:#FFD258;stroke:#050505;stroke-width:2;stroke-miterlimit:10;}
	.st42{fill:#85AAE0;}
	.st43{fill:#C99E32;}
	.st44{fill:#FF5F7D;stroke:#050505;stroke-width:2;stroke-miterlimit:10;}
	.st45{fill:#DBA92C;}
	.st46{fill:#73B7A4;stroke:#020202;stroke-width:2;stroke-miterlimit:10;}
	.st47{fill:#FFCF47;stroke:#020202;stroke-width:2;stroke-miterlimit:10;}
	.st48{fill:#99C6B8;}
	.st49{fill:#E2B23B;}
	.st50{fill:#C11A3E;}
	.st51{fill:#FEF0E1;stroke:#020202;stroke-miterlimit:10;}
	.st52{fill:#ADCCFF;stroke:#020202;stroke-miterlimit:10;}
	.st53{fill:#FFD258;stroke:#0C0C0C;stroke-width:0.75;stroke-miterlimit:10;}
	.st54{fill:#ADCCFF;stroke:#050505;stroke-width:2;stroke-miterlimit:10;}
	.st55{fill:#73B7A4;stroke:#050505;stroke-width:2;stroke-miterlimit:10;}
	.st56{fill:#FFFBF2;stroke:#050505;stroke-width:2;stroke-miterlimit:10;}
	.st57{fill:#FEF0E1;stroke:#020202;stroke-width:2;stroke-miterlimit:10;}
	.st58{fill:#D8A830;}
	.st59{fill:#FF5F7D;stroke:#050505;stroke-miterlimit:10;}
	.st60{fill:#E8D2BF;}
	.st61{fill:#FFD258;stroke:#0A0A0A;stroke-width:2;stroke-miterlimit:10;}
	.st62{fill:#D8AB3A;}
	.st63{fill:#FFD258;stroke:#050505;stroke-miterlimit:10;}
	.st64{fill:#FBCEC6;stroke:#070707;stroke-miterlimit:10;}
	.st65{fill:#D84161;}
	.st66{fill:#FFD258;stroke:#0A0A0A;stroke-miterlimit:10;}
	.st67{fill:#FFD258;stroke:#0A0A0A;stroke-width:3;stroke-miterlimit:10;}
	.st68{fill:none;stroke:#0A0A0A;stroke-width:3;stroke-miterlimit:10;}
	.st69{fill:none;stroke:#0A0A0A;stroke-width:2;stroke-miterlimit:10;}
	.st70{fill:#FF5F7D;stroke:#000000;stroke-miterlimit:10;}
	.st71{fill:#FFD258;stroke:#000000;stroke-miterlimit:10;}
	.st72{fill:#FF5F7D;stroke:#050505;stroke-width:0.75;stroke-miterlimit:10;}
	.st73{fill:#FEF0E1;stroke:#020202;stroke-width:0.75;stroke-miterlimit:10;}
	.st74{fill:#FF5F7D;stroke:#050505;stroke-width:0.25;stroke-miterlimit:10;}
	.st75{fill:#73B7A4;stroke:#020202;stroke-width:0.25;stroke-miterlimit:10;}
	.st76{fill:#FBCEC6;stroke:#020202;stroke-miterlimit:10;}
	.st77{fill:#73B7A4;stroke:#020202;stroke-width:0.75;stroke-miterlimit:10;}
	.st78{fill:#73B7A4;stroke:#070707;stroke-miterlimit:10;}
	.st79{fill:#FFFBF2;stroke:#070707;stroke-miterlimit:10;}
	.st80{fill:#E2B139;}
	.st81{fill:#FFFBF2;stroke:#020202;stroke-miterlimit:10;}
	.st82{fill:#ADCCFF;stroke:#020202;stroke-width:0.75;stroke-miterlimit:10;}
	.st83{fill:#FFFBF2;stroke:#020202;stroke-width:0.75;stroke-miterlimit:10;}
	.st84{fill:#FFD258;stroke:#050505;stroke-width:0.75;stroke-miterlimit:10;}
	.st85{fill:#FBCEC6;stroke:#020202;stroke-width:0.75;stroke-miterlimit:10;}
	.st86{fill:#73B7A4;stroke:#050505;stroke-miterlimit:10;}
	.st87{fill:#73B7A4;stroke:#050505;stroke-width:0.75;stroke-miterlimit:10;}
	.st88{fill:#E2C2A6;}
	.st89{fill:#DBC69E;}
	.st90{fill:#D39C94;}
	.st91{fill:#E0B344;}
	.st92{fill:#E0AE32;}
	.st93{fill:#4F9982;}
	.st94{fill:#DDBA9B;}
	.st95{fill:#C6961E;}
	.st96{fill:#FF5F7D;stroke:#000000;stroke-width:0.75;stroke-miterlimit:10;}
	.st97{fill:#FFD258;stroke:#000000;stroke-width:0.75;stroke-miterlimit:10;}
</style>
<path class="st2" d="M348.5,439.9H115.2c-43.5,0-79.2-35.6-79.2-79.2V127.5c0-43.5,35.6-79.2,79.2-79.2h233.2
	c43.5,0,79.2,35.6,79.2,79.2v233.2C427.6,404.2,392,439.9,348.5,439.9z"/>
<g id="AW7fmo.tif">
	<g>
		<path d="M230.7,186.2c26.9,0,53.8,0,80.8,0c5.1,0,10.1,0,15.2,0c8.7,0.1,13.5,4.9,13.5,13.5c0,39.6,0,79.3,0,118.9
			c0,9.1-4.7,13.7-13.9,13.7c-54.8,0-109.5,0-164.3,0c-9.2,0-18.4,0-27.7,0c-8.6,0-13.4-4.8-13.4-13.4c0-39.5,0.1-78.9-0.1-118.4
			c-0.1-9,5.7-14.6,14.4-14.5C167.1,186.3,198.9,186.2,230.7,186.2z M209.8,328.2c25.2,0,50.3,0,75.5,0c7.3,0,10-2.7,10-10
			c0-18.4,0-36.9,0-55.3c0-21.3,0-42.6,0-63.9c0-5.4-3.1-8.5-8.6-8.6c-1,0-2,0-3,0c-49.5,0-99,0-148.6,0c-7.4,0-10.2,2.8-10.2,10.2
			c0,39.2,0,78.4,0,117.6c0,7.5,2.7,10.2,10.1,10.2C160,328.3,184.9,328.3,209.8,328.2z M297.6,190.2c0.7,3,2,5.8,2,8.7
			c0.1,40.3,0.1,80.6,0,120.9c0,2.3-1.1,4.6-1.8,6.9c-0.2,0.6-0.4,1.1-0.6,1.7c6.3,0,12.4,0,18.6,0c0-46.1,0-92,0-138.1
			C309.5,190.2,303.4,190.2,297.6,190.2z M320.1,328.5c2.4,0,4.6,0,6.8,0c6.1,0,9.4-3.3,9.4-9.3c0-28,0-56.1,0-84.1
			c0-12.1,0-24.2,0-36.2c0-4.4-2.6-7.9-6.5-8.4c-3.1-0.4-6.4-0.1-9.7-0.1C320.1,236.4,320.1,282.2,320.1,328.5z"/>
		<path class="st63" d="M342.4,173.8c-2,0-3.6,0.2-5.1-0.1c-1.1-0.2-2.7-1.1-2.8-1.8c-0.2-1.8,1.4-2,2.9-2c1.5,0,3.1,0,5,0
			c0-2.1-0.2-3.9,0.1-5.7c0.1-0.8,1.2-1.5,1.8-2.3c0.6,0.7,1.7,1.4,1.9,2.2c0.4,1.8-0.3,4.3,0.7,5.2c1,1,3.5,0.3,5.2,0.6
			c0.9,0.2,1.6,1.2,2.3,1.8c-0.8,0.6-1.4,1.7-2.3,1.8c-1.8,0.3-3.6,0.1-5.9,0.1c0,2,0.2,3.7-0.1,5.2c-0.2,1-1.1,2.6-1.8,2.7
			c-1.8,0.2-2-1.4-2-2.9C342.4,177.3,342.4,175.8,342.4,173.8z"/>
		<path class="st63" d="M319.3,161.8c-0.4-0.9-1-1.7-1.2-2.6c-0.3-1.8,0.2-4.1-0.7-5.2c-0.8-0.9-3.3-0.2-5-0.5
			c-0.9-0.2-1.5-1.2-2.3-1.8c0.7-0.6,1.4-1.7,2.2-1.8c1.8-0.4,4.2,0.3,5.2-0.7c1-1,0.3-3.5,0.7-5.2c0.2-0.9,1.2-1.5,1.8-2.3
			c0.6,0.8,1.6,1.4,1.8,2.3c0.4,1.7-0.3,4.3,0.7,5.2c1,1,3.5,0.3,5.2,0.7c0.8,0.2,1.5,1.2,2.2,1.8c-0.8,0.6-1.4,1.6-2.3,1.8
			c-1.7,0.4-4.3-0.3-5.2,0.7c-1,1-0.3,3.5-0.6,5.2c-0.2,0.9-1,1.6-1.5,2.5C320,161.9,319.6,161.8,319.3,161.8z"/>
		<path class="st36" d="M209.8,328.3c-24.9,0-49.8,0-74.7,0c-7.4,0-10.1-2.7-10.1-10.2c0-39.2,0-78.4,0-117.6
			c0-7.4,2.8-10.2,10.2-10.2c49.5,0,99,0,148.6,0c1,0,2,0,3,0c5.5,0.2,8.6,3.2,8.6,8.6c0,21.3,0,42.6,0,63.9c0,18.4,0,36.9,0,55.3
			c0,7.3-2.7,10-10,10C260.2,328.2,235,328.2,209.8,328.3z"/>
		<path class="st36" d="M297.6,190.2c5.8,0,11.9,0,18.2,0c0,46.1,0,92,0,138.1c-6.2,0-12.2,0-18.6,0c0.2-0.6,0.5-1.2,0.6-1.7
			c0.6-2.3,1.8-4.6,1.8-6.9c0.1-40.3,0.1-80.6,0-120.9C299.6,196.1,298.3,193.3,297.6,190.2z"/>
		<path class="st36" d="M320.1,328.5c0-46.3,0-92.1,0-138.2c3.3,0,6.5-0.3,9.7,0.1c4,0.5,6.5,4,6.5,8.4c0,12.1,0,24.2,0,36.2
			c0,28,0,56.1,0,84.1c0,6.1-3.3,9.3-9.4,9.3C324.7,328.5,322.5,328.5,320.1,328.5z"/>
		<path d="M197.6,254c1.9-5.8,5.2-10.9,9.6-15.2c2.9-2.7,3.4-2.7,6.3,0.1c3.9,4,7.2,8.4,9,13.8c0.2,0.5,0.5,1,0.6,1.2
			c3.6-0.2,7-0.4,10.4-0.6c2.2-0.1,3.2,0.8,3.3,3c0.8,15-8.6,25.3-23.7,25.6c-6,0.1-12,0.4-17.5-2.7c-9.6-5.5-12.4-14.4-11.8-23.5
			c0.1-1.7,1.2-2.4,2.8-2.3C190.1,253.5,193.7,253.7,197.6,254z M188.2,257.9c-0.9,10.4,7.2,19.6,17.3,19.7c1.2,0,2.5,0.3,2.5-1.6
			C208.3,265.2,198.1,256.2,188.2,257.9z M232.4,260.3c0.5-2.2-0.6-2.9-3-2.7c-9.3,0.9-16.3,8.1-16.8,17.5c-0.1,2.2,0.6,2.7,2.7,2.6
			C224.2,277.3,231.9,269.7,232.4,260.3z M210.2,264.7c2.5-2.5,5.1-5,7.7-7.6c0.5-0.5,1-1.5,0.8-2c-1.4-5.2-4.4-9.4-8.4-13.2
			c-3.8,3.6-6.7,7.6-8.2,12.5c-0.2,0.8-0.1,2.1,0.4,2.7C205.1,259.7,207.8,262.3,210.2,264.7z"/>
		<path class="st8" d="M188.2,257.9c9.9-1.7,20.1,7.3,19.8,18.1c-0.1,1.9-1.4,1.6-2.5,1.6C195.4,277.4,187.2,268.2,188.2,257.9z"/>
		<path class="st8" d="M232.4,260.3c-0.5,9.4-8.2,17-17.2,17.4c-2,0.1-2.8-0.4-2.7-2.6c0.5-9.3,7.5-16.6,16.8-17.5
			C231.8,257.3,232.9,258,232.4,260.3z"/>
		<path class="st8" d="M210.2,264.7c-2.4-2.4-5.2-4.9-7.7-7.7c-0.5-0.6-0.7-1.9-0.4-2.7c1.5-4.8,4.4-8.8,8.2-12.5
			c4,3.8,7,8,8.4,13.2c0.2,0.6-0.3,1.5-0.8,2C215.3,259.7,212.7,262.2,210.2,264.7z"/>
	</g>
</g>
</svg>
