<?xml version="1.0" encoding="utf-8"?>
<!-- Generator: Adobe Illustrator 22.1.0, SVG Export Plug-In . SVG Version: 6.00 Build 0)  -->
<svg version="1.1" id="Calque_1" xmlns="http://www.w3.org/2000/svg" xmlns:xlink="http://www.w3.org/1999/xlink" x="0px" y="0px"
	 viewBox="0 0 700 480" style="enable-background:new 0 0 700 480;" xml:space="preserve">
<style type="text/css">
	.st0{fill:#DAECFF;}
	.st1{fill:#FFD258;}
	.st2{fill:#FBCEC6;}
	.st3{fill:#ADCCFF;}
	.st4{fill:#FF5F7D;}
	.st5{fill:none;stroke:#000000;stroke-width:2;stroke-miterlimit:10;}
	.st6{fill:#FFFBF2;}
	.st7{fill:#73B7A4;}
	.st8{fill:none;stroke:#000000;stroke-miterlimit:10;}
	.st9{fill:#98BFFF;}
	.st10{fill:#FFD258;stroke:#000000;stroke-width:2;stroke-miterlimit:10;}
	.st11{fill:#FEF0E1;stroke:#070707;stroke-miterlimit:10;}
	.st12{fill:#D3A533;}
	.st13{fill:#FFB5C0;stroke:#020202;stroke-miterlimit:10;}
	.st14{fill:#FF8E9E;}
	.st15{fill:#FF8E9E;stroke:#000000;stroke-miterlimit:10;}
	.st16{fill:#EA5B70;}
	.st17{fill:#020202;}
	.st18{fill:#FFD258;stroke:#050505;stroke-width:0.5;stroke-miterlimit:10;}
	.st19{fill:#FEF0E1;stroke:#020202;stroke-width:0.5;stroke-miterlimit:10;}
	.st20{fill:#DDB143;}
	.st21{fill:#D6AF8B;}
	.st22{fill:#FFFBF2;stroke:#020202;stroke-width:2;stroke-miterlimit:10;}
	.st23{fill:#FF5F7D;stroke:#020202;stroke-width:2;stroke-miterlimit:10;}
	.st24{fill:#FFFFFF;}
	.st25{fill:#ADCCFF;stroke:#020202;stroke-width:2;stroke-miterlimit:10;}
	.st26{fill:#FFD258;stroke:#050505;stroke-width:2;stroke-miterlimit:10;}
	.st27{fill:#85AAE0;}
	.st28{fill:#C99E32;}
	.st29{fill:#FFCF47;stroke:#020202;stroke-miterlimit:10;}
	.st30{fill:#FF5F7D;stroke:#050505;stroke-width:2;stroke-miterlimit:10;}
	.st31{fill:#F36B7F;stroke:#000000;stroke-miterlimit:10;}
	.st32{fill:#DBA92C;}
	.st33{fill:#73B7A4;stroke:#020202;stroke-width:2;stroke-miterlimit:10;}
	.st34{fill:#FFCF47;stroke:#020202;stroke-width:2;stroke-miterlimit:10;}
	.st35{fill:#99C6B8;}
	.st36{fill:#E2B23B;}
	.st37{fill:#C11A3E;}
	.st38{fill:#FEF0E1;stroke:#020202;stroke-miterlimit:10;}
	.st39{fill:#ADCCFF;stroke:#020202;stroke-miterlimit:10;}
	.st40{fill:#FFD258;stroke:#0C0C0C;stroke-width:0.75;stroke-miterlimit:10;}
	.st41{fill:#ADCCFF;stroke:#050505;stroke-width:2;stroke-miterlimit:10;}
	.st42{fill:#73B7A4;stroke:#050505;stroke-width:2;stroke-miterlimit:10;}
	.st43{fill:#FFFBF2;stroke:#050505;stroke-width:2;stroke-miterlimit:10;}
	.st44{fill:#FEF0E1;stroke:#020202;stroke-width:2;stroke-miterlimit:10;}
	.st45{fill:#D8A830;}
	.st46{fill:#FF5F7D;stroke:#050505;stroke-miterlimit:10;}
	.st47{fill:#73B7A4;stroke:#020202;stroke-miterlimit:10;}
	.st48{fill:#E8D2BF;}
	.st49{fill:#FFD258;stroke:#0A0A0A;stroke-width:2;stroke-miterlimit:10;}
	.st50{fill:#D8AB3A;}
	.st51{fill:#FFD258;stroke:#050505;stroke-miterlimit:10;}
	.st52{fill:#FBCEC6;stroke:#070707;stroke-miterlimit:10;}
	.st53{fill:#D84161;}
	.st54{fill:#FFD258;stroke:#0A0A0A;stroke-miterlimit:10;}
	.st55{fill:#FFD258;stroke:#0A0A0A;stroke-width:3;stroke-miterlimit:10;}
	.st56{fill:none;stroke:#0A0A0A;stroke-width:2;stroke-miterlimit:10;}
	.st57{fill:#FF5F7D;stroke:#000000;stroke-miterlimit:10;}
	.st58{fill:#FFD258;stroke:#000000;stroke-miterlimit:10;}
	.st59{fill:#FF5F7D;stroke:#050505;stroke-width:0.75;stroke-miterlimit:10;}
	.st60{fill:#FEF0E1;stroke:#020202;stroke-width:0.75;stroke-miterlimit:10;}
	.st61{fill:#FF5F7D;stroke:#050505;stroke-width:0.25;stroke-miterlimit:10;}
	.st62{fill:#FFD258;stroke:#0A0A0A;stroke-width:0.75;stroke-miterlimit:10;}
	.st63{fill:#73B7A4;stroke:#020202;stroke-width:0.25;stroke-miterlimit:10;}
	.st64{fill:#FBCEC6;stroke:#020202;stroke-miterlimit:10;}
	.st65{fill:#73B7A4;stroke:#020202;stroke-width:0.75;stroke-miterlimit:10;}
	.st66{fill:#73B7A4;stroke:#070707;stroke-miterlimit:10;}
	.st67{fill:#FFFBF2;stroke:#070707;stroke-miterlimit:10;}
	.st68{fill:#E2B139;}
	.st69{fill:#FFFBF2;stroke:#020202;stroke-miterlimit:10;}
	.st70{fill:#ADCCFF;stroke:#020202;stroke-width:0.75;stroke-miterlimit:10;}
	.st71{fill:#FFFBF2;stroke:#020202;stroke-width:0.75;stroke-miterlimit:10;}
	.st72{fill:#FFD258;stroke:#050505;stroke-width:0.75;stroke-miterlimit:10;}
	.st73{fill:#FBCEC6;stroke:#020202;stroke-width:0.75;stroke-miterlimit:10;}
	.st74{fill:#73B7A4;stroke:#050505;stroke-miterlimit:10;}
	.st75{fill:#73B7A4;stroke:#050505;stroke-width:0.75;stroke-miterlimit:10;}
	.st76{fill:#E2C2A6;}
	.st77{fill:#DBC69E;}
	.st78{fill:#D39C94;}
	.st79{fill:#E0B344;}
	.st80{fill:#E0AE32;}
	.st81{fill:#4F9982;}
	.st82{fill:#DDBA9B;}
	.st83{fill:#FF5F7D;stroke:#000000;stroke-width:0.75;stroke-miterlimit:10;}
	.st84{fill:#FFD258;stroke:#000000;stroke-width:0.75;stroke-miterlimit:10;}
	.st85{fill:none;stroke:#000000;stroke-width:0.5;stroke-miterlimit:10;}
	.st86{opacity:0.43;fill:#7F3B48;}
	.st87{opacity:0.88;fill:#98BFFF;}
	.st88{opacity:0.75;fill:#FFFBF2;}
	.st89{opacity:0.88;fill:#719BD8;}
	.st90{opacity:0.75;fill:#EAD9B7;}
	.st91{fill:#FEF0E1;}
	.st92{fill:none;stroke:#070707;stroke-miterlimit:10;}
	.st93{fill:#C1962B;}
	.st94{fill:#D6B154;}
	.st95{fill:#5DA08B;}
	.st96{fill:#C6961E;}
</style>
<rect x="-1.7" y="-2.6" class="st1" width="703.1" height="476.3"/>
<g>
	<path class="st69" d="M244.1,359.9c0-79.7,0-159.1,0-238.7c0.9,0,1.8-0.1,2.7-0.1c14.3,0,28.6,0,42.9,0c3,0,6.1,0.2,9,0.7
		c6.6,1.2,11,5.3,13.8,11.4c3.7,8.2,5,17,6.2,25.8c1.8,12.4,3.2,24.8,5.4,37.1c1.7,9.7,5.8,18.6,11.1,26.9c0.5,0.8,1,2,0.7,2.8
		c-1.6,4.9-0.3,9.1,2.7,13c14.9,19.4,29.8,38.7,44.7,58.1c7.8,10.1,15.6,20.3,23.4,30.4c0.7,1,1.4,2.4,1.3,3.6
		c-0.2,9.6-0.5,19.2-0.9,28.9c-4.5,0-8.5,0-12.6,0c0.7-4.8,1.5-9.5,2.1-14.3c0.4-3.3,0.6-6.5,0.8-9.8c0.2-3.3-1.4-5.4-4-5.5
		c-2.7-0.1-4.2,1.8-4.5,5.1c-0.8,8.2-1.8,16.4-2.8,24.6C338.5,359.9,291.4,359.9,244.1,359.9z M271.7,129.2
		c-1.5,0.1-4.1,0.1-6.8,0.4c-2.5,0.3-3.9,2-3.9,4.3c0,2.4,1.7,4.1,4.3,4.2c1.8,0.1,3.6-0.4,5.3-0.2c5.5,0.5,11,0.6,16.3,1.9
		c7.6,1.9,12.5,6.8,13.1,15.1c0.7,8.9,1.5,17.9,2.1,26.8c0.7,9,2,17.8,6,26c1.2,2.5,3.4,3.4,5.7,2.4c2.3-1,3.3-3.2,2.1-5.7
		c-3.8-7.9-4.8-16.4-5.4-25.1c-0.7-9.4-1.5-18.8-2.5-28.1c-0.9-7.6-5-13.1-11.7-16.8C289,130.4,281.1,129.4,271.7,129.2z"/>
	<path class="st64" d="M483.1,301.9c-0.9,1.4-1.5,2.9-2.6,3.8c-15.3,11.9-30.7,23.7-46,35.5c-2.7,2.1-4.9,1.7-7.1-1
		c-27.4-35.6-54.8-71.1-82.1-106.7c-2.4-3.1-2.1-5,1-7.4c15.3-11.8,30.5-23.5,45.8-35.3c3-2.3,5-1.8,7.6,1.5
		c19.8,25.8,39.7,51.5,59.5,77.3c7.3,9.5,14.7,19,21.9,28.5C481.9,299.1,482.3,300.3,483.1,301.9z M401,242.8
		c-4,5.2-4.3,8.3-1.2,12.4c11.2,14.7,22.5,29.3,33.8,43.9c3.5,4.5,9.8,5.9,14.9,3.7c8-3.5,10.2-12.9,4.6-20.3
		c-10.5-13.7-21-27.3-31.5-41c-4.6-6-6.8-6.6-14-4.2c-1.3-1.6-2.7-3.2-3.8-5c-6.2-9.3-18.6-11.5-28.7-1.7c-1.8,1.7-1.9,4-0.5,5.7
		c1.4,1.7,3.7,2.1,5.7,0.8c1.3-0.8,2.4-1.8,3.6-2.7c4-2.8,8.8-2.2,11.9,1.5C397.6,238.3,399.2,240.5,401,242.8z"/>
</g>
<circle class="st2" cx="261.3" cy="168.6" r="2.2"/>
<circle class="st2" cx="331.3" cy="240.4" r="2.2"/>
<circle class="st2" cx="304.8" cy="240.4" r="2.2"/>
<circle class="st2" cx="278.2" cy="212.5" r="2.2"/>
<circle class="st2" cx="264.9" cy="267" r="2.2"/>
<circle class="st2" cx="331.3" cy="267" r="2.2"/>
<circle class="st2" cx="303.4" cy="293.6" r="2.2"/>
<circle class="st2" cx="344.6" cy="306.9" r="2.2"/>
<circle class="st2" cx="264.9" cy="240.4" r="2.2"/>
<circle class="st2" cx="303.4" cy="265.7" r="2.2"/>
<circle class="st2" cx="286.1" cy="183.3" r="2.2"/>
<circle class="st2" cx="270.2" cy="304.2" r="2.2"/>
<circle class="st2" cx="324.7" cy="329.5" r="2.2"/>
<circle class="st2" cx="284.8" cy="342.8" r="2.2"/>
<circle class="st2" cx="364.6" cy="289.6" r="2.2"/>
<circle class="st2" cx="351.3" cy="342.8" r="2.2"/>
</svg>
