<?xml version="1.0" encoding="utf-8"?>
<!-- Generator: Adobe Illustrator 22.1.0, SVG Export Plug-In . SVG Version: 6.00 Build 0)  -->
<svg version="1.1" id="Calque_1" xmlns="http://www.w3.org/2000/svg" xmlns:xlink="http://www.w3.org/1999/xlink" x="0px" y="0px"
	 viewBox="0 0 700 480" style="enable-background:new 0 0 700 480;" xml:space="preserve">
<style type="text/css">
	.st0{fill:#DAECFF;}
	.st1{fill:#FFD258;}
	.st2{fill:#FBCEC6;}
	.st3{fill:#ADCCFF;}
	.st4{fill:#FF5F7D;}
	.st5{fill:none;stroke:#000000;stroke-width:2;stroke-miterlimit:10;}
	.st6{fill:#FFFBF2;}
	.st7{fill:#73B7A4;}
	.st8{fill:none;stroke:#000000;stroke-miterlimit:10;}
	.st9{fill:#98BFFF;}
	.st10{fill:#FFD258;stroke:#000000;stroke-width:2;stroke-miterlimit:10;}
	.st11{fill:#FEF0E1;stroke:#070707;stroke-miterlimit:10;}
	.st12{fill:#D3A533;}
	.st13{fill:#FFB5C0;stroke:#020202;stroke-miterlimit:10;}
	.st14{fill:#FF8E9E;}
	.st15{fill:#FF8E9E;stroke:#000000;stroke-miterlimit:10;}
	.st16{fill:#EA5B70;}
	.st17{fill:#020202;}
	.st18{fill:#FFD258;stroke:#050505;stroke-width:0.5;stroke-miterlimit:10;}
	.st19{fill:#FEF0E1;stroke:#020202;stroke-width:0.5;stroke-miterlimit:10;}
	.st20{fill:#DDB143;}
	.st21{fill:#D6AF8B;}
	.st22{fill:#FFFBF2;stroke:#020202;stroke-width:2;stroke-miterlimit:10;}
	.st23{fill:#FF5F7D;stroke:#020202;stroke-width:2;stroke-miterlimit:10;}
	.st24{fill:#FFFFFF;}
	.st25{fill:#ADCCFF;stroke:#020202;stroke-width:2;stroke-miterlimit:10;}
	.st26{fill:#FFD258;stroke:#050505;stroke-width:2;stroke-miterlimit:10;}
	.st27{fill:#85AAE0;}
	.st28{fill:#C99E32;}
	.st29{fill:#FFCF47;stroke:#020202;stroke-miterlimit:10;}
	.st30{fill:#FF5F7D;stroke:#050505;stroke-width:2;stroke-miterlimit:10;}
	.st31{fill:#F36B7F;stroke:#000000;stroke-miterlimit:10;}
	.st32{fill:#DBA92C;}
	.st33{fill:#73B7A4;stroke:#020202;stroke-width:2;stroke-miterlimit:10;}
	.st34{fill:#FFCF47;stroke:#020202;stroke-width:2;stroke-miterlimit:10;}
	.st35{fill:#99C6B8;}
	.st36{fill:#E2B23B;}
	.st37{fill:#C11A3E;}
	.st38{fill:#FEF0E1;stroke:#020202;stroke-miterlimit:10;}
	.st39{fill:#ADCCFF;stroke:#020202;stroke-miterlimit:10;}
	.st40{fill:#FFD258;stroke:#0C0C0C;stroke-width:0.75;stroke-miterlimit:10;}
	.st41{fill:#ADCCFF;stroke:#050505;stroke-width:2;stroke-miterlimit:10;}
	.st42{fill:#73B7A4;stroke:#050505;stroke-width:2;stroke-miterlimit:10;}
	.st43{fill:#FFFBF2;stroke:#050505;stroke-width:2;stroke-miterlimit:10;}
	.st44{fill:#FEF0E1;stroke:#020202;stroke-width:2;stroke-miterlimit:10;}
	.st45{fill:#D8A830;}
	.st46{fill:#FF5F7D;stroke:#050505;stroke-miterlimit:10;}
	.st47{fill:#73B7A4;stroke:#020202;stroke-miterlimit:10;}
	.st48{fill:#E8D2BF;}
	.st49{fill:#FFD258;stroke:#0A0A0A;stroke-width:2;stroke-miterlimit:10;}
	.st50{fill:#D8AB3A;}
	.st51{fill:#FFD258;stroke:#050505;stroke-miterlimit:10;}
	.st52{fill:#FBCEC6;stroke:#070707;stroke-miterlimit:10;}
	.st53{fill:#D84161;}
	.st54{fill:#FFD258;stroke:#0A0A0A;stroke-miterlimit:10;}
	.st55{fill:#FFD258;stroke:#0A0A0A;stroke-width:3;stroke-miterlimit:10;}
	.st56{fill:none;stroke:#0A0A0A;stroke-width:2;stroke-miterlimit:10;}
	.st57{fill:#FF5F7D;stroke:#000000;stroke-miterlimit:10;}
	.st58{fill:#FFD258;stroke:#000000;stroke-miterlimit:10;}
	.st59{fill:#FF5F7D;stroke:#050505;stroke-width:0.75;stroke-miterlimit:10;}
	.st60{fill:#FEF0E1;stroke:#020202;stroke-width:0.75;stroke-miterlimit:10;}
	.st61{fill:#FF5F7D;stroke:#050505;stroke-width:0.25;stroke-miterlimit:10;}
	.st62{fill:#FFD258;stroke:#0A0A0A;stroke-width:0.75;stroke-miterlimit:10;}
	.st63{fill:#73B7A4;stroke:#020202;stroke-width:0.25;stroke-miterlimit:10;}
	.st64{fill:#FBCEC6;stroke:#020202;stroke-miterlimit:10;}
	.st65{fill:#73B7A4;stroke:#020202;stroke-width:0.75;stroke-miterlimit:10;}
	.st66{fill:#73B7A4;stroke:#070707;stroke-miterlimit:10;}
	.st67{fill:#FFFBF2;stroke:#070707;stroke-miterlimit:10;}
	.st68{fill:#E2B139;}
	.st69{fill:#FFFBF2;stroke:#020202;stroke-miterlimit:10;}
	.st70{fill:#ADCCFF;stroke:#020202;stroke-width:0.75;stroke-miterlimit:10;}
	.st71{fill:#FFFBF2;stroke:#020202;stroke-width:0.75;stroke-miterlimit:10;}
	.st72{fill:#FFD258;stroke:#050505;stroke-width:0.75;stroke-miterlimit:10;}
	.st73{fill:#FBCEC6;stroke:#020202;stroke-width:0.75;stroke-miterlimit:10;}
	.st74{fill:#73B7A4;stroke:#050505;stroke-miterlimit:10;}
	.st75{fill:#73B7A4;stroke:#050505;stroke-width:0.75;stroke-miterlimit:10;}
	.st76{fill:#E2C2A6;}
	.st77{fill:#DBC69E;}
	.st78{fill:#D39C94;}
	.st79{fill:#E0B344;}
	.st80{fill:#E0AE32;}
	.st81{fill:#4F9982;}
	.st82{fill:#DDBA9B;}
	.st83{fill:#FF5F7D;stroke:#000000;stroke-width:0.75;stroke-miterlimit:10;}
	.st84{fill:#FFD258;stroke:#000000;stroke-width:0.75;stroke-miterlimit:10;}
	.st85{fill:none;stroke:#000000;stroke-width:0.5;stroke-miterlimit:10;}
	.st86{opacity:0.43;fill:#7F3B48;}
	.st87{opacity:0.88;fill:#98BFFF;}
	.st88{opacity:0.75;fill:#FFFBF2;}
	.st89{opacity:0.88;fill:#719BD8;}
	.st90{opacity:0.75;fill:#EAD9B7;}
	.st91{fill:#FEF0E1;}
	.st92{fill:none;stroke:#070707;stroke-miterlimit:10;}
	.st93{fill:#C1962B;}
	.st94{fill:#D6B154;}
	.st95{fill:#5DA08B;}
	.st96{fill:#C6961E;}
</style>
<rect x="-1.4" y="-2.8" class="st0" width="698.4" height="480"/>
<g id="tRDfyu.tif">
	<g>
		<path class="st30" d="M449.6,288.7c-61.2,0-122.3,0-183.6,0c0-0.7,0-1.4,0-2.1c0-38.9,0-77.9,0-116.8c0-10.1,6.7-16.8,16.8-16.8
			c50,0,100,0,150,0c10.1,0,16.8,6.7,16.8,16.9c0,38.9,0,77.9,0,116.8C449.6,287.2,449.6,287.9,449.6,288.7z M422,240.4
			c0-1,0-1.8,0-2.6c0-17.5,0-35,0-52.4c0-0.9,0-1.8-0.1-2.7c-0.3-2.9-2.7-5.1-5.5-5.1c-2.8,0.1-5.2,2.4-5.3,5.4c0,0.9,0,1.8,0,2.7
			c0,17.4,0,34.8,0,52.2c0,0.8-0.1,1.6-0.1,2.6c-1.6,0-2.9-0.1-4.3,0c-2.8,0.2-4.9,2.5-4.9,5.3c0,2.8,2.1,5.1,4.9,5.4
			c0.6,0.1,1.2,0,1.8,0c2.6,0,2.6,0,2.6,2.7c0,4.8,0,9.7,0,14.5c0,3.8,2.1,6.1,5.4,6.1c3.3,0,5.5-2.4,5.5-6c0-5,0-10,0-15
			c0-0.7,0.1-1.5,0.1-2.1c2.2-0.3,4.3-0.3,6.2-0.9c2.1-0.7,3.2-2.7,2.9-4.9c-0.1-1.2-0.6-2.4-1.3-3.3C428,239.9,425,240.8,422,240.4
			z M293.6,231.8c0,1,0,1.8,0,2.6c0,11.3,0,22.5,0,33.8c0,1.3,0.2,2.6,0.7,3.8c1,2.3,3.7,3.3,6,2.7c2.5-0.6,4.1-2.7,4.1-5.7
			c0-11.6,0-23.2,0-34.8c0-0.8,0.1-1.6,0.1-2.5c1.3,0,2.4,0,3.5,0c3.4-0.1,5.7-2.3,5.7-5.4c0-3.1-2.3-5.3-5.8-5.4
			c-1.1,0-2.3,0-3.6,0c0-2.2,0-4,0-5.8c0-10.5,0-21,0-31.5c0-3-1.7-5-4.4-5.7c-2.3-0.5-5,0.8-5.9,3c-0.4,1.1-0.6,2.4-0.6,3.6
			c0,11.3,0,22.5,0,33.8c0,0.8,0,1.6,0,2.6c-4.4,0.1-9-0.4-9.2,5.6c0,1.2,0.6,2.5,1.4,3.5C287.7,232.3,290.7,231.5,293.6,231.8z
			 M352.5,216c0,1.2,0,2,0,2.8c0,8.3,0,16.5,0,24.8c0,8.5,0,17.1,0,25.6c0,3.7,2.8,6.1,6.3,5.5c2.7-0.4,4.4-2.6,4.4-5.8
			c0-16.8,0-33.6,0-50.4c0-0.8,0-1.6,0-2.6c1.6,0,3,0.1,4.4,0c3-0.3,5.2-2.8,5-5.7c-0.1-2.8-2.4-5-5.4-5.1c-1.3,0-2.5,0-4,0
			c0-1,0-1.6,0-2.3c0-6.4,0-12.8,0-19.3c0-3.4-2.2-5.8-5.3-5.9c-3.1-0.1-5.4,2.4-5.4,5.9c0,6.4,0,12.7,0,19.1c0,0.7,0,1.5,0,2.4
			c-1.4,0-2.5,0-3.7,0c-3.4,0.1-5.7,2.3-5.7,5.4c0,3,2.4,5.3,5.7,5.5C349.9,216,351.1,216,352.5,216z M381.8,231.7
			c0,2.3,0,4.3,0,6.3c0,10.4,0,20.8,0,31.1c0,2.3,0.8,4.1,3,5.2c1.9,0.9,3.7,0.8,5.4-0.4c1.8-1.2,2.4-3,2.4-5.1
			c0-11.5,0-23.1,0-34.6c0-0.7,0-1.5,0-2.4c1.4,0,2.5,0,3.7,0c3.2-0.1,5.6-2.3,5.7-5.3c0.1-3-2.3-5.4-5.6-5.5c-1.2,0-2.4,0-3.7,0
			c0-1.1,0-1.8,0-2.6c0-11.5,0-22.9,0-34.4c0-3.6-2.3-6.2-5.4-6.2c-3.1,0-5.4,2.5-5.4,6.2c0,11,0,22,0,33c0,3.9,0,3.9-3.9,4.1
			c-3.2,0.1-5.4,2.3-5.4,5.2c-0.1,3.1,2.1,5.4,5.4,5.5C379.1,231.7,380.3,231.7,381.8,231.7z M323,200.3c0,0.8,0,1.6,0,2.3
			c0,12.7,0,25.4,0,38.1c0,9.4,0,18.9,0,28.3c0,4,3.4,6.6,7,5.6c2.6-0.8,3.8-2.7,3.8-6.3c0-21.8,0-43.6,0-65.4c0-0.9,0-1.7,0-2.8
			c1.6,0,2.9,0.1,4.1,0c3.1-0.2,5.2-2.3,5.2-5.3c0-3-2.1-5.3-5.2-5.5c-1.3-0.1-2.6,0-4.1,0c0-2.1,0-3.9,0-5.7c-0.1-3.5-2.3-6-5.4-6
			c-3.1,0-5.4,2.6-5.4,6c0,1.8,0,3.6,0,5.3c-2.3,0.3-4.4,0.4-6.3,1c-2.1,0.7-3.1,2.6-3.1,4.9C313.7,198.4,315.9,199.7,323,200.3z"/>
		<path class="st30" d="M266.2,299.8c61,0,122.1,0,183.4,0c0,0.8,0,1.5,0,2.2c0,5.4,0,10.8,0,16.2c0,10.2-6.6,16.9-16.8,16.9
			c-23.7,0.1-47.4,0-71.1,0c-26.2,0-52.3,0-78.5,0c-5.8,0-10.6-1.8-14.1-6.5c-1.9-2.5-3-5.4-3.1-8.5c-0.1-6.6-0.1-13.1-0.1-19.7
			C266,300.3,266.1,300.1,266.2,299.8z M299,311.3c-2.9,0-5.5,2.6-5.4,5.3c0.1,3,2.6,5.6,5.5,5.5c2.8,0,5.4-2.6,5.4-5.3
			C304.4,313.8,301.9,311.3,299,311.3z M416.5,311.3c-2.8,0-5.4,2.4-5.4,5.1c0,3,2.5,5.7,5.3,5.7c2.8,0,5.5-2.6,5.5-5.3
			C422,313.9,419.5,311.3,416.5,311.3z M358,311.3c-2.9-0.1-5.5,2.3-5.5,5.2c0,3,2.4,5.6,5.3,5.6c2.7,0,5.3-2.4,5.4-5.1
			C363.2,313.9,360.9,311.4,358,311.3z M381.9,316.6c0,3.1,2.5,5.6,5.4,5.6c2.8-0.1,5.5-2.7,5.4-5.4c-0.1-2.9-2.5-5.4-5.4-5.4
			C384.3,311.3,381.8,313.7,381.9,316.6z M328.5,311.3c-2.9,0-5.5,2.6-5.5,5.3c0,3,2.7,5.6,5.5,5.6c2.8,0,5.3-2.5,5.3-5.2
			C333.8,313.8,331.5,311.3,328.5,311.3z"/>
		<path class="st55" d="M422,240.4c3,0.4,6-0.6,7.9,2c0.7,0.9,1.2,2.2,1.3,3.3c0.2,2.2-0.8,4.2-2.9,4.9c-1.9,0.7-4,0.6-6.2,0.9
			c0,0.6-0.1,1.4-0.1,2.1c0,5,0,10,0,15c0,3.7-2.2,6.1-5.5,6c-3.3,0-5.4-2.4-5.4-6.1c0-4.8,0-9.7,0-14.5c0-2.7,0-2.7-2.6-2.7
			c-0.6,0-1.2,0-1.8,0c-2.8-0.3-4.9-2.6-4.9-5.4c0-2.8,2.1-5.1,4.9-5.3c1.3-0.1,2.7,0,4.3,0c0-1,0.1-1.8,0.1-2.6
			c0-17.4,0-34.8,0-52.2c0-0.9,0-1.8,0-2.7c0.1-3,2.5-5.4,5.3-5.4c2.7-0.1,5.2,2.2,5.5,5.1c0.1,0.9,0.1,1.8,0.1,2.7
			c0,17.5,0,35,0,52.4C422,238.7,422,239.5,422,240.4z"/>
		<path class="st55" d="M293.6,231.8c-2.9-0.3-5.9,0.6-7.8-1.9c-0.8-0.9-1.4-2.3-1.4-3.5c0.2-6,4.8-5.5,9.2-5.6c0-1,0-1.8,0-2.6
			c0-11.3,0-22.5,0-33.8c0-1.2,0.1-2.5,0.6-3.6c0.9-2.3,3.6-3.6,5.9-3c2.7,0.6,4.4,2.7,4.4,5.7c0,10.5,0,21,0,31.5
			c0,1.8,0,3.7,0,5.8c1.3,0,2.4,0,3.6,0c3.4,0.1,5.7,2.3,5.8,5.4c0,3.1-2.3,5.3-5.7,5.4c-1.1,0-2.2,0-3.5,0c0,0.9-0.1,1.7-0.1,2.5
			c0,11.6,0,23.2,0,34.8c0,2.9-1.6,5-4.1,5.7c-2.4,0.6-5-0.5-6-2.7c-0.5-1.1-0.7-2.5-0.7-3.8c-0.1-11.3,0-22.5,0-33.8
			C293.6,233.6,293.6,232.7,293.6,231.8z"/>
		<path class="st55" d="M352.5,216c-1.4,0-2.5,0-3.7,0c-3.3-0.1-5.7-2.4-5.7-5.5c0-3.1,2.4-5.3,5.7-5.4c1.1,0,2.3,0,3.7,0
			c0-1,0-1.7,0-2.4c0-6.4,0-12.7,0-19.1c0-3.5,2.3-6,5.4-5.9c3,0.1,5.3,2.5,5.3,5.9c0,6.4,0,12.8,0,19.3c0,0.7,0,1.3,0,2.3
			c1.5,0,2.7,0,4,0c3,0.1,5.3,2.3,5.4,5.1c0.1,2.9-2,5.4-5,5.7c-1.3,0.1-2.7,0-4.4,0c0,1,0,1.8,0,2.6c0,16.8,0,33.6,0,50.4
			c0,3.2-1.7,5.3-4.4,5.8c-3.5,0.6-6.3-1.8-6.3-5.5c0-8.5,0-17.1,0-25.6c0-8.3,0-16.5,0-24.8C352.5,218,352.5,217.1,352.5,216z"/>
		<path class="st55" d="M381.8,231.7c-1.5,0-2.7,0-4,0c-3.2-0.1-5.4-2.4-5.4-5.5c0.1-3,2.3-5.1,5.4-5.2c3.9-0.2,3.9-0.2,3.9-4.1
			c0-11,0-22,0-33c0-3.7,2.3-6.2,5.4-6.2c3.1,0,5.4,2.6,5.4,6.2c0,11.5,0,22.9,0,34.4c0,0.7,0,1.5,0,2.6c1.3,0,2.5,0,3.7,0
			c3.3,0.1,5.7,2.5,5.6,5.5c-0.1,3-2.4,5.2-5.7,5.3c-1.1,0-2.3,0-3.7,0c0,0.9,0,1.7,0,2.4c0,11.5,0,23.1,0,34.6
			c0,2.1-0.7,3.9-2.4,5.1c-1.7,1.2-3.6,1.3-5.4,0.4c-2.1-1-3-2.9-3-5.2c0-10.4,0-20.8,0-31.1C381.8,236,381.8,234,381.8,231.7z"/>
		<path class="st55" d="M323,200.3c-7.1-0.5-9.3-1.8-9.3-5.4c0-2.3,1-4.2,3.1-4.9c1.9-0.7,4-0.7,6.3-1c0-1.7,0-3.5,0-5.3
			c0-3.4,2.3-6,5.4-6c3.1,0,5.3,2.4,5.4,6c0,1.8,0,3.6,0,5.7c1.6,0,2.8-0.1,4.1,0c3.1,0.2,5.2,2.4,5.2,5.5c0,2.9-2.1,5.1-5.2,5.3
			c-1.3,0.1-2.6,0-4.1,0c0,1.1,0,2,0,2.8c0,21.8,0,43.6,0,65.4c0,3.5-1.2,5.5-3.8,6.3c-3.6,1.1-7-1.6-7-5.6c0-9.4,0-18.9,0-28.3
			c0-12.7,0-25.4,0-38.1C323,201.8,323,201.1,323,200.3z"/>
		<path class="st55" d="M299,311.3c2.9,0,5.4,2.5,5.4,5.5c0,2.7-2.6,5.3-5.4,5.3c-2.8,0-5.4-2.5-5.5-5.5
			C293.6,313.9,296.2,311.3,299,311.3z"/>
		<path class="st55" d="M416.5,311.3c2.9,0,5.4,2.5,5.4,5.5c0,2.7-2.7,5.3-5.5,5.3c-2.9,0-5.3-2.7-5.3-5.7
			C411.2,313.7,413.7,311.3,416.5,311.3z"/>
		<path class="st55" d="M358,311.3c3,0.1,5.3,2.6,5.2,5.7c-0.1,2.7-2.7,5.1-5.4,5.1c-2.9,0-5.3-2.6-5.3-5.6
			C352.5,313.6,355,311.3,358,311.3z"/>
		<path class="st55" d="M381.9,316.6c0-2.8,2.5-5.3,5.4-5.3c2.8,0,5.3,2.5,5.4,5.4c0.1,2.7-2.6,5.3-5.4,5.4
			C384.4,322.2,381.9,319.6,381.9,316.6z"/>
		<path class="st55" d="M328.5,311.3c3,0,5.3,2.5,5.3,5.6c0,2.7-2.5,5.2-5.3,5.2c-2.8,0-5.4-2.6-5.5-5.6
			C323,313.9,325.6,311.3,328.5,311.3z"/>
	</g>
</g>
</svg>
