<?xml version="1.0" encoding="utf-8"?>
<!-- Generator: Adobe Illustrator 22.1.0, SVG Export Plug-In . SVG Version: 6.00 Build 0)  -->
<svg version="1.1" id="Calque_1" xmlns="http://www.w3.org/2000/svg" xmlns:xlink="http://www.w3.org/1999/xlink" x="0px" y="0px"
	 viewBox="0 0 700 480" style="enable-background:new 0 0 700 480;" xml:space="preserve">
<style type="text/css">
	.st0{fill:#DAECFF;}
	.st1{fill:#FFD258;}
	.st2{fill:#FBCEC6;}
	.st3{fill:#ADCCFF;}
	.st4{fill:#FF5F7D;}
	.st5{fill:none;stroke:#000000;stroke-width:2;stroke-miterlimit:10;}
	.st6{fill:#FFFBF2;}
	.st7{fill:#73B7A4;}
	.st8{fill:none;stroke:#000000;stroke-miterlimit:10;}
	.st9{fill:#98BFFF;}
	.st10{fill:#FFD258;stroke:#000000;stroke-width:2;stroke-miterlimit:10;}
	.st11{fill:#FEF0E1;stroke:#070707;stroke-miterlimit:10;}
	.st12{fill:#D3A533;}
	.st13{fill:#FFB5C0;stroke:#020202;stroke-miterlimit:10;}
	.st14{fill:#FF8E9E;}
	.st15{fill:#FF8E9E;stroke:#000000;stroke-miterlimit:10;}
	.st16{fill:#EA5B70;}
	.st17{fill:#020202;}
	.st18{fill:#FFD258;stroke:#050505;stroke-width:0.5;stroke-miterlimit:10;}
	.st19{fill:#FEF0E1;stroke:#020202;stroke-width:0.5;stroke-miterlimit:10;}
	.st20{fill:#DDB143;}
	.st21{fill:#D6AF8B;}
	.st22{fill:#FFFBF2;stroke:#020202;stroke-width:2;stroke-miterlimit:10;}
	.st23{fill:#FF5F7D;stroke:#020202;stroke-width:2;stroke-miterlimit:10;}
	.st24{fill:#FFFFFF;}
	.st25{fill:#ADCCFF;stroke:#020202;stroke-width:2;stroke-miterlimit:10;}
	.st26{fill:#FFD258;stroke:#050505;stroke-width:2;stroke-miterlimit:10;}
	.st27{fill:#85AAE0;}
	.st28{fill:#C99E32;}
	.st29{fill:#FFCF47;stroke:#020202;stroke-miterlimit:10;}
	.st30{fill:#FF5F7D;stroke:#050505;stroke-width:2;stroke-miterlimit:10;}
	.st31{fill:#F36B7F;stroke:#000000;stroke-miterlimit:10;}
	.st32{fill:#DBA92C;}
	.st33{fill:#73B7A4;stroke:#020202;stroke-width:2;stroke-miterlimit:10;}
	.st34{fill:#FFCF47;stroke:#020202;stroke-width:2;stroke-miterlimit:10;}
	.st35{fill:#99C6B8;}
	.st36{fill:#E2B23B;}
	.st37{fill:#C11A3E;}
	.st38{fill:#FEF0E1;stroke:#020202;stroke-miterlimit:10;}
	.st39{fill:#ADCCFF;stroke:#020202;stroke-miterlimit:10;}
	.st40{fill:#FFD258;stroke:#0C0C0C;stroke-width:0.75;stroke-miterlimit:10;}
	.st41{fill:#ADCCFF;stroke:#050505;stroke-width:2;stroke-miterlimit:10;}
	.st42{fill:#73B7A4;stroke:#050505;stroke-width:2;stroke-miterlimit:10;}
	.st43{fill:#FFFBF2;stroke:#050505;stroke-width:2;stroke-miterlimit:10;}
	.st44{fill:#FEF0E1;stroke:#020202;stroke-width:2;stroke-miterlimit:10;}
	.st45{fill:#D8A830;}
	.st46{fill:#FF5F7D;stroke:#050505;stroke-miterlimit:10;}
	.st47{fill:#73B7A4;stroke:#020202;stroke-miterlimit:10;}
	.st48{fill:#E8D2BF;}
	.st49{fill:#FFD258;stroke:#0A0A0A;stroke-width:2;stroke-miterlimit:10;}
	.st50{fill:#D8AB3A;}
	.st51{fill:#FFD258;stroke:#050505;stroke-miterlimit:10;}
	.st52{fill:#FBCEC6;stroke:#070707;stroke-miterlimit:10;}
	.st53{fill:#D84161;}
	.st54{fill:#FFD258;stroke:#0A0A0A;stroke-miterlimit:10;}
	.st55{fill:#FFD258;stroke:#0A0A0A;stroke-width:3;stroke-miterlimit:10;}
	.st56{fill:none;stroke:#0A0A0A;stroke-width:2;stroke-miterlimit:10;}
	.st57{fill:#FF5F7D;stroke:#000000;stroke-miterlimit:10;}
	.st58{fill:#FFD258;stroke:#000000;stroke-miterlimit:10;}
	.st59{fill:#FF5F7D;stroke:#050505;stroke-width:0.75;stroke-miterlimit:10;}
	.st60{fill:#FEF0E1;stroke:#020202;stroke-width:0.75;stroke-miterlimit:10;}
	.st61{fill:#FF5F7D;stroke:#050505;stroke-width:0.25;stroke-miterlimit:10;}
	.st62{fill:#FFD258;stroke:#0A0A0A;stroke-width:0.75;stroke-miterlimit:10;}
	.st63{fill:#73B7A4;stroke:#020202;stroke-width:0.25;stroke-miterlimit:10;}
	.st64{fill:#FBCEC6;stroke:#020202;stroke-miterlimit:10;}
	.st65{fill:#73B7A4;stroke:#020202;stroke-width:0.75;stroke-miterlimit:10;}
	.st66{fill:#73B7A4;stroke:#070707;stroke-miterlimit:10;}
	.st67{fill:#FFFBF2;stroke:#070707;stroke-miterlimit:10;}
	.st68{fill:#E2B139;}
	.st69{fill:#FFFBF2;stroke:#020202;stroke-miterlimit:10;}
	.st70{fill:#ADCCFF;stroke:#020202;stroke-width:0.75;stroke-miterlimit:10;}
	.st71{fill:#FFFBF2;stroke:#020202;stroke-width:0.75;stroke-miterlimit:10;}
	.st72{fill:#FFD258;stroke:#050505;stroke-width:0.75;stroke-miterlimit:10;}
	.st73{fill:#FBCEC6;stroke:#020202;stroke-width:0.75;stroke-miterlimit:10;}
	.st74{fill:#73B7A4;stroke:#050505;stroke-miterlimit:10;}
	.st75{fill:#73B7A4;stroke:#050505;stroke-width:0.75;stroke-miterlimit:10;}
	.st76{fill:#E2C2A6;}
	.st77{fill:#DBC69E;}
	.st78{fill:#D39C94;}
	.st79{fill:#E0B344;}
	.st80{fill:#E0AE32;}
	.st81{fill:#4F9982;}
	.st82{fill:#DDBA9B;}
	.st83{fill:#FF5F7D;stroke:#000000;stroke-width:0.75;stroke-miterlimit:10;}
	.st84{fill:#FFD258;stroke:#000000;stroke-width:0.75;stroke-miterlimit:10;}
	.st85{fill:none;stroke:#000000;stroke-width:0.5;stroke-miterlimit:10;}
	.st86{opacity:0.43;fill:#7F3B48;}
	.st87{opacity:0.88;fill:#98BFFF;}
	.st88{opacity:0.75;fill:#FFFBF2;}
	.st89{opacity:0.88;fill:#719BD8;}
	.st90{opacity:0.75;fill:#EAD9B7;}
	.st91{fill:#FEF0E1;}
	.st92{fill:none;stroke:#070707;stroke-miterlimit:10;}
	.st93{fill:#C1962B;}
	.st94{fill:#D6B154;}
	.st95{fill:#5DA08B;}
	.st96{fill:#C6961E;}
</style>
<rect x="4" y="2.1" class="st3" width="700" height="479.9"/>
<g id="r4mLqK.tif">
	<g>
		<path class="st62" d="M403.7,180.9c4.8,14.5,9.5,28.6,14.2,43c17.7-2.3,33.2,2.4,46,14.8c9.6,9.3,14.9,20.7,16.2,33.9
			c2.5,25-14.3,49.5-38.4,56.4c-25.4,7.3-52-4.3-63.8-27.5c-12.3-24.3-4.7-57.4,23.4-72.5c-0.8-2.6-1.7-5.2-2.7-8.3
			c-0.8,0.9-1.4,1.5-1.9,2.1c-15,19.2-30.2,38.4-45.1,57.8c-3.1,4-6.5,5.8-11.5,5.6c-7.2-0.2-14.4-0.1-21.9-0.1
			c-3.7,17.6-12.9,31-29.2,39.2c-12,6-24.7,7.4-37.7,4.1c-24.9-6.2-42.2-30.6-40.3-56.2c2-26.2,23.1-47.6,49.4-49.7
			c24.8-2,51.9,14.2,57.7,45.1c2.8,0,5.7,0,9,0c-0.4-0.9-0.7-1.7-1.1-2.4c-14.3-23.8-28.7-47.6-43-71.5c-1.5-2.5-3.4-2-5.4-2
			c-5.9-0.2-9.6-4-9.2-9.5c0.3-3.6,3-6.8,6.7-7.5c1-0.2,2-0.4,3-0.4c8.4,0,16.8,0,25.2,0c4.2,0,7.4,1.7,9,5.7c1.4,3.4,0.7,6.8-2.1,9
			c-2,1.7-4.9,2.3-7.7,3.6c2.6,4.4,5.6,9.3,8.7,14.2c0.3,0.5,1.6,0.6,2.4,0.6c23.2,0,46.5,0.1,69.7-0.1c1.2,0,2.7-1,3.7-1.8
			c4.3-3.6,4.9-7.6,2.6-12.9c-2.6-5.8-4.2-12.1-6.1-18.2c-2-6.4,1.4-11.8,8-12c8-0.3,16-0.2,24,0c5.3,0.2,8.8,4,8.6,8.9
			c-0.1,4.8-3.8,8.2-9.2,8.4C411.5,180.9,407.8,180.9,403.7,180.9z M423.6,241c0.4,1.3,0.7,2.3,1,3.4c3.2,9.7,6.4,19.4,9.5,29.1
			c0.5,1.7,0.9,3.6,0.6,5.3c-0.6,4-3.9,6.9-7.8,7.1c-4.1,0.3-7.6-2-9-6.1c-3.4-10-6.7-20.1-10-30.2c-0.4-1.1-0.8-2.1-1.2-3.3
			c-15.8,9.6-21.7,29.9-13.7,46.8c7.9,16.7,27.7,24.8,45.4,18.6c17.3-6.1,27.6-24.8,23.4-42.6C457.8,251.4,440.7,238.8,423.6,241z
			 M299.9,286.3c-1.1,0-2.2,0-3.3,0c-9.9,0-19.8,0-29.7,0c-1.9,0-3.8-0.2-5.6-0.8c-3.8-1.4-5.9-5.6-5.1-9.5c0.7-3.9,4.1-6.8,8.4-6.9
			c10.7-0.1,21.4-0.1,32.1-0.1c1.1,0,2.1,0,3.2,0c-0.4-13.9-18.7-28.2-35.2-28c-19.6,0.3-35.9,16.1-36.2,35.3
			c-0.4,20.8,14.7,36.9,35.8,37.6C283.5,314.5,297.8,299.5,299.9,286.3z M322.2,226c7.4,12.2,14.5,24,21.8,36.1
			c9.5-12.2,18.7-23.9,28.2-36.1C355.2,226,339.1,226,322.2,226z"/>
	</g>
</g>
</svg>
