<?xml version="1.0" encoding="utf-8"?>
<!-- Generator: Adobe Illustrator 22.1.0, SVG Export Plug-In . SVG Version: 6.00 Build 0)  -->
<svg version="1.1" id="Calque_1" xmlns="http://www.w3.org/2000/svg" xmlns:xlink="http://www.w3.org/1999/xlink" x="0px" y="0px"
	 viewBox="0 0 700 480" style="enable-background:new 0 0 700 480;" xml:space="preserve">
<style type="text/css">
	.st0{fill:#DAECFF;}
	.st1{fill:#FFD258;}
	.st2{fill:#FBCEC6;}
	.st3{fill:#ADCCFF;}
	.st4{fill:#FF5F7D;}
	.st5{fill:none;stroke:#000000;stroke-width:2;stroke-miterlimit:10;}
	.st6{fill:#FFFBF2;}
	.st7{fill:#73B7A4;}
	.st8{fill:none;stroke:#000000;stroke-miterlimit:10;}
	.st9{fill:#98BFFF;}
	.st10{fill:#FFD258;stroke:#000000;stroke-width:2;stroke-miterlimit:10;}
	.st11{fill:#FEF0E1;stroke:#070707;stroke-miterlimit:10;}
	.st12{fill:#D3A533;}
	.st13{fill:#FFB5C0;stroke:#020202;stroke-miterlimit:10;}
	.st14{fill:#FF8E9E;}
	.st15{fill:#FF8E9E;stroke:#000000;stroke-miterlimit:10;}
	.st16{fill:#EA5B70;}
	.st17{fill:#020202;}
	.st18{fill:#FFD258;stroke:#050505;stroke-width:0.5;stroke-miterlimit:10;}
	.st19{fill:#FEF0E1;stroke:#020202;stroke-width:0.5;stroke-miterlimit:10;}
	.st20{fill:#DDB143;}
	.st21{fill:#D6AF8B;}
	.st22{fill:#FFFBF2;stroke:#020202;stroke-width:2;stroke-miterlimit:10;}
	.st23{fill:#FF5F7D;stroke:#020202;stroke-width:2;stroke-miterlimit:10;}
	.st24{fill:#FFFFFF;}
	.st25{fill:#ADCCFF;stroke:#020202;stroke-width:2;stroke-miterlimit:10;}
	.st26{fill:#FFD258;stroke:#050505;stroke-width:2;stroke-miterlimit:10;}
	.st27{fill:#85AAE0;}
	.st28{fill:#C99E32;}
	.st29{fill:#FFCF47;stroke:#020202;stroke-miterlimit:10;}
	.st30{fill:#FF5F7D;stroke:#050505;stroke-width:2;stroke-miterlimit:10;}
	.st31{fill:#F36B7F;stroke:#000000;stroke-miterlimit:10;}
	.st32{fill:#DBA92C;}
	.st33{fill:#73B7A4;stroke:#020202;stroke-width:2;stroke-miterlimit:10;}
	.st34{fill:#FFCF47;stroke:#020202;stroke-width:2;stroke-miterlimit:10;}
	.st35{fill:#99C6B8;}
	.st36{fill:#E2B23B;}
	.st37{fill:#C11A3E;}
	.st38{fill:#FEF0E1;stroke:#020202;stroke-miterlimit:10;}
	.st39{fill:#ADCCFF;stroke:#020202;stroke-miterlimit:10;}
	.st40{fill:#FFD258;stroke:#0C0C0C;stroke-width:0.75;stroke-miterlimit:10;}
	.st41{fill:#ADCCFF;stroke:#050505;stroke-width:2;stroke-miterlimit:10;}
	.st42{fill:#73B7A4;stroke:#050505;stroke-width:2;stroke-miterlimit:10;}
	.st43{fill:#FFFBF2;stroke:#050505;stroke-width:2;stroke-miterlimit:10;}
	.st44{fill:#FEF0E1;stroke:#020202;stroke-width:2;stroke-miterlimit:10;}
	.st45{fill:#D8A830;}
	.st46{fill:#FF5F7D;stroke:#050505;stroke-miterlimit:10;}
	.st47{fill:#73B7A4;stroke:#020202;stroke-miterlimit:10;}
	.st48{fill:#E8D2BF;}
	.st49{fill:#FFD258;stroke:#0A0A0A;stroke-width:2;stroke-miterlimit:10;}
	.st50{fill:#D8AB3A;}
	.st51{fill:#FFD258;stroke:#050505;stroke-miterlimit:10;}
	.st52{fill:#FBCEC6;stroke:#070707;stroke-miterlimit:10;}
	.st53{fill:#D84161;}
	.st54{fill:#FFD258;stroke:#0A0A0A;stroke-miterlimit:10;}
	.st55{fill:#FFD258;stroke:#0A0A0A;stroke-width:3;stroke-miterlimit:10;}
	.st56{fill:none;stroke:#0A0A0A;stroke-width:2;stroke-miterlimit:10;}
	.st57{fill:#FF5F7D;stroke:#000000;stroke-miterlimit:10;}
	.st58{fill:#FFD258;stroke:#000000;stroke-miterlimit:10;}
	.st59{fill:#FF5F7D;stroke:#050505;stroke-width:0.75;stroke-miterlimit:10;}
	.st60{fill:#FEF0E1;stroke:#020202;stroke-width:0.75;stroke-miterlimit:10;}
	.st61{fill:#FF5F7D;stroke:#050505;stroke-width:0.25;stroke-miterlimit:10;}
	.st62{fill:#FFD258;stroke:#0A0A0A;stroke-width:0.75;stroke-miterlimit:10;}
	.st63{fill:#73B7A4;stroke:#020202;stroke-width:0.25;stroke-miterlimit:10;}
	.st64{fill:#FBCEC6;stroke:#020202;stroke-miterlimit:10;}
	.st65{fill:#73B7A4;stroke:#020202;stroke-width:0.75;stroke-miterlimit:10;}
	.st66{fill:#73B7A4;stroke:#070707;stroke-miterlimit:10;}
	.st67{fill:#FFFBF2;stroke:#070707;stroke-miterlimit:10;}
	.st68{fill:#E2B139;}
	.st69{fill:#FFFBF2;stroke:#020202;stroke-miterlimit:10;}
	.st70{fill:#ADCCFF;stroke:#020202;stroke-width:0.75;stroke-miterlimit:10;}
	.st71{fill:#FFFBF2;stroke:#020202;stroke-width:0.75;stroke-miterlimit:10;}
	.st72{fill:#FFD258;stroke:#050505;stroke-width:0.75;stroke-miterlimit:10;}
	.st73{fill:#FBCEC6;stroke:#020202;stroke-width:0.75;stroke-miterlimit:10;}
	.st74{fill:#73B7A4;stroke:#050505;stroke-miterlimit:10;}
	.st75{fill:#73B7A4;stroke:#050505;stroke-width:0.75;stroke-miterlimit:10;}
	.st76{fill:#E2C2A6;}
	.st77{fill:#DBC69E;}
	.st78{fill:#D39C94;}
	.st79{fill:#E0B344;}
	.st80{fill:#E0AE32;}
	.st81{fill:#4F9982;}
	.st82{fill:#DDBA9B;}
	.st83{fill:#FF5F7D;stroke:#000000;stroke-width:0.75;stroke-miterlimit:10;}
	.st84{fill:#FFD258;stroke:#000000;stroke-width:0.75;stroke-miterlimit:10;}
	.st85{fill:none;stroke:#000000;stroke-width:0.5;stroke-miterlimit:10;}
	.st86{opacity:0.43;fill:#7F3B48;}
	.st87{opacity:0.88;fill:#98BFFF;}
	.st88{opacity:0.75;fill:#FFFBF2;}
	.st89{opacity:0.88;fill:#719BD8;}
	.st90{opacity:0.75;fill:#EAD9B7;}
	.st91{fill:#FEF0E1;}
	.st92{fill:none;stroke:#070707;stroke-miterlimit:10;}
	.st93{fill:#C1962B;}
	.st94{fill:#D6B154;}
	.st95{fill:#5DA08B;}
	.st96{fill:#C6961E;}
</style>
<rect x="0.6" y="2.8" class="st4" width="697.5" height="475.2"/>
<g id="y0I9pF.tif">
	<g>
		<path class="st54" d="M362.8,287.6c-2.3,0-4.5,0-6.8,0c-9-0.2-18.9,2.5-22.7-10.5c-1.2-4.2-6.9-7.1-10.4-10.6
			c-22-22.2-21.5-57.3,1.1-79.6c21.3-21.1,57.1-20.7,78.7,0.9c22,22,22,57,0.3,79.2c-5.5,5.6-9.9,12.4-15.1,18.3
			c-1.2,1.4-3.7,2.2-5.6,2.3C375.8,287.7,369.3,287.6,362.8,287.6z"/>
		<path class="st38" d="M339.3,296.1c16,0,31.4,0,46.8,0c3.4,29.4-2,40.9-18.9,40.9c-2.3,0-4.5,0-6.8,0
			C342.4,337,338,328.8,339.3,296.1z"/>
		<path class="st54" d="M280,233.5c-2.7-0.1-5.7,0.4-8.1-0.6c-2.1-0.9-4.8-3.5-4.8-5.4c0-1.9,2.7-5.3,4.5-5.5
			c5.9-0.7,11.9-0.7,17.8,0c1.8,0.2,4.4,3.7,4.3,5.6c-0.1,1.9-2.7,4.6-4.8,5.4c-2.7,0.9-5.9,0.2-8.9,0.2
			C280,233.2,280,233.3,280,233.5z"/>
		<path class="st54" d="M445.5,221.5c2.7,0,5.8-0.8,8.1,0.2c2.3,1,5.4,3.8,5.3,5.7c0,2-3.2,5.1-5.4,5.5c-4.8,0.9-10,1-14.8,0.1
			c-2.5-0.4-4.5-3.5-6.7-5.4c2.3-2.1,4.3-4.7,6.9-6.1c1.7-0.9,4.4-0.2,6.6-0.2C445.5,221.4,445.5,221.4,445.5,221.5z"/>
		<path class="st54" d="M368.9,145.4c0,2.7,0.8,5.8-0.2,8.1c-0.9,2-3.7,4.5-5.6,4.5c-2,0-5.3-2.6-5.6-4.4
			c-0.7-5.6-0.8-11.5-0.1-17.1c0.2-1.9,3.6-5,5.2-4.9c2.3,0.3,5.1,2.7,6.1,4.9C369.7,139.1,368.9,142.4,368.9,145.4
			C368.9,145.4,368.9,145.4,368.9,145.4z"/>
		<path class="st54" d="M298.1,157.7c5.1,0.1,18.4,13,18,16.7c-0.2,1.7-1.5,4.2-2.8,4.7c-2,0.7-5.3,0.8-6.8-0.4
			c-4.3-3.4-8.2-7.3-11.6-11.6c-1.2-1.5-1.1-4.7-0.4-6.8C294.9,158.9,297.3,158.2,298.1,157.7z"/>
		<path class="st54" d="M433.2,162.6c-0.8,2-1,3.6-1.9,4.6c-3.7,4-7.4,8.3-11.7,11.4c-1.7,1.3-6.3,1-7.7-0.5c-1.3-1.3-1.3-5.9,0-7.6
			c3-4.2,7-7.9,11-11.1c1.6-1.3,4.7-1.5,6.8-1C431.1,158.8,432.1,161.2,433.2,162.6z"/>
		<path class="st54" d="M316.2,281.7c-2.1,2.3-4.8,5.8-8,8.8c-3.7,3.5-7.6,10.4-13.3,4.3c-5.2-5.6,1.7-9.1,4.9-12.7
			c2.1-2.4,4.4-4.8,7.1-6.6C311,272.8,316.2,275.6,316.2,281.7z"/>
		<path class="st54" d="M416.3,274.3c0.8,0.3,2.4,0.6,3.4,1.5c4,3.7,8.2,7.4,11.5,11.7c1.2,1.6,1.2,6.2,0,7.2
			c-1.8,1.4-6.1,2-7.8,0.8c-4.5-3.4-8.6-7.6-12.2-12C408.1,279.7,410.9,274.5,416.3,274.3z"/>
	</g>
</g>
</svg>
