<?xml version="1.0" encoding="utf-8"?>
<!-- Generator: Adobe Illustrator 22.1.0, SVG Export Plug-In . SVG Version: 6.00 Build 0)  -->
<svg version="1.1" id="Calque_1" xmlns="http://www.w3.org/2000/svg" xmlns:xlink="http://www.w3.org/1999/xlink" x="0px" y="0px"
	 viewBox="0 0 700 480" style="enable-background:new 0 0 700 480;" xml:space="preserve">
<style type="text/css">
	.st0{fill:#DAECFF;}
	.st1{fill:#FFD258;}
	.st2{fill:#FBCEC6;}
	.st3{fill:#ADCCFF;}
	.st4{fill:#FF5F7D;}
	.st5{fill:none;stroke:#000000;stroke-width:2;stroke-miterlimit:10;}
	.st6{fill:#FFFBF2;}
	.st7{fill:#73B7A4;}
	.st8{fill:none;stroke:#000000;stroke-miterlimit:10;}
	.st9{fill:#98BFFF;}
	.st10{fill:#FFD258;stroke:#000000;stroke-width:2;stroke-miterlimit:10;}
	.st11{fill:#FEF0E1;stroke:#070707;stroke-miterlimit:10;}
	.st12{fill:#D3A533;}
	.st13{fill:#FFB5C0;stroke:#020202;stroke-miterlimit:10;}
	.st14{fill:#FF8E9E;}
	.st15{fill:#FF8E9E;stroke:#000000;stroke-miterlimit:10;}
	.st16{fill:#EA5B70;}
	.st17{fill:#020202;}
	.st18{fill:#FFD258;stroke:#050505;stroke-width:0.5;stroke-miterlimit:10;}
	.st19{fill:#FEF0E1;stroke:#020202;stroke-width:0.5;stroke-miterlimit:10;}
	.st20{fill:#DDB143;}
	.st21{fill:#D6AF8B;}
	.st22{fill:#FFFBF2;stroke:#020202;stroke-width:2;stroke-miterlimit:10;}
	.st23{fill:#FF5F7D;stroke:#020202;stroke-width:2;stroke-miterlimit:10;}
	.st24{fill:#FFFFFF;}
	.st25{fill:#ADCCFF;stroke:#020202;stroke-width:2;stroke-miterlimit:10;}
	.st26{fill:#FFD258;stroke:#050505;stroke-width:2;stroke-miterlimit:10;}
	.st27{fill:#85AAE0;}
	.st28{fill:#C99E32;}
	.st29{fill:#FFCF47;stroke:#020202;stroke-miterlimit:10;}
	.st30{fill:#FF5F7D;stroke:#050505;stroke-width:2;stroke-miterlimit:10;}
	.st31{fill:#F36B7F;stroke:#000000;stroke-miterlimit:10;}
	.st32{fill:#DBA92C;}
	.st33{fill:#73B7A4;stroke:#020202;stroke-width:2;stroke-miterlimit:10;}
	.st34{fill:#FFCF47;stroke:#020202;stroke-width:2;stroke-miterlimit:10;}
	.st35{fill:#99C6B8;}
	.st36{fill:#E2B23B;}
	.st37{fill:#C11A3E;}
	.st38{fill:#FEF0E1;stroke:#020202;stroke-miterlimit:10;}
	.st39{fill:#ADCCFF;stroke:#020202;stroke-miterlimit:10;}
	.st40{fill:#FFD258;stroke:#0C0C0C;stroke-width:0.75;stroke-miterlimit:10;}
	.st41{fill:#ADCCFF;stroke:#050505;stroke-width:2;stroke-miterlimit:10;}
	.st42{fill:#73B7A4;stroke:#050505;stroke-width:2;stroke-miterlimit:10;}
	.st43{fill:#FFFBF2;stroke:#050505;stroke-width:2;stroke-miterlimit:10;}
	.st44{fill:#FEF0E1;stroke:#020202;stroke-width:2;stroke-miterlimit:10;}
	.st45{fill:#D8A830;}
	.st46{fill:#FF5F7D;stroke:#050505;stroke-miterlimit:10;}
	.st47{fill:#73B7A4;stroke:#020202;stroke-miterlimit:10;}
	.st48{fill:#E8D2BF;}
	.st49{fill:#FFD258;stroke:#0A0A0A;stroke-width:2;stroke-miterlimit:10;}
	.st50{fill:#D8AB3A;}
	.st51{fill:#FFD258;stroke:#050505;stroke-miterlimit:10;}
	.st52{fill:#FBCEC6;stroke:#070707;stroke-miterlimit:10;}
	.st53{fill:#D84161;}
	.st54{fill:#FFD258;stroke:#0A0A0A;stroke-miterlimit:10;}
	.st55{fill:#FFD258;stroke:#0A0A0A;stroke-width:3;stroke-miterlimit:10;}
	.st56{fill:none;stroke:#0A0A0A;stroke-width:2;stroke-miterlimit:10;}
	.st57{fill:#FF5F7D;stroke:#000000;stroke-miterlimit:10;}
	.st58{fill:#FFD258;stroke:#000000;stroke-miterlimit:10;}
	.st59{fill:#FF5F7D;stroke:#050505;stroke-width:0.75;stroke-miterlimit:10;}
	.st60{fill:#FEF0E1;stroke:#020202;stroke-width:0.75;stroke-miterlimit:10;}
	.st61{fill:#FF5F7D;stroke:#050505;stroke-width:0.25;stroke-miterlimit:10;}
	.st62{fill:#FFD258;stroke:#0A0A0A;stroke-width:0.75;stroke-miterlimit:10;}
	.st63{fill:#73B7A4;stroke:#020202;stroke-width:0.25;stroke-miterlimit:10;}
	.st64{fill:#FBCEC6;stroke:#020202;stroke-miterlimit:10;}
	.st65{fill:#73B7A4;stroke:#020202;stroke-width:0.75;stroke-miterlimit:10;}
	.st66{fill:#73B7A4;stroke:#070707;stroke-miterlimit:10;}
	.st67{fill:#FFFBF2;stroke:#070707;stroke-miterlimit:10;}
	.st68{fill:#E2B139;}
	.st69{fill:#FFFBF2;stroke:#020202;stroke-miterlimit:10;}
	.st70{fill:#ADCCFF;stroke:#020202;stroke-width:0.75;stroke-miterlimit:10;}
	.st71{fill:#FFFBF2;stroke:#020202;stroke-width:0.75;stroke-miterlimit:10;}
	.st72{fill:#FFD258;stroke:#050505;stroke-width:0.75;stroke-miterlimit:10;}
	.st73{fill:#FBCEC6;stroke:#020202;stroke-width:0.75;stroke-miterlimit:10;}
	.st74{fill:#73B7A4;stroke:#050505;stroke-miterlimit:10;}
	.st75{fill:#73B7A4;stroke:#050505;stroke-width:0.75;stroke-miterlimit:10;}
	.st76{fill:#E2C2A6;}
	.st77{fill:#DBC69E;}
	.st78{fill:#D39C94;}
	.st79{fill:#E0B344;}
	.st80{fill:#E0AE32;}
	.st81{fill:#4F9982;}
	.st82{fill:#DDBA9B;}
	.st83{fill:#FF5F7D;stroke:#000000;stroke-width:0.75;stroke-miterlimit:10;}
	.st84{fill:#FFD258;stroke:#000000;stroke-width:0.75;stroke-miterlimit:10;}
	.st85{fill:none;stroke:#000000;stroke-width:0.5;stroke-miterlimit:10;}
	.st86{opacity:0.43;fill:#7F3B48;}
	.st87{opacity:0.88;fill:#98BFFF;}
	.st88{opacity:0.75;fill:#FFFBF2;}
	.st89{opacity:0.88;fill:#719BD8;}
	.st90{opacity:0.75;fill:#EAD9B7;}
	.st91{fill:#FEF0E1;}
	.st92{fill:none;stroke:#070707;stroke-miterlimit:10;}
	.st93{fill:#C1962B;}
	.st94{fill:#D6B154;}
	.st95{fill:#5DA08B;}
	.st96{fill:#C6961E;}
</style>
<rect x="0.1" y="1.7" class="st4" width="697.5" height="475.2"/>
<g id="WQs6DX.tif">
	<g>
		<path class="st39" d="M404.2,189.6c-37,0-73,0-109.5,0c0,42,0,83.5,0,125.8c3,0.1,5.8,0.4,8.7,0.4c19.3,0,38.5,0.1,57.8-0.1
			c5.4-0.1,8.9,0.9,9.9,7.1c1,6.2,5.6,9.4,11.9,9.4c6.7,0,10.5-3.7,12.5-10c0.7-2.3,3-4.1,4.6-6.2c1.5,2.1,3.5,4.1,4.4,6.4
			c1.5,3.7,4.3,9.3,2.9,11.2c-3.5,4.5-8.9,8-14.2,10.7c-4.3,2.2-9.5,3.7-14.4,3.8c-20.8,0.3-41.6,0.5-62.3-0.6
			c-6.4-0.3-13-4-18.9-7.3c-7.9-4.5-11.6-11.9-11.6-21.1c0-47.2,0-94.4,0-141.7c0-9.9,4.3-17.5,12.7-22.2c5.7-3.1,12.1-6.4,18.3-6.7
			c21.5-0.8,43.1-1,64.6,0.1c6.9,0.3,14,4.4,20.3,8c7,4,10.6,11,10.7,19.2c0.1,10.8,0.3,21.6-0.1,32.4c-0.1,2.2-2.5,4.4-3.8,6.6
			c-1.4-2.3-3.9-4.5-4.1-7C403.8,202,404.2,196,404.2,189.6z M350.2,162.1c-0.3,0.6-0.6,1.2-0.9,1.8c-2.6,0-5.4-0.5-7.8,0.2
			c-1.8,0.5-3.2,2.6-4.8,4c1.6,1.4,3.1,3.4,5,3.9c2.4,0.7,5.2,0.5,7.8,0.1c4.2-0.7,10.5,2.8,11.6-3.9
			C361.3,166.8,354,164.2,350.2,162.1z"/>
		<path class="st47" d="M412.5,307.6c-8.5,0-16.3,0-25.4,0c0,3.5,0.5,7.2-0.2,10.6c-0.4,2.1-2.6,3.9-3.9,5.8c-1.4-1.9-4-3.7-4-5.6
			c0-6.7,0-13.1-6.8-17c-1.8-1-4.1-1.5-5.6-2.8c-1.9-1.6-4.5-3.7-4.6-5.7c-0.5-10-0.2-20-0.2-30c0-4.1,1.3-5.8,6.2-5.7
			c21.2,0.4,42.4,0.4,63.6,0c4.9-0.1,6.1,1.7,6.1,5.7c0,10,0.3,20-0.2,30c-0.1,2-2.8,4.1-4.7,5.7c-1.6,1.3-3.9,1.7-5.6,2.8
			c-5.8,3.9-7.4,9.4-6.8,16.2c0.2,2-2.6,4.2-4,6.4c-1.4-2.2-3.4-4.2-3.9-6.6C412,314.4,412.5,311.2,412.5,307.6z"/>
		<path class="st47" d="M424,234.4c1.7,4.5,3.3,8.6,5.1,13.3c-19.8,0-38.4,0-58.4,0c1.7-4.6,3.2-8.8,4.8-13.4
			c-0.8-0.8-2.3-1.8-2.7-3.2c-0.7-2.2-0.8-4.6-1.1-6.9c2.3,0.3,4.6,0.5,6.8,0.8c2.7,0.3,5.9,1.8,8,0.8c9-4,17.7-4.1,26.7,0.1
			c1.9,0.9,4.6,0.3,6.8,0c2.7-0.3,5.3-1.1,8-1.7c-0.7,2.7-1.4,5.4-2.3,8C425.5,233.1,424.8,233.6,424,234.4z"/>
	</g>
</g>
</svg>
