<?xml version="1.0" encoding="utf-8"?>
<!-- Generator: Adobe Illustrator 22.1.0, SVG Export Plug-In . SVG Version: 6.00 Build 0)  -->
<svg version="1.1" id="Calque_1" xmlns="http://www.w3.org/2000/svg" xmlns:xlink="http://www.w3.org/1999/xlink" x="0px" y="0px"
	 viewBox="0 0 480 480" style="enable-background:new 0 0 480 480;" xml:space="preserve">
<style type="text/css">
	.st0{fill:#FFD258;}
	.st1{fill:#FF5F7D;}
	.st2{fill:#DAECFF;}
	.st3{fill:none;stroke:#000000;stroke-miterlimit:10;}
	.st4{fill:#F36B7F;stroke:#000000;stroke-miterlimit:10;}
	.st5{fill:none;stroke:#000000;stroke-width:0.5;stroke-miterlimit:10;}
	.st6{fill:#FFCF47;stroke:#020202;stroke-miterlimit:10;}
	.st7{fill:#D6B154;}
	.st8{fill:#73B7A4;stroke:#020202;stroke-miterlimit:10;}
	.st9{fill:#5DA08B;}
	.st10{fill:#FFD258;stroke:#0A0A0A;stroke-width:0.75;stroke-miterlimit:10;}
	.st11{fill:#FEF0E1;}
	.st12{fill:#ADCCFF;}
	.st13{fill:none;stroke:#000000;stroke-width:2;stroke-miterlimit:10;}
	.st14{fill:#FFFBF2;}
	.st15{fill:#73B7A4;}
	.st16{fill:#98BFFF;}
	.st17{fill:#FFD258;stroke:#000000;stroke-width:2;stroke-miterlimit:10;}
	.st18{opacity:0.88;fill:#98BFFF;}
	.st19{opacity:0.75;fill:#FFFBF2;}
	.st20{opacity:0.88;fill:#719BD8;}
	.st21{opacity:0.75;fill:#EAD9B7;}
	.st22{fill:none;stroke:#070707;stroke-miterlimit:10;}
	.st23{fill:#FEF0E1;stroke:#070707;stroke-miterlimit:10;}
	.st24{opacity:0.43;fill:#7F3B48;}
	.st25{fill:#D3A533;}
	.st26{fill:#C1962B;}
	.st27{fill:#FFB5C0;stroke:#020202;stroke-miterlimit:10;}
	.st28{fill:#FF8E9E;}
	.st29{fill:#FF8E9E;stroke:#000000;stroke-miterlimit:10;}
	.st30{fill:#EA5B70;}
	.st31{fill:#020202;}
	.st32{fill:#FFD258;stroke:#050505;stroke-width:0.5;stroke-miterlimit:10;}
	.st33{fill:#FEF0E1;stroke:#020202;stroke-width:0.5;stroke-miterlimit:10;}
	.st34{fill:#DDB143;}
	.st35{fill:#D6AF8B;}
	.st36{fill:#FBCEC6;}
	.st37{fill:#FFFBF2;stroke:#020202;stroke-width:2;stroke-miterlimit:10;}
	.st38{fill:#FF5F7D;stroke:#020202;stroke-width:2;stroke-miterlimit:10;}
	.st39{fill:#FFFFFF;}
	.st40{fill:#ADCCFF;stroke:#020202;stroke-width:2;stroke-miterlimit:10;}
	.st41{fill:#FFD258;stroke:#050505;stroke-width:2;stroke-miterlimit:10;}
	.st42{fill:#85AAE0;}
	.st43{fill:#C99E32;}
	.st44{fill:#FF5F7D;stroke:#050505;stroke-width:2;stroke-miterlimit:10;}
	.st45{fill:#DBA92C;}
	.st46{fill:#73B7A4;stroke:#020202;stroke-width:2;stroke-miterlimit:10;}
	.st47{fill:#FFCF47;stroke:#020202;stroke-width:2;stroke-miterlimit:10;}
	.st48{fill:#99C6B8;}
	.st49{fill:#E2B23B;}
	.st50{fill:#C11A3E;}
	.st51{fill:#FEF0E1;stroke:#020202;stroke-miterlimit:10;}
	.st52{fill:#ADCCFF;stroke:#020202;stroke-miterlimit:10;}
	.st53{fill:#FFD258;stroke:#0C0C0C;stroke-width:0.75;stroke-miterlimit:10;}
	.st54{fill:#ADCCFF;stroke:#050505;stroke-width:2;stroke-miterlimit:10;}
	.st55{fill:#73B7A4;stroke:#050505;stroke-width:2;stroke-miterlimit:10;}
	.st56{fill:#FFFBF2;stroke:#050505;stroke-width:2;stroke-miterlimit:10;}
	.st57{fill:#FEF0E1;stroke:#020202;stroke-width:2;stroke-miterlimit:10;}
	.st58{fill:#D8A830;}
	.st59{fill:#FF5F7D;stroke:#050505;stroke-miterlimit:10;}
	.st60{fill:#E8D2BF;}
	.st61{fill:#FFD258;stroke:#0A0A0A;stroke-width:2;stroke-miterlimit:10;}
	.st62{fill:#D8AB3A;}
	.st63{fill:#FFD258;stroke:#050505;stroke-miterlimit:10;}
	.st64{fill:#FBCEC6;stroke:#070707;stroke-miterlimit:10;}
	.st65{fill:#D84161;}
	.st66{fill:#FFD258;stroke:#0A0A0A;stroke-miterlimit:10;}
	.st67{fill:#FFD258;stroke:#0A0A0A;stroke-width:3;stroke-miterlimit:10;}
	.st68{fill:none;stroke:#0A0A0A;stroke-width:3;stroke-miterlimit:10;}
	.st69{fill:none;stroke:#0A0A0A;stroke-width:2;stroke-miterlimit:10;}
	.st70{fill:#FF5F7D;stroke:#000000;stroke-miterlimit:10;}
	.st71{fill:#FFD258;stroke:#000000;stroke-miterlimit:10;}
	.st72{fill:#FF5F7D;stroke:#050505;stroke-width:0.75;stroke-miterlimit:10;}
	.st73{fill:#FEF0E1;stroke:#020202;stroke-width:0.75;stroke-miterlimit:10;}
	.st74{fill:#FF5F7D;stroke:#050505;stroke-width:0.25;stroke-miterlimit:10;}
	.st75{fill:#73B7A4;stroke:#020202;stroke-width:0.25;stroke-miterlimit:10;}
	.st76{fill:#FBCEC6;stroke:#020202;stroke-miterlimit:10;}
	.st77{fill:#73B7A4;stroke:#020202;stroke-width:0.75;stroke-miterlimit:10;}
	.st78{fill:#73B7A4;stroke:#070707;stroke-miterlimit:10;}
	.st79{fill:#FFFBF2;stroke:#070707;stroke-miterlimit:10;}
	.st80{fill:#E2B139;}
	.st81{fill:#FFFBF2;stroke:#020202;stroke-miterlimit:10;}
	.st82{fill:#ADCCFF;stroke:#020202;stroke-width:0.75;stroke-miterlimit:10;}
	.st83{fill:#FFFBF2;stroke:#020202;stroke-width:0.75;stroke-miterlimit:10;}
	.st84{fill:#FFD258;stroke:#050505;stroke-width:0.75;stroke-miterlimit:10;}
	.st85{fill:#FBCEC6;stroke:#020202;stroke-width:0.75;stroke-miterlimit:10;}
	.st86{fill:#73B7A4;stroke:#050505;stroke-miterlimit:10;}
	.st87{fill:#73B7A4;stroke:#050505;stroke-width:0.75;stroke-miterlimit:10;}
	.st88{fill:#E2C2A6;}
	.st89{fill:#DBC69E;}
	.st90{fill:#D39C94;}
	.st91{fill:#E0B344;}
	.st92{fill:#E0AE32;}
	.st93{fill:#4F9982;}
	.st94{fill:#DDBA9B;}
	.st95{fill:#C6961E;}
	.st96{fill:#FF5F7D;stroke:#000000;stroke-width:0.75;stroke-miterlimit:10;}
	.st97{fill:#FFD258;stroke:#000000;stroke-width:0.75;stroke-miterlimit:10;}
</style>
<path class="st36" d="M360.5,455.8H127.2c-43.5,0-79.2-35.6-79.2-79.2V143.4c0-43.5,35.6-79.2,79.2-79.2h233.2
	c43.5,0,79.2,35.6,79.2,79.2v233.2C439.6,420.1,404,455.8,360.5,455.8z"/>
<g id="zjS0Gt.tif">
	<g>
		<path class="st63" d="M197.2,213.4c21.1,0,41.9,0,63,0c0-0.8,0-1.5,0-2.2c0-6,0-12,0-18c0.1-13.1,10.3-23.5,23.3-23.7
			c12.9-0.2,23.6,9.8,24.2,22.7c0.2,3.7-1.9,7-5,7.7c-3.5,0.9-6.8-0.5-8.3-3.8c-0.4-0.9-0.6-1.9-0.6-2.9c-0.2-4.8-3.5-8.8-8-9.7
			c-4.5-0.8-9,1.5-10.8,5.9c-0.5,1.3-0.7,2.8-0.7,4.3c0,25,0,50.1,0,75.1c0,4.7-3.4,7.9-7.9,7.4c-3.4-0.4-6-3.1-6.1-6.6
			c-0.1-3.5,0-7,0-10.6c-21.1,0-41.9,0-63,0c0,3.2,0,6.5,0,9.7c0,1-0.1,2.2-0.5,3.1c-1.3,3.3-4.3,4.9-7.9,4.3
			c-3.1-0.5-5.6-3.4-5.6-6.8c-0.1-6.1,0-12.3,0-18.4c0-19.3,0-38.5,0-57.8c0-11.1,7.4-20.5,18.1-23.2c14.8-3.7,29.5,7.7,29.4,22.9
			c0,4-2.9,7-6.8,7.2c-3.8,0.1-7-2.9-7.2-6.8c-0.3-6.1-4.4-10.1-10.2-9.9c-5.4,0.2-9.4,4.6-9.4,10.4
			C197.2,200.3,197.2,206.7,197.2,213.4z M197.4,244.8c21.1,0,41.9,0,62.8,0c0-5.8,0-11.5,0-17.3c-21,0-41.8,0-62.8,0
			C197.4,233.3,197.4,239,197.4,244.8z"/>
		<path class="st52" d="M218,300.8c-4.5,3.6-9.5,6.2-15.1,7.6c-11.9,2.9-23.4,2.1-34.3-3.8c-4.3-2.3-8-5.5-10.9-9.5
			c-2.8-3.8-2.2-7.8,1.2-10.4c3.2-2.4,7.3-1.4,10.1,2.2c4.5,5.8,10.7,8.1,17.7,8.9c6.1,0.6,12.1-0.1,17.7-2.8
			c3.2-1.6,5.8-3.7,7.9-6.6c2.8-3.8,8.4-4,11.2-0.2c4.5,6.2,10.9,8.8,18.1,9.6c6.2,0.7,12.2,0,17.9-2.9c3.1-1.5,5.7-3.7,7.7-6.4
			c2.9-3.9,8.5-4.1,11.3-0.3c4.5,6.2,10.9,8.8,18.1,9.6c6.4,0.7,12.7,0.1,18.4-3.2c2.6-1.5,5-3.7,7.1-6c2.7-3,6.7-4,9.8-1.9
			c3.4,2.3,4.2,6.5,1.7,10c-5.3,7.5-12.7,11.9-21.5,13.9c-13.8,3.2-26.8,1.4-38.5-7.3c-0.2-0.2-0.4-0.3-0.6-0.4
			C257.6,313.5,232.1,312.5,218,300.8z"/>
		<path class="st52" d="M273,332.3c-15.2,12.3-40.1,12.1-54.5,0.4c-4.5,2.2-8.7,5-13.2,6.3c-16.1,4.9-31.1,3.1-44.1-8.5
			c-1.7-1.5-3.1-3.3-4.3-5.2c-2-3.3-1-7.1,2.2-9.3c2.9-2,7.2-1.4,9.3,1.6c4.8,6.5,11.5,9,19.1,9.7c6.1,0.6,12.2-0.2,17.6-3.4
			c2.7-1.6,5.1-3.9,7.1-6.2c3.1-3.5,8.5-3.8,11.3,0c3.9,5.3,9.3,8.1,15.6,9.2c7,1.3,13.9,0.7,20.5-2.5c3.1-1.5,5.7-3.7,7.7-6.5
			c2.9-3.8,8.4-4.1,11.2-0.3c4.7,6.4,11.4,9.1,18.9,9.7c7.4,0.7,14.5-0.6,20.7-5.1c1.5-1.1,2.9-2.6,4.1-4.1c2.6-3.3,6.8-4.2,9.9-2
			c3.5,2.5,4.1,6.6,1.5,10.2c-5.1,7-12,11.3-20.2,13.4C298.8,343.4,285.3,341.4,273,332.3z"/>
	</g>
</g>
</svg>
