<?xml version="1.0" encoding="utf-8"?>
<!-- Generator: Adobe Illustrator 22.1.0, SVG Export Plug-In . SVG Version: 6.00 Build 0)  -->
<svg version="1.1" id="Calque_1" xmlns="http://www.w3.org/2000/svg" xmlns:xlink="http://www.w3.org/1999/xlink" x="0px" y="0px"
	 viewBox="0 0 700 480" style="enable-background:new 0 0 700 480;" xml:space="preserve">
<style type="text/css">
	.st0{fill:#DAECFF;}
	.st1{fill:#FFD258;}
	.st2{fill:#FBCEC6;}
	.st3{fill:#ADCCFF;}
	.st4{fill:#FF5F7D;}
	.st5{fill:none;stroke:#000000;stroke-width:2;stroke-miterlimit:10;}
	.st6{fill:#FFFBF2;}
	.st7{fill:#73B7A4;}
	.st8{fill:none;stroke:#000000;stroke-miterlimit:10;}
	.st9{fill:#98BFFF;}
	.st10{fill:#FFD258;stroke:#000000;stroke-width:2;stroke-miterlimit:10;}
	.st11{fill:#FEF0E1;stroke:#070707;stroke-miterlimit:10;}
	.st12{fill:#D3A533;}
	.st13{fill:#FFB5C0;stroke:#020202;stroke-miterlimit:10;}
	.st14{fill:#FF8E9E;}
	.st15{fill:#FF8E9E;stroke:#000000;stroke-miterlimit:10;}
	.st16{fill:#EA5B70;}
	.st17{fill:#020202;}
	.st18{fill:#FFD258;stroke:#050505;stroke-width:0.5;stroke-miterlimit:10;}
	.st19{fill:#FEF0E1;stroke:#020202;stroke-width:0.5;stroke-miterlimit:10;}
	.st20{fill:#DDB143;}
	.st21{fill:#D6AF8B;}
	.st22{fill:#FFFBF2;stroke:#020202;stroke-width:2;stroke-miterlimit:10;}
	.st23{fill:#FF5F7D;stroke:#020202;stroke-width:2;stroke-miterlimit:10;}
	.st24{fill:#FFFFFF;}
	.st25{fill:#ADCCFF;stroke:#020202;stroke-width:2;stroke-miterlimit:10;}
	.st26{fill:#FFD258;stroke:#050505;stroke-width:2;stroke-miterlimit:10;}
	.st27{fill:#85AAE0;}
	.st28{fill:#C99E32;}
	.st29{fill:#FFCF47;stroke:#020202;stroke-miterlimit:10;}
	.st30{fill:#FF5F7D;stroke:#050505;stroke-width:2;stroke-miterlimit:10;}
	.st31{fill:#F36B7F;stroke:#000000;stroke-miterlimit:10;}
	.st32{fill:#DBA92C;}
	.st33{fill:#73B7A4;stroke:#020202;stroke-width:2;stroke-miterlimit:10;}
	.st34{fill:#FFCF47;stroke:#020202;stroke-width:2;stroke-miterlimit:10;}
	.st35{fill:#99C6B8;}
	.st36{fill:#E2B23B;}
	.st37{fill:#C11A3E;}
	.st38{fill:#FEF0E1;stroke:#020202;stroke-miterlimit:10;}
	.st39{fill:#ADCCFF;stroke:#020202;stroke-miterlimit:10;}
	.st40{fill:#FFD258;stroke:#0C0C0C;stroke-width:0.75;stroke-miterlimit:10;}
	.st41{fill:#ADCCFF;stroke:#050505;stroke-width:2;stroke-miterlimit:10;}
	.st42{fill:#73B7A4;stroke:#050505;stroke-width:2;stroke-miterlimit:10;}
	.st43{fill:#FFFBF2;stroke:#050505;stroke-width:2;stroke-miterlimit:10;}
	.st44{fill:#FEF0E1;stroke:#020202;stroke-width:2;stroke-miterlimit:10;}
	.st45{fill:#D8A830;}
	.st46{fill:#FF5F7D;stroke:#050505;stroke-miterlimit:10;}
	.st47{fill:#73B7A4;stroke:#020202;stroke-miterlimit:10;}
	.st48{fill:#E8D2BF;}
	.st49{fill:#FFD258;stroke:#0A0A0A;stroke-width:2;stroke-miterlimit:10;}
	.st50{fill:#D8AB3A;}
	.st51{fill:#FFD258;stroke:#050505;stroke-miterlimit:10;}
	.st52{fill:#FBCEC6;stroke:#070707;stroke-miterlimit:10;}
	.st53{fill:#D84161;}
	.st54{fill:#FFD258;stroke:#0A0A0A;stroke-miterlimit:10;}
	.st55{fill:#FFD258;stroke:#0A0A0A;stroke-width:3;stroke-miterlimit:10;}
	.st56{fill:none;stroke:#0A0A0A;stroke-width:2;stroke-miterlimit:10;}
	.st57{fill:#FF5F7D;stroke:#000000;stroke-miterlimit:10;}
	.st58{fill:#FFD258;stroke:#000000;stroke-miterlimit:10;}
	.st59{fill:#FF5F7D;stroke:#050505;stroke-width:0.75;stroke-miterlimit:10;}
	.st60{fill:#FEF0E1;stroke:#020202;stroke-width:0.75;stroke-miterlimit:10;}
	.st61{fill:#FF5F7D;stroke:#050505;stroke-width:0.25;stroke-miterlimit:10;}
	.st62{fill:#FFD258;stroke:#0A0A0A;stroke-width:0.75;stroke-miterlimit:10;}
	.st63{fill:#73B7A4;stroke:#020202;stroke-width:0.25;stroke-miterlimit:10;}
	.st64{fill:#FBCEC6;stroke:#020202;stroke-miterlimit:10;}
	.st65{fill:#73B7A4;stroke:#020202;stroke-width:0.75;stroke-miterlimit:10;}
	.st66{fill:#73B7A4;stroke:#070707;stroke-miterlimit:10;}
	.st67{fill:#FFFBF2;stroke:#070707;stroke-miterlimit:10;}
	.st68{fill:#E2B139;}
	.st69{fill:#FFFBF2;stroke:#020202;stroke-miterlimit:10;}
	.st70{fill:#ADCCFF;stroke:#020202;stroke-width:0.75;stroke-miterlimit:10;}
	.st71{fill:#FFFBF2;stroke:#020202;stroke-width:0.75;stroke-miterlimit:10;}
	.st72{fill:#FFD258;stroke:#050505;stroke-width:0.75;stroke-miterlimit:10;}
	.st73{fill:#FBCEC6;stroke:#020202;stroke-width:0.75;stroke-miterlimit:10;}
	.st74{fill:#73B7A4;stroke:#050505;stroke-miterlimit:10;}
	.st75{fill:#73B7A4;stroke:#050505;stroke-width:0.75;stroke-miterlimit:10;}
	.st76{fill:#E2C2A6;}
	.st77{fill:#DBC69E;}
	.st78{fill:#D39C94;}
	.st79{fill:#E0B344;}
	.st80{fill:#E0AE32;}
	.st81{fill:#4F9982;}
	.st82{fill:#DDBA9B;}
	.st83{fill:#FF5F7D;stroke:#000000;stroke-width:0.75;stroke-miterlimit:10;}
	.st84{fill:#FFD258;stroke:#000000;stroke-width:0.75;stroke-miterlimit:10;}
	.st85{fill:none;stroke:#000000;stroke-width:0.5;stroke-miterlimit:10;}
	.st86{opacity:0.43;fill:#7F3B48;}
	.st87{opacity:0.88;fill:#98BFFF;}
	.st88{opacity:0.75;fill:#FFFBF2;}
	.st89{opacity:0.88;fill:#719BD8;}
	.st90{opacity:0.75;fill:#EAD9B7;}
	.st91{fill:#FEF0E1;}
	.st92{fill:none;stroke:#070707;stroke-miterlimit:10;}
	.st93{fill:#C1962B;}
	.st94{fill:#D6B154;}
	.st95{fill:#5DA08B;}
	.st96{fill:#C6961E;}
</style>
<rect x="0.2" y="-0.7" class="st2" width="700" height="477.8"/>
<g>
	<path class="st54" d="M337.4,290.5c0-21.7-19.2-38.6-40.8-35.5c-4,0.6-7.9,2.3-11.8,3.8c-1.9,0.7-2.4,2.3-1.6,3.8
		c0.8,1.5,2.2,1.8,4.1,0.9c0.3-0.1,0.5-0.3,0.7-0.4c14.6-7,31.9-1.6,39.8,12.4c7.9,14.1,3.6,31.8-10.1,40.6
		c-4.8,3.1-10.1,4.7-15.9,4.9c-2.5,0.1-3.8,1.9-2.9,4c0.7,1.5,2,1.5,3.3,1.5C321.6,326.2,337.4,309.8,337.4,290.5z M381.5,214.1
		c0-7.5-2.4-14.9-6.6-20.9c-1-1.4-2.2-2.2-3.9-1.3c-1.8,0.9-2,2.6-0.5,4.7c7,10,7.3,23.4,0.9,33.5c-6.6,10.3-18.8,16-30.5,14
		c-12.3-2-22-11-24.9-23c-0.3-1.1-0.4-2.2-0.7-3.2c-0.4-1.4-1.4-2-2.9-1.8c-1.5,0.2-2.3,1.2-2.3,2.7c0,0.7,0.1,1.4,0.2,2.1
		c3.5,18.4,20.3,30.6,39.3,28.9C367.4,248.2,381.5,232.4,381.5,214.1z M271.3,272.5c-0.5,0.5-1.6,1.3-2.1,2.3
		c-6.6,12.6-4,29.5,5.9,39.9c1.2,1.3,2.6,2.5,3.9,3.7c1.4,1.2,2.7,1.2,4-0.1c1.2-1.3,1-2.7-0.6-4.1c-0.4-0.4-0.8-0.7-1.2-1.1
		c-8.2-7.5-11.4-16.8-9.7-27.7c0.5-3,1.8-5.9,2.9-8.8C275.1,274.5,274,272.6,271.3,272.5z M347.2,178c-14.8,0.6-25.1,6.2-32.3,17.4
		c-1.3,2-1.1,3.5,0.5,4.5c1.6,1,2.8,0.5,4.1-1.5c8-12.5,21.3-17.5,35.5-13.3c2.1,0.6,3.4,0,4-1.8c0.5-1.7-0.2-2.9-2.4-3.4
		C353,179.1,349.3,178.5,347.2,178z M370.4,210.8c0-0.2,0-0.4-0.1-0.5c-1.4-12.7-14.8-23-27.6-21.1c-2.1,0.3-3.1,1.3-2.9,3
		c0.2,1.8,1.4,2.6,3.6,2.4c7.9-0.7,14.2,2.2,18.4,8.8c1.5,2.4,2.2,5.3,3.2,8c0.6,1.5,1.5,2.3,3.1,2
		C369.7,213.3,370.3,212.2,370.4,210.8z M276.4,289.1c-0.1,2.6,0.7,3.9,2.5,4c1.9,0.2,2.8-1.1,3-3.8c0.7-10.1,8.4-17.7,18.8-18.4
		c2.3-0.1,3.4-1.2,3.3-3.1c-0.1-1.8-1.2-2.5-3.6-2.5C287.8,265.8,277,276.5,276.4,289.1z M320.5,213.9c0.1,5.3,1.4,9.9,4.2,14.1
		c1.1,1.6,2.5,2,3.9,1c1.5-1.1,1.7-2.5,0.7-4c-5-7.6-4.1-17.7,2-24.2c1.3-1.5,1.3-3.2,0-4.2c-1.3-1.1-2.7-0.9-4.2,0.7
		C322.8,202.1,320.7,207.8,320.5,213.9z M303.6,315.5c1.7-0.5,5.1-1.3,8.4-2.4c2-0.7,2.5-2.2,1.8-3.8c-0.7-1.5-2.1-1.9-4-1.1
		c-8.7,3.6-16.9,1.7-23.4-5.3c-1.6-1.7-2.9-2-4.3-0.8c-1.4,1.2-1.4,2.6,0.1,4.3C287.4,312.5,294,315.3,303.6,315.5z M345.4,239.3
		c4.7-0.1,9.1-1.5,13.1-3.7c1.6-0.9,2.1-2.2,1.3-3.8c-0.7-1.5-2.3-1.9-3.9-1c-4.9,2.9-10.1,3.5-15.6,2.2c-1.7-0.4-2.9,0.3-3.3,1.9
		c-0.5,1.7,0.2,2.9,1.9,3.3C341,238.7,343.2,239,345.4,239.3z M326.9,290.4c-0.8-3.3-1.4-6.4-2.4-9.5c-0.6-1.9-2.2-2.6-3.7-1.9
		c-1.8,0.8-2,2.1-1.3,3.8c2,5.1,2,10.2,0,15.4c-0.7,1.9-0.1,3.5,1.4,4c1.5,0.5,3.1-0.2,3.7-2.1C325.5,296.9,326.2,293.7,326.9,290.4
		z"/>
	<path class="st54" d="M275.2,251.6c-1.3-0.4-2.2-0.7-3.2-1c-1.8-0.6-2.6-1.9-2.1-3.4c0.5-1.7,1.8-2.3,3.8-1.8
		c1.8,0.5,3.6,1,5.3,1.7c1.4,0.6,2.4,0.4,3.3-1c1-1.5,2.2-2.8,3.3-4.3c0.9-1.2,1.9-2.2,3.5-1.4c1.6,0.7,2.1,2.1,1.6,3.8
		c0,0.1,0,0.2,0-0.1c6.2,0,12.3,0,18.8,0c-7.1-8.9-10.8-18.9-10.8-30.2c0-11.3,3.8-21.1,10.8-29.8c-0.2-0.2-0.3-0.3-0.4-0.3
		c-2.7,0-3.8-0.7-3.9-2.6c-0.1-1.8,0.9-2.6,3.5-2.9c0.8-0.1,1.5-0.2,2.3-0.3c4.6-0.6,4.6-0.6,5.7-5.2c0.3-1.1,0.5-2.2,0.8-3.2
		c0.4-1.7,1.6-2.5,3.3-2.1c1.7,0.4,2.4,1.6,2.1,3.3c-0.1,0.7-0.3,1.5-0.4,2c4.2-1.4,8.3-3.2,12.5-4.2c15.1-3.5,28.6,0,40.7,9.6
		c1.6,1.3,3.6,2.1,5.5,3c1.6,0.7,3.4,1.2,5.1,1.8c1.3,0.4,2.6,1.1,2.3,2.7c-0.2,1.7-1.3,2.7-3.1,2.7c-0.2,0-0.4,0.1-0.3,0.1
		c1.7,3.9,3.4,7.8,5,11.8c0.8,2.1-0.2,3.7-2.1,3.9c-1.9,0.2-2.7-0.9-3.2-2.6c-1.8-5.8-4.9-11-9-15.5c-17.9-19.6-50.3-17.1-64.8,5.2
		c-8.7,13.5-9.6,27.9-2.1,42c7.7,14.3,20.3,21.8,36.5,22.1c20.8,0.4,39.2-16.4,41.1-37.2c0-0.5,0.1-1,0.1-1.4c0.3-1.9,1.4-3,3-2.7
		c1.8,0.3,2.6,1.4,2.5,3.3c-0.4,5.3-1.5,10.5-3.8,15.2c-1.9,4-4.3,7.7-6.3,11.3c4.4,0,9.2,0,14,0c0-0.2,0-0.4,0-0.5
		c-1.3-2.3-1.2-3.6,0.3-4.5c1.8-1.1,3.1-0.1,4.3,1.3c1.5,1.8,2.8,4.5,4.7,5c1.9,0.5,4.4-1.1,6.7-1.8c1.4-0.5,2.7-0.8,3.8,0.6
		c1.1,1.5,0.6,3.5-1.2,4.3c-0.7,0.3-1.5,0.6-2.5,0.9c1.8,1.2,3.5,2.3,5.1,3.5c14.9,11.6,21,26.7,18.7,45.5c-0.3,2.6,0.7,5.4,1.1,8.1
		c0.1,0.8,0.3,1.6,0.6,2.4c0.5,1.5,0.4,2.8-1.2,3.5c-1.5,0.7-2.8,0.2-3.7-1.2c-0.1-0.2-0.3-0.4-0.4-0.6
		c-10.1,18.4-25.3,28.1-46.5,26.7c-15.8-1-32.3-10.8-40.2-30.4c-6.9,16-18.3,26.4-35.4,29.7c-17.1,3.3-31.6-2.2-43.9-14.7
		c-0.1,0.7-0.1,1.1-0.2,1.4c-0.1,1.8-1.1,2.7-2.8,2.6c-1.8-0.1-2.6-1.2-2.6-2.9c0-2.1,0-4.2,0.1-6.2c0.1-1.3-0.4-1.9-1.6-2.3
		c-1.9-0.7-3.7-1.5-5.6-2.2c-2-0.8-2.6-2.1-1.9-3.7c0.7-1.7,2-2.1,4-1.4c0.6,0.2,1.1,0.4,1.7,0.7c-0.8-3.5-1.8-7-2.3-10.5
		c-1.4-9.4,0-18.5,4.2-27.1c1.1-2.2,2.3-2.9,4-2.1c1.7,0.8,2,2.2,0.9,4.4c-5.7,12.2-5.9,24.5,0.2,36.5c7.2,14.2,19.1,22.2,35.1,22.8
		c16.4,0.7,29.3-6.4,37.5-20.6c14.9-25.6-1-57.7-30.4-61.6c-12.8-1.7-24.1,2.2-33.7,10.9c-0.4,0.3-0.7,0.7-1.1,1
		c-1.2,1.1-2.6,1.1-3.7-0.1c-1.2-1.2-1.3-2.6-0.1-3.9c1.6-1.5,3.3-2.9,5-4.4C273.8,252.6,274.4,252.2,275.2,251.6z M430.9,290.5
		c0.4-18.9-14.6-41.3-42.1-40.9c-22.6,0.3-40.4,18.1-40.4,40.9c0,23,18.3,41.2,41.4,41.3C412.7,331.7,430.9,313.4,430.9,290.5z
		 M338.1,260.6c2.5,4.4,5.1,8.9,7.5,13c2.5-4.3,5.1-8.8,7.5-13C348.2,260.6,343,260.6,338.1,260.6z"/>
	<path class="st54" d="M337.4,290.5c0,19.4-15.9,35.7-35,35.9c-1.4,0-2.7,0-3.3-1.5c-0.9-2,0.4-3.9,2.9-4c5.8-0.2,11.1-1.7,15.9-4.9
		c13.6-8.8,18-26.5,10.1-40.6c-7.9-13.9-25.2-19.3-39.8-12.4c-0.2,0.1-0.5,0.3-0.7,0.4c-1.9,0.9-3.3,0.6-4.1-0.9
		c-0.8-1.5-0.4-3.1,1.6-3.8c3.9-1.4,7.8-3.2,11.8-3.8C318.2,251.9,337.4,268.8,337.4,290.5z"/>
	<path class="st54" d="M381.5,214.1c0,18.2-14.1,34.1-31.9,35.7c-19,1.8-35.8-10.5-39.3-28.9c-0.1-0.7-0.2-1.4-0.2-2.1
		c0-1.5,0.8-2.5,2.3-2.7c1.4-0.2,2.4,0.5,2.9,1.8c0.3,1.1,0.5,2.2,0.7,3.2c2.9,12,12.6,21,24.9,23c11.7,1.9,24-3.7,30.5-14
		c6.4-10.1,6.1-23.5-0.9-33.5c-1.5-2.2-1.4-3.8,0.5-4.7c1.7-0.9,2.9-0.1,3.9,1.3C379.1,199.2,381.5,206.6,381.5,214.1z"/>
	<path class="st54" d="M271.3,272.5c2.8,0,3.8,1.9,3.1,4.1c-1,2.9-2.4,5.8-2.9,8.8c-1.7,10.9,1.6,20.2,9.7,27.7
		c0.4,0.4,0.8,0.7,1.2,1.1c1.6,1.4,1.8,2.8,0.6,4.1c-1.3,1.4-2.7,1.3-4,0.1c-1.3-1.2-2.7-2.4-3.9-3.7c-10-10.5-12.5-27.4-5.9-39.9
		C269.7,273.8,270.8,273.1,271.3,272.5z"/>
	<path class="st54" d="M347.2,178c2.1,0.4,5.8,1.1,9.4,1.9c2.2,0.5,2.9,1.7,2.4,3.4c-0.5,1.8-1.8,2.4-4,1.8
		c-14.2-4.2-27.5,0.8-35.5,13.3c-1.3,2-2.5,2.4-4.1,1.5c-1.6-1-1.8-2.5-0.5-4.5C322.1,184.2,332.4,178.6,347.2,178z"/>
	<path class="st54" d="M370.4,210.8c-0.1,1.4-0.7,2.5-2.2,2.8c-1.6,0.3-2.6-0.5-3.1-2c-1-2.7-1.6-5.7-3.2-8
		c-4.3-6.6-10.6-9.5-18.4-8.8c-2.2,0.2-3.4-0.6-3.6-2.4c-0.2-1.7,0.8-2.7,2.9-3c12.8-2,26.2,8.3,27.6,21.1
		C370.3,210.4,370.3,210.6,370.4,210.8z"/>
	<path class="st54" d="M276.4,289.1c0.5-12.6,11.3-23.3,24-23.6c2.4-0.1,3.5,0.7,3.6,2.5c0.1,1.9-1,2.9-3.3,3.1
		c-10.4,0.6-18.1,8.2-18.8,18.4c-0.2,2.7-1.1,3.9-3,3.8C277.1,293,276.3,291.7,276.4,289.1z"/>
	<path class="st54" d="M320.5,213.9c0.2-6.1,2.2-11.8,6.6-16.7c1.4-1.6,2.9-1.8,4.2-0.7c1.2,1.1,1.3,2.8,0,4.2
		c-6.1,6.6-7,16.7-2,24.2c1,1.5,0.9,2.9-0.7,4c-1.4,1-2.8,0.6-3.9-1C322,223.8,320.7,219.2,320.5,213.9z"/>
	<path class="st54" d="M303.6,315.5c-9.6-0.2-16.2-3-21.3-9c-1.5-1.8-1.5-3.1-0.1-4.3c1.4-1.2,2.6-1,4.3,0.8
		c6.5,7,14.7,8.8,23.4,5.3c1.9-0.8,3.3-0.4,4,1.1c0.7,1.6,0.2,3.1-1.8,3.8C308.7,314.2,305.3,315,303.6,315.5z"/>
	<path class="st54" d="M345.4,239.3c-2.2-0.4-4.4-0.7-6.5-1.1c-1.7-0.4-2.4-1.6-1.9-3.3c0.5-1.6,1.6-2.3,3.3-1.9
		c5.5,1.3,10.7,0.7,15.6-2.2c1.6-1,3.1-0.5,3.9,1c0.8,1.7,0.3,3-1.3,3.8C354.4,237.9,350.1,239.2,345.4,239.3z"/>
	<path class="st54" d="M326.9,290.4c-0.8,3.3-1.4,6.5-2.4,9.7c-0.6,1.9-2.2,2.6-3.7,2.1c-1.5-0.5-2.1-2.1-1.4-4c2-5.1,2-10.3,0-15.4
		c-0.6-1.6-0.4-3,1.3-3.8c1.6-0.7,3.2,0,3.7,1.9C325.5,284,326.1,287.1,326.9,290.4z"/>
	<path class="st54" d="M389.8,326.4c-15.1,0-28.4-9.1-33.8-23.3c-5.2-13.6-1.3-29.6,9.6-39.3c0.8-0.7,1.9-1.4,2.8-1.4
		c0.8,0,2,1,2.2,1.7c0.2,0.9-0.2,2.3-0.8,3.1c-2.3,3.2-5.4,6-7.2,9.5c-7.7,14.3-1.7,33,12.6,40.5c15.1,7.9,33.3,2.6,41.1-12
		c0.6-1.1,1.1-2.2,1.6-3.4c0.8-1.7,2.3-2.3,3.7-1.6c1.4,0.6,1.9,2.1,1.2,3.9C417.9,317.3,404.4,326.4,389.8,326.4z"/>
	<path class="st54" d="M425.1,283.6c-0.8,0.7-1.6,1.8-2.5,2.2c-1.3,0.5-2.4-0.1-3-1.4c-0.2-0.4-0.3-0.9-0.4-1.4
		c-3.5-13.5-15.4-22.7-29.3-22.9c-1.1,0-2.4-0.1-3.1-0.7c-0.6-0.5-0.9-2-0.6-2.8c0.3-0.8,1.4-1.7,2.2-1.8c2-0.2,4-0.1,6,0.2
		c14.2,1.6,26.9,12.8,30.2,26.7c0.1,0.5,0.2,1.1,0.3,1.6C424.9,283.3,425,283.4,425.1,283.6z"/>
	<path class="st54" d="M414.7,291.6c-0.1,6.2-2.7,12.4-8.2,17.4c-1.7,1.6-3.2,1.7-4.4,0.4c-1.2-1.3-1-2.8,0.6-4.3
		c0.1-0.1,0.2-0.2,0.3-0.3c6.4-6.2,8-15.1,4.1-23.1c-0.6-1.2-1.4-2.4-2.2-3.5c-1.2-1.7-1.1-3.2,0.3-4.2c1.4-1,2.8-0.7,4.1,0.9
		C412.9,279.5,414.6,284.7,414.7,291.6z"/>
	<path class="st54" d="M389.7,265.4c1.5,0.1,2.8,0.2,4.1,0.4c2.4,0.4,3.5,1.5,3.2,3.2c-0.3,1.8-1.6,2.6-4,2.2
		c-4.7-0.7-9.1,0-13.2,2.4c-3.4,2-6.1,4.8-7.8,8.4c-0.7,1.5-1.8,2.5-3.6,2.1c-1.8-0.4-2.4-2.3-1.4-4.4
		C371.8,270.4,379.6,265.9,389.7,265.4z"/>
	<path class="st54" d="M369,293.9c0.4,0.4,1.5,1,1.7,1.9c1.8,5.6,5.3,9.6,10.4,12.4c1.4,0.8,1.8,2,1,3.5c-0.8,1.5-2.1,2-3.7,1.2
		c-6.5-3.3-10.8-8.5-12.9-15.5C365,295.4,366.4,293.9,369,293.9z"/>
</g>
</svg>
