<?xml version="1.0" encoding="utf-8"?>
<!-- Generator: Adobe Illustrator 22.1.0, SVG Export Plug-In . SVG Version: 6.00 Build 0)  -->
<svg version="1.1" id="Calque_1" xmlns="http://www.w3.org/2000/svg" xmlns:xlink="http://www.w3.org/1999/xlink" x="0px" y="0px"
	 viewBox="0 0 700 480" style="enable-background:new 0 0 700 480;" xml:space="preserve">
<style type="text/css">
	.st0{fill:#DAECFF;}
	.st1{fill:#FFD258;}
	.st2{fill:#FBCEC6;}
	.st3{fill:#ADCCFF;}
	.st4{fill:#FF5F7D;}
	.st5{fill:none;stroke:#000000;stroke-width:2;stroke-miterlimit:10;}
	.st6{fill:#FFFBF2;}
	.st7{fill:#73B7A4;}
	.st8{fill:none;stroke:#000000;stroke-miterlimit:10;}
	.st9{fill:#98BFFF;}
	.st10{fill:#FFD258;stroke:#000000;stroke-width:2;stroke-miterlimit:10;}
	.st11{fill:#FEF0E1;stroke:#070707;stroke-miterlimit:10;}
	.st12{fill:#D3A533;}
	.st13{fill:#FFB5C0;stroke:#020202;stroke-miterlimit:10;}
	.st14{fill:#FF8E9E;}
	.st15{fill:#FF8E9E;stroke:#000000;stroke-miterlimit:10;}
	.st16{fill:#EA5B70;}
	.st17{fill:#020202;}
	.st18{fill:#FFD258;stroke:#050505;stroke-width:0.5;stroke-miterlimit:10;}
	.st19{fill:#FEF0E1;stroke:#020202;stroke-width:0.5;stroke-miterlimit:10;}
	.st20{fill:#DDB143;}
	.st21{fill:#D6AF8B;}
	.st22{fill:#FFFBF2;stroke:#020202;stroke-width:2;stroke-miterlimit:10;}
	.st23{fill:#FF5F7D;stroke:#020202;stroke-width:2;stroke-miterlimit:10;}
	.st24{fill:#FFFFFF;}
	.st25{fill:#ADCCFF;stroke:#020202;stroke-width:2;stroke-miterlimit:10;}
	.st26{fill:#FFD258;stroke:#050505;stroke-width:2;stroke-miterlimit:10;}
	.st27{fill:#85AAE0;}
	.st28{fill:#C99E32;}
	.st29{fill:#FFCF47;stroke:#020202;stroke-miterlimit:10;}
	.st30{fill:#FF5F7D;stroke:#050505;stroke-width:2;stroke-miterlimit:10;}
	.st31{fill:#F36B7F;stroke:#000000;stroke-miterlimit:10;}
	.st32{fill:#DBA92C;}
	.st33{fill:#73B7A4;stroke:#020202;stroke-width:2;stroke-miterlimit:10;}
	.st34{fill:#FFCF47;stroke:#020202;stroke-width:2;stroke-miterlimit:10;}
	.st35{fill:#99C6B8;}
	.st36{fill:#E2B23B;}
	.st37{fill:#C11A3E;}
	.st38{fill:#FEF0E1;stroke:#020202;stroke-miterlimit:10;}
	.st39{fill:#ADCCFF;stroke:#020202;stroke-miterlimit:10;}
	.st40{fill:#FFD258;stroke:#0C0C0C;stroke-width:0.75;stroke-miterlimit:10;}
	.st41{fill:#ADCCFF;stroke:#050505;stroke-width:2;stroke-miterlimit:10;}
	.st42{fill:#73B7A4;stroke:#050505;stroke-width:2;stroke-miterlimit:10;}
	.st43{fill:#FFFBF2;stroke:#050505;stroke-width:2;stroke-miterlimit:10;}
	.st44{fill:#FEF0E1;stroke:#020202;stroke-width:2;stroke-miterlimit:10;}
	.st45{fill:#D8A830;}
	.st46{fill:#FF5F7D;stroke:#050505;stroke-miterlimit:10;}
	.st47{fill:#73B7A4;stroke:#020202;stroke-miterlimit:10;}
	.st48{fill:#E8D2BF;}
	.st49{fill:#FFD258;stroke:#0A0A0A;stroke-width:2;stroke-miterlimit:10;}
	.st50{fill:#D8AB3A;}
	.st51{fill:#FFD258;stroke:#050505;stroke-miterlimit:10;}
	.st52{fill:#FBCEC6;stroke:#070707;stroke-miterlimit:10;}
	.st53{fill:#D84161;}
	.st54{fill:#FFD258;stroke:#0A0A0A;stroke-miterlimit:10;}
	.st55{fill:#FFD258;stroke:#0A0A0A;stroke-width:3;stroke-miterlimit:10;}
	.st56{fill:none;stroke:#0A0A0A;stroke-width:2;stroke-miterlimit:10;}
	.st57{fill:#FF5F7D;stroke:#000000;stroke-miterlimit:10;}
	.st58{fill:#FFD258;stroke:#000000;stroke-miterlimit:10;}
	.st59{fill:#FF5F7D;stroke:#050505;stroke-width:0.75;stroke-miterlimit:10;}
	.st60{fill:#FEF0E1;stroke:#020202;stroke-width:0.75;stroke-miterlimit:10;}
	.st61{fill:#FF5F7D;stroke:#050505;stroke-width:0.25;stroke-miterlimit:10;}
	.st62{fill:#FFD258;stroke:#0A0A0A;stroke-width:0.75;stroke-miterlimit:10;}
	.st63{fill:#73B7A4;stroke:#020202;stroke-width:0.25;stroke-miterlimit:10;}
	.st64{fill:#FBCEC6;stroke:#020202;stroke-miterlimit:10;}
	.st65{fill:#73B7A4;stroke:#020202;stroke-width:0.75;stroke-miterlimit:10;}
	.st66{fill:#73B7A4;stroke:#070707;stroke-miterlimit:10;}
	.st67{fill:#FFFBF2;stroke:#070707;stroke-miterlimit:10;}
	.st68{fill:#E2B139;}
	.st69{fill:#FFFBF2;stroke:#020202;stroke-miterlimit:10;}
	.st70{fill:#ADCCFF;stroke:#020202;stroke-width:0.75;stroke-miterlimit:10;}
	.st71{fill:#FFFBF2;stroke:#020202;stroke-width:0.75;stroke-miterlimit:10;}
	.st72{fill:#FFD258;stroke:#050505;stroke-width:0.75;stroke-miterlimit:10;}
	.st73{fill:#FBCEC6;stroke:#020202;stroke-width:0.75;stroke-miterlimit:10;}
	.st74{fill:#73B7A4;stroke:#050505;stroke-miterlimit:10;}
	.st75{fill:#73B7A4;stroke:#050505;stroke-width:0.75;stroke-miterlimit:10;}
	.st76{fill:#E2C2A6;}
	.st77{fill:#DBC69E;}
	.st78{fill:#D39C94;}
	.st79{fill:#E0B344;}
	.st80{fill:#E0AE32;}
	.st81{fill:#4F9982;}
	.st82{fill:#DDBA9B;}
	.st83{fill:#FF5F7D;stroke:#000000;stroke-width:0.75;stroke-miterlimit:10;}
	.st84{fill:#FFD258;stroke:#000000;stroke-width:0.75;stroke-miterlimit:10;}
	.st85{fill:none;stroke:#000000;stroke-width:0.5;stroke-miterlimit:10;}
	.st86{opacity:0.43;fill:#7F3B48;}
	.st87{opacity:0.88;fill:#98BFFF;}
	.st88{opacity:0.75;fill:#FFFBF2;}
	.st89{opacity:0.88;fill:#719BD8;}
	.st90{opacity:0.75;fill:#EAD9B7;}
	.st91{fill:#FEF0E1;}
	.st92{fill:none;stroke:#070707;stroke-miterlimit:10;}
	.st93{fill:#C1962B;}
	.st94{fill:#D6B154;}
	.st95{fill:#5DA08B;}
	.st96{fill:#C6961E;}
</style>
<rect x="3.7" y="4.7" class="st4" width="697.5" height="475.2"/>
<g id="lqkedl.tif_1_">
	<g>
		<path class="st70" d="M435,239c0,29.5,0,59,0,88.5c0,10.9-7.1,20.2-17.5,22.7c-2.3,0.6-4.8,0.8-7.2,0.8c-39.6,0-79.1,0-118.7,0
			c-14.7,0-24.6-9.9-24.6-24.6c0-58.6,0-117.1,0-175.7c0-11,7-20.2,17.4-22.8c2.3-0.6,4.8-0.8,7.2-0.8c39.7,0,79.3-0.1,119,0
			c14.6,0,24.5,10,24.5,24.5C435,180.7,435,209.8,435,239z M285.6,229.4c0,25.9,0,51.8,0,77.7c0,5.1,1.4,6.5,6.5,6.5
			c39.2,0,78.5,0,117.7,0c5.1,0,6.5-1.4,6.5-6.6c0-51.6,0-103.1,0-154.7c0-5.2-1.4-6.7-6.7-6.7c-39.2,0-78.3,0-117.5,0
			c-5.1,0-6.6,1.5-6.6,6.5C285.6,177.9,285.6,203.6,285.6,229.4z M351,318.4c-5.2,0-9.4,4.3-9.3,9.4c0.1,5,4.3,9.2,9.3,9.2
			c5.1,0,9.4-4.2,9.4-9.3C360.4,322.6,356.1,318.4,351,318.4z"/>
		<path class="st71" d="M285.6,229.4c0-25.7,0-51.5,0-77.2c0-5,1.5-6.5,6.6-6.5c39.2,0,78.3,0,117.5,0c5.2,0,6.7,1.5,6.7,6.7
			c0,51.6,0,103.1,0,154.7c0,5.2-1.4,6.6-6.5,6.6c-39.2,0-78.5,0-117.7,0c-5.1,0-6.5-1.4-6.5-6.5
			C285.6,281.2,285.6,255.3,285.6,229.4z"/>
		<path class="st71" d="M351,318.4c5.2,0,9.4,4.2,9.4,9.3c0,5.1-4.3,9.3-9.4,9.3c-5,0-9.2-4.2-9.3-9.2
			C341.6,322.7,345.8,318.4,351,318.4z"/>
	</g>
</g>
<path class="st47" d="M361.3,253.4c-5.1,0-9.8,0-15.3,0c0,2.1,0.3,4.3-0.1,6.4c-0.2,1.3-1.5,2.3-2.4,3.5c-0.8-1.1-2.4-2.3-2.4-3.4
	c0-4.1,0-7.9-4.1-10.3c-1.1-0.6-2.5-0.9-3.4-1.7c-1.1-1-2.7-2.2-2.8-3.4c-0.3-6-0.1-12.1-0.1-18.1c0-2.5,0.8-3.5,3.7-3.4
	c12.8,0.2,25.6,0.2,38.4,0c2.9-0.1,3.7,1,3.7,3.5c0,6,0.2,12.1-0.1,18.1c-0.1,1.2-1.7,2.5-2.8,3.4c-0.9,0.8-2.3,1-3.4,1.7
	c-3.5,2.4-4.4,5.7-4.1,9.8c0.1,1.2-1.6,2.6-2.4,3.8c-0.8-1.3-2-2.6-2.4-4C361,257.5,361.3,255.6,361.3,253.4z"/>
<path class="st47" d="M368.3,209.2c1,2.7,2,5.2,3.1,8.1c-11.9,0-23.2,0-35.3,0c1-2.8,1.9-5.3,2.9-8.1c-0.5-0.5-1.4-1.1-1.7-1.9
	c-0.4-1.3-0.5-2.8-0.7-4.2c1.4,0.2,2.8,0.3,4.1,0.5c1.6,0.2,3.5,1.1,4.8,0.5c5.5-2.4,10.7-2.5,16.1,0.1c1.1,0.5,2.8,0.2,4.1,0
	c1.6-0.2,3.2-0.7,4.8-1c-0.5,1.6-0.9,3.2-1.4,4.8C369.2,208.4,368.7,208.7,368.3,209.2z"/>
</svg>
