<?xml version="1.0" encoding="utf-8"?>
<!-- Generator: Adobe Illustrator 22.1.0, SVG Export Plug-In . SVG Version: 6.00 Build 0)  -->
<svg version="1.1" id="Calque_1" xmlns="http://www.w3.org/2000/svg" xmlns:xlink="http://www.w3.org/1999/xlink" x="0px" y="0px"
	 viewBox="0 0 700 480" style="enable-background:new 0 0 700 480;" xml:space="preserve">
<style type="text/css">
	.st0{fill:#DAECFF;}
	.st1{fill:#FFD258;}
	.st2{fill:#FBCEC6;}
	.st3{fill:#ADCCFF;}
	.st4{fill:#FF5F7D;}
	.st5{fill:none;stroke:#000000;stroke-width:2;stroke-miterlimit:10;}
	.st6{fill:#FFFBF2;}
	.st7{fill:#73B7A4;}
	.st8{fill:none;stroke:#000000;stroke-miterlimit:10;}
	.st9{fill:#98BFFF;}
	.st10{fill:#FFD258;stroke:#000000;stroke-width:2;stroke-miterlimit:10;}
	.st11{fill:#FEF0E1;stroke:#070707;stroke-miterlimit:10;}
	.st12{fill:#D3A533;}
	.st13{fill:#FFB5C0;stroke:#020202;stroke-miterlimit:10;}
	.st14{fill:#FF8E9E;}
	.st15{fill:#FF8E9E;stroke:#000000;stroke-miterlimit:10;}
	.st16{fill:#EA5B70;}
	.st17{fill:#020202;}
	.st18{fill:#FFD258;stroke:#050505;stroke-width:0.5;stroke-miterlimit:10;}
	.st19{fill:#FEF0E1;stroke:#020202;stroke-width:0.5;stroke-miterlimit:10;}
	.st20{fill:#DDB143;}
	.st21{fill:#D6AF8B;}
	.st22{fill:#FFFBF2;stroke:#020202;stroke-width:2;stroke-miterlimit:10;}
	.st23{fill:#FF5F7D;stroke:#020202;stroke-width:2;stroke-miterlimit:10;}
	.st24{fill:#FFFFFF;}
	.st25{fill:#ADCCFF;stroke:#020202;stroke-width:2;stroke-miterlimit:10;}
	.st26{fill:#FFD258;stroke:#050505;stroke-width:2;stroke-miterlimit:10;}
	.st27{fill:#85AAE0;}
	.st28{fill:#C99E32;}
	.st29{fill:#FFCF47;stroke:#020202;stroke-miterlimit:10;}
	.st30{fill:#FF5F7D;stroke:#050505;stroke-width:2;stroke-miterlimit:10;}
	.st31{fill:#F36B7F;stroke:#000000;stroke-miterlimit:10;}
	.st32{fill:#DBA92C;}
	.st33{fill:#73B7A4;stroke:#020202;stroke-width:2;stroke-miterlimit:10;}
	.st34{fill:#FFCF47;stroke:#020202;stroke-width:2;stroke-miterlimit:10;}
	.st35{fill:#99C6B8;}
	.st36{fill:#E2B23B;}
	.st37{fill:#C11A3E;}
	.st38{fill:#FEF0E1;stroke:#020202;stroke-miterlimit:10;}
	.st39{fill:#ADCCFF;stroke:#020202;stroke-miterlimit:10;}
	.st40{fill:#FFD258;stroke:#0C0C0C;stroke-width:0.75;stroke-miterlimit:10;}
	.st41{fill:#ADCCFF;stroke:#050505;stroke-width:2;stroke-miterlimit:10;}
	.st42{fill:#73B7A4;stroke:#050505;stroke-width:2;stroke-miterlimit:10;}
	.st43{fill:#FFFBF2;stroke:#050505;stroke-width:2;stroke-miterlimit:10;}
	.st44{fill:#FEF0E1;stroke:#020202;stroke-width:2;stroke-miterlimit:10;}
	.st45{fill:#D8A830;}
	.st46{fill:#FF5F7D;stroke:#050505;stroke-miterlimit:10;}
	.st47{fill:#73B7A4;stroke:#020202;stroke-miterlimit:10;}
	.st48{fill:#E8D2BF;}
	.st49{fill:#FFD258;stroke:#0A0A0A;stroke-width:2;stroke-miterlimit:10;}
	.st50{fill:#D8AB3A;}
	.st51{fill:#FFD258;stroke:#050505;stroke-miterlimit:10;}
	.st52{fill:#FBCEC6;stroke:#070707;stroke-miterlimit:10;}
	.st53{fill:#D84161;}
	.st54{fill:#FFD258;stroke:#0A0A0A;stroke-miterlimit:10;}
	.st55{fill:#FFD258;stroke:#0A0A0A;stroke-width:3;stroke-miterlimit:10;}
	.st56{fill:none;stroke:#0A0A0A;stroke-width:2;stroke-miterlimit:10;}
	.st57{fill:#FF5F7D;stroke:#000000;stroke-miterlimit:10;}
	.st58{fill:#FFD258;stroke:#000000;stroke-miterlimit:10;}
	.st59{fill:#FF5F7D;stroke:#050505;stroke-width:0.75;stroke-miterlimit:10;}
	.st60{fill:#FEF0E1;stroke:#020202;stroke-width:0.75;stroke-miterlimit:10;}
	.st61{fill:#FF5F7D;stroke:#050505;stroke-width:0.25;stroke-miterlimit:10;}
	.st62{fill:#FFD258;stroke:#0A0A0A;stroke-width:0.75;stroke-miterlimit:10;}
	.st63{fill:#73B7A4;stroke:#020202;stroke-width:0.25;stroke-miterlimit:10;}
	.st64{fill:#FBCEC6;stroke:#020202;stroke-miterlimit:10;}
	.st65{fill:#73B7A4;stroke:#020202;stroke-width:0.75;stroke-miterlimit:10;}
	.st66{fill:#73B7A4;stroke:#070707;stroke-miterlimit:10;}
	.st67{fill:#FFFBF2;stroke:#070707;stroke-miterlimit:10;}
	.st68{fill:#E2B139;}
	.st69{fill:#FFFBF2;stroke:#020202;stroke-miterlimit:10;}
	.st70{fill:#ADCCFF;stroke:#020202;stroke-width:0.75;stroke-miterlimit:10;}
	.st71{fill:#FFFBF2;stroke:#020202;stroke-width:0.75;stroke-miterlimit:10;}
	.st72{fill:#FFD258;stroke:#050505;stroke-width:0.75;stroke-miterlimit:10;}
	.st73{fill:#FBCEC6;stroke:#020202;stroke-width:0.75;stroke-miterlimit:10;}
	.st74{fill:#73B7A4;stroke:#050505;stroke-miterlimit:10;}
	.st75{fill:#73B7A4;stroke:#050505;stroke-width:0.75;stroke-miterlimit:10;}
	.st76{fill:#E2C2A6;}
	.st77{fill:#DBC69E;}
	.st78{fill:#D39C94;}
	.st79{fill:#E0B344;}
	.st80{fill:#E0AE32;}
	.st81{fill:#4F9982;}
	.st82{fill:#DDBA9B;}
	.st83{fill:#FF5F7D;stroke:#000000;stroke-width:0.75;stroke-miterlimit:10;}
	.st84{fill:#FFD258;stroke:#000000;stroke-width:0.75;stroke-miterlimit:10;}
	.st85{fill:none;stroke:#000000;stroke-width:0.5;stroke-miterlimit:10;}
	.st86{opacity:0.43;fill:#7F3B48;}
	.st87{opacity:0.88;fill:#98BFFF;}
	.st88{opacity:0.75;fill:#FFFBF2;}
	.st89{opacity:0.88;fill:#719BD8;}
	.st90{opacity:0.75;fill:#EAD9B7;}
	.st91{fill:#FEF0E1;}
	.st92{fill:none;stroke:#070707;stroke-miterlimit:10;}
	.st93{fill:#C1962B;}
	.st94{fill:#D6B154;}
	.st95{fill:#5DA08B;}
	.st96{fill:#C6961E;}
</style>
<rect x="2.5" y="5.2" class="st3" width="700" height="479.9"/>
<g id="_x37_x8ngP.tif">
	<g>
		<path class="st51" d="M349.5,171.5c17.3,0,34.5-0.1,51.8,0c27.3,0.2,44.9,14.1,51.2,40.6c5.2,21.6,10.4,43.3,15.3,65
			c4.1,17.9-6.6,33.8-24.5,36.7c-9.2,1.5-16.6-1.6-22.6-8.5c-1-1.2-2.1-2.5-2.6-3.9c-7.5-21.8-23.1-26.9-44.8-25.1
			c-23.1,1.8-46.4,0.6-69.7,0.3c-7.4-0.1-12.6,2.4-16,9.1c-2.4,4.7-5.4,9.2-8.2,13.7c-8.1,13.4-19.1,17.8-32.4,13
			c-12.8-4.6-21.9-18.8-19.1-32.2c5.4-25.1,11-50.2,17.9-75c5.8-21.1,24.1-33.3,48-33.7C312.4,171.3,330.9,171.5,349.5,171.5z
			 M312.6,214.1c-3.4-4.1-6.6-8-9.9-12c-3.2,4.2-6.3,8.3-10,13.1c-3.2,2.3-7.6,5.3-12,8.4c4.2,3.5,8.5,7,13.5,11.1
			c2,2.8,4.3,9.9,7.8,10.5c10.1,1.8,6.5-8.7,9.3-13.7c0.6,0.7,1.2,1.4,1.8,2.1c3.9-3.1,7.9-6.2,11.8-9.3
			C320.9,221,316.9,217.7,312.6,214.1z M403.8,238.4c-5.2-2.8-8.2-5.8-10.9-5.5c-2.3,0.2-4.1,4.3-6.2,6.6c2.6,2.1,5,5.5,7.8,5.9
			C396.7,245.6,399.3,242,403.8,238.4z M389.2,224.3c-5.5-3.5-8.3-6.7-11-6.6c-2.3,0.1-6.1,3.9-6.2,6.2c-0.1,2.1,3.6,6.1,5.9,6.3
			C380.6,230.4,383.6,227.4,389.2,224.3z M419,223.8c-5-3.1-7.9-6.2-10.6-6.1c-2.3,0.1-4.4,4-6.5,6.3c2.5,2.2,4.7,5.7,7.4,6.2
			C411.4,230.6,414.2,227.1,419,223.8z M394.2,199.2c-3.5,4.2-7.3,6.9-6.9,8.9c0.4,2.7,3.7,6.2,6.4,6.8c1.8,0.4,6.5-3.4,6.5-5.5
			C400.3,206.8,397.1,203.9,394.2,199.2z"/>
		<path class="st39" d="M403.7,238.5c-4.3,3.7-6.8,7.5-8.9,7.2c-2.7-0.4-5-3.9-7.5-6.1c2-2.5,3.8-6.7,5.9-6.9
			C395.8,232.4,398.7,235.6,403.7,238.5z"/>
		<path class="st24" d="M389.7,223.8c-5.4,3.3-8.2,6.4-10.8,6.1c-2.2-0.2-5.8-4.3-5.7-6.5c0.1-2.4,3.7-6.4,5.9-6.4
			C381.8,216.8,384.5,220.2,389.7,223.8z"/>
		<path class="st46" d="M418.2,223.3c-4.6,3.5-7.2,7-9.3,6.6c-2.6-0.5-4.8-4.2-7.1-6.5c2.1-2.3,4.1-6.4,6.3-6.5
			C410.6,216.8,413.4,220.1,418.2,223.3z"/>
		<path class="st74" d="M394.5,197.7c2.8,4.9,5.8,7.9,5.7,10.7c-0.1,2.1-4.5,6.2-6.3,5.7c-2.5-0.7-5.7-4.3-6.1-7.1
			C387.5,204.9,391.1,202.1,394.5,197.7z"/>
	</g>
</g>
</svg>
