<?xml version="1.0" encoding="utf-8"?>
<!-- Generator: Adobe Illustrator 22.1.0, SVG Export Plug-In . SVG Version: 6.00 Build 0)  -->
<svg version="1.1" id="Calque_1" xmlns="http://www.w3.org/2000/svg" xmlns:xlink="http://www.w3.org/1999/xlink" x="0px" y="0px"
	 viewBox="0 0 700 480" style="enable-background:new 0 0 700 480;" xml:space="preserve">
<style type="text/css">
	.st0{fill:#DAECFF;}
	.st1{fill:#FFD258;}
	.st2{fill:#FBCEC6;}
	.st3{fill:#ADCCFF;}
	.st4{fill:#FF5F7D;}
	.st5{fill:none;stroke:#000000;stroke-width:2;stroke-miterlimit:10;}
	.st6{fill:#FFFBF2;}
	.st7{fill:#73B7A4;}
	.st8{fill:none;stroke:#000000;stroke-miterlimit:10;}
	.st9{fill:#98BFFF;}
	.st10{fill:#FFD258;stroke:#000000;stroke-width:2;stroke-miterlimit:10;}
	.st11{fill:#FEF0E1;stroke:#070707;stroke-miterlimit:10;}
	.st12{fill:#D3A533;}
	.st13{fill:#FFB5C0;stroke:#020202;stroke-miterlimit:10;}
	.st14{fill:#FF8E9E;}
	.st15{fill:#FF8E9E;stroke:#000000;stroke-miterlimit:10;}
	.st16{fill:#EA5B70;}
	.st17{fill:#020202;}
	.st18{fill:#FFD258;stroke:#050505;stroke-width:0.5;stroke-miterlimit:10;}
	.st19{fill:#FEF0E1;stroke:#020202;stroke-width:0.5;stroke-miterlimit:10;}
	.st20{fill:#DDB143;}
	.st21{fill:#D6AF8B;}
	.st22{fill:#FFFBF2;stroke:#020202;stroke-width:2;stroke-miterlimit:10;}
	.st23{fill:#FF5F7D;stroke:#020202;stroke-width:2;stroke-miterlimit:10;}
	.st24{fill:#FFFFFF;}
	.st25{fill:#ADCCFF;stroke:#020202;stroke-width:2;stroke-miterlimit:10;}
	.st26{fill:#FFD258;stroke:#050505;stroke-width:2;stroke-miterlimit:10;}
	.st27{fill:#85AAE0;}
	.st28{fill:#C99E32;}
	.st29{fill:#FFCF47;stroke:#020202;stroke-miterlimit:10;}
	.st30{fill:#FF5F7D;stroke:#050505;stroke-width:2;stroke-miterlimit:10;}
	.st31{fill:#F36B7F;stroke:#000000;stroke-miterlimit:10;}
	.st32{fill:#DBA92C;}
	.st33{fill:#73B7A4;stroke:#020202;stroke-width:2;stroke-miterlimit:10;}
	.st34{fill:#FFCF47;stroke:#020202;stroke-width:2;stroke-miterlimit:10;}
	.st35{fill:#99C6B8;}
	.st36{fill:#E2B23B;}
	.st37{fill:#C11A3E;}
	.st38{fill:#FEF0E1;stroke:#020202;stroke-miterlimit:10;}
	.st39{fill:#ADCCFF;stroke:#020202;stroke-miterlimit:10;}
	.st40{fill:#FFD258;stroke:#0C0C0C;stroke-width:0.75;stroke-miterlimit:10;}
	.st41{fill:#ADCCFF;stroke:#050505;stroke-width:2;stroke-miterlimit:10;}
	.st42{fill:#73B7A4;stroke:#050505;stroke-width:2;stroke-miterlimit:10;}
	.st43{fill:#FFFBF2;stroke:#050505;stroke-width:2;stroke-miterlimit:10;}
	.st44{fill:#FEF0E1;stroke:#020202;stroke-width:2;stroke-miterlimit:10;}
	.st45{fill:#D8A830;}
	.st46{fill:#FF5F7D;stroke:#050505;stroke-miterlimit:10;}
	.st47{fill:#73B7A4;stroke:#020202;stroke-miterlimit:10;}
	.st48{fill:#E8D2BF;}
	.st49{fill:#FFD258;stroke:#0A0A0A;stroke-width:2;stroke-miterlimit:10;}
	.st50{fill:#D8AB3A;}
	.st51{fill:#FFD258;stroke:#050505;stroke-miterlimit:10;}
	.st52{fill:#FBCEC6;stroke:#070707;stroke-miterlimit:10;}
	.st53{fill:#D84161;}
	.st54{fill:#FFD258;stroke:#0A0A0A;stroke-miterlimit:10;}
	.st55{fill:#FFD258;stroke:#0A0A0A;stroke-width:3;stroke-miterlimit:10;}
	.st56{fill:none;stroke:#0A0A0A;stroke-width:2;stroke-miterlimit:10;}
	.st57{fill:#FF5F7D;stroke:#000000;stroke-miterlimit:10;}
	.st58{fill:#FFD258;stroke:#000000;stroke-miterlimit:10;}
	.st59{fill:#FF5F7D;stroke:#050505;stroke-width:0.75;stroke-miterlimit:10;}
	.st60{fill:#FEF0E1;stroke:#020202;stroke-width:0.75;stroke-miterlimit:10;}
	.st61{fill:#FF5F7D;stroke:#050505;stroke-width:0.25;stroke-miterlimit:10;}
	.st62{fill:#FFD258;stroke:#0A0A0A;stroke-width:0.75;stroke-miterlimit:10;}
	.st63{fill:#73B7A4;stroke:#020202;stroke-width:0.25;stroke-miterlimit:10;}
	.st64{fill:#FBCEC6;stroke:#020202;stroke-miterlimit:10;}
	.st65{fill:#73B7A4;stroke:#020202;stroke-width:0.75;stroke-miterlimit:10;}
	.st66{fill:#73B7A4;stroke:#070707;stroke-miterlimit:10;}
	.st67{fill:#FFFBF2;stroke:#070707;stroke-miterlimit:10;}
	.st68{fill:#E2B139;}
	.st69{fill:#FFFBF2;stroke:#020202;stroke-miterlimit:10;}
	.st70{fill:#ADCCFF;stroke:#020202;stroke-width:0.75;stroke-miterlimit:10;}
	.st71{fill:#FFFBF2;stroke:#020202;stroke-width:0.75;stroke-miterlimit:10;}
	.st72{fill:#FFD258;stroke:#050505;stroke-width:0.75;stroke-miterlimit:10;}
	.st73{fill:#FBCEC6;stroke:#020202;stroke-width:0.75;stroke-miterlimit:10;}
	.st74{fill:#73B7A4;stroke:#050505;stroke-miterlimit:10;}
	.st75{fill:#73B7A4;stroke:#050505;stroke-width:0.75;stroke-miterlimit:10;}
	.st76{fill:#E2C2A6;}
	.st77{fill:#DBC69E;}
	.st78{fill:#D39C94;}
	.st79{fill:#E0B344;}
	.st80{fill:#E0AE32;}
	.st81{fill:#4F9982;}
	.st82{fill:#DDBA9B;}
	.st83{fill:#FF5F7D;stroke:#000000;stroke-width:0.75;stroke-miterlimit:10;}
	.st84{fill:#FFD258;stroke:#000000;stroke-width:0.75;stroke-miterlimit:10;}
	.st85{fill:none;stroke:#000000;stroke-width:0.5;stroke-miterlimit:10;}
	.st86{opacity:0.43;fill:#7F3B48;}
	.st87{opacity:0.88;fill:#98BFFF;}
	.st88{opacity:0.75;fill:#FFFBF2;}
	.st89{opacity:0.88;fill:#719BD8;}
	.st90{opacity:0.75;fill:#EAD9B7;}
	.st91{fill:#FEF0E1;}
	.st92{fill:none;stroke:#070707;stroke-miterlimit:10;}
	.st93{fill:#C1962B;}
	.st94{fill:#D6B154;}
	.st95{fill:#5DA08B;}
	.st96{fill:#C6961E;}
</style>
<rect x="-5.4" y="-2.6" class="st0" width="699.7" height="480"/>
<g id="Ev5Fax.tif">
	<g>
		<path class="st11" d="M267.9,285.9c-4-0.6-8.1-1-12-2c-11.5-2.8-17.4-11.9-15.6-23.6c1.5-9.6,5.4-18.1,10.6-26.2
			c10.4-16.2,23.6-29.9,38.4-42.1c22.3-18.4,46.8-33.2,74.3-42.7c11.8-4.1,23.9-7,36.4-6.2c4.9,0.3,10,1.3,14.4,3.3
			c8.6,3.9,12.2,12.4,10.4,22.4c-1.6,9.3-5.5,17.7-10.6,25.6c-11.7,18.1-26.8,33-43.7,46.3c-21.4,16.8-44.6,30.3-70.5,38.9
			C289.6,283.1,278.9,285.4,267.9,285.9z"/>
		<path class="st54" d="M266.5,309.1c1.8,0.2,3.3,0.4,4.8,0.5c6.3,0.5,10.7-2.4,13.2-8.1c1.2-2.8,5-3.1,6.8-0.8
			c4.2,5.6,10.3,7.2,16.8,7.2c8.8,0,16.7-2.6,23.4-8.5c4.5-3.9,7.7-8.5,7.4-14.9c0-0.1,0-0.2,0-0.2c0.1-1.5,7.4-5.4,8.5-4.5
			c6,4.8,12.7,4.7,19.4,2.6c9.8-3.1,17.3-9.1,21.7-18.6c1.8-4,2.1-8,0.9-12.2c-0.2-0.7,0.3-1.7,0.7-2.5c0.2-0.4,0.7-0.6,1.1-1
			c2.4-2.6,4.6-4.1,8.7-2.8c5.1,1.7,10.1-0.4,14.5-3.1c9.3-5.9,15.4-14.1,16.8-25.3c0.5-4-0.2-7.8-2.5-11.2c-1-1.5-0.3-3.7,1.3-3.9
			c8.8-1.1,12.2-7.4,14.6-14.8c0-0.1,0.1-0.3,0.5-1c2.2,4,5.6,6.5,4.8,11.8c-1.7,11.5-6.2,21.7-12.1,31.4
			c-11.5,18.7-26.7,34-43.8,47.5c-20.4,16-42.7,28.6-67.6,36.3c-12.1,3.7-24.4,6.2-37.1,5.7c-4.6-0.2-9.2-1.2-13.8-1.8
			c-2.9-0.4-5.1-1.8-6.4-4.4C268.3,311.5,267.4,310.4,266.5,309.1z"/>
		<path class="st54" d="M429.8,164.7c4.1,3.3,4.5,7.7,3.6,12.7c-2,10.6-6.3,20.1-11.9,29.2c-11.8,19.1-27.5,34.7-45.1,48.3
			c-20.3,15.7-42.3,27.9-66.9,35.4c-12.7,3.9-25.7,6.3-39.1,5.4c-3.3-0.2-6.6-1-9.9-1.4c-4.1-0.4-6.9-2.6-8.4-6.5
			c3.2,0.6,6.4,1.4,9.6,1.7c14.6,1.4,28.6-1.5,42.1-6.5c42.6-15.5,78.6-40.6,107.1-76.1c7.8-9.7,14.2-20.4,17.3-32.6
			C428.9,171.2,429.2,167.9,429.8,164.7z"/>
		<path class="st64" d="M385.4,253.9c1.9,6.1-2.5,14.2-11.4,20.4c-7.5,5.2-18.1,6.8-22.4,3C362.9,269.5,374.2,261.7,385.4,253.9z"/>
		<path class="st64" d="M295.4,298.2c13.4-2.8,26.4-7,39-12.7c0.4,6.5-7.1,13.7-17.1,16.7C307.4,305.2,297.4,302.8,295.4,298.2z"/>
		<path class="st64" d="M399.3,240.6c9.7-9.6,18.5-20,25.9-31.8c2.3,3.7,2.2,7.4,1.1,11c-2.9,9.9-9,17.2-18.9,20.7
			c-2.4,0.9-5.2,0.7-7.9,0.9C399.5,241.2,399.4,240.9,399.3,240.6z"/>
		<path class="st64" d="M260.3,299.1c6.7,0.4,13.2,0.8,19.9,1.3c-1.3,2.6-3,4.3-6.1,4.7C268.1,306.1,264,303,260.3,299.1z"/>
		<path class="st64" d="M432.2,196.8c2-6.6,4.1-13.2,6.1-19.8C443.2,182.1,439.5,194.5,432.2,196.8z"/>
	</g>
</g>
</svg>
