<?xml version="1.0" encoding="utf-8"?>
<!-- Generator: Adobe Illustrator 22.1.0, SVG Export Plug-In . SVG Version: 6.00 Build 0)  -->
<svg version="1.1" id="Calque_1" xmlns="http://www.w3.org/2000/svg" xmlns:xlink="http://www.w3.org/1999/xlink" x="0px" y="0px"
	 viewBox="0 0 700 480" style="enable-background:new 0 0 700 480;" xml:space="preserve">
<style type="text/css">
	.st0{fill:#DAECFF;}
	.st1{fill:#FFD258;}
	.st2{fill:#FBCEC6;}
	.st3{fill:#ADCCFF;}
	.st4{fill:#FF5F7D;}
	.st5{fill:none;stroke:#000000;stroke-width:2;stroke-miterlimit:10;}
	.st6{fill:#FFFBF2;}
	.st7{fill:#73B7A4;}
	.st8{fill:none;stroke:#000000;stroke-miterlimit:10;}
	.st9{fill:#98BFFF;}
	.st10{fill:#FFD258;stroke:#000000;stroke-width:2;stroke-miterlimit:10;}
	.st11{fill:#FEF0E1;stroke:#070707;stroke-miterlimit:10;}
	.st12{fill:#D3A533;}
	.st13{fill:#FFB5C0;stroke:#020202;stroke-miterlimit:10;}
	.st14{fill:#FF8E9E;}
	.st15{fill:#FF8E9E;stroke:#000000;stroke-miterlimit:10;}
	.st16{fill:#EA5B70;}
	.st17{fill:#020202;}
	.st18{fill:#FFD258;stroke:#050505;stroke-width:0.5;stroke-miterlimit:10;}
	.st19{fill:#FEF0E1;stroke:#020202;stroke-width:0.5;stroke-miterlimit:10;}
	.st20{fill:#DDB143;}
	.st21{fill:#D6AF8B;}
	.st22{fill:#FFFBF2;stroke:#020202;stroke-width:2;stroke-miterlimit:10;}
	.st23{fill:#FF5F7D;stroke:#020202;stroke-width:2;stroke-miterlimit:10;}
	.st24{fill:#FFFFFF;}
	.st25{fill:#ADCCFF;stroke:#020202;stroke-width:2;stroke-miterlimit:10;}
	.st26{fill:#FFD258;stroke:#050505;stroke-width:2;stroke-miterlimit:10;}
	.st27{fill:#85AAE0;}
	.st28{fill:#C99E32;}
	.st29{fill:#FFCF47;stroke:#020202;stroke-miterlimit:10;}
	.st30{fill:#FF5F7D;stroke:#050505;stroke-width:2;stroke-miterlimit:10;}
	.st31{fill:#F36B7F;stroke:#000000;stroke-miterlimit:10;}
	.st32{fill:#DBA92C;}
	.st33{fill:#73B7A4;stroke:#020202;stroke-width:2;stroke-miterlimit:10;}
	.st34{fill:#FFCF47;stroke:#020202;stroke-width:2;stroke-miterlimit:10;}
	.st35{fill:#99C6B8;}
	.st36{fill:#E2B23B;}
	.st37{fill:#C11A3E;}
	.st38{fill:#FEF0E1;stroke:#020202;stroke-miterlimit:10;}
	.st39{fill:#ADCCFF;stroke:#020202;stroke-miterlimit:10;}
	.st40{fill:#FFD258;stroke:#0C0C0C;stroke-width:0.75;stroke-miterlimit:10;}
	.st41{fill:#ADCCFF;stroke:#050505;stroke-width:2;stroke-miterlimit:10;}
	.st42{fill:#73B7A4;stroke:#050505;stroke-width:2;stroke-miterlimit:10;}
	.st43{fill:#FFFBF2;stroke:#050505;stroke-width:2;stroke-miterlimit:10;}
	.st44{fill:#FEF0E1;stroke:#020202;stroke-width:2;stroke-miterlimit:10;}
	.st45{fill:#D8A830;}
	.st46{fill:#FF5F7D;stroke:#050505;stroke-miterlimit:10;}
	.st47{fill:#73B7A4;stroke:#020202;stroke-miterlimit:10;}
	.st48{fill:#E8D2BF;}
	.st49{fill:#FFD258;stroke:#0A0A0A;stroke-width:2;stroke-miterlimit:10;}
	.st50{fill:#D8AB3A;}
	.st51{fill:#FFD258;stroke:#050505;stroke-miterlimit:10;}
	.st52{fill:#FBCEC6;stroke:#070707;stroke-miterlimit:10;}
	.st53{fill:#D84161;}
	.st54{fill:#FFD258;stroke:#0A0A0A;stroke-miterlimit:10;}
	.st55{fill:#FFD258;stroke:#0A0A0A;stroke-width:3;stroke-miterlimit:10;}
	.st56{fill:none;stroke:#0A0A0A;stroke-width:2;stroke-miterlimit:10;}
	.st57{fill:#FF5F7D;stroke:#000000;stroke-miterlimit:10;}
	.st58{fill:#FFD258;stroke:#000000;stroke-miterlimit:10;}
	.st59{fill:#FF5F7D;stroke:#050505;stroke-width:0.75;stroke-miterlimit:10;}
	.st60{fill:#FEF0E1;stroke:#020202;stroke-width:0.75;stroke-miterlimit:10;}
	.st61{fill:#FF5F7D;stroke:#050505;stroke-width:0.25;stroke-miterlimit:10;}
	.st62{fill:#FFD258;stroke:#0A0A0A;stroke-width:0.75;stroke-miterlimit:10;}
	.st63{fill:#73B7A4;stroke:#020202;stroke-width:0.25;stroke-miterlimit:10;}
	.st64{fill:#FBCEC6;stroke:#020202;stroke-miterlimit:10;}
	.st65{fill:#73B7A4;stroke:#020202;stroke-width:0.75;stroke-miterlimit:10;}
	.st66{fill:#73B7A4;stroke:#070707;stroke-miterlimit:10;}
	.st67{fill:#FFFBF2;stroke:#070707;stroke-miterlimit:10;}
	.st68{fill:#E2B139;}
	.st69{fill:#FFFBF2;stroke:#020202;stroke-miterlimit:10;}
	.st70{fill:#ADCCFF;stroke:#020202;stroke-width:0.75;stroke-miterlimit:10;}
	.st71{fill:#FFFBF2;stroke:#020202;stroke-width:0.75;stroke-miterlimit:10;}
	.st72{fill:#FFD258;stroke:#050505;stroke-width:0.75;stroke-miterlimit:10;}
	.st73{fill:#FBCEC6;stroke:#020202;stroke-width:0.75;stroke-miterlimit:10;}
	.st74{fill:#73B7A4;stroke:#050505;stroke-miterlimit:10;}
	.st75{fill:#73B7A4;stroke:#050505;stroke-width:0.75;stroke-miterlimit:10;}
	.st76{fill:#E2C2A6;}
	.st77{fill:#DBC69E;}
	.st78{fill:#D39C94;}
	.st79{fill:#E0B344;}
	.st80{fill:#E0AE32;}
	.st81{fill:#4F9982;}
	.st82{fill:#DDBA9B;}
	.st83{fill:#FF5F7D;stroke:#000000;stroke-width:0.75;stroke-miterlimit:10;}
	.st84{fill:#FFD258;stroke:#000000;stroke-width:0.75;stroke-miterlimit:10;}
	.st85{fill:none;stroke:#000000;stroke-width:0.5;stroke-miterlimit:10;}
	.st86{opacity:0.43;fill:#7F3B48;}
	.st87{opacity:0.88;fill:#98BFFF;}
	.st88{opacity:0.75;fill:#FFFBF2;}
	.st89{opacity:0.88;fill:#719BD8;}
	.st90{opacity:0.75;fill:#EAD9B7;}
	.st91{fill:#FEF0E1;}
	.st92{fill:none;stroke:#070707;stroke-miterlimit:10;}
	.st93{fill:#C1962B;}
	.st94{fill:#D6B154;}
	.st95{fill:#5DA08B;}
	.st96{fill:#C6961E;}
</style>
<rect x="-0.9" y="3.8" class="st1" width="703.1" height="476.3"/>
<g id="NmgZU3.tif">
	<g>
		<path class="st46" d="M453.6,174.3c0.6,0.1,1.3,0,1.9-0.1c2.1-0.2,3.5-1.4,3.5-3.5c0.1-2.2-1.3-3.3-3.4-3.6
			c-0.9-0.1-1.9,0.1-2.7-0.1c-0.7-0.2-1.4-0.8-2.1-1.2c0.5-0.6,0.9-1.3,1.4-1.8c0.2-0.2,0.7-0.3,1-0.4c2.4-1,3.5-2.9,2.6-4.9
			c-1-2.3-2.8-2.6-5.1-1.9c-1.2,0.4-2.5,0.7-3.8,1c-0.2-0.2-0.3-0.5-0.5-0.7c1-1.1,2-2.2,2.8-3.4c1.1-1.5,1.2-3.1-0.1-4.5
			c-1.4-1.5-3.1-1.7-4.7-0.6c-0.8,0.5-1.4,1.4-2.3,2c-0.5,0.3-1.5,0.7-1.8,0.4c-0.4-0.3-0.6-1.2-0.5-1.8c0.2-1.3,1.1-2.6,0.9-3.7
			c-0.3-1.3-1.2-3.1-2.3-3.5c-1.1-0.4-2.8,0.6-4,1.3c-0.6,0.3-0.8,1.4-1,2.2c-0.5,2-1.6,2.1-3.1,1.2c0-1.3,0-2.5,0-3.7
			c-0.1-2.2-1.2-3.7-3.5-3.8c-2.2-0.1-3.4,1.3-3.6,3.4c-0.1,0.7-0.1,1.5-0.1,2.2c0,1.7-0.8,2.6-2.7,2.1c-0.3-1.1-0.5-2.3-0.8-3.4
			c-0.7-2.1-2.1-3-4.2-2.6c-2.1,0.4-2.9,1.8-2.8,3.8c0,0.9,0.2,1.8,0.4,2.7c0.6,2,0.2,3.4-2.1,3.9c-0.5-0.9-0.9-1.8-1.5-2.6
			c-1.2-1.6-2.8-2.1-4.6-1c-1.7,1-2.4,2.5-1.6,4.5c0.3,0.7,0.6,1.4,1,2c1.4,2,1.2,3.6-1.2,4.8c-2.1-1.8-4.2-5.4-7.5-2.3
			c-3.4,3.2,0.6,5.2,2.4,7.9c-0.8,0.7-1.6,1.4-2.4,2.1c-4.5-3.8-6.1-4.3-7.8-2.4c-3,3.5,0.8,5.3,2.4,7.9c-0.8,0.8-1.5,1.6-2.2,2.3
			c-4.5-3.9-6.1-4.5-7.8-2.7c-3.4,3.5,0.6,5.4,1.9,7.4c-0.7,1.1-1.3,2-1.9,2.9c-4.4-3.9-6-4.5-7.8-2.6c-3.3,3.6,0.8,5.4,2,7.6
			c-0.7,1.1-1.3,2-1.9,2.8c-4.3-3.9-5.9-4.5-7.7-2.8c-3.7,3.6,0.6,5.5,2.1,8.1c-0.7,0.8-1.4,1.5-2.1,2.3c-2.5-1.9-4.5-5.6-7.8-2.5
			c-3.5,3.4,0.9,5.3,2.2,7.9c-0.8,0.8-1.4,1.5-2.1,2.3c-2.4-1.9-4.4-5.5-7.6-2.7c-3.9,3.4,0.7,5.4,1.9,7.8c-0.7,1-1.3,1.7-2,2.6
			c-2.5-2-4.5-5.6-7.8-2.5c-3.6,3.4,0.9,5.3,2.2,7.7c-0.7,0.9-1.4,1.6-2.1,2.5c-2.4-1.9-4.5-5.6-7.8-2.5c-3.6,3.4,0.8,5.3,2.2,7.9
			c-0.7,0.8-1.4,1.5-2.2,2.3c-2.3-1.8-4.3-5.5-7.6-2.5c-3.7,3.3,0.7,5.3,2.2,7.9c-0.6,0.6-1.1,1.3-1.7,1.9c-0.4,0.4-0.8,0.7-1.2,1
			c-4.9-7.1-8.1-7.4-14.2-1.2c-2.7,2.7-5.4,5.5-8.3,8.6c-5.1-5.1-9.9-10-14.8-14.9c-3.8-3.8-7.7-3.8-11.6,0
			c-8.6,8.6-17.1,17.3-25.9,25.7c-3.7,3.6-4.1,7.2-2.2,11.7c2.8,6.8,5.5,13.7,8.3,20.5c0.7,1.6,0.4,2.7-0.8,3.8
			c-2.1,1.9-4.1,4-6.1,6c-4.1,4.1-4.1,7.8,0,11.9c11.9,11.9,23.8,23.8,35.7,35.7c5.2,5.2,8.4,5.4,13.9,0.4
			c5.6-5.2,11.2-10.4,16.9-15.4c0.8-0.7,2.1-1.2,3.1-1.1c3.8,0.2,7.5,0.7,11.3,1.1c2,0.2,3.5-0.4,4.9-1.9c1.9-2.2,3.9-4.4,6.1-6.9
			c1.6-1.8,3.2-3.6,4.8-5.4c2.8-3.2,5.4-6.2,8.2-9.2c1.9-2,2.3-3.9,0.9-6.4c-2.2-4.1-4.2-8.4-6.1-12.7c-0.3-0.7-0.4-2.1,0-2.6
			c2.1-2.5,4.4-4.9,6.7-7.3c2.6,2.1,4.6,5.6,7.8,2.7c3.6-3.3-0.5-5.4-2.2-8.1c0.8-0.7,1.5-1.4,2.2-2.1c2.5,1.8,4.5,5.6,7.8,2.4
			c3.3-3.2-0.5-5.3-2.3-7.9c0.8-0.8,1.5-1.5,2.2-2.2c4.6,3.8,6.1,4.3,7.8,2.5c3.3-3.5-0.7-5.4-2.2-8.1c0.8-0.8,1.5-1.5,2.3-2.3
			c2.4,2.1,4.5,5.7,7.7,2.5c3.3-3.2-0.6-5.3-2.3-7.8c0.8-0.8,1.5-1.6,2.2-2.3c4.5,3.8,6.1,4.4,7.8,2.6c3.2-3.5-0.6-5.4-2.2-7.8
			c0.8-0.9,1.4-1.7,2.1-2.5c2.5,1.9,4.5,5.6,7.8,2.4c3.3-3.2-0.5-5.3-2.2-7.6c0.7-0.9,1.4-1.7,2.1-2.5c4.4,3.8,6.1,4.4,7.7,2.6
			c3.3-3.5-0.5-5.4-1.9-7.5c0.7-1.1,1.3-2,1.9-2.8c4.2,3.8,5.9,4.3,7.8,2.6c1.8-1.7,1.4-3.2-2.4-8.1c0.8-0.7,1.6-1.3,2.4-2
			c4.4,3.6,6.1,4.2,7.7,2.3c3.1-3.5-0.7-5.3-2.2-7.5c0.7-1,1.4-1.8,2-2.7c2.4,2.1,4.3,5.4,7.4,2.8c3.9-3.3-0.4-5.5-1.9-8
			c0.8-0.8,1.6-1.5,2.3-2.2c3.9,3.6,5.7,4.3,7.4,2.5c3.5-3.5-0.4-5.4-2-7.7c1.1-2.1,2.4-2.8,4.4-1.3c0.8,0.6,1.8,1,2.7,1.3
			c2,0.7,3.7,0.2,4.7-1.8c0.9-1.9,0.3-3.6-1.5-4.8c-0.8-0.5-1.8-1-2.6-1.4c0.5-2.5,1.8-3.4,4.2-2.7c0.7,0.2,1.5,0.2,2.2,0.2
			c2.3,0.1,3.8-1.1,4-3.3c0.2-2.1-1.1-3.4-3.2-3.9c-0.9-0.2-1.9-0.3-2.8-0.5C451,174.8,451.8,174.1,453.6,174.3z M255.6,263.6
			c-0.4-1-0.3-2.7,0.4-3.4c8.6-8.8,17.4-17.5,26.1-26.2c0.1-0.1,0.3-0.2,0.4-0.2c5,5,9.9,10.1,14.7,14.9
			c-11.2,11.1-22.5,22.4-34,33.9c-0.8-1.9-1.6-4-2.5-6.2C259,272.1,257.2,267.9,255.6,263.6z M347.4,303.6
			c-5.1,5.6-10,11.3-15.1,16.8c-0.7,0.8-2.2,1.3-3.2,1.2c-3.4-0.2-6.8-0.6-10.1-1.1c-2.2-0.3-3.9,0.3-5.5,1.8
			c-6.7,6.2-13.4,12.3-20,18.2c-12.8-12.8-25.4-25.6-37.9-38.1c20.7-20.7,41.8-41.8,63.2-63.1c2.5,5.2,5.2,10.6,7.9,16
			c7.1,14.7,14.2,29.5,21.4,44.2C348.8,301.2,348.6,302.2,347.4,303.6z M426.2,182.8c-5.9,0.1-10.9-4.9-10.9-10.9
			c0-6,4.9-10.9,10.9-10.9c5.8,0,10.7,4.9,10.8,10.8C437.1,177.7,432.1,182.7,426.2,182.8z"/>
	</g>
</g>
</svg>
