<?xml version="1.0" encoding="utf-8"?>
<!-- Generator: Adobe Illustrator 22.1.0, SVG Export Plug-In . SVG Version: 6.00 Build 0)  -->
<svg version="1.1" id="Calque_1" xmlns="http://www.w3.org/2000/svg" xmlns:xlink="http://www.w3.org/1999/xlink" x="0px" y="0px"
	 viewBox="0 0 700 480" style="enable-background:new 0 0 700 480;" xml:space="preserve">
<style type="text/css">
	.st0{fill:#DAECFF;}
	.st1{fill:#FFD258;}
	.st2{fill:#FBCEC6;}
	.st3{fill:#ADCCFF;}
	.st4{fill:#FF5F7D;}
	.st5{fill:none;stroke:#000000;stroke-width:2;stroke-miterlimit:10;}
	.st6{fill:#FFFBF2;}
	.st7{fill:#73B7A4;}
	.st8{fill:none;stroke:#000000;stroke-miterlimit:10;}
	.st9{fill:#98BFFF;}
	.st10{fill:#FFD258;stroke:#000000;stroke-width:2;stroke-miterlimit:10;}
	.st11{fill:#FEF0E1;stroke:#070707;stroke-miterlimit:10;}
	.st12{fill:#D3A533;}
	.st13{fill:#FFB5C0;stroke:#020202;stroke-miterlimit:10;}
	.st14{fill:#FF8E9E;}
	.st15{fill:#FF8E9E;stroke:#000000;stroke-miterlimit:10;}
	.st16{fill:#EA5B70;}
	.st17{fill:#020202;}
	.st18{fill:#FFD258;stroke:#050505;stroke-width:0.5;stroke-miterlimit:10;}
	.st19{fill:#FEF0E1;stroke:#020202;stroke-width:0.5;stroke-miterlimit:10;}
	.st20{fill:#DDB143;}
	.st21{fill:#D6AF8B;}
	.st22{fill:#FFFBF2;stroke:#020202;stroke-width:2;stroke-miterlimit:10;}
	.st23{fill:#FF5F7D;stroke:#020202;stroke-width:2;stroke-miterlimit:10;}
	.st24{fill:#FFFFFF;}
	.st25{fill:#ADCCFF;stroke:#020202;stroke-width:2;stroke-miterlimit:10;}
	.st26{fill:#FFD258;stroke:#050505;stroke-width:2;stroke-miterlimit:10;}
	.st27{fill:#85AAE0;}
	.st28{fill:#C99E32;}
	.st29{fill:#FFCF47;stroke:#020202;stroke-miterlimit:10;}
	.st30{fill:#FF5F7D;stroke:#050505;stroke-width:2;stroke-miterlimit:10;}
	.st31{fill:#F36B7F;stroke:#000000;stroke-miterlimit:10;}
	.st32{fill:#DBA92C;}
	.st33{fill:#73B7A4;stroke:#020202;stroke-width:2;stroke-miterlimit:10;}
	.st34{fill:#FFCF47;stroke:#020202;stroke-width:2;stroke-miterlimit:10;}
	.st35{fill:#99C6B8;}
	.st36{fill:#E2B23B;}
	.st37{fill:#C11A3E;}
	.st38{fill:#FEF0E1;stroke:#020202;stroke-miterlimit:10;}
	.st39{fill:#ADCCFF;stroke:#020202;stroke-miterlimit:10;}
	.st40{fill:#FFD258;stroke:#0C0C0C;stroke-width:0.75;stroke-miterlimit:10;}
	.st41{fill:#ADCCFF;stroke:#050505;stroke-width:2;stroke-miterlimit:10;}
	.st42{fill:#73B7A4;stroke:#050505;stroke-width:2;stroke-miterlimit:10;}
	.st43{fill:#FFFBF2;stroke:#050505;stroke-width:2;stroke-miterlimit:10;}
	.st44{fill:#FEF0E1;stroke:#020202;stroke-width:2;stroke-miterlimit:10;}
	.st45{fill:#D8A830;}
	.st46{fill:#FF5F7D;stroke:#050505;stroke-miterlimit:10;}
	.st47{fill:#73B7A4;stroke:#020202;stroke-miterlimit:10;}
	.st48{fill:#E8D2BF;}
	.st49{fill:#FFD258;stroke:#0A0A0A;stroke-width:2;stroke-miterlimit:10;}
	.st50{fill:#D8AB3A;}
	.st51{fill:#FFD258;stroke:#050505;stroke-miterlimit:10;}
	.st52{fill:#FBCEC6;stroke:#070707;stroke-miterlimit:10;}
	.st53{fill:#D84161;}
	.st54{fill:#FFD258;stroke:#0A0A0A;stroke-miterlimit:10;}
	.st55{fill:#FFD258;stroke:#0A0A0A;stroke-width:3;stroke-miterlimit:10;}
	.st56{fill:none;stroke:#0A0A0A;stroke-width:2;stroke-miterlimit:10;}
	.st57{fill:#FF5F7D;stroke:#000000;stroke-miterlimit:10;}
	.st58{fill:#FFD258;stroke:#000000;stroke-miterlimit:10;}
	.st59{fill:#FF5F7D;stroke:#050505;stroke-width:0.75;stroke-miterlimit:10;}
	.st60{fill:#FEF0E1;stroke:#020202;stroke-width:0.75;stroke-miterlimit:10;}
	.st61{fill:#FF5F7D;stroke:#050505;stroke-width:0.25;stroke-miterlimit:10;}
	.st62{fill:#FFD258;stroke:#0A0A0A;stroke-width:0.75;stroke-miterlimit:10;}
	.st63{fill:#73B7A4;stroke:#020202;stroke-width:0.25;stroke-miterlimit:10;}
	.st64{fill:#FBCEC6;stroke:#020202;stroke-miterlimit:10;}
	.st65{fill:#73B7A4;stroke:#020202;stroke-width:0.75;stroke-miterlimit:10;}
	.st66{fill:#73B7A4;stroke:#070707;stroke-miterlimit:10;}
	.st67{fill:#FFFBF2;stroke:#070707;stroke-miterlimit:10;}
	.st68{fill:#E2B139;}
	.st69{fill:#FFFBF2;stroke:#020202;stroke-miterlimit:10;}
	.st70{fill:#ADCCFF;stroke:#020202;stroke-width:0.75;stroke-miterlimit:10;}
	.st71{fill:#FFFBF2;stroke:#020202;stroke-width:0.75;stroke-miterlimit:10;}
	.st72{fill:#FFD258;stroke:#050505;stroke-width:0.75;stroke-miterlimit:10;}
	.st73{fill:#FBCEC6;stroke:#020202;stroke-width:0.75;stroke-miterlimit:10;}
	.st74{fill:#73B7A4;stroke:#050505;stroke-miterlimit:10;}
	.st75{fill:#73B7A4;stroke:#050505;stroke-width:0.75;stroke-miterlimit:10;}
	.st76{fill:#E2C2A6;}
	.st77{fill:#DBC69E;}
	.st78{fill:#D39C94;}
	.st79{fill:#E0B344;}
	.st80{fill:#E0AE32;}
	.st81{fill:#4F9982;}
	.st82{fill:#DDBA9B;}
	.st83{fill:#FF5F7D;stroke:#000000;stroke-width:0.75;stroke-miterlimit:10;}
	.st84{fill:#FFD258;stroke:#000000;stroke-width:0.75;stroke-miterlimit:10;}
	.st85{fill:none;stroke:#000000;stroke-width:0.5;stroke-miterlimit:10;}
	.st86{opacity:0.43;fill:#7F3B48;}
	.st87{opacity:0.88;fill:#98BFFF;}
	.st88{opacity:0.75;fill:#FFFBF2;}
	.st89{opacity:0.88;fill:#719BD8;}
	.st90{opacity:0.75;fill:#EAD9B7;}
	.st91{fill:#FEF0E1;}
	.st92{fill:none;stroke:#070707;stroke-miterlimit:10;}
	.st93{fill:#C1962B;}
	.st94{fill:#D6B154;}
	.st95{fill:#5DA08B;}
	.st96{fill:#C6961E;}
</style>
<rect x="0.2" y="1.8" class="st4" width="697.5" height="475.2"/>
<g id="Q5M9xm.tif">
	<g>
		<path class="st62" d="M250.5,188.3c2.3,1.4,4.3,2.6,6.5,3.9c-0.4,0.4-0.7,0.6-0.9,0.8c-3.2,2.2-4.8,5.3-4.8,9.2
			c0,18.9,0,37.7,0,56.6c0,1.3,0.4,2,1.6,2.6c4.3,2.3,6.4,7.4,5.2,11.9c-1.3,4.6-5.5,7.9-10.1,7.9c-4.7,0.1-9.4-3.4-10.4-7.7
			c-1.2-4.9,0.7-9.8,5.1-12.1c1.3-0.7,1.6-1.4,1.6-2.8c0-17.3,0-34.5,0-51.8c0-10.2,0.1-10.5,6.1-18.5c-3.4-2-6.7-4-10.3-6.1
			c0.7-0.5,1.2-0.9,1.7-1.2c31-18.3,61.9-36.5,92.9-54.8c1.2-0.7,2-0.8,3.2-0.1c31,18.3,62,36.6,93.1,54.9c0.4,0.3,0.9,0.6,1.6,1
			c-0.8,0.5-1.3,0.9-1.9,1.3c-30.9,18.2-61.8,36.4-92.7,54.6c-1.2,0.7-2,0.8-3.2,0.1c-25.1-14.9-50.3-29.7-75.4-44.5
			c-0.5-0.3-1-0.6-1.9-1.3c1.8-0.4,3.2-0.8,4.5-1c16.5-2,32.9-4,49.4-6c8.3-1,16.5-2,24.8-3.1c2.6-0.3,4.1-2,3.7-4.1
			c-0.3-2-2.1-3.2-4.6-2.8c-25,3.1-50.1,6.1-75.1,9.2C256.5,184.6,253.4,185.8,250.5,188.3z"/>
		<path class="st62" d="M406.9,205.4c0,1.1,0,1.9,0,2.7c0,10.4-0.3,20.9,0.1,31.3c0.3,8.2-3.1,14.4-8.8,19.6
			c-4.8,4.3-10.4,7.4-16.3,9.9c-17.2,7.1-35.1,9.4-53.6,8.4c-12.7-0.7-25-3.2-36.8-8c-8.2-3.3-15.9-7.5-21.5-14.7
			c-3.2-4.1-4.9-8.6-4.8-14c0.1-11.6,0-23.3,0-35.3c0.9,0.5,1.6,0.9,2.2,1.2c21.7,12.8,43.3,25.5,64.9,38.3c2.6,1.5,4.7,1.5,7.2,0
			c21.5-12.8,43.2-25.5,64.7-38.2C405.1,206.3,405.9,205.9,406.9,205.4z"/>
		<path class="st91" d="M247.7,281.9c2.3,12.7,4.6,25.3,6.9,38.1c-7,2.3-13.9,4.6-21.2,7.1c4.7-15.4,9.3-30.3,13.9-45.2
			C247.5,281.9,247.6,281.9,247.7,281.9z"/>
	</g>
</g>
<g id="Q5M9xm.tif_1_">
	<g>
		<path class="st92" d="M249.6,187.4c2.3,1.4,4.3,2.6,6.5,3.9c-0.4,0.4-0.7,0.6-0.9,0.8c-3.2,2.2-4.8,5.3-4.8,9.2
			c0,18.9,0,37.7,0,56.6c0,1.3,0.4,2,1.6,2.6c4.3,2.3,6.4,7.4,5.2,11.9c-1.3,4.6-5.5,7.9-10.1,7.9c-4.7,0.1-9.4-3.4-10.4-7.7
			c-1.2-4.9,0.7-9.8,5.1-12.1c1.3-0.7,1.6-1.4,1.6-2.8c0-17.3,0-34.5,0-51.8c0-10.2,0.1-10.5,6.1-18.5c-3.4-2-6.7-4-10.3-6.1
			c0.7-0.5,1.2-0.9,1.7-1.2c31-18.3,61.9-36.5,92.9-54.8c1.2-0.7,2-0.8,3.2-0.1c31,18.3,62,36.6,93.1,54.9c0.4,0.3,0.9,0.6,1.6,1
			c-0.8,0.5-1.3,0.9-1.9,1.3c-30.9,18.2-61.8,36.4-92.7,54.6c-1.2,0.7-2,0.8-3.2,0.1c-25.1-14.9-50.3-29.7-75.4-44.5
			c-0.5-0.3-1-0.6-1.9-1.3c1.8-0.4,3.2-0.8,4.5-1c16.5-2,32.9-4,49.4-6c8.3-1,16.5-2,24.8-3.1c2.6-0.3,4.1-2,3.7-4.1
			c-0.3-2-2.1-3.2-4.6-2.8c-25,3.1-50.1,6.1-75.1,9.2C255.7,183.8,252.6,184.9,249.6,187.4z"/>
		<path class="st92" d="M406,204.5c0,1.1,0,1.9,0,2.7c0,10.4-0.3,20.9,0.1,31.3c0.3,8.2-3.1,14.4-8.8,19.6
			c-4.8,4.3-10.4,7.4-16.3,9.9c-17.2,7.1-35.1,9.4-53.6,8.4c-12.7-0.7-25-3.2-36.8-8c-8.2-3.3-15.9-7.5-21.5-14.7
			c-3.2-4.1-4.9-8.6-4.8-14c0.1-11.6,0-23.3,0-35.3c0.9,0.5,1.6,0.9,2.2,1.2c21.7,12.8,43.3,25.5,64.9,38.3c2.6,1.5,4.7,1.5,7.2,0
			c21.5-12.8,43.2-25.5,64.7-38.2C404.3,205.4,405,205.1,406,204.5z"/>
		<path class="st92" d="M246.9,281c2.3,12.7,4.6,25.3,6.9,38.1c-7,2.3-13.9,4.6-21.2,7.1c4.7-15.4,9.3-30.3,13.9-45.2
			C246.6,281,246.8,281,246.9,281z"/>
	</g>
</g>
<circle class="st1" cx="246.8" cy="270.4" r="9.8"/>
<g id="Q5M9xm.tif_2_">
	<g>
		<path class="st93" d="M429,181.4c-9.2-5.4-18.4-10.9-27.6-16.3c-1.5,4.9-3.1,9.7-4.8,14.4c-3.5,10-7.3,19.9-11.3,29.7
			c14.5-8.5,28.9-17,43.4-25.6c0.6-0.4,1.2-0.8,1.9-1.3C429.9,181.9,429.4,181.6,429,181.4z"/>
		<path class="st93" d="M405.1,208.6v-2.7c-1,0.5-1.7,0.9-2.4,1.3c-7.3,4.3-14.5,8.6-21.8,12.8c-7.6,18.5-15.4,36.9-22.1,55.7
			c7.2-1.4,14.3-3.5,21.3-6.4c5.9-2.5,11.5-5.6,16.3-9.9c5.7-5.2,9.1-11.4,8.8-19.6C404.8,229.5,405.1,219,405.1,208.6z"/>
	</g>
</g>
</svg>
