<?xml version="1.0" encoding="utf-8"?>
<!-- Generator: Adobe Illustrator 22.1.0, SVG Export Plug-In . SVG Version: 6.00 Build 0)  -->
<svg version="1.1" id="Calque_1" xmlns="http://www.w3.org/2000/svg" xmlns:xlink="http://www.w3.org/1999/xlink" x="0px" y="0px"
	 viewBox="0 0 700 480" style="enable-background:new 0 0 700 480;" xml:space="preserve">
<style type="text/css">
	.st0{fill:#DAECFF;}
	.st1{fill:#FFD258;}
	.st2{fill:#FBCEC6;}
	.st3{fill:#ADCCFF;}
	.st4{fill:#FF5F7D;}
	.st5{fill:none;stroke:#000000;stroke-width:2;stroke-miterlimit:10;}
	.st6{fill:#FFFBF2;}
	.st7{fill:#73B7A4;}
	.st8{fill:none;stroke:#000000;stroke-miterlimit:10;}
	.st9{fill:#98BFFF;}
	.st10{fill:#FFD258;stroke:#000000;stroke-width:2;stroke-miterlimit:10;}
	.st11{fill:#FEF0E1;stroke:#070707;stroke-miterlimit:10;}
	.st12{fill:#D3A533;}
	.st13{fill:#FFB5C0;stroke:#020202;stroke-miterlimit:10;}
	.st14{fill:#FF8E9E;}
	.st15{fill:#FF8E9E;stroke:#000000;stroke-miterlimit:10;}
	.st16{fill:#EA5B70;}
	.st17{fill:#020202;}
	.st18{fill:#FFD258;stroke:#050505;stroke-width:0.5;stroke-miterlimit:10;}
	.st19{fill:#FEF0E1;stroke:#020202;stroke-width:0.5;stroke-miterlimit:10;}
	.st20{fill:#DDB143;}
	.st21{fill:#D6AF8B;}
	.st22{fill:#FFFBF2;stroke:#020202;stroke-width:2;stroke-miterlimit:10;}
	.st23{fill:#FF5F7D;stroke:#020202;stroke-width:2;stroke-miterlimit:10;}
	.st24{fill:#FFFFFF;}
	.st25{fill:#ADCCFF;stroke:#020202;stroke-width:2;stroke-miterlimit:10;}
	.st26{fill:#FFD258;stroke:#050505;stroke-width:2;stroke-miterlimit:10;}
	.st27{fill:#85AAE0;}
	.st28{fill:#C99E32;}
	.st29{fill:#FFCF47;stroke:#020202;stroke-miterlimit:10;}
	.st30{fill:#FF5F7D;stroke:#050505;stroke-width:2;stroke-miterlimit:10;}
	.st31{fill:#F36B7F;stroke:#000000;stroke-miterlimit:10;}
	.st32{fill:#DBA92C;}
	.st33{fill:#73B7A4;stroke:#020202;stroke-width:2;stroke-miterlimit:10;}
	.st34{fill:#FFCF47;stroke:#020202;stroke-width:2;stroke-miterlimit:10;}
	.st35{fill:#99C6B8;}
	.st36{fill:#E2B23B;}
	.st37{fill:#C11A3E;}
	.st38{fill:#FEF0E1;stroke:#020202;stroke-miterlimit:10;}
	.st39{fill:#ADCCFF;stroke:#020202;stroke-miterlimit:10;}
	.st40{fill:#FFD258;stroke:#0C0C0C;stroke-width:0.75;stroke-miterlimit:10;}
	.st41{fill:#ADCCFF;stroke:#050505;stroke-width:2;stroke-miterlimit:10;}
	.st42{fill:#73B7A4;stroke:#050505;stroke-width:2;stroke-miterlimit:10;}
	.st43{fill:#FFFBF2;stroke:#050505;stroke-width:2;stroke-miterlimit:10;}
	.st44{fill:#FEF0E1;stroke:#020202;stroke-width:2;stroke-miterlimit:10;}
	.st45{fill:#D8A830;}
	.st46{fill:#FF5F7D;stroke:#050505;stroke-miterlimit:10;}
	.st47{fill:#73B7A4;stroke:#020202;stroke-miterlimit:10;}
	.st48{fill:#E8D2BF;}
	.st49{fill:#FFD258;stroke:#0A0A0A;stroke-width:2;stroke-miterlimit:10;}
	.st50{fill:#D8AB3A;}
	.st51{fill:#FFD258;stroke:#050505;stroke-miterlimit:10;}
	.st52{fill:#FBCEC6;stroke:#070707;stroke-miterlimit:10;}
	.st53{fill:#D84161;}
	.st54{fill:#FFD258;stroke:#0A0A0A;stroke-miterlimit:10;}
	.st55{fill:#FFD258;stroke:#0A0A0A;stroke-width:3;stroke-miterlimit:10;}
	.st56{fill:none;stroke:#0A0A0A;stroke-width:2;stroke-miterlimit:10;}
	.st57{fill:#FF5F7D;stroke:#000000;stroke-miterlimit:10;}
	.st58{fill:#FFD258;stroke:#000000;stroke-miterlimit:10;}
	.st59{fill:#FF5F7D;stroke:#050505;stroke-width:0.75;stroke-miterlimit:10;}
	.st60{fill:#FEF0E1;stroke:#020202;stroke-width:0.75;stroke-miterlimit:10;}
	.st61{fill:#FF5F7D;stroke:#050505;stroke-width:0.25;stroke-miterlimit:10;}
	.st62{fill:#FFD258;stroke:#0A0A0A;stroke-width:0.75;stroke-miterlimit:10;}
	.st63{fill:#73B7A4;stroke:#020202;stroke-width:0.25;stroke-miterlimit:10;}
	.st64{fill:#FBCEC6;stroke:#020202;stroke-miterlimit:10;}
	.st65{fill:#73B7A4;stroke:#020202;stroke-width:0.75;stroke-miterlimit:10;}
	.st66{fill:#73B7A4;stroke:#070707;stroke-miterlimit:10;}
	.st67{fill:#FFFBF2;stroke:#070707;stroke-miterlimit:10;}
	.st68{fill:#E2B139;}
	.st69{fill:#FFFBF2;stroke:#020202;stroke-miterlimit:10;}
	.st70{fill:#ADCCFF;stroke:#020202;stroke-width:0.75;stroke-miterlimit:10;}
	.st71{fill:#FFFBF2;stroke:#020202;stroke-width:0.75;stroke-miterlimit:10;}
	.st72{fill:#FFD258;stroke:#050505;stroke-width:0.75;stroke-miterlimit:10;}
	.st73{fill:#FBCEC6;stroke:#020202;stroke-width:0.75;stroke-miterlimit:10;}
	.st74{fill:#73B7A4;stroke:#050505;stroke-miterlimit:10;}
	.st75{fill:#73B7A4;stroke:#050505;stroke-width:0.75;stroke-miterlimit:10;}
	.st76{fill:#E2C2A6;}
	.st77{fill:#DBC69E;}
	.st78{fill:#D39C94;}
	.st79{fill:#E0B344;}
	.st80{fill:#E0AE32;}
	.st81{fill:#4F9982;}
	.st82{fill:#DDBA9B;}
	.st83{fill:#FF5F7D;stroke:#000000;stroke-width:0.75;stroke-miterlimit:10;}
	.st84{fill:#FFD258;stroke:#000000;stroke-width:0.75;stroke-miterlimit:10;}
	.st85{fill:none;stroke:#000000;stroke-width:0.5;stroke-miterlimit:10;}
	.st86{opacity:0.43;fill:#7F3B48;}
	.st87{opacity:0.88;fill:#98BFFF;}
	.st88{opacity:0.75;fill:#FFFBF2;}
	.st89{opacity:0.88;fill:#719BD8;}
	.st90{opacity:0.75;fill:#EAD9B7;}
	.st91{fill:#FEF0E1;}
	.st92{fill:none;stroke:#070707;stroke-miterlimit:10;}
	.st93{fill:#C1962B;}
	.st94{fill:#D6B154;}
	.st95{fill:#5DA08B;}
	.st96{fill:#C6961E;}
</style>
<rect x="-0.9" y="5.2" class="st0" width="697.3" height="477.8"/>
<g id="_x30_n0l7e.tif">
	<g>
		<path class="st72" d="M284.3,241.5c1.3-29.7,39.3-58.6,78-59.7c38.7-1.2,78.1,27.5,81.6,59.7C390.7,241.5,337.5,241.5,284.3,241.5
			z M328.5,208.5c-7.4,1-16.3,10.1-16.1,14.9C317.1,219,323.2,213.4,328.5,208.5z"/>
		<path class="st73" d="M392,300.2c-11.8,0-22.4,0-33,0c0,1,0,2,0,2.9c7.2,0,14.3,0,21.5,0c6.9,0,13.3,1.4,19.8-4.2
			c6.8-5.9,15.8-9.5,24.2-13.2c3.4-1.5,7.8-0.9,11.8-1.2c0.2,0.8,0.5,1.7,0.7,2.5c-1.6,1.4-3.1,3-4.8,4.2
			c-13.7,9.5-27.6,19-41.3,28.5c-9.5,6.6-19.8,8.9-31.2,6.4c-6.2-1.4-12.6-1.9-18.7-3.6c-10.7-3-20.4-2-29.1,5.4
			c-1.4,1.2-3.3,1.9-5.8,3.2c-3.6-11.3-6.9-21.9-10.9-34.7c10.4-5,20.6-10.3,31.2-14.5c3.4-1.3,8.5-0.9,11.8,0.8
			c12.2,6,25.1,5.7,38.1,5.6C383.2,288.2,389.2,290.1,392,300.2z"/>
		<path class="st72" d="M279.1,260.7c56.7,0,112.9,0,169,0c1.2,11.1-0.6,13.5-10.8,13.5c-49,0.1-98,0.1-147,0
			C280.4,274.2,279.1,272.5,279.1,260.7z"/>
		<path class="st72" d="M363.7,256.1c-28,0-56,0-83.9,0c-2.6,0-5.4,0.4-7.7-0.5c-1.7-0.7-3.5-3-3.8-4.8c-0.2-1.2,1.9-3.4,3.4-4.1
			c2-0.8,4.5-0.7,6.8-0.7c57.1,0,114.2,0,171.3,0c1.7,0,3.8-0.4,5.1,0.3c2,1.2,3.4,3.3,5.1,5c-1.8,1.6-3.5,4.3-5.5,4.5
			c-5.7,0.6-11.5,0.3-17.3,0.3C412.7,256.1,388.2,256.1,363.7,256.1z"/>
		<path class="st73" d="M260.3,293.9c9.5,0,17.5-0.1,25.5,0.1c1.7,0.1,4.3,1.3,4.7,2.5c5.7,17.7,11.1,35.5,17,54.5
			c-10.2,0-19.1,0.2-27.9-0.2c-1.6-0.1-3.9-2.3-4.4-3.9C270.2,329.9,265.5,312.7,260.3,293.9z M297.7,341c-5.1-3.4-7.9-6.6-10.6-6.6
			c-2.3,0-6.7,4.2-6.4,5.9c0.5,2.8,3.7,6.7,6.3,7.1C289.4,347.8,292.5,344.3,297.7,341z"/>
		<path class="st72" d="M363.5,166.5c-6.5-0.2-11.4-5.3-10.9-11.7c0.6-6.8,4.7-10.3,11.3-10.6c6.2-0.3,11.6,5.4,11.5,11.4
			C375.3,161.8,369.9,166.8,363.5,166.5z"/>
		<path class="st73" d="M394.8,296.6c0-3.5-0.6-6.8,0.1-7.1c6.9-2.8,12.5-10.6,23.5-6.1C410.4,287.9,403.7,291.6,394.8,296.6z"/>
		<path class="st24" d="M328.5,208.5c-5.3,4.9-11.4,10.5-16.1,14.9C312.2,218.6,321.1,209.5,328.5,208.5z"/>
		<path class="st73" d="M297.7,341c-5.2,3.3-8.3,6.8-10.7,6.4c-2.6-0.4-5.8-4.3-6.3-7.1c-0.3-1.7,4.1-5.8,6.4-5.9
			C289.8,334.4,292.6,337.6,297.7,341z"/>
	</g>
</g>
</svg>
