<?xml version="1.0" encoding="utf-8"?>
<!-- Generator: Adobe Illustrator 22.1.0, SVG Export Plug-In . SVG Version: 6.00 Build 0)  -->
<svg version="1.1" id="Calque_1" xmlns="http://www.w3.org/2000/svg" xmlns:xlink="http://www.w3.org/1999/xlink" x="0px" y="0px"
	 viewBox="0 0 700 480" style="enable-background:new 0 0 700 480;" xml:space="preserve">
<style type="text/css">
	.st0{fill:#DAECFF;}
	.st1{fill:#FFD258;}
	.st2{fill:#FBCEC6;}
	.st3{fill:#ADCCFF;}
	.st4{fill:#FF5F7D;}
	.st5{fill:none;stroke:#000000;stroke-width:2;stroke-miterlimit:10;}
	.st6{fill:#FFFBF2;}
	.st7{fill:#73B7A4;}
	.st8{fill:none;stroke:#000000;stroke-miterlimit:10;}
	.st9{fill:#98BFFF;}
	.st10{fill:#FFD258;stroke:#000000;stroke-width:2;stroke-miterlimit:10;}
	.st11{fill:#FEF0E1;stroke:#070707;stroke-miterlimit:10;}
	.st12{fill:#D3A533;}
	.st13{fill:#FFB5C0;stroke:#020202;stroke-miterlimit:10;}
	.st14{fill:#FF8E9E;}
	.st15{fill:#FF8E9E;stroke:#000000;stroke-miterlimit:10;}
	.st16{fill:#EA5B70;}
	.st17{fill:#020202;}
	.st18{fill:#FFD258;stroke:#050505;stroke-width:0.5;stroke-miterlimit:10;}
	.st19{fill:#FEF0E1;stroke:#020202;stroke-width:0.5;stroke-miterlimit:10;}
	.st20{fill:#DDB143;}
	.st21{fill:#D6AF8B;}
	.st22{fill:#FFFBF2;stroke:#020202;stroke-width:2;stroke-miterlimit:10;}
	.st23{fill:#FF5F7D;stroke:#020202;stroke-width:2;stroke-miterlimit:10;}
	.st24{fill:#FFFFFF;}
	.st25{fill:#ADCCFF;stroke:#020202;stroke-width:2;stroke-miterlimit:10;}
	.st26{fill:#FFD258;stroke:#050505;stroke-width:2;stroke-miterlimit:10;}
	.st27{fill:#85AAE0;}
	.st28{fill:#C99E32;}
	.st29{fill:#FFCF47;stroke:#020202;stroke-miterlimit:10;}
	.st30{fill:#FF5F7D;stroke:#050505;stroke-width:2;stroke-miterlimit:10;}
	.st31{fill:#F36B7F;stroke:#000000;stroke-miterlimit:10;}
	.st32{fill:#DBA92C;}
	.st33{fill:#73B7A4;stroke:#020202;stroke-width:2;stroke-miterlimit:10;}
	.st34{fill:#FFCF47;stroke:#020202;stroke-width:2;stroke-miterlimit:10;}
	.st35{fill:#99C6B8;}
	.st36{fill:#E2B23B;}
	.st37{fill:#C11A3E;}
	.st38{fill:#FEF0E1;stroke:#020202;stroke-miterlimit:10;}
	.st39{fill:#ADCCFF;stroke:#020202;stroke-miterlimit:10;}
	.st40{fill:#FFD258;stroke:#0C0C0C;stroke-width:0.75;stroke-miterlimit:10;}
	.st41{fill:#ADCCFF;stroke:#050505;stroke-width:2;stroke-miterlimit:10;}
	.st42{fill:#73B7A4;stroke:#050505;stroke-width:2;stroke-miterlimit:10;}
	.st43{fill:#FFFBF2;stroke:#050505;stroke-width:2;stroke-miterlimit:10;}
	.st44{fill:#FEF0E1;stroke:#020202;stroke-width:2;stroke-miterlimit:10;}
	.st45{fill:#D8A830;}
	.st46{fill:#FF5F7D;stroke:#050505;stroke-miterlimit:10;}
	.st47{fill:#73B7A4;stroke:#020202;stroke-miterlimit:10;}
	.st48{fill:#E8D2BF;}
	.st49{fill:#FFD258;stroke:#0A0A0A;stroke-width:2;stroke-miterlimit:10;}
	.st50{fill:#D8AB3A;}
	.st51{fill:#FFD258;stroke:#050505;stroke-miterlimit:10;}
	.st52{fill:#FBCEC6;stroke:#070707;stroke-miterlimit:10;}
	.st53{fill:#D84161;}
	.st54{fill:#FFD258;stroke:#0A0A0A;stroke-miterlimit:10;}
	.st55{fill:#FFD258;stroke:#0A0A0A;stroke-width:3;stroke-miterlimit:10;}
	.st56{fill:none;stroke:#0A0A0A;stroke-width:2;stroke-miterlimit:10;}
	.st57{fill:#FF5F7D;stroke:#000000;stroke-miterlimit:10;}
	.st58{fill:#FFD258;stroke:#000000;stroke-miterlimit:10;}
	.st59{fill:#FF5F7D;stroke:#050505;stroke-width:0.75;stroke-miterlimit:10;}
	.st60{fill:#FEF0E1;stroke:#020202;stroke-width:0.75;stroke-miterlimit:10;}
	.st61{fill:#FF5F7D;stroke:#050505;stroke-width:0.25;stroke-miterlimit:10;}
	.st62{fill:#FFD258;stroke:#0A0A0A;stroke-width:0.75;stroke-miterlimit:10;}
	.st63{fill:#73B7A4;stroke:#020202;stroke-width:0.25;stroke-miterlimit:10;}
	.st64{fill:#FBCEC6;stroke:#020202;stroke-miterlimit:10;}
	.st65{fill:#73B7A4;stroke:#020202;stroke-width:0.75;stroke-miterlimit:10;}
	.st66{fill:#73B7A4;stroke:#070707;stroke-miterlimit:10;}
	.st67{fill:#FFFBF2;stroke:#070707;stroke-miterlimit:10;}
	.st68{fill:#E2B139;}
	.st69{fill:#FFFBF2;stroke:#020202;stroke-miterlimit:10;}
	.st70{fill:#ADCCFF;stroke:#020202;stroke-width:0.75;stroke-miterlimit:10;}
	.st71{fill:#FFFBF2;stroke:#020202;stroke-width:0.75;stroke-miterlimit:10;}
	.st72{fill:#FFD258;stroke:#050505;stroke-width:0.75;stroke-miterlimit:10;}
	.st73{fill:#FBCEC6;stroke:#020202;stroke-width:0.75;stroke-miterlimit:10;}
	.st74{fill:#73B7A4;stroke:#050505;stroke-miterlimit:10;}
	.st75{fill:#73B7A4;stroke:#050505;stroke-width:0.75;stroke-miterlimit:10;}
	.st76{fill:#E2C2A6;}
	.st77{fill:#DBC69E;}
	.st78{fill:#D39C94;}
	.st79{fill:#E0B344;}
	.st80{fill:#E0AE32;}
	.st81{fill:#4F9982;}
	.st82{fill:#DDBA9B;}
	.st83{fill:#FF5F7D;stroke:#000000;stroke-width:0.75;stroke-miterlimit:10;}
	.st84{fill:#FFD258;stroke:#000000;stroke-width:0.75;stroke-miterlimit:10;}
	.st85{fill:none;stroke:#000000;stroke-width:0.5;stroke-miterlimit:10;}
	.st86{opacity:0.43;fill:#7F3B48;}
	.st87{opacity:0.88;fill:#98BFFF;}
	.st88{opacity:0.75;fill:#FFFBF2;}
	.st89{opacity:0.88;fill:#719BD8;}
	.st90{opacity:0.75;fill:#EAD9B7;}
	.st91{fill:#FEF0E1;}
	.st92{fill:none;stroke:#070707;stroke-miterlimit:10;}
	.st93{fill:#C1962B;}
	.st94{fill:#D6B154;}
	.st95{fill:#5DA08B;}
	.st96{fill:#C6961E;}
</style>
<rect x="-0.2" y="-2" class="st0" width="699.7" height="480"/>
<g id="WUhtFa.tif">
	<g>
		<path class="st62" d="M293.6,182.1c54.2,0,108.2,0,162.5,0c0-3.7,0-7.3,0-11c1.8,0,3.4,0,5,0c3.4-0.1,5.8-2.3,5.7-5.4
			c0-3-2.4-5.3-5.6-5.3c-57.6,0-115.1,0-172.7,0c-3.2,0-5.6,2.3-5.7,5.3c-0.1,3.1,2.3,5.4,5.7,5.4c1.6,0,3.2,0,5,0
			C293.6,174.9,293.6,178.4,293.6,182.1z M423.2,225.3c0-10.8,0-21.4,0-32.1c-32.3,0-64.5,0-96.7,0c0,10.8,0,21.4,0,32.1
			C358.8,225.3,391,225.3,423.2,225.3z"/>
		<path class="st62" d="M293.6,193.2c7.5,0,14.6,0,22,0c0,0.9,0,1.7,0,2.6c0,11.3,0,22.6,0,33.9c0,4.6,2,6.6,6.5,6.6
			c35.2,0,70.5,0,105.7,0c4.2,0,6.3-2.1,6.3-6.3c0-11.4,0-22.9,0-34.3c0-0.7,0-1.5,0-2.4c7.4,0,14.6,0,22,0c0,1,0,1.9,0,2.7
			c0,40.1,0,80.2,0,120.3c0,3.4,0.3,6.8,0.9,10.2c0.3,1.9,1.3,3.7,2.3,5.4c0.5,0.8,1.8,1.5,2.8,1.7c3.1,0.7,5.1,3.4,4.6,6.3
			c-0.6,3-3.6,5-6.6,4.4c-5.1-1-8.8-3.9-11-8.5c-1.5-3.1-2.2-6.6-3.2-9.9c-0.3-0.9-0.3-1.9-0.5-3c-0.8,0-1.5-0.1-2.3-0.1
			c-45.4,0-90.9,0-136.3,0c-2.1,0-2.7,0.6-3,2.6c-0.9,6.1-2.6,11.9-7.8,15.8c-2,1.5-4.6,2.5-7,3.1c-2.9,0.7-5.6-1.6-6.1-4.5
			c-0.4-2.6,1.4-5.6,4.1-5.9c2.4-0.3,3.9-1.8,4.4-3.8c1-3.7,2-7.6,2-11.4c0.2-15.1,0.1-30.3,0.1-45.4c0-26,0-52,0-78
			C293.6,194.6,293.6,194,293.6,193.2z M374.9,247c-17.7,0-35.3,0-53,0c-4.3,0-6.3,2-6.3,6.3c0,13.8,0,27.5,0,41.3
			c0,4.3,2,6.3,6.3,6.3c35.4,0,70.8,0,106.1,0c4,0,6.1-2.1,6.1-6.1c0-13.8,0-27.5,0-41.3c0-4.6-1.9-6.5-6.5-6.5
			C410,247,392.4,247,374.9,247z"/>
		<path class="st62" d="M293.6,182.1c0-3.7,0-7.2,0-11c-1.8,0-3.4,0-5,0c-3.4-0.1-5.8-2.3-5.7-5.4c0.1-3,2.4-5.3,5.7-5.3
			c57.6,0,115.1,0,172.7,0c3.3,0,5.6,2.3,5.6,5.3c0,3.1-2.3,5.4-5.7,5.4c-1.6,0-3.1,0-5,0c0,3.7,0,7.3,0,11
			C401.9,182.1,347.8,182.1,293.6,182.1z"/>
		<path class="st62" d="M423.2,225.3c-32.3,0-64.4,0-96.7,0c0-10.7,0-21.3,0-32.1c32.2,0,64.4,0,96.7,0
			C423.2,203.8,423.2,214.4,423.2,225.3z M374.9,203.9c-3,0-5.3,2.4-5.4,5.3c0,3,2.4,5.3,5.3,5.4c3,0,5.3-2.4,5.4-5.3
			C380.2,206.3,377.8,203.9,374.9,203.9z"/>
		<path class="st64" d="M374.9,203.9c3,0,5.3,2.4,5.3,5.4c0,3-2.4,5.3-5.4,5.3c-3,0-5.3-2.4-5.3-5.4
			C369.5,206.2,371.9,203.9,374.9,203.9z"/>
		<path class="st62" d="M423.2,257.8c0,10.8,0,21.4,0,32.2c-32.3,0-64.5,0-96.8,0c0-10.7,0-21.4,0-32.2
			C358.7,257.8,390.9,257.8,423.2,257.8z M380.2,274c0-2.9-2.3-5.4-5.2-5.5c-2.9-0.1-5.4,2.3-5.5,5.2c-0.1,3,2.3,5.6,5.3,5.6
			C377.7,279.3,380.2,276.9,380.2,274z"/>
		<path class="st64" d="M380.2,274c0,2.9-2.5,5.3-5.4,5.3c-3,0-5.4-2.6-5.3-5.6c0.1-2.9,2.6-5.3,5.5-5.2
			C377.9,268.6,380.2,271,380.2,274z"/>
		<path class="st68" d="M462.2,333.6c-1-0.2-2.3-0.9-2.8-1.7c-1-1.6-2-3.5-2.3-5.4c-0.6-3.4-0.9-6.8-0.9-10.2c0-29.4,0-58.9,0-88.3
			c-8.4,6.3-16.4,13.1-24,20.2c1.4,1,2,2.7,2,5.4c0,13.8,0,27.5,0,41.3c0,4-2,6.1-6.1,6.1c-15.1,0-30.2,0-45.2,0
			c-6.2,7.3-12.4,14.7-18.6,22c26.3,0,52.7,0,79,0c0.7,0,1.5,0.1,2.3,0.1c0.2,1.1,0.2,2.1,0.5,3c1,3.3,1.8,6.8,3.2,9.9
			c2.1,4.6,5.9,7.5,11,8.5c3.1,0.6,6.1-1.4,6.6-4.4C467.3,336.9,465.3,334.3,462.2,333.6z"/>
	</g>
</g>
</svg>
