<?xml version="1.0" encoding="utf-8"?>
<!-- Generator: Adobe Illustrator 22.1.0, SVG Export Plug-In . SVG Version: 6.00 Build 0)  -->
<svg version="1.1" id="Calque_1" xmlns="http://www.w3.org/2000/svg" xmlns:xlink="http://www.w3.org/1999/xlink" x="0px" y="0px"
	 viewBox="0 0 700 480" style="enable-background:new 0 0 700 480;" xml:space="preserve">
<style type="text/css">
	.st0{fill:#DAECFF;}
	.st1{fill:#FFD258;}
	.st2{fill:#FBCEC6;}
	.st3{fill:#ADCCFF;}
	.st4{fill:#FF5F7D;}
	.st5{fill:none;stroke:#000000;stroke-width:2;stroke-miterlimit:10;}
	.st6{fill:#FFFBF2;}
	.st7{fill:#73B7A4;}
	.st8{fill:none;stroke:#000000;stroke-miterlimit:10;}
	.st9{fill:#98BFFF;}
	.st10{fill:#FFD258;stroke:#000000;stroke-width:2;stroke-miterlimit:10;}
	.st11{fill:#FEF0E1;stroke:#070707;stroke-miterlimit:10;}
	.st12{fill:#D3A533;}
	.st13{fill:#FFB5C0;stroke:#020202;stroke-miterlimit:10;}
	.st14{fill:#FF8E9E;}
	.st15{fill:#FF8E9E;stroke:#000000;stroke-miterlimit:10;}
	.st16{fill:#EA5B70;}
	.st17{fill:#020202;}
	.st18{fill:#FFD258;stroke:#050505;stroke-width:0.5;stroke-miterlimit:10;}
	.st19{fill:#FEF0E1;stroke:#020202;stroke-width:0.5;stroke-miterlimit:10;}
	.st20{fill:#DDB143;}
	.st21{fill:#D6AF8B;}
	.st22{fill:#FFFBF2;stroke:#020202;stroke-width:2;stroke-miterlimit:10;}
	.st23{fill:#FF5F7D;stroke:#020202;stroke-width:2;stroke-miterlimit:10;}
	.st24{fill:#FFFFFF;}
	.st25{fill:#ADCCFF;stroke:#020202;stroke-width:2;stroke-miterlimit:10;}
	.st26{fill:#FFD258;stroke:#050505;stroke-width:2;stroke-miterlimit:10;}
	.st27{fill:#85AAE0;}
	.st28{fill:#C99E32;}
	.st29{fill:#FFCF47;stroke:#020202;stroke-miterlimit:10;}
	.st30{fill:#FF5F7D;stroke:#050505;stroke-width:2;stroke-miterlimit:10;}
	.st31{fill:#F36B7F;stroke:#000000;stroke-miterlimit:10;}
	.st32{fill:#DBA92C;}
	.st33{fill:#73B7A4;stroke:#020202;stroke-width:2;stroke-miterlimit:10;}
	.st34{fill:#FFCF47;stroke:#020202;stroke-width:2;stroke-miterlimit:10;}
	.st35{fill:#99C6B8;}
	.st36{fill:#E2B23B;}
	.st37{fill:#C11A3E;}
	.st38{fill:#FEF0E1;stroke:#020202;stroke-miterlimit:10;}
	.st39{fill:#ADCCFF;stroke:#020202;stroke-miterlimit:10;}
	.st40{fill:#FFD258;stroke:#0C0C0C;stroke-width:0.75;stroke-miterlimit:10;}
	.st41{fill:#ADCCFF;stroke:#050505;stroke-width:2;stroke-miterlimit:10;}
	.st42{fill:#73B7A4;stroke:#050505;stroke-width:2;stroke-miterlimit:10;}
	.st43{fill:#FFFBF2;stroke:#050505;stroke-width:2;stroke-miterlimit:10;}
	.st44{fill:#FEF0E1;stroke:#020202;stroke-width:2;stroke-miterlimit:10;}
	.st45{fill:#D8A830;}
	.st46{fill:#FF5F7D;stroke:#050505;stroke-miterlimit:10;}
	.st47{fill:#73B7A4;stroke:#020202;stroke-miterlimit:10;}
	.st48{fill:#E8D2BF;}
	.st49{fill:#FFD258;stroke:#0A0A0A;stroke-width:2;stroke-miterlimit:10;}
	.st50{fill:#D8AB3A;}
	.st51{fill:#FFD258;stroke:#050505;stroke-miterlimit:10;}
	.st52{fill:#FBCEC6;stroke:#070707;stroke-miterlimit:10;}
	.st53{fill:#D84161;}
	.st54{fill:#FFD258;stroke:#0A0A0A;stroke-miterlimit:10;}
	.st55{fill:#FFD258;stroke:#0A0A0A;stroke-width:3;stroke-miterlimit:10;}
	.st56{fill:none;stroke:#0A0A0A;stroke-width:2;stroke-miterlimit:10;}
	.st57{fill:#FF5F7D;stroke:#000000;stroke-miterlimit:10;}
	.st58{fill:#FFD258;stroke:#000000;stroke-miterlimit:10;}
	.st59{fill:#FF5F7D;stroke:#050505;stroke-width:0.75;stroke-miterlimit:10;}
	.st60{fill:#FEF0E1;stroke:#020202;stroke-width:0.75;stroke-miterlimit:10;}
	.st61{fill:#FF5F7D;stroke:#050505;stroke-width:0.25;stroke-miterlimit:10;}
	.st62{fill:#FFD258;stroke:#0A0A0A;stroke-width:0.75;stroke-miterlimit:10;}
	.st63{fill:#73B7A4;stroke:#020202;stroke-width:0.25;stroke-miterlimit:10;}
	.st64{fill:#FBCEC6;stroke:#020202;stroke-miterlimit:10;}
	.st65{fill:#73B7A4;stroke:#020202;stroke-width:0.75;stroke-miterlimit:10;}
	.st66{fill:#73B7A4;stroke:#070707;stroke-miterlimit:10;}
	.st67{fill:#FFFBF2;stroke:#070707;stroke-miterlimit:10;}
	.st68{fill:#E2B139;}
	.st69{fill:#FFFBF2;stroke:#020202;stroke-miterlimit:10;}
	.st70{fill:#ADCCFF;stroke:#020202;stroke-width:0.75;stroke-miterlimit:10;}
	.st71{fill:#FFFBF2;stroke:#020202;stroke-width:0.75;stroke-miterlimit:10;}
	.st72{fill:#FFD258;stroke:#050505;stroke-width:0.75;stroke-miterlimit:10;}
	.st73{fill:#FBCEC6;stroke:#020202;stroke-width:0.75;stroke-miterlimit:10;}
	.st74{fill:#73B7A4;stroke:#050505;stroke-miterlimit:10;}
	.st75{fill:#73B7A4;stroke:#050505;stroke-width:0.75;stroke-miterlimit:10;}
	.st76{fill:#E2C2A6;}
	.st77{fill:#DBC69E;}
	.st78{fill:#D39C94;}
	.st79{fill:#E0B344;}
	.st80{fill:#E0AE32;}
	.st81{fill:#4F9982;}
	.st82{fill:#DDBA9B;}
	.st83{fill:#FF5F7D;stroke:#000000;stroke-width:0.75;stroke-miterlimit:10;}
	.st84{fill:#FFD258;stroke:#000000;stroke-width:0.75;stroke-miterlimit:10;}
	.st85{fill:none;stroke:#000000;stroke-width:0.5;stroke-miterlimit:10;}
	.st86{opacity:0.43;fill:#7F3B48;}
	.st87{opacity:0.88;fill:#98BFFF;}
	.st88{opacity:0.75;fill:#FFFBF2;}
	.st89{opacity:0.88;fill:#719BD8;}
	.st90{opacity:0.75;fill:#EAD9B7;}
	.st91{fill:#FEF0E1;}
	.st92{fill:none;stroke:#070707;stroke-miterlimit:10;}
	.st93{fill:#C1962B;}
	.st94{fill:#D6B154;}
	.st95{fill:#5DA08B;}
	.st96{fill:#C6961E;}
</style>
<rect x="-2.5" y="-0.6" class="st1" width="703.1" height="476.3"/>
<path class="st5" d="M405.4,248.8c0,0,0,9.4,0,24.1c0,1,0,2.1,0,3.2c0,0.4,0,0.8,0,1.3s0,1.1,0,2c0-0.1,0,0.7,0,2
	c0,0.1-0.1-0.1,0,1.5c0,1.9,0.1,3.7,0,2.1c-0.1-0.7,0.1,2,0,1.5c0.1,2.1,0,1.6,0,1.8c0,1.3,0,1.2,0,1.9c0.1,1.6,0,1.3,0,1.3
	c0,0.8,0,1,0,2.6c0,1.5,0,1.4,0,1.9c0,0.1,0,1.9,0,2.1c0,1.1,0,1.7,0,2c-0.1-1,0,1.6,0,2.1c0,0.6,0,1.6,0,1.9c0,0.7,0,0.6,0,2.3
	c0,0.4,0,1.5,0,1.9c0-0.2,0,1.3,0,2.3c0,0.8,0,1,0,1.8c-0.1-0.2,0,1.2,0,2.6c0,0.3,0,1.2,0,2.2c-0.1-1,0,1.2,0,2.2
	c0-0.1,0,0.9,0,2.4c-0.1-1-0.1,0.2,0,2.1c0,1.1,0,1.7,0,2.2c0,0,0,1.1,0,2.3c0,1.1,0,1.4,0,2.3c-0.1-0.4,0.1,3.2,0,2.2
	c0.2,3.8,0,0.4,0,1.3c0.1,1.8-0.1-1.2,0,1.2c0-0.4-0.1-1.7,0,0.5c0,1.4-0.1-0.3,0,1.6c0,1.3-0.1-1.4,0,1.2c0,1.5,0,1.2,0,1.2
	c0,0,0,0.9,0,1.2c0.1,2.8-0.1-0.7,0,1.1c0-0.4-0.1-0.4,0,0.7c0.1,1.9,0.1,1.7,0,1.7c0-1,0-0.1,0,1.1c0,1.1-0.1,0.4,0,1.1
	c0,0.3,0,1.5,0,1.2c-0.1-1.7,0-1.4,0,1.1c0-0.9,0.1,2.2,0,0.8c0,0.8,0.1,2.2,0,1.5c0,1.3,0,0.2,0,1.5c0,0.8,0,0.7,0,0.9
	c0-0.6,0,0.6,0,1.2c0,1.2,0,1.2,0,1c0,1,0,1.6,0,1.6c0,0.7,0,0.9,0,0.8c0,0.8,0,0.2,0,0.8c0,0.9,0-0.1,0,1.4c0,0.3,0,0.7,0,2
	c0-0.6,0-0.4,0,1.1c0,1,0,2.1,0,1.5c0,0.5,0-0.1,0,0.7c0,1.4,0,1.6,0,1.5c-0.1-0.7,0,1.5,0,1.1c0-0.6,0,1,0,1.2
	c-0.1-2,0.1,2.5,0,0.8c0-0.3,0,1.4,0,1.5c0,0.4-0.1-0.7,0,0.7c0,0,0,1.4,0,1.4c0.1,2.6,0,0.9,0,2.1c-0.1-1.4,0,0.2,0,1.4
	c0,0.5,0-0.2,0,0.9c0-0.6-0.1-2.1,0,0.5c0.1,1.8-0.1-0.1,0,1.7c0.1,3.5,0,0.4,0,2.1c0,0.6,0,0.7,0,1.1c-0.1-0.6,0,1.7,0,1.2
	c0.1,2.5,0,2.5,0,2c0-0.4-0.1-0.1,0,1.6c-0.1-1.8,0,1.2,0,0.4c0,0.8,0-0.1,0,1c0,1.2,0,0.5,0,1.2c0,1.9,0,1.6,0,2.1
	c0.1,2.6,0,1.1,0,1.5c0,1.4,0.1,1.9,0,0.5c0.1,0.6-0.1-1.1,0,1.8c0.1,3.4,0.1,2.7,0,0.8c0,0.1,0,0,0,1.4c0,1.5,0-1.1,0,1.9
	c0.1,2.9,0,1,0,2c0,1.3,0,1.5,0,1.9c-0.1-1.7-0.1-1.5,0-0.1c0,3.3,0,1.8,0,1.9c0.1,3.6-0.1,0.8,0,1.9c0.1,1.9,0,0,0,0.3
	c-0.1-1.1-0.1,0,0,1.4c0,0.7,0,0.3,0,1.7c0,0.9,0,0.4,0,0.4c0,1.7,0-0.1,0,1.4c-0.1-1.3,0,2.6,0,2c0,0.8,0,1.4,0,1.4
	c-0.1-0.7,0,0.7,0,2c0,0.5,0,0.6,0,1.2c0.1,1.7-0.1,0.9,0,1.6c0.1,0.8-0.1-1.2,0,1.5c0.1,1.1,0.1,3.1,0,1.6c0,0-0.1-0.1,0,1.3
	c0-1.4-0.1,0.6,0,1.4c0,0.6,0,1.6,0,1.3c0,0.3,0.1,2.9,0,1.2c0.1,3.5,0,1.3,0,1.3c0,1.9,0,0.8,0,1.1c-0.2-2.4,0,0.3,0,1.2
	c-0.1-0.8,0,1.2,0,0.7c-0.1-3,0-0.6,0,0.1c0-0.4,0,1.2,0,1.3c-0.1-1.1,0,1,0,0.9c0,0.9,0-1.2,0,1c0,1.6,0-0.4,0,1
	c-0.1-1.7,0,2.4,0,0.7c0.1,2,0,0.5,0,1.4c0,0.5,0,2.2,0,1.2c0,0-0.1-1.3,0,1c0-0.1,0,1.3,0,0.7c0,1.1,0,0.6,0,0.4c0,0.8,0-2.1,0,0.1
	"/>
<path class="st7" d="M405.4,328.1h-44.2c-0.2,0.4-0.4,0.9-0.6,1.6c-2.2,6.7,0.5,12.9,0.6,13.2c2,4.2,6.3,8.8,11.8,9.6
	c5.6,0.8,9.9-2.5,17-8.1C394,341.1,399.8,335.9,405.4,328.1z"/>
<path class="st7" d="M405.4,328.1h44.2c0.2,0.4,0.4,0.9,0.6,1.6c2.2,6.7-0.5,12.9-0.6,13.2c-2,4.2-6.3,8.8-11.8,9.6
	c-5.6,0.8-9.9-2.5-17-8.1C416.7,341.1,411,335.9,405.4,328.1z"/>
<path class="st7" d="M405.4,328.1h44.2c0.2-0.4,0.4-0.9,0.6-1.6c2.2-6.7-0.5-12.9-0.6-13.2c-2-4.2-6.3-8.8-11.8-9.6
	c-5.6-0.8-9.9,2.5-17,8.1C416.7,315.1,411,320.3,405.4,328.1z"/>
<path class="st7" d="M405.4,328.1h-44.2c-0.2-0.4-0.4-0.9-0.6-1.6c-2.2-6.7,0.5-12.9,0.6-13.2c2-4.2,6.3-8.8,11.8-9.6
	c5.6-0.8,9.9,2.5,17,8.1C394,315.1,399.8,320.3,405.4,328.1z"/>
<path class="st4" d="M420.3,258.7c2.2,10.2-6.6,25-15.5,24.8c-8.6-0.2-16.3-14.5-14.4-24.8c0.9-4.8,3.2-5,7.2-12.9
	c6.3-12.3,6-22.2,7.7-22.1c1.7,0.1,0.2,9.4,5.6,20.3C415.1,252.6,419,252.9,420.3,258.7z"/>
<g id="o35P5Y.tif">
	<g>
		<path class="st66" d="M249.2,312.6c4.2-2.6,8.8-4.8,12.6-8c15.2-12.6,28.4-12.5,42.9,0.8c5.4,4.9,5.4,4.9,13.2,5.7
			c0,2.5,0,5,0,7.9c-4.6-0.3-5.1,2.9-5.7,6.5c-2.5,15.1-5.4,30.1-7.9,45.3c-0.6,3.9-2,5.4-6.1,5.3c-10.2-0.3-20.4-0.3-30.6,0
			c-3.9,0.1-5.2-1.4-5.9-4.9c-2.7-15.3-5.5-30.5-8.3-45.8c-0.5-2.6-0.2-5.5-4.2-6.4c-1.2-0.3-1.5-4.6-2.3-7.1
			C247.7,312.1,248.4,312.3,249.2,312.6z M290.4,369.3c1.7-16.1,3.4-32.5,5.2-49.4c-8.8,0-16.8,0-25.3,0c0.1,2.3,0.1,4.4,0.3,6.4
			c1.1,10.5,2.2,21.1,3.3,31.6c1.4,13.6,1.4,13.6,15.3,12C289.4,369.8,289.6,369.7,290.4,369.3z M296.3,369.4
			c0.6,0.1,1.3,0.1,1.9,0.2c3.1-16.5,6.2-32.9,9.2-49.2c-4.1-1.5-6-0.6-6.2,3c-0.2,2.6-0.5,5.3-0.8,7.9
			C299,343.9,297.6,356.7,296.3,369.4z M267.4,369.7c0.6-0.1,1.2-0.2,1.8-0.3c-1.6-15.7-3-31.5-4.9-47.2c-0.1-1.2-3-2-4.6-3
			c-0.4,0.5-0.8,0.9-1.1,1.4C261.6,337,264.5,353.3,267.4,369.7z"/>
	</g>
</g>
<line class="st5" x1="282.4" y1="380.1" x2="282.4" y2="445.2"/>
<path class="st5" d="M286,115.1c0,0,0-0.1,0.1,0.2c0-0.3,0.1,0.9,0.2,0.6c0.1,0.3,0.2,1.5,0.3,1.1c0.1-0.8,0.3,1.6,0.4,1.5
	c0.2,0.1,0.3,0.7,0.5,1.8c0.2-0.4,0.4,1.8,0.6,2.2c0.2,1.6,0.5,0.7,0.7,2.6c0.3,1.2,0.5,2.7,0.8,2.9c0.3,0.9,0.6,1.1,0.9,3.3
	c0.3,1.3,0.7,2.7,1,3.6c0.4,0.8,0.7,1.8,1.1,3.9c0.4,0.8,0.8,3.5,1.2,4.2c0.4,1.1,0.8,1.9,1.3,4.5c0.4,1.6,0.9,3.1,1.3,4.7
	s0.9,3.3,1.4,5c0.3,1,0.6,2.4,0.9,3.1c0.3,0.8,0.6,1.5,0.9,3.2c0.3,2.2,0.6,2.2,0.9,3.3c0.3,2,0.6,1.9,1,3.4c0.3,0.5,0.6,3.1,1,3.4
	c0.3,2.1,0.7,3.1,1,3.5c0.3,1.2,0.7,2,1,3.6c0.3,0.7,0.7,2.9,1,3.7c0.3,1.8,0.7,1.7,1.1,3.7c0.4,1.2,0.7,2.4,1.1,3.8
	c0.4,1.3,0.7,2.5,1.1,3.9c0.4,1.3,0.7,2.6,1.1,3.9c0.4,1.3,0.7,2.7,1.1,4c0.4,1.3,0.8,2.8,1.1,4c0.4,1.5,0.8,2.7,1.2,4.1
	c0.4,1.2,0.8,2.5,1.2,4.1c0.4,1.2,0.8,2.8,1.2,4.2c0.4,1.5,0.8,2.9,1.2,4.2c0.4,1.5,0.8,2.9,1.2,4.2c0.4,1.7,0.8,1.5,1.2,4.3
	c0.4,1.6,0.8,2.9,1.2,4.3c0.4,0.6,0.8,3.5,1.2,4.3c0.4,1.5,0.8,3.2,1.2,4.4c0.4,1.6,0.8,2.9,1.2,4.4c0.4,2,0.8,3.1,1.2,4.4
	c0.4,1.5,0.8,3.1,1.3,4.4c0.4,1.6,0.8,2.6,1.3,4.4c0.4,1.7,0.8,3,1.3,4.4c0.4,1.5,0.8,3.2,1.3,4.5c0.4,1.1,0.8,2.9,1.3,4.5
	c0.4,1.3,0.8,2.6,1.3,4.5c0.4,1,0.8,3,1.3,4.5c0.4,0.5,0.8,1.5,1.3,4.5c0.4,1,0.8,2.1,1.3,4.5c0.4,1.5,0.8,2.7,1.3,4.5
	c0.4,1.7,0.8,3,1.3,4.4c0.4,1.8,0.8,2.9,1.3,4.4c0.4,1.3,0.8,2.9,1.3,4.4c0.4-0.3,0.8,3.7,1.2,4.4c0.4,0.2,0.8,2.3,1.2,4.4
	c0.4,0.3,0.8,3.2,1.2,4.4c0.4,1,0.8,2.9,1.2,4.3c0.4,1.6,0.8,2,1.2,4.3c0.4,0.4,0.8,2.8,1.2,4.3c0.4-0.5,0.8,2.8,1.2,4.2
	c0.4,0.1,0.8,2.5,1.2,4.2c0.4,2.6,0.8,3.2,1.2,4.2c0.4,1.2,0.8,2.5,1.2,4.1c0.4,1.2,0.8,2.3,1.2,4.1c0.4,1.7,0.8,2.7,1.1,4
	c0.4,1.4,0.8,3.4,1.1,4c0.4,1.1,0.7,2.4,1.1,3.9c0.4,0.4,0.7,2.4,1.1,3.9c0.4,2.4,0.7,1.6,1.1,3.8c0.4,1.2,0.7,1.3,1.1,3.7
	c0.3,1.3,0.7,2.7,1,3.7c0.3,1.8,0.7,1.9,1,3.6c0.3,0.8,0.7,3,1,3.5c0.3,1.8,0.7,3,1,3.4c0.3,1.1,0.6,2.1,1,3.4
	c0.3,1.4,0.6,2.2,0.9,3.3c0.3,2.7,0.6,2.2,0.9,3.2c0.3,1.1,0.6,0.4,0.9,3.1c0.3-0.1,0.6,1.7,0.9,3c0.3,0.3,0.6,2.4,0.8,2.9
	c0.3,0.5,0.5,1.4,0.8,2.8c0.3,1.8,0.5,1.9,0.8,2.8c0.3,1.3,0.5,0.3,0.8,2.7c0.2,1.6,0.5,1,0.7,2.6c0.2,0.2,0.5,1.2,0.7,2.4
	c0.2,2,0.4,1.9,0.7,2.3c0.2,2.6,0.4,2.5,0.6,2.2c0.2,1.1,0.4,1.1,0.6,2.1c0.2,0.9,0.4,1.3,0.6,2c0.2,0.9,0.4,1.5,0.5,1.9
	c0.2,0.9,0.3,1.8,0.5,1.8c0.2,1.1,0.3,0.6,0.5,1.6c0.1,0.4,0.3,1.4,0.4,1.5c0.1,0,0.3,0.9,0.4,1.4c0.1,0.5,0.2,0.8,0.4,1.2
	c0.1,0.5,0.2,0.6,0.3,1.1c0.1,1.1,0.2,0.8,0.3,1c0.1,0.7,0.2,0.7,0.2,0.8c0.1,1.4,0.1-0.1,0.2,0.7c0.1,0.1,0.1,0.6,0.2,0.5
	c0,0.4,0.1,1.4,0.1,0.4c0-0.4,0.1,1.1,0.1,0.2c0-0.3,0,0.9,0,0.1"/>
<circle class="st6" cx="312.5" cy="142.3" r="18.3"/>
<circle class="st6" cx="278.8" cy="155.7" r="18.3"/>
<circle class="st6" cx="324.7" cy="180.6" r="18.3"/>
<circle class="st6" cx="291" cy="193.9" r="18.3"/>
<path class="st9" d="M327.3,138c1.3,0.2,3,8.2-1,13.4c-2,2.6-5.3,4.3-6.1,3.6c-0.6-0.6,0.6-2.4,3.4-9
	C326.5,139.4,326.7,137.9,327.3,138z"/>
<path class="st9" d="M339.8,175.7c1.3,0.2,3,8.2-1,13.4c-2,2.6-5.3,4.3-6.1,3.6c-0.6-0.6,0.6-2.4,3.4-9
	C339.1,177,339.3,175.6,339.8,175.7z"/>
<path class="st9" d="M293.7,152.5c1.3,0.2,3,8.2-1,13.4c-2,2.6-5.3,4.3-6.1,3.6c-0.6-0.6,0.6-2.4,3.4-9
	C292.9,153.9,293.1,152.4,293.7,152.5z"/>
<path class="st9" d="M306.3,190.2c1.3,0.2,3,8.2-1,13.4c-2,2.6-5.3,4.3-6.1,3.6c-0.6-0.6,0.6-2.4,3.4-9
	C305.5,191.5,305.7,190.1,306.3,190.2z"/>
</svg>
