<?xml version="1.0" encoding="utf-8"?>
<!-- Generator: Adobe Illustrator 22.1.0, SVG Export Plug-In . SVG Version: 6.00 Build 0)  -->
<svg version="1.1" id="Calque_1" xmlns="http://www.w3.org/2000/svg" xmlns:xlink="http://www.w3.org/1999/xlink" x="0px" y="0px"
	 viewBox="0 0 700 480" style="enable-background:new 0 0 700 480;" xml:space="preserve">
<style type="text/css">
	.st0{fill:#DAECFF;}
	.st1{fill:#FFD258;}
	.st2{fill:#FBCEC6;}
	.st3{fill:#ADCCFF;}
	.st4{fill:#FF5F7D;}
	.st5{fill:none;stroke:#000000;stroke-width:2;stroke-miterlimit:10;}
	.st6{fill:#FFFBF2;}
	.st7{fill:#73B7A4;}
	.st8{fill:none;stroke:#000000;stroke-miterlimit:10;}
	.st9{fill:#98BFFF;}
	.st10{fill:#FFD258;stroke:#000000;stroke-width:2;stroke-miterlimit:10;}
	.st11{fill:#FEF0E1;stroke:#070707;stroke-miterlimit:10;}
	.st12{fill:#D3A533;}
	.st13{fill:#FFB5C0;stroke:#020202;stroke-miterlimit:10;}
	.st14{fill:#FF8E9E;}
	.st15{fill:#FF8E9E;stroke:#000000;stroke-miterlimit:10;}
	.st16{fill:#EA5B70;}
	.st17{fill:#020202;}
	.st18{fill:#FFD258;stroke:#050505;stroke-width:0.5;stroke-miterlimit:10;}
	.st19{fill:#FEF0E1;stroke:#020202;stroke-width:0.5;stroke-miterlimit:10;}
	.st20{fill:#DDB143;}
	.st21{fill:#D6AF8B;}
	.st22{fill:#FFFBF2;stroke:#020202;stroke-width:2;stroke-miterlimit:10;}
	.st23{fill:#FF5F7D;stroke:#020202;stroke-width:2;stroke-miterlimit:10;}
	.st24{fill:#FFFFFF;}
	.st25{fill:#ADCCFF;stroke:#020202;stroke-width:2;stroke-miterlimit:10;}
	.st26{fill:#FFD258;stroke:#050505;stroke-width:2;stroke-miterlimit:10;}
	.st27{fill:#85AAE0;}
	.st28{fill:#C99E32;}
	.st29{fill:#FFCF47;stroke:#020202;stroke-miterlimit:10;}
	.st30{fill:#FF5F7D;stroke:#050505;stroke-width:2;stroke-miterlimit:10;}
	.st31{fill:#F36B7F;stroke:#000000;stroke-miterlimit:10;}
	.st32{fill:#DBA92C;}
	.st33{fill:#73B7A4;stroke:#020202;stroke-width:2;stroke-miterlimit:10;}
	.st34{fill:#FFCF47;stroke:#020202;stroke-width:2;stroke-miterlimit:10;}
	.st35{fill:#99C6B8;}
	.st36{fill:#E2B23B;}
	.st37{fill:#C11A3E;}
	.st38{fill:#FEF0E1;stroke:#020202;stroke-miterlimit:10;}
	.st39{fill:#ADCCFF;stroke:#020202;stroke-miterlimit:10;}
	.st40{fill:#FFD258;stroke:#0C0C0C;stroke-width:0.75;stroke-miterlimit:10;}
	.st41{fill:#ADCCFF;stroke:#050505;stroke-width:2;stroke-miterlimit:10;}
	.st42{fill:#73B7A4;stroke:#050505;stroke-width:2;stroke-miterlimit:10;}
	.st43{fill:#FFFBF2;stroke:#050505;stroke-width:2;stroke-miterlimit:10;}
	.st44{fill:#FEF0E1;stroke:#020202;stroke-width:2;stroke-miterlimit:10;}
	.st45{fill:#D8A830;}
	.st46{fill:#FF5F7D;stroke:#050505;stroke-miterlimit:10;}
	.st47{fill:#73B7A4;stroke:#020202;stroke-miterlimit:10;}
	.st48{fill:#E8D2BF;}
	.st49{fill:#FFD258;stroke:#0A0A0A;stroke-width:2;stroke-miterlimit:10;}
	.st50{fill:#D8AB3A;}
	.st51{fill:#FFD258;stroke:#050505;stroke-miterlimit:10;}
	.st52{fill:#FBCEC6;stroke:#070707;stroke-miterlimit:10;}
	.st53{fill:#D84161;}
	.st54{fill:#FFD258;stroke:#0A0A0A;stroke-miterlimit:10;}
	.st55{fill:#FFD258;stroke:#0A0A0A;stroke-width:3;stroke-miterlimit:10;}
	.st56{fill:none;stroke:#0A0A0A;stroke-width:2;stroke-miterlimit:10;}
	.st57{fill:#FF5F7D;stroke:#000000;stroke-miterlimit:10;}
	.st58{fill:#FFD258;stroke:#000000;stroke-miterlimit:10;}
	.st59{fill:#FF5F7D;stroke:#050505;stroke-width:0.75;stroke-miterlimit:10;}
	.st60{fill:#FEF0E1;stroke:#020202;stroke-width:0.75;stroke-miterlimit:10;}
	.st61{fill:#FF5F7D;stroke:#050505;stroke-width:0.25;stroke-miterlimit:10;}
	.st62{fill:#FFD258;stroke:#0A0A0A;stroke-width:0.75;stroke-miterlimit:10;}
	.st63{fill:#73B7A4;stroke:#020202;stroke-width:0.25;stroke-miterlimit:10;}
	.st64{fill:#FBCEC6;stroke:#020202;stroke-miterlimit:10;}
	.st65{fill:#73B7A4;stroke:#020202;stroke-width:0.75;stroke-miterlimit:10;}
	.st66{fill:#73B7A4;stroke:#070707;stroke-miterlimit:10;}
	.st67{fill:#FFFBF2;stroke:#070707;stroke-miterlimit:10;}
	.st68{fill:#E2B139;}
	.st69{fill:#FFFBF2;stroke:#020202;stroke-miterlimit:10;}
	.st70{fill:#ADCCFF;stroke:#020202;stroke-width:0.75;stroke-miterlimit:10;}
	.st71{fill:#FFFBF2;stroke:#020202;stroke-width:0.75;stroke-miterlimit:10;}
	.st72{fill:#FFD258;stroke:#050505;stroke-width:0.75;stroke-miterlimit:10;}
	.st73{fill:#FBCEC6;stroke:#020202;stroke-width:0.75;stroke-miterlimit:10;}
	.st74{fill:#73B7A4;stroke:#050505;stroke-miterlimit:10;}
	.st75{fill:#73B7A4;stroke:#050505;stroke-width:0.75;stroke-miterlimit:10;}
	.st76{fill:#E2C2A6;}
	.st77{fill:#DBC69E;}
	.st78{fill:#D39C94;}
	.st79{fill:#E0B344;}
	.st80{fill:#E0AE32;}
	.st81{fill:#4F9982;}
	.st82{fill:#DDBA9B;}
	.st83{fill:#FF5F7D;stroke:#000000;stroke-width:0.75;stroke-miterlimit:10;}
	.st84{fill:#FFD258;stroke:#000000;stroke-width:0.75;stroke-miterlimit:10;}
	.st85{fill:none;stroke:#000000;stroke-width:0.5;stroke-miterlimit:10;}
	.st86{opacity:0.43;fill:#7F3B48;}
	.st87{opacity:0.88;fill:#98BFFF;}
	.st88{opacity:0.75;fill:#FFFBF2;}
	.st89{opacity:0.88;fill:#719BD8;}
	.st90{opacity:0.75;fill:#EAD9B7;}
	.st91{fill:#FEF0E1;}
	.st92{fill:none;stroke:#070707;stroke-miterlimit:10;}
	.st93{fill:#C1962B;}
	.st94{fill:#D6B154;}
	.st95{fill:#5DA08B;}
	.st96{fill:#C6961E;}
</style>
<rect x="5.6" y="2.9" class="st1" width="703.1" height="476.3"/>
<g id="zEvPqj.tif">
	<g>
		<path class="st24" d="M321.1,309c25.9-7.3,51.6-14.6,76.8-21.8c-5.9-21.1-11.9-42.3-17.8-63.2c-25.5,7.2-51.3,14.5-76.8,21.8
			C309.3,266.8,315.2,288,321.1,309z M337.2,155.7c1.2-0.2,2-0.3,2.8-0.4c25.6-2.8,48.6,12.7,55.9,37.6c2.6,8.9,5,17.8,7.6,26.6
			c0.4,1.4,0.1,2.2-0.9,3.2c-4.9,4.5-6.8,10.2-5.4,16.7c1.9,8.6,9.8,14.2,18.3,13.4c8.7-0.8,15.4-7.8,15.8-16.3
			c0.4-9-5.5-16.4-14.4-17.9c-1.4-0.2-1.9-0.8-2.3-2.1c-2.4-8.6-5-17.2-7.3-25.8c-8.7-32.6-40.8-51.8-72-46.3
			c-1.5,0.3-2.4-0.2-3.3-1.3c-3.5-3.9-7.9-6-13.2-5.8c-8.5,0.3-15.1,6-16.8,14.3c-0.1,0.7-0.6,1.8-1.1,2c-3.6,1.2-7.3,2.2-11.6,3.4
			c-0.4-2.2-0.7-4.2-1.3-6.1c-1.1-3.1-4.1-4.4-7.1-3.5c-2.7,0.8-4.6,4-3.8,6.8c2,7.5,4.1,15,6.4,22.4c1,3.4,4.1,4.9,7.2,3.9
			c2.9-0.9,4.6-4,3.7-7.2c-0.5-1.8-1.2-3.4-1.8-5c4.1-1.2,7.7-2.2,11.7-3.3c0.8,3.3,1.6,6.8,2.4,10.6c10.4-7.1,21.4-10.1,33.9-9.6
			C339.4,162.4,338.3,159.1,337.2,155.7z M324.3,320.9c3.7,17.1,13.4,29.2,30.9,33.4c16.2,3.9,30.1-0.9,40.7-13.8
			c10.3-12.5,11.4-26.8,6-41.6C376,306.3,350.3,313.6,324.3,320.9z M377.2,212.2c-3.6-16.6-12.8-28.5-29.4-33.1
			c-16.1-4.5-30.3-0.2-41.3,12.4c-11,12.6-12.4,27.2-6.8,42.6C325.5,226.8,351.3,219.5,377.2,212.2z"/>
		<path class="st39" d="M321.1,309c-5.9-21-11.8-42.2-17.7-63.2c25.5-7.2,51.2-14.5,76.8-21.8c5.9,20.9,11.8,42.2,17.8,63.2
			C372.8,294.4,347,301.7,321.1,309z"/>
		<path class="st46" d="M337.2,155.7c1.2,3.4,2.2,6.6,3.5,10.2c-12.5-0.4-23.6,2.6-33.9,9.6c-0.9-3.8-1.7-7.3-2.4-10.6
			c-4,1.1-7.6,2.2-11.7,3.3c0.6,1.6,1.3,3.3,1.8,5c0.9,3.2-0.8,6.3-3.7,7.2c-3.2,1-6.2-0.5-7.2-3.9c-2.2-7.4-4.3-14.9-6.4-22.4
			c-0.8-2.9,1.1-6,3.8-6.8c3-1,6,0.4,7.1,3.5c0.7,1.9,0.9,4,1.3,6.1c4.3-1.2,8-2.2,11.6-3.4c0.5-0.2,1-1.3,1.1-2
			c1.7-8.4,8.3-14,16.8-14.3c5.3-0.2,9.7,1.9,13.2,5.8c1,1.1,1.8,1.6,3.3,1.3c31.1-5.6,63.3,13.7,72,46.3c2.3,8.6,4.9,17.2,7.3,25.8
			c0.4,1.3,0.9,1.8,2.3,2.1c8.9,1.5,14.8,8.9,14.4,17.9c-0.4,8.6-7.1,15.5-15.8,16.3c-8.5,0.8-16.5-4.9-18.3-13.4
			c-1.4-6.5,0.5-12.2,5.4-16.7c1.1-1,1.4-1.7,0.9-3.2c-2.6-8.9-5-17.8-7.6-26.6c-7.3-24.9-30.3-40.4-55.9-37.6
			C339.2,155.4,338.4,155.6,337.2,155.7z"/>
		<path class="st39" d="M324.3,320.9c25.9-7.3,51.7-14.6,77.5-22c5.4,14.8,4.3,29.1-6,41.6c-10.5,12.8-24.5,17.7-40.7,13.8
			C337.7,350.1,328.1,338,324.3,320.9z"/>
		<path class="st39" d="M377.2,212.2c-25.9,7.3-51.7,14.6-77.5,22c-5.6-15.4-4.2-30,6.8-42.6c11-12.6,25.2-16.9,41.3-12.4
			C364.5,183.7,373.7,195.6,377.2,212.2z"/>
	</g>
</g>
</svg>
