<?xml version="1.0" encoding="utf-8"?>
<!-- Generator: Adobe Illustrator 22.1.0, SVG Export Plug-In . SVG Version: 6.00 Build 0)  -->
<svg version="1.1" id="Calque_1" xmlns="http://www.w3.org/2000/svg" xmlns:xlink="http://www.w3.org/1999/xlink" x="0px" y="0px"
	 viewBox="0 0 700 480" style="enable-background:new 0 0 700 480;" xml:space="preserve">
<style type="text/css">
	.st0{fill:#DAECFF;}
	.st1{fill:#FFD258;}
	.st2{fill:#FBCEC6;}
	.st3{fill:#ADCCFF;}
	.st4{fill:#FF5F7D;}
	.st5{fill:none;stroke:#000000;stroke-width:2;stroke-miterlimit:10;}
	.st6{fill:#FFFBF2;}
	.st7{fill:#73B7A4;}
	.st8{fill:none;stroke:#000000;stroke-miterlimit:10;}
	.st9{fill:#98BFFF;}
	.st10{fill:#FFD258;stroke:#000000;stroke-width:2;stroke-miterlimit:10;}
	.st11{fill:#FEF0E1;stroke:#070707;stroke-miterlimit:10;}
	.st12{fill:#D3A533;}
	.st13{fill:#FFB5C0;stroke:#020202;stroke-miterlimit:10;}
	.st14{fill:#FF8E9E;}
	.st15{fill:#FF8E9E;stroke:#000000;stroke-miterlimit:10;}
	.st16{fill:#EA5B70;}
	.st17{fill:#020202;}
	.st18{fill:#FFD258;stroke:#050505;stroke-width:0.5;stroke-miterlimit:10;}
	.st19{fill:#FEF0E1;stroke:#020202;stroke-width:0.5;stroke-miterlimit:10;}
	.st20{fill:#DDB143;}
	.st21{fill:#D6AF8B;}
	.st22{fill:#FFFBF2;stroke:#020202;stroke-width:2;stroke-miterlimit:10;}
	.st23{fill:#FF5F7D;stroke:#020202;stroke-width:2;stroke-miterlimit:10;}
	.st24{fill:#FFFFFF;}
	.st25{fill:#ADCCFF;stroke:#020202;stroke-width:2;stroke-miterlimit:10;}
	.st26{fill:#FFD258;stroke:#050505;stroke-width:2;stroke-miterlimit:10;}
	.st27{fill:#85AAE0;}
	.st28{fill:#C99E32;}
	.st29{fill:#FFCF47;stroke:#020202;stroke-miterlimit:10;}
	.st30{fill:#FF5F7D;stroke:#050505;stroke-width:2;stroke-miterlimit:10;}
	.st31{fill:#F36B7F;stroke:#000000;stroke-miterlimit:10;}
	.st32{fill:#DBA92C;}
	.st33{fill:#73B7A4;stroke:#020202;stroke-width:2;stroke-miterlimit:10;}
	.st34{fill:#FFCF47;stroke:#020202;stroke-width:2;stroke-miterlimit:10;}
	.st35{fill:#99C6B8;}
	.st36{fill:#E2B23B;}
	.st37{fill:#C11A3E;}
	.st38{fill:#FEF0E1;stroke:#020202;stroke-miterlimit:10;}
	.st39{fill:#ADCCFF;stroke:#020202;stroke-miterlimit:10;}
	.st40{fill:#FFD258;stroke:#0C0C0C;stroke-width:0.75;stroke-miterlimit:10;}
	.st41{fill:#ADCCFF;stroke:#050505;stroke-width:2;stroke-miterlimit:10;}
	.st42{fill:#73B7A4;stroke:#050505;stroke-width:2;stroke-miterlimit:10;}
	.st43{fill:#FFFBF2;stroke:#050505;stroke-width:2;stroke-miterlimit:10;}
	.st44{fill:#FEF0E1;stroke:#020202;stroke-width:2;stroke-miterlimit:10;}
	.st45{fill:#D8A830;}
	.st46{fill:#FF5F7D;stroke:#050505;stroke-miterlimit:10;}
	.st47{fill:#73B7A4;stroke:#020202;stroke-miterlimit:10;}
	.st48{fill:#E8D2BF;}
	.st49{fill:#FFD258;stroke:#0A0A0A;stroke-width:2;stroke-miterlimit:10;}
	.st50{fill:#D8AB3A;}
	.st51{fill:#FFD258;stroke:#050505;stroke-miterlimit:10;}
	.st52{fill:#FBCEC6;stroke:#070707;stroke-miterlimit:10;}
	.st53{fill:#D84161;}
	.st54{fill:#FFD258;stroke:#0A0A0A;stroke-miterlimit:10;}
	.st55{fill:#FFD258;stroke:#0A0A0A;stroke-width:3;stroke-miterlimit:10;}
	.st56{fill:none;stroke:#0A0A0A;stroke-width:2;stroke-miterlimit:10;}
	.st57{fill:#FF5F7D;stroke:#000000;stroke-miterlimit:10;}
	.st58{fill:#FFD258;stroke:#000000;stroke-miterlimit:10;}
	.st59{fill:#FF5F7D;stroke:#050505;stroke-width:0.75;stroke-miterlimit:10;}
	.st60{fill:#FEF0E1;stroke:#020202;stroke-width:0.75;stroke-miterlimit:10;}
	.st61{fill:#FF5F7D;stroke:#050505;stroke-width:0.25;stroke-miterlimit:10;}
	.st62{fill:#FFD258;stroke:#0A0A0A;stroke-width:0.75;stroke-miterlimit:10;}
	.st63{fill:#73B7A4;stroke:#020202;stroke-width:0.25;stroke-miterlimit:10;}
	.st64{fill:#FBCEC6;stroke:#020202;stroke-miterlimit:10;}
	.st65{fill:#73B7A4;stroke:#020202;stroke-width:0.75;stroke-miterlimit:10;}
	.st66{fill:#73B7A4;stroke:#070707;stroke-miterlimit:10;}
	.st67{fill:#FFFBF2;stroke:#070707;stroke-miterlimit:10;}
	.st68{fill:#E2B139;}
	.st69{fill:#FFFBF2;stroke:#020202;stroke-miterlimit:10;}
	.st70{fill:#ADCCFF;stroke:#020202;stroke-width:0.75;stroke-miterlimit:10;}
	.st71{fill:#FFFBF2;stroke:#020202;stroke-width:0.75;stroke-miterlimit:10;}
	.st72{fill:#FFD258;stroke:#050505;stroke-width:0.75;stroke-miterlimit:10;}
	.st73{fill:#FBCEC6;stroke:#020202;stroke-width:0.75;stroke-miterlimit:10;}
	.st74{fill:#73B7A4;stroke:#050505;stroke-miterlimit:10;}
	.st75{fill:#73B7A4;stroke:#050505;stroke-width:0.75;stroke-miterlimit:10;}
	.st76{fill:#E2C2A6;}
	.st77{fill:#DBC69E;}
	.st78{fill:#D39C94;}
	.st79{fill:#E0B344;}
	.st80{fill:#E0AE32;}
	.st81{fill:#4F9982;}
	.st82{fill:#DDBA9B;}
	.st83{fill:#FF5F7D;stroke:#000000;stroke-width:0.75;stroke-miterlimit:10;}
	.st84{fill:#FFD258;stroke:#000000;stroke-width:0.75;stroke-miterlimit:10;}
	.st85{fill:none;stroke:#000000;stroke-width:0.5;stroke-miterlimit:10;}
	.st86{opacity:0.43;fill:#7F3B48;}
	.st87{opacity:0.88;fill:#98BFFF;}
	.st88{opacity:0.75;fill:#FFFBF2;}
	.st89{opacity:0.88;fill:#719BD8;}
	.st90{opacity:0.75;fill:#EAD9B7;}
	.st91{fill:#FEF0E1;}
	.st92{fill:none;stroke:#070707;stroke-miterlimit:10;}
	.st93{fill:#C1962B;}
	.st94{fill:#D6B154;}
	.st95{fill:#5DA08B;}
	.st96{fill:#C6961E;}
	.st97{fill:#FF5F7D;stroke:#FFFFFF;stroke-miterlimit:10;}
	.st98{fill:#FF5F7D;stroke:#070707;stroke-miterlimit:10;}
</style>
<rect x="0.5" y="2.5" class="st2" width="700" height="477.8"/>
<g id="iGR6cN.tif">
	<g>
		<path class="st24" d="M306.2,256.7c0.3,0.8,0.6,1.6,1,2.4c-9.7,11.5-22.4,18.5-36.6,23.4c-0.8-2.2-1.3-3.7-1.8-5.2
			c-0.2,0.9-0.4,1.8-0.6,2.7c-5.2,0-11.2,1.6-15.4-0.4c-4.3-2.1-7-7.7-11.1-12.7c-3.7,11.1-7.9,21.6-10.6,32.4
			c-4.3,17.1,1.3,22.8,18.6,20.3c25.9-3.8,49.3-14.8,73.1-25c5.9-2.5,13.3-3.5,19.6-2.6c34.1,4.8,68.2,4.9,102.8,2
			c0-17.4,0-34.3,0-52.8c-8.4,5.1-16,9.2-23,14.2c-13.2,9.5-28.1,12.1-43.5,9.4c-5.1-0.9-10.5-6-13.6-10.7c-4.4-6.6-10.5-9.6-17.9-6
			c-3.1,1.5-6.2,3.6-9.4,3.8c-4,0.3-9.7,0.5-11.9-1.9c-2.5-2.8-3.6-8.7-2.6-12.5c1.7-6.1,5.6-11.6,9.8-19.8
			c-10.1,3.4-18.3,6.1-27.1,9c-1.2-12.8-11.8-13.3-21.8-13.5c-17.1-0.4-34.3-0.1-48.9-0.1c0.9,11.2,1.8,23.3,3,35.3
			c0.2,1.8,2,3.4,3.3,5c3.2,4,7.2,7.5,9.5,12c5.1,10.2,6.4,10.6,15.3,3.3c4.7-3.9,9.4-8.7,14.9-10.2
			C289.2,256.6,297.8,257.2,306.2,256.7z M362.1,230.1c-1.2,2.1-2.6,3.9-3.2,5.8c-0.4,1.2,0.1,3.5,0.9,4c1.3,0.8,4.1,1.2,4.8,0.4
			c5.3-5.9,10.4-11.9,15.2-18.2c2.7-3.6,3.8-8.4,6.7-11.6c9.1-9.9,18.8-19.3,29.6-30.3c-8.8,0-15.9,0.6-22.8-0.2
			c-8.5-0.9-13.7,2.1-17.9,9.5c-6.4,11.2-13.6,21.5-26.3,27.8c-7.2,3.6-12.2,12-17.5,18.7c-1.7,2.2-1.3,5.9-1.9,9
			c0.8,0.7,1.7,1.4,2.5,2.2C342,241.6,351.7,236,362.1,230.1z M445.5,201.3c-10.3,9.6-18.4,17.7-27.2,25c-3,2.5-7.4,3.3-11.3,4.5
			c-7.1,2.3-15.1,3.1-21.3,6.9c-5.7,3.4-16.3,6.7-12.7,15.5c3.5,8.4,13.5,5,21,4.6c19.8-1.2,32.8-16.5,49.4-24.5
			c1.2-0.6,1.9-3.1,1.9-4.7C445.6,220.3,445.5,212.1,445.5,201.3z M240.5,174.8c-1.4,2.1-2.9,3.4-3.4,5.1
			c-1.9,6.2-5.7,12.9-4.7,18.6c1.4,8,10,8.1,16.9,8.1c9,0.1,18-0.7,27-0.7c12.6,0,25.6-1.2,34.9,9.9c9.1-10.9,8.6-15.1-3-20.1
			c-7-3-14.8-4.7-22.4-5.7C270.1,187.9,254.1,186.9,240.5,174.8z M245.5,169.1c20.1,18,47.6,8.9,69.2,21.5
			c0.2-10.4-1.6-13.5-9.6-17.7c-10.8-5.7-21.7-11.3-32.6-16.8c-1-0.5-2.4-0.6-3.6-0.5C259.3,156.2,250.9,159.3,245.5,169.1z
			 M229.2,234.5c-4.7,5.3-13.7,10.8-14.6,17.4c-1.3,9.6,9.2,14.8,17.2,21.5c1.7-5.3,4.5-9.5,3.9-13.3
			C234.7,252.1,231.8,244.4,229.2,234.5z M308.6,166c-4.4-14.4-14.2-18.6-30-12C289.4,158.3,298.2,161.9,308.6,166z"/>
		<path class="st62" d="M306.2,256.7c-8.3,0.5-17-0.1-24.9,1.9c-5.5,1.4-10.2,6.3-14.9,10.2c-8.9,7.4-10.2,7-15.3-3.3
			c-2.2-4.5-6.3-8-9.5-12c-1.2-1.6-3.1-3.2-3.3-5c-1.2-12-2.1-24.1-3-35.3c14.6,0,31.8-0.3,48.9,0.1c10,0.2,20.5,0.7,21.8,13.5
			c8.7-2.9,17-5.6,27.1-9c-4.2,8.2-8.2,13.7-9.8,19.8c-1,3.8,0,9.8,2.6,12.5c2.2,2.4,7.9,2.2,11.9,1.9c3.2-0.3,6.4-2.3,9.4-3.8
			c7.4-3.6,13.5-0.7,17.9,6c3.1,4.7,8.5,9.8,13.6,10.7c15.4,2.6,30.3,0.1,43.5-9.4c7-5,14.6-9.1,23-14.2c0,18.4,0,35.3,0,52.8
			c-34.6,2.8-68.7,2.7-102.8-2c-6.3-0.9-13.7,0.1-19.6,2.6c-23.8,10.2-47.1,21.2-73.1,25c-17.3,2.5-22.9-3.2-18.6-20.3
			c2.7-10.8,6.9-21.2,10.6-32.4c4.2,5,6.8,10.6,11.1,12.7c4.2,2,10.2,0.4,15.4,0.4c0.2-0.9,0.4-1.8,0.6-2.7c0.5,1.5,1,3,1.8,5.2
			c14.2-4.9,26.9-11.9,36.6-23.4C306.8,258.3,306.5,257.5,306.2,256.7z"/>
		<path class="st62" d="M362.1,230.1c-10.4,5.9-20.2,11.5-29.9,17.1c-0.8-0.7-1.7-1.4-2.5-2.2c0.6-3,0.2-6.8,1.9-9
			c5.3-6.7,10.3-15.1,17.5-18.7c12.6-6.3,19.8-16.6,26.3-27.8c4.2-7.4,9.4-10.5,17.9-9.5c7,0.8,14.1,0.2,22.8,0.2
			c-10.8,10.9-20.5,20.3-29.6,30.3c-3,3.2-4.1,8.1-6.7,11.6c-4.7,6.3-9.9,12.4-15.2,18.2c-0.7,0.8-3.5,0.4-4.8-0.4
			c-0.8-0.5-1.3-2.8-0.9-4C359.5,233.9,360.9,232.2,362.1,230.1z"/>
		<path class="st62" d="M445.5,201.3c0,10.7,0.1,19-0.1,27.3c0,1.6-0.8,4.2-1.9,4.7c-16.6,7.9-29.6,23.2-49.4,24.5
			c-7.5,0.5-17.6,3.8-21-4.6c-3.7-8.8,7-12.1,12.7-15.5c6.2-3.8,14.2-4.6,21.3-6.9c3.9-1.2,8.4-2,11.3-4.5
			C427.1,219,435.2,210.9,445.5,201.3z"/>
		<path class="st44" d="M240.5,174.8c13.7,12.1,29.6,13.1,45.3,15.3c7.6,1,15.4,2.8,22.4,5.7c11.6,4.9,12.1,9.2,3,20.1
			c-9.4-11-22.4-9.8-34.9-9.9c-9,0-18,0.7-27,0.7c-6.9,0-15.5-0.1-16.9-8.1c-1-5.8,2.8-12.5,4.7-18.6
			C237.5,178.2,239,176.8,240.5,174.8z"/>
		<path class="st44" d="M245.5,169.1c5.4-9.8,13.8-12.9,23.5-13.5c1.2-0.1,2.6,0,3.6,0.5c10.9,5.5,21.7,11.1,32.6,16.8
			c7.9,4.2,9.8,7.3,9.6,17.7C293.1,177.9,265.6,187.1,245.5,169.1z"/>
		<path class="st62" d="M229.2,234.5c2.6,9.8,5.5,17.6,6.6,25.6c0.5,3.8-2.3,8-3.9,13.3c-8-6.7-18.4-11.9-17.2-21.5
			C215.5,245.3,224.5,239.8,229.2,234.5z"/>
		<path class="st44" d="M308.6,166c-10.4-4.2-19.2-7.7-30-12C294.3,147.5,304.2,151.7,308.6,166z"/>
	</g>
</g>
</svg>
