<?xml version="1.0" encoding="utf-8"?>
<!-- Generator: Adobe Illustrator 22.1.0, SVG Export Plug-In . SVG Version: 6.00 Build 0)  -->
<svg version="1.1" id="Calque_1" xmlns="http://www.w3.org/2000/svg" xmlns:xlink="http://www.w3.org/1999/xlink" x="0px" y="0px"
	 viewBox="0 0 700 480" style="enable-background:new 0 0 700 480;" xml:space="preserve">
<style type="text/css">
	.st0{fill:#DAECFF;}
	.st1{fill:#FFD258;}
	.st2{fill:#FBCEC6;}
	.st3{fill:#ADCCFF;}
	.st4{fill:#FF5F7D;}
	.st5{fill:none;stroke:#000000;stroke-width:2;stroke-miterlimit:10;}
	.st6{fill:#FFFBF2;}
	.st7{fill:#73B7A4;}
	.st8{fill:none;stroke:#000000;stroke-miterlimit:10;}
	.st9{fill:#98BFFF;}
	.st10{fill:#FFD258;stroke:#000000;stroke-width:2;stroke-miterlimit:10;}
	.st11{fill:#FEF0E1;stroke:#070707;stroke-miterlimit:10;}
	.st12{fill:#D3A533;}
	.st13{fill:#FFB5C0;stroke:#020202;stroke-miterlimit:10;}
	.st14{fill:#FF8E9E;}
	.st15{fill:#FF8E9E;stroke:#000000;stroke-miterlimit:10;}
	.st16{fill:#EA5B70;}
	.st17{fill:#020202;}
	.st18{fill:#FFD258;stroke:#050505;stroke-width:0.5;stroke-miterlimit:10;}
	.st19{fill:#FEF0E1;stroke:#020202;stroke-width:0.5;stroke-miterlimit:10;}
	.st20{fill:#DDB143;}
	.st21{fill:#D6AF8B;}
	.st22{fill:#FFFBF2;stroke:#020202;stroke-width:2;stroke-miterlimit:10;}
	.st23{fill:#FF5F7D;stroke:#020202;stroke-width:2;stroke-miterlimit:10;}
	.st24{fill:#FFFFFF;}
	.st25{fill:#ADCCFF;stroke:#020202;stroke-width:2;stroke-miterlimit:10;}
	.st26{fill:#FFD258;stroke:#050505;stroke-width:2;stroke-miterlimit:10;}
	.st27{fill:#85AAE0;}
	.st28{fill:#C99E32;}
	.st29{fill:#FFCF47;stroke:#020202;stroke-miterlimit:10;}
	.st30{fill:#FF5F7D;stroke:#050505;stroke-width:2;stroke-miterlimit:10;}
	.st31{fill:#F36B7F;stroke:#000000;stroke-miterlimit:10;}
	.st32{fill:#DBA92C;}
	.st33{fill:#73B7A4;stroke:#020202;stroke-width:2;stroke-miterlimit:10;}
	.st34{fill:#FFCF47;stroke:#020202;stroke-width:2;stroke-miterlimit:10;}
	.st35{fill:#99C6B8;}
	.st36{fill:#E2B23B;}
	.st37{fill:#C11A3E;}
	.st38{fill:#FEF0E1;stroke:#020202;stroke-miterlimit:10;}
	.st39{fill:#ADCCFF;stroke:#020202;stroke-miterlimit:10;}
	.st40{fill:#FFD258;stroke:#0C0C0C;stroke-width:0.75;stroke-miterlimit:10;}
	.st41{fill:#ADCCFF;stroke:#050505;stroke-width:2;stroke-miterlimit:10;}
	.st42{fill:#73B7A4;stroke:#050505;stroke-width:2;stroke-miterlimit:10;}
	.st43{fill:#FFFBF2;stroke:#050505;stroke-width:2;stroke-miterlimit:10;}
	.st44{fill:#FEF0E1;stroke:#020202;stroke-width:2;stroke-miterlimit:10;}
	.st45{fill:#D8A830;}
	.st46{fill:#FF5F7D;stroke:#050505;stroke-miterlimit:10;}
	.st47{fill:#73B7A4;stroke:#020202;stroke-miterlimit:10;}
	.st48{fill:#E8D2BF;}
	.st49{fill:#FFD258;stroke:#0A0A0A;stroke-width:2;stroke-miterlimit:10;}
	.st50{fill:#D8AB3A;}
	.st51{fill:#FFD258;stroke:#050505;stroke-miterlimit:10;}
	.st52{fill:#FBCEC6;stroke:#070707;stroke-miterlimit:10;}
	.st53{fill:#D84161;}
	.st54{fill:#FFD258;stroke:#0A0A0A;stroke-miterlimit:10;}
	.st55{fill:#FFD258;stroke:#0A0A0A;stroke-width:3;stroke-miterlimit:10;}
	.st56{fill:none;stroke:#0A0A0A;stroke-width:2;stroke-miterlimit:10;}
	.st57{fill:#FF5F7D;stroke:#000000;stroke-miterlimit:10;}
	.st58{fill:#FFD258;stroke:#000000;stroke-miterlimit:10;}
	.st59{fill:#FF5F7D;stroke:#050505;stroke-width:0.75;stroke-miterlimit:10;}
	.st60{fill:#FEF0E1;stroke:#020202;stroke-width:0.75;stroke-miterlimit:10;}
	.st61{fill:#FF5F7D;stroke:#050505;stroke-width:0.25;stroke-miterlimit:10;}
	.st62{fill:#FFD258;stroke:#0A0A0A;stroke-width:0.75;stroke-miterlimit:10;}
	.st63{fill:#73B7A4;stroke:#020202;stroke-width:0.25;stroke-miterlimit:10;}
	.st64{fill:#FBCEC6;stroke:#020202;stroke-miterlimit:10;}
	.st65{fill:#73B7A4;stroke:#020202;stroke-width:0.75;stroke-miterlimit:10;}
	.st66{fill:#73B7A4;stroke:#070707;stroke-miterlimit:10;}
	.st67{fill:#FFFBF2;stroke:#070707;stroke-miterlimit:10;}
	.st68{fill:#E2B139;}
	.st69{fill:#FFFBF2;stroke:#020202;stroke-miterlimit:10;}
	.st70{fill:#ADCCFF;stroke:#020202;stroke-width:0.75;stroke-miterlimit:10;}
	.st71{fill:#FFFBF2;stroke:#020202;stroke-width:0.75;stroke-miterlimit:10;}
	.st72{fill:#FFD258;stroke:#050505;stroke-width:0.75;stroke-miterlimit:10;}
	.st73{fill:#FBCEC6;stroke:#020202;stroke-width:0.75;stroke-miterlimit:10;}
	.st74{fill:#73B7A4;stroke:#050505;stroke-miterlimit:10;}
	.st75{fill:#73B7A4;stroke:#050505;stroke-width:0.75;stroke-miterlimit:10;}
	.st76{fill:#E2C2A6;}
	.st77{fill:#DBC69E;}
	.st78{fill:#D39C94;}
	.st79{fill:#E0B344;}
	.st80{fill:#E0AE32;}
	.st81{fill:#4F9982;}
	.st82{fill:#DDBA9B;}
	.st83{fill:#FF5F7D;stroke:#000000;stroke-width:0.75;stroke-miterlimit:10;}
	.st84{fill:#FFD258;stroke:#000000;stroke-width:0.75;stroke-miterlimit:10;}
	.st85{fill:none;stroke:#000000;stroke-width:0.5;stroke-miterlimit:10;}
	.st86{opacity:0.43;fill:#7F3B48;}
	.st87{opacity:0.88;fill:#98BFFF;}
	.st88{opacity:0.75;fill:#FFFBF2;}
	.st89{opacity:0.88;fill:#719BD8;}
	.st90{opacity:0.75;fill:#EAD9B7;}
	.st91{fill:#FEF0E1;}
	.st92{fill:none;stroke:#070707;stroke-miterlimit:10;}
	.st93{fill:#C1962B;}
	.st94{fill:#D6B154;}
	.st95{fill:#5DA08B;}
	.st96{fill:#C6961E;}
</style>
<rect x="-3.5" y="-0.6" class="st0" width="699.7" height="480"/>
<path class="st0" d="M384.3,430.2H142.6c-43.5,0-79.2-35.6-79.2-79.2V117.9c0-43.5,35.6-79.2,79.2-79.2h241.7
	c43.5,0,79.2,35.6,79.2,79.2v233.2C463.5,394.6,427.9,430.2,384.3,430.2z"/>
<g id="rPIbHl.tif">
	<g>
		<path class="st61" d="M349.1,244c-6.2,2.4-11.2,5.6-15.8,9.5c-9,7.6-15.1,17.2-20.3,27.6c-0.2,0.4-0.4,0.9-0.7,1.3
			c-1.1,2.1-2.7,2.7-4.5,1.8c-1.9-0.9-2.4-2.6-1.3-4.8c8-16.6,18.4-30.9,35.3-39.9c-1.9,0-3.8-0.1-5.7,0c-24.4,1.3-45.5,9.9-61.4,29
			c-4.8,5.8-8.4,12.6-12.5,18.9c-0.5,0.8-0.8,1.7-1.2,2.5c-1.2,2.1-2.7,2.7-4.5,1.8c-2-1.1-2.5-2.7-1.4-4.6
			c4.1-6.8,7.7-14.1,12.6-20.3c15.8-20.2,37-30.7,62.3-33.3c2.4-0.2,4.8-0.4,7.2-0.5c2.4-0.1,4.8,0,7.4,0c-0.2-0.4-0.3-0.7-0.4-0.8
			c-13.1-7.4-26.9-12.1-42.1-11.5c-3.5,0.1-6.9,0.8-10.4,1.3c-1.9,0.3-3.5,0.2-4.3-1.9c-0.8-2.2,0.3-3.9,2.8-4.5
			c7-1.7,14.2-2,21.3-1.3c13.3,1.4,25.5,6.1,37,12.7c0.5,0.3,1,0.6,1.5,0.8c0.1,0.1,0.3,0.1,0.6,0.1c0-0.3,0.1-0.6,0-0.9
			c-7.9-16.9-18.8-31.1-36-39.4c-5.5-2.6-11.7-3.8-17.5-5.8c-1.3-0.4-2.9-1.3-3.3-2.4c-1.1-2.5,1.1-4.6,4.1-4.1
			c8.6,1.4,16.7,4.4,24.3,8.8c13.6,8.1,23.5,19.7,31.1,33.4c0.7,1.2,1.3,2.5,2,3.7c0.1,0.1,0.2,0.2,0.7,0.6c0.3-2.1,0.4-3.9,0.8-5.7
			c1-4.2,1.9-8.4,3.2-12.5c0.5-1.7,1.7-3.5,4.1-2.6c1.8,0.6,2.6,2.9,2,5.1c-1.2,4.8-2.3,9.7-3.4,14.5c0.2,0.1,0.5,0.2,0.7,0.3
			c0.5-0.7,0.9-1.3,1.4-2c11.9-17.5,27.2-30.9,47.2-38.6c10.2-3.9,20.8-5.8,31.8-6c2.7-0.1,4.1,1.1,4.2,3.2c0,2.1-1.2,3.3-4,3.4
			c-15.4,0.4-29.8,4.1-43,12.1c-14.5,8.8-25.6,20.8-34.5,35.9c1.2-0.5,1.9-0.7,2.5-1c7.6-3.5,15.3-6.5,23.7-7.6
			c1.8-0.2,3.6-0.2,4.4,1.9c0.9,2.3-0.4,4.3-3.2,4.7c-8.2,1-15.8,4-23.2,7.6c-0.5,0.2-1,0.6-1.6,0.9c4.4,1.5,8.7,2.8,12.9,4.5
			c18.1,7.4,32.7,19.5,44.8,34.6c11.3,14.2,19.7,30.1,26.1,47c0.4,1,0.7,2.5,0.2,3.3c-0.6,1-2.1,2-3.1,1.9c-1.1-0.1-2.5-1.3-3-2.4
			c-3.1-6.6-5.8-13.5-9.1-20c-8.6-16.9-19.6-31.9-34.4-43.9c-10.2-8.2-21.4-14.3-34.1-17.7c-1.2-0.3-2.4-0.5-4-0.9
			c1.8,3.5,3.5,6.5,5,9.6c7.9,16.2,12.5,33.5,15.7,51.2c0.4,2,0.8,4.1,1.1,6.1c0.4,2.6-0.6,4.1-2.7,4.4c-2,0.3-3.2-0.9-3.7-3.4
			c-2-9.4-3.8-18.9-6.2-28.3c-3.1-12.2-7.6-23.8-13.9-34.7c-0.6-1-1.2-2-1.9-3c-0.1-0.2-0.3-0.3-1-0.9c-2.3,3.8-4.7,7.4-6.5,11.2
			c-6.4,13.1-9.5,27.2-11.6,41.5c-2.8,18.6-3.7,37.3-3.3,56.1c0,0.3,0,0.7,0,1c-0.1,2.3-1.3,3.6-3.3,3.6c-2,0-3.3-1.3-3.3-3.6
			c-0.1-6.6-0.2-13.2,0-19.7c0.6-18.5,2.4-36.9,6.4-55C338.7,265.9,342.2,256.6,349.1,244z"/>
		<path class="st62" d="M331.8,173.2c1-3.1-0.7-5.3-3.7-6.9c-1.2-0.7-2.4-1.5-3.5-2.4c-2.3-1.9-1.8-4.8,1-5.9
			c2.1-0.8,4.3-1.2,6.4-2.1c1-0.4,1.9-1.4,2.4-2.4c0.9-2,1.1-4.2,2-6.1c0.5-1.1,1.6-2.3,2.7-2.5c1-0.2,2.5,0.6,3.3,1.5
			c1.4,1.4,2.5,3.1,3.5,4.8c1,1.7,2.3,2.1,4.1,2c2-0.2,4-0.1,6-0.1c3.1,0.1,4.5,2.8,2.7,5.4c-0.9,1.3-1.7,2.7-2.8,3.8
			c-2,2.1-2.3,4.2-1,6.7c0.7,1.4,1.2,2.9,1.6,4.5c0.8,3-1.3,5.2-4.3,4.3c-2.2-0.6-4.2-1.6-6.4-2.1c-1-0.2-2.3,0-3.1,0.5
			c-1.9,1.2-3.6,2.7-5.4,4c-2.6,1.8-5.2,0.5-5.4-2.7C331.7,176.2,331.8,175,331.8,173.2z M349.3,159.8c-4.1,0.7-6.6-1-8.6-4.3
			c-0.4,4.1-2.7,6.1-6.6,6.8c3.5,1.8,5,4.5,4.5,8.5c2.8-3,5.9-3.1,9.5-1.7C345.9,165.6,346.7,162.7,349.3,159.8z"/>
		<path class="st62" d="M399,337.3c2.6-4.6-0.1-8.2-4.1-11.5c-1.9-1.6-1-4.6,1.5-5.3c1.7-0.5,3.4-0.8,5.1-0.9
			c1.7-0.1,2.7-0.9,3.3-2.5c0.6-1.4,1.2-2.7,1.9-4.1c1.5-2.7,5-3,6-0.1c1.8,5,4.9,7.1,10.1,7.2c3.1,0.1,4.3,3.7,1.9,5.6
			c-4.1,3.2-5.3,6.8-3.8,11.8c0.9,3.2-2.1,5.3-4.9,3.5c-4.3-2.9-8-2.7-12.2,0.2C401.5,342.9,398.9,341,399,337.3z M414.6,326
			c-1.4-1-3.1-2.2-4.6-3.3c-1.6,1.1-3.2,2.4-4.6,3.4c0.6,2,1.2,3.9,1.7,5.6c2,0,4,0,5.7,0C413.4,329.7,414,327.8,414.6,326z"/>
		<path class="st62" d="M478.5,202.6c-0.8,1.2-1.2,2.1-1.8,2.8c-0.3,0.4-0.8,0.7-1.2,0.8c-4.1,1.3-5.4,4.2-5.4,8.3
			c0,1.2-1,3.2-1.9,3.5c-1.2,0.4-3.3-0.1-4.1-1c-2.8-3.3-6-3.8-9.9-2.4c-1.1,0.4-3.2-0.1-3.9-0.9c-0.7-0.8-0.3-2.7-0.3-4.1
			c0-0.1,0.1-0.2,0.1-0.2c2.2-3.3,2.3-6.5-0.5-9.6c-1.2-1.3-1.7-2.9-0.6-4.6c1.1-1.7,2.7-1.7,4.4-1.4c0.4,0.1,0.8,0,1.2,0.1
			c3,0.9,5.1-0.3,6.7-2.8c0.4-0.7,1-1.3,1.6-1.9c2-1.9,5.4-1.2,5.6,1.5c0.4,4.9,2.6,7.8,7.5,9C476.8,200.1,477.5,201.6,478.5,202.6z
			 M463.8,207.6c0.9-1.4,1.8-2.9,2.6-4.2c-1.1-1.3-2.2-2.7-3.1-3.9c-1.6,0.6-3.2,1.3-4.8,1.9c0.1,1.5,0.3,3.3,0.4,4.9
			C460.4,206.7,462.1,207.2,463.8,207.6z"/>
		<path class="st62" d="M260.5,328c0.8-2.5-0.6-4.2-3-5.5c-0.9-0.5-1.7-1.1-2.4-1.8c-1.9-1.8-1.4-5,1.1-5.4c4.9-0.9,7.3-3.5,8.4-8.3
			c0.6-2.7,4.3-3.2,5.6-0.7c2.3,4.1,5.3,5.8,10,5.2c2.9-0.4,4.7,3,2.7,5.1c-3.3,3.5-3.8,6.9-1.9,11.2c1.2,2.7-1.4,5.3-4.1,4.1
			c-4.3-2-7.6-1.5-11.1,1.7c-2.2,2.1-5.2,0.3-5.3-2.8C260.5,330,260.5,329.2,260.5,328z M267.5,323.8c1.7-0.3,3.3-0.5,4.7-0.7
			c0.2-1.6,0.5-3.2,0.7-4.6c-1.5-0.8-2.9-1.6-4.2-2.3c-1.1,1.1-2.2,2.3-3.2,3.4C266.2,321,266.9,322.4,267.5,323.8z"/>
		<path class="st63" d="M416.7,218.6c20.6,1.8,38.6,9.4,55,21.3c1.5,1.1,2.9,2.2,4.4,3.3c2.2,1.8,2.5,3.4,1.2,5.1
			c-1.3,1.7-3,1.6-5.3,0.1c-5.4-3.7-10.6-7.5-16.2-10.8c-12.3-7.2-25.8-11.1-40-12.1c-1.2-0.1-2.7-0.9-3.4-1.9
			c-0.5-0.7-0.3-2.6,0.3-3.2C413.7,219.5,415.3,219.2,416.7,218.6z"/>
		<path class="st63" d="M395.6,159.2c-0.8,1.2-1.3,2.3-2.1,3c-8.3,6.3-14.5,14.3-19.3,23.5c-1,1.8-2.5,2.7-4.6,1.7
			c-1.7-0.8-2.3-2.7-1.3-4.7c5.2-10,11.9-18.9,21.1-25.6c1-0.7,2.6-0.9,3.8-0.6C394.1,156.8,394.7,158.2,395.6,159.2z"/>
		<path class="st63" d="M278.1,225.9c-0.4,0.5-1,1.5-1.9,2.2c-5.2,4.3-10.4,8.4-15.6,12.7c-1.9,1.6-3.7,1.9-5.1,0.5
			c-1.4-1.5-1.3-3.3,0.3-5.1c5-5.4,10.7-10,17-13.7C275.5,221,278.1,222.3,278.1,225.9z"/>
		<path class="st63" d="M295.3,312.7c0.9-3.3,2-7.6,3.2-11.8c0.5-1.8,2.1-2.7,4-2.1c2,0.6,2.7,2.1,2.2,4.1c-0.9,4-1.9,7.9-2.9,11.9
			c-0.5,1.9-1.7,3-3.6,2.7C296.1,317.1,295.2,315.7,295.3,312.7z"/>
		<path class="st63" d="M279.8,194.2c-0.1,1.8-1.1,3.1-3.1,3.1c-1.9,0-3.1-1-3.2-3.1c-0.1-2,1.2-3.4,3.2-3.4
			C278.5,190.9,279.8,192.2,279.8,194.2z"/>
		<path class="st63" d="M463.6,296.9c-1.8-0.2-2.8-1.4-2.9-3.3c-0.1-2,1.4-3.4,3.3-3.2c2,0.1,2.9,1.4,2.9,3.3
			C467,295.6,465.5,297,463.6,296.9z"/>
		<path class="st63" d="M363.6,315.2c0,2-1.4,3.3-3.3,3.2c-2-0.1-3-1.4-3-3.3c0-1.9,1-3.1,3-3.2
			C362.2,311.9,363.6,313.3,363.6,315.2z"/>
		<path class="st63" d="M447.2,253c-1.7-0.1-2.8-1.2-2.8-3.1c-0.1-2,1.3-3.4,3.1-3.4c2,0.1,3,1.2,3.1,3.1
			C450.7,251.6,449.4,253,447.2,253z"/>
		<path class="st63" d="M421.1,163.5c-0.1,1.7-0.9,2.9-3,3c-1.9,0.1-3.3-1.3-3.2-3.3c0.1-2,1.2-3.1,3.1-3.2
			C419.8,160,421.1,161.4,421.1,163.5z"/>
		<path class="st63" d="M298.6,341.8c2,0.2,3,1.3,3,3.3c0,2-1.1,3.1-3.1,3.2c-1.9,0.1-3.3-1.4-3.1-3.4
			C295.5,342.9,296.7,341.9,298.6,341.8z"/>
	</g>
</g>
</svg>
