<?xml version="1.0" encoding="utf-8"?>
<!-- Generator: Adobe Illustrator 22.1.0, SVG Export Plug-In . SVG Version: 6.00 Build 0)  -->
<svg version="1.1" id="Calque_1" xmlns="http://www.w3.org/2000/svg" xmlns:xlink="http://www.w3.org/1999/xlink" x="0px" y="0px"
	 viewBox="0 0 700 480" style="enable-background:new 0 0 700 480;" xml:space="preserve">
<style type="text/css">
	.st0{fill:#DAECFF;}
	.st1{fill:#FFD258;}
	.st2{fill:#FBCEC6;}
	.st3{fill:#ADCCFF;}
	.st4{fill:#FF5F7D;}
	.st5{fill:none;stroke:#000000;stroke-width:2;stroke-miterlimit:10;}
	.st6{fill:#FFFBF2;}
	.st7{fill:#73B7A4;}
	.st8{fill:none;stroke:#000000;stroke-miterlimit:10;}
	.st9{fill:#98BFFF;}
	.st10{fill:#FFD258;stroke:#000000;stroke-width:2;stroke-miterlimit:10;}
	.st11{fill:#FEF0E1;stroke:#070707;stroke-miterlimit:10;}
	.st12{fill:#D3A533;}
	.st13{fill:#FFB5C0;stroke:#020202;stroke-miterlimit:10;}
	.st14{fill:#FF8E9E;}
	.st15{fill:#FF8E9E;stroke:#000000;stroke-miterlimit:10;}
	.st16{fill:#EA5B70;}
	.st17{fill:#020202;}
	.st18{fill:#FFD258;stroke:#050505;stroke-width:0.5;stroke-miterlimit:10;}
	.st19{fill:#FEF0E1;stroke:#020202;stroke-width:0.5;stroke-miterlimit:10;}
	.st20{fill:#DDB143;}
	.st21{fill:#D6AF8B;}
	.st22{fill:#FFFBF2;stroke:#020202;stroke-width:2;stroke-miterlimit:10;}
	.st23{fill:#FF5F7D;stroke:#020202;stroke-width:2;stroke-miterlimit:10;}
	.st24{fill:#FFFFFF;}
	.st25{fill:#ADCCFF;stroke:#020202;stroke-width:2;stroke-miterlimit:10;}
	.st26{fill:#FFD258;stroke:#050505;stroke-width:2;stroke-miterlimit:10;}
	.st27{fill:#85AAE0;}
	.st28{fill:#C99E32;}
	.st29{fill:#FFCF47;stroke:#020202;stroke-miterlimit:10;}
	.st30{fill:#FF5F7D;stroke:#050505;stroke-width:2;stroke-miterlimit:10;}
	.st31{fill:#F36B7F;stroke:#000000;stroke-miterlimit:10;}
	.st32{fill:#DBA92C;}
	.st33{fill:#73B7A4;stroke:#020202;stroke-width:2;stroke-miterlimit:10;}
	.st34{fill:#FFCF47;stroke:#020202;stroke-width:2;stroke-miterlimit:10;}
	.st35{fill:#99C6B8;}
	.st36{fill:#E2B23B;}
	.st37{fill:#C11A3E;}
	.st38{fill:#FEF0E1;stroke:#020202;stroke-miterlimit:10;}
	.st39{fill:#ADCCFF;stroke:#020202;stroke-miterlimit:10;}
	.st40{fill:#FFD258;stroke:#0C0C0C;stroke-width:0.75;stroke-miterlimit:10;}
	.st41{fill:#ADCCFF;stroke:#050505;stroke-width:2;stroke-miterlimit:10;}
	.st42{fill:#73B7A4;stroke:#050505;stroke-width:2;stroke-miterlimit:10;}
	.st43{fill:#FFFBF2;stroke:#050505;stroke-width:2;stroke-miterlimit:10;}
	.st44{fill:#FEF0E1;stroke:#020202;stroke-width:2;stroke-miterlimit:10;}
	.st45{fill:#D8A830;}
	.st46{fill:#FF5F7D;stroke:#050505;stroke-miterlimit:10;}
	.st47{fill:#73B7A4;stroke:#020202;stroke-miterlimit:10;}
	.st48{fill:#E8D2BF;}
	.st49{fill:#FFD258;stroke:#0A0A0A;stroke-width:2;stroke-miterlimit:10;}
	.st50{fill:#D8AB3A;}
	.st51{fill:#FFD258;stroke:#050505;stroke-miterlimit:10;}
	.st52{fill:#FBCEC6;stroke:#070707;stroke-miterlimit:10;}
	.st53{fill:#D84161;}
	.st54{fill:#FFD258;stroke:#0A0A0A;stroke-miterlimit:10;}
	.st55{fill:#FFD258;stroke:#0A0A0A;stroke-width:3;stroke-miterlimit:10;}
	.st56{fill:none;stroke:#0A0A0A;stroke-width:2;stroke-miterlimit:10;}
	.st57{fill:#FF5F7D;stroke:#000000;stroke-miterlimit:10;}
	.st58{fill:#FFD258;stroke:#000000;stroke-miterlimit:10;}
	.st59{fill:#FF5F7D;stroke:#050505;stroke-width:0.75;stroke-miterlimit:10;}
	.st60{fill:#FEF0E1;stroke:#020202;stroke-width:0.75;stroke-miterlimit:10;}
	.st61{fill:#FF5F7D;stroke:#050505;stroke-width:0.25;stroke-miterlimit:10;}
	.st62{fill:#FFD258;stroke:#0A0A0A;stroke-width:0.75;stroke-miterlimit:10;}
	.st63{fill:#73B7A4;stroke:#020202;stroke-width:0.25;stroke-miterlimit:10;}
	.st64{fill:#FBCEC6;stroke:#020202;stroke-miterlimit:10;}
	.st65{fill:#73B7A4;stroke:#020202;stroke-width:0.75;stroke-miterlimit:10;}
	.st66{fill:#73B7A4;stroke:#070707;stroke-miterlimit:10;}
	.st67{fill:#FFFBF2;stroke:#070707;stroke-miterlimit:10;}
	.st68{fill:#E2B139;}
	.st69{fill:#FFFBF2;stroke:#020202;stroke-miterlimit:10;}
	.st70{fill:#ADCCFF;stroke:#020202;stroke-width:0.75;stroke-miterlimit:10;}
	.st71{fill:#FFFBF2;stroke:#020202;stroke-width:0.75;stroke-miterlimit:10;}
	.st72{fill:#FFD258;stroke:#050505;stroke-width:0.75;stroke-miterlimit:10;}
	.st73{fill:#FBCEC6;stroke:#020202;stroke-width:0.75;stroke-miterlimit:10;}
	.st74{fill:#73B7A4;stroke:#050505;stroke-miterlimit:10;}
	.st75{fill:#73B7A4;stroke:#050505;stroke-width:0.75;stroke-miterlimit:10;}
	.st76{fill:#E2C2A6;}
	.st77{fill:#DBC69E;}
	.st78{fill:#D39C94;}
	.st79{fill:#E0B344;}
	.st80{fill:#E0AE32;}
	.st81{fill:#4F9982;}
	.st82{fill:#DDBA9B;}
	.st83{fill:#FF5F7D;stroke:#000000;stroke-width:0.75;stroke-miterlimit:10;}
	.st84{fill:#FFD258;stroke:#000000;stroke-width:0.75;stroke-miterlimit:10;}
	.st85{fill:none;stroke:#000000;stroke-width:0.5;stroke-miterlimit:10;}
	.st86{opacity:0.43;fill:#7F3B48;}
	.st87{opacity:0.88;fill:#98BFFF;}
	.st88{opacity:0.75;fill:#FFFBF2;}
	.st89{opacity:0.88;fill:#719BD8;}
	.st90{opacity:0.75;fill:#EAD9B7;}
	.st91{fill:#FEF0E1;}
	.st92{fill:none;stroke:#070707;stroke-miterlimit:10;}
	.st93{fill:#C1962B;}
	.st94{fill:#D6B154;}
	.st95{fill:#5DA08B;}
	.st96{fill:#C6961E;}
	.st97{fill:#FF5F7D;stroke:#FFFFFF;stroke-miterlimit:10;}
	.st98{fill:#FF5F7D;stroke:#070707;stroke-miterlimit:10;}
</style>
<rect x="1.7" y="2.4" class="st4" width="697.5" height="475.2"/>
<g id="jsVB0P.tif">
	<g>
		<path class="st39" d="M234,303.7c0.8-9.1,0.9-17.6,13.1-18.2c5.3-0.3,8.3-10.9,3.9-16.9c-6.3-8.6-4.5-16.9-2.2-25.7
			c0.8-3.2,1.5-6.5,3-9.4c4.7-9.2,1.2-17.9-0.7-26.9c-1-4.8,0.5-10.2,0.8-15.6c-1.6-0.1-5.2,0.8-7.4-0.6c-3.6-2.3-7.9-5.6-8.9-9.2
			c-1.5-5.7,2.8-9.4,8.6-10.3c2.4-0.4,4.8-0.2,7.2-0.2c65.2,0,130.5,0,195.7,0c2.4,0,4.8-0.2,7.2,0.2c5.9,0.9,10.1,4.6,8.6,10.3
			c-0.9,3.7-5.3,7-8.9,9.3c-2.2,1.4-5.8,0.5-10.4,0.7c9.7,9.5,2.3,18.1,0.6,27c-0.4,1.9-0.5,4-0.2,5.9c0.4,2.3,1.3,4.6,2.1,6.9
			c4.8,13.9,8.4,27.5,0.9,42c-3.5,6.8-1.1,12.1,7.9,13.4c9.9,1.4,8.4,10.1,9.7,17.5C387.9,303.7,311.4,303.7,234,303.7z M402.5,191
			c0.4,5.5,2.1,10.6,0.9,15c-2.7,10-5.1,19.5-0.1,29.4c1.6,3.2,2.3,6.8,3.1,10.3c1.6,7.7,2.7,15.1-2.7,22.4c-2,2.7-2.1,7.6-1.5,11.2
			c1,5.5,15.3,9.2,21.4,6.1c3.7-1.9,5.5-12.5,1.9-17.5c-5-6.9-4.7-13.9-2.7-21.4c2.1-7.5,4.4-15,6.4-22.5c0.5-1.8,0.7-4.1,0.1-5.8
			c-2.8-8.8-7.9-17.5-0.5-27.2C419.1,191,410.5,191,402.5,191z M360.1,190.9c-0.6,6.4-0.9,12.5-1.8,18.5c-1.3,8.9-3.3,17.7,1.5,26.2
			c0.9,1.5,1.2,3.4,1.6,5.1c2.2,9.6,5.3,18.7-1.9,28.3c-2.3,3.1-1.1,13.2,1.5,14.7c4.8,2.7,12.4,3,17.9,1.3c5-1.5,5.9-8,3.1-12.8
			c-9.5-16.4-1.9-31.5,2.7-47c0.3-1.1,0.7-2.3,0.8-3.5c0.1-1.1,0.1-2.4-0.3-3.4c-3.7-8.9-7.6-17.7-1-27.5
			C375,190.9,366.7,190.9,360.1,190.9z M271.8,191.1c0.6,5.4,2.6,10.5,1.2,14.4c-4,11-4.6,21.3,0.3,32c1.6,3.5,2.9,7.4,3,11.2
			c0.2,5.5,0.6,11.8-1.7,16.5c-3.6,7.2-5.1,13.3,0.3,20.5c2.7,0,5.7,0,8.6,0c11.6,0,17.3-6.9,11.3-16.3c-6.7-10.6-4.3-19.8-1.4-29.9
			c1.4-4.9,3.1-9.7,4.4-14.6c0.5-2.1,0.7-4.6,0.1-6.8c-2.3-8.8-8-17.4-0.1-27C288.1,191.1,279.5,191.1,271.8,191.1z M315.1,190.9
			c0.7,5.2,3,10.3,1.6,14.1c-4.5,11.9-4.1,23.1,0.8,34.6c1.3,3,2.6,6.3,2.6,9.5c0,5.6,0.1,11.7-2,16.5c-2.6,5.8-6,11.6-1.2,16.6
			c2.7,2.8,8.7,3.2,13.2,3.4c8.2,0.4,12-3.5,8.6-11.2c-7.7-17.5-3.1-33.4,3-49.7c0.3-0.8,0.6-1.7,0.6-2.6c0-1.1,0.1-2.4-0.3-3.4
			c-3.3-9-8-17.8-0.7-27.7C331.7,190.9,323.3,190.9,315.1,190.9z"/>
	</g>
</g>
</svg>
