<?xml version="1.0" encoding="utf-8"?>
<!-- Generator: Adobe Illustrator 22.1.0, SVG Export Plug-In . SVG Version: 6.00 Build 0)  -->
<svg version="1.1" id="Calque_1" xmlns="http://www.w3.org/2000/svg" xmlns:xlink="http://www.w3.org/1999/xlink" x="0px" y="0px"
	 viewBox="0 0 700 480" style="enable-background:new 0 0 700 480;" xml:space="preserve">
<style type="text/css">
	.st0{fill:#DAECFF;}
	.st1{fill:#FFD258;}
	.st2{fill:#FBCEC6;}
	.st3{fill:#ADCCFF;}
	.st4{fill:#FF5F7D;}
	.st5{fill:none;stroke:#000000;stroke-width:2;stroke-miterlimit:10;}
	.st6{fill:#FFFBF2;}
	.st7{fill:#73B7A4;}
	.st8{fill:none;stroke:#000000;stroke-miterlimit:10;}
	.st9{fill:#98BFFF;}
	.st10{fill:#FFD258;stroke:#000000;stroke-width:2;stroke-miterlimit:10;}
	.st11{fill:#FEF0E1;stroke:#070707;stroke-miterlimit:10;}
	.st12{fill:#D3A533;}
	.st13{fill:#FFB5C0;stroke:#020202;stroke-miterlimit:10;}
	.st14{fill:#FF8E9E;}
	.st15{fill:#FF8E9E;stroke:#000000;stroke-miterlimit:10;}
	.st16{fill:#EA5B70;}
	.st17{fill:#020202;}
	.st18{fill:#FFD258;stroke:#050505;stroke-width:0.5;stroke-miterlimit:10;}
	.st19{fill:#FEF0E1;stroke:#020202;stroke-width:0.5;stroke-miterlimit:10;}
	.st20{fill:#DDB143;}
	.st21{fill:#D6AF8B;}
	.st22{fill:#FFFBF2;stroke:#020202;stroke-width:2;stroke-miterlimit:10;}
	.st23{fill:#FF5F7D;stroke:#020202;stroke-width:2;stroke-miterlimit:10;}
	.st24{fill:#FFFFFF;}
	.st25{fill:#ADCCFF;stroke:#020202;stroke-width:2;stroke-miterlimit:10;}
	.st26{fill:#FFD258;stroke:#050505;stroke-width:2;stroke-miterlimit:10;}
	.st27{fill:#85AAE0;}
	.st28{fill:#C99E32;}
	.st29{fill:#FFCF47;stroke:#020202;stroke-miterlimit:10;}
	.st30{fill:#FF5F7D;stroke:#050505;stroke-width:2;stroke-miterlimit:10;}
	.st31{fill:#F36B7F;stroke:#000000;stroke-miterlimit:10;}
	.st32{fill:#DBA92C;}
	.st33{fill:#73B7A4;stroke:#020202;stroke-width:2;stroke-miterlimit:10;}
	.st34{fill:#FFCF47;stroke:#020202;stroke-width:2;stroke-miterlimit:10;}
	.st35{fill:#99C6B8;}
	.st36{fill:#E2B23B;}
	.st37{fill:#C11A3E;}
	.st38{fill:#FEF0E1;stroke:#020202;stroke-miterlimit:10;}
	.st39{fill:#ADCCFF;stroke:#020202;stroke-miterlimit:10;}
	.st40{fill:#FFD258;stroke:#0C0C0C;stroke-width:0.75;stroke-miterlimit:10;}
	.st41{fill:#ADCCFF;stroke:#050505;stroke-width:2;stroke-miterlimit:10;}
	.st42{fill:#73B7A4;stroke:#050505;stroke-width:2;stroke-miterlimit:10;}
	.st43{fill:#FFFBF2;stroke:#050505;stroke-width:2;stroke-miterlimit:10;}
	.st44{fill:#FEF0E1;stroke:#020202;stroke-width:2;stroke-miterlimit:10;}
	.st45{fill:#D8A830;}
	.st46{fill:#FF5F7D;stroke:#050505;stroke-miterlimit:10;}
	.st47{fill:#73B7A4;stroke:#020202;stroke-miterlimit:10;}
	.st48{fill:#E8D2BF;}
	.st49{fill:#FFD258;stroke:#0A0A0A;stroke-width:2;stroke-miterlimit:10;}
	.st50{fill:#D8AB3A;}
	.st51{fill:#FFD258;stroke:#050505;stroke-miterlimit:10;}
	.st52{fill:#FBCEC6;stroke:#070707;stroke-miterlimit:10;}
	.st53{fill:#D84161;}
	.st54{fill:#FFD258;stroke:#0A0A0A;stroke-miterlimit:10;}
	.st55{fill:#FFD258;stroke:#0A0A0A;stroke-width:3;stroke-miterlimit:10;}
	.st56{fill:none;stroke:#0A0A0A;stroke-width:2;stroke-miterlimit:10;}
	.st57{fill:#FF5F7D;stroke:#000000;stroke-miterlimit:10;}
	.st58{fill:#FFD258;stroke:#000000;stroke-miterlimit:10;}
	.st59{fill:#FF5F7D;stroke:#050505;stroke-width:0.75;stroke-miterlimit:10;}
	.st60{fill:#FEF0E1;stroke:#020202;stroke-width:0.75;stroke-miterlimit:10;}
	.st61{fill:#FF5F7D;stroke:#050505;stroke-width:0.25;stroke-miterlimit:10;}
	.st62{fill:#FFD258;stroke:#0A0A0A;stroke-width:0.75;stroke-miterlimit:10;}
	.st63{fill:#73B7A4;stroke:#020202;stroke-width:0.25;stroke-miterlimit:10;}
	.st64{fill:#FBCEC6;stroke:#020202;stroke-miterlimit:10;}
	.st65{fill:#73B7A4;stroke:#020202;stroke-width:0.75;stroke-miterlimit:10;}
	.st66{fill:#73B7A4;stroke:#070707;stroke-miterlimit:10;}
	.st67{fill:#FFFBF2;stroke:#070707;stroke-miterlimit:10;}
	.st68{fill:#E2B139;}
	.st69{fill:#FFFBF2;stroke:#020202;stroke-miterlimit:10;}
	.st70{fill:#ADCCFF;stroke:#020202;stroke-width:0.75;stroke-miterlimit:10;}
	.st71{fill:#FFFBF2;stroke:#020202;stroke-width:0.75;stroke-miterlimit:10;}
	.st72{fill:#FFD258;stroke:#050505;stroke-width:0.75;stroke-miterlimit:10;}
	.st73{fill:#FBCEC6;stroke:#020202;stroke-width:0.75;stroke-miterlimit:10;}
	.st74{fill:#73B7A4;stroke:#050505;stroke-miterlimit:10;}
	.st75{fill:#73B7A4;stroke:#050505;stroke-width:0.75;stroke-miterlimit:10;}
	.st76{fill:#E2C2A6;}
	.st77{fill:#DBC69E;}
	.st78{fill:#D39C94;}
	.st79{fill:#E0B344;}
	.st80{fill:#E0AE32;}
	.st81{fill:#4F9982;}
	.st82{fill:#DDBA9B;}
	.st83{fill:#FF5F7D;stroke:#000000;stroke-width:0.75;stroke-miterlimit:10;}
	.st84{fill:#FFD258;stroke:#000000;stroke-width:0.75;stroke-miterlimit:10;}
	.st85{fill:none;stroke:#000000;stroke-width:0.5;stroke-miterlimit:10;}
	.st86{opacity:0.43;fill:#7F3B48;}
	.st87{opacity:0.88;fill:#98BFFF;}
	.st88{opacity:0.75;fill:#FFFBF2;}
	.st89{opacity:0.88;fill:#719BD8;}
	.st90{opacity:0.75;fill:#EAD9B7;}
	.st91{fill:#FEF0E1;}
	.st92{fill:none;stroke:#070707;stroke-miterlimit:10;}
	.st93{fill:#C1962B;}
	.st94{fill:#D6B154;}
	.st95{fill:#5DA08B;}
	.st96{fill:#C6961E;}
</style>
<rect x="-1.3" y="-4.1" class="st0" width="699.7" height="480"/>
<g id="ijbmXy.tif">
	<g>
		<path class="st24" d="M276.4,383.3c8.7-14.9,16.7-28.2,24.1-41.8c2.9-5.2,6.3-7.2,12.3-7.1c21.9,0.4,43.8,0.1,65.8,0.2
			c29.7,0.1,34.1-4.1,33.9-33.4c-0.1-12.9,0-25.7,0-38.6c0-8.6,0-17.1,0-23.9c-19.6-3.2-37.5-6.1-53.3-8.7
			c-4.8,2.1-8.3,4.6-12.2,5.1c-5.8,0.8-11.8,0-17.7,0.3c-6.3,0.4-8.7-2.1-8.4-8.5c0.4-9.6,0.1-19.2,0.1-29.7
			c-32.6,0-63.8-0.4-95,0.2c-10.9,0.2-18,9.2-18.1,20.6c-0.2,32-0.2,64,0,96c0.1,11.2,7.7,19.1,18.6,20.2c4.1,0.4,8.4,0.6,12.5,0.1
			c6.8-0.8,10.7,1.7,14,7.8C260,355.7,267.9,368.6,276.4,383.3z M420.9,184.2c0-1.4,0-2.9-0.1-4.3c3.6,0,7.5,0.8,10.8-0.2
			c3.7-1.1,9.4-3.5,9.8-6.1c1.1-7.2-5.3-6.5-10.1-6.6c-11-0.1-22,0-35.3,0c2.5-7.1,4.8-12,5.9-17.1c1.6-8,3.1-16.1,3.1-24.2
			c0-2.2-5.1-4.4-7.9-6.6c-1.7,2.2-4.7,4.4-4.8,6.7c-1.3,21.6-13.8,34.7-31.9,44.1c-2,1-4.4,3.8-4.5,5.8
			c-0.4,15.5-0.2,31.1-0.2,45.1c24.1,14.8,49.2,10.6,73.7,10.8c3.3,0,6.6-4.2,9.9-6.4c-3.4-2.1-6.5-4.9-10.2-6.1
			c-3.8-1.2-8.1-0.8-12.1-1.1c0.1-1.2,0.1-2.4,0.2-3.6c5.4,0,10.9,0.8,16.1-0.3c3.7-0.7,6.9-3.9,10.3-6c-3.3-2.3-6.3-5.5-10-6.5
			c-4.5-1.3-9.5-0.8-14.2-1.1c0-1.2,0.1-2.3,0.1-3.5c5,0,10.1,0.8,14.8-0.2c4-0.9,10.6-3.6,10.8-5.9c0.6-7.6-6.1-6.6-11.3-6.6
			C429.4,184.2,425.1,184.2,420.9,184.2z M325.9,230c8.7,0,16.7,0,24.7,0c0-22.3,0-43.6,0-65.3c-8.6,0-16.3,0-24.7,0
			C325.9,186.8,325.9,208.2,325.9,230z"/>
		<path class="st64" d="M276.4,383.3c-8.5-14.7-16.4-27.6-23.5-41c-3.2-6.1-7.2-8.7-14-7.8c-4.1,0.5-8.4,0.3-12.5-0.1
			c-10.8-1.1-18.5-9-18.6-20.2c-0.3-32-0.3-64,0-96c0.1-11.4,7.2-20.4,18.1-20.6c31.2-0.7,62.4-0.2,95-0.2c0,10.4,0.3,20.1-0.1,29.7
			c-0.3,6.4,2.1,8.9,8.4,8.5c5.9-0.4,11.9,0.5,17.7-0.3c3.8-0.5,7.4-3,12.2-5.1c15.7,2.6,33.7,5.5,53.3,8.7c0,6.8,0,15.3,0,23.9
			c0,12.9-0.1,25.7,0,38.6c0.1,29.2-4.2,33.5-33.9,33.4c-21.9-0.1-43.8,0.2-65.8-0.2c-6-0.1-9.4,1.8-12.3,7.1
			C293.1,355.1,285.1,368.4,276.4,383.3z M310,282.5c9.3,0.1,16.6-7.1,16.8-16.3c0.2-9.5-7.7-17.4-17.1-17.1
			c-9,0.2-16.4,7.9-16.3,16.9C293.4,275,300.9,282.4,310,282.5z M272.3,266.1c0.1-9-7.3-16.8-16.2-17.1c-9.5-0.3-17.3,7.3-17.2,17
			c0.1,9.3,7.2,16.3,16.6,16.4C264.6,282.5,272.2,275.2,272.3,266.1z M381.3,265.5c-0.2-9.2-7.6-16.5-16.7-16.4
			c-8.9,0.1-16.7,7.8-16.7,16.6c-0.1,9.4,8,17.1,17.5,16.8C374.6,282.2,381.5,274.8,381.3,265.5z"/>
		<path class="st47" d="M420.9,184.2c4.3,0,8.5,0,12.8,0c5.2,0,11.9-0.9,11.3,6.6c-0.2,2.3-6.8,5-10.8,5.9c-4.7,1-9.9,0.2-14.8,0.2
			c0,1.2-0.1,2.3-0.1,3.5c4.8,0.3,9.8-0.2,14.2,1.1c3.6,1.1,6.7,4.3,10,6.5c-3.4,2.1-6.6,5.3-10.3,6c-5.2,1-10.7,0.3-16.1,0.3
			c-0.1,1.2-0.1,2.4-0.2,3.6c4.1,0.3,8.4-0.1,12.1,1.1c3.7,1.2,6.8,4,10.2,6.1c-3.3,2.2-6.6,6.4-9.9,6.4c-24.5-0.1-49.6,4-73.7-10.8
			c0-14-0.2-29.6,0.2-45.1c0-2,2.4-4.8,4.5-5.8c18.1-9.4,30.6-22.4,31.9-44.1c0.1-2.3,3.1-4.5,4.8-6.7c2.8,2.2,8,4.4,7.9,6.6
			c-0.1,8.1-1.5,16.2-3.1,24.2c-1.1,5.2-3.4,10.1-5.9,17.1c13.3,0,24.3-0.1,35.3,0c4.8,0,11.2-0.6,10.1,6.6
			c-0.4,2.5-6.1,4.9-9.8,6.1c-3.3,1-7.2,0.2-10.8,0.2C420.8,181.3,420.8,182.8,420.9,184.2z"/>
		<path class="st47" d="M325.9,230c0-21.8,0-43.2,0-65.3c8.4,0,16.2,0,24.7,0c0,21.7,0,43,0,65.3C342.6,230,334.6,230,325.9,230z"/>
		<path class="st24" d="M310,282.5c-9.1-0.1-16.6-7.4-16.6-16.5c-0.1-9,7.3-16.7,16.3-16.9c9.4-0.2,17.3,7.7,17.1,17.1
			C326.6,275.4,319.3,282.5,310,282.5z M322.7,265.5c-1-7.3-5.2-12-12.9-11.9c-7.1,0.1-11.8,4.6-12,11.8c-0.2,7.6,4.2,12.6,12,12.7
			C317.7,278.2,321.6,273.3,322.7,265.5z"/>
		<path class="st24" d="M272.3,266.1c-0.1,9-7.7,16.4-16.8,16.3c-9.4-0.1-16.5-7.1-16.6-16.4c-0.1-9.6,7.6-17.3,17.2-17
			C265,249.4,272.4,257.2,272.3,266.1z M255.7,278.4c7.8-1.1,12.5-5.6,12.1-13.1c-0.4-7.5-5.5-12.2-13.2-11.6
			c-7,0.5-11.5,5-11.3,12.4C243.4,273.8,248.2,277.6,255.7,278.4z"/>
		<path class="st24" d="M381.3,265.5c0.2,9.4-6.7,16.7-15.9,17c-9.5,0.3-17.6-7.4-17.5-16.8c0.1-8.8,7.9-16.6,16.7-16.6
			C373.7,249,381.1,256.3,381.3,265.5z M377.2,265.1c-1-7.1-5.1-11.9-12.9-11.6c-7.6,0.4-12.2,5.4-11.8,13c0.3,7,4.9,11.6,12.2,11.5
			C372.5,278,376.5,273.3,377.2,265.1z"/>
		<path class="st69" d="M322.7,265.5c-1.1,7.9-5,12.7-12.8,12.6c-7.9-0.1-12.2-5.1-12-12.7c0.2-7.2,4.8-11.7,12-11.8
			C317.5,253.4,321.6,258.2,322.7,265.5z"/>
		<path class="st69" d="M255.7,278.4c-7.4-0.7-12.2-4.5-12.4-12.4c-0.2-7.4,4.3-11.9,11.3-12.4c7.7-0.5,12.8,4.1,13.2,11.6
			C268.2,272.8,263.5,277.2,255.7,278.4z"/>
		<path class="st69" d="M377.2,265.1c-0.7,8.2-4.6,12.9-12.5,12.9c-7.3,0.1-11.9-4.5-12.2-11.5c-0.4-7.6,4.2-12.7,11.8-13
			C372,253.2,376.1,258,377.2,265.1z"/>
	</g>
</g>
</svg>
