<?xml version="1.0" encoding="utf-8"?>
<!-- Generator: Adobe Illustrator 22.1.0, SVG Export Plug-In . SVG Version: 6.00 Build 0)  -->
<svg version="1.1" id="Calque_1" xmlns="http://www.w3.org/2000/svg" xmlns:xlink="http://www.w3.org/1999/xlink" x="0px" y="0px"
	 viewBox="0 0 700 480" style="enable-background:new 0 0 700 480;" xml:space="preserve">
<style type="text/css">
	.st0{fill:#DAECFF;}
	.st1{fill:#FFD258;}
	.st2{fill:#FBCEC6;}
	.st3{fill:#ADCCFF;}
	.st4{fill:#FF5F7D;}
	.st5{fill:none;stroke:#000000;stroke-width:2;stroke-miterlimit:10;}
	.st6{fill:#FFFBF2;}
	.st7{fill:#73B7A4;}
	.st8{fill:none;stroke:#000000;stroke-miterlimit:10;}
	.st9{fill:#98BFFF;}
	.st10{fill:#FFD258;stroke:#000000;stroke-width:2;stroke-miterlimit:10;}
	.st11{fill:#FEF0E1;stroke:#070707;stroke-miterlimit:10;}
	.st12{fill:#D3A533;}
	.st13{fill:#FFB5C0;stroke:#020202;stroke-miterlimit:10;}
	.st14{fill:#FF8E9E;}
	.st15{fill:#FF8E9E;stroke:#000000;stroke-miterlimit:10;}
	.st16{fill:#EA5B70;}
	.st17{fill:#020202;}
	.st18{fill:#FFD258;stroke:#050505;stroke-width:0.5;stroke-miterlimit:10;}
	.st19{fill:#FEF0E1;stroke:#020202;stroke-width:0.5;stroke-miterlimit:10;}
	.st20{fill:#DDB143;}
	.st21{fill:#D6AF8B;}
	.st22{fill:#FFFBF2;stroke:#020202;stroke-width:2;stroke-miterlimit:10;}
	.st23{fill:#FF5F7D;stroke:#020202;stroke-width:2;stroke-miterlimit:10;}
	.st24{fill:#FFFFFF;}
	.st25{fill:#ADCCFF;stroke:#020202;stroke-width:2;stroke-miterlimit:10;}
	.st26{fill:#FFD258;stroke:#050505;stroke-width:2;stroke-miterlimit:10;}
	.st27{fill:#85AAE0;}
	.st28{fill:#C99E32;}
	.st29{fill:#FFCF47;stroke:#020202;stroke-miterlimit:10;}
	.st30{fill:#FF5F7D;stroke:#050505;stroke-width:2;stroke-miterlimit:10;}
	.st31{fill:#F36B7F;stroke:#000000;stroke-miterlimit:10;}
	.st32{fill:#DBA92C;}
	.st33{fill:#73B7A4;stroke:#020202;stroke-width:2;stroke-miterlimit:10;}
	.st34{fill:#FFCF47;stroke:#020202;stroke-width:2;stroke-miterlimit:10;}
	.st35{fill:#99C6B8;}
	.st36{fill:#E2B23B;}
	.st37{fill:#C11A3E;}
	.st38{fill:#FEF0E1;stroke:#020202;stroke-miterlimit:10;}
	.st39{fill:#ADCCFF;stroke:#020202;stroke-miterlimit:10;}
	.st40{fill:#FFD258;stroke:#0C0C0C;stroke-width:0.75;stroke-miterlimit:10;}
	.st41{fill:#ADCCFF;stroke:#050505;stroke-width:2;stroke-miterlimit:10;}
	.st42{fill:#73B7A4;stroke:#050505;stroke-width:2;stroke-miterlimit:10;}
	.st43{fill:#FFFBF2;stroke:#050505;stroke-width:2;stroke-miterlimit:10;}
	.st44{fill:#FEF0E1;stroke:#020202;stroke-width:2;stroke-miterlimit:10;}
	.st45{fill:#D8A830;}
	.st46{fill:#FF5F7D;stroke:#050505;stroke-miterlimit:10;}
	.st47{fill:#73B7A4;stroke:#020202;stroke-miterlimit:10;}
	.st48{fill:#E8D2BF;}
	.st49{fill:#FFD258;stroke:#0A0A0A;stroke-width:2;stroke-miterlimit:10;}
	.st50{fill:#D8AB3A;}
	.st51{fill:#FFD258;stroke:#050505;stroke-miterlimit:10;}
	.st52{fill:#FBCEC6;stroke:#070707;stroke-miterlimit:10;}
	.st53{fill:#D84161;}
	.st54{fill:#FFD258;stroke:#0A0A0A;stroke-miterlimit:10;}
	.st55{fill:#FFD258;stroke:#0A0A0A;stroke-width:3;stroke-miterlimit:10;}
	.st56{fill:none;stroke:#0A0A0A;stroke-width:2;stroke-miterlimit:10;}
	.st57{fill:#FF5F7D;stroke:#000000;stroke-miterlimit:10;}
	.st58{fill:#FFD258;stroke:#000000;stroke-miterlimit:10;}
	.st59{fill:#FF5F7D;stroke:#050505;stroke-width:0.75;stroke-miterlimit:10;}
	.st60{fill:#FEF0E1;stroke:#020202;stroke-width:0.75;stroke-miterlimit:10;}
	.st61{fill:#FF5F7D;stroke:#050505;stroke-width:0.25;stroke-miterlimit:10;}
	.st62{fill:#FFD258;stroke:#0A0A0A;stroke-width:0.75;stroke-miterlimit:10;}
	.st63{fill:#73B7A4;stroke:#020202;stroke-width:0.25;stroke-miterlimit:10;}
	.st64{fill:#FBCEC6;stroke:#020202;stroke-miterlimit:10;}
	.st65{fill:#73B7A4;stroke:#020202;stroke-width:0.75;stroke-miterlimit:10;}
	.st66{fill:#73B7A4;stroke:#070707;stroke-miterlimit:10;}
	.st67{fill:#FFFBF2;stroke:#070707;stroke-miterlimit:10;}
	.st68{fill:#E2B139;}
	.st69{fill:#FFFBF2;stroke:#020202;stroke-miterlimit:10;}
	.st70{fill:#ADCCFF;stroke:#020202;stroke-width:0.75;stroke-miterlimit:10;}
	.st71{fill:#FFFBF2;stroke:#020202;stroke-width:0.75;stroke-miterlimit:10;}
	.st72{fill:#FFD258;stroke:#050505;stroke-width:0.75;stroke-miterlimit:10;}
	.st73{fill:#FBCEC6;stroke:#020202;stroke-width:0.75;stroke-miterlimit:10;}
	.st74{fill:#73B7A4;stroke:#050505;stroke-miterlimit:10;}
	.st75{fill:#73B7A4;stroke:#050505;stroke-width:0.75;stroke-miterlimit:10;}
	.st76{fill:#E2C2A6;}
	.st77{fill:#DBC69E;}
	.st78{fill:#D39C94;}
	.st79{fill:#E0B344;}
	.st80{fill:#E0AE32;}
	.st81{fill:#4F9982;}
	.st82{fill:#DDBA9B;}
	.st83{fill:#FF5F7D;stroke:#000000;stroke-width:0.75;stroke-miterlimit:10;}
	.st84{fill:#FFD258;stroke:#000000;stroke-width:0.75;stroke-miterlimit:10;}
	.st85{fill:none;stroke:#000000;stroke-width:0.5;stroke-miterlimit:10;}
	.st86{opacity:0.43;fill:#7F3B48;}
	.st87{opacity:0.88;fill:#98BFFF;}
	.st88{opacity:0.75;fill:#FFFBF2;}
	.st89{opacity:0.88;fill:#719BD8;}
	.st90{opacity:0.75;fill:#EAD9B7;}
	.st91{fill:#FEF0E1;}
	.st92{fill:none;stroke:#070707;stroke-miterlimit:10;}
	.st93{fill:#C1962B;}
	.st94{fill:#D6B154;}
	.st95{fill:#5DA08B;}
	.st96{fill:#C6961E;}
</style>
<rect x="0.6" y="2.1" class="st4" width="697.5" height="475.2"/>
<g id="I66Koh.tif">
	<g>
		<path class="st49" d="M333.2,221.1c0,3.2,0.1,6,0,8.8c-0.2,6.4,4.2,11.5,10.6,11.7c4.5,0.2,9.1,0.2,13.6,0
			c6.4-0.2,10.8-5.3,10.6-11.7c-0.1-2.8,0-5.6,0-8.4c15.4,1.8,25.6,10.6,26.3,25.5c0.2,4.5-0.8,9.1-1.5,13.7
			c-0.5,3.5-1.5,6.9-1.9,10.4c-0.8,7.3,1.2,13.8,5.9,19.5c5.9,7.3,11.2,15.1,12.5,24.7c2.4,18-4.3,39.5-27.6,48
			c-12.6,4.6-25.7,5.3-38.9,4.5c-9.8-0.6-19.2-2.6-28.1-6.9c-22.7-11-27.5-41.1-18.3-57.1c2.2-3.8,4.3-7.9,7.2-11.2
			c8.4-9.4,9-20,5.5-31.3c-1.7-5.6-2.2-11.3-1.3-17.2c1.5-10.1,7.3-16.8,16.7-20.4C327.2,222.6,330.2,221.9,333.2,221.1z M350.8,287
			c9.6,0.1,17.5-7.5,17.5-17c0.1-9.8-7.7-17.8-17.4-17.8c-9.5,0-17.4,7.9-17.5,17.2C333.4,279.1,341.1,286.9,350.8,287z
			 M333.5,315.5c11.7,0,23.1,0,34.6,0c0-2.9,0-5.7,0-8.3c-11.6,0-23.1,0-34.6,0C333.5,310,333.5,312.6,333.5,315.5z"/>
		<path class="st49" d="M362.7,204.8c0.3,8.3,0.6,16.7,0.9,25c0.2,4.5-2.3,7.2-6.8,7.4c-4.2,0.2-8.4,0.2-12.5,0
			c-4.6-0.2-6.9-3-6.8-7.7c0.6-16.8,1.3-33.5,1.9-50.3c0.2-4.5,2.5-7,7.1-7.2c2.7-0.1,5.4-0.1,8.2,0c4.5,0.2,6.9,2.7,7.1,7.3
			C362,187.8,362.3,196.3,362.7,204.8C362.7,204.8,362.7,204.8,362.7,204.8z"/>
		<path class="st49" d="M337.4,146c0-4.9,0-9.8,0-14.7c0-4.7,2.5-7.2,7.2-7.3c3.9-0.1,7.8-0.1,11.7,0c4.7,0.1,7.2,2.6,7.3,7.3
			c0,9.7,0,19.4,0,29.1c0,4.5-2.5,7.1-7.1,7.2c-4,0.1-8,0.1-12,0c-4.6-0.1-7.1-2.6-7.1-7.1C337.4,155.6,337.4,150.8,337.4,146z"/>
		<path d="M333,126.3c0,2.9,0,5.6,0,8.4c-2.1,0-4.1,0-6.3,0c0-2.8,0-5.5,0-8.4C328.8,126.3,330.8,126.3,333,126.3z"/>
		<path d="M374.4,126.4c0,2.8,0,5.6,0,8.4c-2.1,0-4.1,0-6.2,0c0-2.8,0-5.5,0-8.4C370.2,126.4,372.2,126.4,374.4,126.4z"/>
		<path d="M332.9,141.5c0,3,0,5.6,0,8.5c-2.1,0-4.1,0-6.2,0c0-2.8,0-5.6,0-8.5C328.8,141.5,330.8,141.5,332.9,141.5z"/>
		<path d="M368.1,150c0-2.9,0-5.5,0-8.4c2.1,0,4.1,0,6.3,0c0,2.7,0,5.5,0,8.4C372.3,150,370.3,150,368.1,150z"/>
		<path d="M332.9,165.3c-2,0-4,0-6.2,0c0-2.8,0-5.5,0-8.4c2.1,0,4,0,6.2,0C332.9,159.6,332.9,162.4,332.9,165.3z"/>
		<path d="M374.4,165.3c-2.2,0-4.2,0-6.3,0c0-2.8,0-5.5,0-8.4c2.1,0,4.1,0,6.3,0C374.4,159.7,374.4,162.3,374.4,165.3z"/>
		<path class="st50" d="M407.9,315c-1.1-7.8-4.7-14.3-9.2-20.5c-6.6,24.3-15.6,47.8-26.2,70.8c2.6-0.6,5.2-1.4,7.8-2.4
			C403.6,354.4,410.3,333,407.9,315z"/>
	</g>
</g>
</svg>
