<?xml version="1.0" encoding="utf-8"?>
<!-- Generator: Adobe Illustrator 22.1.0, SVG Export Plug-In . SVG Version: 6.00 Build 0)  -->
<svg version="1.1" id="Calque_1" xmlns="http://www.w3.org/2000/svg" xmlns:xlink="http://www.w3.org/1999/xlink" x="0px" y="0px"
	 viewBox="0 0 700 480" style="enable-background:new 0 0 700 480;" xml:space="preserve">
<style type="text/css">
	.st0{fill:#DAECFF;}
	.st1{fill:#FFD258;}
	.st2{fill:#FBCEC6;}
	.st3{fill:#ADCCFF;}
	.st4{fill:#FF5F7D;}
	.st5{fill:none;stroke:#000000;stroke-width:2;stroke-miterlimit:10;}
	.st6{fill:#FFFBF2;}
	.st7{fill:#73B7A4;}
	.st8{fill:none;stroke:#000000;stroke-miterlimit:10;}
	.st9{fill:#98BFFF;}
	.st10{fill:#FFD258;stroke:#000000;stroke-width:2;stroke-miterlimit:10;}
	.st11{fill:#FEF0E1;stroke:#070707;stroke-miterlimit:10;}
	.st12{fill:#D3A533;}
	.st13{fill:#FFB5C0;stroke:#020202;stroke-miterlimit:10;}
	.st14{fill:#FF8E9E;}
	.st15{fill:#FF8E9E;stroke:#000000;stroke-miterlimit:10;}
	.st16{fill:#EA5B70;}
	.st17{fill:#020202;}
	.st18{fill:#FFD258;stroke:#050505;stroke-width:0.5;stroke-miterlimit:10;}
	.st19{fill:#FEF0E1;stroke:#020202;stroke-width:0.5;stroke-miterlimit:10;}
	.st20{fill:#DDB143;}
	.st21{fill:#D6AF8B;}
	.st22{fill:#FFFBF2;stroke:#020202;stroke-width:2;stroke-miterlimit:10;}
	.st23{fill:#FF5F7D;stroke:#020202;stroke-width:2;stroke-miterlimit:10;}
	.st24{fill:#FFFFFF;}
	.st25{fill:#ADCCFF;stroke:#020202;stroke-width:2;stroke-miterlimit:10;}
	.st26{fill:#FFD258;stroke:#050505;stroke-width:2;stroke-miterlimit:10;}
	.st27{fill:#85AAE0;}
	.st28{fill:#C99E32;}
	.st29{fill:#FFCF47;stroke:#020202;stroke-miterlimit:10;}
	.st30{fill:#FF5F7D;stroke:#050505;stroke-width:2;stroke-miterlimit:10;}
	.st31{fill:#F36B7F;stroke:#000000;stroke-miterlimit:10;}
	.st32{fill:#DBA92C;}
	.st33{fill:#73B7A4;stroke:#020202;stroke-width:2;stroke-miterlimit:10;}
	.st34{fill:#FFCF47;stroke:#020202;stroke-width:2;stroke-miterlimit:10;}
	.st35{fill:#99C6B8;}
	.st36{fill:#E2B23B;}
	.st37{fill:#C11A3E;}
	.st38{fill:#FEF0E1;stroke:#020202;stroke-miterlimit:10;}
	.st39{fill:#ADCCFF;stroke:#020202;stroke-miterlimit:10;}
	.st40{fill:#FFD258;stroke:#0C0C0C;stroke-width:0.75;stroke-miterlimit:10;}
	.st41{fill:#ADCCFF;stroke:#050505;stroke-width:2;stroke-miterlimit:10;}
	.st42{fill:#73B7A4;stroke:#050505;stroke-width:2;stroke-miterlimit:10;}
	.st43{fill:#FFFBF2;stroke:#050505;stroke-width:2;stroke-miterlimit:10;}
	.st44{fill:#FEF0E1;stroke:#020202;stroke-width:2;stroke-miterlimit:10;}
	.st45{fill:#D8A830;}
	.st46{fill:#FF5F7D;stroke:#050505;stroke-miterlimit:10;}
	.st47{fill:#73B7A4;stroke:#020202;stroke-miterlimit:10;}
	.st48{fill:#E8D2BF;}
	.st49{fill:#FFD258;stroke:#0A0A0A;stroke-width:2;stroke-miterlimit:10;}
	.st50{fill:#D8AB3A;}
	.st51{fill:#FFD258;stroke:#050505;stroke-miterlimit:10;}
	.st52{fill:#FBCEC6;stroke:#070707;stroke-miterlimit:10;}
	.st53{fill:#D84161;}
	.st54{fill:#FFD258;stroke:#0A0A0A;stroke-miterlimit:10;}
	.st55{fill:#FFD258;stroke:#0A0A0A;stroke-width:3;stroke-miterlimit:10;}
	.st56{fill:none;stroke:#0A0A0A;stroke-width:2;stroke-miterlimit:10;}
	.st57{fill:#FF5F7D;stroke:#000000;stroke-miterlimit:10;}
	.st58{fill:#FFD258;stroke:#000000;stroke-miterlimit:10;}
	.st59{fill:#FF5F7D;stroke:#050505;stroke-width:0.75;stroke-miterlimit:10;}
	.st60{fill:#FEF0E1;stroke:#020202;stroke-width:0.75;stroke-miterlimit:10;}
	.st61{fill:#FF5F7D;stroke:#050505;stroke-width:0.25;stroke-miterlimit:10;}
	.st62{fill:#FFD258;stroke:#0A0A0A;stroke-width:0.75;stroke-miterlimit:10;}
	.st63{fill:#73B7A4;stroke:#020202;stroke-width:0.25;stroke-miterlimit:10;}
	.st64{fill:#FBCEC6;stroke:#020202;stroke-miterlimit:10;}
	.st65{fill:#73B7A4;stroke:#020202;stroke-width:0.75;stroke-miterlimit:10;}
	.st66{fill:#73B7A4;stroke:#070707;stroke-miterlimit:10;}
	.st67{fill:#FFFBF2;stroke:#070707;stroke-miterlimit:10;}
	.st68{fill:#E2B139;}
	.st69{fill:#FFFBF2;stroke:#020202;stroke-miterlimit:10;}
	.st70{fill:#ADCCFF;stroke:#020202;stroke-width:0.75;stroke-miterlimit:10;}
	.st71{fill:#FFFBF2;stroke:#020202;stroke-width:0.75;stroke-miterlimit:10;}
	.st72{fill:#FFD258;stroke:#050505;stroke-width:0.75;stroke-miterlimit:10;}
	.st73{fill:#FBCEC6;stroke:#020202;stroke-width:0.75;stroke-miterlimit:10;}
	.st74{fill:#73B7A4;stroke:#050505;stroke-miterlimit:10;}
	.st75{fill:#73B7A4;stroke:#050505;stroke-width:0.75;stroke-miterlimit:10;}
	.st76{fill:#E2C2A6;}
	.st77{fill:#DBC69E;}
	.st78{fill:#D39C94;}
	.st79{fill:#E0B344;}
	.st80{fill:#E0AE32;}
	.st81{fill:#4F9982;}
	.st82{fill:#DDBA9B;}
	.st83{fill:#FF5F7D;stroke:#000000;stroke-width:0.75;stroke-miterlimit:10;}
	.st84{fill:#FFD258;stroke:#000000;stroke-width:0.75;stroke-miterlimit:10;}
	.st85{fill:none;stroke:#000000;stroke-width:0.5;stroke-miterlimit:10;}
	.st86{opacity:0.43;fill:#7F3B48;}
	.st87{opacity:0.88;fill:#98BFFF;}
	.st88{opacity:0.75;fill:#FFFBF2;}
	.st89{opacity:0.88;fill:#719BD8;}
	.st90{opacity:0.75;fill:#EAD9B7;}
	.st91{fill:#FEF0E1;}
	.st92{fill:none;stroke:#070707;stroke-miterlimit:10;}
	.st93{fill:#C1962B;}
	.st94{fill:#D6B154;}
	.st95{fill:#5DA08B;}
	.st96{fill:#C6961E;}
</style>
<rect x="-3.6" y="0.8" class="st1" width="703.1" height="476.3"/>
<g id="_x33_SUULv.tif">
	<g>
		<path class="st39" d="M401.1,306.7c-10.2,3.4-22,4.2-34.2-0.8c-4.2-11-4.7-23,0.2-35.3c11.5-4,23.6-4.7,35.6,0.5
			C405.6,282.2,408.6,294,401.1,306.7z M375.9,288.5c3.3,3.2,6,5.7,8.6,8.2c3.4-2.9,6.3-5.4,8.3-7.1c-2.9-4-5.2-7-7.8-10.6
			C381.5,282.7,379.1,285.2,375.9,288.5z"/>
		<path class="st39" d="M289.5,270.8c5,11.8,4.3,23.7,0.2,35.3c-11.7,4.2-23.8,4.5-35.6,0.1c-3.9-11.6-4.6-23.7,0.1-35.5
			C265.6,266.5,277.5,266,289.5,270.8z M272,297.3c3.2-3.4,5.7-5.9,8.6-9c-3-3-5.6-5.6-9-8.9c-3,3.2-5.5,5.9-7.8,8.4
			C266.6,291,269.1,293.9,272,297.3z"/>
		<path class="st39" d="M254.1,193.2c-4.2-11.4-4.3-23.3,0.2-35.5c11-3.7,23-4.7,35.5,0.5c4.1,11,4.7,23-0.3,35.2
			C277.9,197.6,265.8,197.9,254.1,193.2z M273.7,168.5c-3.8,2.6-7.1,4.9-10.6,7.3c3.4,3.2,5.9,5.6,9,8.5c3-2.9,5.6-5.5,8.6-8.4
			C277.6,172.7,275.2,170.1,273.7,168.5z"/>
		<path class="st39" d="M366.8,158.4c12.4-5.3,24-4.5,35.8-0.4c3.4,11.2,5.4,23.2-1.2,35.9c-10.4,3.7-22.4,4.5-34.4-0.6
			C362.4,181.5,362.7,169.5,366.8,158.4z M376,175c3.4,3.7,5.7,6.3,9,10c2.8-3.5,5.1-6.5,7.7-9.6c-2.3-2.6-5-5.6-7.2-8.2
			C381.7,170.2,379,172.5,376,175z"/>
		<path class="st39" d="M391.3,338.5c0.8-6.5-4-14.6,4.3-17.8c5.6-2.2,12.6-1,20.5-1.3c0-4.1,0-8.1,0-12.1
			c0.1-11.7,1.2-12.8,13-12.5c1.9,0,3.8,0.4,5.9,0.6c0,14.5,0,28.5,0,43.1C420.4,338.5,406.1,338.5,391.3,338.5z"/>
		<path class="st39" d="M241.1,318.1c8.6,1.7,16.6,1.9,23,5.3c2.5,1.3,1.4,9.6,1.9,15.2c-15.3,0-29.4,0-44,0c0-14.2,0-28.5,0-43.4
			c6.1,0.2,14.1-4,17.5,3.8C242,304.6,240.7,311.9,241.1,318.1z"/>
		<path class="st39" d="M222,125.3c14.5,0,28.4,0,43.2,0c-0.2,6.4,3.9,14.3-3.5,17.8c-5.6,2.6-13,1.3-21.1,1.8c0,4.1,0,8.1,0,12.1
			c-0.1,11.5-1.1,12.5-12.3,12.4c-1.9,0-3.8-0.2-6.3-0.3C222,154.5,222,140.3,222,125.3z"/>
		<path class="st39" d="M434.9,125.4c0,14.8,0,28.9,0,43.5c-6.6-0.4-14.6,4-17.9-4c-2.4-5.8-1.2-13-1.6-20.6c-4.3,0-8.1,0-11.9,0
			c-11.6-0.1-12.9-1.4-12.6-13c0.1-1.9,0.4-3.8,0.7-5.9C406,125.4,420.1,125.4,434.9,125.4z"/>
		<path class="st39" d="M378.5,338.7c-14.8,0-28.6,0-43.1,0c0-14.4,0-28.6,0-43.5c6.2,0.2,14.3-3.9,17.3,4.4
			c2.1,5.6,0.4,12.5,0.4,20.3c4.9,0,9,0,13,0c11.5,0.1,12.5,1,12.4,12.3C378.5,334,378.5,335.9,378.5,338.7z"/>
		<path class="st39" d="M277.9,338.5c2-6.6-3.9-15.2,5.3-18c5.8-1.8,12.6-0.3,20.1-0.3c0-5,0-9.1,0-13.2c0-11.3,1.2-12.5,12.3-12.3
			c1.9,0,3.8,0.4,6,0.6c0,14.4,0,28.5,0,43.1C307.2,338.5,293.2,338.5,277.9,338.5z"/>
		<path class="st39" d="M303.2,144.3c-5,0-9.1,0-13.3,0c-10.8-0.1-11.9-1.2-11.8-12c0-2.2,0.2-4.3,0.3-6.8c14.5,0,28.6,0,43,0
			c0,14.2,0,28,0,41.9c-11.1,5.8-18.2,2.1-18.2-9.8C303.2,153.4,303.2,149.3,303.2,144.3z"/>
		<path class="st39" d="M335.1,168.9c0-14.9,0-28.9,0-43.4c14.5,0,28.5,0,43.2,0c-1.2,6.5,4,14.7-4.4,17.9c-5.9,2.2-13.1,1-20.6,1.4
			c0,4.1,0,7.9,0,11.7c0,12.1-1.1,13.2-13.4,12.8C338.6,169.3,337.2,169.1,335.1,168.9z"/>
		<path class="st39" d="M435,238.8c0,14.7,0,28.5,0,43c-6.4-0.5-14.4,4.1-17.8-3.8c-2.5-5.7-1.2-13.1-1.7-20.9c-3.3,0-6.5,0-9.7,0
			c-15,0-17-2.6-13.7-18.3C406.1,238.8,420.1,238.8,435,238.8z"/>
		<path class="st39" d="M240.6,256.7c0,5.6,0,10,0,14.4c-0.1,9.9-1.3,11-11.1,11c-2.4,0-4.9,0-7.7,0c0-14.8,0-28.8,0-43.3
			c14.4,0,28.5,0,43.4,0c-0.4,6.3,3.9,14.3-4.2,17.5C255.3,258.5,248,256.7,240.6,256.7z"/>
		<path class="st39" d="M434.7,225.3c-14.5,0-28.5,0-43.3,0c0.5-6.6-4-14.6,4.4-17.7c5.6-2,12.6-0.4,20.2-0.4c0-4.9,0-8.9,0-12.9
			c0.1-11.7,0.8-12.4,12.2-12.4c1.9,0,3.9,0,6.4,0C434.7,196.2,434.7,210.3,434.7,225.3z"/>
		<path class="st39" d="M241.1,207c4.5,0,8.6,0,12.7,0c10.7,0,12,1.4,11.9,11.9c0,1.9-0.3,3.8-0.4,6.2c-14.6,0-28.9,0-43.5,0
			c0-14.4,0-28.4,0-43.1c6.5,1.1,14.7-4,17.9,4.4C241.9,192.3,240.7,199.4,241.1,207z"/>
		<path class="st39" d="M321.6,239c0,14.2,0,28.1,0,42.7c-6.3-0.4-14.3,4.2-17.4-4c-2.2-5.8-0.4-13-0.4-20.6c-5.3,0-9.3,0-13.4,0
			c-11.4,0-12.3-1-12.2-12.5c0-1.6,0.2-3.3,0.3-5.6C292.5,239,306.6,239,321.6,239z"/>
		<path class="st39" d="M335.1,238.9c14.5,0,28.5,0,43.3,0c-1.3,6.5,4,14.8-5,17.7c-5.8,1.8-12.6,0.3-20,0.3c0,4.8,0,8.9,0,12.9
			c0,11.8-0.9,12.6-13,12.4c-1.6,0-3.2-0.2-5.2-0.3C335.1,267.4,335.1,253.3,335.1,238.9z"/>
		<path class="st39" d="M378.5,225.3c-3.3,0.2-5.5,0.3-7.7,0.4c-11.6,0-23.3,0-35.5,0c0-14.6,0-28.6,0-43.3
			c6.1,0.5,14.2-4.3,17.3,4.2c2.1,5.8,0.4,13,0.4,20.4c5.4,0,9.4,0,13.5,0c11.1,0,12,1,12,11.8C378.5,220.7,378.5,222.6,378.5,225.3
			z"/>
		<path class="st39" d="M303.2,207.4c0-5.7,0-9.9,0-14c0-10.6,1-11.6,11.4-11.5c2.1,0,4.3,0,6.9,0c0,14.6,0,28.4,0,43
			c-13.9,0-27.9,0-42.9,0c0.6-5.8-4.2-13.8,3.9-17C288.2,205.6,295.6,207.4,303.2,207.4z"/>
		<path class="st39" d="M375.9,288.5c3.2-3.3,5.6-5.9,9.1-9.5c2.6,3.6,4.9,6.6,7.8,10.6c-2,1.7-4.9,4.2-8.3,7.1
			C381.9,294.3,379.2,291.7,375.9,288.5z"/>
		<path class="st39" d="M272,297.3c-2.9-3.4-5.4-6.3-8.2-9.5c2.3-2.5,4.8-5.2,7.8-8.4c3.4,3.3,6,5.9,9,8.9
			C277.7,291.4,275.3,293.9,272,297.3z"/>
		<path class="st39" d="M273.7,168.5c1.5,1.6,3.9,4.2,6.9,7.3c-3,2.9-5.6,5.5-8.6,8.4c-3.1-2.9-5.6-5.3-9-8.5
			C266.6,173.4,269.9,171.2,273.7,168.5z"/>
		<path class="st39" d="M376,175c3-2.5,5.8-4.8,9.4-7.8c2.3,2.6,4.9,5.6,7.2,8.2c-2.5,3.2-4.9,6.1-7.7,9.6
			C381.7,181.3,379.3,178.7,376,175z"/>
	</g>
</g>
</svg>
