<?xml version="1.0" encoding="utf-8"?>
<!-- Generator: Adobe Illustrator 22.1.0, SVG Export Plug-In . SVG Version: 6.00 Build 0)  -->
<svg version="1.1" id="Calque_1" xmlns="http://www.w3.org/2000/svg" xmlns:xlink="http://www.w3.org/1999/xlink" x="0px" y="0px"
	 viewBox="0 0 700 480" style="enable-background:new 0 0 700 480;" xml:space="preserve">
<style type="text/css">
	.st0{fill:#DAECFF;}
	.st1{fill:#FFD258;}
	.st2{fill:#FBCEC6;}
	.st3{fill:#ADCCFF;}
	.st4{fill:#FF5F7D;}
	.st5{fill:none;stroke:#000000;stroke-width:2;stroke-miterlimit:10;}
	.st6{fill:#FFFBF2;}
	.st7{fill:#73B7A4;}
	.st8{fill:none;stroke:#000000;stroke-miterlimit:10;}
	.st9{fill:#98BFFF;}
	.st10{fill:#FFD258;stroke:#000000;stroke-width:2;stroke-miterlimit:10;}
	.st11{fill:#FEF0E1;stroke:#070707;stroke-miterlimit:10;}
	.st12{fill:#D3A533;}
	.st13{fill:#FFB5C0;stroke:#020202;stroke-miterlimit:10;}
	.st14{fill:#FF8E9E;}
	.st15{fill:#FF8E9E;stroke:#000000;stroke-miterlimit:10;}
	.st16{fill:#EA5B70;}
	.st17{fill:#020202;}
	.st18{fill:#FFD258;stroke:#050505;stroke-width:0.5;stroke-miterlimit:10;}
	.st19{fill:#FEF0E1;stroke:#020202;stroke-width:0.5;stroke-miterlimit:10;}
	.st20{fill:#DDB143;}
	.st21{fill:#D6AF8B;}
	.st22{fill:#FFFBF2;stroke:#020202;stroke-width:2;stroke-miterlimit:10;}
	.st23{fill:#FF5F7D;stroke:#020202;stroke-width:2;stroke-miterlimit:10;}
	.st24{fill:#FFFFFF;}
	.st25{fill:#ADCCFF;stroke:#020202;stroke-width:2;stroke-miterlimit:10;}
	.st26{fill:#FFD258;stroke:#050505;stroke-width:2;stroke-miterlimit:10;}
	.st27{fill:#85AAE0;}
	.st28{fill:#C99E32;}
	.st29{fill:#FFCF47;stroke:#020202;stroke-miterlimit:10;}
	.st30{fill:#FF5F7D;stroke:#050505;stroke-width:2;stroke-miterlimit:10;}
	.st31{fill:#F36B7F;stroke:#000000;stroke-miterlimit:10;}
	.st32{fill:#DBA92C;}
	.st33{fill:#73B7A4;stroke:#020202;stroke-width:2;stroke-miterlimit:10;}
	.st34{fill:#FFCF47;stroke:#020202;stroke-width:2;stroke-miterlimit:10;}
	.st35{fill:#99C6B8;}
	.st36{fill:#E2B23B;}
	.st37{fill:#C11A3E;}
	.st38{fill:#FEF0E1;stroke:#020202;stroke-miterlimit:10;}
	.st39{fill:#ADCCFF;stroke:#020202;stroke-miterlimit:10;}
	.st40{fill:#FFD258;stroke:#0C0C0C;stroke-width:0.75;stroke-miterlimit:10;}
	.st41{fill:#ADCCFF;stroke:#050505;stroke-width:2;stroke-miterlimit:10;}
	.st42{fill:#73B7A4;stroke:#050505;stroke-width:2;stroke-miterlimit:10;}
	.st43{fill:#FFFBF2;stroke:#050505;stroke-width:2;stroke-miterlimit:10;}
	.st44{fill:#FEF0E1;stroke:#020202;stroke-width:2;stroke-miterlimit:10;}
	.st45{fill:#D8A830;}
	.st46{fill:#FF5F7D;stroke:#050505;stroke-miterlimit:10;}
	.st47{fill:#73B7A4;stroke:#020202;stroke-miterlimit:10;}
	.st48{fill:#E8D2BF;}
	.st49{fill:#FFD258;stroke:#0A0A0A;stroke-width:2;stroke-miterlimit:10;}
	.st50{fill:#D8AB3A;}
	.st51{fill:#FFD258;stroke:#050505;stroke-miterlimit:10;}
	.st52{fill:#FBCEC6;stroke:#070707;stroke-miterlimit:10;}
	.st53{fill:#D84161;}
	.st54{fill:#FFD258;stroke:#0A0A0A;stroke-miterlimit:10;}
	.st55{fill:#FFD258;stroke:#0A0A0A;stroke-width:3;stroke-miterlimit:10;}
	.st56{fill:none;stroke:#0A0A0A;stroke-width:2;stroke-miterlimit:10;}
	.st57{fill:#FF5F7D;stroke:#000000;stroke-miterlimit:10;}
	.st58{fill:#FFD258;stroke:#000000;stroke-miterlimit:10;}
	.st59{fill:#FF5F7D;stroke:#050505;stroke-width:0.75;stroke-miterlimit:10;}
	.st60{fill:#FEF0E1;stroke:#020202;stroke-width:0.75;stroke-miterlimit:10;}
	.st61{fill:#FF5F7D;stroke:#050505;stroke-width:0.25;stroke-miterlimit:10;}
	.st62{fill:#FFD258;stroke:#0A0A0A;stroke-width:0.75;stroke-miterlimit:10;}
	.st63{fill:#73B7A4;stroke:#020202;stroke-width:0.25;stroke-miterlimit:10;}
	.st64{fill:#FBCEC6;stroke:#020202;stroke-miterlimit:10;}
	.st65{fill:#73B7A4;stroke:#020202;stroke-width:0.75;stroke-miterlimit:10;}
	.st66{fill:#73B7A4;stroke:#070707;stroke-miterlimit:10;}
	.st67{fill:#FFFBF2;stroke:#070707;stroke-miterlimit:10;}
	.st68{fill:#E2B139;}
	.st69{fill:#FFFBF2;stroke:#020202;stroke-miterlimit:10;}
	.st70{fill:#ADCCFF;stroke:#020202;stroke-width:0.75;stroke-miterlimit:10;}
	.st71{fill:#FFFBF2;stroke:#020202;stroke-width:0.75;stroke-miterlimit:10;}
	.st72{fill:#FFD258;stroke:#050505;stroke-width:0.75;stroke-miterlimit:10;}
	.st73{fill:#FBCEC6;stroke:#020202;stroke-width:0.75;stroke-miterlimit:10;}
	.st74{fill:#73B7A4;stroke:#050505;stroke-miterlimit:10;}
	.st75{fill:#73B7A4;stroke:#050505;stroke-width:0.75;stroke-miterlimit:10;}
	.st76{fill:#E2C2A6;}
	.st77{fill:#DBC69E;}
	.st78{fill:#D39C94;}
	.st79{fill:#E0B344;}
	.st80{fill:#E0AE32;}
	.st81{fill:#4F9982;}
	.st82{fill:#DDBA9B;}
	.st83{fill:#FF5F7D;stroke:#000000;stroke-width:0.75;stroke-miterlimit:10;}
	.st84{fill:#FFD258;stroke:#000000;stroke-width:0.75;stroke-miterlimit:10;}
	.st85{fill:none;stroke:#000000;stroke-width:0.5;stroke-miterlimit:10;}
	.st86{opacity:0.43;fill:#7F3B48;}
	.st87{opacity:0.88;fill:#98BFFF;}
	.st88{opacity:0.75;fill:#FFFBF2;}
	.st89{opacity:0.88;fill:#719BD8;}
	.st90{opacity:0.75;fill:#EAD9B7;}
	.st91{fill:#FEF0E1;}
	.st92{fill:none;stroke:#070707;stroke-miterlimit:10;}
	.st93{fill:#C1962B;}
	.st94{fill:#D6B154;}
	.st95{fill:#5DA08B;}
	.st96{fill:#C6961E;}
</style>
<rect x="3" y="3.5" class="st4" width="697.5" height="475.2"/>
<g id="D0Mp0v.tif">
	<g>
		<path class="st47" d="M326,227.5c-0.3,1.6-0.5,3.1-0.7,4.5c5.3,0.6,6.7,2.6,5.4,7.7c-1.3,5.1-2.5,10.2-3.8,15.3
			c-1,4-1.8,4.7-6,5.4c-1,6.3-2,12.7-2.9,19.1c-0.1,0.6,0.9,1.6,1.7,1.9c8.1,3.5,16.2,7,24.3,10.5c0.3,0.1,0.6,0.3,0.8,0.7
			c-31.2,0-62.3,0-94.1,0c2.9-2.2,5.2-4.3,7.9-5.9c5.8-3.4,8.5-7.9,9.3-14.9c1.6-14.5,4.3-29,6.5-43.5c0-0.2,0-0.5-0.1-1
			c-1.9,0-3.8,0-5.7,0c-5.6,0-11.2,0.1-16.7,0c-8.1-0.2-13.9-6.3-13.9-14.3c0-11.8,0-23.7,0-35.5c0-9.7,5.7-15.5,15.5-15.5
			c18.2,0,36.3,0,54.5,0c9.9,0,19.8,0.1,29.7,0c11.8-0.2,23.3,1.3,34.3,5.6c7.6,3,15.3,4.3,23.4,3.8c4.1-0.2,8.2,0,12.2,0.4
			c4.5,0.5,7.6,3.2,9.7,7.1c1.6,3,3.2,6.1,4.5,9.2c0.7,1.5,1.6,2,3.2,2c10.1-0.1,20.2,0,30.2,0c4.4,0,6.6,1.6,6.7,4.7
			c0,3.1-2.2,4.7-6.6,4.7c-10.2,0-20.3,0-30.5,0c-1.6,0-2.4,0.5-3,1.9c-1.3,3-2.9,5.8-4.3,8.7c-2.6,5-6.6,7.9-12.3,8
			c-6.6,0.1-13.2,0-19.7,0.1c-1.3,0-2.7,0.2-3.9,0.6c-4.4,1.4-8.7,2.8-13,4.3c-8.7,3-17.7,4.4-27,4.4
			C336.5,227.5,331.3,227.5,326,227.5z M275.2,190.1c4.5,0,9,0,13.5,0c3.3,0,5.3-1.9,5.3-4.7c-0.1-2.7-2.1-4.5-5.2-4.5
			c-8.9,0-17.8,0-26.7,0c-3.3,0-5.4,1.8-5.4,4.6c0,2.7,2.1,4.6,5.4,4.6C266.4,190.1,270.8,190.1,275.2,190.1z M378,194.8
			c0,3,0,6,0,9c0,2.9,1.9,4.9,4.5,5c2.6,0.1,4.8-1.8,4.8-4.7c0.1-6.2,0.1-12.3,0-18.5c0-2.9-2.1-4.7-4.8-4.7c-2.6,0.1-4.5,2-4.5,4.9
			C378,188.8,378,191.8,378,194.8z"/>
		<path class="st39" d="M247.4,302.2c34.3,0,68.3,0,102.5,0c0,0.9,0.1,1.8,0.1,2.6c0,9.7,0,19.3,0,29c0,8.9-5.6,14.9-14.5,15
			c-24.6,0.1-49.1,0.2-73.7,0c-8.9-0.1-14.4-6.1-14.4-15.1c0-9.5,0-19,0-28.5C247.4,304.4,247.4,303.5,247.4,302.2z"/>
	</g>
</g>
</svg>
