<?xml version="1.0" encoding="utf-8"?>
<!-- Generator: Adobe Illustrator 24.3.0, SVG Export Plug-In . SVG Version: 6.00 Build 0)  -->
<svg version="1.1" id="Calque_1" xmlns="http://www.w3.org/2000/svg" xmlns:xlink="http://www.w3.org/1999/xlink" x="0px" y="0px"
	 viewBox="0 0 480 480" style="enable-background:new 0 0 480 480;" xml:space="preserve">
<style type="text/css">
	.st0{fill:#DAECFF;}
	.st1{fill:#73B7A4;stroke:#020202;stroke-miterlimit:10;}
</style>
<path class="st0" d="M358,449.4H124.8c-43.5,0-79.2-35.6-79.2-79.2V137c0-43.5,35.6-79.2,79.2-79.2H358c43.5,0,79.2,35.6,79.2,79.2
	v233.2C437.2,413.7,401.5,449.4,358,449.4z"/>
<g>
	<g>
		<g>
			<path class="st1" d="M231.6,182.4h-29.7l-3-11.9h35.7L231.6,182.4z"/>
			<path class="st1" d="M258.5,314.7l-0.3,3c-3-0.7-5.9-1.8-8.8-3H258.5z"/>
			<path class="st1" d="M255.4,268.6c0,4.8,2.3,9.3,6.2,12.1l-0.9,9.7c-12-5.3-17.5-19.3-12.2-31.3c3-6.8,9-11.9,16.3-13.6l-0.9,9.7
				C258.7,257.6,255.4,262.9,255.4,268.6L255.4,268.6z"/>
			<path class="st1" d="M291.1,314.7c-13.2,6-28.4,6-41.6,0H291.1z"/>
			<path class="st1" d="M234.6,170.5l-3,11.9h-29.7l-3-11.9H234.6z"/>
			<path class="st1" d="M291.1,314.7c-13.2,6-28.4,6-41.6,0H291.1z"/>
			<path class="st1" d="M270.3,244.9c-13.1,0-23.8,10.6-23.8,23.8c0,13.1,10.6,23.8,23.8,23.8s23.8-10.6,23.8-23.8
				C294,255.5,283.4,244.9,270.3,244.9z M270.3,283.5c-8.2,0-14.9-6.7-14.9-14.9c0-8.2,6.7-14.9,14.9-14.9c8.2,0,14.9,6.7,14.9,14.9
				c0,8.2-6.6,14.8-14.7,14.9C270.3,283.5,270.3,283.5,270.3,283.5z"/>
			<path class="st1" d="M261.3,331.1h17.8v8.9h-17.8V331.1z"/>
			<path class="st1" d="M270.3,244.9c-13.1,0-23.8,10.6-23.8,23.8c0,13.1,10.6,23.8,23.8,23.8s23.8-10.6,23.8-23.8
				C294,255.5,283.4,244.9,270.3,244.9z M270.3,283.5c-8.2,0-14.9-6.7-14.9-14.9c0-8.2,6.7-14.9,14.9-14.9c8.2,0,14.9,6.7,14.9,14.9
				c0,8.2-6.6,14.8-14.7,14.9C270.3,283.5,270.3,283.5,270.3,283.5z"/>
			<path class="st1" d="M261.3,331.1h17.8v8.9h-17.8V331.1z"/>
		</g>
		<g>
			<path class="st1" d="M219.7,337h-11.9c-1.6,0-3,1.3-3,3c0,1.6,1.3,3,3,3h11.9c1.6,0,3-1.3,3-3C222.7,338.3,221.4,337,219.7,337z"
				/>
			<path class="st1" d="M300,328.1H294v-11.5c18.2-9,29.7-27.6,29.7-47.9c0-29.5-24-53.5-53.5-53.5V178c0-5.7-4.7-10.4-10.4-10.4
				h-86.2c-5.7,0-10.4,4.7-10.4,10.4v163.5c0,5.7,4.7,10.4,10.4,10.4h135.2c1.6,0,3-1.3,3-3V340C311.9,333.4,306.5,328.1,300,328.1z
				 M270.3,221.1c26.3,0,47.6,21.3,47.6,47.6c0,26.3-21.3,47.6-47.6,47.6s-47.6-21.3-47.6-47.6C222.7,242.4,244,221.1,270.3,221.1z
				 M252.4,328.1v-9c11.5,4.1,24.1,4.1,35.7,0v9H252.4z M276.2,334v3h-11.9v-3H276.2z M230.8,173.5l-1.5,5.9h-25.1l-1.5-5.9H230.8z
				 M228.6,340v5.9h-55c-2.5,0-4.5-2-4.5-4.5V178c0-2.5,2-4.5,4.5-4.5h22.9l2.4,9.6c0.3,1.3,1.5,2.3,2.9,2.3h29.7
				c1.4,0,2.6-0.9,2.9-2.3l2.4-9.6h22.9c2.5,0,4.5,2,4.5,4.5v37.5c-26.7,3-47.6,25.7-47.6,53.2c0,20.3,11.5,38.9,29.7,47.9v11.5
				h-5.9C234,328.1,228.7,333.4,228.6,340z M305.9,345.9h-71.3V340c0-3.3,2.7-5.9,5.9-5.9h17.8v5.9c0,1.6,1.3,3,3,3h17.8
				c1.6,0,3-1.3,3-3V334H300c3.3,0,5.9,2.7,5.9,5.9V345.9z"/>
			<path class="st1" d="M243.5,268.6c0,14.8,12,26.8,26.8,26.8s26.8-12,26.8-26.8c0-14.8-12-26.8-26.8-26.8
				C255.5,241.9,243.5,253.9,243.5,268.6z M291.1,268.6c0,11.5-9.3,20.8-20.8,20.8c-11.5,0-20.8-9.3-20.8-20.8
				c0-11.5,9.3-20.8,20.8-20.8C281.7,247.8,291.1,257.1,291.1,268.6z"/>
			<path class="st1" d="M252.4,268.6c0,9.8,8,17.8,17.8,17.8s17.8-8,17.8-17.8s-8-17.8-17.8-17.8
				C260.4,250.8,252.4,258.8,252.4,268.6z M282.1,268.6c0,6.6-5.3,11.9-11.9,11.9s-11.9-5.3-11.9-11.9s5.3-11.9,11.9-11.9
				C276.8,256.8,282.1,262.1,282.1,268.6z"/>
		</g>
	</g>
</g>
</svg>
