<?xml version="1.0" encoding="UTF-8"?><svg id="Calque_1" xmlns="http://www.w3.org/2000/svg" viewBox="0 0 173.84 178.2"><path id="Tracé_151" d="M85.82,72.89l-1.68,1.12-.84,.56-.84,.57-.28-2.25h3.65Zm2.38-.14l1.41,.14,1.4,.14h.14l-.28,.14-.28,.28v-.15l-.42,.42-.69,.28-1.12,.7-1.55,1.12-1.4,1.12-1.26,.84-1.41,.84-.14-2.11,.69-.14,.69-.42,1.26-.7,1.68-1.12,.84-.56,.43-.84Zm2.81,2.81l-.42,2.8h-.28l-.28,.15-2.39,1.54-2.39,1.41-.98,.42-1.12,.56-.14-2.25,.7-.28,.69-.28,1.41-.84,5.2-3.23Zm-.69,5.33l-.14,.99v.42h-.42l-.28,.14-3.09,1.68-2.95,1.68-.14-1.55,.84-.14,.69-.28,1.41-.69,2.1-.99,.98-.56,.99-.71Zm-.28,3.37l-.15,.99-.28,.14-1.12,.42-.98,.56-1.97,1.26-1.12,.69-.98,.84v-1.97l3.37-1.4,3.23-1.54Zm-.28,3.23l-.14,1.82-.42,.15-.99,.42-.84,.56-1.54,1.26-1.12,.84-1.12,.98-.14-2.38,.84-.42,.84-.42,1.55-.99,1.54-.98,1.55-.84Zm-.28,3.93l-.14,1.55-.42,.14-.98,.69-.84,.69-1.68,1.68-1.26,1.13-.42-2.38,.69-.28,.84-.42,1.41-.84,1.4-.98,1.41-.96Zm-.42,4.92l-.42,2.95-1.4-.42-1.4-.15,.98-.69,1.12-.84,1.12-.85Zm-3.93-26.53l-1.55,.14-1.68,.14h-.56l-.14,.14,.27,.28h0l-.42-.14h-.56l-.56,.28-.15,.28-.14,.28-.14,.99-.14,.98v2.11l.42,4.07,.28,4.07v7.44l.14,3.37,.15,1.82,.28,1.68,.42,1.55,.69,1.54,.28,.42,.42,.28,.28,.28,.14,.14h.69l1.26-.56,.7-.14h.69l.69,.28,.69,.28,.69,.28,.84,.15h.42l.42-.15,.42-.28,.14-.42,.56-.42,.15-.28,.14-.28,.69-3.65,.28-3.65,.28-3.64,.14-3.52,.28-3.51,.28-3.37,.42-3.37,.14-3.37v-.42l-.14-.28-.15-.28-.28-.14-.56-.14-.42-.56-.28-.14-.28-.14-1.68-.28-1.69-.14h-3.3Zm1.12,37.48l-1.41,1.26-1.4,.98,.28-.56,.28-.69,.42-.56,.57-.42,.42,.14,.42-.14h.42Zm2.53,.55l.42,.56,.42,.57-1.12,.69-.98,.84-1.83,1.68-.69,.84-.57,.69-.42,.69-.42-.56-.28-.69-.14-.69v-.69l.84-.28,.69-.42,1.55-.99,1.26-.98,1.27-1.27Zm1.4,3.37l-.14,.84-.28,.84-.42,.56-.56,.57-.69,.42-.7,.42-.98,.14h-.98l.84-.69,.56-.42,1.68-1.4,1.67-1.28Zm-3.93-7.02l-.69,.14-.56,.28-.84,.28-.69,.28-.56,.28-.42,.57-.84,.98-.57,1.26-.42,1.26-.28,1.55v1.54l.28,1.41,.69,1.26,.42,.56,.42,.42,.56,.42,.69,.42,.56,.28,.84,.28,.7,.14h1.68l.84-.14,.69-.28,.56-.28,.69-.42,.56-.42,.84-.98,.69-1.26,.56-1.26,.14-1.55v-1.55l-.42-1.26-.56-1.26-.84-1.12-.98-.84-.57-.28-.56-.28-1.4-.42h-1.23Zm.84-54.89l.69,.14,1.12,.56,1.12,.84,.98,.98,1.97,2.11,2.38,3.65,2.25,3.93,4.35,7.85,4.35,8,2.25,3.93,2.24,3.79,4.21,7.02,4.35,7.01,4.35,6.88,4.36,7.01-.14,.42v.28l.14,.42,.28,.28,.99,.84,.84,1.26,.69,1.4,.57,1.4,.28,1.55-.14,.69v.69l-.28,.56-.27,.69-.42,.57-.42,.42-1.12,.69-1.12,.42-1.4,.28-1.26,.14h-5.19l-17.41-.14-8.71-.14h-8.71l-16.42,.14-8.28,.28-8.14,.28h-3.93l-1.26-.14-1.26-.28-1.12-.42-1.13-.56-.98-.84-.57-.56-.28-.57-.14-.42-.14-.56v-1.13l.42-.98,.84-2.11,.42-1.12,.28-1.12,1.27-2.11,1.26-2.25,2.38-4.49,2.95-4.78,2.95-4.91,5.9-10.11,5.89-10.11,2.95-4.92,3.09-4.77,6.18-9.41,2.53-3.93,1.4-1.82,.84-.84,.84-.84,.56-.56,.69-.28,.56-.28,1.28,.03Zm.14-3.09l-.98,.14-.99,.28-.98,.42-.98,.42-.84,.69-1.55,1.4-.84,.84-.69,.98-1.4,2.1-1.4,2.11-1.26,2.11-3.93,5.62-3.64,5.75-3.65,5.9-3.51,6.04-7.02,12.07-6.59,11.65-2.67,4.49-1.12,2.39-.99,2.39-.28,.28-.14,.28-.42,1.26-.69,1.26-.57,1.26-.69,1.26-.14,.56-.14,.69v1.4l.42,1.26,.42,1.41,.84,1.12,.84,.84,1.12,.69,1.26,.56,1.4,.42,1.26,.28,2.67,.28,2.11,.14h6.74l4.36-.28,4.49-.14,10.67-.14,10.81-.14h10.81l10.95,.14,8.14,.28h4.21l1.96-.14,1.97-.14,1.4-.28,1.26-.28,1.26-.56,1.26-.69,.99-.84,.98-.98,.56-1.12,.14-.69,.14-.69,.14-1.12-.14-1.12-.14-1.12-.28-1.12-.42-1.12-.56-1.13-.57-.98-.69-.99-4.63-7.58-4.63-7.58-9.41-15.01-2.25-3.79-2.24-3.93-4.35-8.15-4.49-8.14-2.24-3.93-2.25-3.79-.28-.42-.42-.28-1.26-1.55-1.55-1.54-.84-.69-.84-.69-.98-.42-.84-.14-1.16-.02Z" fill="#141325" fill-rule="evenodd"/></svg>