<?xml version="1.0" encoding="UTF-8"?><svg id="Calque_1" xmlns="http://www.w3.org/2000/svg" viewBox="0 0 173.84 178.2"><path d="M95.97,45.99c3.79-.02,7.58-.14,11.36-.04,5.48,.14,10.93,.68,16.12,2.59,4.64,1.71,7.65,5,8.85,9.8,.28,1.12,.09,2.35,.15,3.52,.1,2.23,.22,4.46,.34,6.69,.02,.41,.12,.81,.13,1.21,.05,6.49,.1,12.97,.11,19.46,0,2.69,0,5.38-.19,8.06-.51,7.71-1.25,15.39-3.13,22.91-.51,2.05-1.02,4.11-1.64,6.13-.58,1.89-1.94,3.14-3.77,3.82-2.85,1.07-5.81,1.69-8.84,1.86-3.53,.2-7.07,.39-10.6,.51-4.34,.14-8.68,.25-13.02,.29-2.69,.03-5.39-.03-8.07-.18-3.4-.2-6.8-.52-10.2-.82-2.88-.26-5.76-.46-8.61-.88-4.97-.73-9.9-1.76-14.34-4.18-4.25-2.31-6.74-6.13-7.36-10.9-.79-6.05-.24-12.16-.34-18.24-.05-3.16,.17-6.33,.38-9.49,.21-3.25,.56-6.5,.81-9.75,.17-2.18,.26-4.38,.43-6.56,.39-4.75,.85-9.5,2.21-14.08,1.17-3.96,4.22-6.14,8-7.21,3-.84,6.11-1.31,9.19-1.89,2.72-.51,5.44-.98,8.17-1.37,2.35-.33,4.71-.6,7.07-.74,5.59-.31,11.19-.52,16.79-.77,0,.07,0,.14,0,.21Zm30.32,8.11c-.12,.17-.22,.28-.29,.41-1.28,1.98-2.53,3.99-3.86,5.93-.2,.29-.78,.32-1.18,.48,0-.43-.16-.95,.03-1.28,.58-1.04,1.3-2.01,1.95-3.02,.74-1.14,1.47-2.3,2.22-3.47q-1.86-.69-2.85,.77c-1.08,1.62-2.13,3.26-3.26,4.85-.22,.3-.76,.37-1.16,.55-.04-.43-.24-.95-.08-1.28,.46-.89,1.07-1.71,1.64-2.55,.81-1.2,1.63-2.38,2.47-3.61q-2.14-.68-3.31,.92c-.04,.06-.09,.12-.13,.18-1.08,1.53-2.13,3.08-3.26,4.57-.23,.31-.75,.39-1.14,.58-.03-.46-.18-.96-.06-1.38,.13-.45,.5-.82,.79-1.22,1.12-1.54,2.24-3.07,3.34-4.57-2.06-1.13-3.54-.32-4.81,1.26-1.18,1.46-2.34,2.93-3.58,4.33-.27,.31-.84,.37-1.27,.54,.02-.47-.09-1,.1-1.38,.3-.59,.8-1.08,1.24-1.59,1.07-1.28,2.16-2.54,3.29-3.88-1.29-.27-2.26-.11-3.06,.93-1.14,1.47-2.38,2.86-3.56,4.3-.42,.51-.96,.91-1.51,.42-.21-.19-.11-.99,.11-1.34,.48-.75,1.13-1.39,1.73-2.06,.66-.73,1.34-1.45,2.06-2.22-1.2-.3-2,.03-2.72,.85-1.4,1.61-2.85,3.18-4.33,4.72-.29,.3-.84,.36-1.26,.53,.05-.47-.06-1.06,.17-1.4,.61-.89,1.36-1.69,2.09-2.49,.66-.73,1.35-1.42,2.08-2.18-1.58-.32-2.78-.05-3.81,1.07-.86,.93-1.86,1.75-2.86,2.53-.31,.24-.85,.19-1.28,.28,.1-.45,.07-1.03,.34-1.32,.83-.88,1.78-1.65,2.75-2.53-1.35-.11-2.57-.28-3.79-.29-7.15-.06-14.31-.19-21.46-.06-2.9,.05-5.79,.73-8.69,1.11-4.28,.57-8.49,1.4-12.63,2.68-2.75,.85-4.28,2.69-5,5.29-1.51,5.47-1.83,11.13-2.39,16.75-.26,2.62-.5,5.24-.62,7.87-.25,5.13-.4,10.27-.61,15.41-.03,.75-.14,1.5-.22,2.39,.74-.98,1.32-1.84,2.01-2.61,.17-.19,.66-.11,1-.16,0,.37,.16,.85-.02,1.09-1.1,1.48-2.13,2.99-2.29,4.9,0,.1-.11,.19-.15,.29-.21,.52-.42,1.04-.63,1.56,.1,.03,.21,.06,.31,.09,.88-1.3,1.71-2.63,2.66-3.87,.24-.32,.86-.34,1.3-.51-.04,.46,.06,1-.15,1.36-1.17,1.96-2.43,3.87-3.62,5.81-.55,.9-.49,2.46,0,3.28,.85-1.59,1.68-3.26,2.64-4.85,.21-.36,1.04-.72,1.33-.58,.76,.38,.14,.91-.09,1.39-.93,1.87-1.93,3.71-2.71,5.64-.34,.86-.21,1.92-.29,2.88,.13,.02,.26,.03,.39,.05,.16-.45,.31-.91,.48-1.35,.64-1.6,1.23-3.22,1.96-4.77,.18-.37,.97-.83,1.25-.71,.74,.31,.24,.9,.03,1.4-1,2.44-1.97,4.88-2.95,7.33,.09,.04,.19,.08,.28,.12,.18-.36,.34-.73,.55-1.07,.9-1.46,1.79-2.94,2.76-4.36,.18-.25,.76-.23,1.15-.33,0,.39,.07,.8,0,1.18-.04,.23-.32,.41-.45,.63-.94,1.61-1.91,3.21-2.78,4.86-.45,.84-.31,1.15,.39,1.77,.16-.34,.28-.71,.5-1,1.03-1.37,2.04-2.75,3.17-4.03,.2-.22,.9,0,1.37,0-.16,.37-.25,.79-.48,1.1-.93,1.25-1.96,2.44-2.84,3.72-.56,.82-.48,1.61,.78,1.87,.17-.27,.34-.55,.52-.83,1.3-1.95,2.82-3.7,4.85-4.91,.32-.19,.86,.01,1.3,.03-.17,.4-.25,.89-.54,1.18-1.14,1.12-2.4,2.14-3.52,3.28-.55,.56-.91,1.31-1.36,1.98,1.42,.77,1.39,.73,2.4-.19,1.3-1.18,2.64-2.33,4.02-3.42,.25-.2,.78-.05,1.18-.06-.09,.39-.12,.82-.31,1.16-.15,.27-.52,.42-.77,.64-1.12,.95-2.23,1.91-3.35,2.87,1.4,.97,2.34,.71,3.23-.49,.69-.92,1.62-1.66,2.48-2.44,.58-.53,1.18-1.06,1.84-1.47,.3-.18,.79-.05,1.19-.06-.1,.39-.15,.81-.33,1.16-.13,.24-.45,.38-.67,.58-1.39,1.27-2.78,2.54-4.29,3.93,.86,.28,1.45,.41,1.97,.66,.79,.37,1.28,.16,1.92-.43,1.46-1.33,3.05-2.53,4.64-3.71,.29-.22,.85-.07,1.29-.1-.19,.43-.26,.98-.58,1.25-.88,.75-1.88,1.36-2.79,2.08-.64,.51-1.21,1.12-1.94,1.81,.68,.19,1.12,.22,1.45,.42,1.04,.63,1.85,.31,2.7-.42,.82-.7,1.71-1.36,2.65-1.89,.47-.27,1.49-.46,1.63-.26,.51,.75-.32,1.06-.8,1.42-.9,.68-1.81,1.33-2.79,2.04,1.62,.5,2.84,.15,3.97-.8,.71-.6,1.51-1.12,2.34-1.55,.37-.2,.91-.09,1.37-.12-.19,.43-.27,.99-.59,1.27-.71,.61-1.54,1.09-2.33,1.62,1.01-.1,1.95,.74,2.98-.27,.68-.67,2.04-.66,3.12-.88,.25-.05,.65,.15,.81,.36,.1,.14-.04,.56-.19,.77-.15,.21-.45,.32-.75,.52,1.01,.11,1.92,.27,2.83,.3,2.62,.09,5.24,.17,7.86,.18,3.3,.02,6.6,.04,9.9-.07,1.92-.07,3.85-.26,5.73-.64,3.86-.78,7.68-1.75,11.52-2.58,2.43-.53,4.85-1,6.84-2.65,1.51-1.25,2.97-2.64,3.39-4.58,.8-3.74,1.51-7.52,1.98-11.31,.52-4.15,.74-8.34,1.08-12.52,.06-.67,.12-1.34,.12-2.01,0-2.86-.03-5.72-.04-8.72-.34,.47-.54,.89-.88,1.15-.24,.18-.65,.14-.99,.19-.04-.31-.19-.67-.08-.91,.32-.71,.67-1.44,1.16-2.05,1.08-1.33,.91-2.81,.8-4.39-.71,.79-1.3,1.56-2.02,2.18-.28,.24-.85,.14-1.28,.2,.12-.41,.1-.96,.37-1.21,2.63-2.54,3.56-5.58,2.81-9.09-.61,.95-1.2,1.98-1.92,2.91-.22,.29-.8,.29-1.22,.43,.03-.43-.06-.92,.11-1.28,.69-1.41,1.63-2.71,2.17-4.17,.65-1.76,.77-3.65,.41-5.79-.59,1.02-1.02,1.81-1.48,2.58-.44,.74-.86,1.51-1.41,2.16-.24,.28-.8,.28-1.21,.4,0-.4-.05-.8,0-1.2,.03-.2,.25-.36,.36-.56,1.09-2,2.23-3.98,3.26-6.01,.88-1.74,.38-3.26-.98-4.56-.77,2.86-2.29,5.86-4.14,8.13-.37,.45-.84,1.1-1.44,.48-.2-.2,.14-.93,.25-1.42,.02-.1,.15-.17,.21-.26,1.52-2.31,3.21-4.51,3.72-7.35,.19-1.03-.09-1.62-.98-2.18Z"/><path d="M69.7,55.38c1.61,0,3.27-.27,4.81,.04,1.45,.29,2.93,.97,4.11,1.86,1.45,1.1,1.24,3.11-.16,4.3-1.23,1.04-2.7,1.47-4.28,1.42-1.87-.06-3.73-.26-5.6-.39-.26-.02-.52-.06-.78-.06-4.05,.1-4.97,.97-5.6,4.51-.49,2.71-.99,5.4-2.43,7.77-.64,1.06-1.5,2.1-2.49,2.82-1.36,1-3.36,.99-3.49-1.38-.15-2.57-.17-5.16,.04-7.72,.22-2.57,.76-5.11,1.24-7.65,.41-2.22,1.59-3.77,3.86-4.52,3.52-1.16,7.13-1.27,10.78-1.01Zm3.86,3.65c-.11-.09-.23-.18-.34-.27,.36-.66,.72-1.33,1.09-2.03-1.46-.32-1.31,1.5-2.71,1.75,.3-.7,.52-1.22,.75-1.76-.31-.03-.6-.09-.89-.08-2.72,.03-5.43,.1-8.15,.1-1.39,0-2.69,.23-4.03,.64-1.39,.43-2.15,1.23-2.47,2.53-.52,2.09-.99,4.19-1.49,6.31,.31-.04,.56-.08,.79-.11-.57,1.2-1.11,2.34-1.65,3.48,.11,.06,.21,.13,.32,.19,.22-.3,.44-.61,.66-.91,.07,.06,.14,.12,.21,.18-.52,1.53-1.05,3.07-1.57,4.6,.08,.02,.16,.04,.24,.07,.4-.55,.8-1.1,1.2-1.66,.09,.06,.19,.11,.28,.17-.42,1.07-.84,2.15-1.29,3.32,.57-.6,1.05-1.1,1.53-1.6,.08,.06,.17,.12,.25,.18-.13,.45-.24,.91-.4,1.35-.29,.78-.31,.78,.27,1.05-.01-1.31,.38-1.96,1.42-2.31-.22,.62-.42,1.21-.64,1.85,1.03-.49,1.18-1.26,1.14-2.2-.03-.66,.17-1.34,.26-2,.11,.02,.21,.03,.32,.05,.03,.68,.07,1.35,.1,2.03,.34-.3,.53-.61,.64-.95,.67-2.21,1.24-4.47,2.02-6.64,.54-1.5,1.17-2.98,2.59-4,2.08-1.49,4.39-1.09,6.68-1.05,1.93,.03,3.87-.02,5.79-.15,.87-.06,1.88-1.45,1.79-2.28-.44,.34-.84,.66-1.25,.97-.06-.06-.13-.13-.19-.19,.29-.52,.58-1.03,.92-1.63-.41-.27-.78-.52-1.04-.69-.59,.77-1.07,1.4-1.55,2.03-.08-.05-.17-.11-.25-.16,.41-.71,.82-1.43,1.26-2.19-.33-.12-.65-.24-.87-.32-.62,.85-1.18,1.6-1.73,2.35Z"/><path d="M106.69,125.69c-2.07-.12-3.53-.17-4.98-.31-.58-.06-1.17-.27-1.7-.54-1.77-.89-2.06-2.92-.39-3.95,1.56-.97,3.34-1.67,5.1-2.23,2.17-.7,4.4-1.26,6.64-1.65,3.48-.6,5.01-2.81,5.63-6.05,.53-2.79,1.19-5.56,1.9-8.3,.25-.96,.71-1.92,1.31-2.7,.36-.48,1.24-.94,1.76-.82,.57,.13,1.3,.86,1.42,1.45,.34,1.6,.59,3.27,.52,4.89-.17,4.03-.47,8.06-.86,12.08-.12,1.28-.62,2.54-1.07,3.76-.74,2-2.41,3-4.38,3.26-3.82,.5-7.67,.8-10.91,1.13Zm14.27-24.96c-.12-.05-.24-.11-.36-.16-.51,1.71-1.12,3.4-1.52,5.14-.69,2.98-1.25,5.98-1.88,8.97-.05,.23-.16,.53-.34,.63-1.01,.59-2,1.3-3.1,1.65-2.02,.65-4.11,1.09-6.17,1.62-2.58,.65-5.07,1.5-7.14,3.27-.21,.18-.37,.43-.56,.65,.06,.06,.12,.12,.19,.19,.94-.63,1.87-1.26,2.81-1.88,.09,.11,.17,.22,.26,.33-.85,.79-1.71,1.59-2.56,2.38,.08,.09,.24,.26,.21,.22,1.26-.72,2.46-1.4,3.67-2.09,.09,.13,.19,.25,.28,.38-.78,.73-1.56,1.47-2.34,2.19,1.52,.83,2.53-1.18,4.12-.83-.47,.42-.89,.8-1.31,1.17,.05,.11,.11,.22,.16,.33,1.48-.62,2.95-1.24,4.43-1.86,.03,.04,.06,.08,.09,.12-.5,.46-1,.92-1.63,1.51,1.24,0,2.22,.02,2.98-1,.63-.84,1.4-1.63,2.57-1.68,.1,.11,.21,.22,.31,.33-.74,.48-1.49,.96-2.23,1.44,.13,.16,.26,.32,.38,.49,1-.41,2.17,.08,3.11-.9,.51-.53,1.32-.76,2-1.13,.04,.07,.08,.13,.13,.2-.35,.41-.7,.81-1.06,1.22,1.05-.06,2.03-.26,2.9-.69,.64-.32,1.35-.85,1.64-1.47,.49-1.03,.74-2.2,.97-3.34,.17-.86,.15-1.75,.22-2.8-.46,.4-.74,.64-1.14,.98,.23-1.83,1.72-3.2,1.28-5.07-.37,.25-.67,.45-.96,.66,1.21-1.39,1.36-3.04,1.31-4.7-.09,.04-.27,.11-.6,.25,1.05-1.99,1.09-3.96,.74-5.98-.38,1.2-.75,2.39-1.13,3.59-.07-.02-.13-.04-.2-.06,.31-1.62,.61-3.24,.92-4.87-.11-.04-.23-.09-.34-.13-.14,.21-.32,.4-.4,.63-.42,1.17-.8,2.35-1.2,3.53-.15-.05-.29-.09-.44-.14,.32-1.09,.65-2.18,.97-3.26Z"/></svg>