<?xml version="1.0" encoding="UTF-8"?><svg id="Calque_1" xmlns="http://www.w3.org/2000/svg" viewBox="0 0 173.84 178.2"><path d="M133.5,98.88c.26-5.29,1.38-9.99,4.44-13.99,1.36-1.77,2.9-3.39,5.41-3.77,3.62-.54,7.14,1.74,7.53,5.32,.78,7.23-1.45,13.44-6.77,18.46-.76,.71-1.74,1.25-2.7,1.67-3.86,1.68-6.79-1.46-7.51-4.56-.26-1.12-.3-2.29-.4-3.12Zm14.49-5.08c-.19-.08-.38-.16-.57-.24,.8-2.28,1.59-4.56,2.39-6.84-.18-.06-.36-.12-.53-.18l-1.25,3.14c-.19-.05-.38-.11-.57-.16,.22-.86,.35-1.75,.68-2.57,.55-1.37,.64-1.9,.1-2.37-.62,1.4-1.23,2.79-1.85,4.18-.13-.04-.25-.09-.38-.13-.25-1.73,1.37-2.92,1.61-4.6-.44-.15-.87-.29-1.32-.44-.66,1.3-1.27,2.51-1.88,3.71-.14-.07-.29-.14-.43-.21,.53-1.14,1.05-2.28,1.7-3.67-2.21,.38-1.7,2.94-3.81,3.7,.29-1.41,.51-2.47,.74-3.58-2.26,.4-3.89,1.55-5,3.52-1.62,2.86-2.64,5.88-2.95,9.5,.87-1.17,1.52-2.05,2.24-3.02-.04,2.67-3.09,4.32-2.25,7.03,1.2-1.51,2.37-2.98,3.54-4.45,.14,.09,.28,.18,.42,.27-.51,2.53-2.75,4.48-2.65,7.21,.99-1.17,1.99-2.33,2.98-3.5l.58,.4c-.72,1.41-1.45,2.82-2.17,4.23,1.12,1.06,1.55,.15,2.12-.7,.88-1.34,1.29-3.12,3.07-3.67,.16,.1,.32,.19,.48,.29-.78,1.4-1.55,2.79-2.33,4.19,.1,.1,.21,.2,.31,.29,.6-.63,1.29-1.21,1.79-1.91,.69-.98,1.25-2.06,1.86-3.09,.12,.08,.23,.15,.35,.23-.15,.55-.3,1.09-.56,2.04,3.1-3.49,5.31-8.39,5.03-10.71-.47,.68-.97,1.41-1.47,2.14Z"/><path d="M77.08,102.19c.24-5.31,1.34-10.01,4.4-14.02,1.35-1.77,2.84-3.44,5.37-3.82,3.31-.49,6.79,1.35,7.45,4.51,1.49,7.1-1.79,16.05-7.82,20.16-4.43,3.02-8.04,.07-9.02-3.86-.26-1.07-.29-2.19-.38-2.96Zm11.04,3c2.85-2.95,4.52-6.42,5.14-10.64-.66,.95-1.18,1.71-1.71,2.47-.18-.08-.36-.16-.54-.24,.79-2.28,1.58-4.57,2.36-6.85l-.54-.17c-.41,1.04-.82,2.08-1.23,3.13-.2-.07-.41-.13-.61-.2,.45-1.61,.9-3.22,1.35-4.83-.16-.04-.33-.08-.49-.11-.63,1.4-1.26,2.81-1.89,4.21-.19-.07-.37-.14-.56-.22,.6-1.48,1.2-2.97,1.83-4.53-.5-.15-.93-.28-1.36-.41-.66,1.3-1.26,2.48-1.86,3.67-.14-.07-.29-.15-.43-.22,.51-1.11,1.03-2.22,1.7-3.66-2.21,.43-1.73,2.94-3.3,3.55-1.14-1.21,.2-2.21,.39-3.52-1.88,.59-3.59,1.02-4.53,2.73-.86,1.56-1.78,3.11-2.39,4.77-.62,1.69-.89,3.5-1.32,5.26,.11,.02,.23,.04,.34,.06,.65-.86,1.29-1.72,1.94-2.57-.29,1.31-.8,2.48-1.42,3.6-1.21,2.2-1.23,2.19-.66,3.15,1.11-1.37,2.29-2.83,3.47-4.28l.49,.31c-.54,1.2-1.02,2.43-1.63,3.58-1.52,2.84-1.55,2.83-1.08,3.53,.97-1.13,1.96-2.28,2.95-3.44,.19,.13,.38,.27,.57,.4-.73,1.41-1.46,2.83-2.17,4.21,.93,.87,1.51,.44,2.01-.49,.45-.85,.9-1.72,1.48-2.49,.44-.59,1.08-1.02,1.64-1.53,.19,.15,.37,.29,.56,.44-.78,1.39-1.55,2.79-2.33,4.18,.11,.1,.23,.2,.34,.29,.6-.65,1.27-1.24,1.77-1.96,.68-.98,1.23-2.05,1.83-3.08l.37,.2c-.15,.57-.31,1.14-.46,1.71Z"/><path d="M21.53,105c.26-5.29,1.38-9.98,4.44-13.99,1.36-1.77,2.9-3.39,5.41-3.77,3.62-.54,7.14,1.73,7.53,5.32,.78,7.23-1.45,13.44-6.77,18.46-.72,.68-1.65,1.2-2.56,1.61-3.94,1.8-6.92-1.37-7.65-4.51-.26-1.12-.3-2.29-.4-3.12Zm4.64-2.77c.19,.11,.37,.22,.56,.33-.55,1.2-1.02,2.44-1.65,3.59-1.53,2.82-1.56,2.8-1.04,3.47,.97-1.12,1.96-2.25,2.94-3.39,.19,.14,.37,.28,.56,.41-.72,1.38-1.44,2.75-2.16,4.13,1.27,.8,1.25,.75,2.09-.61,.85-1.38,1.32-3.12,3.29-3.81,.1,2.02-1.42,3.1-1.94,4.71,.79-.45,1.48-1.01,1.97-1.71,.7-.99,1.26-2.08,1.87-3.13,.12,.07,.24,.14,.35,.21-.15,.55-.29,1.11-.52,1.97,2.95-3.17,5.24-8.21,5.01-10.62-.48,.68-1.01,1.42-1.54,2.17-.17-.09-.33-.17-.5-.26,.38-1.17,.75-2.35,1.15-3.51,.39-1.12,.83-2.22,1.24-3.34l-.56-.21c-.42,1.05-.83,2.09-1.25,3.14-.19-.06-.38-.11-.57-.17,.22-.86,.35-1.75,.68-2.57,.55-1.37,.63-1.9,.1-2.36-.62,1.39-1.23,2.78-1.85,4.17-.67-1.88,1.04-3.05,1.22-4.75-.44-.14-.87-.28-1.31-.42-.66,1.3-1.27,2.49-1.88,3.69l-.42-.21c.51-1.11,1.02-2.22,1.53-3.33-.11-.11-.23-.21-.34-.32-1.58,.51-1.31,2.81-2.75,3.55-1.17-1.24,.15-2.24,.36-3.55-1.88,.57-3.59,1.03-4.54,2.72-.87,1.55-1.78,3.11-2.39,4.77-.62,1.69-.89,3.5-1.31,5.25,.11,.02,.23,.04,.34,.06,.64-.85,1.29-1.71,1.93-2.56-.29,1.31-.81,2.49-1.43,3.61-1.21,2.2-1.24,2.19-.63,3.14,1.08-1.38,2.23-2.83,3.37-4.29Z"/><path d="M122.99,99.79c-6.28,.26-12.59,.07-18.77,1.5-.89,.21-1.83,.18-2.73,.35-1.2,.24-1.63-.32-1.58-1.4,.09-1.74,.18-3.48,.37-5.21,.03-.32,.44-.78,.76-.86,4.09-1.05,8.17-2.19,12.31-3.01,3.62-.72,7.31-1.09,10.98-1.53,.46-.05,1.35,.37,1.44,.72,.62,2.47,1.16,4.97,1.54,7.48,.11,.74-.29,1.62-1.43,1.66-.97,.04-1.93,.19-2.89,.29Zm1.13-8.01c-.11-.1-.23-.2-.34-.29-.91,1.62-1.72,3.37-4.06,3.21-.89-1.11,.82-1.58,.96-2.52-1.92,.17-3.77,.19-5.56,.52-4.31,.8-8.6,1.73-12.88,2.67-.36,.08-.63,.58-.95,.88,.09,.08,.18,.17,.27,.25,.47-.22,.94-.43,1.74-.8-.48,.67-.72,1-1.07,1.49,.53,.05,.86,.08,1.33,.13-.22,.7-.41,1.31-.64,2.05,.74-.65,1.36-1.21,1.99-1.77,.1,.05,.19,.11,.29,.16-.1,.61-.21,1.23-.31,1.84,.07,.12,.15,.24,.22,.36,1.2-.81,2.41-1.62,3.74-2.52-.03,.54-.05,.94-.09,1.53,5.72-1.05,11.51-.66,17.25-1.49-.19-.9-.3-1.42-.45-2.13-.38,.57-.64,.94-.89,1.32-.06-.03-.12-.06-.17-.09,.35-.95,.7-1.9,1.05-2.84-.11-.03-.23-.06-.34-.1-.33,.62-.66,1.24-.98,1.86-.1-.05-.21-.11-.31-.16,.35-.88,.7-1.75,1.05-2.63-.06-.03-.13-.06-.19-.08-.55,.81-1.1,1.62-1.65,2.42-.14-.07-.28-.15-.41-.22,.47-1.02,.94-2.03,1.41-3.05Z"/><path d="M67.38,102.71c-6.28,.25-12.59,.08-18.77,1.52-.7,.16-1.45,.11-2.16,.21-1.88,.27-2.17,.04-2.08-1.79,.07-1.35,.33-2.71,.26-4.05-.06-1.17,.58-1.56,1.46-1.78,5.54-1.39,11.02-3.1,16.81-3.34,1.95-.08,3.87-.68,5.82-.89,.5-.05,1.43,.37,1.52,.74,.62,2.42,1.15,4.87,1.52,7.34,.11,.74-.22,1.66-1.35,1.73-1.01,.07-2.02,.2-3.03,.3Zm-2.16-7.62c-1.91,.16-3.74,.17-5.51,.5-4.36,.81-8.69,1.74-13.02,2.69-.36,.08-.63,.58-.94,.89,.09,.08,.18,.16,.28,.24,.47-.21,.93-.43,1.73-.8-.49,.68-.72,1.01-1.06,1.5,.54,.05,.87,.07,1.33,.11-.22,.71-.41,1.32-.64,2.05,.73-.65,1.37-1.21,2-1.77l.28,.16c-.1,.62-.21,1.23-.31,1.85,.08,.12,.15,.23,.23,.35,1.2-.81,2.41-1.62,3.75-2.52-.03,.56-.06,.95-.1,1.53,5.72-1.05,11.51-.65,17.25-1.49-.2-.91-.31-1.43-.46-2.13-.39,.57-.64,.94-.89,1.31-.06-.03-.11-.06-.17-.09,.35-.94,.7-1.89,1.04-2.83-.11-.03-.23-.06-.34-.09-.33,.62-.66,1.23-.99,1.85-.1-.05-.2-.1-.31-.16,.35-.87,.7-1.74,1.05-2.62-.07-.03-.13-.06-.2-.08-.55,.81-1.1,1.62-1.65,2.42-.14-.07-.28-.15-.42-.22,.47-1.03,.95-2.05,1.42-3.08-.12-.09-.24-.17-.35-.26-.87,1.62-1.7,3.29-4.01,3.22-.94-1.07,.64-1.58,1.01-2.54Z"/></svg>