<?xml version="1.0" encoding="UTF-8"?><svg id="Calque_1" xmlns="http://www.w3.org/2000/svg" viewBox="0 0 173.84 178.2"><path d="M78.28,79.57c-2.93-2.29-5.7-3.56-8.64-4.42-7.91-2.3-15.63-5.1-22.9-8.99-1.11-.59-2.11-1.65-2.78-2.73-.96-1.54-.32-2.71,1.58-2.76,1.87-.05,3.8,.18,5.62,.64,2.02,.5,3.96,1.34,5.89,2.15,.8,.33,1.46,.97,2.43,1.64-2.18,.93-3.6-.34-5.15-.74-2.54-.66-4.96-1.99-8.15-1.52,.69,.56,1.08,1.02,1.57,1.23,4.86,2.14,9.74,4.23,14.62,6.35,4.39,1.91,9.21,2.82,13.17,5.72,.18,.13,.47,.1,.96,.19-.12-1.24-.22-2.35-.35-3.44-.7-6.11-1.28-12.25-2.17-18.33-.33-2.29-1.25-4.53-2.18-6.67-.6-1.38-2.25-1.82-3.4-1.18-.36,.2-.7,.91-.65,1.35,.41,3.56,.91,7.1,1.38,10.65,.03,.2,.1,.44,.03,.61-.38,.85-.81,1.68-1.22,2.51-.68-.54-1.51-.96-1.99-1.63-1.25-1.72-2.34-3.56-3.49-5.35-.12,.05-.24,.1-.36,.14v3.01c-1.85-2.18-1.17-5.35-3.31-7.85,.34,2.16,1.39,3.86,.54,5.64-.2,.05-.4,.09-.6,.14-.53-1.84-1.07-3.67-1.65-5.67-.27,.46-.48,.81-.92,1.56-1.02-2.14-1.89-3.97-2.76-5.8-.35,1.9,1.87,3.24,.7,5.71-.82-1.55-1.46-2.78-2.1-4.01-.39-.74-.76-1.54-1.88-.7,.67,1.48,2.47,2.52,1.84,4.94-.99-1.36-1.79-2.4-2.52-3.48-.98-1.44-1.25-1.5-2.95-.4,4.55,5.2,10.47,9.22,13.74,15.48-.19,.18-.38,.37-.56,.55-1.16-1.08-2.4-2.1-3.47-3.27-3.51-3.8-6.93-7.68-10.48-11.44-.75-.79-1.89-1.22-3.19-2.01,.91-.45,1.53-.89,2.22-1.08,2.92-.8,5.85-1.56,8.8-2.22,.48-.11,1.26,.16,1.61,.53,3.1,3.26,6.18,6.56,9.19,9.91,1.09,1.21,1.99,2.59,3.26,4.28-.07-1.17-.03-1.95-.17-2.71-.42-2.27-.85-4.54-1.4-6.78-.4-1.59-.18-2.97,1.06-4.02,1.18-1,3.41-.97,4.8-.05,1.83,1.22,3.16,2.94,3.55,5.04,.97,5.23,1.77,10.5,2.51,15.77,.45,3.2,.74,6.43,.93,9.65,.07,1.19-.35,2.41-.59,3.87Z"/><path d="M91.98,99.45c2.37,2.72,4.87,4.35,7.45,5.87,5.29,3.11,10.61,6.17,15.86,9.36,1.91,1.16,3.75,2.48,5.4,3.98,.97,.88,1.63,2.19,2.16,3.42,.48,1.12-.17,1.82-1.39,1.99-2.29,.33-4.24-.74-6.16-1.63-1.93-.89-3.71-2.12-5.49-3.29-.69-.46-1.21-1.17-2-1.97,2.32-.54,3.48,1.05,4.97,1.72,2.41,1.1,4.54,2.94,7.63,2.62-.97-.85-1.84-1.84-2.91-2.53-6.12-3.94-12.3-7.78-18.42-11.72-1.58-1.02-3-2.28-4.48-3.43-.38-.3-.74-.62-1.38-1.14-.13,1.21-.26,2.1-.32,3-.47,6.27-1.03,12.55-1.32,18.83-.1,2.32,.34,4.69,.78,6.99,.27,1.43,1.4,2.22,2.95,2.16,.89-.03,1.26-.31,1.28-1.39,.07-3.52,.27-7.04,.59-10.54,.1-1.03,.78-2.01,1.41-3.53,.78,.89,1.38,1.34,1.66,1.93,.86,1.86,1.59,3.79,2.39,5.68,.15,.35,.4,.66,.72,1.16,.18-1.27,.33-2.32,.47-3.37,.19,0,.39,0,.58,0,.25,2.71,.5,5.42,.75,8.13,.18,0,.36-.01,.53-.02,.22-1.78-.71-3.76,.57-5.37,.2,0,.4-.01,.6-.02,.17,2.06,.35,4.12,.54,6.36,.31-.62,.54-1.09,.78-1.56,.15-.02,.29-.05,.44-.07,.55,2.02,1.1,4.05,1.65,6.07,.73-1.86-1.27-3.64,.35-5.86,.51,1.69,.94,3.06,1.32,4.44,.25,.92,.63,1.54,1.81,.99-.44-1.56-1.96-2.9-1.05-5.24,.74,1.51,1.33,2.65,1.86,3.83,.77,1.72,.89,1.78,2.92,1.03-3.59-5.92-8.53-11.05-10.72-17.76,.21-.14,.42-.29,.62-.43,.81,1.05,1.72,2.05,2.43,3.17,2.83,4.5,5.56,9.07,8.41,13.56,.45,.72,1.31,1.18,1.95,1.78,.28,.26,.5,.57,1.1,1.25-1.64,.25-2.86,.51-4.09,.6-2.34,.18-4.69,.34-7.04,.36-.65,0-1.5-.35-1.92-.84-3.78-4.46-6.33-9.67-8.88-14.88-.18-.36-.31-.74-.47-1.11-.18,.01-.35,.02-.53,.03,0,2.47,.01,4.93,0,7.4-.01,1.25,.22,2.62-.19,3.74-.95,2.63-4,3.18-6.08,1.28-1.59-1.45-2.37-3.33-2.66-5.41-.77-5.64,.05-11.25,.47-16.86,.23-3.01,.45-6.03,.84-9.02,.16-1.2,.79-2.33,1.28-3.73Z"/><path d="M124.43,41.44c.54,.94,.95,1.47,1.16,2.07,1.03,2.93,2.03,5.88,2.95,8.84,.13,.43-.07,1.15-.38,1.49-3.06,3.36-6.15,6.69-9.3,9.96-1.2,1.25-2.61,2.3-3.83,3.82,2.47-.64,4.94-1.31,7.42-1.91,1.24-.3,2.54-.76,3.76-.65,2.59,.25,3.84,3.05,2.58,5.38-1.38,2.57-3.68,4.02-6.39,4.64-5.85,1.33-11.74,2.49-17.62,3.68-1.99,.4-3.99,.82-6.01,1-1.23,.11-2.5-.22-3.41-.31,1.01-2.43,2.09-4.49,2.73-6.68,1.35-4.63,2.32-9.37,3.73-13.98,1.22-4.01,2.7-7.95,4.32-11.82,.51-1.21,1.72-2.21,2.8-3.08,.93-.75,1.73-.38,2.24,.81,.93,2.19,.33,4.38-.02,6.51-.33,1.98-1.04,3.91-1.7,5.82-.29,.84-.84,1.58-1.27,2.37-.17-.03-.34-.06-.51-.09,0-.89-.15-1.81,.03-2.65,.54-2.59,1.25-5.13,1.81-7.72,.16-.77,.03-1.6,.03-2.4-.16-.06-.32-.12-.48-.19-.55,1-1.26,1.96-1.63,3.02-1.57,4.5-2.98,9.07-4.56,13.56-1.6,4.53-2.12,9.44-4.83,13.57-.13,.2-.15,.49-.29,.98,1.15-.18,2.22-.31,3.27-.5,6.09-1.13,12.19-2.19,18.25-3.46,2.07-.43,4.12-1.23,6.03-2.17,2.33-1.16,2.63-3.06,1.18-4.88-2.45,.61-4.82,1.31-7.23,1.78-2.4,.47-4.86,1.3-7.61-.3,.43-.62,.73-1.35,1.28-1.78,1.9-1.54,3.88-2.98,5.68-4.72-1.11,.16-2.22,.31-3.33,.47-.04-.14-.09-.28-.13-.41,2.3-1.69,5.67-1.25,7.68-3.56-1.85,.38-3.57,1.64-5.53,.91-.06-.2-.11-.39-.17-.59,2.1-.73,4.19-1.46,6.29-2.19-.02-.09-.03-.19-.05-.28h-1.99c-.04-.13-.09-.27-.13-.4,1.85-1.08,3.69-2.16,5.54-3.24-.08-.13-.17-.26-.25-.39-1.79,.36-3.02,2.51-5.67,1.64,1.58-.94,2.83-1.69,4.08-2.43,.98-.58,1.02-.68,.6-2.11-1.48,.85-2.43,2.7-4.66,2.2,1.37-1.15,2.73-2.3,4.2-3.54-.2-.62-.44-1.33-.78-2.36-.48,.51-.8,.83-1.1,1.16-3.61,4.03-7.19,8.09-10.86,12.05-.76,.83-1.89,1.32-2.85,1.96-.16-.14-.31-.28-.47-.42,.86-1.11,1.64-2.29,2.59-3.3,3.66-3.91,7.4-7.75,11.06-11.67,.51-.54,.69-1.38,1.03-2.08,.17-.35,.36-.7,.75-1.45Z"/><path d="M73.69,96.95c-.67,2.35-1.51,4.51-1.87,6.75-1.14,7.04-1.97,14.12-3.2,21.14-.46,2.63-1.66,5.14-2.6,7.67-.17,.47-.72,.81-1.13,1.17-1.07,.92-1.98,.73-2.48-.58-.37-.98-.8-2.05-.74-3.05,.18-3.09,.52-6.17,.92-9.24,.11-.86,.65-1.67,.99-2.5,.19,0,.37,.01,.56,.02,.03,.97,.17,1.95,.06,2.91-.37,3.4-1.29,6.77-.35,10.2,.15,.05,.3,.09,.45,.14,.54-1.52,1.28-3,1.58-4.57,1.32-7.01,2.46-14.05,3.8-21.05,.45-2.34,1.3-4.6,2-7.03-5.21,1.62-10.43,3.09-15.55,4.88-3.65,1.27-7.27,2.76-10.7,4.53-2.68,1.38-2.77,3.69-.89,5.31,4.68-1.74,8.93-4.4,14.61-3.68-.44,.89-.61,1.63-1.07,2.08-1.82,1.79-3.73,3.5-5.61,5.24,.11,.13,.21,.26,.32,.39,1.13-.32,2.26-.64,3.39-.96,.07,.14,.14,.27,.22,.41-2.14,1.82-5.42,1.91-7.46,4.55,2.15-.51,3.65-2.32,5.71-1.61,.06,.16,.12,.31,.18,.47-2.05,1.01-4.1,2.02-6.15,3.03,.02,.06,.05,.12,.07,.18l2.14-.21c.07,.14,.15,.28,.22,.41-1.5,1.08-3.01,2.14-4.49,3.26-.29,.22-.42,.66-.46,1.1,3.46-2.61,3.48-2.62,5.42-2.46-1.28,1.05-2.32,2.01-3.47,2.81-.91,.64-1.36,1.22-.35,2.33,1.29-1.08,2-3.1,4.06-3.12,.16,.17,.32,.34,.48,.5-1.47,1.15-2.94,2.3-4.34,3.38,.57,1.11,.96,1.87,1.39,2.72,4.27-5.69,7.22-12.31,12.69-16.96,.21,.14,.41,.28,.62,.42-.91,1.44-1.76,2.94-2.75,4.33-3.05,4.24-6.2,8.41-9.22,12.68-.53,.75-.61,1.82-1.01,3.13-.63-.81-1.19-1.32-1.51-1.96-1.35-2.72-2.65-5.46-3.9-8.22-.17-.38-.16-1.05,.07-1.38,2.6-3.7,5.22-7.39,7.93-11.02,1.1-1.47,2.43-2.75,3.5-4.49-2.35,.92-4.69,1.86-7.05,2.74-1.23,.46-2.48,1.07-3.75,1.12-2.63,.12-4.15-2.42-3.18-4.98,.77-2.06,2.25-3.5,4.13-4.54,5.32-2.94,11.2-4.37,16.94-6.16,2.17-.68,4.34-1.35,6.5-2.04,1.58-.5,3.15-.81,4.33-.2Z"/><path d="M83.94,98.02c-3.88-.1-6.43-1.55-7.15-4.33-.78-3.04,.55-5.58,2.53-7.66,1.52-1.6,3.62-2.63,5.14-4.23,1.67-1.77,3.84-1.93,5.81-1.92,5.9,.02,9.16,4.19,7.18,9.82-1.71,4.85-5.62,6.96-10.34,7.92-1.04,.21-2.11,.28-3.17,.42Zm-.39-1.91c1.03-.17,2.58-.26,4.02-.69,3.68-1.09,6.86-2.83,8.03-6.92,.66-2.3-.06-4.46-2.2-5.34-1.56-.64-3.29-.92-4.96-1.26-.75-.15-1.67-.31-2.32-.03-3.37,1.46-6.04,3.8-7.67,7.12-.5,1.02-.75,2.35-.59,3.46,.35,2.34,2,3.5,5.68,3.66Z"/></svg>