<?xml version="1.0" encoding="UTF-8"?><svg id="Calque_1" xmlns="http://www.w3.org/2000/svg" viewBox="0 0 173.84 178.2"><path id="Tracé_147" d="M100.65,74.4l1.56,1.81,1.69,1.93-2.89,3.25-1.08-.86-.96-.72-1.08-.96-.6-.49-.72-.36,1.57-1.32,.24,.36,.36,.48,.72,.72,.96,1.2,.48,.49,.72,.36h.24l.12-.24-.12-.72-.24-.72-.49-.48-.48-.6-.72-.96-.36-.48-.48-.24,1.56-1.44Zm-4.82,4.33l.36,.61,.48,.6,1.08,1.08,.96,.96,.96,.97-.6,.72-1.08-.96-1.21-.84-1.07-1.08-.6-.48-.72-.36,1.44-1.2Zm-1.93,1.69v.36l.24,.36,.36,.72,.6,.6,.48,.6,1.2,.97,.6,.48,.72,.49-1.2,1.32-.49-.6-.48-.49-1.08-.84-1.32-1.33-1.33-1.2,1.69-1.44Zm-2.78,2.53l.48,.6,.48,.6,1.2,1.08,1.08,1.21,.72,.72,.72,.48-1.45,1.81-1.33-1.69-1.2-1.45-.96-1.2-.48-.61-.48-.48,1.2-1.08Zm-2.53,2.17l.6,.96,.72,.84,1.45,1.81,1.56,1.81,.12,.24-.24,.24-.6,.72-.12-.36-1.33-1.68-1.56-1.69-.86-.96-.84-.84,1.1-1.09Zm-2.39,2.17l.72,1.08,.72,.96,1.44,1.81,.86,.84,.84,.72,.36,.12-1.56,1.56-.12-.48-.12-.48-.48-.84-.6-.86-.72-.72-.96-1.44-.72-.84-.6-.6,.95-.83Zm-15.05-2.89l.72,.96,.96,.96,1.57,1.33,1.56,1.44,1.69,1.2,.96,.72,.36,.24,.48,.12v.24l.12,.24h.6l.48-.12,.84-.36,.24,.72,.36,.72,.96,1.33,.6,.96,.86,.72,.36,.36,.48,.24,.6,.24,.48,.12,.24-.12v-.12l-.36-.84-.6-.84-1.2-1.33-.6-.72-.36-.72-.48-.84-.6-.6,1.56-1.45,.24,.72,.48,.6,.96,1.2,.6,.96,.72,.96,.48,.48,.48,.36,.49,.24,.48,.24-2.29,2.17-1.81,1.56-.12-.24-.12-.24-.84-1.08-1.08-.96-2.17-1.93-2.05-1.93-2.05-1.93-4.33-3.85-.84-.72-.84-.72,.72-.73Zm-2.05,1.81l.84,.84,.86,.86,4.33,3.85,2.05,1.81,2.29,1.93,1.08,.96,1.08,.96,1.08,.96,1.2,.86,.24,.12-.6,.48-8.56-7.1-3.25-2.89-1.81-1.44-.84-.6-.96-.6,.86-.86,.1-.13Zm-1.57,1.69l.6,.84,.86,.72,1.68,1.44,3.37,2.65,8.55,7.11-.84,.72-1.08-.86-1.2-.84-1.21-.84-1.2-.86-2.41-2.04-2.29-2.05-2.17-2.29-2.05-2.41-.48-.48-.48-.48,.35-.34Zm33.11-16.02l-.36,.12-.24,.12-.48,.24-5.66,5.06-5.66,5.17-2.89,2.53-2.78,2.65-1.2,.96-1.08,1.08-.48-.48-.6-.36-1.93-1.57-1.93-1.57-1.56-1.56-1.2-.96-.49-.36-.48-.24-.24-.12-.48-.24h-.48l-.49,.12-.48,.24-.96,.6-.72,.6-1.08,.84-.96,.84-.49,.6-.36,.48-.24,.6-.12,.6,.12,.36,.24,.36,.24,.24,.36,.12,.12,.48,.24,.48,.36,.6,.36,.6,.84,.96,1.08,1.21,.96,1.2,2.29,2.17,1.93,1.81,2.17,1.81,1.2,.84,1.08,.72,1.2,.72,1.21,.6-.12,.12v.36l.12,.36,.24,.12h.36l.86-.24,.84-.49,.72-.48,.72-.6,1.44-1.32,1.2-1.21,3.5-3.25,3.37-3.37,3.01-3.01,3.13-3.25,2.89-3.37,1.33-1.69,1.32-1.81,.36,.24,.36,.12h.49l.36-.24,.24-.24,.24-.36v-.36l-.24-.49-1.2-1.56-1.44-1.56-1.57-1.81-.72-.86-.96-.84-.36-.24-.37,.02Zm-16.49-23.84l1.32,.24,1.44,.24,2.89,.24,1.69,.24,1.56,.36,3.13,.86,1.68,.6,1.69,.6,1.69,.72,1.56,.72,1.56,.84,1.57,.84,3.01,2.05,1.44,1.08,1.45,1.2,1.33,1.33,1.32,1.45,1.21,1.33,1.08,1.56,1.08,1.57,.96,1.57,.86,1.68,.84,1.69,.6,1.69,.72,1.81,.48,1.81,.48,1.81,.36,1.81,.24,1.93,.36,3.97v3.85l-.12,2.05-.12,1.93-.36,1.93-.36,1.93-.48,1.93-.6,1.81-.72,1.81-.84,1.69-.96,1.69-1.08,1.68-1.2,1.44-1.44,1.57-1.44,1.32-1.45,1.21-1.56,1.2-1.57,1.2-3.37,2.17-3.37,1.93-1.69,.84-1.81,.72-3.61,1.44-1.81,.6-1.81,.48-1.81,.6-1.68,.72-.36,.24-.12,.36h-3.85l-1.81-.12-1.93-.24-1.81-.24-1.81-.48-1.81-.48-1.81-.48-1.81-.6-1.68-.72-1.69-.84-1.69-.86-1.68-.96-1.57-1.08-1.45-1.08-1.56-1.08-1.56-1.44-1.44-1.32-1.33-1.57-1.32-1.57-1.21-1.68-1.08-1.69-.96-1.69-.96-1.81-.72-1.81-.72-1.93-.72-1.93-.48-1.93-.49-2.05-.24-1.93-.24-2.05-.24-2.05v-2.05l.12-2.05,.12-2.05,.36-2.05,.36-1.93,.48-1.93,.6-1.93,.72-1.93,.72-1.81,.96-1.81,.96-1.81,1.08-1.68,1.08-1.69,1.33-1.57,1.33-1.57,1.44-1.44,1.44-1.32,1.57-1.21,1.57-1.2,1.69-1.08,1.68-1.08,1.81-.84,1.81-.84,1.81-.86,1.69-.6,1.69-.49,3.49-.84,1.44-.24,1.57-.12,1.45-.24,1.43-.22Zm-2.05-2.17l-1.56,.12-1.57,.24-2.05,.36-2.17,.48-2.05,.61-1.93,.72-1.93,.84-1.93,.84-1.81,.96-1.69,1.08-1.68,1.08-1.69,1.32-1.56,1.21-1.57,1.45-1.56,1.44-1.45,1.56-1.44,1.69-1.2,1.68-1.2,1.81-1.08,1.81-.96,1.93-.84,1.93-.72,2.05-.72,1.93-.49,2.05-.48,2.17-.36,2.05-.24,2.17-.12,2.17v4.33l.24,2.17,.24,2.17,.48,2.05,.48,2.05,.72,2.05,.72,1.93,.84,1.93,.86,1.81,1.08,1.81,1.08,1.81,1.2,1.68,1.33,1.69,1.32,1.44,1.44,1.56,1.45,1.45,1.69,1.33,1.56,1.2,1.69,1.21,1.81,1.08,1.81,1.08,1.81,.84,1.93,.84,1.93,.86,2.05,.6,2.05,.49,2.05,.48,2.05,.36,2.17,.24,2.17,.12h2.17l2.17-.12,.48-.24,.36-.24,1.81-.12,1.93-.36,1.93-.6,1.93-.6,1.81-.86,1.81-.84,3.49-1.69,1.81-.96,1.68-1.08,1.81-1.08,1.69-1.21,1.69-1.2,1.56-1.2,1.56-1.44,1.45-1.33,1.44-1.57,1.33-1.57,1.08-1.68,1.08-1.81,.84-1.81,.86-1.93,.6-1.93,.6-2.05,.36-2.05,.36-2.05,.24-2.04,.12-2.05v-2.05l-.12-2.17-.12-1.93-.24-2.05-.36-2.05-.36-1.93-.49-1.93-.6-1.93-.6-1.93-.72-1.81-.84-1.81-.86-1.68-.96-1.69-1.08-1.69-1.08-1.57-1.33-1.56-1.2-1.57-1.44-1.32-1.45-1.44-1.57-1.33-1.44-.96-1.56-1.08-1.45-.96-1.56-.84-3.25-1.57-3.37-1.2-1.93-.6-1.93-.6-1.93-.36-2.05-.36-2.65-.36-1.44-.12-1.33,.12-.72-.24-.72-.12h-1.46Z" fill="#141325" fill-rule="evenodd"/></svg>