<?xml version="1.0" encoding="UTF-8"?><svg id="Calque_1" xmlns="http://www.w3.org/2000/svg" viewBox="0 0 173.84 178.2"><path id="Tracé_154" d="M95.13,49.2l-.54,.14-.54,.13-.54,.4-.27,.4-.27,.67v1.06l.27,.54,.27,.53,.54,.27,.54,.27,.4,.14h.27l.82-.14,.67-.4,.4-.66,.27-.54,.13-.66-.13-.67-.4-.53-.54-.54-.67-.27-.67-.13Zm6.97,2.66l-.4,.13-.4,.14-.4,.13-.4,.27-.27,.4-.13,.4-.14,.4-.12,.38,.13,.4,.14,.4,.13,.4,.27,.4,.4,.27,.4,.14,.4,.13,.4,.13,.4-.13,.4-.13,.4-.14,.4-.27,.27-.4,.11-.38,.13-.4,.14-.42-.13-.4-.14-.39-.14-.4-.27-.4-.4-.27-.4-.13-.4-.14-.39-.12Zm6.03,3.19l-.4,.13-.54,.14-.4,.13-.27,.27-.27,.4-.13,.4-.14,.8,.14,.8,.13,.4,.27,.4,.27,.27,.4,.14,.54,.13,.4,.13,.54-.13,.4-.13,.4-.14,.4-.27,.13-.4,.27-.4,.13-.8-.13-.8-.27-.4-.13-.4-.4-.27-.4-.13-.4-.14-.54-.13Zm-11.79,1.32l-.54,.14-.54,.13-.4,.27-.4,.4-.27,.4-.13,.53-.14,.53,.14,.54,.27,.53,.4,.53,.4,.27,.54,.27,.67,.13,.54-.13,.67-.27,.4-.27,.14-.13,.27-.27,.27-.53,.27-.67v-.8l-.27-.4-.13-.4-.4-.27-.4-.27-.67-.13-.67-.13Zm6.57,1.86l-.4,.13-.4,.27-.27,.27-.27,.27-.27,.4-.14,.4v.8l.14,.4,.27,.4,.27,.27,.27,.27,.4,.27,.4,.14h.93l.4-.14,.27-.27,.4-.27,.27-.27,.14-.4,.13-.4,.13-.4-.13-.4-.14-.44-.14-.4-.27-.27-.4-.27-.27-.27-.4-.13-.93,.04Zm-6.03,4.78l-.54,.13-.27,.27-.4,.27-.27,.27-.13,.4-.14,.4-.13,.54,.13,.4,.14,.4,.13,.4,.27,.27,.4,.27,.27,.27,.54,.13h.82l.4-.13,.4-.27,.4-.27,.27-.27,.14-.4,.13-.4,.13-.4-.13-.54-.13-.4-.14-.4-.27-.27-.4-.27-.4-.27-.4-.13h-.82Zm-5.9-17.92l.54,.27,.67,.13,1.47,.13,1.47,.14,1.34,.27,2.14,.4,1.88,.67,2.01,.8,1.87,.93,2.01,1.06,1.74,1.32,1.61,1.33,1.61,1.46,1.34,1.59,1.47,1.59,2.67,3.45-1.21,.93-1.21,.93-2.67,1.59,.13-.54v-.53l-.13-.4-.27-.4-.27-.27-.27-.27-.4-.27-.54-.13h-.82l-.54,.13-.4,.27-.27,.27-.27,.27-.27,.4-.13,.4v.53l.13,.67,.27,.67,.54,.53,.67,.27-3.62,1.86,.13-.4v-.53l-.13-.4-.14-.4-.54-.53-.54-.4-.82-.14h-.67l-.54,.27-.54,.27-.13,.27-.13,.14-.14,.27-.27,.54v.8l.13,.66,.54,.53,.4,.4,.67,.27-2.41,1.59-2.28,1.59,.14-.67-.14-.53-.13-.53-.4-.54-.4-.27-.54-.27h-.98l-.54,.13-.4,.27-.4,.4-.27,.4-.13,.4-.14,.53v.14l.14,.8,.4,.53,.4,.53,.67,.27,.4,.13-2.01,1.19-2.01,1.06,.14-1.46-.14-1.46-.12-2.99v-1.46h.27l.27-.14,.27-.27,.27-.27,.13-.53v-.53l-.27-.4-.27-.27-.27-.27h-.4v-2.65h.67l.54-.27,.4-.4,.27-.53v-.54l-.14-.53-.27-.53-.4-.27-.4-.27h-.54v-2.25l-.27-2.39,.4,.13h.4l.27-.13,.4-.14,.14-.4,.13-.4v-.34l-.13-.4-.27-.27-.27-.27-.27-.13h-.82l-.27,.13-.13-1.19-.14-1.86v-1.72l.29-3.57Zm-.8-1.87l-.4,.14-.27,.27-.4,.8-.27,.8-.27,.8v.93l-.13,1.86,.13,1.73,.27,4.24,.27,4.25v4.78l-.27,4.78,.13,4.51,.13,2.26-.13,2.25-.27,.54,.14,.4,.27,.4,.14,.13h.4l.27,.13h.4l.4-.13,.27-.27,1.07-.27,.94-.27,1.88-.93,1.74-1.06,1.74-1.19,3.35-2.52,1.61-1.19,1.74-1.06,3.62-1.99,3.89-1.99,1.74-1.06,1.87-1.19,1.61-1.33,1.61-1.46,.14-.27,.13-.4v-.27l-.13-.27-.4-.54-.27-.13-.27-.13-1.07-1.86-1.34-1.72-1.34-1.58-1.61-1.59-1.74-1.46-1.74-1.46-1.74-1.19-1.74-1.06-2.01-1.06-2.14-.93-2.01-.67-2.28-.67-1.61-.4-1.88-.27-.94-.12h-.94l-.82,.27-.82,.27-.27-.4-.38-.15Zm13.93,34.25l-.14,1.32v4.25l-5.49-.13-1.61-.14,1.88-1.2,1.88-1.32,3.48-2.78Zm3.62-2.79l-.14,1.32v1.19l-.27,2.92v3.05h-1.74v-1.32l-.27-1.32-.14-1.86-.27-.93-.24-.78,1.07-.8,2-1.47Zm3.75-2.39v4.39l-.27,3.19-.13,3.32h-1.47v-8.1l-.13-.67-.13-.8,2.15-1.33Zm4.15-2.26l.13,1.33,.14,1.46,.27,2.79,.14,3.85,.13,1.86,.27,1.86h-2.81l-.13-.4-.27-.27v-2.92l.13-2.91,.14-1.19-.14-1.47-.13-1.32-.27-.67-.27-.53,2.67-1.46Zm4.55-2.25l-.27,.93-.14,.93v1.06l.14,1.06,.13,1.99,.13,1.86v1.86l-.13,1.99v1.86l.13,.93,.14,.93h-2l.27-1.86v-1.99l-.27-3.72-.14-1.59-.13-1.59-.27-1.72-.54-1.46,2.96-1.46Zm4.82-2.12l-.13,.13-.27,2.12v6.37l-.13,2.12-.13,2.26-.14,2.26v2.25h-1.47v-.13l-.27-.93v-2.79l.13-3.72v-1.19l-.13-1.06-.27-2.39-.13-1.99v-.93l-.4-.93,3.36-1.46Zm2.01,4.9l.14,.66,.82,2.92,.54,3.05,.13,1.46v1.46l-.13,1.59-.13,1.46-.94-.13h-1.07l.27-.93,.14-.93,.13-1.99,.13-3.98-.03-4.64Zm-2.14-8.1l-.27,.13h-.27v.27l-.27,.13-4.82,2.12-4.68,2.39-4.56,2.52-2.27,1.33-2.15,1.46-2.01,1.46-2.01,1.46-3.86,3.06-2.01,1.33-2.15,1.32-2.27,.93-1.07,.54-1.21,.27-.4,.14-.27,.27-.13,.27-.13,.4v.27l.13,.4,.13,.27,.27,.27,.67,.27,.82-.14,.4-.13,.82-.13,.82,.13,.94-.13,2.81,.13,2.68,.13,5.63,.27,5.49,.13,5.5-.13,5.63,.13,2.27,.14,2.68,.27h1.34l1.21-.13,1.21-.13,1.07-.4,.27-.27,.27-.4v-.4l-.13-.4,.27-3.06v-2.99l-.45-3.06-.54-2.92-.67-2.52-.54-1.59-.54-1.46-.82-1.46-.82-1.19-.4-.54-.54-.4-.54-.4-.48-.27Zm-41.93-12.87l-.13,1.06-.14,1.19,.14,2.12,.27,3.72,.13,1.85,.13,1.86v18.85l-.13,2.92,.13,3.06,.27,1.32,.27,1.46-.13,.27,.27,.27,.27,.4,.4,.27h.82l1.61,.27h5.09l5.22,.4,2.54,.13,2.68,.13,5.5-.13,5.36-.13,5.49-.14,5.5,.14-.4,1.72-.4,1.72-.13,1.73-.17,1.82-.13,1.46-.27,1.32-.4,1.33-.4,1.32-.54,1.32-.67,1.19-1.47,2.39-1.47,2.26-1.74,2.25-3.35,4.25-1.07,1.19-1.07,1.06-1.21,.93-1.21,.93-2.54,1.59-2.68,1.33-2.54,1.32-2.54,1.06-2.68,.8-2.68,.8-2.67,.53-2.68,.27-2.81,.13-2.81-.13-2.68-.4-2.67-.54-2.55-.8-2.54-1.06-2.54-1.04-2.28-1.32-2.41-1.33-2.14-1.46-2.28-1.59-2.01-1.73-2.01-1.72-1.86-1.99-1.6-1.99-1.61-2.12-1.34-2.26-1.21-2.39-.94-2.39-.82-2.39-.54-2.52-.38-2.52-.14-2.53-.13-2.52,.13-2.52,.27-2.52,.27-2.39,.4-2.52,.67-2.52,.67-2.52,.82-2.39,.92-2.4,1.21-2.25,1.34-1.99,1.61-2.12,1.74-1.99,1.88-1.73,2.01-1.72,2.14-1.59,2.28-1.46,2.27-1.46,2.15-1.33,1.74-.93,1.87-.67,1.88-.4,1.88-.4,1.87-.27,2.01-.27,3.89-.25Zm1.47-2.25l-.4,.13-.27,.27-2.54-.14-2.55,.14-2.41,.27-2.41,.54-2.41,.66-2.27,.8-2.28,.93-2.27,1.06-2.15,1.33-2.14,1.31-2.01,1.46-1.88,1.59-1.87,1.72-1.74,1.72-1.61,1.86-1.61,1.97-1.21,1.86-1.07,2.12-.94,2.12-.82,2.26-.67,2.39-.67,2.25-.78,4.53-.4,2.39-.27,2.25-.14,2.26v2.39l.13,2.26,.27,2.25,.27,2.39,.54,2.26,.66,2.39,.82,2.26,1.07,2.12,1.21,2.12,1.21,2.12,1.47,1.99,1.61,1.86,1.74,1.72,1.74,1.73,1.87,1.59,2.01,1.59,2.01,1.32,2.15,1.32,2.14,1.19,2.14,1.19,2.28,.93,2.27,.93,2.28,.8,2.41,.67,2.41,.4,2.41,.4,2.41,.13h2.54l2.41-.13,2.55-.27,2.54-.67,2.54-.66,2.55-.93,2.41-.93,2.41-1.19,2.27-1.19,2.28-1.32,2.14-1.46,2.01-1.59,1.88-1.86,1.74-1.99,1.61-2.12,1.61-2.12,2.81-4.25,1.21-2.12,1.07-2.12,.67-2.26,.27-1.19,.27-1.19,.4-4.78,.4-2.26,.27-1.19,.27-1.19,.13-.13,.14-.27,.13-.4v-.8l-.27-.27-.13-.27-.4-.27-.4-.13-3.1-.1h-2.95l-5.89,.13-6.03,.13-5.9,.14-2.68-.14-2.54-.13-5.22-.27-2.81-.27-1.47-.14-1.47,.14v-2.26l-.14-2.39-.27-4.65-.14-7.41-.13-7.57v-3.59l-.27-3.59-.27-1.59-.14-1.99v-1.99l.14-.93,.27-.67,.15-.4v-.4l-.14-.4-.27-.27-.4-.13-.39-.13Z" fill="#373838" fill-rule="evenodd"/></svg>