<?xml version="1.0" encoding="UTF-8"?><svg id="Calque_1" xmlns="http://www.w3.org/2000/svg" viewBox="0 0 173.84 178.2"><path d="M119,104.21c-1.94-2.67-3.83-5.33-5.79-7.93-2.71-3.6-5.28-7.29-7.67-11.1-.93-1.48-1.95-2.91-2.88-4.4-.83-1.32-.69-2.42,.39-3.55,.25-.26,.52-.51,.81-.73,2.21-1.74,4.42-3.48,6.64-5.2,.7-.55,1.39-1.14,2.31-1.31,.97-.18,1.79,.39,1.94,1.36,.03,.19,.1,.38,.2,.55,3,5.52,6.37,10.83,9.67,16.18,3.26,5.29,6.28,10.72,9.38,16.12,.43,.75,.69,1.61,1,2.42,.37,.96,.16,1.85-.38,2.69-1.04,1.65-2.41,3.03-3.8,4.37-3.34,3.22-6.74,6.36-10.06,9.59-3.1,3.03-6.11,6.15-9.18,9.21-.8,.79-1.64,1.54-2.49,2.28-.32,.27-.72,.45-1.08,.67-.09,.06-.2,.11-.26,.19-.83,1.1-2.12,1.1-2.93-.03-.53-.74-.93-1.57-1.48-2.29-1.26-1.62-2.61-3.16-3.85-4.8-.76-1.01-1.38-2.14-2.03-3.22-.06-.1,0-.32,.05-.45,.28-.62,.61-1.21,.86-1.84,.19-.47,.5-.57,.87-.32,.39,.26,.63,.13,.93-.13,4.2-3.64,8.56-7.11,12.38-11.17,1.78-1.89,3.49-3.85,5.23-5.78,.39-.43,.77-.86,1.24-1.38Zm-8.03-29.07c-.17,.12-.24,.17-.32,.23-1.41,1.12-2.83,2.24-4.24,3.36-.17,.13-.33,.27-.5,.4-.24,.18-.26,.36-.08,.62,.63,.93,1.24,1.88,1.86,2.81,2.1,3.15,4.16,6.33,6.33,9.43,2.18,3.12,4.5,6.14,6.71,9.23,.75,1.04,1.44,2.15,2,3.3,.52,1.08-.11,2.12-1.31,2.22-.65,.06-1.01,.36-1.36,.82-1.84,2.5-3.9,4.8-6.08,7-3.45,3.49-7.24,6.59-10.95,9.8-.51,.44-1.02,.88-1.58,1.36,1.31,1.56,2.59,3.08,3.94,4.68,.03-.25,.04-.43,.06-.6,.07-.59,.06-1.2,.22-1.77,.14-.49,.36-1.01,.7-1.38,.68-.74,1.88-.49,2.24,.45,.15,.4,.18,.87,.14,1.3-.06,.8-.21,1.59-.35,2.51,.5-.43,1.02-.68,.71-1.39-.08-.17-.03-.43,.01-.64,.38-1.67,.74-3.36,1.2-5.01,.14-.5,.55-.97,.94-1.34,.41-.39,.98-.37,1.49-.09,.49,.27,.76,.7,.74,1.26-.01,.34-.1,.68-.19,1.02-.16,.62-.35,1.23-.53,1.84,.6-.6,1.39-.93,1.38-2.07-.03-1.83,.41-3.64,1.04-5.38,.27-.74,.65-1.42,1.39-1.81,.93-.49,2-.04,2.24,.96,.12,.5-.07,.93-.31,1.36-.34,.63-.62,1.29-.92,1.94,.07,.05,.15,.1,.22,.15,.43-.47,.87-.94,1.3-1.43,.08-.09,.11-.23,.15-.36,.5-1.66,.96-3.33,1.53-4.96,.17-.47,.6-.93,1.03-1.2,.91-.57,2.06,.12,2.1,1.2,0,.25-.04,.5-.06,.81,.44-.37,.9-.66,.76-1.31-.02-.11,.01-.23,.04-.34,.57-1.93,1.13-3.87,1.74-5.78,.14-.43,.41-.84,.72-1.17,.85-.91,2.3-.52,2.64,.68,.14,.52-.04,.97-.27,1.42-.3,.61-.57,1.24-.86,1.86,.07,.04,.13,.09,.2,.13,.97-1.16,1.94-2.32,2.89-3.5,.1-.13,.12-.42,.06-.59-.32-.81-.62-1.64-1.05-2.4-1.9-3.33-3.83-6.64-5.76-9.96-.26-.45-.53-.89-.86-1.46-.21,.85-.36,1.58-.57,2.28-.24,.81-1.01,1.25-1.77,1.08-.76-.18-1.32-.92-1.17-1.72,.31-1.66,.83-3.26,1.59-4.85-.5-.79-1.04-1.64-1.65-2.61-.12,.61-.21,1.06-.29,1.51-.17,.91-.29,1.83-.5,2.73-.17,.73-.72,1.14-1.37,1.16-.64,.02-1.26-.39-1.45-1.08-.13-.46-.18-.99-.1-1.46,.19-1.11,.43-2.21,.75-3.29,.28-.95,.15-2.03,.86-2.84-.47-.75-.93-1.47-1.45-2.29-.22,.86-.42,1.61-.6,2.36-.22,.94-.97,1.5-1.83,1.35-.86-.15-1.4-.93-1.27-1.89,.05-.34,.13-.68,.25-1.01,.44-1.25,.9-2.49,1.34-3.73,.06-.18,.14-.42,.07-.56-.33-.66-.71-1.3-1.12-2.03-.06,.28-.1,.47-.14,.65-.21,1.04-.37,2.09-.65,3.1-.21,.8-.91,1.23-1.59,1.16-.74-.08-1.31-.64-1.32-1.49-.01-.73,.11-1.48,.25-2.2,.15-.82,.37-1.63,.59-2.55Z"/><path d="M46.7,102.49c3.25,3.56,6.27,7.29,9.84,10.48,3,2.67,6.07,5.27,9.1,7.92,.23,.2,.38,.2,.64,.06,.59-.33,.73-.27,1.02,.32,.27,.57,.53,1.14,.82,1.7,.15,.28,.1,.48-.05,.76-1.38,2.61-3.45,4.71-5.21,7.04-.66,.87-1.21,1.81-1.8,2.73-.61,.95-1.35,1.32-2.22,1.08-.16-.04-.36-.09-.44-.21-.56-.79-1.53-1.02-2.2-1.69-3.07-3.06-6.16-6.1-9.27-9.12-3.93-3.81-7.92-7.57-11.82-11.41-1.39-1.36-2.65-2.86-3.9-4.36-.87-1.04-.91-2.23-.41-3.5,.81-2.07,1.93-3.99,3.05-5.89,2.7-4.57,5.32-9.19,8.15-13.68,3.03-4.8,5.95-9.65,8.69-14.62,.1-.18,.16-.4,.2-.6,.14-.85,.96-1.5,1.8-1.31,.55,.13,1.11,.36,1.57,.69,1.26,.91,2.46,1.9,3.68,2.86,1.15,.9,2.3,1.78,3.44,2.68,.45,.36,.91,.72,1.3,1.15,.98,1.07,1.09,2.13,.33,3.35-.78,1.25-1.6,2.47-2.42,3.69-2.26,3.36-4.49,6.75-6.81,10.06-2.18,3.11-4.47,6.16-6.71,9.23-.13,.17-.23,.36-.38,.58Zm17.45,21.48c-.16-.15-.27-.27-.4-.37-1.07-.92-2.13-1.83-3.2-2.74-5.4-4.59-10.73-9.26-14.96-15.02-.37-.5-.77-.81-1.44-.86-1-.08-1.54-.82-1.37-1.8,.08-.46,.27-.93,.54-1.31,2.34-3.33,4.65-6.67,7.07-9.95,3.25-4.4,6.14-9.02,9.17-13.57,.5-.75,.48-.76-.23-1.31-.04-.03-.08-.06-.12-.09-1.9-1.56-3.81-3.13-5.71-4.69-.13-.11-.27-.22-.39-.32-.66,1.32-1.22,2.64-1.95,3.85-2.17,3.63-4.44,7.21-6.62,10.84-2.93,4.88-5.83,9.77-8.7,14.68-.76,1.31-1.35,2.72-2,4.09-.06,.13-.09,.35-.02,.46,.22,.39,.49,.75,.8,1.21,.18-.38,.28-.66,.43-.91,.58-1.02,1.14-2.05,1.79-3.02,.28-.42,.73-.79,1.18-1.03,1.01-.55,2.16-.04,2.35,.99,.14,.72-.27,1.22-.74,1.69-1.24,1.24-2.01,2.77-2.62,4.39-.05,.14,.02,.38,.11,.51,.17,.23,.41,.41,.65,.64,.21-.65,.33-1.26,.59-1.8,.27-.55,.61-1.1,1.03-1.54,.49-.5,1.24-.48,1.78-.09,.54,.39,.75,1.06,.51,1.72-.08,.23-.21,.45-.29,.68-.33,1.03-.66,2.07-.97,3.11-.04,.13,0,.36,.08,.45,.39,.41,.82,.79,1.27,1.23,.12-.3,.2-.53,.31-.76,.45-.98,.88-1.98,1.77-2.66,.81-.62,1.67-.59,2.24,.02,.58,.63,.51,1.45-.19,2.22-.06,.06-.12,.12-.17,.18-.73,.9-1.25,1.91-1.46,3.05-.02,.12,.03,.3,.12,.39,.24,.26,.52,.49,.79,.74,.24-.52,.45-1.01,.69-1.48,.39-.77,.84-1.51,1.61-1.97,.97-.57,2.05-.17,2.3,.84,.14,.59-.1,1.07-.47,1.5-.8,.91-1.33,1.97-1.65,3.13-.04,.13-.05,.32,.03,.4,.44,.49,.9,.95,1.4,1.47,.12-.23,.18-.37,.26-.52,.44-.79,.92-1.54,1.74-1.99,1-.55,2.14-.03,2.28,1.04,.08,.62-.28,1.04-.63,1.5-.47,.61-.85,1.28-1.26,1.94-.17,.27-.09,.5,.24,.65,.08-.15,.14-.31,.25-.42,.34-.35,.66-.75,1.06-1.01,.5-.33,1.06-.24,1.52,.15,.46,.39,.62,.9,.43,1.47-.1,.29-.3,.55-.4,.85-.09,.25-.11,.53-.16,.79,.05,.01,.1,.02,.15,.03,.1-.28,.18-.57,.29-.84,.32-.8,.65-1.6,1.41-2.11,.68-.46,1.43-.42,1.96,.08,.54,.51,.67,1.28,.2,1.94-.76,1.09-1.12,2.31-1.38,3.58-.15,.71,.04,1.04,.77,1.34,.06-.17,.11-.35,.17-.52,.41-1.05,.83-2.1,1.64-2.92,.96-.96,1.68-1,2.76-.13,.57-.68,1.14-1.36,1.74-2.09Z"/><path d="M87.47,62.41c1.94,.25,3.79,.27,5.42,1.24,1.11,.66,1.6,2.1,1.06,3.28-.14,.3-.45,.51-.66,.77-.13,.16-.32,.34-.34,.52-.48,3.97-.94,7.95-1.41,11.93-.88,7.44-1.76,14.87-2.64,22.31-.45,3.79-.87,7.59-1.32,11.38-.65,5.52-1.31,11.04-1.96,16.55-.03,.26,.03,.57,.13,.81,.49,1.11,.31,2.1-.55,2.92-.07,.07-.13,.15-.18,.23-.64,1.04-1.69,1.12-2.32,.09-.32-.52-.72-.65-1.24-.8-1.24-.36-2.45-.79-3.67-1.21-.27-.1-.48-.17-.76,.04-.41,.32-.84,.18-1.24-.1-.21-.15-.45-.27-.68-.37-.77-.32-1.15-.94-1.28-1.71-.08-.46-.06-.96,0-1.43,.98-6.72,1.96-13.45,2.96-20.17,.71-4.79,1.43-9.58,2.14-14.37,.78-5.35,1.55-10.7,2.33-16.05,.55-3.81,1.1-7.62,1.69-11.43,.09-.59,.4-1.14,.59-1.71,.07-.21,.12-.44,.16-.66,.16-.87,.58-1.51,1.51-1.68,.8-.14,1.59-.27,2.26-.39Zm-4.96,67.27c1.2-10.18,2.38-20.25,3.56-30.27-.41,.05-.78,.18-1.12,.13-1.11-.15-1.61-1.34-.93-2.37,.84-1.27,1.49-2.7,2.66-3.74,.05-.04,.09-.11,.1-.17,.12-.89,.22-1.79,.34-2.7-1.65,.18-2.3-1.18-1.56-2.4,.23-.38,.42-.79,.65-1.17,.52-.86,1.19-1.66,1.54-2.58,.33-.88,.31-1.88,.44-2.75-.53,.12-1.01,.35-1.47,.3-1.19-.12-1.61-1.41-.87-2.53,.89-1.35,1.79-2.7,2.69-4.05,.15-.22,.38-.42,.42-.66,.17-1.14,.29-2.28,.44-3.46-.12,0-.18,0-.25,0-1.09,.02-1.73-.76-1.48-1.82,.08-.34,.19-.67,.33-.98,.26-.57,.55-1.13,.89-1.81-.81-.03-1.56-.07-2.32-.08-.31,0-.45,.2-.49,.51-.08,.72-.18,1.44-.29,2.16-.64,4.4-1.28,8.8-1.92,13.2-.79,5.4-1.59,10.8-2.38,16.2-.06,.43-.13,.87-.19,1.35,.18-.02,.29-.04,.4-.05,.97-.1,1.74,.8,1.44,1.73-.08,.26-.23,.51-.38,.75-.28,.46-.57,.92-.88,1.36-.14,.2-.33,.46-.53,.5-.76,.14-.85,.67-.88,1.29-.01,.28-.1,.55-.13,.83-.08,.59-.16,1.18-.24,1.85,.32-.21,.52-.37,.76-.49,.59-.31,1.24-.21,1.69,.24,.45,.45,.57,1.1,.25,1.69-.17,.32-.43,.59-.64,.88-.45,.65-.92,1.28-1.34,1.95-.31,.49-.67,.85-1.25,.97-.11,.02-.27,.12-.28,.2-.15,.92-.27,1.85-.41,2.81,.15-.02,.23-.03,.31-.05,.56-.14,1.02,.04,1.37,.47,.36,.44,.4,.95,.14,1.45-.16,.31-.37,.59-.59,.85-.32,.38-.65,.76-1.02,1.09-.71,.63-1.15,1.37-1.13,2.34,0,.02,0,.03,0,.05-.07,.54-.15,1.08-.23,1.71,.3-.23,.49-.39,.7-.52,.73-.48,1.49-.44,2,.09,.54,.55,.55,1.32,.02,2.03-.24,.32-.53,.6-.76,.92-.39,.54-.74,1.11-1.18,1.76,1.41,.34,2.67,.65,4.01,.98Z"/></svg>