<?xml version="1.0" encoding="UTF-8"?><svg id="Calque_1" xmlns="http://www.w3.org/2000/svg" viewBox="0 0 173.84 178.2"><path d="M130.04,136.26c-1.16,0-2.33,.06-3.48-.01-2.11-.13-4.22-.34-6.33-.49-.55-.04-1.11,.05-1.67,.04-.81,0-1.61-.06-2.42-.07-.53,0-1.06,.02-1.59,.07-1.26,.1-2.52,.22-3.78,.33-.53,.05-1.06,.1-1.59,.14-.67,.04-.79-.15-.74-.83,.05-.65,0-1.31,.03-1.96,.08-1.55,.12-3.11,.3-4.65,.09-.76,.44-1.5,.73-2.23,.06-.15,.39-.27,.6-.27,.64-.02,1.29,.08,1.93,.03,1.24-.09,2.47-.24,3.7-.38,1.08-.12,2.16-.29,3.24-.39,1.05-.09,2.11-.12,3.17-.14,1.36-.03,2.71-.02,4.07-.02,1.17,0,2.34-.03,3.51,.02,1.06,.04,2.11,.24,3.16,.22,.96-.02,1.92-.22,2.88-.36,.57-.08,1.12-.25,1.69-.29,.65-.05,.91,.45,.71,1.08-.34,1.07-.61,2.17-.93,3.25-.25,.84-.57,1.65-.82,2.49-.18,.6-.36,1.21-.41,1.82-.11,1.55-.52,2.11-2.02,2.31-1.3,.17-2.62,.25-3.93,.36,0-.02,0-.04,0-.07Zm-18.63-3.54c.03,1.1-.94,1.42-1.43,2.14,1.07,.37,1.56-1.1,2.59-.8-.43,.27-.83,.52-1.22,.76,1.16-.17,2.45,.11,3.4-.94-.13,.23-.25,.45-.33,.59,2.79,.13,5.58,.28,8.36,.39,1.98,.08,3.97,.11,5.95,.16,1.91,.05,3.81-.08,5.68-.44,.15-.03,.36-.2,.38-.33,.17-.88,.31-1.77,.45-2.65,0,0-.08-.03-.15-.05-.05,.09-.1,.19-.17,.27-.07,.09-.17,.15-.26,.23,.17-.88,1.15-1.43,.83-2.46-.15,.04-.28,.07-.4,.1,.49-.85,.97-1.68,1.45-2.51-.05-.03-.1-.06-.16-.09-.31,.37-.62,.75-.93,1.12-.05-.04-.09-.08-.14-.12,.41-.49,.82-.98,1.24-1.49-.97-.34-1.41,.5-2.05,.85-.05-.06-.11-.13-.16-.19,.21-.13,.43-.26,.69-.43-1.55-.42-2.28,.69-3.12,1.56-.06-.08-.13-.15-.19-.23,.33-.43,.66-.87,1-1.31-.28-.05-.56-.1-.89-.16-.45,.51-.91,1.03-1.38,1.56l-.24-.21c.27-.39,.55-.79,.87-1.25-.3-.04-.58-.11-.86-.12-1.19-.06-2.38-.11-3.56-.15-1.08-.04-2.16-.12-3.24-.1-1.06,.02-2.11,.18-3.17,.24-1.27,.08-2.54,.11-3.82,.18-.53,.03-1.06,.1-1.59,.09-.71,0-1.43-.1-2.14-.1-.73,0-1.45,.06-2.21,.1-.56,1.28-.95,2.61-.91,4.01,.76-.5,1.51-.99,2.25-1.48,.05,.06,.1,.12,.15,.18-.54,.45-1.04,.96-1.63,1.32-.7,.43-1.03,1.05-.77,1.73,.43-.18,.87-.36,1.31-.54,.03,.07,.07,.13,.1,.2-.31,.22-.62,.44-.94,.64-.5,.32-.81,.72-.53,1.38,.63-.55,1.24-1.08,1.9-1.65Z"/><path d="M134.33,49.79c-.94,2.17-.87,4.19-.24,6.22-.2,1.29-1.19,.81-1.95,.8-1.21-.01-2.43-.09-3.64-.12-1.01-.02-2.03,.01-3.04-.01-.92-.02-1.84-.08-2.76-.13-1.52-.09-3.04-.31-4.55-.24-2.09,.1-4.02-.7-6.04-.84-1.19-.08-2.39-.48-3.61,.03-.23,.09-.89,.05-.75-.61,.11-.52,.21-1.06,.4-1.55,.4-1.03,.93-2.01,1.26-3.06,.28-.9,1.05-1.46,2.03-1.39,1,.08,2,0,3,.03,1.08,.03,2.17,.12,3.25,.15,.78,.03,1.56-.01,2.34,0,.99,.02,1.98,.08,2.96,.1,1.05,.02,2.11,0,3.16,.04,1.4,.06,2.8,.17,4.2,.24,.89,.04,1.79,.03,2.68,.08,.41,.02,.81,.15,1.3,.25Zm-23.75,4.29l.05,.13c.6-.24,1.2-.49,1.81-.72,.12-.04,.27,.03,.41,.05-.02,.17-.05,.33-.07,.49q1.33-.28,1.38,.1c-.27,.14-.52,.27-.78,.4,.13,.07,.25,.08,.34,.04,.85-.31,1.69-.64,2.55-.92,.24-.08,.52-.01,.79-.01l.04,.28c-.46,.28-.91,.55-1.43,.87,.37,.06,.76,.21,1.12,.15,.48-.09,.92-.38,1.4-.5,.14-.04,.51,.22,.51,.31-.04,.43,.25,.4,.5,.42,1.06,.06,2.12,.11,3.19,.14,1.05,.02,2.1,0,3.14,.02,1.67,.03,3.34,.09,5.01,.12,.74,.02,1.48,0,2.28,0-.05-.23-.1-.49-.15-.75-.36,.12-.65,.22-.93,.31-.15-.44-.12-.7,.34-.91,.24-.11,.34-.5,.51-.76-.06-.03-.12-.07-.18-.1q-1.09,.67-1.42-.15c.36-.25,.73-.5,1.1-.76,.45-.32,.59-.71,.45-1.12-.52,.43-1.06,.88-1.71,1.42-.26-1.03,.97-.91,.98-1.72-.83,.55-1.57,1.05-2.37,1.58-.15-1.12,1.24-1.12,1.41-2.09-.28,.06-.56,.06-.76,.19-.58,.38-1.11,.82-1.68,1.21-.13,.09-.38,.11-.54,.05-.36-.13-.69-.33-1.2-.59-.14-.66,1.01-.34,1.14-.95-.76,0-1.51,0-2.27,0-1.35,0-2.71,.04-4.06-.02-1.69-.08-3.37-.28-5.06-.36-1.62-.08-3.25-.08-4.87-.09-.14,0-.36,.07-.41,.17-.28,.56-.52,1.15-.8,1.8,.85-.14,1.44-.97,2.48-.33-.49,.26-.85,.47-1.23,.63-.81,.34-1.71,.56-1.95,1.6,.81-.09,1.3-1.16,2.36-.6l-1.39,.98Z"/><path d="M54.43,55.75c-.01-.53-.1-1.01-.02-1.46,.29-1.7,.63-3.39,.94-5.08,.04-.24-.02-.5-.04-.67,.25-.39,.5-.76,.75-1.14,1.6,.65,3.32,.16,5.05-.01,1.4-.14,2.8-.29,4.21-.4,1.61-.12,3.23-.22,4.84-.29,1.04-.04,2.09,.02,3.14-.02,.85-.04,1.69-.16,2.53-.29,.23-.04,.41-.32,.64-.36,.33-.07,.71-.09,1.02,.01,.11,.03,.11,.49,.11,.75,0,1.16-.04,2.33,0,3.49,.03,.95,.15,1.89,.26,2.84,.03,.28,.19,.54,.27,.81,.07,.24,.25,.61,.15,.7-.25,.25-.64,.56-.94,.53-1.35-.13-2.7-.37-4.05-.56-1.74-.24-3.47-.48-5.21-.68-.69-.08-1.41,.03-2.11-.03-2.24-.17-4.43,.07-6.61,.55-1.26,.28-2.54,.49-3.8,.78-.34,.07-.64,.29-1.13,.52Zm18.29-7.98c-1.29-.25-2.01,1.1-3.18,1.3-.08-.87,1-.63,1.23-1.43-1.21,.26-2.33,.5-3.4,.73,.11-.2,.2-.41-.24-.37-.95,.08-1.9,.13-2.84,.23-1.51,.16-3.01,.37-4.52,.51-.52,.05-1.09-.18-1.58-.06-.54,.14-1.25-.24-1.62,.37-.23,.38-.3,.86-.5,1.47,.54-.34,.9-.57,1.26-.8-.76,.63-1.34,1.33-1.62,2.4,.47-.39,.83-.69,1.2-1-.32,.91-1.44,1.23-1.53,2.48,.31-.21,.52-.32,.69-.47,.36-.32,.69-.68,1.04-1,.25-.23,.51-.48,.83-.12-.83,.66-1.63,1.3-2.44,1.93,.04,.05,.07,.11,.11,.16,1.01-.59,1.74-1.7,2.99-1.84,.03,.05,.06,.11,.1,.16-.65,.4-1.3,.8-1.95,1.21,.03,.05,.06,.11,.08,.16,.31-.11,.64-.18,.92-.33,.63-.34,1.24-.71,1.86-1.07,.44-.26,.84-.32,1.03,.15,.77-.23,1.49-.44,2.21-.65,.03,.07,.05,.14,.08,.21-.29,.2-.59,.4-.88,.6,.04,.06,.07,.12,.11,.18,.73-.38,1.46-.75,2.19-1.13,.02,.04,.03,.08,.05,.12-.18,.19-.36,.38-.66,.69,4.49-.12,8.79,.36,13.12,1.01-.13-.49-.23-.85-.33-1.25-.25,.18-.44,.32-.64,.46-.07-.04-.13-.09-.2-.13,.22-.44,.44-.87,.66-1.31-.04-.03-.07-.05-.11-.08-.33,.26-.66,.52-.98,.78-.07-.04-.14-.07-.21-.11,.19-.36,.3-.8,.57-1.05,.42-.39,.78-.74,.68-1.42-.59,.51-1.11,.96-1.63,1.4-.07-.02-.15-.04-.22-.07,.05-.22,.03-.5,.17-.64,.45-.47,.96-.87,1.42-1.32,.14-.14,.22-.34,.32-.52l-.12-.08c-.58,.52-1.16,1.05-1.91,1.71-.08-.52-.13-.85-.18-1.16-.27,.14-.54,.27-.86,.44-.11-.99,.94-.91,1.07-1.67-.89,.56-1.78,1.11-2.66,1.67-.05-.06-.09-.11-.14-.17,.37-.42,.75-.84,1.14-1.28Z"/><path d="M82.55,54.49c.16-.52,.31-1.05,.48-1.58,.36-1.09,.74-2.16,1.09-3.25,.11-.36,.14-.75,.19-1.12,.07-.59,.68-.92,1.48-.87,.68,.04,1.37,0,2.06-.02,.7-.03,1.41-.08,2.11-.12,1.13-.06,2.25-.14,3.38-.19,1.05-.05,2.1-.05,3.14-.1,.7-.03,1.4-.1,2.11-.13,1.1-.05,2.2-.08,3.29-.14,1.06-.06,2.13-.15,3.19-.22,.39-.03,.8-.1,1.18-.03,.38,.07,.82,.14,.57,.81-.15,.42,0,.94-.04,1.41-.13,1.5-.3,3-.41,4.51-.05,.75,0,1.51-.01,2.27-.02,.66-.23,.78-.86,.69-1.56-.2-3.12-.36-4.69-.54-.63-.07-1.26-.19-1.89-.24-.49-.04-.99,0-1.48-.02-1.59-.09-3.18-.17-4.77-.29-1.6-.12-3.2-.25-4.8-.43-1.17-.13-2.32-.4-3.49-.52-.54-.06-1.1,.07-1.84,.14Zm21.37-2.47c-.51,.04-.67-.29-.55-.69,.08-.26,.35-.47,.52-.71,.43-.61,.86-1.22,1.27-1.84,.07-.1,.03-.28,.04-.42l-.15-.02c-.66,.85-1.32,1.71-1.98,2.56-.06-.02-.12-.04-.18-.06-.04-.31-.07-.61-.11-.92-.19,.11-.42,.23-.62,.37-.26,.18-.5,.51-.78,.05-.24-.39-.11-.69,.25-.93,.47-.31,.93-.63,1.48-1-1.17-.14-2.15-.11-2.82,.92-.16,.25-.44,.43-.67,.64-.01-.3,.07-.53,.2-.72,.14-.21,.33-.38,.63-.71-5.15,.22-10.16,.43-15.18,.64-.25,.77-.52,1.6-.79,2.44,.07,.02,.13,.04,.2,.06l1-.71c-.47,.94-1.56,1.44-1.5,2.8,.72-.83,1.34-1.59,2-2.3,.18-.2,.51-.26,.77-.38,.04,.08,.09,.15,.13,.23-.66,.7-1.31,1.4-1.97,2.1,.04,.05,.07,.1,.11,.15,.93-.6,1.77-1.38,3.13-1.43-.84,.52-1.54,.96-2.27,1.41,1.45,.65,2.28-.85,3.73-.85-.73,.4-1.3,.7-1.86,1.01,1.89,.29,3.76,.41,5.62,.55,.98,.07,1.98,.07,2.94,.26,1.95,.38,3.91,.58,5.89,.66,.79,.03,1.58,0,2.4,0,.1-1.03,.2-2.14,.31-3.28-.42,.26-.8,.5-1.26,.78,.03-.29,.05-.44,.07-.65Z"/><path d="M99.19,137.04c-1.32-.12-2.64-.27-3.96-.36-.85-.06-1.7,.04-2.55-.03-1.25-.1-2.48-.31-3.73-.41-1.07-.09-2.15-.07-3.22-.14-1.07-.07-2.13-.18-3.2-.29-.61-.06-1.22-.17-1.82-.24-1.27-.15-2.54-.28-3.81-.42-.32-.04-.6-.81-.54-1.31,.15-1.15,.27-2.31,.4-3.46,.09-.75,.11-1.51,.31-2.23,.14-.51,.45-1.08,.85-1.4,.39-.31,1.01-.34,1.53-.51,1.31-.44,2.59,.08,3.88,.1,1.25,.02,2.49-.06,3.74-.08,.71-.01,1.41-.02,2.12,0,1.2,.03,2.41,.06,3.61,.11,1.27,.05,2.54,.12,3.8,.17,1.51,.06,2.99-.17,4.46-.46,.46-.09,.87-.55,1.33-.06,.2,.22,.29,.42,.17,.81-.26,.87-.32,1.8-.45,2.71-.09,.65-.15,1.3-.26,1.95-.15,.82-.32,1.64-.51,2.45-.18,.77-.32,1.55-.61,2.28-.26,.64-.83,.96-1.55,.82Zm-3.33-9.32l-.28-.37c-1.12,0-2.25,.02-3.37,0-1.52-.03-3.04-.09-4.56-.11-1.19-.02-2.41,.11-3.58-.05-1.93-.25-3.74,.16-5.56,.64-.18,.05-.44,.22-.46,.36-.11,.82-.16,1.66-.24,2.56,.37-.15,.59-.24,.9-.37-.26,.56-1.11,.61-.78,1.36h.37c-.13,.42-.93,.75-.2,1.1-.16,.43-.3,.82-.47,1.29,.83-.49,1.53-.89,2.22-1.29,.04,.07,.09,.14,.13,.21-.5,.35-1,.7-1.45,1.02,1.19,.94,2.08-.47,3.39-.43-.56,.36-.95,.62-1.38,.89,1.37,.41,2.09-.81,3.21-.99-.5,.37-.99,.74-1.54,1.15,.43,.05,.78,.09,1.16,.14,.38-.75,1.05-1.07,1.92-1.08-.46,.31-.91,.62-1.37,.93,0,.06,0,.13,0,.19,.94,0,1.88-.02,2.81,0,.74,.02,1.48,.07,2.22,.14,.82,.07,1.63,.26,2.45,.26,2.5,0,4.99,.04,7.46,.42,.33,.05,.71,.1,.82-.38,.14-.62,.3-1.23,.42-1.86,.13-.65,.22-1.3,.33-1.95-.09-.07-.18-.14-.27-.21-.23,.32-.47,.65-.7,.97,.22-.43,.49-.83,.83-1.16,.41-.41,.57-.98,.32-1.36-.17-.27-.07-.36-.04-.54,.05-.31,.1-.62,.17-1.09-.53,.42-.92,.75-1.32,1.07-.02-.02-.04-.05-.06-.07,.32-.5,.64-1,.96-1.5-.05-.03-.1-.07-.15-.1-.45,.48-.88,.97-1.34,1.43-.15,.15-.37,.24-.57,.33-.03,.01-.21-.2-.19-.24,.08-.16,.21-.31,.33-.45,.23-.26,.48-.52,.75-.81-1.31-.31-2,.6-2.85,1.1-.04-.06-.09-.12-.13-.18,.35-.39,.7-.77,1.05-1.16-.41-.04-.82-.08-1.14-.11-.51,.46-.97,.88-1.42,1.29-.06-.06-.12-.12-.17-.17,.46-.27,.93-.55,1.39-.82Z"/><path d="M31.32,59.66c1.02,.15,1.94,.31,2.86,.42,.67,.08,1.34,.11,2.01,.13,.61,.02,1.22-.06,1.82,0,.59,.05,.54,.54,.51,.95-.08,1.03-.2,2.05-.28,3.07-.15,1.82-.28,3.65-.41,5.47-.14,1.85-.26,3.7-.42,5.54-.1,1.13-.29,2.26-.38,3.4-.09,1.13-.08,2.28-.18,3.41-.15,1.71-.37,3.4-.53,5.11-.06,.64-.01,1.29-.05,1.93-.02,.31-.11,.61-.2,.91-.13,.42-.38,.45-.83,.41-1.74-.17-3.5-.25-5.25-.36-.71-.04-.96-.48-.84-1.2,.11-.66,.06-1.35,.1-2.03,.03-.48,.07-.95,.12-1.43,.12-1.23,.27-2.45,.37-3.68,.05-.56,.02-1.13,.05-1.69,.09-1.62,.16-3.23,.28-4.84,.11-1.5,.28-3,.41-4.51,.11-1.24,.17-2.49,.28-3.73,.06-.75,.19-1.49,.25-2.24,.04-.54-.01-1.09,.03-1.63,.07-1.07,.18-2.14,.29-3.39Zm3.98,29.87c.1-.63,.25-1.24,.3-1.87,.12-1.52,.19-3.04,.29-4.56,.13-1.92,.29-3.83,.41-5.75,.11-1.7,.16-3.41,.3-5.12,.13-1.59,.36-3.17,.53-4.76,.03-.31,0-.64,0-.95-.05,0-.1,0-.15,0-.16,.33-.31,.66-.47,.99-.08-.02-.16-.04-.24-.07,.14-.61,.28-1.22,.42-1.83-.42,.11-.68-.2-.49-.7,.35-.95,.78-1.87,1.16-2.81,.09-.23,.14-.47,.21-.7-.05-.02-.11-.04-.16-.06-.5,.85-.99,1.69-1.49,2.54-.78-.31,.08-.77,0-1.25-.33,.3-.6,.54-.89,.8-.54-.47-.13-.87,.07-1.22,.27-.47,.63-.9,.99-1.41-.75-.13-1.14,.13-1.42,.66-.27,.52-.58,1.01-.88,1.52-.07-.04-.14-.08-.22-.11-.19-.96,.88-1.34,1.14-2.16-.96-.15-1.35,.53-1.76,1.19-.06-.04-.13-.08-.19-.11,.15-.32,.3-.64,.44-.97-.71-.07-1.03,.16-1.09,.78-.14,1.46-.3,2.91-.41,4.37-.16,1.9-.26,3.81-.43,5.72-.16,1.87-.37,3.73-.55,5.59-.06,.66-.08,1.32-.12,1.99-.04,.66-.06,1.31-.11,1.97-.1,1.25-.22,2.5-.34,3.81,.21-.34,.39-.63,.56-.91,.09,.05,.18,.09,.27,.14-.34,.74-.68,1.49-1.02,2.23,.77-.8,1.23-1.83,2.28-2.26,.06,.05,.12,.1,.18,.15-.44,.56-.88,1.12-1.24,1.58,.16,.22,.25,.34,.34,.47,.09-.08,.17-.21,.29-.27,.23-.11,.49-.18,.73-.26-.09,.25-.12,.55-.28,.73-.65,.76-1.34,1.48-2.02,2.21,.03,.06,.06,.12,.09,.17,.16-.03,.39,0,.47-.1,.32-.38,.56-.84,.9-1.2,.39-.41,.87-.75,1.3-1.12,.05,.05,.1,.11,.15,.16-.3,1.08-1.41,1.47-2.04,2.3,.56,.24,.74-.17,.93-.53,.26-.49,.53-.67,.85-.09,.47-.44,.9-.86,1.33-1.27,.09,.08,.18,.17,.28,.25-.49,.58-.97,1.16-1.53,1.82,.74,.1,1.47,.19,2.27,.3Zm-5.64-.83l.19,.12c.22-.39,.45-.77,.65-1.17,.2-.4,.39-.8,.58-1.2l-.3-.14c-.37,.8-.74,1.59-1.12,2.39Zm6.72-27.76c-.3,.45-.58,.87-.86,1.28,.02,.02,.05,.03,.07,.05,.48-.37,.96-.74,1.51-1.17-.33-.07-.52-.11-.73-.16Z"/><path d="M133.29,93.15c-.24-.16-.43-.29-.66-.45,1.7-.18,3.28-.34,4.87-.51,.78-.08,1.56-.18,2.34-.28,.61-.08,.91,.29,.73,.86-.13,.41-.22,.84-.27,1.26-.24,2.04-.47,4.08-.69,6.12-.07,.68-.08,1.37-.15,2.06-.13,1.17-.29,2.33-.43,3.49-.14,1.11-.26,2.22-.4,3.33-.17,1.38-.37,2.76-.54,4.13-.19,1.49-.45,2.98-.53,4.48-.06,1.17,.14,2.34,.2,3.52,.02,.37-.03,.75-.06,1.13-.03,.59-.38,.88-.94,.88-1.03-.01-2.05-.09-3.08-.11-.97-.02-1.94,0-2.9-.01-.97-.01-1.09-.14-1.04-1.08,.08-1.32,.21-2.64,.26-3.96,.02-.64-.14-1.29-.11-1.94,.05-1.12,.17-2.25,.29-3.37,.1-.83,.24-1.66,.39-2.48,.14-.73,.33-1.46,.48-2.19,.17-.79,.32-1.59,.49-2.39,.17-.81,.36-1.61,.52-2.42,.12-.58,.25-1.16,.3-1.74,.16-1.66,.26-3.34,.44-5,.12-1.12,.33-2.24,.5-3.33Zm-1.35,27.42c-.23,.27-.46,.54-.69,.82-.2,.24-.4,.47-.67,.79,1.55,.11,1.56,.12,2.44-.64,.18-.16,.34-.36,.48-.55,.31-.44,.61-.89,.91-1.34,.14,.13,.27,.26,.41,.39-.63,.7-1.25,1.4-1.98,2.21h1.55c.29-.5,.49-.85,.69-1.19,.07,.04,.15,.08,.22,.12-.18,.38-.36,.76-.56,1.18,.49,0,.9,0,1.32,0,.88,0,.99-.23,.86-1.08-.15-1.04-.21-2.1-.22-3.16,0-.64,.2-1.28,.25-1.93,.12-1.62,.18-3.25,.29-4.88,.05-.66,.16-1.31,.24-1.97,.15-1.19,.31-2.39,.45-3.58,.07-.66,.09-1.33,.15-1.99,.05-.52,.1-1.05,.19-1.56,.07-.43,.19-.85,.28-1.27-.05,0-.11-.02-.16-.02l-.52,.75c.33-1.13,1.05-2.14,.87-3.46-.16,.19-.28,.34-.42,.51,.29-1,.57-1.96,.84-2.92-.07-.02-.13-.05-.2-.07-.19,.26-.37,.53-.6,.85,.38-.99,.73-1.93,1.09-2.86-.08-.04-.17-.07-.25-.11-.38,.67-.77,1.35-1.24,2.18-.08-1.33,.96-1.94,1.32-2.86-.06-.04-.11-.08-.17-.12-.68,.85-1.36,1.7-2.04,2.55-.04-.03-.09-.07-.13-.1,.45-.74,.9-1.47,1.43-2.32-1.45,.17-1.55,1.73-2.58,2.15-.06-.05-.12-.1-.18-.16,.46-.6,.93-1.2,1.48-1.92-1.04,.06-1.86,.11-2.85,.17-.16,1.43-.33,2.87-.48,4.31-.12,1.16-.14,2.34-.31,3.49-.26,1.71-.62,3.4-.94,5.09-.17,.89-.31,1.79-.5,2.67-.18,.81-.44,1.6-.6,2.41-.15,.73-.1,1.51-.33,2.2-.46,1.41-.33,2.8-.21,4.25,.34-.24,.61-.43,.88-.62-.45,.88-1.21,1.57-1.17,2.65,.47-.59,.91-1.16,1.35-1.72-.18,1.19-1.28,1.94-1.41,3.34,.66-.71,.86-1.6,1.9-1.84-.19,.48-.33,.82-.47,1.16Z"/><path d="M41.24,55.44c-.63-.07-1.26-.17-1.9-.21-.67-.05-1.35-.02-2.02-.06-1.69-.11-3.38-.25-5.07-.37-.66-.05-.71-.52-.65-.99,.09-.71,.26-1.41,.4-2.11,.26-1.38,.51-2.76,.76-4.15,.05-.27,.09-.55,.07-.82-.03-.49,.26-.58,.64-.58,.4,0,.8-.02,1.19,0,.67,.03,1.33,.1,2,.13,.56,.02,1.12,0,1.68,0,1.51,0,3.03,0,4.54,0,1.34,0,2.69-.02,4.03,0,1.32,.02,2.64,.08,3.95,.15,.15,0,.4,.21,.4,.32,0,.55-.07,1.1-.09,1.65-.05,1.05-.08,2.1-.15,3.15-.05,.77-.18,1.54-.24,2.31-.02,.2,.06,.4,.1,.6,.13,.73-.3,1.27-1.04,1.26-.81-.01-1.61-.11-2.42-.12-1.17-.02-2.33,0-3.5-.02-.5,0-1-.09-1.5-.13-.4-.03-.79-.05-1.19-.07,0,.02,0,.04,0,.06Zm7.45-7.45c-.12,.03-.23,.04-.31,.09-.51,.39-.97,.87-1.53,1.15-.34,.17-1.04,.24-1.22,.03-.36-.42,.21-.6,.51-.81,.46-.32,.91-.64,1.37-.97-.01-.08-.03-.17-.04-.25-1.77,0-3.54,0-5.3,0-.91,0-1.82,0-2.74,0-1.84,0-3.68,0-5.52,0-.43,0-.66,.16-.68,.65-.02,.71-.11,1.41-.19,2.11-.06,.51-.18,1.01-.27,1.51,.52-.21,.83-.49,1.17-.69,.3-.18,.64-.68,.98-.22,.11,.15-.22,.64-.35,.97,0,.03,.01,.06,0,0,.28,.05,.52,.08,.75,.12-.11,.28-.15,.63-.35,.83-.48,.48-1.03,.88-1.56,1.31,.04,.06,.08,.13,.12,.19,.47-.3,.94-.62,1.42-.91,.46-.27,.89-.89,1.48-.21-.36,.32-.71,.64-1.12,1,.3,0,.58,.08,.78-.01,.76-.34,1.5-.75,2.26-1.1,.19-.09,.45-.04,.67-.05,.02,.09,.05,.19,.07,.28-.5,.32-1.01,.65-1.53,.98,3.77,.11,7.48,.22,11.19,.33,.08-.32,.3-.69,.19-.84-.34-.51-.02-.87,.14-1.28,.11-.27,.22-.54,.34-.81l-.18-.08c-.18,.17-.36,.33-.39,.36-.37,.02-.55,.03-.74,.05-.13,.01-.34,.08-.37,.03-.08-.13-.16-.33-.12-.47,.1-.41,.26-.8,.4-1.17-.2-.25-.42-.52-.6-.74,.43-.48,.81-.92,1.24-1.4Z"/><path d="M138.49,61.07c-.41-.09-.77-.16-1.22-.26,.18-.04,.35-.05,.35-.09,.16-1.2,1.15-.55,1.66-.61,.85-.1,1.75,.17,2.62,.36,.78,.17,1.54,.46,2.32,.63,.53,.12,1.1,.07,1.62,.22,.22,.06,.54,.44,.52,.64-.16,1.14-.43,2.26-.62,3.4-.18,1.05-.27,2.11-.46,3.15-.28,1.51-.61,3.01-.91,4.51-.16,.8-.28,1.62-.48,2.41-.33,1.26-.71,2.51-1.08,3.76-.24,.82-.48,1.65-.76,2.46-.39,1.13-.83,2.25-1.24,3.38-.24,.66-.43,1.33-.69,1.98-.17,.42-.52,.54-.96,.38-1.57-.54-3.13-.27-4.69,.11-.29,.07-.77,.2-.85,.09-.19-.27-.27-.68-.24-1.02,.1-1.35,.25-2.69,.39-4.03,.14-1.34,.29-2.68,.45-4.02,.11-.93,.24-1.85,.39-2.77,.14-.87,.28-1.74,.48-2.59,.18-.79,.41-1.57,.63-2.35,.26-.9,.57-1.79,.82-2.69,.22-.81,.38-1.64,.58-2.45,.18-.72,.36-1.45,.57-2.16,.24-.79,.53-1.57,.82-2.42Zm-1.75,25.11c.81,.02,1.45,.05,1.99-.45,.4-.37,1.03-.61,1.22-1.06,.49-1.09,.8-2.27,1.16-3.42,.3-.95,.58-1.9,.84-2.87,.34-1.31,.67-2.62,.97-3.93,.18-.79,.3-1.6,.47-2.4,.16-.74,.35-1.48,.51-2.22,.19-.91,.35-1.84,.53-2.75,.15-.77,.31-1.53,.48-2.34-.63,1.13-1.22,2.19-1.8,3.24-.06-.03-.13-.05-.19-.08,.05-.23,.05-.49,.15-.7,.3-.61,.64-1.2,.96-1.79,.16-.3,.27-.74,.52-.86,.72-.34,.62-.9,.59-1.57-.47,.75-.89,1.43-1.31,2.1-.07-.04-.14-.09-.2-.13,0-1.15,1.07-1.72,1.47-2.65-.05-.05-.09-.1-.14-.14-.55,.58-1.09,1.16-1.78,1.89-.16-1.09,.73-1.42,1.02-2.13-.57,.45-1.14,.89-1.71,1.34-.07-.08-.13-.15-.2-.23,.35-.38,.71-.76,1.06-1.13l-.13-.22c-.72,.55-1.33,1.31-2.44,1.39,.69-.51,1.25-.93,1.89-1.4-.5-.14-.9-.25-1.21-.33-.83,.76-1.61,1.49-2.4,2.21-.06-.07-.13-.13-.19-.2,.65-.69,1.31-1.39,1.91-2.03-.2-.04-.46-.1-.73-.16-.67-.15-.98,0-1.14,.59-.34,1.3-.67,2.6-1.02,3.9-.35,1.3-.77,2.59-1.07,3.91-.26,1.17-.38,2.37-.58,3.56-.3,1.79-.63,3.57-.95,5.36-.16,.9-.33,1.81-.5,2.71,.81-1.14,1.33-2.46,2.63-3.14-1.33,1.29-1.9,3-2.67,4.61,.45-.42,.9-.84,1.35-1.26,.08,.07,.16,.14,.25,.21-1.14,.97-2.04,2.07-1.98,3.63,.66-.56,.9-1.62,1.98-1.75-.51,.69-1.06,1.34-1.66,1.95-.63,.65-.7,.89-.23,1.3,.77-.84,1.54-1.67,2.3-2.51l.16,.13c-.4,.63-.81,1.27-1.21,1.9l.09,.09c.8-.56,1.61-1.13,2.41-1.69,.05,.07,.1,.14,.15,.21-.5,.4-1.01,.81-1.63,1.31Zm2.65,.19c.08-.36,.14-.64,.23-1.06-.4,.31-.7,.55-1.06,.83,.34,.1,.56,.16,.83,.24Z"/><path d="M44.33,134.81c-.24-.99-.53-2-.72-3.04-.18-.96-.3-1.94,.27-2.84,.08-.12,.2-.24,.32-.31,1.29-.79,2.65-1.4,4.17-1.47,1.03-.05,2.08,.1,3.11,.07,1.13-.03,2.26-.19,3.39-.26,1.09-.07,2.18-.09,3.27-.16,1.15-.08,2.29-.26,3.44-.27,1.52-.02,3.04,.07,4.57,.13,1.15,.04,2.31,.13,3.46,.15,.27,0,.54-.21,.93-.37,0,.97-.04,1.95,.01,2.92,.06,1.02,.25,2.04,.31,3.06,.04,.75,.01,1.51-.1,2.25-.03,.18-.51,.44-.76,.43-1.18-.07-2.36-.22-3.54-.35-.84-.09-1.67-.22-2.52-.26-.62-.03-1.24,.07-1.87,.1-.54,.02-1.08,0-1.61,.03-1.24,.08-2.48,.18-3.72,.26-.38,.02-.76,.02-1.13,0-1.18-.04-2.37-.1-3.55-.11-.49,0-.97,.09-1.46,.11-1.57,.06-3.14,.12-4.71,.14-.47,0-.95-.12-1.54-.2Zm.65-1.67v-.02c-.6,.21-.13,.51-.14,.79,.86-.58,1.68-1.12,2.49-1.67,.06,.08,.12,.16,.18,.24-.69,.55-1.38,1.1-2.08,1.67,.45,.04,.85,.08,1.26,.12,.54-.78,2.28-1.61,2.99-1.42-.76,.42-1.5,.84-2.25,1.26,.86,0,1.7,.22,2.54-.28,.9-.53,1.91-.87,2.88-1.29l.12,.26-2.43,1.12c.63,.09,1.2,.03,1.77,.01,.65-.02,1.31,0,1.96,0,.75,0,1.51,.02,2.26,0,.57-.01,1.14-.07,1.71-.1,1.04-.05,2.08-.1,3.11-.15,1.11-.06,2.22-.2,3.32-.16,1.58,.06,3.16,.27,4.74,.38,.15,.01,.47-.24,.47-.36,0-.92-.04-1.85-.08-2.77-.01-.28-.06-.56-.11-.94-.71,.75-1.33,1.4-1.94,2.05l-.23-.2c.29-.34,.58-.68,.88-1.01,.71-.78,1.63-1.44,1.47-2.83-.72,.7-1.37,1.33-2.02,1.95-.07-.06-.13-.12-.2-.18,.39-.54,.78-1.07,1.17-1.61-.06-.04-.11-.09-.17-.13-.35,.36-.69,.72-1.04,1.08-.11,.12-.22,.25-.35,.35-.02,.01-.23-.15-.22-.2,.04-.16,.12-.33,.23-.45,.23-.25,.5-.47,.75-.71-.04-.08-.08-.16-.13-.24-.51,.1-1.09,.09-1.52,.34-.53,.31-.93,.83-1.51,1.38,.03-1,.97-1.11,1.26-1.74-.32-.02-.59-.02-.86-.05-1.66-.2-3.31-.2-4.98-.05-.96,.08-1.91,.15-2.87,.21-1.13,.07-2.27,.14-3.4,.2-1.48,.08-2.97,.28-4.44,.19-1.3-.08-2.43,.11-3.43,.94-.29,.24-.61,.47-.91,.7-.03-.03-.06-.06-.09-.08,.27-.35,.53-.71,.79-1.06-.91-.02-1.6,.61-1.61,1.45,0,.18-.06,.38-.02,.55,.2,.83,.42,1.65,.64,2.47Z"/><path d="M28.8,116.43c.08-1.33,.2-3.01,.26-4.68,.03-.78-.09-1.57-.09-2.36,0-.91,.07-1.81,.11-2.72,.05-1.08,.1-2.17,.15-3.25,.06-1.34,.13-2.67,.18-4.01,.03-.81-.01-1.62,.04-2.43,.01-.19,.25-.47,.45-.53,.43-.13,.82-.32,1.35-.04,.33,.18,.9-.15,1.37-.2,.78-.08,1.57-.12,2.35-.2,.2-.02,.38-.13,.57-.21,.41-.16,.87,.09,.87,.52,.02,1.5-.01,2.99,.03,4.49,.04,1.58,.17,3.15,.21,4.72,.03,1.01-.07,2.03-.06,3.05,.01,1.17,.1,2.33,.12,3.5,.02,1.38,.05,2.76-.02,4.14-.02,.46-.14,.95-.95,.9-.92-.06-1.85,.19-2.78,.31-1.1,.15-2.19,.33-3.29,.44-.7,.07-.86-.18-.87-1.45Zm3.85-17.19c.25-.83,.51-1.69,.8-2.65-.82,.17-1.52,.25-2.17,.46-.31,.1-.71,.42-.78,.71-.16,.64-.15,1.32-.17,1.98-.03,1.04,.02,2.09-.03,3.13-.05,1.15-.2,2.29-.25,3.44-.07,1.54-.1,3.08-.15,4.62,0,.11-.02,.23-.03,.34-.05,.78-.1,1.55-.15,2.51,.5-.71,.86-1.24,1.24-1.78,.18,.2,.29,.31,.35,.37-.39,1.06-2.02,1.43-1.48,3.12,.5-.67,.91-1.23,1.32-1.78,.09,.06,.18,.12,.27,.17l-1.64,2.8c.32-.03,.58-.17,.79-.37,.31-.3,.55-.68,.87-.97,.18-.16,.47-.19,.7-.28l.05,.16c-.26,.45-.52,.9-.78,1.36,1.41,.31,2.09-.78,2.96-1.5,.06,.04,.11,.08,.17,.12-.13,.38-.27,.77-.43,1.21,.39-.11,.74-.32,.99-.24,.67,.22,.69-.22,.66-.6-.08-.98-.26-1.94-.35-2.92-.1-1.08-.18-2.16-.21-3.24-.02-.85,.05-1.7,.09-2.55,.05-1.05,.1-2.1,.16-3.14,.05-.85,.1-1.69,.16-2.54-.05,0-.1-.02-.14-.03-.22,.49-.44,.97-.66,1.46-.1-.03-.2-.05-.3-.08,.03-.27,0-.57,.12-.79,.74-1.43,1.23-2.9,.92-4.52q-.92,2.65-1.5,3c-.13-.2-.25-.41-.42-.68,.45-.92,.94-1.94,1.44-2.96-.08-.04-.15-.08-.23-.12-.87,.84-1.2,1.99-1.51,3.14-.23-.11-.42-.21-.67-.34Z"/><path d="M37.47,134.57c-.37-.12-.57-.22-.78-.24-2.07-.2-4.14-.37-6.2-.61-.21-.02-.55-.4-.55-.62-.02-1.02,.08-2.04,.09-3.06,0-.65-.08-1.29-.09-1.94,0-.69,.06-1.38,.07-2.07,.01-.77,.06-1.54,0-2.3-.07-.76,.03-.98,.8-1,1.47-.03,2.95,0,4.42,0,.56,0,1.13,.11,1.67,0,.83-.17,.75,.44,.78,.84,.09,1.4,.12,2.81,.14,4.21,.02,1.89,.03,3.77,0,5.66,0,.38-.23,.75-.34,1.11Zm-6.64-11.3v6.34c.5-.57,.87-1.24,1.28-1.87,.12-.19,.38-.29,.58-.44,.09,.08,.17,.15,.26,.23-.2,.37-.37,.76-.61,1.1-.35,.5-.35,1.03-.33,1.63,.32-.14,.54-.24,.76-.34l.12,.08c-.2,.37-.41,.74-.68,1.23,.41-.31,.74-.56,1.07-.81,.01,.02,.03,.05,.04,.07-.5,.8-1,1.61-1.49,2.4,.11,.04,.29,.1,.47,.17,1.15-1,2.18-1.53,2.9-1.42-.63,.48-1.2,.92-1.92,1.47,.76,.06,1.36,.11,1.76,.14,.51-.55,.88-1.04,1.33-1.42,.42-.35,.56-.72,.41-1.24-.05-.17-.02-.36-.02-.54,0-.86,0-1.71,0-2.67-.4,.65-.7,1.15-1.01,1.65-.07-.04-.14-.07-.21-.11-.12-.49,.15-.86,.47-1.2,.55-.6,.74-1.32,.86-2.24-.47,.56-.82,.99-1.18,1.42-.03-.02-.07-.04-.1-.06,.41-.91,.82-1.82,1.22-2.73-.08-.04-.16-.08-.24-.12-.56,.66-1.12,1.32-1.79,2.12-.36-1.23,.71-1.67,.96-2.47-.29-.04-.55-.07-.82-.1-.36,.55-.72,1.11-1.08,1.66-.07-.04-.15-.08-.22-.11-.24-.72,.72-1.06,.65-1.66-1.1-.05-2.21-.1-3.44-.16Zm5.95,9.15c.09,.08,.18,.16,.26,.24-.38,.2-.76,.4-1.22,.64,.44,.07,.73,.12,1.01,.17-.02-.41-.03-.73-.05-1.05Z"/><path d="M145.45,56.98c-.83,0-1.82,.03-2.8,0-1.63-.07-3.25-.17-4.88-.28-.33-.02-.67-.12-.98-.24-.7-.27-.68-1.01-.23-1.82,.78-1.39,1.42-2.87,2.18-4.43,1.23,.12,2.67,.27,4.12,.39,1.36,.11,2.72,.17,4.11,.25-.48,1.96-.98,3.99-1.51,6.14Zm-4.59-.87c1.16,.06,2.26,.12,3.35,.15,.13,0,.33-.18,.39-.32,.21-.54,.38-1.09,.58-1.69-.33,.25-.61,.46-.89,.68l-.06-.09c.42-.49,.84-.98,1.26-1.46-.06-.06-.12-.11-.18-.17-.43,.38-.87,.76-1.33,1.17,.31-1.1,1.53-1.44,1.82-2.46-.05-.05-.1-.09-.15-.14-.61,.51-1.21,1.03-1.82,1.54-.04-.05-.09-.09-.13-.14,.47-.46,.93-.92,1.4-1.37-1.18-.16-1.7,.82-2.5,1.28-.05-.05-.11-.1-.16-.16,.41-.41,.82-.82,1.31-1.31-1.34-.13-2.51-.29-3.69-.33-1.26-.04-1.68,.35-1.81,1.41,.41-.09,.83-.19,1.26-.29-.7,.64-1.81,.84-1.98,2.02,.54-.33,1.07-.67,1.75-.45-.54,.35-1.11,.62-1.68,.89-.18,.08-.35,.18-.53,.27,.04,.06,.07,.11,.11,.17,.5-.23,1.01-.45,1.51-.68,.04,.06,.07,.13,.11,.19-.47,.32-.94,.64-1.42,.97,.93-.3,1.8-.59,2.68-.87,.03,.07,.05,.14,.08,.22-.38,.22-.77,.45-1.13,.66,.94,.53,1.66-.1,2.5-.38-.19,.2-.37,.4-.65,.69Z"/><path d="M29.66,88.69c.37-.8,.74-1.59,1.12-2.39l.3,.14c-.19,.4-.37,.81-.58,1.2-.2,.4-.43,.78-.65,1.17l-.19-.12Z" fill="#fff"/><path d="M36.39,60.94c.21,.04,.4,.09,.73,.16-.55,.43-1.03,.8-1.51,1.17-.02-.02-.05-.03-.07-.05,.28-.41,.55-.83,.86-1.28Z" fill="#fff"/><path d="M131.94,120.57c.39-.27,.79-.55,1.18-.82,.04,.04,.07,.08,.11,.12-.63,.71-1.27,1.42-1.9,2.13-.05-.03-.11-.06-.16-.09l.08-.52c.23-.27,.46-.54,.69-.82Z"/><path d="M139.39,86.36c-.27-.08-.49-.14-.83-.24,.36-.28,.66-.51,1.06-.83-.09,.42-.15,.7-.23,1.06Z" fill="#fff"/><path d="M36.78,132.42c.01,.32,.03,.64,.05,1.05-.28-.05-.57-.1-1.01-.17,.46-.24,.84-.44,1.22-.64-.09-.08-.18-.16-.26-.24Z" fill="#fff"/><path d="M44.98,133.13c.2-.4,.33-.89,.63-1.19,.38-.38,.91-.61,1.45-.79-.7,.65-1.4,1.3-2.1,1.96,0,0,.01,.02,.01,.02Z"/></svg>