<?xml version="1.0" encoding="UTF-8"?><svg id="Calque_1" xmlns="http://www.w3.org/2000/svg" viewBox="0 0 173.84 178.2"><path d="M77.57,74.69l-.4,.08-.16,.08-.24,.08-.08,.23-.16,.23-.08,.23v.31l.08,.46,.08,.15,.16,.23,.24,.15,.24,.08,.16,.08h.56l.16-.08,.4-.23,.32-.38,.08-.23v-.46l-.08-.23-.32-.38-.16-.23-.24-.08-.32-.08h-.24Zm4.88-.3l-.24,.08-.24,.15-.24,.15-.16,.23-.16,.23-.08,.3-.08,.23,.08,.3,.08,.23,.16,.23,.16,.23,.24,.15,.24,.15,.24,.08h.56l.32-.08,.24-.15,.16-.15,.24-.23,.08-.23,.08-.23,.08-.3-.08-.23-.08-.3-.08-.23-.24-.23-.16-.15-.24-.15-.32-.08h-.56Zm-2.72,3.36l-.4,.15-.32,.15-.24,.38-.08,.38,.08,.38,.24,.3,.32,.23,.4,.08,.4-.08,.32-.23,.24-.3,.08-.38-.08-.38-.24-.38-.32-.15-.4-.15Zm2.56,2.75l-.24,.08-.24,.08-.24,.15-.16,.23-.08,.23-.08,.23v.46l.08,.23,.08,.23,.16,.23,.24,.15,.24,.08,.24,.08h.48l.24-.08,.24-.08,.24-.15,.16-.23,.08-.23,.08-.23,.08-.23-.08-.23-.08-.23-.08-.23-.16-.23-.24-.15-.24-.08-.24-.08h-.48Zm-4.48,0l-.32,.08-.24,.08-.24,.15-.24,.15-.16,.23-.16,.23-.08,.23-.08,.3,.08,.23,.08,.3,.16,.23,.16,.15,.24,.23,.24,.08,.24,.08,.32,.08,.24-.08,.32-.08,.24-.08,.16-.23,.24-.15,.08-.23,.08-.3,.08-.23-.08-.3-.08-.23-.08-.23-.24-.23-.16-.15-.24-.15-.32-.08-.24-.08Zm2,2.9l-.32,.08-.24,.08-.24,.15-.24,.15-.24,.23-.08,.23-.08,.31-.08,.23,.08,.3,.08,.3,.08,.23,.24,.23,.24,.15,.24,.15,.24,.08h.64l.24-.08,.24-.15,.24-.15,.24-.23,.08-.23,.08-.3,.08-.3-.08-.23-.08-.31-.08-.23-.24-.23-.24-.15-.24-.15-.24-.08-.32-.08Zm2.48,3.29l-.24,.08-.24,.08-.24,.15-.16,.15-.16,.23-.08,.23-.08,.38,.08,.38,.24,.38,.32,.23,.24,.15h.8l.32-.15,.24-.15,.08-.08,.24-.23,.08-.31,.08-.38-.16-.38-.24-.38-.32-.23-.24-.15h-.56Zm-4.4,.38l-.32,.08-.24,.08-.4,.3-.24,.31-.16,.38,.08,.46,.08,.31,.24,.23,.24,.15,.32,.08v.08h.48l.48-.08,.24-.08,.16-.23,.24-.23,.08-.3,.08-.3-.08-.31-.08-.3-.16-.15-.24-.23-.24-.15-.32-.08h-.24Zm2.4,2.83l-.24,.08-.24,.08-.24,.08-.16,.15-.24,.31-.08,.3-.08,.3v.31l.16,.3,.24,.3,.24,.15,.32,.15h.8l.16-.15,.32-.15,.16-.23,.16-.38v-.54l-.08-.3-.24-.38-.24-.15-.24-.08-.24-.08-.24-.08Zm1.76,2.6l-.24,.08-.24,.15-.24,.15-.16,.15-.08,.23-.08,.23v.54l.08,.23,.08,.23,.16,.15,.24,.15,.24,.15,.24,.08h.48l.32-.08,.16-.15,.24-.15,.16-.15,.08-.23,.08-.23,.08-.31-.08-.23-.08-.23-.08-.23-.16-.15-.24-.15-.16-.15-.32-.08h-.48Zm-4.24,.38l-.32,.08-.32,.08-.32,.23-.16,.23-.16,.31v.69l.08,.23,.16,.15,.4,.3,.24,.15,.4,.08,.32-.08,.32-.15,.4-.3,.08-.15,.08-.23,.08-.38-.08-.3-.08-.31-.24-.23-.24-.23-.32-.08-.32-.08Zm20.01-11.22l-.08,.69v.69l.08,1.45-.08,2.29-.08,2.29-.16,1.99-.08,1.98v1.91l.08,1.98-1.84,.23,.16-2.21,.08-2.29,.08-4.58v-2.22l-.08-2.22v-.92l-.08-.46-.08-.46,1.04-.08,1.04-.08Zm-22.65-9.16l.88,.23,.88,.08,.88-.08h.96l-.08,.15v.23l.08,.31,.08,.23,.16,.23,.24,.15,.32,.15h.4l.32-.15,.32-.15,.16-.15,.08-.23,.08-.38-.08-.3v-.15h3.12v.77l.08,.61,.16,1.76,.24,1.76,.08,1.75v1.76l-.16,4.2-.16,4.12v7.56l-1.44-.08h-1.44v-.54l-.08-.23-.16-.23-.16-.15-.16-.15-.24-.15-.24-.08h-.56l-.24,.08-.24,.15-.16,.15-.16,.15-.16,.23-.08,.23v.31l.08,.3-1.28,.08-1.28,.23-.16-1.15-.16-1.14-.08-2.29-.08-4.51v-3.36l-.08-1.68-.08-1.6-.32-5.34-.08-2.52v-1.15Zm19.37,9.31v.92l.08,.92v2.22l-.08,2.22-.08,2.29-.16,2.29-.08,2.29v1.14l.08,1.15h-.8l.08-.15,.08-.99v-.99l-.08-.99v-5.34l-.16-1.99-.24-1.99v-1.53l.16-1.45h1.2Zm-2.24,0l-.24,.77-.08,.84-.08,.84v.84l.24,1.68,.16,1.6v2.37l-.08,2.37-.08,.99v1.15l.08,1.07,.16,.46,.16,.54h-.72l.08-.15v-.23l-.16-1.15-.16-1.22-.16-2.29-.08-2.37-.16-2.37-.08-1.83v-2.37l.08-.53,.08-.46v-.54h1.04Zm-30.65-18.09l.96,.08,.96,.08h1.92l1.28,.08h2.48l1.28-.15-.24,.76-.08,.77v2.9l.16,1.76,.08,1.68v1.76l-.08,2.98,.08,2.9,.16,5.88,.24,5.96,.08,5.88h-5.52l-.88,.08h-.88l-.8,.15-.8,.31-.08-.92v-2.75l-.24-4.51-.08-2.44v-2.37l.16-2.37,.16-2.44,.32-4.5,.08-2.29v-1.15l-.08-1.15-.64-3.97v-2.98Zm28.57,18.17l-.32,.53-.08,.69-.08,.76-.08,.77,.08,1.45,.08,1.07,.24,5.04,.16,2.59,.16,1.22,.24,1.3v.08l-.8,.08-.72,.15,.24-1.83,.16-1.83v-1.83l-.08-1.83-.16-4.12-.08-2.14-.16-1.99,1.2-.15Zm-7.76-10.84l-2.24,.15-2.56,.08h-1.28l-1.2,.15-.24,.15-.16,.15h-.08l-.32,.15-.24,.23-.08,.38-.08,.38-.08,.84,.08,.61v1.6l.08,1.6,.16,3.13,.08,3.44,.08,3.44,.08,5.12,.08,2.52,.16,1.3,.16,1.22-.08,.08-.08,.15v.31l.08,.3,.16,.08,.16,.08h.16l.24,.08h.24l.88,.08,.88-.08,1.68-.15,2.56-.08,2.56-.08,.16,.15,.24,.08,.16,.08,.24-.08,.24-.08,.16-.15,.16-.15,.08-.3,.08-1.83v-1.83l-.08-1.91v-1.83l.24-7.79v-3.44l-.08-1.76-.24-1.76-.4-2.14-.08-.76v-.84l.08-.23-.08-.3-.16-.23-.32-.15-.48-.15h-1.76Zm-21.29-8.93l-.24,.08-.24,.15-.24,.38-.16,.38-.24,.84-.08,.92v.92l.08,.99,.08,.92,.32,1.76,.16,1.22,.08,1.22v1.22l-.08,1.22-.08,2.37-.24,2.52-.16,2.52-.08,2.52-.08,2.6,.08,2.52,.32,4.96v1.98l.08,.99,.16,.99,.08,.23,.08,.15,.16,.15h.56l.4-.15,.8,.15,.88,.08h4.64l2.72-.08,.32-.08,.24-.08h.4l.4-.08,.16-.15,.08-.08,.08-.23,.08-.23-.08-5.88-.24-5.8-.24-5.88-.08-2.9v-4.66l-.08-1.76-.16-1.75-.16-1.76-.08-1.53v-1.45l.08-.61v-.46l-.08-.15,.08-.23v-.23l-.08-.23-.16-.15-.16-.23-.16-.15h-.56l-1.44,.15h-1.36l-2.8-.08h-1.68l-.8,.08-.88,.08-.16-.15-.24-.08Zm35.3,18.09l-1.68,.08-1.6,.15-1.68,.08h-1.36l-.72,.15-.64,.23-.24-.23-.32-.08h-.08l-.16,.08-.08,.15-.08,.15-.16,.99-.08,.99v2.06l.16,2.06,.16,1.99,.08,2.29v2.22l-.08,2.21-.16,1.15-.24,1.07v.3l.08,.23,.16,.23,.24,.08,.16,.08h.48l.24-.15,1.04,.08h3.2l2.4-.08,1.12-.15,1.2-.15,.16,.15,.16,.08,.24,.08h.24l.24-.08,.16-.15,.08-.15v-.23l-.16-1.15-.08-1.15v-4.5l.16-2.29,.08-2.29,.08-2.29v-.76l-.08-.84-.08-.84-.16-.38-.16-.31,.08-.23v-.15l-.08-.31-.24-.3-.16-.08-.24-.08h-1.6Z" fill="#1d1832" fill-rule="evenodd"/><path d="M83.21,56.07l2.49,.26,2.49,.65,2.36,.92,2.23,1.04,2.09,1.44,2.09,1.57,1.84,1.97,1.57,2.09,1.05,1.44,.92,1.57,.79,1.7,.52,1.71,.52,1.7,.26,1.7,.26,1.84v3.54l-.26,1.7-.26,1.84-.39,1.7-.52,1.7-.66,1.71-.78,1.7-.79,1.57-1.05,1.7-1.18,1.71-1.31,1.44-1.31,1.44-1.57,1.31-1.57,1.18-1.57,1.05-1.7,.92-1.84,.79-1.83,.66-1.84,.39-1.97,.26-1.97,.13-1.97-.13-1.97-.26-2.09-.52-1.71-.53-1.7-.65-1.7-.79-1.71-.92-1.57-.92-1.57-1.18-1.44-1.18-1.44-1.18-1.31-1.31-1.18-1.44-1.05-1.57-1.04-1.57-.79-1.57-.79-1.7-.53-1.84-.39-1.83-.13-1.57-.13-1.57v-1.44l.13-1.57,.26-1.44,.26-1.44,.53-1.44,.52-1.31,.52-1.31,.79-1.31,.79-1.31,.79-1.18,.92-1.18,1.05-1.18,2.09-2.1,2.36-1.97,2.36-1.7,2.62-1.57,1.31-.66,1.31-.65,1.44-.26,2.1-.26,3.67-.39h3.14l.13-.13Zm-2.09-2.36l-2.36,.26-2.23,.52-1.18,.13-1.31,.26-1.44,.39-1.31,.52-1.44,.66-1.31,.66-2.62,1.57-2.49,1.7-2.36,1.84-2.09,2.09-1.97,2.23-.79,1.31-.79,1.18-.79,1.31-.52,1.31-.66,1.31-.39,1.44-.52,1.44-.26,1.44-.26,1.44-.13,1.57v3.14l.26,1.57,.26,1.57,.39,1.57,.39,1.57,.66,1.44,.66,1.44,.79,1.44,.92,1.44,1.05,1.31,1.18,1.31,1.17,1.18,1.31,1.04,2.75,2.1,1.57,1.04,1.57,.92,1.7,.92,1.7,.79,1.71,.79,1.83,.52,1.71,.53,1.97,.39,1.83,.13,1.97,.13,1.84-.26,1.84-.26,1.83-.52,1.84-.53,1.7-.79,1.71-.92,2.09-1.31,2.09-1.44,1.84-1.7,1.7-1.71,1.44-1.97,1.44-2.09,1.18-2.23,1.05-2.22,.92-2.36,.66-2.36,.39-2.36,.26-2.49v-2.49l-.13-2.49-.39-2.36-.65-2.49-.92-2.1-1.04-2.09-1.18-1.97-1.44-1.97-1.57-1.7-1.7-1.57-1.84-1.44-1.83-1.31-2.1-1.05-2.09-.92-2.23-.79-2.22-.39-2.36-.26h-2.23Zm27.91,53.99l.13,.13-.92,1.05,.65-.79,.13-.39Zm-28.7-59.1l1.97,.13,1.97,.26,1.97,.26,1.84,.52,1.83,.52,1.84,.66,1.84,.66,1.7,.92,1.7,.92,1.57,1.05,1.44,1.05,1.44,1.18,1.31,1.18,1.31,1.31,1.57,1.84,1.44,1.97,1.31,1.97,1.05,2.09,.92,2.09,.79,2.23,.66,2.23,.39,2.22,.26,2.23,.13,2.23v2.36l-.26,2.22-.39,2.36-.52,2.23-.66,2.22-.92,2.23-1.18,2.49-1.31,2.36-1.44,2.1-1.71,2.09-1.7,1.97-1.97,1.84-1.97,1.57-2.09,1.44-2.23,1.31-2.36,1.04-2.49,.92-2.49,.65-2.49,.39-2.75,.13h-2.62l-2.75-.39-2.36-.53-2.36-.65-2.36-.79-2.23-.92-2.23-1.18-2.09-1.18-2.09-1.31-1.84-1.57-1.83-1.57-1.71-1.84-1.57-1.83-1.44-1.97-1.31-2.1-1.18-2.22-.92-2.23-.79-2.36-.52-2.09-.39-1.97-.26-1.97v-3.93l.13-1.97,.26-1.84,.39-1.83,.52-1.84,.66-1.7,.66-1.84,.92-1.7,.92-1.71,1.18-1.57,1.18-1.57,1.31-1.57,1.57-1.57,1.97-1.7,2.35-1.84,2.75-1.83,2.89-1.57,1.57-.79,1.57-.66,1.7-.52,1.57-.53,1.7-.39,1.71-.26,1.97-.13,2.09-.13Zm26.47,56.08l1.18,1.71-.26,.13-.13,.13-1.31,1.31-1.44,1.18-1.44,.92-.65,.52-.13,.39-.13,.39v.13l.39,.13h.39l.92-.13,.79-.39,.79-.53,1.71-1.04,.79-.66-.66,.66-.66,.52-1.31,1.05-.66,.52-.13,.39v.39l.13,.26,.26,.26,.39,.13,.39-.13,.92-.26,.79-.53,.79-.52,1.18-.92,.66-.53,.39-.65,.39,.26-1.18,1.05-1.18,1.05-1.31,1.18-.53,.65-.39,.79-.13,.39,.26,.39,.39,.13h.39l.79-.26,.79-.52,1.44-1.18,1.18-.92,1.18-1.04,.26,.26-1.44,2.1-.65,.79-.66,.65-.79,.53-.66,.79v.52l.13,.13,.26,.13h.79l.79-.13,.79-.39,.79-.65,.79-.53,.53-.79,.65-.79,.39-.79,1.71,1.44-.53,.39-.52,.39-1.05,1.05-1.18,.79-1.18,.92-.13,.13-.13,.26,.13,.26,.13,.26,.39,.13,.53,.13h.39l.39-.13,.79-.39,.79-.39,.65-.53,.79-.52,.66-.79,.26-.39,.13-.39,1.05,1.05h-.13l-.79,.52-.52,.66-1.18,1.31-1.18,1.18-.52,.52-.39,.79-.13,.13,.13,.13v.26h.26l.79-.26,.79-.26,1.31-.92,.79-.66,.79-.65,.65-.92,.39-.79,1.05,1.05-.79,1.31-.52,.66-.53,.52-.65,.53-.66,.39-.66,.39-.65,.39v.26l-.13,.13,.13,.39,.52,.26,.39,.13h.52l.66-.13,1.05-.52,.79-.52,.65-.53,.53-.65,.65-.66,.39-.79,1.18,1.31h-.13l-.66,.26-.52,.39-.92,1.05-1.18,1.18-.66,.65-.66,.39-.13,.26v.26l.26,.26h.26l1.57-.39,.66-.39,.79-.39,1.31-1.18,.53-.65,.39-.66v-.13l1.57,1.57-1.18,1.04-1.18,1.05-1.31,.92-.65,.53-.53,.52-.13,.13v.26l.13,.13,.13,.13,.92,.13,.79-.13,.92-.39,.79-.53,.79-.52,.66-.66,1.18-1.31,.92,1.05-1.44,1.44-.79,.53-.79,.52-.79,.52-.79,.66-.26,.26,.13,.39,.13,.39,.26,.13,.53,.13,.65-.13,1.05-.26,.92-.52,.92-.53,1.04-.92,.92-.92,1.57,1.44-.92,.92-.92,.79-1.44,.79-1.31,.79-.26,.13v.26l.13,.13,.26,.13h1.05l.92,.13,1.05-.26,.92-.26,.79-.52,.66-.52-.13,.52-.53,.66-.65,.52-.79,.39-.79,.39-1.18,.26-1.71,.52-.13-.39-.39-.26-.79-.52-.79-.79-1.57-1.44-4.06-3.27-2.1-1.97-1.97-2.09-3.8-4.06-1.31-1.31-1.44-1.18-3.02-2.22-1.44-1.18-1.44-1.31-1.31-1.31-1.05-1.44,1.7-1.44,1.7-1.57,1.57-1.57,1.44-1.71Zm-28.56-59.23l-3.28,.39-3.27,.52-1.57,.39-1.57,.53-1.84,.65-1.83,.92-1.71,1.04-1.7,1.05-1.7,1.18-1.57,1.31-3.02,2.62-1.44,1.44-1.31,1.44-1.31,1.57-1.05,1.44-1.18,1.7-.92,1.71-.92,1.7-.79,1.7-.66,1.84-.52,1.84-.53,1.83-.39,1.97-.26,1.97-.13,1.97v4.07l.13,2.09,.39,1.97,.39,2.09,.52,1.97,.66,1.97,.92,1.97,.92,1.84,1.05,1.83,1.31,1.84,1.44,1.84,1.44,1.57,1.57,1.44,1.7,1.44,1.7,1.31,1.84,1.18,1.97,1.18,2.22,1.18,2.23,1.05,2.36,.92,2.36,.79,2.49,.66,2.36,.52,2.49,.39,2.49,.26h2.49l2.49-.26,2.36-.39,2.22-.65,2.36-.79,2.1-1.05,2.22-1.18,2.1-1.31,.13,.65,.13,.66,.39,.52,.39,.53,1.05,1.04,.92,.92,1.57,1.31,1.57,1.18,1.57,1.31,1.44,1.31,2.22,2.22,2.1,2.23,2.09,2.23,2.09,2.22,1.18,1.05,1.18,1.04,2.36,1.84,1.84,1.7,.79,.79,1.05,.79,.39,.13,.26,.26,.39,.13,.79,.26,1.05-.13,1.05-.13,1.04-.39,1.05-.39,1.44-.66,.79-.52,.79-.79,.65-.92,.53-.92,.26-1.05,.13-1.04-.13-.53-.13-.39-.13-.52-.39-.39-.26-.26-7.47-7.6-3.67-3.8-3.93-3.67-1.71-1.57-1.83-1.57-1.84-1.44-1.7-1.71-1.05-1.18-1.05-1.31-1.18-1.18-.65-.52-.66-.53,1.44-2.09,1.31-2.09,1.05-2.36,1.04-2.23,.79-2.49,.66-2.36,.52-2.49,.39-2.49,.26-2.62v-2.49l-.13-2.49-.26-2.49-.39-2.62-.66-2.36-.79-2.49-1.04-2.36-.66-1.44-.79-1.31-.79-1.31-.92-1.18-1.97-2.36-2.23-2.22-2.36-1.97-2.62-1.71-2.75-1.57-2.89-1.31-3.14-1.05-3.01-.79-3.28-.52-3.27-.39h-3.27Z" fill="#1d1832" fill-rule="evenodd"/></svg>