<?xml version="1.0" encoding="UTF-8"?><svg id="Calque_1" xmlns="http://www.w3.org/2000/svg" viewBox="0 0 173.84 178.2"><path d="M77.21,55.92c1.72-.4,3.41-1.03,5.15-1.16,7.25-.57,13.53,1.85,18.81,6.75,5.59,5.19,8.81,11.68,9.57,19.26,.64,6.34-.96,12.25-4.25,17.7-.19,.32-.39,.64-.62,1.02,2.15,1.16,3.73,2.89,5.04,4.95,2.27-1.42,4.52-1.24,6.88,.12,0-.51,0-.84,0-1.17-.01-15.49,0-30.99-.08-46.48,0-1.88-.28-3.8-.75-5.62-.58-2.24-2.1-3.66-4.56-3.75-3.43-.13-6.87-.23-10.3-.32-9.02-.24-18.05-.47-27.07-.71-4.59-.12-9.18-.28-13.77-.37-5.77-.11-9.32,2.67-11,8.58-.38,1.34-.64,2.73-.96,4.09-.05,.2-.12,.4-.21,.7-.36-1.77,.46-5.95,1.59-8.37,1.51-3.23,3.93-5.41,7.48-6.04,1.77-.32,3.6-.34,5.41-.33,13.71,.07,27.43,.18,41.14,.29,2.47,.02,4.98-.18,7.39,.2,2.53,.4,5.03-.1,7.52,.26,2.02,.29,3.48,1.43,4.52,3.15,1.11,1.84,1.55,3.89,1.63,5.98,.18,4.31,.33,8.62,.35,12.92,.06,14.74,.05,29.49,.1,44.23,0,.54,.21,1.17,.53,1.59,2.2,2.93,4.3,5.94,5.29,9.51,.41,1.47,.5,3.08,.45,4.61-.06,1.61-.93,2.96-2.16,4.02-2.83,2.44-6.4,2.83-9.76,1.05-.88-.47-1.74-1-2.52-1.6-.58-.44-.98-.46-1.72-.26-1.48,.41-3.06,.62-4.6,.64-12.12,.18-24.24,.32-36.36,.44-3.62,.04-7.25,.06-10.87-.04-2.66-.07-5.25-.63-7.68-1.8-3.96-1.92-6.32-5.07-6.9-9.38-.49-3.67-.76-7.39-.93-11.09-.35-8.02-.71-16.04-.82-24.06-.1-6.9,.12-13.8,.24-20.71,.02-1.34,.22-2.67,.35-4.01,.02-.23,.13-.45,.2-.67,.1,0,.2,.02,.29,.02,0,2.52-.04,5.04,0,7.56,.11,6.09,.2,12.18,.42,18.27,.21,5.65,.54,11.29,.88,16.93,.28,4.64,.61,9.28,1,13.91,.13,1.61,.38,3.23,.8,4.78,1.22,4.49,4.58,6.61,8.86,7.42,2.01,.38,4.09,.53,6.14,.52,10.47-.06,20.93-.17,31.39-.34,5.03-.08,10.05-.34,15.08-.53,.35-.01,.7-.12,1.25-.22-1.63-1.58-3.04-3.12-4.62-4.45-2.34-1.97-4.42-4.13-5.95-6.8-.92-1.6-1.13-3.26-.56-5.04,.08-.25-.06-.73-.27-.9-1.63-1.36-3.01-2.9-3.78-4.87-11.85,8.31-23.92,8.43-35.31-.25-9.66-7.36-12.64-17.88-9.69-29.49,2.9-11.41,10.68-18.26,22.29-20.6-1.16,.53-2.32,1.06-3.49,1.57-11.85,5.27-19.55,16.47-17.1,30.44,1.52,8.67,6.17,15.17,14.18,19,6.09,2.91,12.47,3.62,19.02,1.62,13.6-4.14,22.64-20.43,16.76-35.26-2.64-6.67-6.89-11.88-13.38-15.13-4.55-2.28-9.39-2.82-14.39-2.24-.53,.06-1.08,0-1.62,0Zm42.09,73.68c2.05,1.54,4.49,2.21,6.31,1.79,3.49-.82,5.09-3.17,4.29-6.62-.36-1.55-1-3.09-1.78-4.49-2.66-4.8-6.19-8.92-10.31-12.52-.76-.66-1.7-1.22-2.65-1.52-.73-.23-1.82-.29-2.4,.1-1.85,1.25-3.63,2.65-5.26,4.17-.78,.73-1.42,1.79-1.73,2.82-.7,2.36,.98,4,2.01,5.9,.86-.75,1.59-1.44,2.37-2.05,.66-.51,1.36-.98,2.1-1.38,.24-.13,.74-.13,.92,.04,.19,.17,.29,.67,.18,.92-.32,.73-.63,1.57-1.19,2.08-.91,.82-2.02,1.42-3.1,2.15,.68,.87,1.5,1.92,2.33,2.99,.66-1.12,1.52-1.77,2.75-1.8,1-.03,1.49,.69,.95,1.53-.42,.65-1.12,1.13-1.69,1.69,1.27,.94,2.64,1.96,3.86,2.87,1.5-.97,2.86-1.91,4.28-2.73,.38-.22,.96-.1,1.45-.14-.02,.5,.1,1.07-.09,1.5-.67,1.49-1.93,2.3-3.6,2.71Zm-13.9-20.42c1.15-1.18,2.41-2.47,3.63-3.73-1.61-1.08-3.09-2.62-3.95-4.66-1.4,1.54-2.77,3.05-3.98,4.38,1.46,1.36,2.92,2.72,4.29,4Zm14.82-47.03c0,1.35-.02,2.66,.01,3.97,0,.23,.14,.57,.32,.67,.97,.53,1.98,1,3.16,1.59,0-1.5,0-2.96-.01-4.41,0-.14-.16-.34-.3-.4-1.03-.48-2.08-.93-3.19-1.41Zm.25,34.95v4.27c1.15,.41,2.18,.78,3.22,1.15v-4.57c-1.12-.3-2.15-.57-3.22-.85Zm-.07-2.82c1.14,.4,2.2,.77,3.24,1.13v-4.14c-1.14-.38-2.18-.72-3.24-1.08v4.08Zm3.19-23.28c-1.16-.47-2.21-.89-3.28-1.33,0,1.34-.01,2.67,.01,4.01,0,.17,.16,.43,.31,.48,.96,.38,1.95,.71,2.96,1.07v-4.23Zm-.01,13.27c-1.11-.35-2.14-.68-3.22-1.02,0,1.26-.01,2.49,.01,3.73,0,.17,.15,.42,.3,.48,.95,.41,1.92,.77,2.91,1.16v-4.35Zm-3.36-24.8c1.22,.47,2.35,.9,3.5,1.34v-3.53c-1.2-.36-2.35-.71-3.5-1.05v3.24Zm.12,17.32c0,1.11-.02,2.1,.02,3.09,0,.19,.17,.46,.33,.54,.93,.47,1.88,.89,2.87,1.34v-3.69c-1.05-.42-2.07-.83-3.21-1.28Zm3.49-22.17c-.14-1.12-.28-2.2-.39-3.1-1.51-.33-2.79-.61-4.08-.9,.23,.98,.45,1.94,.66,2.83,1.26,.39,2.47,.76,3.81,1.17Zm-3.4,49.32c.06,1.03-.19,2.1,.24,2.7,.81,1.15,2.01,2.04,3.11,3.09,0-.8,0-1.51,0-2.22s0-1.42,0-2.07c-.62-.24-1.15-.41-1.66-.64-.5-.22-.99-.5-1.68-.86Z"/><path d="M121.92,48.3c-1.12,0-2.28,.01-3.44-.01-.18,0-.4-.13-.53-.27-.56-.58-1.09-1.18-1.61-1.73,2.61-.09,4.66,.61,5.57,2.01Z" fill="#fff"/><path d="M84.41,62.72c8.7-.03,15.31,4.68,19.02,13.22,5.59,12.89-3.08,27.83-16.64,30.1-8.18,1.37-15.4-.59-21.18-6.7-4.6-4.86-6.38-10.78-5.6-17.4,.9-7.65,4.88-13.21,11.78-16.63,2.07-1.03,4.29-1.61,6.63-1.79,1.63-.13,3.24-.54,4.87-.8,.37-.06,.75,0,1.12,0Zm-3.14,1.02c-.93,0-1.95-.24-2.79,.04-3.49,1.18-6.85,2.61-9.68,5.11-8.04,7.11-9.15,19.54-2.23,27.72,5.08,6,11.73,8,19.43,6.86,12.04-1.8,20.03-14.97,15.43-26.47-2.03-5.06-5.06-9.23-10.21-11.51-3.16-1.4-6.51-1.84-9.95-1.75Z"/></svg>