<?xml version="1.0" encoding="UTF-8"?><svg id="Calque_1" xmlns="http://www.w3.org/2000/svg" viewBox="0 0 173.84 178.2"><path d="M76.33,124.38c.28-13.47,.51-26.94,.88-40.41,.06-2.03-.56-2.91-2.53-2.79-7.2,.46-14.43,.72-21.6,1.47-8.11,.84-8.96,.32-8.9-7.73,.04-5.41,.12-10.82,.45-16.21,.06-.91,1.33-2.34,2.23-2.51,6.02-1.08,12.09-1.88,18.14-2.77,10.72-1.58,21.47-3.01,32.15-4.8,9.04-1.52,18.01-3.46,27.02-5.21,3.58-.7,4.36-.02,4.68,3.62,.67,7.46,1.4,14.91,2.17,22.35,.22,2.15-.17,3.05-2.74,3.43-7.76,1.14-15.44,2.83-23.16,4.26-1.73,.32-2.35,1.19-2.31,2.98,.3,14.47,.49,28.93,.77,43.4,.05,2.43,.35,4.86,.56,7.29,.2,2.24-.86,3-3.02,3.09-5.67,.24-11.34,.61-16.99,1.07-1.5,.12-2.96,.77-4.45,1.17-2.5,.67-3.42,.05-3.48-2.48-.07-3.07-.02-6.15-.02-9.22,.05,0,.09,0,.14,0Zm19.62-71.46c-.82,0-1.27-.06-1.71,0-14.75,2.21-29.5,4.41-44.23,6.72-.68,.11-1.51,1.14-1.71,1.89-.29,1.06-.07,2.27-.07,3.37,1.94-1.02,3.79-2.04,5.69-2.95,.36-.17,1.12-.03,1.35,.25,.21,.25,.1,.99-.13,1.34-.42,.64-1.02,1.18-1.57,1.72-1.99,1.94-3.99,3.86-5.98,5.79,.14,.14,.28,.28,.43,.42,1.66-1.36,3.32-2.71,5.34-4.37,.66,5.25-5.03,5.79-5.71,9.62,2.37-2.05,4.63-4.01,6.89-5.97,.17,.19,.34,.38,.52,.57-1.31,2.23-2.61,4.45-3.92,6.68,.15,.11,.3,.22,.45,.33,1.78-1.41,3.57-2.82,5.81-4.59-.29,1.6-.46,2.51-.61,3.35,3.68-.28,4.05-6.07,8.9-4.86-1.21,1.98-2.27,3.72-3.34,5.47,.21,.25,.43,.49,.64,.74,2.63-1.74,5.26-3.47,7.89-5.21,.26,.29,.52,.58,.78,.87-.51,1.05-1.02,2.09-1.52,3.14,.1,.18,.21,.36,.31,.53,2.51-1.69,5.02-3.39,7.53-5.08,.25,.31,.5,.62,.74,.93-1.05,1.33-2.09,2.66-3.14,3.99,.16,.24,.31,.49,.47,.73,2.16-1.16,4.32-2.33,7.13-3.84-.19,1.12-.2,1.94-.47,2.66-.42,1.14-1.32,2.18-1.47,3.34-.45,3.56-.81,7.15-.88,10.73-.13,7.11-.04,14.23-.04,21.5,2.49-1.19,4.79-2.29,7.09-3.39,.19,.26,.38,.53,.58,.79-1.64,1.71-3.29,3.42-4.93,5.14-2.53,2.67-3.08,4.02-2.71,6.02,2.31-2.11,4.77-4.36,7.22-6.6,.26,.23,.51,.47,.77,.7-2.86,4.65-6.8,8.71-8.39,14.27,1.9-2.22,3.62-4.25,5.35-6.27,.18,.14,.37,.28,.55,.43l-3.43,7.16c.22,.17,.44,.34,.66,.5,1.5-1.79,3.01-3.58,4.51-5.37,.21,.14,.41,.29,.62,.43-.51,1.21-1.02,2.43-1.52,3.64,.2,.17,.39,.34,.59,.52,2.88-2.56,3.49-7.77,8.94-8.09-1.78,2.58-3.32,4.8-4.94,7.15h9.13c-.25-6.59-.61-12.99-.72-19.4-.15-9.3,.45-18.64-.35-27.88-.72-8.26,2.19-8.11,7.85-9.42,.18-.04,.36-.04,.54-.08,6.53-1.24,13.07-2.48,19.73-3.75-.23-1.5-.4-2.56-.55-3.54-1.42,1.36-2.65,2.53-3.87,3.7-.25-.21-.5-.41-.74-.62,1.43-2.74,2.87-5.47,4.3-8.21l-.65-.37c-1.02,1.74-1.87,3.71-4.4,3.48-.53-5.25,5.91-8.6,3.35-14.31-1.58,2.88-1.87,6.45-5.04,8.3,.3-2.14,1.04-4.1,1.58-6.11,.18-.67-.15-1.47-.24-2.22-.67,.46-1.6,.77-1.96,1.41-.65,1.15-.79,2.59-1.46,3.71-.7,1.17-1.78,2.11-2.69,3.15-.33-.2-.65-.4-.98-.61,.8-2.17,1.6-4.34,2.7-7.33-1.44,.68-2.53,.84-2.94,1.45-1.46,2.17-2.6,4.56-4.07,6.72-.47,.69-1.58,.94-2.4,1.39-.04-1.07-.43-2.29-.06-3.19,.74-1.77,1.89-3.36,3.09-5.38-4.72,.87-4.67,6.48-8.46,7.73-3.35-2.87,1.37-4.22,1.18-6.54-2.46-.04-4.05,.78-5.2,3.03-1.01,1.98-2.68,3.61-4.31,5.71-2.45-3.94,1.52-5.08,2.31-7.69Z"/></svg>