<?xml version="1.0" encoding="UTF-8"?><svg id="Calque_1" xmlns="http://www.w3.org/2000/svg" viewBox="0 0 173.84 178.2"><path d="M69.65,119.22h.62v2.57c2.11-.19,4.17-.36,6.23-.57,2.35-.24,4.69-.53,7.04-.77,1.86-.19,3.73-.31,5.59-.49,1.83-.18,3.66-.41,5.48-.6,1.19-.13,2.38-.22,3.57-.34,2.01-.2,4.02-.42,6.03-.62,1.19-.12,2.38-.21,3.57-.33,1.99-.2,3.97-.42,5.96-.61,1.24-.12,2.48-.21,3.72-.33,1.93-.19,3.87-.41,5.8-.6,1.24-.12,2.48-.22,3.72-.34,1.96-.2,3.92-.41,5.88-.61,1.27-.13,2.54-.21,3.8-.34,1.93-.19,3.87-.41,5.8-.6,1.24-.12,2.48-.24,3.73-.34,.88-.07,1.77-.12,2.65-.16,.54-.03,.84,.14,.84,.8,.03,5.66,.09,11.33,.14,16.99,0,.87,.05,1.74-.02,2.6-.04,.6-.2,1.21-.39,1.79-.06,.17-.4,.34-.62,.35-2.77,.11-5.54,.19-8.31,.28-.1,0-.21,.01-.31,.01-2.54,.05-5.08,.09-7.62,.16-3.06,.09-6.11,.2-9.17,.31-1.28,.05-2.56,.11-3.84,.15-3.11,.11-6.22,.21-9.33,.32-2.82,.1-5.64,.21-8.46,.31-3.08,.11-6.16,.21-9.25,.32-1.36,.05-2.71,.11-4.07,.16-3.16,.11-6.32,.21-9.48,.33-3.74,.14-7.48,.31-11.23,.45-.92,.03-1.22-.42-1.05-1.33,.43-2.36,.82-4.72,1.23-7.08,.41-2.36,.85-4.71,1.21-7.08,.24-1.56,.36-3.15,.53-4.77Zm14.73,18.38c.4,0,.7,.02,1,0,1.43-.1,2.85-.23,4.28-.3,2.24-.12,4.48-.22,6.72-.32,2.32-.11,4.64-.21,6.96-.32,2.27-.1,4.53-.21,6.8-.31,2.34-.11,4.69-.21,7.03-.32,2.27-.1,4.53-.21,6.8-.31,2.37-.11,4.74-.21,7.12-.32,2.21-.1,4.43-.22,6.64-.31,2.82-.12,5.64-.21,8.45-.32,.53-.02,1.06-.12,1.48-.16v-8.55c-1.05,.91-2.02,1.77-3,2.62l-.23-.25c.92-1.02,1.85-2.04,2.76-3.07,.17-.19,.41-.41,.42-.62,.04-1.19,.02-2.38,.02-3.57-.05,0-.1-.02-.15-.03-.58,.99-1.15,1.98-1.78,3.06,.28-.05,.45-.07,.81-.13-.44,.53-.76,.94-1.1,1.32-.32,.37-.64,.25-.76-.13-.08-.27-.04-.66,.11-.9,.73-1.15,1.45-2.34,2.31-3.39,.84-1.01,.46-2.07,.38-3.18-1.26,1.57-2.52,3.13-3.91,4.85-.09-.4-.21-.63-.14-.72,1.22-1.72,2.47-3.42,3.7-5.11-.8,.03-1.75-.15-2.45,.69-.84,1.02-1.68,2.04-2.52,3.05q-.63-.48-.18-.98c.71-.79,1.42-1.58,2.16-2.4-.82-.17-1.46-.03-1.98,.62-.66,.81-1.38,1.57-2.03,2.39-.23,.29-.4,.65-.76,.34-.28-.24-.3-.6,.04-.95,.65-.66,1.25-1.37,1.98-2.18-1.14,.08-2.12,.11-3.09,.25-.47,.06-.94,.15-1.28,.69-.7,1.11-1.54,2.14-2.38,3.17-.18,.22-.7,.46-.84,.36-.36-.25-.44-.67-.05-1.05,.19-.18,.34-.4,.5-.6,.62-.73,1.24-1.46,1.98-2.32-.87,.07-1.56,.11-2.24,.2-.14,.02-.27,.21-.38,.34-.8,.92-1.6,1.85-2.39,2.77-.78-.66-.78-.77-.11-1.46,.43-.45,.84-.92,1.31-1.44-.73,.05-1.29,.06-1.86,.12-1.85,.19-3.71,.41-5.56,.59-1.26,.13-2.53,.21-3.8,.33-1.96,.19-3.91,.42-5.86,.61-1.21,.12-2.43,.21-3.64,.34-1.88,.19-3.75,.42-5.63,.61-1.26,.13-2.53,.21-3.8,.34-1.86,.19-3.71,.41-5.56,.6-1.27,.13-2.54,.21-3.8,.34-1.86,.19-3.71,.41-5.57,.6-1.27,.13-2.54,.21-3.8,.33-1.99,.2-3.97,.41-5.95,.62-1.29,.14-2.57,.32-3.86,.43-1.26,.11-2.52,.15-3.85,.23-.62,3.9-1.27,7.96-1.94,12.1,2.25-2.71,3.71-3.35,4.6-2.92-.17,.05-.3,.06-.4,.11-1.59,.89-3.05,1.96-4.26,3.33-.09,.1-.04,.33-.05,.5,.18-.04,.42-.01,.53-.12,.63-.59,1.21-1.24,1.86-1.81,.62-.55,1.31-1.02,1.97-1.53,.08,.09,.15,.18,.23,.27-1.34,1.4-2.68,2.81-4.02,4.21,.42-.06,.89-.14,1.24-.82,.5-.98,2.29-2.2,3.25-2.32-1.08,.91-2.09,1.78-3.27,2.78h1.82c.07-.35,.02-.72,.19-.88,1.07-1.05,2.38-1.66,3.93-1.86-1.04,.85-2.08,1.71-3.16,2.59,.14,.02,.21,.04,.28,.05,.42,0,.84,0,1.25,0,.46-1.2,5.3-3.34,6.91-3.02-2.16,.95-4.27,1.87-6.52,2.86,1.3,0,2.38,.01,3.45,0,.64,0,1.15-.06,1.77-.57,1.44-1.2,3.22-1.87,5.05-2.33,.04,.07,.08,.13,.11,.2-1.43,.85-2.87,1.7-4.31,2.55,.5,0,1,.06,1.49-.02,.5-.08,1.03-.22,1.44-.48,1.49-.95,2.97-1.89,4.73-2.23,.04,.07,.08,.14,.12,.2-1.22,.77-2.44,1.54-3.75,2.37Z"/><path d="M70.11,82.21h.81v2.61c2.31-.25,4.59-.52,6.87-.75,1.83-.19,3.68-.31,5.51-.49,1.86-.18,3.71-.41,5.56-.61,1.27-.13,2.54-.21,3.8-.34,1.91-.19,3.82-.41,5.72-.6,1.24-.13,2.48-.22,3.72-.35,1.96-.2,3.92-.41,5.87-.61,1.27-.13,2.54-.21,3.8-.34,1.91-.19,3.81-.41,5.72-.6,1.24-.13,2.48-.21,3.72-.34,1.96-.2,3.92-.42,5.88-.61,1.21-.12,2.43-.21,3.65-.33,1.99-.2,3.97-.42,5.96-.62,1.19-.12,2.38-.21,3.57-.33,2.04-.2,4.07-.43,6.11-.61,1.04-.09,2.08-.13,3.12-.17,.52-.02,.79,.16,.79,.77,.03,5.32,.09,10.65,.14,15.97,.01,1.34,0,2.68,0,4.02,0,.25-.04,.52-.11,.76-.21,.76-.56,1.09-1.52,1.04-2.3-.1-4.61,.04-6.91,.11-2.98,.09-5.96,.21-8.94,.31-2.95,.1-5.9,.21-8.85,.32-2.9,.1-5.8,.21-8.7,.31-2.95,.11-5.9,.21-8.85,.32-2.95,.11-5.9,.21-8.85,.31-2.95,.1-5.9,.21-8.85,.31-3.08,.11-6.16,.21-9.25,.33-3.72,.14-7.43,.31-11.15,.45-1.12,.04-1.31-.31-1.1-1.45,.37-1.97,.68-3.96,1.01-5.95,.39-2.34,.78-4.67,1.15-7.02,.13-.8,.17-1.62,.28-2.42,.05-.32,.27-.61,.29-.93,.04-.81,.01-1.63,.01-2.5Zm-.81,12.45c1.62-1.5,3.2-2.78,5.36-3.57-.23,.31-.31,.48-.44,.57-1.21,.88-2.39,1.83-3.67,2.61-1.34,.81-1.7,1.97-1.68,3.37,1.19-1.28,2.35-2.56,3.54-3.82,.55-.58,1.01-.68,1.62-.46-.05,.06-.08,.13-.14,.18-.65,.68-1.71,1.04-1.76,2.21,0,.1-.17,.19-.24,.3-1.17,1.55-2.33,3.1-3.5,4.65,.01,.02,.03,.03,.04,.05,1.8-1.39,3.61-2.79,5.41-4.18,.07,.09,.14,.17,.21,.26-1.19,2.14-3.66,2.84-5.48,4.67,1.01-.16,1.85-.13,2.54-.44,1.67-.75,3.25-1.7,4.9-2.48,.56-.27,1.25-.28,1.88-.41,.01,.06,.03,.13,.04,.19-2.01,.9-4.01,1.8-6.06,2.72,1.25,0,2.4,0,3.56,0,.05,0,.1-.03,.14-.05,1.21-.58,2.4-1.19,3.63-1.72,1.07-.46,2.17-.82,3.26-1.22,.03,.07,.05,.14,.08,.2-1.62,1.38-3.81,1.6-5.62,2.63,2.14-.05,4.28-.2,6.41-.31,2.29-.12,4.59-.21,6.88-.32,2.27-.1,4.53-.21,6.8-.31,2.32-.11,4.64-.21,6.96-.32,2.27-.1,4.53-.21,6.8-.31,2.32-.11,4.64-.21,6.96-.32,2.29-.1,4.58-.21,6.88-.31,2.35-.11,4.69-.21,7.04-.32,2.24-.1,4.48-.22,6.72-.31,2.9-.12,5.79-.21,8.69-.33,.45-.02,.89-.13,1.21-.17v-15.58c-1.53,1.53-2.95,2.94-4.37,4.36-.09-.08-.18-.15-.26-.23,.36-.54,.67-1.13,1.1-1.61,.94-1.06,1.93-2.07,2.91-3.09,.46-.48,.77-.97,.27-1.79-1.81,1.68-3.58,3.32-5.34,4.95-.68-.72-.61-.95,.31-1.68,1.19-.94,2.37-1.9,3.55-2.85-.04-.09-.08-.18-.11-.26-.58,.2-1.27,.26-1.72,.61-1.7,1.33-3.33,2.75-4.97,4.13-.7-.39-.61-.77-.09-1.14,.65-.47,1.32-.92,1.97-1.4,.79-.58,1.56-1.17,2.45-1.84-1.13,.1-2.05,.18-2.97,.27-.75,.07-1.41,.2-2.01,.8-1.07,1.07-2.24,2.03-3.41,3.01-.16,.14-.62,.19-.73,.07-.31-.33-.07-.53,.26-.78,1.14-.84,2.23-1.75,3.34-2.63-.26-.15-.46-.17-.66-.15-1.14,.1-2.27,.23-3.41,.32-1.38,.1-2.6,.44-3.6,1.55-.53,.59-1.39,.9-2.1,1.34-.03-.04-.06-.09-.09-.13,.71-.69,1.42-1.38,2.13-2.08-.06-.07-.11-.14-.17-.22-1.36,.12-2.73,.23-4.09,.35-1.03,.09-2.06,.19-3.09,.3-1.96,.2-3.91,.42-5.86,.62-1.19,.12-2.38,.2-3.56,.33-1.85,.19-3.7,.42-5.55,.61-1.29,.13-2.58,.21-3.87,.33-1.96,.19-3.92,.41-5.88,.61-1.19,.12-2.38,.22-3.57,.34-1.91,.2-3.82,.41-5.72,.6-1.24,.13-2.48,.22-3.72,.35-1.88,.19-3.76,.41-5.64,.6-1.27,.13-2.54,.22-3.8,.34-1.89,.18-3.79,.36-5.73,.54-.36,2.22-.74,4.61-1.15,7.21Z"/><path d="M69.67,47.39h.77v2.59c2.1-.19,4.13-.37,6.17-.57,1.83-.19,3.66-.43,5.49-.61,1.86-.19,3.73-.31,5.59-.49,1.83-.18,3.65-.41,5.48-.6,1.21-.13,2.43-.22,3.65-.34,1.99-.2,3.97-.42,5.96-.61,1.21-.12,2.43-.21,3.64-.33,1.96-.2,3.92-.42,5.88-.61,1.27-.13,2.54-.21,3.8-.34,1.91-.19,3.81-.41,5.72-.6,1.27-.13,2.54-.22,3.8-.35,1.93-.19,3.86-.41,5.8-.61,1.27-.13,2.54-.21,3.8-.34,1.93-.19,3.87-.41,5.8-.61,1.11-.11,2.22-.24,3.33-.33,1.5-.12,3.01-.21,4.51-.33,.73-.06,.98,.21,.98,.98,.02,5.59,.09,11.17,.14,16.76,0,.92,.05,1.84-.02,2.75-.04,.58-.21,1.15-.4,1.71-.06,.17-.37,.35-.56,.36-2.56,.06-5.13,.07-7.69,.12-1.12,.02-2.24,.11-3.37,.15-3.32,.11-6.64,.21-9.96,.32-1.38,.05-2.77,.11-4.15,.15-3,.11-6.01,.21-9.01,.32-1.41,.05-2.82,.11-4.23,.16-3,.11-6.01,.21-9.01,.32-2.9,.1-5.8,.21-8.69,.31-3.06,.11-6.11,.21-9.17,.32-4.24,.15-8.47,.31-12.71,.47-1.07,.04-2.15,.12-3.22,.15-.77,.02-1.1-.35-.97-1.12,.44-2.59,.92-5.17,1.37-7.76,.35-2.03,.66-4.07,.99-6.11,.17-1.04,.37-2.08,.48-3.13,.07-.68,.01-1.37,.01-2.15Zm5.44,7.06c.05,.09,.11,.18,.16,.27-.19,.11-.38,.24-.58,.34-1.62,.8-3.25,1.61-4.88,2.39-.52,.25-.74,.63-.81,1.19-.11,.94-.27,1.87-.42,2.87,1.59-1.33,3.07-2.76,5.24-3.39-1.49,1.09-2.88,2.06-4.21,3.11-.58,.46-1.23,.88-1.28,1.84-.06,1.15-.36,2.28-.57,3.5,.43,0,.82,.04,1.21-.01,.45-.06,1-.06,1.3-.33,.86-.75,1.57-1.65,2.41-2.42,1.21-1.11,2.63-1.91,4.2-2.46-1.97,1.72-4.33,2.96-6.17,5.09,1.26-.07,2.33-.12,3.39-.2,.16-.01,.33-.13,.46-.24,.7-.58,1.35-1.23,2.1-1.75,1.22-.85,2.5-1.61,3.75-2.41,.06,.09,.12,.17,.17,.26-1.84,1.34-3.69,2.67-5.67,4.11,1.01-.05,1.8-.08,2.6-.12,1.09-.05,2.19-.1,3.28-.16,.13,0,.29-.08,.38-.17,1.46-1.45,3.31-2.08,5.32-2.34-1.58,.8-3.16,1.6-4.74,2.4,.44,.08,.82-.01,1.2-.03,2.29-.12,4.59-.22,6.88-.32,2.24-.1,4.48-.21,6.72-.31,2.35-.11,4.69-.21,7.04-.32,2.24-.1,4.48-.21,6.72-.31,2.37-.11,4.74-.21,7.11-.32,2.24-.1,4.48-.21,6.72-.31,2.37-.11,4.74-.21,7.12-.32,2.22-.1,4.43-.22,6.65-.31,2.79-.12,5.58-.21,8.38-.32,.56-.02,1.11-.11,1.58-.15v-8.92c-1.61,1.47-3.07,2.8-4.61,4.21,.14-.26,.2-.44,.31-.56,1.3-1.23,2.6-2.45,3.9-3.68,.14-.13,.33-.3,.34-.46,.03-1.14,.02-2.28,.02-3.47-1.59,1.56-3.11,3.04-4.62,4.53-.07-.04-.14-.08-.21-.11,.16-.38,.23-.84,.49-1.11,1.17-1.19,2.4-2.32,3.6-3.49,.27-.27,.67-.57,.7-.88,.1-.87,.03-1.75,.03-2.76-2.01,1.84-3.91,3.57-5.8,5.3-.08-.08-.15-.15-.23-.23,.45-1.42,1.75-2.15,2.76-3.1,1.04-.98,2.13-1.9,3.2-2.85-.04-.1-.08-.19-.13-.29-.62,.11-1.34,.05-1.83,.36-.92,.56-1.72,1.33-2.56,2.03-.99,.83-1.96,1.68-2.94,2.52-.07-.03-.14-.06-.21-.09,.09-.27,.11-.62,.29-.79,.58-.56,1.21-1.07,1.83-1.59,.8-.66,1.61-1.3,2.58-2.08-1.16,.08-2.11,.09-3.03,.23-.48,.07-1,.29-1.39,.58-1.62,1.2-3.2,2.47-4.82,3.69-.16,.12-.43,.11-.66,.16,.05-.24,.09-.49,.17-.73,.03-.08,.17-.11,.25-.18,1.4-1.05,2.8-2.1,4.39-3.3-1.11,.12-2,.21-2.89,.31-.51,.06-1.07,.03-1.5,.25-.52,.27-.93,.75-1.37,1.16-1.2,1.12-2.4,2.25-3.59,3.38-.56-.47-.6-.56-.23-.9,.5-.46,1.03-.89,1.54-1.33,.86-.75,1.71-1.5,2.62-2.29-.64,.04-1.18,.03-1.71,.13-.64,.11-1.28,.14-1.83,.69-.8,.81-1.74,1.5-2.63,2.21-.61,.49-1.23,.96-1.88,1.39-.13,.09-.42-.05-.63-.09,.05-.21,.03-.49,.16-.63,.21-.22,.53-.32,.78-.5,1.19-.86,2.37-1.73,3.55-2.59-.3-.17-.5-.19-.71-.17-1.57,.15-3.14,.31-4.72,.47-1.11,.11-2.22,.21-3.33,.33-1.93,.2-3.86,.42-5.79,.61-1.21,.12-2.43,.21-3.64,.33-1.88,.19-3.75,.42-5.63,.61-1.26,.13-2.53,.21-3.8,.34-1.96,.19-3.92,.41-5.88,.61-1.19,.12-2.38,.22-3.57,.35-1.88,.19-3.76,.41-5.65,.6-1.24,.12-2.48,.21-3.73,.33-1.96,.2-3.92,.42-5.88,.61-1.21,.12-2.43,.23-3.65,.34-1.36,.12-2.71,.24-4.14,.36-.21,1.37-.44,2.92-.68,4.43,2.01-.9,3.91-1.74,5.8-2.59Z"/><path d="M28.72,42.9c4.12-.72,8.2-1.45,12.29-2.15,2.9-.49,5.8-.96,8.71-1.4,1.38-.21,2.77-.38,4.16-.48,.93-.07,1.15,.16,1.08,1.07-.18,2.67-.41,5.33-.61,8-.11,1.45-.21,2.9-.32,4.35-.21,2.72-.51,5.43-.6,8.15-.08,2.46,.03,4.93,.79,7.31,.19,.6-.1,1.93-.55,2.31-.09,.07-.23,.1-.35,.11-.94,.06-1.87,.14-2.81,.16-3.75,.07-7.5,.02-11.24,.19-4.13,.19-8.26,.55-12.21,1.95-1.08,.38-1.73,.07-2.07-1.04-.18-.59-.16-1.26-.14-1.9,.02-.83,.12-1.66,.19-2.49,.21-2.4,.39-4.81,.64-7.21,.28-2.67,.62-5.34,.93-8.01,.25-2.13,.49-4.26,.72-6.4,.02-.18-.15-.39-.13-.57,.04-.46,.13-.92,.23-1.37,.04-.16,.17-.3,.29-.43,.18-.19,.37-.43,.59-.5,.11-.03,.32,.27,.39,.32Zm10.93,25.18c1.22,.21,2.3,.24,2.91-1.1,.21-.46,.58-.86,.93-1.25,.62-.69,1.24-1.42,2.58-1.3-1.05,1.25-1.98,2.37-2.99,3.56,.9,0,1.72-.05,2.52,.02,.74,.06,1.14-.2,1.54-.85,.98-1.6,2.09-3.12,4.07-3.65,0-1.73-.05-3.42,.01-5.11,.11-2.89,.29-5.78,.47-8.67,.05-.78,.19-1.54,.26-2.32,.12-1.3,.22-2.61,.33-4.05-1.51,1.74-2,4.01-3.68,5.58-.1-.24-.24-.4-.21-.54,.1-.66,.06-1.42,.39-1.94,1-1.56,1.74-3.36,3.68-4.39-.26,.03-.34,.04-.42,.05-.13,.01-.26,.03-.39,.03-1.72,0-3.01,.77-3.96,2.16-.79,1.16-1.54,2.34-2.32,3.49-.36,.53-.76,1.05-1.66,1.14,.46-2.68,2.49-4.23,4.05-6.22-.6,.08-1.08,.2-1.57,.21-1.35,.03-2.4,.51-3.07,1.77-.49,.93-1.11,1.79-1.69,2.67-.4,.6-.56,.56-1.01,.03-.36-.42-.25-.77,0-1.12,.27-.38,.6-.72,.89-1.09,.4-.51,.8-1.02,1.2-1.53-.04-.06-.08-.12-.12-.19-4.71,.92-9.42,1.84-14.16,2.77-.28,3.21-.57,6.5-.86,9.79,.89-.97,1.43-2.23,3.06-2.09-.65,1.1-1.38,2.13-2.13,3.13-.37,.49-1.03,.9-1.14,1.44-.23,1.09-.18,2.23-.25,3.53,2.6-3.3,2.85-3.53,3.95-3.53-1.45,2.1-3.23,3.98-4.2,6.4,1-1.16,2.03-2.23,3.68-2.6-.1,.22-.13,.4-.23,.52-.93,1.05-1.86,2.11-2.82,3.13-.86,.92-.94,1.11-.71,2.15,1.38-2.17,3.97-3.9,5.34-4.34-.77,1.09-1.53,2.17-2.3,3.26,.09,.03,.17,.07,.26,.1-.05,.99-.84,1.7-1.33,2.63,.63-.17,1.2-.29,1.75-.47,.24-.08,.47-.27,.63-.47,1.01-1.28,1.98-2.6,3.01-3.87,.48-.59,1.12-.95,2.17-.6-1.44,1.51-2.82,2.96-4.21,4.4,.05,.06,.1,.13,.14,.19,.63-.11,1.26-.19,1.88-.34,.29-.07,.58-.25,.79-.45,1.2-1.16,2.34-2.39,3.59-3.49,.53-.46,1.27-.68,1.92-1.01,.04,.07,.08,.14,.11,.21-.96,2.07-3.21,2.87-4.5,4.45,.59,0,1.25,.07,1.87-.03,.35-.05,.74-.32,.95-.61,.41-.56,.67-1.23,1.05-1.81,.52-.8,1.16-1.48,2.1-1.78,.07,.05,.15,.11,.22,.16-.79,1.28-1.58,2.55-2.37,3.84Zm11.5-4.07c-1.17,1.27-2.38,2.57-3.65,3.95,1.54-.08,2.91-.15,4.24-.21-.22-1.38-.41-2.62-.59-3.74Z"/><path d="M27.56,79.19c.26,.05,.54,.17,.78,.13,3.9-.72,7.8-1.48,11.7-2.18,2.51-.45,5.03-.86,7.56-1.24,1.74-.26,3.49-.49,5.24-.64,1.04-.09,1.24,.13,1.18,1.13-.17,2.64-.4,5.28-.61,7.92-.11,1.42-.22,2.85-.33,4.28-.21,2.74-.48,5.48-.6,8.23-.06,1.53,.07,3.07,.24,4.6,.11,1.01,.57,1.99,.62,3,.03,.66-.38,1.35-.62,2.02-.03,.07-.21,.12-.33,.13-.83,.06-1.66,.14-2.49,.16-3.85,.07-7.71,.02-11.55,.19-4.13,.18-8.26,.55-12.21,1.94-1.15,.4-2.03-.09-2.16-1.31-.12-1.18-.07-2.38,0-3.57,.09-1.42,.29-2.83,.44-4.25,.2-1.83,.41-3.65,.61-5.48,.12-1.11,.22-2.22,.34-3.33,.2-1.82,.41-3.65,.62-5.47,.14-1.23,.3-2.46,.44-3.69,.02-.14-.08-.29-.12-.44-.05-.15-.12-.29-.14-.43-.08-.71,.62-1.74,1.34-1.98,.02,.09,.04,.18,.06,.28Zm23.8,.54c-1.57,1.74-2.01,4.07-3.74,5.6-.34-.96-.3-1.79,.23-2.55,1.06-1.51,1.76-3.32,3.65-4.33-.35,.04-.52,.09-.7,.08-1.78-.03-3.12,.77-4.09,2.21-.77,1.14-1.49,2.31-2.29,3.42-.35,.49-.87,.86-1.32,1.28-.1-.09-.21-.18-.31-.27,.42-2.54,2.46-4.08,4.05-6.11-.91,.15-1.66,.36-2.42,.39-.83,.04-1.37,.36-1.8,1.06-.66,1.07-1.37,2.11-2.1,3.14-.16,.23-.49,.34-.75,.5-.23-.39-.79-.68-.4-1.27,.1-.15,.19-.31,.3-.45,.63-.8,1.27-1.59,1.9-2.39-.04-.06-.08-.12-.11-.19-4.73,.92-9.45,1.85-14.17,2.77-.29,3.25-.57,6.52-.87,9.94q2.1-2.41,3.22-2.25c-.79,1.1-1.52,2.13-2.27,3.14-.38,.52-1.04,.95-1.16,1.51-.23,1.06-.17,2.19-.24,3.43q2.85-3.44,3.96-3.51c-1.46,2.11-3.24,4-4.23,6.42,1.02-1.15,2.04-2.26,3.72-2.6-.11,.23-.15,.39-.25,.5-.93,1.05-1.87,2.1-2.82,3.14-.57,.62-1.09,1.23-.74,2.24,1.27-2.11,3.2-3.36,5.16-4.59l.19,.16c-.76,1.08-1.53,2.17-2.27,3.21,.56,.54-.03,.91-.2,1.3-.23,.49-.56,.93-.91,1.49,.46-.13,.8-.28,1.14-.3,.74-.06,1.13-.49,1.55-1.07,.93-1.28,1.97-2.48,2.99-3.7,.45-.54,1.04-.59,1.92-.36-1.48,1.54-2.86,2.97-4.24,4.4,.05,.06,.09,.13,.14,.19,.78-.12,1.56-.23,2.34-.35,.07-.01,.11-.16,.18-.23,.91-.97,1.79-1.98,2.75-2.9,.84-.8,1.79-1.46,3.11-1.74-1.04,2.21-3.28,3.02-4.58,4.59,.61,0,1.29,.06,1.94-.03,.32-.05,.69-.32,.88-.6,.4-.57,.67-1.23,1.04-1.81,.52-.81,1.18-1.48,2.11-1.8l.22,.15c-.79,1.29-1.58,2.57-2.41,3.93,.44,0,.76-.05,1.07,0,.78,.14,1.23-.23,1.66-.84,.56-.81,1.2-1.57,1.86-2.3,.5-.55,1.03-.67,1.79-.47-.98,1.15-1.9,2.25-2.91,3.44,.93,0,1.76-.05,2.59,.02,.72,.06,1.09-.22,1.47-.83,.98-1.6,2.09-3.12,4.09-3.66-.06-.57-.17-1.11-.16-1.65,.02-1.2,.09-2.4,.15-3.6,.1-2.22,.2-4.43,.32-6.64,.04-.73,.11-1.45,.18-2.18,.19-1.98,.39-3.96,.6-6.09Zm-.57,24.39c-.22-1.4-.41-2.63-.59-3.74-1.16,1.26-2.37,2.58-3.64,3.97,1.54-.08,2.9-.15,4.23-.23Z"/><path d="M27.5,115.54c3.92-.72,7.83-1.5,11.77-2.16,3.28-.55,6.59-.97,9.89-1.44,1.15-.16,2.3-.37,3.46-.45,.93-.07,1.15,.16,1.09,1.07-.18,2.67-.41,5.33-.61,8-.11,1.42-.22,2.85-.32,4.28-.21,2.74-.49,5.48-.6,8.23-.06,1.55,.11,3.12,.28,4.66,.11,.96,.48,1.9,.58,2.86,.05,.53-.2,1.09-.34,1.63-.19,.76-.81,.58-1.34,.59-4.5,.11-9,.12-13.49,.34-4.13,.2-8.25,.57-12.2,1.99-1.02,.37-1.89-.22-2.01-1.38-.11-1.18-.05-2.38,0-3.57,.04-.8,.2-1.59,.28-2.39,.27-2.47,.53-4.94,.78-7.42,.17-1.73,.3-3.46,.49-5.19,.23-2.05,.53-4.1,.75-6.15,.06-.56-.11-1.14-.09-1.71,.02-.41,.17-.83,.29-1.23,.05-.16,.18-.3,.3-.42,.18-.19,.36-.43,.59-.5,.11-.04,.33,.26,.44,.35Zm14.31,25.06c.95,0,1.79-.06,2.62,.02,.7,.06,1.06-.22,1.41-.8,1-1.62,2.11-3.16,4.1-3.7-.06-.62-.17-1.19-.15-1.76,.08-2.17,.19-4.33,.3-6.49,.09-1.8,.2-3.59,.32-5.38,.06-.83,.19-1.65,.27-2.48,.12-1.3,.21-2.59,.32-4.04-1.51,1.76-2,4.01-3.81,5.7,0-.82-.21-1.53,.04-1.99,.97-1.85,1.92-3.76,3.75-4.94-1.97-.12-3.56,.62-4.67,2.31-.74,1.12-1.45,2.27-2.21,3.38-.36,.52-.75,1.06-1.66,1.1,.49-2.65,2.48-4.22,4.11-6.24-.92,.16-1.65,.37-2.39,.39-.86,.03-1.42,.36-1.87,1.09-.64,1.06-1.35,2.07-2.05,3.08-.16,.23-.53,.58-.65,.53-.27-.13-.57-.44-.61-.71-.05-.28,.13-.65,.31-.9,.64-.85,1.32-1.66,1.99-2.48-.03-.07-.07-.13-.1-.2-4.73,.92-9.45,1.85-14.2,2.77-.28,3.22-.57,6.51-.86,9.79,.89-.98,1.43-2.23,3.05-2.08-.65,1.1-1.43,2.1-2.12,3.15-.46,.7-1.34,1.13-1.24,2.21,.08,.84-.1,1.7-.16,2.56,1.15-1.42,1.99-3.01,4.04-3.49-1.52,2.22-3.32,4.1-4.28,6.53,.99-1.16,2.03-2.22,3.69-2.6-.11,.24-.16,.42-.26,.54-.93,1.05-1.86,2.1-2.82,3.13-.84,.9-.95,1.2-.68,2.13,1.13-1.96,4.12-4.07,5.24-4.42-.02,.11-.03,.22-.07,.31-.62,1.28-1.97,2.12-2.07,3.76-.04,.66-.71,1.28-1.14,2,.62-.17,1.2-.3,1.75-.49,.24-.08,.47-.27,.63-.47,1.01-1.28,1.99-2.6,3.02-3.87,.48-.59,1.11-.95,2.15-.57-1.44,1.5-2.82,2.95-4.2,4.39,.05,.07,.1,.13,.15,.2,.53-.09,1.05-.26,1.58-.26,.67,0,.92-.45,1.33-.85,1.29-1.25,2.65-2.43,4.02-3.59,.34-.28,.84-.38,1.26-.56-.88,2.23-3.12,3.04-4.48,4.69,.62-.03,1.21-.09,1.8-.08,.56,.01,.93-.2,1.17-.71,.29-.61,.62-1.19,.96-1.77,.52-.89,1.38-1.55,2.4-1.73-.87,1.42-1.66,2.69-2.5,4.05,.39,0,.68-.04,.95,0,.86,.16,1.4-.21,1.83-.94,.32-.56,.73-1.08,1.17-1.56,.59-.67,1.21-1.35,2.52-1.22-1.05,1.25-1.98,2.34-3,3.56Zm8.07-4c-1.16,1.26-2.37,2.57-3.66,3.97,1.54-.09,2.92-.16,4.25-.24-.22-1.38-.41-2.62-.59-3.74Z"/><path d="M51.15,64c.18,1.11,.37,2.35,.59,3.74-1.33,.07-2.71,.14-4.24,.21,1.28-1.38,2.48-2.68,3.65-3.95Z" fill="#fff"/><path d="M50.79,104.12c-1.33,.07-2.7,.14-4.23,.23,1.28-1.39,2.48-2.71,3.64-3.97,.17,1.11,.37,2.34,.59,3.74Z" fill="#fff"/><path d="M49.89,136.6c.18,1.12,.37,2.36,.59,3.74-1.33,.07-2.7,.15-4.25,.24,1.29-1.4,2.5-2.72,3.66-3.97Z" fill="#fff"/><path d="M68.8,132.69c.91-1.23,2-2.25,3.4-2.94,.06,.06,.12,.13,.18,.19-1.11,1-2.21,2-3.32,3-.09-.08-.17-.16-.26-.25Z"/><path d="M148.01,87.62c.27,1.02-1.52,3.15-3.28,3.67,1.16-1.29,2.23-2.49,3.28-3.67Z"/><path d="M147.93,84.41c-1.11,1.31-2.18,2.57-3.38,3.99,0-.9,2.53-3.71,3.38-3.99Z"/><path d="M68.49,66.24c-.2-1.08,2.85-4.55,4.69-5.32-1.58,1.79-3.13,3.55-4.69,5.32Z"/><path d="M48.16,54.62c-.49-2.21,1.55-6.32,3.45-7.16-1.2,2.48-2.33,4.82-3.45,7.16Z"/><path d="M50.37,120.04c-1.22,2.53-2.34,4.86-3.47,7.2-.58-2.01,1.47-6.22,3.47-7.2Z"/></svg>