<?xml version="1.0" encoding="UTF-8"?><svg id="Calque_1" xmlns="http://www.w3.org/2000/svg" viewBox="0 0 173.84 178.2"><path d="M43.12,93.73c.05-10.8,2.94-20.8,8.48-30.05,2.64-4.4,5.37-8.74,8.78-12.6,3.14-3.55,6.89-6.2,11.43-7.69,1.78-.58,3.47-1.48,5.28-1.91,4.98-1.18,10.04-1.49,15.14-1.06,4.76,.4,9.44,1.17,14.02,2.59,9.32,2.88,16.72,8.25,22.15,16.44,4.82,7.26,7.66,15.16,8.7,23.77,1.12,9.3-.04,18.33-3.2,27.1-1.58,4.41-4.22,8.21-7.29,11.72-3.84,4.39-8.13,8.23-13.33,10.95-5.72,3-11.78,4.92-18.23,5.51-7.11,.66-14.02-.45-20.83-2.38-4.47-1.26-8.77-2.95-12.66-5.54-5.5-3.66-9.7-8.51-12.86-14.27-3.87-7.03-5.62-14.59-5.58-22.59Zm3.47,.03c.16,2.17,.23,4.35,.5,6.51,.62,5,2.2,9.71,4.6,14.14,2.86,5.3,6.67,9.76,11.7,13.14,3.6,2.42,7.58,3.96,11.72,5.15,6.84,1.95,13.78,3.01,20.91,2.14,5.28-.64,10.25-2.28,14.99-4.65,5.04-2.52,9.16-6.17,12.85-10.36,3.13-3.56,5.74-7.45,7.2-11.98,2.67-8.29,3.63-16.76,2.37-25.44-.99-6.79-3.04-13.18-6.72-19.02-2.54-4.03-5.36-7.84-9.18-10.77-4.82-3.69-10.3-5.94-16.18-7.28-.73-.16-1.46-.53-2.23-.07-.13,.08-.39-.06-.58-.1-.48-.11-.96-.31-1.45-.33-4.82-.13-9.61,.04-14.36,1.03-5.3,1.12-10.18,3.22-14.75,6.11-.24,.15-.43,.38-.61,.59-.23,.27-.38,.62-.64,.83-1.59,1.25-3.26,2.39-4.79,3.71-2.31,1.99-4.8,3.83-6.27,6.64-.33,.62-.72,1.21-1.08,1.81-5.2,8.68-7.91,18.05-8,28.19Z"/><path d="M81.85,78.61c-4.04,0-8.08,.05-12.11-.03-1.04-.02-2.12-.3-3.1-.68-1.78-.69-2.16-2.17-1.07-3.72,.25-.35,.56-.66,.81-1.01,.21-.29,.41-.59,.54-.91,.31-.82,.9-1.41,1.68-1.7,1.73-.65,3.48-1.32,5.27-1.75,4.13-.98,8.35-1.49,12.59-1.67,4.33-.17,8.66-.29,12.99-.25,4.17,.04,8.34,.37,12.4,1.47,1.29,.35,2.47,.9,3.39,1.9,.81,.87,.9,1.99,.02,2.78-.64,.57-1.42,1.09-2.23,1.34-4.74,1.49-9.56,2.64-14.48,3.41-5.55,.87-11.13,.78-16.7,.81Zm7.45-2.71s.03,.1,.05,.15c.31-.02,.63-.03,.94-.06,2.53-.22,5.06-.43,7.59-.68,2.84-.29,5.7-.5,8.51-.98,1.86-.32,3.66-1.01,5.45-1.63,.45-.16,.77-.7,1.15-1.06-.46-.26-.92-.52-1.38-.77-.03-.02-.08,.02-.16,.04-.22,.37-.4,.8-.69,1.13-.17,.19-.5,.23-.77,.34-.05-.28-.19-.59-.13-.84,.08-.35,.32-.66,.52-1.04-.56-.12-1.02-.23-1.48-.32-1.84-.35-1.87-.34-2.77,1.36-.19,.35-.44,.71-.81,.45-.18-.12-.23-.65-.14-.93,.14-.44,.44-.82,.68-1.23-1.03-.4-1.87-.25-2.51,.67-.3,.42-.63,.83-1.01,1.19-.18,.17-.49,.2-.74,.29-.06-.27-.24-.57-.16-.79,.11-.33,.39-.6,.61-.88,.2-.25,.44-.49,.73-.8-.63-.06-1.13-.09-1.62-.15-.42-.05-.68,.08-.83,.49-.23,.64-.49,1.27-.77,1.89-.15,.33-.34,.73-.8,.53-.45-.19-.3-.6-.18-.95,.24-.65,.5-1.29,.82-2.09-.83,0-1.53,0-2.23,0-5.72-.05-11.44,.18-17.11,.98-2.86,.4-5.69,1.07-8.51,1.74-1.03,.25-2.05,.74-2.94,1.33-1.23,.82-.98,2.31,.39,2.88,.42,.17,.88,.23,1.3,.38,.58,.2,.99,.06,1.42-.41,.48-.54,1.06-1,1.64-1.42,.17-.12,.51,0,.78,.02-.05,.26-.03,.56-.16,.78-.13,.22-.4,.36-.6,.54-.25,.23-.5,.46-.86,.79,1.38,.16,2.61,.49,3.4-.89,.13-.23,.37-.41,.59-.56,.46-.33,.92-.66,1.42-.91,.15-.07,.54,.05,.62,.19,.08,.15-.01,.48-.14,.64-.16,.2-.44,.31-.65,.48-.42,.34-.83,.7-1.33,1.13,1.32,.17,2.32,.11,3.12-.96,.48-.65,1.24-1.11,1.93-1.59,.16-.11,.51,.04,.78,.07-.06,.26-.06,.57-.21,.77-.18,.24-.5,.39-.74,.59-.35,.29-.68,.6-1.02,.91,1.39-.02,2.79,.29,3.84-.84,.06-.06,.15-.12,.23-.14,.29-.08,.67-.27,.87-.16,.19,.11,.21,.54,.31,.85,1.24,.06,1.5-.04,2.46-.84,.63-.52,1.25-1.05,1.93-1.5,.22-.14,.59-.04,.89-.06-.08,.3-.08,.67-.27,.87-.36,.39-.82,.69-1.24,1.03Z"/><path d="M84.14,96.58c-4.04,0-8.08,.04-12.11-.03-1-.02-2.03-.28-2.97-.64-1.89-.71-2.28-2.22-1.11-3.85,1.01-1.39,2.29-2.52,3.89-3.1,2.64-.95,5.29-1.93,8.02-2.5,2.42-.5,4.95-.59,7.44-.64,4.72-.09,9.44,.07,14.16-.06,3.85-.11,7.66,.1,11.48,.45,1.64,.15,3.12,.7,4.39,1.81,1.08,.94,1.21,2.17,.14,3.11-.64,.56-1.45,1.04-2.27,1.29-8.38,2.6-16.93,4.25-25.75,4.17-1.77-.02-3.54,0-5.31,0,0,0,0-.01,0-.02Zm-9.32-1.44c1.14,.15,2.09,.36,2.91-.45,.28-.28,.69-.43,1.05-.63,.33-.18,.75-.36,.92,.1,.08,.2-.2,.55-.37,.81-.09,.13-.27,.2-.49,.35,.91,.16,1.6,.17,2.24-.55,.55-.61,1.28-1.07,1.98-1.53,.16-.11,.51,.07,.77,.12-.07,.24-.07,.53-.22,.71-.18,.22-.47,.35-.7,.53-.29,.22-.56,.46-1,.83,.58,0,.94-.03,1.3,0,.57,.05,.93-.17,1.32-.6,.66-.74,1.43-1.38,2.19-2.03,.29-.25,.71-.47,1.02-.05,.33,.44-.08,.68-.38,.93-.6,.5-1.19,1.01-1.78,1.52,.02,.06,.05,.11,.07,.17,.4,0,.79-.02,1.19,0,.38,.02,.53-.19,.78-.45,.85-.87,1.79-1.64,2.74-2.4,.11-.09,.54,0,.64,.14,.1,.14,.04,.51-.08,.65-.27,.3-.63,.51-.94,.77-.42,.34-.82,.7-1.38,1.17,.4,0,.55,0,.71,0,5.58-.24,11.14-.7,16.66-1.59,2.68-.43,5.32-1.09,7.97-1.72,.64-.15,1.28-.51,1.79-.92,.96-.77,.74-2.13-.37-2.6-.43-.18-.89-.28-1.34-.41-.1,.16-.17,.27-.23,.39-.38,.75-.73,1.51-1.15,2.23-.13,.21-.48,.29-.74,.42-.08-.28-.22-.55-.23-.83,0-.21,.16-.42,.26-.62,.31-.6,.62-1.2,.97-1.87-.48-.06-.88-.1-1.28-.17-.43-.07-.68,.03-.88,.49-.33,.77-.74,1.51-1.19,2.21-.13,.2-.5,.26-.75,.38-.07-.29-.28-.63-.2-.87,.15-.46,.5-.86,.7-1.31,.13-.3,.13-.66,.18-.93-1.16-.39-1.81-.03-2.23,.9-.28,.62-.6,1.22-.98,1.79-.12,.19-.47,.23-.72,.33-.09-.25-.3-.54-.24-.74,.12-.43,.37-.82,.59-1.22,.22-.41,.46-.8,.7-1.21-.66-.22-1.08,0-1.43,.46-.51,.69-1.05,1.37-1.57,2.05-.3,.39-.63,.97-1.18,.57-.58-.43-.06-.88,.24-1.26,.48-.61,.98-1.2,1.56-1.9-.56,0-.95-.02-1.33,0-.14,0-.32,.07-.39,.18-.59,.83-1.17,1.67-1.74,2.51-.15,.22-.21,.53-.4,.7-.17,.16-.45,.19-.69,.27-.08-.22-.26-.46-.21-.64,.11-.41,.3-.81,.52-1.17,.35-.59,.76-1.15,1.17-1.79-.28,0-.48,0-.68,0-6.03,.2-12.06,.57-18.03,1.46-3.2,.48-6.36,1.21-9.53,1.9-.64,.14-1.28,.49-1.83,.86-1.07,.72-1.05,1.95,.06,2.6,.62,.35,1.34,.52,2.03,.73,.13,.04,.34-.11,.49-.21,.71-.49,1.39-1.01,2.12-1.46,.18-.11,.52,.03,.79,.06-.09,.27-.11,.62-.29,.79-.39,.36-.87,.63-1.48,1.05Z"/><path d="M83.21,114.97c-4.04,0-8.08,.05-12.11-.03-1.04-.02-2.12-.3-3.1-.68-1.78-.69-2.16-2.17-1.06-3.72,1-1.43,2.3-2.58,3.92-3.16,2.66-.96,5.34-1.95,8.09-2.52,2.4-.5,4.91-.58,7.37-.63,4.67-.09,9.35,.07,14.02-.06,3.89-.11,7.75,.08,11.62,.45,1.66,.16,3.17,.71,4.44,1.84,1.04,.93,1.17,2.14,.13,3.06-.64,.57-1.45,1.05-2.26,1.3-8.34,2.59-16.84,4.24-25.61,4.18-1.82-.01-3.63,0-5.45,0,0,0,0-.01,0-.02Zm-8.01-1.61l.13,.24c.49,0,.99-.03,1.48,0,.44,.03,.66-.16,.93-.5,.6-.76,1.27-1.47,1.97-2.14,.16-.16,.58-.04,.89-.05-.07,.28-.1,.57-.21,.83-.07,.15-.27,.24-.39,.37-.41,.43-.81,.86-1.35,1.43,3.57-.19,6.9-.34,10.22-.56,4.75-.32,9.5-.69,14.25-1.03,2.4-.17,4.82-.22,7.13-.97,1.44-.46,2.88-.95,4.25-1.59,1.06-.5,1.18-1.32,.51-2.26-.09,.22-.17,.43-.27,.63-.25,.51-.47,1.04-.79,1.5-.13,.18-.48,.21-.73,.31-.05-.26-.17-.53-.14-.78,.03-.26,.23-.49,.33-.74,.21-.52,.44-1.04,.6-1.58,.04-.13-.12-.33-.19-.5-.15,.09-.35,.15-.43,.29-.29,.46-.49,.98-.82,1.4-.15,.19-.52,.2-.79,.29-.04-.27-.16-.55-.1-.79,.06-.27,.33-.5,.41-.77,.07-.25,.04-.76,0-.76-.36-.06-.79-.25-.94,.39-.1,.45-.43,.84-.64,1.27-.17,.34-.45,.62-.79,.39-.18-.12-.23-.59-.16-.85,.11-.41,.37-.78,.57-1.17-.05-.04-.1-.09-.15-.13-.17,.13-.38,.24-.52,.4-.48,.6-.9,1.25-1.41,1.83-.15,.17-.5,.15-.76,.22-.05-.25-.17-.5-.13-.74,.03-.2,.23-.38,.36-.56,.26-.35,.53-.7,.81-1.08-.9-.22-1.48-.08-1.93,.74-.49,.88-1.18,1.66-1.84,2.44-.15,.18-.54,.15-.82,.21,0-.3-.04-.61,0-.91,.03-.15,.22-.28,.33-.42,.52-.67,1.03-1.35,1.63-2.15-.92,0-1.66-.01-2.4,.01-.14,0-.33,.15-.4,.28-.36,.65-.68,1.32-1.02,1.99-.18,.35-.38,.75-.86,.52-.44-.21-.31-.6-.15-.95,.25-.57,.51-1.14,.79-1.75-.18-.01-.27-.03-.36-.02-5.31,.2-10.61,.34-15.91,.65-2.59,.15-5.19,.53-7.75,.94-2.63,.43-5.15,1.28-7.38,2.81-.44,.3-.85,.69-1.18,1.11-.44,.56-.37,1.18,.06,1.63,.47-.62,.91-1.28,1.42-1.86,.23-.27,.68-.46,.93-.05,.11,.17-.09,.59-.24,.84-.35,.58-.77,1.13-1.18,1.72,.56,.26,.83,.25,1.08-.21,.21-.38,.57-.69,.9-1,.28-.26,.63-.58,.99-.17,.36,.4,0,.7-.28,.97-.19,.17-.37,.34-.65,.6,.99,.15,1.65,.13,2.28-.68,.74-.95,1.73-1.7,2.66-2.49,.28-.24,.77-.33,1,.13,.22,.44-.19,.61-.48,.84-.81,.64-1.59,1.32-2.38,1.98Z"/></svg>