<?xml version="1.0" encoding="UTF-8"?><svg id="Calque_1" xmlns="http://www.w3.org/2000/svg" viewBox="0 0 173.84 178.2"><circle id="Ellipse_36" cx="84.54" cy="89.1" r="29.8" fill="#2a2b2b"/><circle id="Ellipse_37" cx="84.54" cy="89.1" r="16.89" fill="#fff"/><path id="Tracé_158" d="M93.76,80.14l1.36,1.36-1.7,1.67-1.38,1.69-1.7,2.36-2.74,4.73-2.39,4.73-1.38,2.36-1.36,2.71-2.05-.35,1.36-2.36,1.02-2.36,1.02-2.37,1.02-2.36,1.71-3.37,2.39-3.04,2.05-2.71,2.74-2.7Z" fill="#2a2b2b" fill-rule="evenodd"/><path id="Tracé_159" d="M96.49,84.54l.34,2.36-.34,2.36-.69,2.37-1.02,2.36-1.36,2.03-2.05,2.03-2.05,1.69-2.39,1.35,.69-2.03,4.43-8.44,4.44-6.08Z" fill="#2a2b2b" fill-rule="evenodd"/><path id="Tracé_160" d="M88.3,77.78l2.39,.68,2.05,1.01-2.39,1.67-2.39,2.03-2.05,2.37-2.05,2.36-1.7,2.36-2.05,3.39-1.38,3.04-.67,1.67-.35,1.69-1.36-1.01-1.02-1.35,.69-3.04,1.36-3.04,1.71-2.71,2.05-2.71,3.4-3.7,2.05-2.71,1.71-2.02Z" fill="#2a2b2b" fill-rule="evenodd"/><path id="Tracé_161" d="M84.54,76.43l.34,.66-1.36,1.01-1.71,1.01-2.72,3.04-2.39,3.39-2.05,3.04-2.05,3.71-.34-1.67v-3.4l.69-1.67,.67-1.36,2.05-3.04,2.39-2.36,1.7-1.01,1.38-.68,1.7-.33,1.71-.34Z" fill="#2a2b2b" fill-rule="evenodd"/></svg>