<?xml version="1.0" encoding="UTF-8"?><svg id="Calque_1" xmlns="http://www.w3.org/2000/svg" viewBox="0 0 173.84 178.2"><path d="M82.75,128.81c-1.98,.04-3.95,.16-5.93,.1-4.1-.12-8.2-.37-12.3-.51-2.62-.08-5.16-.57-7.7-1.14-.5-.11-1.04-.13-1.55-.11-.69,.03-1.33-.15-1.98-.35-.64-.2-1.29-.4-1.93-.58-1.09-.3-2.14-.67-3.13-1.23-.78-.45-1.6-.83-2.38-1.27-.79-.45-1.4-1.11-1.97-1.82-1.31-1.65-2.29-3.46-2.65-5.56-.11-.61-.16-1.24-.21-1.86-.52-6.57-.34-13.15-.24-19.73,.05-3.1,.19-6.2,.38-9.3,.33-5.49,.71-10.99,1.36-16.45,.58-4.9,1.95-9.55,4.54-13.79,.61-1,1.12-2.07,1.75-3.06,.39-.6,.93-1.1,1.41-1.64,.25-.28,.54-.52,.79-.8,1.01-1.11,2.25-1.79,3.72-2.11,1.89-.42,3.82-.48,5.74-.61,4.21-.27,8.4,.04,12.6,.25,2.25,.11,4.5,.02,6.75,.02,2.5,0,5,0,7.5,0,1.17,0,2.35-.09,3.52-.02,1.12,.07,2.22,.31,3.33,.46,.47,.06,.94,.11,1.42,.13,4.02,.23,8.05,.41,12.06,.67,4.39,.29,8.78,.65,13.14,1.3,2.38,.35,4.39,1.45,6.09,3.16,.19,.19,.42,.36,.64,.51,.9,.59,1.58,1.37,2.12,2.29,1.11,1.91,1.51,4,1.71,6.17,.45,5.01,.51,10.04,.56,15.07,.03,2.49,.38,4.93,.7,7.39,.58,4.46,1.41,8.9,1.6,13.41,.09,2.27-.05,4.55-.1,6.82-.06,2.38-.36,4.73-.95,7.05-.78,3.05-1.98,5.93-3.43,8.7-.31,.59-.71,1.15-1.1,1.7-1.61,2.27-3.81,3.53-6.58,3.88-2.55,.32-5.09,.76-7.64,1.11-1.56,.21-3.13,.36-4.69,.53-1.64,.18-3.28,.35-4.92,.51-1.12,.1-2.24,.22-3.37,.25-5.48,.12-10.96,.22-16.43,.33-.75,.02-1.5,.07-2.25,.1,0,.01,0,.02,0,.03Zm-36.11-56.45c.38,0,.72,.01,1.07,0,2.2-.1,4.4-.19,6.59-.3,1.05-.05,2.1-.18,3.14-.2,2.52-.04,5.06-.13,7.57,0,3.07,.15,6.13,.4,9.21,.28,5.92-.23,11.85-.4,17.78-.46,4.11-.05,8.19-.46,12.27-.85,4.43-.42,8.87-.75,13.33-.74,1.2,0,2.4,.07,3.6,.15,1.22,.08,2.44,.2,3.66,.29,.44,.03,.88,0,1.34,0-.02-.25-.02-.42-.05-.6-.17-1.09-.33-2.17-.51-3.26-.26-1.58-.48-3.16-.8-4.73-.39-1.96-1.54-3.26-3.42-4.03-3.17-1.3-6.48-2.02-9.81-2.67-2.41-.47-4.87-.49-7.32-.59-4.35-.19-8.7-.31-13.05-.45-1.1-.04-2.2-.05-3.3-.02-2.7,.08-5.4,.28-8.1,.28-3.32,0-6.65-.16-9.97-.26-.45-.01-.9-.06-1.35-.07-1.47-.01-2.95-.08-4.42,0-1.67,.1-3.33,.33-5,.52-1.57,.18-3.12,.42-4.61,.96-2.22,.82-3.96,2.12-4.84,4.46-1.22,3.24-2.08,6.57-2.83,9.94-.17,.75-.28,1.51-.19,2.34Zm36.18,53.69c-.17-3.06-.38-6.12-.48-9.19-.11-3.09-.03-6.18-.23-9.23-1.16-.07-2.26-.14-3.36-.19-.76-.03-1.54-.15-2.24,.33-.19,.13-.48,.12-.73,.12-1.85,0-3.7-.02-5.55,0-1.57,0-3.14,.04-4.72,.07-.47,0-.95,.12-1.32-.32-.09-.1-.33-.1-.5-.1-.62-.02-1.25-.04-1.88-.04-.16,0-.33,.05-.49,.07-.02,.14-.05,.24-.06,.34-.15,1.67-.3,3.34-.43,5.01-.05,.65-.06,1.3-.05,1.95,.01,.52,.15,1.04,.15,1.55,0,2.73,0,5.45-.01,8.18,0,.25,0,.49,0,.72,1.78,.65,19.74,1.26,21.89,.76Zm22.96-.64c0-.14-.38-18.33-.38-18.37-1,0-1.99,0-2.99,0-.12,0-.28,.02-.34,.1-.36,.43-.84,.38-1.31,.37-2.27-.05-4.54-.14-6.82-.14-2.93,0-5.85,.08-8.78,.13-.14,0-.29,.03-.5,.05,.11,6.2,.18,12.36,.71,18.55,.34,0,.59,0,.84,0,1.8-.03,3.6-.04,5.4-.09,3.75-.1,7.5-.21,11.25-.34,.97-.03,1.93-.17,2.93-.27Zm2.53-.3c.57-.06,1.08-.12,1.6-.16,3.42-.28,6.8-.8,10.18-1.36,.32-.05,.64-.15,.92-.29,2.18-1.06,3.91-2.59,4.97-4.8,1.25-2.61,2-5.38,2.72-8.17,.29-1.13,.43-2.3,.47-3.46-.75-.17-20.56,.07-21.16,.25-.3,5.97,.17,11.93,.3,17.99Zm-2.63-36.43c.13-2.69,.21-5.26,.4-7.83,.19-2.56,.49-5.11,.76-7.75-7.1,.54-14.15,1.46-21.27,2.01-.23,4.74-.95,9.38-1.19,14.07,7.14-.17,14.18-.34,21.3-.51Zm-22.45-13.55c-6.95,.02-13.83-.55-20.71-.91-.12,0-.23,.03-.38,.06,.01,.15,0,.28,.04,.39,.41,1.51,.38,3.01,.06,4.53-.1,.49-.23,.98-.26,1.47-.16,2.92-.3,5.84-.43,8.76,0,.11,.05,.23,.08,.39,.22,0,.42,0,.62,0,3.47-.07,6.95-.12,10.42-.21,1.55-.04,3.1-.17,4.64-.22,.82-.03,1.63-.1,2.46,.06,.66,.12,1.38,.06,2-.13,.49-4.75,.97-9.44,1.46-14.2Zm26.23-2.2c-.15,.51-.38,.98-.42,1.46-.2,2.49-.36,4.99-.52,7.48-.09,1.47-.17,2.95-.24,4.42-.03,.74,0,1.48,0,2.27,.44,0,.86,0,1.28,0,1.13-.03,2.25-.11,3.37-.08,3.83,.1,7.64-.32,11.46-.56,1.23-.08,2.5-.3,3.64,.5,.03-.12,.07-.19,.06-.25-.14-1.11-.21-2.24-.43-3.34-.38-1.87-.72-3.73-.82-5.63-.08-1.42-.19-2.84-.29-4.27-.04-.62-.11-1.23-.16-1.77-5.66-.61-11.24-.82-16.92-.22Zm-1.29,18.93c-.21,1.36-.29,11.59-.09,12.24,3.54,.1,7.09,.14,10.63,.32,3.53,.18,7.05,.51,10.66,.78,.39-5.02-.31-9.88-1-14.74-.12-.04-.19-.09-.26-.08-1.57,.11-3.14,.21-4.7,.34-.34,.03-.66,.23-1,.28-.84,.11-1.68,.18-2.52,.27-2.74,.31-5.48,.48-8.23,.47-1.15,0-2.3,.08-3.48,.12Zm-2.73,12.22c0-.36,0-.61,0-.85,.02-1.05,.05-2.1,.06-3.15,.03-2.55,.06-5.1,.07-7.65,0-.61-.05-.68-.51-.7-.9-.05-1.8-.1-2.7-.1-1.02,0-2.04,.06-3.07,.09-1.15,.04-2.3,.12-3.45,.11-1.77-.01-3.54,.31-5.31,.05-.1-.01-.2,0-.3,.02-1.16,.2-2.31,.39-3.47,.59-.83,.14-1.66,.3-2.55,.46-.07,4.16,.21,8.29,.33,12.46,.71,0,1.33,.02,1.95-.01,.26-.01,.52-.16,.78-.21,.22-.05,.44-.07,.67-.07,4.32-.04,8.65-.08,12.97-.12,.55,0,1.09,0,1.64,0,.42-.74,.62-.87,1.48-.91,.42-.02,.84,0,1.39,0Zm-42.05,1.69c1.5,.05,2.89,.1,4.29,.14,1,.03,2,.1,3,.07,1.42-.04,2.84-.17,4.27-.22,2.15-.08,4.3-.12,6.45-.18,.21,0,.43-.04,.66-.06-.13-4.18-.26-8.29-.39-12.42-1.18,.06-2.27,.12-3.37,.16-2.02,.07-4.05,.18-6.07,.19-2.1,0-4.2-.04-6.29-.19-1.29-.09-2.51,.25-3.77,.29-.37,0-.51,.29-.57,.59-.04,.22-.02,.45-.02,.67,0,2.15,0,4.3,0,6.45,0,.97-.03,1.95-.05,2.92,0,.22,0,.44,0,.71,.31,.02,.55,.05,.8,.04,.56,0,.99,.15,1.08,.85Zm-3.95-31.47c-.35,0-.63,0-.9,0-3.52,.15-7.04,.31-10.56,.44-.57,.02-1.07,.14-1.65,.56-.37,5.11-.25,10.32-.45,15.44,.55,0,.99,0,1.44,0,.57-.01,1.15-.01,1.72-.06,2.29-.19,4.58-.4,6.87-.58,1.01-.08,2.03-.13,3.1-.19,.16-5.2,.6-10.35,.44-15.6Zm-1.27,50.54c.08-.31,.19-.52,.19-.74,.02-.67,.02-1.34-.02-2-.03-.44-.23-.87-.23-1.31-.05-3.85,.15-7.7,.55-11.53,.06-.56,.08-1.13,.12-1.78-4.72,.06-9.35,.12-14.05,.18,0,1.04-.04,1.99,0,2.93,.15,2.78,.73,5.44,2.24,7.84,.5,.8,1.12,1.46,1.9,1.99,2.22,1.51,4.62,2.68,7.09,3.73,.68,.29,1.42,.45,2.2,.69Zm.71-19.96c.3-1.44,.35-9.73,.07-10.82-.23-.02-.47-.05-.72-.04-.7,.03-1.4,.05-2.09,.11-2.49,.24-4.97,.49-7.45,.74-.47,.05-.94,.15-1.37-.18-.1-.08-.29-.1-.42-.08-.44,.05-.88,.13-1.29,.2-.31,1.37-.85,9.54-.7,10.28,4.67-.07,9.33-.14,13.97-.21Zm70.99-43.19c-.17,.16-.27,.23-.33,.32-.41,.6-.79,1.22-1.22,1.8-.34,.46-.29,.9-.05,1.47,.2-.32,.36-.57,.51-.82,.09-.15,.15-.32,.25-.46,.14-.19,.31-.35,.57-.21,.25,.14,.25,.34,.13,.58-.07,.13-.12,.27-.2,.4-.3,.52-.62,1.03-.91,1.55-.11,.19-.25,.41-.23,.61,.06,.71,.17,1.42,.27,2.13,.05,.01,.1,.03,.15,.04,.34-.57,.73-1.12,1.01-1.72,.17-.36,.3-.67,.81-.73-.25-1.65-.49-3.25-.75-4.96Zm-4.49-4.28c.56,.87,1.06,1.67,1.61,2.54,.52-.65,1.04-1.28,1.55-1.91,.17-.21,.11-.41,0-.62-.37-.72-.85-1.33-1.54-1.88-.55,.64-1.08,1.25-1.63,1.88Zm-58.13-7.66c-.01-.06-.03-.11-.04-.17-.77,0-1.53,0-2.3,0-.78,0-1.52,.06-2.09,.73-.3,.35-.73,.58-.89,1.13,.78-.02,1.53,.18,2.2-.43,.43-.4,.68-.29,.98,.24,.03,.06,.08,.11,.14,.19,.68-.58,1.34-1.14,2-1.69Zm27.3,1.94c.16,.08,.21,.11,.25,.11,.57,.02,1.16-.03,1.72,.06,.89,.14,1.56-.08,1.97-.92,.13-.27,.49-.43,.43-.9-.94-.02-1.85-.04-2.77-.04-.13,0-.29,.1-.38,.2-.4,.47-.79,.96-1.22,1.49Zm30.16,5.23c.59-.68,1.12-1.28,1.71-1.96-.62-.41-1.17-.78-1.76-1.18-.6,.63-1.16,1.21-1.8,1.86,.66,.45,1.23,.84,1.84,1.27Zm-29.87-6.97c-1.02-.02-1.91-.04-2.8-.04-.11,0-.26,.05-.33,.14-.36,.46-.81,.86-1.05,1.43,.88,.34,1.76,.24,2.62,.27,.11,0,.27-.05,.33-.13,.39-.5,.76-1.02,1.22-1.66Zm34.5,27.14c.42-.59,.79-1.09,1.13-1.59,.11-.16,.22-.36,.22-.54,.02-1.03,.01-2.07,.01-3.1-.4,.59-.69,1.23-1.03,1.85-.57,1.03-.7,2.11-.34,3.39Zm-11.84-25.54c-.86-.12-1.57-.19-2.27-.32-.82-.16-1.28,.27-1.6,.79,.25,.28,.44,.5,.69,.77,.61,.06,1.31,.12,2.04,.18,.35-.44,.71-.88,1.15-1.43Zm-14.83-1.31h-2.64c-.35,.49-.75,1.05-1.26,1.76,.94,0,1.68,.01,2.42-.01,.14,0,.33-.12,.42-.24,.33-.43,.63-.89,1.06-1.5Zm-27.56-.43c-.01-.06-.03-.12-.04-.18-.57,0-1.14,0-1.71,0-.14,0-.32,.03-.42,.11-.6,.57-1.18,1.17-1.77,1.76,.74,.14,1.4,.15,2.06,.13,.13,0,.28-.1,.38-.2,.51-.54,1-1.09,1.5-1.63Zm55.46,18.02c-.55,.88-1.09,1.74-1.63,2.6-.06,.1-.13,.23-.12,.34,.04,.7,.09,1.4,.14,2.1,.55-.74,.96-1.5,1.41-2.24,.43-.71,.54-1.91,.2-2.8Zm-6.64-14.49c-.74-.33-1.39-.61-2.04-.9-.52,.55-1.05,.98-1.42,1.59,.62,.35,1.2,.68,1.77,1,.56-.56,1.09-1.08,1.7-1.69Zm5.11,5.42c-.55,.69-1.05,1.27-1.51,1.89-.1,.13-.15,.37-.11,.53,.12,.55,.28,1.09,.43,1.65,.57-.47,1.16-1.5,1.43-2.15,.28-.68,.1-1.23-.24-1.92Zm-19.52-6.36c.96,.08,1.82,.14,2.57,.21,.41-.55,.75-.99,1.14-1.51-.98-.07-1.86-.14-2.64-.2-.38,.54-.7,.98-1.07,1.5Zm-38.45-2.81c-.81,0-1.43,0-2.05,0-.14,0-.31,.07-.39,.16-.5,.54-.97,1.1-1.56,1.77,.69,0,1.23,0,1.77,0,.12,0,.26-.04,.34-.12,.6-.56,1.18-1.12,1.9-1.82Zm48.51,4.07c.47-.51,.88-.96,1.37-1.5-.93-.21-1.74-.4-2.52-.58-.34,.49-.61,.89-.94,1.38,.67,.41,1.41,.42,2.09,.69Zm-17.19-1.6c.73,.03,1.26,.01,1.77,.09,.61,.09,1-.15,1.27-.66,.05-.09,.1-.17,.13-.21-.11-.29-.2-.53-.31-.82-.37-.04-.79-.1-1.21-.12-.16,0-.38,.04-.46,.15-.38,.46-.72,.95-1.18,1.58Zm-14.83-1.99c-.02-.06-.04-.11-.07-.17-.84,0-1.67,0-2.51,0-.11,0-.27,.05-.33,.13-.27,.4-.61,.76-.74,1.37,.84-.06,1.6-.1,2.36-.16,.13-.01,.28-.1,.38-.2,.31-.31,.61-.64,.91-.97Zm-38.16,4.75l.11,.14c.22-.22,.45-.44,.67-.67,.79-.83,1.67-1.54,2.81-1.79,1.22-.27,1.9-1.25,2.81-1.93-2.64,.67-4.8,2.05-6.4,4.25Zm31.77-4.84c-.02-.07-.03-.14-.05-.2-.62,0-1.24-.01-1.86,0-.16,0-.38,.05-.47,.16-.4,.46-.76,.95-1.24,1.58,.78-.05,1.37-.07,1.95-.12,.09,0,.19-.06,.26-.12,.47-.43,.94-.86,1.41-1.3Zm9.5,.04c-1.68-.29-2.22-.06-2.89,1.2,.48,.05,.94,.11,1.41,.14,.16,0,.39,0,.48-.11,.34-.38,.64-.79,.99-1.23Zm16.42,.58c-.31,.46-.58,.87-.93,1.38,.43-.19,.72-.41,1.02-.42,.49-.02,.26,.46,.32,.7,.68,.18,1.18,.07,1.47-.67-.5-.08-.41-.44-.28-.82-.57-.06-1.09-.11-1.6-.16Zm22.51,30.07c.77-1.17,1.23-2.32,.95-3.73-1.04,1.07-1.43,2.23-.95,3.73ZM55.9,51.77c1.09,.11,1.94,.06,2.52-.83,.16-.24,.42-.42,.62-.64,.1-.11,.18-.24,.35-.46-.47,.07-.81,.12-1.12,.17q-.4,.7-1.36,.97c-.09,.03-.17,.1-.25,.16-.21,.17-.42,.34-.75,.62Zm21.84-1.92c-.04-.05-.08-.1-.12-.15-1.05,.28-1.76,1.05-2.51,1.8,.42,.06,.81,.05,1.2,0,.11-.01,.24-.09,.31-.17,.38-.49,.75-.99,1.12-1.49Zm5.94,.11s-.06-.09-.09-.14c-.21,.04-.48,0-.62,.13-.46,.41-.86,.87-1.3,1.32q1.05,.19,1.58-.62c.15-.23,.28-.46,.42-.69Zm46.66,31.47c-.62,1-.64,1.87,0,2.69v-2.69Z"/><path d="M129.88,61.67c.26,1.71,.5,3.31,.75,4.96-.5,.06-.64,.38-.81,.73-.28,.6-.67,1.15-1.01,1.72-.05-.01-.1-.03-.15-.04-.09-.71-.21-1.41-.27-2.13-.02-.2,.12-.42,.23-.61,.29-.52,.61-1.03,.91-1.55,.07-.13,.13-.27,.2-.4,.12-.23,.12-.44-.13-.58-.26-.14-.43,.02-.57,.21-.1,.14-.16,.31-.25,.46-.15,.25-.31,.5-.51,.82-.24-.56-.29-1,.05-1.47,.43-.58,.81-1.2,1.22-1.8,.06-.09,.16-.16,.33-.32Z" fill="#fff"/><path d="M125.39,57.39c.54-.63,1.08-1.24,1.63-1.88,.69,.55,1.17,1.17,1.54,1.88,.11,.22,.17,.42,0,.62-.51,.63-1.03,1.27-1.55,1.91-.55-.87-1.06-1.67-1.61-2.54Z" fill="#fff"/><path d="M67.26,49.73c-.66,.56-1.32,1.12-2,1.69-.06-.08-.11-.13-.14-.19-.3-.53-.55-.64-.98-.24-.67,.61-1.41,.42-2.2,.43,.16-.55,.59-.78,.89-1.13,.57-.67,1.31-.73,2.09-.73,.77,0,1.53,0,2.3,0,.01,.06,.03,.11,.04,.17Z" fill="#fff"/><path d="M94.56,51.67c.43-.53,.82-1.02,1.22-1.49,.09-.1,.25-.2,.38-.2,.92,0,1.83,.02,2.77,.04,.06,.47-.3,.63-.43,.9-.41,.84-1.08,1.06-1.97,.92-.56-.09-1.15-.04-1.72-.06-.04,0-.08-.04-.25-.11Z" fill="#fff"/><path d="M124.72,56.89c-.62-.42-1.18-.82-1.84-1.27,.63-.66,1.19-1.24,1.8-1.86,.59,.4,1.14,.76,1.76,1.18-.59,.67-1.12,1.28-1.71,1.96Z" fill="#fff"/><path d="M94.85,49.92c-.47,.64-.84,1.16-1.22,1.66-.06,.08-.22,.13-.33,.13-.86-.03-1.74,.07-2.62-.27,.24-.57,.68-.98,1.05-1.43,.07-.08,.22-.14,.33-.14,.89,0,1.78,.03,2.8,.04Z" fill="#fff"/><path d="M129.35,77.06c-.36-1.28-.23-2.35,.34-3.39,.34-.62,.62-1.26,1.03-1.85,0,1.03,.01,2.07-.01,3.1,0,.18-.12,.38-.22,.54-.34,.51-.71,1-1.13,1.59Z" fill="#fff"/><path d="M117.5,51.53c-.44,.55-.8,.99-1.15,1.43-.73-.07-1.42-.13-2.04-.18-.25-.27-.44-.49-.69-.77,.32-.53,.78-.95,1.6-.79,.7,.13,1.41,.2,2.27,.32Z" fill="#fff"/><path d="M102.67,50.22c-.43,.62-.73,1.07-1.06,1.5-.09,.12-.27,.24-.42,.24-.74,.02-1.48,.01-2.42,.01,.51-.71,.9-1.26,1.26-1.76h2.64Z" fill="#fff"/><path d="M75.11,49.78c-.5,.55-.99,1.1-1.5,1.63-.09,.1-.25,.19-.38,.2-.66,.02-1.32,0-2.06-.13,.59-.59,1.17-1.18,1.77-1.76,.09-.09,.27-.11,.42-.11,.57-.01,1.14,0,1.71,0,.01,.06,.03,.12,.04,.18Z" fill="#fff"/><path d="M130.57,67.81c.34,.89,.23,2.09-.2,2.8-.44,.74-.86,1.49-1.41,2.24-.05-.7-.11-1.4-.14-2.1,0-.11,.06-.24,.12-.34,.53-.86,1.07-1.72,1.63-2.6Z" fill="#fff"/><path d="M123.94,53.31c-.61,.61-1.14,1.13-1.7,1.69-.57-.32-1.14-.65-1.77-1,.37-.61,.91-1.04,1.42-1.59,.65,.29,1.3,.57,2.04,.9Z" fill="#fff"/><path d="M129.05,58.74c.34,.69,.52,1.25,.24,1.92-.27,.65-.85,1.67-1.43,2.15-.15-.56-.31-1.1-.43-1.65-.03-.17,.01-.4,.11-.53,.46-.61,.96-1.2,1.51-1.89Z" fill="#fff"/><path d="M109.53,52.38c.37-.52,.69-.96,1.07-1.5,.79,.06,1.66,.13,2.64,.2-.39,.52-.73,.96-1.14,1.51-.76-.06-1.61-.13-2.57-.21Z" fill="#fff"/><path d="M71.08,49.57c-.73,.7-1.31,1.27-1.9,1.82-.08,.07-.22,.11-.34,.12-.54,.01-1.08,0-1.77,0,.59-.68,1.07-1.23,1.56-1.77,.09-.1,.26-.16,.39-.16,.62-.02,1.24,0,2.05,0Z" fill="#fff"/><path d="M119.59,53.64c-.68-.28-1.42-.29-2.09-.69,.33-.48,.61-.89,.94-1.38,.78,.18,1.59,.36,2.52,.58-.49,.53-.9,.98-1.37,1.5Z" fill="#fff"/><path d="M102.4,52.04c.46-.63,.8-1.12,1.18-1.58,.09-.11,.31-.15,.46-.15,.42,.02,.84,.08,1.21,.12,.11,.29,.2,.53,.31,.82-.02,.04-.08,.12-.13,.21-.28,.51-.66,.75-1.27,.66-.51-.08-1.04-.06-1.77-.09Z" fill="#fff"/><path d="M87.57,50.05c-.3,.32-.6,.66-.91,.97-.1,.1-.25,.19-.38,.2-.76,.07-1.52,.11-2.36,.16,.14-.61,.47-.97,.74-1.37,.06-.08,.21-.13,.33-.13,.84-.01,1.67,0,2.51,0,.02,.06,.04,.11,.07,.17Z" fill="#fff"/><path d="M81.17,49.95c-.47,.43-.93,.87-1.41,1.3-.07,.06-.17,.12-.26,.12-.58,.04-1.17,.07-1.95,.12,.49-.63,.85-1.12,1.24-1.58,.09-.11,.31-.15,.47-.16,.62-.02,1.24,0,1.86,0,.02,.07,.03,.14,.05,.2Z" fill="#fff"/><path d="M90.67,49.99c-.35,.44-.65,.85-.99,1.23-.09,.1-.32,.12-.48,.11-.47-.03-.94-.09-1.41-.14,.67-1.26,1.21-1.5,2.89-1.2Z" fill="#fff"/><path d="M107.09,50.57c.51,.05,1.03,.1,1.6,.16-.13,.39-.22,.74,.28,.82-.28,.74-.79,.85-1.47,.67-.06-.23,.17-.72-.32-.7-.3,.01-.58,.23-1.02,.42,.34-.51,.62-.92,.93-1.38Z" fill="#fff"/><path d="M129.6,80.64c-.48-1.49-.09-2.66,.95-3.73,.28,1.41-.18,2.56-.95,3.73Z" fill="#fff"/><path d="M77.74,49.85c-.37,.5-.74,1-1.12,1.49-.07,.09-.2,.16-.31,.17-.39,.04-.78,.05-1.2,0,.75-.75,1.46-1.53,2.51-1.8,.04,.05,.08,.1,.12,.15Z" fill="#fff"/><path d="M59.47,51.5c.37-.6,1-.92,.87-1.65,.54-.06,1.03-.11,1.61-.17-.28,.57-.76,.8-1.14,1.11-.35,.29-.61,.8-1.33,.71Z" fill="#fff"/><path d="M83.68,49.96c-.14,.23-.27,.47-.42,.69q-.52,.82-1.58,.62c.43-.45,.84-.91,1.3-1.32,.14-.12,.41-.09,.62-.13,.03,.05,.06,.09,.09,.14Z" fill="#fff"/><path d="M130.34,81.43v2.69c-.64-.82-.62-1.69,0-2.69Z" fill="#fff"/><path d="M75,66.2c-.97,0-1.95-.01-2.92,0-.35,0-.69,.08-1.03,.11-.22,.02-.45,.05-.67,0-.45-.09-.77-.35-.88-.82-.11-.46,.01-.88,.42-1.12,.33-.2,.73-.37,1.11-.39,2.34-.13,4.69-.22,7.03-.31,.25,0,.5,.04,.74,.1,.63,.16,1.01,.64,.97,1.24-.03,.62-.5,1.09-1.17,1.15-.27,.02-.55,0-.82,0-.92,0-1.85,0-2.77,0h0Z"/><path d="M98.13,64.55c1,0,2-.02,2.99,0,.96,.03,1.47,.5,1.44,1.25-.02,.74-.56,1.18-1.53,1.17-1.92-.04-3.84-.11-5.76-.18-.24,0-.49-.09-.71-.2-.49-.25-.7-.75-.57-1.26,.12-.47,.52-.77,1.06-.78,1.02-.01,2.04,0,3.07,0,0,0,0,0,0,0Z"/><path d="M117.55,66.49c-.77,0-1.55,.01-2.32,0-.27,0-.55-.04-.81-.12-.5-.16-.78-.6-.75-1.08,.04-.47,.39-.88,.89-.99,.17-.03,.35-.03,.52-.03,1.65,0,3.3,0,4.95,.02,.29,0,.6,.06,.87,.17,.46,.19,.73,.68,.69,1.14-.04,.51-.39,.94-.91,1.06-.22,.05-.45,.07-.67,.06-.82-.04-1.65-.1-2.47-.15,0-.03,0-.05,0-.08Z"/><path d="M55.36,65.29c-.76,.05-1.36,.11-1.96,.12-.27,0-.55-.02-.81-.1-.41-.14-.64-.46-.67-.9-.03-.47,.16-.83,.59-1.04,.17-.09,.38-.14,.57-.15,1.52-.14,3.03-.28,4.55-.4,.64-.05,1.12,.27,1.29,.8,.16,.49-.08,1.11-.63,1.38-.35,.17-.76,.25-1.14,.28-.65,.04-1.3,.01-1.78,.01Z"/></svg>