<?xml version="1.0" encoding="UTF-8"?><svg id="Calque_1" xmlns="http://www.w3.org/2000/svg" viewBox="0 0 173.84 178.2"><path d="M44.82,91.88c.25-16.89,6.59-31.18,19.27-42.29,6.39-5.6,13.09-11.29,22.28-11.95,5.72-.41,11.45-1.01,17.06,.94,6.51,2.27,12.53,5.21,16.87,10.9,4.36,5.71,7.57,11.9,8.22,19.13,.24,2.63-.35,5.32-.27,7.98,.08,2.37,.9,4.74,.8,7.08-.12,2.87-.58,5.78-1.35,8.55-3.44,12.46-9.9,23.13-19.97,31.28-7.06,5.72-15.08,9.6-24.43,9.92-1.96,.07-4,.34-5.87-.07-3.47-.76-7.07-1.52-10.22-3.08-3.56-1.76-7.05-4.02-9.9-6.77-2.84-2.75-5.12-6.2-7.16-9.63-4-6.73-5.63-14.14-5.34-22.01Zm68.62-9.78c.17-5.84-1.02-10.81-3.4-15.43-3.14-6.08-8.32-9.69-14.82-11.51-7.78-2.17-15.44-.05-21.79,3.45-14.44,7.96-21.47,26.72-17.14,42.64,4.05,14.91,19.08,23.1,33.56,17.05,13.53-5.65,23.78-21.49,23.6-36.21Zm-55.6,36.58c1.21-1.83,3.25-3.34,1.12-5.99-6.22-7.76-7.47-16.9-6.25-26.35,1.5-11.66,6.95-21.31,16.4-28.54,.86-.66,2.11-1.42,2.24-2.28,.32-2.2,.11-4.48,.11-6.51-20.04,11.54-33.19,47.22-13.61,69.66Z"/><line x1="83.9" y1="53.25" x2="88.36" y2="47.67" fill="#fff" stroke="#fff" stroke-miterlimit="10" stroke-width="2"/><line x1="88.36" y1="53.25" x2="92.82" y2="47.67" fill="#fff" stroke="#fff" stroke-miterlimit="10" stroke-width="2"/><line x1="79.03" y1="54.57" x2="83.49" y2="48.99" fill="#fff" stroke="#fff" stroke-miterlimit="10" stroke-width="2"/><line x1="93.48" y1="54.04" x2="95.71" y2="50.83" fill="#fff" stroke="#fff" stroke-miterlimit="10" stroke-width="2"/><line x1="102.08" y1="126.19" x2="99.76" y2="121.53" fill="#fff" stroke="#fff" stroke-miterlimit="10" stroke-width="2"/><line x1="105.55" y1="123.6" x2="101.82" y2="117.51" fill="#fff" stroke="#fff" stroke-miterlimit="10" stroke-width="2"/><line x1="99.54" y1="127.82" x2="95.71" y2="121.79" fill="#fff" stroke="#fff" stroke-miterlimit="10" stroke-width="2"/><line x1="108.32" y1="121.5" x2="105.93" y2="118.41" fill="#fff" stroke="#fff" stroke-miterlimit="10" stroke-width="2"/></svg>