<?xml version="1.0" encoding="UTF-8"?><svg id="Calque_1" xmlns="http://www.w3.org/2000/svg" viewBox="0 0 173.84 178.2"><path d="M31.33,115.91c-2.03-.1-3.87-.1-5.68-.3-2.75-.3-5.3-1.25-7.64-2.71-1.61-1-2.5-2.54-2.6-4.41-.09-1.67-.04-3.36,.1-5.03,.48-5.9,.88-11.81,1.18-17.73,.15-2.95,.55-5.89,.85-8.84,.04-.4,.21-.74,.63-.91,.09-.04,.19-.15,.22-.25,.47-1.76,1.78-2.9,3.06-4.03,1.16-1.02,2.45-1.89,3.71-2.79,.83-.6,1.8-.84,2.82-.84,3.04,0,6.08-.08,9.12-.02,4.38,.09,8.76,.28,13.14,.43,1.49,.05,2.98,.05,4.47,.16,2.72,.21,5,1.31,6.44,3.69,.56,.93,.92,2,1.24,3.04,.64,2.11,.88,4.28,.86,6.48,0,1.14-.07,2.28-.07,3.43,0,1.56,.1,3.13,.03,4.68-.22,4.77-.55,9.54-1.28,14.27-.28,1.81-.63,3.6-1.34,5.31-.65,1.56-1.62,2.73-3.36,3.1-.32,.07-.64,.16-.95,.26-.78,.24-1.56,.49-2.34,.73-1.63,.5-3.33,.65-5.02,.82-3.61,.36-7.23,.74-10.85,1.05-2.3,.2-4.61,.27-6.72,.39Zm26.86-6.74c.34-.48,1.1-.55,1.28-1.26-.66,.11-.76,.04-.81-.52,1.21-.91,1.65-1.71,1.49-2.6-.34,.08-.69,.15-1.11,.25-.11,.7-.24,1.53-.36,2.37-.16,.59-.31,1.18-.47,1.78-.19,.52-.38,1.05-.57,1.57,.04,.03,.08,.06,.13,.09,.32-.34,.65-.67,.91-.94-.2-.31-.34-.53-.47-.74Zm.5-20.73c0-1.33,0-2.85,0-4.37,0-1.87-.32-3.7-.83-5.5-.34-1.2-.87-2.3-1.81-3.18-1.24-1.16-2.76-1.58-4.38-1.64-5.7-.21-11.41-.4-17.11-.53-3.83-.09-7.65-.02-11.47,.39-1.72,.18-2.87,.9-3.33,2.63-.18,.7-.54,1.35-.83,2.02-.09,.22-.24,.44-.28,.67-.07,.39-.09,.8-.12,1.2-.19,3.3-.36,6.6-.58,9.9-.27,4.11-.6,8.22-.88,12.33-.12,1.87-.25,3.74-.24,5.61,.01,1.72,.81,3.09,2.36,3.94,2.37,1.29,4.86,2.16,7.58,2.34,5.47,.37,10.9-.15,16.33-.62,2.06-.18,4.11-.48,6.17-.68,1.78-.18,3.54-.45,5.25-1.02,.64-.21,1.08-.58,1.41-1.16,.63-1.13,1.02-2.36,1.22-3.62,.35-2.23,.68-4.47,.91-6.72,.4-3.92,.74-7.85,.63-11.99Zm-18.45-16.66c.01,.06,.02,.11,.03,.17,.41,0,.82-.02,1.23,0,.35,.02,.6-.1,.88-.3,.76-.51,1.57-.96,2.37-1.4,.17-.09,.4-.12,.6-.1,.13,.01,.33,.15,.35,.26,.02,.14-.07,.34-.18,.44-.11,.11-.3,.12-.44,.19-.57,.28-1.14,.56-1.71,.85,.02,.05,.04,.1,.06,.15,.56,0,1.13,0,1.69,0,.12,0,.26-.06,.36-.13,.75-.55,1.5-1.12,2.25-1.68,.07-.05,.13-.12,.25-.24-1.66-.05-3.23-.09-4.81-.13-.09,0-.19,0-.26,.04-.9,.62-1.79,1.25-2.68,1.88Zm12.41-1.58s0-.06,0-.09c-.22,0-.44,0-.66,0q-2.45-.08-4.5,1.29c-.29,.19-.57,.4-.85,.6,.01,.06,.02,.11,.04,.17,.88,0,1.77,0,2.65,0,.08,0,.18-.04,.25-.08,1.03-.63,2.05-1.26,3.07-1.89Zm5.37,1.08c-1.24,.48-2.38,.92-3.55,1.38,.7,.4,1.31,.75,1.91,1.09,.08,.04,.2,.07,.28,.04,.92-.35,1.84-.72,2.85-1.11-.49-.46-1-.94-1.49-1.39Zm1.81,8.95c.52-.34,.99-.64,1.45-.98,.1-.08,.19-.28,.17-.4-.1-.68-.22-1.35-.36-2.02-.02-.1-.23-.25-.32-.23-.61,.12-1.21,.28-1.82,.43,.3,1.09,.58,2.12,.87,3.21Zm-24-8.64c.02,.08,.04,.15,.05,.23,.84,0,1.69,0,2.53,0,.12,0,.25-.08,.36-.15,.62-.4,1.24-.81,1.86-1.23,.26-.18,.51-.37,.76-.56-.02-.06-.03-.12-.05-.18-.77,0-1.54,0-2.31,0-.1,0-.21,.03-.29,.09-.97,.6-1.94,1.2-2.91,1.81Zm25.02,4.07c-.22-.6-.42-1.17-.65-1.73-.04-.1-.19-.2-.3-.21-.96-.05-1.8,.33-2.62,.68,.42,.6,.8,1.15,1.19,1.69,.06,.08,.22,.15,.31,.13,.66-.17,1.32-.36,2.07-.57Zm-27.54-6h-2.91c.11,.47-.1,.61-.47,.79-.65,.32-1.23,.78-1.84,1.18,.02,.04,.04,.08,.06,.12,.36,0,.73-.03,1.09,0,.97,.11,1.78-.14,2.48-.86,.45-.47,1.04-.81,1.6-1.24Zm17.78,2.4s.04,.09,.06,.14c1.07,.08,2.15,.43,3.15-.33,.31-.24,.72-.35,1.09-.51,.46-.2,.92-.38,1.38-.57,0-.05,0-.09,0-.14-.73-.14-1.47-.28-2.2-.41-.06-.01-.14,.08-.21,.13-.17,.11-.33,.24-.51,.33-.92,.46-1.84,.91-2.77,1.37Zm-13.95-2.45c-.59,0-1.1,0-1.61,0-.22,0-.48,0-.64,.11-.93,.62-1.83,1.27-2.74,1.92-.01,0,0,.05,.01,.1,.71,0,1.43,0,2.14,0,.11,0,.24-.03,.33-.1,.8-.64,1.6-1.28,2.52-2.03Zm24.49,20.37s-.09-.06-.14-.09c-.33,.24-.68,.46-.98,.73-.14,.12-.28,.33-.29,.51-.06,.99-.09,1.99-.12,2.98,0,.06,.03,.12,.05,.21,.4-.31,.76-.59,1.11-.89,.08-.07,.16-.19,.17-.29,.08-1.05,.14-2.1,.21-3.14Zm-32.38-20.28c-.39,0-.77,.01-1.15,0-.47-.02-.86,.13-1.2,.46-.47,.45-.98,.86-1.47,1.3-.12,.11-.23,.24-.42,.46,.58-.03,1.02-.04,1.46-.08,.12,0,.27-.06,.36-.14,.8-.65,1.6-1.31,2.43-2Zm30.98,17.53v2.43c.44-.23,.84-.43,1.24-.65,.07-.04,.15-.12,.15-.19,.01-.83,0-1.67,0-2.55-.48,.33-.9,.62-1.4,.96Zm-.03-3.96c.46-.4,.89-.77,1.31-1.15,.05-.05,.1-.12,.11-.19,0-.59,0-1.18,0-1.87-.61,.37-1.09,.66-1.56,.96-.05,.03-.11,.12-.1,.17,.07,.67,.16,1.35,.25,2.06Zm1.12,11.31s-.08-.03-.12-.05c-.14,.12-.28,.26-.43,.36-.68,.42-.93,1.04-.9,1.82,.02,.4-.04,.8-.06,1.27,.45-.26,.8-.47,1.15-.69,.08-.05,.15-.15,.16-.24,.08-.82,.14-1.64,.2-2.47Zm-.31,3.74s-.07-.05-.1-.07c-.25,.2-.5,.39-.74,.6-.17,.14-.45,.28-.47,.46-.11,.72-.15,1.46-.22,2.28,.43-.28,.79-.51,1.14-.75,.08-.05,.17-.15,.18-.24,.08-.76,.15-1.52,.22-2.28Zm.63-15.16c-.52,.43-.96,.8-1.4,1.16-.03,.02-.04,.08-.04,.12,0,.6,0,1.2,0,1.88,.49-.41,.9-.75,1.3-1.1,.08-.07,.13-.2,.14-.31,.01-.55,0-1.1,0-1.76Zm-2.48,21.09c1.16-.4,1.56-1.22,1.43-2.36-.37,.22-.75,.44-1.12,.67-.06,.04-.1,.14-.11,.22-.07,.48-.12,.96-.19,1.46ZM24.7,70.91s-.02-.04-.03-.07c-.48,.4-.96,.79-1.44,1.19,.02,.03,.03,.05,.05,.08,.28-.04,.55-.07,.73-.1,.26-.41,.48-.76,.69-1.1Z"/><path d="M88.08,67.4c4.22,.12,8.43,.24,12.65,.38,1.53,.05,3.03,.27,4.41,.99,2,1.04,3.28,2.66,3.96,4.79,.78,2.43,1.17,4.92,1.15,7.47,0,1.16-.07,2.31-.07,3.47,0,1.56,.1,3.13,.03,4.68-.22,4.77-.55,9.54-1.28,14.27-.28,1.81-.61,3.61-1.34,5.31-.55,1.28-1.25,2.41-2.67,2.89-.13,.04-.24,.17-.33,.28-.42,.53-.95,.89-1.59,1.1-1.59,.54-3.21,.9-4.88,1.07-1.96,.2-3.9,.47-5.86,.67-1.56,.16-3.12,.26-4.67,.4-3.53,.32-7.07,.55-10.62,.45-1.8-.05-3.61-.09-5.37-.54-1.95-.49-3.81-1.2-5.53-2.23-1.98-1.18-2.91-3.01-2.91-5.26,0-1.96,.15-3.92,.28-5.88,.15-2.21,.38-4.42,.52-6.63,.27-4.26,.46-8.53,.74-12.8,.11-1.69,.37-3.37,.54-5.06,.02-.2-.08-.41-.09-.62-.01-.23-.05-.48,.02-.68,.95-2.65,2.59-4.77,4.9-6.37,.69-.48,1.37-.95,2.06-1.42,.86-.58,1.82-.86,2.86-.87,2.97,0,5.93-.04,8.9-.03,1.4,0,2.8,.07,4.2,.11,0,.01,0,.03,0,.04Zm15.36,43.08s.08,.02,.12,.03c.17-.2,.41-.38,.49-.61,.31-.9,.69-1.79,.84-2.72,.4-2.41,.8-4.82,1-7.25,.3-3.5,.45-7.01,.61-10.52,.07-1.59,0-3.19,0-4.78,.01-2.19-.28-4.33-.89-6.43-.52-1.77-1.5-3.17-3.19-3.99-1.18-.58-2.46-.69-3.74-.73-3.86-.14-7.71-.26-11.57-.36-2.73-.07-5.45-.12-8.18-.11-2.8,0-5.6,.03-8.38,.45-1.15,.17-2.19,.51-2.64,1.74-.25,.68-.51,1.37-.78,2.04-.12,.3-.29,.58-.43,.88-.09,.18-.21,.36-.23,.55-.1,1.01-.2,2.01-.26,3.02-.25,4.26-.46,8.53-.73,12.79-.18,2.87-.48,5.72-.67,8.59-.11,1.62-.17,3.24-.13,4.86,.04,1.59,.78,2.85,2.19,3.67,1.9,1.1,3.92,1.91,6.09,2.23,3.08,.46,6.19,.45,9.28,.24,4.59-.32,9.17-.78,13.75-1.23,1.61-.16,3.22-.42,4.81-.71,.71-.13,1.4-.4,2.08-.65,.44-.16,.64-.53,.58-1.01Zm-8.45-41.22c-.06-.04-.09-.07-.11-.07-1.55-.05-3.1-.1-4.65-.13-.15,0-.32,.06-.45,.15-.86,.6-1.71,1.23-2.58,1.83-.27,.19-.57,.34-.95,.56,.9,.04,1.69,.08,2.39,.12,.31-.35,.52-.71,.84-.92,.71-.48,1.47-.89,2.22-1.31,.15-.08,.35-.16,.51-.13,.19,.03,.45,.12,.53,.26,.14,.26-.09,.43-.33,.53-.3,.12-.63,.21-.91,.37-.61,.34-1.2,.72-1.8,1.09l.07,.17h2.38c.15-.67,.74-1,1.23-1.39,.51-.4,1.06-.74,1.6-1.12Zm4.71,.17c0-.05-.01-.11-.02-.16-.91,0-1.81,0-2.72,0-.17,0-.36,.06-.5,.15-1,.64-2,1.29-2.99,1.94-.16,.11-.31,.24-.47,.36,.03,.07,.07,.14,.1,.21,.84,0,1.69,0,2.53,0,.11,0,.22-.06,.31-.13,.63-.42,1.24-.87,1.88-1.28,.61-.39,1.25-.73,1.87-1.09Zm-11.28-.33c-.02-.07-.04-.13-.05-.2-.74,0-1.48,0-2.23,0-.16,0-.33,.05-.46,.14-1.03,.67-2.06,1.36-3.08,2.05-.13,.09-.23,.24-.34,.36,.02,.04,.03,.09,.05,.13,.86,0,1.72,0,2.58,0,.1,0,.22-.07,.3-.14,.76-.56,1.52-1.13,2.29-1.69,.3-.22,.62-.43,.93-.65Zm-10.82-.24c-.15,.29-.21,.56-.38,.68-.64,.45-1.33,.83-1.98,1.27-.3,.2-.55,.46-.87,.74,.97,0,1.84,0,2.71,0,.08,0,.18-.09,.25-.15,.51-.46,.99-.94,1.52-1.38,.47-.4,.97-.75,1.5-1.15h-2.75Zm23.44,3.21s0,.09,0,.13c.48,.14,1.01,.2,1.43,.44,.74,.41,1.36,.37,2.09-.03,.58-.32,1.28-.43,2.05-.68-.57-.53-1.09-1.01-1.57-1.45-1.4,.55-2.7,1.07-4,1.59Zm2.86-2.16c-.58-.14-1.06-.27-1.55-.36-.4-.08-.84-.27-1.14,.23-.03,.05-.13,.06-.2,.1-1.19,.63-2.39,1.26-3.58,1.89-.06,.03-.14,.04-.21,.06,.03,.05,.07,.1,.1,.15,.24,0,.48-.03,.71,0,.96,.15,1.8-.04,2.65-.56,.97-.59,2.06-.98,3.23-1.51Zm-19.71-1.09c-.57,0-1.04,.02-1.51,0-.44-.03-.81,.08-1.17,.34-.83,.61-1.67,1.19-2.5,1.79-.2,.14-.37,.32-.64,.54h3.03c.46-1.36,1.82-1.72,2.78-2.67Zm-12.43,1.3s-.04-.06-.06-.09c-.84,.71-1.68,1.41-2.5,2.11,1.35-.16,2.7-.31,4.04-.47,.07,0,.15-.07,.2-.13,.36-.41,.67-.86,1.07-1.22,.56-.5,1.19-.92,1.9-1.47-.71,.03-1.3,.05-1.88,.1-.11,0-.22,.1-.3,.17-.61,.52-1.23,1.04-1.82,1.58-.14,.13-.2,.36-.23,.56-.04,.3-.19,.43-.48,.4-.4-.03-.64-.44-.45-.83,.13-.26,.33-.49,.5-.73Zm32.63,3.47c.5,.56,.98,1.11,1.47,1.64,.05,.06,.16,.12,.22,.1,.59-.14,1.17-.29,1.8-.46-.2-.56-.38-1.06-.54-1.57-.1-.33-.32-.45-.64-.41-.82,.08-1.58,.34-2.31,.69Zm3.04,5.46c.33-.22,.65-.41,.94-.63,.08-.06,.14-.23,.12-.34-.11-.69-.23-1.37-.37-2.06-.02-.1-.2-.24-.28-.23-.47,.08-.94,.2-1.39,.3,.33,1,.64,1.94,.98,2.96Zm.59,13.83c.17-.21,.4-.35,.41-.52,.1-1.06,.16-2.12,.23-3.23-.33,.12-.64,.13-.64,.52,0,1.04,0,2.07,0,3.24Zm.64-13.47s-.1-.04-.15-.06c-.26,.17-.53,.33-.77,.51-.08,.06-.14,.2-.13,.29,.08,.55,.18,1.1,.3,1.79,.3-.34,.66-.56,.72-.85,.1-.54,.03-1.12,.03-1.68Zm0,6.12s-.08-.04-.12-.06c-.18,.2-.49,.39-.51,.6-.06,.76-.02,1.52-.02,2.29,.04,.03,.08,.05,.12,.08,.17-.15,.49-.28,.5-.44,.05-.82,.02-1.64,.02-2.47Zm0-3.05l-.15-.08c-.19,.24-.5,.46-.54,.73-.09,.53-.03,1.08-.03,1.62,.07,.02,.13,.05,.2,.07,.17-.23,.46-.45,.49-.7,.08-.54,.02-1.09,.02-1.64Zm-.32,11.3s-.08-.04-.13-.06c-.12,.13-.32,.26-.34,.4-.09,.81-.13,1.63-.19,2.45,.03,.02,.07,.04,.1,.06,.12-.11,.32-.22,.34-.34,.09-.83,.15-1.67,.21-2.5Zm-.31,3.74s-.07-.04-.11-.06c-.11,.13-.31,.25-.33,.39-.09,.75-.14,1.5-.2,2.25,.04,.02,.07,.04,.11,.06,.11-.13,.3-.25,.32-.4,.1-.74,.15-1.5,.22-2.24Zm-.42,3.6c-.64,.42-.33,1.09-.43,1.66,.52-.45,.29-1.1,.43-1.66Zm-.89,4.48c.06,.01,.13,.03,.19,.04,.12-.58,.23-1.15,.35-1.73-.05-.01-.1-.02-.15-.03-.37,.52-.25,1.15-.39,1.73Z"/><path d="M136.01,68.47c4.21,.12,8.43,.24,12.64,.38,1.53,.05,3.03,.27,4.41,.98,2,1.03,3.29,2.65,3.97,4.78,.76,2.39,1.17,4.83,1.15,7.34,0,1.08-.06,2.17-.06,3.25,0,.58,.07,1.16,.08,1.74,.06,4.15-.29,8.27-.71,12.39-.25,2.43-.61,4.84-1,7.25-.25,1.58-.76,3.09-1.59,4.48-.52,.87-1.27,1.42-2.24,1.74-1.1,.36-2.16,.87-3.29,1.12-1.64,.37-3.3,.64-4.97,.82-3.61,.4-7.23,.73-10.85,1.07-3.92,.37-7.86,.44-11.79,.16-2.97-.22-5.73-1.22-8.26-2.79-1.61-1-2.4-2.54-2.63-4.41-.21-1.7-.03-3.39,.12-5.08,.51-5.89,.9-11.78,1.18-17.69,.14-2.88,.5-5.75,.78-8.62,.02-.22,.09-.44,.19-.64,.3-.64,.62-1.28,.95-1.92,.91-1.77,2.37-3.04,3.93-4.21,.69-.52,1.42-.99,2.14-1.47,.95-.63,2.01-.84,3.15-.8,.67,.02,1.34-.03,2.01-.03,3.56,0,7.12,0,10.68,0,0,.05,0,.1,0,.15Zm18.2,20.43c0-1.31,.05-2.62-.01-3.93-.07-1.41-.14-2.83-.39-4.21-.22-1.19-.59-2.37-1.06-3.49-.35-.84-.85-1.68-1.88-1.93-.06-.02-.11-.1-.16-.14-.22-.18-.41-.42-.66-.54-1.09-.54-2.29-.63-3.48-.67-5.29-.18-10.58-.36-15.86-.48-4.04-.09-8.07-.06-12.1,.38-1.7,.18-2.84,.89-3.31,2.61-.19,.71-.56,1.37-.85,2.06-.09,.21-.23,.41-.27,.63-.07,.41-.1,.83-.12,1.24-.19,3.3-.36,6.6-.58,9.9-.27,4.11-.6,8.22-.88,12.34-.12,1.87-.25,3.74-.23,5.61,.02,1.7,.8,3.06,2.34,3.9,2.36,1.3,4.86,2.16,7.57,2.35,5.48,.38,10.93-.15,16.38-.63,2.05-.18,4.08-.47,6.13-.68,1.81-.18,3.6-.46,5.34-1.05,.56-.19,1.01-.49,1.25-1.01,.38-.85,.79-1.71,1.03-2.6,.68-2.57,.96-5.2,1.2-7.84,.35-3.93,.72-7.86,.62-11.81Zm-11.28-18.56c-.07-.05-.09-.08-.11-.08-1.56-.05-3.13-.09-4.69-.14-.09,0-.19,0-.26,.05-.88,.61-1.76,1.24-2.64,1.86,.46,.13,.88,.14,1.31,.18,.32,.03,.54-.1,.8-.28,.77-.51,1.57-.96,2.37-1.41,.17-.1,.41-.13,.6-.11,.14,.02,.34,.17,.37,.29,.03,.13-.1,.32-.21,.43-.1,.1-.27,.11-.41,.17-.56,.27-1.11,.54-1.67,.82,.02,.06,.04,.11,.06,.17,.25,0,.5-.03,.75,0,.71,.09,1.33-.05,1.84-.62,.25-.28,.61-.47,.93-.69,.31-.22,.63-.42,.96-.64Zm-1.37,1.88c.03,.07,.07,.15,.1,.22,.77,0,1.54,.02,2.3-.01,.28-.01,.58-.1,.83-.24,.79-.44,1.56-.93,2.34-1.4,.17-.1,.35-.2,.58-.32-.12-.04-.16-.06-.2-.07-2.67-.23-2.92-.17-5.16,1.34-.19,.13-.36,.26-.55,.38-.07,.05-.16,.07-.25,.1Zm-5.2-2.05c-.01-.05-.03-.1-.04-.15-.29,0-.59,.05-.88,0-1.19-.24-2.18,.15-3.11,.85-.49,.37-1.01,.7-1.52,1.05,.01,.04,.03,.08,.04,.11,.32,0,.65-.04,.96,0,1.13,.17,2.14-.02,2.98-.85,.16-.16,.41-.24,.61-.37,.32-.21,.64-.43,.95-.65Zm16.64,1.4c-1.19,.45-2.24,.85-3.33,1.26,.73,.38,1.38,.73,2.04,1.06,.07,.03,.18,.03,.25,0,.82-.29,1.64-.59,2.55-.92-.53-.49-1.05-.98-1.52-1.4Zm-24.72-1.63h-2.72c-.18,.3-.25,.56-.42,.68-.56,.39-1.16,.71-1.73,1.08-.14,.09-.25,.21-.41,.35,.5,0,.9-.03,1.3,0,.93,.1,1.69-.16,2.36-.84,.47-.48,1.06-.83,1.64-1.27Zm17.81,2.38c.02,.06,.04,.13,.07,.19,.24,0,.48-.04,.71,0,1,.22,1.88-.06,2.76-.54,.67-.37,1.4-.62,2.1-.92,0-.04,0-.09,.01-.13-.73-.14-1.47-.28-2.2-.41-.06-.01-.14,.08-.21,.12-.17,.11-.33,.24-.51,.33-.91,.46-1.82,.9-2.73,1.35Zm-14.03-2.39c-1.06,0-2.11-.26-3,.54-.32,.29-.71,.5-1.05,.75-.32,.23-.62,.47-.94,.71,.79,.09,1.55,.09,2.3,.09,.07,0,.15-.03,.2-.08,.81-.65,1.61-1.3,2.49-2.01Zm23.75,6.03c-.19-.56-.38-1.05-.54-1.56-.11-.36-.36-.48-.67-.42-.68,.14-1.34,.32-2.02,.49,.49,.66,.91,1.24,1.34,1.82,.04,.06,.16,.1,.22,.09,.53-.12,1.06-.27,1.66-.42Zm-.55,4.23c.16-.1,.26-.18,.38-.23,.73-.3,.9-.82,.68-1.55-.15-.5-.2-1.03-.31-1.6-.6,.14-1.11,.26-1.6,.37,.29,1.03,.57,1.99,.86,3.01Zm-35.3-8.17c.05,.07,.1,.14,.15,.2,.75-.07,1.56,.11,2.13-.65,.19-.25,.49-.43,.75-.63,.41-.31,.82-.6,1.31-.96-1.06-.03-2.02-.15-2.76,.7-.28,.32-.64,.58-.97,.86-.2,.17-.42,.32-.63,.47Zm35.75,22.04c.43-.21,.74-.51,.74-1.09,0-.73,.07-1.45,.11-2.18,0-.18,0-.37,0-.55-.05-.03-.09-.06-.14-.09-.23,.23-.65,.46-.67,.7-.08,1.06-.03,2.13-.03,3.21Zm0-4.35c.37-.25,.83-.41,.86-.62,.09-.82,.04-1.66,.04-2.49-.05-.02-.09-.04-.14-.06-.25,.29-.67,.56-.72,.88-.11,.7-.03,1.43-.03,2.3Zm-.04-6.58c.35-.33,.8-.55,.87-.86,.13-.58,.04-1.2,.04-1.92-.42,.27-.72,.44-.99,.64-.09,.06-.16,.22-.15,.32,.06,.57,.14,1.13,.23,1.81Zm.61,11.74s-.09-.05-.14-.08c-.21,.24-.55,.46-.6,.73-.14,.75-.16,1.52-.22,2.29,.03,.03,.07,.05,.1,.08,.22-.17,.6-.32,.63-.52,.13-.83,.16-1.67,.23-2.5Zm-1.27,6.52s.09,.05,.13,.07c.21-.2,.55-.36,.6-.59,.14-.74,.16-1.51,.23-2.27-.04-.03-.09-.05-.13-.08-.2,.21-.54,.39-.59,.63-.14,.73-.17,1.49-.25,2.23Zm.68-15.39s.08,.05,.13,.07c.26-.25,.68-.47,.74-.76,.12-.57,.03-1.19,.03-1.79l-.16-.07c-.25,.33-.62,.62-.71,.99-.12,.49-.03,1.03-.03,1.55Zm-.06,16.17c-.72,.29-1.02,1.03-.84,1.93,1-.34,.58-1.25,.84-1.93Zm-1.38,4.89c.98-.46,.69-1.36,.89-2.09-.24,.13-.53,.27-.59,.48-.15,.5-.2,1.03-.3,1.61Zm-36.13-34.69s.02,.06,.03,.1c.25-.03,.5-.05,.74-.09,.08-.01,.17-.07,.21-.13,.19-.36,.36-.72,.58-1.17-.55,.46-1.06,.87-1.56,1.29Zm36.4,35.82c-.54,0-.62,.24-.6,.55,.04,.03,.08,.06,.13,.09,.14-.19,.28-.38,.47-.64Z"/><path d="M40.23,71.79c.89-.63,1.78-1.26,2.68-1.88,.07-.05,.17-.05,.26-.04,1.58,.04,3.15,.09,4.81,.13-.12,.11-.18,.18-.25,.24-.75,.56-1.49,1.13-2.25,1.68-.1,.07-.24,.13-.36,.13-.56,.01-1.13,0-1.69,0-.02-.05-.04-.1-.06-.15,.57-.28,1.14-.57,1.71-.85,.15-.07,.34-.09,.44-.19,.11-.11,.2-.31,.18-.44-.02-.11-.22-.24-.35-.26-.2-.02-.43,0-.6,.1-.8,.45-1.61,.89-2.37,1.4-.29,.19-.54,.32-.88,.3-.41-.03-.82,0-1.23,0-.01-.06-.02-.11-.03-.17Z" fill="#fff"/><path d="M52.64,70.21c-1.02,.63-2.05,1.26-3.07,1.89-.07,.04-.17,.08-.25,.08-.88,0-1.77,0-2.65,0-.01-.06-.02-.11-.04-.17,.28-.2,.56-.41,.85-.6q2.05-1.37,4.5-1.29c.22,0,.44,0,.66,0,0,.03,0,.06,0,.09Z" fill="#fff"/><path d="M58.01,71.29c.49,.46,1,.93,1.49,1.39-1,.4-1.92,.76-2.85,1.11-.08,.03-.2,0-.28-.04-.61-.34-1.21-.69-1.91-1.09,1.17-.45,2.31-.89,3.55-1.38Z" fill="#fff"/><path d="M59.82,80.24c-.3-1.09-.58-2.12-.87-3.21,.6-.15,1.21-.31,1.82-.43,.09-.02,.3,.13,.32,.23,.14,.67,.26,1.34,.36,2.02,.02,.13-.07,.33-.17,.4-.45,.33-.93,.63-1.45,.98Z" fill="#fff"/><path d="M35.82,71.6c.97-.6,1.94-1.21,2.91-1.81,.08-.05,.2-.08,.29-.09,.77,0,1.54,0,2.31,0,.02,.06,.03,.12,.05,.18-.25,.19-.5,.38-.76,.56-.62,.42-1.24,.82-1.86,1.23-.11,.07-.24,.15-.36,.15-.84,.01-1.69,0-2.53,0-.02-.08-.04-.15-.05-.23Z" fill="#fff"/><path d="M60.84,75.67c-.76,.21-1.41,.4-2.07,.57-.09,.02-.25-.05-.31-.13-.39-.54-.77-1.09-1.19-1.69,.82-.36,1.66-.73,2.62-.68,.1,0,.26,.11,.3,.21,.23,.56,.43,1.13,.65,1.73Z" fill="#fff"/><path d="M33.3,69.67c-.56,.43-1.15,.77-1.6,1.24-.7,.72-1.51,.97-2.48,.86-.36-.04-.73,0-1.09,0-.02-.04-.04-.08-.06-.12,.61-.4,1.19-.86,1.84-1.18,.37-.18,.57-.33,.47-.79h2.91Z" fill="#fff"/><path d="M51.08,72.07c.92-.46,1.85-.91,2.77-1.37,.18-.09,.34-.22,.51-.33,.07-.04,.15-.14,.21-.13,.74,.13,1.47,.27,2.2,.41,0,.05,0,.09,0,.14-.46,.19-.92,.37-1.38,.57-.37,.16-.78,.27-1.09,.51-1,.76-2.08,.41-3.15,.33-.02-.05-.04-.09-.06-.14Z" fill="#fff"/><path d="M37.13,69.62c-.92,.75-1.71,1.39-2.52,2.03-.08,.07-.22,.1-.33,.1-.71,0-1.43,0-2.14,0,0-.05-.02-.1-.01-.1,.91-.64,1.81-1.3,2.74-1.92,.17-.11,.43-.1,.64-.11,.51-.01,1.03,0,1.61,0Z" fill="#fff"/><path d="M61.62,89.99c-.07,1.05-.13,2.1-.21,3.14,0,.1-.08,.23-.17,.29-.35,.29-.72,.57-1.11,.89-.02-.08-.05-.15-.05-.21,.03-.99,.06-1.99,.12-2.98,.01-.18,.15-.38,.29-.51,.31-.27,.65-.49,.98-.73,.05,.03,.09,.06,.14,.09Z" fill="#fff"/><path d="M29.24,69.71c-.83,.68-1.62,1.35-2.43,2-.1,.08-.24,.13-.36,.14-.44,.04-.88,.05-1.46,.08,.2-.22,.3-.35,.42-.46,.49-.43,1-.85,1.47-1.3,.35-.33,.73-.48,1.2-.46,.38,.02,.76,0,1.15,0Z" fill="#fff"/><path d="M60.22,87.25c.5-.34,.92-.63,1.4-.96,0,.88,0,1.71,0,2.55,0,.07-.08,.15-.15,.19-.4,.22-.8,.42-1.24,.65v-2.43Z" fill="#fff"/><path d="M60.19,83.29c-.09-.72-.17-1.39-.25-2.06,0-.05,.05-.14,.1-.17,.48-.3,.96-.59,1.56-.96,0,.69,0,1.28,0,1.87,0,.06-.05,.14-.11,.19-.42,.37-.85,.74-1.31,1.15Z" fill="#fff"/><path d="M61.31,94.59c-.06,.82-.12,1.65-.2,2.47,0,.09-.09,.19-.16,.24-.35,.22-.7,.42-1.15,.69,.03-.47,.08-.87,.06-1.27-.03-.78,.22-1.39,.9-1.82,.16-.1,.29-.24,.43-.36,.04,.02,.08,.03,.12,.05Z" fill="#fff"/><path d="M61,98.34c-.07,.76-.14,1.52-.22,2.28,0,.09-.1,.19-.18,.24-.35,.24-.71,.47-1.14,.75,.07-.82,.11-1.56,.22-2.28,.03-.17,.3-.31,.47-.46,.24-.2,.49-.4,.74-.6,.03,.02,.07,.05,.1,.07Z" fill="#fff"/><path d="M61.63,83.17c0,.67,0,1.21,0,1.76,0,.11-.06,.24-.14,.31-.4,.35-.81,.69-1.3,1.1,0-.68,0-1.28,0-1.88,0-.04,.01-.1,.04-.12,.43-.37,.87-.73,1.4-1.16Z" fill="#fff"/><path d="M58.66,107.4c.13-.83,.26-1.66,.37-2.37,.43-.09,.77-.17,1.11-.25,.16,.89-.28,1.69-1.49,2.6h0Z" fill="#fff"/><path d="M59.14,104.26c.06-.5,.12-.98,.19-1.46,.01-.08,.05-.19,.11-.22,.37-.23,.75-.45,1.12-.67,.13,1.14-.26,1.96-1.43,2.36Z" fill="#fff"/><path d="M58.65,107.39c.05,.55,.15,.63,.81,.52-.17,.71-.93,.78-1.28,1.26h0c.16-.58,.31-1.18,.47-1.77,0,0-.01-.01-.01-.01Z" fill="#fff"/><path d="M58.19,109.17c.13,.21,.27,.42,.47,.74-.26,.27-.58,.6-.91,.94-.04-.03-.08-.06-.13-.09,.19-.52,.38-1.05,.57-1.57,0,0-.01,0-.01,0Z" fill="#fff"/><path d="M24.7,70.91c-.22,.35-.44,.69-.69,1.1-.18,.02-.46,.06-.73,.1-.02-.03-.03-.05-.05-.08,.48-.4,.96-.79,1.44-1.19,.01,.02,.02,.04,.03,.07Z" fill="#fff"/><path d="M94.99,69.26c-.55,.38-1.09,.73-1.6,1.12-.49,.39-1.08,.71-1.23,1.39h-2.38l-.07-.17c.6-.37,1.19-.75,1.8-1.09,.28-.16,.6-.25,.91-.37,.24-.1,.47-.26,.33-.53-.07-.14-.34-.23-.53-.26-.16-.02-.36,.05-.51,.13-.75,.42-1.51,.84-2.22,1.31-.32,.21-.53,.58-.84,.92-.7-.03-1.48-.07-2.39-.12,.39-.23,.68-.37,.95-.56,.86-.6,1.71-1.23,2.58-1.83,.12-.09,.3-.15,.45-.15,1.55,.03,3.1,.08,4.65,.13,.02,0,.05,.03,.11,.07Z" fill="#fff"/><path d="M99.71,69.43c-.63,.36-1.26,.71-1.87,1.09-.64,.41-1.25,.85-1.88,1.28-.09,.06-.21,.12-.31,.13-.84,.01-1.69,0-2.53,0-.03-.07-.07-.14-.1-.21,.16-.12,.31-.25,.47-.36,.99-.65,1.99-1.3,2.99-1.94,.14-.09,.33-.15,.5-.15,.91-.01,1.81,0,2.72,0,0,.05,.01,.11,.02,.16Z" fill="#fff"/><path d="M88.42,69.1c-.31,.22-.63,.42-.93,.65-.76,.56-1.52,1.13-2.29,1.69-.09,.06-.2,.13-.3,.14-.86,.01-1.72,0-2.58,0-.02-.04-.03-.09-.05-.13,.11-.12,.2-.27,.34-.36,1.02-.69,2.05-1.37,3.08-2.05,.13-.08,.3-.13,.46-.14,.74-.01,1.48,0,2.23,0,.02,.07,.04,.13,.05,.2Z" fill="#fff"/><path d="M77.6,68.86h2.75c-.53,.4-1.04,.76-1.5,1.15-.52,.44-1.01,.92-1.52,1.38-.07,.07-.17,.15-.25,.15-.87,.01-1.75,0-2.71,0,.32-.27,.57-.54,.87-.74,.65-.44,1.34-.82,1.98-1.27,.17-.12,.23-.4,.38-.68Z" fill="#fff"/><path d="M101.04,72.07c1.3-.52,2.6-1.03,4-1.59,.48,.44,1,.93,1.57,1.45-.77,.24-1.47,.36-2.05,.68-.73,.4-1.36,.45-2.09,.03-.43-.24-.95-.3-1.43-.44,0-.04,0-.09,0-.13Z" fill="#fff"/><path d="M103.9,69.91c-1.17,.53-2.26,.92-3.23,1.51-.85,.52-1.69,.71-2.65,.56-.23-.04-.47,0-.71,0-.03-.05-.07-.1-.1-.15,.07-.02,.15-.03,.21-.06,1.19-.63,2.39-1.26,3.58-1.89,.07-.03,.17-.04,.2-.1,.3-.5,.74-.31,1.14-.23,.49,.1,.97,.23,1.55,.36Z" fill="#fff"/><path d="M84.19,68.82c-.96,.95-2.32,1.31-2.78,2.67h-3.03c.26-.23,.44-.4,.64-.54,.83-.6,1.67-1.19,2.5-1.79,.35-.26,.73-.37,1.17-.34,.47,.03,.94,0,1.51,0Z" fill="#fff"/><path d="M71.76,70.12c-.17,.24-.37,.47-.5,.73-.19,.38,.05,.79,.45,.83,.28,.02,.43-.1,.48-.4,.03-.2,.09-.43,.23-.56,.59-.55,1.2-1.06,1.82-1.58,.09-.07,.2-.16,.3-.17,.58-.04,1.17-.06,1.88-.1-.72,.55-1.34,.97-1.9,1.47-.4,.36-.71,.81-1.07,1.22-.05,.06-.13,.12-.2,.13-1.34,.16-2.68,.31-4.04,.47,.83-.7,1.67-1.4,2.5-2.11,.02,.03,.04,.06,.06,.09Z" fill="#fff"/><path d="M104.39,73.59c.72-.35,1.49-.61,2.31-.69,.31-.03,.53,.08,.64,.41,.16,.51,.35,1.01,.54,1.57-.63,.16-1.21,.32-1.8,.46-.06,.01-.17-.05-.22-.1-.49-.53-.97-1.08-1.47-1.64Z" fill="#fff"/><path d="M107.43,79.05c-.33-1.01-.64-1.95-.98-2.96,.44-.1,.91-.22,1.39-.3,.08-.01,.26,.13,.28,.23,.14,.68,.26,1.37,.37,2.06,.02,.11-.04,.28-.12,.34-.29,.22-.61,.41-.94,.63Z" fill="#fff"/><path d="M108.03,92.88c0-1.17,0-2.2,0-3.24,0-.39,.31-.4,.64-.52-.07,1.12-.13,2.18-.23,3.23-.02,.17-.24,.32-.41,.52Z" fill="#fff"/><path d="M108.66,79.41c0,.56,.07,1.14-.03,1.68-.06,.29-.42,.52-.72,.85-.12-.69-.22-1.24-.3-1.79-.01-.09,.05-.23,.13-.29,.25-.19,.51-.34,.77-.51,.05,.02,.1,.04,.15,.06Z" fill="#fff"/><path d="M108.67,85.53c0,.82,.03,1.65-.02,2.47,0,.16-.33,.29-.5,.44-.04-.03-.08-.05-.12-.08,0-.76-.04-1.53,.02-2.29,.02-.21,.33-.4,.51-.6,.04,.02,.08,.04,.12,.06Z" fill="#fff"/><path d="M108.67,82.48c0,.55,.05,1.1-.02,1.64-.04,.25-.32,.47-.49,.7-.07-.02-.13-.05-.2-.07,0-.54-.06-1.09,.03-1.62,.04-.27,.35-.49,.54-.73l.15,.08Z" fill="#fff"/><path d="M108.35,93.79c-.07,.83-.12,1.67-.21,2.5-.01,.13-.22,.23-.34,.34-.03-.02-.07-.04-.1-.06,.06-.82,.1-1.63,.19-2.45,.02-.14,.22-.27,.34-.4,.04,.02,.08,.04,.13,.06Z" fill="#fff"/><path d="M108.04,97.53c-.07,.75-.12,1.5-.22,2.24-.02,.14-.21,.27-.32,.4-.04-.02-.07-.04-.11-.06,.06-.75,.11-1.51,.2-2.25,.02-.14,.22-.26,.33-.39,.04,.02,.07,.04,.11,.06Z" fill="#fff"/><path d="M107.62,101.13c-.14,.56,.1,1.22-.43,1.66,.1-.57-.22-1.25,.43-1.66Z" fill="#fff"/><path d="M106.73,105.61c.14-.57,.02-1.21,.39-1.73,.05,.01,.1,.02,.15,.03-.12,.58-.23,1.15-.35,1.73-.06-.01-.13-.03-.19-.04Z" fill="#fff"/><path d="M142.93,70.34c-.33,.22-.65,.43-.96,.64-.32,.22-.68,.41-.93,.69-.51,.57-1.12,.7-1.84,.62-.25-.03-.5,0-.75,0-.02-.06-.04-.11-.06-.17,.56-.27,1.11-.55,1.67-.82,.13-.06,.31-.08,.41-.17,.11-.11,.24-.3,.21-.43-.02-.12-.23-.27-.37-.29-.2-.02-.43,.01-.6,.11-.8,.45-1.6,.9-2.37,1.41-.26,.17-.49,.3-.8,.28-.42-.04-.85-.05-1.31-.18,.88-.62,1.76-1.24,2.64-1.86,.07-.05,.17-.05,.26-.05,1.56,.04,3.13,.09,4.69,.14,.02,0,.04,.03,.11,.08Z" fill="#fff"/><path d="M141.56,72.23c.08-.03,.17-.05,.25-.1,.19-.12,.37-.25,.55-.38,2.23-1.51,2.49-1.57,5.16-1.34,.04,0,.08,.03,.2,.07-.23,.13-.41,.22-.58,.32-.78,.47-1.55,.95-2.34,1.4-.25,.14-.55,.23-.83,.24-.77,.03-1.54,.01-2.3,.01-.03-.07-.07-.15-.1-.22Z" fill="#fff"/><path d="M136.36,70.18c-.32,.22-.63,.44-.95,.65-.2,.13-.44,.21-.61,.37-.84,.83-1.85,1.02-2.98,.85-.31-.05-.64,0-.96,0-.01-.04-.03-.08-.04-.11,.51-.35,1.02-.68,1.52-1.05,.93-.7,1.92-1.09,3.11-.85,.28,.06,.58,0,.88,0,.01,.05,.03,.1,.04,.15Z" fill="#fff"/><path d="M153,71.57c.46,.43,.99,.91,1.52,1.4-.92,.33-1.73,.63-2.55,.92-.08,.03-.18,.03-.25,0-.66-.33-1.31-.68-2.04-1.06,1.09-.41,2.14-.81,3.33-1.26Z" fill="#fff"/><path d="M128.28,69.94c-.57,.44-1.17,.79-1.64,1.27-.67,.68-1.43,.93-2.36,.84-.4-.04-.8,0-1.3,0,.16-.14,.28-.26,.41-.35,.58-.36,1.17-.69,1.73-1.08,.17-.12,.24-.38,.42-.68h2.72Z" fill="#fff"/><path d="M146.1,72.32c.91-.45,1.83-.89,2.73-1.35,.18-.09,.34-.22,.51-.33,.07-.04,.15-.14,.21-.12,.74,.13,1.47,.27,2.2,.41,0,.04,0,.09-.01,.13-.7,.3-1.44,.56-2.1,.92-.87,.48-1.75,.76-2.76,.54-.23-.05-.47,0-.71,0-.02-.06-.04-.13-.07-.19Z" fill="#fff"/><path d="M132.06,69.93c-.87,.71-1.68,1.36-2.49,2.01-.05,.04-.13,.07-.2,.08-.75,0-1.51,0-2.3-.09,.31-.24,.62-.48,.94-.71,.35-.25,.74-.46,1.05-.75,.89-.81,1.93-.55,3-.54Z" fill="#fff"/><path d="M155.82,75.95c-.61,.16-1.13,.3-1.66,.42-.06,.02-.18-.03-.22-.09-.43-.58-.86-1.16-1.34-1.82,.67-.17,1.34-.35,2.02-.49,.31-.06,.56,.06,.67,.42,.15,.51,.34,1,.54,1.56Z" fill="#fff"/><path d="M155.27,80.18c-.29-1.02-.57-1.99-.86-3.01,.5-.12,1.01-.24,1.6-.37,.11,.57,.16,1.1,.31,1.6,.22,.74,.06,1.25-.68,1.55-.12,.05-.23,.14-.38,.23Z" fill="#fff"/><path d="M119.97,72.01c.21-.16,.43-.31,.63-.47,.33-.28,.69-.53,.97-.86,.74-.85,1.7-.74,2.76-.7-.49,.36-.91,.65-1.31,.96-.26,.2-.56,.37-.75,.63-.57,.76-1.38,.59-2.13,.65-.05-.07-.1-.14-.15-.2Z" fill="#fff"/><path d="M155.72,94.06c0-1.07-.04-2.14,.03-3.21,.02-.25,.44-.47,.67-.7,.05,.03,.09,.06,.14,.09,0,.18,0,.37,0,.55-.04,.73-.11,1.46-.11,2.18,0,.58-.3,.89-.74,1.09Z" fill="#fff"/><path d="M155.71,89.71c0-.86-.08-1.6,.03-2.3,.05-.32,.47-.59,.72-.88,.05,.02,.09,.04,.14,.06,0,.83,.05,1.67-.04,2.49-.02,.21-.49,.37-.86,.62Z" fill="#fff"/><path d="M155.68,83.12c-.09-.67-.17-1.24-.23-1.81-.01-.1,.06-.26,.15-.32,.27-.2,.56-.37,.99-.64,0,.72,.09,1.34-.04,1.92-.07,.31-.52,.53-.87,.86Z" fill="#fff"/><path d="M156.29,94.86c-.07,.84-.09,1.68-.23,2.5-.03,.2-.41,.35-.63,.52-.03-.03-.07-.05-.1-.08,.07-.76,.08-1.54,.22-2.29,.05-.27,.39-.49,.6-.73,.05,.03,.09,.05,.14,.08Z" fill="#fff"/><path d="M155.02,101.38c.07-.75,.11-1.5,.25-2.23,.05-.24,.38-.42,.59-.63,.04,.03,.09,.05,.13,.08-.07,.76-.1,1.52-.23,2.27-.04,.23-.39,.4-.6,.59-.04-.02-.09-.05-.13-.07Z" fill="#fff"/><path d="M155.7,86c0-.52-.09-1.06,.03-1.55,.09-.37,.46-.66,.71-.99l.16,.07c0,.6,.08,1.21-.03,1.79-.06,.29-.48,.51-.74,.76-.04-.02-.08-.05-.13-.07Z" fill="#fff"/><path d="M155.63,102.17c-.26,.69,.16,1.6-.84,1.93-.18-.91,.12-1.64,.84-1.93Z" fill="#fff"/><path d="M154.26,107.05c.1-.58,.15-1.11,.3-1.61,.06-.21,.36-.35,.59-.48-.2,.72,.09,1.63-.89,2.09Z" fill="#fff"/><path d="M118.13,72.36c.5-.42,1.01-.83,1.56-1.29-.22,.44-.39,.81-.58,1.17-.03,.06-.13,.12-.21,.13-.24,.04-.49,.06-.74,.09-.01-.03-.02-.06-.03-.1Z" fill="#fff"/><path d="M154.53,108.18c-.19,.26-.33,.45-.47,.64-.04-.03-.08-.06-.13-.09-.02-.31,.06-.54,.6-.55Z" fill="#fff"/><path d="M27.42,80.51c-.3,.51-.6,1.01-.89,1.53-.24,.43-.46,.88-.69,1.32-.19,.35-.5,.28-.78,.17-.31-.12-.38-.39-.22-.66,.78-1.27,1.56-2.52,2.35-3.78,.17-.28,.41-.5,.77-.4,.38,.11,.5,.42,.48,.77-.06,1.41-.13,2.82-.22,4.23-.05,.76-.14,1.51-.21,2.27-.02,.2-.07,.4-.12,.64,.12-.02,.24-.04,.37-.07,1.93-.48,3.87-.96,5.8-1.44,.31-.08,.59-.03,.7,.3,.12,.37-.11,.57-.43,.65-1.2,.3-2.4,.6-3.6,.87-1.87,.43-3.74,.84-5.62,1.25-.4,.09-.83,.11-1.24,.13-.34,.01-.64-.1-.69-.49-.05-.36,.23-.49,.52-.56,.43-.1,.87-.36,1.32-.02,.07,.05,.23,.01,.35-.01,.65-.14,1.31-.29,2.05-.45-.55-.35-.4-.79-.35-1.27,.19-1.64,.31-3.28,.45-4.93-.04-.01-.08-.03-.11-.04Z"/><path d="M72.72,83.37c.57,.19,1.11,.39,1.65,.54,1.66,.48,3.34,.88,5.09,.9,.28,0,.52,.11,.54,.41,.02,.33-.22,.51-.52,.48-1.05-.08-2.11-.12-3.14-.33-1.28-.26-2.52-.7-3.79-1.03-.34-.09-.72-.06-1.07-.08-.18-.01-.37,.02-.53-.04-.32-.11-.54-.33-.49-.7,.05-.36,.33-.56,.64-.49,.7,.15,.93-.31,1.15-.78,.45-.98,.69-2,.45-3.08-.05-.24-.13-.5-.27-.7-.11-.15-.34-.2-.51-.3-.08,.22-.19,.43-.23,.66-.02,.1,.16,.22,.18,.34,.03,.18,.08,.48-.01,.54-.14,.1-.45,.12-.58,.02-.44-.31-.56-.8-.5-1.31,.07-.58,.4-.98,.98-1.16,.51-.15,.92,.04,1.24,.4,.47,.52,.65,1.16,.7,1.84,.11,1.36-.19,2.63-.98,3.84Z"/><path d="M119.83,80.05c.26,.17,.5,.31,.72,.48,.7,.53,1.12,1.23,1.24,2.1,.12,.88-.16,1.6-.94,2.06-1.04,.61-2.16,1.01-3.33,1.24-.31,.06-.63,.04-.7-.35-.07-.39,.23-.48,.53-.59,.91-.31,1.84-.6,2.73-.98,.78-.33,.95-.84,.67-1.64-.22-.64-.66-1.09-1.26-1.37-.23-.11-.5-.14-.71-.27-.18-.11-.4-.31-.43-.49-.02-.15,.19-.36,.33-.51,.27-.29,.62-.52,.82-.84,.14-.23,.14-.57,.14-.85,0-.11-.18-.28-.3-.32-.08-.03-.27,.1-.33,.2-.17,.28-.38,.43-.7,.3-.43-.16-.32-.56-.33-.89,0-.3,.21-.39,.49-.39,.14,0,.29-.05,.43-.09,.9-.23,1.61,.28,1.69,1.2,.07,.78-.23,1.42-.75,2Z"/></svg>