<?xml version="1.0" encoding="UTF-8"?><svg id="Calque_1" xmlns="http://www.w3.org/2000/svg" viewBox="0 0 173.84 178.2"><path d="M128.83,85.2c.23,2.01-.2,3.96-.56,5.92-.45,2.38-1.59,4.45-3.04,6.36-.97,1.28-1.92,2.57-2.91,3.83-1.4,1.78-3.18,3.07-5.26,3.93-.62,.26-1.32,.37-2,.41-5.18,.33-10.35,.69-15.54,.91-3.43,.14-6.87,.04-10.3,.05-1.41,0-2.83,.07-4.24,.06-1.99-.02-3.98-.06-5.97-.13-1.63-.06-3.27-.12-4.9-.26-3.46-.29-6.92-.67-10.39-.96-3.42-.28-6.76-.99-10.07-1.84-.96-.25-1.91-.57-2.83-.93-1.89-.74-3.08-2.2-3.97-3.97-1.31-2.61-1.36-5.36-.96-8.16,.33-2.3,.98-4.52,1.88-6.67,.71-1.7,1.75-3.17,3-4.5,2.45-2.59,5.24-4.74,8.31-6.53,1.41-.82,2.86-1.57,4.46-1.99,.44-.12,.86-.36,1.3-.45,.68-.13,1.37-.22,2.06-.25,2.26-.12,4.51-.24,6.77-.3,3.6-.1,7.2-.12,10.79-.26,2.4-.1,4.8-.4,7.2-.55,3.67-.24,7.34-.24,11.01,.03,3.13,.23,6.22,.77,9.31,1.36,2.7,.51,5.33,1.23,7.91,2.15,1.98,.7,3.81,1.74,5.42,3.05,1.75,1.42,2.78,3.35,3.14,5.59,.22,1.36,.34,2.74,.5,4.11-.05,0-.1,0-.15,0Zm-28.3,18.59s0-.01,0-.02c1.8,0,3.6,.06,5.39-.02,2.48-.11,4.95-.34,7.43-.48,1.74-.1,3.35-.59,4.73-1.64,.63-.47,1.27-1.06,1.61-1.74,1.15-2.27,2.18-4.61,3.23-6.93,.58-1.27,.95-2.6,.74-4.02-.15-1.04-.31-2.09-.51-3.12-.12-.59-.24-1.21-.52-1.74-1.88-3.6-4.78-6.01-8.72-6.99-3.01-.75-6.07-1.28-9.11-1.9-2.3-.47-4.62-.65-6.96-.59-2.75,.07-5.5,.19-8.25,.21-6.26,.06-12.51-.02-18.76,.28-2.39,.11-4.78,.12-7.16,.19-.63,.02-1.28,.06-1.89,.2-2.49,.57-4.84,1.45-6.9,3.02-2.08,1.59-3.61,3.58-4.55,6.02-.56,1.46-1.13,2.91-1.42,4.45-.11,.59-.33,1.17-.43,1.77-.3,1.8-.26,3.61-.09,5.42,.08,.86,.4,1.63,1.12,2.18,1.53,1.19,3.17,2.18,5.02,2.82,3.62,1.26,7.31,2.05,11.17,2.04,1.38,0,2.76,.17,4.14,.18,2.62,.01,5.24,.07,7.85-.09,3.01-.18,6-.12,9,.03,2.33,.12,4.65,.37,6.98,.45,2.29,.08,4.58,.02,6.87,.02Zm6.73-30.53s.02,.09,.04,.13c.22,.05,.44,.08,.65,.14,.98,.26,1.95,.38,2.95-.01,.58-.23,1.22-.32,1.83-.47-.92-.27-1.84-.46-2.75-.63-.11-.02-.25-.04-.35,0-.79,.27-1.58,.56-2.36,.85Zm12.4,3.82c.47,.33,.87,.65,1.48,.55,.43-.07,.89,.01,1.33,.02,.24,0,.48,0,.72,0,.01-.04,.03-.07,.04-.11-.41-.36-.81-.73-1.23-1.08-.06-.05-.2-.08-.28-.05-.68,.21-1.35,.44-2.06,.68Zm6.19,4.05c-.5,.19-.91,.35-1.31,.5,.22,.57,.42,1.09,.62,1.62,.41-.05,.78-.09,1.22-.15-.18-.68-.34-1.29-.53-1.98Zm-17.33-9.02c-.52-.1-.91-.19-1.29-.25-.12-.02-.27-.02-.38,.02-.57,.23-1.14,.48-1.71,.73-.21,.09-.42,.17-.63,.26,.56,.15,1.14,.37,1.63,.25,.78-.2,1.51-.62,2.38-1Zm18.41,15.17c-.02-.35-.02-.69-.07-1.03-.1-.74-.17-.78-.92-.65-.14,.02-.37,.13-.37,.2,0,.55,.04,1.1,.06,1.66,.46-.07,.84-.12,1.29-.19Zm-8.28-12.76c0-.06-.01-.12-.02-.17-1.5-.05-2.97,.19-4.44,.58,.48,.18,.99,.46,1.45,.38,1.02-.17,2-.51,3-.79Zm-48.55-1.66c.71,0,1.33-.05,1.94,.01,.79,.07,1.38-.27,1.97-.82-1.35,.07-2.69-.15-3.91,.81Zm50.49,2.75c.01-.06,.02-.12,.03-.18-.27-.16-.53-.35-.81-.46-.14-.06-.35-.03-.5,.03-.35,.14-.67,.34-1.02,.48-.35,.14-.71,.24-1.17,.4,.21,.09,.32,.19,.41,.17,1.02-.14,2.03-.3,3.05-.45Zm4.02,3.39c-.29-.23-.49-.53-.74-.58-.72-.14-1.47-.18-2.27-.27,.8,1.02,1.74,1.23,3.02,.85Zm-25.4-6.77c1.24,.33,2.93-.09,3.83-.89-.4,0-.76-.05-1.09,.01-.35,.07-.68,.25-1.03,.36-.57,.18-1.14,.35-1.71,.52Zm-34.54,.87v.11c.94-.06,1.87-.17,2.8-.16,.76,.01,1.3-.36,1.87-.74-.01-.04-.02-.09-.03-.13l-4.63,.92Zm58.6,6.62c.28,.41,.48,.72,.69,1.02,.04,.06,.15,.14,.2,.13,.42-.1,.84-.22,1.25-.33-.16-.67-.53-.91-1.15-.83-.29,.04-.59,0-.99,0Zm-43.34-6.99c1.22,.34,2.13-.24,3.04-.87-1.18-.27-2.13,.21-3.04,.87Zm46.7,12.22c-.06-.42-.12-.8-.19-1.23-.43,.04-.8,.08-1.2,.12,.09,.47,.16,.86,.23,1.26,.41-.05,.76-.1,1.16-.15Zm-36.37-13.25c-1.21-.2-2.22,.25-3.23,.72,1.06-.23,2.29,.32,3.23-.72Zm-7.55,1.03c.83,.1,1.48-.08,2.06-.53,.09-.07,.2-.13,.3-.19,.4-.23,.55-.16,.66,.3,.34-.18,.68-.35,1.12-.58-1.55-.11-2.85,.25-4.14,1Zm43.95,16.46c.08-.36,.16-.79,.25-1.22-1.34-.04-1.45,.11-1.24,1.06,.32,.05,.63,.1,.99,.16Zm-10.06-15.39c-1.46-.74-2.54,.22-3.71,.75,1.23-.25,2.46-.49,3.71-.75Zm8.87,17.63c.82-.34,.61-1.11,.95-1.62-.22-.07-.37-.16-.52-.15-.11,0-.29,.13-.3,.22-.06,.48-.09,.96-.13,1.55Zm-48.05-18.58c.88,.02,1.45-.62,2.17-.9-.46-.04-.9-.04-1.34-.03-.08,0-.18,.04-.22,.1-.19,.25-.37,.51-.6,.83Zm24.95-.25c1.05-.06,1.89-.67,2.82-1.02-1.17-.28-1.91,.62-2.82,1.02Zm-27.6,.13c1.03,.31,1.7-.08,2.3-.74-.91-.23-1.47,.47-2.3,.74Zm20.38-.63c1,.24,1.46,.08,1.98-.71-.66,.24-1.32,.47-1.98,.71Zm-.28-.52c-.81-.05-1.46,.02-1.92,.63,.72,.13,1.27-.22,1.92-.63Zm-4.16,.52c.02,.05,.03,.11,.05,.16,.63,.04,1.27,.08,1.67-.55-.02-.05-.03-.1-.05-.16l-1.67,.55Zm6.9,.18c.69-.29,1.38-.57,2.18-.9-1.07-.05-1.31,.05-2.18,.9Zm28.15,19.68c-.44,.11-.59,.56-.47,1.34,.18-.5,.31-.88,.47-1.34Z"/><path d="M107.26,73.26c.79-.28,1.57-.57,2.36-.85,.11-.04,.24-.02,.35,0,.91,.18,1.83,.37,2.75,.63-.61,.15-1.25,.24-1.83,.47-1,.39-1.96,.27-2.95,.01-.21-.06-.43-.09-.65-.14-.01-.04-.02-.09-.04-.13Z" fill="#fff"/><path d="M119.66,77.08c.72-.24,1.39-.46,2.06-.68,.08-.03,.21,0,.28,.05,.42,.35,.82,.72,1.23,1.08-.01,.04-.03,.07-.04,.11-.24,0-.48,0-.72,0-.44,0-.9-.09-1.33-.02-.61,.1-1.01-.21-1.48-.55Z" fill="#fff"/><path d="M125.85,81.13c.18,.69,.35,1.3,.53,1.98-.44,.05-.81,.1-1.22,.15-.2-.53-.4-1.05-.62-1.62,.4-.16,.81-.31,1.31-.5Z" fill="#fff"/><path d="M108.52,72.11c-.87,.38-1.59,.81-2.38,1-.49,.12-1.07-.09-1.63-.25,.21-.09,.42-.17,.63-.26,.57-.24,1.13-.49,1.71-.73,.11-.05,.26-.04,.38-.02,.39,.06,.77,.15,1.29,.25Z" fill="#fff"/><path d="M126.93,87.28c-.45,.07-.83,.12-1.29,.19-.03-.55-.07-1.11-.06-1.66,0-.07,.23-.18,.37-.2,.75-.13,.82-.09,.92,.65,.05,.33,.05,.67,.07,1.03Z" fill="#fff"/><path d="M118.65,74.52c-1,.27-1.99,.62-3,.79-.46,.08-.97-.2-1.45-.38,1.47-.39,2.94-.63,4.44-.58,0,.06,.01,.12,.02,.17Z" fill="#fff"/><path d="M70.11,72.86c1.22-.96,2.56-.74,3.91-.81-.6,.55-1.18,.89-1.97,.82-.61-.06-1.23-.01-1.94-.01Z" fill="#fff"/><path d="M120.59,75.61c-1.02,.15-2.03,.31-3.05,.45-.09,.01-.2-.08-.41-.17,.46-.16,.82-.26,1.17-.4,.35-.14,.67-.34,1.02-.48,.15-.06,.36-.09,.5-.03,.29,.12,.54,.3,.81,.46-.01,.06-.02,.12-.03,.18Z" fill="#fff"/><path d="M124.61,78.99c-1.27,.38-2.22,.17-3.02-.85,.8,.09,1.55,.13,2.27,.27,.25,.05,.46,.34,.74,.58Z" fill="#fff"/><path d="M99.21,72.22c.57-.17,1.14-.34,1.71-.52,.35-.11,.68-.29,1.03-.36,.33-.06,.69-.01,1.09-.01-.9,.8-2.59,1.22-3.83,.89Z" fill="#fff"/><path d="M64.67,73.08l4.63-.92s.02,.09,.03,.13c-.57,.38-1.1,.76-1.87,.74-.93-.02-1.86,.1-2.79,.16v-.11Z" fill="#fff"/><path d="M123.26,79.71c.4,0,.7,.03,.99,0,.62-.08,.99,.16,1.15,.83-.41,.11-.82,.23-1.25,.33-.06,.01-.16-.07-.2-.13-.21-.3-.41-.61-.69-1.02Z" fill="#fff"/><path d="M79.93,72.72c.91-.65,1.86-1.14,3.04-.87-.9,.63-1.81,1.21-3.04,.87Z" fill="#fff"/><path d="M126.63,84.93c-.4,.05-.74,.09-1.16,.15-.07-.4-.14-.78-.23-1.26,.4-.04,.78-.08,1.2-.12,.06,.43,.12,.82,.19,1.23Z" fill="#fff"/><path d="M90.26,71.68c-.94,1.03-2.17,.49-3.23,.72,1-.47,2.01-.92,3.23-.72Z" fill="#fff"/><path d="M82.71,72.71c1.29-.75,2.58-1.11,4.14-1-.44,.23-.78,.4-1.12,.58-.11-.47-.26-.53-.66-.3-.1,.06-.21,.12-.3,.19-.57,.46-1.23,.64-2.06,.53Z" fill="#fff"/><path d="M126.66,89.17c-.36-.06-.67-.11-.99-.16-.2-.95-.09-1.1,1.24-1.06-.09,.44-.18,.86-.25,1.22Z" fill="#fff"/><path d="M116.6,73.78c-1.25,.25-2.48,.5-3.71,.75,1.17-.52,2.25-1.49,3.71-.75Z" fill="#fff"/><path d="M125.47,91.41c.05-.59,.07-1.07,.13-1.55,.01-.09,.19-.22,.3-.22,.15,0,.3,.08,.52,.15-.34,.52-.13,1.29-.95,1.62Z" fill="#fff"/><path d="M77.42,72.83c.23-.32,.41-.59,.6-.83,.04-.06,.15-.1,.22-.1,.44,0,.88,0,1.34,.03-.72,.27-1.29,.92-2.17,.9Z" fill="#fff"/><path d="M102.37,72.58c.92-.4,1.66-1.31,2.82-1.02-.94,.36-1.78,.97-2.82,1.02Z" fill="#fff"/><path d="M74.77,72.71c.83-.26,1.39-.97,2.3-.74-.6,.66-1.27,1.04-2.3,.74Z" fill="#fff"/><path d="M95.15,72.08c.66-.24,1.32-.47,1.98-.71-.52,.78-.98,.95-1.98,.71Z" fill="#fff"/><path d="M94.87,71.56c-.65,.41-1.2,.76-1.92,.63,.46-.62,1.11-.68,1.92-.63Z" fill="#fff"/><path d="M90.71,72.08l1.67-.55c.02,.05,.03,.1,.05,.16-.41,.63-1.04,.59-1.67,.55-.02-.05-.03-.11-.05-.16Z" fill="#fff"/><path d="M97.61,72.26c.86-.85,1.11-.95,2.18-.9-.79,.33-1.48,.61-2.18,.9Z" fill="#fff"/><path d="M125.76,91.94c-.16,.46-.3,.84-.47,1.34-.12-.78,.03-1.23,.47-1.34Z" fill="#fff"/><path d="M79.83,90.14c-.32,.13-.57,.17-.72,.31-1.1,.93-2.18,1.88-3.26,2.84-.21,.18-.59,.37-.33,.7,.26,.33,.54,.02,.76-.16,1.07-.89,2.13-1.8,3.24-2.73-.09,.25-.17,.49-.27,.72-2.51,5.49-6.73,8.82-12.68,9.82-2.95,.49-5.79-.02-8.31-1.74-2.47-1.7-3.86-4.08-4.18-7.05-.44-4.16,1.11-7.66,3.82-10.7,2.47-2.77,5.54-4.57,9.22-5.21,3.49-.61,6.77-.09,9.59,2.21,2.23,1.82,3.34,4.24,3.52,7.09,.05,.82-.03,1.66-.11,2.49-.05,.51-.2,1.02-.28,1.43Zm-25.23,2.02c.08,.13,.14,.32,.26,.36,.1,.03,.31-.06,.39-.16,.61-.71,1.15-1.47,1.8-2.14,.89-.91,1.87-1.74,2.79-2.62,.11-.1,.11-.32,.16-.49-.17-.03-.36-.13-.51-.08-.22,.07-.44,.21-.59,.38-1.33,1.39-2.66,2.8-3.97,4.2-.13,.14-.19,.33-.32,.54Zm20.33-12.93c.05-.07,.09-.13,.14-.2-.14-.05-.28-.15-.42-.14-.16,0-.37,.06-.47,.17-.45,.49-.84,1.02-1.29,1.51-.85,.93-1.73,1.84-2.57,2.78-.11,.12-.13,.44-.05,.57,.16,.24,.4,.1,.56-.08,1.29-1.4,2.57-2.79,3.85-4.2,.1-.11,.16-.27,.24-.4Zm-2.89-1.52c.03-.05,.07-.1,.1-.16-.11-.04-.23-.13-.34-.12-.18,.01-.4,.04-.52,.15-.4,.38-.76,.8-1.12,1.21-.83,.93-1.67,1.86-2.47,2.81-.1,.12-.02,.38-.03,.58,.19-.02,.38-.02,.55-.08,.1-.03,.15-.17,.23-.26,1.13-1.28,2.27-2.55,3.4-3.83,.07-.08,.12-.19,.18-.29Zm-16.98,17.59c.11,.13,.2,.31,.31,.33,.12,.01,.29-.11,.38-.21,.18-.21,.29-.48,.49-.68,1.03-1.01,2.07-2,3.12-2.99,.08-.07,.2-.12,.23-.21,.05-.15,.11-.34,.05-.47-.03-.07-.28-.08-.43-.06-.09,0-.19,.08-.26,.16-1.2,1.19-2.4,2.38-3.59,3.58-.13,.13-.17,.33-.29,.56Zm2.59,2.26c.06-.05,.19-.13,.26-.24,.14-.2,.22-.46,.38-.63,.8-.85,1.62-1.69,2.44-2.52,.23-.23,.53-.39,.75-.62,.1-.1,.08-.3,.12-.46-.16-.03-.35-.14-.47-.09-.23,.09-.45,.24-.62,.42-.97,1-1.93,2-2.89,3.02-.15,.16-.28,.35-.37,.55-.14,.28,.05,.58,.4,.59Zm19.39-16.3c-.09-.12-.15-.31-.26-.35-.11-.03-.31,.06-.39,.16-.43,.51-.81,1.06-1.25,1.56-.55,.64-1.14,1.25-1.71,1.87-.17,.18-.35,.42-.09,.6,.12,.08,.48,.01,.6-.12,.93-1.02,1.84-2.06,2.74-3.1,.14-.16,.22-.38,.37-.62Zm-10.89,20.18c.2-.21,.3-.3,.36-.4,.2-.31,.37-.64,.59-.94,.6-.81,1.22-1.6,1.83-2.4,.15-.2,.3-.45,.03-.61-.12-.07-.44,.05-.55,.18-.77,.99-1.52,2.01-2.26,3.02-.11,.15-.23,.34-.24,.52,0,.17,.12,.35,.24,.63Zm-.21-4.29c-.1-.12-.17-.28-.25-.28-.14,0-.32,.05-.42,.15-.86,.88-1.71,1.77-2.55,2.66-.15,.16-.33,.32-.41,.52-.07,.16,0,.37,0,.56,.18-.06,.4-.06,.52-.18,.49-.47,.95-.97,1.42-1.46,.45-.47,.91-.93,1.36-1.41,.14-.15,.21-.34,.34-.55Zm-7.51,2.18c.08,.03,.17,.07,.25,.1,.05-.13,.09-.26,.14-.38,.07-.15,.13-.3,.23-.43,.73-.9,1.47-1.79,2.19-2.69,.11-.13,.1-.36,.14-.54-.2,0-.41-.02-.59,.04-.15,.06-.28,.22-.39,.36-.69,.88-1.37,1.76-2.04,2.64-.1,.12-.2,.3-.19,.43,.02,.16,.16,.31,.25,.46Zm1.12-13.92c-.23-.29-.29-.44-.36-.45-.15-.02-.33,0-.45,.08-.94,.64-1.87,1.3-2.8,1.96-.17,.12-.36,.26-.42,.44-.06,.16,.05,.38,.09,.57,.18-.06,.38-.07,.52-.18,.17-.12,.27-.35,.44-.47,.79-.55,1.58-1.09,2.38-1.62,.18-.12,.39-.21,.6-.32Zm20.18,1.34c-.13-.13-.22-.29-.36-.34-.09-.03-.29,.06-.36,.15-.27,.36-.5,.75-.77,1.11-.49,.67-1.02,1.31-1.49,1.99-.08,.12,.01,.37,.03,.56,.18-.06,.42-.06,.52-.18,.72-.88,1.42-1.79,2.11-2.69,.12-.16,.2-.35,.33-.6Zm-19.67,12.96c.13,.14,.22,.33,.36,.37,.09,.03,.26-.15,.36-.27,.13-.17,.2-.4,.35-.55,.67-.63,1.37-1.22,2.03-1.85,.13-.12,.25-.41,.19-.54-.14-.29-.42-.18-.6-.01-.81,.75-1.62,1.52-2.41,2.29-.13,.13-.18,.33-.29,.57Zm15.81-12.44c.09-.08,.25-.16,.36-.29,.54-.61,1.07-1.23,1.6-1.85,.21-.25,.43-.49,.62-.76,.15-.21,.2-.46-.07-.61-.25-.14-.44,0-.58,.24-.12,.2-.24,.4-.4,.58-.49,.56-.99,1.1-1.48,1.66-.15,.17-.29,.34-.38,.54-.11,.23-.05,.44,.33,.49Z"/><path d="M54.6,92.16c.13-.22,.19-.41,.32-.54,1.32-1.41,2.64-2.81,3.97-4.2,.16-.17,.38-.31,.59-.38,.14-.05,.34,.05,.51,.08-.05,.16-.05,.38-.16,.49-.92,.88-1.9,1.71-2.79,2.62-.65,.66-1.2,1.43-1.8,2.14-.09,.1-.29,.19-.39,.16-.11-.04-.17-.23-.26-.36Z" fill="#fff"/><path d="M74.93,79.23c-.08,.13-.14,.29-.24,.4-1.28,1.4-2.56,2.8-3.85,4.2-.16,.18-.4,.31-.56,.08-.09-.12-.06-.45,.05-.57,.84-.94,1.72-1.84,2.57-2.78,.45-.49,.84-1.02,1.29-1.51,.1-.11,.31-.16,.47-.17,.14,0,.28,.09,.42,.14-.05,.07-.09,.13-.14,.2Z" fill="#fff"/><path d="M72.04,77.7c-.06,.1-.11,.21-.18,.29-1.13,1.28-2.27,2.55-3.4,3.83-.08,.09-.14,.23-.23,.26-.17,.06-.37,.06-.55,.08,0-.2-.07-.46,.03-.58,.8-.95,1.64-1.88,2.47-2.81,.37-.41,.73-.83,1.12-1.21,.12-.11,.34-.13,.52-.15,.11,0,.22,.08,.34,.12-.03,.05-.07,.1-.1,.16Z" fill="#fff"/><path d="M55.06,95.29c.11-.23,.16-.43,.29-.56,1.19-1.2,2.39-2.39,3.59-3.58,.07-.07,.17-.15,.26-.16,.15-.01,.4-.01,.43,.06,.06,.13,0,.32-.05,.47-.03,.08-.15,.13-.23,.21-1.04,.99-2.09,1.98-3.12,2.99-.2,.19-.31,.47-.49,.68-.09,.11-.26,.23-.38,.21-.11-.01-.2-.2-.31-.33Z" fill="#fff"/><path d="M57.65,97.55c-.35,0-.53-.3-.4-.59,.1-.2,.22-.39,.37-.55,.96-1.01,1.92-2.02,2.89-3.02,.17-.18,.39-.33,.62-.42,.13-.05,.31,.05,.47,.09-.04,.16-.02,.36-.12,.46-.22,.23-.52,.4-.75,.62-.82,.83-1.64,1.67-2.44,2.52-.16,.18-.24,.43-.38,.63-.08,.11-.2,.19-.26,.24Z" fill="#fff"/><path d="M77.03,81.25c-.14,.25-.22,.46-.37,.62-.9,1.04-1.81,2.09-2.74,3.1-.12,.13-.48,.2-.6,.12-.26-.18-.08-.41,.09-.6,.57-.62,1.16-1.23,1.71-1.87,.43-.5,.82-1.05,1.25-1.56,.08-.1,.28-.19,.39-.16,.11,.03,.18,.22,.26,.35Z" fill="#fff"/><path d="M66.14,101.43c-.11-.28-.24-.46-.24-.63,0-.18,.12-.37,.24-.52,.74-1.02,1.49-2.03,2.26-3.02,.1-.13,.43-.24,.55-.18,.27,.16,.12,.41-.03,.61-.61,.8-1.23,1.59-1.83,2.4-.22,.3-.38,.63-.59,.94-.07,.1-.17,.18-.36,.4Z" fill="#fff"/><path d="M65.93,97.14c-.13,.21-.21,.41-.34,.55-.44,.48-.9,.94-1.36,1.41-.47,.49-.93,.99-1.42,1.46-.12,.11-.34,.12-.52,.18,0-.19-.06-.4,0-.56,.08-.2,.26-.36,.41-.52,.85-.89,1.69-1.78,2.55-2.66,.1-.1,.28-.16,.42-.15,.08,0,.16,.17,.25,.28Z" fill="#fff"/><path d="M58.42,99.32c-.09-.15-.23-.3-.25-.46-.01-.14,.09-.31,.19-.43,.67-.89,1.36-1.77,2.04-2.64,.11-.14,.24-.3,.39-.36,.18-.07,.39-.03,.59-.04-.04,.18-.04,.41-.14,.54-.72,.91-1.46,1.79-2.19,2.69-.1,.12-.16,.28-.23,.43-.06,.12-.1,.25-.14,.38-.08-.03-.17-.07-.25-.1Z" fill="#fff"/><path d="M59.54,85.4c-.21,.11-.41,.2-.6,.32-.8,.53-1.6,1.07-2.38,1.62-.17,.12-.27,.35-.44,.47-.14,.1-.35,.12-.52,.18-.04-.19-.15-.41-.09-.57,.06-.18,.26-.32,.42-.44,.93-.66,1.86-1.32,2.8-1.96,.12-.08,.3-.1,.45-.08,.08,.01,.14,.16,.36,.45Z" fill="#fff"/><path d="M79.72,86.73c-.13,.24-.21,.44-.33,.6-.69,.91-1.39,1.81-2.11,2.69-.1,.12-.34,.12-.52,.18-.01-.19-.11-.44-.03-.56,.47-.68,1-1.32,1.49-1.99,.27-.36,.5-.75,.77-1.11,.07-.09,.27-.19,.36-.15,.14,.05,.23,.21,.36,.34Z" fill="#fff"/><path d="M60.04,99.69c.12-.24,.17-.44,.29-.57,.79-.78,1.59-1.54,2.41-2.29,.18-.16,.46-.28,.6,.01,.06,.13-.06,.42-.19,.54-.66,.63-1.36,1.23-2.03,1.85-.15,.14-.22,.38-.35,.55-.1,.12-.27,.3-.36,.27-.14-.04-.24-.23-.36-.37Z" fill="#fff"/><path d="M75.86,87.25c-.39-.05-.44-.25-.33-.49,.09-.2,.24-.38,.38-.54,.49-.56,.99-1.1,1.48-1.66,.15-.18,.28-.38,.4-.58,.14-.24,.33-.37,.58-.24,.27,.15,.22,.4,.07,.61-.19,.26-.41,.51-.62,.76-.53,.62-1.06,1.24-1.6,1.85-.11,.13-.26,.22-.36,.29Z" fill="#fff"/></svg>