<?xml version="1.0" encoding="UTF-8"?><svg id="Calque_1" xmlns="http://www.w3.org/2000/svg" viewBox="0 0 173.84 178.2"><path d="M99.61,123.36c-2.82,0-5.64-.05-8.46,.01-4.42,.1-8.84,.25-13.26,.41-1.83,.07-3.67,.17-5.49,.31-4.01,.31-8.02,.39-12.03-.04-2.17-.23-4.34-.44-6.47-.96-2.73-.67-5.24-1.83-7.55-3.43-2.25-1.56-3.51-3.74-4.04-6.39-.39-1.98-.55-3.98-.59-5.99-.06-4.17-.08-8.34-.17-12.52-.08-3.67-.23-7.34-.35-11-.05-1.55,.04-3.09,.4-4.6,.03-.11,.04-.23,.09-.34,.53-1.17,.49-2.45,.73-3.67,.29-1.48,.58-2.95,.94-4.41,.3-1.22,1.01-2.19,1.96-3.01,1.53-1.33,3.32-2.17,5.22-2.8,2.77-.92,5.61-1.56,8.5-1.98,5.42-.8,10.88-.94,16.35-.91,7.51,.04,15.03,0,22.54-.01,2.92,0,5.83-.11,8.75-.05,3.53,.07,7.06,.24,10.59,.43,2.49,.13,4.96,.37,7.41,.89,1.84,.39,3.62,.94,5.34,1.68,3.14,1.36,5.04,3.71,5.81,7.03,.5,2.16,.76,4.34,.8,6.54,.08,4.73,.13,9.46,.11,14.2-.02,4.62-.11,9.23-.25,13.85-.1,3.28-.33,6.56-.79,9.81-.16,1.15-.43,2.27-.92,3.34-.68,1.48-1.77,2.5-3.32,3.03-1.23,.42-2.51,.61-3.79,.79-3.42,.47-6.85,.53-10.29,.38-2.41-.1-4.83-.1-7.24-.17-3.51-.1-7.03-.23-10.54-.35,0-.02,0-.04,0-.05Zm-6.41-58.93c-6.74,0-12.94,.01-19.14,0-5.12-.01-10.23,.21-15.29,1.06-2.65,.44-5.25,1.07-7.78,1.99-1.15,.42-2.22,.98-3.18,1.75-.75,.6-1.29,1.33-1.51,2.27-.22,.98-.5,1.95-.63,2.94-.28,2.1-.47,4.22-.72,6.33-.05,.43-.13,.9-.35,1.26-.19,.32-.28,.61-.26,.97,.01,.23,0,.46,.01,.7,.15,4.81,.31,9.61,.44,14.42,.09,3.32,.08,6.64,.2,9.96,.05,1.42,.24,2.85,.45,4.26,.33,2.17,1.31,3.98,3.18,5.23,2.29,1.54,4.77,2.59,7.49,3.1,1.98,.37,3.98,.55,5.98,.73,3.03,.28,6.06,.23,9.09,.04,2.37-.15,4.74-.31,7.11-.39,3.86-.13,7.72-.17,11.58-.31,3.42-.12,6.83-.17,10.25,.01,1.93,.1,3.86,.19,5.79,.25,3.75,.12,7.49,.21,11.24,.33,3.4,.1,6.8,.17,10.18-.34,1.05-.16,2.09-.36,3.12-.61,.89-.22,1.54-.8,1.91-1.64,.24-.55,.47-1.11,.57-1.69,.24-1.39,.44-2.78,.58-4.19,.47-4.87,.61-9.75,.68-14.64,.06-4.62,.11-9.23,.11-13.85,0-3.22,0-6.45-.42-9.66-.18-1.44-.45-2.86-1.02-4.21-.45-1.05-1.12-1.93-2.05-2.6-.84-.6-1.77-1.03-2.73-1.39-2.81-1.05-5.74-1.51-8.71-1.73-1.56-.12-3.12-.21-4.68-.26-3.65-.12-7.3-.27-10.94-.28-3.69-.01-7.38,.13-10.52,.19Z"/><path d="M71.84,87.33c.29,.01,.53,.04,.78,.04,1.95-.02,3.9-.04,5.85-.06,.15,0,.31-.01,.46,0,.46,.03,.66,.24,.67,.7,.02,.5,.01,1,.02,1.51,.03,1.51,.07,3.01,.1,4.52,.01,.79-.2,1-.98,1-2.01,.01-4.02,.01-6.03,.02-.21,0-.42,0-.68,0-.01,.24-.03,.43-.03,.61,0,2.36,0,4.71,0,7.07,0,.23,.04,.46,.06,.69,.04,.43-.14,.65-.57,.7-.1,.01-.19,0-.29,0-3.07-.03-6.14-.06-9.21-.1-.43,0-.65-.17-.69-.61-.05-.56-.09-1.12-.07-1.68,.05-2.12,.13-4.25,.19-6.37,0-.17,0-.34,0-.53-.76,0-1.47-.02-2.17,0-1.7,.04-3.4,.11-5.1,.16-.65,.02-.84-.23-.8-.88,.08-1.43,.13-2.86,.19-4.28,.03-.66,.05-1.31,.09-1.97,.04-.61,.26-.75,.86-.66,.33,.05,.68,0,1.02,0,1.82,0,3.63,0,5.45-.01,.11,0,.22-.03,.41-.05,0-.24,0-.46,0-.69-.01-2.82-.03-5.64-.04-8.46,0-.17-.01-.35,0-.52,.04-.45,.25-.66,.69-.71,.11-.01,.23,0,.35,0,2.7-.04,5.41-.08,8.11-.11,.04,0,.08,0,.12,0,.97-.01,1.22,.24,1.22,1.23,0,2.92,0,5.83,0,8.75,0,.21,0,.42,0,.69Zm-14.94,5.05c.13-.07,.27-.14,.4-.2,.16-.07,.31-.16,.47-.2,.25-.06,.47,.02,.59,.25,.12,.23,.07,.45-.12,.62-.11,.1-.25,.17-.38,.26-.24,.18-.48,.37-.71,.56,.03,.04,.05,.08,.08,.12,.15-.08,.31-.15,.44-.24,.54-.37,1.06-.75,1.6-1.11,.14-.09,.32-.15,.48-.17,.42-.06,.65,.19,.61,.61-.01,.13-.02,.26-.03,.38-.38-.09-.61,.17-.93,.37,.45,.03,.44,.03,.62-.13,.1-.09,.2-.16,.3-.24,.35-.28,.69-.61,1.07-.84,.29-.18,.58-.07,.71,.17,.15,.27,.03,.48-.16,.67-.12,.11-.24,.22-.39,.36,.11,.02,.14,.04,.18,.04,.71,.01,.85,.17,.81,.86-.04,.62-.04,1.23-.05,1.85,0,.1,.05,.2,.07,.31,.28-.18,.51-.36,.76-.49,.27-.13,.52-.05,.67,.16,.14,.21,.11,.46-.1,.68-.07,.07-.15,.12-.22,.19-.31,.32-.62,.63-.92,.96-.34,.39-.35,.85-.26,1.39,.37-.39,.67-.75,1.01-1.05,.22-.2,.5-.36,.78-.48,.23-.1,.46,0,.6,.23,.15,.23,.08,.45-.09,.63-.06,.07-.14,.13-.22,.19-.99,.74-1.69,1.7-2.17,2.83,0,.01,.04,.05,.09,.1,.07-.09,.14-.18,.21-.26,.58-.67,1.16-1.34,1.75-2.01,.13-.14,.28-.27,.45-.36,.25-.13,.53-.06,.68,.13,.16,.21,.15,.44,0,.64-.1,.14-.23,.26-.35,.39-.54,.58-1.08,1.16-1.61,1.75-.14,.15-.25,.32-.44,.57h1.43c.25-.66,.71-1.18,1.23-1.64,.17-.15,.38-.27,.59-.35,.21-.08,.46-.03,.54,.2,.06,.16,.05,.38-.02,.53-.09,.18-.28,.31-.43,.46-.25,.25-.54,.47-.71,.85h.89c.18-.33,.32-.65,.51-.94,.14-.2,.32-.38,.51-.54,.18-.15,.4-.13,.58,.03,.18,.16,.21,.37,.11,.58-.06,.14-.16,.26-.24,.4-.08,.14-.16,.29-.28,.5h2.92c0-.25,0-.45,0-.66,0-2.24,0-4.48,0-6.72,0-.31-.04-.61-.08-.92-.04-.35,.11-.62,.45-.7,.15-.04,.31-.03,.46-.03,2.1,0,4.21,0,6.32,0,.19,0,.37-.02,.53-.02v-1.46c-.16,.09-.22,.21-.31,.31-.16,.19-.32,.39-.51,.54-.2,.15-.44,.16-.64-.03-.2-.18-.21-.4-.09-.63,.04-.07,.08-.13,.12-.2,.4-.68,.78-1.37,1.19-2.05,.31-.52,.19-1.05,.1-1.59-.52,.85-.98,1.71-1.45,2.57-.15,.27-.26,.56-.44,.81-.18,.26-.44,.29-.66,.16-.22-.13-.32-.37-.2-.65,.3-.68,.63-1.36,.97-2.03,.19-.37,.42-.71,.67-1.15-.53,0-.95,.01-1.37,0-.27-.01-.43,.1-.55,.34-.2,.42-.41,.82-.62,1.24-.13,.27-.4,.4-.66,.33-.3-.09-.47-.35-.38-.68,.05-.18,.15-.36,.23-.53,.1-.19,.2-.38,.31-.58-.5-.18-.75,0-.93,.39-.18,.39-.38,.76-.6,1.12-.17,.29-.44,.37-.69,.27-.27-.12-.37-.4-.26-.74,.04-.13,.11-.24,.18-.36,.12-.22,.24-.43,.35-.63-.37-.11-.7-.21-1.02-.32-.46-.15-.55-.26-.57-.74-.01-.4,0-.8,0-1.25-.33,.12-.63,.24-.84-.06-.21-.3-.07-.59,.09-.86,.14-.25,.28-.51,.46-.73,.29-.36,.35-.75,.24-1.21-.15,.08-.27,.18-.41,.22-.35,.1-.67-.17-.63-.54,.01-.11,.05-.23,.1-.33,.26-.47,.54-.93,.81-1.4,.06-.11,.16-.23,.16-.35,.02-.65,0-1.3,0-1.94-.17,.1-.26,.21-.32,.34-.43,.86-.85,1.73-1.27,2.6-.05,.1-.09,.21-.15,.31-.2,.35-.48,.47-.76,.35-.31-.13-.42-.45-.28-.83,.05-.14,.13-.28,.2-.42,.55-1.06,1.11-2.12,1.66-3.18,.06-.11,.09-.23,.16-.39-.13,0-.24-.03-.27,0-.25,.31-.53,.6-.72,.95-.31,.56-.55,1.15-.82,1.72-.06,.12-.09,.25-.16,.37-.17,.3-.45,.41-.73,.3-.24-.1-.37-.39-.29-.68,.05-.19,.12-.37,.21-.54,.27-.55,.56-1.1,.83-1.65,.07-.13,.12-.27,.19-.41-.81-.13-5.22-.04-5.65,.12,0,.21,0,.44,0,.67,.02,2.88,.03,5.75,.05,8.63,0,.65-.28,.96-.92,1.02-.17,.02-.35,0-.52,0-1.76,0-3.51,0-5.27,0-.34,0-.68,0-1.09,0v2.22c.09-.06,.15-.1,.21-.13,.23-.13,.46-.29,.71-.38,.24-.09,.46,.01,.59,.24,.12,.22,.05,.42-.11,.58-.09,.1-.21,.17-.31,.25-.33,.29-.66,.59-1,.88-.23,.2-.3,.43-.19,.78,.28-.27,.53-.54,.8-.77,.25-.21,.51-.42,.78-.59,.21-.13,.45-.11,.65,.06,.18,.16,.18,.37,.11,.59-.03,.09-.05,.18-.08,.27-.51,.23-1.24,.88-1.52,1.36,.29-.07,.98-.7,1.51-1.37Z"/><path d="M117.12,102.43c.08-.68,.15-1.32,.23-1.99-.68,.2-1.28,.46-1.92,.56-.6,.1-1.24,.13-1.84,.03-1.52-.26-2.51-1.7-2.3-3.25,.05-.38,.13-.77,.28-1.12,.69-1.67,1.72-3.1,3.17-4.21,.49-.38,1.04-.66,1.66-.78,.98-.18,1.77,.21,2.18,1.1,.1,.21,.21,.34,.41,.45,.31,.16,.5,.43,.57,.76,.17,.83,.34,1.66,.49,2.5,.24,1.32,.22,2.66,.1,3.98-.25,2.74-.73,5.43-1.61,8.04-.68,2.02-1.59,3.94-2.9,5.64-.86,1.11-1.88,2.04-3.18,2.64-.55,.25-1.12,.42-1.73,.43-1.03,.01-1.83-.41-2.41-1.25-.52-.75-.74-1.61-.79-2.51-.16-2.68,.74-5.04,2.22-7.22,1.46-2.14,3.61-3.18,6.05-3.73,.39-.09,.81-.05,1.29-.07Zm-.55,2.82c-.2,.01-.34,0-.46,.03-2.04,.51-3.68,1.55-4.65,3.49-.1,.21-.22,.41-.31,.62-.52,1.19-.91,2.42-.83,3.75,.03,.44,.06,.88,.35,1.24,.48-.04,.71-.13,1.19-.44,.74-.49,1.32-1.12,1.83-1.83,1.44-2.05,2.29-4.35,2.89-6.86Zm-.07-10.84c-.99,.97-1.83,2.04-2.34,3.33-.06,.16-.04,.35-.07,.6,.4-.04,.7-.04,1-.1,.84-.16,1.51-.66,2.14-1.2,.08-.07,.15-.23,.14-.34-.05-.48-.1-.96-.2-1.43-.07-.34-.22-.66-.66-.86Z"/><path d="M91.12,78.57c-1.72,.55-3.35,1.07-4.99,1.59-.68,.22-1.36,.44-2.04,.64-.27,.08-.57,.15-.85,.15-.61-.02-1.09-.44-1.24-1.04-.15-.57,.08-1.18,.61-1.5,.21-.13,.45-.22,.69-.29,5.79-1.84,11.57-3.68,17.36-5.52,.24-.08,.48-.15,.72-.21,.67-.14,1.36,.23,1.59,.86,.24,.64-.02,1.36-.63,1.69-.22,.12-.46,.19-.7,.27-2.35,.75-4.7,1.5-7.05,2.24-.2,.06-.4,.14-.64,.22,0,.17,0,.34,0,.51,.11,6.59,.22,13.17,.33,19.76,.03,1.53,.05,3.05,.07,4.58,0,.17,0,.35-.02,.52-.09,.66-.58,1.12-1.23,1.19-.65,.07-1.24-.29-1.43-.92-.09-.29-.11-.61-.11-.91-.13-7.69-.26-15.37-.39-23.06,0-.23-.02-.46-.04-.77Z"/><path d="M104.96,96.13c-.33-.47-.6-.85-.9-1.29-.26-.01-.48,.18-.67,.39-.8,.87-1.35,1.88-1.6,3.04-.22,1.03,.25,1.84,.96,2.53,.14,.14,.29,.14,.48,.07,.21-.08,.44-.14,.67-.16,.48-.04,.87,.15,1.13,.56,.28,.43,.29,.88,.03,1.32-.41,.69-1.04,1.07-1.84,1.15-.84,.08-1.57-.2-2.19-.74-1.78-1.56-2.57-3.65-1.79-6.05,.35-1.07,.85-2.07,1.54-2.96,.71-.92,1.58-1.58,2.76-1.77,.85-.14,1.62,.05,2.25,.64,.18,.17,.37,.25,.61,.28,.55,.09,.9,.42,1.04,.96,.21,.76,.2,1.52,.17,2.3-.04,.81-.05,1.62-.05,2.43,0,.62,.22,1.17,.67,1.61,.3,.3,.62,.43,1.05,.29,.2-.07,.41-.11,.62-.12,.57-.03,1.03,.26,1.25,.75,.23,.51,.13,1.09-.3,1.49-.7,.64-1.54,.89-2.47,.7-1.65-.33-2.66-1.41-3.27-2.9-.44-1.07-.4-2.19-.29-3.31,.04-.44,.1-.88,.13-1.21Z"/><path d="M56.89,92.38c-.53,.67-1.22,1.3-1.51,1.37,.28-.49,1-1.13,1.52-1.36,0,0-.01-.01-.01-.01Z" fill="#fff"/><path d="M60.33,93.25c-.1,.08-.21,.16-.3,.24-.18,.16-.18,.16-.62,.13,.32-.2,.55-.45,.93-.37,0,0,0,0,0,0Z" fill="#fff"/><path d="M116.57,105.25c-.6,2.5-1.44,4.81-2.89,6.86-.5,.71-1.09,1.35-1.83,1.83-.47,.31-.7,.4-1.19,.44-.28-.36-.32-.8-.35-1.24-.08-1.33,.3-2.55,.83-3.75,.09-.21,.21-.41,.31-.62,.97-1.94,2.61-2.98,4.65-3.49,.12-.03,.26-.02,.46-.03Z" fill="#fff"/><path d="M116.5,94.4c.45,.2,.59,.53,.66,.86,.1,.47,.15,.95,.2,1.43,.01,.11-.05,.27-.14,.34-.64,.53-1.3,1.04-2.14,1.2-.3,.06-.6,.06-1,.1,.03-.25,0-.44,.07-.6,.51-1.29,1.35-2.35,2.34-3.33Z" fill="#fff"/></svg>