<?xml version="1.0" encoding="UTF-8"?><svg id="Calque_1" xmlns="http://www.w3.org/2000/svg" xmlns:xlink="http://www.w3.org/1999/xlink" viewBox="0 0 173.84 178.2"><defs><clipPath id="clippath"><rect x="1.55" y="19.78" width="162.09" height="139.81" fill="none"/></clipPath></defs><g clip-path="url(#clippath)"><g id="Groupe_défilant_2"><path id="Tracé_145" d="M86.34,59.48l-1.11,.13-1.23,.12-1.11,.37-.99,.62-.49,.37-.37,.37-.25,.49-.24,.61,.12,.12,.12,.12,.25-.12,.12,.12-.24,.25-.13,.25v.86l.13,.74,.24,.86,.25,.86,.37,.74,.61,.61,.61,.61,.61,.37h.25l.12-.13v-.24l-1.36-2.47-.37-1.23-.37-1.23,1.48,1.47,1.73,1.36,1.73,1.23,1.97,.99,.99,.49,.98,.25,.99,.25,1.11,.24h2.1l1.11-.12,1.11-.25,.12-.12,.12-.25-.12-.24-.12-.13-1.97-.37-1.85-.37-1.97-.24-1.85-.5-.99-.37-.86-.49-1.85-.99-1.73-1.11-1.72-1.1,1.23,.37,1.23,.24,2.46,.61,1.6,.37,1.73,.49,1.6,.12h.87l.86-.12,.25-.12v-.37l-.1-.21-1.48-.61-1.6-.49-3.21-.61-2.59-.61-1.35-.25h-1.36l1.11-.61,1.11-.37,1.36-.13,1.35,.13,1.36,.24,1.36,.37,1.11,.37,.98,.37,2.1,1.11,2.22,.99,.99,.37,1.11,.24,.24-.12,.13-.12,.12-.13-.12-.24-.99-.99-1.11-.86-1.36-.74-1.35-.61-1.48-.49-1.48-.49-2.71-.61-.98-.25-1.24-.04Zm-9.61,6.28l-.12,.12-.86,.61-.87,.61-1.6,1.48-1.6,1.35-.74,.74-.61,.87v.24l.12,.13,.99-.5,.74-.49,1.48-1.23,1.85-1.6,1.73-1.48,.12-.37-.12-.24-.25-.25-.26,.02Zm1.11,18.35l-.24,.12-.25,.12-.25,.25-.37,.25-.37,.24-.24,.37-.25,.5-.25,.86v1.36l.25,.61,.25,.5,.24,.37,.37,.37,.5,.37,.49,.24,.49,.13h.74l.37-.13,.25-.24,.61-.74,.37-.87,.12-.98v-.99l-.25-.99-.12-.37-.37-.49-.25-.37-.49-.25-.37-.24h-.98Zm16.51,0l-.25,.12-.24,.12-.25,.25-.37,.25-.37,.24-.25,.37-.24,.5-.25,.86v1.36l.25,.61,.24,.5,.25,.37,.37,.37,.49,.37,.5,.24,.49,.13h.74l.37-.13,.25-.24,.61-.74,.37-.87,.13-.98v-.99l-.25-.99-.12-.37-.37-.49-.25-.37-.49-.25-.37-.24h-.98Zm-8.01,5.79l-.24,.25-.13,.25v1.11l.13,1.11v1.11l.12,1.11,.12,.24,.13,.13,.49,.24,.25-.12h.24l.13-.25,.12-.24v-1.11l-.12-1.11-.25-1.24-.12-.61-.37-.61-.25-.25h-.25Zm4.06,7.62l-1.72,.49-1.6,.37-1.72,.13h-.87l-.86-.13-.25,.13h-.12l-.12,.24,.12,.13,.25,.49,.37,.25,.37,.37,.49,.12,.99,.25h1.23l1.11-.13,1.23-.24,.99-.25,.86-.37,.37-.25,.13-.24v-.74l-.25-.25-.25-.25-.37-.12h-.37Zm-9.97,8.37l1.23,.49,1.23,.37,1.36,.37,1.23,.24,1.23,.13,1.36,.12,1.23-.12,1.23-.13,1.11-.24,1.11-.25-.13,1.23-1.48,.13-1.48,.12h-.12l-1.36-.12h-.74l-.74,.12v.12l-.12,.13v.24l.25,.37,.24,.13,.74,.37,.74,.12,.61,.12h1.73l.86-.12,.86-.12v.61l-1.72,.25-.74,.12-.87,.13h-2.22l-.74,.24-.12,.25,.12,.12,.5,.49,.74,.37,.86,.24h1.97l.87-.12,.86-.12,.74-.37,.25,.49-.87,.37-.98,.25-3.08,.61h-.12v.13l.12,.12,.99,.37,1.23,.12-1.11,.25-1.11,.12h-1.11l-1.11-.12-1.48-.12-1.48-.37-1.35-.49-.61-.37-.61-.49-.12-.25,.37-.24,.25-.37v-.87l-.25-.74-.25-.98-.12-.99v-.86l.12-.87,.13-.49v-.12l-.13,.24v-.36Zm15.27,6.53l.74,.37,.74,.37-.37,.74-.5,.61-.61,.74-.61,.49-1.36,.99-1.6,.86-1.73,.61-1.72,.37-1.73,.24-1.6,.13h-1.85l-1.73-.25-1.85-.49-.74-.37-.86-.37-.61-.49-.49-.49-.5-.49-.37-.5-.61-1.23-.61-1.36,.37-.12,.99-.12,1.35-.13,.37,.61,.49,.61,.86,.86,.74,.49,.86,.5,1.73,.61,1.73,.37,1.85,.25h1.72l1.72-.12,1.73-.5,.86-.24,.86-.37,.61-.5,.74-.74,.61-.74,.12-.49,.12-.37,.11-.33Zm-22.29,1.11v.74l.25,.74,.25,.74,.37,.74,.98,1.23,1.11,.99,.99,.61,.99,.61,.98,.37,1.11,.37,1.11,.25,1.11,.25,2.22,.12,2.1-.12,2.1-.25,2.22-.61,1.97-.74,.99-.49,.98-.61,.87-.61,.86-.74,.74-.74,.61-.74,.61-.99,.49-.86,2.96,.49h.12l-.74,.49-.86,.49-.74,.61-.74,.74-.25,.37-.12,.49,.74-.25,.74-.37,1.35-.86,1.73-.74,.61-.13,.61-.24,.13-.13,2.84,.87-1.48,.49-1.48,.61-1.48,.61-1.35,.87-1.24,.86-.12,.12,.12,.13,2.59-.99,2.59-.86,1.11-.25,1.11-.25,1.11-.12,1.11-.37,2.22,.99-1.23,.37-1.11,.49-3.2,1.36-1.48,.74-1.6,.49-.12,.12-.13,.13,.13,.12,.12,.12,2.96-.61,3.08-.74,1.11-.25,1.23-.25,1.23-.37,.61-.24,.5-.25,1.23,.86,1.23,.99-1.35,.25-3.82,.98-1.85,.5-1.72,.61-.25,.25,.12,.12,.74,.25,.74,.12,.61,.13,.74-.13,1.48-.12,1.36-.37,2.22-.49,.98-.25,1.11-.12,.5-.13,.86,.99,.74,.99-1.6,.12-1.73,.12-1.6,.25-1.6,.25-.86,.24-.74,.25-.12,.12v.13l.12,.12v.12l1.48,.25,1.36,.12,2.71-.12h3.82l.87,1.85-2.59,.12h-2.96l-1.48,.13-.74,.12-.74,.12-.13,.13-.12,.24,.12,.25,.13,.12,1.48,.37,1.48,.13h4.55l1.6-.13,.37,1.36,.25,1.36-.86-.25h-.87l-1.85-.12h-1.11l-1.23,.12-1.11,.12-1.23,.37-.13,.13v.37h.25l2.34,.12,2.22,.12,1.97,.13h.86l.86-.13h0l-.49,.13-1.48,.49-1.48,.49-2.96,.61-3.08,.49-3.08,.37-.12-.61-.12-.99-.13-.49-.37-.49-.37-.37-.49-.12-.49,.12-.37,.37-.25,.49-.12,.49v1.85l-1.72,.25-2.59,.24-2.71,.25-5.29,.25h-10.71l-5.42-.13-5.29-.24-5.3-.37-5.29-.5-.74-.12v-.74l-.12-.25v-.24l.12-.87v-.47l-.12-.49-.25-.37-.37-.25h-.37l-.49,.12-.49,.49-.37,.61-.13,.61-.12,.74v.49l-2.84-.86-2.84-.86-1.36-.37-1.36-.13-1.48-.12-1.35,.12-.13-1.11,.13-.98,.12-1.11,.37-.99,.37-.99,.49-.98,.49-.87,.61-.98,1.36-1.6,1.6-1.6,1.6-1.36,1.6-1.23,1.11-.74,.99-.49,2.22-1.11,2.22-.74,2.34-.74,1.48-.49,1.72-.37,3.38-.85Zm15.03-57.88l-1.97,.25-1.72,.37-1.6,.61-2.46,1.11-1.23,.74-.74,.61-.37,.37-.13,.25,.13,.37,.24,.24,.25,.13h.86l.61-.25,.61-.37,2.34-.99,1.23-.49,1.24-.49,1.72-.25,1.73-.12,1.97,.12,1.98,.25,1.85,.49,1.85,.61,1.72,.61,1.48,.74,1.11,.62,.87,.74,.74,.86,.74,.87,.61,1.1,.5,.99,.49,1.11,.37,1.23,.49,2.34,.37,2.46,.13,2.47v2.34h-2.71l-1.23-.12-1.23-.37-1.23-.25-1.23-.49-2.34-.99-2.32-1.2-2.22-1.23-2.34-1.36-2.22-1.23-.37-.13h-.37l-.25,.13-.24,.12-.25,.25-.12,.24-.13,.37v.25l.37,1.85,.37,1.85-.74-.49-.74-.5-1.48-1.35-1.23-1.48-1.11-1.73-.99-1.73-.61-1.72-.13-.87-.12-.86v-.86l.12-.74v-.62l-.24-.24-.25-.13h-.49l-.25,.13-.25,.24-.37,.74-.12,.86-.99,.13-.86,.24-.86,.49-.87,.49-1.11,.74-.98,.74-.87,.61-.37,.37-.24,.49-.13,.12,.13,.13,.12,.12,.12,.12,.49-.12,.37-.12,.86-.5,1.48-1.11,1.72-1.23,1.85-.99v.99l.24,.86,.25,.87,.37,.98,.74,1.73,.86,1.48,.74,.99,.74,1.11,.99,.98,.86,.99,1.11,.86,1.11,.74,1.23,.49,1.23,.37h.49l.5-.37,.24-.13,.13-.24v-.61l-.87-3.44h0l3.69,2.09,3.57,1.85,1.85,.74,1.85,.74,1.85,.61,1.97,.25,.5,.98,.37,.87,.12,.86v.86l-.12,1.73,.12,.37,.25,.37,.24,.25h.74l.37-.13,.25-.24,.12-.37,.25-1.11v-1.36l-.12-1.11-.37-1.23-.25-.5,.61-.12,.61,.86,.61,.87,.37,.98,.24,.99,.13,.99,.12,.98-.12,1.11-.13,.99-.24,1.11-.49,.86-.49,.99-.74,.74-.12,.25v-1.36l-.25-.49-.37-.5-.37-.24h-.74l-.24,.24-.25,.25-.12,.25v.37l.12,.37-.12-.13-.13,.13v.61l-.37,1.23-.49,1.11-1.11,2.46-1.36,2.34-.86,1.35-1.11,1.23-1.11,1.11-1.36,.98-1.35,.87-1.48,.74-1.6,.49-1.6,.24-1.73,.13-1.72-.13-1.73-.37-1.72-.49-1.72-.74-1.48-.86-1.6-.86-1.35-1.11-1.23-.99-1.11-1.23-1.11-1.23-.86-1.35-.49-.87-.37-.74-.61-1.72-.49-1.73-.61-1.6-.25-.37-.37-.13-.37,.13-.12,.12-.12,.25-.13,1.48,.13,1.48-.74-.49-.61-.49-.61-.61-.37-.61-.37-.74-.25-.87-.37-1.72-.12-1.6,.12-.74,.12-.74,.25-.74,.25-.74,.37-.61,.61-.5h.25l-.12,.99,.12,.99,.12,.37,.25,.37,.24,.37,.37,.24,.37,.13,.25-.13,.25-.12,.24-.25v-.98l-.24-.99,.12-.61,.12-.61,.5-1.11,.49-.87,.49-.86,2.22-1.97,1.48-1.36,1.48-1.6,.61-.99,.49-.86,.37-.99,.25-.99-.12-.24-.25-.13h-.25l-.12,.13-.74,.61-.61,.87-1.11,1.6-1.35,1.36-1.48,1.35-.87,.62-.98,.74-1.97,1.48,.25-2.22,.49-2.22,.62-2.1,.74-2.09,.61-1.48,.86-1.48,.86-1.36,1.11-1.11,.5-.37,.61-.37,1.11-.24,1.11-.25,.5-.12,.61-.25v-.25l-.37-.49-.37-.37-.61-.25h-1.23l-.61,.13-1.11,.37-.74,.37-.61,.49-.61,.61-.61,.61-.99,1.23-.86,1.48-.74,1.48-.74,1.73-.62,1.85-.61,1.73-.37,1.85-.25,1.97v1.73l.12,1.85-.61,.37-.5,.74-.37,.74-.24,.98-.5,1.72-.12,1.23,.12,1.36,.25,1.48,.37,1.48,.62,1.36,.74,1.23,.49,.49,.61,.5,.49,.37,.61,.24,.74,.25h.74l.61,1.23,.61,1.24,.74,1.11,.86,1.11,.86,.98,.87,.87,1.97,1.72,1.85,1.36,2.1,1.23-.37,.12-.37,.37-.13,.37-.24,.37-.13,.99-.12,.99v.74l.12,.98-.86,.13-.74,.12-1.36,.25-1.85,.37-1.85,.49-3.57,.86-3.44,.99-2.47,.99-2.34,.98-2.34,1.24-2.09,1.48-1.73,1.48-1.72,1.6-1.48,1.85-1.35,1.85-.49,1.11-.49,.99-.49,1.11-.25,1.11-.25,1.11-.12,1.11,.12,1.11,.13,1.11,.12,.49,.25,.25,.24,.12h.37l.37,.37,.49,.12,1.97,.13,2.1,.37,1.97,.49,1.97,.49,3.94,1.23,1.97,.49,1.97,.37,5.29,.49,5.41,.25,5.3,.25,5.29,.12h10.71l5.42-.37,5.29-.49,4.18-.5,4.06-.49,2.1-.25,2.09-.49,1.97-.49,1.97-.62,.37-.25,.37-.37,.12-.37,.13-.37h.49l.49-.24,.25-.13,.12-.24v-.61l-.24-2.1-.5-1.97-.61-1.97-.87-1.85h.13l.24-.13,.13-.37v-.24l-.25-.25-.99-.37-.61-.99-.74-1.11-1.73-1.97-1.97-1.85-2.1-1.6-1.23-.74-1.11-.74-2.59-1.11-2.59-.87-2.71-.74-3.08-.61-3.08-.49-.61-.12-.49-.12-1.85-.37-.99-.13h-.98v-3.57l-.13-.61-.12-.37,1.11-.74,1.11-.62,1.11-.86,.99-.86,.86-.99,.86-.98,.87-1.11,.74-1.11,1.23-2.1,.86-1.6,.74-1.6h.37l.37-.12,.74-.37,.74-.74,.74-.86,.61-.99,.37-.86,.61-1.48,.25-1.11,.12-1.11v-1.11l-.12-1.11-.12-1.11-.37-1.11-.49-.99-.61-.99,.24-.12,.25-.25,.12-.49-.12-.49-.37-.5v-2.84l-.12-2.84-.25-1.36-.25-1.48-.37-1.35-.36-1.36-.49-1.36-.61-1.23-.74-1.11-.87-1.11-.86-1.11-1.11-.86-1.11-.86-1.36-.74-1.6-.74-1.97-.61-1.85-.49-2.1-.37-2.1-.13-1.99-.15Z" fill="#141325" fill-rule="evenodd"/></g></g></svg>