<svg xmlns="http://www.w3.org/2000/svg" viewBox="0 0 841.89 595.28"><defs><style>.cls-1{isolation:isolate;}.cls-2,.cls-25,.cls-3,.cls-5{fill:none;}.cls-2,.cls-3,.cls-8{stroke:#626262;}.cls-2,.cls-25,.cls-8{stroke-linecap:round;stroke-linejoin:round;}.cls-3,.cls-5{stroke-miterlimit:10;}.cls-4{fill:#f09587;opacity:0.48;}.cls-5{stroke:#1a1a18;}.cls-6{fill:#5eb676;opacity:0.67;}.cls-6,.cls-7{mix-blend-mode:multiply;}.cls-7{fill:#00a6c4;opacity:0.46;}.cls-24,.cls-8{fill:#fff;}.cls-9{font-size:33.06px;}.cls-12,.cls-15,.cls-19,.cls-23,.cls-9{fill:#626262;}.cls-12,.cls-15,.cls-19,.cls-9{font-family:SignatraDEMO;}.cls-10{letter-spacing:0em;}.cls-11{letter-spacing:-0.01em;}.cls-12{font-size:28.43px;}.cls-13{letter-spacing:-0.01em;}.cls-14{letter-spacing:-0.01em;}.cls-15{font-size:36.33px;}.cls-16{letter-spacing:-0.01em;}.cls-17{letter-spacing:-0.01em;}.cls-18{letter-spacing:0em;}.cls-19{font-size:33.21px;}.cls-20{letter-spacing:-0.01em;}.cls-21{letter-spacing:-0.01em;}.cls-22{letter-spacing:-0.01em;}.cls-25{stroke:#fff;stroke-width:0.5px;}</style></defs><title>01_illustration_my_alfred</title><g class="cls-1"><g id="dessin"><ellipse class="cls-2" cx="710.51" cy="443.67" rx="21.47" ry="7.26"/><polygon class="cls-3" points="310.24 238.33 230.21 235.78 230.39 135.24 310.02 145.13 310.24 238.33"/><polyline class="cls-3" points="310.24 238.33 304.73 239.35 224.58 238.01 224.76 140.33 230.39 135.24"/><line class="cls-3" x1="230.21" y1="235.78" x2="224.58" y2="238.01"/><polygon class="cls-3" points="310.24 270.79 230.21 277.33 230.39 377.88 310.02 363.99 310.24 270.79"/><polyline class="cls-3" points="310.24 270.79 304.73 270.76 224.58 276.11 224.76 372.79 230.39 377.88"/><line class="cls-3" x1="230.21" y1="277.34" x2="224.58" y2="276.11"/><path class="cls-4" d="M309.44,160.73c.93-2.68,1.29-5.57-.24-8.14-1.84-3.09-5.38-3.81-8.62-4.59a147.89,147.89,0,0,0-27.85-4,113.44,113.44,0,0,0-13.55,0c-3.42.25-5.83,1.77-7.1,5-.27.68-.51,1.37-.73,2.07-2.27,4.15-2.09,10.36-2.64,14.53,0,.1,0,.21-.05.31-.16.81-.3,1.63-.42,2.45-.92,4.89-2.22,10.91,1.28,14.46,4,4,11.43,3.38,16.56,3.83l1.51.13a224,224,0,0,0,23.3,3.7c5,.53,11.83,2.1,14.57-2.33a3.25,3.25,0,0,0,1.7-2.55l2.1-24.27C309.33,161.2,309.39,161,309.44,160.73Z"/><polygon class="cls-3" points="542.63 242.31 620.67 239.77 620.49 139.23 542.85 147.12 542.63 242.31"/><polyline class="cls-3" points="542.63 242.31 548.14 243.34 626.29 242 626.11 144.32 620.49 139.23"/><line class="cls-3" x1="620.67" y1="239.77" x2="626.29" y2="241.99"/><polygon class="cls-3" points="570.62 453.61 661.28 467.93 682.75 353.63 591.4 347.82 570.62 453.61"/><polyline class="cls-3" points="570.62 453.61 576.6 456.28 667.13 471.99 688.04 360.63 682.75 353.63"/><line class="cls-3" x1="661.28" y1="467.93" x2="667.13" y2="471.99"/><path class="cls-4" d="M658.1,370.42c.94-3.09,1.23-6.39-.62-9.25-2.22-3.44-6.27-4.11-10-4.86A168.62,168.62,0,0,0,615.63,353a134.32,134.32,0,0,0-15.41.61c-3.89.43-6.56,2.27-7.88,6-.27.78-.51,1.58-.73,2.39-2.42,4.81-1.94,11.87-2.4,16.63,0,.12,0,.24,0,.36-.15.93-.28,1.87-.38,2.81-.84,5.59-2.07,12.51,2.06,16.39,4.69,4.4,13.16,3.37,19,3.66l1.73.09a253.86,253.86,0,0,0,26.66,3.23c5.74.39,13.55,1.89,16.48-3.27a3.66,3.66,0,0,0,1.82-3l1.37-27.71A7.66,7.66,0,0,0,658.1,370.42Z"/><polyline class="cls-3" points="581.65 373.76 541.85 369.81 541.63 276.62 621.67 278.16 621.56 344.23"/><polyline class="cls-3" points="541.63 276.62 547.14 276.59 627.29 276.93 627.18 344.51"/><line class="cls-5" x1="621.67" y1="278.16" x2="627.29" y2="276.93"/><ellipse class="cls-3" cx="195.59" cy="418.69" rx="20.11" ry="5.77"/><path class="cls-3" d="M194.25,418.69s7.48-12.8-4.27-28.83a30.35,30.35,0,0,1-3.26-31.5"/><path class="cls-3" d="M201,417.42s-1.78-68.23,3.66-77.06c5.25-8.53,8.42-.43,8.72,2.81s-1.41,7.32-4.22,3.38a16.06,16.06,0,0,1-3-7.78"/><path class="cls-3" d="M190,343.74s-3.51-4.69-9.7,1.59-5,11.06-5,11.06a7.47,7.47,0,0,1,7.29-4.78C188.35,351.61,192,349.64,190,343.74Z"/><path class="cls-3" d="M191.72,360.42s-5.53.85-5.91-6.47c0,0,.47-5.9,5.72-2.07C191.53,351.88,194.81,355.08,191.72,360.42Z"/><path class="cls-3" d="M201.35,361.52s-9.1-4.5-10.82,5,7.28,3.75,7.28,3.75-.53-8.25,3.54-8.72"/><path class="cls-3" d="M183.92,374.22s9.09-4.5,10.81,5-7.28,3.75-7.28,3.75.53-8.25-3.53-8.72"/><path class="cls-3" d="M207.25,373.12s-5.53.85-5.9-6.47c0,0,.46-5.9,5.71-2.07C207.06,364.58,210.35,367.78,207.25,373.12Z"/><path class="cls-3" d="M175.48,418.69l6.39,43.83s14.29,12.18,29.1,0l4.73-43.83"/><path class="cls-6" d="M201.78,368.86a4.87,4.87,0,0,0,.95-4.45,5.11,5.11,0,0,0-6.15-3.49c-4.6,1.11-11.48,5.69-9.14,11.23a6.12,6.12,0,0,0,8.11,3,6.47,6.47,0,0,0,3.23-3.07s0-.11.07-.23A5.22,5.22,0,0,0,201.78,368.86Z"/><path class="cls-6" d="M211.56,338.13a3.31,3.31,0,0,0-3-.64,3.47,3.47,0,0,0-2.37,4.18c.76,3.11,3.86,7.78,7.62,6.2a4.16,4.16,0,0,0,2-5.51,4.43,4.43,0,0,0-2.08-2.19l-.16-.05A3.55,3.55,0,0,0,211.56,338.13Z"/><path class="cls-6" d="M206.5,367.6a3.31,3.31,0,0,0-3-.64,3.46,3.46,0,0,0-2.37,4.17c.76,3.12,3.86,7.79,7.62,6.2a4.15,4.15,0,0,0,2-5.5,4.39,4.39,0,0,0-2.08-2.19l-.16-.05A3.55,3.55,0,0,0,206.5,367.6Z"/><path class="cls-6" d="M190.15,349.85a4.54,4.54,0,0,0,1.14-4.62,6.37,6.37,0,0,0-7.44-3.63c-5.56,1.16-13.89,5.91-11.06,11.66,1.62,3.3,6.13,4.46,9.82,3.13a7.53,7.53,0,0,0,3.9-3.19l.09-.25A5.91,5.91,0,0,0,190.15,349.85Z"/><path class="cls-6" d="M190.75,374.26a3.35,3.35,0,0,0-3-.64,3.47,3.47,0,0,0-2.37,4.18c.75,3.12,3.86,7.78,7.62,6.2a4.16,4.16,0,0,0,2-5.51,4.39,4.39,0,0,0-2.09-2.18l-.15-.06A3.57,3.57,0,0,0,190.75,374.26Z"/><ellipse class="cls-7" cx="346.47" cy="463.58" rx="110.7" ry="32.54"/><line class="cls-2" x1="368.23" y1="349.12" x2="444.66" y2="355.31"/><line class="cls-2" x1="459.55" y1="344.51" x2="444.66" y2="355.31"/><polyline class="cls-2" points="368.23 349.12 368.23 352.95 440.89 358.54"/><polyline class="cls-2" points="368.23 352.95 345.17 440.14 348.41 440.14 362.75 433.25 370.11 402.64 430.53 407.65 420.94 453.36 425.05 453.36 436.25 443.66 442.76 408.36 454.58 403.15 454.58 425.51 465.83 417.22 459.33 345.28"/><line class="cls-2" x1="444.66" y1="355.31" x2="425.05" y2="453.36"/><polyline class="cls-2" points="451.31 404.59 451.31 425.37 454.58 425.51"/><line class="cls-2" x1="348.41" y1="440.14" x2="371.45" y2="353.56"/><polyline class="cls-2" points="391.84 355.13 394.95 381.08 435.27 384.59"/><polyline class="cls-2" points="440.89 358.54 431.23 404.59 361.48 398.37 394.95 381.08"/><polyline class="cls-2" points="361.48 398.37 361.48 402.03 370.11 402.64"/><line class="cls-2" x1="431.23" y1="404.59" x2="430.53" y2="407.66"/><path class="cls-8" d="M707.42,264.36V442.67s3.66,2.25,5.91,0,0-178.31,0-178.31"/><path class="cls-2" d="M690.83,209l-12.94,49.22L688,261.83l21.35,2.53,19.12-1.13,13.47-3L729.89,209S708.55,203.33,690.83,209Z"/><line class="cls-2" x1="720.64" y1="215.39" x2="727.89" y2="259.59"/><line class="cls-2" x1="709.39" y1="215.39" x2="707.62" y2="259.59"/><line class="cls-2" x1="698.3" y1="215.39" x2="690.15" y2="256.49"/><path class="cls-7" d="M734.75,261.18a2.36,2.36,0,0,0,3.16-1.67c.77-2.15.2-5.35-.28-8.31-1.34-8.33-3-16.66-5.16-24.89-1-3.93-2.07-7.91-3.28-11.75-.93-2.93-2.11-4.74-3.7-5.26a7.18,7.18,0,0,0-1-.25c-2.19-1.24-4.59,0-6.37.32H718a9.45,9.45,0,0,0-1.07.08c-2.15.08-4.84,0-5.4,3.71a45.74,45.74,0,0,0,.49,15.07c.11.44.21.89.32,1.34,1.21,7,2.51,18.57,4.08,25.51,1,4.46-1,5.65,1.44,7.23.42.69.93,1.14,1.41,1l15.17-2.18A1.08,1.08,0,0,0,734.75,261.18Z"/><line class="cls-2" x1="724.26" y1="266.61" x2="724.26" y2="297.64"/><polyline class="cls-2" points="167.98 73.67 335.05 121.48 335.05 396.37 219.17 437.05"/><line class="cls-2" x1="335.05" y1="121.48" x2="688.04" y2="99.55"/><line class="cls-2" x1="335.05" y1="396.37" x2="350.78" y2="396.85"/><line class="cls-2" x1="470.61" y1="407.66" x2="570.62" y2="416.23"/><line class="cls-2" x1="682.75" y1="427.86" x2="704.23" y2="429.73"/><path class="cls-2" d="M367.39,427.79a321.52,321.52,0,0,1,53.83,5"/><path class="cls-2" d="M445,438.83c17.1,5.73,27.46,13.23,27.46,21.45,0,18-49.57,32.54-110.71,32.54S251,478.25,251,460.28c0-15.82,38.43-29,89.36-31.93"/><text class="cls-9" transform="translate(247.89 225.71) rotate(-45)">B<tspan class="cls-10" x="17.92" y="0">r</tspan><tspan x="28.86" y="0">i</tspan><tspan class="cls-11" x="36.59" y="0">c</tspan><tspan x="51.2" y="0">olage</tspan></text><text class="cls-12" transform="translate(244.23 337.61) rotate(-45)"><tspan class="cls-13">C</tspan><tspan x="16.18" y="0">ours de </tspan><tspan class="cls-14" x="0" y="34.11">C</tspan><tspan x="16.15" y="34.11">uisine</tspan></text><text class="cls-15" transform="translate(560.03 226.89) rotate(-45)"><tspan class="cls-16">C</tspan><tspan x="20.67" y="0">oiffu</tspan><tspan class="cls-17" x="90.31" y="0">r</tspan><tspan class="cls-18" x="101.82" y="0">e</tspan></text><text class="cls-19" transform="translate(559.65 360.71) rotate(-45)"><tspan class="cls-20">C</tspan><tspan x="18.9" y="0">oaching</tspan></text><text class="cls-19" transform="matrix(0.79, -0.61, 0.61, 0.79, 592.64, 440.37)">Ba<tspan class="cls-21" x="34.01" y="0">b</tspan><tspan class="cls-22" x="52.67" y="0">y</tspan><tspan x="68.11" y="0">sitting</tspan></text></g><g id="tracé"><polyline class="cls-3" points="380.13 280.58 410.88 251.64 440.11 280.87"/><polyline class="cls-3" points="365.65 295.48 355.69 305.45 402.91 352.68 458.27 297.32 451.78 290.82"/><polyline class="cls-3" points="410.88 251.64 415.66 251.64 442.44 278.61"/><polyline class="cls-3" points="452.63 287.61 461.61 296.98 458.27 297.32"/><polyline class="cls-3" points="402.91 352.68 406.05 352.44 461.61 296.89"/><path class="cls-23" d="M436.24,300.69a36.17,36.17,0,0,0,7.88-11c.08-.15.16-.32.24-.49a44.89,44.89,0,0,0,3.32-10c.25-1.18.5-2.37.78-3.54a54.34,54.34,0,0,0-1.7-30.35c-1.5-4.5-4-8.67-6.1-13a39.9,39.9,0,0,0-2.21-3.57l.47-.5a5.53,5.53,0,0,1,1.75.81c3,3.09,6.25,6,8.86,9.44,7.38,9.59,11.25,20.38,13.43,32a106,106,0,0,1,2.43,24.22c-.16,8.53-1.6,15.74-2.75,23.55-.69,4.71.37,4.69,4.89,5.82,2.85.72,5.68,1.51,8.52,2.28,3.23.87,5.65,3,8,5.21,3.27,3.08,3.06,7.12-.84,9.24a46.33,46.33,0,0,1-9.44,3.82c-5.44,1.54-11,2.65-16.48,4-3.61.88-7,.93-10.06-1.68a4.39,4.39,0,0,0-2.94-.73c-8.05.68-16.08,1.64-24.14,2.16a28.8,28.8,0,0,1-7.36-.11l2.69-2.68c2.07.25.45,0,2.54-.05,4.6-.19,9.18-.5,13.78-.76a81.9,81.9,0,0,0,10.77-1.31c8.1-1.6,13.67-21.22,13.67-21.22a118.38,118.38,0,0,0,4.52-21.75,97.13,97.13,0,0,0-4-39.94,3.86,3.86,0,0,0-.32-.72c-.05-.08-.21-.1-.47-.22a8.42,8.42,0,0,0-.17,1.52c.42,6.21-.88,12.19-2.53,18.09A46.37,46.37,0,0,1,449,289.92s-8.21,13.61-15.31,16.84"/><path class="cls-23" d="M436.4,223.46c.5-.64,1-1.3,1.52-1.91,1.47-1.68,3.08-3.25,4.45-5,3-3.86,3.27-11.34.64-15.5a6.14,6.14,0,0,0-5.08-3.28,2.26,2.26,0,0,0-1.52.6c-.16.17.16.93.39,1.35,1.8,3.28,4,6.45,3.51,10.45a34.75,34.75,0,0,1-1.58,5.63,11,11,0,0,1-.74,1.55l-.83-.77a18,18,0,0,0,.6-3.94,4.23,4.23,0,0,0-1.33-2.72c-.89-.75-.83-1.37-.77-2.36a34.9,34.9,0,0,0-.06-6.78c-.24-1.86-1.43-2.1-2.68-.61a31.55,31.55,0,0,0-2.63,3.92c-1.18,1.93-2.2,0-3.56-1.79-.76-1-1.21-2.31-1.93-3.4-2.73-4.15-6.74-6.53-11.36-8a31.2,31.2,0,0,0-16.73-1c-5.62,1.24-10.11,6.27-13.92,10.44a8.58,8.58,0,0,0-1.12,2.07c-.46,1-.23,1.53.67,2.3a15,15,0,0,1,2.75,3.71c.22.37-.13,1.08-.21,1.63-.52-.14-1.05-.26-1.56-.43-.17-.06-.26-.34-.43-.39-.94-.31-2.89-.58-3.84-.86-.13.95-.28,1.9-.38,2.86a2.78,2.78,0,0,0,.12.77c-1.67-.39-1.07-.93-1-3.35a24.2,24.2,0,0,0,.09-4.47,8.43,8.43,0,0,0-1.38,2.26c-.42,2-.55,4-.91,6a5.3,5.3,0,0,1-.85,1.58c-.42-.43-.11-.8-.22-1.31-1-4.47-1.74-7.91,1-11.62,1.13-1.51,3.48-2.11,5.29-3.1a9.76,9.76,0,0,0,2.51-2.35c3-4.39,7.54-6.5,12.23-8.26a28.41,28.41,0,0,1,19.72-.12c4.75,1.66,9.24,4.2,11.94,8.86.78,1.35,1.55,1.43,2.85.55,2.8-1.88,5.66-3.47,9.35-2.73,4.07.82,8.25,4.69,9.16,8.77a16.77,16.77,0,0,1-3.85,15.09,44.72,44.72,0,0,1-5,5,10.82,10.82,0,0,1-2.93,1.29Z"/><path class="cls-23" d="M368,320.49c-2.71,7.21-.37,9.84,2.4,16.74.94,2.37.86,2.41-1.65,3.24a83.59,83.59,0,0,0-8.83,3.3c-2.75,1.26-2.87,4.46-.17,5.82a13.4,13.4,0,0,0,6,1.6c5.71,0,11.41-.52,17.12-.79,3.35-.15,6.71-.21,10.05-.36a1.89,1.89,0,0,0,2-2.17c0-.35-1.4-.8-2.15-.77-5.11.21-10.23.72-15.34.76a35.49,35.49,0,0,1-8-1.2c-.78-.18-1.36-1.24-2-1.89A22.39,22.39,0,0,1,369.3,343a3.39,3.39,0,0,1,1.46-.57c4.44-.84,8.89-1.64,13.34-2.48a9.59,9.59,0,0,0,1.6-.58l-.07-.59a11,11,0,0,0-1.95-.32c-1.71,0-3.42.18-5.13.15a2.35,2.35,0,0,1-1.67-.7c-3.95-5.54-5.91-7.35-5.75-14.14,0-.45-.26.82,0,0Z"/><path class="cls-23" d="M394,303.6c-.14,2.36-.52,2.31-2.65,1.72a20.48,20.48,0,0,1-7.75-3.86c-1.17-.95-3.18-.8-4.58-1.56-6.21-3.37-10-8.73-12.12-15.38-3.41-10.85-2.61-21.53,1.42-32a25,25,0,0,1,8.2-10.93,6.8,6.8,0,0,1,2-.92l.52.46a10,10,0,0,0-3.29,2.61c-4.49,5.86-6.46,12.6-6.9,19.82a60.36,60.36,0,0,0,.6,16.11A41.42,41.42,0,0,0,376.42,295c2.32,1.71,2.32,1.71,3.5,2.54l.53-.46a22.3,22.3,0,0,1-.86-2.23,14.83,14.83,0,0,1-.77-3.61c0-.7.67-1.41,1-2.12a7.34,7.34,0,0,1,1.71,1.61c.92,1.74,1.62,3.59,2.49,5.36a3.94,3.94,0,0,0,1.84,1.73,9.31,9.31,0,0,1,.13-1.59,19.27,19.27,0,0,1,.74-1.85,7,7,0,0,1,1.87,1.41A19.73,19.73,0,0,1,390,299a4.41,4.41,0,0,0,.55-.65c.39-.84.76-1.7,1.14-2.54a18.44,18.44,0,0,1,2.32,1.77,11.59,11.59,0,0,1,1.58,2.26C396.92,302.06,396.58,302.91,394,303.6Z"/><path class="cls-23" d="M430.4,308a12.61,12.61,0,0,1-6.81.06c-1.58-.4-1.83-.53-.48-2.72-1.06-1.74-.73-2.66,1.4-4.07a13.09,13.09,0,0,1,2.28-1.33,14.18,14.18,0,0,1,2.42-.58c-.3.93-.6,1.86-.89,2.79a5.24,5.24,0,0,0-.08.83,25.47,25.47,0,0,1,2.71-2.26,5.61,5.61,0,0,1,1.93-.45c-.23.67-.41,1.35-.7,2a15.4,15.4,0,0,1-.89,1.49,3.64,3.64,0,0,0,2.11-.75c1.58-1.21,3.1-2.57,4.69-3.72a6.49,6.49,0,0,1,2-.7,7.74,7.74,0,0,1-.68,2.36,22.89,22.89,0,0,1-2.65,2.91c-.58.59-1.23,1.09-1.85,1.63l0,.65A19.08,19.08,0,0,1,430.4,308Z"/><path class="cls-23" d="M392.34,218.35l-2.56,1a7.63,7.63,0,0,0,1.29,2c.88.71,2,1.53,2.92-.13,1.05,4.87-.11,6.85-4.92,8.59-2.34.84-2.59,1.72-1,3.69,3,3.85,8.37,4.19,12.62.73a48,48,0,0,0,4.14-3.93,5.29,5.29,0,0,0,.74-1.65l1.12,1a15.31,15.31,0,0,1-1.08,2.23,31.88,31.88,0,0,1-10.17,8.88,21.75,21.75,0,0,0-2,1.23c-2.07,1.53-4.22,2.54-6.93,1.82-1.07-.28-2.75.35-3.28-.23-1.05-1.14-1.45-2.85-2.19-4.3a22.22,22.22,0,0,0-1.88-3.29A13.89,13.89,0,0,1,376,227l.57-.23a13.62,13.62,0,0,0,.83,1.77,20.43,20.43,0,0,0,2.56,3.63,2.53,2.53,0,0,0,3.59,0c1.33-1.06,1.33-2-.16-2.88a8.85,8.85,0,0,1-3.94-4.74c-1.37-3.71-.11-6.84,3.48-8.44C386.19,214.74,390.8,215.85,392.34,218.35Zm-6,18.3-.57.25a32.86,32.86,0,0,0,.84,3.69,1.64,1.64,0,0,0,1.33.85,2.17,2.17,0,0,0,1.39-1.13,1.67,1.67,0,0,0-.29-1.55A25.38,25.38,0,0,0,386.36,236.65Zm-2.18,4.49.69-.17c-.29-1.09-.58-2.19-.93-3.27,0,0-.62.16-.95.24Z"/><path class="cls-23" d="M413.93,207.86a8,8,0,0,1-2.19,1c-2.28.13-4.44.41-6.11,2.22a1.41,1.41,0,0,1-1.18.2,2,2,0,0,1-.28-1.41c.67-2.44,5.51-4.82,7.88-3.83C412.67,206.28,413.09,207,413.93,207.86Z"/><path class="cls-24" d="M386.36,236.65a25.38,25.38,0,0,1,2.7,2.11,1.67,1.67,0,0,1,.29,1.55,2.17,2.17,0,0,1-1.39,1.13,1.64,1.64,0,0,1-1.33-.85,32.86,32.86,0,0,1-.84-3.69Z"/><path class="cls-24" d="M384.18,241.14l-1.19-3.2c.33-.08.95-.26.95-.24.35,1.08.64,2.18.93,3.27Z"/><path class="cls-25" d="M462.61,342.49a25.13,25.13,0,0,1,10.49-14.06"/><path class="cls-25" d="M468.74,343.49a25.11,25.11,0,0,1,10.5-14.06"/><path class="cls-25" d="M454,342.87a28.56,28.56,0,0,1,12.86-16"/><path class="cls-25" d="M458.26,329.54A34.18,34.18,0,0,1,482,334.88"/><path class="cls-25" d="M455,334a34.18,34.18,0,0,1,23.69,5.34"/><path class="cls-25" d="M452.63,339.67s10.69-2.68,20.47,2.49"/></g></g></svg>