<svg xmlns="http://www.w3.org/2000/svg" viewBox="0 0 841.89 595.28"><defs><style>.cls-1{isolation:isolate;}.cls-2,.cls-24,.cls-3{fill:none;}.cls-2{stroke:#626262;}.cls-2,.cls-3{stroke-miterlimit:10;}.cls-3{stroke:#1a1a18;}.cls-10,.cls-13,.cls-16,.cls-20,.cls-4{fill:#626262;}.cls-5{fill:#fff;}.cls-6{fill:#f09587;opacity:0.48;}.cls-7,.cls-9{fill:#00a6c4;opacity:0.46;}.cls-8{fill:#5eb676;opacity:0.67;}.cls-8,.cls-9{mix-blend-mode:multiply;}.cls-10{font-size:39.48px;}.cls-10,.cls-13,.cls-16,.cls-20{font-family:SignatraDEMO;}.cls-11{letter-spacing:0em;}.cls-12{letter-spacing:-0.01em;}.cls-13{font-size:28.43px;}.cls-14{letter-spacing:-0.01em;}.cls-15{letter-spacing:-0.01em;}.cls-16{font-size:39.91px;}.cls-17{letter-spacing:-0.01em;}.cls-18{letter-spacing:0em;}.cls-19{letter-spacing:-0.01em;}.cls-20{font-size:33.21px;}.cls-21{letter-spacing:-0.01em;}.cls-22{letter-spacing:-0.01em;}.cls-23{letter-spacing:-0.01em;}.cls-24{stroke:#fff;stroke-linecap:round;stroke-linejoin:round;stroke-width:0.5px;}</style></defs><title>01_illustration_my_alfred</title><g class="cls-1"><g id="dessin"><polygon class="cls-2" points="247.42 217.67 154.68 214.73 155.05 98.42 246.86 109.86 247.42 217.67"/><polyline class="cls-2" points="247.42 217.67 241.05 219.17 148.17 217.62 148.54 104.31 155.05 98.42"/><line class="cls-2" x1="154.68" y1="214.73" x2="148.17" y2="217.62"/><polygon class="cls-2" points="581.61 217.67 673.35 214.73 672.98 98.42 582.17 109.86 581.61 217.67"/><polyline class="cls-2" points="581.61 217.67 587.98 219.17 679.86 217.62 679.49 104.31 672.98 98.42"/><line class="cls-2" x1="673.35" y1="214.73" x2="679.86" y2="217.62"/><polygon class="cls-2" points="372.87 221.19 292.83 218.65 293.01 118.1 372.65 127.99 372.87 221.19"/><polyline class="cls-2" points="372.87 221.19 367.36 222.22 287.21 220.87 287.39 123.19 293.01 118.1"/><line class="cls-2" x1="292.83" y1="218.65" x2="287.21" y2="220.87"/><polygon class="cls-2" points="256.42 263.17 162.68 271.12 163.05 387.42 255.86 370.98 256.42 263.17"/><polyline class="cls-2" points="256.42 263.17 250.05 262.67 156.17 269.23 156.54 381.53 163.05 387.42"/><line class="cls-2" x1="162.68" y1="271.11" x2="156.17" y2="269.23"/><polygon class="cls-2" points="372.87 253.65 292.83 260.2 293.01 360.74 372.65 346.85 372.87 253.65"/><polyline class="cls-2" points="372.87 253.65 367.36 253.63 287.21 258.97 287.39 355.65 293.01 360.74"/><line class="cls-2" x1="292.83" y1="260.2" x2="287.21" y2="258.97"/><polyline class="cls-2" points="462.9 348.09 450.06 345.85 449.85 252.65 529.88 257.2 529.83 291.73"/><polyline class="cls-2" points="449.85 252.65 455.36 252.63 535.51 255.97 535.45 291.73"/><line class="cls-3" x1="529.88" y1="257.2" x2="535.51" y2="255.97"/><polygon class="cls-2" points="450.16 221.19 528.2 218.65 528.01 118.1 450.38 127.99 450.16 221.19"/><polyline class="cls-2" points="450.16 221.19 455.67 222.22 533.82 220.87 533.64 123.19 528.01 118.1"/><line class="cls-2" x1="528.2" y1="218.65" x2="533.82" y2="220.87"/><ellipse class="cls-2" cx="215.17" cy="434.66" rx="20.11" ry="5.77"/><path class="cls-2" d="M213.83,434.66s7.48-12.8-4.28-28.83a30.36,30.36,0,0,1-3.25-31.5"/><path class="cls-2" d="M220.58,433.39s-1.78-68.23,3.65-77.06c5.25-8.53,8.42-.44,8.72,2.81s-1.4,7.31-4.22,3.37a15.93,15.93,0,0,1-3-7.77"/><path class="cls-2" d="M209.55,359.7s-3.5-4.69-9.69,1.6-5,11.06-5,11.06a7.45,7.45,0,0,1,7.28-4.78C207.92,367.58,211.56,365.61,209.55,359.7Z"/><path class="cls-2" d="M211.3,376.39s-5.53.84-5.91-6.47c0,0,.47-5.91,5.72-2.07C211.11,367.85,214.39,371.05,211.3,376.39Z"/><path class="cls-2" d="M220.92,377.48s-9.1-4.49-10.81,5,7.28,3.75,7.28,3.75-.53-8.26,3.53-8.73"/><path class="cls-2" d="M203.49,390.18s9.1-4.49,10.82,5-7.29,3.75-7.29,3.75.53-8.26-3.53-8.73"/><path class="cls-2" d="M226.83,389.09s-5.53.84-5.91-6.47c0,0,.47-5.91,5.72-2.07C226.64,380.55,229.92,383.75,226.83,389.09Z"/><path class="cls-2" d="M195.06,434.66l6.39,43.82s14.28,12.19,29.1,0l4.73-43.82"/><polyline class="cls-2" points="477.91 387.91 508.66 358.97 537.9 388.21"/><polyline class="cls-2" points="463.44 402.82 453.47 412.78 500.7 460.01 556.06 404.65 549.56 398.16"/><polyline class="cls-2" points="508.66 358.97 513.44 358.97 540.22 385.94"/><polyline class="cls-2" points="550.41 394.94 559.39 404.32 556.06 404.65"/><polyline class="cls-2" points="500.7 460.01 503.84 459.78 559.39 404.22"/><polyline class="cls-2" points="114.83 55.95 413.51 102.36 666.64 71.98"/><polyline class="cls-2" points="414.36 102.36 414.36 367.9 238.86 427.7"/><line class="cls-2" x1="188.23" y1="444.92" x2="132.55" y2="464.33"/><line class="cls-2" x1="414.36" y1="367.91" x2="455.64" y2="379.26"/><line class="cls-2" x1="597.45" y1="426.08" x2="676.6" y2="450.83"/><path class="cls-2" d="M550.23,461.82c4.81,3.67,7.44,7.65,7.44,11.81,0,18.18-50.38,32.92-112.53,32.92S332.6,491.81,332.6,473.63,383,440.7,445.14,440.7c3.29,0,6.56,0,9.78.12"/><path class="cls-4" d="M534,408a36.41,36.41,0,0,0,7.89-11l.23-.49a44.67,44.67,0,0,0,3.33-10c.24-1.19.49-2.37.78-3.55a54.49,54.49,0,0,0-1.7-30.34c-1.5-4.5-4-8.68-6.11-13a41.26,41.26,0,0,0-2.2-3.57l.46-.49a5.47,5.47,0,0,1,1.76.8,114.19,114.19,0,0,1,8.86,9.44c7.37,9.6,11.25,20.39,13.43,32a106.16,106.16,0,0,1,2.42,24.23c-.15,8.52-1.59,15.73-2.74,23.54-.69,4.71.36,4.7,4.89,5.83,2.85.71,5.68,1.51,8.52,2.27,3.23.87,5.65,3,8,5.21,3.27,3.09,3,7.13-.84,9.25a46,46,0,0,1-9.45,3.81c-5.43,1.54-11,2.65-16.48,4-3.61.89-7,.93-10.05-1.68a4.4,4.4,0,0,0-2.94-.72c-8.05.68-16.08,1.63-24.14,2.15a29.33,29.33,0,0,1-7.37-.1l2.7-2.68c2.07.24.45,0,2.54-.05,4.59-.2,9.18-.51,13.77-.77a82.05,82.05,0,0,0,10.78-1.3c8.09-1.61,13.67-21.22,13.67-21.22a118.67,118.67,0,0,0,4.52-21.76,96.9,96.9,0,0,0-4-39.93,3.07,3.07,0,0,0-.31-.72c0-.09-.22-.11-.48-.22a9.3,9.3,0,0,0-.17,1.52c.43,6.2-.88,12.19-2.53,18.08a46,46,0,0,1-4.3,10.67s-8.21,13.62-15.31,16.84"/><path class="cls-4" d="M534.18,330.8c.51-.64,1-1.31,1.52-1.92,1.48-1.67,3.08-3.25,4.45-5,3-3.87,3.28-11.34.65-15.51a6.19,6.19,0,0,0-5.08-3.28,2.23,2.23,0,0,0-1.52.61c-.16.16.16.92.39,1.34,1.79,3.28,4,6.46,3.51,10.45a35.5,35.5,0,0,1-1.58,5.63,10.52,10.52,0,0,1-.75,1.55l-.83-.76a17.59,17.59,0,0,0,.6-4,4.24,4.24,0,0,0-1.32-2.72,2.26,2.26,0,0,1-.77-2.36,36.44,36.44,0,0,0-.06-6.77c-.24-1.87-1.43-2.1-2.69-.61a30.82,30.82,0,0,0-2.63,3.92c-1.18,1.92-2.2.05-3.55-1.79-.77-1.05-1.22-2.32-1.94-3.41-2.73-4.15-6.73-6.52-11.36-8a31.16,31.16,0,0,0-16.72-1c-5.62,1.25-10.12,6.28-13.92,10.45a8.08,8.08,0,0,0-1.12,2.07c-.47.95-.24,1.52.66,2.29a14.55,14.55,0,0,1,2.75,3.71c.23.37-.12,1.08-.21,1.64-.52-.14-1.05-.26-1.55-.44-.17-.06-.27-.33-.43-.39-.94-.31-2.89-.58-3.84-.86-.13,1-.28,1.91-.39,2.87a3.83,3.83,0,0,0,.12.76c-1.67-.38-1.07-.93-1-3.34a25.19,25.19,0,0,0,.1-4.48,8.09,8.09,0,0,0-1.38,2.27c-.43,2-.56,4-.91,6a5.84,5.84,0,0,1-.85,1.59c-.42-.44-.11-.81-.23-1.31-1-4.47-1.73-7.91,1-11.62,1.13-1.51,3.49-2.11,5.29-3.11a9.33,9.33,0,0,0,2.52-2.35c3-4.38,7.53-6.49,12.22-8.25a28.49,28.49,0,0,1,19.73-.13c4.75,1.66,9.24,4.21,11.94,8.87.77,1.34,1.55,1.43,2.85.55,2.79-1.89,5.65-3.48,9.34-2.74,4.08.82,8.26,4.7,9.16,8.78a16.77,16.77,0,0,1-3.84,15.08,46.56,46.56,0,0,1-5,5,10.56,10.56,0,0,1-2.94,1.28Z"/><path class="cls-4" d="M465.79,427.82c-2.7,7.21-.36,9.84,2.4,16.75.95,2.36.87,2.41-1.64,3.23a85.22,85.22,0,0,0-8.84,3.31c-2.75,1.26-2.86,4.45-.17,5.82a13.74,13.74,0,0,0,6,1.6c5.7,0,11.41-.53,17.12-.79,3.35-.16,6.7-.21,10-.37a1.89,1.89,0,0,0,2-2.17c0-.35-1.41-.8-2.15-.77-5.12.22-10.23.72-15.35.76a35.64,35.64,0,0,1-8-1.19c-.78-.18-1.36-1.24-2-1.9a22.39,22.39,0,0,1,1.87-1.78,3.66,3.66,0,0,1,1.46-.57c4.44-.84,8.89-1.63,13.33-2.47a10.58,10.58,0,0,0,1.6-.58l-.06-.6a11.1,11.1,0,0,0-2-.31c-1.71,0-3.42.18-5.12.14a2.3,2.3,0,0,1-1.67-.7c-4-5.54-5.92-7.35-5.75-14.14,0-.45-.26.83,0,0Z"/><path class="cls-4" d="M491.81,410.93c-.15,2.37-.52,2.31-2.65,1.72a20.37,20.37,0,0,1-7.76-3.86c-1.17-1-3.17-.79-4.57-1.56-6.22-3.37-10-8.72-12.13-15.37-3.41-10.85-2.6-21.54,1.43-32.06a25,25,0,0,1,8.2-10.93,6.35,6.35,0,0,1,2-.91l.53.45a10.07,10.07,0,0,0-3.3,2.62c-4.49,5.85-6.45,12.6-6.9,19.81a61.2,61.2,0,0,0,.6,16.11,41.32,41.32,0,0,0,7,15.42c2.31,1.7,2.31,1.7,3.5,2.54l.53-.47a23.19,23.19,0,0,1-.87-2.22,15.4,15.4,0,0,1-.77-3.62c0-.7.67-1.41,1-2.11.58.53,1.36.95,1.71,1.61.92,1.73,1.62,3.59,2.49,5.35a4,4,0,0,0,1.84,1.74,7.59,7.59,0,0,1,.13-1.59,14.69,14.69,0,0,1,.74-1.86,6.89,6.89,0,0,1,1.86,1.42,18.39,18.39,0,0,1,1.36,3.16,3.92,3.92,0,0,0,.55-.65c.39-.84.76-1.69,1.14-2.54a20.35,20.35,0,0,1,2.32,1.78,12.8,12.8,0,0,1,1.58,2.25C494.71,409.39,494.37,410.25,491.81,410.93Z"/><path class="cls-4" d="M528.19,415.33a12.81,12.81,0,0,1-6.81.06c-1.59-.41-1.84-.53-.48-2.72-1.06-1.75-.74-2.67,1.39-4.08a14.25,14.25,0,0,1,2.29-1.33,16.23,16.23,0,0,1,2.41-.58c-.29.93-.6,1.86-.88,2.79a4.22,4.22,0,0,0-.08.83,25.46,25.46,0,0,1,2.7-2.25,5.28,5.28,0,0,1,1.94-.45c-.23.66-.42,1.34-.71,2a13.32,13.32,0,0,1-.89,1.49,3.51,3.51,0,0,0,2.12-.75c1.57-1.2,3.1-2.56,4.69-3.72a6.39,6.39,0,0,1,2-.7,8,8,0,0,1-.69,2.36,23.6,23.6,0,0,1-2.64,2.92c-.59.59-1.23,1.08-1.85,1.62l0,.65A18.67,18.67,0,0,1,528.19,415.33Z"/><path class="cls-4" d="M490.12,325.69l-2.55,1a7.44,7.44,0,0,0,1.28,2c.88.71,2,1.54,2.92-.13,1.06,4.88-.11,6.86-4.92,8.59-2.33.84-2.58,1.73-1,3.7,3,3.84,8.37,4.19,12.62.72a48,48,0,0,0,4.14-3.93,5.22,5.22,0,0,0,.73-1.64l1.12,1a15.15,15.15,0,0,1-1.07,2.22A31.88,31.88,0,0,1,493.19,348c-.68.4-1.39.77-2,1.23-2.08,1.54-4.22,2.55-6.94,1.83-1.06-.29-2.75.35-3.28-.23-1-1.14-1.45-2.86-2.18-4.3a23.82,23.82,0,0,0-1.88-3.3,13.87,13.87,0,0,1-3.09-8.87l.57-.23a14.93,14.93,0,0,0,.83,1.76,21.59,21.59,0,0,0,2.56,3.64,2.55,2.55,0,0,0,3.59,0c1.34-1.07,1.34-2-.15-2.89a8.76,8.76,0,0,1-3.94-4.74c-1.38-3.71-.12-6.83,3.47-8.44C484,322.07,488.59,323.18,490.12,325.69Zm-6,18.29-.56.25a30,30,0,0,0,.84,3.69,1.61,1.61,0,0,0,1.33.85,2.21,2.21,0,0,0,1.39-1.12,1.7,1.7,0,0,0-.29-1.55A25.58,25.58,0,0,0,484.14,344ZM482,348.47l.69-.16c-.3-1.1-.59-2.19-.93-3.27,0,0-.62.15-1,.23Z"/><path class="cls-4" d="M511.72,315.2a8.35,8.35,0,0,1-2.2,1c-2.28.12-4.44.4-6.11,2.22-.22.24-1.1.33-1.18.19a2,2,0,0,1-.27-1.41c.67-2.44,5.5-4.82,7.88-3.83C510.46,313.61,510.88,314.35,511.72,315.2Z"/><path class="cls-5" d="M484.14,344a25.58,25.58,0,0,1,2.71,2.12,1.7,1.7,0,0,1,.29,1.55,2.21,2.21,0,0,1-1.39,1.12,1.61,1.61,0,0,1-1.33-.85,30,30,0,0,1-.84-3.69Z"/><path class="cls-5" d="M482,348.47l-1.19-3.2c.33-.08.94-.25,1-.23.34,1.08.63,2.17.93,3.27Z"/><path class="cls-6" d="M372.06,143.59c.93-2.68,1.3-5.57-.24-8.14-1.84-3.09-5.37-3.81-8.61-4.59a148,148,0,0,0-27.85-4,117.79,117.79,0,0,0-13.55,0c-3.43.25-5.83,1.77-7.11,5-.26.68-.5,1.38-.72,2.08-2.28,4.14-2.09,10.35-2.64,14.52,0,.1,0,.21,0,.31-.16.81-.31,1.63-.42,2.46-.93,4.88-2.23,10.91,1.27,14.45,4,4,11.44,3.39,16.57,3.83l1.51.13a223.62,223.62,0,0,0,23.3,3.7c5,.53,11.83,2.1,14.57-2.33a3.23,3.23,0,0,0,1.7-2.55l2.1-24.27A5.94,5.94,0,0,0,372.06,143.59Z"/><path class="cls-6" d="M651.92,119.54c.35-3.21,0-6.51-2.34-9-2.83-2.95-6.93-2.86-10.73-2.89a167.48,167.48,0,0,0-31.92,2.7,130.82,130.82,0,0,0-15,3.49c-3.74,1.15-6,3.46-6.6,7.39-.13.82-.21,1.65-.28,2.48-1.47,5.18.32,12,.77,16.79l0,.36c0,.94.07,1.89.15,2.83.22,5.65.31,12.67,5.1,15.71,5.43,3.44,13.55.85,19.36,0l1.71-.24a252.69,252.69,0,0,0,26.8-1.83c5.7-.69,13.66-.68,15.57-6.3a3.71,3.71,0,0,0,1.24-3.26l-3.86-27.47A7.48,7.48,0,0,0,651.92,119.54Z"/><path class="cls-7" d="M254.21,282.73c.67-3.66.56-7.46-1.94-10.48-3-3.62-7.72-3.85-12.07-4.2a193.47,193.47,0,0,0-36.81.47,152.38,152.38,0,0,0-17.52,2.77c-4.38,1-7.18,3.47-8.18,7.93-.21.93-.37,1.87-.52,2.82-2.11,5.82-.62,13.82-.5,19.31,0,.14,0,.28,0,.42-.05,1.08-.08,2.17-.06,3.26-.21,6.5-.69,14.56,4.55,18.43,5.94,4.39,15.47,2.09,22.2,1.63l2-.13a289.16,289.16,0,0,0,30.88.1c6.6-.33,15.72.34,18.37-5.94a4.24,4.24,0,0,0,1.69-3.63l-2.17-31.82A7.65,7.65,0,0,0,254.21,282.73Z"/><path class="cls-8" d="M221.36,384.83a4.9,4.9,0,0,0,.94-4.45,5.09,5.09,0,0,0-6.15-3.49c-4.59,1.11-11.47,5.69-9.13,11.22a6.11,6.11,0,0,0,8.11,3,6.54,6.54,0,0,0,3.22-3.07,2.22,2.22,0,0,0,.08-.23A5.25,5.25,0,0,0,221.36,384.83Z"/><path class="cls-8" d="M231.14,354.1a3.32,3.32,0,0,0-3-.64,3.45,3.45,0,0,0-2.37,4.17c.75,3.12,3.86,7.79,7.62,6.2a4.16,4.16,0,0,0,2-5.5,4.41,4.41,0,0,0-2.09-2.19l-.16-.05A3.56,3.56,0,0,0,231.14,354.1Z"/><path class="cls-8" d="M226.08,383.57a3.32,3.32,0,0,0-3-.64,3.45,3.45,0,0,0-2.37,4.17c.75,3.12,3.86,7.79,7.62,6.2a4.16,4.16,0,0,0,2-5.5,4.41,4.41,0,0,0-2.09-2.19l-.16-.05A3.56,3.56,0,0,0,226.08,383.57Z"/><path class="cls-8" d="M209.72,365.82a4.52,4.52,0,0,0,1.15-4.62,6.36,6.36,0,0,0-7.45-3.63c-5.56,1.16-13.89,5.91-11.06,11.66,1.62,3.3,6.14,4.46,9.82,3.12a7.45,7.45,0,0,0,3.9-3.19,1.36,1.36,0,0,0,.09-.24A5.91,5.91,0,0,0,209.72,365.82Z"/><path class="cls-8" d="M210.33,390.23a3.34,3.34,0,0,0-3-.64,3.47,3.47,0,0,0-2.36,4.18c.75,3.11,3.86,7.78,7.61,6.19a4.13,4.13,0,0,0,2-5.5,4.39,4.39,0,0,0-2.08-2.19l-.16,0A3.56,3.56,0,0,0,210.33,390.23Z"/><ellipse class="cls-9" cx="420.94" cy="483.9" rx="110.7" ry="32.54"/><text class="cls-10" transform="translate(172.26 205.26) rotate(-45)">B<tspan class="cls-11" x="21.4" y="0">r</tspan><tspan x="34.47" y="0">i</tspan><tspan class="cls-12" x="43.7" y="0">c</tspan><tspan x="61.16" y="0">olage</tspan></text><text class="cls-13" transform="translate(306.88 189.11) rotate(-45)"><tspan class="cls-14">C</tspan><tspan x="16.18" y="0">ours de </tspan><tspan class="cls-15" x="0" y="34.11">C</tspan><tspan x="16.15" y="34.11">uisine</tspan></text><text class="cls-16" transform="translate(309.15 347.68) rotate(-45)"><tspan class="cls-17">C</tspan><tspan class="cls-18" x="22.71" y="0">oiffu</tspan><tspan class="cls-19" x="99.22" y="0">r</tspan><tspan x="111.87" y="0">e</tspan></text><text class="cls-20" transform="translate(465.27 206.92) rotate(-45)"><tspan class="cls-21">C</tspan><tspan x="18.9" y="0">oaching</tspan></text><text class="cls-20" transform="translate(597.49 206.92) rotate(-45)">Ba<tspan class="cls-22" x="34.01" y="0">b</tspan><tspan class="cls-23" x="52.67" y="0">y</tspan><tspan x="68.11" y="0">sitting</tspan></text></g><g id="tracé"><path class="cls-24" d="M560.39,449.83a25.15,25.15,0,0,1,10.5-14.07"/><path class="cls-24" d="M566.53,450.83A25.16,25.16,0,0,1,577,436.76"/><path class="cls-24" d="M551.79,450.2a28.57,28.57,0,0,1,12.85-16"/><path class="cls-24" d="M556,436.88a34.11,34.11,0,0,1,23.69,5.34"/><path class="cls-24" d="M552.8,441.3a34.16,34.16,0,0,1,23.69,5.35"/><path class="cls-24" d="M550.41,447s10.7-2.67,20.48,2.5"/></g></g></svg>