<svg xmlns="http://www.w3.org/2000/svg" viewBox="0 0 841.89 595.28"><defs><style>.cls-1{isolation:isolate;}.cls-2,.cls-24,.cls-3,.cls-5{fill:none;}.cls-2,.cls-3,.cls-9{stroke:#626262;}.cls-2,.cls-24,.cls-9{stroke-linecap:round;stroke-linejoin:round;}.cls-3,.cls-5{stroke-miterlimit:10;}.cls-4{fill:#f09587;opacity:0.48;}.cls-5{stroke:#1a1a18;}.cls-6{fill:#5eb676;opacity:0.67;}.cls-6,.cls-7{mix-blend-mode:multiply;}.cls-7{fill:#00a6c4;opacity:0.46;}.cls-10,.cls-13,.cls-16,.cls-20,.cls-8{fill:#626262;}.cls-9{fill:#fff;}.cls-10{font-size:33.06px;}.cls-10,.cls-13,.cls-16,.cls-20{font-family:SignatraDEMO;}.cls-11{letter-spacing:0em;}.cls-12{letter-spacing:-0.01em;}.cls-13{font-size:28.43px;}.cls-14{letter-spacing:-0.01em;}.cls-15{letter-spacing:-0.01em;}.cls-16{font-size:36.33px;}.cls-17{letter-spacing:-0.01em;}.cls-18{letter-spacing:-0.01em;}.cls-19{letter-spacing:0em;}.cls-20{font-size:33.21px;}.cls-21{letter-spacing:-0.01em;}.cls-22{letter-spacing:-0.01em;}.cls-23{letter-spacing:-0.01em;}.cls-24{stroke:#fff;stroke-width:0.5px;}</style></defs><title>01_illustration_my_alfred</title><g class="cls-1"><g id="dessin"><ellipse class="cls-2" cx="710.51" cy="443.67" rx="21.47" ry="7.26"/><polygon class="cls-3" points="310.24 238.33 230.21 235.78 230.39 135.24 310.02 145.13 310.24 238.33"/><polyline class="cls-3" points="310.24 238.33 304.73 239.35 224.58 238.01 224.76 140.33 230.39 135.24"/><line class="cls-3" x1="230.21" y1="235.78" x2="224.58" y2="238.01"/><polygon class="cls-3" points="310.24 270.79 230.21 277.33 230.39 377.88 310.02 363.99 310.24 270.79"/><polyline class="cls-3" points="310.24 270.79 304.73 270.76 224.58 276.11 224.76 372.79 230.39 377.88"/><line class="cls-3" x1="230.21" y1="277.34" x2="224.58" y2="276.11"/><path class="cls-4" d="M309.44,160.73c.93-2.68,1.29-5.57-.24-8.14-1.84-3.09-5.38-3.81-8.62-4.59a147.89,147.89,0,0,0-27.85-4,113.44,113.44,0,0,0-13.55,0c-3.42.25-5.83,1.77-7.1,5-.27.68-.51,1.37-.73,2.07-2.27,4.15-2.09,10.36-2.64,14.53,0,.1,0,.21-.05.31-.16.81-.3,1.63-.42,2.45-.92,4.89-2.22,10.91,1.28,14.46,4,4,11.43,3.38,16.56,3.83l1.51.13a224,224,0,0,0,23.3,3.7c5,.53,11.83,2.1,14.57-2.33a3.25,3.25,0,0,0,1.7-2.55l2.1-24.27C309.33,161.2,309.39,161,309.44,160.73Z"/><polygon class="cls-3" points="542.63 242.31 620.67 239.77 620.49 139.23 542.85 149.12 542.63 242.31"/><polyline class="cls-3" points="542.63 242.31 548.14 243.34 626.29 242 626.11 144.32 620.49 139.23"/><line class="cls-3" x1="620.67" y1="239.77" x2="626.29" y2="241.99"/><polygon class="cls-3" points="570.62 453.61 661.28 467.93 682.75 353.63 591.4 347.82 570.62 453.61"/><polyline class="cls-3" points="570.62 453.61 576.6 456.28 667.13 471.99 688.04 360.63 682.75 353.63"/><line class="cls-3" x1="661.28" y1="467.93" x2="667.13" y2="471.99"/><path class="cls-4" d="M658.1,370.42c.94-3.09,1.23-6.39-.62-9.25-2.22-3.44-6.27-4.11-10-4.86A168.62,168.62,0,0,0,615.63,353a134.32,134.32,0,0,0-15.41.61c-3.89.43-6.56,2.27-7.88,6-.27.78-.51,1.58-.73,2.39-2.42,4.81-1.94,11.87-2.4,16.63,0,.12,0,.24,0,.36-.15.93-.28,1.87-.38,2.81-.84,5.59-2.07,12.51,2.06,16.39,4.69,4.4,13.16,3.37,19,3.66l1.73.09a253.86,253.86,0,0,0,26.66,3.23c5.74.39,13.55,1.89,16.48-3.27a3.66,3.66,0,0,0,1.82-3l1.37-27.71A7.66,7.66,0,0,0,658.1,370.42Z"/><polyline class="cls-3" points="581.65 373.76 541.85 369.81 541.63 276.62 621.67 278.16 621.56 344.23"/><polyline class="cls-3" points="541.63 276.62 547.14 276.59 627.29 276.93 627.18 344.51"/><line class="cls-5" x1="621.67" y1="278.16" x2="627.29" y2="276.93"/><ellipse class="cls-3" cx="195.59" cy="418.69" rx="20.11" ry="5.77"/><path class="cls-3" d="M194.25,418.69s7.48-12.8-4.27-28.83a30.35,30.35,0,0,1-3.26-31.5"/><path class="cls-3" d="M201,417.42s-1.78-68.23,3.66-77.06c5.25-8.53,8.42-.43,8.72,2.81s-1.41,7.32-4.22,3.38a16.06,16.06,0,0,1-3-7.78"/><path class="cls-3" d="M190,343.74s-3.51-4.69-9.7,1.59-5,11.06-5,11.06a7.47,7.47,0,0,1,7.29-4.78C188.35,351.61,192,349.64,190,343.74Z"/><path class="cls-3" d="M191.72,360.42s-5.53.85-5.91-6.47c0,0,.47-5.9,5.72-2.07C191.53,351.88,194.81,355.08,191.72,360.42Z"/><path class="cls-3" d="M201.35,361.52s-9.1-4.5-10.82,5,7.28,3.75,7.28,3.75-.53-8.25,3.54-8.72"/><path class="cls-3" d="M183.92,374.22s9.09-4.5,10.81,5-7.28,3.75-7.28,3.75.53-8.25-3.53-8.72"/><path class="cls-3" d="M207.25,373.12s-5.53.85-5.9-6.47c0,0,.46-5.9,5.71-2.07C207.06,364.58,210.35,367.78,207.25,373.12Z"/><path class="cls-3" d="M175.48,418.69l6.39,43.83s14.29,12.18,29.1,0l4.73-43.83"/><path class="cls-6" d="M201.78,368.86a4.87,4.87,0,0,0,.95-4.45,5.11,5.11,0,0,0-6.15-3.49c-4.6,1.11-11.48,5.69-9.14,11.23a6.12,6.12,0,0,0,8.11,3,6.47,6.47,0,0,0,3.23-3.07s0-.11.07-.23A5.22,5.22,0,0,0,201.78,368.86Z"/><path class="cls-6" d="M211.56,338.13a3.31,3.31,0,0,0-3-.64,3.47,3.47,0,0,0-2.37,4.18c.76,3.11,3.86,7.78,7.62,6.2a4.16,4.16,0,0,0,2-5.51,4.43,4.43,0,0,0-2.08-2.19l-.16-.05A3.55,3.55,0,0,0,211.56,338.13Z"/><path class="cls-6" d="M206.5,367.6a3.31,3.31,0,0,0-3-.64,3.46,3.46,0,0,0-2.37,4.17c.76,3.12,3.86,7.79,7.62,6.2a4.15,4.15,0,0,0,2-5.5,4.39,4.39,0,0,0-2.08-2.19l-.16-.05A3.55,3.55,0,0,0,206.5,367.6Z"/><path class="cls-6" d="M190.15,349.85a4.54,4.54,0,0,0,1.14-4.62,6.37,6.37,0,0,0-7.44-3.63c-5.56,1.16-13.89,5.91-11.06,11.66,1.62,3.3,6.13,4.46,9.82,3.13a7.53,7.53,0,0,0,3.9-3.19l.09-.25A5.91,5.91,0,0,0,190.15,349.85Z"/><path class="cls-6" d="M190.75,374.26a3.35,3.35,0,0,0-3-.64,3.47,3.47,0,0,0-2.37,4.18c.75,3.12,3.86,7.78,7.62,6.2a4.16,4.16,0,0,0,2-5.51,4.39,4.39,0,0,0-2.09-2.18l-.15-.06A3.57,3.57,0,0,0,190.75,374.26Z"/><ellipse class="cls-7" cx="346.47" cy="463.58" rx="110.7" ry="32.54"/><path class="cls-8" d="M489.46,227.84a2.69,2.69,0,0,1,.31,2.1,37.63,37.63,0,0,1-1.19,3.83l.41.24a8.48,8.48,0,0,1,1.17-1.53c.49-.42,1.33-1,1.69-.88a3,3,0,0,1,1.26,1.74,2.84,2.84,0,0,1-.25,1.69c-.46,1.26-.78,2.32.5,3.46a2.65,2.65,0,0,1,0,2.58,115.39,115.39,0,0,1-9.4,11c-3.52,3.42-7.78,6.07-11.37,9.43-6.69,6.26-11.53,13.81-13,22.94a76,76,0,0,0-.5,14.94c.5,12.76-.49,25.21-7,36.55a25.29,25.29,0,0,1-5.31,6.31c-3,2.65-2.4,2-.32,5.64.43.8,1.23,1.75,1.69,2.53,1.81,3.12,4.19,6,4.33,9.84.19,5.18-3.89,10.69-10.24,7.49-6.93-3.48-13.95-6.75-20.82-10.33a61.15,61.15,0,0,1-10.63-8.21s-27.8-3.77-36-10c-10.42-7.95-10.27-23-10.33-35.9q0-10.89.22-21.78c.09-4,.52-8,.71-12,.36-7.7-1.89-14.77-5.73-21.31-4.3-7.33-8.17-14.77-8.91-23.42a24.39,24.39,0,0,1,.13-3.19l.66-.32a12.17,12.17,0,0,1,1.68,1.93,16.32,16.32,0,0,1,1.26,3.05c2.54,7.87,7.32,14.55,11.28,21.69,4.89,8.83,8.65,18,9.06,28.42a199.3,199.3,0,0,1-.63,23.31c-.75,9.62-1,19.35,1.85,28.75a17.76,17.76,0,0,0,3.29,5.37c4,5.06,9.41,7.38,15.63,8.61a44.36,44.36,0,0,0,13,.16,3.19,3.19,0,0,0,1.84-1.55c.77-1.25,1.19-2.72,2-4,1.9-3,5.2-3.5,8.28-4a37.82,37.82,0,0,1,7.38-.25c4.07.11,7.18,2.33,10.05,5,.76.7,1.48,1.45,2.22,2.18,1.72,1.69,2.4,1.61,4.34,0,3.18-2.69,5-6.26,6.69-9.92a47.28,47.28,0,0,0,4.16-18.1c.43-8.54.53-17.1.9-25.64.29-6.61,3-12.4,6.36-18,4.63-7.63,11.57-12.86,18.49-18.13a36.71,36.71,0,0,0,5.22-5l-4.1,1.59c.27-1.9.22-3.21-1.94-2.85a6.87,6.87,0,0,1-.79-2.45,6.64,6.64,0,0,1,.58-2.1c-2.86,1.54-5.3,2.95-7.82,4.19a25.6,25.6,0,0,1-11.57,2.95c-1.68,0-3.37,0-5.06,0a12,12,0,0,1-11.1-6.26l-4.5-7.47c-.18-.31-.31-.66-.47-1l.37-.52c.79.45,1.81.73,2.31,1.39a43.79,43.79,0,0,1,3.77,5.88c1.8,3.48,4.54,5.51,8.41,5.74a71.86,71.86,0,0,0,9.51,0,22.3,22.3,0,0,0,4.79-.85C476.91,240.51,489.46,227.84,489.46,227.84ZM434.39,373.13l.57.1"/><path class="cls-8" d="M435,373.23l-.57-.1"/><path class="cls-8" d="M362.84,203.08c1.52,2.43-.9,4.39-.74,7.42.43,8.22,3.58,15.15,8.72,21.38,4.2,5.1,10.31,5.74,15.43,1.63,6.3-5.06,13.18-8.94,21.4-9.84,2.81-.3,5.65-.46,8.48-.63,1.34-.09,2.13-.3,2.13.63,0,1.23-1.28,1.23-2.19,1.2a35.25,35.25,0,0,0-22.57,7.47,20.72,20.72,0,0,0-4.66,5.4,12,12,0,0,1-15.08,5c-3.83-1.52-6.63-4.63-8.68-8.12-2.9-4.91-5.81-9.94-6.65-15.67-.61-4.12-.4-8.35-.62-12.54-.05-.94,1-2.31-.74-2.73-2.34-.57-4,.13-4.61,1.73-.39,1-.22,2.8-1.8,2.44-.69-.16-1.37-1.89-1.44-2.94-.32-5.42-.14-10.82,3.1-15.51a28.07,28.07,0,0,1,3.82-4.12,5.77,5.77,0,0,1,1.84-.78c.18.58.36,1.15.51,1.74a10.13,10.13,0,0,1,.12,1.07,4.63,4.63,0,0,1,1-.32c.54,0,1.37-.2,1.56.07a2.12,2.12,0,0,1,.24,1.75,27.78,27.78,0,0,1-1.76,3.19l3.06,1.22S360.32,199.05,362.84,203.08Z"/><path class="cls-8" d="M376.62,215.05c.06-7.36,3.16-11.3,9.24-13.1a4.85,4.85,0,0,0,3.07-2.6,12.68,12.68,0,0,1,3.67-4.13c2.89-1.94,6.08-3.43,9.08-5.21a4.6,4.6,0,0,0,1.7-1.95,9.4,9.4,0,0,1,5.12-5.26c3.55-1.43,9.56.27,11.15,3.86,1.06,2.39,2.73,3.3,5,4.3,3,1.35,5.68,3.5,8.46,5.36a13.38,13.38,0,0,1,2.34,2,5.33,5.33,0,0,1,.65,1.66c-.56,0-1.24.2-1.65-.05a26.63,26.63,0,0,1-4.67-3.13c-3.74-3.47-8.14-4.51-13.09-4.26a31.63,31.63,0,0,0-19.2,7.87,13.9,13.9,0,0,0-3.2,4.58,4.6,4.6,0,0,1-3.57,2.62c-1.26.29-2.53.57-3.75,1-5,1.65-5.5,4.17-5.26,8.5a9.73,9.73,0,0,0,4.05,7.87c.58.39.69,1.47,1,2.24-.84.06-2,.51-2.47.13-1.85-1.46-4-2.91-5.09-4.9C377.7,219.75,377.11,216.56,376.62,215.05Z"/><path class="cls-8" d="M439.58,224.88c1.38-2.22,2.71-4.38,4.05-6.53a6.83,6.83,0,0,0-2.59-9.52c-.29-.15-.56-.33-.85-.47-1.24-.61-2.39-1.32-1.69-3a3.15,3.15,0,0,1,4.22-1.21,10.27,10.27,0,0,1,5.14,10.5c-.63,4-2.78,7.05-5.48,9.84C441.65,225.3,440.8,225.9,439.58,224.88Z"/><polyline class="cls-2" points="364.41 192.28 399.26 145.78 495.25 199.69 477.55 230.23"/><polyline class="cls-2" points="495.25 199.69 497.64 206.48 483.92 230.61"/><polyline class="cls-2" points="377.8 343.46 368.23 349.12 411.45 352.62"/><polyline class="cls-2" points="451.62 339.39 458.8 339.39 448.11 347.52"/><polyline class="cls-2" points="368.23 349.12 368.23 352.95 414.53 356.51"/><polyline class="cls-2" points="368.23 352.95 345.17 440.14 348.41 440.14 362.75 433.25 370.11 402.64 430.53 407.65 420.94 453.36 425.05 453.36 437.72 442.39 442.76 408.36 454.58 403.15 454.58 425.51 465.83 417.22 458.8 339.39"/><line class="cls-2" x1="441.64" y1="370.06" x2="425.05" y2="453.36"/><polyline class="cls-2" points="451.31 404.59 451.31 425.37 454.58 425.51"/><line class="cls-2" x1="348.41" y1="440.14" x2="371.45" y2="353.56"/><polyline class="cls-2" points="391.84 355.13 394.95 381.08 435.27 384.59"/><polyline class="cls-2" points="438.69 368.77 431.23 404.59 361.48 398.37 394.95 381.08"/><polyline class="cls-2" points="361.48 398.37 361.48 402.03 370.11 402.64"/><line class="cls-2" x1="431.23" y1="404.59" x2="430.53" y2="407.66"/><path class="cls-9" d="M707.42,264.36V442.67s3.66,2.25,5.91,0,0-178.31,0-178.31"/><path class="cls-2" d="M690.83,209l-12.94,49.22L688,261.83l21.35,2.53,19.12-1.13,13.47-3L729.89,209S708.55,203.33,690.83,209Z"/><line class="cls-2" x1="720.64" y1="215.39" x2="727.89" y2="259.59"/><line class="cls-2" x1="709.39" y1="215.39" x2="707.62" y2="259.59"/><line class="cls-2" x1="698.3" y1="215.39" x2="690.15" y2="256.49"/><path class="cls-7" d="M734.75,261.18a2.36,2.36,0,0,0,3.16-1.67c.77-2.15.2-5.35-.28-8.31-1.34-8.33-3-16.66-5.16-24.89-1-3.93-2.07-7.91-3.28-11.75-.93-2.93-2.11-4.74-3.7-5.26a7.18,7.18,0,0,0-1-.25c-2.19-1.24-4.59,0-6.37.32H718a9.45,9.45,0,0,0-1.07.08c-2.15.08-4.84,0-5.4,3.71a45.74,45.74,0,0,0,.49,15.07c.11.44.21.89.32,1.34,1.21,7,2.51,18.57,4.08,25.51,1,4.46-1,5.65,1.44,7.23.42.69.93,1.14,1.41,1l15.17-2.18A1.08,1.08,0,0,0,734.75,261.18Z"/><line class="cls-2" x1="724.26" y1="266.61" x2="724.26" y2="297.64"/><polyline class="cls-2" points="167.98 73.67 335.05 121.48 335.05 396.37 219.17 437.05"/><line class="cls-2" x1="335.05" y1="121.48" x2="688.04" y2="99.55"/><line class="cls-2" x1="335.05" y1="396.37" x2="350.78" y2="396.85"/><line class="cls-2" x1="470.61" y1="407.66" x2="570.62" y2="416.23"/><line class="cls-2" x1="682.75" y1="427.86" x2="704.23" y2="429.73"/><path class="cls-2" d="M367.39,427.79a321.52,321.52,0,0,1,53.83,5"/><path class="cls-2" d="M445,438.83c17.1,5.73,27.46,13.23,27.46,21.45,0,18-49.57,32.54-110.71,32.54S251,478.25,251,460.28c0-15.82,38.43-29,89.36-31.93"/><text class="cls-10" transform="translate(247.26 225.46) rotate(-45)">B<tspan class="cls-11" x="17.92" y="0">r</tspan><tspan x="28.86" y="0">i</tspan><tspan class="cls-12" x="36.59" y="0">c</tspan><tspan x="51.2" y="0">olage</tspan></text><text class="cls-13" transform="translate(243.6 337.36) rotate(-45)"><tspan class="cls-14">C</tspan><tspan x="16.18" y="0">ours de </tspan><tspan class="cls-15" x="0" y="34.11">C</tspan><tspan x="16.15" y="34.11">uisine</tspan></text><text class="cls-16" transform="translate(559.41 226.64) rotate(-45)"><tspan class="cls-17">C</tspan><tspan x="20.67" y="0">oiffu</tspan><tspan class="cls-18" x="90.31" y="0">r</tspan><tspan class="cls-19" x="101.82" y="0">e</tspan></text><text class="cls-20" transform="translate(559.02 360.45) rotate(-45)"><tspan class="cls-21">C</tspan><tspan x="18.9" y="0">oaching</tspan></text><text class="cls-20" transform="matrix(0.79, -0.61, 0.61, 0.79, 592.01, 440.11)">Ba<tspan class="cls-22" x="34.01" y="0">b</tspan><tspan class="cls-23" x="52.67" y="0">y</tspan><tspan x="68.11" y="0">sitting</tspan></text></g><g id="tracé"><path class="cls-24" d="M422.22,352.26s7.14-6.88,20.33-4.06"/><path class="cls-24" d="M429.21,359.29s7.15-6.88,20.34-4.06"/><path class="cls-24" d="M411.45,344.21s8.35-7.63,24.25-3.69"/><path class="cls-24" d="M423.74,334.79A77.13,77.13,0,0,1,450,363.45"/><path class="cls-24" d="M417.41,336.12a77.13,77.13,0,0,1,26.24,28.66"/><path class="cls-24" d="M411.47,339.6s14.54,7.75,23.8,22.61"/></g></g></svg>