<?xml version="1.0" encoding="iso-8859-1"?>
<!-- Generator: Adobe Illustrator 19.0.0, SVG Export Plug-In . SVG Version: 6.00 Build 0)  -->
<svg version="1.1" id="Layer_1" xmlns="http://www.w3.org/2000/svg" xmlns:xlink="http://www.w3.org/1999/xlink" x="0px" y="0px"
	 viewBox="0 0 512 512" style="enable-background:new 0 0 512 512;" xml:space="preserve">
<g>
	<path style="fill:#724530;" d="M0,30.897V419.31h370.759v-34.842c10.646,5.305,22.607,8.36,35.31,8.36s24.664-3.054,35.31-8.36
		v34.842H512V30.897H0z"/>
	<path style="fill:#D3B434;" d="M485.517,313.379c0-43.882-35.566-79.448-79.448-79.448s-79.448,35.566-79.448,79.448
		s35.566,79.448,79.448,79.448S485.517,357.261,485.517,313.379"/>
	<g>
		<path style="fill:#F8E7A1;" d="M406.069,366.345c-4.882,0-8.828-3.946-8.828-8.828c0-4.882,3.946-8.828,8.828-8.828
			c19.474,0,35.31-15.837,35.31-35.31c0-4.882,3.946-8.828,8.828-8.828c4.882,0,8.828,3.946,8.828,8.828
			C459.034,342.59,435.279,366.345,406.069,366.345"/>
		<path style="fill:#F8E7A1;" d="M361.931,322.207c-4.882,0-8.828-3.946-8.828-8.828c0-29.21,23.755-52.966,52.966-52.966
			c4.882,0,8.828,3.946,8.828,8.828c0,4.882-3.946,8.828-8.828,8.828c-19.474,0-35.31,15.837-35.31,35.31
			C370.759,318.261,366.813,322.207,361.931,322.207"/>
	</g>
	<path style="fill:#ECE8D8;" d="M326.621,313.379c0-43.882,35.566-79.448,79.448-79.448c30.791,0,57.432,17.549,70.621,43.158
		V101.517c-19.5,0-35.31-15.81-35.31-35.31H70.621c0,19.5-15.81,35.31-35.31,35.31V348.69c19.5,0,35.31,15.81,35.31,35.31h299.158
		C344.17,370.812,326.621,344.17,326.621,313.379"/>
	<path style="fill:#F0CE49;" d="M406.069,392.828c-12.703,0-24.664-3.054-35.31-8.36v96.636l35.31-35.31l35.31,35.31v-96.636
		C430.733,389.773,418.772,392.828,406.069,392.828"/>
	<g>
		<path style="fill:#C9B693;" d="M308.966,128H203.034c-4.882,0-8.828-3.946-8.828-8.828c0-4.882,3.946-8.828,8.828-8.828h105.931
			c4.882,0,8.828,3.946,8.828,8.828C317.793,124.054,313.847,128,308.966,128"/>
		<path style="fill:#C9B693;" d="M397.241,172.138H114.759c-4.882,0-8.828-3.946-8.828-8.828c0-4.882,3.946-8.828,8.828-8.828
			h282.483c4.882,0,8.828,3.946,8.828,8.828C406.069,168.192,402.123,172.138,397.241,172.138"/>
		<path style="fill:#C9B693;" d="M397.241,216.276H114.759c-4.882,0-8.828-3.946-8.828-8.828s3.946-8.828,8.828-8.828h282.483
			c4.882,0,8.828,3.946,8.828,8.828S402.123,216.276,397.241,216.276"/>
		<path style="fill:#C9B693;" d="M291.31,260.414H167.724c-4.882,0-8.828-3.946-8.828-8.828s3.946-8.828,8.828-8.828H291.31
			c4.882,0,8.828,3.946,8.828,8.828S296.192,260.414,291.31,260.414"/>
		<path style="fill:#C9B693;" d="M132.414,260.414h-17.655c-4.882,0-8.828-3.946-8.828-8.828s3.946-8.828,8.828-8.828h17.655
			c4.882,0,8.828,3.946,8.828,8.828S137.295,260.414,132.414,260.414"/>
		<path style="fill:#C9B693;" d="M185.379,304.552h-70.621c-4.882,0-8.828-3.946-8.828-8.828c0-4.882,3.946-8.828,8.828-8.828
			h70.621c4.882,0,8.828,3.946,8.828,8.828C194.207,300.606,190.261,304.552,185.379,304.552"/>
		<path style="fill:#C9B693;" d="M291.31,304.552H220.69c-4.882,0-8.828-3.946-8.828-8.828c0-4.882,3.946-8.828,8.828-8.828h70.621
			c4.882,0,8.828,3.946,8.828,8.828C300.138,300.606,296.192,304.552,291.31,304.552"/>
	</g>
</g>
<g>
</g>
<g>
</g>
<g>
</g>
<g>
</g>
<g>
</g>
<g>
</g>
<g>
</g>
<g>
</g>
<g>
</g>
<g>
</g>
<g>
</g>
<g>
</g>
<g>
</g>
<g>
</g>
<g>
</g>
</svg>
