<?xml version="1.0"?>
<svg style="enable-background:new 0 0 512 512;" height="512px" id="Capa_1" version="1.1" viewBox="0 0 512 512" width="512px" x="0px"
     xmlns="http://www.w3.org/2000/svg" y="0px" xml:space="preserve"><g><g>
	<path class="active-path"
          d="M512,480v32H0V0h32v480H512z M228.906,177.719l130.719,32.656L404.875,135l41,24.625L448,32L336.406,93.938l41,24.625   l-33.031,55.063l-125.281-31.344L84.688,276.688l22.625,22.625L228.906,177.719z M192,448h64V217.469l-17.281-4.312L192,259.875   V448z M96,333.25V448h64V291.875l-52.688,52.688L96,333.25z M384,232v216h64V198.219l-32.156-19.281L384,232z M352,448V241.469   l-64-16V448H352z" data-old_color="#000000" data-original="#000000" fill="#C1C0C0"/>
</g></g> </svg>
