<?xml version="1.0" encoding="utf-8"?>
<!-- Generator: Adobe Illustrator 22.1.0, SVG Export Plug-In . SVG Version: 6.00 Build 0)  -->
<svg version="1.1" id="Calque_1" xmlns="http://www.w3.org/2000/svg" x="0px" y="0px"
     viewBox="0 0 708 746.6" style="enable-background:new 0 0 708 746.6;" xml:space="preserve">
<style type="text/css">
	.st0{fill:none;stroke:#626262;stroke-linecap:round;stroke-linejoin:round;}
	.st1{fill:none;stroke:#626262;stroke-miterlimit:10;}
	.st2{opacity:0.48;fill:#F09587;enable-background:new    ;}
	.st3{opacity:0.67;fill:#5EB676;enable-background:new    ;}
	.st4{opacity:0.46;fill:#00A6C4;enable-background:new    ;}
	.st5{fill:#FFFFFF;stroke:#626262;stroke-linecap:round;stroke-linejoin:round;}
	.st6{enable-background:new    ;}
	.st7{fill:#626262;}
	.st8{fill:#FFFFFF;}
	.st9{fill:none;stroke:#FFFFFF;stroke-width:0.5;stroke-linecap:round;stroke-linejoin:round;}
	.st10{opacity:0.48;fill:#BFBBBB;enable-background:new    ;}
	.st11{opacity:0.46;fill:none;stroke:#00A6C4;stroke-width:5;stroke-miterlimit:10;enable-background:new    ;}
	.st12{fill:#616161;}
	.st13{fill:none;stroke:#616161;stroke-miterlimit:10;}
	.st14{fill:none;stroke:#626262;stroke-width:0.25;stroke-miterlimit:10;}
	.st15{fill:none;stroke:#626262;stroke-width:0.5;stroke-miterlimit:10;}
	.st16{fill-rule:evenodd;clip-rule:evenodd;fill:#616161;}
	.st17{fill:#E2E2E2;enable-background:new    ;}
	.st18{fill:none;stroke:#FFFFFF;stroke-width:0.1;stroke-miterlimit:10;}
</style>
<title>pages non dispinubles_Plan de travail 1 copie 3</title>
<g id="Calque_2_1_">
	<ellipse class="st0" cx="652.1" cy="563.2" rx="25.1" ry="8.5"/>
	<polygon class="st1" points="181.4,272.6 87.8,269.6 88,148.5 181.2,163.6 	"/>
	<polyline class="st1" points="181.4,272.6 175,273.8 81.2,272.2 81.4,154.4 88,148.5 	"/>
	<line class="st1" x1="87.8" y1="269.6" x2="81.2" y2="272.2"/>
	<polygon class="st1" points="181.4,331.6 87.8,339.3 88,456.9 181.2,440.7 	"/>
	<polyline class="st1" points="181.4,331.6 175,331.6 81.2,337.9 81.4,451 88,456.9 	"/>
	<line class="st1" x1="87.8" y1="339.3" x2="81.2" y2="337.9"/>
	<path class="st2" d="M180.5,181.8c1.1-3.1,1.5-6.5-0.3-9.5c-2.1-3.6-6.3-4.5-10.1-5.4c-10.7-2.6-21.6-4.2-32.6-4.7
		c-5.3-0.3-10.6-0.3-15.9,0c-4,0.3-6.8,2.1-8.3,5.9c-0.3,0.8-0.6,1.6-0.8,2.4c-2.7,4.9-2.4,12.1-3.1,17v0.4c-0.2,1-0.4,1.9-0.5,2.9
		c-1.1,5.7-2.6,12.8,1.5,16.9c4.7,4.7,13.4,4,19.4,4.5l1.8,0.1c9,1.9,18.1,3.4,27.2,4.3c5.9,0.6,13.9,2.5,17.1-2.7
		c1.1-0.6,1.9-1.7,2-3l2.5-28.4C180.4,182.3,180.4,182.1,180.5,181.8z"/>
	<polygon class="st1" points="488.4,574.8 594.5,591.5 619.6,457.8 512.7,451 	"/>
	<polyline class="st1" points="488.4,574.8 495.4,577.9 601.3,596.3 625.8,466 619.6,457.8 	"/>
	<line class="st1" x1="594.5" y1="591.5" x2="601.3" y2="596.3"/>
	<path class="st2" d="M590.7,477.5c1.1-3.6,1.4-7.5-0.7-10.8c-2.6-4-7.3-4.8-11.7-5.7c-12.3-2.5-24.8-3.8-37.3-3.9
		c-6-0.1-12,0.1-18,0.7c-4.5,0.5-7.7,2.7-9.2,7c-0.3,0.9-0.6,1.9-0.9,2.8c-2.8,5.6-2.3,13.9-2.8,19.5v0.4c-0.2,1.1-0.3,2.2-0.4,3.3
		c-1,6.5-2.4,14.6,2.4,19.2c5.5,5.1,15.4,4,22.2,4.3l2,0.1c10.3,1.8,20.7,3.1,31.2,3.8c6.7,0.5,15.9,2.2,19.3-3.8
		c1.3-0.7,2.1-2.1,2.1-3.5l1.6-32.4C590.6,478,590.7,477.7,590.7,477.5z"/>
	<ellipse class="st1" cx="49.6" cy="533.9" rx="23.5" ry="6.8"/>
	<path class="st1" d="M48.1,533.9c0,0,8.7-15-5-33.7c-8.1-10.6-9.6-24.8-3.8-36.9"/>
	<path class="st1" d="M56,532.4c0,0-2.1-79.8,4.3-90.2c6.1-10,9.9-0.5,10.2,3.3s-1.6,8.6-4.9,4c-2-2.7-3.2-5.8-3.5-9.1"/>
	<path class="st1" d="M43.1,446.3c0,0-4.1-5.5-11.3,1.9s-5.8,12.9-5.8,12.9c1.3-3.5,4.8-5.8,8.5-5.6
		C41.2,455.4,45.4,453.1,43.1,446.3z"/>
	<path class="st1" d="M45.1,465.8c0,0-6.5,1-6.9-7.6c0,0,0.6-6.9,6.7-2.4C44.9,455.8,48.7,459.5,45.1,465.8z"/>
	<path class="st1" d="M56.4,467c0,0-10.7-5.2-12.7,5.9s8.5,4.4,8.5,4.4S51.6,467.6,56.4,467"/>
	<path class="st1" d="M36,481.9c0,0,10.6-5.2,12.6,5.9s-8.5,4.4-8.5,4.4S40.8,482.5,36,481.9"/>
	<path class="st1" d="M63.3,480.6c0,0-6.5,1-6.9-7.6c0,0,0.6-6.9,6.7-2.4C63.1,470.6,66.9,474.3,63.3,480.6z"/>
	<path class="st1" d="M26.1,533.9l7.5,51.3c0,0,16.7,14.3,34,0l5.5-51.3"/>
	<path class="st3" d="M56.9,475.6c1.2-1.4,1.6-3.4,1.1-5.2c-0.9-3.1-4.1-4.9-7.2-4.1c-5.4,1.3-13.4,6.7-10.7,13.1
		c1.7,3.6,5.9,5.1,9.5,3.5c1.6-0.7,3-2,3.8-3.6c0-0.1,0.1-0.2,0.1-0.3C55,478.5,56.3,477.2,56.9,475.6z"/>
	<path class="st3" d="M68.3,439.7c-1-0.8-2.3-1.1-3.5-0.8c-2.1,0.6-3.3,2.8-2.8,4.9c0.9,3.6,4.5,9.1,8.9,7.2c2.4-1.1,3.5-4,2.3-6.4
		c-0.5-1.1-1.3-2-2.4-2.6l-0.2-0.1C70.2,440.9,69.4,440.1,68.3,439.7z"/>
	<path class="st3" d="M62.4,474.1c-1-0.8-2.3-1.1-3.5-0.8c-2.1,0.6-3.3,2.8-2.8,4.9c0.9,3.6,4.5,9.1,8.9,7.2c2.4-1.1,3.5-4,2.3-6.4
		c-0.5-1.1-1.3-2-2.4-2.6h-0.2C64.3,475.4,63.5,474.6,62.4,474.1z"/>
	<path class="st3" d="M43.2,453.4c1.4-1.4,2-3.5,1.3-5.4c-1.5-3.4-5.2-5.2-8.7-4.2c-6.5,1.4-16.2,6.9-12.9,13.6
		c1.9,3.9,7.2,5.2,11.5,3.6c1.9-0.7,3.5-2,4.6-3.7c0-0.1,0.1-0.2,0.1-0.3C40.9,456.4,42.4,455.1,43.2,453.4z"/>
	<path class="st3" d="M44,482c-1-0.8-2.3-1.1-3.5-0.8c-2.1,0.6-3.3,2.8-2.8,4.9c0.9,3.6,4.5,9.1,8.9,7.3c2.4-1.1,3.5-4,2.3-6.5
		c-0.5-1.1-1.3-2-2.4-2.5l-0.2-0.1C45.9,483.3,45.1,482.4,44,482z"/>
	<ellipse class="st4" cx="330.3" cy="634.6" rx="129.5" ry="38.1"/>
	<path class="st5" d="M648.5,353.4V562c0,0,4.3,2.6,6.9,0s0-208.6,0-208.6"/>
	<path class="st0" d="M629,288.5l-15.1,57.6l11.9,4.3l25,3l22.4-1.3l15.8-3.5l-14.2-60C674.8,288.5,649.8,282,629,288.5z"/>
	<line class="st0" x1="663.9" y1="296.1" x2="672.4" y2="347.8"/>
	<line class="st0" x1="650.8" y1="296.1" x2="648.7" y2="347.8"/>
	<line class="st0" x1="637.8" y1="296.1" x2="628.2" y2="344.1"/>
	<path class="st4" d="M680.4,349.6c1.4,0.5,3.1-0.2,3.6-1.6c0-0.1,0.1-0.2,0.1-0.4c0.9-2.5,0.2-6.3-0.3-9.7
		c-1.6-9.7-3.6-19.5-6-29.1c-1.2-4.6-2.4-9.3-3.8-13.8c-1.1-3.4-2.5-5.5-4.3-6.2c-0.4-0.1-0.8-0.2-1.2-0.3c-2.5-1.4-5.4,0.1-7.5,0.4
		h-0.2c-0.4,0-0.8,0-1.2,0.1c-2.5,0.1-5.7,0-6.3,4.3c-0.8,5.9-0.6,11.8,0.6,17.6c0.1,0.5,0.2,1,0.4,1.6c1.4,8.2,2.9,21.7,4.8,29.9
		c1.2,5.2-1.2,6.6,1.7,8.5c0.5,0.8,1.1,1.3,1.7,1.2l17.8-2.5C680.2,349.6,680.3,349.6,680.4,349.6z"/>
	<line class="st0" x1="668.2" y1="356" x2="668.2" y2="392.3"/>
	<polyline class="st0" points="17.3,15.9 212.8,79 212.8,514.5 77.2,568.1 	"/>
	<line class="st0" x1="212.8" y1="79" x2="625.8" y2="50.1"/>
	<line class="st0" x1="323.7" y1="519" x2="488.4" y2="533.1"/>
	<line class="st0" x1="619.6" y1="544.7" x2="644.7" y2="546.8"/>
	<g>
		<g class="st6">
			<path class="st7" d="M94,236c0.5-0.5,3.1-1.7,3.5-1.3c0.1,0.1,0.1,0.1,0.1,0.2c0,0.3,0,0.5,0.1,0.8c0.8,2.9,4.2,8.8,7.3,13.4
				c-1.7-3.2-3.3-6.6-4.5-9.6c-1-2.4-1.5-4.8-1.6-6.6c-0.1-1.3,0.4-2.5,1.1-3.2c4.1-4.1,10,4.9,8.7,11c1-0.2,2.2-0.1,3.1,0.4
				c3.8,1.9,6.7,8.8,2.5,13c-0.8,0.8-1.9,1.3-3,1.2c-0.9-0.1-1.6-1.2-0.8-1.1c0.8,0.1,1.5-0.2,1.9-0.7c3.1-3.1-2.4-12.6-4.6-10.4
				c-0.4,0.6-1,1.2-1.6,1.4c-0.5,0.1-1.3-0.1-1.4-0.4c-0.2-0.4,0.3-1.3,0.8-1.7c1.3-4.4-2.8-12.6-5-10.4c-0.8,0.8-0.4,3.4,1,7.1
				c2,5.1,5.3,11.5,8,15.8c0.2,0.3,0.1,0.6-0.2,0.9c-0.7,0.7-2.4,1.2-3,0.6C101.9,251.7,92.9,237.1,94,236z"/>
		</g>
		<g class="st6">
			<path class="st7" d="M110.9,233.3c-0.1-0.3-0.1-0.6,0-0.7c0.5-0.5,1.9-1,2.6-1c0.5-0.1,0.5,0.6,0.7,1c0.8,1.8,1.9,3.9,3,5.7
				c-1.1-3.1-2.3-7.1-2.1-9.5c0-0.3,0.1-0.5,0.3-0.7c0.3-0.3,1.6-1,2.4-1c0.7,0,0.8,0.5,0.7,1c-0.1,1.7,0.8,3.6,1.7,4.6
				c0.7,0.7,1.2,0.8,1.5,0.5c1.1-1.1,0.1-4.4-0.3-5.8c-0.1-0.7,0.9-0.9,1.1-0.2c0.4,1.6,1.4,4.9,0.5,6.6c-0.6,1.3-3.1,2.2-4.5,1.1
				c-0.9-0.7-1.8-2.4-2.2-3.7c-0.1-0.4-0.2-0.2-0.1,0c0.4,3.9,3,10.8,4.7,12.7c0.3,0.3,0.1,0.5,0,0.6c-0.7,0.7-2.5,1-3,0.4
				C115.2,241.7,112.4,237,110.9,233.3z"/>
			<path class="st7" d="M116.5,215.5c0.3-0.3,1.5-0.7,2.4-0.9c0.7-0.1,1,0.2,1.2,1c0.3,1.3,1.1,5,0.4,5.7c-1.5,1.6-3.6-3.4-3.9-4.4
				C116.4,216.2,116.3,215.7,116.5,215.5z M125.3,234.2c-2.2-3-4.3-6.7-5.6-9.8c-0.1-0.3-0.1-0.6,0.1-0.8c0.5-0.5,1.9-0.9,2.5-1
				c0.5-0.1,0.5,0.6,0.7,1c1.5,3.3,3.9,7.3,5.5,9.7c0.3,0.5,0.6,0.2,0.6-0.2c0-3.3-1.9-7.8-3.1-10.4c-0.3-0.7,0.7-1.1,1-0.4
				c1.1,2.5,4.9,11.1,2.5,13.4c-1,1-2.6,0.6-3.4-0.4C125.9,234.9,125.6,234.6,125.3,234.2z"/>
			<path class="st7" d="M126.2,217c1.3-1.3,3.8-1.4,5-0.3c1.5,1.5,2.3,3.9,1.7,4.5c-0.4,0.4-1.6,0.7-2.4,0.7c-0.4,0-0.6-0.4-0.4-0.9
				c0.2-0.9,0.1-2-0.3-2.8c-0.4-1-1-1.2-1.3-0.9c-2.3,2.3,3.6,13.3,6.9,10c2.4-2.4-0.4-8.6-1.8-12.1c-0.2-0.6,0.7-1,1-0.4
				c1.5,3.6,5,10.9,1.7,14.2C129.6,235.7,122.5,220.8,126.2,217z"/>
			<path class="st7" d="M135,209.2c1.7-1.7,4.3-1.9,5.5-0.7c1.2,1.2,2.3,2.9,3,4.6c0.1-2.3-0.2-4.6-1.1-6.8c-0.2-0.6,0.7-1,1-0.4
				c1.3,3,1.5,6.2,0.8,9.4c0.7,2.7,0.4,5.3-1.2,6.9c-2,2-5.1,1.2-6.5-0.2c-2.7-2.7-4.9-7.7-3.8-11.2
				C133.1,209.9,134.1,209.3,135,209.2z M140.8,220.5c0.5-0.7,0.8-1.1,1.2-1.9c-0.4-2.4-2.3-5.8-4.1-7.6c-1.8-1.8-2.9-0.9-2.8,1.1
				c0.2,3.3,3.3,7.9,5.4,8.7C140.7,220.7,140.7,220.6,140.8,220.5z"/>
			<path class="st7" d="M135.2,194.7c0.5-0.5,3.1-1.7,3.5-1.3c0.1,0.1,0.1,0.1,0.1,0.2c0,0.3,0,0.5,0.1,0.8
				c1.1,3.8,7,13.3,10.3,17.6c0.5,0.7,0.8,0.7,0.8-0.2c-0.1-3.3-2-7.6-3.1-10.1c-0.3-0.7,0.7-1.1,1-0.4c1.1,2.5,4.9,11.1,2.5,13.4
				c-1.5,1.5-3.1-0.1-4.1-1.3C141.5,207.8,134.2,195.8,135.2,194.7z"/>
			<path class="st7" d="M155.5,204c0-0.1-0.1-0.1-0.2-0.2c0.9,2.5,1.3,4.9,0,6.2c-1.1,1.1-2.4,1-3.5,0.1c-3.3-2.6-6.5-8.9-5.3-13
				c0.4-1.3,2-1.7,3.5-2.2c0-0.1-0.1-0.4-0.2-0.5c-0.1-0.3-0.1-0.6,0.1-0.8c0.5-0.5,1.9-0.9,2.5-1c0.5-0.1,0.5,0.6,0.7,1
				c1.5,3.3,4,7.2,5.6,9.5c0.3,0.5,0.6,0.2,0.6-0.2c0-3.3-2.1-7.7-3.2-10.3c-0.3-0.7,0.7-1.1,1-0.4c1.1,2.5,5,10.9,2.6,13.3
				c-1,1-2.6,0.6-3.4-0.4C156.1,204.8,155.8,204.4,155.5,204z M150.9,196.9c-0.2-0.3-0.3-0.7-0.4-1c-0.4-0.1-0.7,0-1,0.3
				c-1.9,1.9,1.4,8,3.6,10.6c0.3,0.3,1.2,1.4,1.6,0.9C156,206.4,151.8,198.6,150.9,196.9z"/>
			<path class="st7" d="M164.4,200.9c-1.1,1.1-2.4,1-3.5,0.1c-3.3-2.7-6.5-8.9-5.3-13.1c0.2-0.7,0.7-1.1,1.5-1.4
				c0.6-0.3,1.3-0.5,2-0.7c-0.1-0.1-0.2-0.3-0.2-0.5c-0.1-0.3-0.1-0.6,0-0.7c0.5-0.5,1.9-0.9,2.6-1c0.3-0.1,0.5,0.2,0.5,0.5
				c0.1,0.3,0.2,0.6,0.4,0.9c1.3,2.5,2.8,5.1,4.1,7.1l0.2,0.3c0.1-2.8-0.2-5.8-1.6-8.9c-0.3-0.6,0.7-1.1,0.9-0.4
				c1.7,3.8,1.9,7.5,1.6,10.9c1.4,2.2,2.7,4.4,3.8,6.7c1.1,2.5,1.5,4.6-0.7,6.7c-0.7,0.7-1.7,1.1-2.7,0.9c-1.9-0.3-3-2.3-3.1-4.1
				c-0.2-2.1,0.7-4.4,1-6.4c-0.5-1-1.1-2-1.7-3C165.2,197.3,165.6,199.7,164.4,200.9z M162.1,197.8c0.3,0.3,1.2,1.4,1.6,0.9
				c1.3-1.3-2.9-9.1-3.7-10.8c-0.2-0.3-0.3-0.7-0.5-1c-0.4-0.1-0.7,0-1,0.3C156.7,189.1,159.9,195.2,162.1,197.8z M169.2,203.7
				c-0.6-1.3-1.4-2.8-2.3-4.4c-0.4,2.1-1.3,5.3,0.5,7c0.5,0.4,1.3,0.7,1.9,0.2C169.7,206,169.9,205,169.2,203.7z"/>
			<path class="st7" d="M165.3,177.9c1-1,4.3-1.5,5.5-0.3c2.5,2.5,1.5,7.5-0.6,9.6c1.4,1.5,3,2.2,4.3,1c2.2-2.2-0.3-8.7-1.8-12.1
				c-0.3-0.6,0.7-1,1-0.4c1.7,3.7,4.8,11.1,1.7,14.2C168.7,196.6,161.4,181.8,165.3,177.9z M169.6,186.6c1.5-1.5,0.9-5.3-1.3-7.5
				c-0.6-0.6-1.2-0.3-1.3,0.4C166.7,181.4,168,184.5,169.6,186.6z"/>
		</g>
	</g>
	<g>
		<g class="st6">
			<path class="st7" d="M102.4,387.9c0.6-0.1,1.3,0.1,1.6,0.5c1.7,1.7,1.3,6.1,3,7.8c0.1,0.1,0.1,0.2,0,0.3
				c-0.6,0.6-2.2,0.9-2.9,0.2c-1.7-1.7-0.5-5.3-2-6.7c-0.5-0.5-1.3-0.9-2-0.2c-4.6,4.6,4.1,21.3,9.2,16.2c0.6-0.6,1.2-1.5,1.3-2.4
				c0-0.2,0.1-0.2,0.3-0.1c0.1,0,0.2,0.2,0.3,0.4c0.7,1.3,0,2.7-1,3.7c-8,8-19.3-11.3-12.2-18.3C99.4,387.8,101,387.3,102.4,387.9z"
				/>
		</g>
		<g class="st6">
			<path class="st7" d="M110,389.5c1.5-1.5,3.7-1.7,4.8-0.6s2,2.5,2.6,4c0.1-2-0.2-4-1-5.8c-0.2-0.5,0.6-0.9,0.9-0.4
				c1.1,2.6,1.3,5.4,0.7,8c0.6,2.3,0.4,4.6-1,6c-1.7,1.7-4.4,1-5.6-0.2c-2.3-2.3-4.2-6.6-3.2-9.6C108.4,390.1,109.2,389.6,110,389.5
				z M115,399.2c0.5-0.6,0.7-1,1.1-1.7c-0.4-2.1-2-5-3.5-6.5c-1.6-1.6-2.5-0.8-2.4,1c0.1,2.8,2.8,6.8,4.7,7.5
				C114.9,399.4,115,399.3,115,399.2z"/>
			<path class="st7" d="M123.8,388.8c0-0.1-0.1-0.1-0.1-0.2c0.7,2.1,1.1,4.2,0,5.3c-0.9,0.9-2.7,0.8-3.3,0.1c-0.3-0.4-0.5-0.7-0.8-1
				c-1.9-2.5-3.7-5.7-4.8-8.4c-0.1-0.3-0.1-0.5,0-0.7c0.4-0.4,1.6-0.8,2.2-0.8c0.4,0,0.5,0.5,0.6,0.8c1.2,2.5,2.9,5.5,4.3,7.5
				c0.4,0.7,0.9,0.8,1.2,0.5c1.1-1.1-2.4-7.9-3.1-9.4c-0.4-0.8-0.7-1.5-1-2.2c-0.1-0.3-0.1-0.5,0-0.7c0.4-0.4,1.6-0.8,2.2-0.8
				c0.4-0.1,0.5,0.5,0.6,0.8c1.3,2.9,3.3,6.3,4.7,8.3c0.3,0.4,0.5,0.2,0.5-0.2c0-2.8-1.7-6.7-2.7-8.9c-0.2-0.6,0.6-0.9,0.8-0.4
				c1,2.2,4.2,9.5,2.2,11.5c-0.8,0.8-2.2,0.5-2.9-0.3C124.4,389.5,124.1,389.2,123.8,388.8z"/>
		</g>
		<g class="st6">
			<path class="st7" d="M123,376.5c-0.1-0.3-0.1-0.5,0-0.6c0.5-0.5,1.7-0.8,2.2-0.8c0.4,0,0.5,0.5,0.6,0.8c0.7,1.6,1.6,3.3,2.6,4.9
				c-1-2.7-2-6.1-1.8-8.2c0-0.2,0.1-0.4,0.3-0.6c0.3-0.3,1.4-0.8,2.1-0.8c0.6,0,0.7,0.4,0.6,0.9c-0.1,1.5,0.7,3.1,1.4,3.9
				c0.6,0.6,1,0.7,1.3,0.4c1-1,0-3.8-0.3-5c-0.1-0.6,0.8-0.8,0.9-0.2c0.3,1.4,1.2,4.2,0.4,5.7c-0.5,1.1-2.7,1.9-3.9,0.9
				c-0.8-0.6-1.5-2.1-1.9-3.2c-0.1-0.3-0.1-0.2-0.1,0c0.3,3.4,2.6,9.3,4,10.9c0.2,0.2,0.1,0.4,0,0.5c-0.6,0.6-2.1,0.8-2.6,0.4
				C126.7,383.8,124.3,379.8,123,376.5z"/>
		</g>
		<g class="st6">
			<path class="st7" d="M135.3,378.2c-0.2-0.9,0.2-1.8,0.8-2.5c0.4-0.6,1-1.1,1.3-1.7c-1.6-1.2-4.1-0.4-5.9-2.3
				c-1.5-1.5-1.1-3.7,0.2-5c0.8-0.8,3.1-0.7,4,0.1c0.5,0.5,0.8,1.9,0.5,2.2c-0.5,0.5-1.6,0.9-1.8,0.7c0,0,0-0.1,0-0.1
				c0.4-0.4,0.1-1.4-0.4-1.8c-0.3-0.3-0.6-0.4-0.9-0.1c-0.6,0.6,0.2,1.9,0.6,2.3c1.2,1.2,3.4,0.9,5,1.4c0.6-2,0.2-3.9-0.8-5.8
				c-0.3-0.5,0.5-0.9,0.8-0.4c1.2,2.4,1.4,4.5,0.8,6.6c2.4,1.8,1.4,5.3-0.4,7.1C137.5,380.5,135.7,379.8,135.3,378.2z M136.4,376.8
				c-0.8,1.3,1,2.4,1.7,0.9c0.4-0.9,0.4-2.1-0.1-3C137.7,375.4,136.8,376.1,136.4,376.8z"/>
			<path class="st7" d="M149,363.3c0.8,2.1,1.1,4.3,0,5.4c-1.2,1.2-2.6,0.8-3.6-0.2c-2.7-2.4-5.2-7.3-4.2-10.6
				c0.3-1.2,1.8-1.5,2.8-1.8c-2.6-4.1-4.7-8-4.1-8.5c0.5-0.5,2.7-1.5,3-1.1c0,0,0.1,0.1,0,0.2c0,0.2,0,0.4,0.1,0.7
				c0.9,3.3,6,11.4,8.9,15.1c0.4,0.6,0.7,0.6,0.6-0.1c-0.1-2.8-1.7-6.5-2.7-8.7c-0.2-0.6,0.6-0.9,0.8-0.4c1,2.2,4.2,9.5,2.2,11.5
				c-1.3,1.3-2.7-0.1-3.5-1.1C149.2,363.6,149.1,363.5,149,363.3z M146.6,365.9c0.7,0.9,1.4,1.2,1.8,0.8c0.2-0.2,0.3-0.8,0.1-1.6
				c-0.3-1.3-1-3.1-1.7-4.7c-0.8-1-1.5-2.2-2.3-3.3c-0.3-0.1-0.7-0.1-0.9,0.1C142.1,358.8,144.8,363.6,146.6,365.9z"/>
			<path class="st7" d="M149.9,348.8c0.9-0.9,3.7-1.3,4.7-0.2c2.2,2.2,1.3,6.4-0.5,8.3c1.2,1.3,2.6,1.9,3.7,0.8
				c1.9-1.9-0.2-7.5-1.6-10.4c-0.3-0.5,0.6-0.9,0.8-0.3c1.5,3.2,4.1,9.6,1.5,12.2C152.9,364.8,146.6,352.1,149.9,348.8z
				 M153.7,356.2c1.3-1.3,0.8-4.6-1.1-6.5c-0.5-0.5-1.1-0.3-1.1,0.4C151.2,351.7,152.3,354.4,153.7,356.2z"/>
		</g>
		<g class="st6">
			<path class="st7" d="M130.6,416.1c0.6-0.1,1.3,0.1,1.6,0.5c1.7,1.7,1.3,6.1,3,7.8c0.1,0.1,0.1,0.2,0,0.3
				c-0.6,0.6-2.2,0.9-2.9,0.2c-1.7-1.7-0.5-5.3-2-6.7c-0.5-0.5-1.3-0.9-2-0.2c-4.6,4.6,4.1,21.3,9.2,16.2c0.6-0.6,1.2-1.5,1.3-2.4
				c0-0.2,0.1-0.2,0.3-0.1c0.1,0,0.2,0.2,0.3,0.4c0.7,1.3,0,2.7-1,3.7c-8,8-19.3-11.3-12.2-18.3C127.6,416,129.2,415.5,130.6,416.1z
				"/>
		</g>
		<g class="st6">
			<path class="st7" d="M144.5,424.6c0-0.1-0.1-0.1-0.1-0.2c0.7,2.1,1.1,4.2,0,5.3c-0.9,0.9-2.7,0.8-3.3,0.1c-0.3-0.4-0.5-0.7-0.8-1
				c-1.9-2.5-3.7-5.7-4.8-8.4c-0.1-0.3-0.1-0.5,0-0.7c0.4-0.4,1.6-0.8,2.2-0.8c0.4,0,0.5,0.5,0.6,0.8c1.2,2.5,2.9,5.5,4.3,7.6
				c0.4,0.7,0.9,0.8,1.2,0.5c1.1-1.1-2.4-7.9-3.1-9.4c-0.4-0.8-0.7-1.5-1-2.2c-0.1-0.3-0.1-0.5,0-0.7c0.4-0.4,1.6-0.8,2.2-0.8
				c0.4-0.1,0.5,0.5,0.6,0.8c1.3,2.9,3.3,6.3,4.7,8.3c0.3,0.4,0.5,0.2,0.5-0.2c0-2.8-1.7-6.7-2.7-8.9c-0.2-0.6,0.6-0.9,0.8-0.4
				c1,2.2,4.2,9.5,2.2,11.5c-0.8,0.8-2.2,0.5-2.9-0.3C145,425.3,144.8,424.9,144.5,424.6z"/>
			<path class="st7" d="M140.9,404.7c0.3-0.2,1.3-0.6,2-0.8c0.6-0.1,0.9,0.2,1.1,0.9c0.3,1.1,0.9,4.3,0.4,4.9
				c-1.3,1.4-3.1-2.9-3.4-3.8C140.7,405.3,140.7,404.8,140.9,404.7z M148.4,420.7c-1.9-2.6-3.7-5.7-4.8-8.4c-0.1-0.3-0.1-0.5,0-0.7
				c0.4-0.4,1.6-0.8,2.2-0.8c0.4-0.1,0.5,0.5,0.6,0.8c1.3,2.9,3.3,6.3,4.7,8.3c0.3,0.4,0.5,0.2,0.5-0.2c0-2.9-1.7-6.7-2.7-8.9
				c-0.2-0.6,0.6-0.9,0.8-0.4c1,2.2,4.2,9.5,2.2,11.5c-0.8,0.8-2.2,0.5-2.9-0.3C148.9,421.4,148.7,421,148.4,420.7z"/>
			<path class="st7" d="M152.4,417.6c-0.2-0.9,0.2-1.8,0.8-2.5c0.4-0.6,1-1.1,1.3-1.7c-1.6-1.2-4.1-0.4-5.9-2.3
				c-1.5-1.5-1.1-3.7,0.2-5c0.8-0.8,3.1-0.7,4,0.1c0.5,0.5,0.8,1.9,0.5,2.2c-0.5,0.5-1.6,0.9-1.8,0.7c0,0,0-0.1,0-0.1
				c0.4-0.4,0.1-1.4-0.4-1.8c-0.3-0.3-0.6-0.4-0.9-0.1c-0.6,0.6,0.2,1.9,0.6,2.3c1.2,1.2,3.4,0.9,5,1.4c0.6-2,0.2-3.9-0.8-5.8
				c-0.3-0.5,0.5-0.9,0.8-0.4c1.2,2.4,1.4,4.5,0.8,6.6c2.4,1.8,1.4,5.3-0.4,7.1C154.6,419.8,152.8,419.1,152.4,417.6z M153.5,416.1
				c-0.8,1.3,1,2.4,1.7,0.9c0.4-0.9,0.4-2.1-0.1-3C154.8,414.7,153.9,415.4,153.5,416.1z"/>
			<path class="st7" d="M150.6,394.9c0.3-0.2,1.3-0.6,2-0.8c0.6-0.1,0.9,0.2,1.1,0.9c0.3,1.1,0.9,4.3,0.4,4.9
				c-1.3,1.4-3.1-2.9-3.4-3.8C150.5,395.5,150.5,395.1,150.6,394.9z M158.2,410.9c-1.9-2.6-3.7-5.7-4.8-8.4c-0.1-0.3-0.1-0.5,0-0.7
				c0.4-0.4,1.6-0.8,2.2-0.8c0.4-0.1,0.5,0.5,0.6,0.8c1.3,2.9,3.3,6.3,4.7,8.3c0.3,0.4,0.5,0.2,0.5-0.2c0-2.9-1.7-6.7-2.7-8.9
				c-0.2-0.6,0.6-0.9,0.8-0.4c1,2.2,4.2,9.5,2.2,11.5c-0.8,0.8-2.2,0.5-2.9-0.3C158.7,411.6,158.5,411.3,158.2,410.9z"/>
			<path class="st7" d="M157.4,398.6c-0.1-0.3-0.1-0.5,0-0.6c0.5-0.5,1.7-0.8,2.2-0.8c0.4,0,0.5,0.5,0.6,0.8
				c0.7,1.6,1.6,3.3,2.6,4.9c-1-2.7-2-6.1-1.8-8.2c0-0.2,0.1-0.4,0.3-0.6c0.3-0.3,2-1.2,2.4-0.7c0.1,0.1,0.1,0.2,0.2,0.3
				c0.1,0.3,0.2,0.5,0.3,0.8c1.3,2.8,3.2,5.9,4.6,7.9c0.3,0.4,0.5,0.3,0.5-0.2c0-2.9-1.7-6.7-2.7-8.9c-0.2-0.6,0.6-0.9,0.8-0.4
				c1,2.2,4.2,9.5,2.2,11.5c-0.8,0.8-2.1,0.8-2.6,0.1c-1.8-2.2-3.9-5.6-5.2-8.3c0.1,3.3,2.6,9.7,4.1,11.4c0.2,0.2,0.1,0.4,0,0.5
				c-0.6,0.6-2.1,0.8-2.6,0.4C161.1,405.8,158.6,401.8,157.4,398.6z"/>
			<path class="st7" d="M166.8,388.3c0.9-0.9,3.7-1.3,4.7-0.2c2.2,2.2,1.3,6.4-0.5,8.3c1.2,1.3,2.6,1.9,3.7,0.8
				c1.9-1.9-0.2-7.5-1.6-10.4c-0.3-0.5,0.6-0.9,0.8-0.3c1.5,3.2,4.1,9.6,1.5,12.2C169.7,404.3,163.4,391.7,166.8,388.3z
				 M170.5,395.8c1.3-1.3,0.8-4.6-1.1-6.5c-0.5-0.5-1.1-0.3-1.1,0.4C168,391.3,169.1,394,170.5,395.8z"/>
		</g>
	</g>
	<g>
		<g class="st6">
			<path class="st7" d="M502.6,535.8c0.6-0.5,3.3-1.3,3.6-0.8c0,0.1,0.1,0.1,0.1,0.2c0,0.3,0,0.5,0,0.8c0.4,3,3.1,9.2,5.6,14.2
				c-1.3-3.4-2.4-7-3.2-10.1c-0.6-2.5-0.9-4.9-0.8-6.7c0.1-1.3,0.7-2.4,1.6-3.1c4.6-3.5,9.3,6.2,7.2,12c1.1,0,2.2,0.2,3,0.8
				c3.5,2.4,5.5,9.6,0.8,13.2c-0.9,0.7-2,1.1-3.1,0.8c-0.9-0.2-1.4-1.4-0.6-1.2c0.8,0.2,1.5-0.1,2-0.4c3.5-2.7-0.8-12.8-3.3-10.9
				c-0.4,0.5-1.2,1-1.7,1.2c-0.5,0.1-1.2-0.3-1.3-0.6c-0.1-0.4,0.5-1.2,1-1.6c1.8-4.2-1.1-12.9-3.6-11c-0.9,0.7-0.9,3.4,0.1,7.1
				c1.4,5.3,3.8,12.1,6,16.7c0.2,0.3,0.1,0.6-0.3,0.8c-0.7,0.6-2.5,0.9-3.1,0.2C508.4,552.5,501.3,536.8,502.6,535.8z"/>
		</g>
		<g class="st6">
			<path class="st7" d="M529.4,541.5c0-0.1-0.1-0.1-0.1-0.2c0.6,2.6,0.6,5-0.8,6.1c-1.2,0.9-2.5,0.7-3.5-0.3c-3-3-5.4-9.7-3.6-13.6
				c0.5-1.3,2.2-1.4,3.7-1.7c0-0.1-0.1-0.4-0.2-0.5c-0.1-0.3,0-0.6,0.2-0.8c0.6-0.5,2-0.7,2.6-0.6c0.5,0,0.5,0.7,0.6,1.1
				c1.1,3.5,3,7.6,4.4,10.2c0.3,0.5,0.5,0.3,0.6-0.1c0.4-3.3-1.1-7.9-1.9-10.6c-0.2-0.7,0.8-1,1-0.3c0.8,2.7,3.5,11.5,0.9,13.5
				c-1.1,0.8-2.6,0.3-3.3-0.8C529.9,542.3,529.6,541.9,529.4,541.5z M525.8,533.9c-0.1-0.3-0.2-0.7-0.3-1c-0.3-0.1-0.7-0.1-1,0.2
				c-2.1,1.6,0.3,8.2,2.2,10.9c0.2,0.4,1,1.5,1.5,1.1C529.6,543.9,526.5,535.7,525.8,533.9z"/>
			<path class="st7" d="M525.8,517.9c0.6-0.5,3.3-1.3,3.6-0.8c0,0.1,0.1,0.1,0.1,0.2c0,0.3,0,0.5,0,0.8c0.3,2.5,2.3,7.4,4.4,11.8
				c-0.2-1.3-0.5-2.6-0.6-3.9c-0.1-1.4,0.1-2.7,0.9-3.3c1.3-1,3.8-0.2,4.6,0.8c1.3,1.7,2.2,4.2,2.6,6.8c0.6-2.2,0.8-4.8-0.1-7.6
				c-0.2-0.7,0.9-1,1.1-0.3c1,3.5,0.7,7.1-0.8,10.4c0,2.6-0.5,4.8-1.6,5.7c-0.3,0.3-1,0.3-1.4,0.3c0.1,0.2,0.5,0.5,0,0.8
				c-0.7,0.6-2.5,0.9-3.1,0.2C531.6,534.5,524.5,518.9,525.8,517.9z M535.1,530.1c0.5,2.4,1.2,4.7,2.4,6.7c0.5-0.5,1.1-1.2,1.7-2
				c-0.1-2.5-1.3-6.5-3.2-9.3c-0.7-1-1.5-0.8-1.4,0.4C534.6,527.4,534.8,528.8,535.1,530.1z"/>
		</g>
		<g class="st6">
			<path class="st7" d="M545.8,514.5c0.6-0.5,2-0.7,2.7-0.6c0.3,0,0.4,0.3,0.5,0.6c0.1,0.3,0.2,0.7,0.3,1c1,2.6,2.2,5.4,3.2,7.6
				l0.2,0.3c0.5-2.8,0.5-5.8-0.4-9c-0.2-0.7,0.8-1,1-0.3c1.2,4,0.9,7.7,0.2,11c1.1,2.3,2.1,4.7,2.9,7.2c0.9,2.6,0.9,4.7-1.5,6.6
				c-0.7,0.6-1.8,0.8-2.7,0.5c-1.8-0.5-2.7-2.7-2.6-4.5c0.1-2.2,1.2-4.3,1.9-6.3c-0.5-1.1-1-2.1-1.5-3.2c0.6,2.6,0.6,5-0.8,6.1
				c-1.2,0.9-3.2,0.6-3.8-0.4c-0.2-0.4-0.5-0.9-0.7-1.3c-1.8-3.2-3.4-7.2-4.3-10.4c-0.1-0.3,0-0.6,0.2-0.8c0.6-0.5,2-0.7,2.6-0.6
				c0.5,0,0.5,0.7,0.6,1c0.9,3.1,2.5,6.8,3.8,9.4c0.4,0.8,0.9,1.1,1.3,0.8c1.3-1-0.9-7.9-1.9-10.6c-0.1-0.2-0.1-0.4-0.2-0.6
				c-0.4-0.9-0.7-1.9-0.9-2.9C545.6,514.9,545.7,514.6,545.8,514.5z M553.6,534.8c-0.5-1.4-1.1-3-1.7-4.6c-0.6,2-2,5.1-0.4,7
				c0.4,0.5,1.2,0.8,1.8,0.4C553.8,537.2,554.1,536.2,553.6,534.8z"/>
		</g>
		<g class="st6">
			<path class="st7" d="M554.7,522.8c-0.1-1.1,0.5-2,1.2-2.8c0.6-0.6,1.3-1.2,1.8-1.7c-1.7-1.6-4.7-1.1-6.5-3.5
				c-1.5-2-0.7-4.4,1-5.7c1.1-0.9,3.7-0.4,4.6,0.7c0.5,0.6,0.7,2.3,0.3,2.6c-0.7,0.5-2,0.8-2.2,0.5c0-0.1,0-0.1,0-0.2
				c0.5-0.4,0.3-1.6-0.1-2.1c-0.3-0.4-0.7-0.6-1-0.3c-0.8,0.6-0.1,2.2,0.3,2.7c1.3,1.6,3.8,1.5,5.5,2.4c1-2.3,0.8-4.5,0-6.8
				c-0.2-0.6,0.8-1,1-0.3c1,2.9,1,5.4-0.1,7.7c2.4,2.4,0.8,6.3-1.6,8.1C556.9,525.7,554.9,524.7,554.7,522.8z M556.2,521.3
				c-1.1,1.4,0.8,2.9,1.9,1.3c0.6-1,0.7-2.4,0.3-3.4C557.9,519.9,556.8,520.6,556.2,521.3z"/>
			<path class="st7" d="M564,495.1c0.1,0.3,0.2,0.7,0.4,1.1c0.9-0.7,2-1.3,2.6-1.4c0.3,0,1.1,0.7,1.3,1c0.1,0.2,0.2,0.3,0.2,0.4
				c0,0-0.1,0-0.1,0.1c-1.2,0.4-2.3,1.2-3.3,1.9c1.8,4.5,4.2,9.8,6,12.8c0.5,0.8,0.7,0.8,0.8-0.1c0.3-3.2-0.5-8.2-1.3-10.8
				c-0.2-0.7,0.8-1,1-0.3c0.8,2.7,2.8,12.1,0.3,14c-1.7,1.3-3.1-0.6-3.9-1.8c-0.3-0.4-0.5-0.8-0.8-1.3c0.5,3.1,0.7,6.2-0.8,7.3
				c-1,0.8-2.6,0.3-3.3-0.8c-0.2-0.4-0.5-0.8-0.7-1.3c-1.8-3.2-3.5-7.2-4.3-10.5c-0.1-0.3,0-0.6,0.1-0.7c0.6-0.5,2-0.7,2.7-0.7
				c0.5,0,0.5,0.7,0.6,1.1c1.1,3.5,2.9,7.8,4.3,10.3c0.3,0.5,0.5,0.3,0.6-0.2c0.3-2.3-0.3-5.3-1-7.9c-1.1-2.2-2.2-4.6-3.3-6.9
				c-0.2,0.2-0.4,0.4-0.7,0.6c-1.3,1-3,1.7-4.2,0.1c-0.7-0.9-1.1-2.4-1.3-3.5c-0.1-0.8-0.1-1.3,0-1.5c0.4-0.3,1.6-0.5,2.5-0.6
				c0.7,0,1,0.4,1.1,1.2c0.1,0.8,0.2,2.3,0.2,3.6c0.6-0.5,1.1-1.1,1.6-1.6c-0.4-0.9-0.8-1.9-1.1-2.9c-0.2-0.9-0.3-1.6,0-1.8
				c0.6-0.5,3.1-1.1,3.5-0.7c0,0.1,0.1,0.1,0.1,0.2c0,0.1,0,0.2,0,0.2C563.8,494.4,563.8,494.7,564,495.1z"/>
			<path class="st7" d="M569.9,490.5c0.1,0.4,0.3,0.8,0.4,1.2c0.9-0.7,2-1.4,2.6-1.4c0.3,0,1.1,0.6,1.3,0.9c0.1,0.2,0.2,0.3,0.1,0.4
				c0,0-0.1,0-0.1,0.1c-1.1,0.4-2.3,1.2-3.2,1.9c1.8,4.4,4.2,9.7,5.9,12.8c0.5,0.7,0.7,0.8,0.8,0c0.3-3.3-0.5-8.2-1.3-10.8
				c-0.2-0.7,0.8-1,1-0.3c0.8,2.7,2.8,12.1,0.3,14c-1.7,1.3-3.1-0.5-3.9-1.8c-1.9-3-4.1-7.5-5.8-11.4c-0.2,0.2-0.5,0.4-0.7,0.5
				c-0.6,0.4-1.9,1.5-2.9,0.9c-0.3-0.2-0.3-0.3,0-0.6c1-0.8,1.9-1.7,2.8-2.5c-0.4-1-0.8-1.9-1.1-2.9c-0.3-1-0.3-1.6,0-1.8
				c0.6-0.5,3.1-1.2,3.5-0.7c0,0.1,0,0.1,0,0.2c0,0.1,0,0.1,0,0.2C569.7,489.9,569.8,490.2,569.9,490.5z"/>
			<path class="st7" d="M573,483.3c0.4-0.2,1.6-0.5,2.4-0.6c0.7,0,1,0.3,1.1,1.2c0.2,1.3,0.4,5.1-0.3,5.7c-1.7,1.4-3.2-3.8-3.3-4.9
				C572.8,483.9,572.8,483.5,573,483.3z M579.4,502.9c-1.8-3.2-3.4-7.2-4.3-10.4c-0.1-0.3,0-0.6,0.2-0.8c0.6-0.4,2-0.7,2.6-0.6
				c0.5,0,0.5,0.7,0.6,1c1,3.5,2.9,7.7,4.2,10.3c0.3,0.5,0.5,0.3,0.6-0.1c0.4-3.3-0.9-8-1.7-10.7c-0.2-0.7,0.8-1,1-0.3
				c0.8,2.7,3.4,11.6,0.8,13.6c-1.1,0.8-2.6,0.3-3.3-0.8C579.9,503.7,579.6,503.3,579.4,502.9z"/>
			<path class="st7" d="M580.2,488.5c-0.1-0.3,0-0.6,0.1-0.7c0.6-0.5,2-0.7,2.7-0.6c0.5,0,0.5,0.7,0.6,1.1c0.6,1.9,1.4,4.1,2.3,6
				c-0.7-3.2-1.3-7.4-0.8-9.7c0-0.3,0.2-0.5,0.4-0.7c0.4-0.3,2.5-1,2.9-0.5c0.1,0.1,0.1,0.2,0.2,0.4c0.1,0.3,0.2,0.7,0.3,1
				c1.1,3.4,2.8,7.3,4.1,9.7c0.3,0.5,0.5,0.4,0.6-0.1c0.4-3.3-0.9-8-1.7-10.7c-0.2-0.7,0.8-1,1-0.3c0.8,2.7,3.4,11.6,0.8,13.6
				c-1.1,0.8-2.5,0.6-3-0.3c-1.7-2.8-3.7-7.1-4.7-10.4c-0.3,3.8,1.5,11.6,3,13.8c0.2,0.3,0.1,0.5-0.1,0.6c-0.7,0.6-2.6,0.7-3.1,0
				C583.5,497.4,581.2,492.5,580.2,488.5z"/>
			<path class="st7" d="M598.9,493c-1.2,0.9-2.5,0.7-3.5-0.3c-2.9-3.1-5.3-9.7-3.5-13.6c0.3-0.7,0.9-1,1.6-1.3
				c0.7-0.2,1.4-0.3,2.1-0.4c0-0.1-0.1-0.3-0.2-0.5c-0.1-0.3,0-0.6,0.1-0.7c0.6-0.5,2-0.7,2.7-0.6c0.3,0,0.4,0.3,0.5,0.6
				c0.1,0.3,0.2,0.7,0.3,1c1,2.7,2.2,5.4,3.2,7.6l0.2,0.3c0.5-2.8,0.5-5.8-0.4-9c-0.2-0.7,0.8-1,1-0.3c1.2,4,0.9,7.7,0.2,11
				c1.1,2.3,2.1,4.7,2.9,7.2c0.8,2.6,0.9,4.8-1.5,6.6c-0.7,0.6-1.8,0.8-2.7,0.6c-1.9-0.6-2.7-2.7-2.5-4.5c0.1-2.1,1.2-4.3,1.8-6.3
				c-0.4-1-0.9-2.1-1.3-3.2C600.3,489.5,600.3,491.9,598.9,493z M597.1,489.6c0.2,0.4,1,1.5,1.5,1.1c1.5-1.1-1.7-9.4-2.3-11.2
				c-0.1-0.3-0.2-0.7-0.3-1c-0.3-0.1-0.7-0.1-1,0.2C592.8,480.3,595.2,486.8,597.1,489.6z M603.4,496.4c-0.5-1.4-1.1-3-1.7-4.6
				c-0.6,2-2,5.1-0.4,7c0.4,0.5,1.2,0.9,1.8,0.4C603.6,498.8,603.9,497.8,603.4,496.4z"/>
		</g>
	</g>
	<polyline class="st0" points="266.6,351.7 265,183.4 586.2,178.7 588.6,428 377.5,423.9 	"/>
	<path class="st0" d="M326.1,193.7c-3.3,0-5.9-5.9-5.9-13.1s2.7-13.1,5.9-13.1s5.9,5.8,5.9,13.1"/>
	<path class="st0" d="M400.5,193.7c-3.2,0-5.9-5.9-5.9-13.1s2.7-13.1,5.9-13.1s5.9,5.8,5.9,13.1"/>
	<path class="st0" d="M469,191c-3.3,0-5.9-5.9-5.9-13.1s2.7-13.1,5.9-13.1s5.9,5.8,5.9,13.1"/>
	<path class="st0" d="M536.3,192c-3.3,0-5.9-5.8-5.9-13.1s2.7-13.1,5.9-13.1s5.9,5.9,5.9,13.1"/>
	<ellipse class="st0" cx="317.4" cy="642.8" rx="129.5" ry="38.1"/>
	<path class="st7" d="M256.1,537.6c4.7,5.2,11,7.4,17.5,9.4c6.9,2.1,13.7,4.3,20.4,6.7c2.6,0.9,4.2,0.3,5.1-2.2
		c2.5-6.7,5.4-13.3,7.4-20.1c3-10.5,5.7-21.1,4.9-32.1c-0.7-9.8-1.8-19.5-8.2-27.8c-1-1.3-1.4-3-2.3-5c1.1,0.3,1.5,0.2,1.7,0.4
		c5.4,5.8,9.5,12.3,10.9,20.3c2.1,10.8,2.1,21.9-0.1,32.7c-1.6,7.5-4.2,14.8-6.6,22.1c-1.4,4.2-1.6,4.4,2.3,6.2
		c4.1,1.9,8.4,3.3,12.6,5.1c4.2,1.8,8.2,3.9,9.5,9c0.8,3,0.1,4.9-2.7,6.3c-4.8,2.5-9.8,2-14.6,0.5c-2.6-0.8-5.4-0.4-7.6,1.1
		c-2.6,1.4-5.5,2.2-8.5,2.2c-11.4,0.3-22.9-0.8-34-3.5c-10.5-2.5-20.9-5.4-31.4-7.7c-6.9-1.5-13.9-2.3-20.8-3.8
		c-6.1-1.3-12.1-3.1-18-5c-4.1-1.3-8.3-2.6-12-4.7c-3.6-2.1-6.8-5-9.4-8.3c-1.7-2.2-2.1-5.8-2.1-8.8c0-3.7,2.8-5.9,6.2-7.1
		c8.1-3,16.2-2.4,24.4-0.5c1.6,0.4,3.2,0.7,4.8,0.9c2.2,0.2,3.4-0.8,3.5-3.1c0-2.5,0.1-5.1,0.1-7.6c0-21.4,6.4-41,16.4-59.7
		c6.1-11.4,13.3-22,23.1-30.7c2-1.8,4.4-3.2,6.6-4.8c1.1-0.8,2.3-1.6,3.3-2.4c-1.5-2.9-3.3-5.4-4.3-8.1c-1.8-5.4-1.5-10.7,3.3-14.6
		c1.5-1.2,3.6-1.6,5.3-2.4c1-0.5,2.4-1,2.9-1.9c3.2-5.7,8.6-8.2,14.4-9.9c8.4-2.5,16-0.2,23.4,4.2c3.6,2.1,7.8,3.4,11.5,5.4
		c2.2,1.2,4.1,3.1,6.2,4.6c0.6,0.5,1.3,0.9,2.1,1.1c4.6,0.1,7.3,1.9,8.5,5.8c1.1,3.9-0.5,8.1-3.9,10.2c-1.5,0.9-1.9,1.9-2.2,3.6
		c-0.7,3.8-1.9,7.5-2.9,11.3c-0.5,2.1-2.3,2.1-3.7,1.8s-3.4,1-4.2-1.7c-0.4-1.4-2-2.4-3.2-3.6c-0.8-0.7-1.5-1.5-2-2.5
		c0.6,0,1.2,0,1.8,0c1.9,0.3,3.7,0.5,5.6,0.5c5-0.4,6.6-2.2,7.3-7.5c-0.3-0.2-0.6-0.3-0.9-0.4c-3.4-0.2-6.2-1.4-7.5-4.8
		c-1.4-3.5-0.6-7.4,2-10.1c2.2-2.5,2.3-3-0.3-5.1c-1.8-1.2-3.7-2.3-5.7-3.1c-3.6-1.8-7.4-3.3-11-5.2c-5.9-3.3-12-3.6-18.4-2.4
		c-7,1.3-11.1,6.1-14.7,11.5c-0.7,1.2-1.9,1.9-3.3,1.8c-6.1,0.2-9.9,4.7-8.8,10.7c0.6,3.2,1.6,6.3,4.5,8.4c1.9,1.5,1.8,3.1,0,4
		c-10.4,5.5-18.3,13.6-24.2,23.7c-3.9,6.6-7.8,13.4-11,20.3c-4.4,10-7.6,20.5-9.4,31.2c-1.8,9.4-2.1,19-0.8,28.5
		c1.1,6.8,2.8,13.5,5.1,20c1.7,4.7,3.9,9.3,6.6,13.6c1,1.7,3.4,3,5.4,3.8c8.9,3.8,18.2,6.3,27.7,7.7c10.4,1.3,20.9,2.5,31.4,3.6
		c3.3,0.2,6.5,0.1,9.8-0.4c2.9-0.3,4.4-1.9,4.5-4.6c0.3-2.6-1.4-5.1-3.9-5.7c-12.4-4.1-24.8-8.1-37.2-12.3c-2.2-0.6-4.2-1.6-6-3
		c-1.5-1.3-2.3-3.5-3.4-5.3L256.1,537.6z M321.4,568.1c1.1-0.1,2.2-0.3,3.3-0.5c4.2-1.2,5-4.3,1.8-7.2c-1.6-1.6-3.5-2.8-5.6-3.7
		c-4.9-1.9-10-3.4-14.8-5.3c-2.3-0.9-3,0.2-3.9,1.9c-1,2,0,2.7,1.6,3.5c2.7,1.2,5.4,2.8,5.9,5.9c0.5,3.6,3,4.4,5.9,4.7
		C317.3,567.8,319.2,567.9,321.4,568.1L321.4,568.1z M323.7,395.3c-0.2,2.9,0.8,4.1,2.9,4.4c0.7,0.1,1.5-0.2,2-0.7
		c0.1-0.7-0.1-1.5-0.6-2C326.6,396.3,325.2,395.7,323.7,395.3L323.7,395.3z M321.1,420.6c0.1-0.1,0-0.3-0.1-0.3c0,0-0.1,0-0.1,0
		c-0.8,0-2.4,0.4-3,0.4c-1.1,0.1-0.6,1.7-0.8,3.8c-0.1,0.7,1.1,0.4,2.1,0.4l0,0C320,424,320.4,421.7,321.1,420.6L321.1,420.6z
		 M323.4,420.2l-1.1-0.4l-1.7,4.5l1,0.4L323.4,420.2z"/>
	<path class="st7" d="M264.4,435.8c-0.6,1.2-1.2,2.5-1.8,3.7c-6.3,11.3-9,24.3-7.7,37.2c0.9,9.9,3.7,19.2,9.9,27.2
		c3.3,4.1,7.3,7.6,11.9,10.2c0.7,0.4,1.1,1.5,1.6,2.3c-1.1,0-2.5,0.5-3.2,0c-9-6.1-16.6-13.4-19.6-24.4c-0.8-2.8-1.4-5.6-2-8.5
		c-2.6-12.3-0.9-24.4,2.9-36.1c1.4-4.4,4.4-8.2,6.7-12.2L264.4,435.8z"/>
	<path class="st7" d="M302.9,454.9c3.3-0.3,6.6-0.5,9.9-1c14.2-2.1,27-9.4,36-20.6c3.6-4.4,6.4-9.4,9.7-14c0.6-0.6,1.3-1.2,2-1.7
		c0.1,1,0.6,2.2,0.2,3c-2.8,6.3-6.7,12.1-11.7,16.9c-10,9.7-22.5,16.2-36.2,18.7c-2.1,0.4-4.3,0.6-6.5,0.5c-1.3-0.2-2.5-0.5-3.7-0.9
		L302.9,454.9z"/>
	<path class="st7" d="M370.1,429.1c0.2,8.4-35.8,49.5-47.3,54c18.6-15.1,33.7-33.2,46.1-53.5C369,429.3,369.5,429.3,370.1,429.1z"/>
	<path class="st7" d="M295.5,455.6c-0.3-2.1-1.2-4.2-0.9-6.2c1.1-7.7,4.1-14.3,11.5-17.8c3.4-1.4,6.9-2.6,10.4-3.6
		c0.3-0.1,0.9,0.3,1.3,0.5c-0.2,0.5-0.4,1.3-0.8,1.5c-2.2,0.9-4.4,1.7-6.6,2.4c-7.4,2.1-13.5,9.2-14.1,16.8c0,2.1,0.1,4.2,0.3,6.3
		L295.5,455.6z"/>
	<path class="st7" d="M264.2,397.6c1,2.2,2,4.2,2.8,6.3c0.1,0.6,0,1.2-0.3,1.7c-1.1,1.9-2.3,3.7-3.7,5.4c-0.7,0.3-1.5,0.3-2.1-0.1
		C259.6,408,260.6,399.6,264.2,397.6z"/>
	<path class="st7" d="M288.5,517.1c-6.9-0.1-11.4-4.3-9.8-8.8L288.5,517.1z"/>
	<path class="st7" d="M292.7,514.5c-3.9,1.3-8.3-1.2-8.7-4.1c-0.1-1.1,0.1-2.7,1.5-1.9C288,510.1,290.1,512.3,292.7,514.5z"/>
	<path class="st7" d="M296.2,512.9c-3.8,0-5.9-1.5-7.3-5C290.9,507,293.2,508.6,296.2,512.9z"/>
	<path class="st7" d="M361.2,422.7l6.3-8.8C367.5,417.8,364.1,422.6,361.2,422.7z"/>
	<path class="st7" d="M364.2,428.3c0.4-3.4,2.9-5,4.5-7.6C369.6,423.6,367.5,427.2,364.2,428.3z"/>
	<path class="st8" d="M321.4,568.1c-2.1-0.2-4-0.4-5.9-0.6c-2.9-0.3-5.3-1.1-5.9-4.7c-0.5-3.2-3.2-4.7-5.9-5.9
		c-1.6-0.8-2.6-1.5-1.6-3.5c0.9-1.7,1.5-2.8,3.9-1.9c4.9,1.9,10,3.3,14.8,5.3c2.1,0.9,4,2.1,5.6,3.7c3.2,2.9,2.4,6-1.8,7.2
		C323.6,567.9,322.5,568,321.4,568.1z"/>
	<path class="st8" d="M323.7,395.3c1.4,0.4,2.9,1,4.2,1.7c0.5,0.5,0.8,1.3,0.6,2c-0.5,0.5-1.3,0.8-2,0.7
		C324.6,399.4,323.5,398.2,323.7,395.3z"/>
	<path class="st8" d="M323.4,420.2l-1.7,4.4l-1-0.4l1.7-4.5L323.4,420.2z"/>
	<path class="st7" d="M300.9,399.9c-4.7-0.6-8.7,0-11,5.2c-0.1-3.7,2.6-6.9,6.3-7.5C297.9,397.4,299.9,396.8,300.9,399.9z"/>
	<path class="st9" d="M191.9,547.6c0,0,1.5-13.2,12.2-19.3"/>
	<path class="st9" d="M200.5,551c0,0,1.5-13.2,12.2-19.3"/>
	<path class="st9" d="M181.3,546.1c0,0,2-15,15.1-21.7"/>
	<path class="st9" d="M176.4,525c0,0,19.9-1.3,40.8,16"/>
	<path class="st9" d="M173.5,530.1c0,0,19.4-0.9,40,17.1"/>
	<path class="st9" d="M174.9,536.9c0,0,15.5-0.6,31.4,13.2"/>
	<path class="st9" d="M176,538.3c0,0,1.2-10.6,10.1-15.5"/>
	<path class="st9" d="M207.3,553.3c0,0,1.2-10.6,10.1-15.5"/>
	<g>
		<g>
			<path class="st7" d="M325.9,200.4c7.4,0,6.2,14.5,0.7,21.2c1.5,0.9,2.9,2,4.2,3.1c1,0.9,1.4,1.5,1.4,1.9c-0.1,0.5-1.1,2.1-1.4,2
				c0,0-0.1-0.1-0.1-0.1c-0.1-0.2-0.2-0.3-0.3-0.5c-1.1-1.5-3.2-3.2-5.4-4.7c-1.2,1-2.6,1.6-4.1,1.6c-9.8,0-6.8-18.2-0.4-23.6
				c1-0.9,2.3-1.5,3.6-1.5C324.6,199.7,325.3,200.1,325.9,200.4z M322.7,222c-1.1-0.6-2.1-1-3-1.2c0,0-0.3-0.1-0.3-0.1
				c-0.1-0.1-0.1-0.2-0.1-0.3c0.2-0.7,1.1-1.5,1.6-1.4c1,0.3,2.1,0.7,3.1,1.2c2.3-3.9,3.8-11.2,3.4-15.4c-0.2-2.1-1-3.1-2.1-3.1
				s-2.1,0.9-2.7,1.7c-4.3,5.1-6.5,19.5-1.8,19.5C321.4,222.9,322.1,222.5,322.7,222z"/>
			<path class="st7" d="M337.8,220.6c0-0.1,0-0.2,0.1-0.3c-1.2,2.4-2.6,4.4-4.3,4.4c-1.5,0-2.9-1.5-2.7-2.6c0.1-0.5,0.1-1,0.2-1.5
				c0.5-3.6,1.7-7.8,3-10.8c0.2-0.3,0.3-0.5,0.6-0.5c0.7,0,2,0.7,2.5,1.1c0.4,0.3,0,0.8-0.2,1.2c-1.1,3-2.2,6.9-2.7,9.7
				c-0.2,0.9,0.1,1.4,0.5,1.4c1.9,0,4.6-8.5,5.2-10.3c0.3-0.9,0.6-1.8,1-2.6c0.2-0.3,0.4-0.5,0.6-0.5c0.7,0,2,0.7,2.5,1.1
				c0.4,0.3,0,0.8-0.2,1.2c-1.3,3.4-2.4,7.9-2.9,10.7c-0.1,0.6,0.2,0.6,0.6,0.3c2.3-2.4,4.1-6.9,5.1-9.5c0.3-0.7,1.2-0.3,1,0.4
				c-1,2.6-4.4,11.3-7.7,11.3c-1.3,0-2.2-1.4-2.1-2.6C337.6,221.6,337.7,221.1,337.8,220.6z"/>
			<path class="st7" d="M350.5,209.2c1.5,0,4.1,2,4.1,3.7c0,3.6-4.2,6.4-7.2,6.4c-0.1,2,0.5,3.7,2.3,3.7c3.1,0,6-6.3,7.3-9.9
				c0.2-0.7,1.2-0.2,1,0.4c-1.4,3.8-4.5,11.3-8.9,11.3C339.8,224.7,345,209.2,350.5,209.2z M347.5,218.3c2.1,0,4.4-3.1,4.4-6.2
				c0-0.8-0.7-1.1-1.2-0.6C349.1,212.6,347.8,215.7,347.5,218.3z"/>
			<path class="st7" d="M354.4,221.4c0.6-1,1.6-1.3,2.7-1.4c0.9-0.1,1.7-0.1,2.5-0.3c-0.3-2.3-3-3.8-3-6.7c0-2.5,2.1-3.9,4.3-3.9
				c1.4,0,3.2,2,3.2,3.4c0,0.8-0.9,2.2-1.4,2.2c-0.9,0-2-0.6-2-1c0-0.1,0-0.1,0.1-0.2c0.7,0,1.2-1,1.2-1.8c0-0.5-0.2-0.9-0.6-0.9
				c-1,0-1.4,1.7-1.4,2.4c0,2.1,2.1,3.5,2.9,5.3c2.1-1.2,3.4-3.1,4.1-5.4c0.2-0.7,1.2-0.3,1,0.3c-1,2.9-2.5,4.8-4.8,6.1
				c0.5,3.4-3.2,5.5-6.2,5.5C354.4,225,353.4,222.9,354.4,221.4z M356.5,221.1c-1.7,0.4-1.2,2.8,0.7,2.2c1.1-0.4,2-1.5,2.4-2.5
				C358.7,221,357.4,220.9,356.5,221.1z"/>
			<path class="st7" d="M372.2,205.1c-0.2,0.4-0.3,0.8-0.4,1.2c1.2,0,2.4,0.1,2.9,0.5c0.2,0.1,0.5,1.2,0.5,1.5c0,0.2,0,0.3-0.2,0.4
				c0,0-0.1,0-0.1,0c-1.1-0.4-2.5-0.4-3.7-0.4c-1.3,4.6-2.6,10.3-3.1,13.7c-0.1,0.9,0.1,1,0.6,0.4c2.2-2.4,4.6-6.8,5.6-9.3
				c0.3-0.7,1.2-0.3,1,0.4c-1,2.6-5.2,11.3-8.3,11.3c-2.2,0-2.1-2.3-2-3.8c0.3-3.5,1.3-8.4,2.4-12.6c-0.3,0-0.6,0-0.9,0
				c-0.7,0-2.4,0-2.8-1c-0.1-0.3,0-0.5,0.3-0.5c1.3,0,2.5-0.2,3.8-0.3c0.3-1,0.5-2,0.9-2.9s0.8-1.4,1.1-1.4c0.8,0,3.1,1,3.1,1.6
				c0,0.1,0,0.1-0.1,0.2c0,0-0.1,0.1-0.1,0.2C372.4,204.5,372.3,204.7,372.2,205.1z"/>
			<path class="st7" d="M372.1,220.6c0.6-3.6,1.7-7.8,3-10.8c0.2-0.3,0.3-0.5,0.6-0.5c0.7,0,2,0.7,2.5,1.1c0.4,0.3,0,0.8-0.2,1.2
				c-1.3,3.4-2.4,7.9-2.9,10.7c-0.1,0.6,0.2,0.6,0.5,0.3c2.4-2.4,4.1-6.9,5.1-9.5c0.3-0.7,1.2-0.3,1,0.4c-1,2.6-4.4,11.3-7.7,11.3
				c-1.4,0-2.2-1.4-2.1-2.6C372,221.6,372,221.1,372.1,220.6z M379,201.3c0.4,0,1.5,0.5,2.3,1c0.6,0.4,0.6,0.9,0.2,1.6
				c-0.7,1.2-2.8,4.3-3.7,4.3c-2.2,0.1-0.2-5,0.3-5.9C378.5,201.6,378.8,201.3,379,201.3z"/>
			<path class="st7" d="M386.3,209.8c2.4,0,4.4,1.7,4.4,3.4c0,1.7-0.4,3.7-1.1,5.4c1.7-1.5,3.1-3.4,4-5.6c0.3-0.6,1.2-0.2,1,0.4
				c-1.2,3-3.3,5.5-6,7.2c-1.4,2.4-3.5,4.1-5.8,4.1c-2.8,0-4.4-2.8-4.4-4.8c0-3.8,2-8.9,5.2-10.6C384.4,209,385.5,209.3,386.3,209.8
				z M382.4,222c0.9-0.1,1.4-0.2,2.2-0.5c1.4-2,2.5-5.8,2.5-8.2c0-2.6-1.4-2.7-2.8-1.2c-2.2,2.4-3.3,7.9-2.3,10
				C382.1,222,382.2,222,382.4,222z"/>
			<path class="st7" d="M394.3,209.8c0.1-0.3,0.3-0.5,0.5-0.5c0.8,0,2,0.7,2.5,1.1c0.4,0.3,0,0.8-0.2,1.2c-0.7,1.9-1.4,4.1-1.9,6.2
				c1.4-3,3.4-6.7,5.3-8.2c0.2-0.2,0.5-0.3,0.7-0.3c0.5,0,2.6,0.7,2.6,1.4c0,0.2,0,0.3-0.1,0.4c-0.2,0.3-0.3,0.6-0.4,1
				c-1.2,3.3-2.2,7.5-2.7,10.2c-0.1,0.6,0.2,0.7,0.5,0.3c2.4-2.4,4.1-6.9,5.1-9.5c0.3-0.7,1.2-0.3,1,0.4c-1,2.6-4.4,11.3-7.7,11.3
				c-1.4,0-2.4-1-2.2-2c0.4-3.3,1.4-7.9,2.6-11.1c-2.6,2.8-5.8,10.1-6,12.7c0,0.4-0.2,0.4-0.5,0.4c-0.9,0-2.4-1-2.4-1.9
				C391.4,218.8,392.7,213.5,394.3,209.8z"/>
			<path class="st7" d="M403.6,221.4c0.6-1,1.6-1.3,2.7-1.4c0.9-0.1,1.7-0.1,2.5-0.3c-0.3-2.3-3-3.8-3-6.7c0-2.5,2.1-3.9,4.3-3.9
				c1.4,0,3.2,2,3.2,3.4c0,0.8-0.9,2.2-1.4,2.2c-0.9,0-2-0.6-2-1c0-0.1,0-0.1,0.1-0.2c0.7,0,1.2-1,1.2-1.8c0-0.5-0.2-0.9-0.6-0.9
				c-1,0-1.4,1.7-1.4,2.4c0,2.1,2.1,3.5,2.9,5.3c2.1-1.2,3.4-3.1,4.1-5.4c0.2-0.7,1.2-0.3,1,0.3c-1,2.9-2.5,4.8-4.8,6.1
				c0.5,3.4-3.2,5.5-6.2,5.5C403.6,225,402.6,222.9,403.6,221.4z M405.7,221.1c-1.7,0.4-1.2,2.8,0.7,2.2c1.1-0.4,2-1.5,2.4-2.5
				C407.9,221,406.6,220.9,405.7,221.1z"/>
			<path class="st7" d="M430,213.1c0.3-0.6,1.3-0.2,1,0.4c-1,2.2-4,4.3-6.3,4.6c0.8,3.9,0.7,8.8-0.3,12.3c-0.3,1-0.7,2.3-1.4,2.9
				c-0.6,0.7-1.2,0.7-1.9,0.7c-0.9,0-2.6-0.6-2.6-1.4c0-0.9,0.1-2,0.2-3.3c0.8-7.3,2.5-15.9,4.9-22.6c0.6-1.7,1.2-2.7,1.6-2.7
				c0.7,0,3.4,1,3.4,1.6c0,0.1,0,0.2-0.1,0.2c-0.2,0.2-0.3,0.4-0.5,0.7c-1.1,2-2.4,6.3-3.4,10.7C426.7,216.7,429.2,214.8,430,213.1z
				 M423.2,230.7c1-3.2,1.1-7,0.7-10.3c-0.7,3.3-1.2,6.7-1.6,10.1c-0.1,1.2-0.1,1.8,0.1,1.8C422.7,232.3,423.1,231,423.2,230.7z"/>
			<path class="st7" d="M430.4,209.8c0.1-0.3,0.3-0.5,0.5-0.5c0.8,0,2,0.7,2.5,1.1c0.4,0.3,0,0.8-0.2,1.2c-0.7,1.9-1.4,4.1-1.9,6.2
				c1.4-3,3.4-6.7,5.3-8.2c0.2-0.2,0.5-0.3,0.7-0.3c0.4,0,1.8,0.4,2.4,1c0.5,0.5,0.2,0.9-0.2,1.2c-1.3,1.1-2,3.1-2.1,4.4
				c0,1,0.3,1.4,0.7,1.4c1.6,0,3.2-3.1,3.9-4.3c0.4-0.6,1.3,0,0.9,0.6c-0.9,1.4-2.5,4.4-4.3,5.1c-1.3,0.5-3.8-0.7-3.9-2.4
				c-0.1-1.2,0.5-3,1-4.1c0.2-0.3,0-0.3-0.1-0.1c-2.5,3-5.5,9.8-5.7,12.3c0,0.4-0.2,0.4-0.5,0.4c-0.9,0-2.4-1-2.4-1.9
				C427.5,218.8,428.8,213.5,430.4,209.8z"/>
			<path class="st7" d="M444.9,224.7c-9.3,0-4.1-15.6,1.4-15.6c1.5,0,4.1,2,4.1,3.7c0,3.6-4.2,6.4-7.2,6.4c-0.1,2,0.5,3.7,2.3,3.7
				c3.1,0,6-6.3,7.3-9.9c0.2-0.7,1.2-0.2,1,0.4C452.4,217.3,449.3,224.7,444.9,224.7z M446.4,211.5c-1.5,1.2-2.9,4.2-3.2,6.8
				c2.1,0,4.4-3.1,4.4-6.2C447.7,211.3,447,211,446.4,211.5z M449.6,202.6c-0.4,0-0.5,0-0.5,0.2c0,0.1,0,0.1,0,0.4
				c-0.1,2-1.1,3.4-2,3.8c-0.2,0.1-0.1,0.2,0.1,0.2c1.3,0,3.9-0.6,4.3-2.6c0.1-0.5,0-1.2-0.2-1.6
				C451.1,202.5,450.2,202.6,449.6,202.6z"/>
			<path class="st7" d="M456.8,221.8c-1,1.7-2.2,3-3.6,3c-1.5,0-2.4-1-2.6-2.4c-0.5-4.2,1.7-10.9,5.5-13c0.3-0.2,0.5-0.2,0.9-0.2
				c1.1,0,2.1,0.7,3.1,1.1c0.3-0.6,0.6-1,0.9-1c0.7,0,3.4,1,3.4,1.6c0,0,0,0.1-0.1,0.2c-0.2,0.2-0.3,0.4-0.5,0.7
				c-1.1,2.1-2.4,6.6-3.5,11.1c2.9-2.7,4.4-5.5,5.8-9.7c0.2-0.7,1.2-0.3,1,0.3c-1.5,4.6-3.3,7.8-6.8,10.8c0,2.8-0.1,6.5-1.2,9.2
				c-0.2,0.3-0.6,0.6-1.1,0.6c-1,0-2.6-0.6-2.6-1.4C455.3,230,455.9,225.8,456.8,221.8z M458.7,210.9c-2.7,0-4.7,6.7-5,10
				c0,0.4-0.1,1.8,0.5,1.8c1.2,0,2.6-3.2,3.6-6.2c0.5-2.1,1.1-4,1.6-5.3C459.4,211,459.1,210.9,458.7,210.9z"/>
			<path class="st7" d="M470.7,220.6c0-0.1,0-0.2,0.1-0.3c-1.2,2.4-2.6,4.4-4.3,4.4c-1.5,0-2.9-1.5-2.7-2.6c0.1-0.5,0.1-1,0.2-1.5
				c0.5-3.6,1.7-7.8,3-10.8c0.2-0.3,0.3-0.5,0.6-0.5c0.7,0,2,0.7,2.5,1.1c0.4,0.3,0,0.8-0.2,1.2c-1.1,3-2.2,6.9-2.7,9.7
				c-0.2,0.9,0.1,1.4,0.5,1.4c1.9,0,4.6-8.5,5.2-10.3c0.3-0.9,0.6-1.8,1-2.6c0.2-0.3,0.4-0.5,0.6-0.5c0.7,0,2,0.7,2.5,1.1
				c0.4,0.3,0,0.8-0.2,1.2c-1.3,3.4-2.4,7.9-2.9,10.7c-0.1,0.6,0.2,0.6,0.6,0.3c2.3-2.4,4.1-6.9,5.1-9.5c0.3-0.7,1.2-0.3,1,0.4
				c-1,2.6-4.4,11.3-7.7,11.3c-1.3,0-2.2-1.4-2.1-2.6C470.6,221.6,470.7,221.1,470.7,220.6z"/>
			<path class="st7" d="M483.5,209.2c1.5,0,4.1,2,4.1,3.7c0,3.6-4.2,6.4-7.2,6.4c-0.1,2,0.5,3.7,2.3,3.7c3.1,0,6-6.3,7.3-9.9
				c0.2-0.7,1.2-0.2,1,0.4c-1.4,3.8-4.5,11.3-8.9,11.3C472.8,224.7,478,209.2,483.5,209.2z M480.4,218.3c2.1,0,4.4-3.1,4.4-6.2
				c0-0.8-0.7-1.1-1.2-0.6C482.1,212.6,480.8,215.7,480.4,218.3z"/>
			<path class="st7" d="M491,209.8c0.1-0.3,0.3-0.5,0.5-0.5c0.8,0,2,0.7,2.5,1.1c0.4,0.3,0,0.8-0.2,1.2c-0.7,1.9-1.4,4.1-1.9,6.2
				c1.4-3,3.4-6.7,5.3-8.2c0.2-0.2,0.5-0.3,0.7-0.3c0.5,0,2.6,0.7,2.6,1.4c0,0.2,0,0.3-0.1,0.4c-0.2,0.3-0.3,0.6-0.4,1
				c-1.2,3.3-2.2,7.5-2.7,10.2c-0.1,0.6,0.2,0.7,0.5,0.3c2.4-2.4,4.1-6.9,5.1-9.5c0.3-0.7,1.2-0.3,1,0.4c-1,2.6-4.4,11.3-7.7,11.3
				c-1.4,0-2.4-1-2.2-2c0.4-3.3,1.4-7.9,2.6-11.1c-2.6,2.8-5.8,10.1-6,12.7c0,0.4-0.2,0.4-0.5,0.4c-0.9,0-2.4-1-2.4-1.9
				C488.1,218.8,489.3,213.5,491,209.8z"/>
			<path class="st7" d="M508.4,205.1c-0.2,0.4-0.3,0.8-0.4,1.2c1.2,0,2.4,0.1,2.9,0.5c0.2,0.1,0.5,1.2,0.5,1.5c0,0.2,0,0.3-0.2,0.4
				c0,0-0.1,0-0.1,0c-1.1-0.4-2.5-0.4-3.7-0.4c-1.3,4.6-2.6,10.3-3.1,13.7c-0.1,0.9,0.1,1,0.6,0.4c2.2-2.4,4.6-6.8,5.6-9.3
				c0.3-0.7,1.2-0.3,1,0.4c-1,2.6-5.2,11.3-8.3,11.3c-2.2,0-2.1-2.3-2-3.8c0.3-3.5,1.3-8.4,2.4-12.6c-0.3,0-0.6,0-0.9,0
				c-0.7,0-2.4,0-2.8-1c-0.1-0.3,0-0.5,0.3-0.5c1.3,0,2.5-0.2,3.8-0.3c0.3-1,0.5-2,0.9-2.9s0.8-1.4,1.1-1.4c0.8,0,3.1,1,3.1,1.6
				c0,0.1,0,0.1-0.1,0.2c0,0-0.1,0.1-0.1,0.2C508.6,204.5,508.5,204.7,508.4,205.1z"/>
			<path class="st7" d="M514.6,209.2c1.5,0,4.1,2,4.1,3.7c0,3.6-4.2,6.4-7.2,6.4c-0.1,2,0.5,3.7,2.3,3.7c3.1,0,6-6.3,7.3-9.9
				c0.2-0.7,1.2-0.2,1,0.4c-1.4,3.8-4.5,11.3-8.9,11.3C503.8,224.7,509.1,209.2,514.6,209.2z M511.5,218.3c2.1,0,4.4-3.1,4.4-6.2
				c0-0.8-0.7-1.1-1.2-0.6C513.2,212.6,511.9,215.7,511.5,218.3z"/>
			<path class="st7" d="M518.5,221.4c0.6-1,1.6-1.3,2.7-1.4c0.9-0.1,1.7-0.1,2.5-0.3c-0.3-2.3-3-3.8-3-6.7c0-2.5,2.1-3.9,4.3-3.9
				c1.4,0,3.2,2,3.2,3.4c0,0.8-0.9,2.2-1.4,2.2c-0.9,0-2-0.6-2-1c0-0.1,0-0.1,0.1-0.2c0.7,0,1.2-1,1.2-1.8c0-0.5-0.2-0.9-0.6-0.9
				c-1,0-1.4,1.7-1.4,2.4c0,2.1,2.1,3.5,2.9,5.3c2.1-1.2,3.4-3.1,4.1-5.4c0.2-0.7,1.2-0.3,1,0.3c-1,2.9-2.5,4.8-4.8,6.1
				c0.5,3.4-3.2,5.5-6.2,5.5C518.4,225,517.5,222.9,518.5,221.4z M520.6,221.1c-1.7,0.4-1.2,2.8,0.7,2.2c1.1-0.4,2-1.5,2.4-2.5
				C522.8,221,521.4,220.9,520.6,221.1z"/>
		</g>
	</g>
	<g>
		<path class="st7" d="M395.6,323.5l-49.9,0.2l-50.1,0.1l-0.4,0l0-0.4l-0.1-70.9l0-0.5l0.5,0l100.1,0.2l0.3,0l0,0.3l-0.1,35.5
			L395.6,323.5z M395.6,323.5l-0.2-35.5l-0.1-35.4l0.3,0.3L295.5,253l0.5-0.5l-0.1,70.9l-0.4-0.4l49.9,0.1L395.6,323.5z"/>
	</g>
	<polygon class="st1" points="105.8,767.1 105.8,767.1 105.8,767.1 105.8,767.1 	"/>
	<g>
		<path class="st7" d="M424.8,252.5l49.9-0.2l50.1-0.1l0.4,0l0,0.4l0.1,70.9l0,0.5l-0.5,0l-100.1-0.2l-0.3,0l0-0.3l0.1-35.5
			L424.8,252.5z M424.8,252.5l0.2,35.5l0.1,35.4l-0.3-0.3l100.1-0.2l-0.5,0.5l0.1-70.9l0.4,0.4l-49.9-0.1L424.8,252.5z"/>
	</g>
	<g>
		<path class="st7" d="M364.2,409.5c-2.4,0.2-4.9,0.3-7.3,0.4c-2.4,0.1-4.9,0.1-7.3,0.1c-2.4,0-4.9,0-7.3-0.1l-3.7-0.1
			c-1.2-0.1-2.4-0.1-3.7-0.2c1.2-0.1,2.4-0.2,3.7-0.2l3.7-0.1c2.4-0.1,4.9-0.1,7.3-0.1c2.4,0,4.9,0,7.3,0.1
			C359.3,409.2,361.7,409.3,364.2,409.5z"/>
	</g>
	<g>
		<path class="st7" d="M386.5,338.5l6.1-0.1l0.1,0l0,0.1c0.1,5.9,0.2,11.8,0.2,17.7c0.1,5.9,0.1,11.8,0.1,17.7c0,5.9,0,11.8,0,17.7
			l0,8.9l-0.1,8.9l0,0.3l-0.3,0c-5.9-0.1-11.9-0.2-17.8-0.3c5.9-0.1,11.9-0.3,17.8-0.3l-0.3,0.3l-0.1-8.9l0-8.9
			c0-5.9-0.1-11.8,0-17.7c0-5.9,0-11.8,0.1-17.7c0.1-5.9,0.1-11.8,0.2-17.7l0.1,0.1L386.5,338.5z"/>
	</g>
	<g>
		<path class="st7" d="M292.5,377.7c-0.1-6.5-0.2-13.1-0.3-19.6l-0.2-19.6l0-0.4l0.4,0L314,338l21.5,0.1c7.2,0,14.3,0.1,21.5,0.1
			c7.2,0.1,14.3,0.2,21.5,0.3c-7.2,0.1-14.3,0.2-21.5,0.3c-7.2,0.1-14.3,0.1-21.5,0.1L314,339l-21.5-0.1l0.4-0.4l-0.2,19.6
			C292.7,364.6,292.6,371.2,292.5,377.7z"/>
	</g>
	<g>
		<path class="st7" d="M421.8,338.5l49.9-0.2l50.1-0.1l0.4,0l0,0.4l0.1,70.9l0,0.5l-0.5,0l-100.1-0.2l-0.3,0l0-0.3l0.1-35.5
			L421.8,338.5z M421.8,338.5l0.2,35.5l0.1,35.4l-0.3-0.3l100.1-0.2l-0.5,0.5l0.1-70.9l0.4,0.4l-49.9-0.1L421.8,338.5z"/>
	</g>
	<path class="st10" d="M392.6,268.5c1.3-2.2,1.7-4.5-0.8-6.5c-3-2.4-8.5-2.9-13.6-3.4c-14.3-1.5-28.8-2.3-43.3-2.4
		c-7-0.1-14,0.1-20.9,0.4c-5.3,0.3-8.9,1.6-10.7,4.2c-0.4,0.6-0.7,1.1-1,1.7c-3.3,3.4-2.6,8.4-3.3,11.7v0.3c-0.2,0.7-0.4,1.3-0.5,2
		c-1.2,4-2.8,8.8,2.8,11.6c6.4,3.1,17.9,2.4,25.8,2.6l2.3,0.1c12,1.1,24.1,1.9,36.2,2.3c7.8,0.3,18.4,1.3,22.4-2.3
		c1.5-0.4,2.4-1.2,2.5-2.1l1.9-19.6C392.5,268.8,392.5,268.6,392.6,268.5z"/>
	<line class="st11" x1="365.3" y1="424.8" x2="384.2" y2="330.6"/>
</g>
<path class="st8" d="M287.7,403.1l6,1.1c-0.2,1.9-0.4,4-0.5,6C290,411.1,289.2,410,287.7,403.1z"/>
<path class="st8" d="M289.2,411.8c-1.5-0.3-2.9-0.2-3.4-0.8c-2.8-3.3-2.7-4.8,0.2-7.6L289.2,411.8z"/>
<path class="st8" d="M289,386.2l-3-4.3C289.3,381.5,290.3,382.9,289,386.2z"/>
<path class="st9" d="M340.4,496.3c0,0,10,6.8,10.4,18.3"/>
<path class="st9" d="M334,502.2c0,0,10,6.8,10.4,18.4"/>
<path class="st9" d="M346.2,488c0,0,11.3,7.9,11,21.8"/>
<path class="st9" d="M365.3,492.6c0,0-7.5,17.4-30.5,27.9"/>
<path class="st9" d="M362.5,488c0,0-7.6,16.8-31,26.7"/>
<path class="st9" d="M356.4,486.3c0,0-6.2,13.4-24.1,21.1"/>
<path class="st9" d="M354.8,486.7c0,0,8,5.4,8.1,15"/>
<path class="st9" d="M329.2,507c0,0,8,5.4,8.1,15"/>
<path class="st12" d="M341.5,281.6c-1.6,0.1-2.7-0.6-3-2c1.1,1.4,2,1.8,2.9,1.4c0.9-0.4,1.1-1.1,0.8-2.7c-1.2-0.1-2-0.8-2.2-2
	c-0.1-0.9,0.4-2,1.1-2.5c0.8-0.5,2.3-0.1,2.8,0.7c0.5,0.8,0.6,1.7,0.3,2.5c-0.2,0.4-0.7,0.8-1.1,1c-0.3,0.2-0.4,0.4-0.4,0.7
	c0.2,1,0.9,1.6,2,1.4c1.7-0.4,2.3-1.1,2.2-3.1c0.5,0.7,0.3,2-0.4,2.6c-0.1,0.1-0.2,0.2-0.3,0.3c-1,0.3-1.2,1.1-1.2,2.1
	c0,0.7-0.3,1.1-1.1,1.1c0,0-0.1,0-0.1,0c-0.4,0.1-1,0.4-1.2,0.2c-0.4-0.3-0.6-0.9-0.8-1.3C341.6,281.9,341.5,281.8,341.5,281.6z
	 M343,280.5c0.4,1.9,0.7,2.3,1.5,2c0-0.6,0.1-1.1,0.1-1.7C344.1,280.7,343.6,280.6,343,280.5z M343.4,283c-0.4-1-0.6-1.6-0.9-2.4
	c-0.8,0.8-0.9,1.2-0.1,2.1C342.6,282.9,343,282.9,343.4,283z M343.4,275.8c0.4-0.9,0.1-1.3-0.8-1.2
	C342.9,275.1,343.1,275.4,343.4,275.8z"/>
<path class="st12" d="M353.1,271.8c0.2-0.2,0.3-0.4,0.5-0.6c0.8-0.8,1-1.9,0.9-3c-0.1-1.6-1.9-2.7-3.4-2.1c-0.5,0.2-1,0.5-1.5,0.9
	c-0.4,0.4-0.7,0.4-1.2,0.1c-2.5-1.4-5-1.7-7.7-0.7c-1.3,0.4-2.4,1.1-3.2,2.3c-0.1-0.1-0.1-0.1-0.2-0.2c0.4-0.5,0.8-1,1.3-1.4
	c2-1.6,4.3-2.2,6.9-1.8c1.1,0.1,2.1,0.5,3.2,0.7c0.3,0.1,0.7,0,0.9-0.1c0.9-0.5,1.8-0.9,2.8-0.7c2.5,0.5,3.6,3.4,2,5.4
	c-0.4,0.5-0.8,0.9-1.2,1.3C353.3,271.9,353.2,271.8,353.1,271.8z"/>
<path class="st12" d="M335.6,268.7c-0.3,0-0.6-0.1-0.9-0.1c-1.2,0.1-2,1-2,2.2c0,1.2,0.4,2.2,1.3,3c0.1,0.1,0.3,0.3,0.3,0.5
	c0.1,0.3,0.1,0.7,0.2,1c0.5,3.3,2,5.9,5.3,7.2c0.1,0,0.2,0.1,0.3,0.1c0,0,0,0,0,0.1c-0.7,0.1-2.2-0.5-3-1.3c-1.6-1.7-3-3.5-3.2-6
	c0-0.2-0.2-0.5-0.4-0.7c-1.2-1.4-1.7-2.9-1.1-4.8c0.4-1.1,1.6-1.9,2.7-1.7c0.2,0,0.4,0.2,0.6,0.4
	C335.6,268.5,335.6,268.6,335.6,268.7z"/>
<path class="st12" d="M348,280.8c3.1-1.5,4.2-4.1,4.3-7.3c0,0,0.1,0.1,0.1,0.1c0.1,1.5,0,2.9-0.5,4.3c-0.3,1-1,1.7-1.9,2.2
	c-0.3,0.2-0.6,0.4-1,0.5c-0.3,0.1-0.6,0.2-0.9,0.3C348.1,281,348,280.9,348,280.8z"/>
<path class="st12" d="M352.4,270.7c-0.4-0.2-0.8-0.5-1.1-0.8c-0.1-0.1-0.2-0.3-0.2-0.4c0.1-0.4,0.3-0.9,0.2-1.3
	c0-0.4-0.2-0.8-0.3-1.2C352.1,267.2,352.9,269.4,352.4,270.7z"/>
<path class="st12" d="M349,272.4c-1.3-0.8-2.2,0.3-3.3,0.8c-0.1-0.7,0.3-1.2,1-1.4C347.8,271.4,348.6,271.6,349,272.4z"/>
<path class="st12" d="M339,274.1c-0.3,0.1-0.6,0.3-0.8,0.2c-0.9-0.5-1.6-0.6-2.2,0.3c0,0.1-0.2,0.1-0.3,0c-0.1,0-0.1-0.2-0.1-0.3
	c0.4-0.9,2.3-1.4,3-0.8C338.8,273.7,338.9,273.8,339,274.1z"/>
<path class="st8" d="M343,280.5c0.6,0.1,1.1,0.2,1.7,0.3c0,0.5-0.1,1.1-0.1,1.7C343.7,282.8,343.4,282.5,343,280.5z"/>
<path class="st8" d="M343.4,283c-0.4-0.1-0.8-0.1-0.9-0.2c-0.8-0.9-0.8-1.3,0.1-2.1C342.8,281.3,343.1,282,343.4,283z"/>
<path class="st8" d="M343.4,275.8c-0.3-0.4-0.5-0.8-0.8-1.2C343.5,274.5,343.8,274.9,343.4,275.8z"/>
<circle class="st13" cx="343.5" cy="274" r="15.4"/>
<g>
	<g>
		<path class="st7" d="M320.6,300.7c-1.6,2.6-2.8,5.4-3.9,8.2c0,0.1,0,0.2-0.1,0.2c0,0.1-0.1,0.1-0.1,0.1c-0.1,0-0.3-0.2-0.4-0.4
			c-0.2-0.2-0.2-0.5-0.2-0.7c-0.3-2.3,0.1-4.5,0.3-7.2c-1.1,3-2.2,7.5-2.3,9c0,0.2-0.1,0.2-0.2,0.2c-0.5,0-1.3-0.5-1.3-0.9
			c0.1-2.9,2-9.8,3-11.6c0.2-0.3,0.3-0.4,0.4-0.4c0.4,0,1.7,0.6,1.7,0.9c0,0.1-0.1,0.1-0.1,0.2c-0.6,2.7-0.7,5.4-0.6,7.8
			c1.3-2.9,2.8-5.6,4.6-8.2c0.1-0.2,0.5-0.7,0.8-0.7c0.4,0,1.6,0.5,1.6,0.8c0,0,0,0.1-0.1,0.1c-0.1,0.1-0.2,0.2-0.2,0.3
			c-1.2,2.1-2.8,9.5-2.8,11.4c0,0.2-0.1,0.2-0.2,0.2c-0.5,0-1.3-0.4-1.3-0.9C319.2,307.3,319.9,303.5,320.6,300.7z"/>
		<path class="st7" d="M326.2,302.5c1.2,0,2.3,0.9,2.3,1.8c0,0.9-0.2,1.9-0.6,2.8c0.9-0.8,1.6-1.8,2.1-2.9c0.1-0.3,0.6-0.1,0.5,0.2
			c-0.6,1.6-1.7,2.8-3.1,3.7c-0.7,1.2-1.8,2.1-3,2.1c-1.4,0-2.3-1.4-2.3-2.5c0-2,1-4.6,2.7-5.5C325.3,302,325.8,302.2,326.2,302.5z
			 M324.2,308.7c0.4,0,0.7-0.1,1.2-0.3c0.7-1,1.3-3,1.3-4.3c0-1.3-0.7-1.4-1.4-0.6c-1.1,1.3-1.7,4.1-1.2,5.2
			C324.1,308.8,324.1,308.7,324.2,308.7z"/>
		<path class="st7" d="M330.4,302.5c0.1-0.2,0.2-0.3,0.3-0.3c0.4,0,1.1,0.4,1.3,0.6c0.2,0.2,0,0.4-0.1,0.6c-0.4,1-0.7,2.1-1,3.2
			c0.7-1.5,1.8-3.4,2.7-4.2c0.1-0.1,0.2-0.1,0.4-0.1c0.3,0,1.3,0.4,1.3,0.7c0,0.1,0,0.1-0.1,0.2c-0.1,0.2-0.1,0.3-0.2,0.5
			c-0.6,1.7-1.2,3.9-1.4,5.3c-0.1,0.3,0.1,0.3,0.3,0.1c1.2-1.2,2.1-3.6,2.7-4.9c0.1-0.3,0.6-0.1,0.5,0.2c-0.5,1.3-2.3,5.8-4,5.8
			c-0.7,0-1.2-0.5-1.2-1.1c0.2-1.7,0.7-4.1,1.3-5.7c-1.3,1.4-3,5.2-3.1,6.6c0,0.2-0.1,0.2-0.2,0.2c-0.5,0-1.3-0.5-1.3-1
			C328.9,307.1,329.6,304.4,330.4,302.5z"/>
		<path class="st7" d="M340.5,302c0.4,0,1.7,0.5,1.7,0.8c0,0,0,0.1,0,0.1c-0.1,0.1-0.2,0.2-0.2,0.3c-0.2,0.4-0.5,1-0.7,1.7
			c0.4-0.7,0.9-1.5,1.3-2.1c0.4-0.5,0.9-0.9,1.3-0.9c0.9,0,1.6,1.1,1.6,1.7c0,1.1-0.5,2.4-1.1,3.6c0.9-0.7,1.8-1.7,2.4-3.1
			c0.1-0.3,0.6-0.1,0.5,0.2c-0.7,1.7-2,3.1-3.6,4c-0.8,1.1-1.7,1.8-2.4,1.8c-0.5,0-0.9-0.2-1.1-0.4c-0.4,2.1-0.6,4-0.6,4.9
			c0,0.2-0.1,0.2-0.2,0.2c-0.5,0-1.3-0.5-1.3-0.9C338.1,310.7,339.7,302,340.5,302z M340.5,308.4c0,0.2-0.1,0.3-0.1,0.5
			c0.2-0.1,0.3-0.1,0.5-0.2c0.3,0,0.7-0.1,1.1-0.3c0.8-1,1.6-3.1,1.7-4.8c0-0.4-0.1-0.6-0.3-0.6c-0.1,0-0.2,0.1-0.3,0.2
			C341.9,304.7,341,306.6,340.5,308.4z"/>
		<path class="st7" d="M347.3,302.5c0.1-0.2,0.2-0.3,0.3-0.3c0.4,0,1.1,0.4,1.3,0.6c0.2,0.2,0,0.4-0.1,0.6c-0.4,1-0.7,2.1-1,3.2
			c0.7-1.5,1.8-3.4,2.7-4.2c0.1-0.1,0.2-0.1,0.4-0.1c0.2,0,0.9,0.2,1.2,0.5c0.3,0.3,0.1,0.5-0.1,0.6c-0.7,0.6-1,1.6-1.1,2.3
			c0,0.5,0.2,0.7,0.4,0.7c0.8,0,1.6-1.6,2-2.2c0.2-0.3,0.7,0,0.5,0.3c-0.4,0.7-1.3,2.3-2.2,2.6c-0.7,0.3-1.9-0.4-2-1.2
			c-0.1-0.6,0.2-1.5,0.5-2.1c0.1-0.2,0-0.1-0.1,0c-1.3,1.6-2.8,5.1-2.9,6.4c0,0.2-0.1,0.2-0.2,0.2c-0.5,0-1.3-0.5-1.3-1
			C345.8,307.1,346.4,304.4,347.3,302.5z"/>
		<path class="st7" d="M356.2,302.5c1.2,0,2.3,0.9,2.3,1.8c0,0.9-0.2,1.9-0.6,2.8c0.9-0.8,1.6-1.8,2.1-2.9c0.1-0.3,0.6-0.1,0.5,0.2
			c-0.6,1.6-1.7,2.8-3.1,3.7c-0.7,1.2-1.8,2.1-3,2.1c-1.4,0-2.3-1.4-2.3-2.5c0-2,1-4.6,2.7-5.5C355.2,302,355.8,302.2,356.2,302.5z
			 M354.2,308.7c0.4,0,0.7-0.1,1.2-0.3c0.7-1,1.3-3,1.3-4.3c0-1.3-0.7-1.4-1.4-0.6c-1.1,1.3-1.7,4.1-1.2,5.2
			C354.1,308.8,354.1,308.7,354.2,308.7z"/>
		<path class="st7" d="M364,304.1c0.2-0.3,0.7-0.1,0.5,0.2c-0.5,1.1-2.1,2.2-3.3,2.4c0.4,2,0.4,4.5-0.1,6.4
			c-0.1,0.5-0.4,1.2-0.7,1.5c-0.3,0.3-0.6,0.3-1,0.3c-0.5,0-1.3-0.3-1.3-0.7c0-0.5,0-1.1,0.1-1.7c0.4-3.8,1.3-8.2,2.5-11.7
			c0.3-0.9,0.6-1.4,0.8-1.4c0.4,0,1.7,0.5,1.7,0.8c0,0,0,0.1,0,0.1c-0.1,0.1-0.2,0.2-0.3,0.3c-0.6,1-1.2,3.3-1.8,5.5
			C362.3,306,363.6,305.1,364,304.1z M360.5,313.3c0.5-1.7,0.6-3.6,0.4-5.3c-0.3,1.7-0.6,3.5-0.8,5.2c-0.1,0.6,0,0.9,0,0.9
			C360.2,314.1,360.4,313.4,360.5,313.3z"/>
		<path class="st7" d="M362.7,308.1c0.3-1.9,0.9-4,1.5-5.6c0.1-0.2,0.2-0.3,0.3-0.3c0.4,0,1,0.4,1.3,0.6c0.2,0.2,0,0.4-0.1,0.6
			c-0.7,1.8-1.3,4.1-1.5,5.5c-0.1,0.3,0.1,0.3,0.3,0.1c1.2-1.2,2.1-3.6,2.7-4.9c0.1-0.3,0.6-0.1,0.5,0.2c-0.5,1.3-2.3,5.8-4,5.8
			c-0.7,0-1.2-0.7-1.1-1.4C362.6,308.6,362.6,308.3,362.7,308.1z M366.3,298c0.2,0,0.8,0.3,1.2,0.5c0.3,0.2,0.3,0.5,0.1,0.8
			c-0.4,0.6-1.4,2.2-1.9,2.2c-1.1,0-0.1-2.6,0.2-3C366,298.2,366.1,298,366.3,298z"/>
		<path class="st7" d="M368.8,297.3c0.4,0,1.7,0.5,1.7,0.8c0,0,0,0.1,0,0.1c-0.1,0.1-0.2,0.2-0.3,0.3c-1,1.8-2.3,7.4-2.7,10.2
			c0,0.4,0,0.5,0.3,0.2c1.2-1.2,2-3.5,2.5-4.8c0.1-0.3,0.7-0.1,0.5,0.2c-0.5,1.3-2.3,5.8-4,5.8c-1.1,0-1.1-1.2-1-2
			C366.3,304.4,368,297.3,368.8,297.3z"/>
	</g>
</g>
<g>
	<g>
		<path class="st7" d="M447.9,304c-1.6,2.6-2.8,5.4-3.9,8.2c0,0.1,0,0.2-0.1,0.2c0,0.1-0.1,0.1-0.1,0.1c-0.1,0-0.3-0.2-0.4-0.4
			c-0.2-0.2-0.2-0.5-0.2-0.7c-0.3-2.3,0.1-4.5,0.3-7.2c-1.1,3-2.2,7.5-2.3,9c0,0.2-0.1,0.2-0.2,0.2c-0.5,0-1.3-0.5-1.3-0.9
			c0.1-2.9,2-9.8,3-11.6c0.2-0.3,0.3-0.4,0.4-0.4c0.4,0,1.7,0.6,1.7,0.9c0,0.1-0.1,0.1-0.1,0.2c-0.6,2.7-0.7,5.4-0.6,7.8
			c1.3-2.9,2.8-5.6,4.6-8.2c0.1-0.2,0.5-0.7,0.8-0.7c0.4,0,1.6,0.5,1.6,0.8c0,0,0,0.1-0.1,0.1c-0.1,0.1-0.2,0.2-0.2,0.3
			c-1.2,2.1-2.8,9.5-2.8,11.4c0,0.2-0.1,0.2-0.2,0.2c-0.5,0-1.3-0.4-1.3-0.9C446.5,310.6,447.2,306.8,447.9,304z"/>
		<path class="st7" d="M453,311.3c0,0,0-0.1,0-0.1c-0.6,1.2-1.3,2.3-2.2,2.3c-0.8,0-1.2-0.5-1.3-1.2c-0.3-2.2,0.9-5.6,2.8-6.7
			c0.6-0.4,1.3,0.1,2.1,0.5c0-0.1,0.1-0.2,0.1-0.3c0.1-0.2,0.2-0.3,0.3-0.3c0.4,0,1,0.4,1.3,0.6c0.2,0.2,0,0.4-0.1,0.6
			c-0.7,1.8-1.2,4.1-1.4,5.5c-0.1,0.3,0.1,0.3,0.3,0.1c1.2-1.2,2.1-3.6,2.6-4.9c0.1-0.3,0.6-0.1,0.5,0.2c-0.5,1.3-2.2,5.8-3.9,5.8
			c-0.7,0-1.2-0.7-1.1-1.4C452.9,311.8,452.9,311.6,453,311.3z M453.9,307.1c0.1-0.2,0.1-0.4,0.2-0.5c-0.1-0.2-0.3-0.3-0.5-0.3
			c-1.4,0-2.4,3.4-2.6,5.2c0,0.2-0.1,0.9,0.3,0.9C452.3,312.4,453.6,308,453.9,307.1z"/>
		<path class="st7" d="M462.1,300.5c0.4,0,1.7,0.5,1.7,0.8c0,0,0,0.1,0,0.1c-0.1,0.1-0.2,0.2-0.2,0.3c-0.6,1.1-1.4,3.7-1.9,6.2
			c0.3-0.6,0.6-1.2,1-1.8c0.4-0.6,0.9-1.1,1.4-1.1c0.8,0,1.6,1.1,1.6,1.8c0,1.1-0.4,2.4-1.1,3.6c0.9-0.7,1.8-1.7,2.4-3.1
			c0.1-0.3,0.7-0.1,0.5,0.2c-0.7,1.7-1.9,3.1-3.6,4c-0.8,1.1-1.7,1.8-2.4,1.8c-0.2,0-0.5-0.2-0.7-0.3c0,0.1,0,0.3-0.2,0.3
			c-0.5,0-1.3-0.4-1.3-0.9C459.3,309.2,461.3,300.5,462.1,300.5z M462.1,308.5c-0.6,1.1-1,2.3-1.1,3.5c0.4,0,0.8-0.1,1.3-0.3
			c0.8-1,1.5-3.1,1.6-4.8c0-0.6-0.3-0.8-0.7-0.3C462.7,307.2,462.4,307.8,462.1,308.5z"/>
		<path class="st7" d="M469.9,305.7c1.2,0,2.3,0.9,2.3,1.8c0,0.9-0.2,1.9-0.6,2.8c0.9-0.8,1.6-1.8,2.1-2.9c0.1-0.3,0.6-0.1,0.5,0.2
			c-0.6,1.6-1.7,2.8-3.1,3.7c-0.7,1.2-1.8,2.1-3,2.1c-1.4,0-2.3-1.4-2.3-2.5c0-2,1-4.6,2.7-5.5C468.9,305.3,469.5,305.4,469.9,305.7
			z M467.9,312c0.4,0,0.7-0.1,1.2-0.3c0.7-1,1.3-3,1.3-4.3c0-1.3-0.7-1.4-1.4-0.6c-1.1,1.3-1.7,4.1-1.2,5.2
			C467.7,312,467.8,312,467.9,312z"/>
		<path class="st7" d="M476,311.3c0,0,0-0.1,0-0.1c-0.6,1.2-1.3,2.3-2.2,2.3c-0.8,0-1.5-0.8-1.4-1.4c0-0.3,0.1-0.5,0.1-0.8
			c0.3-1.9,0.9-4,1.5-5.6c0.1-0.2,0.2-0.3,0.3-0.3c0.4,0,1,0.4,1.3,0.6c0.2,0.2,0,0.4-0.1,0.6c-0.6,1.6-1.1,3.6-1.4,5
			c-0.1,0.5,0,0.7,0.3,0.7c1,0,2.4-4.4,2.7-5.3c0.2-0.5,0.3-0.9,0.5-1.4c0.1-0.2,0.2-0.3,0.3-0.3c0.4,0,1,0.4,1.3,0.6
			c0.2,0.2,0,0.4-0.1,0.6c-0.7,1.8-1.3,4.1-1.5,5.5c-0.1,0.3,0.1,0.3,0.3,0.1c1.2-1.2,2.1-3.6,2.6-4.9c0.1-0.3,0.6-0.1,0.5,0.2
			c-0.5,1.3-2.3,5.8-4,5.8c-0.7,0-1.2-0.7-1.1-1.4C476,311.8,476,311.6,476,311.3z"/>
		<path class="st7" d="M483.3,303.3c-0.1,0.2-0.1,0.4-0.2,0.6c0.6,0,1.2,0.1,1.5,0.2c0.1,0.1,0.2,0.6,0.2,0.8c0,0.1,0,0.2-0.1,0.2
			c0,0,0,0-0.1,0c-0.6-0.2-1.3-0.2-1.9-0.2c-0.7,2.4-1.4,5.3-1.6,7.1c0,0.4,0,0.5,0.3,0.2c1.2-1.2,2.4-3.5,2.9-4.8
			c0.1-0.3,0.6-0.1,0.5,0.2c-0.5,1.3-2.7,5.8-4.3,5.8c-1.1,0-1.1-1.2-1-2c0.2-1.8,0.7-4.3,1.2-6.5c-0.2,0-0.3,0-0.4,0
			c-0.4,0-1.3,0-1.5-0.5c-0.1-0.2,0-0.2,0.2-0.2c0.7,0,1.3-0.1,1.9-0.2c0.1-0.5,0.3-1,0.5-1.5s0.4-0.7,0.6-0.7
			c0.4,0,1.6,0.5,1.6,0.8c0,0,0,0.1-0.1,0.1c0,0,0,0.1-0.1,0.1C483.4,302.9,483.3,303.1,483.3,303.3z"/>
		<path class="st7" d="M483.2,311.3c0.3-1.9,0.9-4,1.5-5.6c0.1-0.2,0.2-0.3,0.3-0.3c0.4,0,1,0.4,1.3,0.6c0.2,0.2,0,0.4-0.1,0.6
			c-0.7,1.8-1.3,4.1-1.5,5.5c-0.1,0.3,0.1,0.3,0.3,0.1c1.2-1.2,2.1-3.6,2.7-4.9c0.1-0.3,0.6-0.1,0.5,0.2c-0.5,1.3-2.3,5.8-4,5.8
			c-0.7,0-1.2-0.7-1.1-1.4C483.1,311.8,483.2,311.6,483.2,311.3z M486.8,301.3c0.2,0,0.8,0.3,1.2,0.5c0.3,0.2,0.3,0.5,0.1,0.8
			c-0.4,0.6-1.4,2.2-1.9,2.2c-1.1,0-0.1-2.6,0.2-3C486.5,301.5,486.7,301.3,486.8,301.3z"/>
		<path class="st7" d="M489.6,311.9c-0.5,0.9-1.2,1.5-1.9,1.5c-0.8,0-1.2-0.5-1.3-1.2c-0.3-2.2,0.9-5.6,2.8-6.7
			c0.1-0.1,0.3-0.1,0.4-0.1c0.6,0,1.1,0.3,1.6,0.6c0.2-0.3,0.3-0.5,0.4-0.5c0.4,0,1.7,0.5,1.7,0.8c0,0,0,0.1,0,0.1
			c-0.1,0.1-0.2,0.2-0.3,0.3c-0.6,1.1-1.3,3.4-1.8,5.7c1.5-1.4,2.3-2.8,3-5c0.1-0.3,0.6-0.2,0.5,0.2c-0.8,2.4-1.7,4-3.5,5.6
			c0,1.5-0.1,3.4-0.6,4.7c-0.1,0.2-0.3,0.3-0.6,0.3c-0.5,0-1.3-0.3-1.3-0.7C488.9,316.1,489.2,314,489.6,311.9z M490.7,306.3
			c-1.4,0-2.4,3.4-2.6,5.2c0,0.2-0.1,0.9,0.3,0.9c0.6,0,1.3-1.7,1.9-3.2c0.3-1.1,0.6-2.1,0.8-2.7C491,306.3,490.8,306.3,490.7,306.3
			z"/>
		<path class="st7" d="M496.9,311.3c0,0,0-0.1,0-0.1c-0.6,1.2-1.3,2.3-2.2,2.3c-0.8,0-1.5-0.8-1.4-1.4c0-0.3,0.1-0.5,0.1-0.8
			c0.3-1.9,0.9-4,1.5-5.6c0.1-0.2,0.2-0.3,0.3-0.3c0.4,0,1,0.4,1.3,0.6c0.2,0.2,0,0.4-0.1,0.6c-0.6,1.6-1.1,3.6-1.4,5
			c-0.1,0.5,0,0.7,0.3,0.7c1,0,2.4-4.4,2.7-5.3c0.2-0.5,0.3-0.9,0.5-1.4c0.1-0.2,0.2-0.3,0.3-0.3c0.4,0,1,0.4,1.3,0.6
			c0.2,0.2,0,0.4-0.1,0.6c-0.7,1.8-1.3,4.1-1.5,5.5c-0.1,0.3,0.1,0.3,0.3,0.1c1.2-1.2,2.1-3.6,2.6-4.9c0.1-0.3,0.6-0.1,0.5,0.2
			c-0.5,1.3-2.3,5.8-4,5.8c-0.7,0-1.2-0.7-1.1-1.4C496.8,311.8,496.8,311.6,496.9,311.3z"/>
		<path class="st7" d="M503.5,305.4c0.8,0,2.1,1,2.1,1.9c0,1.9-2.2,3.3-3.7,3.3c0,1.1,0.3,1.9,1.2,1.9c1.6,0,3.1-3.3,3.8-5.1
			c0.1-0.3,0.6-0.1,0.5,0.2c-0.7,2-2.3,5.8-4.6,5.8C497.9,313.4,500.6,305.4,503.5,305.4z M501.9,310.1c1.1,0,2.3-1.6,2.3-3.2
			c0-0.4-0.3-0.6-0.6-0.3C502.7,307.2,502,308.7,501.9,310.1z"/>
	</g>
</g>
<g>
	<g>
		<path class="st7" d="M435.9,388.8c-1.6,2.6-2.8,5.4-3.9,8.2c0,0.1,0,0.2-0.1,0.2c0,0.1-0.1,0.1-0.1,0.1c-0.1,0-0.3-0.2-0.4-0.4
			c-0.2-0.2-0.2-0.5-0.2-0.7c-0.3-2.3,0.1-4.5,0.3-7.2c-1.1,3-2.2,7.5-2.3,9c0,0.2-0.1,0.2-0.2,0.2c-0.5,0-1.3-0.5-1.3-0.9
			c0.1-2.9,2-9.8,3-11.6c0.2-0.3,0.3-0.4,0.4-0.4c0.4,0,1.7,0.6,1.7,0.9c0,0.1-0.1,0.1-0.1,0.2c-0.6,2.7-0.7,5.4-0.6,7.8
			c1.3-2.9,2.8-5.6,4.6-8.2c0.1-0.2,0.5-0.7,0.8-0.7c0.4,0,1.6,0.5,1.6,0.8c0,0,0,0.1-0.1,0.1c-0.1,0.1-0.2,0.2-0.2,0.3
			c-1.2,2.1-2.8,9.5-2.8,11.4c0,0.2-0.1,0.2-0.2,0.2c-0.5,0-1.3-0.4-1.3-0.9C434.5,395.4,435.2,391.6,435.9,388.8z"/>
		<path class="st7" d="M440.8,390.2c0.8,0,2.1,1,2.1,1.9c0,1.9-2.2,3.3-3.7,3.3c0,1.1,0.3,1.9,1.2,1.9c1.6,0,3.1-3.3,3.8-5.1
			c0.1-0.3,0.6-0.1,0.5,0.2c-0.7,2-2.3,5.8-4.6,5.8C435.2,398.2,437.9,390.2,440.8,390.2z M439.2,394.9c1.1,0,2.3-1.6,2.3-3.2
			c0-0.4-0.3-0.6-0.6-0.3C440,392,439.4,393.6,439.2,394.9z"/>
		<path class="st7" d="M442.8,396.5c0.3-0.5,0.8-0.7,1.4-0.7c0.4-0.1,0.9-0.1,1.3-0.1c-0.2-1.2-1.6-1.9-1.6-3.5c0-1.3,1.1-2,2.2-2
			c0.7,0,1.6,1,1.6,1.7c0,0.4-0.4,1.2-0.7,1.2c-0.4,0-1.1-0.3-1.1-0.5c0,0,0-0.1,0-0.1c0.3,0,0.6-0.5,0.6-0.9c0-0.2-0.1-0.4-0.3-0.4
			c-0.5,0-0.7,0.9-0.7,1.2c0,1.1,1.1,1.8,1.5,2.7c1.1-0.6,1.7-1.6,2.1-2.8c0.1-0.3,0.6-0.2,0.5,0.2c-0.5,1.5-1.3,2.5-2.5,3.1
			c0.2,1.8-1.7,2.8-3.2,2.8C442.8,398.4,442.3,397.3,442.8,396.5z M443.9,396.4c-0.9,0.2-0.6,1.5,0.3,1.1c0.6-0.2,1.1-0.8,1.2-1.3
			C445,396.3,444.3,396.2,443.9,396.4z"/>
		<path class="st7" d="M452.8,390.5c0.1-0.2,0.2-0.3,0.3-0.3c0.4,0,1.1,0.4,1.3,0.6c0.2,0.2,0,0.4-0.1,0.6c-0.4,1-0.7,2.1-1,3.2
			c0.7-1.5,1.8-3.4,2.7-4.2c0.1-0.1,0.2-0.1,0.4-0.1c0.2,0,0.9,0.2,1.2,0.5c0.3,0.3,0.1,0.5-0.1,0.6c-0.7,0.6-1,1.6-1.1,2.3
			c0,0.5,0.2,0.7,0.4,0.7c0.8,0,1.6-1.6,2-2.2c0.2-0.3,0.7,0,0.5,0.3c-0.4,0.7-1.3,2.3-2.2,2.6c-0.7,0.3-1.9-0.4-2-1.2
			c-0.1-0.6,0.2-1.5,0.5-2.1c0.1-0.2,0-0.1-0.1,0c-1.3,1.6-2.8,5.1-2.9,6.4c0,0.2-0.1,0.2-0.2,0.2c-0.5,0-1.3-0.5-1.3-1
			C451.3,395.2,452,392.4,452.8,390.5z"/>
		<path class="st7" d="M460.3,398.2c-4.8,0-2.1-8.1,0.7-8.1c0.8,0,2.1,1,2.1,1.9c0,1.9-2.2,3.3-3.7,3.3c0,1.1,0.3,1.9,1.2,1.9
			c1.6,0,3.1-3.3,3.8-5.1c0.1-0.3,0.6-0.1,0.5,0.2C464.2,394.4,462.6,398.2,460.3,398.2z M461.1,391.4c-0.8,0.6-1.5,2.2-1.6,3.5
			c1.1,0,2.3-1.6,2.3-3.2C461.7,391.3,461.4,391.1,461.1,391.4z M462.7,386.8c-0.2,0-0.3,0-0.3,0.1c0,0,0,0.1,0,0.2
			c0,1-0.6,1.7-1.1,2c-0.1,0,0,0.1,0.1,0.1c0.7,0,2-0.3,2.2-1.3c0.1-0.3,0-0.6-0.1-0.8C463.5,386.8,463,386.8,462.7,386.8z"/>
		<path class="st7" d="M463,396.5c0.3-0.5,0.8-0.7,1.4-0.7c0.4-0.1,0.9-0.1,1.3-0.1c-0.2-1.2-1.6-1.9-1.6-3.5c0-1.3,1.1-2,2.2-2
			c0.7,0,1.6,1,1.6,1.7c0,0.4-0.4,1.2-0.7,1.2c-0.4,0-1.1-0.3-1.1-0.5c0,0,0-0.1,0-0.1c0.3,0,0.6-0.5,0.6-0.9c0-0.2-0.1-0.4-0.3-0.4
			c-0.5,0-0.7,0.9-0.7,1.2c0,1.1,1.1,1.8,1.5,2.7c1.1-0.6,1.7-1.6,2.1-2.8c0.1-0.3,0.6-0.2,0.5,0.2c-0.5,1.5-1.3,2.5-2.5,3.1
			c0.2,1.8-1.7,2.8-3.2,2.8C463,398.4,462.5,397.3,463,396.5z M464.1,396.4c-0.9,0.2-0.6,1.5,0.3,1.1c0.6-0.2,1.1-0.8,1.2-1.3
			C465.3,396.3,464.6,396.2,464.1,396.4z"/>
		<path class="st7" d="M471.6,390.2c0.8,0,2.1,1,2.1,1.9c0,1.9-2.2,3.3-3.7,3.3c0,1.1,0.3,1.9,1.2,1.9c1.6,0,3.1-3.3,3.8-5.1
			c0.1-0.3,0.6-0.1,0.5,0.2c-0.7,2-2.3,5.8-4.6,5.8C466,398.2,468.7,390.2,471.6,390.2z M470,394.9c1.1,0,2.3-1.6,2.3-3.2
			c0-0.4-0.3-0.6-0.6-0.3C470.9,392,470.2,393.6,470,394.9z"/>
		<path class="st7" d="M475.5,390.5c0.1-0.2,0.2-0.3,0.3-0.3c0.4,0,1.1,0.4,1.3,0.6c0.2,0.2,0,0.4-0.1,0.6c-0.4,1-0.7,2.1-1,3.2
			c0.7-1.5,1.8-3.4,2.7-4.2c0.1-0.1,0.2-0.1,0.4-0.1c0.2,0,0.9,0.2,1.2,0.5c0.3,0.3,0.1,0.5-0.1,0.6c-0.7,0.6-1,1.6-1.1,2.3
			c0,0.5,0.2,0.7,0.4,0.7c0.8,0,1.6-1.6,2-2.2c0.2-0.3,0.7,0,0.5,0.3c-0.4,0.7-1.3,2.3-2.2,2.6c-0.7,0.3-1.9-0.4-2-1.2
			c-0.1-0.6,0.2-1.5,0.5-2.1c0.1-0.2,0-0.1-0.1,0c-1.3,1.6-2.8,5.1-2.9,6.4c0,0.2-0.1,0.2-0.2,0.2c-0.5,0-1.3-0.5-1.3-1
			C474,395.2,474.6,392.4,475.5,390.5z"/>
		<path class="st7" d="M486.4,391.7c-0.3,0.7-0.8,1.7-1.3,2.6c0.2,0.1,0.4,0.1,0.6,0.1c0.6-0.1,1.2-0.8,2-2.2
			c0.2-0.3,0.7-0.1,0.5,0.3c-0.8,1.6-1.6,2.3-2.4,2.5c-0.4,0.1-0.7,0-0.9-0.1c-0.6,1.1-1.3,2.2-1.9,3c-0.2,0.2-0.5,0.5-0.8,0.5
			c-0.6,0-1.7-0.5-1.7-1.1c0-2.1,0.3-4.7,0.8-6.6c0.1-0.2,0.2-0.3,0.3-0.3c0.4,0,1,0.2,1.3,0.4c0.2,0.1,0,0.4,0,0.6
			c-0.4,1.6-0.9,4.3-1,5.8c0,0.2,0,0.2,0.2,0.1c0.7-1,1.6-2.8,2.1-3.9c0-0.7,0.3-1.7,1-2.7c0.2-0.3,0.4-0.2,0.7-0.1
			C486.4,390.7,486.6,391.3,486.4,391.7z"/>
		<path class="st7" d="M490,396.1c0,0,0-0.1,0-0.1c-0.6,1.2-1.3,2.3-2.2,2.3c-0.8,0-1.2-0.5-1.3-1.2c-0.3-2.2,0.9-5.6,2.8-6.7
			c0.6-0.4,1.3,0.1,2.1,0.5c0-0.1,0.1-0.2,0.1-0.3c0.1-0.2,0.2-0.3,0.3-0.3c0.4,0,1,0.4,1.3,0.6c0.2,0.2,0,0.4-0.1,0.6
			c-0.7,1.8-1.2,4.1-1.4,5.5c-0.1,0.3,0.1,0.3,0.3,0.1c1.2-1.2,2.1-3.6,2.6-4.9c0.1-0.3,0.6-0.1,0.5,0.2c-0.5,1.3-2.2,5.8-3.9,5.8
			c-0.7,0-1.2-0.7-1.1-1.4C490,396.6,490,396.4,490,396.1z M491,391.9c0.1-0.2,0.1-0.4,0.2-0.5c-0.1-0.2-0.3-0.3-0.5-0.3
			c-1.4,0-2.4,3.4-2.6,5.2c0,0.2-0.1,0.9,0.3,0.9C489.4,397.2,490.7,392.8,491,391.9z"/>
		<path class="st7" d="M497.2,388.1c-0.1,0.2-0.1,0.4-0.2,0.6c0.6,0,1.2,0.1,1.5,0.2c0.1,0.1,0.2,0.6,0.2,0.8c0,0.1,0,0.2-0.1,0.2
			c0,0,0,0-0.1,0c-0.6-0.2-1.3-0.2-1.9-0.2c-0.7,2.4-1.4,5.3-1.6,7.1c0,0.4,0,0.5,0.3,0.2c1.2-1.2,2.4-3.5,2.9-4.8
			c0.1-0.3,0.6-0.1,0.5,0.2c-0.5,1.3-2.7,5.8-4.3,5.8c-1.1,0-1.1-1.2-1-2c0.2-1.8,0.7-4.3,1.2-6.5c-0.2,0-0.3,0-0.4,0
			c-0.4,0-1.3,0-1.5-0.5c-0.1-0.2,0-0.2,0.2-0.2c0.7,0,1.3-0.1,1.9-0.2c0.1-0.5,0.3-1,0.5-1.5s0.4-0.7,0.6-0.7
			c0.4,0,1.6,0.5,1.6,0.8c0,0,0,0.1-0.1,0.1c0,0,0,0.1-0.1,0.1C497.3,387.8,497.3,387.9,497.2,388.1z"/>
		<path class="st7" d="M497.1,396.1c0.3-1.9,0.9-4,1.5-5.6c0.1-0.2,0.2-0.3,0.3-0.3c0.4,0,1,0.4,1.3,0.6c0.2,0.2,0,0.4-0.1,0.6
			c-0.7,1.8-1.3,4.1-1.5,5.5c-0.1,0.3,0.1,0.3,0.3,0.1c1.2-1.2,2.1-3.6,2.7-4.9c0.1-0.3,0.6-0.1,0.5,0.2c-0.5,1.3-2.3,5.8-4,5.8
			c-0.7,0-1.2-0.7-1.1-1.4C497.1,396.6,497.1,396.4,497.1,396.1z M500.7,386.1c0.2,0,0.8,0.3,1.2,0.5c0.3,0.2,0.3,0.5,0.1,0.8
			c-0.4,0.6-1.4,2.2-1.9,2.2c-1.1,0-0.1-2.6,0.2-3C500.4,386.3,500.6,386.1,500.7,386.1z"/>
		<path class="st7" d="M504.5,390.5c1.2,0,2.3,0.9,2.3,1.8c0,0.9-0.2,1.9-0.6,2.8c0.9-0.8,1.6-1.8,2.1-2.9c0.1-0.3,0.6-0.1,0.5,0.2
			c-0.6,1.6-1.7,2.8-3.1,3.7c-0.7,1.2-1.8,2.1-3,2.1c-1.4,0-2.3-1.4-2.3-2.5c0-2,1-4.6,2.7-5.5C503.5,390.1,504.1,390.2,504.5,390.5
			z M502.5,396.8c0.4,0,0.7-0.1,1.2-0.3c0.7-1,1.3-3,1.3-4.3c0-1.3-0.7-1.4-1.4-0.6c-1.1,1.3-1.7,4.1-1.2,5.2
			C502.3,396.8,502.4,396.8,502.5,396.8z"/>
		<path class="st7" d="M508.7,390.5c0.1-0.2,0.2-0.3,0.3-0.3c0.4,0,1.1,0.4,1.3,0.6c0.2,0.2,0,0.4-0.1,0.6c-0.4,1-0.7,2.1-1,3.2
			c0.7-1.5,1.8-3.4,2.7-4.2c0.1-0.1,0.2-0.1,0.4-0.1c0.3,0,1.3,0.4,1.3,0.7c0,0.1,0,0.1-0.1,0.2c-0.1,0.2-0.1,0.3-0.2,0.5
			c-0.6,1.7-1.2,3.9-1.4,5.3c-0.1,0.3,0.1,0.3,0.3,0.1c1.2-1.2,2.1-3.6,2.7-4.9c0.1-0.3,0.6-0.1,0.5,0.2c-0.5,1.3-2.3,5.8-4,5.8
			c-0.7,0-1.2-0.5-1.2-1.1c0.2-1.7,0.7-4.1,1.3-5.7c-1.3,1.4-3,5.2-3.1,6.6c0,0.2-0.1,0.2-0.2,0.2c-0.5,0-1.3-0.5-1.3-1
			C507.2,395.2,507.8,392.4,508.7,390.5z"/>
		<path class="st7" d="M513.4,396.5c0.3-0.5,0.8-0.7,1.4-0.7c0.4-0.1,0.9-0.1,1.3-0.1c-0.2-1.2-1.6-1.9-1.6-3.5c0-1.3,1.1-2,2.2-2
			c0.7,0,1.6,1,1.6,1.7c0,0.4-0.4,1.2-0.7,1.2c-0.4,0-1.1-0.3-1.1-0.5c0,0,0-0.1,0-0.1c0.3,0,0.6-0.5,0.6-0.9c0-0.2-0.1-0.4-0.3-0.4
			c-0.5,0-0.7,0.9-0.7,1.2c0,1.1,1.1,1.8,1.5,2.7c1.1-0.6,1.7-1.6,2.1-2.8c0.1-0.3,0.6-0.2,0.5,0.2c-0.5,1.5-1.3,2.5-2.5,3.1
			c0.2,1.8-1.7,2.8-3.2,2.8C513.4,398.4,512.9,397.3,513.4,396.5z M514.5,396.4c-0.9,0.2-0.6,1.5,0.3,1.1c0.6-0.2,1.1-0.8,1.2-1.3
			C515.7,396.3,515,396.2,514.5,396.4z"/>
	</g>
</g>
<g>
	<g>
		<path class="st7" d="M330.7,404.1c0.3-1.9,0.9-4,1.5-5.6c0.1-0.2,0.2-0.3,0.3-0.3c0.4,0,1,0.4,1.3,0.6c0.2,0.2,0,0.4-0.1,0.6
			c-0.7,1.8-1.3,4.1-1.5,5.5c-0.1,0.3,0.1,0.3,0.3,0.1c1.2-1.2,2.1-3.6,2.7-4.9c0.1-0.3,0.6-0.1,0.5,0.2c-0.5,1.3-2.3,5.8-4,5.8
			c-0.7,0-1.2-0.7-1.1-1.4C330.6,404.6,330.6,404.3,330.7,404.1z M334.3,394c0.2,0,0.8,0.3,1.2,0.5c0.3,0.2,0.3,0.5,0.1,0.8
			c-0.4,0.6-1.4,2.2-1.9,2.2c-1.1,0-0.1-2.6,0.2-3C334,394.2,334.1,394,334.3,394z"/>
		<path class="st7" d="M335.6,398.5c0.1-0.2,0.2-0.3,0.3-0.3c0.4,0,1.1,0.4,1.3,0.6c0.2,0.2,0,0.4-0.1,0.6c-0.4,1-0.7,2.1-1,3.2
			c0.7-1.5,1.8-3.4,2.7-4.2c0.1-0.1,0.2-0.1,0.4-0.1c0.2,0,0.9,0.2,1.2,0.5c0.3,0.3,0.1,0.5-0.1,0.6c-0.7,0.6-1,1.6-1.1,2.3
			c0,0.5,0.2,0.7,0.4,0.7c0.8,0,1.6-1.6,2-2.2c0.2-0.3,0.7,0,0.5,0.3c-0.4,0.7-1.3,2.3-2.2,2.6c-0.7,0.3-1.9-0.4-2-1.2
			c-0.1-0.6,0.2-1.5,0.5-2.1c0.1-0.2,0-0.1-0.1,0c-1.3,1.6-2.8,5.1-2.9,6.4c0,0.2-0.1,0.2-0.2,0.2c-0.5,0-1.3-0.5-1.3-1
			C334,403.1,334.7,400.4,335.6,398.5z"/>
		<path class="st7" d="M343.6,400.1c0,0,0.1,0,0.1,0c0.7,0.3,1.6,0.5,2.4,0.5h0c1.9-2.5,3.8-4.9,5.7-7.1c0.2-0.2,0.4-0.1,0.7,0.1
			c0.1-0.2,0.2-0.3,0.3-0.3c0.4,0,1.8,0.5,1.8,0.8c0,0,0,0.1,0,0.1c-0.1,0.1-0.2,0.2-0.3,0.3c-1.2,2.1-2.8,9.5-2.8,11.4
			c0,0.2-0.1,0.2-0.2,0.2c-0.5,0-1.3-0.4-1.3-0.9c0-1,0.2-2.3,0.4-3.8c-1.1,0.1-2.2,0.3-3.2,0.4c-0.7,1.1-1.6,2.5-2.2,3.6
			c-0.1,0.3-0.2,0.4-0.3,0.8c0,0,0,0.1-0.1,0.1c-0.2,0.2-1.5-0.5-1.8-0.8c-0.2-0.3,0.1-0.7,0.3-0.9c0.6-0.8,1.3-1.9,1.9-2.7
			c-0.4,0-0.7-0.1-1-0.2c-0.2-0.1-0.6-1.1-0.6-1.4C343.5,400.2,343.6,400.1,343.6,400.1z M350.6,400.4c0.3-1.7,0.7-3.5,1.1-4.8
			c-1.2,1.5-2.5,3.2-3.6,4.9c0.7-0.1,1.3-0.1,2-0.1C350.3,400.3,350.5,400.4,350.6,400.4z"/>
		<path class="st7" d="M356.1,393.3c0.4,0,1.7,0.5,1.7,0.8c0,0,0,0.1,0,0.1c-0.1,0.1-0.2,0.2-0.3,0.3c-1,1.8-2.3,7.4-2.7,10.2
			c0,0.4,0,0.5,0.3,0.2c1.2-1.2,2-3.5,2.5-4.8c0.1-0.3,0.7-0.1,0.5,0.2c-0.5,1.3-2.3,5.8-4,5.8c-1.1,0-1.1-1.2-1-2
			C353.6,400.4,355.3,393.3,356.1,393.3z"/>
		<path class="st7" d="M361.8,400.1c0.2-0.3,0.7-0.1,0.5,0.2c-0.5,1.1-2.1,2.2-3.3,2.4c0.4,2,0.4,4.5-0.1,6.4
			c-0.1,0.5-0.4,1.2-0.7,1.5c-0.3,0.3-0.6,0.3-1,0.3c-0.5,0-1.3-0.3-1.3-0.7c0-0.5,0-1.1,0.1-1.7c0.4-3.8,1.3-8.2,2.5-11.7
			c0.3-0.9,0.6-1.4,0.8-1.4c0.4,0,1.7,0.5,1.7,0.8c0,0,0,0.1,0,0.1c-0.1,0.1-0.2,0.2-0.3,0.3c-0.6,1-1.2,3.3-1.8,5.5
			C360.1,402,361.4,401.1,361.8,400.1z M358.2,409.3c0.5-1.7,0.6-3.6,0.4-5.3c-0.3,1.7-0.6,3.5-0.8,5.2c-0.1,0.6,0,0.9,0,0.9
			C358,410.1,358.2,409.5,358.2,409.3z"/>
		<path class="st7" d="M362,398.5c0.1-0.2,0.2-0.3,0.3-0.3c0.4,0,1.1,0.4,1.3,0.6c0.2,0.2,0,0.4-0.1,0.6c-0.4,1-0.7,2.1-1,3.2
			c0.7-1.5,1.8-3.4,2.7-4.2c0.1-0.1,0.2-0.1,0.4-0.1c0.2,0,0.9,0.2,1.2,0.5c0.3,0.3,0.1,0.5-0.1,0.6c-0.7,0.6-1,1.6-1.1,2.3
			c0,0.5,0.2,0.7,0.4,0.7c0.8,0,1.6-1.6,2-2.2c0.2-0.3,0.7,0,0.5,0.3c-0.4,0.7-1.3,2.3-2.2,2.6c-0.7,0.3-1.9-0.4-2-1.2
			c-0.1-0.6,0.2-1.5,0.5-2.1c0.1-0.2,0-0.1-0.1,0c-1.3,1.6-2.8,5.1-2.9,6.4c0,0.2-0.1,0.2-0.2,0.2c-0.5,0-1.3-0.5-1.3-1
			C360.5,403.1,361.1,400.4,362,398.5z"/>
		<path class="st7" d="M376.2,403.9c-0.6,1.2-1.3,2.3-2.3,2.3c-1,0-1.4-0.8-1.5-1.6c-0.1-2.2,0.9-5.3,2.7-6.3c0.6-0.4,1.4,0.1,2,0.4
			c0.6-2.9,1.4-5.4,1.9-5.4c0.4,0,1.8,0.5,1.8,0.8c0,0,0,0.1-0.1,0.1c-0.1,0.1-0.2,0.2-0.2,0.3c-1,1.8-2.3,7.4-2.7,10.2
			c-0.1,0.4,0,0.5,0.3,0.2c1.2-1.2,2.1-3.5,2.6-4.8c0.1-0.3,0.6-0.1,0.5,0.2c-0.5,1.3-2.3,5.8-4,5.8c-1.1,0-1.1-1.2-1-2
			C376.2,404.1,376.2,404,376.2,403.9z M374.1,404c-0.1,0.7,0.1,1.1,0.4,1.1c0.2,0,0.5-0.2,0.7-0.6c0.5-0.7,0.9-1.7,1.2-2.7
			c0.1-0.8,0.3-1.6,0.4-2.4c-0.1-0.2-0.2-0.3-0.4-0.3C375.2,399,374.3,402.2,374.1,404z"/>
	</g>
</g>
<path class="st10" d="M428.9,280.3c-1.2,2-1.6,4.2,0.8,6.1c2.8,2.2,7.9,2.7,12.6,3.2c13.2,1.4,26.7,2.1,40.2,2.2
	c6.5,0.1,13-0.1,19.4-0.4c4.9-0.3,8.3-1.5,9.9-3.9c0.3-0.5,0.6-1,0.9-1.6c3.1-3.2,2.4-7.8,3-10.9v-0.2c0.2-0.6,0.4-1.2,0.5-1.8
	c1.1-3.7,2.6-8.2-2.6-10.7c-5.9-2.9-16.6-2.2-24-2.4l-2.2-0.1c-11.1-1-22.4-1.7-33.6-2.1c-7.2-0.3-17.1-1.2-20.8,2.1
	c-1.4,0.4-2.2,1.1-2.3,2l-1.7,18.2C429,280,429,280.2,428.9,280.3z"/>
<path class="st10" d="M429.3,354.6l1.7,18.2c0.1,0.8,0.9,1.6,2.3,2c3.7,3.4,13.5,2.4,20.8,2.1c11.3-0.4,22.5-1.1,33.6-2.1l2.2-0.1
	c7.4-0.2,18.1,0.5,24-2.4c5.2-2.5,3.7-7.1,2.6-10.7c-0.1-0.6-0.3-1.2-0.5-1.8v-0.2c-0.6-3.1,0-7.7-3-10.9c-0.3-0.5-0.6-1-0.9-1.6
	c-1.7-2.4-5-3.6-9.9-3.9c-6.4-0.3-12.9-0.5-19.4-0.4c-13.5,0.1-27,0.8-40.2,2.2c-4.7,0.5-9.8,0.9-12.6,3.2c-2.3,1.9-2,4-0.8,6.1
	C429.2,354.3,429.2,354.4,429.3,354.6z"/>
<path class="st10" d="M386,363.5l-1.7-18.2c-0.1-0.8-0.9-1.6-2.3-2c-3.7-3.4-13.5-2.4-20.8-2.1c-11.3,0.4-22.5,1.1-33.6,2.1
	l-2.2,0.1c-7.4,0.2-18.1-0.5-24,2.4c-5.2,2.5-3.7,7.1-2.6,10.7c0.1,0.6,0.3,1.2,0.5,1.8v0.2c0.6,3.1,0,7.7,3,10.9
	c0.3,0.5,0.6,1,0.9,1.6c1.7,2.4,5,3.6,9.9,3.9c6.4,0.3,12.9,0.5,19.4,0.4c13.5-0.1,27-0.8,40.2-2.2c4.7-0.5,9.8-0.9,12.6-3.2
	c2.3-1.9,2-4,0.8-6.1C386.2,363.8,386.1,363.6,386,363.5z"/>
<circle class="st13" cx="473.5" cy="360" r="15.4"/>
<circle class="st13" cx="474.5" cy="276" r="15.4"/>
<circle class="st13" cx="340.4" cy="358.4" r="15.4"/>
<polygon class="st14" points="463.5,284 479.5,286.5 483.3,266.3 467.1,265.2 "/>
<polyline class="st15" points="463.5,284 464.5,284.5 480.6,287.3 484.3,267.5 483.3,266.3 "/>
<line class="st1" x1="479.5" y1="286.5" x2="480.6" y2="287.3"/>
<path class="st2" d="M479,269.2c0.2-0.5,0.2-1.1-0.1-1.6c-0.4-0.6-1.1-0.7-1.8-0.9c-1.9-0.4-3.8-0.6-5.7-0.6c-0.9,0-1.8,0-2.7,0.1
	c-0.7,0.1-1.2,0.4-1.4,1.1c0,0.1-0.1,0.3-0.1,0.4c-0.4,0.9-0.3,2.1-0.4,2.9v0.1c0,0.2-0.1,0.3-0.1,0.5c-0.2,1-0.4,2.2,0.4,2.9
	c0.8,0.8,2.3,0.6,3.4,0.7l0.3,0c1.6,0.3,3.1,0.5,4.7,0.6c1,0.1,2.4,0.3,2.9-0.6c0.2-0.1,0.3-0.3,0.3-0.5l0.2-4.9
	C478.9,269.3,479,269.3,479,269.2z"/>
<g>
	<g class="st6">
		<path class="st7" d="M465.6,278.1c0.1-0.1,0.5-0.2,0.5-0.1c0,0,0,0,0,0c0,0,0,0.1,0,0.1c0.1,0.4,0.5,1.4,0.8,2.2
			c-0.2-0.5-0.4-1.1-0.5-1.5c-0.1-0.4-0.1-0.7-0.1-1c0-0.2,0.1-0.4,0.2-0.5c0.7-0.5,1.4,0.9,1.1,1.8c0.2,0,0.3,0,0.5,0.1
			c0.5,0.4,0.8,1.5,0.1,2c-0.1,0.1-0.3,0.2-0.5,0.1c-0.1,0-0.2-0.2-0.1-0.2c0.1,0,0.2,0,0.3-0.1c0.5-0.4-0.1-1.9-0.5-1.6
			c-0.1,0.1-0.2,0.2-0.3,0.2c-0.1,0-0.2,0-0.2-0.1c0-0.1,0.1-0.2,0.2-0.2c0.3-0.6-0.2-1.9-0.5-1.7c-0.1,0.1-0.1,0.5,0,1.1
			c0.2,0.8,0.6,1.8,0.9,2.5c0,0,0,0.1,0,0.1c-0.1,0.1-0.4,0.1-0.5,0C466.5,280.6,465.4,278.2,465.6,278.1z"/>
	</g>
	<g class="st6">
		<path class="st7" d="M469.7,278.9C469.7,278.9,469.7,278.9,469.7,278.9c0.1,0.4,0.1,0.7-0.1,0.9c-0.2,0.1-0.4,0.1-0.5-0.1
			c-0.5-0.5-0.8-1.5-0.5-2.1c0.1-0.2,0.3-0.2,0.6-0.3c0,0,0-0.1,0-0.1c0-0.1,0-0.1,0-0.1c0.1-0.1,0.3-0.1,0.4-0.1
			c0.1,0,0.1,0.1,0.1,0.2c0.2,0.5,0.5,1.2,0.7,1.5c0,0.1,0.1,0,0.1,0c0.1-0.5-0.2-1.2-0.3-1.6c0-0.1,0.1-0.1,0.2,0
			c0.1,0.4,0.5,1.7,0.1,2c-0.2,0.1-0.4,0-0.5-0.1C469.7,279.1,469.7,279,469.7,278.9z M469.1,277.8c0-0.1,0-0.1,0-0.2
			c-0.1,0-0.1,0-0.2,0c-0.3,0.2,0,1.2,0.3,1.7c0,0.1,0.2,0.2,0.2,0.2C469.7,279.3,469.2,278.1,469.1,277.8z"/>
		<path class="st7" d="M469.1,275.4c0.1-0.1,0.5-0.2,0.5-0.1c0,0,0,0,0,0c0,0,0,0.1,0,0.1c0.1,0.4,0.3,1.1,0.7,1.8
			c0-0.2-0.1-0.4-0.1-0.6c0-0.2,0-0.4,0.1-0.5c0.2-0.2,0.6,0,0.7,0.1c0.2,0.3,0.3,0.6,0.4,1c0.1-0.3,0.1-0.7,0-1.2
			c0-0.1,0.1-0.1,0.2,0c0.1,0.5,0.1,1.1-0.1,1.6c0,0.4-0.1,0.7-0.2,0.9c-0.1,0-0.2,0-0.2,0c0,0,0.1,0.1,0,0.1
			c-0.1,0.1-0.4,0.1-0.5,0C470,277.9,468.9,275.5,469.1,275.4z M470.5,277.2c0.1,0.4,0.2,0.7,0.4,1c0.1-0.1,0.2-0.2,0.3-0.3
			c0-0.4-0.2-1-0.5-1.4c-0.1-0.1-0.2-0.1-0.2,0.1C470.5,276.8,470.5,277,470.5,277.2z"/>
	</g>
	<g class="st6">
		<path class="st7" d="M472.2,274.9c0.1-0.1,0.3-0.1,0.4-0.1c0,0,0.1,0,0.1,0.1c0,0.1,0,0.1,0,0.2c0.2,0.4,0.3,0.8,0.5,1.1l0,0
			c0.1-0.4,0.1-0.9-0.1-1.4c0-0.1,0.1-0.1,0.1,0c0.2,0.6,0.1,1.2,0,1.7c0.2,0.4,0.3,0.7,0.4,1.1c0.1,0.4,0.1,0.7-0.2,1
			c-0.1,0.1-0.3,0.1-0.4,0.1c-0.3-0.1-0.4-0.4-0.4-0.7c0-0.3,0.2-0.7,0.3-0.9c-0.1-0.2-0.1-0.3-0.2-0.5c0.1,0.4,0.1,0.8-0.1,0.9
			c-0.2,0.1-0.5,0.1-0.6-0.1c0-0.1-0.1-0.1-0.1-0.2c-0.3-0.5-0.5-1.1-0.6-1.6c0-0.1,0-0.1,0-0.1c0.1-0.1,0.3-0.1,0.4-0.1
			c0.1,0,0.1,0.1,0.1,0.2c0.1,0.5,0.4,1,0.6,1.4c0.1,0.1,0.1,0.2,0.2,0.1c0.2-0.2-0.1-1.2-0.3-1.6c0,0,0-0.1,0-0.1
			c-0.1-0.1-0.1-0.3-0.1-0.4C472.1,274.9,472.1,274.9,472.2,274.9z M473.3,277.9c-0.1-0.2-0.2-0.4-0.3-0.7c-0.1,0.3-0.3,0.8-0.1,1.1
			c0.1,0.1,0.2,0.1,0.3,0.1C473.4,278.3,473.4,278.1,473.3,277.9z"/>
	</g>
	<g class="st6">
		<path class="st7" d="M473.5,276.1c0-0.2,0.1-0.3,0.2-0.4c0.1-0.1,0.2-0.2,0.3-0.3c-0.3-0.2-0.7-0.2-1-0.5
			c-0.2-0.3-0.1-0.7,0.1-0.9c0.2-0.1,0.6-0.1,0.7,0.1c0.1,0.1,0.1,0.3,0,0.4c-0.1,0.1-0.3,0.1-0.3,0.1c0,0,0,0,0,0
			c0.1-0.1,0-0.2,0-0.3c0-0.1-0.1-0.1-0.2,0c-0.1,0.1,0,0.3,0.1,0.4c0.2,0.2,0.6,0.2,0.8,0.4c0.1-0.3,0.1-0.7,0-1
			c0-0.1,0.1-0.1,0.2-0.1c0.2,0.4,0.1,0.8,0,1.2c0.4,0.4,0.1,1-0.2,1.2C473.8,276.6,473.5,276.4,473.5,276.1z M473.7,275.9
			c-0.2,0.2,0.1,0.4,0.3,0.2c0.1-0.1,0.1-0.4,0-0.5C474,275.7,473.8,275.8,473.7,275.9z"/>
		<path class="st7" d="M474.9,271.9c0,0.1,0,0.1,0.1,0.2c0.1-0.1,0.3-0.2,0.4-0.2c0,0,0.2,0.1,0.2,0.2c0,0,0,0,0,0.1c0,0,0,0,0,0
			c-0.2,0.1-0.3,0.2-0.5,0.3c0.3,0.7,0.6,1.5,0.9,1.9c0.1,0.1,0.1,0.1,0.1,0c0-0.5-0.1-1.2-0.2-1.6c0-0.1,0.1-0.1,0.2,0
			c0.1,0.4,0.4,1.8,0,2.1c-0.3,0.2-0.5-0.1-0.6-0.3c0-0.1-0.1-0.1-0.1-0.2c0.1,0.5,0.1,0.9-0.1,1.1c-0.2,0.1-0.4,0-0.5-0.1
			c0-0.1-0.1-0.1-0.1-0.2c-0.3-0.5-0.5-1.1-0.6-1.6c0,0,0-0.1,0-0.1c0.1-0.1,0.3-0.1,0.4-0.1c0.1,0,0.1,0.1,0.1,0.2
			c0.2,0.5,0.4,1.2,0.6,1.6c0,0.1,0.1,0,0.1,0c0-0.3,0-0.8-0.1-1.2c-0.2-0.3-0.3-0.7-0.5-1c0,0-0.1,0.1-0.1,0.1
			c-0.2,0.2-0.5,0.3-0.6,0c-0.1-0.1-0.2-0.4-0.2-0.5c0-0.1,0-0.2,0-0.2c0.1,0,0.2-0.1,0.4-0.1c0.1,0,0.1,0.1,0.2,0.2
			c0,0.1,0,0.4,0,0.6c0.1-0.1,0.2-0.2,0.2-0.2c-0.1-0.1-0.1-0.3-0.2-0.4c0-0.1,0-0.2,0-0.3c0.1-0.1,0.5-0.2,0.5-0.1c0,0,0,0,0,0
			c0,0,0,0,0,0C474.9,271.8,474.9,271.9,474.9,271.9z"/>
		<path class="st7" d="M475.8,271.2c0,0.1,0,0.1,0.1,0.2c0.1-0.1,0.3-0.2,0.4-0.2c0,0,0.2,0.1,0.2,0.1c0,0,0,0,0,0.1c0,0,0,0,0,0
			c-0.2,0.1-0.3,0.2-0.5,0.3c0.3,0.7,0.6,1.5,0.9,1.9c0.1,0.1,0.1,0.1,0.1,0c0-0.5-0.1-1.2-0.2-1.6c0-0.1,0.1-0.1,0.2,0
			c0.1,0.4,0.4,1.8,0,2.1c-0.3,0.2-0.5-0.1-0.6-0.3c-0.3-0.5-0.6-1.1-0.9-1.7c0,0-0.1,0.1-0.1,0.1c-0.1,0.1-0.3,0.2-0.4,0.1
			c0,0,0-0.1,0-0.1c0.2-0.1,0.3-0.3,0.4-0.4c-0.1-0.1-0.1-0.3-0.2-0.4c0-0.1,0-0.2,0-0.3c0.1-0.1,0.5-0.2,0.5-0.1c0,0,0,0,0,0
			c0,0,0,0,0,0C475.8,271.1,475.8,271.2,475.8,271.2z"/>
		<path class="st7" d="M476.3,270.1c0.1,0,0.2-0.1,0.4-0.1c0.1,0,0.2,0.1,0.2,0.2c0,0.2,0.1,0.8,0,0.9c-0.3,0.2-0.5-0.6-0.5-0.7
			C476.2,270.2,476.2,270.2,476.3,270.1z M477.2,273.1c-0.3-0.5-0.5-1.1-0.6-1.6c0-0.1,0-0.1,0-0.1c0.1-0.1,0.3-0.1,0.4-0.1
			c0.1,0,0.1,0.1,0.1,0.2c0.2,0.5,0.4,1.2,0.6,1.6c0,0.1,0.1,0,0.1,0c0.1-0.5-0.1-1.2-0.3-1.6c0-0.1,0.1-0.1,0.2,0
			c0.1,0.4,0.5,1.8,0.1,2.1c-0.2,0.1-0.4,0-0.5-0.1C477.3,273.2,477.3,273.2,477.2,273.1z"/>
		<path class="st7" d="M477.4,270.9c0,0,0-0.1,0-0.1c0.1-0.1,0.3-0.1,0.4-0.1c0.1,0,0.1,0.1,0.1,0.2c0.1,0.3,0.2,0.6,0.3,0.9
			c-0.1-0.5-0.2-1.1-0.1-1.5c0,0,0-0.1,0.1-0.1c0.1-0.1,0.4-0.2,0.4-0.1c0,0,0,0,0,0.1c0,0.1,0,0.1,0,0.2c0.2,0.5,0.4,1.1,0.6,1.5
			c0,0.1,0.1,0.1,0.1,0c0.1-0.5-0.1-1.2-0.3-1.6c0-0.1,0.1-0.1,0.2,0c0.1,0.4,0.5,1.8,0.1,2.1c-0.2,0.1-0.4,0.1-0.5,0
			c-0.3-0.4-0.6-1.1-0.7-1.6c-0.1,0.6,0.2,1.8,0.5,2.1c0,0,0,0.1,0,0.1c-0.1,0.1-0.4,0.1-0.5,0C477.9,272.3,477.5,271.5,477.4,270.9
			z"/>
		<path class="st7" d="M480.2,271.6c-0.2,0.1-0.4,0.1-0.5,0c-0.4-0.5-0.8-1.5-0.5-2.1c0-0.1,0.1-0.2,0.2-0.2c0.1,0,0.2,0,0.3-0.1
			c0,0,0-0.1,0-0.1c0,0,0-0.1,0-0.1c0.1-0.1,0.3-0.1,0.4-0.1c0,0,0.1,0,0.1,0.1c0,0.1,0,0.1,0,0.1c0.1,0.4,0.3,0.8,0.5,1.2l0,0
			c0.1-0.4,0.1-0.9-0.1-1.4c0-0.1,0.1-0.1,0.1,0c0.2,0.6,0.1,1.2,0,1.7c0.2,0.4,0.3,0.7,0.4,1.1c0.1,0.4,0.1,0.7-0.2,1
			c-0.1,0.1-0.3,0.1-0.4,0.1c-0.3-0.1-0.4-0.4-0.4-0.7c0-0.3,0.2-0.7,0.3-0.9c-0.1-0.2-0.1-0.3-0.2-0.5
			C480.4,271.1,480.4,271.4,480.2,271.6z M479.9,271.1c0,0.1,0.2,0.2,0.2,0.2c0.2-0.2-0.3-1.4-0.4-1.7c0-0.1,0-0.1-0.1-0.2
			c-0.1,0-0.1,0-0.2,0C479.3,269.7,479.6,270.7,479.9,271.1z M480.9,272.1c-0.1-0.2-0.2-0.4-0.3-0.7c-0.1,0.3-0.3,0.8-0.1,1.1
			c0.1,0.1,0.2,0.1,0.3,0.1C480.9,272.5,480.9,272.3,480.9,272.1z"/>
	</g>
</g>
<path class="st16" d="M465.3,353.3l-0.2,0l-0.2,0.1l-0.2,0.1l-0.1,0.1l-0.1,0.2l-0.1,0.2l-0.1,0.2l0,0.2v10.9l0,0.2l0.1,0.2l0.1,0.2
	l0.1,0.2l0.1,0.1l0.2,0.1l0.2,0.1l0.2,0H482l0.2,0l0.2-0.1l0.2-0.1l0.1-0.1l0.1-0.2l0.1-0.2l0.1-0.2l0-0.2v-10.9l0-0.2l-0.1-0.2
	l-0.1-0.2l-0.1-0.2l-0.1-0.1l-0.2-0.1l-0.2-0.1l-0.2,0H465.3z M482,359.1v6.1h-16.7v-6.1H482z M482,354.3v2.3h-16.7v-2.3H482z"/>
<polygon class="st16" points="466.7,361.2 466.6,361.3 466.5,361.3 466.5,361.4 466.4,361.6 466.5,361.7 466.5,361.8 466.6,361.9
	466.7,362 473.4,362 473.5,361.9 473.6,361.8 473.7,361.7 473.7,361.6 473.7,361.4 473.6,361.3 473.5,361.3 473.4,361.2 "/>
<polygon class="st16" points="466.7,362.7 466.6,362.7 466.5,362.8 466.5,362.9 466.4,363 466.5,363.2 466.5,363.3 466.6,363.4
	466.7,363.4 471.3,363.4 471.4,363.4 471.4,363.3 471.5,363.2 471.5,363 471.5,362.9 471.4,362.8 471.4,362.7 471.3,362.7 "/>
<polygon class="st16" points="478.5,361.2 478.3,361.3 478.3,361.3 478.2,361.4 478.1,361.4 478.1,361.5 478,361.6 478,361.7
	478,362.2 478,362.3 478.1,362.4 478.1,362.5 478.2,362.5 478.3,362.6 478.3,362.6 478.5,362.7 478.6,362.7 480.3,362.7
	480.4,362.7 480.6,362.6 480.6,362.6 480.7,362.5 480.8,362.5 480.8,362.4 480.9,362.3 480.9,362.2 480.9,361.7 480.9,361.6
	480.8,361.5 480.8,361.4 480.7,361.4 480.6,361.3 480.6,361.3 480.4,361.2 "/>
<path class="st7" d="M339.9,370.6c-1.7-0.2-3.4-0.7-5-1.4c-0.5-0.2-1-0.7-1.5-1c-0.1,0-0.1-0.1-0.2-0.1c-1.1,0-2.1-0.3-3.1-0.6
	c-0.9-0.3-1.7-0.8-2.3-1.4c-0.3-0.3-0.4-0.7-0.6-1c-0.1-0.3,0-0.5,0.3-0.6c0.7-0.4,1.4-0.4,2.2-0.3c0.8,0.1,1.5,0.3,2.3,0.4
	c-0.3-4.8,0.6-9.3,3.9-13c-0.3-0.2-0.5-0.4-0.8-0.7c-0.4-0.6-0.3-1.7,0.2-2.2c0.2-0.3,0.6-0.5,1-0.4c0.2,0,0.4,0,0.5-0.2
	c0.6-0.5,1.2-0.9,2-1.2c0.7-0.2,1.4-0.2,2.1,0.1c0.9,0.3,1.6,1,2.2,1.8c0.2,0.3,0.5,0.7,0.8,1c0.1,0.1,0.1,0.1,0.2,0.1
	c0.5,0.1,0.8,0.4,0.9,0.9c0.1,0.4-0.1,0.8-0.4,1.1c-0.1,0.1-0.1,0.2-0.2,0.3c-0.2,0.5-0.3,1.1-0.5,1.6c-0.2,0.5-0.3,0.5-0.8,0.4
	c-0.1,0-0.1,0-0.2,0c0.3-0.5-0.1-0.7-0.4-0.9c-0.3-0.3-0.5-0.6-0.7-1c0.5,0.7,1.1,0.8,1.9,0.6c0.3-0.1,0.5-0.3,0.5-0.7
	c-0.5,0-0.8-0.2-1-0.7c-0.2-0.6-0.1-1.1,0.4-1.5c-0.4-0.5-0.7-1-1-1.5c-1.2-1.6-3.2-2-4.8-0.6c-0.3,0.2-0.6,0.5-0.9,0.8
	c-0.1,0.1-0.2,0.1-0.3,0.1c-0.5-0.1-1,0.1-1.2,0.6c-0.3,0.7-0.1,1.4,0.4,1.8c0.5,0.4,0.5,0.4,0.1,0.9c-0.5,0.7-0.9,1.4-1.3,2.1
	c-0.6,1.1-1.1,2.3-1.4,3.5c-0.2,0.9-0.3,1.8-0.5,2.7c-0.2,1-0.2,2-0.1,2.9c0,0.6,0.1,1.2,0.2,1.8c0.1,0.5,0.2,0.9,0.3,1.4
	c0.3,1.2,1.1,2.2,2.2,2.7c1.3,0.6,2.6,1,3.9,1.3"/>
<path class="st7" d="M341.6,370.4c0.3,0,0.6-0.1,0.7-0.5c0.1-0.3-0.1-0.7-0.4-0.8c-0.3-0.2-0.6-0.3-1-0.4c-0.6-0.3-1.1-0.5-1.6-1
	c-0.2-0.3-0.4-0.5-0.5-0.8l0.1-0.1c0.4,0.6,0.8,1.1,1.5,1.4c0.8-0.9,1.4-2,1.7-3.2s0.4-2.4,0.7-3.6c0,0.1,0,0.1,0,0.2
	c0,0.6-0.1,1.3-0.2,1.9c-0.2,1-0.5,1.9-0.8,2.9c-0.1,0.2-0.2,0.5-0.3,0.7c-0.1,0.1-0.1,0.2,0.1,0.3c0.5,0.2,0.9,0.4,1.4,0.6
	c0.5,0.2,1,0.4,1.4,0.7c0.4,0.3,0.5,0.6,0.4,0.9c-0.1,0.4-0.5,0.6-0.9,0.6"/>
<path class="st7" d="M343.7,370c0.2,0,0.4-0.1,0.6-0.3c0.1-0.1,0-0.4-0.1-0.6c-0.2-0.2-0.4-0.5-0.7-0.6c-0.7-0.3-1.5-0.6-2.2-0.9
	l-0.6,0.8c0.5,0.2,1,0.4,1.5,0.7c0.2,0.1,0.5,0.3,0.6,0.5c0.1,0.2,0.3,0.4,0.5,0.4"/>
<path class="st7" d="M343.3,353.9l0.2-0.9c-0.3-0.1-0.5,0-0.5,0.3c0,0.1,0,0.2,0,0.3C342.9,353.8,343,353.9,343.3,353.9z"/>
<path class="st7" d="M344.3,350.1c-0.3,0.3-0.2,0.5,0.3,0.7L344.3,350.1z"/>
<path class="st7" d="M343.5,353.5L343.5,353.5l0.4-0.8C343.4,352.9,343.7,353.3,343.5,353.5z"/>
<path class="st7" d="M336.9,357.3c0.4,0.3,0.7,0.6,1.1,1c1.4,1.4,3.3,2.3,5.3,2.4c1.2,0.1,2.4-0.2,3.5-0.7c0.3-0.1,0.5-0.3,0.8-0.4
	c0.1,0,0.2-0.1,0.2-0.1l0.1,0.1c-0.1,0.1-0.3,0.2-0.4,0.3c-3.5,2-7.9,1.1-10.3-2.1C337,357.6,336.9,357.5,336.9,357.3L336.9,357.3z"
	/>
<path class="st7" d="M340.1,356.5c0.2,0.3,0.5,0.6,0.7,0.9c1.2,1.4,2.7,1.8,4.4,1.5c0.5-0.1,0.9-0.5,1.2-0.9
	c0.1-0.1,0.1-0.2,0.2-0.3c0.2,0.1,0.2,0.3,0.1,0.4c-0.7,1-1.9,1.5-3,1.3c-0.8-0.1-1.5-0.5-2.2-0.9c-0.7-0.4-1.1-1.1-1.5-1.7
	C340,356.6,340,356.6,340.1,356.5L340.1,356.5z"/>
<path class="st7" d="M348.7,356.1c-0.3,0.6-0.9,1-1.5,1.2c-0.9,0.3-1.9,0.1-2.7-0.5c-0.5-0.3-0.9-0.7-1.2-1.2c0-0.1,0-0.1,0-0.2
	c0.1,0.1,0.2,0.2,0.3,0.4c0.5,0.6,1.2,1,1.9,1.3c1.1,0.4,2.1,0,3-0.8c0.1-0.1,0.1-0.1,0.2-0.2C348.6,356.1,348.6,356.1,348.7,356.1z
	"/>
<path class="st7" d="M349.4,357.5c0,0.1-0.1,0.2-0.2,0.3c-0.4,0.3-0.8,0.7-1.2,1c-0.1,0.1-0.3,0.1-0.3,0c-0.1-0.2,0.1-0.2,0.2-0.3
	c0.4-0.3,0.8-0.6,1.2-0.9C349.2,357.5,349.3,357.5,349.4,357.5L349.4,357.5z"/>
<path class="st7" d="M342.2,353.1c0,0.3-0.2,0.5-0.5,0.6c-0.1,0.1-0.3,0.1-0.4,0.2l-1.2,0.5c0.2-0.3,0.5-0.6,0.8-0.6
	c0.4-0.1,0.7-0.3,1-0.6C342,353.2,342.1,353.2,342.2,353.1z"/>
<path class="st7" d="M336.1,350.8c-0.3-0.5-0.3-1.2-0.1-1.7C336.3,349.6,336.2,350.2,336.1,350.8z"/>
<path class="st7" d="M349.4,354.5c-0.2,0-0.3-0.2-0.2-0.3c0.3-0.5,0.7-1,1-1.5c0,0,0.1,0,0.1,0L349.4,354.5z"/>
<path class="st7" d="M341.1,350.5c-0.2-0.2-0.3-0.4-0.5-0.6c-0.2-0.1-0.5-0.1-0.8-0.1c0.2-0.3,0.8-0.3,1.1,0
	C341.2,350.1,341.3,350.3,341.1,350.5z"/>
<path class="st7" d="M347.6,357.3l1.5-0.9C348.9,356.9,348.1,357.4,347.6,357.3z"/>
<path class="st7" d="M346.4,358.8l1.1-0.9C347.5,358.3,346.9,358.9,346.4,358.8z"/>
<path class="st7" d="M349.5,357c-0.2,0.4-1,0.8-1.4,0.6L349.5,357z"/>
<path class="st7" d="M347.5,358.7c-0.2,0.4-0.6,0.7-1.1,0.7l0-0.1L347.5,358.7z"/>
<path class="st7" d="M347.9,353.4l0.1,1.4h-0.2C347.7,354.4,347.8,353.9,347.9,353.4L347.9,353.4z"/>
<path class="st17" d="M343.3,370c-0.2,0-0.4-0.1-0.5-0.4c-0.1-0.2-0.3-0.4-0.6-0.5c-0.5-0.3-1-0.5-1.5-0.7l0.6-0.8
	c0.8,0.3,1.5,0.6,2.2,0.9c0.3,0.1,0.5,0.4,0.7,0.6c0.1,0.1,0.2,0.5,0.1,0.6c-0.2,0.2-0.4,0.3-0.6,0.3"/>
<path class="st8" d="M343.3,353.9c-0.3,0-0.4-0.1-0.4-0.4c0-0.1,0-0.2,0-0.3c0-0.3,0.2-0.3,0.5-0.3L343.3,353.9z"/>
<path class="st8" d="M344.3,350.1l0.3,0.7C344.1,350.6,344,350.4,344.3,350.1z"/>
<path class="st8" d="M343.5,353.5c0.2-0.2-0.1-0.6,0.4-0.8L343.5,353.5L343.5,353.5z"/>
<path class="st18" d="M329.7,366.9c0,0,0.2-1.4,1.4-2.1"/>
<path class="st18" d="M330.7,367.2c0,0,0.2-1.4,1.4-2.1"/>
<path class="st18" d="M328.5,366.7c0,0,0.2-1.6,1.7-2.3"/>
<path class="st18" d="M328,364.4c0,0,2.2-0.1,4.6,1.7"/>
<path class="st18" d="M327.7,365c0,0,2.2-0.1,4.5,1.8"/>
<path class="st18" d="M327.8,365.7c0,0,1.7-0.1,3.5,1.4"/>
<path class="st18" d="M328.2,365.9c0,0,0.1-1.1,1.1-1.7"/>
<path class="st18" d="M331.5,367.5c0,0,0.1-1.1,1.1-1.7"/>
</svg>
