<?xml version="1.0"?>
<svg style="enable-background:new 0 0 512 512;" height="512px" id="Layer_1" version="1.1" viewBox="0 0 512 512" width="512px"
     x="0px" xmlns="http://www.w3.org/2000/svg" y="0px" xml:space="preserve"><g><g transform="translate(1 1)">
	<g>
		<path class="active-path"
              d="M424.813,154.307C416.28,73.24,351.427,8.387,271.213-0.147C266.093-0.147,260.973-1,255-1    c-5.973,0-11.093,0.853-16.213,0.853C158.573,9.24,93.72,74.093,85.187,154.307c-5.973,54.613,13.653,108.373,52.907,145.92    c21.333,20.48,34.987,44.373,40.107,67.413v100.693c0,5.12,3.413,8.533,8.533,8.533h12.8l15.36,20.48    C221.72,505.88,231.107,511,242.2,511h25.6c11.093,0,21.333-5.12,27.307-13.653l15.36-20.48h12.8c5.12,0,8.533-3.413,8.533-8.533    V367.64c4.267-23.04,18.773-46.933,40.107-67.413C411.16,261.827,430.787,208.92,424.813,154.307z M220.867,212.333H203.8    c-9.387,0-17.067-7.68-17.067-17.067s7.68-17.067,17.067-17.067s17.067,7.68,17.067,17.067V212.333z M272.067,357.4h-34.133v-128    h34.133V357.4z M314.733,374.467v17.067h-25.6c-5.12,0-8.533,3.413-8.533,8.533c0,5.12,3.413,8.533,8.533,8.533h25.6v17.067h-51.2    c-5.12,0-8.533,3.413-8.533,8.533s3.413,8.533,8.533,8.533h51.2V459.8H306.2H203.8h-8.533v-17.067h25.6    c5.12,0,8.533-3.413,8.533-8.533s-3.413-8.533-8.533-8.533h-25.6V408.6h51.2c5.12,0,8.533-3.413,8.533-8.533    c0-5.12-3.413-8.533-8.533-8.533h-51.2v-17.067H314.733z M281.453,487.107c-3.413,4.267-8.533,6.827-13.653,6.827h-25.6    c-5.12,0-10.24-2.56-13.653-6.827l-7.68-10.24h68.267L281.453,487.107z M359.96,287.427    c-21.333,21.333-36.693,45.227-43.52,69.973h-27.307v-128H306.2c18.773,0,34.133-15.36,34.133-34.133    c0-18.773-15.36-34.133-34.133-34.133c-18.773,0-34.133,15.36-34.133,34.133v17.067h-34.133v-17.067    c0-18.773-15.36-34.133-34.133-34.133s-34.133,15.36-34.133,34.133c0,18.773,15.36,34.133,34.133,34.133h17.067v128H193.56    c-6.827-24.747-22.187-48.64-43.52-69.973c-35.84-34.133-52.907-81.92-47.787-131.413c8.533-72.533,66.56-130.56,139.093-139.093    c4.267,0,8.533-0.853,13.653-0.853c5.12,0,9.387,0.853,13.653,0.853c72.533,8.533,131.413,66.56,139.093,139.093    C412.867,205.507,395.8,253.293,359.96,287.427z M289.133,212.333v-17.067c0-9.387,7.68-17.067,17.067-17.067    c9.387,0,17.067,7.68,17.067,17.067s-7.68,17.067-17.067,17.067H289.133z" fill="#2FBCD3"/>
	</g>
</g></g> </svg>
