<?xml version="1.0"?>
<svg xmlns="http://www.w3.org/2000/svg" xmlns:xlink="http://www.w3.org/1999/xlink" version="1.1" id="Layer_1" x="0px" y="0px" viewBox="0 0 512 512" style="enable-background:new 0 0 512 512;" xml:space="preserve" width="512px" height="512px"><g><g>
	<g>
		<path d="M139.13,105.739H116.87c-22.204,0-40.859,14.619-47.407,34.664C30.096,147.099,0,181.362,0,222.609    c0,41.247,30.096,75.51,69.463,82.206c6.548,20.045,25.203,34.664,47.407,34.664h22.261c20.186,0,40.717,0.963,61.217,2.71    v-239.16C179.848,104.775,159.317,105.739,139.13,105.739z M66.783,269.836c-19.435-6.891-33.391-25.461-33.391-47.228    s13.956-40.337,33.391-47.229V269.836z" data-original="#000000" class="active-path" data-old_color="#000000" fill="#C1C0C0"/>
	</g>
</g><g>
	<g>
		<path d="M227.173,448.956l-11.961-71.751c-25.366-2.785-50.991-4.335-76.082-4.335H116.87c-1.124,0-2.217-0.125-3.331-0.169    l15.559,91.995c4.087,24.185,24.859,41.739,49.38,41.739C208.984,506.435,232.185,479.016,227.173,448.956z" data-original="#000000" class="active-path" data-old_color="#000000" fill="#C1C0C0"/>
	</g>
</g><g>
	<g>
		<path d="M478.609,5.565c-18.442,0-33.391,14.949-33.391,33.391v367.304c0,18.442,14.949,33.391,33.391,33.391    S512,424.703,512,406.261V38.957C512,20.515,497.051,5.565,478.609,5.565z" data-original="#000000" class="active-path" data-old_color="#000000" fill="#C1C0C0"/>
	</g>
</g><g>
	<g>
		<path d="M233.739,99.385v246.447c79.481,10.338,119.878,26.156,178.087,46.119V53.266    C354.042,73.081,313.55,89.005,233.739,99.385z" data-original="#000000" class="active-path" data-old_color="#000000" fill="#C1C0C0"/>
	</g>
</g></g> </svg>
