<?xml version="1.0"?>
<svg class="" height="512px" viewBox="-51 -21 682 682.66669" width="512px" xmlns="http://www.w3.org/2000/svg">
    <g>
        <path class="active-path" d="m313.585938 137.730469h-18.75v-18.75h18.75zm-31.25 0h-18.75v-18.75h18.75zm0 0"
              data-old_color="#000000" data-original="#000000" fill="#2FBCD3"/>
        <path class="active-path"
              d="m560.097656 621.25h-543.015625v-408.40625h-18.75v427.15625h580.515625v-427.15625h-18.75zm0 0" data-old_color="#000000" data-original="#000000" fill="#2FBCD3"/>
        <path class="active-path"
              d="m164.054688 137.730469 15.25-15.253907v-107.226562l-15.25-15.25h-41.648438l-15.253906 15.25v107.226562l15.253906 15.253907zm-38.152344-114.714844 4.265625-4.265625h26.121093l4.265626 4.265625v91.695313l-4.265626 4.269531h-26.121093l-4.265625-4.269531zm0 0" data-old_color="#000000" data-original="#000000" fill="#2FBCD3"/>
        <path class="active-path"
              d="m454.773438 137.730469 15.253906-15.253907v-107.226562l-15.253906-15.25h-41.648438l-15.25 15.25v107.226562l15.25 15.253907zm-38.148438-114.714844 4.265625-4.265625h26.121094l4.265625 4.265625v91.695313l-4.265625 4.269531h-26.121094l-4.265625-4.269531zm0 0" data-old_color="#000000" data-original="#000000" fill="#2FBCD3"/>
        <path class="active-path"
              d="m485.652344 59.488281v18.75h74.445312v100.230469h-543.015625v-100.230469h74.445313v-18.75h-93.195313v137.730469h580.515625v-137.730469zm0 0" data-old_color="#000000" data-original="#000000" fill="#2FBCD3"/>
        <path class="active-path" d="m194.929688 59.488281h187.320312v18.75h-187.320312zm0 0" data-old_color="#000000"
              data-original="#000000" fill="#2FBCD3"/>
        <path class="active-path"
              d="m398.945312 247.609375-155.714843 155.710937-64.996094-64.996093-75.355469 75.355469 140.347656 140.347656 231.070313-231.0625zm-269.546874 166.070313 48.835937-48.835938 64.996094 64.996094 155.714843-155.714844 48.835938 48.839844-204.550781 204.550781zm0 0" data-old_color="#000000" data-original="#000000" fill="#2FBCD3"/>
    </g>
</svg>
