<?xml version="1.0"?>
<svg style="enable-background:new 0 0 455 455;" height="512px" id="Capa_1" version="1.1" viewBox="0 0 455 455" width="512px"
     x="0px" xmlns="http://www.w3.org/2000/svg" y="0px" xml:space="preserve"><g><g>
	<path class="active-path"
          d="M287.5,320.572h-260c-6.893,0-12.5-5.607-12.5-12.5V81.928c0-6.893,5.607-12.5,12.5-12.5h335c6.893,0,12.5,5.607,12.5,12.5   v151.144c0,4.142,3.357,7.5,7.5,7.5s7.5-3.358,7.5-7.5V81.928c0-15.164-12.337-27.5-27.5-27.5h-335   c-15.163,0-27.5,12.336-27.5,27.5v226.144c0,15.164,12.337,27.5,27.5,27.5h260c4.143,0,7.5-3.358,7.5-7.5   S291.643,320.572,287.5,320.572z" data-old_color="#000000" data-original="#000000" fill="#C1C0C0"/>
	<path class="active-path"
          d="M357.674,86.499c-2.999-2.857-7.746-2.745-10.604,0.256L203.368,237.551c-2.24,2.352-5.213,3.647-8.368,3.647   s-6.128-1.295-8.368-3.646L42.93,86.754c-2.859-2.999-7.604-3.112-10.604-0.256c-2.999,2.858-3.113,7.605-0.256,10.604   l93.078,97.674l-93.09,98.134c-2.851,3.005-2.726,7.752,0.28,10.603c1.45,1.376,3.307,2.059,5.16,2.059   c1.985,0,3.968-0.784,5.442-2.338l92.568-97.585l40.263,42.251c5.1,5.351,11.929,8.298,19.228,8.298s14.128-2.947,19.228-8.299   l40.262-42.25l56.417,59.474c1.475,1.555,3.457,2.338,5.442,2.338c1.854,0,3.71-0.683,5.16-2.059   c3.006-2.851,3.131-7.598,0.28-10.603l-56.939-60.024l93.078-97.674C360.787,94.104,360.673,89.356,357.674,86.499z" data-old_color="#000000" data-original="#000000" fill="#C1C0C0"/>
	<path class="active-path"
          d="M382.5,255.572c-39.977,0-72.5,32.523-72.5,72.5s32.523,72.5,72.5,72.5s72.5-32.523,72.5-72.5   S422.477,255.572,382.5,255.572z M382.5,385.572c-31.706,0-57.5-25.794-57.5-57.5s25.794-57.5,57.5-57.5s57.5,25.794,57.5,57.5   S414.206,385.572,382.5,385.572z" data-old_color="#000000" data-original="#000000" fill="#C1C0C0"/>
	<path class="active-path"
          d="M385.37,296.143c-2.802-1.162-6.028-0.52-8.174,1.626l-10,10c-2.929,2.929-2.929,7.678,0,10.606   c2.111,2.111,5.166,2.699,7.804,1.77v32.927c0,4.142,3.357,7.5,7.5,7.5s7.5-3.358,7.5-7.5v-50   C390,300.038,388.173,297.304,385.37,296.143z" data-old_color="#000000" data-original="#000000" fill="#C1C0C0"/>
</g></g> </svg>
