<?xml version="1.0"?>
<svg style="enable-background:new 0 0 548.176 548.176;" height="512px" id="Capa_1" version="1.1" viewBox="0 0 548.176 548.176" width="512px" x="0px"
     xmlns="http://www.w3.org/2000/svg" y="0px" xml:space="preserve"><g><g>
	<g>
		<path class="active-path"
              d="M534.754,68.238c-8.945-8.945-19.698-13.417-32.258-13.417H45.681c-12.562,0-23.313,4.471-32.264,13.417    C4.471,77.185,0,87.936,0,100.499v347.173c0,12.566,4.471,23.318,13.417,32.264c8.951,8.946,19.702,13.419,32.264,13.419h456.815    c12.56,0,23.312-4.473,32.258-13.419c8.945-8.945,13.422-19.697,13.422-32.264V100.499    C548.176,87.936,543.699,77.185,534.754,68.238z M511.627,447.679c0,2.478-0.903,4.613-2.711,6.427    c-1.807,1.8-3.949,2.703-6.42,2.703H45.681c-2.473,0-4.615-0.903-6.423-2.71c-1.807-1.813-2.712-3.949-2.712-6.427V274.088    h475.082V447.679z M511.627,164.449H36.545v-63.954c0-2.474,0.902-4.611,2.712-6.423c1.809-1.803,3.951-2.708,6.423-2.708h456.815    c2.471,0,4.613,0.901,6.42,2.708c1.808,1.812,2.711,3.949,2.711,6.423V164.449L511.627,164.449z" data-old_color="#000000" data-original="#000000" fill="#C1C0C0"/>
        <rect class="active-path" data-old_color="#000000" data-original="#000000" fill="#C1C0C0" height="36.548" width="73.089"
              x="73.092" y="383.719"/>
        <rect class="active-path" data-old_color="#000000" data-original="#000000" fill="#C1C0C0" height="36.548" width="109.634"
              x="182.728" y="383.719"/>
	</g>
</g></g> </svg>
