<?xml version="1.0" encoding="UTF-8"?>
<!-- Generator: Adobe Illustrator 22.1.0, SVG Export Plug-In . SVG Version: 6.00 Build 0)  -->
<svg version="1.1" id="Calque_1" xmlns="http://www.w3.org/2000/svg" x="0px" y="0px" viewBox="0 0 419.4 432.2"
     style="enable-background:new 0 0 419.4 432.2;" xml:space="preserve">
<style type="text/css">
	.st0{fill:none;stroke:#FFFFFF;stroke-width:0.5;stroke-linecap:round;stroke-linejoin:round;}
	.st1{fill:#616161;}
	.st2{fill:#FFFFFF;}
	.st3{fill:none;stroke:#FFFFFF;stroke-width:0.5;stroke-linecap:round;stroke-linejoin:round;stroke-miterlimit:10;}
	.st4{opacity:0.48;fill:none;stroke:#EF9486;stroke-width:19;stroke-miterlimit:10;}
	.st5{fill:#898890;}
	.st6{fill:#D8D7DA;}
	.st7{opacity:0.48;fill:#EF9486;}
	.st8{opacity:0.46;fill:#00A5C3;}
</style>
<path class="st0" d="M42.8,307.6c0,0-8.7-15.1-2.8-30.9"/>
<g>
	<path class="st1" d="M327,260.6c8.6-0.8,16.7-2,24.8-2.4c7.9-0.4,15.6,1,22.5,5.4c10,6.5,8.9,17,1.7,24.6   c-8.2,8.6-19.3,12.3-30.5,15.4c-15.2,4.2-30.7,6.1-46.4,4.6c-1.7-0.2-3.7-0.1-5.1,0.7c-11,6.1-23.2,5.8-35.2,6.4   c-10.9,0.6-21.8,1.2-32.8,1.4c-7.8,0.2-15.7-0.2-23.5-0.2c-4.8,0-9.5,0.3-14.2-1.9c-6.5-3.2-7.9-8.8-2.1-13.4   c3.2-2.5,7.3-4.3,11.2-5.5c7-2.1,14.2-3.5,21.3-5.4c8.1-2.2,14.9-6.7,20.7-12.7c1-1.1,2.2-2,3.4-2.9c0.4,0.4,0.9,0.8,1.3,1.2   c-3.3,3.9-6,8.6-9.9,11.7c-10.4,8.4-23.8,9.4-36,13.3c-1.4,0.4-3.2,0.8-4,1.8c-1.4,1.8-3.2,4.2-3.1,6.2c0.2,3,3.4,2.7,5.7,2.7   c9.8,0,19.6,0.1,29.4-0.2c10.8-0.3,21.6-0.9,32.4-1.5c6.9-0.4,13.9-1.3,20.8-1.6c7.5-0.3,12.7-4.9,18.1-9.1   c0.7-0.5,1.2-1.3,1.9-1.8c17.5-13.6,22.2-32.7,22.1-53.3c-0.1-14.6-1-29.4-3.4-43.8c-2.4-14-6.9-27.7-10.9-41.4   c-5.2-17.7-15.3-32.8-26.9-46.9c-3.4-4.2-8-7.4-12-11.1c-1.7-1.6-3.6-3-5.2-4.7c-0.5-0.6-0.3-1.8-0.5-2.7c0.8-0.1,1.8-0.4,2.4-0.1   c4.5,2.8,9.5,5.2,13.2,8.8c10.6,10.2,18.7,22.5,25.8,35.4c7.9,14.3,14.3,29.2,18.4,45.1c6.5,25.1,9.1,50.3,4.7,76.1   C326.9,259.5,327,260.1,327,260.6z"/>
	<path class="st1" d="M156.8,285c-1.2-3.3-2.2-6.2-3.3-9.1c-6.2-16.2-7.7-32.9-5.1-49.9c1-6.5,3.4-12.8,5.4-19.2   c0.3-1,1.7-1.7,2.7-2.6c0.2,1.2,0.9,2.6,0.6,3.6c-8.1,29.2-3.9,57.1,9.2,83.9c0.4,0.8,1,1.5,1.1,2.3c0.1,0.9-0.4,1.8-0.6,2.7   c-0.9-0.3-1.9-0.5-2.5-1c-0.9-0.8-1.3-2.2-2.2-3c-1.1-1-2.6-2.6-3.9-2.5c-6.2,0.3-12.4,0.6-17.9,4.2c-2.5,1.6-3.3,4-2.8,6.7   c0.6,3.1,2.3,5.5,6,5.5c9.8,0.1,19.6,0.2,29.4,0.4c1.2,0,2.4,0.6,3.6,0.8c0.1,0.4,0.1,0.8,0.2,1.2c-1.3,0.7-2.5,1.8-3.9,1.9   c-8.4,1-16.7,2.2-25.1,2.5c-4.3,0.2-8.8-1.1-13.1-2.3c-4.8-1.3-8-5.4-8.2-9.6c-0.2-4.1,3.1-9.9,7.3-11.2c6.2-2,12.7-3.3,19.1-4.8   C153.9,285.5,155,285.3,156.8,285z"/>
	<path class="st1" d="M211.3,72c0,1.5,0.3,3,0.1,4.5c-1.4,11.4,1.4,22.1,5,32.7c2.3,6.8,5.4,13.5,8.9,19.8   c6.1,10.8,14.9,19,26.7,23.2c8.7,3.1,17.8,3.3,27,2.8c1.1-0.1,2.5-0.9,2.7,1.2c0.2,1.7-0.9,2.3-2.3,2.5c-3,0.3-6,0.8-9,0.8   c-14.9-0.3-27.7-6-38.3-16.1c-7.2-6.8-11.7-15.3-15.2-24.5c-4-10.5-6.8-21.2-8.3-32.2c-0.5-4.1,0.2-8.4,0.5-12.5   c0.1-0.8,0.8-1.5,1.2-2.2C210.6,71.8,211,71.9,211.3,72z"/>
	<path class="st1" d="M265.4,85.1c5.9-5.9,8.8-13.1,9.3-21.3c0.5-7.6-3.6-12.8-9.4-16.6c-3.3-2.1-7.2-1.7-10.5,0.7   c-5.1,3.8-9.8,4.6-15.7,1.1c-4.7-2.7-10.3-4.5-15.7-5.4c-13.8-2.2-27.5-0.4-40.7,4.1c-8.7,3-12.8,10.6-16.5,18.2   c-0.5,1-1,2.1-1.5,3.2c-0.4-0.1-0.8-0.2-1.1-0.3c0.5-2.1,0.6-4.3,1.4-6.1c4.5-9.8,11.8-16.7,22.1-20.2c10-3.4,20.3-4.2,30.8-3.8   c8.6,0.3,16.7,1.8,24.7,4.8c1,0.4,2.8,0.1,3.7-0.5c11-7.8,29.3-1.2,31,15.1c0.9,8.2-0.7,16.1-5.8,22.9c-1.4,1.9-3.4,3.4-5.1,5.1   C266.1,85.7,265.7,85.4,265.4,85.1z"/>
	<path class="st1" d="M177.7,97.7c-7.4-0.1-12.3-5.6-12.1-13.5c0.2-7.5,7.1-14.5,14.4-14.4c7,0.1,11.9,6.2,11.8,14.8   C191.6,91.7,185.1,97.8,177.7,97.7z M187.7,79.2c-3.1,2.6-3.1,4.2,0,6.2C187.7,83.3,187.7,81.5,187.7,79.2z"/>
	<path class="st1" d="M205,106.2c0,4.6,0.1,9.1-2.8,13.2c-2,2.9-3.6,6.2-5.7,9.1c-1,1.4-2.6,3-4.1,3.1c-5.7,0.6-11.4,0.8-17.1,1   c-3.5,0.1-12.6-10-12.3-13.5c0-0.3,0.2-0.7,0.4-1c2.3,1.6,4.3,3.5,6.8,4.6c2.5,1.1,5.3,1.2,7.7-1.2c-3.3-6.2-6.3-12.5-2.8-20.4   c0.9,4,1.4,7.3,2.3,10.5c2,7.2,5.5,10,12.7,10.3c4.8,0.2,9.2-3.2,11.4-9.1c0.9-2.3,1.5-4.6,2.2-7   C204.2,106.1,204.6,106.2,205,106.2z M183.7,126.5c0,0.5,0,1,0.1,1.5c2.3-0.1,4.5-0.3,6.8-0.4c0-0.4,0-0.7-0.1-1.1   C188.2,126.5,186,126.5,183.7,126.5z"/>
	<path class="st1" d="M147.2,164c-4.5,0.3-8.4,0.4-12.5-1.1c-0.7-0.3-1-1.7-1.5-2.6c1-0.1,2.1-0.6,2.9-0.3   c10.7,3.6,18.9-0.5,25.9-8.2c2-2.2,4-4.4,5.7-6.9c1.5-2.3,4.8-3.2,5-1.1c0.2,2.1-0.8,3.3-1.2,3.8   C170.6,148.7,159.1,162.2,147.2,164z"/>
	<path class="st1" d="M156.9,87.6c-0.3,1.3-0.5,2.6-0.9,3.8c-4.2,12.6-1.7,23.9,5.9,34.5c0.6,0.8,0.2,2.4,0.3,3.6   c-1.2-0.1-3,0.2-3.6-0.5c-1.5-1.6-2.6-3.6-3.6-5.6c-5.3-11.1-6.7-22.3-1-33.7c0.5-1,1.3-1.8,2-2.6   C156.2,87.3,156.5,87.5,156.9,87.6z"/>
	<path class="st1" d="M265.4,75.2c-1.5-0.9-2.2-1.3-2.9-1.8c-0.4-0.3-0.5-0.9-0.9-1.2c-3.5-2.9-5.4-5.8-3.1-10.8   c0.9-1.9-0.7-5-1-7.5c-0.1-0.8,0.4-1.7,0.6-2.6c0.7,0.3,1.7,0.4,2,1c3.4,6.1,6.7,12.2,6.6,19.4C266.7,72.8,266,73.8,265.4,75.2z"/>
	<path class="st1" d="M209.3,71.9c1-2.7,1.9-5.3,3-7.9c0.2-0.5,1.3-0.6,1.9-0.9c0,0.7,0.2,1.4,0,2c-0.8,2.4-1.7,4.7-2.7,7   c-0.2,0.5-0.7,0.8-1.1,1.2C210.1,72.9,209.8,72.5,209.3,71.9z"/>
	<path class="st1" d="M219.8,63.2c-1.3,3.2-2.7,6.5-4,9.7c-0.3-0.1-0.6-0.2-0.9-0.3c-0.3-3.1,0.8-6,2.4-8.6c0.4-0.6,1.3-0.9,2-1.3   C219.6,62.9,219.7,63.1,219.8,63.2z"/>
	<path class="st1" d="M220.4,74.2c-0.4-0.5-1-0.9-0.9-1.1c0.5-2,1.2-3.9,1.9-5.9c0.1-0.2,0.8-0.3,1.2-0.2c0.1,0,0.3,0.7,0.2,1   C222.1,70,221.3,71.9,220.4,74.2z"/>
	<path class="st2" d="M187.7,79.2c0,2.4,0,4.1,0,6.2C184.6,83.3,184.6,81.7,187.7,79.2z"/>
	<path class="st2" d="M183.7,125.5c2.3,0,4.6,0,6.8,0c0,1,0,2,0.1,2.9c-2.3,0.4-4.5,0.7-6.8,1.1   C183.7,128.2,183.7,126.8,183.7,125.5z"/>
	<path class="st1" d="M220.8,75.3c0.1,1.1,0.3,2.3,0.2,3.4c-0.6,8.6,1.7,16.9,4.5,25c1.8,5.3,4.1,10.5,6.8,15.4   c4.5,8.4,10.8,15,19,18.5c6,2.6,12.3,3.1,18.5,3c0.7,0,1.7-0.6,1.9,1c0.2,1.3-0.6,1.7-1.5,1.8c-2,0.2-4.1,0.4-6.1,0.3   c-10.2-0.7-19.1-5.5-26.7-13.6c-5.1-5.4-8.5-12-11.2-19.2c-3.1-8.1-5.3-16.3-6.7-24.8c-0.5-3.1-0.1-6.4-0.1-9.5   c0-0.6,0.5-1.1,0.8-1.6C220.3,75.1,220.5,75.2,220.8,75.3z"/>
	<ellipse transform="matrix(0.1409 -0.99 0.99 0.1409 114.3118 275.5548)" class="st1" cx="215.9" cy="71.9" rx="3.7" ry="8.1"/>
	<path class="st1" d="M159.9,72.9c-0.8,0.7-1.5,1.5-2.3,1.9c-6.3,3.7-11.2,10.2-15.6,17.2c-2.9,4.5-5.5,9.6-7.7,14.8   c-3.8,9-5.6,18.8-4.3,29.3c0.9,7.7,3.5,14.5,6.4,21.1c0.3,0.8,1.2,1.5,0.2,2.5c-0.9,0.9-1.5,0.3-2-0.7c-1.1-2.1-2.2-4.1-3.1-6.3   c-4.2-11.1-4.9-22.9-2.8-35c1.4-8.1,4.6-14.9,8.4-21.4c4.3-7.3,9.1-13.8,14.4-19.4c2-2.1,4.4-3.3,6.7-4.8c0.4-0.3,1,0,1.5,0   C159.8,72.3,159.8,72.6,159.9,72.9z"/>
	<path class="st1" d="M159.3,71.4c1.7-0.4,3.3-0.8,5-1.1c0.3,0,0.7,0.7,1.1,1c-0.4,0.3-0.7,0.8-1.1,0.8c-1.5,0.4-3,0.7-4.5,0.9   c-0.3,0-0.6-0.2-0.9-0.3C159,72.3,159.2,72,159.3,71.4z"/>
	<path class="st1" d="M167,75.5c-2.1,0.4-4.2,0.7-6.3,1.1c0-0.3-0.1-0.5-0.1-0.8c1.6-1.5,3.4-1.9,5.2-1.8c0.4,0,0.9,0.6,1.3,1   C167.1,75.2,167,75.4,167,75.5z"/>
	<path class="st1" d="M161.4,80.5c0.1-0.5,0.2-1.1,0.3-1.2c1.2-0.4,2.4-0.8,3.6-1.1c0.1,0,0.4,0.5,0.5,0.8c0,0.1-0.3,0.6-0.5,0.6   C164.1,80,162.8,80.2,161.4,80.5z"/>
	<ellipse transform="matrix(0.9726 -0.2324 0.2324 0.9726 -13.3091 39.5654)" class="st1" cx="161.3" cy="76.3" rx="2.3" ry="6.6"/>
	<path class="st1" d="M148.5,147.5c-2.5,0.2-4.8,0.2-7.1-0.6c-0.4-0.2-0.6-1-0.9-1.5c0.6-0.1,1.2-0.3,1.7-0.2   c6.1,2.1,10.7-0.3,14.7-4.7c1.1-1.3,2.3-2.5,3.2-3.9c0.8-1.3,2.7-1.8,2.9-0.6c0.1,1.2-0.5,1.9-0.7,2.2   C161.8,138.8,155.2,146.5,148.5,147.5z"/>
</g>
<path class="st2" d="M175.9,125.7c2.3,0,4.6,0,6.8,0c0,0.7,0,1.5,0.1,2.2c-2.3,0.3-4.5,0.5-6.8,0.8  C175.9,127.8,175.9,126.7,175.9,125.7z"/>
<path class="st3" d="M349.1,297.9c0,0-9.8-16.9-3.7-34.2"/>
<path class="st3" d="M361.1,293.7c0,0-9.8-16.9-3.7-34.2"/>
<path class="st3" d="M336.5,306.2c0,0-10.8-19.4-2.6-39.8"/>
<path class="st3" d="M313.2,286.1c0,0,20-20.5,57.2-20"/>
<path class="st3" d="M314.4,294.9c0,0,19.8-19.5,57.2-18"/>
<path class="st3" d="M321.7,301.6c0,0,16-15.5,44.7-14.5"/>
<path class="st3" d="M324.1,302.2c0,0-7.8-13.6-2.5-27.8"/>
<path class="st3" d="M370.3,289.9c0,0-7.8-13.6-2.5-27.8"/>
<path class="st1" d="M223.6,71.3c-6.7-4-11.1,1.4-16.2,3.9c-0.5-3.5,1.3-5.8,4.9-7C217.6,66.5,221.6,67.3,223.6,71.3z"/>
<path class="st4" d="M350,295.9c-23.1,61-82,104.3-151.1,104.3c-89.2,0-161.5-72.3-161.5-161.5c0-66.9,40.7-124.3,98.6-148.8"/>
<path class="st3" d="M232.8,275.4c0,0,2.3-10.4,12-16.7"/>
<path class="st3" d="M239.8,276.6c0,0,2.3-10.4,12-16.7"/>
<path class="st3" d="M223,275.8c0,0,2.9-11.8,14.7-19"/>
<path class="st3" d="M227.9,260c0,0,13.7-2.9,27,6.4"/>
<path class="st3" d="M224.2,265.2c0,0,13.7-2.9,27,6.4"/>
<path class="st3" d="M221.5,272c0,0,12.2-3.2,23.3,3"/>
<path class="st3" d="M112.7,256.6c0,0,1.6-14,12.9-20.4"/>
<path class="st3" d="M121.7,260.1c0,0,1.6-14,12.9-20.4"/>
<path class="st3" d="M101.5,255c0,0,2-15.8,16-22.9"/>
<path class="st3" d="M96.3,232.8c0,0,21-1.4,43,16.9"/>
<path class="st3" d="M93.2,238.1c0,0,20.4-1,42.1,18"/>
<path class="st3" d="M94.6,245.3c0,0,16.4-0.6,33.1,13.9"/>
<path class="st3" d="M128.9,262.6c0,0,1.3-11.2,10.7-16.3"/>
<path class="st2" d="M310.3,138.2c1.7,0,3.4,0,5.2,0c0,0.6,0,1.2,0,1.8c-1.7,0.2-3.4,0.4-5.2,0.6C310.3,139.8,310.3,139,310.3,138.2  z"/>
<path class="st5" d="M347.2,169.1c-0.8,2.8-3.8,4.4-6.6,3.5c-2.8-0.9-4.4-3.8-3.5-6.6c0.8-2.8,3.8-4.4,6.6-3.5  C346.4,163.4,348,166.3,347.2,169.1z"/>
<path class="st6" d="M277.7,340.4c-1.3,4.2-5.7,6.5-9.9,5.3c-4.2-1.3-6.5-5.7-5.3-9.9c1.3-4.2,5.7-6.5,9.9-5.3  C276.6,331.8,278.9,336.2,277.7,340.4z"/>
<path class="st6" d="M95.9,190.5c-1.3,4.2-5.7,6.5-9.9,5.3c-4.2-1.3-6.5-5.7-5.3-9.9c1.3-4.2,5.7-6.5,9.9-5.3  C94.8,181.9,97.2,186.3,95.9,190.5z"/>
<path class="st5" d="M140.4,344.3c-0.9,2.8-3.8,4.4-6.6,3.5c-2.8-0.9-4.4-3.8-3.5-6.6c0.9-2.8,3.8-4.4,6.6-3.5  C139.6,338.5,141.2,341.5,140.4,344.3z"/>
<path class="st7" d="M339.8,177.1c4.2,1.3,8.6-1.1,9.9-5.3c1.3-4.2-1.1-8.6-5.3-9.9c-4.2-1.3-8.6,1.1-9.9,5.3  C333.3,171.4,335.6,175.9,339.8,177.1z M342.9,167c1.4,0.4,2.2,1.9,1.8,3.3c-0.4,1.4-1.9,2.2-3.3,1.8c-1.4-0.4-2.2-1.9-1.8-3.3  C340,167.4,341.5,166.6,342.9,167z"/>
<path class="st8" d="M267,348.2c5.6,1.7,11.5-1.4,13.2-7c1.7-5.6-1.4-11.5-7-13.2c-5.6-1.7-11.5,1.4-13.2,7  C258.3,340.6,261.4,346.5,267,348.2z M271.6,333c2.8,0.9,4.4,3.8,3.5,6.6c-0.9,2.8-3.8,4.4-6.6,3.5c-2.8-0.9-4.4-3.8-3.5-6.6  C265.9,333.7,268.8,332.2,271.6,333z"/>
<path class="st8" d="M91.4,178.1c-5.6-1.7-11.5,1.4-13.2,7c-1.7,5.6,1.4,11.5,7,13.2c5.6,1.7,11.5-1.4,13.2-7  C100.1,185.7,97,179.8,91.4,178.1z M86.8,193.3c-2.8-0.9-4.4-3.8-3.5-6.6s3.8-4.4,6.6-3.5c2.8,0.9,4.4,3.8,3.5,6.6  C92.5,192.6,89.6,194.1,86.8,193.3z"/>
<path class="st7" d="M137.6,335.1c-4.2-1.3-8.6,1.1-9.9,5.3c-1.3,4.2,1.1,8.6,5.3,9.9c4.2,1.3,8.6-1.1,9.9-5.3  C144.2,340.8,141.8,336.4,137.6,335.1z M134.5,345.2c-1.4-0.4-2.2-1.9-1.8-3.3s1.9-2.2,3.3-1.8c1.4,0.4,2.2,1.9,1.8,3.3  S135.9,345.7,134.5,345.2z"/>
</svg>
