<?xml version="1.0" encoding="UTF-8"?>
<!-- Generator: Adobe Illustrator 22.1.0, SVG Export Plug-In . SVG Version: 6.00 Build 0)  -->
<svg version="1.1" id="Calque_1" xmlns="http://www.w3.org/2000/svg" xmlns:xlink="http://www.w3.org/1999/xlink" x="0px" y="0px" viewBox="0 0 480.2 451.6" style="enable-background:new 0 0 480.2 451.6;" xml:space="preserve">
<style type="text/css">
	.st0{opacity:0.46;fill:none;stroke:#00A5C3;stroke-width:15;stroke-miterlimit:10;}
	.st1{fill:none;stroke:#FFFFFF;stroke-width:0.5;stroke-linecap:round;stroke-linejoin:round;stroke-miterlimit:10;}
	.st2{fill:#616161;}
	.st3{fill:#FFFFFF;}
	.st4{fill:#898890;}
	.st5{fill:#D8D7DA;}
	.st6{opacity:0.48;fill:#EF9486;}
	.st7{opacity:0.46;fill:#00A5C3;}
</style>
<path class="st0" d="M339.4,284.7c-23.1,61-82,104.3-151.1,104.3c-89.2,0-161.5-72.3-161.5-161.5c0-66.9,40.7-124.3,98.6-148.8"/>
<path class="st1" d="M222.3,264.2c0,0,2.3-10.4,12-16.7"/>
<path class="st1" d="M229.3,265.4c0,0,2.3-10.4,12-16.7"/>
<path class="st1" d="M212.5,264.6c0,0,2.9-11.8,14.7-19"/>
<path class="st1" d="M217.3,248.8c0,0,13.7-2.9,27,6.4"/>
<path class="st1" d="M213.6,254c0,0,13.7-2.9,27,6.4"/>
<path class="st1" d="M210.9,260.8c0,0,12.2-3.2,23.3,3"/>
<g>
	<path class="st2" d="M217,163.5c0.4,0.3,0.9,0.6,1.3,0.9c0.2,0.1,0.3,0.1,0.5,0.2c-1.3-2.8-2.2-6-2.5-9.6c-0.7-7.7,1.1-14.9,4-21.9   c0.6-1.5,1.2-3,1.8-4.5c-0.9,0.1-1.2,0.4-1.5,0.8c-3,4.8-4.4,10.2-5.6,15.7c-1.4,6.4-1,12.4,1,18   C216.2,163.1,216.6,163.2,217,163.5z"/>
	<path class="st2" d="M241.1,203.4c-1.1-0.1-2.2,0-3.1-0.5c-4.4-2.3-8.8-4.7-13-7.2c-0.8-0.5-1.6-2.4-1.2-2.9c1-1.6,2.1-0.3,3.2,0.4   c3.9,2.7,7.9,5.3,11.9,7.9c0.8,0.5,1.7,0.9,2.6,1.3C241.3,202.8,241.2,203.1,241.1,203.4z"/>
	<path class="st2" d="M235.9,186.3c4.7,3.5,8.8,6.6,13.3,9.9C244.2,196.7,237.1,191.5,235.9,186.3z"/>
	<path class="st2" d="M245.8,202.2c-4.5-0.3-10.6-6.2-10.2-10.2C239.1,195.5,242.4,198.8,245.8,202.2z"/>
	<path class="st2" d="M193.9,48.4c3.9-0.1,7.7,0.6,11.5,1.9c8.9,3.2,15.3,9.7,20.4,17.9c2,3.3,4.7,6.3,7.1,9.3   c0.5,0.6,1.4,0.8,2.2,0.9c4.3,0.6,7.6,3.9,8.7,8.8c0.9,3.8-1,8.4-4,10.8c-0.8,0.6-1.3,1.7-1.6,2.7c-1.6,5.1-2.7,10.3-4.7,15.2   c-2,5-2.6,4.9-7.5,3.7c-0.6-0.1-1.2-0.2-2.3-0.5c2.6-4.7-0.7-6.6-3.3-9.3c-2.6-2.7-4.7-6.1-6.6-9.7c4.5,7.1,10.8,8,17.7,5.8   c2.6-0.8,4.9-2.8,5-6.4c-4.5,0.1-7.6-1.7-9.1-6.3c-1.8-5.8-0.9-10.7,3.5-14.4c-3.3-4.9-6.4-9.8-9.8-14.3   c-11.7-15.3-30.3-19.1-45.4-6.2c-2.8,2.4-5.3,5.2-8.1,7.6c-0.8,0.7-2.3,1.4-3.1,1.1c-5.6-1.8-10.3,2.3-11.6,5.7   c-2.6,6.8-1,14,3.8,17.8c4.8,3.7,4.5,3.5,1.1,8.5c-4.4,6.5-8.5,13.2-12.3,20.2c-5.8,10.7-10.7,21.9-13.1,34   c-1.8,8.7-2.7,17.7-4.3,26.5c-1.8,9.6-1.8,19.2-1.3,28.8c0.3,5.8,1,11.6,1.9,17.4c0.6,4.5,1.5,9,2.7,13.4   c3.2,11.9,9.5,20.7,20.8,26.2c11.9,5.9,24.3,10,37,13.1c7.8,1.9,15.9,2.3,24,0.9c2.7-0.5,5.5-1,6.2-4.5c0.6-2.9-0.8-5.8-4-7.6   c-2.9-1.6-6-2.8-8.9-4.2c-5.3-2.5-10.7-4.9-14.6-9.6c-1.9-2.3-3.3-5.2-4.9-7.8c0.4-0.3,0.8-0.6,1.1-1c3.4,5.6,7.2,10.9,13.9,13.5   c7.3-9.1,13.5-19.2,16.2-31c2.6-11.5,4.1-23.3,6.1-35.2c0.1,0.6,0.5,1.2,0.4,1.8c-0.4,6.3-0.2,12.7-1.5,18.8   c-1.9,9.5-4.6,18.8-7.2,28.2c-0.7,2.4-2,4.6-3.1,6.8c-0.8,1.4-0.6,2.3,0.8,3c4.2,2,8.5,4,12.7,6.1c4.5,2.2,9.1,4.1,13.2,6.8   c3.8,2.5,4.6,5.7,3.5,9c-1.2,3.5-4.5,6.1-8.7,5.4c-5.9-1-11-0.7-16.7,2.2c-6.3,3.2-13.5,2.3-20.4,1.5c-16.4-1.8-32-6.8-47-13.7   c-5.1-2.4-9.6-6.4-14.3-9.6c-0.6-0.4-1.2-1.1-1.9-1.1c-10.3,0.2-19.8-3.2-29.5-6.3c-8.4-2.6-15.5-7.4-21.3-14   c-2.4-2.8-4-6.5-5.4-10c-0.9-2.5,0.2-4.4,2.9-6c6.6-3.9,13.5-3.5,20.5-2.7c7.3,0.9,14.5,2.6,21.7,3.9c-2.8-46.9,5.8-91,36.4-127.7   c-2.5-2.3-5.3-4.1-7.1-6.8c-4-5.8-3.1-16.3,1.4-21.6c2.5-2.9,5.4-4.6,9.2-3.8c2,0.4,3.2-0.4,4.6-1.7c5.4-5,11.3-9.3,18.3-11.5   C188.5,48.9,191.2,48.4,193.9,48.4 M210.3,252.7c-1.5,2.3-3.3,4.9-5.2,7.8c4.7,2.3,9.4,4.2,13.8,6.7c2.2,1.2,4.6,3.1,5.5,5.4   c1.1,2.6,2.6,3.2,4.8,3.4c1.5,0.2,3.1,0.7,4.4,0.3c2-0.6,4.5-1.4,5.6-3c0.7-1-0.2-4-1.2-5.4c-1.9-2.3-4.1-4.6-6.7-5.9   C224.6,258.6,217.6,255.8,210.3,252.7z M229.6,118.2c0.5-3,0.9-6.1,1.4-9.2c-2.8-0.7-4.3-0.1-4.4,2.7c0,1-0.2,1.9-0.4,2.9   C225.5,117.4,226.6,118.4,229.6,118.2z M238.9,81.3c-2.7,2.9-1.9,5.2,2.3,6.7C240.4,85.5,239.7,83.6,238.9,81.3z M231.6,114.7   c0.3,0.1,0.6,0.2,0.8,0.3c0.8-2.6,1.7-5.2,2.7-8.5C230.7,108.6,233.4,112.4,231.6,114.7z"/>
	<path class="st2" d="M169.3,151.4c3.3,3.2,6.8,6.2,10,9.5c13.9,14.2,30.8,22.1,49.9,23.9c11.5,1.1,22.6-2,33.1-7.1   c2.5-1.2,4.9-2.8,7.4-4.2c0.7-0.4,1.4-0.6,2.2-0.9c0.2,0.3,0.4,0.6,0.6,0.9c-1.4,1.1-2.6,2.5-4.1,3.4c-15.3,8.8-31.7,12.3-48.9,9.4   c-19.6-3.3-35.6-13.4-48-29.7c-1.1-1.4-1.9-3.1-2.8-4.7C168.8,151.7,169,151.6,169.3,151.4z"/>
	<path class="st2" d="M199.1,143.6c2.3,2.8,4.6,5.6,6.8,8.5c10.9,14,25.4,17.4,41.6,14.5c5-0.9,8.5-5.1,11.7-9   c0.7-0.9,1.3-1.9,2.1-2.9c2,1.1,1.7,2.5,0.7,4c-6,9.6-17.4,14.4-28.3,12.3c-7.4-1.4-14.1-4.5-20.3-8.8   c-6.1-4.3-10.4-10.5-14.4-16.9c-0.2-0.4-0.2-0.9-0.4-1.3C198.8,143.8,198.9,143.7,199.1,143.6z"/>
	<path class="st2" d="M218.9,111.1c-0.2,3.4-2.2,4.9-4.3,6.2c-1.2,0.7-2.6,1.1-3.9,1.6c-3.8,1.7-7.6,3.4-10.9,4.9   c1.1-3.1,4.2-5.2,7.8-6.1c3.8-1,6.9-2.8,9.5-5.7C217.5,111.6,218,111.5,218.9,111.1z"/>
	<path class="st2" d="M161.7,87.6c-2.7-5.3-3.4-10.8-1.1-16.8C164.2,76.4,162.4,82,161.7,87.6z"/>
	<path class="st2" d="M208.7,85.5c-1.6-1.9-3-4.3-5-5.4c-2.1-1.1-4.8-0.8-7.2-1.2c2-2.6,7-2.7,10.1-0.1   C209.6,81.5,210.3,83.6,208.7,85.5z"/>
	<path class="st2" d="M258.1,166.2c3.6-3.2,6.8-6.2,10.2-9.2C269,161.8,263.2,167.1,258.1,166.2z"/>
	<path class="st2" d="M268.9,165.6c-2,4.6-5.8,6.8-10.1,6.5c-0.1-0.3-0.3-0.5-0.4-0.8C261.7,169.5,265,167.8,268.9,165.6z"/>
	<path class="st3" d="M210.3,252.7c7.3,3.2,14.3,5.9,21,9.2c2.6,1.3,4.9,3.6,6.7,5.9c1.1,1.3,1.9,4.4,1.2,5.4   c-1.1,1.6-3.6,2.4-5.6,3c-1.3,0.4-2.9-0.1-4.4-0.3c-2.2-0.2-3.7-0.9-4.8-3.4c-0.9-2.2-3.4-4.1-5.5-5.4c-4.4-2.5-9.1-4.4-13.8-6.7   C207,257.6,208.8,254.9,210.3,252.7z"/>
	<path class="st3" d="M229.6,118.2c-3,0.2-4.1-0.9-3.4-3.6c0.2-0.9,0.4-1.9,0.4-2.9c0.1-2.8,1.6-3.4,4.4-2.7   C230.5,112.2,230,115.2,229.6,118.2z"/>
	<path class="st3" d="M238.9,81.3c0.8,2.4,1.5,4.2,2.3,6.7C237,86.5,236.2,84.2,238.9,81.3z"/>
	<path class="st3" d="M231.6,114.7c1.8-2.3-1-6.1,3.5-8.2c-1,3.2-1.9,5.9-2.7,8.5C232.2,114.9,231.9,114.8,231.6,114.7z"/>
</g>
<path class="st1" d="M102.1,245.4c0,0,1.6-14,12.9-20.4"/>
<path class="st1" d="M111.1,248.9c0,0,1.6-14,12.9-20.4"/>
<path class="st1" d="M90.9,243.8c0,0,2-15.8,16-22.9"/>
<path class="st1" d="M85.8,221.5c0,0,21-1.4,43,16.9"/>
<path class="st1" d="M82.7,226.9c0,0,20.4-1,42.1,18"/>
<path class="st1" d="M84.1,234.1c0,0,16.4-0.6,33.1,13.9"/>
<path class="st1" d="M118.3,251.4c0,0,1.3-11.2,10.7-16.3"/>
<g>
	<path class="st2" d="M414.2,233.6c6.5-0.7,12.6-1.5,18.8-1.9c6-0.3,11.8,0.8,17,4.3c7.6,5.1,6.8,13.4,1.3,19.4   c-6.2,6.8-14.7,9.7-23.1,12.2c-11.5,3.4-23.2,4.8-35.2,3.7c-1.3-0.1-2.8-0.1-3.9,0.6c-8.4,4.9-17.6,4.6-26.7,5.1   c-8.3,0.5-16.5,0.9-24.8,1.1c-5.9,0.1-11.9-0.2-17.8-0.2c-3.7,0-7.2,0.3-10.7-1.5c-4.9-2.5-6-7-1.6-10.6c2.4-2,5.5-3.4,8.5-4.3   c5.3-1.7,10.8-2.7,16.1-4.3c6.1-1.7,11.3-5.3,15.7-10c0.8-0.8,1.7-1.5,2.5-2.3c0.3,0.3,0.7,0.6,1,0.9c-2.5,3.1-4.5,6.8-7.5,9.3   c-7.9,6.6-18,7.5-27.3,10.5c-1.1,0.3-2.4,0.6-3,1.4c-1.1,1.4-2.4,3.3-2.3,4.9c0.1,2.4,2.6,2.1,4.3,2.1c7.4,0,14.8,0.1,22.3-0.2   c8.2-0.2,16.3-0.7,24.5-1.2c5.3-0.3,10.5-1,15.7-1.3c5.7-0.3,9.6-3.9,13.7-7.2c0.5-0.4,0.9-1,1.4-1.4   c13.2-10.7,16.8-25.9,16.7-42.1c-0.1-11.6-0.7-23.2-2.6-34.6c-1.8-11.1-5.2-21.9-8.3-32.7c-3.9-14-11.6-25.9-20.3-37.1   c-2.6-3.3-6-5.9-9.1-8.7c-1.3-1.2-2.8-2.4-4-3.7c-0.4-0.4-0.3-1.4-0.4-2.1c0.6,0,1.4-0.4,1.8-0.1c3.4,2.2,7.2,4.1,10,6.9   c8.1,8.1,14.1,17.8,19.5,28c6,11.3,10.8,23.1,13.9,35.6c4.9,19.8,6.9,39.8,3.5,60.1C414.1,232.7,414.2,233.2,414.2,233.6z"/>
	<path class="st2" d="M285.3,252.8c-0.9-2.6-1.7-4.9-2.5-7.2c-4.7-12.8-5.9-26-3.8-39.4c0.8-5.2,2.6-10.2,4.1-15.2   c0.2-0.8,1.3-1.4,2-2c0.2,1,0.7,2,0.5,2.9c-6.1,23.1-3,45.1,7,66.3c0.3,0.6,0.8,1.2,0.8,1.9c0.1,0.7-0.3,1.4-0.5,2.1   c-0.7-0.3-1.4-0.4-1.9-0.8c-0.7-0.7-1-1.7-1.7-2.4c-0.9-0.8-2-2-2.9-2c-4.7,0.2-9.4,0.5-13.5,3.3c-1.9,1.3-2.5,3.2-2.1,5.3   c0.5,2.5,1.8,4.3,4.5,4.4c7.4,0.1,14.8,0.2,22.2,0.3c0.9,0,1.8,0.4,2.7,0.7c0.1,0.3,0.1,0.7,0.2,1c-1,0.5-1.9,1.4-3,1.5   c-6.3,0.8-12.7,1.7-19,2c-3.3,0.1-6.7-0.9-9.9-1.8c-3.6-1-6-4.3-6.2-7.6c-0.2-3.2,2.3-7.8,5.5-8.9c4.7-1.6,9.6-2.6,14.4-3.8   C283.1,253.2,283.9,253.1,285.3,252.8z"/>
	<path class="st2" d="M310.3,217c1-0.3,2.1-0.7,3.1-0.9c8.1-1,15.1-4.9,21.8-9.3c4.3-2.9,8.4-6.2,12.2-9.9   c6.4-6.3,10.7-14,11.6-23.3c0.7-6.8-0.7-13.4-2.6-19.9c-0.2-0.8-1-1.7,0.4-2.2c1.2-0.4,1.7,0.3,2.1,1.2c0.7,2.1,1.6,4.2,2.1,6.4   c2.3,10.8,0.5,21-4.8,30.5c-3.5,6.3-8.6,11.1-14.4,15.3c-6.6,4.7-13.5,8.6-20.9,11.6c-2.7,1.1-5.8,1.3-8.7,1.8   c-0.5,0.1-1.1-0.3-1.7-0.5C310.3,217.5,310.3,217.3,310.3,217z"/>
	<path class="st2" d="M367.5,94.8c4.4-4.7,6.7-10.4,7.1-16.8c0.4-6-2.7-10.1-7.1-13.2c-2.5-1.7-5.5-1.4-8,0.6   c-3.8,3-7.4,3.6-11.9,0.9c-3.6-2.2-7.8-3.6-11.9-4.3c-10.5-1.7-20.8-0.3-30.8,3.2c-6.6,2.4-9.7,8.3-12.5,14.4   c-0.4,0.8-0.7,1.7-1.1,2.5c-0.3-0.1-0.6-0.2-0.9-0.2c0.3-1.6,0.4-3.4,1.1-4.9c3.4-7.8,9-13.2,16.7-16c7.6-2.7,15.4-3.3,23.4-3   c6.5,0.3,12.7,1.4,18.7,3.8c0.8,0.3,2.1,0.1,2.8-0.4c8.3-6.1,22.2-0.9,23.4,11.9c0.6,6.5-0.5,12.7-4.4,18.1c-1.1,1.5-2.6,2.7-3.9,4   C368,95.3,367.8,95.1,367.5,94.8z"/>
	<path class="st2" d="M301.1,104.7c-5.6-0.1-9.3-4.4-9.2-10.6c0.1-5.9,5.4-11.4,10.9-11.4c5.3,0.1,9,4.9,8.9,11.7   C311.6,100.1,306.7,104.8,301.1,104.7z M308.7,90.1c-2.4,2-2.4,3.3,0,4.9C308.7,93.4,308.7,92,308.7,90.1z"/>
	<path class="st2" d="M321.7,111.5c0,3.6,0,7.2-2.1,10.5c-1.5,2.3-2.7,4.9-4.3,7.2c-0.8,1.1-2,2.3-3.1,2.5   c-4.3,0.5-8.6,0.7-12.9,0.8c-2.6,0.1-9.5-7.9-9.3-10.6c0-0.3,0.2-0.5,0.3-0.8c1.7,1.2,3.3,2.8,5.1,3.6c1.9,0.8,4,0.9,5.8-0.9   c-2.5-4.9-4.7-9.9-2.1-16.1c0.6,3.1,1.1,5.7,1.7,8.3c1.5,5.7,4.2,7.9,9.6,8.1c3.7,0.2,6.9-2.5,8.7-7.2c0.7-1.8,1.1-3.7,1.7-5.5   C321.1,111.4,321.4,111.5,321.7,111.5z M305.6,127.5c0,0.4,0,0.8,0.1,1.2c1.7-0.1,3.4-0.2,5.2-0.3c0-0.3,0-0.6,0-0.9   C309.1,127.5,307.4,127.5,305.6,127.5z"/>
	<path class="st2" d="M278,157.1c-3.4,0.2-6.4,0.3-9.5-0.9c-0.6-0.2-0.8-1.3-1.2-2c0.7-0.1,1.6-0.5,2.2-0.2   c8.1,2.9,14.3-0.4,19.6-6.5c1.5-1.7,3.1-3.5,4.3-5.4c1.1-1.8,3.6-2.5,3.8-0.9c0.2,1.7-0.6,2.6-0.9,3   C295.8,145.1,287,155.7,278,157.1z"/>
	<path class="st2" d="M285.3,96.8c-0.2,1-0.4,2-0.7,3c-3.2,9.9-1.3,18.9,4.5,27.3c0.5,0.7,0.2,1.9,0.2,2.8c-0.9-0.1-2.3,0.2-2.7-0.4   c-1.1-1.3-2-2.8-2.7-4.4c-4-8.7-5.1-17.6-0.8-26.6c0.4-0.8,1-1.4,1.5-2.1C284.8,96.6,285.1,96.7,285.3,96.8z"/>
	<path class="st2" d="M367.6,87c-1.1-0.7-1.7-1-2.2-1.4c-0.3-0.2-0.4-0.7-0.7-0.9c-2.6-2.3-4.1-4.6-2.3-8.5c0.7-1.5-0.6-3.9-0.8-5.9   c-0.1-0.7,0.3-1.4,0.4-2.1c0.5,0.2,1.3,0.3,1.5,0.8c2.6,4.8,5.1,9.6,5,15.4C368.5,85.1,368,85.9,367.6,87z"/>
	<path class="st2" d="M317.7,213.4c-2.7,0.4-5.3,0.9-8,1.2c-0.5,0.1-1.1-0.8-1.7-1.2c0.6-0.3,1.1-0.9,1.7-1c2.4-0.4,4.7-0.7,7.1-1   c0.5-0.1,1,0.3,1.5,0.4C318.2,212.2,318,212.7,317.7,213.4z"/>
	<path class="st2" d="M265,170.9c-2.8-1.3-5.4-2.4-8-3.7c-0.5-0.2-0.6-1.3-0.8-1.9c0.8-0.2,1.6-0.8,2.2-0.6c2.5,0.5,4.9,1.1,7.3,1.9   c0.9,0.3,1.6,1.4,2.3,2.2C267.1,169.4,266.2,170,265,170.9z"/>
	<path class="st2" d="M305.6,208.4c3.3-0.4,6.7-0.8,10-1.2c0,0.3,0.1,0.6,0.1,0.9c-2.5,1.7-5.4,2.2-8.3,2c-0.7,0-1.4-0.7-2.1-1.1   C305.4,208.8,305.5,208.6,305.6,208.4z"/>
	<path class="st2" d="M263.2,172.7c-2.9,3.4-10.7,1.9-13.8-2.2c0.7-0.4,1.4-1.1,1.9-0.9C255.1,170.5,258.9,171.6,263.2,172.7z"/>
	<path class="st2" d="M259.3,159.5c0.9,0,1.7-0.1,2.4,0c1.7,0.3,3.4,0.7,5.1,1.3c0.9,0.3,1.6,0.9,2.4,1.4c-0.8,0.7-1.5,1.8-2.4,2   C263.1,164.9,260.8,163.5,259.3,159.5z"/>
	<path class="st2" d="M314.5,202.5c-0.2,0.6-0.3,1.3-0.5,1.4c-1.9,0.5-3.8,0.9-5.8,1.2c-0.2,0-0.6-0.6-0.7-0.9   c0-0.1,0.5-0.6,0.8-0.7C310.2,203.1,312.2,202.9,314.5,202.5z"/>
	<path class="st3" d="M308.7,90.1c0,1.9,0,3.3,0,4.9C306.3,93.4,306.3,92.2,308.7,90.1z"/>
	<path class="st3" d="M305.6,126.8c1.7,0,3.4,0,5.2,0c0,0.8,0,1.5,0,2.3c-1.7,0.3-3.4,0.6-5.2,0.8   C305.7,128.9,305.7,127.8,305.6,126.8z"/>
</g>
<path class="st3" d="M299.7,127c1.7,0,3.4,0,5.2,0c0,0.6,0,1.2,0,1.8c-1.7,0.2-3.4,0.4-5.2,0.6C299.8,128.6,299.8,127.8,299.7,127z"/>
<path class="st1" d="M430.9,263.1c0,0-7.4-13.4-2.8-27.1"/>
<path class="st1" d="M440,259.7c0,0-7.4-13.4-2.8-27.1"/>
<path class="st1" d="M421.4,269.6c0,0-8.2-15.3-1.9-31.5"/>
<path class="st1" d="M403.7,253.8c0,0,15.1-16.2,43.3-15.8"/>
<path class="st1" d="M404.6,260.7c0,0,15-15.4,43.3-14.2"/>
<path class="st1" d="M410.2,266c0,0,12.1-12.2,33.9-11.4"/>
<path class="st1" d="M412,266.5c0,0-5.9-10.7-1.9-22"/>
<path class="st1" d="M447,256.8c0,0-5.9-10.7-1.9-22"/>
<path class="st2" d="M335.9,84c-5.1-3.1-8.4,1.1-12.3,3.1c-0.4-2.8,1-4.6,3.7-5.5C331.3,80.2,334.4,80.8,335.9,84z"/>
<path class="st2" d="M257.8,177c0.7,0.2,1.5,0.2,2.2,0.5c5.3,2.1,10.7,2,16.1,1.5c3.5-0.3,7.1-1,10.5-2.1  c5.8-1.7,10.8-5.1,14.1-10.5c2.5-3.9,3.7-8.5,4.5-13.1c0.1-0.5-0.1-1.3,0.9-1.2c0.9,0.1,1,0.7,0.9,1.4c-0.2,1.5-0.3,3.1-0.7,4.6  c-1.9,7.4-6.1,13-12.1,17.1c-4.1,2.7-8.6,4-13.5,4.6c-5.5,0.7-10.9,0.8-16.3,0.2c-2-0.2-4-1.1-5.9-1.8c-0.4-0.1-0.6-0.6-0.9-0.9  C257.7,177.3,257.8,177.2,257.8,177z"/>
<path class="st4" d="M261.6,137.9c-0.9,2.8-3.8,4.4-6.6,3.5c-2.8-0.9-4.4-3.8-3.5-6.6s3.8-4.4,6.6-3.5  C260.9,132.2,262.5,135.1,261.6,137.9z"/>
<path class="st5" d="M267.1,309.2c-1.3,4.2-5.7,6.5-9.9,5.3c-4.2-1.3-6.5-5.7-5.3-9.9c1.3-4.2,5.7-6.5,9.9-5.3  C266,300.5,268.4,305,267.1,309.2z"/>
<path class="st5" d="M85.4,179.3c-1.3,4.2-5.7,6.5-9.9,5.3c-4.2-1.3-6.5-5.7-5.3-9.9c1.3-4.2,5.7-6.5,9.9-5.3  C84.3,170.7,86.6,175.1,85.4,179.3z"/>
<path class="st4" d="M129.8,303.1c-0.9,2.8-3.8,4.4-6.6,3.5c-2.8-0.9-4.4-3.8-3.5-6.6c0.9-2.8,3.8-4.4,6.6-3.5  C129.1,297.3,130.7,300.3,129.8,303.1z"/>
<path class="st6" d="M254.3,143.9c4.2,1.3,8.6-1.1,9.9-5.3c1.3-4.2-1.1-8.6-5.3-9.9c-4.2-1.3-8.6,1.1-9.9,5.3  C247.7,138.2,250.1,142.7,254.3,143.9z M257.3,133.8c1.4,0.4,2.2,1.9,1.8,3.3c-0.4,1.4-1.9,2.2-3.3,1.8s-2.2-1.9-1.8-3.3  C254.5,134.2,255.9,133.4,257.3,133.8z"/>
<path class="st7" d="M256.5,317c5.6,1.7,11.5-1.4,13.2-7c1.7-5.6-1.4-11.5-7-13.2c-5.6-1.7-11.5,1.4-13.2,7  C247.7,309.3,250.9,315.3,256.5,317z M261.1,301.8c2.8,0.9,4.4,3.8,3.5,6.6c-0.9,2.8-3.8,4.4-6.6,3.5c-2.8-0.9-4.4-3.8-3.5-6.6  C255.4,302.5,258.3,300.9,261.1,301.8z"/>
<path class="st7" d="M80.9,166.9c-5.6-1.7-11.5,1.4-13.2,7c-1.7,5.6,1.4,11.5,7,13.2c5.6,1.7,11.5-1.4,13.2-7  C89.6,174.5,86.4,168.6,80.9,166.9z M76.2,182.1c-2.8-0.9-4.4-3.8-3.5-6.6c0.9-2.8,3.8-4.4,6.6-3.5c2.8,0.9,4.4,3.8,3.5,6.6  S79,182.9,76.2,182.1z"/>
<path class="st6" d="M127.1,293.9c-4.2-1.3-8.6,1.1-9.9,5.3c-1.3,4.2,1.1,8.6,5.3,9.9c4.2,1.3,8.6-1.1,9.9-5.3  C133.6,299.6,131.3,295.2,127.1,293.9z M124,304c-1.4-0.4-2.2-1.9-1.8-3.3c0.4-1.4,1.9-2.2,3.3-1.8c1.4,0.4,2.2,1.9,1.8,3.3  C126.9,303.7,125.4,304.5,124,304z"/>
</svg>