<?xml version="1.0" encoding="iso-8859-1"?>
<!-- Generator: Adobe Illustrator 19.0.0, SVG Export Plug-In . SVG Version: 6.00 Build 0)  -->
<svg version="1.1" id="Capa_1" xmlns="http://www.w3.org/2000/svg" xmlns:xlink="http://www.w3.org/1999/xlink" x="0px" y="0px"
	 viewBox="0 0 424.038 424.038" style="enable-background:new 0 0 424.038 424.038;" xml:space="preserve">
<g>
	<g>
		<path d="M352.4,34.019c-32.4,0-58,26-58,58.4c0,32.4,26,58,58,58s58.4-26,58.4-58.4C410.8,59.619,384.8,34.019,352.4,34.019z
			 M352.4,137.619c-25.2,0-45.6-20.4-45.6-45.6s20.8-45.2,45.6-45.2c25.2,0,45.6,20.4,45.6,45.6
			C398,117.619,377.6,137.619,352.4,137.619z"/>
	</g>
</g>
<g>
	<g>
		<path d="M370.8,101.219c-0.4-1.2-0.4-2-1.2-3.2c-0.4-0.8-0.8-2-1.6-2.8c-0.8-0.8-1.2-1.6-2-2.4s-1.6-1.6-2.8-2
			c-0.8-0.8-2-1.2-2.8-1.6c-1.2-0.4-2-1.2-3.2-1.6c-1.2-0.4-2.4-0.8-3.2-1.2c-0.4,0-1.2-0.4-1.6-0.8c-0.4-0.4-1.2-0.4-1.6-0.8
			c-0.4-0.4-1.2-0.4-1.6-0.8c-0.4-0.4-0.8-0.8-1.2-1.2c-0.4-0.4-0.8-0.8-0.8-1.6c-0.4-0.4-0.4-1.2-0.4-1.6c0-0.8,0-1.2,0-2
			c0-0.4,0.4-1.2,0.4-1.6c0.4-0.4,0.4-1.2,0.8-1.6c0.4-0.4,0.8-0.8,1.2-1.2c0.4-0.4,1.2-0.8,2-0.8c0.8-0.4,1.2-0.4,2-0.4
			c0.4,0,0.8,0,1.2,0s0.8,0,1.2,0c0.8,0,1.2,0,2,0.4c0.8,0,1.6,0.4,2,0.4c0.4,0,1.2,0.4,1.6,0.4c0.8,0,1.2,0.4,1.6,0.4l2,0.8
			l0.4-2.4l0.8-6.4v-1.6l-1.6-0.4c-0.4,0-1.2-0.4-1.6-0.4c-0.4,0-0.8-0.4-1.6-0.4c-0.4,0-1.2-0.4-2-0.4s-1.2-0.4-2-0.4h-0.4v-5.6v-2
			h-2h-5.6h-2v2v6h-0.4c-1.2,0.4-2.4,0.8-3.6,1.6c-1.2,0.4-2,1.2-2.8,2s-1.6,1.6-2.4,2.8c-0.8,0.8-1.2,2-1.6,3.2
			c-0.4,1.2-0.8,2.4-1.2,3.6c-0.4,1.2-0.4,2.8-0.4,4s0,2,0.4,3.2c0.4,1.2,0.4,2,1.2,3.2c0.4,0.8,1.2,2,1.6,2.8
			c0.8,0.8,1.2,1.6,2,2.4c0.8,0.8,1.6,1.6,2.8,2c0.8,0.8,2,1.2,2.8,1.6c1.2,0.4,2.4,1.2,3.2,1.6c1.2,0.4,2.4,0.8,3.2,1.2
			c0.4,0,1.2,0.4,1.6,0.8c0.4,0.4,1.2,0.4,1.6,0.8c0.4,0.4,0.8,0.8,1.2,0.8c0.4,0.4,0.8,0.8,1.2,1.2c0.4,0.4,0.4,0.8,0.8,1.6
			c0,0.4,0.4,1.2,0.4,2s0,1.2,0,2c0,0.4-0.4,1.2-0.8,1.6c-0.4,0.4-0.8,0.8-1.2,1.2c-0.4,0.4-0.8,0.8-1.6,1.2
			c-0.4,0.4-1.2,0.4-1.6,0.8c-0.4,0-1.2,0.4-2,0.4c-0.4,0-0.8,0-1.6,0c-0.4,0-1.2,0-1.6,0c-0.8,0-1.6,0-2,0c-0.8,0-1.6-0.4-2-0.4
			c-0.8,0-1.6-0.4-2.4-0.8c-0.8-0.4-1.6-0.4-2.4-0.8c-0.4,0-0.8-0.4-1.2-0.4c-0.4,0-0.8-0.4-1.2-0.4l-2.4-1.2l-0.4,2.8l-0.8,7.2v1.2
			l1.2,0.4c1.6-0.4,2.4,0,3.6,0.4c0.8,0.4,2,0.8,2.8,0.8c0.8,0.4,2,0.4,3.2,0.8c1.2,0.4,2,0.4,3.2,0.4h0.8v6v2h2h5.6h2v-2v-6.4h0.4
			c1.2-0.4,2.4-0.8,3.6-1.6c1.2-0.4,2-1.2,3.2-2c0.8-0.8,1.6-1.6,2.4-2.8c0.8-0.8,1.2-2,2-3.2c0.4-1.2,0.8-2.4,1.2-3.6
			c0.4-1.2,0.4-2.4,0.4-4C371.2,103.219,371.2,102.419,370.8,101.219z"/>
	</g>
</g>
<g>
	<g>
		<path d="M324.4,158.019c-2-2.8-6.4-3.2-9.2-1.2l-64.8,51.6l-83.6-34.8c-2-0.8-4.4-0.4-6,0.8l-89.6,64c-2.8,2-3.6,6-1.6,8.8
			c1.2,2,3.2,2.8,5.2,2.8c1.2,0,2.4-0.4,3.6-1.2l86.8-62l84,34.8c2,0.8,4.8,0.4,6.4-0.8l67.6-53.6
			C326,165.219,326.4,160.819,324.4,158.019z"/>
	</g>
</g>
<g>
	<g>
		<path d="M418,377.219h-29.6v-185.2c0-3.6-2.8-6.4-6.4-6.4h-58.8c-3.6,0-6.4,2.8-6.4,6.4v185.2h-21.6v-121.2c0-3.6-2.8-6.4-6.4-6.4
			h-59.2c-3.6,0-6.4,2.8-6.4,6.4v121.2h-21.6v-130.8c0-3.6-2.8-6.4-6.4-6.4h-58.8c-3.6,0-6.4,2.8-6.4,6.4v130.8h-21.6v-93.2
			c0-3.6-2.8-6.4-6.4-6.4H42.8c-3.6,0-6.4,2.8-6.4,6.4v93.2h-30c-3.6,0-6.4,2.8-6.4,6.4c0,3.6,2.8,6.4,6.4,6.4h36h58.8h35.2h58.8
			h34.4h58.8h34.4h58.8h36c3.6,0,6.4-2.8,6.4-6.4C424.4,380.019,421.6,377.219,418,377.219z M95.2,377.219h-46v-86.8h46V377.219z
			 M188.8,377.219h-46v-124.4h46V377.219z M282,377.219h-46v-114.8h46V377.219z M375.6,377.219h-46v-178.8h46V377.219z"/>
	</g>
</g>
<g>
</g>
<g>
</g>
<g>
</g>
<g>
</g>
<g>
</g>
<g>
</g>
<g>
</g>
<g>
</g>
<g>
</g>
<g>
</g>
<g>
</g>
<g>
</g>
<g>
</g>
<g>
</g>
<g>
</g>
</svg>
