<?xml version="1.0"?>
<svg xmlns="http://www.w3.org/2000/svg" xmlns:xlink="http://www.w3.org/1999/xlink" version="1.1" id="Capa_1" x="0px" y="0px" viewBox="0 0 60 60" style="enable-background:new 0 0 60 60;" xml:space="preserve" width="512px" height="512px" class=""><g><path d="M48.937,21.001l8.993-8.095c0.258-0.229,0.406-0.561,0.406-0.906c0-0.345-0.148-0.676-0.402-0.902l-8.997-8.097H29.664V1  c0-0.553-0.448-1-1-1s-1,0.447-1,1v2.001H10.061c-1.873,0-3.396,1.523-3.396,3.396v11.206c0,1.873,1.523,3.397,3.396,3.397h17.604  V23H11.063l-8.998,8.098C1.81,31.328,1.664,31.656,1.664,32s0.146,0.672,0.402,0.903L11.063,41h16.601v18c0,0.553,0.448,1,1,1  s1-0.447,1-1V41h20.604c1.873,0,3.396-1.523,3.396-3.396V26.396c0-1.873-1.523-3.396-3.396-3.396H29.664v-1.999H48.937z" data-original="#000000" class="active-path" data-old_color="#000000" fill="#C1C0C0"/></g> </svg>
