<?xml version="1.0"?>
<svg xmlns="http://www.w3.org/2000/svg" xmlns:xlink="http://www.w3.org/1999/xlink" version="1.1" id="Layer_1" x="0px" y="0px" viewBox="0 0 496.158 496.158" style="enable-background:new 0 0 496.158 496.158;" xml:space="preserve" width="512px" height="512px" class=""><g><path style="fill:#2FBCD3" d="M248.082,0.003C111.07,0.003,0,111.061,0,248.085c0,137,111.07,248.07,248.082,248.07  c137.006,0,248.076-111.07,248.076-248.07C496.158,111.061,385.088,0.003,248.082,0.003z" data-original="#56B48C" class="active-path" data-old_color="#56B48C"/><path style="fill:#FFFFFF;" d="M319.783,325.595c-4.005-3.124-9.814-4.688-17.432-4.688h-76.465c2.44-3.71,4.834-6.885,7.178-9.521  c5.468-6.64,15.55-15.967,30.249-27.979c14.696-12.012,25.17-20.824,31.421-26.44c6.249-5.614,12.378-13.378,18.384-23.291  c6.006-9.911,9.009-20.922,9.009-33.032c0-7.713-1.442-15.161-4.321-22.339c-2.882-7.178-6.91-13.5-12.085-18.97  c-5.177-5.468-11.183-9.764-18.018-12.891c-10.547-4.688-23.291-7.031-38.232-7.031c-12.403,0-23.218,1.831-32.446,5.493  s-16.846,8.473-22.852,14.429c-6.006,5.958-10.524,12.598-13.55,19.922c-3.028,7.324-4.541,14.355-4.541,21.094  c0,5.566,1.611,9.961,4.834,13.184s7.274,4.834,12.158,4.834c5.566,0,9.789-1.758,12.671-5.273  c2.879-3.516,5.468-8.544,7.764-15.088c2.293-6.542,3.93-10.547,4.907-12.012c7.324-11.229,17.381-16.846,30.176-16.846  c6.054,0,11.646,1.369,16.772,4.102c5.127,2.735,9.178,6.569,12.158,11.499c2.978,4.933,4.468,10.524,4.468,16.772  c0,5.763-1.392,11.646-4.175,17.651s-6.837,11.865-12.158,17.578c-5.324,5.713-11.989,11.403-19.995,17.065  c-4.493,3.028-11.964,9.352-22.412,18.97c-10.451,9.62-22.169,21.167-35.156,34.644c-3.126,3.321-6.006,7.887-8.643,13.696  c-2.637,5.812-3.955,10.474-3.955,13.989c0,5.47,2.051,10.231,6.152,14.282c4.102,4.054,9.814,6.079,17.139,6.079H306.6  c6.445,0,11.254-1.659,14.429-4.98c3.172-3.319,4.761-7.372,4.761-12.158C325.789,332.97,323.786,328.722,319.783,325.595z" data-original="#FFFFFF" class=""/></g> </svg>
