<?xml version="1.0"?>
<svg xmlns="http://www.w3.org/2000/svg" xmlns:xlink="http://www.w3.org/1999/xlink" version="1.1" id="Capa_1" x="0px" y="0px" viewBox="0 0 60 60" style="enable-background:new 0 0 60 60;" xml:space="preserve" width="512px" height="512px"><g><path d="M48.014,42.889l-9.553-4.776C37.56,37.662,37,36.756,37,35.748v-3.381c0.229-0.28,0.47-0.599,0.719-0.951  c1.239-1.75,2.232-3.698,2.954-5.799C42.084,24.97,43,23.575,43,22v-4c0-0.963-0.36-1.896-1-2.625v-5.319  c0.056-0.55,0.276-3.824-2.092-6.525C37.854,1.188,34.521,0,30,0s-7.854,1.188-9.908,3.53C17.724,6.231,17.944,9.506,18,10.056  v5.319c-0.64,0.729-1,1.662-1,2.625v4c0,1.217,0.553,2.352,1.497,3.109c0.916,3.627,2.833,6.36,3.503,7.237v3.309  c0,0.968-0.528,1.856-1.377,2.32l-8.921,4.866C8.801,44.424,7,47.458,7,50.762V54c0,4.746,15.045,6,23,6s23-1.254,23-6v-3.043  C53,47.519,51.089,44.427,48.014,42.889z" data-original="#000000" class="active-path" data-old_color="#000000" fill="#C1C0C0"/></g> </svg>
