<svg xmlns="http://www.w3.org/2000/svg" width="59" height="38.994"><defs><clipPath id="a"><path data-name="Rectangle 4244" fill="#a13849" d="M0 0h59v38.994H0z"/></clipPath></defs><g data-name="Groupe 2577"><g data-name="Groupe 1677" clip-path="url(#a)" fill="#a13849"><path data-name="Tracé 37887" d="m23.999.03 35 19.457-35.092 19.508c.095-.172.134-.254.185-.331q6.161-9.4 12.332-18.8a.577.577 0 0 0 .006-.756Q30.239 9.709 24.074.284l-.119-.191a.908.908 0 0 0 .044-.064"/><path data-name="Tracé 37888" d="M12.512.048c.281.154.564.307.844.462q5.627 3.128 11.25 6.264a1.189 1.189 0 0 1 .407.37q3.963 6.023 7.917 12.053a.436.436 0 0 1 .016.565q-3.959 6.007-7.9 12.02a1.382 1.382 0 0 1-.444.438q-5.917 3.304-11.845 6.594c-.085.047-.174.083-.362.174l1.448-2.216q5.534-8.44 11.071-16.875a.608.608 0 0 0 .011-.793Q18.785 9.778 12.673.435c-.072-.109-.135-.221-.203-.338l.042-.049"/><path data-name="Tracé 37889" d="M.084 38.844 2.6 35.006q5-7.622 10-15.24a.463.463 0 0 0-.03-.6Q6.648 10.147.733 1.122A602.26 602.26 0 0 1 0 0c.185.086.282.124.373.175q5.074 2.817 10.138 5.641a1.938 1.938 0 0 1 .647.6q4.2 6.384 8.4 12.782a.453.453 0 0 1-.006.595q-4.224 6.418-8.435 12.845a1.282 1.282 0 0 1-.415.415Q5.5 35.953.3 38.835a1.484 1.484 0 0 1-.16.072l-.054-.064"/></g></g></svg>