<svg data-name="Groupe 2576" xmlns="http://www.w3.org/2000/svg" width="206.175" height="213.221"><defs><clipPath id="a"><path data-name="Rectangle 4246" fill="none" d="M0 0h206.175v213.221H0z"/></clipPath></defs><g data-name="Groupe 1679" clip-path="url(#a)"><path data-name="Tracé 37890" d="M136.118 13.452c35.407 3.428 71.368 55.137 70.021 100.14-1.606 53.569-45.626 97.982-99.31 99.58C51.273 214.826 7.7 174.524.988 124.262-7.139 63.427 36.561 21.981 69.94 13.228a116.585 116.585 0 0 1-.156 12.433c-.152 1.4-1.86 3.113-3.283 3.806-27.38 13.331-44.732 34.704-50.376 64.631-9.67 51.287 27.039 97.127 75.039 103.666 44.673 6.086 89.616-23.639 98.972-71.677 7.256-37.251-12.273-77.5-47.152-94.682-5.323-2.623-7.893-5.343-6.924-11.226a42.122 42.122 0 0 0 .058-6.73" fill="#a13849"/><path data-name="Tracé 37891" d="M103.167 138.227 45.745 80.872h38.846V0h36.649v80.719h39.5c-19.631 19.608-38.713 38.665-57.576 57.508" fill="#161615"/><path data-name="Rectangle 4245" fill="#161615" d="M44.469 154.846h117.248v6.348H44.469z"/></g></svg>