<svg xmlns="http://www.w3.org/2000/svg" width="80.926" height="66.794"><defs><clipPath id="a"><path data-name="Rectangle 5330" fill="#9e1b37" stroke="#9e1b37" d="M0 0h80.926v66.794H0z"/></clipPath></defs><g data-name="Groupe 3510"><g data-name="Groupe 3509" clip-path="url(#a)" fill="#9e1b37" stroke="#9e1b37"><path data-name="Tracé 38990" d="M29.312 50.159a5.97 5.97 0 0 1-.8 1.218c-1.661 1.679-3.382 3.3-5.047 4.974a1.3 1.3 0 0 0-.33.966c.368 2.438.785 4.868 1.2 7.3a1.745 1.745 0 0 1-.688 1.814 1.672 1.672 0 0 1-1.929.117c-2.158-1.139-4.327-2.255-6.475-3.413a1.1 1.1 0 0 0-1.2.008c-2.043 1.101-4.12 2.16-6.173 3.259A1.841 1.841 0 0 1 5 64.357c.392-2.156.734-4.32 1.126-6.476a1.756 1.756 0 0 0-.559-1.864c-1.651-1.489-3.191-3.1-4.8-4.634a1.909 1.909 0 0 1-.653-2.139 1.958 1.958 0 0 1 1.808-1.21c2.362-.321 4.724-.648 7.078-1.024a1.237 1.237 0 0 0 .749-.62c1.04-2.053 2.05-4.121 3.044-6.2a2 2 0 0 1 1.855-1.384 2.035 2.035 0 0 1 1.845 1.406c.984 2.021 2.008 4.023 2.984 6.048a1.233 1.233 0 0 0 1.1.8c2.365.294 4.723.65 7.08 1.01a1.891 1.891 0 0 1 1.66 2.087m-23.419.914c1.119 1.2 2.191 2.413 3.334 3.553a2.264 2.264 0 0 1 .686 2.16c-.078.431-.175.858-.248 1.29-.2 1.172-.384 2.347-.6 3.666 1.535-.8 2.935-1.492 4.288-2.262a2.376 2.376 0 0 1 2.552-.02c1.38.771 2.8 1.478 4.328 2.282-.282-1.652-.511-3.163-.807-4.661a2.541 2.541 0 0 1 .773-2.594c1.131-1.063 2.152-2.243 3.222-3.374a3.549 3.549 0 0 0-.453-.119c-1.435-.218-2.866-.468-4.307-.626a2.112 2.112 0 0 1-1.807-1.335c-.7-1.472-1.445-2.927-2.222-4.494-.777 1.576-1.51 3.043-2.223 4.519a2.113 2.113 0 0 1-1.742 1.313c-1.623.207-3.239.472-4.776.7"/><path data-name="Tracé 38991" d="M22.359 27.934a8.146 8.146 0 0 1-.936-.373c-2.021-1.047-4.043-2.093-6.041-3.182a1.315 1.315 0 0 0-1.434-.01c-2 1.09-4.028 2.118-6.035 3.191a1.981 1.981 0 0 1-2.243.058A1.86 1.86 0 0 1 5 25.565c.392-2.157.715-4.326 1.132-6.477a1.814 1.814 0 0 0-.594-1.932C3.929 15.7 2.422 14.128.846 12.636a1.973 1.973 0 0 1-.74-2.189A1.9 1.9 0 0 1 1.9 9.236c2.2-.283 4.393-.647 6.594-.942a1.582 1.582 0 0 0 1.431-.986c.919-2.02 1.939-3.994 2.9-5.994a1.907 1.907 0 0 1 3.624-.007c.98 2.022 2.025 4.014 2.973 6.05a1.47 1.47 0 0 0 1.3.921c2.308.316 4.611.669 6.919.986a1.746 1.746 0 0 1 1.556 1.164 1.817 1.817 0 0 1-.544 2.018 335.238 335.238 0 0 0-5.187 5.071 1.3 1.3 0 0 0-.326.965c.374 2.466.818 4.92 1.208 7.383a1.772 1.772 0 0 1-1.982 2.067M14.645 5.711c-.789 1.6-1.535 3.058-2.237 4.542a2.223 2.223 0 0 1-1.914 1.334c-1.587.194-3.166.457-4.648.677 1.13 1.194 2.234 2.412 3.4 3.569a2.2 2.2 0 0 1 .676 2.086c-.076.432-.171.86-.243 1.293-.2 1.178-.388 2.357-.61 3.712a31.78 31.78 0 0 0 3.262-1.743 3.7 3.7 0 0 1 4.679.02 31.2 31.2 0 0 0 3.217 1.715c-.266-1.615-.428-3.059-.758-4.464a2.788 2.788 0 0 1 .955-3c1.088-.986 2.043-2.119 3.058-3.19-1.535-.224-3.124-.481-4.72-.68A2.176 2.176 0 0 1 16.9 10.3c-.709-1.483-1.448-2.951-2.254-4.588"/><path data-name="Tracé 38992" d="M56.165 8.776c-7.554 0-15.108.012-22.662-.025a2.584 2.584 0 0 1-1.613-.587 1.689 1.689 0 0 1 .838-2.842 5.357 5.357 0 0 1 1.226-.1q22.209-.008 44.418 0a5.727 5.727 0 0 1 1.226.105 1.681 1.681 0 0 1 1.306 1.824 1.714 1.714 0 0 1-1.583 1.612c-.246.021-.494.008-.742.008H56.165"/><path data-name="Tracé 38993" d="M56.215 22.627H33.388c-1.476 0-2.439-1.245-1.81-2.43a2.951 2.951 0 0 1 1.268-1.027 2.612 2.612 0 0 1 1.134-.1q22.168-.006 44.335 0a5.9 5.9 0 0 1 1.308.109 1.681 1.681 0 0 1 1.275 1.857 1.717 1.717 0 0 1-1.527 1.58 7.6 7.6 0 0 1-.823.012H56.215"/><path data-name="Tracé 38994" d="M56.17 44.068h22.745c1.321 0 2.1.777 1.981 1.952a1.6 1.6 0 0 1-1.3 1.5 4.953 4.953 0 0 1-1.143.1q-22.291.007-44.583 0a5.388 5.388 0 0 1-1.063-.089 1.741 1.741 0 0 1-1.4-1.858 1.782 1.782 0 0 1 1.691-1.608c.247-.014.495 0 .742 0h22.33"/><path data-name="Tracé 38995" d="M56.151 57.92h22.745a1.807 1.807 0 0 1 1.942 1.2 1.74 1.74 0 0 1-1.388 2.286 5.842 5.842 0 0 1-1.065.076q-22.209.006-44.418 0a6.277 6.277 0 0 1-1.065-.072 1.749 1.749 0 0 1 .257-3.481c2.225-.018 4.45-.007 6.675-.007h16.317"/></g></g></svg>