<svg id="Calque_1" data-name="Calque 1" xmlns="http://www.w3.org/2000/svg" viewBox="0 0 350 300"><title>selected</title><path d="M73.38,61.55A20.06,20.06,0,0,0,76,64.82H74.85c-1,0-2,0-3.11.08a19.49,19.49,0,0,0,1.64-3.34M56.32,99.19a16.78,16.78,0,0,0,1.2,1.82,13.14,13.14,0,0,0-1.79.33c.22-.71.41-1.43.59-2.15m223.5,33,4.72,8.16.67,1.17c-2.18.58-4.19,1.16-6,1.75,1-3.2,1.1-6.79.66-11.08m-33.3.8h1.1c-.19.24-.38.47-.55.7-.17-.24-.36-.47-.55-.71m47.91,24a12.13,12.13,0,0,0,1.21,1.16,39.64,39.64,0,0,1,4.19,4.07c-2.21.91-4.26,1.77-6.16,2.61a27.63,27.63,0,0,0,.76-7.84m-46.55,3,.39,1.06q-1.12.45-2.16.9v-1.59l1.65.44.1-.81M231.76,172.6c-.11.18-.22.38-.32.57l-.37-.56h.69m-15.29,39.47H217l-.21.48-.3-.49M97.2,18C81.63,18,69.84,30.53,70,50.23c.07,7.6-1.14,13-8.4,17.74-4.18,2.75-5.36,10.54-7.16,16.29-2,6.36-2.14,13.44-4.91,19.35-3.39,7.24-8.67,13.61-14.24,22,5.17,8,7.51,16,12.75,19.12,53.46,31.33,107.43,61.78,161.13,92.7a20.32,20.32,0,0,0,10.23,3.14c3.44,0,6.89-1.15,10.73-3.48C251.47,224.18,273.27,212,295,199.71c19.8-11.23,21.45-30.73,3.87-45.44-1.82-1.53-2.81-4.1-4.07-6.26-6.21-10.68-12.34-21.42-18.66-32-.58-1-2.3-1.26-3.46-1.93C220.22,83.73,168,53.12,115.29,23.24A36.88,36.88,0,0,0,97.2,18ZM247.32,128c-5.3,0-10.85-2-17.12-5.81C181,92.55,130.94,64.49,81.06,35.75c7.6-8.9,12-12.77,17.29-12.77,4.31,0,9.2,2.58,16.88,7.1C152,51.75,189.48,72.27,226.63,93.34c13.44,7.63,26.75,15.49,41,23.78-7.05,7.44-13.49,10.85-20.35,10.85Zm-3.8,26.49c-2.46-.66-5.08-.81-7.11-2C185.88,123.37,135.56,93.86,84.78,65.17c-10.15-5.73-10.63-12.71-8-24.39,37.24,20.9,72.89,40.85,108.47,60.91q23.28,13.13,46.35,26.64c14.15,8.25,14.1,8.33,11.91,26.13Zm-12.84,13.16a10.21,10.21,0,0,1-5.09-1.08c-52.67-29.9-105-60.38-157.39-90.77-1.06-.61-1.78-1.82-5.27-5.56,4.76,0,8.6-.4,11.92-.4a20.6,20.6,0,0,1,5.74.67c5.88,1.72,11.31,5.17,16.71,8.25q72,41.08,143.82,82.31c0,1.93-.05,3.86-.08,5.8-3.3,0-7,.78-10.36.78Zm-2.34,27.22c-9.66-5.46-18.88-10.62-28.05-15.87C156.52,153.91,113,128.49,68.87,104,58.32,98.12,57,91.38,61.22,79.44c8.47,4.63,16.2,8.68,23.78,13,44.19,25.19,88.1,50.91,132.69,75.37,11.67,6.4,14.28,13.9,10.65,27ZM217,207.08c-3.18,0-6.51-1.41-10.2-3.55-52.45-30.34-105.14-60.24-158.32-90.6,3.37-4.26,6.57-7,10.74-7a14.86,14.86,0,0,1,7.36,2.36c52.08,30.15,104.39,59.92,156.61,89.84a37.18,37.18,0,0,1,3.88,3.2c-3.39,4.13-6.65,5.76-10.07,5.76Zm-3.87,25.76c-8.6-4.59-17-8.82-25.19-13.49-43.71-25-87.18-50.41-131.15-74.91-10.7-6-14.91-12.88-10.67-27C73,132.81,98.74,147.6,124.54,162.35s51.53,30.18,77.9,44.11c11.13,5.89,14.51,13.12,10.65,26.38Zm39.07-75.74c-6.8-18.57-4.6-22.23,21.19-34.11,3.94,21.8,2.76,23.61-21.19,34.11Zm13.47,21.47c-2.85-22.72.17-26.93,22.64-32.71,3.22,21.39,1.5,24-22.64,32.71Zm-29.78,17.1c-4-21-1.39-24.86,22.15-32.91,3.68,21.93.84,26.14-22.15,32.91Zm44.93,4.69c-3.07-22.29-1.85-24.14,21.59-33.83,6.5,18.07,3.13,23.54-21.59,33.83Zm-30.31,17.37c-2-24.08-2-24.08,22.58-34.24,5,20.63,3.25,23.33-22.58,34.24Zm-30,17c-1.28-23.4-1.28-23.4,21.77-33.77,6.58,22.65,1.76,23.52-21.77,33.77Z"/></svg>