<svg id="Calque_1" data-name="Calque 1" xmlns="http://www.w3.org/2000/svg" viewBox="0 0 350 300"><title>selected</title><g id="_7oGdSk" data-name="7oGdSk"><path d="M121.57,50H122c14.53.19,30.49.28,50.23.28q14.89,0,29.77,0t29.75,0h1.36c6.7,0,8.41,1.17,10.78,7.34,1.49,3.89,2.94,7.89,4.34,11.82a21.76,21.76,0,0,0-4.7-.51c-6,0-11.8,2.44-16.79,7a21.72,21.72,0,0,0-14.88-5.53h-.12c-14.36.06-26.08.09-36.9.09-12.19,0-23.25,0-33.82-.12h-.22a22.92,22.92,0,0,0-18.48,8.9c-5.47,6.71-9,14.9-11.17,25.75a98.52,98.52,0,0,0,.37,39.47c5.76,27.58,21.2,49.12,45.88,64a34.21,34.21,0,0,0,37.45,0c25.27-15.2,40.85-37.37,46.33-65.9a96.8,96.8,0,0,0,1.46-26.16l.38-.15c2.31,3.92,6.51,5.63,10.2,6.36,1.37.27,2.75.62,4.21,1,1.07.27,2.17.55,3.3.8,1.49,21.71-1.65,41.23-9.33,58.06-8,17.57-21.3,32.85-39.46,45.39-7.89,5.46-17.53,11.22-29.06,12.58a65,65,0,0,1-7.49.46A44.68,44.68,0,0,1,154.3,236c-30.52-15.89-49.9-37.9-59.26-67.29-5.86-18.4-6.9-38.47-3.18-61.34a180.71,180.71,0,0,1,13.43-44.77c.14-.33.3-.65.46-1,.28-.59.6-1.25.88-2,2.82-6.94,7-9.65,14.94-9.65m0-5c-9.9,0-16,3.88-19.57,12.77-.38.94-.86,1.84-1.28,2.77a185.06,185.06,0,0,0-13.79,46c-3.49,21.44-3.31,42.75,3.34,63.66,10.31,32.38,32.14,54.8,61.72,70.2a50,50,0,0,0,23.41,5.44,68.79,68.79,0,0,0,8.07-.49c11.8-1.39,21.78-6.84,31.33-13.43,38.41-26.54,54.41-63.46,50.82-109.49-.13-1.58-.6-2.32-2.22-2.63-3.09-.59-6.11-1.53-9.2-2.14-4.51-.89-7.83-2.86-7.91-8.33-2.42,1-4.5,2.07-6.68,2.81-1.77.61-2.24,1.54-2.06,3.39a90.36,90.36,0,0,1-1.27,26c-5.28,27.51-20.12,48.18-44,62.55a29.21,29.21,0,0,1-32.28,0c-23.22-14-38-34-43.57-60.77a92.79,92.79,0,0,1-.37-37.48c1.7-8.55,4.53-16.68,10.14-23.56a17.79,17.79,0,0,1,14.61-7.06H141q16.94.13,33.86.12,18.47,0,36.92-.09h.1a16.67,16.67,0,0,1,12.47,5.13c.84.85,1.67,1.72,2.51,2.58,5.05-6.3,11-9.14,16.69-9.14A18.89,18.89,0,0,1,257.14,80c-.46-1.55-.72-2.61-1.08-3.62-2.48-6.88-4.88-13.8-7.5-20.62-3.12-8.15-6.75-10.55-15.44-10.55h-1.36c-19.84,0-39.68.08-59.52.08-16.72,0-33.44-.06-50.16-.28Z"/><path d="M270.23,99.85h0a18.23,18.23,0,0,1,2.26.15,6.18,6.18,0,0,1,5.51,5.83c.06,3.28-2.75,6.42-6.53,7.3a14.89,14.89,0,0,1-1.7.25c-.39.05-.78.09-1.17.15l-.83.11-4.1-.9c-3.8-.83-7.69-1.68-11.56-2.58,5-3.44,10.08-6.85,15.27-9.85a6,6,0,0,1,2.85-.46m0-5A11,11,0,0,0,264.87,96c-6.91,4-13.5,8.59-20.06,13.16-2.06,1.43-1.53,4,.92,4.65,7.77,1.9,15.6,3.54,23.41,5.28l.16-.59c1.1-.16,2.22-.23,3.3-.48,6.12-1.43,10.51-6.63,10.4-12.27A11.14,11.14,0,0,0,273.12,95a22.39,22.39,0,0,0-2.89-.19Z"/><path d="M139.7,26c-3.64,0-7.29,0-10.93.1a6.08,6.08,0,0,0-6,5.45c-.24,3,0,6,0,9.2h5.17c0-2.44.07-4.66,0-6.88-.09-1.81.63-2.55,2.42-2.55h0c3.31,0,6.62.05,9.93.05q4.19,0,8.37-.06h.1c2.09,0,2.77.9,2.65,2.92-.12,2.18,0,4.37,0,6.56h5.16c0-3.21.22-6.26-.07-9.25a6,6,0,0,0-6-5.45C146.85,26,143.27,26,139.7,26Z"/><path d="M213.24,26q-5.6,0-11.19.08c-3.06.05-5.81,2.2-6.09,5-.31,3.18-.07,6.41-.07,9.74H201c0-2.46,0-4.77,0-7.07,0-1.66.63-2.4,2.3-2.4h0l9.78,0,9.11,0h0c1.66,0,2.35.75,2.3,2.4-.06,2.31,0,4.62,0,7.07h5.16c0-3.17.14-6,0-8.83a6.12,6.12,0,0,0-6.22-5.9C220,26,216.62,26,213.24,26Z"/><path d="M243.84,88.36a1.88,1.88,0,0,1,1.41.5,2,2,0,0,1,.32,1.56c-.38,2.71-1.74,3.65-2.72,4.13-2.17,1-4.39,2.08-6.6,3.08,1.05-2.29,2.12-4.58,3.24-6.8a4.33,4.33,0,0,1,4.29-2.47h.06m0-5h-.14A9.36,9.36,0,0,0,235,88.59c-2.85,5.68-5.35,11.55-8,17.33l.91.91c5.7-2.58,11.46-5,17.1-7.78a9.84,9.84,0,0,0,5.49-7.94,6.52,6.52,0,0,0-6.68-7.75Z"/></g></svg>