<svg id="Calque_1" data-name="Calque 1" xmlns="http://www.w3.org/2000/svg" viewBox="0 0 350 300"><title>selected</title><path d="M264,76.87a2.72,2.72,0,0,1,.49,0L292.15,82a2.68,2.68,0,0,1,2.15,3.12L272.47,203.49a2.69,2.69,0,0,1-2.63,2.19,2.81,2.81,0,0,1-.5,0l-27.7-5.11a2.67,2.67,0,0,1-2.14-3.12L261.33,79.07a2.68,2.68,0,0,1,2.63-2.2m0-5a7.7,7.7,0,0,0-7.55,6.29L234.58,196.5a7.68,7.68,0,0,0,6.16,8.95l27.69,5.11a8.39,8.39,0,0,0,1.41.12,7.67,7.67,0,0,0,7.54-6.28L299.22,86.06a7.69,7.69,0,0,0-6.16-9L265.36,72a7.45,7.45,0,0,0-1.4-.13Z"/><path d="M79.05,115.87a2.67,2.67,0,0,1,2.27,1.25l64.48,101.6a2.66,2.66,0,0,1,.35,2,2.61,2.61,0,0,1-1.18,1.68l-23.78,15.09a2.56,2.56,0,0,1-1.42.42,2.67,2.67,0,0,1-2.27-1.25L114,231.21l-2.18-3.44,4.34-2.67,1.14-.7,4.27-2.62L119,217.52l-5.71-9.28L110.63,204l-4.26,2.62-1.27.78-8.66,5.33-1.91,1.18-.42-.68-.8-1.31,1.77-1.08,8.66-5.33,1.41-.88,4.26-2.62-2.62-4.26-2.57-4.16-2.62-4.26-4.26,2.62-1.46.91-8.67,5.33-1.71,1.05-.06-.09-1.15-1.91,1.55-1,8.66-5.33,1.62-1,4.26-2.62-2.63-4.26-2.87-4.66-2.62-4.26L88,176.76l-1.69,1-8.65,5.33-1.51.93-1.23-2,1.37-.85L85,175.89l1.82-1.13L91,172.14l-2.62-4.26-3.29-5.34-2.62-4.25-4.26,2.62-1.9,1.16L67.7,167.4l-1.29.8-1.23-2,1.15-.71L75,160.17l2-1.26,4.26-2.62L78.66,152l-5.94-9.64-2.62-4.26-4.26,2.62-2.17,1.34-4.46,2.74-2-3.07L53,135.08a2.69,2.69,0,0,1,.83-3.7l23.77-15.09a2.62,2.62,0,0,1,1.43-.42m0-5a7.6,7.6,0,0,0-4.1,1.2L51.17,127.16a7.68,7.68,0,0,0-2.37,10.6L53,144.44,36.35,155a6.21,6.21,0,0,0-2.2,8.5l50.33,79.32a5.91,5.91,0,0,0,5,2.68,6.68,6.68,0,0,0,3.59-1.06l16.69-10.59,3.47,5.47a7.67,7.67,0,0,0,10.6,2.37l23.78-15.09A7.68,7.68,0,0,0,150,216L85.55,114.44a7.69,7.69,0,0,0-6.5-3.57ZM49.43,175.54,41,161.89l16.6-10.22,8.66-5.33L68.46,145l5.94,9.65-2,1.25-8.65,5.34-5.41,3.32,2.46,4-11.33,7Zm15.34-.46,5.55-3.42L79,166.33l1.9-1.17,3.29,5.34-1.83,1.13L73.68,177l-5.63,3.46,2.43,3.94-11.33,7-8.41-13.65,11.33-7,2.7,4.38Zm9.75,15.85,5.77-3.55,8.65-5.33,1.68-1,2.88,4.66-1.62,1L83.22,192l-5.83,3.59L80.08,200l-11.33,7-8.26-13.43,11.34-7,2.69,4.38Zm9.34,15.17,6-3.68,8.66-5.33,1.47-.9,2.56,4.17-1.41.87-8.66,5.33-6,3.71,2.7,4.37-11.33,7L70,208.94l-.15-.24,11.33-7,.14.25,2.55,4.13Zm9,14.67,6.17-3.8,8.66-5.33,1.27-.78,5.71,9.28-1.14.7-8.66,5.33L87.27,237l-8-12.91-.45-.74,11.32-7,.46.74,2.24,3.64Z"/><path d="M107.6,102.18a1.2,1.2,0,0,1,1.07.65l51.92,102.5a1.19,1.19,0,0,1-.51,1.6,1.21,1.21,0,0,1-.53.12,1.33,1.33,0,0,1-.28,0,1.21,1.21,0,0,1-.8-.62L106.55,103.9a1.18,1.18,0,0,1,.52-1.59,1.12,1.12,0,0,1,.53-.13m0-5a6.09,6.09,0,0,0-2.79.67,6.18,6.18,0,0,0-2.72,8.31L154,208.66a6.2,6.2,0,0,0,4.1,3.22,6.3,6.3,0,0,0,1.44.17,6.17,6.17,0,0,0,5.51-9l-51.93-102.5a6.21,6.21,0,0,0-5.53-3.39Z"/><path d="M146,85a1.19,1.19,0,0,1,1.13.84L181,198.09a1.2,1.2,0,0,1-1.14,1.54.84.84,0,0,1-.27,0,1.16,1.16,0,0,1-.87-.81L144.85,86.56a1.2,1.2,0,0,1,.8-1.48,1.4,1.4,0,0,1,.34,0m0-5a6.09,6.09,0,0,0-1.78.26A6.18,6.18,0,0,0,140.07,88l33.81,112.23a6.2,6.2,0,0,0,4.5,4.23,6.08,6.08,0,0,0,3.22-.1,6.19,6.19,0,0,0,4.14-7.71L151.91,84.43A6.19,6.19,0,0,0,146,80Z"/><path d="M187.42,75.16a1.19,1.19,0,0,1,1.17,1.06L201.1,192.54a1.2,1.2,0,0,1-1.08,1.32h-.09a1.33,1.33,0,0,1-.28,0,1.18,1.18,0,0,1-.9-1L186.23,76.47a1.2,1.2,0,0,1,1.06-1.31h.13m0-5-.67,0A6.2,6.2,0,0,0,181.26,77l12.51,116.33a6.2,6.2,0,0,0,6.16,5.53l.65,0a6.2,6.2,0,0,0,5.5-6.82L193.56,75.68a6.19,6.19,0,0,0-6.14-5.52Z"/><path d="M230.64,74.69h.08a1.19,1.19,0,0,1,1.11,1.3L220.52,192.44a1.2,1.2,0,0,1-1.18,1.08h-.09l-.2,0a1.18,1.18,0,0,1-.9-1.26L229.46,75.77a1.2,1.2,0,0,1,1.18-1.08m0-5a6.2,6.2,0,0,0-6.16,5.59L213.17,191.73a6.2,6.2,0,0,0,4.72,6.62,7.18,7.18,0,0,0,.85.14l.6,0a6.19,6.19,0,0,0,6.15-5.59L236.8,76.47a6.19,6.19,0,0,0-5.56-6.75q-.3,0-.6,0Z"/><path d="M95.14,112.46a1.19,1.19,0,0,1,1,.56l60.69,97.57a1.19,1.19,0,0,1-.37,1.64,1.15,1.15,0,0,1-.62.18l-.18,0a1.19,1.19,0,0,1-.85-.54L94.14,114.28a1.19,1.19,0,0,1,.38-1.64,1.15,1.15,0,0,1,.62-.18m0-5a6.09,6.09,0,0,0-3.26.94,6.19,6.19,0,0,0-2,8.52l60.69,97.57a6.18,6.18,0,0,0,4.36,2.85,6.84,6.84,0,0,0,.91.07,6.18,6.18,0,0,0,5.24-9.46L100.4,110.38a6.19,6.19,0,0,0-5.26-2.92Z"/><path d="M126.88,92a1.19,1.19,0,0,1,1.1.74l43.5,108.83a1.19,1.19,0,0,1-1.09,1.64l-.18,0a1.16,1.16,0,0,1-.93-.73L125.78,93.66a1.19,1.19,0,0,1,.67-1.55,1.06,1.06,0,0,1,.43-.08m0-5a6.18,6.18,0,0,0-5.74,8.48l43.49,108.84a6.18,6.18,0,0,0,4.85,3.82,5.49,5.49,0,0,0,.91.07,6,6,0,0,0,2.29-.45,6.19,6.19,0,0,0,3.45-8L132.63,90.92A6.2,6.2,0,0,0,126.88,87Z"/><path d="M168.28,78.57a1.21,1.21,0,0,1,1.17,1l22.63,114.79a1.2,1.2,0,0,1-1,1.4l-.18,0-.19,0a1.18,1.18,0,0,1-1-.94L167.12,80a1.19,1.19,0,0,1,.94-1.4l.22,0m0-5a6.08,6.08,0,0,0-1.19.12A6.19,6.19,0,0,0,162.21,81l22.64,114.79a6.18,6.18,0,0,0,5.16,4.93,7,7,0,0,0,.92.07,5.91,5.91,0,0,0,1.18-.12,6.19,6.19,0,0,0,4.87-7.27L174.35,78.56a6.19,6.19,0,0,0-6.07-5Z"/><path d="M209.3,74.33a1.19,1.19,0,0,1,1.2,1.19l-1.09,117a1.19,1.19,0,0,1-1.16,1.18l-.21,0a1.18,1.18,0,0,1-1-1.18l1.09-117a1.2,1.2,0,0,1,1.18-1.18m0-5a6.19,6.19,0,0,0-6.19,6.13l-1.09,117a6.18,6.18,0,0,0,5.28,6.17,5.85,5.85,0,0,0,.85.07h.06a6.2,6.2,0,0,0,6.19-6.13l1.09-117a6.19,6.19,0,0,0-6.14-6.24Z"/><path d="M249.85,75.2H250a1.18,1.18,0,0,1,1,1.38L230.84,191.84a1.22,1.22,0,0,1-1.17,1l-.17,0a.64.64,0,0,1-.21-.05,1.19,1.19,0,0,1-.8-1.33l20.2-115.24a1.2,1.2,0,0,1,1.16-1m0-5a6.2,6.2,0,0,0-6.08,5.12l-20.2,115.25a6.19,6.19,0,0,0,4.2,7,6.72,6.72,0,0,0,.83.2,6.56,6.56,0,0,0,1.07.1,6.2,6.2,0,0,0,6.09-5.13L256,77.46a6.2,6.2,0,0,0-5-7.17,6.56,6.56,0,0,0-1.08-.09Z"/><path d="M282.69,97a4,4,0,1,0,3.95,4,4,4,0,0,0-3.95-4Z"/><path d="M279.81,111.38a4,4,0,1,0,4,4,3.95,3.95,0,0,0-4-4Z"/><path d="M266.69,93a4,4,0,1,0,3.95,4,4,4,0,0,0-3.95-4Z"/><path d="M263.81,107.38a4,4,0,1,0,4,4,3.95,3.95,0,0,0-4-4Z"/><path d="M276.69,125a4,4,0,1,0,3.95,3.95,4,4,0,0,0-3.95-3.95Z"/><path d="M273.81,139.38a4,4,0,1,0,4,4,3.95,3.95,0,0,0-4-4Z"/><path d="M260.69,121a4,4,0,1,0,3.95,4,4,4,0,0,0-3.95-4Z"/><path d="M257.81,135.38a4,4,0,1,0,4,4,3.95,3.95,0,0,0-4-4Z"/><path d="M270.69,154a4,4,0,1,0,3.95,3.95,4,4,0,0,0-3.95-3.95Z"/><path d="M267.81,168.38a4,4,0,1,0,4,4,3.95,3.95,0,0,0-4-4Z"/><path d="M254.69,150a4,4,0,1,0,3.95,3.95,4,4,0,0,0-3.95-3.95Z"/><path d="M251.81,164.38a4,4,0,1,0,4,4,3.95,3.95,0,0,0-4-4Z"/></svg>