<svg id="Calque_1" data-name="Calque 1" xmlns="http://www.w3.org/2000/svg" viewBox="0 0 350 300"><title>selected</title><path d="M176.85,27.85a48.29,48.29,0,0,1,37.32,79,49.76,49.76,0,0,0-11.19,31H185V111h2a8.47,8.47,0,0,0,6.45-14H194a8.49,8.49,0,0,0,6.1-14.39A8.5,8.5,0,0,0,197.48,66h-42a8.49,8.49,0,0,0-2.56,16.58A8.48,8.48,0,0,0,159,97h.52A8.48,8.48,0,0,0,166,111h2V137.9H150.8a50.9,50.9,0,0,0-11.48-31.29,48.34,48.34,0,0,1,32.06-78.45,47.63,47.63,0,0,1,5.47-.31m0-5a53.34,53.34,0,0,0-41.42,86.9,46,46,0,0,1,10.38,28.72v62.28c0,.05.05.1.05.15a4,4,0,0,0,.21,1.36c0,.05.05.1.05.15s0,.11,0,.16c4.38,11.83,17.2,20.43,30.7,20.43s26.31-8.55,30.69-20.43c.05,0,.05-.1.11-.16s.05-.1.05-.15a3.84,3.84,0,0,0,.21-1.36c0-.05,0-.1,0-.15V138.42A44.77,44.77,0,0,1,218,110.06a53.29,53.29,0,0,0-41.19-87.21ZM155.46,78a3.49,3.49,0,0,1,0-7h42a3.49,3.49,0,0,1,0,7H180v7h14a3.49,3.49,0,0,1,0,7H180v7h7a3.49,3.49,0,0,1,0,7h-7v28h-7V106h-7a3.49,3.49,0,0,1,0-7h7V92H159a3.49,3.49,0,0,1,0-7h14V78Zm-.8,118.28V142.9h44.46v53.36ZM176.92,214a25.47,25.47,0,0,1-19.08-8.92h38.1a25.25,25.25,0,0,1-19,8.92Z"/></svg>