<?xml version="1.0" encoding="utf-8"?>
<!-- Generator: Adobe Illustrator 22.1.0, SVG Export Plug-In . SVG Version: 6.00 Build 0)  -->
<svg style="enable-background:new 0 0 500 500;" id="Calque_1" version="1.1" viewBox="0 0 500 500" x="0px"
     xmlns="http://www.w3.org/2000/svg" y="0px" xml:space="preserve">
<style type="text/css">
	.st0{fill:#4FBDD7;}
	.st1{fill:#EAEAEA;}
	.st2{fill:#FFFFFF;}
	.st3{fill:#4FBDD7;stroke:#FFFFFF;stroke-width:5;stroke-miterlimit:10;}
	.st4{fill:#8C8C8C;}
	.st5{fill:#070707;}
	.st6{fill:none;stroke:#FFFFFF;stroke-width:7;stroke-miterlimit:10;}
	.st7{fill:none;stroke:#FFFFFF;stroke-width:10;stroke-miterlimit:10;}
	.st8{fill:#FFFFFF;stroke:#FFFFFF;stroke-width:3;stroke-miterlimit:10;}
	.st9{fill:none;stroke:#FDFFFF;stroke-width:6;stroke-miterlimit:10;}
	.st10{fill:#FAFEFF;}
	.st11{fill:none;stroke:#FFFFFF;stroke-width:2;stroke-miterlimit:10;}
	.st12{fill:#FFFFFF;stroke:#FFFFFF;stroke-width:2;stroke-miterlimit:10;}
	.st13{fill:#4FBDD7;stroke:#FFFFFF;stroke-width:4;stroke-miterlimit:10;}
	.st14{fill:#FFFFFF;stroke:#FFFFFF;stroke-width:4;stroke-miterlimit:10;}
	.st15{fill:none;stroke:#FFFFFF;stroke-miterlimit:10;}
	.st16{fill:#FFFFFF;stroke:#FFFFFF;stroke-width:13;stroke-miterlimit:10;}
	.st17{fill:#4FBDD7;stroke:#FFFFFF;stroke-width:8;stroke-miterlimit:10;}
	.st18{fill:#FFFFFF;stroke:#FFFFFF;stroke-width:0.75;stroke-miterlimit:10;}
	.st19{fill:#FFFFFF;stroke:#FFFFFF;stroke-width:0.5;stroke-miterlimit:10;}
	.st20{fill:#FFFFFF;stroke:#FFFFFF;stroke-width:8;stroke-miterlimit:10;}
	.st21{fill:#FFFFFF;stroke:#FFFFFF;stroke-miterlimit:10;}
	.st22{fill:#FFFFFF;stroke:#FFFFFF;stroke-width:11;stroke-miterlimit:10;}
	.st23{fill:#FFFFFF;stroke:#FFFFFF;stroke-width:6;stroke-miterlimit:10;}
	.st24{fill:#8C8C8C;stroke:#8C8C8C;stroke-width:4;stroke-miterlimit:10;}
	.st25{fill:#FFFFFF;stroke:#FFFFFF;stroke-width:1.05;stroke-miterlimit:10;}
	.st26{fill:none;stroke:#4FBDD7;stroke-width:5;stroke-miterlimit:10;}
	.st27{fill:none;stroke:#FFFFFF;stroke-width:4;stroke-miterlimit:10;}
	.st28{fill:#8C8C8C;stroke:#FFFFFF;stroke-width:4;stroke-miterlimit:10;}
	.st29{fill:#FFFFFF;stroke:#FFFFFF;stroke-width:10;stroke-miterlimit:10;}
	.st30{fill:none;}
	.st31{font-family:'HelveticaNeue-CondensedBold';}
	.st32{font-size:54px;}
	.st33{fill:none;stroke:#4FBDD7;stroke-width:2;stroke-miterlimit:10;}
	.st34{fill-rule:evenodd;clip-rule:evenodd;fill:#FFFFFF;}
	.st35{fill:#FFFFFF;stroke:#FFFFFF;stroke-width:7;stroke-miterlimit:10;}
	.st36{fill:#FFFFFF;stroke:#4FBDD7;stroke-width:7;stroke-miterlimit:10;}
	.st37{fill:#FCFCFC;}
	.st38{fill:#FFFFFF;stroke:#FFFFFF;stroke-width:5;stroke-miterlimit:10;}
	.st39{fill:none;stroke:#FFFFFF;stroke-width:3;stroke-miterlimit:10;}
	.st40{fill:none;stroke:#FFFFFF;stroke-width:8;stroke-miterlimit:10;}
	.st41{fill:none;stroke:#FFFFFF;stroke-width:6;stroke-miterlimit:10;}
	.st42{fill:#FFFFFF;stroke:#4FBDD7;stroke-width:3;stroke-miterlimit:10;}
	.st43{fill:none;stroke:#FFFFFF;stroke-width:0.75;stroke-miterlimit:10;}
	.st44{fill:#4FBDD7;stroke:#FFFFFF;stroke-width:9;stroke-miterlimit:10;}
	.st45{fill:none;stroke:#FFFFFF;stroke-width:9;stroke-miterlimit:10;}
	.st46{fill:none;stroke:#4FBDD7;stroke-width:3;stroke-miterlimit:10;}
</style>
    <rect class="st0" height="500" width="503" x="-1" y="-1"/>
    <g>
	<g>
		<path class="st2" d="M333.3,182.8c-2.3,0-4.1,1.8-4.1,4.1c0,2.5,2.1,4.4,4.6,4.1c2.1-0.2,3.7-2,3.7-4.1
			C337.4,184.6,335.6,182.8,333.3,182.8z"/>
	</g>
</g>
    <g>
	<g>
		<path class="st2" d="M247.9,149.6c-29.7,0-53.9,24.2-53.9,53.9s24.2,53.9,53.9,53.9s53.9-24.2,53.9-53.9S277.6,149.6,247.9,149.6z
			 M247.9,249.1c-25.1,0-45.6-20.5-45.6-45.6s20.5-45.6,45.6-45.6s45.6,20.5,45.6,45.6S273,249.1,247.9,249.1z"/>
	</g>
</g>
    <g>
	<g>
		<path class="st2" d="M341.6,141.3h-4.1c-8.3,0-16.6,0-24.9,0H281c-4-2.1-8.2-3.9-12.4-5.2v-11.4H281c6.9,0,12.4-5.6,12.4-12.4
			V87.4c0-6.9-5.6-12.4-12.4-12.4h-66.3c-6.9,0-12.4,5.6-12.4,12.4v24.9c0,6.9,5.6,12.4,12.4,12.4h12.4v11.4
			c-4.3,1.3-8.5,3.1-12.4,5.2c-9.9,0-22.2,0-31.5,0v-12.4c0-2.3-1.9-4.1-4.1-4.1h-16.6c-2.3,0-4.1,1.9-4.1,4.1v12.4h-4.1
			c-6.9,0-12.4,5.6-12.4,12.4c0,4.1,0,95.1,0,99.5c0,6.9,5.6,12.4,12.4,12.4h60.5c10.2,5.4,21.6,8.3,33.2,8.3
			c11.6,0,23-2.9,33.2-8.3h60.5c6.9,0,12.4-5.6,12.4-12.4c0-4.1,0-95.1,0-99.5C354,146.9,348.4,141.3,341.6,141.3z M214.7,116.5
			c-2.3,0-4.1-1.9-4.1-4.1V87.4c0-2.3,1.9-4.1,4.1-4.1H281c2.3,0,4.1,1.9,4.1,4.1v24.9c0,2.3-1.9,4.1-4.1,4.1H214.7z M260.3,124.8
			v9.4c-4.1-0.7-8.3-1.1-12.4-1.1s-8.3,0.4-12.4,1.1v-9.4H260.3z M166.6,133h8.3v8.3h-8.3V133z M150,153.8c0-2.3,1.9-4.2,4.1-4.2
			h48.3c-5.6,4.7-10.5,10.4-14.4,16.6h-38V153.8z M150,174.5h33.6c-4.1,9.1-6.2,19-6.2,29.1c0,10,2.1,20,6.2,29H150V174.5z
			 M154.2,257.4c-2.3,0-4.1-1.9-4.1-4.1v-12.4h38c3.9,6.3,8.8,11.9,14.4,16.6H154.2z M247.9,265.7c-34.4,0-62.2-27.9-62.2-62.2
			c0-34.2,27.7-62.2,62.2-62.2c34.3,0,62.2,27.8,62.2,62.2C310.1,238,282.1,265.7,247.9,265.7z M345.7,253.3c0,2.3-1.9,4.1-4.1,4.1
			h-48.3c5.6-4.7,10.5-10.3,14.4-16.6h38V253.3z M345.7,232.5h-33.6c4.1-9.1,6.2-19,6.2-29s-2.1-20-6.2-29h33.6V232.5z M345.7,166.2
			h-38c-3.9-6.3-8.8-11.9-14.4-16.6h48.3c2.3,0,4.1,1.9,4.1,4.1V166.2z"/>
	</g>
</g>
    <g>
	<g>
		<path class="st2" d="M222.7,91.6c-2.3,0-4.1,1.9-4.1,4.1v8.3c0,2.3,1.9,4.1,4.1,4.1c2.3,0,4.1-1.9,4.1-4.1v-8.3
			C226.9,93.4,225,91.6,222.7,91.6z"/>
	</g>
</g>
    <g>
	<rect class="st30" height="144" width="500" x="-2" y="366"/>
        <text class="st2 st31 st32" transform="matrix(1 0 0 1 91.1587 404.5557)">Appareil photo</text>
</g>
</svg>
