<?xml version="1.0" encoding="utf-8"?>
<!-- Generator: Adobe Illustrator 22.1.0, SVG Export Plug-In . SVG Version: 6.00 Build 0)  -->
<svg style="enable-background:new 0 0 500 500;" id="Calque_1" version="1.1" viewBox="0 0 500 500" x="0px"
     xmlns="http://www.w3.org/2000/svg" y="0px" xml:space="preserve">
<style type="text/css">
	.st0{fill:#4FBDD7;}
	.st1{fill:#EAEAEA;}
	.st2{fill:none;}
	.st3{fill:#FFFFFF;}
	.st4{font-family:'HelveticaNeue-CondensedBold';}
	.st5{font-size:54px;}
	.st6{fill:#4FBDD7;stroke:#FFFFFF;stroke-width:5;stroke-miterlimit:10;}
	.st7{fill:#8C8C8C;}
	.st8{fill:#070707;}
	.st9{fill:none;stroke:#FFFFFF;stroke-width:7;stroke-miterlimit:10;}
	.st10{fill:none;stroke:#FFFFFF;stroke-width:10;stroke-miterlimit:10;}
	.st11{fill:#FFFFFF;stroke:#FFFFFF;stroke-width:3;stroke-miterlimit:10;}
	.st12{fill:none;stroke:#FDFFFF;stroke-width:6;stroke-miterlimit:10;}
	.st13{fill:#FAFEFF;}
	.st14{fill:none;stroke:#FFFFFF;stroke-width:2;stroke-miterlimit:10;}
	.st15{fill:#FFFFFF;stroke:#FFFFFF;stroke-width:2;stroke-miterlimit:10;}
	.st16{fill:#4FBDD7;stroke:#FFFFFF;stroke-width:4;stroke-miterlimit:10;}
	.st17{fill:#FFFFFF;stroke:#FFFFFF;stroke-width:4;stroke-miterlimit:10;}
	.st18{fill:none;stroke:#FFFFFF;stroke-miterlimit:10;}
	.st19{fill:#FFFFFF;stroke:#FFFFFF;stroke-width:13;stroke-miterlimit:10;}
	.st20{fill:#4FBDD7;stroke:#FFFFFF;stroke-width:8;stroke-miterlimit:10;}
	.st21{fill:#FFFFFF;stroke:#FFFFFF;stroke-width:0.75;stroke-miterlimit:10;}
	.st22{fill:#FFFFFF;stroke:#FFFFFF;stroke-width:0.5;stroke-miterlimit:10;}
	.st23{fill:#FFFFFF;stroke:#FFFFFF;stroke-width:8;stroke-miterlimit:10;}
	.st24{fill:#FFFFFF;stroke:#FFFFFF;stroke-miterlimit:10;}
	.st25{fill:#FFFFFF;stroke:#FFFFFF;stroke-width:11;stroke-miterlimit:10;}
	.st26{fill:#FFFFFF;stroke:#FFFFFF;stroke-width:6;stroke-miterlimit:10;}
	.st27{fill:#8C8C8C;stroke:#8C8C8C;stroke-width:4;stroke-miterlimit:10;}
	.st28{fill:#FFFFFF;stroke:#FFFFFF;stroke-width:1.05;stroke-miterlimit:10;}
	.st29{fill:none;stroke:#4FBDD7;stroke-width:5;stroke-miterlimit:10;}
	.st30{fill:none;stroke:#FFFFFF;stroke-width:4;stroke-miterlimit:10;}
	.st31{fill:#8C8C8C;stroke:#FFFFFF;stroke-width:4;stroke-miterlimit:10;}
	.st32{fill:#FFFFFF;stroke:#FFFFFF;stroke-width:10;stroke-miterlimit:10;}
	.st33{fill:none;stroke:#4FBDD7;stroke-width:2;stroke-miterlimit:10;}
	.st34{fill-rule:evenodd;clip-rule:evenodd;fill:#FFFFFF;}
	.st35{fill:#FFFFFF;stroke:#FFFFFF;stroke-width:7;stroke-miterlimit:10;}
	.st36{fill:#FFFFFF;stroke:#4FBDD7;stroke-width:7;stroke-miterlimit:10;}
	.st37{fill:#FCFCFC;}
	.st38{fill:#FFFFFF;stroke:#FFFFFF;stroke-width:5;stroke-miterlimit:10;}
	.st39{fill:none;stroke:#FFFFFF;stroke-width:3;stroke-miterlimit:10;}
	.st40{fill:none;stroke:#FFFFFF;stroke-width:8;stroke-miterlimit:10;}
	.st41{fill:none;stroke:#FFFFFF;stroke-width:6;stroke-miterlimit:10;}
	.st42{fill:#FFFFFF;stroke:#4FBDD7;stroke-width:3;stroke-miterlimit:10;}
	.st43{fill:none;stroke:#FFFFFF;stroke-width:0.75;stroke-miterlimit:10;}
	.st44{fill:#4FBDD7;stroke:#FFFFFF;stroke-width:9;stroke-miterlimit:10;}
	.st45{fill:none;stroke:#FFFFFF;stroke-width:9;stroke-miterlimit:10;}
	.st46{fill:none;stroke:#4FBDD7;stroke-width:3;stroke-miterlimit:10;}
</style>
    <rect class="st0" height="500" width="501" x="-1"/>
    <g>
	<rect class="st2" height="144" width="500" y="362"/>
        <text class="st3 st4 st5" transform="matrix(1 0 0 1 94.1318 400.5557)">Appareil à cire</text>
</g>
    <g>
	<path class="st3" d="M340.8,126.6c-1.9-17.5-38.2-24.2-54.2-26.4l-1.3,9.9c31.5,4.2,45.7,12.9,45.7,17.8c0,1.8-2,4.1-5.8,6.5
		c-3.4-7.5-18.1-12.6-43.7-15.1l-1,10c22.2,2.2,32.7,6.5,35.1,8.7c-1.2,1-2.6,1.8-4,2.3c-13.3,4.2-33.2,7.6-59.6,7.7
		c-34.9-0.2-56.7-6.2-60.7-10c3-1.4,7.4-3.3,12.9-5.1c3-1,14.9-4.7,38-5.4c9.8-0.3,22.9-0.1,38.2,1.8c0.3-3.3,0.7-6.6,1-10
		c-7.4-1-17.9-2-30.4-2.1c-13.2,0-23.4-0.1-35.8,3.1c-8,2.1-20.5,6.4-34.1,16.4c-7.1-3.1-10.2-6-10.2-8.8
		c0.1-8.6,31.8-14.9,39.6-16.5c8.6-1.7,15.2-2.4,16.7-2.6c13-1.3,32.7-2.1,58,1.2c0.4-3.3,0.9-6.6,1.3-9.9c-10-0.8-20-1.6-30-2.4
		c-18.1-0.9-32.8,0.7-43.1,2.4c-8.2,1.4-14.7,2.5-22.7,5.7c-14.3,5.8-24,14.5-29.7,20.6c-13.4,33.5-20.2,69.2-20.2,105.2V278
		c0,2.8,2.2,5,5,5h210c2.8,0,5-2.2,5-5v-46.2c0-15-1.2-33.3-5.1-53.8C351.9,157.7,346.3,140.5,340.8,126.6 M167.1,139.5
		C180.8,151.7,216,158,251,158c0.2,0,0.4,0,0.7,0c0.8,0,1.4,0,1.8,0c5.5,0,42.2-0.3,61.1-8.2c8.7-2.7,15.7-6.2,20.3-10.3
		c4.7,13.2,8.4,26.7,11.1,40.5c3.3,17.1,5,34.5,5,51.9V248H151v-16.2C151,200.4,156.4,169.1,167.1,139.5 M151,258h200v15H151V258z"
    />
        <path class="st3" d="M221,208c0,16.6,13.4,30,30,30c16.6,0,30-13.4,30-30s-13.4-30-30-30C234.4,178,221,191.4,221,208 M246,188.7
		v9.3h10v-9.3c10.7,2.8,17.1,13.7,14.4,24.4c-2.8,10.7-13.7,17.1-24.4,14.4c-10.7-2.8-17.1-13.7-14.4-24.4
		C233.5,196,239,190.5,246,188.7"/>
        <path class="st3" d="M222.7,185.3L216,180c-2,2.5-3.6,5.2-5,8.1l7.7,3.7C219.8,189.4,221.2,187.3,222.7,185.3"/>
        <path class="st3" d="M234.4,175.7l-3.8-7.7c-2.8,1.4-5.5,3.1-8,5.1l5.4,6.6C230,178.3,232.2,176.9,234.4,175.7"/>
        <path class="st3" d="M216.2,198.9l-8.3-1.9c-0.7,3.1-1,6.3-1,9.4h8.6C215.4,203.9,215.7,201.4,216.2,198.9"/>
        <path class="st3" d="M282.8,197.8l8.3-2.2c-0.8-3.1-1.9-6-3.4-8.9l-7.6,3.9C281.2,193,282.1,195.4,282.8,197.8"/>
        <path class="st3"
              d="M283.9,206.4c0,2.2-0.2,4.4-0.6,6.5l8.4,1.6c0.5-2.7,0.8-5.4,0.8-8.1l0-1.4l-8.6,0.3L283.9,206.4z"/>
        <path class="st3" d="M249.1,172.2l-0.1-8.6c-3.2,0-6.3,0.4-9.4,1.2l2,8.3C244,172.6,246.6,172.2,249.1,172.2"/>
        <path class="st3" d="M275.9,184.4l6.6-5.5c-2-2.4-4.3-4.6-6.9-6.5l-5.2,6.8C272.4,180.7,274.2,182.5,275.9,184.4"/>
        <path class="st3" d="M267.4,167.5c-2.9-1.3-5.9-2.3-9-3l-1.7,8.4c2.5,0.5,4.9,1.3,7.2,2.4L267.4,167.5z"/>
        <path class="st3" d="M277.2,226.7l6.9,5.1c1.9-2.6,3.5-5.3,4.8-8.2l-7.8-3.4C280,222.5,278.7,224.7,277.2,226.7"/>
        <path class="st3" d="M213.3,227.8c3.5,0,6.4-2.9,6.4-6.4c0-3.5-2.9-6.4-6.4-6.4c-3.5,0-6.4,2.9-6.4,6.4
		C206.9,224.9,209.7,227.8,213.3,227.8"/>
</g>
</svg>
