<?xml version="1.0" encoding="utf-8"?>
<!-- Generator: Adobe Illustrator 22.1.0, SVG Export Plug-In . SVG Version: 6.00 Build 0)  -->
<svg style="enable-background:new 0 0 500 500;" id="Calque_1" version="1.1" viewBox="0 0 500 500" x="0px"
     xmlns="http://www.w3.org/2000/svg" y="0px" xml:space="preserve">
<style type="text/css">
	.st0{fill:#4FBDD7;}
	.st1{fill:#EAEAEA;}
	.st2{fill:#FFFFFF;}
	.st3{fill:#4FBDD7;stroke:#FFFFFF;stroke-width:5;stroke-miterlimit:10;}
	.st4{fill:#8C8C8C;}
	.st5{fill:#070707;}
	.st6{fill:none;stroke:#FFFFFF;stroke-width:7;stroke-miterlimit:10;}
	.st7{fill:none;stroke:#FFFFFF;stroke-width:10;stroke-miterlimit:10;}
	.st8{fill:#FFFFFF;stroke:#FFFFFF;stroke-width:3;stroke-miterlimit:10;}
	.st9{fill:none;stroke:#FDFFFF;stroke-width:6;stroke-miterlimit:10;}
	.st10{fill:#FAFEFF;}
	.st11{fill:none;stroke:#FFFFFF;stroke-width:2;stroke-miterlimit:10;}
	.st12{fill:#FFFFFF;stroke:#FFFFFF;stroke-width:2;stroke-miterlimit:10;}
	.st13{fill:#4FBDD7;stroke:#FFFFFF;stroke-width:4;stroke-miterlimit:10;}
	.st14{fill:#FFFFFF;stroke:#FFFFFF;stroke-width:4;stroke-miterlimit:10;}
	.st15{fill:none;stroke:#FFFFFF;stroke-miterlimit:10;}
	.st16{fill:#FFFFFF;stroke:#FFFFFF;stroke-width:13;stroke-miterlimit:10;}
	.st17{fill:#4FBDD7;stroke:#FFFFFF;stroke-width:8;stroke-miterlimit:10;}
	.st18{fill:#FFFFFF;stroke:#FFFFFF;stroke-width:0.75;stroke-miterlimit:10;}
	.st19{fill:#FFFFFF;stroke:#FFFFFF;stroke-width:0.5;stroke-miterlimit:10;}
	.st20{fill:none;}
	.st21{font-family:'HelveticaNeue-CondensedBold';}
	.st22{font-size:54px;}
	.st23{fill:#FFFFFF;stroke:#FFFFFF;stroke-width:8;stroke-miterlimit:10;}
	.st24{fill:#FFFFFF;stroke:#FFFFFF;stroke-miterlimit:10;}
	.st25{fill:#FFFFFF;stroke:#FFFFFF;stroke-width:11;stroke-miterlimit:10;}
	.st26{fill:#FFFFFF;stroke:#FFFFFF;stroke-width:6;stroke-miterlimit:10;}
	.st27{fill:#8C8C8C;stroke:#8C8C8C;stroke-width:4;stroke-miterlimit:10;}
	.st28{fill:#FFFFFF;stroke:#FFFFFF;stroke-width:1.05;stroke-miterlimit:10;}
	.st29{fill:none;stroke:#4FBDD7;stroke-width:5;stroke-miterlimit:10;}
	.st30{fill:none;stroke:#FFFFFF;stroke-width:4;stroke-miterlimit:10;}
	.st31{fill:#8C8C8C;stroke:#FFFFFF;stroke-width:4;stroke-miterlimit:10;}
	.st32{fill:#FFFFFF;stroke:#FFFFFF;stroke-width:10;stroke-miterlimit:10;}
	.st33{fill:none;stroke:#4FBDD7;stroke-width:2;stroke-miterlimit:10;}
	.st34{fill-rule:evenodd;clip-rule:evenodd;fill:#FFFFFF;}
	.st35{fill:#FFFFFF;stroke:#FFFFFF;stroke-width:7;stroke-miterlimit:10;}
	.st36{fill:#FFFFFF;stroke:#4FBDD7;stroke-width:7;stroke-miterlimit:10;}
	.st37{fill:#FCFCFC;}
	.st38{fill:#FFFFFF;stroke:#FFFFFF;stroke-width:5;stroke-miterlimit:10;}
	.st39{fill:none;stroke:#FFFFFF;stroke-width:3;stroke-miterlimit:10;}
	.st40{fill:none;stroke:#FFFFFF;stroke-width:8;stroke-miterlimit:10;}
	.st41{fill:none;stroke:#FFFFFF;stroke-width:6;stroke-miterlimit:10;}
	.st42{fill:#FFFFFF;stroke:#4FBDD7;stroke-width:3;stroke-miterlimit:10;}
	.st43{fill:none;stroke:#FFFFFF;stroke-width:0.75;stroke-miterlimit:10;}
	.st44{fill:#4FBDD7;stroke:#FFFFFF;stroke-width:9;stroke-miterlimit:10;}
	.st45{fill:none;stroke:#FFFFFF;stroke-width:9;stroke-miterlimit:10;}
	.st46{fill:none;stroke:#4FBDD7;stroke-width:3;stroke-miterlimit:10;}
</style>
    <rect class="st0" height="500" width="500"/>
    <g>
	<path class="st2" d="M379.9,109.6c-9.2,9-18.4,17.9-27.7,27.1c1,1.1,1.6,1.7,2.1,2.3c4.8,4.8,9.6,9.6,14.4,14.4
		c2.7,2.7,2.7,4.7,0.1,7.3c-30.7,30.8-61.5,61.5-92.2,92.2c-2.6,2.6-4.5,2.5-7.1-0.1c-5.4-5.4-10.8-10.8-16.3-16.3
		c-4.6,4.6-9,9.1-13.5,13.5c-1.3,1.2-2.9,2.3-4.5,3c-33.1,13.3-66.3,26.6-99.5,39.9c-3.5,1.4-5.1,4.1-4.4,7.2
		c0.6,2.7,3.1,4.7,5.8,4.7c2.8,0,78,0,109.2,0c8.4,0,13.2-4.9,13.3-13.2c0.1-10.6-1.1-8.4,8-13.6c36.4-20.4,71.6-42.7,104.9-68
		c3.3-2.5,5.3-2.1,7.5,1.4c0,0.7,0,1.3,0,2c-1.2,1.2-2.3,2.6-3.7,3.7c-33.4,25.4-68.9,47.7-105.5,68.2c-2.4,1.4-3.4,2.8-3.2,5.6
		c0.4,8.5-2.8,15.3-10.4,19.3c-2.8,1.5-6.3,2.5-9.5,2.5c-36.8,0.2-73.5,0.1-110.3,0.1c-6.5,0-11.7-3.9-13.7-10.2
		c-0.2-0.5-0.4-0.9-0.5-1.4c0-1.7,0-3.3,0-5c1.8-6.3,6.2-9.5,12.1-11.9c32-12.6,63.9-25.5,95.8-38.3c1.4-0.6,2.8-1.5,3.9-2.6
		c10.8-10.7,21.6-21.5,32.5-32.4c-0.7-0.7-1.3-1.4-1.9-2c-4.8-4.8-9.6-9.6-14.4-14.4c-2.3-2.3-2.5-4.5-0.7-6.4
		c1.7-1.7,4-1.5,6.2,0.4c8.8,7.6,20.1,7.2,28.4-1.1c18.3-18.2,36.6-36.5,54.8-54.8c1.9-1.9,3.7-3.5,6.6-1.9c0.4,0.2,1.6-0.6,2.1-1.2
		c7.8-7.8,15.6-15.6,23.4-23.4c3.2-3.2,5.1-3.2,8,0.2C379.9,107.6,379.9,108.6,379.9,109.6z M270,202.3c2.8,2.8,5.2,5.2,7.7,7.7
		c9.3,9.3,21.1,9.3,30.4,0c17-17,34.1-34,51.1-51.1c0.6-0.6,1.1-1.2,1.6-1.7c-5.7-5.7-11.3-11.2-17.4-17.2c-0.4,0.6-0.8,1.4-1.5,2.1
		C324.9,159,307.9,176,291,193c-4.4,4.4-9.5,7.6-15.8,8.7C273.7,201.9,272.1,202,270,202.3z M292.5,224.9c-7.5-0.3-14-3-19.2-8
		c-4.8,4.8-9.4,9.4-13.9,13.9c4.4,4.4,9.1,9,13.6,13.5C279.3,238.1,285.8,231.6,292.5,224.9z"/>
        <path class="st2" d="M270,202.3c2.1-0.2,3.7-0.3,5.2-0.6c6.2-1.1,11.3-4.2,15.8-8.7c16.9-17,33.9-33.9,50.9-50.9
		c0.6-0.6,1.1-1.5,1.5-2.1c6.1,6,11.7,11.6,17.4,17.2c-0.5,0.5-1,1.1-1.6,1.7c-17,17-34,34.1-51.1,51.1c-9.3,9.3-21,9.2-30.4,0
		C275.2,207.5,272.8,205.1,270,202.3z"/>
        <path class="st0" d="M292.5,224.9c-6.7,6.7-13.2,13.2-19.5,19.4c-4.5-4.5-9.1-9.1-13.6-13.5c4.5-4.5,9.1-9.1,13.9-13.9
		C278.5,222,285,224.6,292.5,224.9z"/>
</g>
    <g>
	<rect class="st20" height="144" width="520" x="-17" y="366"/>
        <text transform="matrix(1 0 0 1 163.5127 404.5557)"><tspan class="st2 st21 st22" x="0" y="0">Bandes</tspan>
            <tspan class="st2 st21 st22" x="-13.4" y="64.8">épilation</tspan></text>
</g>
    <g>
	<rect class="st20" height="144" width="520" x="498" y="366"/>
        <text class="st2 st21 st22" transform="matrix(1 0 0 1 663.0425 404.5557)">Serviette</text>
</g>
</svg>
