<svg id="Calque_1" data-name="Calque 1" xmlns="http://www.w3.org/2000/svg" viewBox="0 0 350 300"><defs><style>.cls-1{fill:#020202;}</style></defs><title>selected</title><path class="cls-1" d="M127.51,10.78l-6.58,4L119.19,12a3,3,0,0,0-1.38-1.23l-14-6.46a3.19,3.19,0,0,0-3,.18L79,17.92a3.18,3.18,0,0,0-1.52,2.59l-.56,15.41a3.05,3.05,0,0,0,.47,1.79l1.73,2.82-6.56,4A3.18,3.18,0,1,0,75.85,50l6.56-4,3.77,6.15-6.56,4A3.17,3.17,0,1,0,83,61.55l6.57-4,4.77,7.77a3.17,3.17,0,0,0,1.9,1.4l10.73,2.82,43,70a72.59,72.59,0,1,0,27.27-16.76l-43-70,2.33-10.85a3.18,3.18,0,0,0-.4-2.33l-4.77-7.76,6.56-4a3.18,3.18,0,0,0-3.32-5.42l-6.57,4-3.78-6.14,6.56-4a3.18,3.18,0,0,0-3.31-5.42ZM156,137.25,173,126.75l5.18,8.41-17.1,10.51Zm22.47,36.57-5.24-8.5,17.11-10.51,5.21,8.51a16.07,16.07,0,0,0-1.68.47,32.3,32.3,0,0,0-15.4,10M222,178.37a25,25,0,1,1-34.39-8.21A25,25,0,0,1,222,178.37m-52.21-18.68-5.17-8.41,17.09-10.49,5.16,8.4ZM202,125.18A66.28,66.28,0,1,1,153.34,145l19.58,31.86a31.51,31.51,0,1,0,27.27-16.76l-19.58-31.86A65.6,65.6,0,0,1,202,125.18m-32.43-4.06-17.1,10.51-5.16-8.4,17.1-10.51Zm-8.63-14-17.08,10.5-5.16-8.4L155.8,98.7Zm-8.61-14-17.1,10.51-5.17-8.4,17.11-10.52Zm-8.63-14-17.08,10.5-5.17-8.41,17.09-10.5Zm-8.61-14L118,75.53l-5.53-9L129.57,56ZM114.29,16.11l15.77,25.7-2,9.51-19.57,12L99,60.88,83.24,35.2l.49-12.76,19-11.65Z"/><path class="cls-1" d="M92.6,41.2A3.18,3.18,0,0,0,98,37.87l-4.9-8a3.18,3.18,0,1,0-5.41,3.33Z"/><path class="cls-1" d="M102.2,56.81a3.17,3.17,0,1,0,5.41-3.32l-4.89-8a3.17,3.17,0,1,0-5.41,3.32Z"/><path class="cls-1" d="M111.53,30.32A3.18,3.18,0,0,0,116.94,27l-4.89-8a3.18,3.18,0,0,0-5.42,3.33Z"/><path class="cls-1" d="M121.12,45.94a3.18,3.18,0,0,0,5.42-3.33l-4.9-8A3.18,3.18,0,1,0,116.23,38Z"/><line class="cls-1" x1="202.86" y1="216.36" x2="179.32" y2="178.06"/><line class="cls-1" x1="210.37" y1="215.21" x2="183.29" y2="171.15"/><line class="cls-1" x1="216.33" y1="212.71" x2="189" y2="168.25"/><line class="cls-1" x1="221.05" y1="208.42" x2="194.9" y2="165.88"/></svg>