<svg id="Calque_1" data-name="Calque 1" xmlns="http://www.w3.org/2000/svg" viewBox="0 0 350 300"><title>selected</title><path d="M203.88,37.74c1.52,7,3,14.36,4.34,20.83l.05.27c7.74,38.48,15,74.82,41.92,99.33,1.14,1,2.33,2.07,3.54,3.07l-46,1.17-3,.08v-1.75h-41.4l-65.54,0c13-7,78.24-45.09,106.11-123.08m85.26,147.93a2.81,2.81,0,0,1,2,4.73L276.1,201a2.8,2.8,0,0,1-1.61.51l-35.18,0,14-9.72,8.79-6.1,27,0M255.19,216.3a2.81,2.81,0,0,1,1.65,5.06l-14.71,10.25a2.72,2.72,0,0,1-1.6.51L96,232.23l0-13a2.81,2.81,0,0,1,2.8-2.8h4.74l13.63,0,32.69,0h6.89l60,0h11.95l26.55,0M203.71,32.12h-.06l-.17,0h-.19a2.07,2.07,0,0,0-.34.15h0a4.5,4.5,0,0,0-.48.16l-.12.12-.14.1a3.47,3.47,0,0,0-.37.3l-.34.31-.07.07a.4.4,0,0,0-.1.18,4.49,4.49,0,0,0-.24.42,2.75,2.75,0,0,0-.2.38s0,0,0,.06c-29.72,85.88-106.22,123.58-107,124a3.4,3.4,0,0,0,1.48,6.46l68-.06-4.89,17h-5.3l-20.4,0a6.8,6.8,0,0,0-6.8,6.8v10.05l-21.39,13.77h-5.8a6.8,6.8,0,0,0-6.8,6.81l0,13.6a3.4,3.4,0,0,0,3.4,3.39h0l145.17-.11h0a6.79,6.79,0,0,0,3.9-1.24l14.71-10.27a6.8,6.8,0,0,0-4-12.31l-26.57,0,9.81-6.8,36.05,0a6.82,6.82,0,0,0,3.9-1.24l15.11-10.6a3.23,3.23,0,0,0,.45-.38,6.8,6.8,0,0,0-4.82-11.6h0l-81.61.07.33-15.33,54-1.38-1.35-3.59a86.82,86.82,0,0,1-7.66-6.23C227,131.59,219.73,95.55,212.19,58.06c-.24-1.22-2.1-10.59-4.83-23.11,0-.06,0-.12,0-.16s-.07-.12-.09-.2a3.28,3.28,0,0,0-.17-.5c0-.09-.08-.18-.13-.27a2.24,2.24,0,0,0-.25-.34c-.11-.12-.22-.23-.34-.34l-.13-.18a.73.73,0,0,1-.08-.09l-.23-.14-.13-.09a2.48,2.48,0,0,0-.37-.17,3.81,3.81,0,0,0-.64-.24c-.06,0-.11,0-.16,0h-.47a3,3,0,0,0-.43-.06ZM191.64,181.75l4.84-17h4.23l0,17Zm-26.15,0,4.89-17h19l-4.84,17Zm42,13.57v-6.8l43.53,0-34.37,23.83-60,0,6.84-23.81,37.2,0v6.8h-10.2a3.4,3.4,0,1,0,0,6.8h0l23.81,0a3.4,3.4,0,0,0,0-6.8h-6.8ZM117.1,212.41l37-23.83h2.32l-6.57,22.87a3.26,3.26,0,0,0-.08.94l-32.7,0Zm15.63-18.14V188.6h8.85l-8.84,5.68Z"/></svg>