<svg id="Calque_1" data-name="Calque 1" xmlns="http://www.w3.org/2000/svg" viewBox="0 0 350 300"><defs><style>.cls-1{fill:none;stroke:#000;stroke-miterlimit:10;stroke-width:5px;}</style></defs><title>selected</title><path class="cls-1" d="M82.73,223.91c8.1-14.62,10.52-26.5,6.27-29.91-.76-.61-4-2.79-13.77,2.19v27.72a11.27,11.27,0,0,0,11.25,11.25h31.37c.22.37.44.75.67,1.12l-5.21,18.15a8,8,0,0,0,14.54,6.31l5-8.44a59,59,0,0,0,72.22,0l5,8.43a8,8,0,0,0,6.87,3.91,8,8,0,0,0,7.68-10.21l-5.21-18.15a59,59,0,0,0,8.32-37.21h11.59a11.27,11.27,0,0,0,11.25-11.25V162.63a11.27,11.27,0,0,0-11.25-11.25h-4.87V120.94a11.27,11.27,0,0,0-11.25-11.25H207.1a3.75,3.75,0,1,0,0,7.5h16.17a3.75,3.75,0,0,1,3.75,3.75v2.58H181v-2.58a3.75,3.75,0,0,1,3.75-3.75h6.85a3.75,3.75,0,0,0,0-7.5h-6.85a11.27,11.27,0,0,0-11.25,11.25v14.5h-8.92v-14.5a11.27,11.27,0,0,0-11.25-11.25H114.73a11.27,11.27,0,0,0-11.25,11.25v30.44h-17a11.27,11.27,0,0,0-11.25,11.25v18a3.75,3.75,0,0,0,7.5,0m160.41-18v2.87h-30.6c-.56-.61-1.13-1.2-1.71-1.79h12.44a11.22,11.22,0,0,0,9.23-4.83h6.89A3.75,3.75,0,0,1,243.14,162.63Zm-69.68-19.69v3.57c-1.47-.11-3-.17-4.46-.17s-3,.06-4.46.17v-3.57Zm-58.73-25.75h38.56a3.75,3.75,0,0,1,3.75,3.75v2.58H111v-2.58A3.75,3.75,0,0,1,114.73,117.19Zm-32,48.31v-2.87a3.75,3.75,0,0,1,3.75-3.75h19a11.22,11.22,0,0,0,9.23,4.83h12.44c-.58.59-1.15,1.18-1.71,1.79Zm38.68,91.4a.5.5,0,0,1-.81,0,.46.46,0,0,1-.08-.44l3.6-12.53q1.45,1.69,3,3.29Zm96.08-.4a.53.53,0,0,1-.08.44.5.5,0,0,1-.82-.05l-5.76-9.63q1.59-1.59,3-3.29Z"/><path d="M72.16,42a8.92,8.92,0,0,0-8.63,11.23,8.83,8.83,0,0,0,4.16,5.42l22.54,13-27,46.73a24.78,24.78,0,0,0-3.31,12.35V226L41.48,259.06a3.75,3.75,0,0,0,1.44,5.1A3.74,3.74,0,0,0,48,262.71l15.66-28.07,15.67,28.07a3.77,3.77,0,0,0,3.28,1.93,3.76,3.76,0,0,0,3.27-5.58L67.44,226V130.74a17.19,17.19,0,0,1,2.31-8.6l27-46.73L114,86l.9-.09-.61-.35a3.75,3.75,0,0,1,1.88-7,3.63,3.63,0,0,1,1.87.51l0,0L118,79,97.29,67.08l-.07,0a.1.1,0,0,0,0,0L71.44,52.15a1.41,1.41,0,0,1-.67-.86,1.42,1.42,0,0,1,1.38-1.79,1.4,1.4,0,0,1,.71.19l19.3,11.15a3.76,3.76,0,0,0,4.85-1,3.79,3.79,0,0,1,3-1.49,3.8,3.8,0,0,1,3.51,5.26,3.75,3.75,0,0,0,1.59,4.67l19.31,11.15a1.45,1.45,0,0,1,.66.86,1.43,1.43,0,0,1-1.38,1.8,1.44,1.44,0,0,1-.71-.2l-4.92-2.84L124,85l-9.1.91,4.36,2.52A8.93,8.93,0,1,0,128.19,73l-16.91-9.76a11.38,11.38,0,0,0-2.68-8.37L110,52.47a3.75,3.75,0,1,0-6.49-3.75l-1.37,2.37a11,11,0,0,0-2.06-.19A11.37,11.37,0,0,0,93.52,53L76.61,43.19A9,9,0,0,0,72.16,42Z"/><path d="M258.29,73.45a3.75,3.75,0,0,0-3.75,3.75V80a11.41,11.41,0,0,0-6.5,5.91H228.52a8.92,8.92,0,1,0,0,17.84h26V226l-18.46,33.08a3.75,3.75,0,1,0,6.55,3.65l15.67-28.07L274,262.71a3.74,3.74,0,0,0,3.27,1.93,3.76,3.76,0,0,0,3.28-5.58L262,226V103.7h26a8.92,8.92,0,1,0,0-17.84H268.55A11.39,11.39,0,0,0,262,79.94V77.2a3.74,3.74,0,0,0-3.75-3.75ZM228.52,96.2a1.42,1.42,0,0,1,0-2.84h22.29a3.75,3.75,0,0,0,3.72-3.26,3.81,3.81,0,0,1,3.71-3.3h.12a3.82,3.82,0,0,1,3.71,3.3,3.75,3.75,0,0,0,3.72,3.26h22.29a1.42,1.42,0,1,1,0,2.84H228.52Z"/><path d="M207.5,110h-19a3.5,3.5,0,0,0,0,7h19a3.5,3.5,0,0,0,0-7Z"/><path d="M79,177a4,4,0,0,0-4,4v20a4,4,0,0,0,8,0V181a4,4,0,0,0-4-4Z"/></svg>