<svg id="Calque_1" data-name="Calque 1" xmlns="http://www.w3.org/2000/svg" viewBox="0 0 350 300"><title>selected</title><path d="M243.41,43.87c5.34,0,7.48,1.25,9.56,5.55,3.1,6.43,6.82,12.55,10.42,18.47,1.84,3,3.73,6.12,5.49,9.19a7,7,0,0,1,1,2.86c0,1,0,2,0,3.07l-2-1.68a20.88,20.88,0,0,0-13.18-4.72c-5.34,0-9.88,2.06-12.46,5.64l-1.8,2.5c0-12.88,0-25.93-.17-38.83a11.85,11.85,0,0,1,.1-1.86,14.49,14.49,0,0,1,2.2-.18h.79M270,90.17c0,2.29,0,4.59,0,6.88l-2.05-1.72a20.88,20.88,0,0,0-13.18-4.72c-5.34,0-9.88,2-12.46,5.64l-1.82,2.52c0-2.85,0-5.72,0-8.6H270m0,14V112l-2.07-1.74a20.88,20.88,0,0,0-13.18-4.72c-5.34,0-9.88,2.06-12.46,5.64l-1.85,2.56c0-3.19,0-6.39,0-9.58H270m0,14.94V127c0,2.67,0,5.34,0,8H240.43V122c0-1,0-1.89,0-2.84H270M243.41,38.87h-.9c-5.47.13-7.25,1.42-7.19,7.1.29,25.32.12,50.64.11,76V140H275c0-20.48.05-40.31-.07-60.13a11.49,11.49,0,0,0-1.7-5.31C268,65.46,262,56.7,257.47,47.25c-3.18-6.6-7.52-8.38-14.06-8.38Zm2.94,46.3c1.68-2.33,4.88-3.56,8.4-3.56a15.75,15.75,0,0,1,10,3.56Zm0,14c1.68-2.33,4.88-3.56,8.4-3.56a15.75,15.75,0,0,1,10,3.56Zm0,14.94c1.68-2.33,4.88-3.56,8.4-3.56a15.75,15.75,0,0,1,10,3.56Z"/><path d="M192.8,34.86h0a6.19,6.19,0,0,1,2.44.52,11,11,0,0,1,4.85,4.34L210.46,61l7,14.33H107.76c4.9-9.57,10.08-18.92,15.44-27.88,5.26-8.8,6.41-10,8-10.81a8.28,8.28,0,0,1,4-1c2.84,0,6.09,1.35,9.85,2.92,5.12,2.13,11.49,4.78,19.31,4.78a36.21,36.21,0,0,0,6.19-.54,52.18,52.18,0,0,0,14.19-5.06c3.28-1.58,5.86-2.83,8.12-2.84m0-5c-6.77,0-12.82,6.17-23.17,8a30.53,30.53,0,0,1-5.33.47c-12.46,0-20.67-7.7-29.16-7.7a13.35,13.35,0,0,0-6.28,1.57c-2.82,1.47-4.38,3.37-10,12.68C113.75,53.49,107,65.42,99.64,80.3H225.46q-10.5-21.52-21-43a16.23,16.23,0,0,0-7.3-6.5,11.16,11.16,0,0,0-4.35-.9Z"/><path d="M195.88,134.05c8.25,0,15.1,0,21.56.07a11.29,11.29,0,0,1,3.71.42c.15.61.25,2.55-1.2,8.21-2.36,9.16-6.95,20.14-15.43,20.37-15.13.41-30,.62-44.16.62-12.9,0-25.68-.17-38-.52C115.26,163,107,151.49,105.11,139c-.48-3.14-.15-4.35,0-4.66a9.53,9.53,0,0,1,2.92-.25h21.39l34.3,0,13.43,0,18.76,0m0-5c-10.73,0-21.47,0-32.2,0l-34.29,0H108c-4.87,0-9.38.58-7.83,10.67,2.21,14.38,11.76,28.16,22.08,28.44q19,.53,38.11.52,22.15,0,44.3-.62c10.29-.29,16.63-10.53,20.13-24.13,3-11.82,1.5-14.8-7.31-14.87q-10.8-.08-21.6-.07Z"/><path d="M52.8,62.32c1.75,0,3,.37,5,5.43C63,80.28,68.51,92.42,74.25,103.85a15.77,15.77,0,0,0,5.16,5.56c-8.2,8.06-12.14,18.18-16,28-1.77,4.54-3.44,8.83-5.5,12.89-.28.54-.55,1.09-.82,1.64-2.09,4.29-2.72,4.9-3.94,4.9a6.05,6.05,0,0,1-1-.11c-1.76-.33-4-.73-4-7.31q0-14.07,0-28.15c0-17.24,0-35.07,0-52.6,0-5.79,1.34-6,3.33-6.26a10.39,10.39,0,0,1,1.29-.1m0-5a14,14,0,0,0-2,.15c-6.77,1-7.61,6.06-7.64,11.18-.13,26.93,0,53.85,0,80.78,0,5.91,1.53,11,8,12.23a10.8,10.8,0,0,0,2,.19c5.28,0,6.9-4.71,9.22-9.28C70,137.71,72.53,119.9,87.53,109.08c-3.39-2.79-7.32-4.52-8.81-7.48C72.84,89.91,67.44,78,62.47,65.85c-2.07-5-4.39-8.53-9.67-8.53Z"/><path d="M220.46,85.25V102H104.64V85.25H220.46m5-5H99.64V107H225.46V80.25Z"/><path d="M220.77,117.54v12.59H105.14V117.54H220.77m5-5H100.14v22.59H225.77V112.54Z"/><path d="M231.24,194.83v.32h-137c0-.11,0-.21,0-.32h137m5-5H89.67a39,39,0,0,0-.48,4.11c0,1.77.16,3.54.3,6.21H236.24V189.83Z"/><path d="M119.18,196.05h.15a18,18,0,0,1,12.78,5.41A18.56,18.56,0,0,1,118.75,233h-.34c-5.51-.09-10.18-2-13.52-5.43A18.4,18.4,0,0,1,100,214c.21-10.76,7.91-18,19.18-18m-.37,34.64h.53c9.4-.23,15.25-6,15.67-15.37V215c-.21-9.59-7.42-17.4-16.07-17.4a12.58,12.58,0,0,0-1.62.1c-9.11,1-14.87,7.28-15.39,16.66a14.85,14.85,0,0,0,4,11.19,17.43,17.43,0,0,0,12.89,5.16m.37-39.64c-14,0-23.92,9.41-24.18,22.9-.26,13.84,9.39,23.77,23.32,24h.43a23.46,23.46,0,0,0,.61-46.91Zm-.37,34.64c-7.08,0-12.25-4.53-11.88-11.07.38-6.78,4.16-11.19,11-12a9.07,9.07,0,0,1,1-.06c5.81,0,10.92,5.59,11.07,12.51-.28,6.13-3.33,10.41-10.8,10.6Z"/><path d="M239.87,146.07c.42,19.66,0,38.09-1,49.08H236.5l3.37-49.08m-1-57.69c-2.61,38-5.13,74.57-7.69,111.77h12.15c3.57-24.8,1.47-106.68-4.46-111.77Z"/><path d="M86.46,166q.57,8.74,1.14,17.65l.75,11.61H86.46V166M83.25,89.33l-1.79,1V200.25H93.68c-2.32-36-4.56-71.3-7-106.63-.11-1.5-2.23-2.87-3.41-4.29Z"/><path d="M241.37,106.91H84.27c-.33.9-.65,1.8-1,2.71,2.27,1,4.53,2.89,6.81,2.9q38.94.15,77.88.15,34.1,0,68.19-.12c2.15,0,4.29-2,6.43-3l-1.23-2.61Z"/><path d="M215.74,198.53v33.25h-1V198.53h1m5-5h-11v43.25h11V193.53Z"/><path d="M54.47,84.34h.14a7.45,7.45,0,0,1,1.07,2c3.12,7.61,6.48,15,10,21.93a9.88,9.88,0,0,0,2,2.65c-4.27,4.91-6.54,10.72-8.6,16-1,2.69-2,5.23-3.24,7.6-.17.34-.34.68-.5,1-.28.56-.66,1.34-.95,1.79a1.27,1.27,0,0,1-.36-.11,5.22,5.22,0,0,1-.33-2.33q0-8.51,0-17c0-10.4,0-21.15,0-31.72a9.26,9.26,0,0,1,.14-1.79l.17,0a3.22,3.22,0,0,1,.5,0m0-5a8.72,8.72,0,0,0-1.2.09c-4.08.58-4.59,3.65-4.61,6.75-.07,16.25,0,32.5,0,48.75,0,3.56.92,6.65,4.85,7.37a6.48,6.48,0,0,0,1.19.12c3.18,0,4.16-2.84,5.56-5.6,4.56-9,6.12-19.72,15.17-26.25-2.05-1.68-4.42-2.72-5.32-4.51-3.54-7-6.81-14.27-9.81-21.58-1.24-3-2.65-5.14-5.83-5.14Z"/></svg>