<?xml version="1.0" encoding="utf-8"?>
<!-- Generator: Adobe Illustrator 22.1.0, SVG Export Plug-In . SVG Version: 6.00 Build 0)  -->
<svg style="enable-background:new 0 0 500 500;" id="Calque_1" version="1.1" viewBox="0 0 500 500" x="0px"
     xmlns="http://www.w3.org/2000/svg" y="0px" xml:space="preserve">
<style type="text/css">
	.st0{fill:#EAEAEA;}
	.st1{fill:#8C8C8C;}
	.st2{fill:#FFFFFF;}
	.st3{fill:#EAEAEA;stroke:#8C8C8C;stroke-width:7;stroke-miterlimit:10;}
	.st4{fill:#070707;}
	.st5{fill:none;stroke:#8C8C8C;stroke-width:7;stroke-miterlimit:10;}
	.st6{fill:none;stroke:#8C8C8C;stroke-width:10;stroke-miterlimit:10;}
	.st7{fill:#8C8C8C;stroke:#8C8C8C;stroke-width:3;stroke-miterlimit:10;}
	.st8{fill:none;stroke:#8C8C8C;stroke-width:8;stroke-miterlimit:10;}
	.st9{fill:none;stroke:#8E8E8E;stroke-width:6;stroke-miterlimit:10;}
	.st10{fill:#8E8E8E;}
	.st11{fill:#505050;}
	.st12{fill:none;stroke:#8E8E8E;stroke-width:2;stroke-miterlimit:10;}
	.st13{fill:#8C8C8C;stroke:#8C8C8C;stroke-width:2;stroke-miterlimit:10;}
	.st14{fill:#8C8C8C;stroke:#FFFFFF;stroke-width:2;stroke-miterlimit:10;}
	.st15{fill:none;stroke:#FFFFFF;stroke-width:2;stroke-miterlimit:10;}
	.st16{fill:none;stroke:#8C8C8C;stroke-miterlimit:10;}
	.st17{fill:none;stroke:#8C8C8C;stroke-width:13;stroke-miterlimit:10;}
	.st18{fill:#EAEAEA;stroke:#8C8C8C;stroke-width:8;stroke-miterlimit:10;}
	.st19{fill:none;stroke:#8C8C8C;stroke-width:4;stroke-miterlimit:10;}
	.st20{fill:#8C8C8C;stroke:#8C8C8C;stroke-width:0.75;stroke-miterlimit:10;}
	.st21{fill:none;stroke:#8C8C8C;stroke-width:9;stroke-miterlimit:10;}
	.st22{fill:#8C8C8C;stroke:#8C8C8C;stroke-width:0.5;stroke-miterlimit:10;}
	.st23{fill:#6B6B6B;}
	.st24{fill:none;}
	.st25{stroke:#8C8C8C;stroke-width:8;stroke-miterlimit:10;}
	.st26{fill:#8C8C8C;stroke:#8C8C8C;stroke-miterlimit:10;}
	.st27{fill:none;stroke:#8C8C8C;stroke-width:11;stroke-miterlimit:10;}
	.st28{fill:none;stroke:#8C8C8C;stroke-width:6;stroke-miterlimit:10;}
	.st29{stroke:#8C8C8C;stroke-width:6;stroke-miterlimit:10;}
	.st30{fill:#8C8C8C;stroke:#8C8C8C;stroke-width:4;stroke-miterlimit:10;}
	.st31{fill:#8C8C8C;stroke:#8C8C8C;stroke-width:1.05;stroke-miterlimit:10;}
	.st32{fill:#D6D6D6;}
	.st33{fill:none;stroke:#EAEAEA;stroke-width:5;stroke-miterlimit:10;}
	.st34{fill:#8C8C8C;stroke:#8C8C8C;stroke-width:10;stroke-miterlimit:10;}
	.st35{fill:none;stroke:#CECECE;stroke-width:2;stroke-miterlimit:10;}
	.st36{fill:none;stroke:#FFFFFF;stroke-width:4;stroke-miterlimit:10;}
	.st37{fill-rule:evenodd;clip-rule:evenodd;fill:#8C8C8C;}
	.st38{fill:#8C8C8C;stroke:#8C8C8C;stroke-width:8;stroke-miterlimit:10;}
	.st39{fill:#8C8C8C;stroke:#8C8C8C;stroke-width:7;stroke-miterlimit:10;}
	.st40{fill:#DBDBDB;stroke:#8C8C8C;stroke-width:7;stroke-miterlimit:10;}
	.st41{font-family:'HelveticaNeue-CondensedBold';}
	.st42{font-size:54px;}
	.st43{fill:none;stroke:#8C8C8C;stroke-width:5;stroke-miterlimit:10;}
	.st44{fill:none;stroke:#8C8C8C;stroke-width:3;stroke-miterlimit:10;}
	.st45{clip-path:url(#SVGID_2_);fill:#8C8C8C;}
	.st46{clip-path:url(#SVGID_2_);fill:none;stroke:#8C8C8C;stroke-width:8;stroke-miterlimit:10;}
	.st47{clip-path:url(#SVGID_2_);fill:#FFFFFF;}
	.st48{clip-path:url(#SVGID_2_);fill:#EAEAEA;}
	.st49{clip-path:url(#SVGID_2_);fill:none;stroke:#8C8C8C;stroke-miterlimit:10;}
	.st50{fill:none;stroke:#FFFFFF;stroke-width:0.75;stroke-miterlimit:10;}
	.st51{fill:none;stroke:#8C8C8C;stroke-width:14;stroke-miterlimit:10;}
	.st52{fill:none;stroke:#EAEAEA;stroke-width:2;stroke-miterlimit:10;}
	.st53{fill:none;stroke:#8C8C8C;stroke-width:2;stroke-miterlimit:10;}
</style>
    <rect class="st0" height="500" width="500" x="1"/>
    <g>
	<rect class="st24" height="144" width="500" y="361"/>
        <text class="st23 st41 st42" transform="matrix(1 0 0 1 134.063 399.5557)">Bétonnière</text>
</g>
    <path class="st1" d="M316.4,201c0-6.3,0-12.2,0-18.1c0-25.3,0.2-50.7-0.1-76c-0.1-5.7,1.7-7,7.2-7.1c7.1-0.2,11.6,1.5,15,8.4
	c4.6,9.4,10.5,18.2,15.7,27.4c0.9,1.6,1.7,3.5,1.7,5.3c0.1,19.8,0.1,39.6,0.1,60.1C343,201,330.3,201,316.4,201z M327.3,146.2
	c6,0,11.5,0,18.4,0C339.8,141.3,330.6,141.6,327.3,146.2z M327.3,160.2c6,0,11.5,0,18.4,0C339.8,155.3,330.6,155.6,327.3,160.2z
	 M327.3,175.1c6,0,11.5,0,18.4,0C339.8,170.2,330.6,170.5,327.3,175.1z"/>
    <path class="st1" d="M180.6,141.3c7.3-14.9,14.1-26.8,19.3-35.4c5.6-9.3,7.1-11.2,10-12.7c12.3-6.4,21.9,8.9,40.8,5.7
	c12.5-2.2,18.7-10.7,27.5-7.1c3.7,1.5,6,4.5,7.3,6.5c7,14.3,14,28.7,21,43C264.5,141.3,222.6,141.3,180.6,141.3z"/>
    <path class="st1" d="M244.7,190.1c17.9,0,35.9-0.1,53.8,0c8.8,0.1,10.3,3,7.3,14.9c-3.5,13.6-9.8,23.8-20.1,24.1
	c-27.5,0.7-54.9,0.9-82.4,0.1c-10.3-0.3-19.9-14.1-22.1-28.4c-1.6-10.1,3-10.7,7.9-10.7C207.6,190.1,226.2,190.1,244.7,190.1z"/>
    <path class="st1" d="M168.5,170.1c-15,10.8-17.6,28.6-25.1,43.5c-2.6,5.1-4.3,10.4-11.2,9.1c-6.5-1.2-8-6.3-8-12.2
	c0-26.9-0.1-53.9,0-80.8c0-5.1,0.9-10.2,7.6-11.2c6.7-0.9,9.3,2.8,11.7,8.4c5,12.1,10.4,24.1,16.3,35.8
	C161.2,165.6,165.1,167.3,168.5,170.1z"/>
    <path class="st1" d="M306.5,141.2c0,9.4,0,17.6,0,26.8c-42.1,0-83.7,0-125.8,0c0-9.3,0-17.5,0-26.8
	C222.5,141.2,264.1,141.2,306.5,141.2z"/>
    <path class="st1" d="M306.8,173.5c0,7.6,0,14.6,0,22.6c-41.8,0-83.5,0-125.6,0c0-7.6,0-14.6,0-22.6
	C222.8,173.5,264.2,173.5,306.8,173.5z"/>
    <path class="st1" d="M170.5,261.2c-0.1-2.7-0.3-4.4-0.3-6.2c0-1.2,0.3-2.3,0.5-4.1c48.8,0,97.4,0,146.6,0c0,3.3,0,6.4,0,10.3
	C268.4,261.2,219.9,261.2,170.5,261.2z"/>
    <path class="st1" d="M200.4,252c12.8,0.1,23.1,10.6,23,23.4c-0.1,13.4-10.7,23.7-24,23.5c-13.9-0.2-23.6-10.2-23.3-24
	C176.3,261.4,186.3,252,200.4,252z M211,276.1c-0.2-7.3-5.9-13.2-12.1-12.4c-6.8,0.8-10.6,5.2-11,12c-0.4,6.7,5,11.2,12.3,11.1
	C207.7,286.5,210.7,282.2,211,276.1z"/>
    <path class="st1" d="M319.8,149.4c5.9,5.1,8,87,4.5,111.8c-3.8,0-7.8,0-12.1,0C314.7,224,317.2,187.3,319.8,149.4z"/>
    <path class="st1" d="M174.7,261.3c-4.3,0-8,0-12.2,0c0-36.8,0-73.4,0-109.9c0.6-0.3,1.2-0.7,1.8-1c1.2,1.4,3.3,2.8,3.4,4.3
	C170.1,189.9,172.4,225.3,174.7,261.3z"/>
    <path class="st1" d="M323.6,170.5c-2.1,1.1-4.3,3-6.4,3c-48.7,0.2-97.4,0.1-146.1,0c-2.3,0-4.5-1.9-6.8-2.9c0.3-0.9,0.7-1.8,1-2.7
	c52.4,0,104.7,0,157.1,0C322.8,168.8,323.2,169.6,323.6,170.5z"/>
    <rect class="st1" height="43.2" width="11" x="290.7" y="254.5"/>
    <path class="st0" d="M156.4,171.6c-9.1,6.5-10.6,17.3-15.2,26.2c-1.6,3.1-2.6,6.2-6.7,5.5c-3.9-0.7-4.9-3.8-4.9-7.4
	c0-16.2-0.1-32.5,0-48.7c0-3.1,0.5-6.2,4.6-6.7c4-0.6,5.6,1.7,7,5.1c3,7.3,6.3,14.5,9.8,21.6C152,168.8,154.4,169.9,156.4,171.6z"/>
</svg>
