<svg id="Calque_1" data-name="Calque 1" xmlns="http://www.w3.org/2000/svg" viewBox="0 0 350 300"><title>selected</title><g id="uMEr2s.tif"><path d="M161.14,28a5.53,5.53,0,0,0,.94.29,8.67,8.67,0,0,1,6.75,6,6.37,6.37,0,0,0,5.07,4.36c17.22,3.46,31.52,10.33,42.52,20.43s19.05,23.76,24,40.62c2.66,9.12,2.77,18.46,2.64,28.84,0,.88,0,1.76,0,2.71v5.41h11.37c1.78,0,3.25,0,4.61,0,1.75,0,1.84.47,2,1.14a1.07,1.07,0,0,1-.93,1.32,10.77,10.77,0,0,1-1.68.1q-34.26,0-68.53,0H81.51a19.41,19.41,0,0,1-2.28-.09c-.18,0-1.07-.16-1.07-.74,0-2.29,0-4.61-.07-6.85-.17-11.78-.33-22.91,3.06-33.76,4.85-15.55,12.52-28.34,22.78-38s23.43-16.52,39.19-20.42c3.79-.41,8.34-1.71,10.41-7.7.49-1.43,2.17-2.55,5-3.34a9.53,9.53,0,0,0,1-.35h1.63m-53,54.68c3.3,0,5.62-1.75,7.45-3.47l1.86-1.76c2.51-2.36,4.87-4.6,7.42-6.61a56.16,56.16,0,0,1,16.32-8.54c5.65-2,6.86-6,6.89-9.06a9.53,9.53,0,0,0-2.69-6.86,9.28,9.28,0,0,0-6.65-2.7,10.79,10.79,0,0,0-3.39.55,70.36,70.36,0,0,0-21.23,11,142.69,142.69,0,0,0-10.82,9.53l-1.81,1.7a9,9,0,0,0-2.2,10.23,9.29,9.29,0,0,0,8,6,8.25,8.25,0,0,0,.86,0M95.45,102.74A9.62,9.62,0,0,0,105,93.5a9.33,9.33,0,0,0-2.65-6.76,9.72,9.72,0,0,0-6.94-3,9.51,9.51,0,0,0-9.47,9.45,9.59,9.59,0,0,0,9.39,9.53h.14M162,24h-3.28c-.43.17-.85.37-1.29.5-3.36.94-6.56,2.65-7.68,5.89-1.32,3.81-3.9,4.7-7.24,5l-.2,0q-49.75,12.24-65,61.16c-4.27,13.67-3.2,27.8-3.17,41.81a4.84,4.84,0,0,0,4.58,4.7,23.25,23.25,0,0,0,2.77.12H189.83q34.26,0,68.54,0a15.23,15.23,0,0,0,2.24-.14,5.08,5.08,0,0,0,4.28-6.1c-.59-2.8-2.5-4.27-5.84-4.32-1.55,0-3.11,0-4.67,0H247c0-1.51,0-2.79,0-4.07.12-10.1.06-20.22-2.8-30Q228.8,45.64,174.69,34.71a2.47,2.47,0,0,1-2.11-1.82,12.62,12.62,0,0,0-9.65-8.5A6.79,6.79,0,0,1,162,24ZM108.14,78.68l-.48,0A5.27,5.27,0,0,1,103,75.19a5,5,0,0,1,1.23-5.82c4-3.77,8-7.63,12.33-11a66.15,66.15,0,0,1,20-10.36,7,7,0,0,1,2.15-.35,5.23,5.23,0,0,1,5.34,5.53c0,2.6-1.31,4.29-4.23,5.33A60.69,60.69,0,0,0,122.4,67.7c-3.36,2.64-6.42,5.67-9.54,8.59-1.38,1.29-2.83,2.39-4.72,2.39ZM95.45,98.74h-.08a5.61,5.61,0,0,1-5.45-5.53,5.51,5.51,0,0,1,5.47-5.45h0a5.49,5.49,0,1,1,0,11Z"/><path d="M160.63,154.69c.5,0,1.05.4,1.09,1.29.14,3.89.12,7.88.11,11.75v3.05q0,8.25,0,16.51c0,12.7,0,25.83,0,38.75,0,2.25-.43,3-1.19,3.49h-.22c-.78-.47-1.32-1.26-1.27-3.42.12-5.12.1-10.35,0-15.54a8.42,8.42,0,0,0-2.76-5.83c-19-16.1-37.73-31.92-55.18-46.61-1.62-1.36-1.73-1.75-1.7-2.11a1.2,1.2,0,0,1,1.24-1.17,1.67,1.67,0,0,1,.88.27,17,17,0,0,1,2,1.6l.51.43,33.89,28.67,10.32,8.72.23.21a12.39,12.39,0,0,0,1.26,1,6.52,6.52,0,0,0,3.58,1.13,5.77,5.77,0,0,0,5.67-5.39,15.09,15.09,0,0,0,.08-1.93c0-.13,0-.26,0-.39V157.44c0-2.17.47-2.41.88-2.61a1.32,1.32,0,0,1,.55-.14m0-4a5.21,5.21,0,0,0-2.32.56c-2.57,1.27-3.11,3.61-3.11,6.19v31.71a14.05,14.05,0,0,1,0,1.84c-.14,1.21-.82,1.88-1.7,1.88a2.58,2.58,0,0,1-1.39-.48,11.8,11.8,0,0,1-1.1-.91L106.76,154.1a25,25,0,0,0-3.06-2.39,5.64,5.64,0,0,0-3-.86,5.19,5.19,0,0,0-5.24,4.91c-.15,2.46,1.4,4,3.13,5.43q27.62,23.25,55.16,46.6a4.38,4.38,0,0,1,1.35,2.88c.13,5.11.15,10.23,0,15.35-.07,3.47,1,6.12,4.37,7.51h2.05c3.33-1.42,4.28-4,4.26-7.51-.11-18.41,0-36.83,0-55.24,0-5,.06-10-.12-14.94a5.15,5.15,0,0,0-5.08-5.15Z"/><path d="M138.74,51.68a1.36,1.36,0,0,1,1,.34,1.64,1.64,0,0,1,.37,1.15c0,.67,0,1-1.57,1.6a63.49,63.49,0,0,0-18.58,9.78c-2.84,2.24-5.45,4.71-8,7.09-.61.58-1.22,1.16-1.84,1.73-1,.92-1.57,1.31-2,1.31H108a1.29,1.29,0,0,1-1.32-1c-.33-.81-.11-1.1.24-1.42l1.82-1.72c3.29-3.09,6.68-6.29,10.22-9a62.27,62.27,0,0,1,18.83-9.73,3.09,3.09,0,0,1,.91-.15m0-4a7,7,0,0,0-2.15.35,66.15,66.15,0,0,0-20,10.36c-4.35,3.35-8.32,7.21-12.33,11A5,5,0,0,0,103,75.19a5.27,5.27,0,0,0,4.66,3.47l.48,0c1.89,0,3.34-1.1,4.72-2.39,3.12-2.92,6.18-6,9.54-8.59a60.69,60.69,0,0,1,17.45-9.16c2.92-1,4.21-2.73,4.23-5.33a5.23,5.23,0,0,0-5.34-5.53Z"/></g></svg>