<svg id="Calque_1" data-name="Calque 1" xmlns="http://www.w3.org/2000/svg" viewBox="0 0 350 300"><title>selected</title><path d="M240,72l.35,13,.11,4,4-.11,14.14-.39h.25a8.92,8.92,0,0,1,9,8.72l3.65,134.44a9,9,0,0,1-8.72,9.21L84.55,245.69H84.3a8.91,8.91,0,0,1-9-8.72L71.7,102.53a9,9,0,0,1,8.72-9.2L94.56,93l4-.11-.11-4-.35-13,33.9-.92.35,13,.11,4,4-.11L202.55,90l4-.11-.11-4-.35-13L240,72M86.72,234.18l4-.1,165.22-4.49,4-.11-.11-4L256.53,104l-.11-4-4,.11L87.21,104.6l-4,.1.11,4,3.3,121.49.1,4M241.81,67.91h-.06l-37.64,1a2.15,2.15,0,0,0-2.07,2.2l.4,14.89-66.09,1.79L136,72.92a2.14,2.14,0,0,0-2.14-2.08h-.05l-37.64,1a2.14,2.14,0,0,0-2.07,2.2L94.45,89l-14.14.38A13,13,0,0,0,67.7,102.64l3.65,134.44a13,13,0,0,0,13,12.62h.36l178.18-4.84a13,13,0,0,0,12.6-13.31L271.8,97.1a13,13,0,0,0-13-12.61h-.35l-14.15.39L243.94,70a2.13,2.13,0,0,0-2.13-2.08ZM90.61,230.08,87.32,108.59l165.21-4.48,3.3,121.48h0L90.61,230.08Z"/><path d="M223.7,118.61l.15,5.75.11,4,4-.1,5.75-.16.08,3-5.75.16-4,.1.11,4,.16,5.75-3,.08-.16-5.75-.11-4-4,.11-5.75.16-.08-3,5.75-.16,4-.1-.11-4-.15-5.75,3-.08m2.08-4.06h-.05l-7.24.2a1.85,1.85,0,0,0-1.81,1.9l.22,7.9-7.9.21a1.86,1.86,0,0,0-1.8,1.91l.19,7.24a1.87,1.87,0,0,0,1.86,1.81h.05l7.89-.22.22,7.89a1.85,1.85,0,0,0,1.85,1.81h.05l7.25-.2a1.85,1.85,0,0,0,1.8-1.9l-.21-7.9L236,135a1.86,1.86,0,0,0,1.81-1.91l-.2-7.24A1.86,1.86,0,0,0,235.8,124h-.06l-7.89.22-.21-7.89a1.87,1.87,0,0,0-1.86-1.81Z"/><path d="M129.87,130.91l.08,3-22.46.61-.08-3,22.46-.61m2.08-4.06h0l-26.74.73a1.86,1.86,0,0,0-1.8,1.91l.19,7.24a1.87,1.87,0,0,0,1.86,1.81h0l26.74-.72A1.86,1.86,0,0,0,134,135.9l-.2-7.24a1.86,1.86,0,0,0-1.86-1.81Z"/></svg>