<svg id="Calque_1" data-name="Calque 1" xmlns="http://www.w3.org/2000/svg" viewBox="0 0 350 300"><title>selected</title><path d="M294.19,22.08a12.21,12.21,0,0,1,9.15,3.65,12.37,12.37,0,0,1,3,9.67c-.59,7.48-1.53,15.58-3,25.51-.61,4.22-3.31,6.64-7.4,6.64-.35,0-.7,0-1.06,0-.9-.09-1.79-.13-2.65-.13a22.69,22.69,0,0,0-16.88,7.35c-8.63,8.79-17.53,17.62-26.13,26.16l-1.85,1.83c-1.32,1.31-4.07,4-2.56,9,.73,2.38.08,4.54-2,6.61-1.19,1.18-2.36,2.36-3.54,3.54-2.23,2.24-4.53,4.56-6.83,6.78a6.87,6.87,0,0,0-1.76,8.25,7.49,7.49,0,0,1,.56,2.09l-2.79-2.61c-1.05-1-2.07-1.93-3.06-2.84-2.1-1.95-4.09-3.79-6-5.66a3.37,3.37,0,0,1-1.18-1.83c0-.19.28-.48.36-.56.29-.28.43-.28.49-.28a3.79,3.79,0,0,1,2.05,1.22l1.54,1.43.54.49,2.85,2.65,2.72-2.78,12.11-12.33,2.81-2.85-2.85-2.8L217.92,87.67l-2.85-2.81-2.81,2.86L208.11,92l-7.73,7.89-2.65,2.71,2.55,2.79.68.72c.57.6,1.27,1.35,1.88,2.09.31.39.75,1.13.15,1.71a1.24,1.24,0,0,1-.74.42,1.2,1.2,0,0,1-.72-.42c-2.09-2-4.08-4.23-6-6.36l-2.44-2.68-2.82-3-2.94,2.94-15.11,15.12-13.35,13.35-3,3L159,135c.69.61,1.42,1.23,2.18,1.88,1.7,1.46,3.46,3,5.08,4.57,4.32,4.31,4.31,8.54-.06,12.92-14.46,14.51-27.89,27.94-41.05,41.06-2.21,2.2-4.39,3.31-6.47,3.31s-4.4-1.17-6.71-3.49c-1.56-1.57-3.08-3.2-4.55-4.79l-1.91-2.05-2.83-3-2.92,2.93L93,195.21l-9.49,9.55-2.81,2.83,2.82,2.82L119.13,246l3,2.95,2.82-3.08c.82-.89,1.67-1.83,2.53-2.78,1.95-2.16,4-4.4,6-6.54,6.81-7,12.58-12.77,15.83-15.87s9.52-9.08,16.82-16l.65-.6.32-.82a4.32,4.32,0,0,1,1-1.37c17.24-17.27,35.81-35.84,56.77-56.77a22.61,22.61,0,0,1,1.86-1.59c.46-.37,1-.78,1.54-1.26l3-2.49a6.55,6.55,0,0,1-2.17,4.25c-18.94,19-39,39.08-59.65,59.66a2.61,2.61,0,0,1-1.42.88l-1.58.07-1.1,1.13q-2.87,2.93-5.74,5.83C149,222.4,138.05,233.52,128,245.2l0,.05c-1,1.16-3.35,3.89-6.33,4.13h-.29c-1.57,0-3.74-1-6.83-3.27l-2.76-2-2.41,2.41L107,248.85a6.34,6.34,0,0,0-.57-2.52l.9-.91,2.84-2.82-2.83-2.84-7.09-7.1-11-11.07L86.7,219l-2.8,2.27-4.22,3.43-1.14.91L75,228.49l3.26,3.14c2,1.92,4.07,3.84,6.17,5.69,4.06,3.58,7.43,6.23,9.89,8.16l.9.72L94,247.42l-.14-.23a17.51,17.51,0,0,0-6.39-6.49,11.65,11.65,0,0,0-3.62-1.32c-.73-.15-.73-.15-1.1-.53-1.28-1.28-2.54-2.58-3.86-3.95L77.06,233l-2.82-2.9-2.87,2.85-4.62,4.59-2.91,2.89,3,2.84c2.69,2.58,5,4.76,6.71,6.41l.67.64c4.81,4.57,7.1,6.8,8.26,8.71l-2.33,2.33a52,52,0,0,1-3.47-4.24c-1.3-1.69-2.77-3.6-4.61-5.76a96.2,96.2,0,0,0-7.19-7.55l-3.32-3.13-2.67,3.7c-.41.57-.77,1.11-1.12,1.63a18.92,18.92,0,0,1-1.61,2.16c-1.83,1.93-3.34,3.74-3.39,6.24,0,2.88,2,5,3.39,6.34C59.91,264.54,64,268.6,68,272.58c1.67,1.64,3.55,3.16,6.11,3.16s4.42-1.51,6.07-3.15c.51-.5,1-1,1.52-1.51l.08,0a12.72,12.72,0,0,0,2.24.21c.21,0,.41,0,.61,0l-3.44,3.48a11,11,0,0,1-3.25,2.32,11.25,11.25,0,0,1-4.3.91h-.45c-4.56-.23-7.63-4-8.2-4.79l-.11-.14-.11-.13c-6-6.74-8.57-8.83-10.31-9.46-1.68-1.82-3.73-4.75-3.78-8.22,0-.24,0-.52-.06-.86-.11-1.34-.31-3.59,3.34-7.22q6.43-6.4,12.85-12.84,6.25-6.26,12.53-12.51a14.4,14.4,0,0,1,1.51-1.23q.44-.32.78-.6l2-1.58L83,216c-.07-.28-.1-.48-.13-.62a4.74,4.74,0,0,0-1-2.33c-3.72-4.4-3.62-7.39.4-11.4l73-73,24.34-24.34,1.36-1.36c1-1,2-2,3-3,2.25-2.28,4.07-2.54,5.24-2.54a9,9,0,0,1,3,.59,6.21,6.21,0,0,0,2.05.34,8.32,8.32,0,0,0,5.38-2c3.67-3.38,7.14-6.94,10.11-10,2.38-2.45,4.31-2.74,5.55-2.74a9.21,9.21,0,0,1,2.53.4,6.14,6.14,0,0,0,1.68.23,8.06,8.06,0,0,0,5.4-2.16c9-8.9,18.85-18.7,30-29.95a21.19,21.19,0,0,0,6.14-16.69c-.38-7.29,1.79-9.75,9.3-10.53s14.64-1.61,21.47-2.53a18.91,18.91,0,0,1,2.34-.16m-30.54,53,.16,2.31h3.77a4.25,4.25,0,0,0,2.53-.84l.18-.14a8.55,8.55,0,0,0,1.43-1.25C277.79,68.33,284.42,65,292,65c.83,0,1.68,0,2.54.12l.23,0h.18c3,0,5.89-3.18,6.26-5.82,1-7,1.9-14.42,2.78-22.81.42-3.91-.34-7-2.26-9.11s-4.4-3-7.75-3a20.8,20.8,0,0,0-2.53.17l-1.69.21c-6.29.79-12.79,1.61-19.18,2.2-3.63.33-7.86,2.07-7.33,8.44.61,7.28-1.83,13.44-7.44,18.84A17.91,17.91,0,0,1,253.45,56c-.45.29-.87.57-1.25.84l-3.79,2.73,3.28,3.32L259,70.36l4.62,4.71M255.77,90l2.83-2.57,2-1.85,1.58-1.45,3.1-2.82-3-3L259,75l-8.77-8.77-2.59-2.59L244.81,66l-3.74,3.14-3.35,2.8L240.8,75l5.41,5.42,6.86,6.88,2.7,2.71M241,105.67l2.85-2.89,6.84-6.93L253.45,93l-2.8-2.8-2.5-2.51-9.61-9.65-2.8-2.81L232.91,78,231,79.87l-5,4.9-2.87,2.8L226,90.43l3,3,9.19,9.33,2.85,2.89M118.62,196.13a7.8,7.8,0,0,0,5.41-2.68c4.7-4.82,9.57-9.67,14.28-14.35,1.81-1.81,3.62-3.61,5.42-5.42l4.69-4.68,15.81-15.81.18-.17a8.58,8.58,0,0,0,2.36-3.39,6,6,0,0,0-1.71-6.28c-1.76-1.83-3.5-3.73-5-5.42l-1.79-2-2.82-3-2.94,2.93-38.91,38.76-6.86,6.83-2.9,2.89,3,2.83c.62.6,1.27,1.2,1.94,1.82,1.52,1.4,3.09,2.85,4.49,4.38a7.55,7.55,0,0,0,5.41,2.76M99.14,256.76l-6.38,6.39-1.14,1.14a13.15,13.15,0,0,0-.12-3l4.16-4.17h.56a12.84,12.84,0,0,0,2.92-.34M294.19,18.08a21.88,21.88,0,0,0-2.87.2Q280.67,19.7,270,20.79c-9.57,1-13.38,5.17-12.89,14.72a17.21,17.21,0,0,1-5,13.67q-14.92,15-30,29.91a4.1,4.1,0,0,1-2.59,1A1.88,1.88,0,0,1,219,80a12.89,12.89,0,0,0-3.66-.56c-3.19,0-5.93,1.39-8.42,4-3.25,3.36-6.52,6.69-9.95,9.85a4.38,4.38,0,0,1-2.67,1,2.23,2.23,0,0,1-.7-.11,12.93,12.93,0,0,0-4.38-.82,11.14,11.14,0,0,0-8.09,3.73c-1.44,1.46-2.89,2.9-4.34,4.35L79.42,198.77c-5.52,5.52-5.7,10.81-.63,16.82.12.14.11.39.32,1.28A27.18,27.18,0,0,0,76.49,219C68,227.42,59.58,235.9,51.11,244.33c-5.62,5.59-4.48,9.6-4.46,11,.09,5.92,4.11,10.25,5.93,12l0,0a.29.29,0,0,1,.19-.06c.72,0,2.85,1.56,9,8.38.6.81,4.66,6.06,11.2,6.39l.65,0a15.22,15.22,0,0,0,5.93-1.26A14.74,14.74,0,0,0,84,277.58c3.83-3.9,7.72-7.74,11.58-11.61q8.32-8.31,16.59-16.61c3.7,2.67,6.52,4,9.17,4,.2,0,.41,0,.61,0,4.68-.37,7.85-4.12,9.08-5.55,11.73-13.64,24.53-26.33,37.13-39.19a6.25,6.25,0,0,0,4.07-2.05q29.88-29.79,59.67-59.66c3.26-3.28,4.26-7.28,2.43-11.61-.72-1.72-.34-2.65.86-3.81,3.52-3.41,6.94-6.91,10.41-10.37,3-3,4.22-6.64,3-10.61-.73-2.36.1-3.52,1.55-5,9.37-9.3,18.76-18.6,28-28a18.89,18.89,0,0,1,14-6.15c.74,0,1.49,0,2.26.11a14.35,14.35,0,0,0,1.45.07c6,0,10.46-3.82,11.36-10.07,1.24-8.55,2.32-17.15,3-25.76.82-10.43-6.19-17.64-16.09-17.64Zm-26.61,55.3s0,0,0,0L254.54,60.11a33.65,33.65,0,0,0,4-3c6.25-6,9.38-13.36,8.66-22.06-.26-3.09.91-3.86,3.71-4.12,7-.65,14-1.55,21-2.42a15,15,0,0,1,2-.14c4.6,0,6.59,2.46,6,7.69-.81,7.57-1.7,15.14-2.77,22.67-.13.91-1.55,2.38-2.3,2.38h-.05c-1-.09-1.95-.14-2.9-.14-9.44,0-16.92,4.36-23.25,11.47a7.29,7.29,0,0,1-1.05.86.15.15,0,0,1-.11,0ZM255.9,84.46c-3.81-3.83-7.93-8-12.27-12.3L247.38,69l12.14,12.14-3.62,3.3ZM241,100,228.82,87.62l6.88-6.74L247.82,93,241,100Zm-38.73,14.32a5.06,5.06,0,0,0,3.54-1.56,5.12,5.12,0,0,0,.15-7.09c-1-1.2-2.07-2.29-2.71-3l11.89-12.13L238,113.05l-12.11,12.33c-.57-.52-1.31-1.2-2-1.9a7.24,7.24,0,0,0-4.8-2.31,4.63,4.63,0,0,0-3.3,1.43c-2.29,2.26-2.07,5.22.81,8.08s5.78,5.45,9.11,8.58c-1.58,1.32-2.7,2.12-3.66,3.08q-28.41,28.36-56.77,56.77a8.33,8.33,0,0,0-1.87,2.71c-7.32,6.91-13.56,12.86-16.85,16s-8.79,8.65-15.92,16c-3.08,3.15-6,6.48-8.67,9.41L86.31,207.58c5.19-5.23,10.6-10.67,16.33-16.42,2,2.14,4.22,4.59,6.54,6.93,3.1,3.11,6.33,4.66,9.54,4.66s6.28-1.49,9.29-4.48q20.57-20.49,41.06-41.07c5.93-5.94,6-12.68.05-18.57-2.47-2.46-5.21-4.65-7.43-6.61l28.46-28.47c2.69,2.9,5.5,6.19,8.59,9.19a5,5,0,0,0,3.51,1.55Zm-83.63,77.84a3.54,3.54,0,0,1-2.46-1.47c-2.15-2.34-4.57-4.42-6.62-6.38l45.76-45.59c1.95,2.12,4.36,4.83,6.88,7.43,1.81,1.87.47,3-.77,4.24q-10.26,10.24-20.5,20.5c-6.6,6.59-13.24,13.13-19.74,19.8a3.83,3.83,0,0,1-2.55,1.47Zm-17.43,53.81c-2.4-2.26-7.12-5.48-14.08-11.62-2.67-2.35-4.77-4.34-6-5.57l5.36-4.34,18.13,18.18-3.36,3.35c1.42,1.34,2,2.34,1.8,3.42-.43,2-3.73,3.74-6.77,3.74a6.68,6.68,0,0,1-2-.27l0,0L87.15,260c0,.12.07.24.1.36.25,1.05,1.09,4.55-.69,6.16a3.74,3.74,0,0,1-2.57.84,8.48,8.48,0,0,1-1.53-.15,8.27,8.27,0,0,1-1.92-.59l-3.21,3.19c-1.33,1.32-2.29,2-3.25,2s-1.94-.67-3.29-2c-4-3.93-7.9-7.88-11.83-11.83-3-3-3-3.82.07-7a43.7,43.7,0,0,0,3.07-4.19A94.94,94.94,0,0,1,69,253.93c5.51,6.46,7.79,10.95,11.55,12.64L87.15,260c-1.06-3.94-3.7-6.35-10.89-13.19-1.73-1.65-4-3.82-6.69-6.4l4.62-4.59c2,2.06,3.85,4,5.75,5.91,2.09,2.09,3.23,1.15,5.55,2.49,5.31,3.06,4.89,7.37,8.6,8.61l.17.05,6.93-6.89Z"/></svg>