<?xml version="1.0" encoding="utf-8"?>
<!-- Generator: Adobe Illustrator 22.1.0, SVG Export Plug-In . SVG Version: 6.00 Build 0)  -->
<svg style="enable-background:new 0 0 500 500;" id="Calque_1" version="1.1" viewBox="0 0 500 500" x="0px"
     xmlns="http://www.w3.org/2000/svg" y="0px" xml:space="preserve">
<style type="text/css">
	.st0{fill:#4FBDD7;}
	.st1{fill:#EAEAEA;}
	.st2{fill:#FFFFFF;}
	.st3{fill:#4FBDD7;stroke:#FFFFFF;stroke-width:5;stroke-miterlimit:10;}
	.st4{fill:#8C8C8C;}
	.st5{fill:#070707;}
	.st6{fill:none;stroke:#FFFFFF;stroke-width:7;stroke-miterlimit:10;}
	.st7{fill:none;stroke:#FFFFFF;stroke-width:10;stroke-miterlimit:10;}
	.st8{fill:#FFFFFF;stroke:#FFFFFF;stroke-width:3;stroke-miterlimit:10;}
	.st9{fill:none;stroke:#FDFFFF;stroke-width:6;stroke-miterlimit:10;}
	.st10{fill:#FAFEFF;}
	.st11{fill:none;stroke:#FFFFFF;stroke-width:2;stroke-miterlimit:10;}
	.st12{fill:#FFFFFF;stroke:#FFFFFF;stroke-width:2;stroke-miterlimit:10;}
	.st13{fill:#4FBDD7;stroke:#FFFFFF;stroke-width:4;stroke-miterlimit:10;}
	.st14{fill:#FFFFFF;stroke:#FFFFFF;stroke-width:4;stroke-miterlimit:10;}
	.st15{fill:none;stroke:#FFFFFF;stroke-miterlimit:10;}
	.st16{fill:#FFFFFF;stroke:#FFFFFF;stroke-width:13;stroke-miterlimit:10;}
	.st17{fill:#4FBDD7;stroke:#FFFFFF;stroke-width:8;stroke-miterlimit:10;}
	.st18{fill:#FFFFFF;stroke:#FFFFFF;stroke-width:0.75;stroke-miterlimit:10;}
	.st19{fill:#FFFFFF;stroke:#FFFFFF;stroke-width:0.5;stroke-miterlimit:10;}
	.st20{fill:#FFFFFF;stroke:#FFFFFF;stroke-width:8;stroke-miterlimit:10;}
	.st21{fill:#FFFFFF;stroke:#FFFFFF;stroke-miterlimit:10;}
	.st22{fill:#FFFFFF;stroke:#FFFFFF;stroke-width:11;stroke-miterlimit:10;}
	.st23{fill:#FFFFFF;stroke:#FFFFFF;stroke-width:6;stroke-miterlimit:10;}
	.st24{fill:none;}
	.st25{font-family:'HelveticaNeue-CondensedBold';}
	.st26{font-size:54px;}
	.st27{fill:#8C8C8C;stroke:#8C8C8C;stroke-width:4;stroke-miterlimit:10;}
	.st28{fill:#FFFFFF;stroke:#FFFFFF;stroke-width:1.05;stroke-miterlimit:10;}
	.st29{fill:none;stroke:#4FBDD7;stroke-width:5;stroke-miterlimit:10;}
	.st30{fill:none;stroke:#FFFFFF;stroke-width:4;stroke-miterlimit:10;}
	.st31{fill:#8C8C8C;stroke:#FFFFFF;stroke-width:4;stroke-miterlimit:10;}
	.st32{fill:#FFFFFF;stroke:#FFFFFF;stroke-width:10;stroke-miterlimit:10;}
	.st33{fill:none;stroke:#4FBDD7;stroke-width:2;stroke-miterlimit:10;}
	.st34{fill-rule:evenodd;clip-rule:evenodd;fill:#FFFFFF;}
	.st35{fill:#FFFFFF;stroke:#FFFFFF;stroke-width:7;stroke-miterlimit:10;}
	.st36{fill:#FFFFFF;stroke:#4FBDD7;stroke-width:7;stroke-miterlimit:10;}
	.st37{fill:#FCFCFC;}
	.st38{fill:#FFFFFF;stroke:#FFFFFF;stroke-width:5;stroke-miterlimit:10;}
	.st39{fill:none;stroke:#FFFFFF;stroke-width:3;stroke-miterlimit:10;}
	.st40{fill:none;stroke:#FFFFFF;stroke-width:8;stroke-miterlimit:10;}
	.st41{fill:none;stroke:#FFFFFF;stroke-width:6;stroke-miterlimit:10;}
	.st42{fill:#FFFFFF;stroke:#4FBDD7;stroke-width:3;stroke-miterlimit:10;}
	.st43{fill:none;stroke:#FFFFFF;stroke-width:0.75;stroke-miterlimit:10;}
	.st44{fill:#4FBDD7;stroke:#FFFFFF;stroke-width:9;stroke-miterlimit:10;}
	.st45{fill:none;stroke:#FFFFFF;stroke-width:9;stroke-miterlimit:10;}
	.st46{fill:none;stroke:#4FBDD7;stroke-width:3;stroke-miterlimit:10;}
</style>
    <rect class="st0" height="500" width="509" x="-2" y="1"/>
    <g>
	<g>
		<path class="st2" d="M283.3,151.5c0-2.1-0.8-3.9-2.3-5.5c-1.6-1.6-3.5-2.3-5.7-2.3h-67.5c-2.2,0-4.1,0.8-5.7,2.3s-2.3,3.4-2.3,5.5
			v67.7c0,2.2,0.8,4.1,2.3,5.7c1.6,1.6,3.5,2.3,5.7,2.3h67.5c2.2,0,4.1-0.8,5.7-2.3c1.6-1.6,2.3-3.5,2.3-5.7V151.5L283.3,151.5z
			 M241.4,88c13.5,0,26.2,2.6,38,7.7c11.8,5.1,22.1,12.1,31,20.8c8.8,8.8,15.8,19.1,20.9,30.9c5.1,11.8,7.7,24.5,7.7,38
			c0,13.5-2.6,26.2-7.7,38c-5.1,11.8-12.1,22.1-20.9,31c-8.8,8.8-19.2,15.8-31,20.9c-11.8,5.1-24.5,7.7-38,7.7
			c-13.4,0-26-2.6-37.9-7.7c-11.9-5.1-22.2-12.1-31-20.9c-8.8-8.8-15.7-19.2-20.8-31c-5.1-11.8-7.7-24.5-7.7-38
			c0-13.5,2.6-26.2,7.7-38c5.1-11.8,12.1-22.1,20.8-30.9s19.1-15.7,31-20.8C215.4,90.6,228,88,241.4,88z M263.9,159.1
			c1.2,0,2.2,0.4,2.9,1.1c0.7,0.7,1.1,1.7,1.1,2.9v44.6c0,1.2-0.4,2.2-1.1,2.9c-0.7,0.7-1.7,1.1-2.9,1.1h-44.8
			c-1.2,0-2.2-0.4-2.9-1.1c-0.7-0.7-1.1-1.7-1.1-2.9v-44.6c0-1.2,0.4-2.2,1.1-2.9c0.7-0.7,1.7-1.1,2.9-1.1H263.9L263.9,159.1z"/>
	</g>
</g>
    <g>
	<rect class="st24" height="144" width="500" x="-3" y="360"/>
        <text class="st2 st25 st26" transform="matrix(1 0 0 1 105.1699 398.5557)">Bouton home</text>
</g>
</svg>
