<svg id="Calque_1" data-name="Calque 1" xmlns="http://www.w3.org/2000/svg" viewBox="0 0 350 300"><title>selected</title><path d="M114.75,59.84v5.94h-9.94A25,25,0,0,0,79.89,90.7v25l2.66,1a16.92,16.92,0,1,1-11.26,0l2.66-1v-25a30.89,30.89,0,0,1,30.86-30.86h9.94m4-4H104.81A34.9,34.9,0,0,0,70,90.7v22.2a20.92,20.92,0,1,0,13.94,0V90.7a20.94,20.94,0,0,1,20.92-20.92h13.94V55.84Z"/><path d="M270,147.45v20.36H193.86V147.45H270m4-4H189.86v28.36H274V143.45Z"/><path d="M231.7,63.78a38.19,38.19,0,0,1,38.09,33.84H194.07A37.9,37.9,0,0,1,231.7,63.78m0-4a41.84,41.84,0,0,0-41.84,41.84H274c0-23.11-19.2-41.84-42.3-41.84Z"/><path d="M270,217.64V235a3,3,0,0,1-3,3H193.86V217.64H270m4-4H189.86V242H267a7,7,0,0,0,7-7V213.64Z"/><path d="M270,119.56v6H95.78v-6H270m4-4H91.78v13.95H274V115.56Z"/><path d="M270,189.75v5.95H95.78v-5.95H270m4-4H91.78V199.7H274V185.75Z"/><path d="M171.92,217.64V238H98.75a3,3,0,0,1-3-3V217.64h76.14m4-4H91.78V235a7,7,0,0,0,7,7h77.17V213.64Z"/><path d="M134.08,63.78a37.9,37.9,0,0,1,37.63,33.84H96a38.19,38.19,0,0,1,38.09-33.84m0-4c-23.1,0-42.3,18.73-42.3,41.84h84.14a41.84,41.84,0,0,0-41.84-41.84Z"/><path d="M171.92,147.45v20.36H95.78V147.45h76.14m4-4H91.78v28.36h84.14V143.45Z"/><path d="M245.64,18a3,3,0,1,1,0,5.95h-11V45.89h11a3,3,0,0,1,3,3v5.48a58.51,58.51,0,0,0-33.84,0V48.86a3,3,0,0,1,3-3h11V24h-11a3,3,0,0,1,0-5.95h27.89m0-4H217.75a7,7,0,0,0,0,14h7V41.89h-7a7,7,0,0,0-7,7V60a54.8,54.8,0,0,1,41.84,0V48.86a7,7,0,0,0-7-7h-7V28h7a7,7,0,1,0,0-13.95Z"/><path d="M148,18A3,3,0,0,1,148,24h-11V45.89h11a3,3,0,0,1,3,3v5.48a58.71,58.71,0,0,0-16.92-2.5,62.77,62.77,0,0,0-17.38,2.52v-5.5a3,3,0,0,1,3-3h11.44V24h-11a3,3,0,1,1,0-5.95H148m0-4H120.14a7,7,0,1,0,0,14h7V41.89h-7.44a7,7,0,0,0-7,7V60a57.61,57.61,0,0,1,21.38-4.15A55.2,55.2,0,0,1,155,60V48.86a7,7,0,0,0-7-7h-7V28h7A7,7,0,0,0,148,14Z"/></svg>