<?xml version="1.0" encoding="utf-8"?>
<!-- Generator: Adobe Illustrator 22.1.0, SVG Export Plug-In . SVG Version: 6.00 Build 0)  -->
<svg style="enable-background:new 0 0 500 500;" id="Calque_1" version="1.1" viewBox="0 0 500 500" x="0px"
     xmlns="http://www.w3.org/2000/svg" y="0px" xml:space="preserve">
<style type="text/css">
	.st0{fill:#4FBDD7;}
	.st1{fill:#EAEAEA;}
	.st2{fill:#FFFFFF;}
	.st3{fill:#4FBDD7;stroke:#FFFFFF;stroke-width:5;stroke-miterlimit:10;}
	.st4{fill:#8C8C8C;}
	.st5{fill:#070707;}
	.st6{fill:none;stroke:#FFFFFF;stroke-width:7;stroke-miterlimit:10;}
	.st7{fill:none;stroke:#FFFFFF;stroke-width:10;stroke-miterlimit:10;}
	.st8{fill:#FFFFFF;stroke:#FFFFFF;stroke-width:3;stroke-miterlimit:10;}
	.st9{fill:none;stroke:#FDFFFF;stroke-width:6;stroke-miterlimit:10;}
	.st10{fill:#FAFEFF;}
	.st11{fill:none;stroke:#FFFFFF;stroke-width:2;stroke-miterlimit:10;}
	.st12{fill:#FFFFFF;stroke:#FFFFFF;stroke-width:2;stroke-miterlimit:10;}
	.st13{fill:#4FBDD7;stroke:#FFFFFF;stroke-width:4;stroke-miterlimit:10;}
	.st14{fill:#FFFFFF;stroke:#FFFFFF;stroke-width:4;stroke-miterlimit:10;}
	.st15{fill:none;stroke:#FFFFFF;stroke-miterlimit:10;}
	.st16{fill:#FFFFFF;stroke:#FFFFFF;stroke-width:13;stroke-miterlimit:10;}
	.st17{fill:#4FBDD7;stroke:#FFFFFF;stroke-width:8;stroke-miterlimit:10;}
	.st18{fill:#FFFFFF;stroke:#FFFFFF;stroke-width:0.75;stroke-miterlimit:10;}
	.st19{fill:#FFFFFF;stroke:#FFFFFF;stroke-width:0.5;stroke-miterlimit:10;}
	.st20{fill:#FFFFFF;stroke:#FFFFFF;stroke-width:8;stroke-miterlimit:10;}
	.st21{fill:#FFFFFF;stroke:#FFFFFF;stroke-miterlimit:10;}
	.st22{fill:#FFFFFF;stroke:#FFFFFF;stroke-width:11;stroke-miterlimit:10;}
	.st23{fill:#FFFFFF;stroke:#FFFFFF;stroke-width:6;stroke-miterlimit:10;}
	.st24{fill:#8C8C8C;stroke:#8C8C8C;stroke-width:4;stroke-miterlimit:10;}
	.st25{fill:#FFFFFF;stroke:#FFFFFF;stroke-width:1.05;stroke-miterlimit:10;}
	.st26{fill:none;stroke:#4FBDD7;stroke-width:5;stroke-miterlimit:10;}
	.st27{fill:none;stroke:#FFFFFF;stroke-width:4;stroke-miterlimit:10;}
	.st28{fill:#8C8C8C;stroke:#FFFFFF;stroke-width:4;stroke-miterlimit:10;}
	.st29{fill:#FFFFFF;stroke:#FFFFFF;stroke-width:10;stroke-miterlimit:10;}
	.st30{fill:none;stroke:#4FBDD7;stroke-width:2;stroke-miterlimit:10;}
	.st31{fill-rule:evenodd;clip-rule:evenodd;fill:#FFFFFF;}
	.st32{fill:#FFFFFF;stroke:#FFFFFF;stroke-width:7;stroke-miterlimit:10;}
	.st33{fill:#FFFFFF;stroke:#4FBDD7;stroke-width:7;stroke-miterlimit:10;}
	.st34{fill:#FCFCFC;}
	.st35{fill:#FFFFFF;stroke:#FFFFFF;stroke-width:5;stroke-miterlimit:10;}
	.st36{fill:none;}
	.st37{font-family:'HelveticaNeue-CondensedBold';}
	.st38{font-size:54px;}
	.st39{fill:none;stroke:#FFFFFF;stroke-width:3;stroke-miterlimit:10;}
	.st40{fill:none;stroke:#FFFFFF;stroke-width:8;stroke-miterlimit:10;}
	.st41{fill:none;stroke:#FFFFFF;stroke-width:6;stroke-miterlimit:10;}
	.st42{fill:#FFFFFF;stroke:#4FBDD7;stroke-width:3;stroke-miterlimit:10;}
	.st43{fill:none;stroke:#FFFFFF;stroke-width:0.75;stroke-miterlimit:10;}
	.st44{fill:#4FBDD7;stroke:#FFFFFF;stroke-width:9;stroke-miterlimit:10;}
	.st45{fill:none;stroke:#FFFFFF;stroke-width:9;stroke-miterlimit:10;}
	.st46{fill:none;stroke:#4FBDD7;stroke-width:3;stroke-miterlimit:10;}
</style>
    <rect class="st0" height="500" width="505" x="-4" y="1"/>
    <g>
	<rect class="st36" height="144" width="500" x="-1" y="367"/>
        <text class="st2 st37 st38" transform="matrix(1 0 0 1 165.0312 405.5557)">Brasure</text>
</g>
    <ellipse class="st2" cx="315.7" cy="128.2" rx="35.4"
             ry="1.7" transform="matrix(0.7428 -0.6695 0.6695 0.7428 -4.624 244.2804)"/>
    <ellipse class="st2" cx="325.4" cy="126" rx="35.4" ry="1.7"
             transform="matrix(0.7428 -0.6695 0.6695 0.7428 -0.6405 250.2498)"/>
    <ellipse class="st2" cx="336.4" cy="123.8" rx="35.4"
             ry="1.7" transform="matrix(0.7428 -0.6695 0.6695 0.7428 3.6568 257.0361)"/>
    <ellipse class="st2" cx="344.9" cy="123.8" rx="35.4"
             ry="1.7" transform="matrix(0.7428 -0.6695 0.6695 0.7428 5.8534 262.7545)"/>
    <ellipse class="st2" cx="349.8" cy="126" rx="35.4" ry="1.7"
             transform="matrix(0.7428 -0.6695 0.6695 0.7428 5.6354 266.588)"/>
    <ellipse class="st2" cx="355.9" cy="128.2" rx="35.4"
             ry="1.7" transform="matrix(0.7428 -0.6695 0.6695 0.7428 5.7312 271.2384)"/>
    <ellipse class="st2" cx="357.4" cy="133.1" rx="35.4"
             ry="1.7" transform="matrix(0.7313 -0.6821 0.6821 0.7313 5.2472 279.5451)"/>
    <ellipse class="st2" cx="355.1" cy="142" rx="35.4" ry="1.7"
             transform="matrix(0.7313 -0.6821 0.6821 0.7313 -1.3918 280.3699)"/>
    <ellipse class="st2" cx="352.9" cy="151.9" rx="35.4"
             ry="1.7" transform="matrix(0.7313 -0.6821 0.6821 0.7313 -8.7756 281.5045)"/>
    <ellipse class="st2" cx="353" cy="159.6" rx="35.4"
             ry="1.7" transform="matrix(0.7313 -0.6821 0.6821 0.7313 -13.9885 283.6736)"/>
    <ellipse class="st2" cx="355.6" cy="164" rx="35.4"
             ry="1.7" transform="matrix(0.7313 -0.6821 0.6821 0.7313 -16.2859 286.5673)"/>
    <ellipse class="st2" cx="358.1" cy="169.4" rx="35.4"
             ry="1.7" transform="matrix(0.7313 -0.6821 0.6821 0.7313 -19.328 289.7708)"/>
    <rect class="st2" height="77.8" transform="matrix(0.6552 -0.7554 0.7554 0.6552 -83.5208 278.239)" width="216.2" x="155"
          y="191.7"/>
</svg>
