<svg id="Calque_1" data-name="Calque 1" xmlns="http://www.w3.org/2000/svg" viewBox="0 0 350 300"><title>selected</title><path d="M196.42,27.78a.55.55,0,0,1,.55.55v5.91h0V146.92h0v5.9a.55.55,0,0,1-.55.55h-7.64v82.7a16.6,16.6,0,0,1-33.2,0v-82.7H148a.54.54,0,0,1-.55-.55v-6.45H112.5a.55.55,0,0,1-.39-.94l1.4-1.39a11.62,11.62,0,0,0,0-16.39,9.68,9.68,0,0,1-2.77-5.66l4.69,6.2A12.67,12.67,0,0,1,117.3,140l-1.81,5.29H147.4V121.78H110.71c0-.37,0-.73,0-1.1H147.4V91.17H110.68a9.91,9.91,0,0,1,0-1.09H147.4V60.57H110.66c0-.37,0-.73,0-1.1H147.4V36H115.49l1.81,5.3a12.65,12.65,0,0,1-1.87,11.78l-4.69,6.2a9.68,9.68,0,0,1,2.77-5.66,11.62,11.62,0,0,0,0-16.39l-1.4-1.39a.56.56,0,0,1-.12-.6.57.57,0,0,1,.51-.34h34.9V28.33a.55.55,0,0,1,.55-.55h48.47M198,35l.57.42c5.47,4,10.29,10.24,14,18L215,58.61l4-4,8.32-8.32a.57.57,0,0,1,.39-.16.54.54,0,0,1,.39.16.55.55,0,0,1,0,.77L217,58.18l-1.72,1.72.74,2.33c.67,2.09,1.27,4.26,1.79,6.46l1.08,4.66,4.39-1.89,11.65-5a.52.52,0,0,1,.21,0,.55.55,0,0,1,.51.33.61.61,0,0,1,0,.42.51.51,0,0,1-.3.3L221.75,73.3,219,74.49l.39,3c.38,2.84.63,5.77.76,8.7l.16,3.83h21.17a.55.55,0,0,1,.55.55.55.55,0,0,1-.55.55H220.28L220.12,95c-.13,2.93-.38,5.86-.76,8.7l-.4,3,2.79,1.2,13.57,5.84a.49.49,0,0,1,.29.3.54.54,0,0,1,0,.42.56.56,0,0,1-.51.33.41.41,0,0,1-.21,0l-11.65-5-4.39-1.89-1.09,4.65c-.51,2.21-1.11,4.39-1.78,6.47l-.74,2.32L217,123l11.14,11.13a.56.56,0,0,1,0,.78.53.53,0,0,1-.39.16.57.57,0,0,1-.39-.16L219,126.57l-4-4-2.42,5.15c-3.67,7.78-8.49,14-14,18l-.57.42,6-7c9.46-11,15.11-29.21,15.11-48.58S213.47,53.05,204,42l-6-7M110.91,62.69l4,4.52a12.63,12.63,0,0,1,.3,16.34l-4.34,5.34a9.63,9.63,0,0,1,2.69-5.14,11.62,11.62,0,0,0,0-16.39,9.65,9.65,0,0,1-2.6-4.67m-.09,29.67,4.34,5.34a12.64,12.64,0,0,1-.3,16.35l-4,4.51a9.65,9.65,0,0,1,2.6-4.67,11.62,11.62,0,0,0,0-16.39,9.6,9.6,0,0,1-2.69-5.14m85.6-68.58H148a4.55,4.55,0,0,0-4.55,4.55v2.55H112.5a4.56,4.56,0,0,0-3.22,7.77l1.4,1.39a7.6,7.6,0,0,1,0,10.74,13.74,13.74,0,0,0,0,19.41,7.59,7.59,0,0,1,0,10.73,13.74,13.74,0,0,0,0,19.41,7.6,7.6,0,0,1,0,10.74,13.74,13.74,0,0,0,0,19.41,7.59,7.59,0,0,1,0,10.73l-1.4,1.39a4.56,4.56,0,0,0,3.22,7.77h30.9v2.45a4.55,4.55,0,0,0,4.55,4.55h3.63v78.7a20.6,20.6,0,0,0,41.2,0v-78.7h3.64a4.55,4.55,0,0,0,4.55-4.55V149c6.13-4.51,11.31-11.27,15.2-19.55l8.33,8.32a4.55,4.55,0,0,0,6.43,0,4.56,4.56,0,0,0,0-6.43l-11.14-11.14c.7-2.19,1.33-4.45,1.87-6.78l11.65,5A4.55,4.55,0,0,0,236.9,110l-13.57-5.83c.39-3,.65-6,.78-9.06h17.34a4.55,4.55,0,1,0,0-9.1H224.12q-.21-4.62-.79-9.06l13.57-5.83a4.55,4.55,0,1,0-3.59-8.36l-11.65,5c-.54-2.33-1.17-4.59-1.87-6.78l11.14-11.14a4.55,4.55,0,0,0-3.22-7.76,4.5,4.5,0,0,0-3.21,1.33l-8.33,8.32c-3.89-8.28-9.07-15-15.2-19.55V28.33a4.55,4.55,0,0,0-4.55-4.55Zm-77.8,31.69A16.72,16.72,0,0,0,121.09,40H143.4V55.47ZM201,136.56v-92c8.68,10.14,14.15,27.32,14.15,46s-5.47,35.84-14.15,46ZM118.26,86.08a16.71,16.71,0,0,0-.39-21.51H143.4V86.08Zm-.39,30.6a16.71,16.71,0,0,0,.39-21.51H143.4v21.51Zm3.22,24.59a16.72,16.72,0,0,0-2.47-15.49H143.4v15.49Z"/><path d="M172.2,172.15h.08l.1,0a.46.46,0,0,1,.1.05l.09.07.06.08a.16.16,0,0,1,.05.09.76.76,0,0,1,0,.11.37.37,0,0,1,0,.11.22.22,0,0,1,0,.09.39.39,0,0,1,0,.11.54.54,0,0,1-.07.13l-.05.06-.08.06-.11.06-.09,0h-.2l-.11,0-.11-.06-.08-.06-.06-.08a.91.91,0,0,1-.06-.11s0-.05,0-.1a.25.25,0,0,1,0-.1v-.1a.62.62,0,0,1,0-.1.66.66,0,0,1,.08-.13s0,0,0-.06a.65.65,0,0,1,.41-.16m0-4a4.64,4.64,0,0,0-3.24,1.33,4.77,4.77,0,0,0-.56.7,5.3,5.3,0,0,0-.42.78,5.2,5.2,0,0,0-.26.85,4.4,4.4,0,0,0-.08.89,4.47,4.47,0,0,0,.08.89,4.92,4.92,0,0,0,.26.85,6,6,0,0,0,.42.79,5.44,5.44,0,0,0,.56.69,4.2,4.2,0,0,0,.7.56,4.9,4.9,0,0,0,.78.42,5.2,5.2,0,0,0,.85.26,4.47,4.47,0,0,0,.89.08,4.4,4.4,0,0,0,.89-.08,4.92,4.92,0,0,0,.85-.26,4.62,4.62,0,0,0,1.48-1,4.12,4.12,0,0,0,.56-.69,4.29,4.29,0,0,0,.42-.79,4.18,4.18,0,0,0,.26-.85,4.48,4.48,0,0,0,.09-.89,4.56,4.56,0,0,0-.35-1.74,3.91,3.91,0,0,0-.42-.78,4.2,4.2,0,0,0-.56-.7,4.57,4.57,0,0,0-.69-.56,4,4,0,0,0-.79-.42,4.18,4.18,0,0,0-.85-.26,4.28,4.28,0,0,0-.87-.09Z"/></svg>