<svg id="Calque_1" data-name="Calque 1" xmlns="http://www.w3.org/2000/svg" viewBox="0 0 350 300"><defs><style>.cls-1{fill:none;stroke:#000;stroke-miterlimit:10;stroke-width:4px;}</style></defs><title>selected</title><path class="cls-1" d="M137.59,91.74a15.4,15.4,0,0,0,12.74,6.86h4.41v18.13l-18.62,27.93a7,7,0,0,0-1,2.94V270.1A4.63,4.63,0,0,0,140,275h58.8a4.63,4.63,0,0,0,4.9-4.9V147.6a7,7,0,0,0-1-2.94l-18.62-27.93V98.6h3.92a15.63,15.63,0,0,0,13.23-6.86,14.6,14.6,0,0,0,1.47-14.21l-3.92-9.8a1.71,1.71,0,0,0-.49-1C193,57.44,192.47,46.17,196.88,31c1.47-2.94,2-6.86,2-10.78V8.93A28.24,28.24,0,0,0,170.91-19H168A28.24,28.24,0,0,0,140,8.93V20.2A26.37,26.37,0,0,0,142,31c3.92,14.21,3.92,27-1.47,35.77a.48.48,0,0,0-.49.49l-3.92,10.29a14.86,14.86,0,0,0,1.47,14.21M193.94,235.8h-49V149.07l17.15-26H176.3l17.64,26Zm-19.6-122.5h-9.8V98.6h9.8Z"/></svg>