<svg id="Calque_1" data-name="Calque 1" xmlns="http://www.w3.org/2000/svg" viewBox="0 0 350 300"><title>selected</title><path d="M113.73,47.46c.46,0,.91,0,1.32,0h.13c.32,0,.65,0,1.06,0l.37,0h.22a8.4,8.4,0,0,1,1,.07l1.7.26.76.12h.06l-.71.2h-.06l-.06,0-1.48.41a7.4,7.4,0,0,0-1,.36l-.09,0,0,0-.05,0-.06,0-.36.16-.05,0-.06,0-.58.25-.33.13A15.22,15.22,0,0,0,113,50.89l-.69.39a18.26,18.26,0,0,0-2.47,1.58l0,0-1.32,1-.06,0-.06,0c-.37.29-.69.59-1,.86l-.27.24-.22.2a22,22,0,0,0-2.11,2.09l-.18.21-.31.33c-.56.61-1,1.24-1.5,1.84l-.09.13,0,0,0,0-.33.44-.19.25-.07.1-.07.1-.08.12-.48.71,0,0h0a21.63,21.63,0,0,0-1.15,1.86l-.64,1.13-.06.1,0,.11L98.92,66c-.26.52-.46,1-.62,1.39l0,.13c-.07.18-.15.35-.22.52l-.07.16-.06.18c-.05.15-.11.29-.16.43l0,.06V69l0,.14a6.81,6.81,0,0,0-.32,1l0,0v0l-.08.33-.64,2.8L99,74.81a4.37,4.37,0,0,1,.88.68l29.8,29.8-.38,1.28a13.27,13.27,0,0,0-10.51,1.5L93.06,82.3a5.38,5.38,0,0,1-.42-.5L90.54,79l-3,1.7c-.36.2-.83.46-1.3.69l-2.76,1.3.58,3c0,.06,0,1.59-3.65,6-2.44,3-5.66,6.2-8.85,9.37L54.65,84.3c6.18-6.21,12.51-12.53,15.25-12.53H70l3,.57,1.35-2.74a18.24,18.24,0,0,1,3.2-4.74l3.18-3.17a9.34,9.34,0,0,1,5.11-2.63L87,58.89l.86-.75c.26-.24.58-.51.93-.78l0,0,0,0,1.45-1.15,0,0,.1-.07,1.44-1,0,0,0,0c.72-.54,1.55-1,2.42-1.57l.08,0,.3-.19.7-.42.06,0,.86-.46c1-.55,2-1.07,3.08-1.51l.2-.09a33.93,33.93,0,0,1,4-1.49h0l0,0,.7-.21c.55-.17,1-.31,1.48-.43l2.07-.42.07,0h.07a21.67,21.67,0,0,1,3.22-.43h0l.78-.07h.1l.09,0a11.34,11.34,0,0,1,1.39-.08m0-4a13.85,13.85,0,0,0-1.9.12l-.78.06a25,25,0,0,0-3.87.53l-2.16.44c-.67.16-1.23.33-1.79.51l-.68.21A35,35,0,0,0,98.07,47l-.2.08a37.54,37.54,0,0,0-3.42,1.68l-.9.48-.17.09-1,.64c-.94.57-1.91,1.15-2.81,1.82L88,52.85l-.21.16L86.33,54.2c-.39.3-.76.62-1.12.93a13.33,13.33,0,0,0-7.29,3.74L74.75,62a22.17,22.17,0,0,0-4,5.81,4.4,4.4,0,0,0-.89-.08C65,67.77,58.48,74.83,49,84.3l22.51,22.5C79.23,99.08,88.92,90,88,85c.51-.25,1-.52,1.49-.79a10,10,0,0,0,.81.93l28.32,28.33a9.54,9.54,0,0,1,7.21-3.39,9.22,9.22,0,0,1,2.71.4l3.53,1.05,2.2-7.4L102.75,72.66a8.88,8.88,0,0,0-1.62-1.27l.08-.32a6.48,6.48,0,0,1,.26-.78c.07-.2.15-.4.22-.61L102,69c.16-.38.33-.8.54-1.22l.59-1.2.67-1.19a16.71,16.71,0,0,1,1-1.56l.59-.89c.18-.23.36-.48.54-.72a20.23,20.23,0,0,1,1.36-1.68l.32-.36a19.83,19.83,0,0,1,1.94-2l.58-.52c.25-.23.49-.46.75-.67l1.38-1a.31.31,0,0,0,.11-.08,13.14,13.14,0,0,1,1.92-1.21c.29-.16.56-.31.84-.48a10.45,10.45,0,0,1,1.85-.88l1-.41.57-.25c.21-.08.41-.18.62-.24l1.51-.42,1-.28a10.38,10.38,0,0,1,1.29-.32l4.06-.6a2.69,2.69,0,0,0,2.3-2.47,2.71,2.71,0,0,0-1.93-2.77l-4-1.14a14.58,14.58,0,0,0-2.15-.42l-1-.15-1.75-.28a12.35,12.35,0,0,0-1.52-.11l-.56,0c-.46,0-.79,0-1.13,0s-1,0-1.5,0Z"/><path d="M134.79,77.49l-.94,3.15-3.15-3.15h4.09m5.36-4H121l14.74,14.73,4.37-14.73Z"/><path d="M165,25.94l2.22.65-1.54,11.84-3.42,6.63-1.31-.38-1.13,3.83L139.47,117l-1.14,3.83,3.83,1.14,7.49,2.23a1,1,0,0,1,.17,1.94l-3,1.52,1,3.2a8.31,8.31,0,0,1,.36,2.31,9.28,9.28,0,0,0-3.51-1.95,9.61,9.61,0,0,0-2.66-.38,9.42,9.42,0,0,0-7.91,4.36,9.4,9.4,0,0,0-1.13-4.59,9.34,9.34,0,0,0-11-4.47,8.45,8.45,0,0,1,2.07-2.47l2.51-2-1.46-2.88a1,1,0,0,1-.08-.79,1.07,1.07,0,0,1,1-.75,1.11,1.11,0,0,1,.3,0l7.78,2.31,3.84,1.14,1.14-3.83,20.34-68.47,1.13-3.83-1.32-.4.72-7.46L165,25.94m96.62,25.22L245,72.07,243.53,74l1,2.21L253.89,97l.85,1.89,2,.39,22.43,4.35,2.38.46,1.51-1.91,16.56-20.9a36.48,36.48,0,0,1-44.81,41.53l-2.81-.7-1.54,2.44a16.52,16.52,0,0,1-1.12,1.59l0,0,0,0-26.76,36.49-4.67,6.37h69V129.61a51.26,51.26,0,0,0,13.31-8.69v48.22h6.93v70.61a38.67,38.67,0,0,1-38.63,38.63H109.7a38.68,38.68,0,0,1-38.64-38.63V169.14H78V113.05l5.26-5.25a83.52,83.52,0,0,0,8.68-10.22l17.32,17.74a16.71,16.71,0,0,0-1.1,2.86l-1.68,5.66H91.3v45.3h81.13l-6.83-6.83-9.66-9.64,3.6-12.12a20.18,20.18,0,0,0,.86-6.6,13.37,13.37,0,0,0,1.68-3.59.65.65,0,0,0,0-.13l32.59,32.59a10,10,0,0,1,2.34,3.7l1,2.63h11.83l-1.44-5.09a21.63,21.63,0,0,0-5.52-9.41l-5.79-5.79,32.27-38.39,0,0,0,0c.4-.5.85-1,1.33-1.52l2-2.06-1.3-2.53a36.41,36.41,0,0,1,30.19-53.1m-98.78-30L156,35.62l-1.1,11.44.65.19-20.34,68.47-7.79-2.32a5,5,0,0,0-5.93,7.13,12.4,12.4,0,0,0-4.07,6.1L106,165.14H95.3v-37.3h14.16l2.53-8.53a12,12,0,0,1,2.34-4.5L91.48,91.39a101.79,101.79,0,0,1-11,13.57L74,111.4v53.74H67.06v74.61a42.64,42.64,0,0,0,42.64,42.63H268.5a42.63,42.63,0,0,0,42.63-42.63V165.14H304.2V110.51c-.39.53-.77,1.06-1.18,1.57a47.57,47.57,0,0,1-22.62,15.76h2.49v37.3H225.77l26.76-36.49a20.78,20.78,0,0,0,1.35-1.92,40.41,40.41,0,0,0,49.49-47.3,3.47,3.47,0,0,0-2.6-2.7,3.72,3.72,0,0,0-.81-.09A3.49,3.49,0,0,0,297.22,78L280,99.74,257.54,95.4l-9.36-20.85,17.26-21.78a3.5,3.5,0,0,0-2.74-5.66h-.1a40.41,40.41,0,0,0-34.74,59c-.53.57-1.06,1.16-1.56,1.8l-34.63,41.2,8.38,8.38a17.55,17.55,0,0,1,4.5,7.67h-3.74a14,14,0,0,0-3.27-5.16L149.86,112.3l-1.24,4.16,3.23,1a9.47,9.47,0,0,1,4.46,15.31,16.47,16.47,0,0,1-.6,6.65l-4.28,14.42,11.34,11.33H143.24l8.42-28.34a12.33,12.33,0,0,0,0-7.12,5,5,0,0,0-.86-9.33l-7.48-2.23,20.34-68.46.64.19,5.27-10.2,2.07-15.91-8.79-2.61Zm-52.63,144,9.39-31.63a5.37,5.37,0,0,1,5.14-3.83,5.44,5.44,0,0,1,1.53.22,5.35,5.35,0,0,1,3.6,6.66l-8.48,28.58Zm18.79,0,7.87-26.5a5.36,5.36,0,0,1,10.27,3.05l-7,23.45Z"/><path d="M213.87,77.48a51.9,51.9,0,0,0,2.43,21.34l-21,25H184.53L160.78,100.1l6.72-22.62h46.37m4.59-4H164.52l-8.25,27.76,26.6,26.59h14.26l23.71-28.21a48.09,48.09,0,0,1-2.38-26.15Z"/><path d="M294,177v81a8,8,0,0,1-8,8H92a8,8,0,0,1-8-8V177H294m4-4H80v85a12,12,0,0,0,12,12H286a12,12,0,0,0,12-12V173Z"/><path d="M217.84,199.34h0a8.66,8.66,0,0,0-8.59,7.66l-4.69,4.69-5.83-5.87h0a2.92,2.92,0,0,0-2.06-.86h0a2.92,2.92,0,0,0-2.07.86l-5.84,5.84-5.84-5.84a3,3,0,0,0-2.07-.85h0a2.91,2.91,0,0,0-2.08.87l-5.78,5.87-5.82-5.82a2.92,2.92,0,0,0-4.13,0l-5.84,5.8-5.84-5.84a2.94,2.94,0,0,0-2.07-.86h0a3,3,0,0,0-2.08.87l-5.78,5.87-5.82-5.82a2.93,2.93,0,0,0-5,2.07v22a12.79,12.79,0,0,0,12.78,12.79h0l68.43,0,18.8.13h0A12.86,12.86,0,0,0,243.42,230l.28-17.63v-.05a12.85,12.85,0,0,0-12.83-12.85l-13-.13ZM230.58,237l-15.82-.11L215,208v0a2.8,2.8,0,0,1,2.78-2.79l13,.13h0a7,7,0,0,1,7,7l-.29,17.63v0a7,7,0,0,1-7,7Zm-41.87-18.25a2.88,2.88,0,0,0,2.07-.86l5.83-5.83,5.83,5.88a3,3,0,0,0,2.07.87h0a2.94,2.94,0,0,0,2.07-.86l2.51-2.51-.08,8.47-72.63,0V215l2.9,2.9h0a2.94,2.94,0,0,0,2.07.86h0a2.93,2.93,0,0,0,2.07-.87l5.78-5.87,5.82,5.82a2.95,2.95,0,0,0,4.14,0l5.83-5.79,5.85,5.84a2.92,2.92,0,0,0,2.07.86h0a2.88,2.88,0,0,0,2.07-.88l5.79-5.87,5.82,5.82a2.88,2.88,0,0,0,2.07.86Zm-45.4,18.15a6.93,6.93,0,0,1-6.92-6.93v-.17l72.58,0-.07,7.1-65.58,0Z"/></svg>