<svg id="Calque_1" data-name="Calque 1" xmlns="http://www.w3.org/2000/svg" viewBox="0 0 350 300"><title>selected</title><path d="M192.21,13a46.76,46.76,0,0,1,29.41,83.13l-8.76,7.1h20.5A1.67,1.67,0,0,1,235,104.9v23.59l5.9-3.17,36.63-19.72a1.58,1.58,0,0,1,.58-.18c1,6.14,2,30.44,1.87,82.35a1.68,1.68,0,0,1-.81,1.43,1.7,1.7,0,0,1-.86.23,1.65,1.65,0,0,1-.78-.2l-36.63-19.71-5.9-3.18v23.6a1.67,1.67,0,0,1-1.66,1.66H81a1.67,1.67,0,0,1-1.67-1.66V160.22H61a1.66,1.66,0,0,1-1.66-1.66V136.28A1.66,1.66,0,0,1,61,134.61H79.35V104.9A1.67,1.67,0,0,1,81,103.23H95.8L89,96.42a34.28,34.28,0,1,1,50.73-46l5.1,6.15,1.87-7.76a47.08,47.08,0,0,1,16.34-25.6A46.25,46.25,0,0,1,192.21,13m0,90.23a43.45,43.45,0,1,0-43.45-43.45,43.5,43.5,0,0,0,43.45,43.45m-78.86,0a31,31,0,1,0-31-31,31,31,0,0,0,31,31m17.55,0h40.66l-8.77-7.1a47.14,47.14,0,0,1-10.43-11.88l-4.19-6.78-2.94,7.4a34,34,0,0,1-7.56,11.55l-6.77,6.81m-48.22,85h149V106.56h-149v81.71m-20-31.38H79.35V137.94H62.68v18.95M192.21,9a50.88,50.88,0,0,0-49.37,38.87A38.27,38.27,0,1,0,86.19,99.23H81a5.67,5.67,0,0,0-5.67,5.67v25.71H61a5.66,5.66,0,0,0-5.66,5.67v22.28A5.65,5.65,0,0,0,61,164.22H75.35v25.72A5.67,5.67,0,0,0,81,195.6H233.36a5.67,5.67,0,0,0,5.66-5.66V173l36.63,19.72a5.67,5.67,0,0,0,8.35-5c0-15.16.14-84-2.76-85.57a6.64,6.64,0,0,0-2.78-.8h-.13a5.68,5.68,0,0,0-2.68.68L239,121.79V104.9a5.67,5.67,0,0,0-5.66-5.67h-9.22A50.76,50.76,0,0,0,192.21,9Zm0,90.23a39.45,39.45,0,1,1,39.45-39.45,39.49,39.49,0,0,1-39.45,39.45Zm-78.86,0a27,27,0,1,1,27-27,27,27,0,0,1-27,27Zm27.16,0A38.45,38.45,0,0,0,149,86.35a50.93,50.93,0,0,0,11.33,12.88Zm-53.83,85V110.56h141v73.71Zm-20-31.38V141.94h8.67v10.95Z"/><path d="M113.35,59.06a13.21,13.21,0,1,1-13.21,13.21,13.13,13.13,0,0,1,13.21-13.21m0,24.22a11,11,0,1,0-11-11,11,11,0,0,0,11,11m0-28.22a17.21,17.21,0,1,0,17.21,17.21,17.23,17.23,0,0,0-17.21-17.21Zm0,24.22a7,7,0,1,1,7-7,7,7,0,0,1-7,7Z"/><path d="M192.21,39.07A20.71,20.71,0,1,1,171.5,59.78a20.73,20.73,0,0,1,20.71-20.71m0,38.09a17.38,17.38,0,1,0-17.38-17.38,17.4,17.4,0,0,0,17.38,17.38m0-42.09a24.71,24.71,0,1,0,24.71,24.71,24.74,24.74,0,0,0-24.71-24.71Zm0,38.09a13.38,13.38,0,1,1,13.38-13.38,13.39,13.39,0,0,1-13.38,13.38Z"/><path d="M173.93,131a1.38,1.38,0,0,1,1.38,1.38v30a1.38,1.38,0,0,1-1.38,1.39H112.34a1.38,1.38,0,0,1-1.38-1.39v-30a1.38,1.38,0,0,1,1.38-1.38h61.59m-60.21,30h58.83V133.8H113.72V161m60.21-34H112.34a5.38,5.38,0,0,0-5.38,5.38v30a5.38,5.38,0,0,0,5.38,5.39h61.59a5.38,5.38,0,0,0,5.38-5.39v-30a5.38,5.38,0,0,0-5.38-5.38Zm-56.21,30V137.8h50.83V157H117.72Z"/></svg>