<?xml version="1.0" encoding="utf-8"?>
<!-- Generator: Adobe Illustrator 22.1.0, SVG Export Plug-In . SVG Version: 6.00 Build 0)  -->
<svg style="enable-background:new 0 0 500 500;" id="Calque_1" version="1.1" viewBox="0 0 500 500" x="0px"
     xmlns="http://www.w3.org/2000/svg" y="0px" xml:space="preserve">
<style type="text/css">
	.st0{fill:#EAEAEA;}
	.st1{fill:#8C8C8C;}
	.st2{fill:#FFFFFF;}
	.st3{fill:#EAEAEA;stroke:#8C8C8C;stroke-width:7;stroke-miterlimit:10;}
	.st4{fill:#070707;}
	.st5{fill:none;stroke:#8C8C8C;stroke-width:7;stroke-miterlimit:10;}
	.st6{fill:none;stroke:#8C8C8C;stroke-width:10;stroke-miterlimit:10;}
	.st7{fill:#8C8C8C;stroke:#8C8C8C;stroke-width:3;stroke-miterlimit:10;}
	.st8{fill:none;stroke:#8C8C8C;stroke-width:8;stroke-miterlimit:10;}
	.st9{fill:none;stroke:#8E8E8E;stroke-width:6;stroke-miterlimit:10;}
	.st10{fill:#8E8E8E;}
	.st11{fill:#505050;}
	.st12{fill:none;stroke:#8E8E8E;stroke-width:2;stroke-miterlimit:10;}
	.st13{fill:#8C8C8C;stroke:#8C8C8C;stroke-width:2;stroke-miterlimit:10;}
	.st14{fill:#8C8C8C;stroke:#FFFFFF;stroke-width:2;stroke-miterlimit:10;}
	.st15{fill:none;stroke:#FFFFFF;stroke-width:2;stroke-miterlimit:10;}
	.st16{fill:none;stroke:#8C8C8C;stroke-miterlimit:10;}
	.st17{fill:none;stroke:#8C8C8C;stroke-width:13;stroke-miterlimit:10;}
	.st18{fill:#EAEAEA;stroke:#8C8C8C;stroke-width:8;stroke-miterlimit:10;}
	.st19{fill:none;stroke:#8C8C8C;stroke-width:4;stroke-miterlimit:10;}
	.st20{fill:#8C8C8C;stroke:#8C8C8C;stroke-width:0.75;stroke-miterlimit:10;}
	.st21{fill:none;stroke:#8C8C8C;stroke-width:9;stroke-miterlimit:10;}
	.st22{fill:#8C8C8C;stroke:#8C8C8C;stroke-width:0.5;stroke-miterlimit:10;}
	.st23{fill:#6B6B6B;}
	.st24{fill:none;}
	.st25{stroke:#8C8C8C;stroke-width:8;stroke-miterlimit:10;}
	.st26{fill:#8C8C8C;stroke:#8C8C8C;stroke-miterlimit:10;}
	.st27{fill:none;stroke:#8C8C8C;stroke-width:11;stroke-miterlimit:10;}
	.st28{fill:none;stroke:#8C8C8C;stroke-width:6;stroke-miterlimit:10;}
	.st29{stroke:#8C8C8C;stroke-width:6;stroke-miterlimit:10;}
	.st30{fill:#8C8C8C;stroke:#8C8C8C;stroke-width:4;stroke-miterlimit:10;}
	.st31{fill:#8C8C8C;stroke:#8C8C8C;stroke-width:1.05;stroke-miterlimit:10;}
	.st32{fill:#D6D6D6;}
	.st33{fill:none;stroke:#EAEAEA;stroke-width:5;stroke-miterlimit:10;}
	.st34{fill:#8C8C8C;stroke:#8C8C8C;stroke-width:10;stroke-miterlimit:10;}
	.st35{font-family:'HelveticaNeue-CondensedBold';}
	.st36{font-size:54px;}
	.st37{fill:none;stroke:#CECECE;stroke-width:2;stroke-miterlimit:10;}
	.st38{fill:none;stroke:#FFFFFF;stroke-width:4;stroke-miterlimit:10;}
	.st39{fill-rule:evenodd;clip-rule:evenodd;fill:#8C8C8C;}
	.st40{fill:#8C8C8C;stroke:#8C8C8C;stroke-width:8;stroke-miterlimit:10;}
	.st41{fill:#8C8C8C;stroke:#8C8C8C;stroke-width:7;stroke-miterlimit:10;}
	.st42{fill:#DBDBDB;stroke:#8C8C8C;stroke-width:7;stroke-miterlimit:10;}
	.st43{fill:none;stroke:#8C8C8C;stroke-width:5;stroke-miterlimit:10;}
	.st44{fill:none;stroke:#8C8C8C;stroke-width:3;stroke-miterlimit:10;}
	.st45{clip-path:url(#SVGID_2_);fill:#8C8C8C;}
	.st46{clip-path:url(#SVGID_2_);fill:none;stroke:#8C8C8C;stroke-width:8;stroke-miterlimit:10;}
	.st47{clip-path:url(#SVGID_2_);fill:#FFFFFF;}
	.st48{clip-path:url(#SVGID_2_);fill:#EAEAEA;}
	.st49{clip-path:url(#SVGID_2_);fill:none;stroke:#8C8C8C;stroke-miterlimit:10;}
	.st50{fill:none;stroke:#FFFFFF;stroke-width:0.75;stroke-miterlimit:10;}
	.st51{fill:none;stroke:#8C8C8C;stroke-width:14;stroke-miterlimit:10;}
	.st52{fill:none;stroke:#EAEAEA;stroke-width:2;stroke-miterlimit:10;}
	.st53{fill:none;stroke:#8C8C8C;stroke-width:2;stroke-miterlimit:10;}
</style>
    <rect class="st0" height="500" width="500" x="1"/>
    <g>
	<g>
		<path class="st1" d="M362.2,163.2c-1.4-0.8-2.8-0.8-2.8-0.8c-1,0-1.9,0.2-2.8,0.7L320,182.8v-16.9c0-3.1-2.5-5.7-5.7-5.7h-9.2
			c11.5-9.3,18.8-23.5,18.8-39.5c0-28-22.8-50.8-50.8-50.8c-23.9,0-44,16.6-49.4,38.9c-7-8.5-17.6-13.9-29.5-13.9
			c-21.1,0-38.3,17.2-38.3,38.3c0,10.5,4.3,20,11.1,27H162c-3.1,0-5.7,2.5-5.7,5.7v25.7H142c-3.1,0-5.7,2.5-5.7,5.7v22.3
			c0,3.1,2.5,5.7,5.7,5.7h14.3v25.7c0,3.1,2.5,5.7,5.7,5.7h66.8c6.2,0,12.5,0,18.7,0h66.8c3.1,0,5.7-2.5,5.7-5.7V234l36.6,19.7
			c0.8,0.5,1.8,0.7,2.7,0.7c1,0,2-0.3,2.9-0.8c1.7-1,2.8-2.9,2.8-4.9C365,233.6,365.1,164.8,362.2,163.2z M156.4,213.9h-8.7v-10.9
			h8.7V213.9z M273.2,81.3c21.8,0,39.5,17.7,39.5,39.5c0,21.8-17.7,39.5-39.5,39.5c-21.8,0-39.5-17.7-39.5-39.5
			C233.8,99,251.5,81.3,273.2,81.3z M230,147.4c3,4.9,6.9,9.3,11.3,12.9h-19.8C225.1,156.6,228,152.2,230,147.4z M194.4,106.3
			c14.9,0,27,12.1,27,27s-12.1,27-27,27c-14.9,0-27-12.1-27-27C167.4,118.4,179.5,106.3,194.4,106.3z M308.7,245.3h-141v-73.7h141
			V245.3z"/>
	</g>
</g>
    <g>
	<g>
		<path class="st1" d="M194.4,116.1c-9.5,0-17.2,7.7-17.2,17.2c0,9.5,7.7,17.2,17.2,17.2c9.5,0,17.2-7.7,17.2-17.2
			C211.6,123.8,203.8,116.1,194.4,116.1z M194.4,140.3c-3.9,0-7-3.1-7-7c0-3.9,3.1-7,7-7c3.9,0,7,3.1,7,7
			C201.4,137.1,198.2,140.3,194.4,140.3z"/>
	</g>
</g>
    <g>
	<g>
		<path class="st1" d="M273.2,96.1c-13.6,0-24.7,11.1-24.7,24.7c0,13.6,11.1,24.7,24.7,24.7s24.7-11.1,24.7-24.7
			C297.9,107.2,286.8,96.1,273.2,96.1z M273.2,134.2c-7.4,0-13.4-6-13.4-13.4s6-13.4,13.4-13.4c7.4,0,13.4,6,13.4,13.4
			C286.6,128.2,280.6,134.2,273.2,134.2z"/>
	</g>
</g>
    <g>
	<g>
		<path class="st1" d="M254.9,188h-61.6c-3,0-5.4,2.4-5.4,5.4v30c0,3,2.4,5.4,5.4,5.4h61.6c3,0,5.4-2.4,5.4-5.4v-30
			C260.3,190.4,257.9,188,254.9,188z M249.6,218h-50.8v-19.2h50.8L249.6,218L249.6,218z"/>
	</g>
</g>
    <g>
	<rect class="st24" height="144" width="500" x="-5" y="366"/>
        <text class="st23 st35 st36" transform="matrix(1 0 0 1 162.5703 404.5557)">Caméra</text>
</g>
</svg>
