<?xml version="1.0" encoding="utf-8"?>
<!-- Generator: Adobe Illustrator 22.1.0, SVG Export Plug-In . SVG Version: 6.00 Build 0)  -->
<svg style="enable-background:new 0 0 500 500;" id="Calque_1" version="1.1" viewBox="0 0 500 500" x="0px"
     xmlns="http://www.w3.org/2000/svg" y="0px" xml:space="preserve">
<style type="text/css">
	.st0{fill:#4FBDD7;}
	.st1{fill:#EAEAEA;}
	.st2{fill:#FFFFFF;}
	.st3{fill:#4FBDD7;stroke:#FFFFFF;stroke-width:5;stroke-miterlimit:10;}
	.st4{fill:#8C8C8C;}
	.st5{fill:#070707;}
	.st6{fill:none;stroke:#FFFFFF;stroke-width:7;stroke-miterlimit:10;}
	.st7{fill:none;stroke:#FFFFFF;stroke-width:10;stroke-miterlimit:10;}
	.st8{fill:#FFFFFF;stroke:#FFFFFF;stroke-width:3;stroke-miterlimit:10;}
	.st9{fill:none;stroke:#FDFFFF;stroke-width:6;stroke-miterlimit:10;}
	.st10{fill:#FAFEFF;}
	.st11{fill:none;stroke:#FFFFFF;stroke-width:2;stroke-miterlimit:10;}
	.st12{fill:#FFFFFF;stroke:#FFFFFF;stroke-width:2;stroke-miterlimit:10;}
	.st13{fill:#4FBDD7;stroke:#FFFFFF;stroke-width:4;stroke-miterlimit:10;}
	.st14{fill:#FFFFFF;stroke:#FFFFFF;stroke-width:4;stroke-miterlimit:10;}
	.st15{fill:none;stroke:#FFFFFF;stroke-miterlimit:10;}
	.st16{fill:#FFFFFF;stroke:#FFFFFF;stroke-width:13;stroke-miterlimit:10;}
	.st17{fill:#4FBDD7;stroke:#FFFFFF;stroke-width:8;stroke-miterlimit:10;}
	.st18{fill:#FFFFFF;stroke:#FFFFFF;stroke-width:0.75;stroke-miterlimit:10;}
	.st19{fill:#FFFFFF;stroke:#FFFFFF;stroke-width:0.5;stroke-miterlimit:10;}
	.st20{fill:#FFFFFF;stroke:#FFFFFF;stroke-width:8;stroke-miterlimit:10;}
	.st21{fill:#FFFFFF;stroke:#FFFFFF;stroke-miterlimit:10;}
	.st22{fill:#FFFFFF;stroke:#FFFFFF;stroke-width:11;stroke-miterlimit:10;}
	.st23{fill:#FFFFFF;stroke:#FFFFFF;stroke-width:6;stroke-miterlimit:10;}
	.st24{fill:none;}
	.st25{font-family:'HelveticaNeue-CondensedBold';}
	.st26{font-size:54px;}
	.st27{fill:#8C8C8C;stroke:#8C8C8C;stroke-width:4;stroke-miterlimit:10;}
	.st28{fill:#FFFFFF;stroke:#FFFFFF;stroke-width:1.05;stroke-miterlimit:10;}
	.st29{fill:none;stroke:#4FBDD7;stroke-width:5;stroke-miterlimit:10;}
	.st30{fill:none;stroke:#FFFFFF;stroke-width:4;stroke-miterlimit:10;}
	.st31{fill:#8C8C8C;stroke:#FFFFFF;stroke-width:4;stroke-miterlimit:10;}
	.st32{fill:#FFFFFF;stroke:#FFFFFF;stroke-width:10;stroke-miterlimit:10;}
	.st33{fill:none;stroke:#4FBDD7;stroke-width:2;stroke-miterlimit:10;}
	.st34{fill-rule:evenodd;clip-rule:evenodd;fill:#FFFFFF;}
	.st35{fill:#FFFFFF;stroke:#FFFFFF;stroke-width:7;stroke-miterlimit:10;}
	.st36{fill:#FFFFFF;stroke:#4FBDD7;stroke-width:7;stroke-miterlimit:10;}
	.st37{fill:#FCFCFC;}
	.st38{fill:#FFFFFF;stroke:#FFFFFF;stroke-width:5;stroke-miterlimit:10;}
	.st39{fill:none;stroke:#FFFFFF;stroke-width:3;stroke-miterlimit:10;}
	.st40{fill:none;stroke:#FFFFFF;stroke-width:8;stroke-miterlimit:10;}
	.st41{fill:none;stroke:#FFFFFF;stroke-width:6;stroke-miterlimit:10;}
	.st42{fill:#FFFFFF;stroke:#4FBDD7;stroke-width:3;stroke-miterlimit:10;}
	.st43{fill:none;stroke:#FFFFFF;stroke-width:0.75;stroke-miterlimit:10;}
	.st44{fill:#4FBDD7;stroke:#FFFFFF;stroke-width:9;stroke-miterlimit:10;}
	.st45{fill:none;stroke:#FFFFFF;stroke-width:9;stroke-miterlimit:10;}
	.st46{fill:none;stroke:#4FBDD7;stroke-width:3;stroke-miterlimit:10;}
</style>
    <rect class="st0" height="500" width="506" x="-5" y="1"/>
    <g>
	<path class="st2" d="M356.2,78c5.3,1.4,10.1,3.7,12.4,8.5c1.2,2.5,2,5.3,2,8c0.1,73.1,0.1,146.2,0.1,219.4c0,0.3,0,0.6-0.1,1.1
		c-74.2,0-148.4,0-222.8,0c0-1,0-2,0-3c0-71.5,0-143,0-214.5c0-11.6,3-15.6,14.5-19.6C226.9,78,291.5,78,356.2,78z M353.6,307.1
		c2.9,0,5.6,0,8.5,0c0-0.9,0-1.7,0-2.4c0-69.7,0-139.4,0-209.2c0-6.6-3.2-9.6-10.4-9.6c-61.7,0-123.4,0-185.1,0
		c-7,0-10.3,3-10.3,9.5c0,69.8,0,139.6,0,209.4c0,0.8,0,1.6,0,2.4C222.1,307.2,287.9,307.1,353.6,307.1z"/>
        <path class="st2" d="M164.9,146.7c0-8.4-0.1-16.9,0-25.3c0.1-13.6,9.2-24,22.7-26.1c13.1-2,26.6,8.3,28.4,21.5
		c0.2,1.7,0.4,3.3,0.4,5c0,16.5,0.1,32.9,0,49.4c-0.1,15-11.2,26.5-25.5,26.6c-14.2,0.1-25.7-11.4-25.9-26.1
		C164.8,163.4,164.9,155.1,164.9,146.7z M190.6,137.8c9.4,0,17-7.7,17-17c0-9.3-7.7-17-17-17.1c-9.3-0.1-17.3,7.9-17.2,17.2
		C173.6,130.3,181.3,137.9,190.6,137.8z M207.7,172.4c0.3-9.1-7.1-16.9-16.5-17.3c-9.5-0.4-17.5,7.2-17.7,16.9
		c-0.2,9.2,7.5,17.1,16.9,17.3C199.6,189.5,207.3,181.9,207.7,172.4z M173.6,140c0,4.5,0,8.5,0,12.9c4.6-3.7,9.4-5.9,14.9-6.5
		C183,145.9,178.2,143.7,173.6,140z M207.6,141c-4.9,2.1-9.8,4.1-13.8,5.7c4.5,0.4,9.2,2.7,13.8,6.2
		C207.6,148.4,207.6,144.5,207.6,141z"/>
        <path class="st2" d="M190.6,137.8c-9.3,0-17-7.5-17.2-16.9c-0.1-9.3,7.9-17.3,17.2-17.2c9.3,0.1,17,7.8,17,17.1
		C207.7,130.1,200,137.8,190.6,137.8z M203.3,120.8c-0.3-7.8-6.2-13.1-13.6-12.7c-6.6,0.3-12.1,6.2-11.7,12.7c2.4,0,4.8,0.1,7.2-0.1
		c0.5,0,1.1-0.8,1.4-1.3c0.9-1.7,2.2-3.1,4.1-2.6c1.4,0.3,2.6,1.7,3.9,2.6c0.6,0.4,1.1,1.3,1.7,1.4
		C198.5,120.8,200.8,120.8,203.3,120.8z"/>
        <path class="st2" d="M207.7,172.4c-0.3,9.5-8.1,17-17.3,16.8c-9.4-0.2-17.1-8.1-16.9-17.3c0.2-9.6,8.2-17.2,17.7-16.9
		C200.5,155.5,208,163.3,207.7,172.4z M203.2,172c0.3-6.9-5.8-12.9-12.7-12.7c-7,0.1-12.9,6.1-12.4,12.7c2.7,0,5.4,0,8.2,0
		c0.4-2.4,1.7-4,4.1-4.1c2.8-0.2,4,1.8,4.7,4.1C197.9,172,200.6,172,203.2,172z"/>
</g>
    <g>
	<rect class="st24" height="144" width="500" x="5" y="360"/>
        <text class="st2 st25 st26" transform="matrix(1 0 0 1 94.6499 398.5557)">Caméra arrière</text>
</g>
</svg>
