<?xml version="1.0" encoding="utf-8"?>
<!-- Generator: Adobe Illustrator 22.1.0, SVG Export Plug-In . SVG Version: 6.00 Build 0)  -->
<svg style="enable-background:new 0 0 500 500;" id="Calque_1" version="1.1" viewBox="0 0 500 500" x="0px"
     xmlns="http://www.w3.org/2000/svg" y="0px" xml:space="preserve">
<style type="text/css">
	.st0{fill:#EAEAEA;}
	.st1{fill:#8C8C8C;}
	.st2{fill:#FFFFFF;}
	.st3{fill:#EAEAEA;stroke:#8C8C8C;stroke-width:7;stroke-miterlimit:10;}
	.st4{fill:#070707;}
	.st5{fill:none;stroke:#8C8C8C;stroke-width:7;stroke-miterlimit:10;}
	.st6{fill:none;stroke:#8C8C8C;stroke-width:10;stroke-miterlimit:10;}
	.st7{fill:#8C8C8C;stroke:#8C8C8C;stroke-width:3;stroke-miterlimit:10;}
	.st8{fill:none;stroke:#8C8C8C;stroke-width:8;stroke-miterlimit:10;}
	.st9{fill:none;stroke:#8E8E8E;stroke-width:6;stroke-miterlimit:10;}
	.st10{fill:#8E8E8E;}
	.st11{fill:#505050;}
	.st12{fill:none;stroke:#8E8E8E;stroke-width:2;stroke-miterlimit:10;}
	.st13{fill:#8C8C8C;stroke:#8C8C8C;stroke-width:2;stroke-miterlimit:10;}
	.st14{fill:#8C8C8C;stroke:#FFFFFF;stroke-width:2;stroke-miterlimit:10;}
	.st15{fill:none;stroke:#FFFFFF;stroke-width:2;stroke-miterlimit:10;}
	.st16{fill:none;stroke:#8C8C8C;stroke-miterlimit:10;}
	.st17{fill:none;stroke:#8C8C8C;stroke-width:13;stroke-miterlimit:10;}
	.st18{fill:#EAEAEA;stroke:#8C8C8C;stroke-width:8;stroke-miterlimit:10;}
	.st19{fill:none;stroke:#8C8C8C;stroke-width:4;stroke-miterlimit:10;}
	.st20{fill:#8C8C8C;stroke:#8C8C8C;stroke-width:0.75;stroke-miterlimit:10;}
	.st21{fill:none;stroke:#8C8C8C;stroke-width:9;stroke-miterlimit:10;}
	.st22{fill:#8C8C8C;stroke:#8C8C8C;stroke-width:0.5;stroke-miterlimit:10;}
	.st23{fill:#6B6B6B;}
	.st24{fill:none;}
	.st25{stroke:#8C8C8C;stroke-width:8;stroke-miterlimit:10;}
	.st26{fill:#8C8C8C;stroke:#8C8C8C;stroke-miterlimit:10;}
	.st27{fill:none;stroke:#8C8C8C;stroke-width:11;stroke-miterlimit:10;}
	.st28{fill:none;stroke:#8C8C8C;stroke-width:6;stroke-miterlimit:10;}
	.st29{stroke:#8C8C8C;stroke-width:6;stroke-miterlimit:10;}
	.st30{fill:#8C8C8C;stroke:#8C8C8C;stroke-width:4;stroke-miterlimit:10;}
	.st31{fill:#8C8C8C;stroke:#8C8C8C;stroke-width:1.05;stroke-miterlimit:10;}
	.st32{fill:#D6D6D6;}
	.st33{fill:none;stroke:#EAEAEA;stroke-width:5;stroke-miterlimit:10;}
	.st34{fill:#8C8C8C;stroke:#8C8C8C;stroke-width:10;stroke-miterlimit:10;}
	.st35{fill:none;stroke:#CECECE;stroke-width:2;stroke-miterlimit:10;}
	.st36{fill:none;stroke:#FFFFFF;stroke-width:4;stroke-miterlimit:10;}
	.st37{font-family:'HelveticaNeue-CondensedBold';}
	.st38{font-size:54px;}
	.st39{fill-rule:evenodd;clip-rule:evenodd;fill:#8C8C8C;}
	.st40{fill:#8C8C8C;stroke:#8C8C8C;stroke-width:8;stroke-miterlimit:10;}
	.st41{fill:#8C8C8C;stroke:#8C8C8C;stroke-width:7;stroke-miterlimit:10;}
	.st42{fill:#DBDBDB;stroke:#8C8C8C;stroke-width:7;stroke-miterlimit:10;}
	.st43{fill:none;stroke:#8C8C8C;stroke-width:5;stroke-miterlimit:10;}
	.st44{fill:none;stroke:#8C8C8C;stroke-width:3;stroke-miterlimit:10;}
	.st45{clip-path:url(#SVGID_2_);fill:#8C8C8C;}
	.st46{clip-path:url(#SVGID_2_);fill:none;stroke:#8C8C8C;stroke-width:8;stroke-miterlimit:10;}
	.st47{clip-path:url(#SVGID_2_);fill:#FFFFFF;}
	.st48{clip-path:url(#SVGID_2_);fill:#EAEAEA;}
	.st49{clip-path:url(#SVGID_2_);fill:none;stroke:#8C8C8C;stroke-miterlimit:10;}
	.st50{fill:none;stroke:#FFFFFF;stroke-width:0.75;stroke-miterlimit:10;}
	.st51{fill:none;stroke:#8C8C8C;stroke-width:14;stroke-miterlimit:10;}
	.st52{fill:none;stroke:#EAEAEA;stroke-width:2;stroke-miterlimit:10;}
	.st53{fill:none;stroke:#8C8C8C;stroke-width:2;stroke-miterlimit:10;}
</style>
    <rect class="st0" height="500" width="500" x="1" y="-1"/>
    <g>
	<path class="st1" d="M122,107.8v141.4c0,1.4,0.2,2.6,0.6,3.7c0.4,1.1,1.1,1.9,2.2,2.6c1,0.6,1.9,1.2,2.6,1.6s2,0.7,3.8,0.8
		c1.8,0.1,3,0.2,3.6,0.3c0.6,0,2,0,4.1,0c2.1,0,3.3-0.1,3.6-0.1c0,9.8,4,18.1,12,25c8,6.9,17.7,10.4,29,10.4c11.3,0,21-3.5,29-10.4
		c8-6.9,12-15.2,12-25h61.6c0,9.8,4,18.1,12,25c8,6.9,17.7,10.4,29,10.4c11.3,0,21-3.5,29-10.4c8-6.9,12-15.2,12-25h10.3
		c0.3,0,1.5,0,3.6,0.1c2.1,0,3.4,0,4.1,0c0.6,0,1.8-0.1,3.6-0.3c1.8-0.1,3-0.4,3.8-0.8c0.7-0.4,1.6-0.9,2.6-1.6
		c1-0.6,1.7-1.5,2.2-2.6c0.4-1.1,0.6-2.3,0.6-3.7c0-2.4-1-4.5-3-6.2c-2-1.8-4.4-2.6-7.2-2.6v-44.2c0-0.7,0-2.3,0.1-4.8
		c0.1-2.5,0.1-4.2,0-5.2c-0.1-1-0.2-2.6-0.4-4.8c-0.2-2.2-0.6-3.9-1-5.1c-0.5-1.2-1.2-2.6-2.2-4.2c-1-1.6-2.2-2.9-3.6-4.1
		l-31.7-27.3c-2-1.7-4.7-3.2-8.1-4.4c-3.4-1.2-6.5-1.8-9.4-1.8h-25.6v-26.5c0-2.4-1-4.5-3-6.2c-2-1.7-4.4-2.6-7.2-2.6H132.3
		c-2.8,0-5.2,0.9-7.2,2.6C123,103.4,122,105.4,122,107.8z M306.7,258.1c0-4.8,2-8.9,6.1-12.4c4.1-3.5,8.9-5.2,14.4-5.2
		c5.6,0,10.4,1.8,14.4,5.2c4.1,3.5,6.1,7.6,6.1,12.4c0,4.8-2,8.9-6.1,12.4c-4.1,3.5-8.9,5.3-14.4,5.3c-5.6,0-10.4-1.8-14.4-5.3
		C308.7,267.1,306.7,262.9,306.7,258.1z M306.7,152H332c1.4,0,2.6,0.4,3.5,1.2l31.3,26.9c1,0.8,1.4,1.8,1.4,3v4.1h-61.6V152z
		 M163,258.1c0-4.8,2-8.9,6.1-12.4c4.1-3.5,8.9-5.2,14.4-5.2c5.6,0,10.4,1.8,14.4,5.2c4.1,3.5,6.1,7.6,6.1,12.4
		c0,4.8-2,8.9-6.1,12.4c-4.1,3.5-8.9,5.3-14.4,5.3c-5.6,0-10.4-1.8-14.4-5.3C165.1,267.1,163,262.9,163,258.1z"/>
</g>
    <g>
	<rect class="st24" height="144" width="500" x="-5" y="366"/>
        <text class="st23 st37 st38" transform="matrix(1 0 0 1 164.1094 404.5557)">Camion</text>
</g>
</svg>
