<svg id="Calque_1" data-name="Calque 1" xmlns="http://www.w3.org/2000/svg" viewBox="0 0 350 300"><title>selected</title><path d="M215.41,42a6.72,6.72,0,0,1,4.6,1.65,3.94,3.94,0,0,1,1.65,3.19V77.36h29.65a24.26,24.26,0,0,1,8,1.57,21.25,21.25,0,0,1,6.83,3.68L297.92,110a15.6,15.6,0,0,1,2.86,3.29,19.68,19.68,0,0,1,1.87,3.47,16.3,16.3,0,0,1,.79,4.06c.21,2.18.34,3.68.39,4.58,0,.63.05,2,0,5-.05,2.53-.08,4.15-.08,4.93v48.2h4a6.7,6.7,0,0,1,4.61,1.65,4,4,0,0,1,1.65,3.19,5.88,5.88,0,0,1-.35,2.16,1.36,1.36,0,0,1-.6.68c-.9.57-1.71,1.06-2.41,1.44a7.88,7.88,0,0,1-2.17.36l-3.56.27c-.11,0-.44,0-1.24,0l-2.49,0c-2.85-.07-3.47-.07-3.7-.07H283.22v4c0,8.61-3.48,15.8-10.63,22-7.34,6.31-16,9.39-26.41,9.39s-19.07-3.08-26.4-9.39c-7.15-6.17-10.63-13.36-10.63-22v-4H139.59v4c0,8.61-3.48,15.8-10.63,22-7.33,6.31-16,9.39-26.4,9.39s-19.07-3.08-26.41-9.39c-7.15-6.17-10.63-13.36-10.63-22v-4h-4c-.23,0-.85,0-3.69.07l-2.5,0c-.8,0-1.13,0-1.22,0l-3.58-.28a9.09,9.09,0,0,1-2.15-.34h0c-.66-.37-1.48-.86-2.43-1.47a1.34,1.34,0,0,1-.61-.69,5.92,5.92,0,0,1-.34-2.14V46.84a4,4,0,0,1,1.65-3.19A6.77,6.77,0,0,1,51.25,42H215.41m6.26,88.4h69.55v-8.14a7.81,7.81,0,0,0-2.83-6.07L257.14,89.26A9.26,9.26,0,0,0,251,87H221.67V130.4m24.52,88.41a25.33,25.33,0,0,0,17-6.22c5-4.28,7.49-9.48,7.49-15.46s-2.52-11.19-7.48-15.47a26.45,26.45,0,0,0-34.08,0c-5,4.28-7.48,9.48-7.48,15.47s2.51,11.18,7.48,15.46a25.36,25.36,0,0,0,17,6.22m-143.64,0a25.38,25.38,0,0,0,17-6.22c5-4.28,7.48-9.48,7.48-15.46s-2.52-11.19-7.48-15.47a26.45,26.45,0,0,0-34.08,0c-5,4.28-7.48,9.49-7.48,15.47s2.51,11.19,7.48,15.46a25.35,25.35,0,0,0,17,6.22M215.41,38H51.25A10.74,10.74,0,0,0,44,40.62a8,8,0,0,0-3,6.22V188.29a9.63,9.63,0,0,0,.64,3.65,5.38,5.38,0,0,0,2.17,2.56q1.52,1,2.64,1.59a10,10,0,0,0,3.77.83l3.61.28q.48,0,1.5,0l2.58,0,3.61-.07q0,14.63,12,25t29,10.36q17,0,29-10.36t12-25h61.56q0,14.63,12,25t29,10.36q17,0,29-10.36t12-25h10.26l3.61.07,2.58,0c.68,0,1.18,0,1.51,0l3.6-.28a10.09,10.09,0,0,0,3.77-.83c.75-.42,1.63-.94,2.64-1.59a5.38,5.38,0,0,0,2.17-2.56,9.63,9.63,0,0,0,.64-3.65,8,8,0,0,0-3.05-6.22,10.67,10.67,0,0,0-7.21-2.62v-44.2c0-.74,0-2.35.08-4.84s.05-4.24,0-5.25-.19-2.6-.4-4.77a20.11,20.11,0,0,0-1-5.11,23.76,23.76,0,0,0-2.24-4.21,19.12,19.12,0,0,0-3.61-4.14L268.79,79.58a25.31,25.31,0,0,0-8.1-4.42,28,28,0,0,0-9.38-1.8H225.66V46.84a8,8,0,0,0-3-6.22A10.74,10.74,0,0,0,215.41,38Zm10.26,88.4V91H251a5.21,5.21,0,0,1,3.52,1.25l31.26,26.93a3.87,3.87,0,0,1,1.44,3v4.14Zm20.52,88.41a21.43,21.43,0,0,1-14.43-5.25q-6.09-5.25-6.09-12.43t6.09-12.44a22.44,22.44,0,0,1,28.85,0q6.09,5.25,6.1,12.44t-6.1,12.43a21.38,21.38,0,0,1-14.42,5.25Zm-143.64,0a21.43,21.43,0,0,1-14.42-5.25Q82,204.31,82,197.13t6.09-12.44a22.44,22.44,0,0,1,28.85,0q6.1,5.25,6.1,12.44T117,209.56a21.37,21.37,0,0,1-14.43,5.25Z"/></svg>