<svg id="Calque_1" data-name="Calque 1" xmlns="http://www.w3.org/2000/svg" viewBox="0 0 350 300"><title>selected</title><path d="M213.69,30.69a4.05,4.05,0,0,0-1.15.17L126.89,59a5.42,5.42,0,0,1-1.08.57s0,.08-.09.11-.09,0-.13.08l-44,39.6a3.64,3.64,0,0,0,3.71,6.11L124.4,90.86V208.1a3.61,3.61,0,0,0,2.74,3.51l116,29.61a3.36,3.36,0,0,0,.92.12,3.94,3.94,0,0,0,1.18-.19l86.83-29.62a3.6,3.6,0,0,0,2.47-3.43v-76l32-11.07a3.62,3.62,0,0,0,2.21-2.15,3.55,3.55,0,0,0-.25-3.08L336.88,60.61c0-.08-.12-.12-.17-.2a3.86,3.86,0,0,0-.63-.71c-.09-.06-.14-.12-.21-.17a3.48,3.48,0,0,0-1.31-.64L214.49,30.78a3.57,3.57,0,0,0-.8-.09Zm30.27,59L140.76,62.06l73.07-24,106.86,25L244,89.71Zm40.76,52L252.05,94.59l80-27.75L360,115.64l-75.29,26.07ZM240.45,233,131.66,205.27V67.16L240.45,96.3V233ZM100.63,92l23.76-21.38V83.09L100.63,92ZM247.71,232.62V101.1l32.61,47a3.67,3.67,0,0,0,3,1.57,4,4,0,0,0,1.19-.2l42.79-14.83v70.82l-79.58,27.13Z"/><path d="M49.41,130a2.37,2.37,0,0,0-.69.11l-51,16.74a2.36,2.36,0,0,0-.38.22,1.57,1.57,0,0,0-.26.12s0,0,0,.06l-.08,0-26.22,23.59a2.17,2.17,0,0,0-.41,2.72,2.17,2.17,0,0,0,1.86,1.05,2.11,2.11,0,0,0,.75-.13l23.31-8.69v69.83a2.15,2.15,0,0,0,1.63,2.09L67,255.42a2.24,2.24,0,0,0,1.25,0l51.72-17.64a2.16,2.16,0,0,0,1.47-2.05V190.45l19-6.59a2.14,2.14,0,0,0,1.32-1.29,2.11,2.11,0,0,0-.15-1.83l-18.83-32.89a1.31,1.31,0,0,0-.11-.12,1.9,1.9,0,0,0-.38-.42l-.12-.11a2.18,2.18,0,0,0-.78-.38L49.89,130.08a2,2,0,0,0-.48-.06Zm18,35.15L6,148.71,49.5,134.43l63.64,14.9-45.7,15.84Zm24.28,31L72.26,168.08l47.66-16.52,16.64,29.06L91.72,196.15ZM65.35,250.54.55,234V151.74l64.8,17.36v81.44Zm-83.28-84,14.15-12.73v7.45l-14.15,5.28ZM69.68,250.3V172l19.41,28a2.21,2.21,0,0,0,1.79.94,2.71,2.71,0,0,0,.71-.12L117.07,192v42.18L69.68,250.3Z"/></svg>