<?xml version="1.0" encoding="utf-8"?>
<!-- Generator: Adobe Illustrator 22.1.0, SVG Export Plug-In . SVG Version: 6.00 Build 0)  -->
<svg style="enable-background:new 0 0 500 500;" id="Calque_1" version="1.1" viewBox="0 0 500 500" x="0px"
     xmlns="http://www.w3.org/2000/svg" y="0px" xml:space="preserve">
<style type="text/css">
	.st0{fill:#4FBDD7;}
	.st1{fill:#EAEAEA;}
	.st2{fill:#FFFFFF;}
	.st3{fill:#4FBDD7;stroke:#FFFFFF;stroke-width:5;stroke-miterlimit:10;}
	.st4{fill:#8C8C8C;}
	.st5{fill:#070707;}
	.st6{fill:none;stroke:#FFFFFF;stroke-width:7;stroke-miterlimit:10;}
	.st7{fill:none;stroke:#FFFFFF;stroke-width:10;stroke-miterlimit:10;}
	.st8{fill:#FFFFFF;stroke:#FFFFFF;stroke-width:3;stroke-miterlimit:10;}
	.st9{fill:none;stroke:#FDFFFF;stroke-width:6;stroke-miterlimit:10;}
	.st10{fill:#FAFEFF;}
	.st11{fill:none;stroke:#FFFFFF;stroke-width:2;stroke-miterlimit:10;}
	.st12{fill:#FFFFFF;stroke:#FFFFFF;stroke-width:2;stroke-miterlimit:10;}
	.st13{fill:#4FBDD7;stroke:#FFFFFF;stroke-width:4;stroke-miterlimit:10;}
	.st14{fill:#FFFFFF;stroke:#FFFFFF;stroke-width:4;stroke-miterlimit:10;}
	.st15{fill:none;stroke:#FFFFFF;stroke-miterlimit:10;}
	.st16{fill:#FFFFFF;stroke:#FFFFFF;stroke-width:13;stroke-miterlimit:10;}
	.st17{fill:#4FBDD7;stroke:#FFFFFF;stroke-width:8;stroke-miterlimit:10;}
	.st18{fill:#FFFFFF;stroke:#FFFFFF;stroke-width:0.75;stroke-miterlimit:10;}
	.st19{fill:#FFFFFF;stroke:#FFFFFF;stroke-width:0.5;stroke-miterlimit:10;}
	.st20{fill:#FFFFFF;stroke:#FFFFFF;stroke-width:8;stroke-miterlimit:10;}
	.st21{fill:#FFFFFF;stroke:#FFFFFF;stroke-miterlimit:10;}
	.st22{fill:#FFFFFF;stroke:#FFFFFF;stroke-width:11;stroke-miterlimit:10;}
	.st23{fill:#FFFFFF;stroke:#FFFFFF;stroke-width:6;stroke-miterlimit:10;}
	.st24{fill:#8C8C8C;stroke:#8C8C8C;stroke-width:4;stroke-miterlimit:10;}
	.st25{fill:#FFFFFF;stroke:#FFFFFF;stroke-width:1.05;stroke-miterlimit:10;}
	.st26{fill:none;stroke:#4FBDD7;stroke-width:5;stroke-miterlimit:10;}
	.st27{fill:none;stroke:#FFFFFF;stroke-width:4;stroke-miterlimit:10;}
	.st28{fill:#8C8C8C;stroke:#FFFFFF;stroke-width:4;stroke-miterlimit:10;}
	.st29{fill:#FFFFFF;stroke:#FFFFFF;stroke-width:10;stroke-miterlimit:10;}
	.st30{fill:none;stroke:#4FBDD7;stroke-width:2;stroke-miterlimit:10;}
	.st31{fill-rule:evenodd;clip-rule:evenodd;fill:#FFFFFF;}
	.st32{fill:none;}
	.st33{font-family:'HelveticaNeue-CondensedBold';}
	.st34{font-size:54px;}
	.st35{fill:#FFFFFF;stroke:#FFFFFF;stroke-width:7;stroke-miterlimit:10;}
	.st36{fill:#FFFFFF;stroke:#4FBDD7;stroke-width:7;stroke-miterlimit:10;}
	.st37{fill:#FCFCFC;}
	.st38{fill:#FFFFFF;stroke:#FFFFFF;stroke-width:5;stroke-miterlimit:10;}
	.st39{fill:none;stroke:#FFFFFF;stroke-width:3;stroke-miterlimit:10;}
	.st40{fill:none;stroke:#FFFFFF;stroke-width:8;stroke-miterlimit:10;}
	.st41{fill:none;stroke:#FFFFFF;stroke-width:6;stroke-miterlimit:10;}
	.st42{fill:#FFFFFF;stroke:#4FBDD7;stroke-width:3;stroke-miterlimit:10;}
	.st43{fill:none;stroke:#FFFFFF;stroke-width:0.75;stroke-miterlimit:10;}
	.st44{fill:#4FBDD7;stroke:#FFFFFF;stroke-width:9;stroke-miterlimit:10;}
	.st45{fill:none;stroke:#FFFFFF;stroke-width:9;stroke-miterlimit:10;}
	.st46{fill:none;stroke:#4FBDD7;stroke-width:3;stroke-miterlimit:10;}
</style>
    <rect class="st0" height="500" width="500"/>
    <g>
	<path class="st2" d="M417.9,121.6c0-0.1-0.1-0.1-0.2-0.2c-0.2-0.3-0.4-0.5-0.6-0.7c-0.1-0.1-0.1-0.1-0.2-0.2
		c-0.4-0.3-0.8-0.5-1.3-0.6L295.5,91.8c-0.6-0.1-1.3-0.1-2,0.1L207.9,120c-0.2,0.1-0.4,0.3-0.7,0.4c-0.1,0.1-0.3,0.1-0.4,0.2
		c0,0-0.1,0.1-0.1,0.1c0,0-0.1,0-0.1,0.1l-44,39.6c-1.3,1.2-1.6,3.1-0.7,4.6c0.7,1.1,1.8,1.8,3.1,1.8c0.4,0,0.9-0.1,1.3-0.2
		l39.1-14.6v117.2c0,1.7,1.1,3.1,2.7,3.5l116,29.6c0.3,0.1,0.6,0.1,0.9,0.1c0.4,0,0.8-0.1,1.2-0.2l86.8-29.6
		c1.5-0.5,2.5-1.9,2.5-3.4v-76l32-11.1c1-0.4,1.8-1.1,2.2-2.2c0.4-1,0.3-2.1-0.2-3.1L417.9,121.6z M205.4,144.1l-23.8,8.9l23.8-21.4
		V144.1z M321.4,294l-108.8-27.8V128.2l108.8,29.1V294z M325,150.7l-103.2-27.6l73.1-24l106.9,25L325,150.7z M408.3,266.5
		l-79.6,27.1V162.1l32.6,47c0.7,1,1.8,1.6,3,1.6c0.4,0,0.8-0.1,1.2-0.2l42.8-14.8V266.5L408.3,266.5z M365.7,202.7l-32.7-47.1
		l80-27.7l27.9,48.8L365.7,202.7z"/>
</g>
    <g>
	<rect class="st32" height="144" width="500" x="1" y="360"/>
        <text transform="matrix(1 0 0 1 141.1123 398.5557)"><tspan class="st2 st33 st34" x="0" y="0">Cartons et</tspan>
            <tspan class="st2 st33 st34" x="-18" y="64.8"> protections</tspan></text>
</g>
    <g>
	<path class="st2" d="M203.8,208.8c0,0-0.1-0.1-0.1-0.1c-0.1-0.2-0.2-0.3-0.4-0.4c0,0-0.1-0.1-0.1-0.1c-0.2-0.2-0.5-0.3-0.8-0.4
		l-71.5-16.7c-0.4-0.1-0.8-0.1-1.2,0.1l-51,16.7c-0.1,0.1-0.3,0.1-0.4,0.2c-0.1,0-0.2,0.1-0.3,0.1c0,0,0,0-0.1,0.1c0,0-0.1,0-0.1,0
		l-26.2,23.6c-0.8,0.7-0.9,1.8-0.4,2.7c0.4,0.6,1.1,1,1.9,1c0.3,0,0.5,0,0.8-0.1l23.3-8.7v69.8c0,1,0.7,1.9,1.6,2.1l69.1,17.6
		c0.2,0,0.3,0.1,0.5,0.1c0.2,0,0.5,0,0.7-0.1l51.7-17.6c0.9-0.3,1.5-1.1,1.5-2v-45.2l19-6.6c0.6-0.2,1.1-0.7,1.3-1.3
		c0.2-0.6,0.2-1.3-0.1-1.8L203.8,208.8z M77.2,222.2l-14.2,5.3l14.2-12.7V222.2z M146.3,311.5L81.6,295v-82.3l64.8,17.4V311.5z
		 M148.4,226.2L87,209.7l43.5-14.3l63.6,14.9L148.4,226.2z M198.1,295.1l-47.4,16.2V233l19.4,28c0.4,0.6,1.1,0.9,1.8,0.9
		c0.2,0,0.5,0,0.7-0.1l25.5-8.8V295.1L198.1,295.1z M172.7,257.1l-19.5-28.1l47.7-16.5l16.6,29.1L172.7,257.1z"/>
</g>
</svg>
