<?xml version="1.0" encoding="utf-8"?>
<!-- Generator: Adobe Illustrator 22.1.0, SVG Export Plug-In . SVG Version: 6.00 Build 0)  -->
<svg style="enable-background:new 0 0 500 500;" id="Calque_1" version="1.1" viewBox="0 0 500 500" x="0px"
     xmlns="http://www.w3.org/2000/svg" y="0px" xml:space="preserve">
<style type="text/css">
	.st0{fill:#EAEAEA;}
	.st1{fill:#8C8C8C;}
	.st2{fill:#FFFFFF;}
	.st3{fill:#EAEAEA;stroke:#8C8C8C;stroke-width:7;stroke-miterlimit:10;}
	.st4{fill:#070707;}
	.st5{fill:none;stroke:#8C8C8C;stroke-width:7;stroke-miterlimit:10;}
	.st6{fill:none;stroke:#8C8C8C;stroke-width:10;stroke-miterlimit:10;}
	.st7{fill:#8C8C8C;stroke:#8C8C8C;stroke-width:3;stroke-miterlimit:10;}
	.st8{fill:none;stroke:#8C8C8C;stroke-width:8;stroke-miterlimit:10;}
	.st9{fill:none;stroke:#8E8E8E;stroke-width:6;stroke-miterlimit:10;}
	.st10{fill:#8E8E8E;}
	.st11{fill:#505050;}
	.st12{fill:none;stroke:#8E8E8E;stroke-width:2;stroke-miterlimit:10;}
	.st13{fill:#8C8C8C;stroke:#8C8C8C;stroke-width:2;stroke-miterlimit:10;}
	.st14{fill:#8C8C8C;stroke:#FFFFFF;stroke-width:2;stroke-miterlimit:10;}
	.st15{fill:none;stroke:#FFFFFF;stroke-width:2;stroke-miterlimit:10;}
	.st16{fill:none;stroke:#8C8C8C;stroke-miterlimit:10;}
	.st17{fill:none;stroke:#8C8C8C;stroke-width:13;stroke-miterlimit:10;}
	.st18{fill:#EAEAEA;stroke:#8C8C8C;stroke-width:8;stroke-miterlimit:10;}
	.st19{fill:none;stroke:#8C8C8C;stroke-width:4;stroke-miterlimit:10;}
	.st20{fill:#8C8C8C;stroke:#8C8C8C;stroke-width:0.75;stroke-miterlimit:10;}
	.st21{fill:none;stroke:#8C8C8C;stroke-width:9;stroke-miterlimit:10;}
	.st22{fill:#8C8C8C;stroke:#8C8C8C;stroke-width:0.5;stroke-miterlimit:10;}
	.st23{fill:none;}
	.st24{fill:#6B6B6B;}
	.st25{font-family:'HelveticaNeue-CondensedBold';}
	.st26{font-size:54px;}
	.st27{stroke:#8C8C8C;stroke-width:8;stroke-miterlimit:10;}
	.st28{fill:#8C8C8C;stroke:#8C8C8C;stroke-miterlimit:10;}
	.st29{fill:none;stroke:#8C8C8C;stroke-width:11;stroke-miterlimit:10;}
	.st30{fill:none;stroke:#8C8C8C;stroke-width:6;stroke-miterlimit:10;}
	.st31{stroke:#8C8C8C;stroke-width:6;stroke-miterlimit:10;}
	.st32{fill:#8C8C8C;stroke:#8C8C8C;stroke-width:4;stroke-miterlimit:10;}
	.st33{fill:#8C8C8C;stroke:#8C8C8C;stroke-width:1.05;stroke-miterlimit:10;}
	.st34{fill:#D6D6D6;}
	.st35{fill:none;stroke:#EAEAEA;stroke-width:5;stroke-miterlimit:10;}
	.st36{fill:#8C8C8C;stroke:#8C8C8C;stroke-width:10;stroke-miterlimit:10;}
	.st37{fill:none;stroke:#CECECE;stroke-width:2;stroke-miterlimit:10;}
	.st38{fill:none;stroke:#FFFFFF;stroke-width:4;stroke-miterlimit:10;}
	.st39{fill-rule:evenodd;clip-rule:evenodd;fill:#8C8C8C;}
	.st40{fill:#8C8C8C;stroke:#8C8C8C;stroke-width:8;stroke-miterlimit:10;}
	.st41{fill:#8C8C8C;stroke:#8C8C8C;stroke-width:7;stroke-miterlimit:10;}
	.st42{fill:#DBDBDB;stroke:#8C8C8C;stroke-width:7;stroke-miterlimit:10;}
	.st43{fill:none;stroke:#8C8C8C;stroke-width:5;stroke-miterlimit:10;}
	.st44{fill:none;stroke:#8C8C8C;stroke-width:3;stroke-miterlimit:10;}
	.st45{clip-path:url(#SVGID_2_);fill:#8C8C8C;}
	.st46{clip-path:url(#SVGID_2_);fill:none;stroke:#8C8C8C;stroke-width:8;stroke-miterlimit:10;}
	.st47{clip-path:url(#SVGID_2_);fill:#FFFFFF;}
	.st48{clip-path:url(#SVGID_2_);fill:#EAEAEA;}
	.st49{clip-path:url(#SVGID_2_);fill:none;stroke:#8C8C8C;stroke-miterlimit:10;}
	.st50{fill:none;stroke:#FFFFFF;stroke-width:0.75;stroke-miterlimit:10;}
	.st51{fill:none;stroke:#8C8C8C;stroke-width:14;stroke-miterlimit:10;}
	.st52{fill:none;stroke:#EAEAEA;stroke-width:2;stroke-miterlimit:10;}
	.st53{fill:none;stroke:#8C8C8C;stroke-width:2;stroke-miterlimit:10;}
</style>
    <rect class="st0" height="500" width="500" x="-1"/>
    <g id="QyYfFt_2_">
	<g>
		<path class="st1" d="M249.7,151.6c2.3,0,4.4,0,6.4,0c3.1-0.1,4.5,1.6,4.4,4.6c0,1.5-0.1,3,0.1,4.5c0.1,0.8,0.7,2,1.4,2.2
			c6.1,2.2,8.1,6.7,7.7,12.9c-0.1,1.1,0,2.2,0,3.6c8,1.6,9.7,7,9.7,14.4c-0.2,20.2,0.1,40.4,0.1,60.5c0,19.4-0.1,38.9-0.2,58.3
			c0,1.2,0,2.5,0,3.8c1.2,0.3,2.6,0.3,3.2,1c1.2,1.4,2.6,3.2,2.5,4.8c-0.1,1.4-1.9,2.8-3.2,3.9c-0.6,0.5-1.9,0.3-2.9,0.3
			c-21.6,0-43.2,0-64.8,0c-2.6,0-5.2-0.4-5.8-3.4c-0.3-1.5,0.5-3.6,1.4-5c0.7-1,2.5-1.2,4.1-1.8c0-2.2,0-4.6,0-6.9
			c-0.1-21.8-0.2-43.6-0.2-65.4c0-16.8,0.1-33.6,0.2-50.5c0-9.1,1.1-10.8,9.5-14.3c0-2,0-4.1,0-6.4c-0.7-0.2-1.4-0.4-2.1-0.5
			c-4.1-0.3-5.8-2.6-4.3-6.5c0.3-0.8,1.8-1.6,2.8-1.7c2.7-0.2,5.4,0.1,8.1-0.2c2.5-0.3,5-0.5,5-4.4c-0.1-7.7,0.1-7.7,7.7-7.9
			c0.8,0,1.7-0.2,2.9-0.3c0-5.3,0.2-10.5-0.1-15.7c-0.2-3.6,1.1-5.5,4.5-6.5c2.3-0.6,5.1-1,5.3-4.6c0-0.7,1.6-1.5,2.5-1.8
			c12.2-4.3,24.4-8.4,36.5-12.7c3-1,4.7-0.3,5.6,2.8c0.3,1,0.6,1.9,0.9,2.8c1.4,3.3,0.2,5-3,6.1c-11.9,4-23.7,8.2-35.5,12.1
			c-1.4,0.5-3.1,0.4-4.5,0c-3.3-0.8-6,1.1-6,4.5C249.7,142.5,249.7,146.7,249.7,151.6z"/>
        <path class="st1" d="M330.9,109.2c3.7,1.3,7.4,2.5,12,4.1c-4.1,0.9-7.5,2.1-11.1,2.3c-7.9,0.5-15.8,0.5-23.7,0.8
			c-0.9,0-1.9,0.3-2.5,0c-1.3-0.6-3-1.4-3.4-2.6c-0.4-1.1,0.3-3.5,1.2-4c4-2.2,8.2-4.8,12.6-5.7c6.5-1.3,13.3-1.4,20-1.6
			c2.3-0.1,4.6,0.9,6.9,1.4c0,0.5,0.1,1,0.1,1.5c-3.9,1.1-7.7,2.1-11.6,3.2C331.2,108.7,331,108.9,330.9,109.2z"/>
        <path class="st1" d="M208.9,155.9c3.9,0.1,7,3.3,6.8,7.2c-0.1,3.8-3.1,6.8-6.9,6.8c-3.9,0-6.9-3-6.9-7
			C201.9,158.9,204.9,155.9,208.9,155.9z"/>
        <path class="st0" d="M250.7,253.1c0,16.4,0,32.8,0,49.3c0,1.2,0.3,2.5-0.2,3.7c-1.1,2.8-6,4.6-14,4.7c-8.6,0.1-13.8-1.7-15.3-4.7
			c-0.4-0.7-0.2-1.5-0.2-2.2c-0.2-20.2-0.6-40.3-0.6-60.5c0-13.8,0.4-27.6,0.6-41.4c0-0.5,0-1,0-1.5c0.6-3.7,6.5-5.9,15.4-5.8
			c8.4,0.1,14.3,2.3,14.3,5.8c0,11.6-0.3,23.1-0.4,34.7c-0.1,6,0,11.9,0,17.9C250.4,253.1,250.6,253.1,250.7,253.1z"/>
	</g>
</g>
    <g>
	<rect class="st23" height="144" width="500" x="2" y="362"/>
        <text class="st24 st25 st26" transform="matrix(1 0 0 1 131.5815 400.5557)">Chalumeau</text>
</g>
</svg>
