<?xml version="1.0" encoding="utf-8"?>
<!-- Generator: Adobe Illustrator 22.1.0, SVG Export Plug-In . SVG Version: 6.00 Build 0)  -->
<svg version="1.1" id="Calque_1" xmlns="http://www.w3.org/2000/svg" xmlns:xlink="http://www.w3.org/1999/xlink" x="0px" y="0px"
	 viewBox="0 0 350 300" style="enable-background:new 0 0 350 300;" xml:space="preserve">
<style type="text/css">
	.st0{stroke:#FFFFFF;stroke-miterlimit:10;}
	.st1{fill:#FFFFFF;stroke:#000000;stroke-miterlimit:10;}
</style>
<title>selected</title>
<g>
	<path class="st0" d="M258.8,57.8h3.7c6.2,0,11.2-6.5,11.2-14.5s-5-14.5-11.2-14.5h-46.4l4.8-12.3c0.9-2.4,0.2-5.3-1.7-6.5
		c-0.5-0.3-1.1-0.5-1.7-0.5h-15c-1.4,0-2.7,1-3.3,2.7l-6.5,16.6h-8.9V14.5c-1.3-6.9-6.3-11.7-11.7-11.4c-5.1,0.3-9.5,4.9-10.8,11.4
		v14.5h-8.9l-6.5-16.6c-0.6-1.6-1.9-2.7-3.3-2.7h-15c-2.1,0-3.7,2.2-3.7,4.8c0,0.7,0.1,1.5,0.4,2.2l4.8,12.3H86.6
		c-6.2,0-11.2,6.5-11.2,14.5s5,14.5,11.2,14.5v149.4c-6.2,0-11.2,6.5-11.2,14.5c0,8,5,14.5,11.2,14.5h39.1l-20,55.8
		c-0.9,2.4,0,5.3,1.8,6.4c0.5,0.3,1,0.4,1.6,0.4h15c1.5,0,2.8-1.1,3.4-2.8l21.5-59.8h12.6h22.5h12.6L218,296
		c0.6,1.7,1.9,2.8,3.4,2.8h15c2.1,0,3.7-2.2,3.7-4.8c0-0.7-0.1-1.4-0.3-2l-20-55.8h42.8c6.2,0,11.2-6.5,11.2-14.5
		c0-8-5-14.5-11.2-14.5h-3.7V101.8V57.8z M205,19.3h6.6l-3.7,9.6h-6.6L205,19.3z M140.4,19.3l3.7,9.6h-6.6l-3.7-9.6H140.4z
		 M82.8,43.4c0-2.7,1.7-4.8,3.7-4.8h176c2.1,0,3.7,2.2,3.7,4.8s-1.7,4.8-3.7,4.8h-176C84.5,48.2,82.8,46,82.8,43.4 M121.6,289.1
		h-6.7l19-53h6.7L121.6,289.1z M230.5,289.1h-6.7l-19-53h6.7L230.5,289.1z M262.6,216.9c2.1,0,3.7,2.2,3.7,4.8
		c0,2.7-1.7,4.8-3.7,4.8h-176c-2.1,0-3.7-2.2-3.7-4.8c0-2.7,1.7-4.8,3.7-4.8H262.6z"/>
	<rect x="198.9" y="168.7" class="st0" width="7.5" height="9.6"/>
	<rect x="213.9" y="168.7" class="st0" width="7.5" height="9.6"/>
	<rect x="124" y="168.7" class="st0" width="22.5" height="9.6"/>
	<rect x="94.4" y="60" class="st1" width="156.6" height="143.8"/>
</g>
</svg>
