<svg id="Calque_1" data-name="Calque 1" xmlns="http://www.w3.org/2000/svg" viewBox="0 0 350 300"><defs><style>.cls-1{fill:none;stroke:#000;stroke-miterlimit:10;stroke-width:4px;}</style></defs><title>selected</title><path class="cls-1" d="M221.18,74.61a11.27,11.27,0,0,1-1,6,8.29,8.29,0,0,1-6.94,4.55,7.57,7.57,0,0,1-7.57-7.56V76.18a9.34,9.34,0,1,0-18.68,0V87.13a7.57,7.57,0,1,1-15.13,0v-30a8.19,8.19,0,0,1,8.19-8.19h32.56a8.2,8.2,0,0,1,8.2,8.19V69.82m5.65,4.61c-.12-2.8-.89-4.83-1.35-4.88s-1,2.81-2.13,2.84-1.67-2.24-2.12-2.13.14,2,.31,4.35m4.54-5.21v-.32H273.1a12.54,12.54,0,0,0,0-25.08h-93A13.12,13.12,0,0,0,167,57.1v30a12.48,12.48,0,0,0,24.95,0V76.18a4.43,4.43,0,1,1,8.86,0V77.6a12.49,12.49,0,0,0,12.48,12.47c7.15,0,11.22-7.1,11.44-7.51a15.92,15.92,0,0,0,1.78-8.13m-5.65-4.61v.38a2.45,2.45,0,1,0,4.9,0v-.8m47.38-5.22H225.72V57.1a13,13,0,0,0-2.89-8.19H273.1a7.64,7.64,0,0,1,0,15.27Z"/><path class="cls-1" d="M248.29,143h-2.63V119.43A11.45,11.45,0,0,0,234.23,108H97.47a11.44,11.44,0,0,0-11.42,11.43V143H83.41a10.94,10.94,0,0,0-10.93,10.93v40.5A52.31,52.31,0,0,0,73,201.9a3.23,3.23,0,1,0,6.39-.92,46.82,46.82,0,0,1-.47-6.6v-40.5a4.47,4.47,0,0,1,4.47-4.47H248.29a4.47,4.47,0,0,1,4.47,4.47v40.5a46.22,46.22,0,0,1-46.16,46.16H125.1A46.17,46.17,0,0,1,108,237.27a45.23,45.23,0,0,1-7.84-4C89.49,226.31,80.36,213.77,80,204.93c0-.13,0-3.53-.93-3.74-.72-.16-1.27,1.62-2.81,1.87s-2.33-1.17-2.8-.93c-1.2.6,1.16,11.47,8.17,21.85a52.61,52.61,0,0,0,43.51,23h81.5a52.67,52.67,0,0,0,52.62-52.62v-40.5A10.94,10.94,0,0,0,248.29,143Zm-9.09,0H92.51v-5H239.2Zm0-23.39H92.51v-.08a5,5,0,0,1,5-5H234.23a5,5,0,0,1,5,5ZM67.81,205.87"/></svg>