<svg id="Calque_1" data-name="Calque 1" xmlns="http://www.w3.org/2000/svg" viewBox="0 0 350 300"><defs><style>.cls-1{fill:none;stroke:#000;stroke-miterlimit:10;stroke-width:5px;}</style></defs><title>selected</title><path d="M151,35.31l1.32,2.5-.36.19-4.73,2.51L150,45.06l46.39,74.48,2.47,4,4.12-2.19,1.3-.69,1.33,2.49-.53.28-4.72,2.52,2.83,4.54L230.4,174.1a55,55,0,0,1,6.49,43.77c-.18.64-.36,1.29-.55,1.91a55.69,55.69,0,0,1-53,39.25A55.93,55.93,0,0,1,165.2,256a55,55,0,0,1-32.65-29.88l-21-47-2.18-4.89-4.73,2.52-.52.28-1.33-2.5,1.3-.69,4.13-2.19-1.91-4.27L70.58,87.28,68.4,82.39,63.67,84.9l-.36.19L62,82.6,63.12,82,90.43,67.48l32.09-17.05,27.31-14.51,1.14-.61m25.56,100.07L181,133l10.71-5.69,4.72-2.52-2.83-4.54L147.17,45.8l-2.47-4L140.58,44l-1,.5-4.46,2.37-4.41,2.35,2.34,4.42L174.18,131l2.35,4.41m-65.77,35,4.73-2.52,10.71-5.69,4.41-2.35-2.34-4.41L87.19,78.07l-2.35-4.42L80.43,76,75,78.87,70.9,81.06l1.9,4.26,35.78,80.13,2.18,4.89m92.08,49.49,4.42-2.35,4.29-2.28,1.33,2.5L178.49,236l-1.32-2.5,4.29-2.28,4.41-2.35-2.34-4.41L167.37,194l-1.88-3.53-3.86,1a25.05,25.05,0,0,1-31.38-20.75l-1-7.09L123,167.06,116,170.73l-4.13,2.19,1.91,4.27,21.32,47.75a52.18,52.18,0,0,0,31,28.35,52.82,52.82,0,0,0,17.22,2.91A52.74,52.74,0,0,0,228,175.59L200.35,131.2l-2.47-4-4.12,2.19-6.91,3.67-6.33,3.37,5.34,4.77a25,25,0,0,1-.36,37.62l-3,2.61,1.88,3.53,16.16,30.41,2.34,4.42M153,28.55l-5.55,2.95L120.17,46,88.08,63.07,60.77,77.58l-5.55,3,6,11.33L66,89.32l35.77,80.12-5.72,3,6,11.33,4.94-2.63,21,46.95a59.91,59.91,0,0,0,35.59,32.56,60,60,0,0,0,48.09-3.79,59.84,59.84,0,0,0,29.45-35.66q.31-1,.6-2.07a59.93,59.93,0,0,0-7.08-47.72l-27.18-43.64,4.94-2.63-6-11.32-5.72,3L154.27,42.41l4.78-2.53-6-11.33ZM178.6,128.62l-41.08-77.3L142,49l.94-.5,46.39,74.48-10.71,5.69Zm-65.46,34.79L77.37,83.28l5.4-2.87,41.08,77.31-10.71,5.69Zm91.77,49.65-16.16-30.4a30.06,30.06,0,0,0,.44-45.14l6.92-3.68,27.64,44.39a47.77,47.77,0,0,1-40.41,73,47.89,47.89,0,0,1-15.59-2.64A47.22,47.22,0,0,1,139.7,222.9l-21.32-47.75,6.92-3.68a30,30,0,0,0,29.79,25.94,29.75,29.75,0,0,0,7.86-1l16.16,30.42-8.7,4.62,6,11.33,43.22-23-6-11.33-8.71,4.62Z"/><path d="M116.49,69.9l55.17,106.57-3.52,1.82L113,71.72l3.52-1.82m2.14-6.74-12.4,6.42L166,185l12.41-6.42L118.63,63.16Z"/><path class="cls-1" d="M137.77,165.84c-.35-.8-.71-1.59-1.06-2.39Q115,120.7,93.23,78l10.55-5.49,57.31,113.9a17.46,17.46,0,0,1-11.94,1A17,17,0,0,1,139,179a17.11,17.11,0,0,1-1.23-13.19"/><path class="cls-1" d="M188.77,150.48a17.19,17.19,0,0,1,1.81,6.48,16.72,16.72,0,0,1-.82,6.64,17.46,17.46,0,0,1-7.73,9.16L121.92,60.31l10.57-5.46,44.86,84.79,1.34,2.24a17.08,17.08,0,0,1,10.08,8.6"/></svg>