<svg id="Calque_1" data-name="Calque 1" xmlns="http://www.w3.org/2000/svg" viewBox="0 0 350 300"><title>selected</title><path d="M98,28A44,44,0,1,1,54,72,44.05,44.05,0,0,1,98,28m0-4a48,48,0,1,0,48,48A48,48,0,0,0,98,24Z"/><path d="M174.5,30.92c22.22,0,43.33,10.29,59.45,29,15.51,18,23.79,41.34,21.09,59.52-1.88,12.74-17.2,28.72-48.88,60.78C192.89,193.61,184.9,200,175.42,200h-.36c-9.76-.16-17.12-6.77-27.24-16.84C115,150.53,97,132.55,95,119.4c-2.76-18.23,4.6-40.62,19.22-58.43,15.06-18.35,35.31-29,57-30,1.1-.05,2.22-.08,3.32-.08h0m0-4c-1.15,0-2.32,0-3.49.08-51.8,2.35-85.63,55.87-80,93,2.17,14.27,19.39,31.57,54,66,10.53,10.48,18.77,17.82,30,18h.42c11.14,0,19.94-7.2,33.58-21,32.06-32.44,47.91-48.85,50-63,5.51-37.23-31.11-93.08-84.51-93.08Z"/><path d="M243,27a44,44,0,1,1-44,44,44.05,44.05,0,0,1,44-44m0-4a48,48,0,1,0,48,48,48,48,0,0,0-48-48Z"/><path d="M187,149a8,8,0,0,1,8,8v73a8,8,0,0,1-8,8H166a8,8,0,0,1-8-8V157a8,8,0,0,1,8-8h21m0-4H166a12,12,0,0,0-12,12v73a12,12,0,0,0,12,12h21a12,12,0,0,0,12-12V157a12,12,0,0,0-12-12Z"/><path d="M100,57A17,17,0,1,1,83,74a17,17,0,0,1,17-17m0-4a21,21,0,1,0,21,21,21,21,0,0,0-21-21Z"/><path d="M243,54a17,17,0,1,1-17,17,17,17,0,0,1,17-17m0-4a21,21,0,1,0,21,21,21,21,0,0,0-21-21Z"/></svg>