<svg id="Calque_1" data-name="Calque 1" xmlns="http://www.w3.org/2000/svg" viewBox="0 0 350 300"><title>selected</title><path d="M254.37,51.62l18.75,24.89V255.12H236v-1.77h0V234.47l0-4V203.58h0V140.05l0-4V109.17h0V90.29l0-4V76.46l18.4-24.84m-178.74,0L94,76.46v9.83h0v18.88l0,4v26.88h0v63.53l0,4v26.89h0v18.88l0,4v1.77H56.88V76.51L75.63,51.62m89.37.1,18.32,24.74v9.83H183v22.88h.32v121.3H183v22.88h.32v1.77H146.68V76.46L165,51.72m63,42.57v6.88H191.32V94.29H228m-92,0v6.88H102V94.29h34m92,49.76v51.53H194V144.05h34m-92,0v51.53H102V144.05h34m92,94.42v6.88H191.32v-6.88H228m-92,0v6.88H102v-6.88h34M254.35,44.94,232,75.14V90.29h0v14.88h0v34.88h0v59.53h0v34.89h0v14.88h0v9.77h45.15V75.17L254.35,44.94Zm-178.7,0L52.88,75.17v184H98v-9.77h0V234.47h0V199.58h0V140.05h0V105.17h0V90.29h0V75.14L75.65,44.94ZM165,45,142.68,75.14v184h44.64v-9.77H187V234.47h.32V105.17H187V90.29h.32V75.14L165,45Zm67,45.29H187.32v14.88H232V90.29Zm-92,0H98v14.88h42V90.29Zm92,49.76H190v59.53h42V140.05Zm-92,0H98v59.53h42V140.05Zm92,94.42H187.32v14.88H232V234.47Zm-92,0H98v14.88h42V234.47Z"/><path d="M160.5,89a3.5,3.5,0,1,0,3.5,3.5,3.5,3.5,0,0,0-3.5-3.5Z"/><path d="M170.5,89a3.5,3.5,0,1,0,3.5,3.5,3.5,3.5,0,0,0-3.5-3.5Z"/><path d="M160.5,163a3.5,3.5,0,1,0,3.5,3.5,3.5,3.5,0,0,0-3.5-3.5Z"/><path d="M170.5,163a3.5,3.5,0,1,0,3.5,3.5,3.5,3.5,0,0,0-3.5-3.5Z"/><path d="M160.5,237a3.5,3.5,0,1,0,3.5,3.5,3.5,3.5,0,0,0-3.5-3.5Z"/><path d="M170.5,237a3.5,3.5,0,1,0,3.5,3.5,3.5,3.5,0,0,0-3.5-3.5Z"/><path d="M70.5,89A3.5,3.5,0,1,0,74,92.5,3.5,3.5,0,0,0,70.5,89Z"/><path d="M80.5,89A3.5,3.5,0,1,0,84,92.5,3.5,3.5,0,0,0,80.5,89Z"/><path d="M70.5,163a3.5,3.5,0,1,0,3.5,3.5,3.5,3.5,0,0,0-3.5-3.5Z"/><path d="M80.5,163a3.5,3.5,0,1,0,3.5,3.5,3.5,3.5,0,0,0-3.5-3.5Z"/><path d="M70.5,237a3.5,3.5,0,1,0,3.5,3.5,3.5,3.5,0,0,0-3.5-3.5Z"/><path d="M80.5,237a3.5,3.5,0,1,0,3.5,3.5,3.5,3.5,0,0,0-3.5-3.5Z"/><path d="M250.5,89a3.5,3.5,0,1,0,3.5,3.5,3.5,3.5,0,0,0-3.5-3.5Z"/><path d="M260.5,89a3.5,3.5,0,1,0,3.5,3.5,3.5,3.5,0,0,0-3.5-3.5Z"/><path d="M250.5,163a3.5,3.5,0,1,0,3.5,3.5,3.5,3.5,0,0,0-3.5-3.5Z"/><path d="M260.5,163a3.5,3.5,0,1,0,3.5,3.5,3.5,3.5,0,0,0-3.5-3.5Z"/><path d="M250.5,237a3.5,3.5,0,1,0,3.5,3.5,3.5,3.5,0,0,0-3.5-3.5Z"/><path d="M260.5,237a3.5,3.5,0,1,0,3.5,3.5,3.5,3.5,0,0,0-3.5-3.5Z"/></svg>