<?xml version="1.0" encoding="utf-8"?>
<!-- Generator: Adobe Illustrator 22.1.0, SVG Export Plug-In . SVG Version: 6.00 Build 0)  -->
<svg style="enable-background:new 0 0 500 500;" id="Calque_1" version="1.1" viewBox="0 0 500 500" x="0px"
     xmlns="http://www.w3.org/2000/svg" y="0px" xml:space="preserve">
<style type="text/css">
	.st0{fill:#4FBDD7;}
	.st1{fill:#EAEAEA;}
	.st2{fill:#FFFFFF;}
	.st3{fill:#4FBDD7;stroke:#FFFFFF;stroke-width:5;stroke-miterlimit:10;}
	.st4{fill:#8C8C8C;}
	.st5{fill:#070707;}
	.st6{fill:none;stroke:#FFFFFF;stroke-width:7;stroke-miterlimit:10;}
	.st7{fill:none;stroke:#FFFFFF;stroke-width:10;stroke-miterlimit:10;}
	.st8{fill:#FFFFFF;stroke:#FFFFFF;stroke-width:3;stroke-miterlimit:10;}
	.st9{fill:none;stroke:#FDFFFF;stroke-width:6;stroke-miterlimit:10;}
	.st10{fill:#FAFEFF;}
	.st11{fill:none;stroke:#FFFFFF;stroke-width:2;stroke-miterlimit:10;}
	.st12{fill:#FFFFFF;stroke:#FFFFFF;stroke-width:2;stroke-miterlimit:10;}
	.st13{fill:#4FBDD7;stroke:#FFFFFF;stroke-width:4;stroke-miterlimit:10;}
	.st14{fill:#FFFFFF;stroke:#FFFFFF;stroke-width:4;stroke-miterlimit:10;}
	.st15{fill:none;stroke:#FFFFFF;stroke-miterlimit:10;}
	.st16{fill:#FFFFFF;stroke:#FFFFFF;stroke-width:13;stroke-miterlimit:10;}
	.st17{fill:#4FBDD7;stroke:#FFFFFF;stroke-width:8;stroke-miterlimit:10;}
	.st18{fill:#FFFFFF;stroke:#FFFFFF;stroke-width:0.75;stroke-miterlimit:10;}
	.st19{fill:#FFFFFF;stroke:#FFFFFF;stroke-width:0.5;stroke-miterlimit:10;}
	.st20{fill:#FFFFFF;stroke:#FFFFFF;stroke-width:8;stroke-miterlimit:10;}
	.st21{fill:#FFFFFF;stroke:#FFFFFF;stroke-miterlimit:10;}
	.st22{fill:#FFFFFF;stroke:#FFFFFF;stroke-width:11;stroke-miterlimit:10;}
	.st23{fill:#FFFFFF;stroke:#FFFFFF;stroke-width:6;stroke-miterlimit:10;}
	.st24{fill:#8C8C8C;stroke:#8C8C8C;stroke-width:4;stroke-miterlimit:10;}
	.st25{fill:#FFFFFF;stroke:#FFFFFF;stroke-width:1.05;stroke-miterlimit:10;}
	.st26{fill:none;stroke:#4FBDD7;stroke-width:5;stroke-miterlimit:10;}
	.st27{fill:none;stroke:#FFFFFF;stroke-width:4;stroke-miterlimit:10;}
	.st28{fill:#8C8C8C;stroke:#FFFFFF;stroke-width:4;stroke-miterlimit:10;}
	.st29{fill:#FFFFFF;stroke:#FFFFFF;stroke-width:10;stroke-miterlimit:10;}
	.st30{fill:none;stroke:#4FBDD7;stroke-width:2;stroke-miterlimit:10;}
	.st31{fill-rule:evenodd;clip-rule:evenodd;fill:#FFFFFF;}
	.st32{fill:none;}
	.st33{font-family:'HelveticaNeue-CondensedBold';}
	.st34{font-size:54px;}
	.st35{fill:#FFFFFF;stroke:#FFFFFF;stroke-width:7;stroke-miterlimit:10;}
	.st36{fill:#FFFFFF;stroke:#4FBDD7;stroke-width:7;stroke-miterlimit:10;}
	.st37{fill:#FCFCFC;}
	.st38{fill:#FFFFFF;stroke:#FFFFFF;stroke-width:5;stroke-miterlimit:10;}
	.st39{fill:none;stroke:#FFFFFF;stroke-width:3;stroke-miterlimit:10;}
	.st40{fill:none;stroke:#FFFFFF;stroke-width:8;stroke-miterlimit:10;}
	.st41{fill:none;stroke:#FFFFFF;stroke-width:6;stroke-miterlimit:10;}
	.st42{fill:#FFFFFF;stroke:#4FBDD7;stroke-width:3;stroke-miterlimit:10;}
	.st43{fill:none;stroke:#FFFFFF;stroke-width:0.75;stroke-miterlimit:10;}
	.st44{fill:#4FBDD7;stroke:#FFFFFF;stroke-width:9;stroke-miterlimit:10;}
	.st45{fill:none;stroke:#FFFFFF;stroke-width:9;stroke-miterlimit:10;}
	.st46{fill:none;stroke:#4FBDD7;stroke-width:3;stroke-miterlimit:10;}
</style>
    <rect class="st0" height="500" width="504" x="-3"/>
    <path class="st4" d="M343.5,249.8c0,0.5-0.4,1-1,1s-1-0.4-1-1c0-0.5,0.4-1,1-1S343.5,249.2,343.5,249.8z"/>
    <path class="st4" d="M337.7,249.8c0,0.5-0.4,1-1,1s-1-0.4-1-1c0-0.5,0.4-1,1-1S337.7,249.2,337.7,249.8z"/>
    <path class="st4" d="M337.7,255.6c0,0.5-0.4,1-1,1s-1-0.4-1-1s0.4-1,1-1S337.7,255.1,337.7,255.6z"/>
    <path class="st2" d="M351.3,282.1h-13.6c0.3-4.8,3.2-9.4,7.3-11.4l0.9-0.5c0.3-0.2,0.5-0.5,0.5-0.9v-5c0-0.5-0.4-1-1-1h-4.1
	c4.8-2.7,8-7.8,8-13.6c0-7.1-4.7-12.9-10.9-14.9c-0.5-0.2-1.1,0.1-1.2,0.6c-0.2,0.5,0.1,1.1,0.6,1.2c5.7,1.8,9.6,7,9.6,13
	c0,7.5-6.1,13.6-13.6,13.6c-7.5,0-13.6-6.1-13.6-13.6c0-6,3.8-11.2,9.6-13c0.5-0.2,0.8-0.7,0.6-1.2c-0.2-0.5-0.7-0.8-1.2-0.6
	c-6.2,1.9-10.9,7.8-10.9,14.9c0,5.9,3.2,11,8,13.6h-4.1c-0.5,0-1,0.4-1,1v5c0,0.4,0.2,0.7,0.5,0.9l0.9,0.5c4,2,6.9,6.6,7.3,11.4
	h-13.6c-0.5,0-1,0.4-1,1s0.4,1,1,1h35c0.5,0,1-0.4,1-1S351.8,282.1,351.3,282.1z M323.5,268.9l-0.4-0.2v-3.4h21.4v3.4l-0.4,0.2
	c-4.9,2.4-8,7.7-8.3,13.1h-4C331.5,276.7,328.4,271.3,323.5,268.9z"/>
    <path class="st4" d="M334.8,235.2c0,0.5-0.4,1-1,1s-1-0.4-1-1s0.4-1,1-1S334.8,234.7,334.8,235.2z"/>
    <circle class="st2" cx="334.3" cy="249.3" r="15.8"/>
    <path class="st2" d="M245.1,263.1c0,2.3-1.9,4.2-4.2,4.2s-4.2-1.9-4.2-4.2s1.9-4.2,4.2-4.2S245.1,260.8,245.1,263.1z"/>
    <path class="st2" d="M211.7,284h58.5c2.3,0,4.2-1.9,4.2-4.2v-12.5h8.4c2.3,0,4.2-1.9,4.2-4.2v-20.9h20.9c2.3,0,4.2-1.9,4.2-4.2v-46
	c0-1.6-0.9-3-2.3-3.7l-22.8-11.4v-47.6c0-2.3-1.9-4.2-4.2-4.2h-25.1v-21.7h33.4c9.2,0,16.7-7.5,16.7-16.7c0-9.2-7.5-16.7-16.7-16.7
	h-12.5c-16.1,0-29.3,13.1-29.3,29.3v25.9h-16.7V99.3c0-16.1-13.1-29.3-29.3-29.3h-12.5c-9.2,0-16.7,7.5-16.7,16.7
	c0,9.2,7.5,16.7,16.7,16.7h33.4v21.7h-25.1c-23.1,0-41.8,18.7-41.8,41.8v58.5c0,23,18.7,41.8,41.8,41.8h8.4v12.5
	C207.5,282.1,209.4,284,211.7,284z M278.6,78.4h12.5c4.6,0,8.4,3.8,8.4,8.4c0,4.6-3.7,8.4-8.4,8.4h-33
	C260,85.6,268.4,78.4,278.6,78.4z M190.8,95.1c-4.6,0-8.4-3.8-8.4-8.4c0-4.6,3.7-8.4,8.4-8.4h12.5c10.1,0,18.5,7.2,20.5,16.7H190.8z
	 M303.7,194.6v39.2h-16.7v-47.6L303.7,194.6z M278.6,141.9h-75.2v-8.4h75.2V141.9z M203.3,183.7h50.2v50.2h-50.2V183.7z
	 M165.7,225.5V167c0-17.3,13-31.2,29.3-33.2v124.9C178.5,256.6,165.7,242.5,165.7,225.5z M203.3,242.2h54.3c2.3,0,4.2-1.9,4.2-4.2
	v-58.5c0-2.3-1.9-4.2-4.2-4.2h-54.3v-25.1h75.2v108.7c-7.4,0-14,0-18.8,0c-2.3,0-4.2,1.9-4.2,4.2s1.9,4.2,4.2,4.2h6.3v8.4h-50.2
	v-8.4h6.3c2.3,0,4.2-1.9,4.2-4.2s-1.9-4.2-4.2-4.2c-4.8,0-11.5,0-18.8,0V242.2z"/>
    <g>
	<rect class="st32" height="144" width="500" x="3" y="376"/>
        <text transform="matrix(1 0 0 1 125.1299 414.5557)"><tspan class="st2 st33 st34" x="0" y="0">Club de golf </tspan>
            <tspan class="st2 st33 st34" x="37" y="64.8">et balles</tspan></text>
</g>
</svg>
