<svg id="Calque_1" data-name="Calque 1" xmlns="http://www.w3.org/2000/svg" viewBox="0 0 350 300"><title>selected</title><path d="M261.55,187.8a1,1,0,1,0,1,1,1,1,0,0,0-1-1Z"/><path d="M255.72,187.8a1,1,0,1,0,1,1,1,1,0,0,0-1-1Z"/><path d="M255.72,193.63a1,1,0,1,0,1,1,1,1,0,0,0-1-1Z"/><path d="M257.13,173.87a1,1,0,0,0-.29,1.9,13.61,13.61,0,1,1-8.08,0,1,1,0,0,0-.28-1.9.92.92,0,0,0-.29,0,15.56,15.56,0,0,0-2.91,28.48h-4.14a1,1,0,0,0-1,1v5a1,1,0,0,0,.54.87l.92.46a14.09,14.09,0,0,1,7.26,11.41H235.3a1,1,0,1,0,0,1.94h35a1,1,0,1,0,0-1.94H256.73A14.1,14.1,0,0,1,264,209.65l.93-.46a1,1,0,0,0,.53-.87v-5a1,1,0,0,0-1-1h-4.14a15.56,15.56,0,0,0-2.91-28.48,1,1,0,0,0-.29,0Zm-6.3,47.19a16,16,0,0,0-8.34-13.15l-.38-.19v-3.39H263.5v3.39l-.39.19a16,16,0,0,0-8.33,13.15Z"/><path d="M252.8,173.22a1,1,0,1,0,1,1,1,1,0,0,0-1-1Z"/><path d="M253.26,176.51a11.78,11.78,0,1,1-11.78,11.78,11.79,11.79,0,0,1,11.78-11.78m0-4A15.78,15.78,0,1,0,269,188.29a15.79,15.79,0,0,0-15.78-15.78Z"/><path d="M160,201.92a.18.18,0,1,1-.18.18.18.18,0,0,1,.18-.18m0-4a4.18,4.18,0,1,0,4.18,4.18,4.18,4.18,0,0,0-4.18-4.18Z"/><path d="M210.11,13a12.72,12.72,0,1,1,0,25.44H172.68V68.17h29.07a.18.18,0,0,1,.18.18V118.4l2.21,1.1,22.77,11.39a.18.18,0,0,1,.1.16v46a.18.18,0,0,1-.18.18h-24.9v24.9a.18.18,0,0,1-.18.18H189.39v16.54a.18.18,0,0,1-.18.18H130.7a.18.18,0,0,1-.18-.18V202.28H118.16a37.84,37.84,0,0,1-37.8-37.8V106a37.85,37.85,0,0,1,37.8-37.8h29.08V38.44H109.8a12.72,12.72,0,1,1,0-25.44h12.54a25.28,25.28,0,0,1,25.24,24.43l-.84-4.15a25,25,0,0,0-24.4-19.92H109.8a12.36,12.36,0,0,0,0,24.72h37.8V68.17h24.72V38.08h37.79a12.36,12.36,0,0,0,0-24.72H197.57a25,25,0,0,0-24.4,19.93l-.84,4.16A25.29,25.29,0,0,1,197.57,13h12.54M118,202.18V68.27l-4.49.56A37.45,37.45,0,0,0,80.72,106v58.51a37.49,37.49,0,0,0,32.76,37.14l4.5.56m.36-117.29h83.23V68.53H118.34V84.89m0,33.44h58.34a.19.19,0,0,1,.18.18V177a.19.19,0,0,1-.18.18H118.34v24.72h22.81a.18.18,0,0,1,0,.36H130.88v16.36H189V202.28H178.77a.18.18,0,0,1,0-.36h22.8V85.25H118.34v33.08m0,58.51H176.5V118.69H118.34v58.15m83.59,0h24.72V131.16l-2.21-1.11-16.72-8.36-5.79-2.89v58M210.11,9H197.57a29.24,29.24,0,0,0-29.25,29.26V64.17H151.6V38.26A29.3,29.3,0,0,0,122.34,9H109.8a16.72,16.72,0,1,0,0,33.44h33.44V64.17H118.16A41.77,41.77,0,0,0,76.36,106v58.51a41.85,41.85,0,0,0,41.8,41.8h8.36v12.54A4.18,4.18,0,0,0,130.7,223h58.51a4.18,4.18,0,0,0,4.18-4.18V206.28h8.36a4.18,4.18,0,0,0,4.18-4.18V181.2h20.9A4.18,4.18,0,0,0,231,177v-46a4.17,4.17,0,0,0-2.31-3.74l-22.77-11.39V68.35a4.18,4.18,0,0,0-4.18-4.18H176.68V42.44h33.43a16.72,16.72,0,1,0,0-33.44Zm-33,25.08a20.9,20.9,0,0,1,20.48-16.72h12.54a8.36,8.36,0,0,1,0,16.72Zm-67.29,0a8.36,8.36,0,0,1,0-16.72h12.54a20.94,20.94,0,0,1,20.48,16.72Zm12.54,46.81V72.53h75.23v8.36ZM114,197.65a33.48,33.48,0,0,1-29.26-33.17V106A33.41,33.41,0,0,1,114,72.8V197.65Zm8.36-83.32V89.25h75.23V197.92h-18.8a4.18,4.18,0,0,0,0,8.36H185v8.36H134.88v-8.36h6.27a4.18,4.18,0,0,0,0-8.36H122.34V181.2h54.34a4.18,4.18,0,0,0,4.18-4.18V118.51a4.18,4.18,0,0,0-4.18-4.18Zm0,58.51V122.69H172.5v50.15Zm83.59,0V125.27l16.72,8.36v39.21Z"/></svg>