<?xml version="1.0" encoding="utf-8"?>
<!-- Generator: Adobe Illustrator 22.1.0, SVG Export Plug-In . SVG Version: 6.00 Build 0)  -->
<svg style="enable-background:new 0 0 500 500;" id="Calque_1" version="1.1" viewBox="0 0 500 500" x="0px"
     xmlns="http://www.w3.org/2000/svg" y="0px" xml:space="preserve">
<style type="text/css">
	.st0{fill:#4FBDD7;}
	.st1{fill:#EAEAEA;}
	.st2{fill:#FFFFFF;}
	.st3{fill:#4FBDD7;stroke:#FFFFFF;stroke-width:5;stroke-miterlimit:10;}
	.st4{fill:#8C8C8C;}
	.st5{fill:#070707;}
	.st6{fill:none;stroke:#FFFFFF;stroke-width:7;stroke-miterlimit:10;}
	.st7{fill:none;stroke:#FFFFFF;stroke-width:10;stroke-miterlimit:10;}
	.st8{fill:#FFFFFF;stroke:#FFFFFF;stroke-width:3;stroke-miterlimit:10;}
	.st9{fill:none;stroke:#FDFFFF;stroke-width:6;stroke-miterlimit:10;}
	.st10{fill:#FAFEFF;}
	.st11{fill:none;stroke:#FFFFFF;stroke-width:2;stroke-miterlimit:10;}
	.st12{fill:#FFFFFF;stroke:#FFFFFF;stroke-width:2;stroke-miterlimit:10;}
	.st13{fill:#4FBDD7;stroke:#FFFFFF;stroke-width:4;stroke-miterlimit:10;}
	.st14{fill:#FFFFFF;stroke:#FFFFFF;stroke-width:4;stroke-miterlimit:10;}
	.st15{fill:none;stroke:#FFFFFF;stroke-miterlimit:10;}
	.st16{fill:#FFFFFF;stroke:#FFFFFF;stroke-width:13;stroke-miterlimit:10;}
	.st17{fill:#4FBDD7;stroke:#FFFFFF;stroke-width:8;stroke-miterlimit:10;}
	.st18{fill:#FFFFFF;stroke:#FFFFFF;stroke-width:0.75;stroke-miterlimit:10;}
	.st19{fill:#FFFFFF;stroke:#FFFFFF;stroke-width:0.5;stroke-miterlimit:10;}
	.st20{fill:none;}
	.st21{font-family:'HelveticaNeue-CondensedBold';}
	.st22{font-size:54px;}
	.st23{fill:#FFFFFF;stroke:#FFFFFF;stroke-width:8;stroke-miterlimit:10;}
	.st24{fill:#FFFFFF;stroke:#FFFFFF;stroke-miterlimit:10;}
	.st25{fill:#FFFFFF;stroke:#FFFFFF;stroke-width:11;stroke-miterlimit:10;}
	.st26{fill:#FFFFFF;stroke:#FFFFFF;stroke-width:6;stroke-miterlimit:10;}
	.st27{fill:#8C8C8C;stroke:#8C8C8C;stroke-width:4;stroke-miterlimit:10;}
	.st28{fill:#FFFFFF;stroke:#FFFFFF;stroke-width:1.05;stroke-miterlimit:10;}
	.st29{fill:none;stroke:#4FBDD7;stroke-width:5;stroke-miterlimit:10;}
	.st30{fill:none;stroke:#FFFFFF;stroke-width:4;stroke-miterlimit:10;}
	.st31{fill:#8C8C8C;stroke:#FFFFFF;stroke-width:4;stroke-miterlimit:10;}
	.st32{fill:#FFFFFF;stroke:#FFFFFF;stroke-width:10;stroke-miterlimit:10;}
	.st33{fill:none;stroke:#4FBDD7;stroke-width:2;stroke-miterlimit:10;}
	.st34{fill-rule:evenodd;clip-rule:evenodd;fill:#FFFFFF;}
	.st35{fill:#FFFFFF;stroke:#FFFFFF;stroke-width:7;stroke-miterlimit:10;}
	.st36{fill:#FFFFFF;stroke:#4FBDD7;stroke-width:7;stroke-miterlimit:10;}
	.st37{fill:#FCFCFC;}
	.st38{fill:#FFFFFF;stroke:#FFFFFF;stroke-width:5;stroke-miterlimit:10;}
	.st39{fill:none;stroke:#FFFFFF;stroke-width:3;stroke-miterlimit:10;}
	.st40{fill:none;stroke:#FFFFFF;stroke-width:8;stroke-miterlimit:10;}
	.st41{fill:none;stroke:#FFFFFF;stroke-width:6;stroke-miterlimit:10;}
	.st42{fill:#FFFFFF;stroke:#4FBDD7;stroke-width:3;stroke-miterlimit:10;}
	.st43{fill:none;stroke:#FFFFFF;stroke-width:0.75;stroke-miterlimit:10;}
	.st44{fill:#4FBDD7;stroke:#FFFFFF;stroke-width:9;stroke-miterlimit:10;}
	.st45{fill:none;stroke:#FFFFFF;stroke-width:9;stroke-miterlimit:10;}
	.st46{fill:none;stroke:#4FBDD7;stroke-width:3;stroke-miterlimit:10;}
</style>
    <rect class="st0" height="508" width="508" x="-4" y="-5"/>
    <path class="st2" d="M209.3,216.7c0,0-20.8-4.7-21.9-5c-0.3-0.1-0.7-0.2-1-0.2c-0.9,0-1.7,0.4-2.4,1c-0.3,0.3-0.7,0.9-0.8,1.3
	c-0.3,2.2,9,5.5,16,7.3c3.2,0.8,8.6,2,8.6,2c1.5,0.3,2.6,1.7,2.6,3.2v17.8h-112v-17.8c0-1.6,1.1-2.9,2.6-3.2l18.7-4.1
	c9.5-2.1,16.4-6.8,20.1-13.3c2.7-4.8,3.1-9.5,3.1-12.3V189c-0.1-0.3-0.1-0.6,0-0.9c0-2.7,0-2.7,0-2.7c0-6.6-2.4-17.9-3.9-21.7
	c-0.1-0.2-0.3-0.8-0.6-1.8c-0.2-0.6-0.5-2.2-0.5-4.1c0-3.1,0.9-5.6,1.3-6.4c0.4-1.1,1.5-3.3,3.6-5.4c2-2,4-3,5-3.4
	c0.4-0.2,3.4-1.4,6.8-1.3c9.9,0.3,16.1,12.3,16.2,15.9c0,0.8-0.2,3.3-0.4,4.4c-0.2,0.8-0.4,1.5-0.4,1.5c0,0.1-0.1,0.2-0.1,0.2
	c-1.9,5.1-4.1,16.9-4.1,16.9c0,0.1-0.1,0.3-0.1,0.6v7.9c0.7,0.7,1.3,0.6,3.3,2c2.5,1.6,3,2.7,3.6,2.5c1-0.3,0.1-3.9,0-8.4
	c0,0-0.2-8.7,3.6-19.3c0.1-0.4,0.5-1.5,0.9-3.1c0.5-2.2,0.5-4.1,0.5-5.5c0-1.5-0.3-3.7-1.1-6.3c-1.6-4.9-4.5-8.1-5.8-9.4
	c-1.5-1.4-4.6-4.2-9.4-5.6c-1.2-0.4-3.5-0.9-6.3-1c-2.2,0-5.9,0.2-9.9,2.1c-1.4,0.6-4,2-6.6,4.5c-3,3-4.5,6.1-5.1,7.6
	c-0.4,1.1-1.8,4.5-1.8,8.9c0,2.5,0.4,4.6,0.6,5.4c0.3,1.4,0.7,2.3,0.9,2.8c1.6,4.3,3.2,11.8,3.4,19.3c0,0.8,0,1.9,0,3.2v4.8
	c0,13.2-11.3,17.7-18.1,19.2l-18.7,4.1c-4.6,1-7.7,5-7.7,9.6v73.7c0,1.8,1.5,3.3,3.3,3.3h118.5c1.8,0,3.3-1.5,3.3-3.3v-73.7
	C217,221.7,213.8,217.8,209.3,216.7z M210.4,296.8h-6.6v-36.2c0-1.8-1.5-3.3-3.3-3.3c-1.8,0-3.3,1.5-3.3,3.3v36.2h-32.9v-36.2
	c0-1.8-1.5-3.3-3.3-3.3s-3.3,1.5-3.3,3.3v36.2h-6.6v-36.2c0-1.8-1.5-3.3-3.3-3.3s-3.3,1.5-3.3,3.3v36.2H138v-36.2
	c0-1.8-1.5-3.3-3.3-3.3c-1.8,0-3.3,1.5-3.3,3.3v36.2h-6.6v-36.2c0-1.8-1.5-3.3-3.3-3.3s-3.3,1.5-3.3,3.3v36.2h-6.6v-36.2
	c0-1.8-1.5-3.3-3.3-3.3s-3.3,1.5-3.3,3.3v36.2h-6.6v-46.1h112V296.8z"/>
    <path class="st2" d="M144.6,157.9c0,5.4,4.4,9.9,9.9,9.9c5.4,0,9.9-4.4,9.9-9.9c0-5.4-4.4-9.9-9.9-9.9
	C149,148,144.6,152.4,144.6,157.9z M161.1,157.2c0,3.6-3,6.6-6.6,6.6c-3.6,0-6.6-3-6.6-6.6c0-3.6,3-6.6,6.6-6.6
	C158.1,150.6,161.1,153.6,161.1,157.2z"/>
    <path class="st6" d="M169,181v5.2c0,15.1,8.3,25.9,22.7,29.7l7.7,2"/>
    <path class="st2" d="M173.9,300.6L173.9,300.6c-1.8,0-3.3-1.5-3.3-3.3v-36.5c0-1.8,1.5-3.3,3.3-3.3l0,0c1.8,0,3.3,1.5,3.3,3.3v36.5
	C177.2,299.1,175.7,300.6,173.9,300.6z"/>
    <path class="st2" d="M187.7,300.6L187.7,300.6c-1.8,0-3.3-1.5-3.3-3.3v-36.5c0-1.8,1.5-3.3,3.3-3.3h0c1.8,0,3.3,1.5,3.3,3.3v36.5
	C191,299.1,189.5,300.6,187.7,300.6z"/>
    <g>
	<rect class="st20" height="144" width="500" x="-4" y="366"/>
        <text class="st2 st21 st22" transform="matrix(1 0 0 1 193.0811 404.5557)">Colle</text>
</g>
    <g>
	<g>
		<path class="st2" d="M407.3,253.1h-5.7c-4,0-7.9,0.9-11.4,2.6c-5.2,2.4-11.2,2.4-16.4,0c-2.1-1-4.2-1.7-6.5-2.1l7-52.1h7.7
			c2,0,3.6-1.5,3.6-3.4v-13.7c0-1.9-1.6-3.4-3.6-3.4h-14.4c-2.4,0-4.8,0-7.2,0h-43.3c-2.4,0-4.8,0-7.2,0h-7.2c-2.4,0-4.8,0-7.2,0
			h-43.3c-2.4,0-4.8,0-7.2,0h-14.4c-2,0-3.6,1.5-3.6,3.4v13.7c0,1.9,1.6,3.4,3.6,3.4h7.7l14,103.5c0.2,1.7,1.8,3,3.6,3h85
			c4.1,4.4,10,6.9,16.1,6.9h5.7c4,0,7.9-0.9,11.4-2.6c5.2-2.4,11.2-2.4,16.4,0c3.5,1.7,7.5,2.6,11.4,2.6h5.7
			c12,0,21.7-9.2,21.7-20.6v-20.6c-0.1-1.3-0.8-10.9-9-16.8C414.8,253.3,409.4,253.1,407.3,253.1z M421.8,294.4
			c0,7.6-6.5,13.7-14.4,13.7h-5.7c-2.8,0-5.6-0.6-8.2-1.8c-7.2-3.4-15.7-3.4-22.9,0c-2.5,1.2-5.3,1.8-8.2,1.8h-5.7
			c-8,0-14.4-6.2-14.4-13.7v-5.3c4,3.4,9.1,5.3,14.4,5.3h5.7c4,0,7.9-0.9,11.4-2.6c5.2-2.4,11.2-2.4,16.4,0
			c3.5,1.7,7.5,2.6,11.4,2.6h5.7c5.3,0,10.5-1.9,14.4-5.3V294.4z M407.3,287.5h-5.7c-2.8,0-5.6-0.6-8.2-1.8
			c-7.2-3.4-15.7-3.4-22.9,0c-2.5,1.2-5.3,1.8-8.2,1.8h-5.7c-8,0-14.4-6.2-14.4-13.7s6.5-13.7,14.4-13.7h5.7c2.8,0,5.6,0.6,8.2,1.8
			c7.2,3.4,15.7,3.4,22.9,0c2.5-1.2,5.3-1.8,8.2-1.8h5.7c8,0,14.4,6.2,14.4,13.7S415.3,287.5,407.3,287.5z"/>
	</g>
</g>
</svg>
