<?xml version="1.0" encoding="utf-8"?>
<!-- Generator: Adobe Illustrator 22.1.0, SVG Export Plug-In . SVG Version: 6.00 Build 0)  -->
<svg style="enable-background:new 0 0 500 500;" id="Calque_1" version="1.1" viewBox="0 0 500 500" x="0px"
     xmlns="http://www.w3.org/2000/svg" y="0px" xml:space="preserve">
<style type="text/css">
	.st0{fill:#EAEAEA;}
	.st1{fill:#8C8C8C;}
	.st2{fill:#FFFFFF;}
	.st3{fill:#EAEAEA;stroke:#8C8C8C;stroke-width:7;stroke-miterlimit:10;}
	.st4{fill:#070707;}
	.st5{fill:none;stroke:#8C8C8C;stroke-width:7;stroke-miterlimit:10;}
	.st6{fill:none;stroke:#8C8C8C;stroke-width:10;stroke-miterlimit:10;}
	.st7{fill:#8C8C8C;stroke:#8C8C8C;stroke-width:3;stroke-miterlimit:10;}
	.st8{fill:none;stroke:#8C8C8C;stroke-width:8;stroke-miterlimit:10;}
	.st9{fill:none;stroke:#8E8E8E;stroke-width:6;stroke-miterlimit:10;}
	.st10{fill:#8E8E8E;}
	.st11{fill:#505050;}
	.st12{fill:none;stroke:#8E8E8E;stroke-width:2;stroke-miterlimit:10;}
	.st13{fill:#8C8C8C;stroke:#8C8C8C;stroke-width:2;stroke-miterlimit:10;}
	.st14{fill:#8C8C8C;stroke:#FFFFFF;stroke-width:2;stroke-miterlimit:10;}
	.st15{fill:none;stroke:#FFFFFF;stroke-width:2;stroke-miterlimit:10;}
	.st16{fill:none;stroke:#8C8C8C;stroke-miterlimit:10;}
	.st17{fill:none;stroke:#8C8C8C;stroke-width:13;stroke-miterlimit:10;}
	.st18{fill:#EAEAEA;stroke:#8C8C8C;stroke-width:8;stroke-miterlimit:10;}
	.st19{fill:none;stroke:#8C8C8C;stroke-width:4;stroke-miterlimit:10;}
	.st20{fill:#8C8C8C;stroke:#8C8C8C;stroke-width:0.75;stroke-miterlimit:10;}
	.st21{fill:none;stroke:#8C8C8C;stroke-width:9;stroke-miterlimit:10;}
	.st22{fill:#8C8C8C;stroke:#8C8C8C;stroke-width:0.5;stroke-miterlimit:10;}
	.st23{fill:none;}
	.st24{fill:#6B6B6B;}
	.st25{font-family:'HelveticaNeue-CondensedBold';}
	.st26{font-size:54px;}
	.st27{stroke:#8C8C8C;stroke-width:8;stroke-miterlimit:10;}
	.st28{fill:#8C8C8C;stroke:#8C8C8C;stroke-miterlimit:10;}
	.st29{fill:none;stroke:#8C8C8C;stroke-width:11;stroke-miterlimit:10;}
	.st30{fill:none;stroke:#8C8C8C;stroke-width:6;stroke-miterlimit:10;}
	.st31{stroke:#8C8C8C;stroke-width:6;stroke-miterlimit:10;}
	.st32{fill:#8C8C8C;stroke:#8C8C8C;stroke-width:4;stroke-miterlimit:10;}
	.st33{fill:#8C8C8C;stroke:#8C8C8C;stroke-width:1.05;stroke-miterlimit:10;}
	.st34{fill:#D6D6D6;}
	.st35{fill:none;stroke:#EAEAEA;stroke-width:5;stroke-miterlimit:10;}
	.st36{fill:#8C8C8C;stroke:#8C8C8C;stroke-width:10;stroke-miterlimit:10;}
	.st37{fill:none;stroke:#CECECE;stroke-width:2;stroke-miterlimit:10;}
	.st38{fill:none;stroke:#FFFFFF;stroke-width:4;stroke-miterlimit:10;}
	.st39{fill-rule:evenodd;clip-rule:evenodd;fill:#8C8C8C;}
	.st40{fill:#8C8C8C;stroke:#8C8C8C;stroke-width:8;stroke-miterlimit:10;}
	.st41{fill:#8C8C8C;stroke:#8C8C8C;stroke-width:7;stroke-miterlimit:10;}
	.st42{fill:#DBDBDB;stroke:#8C8C8C;stroke-width:7;stroke-miterlimit:10;}
	.st43{fill:none;stroke:#8C8C8C;stroke-width:5;stroke-miterlimit:10;}
	.st44{fill:none;stroke:#8C8C8C;stroke-width:3;stroke-miterlimit:10;}
	.st45{clip-path:url(#SVGID_2_);fill:#8C8C8C;}
	.st46{clip-path:url(#SVGID_2_);fill:none;stroke:#8C8C8C;stroke-width:8;stroke-miterlimit:10;}
	.st47{clip-path:url(#SVGID_2_);fill:#FFFFFF;}
	.st48{clip-path:url(#SVGID_2_);fill:#EAEAEA;}
	.st49{clip-path:url(#SVGID_2_);fill:none;stroke:#8C8C8C;stroke-miterlimit:10;}
	.st50{fill:none;stroke:#FFFFFF;stroke-width:0.75;stroke-miterlimit:10;}
	.st51{fill:none;stroke:#8C8C8C;stroke-width:14;stroke-miterlimit:10;}
	.st52{fill:none;stroke:#EAEAEA;stroke-width:2;stroke-miterlimit:10;}
	.st53{fill:none;stroke:#8C8C8C;stroke-width:2;stroke-miterlimit:10;}
</style>
    <rect class="st0" height="500" width="500" x="1"/>
    <rect class="st32" height="9.8" transform="matrix(5.138373e-02 -0.9987 0.9987 5.138373e-02 -18.9281 493.9258)" width="2.3"
          x="249.4" y="252"/>
    <path class="st32" d="M261.9,148.2l2.3-66.3c0.1-1.7-0.5-3.4-1.6-4.7l0.3-5.2l2.3,0.1c0.6,0,1.1-0.2,1.5-0.5
	c0.4-0.4,0.7-0.9,0.7-1.4c0.1-1.2-0.8-2.1-2-2.2l-2.3-0.1l0.2-3.2l2.3,0.1c0.6,0,1.1-0.2,1.5-0.5c0.4-0.4,0.7-0.9,0.7-1.4
	c0.1-1.2-0.8-2.1-2-2.2l-2.3-0.1l0.1-2.3c0.7,0,1.3-0.3,1.9-0.8c0.6-0.6,1-1.3,1-2.1l0.2-4.1l1.5,0.1c0.6,0,1.1-0.2,1.5-0.5
	c0.4-0.4,0.7-0.9,0.7-1.4c0.1-1.2-0.8-2.1-2-2.2l-1.5-0.1c-0.9-2.5-1.8-4.9-2.7-7.4L253.3,39c-0.8,0-1.6,0.2-2.2,0.8
	c-0.6,0.6-1,1.3-1,2.1l-0.2,4.1l-1.5-0.1c-1.2-0.1-2.1,0.8-2.2,2c-0.1,1.2,0.8,2.1,2,2.2l1.5,0.1l-0.2,4.1c0,0.8,0.2,1.6,0.8,2.2
	c0.5,0.5,1.1,0.9,1.8,1l-0.3,5.7l-2.2-0.1c-1.2-0.1-2.1,0.8-2.2,2c-0.1,1.2,0.8,2.1,2,2.2l2.2,0.1l-0.2,3.2l-2.2-0.1
	c-1.2-0.1-2.1,0.8-2.2,2c-0.1,1.2,0.8,2.1,2,2.2l2.2,0.1l-0.1,1.9c-1.2,1.2-1.9,2.8-2,4.5l-4.6,66.1l-4.8,3.6
	c0.1,1.7,0.1,3.4,0.1,5.1l4.3-3.3l-4.7,66.9l20.1,1l2.3-67.1l4.6,4.3c-0.1-1.1-0.2-1.9-0.3-2.5C265.8,153.7,261.9,148.2,261.9,148.2
	z M255.3,216.4l-11.6-0.6l9.4-134.4c0-0.6,0.3-1.2,0.7-1.7l5.7,0.3c0.3,0.5,0.5,1.1,0.5,1.7L255.3,216.4z M255.2,75.7l0.9-17.9
	l3.2,0.2l-0.9,17.9L255.2,75.7z M253.6,53.5l0.5-10.3l8.7,0.5L262.3,54L253.6,53.5z"/>
    <path class="st32" d="M255.4,322.3c-1.9,0.1-3.9,0.2-5.9,0.2l1.1-20.3l6.2-24.3l-21-1.1l3.7,24.8l-1.1,20.3
	c-1.7-0.2-3.4-0.4-5.1-0.7c0.1,1.4,0.3,2.9,0.3,4.3c2.6,0.4,5.2,0.7,7.9,0.9l-0.7,13.8c-0.1,1.2,0.8,2.1,2,2.2
	c0.6,0,1.1-0.2,1.5-0.5c0.4-0.4,0.7-0.9,0.7-1.4l0.7-13.8c3.3,0.1,6.5,0,9.7-0.2C255,325,255,323.6,255.4,322.3z M245.4,322.5
	c-0.4,0-0.9,0-1.3,0c-0.5,0-0.9-0.1-1.3-0.1l1-18.5l2.7,0.1L245.4,322.5z M246.9,299.8l-3.4-0.2l-2.7-18.3l10.8,0.6L246.9,299.8z"/>
    <path class="st32" d="M204.8,309.9c-3.8-2.8-14.8-13.1-14.6-26.9c0.1-16.4,16.3-30,21-33.9c6.2-5.2,10.5-6.8,14.5-13.5
	c5-8.3,6-18.5,2.9-20.3c-2.2-1.3-5.4,2.6-9.7,1c-2.5-0.9-3.8-3-4.8-4.8c-3.7-6.2-2.9-13.2-2.4-16.3c0.6-11.8,6.4-22.7,15.9-29.9
	l12.1-9.1c0-1.7-0.1-3.4-0.1-5.1L225,161.9c-10.4,7.9-16.8,19.9-17.5,33c-0.3,6.6,0.5,10.7,0.7,11.7c1,3.8,1.9,7.3,4.8,9.7
	c4.8,3.9,10,0.6,12.6,3.9c2.8,3.5-0.6,11-3.9,15.5c-4.1,5.6-9.1,7.7-12.6,9.7c-12.4,7-23.2,22.9-23.3,37.6
	c-0.1,16,12.3,27.6,16.4,30.5c8.4,6.1,19.3,10.3,31.4,12.2c0-1.4-0.2-2.9-0.3-4.3C222.3,319.4,212.4,315.5,204.8,309.9z"/>
    <g>
	<rect class="st23" height="138" width="500" x="-2" y="365"/>
        <text class="st24 st25 st26" transform="matrix(1 0 0 1 114.5952 403.5557)">Contrebasse</text>
</g>
    <path class="st20" d="M253.9,231.8c-0.8,0.3-1.4,1-1.4,1.9c-0.1,1.2,0.8,2.1,2,2.2l1.3,0.1c0.6,0,1.1-0.2,1.5-0.5
	c0.4-0.4,0.7-0.9,0.7-1.4l0.1-1.4c0.1-1.4,1.2-2.4,2.6-2.4c1.4,0.1,2.4,1.3,2.4,2.6l-1.3,24.9c-0.2,3.7,2.6,6.8,6.3,7
	c1.8,0.1,3.5-0.6,4.8-1.7c1.1-1,1.9-2.4,2.1-4c0.8-0.3,1.4-1,1.4-1.9c0.1-1.2-0.8-2.1-2-2.2l-1.3-0.1c-1.2-0.1-2.1,0.8-2.2,2
	l-0.1,1.4c-0.1,1.4-1.2,2.4-2.6,2.4c-1.4-0.1-2.4-1.3-2.4-2.6l1.3-24.9c0.2-3.7-2.6-6.8-6.3-7C257.3,225.8,254.3,228.4,253.9,231.8z
	"/>
    <path class="st20" d="M240.9,226c-3.7,0.2-6.5,3.3-6.3,7l1.3,24.9c0.1,1.4-1,2.6-2.4,2.6c-1.4,0.1-2.6-1-2.6-2.4l-0.1-1.4
	c-0.1-1.2-1-2-2.2-2l-1.3,0.1c-1.2,0.1-2,1-2,2.2c0,0.9,0.6,1.6,1.4,1.9c0.2,1.6,1,3,2.1,4c1.3,1.1,3,1.8,4.8,1.7
	c3.7-0.2,6.5-3.3,6.3-7l-1.3-24.9c-0.1-1.4,1-2.6,2.4-2.6c1.4-0.1,2.6,1,2.6,2.4l0.1,1.4c0,0.6,0.3,1.1,0.7,1.4
	c0.4,0.4,1,0.6,1.5,0.5l1.3-0.1c1.2-0.1,2-1,2-2.2c0-0.9-0.6-1.6-1.4-1.9C247.4,228.4,244.4,225.8,240.9,226z"/>
    <path class="st32" d="M289.2,313.6c4-2.4,15.8-11.7,16.8-25.3c1.2-16.2-13.8-30.8-18.2-35.1c-5.8-5.7-9.9-7.6-13.4-14.5
	c-4.3-8.6-4.4-18.7-1.2-20.2c2.3-1.1,5.2,3,9.6,1.8c2.5-0.7,4-2.7,5.2-4.4c4.2-5.8,4-12.7,3.7-15.9c0.4-11.7-4.5-22.9-13.4-30.7
	l-11.3-10c0.2-1.7,0.3-3.4,0.5-5.1l13.5,12c9.8,8.6,15.1,21,14.8,33.9c-0.2,6.6-1.3,10.5-1.7,11.5c-1.3,3.6-2.5,7-5.6,9.1
	c-5.1,3.5-10-0.2-12.9,2.8c-3,3.2-0.3,10.9,2.6,15.6c3.7,5.9,8.5,8.4,11.7,10.6c11.7,7.9,21.3,24.4,20.1,38.9
	c-1.2,15.7-14.6,26.1-18.8,28.7c-8.9,5.3-20.1,8.5-32.3,9.4c0.2-1.4,0.4-2.8,0.7-4.2C270.9,321.4,281.1,318.4,289.2,313.6z"/>
</svg>
