<svg id="Calque_1" data-name="Calque 1" xmlns="http://www.w3.org/2000/svg" viewBox="0 0 350 300"><title>selected</title><polygon points="174.72 214.55 174.6 216.81 184.35 217.31 184.47 215.05 174.72 214.55 174.72 214.55"/><path d="M164.87,235.86l3.69,24.84L167.51,281c-1.72-.19-3.41-.43-5.08-.72.14,1.43.3,2.85.34,4.28,2.59.41,5.25.73,7.94.92L170,299.25a2.1,2.1,0,0,0,2,2.2h.11a2.07,2.07,0,0,0,1.4-.54,2.11,2.11,0,0,0,.68-1.44l.72-13.81c1,0,1.91,0,2.85,0q3.48,0,6.87-.25a6.39,6.39,0,0,1-.21-4.16c-1.93.14-3.88.23-5.85.24l1.05-20.25L185.83,237l-21-1.09Zm11,22.92-3.45-.17-2.72-18.32,10.77.56-4.6,17.93Zm-1.56,22.68-1.35,0c-.45,0-.89-.06-1.34-.09l1-18.52,2.69.14-1,18.52Z"/><path d="M168.51,109.93,154,120.85a44.12,44.12,0,0,0-17.51,33,42.12,42.12,0,0,0,.74,11.7c1,3.75,1.89,7.28,4.84,9.68,4.83,3.94,10,.6,12.58,3.87,2.76,3.46-.57,11-3.88,15.48-4.13,5.63-9.14,7.73-12.58,9.68-12.36,7-23.21,22.87-23.26,37.56-.06,16,12.34,27.58,16.36,30.49,8.39,6.1,19.32,10.31,31.45,12.23,0-1.43-.2-2.85-.34-4.28-11.08-1.88-21-5.78-28.66-11.33C130,266.14,119,255.8,119.13,242c.14-16.42,16.32-30,21-33.91,6.25-5.23,10.5-6.8,14.52-13.55,4.95-8.31,6-18.49,2.9-20.32a2.08,2.08,0,0,0-1.08-.28c-1.69,0-3.83,1.64-6.45,1.64a6.09,6.09,0,0,1-2.15-.39c-2.46-.92-3.75-3-4.84-4.84-3.72-6.23-2.94-13.17-2.36-16.32a39.9,39.9,0,0,1,15.85-29.86l12.09-9.12c0-1.71-.07-3.43-.13-5.14Z"/><path d="M189.47,185a6.68,6.68,0,0,0-6.6,5.76,2.09,2.09,0,0,0,.57,4.06l1.28.07h.11a2.1,2.1,0,0,0,2.09-2l.07-1.37a2.5,2.5,0,0,1,2.49-2.37h.13a2.5,2.5,0,0,1,2.37,2.62l-1.3,24.91a6.69,6.69,0,0,0,6.33,7h.34A6.68,6.68,0,0,0,204,218a2.09,2.09,0,0,0-.56-4.06l-1.29-.07H202a2.08,2.08,0,0,0-2.08,2l-.08,1.37a2.48,2.48,0,0,1-2.49,2.36h-.13a2.5,2.5,0,0,1-2.37-2.63l1.3-24.91a6.7,6.7,0,0,0-6.32-7Z"/><path d="M170.26,185h-.35a6.68,6.68,0,0,0-6.32,7L164.88,217a2.5,2.5,0,0,1-2.37,2.63h-.13a2.49,2.49,0,0,1-2.49-2.36l-.07-1.37a2.09,2.09,0,0,0-2.09-2h-.1l-1.29.07a2.09,2.09,0,0,0-.57,4.06,6.7,6.7,0,0,0,6.61,5.76h.35a6.68,6.68,0,0,0,6.32-7l-1.29-24.91a2.5,2.5,0,0,1,2.37-2.62h.13a2.51,2.51,0,0,1,2.49,2.37l.07,1.37a2.1,2.1,0,0,0,.69,1.44,2.06,2.06,0,0,0,1.4.54h.1l1.29-.07a2.09,2.09,0,0,0,.57-4.06,6.69,6.69,0,0,0-6.61-5.76Z"/><path d="M196.54,113.22c-.19,1.68-.38,3.37-.54,5l11.3,10A39.32,39.32,0,0,1,220.66,159c.32,3.16.52,10.05-3.69,15.88-1.23,1.69-2.69,3.66-5.22,4.36a6.2,6.2,0,0,1-1.66.23c-3,0-5.17-2.18-7-2.18a2,2,0,0,0-.89.2c-3.2,1.54-3,11.65,1.23,20.24,3.45,7,7.56,8.87,13.36,14.54,4.37,4.27,19.39,18.95,18.19,35.12-1,13.58-12.77,22.86-16.8,25.27-8.06,4.83-18.28,7.84-29.48,8.78-.26,1.39-.53,2.78-.69,4.18,12.25-.89,23.48-4.13,32.34-9.43,4.24-2.54,17.55-12.95,18.8-28.67,1.15-14.46-8.37-31-20.12-38.9-3.26-2.2-8.08-4.68-11.74-10.57-2.93-4.7-5.64-12.38-2.6-15.56a4.71,4.71,0,0,1,3.69-1.28c1.06,0,2.21.13,3.44.13a9.74,9.74,0,0,0,5.73-1.62c3.12-2.12,4.33-5.51,5.61-9.13a41.07,41.07,0,0,0,1.69-11.46,43.41,43.41,0,0,0-14.76-33.91l-13.54-12Z"/><path d="M181.47,5.79a3.86,3.86,0,0,0-2.25.68,2.25,2.25,0,0,0-1,1.7l-.12,3.21h-1.57a2,2,0,0,0-2.19,1.6c0,.9.9,1.63,2.09,1.64H178l-.12,3.22a2,2,0,0,0,.87,1.71,3.51,3.51,0,0,0,1.86.7l-.17,4.4-2.26,0h0a2,2,0,0,0-2.19,1.61c0,.89.9,1.63,2.09,1.64l2.27,0-.1,2.5-2.26,0h0A2,2,0,0,0,175.7,32c0,.89.9,1.63,2.09,1.64l2.27,0L180,35.08a5,5,0,0,0-2,3.55l-3.2,51.46c-.33.11-4.25,1.62-4.76,5a5.07,5.07,0,0,0,.12,2l4.37-2.66-3.25,52.08,4.27,0q3.38-53.9,6.76-107.78a2,2,0,0,1,.66-1.3l5.86,0a1.91,1.91,0,0,1,.56,1.31l-1,107.83,3.68,0,.78-52.1,4.82,3.16c-.18-.83-.29-1.5-.37-2-.22-1.38-4.38-5.5-4.38-5.5l.77-51.48A4.64,4.64,0,0,0,192,35.19l.16-4.07,2.34,0h0a2.55,2.55,0,0,0,1.51-.46,1.49,1.49,0,0,0,.68-1.14c0-.89-.9-1.63-2.09-1.64l-2.35,0,.1-2.51,2.34,0h0a2.61,2.61,0,0,0,1.52-.47,1.5,1.5,0,0,0,.67-1.14c0-.89-.9-1.63-2.09-1.64l-2.34,0,.06-1.77a3.84,3.84,0,0,0,1.92-.67,2.21,2.21,0,0,0,1-1.7l.13-3.21h1.56a2.63,2.63,0,0,0,1.52-.46,1.53,1.53,0,0,0,.68-1.14c0-.9-.91-1.63-2.1-1.64l-1.54,0-3-5.65-11.21-.09Zm9.7,11.33-9-.08.31-8,9,.07-.31,8Zm-3.49,17.1-3.33,0,.54-13.88,3.33,0-.54,13.88Z"/></svg>