<svg id="Calque_1" data-name="Calque 1" xmlns="http://www.w3.org/2000/svg" viewBox="0 0 350 300"><title>selected</title><path d="M204.69,258.35V259h0v2.5h-9.92c1.38-.35,2.77-.73,4.14-1.15l.19-.05.49-.15c1.67-.52,3.38-1.13,5.1-1.8M122,49c-20,0-40.09,5.14-44.2,15h-12a3.75,3.75,0,0,0,0,7.5H76.6c19.93,2,25.88,40.82,27.58,58.91A86.17,86.17,0,0,0,174.5,266.5c1.12,0,2.22,0,3.33-.09a3.15,3.15,0,0,0,.42.09H249.5v3.75a3.75,3.75,0,0,0,3.75,3.75H264.5a3.75,3.75,0,0,0,3.75-3.75v-7.5h15A3.75,3.75,0,0,0,287,259V244a3.75,3.75,0,0,0-3.75-3.75h-15v-7.5A3.75,3.75,0,0,0,264.5,229H253.25a3.75,3.75,0,0,0-3.75,3.75v3.75h-9.7A86.2,86.2,0,0,0,147.89,98.22c4-10.54,11.11-25.71,21.23-26.72H182a3.75,3.75,0,0,0,0-7.5H166.19C162.09,54.14,142,49,122,49ZM87.33,64c5.35-3.76,17.91-7.5,34.67-7.5s29.32,3.74,34.67,7.5Zm23.48,58.11c-2.25-17.52-7.26-39.31-18.46-50.61h62c-7.09,7.45-12,19.28-15.66,30.28-.2.09-.39.21-.6.31q-3.22,1.51-6.3,3.28c-.46.26-.92.52-1.37.79-2,1.19-3.94,2.47-5.83,3.82-.45.32-.91.63-1.36,1-1.85,1.37-3.64,2.83-5.38,4.34l-1.27,1.1c-1.73,1.58-3.39,3.25-5,5-.24.26-.52.5-.76.76ZM174.5,259a78.71,78.71,0,0,1-55.77-134.29c.11-.11.22-.22.34-.32,1.64-1.63,3.36-3.2,5.14-4.68l.35-.3c1.88-1.54,3.82-3,5.84-4.36l.37-.25c1.84-1.23,3.75-2.38,5.7-3.46.29-.17.59-.33.89-.49A78.7,78.7,0,0,1,219,245.13l-1,.7c-1.93,1.28-3.9,2.49-5.94,3.61l-.31.16c-2,1.05-4,2-6,2.9l-1.07.47c-2.15.89-4.35,1.71-6.59,2.42l-.66.19A78.63,78.63,0,0,1,174.5,259Zm82.5,7.5v-30h3.75v30ZM209.69,259h0c.27-.12.54-.28.81-.4,1.73-.8,3.43-1.63,5.1-2.54.31-.16.61-.35.92-.52,1.45-.81,2.86-1.67,4.26-2.56.49-.31,1-.61,1.45-.93q2.25-1.5,4.4-3.14c.52-.39,1-.8,1.54-1.21q1.89-1.5,3.69-3.1c.23-.21.48-.39.7-.6H249.5v15Zm58.56-3.75v-7.5H279.5v7.5Z"/><path d="M174.5,109a70.56,70.56,0,0,0-33.89,8.59l0,0c-1.33.73-2.6,1.55-3.88,2.36-.74.47-1.51.9-2.23,1.39s-1.6,1.2-2.4,1.79c-1.13.85-2.28,1.69-3.37,2.61-.52.45-1,.94-1.54,1.4-1.28,1.15-2.54,2.31-3.74,3.55l-.36.34a1.22,1.22,0,0,0-.12.19,71.25,71.25,0,1,0,103.15,0c-.05-.06-.07-.13-.12-.19s-.25-.22-.36-.34c-1.2-1.23-2.46-2.4-3.75-3.54-.51-.47-1-1-1.54-1.41-1.08-.91-2.23-1.76-3.37-2.6-.8-.6-1.57-1.23-2.39-1.8s-1.49-.92-2.23-1.38c-1.28-.81-2.55-1.64-3.88-2.36l0,0a70.52,70.52,0,0,0-33.9-8.6Zm-32.14,37.5a12.88,12.88,0,0,1-12.78-11.41c1.49-1.49,3-2.89,4.66-4.21.31-.26.66-.48,1-.74,1.25-1,2.53-2,3.84-2.85s2.59-1.62,3.92-2.38c.42-.24.82-.52,1.24-.74,1.69-.92,3.43-1.75,5.21-2.52l.3-.14c1.84-.78,3.72-1.46,5.63-2.07l.22-.08c1.81-.56,3.66-1,5.54-1.43.2,0,.39-.11.6-.15,1.74-.35,3.52-.6,5.31-.81.34,0,.67-.12,1-.15q3.18-.31,6.45-.32a62.45,62.45,0,0,1,6.45.33c.35,0,.69.11,1,.15,1.79.21,3.56.45,5.31.81.2,0,.39.1.59.15,1.88.4,3.73.86,5.54,1.43l.22.08q2.88.9,5.63,2.06a3,3,0,0,0,.31.15c1.77.76,3.51,1.59,5.2,2.51.42.23.82.51,1.24.75,1.33.76,2.65,1.53,3.92,2.38s2.59,1.86,3.85,2.85c.32.25.66.48,1,.74q2.41,2,4.66,4.21a12.9,12.9,0,0,1-12.79,11.4H142.36Zm-31.42,30a63.32,63.32,0,0,1,12.8-34.66,20.46,20.46,0,0,0,9.51,10V176.5Zm104.81,0V151.82a20.46,20.46,0,0,0,9.51-10,63.35,63.35,0,0,1,12.8,34.66Zm-15,22.5V154h7.5v45Zm-15-22.5V154h7.5v22.5Zm-15,22.5V154h7.5v45Zm-15-22.5V154h7.5v22.5Zm-15,22.5V154h7.5v45Zm97.31-15c0,.47,0,.95-.07,1.41-.08,1-.2,2-.32,3s-.31,2.18-.5,3.24-.38,2-.61,2.93-.51,2.09-.8,3.12-.56,1.89-.88,2.82-.71,2-1.09,3-.73,1.81-1.13,2.7-.9,1.91-1.37,2.85-.89,1.72-1.37,2.56-1.07,1.81-1.63,2.69-1,1.63-1.59,2.42-1.25,1.69-1.89,2.51-1.17,1.52-1.79,2.25-1.4,1.56-2.12,2.33-1.3,1.39-2,2.06-1.56,1.43-2.35,2.14-1.41,1.25-2.14,1.84-1.71,1.3-2.58,1.93-1.5,1.11-2.28,1.63-1.85,1.14-2.79,1.7-1.58,1-2.4,1.39c-1,.53-2,1-3,1.46-.82.38-1.63.8-2.48,1.15-1.06.44-2.16.81-3.25,1.19-.84.29-1.66.62-2.51.88-1.17.36-2.38.63-3.58.92-.81.2-1.6.44-2.43.61-1.36.27-2.75.45-4.14.63-.69.09-1.37.24-2.07.31a61.63,61.63,0,0,1-6.4.33q-3.24,0-6.4-.32c-.7-.07-1.38-.22-2.07-.31-1.39-.19-2.78-.36-4.14-.63-.82-.17-1.61-.41-2.42-.6-1.2-.3-2.41-.57-3.58-.93-.86-.26-1.68-.59-2.51-.88-1.09-.39-2.19-.75-3.26-1.19-.84-.35-1.65-.76-2.48-1.15-1-.47-2-.93-3-1.46-.81-.43-1.6-.92-2.39-1.39s-1.89-1.1-2.8-1.7-1.52-1.08-2.28-1.63-1.74-1.25-2.57-1.92-1.44-1.23-2.14-1.85-1.59-1.4-2.36-2.14-1.32-1.36-2-2.06-1.43-1.53-2.12-2.33-1.2-1.49-1.79-2.24-1.28-1.66-1.88-2.52-1.08-1.6-1.59-2.42-1.12-1.77-1.64-2.68-.92-1.7-1.36-2.57-.94-1.88-1.38-2.85-.77-1.79-1.12-2.7-.76-2-1.1-3-.6-1.87-.88-2.82-.56-2.07-.8-3.12-.43-1.94-.61-2.92-.35-2.16-.49-3.24-.24-2-.32-3c0-.46,0-.94-.08-1.41h22.31v30a3.7,3.7,0,0,0,1.1,2.65l3.75,3.75a3.75,3.75,0,0,0,2.65,1.09h7.5a3.72,3.72,0,0,0,2.65-1.1l3.75-3.75a3.7,3.7,0,0,0,1.1-2.65V184h7.5v30a3.7,3.7,0,0,0,1.1,2.65l3.75,3.75a3.72,3.72,0,0,0,2.65,1.1h7.5a3.72,3.72,0,0,0,2.65-1.1l3.75-3.75a3.7,3.7,0,0,0,1.1-2.65V184h7.5v30a3.7,3.7,0,0,0,1.1,2.65l3.75,3.75a3.72,3.72,0,0,0,2.65,1.1h7.5a3.72,3.72,0,0,0,2.65-1.1l3.75-3.75a3.7,3.7,0,0,0,1.1-2.65V184ZM202.3,214l-1.55-1.55v-4.4l1.55-1.55h4.4l1.55,1.55v4.4L206.7,214Zm-30,0-1.55-1.55v-4.4l1.55-1.55h4.4l1.55,1.55v4.4L176.7,214Zm-30,0-1.55-1.55v-4.4l1.55-1.55h4.4l1.55,1.55v4.4L146.7,214Z"/></svg>