<?xml version="1.0" encoding="utf-8"?>
<!-- Generator: Adobe Illustrator 22.1.0, SVG Export Plug-In . SVG Version: 6.00 Build 0)  -->
<svg style="enable-background:new 0 0 500 500;" id="Calque_1" version="1.1" viewBox="0 0 500 500" x="0px"
     xmlns="http://www.w3.org/2000/svg" y="0px" xml:space="preserve">
<style type="text/css">
	.st0{fill:#4FBDD7;}
	.st1{fill:#EAEAEA;}
	.st2{fill:none;}
	.st3{fill:#FFFFFF;}
	.st4{font-family:'HelveticaNeue-CondensedBold';}
	.st5{font-size:54px;}
	.st6{fill:#4FBDD7;stroke:#FFFFFF;stroke-width:5;stroke-miterlimit:10;}
	.st7{fill:#8C8C8C;}
	.st8{fill:#070707;}
	.st9{fill:none;stroke:#FFFFFF;stroke-width:7;stroke-miterlimit:10;}
	.st10{fill:none;stroke:#FFFFFF;stroke-width:10;stroke-miterlimit:10;}
	.st11{fill:#FFFFFF;stroke:#FFFFFF;stroke-width:3;stroke-miterlimit:10;}
	.st12{fill:none;stroke:#FDFFFF;stroke-width:6;stroke-miterlimit:10;}
	.st13{fill:#FAFEFF;}
	.st14{fill:none;stroke:#FFFFFF;stroke-width:2;stroke-miterlimit:10;}
	.st15{fill:#FFFFFF;stroke:#FFFFFF;stroke-width:2;stroke-miterlimit:10;}
	.st16{fill:#4FBDD7;stroke:#FFFFFF;stroke-width:4;stroke-miterlimit:10;}
	.st17{fill:#FFFFFF;stroke:#FFFFFF;stroke-width:4;stroke-miterlimit:10;}
	.st18{fill:none;stroke:#FFFFFF;stroke-miterlimit:10;}
	.st19{fill:#FFFFFF;stroke:#FFFFFF;stroke-width:13;stroke-miterlimit:10;}
	.st20{fill:#4FBDD7;stroke:#FFFFFF;stroke-width:8;stroke-miterlimit:10;}
	.st21{fill:#FFFFFF;stroke:#FFFFFF;stroke-width:0.75;stroke-miterlimit:10;}
	.st22{fill:#FFFFFF;stroke:#FFFFFF;stroke-width:0.5;stroke-miterlimit:10;}
	.st23{fill:#FFFFFF;stroke:#FFFFFF;stroke-width:8;stroke-miterlimit:10;}
	.st24{fill:#FFFFFF;stroke:#FFFFFF;stroke-miterlimit:10;}
	.st25{fill:#FFFFFF;stroke:#FFFFFF;stroke-width:11;stroke-miterlimit:10;}
	.st26{fill:#FFFFFF;stroke:#FFFFFF;stroke-width:6;stroke-miterlimit:10;}
	.st27{fill:#8C8C8C;stroke:#8C8C8C;stroke-width:4;stroke-miterlimit:10;}
	.st28{fill:#FFFFFF;stroke:#FFFFFF;stroke-width:1.05;stroke-miterlimit:10;}
	.st29{fill:none;stroke:#4FBDD7;stroke-width:5;stroke-miterlimit:10;}
	.st30{fill:none;stroke:#FFFFFF;stroke-width:4;stroke-miterlimit:10;}
	.st31{fill:#8C8C8C;stroke:#FFFFFF;stroke-width:4;stroke-miterlimit:10;}
	.st32{fill:#FFFFFF;stroke:#FFFFFF;stroke-width:10;stroke-miterlimit:10;}
	.st33{fill:none;stroke:#4FBDD7;stroke-width:2;stroke-miterlimit:10;}
	.st34{fill-rule:evenodd;clip-rule:evenodd;fill:#FFFFFF;}
	.st35{fill:#FFFFFF;stroke:#FFFFFF;stroke-width:7;stroke-miterlimit:10;}
	.st36{fill:#FFFFFF;stroke:#4FBDD7;stroke-width:7;stroke-miterlimit:10;}
	.st37{fill:#FCFCFC;}
	.st38{fill:#FFFFFF;stroke:#FFFFFF;stroke-width:5;stroke-miterlimit:10;}
	.st39{fill:none;stroke:#FFFFFF;stroke-width:3;stroke-miterlimit:10;}
	.st40{fill:none;stroke:#FFFFFF;stroke-width:8;stroke-miterlimit:10;}
	.st41{fill:none;stroke:#FFFFFF;stroke-width:6;stroke-miterlimit:10;}
	.st42{fill:#FFFFFF;stroke:#4FBDD7;stroke-width:3;stroke-miterlimit:10;}
	.st43{fill:none;stroke:#FFFFFF;stroke-width:0.75;stroke-miterlimit:10;}
	.st44{fill:#4FBDD7;stroke:#FFFFFF;stroke-width:9;stroke-miterlimit:10;}
	.st45{fill:none;stroke:#FFFFFF;stroke-width:9;stroke-miterlimit:10;}
	.st46{fill:none;stroke:#4FBDD7;stroke-width:3;stroke-miterlimit:10;}
</style>
    <rect class="st0" height="500" width="500" x="1" y="2"/>
    <g>
	<rect class="st2" height="144" width="500" x="2" y="364"/>
        <text class="st3 st4 st5" transform="matrix(1 0 0 1 131.0952 402.5557)">Cornemuse</text>
</g>
    <g>
	<path class="st3" d="M312.5,177.7l-2.2,0.7l3.8-63.1c2.1-1.2,3.6-3.5,3.8-6.1l1.1-17.6c0.1-2-0.6-3.9-1.9-5.4
		c-1.3-1.5-3.2-2.4-5.2-2.5l-6.8-0.4c-4.1-0.2-7.7,2.9-7.9,7l-1.1,17.6c-0.1,2,0.6,3.9,1.9,5.4c0.3,0.4,0.7,0.7,1.1,1l-0.8,12.6
		l-23.5,7.6l-4.3-13.5c1.5-1.9,2.2-4.5,1.4-7l-5.4-16.8c-1.3-3.9-5.7-6.1-9.6-4.8l-6.5,2.1c-3.9,1.3-6.2,5.5-4.9,9.5l5.4,16.8
		c0.8,2.5,2.9,4.3,5.3,4.9l4.3,13.4l-23.6,7.6l-8-9.8c0.7-2.3,0.3-5-1.3-7l-11.1-13.7c-1.3-1.5-3.1-2.5-5.1-2.7
		c-2-0.2-4,0.4-5.5,1.6l-5.3,4.3c-3.2,2.6-3.7,7.3-1.1,10.6l11.1,13.7c1.3,1.5,3.1,2.5,5.1,2.7c0.5,0.1,1,0.1,1.6,0l39.9,49
		l-5.5,1.8c-5.2,1.7-10.1,4-14.6,6.8l-72.1-60.9c0.3-2.4-0.6-5-2.6-6.7l-13.5-11.4c-1.5-1.3-3.5-1.9-5.5-1.7c-2,0.2-3.8,1.1-5.1,2.6
		l-4.4,5.2c-2.7,3.2-2.3,7.9,0.9,10.6l13.5,11.4c1.5,1.3,3.5,1.9,5.5,1.7c0.5,0,1-0.1,1.5-0.3l69.9,59c-7.4,7.7-12.9,17.3-15.7,28
		l-16.8,63.6c-3,0.3-5.5,2.4-6.4,5.5c-1.1,4,1.3,8.1,5.3,9.2l22,6l0,0c0,0,0,0,0,0l4.6,1.2c1.5,0.4,2.9,0.3,4.3-0.1
		c2.3-0.8,4.3-2.6,5-5.2c0.8-3.1-0.4-6.2-2.8-8l11-40.6c3-11,12.8-19,24.2-19.8l25,9.8c15.6,6.1,32.9,6.7,48.8,1.5l0.2-0.1l6.4-2
		c23.5-7.6,36.4-32.9,28.9-56.4C361.4,183.1,336.1,170.1,312.5,177.7 M279.4,148.9l17.9-5.8l-2.4,40.2l-4,1.3L279.4,148.9z
		 M265.1,153.5l11.5,35.7l-4.1,1.3l-25.4-31.3L265.1,153.5z M335.4,248.7l-6.4,2c-0.1,0-0.1,0-0.2,0c-12.6,4.1-26.3,3.7-38.7-1.2
		l-26.5-10.4c-0.9-0.4-1.9-0.5-2.9-0.5c-9.2,0.1-17.8,3.2-25.1,8.8c-7.2,5.6-12.3,13.3-14.7,22.1l-10.9,40l-2.9-0.8l16.7-63.2
		c4.3-16.2,16.4-28.9,32.3-34l16-5.1c0,0,0,0,0.1,0c0,0,0,0,0,0l15.4-4.9c0.2-0.1,0.5-0.1,0.8-0.2s0.5-0.2,0.7-0.3l15.3-4.9
		c0,0,0,0,0,0c0,0,0,0,0,0l12.6-4.1c15.7-5,32.5,3.6,37.5,19.2C359.7,226.8,351.1,243.6,335.4,248.7"/>
        <line class="st17" x1="256.2" x2="299" y1="211.6" y2="258.6"/>
        <line class="st17" x1="278.3" x2="324.2" y1="204.5" y2="257.2"/>
        <line class="st17" x1="304.5" x2="349.8" y1="196" y2="245.8"/>
        <line class="st17" x1="322.6" x2="360.2" y1="187.8" y2="228.6"/>
        <line class="st17" x1="231.5" x2="253.2" y1="224.8" y2="249.1"/>
        <line class="st17" x1="216.6" x2="357" y1="245.3" y2="200"/>
        <line class="st17" x1="241.1" x2="335.2" y1="219.6" y2="188.7"/>
        <line class="st17" x1="277.9" x2="356" y1="244.7" y2="217.8"/>
        <line class="st17" x1="301.3" x2="351.8" y1="252.7" y2="235.7"/>
</g>
</svg>
