<svg id="Calque_1" data-name="Calque 1" xmlns="http://www.w3.org/2000/svg" viewBox="0 0 350 300"><defs><style>.cls-1{fill:none;stroke:#000;stroke-miterlimit:10;stroke-width:5px;}</style></defs><title>selected</title><path class="cls-1" d="M231.5,116.68l-2.22.72,3.77-63.08a7.53,7.53,0,0,0,3.77-6.08l1.05-17.64a7.52,7.52,0,0,0-7.05-8l-6.78-.4a7.51,7.51,0,0,0-7.95,7L215,46.93a7.55,7.55,0,0,0,1.88,5.43,7.44,7.44,0,0,0,1.14,1L217.3,66l-23.48,7.56-4.33-13.47a7.66,7.66,0,0,0,1.42-7L185.5,36.28a7.65,7.65,0,0,0-9.61-4.79l-6.47,2.08A7.54,7.54,0,0,0,164.53,43l5.41,16.81a7.55,7.55,0,0,0,5.27,5l4.31,13.39-23.6,7.6L148,76a7.49,7.49,0,0,0-1.33-7L135.48,55.24a7.5,7.5,0,0,0-10.57-1.09l-5.27,4.29A7.5,7.5,0,0,0,118.55,69l11.14,13.71a7.53,7.53,0,0,0,5.06,2.73,7.31,7.31,0,0,0,1.55,0l39.85,49-5.55,1.78A64,64,0,0,0,156,143.1L83.89,82.23a7.53,7.53,0,0,0-2.61-6.66l-13.5-11.4a7.5,7.5,0,0,0-10.58.89l-4.39,5.2a7.5,7.5,0,0,0,.89,10.58l13.5,11.4A7.52,7.52,0,0,0,72.68,94a7,7,0,0,0,1.51-.29l69.91,59a63.77,63.77,0,0,0-15.73,28l-16.85,63.63a7.51,7.51,0,0,0-1.1,14.71l22,6h0l4.59,1.25a7.42,7.42,0,0,0,4.26-.09,7.51,7.51,0,0,0,2.2-13.17L154.5,212.5a27.06,27.06,0,0,1,24.15-19.78l25,9.83a72.64,72.64,0,0,0,48.8,1.54l.19-.07,6.43-2a44.83,44.83,0,0,0-27.59-85.3m-33.08-28.8,17.91-5.77-2.39,40.22-4,1.3Zm-14.3,4.6,11.51,35.75-4.14,1.33-25.4-31.28Zm70.33,95.22-6.43,2-.16,0a57.55,57.55,0,0,1-38.68-1.21l-26.5-10.44a7.45,7.45,0,0,0-2.88-.51A42,42,0,0,0,140,208.55l-10.9,40-2.95-.81,16.74-63.18a48.7,48.7,0,0,1,32.31-34l16-5.13.05,0h0l15.38-4.95c.24-.08.51-.12.76-.2s.5-.21.75-.29l15.25-4.91h0l0,0L236.1,131a29.81,29.81,0,0,1,18.35,56.72"/><line class="cls-1" x1="175.2" y1="150.58" x2="217.96" y2="197.62"/><line class="cls-1" x1="197.26" y1="143.48" x2="243.18" y2="196.22"/><line class="cls-1" x1="223.48" y1="135.04" x2="268.82" y2="184.83"/><line class="cls-1" x1="241.64" y1="126.82" x2="279.24" y2="167.59"/><line class="cls-1" x1="150.48" y1="163.78" x2="172.21" y2="188.15"/><line class="cls-1" x1="135.56" y1="184.26" x2="276.04" y2="139.05"/><line class="cls-1" x1="160.05" y1="158.58" x2="254.17" y2="127.72"/><line class="cls-1" x1="196.9" y1="183.74" x2="274.98" y2="156.85"/><line class="cls-1" x1="220.29" y1="191.7" x2="270.8" y2="174.69"/></svg>