<svg id="Calque_1" data-name="Calque 1" xmlns="http://www.w3.org/2000/svg" viewBox="0 0 350 300"><defs><style>.cls-1{fill:none;stroke:#000;stroke-miterlimit:10;stroke-width:5px;}</style></defs><title>selected</title><path d="M263.87,103.6H186.82a3.85,3.85,0,0,0-3.85,3.85v104a3.85,3.85,0,0,0,3.85,3.86h77a3.85,3.85,0,0,0,3.85-3.85v-104a3.85,3.85,0,0,0-3.85-3.85ZM190.68,207.65V111.31H260v96.33Z"/><path class="cls-1" d="M256.17,53.76V18.86A3.85,3.85,0,0,0,252.31,15H198.37a3.85,3.85,0,0,0-3.85,3.85v34.9A34.72,34.72,0,0,0,163.71,88.2v42.06a.81.81,0,0,0,0,.66V242.31A19.28,19.28,0,0,0,183,261.57h84.75A19.28,19.28,0,0,0,287,242.3l0-154.11h0a34.7,34.7,0,0,0-30.81-34.42m-54-31h46.24V30.4H233a3.85,3.85,0,0,0-3.85,3.86,3.85,3.85,0,1,1-7.7,0h0a3.91,3.91,0,0,0-.2-1,5.17,5.17,0,0,0-.11-.54c0-.08-.11-.14-.15-.22a3.82,3.82,0,0,0-3.4-2.13H202.22Zm0,15.41h12.27a11.48,11.48,0,0,0,21.69,0h12.28V53.53H202.22ZM279.29,242.3a11.56,11.56,0,0,1-11.55,11.55H183a11.57,11.57,0,0,1-11.56-11.55V88.2a27,27,0,0,1,27-27h53.93a27,27,0,0,1,27,27Z"/><path class="cls-1" d="M225.35,191.5c10.62,0,19.26-12.83,19.26-28.6,0-14.37-13.84-34.58-16.61-38.49-1.5-2.09-3.82-2.09-5.31,0-2.77,3.91-16.61,24.12-16.61,38.49,0,15.77,8.65,28.6,19.27,28.6m0-54.85c5.46,8.46,11.56,20.23,11.56,26.25,0,9.46-5.19,17.16-11.56,17.16s-11.56-7.7-11.56-17.16c0-6,6.1-17.77,11.56-26.25"/><path class="cls-1" d="M102.06,80.51A50.13,50.13,0,0,0,52,130.6v11.55a49.51,49.51,0,0,0,1.4,11.56A49.76,49.76,0,0,0,52,165.27v11.56a50,50,0,0,0,1.4,11.55A50.3,50.3,0,0,0,52,199.94V211.5a50.09,50.09,0,1,0,100.17,0V199.93a50.54,50.54,0,0,0-1.4-11.58,49.32,49.32,0,0,0,1.39-11.53V165.26a50.53,50.53,0,0,0-1.39-11.58,49.87,49.87,0,0,0,1.39-11.54V130.59a50.14,50.14,0,0,0-50.09-50.08m0,173.36A42.3,42.3,0,0,1,67.9,236.44a49.79,49.79,0,0,0,68.36,0,42.28,42.28,0,0,1-34.18,17.44m0-11.56a42.42,42.42,0,0,1-42.19-38.6,50,50,0,0,0,84.37,0,42.42,42.42,0,0,1-42.18,38.61M67.89,201.77a49.8,49.8,0,0,0,68.37,0,42.23,42.23,0,0,1-68.37,0m34.19,5.87A42.41,42.41,0,0,1,59.89,169a50,50,0,0,0,84.37,0,42.42,42.42,0,0,1-42.18,38.61M67.89,167.09a49.8,49.8,0,0,0,68.36,0,42.21,42.21,0,0,1-68.36,0M102.07,173a42.38,42.38,0,1,1,42.38-42.38A42.43,42.43,0,0,1,102.07,173"/></svg>