<?xml version="1.0" encoding="utf-8"?>
<!-- Generator: Adobe Illustrator 22.1.0, SVG Export Plug-In . SVG Version: 6.00 Build 0)  -->
<svg style="enable-background:new 0 0 500 500;" id="Calque_1" version="1.1" viewBox="0 0 500 500" x="0px"
     xmlns="http://www.w3.org/2000/svg" y="0px" xml:space="preserve">
<style type="text/css">
	.st0{fill:#EAEAEA;}
	.st1{fill:#8C8C8C;}
	.st2{fill:#FFFFFF;}
	.st3{fill:#EAEAEA;stroke:#8C8C8C;stroke-width:7;stroke-miterlimit:10;}
	.st4{fill:#070707;}
	.st5{fill:none;stroke:#8C8C8C;stroke-width:7;stroke-miterlimit:10;}
	.st6{fill:none;stroke:#8C8C8C;stroke-width:10;stroke-miterlimit:10;}
	.st7{fill:#8C8C8C;stroke:#8C8C8C;stroke-width:3;stroke-miterlimit:10;}
	.st8{fill:none;stroke:#8C8C8C;stroke-width:8;stroke-miterlimit:10;}
	.st9{fill:none;stroke:#8E8E8E;stroke-width:6;stroke-miterlimit:10;}
	.st10{fill:#8E8E8E;}
	.st11{fill:#505050;}
	.st12{fill:none;stroke:#8E8E8E;stroke-width:2;stroke-miterlimit:10;}
	.st13{fill:#8C8C8C;stroke:#8C8C8C;stroke-width:2;stroke-miterlimit:10;}
	.st14{fill:#8C8C8C;stroke:#FFFFFF;stroke-width:2;stroke-miterlimit:10;}
	.st15{fill:none;stroke:#FFFFFF;stroke-width:2;stroke-miterlimit:10;}
	.st16{fill:none;stroke:#8C8C8C;stroke-miterlimit:10;}
	.st17{fill:none;stroke:#8C8C8C;stroke-width:13;stroke-miterlimit:10;}
	.st18{fill:#EAEAEA;stroke:#8C8C8C;stroke-width:8;stroke-miterlimit:10;}
	.st19{fill:none;stroke:#8C8C8C;stroke-width:4;stroke-miterlimit:10;}
	.st20{fill:#8C8C8C;stroke:#8C8C8C;stroke-width:0.75;stroke-miterlimit:10;}
	.st21{fill:none;stroke:#8C8C8C;stroke-width:9;stroke-miterlimit:10;}
	.st22{fill:#8C8C8C;stroke:#8C8C8C;stroke-width:0.5;stroke-miterlimit:10;}
	.st23{fill:#6B6B6B;}
	.st24{fill:none;}
	.st25{stroke:#8C8C8C;stroke-width:8;stroke-miterlimit:10;}
	.st26{font-family:'HelveticaNeue-CondensedBold';}
	.st27{font-size:54px;}
	.st28{fill:#8C8C8C;stroke:#8C8C8C;stroke-miterlimit:10;}
	.st29{fill:none;stroke:#8C8C8C;stroke-width:11;stroke-miterlimit:10;}
	.st30{fill:none;stroke:#8C8C8C;stroke-width:6;stroke-miterlimit:10;}
	.st31{stroke:#8C8C8C;stroke-width:6;stroke-miterlimit:10;}
	.st32{fill:#8C8C8C;stroke:#8C8C8C;stroke-width:4;stroke-miterlimit:10;}
	.st33{fill:#8C8C8C;stroke:#8C8C8C;stroke-width:1.05;stroke-miterlimit:10;}
	.st34{fill:#D6D6D6;}
	.st35{fill:none;stroke:#EAEAEA;stroke-width:5;stroke-miterlimit:10;}
	.st36{fill:#8C8C8C;stroke:#8C8C8C;stroke-width:10;stroke-miterlimit:10;}
	.st37{fill:none;stroke:#CECECE;stroke-width:2;stroke-miterlimit:10;}
	.st38{fill:none;stroke:#FFFFFF;stroke-width:4;stroke-miterlimit:10;}
	.st39{fill-rule:evenodd;clip-rule:evenodd;fill:#8C8C8C;}
	.st40{fill:#8C8C8C;stroke:#8C8C8C;stroke-width:8;stroke-miterlimit:10;}
	.st41{fill:#8C8C8C;stroke:#8C8C8C;stroke-width:7;stroke-miterlimit:10;}
	.st42{fill:#DBDBDB;stroke:#8C8C8C;stroke-width:7;stroke-miterlimit:10;}
	.st43{fill:none;stroke:#8C8C8C;stroke-width:5;stroke-miterlimit:10;}
	.st44{fill:none;stroke:#8C8C8C;stroke-width:3;stroke-miterlimit:10;}
	.st45{clip-path:url(#SVGID_2_);fill:#8C8C8C;}
	.st46{clip-path:url(#SVGID_2_);fill:none;stroke:#8C8C8C;stroke-width:8;stroke-miterlimit:10;}
	.st47{clip-path:url(#SVGID_2_);fill:#FFFFFF;}
	.st48{clip-path:url(#SVGID_2_);fill:#EAEAEA;}
	.st49{clip-path:url(#SVGID_2_);fill:none;stroke:#8C8C8C;stroke-miterlimit:10;}
	.st50{fill:none;stroke:#FFFFFF;stroke-width:0.75;stroke-miterlimit:10;}
	.st51{fill:none;stroke:#8C8C8C;stroke-width:14;stroke-miterlimit:10;}
	.st52{fill:none;stroke:#EAEAEA;stroke-width:2;stroke-miterlimit:10;}
	.st53{fill:none;stroke:#8C8C8C;stroke-width:2;stroke-miterlimit:10;}
</style>
    <rect class="st0" height="500" width="500"/>
    <path class="st1" d="M224.6,221.9c-7.8,0-14.2,6.3-14.2,14.2s6.3,14.2,14.2,14.2s14.1-6.3,14.1-14.2S232.4,221.9,224.6,221.9z
	 M224.6,240.9c-2.7,0-4.8-2.2-4.8-4.8s2.2-4.8,4.8-4.8s4.8,2.2,4.8,4.8S227.3,240.9,224.6,240.9z"/>
    <path class="st1" d="M357.7,137l-58.4-3.6l8.1-30.3c1-3.6,0.5-7.5-1.4-10.7c-1.9-3.3-4.9-5.6-8.6-6.6l-12.3-3.3
	c-2.5-0.7-5,0.8-5.7,3.3c-0.7,2.5,0.8,5,3.3,5.7l12.3,3.3c2.6,0.7,4.1,3.4,3.4,5.9l-9.6,35.8c0,0,0,0,0,0l-7.9,29.4l-9.4-2.5
	l10.1-37.7c0.3-1.2,0.2-2.5-0.5-3.5c-0.6-1.1-1.6-1.8-2.8-2.2l-8.2-2.2c-0.5-7.3-6.7-13.1-14.1-13.1c-4.9,0-9.1,2.5-11.7,6.2
	l-8.2-2.2c-2.5-0.7-5,0.8-5.7,3.3l-10.1,37.7l-9.4-2.5l17.5-65.2c0.3-1.2,1.1-2.3,2.3-2.9c1.1-0.7,2.4-0.8,3.7-0.5
	c16.2,4.2,32.4,8.3,48.6,12.5c6.4,1.1,19.4,3.1,20,1c0.6-2.1-12.1-7.6-18-10c-16.1-4.2-32.1-8.3-48.2-12.5c-3.6-1-7.5-0.5-10.7,1.4
	c-3.3,1.9-5.6,4.9-6.6,8.6l-26.1,97.2c-0.1,0.3-0.2,0.6-0.2,1c-10,5.4-18.4,13.2-24.5,22.8c-6.8,10.6-10.4,22.9-10.4,35.6
	c0,10.6,2.6,21.2,7.5,30.6c0.8,1.5,2.4,2.5,4.1,2.5h2.7c2.2,3.5,4.8,6.7,7.7,9.7h-22.2c-7.8,0-14.2,6.3-14.2,14.1v9.5
	c0,2.6,2.1,4.7,4.7,4.7h152c2.6,0,4.7-2.1,4.7-4.7v-9.5c0-7.8-6.3-14.1-14.1-14.1H269c10.4-10.7,16.6-24.9,17.2-40.1l2.3-1.4
	c1.5-0.9,2.4-2.5,2.3-4.2c-0.5-11.4-3.9-22.4-9.8-32c0.1-0.3,0.2-0.6,0.3-0.9l6.5-24.1h77.5c6.5,0,11.8-5.3,11.8-11.8v-7.8
	C377,146.1,368.7,137.7,357.7,137z M256.1,113.9c2.7,0,4.8,2.2,4.8,4.8s-2.2,4.8-4.8,4.8c-2.7,0-4.8-2.2-4.8-4.8
	S253.4,113.9,256.1,113.9z M238.2,118.8l3.7,1c0.5,7.3,6.7,13.1,14.1,13.1c4.9,0,9.1-2.5,11.7-6.2l3.7,1l-8.9,33.2l-33.2-8.9
	L238.2,118.8z M222.4,159.8C222.4,159.8,222.4,159.8,222.4,159.8L222.4,159.8l56.1,15l-6.2,23c-0.7,2.6-3.4,4.1-5.9,3.4l-9.2-2.5h0
	l0,0l-51.4-13.8c-1.2-0.3-2.3-1.1-2.9-2.3c-0.7-1.1-0.8-2.4-0.5-3.7l6.2-23L222.4,159.8z M254.7,278.9h-11.5c-2.6,0-4.7,2.1-4.7,4.7
	c0,2.6,2.1,4.7,4.7,4.7h12.9h0h0h35c2.7,0,4.8,2.2,4.8,4.8v4.8H153.3v-4.8c0-2.7,2.2-4.8,4.8-4.8h35h0h0H206c2.6,0,4.7-2.1,4.7-4.7
	c0-2.6-2.1-4.7-4.7-4.7h-11.4c-3.9-2.7-7.4-6-10.4-9.7h40.5c5.8,0,11.5-1.5,16.6-4.4l35.1-20.3C274,258.4,266.3,270.8,254.7,278.9z
	 M236.5,256.7c-3.6,2.1-7.7,3.2-11.9,3.2h-51.8c-3.4-7.5-5.2-15.6-5.2-23.8c0-20.1,10.3-38.3,27.2-48.6c1.9,3.3,4.9,5.6,8.6,6.6
	l4.7,1.3l-3.4,12.8c-0.7,2.5,0.8,5,3.3,5.7c0.4,0.1,0.8,0.2,1.2,0.2c2.1,0,3.9-1.4,4.5-3.4l3.4-12.8l33.2,8.9l-1.1,4.2
	c-0.7,2.5,0.8,5,3.3,5.7c0.4,0.1,0.8,0.2,1.2,0.2c2.1,0,3.9-1.4,4.5-3.4l1.1-4.2l4.7,1.3c1.2,0.3,2.5,0.5,3.7,0.5
	c2.5,0,4.9-0.7,7.1-1.9c3.7,6.8,6,14.3,6.7,22L236.5,256.7z M367.7,164.4c0,1.3-1.1,2.5-2.5,2.5h-75l6.5-24.4l60.3,3.7
	c6,0.4,10.6,4.8,10.6,10.3V164.4z"/>
    <path class="st1" d="M224.6,278.9c-2.6,0-4.7,2.1-4.7,4.7c0,2.6,2.1,4.7,4.7,4.7h0c2.6,0,4.7-2.1,4.7-4.7
	C229.3,281,227.2,278.9,224.6,278.9z"/>
    <g>
	<rect class="st24" height="144" width="500" y="362"/>
        <text transform="matrix(1 0 0 1 66.187 400.5557)"><tspan class="st23 st26 st27" x="0" y="0">Coupe carreaux / </tspan>
            <tspan class="st23 st26 st27" x="78.4" y="64.8">Carrelette</tspan></text>
</g>
</svg>
