<svg id="Calque_1" data-name="Calque 1" xmlns="http://www.w3.org/2000/svg" viewBox="0 0 350 300"><title>selected</title><path d="M159.62,171.94a14.16,14.16,0,1,0,14.15,14.15,14.17,14.17,0,0,0-14.15-14.15Zm0,19a4.85,4.85,0,1,1,4.85-4.85,4.85,4.85,0,0,1-4.85,4.85Z"/><path d="M132.28,131.18c0,.21,0,.42.07.63l-.29-.51.22-.12m78.47,21,.13.2-.49.28a5.46,5.46,0,0,0,.36-.48m-16.57,79.62-1.35,1.4h-.58l.31-.22c.55-.38,1.09-.78,1.62-1.18m-69,.07c.5.38,1,.75,1.52,1.11l.31.22h-.55l-1.28-1.33M168.15,19a14.21,14.21,0,0,0-13.66,10.49l-26.06,97.25c-.09.32-.16.64-.22,1a66.3,66.3,0,0,0-27.38,89,4.64,4.64,0,0,0,4.12,2.5h2.71a62.24,62.24,0,0,0,7.67,9.69H93.14A14.16,14.16,0,0,0,79,243.08v9.5a4.65,4.65,0,0,0,4.65,4.65h152a4.65,4.65,0,0,0,4.65-4.65v-9.5a14.17,14.17,0,0,0-14.15-14.15H204a61.48,61.48,0,0,0,17.25-40.11l2.35-1.36a4.65,4.65,0,0,0,2.32-4.23,66.15,66.15,0,0,0-9.85-32c.11-.31.21-.62.3-.94l6.45-24.08h77.45A11.79,11.79,0,0,0,312,114.44V106.6c0-10.49-8.31-18.92-19.32-19.6l-58.43-3.62L242.38,53a14.19,14.19,0,0,0-10-17.33l-9.71-2.6c6.38,2.7,15.87,7,15.34,8.89-.19.66-1.62.91-3.7.91-4.48,0-12-1.17-16.3-1.91l-2.17-.56a4.59,4.59,0,0,0,1.83,1L230,44.7a4.85,4.85,0,0,1,3.43,5.93l-9.6,35.8v0l-7.87,29.38-9.36-2.51,10.1-37.7a4.65,4.65,0,0,0-3.29-5.7l-8.2-2.2a14.14,14.14,0,0,0-25.8-6.91l-8.2-2.2a5,5,0,0,0-1.21-.16,4.67,4.67,0,0,0-4.49,3.45l-10.1,37.71L146,97.13,163.48,31.9a4.82,4.82,0,0,1,5.93-3.42l46.42,12a4.65,4.65,0,0,1,3-8.18,4.57,4.57,0,0,1,1.21.16l2.59.69L220,32,171.82,19.49a13.92,13.92,0,0,0-3.67-.49Zm22.91,54.64a4.85,4.85,0,1,1,4.84-4.85,4.85,4.85,0,0,1-4.84,4.85Zm6.5,37.31-33.21-8.9,8.9-33.21,3.7,1a14.14,14.14,0,0,0,25.8,6.91l3.71,1L197.56,111Zm27.7,6,6.53-24.36,60.31,3.74c6,.37,10.59,4.81,10.59,10.31v7.84a2.5,2.5,0,0,1-2.47,2.47Zm-33,31.94h0l-51.38-13.77a4.86,4.86,0,0,1-3.42-5.93l6.17-23,13.85,3.71h0l56.05,15-6.17,23a4.85,4.85,0,0,1-4.68,3.59,5,5,0,0,1-1.26-.16l-9.17-2.46Zm-84.37,61.09a57.39,57.39,0,0,1-5.22-23.84,56.58,56.58,0,0,1,27.23-48.62,14,14,0,0,0,8.58,6.59l4.68,1.26-3.44,12.83a4.66,4.66,0,0,0,3.29,5.7,4.57,4.57,0,0,0,1.21.16,4.66,4.66,0,0,0,4.49-3.45l3.44-12.83,33.21,8.89-1.12,4.17a4.65,4.65,0,0,0,3.29,5.7,4.57,4.57,0,0,0,1.21.16,4.66,4.66,0,0,0,4.49-3.45l1.12-4.17L199,160.3a14.07,14.07,0,0,0,10.72-1.43,56.87,56.87,0,0,1,6.67,22l-44.84,25.88a23.84,23.84,0,0,1-11.92,3.2Zm21.71,19a52.64,52.64,0,0,1-10.42-9.69h40.48a33.13,33.13,0,0,0,16.58-4.44l35.07-20.25a52.26,52.26,0,0,1-21.58,34.38H178.24a4.66,4.66,0,1,0,0,9.31h47.87a4.85,4.85,0,0,1,4.85,4.84v4.85H88.29v-4.85a4.85,4.85,0,0,1,4.85-4.84H141a4.66,4.66,0,0,0,0-9.31Z"/><path d="M159.62,228.93a4.66,4.66,0,0,0,0,9.31h0a4.66,4.66,0,1,0,0-9.31Z"/></svg>