<svg id="Calque_1" data-name="Calque 1" xmlns="http://www.w3.org/2000/svg" viewBox="0 0 350 300"><title>selected</title><path d="M172.84,72.75v1h-1.66a15.63,15.63,0,0,0,1.66-1M186.26,47H172a3.24,3.24,0,0,0-3.24,3.24A11.71,11.71,0,0,1,175,63c-1.21,5.28-6.34,8.65-11.37,8.65a10.53,10.53,0,0,1-2.79-.37c-5.64-1.53-7.71-7.34-7.9-7.89V50.24A3.24,3.24,0,0,0,149.7,47H135.42a13.86,13.86,0,0,0-13.85,13.85V104.9c-44.17,33.33-50.3,81.31-50.3,128.25a14.85,14.85,0,1,0,29.69,0c0-31.16,2.62-63.33,21.48-87.84,18.19-.88,33.44-16.51,35-35.55h6.79c1.57,19,16.82,34.67,35,35.55,18.85,24.51,21.48,56.68,21.48,87.84a14.85,14.85,0,1,0,29.69,0c0-47-6.14-94.93-50.31-128.26v-44A13.87,13.87,0,0,0,186.26,47ZM172.84,71.28a9,9,0,0,0,2.37-17.8h11a7.37,7.37,0,0,1,7.36,7.37V71.28ZM128.05,60.85a7.38,7.38,0,0,1,7.37-7.37h11v9.91a14.39,14.39,0,0,0,14.38,14.37h32.78v25.52H128.05V60.85ZM235.58,241.52a8.37,8.37,0,0,1-8.36-8.37c0-21.13-1.47-37.45-4.61-51.35-3.75-16.58-10-30.23-19.22-41.72a3.24,3.24,0,0,0-2.53-1.22c-15.39,0-28.55-13-30.13-29.1h25.08c42.28,31.64,48.13,78,48.13,123.39a8.37,8.37,0,0,1-8.36,8.37Zm-149.47,0a8.37,8.37,0,0,1-8.36-8.37c0-45.4,5.85-91.75,48.13-123.39H151c-1.58,16.08-14.73,29.1-30.12,29.1a3.22,3.22,0,0,0-2.53,1.22c-9.18,11.49-15.47,25.14-19.22,41.72-3.14,13.9-4.61,30.22-4.61,51.35a8.37,8.37,0,0,1-8.36,8.37Z"/><path d="M171.69,129a3.25,3.25,0,0,0-2.05.74,14.62,14.62,0,0,1-17.56,0,3.25,3.25,0,0,0-4.09,5,21.11,21.11,0,0,0,25.76-.05,3.24,3.24,0,0,0-2.06-5.75Z"/><path d="M160.84,82.23a8.29,8.29,0,1,0,8.29,8.29,8.3,8.3,0,0,0-8.29-8.29Zm0,10.1a1.81,1.81,0,1,1,1.81-1.81,1.81,1.81,0,0,1-1.81,1.81Z"/></svg>