<svg id="Calque_1" data-name="Calque 1" xmlns="http://www.w3.org/2000/svg" viewBox="0 0 350 300"><title>selected</title><path d="M153.81,5c.07,0,.18.06.21.23l19.51,129.92.91,6-.33.07-11.1.26-6.58.15,3.16,5.77.92,1.68.86,1.55,1.72.41,19.74,4.75,1.7.41,1.46-1,1.59-1.06,5.51-3.69-5.84-3.15-9.79-5.3-.26-.21,3.54-5L257.18,30.05a.28.28,0,0,1,.17-.12h0a.22.22,0,0,1,.2.2l2.81,12.35A60.54,60.54,0,0,1,251.86,89h0l-47.21,67.5a.27.27,0,0,1-.22.13l-.08,0L195.78,152l-2.12-1.15-2,1.34-6,4-3.18,2.13,2,3.28,3.47,5.69,1.2,2,2.31-.05,5-.13h.24a10.25,10.25,0,0,1,10.21,10.3l.29,24.23,1.17,76.54c0,.18-.13.33-.23.33l-35.08.83c-.11,0-.22-.11-.22-.29l-1.46-100.71a10.65,10.65,0,0,1,10.2-10.87l6.9-.19-3.59-5.89-3.69-6-.87-1.42-1.61-.39-11.74-2.82-1.62-.39-1.42.88-6,3.72L152,160.53l6,3.29a10.65,10.65,0,0,1,4.12,14.31L115.1,267.18a.28.28,0,0,1-.18.16h-.06l-.07,0L84,250.65a.32.32,0,0,1-.07-.44l35.81-67.62L131,161.17l0,0v0a10.43,10.43,0,0,1,9.18-5.6,10,10,0,0,1,4.76,1.21l4.46,2.41,2,1.1,2-1.22,5.65-3.5,3.23-2-1.83-3.32L157,143.84l-1.17-2.13-2.43.06-9.8.23c-.09,0-.18-.08-.21-.24L132,60.18A60.48,60.48,0,0,1,145.5,14.85l8.11-9.73a.33.33,0,0,1,.17-.1h0m-10,136.33,3.56-.09,21.92-.52,4.54-.1-.68-4.49L154.92,14.76,153.6,6l-5.71,6.85-2.07,2.49A59.74,59.74,0,0,0,132.46,60v.11l10.84,77.75.49,3.54m60.6,14.57,2.05-2.93,45-64.33,0,0,0-.05a59.7,59.7,0,0,0,8.41-45.85l-.72-3.16-2-8.7-5.19,7.25L180.64,138,178,141.64l4,2.16,19.29,10.42,3.13,1.7M150.58,199l1.88-3.57,9.31-17.6a10,10,0,0,0-4-13.43l-13.1-7.08a9.83,9.83,0,0,0-13.35,4.13L122,179.06l-1.85,3.5,3.48,1.89L147,197.08l3.56,1.92m21.61,5.19,4-.09,26.57-.63,4-.09-.06-4-.28-19.88v-.07a9.87,9.87,0,0,0-9.79-9.71h-.23l-14.88.35a10,10,0,0,0-9.66,10.14l.29,19.91.06,4m-57.37,62.43,1.89-3.57,31.71-60,1.85-3.5-3.49-1.89L123.4,185.05l-3.55-1.92L118,186.7l-31.71,60-1.86,3.51,3.49,1.88,23.38,12.64,3.55,1.92m58.47,14.05,4-.09L203.9,280l4-.09-.06-4-1-67.83-.06-4-4,.09-26.56.63-4,.09.06,4,1,67.84.06,4M153.81,1a4,4,0,0,0-.68.05,4.31,4.31,0,0,0-2.59,1.49l-8.12,9.73A64.31,64.31,0,0,0,128,60.63a.41.41,0,0,0,0,.11l11.37,81.58a4.22,4.22,0,0,0,4.17,3.68h.11l9.79-.24,3.48,6.35-5.65,3.5-4.46-2.41a13.94,13.94,0,0,0-6.66-1.69,14.43,14.43,0,0,0-12.73,7.76v0l-11.27,21.44-35.81,67.6A4.32,4.32,0,0,0,82,254.16h0l30.85,16.68a4.15,4.15,0,0,0,2,.5,4.47,4.47,0,0,0,1.26-.19,4.32,4.32,0,0,0,2.52-2.11L165.72,180A14.63,14.63,0,0,0,160,160.32l6-3.73,11.74,2.82,3.69,6.05a14.65,14.65,0,0,0-14.09,14.93l1.46,100.71a4.25,4.25,0,0,0,4.22,4.23h.1l35.07-.82a4.3,4.3,0,0,0,4.13-4.41v0l-1.16-76.49-.29-24.22a14.32,14.32,0,0,0-14.21-14.25h-.33l-5,.12-3.46-5.69,6-4,8.56,4.62a4.16,4.16,0,0,0,2,.5,4.27,4.27,0,0,0,3.5-1.84L255.13,91.3l.06-.09a64.37,64.37,0,0,0,9.12-49.62L261.5,29.24a4.22,4.22,0,0,0-4.1-3.32,4.34,4.34,0,0,0-1,.12,4.29,4.29,0,0,0-2.47,1.68L177.49,134.58,158,4.65A4.22,4.22,0,0,0,153.81,1Zm-6.53,136.24L136.44,59.51a55.51,55.51,0,0,1,12.45-41.66L151,15.36,169.2,136.74l-21.92.52Zm55.9,13.44-19.29-10.42L255.3,40.44,256,43.6a55.55,55.55,0,0,1-7.84,42.77l-45,64.33ZM183.76,152,164,147.21l-.92-1.67,11.1-.26a4.53,4.53,0,0,0,.74-.09,4.44,4.44,0,0,0,.62.41l9.79,5.3L183.76,152Zm-34.83,41.6-23.38-12.63,9.3-17.61a5.91,5.91,0,0,1,5.21-3.16,5.8,5.8,0,0,1,2.72.68l13.08,7.08a5.79,5.79,0,0,1,2.83,3.5,6,6,0,0,1-.46,4.53l-9.3,17.61ZM181.6,174.1h0l14.87-.35h.14a5.84,5.84,0,0,1,5.8,5.8h0l.28,19.91-26.56.63-.29-19.92a6,6,0,0,1,5.76-6.08Zm-68.43,87.08L89.79,248.54l31.71-60,23.38,12.63-31.71,60Zm64.06,15.4-1-67.83,26.57-.63,1,67.83-26.57.63Z"/></svg>