<svg id="Calque_1" data-name="Calque 1" xmlns="http://www.w3.org/2000/svg" viewBox="0 0 350 300"><title>selected</title><path d="M176,27A23,23,0,0,1,198.8,53.23L190.59,112l-.63,4.55h65.35a11.55,11.55,0,0,1,11.54,11.53v13.37A11.54,11.54,0,0,1,259.94,152l-3,1.34.75,3.24L282,260.74a.81.81,0,0,1-.16.7.84.84,0,0,1-.66.32H70.8a.84.84,0,0,1-.81-1L94.31,156.62l.76-3.24L92,152a11.54,11.54,0,0,1-6.91-10.56V128.11a11.54,11.54,0,0,1,11.53-11.53H162l-.63-4.55-8.22-58.8A23,23,0,0,1,176,27M96.65,151.34H255.31a9.88,9.88,0,0,0,9.87-9.86V128.11a9.88,9.88,0,0,0-9.87-9.86H189a.85.85,0,0,1-.64-.28.9.9,0,0,1-.19-.67l9-64.3a21.37,21.37,0,1,0-42.33,0l9,64.3a.87.87,0,0,1-.2.67.84.84,0,0,1-.63.28H96.65a9.88,9.88,0,0,0-9.86,9.86v13.37a9.87,9.87,0,0,0,9.86,9.86M71.86,260.09H280.11L279,255.18l-1.49-6.37-2.26-9.68-19.39-83L255.1,153H96.87l-.72,3.09L73,255.18l-1.15,4.91M176,23A27,27,0,0,0,149.2,53.78l8.21,58.8H96.65a15.55,15.55,0,0,0-15.53,15.53v13.37a15.56,15.56,0,0,0,9.3,14.23L66.09,259.83a4.85,4.85,0,0,0,4.71,5.93H281.16a4.83,4.83,0,0,0,4.71-5.93L261.55,155.71a15.56,15.56,0,0,0,9.3-14.23V128.11a15.55,15.55,0,0,0-15.54-15.53H194.55l8.22-58.8A27.05,27.05,0,0,0,176,23ZM96.65,147.34a5.87,5.87,0,0,1-5.86-5.86V128.11a5.87,5.87,0,0,1,5.86-5.86H163a4.83,4.83,0,0,0,4.79-5.5l-9-64.3a17.37,17.37,0,1,1,34.41,0l-9,64.3a4.83,4.83,0,0,0,4.79,5.5h66.31a5.87,5.87,0,0,1,5.87,5.86v13.37a5.87,5.87,0,0,1-5.87,5.86ZM76.9,256.09,100,157H251.92l19.4,83c.75,3.23,1.51,6.45,2.26,9.68l1.49,6.37Z"/><polygon points="277 245 74 245 74 252 277 252 277 245 277 245"/></svg>