<?xml version="1.0" encoding="utf-8"?>
<!-- Generator: Adobe Illustrator 22.1.0, SVG Export Plug-In . SVG Version: 6.00 Build 0)  -->
<svg style="enable-background:new 0 0 500 500;" id="Calque_1" version="1.1" viewBox="0 0 500 500" x="0px"
     xmlns="http://www.w3.org/2000/svg" y="0px" xml:space="preserve">
<style type="text/css">
	.st0{fill:#EAEAEA;}
	.st1{fill:#8C8C8C;}
	.st2{fill:#FFFFFF;}
	.st3{fill:#EAEAEA;stroke:#8C8C8C;stroke-width:7;stroke-miterlimit:10;}
	.st4{fill:#070707;}
	.st5{fill:none;stroke:#8C8C8C;stroke-width:7;stroke-miterlimit:10;}
	.st6{fill:none;stroke:#8C8C8C;stroke-width:10;stroke-miterlimit:10;}
	.st7{fill:#8C8C8C;stroke:#8C8C8C;stroke-width:3;stroke-miterlimit:10;}
	.st8{fill:none;stroke:#8C8C8C;stroke-width:8;stroke-miterlimit:10;}
	.st9{fill:none;stroke:#8E8E8E;stroke-width:6;stroke-miterlimit:10;}
	.st10{fill:#8E8E8E;}
	.st11{fill:#505050;}
	.st12{fill:none;stroke:#8E8E8E;stroke-width:2;stroke-miterlimit:10;}
	.st13{fill:#8C8C8C;stroke:#8C8C8C;stroke-width:2;stroke-miterlimit:10;}
	.st14{fill:#8C8C8C;stroke:#FFFFFF;stroke-width:2;stroke-miterlimit:10;}
	.st15{fill:none;stroke:#FFFFFF;stroke-width:2;stroke-miterlimit:10;}
	.st16{fill:none;stroke:#8C8C8C;stroke-miterlimit:10;}
	.st17{fill:none;stroke:#8C8C8C;stroke-width:13;stroke-miterlimit:10;}
	.st18{fill:#EAEAEA;stroke:#8C8C8C;stroke-width:8;stroke-miterlimit:10;}
	.st19{fill:none;stroke:#8C8C8C;stroke-width:4;stroke-miterlimit:10;}
	.st20{fill:#8C8C8C;stroke:#8C8C8C;stroke-width:0.75;stroke-miterlimit:10;}
	.st21{fill:none;stroke:#8C8C8C;stroke-width:9;stroke-miterlimit:10;}
	.st22{fill:#8C8C8C;stroke:#8C8C8C;stroke-width:0.5;stroke-miterlimit:10;}
	.st23{fill:none;}
	.st24{fill:#6B6B6B;}
	.st25{font-family:'HelveticaNeue-CondensedBold';}
	.st26{font-size:54px;}
	.st27{stroke:#8C8C8C;stroke-width:8;stroke-miterlimit:10;}
	.st28{fill:#8C8C8C;stroke:#8C8C8C;stroke-miterlimit:10;}
	.st29{fill:none;stroke:#8C8C8C;stroke-width:11;stroke-miterlimit:10;}
	.st30{fill:none;stroke:#8C8C8C;stroke-width:6;stroke-miterlimit:10;}
	.st31{stroke:#8C8C8C;stroke-width:6;stroke-miterlimit:10;}
	.st32{fill:#8C8C8C;stroke:#8C8C8C;stroke-width:4;stroke-miterlimit:10;}
	.st33{fill:#8C8C8C;stroke:#8C8C8C;stroke-width:1.05;stroke-miterlimit:10;}
	.st34{fill:#D6D6D6;}
	.st35{fill:none;stroke:#EAEAEA;stroke-width:5;stroke-miterlimit:10;}
	.st36{fill:#8C8C8C;stroke:#8C8C8C;stroke-width:10;stroke-miterlimit:10;}
	.st37{fill:none;stroke:#CECECE;stroke-width:2;stroke-miterlimit:10;}
	.st38{fill:none;stroke:#FFFFFF;stroke-width:4;stroke-miterlimit:10;}
	.st39{fill-rule:evenodd;clip-rule:evenodd;fill:#8C8C8C;}
	.st40{fill:#8C8C8C;stroke:#8C8C8C;stroke-width:8;stroke-miterlimit:10;}
	.st41{fill:#8C8C8C;stroke:#8C8C8C;stroke-width:7;stroke-miterlimit:10;}
	.st42{fill:#DBDBDB;stroke:#8C8C8C;stroke-width:7;stroke-miterlimit:10;}
	.st43{fill:none;stroke:#8C8C8C;stroke-width:5;stroke-miterlimit:10;}
	.st44{fill:none;stroke:#8C8C8C;stroke-width:3;stroke-miterlimit:10;}
	.st45{clip-path:url(#SVGID_2_);fill:#8C8C8C;}
	.st46{clip-path:url(#SVGID_2_);fill:none;stroke:#8C8C8C;stroke-width:8;stroke-miterlimit:10;}
	.st47{clip-path:url(#SVGID_2_);fill:#FFFFFF;}
	.st48{clip-path:url(#SVGID_2_);fill:#EAEAEA;}
	.st49{clip-path:url(#SVGID_2_);fill:none;stroke:#8C8C8C;stroke-miterlimit:10;}
	.st50{fill:none;stroke:#FFFFFF;stroke-width:0.75;stroke-miterlimit:10;}
	.st51{fill:none;stroke:#8C8C8C;stroke-width:14;stroke-miterlimit:10;}
	.st52{fill:none;stroke:#EAEAEA;stroke-width:2;stroke-miterlimit:10;}
	.st53{fill:none;stroke:#8C8C8C;stroke-width:2;stroke-miterlimit:10;}
</style>
    <rect class="st0" height="500" width="500"/>
    <path class="st1" d="M178.9,120.1c-0.7-0.7-1.7-1.2-2.7-1.2h-29.8c-2,0-3.6,1.5-3.7,3.5c-0.1,1.4-8.9,143.2,91.5,178.5
	c0.5,0.1,1,0.2,1.5,0.3h29.8c2.1,0,3.7-1.7,3.7-3.7V96.6c0-11.4-17.1-18.6-26-18.6h-33.5v119H232v72.1
	c-58.2-32.4-52.1-145-52.1-146.2C180,121.8,179.6,120.8,178.9,120.1L178.9,120.1z M239.4,85.4h3.7c7.3,0,18.6,6,18.6,11.2v93h-22.3
	V85.4z M239.4,197h22.3v96.7h-22.3V197z M217.1,85.4H232v9.6l-14.9,14.9V85.4z M212.9,119.8l22.3-22.3v12.1l-22.3,22.3V119.8z
	 M214.8,136.3l20.2-20.2v21l-20.2,20.2V136.3z M214.8,165.4l22.3-22.3v12.1l-22.3,22.3V165.4z M217.1,189.6v-5.9l14.9-14.9v20.8
	H217.1z M218.8,270.2l-1.6,19c-43.3-27.6-59.2-84.8-64.2-135l21.1,1.7C178.6,212,194,251.3,218.8,270.2z"/>
    <path class="st1" d="M395,124.2l-90.9-33.9c-2.4-0.9-6.1-0.8-10.1,4.7c-1.9,2.6-3.8,6.3-5.4,10.4c0,0,0,0,0,0c0,0,0,0,0,0
	c0,0,0,0,0,0c-1.5,4.1-2.5,8.1-2.8,11.4c-0.6,6.8,2.2,9.2,4.5,10.1l18.1,6.8c-0.4,4.5,1,9.3,4.2,13.8c1.4,2,3.2,3.9,5.2,5.6
	l-10.2,27.4c-1.4,0.3-2.7,1.3-3.2,2.7l-12.1,32.4c0,0,0,0,0,0c0,0,0,0,0,0L265,289.2c-1.4,3.9-1.3,8.1,0.4,11.8s4.8,6.6,8.6,8.1
	c4,1.5,8.2,1.2,11.8-0.4s6.6-4.7,8.1-8.6l33.5-89.7c0,0,0,0,0,0c0,0,0,0,0,0l6-16.2c0.4-1.1,0.4-2.3-0.1-3.3
	c-0.1-0.3-0.3-0.6-0.5-0.8l10.2-27.2c2.8,0.1,5.5-0.2,8.1-0.9c5.4-1.3,9.6-4,12.2-7.7l18.1,6.8c2.4,0.9,6.1,0.8,10.1-4.7
	c1.9-2.6,3.8-6.3,5.4-10.4C398.8,140.3,402.8,127.1,395,124.2z M292.9,292.9c-2.3,6.2-9.2,9.4-15.4,7c-3-1.1-5.4-3.3-6.7-6.3
	s-1.4-6.2-0.3-9.2l35.1-94.2l22.5,8.4L292.9,292.9z M324.9,186.2l-8.9-3.3l9.3-24.8c1.5,0.8,3,1.4,4.6,2c1.4,0.5,2.9,1,4.3,1.4
	L324.9,186.2z M349,153.4c-2.5,0.6-5.3,0.8-8.2,0.5c-0.2,0-0.4-0.1-0.5-0.1c-2.4-0.3-4.9-0.9-7.4-1.8c-8.4-3.1-14.6-9.3-15.6-15.1
	l37.3,13.9C352.7,152.3,350.5,153.1,349,153.4z M388.4,156.6l-23.2-8.7c0,0,0,0,0,0c0,0,0,0,0,0l-77.2-28.8
	c-0.1-1.2,0.1-3.8,1.1-7.6l103.5,38.6C390.9,153.7,389.3,155.7,388.4,156.6z M395.9,141l-103.5-38.6c1.7-3.5,3.2-5.5,4.1-6.4
	L397,133.5C397.1,134.7,396.9,137.3,395.9,141z"/>
    <g>
	<rect class="st23" height="158" width="520" x="-10" y="362"/>
        <text transform="matrix(1 0 0 1 129.5815 400.5557)"><tspan class="st24 st25 st26" x="0" y="0">Couteau de </tspan>
            <tspan class="st24 st25 st26" x="42" y="64.8">Barbier</tspan></text>
</g>
</svg>
