<svg id="Calque_1" data-name="Calque 1" xmlns="http://www.w3.org/2000/svg" viewBox="0 0 350 300"><title>selected</title><path d="M338.13,65.84a.68.68,0,0,1,.27.07.62.62,0,0,1,.29.84L300,145.66a.61.61,0,0,1-.56.35.54.54,0,0,1-.27-.07.61.61,0,0,1-.29-.83L337.57,66.2a.63.63,0,0,1,.56-.36m0-4a4.62,4.62,0,0,0-4.15,2.6l-38.66,78.91a4.62,4.62,0,1,0,8.3,4.07l38.66-78.91a4.64,4.64,0,0,0-4.15-6.67Z"/><path d="M321.52,57.71a.66.66,0,0,1,.27.06.62.62,0,0,1,.29.84l-38.66,78.91a.62.62,0,0,1-.56.35.67.67,0,0,1-.28-.06.62.62,0,0,1-.28-.84L321,58.06a.61.61,0,0,1,.56-.35m0-4a4.63,4.63,0,0,0-4.16,2.59L278.7,135.21a4.63,4.63,0,0,0,8.31,4.07l38.66-78.91a4.62,4.62,0,0,0-4.15-6.66Z"/><path d="M329.66,41.09a.68.68,0,0,1,.27.07l16.61,8.14a.62.62,0,0,1,.34.69l-4,18.65a.62.62,0,0,1-.34.43.6.6,0,0,1-.27.06.63.63,0,0,1-.27-.06L317.09,56.86a.62.62,0,0,1-.21-1l12.29-14.58a.68.68,0,0,1,.49-.23m12.18,26.5,1.07-5,2-9.32.65-3.06-2.8-1.37-10.13-5-2.8-1.37-2,2.38-6.15,7.29-3.3,3.92,4.6,2.25,14.28,7,4.6,2.25m-12.18-30.5a4.63,4.63,0,0,0-3.54,1.65L313.83,53.32a4.62,4.62,0,0,0,1.5,7.13l24.92,12.21a4.68,4.68,0,0,0,2,.47,4.47,4.47,0,0,0,2-.47,4.54,4.54,0,0,0,2.5-3.19l4-18.64a4.64,4.64,0,0,0-2.49-5.13l-16.61-8.13a4.58,4.58,0,0,0-2-.48ZM339,61.75l-14.28-7,6.14-7.29,10.13,5-2,9.33Z"/><path d="M316.77,109.45a.68.68,0,0,1,.27.07.61.61,0,0,1,.32.36.62.62,0,0,1-.39.79l-12.38,4.24-.2,0a.63.63,0,0,1-.59-.42.62.62,0,0,1,.39-.79l12.37-4.24a.78.78,0,0,1,.21,0m0-4a4.6,4.6,0,0,0-1.5.26l-12.38,4.23a4.63,4.63,0,1,0,3,8.75l12.37-4.23a4.63,4.63,0,0,0-1.49-9Z"/><path d="M300.15,101.32a.67.67,0,0,1,.28.06.63.63,0,0,1,.31.36L305,114.12a.6.6,0,0,1,0,.47.58.58,0,0,1-.36.32l-.2,0a.63.63,0,0,1-.59-.42l-4.24-12.38a.62.62,0,0,1,.39-.79.69.69,0,0,1,.2,0m0-4a4.67,4.67,0,0,0-1.5.25,4.61,4.61,0,0,0-2.87,5.87L300,115.82a4.62,4.62,0,0,0,4.38,3.12,4.67,4.67,0,0,0,1.5-.25,4.61,4.61,0,0,0,2.87-5.87l-4.23-12.38a4.65,4.65,0,0,0-2.34-2.65,4.59,4.59,0,0,0-2-.47Z"/><path d="M306.59,130.22a.55.55,0,0,1,.28.07.61.61,0,0,1,.31.35.63.63,0,0,1,0,.48.64.64,0,0,1-.37.32l-12.37,4.23a.52.52,0,0,1-.21,0,.61.61,0,0,1-.58-.42.63.63,0,0,1,0-.48.64.64,0,0,1,.36-.32l12.38-4.23a.48.48,0,0,1,.2,0m0-4a4.67,4.67,0,0,0-1.5.25l-12.37,4.24a4.62,4.62,0,1,0,3,8.75l12.38-4.24a4.63,4.63,0,0,0,.54-8.53,4.73,4.73,0,0,0-2-.47Z"/><path d="M290,122.08a.52.52,0,0,1,.27.07.58.58,0,0,1,.32.36l4.24,12.37a.62.62,0,0,1-.39.79.52.52,0,0,1-.21,0,.61.61,0,0,1-.58-.42l-4.24-12.38a.63.63,0,0,1,0-.48.6.6,0,0,1,.36-.31.48.48,0,0,1,.2,0m0-4a4.63,4.63,0,0,0-4.38,6.13l4.24,12.37a4.62,4.62,0,0,0,8.75-3l-4.24-12.38a4.6,4.6,0,0,0-2.34-2.66,4.69,4.69,0,0,0-2-.47Z"/><path d="M278.7,134.58a.55.55,0,0,1,.28.07l24.92,12.21a.62.62,0,0,1,.32.35.63.63,0,0,1-.6.83.66.66,0,0,1-.27-.06l-24.92-12.21a.63.63,0,0,1,.27-1.19m0-4a4.63,4.63,0,0,0-2,8.78l24.92,12.21a4.63,4.63,0,1,0,4.07-8.31l-24.92-12.2a4.52,4.52,0,0,0-2-.48Z"/><path d="M48.74,88.88a.67.67,0,0,1,.28.06.63.63,0,0,1,.29.84A119.76,119.76,0,0,0,104.1,249.83,118.24,118.24,0,0,0,156.55,262a120.23,120.23,0,0,0,62.61-17.61,119,119,0,0,0,45-49.38.63.63,0,0,1,.56-.35.67.67,0,0,1,.28.06.63.63,0,0,1,.29.84,120.31,120.31,0,0,1-45.46,49.89,121.59,121.59,0,0,1-63.29,17.8,119.49,119.49,0,0,1-53-12.32A121,121,0,0,1,48.18,89.23a.63.63,0,0,1,.56-.35m0-4a4.63,4.63,0,0,0-4.15,2.59A124.87,124.87,0,0,0,268.87,197.34a4.63,4.63,0,0,0-8.31-4.07A115.62,115.62,0,1,1,52.9,91.54a4.62,4.62,0,0,0-4.16-6.66Z"/><path d="M148.61,26.72A110.24,110.24,0,0,1,197.53,38.1a111.74,111.74,0,0,1,51.13,149.34.61.61,0,0,1-.56.35.66.66,0,0,1-.27-.06.62.62,0,0,1-.32-.36.59.59,0,0,1,0-.48A110.36,110.36,0,0,0,148.58,28,110.49,110.49,0,0,0,49.31,89.78a.63.63,0,0,1-.57.35.54.54,0,0,1-.27-.07.62.62,0,0,1-.29-.83A111.77,111.77,0,0,1,148.61,26.72h0m0-4a115.79,115.79,0,0,0-104,64.75,4.63,4.63,0,0,0,8.31,4.07,106.37,106.37,0,1,1,191,93.59,4.62,4.62,0,1,0,8.3,4.07A115.6,115.6,0,0,0,148.61,22.72Z"/><path d="M65.36,97a.66.66,0,0,1,.27.06.62.62,0,0,1,.32.36.63.63,0,0,1,0,.48,101.24,101.24,0,0,0,46.32,135.3,100.05,100.05,0,0,0,44.33,10.3,101.27,101.27,0,0,0,91-56.63.62.62,0,0,1,.56-.35.63.63,0,0,1,.56.9A102.37,102.37,0,1,1,64.8,97.37a.61.61,0,0,1,.56-.35m0-4a4.63,4.63,0,0,0-4.16,2.59A106.37,106.37,0,0,0,252.25,189.2a4.62,4.62,0,0,0-2.11-6.19,4.68,4.68,0,0,0-2-.47,4.61,4.61,0,0,0-4.15,2.59A97.12,97.12,0,0,1,69.51,99.68,4.62,4.62,0,0,0,65.36,93Z"/><path d="M148.59,45.22a91.94,91.94,0,0,1,40.8,9.49A93.23,93.23,0,0,1,232.05,179.3a.63.63,0,0,1-.56.36.68.68,0,0,1-.28-.07.62.62,0,0,1-.28-.84A91.86,91.86,0,0,0,148.56,46.47,92,92,0,0,0,65.92,97.92a.62.62,0,0,1-.56.35.55.55,0,0,1-.28-.07.62.62,0,0,1-.32-.35.64.64,0,0,1,0-.48,92.61,92.61,0,0,1,35-38.43,93.65,93.65,0,0,1,48.77-13.72h0m0-4A97.27,97.27,0,0,0,61.2,95.61a4.63,4.63,0,0,0,8.31,4.07A87.87,87.87,0,1,1,227.33,177a4.63,4.63,0,1,0,8.31,4.07A97.11,97.11,0,0,0,148.58,41.22Z"/><path d="M291.16,140.69a.67.67,0,0,1,.28.06.63.63,0,0,1,.29.84l-26.45,54a.63.63,0,0,1-.57.35.66.66,0,0,1-.27-.06.62.62,0,0,1-.29-.84l26.45-54a.63.63,0,0,1,.56-.35m0-4a4.63,4.63,0,0,0-4.15,2.59l-26.45,54a4.63,4.63,0,0,0,8.31,4.07l26.45-54a4.62,4.62,0,0,0-4.16-6.66Z"/><path d="M82,105.15a.77.77,0,0,1,.28.07.62.62,0,0,1,.28.84A82.61,82.61,0,0,0,156.6,225a82.71,82.71,0,0,0,74.33-46.27.61.61,0,0,1,.56-.35.54.54,0,0,1,.27.07.57.57,0,0,1,.32.36.61.61,0,0,1,0,.47A83.87,83.87,0,0,1,81.41,105.51a.63.63,0,0,1,.56-.36m0-4a4.62,4.62,0,0,0-4.15,2.6,87.87,87.87,0,0,0,157.82,77.31,4.61,4.61,0,0,0-2.12-6.18,4.48,4.48,0,0,0-2-.48,4.63,4.63,0,0,0-4.16,2.59A78.62,78.62,0,0,1,86.12,107.82,4.62,4.62,0,0,0,84,101.63a4.69,4.69,0,0,0-2-.48Z"/><path d="M148.55,59.72v4h0a73.8,73.8,0,0,1,32.7,7.6.63.63,0,0,1-.27,1.19.55.55,0,0,1-.28-.07A72.52,72.52,0,0,0,148.53,65a73.45,73.45,0,0,0-66,41.09.61.61,0,0,1-.56.35.54.54,0,0,1-.27-.07.61.61,0,0,1-.29-.83,74.24,74.24,0,0,1,28.06-30.8,75,75,0,0,1,39.08-11v-4m0,0a78.7,78.7,0,0,0-70.73,44,4.61,4.61,0,0,0,2.12,6.18,4.48,4.48,0,0,0,2,.48,4.61,4.61,0,0,0,4.15-2.59A69.39,69.39,0,0,1,178.94,76,4.63,4.63,0,0,0,183,67.73a78.09,78.09,0,0,0-34.46-8Z"/><path d="M181,71.26a.66.66,0,0,1,.27.06l16.62,8.14a.6.6,0,0,1,.31.36.59.59,0,0,1,0,.48.62.62,0,0,1-.56.35.54.54,0,0,1-.27-.07L180.7,72.44a.62.62,0,0,1-.32-.35.64.64,0,0,1,0-.48.61.61,0,0,1,.56-.35m0-4a4.63,4.63,0,0,0-2,8.78l16.62,8.14a4.63,4.63,0,0,0,4.07-8.31L183,67.73a4.6,4.6,0,0,0-2-.47Z"/><path d="M336.6,69a.55.55,0,0,1,.28.07.61.61,0,0,1,.31.35.63.63,0,0,1,0,.48.64.64,0,0,1-.36.32l-12.38,4.23a.52.52,0,0,1-.21,0,.63.63,0,0,1-.19-1.22L336.4,69a.51.51,0,0,1,.2,0m0-4a4.57,4.57,0,0,0-1.49.25l-12.38,4.24a4.62,4.62,0,0,0,1.49,9,4.69,4.69,0,0,0,1.51-.25L338.1,74a4.63,4.63,0,0,0,.54-8.53,4.73,4.73,0,0,0-2-.47Z"/><path d="M320,60.82a.58.58,0,0,1,.28.07.6.6,0,0,1,.31.36l4.24,12.37a.62.62,0,0,1-.39.79.52.52,0,0,1-.21,0,.61.61,0,0,1-.58-.42L319.4,61.65a.62.62,0,0,1,.39-.79.48.48,0,0,1,.2,0m0-4A4.62,4.62,0,0,0,315.62,63l4.23,12.37a4.63,4.63,0,0,0,4.37,3.13,4.69,4.69,0,0,0,1.51-.25,4.61,4.61,0,0,0,2.87-5.87L324.37,60A4.64,4.64,0,0,0,322,57.29a4.77,4.77,0,0,0-2-.47Z"/><path d="M326.43,89.73a.63.63,0,0,1,.27.06.61.61,0,0,1,.32.36.63.63,0,0,1,0,.48.6.6,0,0,1-.36.31l-12.37,4.24a.78.78,0,0,1-.21,0,.64.64,0,0,1-.59-.43.62.62,0,0,1,.39-.79l12.38-4.24a.69.69,0,0,1,.2,0m0-4a4.63,4.63,0,0,0-1.5.25l-12.37,4.23a4.63,4.63,0,0,0,1.49,9,4.39,4.39,0,0,0,1.5-.26l12.38-4.23a4.62,4.62,0,0,0,.53-8.53,4.55,4.55,0,0,0-2-.47Z"/><path d="M309.82,81.59a.63.63,0,0,1,.27.06.61.61,0,0,1,.32.36l4.24,12.38a.62.62,0,0,1-.39.79.78.78,0,0,1-.21,0,.64.64,0,0,1-.59-.43l-4.23-12.37a.63.63,0,0,1,0-.48.64.64,0,0,1,.36-.32.76.76,0,0,1,.21,0m0-4a4.63,4.63,0,0,0-4.38,6.12l4.24,12.38a4.63,4.63,0,0,0,4.37,3.13,4.39,4.39,0,0,0,1.5-.26,4.61,4.61,0,0,0,2.88-5.87l-4.24-12.37a4.61,4.61,0,0,0-2.34-2.66,4.55,4.55,0,0,0-2-.47Z"/></svg>