<svg id="Calque_1" data-name="Calque 1" xmlns="http://www.w3.org/2000/svg" viewBox="0 0 350 300"><defs><style>.cls-1{fill:none;stroke:#000;stroke-miterlimit:10;stroke-width:5px;}</style></defs><title>selected</title><path class="cls-1" d="M198.32,242l55.3,8.79,21.2-133.32L262.53,81.42l-9.3-27.28L235.94,77.2l-22.87,30.48L191.87,241c2.15.34,4.31.67,6.45,1"/><path d="M251.55,64.71,257.79,83l11.89,34.89L249.47,245.08l-50.36-8-1.51-.24,20.21-127.15L239.94,80.2l11.61-15.49m1.68-10.57L235.94,77.2l-22.87,30.48L191.87,241c2.15.34,4.31.67,6.45,1l55.3,8.79,21.2-133.32L262.53,81.42l-9.3-27.28Z"/><path d="M251.55,64.71l16.87,49.51a61.52,61.52,0,0,1-15.12,1.88,63.48,63.48,0,0,1-9.81-.77,62.83,62.83,0,0,1-10.88-2.75,61.17,61.17,0,0,1-12.45-6l31.39-41.84m1.68-10.57-40.18,53.57a66.76,66.76,0,0,0,29.66,12.55,67,67,0,0,0,10.59.84,66.36,66.36,0,0,0,21.52-3.57L253.23,54.14Z"/><path d="M251.55,64.71l16.87,49.51a61.52,61.52,0,0,1-15.12,1.88,63.48,63.48,0,0,1-9.81-.77,62.83,62.83,0,0,1-10.88-2.75,61.17,61.17,0,0,1-12.45-6l31.39-41.84m1.68-10.57-40.18,53.57a66.76,66.76,0,0,0,29.66,12.55,67,67,0,0,0,10.59.84,66.36,66.36,0,0,0,21.52-3.57L253.23,54.14Z"/><path d="M251.55,64.71,256,77.8a22.81,22.81,0,0,1-2.75.16,24.41,24.41,0,0,1-8-1.35c-.69-.25-1.38-.53-2.05-.83l8.3-11.07m1.68-10.57L235.94,77.2a28.69,28.69,0,0,0,12.77,5.4,28.76,28.76,0,0,0,13.82-1.18l-9.3-27.28Z"/><path class="cls-1" d="M154.74,244.63q28.74-.27,57.47-.26v-135l-17.8-33.69L181,50.19,167.49,75.68l-17.8,33.69V244.68l5.05-.05"/><path d="M181,60.9,190,78l17.22,32.59V239.37c-19.67,0-36.48.11-52.52.26h0v-129L171.91,78l9-17.11m0-10.71L167.49,75.68l-17.8,33.69V244.68l5.05-.05q28.74-.27,57.47-.26v-135L194.42,75.68,181,50.19Z"/><path d="M180.94,60.9l24.44,46.24a62.2,62.2,0,0,1-35.62,4,61.3,61.3,0,0,1-13.24-4L180.94,60.9m0-10.71-31.26,59.22a66.07,66.07,0,0,0,19.19,6.65,67.19,67.19,0,0,0,43.36-6.65L181,50.2Z"/><path d="M180.94,60.9l24.44,46.24a62.2,62.2,0,0,1-35.62,4,61.3,61.3,0,0,1-13.24-4L180.94,60.9m0-10.71-31.26,59.22a66.07,66.07,0,0,0,19.19,6.65,67.19,67.19,0,0,0,43.36-6.65L181,50.2Z"/><path d="M181,60.9l6.46,12.22A23.86,23.86,0,0,1,181,74a23.32,23.32,0,0,1-4.3-.38c-.73-.14-1.45-.3-2.16-.5L181,60.9m0-10.71L167.49,75.68a28.87,28.87,0,0,0,26.92,0L181,50.19Z"/><path class="cls-1" d="M131.46,255c18.53-3.42,36.82-8,55-12.82L153,111,127.4,82.81l-5.81-6.41L108,61.45l-6.73,28-8.9,37.05L125.51,256c2-.34,4-.68,6-1.05"/><path d="M110.69,71.82l7.2,7.93,5.8,6.41,24.76,27.32,32,125.08c-16,4.16-32.86,8.34-49.88,11.48l-1.34.24L97.56,126.49l8.61-35.85,4.52-18.82M108,61.45l-6.73,28-8.9,37.05L125.51,256c2-.34,4-.68,6-1.05,18.53-3.42,36.82-8,55-12.82L153,111,127.4,82.81l-5.81-6.41L108,61.45Z"/><path d="M110.69,71.82l35.12,38.75a62.13,62.13,0,0,1-33.51,12.7c-1.43.1-2.89.15-4.32.15a61.65,61.65,0,0,1-9.5-.74l12.21-50.86M108,61.45,92.41,126.57A66.14,66.14,0,0,0,108,128.42c1.55,0,3.11,0,4.67-.16a67.53,67.53,0,0,0,12-1.94A66.62,66.62,0,0,0,153,111.07L108,61.45Z"/><path d="M110.69,71.82l35.12,38.75a62.13,62.13,0,0,1-33.51,12.7c-1.43.1-2.89.15-4.32.15a61.65,61.65,0,0,1-9.5-.74l12.21-50.86M108,61.45,92.41,126.57A66.14,66.14,0,0,0,108,128.42c1.55,0,3.11,0,4.67-.16a67.53,67.53,0,0,0,12-1.94A66.62,66.62,0,0,0,153,111.07L108,61.45Z"/><path d="M110.69,70.18,120,80.42a23.75,23.75,0,0,1-6,2.46,22.9,22.9,0,0,1-4.26.69c-.55,0-1.11.06-1.66.06h-.56l3.23-13.44M108,59.8l-6.73,28a28.32,28.32,0,0,0,6.71.8c.67,0,1.33,0,2-.07a28.14,28.14,0,0,0,5.16-.83,28.76,28.76,0,0,0,12.22-6.57L108,59.8Z"/></svg>