<svg id="Calque_1" data-name="Calque 1" xmlns="http://www.w3.org/2000/svg" viewBox="0 0 350 300"><title>selected</title><path d="M191.31,26.61a3.51,3.51,0,0,1,3.51,3.51V54.33a24.48,24.48,0,0,1-1.13,7.39L193,63.9l1.52,1.7,50.28,56.12a16,16,0,0,1,3.58,6.56l.81,2.94H264.9l1-2.54a16.63,16.63,0,1,1,0,12.11l-1-2.54H248.17L247,140.37a16.13,16.13,0,0,1-2.25,3.21l-54.45,60.79-2,2.27L190,209.2,201,226.37l1.18,1.83h9.31a18.63,18.63,0,0,1,18.6,18.61v15.73a3.52,3.52,0,0,1-3.52,3.51H74.39a3.52,3.52,0,0,1-3.51-3.51V246.81A18.63,18.63,0,0,1,89.49,228.2h9.3l1.18-1.83L111,209.2l1.65-2.56-2-2.27L56.4,143.82l0,0,0,0a16.4,16.4,0,0,1-.15-22L106.46,65.6,108,63.9l-.69-2.18a24.48,24.48,0,0,1-1.13-7.39V30.12a3.51,3.51,0,0,1,3.51-3.51h81.64M130.82,72h39.34a17.65,17.65,0,0,0,17.63-17.63V33.64H113.18V54.33A17.66,17.66,0,0,0,130.82,72m84.49,55.42,3-3.32.71-.81c2-2.21,3.38-3.81,6.25-5.25l4.68-2.34-3.49-3.91L192,73.28l-2.63-2.94-3,2.59a24.36,24.36,0,0,1-8.21,4.74l-5.56,2,3.95,4.41,35.8,40,3,3.32M68.39,142a9.36,9.36,0,0,0,7-3.12l49.09-54.8,4-4.4-5.56-2a25,25,0,0,1-8.22-4.74l-3-2.59L109,73.28l-47.6,53.13a9.37,9.37,0,0,0,7,15.6m23.28-10.79H209.31l-6-6.67L163.71,80.32,162.52,79H138.46l-1.19,1.33L97.64,124.55l-6,6.67m92.68,69.3,3.5-3.91,21.8-24.34L233.23,146l6.34-7.07a9.36,9.36,0,0,0-13.95-12.48l-49.85,55.65-2.35,2.62,2.34,2.67a45.88,45.88,0,0,1,3.13,4.68c.69,1.08,1.54,2.41,2.62,4.08l2.84,4.42m97-56.19a9.6,9.6,0,1,0-9.59-9.6,9.61,9.61,0,0,0,9.59,9.6M116.63,200.52l2.84-4.42,2.62-4.07a43.65,43.65,0,0,1,3.15-4.72l2.31-2.66L125.2,182,88.65,141.24l-3-3.33-3,3.33L82,142c-2,2.22-3.38,3.82-6.25,5.26l-4.68,2.35,3.49,3.9,38.59,43.07,3.5,3.91M136.36,184h28.27l1.19-1.33,33.78-37.7,6-6.67H95.4l6,6.67,33.78,37.7,1.2,1.33M107.15,228.2h86.68l-4-6.17-1.53-2.37-10-15.5L171,192.81,169.85,191H131.13L130,192.81l-6.35,9.86-9.75,15.12L111.12,222l-4,6.17M77.91,259H223.07V246.81a11.58,11.58,0,0,0-11.57-11.58h-122a11.59,11.59,0,0,0-11.58,11.58V259M191.31,22.61H109.67a7.51,7.51,0,0,0-7.51,7.51V54.33a28.44,28.44,0,0,0,1.32,8.6L53.21,119a20.38,20.38,0,0,0,.21,27.45L107.67,207,96.6,224.2H89.49a22.63,22.63,0,0,0-22.61,22.61v15.73a7.52,7.52,0,0,0,7.51,7.51H226.58a7.52,7.52,0,0,0,7.52-7.51V246.81a22.63,22.63,0,0,0-22.6-22.61h-7.13L193.32,207l54.45-60.79a19.91,19.91,0,0,0,2.8-4h11.61a20.63,20.63,0,1,0,0-15h-9.94a20.26,20.26,0,0,0-4.47-8.18L197.5,62.93a28.44,28.44,0,0,0,1.32-8.6V30.12a7.51,7.51,0,0,0-7.51-7.51ZM130.82,68a13.65,13.65,0,0,1-13.64-13.63V37.64h66.61V54.33A13.66,13.66,0,0,1,170.16,68Zm84.49,53.43-35.8-40A28.61,28.61,0,0,0,189,76l34.48,38.47c-4,2-5.77,4.3-8.15,7ZM68.39,138a5.37,5.37,0,0,1-4-8.94L112,76a29.26,29.26,0,0,0,9.48,5.48L72.38,136.22a5.35,5.35,0,0,1-4,1.79Zm32.23-10.79L140.25,83h20.49l39.62,44.23Zm84.25,66.72c-5.08-7.89-5.28-8.3-6.11-9.24l49.84-55.63a5.32,5.32,0,0,1,4-1.78,5.36,5.36,0,0,1,4,8.93l-51.71,57.72Zm96.51-53.61a5.6,5.6,0,1,1,5.59-5.6,5.6,5.6,0,0,1-5.59,5.6ZM138.14,180l-33.78-37.7h92.26L162.84,180Zm-22,14L77.52,150.87c4-2,5.76-4.3,8.15-7l36.55,40.8c-.82,1-.66.78-6.11,9.24Zm-1.63,30.26L133.31,195h34.36l18.82,29.22ZM81.91,255v-8.21a7.59,7.59,0,0,1,7.58-7.58h122a7.59,7.59,0,0,1,7.57,7.58V255Z"/><path d="M150.49,203.86a3.51,3.51,0,0,1,3.51,3.51v4.37a3.51,3.51,0,1,1-7,0v-4.37a3.51,3.51,0,0,1,3.51-3.51m0-4a7.51,7.51,0,0,0-7.51,7.51v4.37a7.51,7.51,0,1,0,15,0v-4.37a7.51,7.51,0,0,0-7.51-7.51Z"/><path d="M150.49,47A3.51,3.51,0,0,1,154,50.55V55a3.51,3.51,0,1,1-7,0V50.55A3.51,3.51,0,0,1,150.49,47m0-4A7.51,7.51,0,0,0,143,50.55V55a7.51,7.51,0,1,0,15,0V50.55A7.51,7.51,0,0,0,150.49,43Z"/></svg>