<?xml version="1.0" encoding="utf-8"?>
<!-- Generator: Adobe Illustrator 22.1.0, SVG Export Plug-In . SVG Version: 6.00 Build 0)  -->
<svg style="enable-background:new 0 0 500 500;" id="Calque_1" version="1.1" viewBox="0 0 500 500" x="0px"
     xmlns="http://www.w3.org/2000/svg" y="0px" xml:space="preserve">
<style type="text/css">
	.st0{fill:#EAEAEA;}
	.st1{fill:#8C8C8C;}
	.st2{fill:#FFFFFF;}
	.st3{fill:#EAEAEA;stroke:#8C8C8C;stroke-width:7;stroke-miterlimit:10;}
	.st4{fill:#070707;}
	.st5{fill:none;stroke:#8C8C8C;stroke-width:7;stroke-miterlimit:10;}
	.st6{fill:none;stroke:#8C8C8C;stroke-width:10;stroke-miterlimit:10;}
	.st7{fill:#8C8C8C;stroke:#8C8C8C;stroke-width:3;stroke-miterlimit:10;}
	.st8{fill:none;stroke:#8C8C8C;stroke-width:8;stroke-miterlimit:10;}
	.st9{fill:none;stroke:#8E8E8E;stroke-width:6;stroke-miterlimit:10;}
	.st10{fill:#8E8E8E;}
	.st11{fill:#505050;}
	.st12{fill:none;stroke:#8E8E8E;stroke-width:2;stroke-miterlimit:10;}
	.st13{fill:#8C8C8C;stroke:#8C8C8C;stroke-width:2;stroke-miterlimit:10;}
	.st14{fill:#8C8C8C;stroke:#FFFFFF;stroke-width:2;stroke-miterlimit:10;}
	.st15{fill:none;stroke:#FFFFFF;stroke-width:2;stroke-miterlimit:10;}
	.st16{fill:none;stroke:#8C8C8C;stroke-miterlimit:10;}
	.st17{fill:none;stroke:#8C8C8C;stroke-width:13;stroke-miterlimit:10;}
	.st18{fill:#EAEAEA;stroke:#8C8C8C;stroke-width:8;stroke-miterlimit:10;}
	.st19{fill:none;stroke:#8C8C8C;stroke-width:4;stroke-miterlimit:10;}
	.st20{fill:#8C8C8C;stroke:#8C8C8C;stroke-width:0.75;stroke-miterlimit:10;}
	.st21{fill:none;stroke:#8C8C8C;stroke-width:9;stroke-miterlimit:10;}
	.st22{fill:#8C8C8C;stroke:#8C8C8C;stroke-width:0.5;stroke-miterlimit:10;}
	.st23{fill:#6B6B6B;}
	.st24{fill:none;}
	.st25{stroke:#8C8C8C;stroke-width:8;stroke-miterlimit:10;}
	.st26{fill:#8C8C8C;stroke:#8C8C8C;stroke-miterlimit:10;}
	.st27{fill:none;stroke:#8C8C8C;stroke-width:11;stroke-miterlimit:10;}
	.st28{fill:none;stroke:#8C8C8C;stroke-width:6;stroke-miterlimit:10;}
	.st29{stroke:#8C8C8C;stroke-width:6;stroke-miterlimit:10;}
	.st30{fill:#8C8C8C;stroke:#8C8C8C;stroke-width:4;stroke-miterlimit:10;}
	.st31{fill:#8C8C8C;stroke:#8C8C8C;stroke-width:1.05;stroke-miterlimit:10;}
	.st32{fill:#D6D6D6;}
	.st33{fill:none;stroke:#EAEAEA;stroke-width:5;stroke-miterlimit:10;}
	.st34{fill:#8C8C8C;stroke:#8C8C8C;stroke-width:10;stroke-miterlimit:10;}
	.st35{fill:none;stroke:#CECECE;stroke-width:2;stroke-miterlimit:10;}
	.st36{fill:none;stroke:#FFFFFF;stroke-width:4;stroke-miterlimit:10;}
	.st37{font-family:'HelveticaNeue-CondensedBold';}
	.st38{font-size:54px;}
	.st39{fill-rule:evenodd;clip-rule:evenodd;fill:#8C8C8C;}
	.st40{fill:#8C8C8C;stroke:#8C8C8C;stroke-width:8;stroke-miterlimit:10;}
	.st41{fill:#8C8C8C;stroke:#8C8C8C;stroke-width:7;stroke-miterlimit:10;}
	.st42{fill:#DBDBDB;stroke:#8C8C8C;stroke-width:7;stroke-miterlimit:10;}
	.st43{fill:none;stroke:#8C8C8C;stroke-width:5;stroke-miterlimit:10;}
	.st44{fill:none;stroke:#8C8C8C;stroke-width:3;stroke-miterlimit:10;}
	.st45{clip-path:url(#SVGID_2_);fill:#8C8C8C;}
	.st46{clip-path:url(#SVGID_2_);fill:none;stroke:#8C8C8C;stroke-width:8;stroke-miterlimit:10;}
	.st47{clip-path:url(#SVGID_2_);fill:#FFFFFF;}
	.st48{clip-path:url(#SVGID_2_);fill:#EAEAEA;}
	.st49{clip-path:url(#SVGID_2_);fill:none;stroke:#8C8C8C;stroke-miterlimit:10;}
	.st50{fill:none;stroke:#FFFFFF;stroke-width:0.75;stroke-miterlimit:10;}
	.st51{fill:none;stroke:#8C8C8C;stroke-width:14;stroke-miterlimit:10;}
	.st52{fill:none;stroke:#EAEAEA;stroke-width:2;stroke-miterlimit:10;}
	.st53{fill:none;stroke:#8C8C8C;stroke-width:2;stroke-miterlimit:10;}
</style>
    <rect class="st0" height="500" width="500" x="2"/>
    <g>
	<path class="st1" d="M356.4,164.1c-8.7,0-16.2,5.4-19.2,13.1h-9.9c-0.8-3-2.3-5.8-4.5-8.2l-50.3-56.1c0.9-2.7,1.3-5.6,1.3-8.6V80.1
		c0-4.1-3.4-7.5-7.5-7.5h-81.6c-4.1,0-7.5,3.4-7.5,7.5v24.2c0,3,0.5,5.9,1.3,8.6L128.2,169c-7.2,8-6.8,20,0.2,27.4l54.2,60.5
		l-11.1,17.2h-7.1c-12.5,0-22.6,10.1-22.6,22.6v15.7c0,4.1,3.4,7.5,7.5,7.5h152.2c4.2,0,7.5-3.4,7.5-7.5v-15.7
		c0-12.5-10.1-22.6-22.6-22.6h-7.1L268.3,257l54.5-60.8c1.1-1.2,2-2.6,2.8-4h11.6c3,7.7,10.5,13.1,19.2,13.1
		c11.4,0,20.6-9.3,20.6-20.6S367.7,164.1,356.4,164.1z M298.5,164.4c-4,2-5.8,4.3-8.2,7l-35.8-40c3.6-1.3,6.5-2.9,9.5-5.5
		L298.5,164.4z M237.8,230h-24.7l-33.8-37.7h92.3L237.8,230z M242.7,245c17.9,27.8,14.2,22,18.8,29.2h-72
		c11.9-18.4,6.9-10.7,18.8-29.2C212.3,245,238.7,245,242.7,245z M175.6,177.2l39.6-44.2h20.5l39.6,44.2H175.6z M192.2,87.6h66.6
		v16.7c0,7.7-6.3,13.6-13.6,13.6c-6.1,0-6.2,0-39.3,0c-7.5,0-13.6-6.1-13.6-13.6L192.2,87.6L192.2,87.6z M139.8,186.6
		c-2.2-1.9-2.4-5.3-0.4-7.6c0,0,10.9-12.2,47.6-53.1c3,2.6,6.1,4.2,9.5,5.5c-0.1,0.1-49,54.7-49.1,54.8
		C145.4,188.5,142,188.6,139.8,186.6z M152.5,200.9c3.9-2,5.8-4.3,8.1-7l36.5,40.8c-0.8,1-0.7,0.8-6.1,9.2L152.5,200.9z
		 M286.5,289.2c4.2,0,7.6,3.4,7.6,7.6v8.2H156.9v-8.2c0-4.2,3.4-7.6,7.6-7.6C172.8,289.2,283,289.2,286.5,289.2z M311.6,186.2
		c-16.2,18.1-2.4,2.7-51.7,57.7c-5.1-7.9-5.3-8.3-6.1-9.2c0,0,49.8-55.6,49.8-55.6c2-2.3,5.4-2.4,7.6-0.4
		C313.3,180.6,313.6,184,311.6,186.2z M356.4,190.3c-3.1,0-5.6-2.5-5.6-5.6c0-3.1,2.5-5.6,5.6-5.6c3.1,0,5.6,2.5,5.6,5.6
		C362,187.8,359.5,190.3,356.4,190.3z"/>
        <path class="st1" d="M225.5,269.3c4.1,0,7.5-3.4,7.5-7.5v-4.4c0-4.1-3.4-7.5-7.5-7.5c-4.2,0-7.5,3.4-7.5,7.5v4.4
		C218,265.9,221.3,269.3,225.5,269.3z"/>
        <path class="st1" d="M225.5,112.6c4.1,0,7.5-3.4,7.5-7.5v-4.5c0-4.1-3.4-7.5-7.5-7.5c-4.2,0-7.5,3.4-7.5,7.5v4.5
		C218,109.2,221.3,112.6,225.5,112.6z"/>
</g>
    <g>
	<rect class="st24" height="144" width="500" x="-6" y="366"/>
        <text class="st23 st37 st38" transform="matrix(1 0 0 1 174.5298 404.5557)">Crique</text>
</g>
</svg>
