<svg id="Calque_1" data-name="Calque 1" xmlns="http://www.w3.org/2000/svg" viewBox="0 0 350 300"><defs><style>.cls-1{fill:#fff;}</style></defs><title>selected</title><path class="cls-1" d="M183,239.62a9.37,9.37,0,0,1-9.35-9.42l.24-70.31-70.32-.25a9.39,9.39,0,0,1,0-18.77l70.34.25.25-70.32a9.39,9.39,0,0,1,18.77.07l-.24,70.31,70.31.24a9.39,9.39,0,0,1,0,18.78L192.62,160l-.24,70.32a9.41,9.41,0,0,1-9.39,9.35Z"/><path d="M183.54,59.45l0,4a7.3,7.3,0,0,1,5.21,2.18,7.38,7.38,0,0,1,2.15,5.23l-.24,68.31v4l4,0,68.31.23a7.39,7.39,0,1,1-.05,14.77L194.63,158h-4l0,4-.23,68.31a7.39,7.39,0,0,1-12.63,5.18,7.33,7.33,0,0,1-2.14-5.23l.23-68.32,0-4h-4l-68.32-.24a7.39,7.39,0,0,1-7.36-7.41,7.4,7.4,0,0,1,7.41-7.36l68.32.24h4v-4l.24-68.31a7.39,7.39,0,0,1,7.38-7.36v-4m0,0a11.38,11.38,0,0,0-11.38,11.34l-.24,68.32-68.31-.24h0a11.39,11.39,0,0,0,0,22.77l68.31.24-.23,68.32A11.39,11.39,0,0,0,183,241.62h0a11.39,11.39,0,0,0,11.39-11.35l.23-68.31,68.32.23h0a11.39,11.39,0,0,0,0-22.77l-68.32-.23.24-68.32a11.38,11.38,0,0,0-11.35-11.42Z"/></svg>