<?xml version="1.0" encoding="utf-8"?>
<!-- Generator: Adobe Illustrator 22.1.0, SVG Export Plug-In . SVG Version: 6.00 Build 0)  -->
<svg style="enable-background:new 0 0 500 500;" id="Calque_1" version="1.1" viewBox="0 0 500 500" x="0px"
     xmlns="http://www.w3.org/2000/svg" y="0px" xml:space="preserve">
<style type="text/css">
	.st0{fill:#4FBDD7;}
	.st1{fill:#EAEAEA;}
	.st2{fill:#FFFFFF;}
	.st3{fill:#4FBDD7;stroke:#FFFFFF;stroke-width:5;stroke-miterlimit:10;}
	.st4{fill:#8C8C8C;}
	.st5{fill:#070707;}
	.st6{fill:none;stroke:#FFFFFF;stroke-width:7;stroke-miterlimit:10;}
	.st7{fill:none;stroke:#FFFFFF;stroke-width:10;stroke-miterlimit:10;}
	.st8{fill:#FFFFFF;stroke:#FFFFFF;stroke-width:3;stroke-miterlimit:10;}
	.st9{fill:none;stroke:#FDFFFF;stroke-width:6;stroke-miterlimit:10;}
	.st10{fill:#FAFEFF;}
	.st11{fill:none;stroke:#FFFFFF;stroke-width:2;stroke-miterlimit:10;}
	.st12{fill:#FFFFFF;stroke:#FFFFFF;stroke-width:2;stroke-miterlimit:10;}
	.st13{fill:#4FBDD7;stroke:#FFFFFF;stroke-width:4;stroke-miterlimit:10;}
	.st14{fill:#FFFFFF;stroke:#FFFFFF;stroke-width:4;stroke-miterlimit:10;}
	.st15{fill:none;stroke:#FFFFFF;stroke-miterlimit:10;}
	.st16{fill:#FFFFFF;stroke:#FFFFFF;stroke-width:13;stroke-miterlimit:10;}
	.st17{fill:#4FBDD7;stroke:#FFFFFF;stroke-width:8;stroke-miterlimit:10;}
	.st18{fill:#FFFFFF;stroke:#FFFFFF;stroke-width:0.75;stroke-miterlimit:10;}
	.st19{fill:#FFFFFF;stroke:#FFFFFF;stroke-width:0.5;stroke-miterlimit:10;}
	.st20{fill:#FFFFFF;stroke:#FFFFFF;stroke-width:8;stroke-miterlimit:10;}
	.st21{fill:#FFFFFF;stroke:#FFFFFF;stroke-miterlimit:10;}
	.st22{fill:#FFFFFF;stroke:#FFFFFF;stroke-width:11;stroke-miterlimit:10;}
	.st23{fill:#FFFFFF;stroke:#FFFFFF;stroke-width:6;stroke-miterlimit:10;}
	.st24{fill:#8C8C8C;stroke:#8C8C8C;stroke-width:4;stroke-miterlimit:10;}
	.st25{fill:#FFFFFF;stroke:#FFFFFF;stroke-width:1.05;stroke-miterlimit:10;}
	.st26{fill:none;stroke:#4FBDD7;stroke-width:5;stroke-miterlimit:10;}
	.st27{fill:none;stroke:#FFFFFF;stroke-width:4;stroke-miterlimit:10;}
	.st28{fill:#8C8C8C;stroke:#FFFFFF;stroke-width:4;stroke-miterlimit:10;}
	.st29{fill:#FFFFFF;stroke:#FFFFFF;stroke-width:10;stroke-miterlimit:10;}
	.st30{fill:none;stroke:#4FBDD7;stroke-width:2;stroke-miterlimit:10;}
	.st31{fill-rule:evenodd;clip-rule:evenodd;fill:#FFFFFF;}
	.st32{fill:#FFFFFF;stroke:#FFFFFF;stroke-width:7;stroke-miterlimit:10;}
	.st33{fill:#FFFFFF;stroke:#4FBDD7;stroke-width:7;stroke-miterlimit:10;}
	.st34{fill:none;}
	.st35{font-family:'HelveticaNeue-CondensedBold';}
	.st36{font-size:54px;}
	.st37{fill:#FCFCFC;}
	.st38{fill:#FFFFFF;stroke:#FFFFFF;stroke-width:5;stroke-miterlimit:10;}
	.st39{fill:none;stroke:#FFFFFF;stroke-width:3;stroke-miterlimit:10;}
	.st40{fill:none;stroke:#FFFFFF;stroke-width:8;stroke-miterlimit:10;}
	.st41{fill:none;stroke:#FFFFFF;stroke-width:6;stroke-miterlimit:10;}
	.st42{fill:#FFFFFF;stroke:#4FBDD7;stroke-width:3;stroke-miterlimit:10;}
	.st43{fill:none;stroke:#FFFFFF;stroke-width:0.75;stroke-miterlimit:10;}
	.st44{fill:#4FBDD7;stroke:#FFFFFF;stroke-width:9;stroke-miterlimit:10;}
	.st45{fill:none;stroke:#FFFFFF;stroke-width:9;stroke-miterlimit:10;}
	.st46{fill:none;stroke:#4FBDD7;stroke-width:3;stroke-miterlimit:10;}
</style>
    <rect class="st0" height="500" width="500"/>
    <g>
	<rect class="st34" height="144" width="500" x="-2" y="361"/>
        <text transform="matrix(1 0 0 1 119.0488 399.5557)"><tspan class="st2 st35 st36" x="0" y="0">Déboucheur </tspan>
            <tspan class="st2 st35 st36" x="-1.9" y="64.8">canalisation</tspan></text>
</g>
    <g id="qNYfAj_1_">
	<g>
		<path class="st2" d="M386.1,93.9c-2.5-1.9-4.9-4.1-7.7-5.2c-6.9-2.7-14-5.4-21.2-7.2c-5.7-1.5-11.7-2-17.5-2.3
			c-1.7-0.1-3.9,1.7-5.3,3.1c-1.4,1.4-2.1,3.6-3,5.4c-0.1,0.1-0.2,0.3-0.2,0.4c-2.3,4.5-1.5,15.5-2.8,15.8c-0.6,0.1-1.5-1.8-1.8-2.4
			c-1.6-3.3-4-7.8-7.4-13.4c-3-2.8-7.1-6-12.3-8.9c-8.8-4.9-17.1-6.8-22.7-7.6h-5.9c-3.7,0.9-7.2,2.5-6.3,7.1
			c0.8,4,1.9,8.2,3.9,11.7c5.5,9.6,12,18.7,17.3,28.4c2.2,4.1,4,7.8,8.6,9.3c0,0-0.1,0.3-0.1,0.6c-1.5-0.5-2.9-1.1-4.3-1.5
			c-2.7-0.7-6,1-6.6,3c-0.4,1.3-0.9,2.8-1.9,3.8c-9.4,9.4-18.9,18.7-28.4,28c-22.4,22.1-44.5,44.4-67.2,66.1
			c-11.1,10.7-19.4,22.7-22.3,37.9c-0.3,1.6-0.8,2.4-2.7,2.7c-3.3,0.5-5.5,2.5-6,6.1c-0.6,5-1.2,10-2,15c-0.7,4.5,1.1,7.6,5,9.3
			c5.9,2.4,11.8,4.7,17.8,6.6c3.4,1.1,7.1,1.5,10.6,2.2h7.9c0.7-0.3,1.4-0.7,2.1-0.8c3.8-0.5,6.2-2.4,7.2-6.1
			c1.4-5,3.1-9.8,4.6-14.8c1-3.2,0.3-5.9-2.3-8c-1.5-1.2-1.5-2.3-1.2-4c0.7-3,1.7-5.7,3.2-8.3c2-3.3,4.2-5.4,4.2-5.4
			c10.5-10.4,23.8-31,72.3-75.5c6.4-5.9,15.5-14.1,26.8-23.9c1.2-0.4,2.9-0.4,3.8-1.4c7-7.2,13.9-14.6,20.8-22
			c0.5-0.5,0.7-1.5,0.8-2.3c0.1-3.1,1.1-5.6,4-7.3c3-1.7,5.7-3.7,8.6-5.4c7.9-4.7,15.9-9.4,23.8-14.1c3.5-2.1,5.9-5.1,6.4-9.5
			C386.7,97.4,386.4,95.7,386.1,93.9z M173.7,284.8c-0.4,2.1-0.3,5.1-3.4,5.2c-2.9,0.1-2.3-2.5-3.2-4.9c1-1.3,1.9-3.4,3.1-3.5
			C171.7,281.4,174.2,282.2,173.7,284.8z M182.6,266.6c-1.1,2.9-2.1,6-3.4,8.9c-0.3,0.8-1.7,2.1-1.9,2c-1.1-0.6-3-1.8-2.9-2.5
			c0.8-4.5,1.5-9,3.1-13.2c1.2-3.2,1.8-3,7.8-2C184.4,262.3,183.4,264.4,182.6,266.6z M192.7,238.5c-1.8-4,1.9-4.4,3.6-6.1
			c5.1-5.2,10.2-10.4,15.3-15.5c26.2-26,52.4-52.1,78.7-78.1c0.5-0.5,1-0.9,1.4-1.3c1,0.9,1.9,1.8,2.8,2.6
			C282.9,153.9,196,238,192.7,238.5z M316.8,105c-0.1,0.4-0.2,0.7-1.5,5c-0.5,1.7-1,3.3-1.5,5c-0.3,1.9-0.9,3.7-1.6,5.6
			c-0.2,0.4-0.5,0.8-0.9,1.1c-1.2,0.9-3.1,0.8-4.4,0c-0.4-0.2-1-0.6-1.5-1.4c-0.8-1.5-1.7-2.9-2.5-4.4c-1.6-3.5-3.8-7.6-7.2-11.9
			c-2.7-3.5-2.3-2.4-5.4-6.6c-0.5-0.7-4-5.5-6.6-12.5c-1.1-3.1-1.3-4.4-0.6-5.4c1.3-1.9,4.9-1.3,5.4-1.2c1.9,0.8,18.3,7.7,24.8,16.9
			C315,97.5,317.5,101.1,316.8,105z M370.7,98.4c-8.1,3-16.2,6-24.3,9.1c-3.8,1.4-7.5,3-11.3,4.3c-0.8,0.3-2.1-0.2-2.8-0.7
			c-0.4-0.3,0-1.7,0.2-2.5c1.2-4.1,2.4-8.2,3.7-12.3c1.1-3.5,3.6-5.7,7.2-5.7c9.6,0.2,18.2,4,27.2,6.5
			C370.8,97.6,370.8,98,370.7,98.4z M302,137"/>
        <path class="st2" d="M192.7,238.5c-1.8-4,1.9-4.4,3.6-6.1c5.1-5.2,10.2-10.4,15.3-15.5c26.2-26,52.4-52.1,78.7-78.1
			c0.5-0.5,1-0.9,1.4-1.3c1,0.9,1.9,1.8,2.8,2.6C282.9,153.9,196,238,192.7,238.5z"/>
        <path class="st2" d="M185.4,259.8c-1.1,2.5-2,4.6-2.9,6.8c-1.1,2.9-2.1,6-3.4,8.9c-0.3,0.8-1.7,2.1-1.9,2c-1.1-0.6-3-1.8-2.9-2.5
			c0.8-4.5,1.5-9,3.1-13.2C178.9,258.6,179.4,258.8,185.4,259.8z"/>
        <path class="st2" d="M167.2,285.2c1-1.3,1.9-3.4,3.1-3.5c1.5-0.2,4,0.6,3.5,3.2c-0.4,2.1-0.3,5.1-3.4,5.2
			C167.4,290.2,168.1,287.5,167.2,285.2z"/>
	</g>
</g>
</svg>
