<svg id="Calque_1" data-name="Calque 1" xmlns="http://www.w3.org/2000/svg" viewBox="0 0 350 300"><defs><style>.cls-1{fill:none;stroke:#000;stroke-miterlimit:10;stroke-width:5px;}</style></defs><title>selected</title><g id="qNYfAj"><path class="cls-1" d="M305.09,32.9c-2.46-1.93-4.9-4.07-7.74-5.18a185.9,185.9,0,0,0-21.17-7.22,88.12,88.12,0,0,0-17.54-2.25c-1.73-.09-3.9,1.67-5.28,3.13s-2.08,3.56-3,5.44c-.07.14-.18.33-.21.39-2.33,4.54-1.47,15.5-2.83,15.82-.6.14-1.51-1.76-1.82-2.4-1.6-3.28-4-7.8-7.42-13.44a63.88,63.88,0,0,0-12.27-8.93,64.68,64.68,0,0,0-22.72-7.57h-5.94c-3.72.94-7.19,2.52-6.32,7.08a37.79,37.79,0,0,0,3.93,11.69c5.54,9.6,12,18.67,17.3,28.4,2.21,4.09,4,7.84,8.63,9.35a5.83,5.83,0,0,1-.11.62c-1.45-.51-2.86-1.13-4.33-1.49-2.7-.65-6,1-6.65,3a9.17,9.17,0,0,1-1.86,3.76c-9.41,9.39-18.93,18.67-28.39,28-22.38,22.07-44.52,44.39-67.21,66.13C101,177.92,92.83,189.89,89.89,205.17a2.75,2.75,0,0,1-2.65,2.66,6.6,6.6,0,0,0-6,6.1c-.63,5-1.2,10-2,15-.74,4.5,1.06,7.63,5,9.27,5.85,2.44,11.81,4.68,17.84,6.63,3.4,1.1,7,1.46,10.59,2.16h7.92a8.73,8.73,0,0,1,2.12-.81A7.81,7.81,0,0,0,130,240c1.4-5,3.06-9.85,4.64-14.75,1-3.19.34-5.95-2.27-8-1.5-1.17-1.52-2.32-1.15-4a28.07,28.07,0,0,1,3.21-8.26,26.06,26.06,0,0,1,4.25-5.42c10.45-10.44,23.83-31,72.26-75.54,6.37-5.86,15.52-14.14,26.84-23.87,1.16-.39,2.91-.45,3.8-1.36,7-7.24,13.93-14.63,20.81-22a3.87,3.87,0,0,0,.75-2.34c.09-3.15,1.07-5.64,4-7.29s5.72-3.7,8.64-5.44c7.93-4.74,15.93-9.36,23.84-14.12A12.34,12.34,0,0,0,306,38.2C305.7,36.43,305.39,34.66,305.09,32.9ZM92.74,223.8c-.39,2.13-.31,5.08-3.36,5.23s-2.3-2.53-3.23-4.88c1-1.25,1.93-3.39,3.09-3.54C90.7,220.43,93.23,221.18,92.74,223.8Zm8.84-18.18c-1.15,2.94-2.14,5.95-3.36,8.86-.35.83-1.66,2.12-1.87,2-1.12-.62-3-1.78-2.86-2.47a68.59,68.59,0,0,1,3.14-13.2c1.22-3.2,1.77-3,7.81-2C103.39,201.31,102.43,203.45,101.58,205.62Zm10.15-28.1c-1.78-4,1.93-4.44,3.61-6.14,5.09-5.17,10.16-10.36,15.31-15.48q39.3-39,78.65-78.07c.47-.46,1-.88,1.45-1.31l2.78,2.63C201.89,92.93,115,177,111.73,177.52ZM235.8,44c-.08.44-.19.74-1.45,5q-.73,2.47-1.49,4.95a30.27,30.27,0,0,1-1.61,5.59,2.67,2.67,0,0,1-.92,1.13,4.24,4.24,0,0,1-4.41,0,4.47,4.47,0,0,1-1.5-1.4c-.83-1.45-1.67-2.9-2.5-4.36a60.72,60.72,0,0,0-7.16-11.93c-2.72-3.53-2.34-2.43-5.37-6.57a53.2,53.2,0,0,1-6.57-12.53c-1.14-3.1-1.28-4.41-.6-5.38,1.32-1.86,4.88-1.28,5.37-1.19,1.93.8,18.31,7.69,24.76,16.88C234,36.46,236.51,40.07,235.8,44Zm53.95-6.51c-8.09,3-16.19,6-24.27,9.07-3.76,1.42-7.45,3-11.25,4.32a3.32,3.32,0,0,1-2.76-.73c-.38-.35,0-1.68.23-2.5q1.78-6.15,3.7-12.26c1.08-3.46,3.65-5.75,7.21-5.69,9.56.17,18.22,4,27.22,6.48ZM221,76"/><path d="M210.75,76.52c-.48.43-1,.85-1.45,1.31q-39.33,39-78.65,78.07c-5.15,5.12-10.22,10.31-15.31,15.48-1.68,1.7-5.39,2.14-3.61,6.14,3.29-.51,90.16-84.59,101.8-98.37l-2.78-2.63Z"/><path d="M99.56,198.16c-1.68,0-2.18.68-2.93,2.65A68.59,68.59,0,0,0,93.49,214c-.12.69,1.74,1.85,2.86,2.47h0a4.86,4.86,0,0,0,1.83-2c1.22-2.91,2.21-5.92,3.36-8.86.85-2.17,1.81-4.31,2.86-6.81a37.16,37.16,0,0,0-4.88-.65Z"/><path d="M89.67,220.59l-.43,0c-1.16.15-2.07,2.29-3.08,3.54.9,2.29.32,4.89,3,4.89h.22c3.05-.15,3-3.1,3.36-5.23.44-2.37-1.59-3.21-3.07-3.21Z"/></g></svg>