<?xml version="1.0" encoding="utf-8"?>
<!-- Generator: Adobe Illustrator 22.1.0, SVG Export Plug-In . SVG Version: 6.00 Build 0)  -->
<svg style="enable-background:new 0 0 500 500;" id="Calque_1" version="1.1" viewBox="0 0 500 500" x="0px"
     xmlns="http://www.w3.org/2000/svg" y="0px" xml:space="preserve">
<style type="text/css">
	.st0{fill:#EAEAEA;}
	.st1{fill:#8C8C8C;}
	.st2{fill:#FFFFFF;}
	.st3{fill:#EAEAEA;stroke:#8C8C8C;stroke-width:7;stroke-miterlimit:10;}
	.st4{fill:#070707;}
	.st5{fill:none;stroke:#8C8C8C;stroke-width:7;stroke-miterlimit:10;}
	.st6{fill:none;stroke:#8C8C8C;stroke-width:10;stroke-miterlimit:10;}
	.st7{fill:#8C8C8C;stroke:#8C8C8C;stroke-width:3;stroke-miterlimit:10;}
	.st8{fill:none;stroke:#8C8C8C;stroke-width:8;stroke-miterlimit:10;}
	.st9{fill:none;stroke:#8E8E8E;stroke-width:6;stroke-miterlimit:10;}
	.st10{fill:#8E8E8E;}
	.st11{fill:#505050;}
	.st12{fill:none;stroke:#8E8E8E;stroke-width:2;stroke-miterlimit:10;}
	.st13{fill:#8C8C8C;stroke:#8C8C8C;stroke-width:2;stroke-miterlimit:10;}
	.st14{fill:#8C8C8C;stroke:#FFFFFF;stroke-width:2;stroke-miterlimit:10;}
	.st15{fill:none;stroke:#FFFFFF;stroke-width:2;stroke-miterlimit:10;}
	.st16{fill:none;stroke:#8C8C8C;stroke-miterlimit:10;}
	.st17{fill:none;stroke:#8C8C8C;stroke-width:13;stroke-miterlimit:10;}
	.st18{fill:#EAEAEA;stroke:#8C8C8C;stroke-width:8;stroke-miterlimit:10;}
	.st19{fill:none;stroke:#8C8C8C;stroke-width:4;stroke-miterlimit:10;}
	.st20{fill:#8C8C8C;stroke:#8C8C8C;stroke-width:0.75;stroke-miterlimit:10;}
	.st21{fill:none;stroke:#8C8C8C;stroke-width:9;stroke-miterlimit:10;}
	.st22{fill:#8C8C8C;stroke:#8C8C8C;stroke-width:0.5;stroke-miterlimit:10;}
	.st23{fill:#6B6B6B;}
	.st24{fill:none;}
	.st25{stroke:#8C8C8C;stroke-width:8;stroke-miterlimit:10;}
	.st26{fill:#8C8C8C;stroke:#8C8C8C;stroke-miterlimit:10;}
	.st27{fill:none;stroke:#8C8C8C;stroke-width:11;stroke-miterlimit:10;}
	.st28{fill:none;stroke:#8C8C8C;stroke-width:6;stroke-miterlimit:10;}
	.st29{stroke:#8C8C8C;stroke-width:6;stroke-miterlimit:10;}
	.st30{fill:#8C8C8C;stroke:#8C8C8C;stroke-width:4;stroke-miterlimit:10;}
	.st31{fill:#8C8C8C;stroke:#8C8C8C;stroke-width:1.05;stroke-miterlimit:10;}
	.st32{fill:#D6D6D6;}
	.st33{fill:none;stroke:#EAEAEA;stroke-width:5;stroke-miterlimit:10;}
	.st34{fill:#8C8C8C;stroke:#8C8C8C;stroke-width:10;stroke-miterlimit:10;}
	.st35{fill:none;stroke:#CECECE;stroke-width:2;stroke-miterlimit:10;}
	.st36{fill:none;stroke:#FFFFFF;stroke-width:4;stroke-miterlimit:10;}
	.st37{fill-rule:evenodd;clip-rule:evenodd;fill:#8C8C8C;}
	.st38{fill:#8C8C8C;stroke:#8C8C8C;stroke-width:8;stroke-miterlimit:10;}
	.st39{fill:#8C8C8C;stroke:#8C8C8C;stroke-width:7;stroke-miterlimit:10;}
	.st40{fill:#DBDBDB;stroke:#8C8C8C;stroke-width:7;stroke-miterlimit:10;}
	.st41{font-family:'HelveticaNeue-CondensedBold';}
	.st42{font-size:54px;}
	.st43{fill:none;stroke:#8C8C8C;stroke-width:5;stroke-miterlimit:10;}
	.st44{fill:none;stroke:#8C8C8C;stroke-width:3;stroke-miterlimit:10;}
	.st45{clip-path:url(#SVGID_2_);fill:#8C8C8C;}
	.st46{clip-path:url(#SVGID_2_);fill:none;stroke:#8C8C8C;stroke-width:8;stroke-miterlimit:10;}
	.st47{clip-path:url(#SVGID_2_);fill:#FFFFFF;}
	.st48{clip-path:url(#SVGID_2_);fill:#EAEAEA;}
	.st49{clip-path:url(#SVGID_2_);fill:none;stroke:#8C8C8C;stroke-miterlimit:10;}
	.st50{fill:none;stroke:#FFFFFF;stroke-width:0.75;stroke-miterlimit:10;}
	.st51{fill:none;stroke:#8C8C8C;stroke-width:14;stroke-miterlimit:10;}
	.st52{fill:none;stroke:#EAEAEA;stroke-width:2;stroke-miterlimit:10;}
	.st53{fill:none;stroke:#8C8C8C;stroke-width:2;stroke-miterlimit:10;}
</style>
    <rect class="st0" height="500" width="500" y="-1"/>
    <g>
	<rect class="st24" height="144" width="500" x="1" y="362"/>
        <text class="st23 st41 st42" transform="matrix(1 0 0 1 149.022 400.5557)">Décapeur</text>
</g>
    <g id="_x38_5mCRQ_1_">
	<g>
		<path class="st1" d="M328.3,110.7c-0.5-0.7-1.3-1.5-2.9-3.1c-2.9-2.9-6-5.7-9-8.5c-0.8-0.8-1.6-1.6-2.4-2.4c-4-4.7-8.3-9-14.9-9.7
			h-10.9c-7.7,1-15.2,4.3-23.3,2.3c-1.7-0.4-3.7-0.1-5.4,0.3c-21.2,5.8-42.4,11.6-63.6,17.6c-1.8,0.5-3.3,2.2-5,3.4
			c-1.7,1.2-3.1,2.9-4.9,3.5c-11.5,3.6-23,6.9-34.5,10.5c-1.7,0.5-3.2,1.7-4.8,2.6c0,0,0,0,0-0.1c0,0-0.1,0.1-0.1,0.1c0,0,0,0,0,0
			c0,0,0,0,0,0c-2,2.4-4,4.9-6,7.2c-0.8,1-1.7,2.4-2.7,2.6c-7.5,1.3-14.2,4.7-20.2,8.4c1.1,0.6,2.6,1.3,4.3,2.1
			c-0.4-0.9-0.8-1.6-1-2.2c6.1-3,11.7-3.2,16,3.3c0.2-0.3,0.5-0.7,0.7-1c-1.9-2.7-3.7-5.3-5.6-8c3.1-0.6,6.7-0.8,9.9-1.8
			c6-2,10.9-0.4,15.6,3.4c2.5,2,2.9,4.8,3.9,8.3c1.8,6.8,0.9,11.7,0.1,15.8c-0.3,1.8-0.9,3.8-2.6,5.2c-0.7,0.6-1.5,1-2.6,1.3
			c-3.1,0.8-5.3,1.6-6.6,1.9c-1.7,0.4-4.1,1-7,2c-0.5,0.2-2.2,0.7-4.1-0.1c-0.9-0.4-1.5-1-1.9-1.4c-4.2,1.2-8.5,2.3-12.7,3.5
			c2.4,0.4,4.3,0.5,5.6,0.5c5.5,0.1,9.2-0.3,17-1.9c1.1-0.2,2.5-0.5,3.3,0c3.5,2.1,7,2.9,11,1c0,0.4,0.1,0.8,0.1,1.3
			c23.3-1.4,39.9-2.5,42.4-3.1c0.3-0.1,1.8-0.4,2.9,0.3c0.6,0.4,1,1.1,1.3,2.2c1.6,5.8,3.3,11.6,5,17.3c5.7,20.1,11.3,40.2,17,60.3
			c2,6.9,6.4,12,12.2,16.3c9.2,6.7,19.5,8.1,30.4,7.5c4.2-0.2,8.4-1.1,12.5-1.7c1.6,11.8,3.4,23.2,4.8,34.7c0.8,6.2,1,12.5,1.4,18.7
			h6.8c0-1.7,0.1-3.4,0.1-5c-0.3-14.3-0.6-28.6-0.9-43c0-0.2,0-0.5,0-0.7c-1.5-6,0-10.1,5.6-13.7c6.1-4.1,7.9-11.9,4.5-18.6
			c-3.2-6.3-3.4-12.9-4.4-19.4c-1.5-9.8-2.7-19.6-4.5-29.3c-1.4-7.9-3.2-15.7-5.5-23.3c-2.5-8,2.1-19.3,11.5-21.1
			c4-0.8,7.8-2.4,11.6-3.9c2.2-0.9,4.4-2,6-3.7c2-2,3.9-3.6,6.8-4.1c0.9-0.2,2.1-1.7,2.3-2.8c0.2-1,2.8-4.5,2.3-14.1
			C332.8,122.1,332.5,115.9,328.3,110.7z M146.4,128.2c0.1-0.3,0.2-0.7,0.3-1c2.6-0.4,5.4-1.6,8,1H146.4z M169.3,165.4v-10.7l0.5,0
			c0.2,3.6,0.3,7.1,0.5,10.7C170,165.4,169.7,165.4,169.3,165.4z M259.1,151.6c0.3-0.9,0.6-1.8,0.9-2.7c1.2,3.6,1.1,3.2-2.2,3.7
			c-2.9,0.4-5.6,1.9-8.6,2.9C249.4,150.6,252.1,149.7,259.1,151.6z M242.8,153.5c1.6,0,3.3-1.2,4.9-1.9c0.1,0.3,0.2,0.6,0.3,0.8
			c-0.7,0.5-1.4,1-2.1,1.5c0.1,0.1,0.1,0.2,0.2,0.4c0.4-0.2,0.9-0.5,1.7-0.9c-0.2,3.8-2.9,2.5-4.5,2.9c-1.6,0.4-3.3,0.5-4.9,0.7
			C238.6,153.3,238.6,153.6,242.8,153.5z M270.1,256.2c-0.8,1.6-2.7,2.9-4.3,3.7c-2,1-4.4,1.3-6.4,2.2c-4.1,1.9-5.3,1.7-6.5-2.5
			c-4.9-16.6-9.7-33.3-14.4-50c-1.9-6.9-3.5-13.8-5-20.8c-1.6-7.5,1.7-12.6,9.3-14.2c3.4-0.7,6.9-1.2,11.1-1.9
			c1.3,7.1,2.5,13.8,3.8,20.4c2.6,13.7,5.2,27.4,7.7,41.2c0.9,4.9,1.7,9.8,2.6,14.6c0.1,0.7,0.5,1.7,1,2
			C271.6,252.2,270.9,254.6,270.1,256.2z M298.4,216.3c-0.4,0.1-0.9,0.2-1.3,0.3c-2.5-13.8-5-27.7-7.5-41.5c0.3-0.1,0.5-0.1,0.8-0.2
			C293.1,188.6,295.8,202.4,298.4,216.3z M307.4,135.6c0.3-3.1,2.4-4.1,6.8-2.8C311.9,133.6,309.7,134.6,307.4,135.6z"/>
        <path class="st0" d="M253.8,172.7c1.3,7.1,2.5,13.8,3.8,20.4c2.6,13.7,5.2,27.4,7.7,41.2c0.9,4.9,1.7,9.8,2.6,14.6
			c0.1,0.7,0.5,1.7,1,2c2.7,1.3,2.1,3.7,1.3,5.3c-0.8,1.6-2.7,2.9-4.3,3.7c-2,1-4.4,1.3-6.4,2.2c-4.1,1.9-5.3,1.7-6.5-2.5
			c-4.9-16.6-9.7-33.3-14.4-50c-1.9-6.9-3.5-13.8-5-20.8c-1.6-7.5,1.7-12.6,9.3-14.2C246.1,173.8,249.6,173.4,253.8,172.7z"/>
        <path class="st0" d="M249.2,155.5c0.2-4.9,2.9-5.8,9.9-3.9c0.3-0.9,0.6-1.8,0.9-2.7c1.2,3.6,1.1,3.2-2.2,3.7
			C254.9,153,252.2,154.5,249.2,155.5z"/>
        <path class="st0" d="M248,152.5c-0.7,0.5-1.4,1-2.1,1.5c0.1,0.1,0.1,0.2,0.2,0.4c0.4-0.2,0.9-0.5,1.7-0.9
			c-0.2,3.8-2.9,2.5-4.5,2.9c-1.6,0.4-3.3,0.5-4.9,0.7c0.3-3.7,0.3-3.5,4.5-3.5c1.6,0,3.3-1.2,4.9-1.9
			C247.8,151.9,247.9,152.2,248,152.5z"/>
        <path class="st0" d="M314.1,132.7c-2.2,0.9-4.4,1.8-6.8,2.8C307.7,132.4,309.8,131.5,314.1,132.7z"/>
        <path class="st0" d="M169.3,165.4c0-3.6,0-7.1,0-10.7c0.2,0,0.3,0,0.5,0c0.2,3.6,0.3,7.1,0.5,10.7
			C170,165.4,169.7,165.4,169.3,165.4z"/>
        <path class="st0" d="M146.6,127.1c2.7-0.4,5.4-1.6,8.1,1c-3,0-5.6,0-8.3,0c0.1-0.3,0.2-0.7,0.3-1.2
			C146.7,127,146.6,127.1,146.6,127.1z"/>
	</g>
</g>
    <ellipse class="st1" cx="128.8" cy="159.6" rx="13.3" ry="17"/>
</svg>
