<?xml version="1.0" encoding="utf-8"?>
<!-- Generator: Adobe Illustrator 22.1.0, SVG Export Plug-In . SVG Version: 6.00 Build 0)  -->
<svg style="enable-background:new 0 0 500 500;" id="Calque_1" version="1.1" viewBox="0 0 500 500" x="0px"
     xmlns="http://www.w3.org/2000/svg" y="0px" xml:space="preserve">
<style type="text/css">
	.st0{fill:#4FBDD7;}
	.st1{fill:#EAEAEA;}
	.st2{fill:#FFFFFF;}
	.st3{fill:#4FBDD7;stroke:#FFFFFF;stroke-width:5;stroke-miterlimit:10;}
	.st4{fill:#8C8C8C;}
	.st5{fill:#070707;}
	.st6{fill:none;stroke:#FFFFFF;stroke-width:7;stroke-miterlimit:10;}
	.st7{fill:none;stroke:#FFFFFF;stroke-width:10;stroke-miterlimit:10;}
	.st8{fill:#FFFFFF;stroke:#FFFFFF;stroke-width:3;stroke-miterlimit:10;}
	.st9{fill:none;stroke:#FDFFFF;stroke-width:6;stroke-miterlimit:10;}
	.st10{fill:#FAFEFF;}
	.st11{fill:none;stroke:#FFFFFF;stroke-width:2;stroke-miterlimit:10;}
	.st12{fill:#FFFFFF;stroke:#FFFFFF;stroke-width:2;stroke-miterlimit:10;}
	.st13{fill:#4FBDD7;stroke:#FFFFFF;stroke-width:4;stroke-miterlimit:10;}
	.st14{fill:#FFFFFF;stroke:#FFFFFF;stroke-width:4;stroke-miterlimit:10;}
	.st15{fill:none;stroke:#FFFFFF;stroke-miterlimit:10;}
	.st16{fill:#FFFFFF;stroke:#FFFFFF;stroke-width:13;stroke-miterlimit:10;}
	.st17{fill:#4FBDD7;stroke:#FFFFFF;stroke-width:8;stroke-miterlimit:10;}
	.st18{fill:#FFFFFF;stroke:#FFFFFF;stroke-width:0.75;stroke-miterlimit:10;}
	.st19{fill:#FFFFFF;stroke:#FFFFFF;stroke-width:0.5;stroke-miterlimit:10;}
	.st20{fill:#FFFFFF;stroke:#FFFFFF;stroke-width:8;stroke-miterlimit:10;}
	.st21{fill:#FFFFFF;stroke:#FFFFFF;stroke-miterlimit:10;}
	.st22{fill:#FFFFFF;stroke:#FFFFFF;stroke-width:11;stroke-miterlimit:10;}
	.st23{fill:#FFFFFF;stroke:#FFFFFF;stroke-width:6;stroke-miterlimit:10;}
	.st24{fill:#8C8C8C;stroke:#8C8C8C;stroke-width:4;stroke-miterlimit:10;}
	.st25{fill:#FFFFFF;stroke:#FFFFFF;stroke-width:1.05;stroke-miterlimit:10;}
	.st26{fill:none;stroke:#4FBDD7;stroke-width:5;stroke-miterlimit:10;}
	.st27{fill:none;stroke:#FFFFFF;stroke-width:4;stroke-miterlimit:10;}
	.st28{fill:#8C8C8C;stroke:#FFFFFF;stroke-width:4;stroke-miterlimit:10;}
	.st29{fill:#FFFFFF;stroke:#FFFFFF;stroke-width:10;stroke-miterlimit:10;}
	.st30{fill:none;stroke:#4FBDD7;stroke-width:2;stroke-miterlimit:10;}
	.st31{fill-rule:evenodd;clip-rule:evenodd;fill:#FFFFFF;}
	.st32{fill:#FFFFFF;stroke:#FFFFFF;stroke-width:7;stroke-miterlimit:10;}
	.st33{fill:#FFFFFF;stroke:#4FBDD7;stroke-width:7;stroke-miterlimit:10;}
	.st34{fill:none;}
	.st35{font-family:'HelveticaNeue-CondensedBold';}
	.st36{font-size:54px;}
	.st37{fill:#FCFCFC;}
	.st38{fill:#FFFFFF;stroke:#FFFFFF;stroke-width:5;stroke-miterlimit:10;}
	.st39{fill:none;stroke:#FFFFFF;stroke-width:3;stroke-miterlimit:10;}
	.st40{fill:none;stroke:#FFFFFF;stroke-width:8;stroke-miterlimit:10;}
	.st41{fill:none;stroke:#FFFFFF;stroke-width:6;stroke-miterlimit:10;}
	.st42{fill:#FFFFFF;stroke:#4FBDD7;stroke-width:3;stroke-miterlimit:10;}
	.st43{fill:none;stroke:#FFFFFF;stroke-width:0.75;stroke-miterlimit:10;}
	.st44{fill:#4FBDD7;stroke:#FFFFFF;stroke-width:9;stroke-miterlimit:10;}
	.st45{fill:none;stroke:#FFFFFF;stroke-width:9;stroke-miterlimit:10;}
	.st46{fill:none;stroke:#4FBDD7;stroke-width:3;stroke-miterlimit:10;}
</style>
    <rect class="st0" height="500" width="500" x="0"/>
    <g>
	<rect class="st34" height="144" width="500" x="3" y="363"/>
        <text transform="matrix(1 0 0 1 116.625 401.5557)"><tspan class="st2 st35 st36" x="0" y="0">Décolleuse à </tspan>
            <tspan class="st2 st35 st36" x="8" y="64.8">papier peint</tspan></text>
</g>
    <g id="_x32_1jrPX_2_">
	<g>
		<path class="st2" d="M241.8,176.1c1.2-6.7,0.2-10.5-6.1-12.9c-0.1,0-0.2-0.1-0.4-0.2c-1.4-0.3-1.8-1.3-2-2.5
			c-0.8-4.4-1.9-8.7-2.5-13.1c-0.4-2.8-1.9-4.2-4.5-4.8c-5.2-1.1-10.5-2.3-15.7-3.5c-1.7-0.4-2.8,0-4,1.1
			c-3.8,3.4-7.6,6.8-11.5,10.1c-0.5,0.4-1.4,0.8-2,0.6c-2.5-0.5-4.9-1.2-7.4-1.7c-3-0.6-6.1-0.9-9.1-1.5c-2.9-0.6-5.8-1.7-8.7-2.3
			c-1.9-0.4-2.7-1.2-2.9-3.1c-0.5-4.2-1.3-8.3-1.8-12.5c-0.2-1.3-0.7-2.1-2.1-2.4c-2.3-0.5-4.6-1.2-7-1.7c-2.7-0.5-5.4-0.4-7.8,1.4
			c-11.8,8.9-23.7,17.8-35.5,26.8c-0.9,0.7-1.6,2-1.9,3.2c-0.6,3-1,6-1.3,9c-0.4,3.6-1.3,6.8-4.8,8.6c-1,0.5-1.9,1.4-2.6,2.3
			c-0.6,0.7-1.3,1.5-1.5,2.4c-1.8,5.3,0.9,10.9,6.2,12.6c8.5,2.8,16.9,5.6,25.5,7.9c15.7,4.2,31.4,8.1,47.2,12
			c5.4,1.4,10.8,2.5,16.5,2.2c6.5-0.4,12.5-2,17.1-7c2.6-2.7,5.1-5.5,7.9-8c2-1.8,3.3-4.7,6.5-4.5c0.1-0.7,0-1.5,0.4-2.1
			c0.7-1,1.5-1.9,2.3-2.8c1.3-1.5,2.8-2.7,5-2.3c1.7,0.3,3.3,0.5,5,0.5c3.5,0,7.1-0.6,10.5-0.3c4.7,0.4,9.4,1.3,14.6,2.1
			c-0.9,1-1.3,1.5-1.8,1.9c-11,10.4-18.8,22.9-23.8,37.2c-0.2,0.7-0.9,1.4-1.6,1.7c-4.6,2.5-8.8,5.5-12.3,9.4
			c-5.2,5.7-7.8,12.3-6.9,20.1c0.9,7.9,4.5,14.6,10.3,19.9c14.7,13.6,31.9,18.3,51.5,14.7c2.1-0.4,4.2-0.9,6.4-1
			c11.3-0.2,22.4-1.7,32.9-6.3c7.8-3.4,15-7.7,20.2-14.6c7.9-10.5,7.2-22.1-1.6-31.8c-3.9-4.3-8.5-7.5-13.6-10.2
			c-0.7-0.4-1.3-1-1.6-1.7c-4.7-15.3-14.6-26.5-27.6-35.4c-3.7-2.5-7.5-4.7-11.3-7.1c2.1-1.7,4.2-3.6,6.4-5.2c1.3-1,2.5-1.8,1.8-3.6
			c5.8-1.3,6.7-2.2,5.4-5.7c2.9-2.9,3.9-3.1,6.4-1.4c6.4,4.3,12.8,8.7,19.2,13.1c2.7,1.9,3.1,2,5.4-0.4c21.7-22,43.5-44,65.2-66
			c4.9-4.9,9.6-10,14.3-15.1c0.5-0.6,1.2-1.8,0.9-2.2c-0.8-1.2-1.9-2.6-3.2-3.2c-15.1-6.8-30.3-13.3-45.4-20.1
			c-1.9-0.8-3.1-0.6-4.6,0.7c-11.9,10.1-22.6,21.4-33.7,32.4c-13.6,13.5-28.1,26.2-40.8,40.7c-2.2,2.5-2,4.4,0.8,6.3
			c0.4,0.3,0.9,0.5,1.3,0.8c3.8,2.3,7.5,4.5,11.3,6.8c0.4,0.2,0.5,0.9,0.8,1.3c-0.7,0.4-1.5,1.2-2,1c-3-0.9-7.1,1.1-6.6,3.8
			c-1.2,0.4-2.4,0.6-3.3,1.3c-2.2,1.7-4.3,3.5-6.4,5.3c-0.4,0.4-0.7,1-0.9,1.5c-0.5,1.7-3.3,3.1-5.1,2.7c-5.2-1.3-10.4-2.6-15.7-3.7
			C250.4,177.2,246.1,176.7,241.8,176.1z M130.8,211.8c0-1.4,0-2.7,0-4.1c-0.2,0-0.4,0-0.6,0C129.5,209.1,129.7,210.5,130.8,211.8z
			 M228.4,223c0,0.3,0,0.6,0,0.8c0.6,0.1,1.2,0.2,1.8,0.3c0.1-0.6,0.1-1.1,0.2-1.7C229.8,222.7,229.1,222.9,228.4,223z"/>
        <path class="st2" d="M241.8,176.1c4.3,0.7,8.6,1.2,12.7,2c5.3,1.1,10.5,2.4,15.7,3.7c1.8,0.4,4.6-1,5.1-2.7
			c0.2-0.6,0.4-1.2,0.9-1.5c2.1-1.8,4.2-3.7,6.4-5.3c0.9-0.7,2.1-0.8,3.3-1.3c-0.5-2.7,3.5-4.7,6.6-3.8c0.5,0.2,1.3-0.7,2-1
			c-0.3-0.4-0.4-1.1-0.8-1.3c-3.7-2.3-7.5-4.6-11.3-6.8c-0.4-0.3-0.9-0.5-1.3-0.8c-2.7-1.9-2.9-3.8-0.8-6.3
			c12.7-14.5,27.1-27.2,40.8-40.7c11.1-11,21.8-22.3,33.7-32.4c1.5-1.3,2.7-1.6,4.6-0.7c15.1,6.7,30.3,13.3,45.4,20.1
			c1.3,0.6,2.3,2,3.2,3.2c0.3,0.4-0.4,1.6-0.9,2.2c-4.7,5.1-9.4,10.1-14.3,15.1c-21.7,22-43.4,44-65.2,66c-2.3,2.3-2.7,2.2-5.4,0.4
			c-6.4-4.4-12.8-8.8-19.2-13.1c-2.5-1.7-3.5-1.4-6.4,1.4c1.2,3.4,0.3,4.4-5.4,5.7c0.7,1.8-0.5,2.7-1.8,3.6
			c-2.2,1.7-4.3,3.5-6.4,5.2c3.8,2.4,7.7,4.6,11.3,7.1c12.9,8.9,22.9,20.1,27.6,35.4c0.2,0.7,0.9,1.4,1.6,1.7
			c5,2.7,9.7,5.9,13.6,10.2c8.8,9.7,9.4,21.3,1.6,31.8c-5.2,7-12.4,11.2-20.2,14.6c-10.5,4.6-21.6,6.1-32.9,6.3
			c-2.1,0-4.3,0.6-6.4,1c-19.6,3.6-36.9-1.1-51.5-14.7c-5.8-5.3-9.3-12-10.3-19.9c-0.9-7.8,1.7-14.4,6.9-20.1
			c3.5-3.9,7.7-6.9,12.3-9.4c0.7-0.4,1.3-1.1,1.6-1.7c5-14.3,12.8-26.8,23.8-37.2c0.5-0.4,0.8-0.9,1.8-1.9
			c-5.2-0.8-9.9-1.7-14.6-2.1c-3.5-0.3-7,0.2-10.5,0.3c-1.7,0-3.3-0.3-5-0.5c-2.2-0.4-3.7,0.8-5,2.3c-0.8,0.9-1.7,1.8-2.3,2.8
			c-0.3,0.5-0.3,1.3-0.4,2.1c-3.2-0.3-4.5,2.7-6.5,4.5c-2.8,2.5-5.3,5.3-7.9,8c-4.7,5-10.6,6.6-17.1,7c-5.6,0.3-11.1-0.8-16.5-2.2
			c-15.7-4-31.5-7.8-47.2-12c-8.6-2.3-17.1-5.2-25.5-7.9c-5.3-1.7-8-7.4-6.2-12.6c0.3-0.9,0.9-1.7,1.5-2.4c0.8-0.9,1.6-1.7,2.6-2.3
			c3.6-1.8,4.5-5,4.8-8.6c0.3-3,0.7-6,1.3-9c0.2-1.2,1-2.5,1.9-3.2c11.8-9,23.6-17.9,35.5-26.8c2.4-1.8,5-1.9,7.8-1.4
			c2.3,0.4,4.6,1.2,7,1.7c1.3,0.3,1.9,1.1,2.1,2.4c0.6,4.2,1.3,8.3,1.8,12.5c0.2,1.9,1,2.7,2.9,3.1c2.9,0.6,5.8,1.7,8.7,2.3
			c3,0.7,6.1,1,9.1,1.5c2.5,0.5,4.9,1.2,7.4,1.7c0.6,0.1,1.5-0.2,2-0.6c3.9-3.3,7.7-6.7,11.5-10.1c1.2-1.1,2.4-1.5,4-1.1
			c5.2,1.3,10.5,2.4,15.7,3.5c2.6,0.6,4.1,1.9,4.5,4.8c0.6,4.4,1.7,8.8,2.5,13.1c0.2,1.2,0.6,2.2,2,2.5c0.1,0,0.2,0.1,0.4,0.2
			C242,165.6,243,169.4,241.8,176.1z M349.3,141.5c-1.1-1.2-2.2-2.4-3.4-3.7c-0.5,0.6-0.8,1-1.2,1.4c0.5,0.6,0.9,1.1,1.5,1.7
			c-1.5,0.1-3.1-1.3-3.9,0.9c0.4,0.6,0.8,1.1,1.2,1.8c-2.8-0.5-2.8-0.5-3.5,0.7c5.6,2.1,5.4,2.1,6.3,0.2c-0.5-0.7-1-1.4-1.5-2.1
			C346.5,142.2,348.2,143.9,349.3,141.5z M356.9,130.9c-0.7-1.9-1.7-2.2-3.2-0.9c-0.9,0.8-1.9,1.6-3,2.6c1.8,1.1,3.2,2,4.8,3.1
			c0.4-0.4,0.8-0.9,1.2-1.3c-0.6-0.5-1-0.9-1.9-1.6c1.2,0,2,0.1,2.7,0c0.7-0.2,1.3-0.7,2-1c-0.1-0.2-0.1-0.3-0.2-0.5
			C358.5,131.1,357.7,131,356.9,130.9z M338.2,150.9c2.2,0,4.4-1.5,4.5-3c0.1-0.7-0.5-1.8-1.1-2.2c-1.6-1.1-3.1-0.5-4.4,0.7
			c-0.1,0.1-0.2,0.2-0.3,0.3c-0.3,0.9-1,1.9-0.7,2.6C336.6,150.1,337.8,150.6,338.2,150.9z M350.8,134.3c-0.2-0.2-0.4-0.4-0.5-0.7
			c-1.3,1.2-2.5,2.4-3.9,3.7c1.6,1,3,1.9,4.4,2.7c1.3-1.3,2.5-2.5,3.7-3.7c-0.1-0.2-0.2-0.3-0.3-0.5c-1.1,0.7-2.1,1.4-3.2,2.1
			c-0.1-0.1-0.2-0.3-0.3-0.4c0.6-0.7,1.1-1.5,1.7-2.2c-0.1-0.1-0.3-0.3-0.4-0.4c-0.9,0.7-1.8,1.4-2.7,2c-0.1-0.1-0.2-0.3-0.3-0.4
			C349.5,135.8,350.1,135,350.8,134.3z M334.8,156.1c1.8-0.8,1.3-1.6,0-2.4c0.2-0.3,0.5-0.5,0.5-0.7c0.2-0.8,0.4-1.5,0.6-2.3
			c-0.9,0-2-0.3-2.8,0.1c-1,0.5-1.8,1.6-2.7,2.5c0.5,0.4,0.8,0.6,1.2,0.8C332.7,154.8,333.8,155.5,334.8,156.1z M365,118.6
			c2.9,3,4.5,3,6.3,0.8c0.7-0.9,1.2-1.9-0.1-2.6c-1-0.6-2-2.1-3.7-0.6c0.8,0.5,1.5,0.8,2,1.3c0.4,0.4,0.5,1,0.8,1.5
			c-0.7,0.2-1.3,0.7-2,0.6c-0.6-0.1-1.2-0.7-1.9-1C366,118.5,365.5,118.6,365,118.6z M360.1,127.9c0.1-0.1,0.4-0.3,0.4-0.5
			c0.1-0.7,0.2-1.5,0.3-2.2c-0.8,0.1-1.6-0.1-2.3,0.3c-0.9,0.5-1.7,1.3-2.6,2.2c1.3,0.8,2,1.4,2.9,1.8c0.6,0.3,1.3,0.3,2,0.4
			C360.6,129.3,360.4,128.7,360.1,127.9z M306.6,159.8c-3.3,2.7-6.5,5.3-10.1,8.2C298.7,168.4,305.9,162.6,306.6,159.8z M373,115.6
			c0.1,0.2,0.2,0.5,0.4,0.7c0.9-0.6,2-1,2.6-1.8c0.4-0.5,0.3-1.5,0.5-2.2c-0.7,0-1.5-0.2-2.1,0c-0.8,0.2-1.6,0.8-2.4,1.2
			c-0.1-0.2-0.2-0.3-0.3-0.5c0.4-0.3,0.7-0.6,1.1-0.9c0.3-0.2,0.7-0.5,1-0.7c-0.1-0.2-0.2-0.3-0.3-0.5c-0.5,0.2-1.2,0.3-1.4,0.7
			c-0.6,0.8-0.9,1.8-1.4,2.7c0.9-0.1,1.8-0.2,2.7-0.3c0.6-0.1,1.2-0.5,1.9-0.7c0.1,0.2,0.2,0.5,0.4,0.7
			C374.7,114.6,373.8,115.1,373,115.6z M360.9,122.6c3.2,3.6,4.9,3.4,6.8-0.2c-0.1-0.1-0.2-0.2-0.3-0.2c-0.2,0-0.4,0.1-0.5,0.2
			c-1.2,2-2.6,1.4-4.1,0.4C362.3,122.6,361.5,122.7,360.9,122.6z M195.1,202.9c1.3-0.1,2.4-0.2,3.4-0.3
			C196.6,200.7,196.2,200.7,195.1,202.9z M211,187c1.6,1.5,1.9,1.5,3.1-0.1C213.1,186.4,212.1,185.4,211,187z M224.5,173.4
			c1.6,1.8,2.2,1.7,2.9,0C226.4,173.4,225.4,173.4,224.5,173.4z M161,196.4c1.3,0,2.2,0,3.1,0c-0.1-0.4,0-1-0.2-1.1
			C162.9,194.6,162,194.8,161,196.4z M131,187.6c0.1,0.4,0.1,0.7,0.2,1.1c0.9-0.1,1.7-0.1,2.6-0.2c-0.1-0.4-0.2-1.2-0.3-1.2
			C132.7,187.4,131.9,187.5,131,187.6z M102.8,177.2c1.9,1.9,2.5,1.8,3.2-0.3C105,177,104.1,177.1,102.8,177.2z M234.4,163.5
			c0.6,2.5,1,2.6,2.8,0.9C236.3,164.1,235.5,163.9,234.4,163.5z"/>
        <path class="st2" d="M309.2,225.2c-19.7-4.4-39-5-58.7,0.2c1.1-2.2,1.9-3.9,2.8-5.7c4.9-9.8,12.3-17.6,20-25.1
			c0.3-0.3,1.3-0.4,1.8-0.1c9.5,4.3,18.1,9.9,25.1,17.7c3,3.4,5.4,7.3,8.1,11C308.6,223.8,308.8,224.4,309.2,225.2z"/>
        <path class="st2" d="M349.3,141.5c-1.1,2.5-2.8,0.7-4.5,0.8c0.6,0.8,1,1.5,1.5,2.1c-0.8,1.9-0.7,1.9-6.3-0.2
			c0.7-1.2,0.7-1.2,3.5-0.7c-0.5-0.6-0.8-1.2-1.2-1.8c0.8-2.2,2.4-0.8,3.9-0.9c-0.5-0.6-0.9-1.1-1.5-1.7c0.3-0.4,0.7-0.8,1.2-1.4
			C347.1,139.1,348.2,140.3,349.3,141.5z"/>
        <path class="st2" d="M356.9,130.9c0.8,0.1,1.6,0.1,2.5,0.2c0.1,0.2,0.1,0.3,0.2,0.5c-0.7,0.3-1.3,0.8-2,1c-0.7,0.2-1.5,0-2.7,0
			c0.9,0.7,1.3,1.1,1.9,1.6c-0.4,0.5-0.8,0.9-1.2,1.3c-1.6-1-3-1.9-4.8-3.1c1.1-1,2.1-1.8,3-2.6C355.2,128.7,356.2,129,356.9,130.9z
			"/>
        <path class="st2" d="M338.2,150.9c-0.4-0.3-1.6-0.8-2-1.6c-0.3-0.6,0.4-1.7,0.7-2.6c0-0.1,0.2-0.2,0.3-0.3
			c1.3-1.2,2.8-1.8,4.4-0.7c0.6,0.4,1.1,1.5,1.1,2.2C342.6,149.4,340.3,150.9,338.2,150.9z M339.4,149.8c0.7-0.7,1.2-1.1,1.6-1.6
			c-0.6-0.5-1.1-1.2-1.8-1.3c-0.4-0.1-1,0.7-1.5,1.1C338.3,148.5,338.7,149,339.4,149.8z"/>
        <path class="st2" d="M350.8,134.3c-0.6,0.7-1.3,1.5-1.9,2.2c0.1,0.1,0.2,0.3,0.3,0.4c0.9-0.7,1.8-1.4,2.7-2
			c0.1,0.1,0.3,0.3,0.4,0.4c-0.6,0.7-1.1,1.5-1.7,2.2c0.1,0.1,0.2,0.3,0.3,0.4c1.1-0.7,2.1-1.4,3.2-2.1c0.1,0.2,0.2,0.3,0.3,0.5
			c-1.2,1.2-2.4,2.4-3.7,3.7c-1.3-0.8-2.7-1.7-4.4-2.7c1.4-1.3,2.7-2.5,3.9-3.7C350.4,133.8,350.6,134,350.8,134.3z"/>
        <path class="st2" d="M334.8,156.1c-1-0.6-2.1-1.3-3.2-2c-0.3-0.2-0.6-0.4-1.2-0.8c1-0.9,1.7-2,2.7-2.5c0.7-0.4,1.8-0.1,2.8-0.1
			c-0.2,0.8-0.3,1.6-0.6,2.3c-0.1,0.2-0.3,0.4-0.5,0.7C336.1,154.5,336.6,155.3,334.8,156.1z"/>
        <path class="st2" d="M365,118.6c0.5,0,1.1-0.1,1.5,0c0.7,0.2,1.2,0.9,1.9,1c0.6,0.1,1.3-0.4,2-0.6c-0.3-0.5-0.4-1.1-0.8-1.5
			c-0.5-0.5-1.2-0.8-2-1.3c1.7-1.6,2.7,0,3.7,0.6c1.2,0.7,0.8,1.7,0.1,2.6C369.4,121.6,367.9,121.6,365,118.6z"/>
        <path class="st2" d="M360.1,127.9c0.3,0.8,0.5,1.4,0.6,2c-0.7-0.1-1.4-0.1-2-0.4c-0.9-0.4-1.6-1-2.9-1.8c1-0.8,1.7-1.7,2.6-2.2
			c0.6-0.3,1.5-0.2,2.3-0.3c-0.1,0.7-0.1,1.5-0.3,2.2C360.5,127.6,360.2,127.8,360.1,127.9z"/>
        <path class="st2" d="M306.6,159.8c-0.7,2.8-7.9,8.6-10.1,8.2C300,165.1,303.3,162.5,306.6,159.8z"/>
        <path class="st2" d="M373,115.6c0.9-0.5,1.8-1,2.6-1.6c-0.1-0.2-0.2-0.5-0.4-0.7c-0.6,0.2-1.2,0.6-1.9,0.7
			c-0.9,0.2-1.8,0.2-2.7,0.3c0.5-0.9,0.8-1.9,1.4-2.7c0.3-0.4,0.9-0.5,1.4-0.7c0.1,0.2,0.2,0.3,0.3,0.5c-0.3,0.2-0.7,0.5-1,0.7
			c-0.4,0.3-0.7,0.6-1.1,0.9c0.1,0.2,0.2,0.3,0.3,0.5c0.8-0.4,1.5-1,2.4-1.2c0.7-0.2,1.4,0,2.1,0c-0.1,0.8,0,1.7-0.5,2.2
			c-0.7,0.8-1.7,1.2-2.6,1.8C373.2,116.1,373.1,115.9,373,115.6z"/>
        <path class="st2" d="M385.2,118.6c-5.8,6.1-11.7,12.2-17.5,18.2c-0.1-0.1-0.3-0.3-0.4-0.4c5.8-6.1,11.7-12.1,17.5-18.2
			C384.9,118.4,385,118.5,385.2,118.6z"/>
        <path class="st2" d="M363.5,140.7c-5.5,5.5-11.1,11-16.6,16.5c0,0,0.1,0.1,0.1,0.1c5.6-5.5,11.1-10.9,16.7-16.4
			C363.7,140.8,363.6,140.7,363.5,140.7z"/>
        <path class="st2" d="M360.9,122.6c0.6,0.1,1.3-0.1,1.8,0.2c1.5,1,2.9,1.6,4.1-0.4c0.1-0.1,0.3-0.2,0.5-0.2c0.1,0,0.2,0.1,0.3,0.2
			C365.8,126.1,364.1,126.2,360.9,122.6z"/>
        <path class="st2" d="M151,178.4c-0.6,0.6-1.2,1.3-1.9,1.8c-0.1,0.1-0.8-0.9-1.3-1.1c-0.8-0.3-1.6-0.2-2.8-0.4
			c1.8-2.8,3.8-0.4,5.5-0.9C150.7,178,150.8,178.2,151,178.4z"/>
        <path class="st2" d="M348.4,92.6c2.3,0.8,4.5,1.7,6.8,2.5c-0.1,0.2-0.1,0.4-0.2,0.6c-2.1-1.4-5.1,0.1-6.8-2.4
			C348.3,93,348.3,92.8,348.4,92.6z"/>
        <path class="st2" d="M195.1,202.9c1.2-2.2,1.6-2.2,3.4-0.3C197.4,202.7,196.4,202.8,195.1,202.9z"/>
        <path class="st2" d="M211,187c1-1.6,2-0.6,3.1-0.1C213,188.5,212.6,188.5,211,187z"/>
        <path class="st2" d="M224.5,173.4c1,0,1.9,0,2.9,0C226.7,175.1,226.1,175.2,224.5,173.4z"/>
        <path class="st2"
              d="M161,196.4c1-1.6,1.9-1.7,2.9-1.1c0.2,0.1,0.1,0.7,0.2,1.1C163.1,196.4,162.2,196.4,161,196.4z"/>
        <path class="st2" d="M131,187.6c0.8-0.1,1.6-0.2,2.5-0.2c0.1,0,0.2,0.7,0.3,1.2c-0.9,0.1-1.7,0.1-2.6,0.2
			C131.1,188.4,131.1,188,131,187.6z"/>
        <path class="st2" d="M102.8,177.2c1.4-0.1,2.2-0.2,3.2-0.3C105.3,179,104.6,179.1,102.8,177.2z"/>
        <path class="st2" d="M234.4,163.5c1.1,0.4,1.9,0.6,2.8,0.9C235.4,166.1,235,166,234.4,163.5z"/>
        <path class="st2" d="M339.4,149.8c-0.7-0.7-1.1-1.3-1.6-1.8c0.5-0.4,1.1-1.2,1.5-1.1c0.7,0.1,1.2,0.9,1.8,1.3
			C340.5,148.7,340.1,149.1,339.4,149.8z"/>
	</g>
</g>
    <path class="st0" d="M323.4,153.2l7,7c0.5,0.5,1.3,0.5,1.8,0l51.2-51.2c0.5-0.5,0.5-1.3,0-1.8l-7-7c-0.5-0.5-1.3-0.5-1.8,0
	l-51.2,51.2C322.9,151.9,322.9,152.7,323.4,153.2z"/>
    <path class="st0" d="M280.2,270.7c9.1-0.3,16.9-1.4,24.3-4.5c0.7-0.3,1.4-0.7,1.8-1.3c4.4-6.5,6.8-13.8,6.8-21.7
	c0-0.6-0.4-1.5-0.9-1.7c-3.1-1.3-6.1-3-9.3-3.6c-6.9-1.5-13.9-1.6-20.9-1.1c-9,0.6-17.6,2.9-25.3,7.7c-2.6,1.6-4.7,4.1-6.8,6.4
	c-1.2,1.3-1.2,3,0,4.6c1.1,1.4,2.1,3,3.4,4.3C260.9,267.7,270.9,269.8,280.2,270.7z"/>
    <path class="st0" d="M309.2,223c-0.4-0.8-0.6-1.4-1-1.9c-2.6-3.7-5-7.6-8.1-11c-7-7.8-15.6-13.4-25.1-17.7c-0.5-0.2-1.5-0.2-1.8,0.1
	c-7.8,7.5-15.1,15.3-20,25.1c-0.9,1.7-1.7,3.5-2.8,5.7C270.2,217.9,289.5,218.5,309.2,223z"/>
    <path class="st1" d="M385.2,116.5c-0.1-0.1-0.2-0.2-0.4-0.4c-5.8,6.1-11.7,12.1-17.5,18.2c0.1,0.1,0.3,0.3,0.4,0.4
	C373.5,128.6,379.3,122.5,385.2,116.5z"/>
    <path class="st1" d="M363.5,138.5c0.1,0.1,0.1,0.1,0.2,0.2c-5.6,5.5-11.1,10.9-16.7,16.4c0,0-0.1-0.1-0.1-0.1
	C352.4,149.5,358,144,363.5,138.5z"/>
    <path class="st1" d="M151,176.2c-0.1-0.2-0.3-0.4-0.4-0.6c-1.7,0.5-3.7-1.9-5.5,0.9c1.1,0.1,2,0.1,2.8,0.4c0.5,0.2,1.2,1.2,1.3,1.1
	C149.8,177.5,150.4,176.8,151,176.2z"/>
    <path class="st1" d="M348.4,90.4c-0.1,0.2-0.2,0.4-0.2,0.7c1.7,2.5,4.7,1,6.8,2.4c0.1-0.2,0.1-0.4,0.2-0.6
	C352.9,92,350.7,91.2,348.4,90.4z"/>
</svg>
