<svg id="Calque_1" data-name="Calque 1" xmlns="http://www.w3.org/2000/svg" viewBox="0 0 350 300"><title>selected</title><g id="_21jrPX" data-name="21jrPX"><path d="M276.78,20.66c7,3.09,14,6.2,20.84,9.21,7.53,3.31,15.29,6.73,22.93,10.14-4,4.31-8.15,8.74-12.31,13-20.83,21.15-42.05,42.62-62.57,63.38l-2,2.08c-6.31-4.38-12.63-8.7-18.79-12.85a9.43,9.43,0,0,0-5.34-1.91,7,7,0,0,0-1.05.07l-.62-1.06,0-.08a6.43,6.43,0,0,0-2.51-3.09c-2.95-1.83-6-3.65-8.88-5.4L204,92.64l-.33-.19C212,82.92,221.4,74,230.48,65.3c4.31-4.12,8.78-8.38,13.1-12.67q3.6-3.57,7.18-7.18c8.34-8.37,16.95-17,26-24.79M70.65,69.42a8.71,8.71,0,0,1,1.65.18c1.2.23,2.43.55,3.73.89l1.47.37c.21,1.52.45,3,.67,4.5.34,2.15.68,4.37,1,6.53a8,8,0,0,0,7,7.39c1.33.26,2.72.67,4.19,1.11s2.85.85,4.39,1.18c1.82.4,3.62.67,5.36.93,1.33.2,2.6.39,3.83.63s2.18.48,3.34.77,2.64.66,4,.92a6.56,6.56,0,0,0,1.18.11,7.85,7.85,0,0,0,5-1.87c4.32-3.7,8.07-7,11.46-10.07,5,1.22,10,2.29,15.47,3.47a3.45,3.45,0,0,1,.54.16,2.69,2.69,0,0,1,.09.44c.44,2.93,1,5.82,1.6,8.6.32,1.56.65,3.17.94,4.73.75,4.09,3.11,5.71,5.19,6.33l.26.11c3,1.14,3.94,1.82,2.95,7.34l-.91,5L160,120c1.36.21,2.71.4,4.05.59,2.94.42,5.71.81,8.44,1.36,1.6.33,3.2.67,4.8,1-3-.5-5.93-.95-9-1.19-.82-.07-1.67-.1-2.59-.1-1.58,0-3.11.09-4.59.18-1.33.09-2.58.16-3.79.17h-.07a27.49,27.49,0,0,1-4.1-.45,9.53,9.53,0,0,0-1.58-.13c-4.34,0-7,3-7.95,4.07l-.56.6a20.06,20.06,0,0,0-2.26,2.79c-.11.17-.21.35-.3.52a13.51,13.51,0,0,0-4.68,3.85,14,14,0,0,1-1,1.12c-2.87,2.57-5.48,5.36-8,8.06l-.23.24c-3.16,3.39-7.29,5-13.78,5.4-.56,0-1.14,0-1.71,0a55,55,0,0,1-13.24-2.1l-12.75-3.21c-11.28-2.82-23-5.75-34.36-8.81-7.09-1.91-14.26-4.25-21.19-6.52l-4.11-1.34a4.74,4.74,0,0,1-2.78-2.37,5,5,0,0,1-.25-3.85,3.54,3.54,0,0,1,.5-.65,8.63,8.63,0,0,1,1.24-1.18c6.56-3.35,7.24-9.78,7.53-12.53.26-2.39.63-5.52,1.26-8.51a1.42,1.42,0,0,1,.15-.34c9.14-7,18.48-14,27.52-20.82l7.78-5.86a3.38,3.38,0,0,1,2.19-.66m132,24.18h0m7.44,17.32.13,0,.23.66-.23.06-.13-.75m-5.79,4.45.54,1.49c-1.47,1.14-2.88,2.32-4.25,3.47l-1.83,1.52-5.36,4.42,5.88,3.68q1.83,1.14,3.66,2.25c2.63,1.61,5.11,3.13,7.52,4.78,13.25,9.06,21.62,19.77,25.61,32.74a8.34,8.34,0,0,0,3.94,4.65,45.08,45.08,0,0,1,12.26,9.2c7.27,8,7.71,16.82,1.27,25.45-3.92,5.24-9.53,9.26-18.19,13s-18.57,5.66-31,5.84a33,33,0,0,0-5.86.77l-1.35.26A63.1,63.1,0,0,1,185.76,230c-13.57,0-25.29-4.74-35.82-14.5a26.72,26.72,0,0,1-8.71-16.86c-.7-5.9,1.14-11.18,5.63-16.14a41.3,41.3,0,0,1,11-8.37,8.52,8.52,0,0,0,3.86-4.48,87.27,87.27,0,0,1,22.5-35.21c.43-.41.77-.8,1.21-1.28.22-.24.47-.53.79-.87l6.32-6.85a9.46,9.46,0,0,0,6.47-5.62c1.81-1.59,3.53-3.09,5.33-4.45m72.14-99.95a4.14,4.14,0,0,0-2.71,1.24c-11.87,10.14-22.63,21.44-33.7,32.42C226.42,62.61,212,75.31,199.29,89.82c-2.16,2.47-2,4.4.76,6.3.42.3.88.53,1.33.8,3.76,2.27,7.53,4.52,11.26,6.84.39.24.54.87.79,1.31-.61.34-1.34,1-1.86,1l-.14,0a5.94,5.94,0,0,0-1.57-.21c-2.68,0-5.41,1.73-5,4a13.35,13.35,0,0,0-3.27,1.28c-2.22,1.67-4.31,3.52-6.4,5.35a3.32,3.32,0,0,0-.86,1.53c-.43,1.51-2.65,2.76-4.38,2.76a3.22,3.22,0,0,1-.71-.08c-5.22-1.31-10.44-2.61-15.71-3.68-4.16-.84-8.39-1.33-12.72-2,1.2-6.69.18-10.49-6.07-12.9a2.72,2.72,0,0,0-.35-.16c-1.38-.29-1.76-1.28-2-2.52-.81-4.38-1.85-8.73-2.5-13.14a5.15,5.15,0,0,0-4.53-4.77c-5.24-1.13-10.49-2.26-15.7-3.53a5.07,5.07,0,0,0-1.17-.15,4.09,4.09,0,0,0-2.85,1.25c-3.79,3.43-7.64,6.8-11.51,10.13a3,3,0,0,1-1.71.66l-.25,0c-2.48-.47-4.9-1.21-7.36-1.68-3-.59-6.09-.89-9.09-1.54S90,84.94,87,84.37a3.14,3.14,0,0,1-3-3.11c-.53-4.17-1.27-8.31-1.83-12.47a2.43,2.43,0,0,0-2-2.42c-2.33-.52-4.62-1.24-7-1.68a13.46,13.46,0,0,0-2.58-.27,8.4,8.4,0,0,0-5.2,1.67C53.62,75,41.77,83.89,30,92.88a5.78,5.78,0,0,0-1.89,3.19,91,91,0,0,0-1.33,9c-.38,3.59-1.26,6.78-4.83,8.6a10.17,10.17,0,0,0-2.65,2.26,7.07,7.07,0,0,0-1.55,2.4A9.84,9.84,0,0,0,24,131c8.48,2.75,16.94,5.62,25.54,7.93,15.68,4.21,31.45,8.06,47.19,12a59.13,59.13,0,0,0,14.46,2.25q1,0,2-.06c6.52-.39,12.48-2,17.14-7,2.55-2.74,5.12-5.5,7.9-8,1.9-1.69,3.17-4.48,6.1-4.48l.42,0a5.72,5.72,0,0,1,.36-2.05,25.79,25.79,0,0,1,2.35-2.78c1.17-1.31,2.42-2.39,4.22-2.39a5.32,5.32,0,0,1,.78.06,30,30,0,0,0,4.9.52h.1c2.78,0,5.58-.35,8.35-.35.73,0,1.46,0,2.19.08,4.71.38,9.37,1.33,14.56,2.12-.92,1-1.32,1.48-1.77,1.91A92,92,0,0,0,157,168a3.56,3.56,0,0,1-1.55,1.75,46.68,46.68,0,0,0-12.28,9.39c-5.16,5.7-7.8,12.32-6.89,20.08a31.67,31.67,0,0,0,10.28,19.94C158,229.82,171.17,235,185.76,235a68.35,68.35,0,0,0,12.31-1.16,40,40,0,0,1,6.38-1c11.35-.17,22.43-1.68,32.93-6.25,7.79-3.39,15-7.66,20.2-14.63,7.85-10.53,7.24-22.08-1.57-31.8A50.65,50.65,0,0,0,242.44,170a3.44,3.44,0,0,1-1.56-1.73c-4.7-15.3-14.62-26.55-27.57-35.4-3.66-2.51-7.52-4.74-11.34-7.14,2.11-1.73,4.2-3.56,6.41-5.24,1.27-1,2.47-1.83,1.81-3.64,5.75-1.29,6.64-2.25,5.44-5.67,1.72-1.7,2.76-2.49,3.86-2.49a4.73,4.73,0,0,1,2.54,1.06q9.66,6.49,19.22,13.13c1.29.91,2.06,1.39,2.76,1.39s1.43-.55,2.6-1.74q32.61-33,65.19-66c4.86-4.93,9.57-10,14.29-15.08.53-.57,1.16-1.84.91-2.22A8.78,8.78,0,0,0,323.83,36c-15.12-6.76-30.3-13.35-45.42-20.09a4.73,4.73,0,0,0-1.94-.49ZM49.11,146.72a3.8,3.8,0,0,0,.64,4.11v-4.1Zm100.31,14.83-2,.49c0,.28,0,.56,0,.84l1.79.35c.06-.56.13-1.12.19-1.68Z"/><path d="M276.78,20.66c7,3.09,14,6.2,20.84,9.21,7.53,3.31,15.29,6.73,22.93,10.14-4,4.31-8.15,8.74-12.31,13Q297.62,63.76,286.91,74.6l-1.8-5.49c3.19-.65,4.95-3.41,5.75-4.85a9.81,9.81,0,0,0,3.25-2.69,8.66,8.66,0,0,0,1.39-2.31l.07,0A11.36,11.36,0,0,0,298.65,57a7.13,7.13,0,0,0,1.68-4.48,2.46,2.46,0,0,1,0-.26l1-5.67-5.22-.15-1.6-2.71-4,1.73-.09,0A6.49,6.49,0,0,0,287,47.79,14.15,14.15,0,0,0,285.71,50a7.74,7.74,0,0,0-2.61,1.63L282,52.63H272l3.46,3.52-7.93-.84,5.55,6.21c-.26.22-.5.44-.74.66s-.45.42-.7.63l-5.12,4.33.33.21-.47.4-5.17,4.41.65.41-.36.42-4.4,4.15.28.17a8.19,8.19,0,0,0-.45.77,6.59,6.59,0,0,0-2,2.14,11,11,0,0,0-2,1.41,5.49,5.49,0,0,0-1.75,2.46,3,3,0,0,1-.16.37c-.06.15-.14.32-.22.51a6.33,6.33,0,0,0-1,.42,11.87,11.87,0,0,0-3.21,2.67c-.23.24-.44.48-.64.66L241.56,93l5.06,3.47.45.31c.34.24.6.42.87.59l2.4,1.49.82.51,2.29,1.42,2.45-1.13c3.17-1.46,3.91-3.76,4-5.14a9.49,9.49,0,0,0,6.21-5.08,6.37,6.37,0,0,0,3.4-3.32,6.88,6.88,0,0,0,2.9-2.83l.72-.71L275,80.8l.43.28L278.21,78l1.22-1.33,1.5-1.66,1.19-.62,4.28.77c-13.67,13.85-27.35,27.68-40.73,41.22l-2,2.08c-5.9-4.09-11.8-8.13-17.57-12,1.91-1.8,3.82-4.1,4.39-6.44l3.49-14.4-11.5,9.35-6.37,5.17a6.08,6.08,0,0,0-.78-.58c-2.95-1.83-6-3.65-8.88-5.4L204,92.64l-.33-.19C212,82.92,221.4,74,230.48,65.3c4.31-4.12,8.78-8.38,13.1-12.67q3.6-3.57,7.18-7.18c8.34-8.37,16.95-17,26-24.79M70.65,69.42a8.71,8.71,0,0,1,1.65.18c1.2.23,2.43.55,3.73.89l1.47.37c.21,1.52.45,3,.67,4.5.34,2.15.68,4.37,1,6.53a8,8,0,0,0,7,7.39c1.33.26,2.72.67,4.19,1.11s2.85.85,4.39,1.18c1.82.4,3.62.67,5.36.93,1.33.2,2.6.39,3.83.63s2.18.48,3.34.77,2.64.66,4,.92a6.56,6.56,0,0,0,1.18.11,7.85,7.85,0,0,0,5-1.87c4.32-3.7,8.07-7,11.46-10.07,5,1.22,10,2.29,15.47,3.47a3.45,3.45,0,0,1,.54.16,2.69,2.69,0,0,1,.09.44c.44,2.93,1,5.82,1.6,8.6.32,1.56.65,3.17.94,4.73a9.84,9.84,0,0,0,1,3l.09.34a10.17,10.17,0,0,0,1.59,3.69H132.3l7.47,8.34c.8.89,2.68,3,5.52,3,1.48,0,4.2-.58,5.78-4.43l2-4.89a6.33,6.33,0,0,0,1.48.17,5.34,5.34,0,0,0,1.53-.21,11.42,11.42,0,0,1-.2,4.81l-.91,5L160,120c1.36.21,2.71.4,4.05.59,2.94.42,5.71.81,8.44,1.36,1.6.33,3.2.67,4.8,1-3-.5-5.93-.95-9-1.19-.82-.07-1.67-.1-2.59-.1-1.58,0-3.11.09-4.59.18-1.33.09-2.58.16-3.8.17h-.06a27.49,27.49,0,0,1-4.1-.45,9.44,9.44,0,0,0-1.58-.13c-4.34,0-7,3-7.95,4.07l-.56.6a20.06,20.06,0,0,0-2.26,2.79c-.11.17-.21.35-.3.52a13.51,13.51,0,0,0-4.68,3.85,14,14,0,0,1-1,1.12c-2.87,2.57-5.48,5.36-8,8.06l-.23.24c-.2.21-.4.42-.61.62l-4.94-5.18c-1.06-1.11-2.82-2.95-5.53-2.95-3.63,0-5.24,3-5.93,4.35l-4.31,8.1,9.15-.78,1.75-.15,1.68-.14,3.76-.32a25.47,25.47,0,0,1-8.8,1.85c-.56,0-1.14,0-1.71,0a55,55,0,0,1-13.24-2.1l-12.75-3.21q-5-1.23-10-2.51H88.86L88,134.77a5.48,5.48,0,0,0-2.56-4.8,6.86,6.86,0,0,0-3.6-1.06c-1.67,0-4.08.64-6.09,3.69l-4.45,6.78c-6.84-1.73-13.72-3.51-20.51-5.33-1.24-.33-2.48-.68-3.73-1l3.5-.27,2.57-.19,5.8-.43-1.31-5.67c0-.07,0-.15,0-.23-.81-4.46-4.12-4.81-5.12-4.81a20,20,0,0,0-2.52.2l-.5.07-5.11.59.74,5.09,0,.12.14,1,.6,4.18c-5.45-1.59-10.91-3.38-16.23-5.12l-4.11-1.34a4.74,4.74,0,0,1-2.78-2.37,5,5,0,0,1-.46-1.45,5.88,5.88,0,0,0,1.48.19c1.61,0,4.53-.66,6-5.06l2.42-7.25-1.34.12a22.51,22.51,0,0,0,.92-4.76c.26-2.39.63-5.52,1.26-8.51a1.42,1.42,0,0,1,.15-.34c9.14-7,18.48-14,27.52-20.82l7.78-5.86a3.38,3.38,0,0,1,2.19-.66m61.07,62.72c3.09,0,4.77-2.32,5.48-3.3l3.59-4.94-5.55-2.54a1.41,1.41,0,0,1-.24-.13,7.47,7.47,0,0,0-3.73-1.12,6.33,6.33,0,0,0-5.47,3.22l-2.15,3.41,2.88,2.83a7.46,7.46,0,0,0,5.19,2.57m71-38.54h0m7.48,17.57.17,0,.15.41-.23.06-.09-.5m-5.83,4.2.54,1.49c-1.47,1.14-2.88,2.32-4.25,3.47l-1.83,1.52-5.36,4.42,5.88,3.68q1.83,1.14,3.66,2.25c2.63,1.61,5.11,3.13,7.52,4.78,13.25,9.06,21.62,19.77,25.61,32.74a8.34,8.34,0,0,0,3.94,4.65,45.08,45.08,0,0,1,12.26,9.2c7.27,8,7.71,16.82,1.27,25.45-3.92,5.24-9.53,9.26-18.19,13s-18.57,5.66-31,5.84a33,33,0,0,0-5.86.77l-1.35.26A63.1,63.1,0,0,1,185.76,230c-13.57,0-25.29-4.74-35.82-14.5a26.72,26.72,0,0,1-8.71-16.86c-.7-5.9,1.14-11.18,5.63-16.14a41.3,41.3,0,0,1,11-8.37,8.52,8.52,0,0,0,3.86-4.48,87.27,87.27,0,0,1,22.5-35.21c.43-.41.77-.8,1.21-1.28.22-.24.47-.53.79-.87l6.32-6.85a9.46,9.46,0,0,0,6.47-5.62c1.81-1.59,3.53-3.09,5.33-4.45m72.14-99.95a4.14,4.14,0,0,0-2.71,1.24c-11.87,10.14-22.63,21.44-33.7,32.42C226.42,62.61,212,75.31,199.29,89.82c-2.16,2.47-2,4.4.76,6.3.42.3.88.53,1.33.8,3.76,2.27,7.53,4.52,11.26,6.84.39.24.54.87.79,1.31-.61.34-1.34,1-1.86,1l-.14,0a5.94,5.94,0,0,0-1.57-.21c-2.68,0-5.41,1.73-5,4a13.35,13.35,0,0,0-3.27,1.28c-2.22,1.67-4.31,3.52-6.4,5.35a3.32,3.32,0,0,0-.86,1.53c-.43,1.51-2.65,2.76-4.38,2.76a3.22,3.22,0,0,1-.71-.08c-5.22-1.31-10.44-2.61-15.71-3.68-4.16-.84-8.39-1.33-12.72-2,1.2-6.69.18-10.49-6.07-12.9a2.72,2.72,0,0,0-.35-.16c-1.38-.29-1.76-1.28-2-2.52-.81-4.38-1.85-8.73-2.5-13.14a5.15,5.15,0,0,0-4.53-4.77c-5.24-1.13-10.49-2.26-15.7-3.53a5.07,5.07,0,0,0-1.17-.15,4.09,4.09,0,0,0-2.85,1.25c-3.79,3.43-7.64,6.8-11.51,10.13a3,3,0,0,1-1.71.66l-.25,0c-2.48-.47-4.9-1.21-7.36-1.68-3-.59-6.09-.89-9.09-1.54S90,84.94,87,84.37a3.14,3.14,0,0,1-3-3.11c-.53-4.17-1.27-8.31-1.83-12.47a2.43,2.43,0,0,0-2-2.42c-2.33-.52-4.62-1.24-7-1.68a13.46,13.46,0,0,0-2.58-.27,8.4,8.4,0,0,0-5.2,1.67C53.62,75,41.77,83.89,30,92.88a5.78,5.78,0,0,0-1.89,3.19,91,91,0,0,0-1.33,9c-.38,3.59-1.26,6.78-4.83,8.6a10.17,10.17,0,0,0-2.65,2.26,7.07,7.07,0,0,0-1.55,2.4A9.84,9.84,0,0,0,24,131c8.48,2.75,16.94,5.62,25.54,7.93,15.68,4.21,31.45,8.06,47.19,12a59.13,59.13,0,0,0,14.46,2.25c.66,0,1.34,0,2-.06,6.52-.39,12.48-2,17.14-7,2.55-2.74,5.12-5.5,7.9-8,1.9-1.69,3.17-4.48,6.1-4.48l.42,0a5.72,5.72,0,0,1,.36-2.05,25.79,25.79,0,0,1,2.35-2.78c1.17-1.31,2.42-2.39,4.22-2.39a5.32,5.32,0,0,1,.78.06,30,30,0,0,0,4.9.52h.1c2.78,0,5.58-.35,8.35-.35.73,0,1.46,0,2.19.08,4.71.38,9.37,1.33,14.56,2.12-.92,1-1.32,1.48-1.77,1.91A92,92,0,0,0,157,168a3.56,3.56,0,0,1-1.55,1.75,46.68,46.68,0,0,0-12.28,9.39c-5.16,5.7-7.8,12.32-6.89,20.08a31.67,31.67,0,0,0,10.28,19.94C158,229.82,171.17,235,185.76,235a68.35,68.35,0,0,0,12.31-1.16,40,40,0,0,1,6.38-1c11.35-.17,22.43-1.68,32.93-6.25,7.79-3.39,15-7.66,20.2-14.63,7.85-10.53,7.24-22.08-1.57-31.8A50.65,50.65,0,0,0,242.44,170a3.44,3.44,0,0,1-1.56-1.73c-4.7-15.3-14.62-26.55-27.57-35.4-3.66-2.51-7.52-4.74-11.34-7.14,2.11-1.73,4.2-3.56,6.41-5.24,1.27-1,2.47-1.83,1.81-3.64,5.75-1.29,6.64-2.25,5.44-5.67,1.72-1.7,2.76-2.49,3.86-2.49a4.73,4.73,0,0,1,2.54,1.06q9.66,6.49,19.22,13.13c1.29.91,2.06,1.39,2.76,1.39s1.43-.55,2.6-1.74q32.61-33,65.19-66c4.86-4.93,9.57-10,14.29-15.08.53-.57,1.16-1.84.91-2.22A8.78,8.78,0,0,0,323.83,36c-15.12-6.76-30.3-13.35-45.42-20.09a4.73,4.73,0,0,0-1.94-.49Zm13.15,37.95A20.43,20.43,0,0,1,291,50.7c.27-.37.95-.45,1.45-.67l.27.46c-.35.23-.71.45-1.05.7s-.71.58-1.07.87c.1.17.2.34.31.51a13.62,13.62,0,0,1,2.38-1.2,2.68,2.68,0,0,1,.7-.08c.46,0,.95.08,1.42.09-.14.75,0,1.72-.46,2.2a12.49,12.49,0,0,1-2.64,1.75l-.36-.69,2.63-1.57-.36-.74a13.22,13.22,0,0,1-1.87.7c-.9.18-1.83.23-2.74.34Zm-2.15,5.28a6.45,6.45,0,0,0,1.84-.62,5.51,5.51,0,0,0-.79-1.48,13.3,13.3,0,0,0-2-1.32,2.13,2.13,0,0,1,1.41-.68c.9,0,1.58.84,2.25,1.24,1.21.72.8,1.71.06,2.62a3.4,3.4,0,0,1-2.5,1.57c-1,0-2.21-.75-3.78-2.35.31,0,.65-.05,1-.05a1.77,1.77,0,0,1,.56.08c.65.24,1.21.91,1.85,1ZM284,62.82a2.24,2.24,0,0,0,1.88-1.32.73.73,0,0,1,.5-.22h0c.09,0,.2.12.31.18-1,1.84-1.88,2.79-3,2.79s-2.22-.86-3.78-2.6c.6.06,1.35-.07,1.79.23a4.38,4.38,0,0,0,2.25.94Zm-4.18,1.35c-.09.73-.14,1.47-.28,2.19,0,.23-.3.41-.4.53l.65,2a8,8,0,0,1-2-.39,26.7,26.7,0,0,1-2.87-1.84,18.48,18.48,0,0,1,2.64-2.16,6.27,6.27,0,0,1,2.25-.29Zm-5.29,10.44c-1.62-1-3-1.91-4.85-3,1.14-1,2.06-1.78,3-2.56a2.8,2.8,0,0,1,1.63-.77c.67,0,1.19.56,1.6,1.71l2.45.2c.06.15.11.31.16.47a9.05,9.05,0,0,1-2,1,3.42,3.42,0,0,1-.87.09c-.5,0-1.08,0-1.84,0l1.93,1.63-1.22,1.33ZM269.66,79l-4.35-2.69,3.94-3.71.54.66-1.92,2.24.31.39,2.67-2,.43.44c-.56.75-1.12,1.49-1.69,2.23l.28.39,3.21-2.07.3.48c-1.21,1.18-2.41,2.37-3.72,3.66Zm-4.63.85h.12c-.53-.62-.94-1.09-1.46-1.68l1.18-1.38,3.4,3.67c-.47,1-1,1.33-1.66,1.33-.85,0-1.79-.54-2.74-.54h-.09c.56.78,1,1.46,1.51,2.14-.4.9-.57,1.36-1.27,1.36s-2.1-.52-5-1.61c.41-.71.58-1,1.24-1a15.16,15.16,0,0,1,2.24.34l-1.24-1.76c.34-1,.87-1.24,1.47-1.24s1.53.36,2.3.36ZM257.19,89.9h0c-.42-.32-1.58-.8-2-1.63-.28-.61.44-1.69.74-2.56,0-.11.17-.19.27-.28a4.17,4.17,0,0,1,2.7-1.27,2.76,2.76,0,0,1,2.76,2.75c-.1,1.44-2.34,3-4.49,3Zm-3.39,5.2c-1-.63-2.12-1.31-3.2-2-.32-.19-.62-.42-1.16-.79a14.3,14.3,0,0,1,2.72-2.51,2.29,2.29,0,0,1,1-.2c.54,0,1.13.1,1.68.1h0c-.18.77-.34,1.56-.55,2.32-.07.22-.3.39-.55.68,1.27.76,1.76,1.57,0,2.39Zm-28.22,3.7c-.65,2.68-7.43,8.23-9.88,8.23l-.22,0,10.1-8.21Zm-71,5.77c-.5,0-.77-.64-1.11-2l2.81.94c-.8.73-1.32,1.11-1.7,1.11Zm-8.11,7.82c-.36.88-.7,1.33-1.15,1.33s-1-.43-1.8-1.33ZM25,115.92c-.37,1.09-.73,1.64-1.26,1.64s-1.09-.45-2-1.35l3.23-.29Zm106.71,11.22c-.43,0-.92-.39-1.69-1.14.41-.66.82-.89,1.24-.89a5.38,5.38,0,0,1,1.88.8c-.6.82-1,1.23-1.43,1.23Zm-81.52.62L50,126.64a22.31,22.31,0,0,1,2.45-.23h0c.09,0,.18.75.28,1.15l-2.57.2ZM80,135.35c.67-1,1.29-1.44,1.91-1.44a1.91,1.91,0,0,1,1,.33c.21.13.13.73.19,1.11Zm34.1,6.55c.61-1.13,1-1.69,1.52-1.69s1,.47,1.91,1.4l-3.43.29Z"/><path d="M194,139a66.6,66.6,0,0,1,21.45,15.6c.71.8,1.38,1.63,2,2.5a131.44,131.44,0,0,0-19.16-1.43,118.37,118.37,0,0,0-19.57,1.63c3.84-6.43,9-12.14,15.24-18.3m-.69-5.61a1.59,1.59,0,0,0-1,.29c-7.76,7.48-15.14,15.29-20,25.07-.88,1.75-1.73,3.51-2.79,5.67a111.53,111.53,0,0,1,28.86-3.75,135.92,135.92,0,0,1,29.88,3.51,14,14,0,0,0-1-1.88c-2.65-3.7-5-7.64-8.05-11-7-7.82-15.57-13.44-25.07-17.74a2,2,0,0,0-.81-.15Z"/><path d="M264.87,76.79l-1.18,1.38c.52.59.93,1.06,1.46,1.68H265c-.77,0-1.59-.36-2.3-.36s-1.13.27-1.47,1.24l1.24,1.76a15.16,15.16,0,0,0-2.24-.34c-.66,0-.83.29-1.24,1,2.9,1.09,4.26,1.61,5,1.61s.87-.46,1.27-1.36c-.47-.68-1-1.36-1.51-2.14h.09c.95,0,1.89.54,2.74.54.62,0,1.19-.3,1.66-1.33l-3.4-3.67Z"/><path d="M274.29,68.23a2.8,2.8,0,0,0-1.63.77c-.94.78-1.86,1.58-3,2.56,1.83,1.14,3.23,2,4.85,3l1.22-1.33-1.93-1.63c.76,0,1.34,0,1.84,0a3.42,3.42,0,0,0,.87-.09,9.05,9.05,0,0,0,2-1c-.05-.16-.1-.32-.16-.47l-2.45-.2c-.41-1.15-.93-1.71-1.6-1.71Z"/><path d="M258.92,84.16a4.17,4.17,0,0,0-2.7,1.27c-.1.09-.24.17-.27.28-.3.87-1,2-.74,2.56.38.83,1.54,1.31,2,1.63h0c2.15,0,4.39-1.55,4.49-3a2.76,2.76,0,0,0-2.76-2.75Zm-.53,4.61L256.78,87c.47-.39,1-1.15,1.41-1.15h.06c.65.15,1.17.86,1.75,1.34l-1.61,1.57Z"/><path d="M269.25,72.6l-3.94,3.71L269.66,79c1.31-1.29,2.51-2.48,3.72-3.66l-.3-.48-3.21,2.07-.28-.39c.57-.74,1.13-1.48,1.69-2.23l-.43-.44-2.67,2-.31-.39,1.92-2.24-.54-.66Z"/><path d="M253.19,89.61a2.29,2.29,0,0,0-1,.2,14.3,14.3,0,0,0-2.72,2.51c.54.37.84.6,1.16.79,1.08.68,2.17,1.36,3.2,2,1.78-.82,1.29-1.63,0-2.39.25-.29.48-.46.55-.68.21-.76.37-1.55.55-2.32h0c-.55,0-1.14-.1-1.68-.1Z"/><path d="M287.93,54.55a2.13,2.13,0,0,0-1.41.68,13.3,13.3,0,0,1,2,1.32,5.51,5.51,0,0,1,.79,1.48,6.45,6.45,0,0,1-1.84.62h-.13c-.64-.07-1.2-.74-1.85-1a1.77,1.77,0,0,0-.56-.08c-.32,0-.66.05-1,.05,1.57,1.6,2.74,2.35,3.78,2.35a3.4,3.4,0,0,0,2.5-1.57c.74-.91,1.15-1.9-.06-2.62-.67-.4-1.35-1.24-2.25-1.24Z"/><path d="M279.8,64.17a6.27,6.27,0,0,0-2.25.29,18.48,18.48,0,0,0-2.64,2.16,26.7,26.7,0,0,0,2.87,1.84,8,8,0,0,0,2,.39l-.65-2c.1-.12.36-.3.4-.53.14-.72.19-1.46.28-2.19Z"/><path d="M225.58,98.8,215.48,107l.22,0c2.45,0,9.23-5.55,9.88-8.23Z"/><path d="M292.46,50c-.5.22-1.18.3-1.45.67a20.43,20.43,0,0,0-1.39,2.67c.91-.11,1.84-.16,2.74-.34a13.22,13.22,0,0,0,1.87-.7l.36.74L292,54.64l.36.69A12.49,12.49,0,0,0,295,53.58c.43-.48.32-1.45.46-2.2-.47,0-1-.09-1.42-.09a2.68,2.68,0,0,0-.7.08,13.62,13.62,0,0,0-2.38,1.2c-.11-.17-.21-.34-.31-.51.36-.29.71-.59,1.07-.87s.7-.47,1.05-.7l-.27-.46Z"/><path d="M303.78,57.28,286.24,75.5l.4.38,17.51-18.24-.37-.36Z"/><path d="M282.54,79.65,265.91,96.17l.12.12,16.72-16.43-.21-.21Z"/><path d="M286.38,61.28h0a.73.73,0,0,0-.5.22A2.24,2.24,0,0,1,284,62.82a4.38,4.38,0,0,1-2.25-.94c-.44-.3-1.19-.17-1.79-.23,1.56,1.74,2.75,2.6,3.78,2.6s2-1,3-2.79c-.11-.06-.22-.18-.31-.18Z"/><path d="M66.14,116.3A2.46,2.46,0,0,0,64,117.68a15.42,15.42,0,0,1,2.78.38c.51.18,1.15,1.11,1.29,1.11h0a13.78,13.78,0,0,0,1.87-1.8l-.42-.59a1.64,1.64,0,0,1-.54.08c-.91,0-1.89-.55-2.86-.55Z"/><path d="M267.41,31.56l-.22.66c1.71,2.51,4.74,1,6.81,2.42.07-.2.13-.39.2-.58l-6.79-2.5Z"/><path d="M115.57,140.21c-.51,0-.91.56-1.52,1.69l3.43-.29c-.89-.93-1.44-1.4-1.91-1.4Z"/><path d="M131.27,125.11c-.42,0-.83.23-1.24.89.77.75,1.26,1.14,1.69,1.14s.83-.41,1.43-1.23a5.38,5.38,0,0,0-1.88-.8Z"/><path d="M146.44,112.39h-2.95c.8.9,1.36,1.33,1.8,1.33s.79-.45,1.15-1.33Z"/><path d="M81.86,133.91c-.62,0-1.24.43-1.91,1.44h3.1c-.06-.38,0-1-.19-1.11a1.91,1.91,0,0,0-1-.33Z"/><path d="M52.49,126.41h0a22.31,22.31,0,0,0-2.45.23l.16,1.12,2.57-.2c-.1-.4-.19-1.15-.28-1.15Z"/><path d="M20.18,114.57h0M25,115.92l-3.23.29c.88.9,1.5,1.35,2,1.35s.89-.55,1.26-1.64Z"/><path d="M153.44,102.52c.34,1.41.61,2,1.11,2s.9-.38,1.7-1.11l-2.81-.94Z"/><path d="M258.19,85.85c-.38,0-.94.76-1.41,1.15l1.61,1.77L260,87.2c-.58-.48-1.1-1.19-1.75-1.34Z"/></g><path d="M294.46,45.37l1.72,1.71L250.29,93l-1.72-1.72,45.89-45.89m0-6.54a1.27,1.27,0,0,0-.9.37L242.41,90.36a1.27,1.27,0,0,0,0,1.8l7,7a1.28,1.28,0,0,0,.91.37,1.26,1.26,0,0,0,.9-.37L302.35,48a1.3,1.3,0,0,0,0-1.81l-7-7a1.28,1.28,0,0,0-.91-.37Z"/><path d="M207.8,180.52a61.85,61.85,0,0,1,13,1.26,31.79,31.79,0,0,1,6.13,2.33l.07,0a33.67,33.67,0,0,1-5.62,16.5c-5.82,2.5-12.23,3.69-22,4.08-8.37-.89-17-2.7-23.57-9.49a19.81,19.81,0,0,1-1.7-2.13c-.21-.28-.42-.58-.65-.88a26.17,26.17,0,0,1,4.87-4.53c6.59-4.1,14.13-6.38,23-7,2.3-.15,4.4-.22,6.44-.22m0-5q-3.39,0-6.76.23a53.84,53.84,0,0,0-25.35,7.71c-2.61,1.62-4.72,4.12-6.85,6.41a3.31,3.31,0,0,0,0,4.6c1.14,1.4,2.11,3,3.36,4.25,7.72,8,17.72,10.06,27,11,9.15-.34,16.92-1.35,24.26-4.53a4.22,4.22,0,0,0,1.81-1.34,38.44,38.44,0,0,0,6.83-21.68,2.09,2.09,0,0,0-.9-1.65c-3.06-1.33-6.1-3-9.32-3.65a67.39,67.39,0,0,0-14.09-1.37Z"/><path d="M194,136.79a66.6,66.6,0,0,1,21.45,15.6c.71.8,1.38,1.63,2,2.5a131.44,131.44,0,0,0-19.16-1.43,117.29,117.29,0,0,0-19.57,1.63c3.84-6.43,9-12.14,15.24-18.3m-.69-5.61a1.59,1.59,0,0,0-1,.29c-7.76,7.48-15.14,15.29-20,25.07-.88,1.75-1.73,3.51-2.79,5.67a111.53,111.53,0,0,1,28.86-3.75A136,136,0,0,1,228.18,162a14,14,0,0,0-1-1.88c-2.65-3.71-5-7.64-8.05-11-7-7.82-15.57-13.44-25.07-17.74a2,2,0,0,0-.81-.15Z"/><path d="M303.78,55.1,286.24,73.32l.4.38,17.51-18.24-.37-.36Z"/><path d="M282.54,77.47,265.91,94l.12.13,16.72-16.43-.21-.21Z"/><path d="M66.14,114.12A2.46,2.46,0,0,0,64,115.5a15.42,15.42,0,0,1,2.78.38c.51.18,1.15,1.11,1.29,1.11h0a14.42,14.42,0,0,0,1.87-1.8l-.42-.59a1.64,1.64,0,0,1-.54.08c-.91,0-1.89-.55-2.86-.55Z"/><path d="M267.41,29.38c-.07.22-.15.44-.22.66,1.71,2.5,4.74,1,6.81,2.42.07-.2.13-.39.2-.58l-6.79-2.5Z"/></svg>