<svg id="Calque_1" data-name="Calque 1" xmlns="http://www.w3.org/2000/svg" viewBox="0 0 350 300"><defs><style>.cls-1{fill:none;stroke:#020202;stroke-miterlimit:10;stroke-width:4px;}</style></defs><title>selected</title><g id="QyYfFt"><path class="cls-1" d="M236.43,103.72c-1.77-12.63-3.2-25.36-5.43-37.91-1.94-10.87-5.47-22-13.47-30-7.37-7.37-17.37-11.15-27.7-9.12l-.09,0a4.74,4.74,0,0,0-3.48.18c-12.15,4.29-24.35,8.45-36.51,12.72-1,.34-2.51,1.17-2.54,1.82-.15,3.62-3,4-5.28,4.6-3.46.94-4.71,2.9-4.55,6.49.23,5.18.06,10.39.06,15.7-1.27.14-2.1.29-2.93.32-7.64.2-7.83.2-7.74,7.86,0,3.88-2.44,4.17-5,4.43-2.67.27-5.4-.07-8.08.16A3.75,3.75,0,0,0,111,82.65c-1.51,3.93.12,6.22,4.25,6.51a14,14,0,0,1,2.07.49v6.43c-8.32,3.49-9.43,5.23-9.46,14.33,0,16.82-.18,33.63-.18,50.45,0,21.81.12,43.61.19,65.42,0,2.34,0,4.68,0,6.93-1.57.64-3.39.82-4.12,1.82a7.19,7.19,0,0,0-1.44,5c.57,2.93,3.18,3.36,5.81,3.36q32.37,0,64.75,0c1,0,2.23.22,2.87-.3,1.32-1.06,3.16-2.51,3.22-3.87.07-1.58-1.35-3.4-2.5-4.8-.57-.69-2-.66-3.18-1,0-1.36,0-2.59,0-3.82.07-19.44.21-38.88.2-58.31,0-20.18-.31-40.37-.1-60.55.07-7.37-1.65-12.81-9.67-14.37,0-1.34,0-2.45,0-3.56.39-6.13-1.6-10.72-7.71-12.87a3.11,3.11,0,0,1-1.35-2.22,27.85,27.85,0,0,1-.08-4.48c0-3-1.33-4.67-4.44-4.61-2,0-4.09,0-6.43,0,0-4.81,0-9,0-13.26,0-3.46,2.74-5.36,6-4.52a8.29,8.29,0,0,0,4.5,0c11.87-4,23.67-8.16,35.54-12.15,1.7-.57,2.83-1.33,3.32-2.4,8.38-1.34,16.43,4.13,20.91,10.89,5.5,8.3,7.09,18.58,8.48,28.23,1.49,10.34,2.9,20.69,4.35,31,1.49,10.65,3.52,21.62,1.26,32.31-1.33,6.27,8.31,9,9.64,2.65C240.35,128.76,238.18,116.26,236.43,103.72Z"/><path class="cls-1" d="M102.87,72.92a7,7,0,0,1-.06,14,7,7,0,0,1,.06-14Z"/></g><path class="cls-1" d="M198,246.52q8.94-47.84,17.87-95.66c0-3.22,2.25-5.86,5-5.86h23.28c2.74,0,5,2.64,5,5.86q8.93,47.34,17.87,94.68Z"/></svg>