<svg id="Calque_1" data-name="Calque 1" xmlns="http://www.w3.org/2000/svg" viewBox="0 0 350 300"><title>selected</title><g id="RpMtw6.tif"><path d="M85.21,43l.91,0h.32a14.94,14.94,0,0,1,3.29.41,26.65,26.65,0,0,1,2.87,5.36,13.68,13.68,0,0,0-5.43-3.95A11.39,11.39,0,0,0,83,44c-6.87,0-13.29,5.74-15.4,7.62l-.14.13a38.41,38.41,0,0,0-4.14,4.3,23.25,23.25,0,0,1,4.52-6.23A25.15,25.15,0,0,1,85.21,43m104.5,13.94h.34L187,58,178.79,61l-4.65,1.66L170.43,64l1.28,3.73c.67,2,1.36,3.72,2,5.42a40.06,40.06,0,0,1,2.69,8.55,6.5,6.5,0,0,1,0,2.27,6.68,6.68,0,0,1-1.9.18c-.63,0-1.31,0-2-.06s-1.58-.07-2.4-.07c-4.5,0-7.09,1.46-8.54,3.44a3.57,3.57,0,0,1-1-.66,10,10,0,0,1-1.1-3c-.27-1-.54-2-.94-3-.72-1.82-1.48-3.55-2.3-5.39q-.53-1.17-1.05-2.4l-1.49-3.43-3.52,1.25-8,2.83-4.43,1.57-3,1.09a8.21,8.21,0,0,1,3.17-1.6c17.89-6,35.48-12.28,48.81-17.11a9.3,9.3,0,0,1,3-.67m1.34.62a8.45,8.45,0,0,1,1.31,2.72c3.44,10.39,7.14,20.8,10.72,30.86,1.44,4.06,2.88,8.1,4.29,12.12l.69,2,2,.56a7.92,7.92,0,0,1,.78.26,6.67,6.67,0,0,0,2.43.54,4.7,4.7,0,0,0,1.54-.26l2.8-1c3.56-1.26,6.39-2.27,7.65-2.3l0,0-3.76,1.32-16.65,5.87-6.33,2.23-3.77,1.33,1.33,3.77c.93,2.66,1.84,5.2,2.72,7.68,1.93,5.43,3.76,10.56,5.42,15.69a12.82,12.82,0,0,1,.73,3.4,11.87,11.87,0,0,1-2.6-.68,18.65,18.65,0,0,0-6.33-1.23c-4.91,0-8.82,2.49-11.94,7.63a11.25,11.25,0,0,1-1.71,2.28,11.87,11.87,0,0,1-1.32-2.86c-1.84-5.36-3.78-10.62-5.84-16.18q-1.37-3.7-2.78-7.57L171.11,122l-3.73,1.32-3.91,1.38-11.41,4-1.44-4.15c-1.52-4.35-3-8.72-4.46-13C142.53,101,139.1,91,135.23,80.88a11.33,11.33,0,0,1-.87-3.36l1,2.79,9,25.46,6.51,18.37,1.33,3.76,3.76-1.32,18.5-6.51L205,109.33l3.77-1.32-1.32-3.77-3.56-10.13L192.08,60.47l-1-2.94m-10.7,89.21,3.86-1.52,8.79-3.44,6.33-2.49,3.59-1.41-1.28-3.65L198,123.93l-2.24-6.33-1.36-3.85-3.82,1.44-10.43,3.91-4.75,1.79-3.67,1.38L173,126,179,142.83l1.37,3.91m-101-82.53a3.31,3.31,0,0,1,.54.77L77.21,66.3a17,17,0,0,1-7.15,2,8.17,8.17,0,0,1-2.84-.47c1.41-.33,3.57-.93,7-2l1.82-.57c1.38-.44,2.69-.85,3.3-1m24,13.47c5.42,16.07,11.7,36,17.78,55.36,8,25.36,16.24,51.6,22.8,69.89,1.24,3.44,2.55,7,3.81,10.27l1.21,3.17-1.95.69c-6.06-15.65-29.17-91.71-40.71-129.73l-2.94-9.65m122,25.39a41.78,41.78,0,0,1,2.7,6.79c.41,1.17.86,2.46,1.37,3.89,5.06,14.16,9.93,28.13,15.1,42.92q3.33,9.54,6.76,19.32l1.25,3.57,3.51-1-.22.12-88.27,31.16-1.13-3.23c-2.22-6.32-4.44-12.71-6.59-18.9-5.35-15.44-10.89-31.39-16.67-46.92a27.79,27.79,0,0,1-1.61-5.76l.53,1.51,9.13,25.93,15.29,43.44,1.33,3.77,3.77-1.33,51.76-18.25,25.31-8.93,3.77-1.33-1.33-3.77L237.64,138l-11-31.17-1.33-3.75M150.4,129.33l-5.92,2.09-2.63.93c.7-1.07,2.72-2,5.71-2.5l2.84-.52M270.67,175c2.66,0,5.73.7,8.5,5.7v2.85c-.94.77-1.85,1.56-2.75,2.32a52.82,52.82,0,0,1-9,6.7,68.43,68.43,0,0,1-11.57,4.39c-1.91.6-3.89,1.22-5.83,1.91l-57.56,20.44L174,225.8l-.2.07-.19.09c-4.9,2.34-9.39,4.4-13.38,6.12H160a24.42,24.42,0,0,0-16.13,6.09,27.61,27.61,0,0,1-4.33.88,5.07,5.07,0,0,0,.08-2.21l2.24-.79,3.49-1.22,4.39-1.54,21.63-7.62,76.59-27,4.89-1.71c5.57-1.92,11.32-3.91,16.88-6.3,2.62-1.13,3.68-3.72,4.54-5.81a16.21,16.21,0,0,1,.74-1.65l2.43-4.39-4.82-1.39c-.43-.13-.95-.33-1.49-.54a13.61,13.61,0,0,0-5-1.2h0a5.37,5.37,0,0,0-.7,0,21.65,21.65,0,0,1,5.25-.77m-109,65.22a16.65,16.65,0,0,1-1.68,33.2h-.37a16.68,16.68,0,0,1-16.23-17A16.43,16.43,0,0,1,148,245.31a142.21,142.21,0,0,0,13.75-5.14M85.21,39A29.12,29.12,0,0,0,65,47a28.42,28.42,0,0,0-8,15.75c3.22,6.12,7.47,9.5,13.06,9.5A20.64,20.64,0,0,0,79,69.9c6.63,20.19,12.9,39.87,19.55,59.41,12.29,36.11,24.83,72.13,37.15,108.23.26.77-1.45,3-.5,4.38.56.82,1.71,1.18,3.35,1.18a28.65,28.65,0,0,0,7.34-1.33A20.49,20.49,0,0,1,160,236.08h.44l.62,0c4.59-2,9.46-4.2,14.35-6.54,24.56-8.72,50.25-17.86,76-27,6-2.13,12.37-3.58,17.93-6.54,5.08-2.7,9.3-7,13.9-10.63v-5.75c-3.34-6.68-7.7-8.72-12.5-8.72-5,0-10.4,2.19-15.66,3.72-7.52-21.44-14.59-41.89-21.87-62.27C229.63,102.58,229,99,225.34,99c-2.28,0-5.75,1.38-11.84,3.51a.54.54,0,0,1-.22,0,14.82,14.82,0,0,1-2.14-.66c-4.95-14.07-10.19-28.41-15-42.9-1.4-4.22-3.39-6.09-6.45-6.09a13,13,0,0,0-4.35.91c-16.18,5.86-32.4,11.62-48.72,17.07-6.33,2.12-7.53,5.18-5.15,11.42,5.43,14.18,10.14,28.64,15.35,43.6-11.23,2-10.49,8.12-7.46,16.26,8.06,21.66,15.44,43.57,23.22,65.75l-11.14,3.85c-.65-1.7-2.07-5.45-3.77-10.19C129.58,151.1,99.26,42.19,91.5,39.75A18,18,0,0,0,86.44,39H86.3c-.24,0-.61,0-1.09,0ZM64.52,64.17c-.34,0-.45-.08-.52-.17-1-1.2,2.36-5.92,6.09-9.23C71.66,53.36,77.47,48,83,48a7.63,7.63,0,0,1,2.74.5c4.78,1.87,6.9,7.81,7.71,10.39,7,22.4,49,163.08,51.57,163.08h0s112.48-39.7,112.48-39.7a22.44,22.44,0,0,1,8.17-2.59,3.59,3.59,0,0,1,.47,0c1.72,0,3.57,1.06,5.36,1.58-1.1,2-1.73,5-3.36,5.73-7,3-14.31,5.36-21.52,7.9l-98.21,34.62-7.88,2.77C101.66,120.21,88.65,81,87.72,76c-.52-2.77-1.9-4.7-2.92-9.1-.82-3.51-2.08-5.64-3.93-6.48a2.91,2.91,0,0,0-1.24-.27c-1.17,0-2.82.6-6.55,1.76-5.73,1.79-7.77,2.23-8.56,2.23Zm110,23.93c3.67,0,6.69-.86,5.84-7-.65-4.63-2.95-9-4.9-14.72L188.3,61.8c5.19,14.8,10.11,28.81,15.35,43.76l-49,17.25C149.42,108,144.45,94,139.12,79l12.4-4.4c1.16,2.68,2.31,5.15,3.3,7.67s1.17,5.25,2.7,7.08,4.2,2.39,6.38,3.52c.22-4.22,3-4.87,6.22-4.87,1.45,0,3,.13,4.43.13Zm30.85,60.26c4,0,4.29-3.67,2.67-8.66-2.44-7.51-5.19-14.92-8.18-23.46l23-8.09,24.44,69.23-77.07,27.18c-8.08-23-16.07-45.65-24.42-69.37l22.9-8.09c3,8.34,5.95,16,8.6,23.68,1.36,4,3.06,5.91,4.92,5.91,1.68,0,3.49-1.56,5.31-4.55,2.39-3.93,5.09-5.71,8.52-5.71a14.82,14.82,0,0,1,5,1,13.33,13.33,0,0,0,4.36.93Zm-22.65-6.86c-1.66-4.72-3.63-10.32-5.94-16.87l15.18-5.7c2.25,6.38,4.22,12,5.88,16.64l-15.12,5.93ZM161,236.11a137,137,0,0,1-15.19,5.66,20.64,20.64,0,0,0,13.72,35.6H160a20.64,20.64,0,0,0,1-41.26Z"/><path d="M220.42,113.25l9.7,27.49,12.07,34.2-19.54,6.89-50,17.63-13.17-37.4-8.6-24.43,15.41-5.44,1.43,3.88c2,5.52,4,10.73,5.77,16,2,5.71,4.89,8.61,8.71,8.61,3.18,0,6.12-2.18,8.73-6.48,2-3.33,3.64-3.78,5.1-3.78a11,11,0,0,1,3.62.76,17.11,17.11,0,0,0,5.72,1.17,7.25,7.25,0,0,0,6.14-2.87c1.82-2.5,1.93-6.11.33-11-1.7-5.23-3.54-10.42-5.5-15.9-.45-1.27-.91-2.57-1.38-3.88l7-2.46,8.45-3m2.44-5.1-23,8.09c3,8.54,5.74,16,8.18,23.46,1.62,5,1.36,8.66-2.67,8.66a13.33,13.33,0,0,1-4.36-.93,14.82,14.82,0,0,0-5-1c-3.43,0-6.13,1.78-8.52,5.71-1.82,3-3.63,4.55-5.31,4.55-1.86,0-3.56-1.92-4.92-5.91-2.65-7.72-5.56-15.34-8.6-23.68l-22.9,8.09c8.35,23.72,16.34,46.4,24.42,69.37l77.07-27.18-24.44-69.23Z"/><path d="M185.86,66.92l9.91,28.27,2.78,7.92-24.5,8.63-17,6L152,103.42l-7.8-22,5.13-1.82c.62,1.41,1.21,2.76,1.75,4.12.24.62.44,1.37.66,2.16a15,15,0,0,0,2.7,6,14.23,14.23,0,0,0,5.79,3.69c.66.28,1.29.54,1.81.81l5.5,2.85.33-6.19a3.11,3.11,0,0,1,.14-.85,5.87,5.87,0,0,1,2.09-.23c.64,0,1.32,0,2,.06s1.57.07,2.38.07c2.53,0,5.72-.33,7.94-2.88,1.78-2,2.39-4.88,1.86-8.67a45.94,45.94,0,0,0-3.16-10.37c-.18-.46-.37-.92-.55-1.39l1.23-.44,4-1.43m2.44-5.12-12.81,4.58c1.95,5.69,4.25,10.09,4.9,14.72.85,6.14-2.16,7-5.84,7-1.44,0-3-.13-4.43-.13-3.22,0-6,.65-6.22,4.87-2.18-1.13-4.92-1.79-6.38-3.52s-1.77-4.71-2.7-7.08-2.14-5-3.3-7.67L139.12,79c5.33,15.06,10.3,29.07,15.53,43.84l49-17.25c-5.24-15-10.16-29-15.35-43.76Z"/><path d="M160,236.08v4h.35a16.65,16.65,0,0,1-.3,33.29h-.37a16.68,16.68,0,0,1-16.23-17,16.4,16.4,0,0,1,2.27-8.06,19.81,19.81,0,0,0-2.11,7.45,14.93,14.93,0,0,0,3.93,11.35,16.07,16.07,0,0,0,11.81,5.28h.13c9.16-.08,15-5.45,16.54-15.11l.09-.55-.07-.55c-1.18-9.88-6.82-15.43-15.9-15.64h-.52a17.2,17.2,0,0,0-7.83,1.73,16.4,16.4,0,0,1,8.21-2.21v-4m0,0a20.65,20.65,0,0,0-.41,41.29H160a20.64,20.64,0,0,0,.39-41.28Zm-.65,32.33c-6.64,0-12.36-5.78-11.75-12.26.66-7.13,4.63-11.59,12-11.59H160c7.7.18,11.17,5,12,12.12-1.15,7.33-5,11.66-12.63,11.73Z"/><path d="M159.59,248.56h.34c3.44.08,7.06,1.11,8.07,8-1.25,6.81-5.05,7.78-8.62,7.81h-.06a8,8,0,0,1-5.89-2.67,6.79,6.79,0,0,1-1.88-5.22c.67-7.14,4.91-8,8-8m0-4c-7.39,0-11.36,4.46-12,11.59-.61,6.48,5.11,12.26,11.75,12.26h.09c7.59-.07,11.48-4.4,12.63-11.73-.85-7.16-4.32-11.94-12-12.12Z"/></g><path d="M157.46,229.58a25.71,25.71,0,1,1-25.71,25.71,25.75,25.75,0,0,1,25.71-25.71m0-4a29.71,29.71,0,1,0,29.71,29.71,29.71,29.71,0,0,0-29.71-29.71Z"/><path d="M157.46,244a10.38,10.38,0,1,1-10.38,10.38A10.38,10.38,0,0,1,157.46,244m0-4a14.38,14.38,0,1,0,14.37,14.38A14.38,14.38,0,0,0,157.46,240Z"/></svg>