<svg id="Calque_1" data-name="Calque 1" xmlns="http://www.w3.org/2000/svg" viewBox="0 0 350 300"><title>selected</title><path d="M169.69,97c-11.46,0-20.75,10.07-20.75,22.5S158.23,142,169.69,142s20.75-10.07,20.75-22.49S181.15,97,169.69,97Zm0,37.5c-7.64,0-13.83-6.72-13.83-15s6.19-15,13.83-15,13.83,6.71,13.83,15-6.19,15-13.83,15Z"/><path d="M135.1,89.5a9.74,9.74,0,0,0-4.59,1.16,11.6,11.6,0,0,0-5.43,13,11.14,11.14,0,0,0,4.84,6.84,9.77,9.77,0,0,0,5.18,1.5,10,10,0,0,0,7.81-3.84,12,12,0,0,0,.42-14.27,10.12,10.12,0,0,0-8.23-4.39Zm0,15a3.26,3.26,0,0,1-1.73-.5,3.93,3.93,0,0,1-1.26-5.13,3.3,3.3,0,0,1,3-1.87h0a3.19,3.19,0,0,1,1.72.5,3.93,3.93,0,0,1,1.27,5.12,3.41,3.41,0,0,1-3,1.88Z"/><path d="M135.14,130.71a9.76,9.76,0,0,0-5.22,1.53c-5,3.11-6.65,10-3.79,15.37a10.25,10.25,0,0,0,9,5.63,9.71,9.71,0,0,0,5.17-1.51c5-3.1,6.67-10,3.81-15.36a10.46,10.46,0,0,0-6.29-5.28,9.42,9.42,0,0,0-2.67-.38Zm0,15h-.23a3.58,3.58,0,0,1-3.2-3.25,3.76,3.76,0,0,1,2.31-4,3.1,3.1,0,0,1,1.11-.2,3.43,3.43,0,0,1,3,1.87,4,4,0,0,1,.34,2.86h0a3.5,3.5,0,0,1-3.33,2.78Z"/><path d="M169.69,149.49c-5.73,0-10.37,5-10.37,11.25S164,172,169.69,172s10.37-5,10.37-11.25-4.64-11.25-10.37-11.25Zm0,15a3.76,3.76,0,1,1,3.46-3.75,3.62,3.62,0,0,1-3.46,3.75Z"/><path d="M204.28,130.74a10.25,10.25,0,0,0-9,5.63c-2.87,5.38-1.17,12.27,3.8,15.37a9.65,9.65,0,0,0,5.18,1.51,10.27,10.27,0,0,0,9-5.63c2.86-5.39,1.16-12.27-3.81-15.38a9.7,9.7,0,0,0-5.17-1.5Zm0,15a3.32,3.32,0,0,1-1.11-.19,3.78,3.78,0,0,1-2.31-4.05,3.58,3.58,0,0,1,3.2-3.25h.23a3.53,3.53,0,0,1,3.34,2.78,4.07,4.07,0,0,1-.35,2.85,3.41,3.41,0,0,1-3,1.87Z"/><path d="M202.66,87.62A9.53,9.53,0,0,0,200,88c-5,1.46-8.28,6.73-7.61,12.33s5.07,9.79,10.27,9.79h0a9.74,9.74,0,0,0,5.16-1.5,11.72,11.72,0,0,0,4.41-14,10.4,10.4,0,0,0-9.58-7Zm-1.75,8a3.25,3.25,0,0,1,1.72-.5,3.41,3.41,0,0,1,3,1.89,3.92,3.92,0,0,1-1.28,5.12,3.27,3.27,0,0,1-1.71.49,3.42,3.42,0,0,1-3-1.88,4,4,0,0,1-.35-2.85,3.74,3.74,0,0,1,1.62-2.28Z"/><path d="M252.21,60.6a113.15,113.15,0,0,1,16.21,58.9c0,46-26.82,86.84-66.78,101.71A91.17,91.17,0,0,1,169.73,227a92.73,92.73,0,0,1-42.88-10.67,101.12,101.12,0,0,1-34.93-30.67c-26-36.3-27.95-86.54-4.76-125l11,16.67,1.48,2.25h14A76.61,76.61,0,0,0,122,170.59c12.71,13.78,29.63,21.38,47.67,21.4s35-7.62,47.66-21.4a76.64,76.64,0,0,0,8.36-91.09h14.06l1.48-2.25,11-16.65M169.69,7c-50.41,0-89.9,19.77-89.9,45a4,4,0,0,0,.64,2.18L82.92,58c-24.25,40.21-22.27,92.69,4.93,130.62,20,27.93,50.48,43.42,81.88,43.42a96.35,96.35,0,0,0,33.65-6.1c41.91-15.6,70.05-58.35,70-106.4a118.37,118.37,0,0,0-17-61.54l2.49-3.78a4,4,0,0,0,.65-2.18c0-25.23-39.49-45-89.9-45ZM102.31,74.53,86.75,50.9c1.38-19.87,38.8-36.4,82.94-36.4S251.25,31,252.63,50.87L237.07,74.5H222.71l-.91-.75a26,26,0,0,0,2.39-3.12,3.78,3.78,0,0,0,.82.12h8.5a3.4,3.4,0,0,0,2.82-1.57l11.75-17.85a4,4,0,0,0,.43-3.47c-4.95-14.56-35.78-29.61-78.82-29.61s-73.88,15-78.82,29.62a4.06,4.06,0,0,0,.43,3.48l11.76,17.84a3.38,3.38,0,0,0,2.82,1.57h8.48a3.23,3.23,0,0,0,.82-.1,26,26,0,0,0,2.39,3.12l-.91.75Zm5.34-11.28L98.11,48.78c5.7-10,32.62-23,71.58-23s65.88,13.07,71.57,23l-9.54,14.47h-5.57l-1.08-.87a3.26,3.26,0,0,0-2.06-.74,3.46,3.46,0,0,0-.84.11,3.53,3.53,0,0,0-2.28,2h0a17.23,17.23,0,0,1-15.61,10.7l-.75,0c-6.94-.33-13-5.12-15.45-12.18a3.55,3.55,0,0,0-2.57-2.36,3,3,0,0,0-.67-.07A3.33,3.33,0,0,0,182.3,61a16.31,16.31,0,0,1-25.24,0,3.33,3.33,0,0,0-2.53-1.19,3.05,3.05,0,0,0-.67.07,3.55,3.55,0,0,0-2.57,2.36c-2.42,7.06-8.51,11.85-15.44,12.18l-.76,0a17.23,17.23,0,0,1-15.61-10.7,3.53,3.53,0,0,0-2.28-2,3.46,3.46,0,0,0-.84-.11,3.24,3.24,0,0,0-2.06.74l-1.07.87Zm62,26.25c5.73,0,10.37-5,10.37-11.25a11.9,11.9,0,0,0-1.5-5.75,22.21,22.21,0,0,0,5.18-2.9A24,24,0,0,0,204.27,82a22.55,22.55,0,0,0,3.66-.34c18.95,22.43,18,57.14-2.11,78.34a49,49,0,0,1-72.27,0c-20.12-21.2-21.06-55.91-2.1-78.34a22.45,22.45,0,0,0,3.66.34,24,24,0,0,0,20.54-12.4,22.21,22.21,0,0,0,5.18,2.9,11.8,11.8,0,0,0-1.51,5.75c0,6.21,4.64,11.25,10.37,11.25Zm0-7.5a3.76,3.76,0,1,1,3.46-3.75A3.62,3.62,0,0,1,169.69,82Zm0,101.35a56.2,56.2,0,0,0,40.18-17.22c22.61-23,24.9-61,5.25-87l1-.61,3.32,2.7a3.4,3.4,0,0,0,1.86.71,70.65,70.65,0,0,1,10.58,37.54c0,37.26-27.88,67.45-62.24,67.49s-62.2-30.23-62.24-67.49A70.75,70.75,0,0,1,118,82a3.37,3.37,0,0,0,1.86-.71l3.32-2.7,1,.61c-19.65,26-17.35,64,5.25,87a56.21,56.21,0,0,0,40.19,17.22Z"/></svg>