<svg id="Calque_1" data-name="Calque 1" xmlns="http://www.w3.org/2000/svg" viewBox="0 0 350 300"><title>selected</title><path d="M307.7,50a9.31,9.31,0,0,1,9.3,9.3V227.77a9.31,9.31,0,0,1-9.3,9.3H68.3a9.31,9.31,0,0,1-9.3-9.3V59.3A9.31,9.31,0,0,1,68.3,50H307.7M68.3,236.2H307.7a8.44,8.44,0,0,0,8.43-8.43V59.3a8.44,8.44,0,0,0-8.43-8.43H68.3a8.44,8.44,0,0,0-8.43,8.43V227.77a8.44,8.44,0,0,0,8.43,8.43M307.7,46H68.3A13.29,13.29,0,0,0,55,59.3V227.77a13.3,13.3,0,0,0,13.3,13.3H307.7a13.3,13.3,0,0,0,13.3-13.3V59.3A13.29,13.29,0,0,0,307.7,46ZM68.3,232.2a4.43,4.43,0,0,1-4.43-4.43V59.3a4.43,4.43,0,0,1,4.43-4.43H307.7a4.43,4.43,0,0,1,4.43,4.43V227.77a4.43,4.43,0,0,1-4.43,4.43Z"/><path d="M148,68.18v4a71.39,71.39,0,0,1,70,85.65l-.43,2.11,1.52,1.52,25.32,25.31a9.35,9.35,0,0,1,0,13,9.3,9.3,0,0,1-13.13.13L213.7,182.38l-6.83-6.81V184A71.37,71.37,0,1,1,148,72.18v-4m89.86,133.63a8.44,8.44,0,0,0,6-14.4l-40.75-40.75-2.83-2.83-2.83,2.83-6.27,6.27-2.83,2.82,2.83,2.83,40.75,40.76a8.38,8.38,0,0,0,6,2.47M148,68.18a75.38,75.38,0,1,0,62.88,117v0l17.57,17.57A13.3,13.3,0,0,0,247.25,184l-25.34-25.34A75.45,75.45,0,0,0,148,68.18Zm89.85,129.63a4.39,4.39,0,0,1-3.13-1.3L194,155.76l6.28-6.27L241,190.24a4.44,4.44,0,0,1-3.14,7.57Z"/><path d="M150.47,124.63A17.54,17.54,0,1,0,168,142.17a17.54,17.54,0,0,0-17.53-17.54Zm0,28.06A10.52,10.52,0,1,1,161,142.17a10.52,10.52,0,0,1-10.52,10.52Z"/><path d="M81.6,205.17a9.3,9.3,0,1,1-9.3,9.3,9.31,9.31,0,0,1,9.3-9.3m0-4a13.3,13.3,0,1,0,13.3,13.3,13.29,13.29,0,0,0-13.3-13.3Z"/><path d="M81.6,63.3a9.3,9.3,0,1,1-9.3,9.3,9.31,9.31,0,0,1,9.3-9.3m0-4A13.3,13.3,0,1,0,94.9,72.6,13.29,13.29,0,0,0,81.6,59.3Z"/><path d="M219,205.17a9.3,9.3,0,1,1-9.3,9.3,9.31,9.31,0,0,1,9.3-9.3m0-4a13.3,13.3,0,1,0,13.3,13.3,13.3,13.3,0,0,0-13.3-13.3Z"/><path d="M219,63.3a9.3,9.3,0,1,1-9.3,9.3,9.31,9.31,0,0,1,9.3-9.3m0-4a13.3,13.3,0,1,0,13.3,13.3A13.3,13.3,0,0,0,219,59.3Z"/><path d="M294.43,59.31l0,4a9.25,9.25,0,0,1,9.25,9.29V214.47a9.26,9.26,0,0,1-6.19,8.76,9,9,0,0,1-3.08.53,9.27,9.27,0,0,1-8.74-6.19l-.94-2.67H258.93a.43.43,0,0,1-.43-.43V72.6a.43.43,0,0,1,.43-.43h25.82l.94-2.67a9.27,9.27,0,0,1,8.74-6.19v-4m-35.06,61h43.46v-41l-5.39,2-.24.09a9.07,9.07,0,0,1-11.5-5.67L284.78,73H259.37v47.29m0,93.71h25.41l.92-2.71.09-.24a9.1,9.1,0,0,1,8.5-5.92,9,9,0,0,1,3.15.57l5.39,2V121.18H259.37V214M294.43,59.31a13.26,13.26,0,0,0-12.51,8.86h-23a4.43,4.43,0,0,0-4.43,4.43V214.47a4.43,4.43,0,0,0,4.43,4.43h23a13.27,13.27,0,0,0,25.78-4.43V72.6a13.27,13.27,0,0,0-13.24-13.29Zm-31.06,57V77h18.55a13.07,13.07,0,0,0,16.57,8.18l.34-.13v31.24Zm0,93.71V125.18h35.46V202A13,13,0,0,0,282,209.69l-.12.34Z"/></svg>