<?xml version="1.0" encoding="utf-8"?>
<!-- Generator: Adobe Illustrator 22.1.0, SVG Export Plug-In . SVG Version: 6.00 Build 0)  -->
<svg style="enable-background:new 0 0 500 500;" id="Calque_1" version="1.1" viewBox="0 0 500 500" x="0px"
     xmlns="http://www.w3.org/2000/svg" y="0px" xml:space="preserve">
<style type="text/css">
	.st0{fill:#EAEAEA;}
	.st1{fill:#8C8C8C;}
	.st2{fill:#FFFFFF;}
	.st3{fill:#EAEAEA;stroke:#8C8C8C;stroke-width:7;stroke-miterlimit:10;}
	.st4{fill:#070707;}
	.st5{fill:none;stroke:#8C8C8C;stroke-width:7;stroke-miterlimit:10;}
	.st6{fill:none;stroke:#8C8C8C;stroke-width:10;stroke-miterlimit:10;}
	.st7{fill:#8C8C8C;stroke:#8C8C8C;stroke-width:3;stroke-miterlimit:10;}
	.st8{fill:none;stroke:#8C8C8C;stroke-width:8;stroke-miterlimit:10;}
	.st9{fill:none;stroke:#8E8E8E;stroke-width:6;stroke-miterlimit:10;}
	.st10{fill:#8E8E8E;}
	.st11{fill:#505050;}
	.st12{fill:none;stroke:#8E8E8E;stroke-width:2;stroke-miterlimit:10;}
	.st13{fill:#8C8C8C;stroke:#8C8C8C;stroke-width:2;stroke-miterlimit:10;}
	.st14{fill:#8C8C8C;stroke:#FFFFFF;stroke-width:2;stroke-miterlimit:10;}
	.st15{fill:none;stroke:#FFFFFF;stroke-width:2;stroke-miterlimit:10;}
	.st16{fill:none;stroke:#8C8C8C;stroke-miterlimit:10;}
	.st17{fill:none;stroke:#8C8C8C;stroke-width:13;stroke-miterlimit:10;}
	.st18{fill:#EAEAEA;stroke:#8C8C8C;stroke-width:8;stroke-miterlimit:10;}
	.st19{fill:none;stroke:#8C8C8C;stroke-width:4;stroke-miterlimit:10;}
	.st20{fill:#8C8C8C;stroke:#8C8C8C;stroke-width:0.75;stroke-miterlimit:10;}
	.st21{fill:none;stroke:#8C8C8C;stroke-width:9;stroke-miterlimit:10;}
	.st22{fill:#8C8C8C;stroke:#8C8C8C;stroke-width:0.5;stroke-miterlimit:10;}
	.st23{fill:#6B6B6B;}
	.st24{fill:none;}
	.st25{stroke:#8C8C8C;stroke-width:8;stroke-miterlimit:10;}
	.st26{fill:#8C8C8C;stroke:#8C8C8C;stroke-miterlimit:10;}
	.st27{fill:none;stroke:#8C8C8C;stroke-width:11;stroke-miterlimit:10;}
	.st28{fill:none;stroke:#8C8C8C;stroke-width:6;stroke-miterlimit:10;}
	.st29{stroke:#8C8C8C;stroke-width:6;stroke-miterlimit:10;}
	.st30{fill:#8C8C8C;stroke:#8C8C8C;stroke-width:4;stroke-miterlimit:10;}
	.st31{fill:#8C8C8C;stroke:#8C8C8C;stroke-width:1.05;stroke-miterlimit:10;}
	.st32{fill:#D6D6D6;}
	.st33{fill:none;stroke:#EAEAEA;stroke-width:5;stroke-miterlimit:10;}
	.st34{font-family:'HelveticaNeue-CondensedBold';}
	.st35{font-size:54px;}
	.st36{fill:#8C8C8C;stroke:#8C8C8C;stroke-width:10;stroke-miterlimit:10;}
	.st37{fill:none;stroke:#CECECE;stroke-width:2;stroke-miterlimit:10;}
	.st38{fill:none;stroke:#FFFFFF;stroke-width:4;stroke-miterlimit:10;}
	.st39{fill-rule:evenodd;clip-rule:evenodd;fill:#8C8C8C;}
	.st40{fill:#8C8C8C;stroke:#8C8C8C;stroke-width:8;stroke-miterlimit:10;}
	.st41{fill:#8C8C8C;stroke:#8C8C8C;stroke-width:7;stroke-miterlimit:10;}
	.st42{fill:#DBDBDB;stroke:#8C8C8C;stroke-width:7;stroke-miterlimit:10;}
	.st43{fill:none;stroke:#8C8C8C;stroke-width:5;stroke-miterlimit:10;}
	.st44{fill:none;stroke:#8C8C8C;stroke-width:3;stroke-miterlimit:10;}
	.st45{clip-path:url(#SVGID_2_);fill:#8C8C8C;}
	.st46{clip-path:url(#SVGID_2_);fill:none;stroke:#8C8C8C;stroke-width:8;stroke-miterlimit:10;}
	.st47{clip-path:url(#SVGID_2_);fill:#FFFFFF;}
	.st48{clip-path:url(#SVGID_2_);fill:#EAEAEA;}
	.st49{clip-path:url(#SVGID_2_);fill:none;stroke:#8C8C8C;stroke-miterlimit:10;}
	.st50{fill:none;stroke:#FFFFFF;stroke-width:0.75;stroke-miterlimit:10;}
	.st51{fill:none;stroke:#8C8C8C;stroke-width:14;stroke-miterlimit:10;}
	.st52{fill:none;stroke:#EAEAEA;stroke-width:2;stroke-miterlimit:10;}
	.st53{fill:none;stroke:#8C8C8C;stroke-width:2;stroke-miterlimit:10;}
</style>
    <rect class="st0" height="500" width="500" x="1" y="-1"/>
    <path class="st1" d="M331.7,208.8c12.6-22.2,18-51.3,19.8-62.3c6-1.5,10.4-6.8,10.4-13.1c0-6.6-4.9-12.1-11.4-13.3
	C340.1,98.7,317.8,85,293.3,85h-70.5c-24.6,0-46.8,13.7-57.3,35.1c-6.5,1.2-11.4,6.7-11.4,13.3c0,6.3,4.4,11.6,10.4,13.1
	c0.6,6.1,2.7,20.9,8.8,38c9.4,26.6,24.6,47.5,44.1,60.8c-3.4,2.5-5.5,6.4-5.5,10.8c0,5.8,3.9,10.8,9.2,12.7
	c-5.9,20.1-14.8,32.6-19.5,37.4c-6.9,0.8-12.3,6.5-12.3,13.4c0,7.4,6.2,13.5,13.9,13.5h109.9c7.7,0,13.9-6.1,13.9-13.5
	c0-6.9-5.4-12.6-12.3-13.4c-4.8-4.8-13.6-17.3-19.5-37.4c5.4-1.9,9.2-6.9,9.2-12.7c0-4.4-2.2-8.3-5.5-10.8
	c6.6-4.7,16.1-12.4,24.8-24C323.7,221,327.9,215.5,331.7,208.8z M222.7,92.3h70.5c20.4,0,38.9,10.7,48.8,27.6H174
	C183.8,102.9,202.4,92.3,222.7,92.3z M161.5,133.4c0-3.4,2.9-6.2,6.4-6.2h180.2c3.5,0,6.4,2.8,6.4,6.2s-2.9,6.2-6.4,6.2H167.9
	C164.4,139.6,161.5,136.8,161.5,133.4z M211.2,306c4.9-6.5,12.1-18.2,17.4-36.5h58.9c5.2,18.3,12.4,30,17.4,36.5H211.2z
	 M319.4,319.5c0,3.4-2.9,6.2-6.4,6.2H203.1c-3.5,0-6.4-2.8-6.4-6.2s2.9-6.2,6.4-6.2h109.9h0C316.5,313.3,319.4,316.1,319.4,319.5z
	 M290.3,262.3L290.3,262.3h-64.7c0,0,0,0,0,0c-3.5,0-6.4-2.8-6.4-6.2c0-3.4,2.9-6.2,6.4-6.2h64.7c3.5,0,6.4,2.8,6.4,6.2
	S293.9,262.3,290.3,262.3z"/>
    <line class="st33" x1="206" x2="235" y1="133" y2="247"/>
    <line class="st33" x1="228.8" x2="260.1" y1="130.1" y2="253"/>
    <line class="st33" x1="312" x2="283" y1="132" y2="246"/>
    <line class="st33" x1="289.2" x2="257.9" y1="129" y2="251.9"/>
    <g>
	<rect class="st24" height="144" width="500" x="3" y="362"/>
        <text class="st23 st34 st35" transform="matrix(1 0 0 1 172.0547 400.5557)">Djembé</text>
</g>
</svg>
