<svg id="Calque_1" data-name="Calque 1" xmlns="http://www.w3.org/2000/svg" viewBox="0 0 350 300"><defs><style>.cls-1{fill:none;stroke:#000;stroke-miterlimit:10;stroke-width:5px;}</style></defs><title>selected</title><path d="M265.8,83.62l-.17,1c-2.29,14-7.83,40.62-19.24,60.65a120.14,120.14,0,0,1-7.84,12,108,108,0,0,1-23.72,22.91l-5.12,3.62H144.5l-5.4-3.68c-18.57-12.66-33.16-32.83-42.18-58.32a166.93,166.93,0,0,1-8.51-36.87l-.14-1.32H265.8M212.26,24H141.74C117.17,24,94.9,37.72,84.4,59.13a13.41,13.41,0,0,0-1,26.33,171,171,0,0,0,8.76,38c9.43,26.64,24.59,47.49,44.09,60.78A13.36,13.36,0,0,0,130.74,195a13.56,13.56,0,0,0,9.23,12.7c-5.92,20-14.79,32.62-19.53,37.37A13.47,13.47,0,0,0,122.06,272H231.94a13.47,13.47,0,0,0,1.62-26.89c-4.75-4.76-13.61-17.33-19.54-37.37a13.55,13.55,0,0,0,9.24-12.7,13.34,13.34,0,0,0-5.54-10.77,113.21,113.21,0,0,0,24.82-24,127.8,127.8,0,0,0,8.19-12.51c12.65-22.21,18-51.33,19.84-62.33a13.41,13.41,0,0,0-1-26.34C259.1,37.72,236.83,24,212.26,24ZM93,58.9a56.32,56.32,0,0,1,48.79-27.63h70.52A56.32,56.32,0,0,1,261.05,58.9Zm-6,19.72a6.23,6.23,0,1,1,0-12.45H267.09a6.23,6.23,0,1,1,0,12.45Zm57.74,122.64a6.23,6.23,0,1,1,0-12.45h64.68a6.23,6.23,0,1,1,0,12.45h-64.7ZM130.18,245c4.95-6.48,12.15-18.23,17.35-36.48h58.94c5.2,18.25,12.4,30,17.35,36.48Zm-8.12,19.72a6.23,6.23,0,1,1,0-12.45H231.94a6.23,6.23,0,1,1,0,12.45Z"/><line class="cls-1" x1="125" y1="72" x2="154" y2="186"/><line class="cls-1" x1="147.81" y1="69.08" x2="179.08" y2="192"/><line class="cls-1" x1="231" y1="71" x2="202" y2="185"/><line class="cls-1" x1="208.19" y1="68" x2="176.92" y2="190.92"/></svg>