<?xml version="1.0" encoding="utf-8"?>
<!-- Generator: Adobe Illustrator 22.1.0, SVG Export Plug-In . SVG Version: 6.00 Build 0)  -->
<svg style="enable-background:new 0 0 500 500;" id="Calque_1" version="1.1" viewBox="0 0 500 500" x="0px"
     xmlns="http://www.w3.org/2000/svg" y="0px" xml:space="preserve">
<style type="text/css">
	.st0{fill:#EAEAEA;}
	.st1{fill:#8C8C8C;}
	.st2{fill:#FFFFFF;}
	.st3{fill:#EAEAEA;stroke:#8C8C8C;stroke-width:7;stroke-miterlimit:10;}
	.st4{fill:#070707;}
	.st5{fill:none;stroke:#8C8C8C;stroke-width:7;stroke-miterlimit:10;}
	.st6{fill:none;stroke:#8C8C8C;stroke-width:10;stroke-miterlimit:10;}
	.st7{fill:#8C8C8C;stroke:#8C8C8C;stroke-width:3;stroke-miterlimit:10;}
	.st8{fill:none;stroke:#8C8C8C;stroke-width:8;stroke-miterlimit:10;}
	.st9{fill:none;stroke:#8E8E8E;stroke-width:6;stroke-miterlimit:10;}
	.st10{fill:#8E8E8E;}
	.st11{fill:#505050;}
	.st12{fill:none;stroke:#8E8E8E;stroke-width:2;stroke-miterlimit:10;}
	.st13{fill:#8C8C8C;stroke:#8C8C8C;stroke-width:2;stroke-miterlimit:10;}
	.st14{fill:#8C8C8C;stroke:#FFFFFF;stroke-width:2;stroke-miterlimit:10;}
	.st15{fill:none;stroke:#FFFFFF;stroke-width:2;stroke-miterlimit:10;}
	.st16{fill:none;stroke:#8C8C8C;stroke-miterlimit:10;}
	.st17{fill:none;stroke:#8C8C8C;stroke-width:13;stroke-miterlimit:10;}
	.st18{fill:#EAEAEA;stroke:#8C8C8C;stroke-width:8;stroke-miterlimit:10;}
	.st19{fill:none;stroke:#8C8C8C;stroke-width:4;stroke-miterlimit:10;}
	.st20{fill:#8C8C8C;stroke:#8C8C8C;stroke-width:0.75;stroke-miterlimit:10;}
	.st21{fill:none;stroke:#8C8C8C;stroke-width:9;stroke-miterlimit:10;}
	.st22{fill:#8C8C8C;stroke:#8C8C8C;stroke-width:0.5;stroke-miterlimit:10;}
	.st23{fill:#6B6B6B;}
	.st24{fill:none;}
	.st25{stroke:#8C8C8C;stroke-width:8;stroke-miterlimit:10;}
	.st26{fill:#8C8C8C;stroke:#8C8C8C;stroke-miterlimit:10;}
	.st27{fill:none;stroke:#8C8C8C;stroke-width:11;stroke-miterlimit:10;}
	.st28{fill:none;stroke:#8C8C8C;stroke-width:6;stroke-miterlimit:10;}
	.st29{stroke:#8C8C8C;stroke-width:6;stroke-miterlimit:10;}
	.st30{fill:#8C8C8C;stroke:#8C8C8C;stroke-width:4;stroke-miterlimit:10;}
	.st31{fill:#8C8C8C;stroke:#8C8C8C;stroke-width:1.05;stroke-miterlimit:10;}
	.st32{fill:#D6D6D6;}
	.st33{fill:none;stroke:#EAEAEA;stroke-width:5;stroke-miterlimit:10;}
	.st34{fill:#8C8C8C;stroke:#8C8C8C;stroke-width:10;stroke-miterlimit:10;}
	.st35{fill:none;stroke:#CECECE;stroke-width:2;stroke-miterlimit:10;}
	.st36{fill:none;stroke:#FFFFFF;stroke-width:4;stroke-miterlimit:10;}
	.st37{fill-rule:evenodd;clip-rule:evenodd;fill:#8C8C8C;}
	.st38{fill:#8C8C8C;stroke:#8C8C8C;stroke-width:8;stroke-miterlimit:10;}
	.st39{fill:#8C8C8C;stroke:#8C8C8C;stroke-width:7;stroke-miterlimit:10;}
	.st40{fill:#DBDBDB;stroke:#8C8C8C;stroke-width:7;stroke-miterlimit:10;}
	.st41{font-family:'HelveticaNeue-CondensedBold';}
	.st42{font-size:54px;}
	.st43{fill:none;stroke:#8C8C8C;stroke-width:5;stroke-miterlimit:10;}
	.st44{fill:none;stroke:#8C8C8C;stroke-width:3;stroke-miterlimit:10;}
	.st45{clip-path:url(#SVGID_2_);fill:#8C8C8C;}
	.st46{clip-path:url(#SVGID_2_);fill:none;stroke:#8C8C8C;stroke-width:8;stroke-miterlimit:10;}
	.st47{clip-path:url(#SVGID_2_);fill:#FFFFFF;}
	.st48{clip-path:url(#SVGID_2_);fill:#EAEAEA;}
	.st49{clip-path:url(#SVGID_2_);fill:none;stroke:#8C8C8C;stroke-miterlimit:10;}
	.st50{fill:none;stroke:#FFFFFF;stroke-width:0.75;stroke-miterlimit:10;}
	.st51{fill:none;stroke:#8C8C8C;stroke-width:14;stroke-miterlimit:10;}
	.st52{fill:none;stroke:#EAEAEA;stroke-width:2;stroke-miterlimit:10;}
	.st53{fill:none;stroke:#8C8C8C;stroke-width:2;stroke-miterlimit:10;}
</style>
    <rect class="st0" height="500" width="500" x="1"/>
    <g>
	<rect class="st24" height="118" width="500" y="375"/>
        <text class="st23 st41 st42" transform="matrix(1 0 0 1 156.1494 413.5557)">Dominos</text>
</g>
    <g id="nLPAxf_1_">
	<g>
		<path class="st1" d="M234.1,239.9c4.9,6.3,9.3,11.5,13.2,17c1.9,2.7,3.5,2.7,6.2,1.5c7.1-3.3,14.3-6.6,21.6-9.5
			c4.2-1.7,5.8-4.1,5.6-8.6c-0.3-6.5-0.1-13-0.1-20.8c5.1,6.5,9.5,12,13.7,17.6c1.4,1.8,2.5,2.2,4.6,1.3c8.1-3.7,16.3-7.3,24.5-10.8
			c2.6-1.1,3.8-2.9,3.7-5.8c-0.1-6.3-0.1-12.6-0.1-18.9c0-0.9,0.2-1.8,0.4-3.5c4.8,6.1,9.1,11.5,13.3,17.1c1.4,1.9,2.7,2.4,4.9,1.4
			c8.1-3.7,16.3-7.3,24.5-10.8c2.5-1.1,3.6-2.8,3.5-5.5c-0.1-4.7-0.4-9.5,0-14.2c0.5-5.9-0.9-10.7-5.5-14.5
			c-7.3-6.1-9.8-13.9-8.7-23.4c0.7-5.5-0.1-5.7-5.1-6.1c-1.7-5,0.1-11.6-5.3-14.6c-4.4-2.5-9.8-3.4-15.4-5.2
			c-0.4-3.3-0.9-7.8-1.6-12.2c-0.7-4.8-1.3-9.7-6.6-12.2c-5.8-2.7-11.7-3-17.5-0.1c-2.1,1.1-4.7,3.1-5.1,5.1
			c-0.9,4.4-3.8,5.5-7.2,6.6c-1.9,0.6-3.6,1.5-5.5,2.1c-4,1.4-8.6,2.2-7.9,8.7c-5.2-3.7-10.2-4.7-15.6-3.9
			c-4.4,0.7-9.1,2.3-10.3,6.8c-1.1,4.3-3.8,5.5-7.2,6.6c-2,0.7-3.9,1.6-5.9,2.3c-3.9,1.4-8.4,2.2-7.4,8.7c-5.4-3.9-10.6-4.9-16.1-4
			c-4.3,0.8-8.8,2.4-9.9,6.7c-1.1,4.3-3.8,5.5-7.2,6.7c-2.2,0.8-4.4,1.8-6.6,2.6c-3.8,1.3-7.8,2.3-6.6,8.4c-5.5-3.7-10.7-5-16.2-3.9
			c-5.3,1-9.7,3.2-11,9.2c-0.2,1.1-1.7,2.3-2.8,2.8c-4.3,1.9-8.7,3.7-13.2,5.2c-2.4,0.8-3.4,2.3-3.4,4.6c-0.1,5.1,0.1,10.3-0.3,15.4
			c-0.5,5.2,0.9,9.5,4.6,13.1c2.7,2.6,3.6,5.8,3.8,9.5c0.2,7,0.9,13.9,1.5,20.8c0.1,1,0.3,2.2,0.8,3c3,4.1,6.2,8.1,9.3,12.2
			c1.2,1.6,2.5,1.9,4.4,0.9c4-2,8-3.7,12.2-5.6c7.2,9.2,14.4,18,21.2,27.2c2.2,2.9,3.8,3,6.8,1.6c7-3.3,14.1-6.5,21.3-9.3
			c4.2-1.7,5.8-4.1,5.6-8.6C233.8,254.1,234.1,247.6,234.1,239.9z"/>
        <path class="st1" d="M234.1,239.9c0,7.7-0.3,14.2,0.1,20.7c0.2,4.5-1.4,7-5.6,8.6c-7.2,2.8-14.3,6-21.3,9.3
			c-3,1.4-4.7,1.3-6.8-1.6c-6.8-9.2-14-18-21.2-27.2c-4.2,1.9-8.3,3.6-12.2,5.6c-1.9,1-3.2,0.6-4.4-0.9c-3.1-4.1-6.3-8.1-9.3-12.2
			c-0.6-0.8-0.8-1.9-0.8-3c-0.6-6.9-1.3-13.9-1.5-20.8c-0.1-3.8-1.1-6.9-3.8-9.5c-3.7-3.6-5.1-7.9-4.6-13.1
			c0.5-5.1,0.2-10.2,0.3-15.4c0-2.3,1-3.8,3.4-4.6c4.5-1.5,8.9-3.3,13.2-5.2c1.2-0.5,2.6-1.7,2.8-2.8c1.3-6,5.7-8.2,11-9.2
			c5.5-1.1,10.7,0.2,16.2,3.9c-1.2-6.1,2.8-7.2,6.6-8.4c2.2-0.8,4.4-1.8,6.6-2.6c3.4-1.2,6-2.4,7.2-6.7c1.1-4.4,5.6-6,9.9-6.7
			c5.5-1,10.7,0.1,16.1,4c-0.9-6.5,3.5-7.3,7.4-8.7c2-0.7,3.9-1.6,5.9-2.3c3.4-1.1,6.1-2.3,7.2-6.6c1.2-4.5,5.9-6.1,10.3-6.8
			c5.4-0.9,10.4,0.2,15.6,3.9c-0.7-6.5,3.9-7.3,7.9-8.7c1.9-0.7,3.6-1.5,5.5-2.1c3.4-1.1,6.4-2.3,7.2-6.6c0.4-2,3-4,5.1-5.1
			c5.7-2.9,11.6-2.7,17.5,0.1c5.2,2.4,5.9,7.3,6.6,12.2c0.6,4.4,1.1,8.8,1.6,12.2c5.6,1.8,11,2.7,15.4,5.2c5.3,3,3.6,9.7,5.3,14.6
			c5.1,0.4,5.8,0.7,5.1,6.1c-1.2,9.5,1.4,17.2,8.7,23.4c4.6,3.9,6,8.7,5.5,14.5c-0.4,4.7-0.1,9.5,0,14.2c0.1,2.7-1.1,4.5-3.5,5.5
			c-8.2,3.6-16.4,7.1-24.5,10.8c-2.2,1-3.5,0.6-4.9-1.4c-4.1-5.6-8.5-11-13.3-17.1c-0.2,1.6-0.4,2.5-0.4,3.5c0,6.3,0,12.6,0.1,18.9
			c0.1,2.9-1.1,4.7-3.8,5.8c-8.2,3.5-16.4,7.1-24.5,10.8c-2.1,0.9-3.2,0.5-4.6-1.3c-4.2-5.6-8.6-11.1-13.8-17.6
			c0,7.7-0.3,14.3,0.1,20.8c0.2,4.5-1.3,7-5.6,8.6c-7.3,2.9-14.5,6.2-21.6,9.5c-2.7,1.2-4.3,1.2-6.2-1.5
			C243.5,251.3,239.1,246.1,234.1,239.9z M189.6,201.6c5.3-3.4,10.3-6.6,15.5-10c-4.5-2.8-11.2-1.9-14.8,1.6
			C188,195.6,187.1,198.2,189.6,201.6z M193.6,204c8.6,3.1,17.1-1.1,17.3-8.3C203.7,195.4,199.5,200.9,193.6,204z"/>
        <path class="st0"
              d="M189.6,201.6c-2.5-3.4-1.7-6,0.7-8.3c3.6-3.6,10.3-4.4,14.8-1.6C199.9,195,194.9,198.2,189.6,201.6z"/>
        <path class="st0" d="M193.5,204c5.9-3.2,10.1-8.6,17.3-8.3C210.7,202.9,202.2,207.1,193.5,204z"/>
        <path class="st0"
              d="M169.1,183.5c-2.5-3.4-1.7-6,0.7-8.3c3.6-3.6,10.3-4.4,14.8-1.6C179.4,176.9,174.4,180.1,169.1,183.5z"/>
        <path class="st0" d="M173,185.9c5.9-3.2,10.1-8.6,17.3-8.3C190.2,184.8,181.6,189,173,185.9z"/>
        <path class="st0"
              d="M237.7,183.5c-2.5-3.4-1.7-6,0.7-8.3c3.6-3.6,10.3-4.4,14.8-1.6C248,176.9,243,180.1,237.7,183.5z"/>
        <path class="st0" d="M241.7,185.9c5.9-3.2,10.1-8.6,17.3-8.3C258.8,184.8,250.3,189,241.7,185.9z"/>
        <path class="st0"
              d="M217.2,165.3c-2.5-3.4-1.7-6,0.7-8.3c3.6-3.6,10.3-4.4,14.8-1.6C227.5,158.7,222.5,161.9,217.2,165.3z"/>
        <path class="st0" d="M221.1,167.7c5.9-3.2,10.1-8.6,17.3-8.3C238.3,166.7,229.8,170.9,221.1,167.7z"/>
        <path class="st0"
              d="M280.3,159.8c-2.5-3.4-1.7-6,0.7-8.3c3.6-3.6,10.3-4.4,14.8-1.6C290.6,153.2,285.6,156.4,280.3,159.8z"/>
        <path class="st0" d="M284.2,162.2c5.9-3.2,10.1-8.6,17.3-8.3C301.4,161.1,292.8,165.3,284.2,162.2z"/>
        <path class="st0"
              d="M259.8,141.7c-2.5-3.4-1.7-6,0.7-8.3c3.6-3.6,10.3-4.4,14.8-1.6C270.1,135.1,265.1,138.3,259.8,141.7z"/>
        <path class="st0" d="M263.7,144.1c5.9-3.2,10.1-8.6,17.3-8.3C280.9,143,272.3,147.2,263.7,144.1z"/>
        <path class="st0"
              d="M318.2,143.3c-2.5-3.4-1.7-6,0.7-8.3c3.6-3.6,10.3-4.4,14.8-1.6C328.5,136.6,323.5,139.9,318.2,143.3z"/>
        <path class="st0" d="M322.1,145.7c5.9-3.2,10.1-8.6,17.3-8.3C339.2,144.6,330.7,148.8,322.1,145.7z"/>
        <path class="st0"
              d="M297.7,125.1c-2.5-3.4-1.7-6,0.7-8.3c3.6-3.6,10.3-4.4,14.8-1.6C308,118.5,303,121.7,297.7,125.1z"/>
        <path class="st0" d="M301.6,127.5c5.9-3.2,10.1-8.6,17.3-8.3C318.7,126.4,310.2,130.6,301.6,127.5z"/>
	</g>
</g>
</svg>
