<svg id="Calque_1" data-name="Calque 1" xmlns="http://www.w3.org/2000/svg" viewBox="0 0 350 300"><title>selected</title><path d="M139.74,55.9l3,9.71L97.54,213,83,260.34h-6L139.74,55.9m0-13.65L71.66,264.34H86l15.37-50.17L146.91,65.61l-7.17-23.36Z"/><path d="M197,55.84l1.18,3.88h-2.37L197,55.84m0-13.66-6.59,21.54h13.18L197,42.18Z"/><path d="M196.07,78.43l-11.82,38.62h-3.1l-1.43-4.71,10.4-33.91h5.95m5.41-4H187.15v0l-11.61,37.88,2.65,8.71h9v0l14.26-46.58Z"/><path d="M153.29,218.17l-12.92,42.17h-6l12.92-42.17h6m5.41-4H144.37L129,264.34h14.34l15.37-50.17Z"/><path d="M168.37,149.4l3,9.74-15.62,51h-6l18.6-60.77m0-13.66-24,78.43H158.7l16.84-55-7.17-23.4Z"/><path d="M218.23,125.05l.84,2.71H184.45l-.83-2.71h34.61m3-4h-43l3.26,10.71h43l-3.3-10.71Z"/><path d="M208.41,46.18,274,260.34h-6l-4.62-15.09-3.29-10.71-14.26-46.62-3.29-10.75-14.27-46.59-3.3-10.7L210.75,73.25l-3.29-10.71-5-16.36h6m3-4H197l6.59,21.54,3.3,10.71,14.26,46.62,3.3,10.71,14.26,46.58,3.3,10.75,14.25,46.62,3.3,10.71,5.48,17.92h14.34L211.37,42.18Z"/><path d="M200.68,67.72l.83,2.71H166.88l-.83-2.71h34.63m2.95-4h-43l3.3,10.71h43l-3.3-10.71Z"/><path d="M253.35,239.71l.84,2.71H219.6l-.84-2.71h34.59m3-4h-43l3.3,10.71h43l-3.3-10.71Z"/><path d="M235.8,182.38l.84,2.71H202l-.83-2.71H235.8m2.95-4-.08,0H195.78l3.27,10.71h43l-3.3-10.75Z"/><path d="M151.08,46.18l5.73,18.71L160.1,75.6l11.61,37.9,2.65,8.71.89,2.8,2.41,7.92L192,179.54l3.26,10.72,14.3,46.63,3.3,10.7,3.89,12.75h-6L196.24,213l-16.88-55-7.16-23.39L150.73,64.44l-5.6-18.26h6m3-4h-14.3v.07l7.17,23.36,21.46,70.13,7.17,23.4,16.88,55,15.37,50.17h14.33l-5.48-17.92-3.3-10.71-14.29-46.62-3.27-10.71-14.29-46.62-3.26-10.71h0l-2.65-8.71L163.93,74.43l-3.3-10.71L154,42.18Z"/><path d="M154.06,38.59a3.54,3.54,0,0,0-1.06.16,3.6,3.6,0,0,0-2.38,4.48l68.06,222.16a3.58,3.58,0,0,0,3.43,2.53,3.53,3.53,0,0,0,1-.16,3.58,3.58,0,0,0,2.37-4.47L157.47,41.13a3.58,3.58,0,0,0-3.41-2.54Z"/><path d="M139.73,38.59a3.65,3.65,0,0,0-1.07.16,3.59,3.59,0,0,0-2.37,4.48l68.06,222.16a3.58,3.58,0,0,0,3.42,2.53,3.48,3.48,0,0,0,1-.16,3.57,3.57,0,0,0,2.38-4.47L143.14,41.13a3.58,3.58,0,0,0-3.41-2.54Z"/><path d="M154.05,38.6H139.71a3.58,3.58,0,0,0,0,7.16h14.34a3.58,3.58,0,0,0,0-7.16Z"/><path d="M222.11,260.76H207.77a3.58,3.58,0,1,0,0,7.16h14.34a3.58,3.58,0,0,0,0-7.16Z"/><path d="M139.71,38.59a3.58,3.58,0,0,0-3.41,2.54L68.24,263.29a3.58,3.58,0,0,0,2.37,4.47,3.48,3.48,0,0,0,1,.16,3.59,3.59,0,0,0,3.43-2.53L143.15,43.23a3.6,3.6,0,0,0-2.38-4.48,3.54,3.54,0,0,0-1.06-.16Z"/><path d="M146.87,62a3.58,3.58,0,0,0-3.41,2.54L82.57,263.29A3.57,3.57,0,0,0,85,267.76a3.48,3.48,0,0,0,1,.16,3.58,3.58,0,0,0,3.42-2.53L150.31,66.64A3.59,3.59,0,0,0,146.87,62Z"/><path d="M86,260.76H71.66a3.58,3.58,0,1,0,0,7.16H86a3.58,3.58,0,0,0,0-7.16Z"/><path d="M197,38.59a3.6,3.6,0,0,0-3.42,2.54L187,62.65a3.58,3.58,0,0,0,2.38,4.48,3.81,3.81,0,0,0,1,.15,3.58,3.58,0,0,0,3.42-2.53l6.59-21.52a3.59,3.59,0,0,0-2.37-4.48,3.54,3.54,0,0,0-1.06-.16Z"/><path d="M187.15,70.87a3.58,3.58,0,0,0-3.42,2.53l-11.62,37.9a3.58,3.58,0,0,0,2.38,4.47,3.48,3.48,0,0,0,1,.16A3.58,3.58,0,0,0,179,113.4l11.62-37.9a3.58,3.58,0,0,0-3.43-4.63Z"/><path d="M168.37,132.15a3.58,3.58,0,0,0-3.42,2.54l-39.4,128.6a3.58,3.58,0,0,0,2.38,4.47,3.48,3.48,0,0,0,1,.16,3.57,3.57,0,0,0,3.42-2.53l39.4-128.6a3.58,3.58,0,0,0-2.38-4.47,3.54,3.54,0,0,0-1-.17Z"/><path d="M201.48,70.86a3.59,3.59,0,0,0-3.42,2.53L183.79,120a3.58,3.58,0,0,0,2.38,4.47,3.48,3.48,0,0,0,1.05.16h0a3.6,3.6,0,0,0,3.43-2.53l14.26-46.58a3.58,3.58,0,0,0-3.43-4.63Z"/><path d="M175.53,155.55a3.59,3.59,0,0,0-3.42,2.54l-32.22,105.2a3.58,3.58,0,0,0,2.37,4.47,3.48,3.48,0,0,0,1.05.16,3.59,3.59,0,0,0,3.43-2.53L179,160.19a3.59,3.59,0,0,0-2.37-4.48,3.54,3.54,0,0,0-1.06-.16Z"/><path d="M143.31,260.76H129a3.58,3.58,0,1,0,0,7.16h14.33a3.58,3.58,0,1,0,0-7.16Z"/><path d="M211.37,38.59a3.54,3.54,0,0,0-1.06.16,3.6,3.6,0,0,0-2.38,4.48L276,265.39a3.58,3.58,0,0,0,3.43,2.53,3.53,3.53,0,0,0,1.05-.16,3.58,3.58,0,0,0,2.37-4.47L214.78,41.13a3.58,3.58,0,0,0-3.41-2.54Z"/><path d="M197,38.59a3.65,3.65,0,0,0-1.07.16,3.59,3.59,0,0,0-2.37,4.48l68.06,222.16a3.58,3.58,0,0,0,3.42,2.53,3.43,3.43,0,0,0,1.05-.16,3.58,3.58,0,0,0,2.38-4.47L200.45,41.13A3.58,3.58,0,0,0,197,38.59Z"/><path d="M211.36,38.6H197a3.58,3.58,0,0,0,0,7.16h14.34a3.58,3.58,0,0,0,0-7.16Z"/><path d="M279.42,260.76H265.08a3.58,3.58,0,1,0,0,7.16h14.34a3.58,3.58,0,0,0,0-7.16Z"/><path d="M259.6,242.85h-43a3.59,3.59,0,0,0,0,7.17h43a3.59,3.59,0,0,0,0-7.17Z"/><path d="M256.3,232.11h-43a3.59,3.59,0,0,0,0,7.17h43a3.59,3.59,0,0,0,0-7.17Z"/><path d="M242,185.52h-43a3.59,3.59,0,1,0,0,7.17h43a3.59,3.59,0,1,0,0-7.17Z"/><path d="M238.69,174.78H195.77a3.59,3.59,0,1,0,0,7.17h42.92a3.59,3.59,0,0,0,0-7.17Z"/><path d="M224.47,128.19h-43a3.59,3.59,0,0,0,0,7.17h43a3.59,3.59,0,0,0,0-7.17Z"/><path d="M221.17,117.45h-43a3.59,3.59,0,1,0,0,7.17h43a3.59,3.59,0,1,0,0-7.17Z"/><path d="M206.91,70.86h-43a3.59,3.59,0,1,0,0,7.17h43a3.59,3.59,0,0,0,0-7.17Z"/><path d="M203.62,60.12H160.57a3.58,3.58,0,1,0,0,7.16h43.05a3.58,3.58,0,0,0,0-7.16Z"/><path d="M192.41,210.59h-91a3.59,3.59,0,0,0,0,7.17h91.05a3.59,3.59,0,0,0,0-7.17Z"/></svg>