<?xml version="1.0" encoding="utf-8"?>
<!-- Generator: Adobe Illustrator 22.1.0, SVG Export Plug-In . SVG Version: 6.00 Build 0)  -->
<svg style="enable-background:new 0 0 500 500;" id="Calque_1" version="1.1" viewBox="0 0 500 500" x="0px"
     xmlns="http://www.w3.org/2000/svg" y="0px" xml:space="preserve">
<style type="text/css">
	.st0{fill:#4FBDD7;}
	.st1{fill:#EAEAEA;}
	.st2{fill:#FFFFFF;}
	.st3{fill:#4FBDD7;stroke:#FFFFFF;stroke-width:5;stroke-miterlimit:10;}
	.st4{fill:#8C8C8C;}
	.st5{fill:#070707;}
	.st6{fill:none;stroke:#FFFFFF;stroke-width:7;stroke-miterlimit:10;}
	.st7{fill:none;stroke:#FFFFFF;stroke-width:10;stroke-miterlimit:10;}
	.st8{fill:#FFFFFF;stroke:#FFFFFF;stroke-width:3;stroke-miterlimit:10;}
	.st9{fill:none;stroke:#FDFFFF;stroke-width:6;stroke-miterlimit:10;}
	.st10{fill:#FAFEFF;}
	.st11{fill:none;stroke:#FFFFFF;stroke-width:2;stroke-miterlimit:10;}
	.st12{fill:#FFFFFF;stroke:#FFFFFF;stroke-width:2;stroke-miterlimit:10;}
	.st13{fill:#4FBDD7;stroke:#FFFFFF;stroke-width:4;stroke-miterlimit:10;}
	.st14{fill:#FFFFFF;stroke:#FFFFFF;stroke-width:4;stroke-miterlimit:10;}
	.st15{fill:none;stroke:#FFFFFF;stroke-miterlimit:10;}
	.st16{fill:#FFFFFF;stroke:#FFFFFF;stroke-width:13;stroke-miterlimit:10;}
	.st17{fill:#4FBDD7;stroke:#FFFFFF;stroke-width:8;stroke-miterlimit:10;}
	.st18{fill:#FFFFFF;stroke:#FFFFFF;stroke-width:0.75;stroke-miterlimit:10;}
	.st19{fill:#FFFFFF;stroke:#FFFFFF;stroke-width:0.5;stroke-miterlimit:10;}
	.st20{fill:#FFFFFF;stroke:#FFFFFF;stroke-width:8;stroke-miterlimit:10;}
	.st21{fill:#FFFFFF;stroke:#FFFFFF;stroke-miterlimit:10;}
	.st22{fill:#FFFFFF;stroke:#FFFFFF;stroke-width:11;stroke-miterlimit:10;}
	.st23{fill:#FFFFFF;stroke:#FFFFFF;stroke-width:6;stroke-miterlimit:10;}
	.st24{fill:#8C8C8C;stroke:#8C8C8C;stroke-width:4;stroke-miterlimit:10;}
	.st25{fill:#FFFFFF;stroke:#FFFFFF;stroke-width:1.05;stroke-miterlimit:10;}
	.st26{fill:none;stroke:#4FBDD7;stroke-width:5;stroke-miterlimit:10;}
	.st27{fill:none;stroke:#FFFFFF;stroke-width:4;stroke-miterlimit:10;}
	.st28{fill:#8C8C8C;stroke:#FFFFFF;stroke-width:4;stroke-miterlimit:10;}
	.st29{fill:#FFFFFF;stroke:#FFFFFF;stroke-width:10;stroke-miterlimit:10;}
	.st30{fill:none;stroke:#4FBDD7;stroke-width:2;stroke-miterlimit:10;}
	.st31{fill-rule:evenodd;clip-rule:evenodd;fill:#FFFFFF;}
	.st32{fill:#FFFFFF;stroke:#FFFFFF;stroke-width:7;stroke-miterlimit:10;}
	.st33{fill:#FFFFFF;stroke:#4FBDD7;stroke-width:7;stroke-miterlimit:10;}
	.st34{fill:none;}
	.st35{font-family:'HelveticaNeue-CondensedBold';}
	.st36{font-size:54px;}
	.st37{fill:#FCFCFC;}
	.st38{fill:#FFFFFF;stroke:#FFFFFF;stroke-width:5;stroke-miterlimit:10;}
	.st39{fill:none;stroke:#FFFFFF;stroke-width:3;stroke-miterlimit:10;}
	.st40{fill:none;stroke:#FFFFFF;stroke-width:8;stroke-miterlimit:10;}
	.st41{fill:none;stroke:#FFFFFF;stroke-width:6;stroke-miterlimit:10;}
	.st42{fill:#FFFFFF;stroke:#4FBDD7;stroke-width:3;stroke-miterlimit:10;}
	.st43{fill:none;stroke:#FFFFFF;stroke-width:0.75;stroke-miterlimit:10;}
	.st44{fill:#4FBDD7;stroke:#FFFFFF;stroke-width:9;stroke-miterlimit:10;}
	.st45{fill:none;stroke:#FFFFFF;stroke-width:9;stroke-miterlimit:10;}
	.st46{fill:none;stroke:#4FBDD7;stroke-width:3;stroke-miterlimit:10;}
</style>
    <rect class="st0" height="500" width="500"/>
    <g>
	<rect class="st34" height="144" width="500" y="361"/>
        <text transform="matrix(1 0 0 1 104.1206 399.5557)"><tspan class="st2 st35 st36" x="0" y="0">Emplacement </tspan>
            <tspan class="st2 st35 st36" x="48" y="64.8">stockage</tspan></text>
</g>
    <g>
	<path class="st2" d="M369.3,136.4L257.1,95.2c-3.8-1.4-8.2-1.4-12,0l-110.3,41.2c-2.9,1.1-4.9,3.7-4.9,6.5v14.8
		c0,3.9,3.5,7.1,7.9,7.1h5.9c1.1,0,2,0.8,2,1.8v93.9c0,8.8,7.9,16,17.7,16h5.1v-85.2h166.9v85.2h5.1c9.8,0,17.7-7.1,17.7-16v-93.9
		c0-1,0.9-1.8,2-1.8h5.9c4.4,0,7.9-3.2,7.9-7.1V143C374.2,140.1,372.2,137.5,369.3,136.4 M219,240.6h-11.2v15.5h-5.2v-15.5h-11.3
		c-4.1,0-7.4,3.3-7.4,7.4v24.6c0,4.1,3.3,7.4,7.4,7.4H219c4.1,0,7.4-3.3,7.4-7.4V248C226.4,243.9,223.1,240.6,219,240.6 M266,240.6
		h-11.2v15.5h-5.2v-15.5h-11.3c-4.1,0-7.4,3.3-7.4,7.4v24.6c0,4.1,3.3,7.4,7.4,7.4H266c4.1,0,7.4-3.3,7.4-7.4V248
		C273.3,243.9,270,240.6,266,240.6 M313.8,240.6h-11.2v15.5h-5.2v-15.5h-11.3c-4.1,0-7.4,3.3-7.4,7.4v24.6c0,4.1,3.3,7.4,7.4,7.4
		h27.7c4.1,0,7.4-3.3,7.4-7.4V248C321.2,243.9,317.9,240.6,313.8,240.6 M242.6,196.2h-11.2v15.5h-5.2v-15.5h-11.3
		c-4.1,0-7.4,3.3-7.4,7.4v24.6c0,4.1,3.3,7.4,7.4,7.4h27.7c4.1,0,7.4-3.3,7.4-7.4v-24.6C250,199.5,246.7,196.2,242.6,196.2
		 M290.7,196.2h-11.2v15.5h-5.2v-15.5H263c-4.1,0-7.4,3.3-7.4,7.4v24.6c0,4.1,3.3,7.4,7.4,7.4h27.7c4.1,0,7.4-3.3,7.4-7.4v-24.6
		C298.1,199.5,294.8,196.2,290.7,196.2"/>
</g>
</svg>
