<?xml version="1.0" encoding="utf-8"?>
<!-- Generator: Adobe Illustrator 22.1.0, SVG Export Plug-In . SVG Version: 6.00 Build 0)  -->
<svg style="enable-background:new 0 0 500 500;" id="Calque_1" version="1.1" viewBox="0 0 500 500" x="0px"
     xmlns="http://www.w3.org/2000/svg" y="0px" xml:space="preserve">
<style type="text/css">
	.st0{fill:#4FBDD7;}
	.st1{fill:#EAEAEA;}
	.st2{fill:#FFFFFF;}
	.st3{fill:#4FBDD7;stroke:#FFFFFF;stroke-width:5;stroke-miterlimit:10;}
	.st4{fill:#8C8C8C;}
	.st5{fill:#070707;}
	.st6{fill:none;stroke:#FFFFFF;stroke-width:7;stroke-miterlimit:10;}
	.st7{fill:none;stroke:#FFFFFF;stroke-width:10;stroke-miterlimit:10;}
	.st8{fill:#FFFFFF;stroke:#FFFFFF;stroke-width:3;stroke-miterlimit:10;}
	.st9{fill:none;stroke:#FDFFFF;stroke-width:6;stroke-miterlimit:10;}
	.st10{fill:#FAFEFF;}
	.st11{fill:none;stroke:#FFFFFF;stroke-width:2;stroke-miterlimit:10;}
	.st12{fill:#FFFFFF;stroke:#FFFFFF;stroke-width:2;stroke-miterlimit:10;}
	.st13{fill:#4FBDD7;stroke:#FFFFFF;stroke-width:4;stroke-miterlimit:10;}
	.st14{fill:#FFFFFF;stroke:#FFFFFF;stroke-width:4;stroke-miterlimit:10;}
	.st15{fill:none;stroke:#FFFFFF;stroke-miterlimit:10;}
	.st16{fill:#FFFFFF;stroke:#FFFFFF;stroke-width:13;stroke-miterlimit:10;}
	.st17{fill:#4FBDD7;stroke:#FFFFFF;stroke-width:8;stroke-miterlimit:10;}
	.st18{fill:#FFFFFF;stroke:#FFFFFF;stroke-width:0.75;stroke-miterlimit:10;}
	.st19{fill:#FFFFFF;stroke:#FFFFFF;stroke-width:0.5;stroke-miterlimit:10;}
	.st20{fill:#FFFFFF;stroke:#FFFFFF;stroke-width:8;stroke-miterlimit:10;}
	.st21{fill:#FFFFFF;stroke:#FFFFFF;stroke-miterlimit:10;}
	.st22{fill:#FFFFFF;stroke:#FFFFFF;stroke-width:11;stroke-miterlimit:10;}
	.st23{fill:#FFFFFF;stroke:#FFFFFF;stroke-width:6;stroke-miterlimit:10;}
	.st24{fill:none;}
	.st25{font-family:'HelveticaNeue-CondensedBold';}
	.st26{font-size:54px;}
	.st27{fill:#8C8C8C;stroke:#8C8C8C;stroke-width:4;stroke-miterlimit:10;}
	.st28{fill:#FFFFFF;stroke:#FFFFFF;stroke-width:1.05;stroke-miterlimit:10;}
	.st29{fill:none;stroke:#4FBDD7;stroke-width:5;stroke-miterlimit:10;}
	.st30{fill:none;stroke:#FFFFFF;stroke-width:4;stroke-miterlimit:10;}
	.st31{fill:#8C8C8C;stroke:#FFFFFF;stroke-width:4;stroke-miterlimit:10;}
	.st32{fill:#FFFFFF;stroke:#FFFFFF;stroke-width:10;stroke-miterlimit:10;}
	.st33{fill:none;stroke:#4FBDD7;stroke-width:2;stroke-miterlimit:10;}
	.st34{fill-rule:evenodd;clip-rule:evenodd;fill:#FFFFFF;}
	.st35{fill:#FFFFFF;stroke:#FFFFFF;stroke-width:7;stroke-miterlimit:10;}
	.st36{fill:#FFFFFF;stroke:#4FBDD7;stroke-width:7;stroke-miterlimit:10;}
	.st37{fill:#FCFCFC;}
	.st38{fill:#FFFFFF;stroke:#FFFFFF;stroke-width:5;stroke-miterlimit:10;}
	.st39{fill:none;stroke:#FFFFFF;stroke-width:3;stroke-miterlimit:10;}
	.st40{fill:none;stroke:#FFFFFF;stroke-width:8;stroke-miterlimit:10;}
	.st41{fill:none;stroke:#FFFFFF;stroke-width:6;stroke-miterlimit:10;}
	.st42{fill:#FFFFFF;stroke:#4FBDD7;stroke-width:3;stroke-miterlimit:10;}
	.st43{fill:none;stroke:#FFFFFF;stroke-width:0.75;stroke-miterlimit:10;}
	.st44{fill:#4FBDD7;stroke:#FFFFFF;stroke-width:9;stroke-miterlimit:10;}
	.st45{fill:none;stroke:#FFFFFF;stroke-width:9;stroke-miterlimit:10;}
	.st46{fill:none;stroke:#4FBDD7;stroke-width:3;stroke-miterlimit:10;}
</style>
    <rect class="st0" height="500" width="500" x="-1" y="-1"/>
    <path class="st2" d="M137.3,118.7c8.1,0,14.7-6.6,14.7-14.7s-6.6-14.7-14.7-14.7c-8.1,0-14.7,6.6-14.7,14.7S129.2,118.7,137.3,118.7
	z M137.3,99.1c2.7,0,4.9,2.2,4.9,4.9c0,2.7-2.2,4.9-4.9,4.9s-4.9-2.2-4.9-4.9C132.4,101.3,134.6,99.1,137.3,99.1z"/>
    <path class="st2" d="M362.7,117.7c8.1,0,14.7-6.6,14.7-14.7s-6.6-14.7-14.7-14.7c-8.1,0-14.7,6.6-14.7,14.7S354.6,117.7,362.7,117.7
	z M362.7,98.1c2.7,0,4.9,2.2,4.9,4.9c0,2.7-2.2,4.9-4.9,4.9c-2.7,0-4.9-2.2-4.9-4.9C357.8,100.3,360,98.1,362.7,98.1z"/>
    <path class="st2" d="M152,162.8c0-8.1-6.6-14.7-14.7-14.7c-8.1,0-14.7,6.6-14.7,14.7c0,8.1,6.6,14.7,14.7,14.7
	C145.4,177.5,152,170.9,152,162.8z M132.4,162.8c0-2.7,2.2-4.9,4.9-4.9s4.9,2.2,4.9,4.9c0,2.7-2.2,4.9-4.9,4.9
	S132.4,165.5,132.4,162.8z"/>
    <path class="st2"
          d="M132.4,128.5v9.8c0,2.7,2.2,4.9,4.9,4.9s4.9-2.2,4.9-4.9v-9.8c0-2.7-2.2-4.9-4.9-4.9S132.4,125.8,132.4,128.5z"
    />
    <path class="st2" d="M333.3,68.7c-2.3,0.2-3.5,1.4-3.5,1.4c-0.9,0.9-1.4,2.1-1.4,3.5v117.6c0,2.7,2.2,4.9,4.9,4.9H348v24.5h-34.3
	v-14.7c0-2.7-2.2-4.9-4.9-4.9h-14.7c-13.1,0-26.1,0-39.2,0h-9.8c-13.1,0-26.1,0-39.2,0h-14.7c-2.7,0-4.9,2.2-4.9,4.9v14.7H152v-24.5
	h14.7c2.7,0,4.9-2.2,4.9-4.9V73.6c0-2.7-2.2-4.9-4.9-4.9h-58.8c-2.7,0-4.9,2.2-4.9,4.9v117.6c0,2.7,2.2,4.9,4.9,4.9h14.7v24.5h-14.7
	c-2.7,0-4.9,2.2-4.9,4.9v29.4c0,2.7,2.2,4.9,4.9,4.9V299c0,2.7,2.2,4.9,4.9,4.9h274.4c2.7,0,4.9-2.2,4.9-4.9v-39.2
	c2.7,0,4.9-2.2,4.9-4.9v-29.4c0-2.7-2.2-4.9-4.9-4.9h-14.7v-24.5h14.7c2.7,0,4.9-2.2,4.9-4.9c0-40.7,0-81.4,0-122.2
	C361.8,68.5,336,68.4,333.3,68.7z M196.1,210.8h107.8v9.8H196.1V210.8z M112.8,78.5h49v107.8h-49V78.5z M132.4,196.1h9.8v24.5h-9.8
	V196.1z M382.3,294.1H117.7v-34.3h264.6V294.1z M387.2,250H112.8v-19.6h274.4V250z M367.6,220.6h-9.8v-24.5h9.8V220.6z M387.2,186.3
	h-49V78.5h49V186.3z"/>
    <path class="st2" d="M362.7,176.5c8.1,0,14.7-6.6,14.7-14.7c0-8.1-6.6-14.7-14.7-14.7c-8.1,0-14.7,6.6-14.7,14.7
	C348,169.9,354.6,176.5,362.7,176.5z M362.7,156.9c2.7,0,4.9,2.2,4.9,4.9c0,2.7-2.2,4.9-4.9,4.9c-2.7,0-4.9-2.2-4.9-4.9
	C357.8,159.1,360,156.9,362.7,156.9z"/>
    <path class="st2" d="M357.8,127.5v9.8c0,2.7,2.2,4.9,4.9,4.9c2.7,0,4.9-2.2,4.9-4.9v-9.8c0-2.7-2.2-4.9-4.9-4.9
	C360,122.6,357.8,124.8,357.8,127.5z"/>
    <g>
	<rect class="st24" height="144" width="500" x="1" y="363"/>
        <text class="st2 st25 st26" transform="matrix(1 0 0 1 147.0513 401.5557)">Enceintes</text>
</g>
</svg>
