<svg id="Calque_1" data-name="Calque 1" xmlns="http://www.w3.org/2000/svg" viewBox="0 0 350 300"><title>selected</title><path d="M200.07,46.33c10.8,0,20.41.05,29.37.15,6.78.08,9.2,2.59,9.23,9.6,0,2,0,3.91,0,5.87,0,7.9.1,16.07-.11,24.06,0,1.42-.15,5.72,2.77,8.72,1.91,2,4.56,2.91,8.11,2.91H250c3.87-.11,7.34-.16,10.61-.16,4,0,7.57.08,11.07.22,7.75.32,11,3.58,11.12,11.22.11,5.53.12,11.17.14,16.63,0,6.82,0,13.87.23,20.83a8.18,8.18,0,0,1-.13,2,9.78,9.78,0,0,1-2.48.22h-.12c-20.83-.1-42.57-.15-66.46-.15-20.41,0-42,0-67.9.11H146a8.56,8.56,0,0,1-4.18-.7,5.65,5.65,0,0,1-2-2.16l0-.06c-2.29-4-16.49-26.84-38-61.47l-6-9.67,4.66-3,4.62-3L120,85.15,137.69,105l5.53,6.19,2.89-7.79c1.89-5.12,3.8-10.15,5.65-15,4.47-11.79,8.69-22.93,12.42-34.38,1.81-5.56,4.5-7.54,10.3-7.57,10.32,0,18.21-.07,25.59-.07m8.2,5.54H202l-6.3,0h-1.18c-20.37,0-22.27,1.37-29,20.43-2.82,8-5.56,15.94-8.46,24.39-1.35,3.92-2.73,8-4.17,12.14l-2.3,6.63h21l13.23,0c10.53,0,23,0,35.5-.31,3.68-.08,9.71-5.12,9.92-11,.3-8.78.29-17.67.27-26.26,0-4.89,0-10,0-14.91,0-3.61-.9-6.33-2.87-8.31s-4.73-3-8.44-3h-.61c-3,.08-6.3.11-10.39.11m-8.2-10.54q-12.81,0-25.62.07c-7.53,0-12.43,3.05-15,11-5.25,16.13-11.6,31.9-18,49.22L106,62,89,73c25.45,41,43.94,70.76,46.49,75.17a10.53,10.53,0,0,0,3.86,4.05,12.94,12.94,0,0,0,6.68,1.37h.11q33.95-.09,67.88-.11,33.22,0,66.43.15h.15c5.61,0,7.77-1.64,7.61-7.38-.34-12.47-.13-25-.37-37.42-.19-10.29-5.49-15.69-15.92-16.12-3.75-.16-7.51-.23-11.27-.23-3.58,0-7.16.06-10.74.16h-.43c-4.41,0-6-1.89-5.88-6.5.27-10,.12-20.06.07-30.09,0-9.58-4.56-14.46-14.17-14.57q-14.72-.16-29.43-.15Zm8.2,15.54c3.51,0,7,0,10.52-.11h.48c4.2,0,6.36,1.52,6.31,6.23-.14,13.68.16,27.38-.31,41.05-.08,2.19-3.23,6.08-5,6.12-11.67.25-23.35.31-35.39.31-8.84,0-17.86,0-27.23,0,4.56-13.19,8.51-24.87,12.62-36.49,6-17.09,6.09-17.07,24.36-17.1h1.12c4.19,0,8.37,0,12.55,0Z"/><path d="M214.89,163.66c17.06,0,35.76.08,58.85.25,11.14.08,21.81,8.63,23.78,19.05,2.23,11.82-3.43,22.52-14.42,27.26-3.07,1.33-7.25,1.54-10.93,1.58-8.16.08-16.79.11-28,.11H217.76v0h-5l-18.13,0q-9,0-18.1,0c-9.54,0-17.37,0-24.64-.12-10.56-.11-18.52-5.54-21.83-14.88-3.48-9.82-.5-21.59,6.79-26.79,5.12-3.65,11.21-6,15.89-6,19.18-.29,39.51-.43,62.15-.43m0-5q-31.11,0-62.22.43c-6.34.09-13.44,3.19-18.72,7-9.53,6.8-12.6,21.24-8.6,32.53,3.93,11.08,13.68,18.07,26.49,18.21q12.35.14,24.69.12c12.08,0,24.16-.06,36.23-.06v0l31.41,0c9.35,0,18.7,0,28.05-.11,4.31-.05,9-.32,12.86-2,13.38-5.77,20-18.82,17.35-32.78-2.36-12.47-14.7-23-28.65-23.12q-29.44-.21-58.89-.25Z"/><path d="M37.09,116.62c.16.21.34.49.56.83,4.71,7.44,10.65,9,14.8,9a19,19,0,0,0,5.91-1,5,5,0,0,1,1.45.82c6.31,9.91,12.27,20.28,17.28,29.12,2.38,4.2,6.06,9,13.52,9a18.2,18.2,0,0,0,2.29-.15,6.55,6.55,0,0,1,.7-.05c.41,0,.45,0,1.2.4a12.77,12.77,0,0,0,4.27,1.45c-.5.43-1,.87-1.6,1.28-2.86,2.09-6.91,4-17.14,4-2.31,0-4.93-.11-7.78-.3-18-1.27-26.92-2-31.78-5.88-7.16-5.66-9.11-15.06-9.5-22-.71-12.89,3.37-24.29,5.23-26.19l.59-.43m.4-5.43c-1.18,0-2.48.69-4.11,2-5.72,4.43-14.67,41,4.29,56,6.13,4.85,15.54,5.62,34.53,6.94,3,.21,5.71.32,8.13.32,10.46,0,15.85-1.89,20.09-5,4.83-3.53,8.6-8.94,7.58-10.39a.86.86,0,0,0-.77-.32,45.67,45.67,0,0,1-5.15.59,16.39,16.39,0,0,1-2.13-.13c-2.79-.34-3.36-1.92-6.35-1.92a11,11,0,0,0-1.32.09,12.31,12.31,0,0,1-1.67.11c-4.5,0-7-2.57-9.17-6.48C75.81,143,70.08,133.1,64,123.47a8.46,8.46,0,0,0-5.77-3.09,2.37,2.37,0,0,0-.78.12,14.15,14.15,0,0,1-4.95,1c-4.59,0-8.07-2.72-10.57-6.68-1.57-2.48-2.89-3.59-4.39-3.59Z"/><path d="M82.08,68.38l3.44,2,1.26.72L65.5,91.93,42.16,114.82l-.34-.19L61.27,92.28l20.81-23.9M81,62,34,116l9,5L95,70,81,62Z"/><path d="M93.78,54.25H94c3.92.15,7.13,3.81,7,8a7.61,7.61,0,0,1-7.07,6.9H93.8c-3.68-.09-7.47-3.61-7.51-7a8,8,0,0,1,2.45-5.59,7.3,7.3,0,0,1,5-2.34m0-5c-6.52,0-12.55,6.21-12.49,13,.06,6,6,11.76,12.38,11.92h.26A12.61,12.61,0,0,0,106,62.39c.19-6.89-5.18-12.87-11.82-13.13Z"/><path d="M180.91,172.73h3.4A18.32,18.32,0,0,0,177,183.21a20.11,20.11,0,0,0-7.71-10.4c3.6-.05,7.45-.08,11.63-.08h0m25.28.15h2.29v0h11.29a18.46,18.46,0,0,0-6,10.13,19.8,19.8,0,0,0-7.59-10.18m41.87,0h8.8c-.45.38-.89.78-1.31,1.2a19.61,19.61,0,0,0-4.79,7.86,19.47,19.47,0,0,0-4.69-7.68c-.48-.49-1-1-1.51-1.39h3.5m-105.94,5.55a19.62,19.62,0,0,0-2.83,10.15,20.85,20.85,0,0,0,2.26,9.78,15.59,15.59,0,0,1-2.43-3.73c-1.06-2.25-4.07-10,1.82-15.23.38-.34.77-.66,1.18-1m146.42,7.31a18,18,0,0,1,.19,2.36,14.54,14.54,0,0,1-3.05,9.4,18.15,18.15,0,0,0,3-10.07c0-.56,0-1.13-.11-1.69m-74.49,7.71a17.28,17.28,0,0,0,6.58,10H207.75a19.12,19.12,0,0,0,6.3-10m36.66.17a18.29,18.29,0,0,0,6.79,9.74l-14,0a19,19,0,0,0,7.25-9.76m-73.71.64a17.62,17.62,0,0,0,5.37,9.14H170.76c.56-.46,1.1-1,1.62-1.48a19.12,19.12,0,0,0,4.62-7.66m3.91-26.56c-8.71,0-17.42.11-26.12.52-5.9.27-12.67,3.46-17.16,7.43-6.14,5.44-6.5,13.75-3,21.11,3.92,8.32,11.4,11.64,20.42,11.64h52q32.33,0,64.65-.1c13.32,0,22.16-8.42,22.05-20.25S284.45,168,271.44,168q-11.69,0-23.38,0l-34.58,0v0c-10.86,0-21.72-.17-32.57-.17ZM269.08,202h0c-8.35,0-14.18-5.88-14.21-14.33A14.47,14.47,0,0,1,269,173.41h.33c7.41.18,14.16,6.87,14.3,14.14S276.7,202,269.08,202Zm-36.85-.1H232c-8.64-.15-13.74-5.64-13.63-14.69a13.51,13.51,0,0,1,13.93-13.78h0c7.8,0,14.49,6.69,14.39,14.36a14.27,14.27,0,0,1-14.43,14.11Zm-74,1c-8.42,0-14-5.7-14-14.29A14,14,0,0,1,158,174.39h.47a14.86,14.86,0,0,1,14.37,14.18c.13,7.71-6.53,14.32-14.49,14.37Zm37,0H195c-8.64-.15-13.74-5.64-13.63-14.69a13.51,13.51,0,0,1,13.93-13.78h0c7.8,0,14.49,6.69,14.39,14.36a14.27,14.27,0,0,1-14.43,14.11Z"/></svg>