<?xml version="1.0" encoding="utf-8"?>
<!-- Generator: Adobe Illustrator 22.1.0, SVG Export Plug-In . SVG Version: 6.00 Build 0)  -->
<svg style="enable-background:new 0 0 500 500;" id="Calque_1" version="1.1" viewBox="0 0 500 500" x="0px"
     xmlns="http://www.w3.org/2000/svg" y="0px" xml:space="preserve">
<style type="text/css">
	.st0{fill:#4FBDD7;}
	.st1{fill:#EAEAEA;}
	.st2{fill:#FFFFFF;}
	.st3{fill:#4FBDD7;stroke:#FFFFFF;stroke-width:5;stroke-miterlimit:10;}
	.st4{fill:#8C8C8C;}
	.st5{fill:#070707;}
	.st6{fill:none;stroke:#FFFFFF;stroke-width:7;stroke-miterlimit:10;}
	.st7{fill:none;stroke:#FFFFFF;stroke-width:10;stroke-miterlimit:10;}
	.st8{fill:#FFFFFF;stroke:#FFFFFF;stroke-width:3;stroke-miterlimit:10;}
	.st9{fill:none;stroke:#FDFFFF;stroke-width:6;stroke-miterlimit:10;}
	.st10{fill:#FAFEFF;}
	.st11{fill:none;stroke:#FFFFFF;stroke-width:2;stroke-miterlimit:10;}
	.st12{fill:#FFFFFF;stroke:#FFFFFF;stroke-width:2;stroke-miterlimit:10;}
	.st13{fill:#4FBDD7;stroke:#FFFFFF;stroke-width:4;stroke-miterlimit:10;}
	.st14{fill:#FFFFFF;stroke:#FFFFFF;stroke-width:4;stroke-miterlimit:10;}
	.st15{fill:none;stroke:#FFFFFF;stroke-miterlimit:10;}
	.st16{fill:#FFFFFF;stroke:#FFFFFF;stroke-width:13;stroke-miterlimit:10;}
	.st17{fill:#4FBDD7;stroke:#FFFFFF;stroke-width:8;stroke-miterlimit:10;}
	.st18{fill:#FFFFFF;stroke:#FFFFFF;stroke-width:0.75;stroke-miterlimit:10;}
	.st19{fill:#FFFFFF;stroke:#FFFFFF;stroke-width:0.5;stroke-miterlimit:10;}
	.st20{fill:none;}
	.st21{font-family:'HelveticaNeue-CondensedBold';}
	.st22{font-size:54px;}
	.st23{fill:#FFFFFF;stroke:#FFFFFF;stroke-width:8;stroke-miterlimit:10;}
	.st24{fill:#FFFFFF;stroke:#FFFFFF;stroke-miterlimit:10;}
	.st25{fill:#FFFFFF;stroke:#FFFFFF;stroke-width:11;stroke-miterlimit:10;}
	.st26{fill:#FFFFFF;stroke:#FFFFFF;stroke-width:6;stroke-miterlimit:10;}
	.st27{fill:#8C8C8C;stroke:#8C8C8C;stroke-width:4;stroke-miterlimit:10;}
	.st28{fill:#FFFFFF;stroke:#FFFFFF;stroke-width:1.05;stroke-miterlimit:10;}
	.st29{fill:none;stroke:#4FBDD7;stroke-width:5;stroke-miterlimit:10;}
	.st30{fill:none;stroke:#FFFFFF;stroke-width:4;stroke-miterlimit:10;}
	.st31{fill:#8C8C8C;stroke:#FFFFFF;stroke-width:4;stroke-miterlimit:10;}
	.st32{fill:#FFFFFF;stroke:#FFFFFF;stroke-width:10;stroke-miterlimit:10;}
	.st33{fill:none;stroke:#4FBDD7;stroke-width:2;stroke-miterlimit:10;}
	.st34{fill-rule:evenodd;clip-rule:evenodd;fill:#FFFFFF;}
	.st35{fill:#FFFFFF;stroke:#FFFFFF;stroke-width:7;stroke-miterlimit:10;}
	.st36{fill:#FFFFFF;stroke:#4FBDD7;stroke-width:7;stroke-miterlimit:10;}
	.st37{fill:#FCFCFC;}
	.st38{fill:#FFFFFF;stroke:#FFFFFF;stroke-width:5;stroke-miterlimit:10;}
	.st39{fill:none;stroke:#FFFFFF;stroke-width:3;stroke-miterlimit:10;}
	.st40{fill:none;stroke:#FFFFFF;stroke-width:8;stroke-miterlimit:10;}
	.st41{fill:none;stroke:#FFFFFF;stroke-width:6;stroke-miterlimit:10;}
	.st42{fill:#FFFFFF;stroke:#4FBDD7;stroke-width:3;stroke-miterlimit:10;}
	.st43{fill:none;stroke:#FFFFFF;stroke-width:0.75;stroke-miterlimit:10;}
	.st44{fill:#4FBDD7;stroke:#FFFFFF;stroke-width:9;stroke-miterlimit:10;}
	.st45{fill:none;stroke:#FFFFFF;stroke-width:9;stroke-miterlimit:10;}
	.st46{fill:none;stroke:#4FBDD7;stroke-width:3;stroke-miterlimit:10;}
</style>
    <rect class="st0" height="500" width="500"/>
    <path class="st2" d="M218.3,233.4c0,6.3,5.2,11.5,11.5,11.5s11.5-5.2,11.5-11.5s-5.2-11.5-11.5-11.5S218.3,227.1,218.3,233.4z
	 M233.6,233.4c0,2.1-1.7,3.7-3.7,3.7s-3.7-1.7-3.7-3.7s1.7-3.7,3.7-3.7C231.9,229.7,233.6,231.4,233.6,233.4z"/>
    <path class="st4" d="M214.2,286c-6.3,0-11.5,5.2-11.5,11.5s5.2,11.5,11.5,11.5s11.5-5.2,11.5-11.5S220.6,286,214.2,286z
	 M214.2,301.2c-2.1,0-3.7-1.7-3.7-3.7c0-2.1,1.7-3.7,3.7-3.7s3.7,1.7,3.7,3.7C218,299.5,216.3,301.2,214.2,301.2z"/>
    <path class="st2" d="M327.9,237.7c0.4,2.1,2.5,3.4,4.6,3c2.1-0.4,3.4-2.5,3-4.6c-4.3-20.5-22.7-35.4-43.8-35.4
	c-8.6,0-16.6,2.4-23.4,6.6v-22c5.7,3.5,12.4,5.3,19.1,5.3c20.5,0,37.1-16.7,37.1-37.1c0-4.3-0.7-8.5-2.2-12.5
	c9-2.6,15.6-11,15.6-20.7c0-11.9-9.7-21.6-21.6-21.6c-4.5,0-8.8,1.4-12.4,3.9c-0.8-1.6-1.6-3.1-2.7-4.6c-1.2-1.7-3.7-2.2-5.4-0.9
	c-1.7,1.2-2.2,3.7-0.9,5.4c1.7,2.4,2.9,5.1,3.5,7.9c0.3,1.5,1.5,2.6,3,3c1.5,0.3,3-0.2,3.9-1.4c2.6-3.5,6.7-5.5,11-5.5
	c7.6,0,13.8,6.2,13.8,13.8c0,7.5-6.1,13.7-13.5,13.8c-1.3,0-2.6,0.8-3.3,1.9c-0.7,1.2-0.7,2.6-0.1,3.8c2.3,4.3,3.4,8.9,3.4,13.7
	c0,16.2-13.2,29.4-29.4,29.4c-7,0-13.8-2.5-19.1-7.1c0,0,0,0,0,0v-24.5c6.4-1.7,11.1-7.5,11.1-14.5c0-8.2-6.7-15-15-15h-0.8
	c-2.7,0-5.5,0-8.2,0h-44.2c-0.5,0-0.9,0-1.4,0.1c-1.8-3.6-2.7-7.6-2.7-11.6c0-14.6,11.9-26.5,26.5-26.5c9.7,0,18.7,5.3,23.3,13.9
	c0.6,1,1.6,1.8,2.7,2c1.2,0.2,2.4-0.1,3.2-0.9c2.2-1.9,4.7-3.4,7.3-4.3c2.4-0.8,4.2-1.1,7-1.2c3.1-0.1,9.3-0.2,13.6,3.7
	c2.2,2,1.7,3,4,5c3.5,3,9,4.4,10,3c1.8-2.5-8.4-15.6-20.4-18.6c-3.4-0.9-6.9-0.9-7.2-0.9c-5.7,0-11.2,1.6-15.9,4.7
	c-6.4-8.8-16.7-14.2-27.7-14.2c-18.9,0-34.2,15.4-34.2,34.2c0,5,1.1,9.9,3.2,14.4c-3.8,2.7-6.3,7.2-6.3,12.2
	c0,6.9,4.7,12.8,11.1,14.5v13.7c0,2.1,1.7,3.9,3.9,3.9c2.1,0,3.9-1.7,3.9-3.9v-13.2h45.3v61.6c-8.3,8.1-13.5,19.5-13.5,32
	c0,3.5,0.4,7,1.2,10.3h-42.7c-3.3,0-6.4,1.8-8.1,4.6l-28.2,47.5c-2.3,3.9-2.4,8.6-0.1,12.5c2.2,3.9,6.3,6.3,10.8,6.3h116
	c4.5,0,8.6-2.4,10.8-6.3c2.2-3.9,2.2-8.6-0.1-12.5l-10.6-17.8c2.4-0.2,4.7-0.6,7-1.2l9.3,15.7c3.6,6,3.6,13.2,0.2,19.2
	c-3.4,6-9.6,9.7-16.6,9.7h-116c-7,0-13.2-3.6-16.6-9.7c-3.4-6-3.4-13.2,0.2-19.2l51.3-86.2c0.4-0.6,0.5-1.3,0.5-2v-33.5
	c0-2.1-1.7-3.9-3.9-3.9c-2.1,0-3.9,1.7-3.9,3.9V215l-50.7,85.3c-5,8.4-5.1,18.5-0.3,27c4.8,8.5,13.6,13.6,23.3,13.6h116
	c9.8,0,18.5-5.1,23.3-13.6c4.8-8.5,4.7-18.6-0.3-27l-8.5-14.4c3.3-1.5,6.4-3.5,9.3-5.8c7.8-6.3,13.3-15.1,15.5-24.8
	c0.5-2.1-0.8-4.2-2.9-4.7c-2.1-0.5-4.2,0.8-4.7,2.9c-1.8,8-6.4,15.3-12.8,20.5c-6.6,5.3-14.6,8.2-23.2,8.2c-20.4,0-37-16.6-37-37
	c0-20.4,16.6-37,37-37C309.1,208.4,324.3,220.7,327.9,237.7z M204.2,136.8c0-4,3.2-7.2,7.2-7.2h53.1c4,0,7.2,3.2,7.2,7.2
	s-3.2,7.2-7.2,7.2h-53.1C207.4,143.9,204.2,140.7,204.2,136.8z"/>
    <path class="st2" d="M292.2,225.3c-11.3,0-20.4,9.2-20.4,20.4v12.8c0,3.9,3.1,7,7,7h12.8c11.3,0,20.4-9.2,20.4-20.4v-12.8
	c0-3.9-3.1-7-7-7H292.2z M304.2,245c0,7-5.7,12.7-12.7,12.7h-6.7l9.7-9.7c1.5-1.5,1.5-4,0-5.5c-1.5-1.5-4-1.5-5.5,0l-9.5,9.5v-6.4
	c0-7,5.7-12.7,12.7-12.7h12V245z"/>
    <rect class="st18" height="42" width="7" x="208" y="158"/>
    <g>
	<rect class="st20" height="144" width="500" y="366"/>
        <text transform="matrix(1 0 0 1 154.125 404.5557)"><tspan class="st2 st21 st22" x="0" y="0">Engrais / </tspan>
            <tspan class="st2 st21 st22" x="-15.5" y="64.8">traitement</tspan></text>
</g>
    <circle class="st45" cx="291" cy="245" r="42"/>
</svg>
