<svg id="Calque_1" data-name="Calque 1" xmlns="http://www.w3.org/2000/svg" viewBox="0 0 350 300"><title>selected</title><path d="M113.77,27h0a10.69,10.69,0,0,1,1.69.13,11.07,11.07,0,0,1,8.23,5.79L137.12,58l.46.85.78.54,25.49,17.75a.27.27,0,0,1,.08.07l16.33,24.11.46.68.7.44,26.25,16.83a.26.26,0,0,1,.09.09l15.46,24.7.71,1.13,1.25.48,37.64,14.45a.28.28,0,0,1,.18.26.44.44,0,0,1,0,.1.28.28,0,0,1-.26.18l-.1,0-39-15a.3.3,0,0,1-.14-.11l-15.71-25.1-.47-.76-.76-.49-26.19-16.79a.27.27,0,0,1-.08-.07L163.91,78.2l-.42-.61-.61-.43L137.2,59.29a.28.28,0,0,1-.09-.1l-13.92-26a10.52,10.52,0,0,0-7.81-5.5,10.64,10.64,0,0,0-9.08,18L259.13,198.54a.29.29,0,0,1,.08.2.27.27,0,0,1-.08.2.31.31,0,0,1-.2.08.27.27,0,0,1-.2-.08L105.91,46.11a11.2,11.2,0,0,1,0-15.83A11.07,11.07,0,0,1,113.77,27M75.21,70a21.6,21.6,0,0,1,15.37,6.37L236,221.72a.27.27,0,0,1,.08.2.31.31,0,0,1-.08.2.27.27,0,0,1-.2.08.26.26,0,0,1-.19-.08L90.18,76.74a21.17,21.17,0,0,0-29.94,30L205.61,252.06a.27.27,0,0,1,.08.2.26.26,0,0,1-.08.19.26.26,0,0,1-.2.09.25.25,0,0,1-.19-.09L59.84,107.08A21.74,21.74,0,0,1,75.21,70m38.56-47a15,15,0,0,0-10.69,4.46,15.19,15.19,0,0,0,0,21.48L255.9,201.77a4.28,4.28,0,1,0,6-6.05L109.13,42.89a6.64,6.64,0,0,1,4.66-11.33,6.74,6.74,0,0,1,1,.08,6.57,6.57,0,0,1,4.88,3.43l13.92,26a4.39,4.39,0,0,0,1.32,1.49L160.6,80.45,177,104.62a4.26,4.26,0,0,0,1.23,1.2l26.19,16.79,15.71,25.1a4.27,4.27,0,0,0,2.1,1.72l39,15a4.11,4.11,0,0,0,1.53.29,4.28,4.28,0,0,0,4-2.75,4.11,4.11,0,0,0,.29-1.53,4.28,4.28,0,0,0-2.75-4L226.61,142l-15.46-24.71a4.41,4.41,0,0,0-1.32-1.33L183.57,99.09,167.24,75a4.19,4.19,0,0,0-1.1-1.12L140.65,56.13,127.22,31a15.08,15.08,0,0,0-11.17-7.86,16.12,16.12,0,0,0-2.28-.17ZM75.21,66A25.74,25.74,0,0,0,57,109.91L202.39,255.28a4.28,4.28,0,0,0,6.05-6.05L63.06,103.86A17.18,17.18,0,0,1,87.35,79.57L232.73,224.94a4.28,4.28,0,0,0,7.3-3,4.29,4.29,0,0,0-1.25-3L93.4,73.52A25.56,25.56,0,0,0,75.21,66Z"/></svg>