<svg id="Calque_1" data-name="Calque 1" xmlns="http://www.w3.org/2000/svg" viewBox="0 0 350 300"><title>selected</title><path d="M208.43,23v3H115V23h93.43m0,34.66v2.09H115v-2.1h93.43M209.68,19H113.74c-1.51,0-2.74,1.82-2.74,4.07V59.69c0,2.25,1.23,4.07,2.74,4.07h96c1.51,0,2.73-1.82,2.73-4.06V23.07c0-2.25-1.23-4.07-2.75-4.07ZM114.8,33.37V30h94.67v3.38Zm71.87,12.37V36.65H207v9.09Zm-22.41,0V36.65h16.92v9.09Zm-27,0V36.65H157.5v9.09Zm-20.29,0V36.65h13.52v9.09Zm-2.12,7.92V50.28h94.67v3.38Z"/><g id="Kb26js.tif"><path d="M163.12,67a41.42,41.42,0,0,1-2.28,5.87c-4.79,9.34-4.74,16.06.18,24.78a40.42,40.42,0,0,1,0,38.75c-5.1,9.14-5.09,16.18,0,25.13,6.48,11.32,6.45,27.23-.07,38.67a24.9,24.9,0,0,0-3.72,11.65c-.1,3,.7,5.19,1.8,8.21.44,1.22.94,2.59,1.51,4.34.39,1.2.77,2.39,1.13,3.59h-2.09c-4.35-10.64-3.75-24.59,1.65-34.14a40.69,40.69,0,0,0,2.41-4.76,21.61,21.61,0,0,0,.06-16.42,41.74,41.74,0,0,0-2.31-4.59l-.41-.74a34.5,34.5,0,0,1-4-13.87c-.8-9.4.66-17.16,4.48-23.72,5.09-8.77,5.19-16.2.33-24.86A40.69,40.69,0,0,1,161,67h2.14m5.55-4H158.58a44.64,44.64,0,0,0-.24,43.85c4.15,7.39,4.13,13.27-.3,20.89-4.14,7.13-5.89,15.68-5,26.07a38.14,38.14,0,0,0,4.51,15.45,49.62,49.62,0,0,1,2.52,4.94,17.49,17.49,0,0,1,0,13.35,38.93,38.93,0,0,1-2.2,4.33c-6.5,11.48-6.74,28.08-.75,40.1H167c-.5-1.95-1.35-5.05-2.58-8.84-2-6.13-3.23-8-3.12-11.18a21.13,21.13,0,0,1,3.19-9.8c7.24-12.69,7.27-30.07.07-42.64-4.39-7.67-4.39-13.33,0-21.2a44.62,44.62,0,0,0-.05-42.65c-4.29-7.61-4.19-13-.1-21,1.72-3.37,2.87-7.77,4.27-11.7Z"/><path d="M195.66,67c-1,2.54-2,4.67-3,6.48-4.39,8.32-4.35,15.35.12,23.52.17.32.35.62.53.92l.33.56c5.83,10.4,5.83,26.68,0,37.07l-.22.39c-.61,1.09-1.25,2.22-1.84,3.48a21.59,21.59,0,0,0,0,19.1c.54,1.13,1.11,2.12,1.66,3.07.14.26.29.51.43.76,5.63,10,5.65,26.8,0,36.79-.16.28-.32.57-.49.85-.53.93-1.07,1.88-1.59,3a24.79,24.79,0,0,0-2.26,9.52l0,.28a32.78,32.78,0,0,0,.2,6.34l-.24.15c-1.39-9,.1-18.43,4.17-25.61a38.62,38.62,0,0,0,2.4-4.86,21.18,21.18,0,0,0-.05-16,43.88,43.88,0,0,0-2.24-4.5l-.46-.83a35.33,35.33,0,0,1-4.11-14.67c-.63-9.17.85-16.69,4.51-23,5-8.68,5.21-16,.53-24.52a40.85,40.85,0,0,1-1-38.27h2.55m5.12-4H190.69a44.74,44.74,0,0,0-.08,44.2c4,7.25,3.92,13-.48,20.57-4,6.9-5.73,15.21-5,25.27a38.94,38.94,0,0,0,4.59,16.3,53.24,53.24,0,0,1,2.51,4.95,17.3,17.3,0,0,1,0,13,35.72,35.72,0,0,1-2.17,4.38c-5.39,9.52-6.58,22.34-3.56,33.3a30.12,30.12,0,0,0,7.5-4,28.18,28.18,0,0,1-.6-8,21.56,21.56,0,0,1,1.9-8.35c.61-1.28,1.3-2.41,2-3.59,6.31-11.25,6.29-29.5,0-40.71-.66-1.17-1.35-2.31-2-3.58a17.67,17.67,0,0,1,0-15.66c.61-1.28,1.28-2.45,1.94-3.63,6.46-11.55,6.45-29.43,0-41-.28-.49-.57-1-.85-1.45-3.85-7-3.84-12.61-.08-19.73a85.23,85.23,0,0,0,3.67-8.11,26.12,26.12,0,0,0,.9-4.24Z"/><path d="M181.08,67c-1,2.38-2.08,4.58-3.26,6.9l-.3.59c-3.75,7.4-3.73,14.25.06,21.54.34.66.68,1.26,1,1.84s.55,1,.8,1.44c5.29,10,5.19,26.2-.24,36l-.35.63c-.74,1.32-1.5,2.69-2.2,4.25a21.7,21.7,0,0,0-.14,17.22,42.81,42.81,0,0,0,2.16,4.24l.41.73c3.21,5.79,4.6,13,4.14,21.38A35.32,35.32,0,0,1,178.61,200c-2.56,4.38-3.8,8.23-3.89,12.09-.06,2.51.56,4.24,1.59,7.09.48,1.34,1.08,3,1.82,5.29.23.73.47,1.47.7,2.21l-2.17.27c-3.87-10.48-3.12-23.93,2.06-33.06l.11-.18c.54-1,1.11-2,1.64-3.07a22,22,0,0,0,.09-19.46C180,170,179.45,169,178.9,168l-.26-.44c-5.91-10.49-5.92-26.87,0-37.29a46.17,46.17,0,0,0,2.57-5.07,21.35,21.35,0,0,0,.11-16,43.38,43.38,0,0,0-2.51-5.06l-.2-.36a35.13,35.13,0,0,1-4.24-15.33c-.49-8.38.81-15.43,4-21.45h2.75m5-4H176c-4.18,6.81-6.27,15.17-5.65,25.68a38.86,38.86,0,0,0,4.73,17,43.5,43.5,0,0,1,2.5,5,17.47,17.47,0,0,1-.09,13,41.92,41.92,0,0,1-2.36,4.64c-6.6,11.65-6.59,29.49,0,41.22.61,1.08,1.23,2.14,1.78,3.32a17.92,17.92,0,0,1-.07,16c-.51,1.06-1.07,2-1.63,3-6.34,11.18-6.71,27.45-1.1,39.36,1.76-.2,3.53-.42,5.33-.65L184,230c-.44-1.54-1.14-3.91-2.07-6.77-2.26-7-3.28-8.41-3.21-11,.08-3.25,1.19-6.48,3.34-10.18a39.08,39.08,0,0,0,5.12-18c.5-9.24-1.06-17.06-4.64-23.52a47.26,47.26,0,0,1-2.38-4.6,17.51,17.51,0,0,1,.1-14c.73-1.63,1.58-3.09,2.4-4.57,6.09-11,6.22-28.51.28-39.8-.58-1.11-1.23-2.13-1.81-3.25-3.18-6.14-3.18-11.7,0-17.89,1.3-2.58,2.63-5.15,3.77-8A36.8,36.8,0,0,0,186.1,63Z"/><path d="M147.49,67a47.08,47.08,0,0,1-2.42,6.19c-4.51,8.94-4.46,15.94.19,24.17a40.7,40.7,0,0,1,0,39.36c-4.87,8.87-4.81,16.06.22,24.82,6.42,11.16,6.46,27.3.09,38.38-2.54,4.43-3.78,8.26-3.89,12-.09,2.9.64,4.9,2.4,9.74l1.13,3.13c.3.85.6,1.7.91,2.55l-2.42-.12c-3.93-10.29-3.29-24,1.76-33l.42-.76c.43-.75.88-1.53,1.31-2.39a22.16,22.16,0,0,0,0-20.54c-.41-.85-.84-1.6-1.26-2.32-.2-.37-.41-.73-.62-1.11a34.26,34.26,0,0,1-4-14.33c-.63-9.18.84-16.7,4.5-23,5.27-9.06,5.38-16.89.34-24.67-5.72-8.84-7.12-26.47-.93-38.14h2.2m5.59-4H143c-8.38,13.11-6.88,33.88-.12,44.32,4.28,6.62,3.93,12.94-.45,20.48-4,6.89-5.73,15.22-5,25.28a38.33,38.33,0,0,0,4.45,16c.6,1.1,1.24,2.13,1.8,3.28a18.06,18.06,0,0,1,0,17c-.52,1-1.09,2-1.64,3-6.07,10.79-6.38,27.41-.94,38.9,1.78,0,3.67.08,5.66.23s3.63.34,5.29.58c-.61-1.76-1.66-4.77-3-8.53-2.54-7.12-3.37-8.84-3.29-11.4.09-3.21,1.2-6.4,3.36-10.16,7.05-12.26,7-30-.09-42.36-4.33-7.54-4.38-13.26-.18-20.91a44.67,44.67,0,0,0,0-43.25c-4.05-7.17-4-12.78-.1-20.4,1.76-3.49,3-8,4.44-12Z"/><path d="M131.42,67c-1.18,2.69-2.45,5.33-3.68,7.9l-.13.28a22,22,0,0,0-.08,19.8c.47,1,1,1.86,1.44,2.71q.39.66.75,1.35c3.51,6.6,4.73,14.79,3.63,24.33-.69,5.92-2.78,10.15-5.23,14.69-3.89,7.17-3.94,14-.16,21.54.39.77.79,1.48,1.18,2.16l.22.39c5.95,10.52,5.95,26.91,0,37.3l-.27.48c-.43.75-.88,1.53-1.31,2.41a21.82,21.82,0,0,0-.06,20.47c.46.94.93,1.73,1.35,2.42.26.44.5.83.71,1.22-1-.06-2-.09-3-.1a42.51,42.51,0,0,1-2-15.65A36.53,36.53,0,0,1,129.65,193c4.86-8.39,4.84-16,0-24.55l-.4-.68q-.15-.22-.27-.45c-5.72-10.12-5.73-26.6,0-36.73l.2-.37c.62-1.09,1.26-2.22,1.86-3.48a21.73,21.73,0,0,0,.14-19.09c-.6-1.29-1.24-2.43-1.86-3.53-.4-.7-.77-1.37-1.12-2-3.87-7.5-5.57-23.4.64-35.09h2.64m5.15-4H126.48c-8.15,12.89-6.67,31.66-1.9,40.93,1,1.84,2,3.49,2.91,5.42a17.68,17.68,0,0,1-.11,15.68c-.61,1.27-1.28,2.44-1.95,3.61-6.35,11.27-6.34,29.41,0,40.67.22.39.46.75.68,1.14,4.18,7.34,4.26,13.31.06,20.57a40.51,40.51,0,0,0-5.43,19.53c-.27,7.58.82,14.24,3.35,19.82.59,0,1.2,0,1.82,0,1.19,0,2.44,0,3.74.11,1.91.12,3.69.31,5.33.55a14.8,14.8,0,0,0-.39-3c-.72-3.17-2.1-4.54-3.3-7a17.74,17.74,0,0,1,.05-16.94c.46-.94,1-1.8,1.48-2.67,6.6-11.54,6.6-29.59,0-41.26-.45-.78-.9-1.55-1.31-2.38-3.15-6.25-3.2-11.77.09-17.84,2.53-4.67,4.91-9.41,5.69-16.14,1.18-10.2-.08-19.16-4.06-26.65-.7-1.32-1.46-2.53-2.12-3.91a18,18,0,0,1,.07-16.35c1.52-3.16,3-6.33,4.46-9.67a25.45,25.45,0,0,0,.9-4.24Z"/></g><g id="Kb26js.tif-2" data-name="Kb26js.tif"><path d="M163.12,133a41.42,41.42,0,0,1-2.28,5.87c-4.79,9.34-4.74,16.06.18,24.78a40.42,40.42,0,0,1,0,38.75c-5.1,9.14-5.09,16.18,0,25.13,6.48,11.32,6.45,27.23-.07,38.67-4.23,7.41-4.85,13.59-1.88,21.05l-.77,0-.72,0c-2-9.46-.61-19.94,3.65-27.47a40.69,40.69,0,0,0,2.41-4.76,21.61,21.61,0,0,0,.06-16.42,41.74,41.74,0,0,0-2.31-4.59l-.41-.74a34.5,34.5,0,0,1-4-13.87c-.8-9.4.66-17.16,4.48-23.72,5.09-8.77,5.19-16.2.33-24.86A40.69,40.69,0,0,1,161,133h2.14m5.55-4H158.58a44.64,44.64,0,0,0-.24,43.85c4.15,7.39,4.13,13.27-.3,20.89-4.14,7.13-5.89,15.68-5,26.07a38.14,38.14,0,0,0,4.51,15.45,49.62,49.62,0,0,1,2.52,4.94,17.49,17.49,0,0,1,0,13.35,38.93,38.93,0,0,1-2.2,4.33c-5.39,9.52-6.46,22.54-3.27,33.56,3.6-.11,7.2-.36,10.8-.36q-.45-1-.93-1.92c-4.15-8-4.21-13.47.07-21,7.24-12.69,7.27-30.07.07-42.64-4.39-7.67-4.39-13.33,0-21.2a44.62,44.62,0,0,0-.05-42.65c-4.29-7.61-4.19-13-.1-21,1.72-3.37,2.87-7.77,4.27-11.7Z"/><path d="M195.66,133c-1,2.54-2,4.67-3,6.48-4.39,8.32-4.35,15.35.12,23.52.17.32.35.62.53.92l.33.56c5.83,10.4,5.83,26.68,0,37.07l-.22.39c-.61,1.09-1.25,2.22-1.84,3.48a21.59,21.59,0,0,0,0,19.1c.54,1.13,1.11,2.12,1.66,3.07.14.26.29.51.43.76,5.63,10,5.65,26.8,0,36.79-.16.28-.32.57-.49.85-.53.93-1.07,1.88-1.59,3a21.49,21.49,0,0,0-1.38,15.87l-.94.43c-1.39-9,.1-18.45,4.17-25.63a38.62,38.62,0,0,0,2.4-4.86,21.18,21.18,0,0,0-.05-16,43.88,43.88,0,0,0-2.24-4.5l-.46-.83a35.33,35.33,0,0,1-4.11-14.67c-.63-9.17.85-16.69,4.51-23,5-8.68,5.21-16,.53-24.52a40.85,40.85,0,0,1-1-38.27h2.55m5.12-4H190.69a44.74,44.74,0,0,0-.08,44.2c4,7.25,3.92,13-.48,20.57-4,6.9-5.73,15.21-5,25.27a38.94,38.94,0,0,0,4.59,16.3,53.24,53.24,0,0,1,2.51,4.95,17.3,17.3,0,0,1,0,13,35.72,35.72,0,0,1-2.17,4.38c-5.39,9.52-6.58,22.34-3.56,33.3,3-1.35,6-2.75,9-4l-.15-.29a17.67,17.67,0,0,1,0-16c.61-1.28,1.3-2.41,2-3.59,6.31-11.25,6.29-29.5,0-40.71-.66-1.17-1.35-2.31-2-3.58a17.67,17.67,0,0,1,0-15.66c.61-1.28,1.28-2.45,1.94-3.63,6.46-11.55,6.45-29.43,0-41-.28-.49-.57-.95-.85-1.45-3.85-7-3.84-12.61-.08-19.73a85.23,85.23,0,0,0,3.67-8.11,26.12,26.12,0,0,0,.9-4.24Z"/><path d="M181.08,133c-1,2.38-2.08,4.58-3.26,6.9l-.3.59c-3.75,7.4-3.73,14.25.06,21.54.34.66.68,1.26,1,1.84s.55,1,.8,1.44c5.29,10.05,5.19,26.2-.24,36l-.35.63c-.74,1.32-1.5,2.69-2.2,4.25a21.7,21.7,0,0,0-.14,17.22,44,44,0,0,0,2.16,4.24l.41.73c3.21,5.79,4.6,13,4.14,21.38A35.32,35.32,0,0,1,178.61,266c-4.54,7.77-5.13,14.16-1.79,21.88l-.68-.07-1-.1c-2.06-9.58-.74-20.24,3.56-27.82l.11-.2c.55-.95,1.11-1.94,1.64-3.05a22,22,0,0,0,.09-19.46C180,236,179.45,235,178.89,234l-.25-.44c-5.91-10.49-5.92-26.87,0-37.29a46.17,46.17,0,0,0,2.57-5.07,21.35,21.35,0,0,0,.11-16,43.38,43.38,0,0,0-2.51-5.06l-.2-.36a35.13,35.13,0,0,1-4.24-15.33c-.49-8.38.81-15.43,4-21.45h2.75m5-4H176c-4.18,6.81-6.27,15.17-5.65,25.68a38.86,38.86,0,0,0,4.73,17,43.5,43.5,0,0,1,2.5,5,17.47,17.47,0,0,1-.09,13,41.92,41.92,0,0,1-2.36,4.64c-6.6,11.65-6.59,29.49,0,41.22.61,1.08,1.23,2.14,1.78,3.32a17.92,17.92,0,0,1-.07,16c-.51,1.06-1.07,2-1.63,3-5.35,9.43-6.43,22.49-3.27,33.49,3.92.36,7.81.88,11.75,1.06-.56-1.13-1.22-2.18-1.79-3.23-4.31-8-4.31-13.6.13-21.23a39.08,39.08,0,0,0,5.12-18c.5-9.24-1.06-17.06-4.64-23.52a47.26,47.26,0,0,1-2.38-4.6,17.51,17.51,0,0,1,.1-14c.73-1.63,1.58-3.09,2.4-4.57,6.09-11,6.22-28.51.28-39.8-.58-1.11-1.23-2.13-1.81-3.25-3.18-6.14-3.18-11.7,0-17.89,1.3-2.58,2.63-5.15,3.77-8A36.8,36.8,0,0,0,186.1,129Z"/><path d="M147.49,133a47.08,47.08,0,0,1-2.42,6.19c-4.51,8.94-4.46,15.94.19,24.17a40.7,40.7,0,0,1,0,39.36c-4.87,8.87-4.81,16.06.22,24.82,6.42,11.16,6.46,27.3.09,38.38-4.5,7.84-5.09,14.09-1.79,21.94l-1.63.09c-2.07-9.54-.84-20.33,3.31-27.7l.42-.76c.43-.75.88-1.53,1.31-2.39a22.16,22.16,0,0,0,0-20.54c-.41-.85-.84-1.6-1.26-2.32-.2-.37-.41-.73-.62-1.11a34.26,34.26,0,0,1-4-14.33c-.63-9.18.84-16.7,4.5-23,5.27-9.06,5.38-16.89.34-24.67-5.72-8.84-7.12-26.47-.93-38.14h2.2m5.59-4H143c-8.38,13.11-6.88,33.88-.12,44.32,4.28,6.62,3.93,12.94-.45,20.48-4,6.89-5.72,15.22-5,25.28a38.33,38.33,0,0,0,4.45,16c.6,1.1,1.24,2.13,1.8,3.28a18.06,18.06,0,0,1,0,17c-.52,1-1.09,2-1.64,3-5.22,9.28-6.17,22.86-2.88,33.79,3.69-.12,7.38-.39,10.9-.52-.33-.72-.66-1.42-1-2.09-4.38-8.32-4.44-13.7.07-21.56,7.05-12.26,7-30-.09-42.36-4.33-7.54-4.38-13.26-.18-20.91a44.67,44.67,0,0,0,0-43.25c-4.05-7.17-4-12.78-.1-20.4,1.76-3.49,3-8,4.44-12Z"/><path d="M131.42,133c-1.17,2.69-2.44,5.32-3.67,7.87l-.14.31a22,22,0,0,0-.08,19.8c.47,1,1,1.86,1.44,2.71q.39.66.75,1.35c3.51,6.6,4.73,14.79,3.63,24.33-.69,5.92-2.78,10.15-5.23,14.69-3.89,7.17-3.94,14-.16,21.54.39.77.79,1.48,1.18,2.16l.22.39c5.95,10.52,5.95,26.91,0,37.3l-.27.47c-.44.76-.89,1.54-1.32,2.42a21.67,21.67,0,0,0-.68,19.12c-.57-.11-1.12-.23-1.66-.36a47.54,47.54,0,0,1-.68-10.4A36.53,36.53,0,0,1,129.65,259c4.86-8.39,4.84-16,0-24.55-.13-.23-.27-.46-.41-.68l-.27-.45c-5.71-10.12-5.72-26.6,0-36.73l.21-.38c.62-1.09,1.25-2.22,1.85-3.47a21.73,21.73,0,0,0,.14-19.09c-.6-1.29-1.24-2.43-1.86-3.53-.4-.7-.77-1.37-1.12-2-3.87-7.5-5.57-23.4.64-35.09h2.64m5.15-4H126.48c-8.15,12.89-6.67,31.66-1.9,40.93,1,1.84,2,3.49,2.91,5.42a17.68,17.68,0,0,1-.11,15.68c-.61,1.27-1.28,2.44-1.95,3.61-6.35,11.27-6.34,29.41,0,40.67.22.39.46.75.68,1.14,4.18,7.34,4.26,13.31.06,20.57a40.51,40.51,0,0,0-5.43,19.53A49.72,49.72,0,0,0,122,290.3l.42.11A40.89,40.89,0,0,0,134,292.12c-.73-1.81-1.88-3.34-2.73-5.07a17.74,17.74,0,0,1,.05-16.94c.46-.94,1-1.8,1.48-2.67,6.6-11.54,6.6-29.59,0-41.26-.45-.78-.9-1.55-1.31-2.38-3.15-6.25-3.2-11.77.09-17.84,2.53-4.67,4.91-9.41,5.69-16.14,1.18-10.2-.08-19.16-4.06-26.65-.7-1.32-1.46-2.53-2.12-3.91a18,18,0,0,1,.07-16.35c1.52-3.16,3-6.33,4.46-9.67a25.45,25.45,0,0,0,.9-4.24Z"/></g></svg>