<svg id="Calque_1" data-name="Calque 1" xmlns="http://www.w3.org/2000/svg" viewBox="0 0 350 300"><title>selected</title><path d="M176.58,22.82h.07l.4,0,.86.05,1.76.1,3.51.21.85.06a38.82,38.82,0,0,1,5.53.65l.06,0h.07l6.91,1.31h.08a27.2,27.2,0,0,1,4,1.1c.74.24,1.5.49,2.29.72,9.14,2.66,17.42,7.43,23.62,11.31,13.1,8.8,24.26,20.85,33.16,35.82a130.11,130.11,0,0,1,15.62,41.47c.25,1.28.5,2.55.74,3.82l.28,1.43c.19,1,.32,2.16.45,3.37.07.64.13,1.27.21,1.89l.07.64c.18,1.62.35,3.22.51,4.79l.25,2.57.05,2q.09,4.38.18,8.62c0,.36,0,.58,0,.72v1l0,1.19-.08,2.3-.11,2c-.05.83-.1,1.66-.14,2.45a271.28,271.28,0,0,1-3.9,30.88c-1.57,8.69-3.39,16.66-5.41,23.71-.78,2.85-1.71,5.74-2.82,8.79l-.61,1.59c-.28.73-.54,1.43-.79,2.1s-.58,1.31-.84,1.92-.49,1.13-.72,1.64c-.16.35-.31.68-.45,1l-.23.51-.25.48-.18.33c-.26.47-.48.89-.66,1.24l-.11.2-.62,1.16a13.53,13.53,0,0,1-24.35-11.75v-.05l.05-.12c.06-.12.23-.52.51-1.19l.36-.81.3-.67v0l0,0a2,2,0,0,1,.1-.22,8,8,0,0,0,.41-1l0,0v0l.07-.25.1-.34.34-1.09.13-.39,0-.07,0-.06c.22-.79.47-1.66.74-2.6.22-.7.4-1.45.57-2.17.1-.39.2-.8.3-1.18.32-1.2.64-2.55.95-4,1.36-6.08,2.56-13.35,3.49-21,1.08-8.88,1.8-18.51,2.08-27.82V153l0-1.76,0-1.94v-.09l0-1.81v-1h0v-.15l0-.61a3.81,3.81,0,0,0-.08-.78l-.12-1.92c-.11-1.78-.22-3.57-.34-5.36l-.12-2.18,0-.21,0-.22-.27-1.63c-.18-1.12-.35-2.25-.52-3.39v-.08c-.06-.39-.11-.78-.16-1.16-.1-.75-.21-1.59-.43-2.55L244,125c-.2-.86-.4-1.73-.6-2.57a104.15,104.15,0,0,0-12.52-30.88A80.56,80.56,0,0,0,207.58,66.9l-.1-.06-.11-.07c-4.18-2.44-9.37-5.49-15-7-.31-.08-.68-.21-1.07-.35a14.58,14.58,0,0,0-3.05-.8c-1-.16-2.12-.36-3.38-.61a17.23,17.23,0,0,0-3.78-.44l-.63,0-1.86-.11-.88-.06h-.08v-.14l-1.13,0c-.24,0-.46,0-.68.06l-3.73.23-2.7.16-.67,0-.41,0-.4.11-.32.09-.67.17c-.89.22-1.72.38-2.54.51h0l-.08,0h-.07A7.44,7.44,0,0,0,163,59l-.88.29-1.72.56c-5.6,1.5-10.75,4.53-14.9,7l-.11.06-.1.07A80.39,80.39,0,0,0,122,91.61a103.81,103.81,0,0,0-12.47,30.92c-.22,1-.46,2-.69,3.06l-.17.71c-.21,1-.33,1.9-.43,2.72-.06.44-.11.87-.18,1.31v.09c-.09.67-.18,1.34-.28,2l-.23,1.7-.28,1.86,0,.16v.17l-.12,1.85c-.07,1.1-.14,2.2-.22,3.29-.08,1.35-.17,2.67-.26,4v.24q0,2,0,3.93v.11l.06,3.45v.07c.3,9.3,1,18.91,2.12,27.78.94,7.59,2.16,14.86,3.54,21.06a107,107,0,0,0,3.35,12.11c.3.94.58,1.58.76,2,.06.13.11.24.15.35l0,.08,0,.08c.2.52.31.8.31.81l.85,2.11a13.45,13.45,0,0,1-24.4,11.23s-.29-.54-.82-1.56l-.48-.91c-.51-1-1.15-2.15-1.67-3.4l0-.08,0-.08a111.6,111.6,0,0,1-5.61-15.6c-2-7-3.85-15-5.44-23.66a272,272,0,0,1-4-30.88v-.26c-.08-1.45-.16-2.91-.25-4.4L75,147.45l-.06-1.69q.06-3.44.14-7l.06-2.8.07-2.39.24-2.4c.08-.75.16-1.5.25-2.26l.3-2.86c.08-.61.15-1.23.21-1.85.12-1.09.23-2.13.4-3.08l.29-1.48c.24-1.26.49-2.53.72-3.79a130.17,130.17,0,0,1,15.55-41.5c8.89-15,20-27.07,33.1-35.89,6.18-3.88,14.44-8.66,23.6-11.35h.08l3.3-1.05,1.64-.5c.2-.06.54-.13.87-.19l.71-.15c2.47-.5,5-1,7.54-1.39l1.9-.31.82-.12.5,0,2.71-.18,5.33-.36.9,0h.43m-.07,25,.38,0-.42-8h-.18l.18,8h0m68.31,50.32L248.51,96l6.19-3.58L258,90.52l-1.66-3.36c-1.48-3-2.93-5.65-4.45-8.18a108.55,108.55,0,0,0-18.45-23l-3.68-3.48-2.53,4.39-3.73,6.47L221.9,66l2.23,2.16a94,94,0,0,1,14.71,18.63c1.4,2.31,2.77,4.83,4.08,7.48l1.9,3.82m-136.7.12L110,94.43c1.38-2.78,2.71-5.23,4.08-7.5a93.63,93.63,0,0,1,14.68-18.65L131,66.11l-1.56-2.7L125.68,57l-2.54-4.38-3.67,3.48a108.36,108.36,0,0,0-18.41,23.07c-1.55,2.59-3,5.35-4.43,8.19L95,90.67l3.24,1.87,6.2,3.57,3.69,2.13M253.53,129.1c.18,1.38.35,2.75.53,4.12l0,.13.13,1,.45,3.5h15l-.54-4.47-.18-1.52c-.18-1.46-.36-3-.54-4.44l0-.2v-.06c-.07-.51-.12-1-.18-1.52-.13-1.1-.25-2.24-.5-3.43l-1-4.67a128.61,128.61,0,0,0-5.32-18.44l-1.65-4.44L255.69,97l-6.24,3.61-2.9,1.68,1.14,3.15a114,114,0,0,1,4.36,15.2c.31,1.46.62,2.92.92,4.35.16.77.26,1.59.36,2.47.06.53.13,1.07.2,1.6M83.49,138h15l.35-3.61a132.46,132.46,0,0,1,2.06-13.6,116.28,116.28,0,0,1,4.34-15.2l1.14-3.15-2.91-1.67-6.25-3.6L93.12,94.8l-1.63,4.45a129.34,129.34,0,0,0-5.28,18.48,149.27,149.27,0,0,0-2.32,15.91l-.4,4.37m171.25,11.58-.14,3.95c-.43,8.3-1.2,16.65-2.29,24.81L252,181l2.32,1.34,6.25,3.6,5.06,2.91.89-5.76a278.75,278.75,0,0,0,3-28.88c.13-3,.2-5.33.22-7.83l0-4H254.8l0,4c0,1.09,0,2.18,0,3.25M87.5,189l5.06-2.92,6.25-3.61,2.32-1.34-.36-2.66c-1.1-8.17-1.89-16.52-2.33-24.85-.14-2.23-.2-4.63-.19-7.11v-4h-15v4c0,2.85.08,5.44.23,7.87a283,283,0,0,0,3,28.85l.9,5.76M176.59,18.8l-1.53.05-5.41.36-2.71.18-.68.05-1,.15-1.94.31c-2.58.43-5.18.91-7.74,1.43-.62.14-1.31.25-1.89.42l-1.66.51-3.33,1c-9,2.64-17.07,7.07-24.66,11.84-14.89,10-26.15,23.35-34.36,37.2a134.23,134.23,0,0,0-16,42.77c-.34,1.79-.68,3.54-1,5.28s-.43,3.51-.65,5.23-.38,3.46-.56,5.16l-.26,2.55-.07,2.54c-.07,3.36-.15,6.67-.2,9.91,0,1.47.1,3,.15,4.43s.17,3.16.26,4.72a277.51,277.51,0,0,0,4,31.36c1.69,9.22,3.58,17.27,5.53,24a114.42,114.42,0,0,0,5.84,16.19c.79,1.89,1.76,3.58,2.29,4.62l.85,1.6a17.48,17.48,0,0,0,15.4,9.23,17.23,17.23,0,0,0,6.37-1.22,17.42,17.42,0,0,0,9.87-22.59l-.85-2.13s-.11-.27-.3-.78-.52-1.11-.93-2.4a105,105,0,0,1-3.22-11.7c-1.22-5.46-2.46-12.46-3.47-20.63s-1.78-17.61-2.09-27.42c0-1.15,0-2.3-.06-3.48s0-2.59,0-3.91c.17-2.39.31-4.82.48-7.29l.13-1.86.27-1.86c.17-1.24.35-2.49.53-3.74s.29-2.55.57-3.8.58-2.52.86-3.77a99.42,99.42,0,0,1,12-29.7A76.77,76.77,0,0,1,147.5,70.24c4.5-2.64,9.07-5.27,14-6.58l1.81-.58.91-.3a5.74,5.74,0,0,1,.75-.14c1-.15,1.94-.34,2.9-.58l.73-.18.36-.1.67,0,2.7-.17,4.35-.26h-.33l1.4,0-1.07.07h.21l.47.05.95.07,1.89.11a18.14,18.14,0,0,1,3.75.38c1.25.25,2.49.48,3.73.67a28.23,28.23,0,0,1,3.66,1.06c4.92,1.29,9.5,3.92,14,6.56A76.43,76.43,0,0,1,227.5,93.64a99.26,99.26,0,0,1,12,29.68c.3,1.25.59,2.52.88,3.77s.34,2.33.54,3.49.35,2.27.52,3.4l.28,1.68.13,2.18q.27,4.28.53,8.42v-.67s0,.17,0,.81v0s0-.09,0-.13v1.19l0,1.81c0,1.25,0,2.48-.06,3.7-.3,9.88-1.06,19.31-2,27.46s-2.21,15.18-3.43,20.64c-.29,1.39-.59,2.66-.91,3.81s-.54,2.31-.83,3.24-.53,1.85-.76,2.66c-.18.57-.35,1.09-.5,1.55-.06.24-.13.46-.18.66s-.27.63-.38.88l-.66,1.49c-.34.81-.52,1.21-.52,1.21l-.07.16A17.53,17.53,0,0,0,263.65,232l.62-1.16.77-1.44c.17-.32.29-.51.52-1s.45-1,.71-1.55c.48-1.1,1-2.35,1.61-3.72l1.44-3.77c1-2.7,2-5.78,2.94-9.14,1.94-6.79,3.82-14.84,5.49-24.07a278.54,278.54,0,0,0,3.95-31.32c.09-1.49.17-3,.26-4.51l.08-2.35,0-1.18v-1s0-.17,0-1c-.06-2.81-.12-5.69-.18-8.6l-.05-2.2-.27-2.72q-.29-2.73-.59-5.51c-.23-1.82-.37-3.77-.7-5.53s-.68-3.51-1-5.28a134.61,134.61,0,0,0-16.11-42.74C254.93,58.33,243.64,45,228.75,35c-7.6-4.75-15.7-9.17-24.68-11.79a62.15,62.15,0,0,0-6.72-1.93L190.43,20a46.75,46.75,0,0,0-7-.8L179.91,19l-1.76-.11-.88,0-.44,0h-.37c-.07,0,.22,0,.13,0Zm.06,25h0Zm69.86,48.73c-1.3-2.63-2.71-5.23-4.25-7.77a98.31,98.31,0,0,0-15.34-19.42l3.72-6.47A104.59,104.59,0,0,1,248.41,81c1.56,2.59,3,5.24,4.29,7.89l-6.19,3.59Zm-140.08.13-6.2-3.58c1.3-2.67,2.71-5.29,4.27-7.89A104.87,104.87,0,0,1,122.22,59L126,65.42a98,98,0,0,0-15.31,19.45c-1.53,2.54-2.93,5.15-4.23,7.78Zm151.75,41.22-.14-1c-.18-1.42-.36-2.84-.54-4.28s-.31-2.88-.61-4.33-.62-2.93-.93-4.39a118.6,118.6,0,0,0-4.51-15.72l6.24-3.61a123.55,123.55,0,0,1,5.15,17.86c.32,1.56.64,3.11,1,4.66s.42,3.14.63,4.69.38,3.1.57,4.63l.18,1.52ZM87.87,134a144.51,144.51,0,0,1,2.26-15.48,125.72,125.72,0,0,1,5.11-17.89l6.26,3.6A118,118,0,0,0,97,120a134.11,134.11,0,0,0-2.13,14Zm174.66,48.48-6.25-3.6c1-7.63,1.85-16,2.32-25.16,0-1.33.09-2.68.14-4,0-1.1,0-2.21,0-3.32h6.93c0,2.76-.1,5.15-.22,7.68a277.38,277.38,0,0,1-3,28.44Zm-172,.16a273.5,273.5,0,0,1-3-28.44c-.16-2.5-.23-5.06-.23-7.67h6.93q0,3.73.19,7.35c.49,9.11,1.33,17.52,2.37,25.16l-6.25,3.61Z"/><path d="M182.76,61.24a12.8,12.8,0,0,0-1.36.06h.29l1.07-.07Z"/><path d="M247.41,145.59v0Zm0,.12v0Zm0,0h0Zm0,.17v.35c0,.05,0,.1,0,.15,0-.22,0-.38,0-.5Zm0,.5v0Z"/><path d="M181.65,43.79h0Z"/></svg>