<svg id="Calque_1" data-name="Calque 1" xmlns="http://www.w3.org/2000/svg" viewBox="0 0 350 300"><title>selected</title><path d="M268.68,66.19l1.05,2.41H195.79A131.22,131.22,0,0,0,94.66,116l-1,1.17-6.69,8h0l-1,1.14L42.45,178.7l-5.14,6.18h0l-.41.5-5.66,6.8-5.46,6.56H180.24a400.84,400.84,0,0,0,136.59-23.91,7.38,7.38,0,0,0,4.28-9.84L283.89,78a15.39,15.39,0,0,0-4.32-5.79l-6.89-5.73A17.81,17.81,0,0,1,286.11,77L287.79,81l2.33,5.43,4.18-4.18,6.5-6.5a1.17,1.17,0,0,1,.85-.35,1.21,1.21,0,0,1,.86.35,1.19,1.19,0,0,1,.35.85,1.15,1.15,0,0,1-.36.85l-9.45,9.46-1.91,1.91,1.06,2.49,31.05,72.61c.69,2.14,1.23,5.21.05,7.92a10.47,10.47,0,0,1-5.65,5.3,405.66,405.66,0,0,1-75.06,19.23l-3.38.53h0l-3.49.48a406.46,406.46,0,0,1-55.48,3.81h-157a1.2,1.2,0,0,1-.93-2l24.91-29.93,2.33-2.8h0l2.13-2.55,41.16-49.45a133.63,133.63,0,0,1,103-48.26h72.89M252.92,214a1.21,1.21,0,1,1,0,2.41H23.21a1.21,1.21,0,1,1,0-2.41H252.92M269.7,62.19H195.79a137.58,137.58,0,0,0-106,49.7L48.57,161.34l-2-2.06a3.49,3.49,0,0,0-4.91,0,3.46,3.46,0,0,0,0,4.91l2.5,2.5L19.2,196.62a5.21,5.21,0,0,0,4,8.53h5.55V210H23.21a5.21,5.21,0,1,0,0,10.41H252.92a5.21,5.21,0,1,0,0-10.41h-9.71v-9.73A407.16,407.16,0,0,0,319,180.86a14.47,14.47,0,0,0,8-7.47c1.81-4.16.85-8.46,0-10.92L295.88,89.7l9.45-9.46A5.2,5.2,0,0,0,298,72.88l-6.5,6.5-1.68-3.94A21.83,21.83,0,0,0,269.7,62.19ZM96.16,182.39c-22.45,0-40.48-.65-50.63-1.13L89.12,128.9a57.31,57.31,0,0,0,28.93-14.08,115,115,0,0,1,77.73-30.08H254.7A13.55,13.55,0,0,0,268.17,72.6h.07c12.47,27.73,22.18,54.62,26.18,72.55a12.25,12.25,0,0,1-8.06,14.28c-56.62,19.17-136.18,23-190.2,23Zm.6-62.67,1-1.17A127.21,127.21,0,0,1,195.79,72.6h65.37a6.63,6.63,0,0,1-6.46,5.2H195.78a122,122,0,0,0-82.4,31.89,50.13,50.13,0,0,1-16.62,10Zm.2,69.66c9.18,0,19.08-.11,29.43-.39,46.72-1.25,112.78-6.25,162.19-23a19.18,19.18,0,0,0,12.61-22.37c-3.82-17.16-12.71-42.21-24.18-68.39a11.29,11.29,0,0,1,3.21,4.29l37.21,87a3.38,3.38,0,0,1-2,4.51,396.9,396.9,0,0,1-135.23,23.67H34.31L40,187.93c8.38.47,29.51,1.45,57,1.45ZM35.7,210v-4.86H180.24a408.75,408.75,0,0,0,56-3.85V210Z"/><path d="M225.31,94.28a17.7,17.7,0,1,1,0,35.39h-61a14.68,14.68,0,0,1-1.45-29.29l60.65-6c.57,0,1.16-.08,1.73-.08m-60.93,33h61A15.3,15.3,0,0,0,240.61,112a15.29,15.29,0,0,0-15.25-15.29c-.51,0-1,0-1.54.08l-60.65,6a12.27,12.27,0,0,0,1.21,24.48m60.93-37c-.7,0-1.41,0-2.13.1l-60.65,6a18.68,18.68,0,0,0,1.85,37.27h61a21.7,21.7,0,1,0,0-43.39Zm-60.93,33a8.27,8.27,0,0,1-.82-16.5l60.65-6a11.22,11.22,0,0,1,1.15-.06A11.3,11.3,0,0,1,236.61,112a11.3,11.3,0,0,1-11.28,11.29H214.06v-.82a8.52,8.52,0,0,0-8.5-8.51H176.35a8.51,8.51,0,0,0-8.5,8.51v.82Zm10.41,0v-.82a1.56,1.56,0,0,1,1.56-1.57h29.21a1.56,1.56,0,0,1,1.56,1.57v.82Z"/><path d="M150.19,145.23a12.15,12.15,0,1,0,12.15,12.14,12.15,12.15,0,0,0-12.15-12.14Zm0,17.35a5.21,5.21,0,1,1,5.21-5.21,5.21,5.21,0,0,1-5.21,5.21Z"/><path d="M128.68,145.23a12.15,12.15,0,1,0,12.14,12.14,12.15,12.15,0,0,0-12.14-12.14Zm0,17.35a5.21,5.21,0,1,1,5.2-5.21,5.22,5.22,0,0,1-5.2,5.21Z"/></svg>