<?xml version="1.0" encoding="utf-8"?>
<!-- Generator: Adobe Illustrator 22.1.0, SVG Export Plug-In . SVG Version: 6.00 Build 0)  -->
<svg style="enable-background:new 0 0 500 500;" id="Calque_1" version="1.1" viewBox="0 0 500 500" x="0px"
     xmlns="http://www.w3.org/2000/svg" y="0px" xml:space="preserve">
<style type="text/css">
	.st0{fill:#4FBDD7;}
	.st1{fill:#EAEAEA;}
	.st2{fill:#FFFFFF;}
	.st3{fill:#4FBDD7;stroke:#FFFFFF;stroke-width:5;stroke-miterlimit:10;}
	.st4{fill:#8C8C8C;}
	.st5{fill:#070707;}
	.st6{fill:none;stroke:#FFFFFF;stroke-width:7;stroke-miterlimit:10;}
	.st7{fill:none;stroke:#FFFFFF;stroke-width:10;stroke-miterlimit:10;}
	.st8{fill:#FFFFFF;stroke:#FFFFFF;stroke-width:3;stroke-miterlimit:10;}
	.st9{fill:none;stroke:#FDFFFF;stroke-width:6;stroke-miterlimit:10;}
	.st10{fill:#FAFEFF;}
	.st11{fill:none;stroke:#FFFFFF;stroke-width:2;stroke-miterlimit:10;}
	.st12{fill:#FFFFFF;stroke:#FFFFFF;stroke-width:2;stroke-miterlimit:10;}
	.st13{fill:#4FBDD7;stroke:#FFFFFF;stroke-width:4;stroke-miterlimit:10;}
	.st14{fill:#FFFFFF;stroke:#FFFFFF;stroke-width:4;stroke-miterlimit:10;}
	.st15{fill:none;stroke:#FFFFFF;stroke-miterlimit:10;}
	.st16{fill:#FFFFFF;stroke:#FFFFFF;stroke-width:13;stroke-miterlimit:10;}
	.st17{fill:#4FBDD7;stroke:#FFFFFF;stroke-width:8;stroke-miterlimit:10;}
	.st18{fill:#FFFFFF;stroke:#FFFFFF;stroke-width:0.75;stroke-miterlimit:10;}
	.st19{fill:#FFFFFF;stroke:#FFFFFF;stroke-width:0.5;stroke-miterlimit:10;}
	.st20{fill:#FFFFFF;stroke:#FFFFFF;stroke-width:8;stroke-miterlimit:10;}
	.st21{fill:#FFFFFF;stroke:#FFFFFF;stroke-miterlimit:10;}
	.st22{fill:#FFFFFF;stroke:#FFFFFF;stroke-width:11;stroke-miterlimit:10;}
	.st23{fill:#FFFFFF;stroke:#FFFFFF;stroke-width:6;stroke-miterlimit:10;}
	.st24{fill:#8C8C8C;stroke:#8C8C8C;stroke-width:4;stroke-miterlimit:10;}
	.st25{fill:#FFFFFF;stroke:#FFFFFF;stroke-width:1.05;stroke-miterlimit:10;}
	.st26{fill:none;stroke:#4FBDD7;stroke-width:5;stroke-miterlimit:10;}
	.st27{fill:none;stroke:#FFFFFF;stroke-width:4;stroke-miterlimit:10;}
	.st28{fill:#8C8C8C;stroke:#FFFFFF;stroke-width:4;stroke-miterlimit:10;}
	.st29{fill:#FFFFFF;stroke:#FFFFFF;stroke-width:10;stroke-miterlimit:10;}
	.st30{fill:none;}
	.st31{font-family:'HelveticaNeue-CondensedBold';}
	.st32{font-size:54px;}
	.st33{fill:none;stroke:#4FBDD7;stroke-width:2;stroke-miterlimit:10;}
	.st34{fill-rule:evenodd;clip-rule:evenodd;fill:#FFFFFF;}
	.st35{fill:#FFFFFF;stroke:#FFFFFF;stroke-width:7;stroke-miterlimit:10;}
	.st36{fill:#FFFFFF;stroke:#4FBDD7;stroke-width:7;stroke-miterlimit:10;}
	.st37{fill:#FCFCFC;}
	.st38{fill:#FFFFFF;stroke:#FFFFFF;stroke-width:5;stroke-miterlimit:10;}
	.st39{fill:none;stroke:#FFFFFF;stroke-width:3;stroke-miterlimit:10;}
	.st40{fill:none;stroke:#FFFFFF;stroke-width:8;stroke-miterlimit:10;}
	.st41{fill:none;stroke:#FFFFFF;stroke-width:6;stroke-miterlimit:10;}
	.st42{fill:#FFFFFF;stroke:#4FBDD7;stroke-width:3;stroke-miterlimit:10;}
	.st43{fill:none;stroke:#FFFFFF;stroke-width:0.75;stroke-miterlimit:10;}
	.st44{fill:#4FBDD7;stroke:#FFFFFF;stroke-width:9;stroke-miterlimit:10;}
	.st45{fill:none;stroke:#FFFFFF;stroke-width:9;stroke-miterlimit:10;}
	.st46{fill:none;stroke:#4FBDD7;stroke-width:3;stroke-miterlimit:10;}
</style>
    <rect class="st0" height="500" width="506" x="-1"/>
    <path class="st2" d="M243.9,230.3h9.4v9.4h-9.4V230.3z"/>
    <path class="st2" d="M229.6,348c-0.6-3.2-0.7-6.3-0.5-9.4h-5.2V202L196.7,65.5h2.4c-0.3-3.1-0.5-6.3-0.5-9.4h-13.3l29.3,146.4V348
	H229.6z"/>
    <path class="st2" d="M272.5,338.6h-9.7v-84.8h4.7v-24.3l-3.3-9.9l0,0c5.1-4.5,8-10.9,8-17.7v-5.2l27.4-131.4h6.7
	c0.1-3.1,0.1-6.3-0.1-9.4H273l-23.6,113.1c-0.3,0-0.6-0.1-0.9-0.1c-0.3,0-0.6,0.1-0.9,0.1L224.2,56h-33.6c0.1,3.1,0.2,6.3,0.5,9.4
	h6.6l27.4,131.4v5.2c0,6.8,3,13.2,8,17.6l-3.3,9.9v24.3h4.7v84.8h-13.4c-0.3,3.1-0.1,6.2,0.6,9.4h50.8V338.6z M280.7,65.5h9.2
	l-2,9.4h-9.2L280.7,65.5z M276.9,83.8v0.5h9.1l-2,9.4h-9.2L276.9,83.8z M272.9,103.1h9.2l-2,9.4h-9.2L272.9,103.1z M268.9,122h9.2
	l-2,9.4H267L268.9,122z M265,140.8h9.2l-2.1,9.9v-0.5H263L265,140.8z M261.1,159.6h9.2l-3.7,17.9c-2.2-2.6-4.8-4.7-7.9-6.2
	L261.1,159.6z M207.3,65.5h9.2l2,9.4h-9.2L207.3,65.5z M211.2,84.3h9.1v-0.5l2.1,9.9h-9.2L211.2,84.3z M215.2,103.1h9.2l2,9.4h-9.2
	L215.2,103.1z M219.1,122h9.2l2,9.4h-9.2L219.1,122z M225.1,150.7l-2.1-9.9h9.2l2,9.4h-9.1V150.7z M230.7,177.5l-3.7-17.9h9.2
	l2.4,11.7C235.5,172.8,232.8,175,230.7,177.5z M234.5,202v-9.4c0-6.1,4-11.3,9.4-13.3v18h-3.4l-4,12
	C235.2,207.1,234.5,204.6,234.5,202z M253.3,338.6h-9.4v-9.4h9.4V338.6z M253.3,319.7h-9.4v-9.4h9.4V319.7z M253.3,300.9h-9.4v-9.4
	h9.4V300.9z M253.3,282.1h-9.4v-9.4h9.4V282.1z M253.3,263.2h-9.4v-9.4h9.4V263.2z M258,244.4h-18.8V231l8.1-24.3h2.6L258,231V244.4
	z M256.7,197.3h-3.4v-18c5.5,1.9,9.4,7.1,9.4,13.3v3.3l-0.1,0.5l0.1,0v5.7c0,2.6-0.8,5-2.1,7.2L256.7,197.3z"/>
    <path class="st2"
          d="M295.1,56c0.1,3.1,0.2,6.3,0.1,9.4h2.3l-27.1,135.6l-0.1,137.5h-8.8v9.4h18.2V202.5L309,56H295.1z"/>
    <g>
	<rect class="st30" height="144" width="500" x="-4" y="360"/>
        <text class="st2 st31 st32" transform="matrix(1 0 0 1 136.0571 398.5557)">Fermeture</text>
</g>
</svg>
