<svg id="Calque_1" data-name="Calque 1" xmlns="http://www.w3.org/2000/svg" viewBox="0 0 350 300"><title>selected</title><g id="VHB9m0.tif"><path d="M118.46,32v5h0c.56,0,1.12,0,1.67,0,20.66,1,34,19.66,37.59,25.25a32.33,32.33,0,0,0,.06,5,36.53,36.53,0,0,0,.76,4.64c-6-7.25-15.63-11.72-23.92-14.4-3.93-1.26-10.49-3.38-17.8-3.38a31.86,31.86,0,0,0-18.38,5.51C87.56,67.14,81.88,80.91,84,94.76c2.18,14.44,12.55,24,21.53,28.21a35.16,35.16,0,0,0,14.91,3.27c14.08,0,26.34-7.83,33.12-15.16,3.14-3.39,12.69-13.71,10.58-27.06,3.37,5.76,8.06,12.87,13.45,20.3a46.46,46.46,0,0,1,2.89,8.41l0,.18,0,0a56.85,56.85,0,0,1,1.46,8.71c.74,7.61-1,15.55-3.1,24.4a11.54,11.54,0,0,0,1.79,9.48c2.51,3.55,6.86,5.81,12.25,6.38,4.08.42,8.39,3.76,10.74,8.3a13.88,13.88,0,0,1,1.54,4.8L193.67,169c-2.91-1.54-6.09-2.95-9.6-2.95a12.76,12.76,0,0,0-9.08,3.86,15.86,15.86,0,0,0-3.67,6.53c-.25.7-.48,1.36-.73,1.89l-1.92,4.21,4.06,2.24,1,.54,1,.53,5.35,3,1.83-5.84c1.1-3.5,2.82-4.74,6.58-4.74a19.83,19.83,0,0,1,2.32.16L204.29,180c-2.63,4.76-2,9.56,1.89,14.28,3.33,4.05,5.77,8.94,8.36,14.12.73,1.48,1.5,3,2.28,4.51a35.64,35.64,0,0,1,3.25,8.4c.73,3.19,1.18,6.48,1.66,10l.15,1.11-1.52.85-7.27,4.1c-3.67-2-6.09-5.47-8.77-10.46a17,17,0,0,1-1-2.68,26.5,26.5,0,0,0-1.54-4c-3.88-7.66-7-13.46-10-18.81-1.65-2.89-5.26-4.3-7.92-4.4-9.17-.33-14.06-4.84-16.35-15.08a12,12,0,0,1,.46-3.27c.2-.92.41-1.86.55-2.86a9.71,9.71,0,0,0-1.65-7.52c-1.8-2.33-4.61-3.55-8.35-3.63h-.07c-2.3-.06-7.21-2.49-12-4.83-9-4.43-21.27-10.5-35-11.15q-1.23-.06-2.46-.06a57.41,57.41,0,0,0-18,3l-.41.14-.37.19A11,11,0,0,1,85.56,153a7.07,7.07,0,0,1-3.28-.76c-2.21-1.13-3.78-3.4-3.78-4.41a6.86,6.86,0,0,1,3.85-3.29c4.42-1,5.9-3.61,6.4-5.09.61-1.83.73-4.71-2.14-8.07-1.51-1.76-3-3.53-4.54-5.24-2.78-3.17-5.65-6.46-8.29-9.76a38.09,38.09,0,0,1-8.62-21.53,45.7,45.7,0,0,1,2.23-18.53,47.34,47.34,0,0,1,7.29-13.13c4-5.49,10.6-14.68,22.59-20.65,3.06-1.52,11.2-5.57,21.19-5.57V32m0,0C107.3,32,98.32,36.47,95,38.1,82,44.61,74.78,54.54,70.62,60.3a52.26,52.26,0,0,0-8,14.42,51,51,0,0,0-2.49,20.51,43.07,43.07,0,0,0,9.71,24.31c4.14,5.17,8.62,10.07,12.93,15.12,2.15,2.53,1.58,4.33-1.55,5-3.61.81-7.53,4.74-7.75,7.74-.27,3.69,3.14,7.58,6.49,9.29A12.13,12.13,0,0,0,85.56,158a15.84,15.84,0,0,0,7-1.73,52.11,52.11,0,0,1,16.4-2.75c.8,0,1.55,0,2.23,0,21,1,38.47,15.76,47.07,16,.69,0,3.29,0,4.59,1.69a4.9,4.9,0,0,1,.66,3.77c-.38,2.65-1.48,5.53-.94,7.93,2.11,9.41,7.14,18.48,21.05,19a5,5,0,0,1,3.75,1.87c3.48,6.1,6.73,12.33,9.89,18.6,1.09,2.16,1.49,4.68,2.63,6.8,3.09,5.74,6.62,11.16,13.42,13.69l14-7.88c-.76-5-1.26-10-2.38-14.86a40.82,40.82,0,0,0-3.69-9.6c-3.47-6.66-6.48-13.74-11.21-19.49-2.58-3.13-3-5.75-1.34-8.74,5.36-9.56-4-24.21-15.25-25.39-6.76-.7-10.89-4.77-9.7-9.71,2.09-8.71,4.05-17.42,3.21-26.05a62.83,62.83,0,0,0-1.63-9.6h0a51.76,51.76,0,0,0-3.42-9.81c-10.61-14.56-17.2-26.12-18.24-29.95a31.48,31.48,0,0,1-.91-5,27.15,27.15,0,0,1,.09-5.77c-1.54-2.64-16.71-27.86-42.48-29.06-.65,0-1.28,0-1.91,0Zm2,89.24a30.26,30.26,0,0,1-12.81-2.81C98.9,114.38,90.7,105.75,88.92,94c-1.67-11,2.52-23.47,12.35-30.21a26.89,26.89,0,0,1,15.55-4.63c6.52,0,12.43,1.9,16.26,3.14,4.86,1.57,23.73,7.66,26.1,22.46,1.75,11-6.62,20-9.31,22.92-6.54,7.06-17.67,13.55-29.45,13.55Zm56.66,60.22-1.94-1.07c1.07-2.34,1.56-5.2,3.32-6.91a7.84,7.84,0,0,1,5.61-2.45c2.41,0,4.85,1.09,7.28,2.37a24.79,24.79,0,0,0-2.92-.19c-5.28,0-9.41,2.08-11.35,8.25Z"/><path d="M189.41,168.2a13.32,13.32,0,0,0-9.55,4.18c-3,2.91-3.83,7.78-5.65,11.75l3.3,1.83c3.3-10.51,10.34-14,19.32-14a43,43,0,0,1,5,.32c-4.13-2.17-8.28-4-12.39-4Z"/></g></svg>