<?xml version="1.0" encoding="utf-8"?>
<!-- Generator: Adobe Illustrator 22.1.0, SVG Export Plug-In . SVG Version: 6.00 Build 0)  -->
<svg style="enable-background:new 0 0 500 500;" id="Calque_1" version="1.1" viewBox="0 0 500 500" x="0px"
     xmlns="http://www.w3.org/2000/svg" y="0px" xml:space="preserve">
<style type="text/css">
	.st0{fill:#4FBDD7;}
	.st1{fill:#EAEAEA;}
	.st2{fill:none;}
	.st3{fill:#FFFFFF;}
	.st4{font-family:'HelveticaNeue-CondensedBold';}
	.st5{font-size:54px;}
	.st6{fill:#4FBDD7;stroke:#FFFFFF;stroke-width:5;stroke-miterlimit:10;}
	.st7{fill:#8C8C8C;}
	.st8{fill:#070707;}
	.st9{fill:none;stroke:#FFFFFF;stroke-width:7;stroke-miterlimit:10;}
	.st10{fill:none;stroke:#FFFFFF;stroke-width:10;stroke-miterlimit:10;}
	.st11{fill:#FFFFFF;stroke:#FFFFFF;stroke-width:3;stroke-miterlimit:10;}
	.st12{fill:none;stroke:#FDFFFF;stroke-width:6;stroke-miterlimit:10;}
	.st13{fill:#FAFEFF;}
	.st14{fill:none;stroke:#FFFFFF;stroke-width:2;stroke-miterlimit:10;}
	.st15{fill:#FFFFFF;stroke:#FFFFFF;stroke-width:2;stroke-miterlimit:10;}
	.st16{fill:#4FBDD7;stroke:#FFFFFF;stroke-width:4;stroke-miterlimit:10;}
	.st17{fill:#FFFFFF;stroke:#FFFFFF;stroke-width:4;stroke-miterlimit:10;}
	.st18{fill:none;stroke:#FFFFFF;stroke-miterlimit:10;}
	.st19{fill:#FFFFFF;stroke:#FFFFFF;stroke-width:13;stroke-miterlimit:10;}
	.st20{fill:#4FBDD7;stroke:#FFFFFF;stroke-width:8;stroke-miterlimit:10;}
	.st21{fill:#FFFFFF;stroke:#FFFFFF;stroke-width:0.75;stroke-miterlimit:10;}
	.st22{fill:#FFFFFF;stroke:#FFFFFF;stroke-width:0.5;stroke-miterlimit:10;}
	.st23{fill:#FFFFFF;stroke:#FFFFFF;stroke-width:8;stroke-miterlimit:10;}
	.st24{fill:#FFFFFF;stroke:#FFFFFF;stroke-miterlimit:10;}
	.st25{fill:#FFFFFF;stroke:#FFFFFF;stroke-width:11;stroke-miterlimit:10;}
	.st26{fill:#FFFFFF;stroke:#FFFFFF;stroke-width:6;stroke-miterlimit:10;}
	.st27{fill:#8C8C8C;stroke:#8C8C8C;stroke-width:4;stroke-miterlimit:10;}
	.st28{fill:#FFFFFF;stroke:#FFFFFF;stroke-width:1.05;stroke-miterlimit:10;}
	.st29{fill:none;stroke:#4FBDD7;stroke-width:5;stroke-miterlimit:10;}
	.st30{fill:none;stroke:#FFFFFF;stroke-width:4;stroke-miterlimit:10;}
	.st31{fill:#8C8C8C;stroke:#FFFFFF;stroke-width:4;stroke-miterlimit:10;}
	.st32{fill:#FFFFFF;stroke:#FFFFFF;stroke-width:10;stroke-miterlimit:10;}
	.st33{fill:none;stroke:#4FBDD7;stroke-width:2;stroke-miterlimit:10;}
	.st34{fill-rule:evenodd;clip-rule:evenodd;fill:#FFFFFF;}
	.st35{fill:#FFFFFF;stroke:#FFFFFF;stroke-width:7;stroke-miterlimit:10;}
	.st36{fill:#FFFFFF;stroke:#4FBDD7;stroke-width:7;stroke-miterlimit:10;}
	.st37{fill:#FCFCFC;}
	.st38{fill:#FFFFFF;stroke:#FFFFFF;stroke-width:5;stroke-miterlimit:10;}
	.st39{fill:none;stroke:#FFFFFF;stroke-width:3;stroke-miterlimit:10;}
	.st40{fill:none;stroke:#FFFFFF;stroke-width:8;stroke-miterlimit:10;}
	.st41{fill:none;stroke:#FFFFFF;stroke-width:6;stroke-miterlimit:10;}
	.st42{fill:#FFFFFF;stroke:#4FBDD7;stroke-width:3;stroke-miterlimit:10;}
	.st43{fill:none;stroke:#FFFFFF;stroke-width:0.75;stroke-miterlimit:10;}
	.st44{fill:#4FBDD7;stroke:#FFFFFF;stroke-width:9;stroke-miterlimit:10;}
	.st45{fill:none;stroke:#FFFFFF;stroke-width:9;stroke-miterlimit:10;}
	.st46{fill:none;stroke:#4FBDD7;stroke-width:3;stroke-miterlimit:10;}
</style>
    <rect class="st0" height="509" width="500" y="-2"/>
    <g>
	<rect class="st2" height="144" width="500" x="-3" y="362"/>
        <text class="st3 st4 st5" transform="matrix(1 0 0 1 93.1025 400.5557)">Feux d’artifice</text>
</g>
    <g>
	<path class="st3" d="M235.6,242.6c-2.3,0.6-3.8,2.9-3.2,5.2l11.4,47.3c0.6,2.3,2.9,3.8,5.2,3.2c2.3-0.6,3.8-2.9,3.2-5.2l-11.4-47.3
		C240.3,243.4,238,242,235.6,242.6"/>
        <path class="st3"
              d="M187.9,214.1c20-8,38.5-19.6,54.4-34.2l-3.8-15.9c-16.1,14.2-34.6,25.4-54.6,33.3L187.9,214.1z"/>
        <path class="st3"
              d="M192.9,234.6c20.1-7.9,38.5-19.5,54.4-34.2l-3.8-15.9c-16.1,14.2-34.6,25.4-54.6,33.3L192.9,234.6z"/>
        <path class="st3" d="M178,172.9c20-8,38.5-19.6,54.4-34.2l-3.8-15.9c-16.1,14.1-34.6,25.4-54.6,33.2L178,172.9z"/>
        <path class="st3" d="M183,193.5c20-8,38.5-19.6,54.4-34.2l-3.8-15.9c-16.1,14.2-34.6,25.4-54.6,33.3L183,193.5z"/>
        <path class="st3" d="M150.9,141.2c21.8,2.3,77.8-11.1,95.9-23.2l-59.9-38L150.9,141.2z"/>
        <path class="st3" d="M169.9,139.5l3.1,12.7c13.9-5.5,27-12.8,39-21.8C198.2,134.5,184.1,137.5,169.9,139.5"/>
        <path class="st3" d="M215.6,249.9c14.1-2,27.8-6.4,40.5-12.9l-3.1-12.7C241.6,234.3,229,242.9,215.6,249.9"/>
        <path class="st3" d="M218,246.8c-2.3,0.6-3.8,2.9-3.2,5.2l11.4,47.3c0.6,2.3,2.9,3.8,5.2,3.2c2.3-0.6,3.8-2.9,3.2-5.2L223.2,250
		C222.7,247.7,220.3,246.3,218,246.8"/>
        <path class="st3"
              d="M197.6,254.2c20.1-7.9,38.5-19.5,54.4-34.2l-3.8-15.9c-16.1,14.2-34.6,25.4-54.6,33.3L197.6,254.2z"/>
</g>
    <g>
	<path class="st3" d="M284.2,252.6c-2.3-0.6-4.7,0.9-5.2,3.2l-11.3,47.3c-0.6,2.3,0.9,4.7,3.2,5.2c2.3,0.6,4.7-0.9,5.2-3.2
		l11.3-47.3C288,255.5,286.5,253.1,284.2,252.6"/>
        <path class="st3" d="M254.6,205.6c21.5,2,43.2,0,63.9-5.8l3.8-15.9c-20.8,5.3-42.4,7-63.7,4.9L254.6,205.6z"/>
        <path class="st3" d="M249.7,226.1c21.5,2,43.2,0.1,63.9-5.8l3.8-15.9c-20.8,5.3-42.4,7-63.7,4.9L249.7,226.1z"/>
        <path class="st3" d="M264.4,164.4c21.5,2,43.2,0,63.9-5.8l3.8-15.9c-20.8,5.3-42.4,6.9-63.7,4.9L264.4,164.4z"/>
        <path class="st3" d="M259.5,185c21.5,2,43.2,0,63.9-5.8l3.8-15.9c-20.8,5.3-42.4,7-63.7,4.9L259.5,185z"/>
        <path class="st3" d="M254.6,123.8c18.3,12,74.4,25.3,96,22.8l-36.2-61L254.6,123.8z"/>
        <path class="st3" d="M272.4,130.9l-3,12.7c14.9,1.4,29.9,0.8,44.6-1.7C299.9,139.3,285.9,135.6,272.4,130.9"/>
        <path class="st3" d="M263,250c13.5,4.6,27.7,6.9,41.9,6.8l3-12.7C293.3,247.9,278.2,249.9,263,250"/>
        <path class="st3" d="M266.5,248.4c-2.3-0.6-4.7,0.9-5.2,3.2L250,298.9c-0.6,2.3,0.9,4.7,3.2,5.2c2.3,0.6,4.7-0.9,5.2-3.2l11.3-47.3
		C270.3,251.3,268.9,248.9,266.5,248.4"/>
        <path class="st3" d="M245.1,245.7c21.5,2,43.2,0.1,63.9-5.8l3.8-15.9c-20.8,5.3-42.4,7-63.7,4.9L245.1,245.7z"/>
</g>
</svg>
