<svg id="Calque_1" data-name="Calque 1" xmlns="http://www.w3.org/2000/svg" viewBox="0 0 350 300"><title>selected</title><path d="M136.82,6.61c6.18,0,11.25.15,16,.45,23.41,1.52,43.81,7.72,60.64,18.42,17.26,11,31.23,27,41.52,47.61,3.43,6.88,5.67,14.73,7.83,22.32.73,2.58,1.49,5.25,2.3,7.86,4.82,15.72,9.74,32.32,15,50.75a33.42,33.42,0,0,1,.93,15.25c-1,5.57-4.33,10-10.51,13.89A214.48,214.48,0,0,0,232,214.8c-12.8,13.07-21.74,25.34-28.07,38.57H69.62V158a12,12,0,0,0,1.88,2.47,13.56,13.56,0,0,0,9.74,3.87q9.87,0,19.73,0t19.9,0a13.59,13.59,0,0,0,9.76-3.86,12.34,12.34,0,0,0,3.55-8.83,12.12,12.12,0,0,0-6.79-11H258.27c.49,0,.91,0,1.3,0a6.14,6.14,0,0,0,5.84-8.16c-1.44-5.22-2.81-10.59-4.14-15.79-3-11.91-6.18-24.24-10.52-36C243.51,61,229.53,43.37,211.38,31a108.73,108.73,0,0,0-60.52-19.11q-22.41,0-44.82,0H69.48c0-1.69,0-3.3.06-4.87a6.34,6.34,0,0,1,1-.07H111c4.34,0,8.74-.07,13-.13s8.59-.14,12.86-.14m-62.09,134a12.4,12.4,0,0,0-5.11,4.83v-4.83h5.11m62.09-138c-8.61,0-17.24.27-25.85.27H70.59c-3.29,0-4.88,1-5,3.6-.17,3,0,6,0,9.34H106q22.41,0,44.81,0c41.64,0,81.7,27,96.14,66.14,6.16,16.68,9.81,34.29,14.57,51.48.51,1.84-.3,3-2.26,3.1-.35,0-.69,0-1,0H65.62V257.35h3.3l78.7,0h56.64c1.29,0,2.27-.08,3-1.55,6.8-14.48,16.54-26.86,27.67-38.22a211.44,211.44,0,0,1,37.8-31.06c6.19-3.92,10.95-9,12.31-16.56a37.43,37.43,0,0,0-1-17.07q-7.32-25.45-15.06-50.81c-3.18-10.36-5.58-21.19-10.37-30.79C236.92,28,200.77,6.17,153.06,3.07c-5.4-.35-10.82-.46-16.24-.46ZM101,160.32q-9.85,0-19.72,0c-5.43,0-9.32-3.71-9.28-8.7s3.87-8.5,9.18-8.53l7.91,0h12v0h19.66c5.51,0,9.4,3.57,9.43,8.55s-3.87,8.66-9.32,8.67q-9.94,0-19.89,0Z"/><path d="M151,24.06c20.16,0,39.75,7.09,55.83,19a8.36,8.36,0,0,0-3,3.94q-10.29,24.81-20.55,49.63l-4.4,10.63-.05.09a5,5,0,0,0-.51,4l.1.29a7.39,7.39,0,0,0,3,4.36,4.53,4.53,0,0,0,2.38.65,8.21,8.21,0,0,0,4.57-1.79,6.36,6.36,0,0,0,2.07-3.24,2.81,2.81,0,0,1,.1-.31Q202.79,81.65,215.05,52c.23-.56.42-1.11.61-1.63A94.35,94.35,0,0,1,243,95.74c2,7.9,4.14,15.9,6.21,23.64.78,3,1.57,5.89,2.35,8.83H86.93V24.15c6.26,0,12.63,0,18.78,0s12.72,0,19.08,0c9.59,0,17.49,0,24.85-.17H151m-7.23,92.82,1.21-1.8c.11-.17.25-.34.39-.53a13.47,13.47,0,0,0,1.93-3.13c6.63-15.91,13.32-32.11,19.79-47.77l4.06-9.82c.09-.23.23-.5.37-.79a10.46,10.46,0,0,0,1.24-3.93,7.1,7.1,0,0,0-3.24-6.24,4.61,4.61,0,0,0-2.34-.63,8.14,8.14,0,0,0-4.61,1.85,6.31,6.31,0,0,0-2,3.22c0,.1-.06.21-.1.31q-7.84,18.92-15.67,37.85L140.4,96c-.47,1.15-1,2.3-1.43,3.45-1.16,2.78-2.37,5.66-3.5,8.52a6.4,6.4,0,0,0,.48,6,6.62,6.62,0,0,0,5.64,2.83l2.18,0m-45.35-.09h.35l2.1-.08,1.12-1.76c.11-.18.25-.36.4-.57a15.54,15.54,0,0,0,1.82-3.08c7.32-17.58,14.72-35.48,21.88-52.79l2.6-6.28c.05-.12.11-.25.17-.37a7,7,0,0,0,.87-3.85,6.66,6.66,0,0,0-3.6-5.31,5.31,5.31,0,0,0-2.16-.44,7,7,0,0,0-4.4,1.6,7.8,7.8,0,0,0-2.13,3.42c-.06.15-.11.29-.17.43Q110.58,63.84,103.9,80l-2.77,6.69-2.31,5.59c-2.08,5-4.22,10.18-6.31,15.28a6.86,6.86,0,0,0,.38,6.53,6.33,6.33,0,0,0,5.53,2.72M151,20.06h-1.41c-8.26.13-16.52.17-24.79.17-12.71,0-25.42-.09-38.13-.09H85.19c-.77,0-1.54.1-2.26.15V132.21H256.65c-.17-.87-.25-1.49-.41-2.09-3.11-11.79-6.32-23.56-9.33-35.37C236.24,52.85,195.65,20.06,151,20.06Zm32.77,92.6a.59.59,0,0,1-.31-.07c-.71-.43-1-1.62-1.36-2.54-.11-.32.28-.82.45-1.24q12.48-30.16,25-60.32c.66-1.61,1.59-2.47,2.52-2.47a1.91,1.91,0,0,1,1.39.71,6.38,6.38,0,0,1,.76,1.42c-.29.8-.53,1.56-.84,2.3q-12.25,29.67-24.54,59.34c-.28.66-.42,1.52-.92,1.9a4.53,4.53,0,0,1-2.13,1Zm-42.1.18c-2.31,0-3.19-1.57-2.47-3.37,1.58-4,3.27-8,4.91-11.92q10-24.21,20-48.4c.28-.66.41-1.52.91-1.91a4.58,4.58,0,0,1,2.14-1,.54.54,0,0,1,.29.07,3.21,3.21,0,0,1,1.31,2.51,12.4,12.4,0,0,1-1.33,3.48q-11.89,28.8-23.84,57.59a16.38,16.38,0,0,1-2,3Zm-43.24,0c-2.32,0-3.06-1.66-2.21-3.74,2.85-7,5.74-13.9,8.62-20.85q8.06-19.49,16.13-39a6.37,6.37,0,0,1,1.22-2.36,3.05,3.05,0,0,1,1.79-.63,1.32,1.32,0,0,1,.55.1,2.86,2.86,0,0,1,1.23,2.09,5.28,5.28,0,0,1-.76,2.25q-12.21,29.53-24.47,59.06a20.22,20.22,0,0,1-1.9,3Z"/><path d="M74.25,24.27v103.9H69.63V24.27h4.62m4-4H65.63v111.9H78.25V20.27Z"/><path d="M203.53,261.79H65.65C66,265.15,67,266,70.93,266q34.2,0,68.4,0h29.72l24.69,0h0a12.72,12.72,0,0,0,9.77-4.21Z"/><path d="M89.06,143.05l-7.91,0c-5.31,0-9.14,3.63-9.18,8.53s3.85,8.69,9.28,8.7q9.85,0,19.71,0t19.9,0c5.45,0,9.34-3.68,9.32-8.67s-3.92-8.53-9.43-8.55H101.09v0Zm28.28,4.32h3.94c2.76.15,4.57,1.86,4.57,4.3a4.26,4.26,0,0,1-4.56,4.29c-2.87,0-5.75,0-8.62,0l-11.59,0H81.67c-3.4,0-5.37-1.61-5.37-4.3s2-4.31,5.36-4.31h35.68Z"/></svg>