<svg id="Calque_1" data-name="Calque 1" xmlns="http://www.w3.org/2000/svg" viewBox="0 0 350 300"><title>selected</title><path d="M215.59,35.91q2.17.21,4.2.45l.6,2.85,27.79,133.46.25,1.22-.42.05-4.69-4-27.73-134M167.3,18c-18.85,0-37.18.86-51.32,2.59l-2.35.29a8.47,8.47,0,0,0-6.81,6.63L106,31.26a6.47,6.47,0,0,0,1,4.89,4.76,4.76,0,0,0,3.28,2.3L85.14,171.64l-2.41-.34h-.26a4.25,4.25,0,0,0-.71-.06,5,5,0,0,0-4,2.08,6.49,6.49,0,0,0-1.05,4.9l1.05,6.34a8.43,8.43,0,0,0,6.8,6.91c12.44,1.83,26.78,3.25,42.16,4.19v29a8.64,8.64,0,0,0,5.24,8.07l1,.57c6,2.31,21.21,3.75,36.14,3.75,14.4,0,28.54-1.44,34.82-3.75l1.57-.57a8.37,8.37,0,0,0,5.24-8.07V223a11.67,11.67,0,0,0,1.83-.12h.79c5,0,8.9-4.32,8.9-9.8S218.36,203,213.39,203h-2.88v-7.16c15.21-.86,29.46-2.22,41.89-4.08l2.62-.29a8.16,8.16,0,0,0,6.54-6.91l1.05-6.34a6.49,6.49,0,0,0-1.05-4.9,5,5,0,0,0-4-2.08,4.25,4.25,0,0,0-.71.06l-2.88.29-1.87.27L224.3,38.4a4.92,4.92,0,0,0,3.22-2,5.51,5.51,0,0,0,1-4.9l-.78-3.74A8.06,8.06,0,0,0,221,21.17l-2.36-.58C204.48,18.86,186.16,18,167.3,18Zm-56,14.7.53-3.46a2.57,2.57,0,0,1,2.35-2.31l2.62-.29a429.83,429.83,0,0,1,50.8-2.88,436.65,436.65,0,0,1,50.79,2.88h2.1A3,3,0,0,1,222.81,29l.79,3.75-3.14-.29c-14.67-1.73-33.52-2.31-53.16-2.31-19.37,0-38.22.58-52.89,2.31l-3.14.29Zm22.56,3.82a11.25,11.25,0,0,1,.43-1.89h0a11.08,11.08,0,0,1-.18,1.88l1.7-.1.33-1.78c-.09.59-.18,1.18-.28,1.77,2.31-.12,4.65-.24,7-.34L127.35,175.57c-4.45-.25-8.82-.55-13.08-.88a1,1,0,0,0,.14-.51L135.83,36.4h-.05Q130.86,63.22,125.93,90q7.08-45.21,8.15-53.53h-.25q-1.67,8.44-9.47,54.67l-12.57,82.42a2.13,2.13,0,0,0,.17.9q-5.38-.44-10.53-1L124.66,37.18q4.44-.37,9.17-.66ZM226.5,173.87,203.43,34.76c2.66,0,5.29,0,7.85.08l28.33,136.91a2.62,2.62,0,0,0,.61.79q-6.71.72-13.72,1.33Zm-56.58,2.91h-1.57V35.58c2,0,4,0,6,0a2,2,0,0,0,0,.25l13,140.72q-8.65.18-17.5.19Zm-21-11q4.34-10.46,9.72-130.13c2.51,0,5.05-.06,7.6-.06V176.76c-6.07,0-12.1-.13-18-.3l.73-10.69c-.27.67-.54,1-.81,1h0c-.54,0-1.07-1.36-1.58-4.06l-.94,13.68q-7.92-.25-15.59-.67L145.56,36c3.43-.12,6.93-.22,10.48-.28q-4.89,62.78-9.77,125.55c.09.53.18,1,.27,1.48l.08-1.21a1.47,1.47,0,0,1,1.31-1.44,1.49,1.49,0,0,1,1.31,1.44l-.3,4.27Zm40.86,10.76L176.74,35.65c3.63.05,7.21.14,10.73.25L205.65,176c-5.19.24-10.49.43-15.85.56Zm18.53-.69L190.18,36c2.66.1,5.28.22,7.84.36L221.5,174.18a2.61,2.61,0,0,0,.58.81q-6.72.49-13.75.85ZM98.76,173.28c-2.83-.3-5.6-.62-8.29-.95L115.89,38q2.91-.33,6-.61L98.76,173.28ZM169.92,182c31.16,0,61.27-1.44,84.84-4.9l2.88-.28-1.58,6.62a2.63,2.63,0,0,1-2.09,2.31l-2.62.29c-22.52,3.45-51.58,5.47-81.69,5.47a605.67,605.67,0,0,1-84.83-5.76,3,3,0,0,1-2.1-2.31l-1-6.34.53-.28c24.35,3.45,55.51,5.18,87.71,5.18Zm-6.58,32.43c-11.2,0-21.35-1.26-29.29-4.48l-1.05-.28a3.77,3.77,0,0,1-1-.62V196c12.2.65,25,1,38,1,12,0,23.93-.28,35.35-.83v7l-.92.05a7.38,7.38,0,0,0-1.7-.19c-4.74,0-8.52,3.93-8.87,9a227.71,227.71,0,0,1-30.44,2.36Zm39.31,5.32c-3.4,0-6.28-3.17-6.28-6.92,0-3.56,2.37-6.6,5.76-6.88v.26h2.27a7,7,0,0,1,4.54,6.62c0,3.75-2.89,6.92-6.29,6.92Zm7.66.29a2.47,2.47,0,0,0-.87-.83,10.36,10.36,0,0,0,2.11-6.38,10.25,10.25,0,0,0-2.28-6.48l.19-.14h3.93c3.4,0,6.28,3.17,6.28,6.91s-2.88,6.92-6.28,6.92Zm-41.38,11.63c-13.57,0-27.19-1.36-34.09-4.14l-1.05-.29a2.73,2.73,0,0,1-1.83-2.59V212.38l.26.13,1.05.28c6,2.31,20.94,4.33,35.6,4.33,9.3,0,18.36-1.33,25.09-2.2a9.07,9.07,0,0,0,8.43,7.66v.3c1,0,2.06,0,3.14.05v1.68a2.73,2.73,0,0,1-1.83,2.59l-1.57.58c-6.85,2.56-20,3.85-33.2,3.85Z"/></svg>