<?xml version="1.0" encoding="utf-8"?>
<!-- Generator: Adobe Illustrator 22.1.0, SVG Export Plug-In . SVG Version: 6.00 Build 0)  -->
<svg style="enable-background:new 0 0 500 500;" id="Calque_1" version="1.1" viewBox="0 0 500 500" x="0px"
     xmlns="http://www.w3.org/2000/svg" y="0px" xml:space="preserve">
<style type="text/css">
	.st0{fill:#EAEAEA;}
	.st1{fill:#8C8C8C;}
	.st2{fill:#FFFFFF;}
	.st3{fill:#EAEAEA;stroke:#8C8C8C;stroke-width:7;stroke-miterlimit:10;}
	.st4{fill:#070707;}
	.st5{fill:none;stroke:#8C8C8C;stroke-width:7;stroke-miterlimit:10;}
	.st6{fill:none;stroke:#8C8C8C;stroke-width:10;stroke-miterlimit:10;}
	.st7{fill:#8C8C8C;stroke:#8C8C8C;stroke-width:3;stroke-miterlimit:10;}
	.st8{fill:none;stroke:#8C8C8C;stroke-width:8;stroke-miterlimit:10;}
	.st9{fill:none;stroke:#8E8E8E;stroke-width:6;stroke-miterlimit:10;}
	.st10{fill:#8E8E8E;}
	.st11{fill:#505050;}
	.st12{fill:none;stroke:#8E8E8E;stroke-width:2;stroke-miterlimit:10;}
	.st13{fill:#8C8C8C;stroke:#8C8C8C;stroke-width:2;stroke-miterlimit:10;}
	.st14{fill:#8C8C8C;stroke:#FFFFFF;stroke-width:2;stroke-miterlimit:10;}
	.st15{fill:none;stroke:#FFFFFF;stroke-width:2;stroke-miterlimit:10;}
	.st16{fill:none;stroke:#8C8C8C;stroke-miterlimit:10;}
	.st17{fill:none;stroke:#8C8C8C;stroke-width:13;stroke-miterlimit:10;}
	.st18{fill:#EAEAEA;stroke:#8C8C8C;stroke-width:8;stroke-miterlimit:10;}
	.st19{fill:none;stroke:#8C8C8C;stroke-width:4;stroke-miterlimit:10;}
	.st20{fill:#8C8C8C;stroke:#8C8C8C;stroke-width:0.75;stroke-miterlimit:10;}
	.st21{fill:none;stroke:#8C8C8C;stroke-width:9;stroke-miterlimit:10;}
	.st22{fill:#8C8C8C;stroke:#8C8C8C;stroke-width:0.5;stroke-miterlimit:10;}
	.st23{fill:#6B6B6B;}
	.st24{fill:none;}
	.st25{stroke:#8C8C8C;stroke-width:8;stroke-miterlimit:10;}
	.st26{fill:#8C8C8C;stroke:#8C8C8C;stroke-miterlimit:10;}
	.st27{fill:none;stroke:#8C8C8C;stroke-width:11;stroke-miterlimit:10;}
	.st28{fill:none;stroke:#8C8C8C;stroke-width:6;stroke-miterlimit:10;}
	.st29{stroke:#8C8C8C;stroke-width:6;stroke-miterlimit:10;}
	.st30{fill:#8C8C8C;stroke:#8C8C8C;stroke-width:4;stroke-miterlimit:10;}
	.st31{font-family:'HelveticaNeue-CondensedBold';}
	.st32{font-size:54px;}
	.st33{fill:#8C8C8C;stroke:#8C8C8C;stroke-width:1.05;stroke-miterlimit:10;}
	.st34{fill:#D6D6D6;}
	.st35{fill:none;stroke:#EAEAEA;stroke-width:5;stroke-miterlimit:10;}
	.st36{fill:#8C8C8C;stroke:#8C8C8C;stroke-width:10;stroke-miterlimit:10;}
	.st37{fill:none;stroke:#CECECE;stroke-width:2;stroke-miterlimit:10;}
	.st38{fill:none;stroke:#FFFFFF;stroke-width:4;stroke-miterlimit:10;}
	.st39{fill-rule:evenodd;clip-rule:evenodd;fill:#8C8C8C;}
	.st40{fill:#8C8C8C;stroke:#8C8C8C;stroke-width:8;stroke-miterlimit:10;}
	.st41{fill:#8C8C8C;stroke:#8C8C8C;stroke-width:7;stroke-miterlimit:10;}
	.st42{fill:#DBDBDB;stroke:#8C8C8C;stroke-width:7;stroke-miterlimit:10;}
	.st43{fill:none;stroke:#8C8C8C;stroke-width:5;stroke-miterlimit:10;}
	.st44{fill:none;stroke:#8C8C8C;stroke-width:3;stroke-miterlimit:10;}
	.st45{clip-path:url(#SVGID_2_);fill:#8C8C8C;}
	.st46{clip-path:url(#SVGID_2_);fill:none;stroke:#8C8C8C;stroke-width:8;stroke-miterlimit:10;}
	.st47{clip-path:url(#SVGID_2_);fill:#FFFFFF;}
	.st48{clip-path:url(#SVGID_2_);fill:#EAEAEA;}
	.st49{clip-path:url(#SVGID_2_);fill:none;stroke:#8C8C8C;stroke-miterlimit:10;}
	.st50{fill:none;stroke:#FFFFFF;stroke-width:0.75;stroke-miterlimit:10;}
	.st51{fill:none;stroke:#8C8C8C;stroke-width:14;stroke-miterlimit:10;}
	.st52{fill:none;stroke:#EAEAEA;stroke-width:2;stroke-miterlimit:10;}
	.st53{fill:none;stroke:#8C8C8C;stroke-width:2;stroke-miterlimit:10;}
</style>
    <rect class="st0" height="500" width="500" x="1"/>
    <path class="st1" d="M438.3,196.8c0,0,5.9-7.8-5.4-22.3c-0.6-0.7-1.2-1.4-2.2-1.8c-1.2-0.5-2.4-0.3-3.1-0.2l-22.2,3.3
	c-0.7-0.4-1.3-0.8-2-1.1c-4.4-1.8-10-0.7-14.6,0.1c-1.1,0.2-2.2,0.4-3.2,0.6c-6.7,1-13.5,2.3-20.1,3.8c-2.3,0.5-4.5,1.1-6.3,2.6
	c-1,0.8-1.8,1.8-2.5,2.8c-0.2,0-0.4-0.1-0.7,0c-35,4.3-70,9.1-104.8,14.3c-0.3-1.9-1.2-3.7-2.5-5.1c-2.1-2.1-4.8-2.8-6.7-3
	c-2.3-0.3-4.6,0-6.5,0.3c-2.9,0.4-6.2,1.1-9,3.1c-3,2.2-4.6,5.8-3.9,9c-2.6,0.4-5.3,0.8-7.9,1.2c-0.6-1.8-1.4-4.1-3.3-5.6
	c-2.8-2.2-6.5-1.8-8.7-1.5l-5.9,0.7c-2.6,0.3-5.8,0.6-8.5,2.5c-2.6,1.8-4.4,5.5-3.2,8.7c-10,1.6-20,3.2-29.9,4.9
	c-0.6-2.3-1.7-5.1-4.5-6.4c-2-0.9-4.2-0.6-5.8-0.4c-19,2.5-38.3,5.3-57.2,8.2c0,0,0,0-0.1,0c-3-1.6-6.7-2.1-10.4-1.2
	c-7.1,1.7-12.6,8.1-13.2,15.3c-3.1,0.5-6.2,1.1-9.3,1.6c-1.5,0.3-3.8,0.7-5.5,2.4c-2.1,2.2-1.8,5.4-1.7,7c0.3,4.2,0.9,8.3,1.8,12.4
	c0.6,2.6,1.5,5.5,3.9,7.2l0.1,0c2.1,1.4,4.5,1.5,6.7,1.5c10.9-0.1,21.9-0.9,32.8-2.5c0.6,2.2,2,4.3,3.8,5.9c0.4,0.4,0.9,0.8,1.4,1.1
	c2.2,1.5,4.9,2.6,8.2,3.3c2.9,0.6,5.2,0.8,7.4,0.5c5.7-0.8,10.6-5,12.5-10.4c0.1,0.1,0.1,0.1,0.2,0.2c0.4,0.4,0.9,0.8,1.4,1.1
	c2.2,1.5,4.9,2.6,8.2,3.3c2.9,0.6,5.2,0.8,7.4,0.5c4.7-0.6,9-3.7,11.3-7.8c9-0.8,18.1-1.7,27-2.6c1-0.1,3-0.3,4.3-1.8
	c0.8-0.9,1.1-2.1,1.2-2.7c0.4-1.7,0.6-3.5,0.7-5.3c8.1-1.2,16.2-2.5,24.3-3.8c0.2,0.4,0.4,1,0.5,1.5c0.5,1.4,1,3.2,2.6,4.4
	c0.1,0.1,0.2,0.1,0.3,0.2c0.9,0.6,1.8,0.9,2.7,1.1c5.1,1.4,10.6,0.9,15.5-1.3c2.5-1.1,4.4-2.5,5.7-4.2c1.5-1.9,2.3-4.3,2.1-6.5
	c2.2-0.4,4.4-0.7,6.6-1.1c0.1,2.2,1.9,3.5,3.2,4.5c0,0,0.1,0.1,0.1,0.1c2.3,1.6,5.2,2,7.1,2.1c4.8,0.3,9.6-0.6,14-2.5
	c1.4-0.6,2.9-1.4,4.1-2.8c1.6-1.9,2-4.3,2-6.4c30.1-5,60.2-10.2,90.1-15.5c0.5-0.1,1-0.4,1.3-0.7c4.2,0.5,8.3-0.2,11.9-0.8
	c7.1-1.3,14.1-3.1,21-5.4c2.8-0.9,5.7-2,8-4.2c0.3-0.3,0.5-0.5,0.8-0.8c0.2,0,0.5-0.1,0.9-0.1C428.1,201,435.8,200.2,438.3,196.8z
	 M229.2,197.9c1.9-1.4,4.6-1.9,6.9-2.2c1.6-0.3,3.6-0.5,5.3-0.3c1.6,0.2,3.1,0.8,3.9,1.7c0.6,0.7,1.1,1.5,1.2,2.5
	c-6.5,1-13,2-19.4,2.9C226.6,200.9,227.8,198.9,229.2,197.9z M189.4,207.8c-0.6-1,0.2-2.8,1.4-3.6c1.7-1.2,4.1-1.4,6.3-1.7l5.9-0.7
	c2-0.2,4.1-0.4,5.3,0.6c0.7,0.5,1.1,1.5,1.5,2.7c-6.7,1.1-13.5,2.1-20.2,3.2C189.6,208.2,189.5,208,189.4,207.8z M145.3,211.8
	c1.1-0.1,2.4-0.3,3.2,0.1c0.9,0.4,1.4,1.5,1.8,2.9c-19.1,3.2-38.1,6.4-56.8,9.6c-0.2-1.7-0.8-3.4-1.7-4.9
	C109.5,216.7,127.5,214.2,145.3,211.8z M139.1,221.5l2,13.2c-2.5,0.2-5,0.8-7.3,1.9l-2-14c2.4-0.4,4.9-0.8,7.3-1.2
	C139.1,221.4,139.1,221.5,139.1,221.5z M105.3,241.3c-0.9-4.6-1.4-9.3-1.7-13.9c2.2-0.4,4.4-0.7,6.6-1.1c0.4,4.6,0.9,9.2,1.7,13.7
	C109.7,240.1,107.4,240.5,105.3,241.3z M116.7,240.4c-0.9-4.9-1.5-9.9-1.9-14.9c4.1-0.7,8.2-1.4,12.3-2.1l2.2,15.3
	c0,0.1,0,0.2,0.1,0.3c-1.6,1.2-3.1,2.5-4.3,4c-0.6,0.7-1.1,1.4-1.5,2.2C121.8,243,119.5,241.2,116.7,240.4z M78.1,218.7
	c2.6-0.6,5.3-0.3,7.4,0.9c2,1.2,3.3,3.4,3.4,5.5c-6.8,1.2-13.5,2.3-20.2,3.5C69.6,224,73.4,219.8,78.1,218.7z M59.8,256.9
	c-1.6,0-3.1,0-4-0.7c0,0,0,0,0,0c-1.1-0.8-1.6-2.6-2-4.4c-0.8-3.8-1.4-7.8-1.7-11.7c-0.1-1.3-0.1-2.8,0.5-3.4c0.5-0.6,1.9-0.8,2.8-1
	c14.4-2.5,28.9-5,43.6-7.6c0.3,4.9,0.9,9.9,1.8,14.7c0,0.2,0.1,0.4,0.2,0.5c-2.1,1.3-4.1,3-5.6,4.9c-1.7,2.1-2.7,4.1-3,6.1
	C81.6,256,70.7,256.9,59.8,256.9z M112.9,265.4c-1.6,0.2-3.5,0.1-5.8-0.4c-3.3-0.7-5.7-1.8-7.5-3.4c-1.9-1.7-3-4.2-2.6-6.3
	c0.2-1.2,0.9-2.5,2-4c3.8-4.6,10.2-7.3,15.7-6.5c1.1,0.2,2.1,0.6,3,1.2c3.1,2.2,4.9,6.7,4.4,10.3
	C121.4,260.8,117.5,264.8,112.9,265.4z M142.6,260.1c-1.6,0.2-3.5,0.1-5.8-0.4c-3.3-0.7-5.7-1.8-7.5-3.4c-1.9-1.7-3-4.2-2.6-6.3
	c0.2-1.2,0.9-2.5,2-4c3.8-4.6,10.2-7.3,15.7-6.5c1.1,0.2,2.1,0.6,3,1.2c3.1,2.2,4.9,6.7,4.4,10.3
	C151.1,255.6,147.2,259.5,142.6,260.1z M182.4,248.8c-0.1,0.3-0.1,0.5-0.2,0.6c-0.2,0.1-0.6,0.2-1.2,0.2c-8.2,0.9-16.5,1.7-24.7,2.4
	c0-0.1,0.1-0.3,0.1-0.4c0.1-0.8,0.1-1.6,0.1-2.5c8.8-1.3,17.6-2.6,26.5-4C182.9,246.4,182.7,247.6,182.4,248.8z M235.7,239.6
	c-0.9,1.1-2.2,2-3.9,2.8c-3.8,1.7-8.3,2.1-12.4,1c-0.5-0.1-1-0.3-1.2-0.5c-0.4-0.4-0.7-1.2-1-2.2c-0.1-0.3-0.2-0.6-0.3-0.8
	c6.7-1,13.3-2.1,20-3.2C236.8,237.7,236.4,238.7,235.7,239.6z M273,233.3c-0.5,0.6-1.5,1.1-2.3,1.5c-3.7,1.6-7.8,2.3-11.9,2.1
	c-2.2-0.1-3.7-0.5-4.7-1.3c-0.5-0.3-1.1-0.8-1.3-1.1c0-0.1,0-0.2,0.1-0.3c0,0,0-0.1,0-0.1c7-1.1,14-2.3,21-3.4
	C273.8,231.8,273.5,232.7,273,233.3z M276.4,225.6c-0.1,0-0.2,0-0.2,0c-0.3,0-0.6,0.1-0.8,0.2c-39.9,6.6-79.9,12.9-119.7,18.8
	c-1.6-4.5-5-8.5-9.8-9.5l-2.1-14.2c0-0.1,0-0.1-0.1-0.2c68.8-11.5,140-22.4,211.3-31.2c-0.4,2.5-0.3,5.1,0,7.7
	c0.3,2.7,0.6,5.8,2,8.6c1,1.9,2.5,3.6,4.4,4.9c0.2,0.1,0.3,0.2,0.5,0.3C333.5,216,305,220.9,276.4,225.6z M407.8,199.9
	c-1.6,1.5-3.9,2.3-6.3,3.1c-6.6,2.2-13.5,3.9-20.4,5.2c-3.6,0.7-7.7,1.3-11.6,0.6c-3.8-0.7-7-2.7-8.4-5.4c-1-2-1.3-4.5-1.5-6.9
	c-0.4-4.3-0.5-9,2.3-11.1c1.1-0.9,2.7-1.3,4.5-1.7c6.5-1.5,13.1-2.8,19.7-3.7c1.1-0.2,2.2-0.4,3.4-0.6c4-0.7,8.9-1.7,12-0.4
	c3.9,1.6,7.5,6.6,8.5,11.9C410.4,193.1,410.7,197.2,407.8,199.9z M414.6,197c0.5-2.1,0.5-4.5,0.1-7c-0.7-3.8-2.4-7.4-4.8-10.2
	l18.4-2.7c0.2,0,0.5-0.1,0.6-0.1c0.1,0.1,0.2,0.2,0.3,0.4c3.6,4.7,5.4,10.8,4.8,16.7c-1.9,1-4.6,2.2-8,2.9
	C421.1,198,417.1,197.5,414.6,197z"/>
    <circle class="st1" cx="169.5" cy="228.5" r="7.5"/>
    <circle class="st1" cx="189.5" cy="225.5" r="7.5"/>
    <circle class="st1" cx="210.5" cy="221.5" r="7.5"/>
    <circle class="st1" cx="230.5" cy="218.5" r="7.5"/>
    <circle class="st1" cx="251.5" cy="214.5" r="7.5"/>
    <circle class="st1" cx="271.5" cy="211.5" r="7.5"/>
    <path class="st1" d="M398.6,198.4l-23.5,5c-3.5,0.7-7-1.5-7.7-5l-0.4-1.9c-0.7-3.5,1.5-7,5-7.7l23.5-5c3.5-0.7,7,1.5,7.7,5l0.4,1.9
	C404.3,194.2,402.1,197.6,398.6,198.4z"/>
    <g>
	<rect class="st24" height="144" width="500" x="-3" y="362"/>
        <text class="st23 st31 st32" transform="matrix(1 0 0 1 194.0269 400.5557)">Flûte</text>
</g>
</svg>
