<svg id="Calque_1" data-name="Calque 1" xmlns="http://www.w3.org/2000/svg" viewBox="0 0 350 300"><title>selected</title><path d="M300.22,23.88a3.64,3.64,0,0,0-.57,0,5.56,5.56,0,0,0-2.82,1.39L279.3,39.38h-.41a12.9,12.9,0,0,0-1.88.13c-4.68.66-9.05,4.44-12.55,7.47-.89.77-1.72,1.49-2.49,2.1-5.32,4.24-10.51,8.76-15.43,13.42a15.73,15.73,0,0,0-4.17,5.44,9.91,9.91,0,0,0-.71,3.65,2.27,2.27,0,0,0-.57.31c-28.08,21.38-55.87,43.22-83.24,65.18a9.22,9.22,0,0,0-4.76-3.1,9.86,9.86,0,0,0-2.47-.32,12.39,12.39,0,0,0-4.88,1.09,24.71,24.71,0,0,0-5.49,3.59c-2.28,1.83-4.82,4.06-6.18,7.2a9.28,9.28,0,0,0,1.16,9.79q-3.12,2.52-6.22,5.06a10.88,10.88,0,0,0-5.71-3.2,7,7,0,0,0-1-.07c-3.07,0-5.68,1.94-7.3,3.14l-4.79,3.56c-2.09,1.55-4.68,3.48-6,6.43s-1,6.94,1.61,9.14Q94,189.06,82.4,198.7c-1.52-1.58-3.69-3.27-6.44-3.27l-.68,0A10.3,10.3,0,0,0,70.07,198c-15.16,11.75-30.38,23.84-45.26,35.92l0,.05a14.82,14.82,0,0,0-9.58,4.17A17.53,17.53,0,0,0,11.56,258l-7.22,6.1c-1.18,1-3,2.52-3.49,4.84-.65,3,1.16,5.62,2,6.89a88.35,88.35,0,0,0,7.8,9.79c1.81,2,4.05,4,7,4.23h.09l.51,0a11.87,11.87,0,0,0,6.05-2.13,241.92,241.92,0,0,0,27-18.67,12.81,12.81,0,0,0,6.29,3.2,14.83,14.83,0,0,0,1.79.25q.67.06,1.38.06a24,24,0,0,0,7.37-1.31A21.12,21.12,0,0,0,74.85,268a16,16,0,0,0,5.59-15.27l.25.06a14.83,14.83,0,0,0,1.79.26c.45,0,.91.05,1.37.05a24,24,0,0,0,7.38-1.3,21.33,21.33,0,0,0,6.64-3.32A15.86,15.86,0,0,0,103.72,236c7.36-5.22,14.76-10.57,22-15.92a6.14,6.14,0,0,0,2.76-3.75,6,6,0,0,0-.33-2.92,37.05,37.05,0,0,0-2-5q9.54-7.73,19.09-15.5a12.92,12.92,0,0,1,1.23,1,8.49,8.49,0,0,0,4.49,2.53l.31,0a4.1,4.1,0,0,0,.49,0,8.68,8.68,0,0,0,2.4-.38,23.38,23.38,0,0,0,12.73-8.9,14.56,14.56,0,0,0,2.81-6.53,9.58,9.58,0,0,0-1.44-6.65l5.18-4.25c1.25,1.83,3.39,2,5.06,2.21l.14,0q.39,0,.78,0a14.38,14.38,0,0,0,6.39-1.8,31,31,0,0,0,10.83-9.21,10.55,10.55,0,0,0,2.12-4.45,10,10,0,0,0-1.47-6.53q35.26-29.26,70-58.83A2.3,2.3,0,0,0,268,90a40.12,40.12,0,0,0,9.89-6.73A163.88,163.88,0,0,0,293.27,68c2-2.21,4-4.63,4.84-7.67a11,11,0,0,0,.26-1.1l.76-.54C311.68,49.66,318,45.13,318.4,40.89c0,0,1.16-9.7-15.94-16.5a6,6,0,0,0-2.24-.51ZM298,53.08a17.17,17.17,0,0,0-3.48-6,23.22,23.22,0,0,0-9.26-6.42L299.77,29a5.2,5.2,0,0,1,.51-.38l.45.16a23.54,23.54,0,0,1,12.54,12A28.62,28.62,0,0,1,298,53.08ZM260.29,87a9.65,9.65,0,0,1-5.16-1.37,19.16,19.16,0,0,1-4.76-5.18c-2.53-3.51-4.94-7.53-3.64-10.76a11.76,11.76,0,0,1,3-3.78c4.83-4.57,9.92-9,15.13-13.16.84-.67,1.71-1.42,2.63-2.22,3-2.63,6.82-5.91,10.13-6.37a8.87,8.87,0,0,1,1.28-.09c4,0,8.88,2.4,12,6,1.47,1.7,3.76,5.11,2.64,8.94-.62,2.11-2.18,4-3.85,5.87a158.1,158.1,0,0,1-15,14.78c-2.76,2.38-6,5-9.69,6.4a14,14,0,0,1-4.82.9ZM85.14,221.43l-9-11.16-.16-.16c53.63-44.61,109.57-90,166.71-133.54a31.89,31.89,0,0,0,3.86,6.61,22.81,22.81,0,0,0,6.07,6.41,14,14,0,0,0,6.32,2l.57,0q-32.91,28-66.41,55.8l-.21.1a2.26,2.26,0,0,0-.61.58q-46.71,38.76-93.87,76.59a15.17,15.17,0,0,0-9.7-3.85,11.63,11.63,0,0,0-3.58.56Zm53.76-69.08c-1.23-1.17-1.2-3.39-.53-4.95.94-2.17,3-3.93,4.83-5.42a20.32,20.32,0,0,1,4.43-2.94,7.61,7.61,0,0,1,3-.69,4.6,4.6,0,0,1,1.25.16,4.51,4.51,0,0,1,2.31,1.5q-7.66,6.17-15.29,12.34Zm40.46,15a3.17,3.17,0,0,1-.44,0,8.61,8.61,0,0,1-1.67-.25,1.67,1.67,0,0,1-.08-.29l0-.08q8.22-6.78,16.41-13.57a4.61,4.61,0,0,1,.55,2.66,6.46,6.46,0,0,1-1.28,2.46,26.2,26.2,0,0,1-9.18,7.81,9.64,9.64,0,0,1-4.28,1.28Zm-69.84,8.93a2.15,2.15,0,0,0-.46-.33c-1.07-.58-1.21-2.51-.63-3.79.85-1.86,2.83-3.32,4.57-4.62l4.79-3.56c1.52-1.13,3.11-2.22,4.51-2.22a1.87,1.87,0,0,1,.34,0,5.71,5.71,0,0,1,2.69,1.55q-7.93,6.48-15.81,12.94Zm42.21,15.53h-.17a5,5,0,0,1-2-1.36l-.66-.59q7.83-6.39,15.65-12.8a5.14,5.14,0,0,1,.45,3,10.21,10.21,0,0,1-2,4.43,18.93,18.93,0,0,1-10.16,7.11,4.61,4.61,0,0,1-1.14.21ZM34.59,238.63a11.2,11.2,0,0,0-4-3.36C44.56,224,58.78,212.7,73,201.71a6.75,6.75,0,0,1,2.8-1.58H76a4.49,4.49,0,0,1,2.81,1.59Q56.4,220.28,34.59,238.63Zm68.22-7.75-.15-.42a13.55,13.55,0,0,0-1.15-2.2q10.42-8.37,20.84-16.79a29.63,29.63,0,0,1,1.33,3.38,3.86,3.86,0,0,1,.17.64,3.89,3.89,0,0,1-.92.81c-6.62,4.9-13.38,9.79-20.12,14.58Zm-27.32-2-8.8-11,5.72-4.77.08.12,8.38,10.39a22.54,22.54,0,0,0-5.38,5.3Zm-12.8,11.88c-3.23-3.82-6.3-7.83-9.15-11.94l9.54-8L72.74,233a2.61,2.61,0,0,0,.23.24,22.05,22.05,0,0,0-1.71,5.67,19,19,0,0,0-.21,2.63,13.76,13.76,0,0,0-5.35-1.13,11.52,11.52,0,0,0-3,.39Zm21.17,7.6a11.5,11.5,0,0,1-2.24-.22A7.29,7.29,0,0,1,76.15,244a8.84,8.84,0,0,1-.25-4.43c.91-5.91,5.12-11.49,10.23-13.55a6.76,6.76,0,0,1,2.58-.49c.21,0,.43,0,.64,0a11.42,11.42,0,0,1,9,6.64A11,11,0,0,1,95,244.75a16.63,16.63,0,0,1-5.21,2.56,19.31,19.31,0,0,1-5.92,1.08Zm-30.56-1a104.81,104.81,0,0,1-8.46-11.21l5.09-4.27c2.63,3.76,5.43,7.44,8.37,11a22,22,0,0,0-5,4.52Zm-38,7.5a12.94,12.94,0,0,1,3.1-13.31,10.06,10.06,0,0,1,6.73-2.9h.1a7,7,0,0,1,5.72,3L15.32,254.86Zm3,30.35h-.2c-1.36-.11-2.71-1.38-4-2.74a81,81,0,0,1-7.37-9.25C6,272.1,5.24,270.86,5.43,270s1.2-1.64,2-2.27q16.71-14.13,33.85-28.52a109.27,109.27,0,0,0,9,11.78,2.55,2.55,0,0,0,.43.38,22.29,22.29,0,0,0-2.39,7.08,13,13,0,0,0,.49,6.78,239.18,239.18,0,0,1-26.8,18.53,8.2,8.2,0,0,1-3.66,1.47Zm42.56-17.3a11.51,11.51,0,0,1-2.24-.21,7.34,7.34,0,0,1-5.47-4.13,8.76,8.76,0,0,1-.24-4.43c.9-5.92,5.11-11.49,10.22-13.56a6.94,6.94,0,0,1,2.58-.48l.64,0a11.44,11.44,0,0,1,9,6.64A11,11,0,0,1,72,264.28a16.46,16.46,0,0,1-5.2,2.56,19.27,19.27,0,0,1-5.92,1.07Z"/><path d="M102.27,201.38a2.5,2.5,0,1,1-2.15,3.76,2.5,2.5,0,0,1,.89-3.42,2.43,2.43,0,0,1,1.26-.34m0-5a7.5,7.5,0,0,0,0,15,7.42,7.42,0,0,0,3.78-1,7.5,7.5,0,0,0-3.79-14Z"/><path d="M118,188.7a2.48,2.48,0,0,1,2.17,1.24A2.5,2.5,0,0,1,118,193.7a2.47,2.47,0,0,1-2.17-1.24,2.49,2.49,0,0,1,.9-3.42,2.42,2.42,0,0,1,1.25-.34m0-5a7.5,7.5,0,1,0,0,15,7.41,7.41,0,0,0,3.77-1,7.49,7.49,0,0,0-3.79-14Z"/><path d="M134.14,174.65a2.5,2.5,0,0,1,2.42,3.14,2.53,2.53,0,0,1-1.15,1.52,2.5,2.5,0,0,1-3.42-.9,2.5,2.5,0,0,1,.89-3.42,2.43,2.43,0,0,1,1.26-.34m0-5a7.5,7.5,0,1,0,6.48,3.72,7.51,7.51,0,0,0-6.48-3.72Z"/><path d="M149.89,162a2.47,2.47,0,0,1,2.17,1.24,2.49,2.49,0,0,1-.9,3.42,2.42,2.42,0,0,1-1.25.34,2.5,2.5,0,0,1-1.27-4.66,2.52,2.52,0,0,1,1.25-.34m0-5a7.41,7.41,0,0,0-3.77,1,7.49,7.49,0,1,0,3.77-1Z"/><path d="M166,147.92a2.5,2.5,0,0,1,1.27,4.66,2.44,2.44,0,0,1-1.26.35,2.51,2.51,0,0,1,0-5m0-5a7.42,7.42,0,0,0-3.78,1,7.5,7.5,0,0,0,3.79,14,7.42,7.42,0,0,0,3.78-1,7.5,7.5,0,0,0-3.79-14Z"/><path d="M181.76,135.25a2.5,2.5,0,0,1,2.43,3.13,2.5,2.5,0,1,1-3.68-2.79,2.42,2.42,0,0,1,1.25-.34m0-5a7.5,7.5,0,0,0,0,15,7.39,7.39,0,0,0,3.77-1,7.49,7.49,0,0,0-3.79-14Z"/><path d="M279.22,54.58a1.48,1.48,0,0,1,1.11.48l1.29,1.42a1.52,1.52,0,0,1-.1,2.12L263.76,74.75a1.52,1.52,0,0,1-2.12-.11l-1.29-1.41a1.52,1.52,0,0,1,.1-2.12L278.21,55a1.51,1.51,0,0,1,1-.38m0-5a6.49,6.49,0,0,0-4.37,1.68L257.09,67.41a6.52,6.52,0,0,0-.44,9.18L257.94,78a6.52,6.52,0,0,0,9.18.44L284.88,62.3a6.52,6.52,0,0,0,.44-9.18L284,51.7a6.5,6.5,0,0,0-4.81-2.12Z"/></svg>