<svg id="Calque_1" data-name="Calque 1" xmlns="http://www.w3.org/2000/svg" viewBox="0 0 350 300"><defs><style>.cls-1{fill:none;stroke:#000;stroke-miterlimit:10;stroke-width:5px;}</style></defs><title>selected</title><path class="cls-1" d="M312.16,122.48c-4.74,7.29-11.33,12.25-19.06,16.13-24.77,12.45-49.42,25.14-74.1,37.75-6,3.07-11.94,6.29-18,9.3-7.27,3.64-14.67,7-21.92,10.72-10.75,5.46-21.4,11.11-32.14,16.6-19.4,9.92-38.57,20.36-58.33,29.5-18.18,8.41-35.24,7.11-50.76-7.9-10.79-10.43-14.15-28.73-8.94-42.82,4.86-13.14,14.9-20.69,26.65-26.7C65,160.28,74.45,155.69,83.86,151c12.52-6.29,25-12.57,37.5-19,4.52-2.31,8.78-5.13,13.31-7.42,23.51-11.9,47.1-23.66,70.61-35.56,17.24-8.72,34.37-17.64,51.6-26.37,15.47-7.85,30.64-7.07,44.69,3.08,13.22,9.53,18.88,23,16.9,39.14-.75,6.1-3.5,11.95-5.34,17.91l-1-.3M105.45,225c8.07-4.08,15.57-7.81,23-11.64q32.25-16.53,64.47-33.12c7-3.6,14.19-7,21.24-10.56,25-12.69,50-25.51,75.07-38.11,9.91-5,17.12-11.9,20.42-22.87,5.26-17.49-6.8-38.18-24.57-42-10.23-2.2-19.29.27-28.3,4.94-25,13-50.18,25.79-75.32,38.57-22.54,11.45-45.16,22.76-67.71,34.18-8.33,4.21-16.59,8.57-24.89,12.85-4.48,2.32-9,4.63-13.81,7.12,29.42,10.61,40,30.21,30.38,60.63m-9.89-.5A33.51,33.51,0,0,0,86,178.07c-15-9.9-36-5.59-45.84,9.43-10.34,15.81-6.44,36,9.31,46.34,16,10.46,35.67,5.92,46.06-9.39"/></svg>