<?xml version="1.0" encoding="utf-8"?>
<!-- Generator: Adobe Illustrator 22.1.0, SVG Export Plug-In . SVG Version: 6.00 Build 0)  -->
<svg style="enable-background:new 0 0 500 500;" id="Calque_1" version="1.1" viewBox="0 0 500 500" x="0px"
     xmlns="http://www.w3.org/2000/svg" y="0px" xml:space="preserve">
<style type="text/css">
	.st0{fill:#EAEAEA;}
	.st1{fill:#8C8C8C;}
	.st2{fill:#FFFFFF;}
	.st3{fill:#EAEAEA;stroke:#8C8C8C;stroke-width:7;stroke-miterlimit:10;}
	.st4{fill:#070707;}
	.st5{fill:none;stroke:#8C8C8C;stroke-width:7;stroke-miterlimit:10;}
	.st6{fill:none;stroke:#8C8C8C;stroke-width:10;stroke-miterlimit:10;}
	.st7{fill:#8C8C8C;stroke:#8C8C8C;stroke-width:3;stroke-miterlimit:10;}
	.st8{fill:none;stroke:#8C8C8C;stroke-width:8;stroke-miterlimit:10;}
	.st9{fill:none;stroke:#8E8E8E;stroke-width:6;stroke-miterlimit:10;}
	.st10{fill:#8E8E8E;}
	.st11{fill:#505050;}
	.st12{fill:none;stroke:#8E8E8E;stroke-width:2;stroke-miterlimit:10;}
	.st13{fill:#8C8C8C;stroke:#8C8C8C;stroke-width:2;stroke-miterlimit:10;}
	.st14{fill:#8C8C8C;stroke:#FFFFFF;stroke-width:2;stroke-miterlimit:10;}
	.st15{fill:none;stroke:#FFFFFF;stroke-width:2;stroke-miterlimit:10;}
	.st16{fill:none;stroke:#8C8C8C;stroke-miterlimit:10;}
	.st17{fill:none;stroke:#8C8C8C;stroke-width:13;stroke-miterlimit:10;}
	.st18{fill:#EAEAEA;stroke:#8C8C8C;stroke-width:8;stroke-miterlimit:10;}
	.st19{fill:none;stroke:#8C8C8C;stroke-width:4;stroke-miterlimit:10;}
	.st20{fill:#8C8C8C;stroke:#8C8C8C;stroke-width:0.75;stroke-miterlimit:10;}
	.st21{fill:none;stroke:#8C8C8C;stroke-width:9;stroke-miterlimit:10;}
	.st22{fill:#8C8C8C;stroke:#8C8C8C;stroke-width:0.5;stroke-miterlimit:10;}
	.st23{fill:#6B6B6B;}
	.st24{fill:none;}
	.st25{stroke:#8C8C8C;stroke-width:8;stroke-miterlimit:10;}
	.st26{fill:#8C8C8C;stroke:#8C8C8C;stroke-miterlimit:10;}
	.st27{fill:none;stroke:#8C8C8C;stroke-width:11;stroke-miterlimit:10;}
	.st28{fill:none;stroke:#8C8C8C;stroke-width:6;stroke-miterlimit:10;}
	.st29{stroke:#8C8C8C;stroke-width:6;stroke-miterlimit:10;}
	.st30{fill:#8C8C8C;stroke:#8C8C8C;stroke-width:4;stroke-miterlimit:10;}
	.st31{fill:#8C8C8C;stroke:#8C8C8C;stroke-width:1.05;stroke-miterlimit:10;}
	.st32{fill:#D6D6D6;}
	.st33{fill:none;stroke:#EAEAEA;stroke-width:5;stroke-miterlimit:10;}
	.st34{fill:#8C8C8C;stroke:#8C8C8C;stroke-width:10;stroke-miterlimit:10;}
	.st35{font-family:'HelveticaNeue-CondensedBold';}
	.st36{font-size:54px;}
	.st37{fill:none;stroke:#CECECE;stroke-width:2;stroke-miterlimit:10;}
	.st38{fill:none;stroke:#FFFFFF;stroke-width:4;stroke-miterlimit:10;}
	.st39{fill-rule:evenodd;clip-rule:evenodd;fill:#8C8C8C;}
	.st40{fill:#8C8C8C;stroke:#8C8C8C;stroke-width:8;stroke-miterlimit:10;}
	.st41{fill:#8C8C8C;stroke:#8C8C8C;stroke-width:7;stroke-miterlimit:10;}
	.st42{fill:#DBDBDB;stroke:#8C8C8C;stroke-width:7;stroke-miterlimit:10;}
	.st43{fill:none;stroke:#8C8C8C;stroke-width:5;stroke-miterlimit:10;}
	.st44{fill:none;stroke:#8C8C8C;stroke-width:3;stroke-miterlimit:10;}
	.st45{clip-path:url(#SVGID_2_);fill:#8C8C8C;}
	.st46{clip-path:url(#SVGID_2_);fill:none;stroke:#8C8C8C;stroke-width:8;stroke-miterlimit:10;}
	.st47{clip-path:url(#SVGID_2_);fill:#FFFFFF;}
	.st48{clip-path:url(#SVGID_2_);fill:#EAEAEA;}
	.st49{clip-path:url(#SVGID_2_);fill:none;stroke:#8C8C8C;stroke-miterlimit:10;}
	.st50{fill:none;stroke:#FFFFFF;stroke-width:0.75;stroke-miterlimit:10;}
	.st51{fill:none;stroke:#8C8C8C;stroke-width:14;stroke-miterlimit:10;}
	.st52{fill:none;stroke:#EAEAEA;stroke-width:2;stroke-miterlimit:10;}
	.st53{fill:none;stroke:#8C8C8C;stroke-width:2;stroke-miterlimit:10;}
</style>
    <rect class="st0" height="500" width="500"/>
    <g>
	<g>
		<g>
			<path class="st1" d="M346.9,159.6c-9.5,0-16.3-3.2-20.6-9.9c-3.7-5.8-4.7-12.9-4.9-16.7v-4.1V65.1c0-2.8-2.3-5.1-5.1-5.1h-25.5
				H209h-25.5c-2.8,0-5.1,2.3-5.1,5.1v66.4v0.7c-0.1,3.8-0.9,10.9-4.6,17c-4.3,7-11.1,10.4-20.9,10.4c-2.8,0-5.1,2.3-5.1,5.1V254
				c0,19.7,16,35.7,35.7,35.7h132.8c9.6,0,18.5-3.2,25-9c6.9-6.1,10.7-14.7,10.7-24.2v-91.9C352,161.9,349.7,159.6,346.9,159.6z
				 M295.8,70.2h15.3v58.6c0,0.5-0.1,2.1,0,4.5v39.1h-15.3V70.2z M285.2,70.2c-2.5,17.3-17.4,30.6-35.4,30.6S217,87.5,214.5,70.2
				L285.2,70.2z M188.6,132.3v-0.8V70.2h15.3v102.1h-15.3V132.3z M178.4,254h-10.2v10.2h10.2v14.8c-11.6-2.4-20.4-12.7-20.4-25
				v-12.8h20.4V254z M178.4,231.1H158v-61.5c9.7-1.1,16.1-5.1,20.4-9.6v12.5c-5.6,0-10.2,4.6-10.2,10.2v25.5
				c0,5.6,4.6,10.2,10.2,10.2V231.1z M178.4,208.1v-25.5h35.7l0,25.5H178.4z M203.9,279.6h-15.3v-61.3h15.3V279.6z M311.1,279.6
				h-15.3v-61.3h15.3V279.6z M285.6,208.1v-25.5h35.7l0,25.5H285.6z M341.8,256.6c0,11.7-8.3,20.6-20.4,22.6v-14.9h10.2V254h-10.2
				v-12.8h20.4V256.6z M341.8,231.1h-20.4v-12.8c5.6,0,10.2-4.6,10.2-10.2v-25.5c0-5.6-4.6-10.2-10.2-10.2v-12.5
				c5.1,5.4,12.1,8.7,20.4,9.7V231.1z"/>
            <rect class="st1" height="10.2" width="20.4" x="186" y="190.2"/>
            <rect class="st1" height="10.2" width="20.4" x="293.3" y="190.2"/>
		</g>
	</g>
</g>
    <g>
	<rect class="st24" height="144" width="500" x="-1" y="366"/>
        <text transform="matrix(1 0 0 1 168.0552 404.5557)"><tspan class="st23 st35 st36" x="0" y="0">Gilet de </tspan>
            <tspan class="st23 st35 st36" x="-29" y="64.8">sauvetage</tspan></text>
</g>
</svg>
