<svg id="Calque_1" data-name="Calque 1" xmlns="http://www.w3.org/2000/svg" viewBox="0 0 350 300"><title>selected</title><path d="M241.26,14a1.11,1.11,0,0,1,1.1,1.11V83.26c.26,4.13,1.33,12,5.58,18.61,5,7.76,13.08,11.7,23.94,11.7a1.11,1.11,0,0,1,1.11,1.11v91.91a27.88,27.88,0,0,1-9.35,21.21,33.58,33.58,0,0,1-22.39,8H108.49A31.78,31.78,0,0,1,76.75,204V114.68a1.11,1.11,0,0,1,1.11-1.11c11.18,0,19.38-4.16,24.36-12.37,4.14-6.81,5-14.76,5.16-18.89V15.11a1.11,1.11,0,0,1,1.1-1.11H241.26M216.83,126.34h23.32V83.11c-.08-2.21,0-3.71,0-4.12V16.21H216.83V126.34m-42-71.49a39.93,39.93,0,0,0,39.33-34.07l.65-4.57h-80l.65,4.57a39.93,39.93,0,0,0,39.34,34.07M109.6,126.34h23.32V16.21H109.6V126.34M79,185.06h28.43V164.29h-4a6.22,6.22,0,0,1-6.22-6.21V132.55a6.22,6.22,0,0,1,6.22-6.21h4V99.85l-6.9,7.26c-4.54,4.77-10.58,7.61-18,8.43l-3.56.39v69.13m163.4-58.72h4a6.21,6.21,0,0,1,6.21,6.21v25.53a6.21,6.21,0,0,1-6.21,6.21h-4v20.77h28.43V115.93l-3.55-.4c-7.37-.84-13.42-3.68-18-8.45l-6.89-7.19v26.45m-35.74,35.74h43.74V128.55H206.62v33.53m-107.23,0h43.74V128.55H99.39v33.53m117.44,71.49h23.32V164.29H216.83v69.28m-107.23,0h23.32V164.29H109.6v69.28m-2.21.38v-23.7H97.17V208h10.22V187.27H79V204A29.63,29.63,0,0,0,102.59,233l4.8,1m135-25.91h10.21v2.21H242.36v23.61l4.64-.75c14.23-2.3,23.79-13,23.79-26.52V187.27H242.36V208m-1.1-198H108.49a5.1,5.1,0,0,0-5.1,5.11V82.16c-.14,3.79-.93,11-4.59,17-4.26,7-11.12,10.44-20.94,10.44a5.11,5.11,0,0,0-5.11,5.11V204a35.78,35.78,0,0,0,35.74,35.74H241.26a37.57,37.57,0,0,0,25-9,31.8,31.8,0,0,0,10.7-24.2V114.68a5.11,5.11,0,0,0-5.11-5.11c-9.55,0-16.28-3.23-20.58-9.88-3.74-5.78-4.71-12.87-4.95-16.68V15.11a5.1,5.1,0,0,0-5.1-5.11ZM220.83,122.34V20.21h15.32V78.8c0,.53-.08,2.13,0,4.46v39.08Zm-46-71.49A35.8,35.8,0,0,1,139.5,20.21h70.75a35.8,35.8,0,0,1-35.37,30.64ZM113.6,122.34V20.21h15.32V122.34Zm132.76,58.72V168.29a10.22,10.22,0,0,0,10.21-10.21V132.55a10.22,10.22,0,0,0-10.21-10.21V109.85c5.15,5.37,12.06,8.7,20.43,9.65v61.56Zm-163.4,0V119.51c9.67-1.07,16.14-5.13,20.43-9.64v12.47a10.23,10.23,0,0,0-10.22,10.21v25.53a10.23,10.23,0,0,0,10.22,10.21v12.77Zm127.66-23V132.55h35.74v25.53Zm-107.23,0V132.55h35.74v25.53Zm117.44,71.49V168.29h15.32v61.28Zm-107.23,0V168.29h15.32v61.28Zm-10.21-.52A25.57,25.57,0,0,1,83,204V191.27h20.43V204H93.17v10.21h10.22v14.8Zm143-25V191.27h20.43v15.32c0,11.73-8.33,20.62-20.43,22.57V214.25h10.21V204Z"/><path d="M127.47,144.21v2.21H115.05v-2.21h12.42m4-4H111.05v10.21h20.42V140.21Z"/><path d="M234.7,144.21v2.21H222.28v-2.21H234.7m4-4H218.28v10.21H238.7V140.21Z"/></svg>