<svg id="Calque_1" data-name="Calque 1" xmlns="http://www.w3.org/2000/svg" viewBox="0 0 350 300"><title>selected</title><g id="surface1"><path d="M180.91,52h.33a191,191,0,0,1,49.29,6.43l2.34.65,1.95-1.43c7.7-5.65,14.45-5.65,23-5.65h.86a1,1,0,0,1,1,1v.13c0,9.16,0,16.4-6.07,24.3l-1.42,1.85.51,2.29c6,26.65,8.61,49.49,8.28,71.89-.29,19.67-2.84,39.22-8.28,63.38l-.51,2.28L253.6,221a26.71,26.71,0,0,1,5.28,11.45,66.25,66.25,0,0,1,.79,12.86v.12a1,1,0,0,1-1,1h-.47c-8.77,0-15.7,0-23.4-5.66l-1.95-1.43-2.34.64a191.08,191.08,0,0,1-49.27,6.45h-.35a191.67,191.67,0,0,1-49.74-6.45l-2.34-.64-2,1.43c-7.7,5.66-14.44,5.66-23,5.66H103a1,1,0,0,1-1-1v-.12c0-9.17,0-16.41,6.06-24.31l1.43-1.86-.52-2.28c-5.47-24.32-8-44-8.28-63.9-.29-22.23,2.35-44.91,8.29-71.37l.51-2.29-1.43-1.85A26.74,26.74,0,0,1,102.8,66,66.25,66.25,0,0,1,102,53.11V53a1,1,0,0,1,1-1h.5c8.76,0,15.67,0,23.36,5.65l2,1.43,2.33-.65A191.71,191.71,0,0,1,180.91,52h0m52.26,9.21a.9.9,0,0,1-.28,0C217.58,56.56,199.23,54,181.23,54h-.34c-18.18,0-36.68,2.55-52.11,7.19a.86.86,0,0,1-.28,0,.94.94,0,0,1-.64-.24C121.53,55.53,116,54.29,109.23,54l-5.38-.2.2,5.39c.27,7,1.59,12.65,7.29,19a1,1,0,0,1,.22.88c-13.54,58.59-10.25,95.74,0,140.11a1,1,0,0,1-.22.88c-5.7,6.38-7,12-7.29,19l-.2,5.38,5.38-.19c6.82-.25,12.31-1.5,18.64-6.95a1,1,0,0,1,.64-.23,1,1,0,0,1,.29,0c15.48,4.64,33.95,7.2,52,7.2h.43a186.12,186.12,0,0,0,51.65-7.2.86.86,0,0,1,.28,0,1,1,0,0,1,.65.24c6.32,5.44,11.82,6.69,18.63,6.94l5.39.2-.21-5.39c-.27-7-1.58-12.65-7.28-19a1,1,0,0,1-.23-.88c10.25-44.37,13.54-81.52,0-140.11a1,1,0,0,1,.23-.88c5.7-6.38,7-12,7.28-19l.21-5.39-5.39.2c-6.81.25-12.3,1.49-18.62,6.93a1,1,0,0,1-.65.24M180.91,47a196.26,196.26,0,0,0-51.1,6.61C120.78,47,112.7,47,103.45,47H103a6,6,0,0,0-6,6v.12c0,9.66,0,18.11,7.1,27.35-6,26.83-8.7,50-8.41,72.53.26,20.16,2.86,40.3,8.41,64.93-7.1,9.25-7.1,17.7-7.1,27.36v.12a6,6,0,0,0,6,6h.89c9.07,0,17.05-.1,25.94-6.63a195.93,195.93,0,0,0,51.08,6.63h.35a195.25,195.25,0,0,0,50.6-6.63c9,6.63,17.14,6.63,26.38,6.63h.45a6,6,0,0,0,6-6v-.12c0-9.66,0-18.11-7.1-27.36,5.51-24.47,8.11-44.45,8.4-64.4.34-22.75-2.34-46-8.4-73.06,7.1-9.24,7.1-17.69,7.1-27.35V53a6,6,0,0,0-6-6h-.86c-9.08,0-17.06.09-25.95,6.61A195.64,195.64,0,0,0,181.25,47ZM128.5,66.21a6,6,0,0,0,1.73-.25c15-4.51,33-7,50.66-7h.34c17.52,0,35.36,2.51,50.22,7a6,6,0,0,0,5.63-1.2c5.24-4.51,9.51-5.51,15.54-5.72-.23,6.22-1.29,10.61-6,15.89a6,6,0,0,0-1.37,5.33c13.32,57.66,10.09,94.21,0,137.86a6,6,0,0,0,1.37,5.34c4.72,5.28,5.78,9.67,6,15.89-6-.22-10.3-1.21-15.55-5.73a6,6,0,0,0-5.63-1.2c-14.92,4.48-32.76,7-50.21,7h-.43a181.23,181.23,0,0,1-50.57-7,5.92,5.92,0,0,0-1.72-.25,6,6,0,0,0-3.91,1.45c-5.24,4.52-9.51,5.51-15.55,5.73.24-6.22,1.3-10.61,6-15.89a6,6,0,0,0,1.37-5.34c-10.08-43.65-13.32-80.2,0-137.86a6,6,0,0,0-1.37-5.33c-4.71-5.28-5.77-9.67-6-15.89,6,.21,10.3,1.21,15.55,5.72a6,6,0,0,0,3.9,1.45Z"/><path d="M216.76,99.9a1,1,0,0,1,1,1,37.09,37.09,0,0,1-31.64,36.54l-4.28.62v29.63l8.57-8.76a36.6,36.6,0,0,1,26.36-11.11,1,1,0,0,1,1,1,37.09,37.09,0,0,1-31.64,36.54l-4.28.62v23.12a1,1,0,0,1-2,0V186l-4.29-.62a37.09,37.09,0,0,1-31.64-36.54,1,1,0,0,1,1-1,36.62,36.62,0,0,1,26.37,11.11l8.57,8.76V138.05l-4.29-.62a37.09,37.09,0,0,1-31.64-36.54,1,1,0,0,1,1-1A36.66,36.66,0,0,1,171.28,111l8.57,8.76V100.89a1,1,0,0,1,2,0v18.88L190.4,111A36.64,36.64,0,0,1,216.76,99.9m-35.84,36.84,7.8-1.81a35.15,35.15,0,0,0,26.16-26.15l1.81-7.81-7.81,1.81a35.15,35.15,0,0,0-26.16,26.15l-1.8,7.81m-.16,0L179,128.93a35.14,35.14,0,0,0-26.16-26.15L145,101l1.8,7.81A35.15,35.15,0,0,0,173,134.93l7.81,1.81m.16,47.9,7.8-1.8a35.18,35.18,0,0,0,26.16-26.16l1.81-7.81-7.81,1.81a35.18,35.18,0,0,0-26.16,26.16l-1.8,7.8m-.16,0-1.81-7.8a35.17,35.17,0,0,0-26.16-26.16l-7.8-1.81,1.8,7.81A35.18,35.18,0,0,0,173,182.84l7.81,1.8m36-89.74a41.77,41.77,0,0,0-29.93,12.62v-6.63a6,6,0,0,0-12,0v6.63A41.78,41.78,0,0,0,144.91,94.9a6,6,0,0,0-6,6,42,42,0,0,0,35.93,41.49v13a41.77,41.77,0,0,0-29.94-12.61,6,6,0,0,0-6,6,42,42,0,0,0,35.93,41.49v18.79a6,6,0,0,0,12,0V190.28a42,42,0,0,0,35.92-41.49,6,6,0,0,0-6-6,41.76,41.76,0,0,0-29.93,12.61v-13a42,42,0,0,0,35.92-41.49,6,6,0,0,0-6-6Zm-29.17,35.16A30,30,0,0,1,210,107.65a30,30,0,0,1-22.42,22.41Zm-13.51,0a30,30,0,0,1-22.41-22.41,30,30,0,0,1,22.41,22.41ZM187.59,178A30,30,0,0,1,210,155.55,30,30,0,0,1,187.59,178Zm-13.51,0a30,30,0,0,1-22.41-22.42A30,30,0,0,1,174.08,178Z"/></g></svg>