<svg id="Calque_1" data-name="Calque 1" xmlns="http://www.w3.org/2000/svg" viewBox="0 0 350 300"><defs><style>.cls-1{fill:#8c8c8c;}</style></defs><title>selected</title><path d="M117.91,186.73a52.1,52.1,0,0,1-4.48,7.9,54,54,0,0,0-9.66,29.07c-.4,14.38,5.28,28.44,16,39.57,13,13.57,32.15,21.48,52.42,21.71l2.1,0c9.65,0,33.79-1.21,51.45-20.83,16.89-18.77,16.42-41.68,16.18-46.89-1.95-3.52-4.44-7.48-5.91-7.48a.59.59,0,0,0-.23,0c-1.39.45-.93,5.07-.82,8.5,0,0,.28,8.63-4.36,25.51-4.49,16.36-30.8,33.91-58.33,34.09H172c-6.48,0-29.79-1.51-47.15-19.56-9.39-9.76-14.37-22-14-34.5a47,47,0,0,1,8.42-25.27,59,59,0,0,0,5.7-10.33h-.33a3,3,0,0,1-1.53-.39,3.77,3.77,0,0,0-2-.69,3,3,0,0,0-.58.06,3.66,3.66,0,0,1-.57.05,3.83,3.83,0,0,1-2-.6Z"/><path d="M184.83-9.1H161.54a5.85,5.85,0,0,0-5.82,5.47l-.4,6.38h-4.74a3.52,3.52,0,0,0,0,7h4.29l-.56,8.81h-6.42a3.52,3.52,0,1,0,0,7h6l-.57,8.88h-6.11a3.52,3.52,0,0,0,0,7h5.66l-.35,5.64a5.79,5.79,0,0,0,3.05,5.5v48c-.26,0-.52.12-.78.18.13,2.36.34,4.76.47,7.17l.31-.12V161.5c-.51.43-1,.89-1.49,1.36a27,27,0,0,0,19.08,46.08h0a27,27,0,0,0,19.08-46.07c-.48-.48-1-.93-1.48-1.37V108a61,61,0,0,1,8.24,2.72v-7.59a68.63,68.63,0,0,0-8.24-2.38V69a3.52,3.52,0,1,0-7,0V157.1a27.12,27.12,0,0,0-21.12,0V53.4h21.13V54a3.52,3.52,0,0,0,6,2.49,3.55,3.55,0,0,0,1-2.49V52.73a5.77,5.77,0,0,0,1.42-1l.12-.13a5.85,5.85,0,0,0,1.57-4.36l-.36-5.64h5.67a3.52,3.52,0,0,0,0-7h-6.11l-.57-8.88h5.92a3.52,3.52,0,1,0,0-7h-6.36l-.56-8.81h4.28a3.52,3.52,0,1,0,0-7h-4.73l-.41-6.38a5.85,5.85,0,0,0-5.81-5.47Zm1.93,55.46H159.6L162.68-2h21l3.07,48.41ZM173.16,201.9a20,20,0,1,1,14.1-5.84,19.86,19.86,0,0,1-14.1,5.84Z"/><path d="M199,103.16v7.59c10.14,4.17,21.8,12.45,21.8,28.43a34.22,34.22,0,0,1-1.38,9.68c-4.35,14.83-3.07,29.77,3.51,42.85,2.26-.74,4.55-1.42,6.85-2.08-6.26-11.75-7.55-25.31-3.61-38.79a41.24,41.24,0,0,0,1.67-11.66,34.46,34.46,0,0,0-12.2-26.58A51.43,51.43,0,0,0,199,103.16Z"/><path d="M229.78,189.63c-2.3.66-4.59,1.34-6.85,2.08a59.25,59.25,0,0,0,4.09,6.92A47,47,0,0,1,235,218.34a3.51,3.51,0,0,0,3.47,3,4.9,4.9,0,0,0,.54,0,3.52,3.52,0,0,0,2.95-4,54.09,54.09,0,0,0-9.09-22.64,51.83,51.83,0,0,1-3-5Z"/><path d="M147.74,224.54a12.19,12.19,0,0,0,0,24.38h50.84a12.19,12.19,0,0,0,0-24.37Zm50.84,17.34H147.74a5.15,5.15,0,1,1,0-10.29h50.84a5.15,5.15,0,0,1,0,10.29Z"/><path d="M167.82,68.2a3.52,3.52,0,1,0,0,7h10.62a3.52,3.52,0,1,0,0-7Z"/><path d="M167.82,82.91a3.52,3.52,0,0,0,0,7h10.62a3.52,3.52,0,1,0,0-7H167.82Z"/><path d="M178.44,97.63H167.82a3.52,3.52,0,0,0,0,7h10.62a3.52,3.52,0,1,0,0-7Z"/><path d="M178.44,112.34H167.82a3.52,3.52,0,1,0,0,7h10.62a3.52,3.52,0,1,0,0-7Z"/><path d="M178.44,127.06H167.82a3.52,3.52,0,1,0,0,7h10.62a3.52,3.52,0,1,0,0-7Z"/><path class="cls-1" d="M168.62,33.22A2.22,2.22,0,0,0,166,35.87a4.38,4.38,0,0,0,3.52,3.52,2.22,2.22,0,0,0,2.65-2.65A4.39,4.39,0,0,0,168.62,33.22Z"/><path class="cls-1" d="M179,32.65a2.22,2.22,0,0,0-2.65,2.65,4.39,4.39,0,0,0,3.52,3.52,2.22,2.22,0,0,0,2.65-2.65A4.38,4.38,0,0,0,179,32.65Z"/><path class="cls-1" d="M167.76,18.12a2.22,2.22,0,0,0-2.65,2.65,4.39,4.39,0,0,0,3.52,3.52,2.22,2.22,0,0,0,2.65-2.65A4.39,4.39,0,0,0,167.76,18.12Z"/><path class="cls-1" d="M178.18,17.55a2.22,2.22,0,0,0-2.65,2.65,4.39,4.39,0,0,0,3.52,3.52,2.22,2.22,0,0,0,2.65-2.65A4.36,4.36,0,0,0,178.18,17.55Z"/><path class="cls-1" d="M166.91,3a2.22,2.22,0,0,0-2.65,2.65,4.39,4.39,0,0,0,3.52,3.52,2.22,2.22,0,0,0,2.65-2.65A4.36,4.36,0,0,0,166.91,3Z"/><path class="cls-1" d="M177.33,2.45a2.22,2.22,0,0,0-2.65,2.65,4.39,4.39,0,0,0,3.52,3.52A2.22,2.22,0,0,0,180.85,6,4.38,4.38,0,0,0,177.33,2.45Z"/><path d="M156.76,99.87a77.58,77.58,0,0,0-22.33,9.45c-10.71,7-16.37,16.17-16.38,26.58a31.81,31.81,0,0,0,2.24,11.65c3.8,9.68,2.83,15.34,2.76,19.67a43.72,43.72,0,0,1-5.14,19.51,4.22,4.22,0,0,0,1.3,2.89,4.07,4.07,0,0,0,2.72,1,4.76,4.76,0,0,0,2.2-.54,53,53,0,0,0,3.29-44.46,22.76,22.76,0,0,1-2.11-12.44c1.54-12.07,14.1-22.57,31.45-25.71V99.87Z"/><path d="M187.5,46h-.4a3.51,3.51,0,0,0-3.5,3.5v19a3.51,3.51,0,0,0,3.5,3.5h.4a3.52,3.52,0,0,0,3.5-3.5v-19a3.52,3.52,0,0,0-3.5-3.5Z"/></svg>