<?xml version="1.0" encoding="utf-8"?>
<!-- Generator: Adobe Illustrator 22.1.0, SVG Export Plug-In . SVG Version: 6.00 Build 0)  -->
<svg style="enable-background:new 0 0 500 500;" id="Calque_1" version="1.1" viewBox="0 0 500 500" x="0px"
     xmlns="http://www.w3.org/2000/svg" y="0px" xml:space="preserve">
<style type="text/css">
	.st0{fill:#4FBDD7;}
	.st1{fill:#EAEAEA;}
	.st2{fill:#FFFFFF;}
	.st3{fill:#4FBDD7;stroke:#FFFFFF;stroke-width:5;stroke-miterlimit:10;}
	.st4{fill:#8C8C8C;}
	.st5{fill:#070707;}
	.st6{fill:none;stroke:#FFFFFF;stroke-width:7;stroke-miterlimit:10;}
	.st7{fill:none;stroke:#FFFFFF;stroke-width:10;stroke-miterlimit:10;}
	.st8{fill:#FFFFFF;stroke:#FFFFFF;stroke-width:3;stroke-miterlimit:10;}
	.st9{fill:none;stroke:#FDFFFF;stroke-width:6;stroke-miterlimit:10;}
	.st10{fill:#FAFEFF;}
	.st11{fill:none;stroke:#FFFFFF;stroke-width:2;stroke-miterlimit:10;}
	.st12{fill:#FFFFFF;stroke:#FFFFFF;stroke-width:2;stroke-miterlimit:10;}
	.st13{fill:#4FBDD7;stroke:#FFFFFF;stroke-width:4;stroke-miterlimit:10;}
	.st14{fill:#FFFFFF;stroke:#FFFFFF;stroke-width:4;stroke-miterlimit:10;}
	.st15{fill:none;stroke:#FFFFFF;stroke-miterlimit:10;}
	.st16{fill:#FFFFFF;stroke:#FFFFFF;stroke-width:13;stroke-miterlimit:10;}
	.st17{fill:#4FBDD7;stroke:#FFFFFF;stroke-width:8;stroke-miterlimit:10;}
	.st18{fill:#FFFFFF;stroke:#FFFFFF;stroke-width:0.75;stroke-miterlimit:10;}
	.st19{fill:#FFFFFF;stroke:#FFFFFF;stroke-width:0.5;stroke-miterlimit:10;}
	.st20{fill:#FFFFFF;stroke:#FFFFFF;stroke-width:8;stroke-miterlimit:10;}
	.st21{fill:#FFFFFF;stroke:#FFFFFF;stroke-miterlimit:10;}
	.st22{fill:#FFFFFF;stroke:#FFFFFF;stroke-width:11;stroke-miterlimit:10;}
	.st23{fill:#FFFFFF;stroke:#FFFFFF;stroke-width:6;stroke-miterlimit:10;}
	.st24{fill:#8C8C8C;stroke:#8C8C8C;stroke-width:4;stroke-miterlimit:10;}
	.st25{fill:#FFFFFF;stroke:#FFFFFF;stroke-width:1.05;stroke-miterlimit:10;}
	.st26{fill:none;}
	.st27{font-family:'HelveticaNeue-CondensedBold';}
	.st28{font-size:54px;}
	.st29{fill:none;stroke:#4FBDD7;stroke-width:5;stroke-miterlimit:10;}
	.st30{fill:none;stroke:#FFFFFF;stroke-width:4;stroke-miterlimit:10;}
	.st31{fill:#8C8C8C;stroke:#FFFFFF;stroke-width:4;stroke-miterlimit:10;}
	.st32{fill:#FFFFFF;stroke:#FFFFFF;stroke-width:10;stroke-miterlimit:10;}
	.st33{fill:none;stroke:#4FBDD7;stroke-width:2;stroke-miterlimit:10;}
	.st34{fill-rule:evenodd;clip-rule:evenodd;fill:#FFFFFF;}
	.st35{fill:#FFFFFF;stroke:#FFFFFF;stroke-width:7;stroke-miterlimit:10;}
	.st36{fill:#FFFFFF;stroke:#4FBDD7;stroke-width:7;stroke-miterlimit:10;}
	.st37{fill:#FCFCFC;}
	.st38{fill:#FFFFFF;stroke:#FFFFFF;stroke-width:5;stroke-miterlimit:10;}
	.st39{fill:none;stroke:#FFFFFF;stroke-width:3;stroke-miterlimit:10;}
	.st40{fill:none;stroke:#FFFFFF;stroke-width:8;stroke-miterlimit:10;}
	.st41{fill:none;stroke:#FFFFFF;stroke-width:6;stroke-miterlimit:10;}
	.st42{fill:#FFFFFF;stroke:#4FBDD7;stroke-width:3;stroke-miterlimit:10;}
	.st43{fill:none;stroke:#FFFFFF;stroke-width:0.75;stroke-miterlimit:10;}
	.st44{fill:#4FBDD7;stroke:#FFFFFF;stroke-width:9;stroke-miterlimit:10;}
	.st45{fill:none;stroke:#FFFFFF;stroke-width:9;stroke-miterlimit:10;}
	.st46{fill:none;stroke:#4FBDD7;stroke-width:3;stroke-miterlimit:10;}
</style>
    <rect class="st0" height="500" width="500"/>
    <path class="st2" d="M316.8,270.8c-1.4,0.4-0.9,5.1-0.8,8.5c0,0,0.3,8.6-4.4,25.5c-4.5,16.4-30.8,33.9-58.3,34.1
	c-6.1,0-29.8-1.2-47.4-19.6c-9.4-9.8-14.4-22-14-34.5c0.3-8.9,3.2-17.6,8.4-25.3c2.3-3.3,4.2-6.8,5.7-10.3c-0.7,0.1-1.3-0.1-1.9-0.4
	c-0.9-0.5-1.6-0.8-2.6-0.6c-0.9,0.2-1.8-0.1-2.6-0.5c-1.2,2.7-2.7,5.4-4.5,7.9c-6,8.8-9.4,18.8-9.7,29.1c-0.4,14.4,5.3,28.4,16,39.6
	c13,13.6,32.2,21.5,52.4,21.7c7.7,0.1,34.4,0.5,53.6-20.8c16.9-18.8,16.4-41.7,16.2-46.9C320.9,274.6,318.2,270.4,316.8,270.8z"/>
    <path class="st2" d="M282.7,101.5c0.6-0.6,1-1.5,1-2.5c0-1.9-1.6-3.5-3.5-3.5h-6.1l-0.6-8.9h5.9c1,0,1.9-0.4,2.5-1
	c0.6-0.6,1-1.5,1-2.5c0-1.9-1.6-3.5-3.5-3.5l-6.4,0l-0.6-8.8l4.3,0c1,0,1.9-0.4,2.5-1c0.6-0.6,1-1.5,1-2.5c0-1.9-1.6-3.5-3.5-3.5
	l-4.7,0l-0.4-6.4c-0.2-3.1-2.7-5.5-5.8-5.5h-23.3c-3.1,0-5.6,2.4-5.8,5.5l-0.4,6.4l-4.7,0c-1.9,0-3.5,1.6-3.5,3.5
	c0,1.9,1.6,3.5,3.5,3.5l4.3,0l-0.6,8.8l-6.4,0c-1.9,0-3.5,1.6-3.5,3.5c0,1.9,1.6,3.5,3.5,3.5l6,0l-0.6,8.9h-6.1
	c-1.9,0-3.5,1.6-3.5,3.5c0,1.9,1.6,3.5,3.5,3.5h5.7l-0.4,5.6c-0.1,1.6,0.5,3.2,1.6,4.4c0.4,0.5,0.9,0.8,1.5,1.1l0,48
	c-0.3,0.1-0.5,0.1-0.8,0.2c0.1,2.4,0.3,4.8,0.5,7.2c0.1,0,0.2-0.1,0.3-0.1l0,53.5c-0.5,0.4-1,0.9-1.5,1.4
	c-5.1,5.1-7.9,11.9-7.9,19.1c0,7.2,2.8,14,7.9,19.1c5.1,5.1,11.9,7.9,19.1,7.9c7.2,0,14-2.8,19.1-7.9c5.1-5.1,7.9-11.9,7.9-19.1
	s-2.8-14-7.9-19.1c-0.5-0.5-1-0.9-1.5-1.4V169c2.4,0.6,5.3,1.5,8.2,2.7v-7.6c-2.6-0.9-5.4-1.7-8.2-2.4V130c0-1.9-1.6-3.5-3.5-3.5
	c-1.9,0-3.5,1.6-3.5,3.5l0,88.1c-3.3-1.4-6.9-2.1-10.6-2.1s-7.3,0.7-10.6,2.1l0-103.7h21.1v0.6c0,1.9,1.6,3.5,3.5,3.5
	c1,0,1.9-0.4,2.5-1c0.6-0.6,1-1.5,1-2.5l0-1.3c0.5-0.3,1-0.6,1.4-1c0,0,0.1-0.1,0.1-0.1c1.1-1.2,1.7-2.8,1.6-4.4l-0.4-5.6h5.7
	C281.2,102.6,282,102.2,282.7,101.5z M254.2,223c5.3,0,10.3,2.1,14.1,5.8c3.8,3.8,5.8,8.8,5.8,14.1c0,5.3-2.1,10.3-5.8,14.1
	c-3.8,3.8-8.8,5.8-14.1,5.8s-10.3-2.1-14.1-5.8c-3.8-3.8-5.8-8.8-5.8-14.1c0-5.3,2.1-10.3,5.8-14.1C243.8,225.1,248.8,223,254.2,223
	z M240.6,107.4l3.1-48.4h21l3.1,48.4L240.6,107.4z"/>
    <path class="st2" d="M307.2,211.8c1.1-3.8,1.7-7.7,1.7-11.7c0-10.4-4.2-19.6-12.2-26.6c-4.5-3.9-10.2-7.1-16.6-9.4
	c0,2.5,0,5.1,0,7.6c10.1,4.2,21.8,12.5,21.8,28.4c0,3.3-0.5,6.5-1.4,9.7c-4.3,14.8-3.1,29.8,3.5,42.9c2.3-0.7,4.6-1.4,6.9-2.1
	C304.5,238.9,303.2,225.3,307.2,211.8z"/>
    <path class="st2" d="M322.9,278.3c-1.2-8-4.3-15.7-9.1-22.6c-1.1-1.6-2.1-3.3-3-5c-2.3,0.7-4.6,1.3-6.9,2.1c1.2,2.4,2.6,4.7,4.1,6.9
	c4.2,6.1,6.9,12.7,7.9,19.7c0.3,1.9,2.1,3.2,4,3c0.8-0.1,1.4-0.5,2-1C322.7,280.5,323.1,279.4,322.9,278.3z"/>
    <path class="st2" d="M216.6,297.7c0,6.7,5.5,12.2,12.2,12.2l50.8,0c3.4,0,6.4-1.4,8.6-3.6c2.2-2.2,3.6-5.3,3.6-8.6
	c0-6.7-5.5-12.2-12.2-12.2l-50.8,0c-3.3,0-6.3,1.3-8.6,3.6C217.8,291.4,216.6,294.5,216.6,297.7z M279.6,292.6
	c2.8,0,5.1,2.3,5.1,5.1c0,2.8-2.3,5.1-5.1,5.1l-50.8,0c-2.8,0-5.1-2.3-5.1-5.1c0-1.4,0.5-2.7,1.5-3.6c1-1,2.3-1.5,3.6-1.5
	L279.6,292.6z"/>
    <path class="st2" d="M261.9,135.2c0.6-0.6,1-1.5,1-2.5c0-1.9-1.6-3.5-3.5-3.5l-10.6,0c-1.9,0-3.5,1.6-3.5,3.5c0,1.9,1.6,3.5,3.5,3.5
	h10.6C260.4,136.2,261.3,135.8,261.9,135.2z"/>
    <path class="st2" d="M261.9,149.9c0.6-0.6,1-1.5,1-2.5c0-1.9-1.6-3.5-3.5-3.5l-10.6,0c-1.9,0-3.5,1.6-3.5,3.5c0,1.9,1.6,3.5,3.5,3.5
	h10.6C260.4,151,261.3,150.6,261.9,149.9z"/>
    <path class="st2" d="M261.9,164.6c0.6-0.6,1-1.5,1-2.5c0-1.9-1.6-3.5-3.5-3.5h-10.6c-1.9,0-3.5,1.6-3.5,3.5c0,1.9,1.6,3.5,3.5,3.5
	l10.6,0C260.4,165.7,261.3,165.3,261.9,164.6z"/>
    <path class="st2" d="M261.9,179.4c0.6-0.6,1-1.5,1-2.5c0-1.9-1.6-3.5-3.5-3.5h-10.6c-1.9,0-3.5,1.6-3.5,3.5c0,1.9,1.6,3.5,3.5,3.5
	l10.6,0C260.4,180.4,261.3,180,261.9,179.4z"/>
    <path class="st2" d="M245.3,191.6c0,1.9,1.6,3.5,3.5,3.5h10.6c1,0,1.9-0.4,2.5-1c0.6-0.6,1-1.5,1-2.5c0-1.9-1.6-3.5-3.5-3.5h-10.6
	C246.9,188.1,245.3,189.6,245.3,191.6z"/>
    <path class="st2" d="M249.6,94.2c-1.7-0.2-2.9,0.9-2.6,2.6c0.2,1.7,1.8,3.3,3.5,3.5c1.7,0.2,2.9-0.9,2.6-2.6
	C252.9,96,251.3,94.5,249.6,94.2z"/>
    <path class="st2" d="M260,93.6c-1.7-0.2-2.9,0.9-2.7,2.7c0.2,1.7,1.8,3.3,3.5,3.5c1.7,0.2,2.9-0.9,2.7-2.7
	C263.3,95.5,261.7,93.9,260,93.6z"/>
    <path class="st2" d="M248.8,79.1c-1.7-0.2-2.9,0.9-2.6,2.6c0.2,1.7,1.8,3.3,3.5,3.5c1.7,0.2,2.9-0.9,2.6-2.6
	C252,80.9,250.5,79.4,248.8,79.1z"/>
    <path class="st2" d="M259.2,78.5c-1.7-0.2-2.9,0.9-2.6,2.6c0.2,1.7,1.8,3.3,3.5,3.5c1.7,0.2,2.9-0.9,2.6-2.6
	C262.5,80.4,260.9,78.8,259.2,78.5z"/>
    <path class="st2" d="M247.9,64c-1.7-0.2-2.9,0.9-2.6,2.6c0.2,1.7,1.8,3.3,3.5,3.5c1.7,0.2,2.9-0.9,2.6-2.6
	C251.2,65.8,249.6,64.3,247.9,64z"/>
    <path class="st2" d="M258.3,63.4c-1.7-0.2-2.9,0.9-2.6,2.6c0.2,1.7,1.8,3.3,3.5,3.5c1.7,0.2,2.9-0.9,2.6-2.6
	C261.6,65.3,260,63.7,258.3,63.4z"/>
    <path class="st2" d="M201.3,208.6c-1.5-3.8-2.2-7.7-2.2-11.7c0-10.4,5.7-19.6,16.4-26.6c6.1-3.9,13.6-7.1,22.3-9.4
	c0,2.5,0,5.1,0,7.6c-17.3,3.1-29.9,13.6-31.4,25.7c-0.3,2.6-0.4,6.9,2.1,12.4c1.6,4.3,3.9,12.1,3.3,22.1
	c-0.7,10.5-4.3,18.3-6.6,22.4c-1.7,0.9-3.7,0.7-4.9-0.5c-1.2-1.1-1.3-2.5-1.3-2.9c4.2-8.3,5.1-15.1,5.1-19.5
	C204.1,223.9,205.1,218.2,201.3,208.6z"/>
    <path class="st2" d="M268.1,107h0.4c1.9,0,3.5,1.6,3.5,3.5v19c0,1.9-1.6,3.5-3.5,3.5h-0.4c-1.9,0-3.5-1.6-3.5-3.5v-19
	C264.6,108.6,266.2,107,268.1,107z"/>
    <g>
	<rect class="st26" height="144" width="500" x="2" y="362"/>
        <text class="st2 st27 st28" transform="matrix(1 0 0 1 174.5381 400.5557)">Guitare</text>
</g>
</svg>
