<svg id="Calque_1" data-name="Calque 1" xmlns="http://www.w3.org/2000/svg" viewBox="0 0 350 300"><defs><style>.cls-1{fill:none;stroke:#000;stroke-miterlimit:10;stroke-width:4px;}</style></defs><title>selected</title><path class="cls-1" d="M87.28,140l-2.64-10a9.19,9.19,0,0,1,6.55-11.24L260.88,73.94a9.2,9.2,0,0,1,11.25,6.55l2.64,10a3.31,3.31,0,0,1-2.35,4L91.31,142.35a3.29,3.29,0,0,1-4-2.34m208.39,29.62-2.65-10a3.29,3.29,0,0,0-4-2.35L107.88,205.11a3.31,3.31,0,0,0-2.35,4l2.65,10a9.2,9.2,0,0,0,11.25,6.55l169.69-44.81a9.21,9.21,0,0,0,6.55-11.25m8.73-23.09L89.18,203.38a9.21,9.21,0,0,1-11.25-6.55l-8.58-32.49a9.2,9.2,0,0,1,6.55-11.25L291.12,96.25a9.21,9.21,0,0,1,11.25,6.55L311,135.29a9.21,9.21,0,0,1-6.55,11.25M115.57,171l-.74-2.82a5.55,5.55,0,0,0-6.8-4l-7.72,2a5.57,5.57,0,0,0-4,6.81l.74,2.82a5.57,5.57,0,0,0,6.8,4l7.72-2a5.55,5.55,0,0,0,3.95-6.8m28.07-7.41-.74-2.82a5.57,5.57,0,0,0-6.81-4l-7.71,2a5.57,5.57,0,0,0-4,6.81l.74,2.82a5.57,5.57,0,0,0,6.8,4l7.72-2a5.56,5.56,0,0,0,4-6.79m28.06-7.41-.74-2.83a5.56,5.56,0,0,0-6.8-4l-7.72,2a5.56,5.56,0,0,0-4,6.8l.74,2.83a5.58,5.58,0,0,0,6.81,4l7.71-2a5.56,5.56,0,0,0,4-6.79m28.06-7.41L199,146a5.56,5.56,0,0,0-6.8-4l-7.72,2a5.56,5.56,0,0,0-4,6.8l.75,2.82a5.55,5.55,0,0,0,6.8,4l7.72-2a5.56,5.56,0,0,0,3.95-6.8m28.06-7.42-.74-2.81a5.55,5.55,0,0,0-6.8-4l-7.72,2a5.58,5.58,0,0,0-4,6.81l.75,2.81a5.55,5.55,0,0,0,6.8,4l7.72-2a5.57,5.57,0,0,0,3.95-6.81M255.89,134l-.75-2.82a5.57,5.57,0,0,0-6.8-4l-7.72,2a5.57,5.57,0,0,0-4,6.8l.75,2.82a5.55,5.55,0,0,0,6.8,4l7.71-2a5.57,5.57,0,0,0,4-6.8M284,126.55l-.75-2.82a5.56,5.56,0,0,0-6.8-4l-7.72,2a5.55,5.55,0,0,0-3.95,6.8l.74,2.82a5.56,5.56,0,0,0,6.8,4l7.72-2a5.57,5.57,0,0,0,4-6.8"/></svg>