<?xml version="1.0" encoding="utf-8"?>
<!-- Generator: Adobe Illustrator 22.1.0, SVG Export Plug-In . SVG Version: 6.00 Build 0)  -->
<svg style="enable-background:new 0 0 500 500;" id="Calque_1" version="1.1" viewBox="0 0 500 500" x="0px"
     xmlns="http://www.w3.org/2000/svg" y="0px" xml:space="preserve">
<style type="text/css">
	.st0{fill:#4FBDD7;}
	.st1{fill:#EAEAEA;}
	.st2{fill:none;}
	.st3{fill:#FFFFFF;}
	.st4{font-family:'HelveticaNeue-CondensedBold';}
	.st5{font-size:54px;}
	.st6{fill:#4FBDD7;stroke:#FFFFFF;stroke-width:5;stroke-miterlimit:10;}
	.st7{fill:#8C8C8C;}
	.st8{fill:#070707;}
	.st9{fill:none;stroke:#FFFFFF;stroke-width:7;stroke-miterlimit:10;}
	.st10{fill:none;stroke:#FFFFFF;stroke-width:10;stroke-miterlimit:10;}
	.st11{fill:#FFFFFF;stroke:#FFFFFF;stroke-width:3;stroke-miterlimit:10;}
	.st12{fill:none;stroke:#FDFFFF;stroke-width:6;stroke-miterlimit:10;}
	.st13{fill:#FAFEFF;}
	.st14{fill:none;stroke:#FFFFFF;stroke-width:2;stroke-miterlimit:10;}
	.st15{fill:#FFFFFF;stroke:#FFFFFF;stroke-width:2;stroke-miterlimit:10;}
	.st16{fill:#4FBDD7;stroke:#FFFFFF;stroke-width:4;stroke-miterlimit:10;}
	.st17{fill:#FFFFFF;stroke:#FFFFFF;stroke-width:4;stroke-miterlimit:10;}
	.st18{fill:none;stroke:#FFFFFF;stroke-miterlimit:10;}
	.st19{fill:#FFFFFF;stroke:#FFFFFF;stroke-width:13;stroke-miterlimit:10;}
	.st20{fill:#4FBDD7;stroke:#FFFFFF;stroke-width:8;stroke-miterlimit:10;}
	.st21{fill:#FFFFFF;stroke:#FFFFFF;stroke-width:0.75;stroke-miterlimit:10;}
	.st22{fill:#FFFFFF;stroke:#FFFFFF;stroke-width:0.5;stroke-miterlimit:10;}
	.st23{fill:#FFFFFF;stroke:#FFFFFF;stroke-width:8;stroke-miterlimit:10;}
	.st24{fill:#FFFFFF;stroke:#FFFFFF;stroke-miterlimit:10;}
	.st25{fill:#FFFFFF;stroke:#FFFFFF;stroke-width:11;stroke-miterlimit:10;}
	.st26{fill:#FFFFFF;stroke:#FFFFFF;stroke-width:6;stroke-miterlimit:10;}
	.st27{fill:#8C8C8C;stroke:#8C8C8C;stroke-width:4;stroke-miterlimit:10;}
	.st28{fill:#FFFFFF;stroke:#FFFFFF;stroke-width:1.05;stroke-miterlimit:10;}
	.st29{fill:none;stroke:#4FBDD7;stroke-width:5;stroke-miterlimit:10;}
	.st30{fill:none;stroke:#FFFFFF;stroke-width:4;stroke-miterlimit:10;}
	.st31{fill:#8C8C8C;stroke:#FFFFFF;stroke-width:4;stroke-miterlimit:10;}
	.st32{fill:#FFFFFF;stroke:#FFFFFF;stroke-width:10;stroke-miterlimit:10;}
	.st33{fill:none;stroke:#4FBDD7;stroke-width:2;stroke-miterlimit:10;}
	.st34{fill-rule:evenodd;clip-rule:evenodd;fill:#FFFFFF;}
	.st35{fill:#FFFFFF;stroke:#FFFFFF;stroke-width:7;stroke-miterlimit:10;}
	.st36{fill:#FFFFFF;stroke:#4FBDD7;stroke-width:7;stroke-miterlimit:10;}
	.st37{fill:#FCFCFC;}
	.st38{fill:#FFFFFF;stroke:#FFFFFF;stroke-width:5;stroke-miterlimit:10;}
	.st39{fill:none;stroke:#FFFFFF;stroke-width:3;stroke-miterlimit:10;}
	.st40{fill:none;stroke:#FFFFFF;stroke-width:8;stroke-miterlimit:10;}
	.st41{fill:none;stroke:#FFFFFF;stroke-width:6;stroke-miterlimit:10;}
	.st42{fill:#FFFFFF;stroke:#4FBDD7;stroke-width:3;stroke-miterlimit:10;}
	.st43{fill:none;stroke:#FFFFFF;stroke-width:0.75;stroke-miterlimit:10;}
	.st44{fill:#4FBDD7;stroke:#FFFFFF;stroke-width:9;stroke-miterlimit:10;}
	.st45{fill:none;stroke:#FFFFFF;stroke-width:9;stroke-miterlimit:10;}
	.st46{fill:none;stroke:#4FBDD7;stroke-width:3;stroke-miterlimit:10;}
</style>
    <rect class="st0" height="500" width="500" x="1" y="-1"/>
    <g>
	<rect class="st2" height="144" width="500" x="1" y="360"/>
        <text class="st3 st4 st5" transform="matrix(1 0 0 1 135.1177 398.5557)">Harmonica</text>
</g>
    <g>
	<path class="st3" d="M162.3,190l-2.6-10c-1.3-4.9,1.6-9.9,6.6-11.2l169.7-44.8c4.9-1.3,9.9,1.6,11.2,6.5l2.6,10
		c0.5,1.8-0.6,3.6-2.3,4l-181.1,47.8C164.5,192.8,162.7,191.8,162.3,190 M370.7,219.6l-2.6-10c-0.5-1.8-2.3-2.8-4-2.3l-181.1,47.8
		c-1.8,0.5-2.8,2.3-2.3,4l2.6,10c1.3,4.9,6.3,7.8,11.2,6.5l169.7-44.8C369,229.6,372,224.5,370.7,219.6 M379.4,196.5l-215.2,56.8
		c-4.9,1.3-10-1.6-11.2-6.5l-8.6-32.5c-1.3-4.9,1.6-10,6.5-11.3l215.2-56.8c4.9-1.3,9.9,1.6,11.2,6.5l8.6,32.5
		C387.2,190.2,384.3,195.2,379.4,196.5 M190.6,221l-0.7-2.8c-0.8-3-3.8-4.7-6.8-4l-7.7,2c-3,0.8-4.7,3.8-4,6.8l0.7,2.8
		c0.8,3,3.8,4.7,6.8,4l7.7-2C189.6,227,191.4,224,190.6,221 M218.6,213.6l-0.7-2.8c-0.8-3-3.8-4.7-6.8-4l-7.7,2
		c-3,0.8-4.7,3.8-4,6.8l0.7,2.8c0.8,3,3.8,4.7,6.8,4l7.7-2C217.6,219.6,219.4,216.6,218.6,213.6 M246.7,206.2l-0.7-2.8
		c-0.8-3-3.8-4.7-6.8-4l-7.7,2c-3,0.8-4.7,3.8-4,6.8l0.7,2.8c0.8,3,3.8,4.7,6.8,4l7.7-2C245.7,212.2,247.5,209.2,246.7,206.2
		 M274.8,198.8L274,196c-0.8-3-3.8-4.7-6.8-4l-7.7,2c-3,0.8-4.7,3.8-4,6.8l0.7,2.8c0.8,3,3.8,4.7,6.8,4l7.7-2
		C273.8,204.8,275.5,201.8,274.8,198.8 M302.8,191.4l-0.7-2.8c-0.8-3-3.8-4.7-6.8-4l-7.7,2c-3,0.8-4.7,3.8-4,6.8l0.7,2.8
		c0.8,3,3.8,4.7,6.8,4l7.7-2C301.8,197.4,303.6,194.3,302.8,191.4 M330.9,184l-0.7-2.8c-0.8-3-3.8-4.7-6.8-4l-7.7,2
		c-3,0.8-4.7,3.8-4,6.8l0.7,2.8c0.8,3,3.8,4.7,6.8,4l7.7-2C329.9,190,331.7,186.9,330.9,184 M358.9,176.5l-0.7-2.8
		c-0.8-3-3.8-4.7-6.8-4l-7.7,2c-3,0.8-4.7,3.8-4,6.8l0.7,2.8c0.8,3,3.8,4.7,6.8,4l7.7-2C358,182.6,359.7,179.5,358.9,176.5"/>
</g>
</svg>
