<svg id="Calque_1" data-name="Calque 1" xmlns="http://www.w3.org/2000/svg" viewBox="0 0 350 300"><title>selected</title><path d="M226.92,51a21.63,21.63,0,0,1,21.61,21.6v31.6H268.7v34.22l1.46,1.46,3.56,3.57a28,28,0,0,1,8.28,20V268H65V163.42a28,28,0,0,1,8.28-20l3.56-3.57,1.46-1.46V104.2H98.47V72.6a21.61,21.61,0,0,1,43.21,0v31.6h20.17v34.22l1.46,1.46,3.57,3.57a29,29,0,0,1,2.63,3l4,5.3,4-5.3a28.83,28.83,0,0,1,2.64-3l3.56-3.57,1.46-1.46V104.2h20.17V72.6A21.62,21.62,0,0,1,226.92,51m-18.3,53.2h36.61V72.6a18.31,18.31,0,0,0-36.61,0v31.6m-106.85,0h36.61V72.6a18.31,18.31,0,0,0-36.61,0v31.6m86.68,33.26H265.4v-30H188.45v30m-106.85,0h77v-30h-77v30m160.28,64.22h25.17A11.67,11.67,0,0,0,278.7,190V163.42a24.8,24.8,0,0,0-7.31-17.64l-3.56-3.56-1.47-1.46H241.88v60.92m-26.61,0h23.31V140.76H215.27v60.92m-28.47,0H212V140.76H187.49L186,142.22l-3.56,3.56a24.8,24.8,0,0,0-7.31,17.64V190a11.67,11.67,0,0,0,11.65,11.65m-51.77,0H160.2A11.67,11.67,0,0,0,171.85,190V163.42a24.8,24.8,0,0,0-7.31-17.64L161,142.22l-1.47-1.46H135v60.92m-26.61,0h23.31V140.76H108.42v60.92m-28.47,0h25.17V140.76H80.64l-1.47,1.46-3.56,3.56a24.8,24.8,0,0,0-7.31,17.64V190A11.67,11.67,0,0,0,80,201.68m147,39.72a15,15,0,0,1-14.95-15V205H186.8a14.82,14.82,0,0,1-5-.86l-6.67-2.36V264.7H278.7V201.76L272,204.12a14.82,14.82,0,0,1-5,.86H241.88v21.47a15,15,0,0,1-15,15m-106.84,0a15,15,0,0,1-15-15V205H80a14.82,14.82,0,0,1-5-.86l-6.67-2.36V264.7H171.85V201.76l-6.67,2.36a14.82,14.82,0,0,1-5,.86H135v21.47a15,15,0,0,1-15,15m106.84-3.3a11.67,11.67,0,0,0,11.66-11.65V205H215.27v21.47a11.67,11.67,0,0,0,11.65,11.65m-106.84,0a11.67,11.67,0,0,0,11.65-11.65V205H108.42v21.47a11.67,11.67,0,0,0,11.66,11.65M226.92,46a26.63,26.63,0,0,0-26.6,26.6V99.2H180.15v37.15l-3.56,3.56a34.45,34.45,0,0,0-3.09,3.55,34.45,34.45,0,0,0-3.09-3.55l-3.56-3.56V99.2H146.68V72.6a26.61,26.61,0,0,0-53.21,0V99.2H73.3v37.15l-3.56,3.56A33,33,0,0,0,60,163.42V273H287V163.42a33,33,0,0,0-9.74-23.51l-3.56-3.56V99.2H253.53V72.6A26.64,26.64,0,0,0,226.92,46Zm-13.3,53.2V72.6a13.31,13.31,0,0,1,26.61,0V99.2Zm-106.85,0V72.6a13.31,13.31,0,0,1,26.61,0V99.2Zm86.68,33.26v-20H260.4v20Zm-106.85,0v-20h67v20Zm160.28,64.22V145.76h17.41l3.57,3.56a19.85,19.85,0,0,1,5.84,14.1V190a6.66,6.66,0,0,1-6.65,6.65Zm-26.61,0V145.76h13.31v50.92Zm-33.47,0a6.66,6.66,0,0,1-6.65-6.65V163.42a19.85,19.85,0,0,1,5.84-14.1l3.57-3.56H207v50.92Zm-46.77,0V145.76h17.41l3.57,3.56a19.85,19.85,0,0,1,5.84,14.1V190a6.66,6.66,0,0,1-6.65,6.65Zm-26.61,0V145.76h13.31v50.92Zm-33.47,0A6.66,6.66,0,0,1,73.3,190V163.42a19.85,19.85,0,0,1,5.84-14.1l3.57-3.56h17.41v50.92Zm147,49.72a20,20,0,0,0,20-20V210h20.17a19.81,19.81,0,0,0,6.65-1.15V259.7H180.15V208.83A19.81,19.81,0,0,0,186.8,210H207v16.47a20,20,0,0,0,19.95,20Zm-106.84,0a20,20,0,0,0,20-20V210H160.2a19.81,19.81,0,0,0,6.65-1.15V259.7H73.3V208.83A19.81,19.81,0,0,0,80,210h20.17v16.47a20,20,0,0,0,20,20Zm106.84-13.3a6.67,6.67,0,0,1-6.65-6.65V210h13.31v16.47a6.67,6.67,0,0,1-6.66,6.65Zm-106.84,0a6.67,6.67,0,0,1-6.66-6.65V210h13.31v16.47a6.67,6.67,0,0,1-6.65,6.65Z"/></svg>