<?xml version="1.0" encoding="utf-8"?>
<!-- Generator: Adobe Illustrator 22.1.0, SVG Export Plug-In . SVG Version: 6.00 Build 0)  -->
<svg style="enable-background:new 0 0 500 500;" id="Calque_1" version="1.1" viewBox="0 0 500 500" x="0px"
     xmlns="http://www.w3.org/2000/svg" y="0px" xml:space="preserve">
<style type="text/css">
	.st0{fill:#EAEAEA;}
	.st1{fill:#8C8C8C;}
	.st2{fill:#FFFFFF;}
	.st3{fill:#EAEAEA;stroke:#8C8C8C;stroke-width:7;stroke-miterlimit:10;}
	.st4{fill:#070707;}
	.st5{fill:none;stroke:#8C8C8C;stroke-width:7;stroke-miterlimit:10;}
	.st6{fill:none;stroke:#8C8C8C;stroke-width:10;stroke-miterlimit:10;}
	.st7{fill:#8C8C8C;stroke:#8C8C8C;stroke-width:3;stroke-miterlimit:10;}
	.st8{fill:none;stroke:#8C8C8C;stroke-width:8;stroke-miterlimit:10;}
	.st9{fill:none;stroke:#8E8E8E;stroke-width:6;stroke-miterlimit:10;}
	.st10{fill:#8E8E8E;}
	.st11{fill:#505050;}
	.st12{fill:none;stroke:#8E8E8E;stroke-width:2;stroke-miterlimit:10;}
	.st13{fill:#8C8C8C;stroke:#8C8C8C;stroke-width:2;stroke-miterlimit:10;}
	.st14{fill:#8C8C8C;stroke:#FFFFFF;stroke-width:2;stroke-miterlimit:10;}
	.st15{fill:none;stroke:#FFFFFF;stroke-width:2;stroke-miterlimit:10;}
	.st16{fill:none;stroke:#8C8C8C;stroke-miterlimit:10;}
	.st17{fill:none;stroke:#8C8C8C;stroke-width:13;stroke-miterlimit:10;}
	.st18{fill:#EAEAEA;stroke:#8C8C8C;stroke-width:8;stroke-miterlimit:10;}
	.st19{fill:none;stroke:#8C8C8C;stroke-width:4;stroke-miterlimit:10;}
	.st20{fill:#8C8C8C;stroke:#8C8C8C;stroke-width:0.75;stroke-miterlimit:10;}
	.st21{fill:none;stroke:#8C8C8C;stroke-width:9;stroke-miterlimit:10;}
	.st22{fill:#8C8C8C;stroke:#8C8C8C;stroke-width:0.5;stroke-miterlimit:10;}
	.st23{fill:#6B6B6B;}
	.st24{fill:none;}
	.st25{stroke:#8C8C8C;stroke-width:8;stroke-miterlimit:10;}
	.st26{fill:#8C8C8C;stroke:#8C8C8C;stroke-miterlimit:10;}
	.st27{fill:none;stroke:#8C8C8C;stroke-width:11;stroke-miterlimit:10;}
	.st28{fill:none;stroke:#8C8C8C;stroke-width:6;stroke-miterlimit:10;}
	.st29{stroke:#8C8C8C;stroke-width:6;stroke-miterlimit:10;}
	.st30{font-family:'HelveticaNeue-CondensedBold';}
	.st31{font-size:54px;}
	.st32{fill:#8C8C8C;stroke:#8C8C8C;stroke-width:4;stroke-miterlimit:10;}
	.st33{fill:#8C8C8C;stroke:#8C8C8C;stroke-width:1.05;stroke-miterlimit:10;}
	.st34{fill:#D6D6D6;}
	.st35{fill:none;stroke:#EAEAEA;stroke-width:5;stroke-miterlimit:10;}
	.st36{fill:#8C8C8C;stroke:#8C8C8C;stroke-width:10;stroke-miterlimit:10;}
	.st37{fill:none;stroke:#CECECE;stroke-width:2;stroke-miterlimit:10;}
	.st38{fill:none;stroke:#FFFFFF;stroke-width:4;stroke-miterlimit:10;}
	.st39{fill-rule:evenodd;clip-rule:evenodd;fill:#8C8C8C;}
	.st40{fill:#8C8C8C;stroke:#8C8C8C;stroke-width:8;stroke-miterlimit:10;}
	.st41{fill:#8C8C8C;stroke:#8C8C8C;stroke-width:7;stroke-miterlimit:10;}
	.st42{fill:#DBDBDB;stroke:#8C8C8C;stroke-width:7;stroke-miterlimit:10;}
	.st43{fill:none;stroke:#8C8C8C;stroke-width:5;stroke-miterlimit:10;}
	.st44{fill:none;stroke:#8C8C8C;stroke-width:3;stroke-miterlimit:10;}
	.st45{clip-path:url(#SVGID_2_);fill:#8C8C8C;}
	.st46{clip-path:url(#SVGID_2_);fill:none;stroke:#8C8C8C;stroke-width:8;stroke-miterlimit:10;}
	.st47{clip-path:url(#SVGID_2_);fill:#FFFFFF;}
	.st48{clip-path:url(#SVGID_2_);fill:#EAEAEA;}
	.st49{clip-path:url(#SVGID_2_);fill:none;stroke:#8C8C8C;stroke-miterlimit:10;}
	.st50{fill:none;stroke:#FFFFFF;stroke-width:0.75;stroke-miterlimit:10;}
	.st51{fill:none;stroke:#8C8C8C;stroke-width:14;stroke-miterlimit:10;}
	.st52{fill:none;stroke:#EAEAEA;stroke-width:2;stroke-miterlimit:10;}
	.st53{fill:none;stroke:#8C8C8C;stroke-width:2;stroke-miterlimit:10;}
</style>
    <rect class="st0" height="500" width="500" x="1" y="2"/>
    <g>
	<path class="st1" d="M174.1,312c-4.6-0.7-9.2-1.1-13.7-2c-8-1.6-15.8-4-22.6-8.7c-3.8-2.6-7-5.8-8.8-10.3c-1.1-2.8-1.3-5.7-0.4-8.4
		c1.5-4.1,3.3-8,6.6-10.9c21.6-18.9,43.2-37.9,64.8-56.8c2.7-2.3,5.3-4.7,8-7.1c-2.5-4-4.8-7.9-7.3-11.7
		c-23.8-38.2-47.6-76.4-71.3-114.6c-0.7-1.1-1.5-2.5-1.3-3.6c0.2-1.2,1.2-2.6,2.3-3.4c1.5-1,3.1-0.3,4.4,0.8c4,3.5,7.9,7,11.9,10.4
		c32.8,28.7,65.6,57.5,98.3,86.2c0.5,0.5,1.1,0.9,1.8,1.5c0.6-0.5,1.3-1,1.9-1.5c34.1-29.9,68.2-59.9,102.4-89.8
		c2.4-2.1,4.8-4.2,7.2-6.3c3.1-2.7,5.3-2.5,7.6,0.9c0,0.8,0,1.5,0,2.3c-26.7,42.8-53.3,85.6-80,128.5c0.7,0.6,1.3,1.2,1.8,1.7
		c23.9,21,47.8,42,71.7,63c0.8,0.7,1.6,1.5,2.1,2.4c1.5,2.9,2.9,5.9,4.4,8.9c0,1.7,0,3.4,0,5.1c-1.5,2.7-2.5,5.8-4.5,7.9
		c-2.8,2.9-6.2,5.4-9.8,7.3c-6.5,3.6-13.6,5.4-21,6.5c-3.6,0.6-7.2,1-10.8,1.5c-5,0-9.9,0-14.9,0c-2.5-0.3-5-0.6-7.6-0.9
		c-9-1.1-17.6-3.4-25.6-7.7c-5.4-2.9-9.5-7-12.4-12.7c-3.5-6.9-8.1-13.2-12.2-19.7c-0.1-0.1-0.3-0.1-0.6-0.2
		c-4.1,6.7-8.6,13.2-12.3,20.1c-2.3,4.4-5.2,8-9.3,10.7c-6.8,4.5-14.5,7-22.4,8.5c-4.5,0.9-9.2,1.3-13.8,2
		C184,312,179,312,174.1,312z M343.5,100.3c-0.1-0.1-0.2-0.3-0.4-0.4C281.4,154,219.6,208.2,157.5,262.7c0.9,0,1.2,0.1,1.5,0
		c11-2.3,22.1-2.8,33.3-1.8c9.8,0.9,19.3,3,28.2,7.3c4.8,2.3,8.9,5.5,12.4,9.9C269.8,218.7,306.7,159.5,343.5,100.3z M312,304.1
		c10.2-0.1,19.7-1.1,28.9-4.2c5.4-1.8,10.6-3.9,14.6-8.2c3.5-3.7,3.6-7.6-0.1-11c-2.6-2.3-5.5-4.4-8.5-5.8
		c-8.8-4.2-18.2-5.9-27.9-6.4c-13.6-0.7-27,0.3-39.6,5.8c-3.7,1.6-7.2,4-10.1,6.7c-3.4,3.2-3.3,6.9,0,10.2c2.5,2.4,5.5,4.6,8.6,6.1
		C288.8,302.7,300.6,304,312,304.1z M181.4,304.1c12.2-0.1,24.2-1.5,35.3-6.9c3.2-1.6,6.2-3.9,8.7-6.4c2.8-2.8,2.8-6.4,0-9.2
		c-2.7-2.7-5.8-5.3-9.3-6.7c-20.8-8.6-42-8.6-63.4-2.2c-5.3,1.6-10.2,4-14.1,8.1c-3.1,3.3-3.6,7-0.3,10.1c2.7,2.6,5.9,5,9.4,6.6
		C158.2,302.7,169.7,304,181.4,304.1z M261.3,278.1c4.2-5.4,9.3-8.8,15.1-11.2c13.9-5.7,28.5-7.1,43.3-6.2
		c5.5,0.3,10.9,1.2,16.8,1.9c-18.3-16.1-36.5-32-54.7-48c-0.3,0.4-0.5,0.6-0.6,0.8c-9.6,15.4-19.2,30.7-28.7,46.2
		c-0.3,0.5-0.4,1.6-0.1,2.1C255.3,268.5,258.2,273.2,261.3,278.1z M151,99.9c-0.1,0.1-0.3,0.2-0.4,0.3c21.2,34,42.3,68,63.6,102.2
		c9.1-8,17.9-15.7,26.8-23.5C210.9,152.5,180.9,126.2,151,99.9z"/>
</g>
    <g>
	<rect class="st24" height="144" width="500" x="-3" y="363"/>
        <text class="st23 st30 st31" transform="matrix(1 0 0 1 76.146 401.5557)">Jeux de lumière</text>
</g>
</svg>
