<?xml version="1.0" encoding="utf-8"?>
<!-- Generator: Adobe Illustrator 22.1.0, SVG Export Plug-In . SVG Version: 6.00 Build 0)  -->
<svg style="enable-background:new 0 0 500 500;" id="Calque_1" version="1.1" viewBox="0 0 500 500" x="0px"
     xmlns="http://www.w3.org/2000/svg" y="0px" xml:space="preserve">
<style type="text/css">
	.st0{fill:#EAEAEA;}
	.st1{fill:#8C8C8C;}
	.st2{fill:#FFFFFF;}
	.st3{fill:#EAEAEA;stroke:#8C8C8C;stroke-width:7;stroke-miterlimit:10;}
	.st4{fill:#070707;}
	.st5{fill:none;}
	.st6{fill:#6B6B6B;}
	.st7{font-family:'HelveticaNeue-CondensedBold';}
	.st8{font-size:54px;}
	.st9{fill:none;stroke:#8C8C8C;stroke-width:7;stroke-miterlimit:10;}
	.st10{fill:none;stroke:#8C8C8C;stroke-width:10;stroke-miterlimit:10;}
	.st11{fill:#8C8C8C;stroke:#8C8C8C;stroke-width:3;stroke-miterlimit:10;}
	.st12{fill:none;stroke:#8C8C8C;stroke-width:8;stroke-miterlimit:10;}
	.st13{fill:none;stroke:#8E8E8E;stroke-width:6;stroke-miterlimit:10;}
	.st14{fill:#8E8E8E;}
	.st15{fill:#505050;}
	.st16{fill:none;stroke:#8E8E8E;stroke-width:2;stroke-miterlimit:10;}
	.st17{fill:#8C8C8C;stroke:#8C8C8C;stroke-width:2;stroke-miterlimit:10;}
	.st18{fill:#8C8C8C;stroke:#FFFFFF;stroke-width:2;stroke-miterlimit:10;}
	.st19{fill:none;stroke:#FFFFFF;stroke-width:2;stroke-miterlimit:10;}
	.st20{fill:none;stroke:#8C8C8C;stroke-miterlimit:10;}
	.st21{fill:none;stroke:#8C8C8C;stroke-width:13;stroke-miterlimit:10;}
	.st22{fill:#EAEAEA;stroke:#8C8C8C;stroke-width:8;stroke-miterlimit:10;}
	.st23{fill:none;stroke:#8C8C8C;stroke-width:4;stroke-miterlimit:10;}
	.st24{fill:#8C8C8C;stroke:#8C8C8C;stroke-width:0.75;stroke-miterlimit:10;}
	.st25{fill:none;stroke:#8C8C8C;stroke-width:9;stroke-miterlimit:10;}
	.st26{fill:#8C8C8C;stroke:#8C8C8C;stroke-width:0.5;stroke-miterlimit:10;}
	.st27{stroke:#8C8C8C;stroke-width:8;stroke-miterlimit:10;}
	.st28{fill:#8C8C8C;stroke:#8C8C8C;stroke-miterlimit:10;}
	.st29{fill:none;stroke:#8C8C8C;stroke-width:11;stroke-miterlimit:10;}
	.st30{fill:none;stroke:#8C8C8C;stroke-width:6;stroke-miterlimit:10;}
	.st31{stroke:#8C8C8C;stroke-width:6;stroke-miterlimit:10;}
	.st32{fill:#8C8C8C;stroke:#8C8C8C;stroke-width:4;stroke-miterlimit:10;}
	.st33{fill:#8C8C8C;stroke:#8C8C8C;stroke-width:1.05;stroke-miterlimit:10;}
	.st34{fill:#D6D6D6;}
	.st35{fill:none;stroke:#EAEAEA;stroke-width:5;stroke-miterlimit:10;}
	.st36{fill:#8C8C8C;stroke:#8C8C8C;stroke-width:10;stroke-miterlimit:10;}
	.st37{fill:none;stroke:#CECECE;stroke-width:2;stroke-miterlimit:10;}
	.st38{fill:none;stroke:#FFFFFF;stroke-width:4;stroke-miterlimit:10;}
	.st39{fill-rule:evenodd;clip-rule:evenodd;fill:#8C8C8C;}
	.st40{fill:#8C8C8C;stroke:#8C8C8C;stroke-width:8;stroke-miterlimit:10;}
	.st41{fill:#8C8C8C;stroke:#8C8C8C;stroke-width:7;stroke-miterlimit:10;}
	.st42{fill:#DBDBDB;stroke:#8C8C8C;stroke-width:7;stroke-miterlimit:10;}
	.st43{fill:none;stroke:#8C8C8C;stroke-width:5;stroke-miterlimit:10;}
	.st44{fill:none;stroke:#8C8C8C;stroke-width:3;stroke-miterlimit:10;}
	.st45{clip-path:url(#SVGID_2_);fill:#8C8C8C;}
	.st46{clip-path:url(#SVGID_2_);fill:none;stroke:#8C8C8C;stroke-width:8;stroke-miterlimit:10;}
	.st47{clip-path:url(#SVGID_2_);fill:#FFFFFF;}
	.st48{clip-path:url(#SVGID_2_);fill:#EAEAEA;}
	.st49{clip-path:url(#SVGID_2_);fill:none;stroke:#8C8C8C;stroke-miterlimit:10;}
	.st50{fill:none;stroke:#FFFFFF;stroke-width:0.75;stroke-miterlimit:10;}
	.st51{fill:none;stroke:#8C8C8C;stroke-width:14;stroke-miterlimit:10;}
	.st52{fill:none;stroke:#EAEAEA;stroke-width:2;stroke-miterlimit:10;}
	.st53{fill:none;stroke:#8C8C8C;stroke-width:2;stroke-miterlimit:10;}
</style>
    <rect class="st0" height="500" width="500" x="1"/>
    <g>
	<rect class="st5" height="144" width="500" x="-4" y="363"/>
        <text class="st6 st7 st8" transform="matrix(1 0 0 1 100.6343 401.5557)">Jeux &amp; jouets</text>
</g>
    <g>
	<path class="st1" d="M359.5,121.9L349,111.4c2.2-0.5,4.3-1.7,6.1-3.4c2.5-2.5,3.8-5.9,3.8-9.2c0-3.3-1.3-6.7-3.8-9.2
		c-2.5-2.5-5.9-3.8-9.2-3.8c-3.3,0-6.7,1.3-9.2,3.8c-1.7,1.7-2.9,3.9-3.4,6.1l-10.5-10.5c-1.1-1.1-2.6-1.7-4.1-1.7
		c-1.5,0-3,0.6-4.1,1.7l-15.4,15.4c-0.6,0.6-0.6,1.6,0,2.3l1.9,1.9c0.4,0.4,0.9,0.5,1.4,0.4c0.5-0.1,1-0.1,1.5-0.1
		c2,0,4,0.8,5.5,2.3c1.5,1.5,2.3,3.5,2.3,5.5c0,2-0.8,4-2.3,5.5c-1.5,1.5-3.5,2.3-5.5,2.3c-2,0-4-0.8-5.5-2.3
		c-1.5-1.5-2.3-3.5-2.3-5.5c0-0.5,0-1,0.1-1.5c0.1-0.5-0.1-1.1-0.4-1.4l-1.9-1.9c-0.6-0.6-1.6-0.6-2.3,0l-15.4,15.4
		c-1.1,1.1-1.7,2.6-1.7,4.1c0,1.5,0.6,3,1.7,4.1l10.5,10.5c-2.2,0.5-4.3,1.7-6.1,3.4c-2.5,2.5-3.8,5.9-3.8,9.2
		c0,3.3,1.3,6.7,3.8,9.2c2.5,2.5,5.9,3.8,9.2,3.8c3.3,0,6.7-1.3,9.2-3.8c1.7-1.7,2.9-3.9,3.4-6.1l10.5,10.5c1.1,1.1,2.6,1.7,4.1,1.7
		c1.5,0,3-0.6,4.1-1.7l15.4-15.4c0.6-0.6,0.6-1.6,0-2.3l-1.9-1.9c-0.4-0.4-0.9-0.5-1.4-0.4c-0.5,0.1-1,0.1-1.5,0.1
		c-2,0-4-0.8-5.5-2.3c-1.5-1.5-2.3-3.5-2.3-5.5c0-2,0.8-4,2.3-5.5c1.5-1.5,3.5-2.3,5.5-2.3c2,0,4,0.8,5.5,2.3
		c1.5,1.5,2.3,3.5,2.3,5.5c0,0.5-0.1,1-0.1,1.5c-0.1,0.5,0.1,1.1,0.4,1.4l1.9,1.9c0.3,0.3,0.7,0.5,1.1,0.5c0.4,0,0.8-0.2,1.1-0.5
		l15.4-15.4c1.1-1.1,1.7-2.6,1.7-4.1C361.1,124.5,360.6,123,359.5,121.9"/>
        <path class="st1" d="M174.8,126.7c0,5.6,7,9.8,16.3,9.8c9.3,0,16.3-4.2,16.3-9.8c0-5.6-7-9.8-16.3-9.8
		C181.8,116.9,174.8,121.1,174.8,126.7 M191.1,123.4c6.3,0,9.8,2.4,9.8,3.3c0,0.8-3.5,3.3-9.8,3.3c-6.3,0-9.8-2.4-9.8-3.3
		C181.3,125.9,184.8,123.4,191.1,123.4"/>
        <path class="st1" d="M236.6,208c0,5.6,7,9.8,16.3,9.8c9.3,0,16.3-4.2,16.3-9.8s-7-9.8-16.3-9.8C243.6,198.2,236.6,202.4,236.6,208
		 M262.6,208c0,0.8-3.5,3.3-9.8,3.3c-6.3,0-9.8-2.4-9.8-3.3c0-0.8,3.5-3.3,9.8-3.3C259.1,204.7,262.6,207.1,262.6,208"/>
        <path class="st1" d="M317.8,204.7c0-0.2-0.1-0.5-0.1-0.7c0.5-1.6-0.3-3.3-1.8-3.9l-18.1-7.6c-1.7-4.3-7.9-7.3-15.7-7.3
		c-2.3,0,0.9,1.1-13.3-4.9c-1-4.1-6-7.2-12.7-7.9c0-53.3,0.1-50.9-0.3-51.8c-0.3-0.8-0.9-1.4-1.7-1.7c-0.6-0.3,0,0-18.1-7.6
		c-1.7-4.3-7.9-7.3-15.7-7.3c-2.3,0,0.9,1.1-13.3-4.9c-2.8-10.8-29.2-10.8-32,0c-14.1,5.9-10.9,4.9-13.3,4.9c-7.8,0-14,3-15.7,7.3
		c-9.1,3.8-18.5,7.8-18.1,7.6c-0.7,0.3-1.3,0.8-1.6,1.5c-0.6,1.1-0.4-6.4-0.4,110.3c0,1.3,0.8,2.5,2,3
		C258.4,288.6,251.4,286,252.8,286c1.1,0-3,1.5,63-26.3c0.6-0.2,1.1-0.7,1.4-1.2C318.1,257.3,317.8,261.2,317.8,204.7 M256.1,231.3
		l55.3-23.3v46.6l-55.3,23.3V231.3z M291.8,194.9c0,0.8-3.5,3.3-9.8,3.3s-9.8-2.4-9.8-3.3c0-0.8,3.5-3.3,9.8-3.3
		S291.8,194.1,291.8,194.9 M236.8,180.3c-14.1,5.9-10.9,4.9-13.3,4.9c-7.8,0-14,3-15.7,7.3l-13.5,5.7V150l55.3-23.3v45.6
		C242.8,173.1,237.9,176.2,236.8,180.3 M223.6,191.7c6.3,0,9.8,2.4,9.8,3.3c0,0.8-3.5,3.3-9.8,3.3c-6.3,0-9.8-2.4-9.8-3.3
		C213.8,194.1,217.3,191.7,223.6,191.7 M132.5,126.7l55.3,23.3v48.2l-55.3-23.3V126.7z M262.6,181.9c0,0.8-3.5,3.3-9.8,3.3
		c-6.3,0-9.8-2.4-9.8-3.3c0-0.8,3.5-3.3,9.8-3.3C259.1,178.7,262.6,181.1,262.6,181.9 M230.1,113.7c0,0.8-3.5,3.3-9.8,3.3
		c-6.3,0-9.8-2.4-9.8-3.3c0-0.8,3.5-3.3,9.8-3.3C226.6,110.4,230.1,112.9,230.1,113.7 M191.1,97.4c6.3,0,9.8,2.4,9.8,3.3
		c0,0.8-3.5,3.3-9.8,3.3c-6.3,0-9.8-2.4-9.8-3.3C181.3,99.9,184.8,97.4,191.1,97.4 M161.8,110.4c6.3,0,9.8,2.4,9.8,3.3
		c0,0.8-3.5,3.3-9.8,3.3c-6.3,0-9.8-2.4-9.8-3.3C152,112.9,155.5,110.4,161.8,110.4 M132.5,182l57.3,24.1l59.8,25.2v46.6l-117-49.3
		V182z"/>
        <path class="st0"
              d="M261.6,207c0,0.8-3.5,3.3-9.8,3.3s-9.8-2.4-9.8-3.3c0-0.8,3.5-3.3,9.8-3.3S261.6,206.1,261.6,207"/>
        <path class="st0" d="M200.8,126.7c0,0.8-3.5,3.3-9.8,3.3c-6.3,0-9.8-2.4-9.8-3.3c0-0.8,3.5-3.3,9.8-3.3
		C197.3,123.5,200.8,125.9,200.8,126.7"/>
</g>
</svg>
