<svg id="Calque_1" data-name="Calque 1" xmlns="http://www.w3.org/2000/svg" viewBox="0 0 350 300"><defs><style>.cls-1{fill:none;stroke:#000;stroke-miterlimit:10;stroke-width:5px;}</style></defs><title>selected</title><path class="cls-1" d="M284.46,71.87,274,61.36A12.86,12.86,0,0,0,280.05,58a13,13,0,1,0-21.87-12.36l-10.5-10.5a5.76,5.76,0,0,0-8.15,0L224.09,50.53a1.6,1.6,0,0,0,0,2.27l1.85,1.85a1.61,1.61,0,0,0,1.44.44,7.76,7.76,0,1,1-6.24,7.61,7.58,7.58,0,0,1,.15-1.51,1.64,1.64,0,0,0-.44-1.45L219,57.89a1.6,1.6,0,0,0-2.27,0L201.29,73.34a5.75,5.75,0,0,0,0,8.14L211.79,92a12.86,12.86,0,0,0-6.09,3.41,13,13,0,0,0,18.45,18.45,12.86,12.86,0,0,0,3.41-6.09l10.5,10.5a5.76,5.76,0,0,0,8.15,0l15.45-15.44a1.62,1.62,0,0,0,0-2.27l-1.85-1.85a1.64,1.64,0,0,0-1.45-.44,7.58,7.58,0,0,1-1.51.15,7.76,7.76,0,1,1,7.61-6.24,1.6,1.6,0,0,0,.44,1.44l1.85,1.85a1.61,1.61,0,0,0,1.13.47,1.59,1.59,0,0,0,1.13-.47L284.46,80a5.77,5.77,0,0,0,0-8.14"/><path class="cls-1" d="M99.8,76.67c0,5.56,7,9.76,16.25,9.76s16.26-4.2,16.26-9.76-7-9.75-16.26-9.75S99.8,71.12,99.8,76.67m16.25-3.25c6.3,0,9.75,2.44,9.75,3.25s-3.45,3.26-9.75,3.26-9.75-2.45-9.75-3.26,3.46-3.25,9.75-3.25"/><path class="cls-1" d="M161.57,158c0,5.56,7,9.76,16.25,9.76s16.26-4.2,16.26-9.76-7-9.75-16.26-9.75-16.25,4.19-16.25,9.75m26,0c0,.81-3.46,3.25-9.76,3.25s-9.75-2.44-9.75-3.25,3.46-3.25,9.75-3.25,9.76,2.44,9.76,3.25"/><path class="cls-1" d="M242.85,154.7a3,3,0,0,0-.14-.67,3.26,3.26,0,0,0-1.85-3.91l-18.05-7.61c-1.73-4.3-7.89-7.31-15.73-7.31-2.32,0,.87,1.07-13.26-4.88-1-4.09-6-7.19-12.75-7.94,0-53.32.13-50.91-.25-51.81a3.34,3.34,0,0,0-1.71-1.72L161,61.22c-1.72-4.29-7.88-7.3-15.72-7.3-2.32,0,.87,1.08-13.26-4.88-2.79-10.83-29.2-10.85-32,0C86,55,89.12,53.92,86.79,53.92c-7.84,0-14,3-15.72,7.3C62,65.05,52.54,69,53,68.85a3.08,3.08,0,0,0-1.58,1.54C50.84,71.5,51,64,51,180.71a3.25,3.25,0,0,0,2,3C183.4,238.6,176.38,236,177.82,236c1.1,0-3,1.53,63-26.26a2.58,2.58,0,0,0,1.4-1.24c.81-1.22.59,2.69.59-53.78m-61.78,26.58L236.34,158v46.56l-55.27,23.27ZM216.84,145c0,.81-3.46,3.25-9.76,3.25s-9.75-2.44-9.75-3.25,3.46-3.25,9.75-3.25,9.76,2.44,9.76,3.25m-55-14.63c-14.1,5.94-10.93,4.88-13.26,4.88-7.84,0-14,3-15.72,7.3l-13.54,5.7V100l55.27-23.27v45.65c-6.73.75-11.7,3.85-12.75,7.94M148.56,141.7c6.3,0,9.76,2.44,9.76,3.25s-3.46,3.25-9.76,3.25-9.75-2.44-9.75-3.25,3.46-3.25,9.75-3.25m-91-65L112.8,100v48.2L57.53,124.94Zm130.05,55.21c0,.81-3.46,3.26-9.76,3.26s-9.75-2.45-9.75-3.26,3.46-3.25,9.75-3.25,9.76,2.44,9.76,3.25M155.06,63.67c0,.81-3.45,3.25-9.75,3.25s-9.75-2.44-9.75-3.25,3.46-3.25,9.75-3.25,9.75,2.44,9.75,3.25m-39-16.26c6.3,0,9.76,2.45,9.76,3.26s-3.46,3.25-9.76,3.25-9.75-2.45-9.75-3.25,3.46-3.26,9.75-3.26m-29.26,13c6.3,0,9.76,2.44,9.76,3.25s-3.46,3.25-9.76,3.25S77,64.48,77,63.67s3.46-3.25,9.75-3.25M57.53,132l57.25,24.1,59.79,25.18v46.55l-117-49.28Z"/><path class="cls-1" d="M186.62,157c0,.81-3.46,3.25-9.75,3.25s-9.75-2.44-9.75-3.25,3.46-3.25,9.75-3.25,9.75,2.44,9.75,3.25"/><path class="cls-1" d="M125.81,76.73c0,.81-3.46,3.25-9.76,3.25s-9.75-2.44-9.75-3.25,3.46-3.25,9.75-3.25,9.76,2.44,9.76,3.25"/></svg>