<svg id="Calque_1" data-name="Calque 1" xmlns="http://www.w3.org/2000/svg" viewBox="0 0 350 300"><title>selected</title><path d="M276.53,22.36l-9.18,14.75-1.13-1.23-.32-.34-.06-.06-1.92-2.08L273.56,25l2.81-2.45.16-.14m-220.9.07,1.12,1,5.81,5.12q3,2.58,5.9,5.17L66.82,35l-.21.17-.21.17-1.8,1.46-9-14.41m110.71,180.8a6.75,6.75,0,0,0,.53,1.61l-1.3-.37.77-1.24m-95.28,3.51-.91.27a46.2,46.2,0,0,0-7.43,3l3.67-3.22h4.67m192.77.9,3.32.38,2.79,2.46c-.64-.36-1.28-.7-1.93-1q-2-1-4.18-1.83M51.11,13a2.69,2.69,0,0,0-1.55.5,5.82,5.82,0,0,0-2.32,3.36c-.19,1.1.6,2.5,1.27,3.58Q84.14,77.74,119.84,135c2.41,3.87,4.79,7.76,7.26,11.75-2.73,2.43-5.38,4.8-8,7.14q-32.4,28.43-64.81,56.84c-3.37,3-5.17,6.89-6.63,10.94a11.64,11.64,0,0,0,.36,8.4,22.4,22.4,0,0,0,8.76,10.25c6.84,4.67,14.58,7.15,22.6,8.71,4.54.88,9.16,1.34,13.74,2H108c4.58-.65,9.2-1.12,13.75-2,8-1.51,15.6-3.95,22.43-8.49a28.12,28.12,0,0,0,9.29-10.71c3.69-7,8.19-13.46,12.32-20.12.32.09.54.08.59.18,4.13,6.55,8.72,12.86,12.2,19.74a28.85,28.85,0,0,0,12.38,12.72c8,4.35,16.67,6.58,25.65,7.72l7.57.94H239c3.59-.48,7.19-.89,10.76-1.45,7.31-1.14,14.46-3,21-6.55a41.89,41.89,0,0,0,9.77-7.3c2.06-2.11,3.05-5.25,4.52-7.94v-5.11c-1.45-3-2.83-6-4.38-8.87a9.2,9.2,0,0,0-2.11-2.43q-35.83-31.5-71.72-63c-.58-.51-1.13-1-1.83-1.68L285,18.19V15.86c-1.26-1.88-2.49-2.8-3.85-2.8a6,6,0,0,0-3.74,1.86c-2.37,2.11-4.78,4.18-7.17,6.27L167.91,111c-.61.54-1.27,1-1.91,1.54-.73-.61-1.27-1-1.79-1.5L65.86,24.78c-4-3.48-7.89-7-11.85-10.44A4.6,4.6,0,0,0,51.11,13ZM77.67,201.76l-1.17,0L262.17,38.87c.12.14.25.27.37.4L151.82,217.09a34.26,34.26,0,0,0-12.35-9.9,81.24,81.24,0,0,0-28.18-7.25c-3.62-.32-7.23-.49-10.84-.49A109.59,109.59,0,0,0,78,201.73a1.31,1.31,0,0,1-.35,0Zm55.51-60.29L69.55,39.27l.42-.35,90.05,79-26.84,23.55Zm47.13,75.67c-3.09-5-6.06-9.68-8.92-14.45a2.4,2.4,0,0,1,.11-2.07q14.3-23.12,28.69-46.15c.12-.2.27-.38.59-.8l54.67,48c-5.88-.68-11.31-1.55-16.76-1.89-2.75-.17-5.49-.27-8.22-.27-12,0-23.75,1.78-35.07,6.47a35.19,35.19,0,0,0-15.09,11.2Zm-79.94,26c-11.65-.18-23.18-1.41-33.87-6.51A36,36,0,0,1,57.14,230c-3.22-3.12-2.79-6.78.34-10.07,3.9-4.12,8.83-6.54,14.12-8.14a101.71,101.71,0,0,1,29.53-4.59A88,88,0,0,1,135,214a30.51,30.51,0,0,1,9.29,6.69c2.84,2.79,2.83,6.31,0,9.16a32.68,32.68,0,0,1-8.66,6.41c-11.07,5.44-23,6.78-35.26,6.91Zm130.6,0c-11.4-.13-23.14-1.47-34.05-6.66a32.41,32.41,0,0,1-8.64-6.07c-3.36-3.29-3.43-7,0-10.24a36.45,36.45,0,0,1,10.1-6.75c10.35-4.49,21.22-6,32.29-6,2.43,0,4.86.08,7.3.21,9.65.52,19.11,2.15,27.87,6.39a37.25,37.25,0,0,1,8.55,5.85c3.74,3.35,3.64,7.27.13,11-4,4.23-9.25,6.38-14.64,8.17-9.2,3.07-18.71,4.08-28.9,4.16Z"/></svg>