<?xml version="1.0" encoding="utf-8"?>
<!-- Generator: Adobe Illustrator 22.1.0, SVG Export Plug-In . SVG Version: 6.00 Build 0)  -->
<svg style="enable-background:new 0 0 500 500;" id="Calque_1" version="1.1" viewBox="0 0 500 500" x="0px"
     xmlns="http://www.w3.org/2000/svg" y="0px" xml:space="preserve">
<style type="text/css">
	.st0{fill:#EAEAEA;}
	.st1{fill:#8C8C8C;}
	.st2{fill:#FFFFFF;}
	.st3{fill:#EAEAEA;stroke:#8C8C8C;stroke-width:7;stroke-miterlimit:10;}
	.st4{fill:#070707;}
	.st5{fill:none;stroke:#8C8C8C;stroke-width:7;stroke-miterlimit:10;}
	.st6{fill:none;stroke:#8C8C8C;stroke-width:10;stroke-miterlimit:10;}
	.st7{fill:#8C8C8C;stroke:#8C8C8C;stroke-width:3;stroke-miterlimit:10;}
	.st8{fill:none;stroke:#8C8C8C;stroke-width:8;stroke-miterlimit:10;}
	.st9{fill:none;stroke:#8E8E8E;stroke-width:6;stroke-miterlimit:10;}
	.st10{fill:#8E8E8E;}
	.st11{fill:#505050;}
	.st12{fill:none;stroke:#8E8E8E;stroke-width:2;stroke-miterlimit:10;}
	.st13{fill:#8C8C8C;stroke:#8C8C8C;stroke-width:2;stroke-miterlimit:10;}
	.st14{fill:#8C8C8C;stroke:#FFFFFF;stroke-width:2;stroke-miterlimit:10;}
	.st15{fill:none;stroke:#FFFFFF;stroke-width:2;stroke-miterlimit:10;}
	.st16{fill:none;stroke:#8C8C8C;stroke-miterlimit:10;}
	.st17{fill:none;stroke:#8C8C8C;stroke-width:13;stroke-miterlimit:10;}
	.st18{fill:#EAEAEA;stroke:#8C8C8C;stroke-width:8;stroke-miterlimit:10;}
	.st19{fill:none;stroke:#8C8C8C;stroke-width:4;stroke-miterlimit:10;}
	.st20{fill:#8C8C8C;stroke:#8C8C8C;stroke-width:0.75;stroke-miterlimit:10;}
	.st21{fill:none;stroke:#8C8C8C;stroke-width:9;stroke-miterlimit:10;}
	.st22{fill:#8C8C8C;stroke:#8C8C8C;stroke-width:0.5;stroke-miterlimit:10;}
	.st23{fill:#6B6B6B;}
	.st24{fill:none;}
	.st25{stroke:#8C8C8C;stroke-width:8;stroke-miterlimit:10;}
	.st26{fill:#8C8C8C;stroke:#8C8C8C;stroke-miterlimit:10;}
	.st27{fill:none;stroke:#8C8C8C;stroke-width:11;stroke-miterlimit:10;}
	.st28{fill:none;stroke:#8C8C8C;stroke-width:6;stroke-miterlimit:10;}
	.st29{stroke:#8C8C8C;stroke-width:6;stroke-miterlimit:10;}
	.st30{fill:#8C8C8C;stroke:#8C8C8C;stroke-width:4;stroke-miterlimit:10;}
	.st31{fill:#8C8C8C;stroke:#8C8C8C;stroke-width:1.05;stroke-miterlimit:10;}
	.st32{fill:#D6D6D6;}
	.st33{fill:none;stroke:#EAEAEA;stroke-width:5;stroke-miterlimit:10;}
	.st34{fill:#8C8C8C;stroke:#8C8C8C;stroke-width:10;stroke-miterlimit:10;}
	.st35{fill:none;stroke:#CECECE;stroke-width:2;stroke-miterlimit:10;}
	.st36{fill:none;stroke:#FFFFFF;stroke-width:4;stroke-miterlimit:10;}
	.st37{fill-rule:evenodd;clip-rule:evenodd;fill:#8C8C8C;}
	.st38{fill:#8C8C8C;stroke:#8C8C8C;stroke-width:8;stroke-miterlimit:10;}
	.st39{fill:#8C8C8C;stroke:#8C8C8C;stroke-width:7;stroke-miterlimit:10;}
	.st40{fill:#DBDBDB;stroke:#8C8C8C;stroke-width:7;stroke-miterlimit:10;}
	.st41{font-family:'HelveticaNeue-CondensedBold';}
	.st42{font-size:54px;}
	.st43{fill:none;stroke:#8C8C8C;stroke-width:5;stroke-miterlimit:10;}
	.st44{fill:none;stroke:#8C8C8C;stroke-width:3;stroke-miterlimit:10;}
	.st45{clip-path:url(#SVGID_2_);fill:#8C8C8C;}
	.st46{clip-path:url(#SVGID_2_);fill:none;stroke:#8C8C8C;stroke-width:8;stroke-miterlimit:10;}
	.st47{clip-path:url(#SVGID_2_);fill:#FFFFFF;}
	.st48{clip-path:url(#SVGID_2_);fill:#EAEAEA;}
	.st49{clip-path:url(#SVGID_2_);fill:none;stroke:#8C8C8C;stroke-miterlimit:10;}
	.st50{fill:none;stroke:#FFFFFF;stroke-width:0.75;stroke-miterlimit:10;}
	.st51{fill:none;stroke:#8C8C8C;stroke-width:14;stroke-miterlimit:10;}
	.st52{fill:none;stroke:#EAEAEA;stroke-width:2;stroke-miterlimit:10;}
	.st53{fill:none;stroke:#8C8C8C;stroke-width:2;stroke-miterlimit:10;}
</style>
    <rect class="st0" height="500" width="500" x="1" y="1"/>
    <g>
	<rect class="st24" height="144" width="500" x="-3" y="362"/>
        <text class="st23 st41 st42" transform="matrix(1 0 0 1 57.6787 400.5557)">Kit de ramonange</text>
</g>
    <g id="_x31_w5nsj_1_">
	<g>
		<path class="st1" d="M143.6,104.6c3.5-2.1,6.9-4.3,10.5-6.2c1.1-0.6,2.7-0.2,4-0.2c-0.6,1.3-0.8,3.2-1.8,3.9
			c-3.3,2.3-6.9,4.2-10.2,6.2c2.7,0.8,6.8,1.4,6.9,2.1c0.2,4.2-3.9,3-6.3,3.8c-4.7,1.5-9.6,2.4-15,3.6c3.6,6.1,6.8,11.4,10.4,17.4
			c4-4.5,7.4-8.7,11.3-12.5c1.4-1.4,3.6-2,5.5-3c-0.6,2-1.3,3.9-1.9,5.9c-0.1,0.3-0.2,0.6,0.2,2c3.3-1.9,6.4-4.1,9.8-5.7
			c1.4-0.7,3.2-0.4,4.9-0.6c-0.9,1.5-1.5,3.4-2.8,4.3c-2.9,2.1-6.1,3.8-10.3,6.3c1.8,0.3,2.3,0.4,2.9,0.5c1.8,0.4,3.6,0.9,5.5,1.3
			c-1.6,1.1-3.1,2.6-4.9,3.2c-5.4,1.6-10.8,2.7-17,4.2c1.5,2.5,2.5,4.2,3.5,5.8c12.7,21.3,25.4,42.6,38.2,63.9
			c1.5,2.6,2.7,4.8-1.8,6.3c-14.4-24.2-28.9-48.5-43.8-73.4c-3.9,4.4-7.2,8.3-10.8,11.9c-1.4,1.4-3.6,2.1-5.5,3.1
			c0.6-1.9,1.2-3.9,1.8-5.8c0.1-0.4,0.5-0.8,0.8-1.2c-0.3-0.3-0.7-0.6-1-0.9c-3.5,2.1-6.9,4.3-10.5,6.1c-1.2,0.6-3,0.3-4.5,0.5
			c0.7-1.4,1.1-3.4,2.2-4.2c3.2-2.3,6.7-4.1,10.3-6.3c-0.8-0.5-1-0.8-1.3-0.8c-2.1-0.4-4.1-0.7-6.2-1.1c1.9-1.2,3.6-3,5.7-3.6
			c4.7-1.4,9.6-2.3,15.1-3.5c-3.5-5.9-6.6-11.1-10.1-17c-3.4,3.8-6.5,7.3-9.6,10.8c-0.9,1-1.6,2.2-2.7,2.9c-1.1,0.6-2.5,0.7-3.8,1
			c0.2-1.3,0.2-2.7,0.6-3.9c0.4-1,1.3-1.8,2-2.7c-0.3-0.4-0.5-0.8-0.8-1.2c-3.3,1.9-6.4,4.1-9.8,5.7c-1.5,0.7-3.5,0.5-5.3,0.7
			c1-1.5,1.8-3.3,3.1-4.4c2.9-2.1,6.1-3.7,9.4-5.7c-0.9-0.6-1.1-0.9-1.4-0.9c-2-0.5-4-0.9-5.9-1.4c1.8-1.1,3.5-2.7,5.4-3.3
			c4.7-1.4,9.6-2.3,15.1-3.6c-3.1-5.3-6-10-9.2-15.5c-3.2,3.5-6.3,6.9-9.3,10.2c-1,1.1-1.8,2.5-3,3.3c-1.1,0.7-2.6,0.6-3.9,0.9
			c0.1-1.2-0.1-2.5,0.4-3.6c0.4-1.1,1.4-2,2.2-3c-0.3-0.3-0.5-0.7-0.8-1c-3.5,2.1-6.8,4.3-10.4,6.1c-1.2,0.6-3,0.3-4.5,0.4
			c0.7-1.4,1.1-3.4,2.3-4.2c3.2-2.3,6.7-4.1,10.3-6.3c-0.8-0.5-1.1-0.8-1.3-0.8c-2-0.4-4.1-0.7-6.2-1.1c1.9-1.2,3.6-3,5.6-3.6
			c4.7-1.4,9.6-2.3,14.9-3.5c-0.8-1.7-1.5-2.8-1.7-4c-0.2-1.4,0-2.9,0.1-4.4c1.3,0.7,2.8,1.3,3.9,2.2c0.9,0.7,1.4,1.8,2.6,3.5
			c3.5-3.9,6.8-7.5,10-11.2c0.7-0.7,1.2-1.7,2-2.2c1.5-0.8,3.2-1.4,4.9-2c-0.4,1.6-0.7,3.2-1.2,4.7c-0.2,0.6-0.7,1.1-0.5,2.8
			c2.4-1.4,4.7-2.8,7.1-4.2c1.4-0.8,2.8-1.9,4.4-2.3c1-0.3,2.3,0.6,3.4,0.9c-0.4,1-0.6,2.4-1.3,2.8c-3.6,2.3-7.3,4.5-11,6.7
			c0.6,0.7,0.7,1.1,1,1.1c2.1,0.4,4.2,0.7,6.3,1c-1.8,1.3-3.5,3.1-5.6,3.7c-5,1.5-10.3,2.5-15.9,3.9c3.3,5.5,6.2,10.4,9.6,16.1
			c3.9-4.3,7.4-8.2,10.9-12.1c0.8-0.9,1.4-2,2.4-2.5c1-0.6,2.3-0.6,3.5-0.8c0,1.2,0.3,2.5-0.1,3.6c-0.4,1.2-1.5,2.1-2.3,3.1
			C143.1,103.8,143.4,104.2,143.6,104.6z"/>
	</g>
</g>
    <rect class="st1" height="217" transform="matrix(0.866 0.5 -0.5 0.866 132.5649 -117.7465)" width="6" x="283"
          y="80"/>
    <rect class="st1" height="239" transform="matrix(0.8588 -0.5123 0.5123 0.8588 -71.7615 113.6784)" width="5.5" x="167.6"
          y="67.5"/>
    <path class="st1" d="M353.7,252.1c3.8-7.3,9.4-13.2,4.3-21.5c-0.7-1.1-1.2-2.5-1.3-3.7c-0.1-1.1,0.5-2.3,0.8-3.5
	c1.1,0.6,2.7,1,3.3,2c1.1,1.6,1.6,3.6,2.8,6.6c1.6-3,2.5-5,3.7-6.8c0.6-0.9,2-1.3,3.1-1.9c0.3,1.3,1,2.7,0.8,3.9
	c-0.4,1.7-1.2,3.5-2.3,5c-5.3,7.1-0.6,13,2.7,19.4c3.7-7.6,7.3-15.2,11.2-22.6c1.1-2.2,1-6.1,5.2-5.5c-0.4,2.5-0.3,5.3-1.3,7.5
	c-3,6.7-5.7,13.6-9.7,19.7c-5.2,7.8-2.6,14.3,1.4,22.3c3.7-7.5,7.1-14.2,10.4-21c4-8.1,7.8-16.2,11.9-24.2c0.9-1.7,2.9-2.9,4.5-4.3
	c-0.1,2,0.3,4.4-0.5,6.1c-6.9,14.6-14.1,29.1-21.2,43.6c-0.8,1.7-1.6,3.5-2.6,5.7c1.8,0.2,2.9,0.4,4,0.5c5.8,0.4,8.7,3.1,8.7,8.1
	c0,5.2-3.2,8.1-9.2,8.1c-40,0-80,0-120,0c-11.2,0-22.3,0-33.5,0c-6.4,0-9.6-2.8-9.5-8.2c0.1-5.2,3.1-7.9,9.3-7.9c28.7,0,57.3,0,86,0
	c1.8,0,3.5,0,6.1,0c-1.7-5-3.1-9.3-4.6-13.4c-4.4-12.4-8.9-24.7-13.2-37.2c-0.5-1.6,0.1-3.5,0.2-5.3c1.4,1.3,3.5,2.3,4,3.9
	c4.9,13.3,9.6,26.6,14.3,39.9c0.6,1.7,1.4,3.3,2.3,5.5c4.8-7.6,8.8-14.1,4.1-23c-3.5-6.7-5.4-14.3-7.7-21.6
	c-0.4-1.4,0.5-3.2,0.7-4.8c1.2,1.1,2.9,2,3.4,3.4c3.1,8.2,6,16.5,9.4,26c3.9-7.8,9.5-13.6,4.7-22.1c-1.1-2-3.8-5.1,0-7.2
	c0.3-0.1,2.7,3.7,4.2,5.6c0.4,0.5,0.6,1.1,1.5,2.6c1.2-2.2,1.8-4,3-5.5c1-1.2,2.5-2,3.8-3c0.1,1.6,0.4,3.2,0.3,4.8
	c-0.1,0.9-0.6,1.9-1.2,2.7C346.5,238,350.1,244.6,353.7,252.1z M343.5,272.2c7.6-10.3,8-16.5,2-25.9
	C338.1,255,337.6,260.6,343.5,272.2z M362.8,246.2c-7.5,9.4-7.9,17.6-1.6,25.4C367.8,263.7,369.4,255.4,362.8,246.2z M375.2,279
	c-1.7-4.6-3.1-8.4-4.4-12.1c-0.4,0-0.9-0.1-1.3-0.1c-1.9,3.9-3.8,7.7-6,12.2C367.6,279,370.9,279,375.2,279z M346.1,278.9
	c4.3,0,7.6,0,11.6,0c-1.5-4.3-2.9-8.2-4.2-12.1c-0.5,0-1,0-1.4,0C350.2,270.6,348.3,274.4,346.1,278.9z M328.8,278.8
	c4.3,0,7.6,0,11.6,0c-1.6-4.5-3-8.4-4.3-12.3c-0.4,0-0.8,0.1-1.3,0.1C332.9,270.5,331,274.3,328.8,278.8z"/>
    <path class="st1" d="M226.8,115.7c-6.2,6.5-12.4,12.9-18.6,19.4c-2.3,2.4-4.6,4.9-7.1,7c-1,0.9-2.8,0.9-4.2,1.2
	c0.3-1.4,0.2-3.3,1.1-4.3c6.7-7,13.5-13.8,20.4-20.5c1.9-1.8,4.2-3.2,6.3-4.8c-0.3-0.6-0.7-1.3-1-1.9c-1.6-0.2-3.3-0.5-4.9-0.5
	c-10.5,0-21,0.1-31.5-0.1c-1.6,0-3.1-1.5-4.6-2.3c1.5-0.7,3-1.9,4.5-1.9c10.3-0.2,20.7-0.1,31-0.1c1.8,0,3.5-0.2,6.4-0.3
	c-1.6-1.9-2.4-3-3.4-4c-7.6-7.7-15.3-15.3-22.9-23.1c-1-1-1-3-1.5-4.6c1.5,0.5,3.5,0.5,4.5,1.5c7.3,7,14.4,14.3,21.6,21.5
	c1.4,1.4,2.9,2.7,5.2,4.9c0.2-2.8,0.5-4.4,0.5-6.1c0-9.8,0-19.7,0-29.5c0-1.2-0.2-2.4,0.1-3.5c0.5-1.5,1.4-2.9,2.1-4.4
	c0.8,1.4,2.2,2.8,2.2,4.3c0.2,10.8,0.1,21.7,0.1,32.5c0,1.8,0,3.6,0,6.9c2.5-2.1,3.9-3.3,5.2-4.6c7.3-7.3,14.6-14.7,22-21.8
	c1.1-1.1,3-1.2,4.6-1.8c-0.4,1.7-0.4,3.8-1.4,4.9c-7.1,7.4-14.5,14.7-21.8,22c-1.3,1.3-2.4,2.6-4.5,4.8c2.9,0.2,4.6,0.4,6.3,0.4
	c10.3,0,20.7-0.1,31,0.1c1.7,0,3.3,1.3,4.9,2.1c-1.6,0.8-3.2,2.2-4.8,2.2c-10.3,0.2-20.7,0.1-31,0.1c-1.7,0-3.5,0.2-6.6,0.4
	c2.6,2.7,4.3,4.5,6,6.2c7,7.1,14.2,14.1,21.1,21.3c0.9,0.9,0.7,2.8,1.1,4.2c-1.4-0.4-3.3-0.3-4.2-1.2c-7.8-7.5-15.4-15.2-23-22.9
	c-1.1-1.1-2.3-2.1-4.5-4c0,36.9,0,72.5,0,108c-0.7,0.1-1.3,0.2-2,0.3c-0.9-5-2.5-10-2.6-14.9c-0.2-28.8-0.1-57.6-0.1-86.5
	c0-1.8-0.2-3.6-0.3-5.3C227.9,116.3,227.3,116,226.8,115.7z"/>
    <rect class="st1" height="170" width="6" x="228" y="117"/>
    <circle class="st1" cx="231.5" cy="109.5" r="11.5"/>
    <path class="st1" d="M298.6,163.2c-7.8,0.1-14.5,0.2-21.3,0.3c-1.5,0-3.1,0.4-4.5,0c-1.2-0.3-2-1.6-3-2.5c1-0.7,2-1.9,3-1.9
	c6.1-0.3,12.2-0.4,18.3-0.6c0.2-0.5,0.3-0.9,0.5-1.4c-2.6-1.5-5.2-3.1-7.8-4.6c-4.7-2.8-9.5-5.5-14.1-8.5c-1.1-0.7-1.4-2.5-2-3.8
	c1.5,0,3.2-0.5,4.3,0.1c6.7,3.7,13.3,7.7,19.9,11.6c10.3,6.1,10.2,6.1,16.5-4.4c1.3-2.2,2.6-4.5,4.6-7.8c-7,0.1-12.5,0.1-18.1,0.2
	c-2.7,0-5.4,0.4-8,0.1c-1.1-0.1-2-1.6-3-2.4c1-0.7,2-1.9,3-1.9c6.1-0.4,12.2-0.4,18.7-1.8c-1.4-1-2.7-2-4.2-2.9
	c-6-3.6-12.1-7.1-18-10.8c-0.9-0.6-1.2-2.3-1.8-3.4c1.3-0.1,2.9-0.7,3.9-0.1c8.7,4.9,17.4,9.9,25.8,15.2c3.5,2.2,5.5,2,7.4-1.8
	c2.2-4.4,5-8.5,8.2-13.9c-7.3,0.1-13.4,0.2-19.4,0.3c-2.2,0-4.4,0.3-6.5,0c-1.2-0.2-2.1-1.4-3.2-2.2c1.1-0.8,2.2-2.1,3.3-2.2
	c6.1-0.4,12.2-0.4,18.3-0.5c0.1-0.4,0.3-0.8,0.4-1.2c-5-3-10.1-6-15.1-8.9c-2.3-1.4-4.8-2.5-6.8-4.2c-1.1-0.9-1.6-2.7-2.4-4.1
	c1.6,0.1,3.5-0.3,4.8,0.4c8.7,4.9,17.3,10.1,25.9,15.2c2,1.2,3.6,2.1,5.5-0.5c1.2-1.6,3.2-2.6,4.9-3.8c0.1,2,0.1,3.9,0.2,6.8
	c5.7-0.1,11.9-0.3,18.1-0.2c2.5,0.1,5,1.1,7.6,1.7c-1.1,4.5-4.9,2.4-7.5,2.7c-4.6,0.5-9.3,0.3-14.4,1.5c1.4,0.9,2.7,2,4.1,2.8
	c6.2,3.7,12.4,7.2,18.4,11c1.3,0.8,1.8,2.9,2.7,4.3c-1.6-0.1-3.5,0.3-4.8-0.5c-8.1-4.6-16.1-9.4-24.1-14.2c-1.6-0.9-3.1-1.8-5.1-3
	c-3.4,5.7-6.5,11.1-10.3,17.4c7.3-0.2,13.8-0.5,20.4-0.3c2.2,0,4.4,1.3,6.5,1.9c-2.2,0.9-4.3,2.3-6.6,2.5c-4.9,0.5-9.9,0.3-15.3,1.5
	c1.4,0.9,2.7,2,4.2,2.8c6.4,3.9,12.9,7.6,19.3,11.6c1,0.6,1.2,2.5,1.8,3.8c-1.3-0.1-2.9,0.4-4-0.2c-8.7-5-17.3-10-25.8-15.2
	c-3.2-2-5.2-1.9-7.1,1.7c-2.1,4.2-4.8,8.2-7.9,13.4c7.7-0.1,13.9-0.2,20.2-0.3c1.3,0,2.7-0.3,4,0.1c1.2,0.4,2.2,1.4,3.3,2.1
	c-1.1,0.8-2.1,2.2-3.2,2.2c-5,0.4-10,0.3-15,0.5c-1.1,0-2.2,0.2-3.8,1.4c4.3,2.6,8.6,5.1,13,7.7c3.6,2.1,7.2,4.1,10.7,6.5
	c1,0.7,1.3,2.3,2,3.4c-1.4,0.1-3.2,0.9-4.2,0.3c-8.6-4.8-17-9.9-25.5-14.9c-1.4-0.8-2.8-1.7-4.6-2.7c-1.6,2.5-3.1,4.5-4.3,6.6
	c-21.1,35.7-42.2,71.4-63.4,107.1c-1.2,2-3.5,3.2-5.3,4.8c0.5-2.3,0.5-5,1.7-7c20.9-35.6,42-71.2,63-106.8
	C296.4,167.6,297.2,165.8,298.6,163.2z"/>
</svg>
