<svg id="Calque_1" data-name="Calque 1" xmlns="http://www.w3.org/2000/svg" viewBox="0 0 350 300"><defs><style>.cls-1{fill:none;stroke:#000;stroke-miterlimit:10;stroke-width:5px;}</style></defs><title>selected</title><path class="cls-1" d="M53.09,155.47c4-60.24,48.12-101.95,68.85-118.38,5.71-4.52,16.52-8.29,23.8-8.62,37.18-1.69,59.84,3.92,72,8.7,6.78,2.67,5.72,5.51-1.45,6.8-13.12,2.35-35.07,10.27-61.28,35.46C142,92,130.43,108.34,120.81,124.63v67.23a4.58,4.58,0,0,1,2.32,3.94v26.68a5.9,5.9,0,0,0,5.89,5.9h97.13a5.9,5.9,0,0,0,5.89-5.9V195.8a4.58,4.58,0,0,1,2.33-3.94V159.11H239v32.75a4.56,4.56,0,0,1,2.32,3.94v26.68a15.21,15.21,0,0,1-15.19,15.2H129a15.21,15.21,0,0,1-15.18-15.2V195.8a4.58,4.58,0,0,1,2.32-3.94V132.77a438.83,438.83,0,0,0-21.76,45.5c-2.75,6.75-10.75,12.1-17.71,9.93C50.29,180,53.09,155.47,53.09,155.47"/><path class="cls-1" d="M250.5,155.18c-7.61,3-22.1,7.09-32.14,0-2.51-1.77-4.11-6.27-4.27-9.31-.92-16.7-5.21-67.5-24.33-100.74,0,0,36-22.31,62.84,14.86,24.74,34.19,19.47,70.53,6.53,88.61a23.12,23.12,0,0,1-8.63,6.55"/></svg>