<svg id="Calque_1" data-name="Calque 1" xmlns="http://www.w3.org/2000/svg" viewBox="0 0 350 300"><title>selected</title><path d="M333,184.29V203.5H5.39V184.29H333m4-4H1.39V207.5H337V180.29Z"/><path d="M282.44,67A50.62,50.62,0,0,1,333,117.57v54H307.94V147.36a51.2,51.2,0,0,0-51.15-51.14H81.6a51.2,51.2,0,0,0-51.14,51.14v24.25H5.39v-54A50.62,50.62,0,0,1,56,67H282.44m0-4H56A54.63,54.63,0,0,0,1.39,117.57v58H34.46V147.36A47.2,47.2,0,0,1,81.6,100.22H256.79a47.2,47.2,0,0,1,47.15,47.14v28.25H337v-58A54.62,54.62,0,0,0,282.44,63Z"/><path d="M255,123.12A20.06,20.06,0,0,1,275.2,143v24.06H58.65V143a20.06,20.06,0,0,1,20.18-19.88H255m0-4H78.83A24.06,24.06,0,0,0,54.65,143v28.06H279.2V143A24.06,24.06,0,0,0,255,119.12Z"/></svg>