<?xml version="1.0" encoding="utf-8"?>
<!-- Generator: Adobe Illustrator 22.1.0, SVG Export Plug-In . SVG Version: 6.00 Build 0)  -->
<svg style="enable-background:new 0 0 500 500;" id="Calque_1" version="1.1" viewBox="0 0 500 500" x="0px"
     xmlns="http://www.w3.org/2000/svg" y="0px" xml:space="preserve">
<style type="text/css">
	.st0{fill:#EAEAEA;}
	.st1{fill:#8C8C8C;}
	.st2{fill:#FFFFFF;}
	.st3{fill:#EAEAEA;stroke:#8C8C8C;stroke-width:7;stroke-miterlimit:10;}
	.st4{fill:#070707;}
	.st5{fill:none;stroke:#8C8C8C;stroke-width:7;stroke-miterlimit:10;}
	.st6{fill:none;stroke:#8C8C8C;stroke-width:10;stroke-miterlimit:10;}
	.st7{fill:#8C8C8C;stroke:#8C8C8C;stroke-width:3;stroke-miterlimit:10;}
	.st8{fill:none;stroke:#8C8C8C;stroke-width:8;stroke-miterlimit:10;}
	.st9{fill:none;stroke:#8E8E8E;stroke-width:6;stroke-miterlimit:10;}
	.st10{fill:#8E8E8E;}
	.st11{fill:#505050;}
	.st12{fill:none;stroke:#8E8E8E;stroke-width:2;stroke-miterlimit:10;}
	.st13{fill:#8C8C8C;stroke:#8C8C8C;stroke-width:2;stroke-miterlimit:10;}
	.st14{fill:#8C8C8C;stroke:#FFFFFF;stroke-width:2;stroke-miterlimit:10;}
	.st15{fill:none;stroke:#FFFFFF;stroke-width:2;stroke-miterlimit:10;}
	.st16{fill:none;stroke:#8C8C8C;stroke-miterlimit:10;}
	.st17{fill:none;stroke:#8C8C8C;stroke-width:13;stroke-miterlimit:10;}
	.st18{fill:#EAEAEA;stroke:#8C8C8C;stroke-width:8;stroke-miterlimit:10;}
	.st19{fill:none;stroke:#8C8C8C;stroke-width:4;stroke-miterlimit:10;}
	.st20{fill:#8C8C8C;stroke:#8C8C8C;stroke-width:0.75;stroke-miterlimit:10;}
	.st21{fill:none;stroke:#8C8C8C;stroke-width:9;stroke-miterlimit:10;}
	.st22{fill:#8C8C8C;stroke:#8C8C8C;stroke-width:0.5;stroke-miterlimit:10;}
	.st23{fill:#6B6B6B;}
	.st24{fill:none;}
	.st25{stroke:#8C8C8C;stroke-width:8;stroke-miterlimit:10;}
	.st26{fill:#8C8C8C;stroke:#8C8C8C;stroke-miterlimit:10;}
	.st27{fill:none;stroke:#8C8C8C;stroke-width:11;stroke-miterlimit:10;}
	.st28{fill:none;stroke:#8C8C8C;stroke-width:6;stroke-miterlimit:10;}
	.st29{stroke:#8C8C8C;stroke-width:6;stroke-miterlimit:10;}
	.st30{fill:#8C8C8C;stroke:#8C8C8C;stroke-width:4;stroke-miterlimit:10;}
	.st31{fill:#8C8C8C;stroke:#8C8C8C;stroke-width:1.05;stroke-miterlimit:10;}
	.st32{fill:#D6D6D6;}
	.st33{fill:none;stroke:#EAEAEA;stroke-width:5;stroke-miterlimit:10;}
	.st34{fill:#8C8C8C;stroke:#8C8C8C;stroke-width:10;stroke-miterlimit:10;}
	.st35{fill:none;stroke:#CECECE;stroke-width:2;stroke-miterlimit:10;}
	.st36{fill:none;stroke:#FFFFFF;stroke-width:4;stroke-miterlimit:10;}
	.st37{fill-rule:evenodd;clip-rule:evenodd;fill:#8C8C8C;}
	.st38{fill:#8C8C8C;stroke:#8C8C8C;stroke-width:8;stroke-miterlimit:10;}
	.st39{fill:#8C8C8C;stroke:#8C8C8C;stroke-width:7;stroke-miterlimit:10;}
	.st40{fill:#DBDBDB;stroke:#8C8C8C;stroke-width:7;stroke-miterlimit:10;}
	.st41{font-family:'HelveticaNeue-CondensedBold';}
	.st42{font-size:54px;}
	.st43{fill:none;stroke:#8C8C8C;stroke-width:5;stroke-miterlimit:10;}
	.st44{fill:none;stroke:#8C8C8C;stroke-width:3;stroke-miterlimit:10;}
	.st45{clip-path:url(#SVGID_2_);fill:#8C8C8C;}
	.st46{clip-path:url(#SVGID_2_);fill:none;stroke:#8C8C8C;stroke-width:8;stroke-miterlimit:10;}
	.st47{clip-path:url(#SVGID_2_);fill:#FFFFFF;}
	.st48{clip-path:url(#SVGID_2_);fill:#EAEAEA;}
	.st49{clip-path:url(#SVGID_2_);fill:none;stroke:#8C8C8C;stroke-miterlimit:10;}
	.st50{fill:none;stroke:#FFFFFF;stroke-width:0.75;stroke-miterlimit:10;}
	.st51{fill:none;stroke:#8C8C8C;stroke-width:14;stroke-miterlimit:10;}
	.st52{fill:none;stroke:#EAEAEA;stroke-width:2;stroke-miterlimit:10;}
	.st53{fill:none;stroke:#8C8C8C;stroke-width:2;stroke-miterlimit:10;}
</style>
    <rect class="st0" height="500" width="500"/>
    <g>
	<rect class="st24" height="144" width="500" y="361"/>
        <text transform="matrix(1 0 0 1 59.2217 399.5557)"><tspan class="st23 st41 st42" x="0" y="0">Lessive / produits </tspan>
            <tspan class="st23 st41 st42" x="87.9" y="64.8">de lavage</tspan></text>
</g>
    <g>
	<g>
		<path class="st1" d="M301.5,121.5c-2.4-9.2-9-15.3-16.4-15.3h-20.6v-25c3.6-1.7,6.2-6.1,6.2-11.4c0-6.7-4.1-12.2-9.2-12.2h-36.9
			c-5.1,0-9.2,5.5-9.2,12.2c0,5.3,2.6,9.7,6.2,11.4v25h-20.6c-7.4,0-14,6.2-16.4,15.4c-13.9,52.8-13.9,110.9,0,163.7
			c2.4,9.2,9,15.3,16.4,15.3h84.3c7.4,0,14-6.2,16.4-15.4C315.5,232.4,315.5,174.2,301.5,121.5z M224.5,65.6h36.9
			c1.7,0,3.1,1.8,3.1,4.1c0,2.2-1.4,4.1-3.1,4.1h-36.9c-1.7,0-3.1-1.8-3.1-4.1C221.5,67.4,222.8,65.6,224.5,65.6z M236.8,98h12.3
			c1.7,0,3.1-1.8,3.1-4.1V81.8h6.2v24.3h-30.8V81.8h6.2V94C233.8,96.2,235.1,98,236.8,98z M239.9,89.9v-8.1h6.2v8.1H239.9z
			 M295.7,282.5c-1.6,5.9-5.8,9.9-10.6,9.9h-84.3c-4.8,0-9-4-10.6-9.9c-13.5-51.1-13.5-107.3,0-158.4c1.6-5.9,5.8-9.9,10.6-9.9h23.7
			h36.9h23.7c4.8,0,9,4,10.6,9.9C309.2,175.2,309.2,231.5,295.7,282.5z"/>
	</g>
</g>
    <g>
	<g>
		<path class="st1" d="M245.1,165.8c-1.2-0.8-3-0.8-4.2,0c-1.4,1-34.8,25.1-34.8,46.8c0,24.5,19.1,33.2,36.9,33.2
			s36.9-8.7,36.9-33.2C279.9,190.9,246.5,166.8,245.1,165.8z M243,241.1c-19.3,0-30.8-10.6-30.8-28.5c0-16.7,23.5-36.2,30.8-41.8
			c7.2,5.6,30.8,25,30.8,41.8C273.8,230.4,262.3,241.1,243,241.1z"/>
	</g>
</g>
    <g>
	<g>
		<path class="st1" d="M245.1,180.1c-1.2-0.9-3.1-0.9-4.2,0c-0.5,0.4-13.3,9.8-13.3,18.6c0,10.3,8.3,13.9,15.4,13.9
			s15.4-3.7,15.4-13.9C258.4,189.9,245.7,180.5,245.1,180.1z M243,207.9c-5.9,0-9.2-3.4-9.2-9.2c0-4.6,5.5-10.3,9.2-13.5
			c3.7,3.2,9.2,8.9,9.2,13.5C252.2,204.5,248.9,207.9,243,207.9z"/>
	</g>
</g>
    <g>
	<g>
		<rect class="st1" height="4.7" width="6.2" x="227.6" y="226.8"/>
	</g>
</g>
    <g>
	<g>
		<rect class="st1" height="4.7" width="6.2" x="239.9" y="226.8"/>
	</g>
</g>
    <g>
	<g>
		<rect class="st1" height="4.7" width="6.2" x="252.2" y="226.8"/>
	</g>
</g>
</svg>
