<svg id="Calque_1" data-name="Calque 1" xmlns="http://www.w3.org/2000/svg" viewBox="0 0 350 300"><defs><style>.cls-1{fill:none;stroke:#000;stroke-miterlimit:10;stroke-width:5px;}</style></defs><title>selected</title><path class="cls-1" d="M266,22H106A20,20,0,0,0,86,42V234a12,12,0,0,0,12,12H274a12,12,0,0,0,12-12V42a20,20,0,0,0-20-20M106,30H266a12,12,0,0,1,12,12V70H94V42a12,12,0,0,1,12-12M274,238H98a4,4,0,0,1-4-4V78H278V234a4,4,0,0,1-4,4"/><path class="cls-1" d="M106,62h48a4,4,0,0,0,4-4V42a4,4,0,0,0-4-4H106a4,4,0,0,0-4,4V58a4,4,0,0,0,4,4m4-16h40v8H110Z"/><path class="cls-1" d="M214.56,59.41a10,10,0,1,0-10-10,10,10,0,0,0,10,10"/><path class="cls-1" d="M239.47,58h18.94c5.23,0,9.46-3.58,9.46-8s-4.23-8-9.46-8H239.47c-5.23,0-9.47,3.58-9.47,8s4.24,8,9.47,8"/><path class="cls-1" d="M186,94a64,64,0,1,0,64,64,64,64,0,0,0-64-64m0,120a56,56,0,1,1,56-56,56,56,0,0,1-56,56"/><path class="cls-1" d="M185.78,102a56.92,56.92,0,1,0,56.92,56.92A56.91,56.91,0,0,0,185.78,102m0,106.73a49.81,49.81,0,1,1,49.81-49.81,49.81,49.81,0,0,1-49.81,49.81"/><polygon points="122 246 98 246 98 253.56 122 253.56 122 246 122 246"/><polygon points="274 246 250 246 250 253.56 274 253.56 274 246 274 246"/></svg>