<svg id="Calque_1" data-name="Calque 1" xmlns="http://www.w3.org/2000/svg" viewBox="0 0 350 300"><title>selected</title><path d="M83.52,52.52a3.69,3.69,0,0,0-3.69,3.68v9a29.15,29.15,0,0,0-29.1,26.47l-5.3,55.53A18.44,18.44,0,0,0,63.8,167.39h1.78v6.73a9.24,9.24,0,0,0,9.23,9.22H79v18.37H32.69A3.69,3.69,0,0,0,29,205.4v27a22.19,22.19,0,0,0,22.18,22.15H75.25a3.69,3.69,0,1,0,0-7.38H51.18a14.79,14.79,0,0,1-14.79-14.77v-23.3h20.2v9.41a3.69,3.69,0,0,0,3.69,3.68h46.49a3.69,3.69,0,0,0,3.69-3.68v-9.41h36v-7.38H86.33V183.33h4.14a9.23,9.23,0,0,0,9.23-9.21v-6.73h.84a19.38,19.38,0,0,0,18.7-14.33l4.36-16.22a8.62,8.62,0,0,1,8.3-6.36h57.39a7.32,7.32,0,0,1,7.32,7.32v56.6a7.32,7.32,0,0,1-7.32,7.31H177.17a3.69,3.69,0,0,0,0,7.38h12.12A14.72,14.72,0,0,0,204,194.4V137.8a14.72,14.72,0,0,0-14.71-14.69H131.9a16,16,0,0,0-15.43,11.82l-4.36,16.22A12,12,0,0,1,100.54,160H63.8a11,11,0,0,1-11-12.09l5.3-55.53A21.82,21.82,0,0,1,79.9,72.59h25.18a3.69,3.69,0,1,0,0-7.37H87.22v-9a3.69,3.69,0,0,0-3.7-3.68ZM74.81,176A1.84,1.84,0,0,1,73,174.12v-6.73H92.31v6.73A1.84,1.84,0,0,1,90.47,176ZM64,214.81v-5.72h39.09v5.72Z"/><path d="M175.08,201.71H134v7.38h41.08c7.69,0,13.92-1.65,13.92-3.69s-6.23-3.69-13.92-3.69Z"/><path d="M224.72,30.91a.75.75,0,0,1,.23,0v8.5h11.83a.71.71,0,0,1,.23,0V68.59H212.45V39.47a.75.75,0,0,1,.23,0h11.81v-8.5a.75.75,0,0,1,.23,0m43.66,47.65A23,23,0,0,1,275,94.47V232.39a16.5,16.5,0,0,1-4.84,11.49,17.5,17.5,0,0,0,4.38-11.49V94.47a24,24,0,0,0-6.16-15.91M224.72,26.91a4,4,0,0,0-4.23,3.69v4.84h-7.81a4,4,0,0,0-4.23,3.68v26.1H96.36a3.72,3.72,0,1,0,0,7.37h149.1c13.83,0,25.08,9.82,25.08,21.88V232.39c0,8.15-7.59,14.77-16.93,14.77H62.23a3.72,3.72,0,1,0,0,7.38H253.61c14,0,25.39-9.94,25.39-22.15V94.47c0-16.13-15.05-29.25-33.54-29.25H241V39.12a4,4,0,0,0-4.23-3.68H229V30.6a4,4,0,0,0-4.23-3.69Z"/><path d="M237.37,126.34A20.38,20.38,0,1,1,217,146.71a20.4,20.4,0,0,1,20.37-20.37m0,38.82a18.45,18.45,0,1,0-18.45-18.45,18.48,18.48,0,0,0,18.45,18.45m0-42.82a24.38,24.38,0,1,0,24.38,24.37,24.39,24.39,0,0,0-24.38-24.37Zm0,38.82a14.45,14.45,0,1,1,14.46-14.45,14.47,14.47,0,0,1-14.46,14.45Z"/><polygon points="224.78 40 219.17 40 230.91 45.37 233.72 44.09 224.78 40 224.78 40"/><polygon points="235 40 229.97 40 235 42.3 235 40 235 40"/><polygon points="214.5 40.24 214.5 42.81 225.51 47.84 228.32 46.56 214.5 40.24 214.5 40.24"/><polygon points="214.5 45.18 214.5 47.74 220.11 50.31 222.92 49.03 214.5 45.18 214.5 45.18"/><polygon points="214.5 50.12 214.5 52.88 217.51 51.5 214.5 50.12 214.5 50.12"/><polygon points="235 45.88 214.5 55.25 214.5 57.81 235 48.44 235 45.88 235 45.88"/><polygon points="235 50.81 214.5 60.19 214.5 62.75 235 53.38 235 50.81 235 50.81"/><polygon points="235 55.75 214.5 65.13 214.5 67.69 235 58.32 235 55.75 235 55.75"/><polygon points="235.14 60 221.41 66.28 221.41 68 235.14 61.72 235.14 60 235.14 60"/><polygon points="241 65 209 65 209 69 241 69 241 65 241 65"/></svg>