<svg id="Calque_1" data-name="Calque 1" xmlns="http://www.w3.org/2000/svg" viewBox="0 0 350 300"><title>selected</title><path d="M250.12,60.87a1.25,1.25,0,0,1,.89.37l5.43,5.43.09.1,2,2.4,2.81-1.38,6.41-3.13.16-.08.15-.09a4.3,4.3,0,0,1,2.14-.59,2.16,2.16,0,0,1,1.22.27L280.29,73l8.45,8.44a2.24,2.24,0,0,1-.52.4l-.16.09-.14.11-5.5,4-3.77,2.76,3.3,3.3,2.67,2.66a1.25,1.25,0,0,1,.37.89A1.26,1.26,0,0,1,283.72,97a1.28,1.28,0,0,1-.89-.37L279,92.77l-2.42-2.43-2.76,2L271.6,94l-3.77,2.76,3.31,3.3,4.4,4.4a1.26,1.26,0,1,1-1.78,1.78l-5.36-5.35-.11-.12-2.42-2.58L263,100.27l-7.17,5.25a3.48,3.48,0,0,1-1.59.36,3.66,3.66,0,0,1-2.07-.6l-2.75-2L247,105.71l-47.81,47.84-1.77,1.77.82,2.36c3.95,11.39,3,27.16-2.68,45.6-6.63,21.44-19.18,44-31.24,56a60.51,60.51,0,1,1-85.63-85.52c8.49-8.5,22.87-17.7,38.47-24.62,17.13-7.6,33.94-11.78,47.37-11.79a48.46,48.46,0,0,1,15.81,2.37l2.37.82,1.77-1.77,47.7-47.73,2.83-2.83-2.84-2.83-1.86-1.85a1.79,1.79,0,0,1-.22-.29h0a1,1,0,0,1,.34-.35l8.35-4.08,5-2.47-4-4-1.57-1.56a1.27,1.27,0,0,1,0-1.79,1.26,1.26,0,0,1,1.78,0l4.13,4.12,2,2,2.56-1.26,2.58-1.26,5-2.46-4-4L249.23,63a1.29,1.29,0,0,1-.37-.9,1.27,1.27,0,0,1,.37-.89,1.25,1.25,0,0,1,.89-.37m4,42.8,2.76-2L281.1,83.92l3.77-2.76-3.3-3.3-3.06-3.06-6.45-6.43-2-2-2.56,1.25-28.2,13.81-5,2.46,4,4,4.7,4.69,8.76,8.74,2.42,2.41m-57.58,49,3.23-3.23L245.18,104l2.83-2.83-2.84-2.83-4-4-1.46-1.46L236.83,90,234,92.84,188.57,138.3l-3.21,3.22,3.6,2.78a26.46,26.46,0,0,1,2.54,2.23,27.34,27.34,0,0,1,2.24,2.56l2.77,3.61m53.61-95.83a5.26,5.26,0,0,0-3.72,9l3.23,3.23-2.58,1.26-4.12-4.12a5.26,5.26,0,0,0-7.44,7.45l1.57,1.56-8.54,4.19c-2.74,1.65-3.19,4.76-1,7l1.87,1.86L181.69,136a52.21,52.21,0,0,0-17.12-2.59h0c-30.11,0-70.88,19.82-88.63,37.58a64.5,64.5,0,0,0,45.64,110.1h0a64.11,64.11,0,0,0,45.61-18.92c12.48-12.49,25.43-35.66,32.23-57.67,6-19.44,6.85-35.94,2.64-48.09l47.8-47.83a7.71,7.71,0,0,0,4.39,1.34h0a7.36,7.36,0,0,0,3.77-1l7.36-5.38.12.14,5.43,5.42a5.23,5.23,0,0,0,3.72,1.54h0a5.26,5.26,0,0,0,3.72-9L274,97.22l2.23-1.62L280,99.41a5.21,5.21,0,0,0,3.71,1.54h0a5.26,5.26,0,0,0,3.71-9l-2.66-2.66,5.5-4c2.74-1.64,3.5-4.44,1.7-6.25l-8.86-8.85-8.87-8.85a5.74,5.74,0,0,0-4-1.44h0A8.33,8.33,0,0,0,266,61.06l-6.41,3.14c-.1-.12-.2-.24-.32-.36l-5.43-5.43a5.27,5.27,0,0,0-3.72-1.54Zm4.37,41.55-8.76-8.73L241,85l28.2-13.8,6.44,6.43,3.06,3.06L254.49,98.42Zm-57.58,48.23a30.27,30.27,0,0,0-2.58-3,31.14,31.14,0,0,0-2.93-2.57l45.43-45.46,1.47,1.46,4,4-45.44,45.48Z"/><path d="M92.61,218.15a1.29,1.29,0,0,1,.9.37l28.08,28a1.26,1.26,0,0,1,0,1.78,1.26,1.26,0,0,1-1.78,0l-28.09-28a1.27,1.27,0,0,1,.89-2.16m0-4a5.27,5.27,0,0,0-3.71,9l28.08,28a5.25,5.25,0,0,0,3.72,1.54h0a5.26,5.26,0,0,0,3.72-9L96.33,215.69a5.26,5.26,0,0,0-3.72-1.54Z"/><path d="M142.57,170.75A26.68,26.68,0,0,1,167,186.53l0,0,0,0s0,.07,0,.11l0,.07,0,.06a26.76,26.76,0,1,1-24.55-16.09h0m-24.31,36.33,6.9-6.91,20.07-20.07,6.91-6.91-9.77.08a24.24,24.24,0,0,0-24,24l-.07,9.76m13.53,12.38,2.33-2.34L162.19,189l2.33-2.32L162.68,184a24.59,24.59,0,0,0-6.59-6.59l-2.74-1.84L151,177.87,122.94,206l-2.33,2.34,1.85,2.73a24.59,24.59,0,0,0,6.6,6.58l2.73,1.85m1.22,2.35,9.77-.09a24.19,24.19,0,0,0,24-24l.07-9.77-6.9,6.91L139.91,214.9l-6.9,6.91m9.56-55.06h0a30.75,30.75,0,0,0,0,61.5h0a30.74,30.74,0,0,0,28.19-43c-.05-.12-.1-.24-.16-.36a30.67,30.67,0,0,0-28.05-18.14Zm-20.24,30.6a20.25,20.25,0,0,1,20.07-20.08l-20.07,20.08Zm9,17a21.59,21.59,0,0,1-3-2.49,21,21,0,0,1-2.5-3l28.08-28.09a19.85,19.85,0,0,1,3,2.49,19.61,19.61,0,0,1,2.48,3L131.29,214.3Zm11.45,3.42,20.06-20.06a20.18,20.18,0,0,1-20.06,20.06Z"/></svg>