<svg id="Calque_1" data-name="Calque 1" xmlns="http://www.w3.org/2000/svg" viewBox="0 0 350 300"><title>selected</title><path d="M135.23,67.16a9.09,9.09,0,0,1,4.48,1.2l14.53,8.16a10.35,10.35,0,0,1,5.14,9.08v4.54l-1.08,0V85.6a8.8,8.8,0,0,0-4.43-7.68l-14.53-8.15a8.33,8.33,0,0,0-4.09-1.09,8.52,8.52,0,0,0-4.47,1.3,8.75,8.75,0,0,0-4.08,7.47V90.9h-1.08V77.45a10.3,10.3,0,0,1,4.75-8.85,9.12,9.12,0,0,1,4.86-1.44h0m0-4a13.14,13.14,0,0,0-7,2,14.29,14.29,0,0,0-6.62,12.24V94.92l9.08-.06V77.45a4.73,4.73,0,0,1,2.2-4.08,4.54,4.54,0,0,1,2.35-.69,4.28,4.28,0,0,1,2.13.58l14.53,8.15a4.8,4.8,0,0,1,2.39,4.19v8.74c3-.11,6.06-.23,9.08-.38V85.6A14.36,14.36,0,0,0,156.2,73l-14.53-8.16a13.13,13.13,0,0,0-6.44-1.71Z"/><path d="M159.38,128.81v15.8l2.33,1.07a5.36,5.36,0,0,1,1.53,1.08H121.76a5.36,5.36,0,0,1,1.53-1.08l2.33-1.07v-15h1.08v15.69h31.6v-16.4l1.08,0m-38.13,18.56v28.32h42.5V147.37a5.78,5.78,0,0,1,1.08,3.39v24.58l3.58.37a4.9,4.9,0,0,1,3,1.49H113.6a4.9,4.9,0,0,1,3-1.49l3.58-.37V150.76a5.78,5.78,0,0,1,1.08-3.39m50.67,30.46A5.74,5.74,0,0,1,173,181.2v67.53c0,5.66-4.31,10.27-9.62,10.27H121.62c-5.31,0-9.62-4.61-9.62-10.27V181.2a5.74,5.74,0,0,1,1.08-3.37v70.9a8.66,8.66,0,0,0,8.54,8.76h41.76a8.66,8.66,0,0,0,8.54-8.76v-70.9m-8.54-53.2c-3,.14-6,.27-9.08.37v16.25H130.7V125.53c-3,0-6,0-9.08.06v16.46a9.55,9.55,0,0,0-5.45,8.71v21A9.35,9.35,0,0,0,108,181.2v67.53c0,7.87,6.11,14.27,13.62,14.27h41.76c7.51,0,13.62-6.4,13.62-14.27V181.2a9.36,9.36,0,0,0-8.17-9.46v-21a9.55,9.55,0,0,0-5.45-8.71V124.63Zm-38.13,47.06V150.76h34.5v20.93Zm-3.63,81.8a4.66,4.66,0,0,1-4.54-4.76V181.2h50.84v67.53a4.65,4.65,0,0,1-4.54,4.76H121.62Z"/><path d="M215.53,15.79c.12,1.16.23,2.46.32,3.92l.21,3.48,3.48.27a32.84,32.84,0,0,1,7.93,1.4l-.24.15H216.58V38.72H228.3c.26,0,.54.31.54.75s-.28.76-.54.76H216.58V53.94H228.3c.26,0,.54.31.54.75s-.28.76-.54.76H216.58V69.16H228.3c.26,0,.54.31.54.75s-.28.76-.54.76H216.58v13.7H228.3c.26,0,.54.32.54.76s-.28.76-.54.76H216.58v54.6h24.78l.64,0v53.85a128.62,128.62,0,0,1-17.15,64.33.54.54,0,0,1-.42.29H207.65a.54.54,0,0,1-.42-.29,128.57,128.57,0,0,1-17.15-64.31l.13-19.21.24-34.68.28,0H215.5V85.89H203.78c-.26,0-.54-.31-.54-.76s.28-.76.54-.76H215.5V70.67H203.78c-.26,0-.54-.31-.54-.76s.28-.75.54-.75H215.5V55.45H203.78c-.26,0-.54-.31-.54-.76s.28-.75.54-.75H215.5V40.23H203.78c-.26,0-.54-.31-.54-.76s.28-.75.54-.75H215.5V25H204.79a9.36,9.36,0,0,1-1-.64A15.47,15.47,0,0,1,211,22.56l3.14-.14.61-3.08c.26-1.31.52-2.5.78-3.55M216.19,5c-1.71,0-3.82,5.72-5.37,13.53-7,.32-11.52,3.13-11.58,5.69-.06,2.36,3.68,4.32,4.54,4.75h7.72v5.71h-7.72a4.76,4.76,0,0,0,0,9.51h7.72v5.71h-7.72a4.76,4.76,0,0,0,0,9.51h7.72v5.71h-7.72a4.76,4.76,0,0,0,0,9.51h7.72v5.7h-7.72a4.77,4.77,0,0,0,0,9.52h7.72v46.6H190.62l-4.15.24-.39,57.65a132.59,132.59,0,0,0,17.69,66.33,4.49,4.49,0,0,0,3.88,2.29h16.78a4.49,4.49,0,0,0,3.88-2.29A132.59,132.59,0,0,0,246,194.38V136.73l-4.54-.24H220.58V89.89h7.72a4.77,4.77,0,0,0,0-9.52h-7.72v-5.7h7.72a4.76,4.76,0,0,0,0-9.51h-7.72V59.45h7.72a4.76,4.76,0,0,0,0-9.51h-7.72V44.23h7.72a4.76,4.76,0,0,0,0-9.51h-7.72V29h7.72c4.57-2.51,4.6-4.26,4.54-4.75-.26-2.39-5.44-4.21-13-4.79C219.35,11.22,218,5.15,216.24,5Z"/><path d="M126.55,95.63V130h-1V95.63h1m4-4h-9V134h9V91.63Z"/><path d="M159.38,96.19V130.4l-1.21.12L158,125l.27-28.62,1.11-.15m4-4.56-9.08,1.2L154,125l.3,9.92,9.08-.9V91.63Z"/></svg>