<svg id="Calque_1" data-name="Calque 1" xmlns="http://www.w3.org/2000/svg" viewBox="0 0 350 300"><title>selected</title><g id="jzXfNE"><path d="M164.91,22.14c5.8,0,11.69,0,18,.06a5,5,0,0,1,3.25,1h-42.1a5.33,5.33,0,0,1,3.43-1c5.59,0,11.45-.06,17.42-.06m22,1.9a4.45,4.45,0,0,1,.54,1.21c1.56,5.33,5.31,6.45,8.18,6.45.47,0,1,0,1.51-.08a15.72,15.72,0,0,1,1.63-.08c.88,0,1.78.05,2.75.1,4.56.24,6,1.68,6.18,6.15.28,6.67.42,10.34,3.16,12.91s6.42,2.54,13.19,2.54h.18l5.1,0,5,0c2.33,0,4.26,0,6.06.07,5.15.13,8.77,3,9.3,7.3l-2.05-1.79c-.28-.25-.66-.67-1-1.07-1.29-1.42-3-3.37-5.71-3.55s-5.33-.26-8.87-.26c-1.64,0-3.28,0-4.91,0s-3.22,0-4.83,0H208V69.91h4l7.4,0,7.07,0c4,0,9.29,0,14.65-.22,2.83-.11,4.56-2.32,5.83-3.94.35-.44.71-.9,1-1.17l1.88-1.87c-.42,4.6-3.74,7.53-8.91,7.73-3.56.14-7.39.21-11.71.21s-8.89-.07-13.05-.15h-.31c-1.14,0-4.61,0-6.75,2.64a7.32,7.32,0,0,0-1.21,6.41c3,14.28-4.25,24.83-12,36-1.85,2.68-3.76,5.46-5.53,8.28a36.12,36.12,0,0,0-4.54,13.32c-.92,5.59-1.4,11.28-1.87,16.77-.12,1.45-.24,2.9-.37,4.35-.32,3.52-1.79,4.44-3.19,4.88a9.09,9.09,0,0,0-5,3.44V163c2.71-.73,5.82-2.18,6.46-5.12,1.45-6.65,2.4-13.42,3.31-20,.31-2.15.6-4.29.92-6.43l.48-3.21-3-1.13c-.41-.15-.71-.28-1-.38a6.38,6.38,0,0,0-2.55-.64l-3.88,0c-5.31-.06-10.81-.12-16.23-.12-3.18,0-6.07,0-8.84.06a5.42,5.42,0,0,0-3.9,2c-.41.45-2.47,2.82-2.29,5.52.56,8.75,1.25,15.92,2.17,22.57.44,3.17,3.92,6.52,7.15,6.89a119.36,119.36,0,0,0,12.6.81v.35a11.83,11.83,0,0,0-1.67-.1H165a8.26,8.26,0,0,0-6.13,2.2,8,8,0,0,0-2.08,5.93c0,.5,0,1,0,1.5-.29-4.09-1.68-8.81-8.25-11.29-.86-1.52-1.64-6.25-1.9-7.87l0-.06c-.52-3.18-.82-6.38-1.15-9.76a100,100,0,0,0-2.35-15.73c-1.06-4.06-3.68-7.28-6.22-10.4-1-1.25-2-2.43-2.8-3.61-.1-.14-.18-.29-.27-.43a10.87,10.87,0,0,0-1.14-1.6c-8.51-9.69-11.74-20.17-9.87-32.05.51-3.26,0-5.75-1.59-7.6-2.36-2.76-6.19-2.76-7.45-2.76-.33,0-.67,0-1,0-3,.12-6.19.18-9.92.18-3.26,0-6.59,0-9.81-.09l-2,0c-3,0-9.62-.88-10.42-7.48l1.92,1.7A15.19,15.19,0,0,1,83.65,66c1.44,1.61,3.24,3.62,6,3.75,4.5.21,9,.24,12.39.24l5.11,0h8.61c3.74,0,5.41-2,6.08-3.17a9.19,9.19,0,0,0,.95-4.4c0-.22,0-.43,0-.64A7.62,7.62,0,0,0,121.07,56a7,7,0,0,0-5.31-2h-.43c-1.43.05-3,.07-4.87.07l-3.69,0L103,54c-1.19,0-2.37,0-3.63-.06s-2.54-.06-3.83-.06a47.33,47.33,0,0,0-6,.33c-2.53.32-4.29,2-5.7,3.36-.44.42-.85.82-1.2,1.09l-2.08,1.61c.8-5.11,5.81-7,10.51-7h31.7v-4c0-1.34,0-2.64,0-3.9,0-2.7,0-5.25,0-7.79.07-4.4,1.27-5.68,5.57-5.95.73,0,1.49-.06,2.25-.06s1.81,0,2.74.09c.4,0,.77,0,1.12,0,5.51,0,7.61-3.6,8.41-6.61a3.62,3.62,0,0,1,.32-.89V77.27c-.73-1.06-1-2.7-1-5.2l0-2.63c-.07-9.26-.13-18.84.09-28.22,0-2.2-.15-5-2.17-7.06A8.1,8.1,0,0,0,134,32l-1,0-.72,0a11.46,11.46,0,0,0-6,1.44c-2.28,1.48-3.4,4.07-3.34,7.68.16,9.68.15,19.54.15,29.08,0,7.32,0,14.89.06,22.35a16.92,16.92,0,0,0,2.57,8.54c4.59,7.4,8.8,13.72,12.87,19.33a12.12,12.12,0,0,0,8.63,4.77c5.43.12,11.13.19,17.42.19,5.34,0,11.13,0,18.19-.14,2.58,0,6.14-1.19,7.85-3.64.87-1.24,1.74-2.46,2.62-3.69,8.52-11.94,17.34-24.27,13.67-41.74a23.5,23.5,0,0,1-.13-5.75c.06-1.1.12-2.24.12-3.4,0-2.6,0-5.21,0-7.82-.05-6.08-.11-12.37.14-18.49.11-2.84-.55-4.95-2-6.47-2.12-2.2-5-2.2-6.77-2.2h-1.57c-1.9,0-4.77,0-6.89,2.19-1.47,1.51-2.14,3.63-2.06,6.47.27,8.53.2,17.25.13,25.69,0,2,0,4.09,0,6.14a8.17,8.17,0,0,1-1,4.66V24m-1.2,54.23a8.39,8.39,0,0,1-4.11.78c-4.88,0-10,0-15.1,0-5.56,0-11.4,0-17.34,0a10.49,10.49,0,0,1-4.79-.78h41.34M173.66,176.2c0,1.41-.09,2.88-.09,4.35,0,3.75,0,7.49,0,11.23,0,13.37,0,27.19.12,40.79,0,3.4-.57,5.21-2.32,6.92-.56.54-1.09,1.09-1.62,1.65l.19-.47c.23-.54.55-1.15.9-1.8a14,14,0,0,0,2.1-6.43c.12-11.87.12-23.93.12-35.6,0-6.75,0-13.7,0-20.6l.6,0m-16.77,7.32q0,3.31,0,6.65c.08,13.7.16,27.87.41,41.81a15,15,0,0,0,2.18,6.69c.36.7.7,1.36.95,2l.41,1c-1.27-1.48-2.49-2.94-3.67-4.42a6.31,6.31,0,0,1-.28-2.25c-.05-14.74-.05-29.73,0-44.23v-7.21m5.25,59.55,2,0,2.08,0,1.73,0c-.93,1.08-1.85,2.18-2.79,3.31l-.27-.3-2.72-3.09m2.77-224.93q-8.73,0-17.45.06c-4,0-7.35,1.86-8.39,5.83-.76,2.88-2.26,3.63-4.54,3.63l-.86,0c-1-.07-2-.1-3-.1-.83,0-1.67,0-2.5.07-6.38.39-9.22,3.4-9.32,9.87-.06,3.78,0,7.55,0,11.76H91.13c-8.73,0-14.54,5-14.61,12.34C76.44,69.41,82,74.46,91,74.58c4,0,7.94.11,11.9.11,3.37,0,6.73,0,10.08-.18.3,0,.59,0,.86,0,3.83,0,5.8,1.25,5.09,5.74-2.13,13.52,1.9,25.17,10.82,35.31a17.22,17.22,0,0,1,1.12,1.66c2.91,4.22,7.22,8.08,8.44,12.75,2.11,8.12,2.05,16.78,3.43,25.13.64,3.88,1.64,10.06,4,10.85,6.58,2.24,6.22,6.66,6.22,11.58,0,19.15,0,38.31,0,57.46,0,1.58.2,3.53,1.1,4.67,3.38,4.27,7.1,8.29,11.17,13,3.26-3.78,5.87-7.24,9-10.24,2.89-2.81,3.57-5.94,3.53-9.83-.2-17.32-.12-34.64-.11-52,0-2.66.16-5.31.18-8s.84-4.65,3.82-5.58c3.91-1.21,5.62-4.32,6-8.33.63-7,1.07-13.95,2.21-20.83a32.67,32.67,0,0,1,4-11.85c9.11-14.6,22.16-27.56,18-47.22-.68-3.21,1-4.23,4-4.23H216c4.37.08,8.75.15,13.12.15,4,0,7.91-.06,11.86-.21,7.92-.31,12.94-5.72,12.8-13.07-.14-6.86-5.58-11.94-13.26-12.14-2.06-.05-4.11-.07-6.17-.07-3.38,0-6.76,0-10.14,0h-.18c-11.88,0-11.88,0-12.35-11.61-.26-6.53-3.35-9.64-10-10-1,0-2-.11-3-.11-.68,0-1.36,0-2,.09a11,11,0,0,1-1.11.07c-2.17,0-3.54-.83-4.34-3.57-1.12-3.83-4.29-5.9-8.36-5.93q-9-.06-18-.06ZM147.26,74.27V27.19h35.66V74.27Zm17.48,47.12q-8.67,0-17.33-.19a8.15,8.15,0,0,1-5.48-3.12c-4.49-6.19-8.68-12.6-12.72-19.09a13.19,13.19,0,0,1-2-6.47c-.17-17.15.08-34.31-.21-51.46-.08-5.16,2.69-4.89,6.26-5.09l.74,0c3.42,0,4.38,1.54,4.3,5.17-.24,10.33-.14,20.65-.07,31,0,7.93,3,10.91,10.88,11q8.68,0,17.36,0,7.56,0,15.11,0c7,0,10.29-3.37,10.33-10.49.06-10.66.25-21.32-.09-32-.13-4.39,2.08-4.54,4.95-4.54h1.57c2.77,0,5,.21,4.78,4.51-.35,8.81-.1,17.65-.1,26.47,0,3.34-.58,6.79.09,10,3.67,17.45-6.76,29.6-15.64,42.3-.83,1.18-3,1.91-4.63,1.94-6,.08-12.09.14-18.14.14ZM102.07,66c-4.07,0-8.14,0-12.2-.24-1.63-.07-3.14-2.57-4.71-3.95,1.64-1.27,3.18-3.42,5-3.64a43,43,0,0,1,5.45-.3c2.49,0,5,.12,7.46.12s5,0,7.43,0c1.67,0,3.34,0,5-.08h.29c2.48,0,3.22,1.25,3.09,3.6-.12,2.15.24,4.43-3.06,4.43h-3.54l-10.18,0Zm120.27-8c3.25,0,6.49-.06,9.74-.06,2.87,0,5.73.05,8.59.25,1.54.11,2.93,2.37,4.4,3.64-1.38,1.38-2.71,3.88-4.13,3.94-4.8.18-9.61.22-14.5.22-4.72,0-9.52,0-14.47,0V58h10.37ZM167.56,159.77a113.54,113.54,0,0,1-12.91-.79,5.27,5.27,0,0,1-3.64-3.46c-1-7.39-1.67-14.84-2.15-22.28-.07-1.07,1.45-3.2,2.27-3.22,2.92,0,5.85-.06,8.77-.06,6.69,0,13.38.09,20.06.17a9.45,9.45,0,0,1,2.17.78c-1.28,8.66-2.29,17.49-4.18,26.14-.3,1.37-4.52,2.56-7,2.66-1.14,0-2.27.06-3.41.06Zm3.23,12.61v-9.71h.61v9.66l-.61,0Zm-4.55,66.75-2.07,0c-1-2.4-2.79-4.78-2.83-7.19-.36-19.93-.37-39.86-.53-59.79,0-3,1.28-4.08,4.23-4.1h.08c2.93,0,4,1,4,4.07-.1,20.11,0,40.21-.15,60.31,0,2.25-1.75,4.49-2.69,6.73Z"/><path d="M71.81,247.88q5.23,0,10.46,0t10.35,0h11l11.57,0c6.1,0,11.12,0,15.77-.05h.25c6.53,0,7.08,1.73,7.45,2.87,2.93,9.18,12.32,14.44,25.75,14.44h.75c13.37-.2,22.61-5.52,25.35-14.6.28-.95.82-2.73,7.74-2.73h.1c12.56,0,25.63,0,40,0q18,0,35.92,0h.09a25.54,25.54,0,0,1,4.45.3,26,26,0,0,1-4.59.31l-16.5,0-19.65,0c-10.77,0-19.59,0-27.75-.1h-.59c-5.26,0-10.72.48-14.68,6.1-5.12,7.28-15.86,11.28-30.23,11.28h-.63c-14.69-.12-25.17-4.19-30.32-11.76-3.16-4.67-7.46-5.62-12.94-5.62h-.37c-7.8.06-16.28.09-26.68.09l-17.88,0-15.94,0c-.8,0-1.6,0-2.38.1s-1.37.07-1.95.07a5.64,5.64,0,0,1-1-.06c-.4-.16-.8-.33-1.2-.52,5.31-.16,10.93-.23,18.24-.23m0-4c-6.14,0-12.27.05-18.38.24-2.89.09-5.58,2.4-8.36,3.69,2.73,1.56,5.18,3.37,8.31,4.57a6.93,6.93,0,0,0,2.36.31c1.39,0,3-.17,4.33-.17h0q16.9,0,33.81,0,13.35,0,26.71-.09h.34c5,0,7.6.87,9.63,3.86,5.94,8.75,17.68,13.39,33.6,13.52h.66c15.58,0,27.49-4.44,33.5-13,2.54-3.6,5.69-4.4,11.41-4.4h.56q13.89.11,27.78.1c12,0,24.1,0,36.15-.05,5.3,0,10.06-.67,9.76-4.55-.27-3.47-4.61-4.06-9.62-4.06h-.1q-18,0-35.91,0-20,0-40,0h-.11c-6.64,0-10.35,1.52-11.57,5.58-2.23,7.39-10.27,11.58-21.58,11.75h-.69c-11.32,0-19.54-4.14-21.94-11.66-1.28-4-4.65-5.65-11.26-5.65H131q-7.87,0-15.74.05l-22.62,0c-6.93,0-13.88-.06-20.81-.06Z"/><path d="M115,218.44c6.31,3.69,12.47,7.65,18.33,11.79a2.21,2.21,0,0,1,0,.25l-.32.15-3.63-2.39c-5.07-3.32-9.88-6.47-14.48-9.79H115m.26-4c-1.38,0-3.21.63-3.76,1.43-.82,1.2-.71,4.52.25,5.22,6.56,4.8,13.45,9.15,21,14.13,1.5-.84,3.85-1.39,4.45-2.72s.11-4.35-1-5.13c-6.37-4.52-13-8.75-19.71-12.68a2.53,2.53,0,0,0-1.21-.25Z"/><path d="M214.87,218.06c-4.48,3.59-9.22,7-13.82,10.36l-3.73,2.71-.08,0c0-.09,0-.18,0-.27,6-4.66,11.86-8.94,17.61-12.75m-.32-4.13a2,2,0,0,0-1,.23c-6.64,4.36-13.07,9.06-19.32,14-1,.76-1.21,3.48-.66,4.83s2.55,1.91,3.41,2.49a13.6,13.6,0,0,0,2.39-.85c6.29-4.59,12.68-9.08,18.72-14,1-.8,1.25-4,.46-5.1a5.81,5.81,0,0,0-4-1.6Z"/><path d="M178.92,31.19V70.27H151.26V31.19h27.66m4-4H147.26V74.27h35.66V27.19Z"/><path d="M159.9,134c5.37,0,10.84.06,16.13.12l1.6,0c-.13.91-.25,1.81-.38,2.72-.83,6-1.7,12.16-2.94,18.14a12.76,12.76,0,0,1-3.5.75c-1.06,0-2.15.06-3.25.06a107.58,107.58,0,0,1-12.12-.72,3.05,3.05,0,0,1-.53-.49c-.83-6.08-1.47-12.65-2-20.56,2.2,0,4.5,0,7,0m0-4c-2.92,0-5.85,0-8.77.06-.82,0-2.34,2.15-2.27,3.22.48,7.44,1.12,14.89,2.15,22.28a5.27,5.27,0,0,0,3.64,3.46,113.54,113.54,0,0,0,12.91.79c1.14,0,2.27,0,3.41-.06,2.46-.1,6.68-1.29,7-2.66,1.89-8.65,2.9-17.48,4.18-26.14a9.45,9.45,0,0,0-2.17-.78c-6.68-.08-13.37-.17-20.06-.17Z"/><path d="M165.08,172v.06c0,8.26,0,16.65,0,24.77,0,3.63,0,7.3,0,11,0-6-.08-11.87-.11-17.71l-.12-18V172h.27m0-4H165c-2.95,0-4.26,1.13-4.23,4.1.16,19.93.17,39.86.53,59.79,0,2.41,1.84,4.79,2.83,7.19l2.07,0c.94-2.24,2.67-4.48,2.69-6.73.2-20.1,0-40.2.15-60.31,0-3-1-4.07-4-4.07Z"/><path d="M170.79,162.67v9.71l.61,0v-9.66Z"/></g></svg>