<?xml version="1.0" encoding="utf-8"?>
<!-- Generator: Adobe Illustrator 22.1.0, SVG Export Plug-In . SVG Version: 6.00 Build 0)  -->
<svg style="enable-background:new 0 0 500 500;" id="Calque_1" version="1.1" viewBox="0 0 500 500" x="0px"
     xmlns="http://www.w3.org/2000/svg" y="0px" xml:space="preserve">
<style type="text/css">
	.st0{fill:#EAEAEA;}
	.st1{fill:#8C8C8C;}
	.st2{fill:#FFFFFF;}
	.st3{fill:#EAEAEA;stroke:#8C8C8C;stroke-width:7;stroke-miterlimit:10;}
	.st4{fill:#070707;}
	.st5{fill:none;stroke:#8C8C8C;stroke-width:7;stroke-miterlimit:10;}
	.st6{fill:none;stroke:#8C8C8C;stroke-width:10;stroke-miterlimit:10;}
	.st7{fill:#8C8C8C;stroke:#8C8C8C;stroke-width:3;stroke-miterlimit:10;}
	.st8{fill:none;stroke:#8C8C8C;stroke-width:8;stroke-miterlimit:10;}
	.st9{fill:none;stroke:#8E8E8E;stroke-width:6;stroke-miterlimit:10;}
	.st10{fill:#8E8E8E;}
	.st11{fill:#505050;}
	.st12{fill:none;stroke:#8E8E8E;stroke-width:2;stroke-miterlimit:10;}
	.st13{fill:#8C8C8C;stroke:#8C8C8C;stroke-width:2;stroke-miterlimit:10;}
	.st14{fill:#8C8C8C;stroke:#FFFFFF;stroke-width:2;stroke-miterlimit:10;}
	.st15{fill:none;stroke:#FFFFFF;stroke-width:2;stroke-miterlimit:10;}
	.st16{fill:none;stroke:#8C8C8C;stroke-miterlimit:10;}
	.st17{fill:none;stroke:#8C8C8C;stroke-width:13;stroke-miterlimit:10;}
	.st18{fill:#EAEAEA;stroke:#8C8C8C;stroke-width:8;stroke-miterlimit:10;}
	.st19{fill:none;stroke:#8C8C8C;stroke-width:4;stroke-miterlimit:10;}
	.st20{fill:#8C8C8C;stroke:#8C8C8C;stroke-width:0.75;stroke-miterlimit:10;}
	.st21{fill:none;stroke:#8C8C8C;stroke-width:9;stroke-miterlimit:10;}
	.st22{fill:#8C8C8C;stroke:#8C8C8C;stroke-width:0.5;stroke-miterlimit:10;}
	.st23{fill:#6B6B6B;}
	.st24{fill:none;}
	.st25{stroke:#8C8C8C;stroke-width:8;stroke-miterlimit:10;}
	.st26{fill:#8C8C8C;stroke:#8C8C8C;stroke-miterlimit:10;}
	.st27{fill:none;stroke:#8C8C8C;stroke-width:11;stroke-miterlimit:10;}
	.st28{fill:none;stroke:#8C8C8C;stroke-width:6;stroke-miterlimit:10;}
	.st29{stroke:#8C8C8C;stroke-width:6;stroke-miterlimit:10;}
	.st30{fill:#8C8C8C;stroke:#8C8C8C;stroke-width:4;stroke-miterlimit:10;}
	.st31{fill:#8C8C8C;stroke:#8C8C8C;stroke-width:1.05;stroke-miterlimit:10;}
	.st32{fill:#D6D6D6;}
	.st33{fill:none;stroke:#EAEAEA;stroke-width:5;stroke-miterlimit:10;}
	.st34{fill:#8C8C8C;stroke:#8C8C8C;stroke-width:10;stroke-miterlimit:10;}
	.st35{fill:none;stroke:#CECECE;stroke-width:2;stroke-miterlimit:10;}
	.st36{font-family:'HelveticaNeue-CondensedBold';}
	.st37{font-size:54px;}
	.st38{fill:none;stroke:#FFFFFF;stroke-width:4;stroke-miterlimit:10;}
	.st39{fill-rule:evenodd;clip-rule:evenodd;fill:#8C8C8C;}
	.st40{fill:#8C8C8C;stroke:#8C8C8C;stroke-width:8;stroke-miterlimit:10;}
	.st41{fill:#8C8C8C;stroke:#8C8C8C;stroke-width:7;stroke-miterlimit:10;}
	.st42{fill:#DBDBDB;stroke:#8C8C8C;stroke-width:7;stroke-miterlimit:10;}
	.st43{fill:none;stroke:#8C8C8C;stroke-width:5;stroke-miterlimit:10;}
	.st44{fill:none;stroke:#8C8C8C;stroke-width:3;stroke-miterlimit:10;}
	.st45{clip-path:url(#SVGID_2_);fill:#8C8C8C;}
	.st46{clip-path:url(#SVGID_2_);fill:none;stroke:#8C8C8C;stroke-width:8;stroke-miterlimit:10;}
	.st47{clip-path:url(#SVGID_2_);fill:#FFFFFF;}
	.st48{clip-path:url(#SVGID_2_);fill:#EAEAEA;}
	.st49{clip-path:url(#SVGID_2_);fill:none;stroke:#8C8C8C;stroke-miterlimit:10;}
	.st50{fill:none;stroke:#FFFFFF;stroke-width:0.75;stroke-miterlimit:10;}
	.st51{fill:none;stroke:#8C8C8C;stroke-width:14;stroke-miterlimit:10;}
	.st52{fill:none;stroke:#EAEAEA;stroke-width:2;stroke-miterlimit:10;}
	.st53{fill:none;stroke:#8C8C8C;stroke-width:2;stroke-miterlimit:10;}
</style>
    <rect class="st0" height="500" width="500" x="-2" y="-1"/>
    <path class="st1" d="M240.5,150.3c-9.6,0-17.4,7.8-17.4,17.4s7.8,17.4,17.4,17.4s17.4-7.8,17.4-17.4
	C258,158.1,250.1,150.3,240.5,150.3L240.5,150.3z M240.5,178.4c-5.9,0-10.7-4.8-10.7-10.7c0-5.9,4.8-10.7,10.7-10.7
	c5.9,0,10.7,4.8,10.7,10.7C251.3,173.6,246.5,178.4,240.5,178.4z"/>
    <path class="st1" d="M355,112.2h-9.7V78.4l15.2-0.1v8.5c0,1.9,1.5,3.4,3.4,3.4c1.9,0,3.4-1.5,3.4-4v-8.2c1.8-0.7,3.1-2.5,3.1-4.6V61
	c0-2.7-2.2-5-5-5h-24.7c-2.7,0-5,2.2-5,5v12.4c0,2,1.2,3.7,2.9,4.5v34.3h-4.8c-7.1-20.8-26.7-35.8-49.9-35.8h-86.9
	c-29,0-52.6,23.6-52.6,52.6c0,29,23.6,52.6,52.6,52.6c4.9,0,9.7-0.6,14.4-1.6c4.8,11.3,16,19.2,29,19.2c13,0,24.2-7.9,29-19.2
	c4.7,1.1,9.5,1.6,14.4,1.6c23.2,0,42.9-15.1,49.9-35.9h4.7v90.3c0,11.8-9.6,21.3-21.3,21.3c-2.3,0-4.5-0.4-6.7-1.1
	c-1.8-0.6-3.7,0.4-4.2,2.1s0.4,3.7,2.1,4.2c2.8,0.9,5.8,1.4,8.7,1.4c15.5,0,28-12.6,28-28v-90.3h15.2V235
	c0,23.9-19.4,43.3-43.3,43.3c-22.7,0-41.4-17.6-43.1-39.9c3.2,0.5,5.9,0.5,7.4,0.5c0.2,0,0.3,0,0.5,0c0.4,0,0.8,0,1.3,0
	c1,0,3.3,0,6.1-0.3c0.1,1.6,0.5,4.1,1.6,7.1c2.7,7.3,9.1,15.5,18,17.3c4.1,0.8,8.7,0.2,9-1c0.3-1.2-3.3-2.1-9-6
	c-4.3-3-9.3-6.5-11.7-12.5c-1-2.5-1.2-4.7-1.3-6.1c1.8-0.5,3.7-1,5.6-1.8c10.2-4.3,15.7-12.2,15.9-22.9c0-2.9-1.1-5.6-3.1-7.7
	c-2-2-4.7-3.2-7.6-3.2c-4.7,0-8.8,3.1-10.2,7.5c-1.7,5.7-6.4,8.5-13.9,8.3c0,0-0.1,0-0.1,0c-7.5,0.2-12.2-2.7-13.9-8.3
	c-1.3-4.4-5.5-7.5-10.2-7.5c-2.9,0-5.6,1.1-7.6,3.2c-2,2.1-3.1,4.8-3.1,7.7c0.1,10.7,5.6,18.7,15.9,22.9c1.2,0.5,2.4,0.9,3.7,1.3
	c1,26.7,23,48.1,49.9,48.1c27.6,0,50-22.4,50-50V112.3C363.2,112.4,359.1,112.5,355,112.2z M240.5,192.5
	c-13.7,0-24.8-11.1-24.8-24.8s11.1-24.8,24.8-24.8c13.7,0,24.8,11.1,24.8,24.8C265.4,181.4,254.2,192.5,240.5,192.5z M284,175
	L284,175c-4.2,0-8.4-0.5-12.5-1.4c0.4-1.9,0.6-3.9,0.6-6c0-0.6,0-1.2-0.1-1.8c3,0.6,6,0.9,9.1,0.9c20.9,0,38-17,38-38s-17-38-38-38
	h-81.2c-5.7,0.2-15.5,1.5-23.6,8.3c-14.5,12-15.5,32.5-14.3,33c0.7,0.3,2.5-6.7,10-17c9.1-12.5,16-15.2,18.3-16
	c3.8-1.3,7.3-1.5,9.6-1.5h81.2c17.3,0,31.3,14,31.3,31.3c0,17.3-14,31.3-31.3,31.3c-3.6,0-7-0.5-10.4-1.4c-3.9-13-16-22.5-30.2-22.5
	c-14.3,0-26.3,9.5-30.2,22.5c-3.3,0.9-6.8,1.4-10.4,1.4c-17.3,0-31.3-14-31.3-31.3c0-4.7,1-9.3,3.1-13.5c0.6-1.2-1.3-2.2-1.6-4.5
	c-0.1-0.5,0-0.7-0.2-0.8c-0.8-0.4-5.2,4.4-7.1,10.1c0,0-1,4-1,8.7c0,20.9,17,38,38,38c3.1,0,6.1-0.3,9.1-0.9c0,0.6-0.1,1.2-0.1,1.8
	c0,2,0.2,4,0.6,6c-4.1,0.9-8.3,1.4-12.5,1.4c-25.3,0-45.9-20.6-45.9-45.9c0-25.3,20.6-45.9,45.9-45.9H284
	c25.3,0,45.9,20.6,45.9,45.9C329.9,154.4,309.3,175,284,175z M266.3,229.5L266.3,229.5c-7.8-3.2-11.6-8.7-11.7-16.8
	c0-1.1,0.4-2.1,1.1-2.9c0.8-0.8,1.8-1.2,2.8-1.2c1.7,0,3.3,1.1,3.8,2.7c1.5,4.9,6.1,13.1,19.8,13.1c0.2,0,0.4,0,0.6,0
	c0.2,0,0.4,0,0.6,0c13.7,0,18.3-8.2,19.8-13.1c0.5-1.6,2-2.7,3.8-2.7c1.1,0,2.1,0.4,2.8,1.2c0.8,0.8,1.2,1.8,1.1,2.9
	c-0.1,8.1-3.9,13.6-11.7,16.8c-6.5,2.7-13.6,2.8-15.6,2.8c-0.5,0-1,0-1.4,0C279.9,232.3,272.8,232.2,266.3,229.5z M342.4,62.7h21.2
	v8.8l-21.2,0.1h0V62.7z M360.6,139.1h-24.9c0.6-3.2,1-6.6,1-10c0-3.5-0.3-6.9-1-10.2h25V139.1z"/>
    <path class="st1"
          d="M363.9,74c-1.9,0-3.4,8.7-3.4,19.4V122c2.2,0,4.5-0.3,6.7-0.6v-28C367.3,82.7,365.8,74,363.9,74z"/>
    <g>
	<rect class="st24" height="144" width="500" x="-1" y="366"/>
        <text transform="matrix(1 0 0 1 142.0547 404.5557)"><tspan class="st23 st36 st37" x="0" y="0">Masque &amp; </tspan>
            <tspan class="st23 st36 st37" x="59" y="64.8">tuba</tspan></text>
</g>
</svg>
