<svg id="Calque_1" data-name="Calque 1" xmlns="http://www.w3.org/2000/svg" viewBox="0 0 350 300"><title>selected</title><path d="M159.53,89.25A17.45,17.45,0,1,0,177,106.7a17.47,17.47,0,0,0-17.45-17.45Zm0,28.19a10.74,10.74,0,1,1,10.74-10.74,10.75,10.75,0,0,1-10.74,10.74Z"/><path d="M284.39-5h-24.7a5,5,0,0,0-5,5V12.33a5,5,0,0,0,2.92,4.52V51.18h-4.79A52.74,52.74,0,0,0,203,15.43H116.07a52.65,52.65,0,0,0,0,105.29,65.07,65.07,0,0,0,14.45-1.64,31.54,31.54,0,0,0,58,0A64.46,64.46,0,0,0,203,120.72,52.74,52.74,0,0,0,252.9,84.81h4.74v90.28a21.34,21.34,0,0,1-28,20.27,3.49,3.49,0,0,0-1-.17l-.3,0c5.48,3.7,8.94,4.66,8.69,5.79-.19.85-2.36,1.38-5,1.38a20.28,20.28,0,0,1-2.87-.2,27.7,27.7,0,0,0,7.21.94,28.06,28.06,0,0,0,28-28V84.81h15.25V174a43.28,43.28,0,0,1-86.42,3.4,52.28,52.28,0,0,0,7.37.54h2.26a52.29,52.29,0,0,0,5.6-.33,27,27,0,0,0,1.59,7.11c2.69,7.28,9,15.48,18,17.25.36.07.73.13,1.1.18q-.76-.19-1.53-.45a3.35,3.35,0,0,1,.74-6.52L228,195c-4.33-3-9.26-6.52-11.69-12.48a17.82,17.82,0,0,1-1.28-6.05,40.15,40.15,0,0,0,5.57-1.82c10.23-4.25,15.71-12.18,15.85-22.91a10.67,10.67,0,0,0-20.85-3.37c-1.68,5.51-6.15,8.32-13.32,8.32H201c-7.14,0-11.62-2.82-13.29-8.32a10.68,10.68,0,0,0-20.86,3.37c.14,10.73,5.63,18.66,15.85,22.91,1.22.5,2.45.93,3.66,1.29A50,50,0,0,0,286.29,174V51.26c-2.1.05-4.2.1-6.3.1s-4,0-5.95-.18h-9.7V17.4l15.25-.1v8.51a3.35,3.35,0,0,0,3.35,3.35c1.85,0,3.35-1.5,3.35-4.05V16.92a5,5,0,0,0,3.07-4.59V0a5,5,0,0,0-5-5Zm-23,15.6V1.7h21.23v8.82l-21.21.08ZM116.08,114a45.95,45.95,0,0,1,0-91.89H203A45.95,45.95,0,1,1,203,114h0a57.78,57.78,0,0,1-12.48-1.37,31.51,31.51,0,0,0,.57-6q0-.93-.06-1.83a47.45,47.45,0,0,0,9.11.89,38,38,0,1,0,0-76H118.93c-5.67.23-15.45,1.51-23.6,8.27a41,41,0,0,0-12.13,18c2-4,4.8-7.09,5.67-7.09A.28.28,0,0,1,89,49c.15.08.12.28.18.78.24,2.31,2.12,3.32,1.56,4.48a2.2,2.2,0,0,0-.15.31L91,54c9.13-12.5,16-15.21,18.31-16a28.48,28.48,0,0,1,9.24-1.51h81.58a31.29,31.29,0,0,1,0,62.58,40.27,40.27,0,0,1-10.38-1.36,31.53,31.53,0,0,0-60.44,0,39.71,39.71,0,0,1-10.37,1.37A31.32,31.32,0,0,1,87.65,67.77a30.66,30.66,0,0,1,2.94-13.2c-6.93,9.64-8.76,16.2-9.51,16.43a38,38,0,0,0,37.86,34.76,46.67,46.67,0,0,0,9.11-.89q-.06.91-.06,1.83a31.51,31.51,0,0,0,.57,6A57.78,57.78,0,0,1,116.08,114ZM254.67,78.11a52.91,52.91,0,0,0,0-20.22h24.95V78.11Zm-95.14,53.43a24.84,24.84,0,1,1,24.84-24.84,24.86,24.86,0,0,1-24.84,24.84Zm42.71,31.85c13.71,0,18.27-8.15,19.77-13.07a4,4,0,0,1,6.59-1.53,4,4,0,0,1,1.15,2.86c-.11,8.07-3.94,13.57-11.72,16.81a42.34,42.34,0,0,1-15.27,2.8h-2.18a42.46,42.46,0,0,1-15.29-2.8c-7.78-3.24-11.62-8.74-11.72-16.81a4,4,0,0,1,7.73-1.33c1.5,4.92,6.06,13.07,19.77,13.07h1.17ZM83.2,56.06a22.16,22.16,0,0,0-1.25,3,36.19,36.19,0,0,0-.78,4.69,47.13,47.13,0,0,1,2-7.7Zm-2,7.7C80.43,68,80.56,70.84,81,71h.08c-.09-1.06-.14-2.14-.14-3.23a37.42,37.42,0,0,1,.23-4Z"/><path d="M282.94,13c-1.85,0-3.35,8.7-3.35,19.43V61h.23a47.27,47.27,0,0,0,6.47-.58v-28c0-10.73-1.5-19.43-3.35-19.43Z"/></svg>