<svg id="Calque_1" data-name="Calque 1" xmlns="http://www.w3.org/2000/svg" viewBox="0 0 350 300"><title>selected</title><path d="M194,183.33h0a7.07,7.07,0,0,1,6,3.36l16.46,27.2a7,7,0,0,1-2.37,9.61l-57.6,34.85a6.87,6.87,0,0,1-3.59,1,7,7,0,0,1-6-3.36L130.45,228.8a7,7,0,0,1,2.37-9.62l57.6-34.85a6.87,6.87,0,0,1,3.59-1m0-5a11.89,11.89,0,0,0-6.18,1.72l-57.6,34.86a12,12,0,0,0-4.06,16.47l16.46,27.2a12,12,0,0,0,10.3,5.77,11.89,11.89,0,0,0,6.18-1.72l57.6-34.85a12,12,0,0,0,4-16.48l-16.45-27.2a12,12,0,0,0-10.3-5.77Z"/><path d="M193.69,245.52a2.43,2.43,0,0,1-1.14,2.08l-4.29,2.59a2.36,2.36,0,0,1-1.22.34,2.48,2.48,0,0,1-1.37-.42c1.85-.93,3.58-2,5.22-3,1-.57,1.9-1.13,2.8-1.64m2.16-6.75a8.22,8.22,0,0,1-1.53.86c-5.15,2.18-10.37,6.75-16.27,8L180.7,252a7.4,7.4,0,0,0,6.34,3.56,7.32,7.32,0,0,0,3.81-1.06l4.28-2.6a7.41,7.41,0,0,0,2.5-10.15l-1.78-2.95Z"/><path d="M57.57,22.18a2.43,2.43,0,0,1,2.07,1.15L162.21,192.85c-.2.34-.39.7-.56,1.06a33.46,33.46,0,0,0-8.33,3.16L51.26,28.4A2.39,2.39,0,0,1,51,26.59a2.42,2.42,0,0,1,1.08-1.48l4.28-2.59a2.36,2.36,0,0,1,1.22-.34m0-5a7.34,7.34,0,0,0-3.81,1.06l-4.28,2.6A7.41,7.41,0,0,0,47,31L151.92,204.41l.24-.26c3.46-3.5,8.37-5,13.28-6a9.58,9.58,0,0,1,2.83-5L63.92,20.74a7.42,7.42,0,0,0-6.35-3.56Z"/></svg>