<svg id="Calque_1" data-name="Calque 1" xmlns="http://www.w3.org/2000/svg" viewBox="0 0 350 300"><title>selected</title><path d="M218.11,238l.11,0a.33.33,0,0,1,.19.41.34.34,0,0,1-.3.21l-.11,0a.33.33,0,0,1-.19-.41.34.34,0,0,1,.3-.21m0-4a4.32,4.32,0,1,0,1.61.31,4.32,4.32,0,0,0-1.61-.31Z"/><path d="M233,40.68a.27.27,0,0,1,.12,0l20,8,.06,0h0l23.94,9.64.09,0,23.93,9.63.09,0,23.94,9.64.07,0h0l20,8a.32.32,0,0,1,.17.42l-25.79,64.06-3.23,8a17.55,17.55,0,0,1-22.87,9.74l-16-6.45a8.32,8.32,0,0,0-10.82,4.61l-3.17,7.87-.05.13,0,.12L241.6,240.91l-.13.31,0,.18c-.13.38-.27.74-.41,1.09a21.9,21.9,0,1,1-40.62-16.36c.15-.38.32-.76.51-1.16h0l.06-.12.05-.11,0,0,29.72-63.48,0-.1,0-.1,3.18-7.9a8.31,8.31,0,0,0-4.6-10.82l-16-6.45A17.62,17.62,0,0,1,203.66,113l3.23-8,25.79-64.06a.35.35,0,0,1,.17-.17.31.31,0,0,1,.13,0m86.14,109.11,1.5-3.71L343.19,90l1.49-3.71L341,84.82,329,80l-3.71-1.49-1.49,3.71-11.29,28a.29.29,0,0,1-.17.17.28.28,0,0,1-.13,0l-.11,0a.33.33,0,0,1-.18-.17.31.31,0,0,1,0-.24l11.29-28,1.49-3.72L321,76.76l-16-6.45-3.71-1.49-1.49,3.71-11.29,28a.33.33,0,0,1-.17.18l-.12,0-.12,0a.29.29,0,0,1-.17-.17.27.27,0,0,1,0-.24l11.28-28,1.5-3.71-3.71-1.49-16-6.45-3.71-1.49-1.49,3.71-11.29,28a.29.29,0,0,1-.17.17.27.27,0,0,1-.12,0l-.12,0a.29.29,0,0,1-.17-.17.33.33,0,0,1,0-.24l11.29-28,1.5-3.71-3.72-1.49-16-6.45-3.71-1.5-1.5,3.71-11.29,28a.27.27,0,0,1-.16.17.31.31,0,0,1-.13,0,.27.27,0,0,1-.12,0,.29.29,0,0,1-.17-.17.31.31,0,0,1,0-.24l11.28-28,1.5-3.71-3.71-1.5-12-4.84-3.71-1.49-1.49,3.71-22.57,56.05-1.49,3.71,3.71,1.5,104.1,41.91,3.71,1.5M263,173.71l1.5-3.71,1.61-4a8.94,8.94,0,0,1,11.64-5l16,6.44a16.93,16.93,0,0,0,22-9.39l1.61-4,1.5-3.71-3.71-1.5L211.07,107l-3.71-1.5-1.49,3.71-1.62,4a17,17,0,0,0,9.39,22.05l16,6.45a8.95,8.95,0,0,1,5,11.64l-1.61,4-1.49,3.71,3.71,1.49,24,9.67,3.71,1.5m-61.32,51.2v0l-.06.13,0,.06c-.2.43-.38.84-.54,1.24a21.26,21.26,0,0,0,39.45,15.89c.17-.42.33-.86.49-1.36l20.64-63,1.17-3.56-3.48-1.4L234.78,163l-3.52-1.41-1.6,3.42-28,59.86M233,36.68a4.35,4.35,0,0,0-4,2.71l-25.79,64.06-3.23,8a21.62,21.62,0,0,0,12,28.08l16,6.45a4.3,4.3,0,0,1,2.39,5.61l-3.18,7.9-29.76,63.58h0c-.25.54-.48,1-.68,1.55A25.9,25.9,0,0,0,244.75,244c.2-.52.4-1,.59-1.63h0l21.84-66.73,3.17-7.88a4.33,4.33,0,0,1,5.62-2.39l16,6.45a21.56,21.56,0,0,0,28.07-12l3.23-8,25.79-64.06a4.32,4.32,0,0,0-2.39-5.62l-20-8-.09,0L302.7,64.42l-.08,0-23.94-9.63-.08,0-24-9.64-.08,0-20-8a4.47,4.47,0,0,0-1.61-.31Zm83.93,107.9L212.8,102.67l22.57-56,12,4.83-11.28,28a4.31,4.31,0,0,0,2.39,5.61,4.17,4.17,0,0,0,1.61.32,4.23,4.23,0,0,0,1.69-.35,4.3,4.3,0,0,0,2.32-2.36l11.28-28,16,6.45-11.29,28a4.32,4.32,0,0,0,4,5.93,4.43,4.43,0,0,0,1.69-.34,4.31,4.31,0,0,0,2.31-2.36l11.29-28,16,6.45-11.28,28a4.31,4.31,0,0,0,4,5.93,4.43,4.43,0,0,0,1.69-.34,4.31,4.31,0,0,0,2.31-2.36l11.29-28,16,6.45-11.29,28a4.31,4.31,0,0,0,2.39,5.61,4.2,4.2,0,0,0,1.61.32,4.33,4.33,0,0,0,4-2.71l11.29-28,12,4.83-22.57,56.05ZM260.75,168.5l-24-9.67,1.61-4A13,13,0,0,0,231.16,138l-16-6.45A13,13,0,0,1,208,114.68l1.62-4,104.1,41.91-1.61,4a12.91,12.91,0,0,1-16.85,7.17l-16-6.45a13,13,0,0,0-16.84,7.18l-1.61,4ZM220.7,251.58a17.28,17.28,0,0,1-16-23.72c.14-.35.3-.71.48-1.09v0l28.08-60,24.5,9.86-20.64,63c-.13.4-.26.76-.4,1.1a17.37,17.37,0,0,1-16,10.83Z"/><path d="M264.42,52.5a4,4,0,0,0-3.7,2.47L249,83.22a4,4,0,1,0,7.39,3.06L268.11,58a4,4,0,0,0-2.17-5.22,3.86,3.86,0,0,0-1.52-.31Z"/><path d="M287.42,63.5a4,4,0,0,0-3.7,2.47L272,94.22a4,4,0,1,0,7.39,3.06L291.11,69a4,4,0,0,0-2.17-5.22,3.86,3.86,0,0,0-1.52-.31Z"/><path d="M311.42,72.5a4,4,0,0,0-3.7,2.47L296,103.22a4,4,0,1,0,7.39,3.06L315.11,78a4,4,0,0,0-2.17-5.22,3.86,3.86,0,0,0-1.52-.31Z"/><path d="M129.42,25.47a9,9,0,0,1,7.73,4.28l6.9,11.1,2.11,3.4,3.4-2.11,18.5-11.5a.32.32,0,0,1,.18-.06.35.35,0,0,1,.31.17l27.6,44.41a.32.32,0,0,1,0,.27.32.32,0,0,1-.16.22L108.7,129.93,105.3,132l2.11,3.39,17.48,28.13L127,167l3.4-2.12,7.4-4.59a9.06,9.06,0,0,1,12.49,2.91l4.6,7.4a9.08,9.08,0,0,1-.62,10.46l-1.76,2.21,1.49,2.4,29.37,47.26a9.09,9.09,0,0,1-2.92,12.49l-7.4,4.6a9.06,9.06,0,0,1-12.49-2.91L131.19,199.8l-1.49-2.4-2.76.61a9.1,9.1,0,0,1-9.66-4.07l-4.6-7.4A9.09,9.09,0,0,1,115.6,174l7.4-4.6,3.4-2.11-2.11-3.39-19.78-31.83a.35.35,0,0,1,.11-.49L192,77.34l3.39-2.11-2.11-3.39-23-37-2.12-3.4-3.39,2.11-14.81,9.2-3.39,2.11,2.11,3.4,6.9,11.1a9.1,9.1,0,0,1-2.92,12.5L29.77,148.2a9.08,9.08,0,0,1-12.49-2.92l-6.9-11.1-2-3.28L5,132.82l-3,1.71,0,0-.05,0a.79.79,0,0,1-.42.12,1,1,0,0,1-.25,0h0a.42.42,0,0,1,0-.06l1.46-1,2-1.43L7.76,130l-2-3.19-6.9-11.1a9.09,9.09,0,0,1,2.92-12.5L46.57,75.36a.33.33,0,0,1,.19-.06.38.38,0,0,1,.31.17A.36.36,0,0,1,47,76L2.17,103.79A8.36,8.36,0,0,0-.51,115.3l18.39,29.6a8.35,8.35,0,0,0,11.51,2.69L152.25,71.24a8.37,8.37,0,0,0,2.69-11.51l-18.4-29.61A8.36,8.36,0,0,0,125,27.44L80.26,55.26a.33.33,0,0,1-.19.06.38.38,0,0,1-.31-.17.36.36,0,0,1,.12-.49l44.78-27.83a9,9,0,0,1,4.76-1.36m-4.43,172a8.39,8.39,0,0,0,4.41-1.26l22.2-13.8a8.37,8.37,0,0,0,2.69-11.51l-4.6-7.4a8.35,8.35,0,0,0-11.51-2.69L116,174.65a8.37,8.37,0,0,0-2.69,11.51l4.6,7.4a8.31,8.31,0,0,0,7.1,3.95m43.28,53.13a8.33,8.33,0,0,0,4.4-1.26l7.41-4.6a8.37,8.37,0,0,0,2.68-11.51l-29-46.63-2.12-3.4-3.39,2.11-14.81,9.2-3.39,2.12,2.11,3.39,29,46.63a8.31,8.31,0,0,0,7.1,3.95M129.42,21.47a13,13,0,0,0-6.87,2L77.77,51.26a4.36,4.36,0,0,0,2.3,8.06,4.31,4.31,0,0,0,2.3-.66l44.78-27.82a4.25,4.25,0,0,1,2.29-.66,4.36,4.36,0,0,1,3.71,2.06l18.39,29.6a4.36,4.36,0,0,1-1.4,6L27.28,144.19a4.27,4.27,0,0,1-2.29.66,4.36,4.36,0,0,1-3.71-2.06l-18.4-29.6a4.37,4.37,0,0,1,1.4-6L49.06,79.36a4.36,4.36,0,0,0-2.3-8.06,4.31,4.31,0,0,0-2.3.66L-.31,99.79a13.08,13.08,0,0,0-4.21,18l6.9,11.1L-2,132a4.45,4.45,0,0,0,0,5,4.29,4.29,0,0,0,3.5,1.7A4.81,4.81,0,0,0,4,138l3-1.71,6.9,11.1A13.07,13.07,0,0,0,25,153.56a12.91,12.91,0,0,0,6.88-2L154.74,75.24a13.08,13.08,0,0,0,4.2-18l-6.89-11.1,14.8-9.2,23,37-87.34,54.27a4.36,4.36,0,0,0-1.4,6l19.78,31.83-7.4,4.6a13.08,13.08,0,0,0-4.21,18l4.6,7.4A13.09,13.09,0,0,0,125,202.22a12.54,12.54,0,0,0,2.78-.31l29.37,47.27a13.07,13.07,0,0,0,18,4.2l7.4-4.6a13.08,13.08,0,0,0,4.21-18l-29.38-47.26a13.09,13.09,0,0,0,.9-15.07l-4.6-7.4a13.07,13.07,0,0,0-18-4.2l-7.4,4.6-17.48-28.13,87.34-54.27a4.36,4.36,0,0,0,1.4-6L172,28.64a4.36,4.36,0,0,0-3.71-2.06,4.3,4.3,0,0,0-2.29.66l-18.5,11.5-6.9-11.1a13.09,13.09,0,0,0-11.13-6.17Zm-4.43,172a4.33,4.33,0,0,1-3.7-2.06l-4.6-7.4a4.36,4.36,0,0,1,1.4-6l22.2-13.8a4.35,4.35,0,0,1,6,1.4l4.6,7.4a4.36,4.36,0,0,1-1.4,6l-22.2,13.8a4.4,4.4,0,0,1-2.3.66Zm43.28,53.13a4.36,4.36,0,0,1-3.71-2.06l-29-46.63,14.8-9.2,29,46.63a4.36,4.36,0,0,1-1.41,6l-7.4,4.6a4.36,4.36,0,0,1-2.29.66Z"/><path d="M121.08,29.08l.2.31L5.69,101.56l-.19-.31L121.08,29.08m1.28-5.51L0,100l4.43,7.09L126.79,30.66l-4.43-7.09Z"/></svg>