<svg id="Calque_1" data-name="Calque 1" xmlns="http://www.w3.org/2000/svg" viewBox="0 0 350 300"><defs><style>.cls-1{fill:none;stroke:#000;stroke-miterlimit:10;stroke-width:5px;}</style></defs><title>selected</title><path class="cls-1" d="M234.28,126.92l6.36-70.13h.58l6.36,69.83v10h-13.3Zm0,16.33h13.3v6.65h-13.3Zm0,13.3h13.3v6.65h-13.3Zm0,13.3h13.3v6.65h-13.3Zm0,13.3h13.3v6.65h-13.3Zm0,13.3h13.3v6.65h-13.3Zm0,39.9v-26.6h13.3v26.6a6.65,6.65,0,1,1-13.3,0"/><path d="M209.32,117.53V131.6H206v-9.12l3.3-5m0,97.22v21.6a1.65,1.65,0,0,1-3.3,0v-21.6h3.3m9.94-158h-6.07L206.1,73.32a16.8,16.8,0,0,0-1.26,8.2l2.82,28.13a3.35,3.35,0,0,1-.54,2.18L201,121V136.6h13.3V110l-3-29.5a16.63,16.63,0,0,1,1.27-8.21l6.65-15.49Zm-4.94,86.46H201v6.65h13.3v-6.65Zm0,13.3H201v6.65h13.3v-6.65Zm0,13.3H201v6.65h13.3v-6.65Zm0,13.3H201v6.65h13.3v-6.65Zm0,13.3H201v6.65h13.3v-6.65Zm0,13.3H201v26.6a6.65,6.65,0,0,0,13.3,0v-26.6Z"/><path class="cls-1" d="M176,148.88q-14.94,1.29-29.93,2c5.28-3.1,10.6-6.18,15.77-9.39,4.48-2.79,8.9-6,11.46-10.12,2.41-3.92,3.31-8.6,1.25-12.75-.93-1.87-2.86-3.4-3.67-5.29-1-2.39,1.06-5.47,1.31-7.95.53-5.35-1.74-10.52-3-15.69-1.12-4.53-1.46-9.61,2.34-13.41,2-2,4.36-3.68,5.37-6.18A8.39,8.39,0,0,0,177,64.4c-1.36-4.26-5.67-8-5.23-12.55.16-1.65-1.94-2.39-3.61-2.2-8.13.89-16.55,1.81-24.71.56-7.66-1.18-14.84-3.56-22.71-3.89a61.69,61.69,0,0,0-10.44.47c-3.14.39-7.23.74-8.76,3.37-1.16,2-.19,4.1.8,6,1.63,3.11,1.53,5.54-.44,8.6-3.32,5.16-8.59,9.36-12.15,14.43S84.05,89.79,85,95.51s5.48,9.35,9.47,13.76C99.14,114.4,98.67,120,99.37,126c1.17,10.16,8.2,19.4,19,24.68a2.3,2.3,0,0,0,.36.64l.35.42q-17.9.24-35.8-.33c-3.66-.12-3.66,4.46,0,4.58q22.47.72,45,.15a18.63,18.63,0,0,0,2.8.12,21.24,21.24,0,0,0,2.8-.28q21.17-.7,42.25-2.53c3.6-.32,3.65-4.9,0-4.58"/><path class="cls-1" d="M169.29,133.64c-10.46-4.55-24.25-7.06-38.85-7.06s-28.38,2.51-38.84,7.06C80.25,138.58,74,145.47,74,153v16.54c0,5.3,3.09,12.69,17.83,17.84,7.61,2.65,17.56,4.38,28.69,5v6c2.21,0,4.41,0,6.62.06V192.7c1.09,0,5.52,0,6.61,0v6l6.62.14v-6.34c11.12-.65,21.08-2.38,28.69-5,14.74-5.15,17.83-12.54,17.83-17.84V153c0-7.57-6.25-14.46-17.6-19.4m11,35.94c0,6-8.39,9.85-13.39,11.59-9.13,3.19-22.07,4.94-36.44,4.94s-27.31-1.75-36.43-4.94c-5-1.74-13.4-5.57-13.4-11.59v-3.82a41.72,41.72,0,0,0,11,6.68c10.46,4.55,24.25,7.06,38.84,7.06s28.39-2.51,38.85-7.06a41.65,41.65,0,0,0,11-6.68Zm-13.62-3.2c-9.64,4.19-22.5,6.51-36.21,6.51s-26.56-2.32-36.2-6.51c-8.66-3.77-13.63-8.63-13.63-13.34s5-9.57,13.63-13.34c9.64-4.19,22.5-6.5,36.2-6.5s26.57,2.31,36.21,6.5c8.66,3.77,13.62,8.63,13.62,13.34s-5,9.57-13.62,13.34"/><path class="cls-1" d="M140.37,200.39V192l-6.62-.19v20.49c0,2.41-1.48,4.38-3.31,4.38s-3.3-2-3.3-4.38V191.71c-2.21,0-4.41-.06-6.62-.08v8.76c-12,3-19.84,11-19.84,20.71,0,6.42,3.4,12.22,9.58,16.31a39.24,39.24,0,0,0,40.37,0c6.18-4.09,9.58-9.89,9.58-16.31,0-9.68-7.86-17.75-19.84-20.71"/></svg>