<?xml version="1.0" encoding="utf-8"?>
<!-- Generator: Adobe Illustrator 22.1.0, SVG Export Plug-In . SVG Version: 6.00 Build 0)  -->
<svg style="enable-background:new 0 0 500 500;" id="Calque_1" version="1.1" viewBox="0 0 500 500" x="0px"
     xmlns="http://www.w3.org/2000/svg" y="0px" xml:space="preserve">
<style type="text/css">
	.st0{fill:#4FBDD7;}
	.st1{fill:#EAEAEA;}
	.st2{fill:#FFFFFF;}
	.st3{fill:#4FBDD7;stroke:#FFFFFF;stroke-width:5;stroke-miterlimit:10;}
	.st4{fill:#8C8C8C;}
	.st5{fill:#070707;}
	.st6{fill:none;stroke:#FFFFFF;stroke-width:7;stroke-miterlimit:10;}
	.st7{fill:none;stroke:#FFFFFF;stroke-width:10;stroke-miterlimit:10;}
	.st8{fill:#FFFFFF;stroke:#FFFFFF;stroke-width:3;stroke-miterlimit:10;}
	.st9{fill:none;stroke:#FDFFFF;stroke-width:6;stroke-miterlimit:10;}
	.st10{fill:#FAFEFF;}
	.st11{fill:none;stroke:#FFFFFF;stroke-width:2;stroke-miterlimit:10;}
	.st12{fill:#FFFFFF;stroke:#FFFFFF;stroke-width:2;stroke-miterlimit:10;}
	.st13{fill:#4FBDD7;stroke:#FFFFFF;stroke-width:4;stroke-miterlimit:10;}
	.st14{fill:#FFFFFF;stroke:#FFFFFF;stroke-width:4;stroke-miterlimit:10;}
	.st15{fill:none;stroke:#FFFFFF;stroke-miterlimit:10;}
	.st16{fill:#FFFFFF;stroke:#FFFFFF;stroke-width:13;stroke-miterlimit:10;}
	.st17{fill:#4FBDD7;stroke:#FFFFFF;stroke-width:8;stroke-miterlimit:10;}
	.st18{fill:#FFFFFF;stroke:#FFFFFF;stroke-width:0.75;stroke-miterlimit:10;}
	.st19{fill:#FFFFFF;stroke:#FFFFFF;stroke-width:0.5;stroke-miterlimit:10;}
	.st20{fill:#FFFFFF;stroke:#FFFFFF;stroke-width:8;stroke-miterlimit:10;}
	.st21{fill:#FFFFFF;stroke:#FFFFFF;stroke-miterlimit:10;}
	.st22{fill:#FFFFFF;stroke:#FFFFFF;stroke-width:11;stroke-miterlimit:10;}
	.st23{fill:#FFFFFF;stroke:#FFFFFF;stroke-width:6;stroke-miterlimit:10;}
	.st24{fill:#8C8C8C;stroke:#8C8C8C;stroke-width:4;stroke-miterlimit:10;}
	.st25{fill:#FFFFFF;stroke:#FFFFFF;stroke-width:1.05;stroke-miterlimit:10;}
	.st26{fill:none;stroke:#4FBDD7;stroke-width:5;stroke-miterlimit:10;}
	.st27{fill:none;stroke:#FFFFFF;stroke-width:4;stroke-miterlimit:10;}
	.st28{fill:#8C8C8C;stroke:#FFFFFF;stroke-width:4;stroke-miterlimit:10;}
	.st29{fill:#FFFFFF;stroke:#FFFFFF;stroke-width:10;stroke-miterlimit:10;}
	.st30{fill:none;stroke:#4FBDD7;stroke-width:2;stroke-miterlimit:10;}
	.st31{fill-rule:evenodd;clip-rule:evenodd;fill:#FFFFFF;}
	.st32{fill:#FFFFFF;stroke:#FFFFFF;stroke-width:7;stroke-miterlimit:10;}
	.st33{fill:#FFFFFF;stroke:#4FBDD7;stroke-width:7;stroke-miterlimit:10;}
	.st34{fill:#FCFCFC;}
	.st35{fill:#FFFFFF;stroke:#FFFFFF;stroke-width:5;stroke-miterlimit:10;}
	.st36{fill:none;}
	.st37{font-family:'HelveticaNeue-CondensedBold';}
	.st38{font-size:54px;}
	.st39{fill:none;stroke:#FFFFFF;stroke-width:3;stroke-miterlimit:10;}
	.st40{fill:none;stroke:#FFFFFF;stroke-width:8;stroke-miterlimit:10;}
	.st41{fill:none;stroke:#FFFFFF;stroke-width:6;stroke-miterlimit:10;}
	.st42{fill:#FFFFFF;stroke:#4FBDD7;stroke-width:3;stroke-miterlimit:10;}
	.st43{fill:none;stroke:#FFFFFF;stroke-width:0.75;stroke-miterlimit:10;}
	.st44{fill:#4FBDD7;stroke:#FFFFFF;stroke-width:9;stroke-miterlimit:10;}
	.st45{fill:none;stroke:#FFFFFF;stroke-width:9;stroke-miterlimit:10;}
	.st46{fill:none;stroke:#4FBDD7;stroke-width:3;stroke-miterlimit:10;}
</style>
    <rect class="st0" height="500" width="502" x="-1"/>
    <g>
	<rect class="st36" height="144" width="500" x="-1" y="367"/>
        <text transform="matrix(1 0 0 1 161.0898 405.5557)"><tspan class="st2 st37 st38" x="0" y="0">Matériel </tspan>
            <tspan class="st2 st37 st38" x="-51.5" y="64.8">d’impression</tspan></text>
</g>
    <g>
	<g>
		<path class="st2" d="M340.3,88v52.6h-50.8V136c0-8.8-7.2-16-16-16h-6.9v-12.6c0-10.7-8.7-19.4-19.4-19.4h-24.3
			c-10.7,0-19.4,8.7-19.4,19.4c0,3.2-2.6,5.7-5.7,5.7h-18.5V88h-15.1c-0.3,78.1-0.5,156.2-0.8,234.3H354V88H340.3z M277.8,129.6
			c1.6,0,2.9,1.3,2.9,2.9v28.6c0,1.6-1.3,2.9-2.9,2.9h-35.3c-1.6,0-2.9-1.3-2.9-2.9v-28.6c0-1.6,1.3-2.9,2.9-2.9H277.8z
			 M179.2,126.9h18.5c10.7,0,19.4-8.7,19.4-19.4c0-3.2,2.6-5.7,5.7-5.7h24.3c3.2,0,5.7,2.6,5.7,5.7V120H246c-8.8,0-16,7.2-16,16v4.6
			h-50.8V126.9z M340.3,308.6h-45.8v-48.3l21.1,5.6l10-44.2l-42.9-17.6l-2.2,0.6c-13.5,3.7-27.8,3.7-41.4,0l-2.2-0.6l-42.9,17.6
			l10,44.2l21.1-5.6v48.3h-45.8V154.4H230v4.6c0,8.8,7.2,16,16,16h6.9v13.7c2.3,2.3,4.6,4.6,6.9,6.9c2.3-2.3,4.6-4.6,6.9-6.9
			c0-4.6,0-9.2,0-13.7h6.9c8.8,0,16-7.2,16-16v-4.6h50.8V308.6z"/>
	</g>
</g>
</svg>
