<svg id="Calque_1" data-name="Calque 1" xmlns="http://www.w3.org/2000/svg" viewBox="0 0 350 300"><defs><style>.cls-1{fill:none;stroke:#000;stroke-miterlimit:10;stroke-width:4px;}</style></defs><title>selected</title><g id="N2Km1Q.tif"><path d="M180.28,135.59v10.66h-8.81V135.59h8.81m4-4H167.47v18.66h16.81V131.59Z"/><path d="M210.82,51.31l2.61,2.63,3.84,3.87-3.34,2.78-6.21,5.18-5.6-5.28,8.7-9.18m-.06-5.74-14.3,15.08,11.1,10.47,15.63-13L210.76,45.57Z"/><path d="M209.51,120.52l7,6.66.35.34-1.83,2a46.9,46.9,0,0,1-4.84,5C209,133.78,206.6,131,204,128l-1.1-1.28,6.58-6.16m0-5.49-12.15,11.36c7.33,8.37,10.12,12.33,12.84,12.33s5.32-3.94,12.26-11.41L209.53,115Z"/><path d="M140.69,51.66,147.35,59,149,60.81l-1.61,1.59-4.29,4.24-8.79-8.54,6.34-6.44m.11-5.82L128.67,58.16l14.49,14.08L154.58,61,140.8,45.84Z"/><path d="M179.87,40.31v10.5H171.8V40.31h8.07m4-4H167.8v18.5h16.07V36.31Z"/><path d="M134.07,89.31v8.22a34.15,34.15,0,0,1-7.91,1.33c-.77,0-2.14-.08-2.6-.63s-1.2-2.63-.36-8.92h10.87m4-4h-18.3c-2.19,12.49-.94,17.55,6.39,17.55,2.93,0,6.85-.81,11.9-2.28,0-4.76,0-9.52,0-15.27Z"/><path d="M142.94,119.77l1.48,1.58,4.49,4.81c-3.27,4-6.32,7.57-7.68,8.25-1-.63-3.13-3.26-5-5.6l-.7-.86,7.43-8.18m0-5.91-12.67,14c5.65,6.79,8.13,10.66,11,10.66s6-3.85,13-12.5L142.9,113.86Z"/><path d="M217.72,88.49l1.14.09a45.59,45.59,0,0,1,10.3,1.6,23.72,23.72,0,0,1,0,6.13c-2.74,1-6.11,1.38-9.94,1.74l-1.49.15V88.49m-4-4.43V102.7c6.88-1,13.28-.78,18.33-3.3,1.78-.88,1.67-11.67,0-12.38-5.37-2.34-11.85-2.13-18.36-3Z"/></g><path d="M176,38a54.87,54.87,0,1,1-54.87,54.87A54.93,54.93,0,0,1,176,38m0-4A58.87,58.87,0,1,0,234.9,92.87,58.87,58.87,0,0,0,176,34Z"/><path d="M175.23,60.58a33.1,33.1,0,1,1-33.1,33.1,33.13,33.13,0,0,1,33.1-33.1m0-4a37.1,37.1,0,1,0,37.09,37.1,37.1,37.1,0,0,0-37.09-37.1Z"/><path class="cls-1" d="M234.9,83.8q18.56,71.07,37.1,142.14H72Q95.07,154.87,118.15,83.8"/><line class="cls-1" x1="81.68" y1="198.52" x2="260.71" y2="198.52"/></svg>