<svg id="Calque_1" data-name="Calque 1" xmlns="http://www.w3.org/2000/svg" viewBox="0 0 350 300"><title>selected</title><path d="M89.24,82.22a3.13,3.13,0,0,0-3.13,3.13V93a24.74,24.74,0,0,0-24.68,22.46l-4.5,47.08a15.64,15.64,0,0,0,15.58,17.11H74v5.71a7.83,7.83,0,0,0,7.83,7.81h3.51v15.58H46.13A3.13,3.13,0,0,0,43,211.87v22.89a18.82,18.82,0,0,0,18.81,18.78H82.22a3.13,3.13,0,1,0,0-6.26H61.81a12.55,12.55,0,0,1-12.55-12.52V215H66.4v8a3.13,3.13,0,0,0,3.13,3.13H109a3.13,3.13,0,0,0,3.13-3.13v-8h30.56v-6.26h-51V193.16h3.51a7.83,7.83,0,0,0,7.82-7.81v-5.71h.71a16.46,16.46,0,0,0,15.87-12.15l3.69-13.76a7.3,7.3,0,0,1,7-5.39h48.67a6.21,6.21,0,0,1,6.21,6.2v48a6.21,6.21,0,0,1-6.21,6.2H168.65a3.13,3.13,0,1,0,0,6.26h10.28a12.48,12.48,0,0,0,12.47-12.46v-48a12.47,12.47,0,0,0-12.47-12.45H130.26a13.57,13.57,0,0,0-13.09,10l-3.69,13.76a10.18,10.18,0,0,1-9.82,7.51H72.51a9.37,9.37,0,0,1-9.34-10.25L67.66,116a18.5,18.5,0,0,1,18.5-16.79h21.35a3.13,3.13,0,1,0,0-6.26H92.37V85.35a3.13,3.13,0,0,0-3.13-3.13ZM81.85,186.9a1.55,1.55,0,0,1-1.56-1.55v-5.71h16.4v5.71a1.55,1.55,0,0,1-1.56,1.55Zm-9.19,32.95V215h33.15v4.85Z"/><path d="M166.87,208.74H132V215h34.83c6.52,0,11.81-1.4,11.81-3.13s-5.29-3.13-11.81-3.13Z"/><path d="M217.79,72.74V94.25H200.17V72.74h17.62M209,60.51a3.37,3.37,0,0,0-3.58,3.12v4.11h-6.63a3.38,3.38,0,0,0-3.59,3.13V93h-95a3.16,3.16,0,1,0,0,6.26H226.56c11.73,0,21.27,8.32,21.27,18.55v117c0,6.9-6.44,12.52-14.36,12.52H71.18a3.16,3.16,0,1,0,0,6.26H233.47c11.87,0,21.53-8.43,21.53-18.78v-117C255,104.12,242.24,93,226.56,93h-3.77V70.87a3.38,3.38,0,0,0-3.59-3.13h-6.64V63.63A3.38,3.38,0,0,0,209,60.51Z"/><path d="M219.7,141.43a20.67,20.67,0,1,0,20.67,20.67,20.69,20.69,0,0,0-20.67-20.67Zm0,32.93A12.26,12.26,0,1,1,232,162.1a12.27,12.27,0,0,1-12.26,12.26Z"/></svg>