<svg id="Calque_1" data-name="Calque 1" xmlns="http://www.w3.org/2000/svg" viewBox="0 0 350 300"><title>selected</title><path d="M163.41,40.94a30.88,30.88,0,0,1,10.26,6c3,2.62,5.91,3.9,8.9,3.9,3.24,0,6.3-1.49,9.35-4.57a8.56,8.56,0,0,1,2.77-2.16,4.92,4.92,0,0,1,1.06,1.4c1.18,2.06,1.25,2.19-1.93,5.14-.84.77-1.8,1.65-2.74,2.67l-3.26,3.54,4.08,2.56c1.95,1.23,3.87,2.46,5.72,3.65,5.28,3.39,10.26,6.59,15.49,9.3a5.07,5.07,0,0,0,2.33.56c2.63,0,4.69-1.87,6.68-3.67.43-.39.83-.75,1.17-1A16.83,16.83,0,0,1,227,65.72a4.9,4.9,0,0,1,.71,1.19c.18.86-.5,3.51-.92,5.11-.12.46-.24.93-.35,1.39L217,74.86l8.32,5.71,2.92,2,6.68,4.59c2.83,1.94,2.93,3.49,2.12,5.68a6,6,0,0,1-.49,1.05,9.26,9.26,0,0,1-2-1l-1-.67-.63-.43c-7.77-5.16-12.4-8.08-17.27-8.08-6.7,0-11.46,5.57-19.36,14.8l-2.92,3.42,3.74,2.51c1.18.79,2.35,1.48,3.48,2.16a26,26,0,0,1,6.12,4.44c1.31,1.45,2.5,4.95,2.28,6.14a6,6,0,0,1-.18.77,7.67,7.67,0,0,1-1.65-.87l-.74-.5c-.51-.35-1-.7-1.54-1-6.82-4.41-12.08-7.14-17.19-7.14-7.23,0-12.65,5.12-20.72,15.22L164.28,127l3.66,2.42,3.21,2.1c2.34,1.52,4.54,3,6.74,4.47,3.37,2.29,3.55,3.71,2.67,6a5.84,5.84,0,0,1-.55,1.13,11.54,11.54,0,0,1-2.46-1.35c-.71-.48-1.42-.92-2.11-1.35a30.6,30.6,0,0,1-3.62-2.48c-3-2.52-7.51-5.87-12.73-5.87-4.44,0-8.48,2.37-12,7a5.71,5.71,0,0,1-1.5,1.47,6.15,6.15,0,0,1-1-1.62c-1.14-2.47-.69-3.69,2.31-6.22.4-.34.88-.68,1.61-1.19l1.62-1.17,4.65-3.38L150,123.85c-1.79-1.19-3.53-2.37-5.25-3.52-5-3.37-9.72-6.56-14.62-9.46a5.51,5.51,0,0,0-2.8-.75c-2.25,0-4.29,1.24-6.19,2.51a29,29,0,0,0-3.26,2.66,12.29,12.29,0,0,1-3.11,2.34,2.84,2.84,0,0,1-.74.08,5.13,5.13,0,0,1-1.08-.12,16.69,16.69,0,0,1,.82-5.74,9.78,9.78,0,0,1,1.53-1.53c.68-.61,1.45-1.29,2.25-2.15l3.16-3.37-3.79-2.64-3.46-2.45c-2.43-1.73-4.73-3.37-7.1-4.87-2.65-1.68-2.09-2.62-1.72-3.24a3.68,3.68,0,0,1,2.21-1.25c3.64,1.39,7.38,4,11,6.54l.88.62a11.77,11.77,0,0,0,6.75,2.46,10.38,10.38,0,0,0,7.29-3.35c3-2.94,6.23-5.68,9.66-8.57,1.56-1.32,3.18-2.69,4.85-4.14l3.93-3.41-4.3-2.92c-1.29-.87-2.53-1.65-3.73-2.41a40.32,40.32,0,0,1-6.83-5c-1.37-1.34-2.61-4.14-2.55-5a4.61,4.61,0,0,1,.24-1.13,5.82,5.82,0,0,1,1.63.65c4.26,2.38,8.48,5,12.56,7.48l5,3,2.49,1.5,2.19-1.9,12.68-11L175,60,179,56.57l-4.3-2.92c-1.37-.94-2.69-1.77-4-2.58a47.54,47.54,0,0,1-7.25-5.25,13.9,13.9,0,0,1-1.63-3.68c.47-.38,1.12-.91,1.58-1.2M187.48,99.3l2.34-2.12L194.43,93l13-11.78,3.78-3.44L207,74.92l-11-7.39-10.72-7.2-2.67-1.79-2.32,2.22-8.46,8.09-8.45,8.09-3.56,3.41,4.07,2.78,21,14.39,2.61,1.78M158,121.74a5.83,5.83,0,0,0,3.76-1.26c4.41-3.6,8.8-7.37,13.45-11.36l4.53-3.88,4-3.45-4.43-2.93c-1.76-1.15-3.45-2.27-5.09-3.36-4.94-3.27-9.6-6.35-14.22-9.31a8.18,8.18,0,0,0-4.19-1.28,5.28,5.28,0,0,0-3.39,1.16c-4.53,3.71-9.05,7.6-13.84,11.71l-4.51,3.88L130,105.14l4.5,2.91,5.21,3.38c5.26,3.41,9.79,6.35,14.46,9.25a7.22,7.22,0,0,0,3.79,1.06m5.33-84.94c-1.89,0-4.19,2.66-6.28,3.93,1.19,2.73,1.91,6.33,3.68,8,3.37,3.17,7.34,5.25,11.71,8.22L155.23,71.83c-5.59-3.37-11.56-7.18-17.66-10.58a8.21,8.21,0,0,0-3.83-1.18c-2,0-3.56,1.22-4,4.69-.29,2.48,1.86,6.49,3.74,8.32,3.2,3.12,7.06,5.06,11.1,7.81-5.39,4.67-10.21,8.48-14.69,12.87A6.46,6.46,0,0,1,125.43,96,8,8,0,0,1,121,94.23c-4.19-2.93-8.45-6-13-7.7a3.21,3.21,0,0,0-1.14-.19,7.46,7.46,0,0,0-5.72,3.21c-2.22,3.73,0,6.73,3,8.67,3.32,2.1,6.53,4.51,10.41,7.22-2,2.17-4.11,3.31-4.69,5.24-.83,2.84-1.53,7-.5,9.17.57,1.22,2.69,1.86,4.59,1.86a6.35,6.35,0,0,0,2-.3c2.64-.91,4.79-3.78,7.3-5.46,1.17-.78,2.77-1.83,4-1.83a1.39,1.39,0,0,1,.76.19c6.49,3.84,12.78,8.27,19.7,12.87-1.75,1.27-2.63,1.84-3.46,2.53-3,2.58-5.81,5.67-3.36,11,1.32,2.87,2.92,4,4.53,4s3.38-1.26,4.8-3.14c2.93-3.87,5.86-5.46,8.83-5.46,3.31,0,6.67,2,10.14,4.92a63.74,63.74,0,0,0,6.1,4.1c1.68,1.12,3.39,2.08,4.94,2.08s3-1,4-3.75c2.07-5.42-.76-8.43-4.15-10.74s-6.52-4.31-10-6.6c7.56-9.45,12.12-13.72,17.59-13.72,4,0,8.51,2.28,15,6.5.75.48,1.48,1,2.22,1.49A8.35,8.35,0,0,0,209.3,122c1.73,0,3.14-1.13,3.68-4.16.49-2.73-1.36-7.44-3.26-9.54-2.87-3.16-6.72-4.81-10.34-7.24,7.91-9.25,11.71-13.4,16.32-13.4,3.67,0,7.86,2.63,15.06,7.42l1.67,1.11A8.8,8.8,0,0,0,236.85,98c1.56,0,3-1,4-3.74,1.83-4.93-.28-8.08-3.61-10.36l-9.6-6.59,2.13-.33c.64-4,2.8-9,1.61-11.64s-2.66-3.63-4.2-3.63c-2.08,0-4.32,1.76-6.39,3.46-1.66,1.36-3.87,3.79-5.31,3.79a1.17,1.17,0,0,1-.49-.11C208.06,65.25,201.44,60.69,194,56c4-4.37,8.77-6.27,5.2-12.51-1.42-2.49-2.93-3.43-4.44-3.43-1.94,0-3.89,1.54-5.7,3.36-2.19,2.21-4.3,3.39-6.51,3.39-2,0-4-.93-6.27-2.91a34.41,34.41,0,0,0-12.46-7,1.89,1.89,0,0,0-.53-.08Zm23.82,57.41-21-14.38q8.46-8.08,16.91-16.18l21.74,14.59-17.6,16ZM158,117.74a3.31,3.31,0,0,1-1.67-.45c-6.15-3.83-12.24-7.83-19.62-12.6C143.37,99,149.12,94,155,89.16a1.34,1.34,0,0,1,.85-.25,4.13,4.13,0,0,1,2,.65c6.1,3.91,12.15,8,19.25,12.64-6.55,5.6-12.18,10.49-17.91,15.18a2,2,0,0,1-1.23.36Z"/><path d="M83.47,132.31c-7.17,0-12.59,5.75-12.51,14.81,0,3.5-.52,6-3.86,8.16-1.92,1.26-2.46,4.85-3.29,7.49-.92,2.92-1,6.18-2.26,8.9C60,175,57.56,177.93,55,181.8c2.38,3.69,3.45,7.38,5.86,8.8C85.45,205,110.28,219,135,233.24a8.39,8.39,0,0,0,9.64-.15c9.81-6,19.84-11.55,29.82-17.21,9.1-5.17,9.87-14.14,1.78-20.91a10.15,10.15,0,0,1-1.87-2.88c-2.86-4.91-5.68-9.85-8.59-14.73-.26-.45-1.06-.58-1.59-.89-24.11-13.94-48.15-28-72.38-41.76a16.9,16.9,0,0,0-8.32-2.4Zm69.05,50.57c-2.44,0-5-.93-7.88-2.67C122,166.58,99,153.68,76,140.46c3.5-4.1,5.53-5.88,8-5.88,2,0,4.23,1.19,7.76,3.27,16.92,10,34.16,19.41,51.24,29.1,6.18,3.51,12.3,7.12,18.88,10.94-3.24,3.42-6.2,5-9.36,5Zm-1.75,12.18a13.65,13.65,0,0,1-3.27-.91c-23.24-13.39-46.39-27-69.74-40.16-4.67-2.64-4.9-5.85-3.68-11.22,17.13,9.62,33.52,18.79,49.89,28q10.71,6,21.32,12.25c6.51,3.8,6.49,3.84,5.48,12Zm-5.9,6.05a4.79,4.79,0,0,1-2.35-.49c-24.22-13.75-48.3-27.78-72.39-41.75a19.79,19.79,0,0,1-2.43-2.56c2.19,0,4-.19,5.49-.19a9.66,9.66,0,0,1,2.64.31,37.4,37.4,0,0,1,7.69,3.8q33.09,18.9,66.15,37.86c0,.89,0,1.78,0,2.66-1.52,0-3.24.36-4.76.36Zm-1.08,12.53c-4.44-2.52-8.69-4.89-12.9-7.3-20.14-11.53-40.18-23.22-60.45-34.49-4.86-2.7-5.45-5.8-3.52-11.29,3.89,2.12,7.45,4,10.93,6,20.33,11.59,40.53,23.42,61,34.67,5.37,2.94,6.57,6.4,4.9,12.44Zm-5.24,5.63a9.72,9.72,0,0,1-4.69-1.64C109.74,203.68,85.5,189.92,61,176c1.55-2,3-3.23,4.94-3.23a6.83,6.83,0,0,1,3.38,1.09c24,13.87,48,27.56,72,41.33a15.11,15.11,0,0,1,1.79,1.47c-1.56,1.9-3.06,2.65-4.64,2.65Zm-1.77,11.85c-4-2.12-7.84-4.06-11.59-6.21-20.11-11.49-40.1-23.19-60.33-34.46C59.94,187.71,58,184.53,60,178c12.35,7.08,24.21,13.88,36.08,20.66s23.7,13.88,35.84,20.29c5.12,2.71,6.67,6,4.9,12.14Zm18-34.84c-3.12-8.54-2.11-10.23,9.75-15.69,1.81,10,1.27,10.86-9.75,15.69Zm6.2,9.87c-1.31-10.45.08-12.38,10.42-15.05,1.48,9.85.68,11-10.42,15.05ZM147.24,214c-1.84-9.64-.64-11.44,10.19-15.14,1.69,10.09.39,12-10.19,15.14Zm20.67,2.16c-1.41-10.26-.85-11.11,9.93-15.57,3,8.32,1.44,10.83-9.93,15.57Zm-13.94,8c-.92-11.08-.92-11.08,10.38-15.75,2.29,9.49,1.5,10.73-10.38,15.75ZM140.16,232c-.59-10.76-.59-10.76,10-15.53,3,10.42.81,10.82-10,15.53Z"/><path d="M210.4,162.93l.24.27-.24.43v-.7M265.34,125a6,6,0,0,0-1.61.19c-18.15,5.32-36.31,10.63-54.22,16.19-1.95.6-3.64,2.76-3.33,4,1.85,7.66-4.68,13.83-10.48,20.27-2.76,3.06-5.23,6.56-5.39,9.89-.79,15.38-.86,30.77-.66,46.16,0,1.26,4,3.68,5.86,3.68h.13c1.12-.07,2.18-.11,3.2-.11,9.62,0,15.32,3.27,20.51,7.47a11.46,11.46,0,0,0,7.62,3,19.32,19.32,0,0,0,6.18-1.19c15.8-5.41,32.54-10,48.6-15.19,2.68-.86,5.46-3.11,5.47-4.72.16-15.17,2.27-30.53-1.26-45.47-3.49-14.77-12.84-29.12-19.84-44.13.24,0-.17-.07-.78-.07Zm-52.68,27.59-2.49-1.9,9.68-2.23-11.43-1c2.29-1.87,3.49-3.93,6-4.73,16-5.1,32.36-9.92,48.59-14.84l3.15,1.4-7.52,6.92,5.63.37c-5.9,1.48-10.8,3.77-14.87,3.77-.32,0-.64,0-.95,0a37,37,0,0,0-3.82-.2c-8.5,0-13.53,3.08-19.15,6-4.2,2.2-8.56,4.31-12.84,6.46Zm16.22,80.74C227.37,206.48,234.81,180,209,155.8l57-17c7,11.69,16.84,22.34,17,34.49.18,12.72.46,25.45-.28,38.16-.14,2.47-3.67,5.77-7.5,7.12-14.33,5.07-29.44,9.48-46.42,14.82Zm-22.55-9.84h-13.6c4.25-20.54-7.61-41.56,10-61.24l3.65,0c0,20.23,0,40.45-.07,61.21Zm18.5,7.56c-10.56-4.06-12.8-8.26-12.67-13.61.36-15-.27-29.95-.5-44.93a8.4,8.4,0,0,1,.85-4.52c18.52,19.9,9.31,41.17,12.32,63.06Z"/><path d="M264.24,143.46c1.32,2.07,2.69,4.09,4,6.07,4.9,7.25,9.56,14.14,10.6,21.18L278,171l-10.68,3.19c-11.56,3.45-22.48,6.71-33.14,10a7.09,7.09,0,0,0-3.28,2.22,60.39,60.39,0,0,0-14.46-28.63l29.73-8.91,18-5.4M279,208.57c0,.82-.08,1.65-.13,2.46a9.22,9.22,0,0,1-4.84,3.71c-10.25,3.63-21,7-32.42,10.51L232.74,228c0-2.36,0-4.73,0-7.08l1.55,1.3,2.07-.63,22-6.73,20.6-6.29m-13-69.82-57,17.09c25.81,24.19,18.4,50.66,19.94,77.54,17-5.36,32.08-9.79,46.41-14.87,3.82-1.35,7.35-4.66,7.49-7.13.72-12.71.43-25.44.24-38.16-.19-12.15-10-22.79-17.06-34.47ZM233,204.51c0-5.32-.17-9.34.1-13.35a3.77,3.77,0,0,1,2.36-3.16c13.79-4.31,27.78-8.42,43.78-13.21,0,5.51.14,9.7-.11,13.9a3.49,3.49,0,0,1-2.4,2.5c-13.82,4.31-27.78,8.49-43.73,13.32Zm2.36,8.81-1.55-1.16,5.46-3.25-5.23-.2-1.05-1.37,44-13.49,1.64,1.32-12.42,5.33,11.36-2,1.46,1.61-43.65,13.24Zm-.14,4.44L233,215.93l44.41-13.46,1.87,1.83-44.09,13.46Z"/><path d="M276.92,193.85l-44,13.49,1.05,1.37,5.23.2,26.94-8.42,12.4-5.32-1.64-1.32Z"/></svg>