<svg data-name="Calque 1" id="Calque_1" viewBox="0 0 500 500" xmlns="http://www.w3.org/2000/svg">
    <defs>
        <style>.cls-1{fill:#eaeaea;}.cls-2{font-size:54px;fill:#6b6b6b;font-family:HelveticaNeue-CondensedBold,
            Helvetica Neue;font-weight:700;}.cls-3{fill:#8c8c8c;}
        </style>
    </defs>
    <rect class="cls-1" height="500" width="500" x="1" y="-3"/>
    <text class="cls-2" transform="translate(59.65 399.56)">Matériel entretien
        <tspan x="113.4" y="64.8">piscine</tspan>
    </text>
    <g id="KzXrRc.tif">
        <path class="cls-3"
              d="M276.25,144.42c-.73-4.27-2.23-8.5-2-12.82.37-7.69,1.84-15.43,2.69-23.14a33.9,33.9,0,0,0-.31-5.78l-1.89-.07L184.84,323.15,180.48,321c51.77-121.31,88-210.22,88.44-216.54.21-2.89.24-5.72.24-5.72-.17-3.69-1.3-7.39-.61-11,2.51-13.42,9.06-26.05,19.89-37.65.48-.53,1-1.05,1.51-1.54,8.23-7.7,11.56-8.26,21.17-3.15C330.21,55.49,335.19,70.25,330.78,88c-3.73,15-14.12,27.34-30.6,37.2-1.56.93-1.64,1-3.18,1.93A92.94,92.94,0,0,0,276.25,144.42Zm28.08-94c-.91-1-1.75-3.06-3.46-3.44-1.42-.31-4.06,1.19-5.82,2.22a17.13,17.13,0,0,0-3.92,3.49c-9.9,11.07-16,23-18.45,35.67a14.26,14.26,0,0,0,.08,5.75c.73,3.34,3.67,4,7.2,1.57a36.12,36.12,0,0,0,6.83-6.13,75.74,75.74,0,0,0,16.53-31.53A76.19,76.19,0,0,0,304.33,50.45Zm10.45,30.91c2.48-8.82-1.21-15.89-9.17-16.73a32.2,32.2,0,0,0,.66,3.75c.65,2.16,2.16,4.26,2,6.44C308.07,78.49,310.71,80,314.78,81.36ZM302.35,122c3.52-2.77,6.87-5.22,9.94-7.85,4.44-3.8,4.42-5,.47-8.83C301.24,115.39,300.57,116.4,302.35,122Zm15.44-14.14c8.39-7.93,10.2-14.8,4.74-17.63-1.73,2.85-3,5.88-5.28,8.46C314,102.27,315.56,104.91,317.79,107.81Zm-29.85,8.56c-10.84,3.39-14.24,7.41-10.59,12.61C282.86,125.58,291.7,123.55,287.94,116.37Zm31.81-30.81,1.68-.58c3.4-8.66,1.7-14.69-4.57-16.65.27,4,.38,8.16.9,12.23C318,82.29,319.06,83.9,319.75,85.56Zm9.14-14c.36-8.31-5.29-15.63-12.23-15.92,1.76,2.85,3.59,5.61,5.2,8.47S323.56,70.44,328.89,71.53Zm-4.76,1.16c3.57,5.87-3.81,12.55,2.82,17.81C331.71,82.24,331,75.08,324.13,72.69ZM278.2,101.24a33.58,33.58,0,0,1,1.21,4.1,27.17,27.17,0,0,1,.1,3.86c9.63-3.79,9.08-3.18,5.58-12.49-1.2.84-2.26,1.61-3.37,2.33S279.42,100.48,278.2,101.24Zm-1.37,18.05c2.44-1.19,4.39-2.17,6.37-3.1,6.24-3,6.28-3,4.44-8.12C276.14,112.68,277.49,111.65,276.83,119.29ZM309.66,94c6.44-8,6.27-10.29-1.25-12.79C307.37,85.63,302.87,90.32,309.66,94ZM309,98.23c-2.57,5.35-10.89,8.57-7.14,14.57C310,107.21,312.49,102.77,309,98.23Zm-19.24,5.17c7.44-5,7.69-7.2,2.22-13.42C284.92,94.23,289.33,98.55,289.76,103.4ZM321,66c-2.49-3.38-4.83-6.84-7.59-10.09-.54-.63-2.68-.55-4.11-.51-.25,0-1.23,1.75-.87,2.1C311.76,60.86,313,65.74,321,66Zm-43.52,73c3.17-4.75,11.16-6.87,9.24-12.66C276.92,130.18,275.61,131.84,277.45,139Zm23.39-34.77c8-5.83,8.46-7.79,3.15-12C299.52,96,297.46,99.87,300.84,104.21ZM317,85.85c-6.81,10.84-6.81,10.84-3.14,13.86C321,91.73,321.75,88.2,317,85.85ZM298.57,109.9c-6.31,2.76-9.37,6.18-7.39,11.15C299.45,116.94,300,116,298.57,109.9Zm-1.16-14.1c6.19-5.48,6-7-.83-12.08C290.82,88.36,297.43,91.33,297.41,95.8Zm-.38,5c-5.47,3-8.36,6.18-5.58,10.59C298.51,108.56,299,107.61,297,100.83Zm-7.47,28.53c4.81-2.91,11.56-4.66,9.26-10.72C294.82,121.82,288,123.54,289.56,129.36Zm13.69-42.27c4.32-5.92,3.79-7.71-2.56-9.78C295.21,81.77,301,83.79,303.25,87.09Zm6.06-40.73c.58,5,4.34,7.13,9.76,6.33Zm-2.89,30.5c-.61-2.47-1.1-4.43-1.83-7.34C302.31,73,299.72,75.59,306.42,76.86Z"/>
        <path class="cls-3"
              d="M224.32,279.06c5.46-1.16,10.44-1.61,15-3.29,10.46-3.88,17.69-11.32,21.8-21.77,1.09-2.78,2.67-5.38,3.64-8.2.45-1.33.54-3.43-.22-4.35a4.4,4.4,0,0,0-4.15-.95,5,5,0,0,0-2.07,3.92c.34,17.7-14.77,31.24-34.68,29.91-2-15.58-4.13-31.34-5.6-47.18-.18-1.92,3.12-5.36,5.44-6.1a105.52,105.52,0,0,1,20.56-4.6c17.17-1.87,34.34-1.73,51.14,3,9.5,2.7,10.27,3.83,9.08,13.31-3,24-6.39,48.05-9.26,72.11-.6,5.08-2.73,7.7-7.47,8.68a127.27,127.27,0,0,1-52.58,0c-4.77-1-7-3.62-7.38-8.74C226.89,296.21,225.44,287.66,224.32,279.06Zm1.82-52.72c10.6,9.28,62.46,8.85,69.79-.21C285,218.15,238,218.08,226.14,226.34Z"/>
    </g>
</svg>
