<?xml version="1.0" encoding="utf-8"?>
<!-- Generator: Adobe Illustrator 22.1.0, SVG Export Plug-In . SVG Version: 6.00 Build 0)  -->
<svg version="1.1" id="Calque_1" xmlns="http://www.w3.org/2000/svg" xmlns:xlink="http://www.w3.org/1999/xlink" x="0px" y="0px"
	 viewBox="0 0 350 300" style="enable-background:new 0 0 350 300;" xml:space="preserve">
<title>selected</title>
<g id="KzXrRc.tif">
	<g>
		<path d="M185.1,111.8c-0.7-4.3-2.2-8.5-2-12.8c0.4-7.7,1.8-15.4,2.7-23.1c0.2-1.9-0.2-3.9-0.3-5.8c-0.6,0-1.3,0-1.9-0.1
			c-30,73.5-59.9,147-89.9,220.5c-1.5-0.7-2.9-1.4-4.4-2.2c51.8-121.3,88-210.2,88.4-216.5c0.2-2.9,0.2-5.7,0.2-5.7
			c-0.2-3.7-1.3-7.4-0.6-11.1c2.5-13.4,9.1-26,19.9-37.6c0.5-0.5,1-1,1.5-1.5c8.2-7.7,11.6-8.3,21.2-3.1C239,23,244,37.7,239.6,55.5
			c-3.7,15-14.1,27.3-30.6,37.2c-1.6,0.9-1.6,1-3.2,1.9C196.2,100.6,189.5,106.8,185.1,111.8z M213.1,17.8c-0.9-1-1.7-3.1-3.5-3.4
			c-1.4-0.3-4.1,1.2-5.8,2.2c-1.6,0.9-2.8,2.2-3.9,3.5c-9.9,11.1-16,23-18.4,35.7c-0.4,1.9-0.3,3.9,0.1,5.7c0.7,3.3,3.7,4,7.2,1.6
			c2.6-1.8,4.9-3.9,6.8-6.1c8.4-9.8,13.8-20.4,16.5-31.5C212.7,23.2,212.7,20.9,213.1,17.8z M223.6,48.8c2.5-8.8-1.2-15.9-9.2-16.7
			c0.2,1.4,0.3,2.6,0.7,3.7c0.6,2.2,2.2,4.3,2,6.4C216.9,45.9,219.5,47.4,223.6,48.8z M211.1,89.3c3.5-2.8,6.9-5.2,9.9-7.8
			c4.4-3.8,4.4-5,0.5-8.8C210,82.8,209.4,83.8,211.1,89.3z M226.6,75.2c8.4-7.9,10.2-14.8,4.7-17.6c-1.7,2.8-3,5.9-5.3,8.5
			C222.8,69.7,224.4,72.3,226.6,75.2z M196.7,83.8c-10.8,3.4-14.2,7.4-10.6,12.6C191.7,93,200.5,91,196.7,83.8z M228.6,53
			c0.6-0.2,1.1-0.4,1.7-0.6c3.4-8.7,1.7-14.7-4.6-16.6c0.3,4,0.4,8.2,0.9,12.2C226.8,49.7,227.9,51.3,228.6,53z M237.7,38.9
			c0.4-8.3-5.3-15.6-12.2-15.9c1.8,2.8,3.6,5.6,5.2,8.5C232.2,34.3,232.4,37.8,237.7,38.9z M232.9,40.1c3.6,5.9-3.8,12.6,2.8,17.8
			C240.5,49.6,239.8,42.5,232.9,40.1z M187,68.6c0.5,1.6,1,2.8,1.2,4.1c0.2,1.2,0.1,2.5,0.1,3.9c9.6-3.8,9.1-3.2,5.6-12.5
			c-1.2,0.8-2.3,1.6-3.4,2.3C189.4,67.2,188.2,67.9,187,68.6z M185.6,86.7c2.4-1.2,4.4-2.2,6.4-3.1c6.2-2.9,6.3-3,4.4-8.1
			C184.9,80.1,186.3,79.1,185.6,86.7z M218.5,61.4c6.4-8,6.3-10.3-1.3-12.8C216.2,53,211.7,57.7,218.5,61.4z M217.8,65.6
			c-2.6,5.4-10.9,8.6-7.1,14.6C218.8,74.6,221.3,70.2,217.8,65.6z M198.6,70.8c7.4-5,7.7-7.2,2.2-13.4
			C193.7,61.6,198.1,65.9,198.6,70.8z M229.8,33.4c-2.5-3.4-4.8-6.8-7.6-10.1c-0.5-0.6-2.7-0.5-4.1-0.5c-0.3,0-1.2,1.7-0.9,2.1
			C220.6,28.3,221.8,33.1,229.8,33.4z M186.3,106.4c3.2-4.8,11.2-6.9,9.2-12.7C185.7,97.6,184.4,99.2,186.3,106.4z M209.6,71.6
			c8-5.8,8.5-7.8,3.1-12C208.3,63.3,206.3,67.3,209.6,71.6z M225.8,53.2C219,64,219,64,222.7,67.1C229.8,59.1,230.6,55.6,225.8,53.2
			z M207.4,77.3c-6.3,2.8-9.4,6.2-7.4,11.2C208.2,84.3,208.8,83.4,207.4,77.3z M206.2,63.2c6.2-5.5,6-7-0.8-12.1
			C199.6,55.8,206.2,58.7,206.2,63.2z M205.8,68.2c-5.5,3-8.4,6.2-5.6,10.6C207.3,76,207.8,75,205.8,68.2z M198.4,96.8
			c4.8-2.9,11.6-4.7,9.3-10.7C203.6,89.2,196.8,90.9,198.4,96.8z M212,54.5c4.3-5.9,3.8-7.7-2.6-9.8C204,49.2,209.8,51.2,212,54.5z
			 M218.1,13.8c0.6,5,4.3,7.1,9.8,6.3C224.4,17.9,221.3,15.8,218.1,13.8z M215.2,44.3c-0.6-2.5-1.1-4.4-1.8-7.3
			C211.1,40.4,208.5,43,215.2,44.3z"/>
		<path d="M133.1,246.5c5.5-1.2,10.4-1.6,15-3.3c10.5-3.9,17.7-11.3,21.8-21.8c1.1-2.8,2.7-5.4,3.6-8.2c0.5-1.3,0.5-3.4-0.2-4.3
			c-0.8-0.9-3.1-1.5-4.2-1c-1.1,0.6-2.1,2.6-2.1,3.9c0.3,17.7-14.8,31.2-34.7,29.9c-1.9-15.6-4.1-31.3-5.6-47.2
			c-0.2-1.9,3.1-5.4,5.4-6.1c6.7-2.1,13.6-3.8,20.6-4.6c17.2-1.9,34.3-1.7,51.1,3c9.5,2.7,10.3,3.8,9.1,13.3
			c-3,24-6.4,48.1-9.3,72.1c-0.6,5.1-2.7,7.7-7.5,8.7c-17.5,3.6-35.1,3.6-52.6,0c-4.8-1-7-3.6-7.4-8.7
			C135.7,263.6,134.2,255.1,133.1,246.5z M134.9,193.7c10.6,9.3,62.5,8.8,69.8-0.2C193.8,185.6,146.8,185.5,134.9,193.7z"/>
	</g>
</g>
</svg>
