<?xml version="1.0" encoding="utf-8"?>
<!-- Generator: Adobe Illustrator 22.1.0, SVG Export Plug-In . SVG Version: 6.00 Build 0)  -->
<svg style="enable-background:new 0 0 500 500;" id="Calque_1" version="1.1" viewBox="0 0 500 500" x="0px"
     xmlns="http://www.w3.org/2000/svg" y="0px" xml:space="preserve">
<style type="text/css">
	.st0{fill:#4FBDD7;}
	.st1{fill:#EAEAEA;}
	.st2{fill:#FFFFFF;}
	.st3{fill:#4FBDD7;stroke:#FFFFFF;stroke-width:5;stroke-miterlimit:10;}
	.st4{fill:#8C8C8C;}
	.st5{fill:#070707;}
	.st6{fill:none;stroke:#FFFFFF;stroke-width:7;stroke-miterlimit:10;}
	.st7{fill:none;stroke:#FFFFFF;stroke-width:10;stroke-miterlimit:10;}
	.st8{fill:#FFFFFF;stroke:#FFFFFF;stroke-width:3;stroke-miterlimit:10;}
	.st9{fill:none;stroke:#FDFFFF;stroke-width:6;stroke-miterlimit:10;}
	.st10{fill:#FAFEFF;}
	.st11{fill:none;stroke:#FFFFFF;stroke-width:2;stroke-miterlimit:10;}
	.st12{fill:#FFFFFF;stroke:#FFFFFF;stroke-width:2;stroke-miterlimit:10;}
	.st13{fill:#4FBDD7;stroke:#FFFFFF;stroke-width:4;stroke-miterlimit:10;}
	.st14{fill:#FFFFFF;stroke:#FFFFFF;stroke-width:4;stroke-miterlimit:10;}
	.st15{fill:none;stroke:#FFFFFF;stroke-miterlimit:10;}
	.st16{fill:#FFFFFF;stroke:#FFFFFF;stroke-width:13;stroke-miterlimit:10;}
	.st17{fill:#4FBDD7;stroke:#FFFFFF;stroke-width:8;stroke-miterlimit:10;}
	.st18{fill:#FFFFFF;stroke:#FFFFFF;stroke-width:0.75;stroke-miterlimit:10;}
	.st19{fill:#FFFFFF;stroke:#FFFFFF;stroke-width:0.5;stroke-miterlimit:10;}
	.st20{fill:#FFFFFF;stroke:#FFFFFF;stroke-width:8;stroke-miterlimit:10;}
	.st21{fill:#FFFFFF;stroke:#FFFFFF;stroke-miterlimit:10;}
	.st22{fill:#FFFFFF;stroke:#FFFFFF;stroke-width:11;stroke-miterlimit:10;}
	.st23{fill:#FFFFFF;stroke:#FFFFFF;stroke-width:6;stroke-miterlimit:10;}
	.st24{fill:#8C8C8C;stroke:#8C8C8C;stroke-width:4;stroke-miterlimit:10;}
	.st25{fill:#FFFFFF;stroke:#FFFFFF;stroke-width:1.05;stroke-miterlimit:10;}
	.st26{fill:none;stroke:#4FBDD7;stroke-width:5;stroke-miterlimit:10;}
	.st27{fill:none;stroke:#FFFFFF;stroke-width:4;stroke-miterlimit:10;}
	.st28{fill:#8C8C8C;stroke:#FFFFFF;stroke-width:4;stroke-miterlimit:10;}
	.st29{fill:#FFFFFF;stroke:#FFFFFF;stroke-width:10;stroke-miterlimit:10;}
	.st30{fill:none;stroke:#4FBDD7;stroke-width:2;stroke-miterlimit:10;}
	.st31{fill-rule:evenodd;clip-rule:evenodd;fill:#FFFFFF;}
	.st32{fill:#FFFFFF;stroke:#FFFFFF;stroke-width:7;stroke-miterlimit:10;}
	.st33{fill:#FFFFFF;stroke:#4FBDD7;stroke-width:7;stroke-miterlimit:10;}
	.st34{fill:#FCFCFC;}
	.st35{fill:#FFFFFF;stroke:#FFFFFF;stroke-width:5;stroke-miterlimit:10;}
	.st36{fill:none;stroke:#FFFFFF;stroke-width:3;stroke-miterlimit:10;}
	.st37{fill:none;stroke:#FFFFFF;stroke-width:8;stroke-miterlimit:10;}
	.st38{fill:none;stroke:#FFFFFF;stroke-width:6;stroke-miterlimit:10;}
	.st39{fill:#FFFFFF;stroke:#4FBDD7;stroke-width:3;stroke-miterlimit:10;}
	.st40{fill:none;stroke:#FFFFFF;stroke-width:0.75;stroke-miterlimit:10;}
	.st41{fill:none;}
	.st42{font-family:'HelveticaNeue-CondensedBold';}
	.st43{font-size:54px;}
	.st44{fill:#4FBDD7;stroke:#FFFFFF;stroke-width:9;stroke-miterlimit:10;}
	.st45{fill:none;stroke:#FFFFFF;stroke-width:9;stroke-miterlimit:10;}
	.st46{fill:none;stroke:#4FBDD7;stroke-width:3;stroke-miterlimit:10;}
</style>
    <rect class="st0" height="509" width="501" x="-1" y="-6"/>
    <g>
	<path class="st2" d="M309.3,176.9l6.4-70.1h0.6l6.4,69.8v10h-13.3V176.9z M309.3,193.2h13.3v6.6h-13.3V193.2z M309.3,206.5h13.3
		v6.6h-13.3V206.5z M309.3,219.8h13.3v6.7h-13.3V219.8z M309.3,233.1h13.3v6.7h-13.3V233.1z M309.3,246.4h13.3v6.7h-13.3V246.4z
		 M309.3,286.4v-26.6h13.3v26.6c0,3.7-3,6.6-6.7,6.6S309.3,290,309.3,286.4"/>
        <path class="st2" d="M276,171l6.1-9.1c0.4-0.6,0.6-1.4,0.5-2.2l-2.8-28.1c-0.3-2.8,0.2-5.6,1.3-8.2l7.1-16.5h6.1l-6.6,15.5
		c-1.1,2.6-1.5,5.4-1.3,8.2l3,29.5v26.6H276V171z M276,193.2h13.3v6.6H276V193.2z M276,206.5h13.3v6.7H276V206.5z M276,219.8h13.3
		v6.6H276V219.8z M276,233.1h13.3v6.6H276V233.1z M276,246.4h13.3v6.7H276V246.4z M276,259.7h13.3v26.6c0,3.7-3,6.6-6.6,6.6
		c-3.7,0-6.6-3-6.6-6.6V259.7z"/>
        <path class="st2" d="M251,198.9c-10,0.9-19.9,1.5-29.9,2c5.3-3.1,10.6-6.2,15.8-9.4c4.5-2.8,8.9-6,11.5-10.1
		c2.4-3.9,3.3-8.6,1.3-12.8c-0.9-1.9-2.9-3.4-3.7-5.3c-1-2.4,1.1-5.5,1.3-8c0.5-5.3-1.7-10.5-3-15.7c-1.1-4.5-1.5-9.6,2.3-13.4
		c2-2,4.4-3.7,5.4-6.2c0.8-1.9,0.7-3.8,0.1-5.7c-1.4-4.3-5.7-8-5.2-12.5c0.2-1.7-1.9-2.4-3.6-2.2c-8.1,0.9-16.6,1.8-24.7,0.6
		c-7.7-1.2-14.8-3.6-22.7-3.9c-3.5-0.1-7,0-10.4,0.5c-3.1,0.4-7.2,0.7-8.8,3.4c-1.2,2-0.2,4.1,0.8,6c1.6,3.1,1.5,5.5-0.4,8.6
		c-3.3,5.2-8.6,9.4-12.2,14.4c-3.5,4.9-5.7,10.6-4.7,16.3c1,5.7,5.5,9.4,9.5,13.8c4.6,5.1,4.2,10.7,4.9,16.7
		c1.2,10.2,8.2,19.4,19,24.7c0.1,0.2,0.2,0.4,0.4,0.6c0.1,0.1,0.2,0.3,0.3,0.4c-11.9,0.2-23.9,0.1-35.8-0.3c-3.7-0.1-3.7,4.5,0,4.6
		c15,0.5,30,0.5,44.9,0.1c0.9,0.1,1.9,0.1,2.8,0.1c1,0,1.9-0.1,2.8-0.3c14.1-0.5,28.2-1.3,42.2-2.5
		C254.6,203.1,254.7,198.6,251,198.9"/>
</g>
    <g>
	<path class="st2" d="M244.3,183.6c-10.5-4.5-24.3-7.1-38.8-7.1c-14.6,0-28.4,2.5-38.8,7.1c-11.3,4.9-17.6,11.8-17.6,19.4v16.5
		c0,5.3,3.1,12.7,17.8,17.8c7.6,2.7,17.6,4.4,28.7,5v6c2.2,0,4.4,0,6.6,0.1v-5.8c1.1,0,5.5,0,6.6,0v6c2.2,0,4.4,0.1,6.6,0.1v-6.3
		c11.1-0.6,21.1-2.4,28.7-5c14.7-5.1,17.8-12.5,17.8-17.8V203C261.9,195.5,255.6,188.6,244.3,183.6 M255.3,219.6
		c0,6-8.4,9.8-13.4,11.6c-9.1,3.2-22.1,4.9-36.4,4.9c-14.4,0-27.3-1.8-36.4-4.9c-5-1.7-13.4-5.6-13.4-11.6v-3.8
		c2.8,2.5,6.5,4.7,11,6.7c10.5,4.6,24.3,7.1,38.8,7.1c14.6,0,28.4-2.5,38.8-7.1c4.5-1.9,8.2-4.2,11-6.7V219.6z M241.7,216.4
		c-9.6,4.2-22.5,6.5-36.2,6.5c-13.7,0-26.6-2.3-36.2-6.5c-8.7-3.8-13.6-8.6-13.6-13.3c0-4.7,5-9.6,13.6-13.3
		c9.6-4.2,22.5-6.5,36.2-6.5c13.7,0,26.6,2.3,36.2,6.5c8.7,3.8,13.6,8.6,13.6,13.3C255.3,207.8,250.3,212.6,241.7,216.4"/>
        <path class="st2" d="M215.4,250.4V242c-2.2-0.1-4.4-0.1-6.6-0.2v20.5c0,2.4-1.5,4.4-3.3,4.4c-1.8,0-3.3-2-3.3-4.4v-20.6
		c-2.2,0-4.4-0.1-6.6-0.1v8.8c-12,3-19.8,11-19.8,20.7c0,6.4,3.4,12.2,9.6,16.3c5.4,3.6,12.6,5.6,20.2,5.6c7.6,0,14.7-2,20.2-5.6
		c6.2-4.1,9.6-9.9,9.6-16.3C235.2,261.4,227.4,253.4,215.4,250.4"/>
</g>
    <g>
	<rect class="st41" height="144" width="500" y="365"/>
        <text transform="matrix(1 0 0 1 129.6089 403.5557)"><tspan class="st2 st42 st43" x="0" y="0">Matériel de </tspan>
            <tspan class="st2 st42 st43" x="45.5" y="64.8">poterie</tspan></text>
</g>
</svg>
