<?xml version="1.0" encoding="utf-8"?>
<!-- Generator: Adobe Illustrator 22.1.0, SVG Export Plug-In . SVG Version: 6.00 Build 0)  -->
<svg style="enable-background:new 0 0 500 500;" id="Calque_1" version="1.1" viewBox="0 0 500 500" x="0px"
     xmlns="http://www.w3.org/2000/svg" y="0px" xml:space="preserve">
<style type="text/css">
	.st0{fill:#EAEAEA;}
	.st1{fill:#8C8C8C;}
	.st2{fill:none;}
	.st3{fill:#6B6B6B;}
	.st4{font-family:'HelveticaNeue-CondensedBold';}
	.st5{font-size:54px;}
	.st6{fill:#FFFFFF;}
	.st7{fill:#EAEAEA;stroke:#8C8C8C;stroke-width:7;stroke-miterlimit:10;}
	.st8{fill:#070707;}
	.st9{fill:none;stroke:#8C8C8C;stroke-width:7;stroke-miterlimit:10;}
	.st10{fill:none;stroke:#8C8C8C;stroke-width:10;stroke-miterlimit:10;}
	.st11{fill:#8C8C8C;stroke:#8C8C8C;stroke-width:3;stroke-miterlimit:10;}
	.st12{fill:none;stroke:#8C8C8C;stroke-width:8;stroke-miterlimit:10;}
	.st13{fill:none;stroke:#8E8E8E;stroke-width:6;stroke-miterlimit:10;}
	.st14{fill:#8E8E8E;}
	.st15{fill:#505050;}
	.st16{fill:none;stroke:#8E8E8E;stroke-width:2;stroke-miterlimit:10;}
	.st17{fill:#8C8C8C;stroke:#8C8C8C;stroke-width:2;stroke-miterlimit:10;}
	.st18{fill:#8C8C8C;stroke:#FFFFFF;stroke-width:2;stroke-miterlimit:10;}
	.st19{fill:none;stroke:#FFFFFF;stroke-width:2;stroke-miterlimit:10;}
	.st20{fill:none;stroke:#8C8C8C;stroke-miterlimit:10;}
	.st21{fill:none;stroke:#8C8C8C;stroke-width:13;stroke-miterlimit:10;}
	.st22{fill:#EAEAEA;stroke:#8C8C8C;stroke-width:8;stroke-miterlimit:10;}
	.st23{fill:none;stroke:#8C8C8C;stroke-width:4;stroke-miterlimit:10;}
	.st24{fill:#8C8C8C;stroke:#8C8C8C;stroke-width:0.75;stroke-miterlimit:10;}
	.st25{fill:none;stroke:#8C8C8C;stroke-width:9;stroke-miterlimit:10;}
	.st26{fill:#8C8C8C;stroke:#8C8C8C;stroke-width:0.5;stroke-miterlimit:10;}
	.st27{stroke:#8C8C8C;stroke-width:8;stroke-miterlimit:10;}
	.st28{fill:#8C8C8C;stroke:#8C8C8C;stroke-miterlimit:10;}
	.st29{fill:none;stroke:#8C8C8C;stroke-width:11;stroke-miterlimit:10;}
	.st30{fill:none;stroke:#8C8C8C;stroke-width:6;stroke-miterlimit:10;}
	.st31{stroke:#8C8C8C;stroke-width:6;stroke-miterlimit:10;}
	.st32{fill:#8C8C8C;stroke:#8C8C8C;stroke-width:4;stroke-miterlimit:10;}
	.st33{fill:#8C8C8C;stroke:#8C8C8C;stroke-width:1.05;stroke-miterlimit:10;}
	.st34{fill:#D6D6D6;}
	.st35{fill:none;stroke:#EAEAEA;stroke-width:5;stroke-miterlimit:10;}
	.st36{fill:#8C8C8C;stroke:#8C8C8C;stroke-width:10;stroke-miterlimit:10;}
	.st37{fill:none;stroke:#CECECE;stroke-width:2;stroke-miterlimit:10;}
	.st38{fill:none;stroke:#FFFFFF;stroke-width:4;stroke-miterlimit:10;}
	.st39{fill-rule:evenodd;clip-rule:evenodd;fill:#8C8C8C;}
	.st40{fill:#8C8C8C;stroke:#8C8C8C;stroke-width:8;stroke-miterlimit:10;}
	.st41{fill:#8C8C8C;stroke:#8C8C8C;stroke-width:7;stroke-miterlimit:10;}
	.st42{fill:#DBDBDB;stroke:#8C8C8C;stroke-width:7;stroke-miterlimit:10;}
	.st43{fill:none;stroke:#8C8C8C;stroke-width:5;stroke-miterlimit:10;}
	.st44{fill:none;stroke:#8C8C8C;stroke-width:3;stroke-miterlimit:10;}
	.st45{clip-path:url(#SVGID_2_);fill:#8C8C8C;}
	.st46{clip-path:url(#SVGID_2_);fill:none;stroke:#8C8C8C;stroke-width:8;stroke-miterlimit:10;}
	.st47{clip-path:url(#SVGID_2_);fill:#FFFFFF;}
	.st48{clip-path:url(#SVGID_2_);fill:#EAEAEA;}
	.st49{clip-path:url(#SVGID_2_);fill:none;stroke:#8C8C8C;stroke-miterlimit:10;}
	.st50{fill:none;stroke:#FFFFFF;stroke-width:0.75;stroke-miterlimit:10;}
	.st51{fill:none;stroke:#8C8C8C;stroke-width:14;stroke-miterlimit:10;}
	.st52{fill:none;stroke:#EAEAEA;stroke-width:2;stroke-miterlimit:10;}
	.st53{fill:none;stroke:#8C8C8C;stroke-width:2;stroke-miterlimit:10;}
</style>
    <rect class="st0" height="504" width="504" x="-1" y="-2"/>
    <g>
	<rect class="st2" height="144" width="500" x="-3" y="364"/>
        <text transform="matrix(1 0 0 1 91.6167 402.5557)"><tspan class="st3 st4 st5" x="0" y="0">Mécanisme de </tspan>
            <tspan class="st3 st4 st5" x="79" y="64.8">montre</tspan></text>
</g>
    <path class="st1" d="M319.9,226.8c-1.2-1.6-2.1-3.4-2.6-5.3c-0.7,0.3-1.3,0.6-1.9,0.9c-0.1-1.5-0.4-2.9-0.8-4.3l0.8-0.6
	c2.4-1.7,3.1-5,1.5-7.6c-1.6-2.5-4.9-3.4-7.4-1.9l-1.1,0.6c-1.2-1.1-2.5-2-4-2.7l0.2-1.3c0.5-2.9-1.4-5.7-4.3-6.4
	c-2.9-0.7-5.8,1-6.6,3.9l-0.4,1.5c-1.5,0.1-3,0.4-4.5,0.8l-0.9-1.3c-1.7-2.4-5-3.1-7.5-1.5c-2.5,1.6-3.4,4.8-1.9,7.5l0.8,1.5
	c-1,1.1-1.9,2.3-2.6,3.6l-1.7-0.3c-2.9-0.5-5.7,1.4-6.4,4.3c-0.7,2.9,1.1,5.8,3.9,6.6l1.5,0.4c0.1,1.5,0.3,3,0.7,4.5l-1.3,0.9
	c-2.4,1.7-3.1,5-1.5,7.5c1.6,2.5,4.9,3.4,7.4,1.9l1.2-0.6c0.7,0.7,1.5,1.3,2.3,1.8c0.5,0.4,1.1,0.7,1.6,1l-0.2,1.2
	c-0.5,2.9,1.4,5.7,4.3,6.4c0.4,0.1,0.8,0.1,1.2,0.1c2.4,0,4.7-1.6,5.4-4l0.3-1c0.7,0,1.4-0.1,2.1-0.2c1.5,0.4,2.9,0.8,4.4,1.2
	c1.8,1.5,4.5,1.8,6.6,0.5c2.5-1.6,3.4-4.9,1.9-7.4l-0.4-0.7c1.2-1.3,2.2-2.7,3-4.2l0.8,0.1c2.9,0.5,5.7-1.4,6.4-4.3
	C320.4,229,320.3,227.9,319.9,226.8C319.9,226.9,319.9,226.8,319.9,226.8z M315.7,229.1c-0.1,0.5-0.7,0.9-1.2,0.8l-2.5-0.4
	c-1-0.2-2.1,0.4-2.5,1.4c-0.9,2.1-2.2,4-4,5.6c-0.8,0.7-1,1.9-0.5,2.8l1.2,2.2c0.3,0.5,0.1,1.1-0.4,1.4c-0.5,0.3-1.1,0.2-1.4-0.3
	l-1.5-2.1c-0.6-0.8-1.7-1.2-2.7-0.8c-2.1,0.8-4.4,1.1-6.7,1c-1,0-2,0.6-2.3,1.6l-0.8,2.6c-0.2,0.5-0.7,0.9-1.2,0.7
	c-0.5-0.1-0.9-0.6-0.8-1.2l0.5-2.8c0.2-1-0.4-2-1.3-2.4c-0.9-0.4-1.7-0.9-2.5-1.4c0,0,0,0,0,0c-1-0.7-1.9-1.5-2.8-2.5
	c-0.4-0.5-1.1-0.8-1.7-0.8c-0.4,0-0.8,0.1-1.1,0.3l-2.7,1.5c-0.5,0.3-1.1,0.1-1.4-0.4c-0.3-0.5-0.2-1.1,0.3-1.4l2.6-1.9
	c0.8-0.6,1.2-1.7,0.8-2.6c-0.7-2-1.1-4.1-1-6.2c0-1-0.6-2-1.6-2.3l-3.2-0.9c-0.5-0.2-0.9-0.7-0.7-1.2c0.1-0.5,0.6-0.9,1.2-0.8
	l3.3,0.6c1,0.2,2-0.4,2.5-1.3c0.9-1.9,2.1-3.6,3.6-5.1c0.8-0.7,0.9-1.8,0.4-2.8l-1.6-3c-0.3-0.5-0.1-1.1,0.4-1.4
	c0.5-0.3,1.1-0.2,1.4,0.3l1.9,2.7c0.6,0.9,1.7,1.2,2.7,0.8c1.9-0.8,3.9-1.1,6-1.1c0.1,0,0.2,0,0.3,0c1,0,1.9-0.7,2.2-1.6l0.9-3.1
	c0.2-0.5,0.7-0.8,1.2-0.7c0.5,0.1,0.9,0.6,0.8,1.2l-0.5,3c-0.2,1,0.4,2.1,1.4,2.5c2,0.9,3.9,2.1,5.4,3.7c0.7,0.7,1.8,0.9,2.7,0.4
	l2.5-1.4c0.5-0.3,1.1-0.1,1.4,0.4c0.3,0.5,0.2,1.1-0.3,1.4l-2.2,1.6c-0.9,0.6-1.2,1.7-0.8,2.7c0.9,2.1,1.3,4.4,1.2,6.6
	c0,1,0.6,2,1.6,2.3l2.5,0.7C315.5,228,315.9,228.5,315.7,229.1z"/>
    <path class="st1" d="M389.3,211l-2-0.8c0.3-2.9,0.1-5.8-0.6-8.7l2-1.1c3.3-1.8,4.7-5.9,3-9.4c-1.6-3.4-5.7-5-9.2-3.6l-2.4,1
	c-1.8-2.1-3.9-4-6.3-5.5l0.8-2.6c1.1-3.6-0.9-7.5-4.5-8.8c-3.6-1.3-7.5,0.5-9,4l-1.2,2.8c-2.7-0.2-5.3,0-8,0.5l-1.5-2.8
	c-1.8-3.3-5.9-4.7-9.4-3.1c-3.4,1.6-5,5.7-3.6,9.2l1.2,3c-2,1.7-3.8,3.6-5.3,5.8l-3.1-0.9c-3.6-1.1-7.5,0.9-8.8,4.5
	c-1.3,3.6,0.5,7.5,4,9l2.9,1.2c-0.3,2.7-0.2,5.3,0.3,8l-2.7,1.5c-2.1,1.2-3.4,3.3-3.7,5.6c0.1,3.5,2,6.5,4.9,7.5
	c2.2,0.8,4.2,0.1,4.9-0.1l2.6-1c1,1.3,2.1,2.5,3.4,3.6c0.9,0.8,1.8,1.5,2.7,2.2l-0.7,2.5c-1.1,3.6,0.9,7.5,4.5,8.8
	c0.8,0.3,1.6,0.4,2.4,0.4c2.8,0,5.5-1.7,6.6-4.4l0.9-2.1c0.9,0.1,1.8,0.2,2.8,0.2c1.7-0.1,3.4-0.2,5.1-0.3c0.3,0,0.6-0.1,0.9-0.1
	l1,1.9c1.8,3.3,5.9,4.7,9.4,3.1c3.4-1.6,5-5.7,3.6-9.2l-0.8-1.9c2.3-1.9,4.3-4.1,6-6.6l2,0.6c3.4,0.5,6.7-1.3,8-4.4
	C393.8,216.8,392.5,212.9,389.3,211z"/>
    <path d="M362,196.1c-6.3-2.3-13.3,1-15.6,7.4c-2.3,6.3,1,13.3,7.4,15.6c1.3,0.5,2.7,0.7,4.1,0.7c1.8,0,3.6-0.4,5.2-1.2
	c2.9-1.4,5.2-3.9,6.3-6.9C371.7,205.4,368.4,198.4,362,196.1z M365.1,210.2c-1.4,4-5.8,6-9.8,4.6c-4-1.4-6.1-5.8-4.6-9.8
	c1.1-3.1,4.1-5.1,7.2-5.1c0.9,0,1.7,0.1,2.6,0.4C364.5,201.8,366.6,206.2,365.1,210.2z"/>
    <path class="st1" d="M303.4,226.4c0.5-2.3,0.1-4.8-1.2-6.8c-1.3-2-3.3-3.5-5.6-4c-2.3-0.5-4.8-0.1-6.8,1.2c-2,1.3-3.5,3.3-4,5.6
	c-0.5,2.3-0.1,4.8,1.2,6.8c1.3,2,3.3,3.5,5.6,4c0.7,0.2,1.4,0.2,2,0.2c1.7,0,3.3-0.5,4.8-1.4C301.5,230.8,302.9,228.8,303.4,226.4z
	 M299,225.4c-0.3,1.2-1,2.2-2,2.8c-1,0.6-2.2,0.8-3.4,0.6c-1.2-0.3-2.2-1-2.8-2c-0.6-1-0.8-2.2-0.6-3.4c0.3-1.2,1-2.2,2-2.8
	c0.7-0.5,1.5-0.7,2.4-0.7c0.3,0,0.7,0,1,0.1c1.2,0.3,2.2,1,2.8,2C299.1,223,299.3,224.2,299,225.4z"/>
    <path class="st1" d="M290,191.1l1.6-0.6c3.3,2.8,7.6,4.2,12,3.7l0.5,0.8c1.2,2.1,3.3,3.3,5.6,3.3c0.9,0,1.9-0.2,2.8-0.6
	c3-1.5,4.4-5.1,3.1-8.2l-0.8-1.8c2-2.8,2.9-6.2,2.8-9.6l1.6-1c2.7-1.6,3.7-5,2.3-7.8c-1.4-2.8-4.6-4.1-7.6-3l-1.7,0.6
	c-2.6-2.2-5.9-3.5-9.3-3.7l-1-1.7c-1.6-3-5.3-4.1-8.4-2.6c-3,1.5-4.4,5.1-3.1,8.2l0.4,0.9c-3,3.1-4.6,7.4-4.4,11.7l-1.5,0.9
	c-2.7,1.6-3.7,5-2.3,7.8C283.8,190.9,287.1,192.2,290,191.1z M287.1,184.2l2.8-1.6c0.8-0.5,1.2-1.4,1.1-2.3
	c-0.6-3.8,0.9-7.8,3.9-10.2c0.8-0.6,1-1.7,0.7-2.7l-1-2.3c-0.4-0.9,0-1.9,0.9-2.3c0.9-0.4,1.9-0.1,2.4,0.7l1.6,2.9
	c0.4,0.7,1.2,1.2,2.1,1.2c3.2-0.1,6.2,1.1,8.4,3.4c0.6,0.7,1.6,0.9,2.5,0.6l3-1.1c0.7-0.3,1.5,0,1.9,0.7c0.3,0.7,0.1,1.5-0.6,1.9
	l-2.8,1.7c-0.8,0.5-1.2,1.4-1.1,2.3c0.5,3.1-0.5,6.3-2.5,8.7c-0.6,0.7-0.7,1.6-0.4,2.4l1.3,3c0.4,0.9,0,1.9-0.9,2.3
	c-0.9,0.4-1.9,0.1-2.4-0.7l-1.2-2.2c-0.4-0.7-1.2-1.2-2-1.2c-0.2,0-0.3,0-0.5,0.1c-3.8,0.9-7.8-0.4-10.5-3.2
	c-0.6-0.7-1.6-0.9-2.5-0.6l-3,1.2c-0.7,0.3-1.5,0-1.8-0.7C286.2,185.4,286.4,184.6,287.1,184.2z"/>
    <path class="st1" d="M301.9,185.4c1,0,2-0.2,3-0.7c3.4-1.7,4.8-5.8,3.1-9.1c-1.7-3.4-5.8-4.8-9.1-3.1c-3.4,1.7-4.8,5.8-3.1,9.1
	C296.9,184,299.4,185.4,301.9,185.4z M300.9,176.6c0.3-0.2,0.7-0.2,1-0.2c0.8,0,1.7,0.5,2,1.3c0.6,1.1,0.1,2.5-1,3
	c-1.1,0.5-2.5,0.1-3-1C299.3,178.5,299.7,177.1,300.9,176.6z"/>
    <path class="st0" d="M378.6,212.1c-0.1,0.5-0.7,0.9-1.2,0.8l-2.5-0.4c-1-0.2-2.1,0.4-2.5,1.4c-0.9,2.1-2.2,4-4,5.6
	c-0.8,0.7-1,1.9-0.5,2.8l1.2,2.2c0.3,0.5,0.1,1.1-0.4,1.4c-0.5,0.3-1.1,0.2-1.4-0.3l-1.5-2.1c-0.6-0.8-1.7-1.2-2.7-0.8
	c-2.1,0.8-4.4,1.1-6.7,1c-1,0-2,0.6-2.3,1.6l-0.8,2.6c-0.2,0.5-0.7,0.9-1.2,0.7c-0.5-0.1-0.9-0.6-0.8-1.2l0.5-2.8
	c0.2-1-0.4-2-1.3-2.4c-0.9-0.4-1.7-0.9-2.5-1.4c0,0,0,0,0,0c-1-0.7-1.9-1.5-2.8-2.5c-0.4-0.5-1.1-0.8-1.7-0.8
	c-0.4,0-0.8,0.1-1.1,0.3l-2.7,1.5c-0.5,0.3-1.1,0.1-1.4-0.4c-0.3-0.5-0.2-1.1,0.3-1.4l2.6-1.9c0.8-0.6,1.2-1.7,0.8-2.6
	c-0.7-2-1.1-4.1-1-6.2c0-1-0.6-2-1.6-2.3l-3.2-0.9c-0.5-0.2-0.9-0.7-0.7-1.2c0.1-0.5,0.6-0.9,1.2-0.8l3.3,0.6c1,0.2,2-0.4,2.5-1.3
	c0.9-1.9,2.1-3.6,3.6-5.1c0.8-0.7,0.9-1.8,0.4-2.8l-1.6-3c-0.3-0.5-0.1-1.1,0.4-1.4c0.5-0.3,1.1-0.2,1.4,0.3l1.9,2.7
	c0.6,0.9,1.7,1.2,2.7,0.8c1.9-0.8,3.9-1.1,6-1.1c0.1,0,0.2,0,0.3,0c1,0,1.9-0.7,2.2-1.6l0.9-3.1c0.2-0.5,0.7-0.8,1.2-0.7
	c0.5,0.1,0.9,0.6,0.8,1.2l-0.5,3c-0.2,1,0.4,2.1,1.4,2.5c2,0.9,3.9,2.1,5.4,3.7c0.7,0.7,1.8,0.9,2.7,0.4l2.5-1.4
	c0.5-0.3,1.1-0.1,1.4,0.4c0.3,0.5,0.2,1.1-0.3,1.4l-2.2,1.6c-0.9,0.6-1.2,1.7-0.8,2.7c0.9,2.1,1.3,4.4,1.2,6.6c0,1,0.6,2,1.6,2.3
	l2.5,0.7C378.4,211,378.7,211.6,378.6,212.1z"/>
    <path class="st1" d="M357.1,214.1c1,0,2-0.2,3-0.7c3.4-1.7,4.8-5.8,3.1-9.1c-1.7-3.4-5.8-4.8-9.1-3.1c-3.4,1.7-4.8,5.8-3.1,9.1
	C352.2,212.7,354.6,214.1,357.1,214.1z M356.1,205.2c0.3-0.2,0.7-0.2,1-0.2c0.8,0,1.7,0.5,2,1.3c0.6,1.1,0.1,2.5-1,3
	c-1.1,0.5-2.5,0.1-3-1C354.5,207.1,355,205.7,356.1,205.2z"/>
    <g>
	<g id="clock_1_">
		<circle class="st1" cx="176.6" cy="169.7" r="5.8"/>
        <circle class="st1" cx="176.6" cy="239.7" r="5.8"/>
        <circle class="st1" cx="141.6" cy="204.7" r="5.8"/>
        <circle class="st1" cx="211.6" cy="204.7" r="5.8"/>
        <circle class="st1" cx="151.9" cy="229.4" r="5.8"/>
        <circle class="st1" cx="151.9" cy="180" r="5.8"/>
        <circle class="st1" cx="201.4" cy="229.4" r="5.8"/>
        <path class="st1" d="M234.9,193c-0.4,0-0.8,0.2-1.1,0.2c-2-10.2-6.8-19.3-13.4-26.8l-8.4-45.5c-1-5.5-5.8-9.5-11.5-9.5h-46.6
			c-5.6,0-10.4,4-11.5,9.5l-8.2,44c-9.8,10.4-16,24.3-16,39.7c0,15.1,5.9,28.6,15.3,38.9l8.2,44.8c1,5.5,5.8,9.5,11.5,9.5h46.6
			c5.6,0,10.4-4,11.5-9.5l8.3-44.8c6.9-7.6,12-17,14.1-27.5c0.4,0.1,0.7,0.2,1.1,0.2c6.4,0,11.7-5.2,11.7-11.7
			C246.6,198.3,241.4,193,234.9,193z M153.9,123.1h46.6l5.8,31.4c-8.6-5-18.5-8.1-29.2-8.1c-10.7,0-20.5,3.1-29.2,8.1L153.9,123.1z
			 M199.9,286.3h-46.6l-5.8-31.4c8.6,5,18.5,8.1,29.2,8.1c10.7,0,20.5-3.1,29.2-8.1L199.9,286.3z M176.6,251.4
			c-25.7,0-46.6-20.9-46.6-46.6c0-25.7,20.9-46.6,46.6-46.6s46.6,20.9,46.6,46.6C223.3,230.4,202.3,251.4,176.6,251.4z"/>
        <line class="st43" x1="177.2" x2="177.2" y1="203" y2="169.7"/>
        <line class="st43" x1="154.9" x2="177.2" y1="227.5" y2="201.8"/>
        <circle class="st1" cx="201.4" cy="180" r="5.8"/>
	</g>
</g>
</svg>
