<?xml version="1.0" encoding="utf-8"?>
<!-- Generator: Adobe Illustrator 22.1.0, SVG Export Plug-In . SVG Version: 6.00 Build 0)  -->
<svg style="enable-background:new 0 0 500 500;" id="Calque_1" version="1.1" viewBox="0 0 500 500" x="0px"
     xmlns="http://www.w3.org/2000/svg" y="0px" xml:space="preserve">
<style type="text/css">
	.st0{fill:#4FBDD7;}
	.st1{fill:#EAEAEA;}
	.st2{fill:#FFFFFF;}
	.st3{fill:#4FBDD7;stroke:#FFFFFF;stroke-width:5;stroke-miterlimit:10;}
	.st4{fill:#8C8C8C;}
	.st5{fill:#070707;}
	.st6{fill:none;stroke:#FFFFFF;stroke-width:7;stroke-miterlimit:10;}
	.st7{fill:none;stroke:#FFFFFF;stroke-width:10;stroke-miterlimit:10;}
	.st8{fill:#FFFFFF;stroke:#FFFFFF;stroke-width:3;stroke-miterlimit:10;}
	.st9{fill:none;stroke:#FDFFFF;stroke-width:6;stroke-miterlimit:10;}
	.st10{fill:#FAFEFF;}
	.st11{fill:none;stroke:#FFFFFF;stroke-width:2;stroke-miterlimit:10;}
	.st12{fill:#FFFFFF;stroke:#FFFFFF;stroke-width:2;stroke-miterlimit:10;}
	.st13{fill:#4FBDD7;stroke:#FFFFFF;stroke-width:4;stroke-miterlimit:10;}
	.st14{fill:#FFFFFF;stroke:#FFFFFF;stroke-width:4;stroke-miterlimit:10;}
	.st15{fill:none;stroke:#FFFFFF;stroke-miterlimit:10;}
	.st16{fill:#FFFFFF;stroke:#FFFFFF;stroke-width:13;stroke-miterlimit:10;}
	.st17{fill:#4FBDD7;stroke:#FFFFFF;stroke-width:8;stroke-miterlimit:10;}
	.st18{fill:#FFFFFF;stroke:#FFFFFF;stroke-width:0.75;stroke-miterlimit:10;}
	.st19{fill:#FFFFFF;stroke:#FFFFFF;stroke-width:0.5;stroke-miterlimit:10;}
	.st20{fill:#FFFFFF;stroke:#FFFFFF;stroke-width:8;stroke-miterlimit:10;}
	.st21{fill:#FFFFFF;stroke:#FFFFFF;stroke-miterlimit:10;}
	.st22{fill:#FFFFFF;stroke:#FFFFFF;stroke-width:11;stroke-miterlimit:10;}
	.st23{fill:#FFFFFF;stroke:#FFFFFF;stroke-width:6;stroke-miterlimit:10;}
	.st24{fill:none;}
	.st25{font-family:'HelveticaNeue-CondensedBold';}
	.st26{font-size:54px;}
	.st27{fill:#8C8C8C;stroke:#8C8C8C;stroke-width:4;stroke-miterlimit:10;}
	.st28{fill:#FFFFFF;stroke:#FFFFFF;stroke-width:1.05;stroke-miterlimit:10;}
	.st29{fill:none;stroke:#4FBDD7;stroke-width:5;stroke-miterlimit:10;}
	.st30{fill:none;stroke:#FFFFFF;stroke-width:4;stroke-miterlimit:10;}
	.st31{fill:#8C8C8C;stroke:#FFFFFF;stroke-width:4;stroke-miterlimit:10;}
	.st32{fill:#FFFFFF;stroke:#FFFFFF;stroke-width:10;stroke-miterlimit:10;}
	.st33{fill:none;stroke:#4FBDD7;stroke-width:2;stroke-miterlimit:10;}
	.st34{fill-rule:evenodd;clip-rule:evenodd;fill:#FFFFFF;}
	.st35{fill:#FFFFFF;stroke:#FFFFFF;stroke-width:7;stroke-miterlimit:10;}
	.st36{fill:#FFFFFF;stroke:#4FBDD7;stroke-width:7;stroke-miterlimit:10;}
	.st37{fill:#FCFCFC;}
	.st38{fill:#FFFFFF;stroke:#FFFFFF;stroke-width:5;stroke-miterlimit:10;}
	.st39{fill:none;stroke:#FFFFFF;stroke-width:3;stroke-miterlimit:10;}
	.st40{fill:none;stroke:#FFFFFF;stroke-width:8;stroke-miterlimit:10;}
	.st41{fill:none;stroke:#FFFFFF;stroke-width:6;stroke-miterlimit:10;}
	.st42{fill:#FFFFFF;stroke:#4FBDD7;stroke-width:3;stroke-miterlimit:10;}
	.st43{fill:none;stroke:#FFFFFF;stroke-width:0.75;stroke-miterlimit:10;}
	.st44{fill:#4FBDD7;stroke:#FFFFFF;stroke-width:9;stroke-miterlimit:10;}
	.st45{fill:none;stroke:#FFFFFF;stroke-width:9;stroke-miterlimit:10;}
	.st46{fill:none;stroke:#4FBDD7;stroke-width:3;stroke-miterlimit:10;}
</style>
    <rect class="st0" height="500" width="500" x="-1" y="-1"/>
    <path class="st2" d="M291.7,189.4L248.2,146c0.1-1,0.2-2.1,0.3-3.1c0.1-0.5,0.1-1,0.2-1.5c0,0,0-0.1,0-0.1c0.1-0.5,0.2-1,0.3-1.5
	c0-0.1,0-0.1,0-0.2c0.1-0.5,0.2-1,0.3-1.4c0-0.1,0-0.1,0-0.2c0.1-0.5,0.3-1,0.4-1.4c0,0,0-0.1,0-0.1c0.6-2,1.4-3.9,2.3-5.8
	c0.1-0.1,0.1-0.2,0.1-0.3c0.2-0.3,0.3-0.7,0.5-1c0.1-0.2,0.2-0.4,0.3-0.6c0.2-0.3,0.3-0.6,0.5-0.9c0.1-0.2,0.3-0.5,0.4-0.7
	c0.2-0.3,0.3-0.5,0.5-0.8c0.2-0.2,0.3-0.5,0.5-0.7c0.2-0.2,0.3-0.5,0.5-0.7c0.2-0.3,0.4-0.5,0.6-0.8c0.2-0.2,0.3-0.5,0.5-0.7
	c0.2-0.3,0.4-0.6,0.7-0.8c0.2-0.2,0.3-0.4,0.5-0.6c0.3-0.3,0.5-0.6,0.8-0.9c0.1-0.2,0.3-0.3,0.4-0.5c0.4-0.5,0.8-0.9,1.3-1.4
	c2-2,4.2-3.8,6.5-5.3c1.7-1.1,3.5-2.1,5.3-3c1.8-0.8,3.7-1.6,5.6-2.1c7.7-2.3,15.8-2.3,23.5,0c1.9,0.6,3.8,1.3,5.6,2.1
	c1.8,0.8,3.6,1.8,5.3,3c2.3,1.5,4.5,3.3,6.5,5.3c16.1,16.1,16.1,42.2,0,58.3c-0.4,0.4-0.9,0.9-1.4,1.3c-0.2,0.1-0.3,0.3-0.5,0.4
	c-0.3,0.3-0.6,0.5-0.9,0.8c-0.2,0.2-0.4,0.3-0.6,0.5c-0.3,0.2-0.5,0.4-0.8,0.7c-0.2,0.2-0.4,0.3-0.7,0.5c-0.3,0.2-0.5,0.4-0.8,0.6
	c-0.2,0.2-0.5,0.3-0.7,0.5c-0.2,0.2-0.5,0.3-0.7,0.5c-0.3,0.2-0.5,0.3-0.8,0.5c-0.2,0.1-0.5,0.3-0.7,0.4c-0.3,0.2-0.6,0.3-0.9,0.5
	c-0.2,0.1-0.4,0.2-0.6,0.3c-0.3,0.2-0.7,0.4-1,0.5c-0.1,0-0.2,0.1-0.3,0.1c-1.9,0.9-3.9,1.7-5.9,2.3c0,0-0.1,0-0.1,0
	c-0.5,0.1-1,0.3-1.5,0.4c-0.1,0-0.1,0-0.2,0c-0.5,0.1-1,0.2-1.5,0.3c-0.1,0-0.1,0-0.2,0c-0.5,0.1-1,0.2-1.5,0.3c0,0-0.1,0-0.1,0
	c-0.5,0.1-1,0.2-1.6,0.2l0,0C293.8,189.3,292.7,189.4,291.7,189.4z M322.5,253.6c-7.3-7.3-17-11.3-27.3-11.3s-20,4-27.3,11.3
	l-59.7,59.7c-4.9,4.9-11.5,7.6-18.4,7.6s-13.5-2.7-18.5-7.6l-0.5-0.5c-10.2-10.2-10.2-26.7,0-36.9l15.9-15.9l4.5,4.5
	c1.2,1.2,2.8,1.8,4.4,1.8c1.4,0,2.8-0.5,3.9-1.4l83.6-66.5c-0.1-0.1-0.2-0.2-0.3-0.3l-43.5-43.5c-0.1-0.1-0.2-0.3-0.4-0.4l-67,83.1
	c-2,2.5-1.8,6.1,0.4,8.4l5.3,5.3l-15.9,15.9c-15.1,15.1-15.1,39.6,0,54.6l0.5,0.5c7.3,7.3,17,11.3,27.3,11.3s20-4,27.3-11.3
	l59.7-59.7c4.9-4.9,11.5-7.6,18.4-7.6c7,0,13.5,2.7,18.4,7.6l16.6,16.6c2.4,2.4,6.4,2.4,8.9,0c2.5-2.5,2.5-6.4,0-8.9L322.5,253.6z"
    />
    <g>
	<rect class="st24" height="144" width="500" y="363"/>
        <text class="st2 st25 st26" transform="matrix(1 0 0 1 189.0889 401.5557)">Micro</text>
</g>
</svg>
