<?xml version="1.0" encoding="utf-8"?>
<!-- Generator: Adobe Illustrator 22.1.0, SVG Export Plug-In . SVG Version: 6.00 Build 0)  -->
<svg style="enable-background:new 0 0 500 500;" id="Calque_1" version="1.1" viewBox="0 0 500 500" x="0px"
     xmlns="http://www.w3.org/2000/svg" y="0px" xml:space="preserve">
<style type="text/css">
	.st0{fill:#EAEAEA;}
	.st1{fill:#8C8C8C;}
	.st2{fill:none;}
	.st3{fill:#6B6B6B;}
	.st4{font-family:'HelveticaNeue-CondensedBold';}
	.st5{font-size:54px;}
	.st6{fill:#FFFFFF;}
	.st7{fill:#EAEAEA;stroke:#8C8C8C;stroke-width:7;stroke-miterlimit:10;}
	.st8{fill:#070707;}
	.st9{fill:none;stroke:#8C8C8C;stroke-width:7;stroke-miterlimit:10;}
	.st10{fill:none;stroke:#8C8C8C;stroke-width:10;stroke-miterlimit:10;}
	.st11{fill:#8C8C8C;stroke:#8C8C8C;stroke-width:3;stroke-miterlimit:10;}
	.st12{fill:none;stroke:#8C8C8C;stroke-width:8;stroke-miterlimit:10;}
	.st13{fill:none;stroke:#8E8E8E;stroke-width:6;stroke-miterlimit:10;}
	.st14{fill:#8E8E8E;}
	.st15{fill:#505050;}
	.st16{fill:none;stroke:#8E8E8E;stroke-width:2;stroke-miterlimit:10;}
	.st17{fill:#8C8C8C;stroke:#8C8C8C;stroke-width:2;stroke-miterlimit:10;}
	.st18{fill:#8C8C8C;stroke:#FFFFFF;stroke-width:2;stroke-miterlimit:10;}
	.st19{fill:none;stroke:#FFFFFF;stroke-width:2;stroke-miterlimit:10;}
	.st20{fill:none;stroke:#8C8C8C;stroke-miterlimit:10;}
	.st21{fill:none;stroke:#8C8C8C;stroke-width:13;stroke-miterlimit:10;}
	.st22{fill:#EAEAEA;stroke:#8C8C8C;stroke-width:8;stroke-miterlimit:10;}
	.st23{fill:none;stroke:#8C8C8C;stroke-width:4;stroke-miterlimit:10;}
	.st24{fill:#8C8C8C;stroke:#8C8C8C;stroke-width:0.75;stroke-miterlimit:10;}
	.st25{fill:none;stroke:#8C8C8C;stroke-width:9;stroke-miterlimit:10;}
	.st26{fill:#8C8C8C;stroke:#8C8C8C;stroke-width:0.5;stroke-miterlimit:10;}
	.st27{stroke:#8C8C8C;stroke-width:8;stroke-miterlimit:10;}
	.st28{fill:#8C8C8C;stroke:#8C8C8C;stroke-miterlimit:10;}
	.st29{fill:none;stroke:#8C8C8C;stroke-width:11;stroke-miterlimit:10;}
	.st30{fill:none;stroke:#8C8C8C;stroke-width:6;stroke-miterlimit:10;}
	.st31{stroke:#8C8C8C;stroke-width:6;stroke-miterlimit:10;}
	.st32{fill:#8C8C8C;stroke:#8C8C8C;stroke-width:4;stroke-miterlimit:10;}
	.st33{fill:#8C8C8C;stroke:#8C8C8C;stroke-width:1.05;stroke-miterlimit:10;}
	.st34{fill:#D6D6D6;}
	.st35{fill:none;stroke:#EAEAEA;stroke-width:5;stroke-miterlimit:10;}
	.st36{fill:#8C8C8C;stroke:#8C8C8C;stroke-width:10;stroke-miterlimit:10;}
	.st37{fill:none;stroke:#CECECE;stroke-width:2;stroke-miterlimit:10;}
	.st38{fill:none;stroke:#FFFFFF;stroke-width:4;stroke-miterlimit:10;}
	.st39{fill-rule:evenodd;clip-rule:evenodd;fill:#8C8C8C;}
	.st40{fill:#8C8C8C;stroke:#8C8C8C;stroke-width:8;stroke-miterlimit:10;}
	.st41{fill:#8C8C8C;stroke:#8C8C8C;stroke-width:7;stroke-miterlimit:10;}
	.st42{fill:#DBDBDB;stroke:#8C8C8C;stroke-width:7;stroke-miterlimit:10;}
	.st43{fill:none;stroke:#8C8C8C;stroke-width:5;stroke-miterlimit:10;}
	.st44{fill:none;stroke:#8C8C8C;stroke-width:3;stroke-miterlimit:10;}
	.st45{clip-path:url(#SVGID_2_);fill:#8C8C8C;}
	.st46{clip-path:url(#SVGID_2_);fill:none;stroke:#8C8C8C;stroke-width:8;stroke-miterlimit:10;}
	.st47{clip-path:url(#SVGID_2_);fill:#FFFFFF;}
	.st48{clip-path:url(#SVGID_2_);fill:#EAEAEA;}
	.st49{clip-path:url(#SVGID_2_);fill:none;stroke:#8C8C8C;stroke-miterlimit:10;}
	.st50{fill:none;stroke:#FFFFFF;stroke-width:0.75;stroke-miterlimit:10;}
	.st51{fill:none;stroke:#8C8C8C;stroke-width:14;stroke-miterlimit:10;}
	.st52{fill:none;stroke:#EAEAEA;stroke-width:2;stroke-miterlimit:10;}
	.st53{fill:none;stroke:#8C8C8C;stroke-width:2;stroke-miterlimit:10;}
</style>
    <rect class="st0" height="500" width="500" x="-1" y="-2"/>
    <g>
	<rect class="st2" height="144" width="500" y="360"/>
        <text class="st3 st4 st5" transform="matrix(1 0 0 1 164.5732 398.5557)">Minibus</text>
</g>
    <g>
	<path class="st1" d="M169.5,221.8c-18.5,0-33.5,15-33.5,33.5c0,18.5,15,33.5,33.5,33.5c18.5,0,33.5-15,33.5-33.5
		C203,236.9,188,221.8,169.5,221.8 M169.5,280.1c-13.7,0-24.8-11.1-24.8-24.8c0-13.7,11.1-24.8,24.8-24.8
		c13.7,0,24.8,11.1,24.8,24.8C194.3,269,183.2,280.1,169.5,280.1"/>
        <path class="st1" d="M169.5,242.3c-7.2,0-13.1,5.9-13.1,13.1c0,7.2,5.9,13.1,13.1,13.1s13.1-5.9,13.1-13.1
		C182.6,248.1,176.7,242.3,169.5,242.3 M169.5,259.7c-2.4,0-4.4-2-4.4-4.4c0-2.4,2-4.4,4.4-4.4c2.4,0,4.4,2,4.4,4.4
		C173.9,257.8,171.9,259.7,169.5,259.7"/>
        <path class="st1" d="M344.4,221.8c-18.5,0-33.5,15-33.5,33.5c0,18.5,15,33.5,33.5,33.5c18.5,0,33.5-15,33.5-33.5
		C377.9,236.9,362.9,221.8,344.4,221.8 M344.4,280.1c-13.7,0-24.8-11.1-24.8-24.8c0-13.7,11.1-24.8,24.8-24.8
		c13.7,0,24.8,11.1,24.8,24.8C369.2,269,358.1,280.1,344.4,280.1"/>
        <path class="st1" d="M344.4,242.3c-7.2,0-13.1,5.9-13.1,13.1c0,7.2,5.9,13.1,13.1,13.1c7.2,0,13.1-5.9,13.1-13.1
		C357.5,248.1,351.6,242.3,344.4,242.3 M344.4,259.7c-2.4,0-4.4-2-4.4-4.4c0-2.4,2-4.4,4.4-4.4c2.4,0,4.4,2,4.4,4.4
		C348.8,257.8,346.8,259.7,344.4,259.7"/>
        <path class="st1" d="M331.3,133.8h-34.1c-8.8,0-16,7.2-16,16v23.3c0,8.8,7.2,16,16,16h43.4c5.3,0,10.3-2.6,13.3-7
		c3-4.4,3.6-10,1.6-14.9l-9.3-23.3C343.7,137.8,337.9,133.8,331.3,133.8 M346.6,177.3c-1.4,2-3.6,3.2-6,3.2h-43.4
		c-4,0-7.3-3.3-7.3-7.3v-23.3c0-4,3.3-7.3,7.3-7.3h34.1c3,0,5.7,1.8,6.8,4.6l9.3,23.3C348.3,172.7,348,175.2,346.6,177.3"/>
        <path class="st1"
              d="M118.2,129.4c0-4,3.8-7.3,8.5-7.3h69.9v-8.7h-69.9c-10.3,0-18.7,7.2-18.7,16v55.8h10.2V129.4z"/>
        <path class="st1" d="M390,167.1l-14.3-6.8c-4.2-10-8.4-20-12.6-30c-2.7,1.1-5.4,2.3-8.1,3.4c4.6,11.2,9.3,22.4,13.9,33.7l17.4,8.3
		c4.7,2.2,7.8,7.3,7.8,12.8v5.6h-6.1c-8.2,0-14.9,7.1-14.9,15.9c0,8.8,6.7,15.9,14.9,15.9h6.1v19c0,4.3-3.3,7.8-7.3,7.8l-9,2.6
		c-0.2,1.9-0.3,3.8-0.5,5.7c7.6,2.8,15.9,1.2,20.9-4c4.4-4.6,4.7-10.4,4.7-12.1v-56.4C403,179.3,397.9,170.9,390,167.1 M394.3,216.6
		h-6.1c-3.4,0-6.1-2.9-6.1-6.5s2.7-6.5,6.1-6.5h6.1V216.6z"/>
        <path class="st1" d="M355.1,133.7l3.3,7.8l8.1-3.4l-3.3-7.8c-4.3-10.3-14.4-16.9-25.5-16.9H192.7v8.7h144.9
		C345.3,122.2,352.2,126.7,355.1,133.7"/>
        <path class="st1" d="M117.3,243.7c0.3-19.5,0.6-39,0.9-58.5H108V246c0,8.8,11.7,16,26,16c1.9,0,3.8-0.1,5.7-0.1
		c-1.2-2.9-2.5-5.8-3.7-8.6h-2c-1.9-0.1-5-0.5-8.4-2.1C121,248.9,118.4,245.4,117.3,243.7"/>
        <path class="st1" d="M202.4,253.3h108.5c1.4,2.8,2.8,5.5,4.1,8.3c-37.6,0-75.1,0-112.7,0V253.3z"/>
        <path class="st1" d="M251.3,133.8h-34.1c-8.8,0-16,7.2-16,16v23.3c0,8.8,7.2,16,16,16h43.4c5.3,0,10.3-2.6,13.3-7
		c3-4.4,3.6-10,1.6-14.9l-9.3-23.3C263.7,137.8,257.9,133.8,251.3,133.8 M266.6,177.3c-1.4,2-3.6,3.2-6,3.2h-43.4
		c-4,0-7.3-3.3-7.3-7.3v-23.3c0-4,3.3-7.3,7.3-7.3h34.1c3,0,5.7,1.8,6.8,4.6l9.3,23.3C268.3,172.7,268,175.2,266.6,177.3"/>
        <path class="st1" d="M171.3,135.3h-34.1c-8.8,0-16,7.2-16,16v23.3c0,8.8,7.2,16,16,16h43.4c5.3,0,10.3-2.6,13.3-7
		c3-4.4,3.6-10,1.6-14.9l-9.3-23.3C183.7,139.3,177.8,135.3,171.3,135.3 M186.6,178.8c-1.4,2-3.6,3.2-6,3.2h-43.4
		c-4,0-7.3-3.3-7.3-7.3v-23.3c0-4,3.3-7.3,7.3-7.3h34.1c3,0,5.7,1.8,6.8,4.6l9.3,23.3C188.3,174.3,188,176.7,186.6,178.8"/>
        <rect class="st1" height="135.3" width="3.7" x="275.9" y="118"/>
        <rect class="st1" height="15.9" width="7.9" x="270.6" y="190.7"/>
</g>
</svg>
