<svg id="Calque_1" data-name="Calque 1" xmlns="http://www.w3.org/2000/svg" viewBox="0 0 350 300"><defs><style>.cls-1{fill:none;stroke:#000;stroke-miterlimit:10;stroke-width:5px;}</style></defs><title>selected</title><path class="cls-1" d="M94.51,171.85A33.52,33.52,0,1,0,128,205.37a33.56,33.56,0,0,0-33.52-33.52m0,58.3a24.78,24.78,0,1,1,24.77-24.78,24.81,24.81,0,0,1-24.77,24.78"/><path class="cls-1" d="M94.51,192.25a13.12,13.12,0,1,0,13.11,13.12,13.13,13.13,0,0,0-13.11-13.12m0,17.49a4.37,4.37,0,1,1,4.37-4.37,4.38,4.38,0,0,1-4.37,4.37"/><path class="cls-1" d="M269.4,171.85a33.52,33.52,0,1,0,33.53,33.52,33.56,33.56,0,0,0-33.53-33.52m0,58.3a24.78,24.78,0,1,1,24.78-24.78,24.8,24.8,0,0,1-24.78,24.78"/><path class="cls-1" d="M269.4,192.25a13.12,13.12,0,1,0,13.12,13.12,13.13,13.13,0,0,0-13.12-13.12m0,17.49a4.37,4.37,0,1,1,4.38-4.37,4.37,4.37,0,0,1-4.38,4.37"/><path class="cls-1" d="M256.26,83.82H222.18a16,16,0,0,0-16,16v23.32a16,16,0,0,0,16,16h43.41a16,16,0,0,0,14.89-22l-9.33-23.32a16,16,0,0,0-14.89-10.07m15.37,43.43a7.19,7.19,0,0,1-6,3.21H222.18a7.3,7.3,0,0,1-7.29-7.29V99.85a7.3,7.3,0,0,1,7.29-7.29h34.08A7.26,7.26,0,0,1,263,97.14l9.33,23.32a7.21,7.21,0,0,1-.73,6.79"/><path class="cls-1" d="M315,117.13l-14.27-6.78-12.56-30-8.05,3.4q6.94,16.83,13.9,33.66l17.42,8.29a14.09,14.09,0,0,1,7.79,12.82v5.61h-6.12c-8.19,0-14.86,7.13-14.86,15.9s6.67,15.9,14.86,15.9h6.12v19a7.56,7.56,0,0,1-7.28,7.79l-9,2.65c-.17,1.9-.33,3.79-.49,5.69,7.64,2.84,15.88,1.24,20.86-4a18.31,18.31,0,0,0,4.7-12.12V138.5c0-9.24-5.1-17.62-13-21.37m4.23,49.43h-6.12a6.57,6.57,0,0,1,0-13.1h6.12Z"/><path class="cls-1" d="M280.5,83.5l7-5,.11-.17c-6.43-10.28-21.28-16.92-37.81-16.92H35v8.75H249.8a46.65,46.65,0,0,1,21.7,6.34A45.28,45.28,0,0,1,280.5,83.5Z"/><path class="cls-1" d="M42.92,178.66q.38-53.32.76-106.66H35V182.84c0,16.12,9.92,29.23,22.12,29.23l4.88-.2q-1.59-7.86-3.19-15.74H57.12c-1.6-.15-4.24-.86-7.11-3.9-4-4.2-6.16-10.51-7.09-13.57"/><path d="M235.88,203.31H127.35v8.36l112.68,0q-2.07-4.17-4.15-8.33Z"/><path class="cls-1" d="M176.26,83.82H142.18a16.06,16.06,0,0,0-16,16v23.32a16.06,16.06,0,0,0,16,16h43.4a16,16,0,0,0,14.89-22l-9.33-23.32a16,16,0,0,0-14.88-10.07m15.36,43.43a7.19,7.19,0,0,1-6,3.21h-43.4a7.3,7.3,0,0,1-7.29-7.29V99.85a7.3,7.3,0,0,1,7.29-7.29h34.08A7.25,7.25,0,0,1,183,97.14l9.33,23.32a7.18,7.18,0,0,1-.73,6.79"/><path class="cls-1" d="M96.25,85.35H62.17a16,16,0,0,0-16,16V124.7a16,16,0,0,0,16,16h43.41a16,16,0,0,0,14.89-22l-9.33-23.32A16,16,0,0,0,96.25,85.35m15.37,43.43a7.19,7.19,0,0,1-6,3.21H62.17a7.3,7.3,0,0,1-7.29-7.29V101.38a7.3,7.3,0,0,1,7.29-7.29H96.25A7.26,7.26,0,0,1,103,98.67L112.35,122a7.21,7.21,0,0,1-.73,6.79"/><polygon points="205.37 72 205.07 72 205.07 203.31 205.37 203.31 205.37 72 205.37 72"/><path d="M200.47,143.73v9.86h-1.86v-9.86h1.86m3-3h-7.86v15.86h7.86V140.73Z"/></svg>