<svg id="Calque_1" data-name="Calque 1" xmlns="http://www.w3.org/2000/svg" viewBox="0 0 350 300"><title>selected</title><g id="UIyuBT.tif"><path d="M212.19,62.26l.5,1.39.33.94.15.42-.69,3.64-.29-6.39M220,36.2H116c-3.46,1.23-6.23,3.26-7,7.06a22,22,0,0,0-.23,5.9c.55,6.31-1,12.1-3.24,18a384.09,384.09,0,0,0-21.11,82.57c-3.48,24.19-4,48.53-3.74,72.9.06,5.34.07,10.67.11,16H242.91c0-3.36.11-6.71.08-10.07-.1-13.83,0-27.66-.43-41.48a371,371,0,0,0-11.29-78.18,384.67,384.67,0,0,0-13.88-44c-.3-.79-.57-1.59-.94-2.62H227V57.63c0-3.16-.16-6.33,0-9.48.35-5.66-1.49-9.88-7.09-11.95ZM114.85,56.14c0-3.81-.14-7.55.1-11.27.06-.87,1.27-1.82,2.17-2.42a2.36,2.36,0,0,1,1.31-.28l1,0H209v14Zm100.29,0c0-3.93-.09-7.77.05-11.61A2.47,2.47,0,0,1,218,42.29h0c1.42,0,2.74.73,2.8,2.25.14,3.84.05,7.7.05,11.64ZM86.9,232.51a10.59,10.59,0,0,1-.16-1.43c.1-14.16,0-28.33.38-42.49a358.42,358.42,0,0,1,7.77-63.43A387.34,387.34,0,0,1,113.12,64c.46-1.17.92-1.73,2.33-1.73h0q45.26.08,90.52,0c.4,0,.79,0,1.46.07-1.6,4.43-3.14,8.61-4.63,12.82A385.51,385.51,0,0,0,184.5,151a404.17,404.17,0,0,0-3.63,57.34c0,7.38,0,14.76,0,22.14v2Zm149.84-4.33c-.33-.26-.74-.51-1.09-.84-6.52-6.14-13.05-12.27-19.52-18.47a3.86,3.86,0,0,1-1.13-2.5q-.09-64.6-.05-129.21c0-.06,0-.13.14-.72,17.72,49.37,23.64,99.94,21.65,151.74Zm-49.58.17c-1.9-51.93,3.94-102.46,21.67-151.85,0,1.12.11,1.73.11,2.33q0,63.55,0,127.1a4,4,0,0,1-1.36,3.25c-6.32,5.87-12.58,11.82-18.86,17.74-.47.45-1,.87-1.59,1.43Zm4.49,4.1c6.83-6.43,13.47-12.71,20.31-19.16l20.34,19.16Z"/><path d="M118.89,46.18H205v6H118.82c0-2,0-4,.07-6m-.46-4a2.36,2.36,0,0,0-1.31.28c-.9.6-2.11,1.55-2.17,2.42-.24,3.72-.1,7.46-.1,11.27H209v-14H119.42l-1,0Z"/><path d="M212,218.79l7.29,6.87,3,2.79h-20.5L212,218.79m0-5.5c-6.84,6.45-13.48,12.73-20.31,19.16H232.3L212,213.29Z"/><path d="M228.54,160.32l-5.95.7c.58,6.5,1.14,12.82,1.72,19.27l6-.33c-.61-6.64-1.19-13-1.79-19.64Z"/></g><path d="M150.87,92.18a1.56,1.56,0,0,0-.89.27L94.05,131.06a1.56,1.56,0,0,0-.16,2.44l25.57,23.22a5,5,0,0,0,.14,5.48l2.45,3.56a5,5,0,0,0,7,1.28l16.16-11.15,8.6,17.14a8.75,8.75,0,0,0,5.64,4.54,9,9,0,0,0,2.17.27A8.73,8.73,0,0,0,168,163.2l-13-14.13,16.16-11.15a5,5,0,0,0,1.28-7L170,127.39a5,5,0,0,0-5.08-2.08L152.32,93.17a1.51,1.51,0,0,0-1-.92,1.41,1.41,0,0,0-.45-.07ZM121.78,154.6l-20.39-18.51L99,133.93l-1.56-1.42,52.68-36.37,12,30.59L121.78,154.6Zm4.41,10.2a1.88,1.88,0,0,1-1.57-.82l-2.45-3.55a1.89,1.89,0,0,1,.48-2.63l42.19-29.12a1.9,1.9,0,0,1,2.63.48l2.45,3.56a1.88,1.88,0,0,1-.48,2.63l-17.63,12.17a1.58,1.58,0,0,0-.67,1.11,1.55,1.55,0,0,0,.41,1.23l14.18,15.45a5.61,5.61,0,0,1-4.13,9.41,5.65,5.65,0,0,1-5-3.09l-9.42-18.75a1.56,1.56,0,0,0-1-.81,1.58,1.58,0,0,0-.38,0,1.57,1.57,0,0,0-.89.28l-17.63,12.17a1.92,1.92,0,0,1-1.07.33Z"/><polygon points="151.66 96.7 97.68 133.95 98.97 135.81 152.94 98.56 151.66 96.7 151.66 96.7"/></svg>