<?xml version="1.0" encoding="utf-8"?>
<!-- Generator: Adobe Illustrator 22.1.0, SVG Export Plug-In . SVG Version: 6.00 Build 0)  -->
<svg style="enable-background:new 0 0 500 500;" id="Calque_1" version="1.1" viewBox="0 0 500 500" x="0px"
     xmlns="http://www.w3.org/2000/svg" y="0px" xml:space="preserve">
<style type="text/css">
	.st0{fill:#4FBDD7;}
	.st1{fill:#EAEAEA;}
	.st2{fill:#FFFFFF;}
	.st3{fill:#4FBDD7;stroke:#FFFFFF;stroke-width:5;stroke-miterlimit:10;}
	.st4{fill:#8C8C8C;}
	.st5{fill:#070707;}
	.st6{fill:none;stroke:#FFFFFF;stroke-width:7;stroke-miterlimit:10;}
	.st7{fill:none;stroke:#FFFFFF;stroke-width:10;stroke-miterlimit:10;}
	.st8{fill:#FFFFFF;stroke:#FFFFFF;stroke-width:3;stroke-miterlimit:10;}
	.st9{fill:none;stroke:#FDFFFF;stroke-width:6;stroke-miterlimit:10;}
	.st10{fill:#FAFEFF;}
	.st11{fill:none;stroke:#FFFFFF;stroke-width:2;stroke-miterlimit:10;}
	.st12{fill:#FFFFFF;stroke:#FFFFFF;stroke-width:2;stroke-miterlimit:10;}
	.st13{fill:#4FBDD7;stroke:#FFFFFF;stroke-width:4;stroke-miterlimit:10;}
	.st14{fill:#FFFFFF;stroke:#FFFFFF;stroke-width:4;stroke-miterlimit:10;}
	.st15{fill:none;stroke:#FFFFFF;stroke-miterlimit:10;}
	.st16{fill:#FFFFFF;stroke:#FFFFFF;stroke-width:13;stroke-miterlimit:10;}
	.st17{fill:#4FBDD7;stroke:#FFFFFF;stroke-width:8;stroke-miterlimit:10;}
	.st18{fill:#FFFFFF;stroke:#FFFFFF;stroke-width:0.75;stroke-miterlimit:10;}
	.st19{fill:#FFFFFF;stroke:#FFFFFF;stroke-width:0.5;stroke-miterlimit:10;}
	.st20{fill:#FFFFFF;stroke:#FFFFFF;stroke-width:8;stroke-miterlimit:10;}
	.st21{fill:#FFFFFF;stroke:#FFFFFF;stroke-miterlimit:10;}
	.st22{fill:#FFFFFF;stroke:#FFFFFF;stroke-width:11;stroke-miterlimit:10;}
	.st23{fill:#FFFFFF;stroke:#FFFFFF;stroke-width:6;stroke-miterlimit:10;}
	.st24{fill:#8C8C8C;stroke:#8C8C8C;stroke-width:4;stroke-miterlimit:10;}
	.st25{fill:#FFFFFF;stroke:#FFFFFF;stroke-width:1.05;stroke-miterlimit:10;}
	.st26{fill:none;stroke:#4FBDD7;stroke-width:5;stroke-miterlimit:10;}
	.st27{fill:none;stroke:#FFFFFF;stroke-width:4;stroke-miterlimit:10;}
	.st28{fill:#8C8C8C;stroke:#FFFFFF;stroke-width:4;stroke-miterlimit:10;}
	.st29{fill:#FFFFFF;stroke:#FFFFFF;stroke-width:10;stroke-miterlimit:10;}
	.st30{fill:none;stroke:#4FBDD7;stroke-width:2;stroke-miterlimit:10;}
	.st31{fill-rule:evenodd;clip-rule:evenodd;fill:#FFFFFF;}
	.st32{fill:#FFFFFF;stroke:#FFFFFF;stroke-width:7;stroke-miterlimit:10;}
	.st33{fill:#FFFFFF;stroke:#4FBDD7;stroke-width:7;stroke-miterlimit:10;}
	.st34{fill:none;}
	.st35{font-family:'HelveticaNeue-CondensedBold';}
	.st36{font-size:54px;}
	.st37{fill:#FCFCFC;}
	.st38{fill:#FFFFFF;stroke:#FFFFFF;stroke-width:5;stroke-miterlimit:10;}
	.st39{fill:none;stroke:#FFFFFF;stroke-width:3;stroke-miterlimit:10;}
	.st40{fill:none;stroke:#FFFFFF;stroke-width:8;stroke-miterlimit:10;}
	.st41{fill:none;stroke:#FFFFFF;stroke-width:6;stroke-miterlimit:10;}
	.st42{fill:#FFFFFF;stroke:#4FBDD7;stroke-width:3;stroke-miterlimit:10;}
	.st43{fill:none;stroke:#FFFFFF;stroke-width:0.75;stroke-miterlimit:10;}
	.st44{fill:#4FBDD7;stroke:#FFFFFF;stroke-width:9;stroke-miterlimit:10;}
	.st45{fill:none;stroke:#FFFFFF;stroke-width:9;stroke-miterlimit:10;}
	.st46{fill:none;stroke:#4FBDD7;stroke-width:3;stroke-miterlimit:10;}
</style>
    <rect class="st0" height="500" width="500"/>
    <g id="YooJ50_1_">
	<g>
		<path class="st2" d="M198.2,314.5c-1.9-6.3-3.8-12.5-5.9-19.2c-3,3.5-6,6.9-9,10.4c-2.9-7.9-0.2-14.2,2.7-21.4
			c-5.5,1.4-10,2.5-15.9,4c2.7-3.8,4.5-6.8,6.8-9.3c2.2-2.4,4.9-4.4,8.1-7.1c-5.1-1.5-9.6-2.7-14.6-4.2c5.7-5,12.3-6,20.2-6.8
			c-3.9-4.1-7.1-7.5-10.8-11.4c7.5-1.1,13.7,0.9,21,4.6c-1.4-5.8-2.6-10.4-3.7-15c0.4-0.4,0.8-0.7,1.2-1.1c4.9,4.5,9.8,8.9,15,13.7
			c1.1-3.6,2.3-7.4,3.2-11.3c0.1-0.7-1.4-2.3-2.4-2.6c-6.3-1.8-12.5-3.9-19-4.7c-8.2-1.1-15.3,2.8-21.3,8
			c-8.4,7.2-14.5,16-16.3,27.3c-0.2,1.4-2.2,2.5-3.4,3.7c-0.9-1.6-2.8-3.2-2.7-4.7c0.9-8.8,4.7-16.5,10.4-23.2
			c8.8-10.5,19.1-18.2,35-17.9c-4-3.1-6.9-5.8-10.2-7.9c-4.4-2.8-6-6.2-4.5-11.3c1.7-5.5,3-11,4.6-16.5c1.1-3.8,3.5-5.9,7.5-6.3
			c4.1-0.5,8.2-1.1,12.3-1.6c4.1-0.5,7.9-0.7,10.7-4.8c2.4-3.5,6.8-2.9,10.6-1.8c9,2.4,18.1,4.9,27.6,7.5c1.9-7,3.7-13.7,5.5-20.4
			c6.1-22.9,12.2-45.8,18.3-68.8c4.3-16.2,14.9-26.2,29.8-33.8c8.9-4.5,17.3-3.8,26-4.1c6.2-0.3,12.4-0.2,18.6,0
			c4.5,0.1,7.5,3,7.6,7c0,3.9-3,7-7.4,7c-11.8,0.1-23.6,0-35.4,0c-1.1,0-2.5,0-3.2-0.6c-3.8-3.8-7.2-1.4-10.6,0.5
			c-9.7,5.6-16.1,13.8-19,24.7c-9.8,36.6-19.6,73.2-29.4,109.8c-3,11.4-6,22.7-8.9,34.1c-0.3,1.1,0.3,3,1.2,3.9
			c6.7,6.5,10.6,14.7,13.6,23.3c0.5,1.3-0.8,3.2-1.2,4.9c-1.5-0.8-3.9-1.2-4.4-2.4c-10.2-24.2-11.7-22.5-35.9-29.4
			c-0.6-0.2-1.2-0.2-1.5-0.2c1.8,6.1,3.5,12.1,5.6,19.3c3-3.9,5.8-7.6,8.6-11.3c0.6,0.5,1.1,0.9,1.7,1.4c1.1,6.8-1,13.2-4.4,20.3
			c5.5-1.3,10-2.5,15.1-3.7c-2.6,7.1-7.7,11.4-14.1,16.1c5.4,1.6,9.8,2.9,14.9,4.3c-5.9,4.8-12.3,6.2-20.4,6.6
			c4,4.3,7.2,7.6,10.8,11.4c-7.4,1.4-13.7-1.1-20.7-4.1c1.3,5.5,2.4,10.1,3.5,14.6c-0.4,0.3-0.8,0.7-1.2,1c-4.9-4.5-9.8-9-14.9-13.7
			c-1.2,4.4-2.5,9-3.8,13.6C199.4,314.6,198.8,314.5,198.2,314.5z M241.3,236.9c3.7-14,7.4-27.7,11.1-41.6
			c-12.6-3.4-24.7-6.7-37.2-10c-3.7,14.1-7.3,27.6-11,41.8C216.8,230.4,228.9,233.6,241.3,236.9z M211.9,185
			c-6.6,0.9-12.2,1.3-17.6,2.4c-1.7,0.4-3.9,2.4-4.4,4.1c-1.8,5.6-3.2,11.3-4.3,17.1c-0.3,1.8,0.2,4.5,1.4,5.6
			c4.2,3.8,8.9,7,13.9,10.8C204.7,211.5,208.2,198.7,211.9,185z M336.5,59.5c-5.9,0-11.8-0.3-17.6,0.2c-1.6,0.1-3,2.3-4.5,3.6
			c1.5,1.3,3,3.6,4.6,3.6c11.4,0.3,22.9,0.2,34.3,0.2c2.7,0,5.2-1.1,4.5-4c-0.3-1.4-2.9-3.2-4.6-3.4C347.6,59.2,342,59.4,336.5,59.5
			z M217.7,180.4c0.1,0.6,0.1,1.1,0.2,1.7c11.6,3.1,23.1,6.3,35,9.5c0.6-1.9,1-3.3,1.6-5.2c-10.1-2.7-19.8-5.6-29.7-7.8
			C222.6,178,220,179.7,217.7,180.4z"/>
        <path class="st2" d="M211.9,185c-3.7,13.6-7.2,26.5-11,40.1c-5.1-3.8-9.7-7.1-13.9-10.8c-1.2-1.1-1.7-3.8-1.4-5.6
			c1.1-5.8,2.5-11.5,4.3-17.1c0.6-1.7,2.7-3.7,4.4-4.1C199.8,186.3,205.3,185.9,211.9,185z M198.4,213c0.3,0.4,0.8,1.1,1.3,1.9
			c0.7-0.6,1.9-1.1,2.1-1.9c1.7-6.4,3.3-12.8,4.9-19.3c0.2-0.7-0.5-1.5-0.8-2.3c-0.7,0.5-2,0.9-2.2,1.6
			C201.9,199.4,200.3,205.9,198.4,213z M193.7,211.8c0.7,0.3,1.3,0.6,2,0.9c3.9-5.1,3.7-11.9,5.8-17.8c0.3-0.8-0.7-2-1.1-3.1
			c-0.4,0.1-0.9,0.1-1.3,0.2C197.3,198.6,195.5,205.2,193.7,211.8z M194.9,191.6c-1.1,2-1.4,2.3-1.5,2.8c-1.2,4.4-2.6,8.8-3.6,13.2
			c-0.2,0.8,0.8,1.9,1.2,2.8c0.7-0.6,1.8-1.2,2.1-1.9c1.2-4.2,2.3-8.5,3.2-12.8C196.5,194.7,195.7,193.6,194.9,191.6z"/>
        <path class="st2" d="M336.5,59.5c5.6,0,11.1-0.3,16.7,0.2c1.7,0.1,4.3,1.9,4.6,3.4c0.6,2.9-1.8,4-4.5,4c-11.4,0-22.9,0.1-34.3-0.2
			c-1.6,0-3.1-2.3-4.6-3.6c1.5-1.3,2.9-3.5,4.5-3.6C324.7,59.2,330.6,59.5,336.5,59.5z"/>
        <path class="st2" d="M241.8,210.6c0,5.9-5.7,12.2-11.1,12.3c-6.9,0.1-12.9-5.5-12.7-12c0.1-6.4,5.7-11.7,12.1-11.7
			C236.2,199.2,241.9,204.7,241.8,210.6z M238.1,210.9c-0.1-5.1-3.5-8.6-8.3-8.5c-4.2,0.1-8.2,3.8-8.2,7.7c0,5,3.4,9.2,7.7,9.2
			C234.7,219.2,238.1,216,238.1,210.9z"/>
	</g>
</g>
    <g>
	<rect class="st34" height="144" width="500" x="-3" y="363"/>
        <text class="st2 st35 st36" transform="matrix(1 0 0 1 117.6445 401.5557)">Motoculteur</text>
</g>
</svg>
