<svg id="Calque_1" data-name="Calque 1" xmlns="http://www.w3.org/2000/svg" viewBox="0 0 350 300"><defs><style>.cls-1{fill:none;stroke:#000;stroke-miterlimit:10;stroke-width:4px;}</style></defs><title>selected</title><path d="M71.22,183.3l.14.1,2.13,1.43.19.13H69.53l1.78-1.54-.09-.12m93.87,52c0,.75-.09,1.5-.17,2.23l-3.61,2.34.12-.13,0,0,.07-.07c.24-.24.46-.48.69-.72l0,0h0a27.41,27.41,0,0,0,2.8-3.56m-90.52-99v21.3a15.88,15.88,0,0,0-8.76,25.26c-9.27,8-14.32,19.26-14.32,32.13v3.91a28.24,28.24,0,0,0-3,1.75A27,27,0,0,0,63.56,270H133a36.08,36.08,0,0,0,36.07-34.65A31.1,31.1,0,0,0,143.45,189c-6.11-11.94-17.27-15.58-26.46-16.93a15.95,15.95,0,0,0-16.2-14.88.18.18,0,0,1-.15-.12c-4.94-13.31-20.47-18.81-21.13-19l-4.94-1.7ZM82,157.19V147.4c4,2.29,9.43,6.3,11.65,12.27a7.63,7.63,0,0,0,7.12,5,8.75,8.75,0,0,1,8.42,6,8.18,8.18,0,0,1,.21,4l-.75,4,4,.4c11.2,1.11,18.24,4.38,22.55,10.68l-.08,0-.24.06q-.81.18-1.62.42h0l-.24.07L72.14,217.48h-.07c-.48-.16-1-.31-1.44-.44l-.22-.06a26.66,26.66,0,0,0-11.47-.5V215A34.2,34.2,0,0,1,70.2,189h30.93v-7.44H75.72l-2.13-1.44a8.44,8.44,0,0,1,4.71-15.44h8.19v-7.45Zm60.05,86.52a23.61,23.61,0,0,1-5.76-.72h-.07l-.67-.19-.68-.21-.48-.15c-.41-.14-.81-.29-1.22-.45L81.82,221.32l53.82-24c.45-.13.91-.24,1.37-.34h.05a23.34,23.34,0,0,1,4.15-.53l.9,0a23.71,23.71,0,0,1,20.51,35.34l-.38.62a24.71,24.71,0,0,1-2.88,3.79l-.62.64-.13.13a24.7,24.7,0,0,1-3.35,2.72,24.09,24.09,0,0,1-5,2.59l-.6.21-.33.11a23.39,23.39,0,0,1-7.25,1.15ZM63.56,262.55A19.54,19.54,0,0,1,44,243a19.22,19.22,0,0,1,8.61-16.18,19.76,19.76,0,0,1,3.5-1.88l.41-.16a19.3,19.3,0,0,1,13.44-.2c.3.1.59.21.88.33l1.47.59h0l58.06,23.34c.42.17.85.33,1.28.48l.25.09a31,31,0,0,0,26.95-3.24A28.77,28.77,0,0,1,133,262.55Z"/><path class="cls-1" d="M211.09,94.37V73.79h-9.92V66.1a8.7,8.7,0,0,0-8.69-8.69h-6.95a6.22,6.22,0,0,1-6.21-6.21V26L154,19V73.79h-9.92V94.37A80.16,80.16,0,0,0,129.93,140v25.9h7.44V140A72.84,72.84,0,0,1,149.52,99.6h56.13A72.84,72.84,0,0,1,217.8,140V262.43H167.9v7.45h57.34V140A80.16,80.16,0,0,0,211.09,94.37ZM161.45,28.8l10.43,2.89V51.2a13.66,13.66,0,0,0,13.65,13.65h6.95a1.25,1.25,0,0,1,1.24,1.25v7.69H161.45Zm42.2,63.36H151.52V81.24h52.13V92.16ZM217.8,213.29v-64"/><path d="M207,147.94h0c-2.73,0-5.44.51-8.19.51h0c-2.79,0-5.57-.19-8.36-.27h-.79c-3.56,0-7.24.62-10.84.62a20.11,20.11,0,0,1-5.25-.61,2.27,2.27,0,0,0-.43-.05,1.54,1.54,0,0,0-.39,3,22.52,22.52,0,0,0,5.72.65c3.71,0,7.48-.6,11.18-.6h.8c2.76.07,5.53.25,8.29.25h.89c2.6,0,5.68-.1,7.94-1.51a1.08,1.08,0,0,0-.53-2Z"/><path d="M207,160.68h0c-2.73,0-5.44.51-8.19.51h0c-2.79,0-5.57-.2-8.36-.27l-.79,0c-3.56,0-7.24.62-10.84.62a20.54,20.54,0,0,1-5.25-.6,1.71,1.71,0,0,0-.43-.06,1.55,1.55,0,0,0-.39,3,22.52,22.52,0,0,0,5.72.65c3.71,0,7.48-.6,11.18-.6h.8c2.76.07,5.53.25,8.29.25h.89c2.6,0,5.68-.1,7.94-1.52a1.07,1.07,0,0,0-.53-2Z"/><path d="M207,171.82h0c-2.73,0-5.44.51-8.19.51h0c-2.79,0-5.57-.19-8.36-.27h-.79c-3.56,0-7.24.62-10.84.62a20.54,20.54,0,0,1-5.25-.6,1.71,1.71,0,0,0-.43-.06c-1.6,0-2.15,2.56-.39,3a22.53,22.53,0,0,0,5.72.66c3.71,0,7.48-.61,11.18-.61h.8c2.76.07,5.53.25,8.29.25h.89c2.6,0,5.68-.1,7.94-1.52a1.08,1.08,0,0,0-.53-2Z"/><path d="M270.77,89.45A164.1,164.1,0,0,0,230,94.59a2.74,2.74,0,0,0-2,3.34l21.57,84h-1.08a8.16,8.16,0,0,0-8.15,8.15v.75a8.11,8.11,0,0,0,2.39,5.77,8.29,8.29,0,0,0,2.47,1.69,137.4,137.4,0,0,0,0,53.91,8.16,8.16,0,0,0-4.86,7.45v.76a8.16,8.16,0,0,0,8.15,8.15h44.59a8.16,8.16,0,0,0,8.15-8.15v-.76a8.16,8.16,0,0,0-4.86-7.45,137.45,137.45,0,0,0,0-53.92,8,8,0,0,0,2.47-1.69,8.09,8.09,0,0,0,2.39-5.76v-.75a8.15,8.15,0,0,0-8.15-8.15H292l21.57-84a2.75,2.75,0,0,0-2-3.34h0a164.08,164.08,0,0,0-40.81-5.14Zm15.55,92.49H255.21L234,99.25a158.77,158.77,0,0,1,73.57,0l-21.23,82.69Zm-37.85,9.74a.84.84,0,0,1-.83-.84v-.75a.83.83,0,0,1,.24-.59.84.84,0,0,1,.59-.25h44.59a.85.85,0,0,1,.84.84v.75a.85.85,0,0,1-.84.84H248.47Zm4,59.83a130.11,130.11,0,0,1,0-52.52H289a130.11,130.11,0,0,1,0,52.52Zm-4,9.74a.83.83,0,0,1-.83-.83v-.76a.85.85,0,0,1,.24-.59.83.83,0,0,1,.59-.24h44.59a.84.84,0,0,1,.84.83v.76a.84.84,0,0,1-.84.83Z"/><path d="M239.51,94.29c-.28,0-.38.87-.09,2.32,1.19,5.81,2.59,11.53,3.78,17.39s2.3,11.85,3.46,17.77c2.31,11.81,5.59,24.13,7.25,35.84.34,2.4,1.08,3.89,1.52,3.89s.47-.74.23-2.44c-1.77-12.42-5.12-25.11-7.57-37.58-1.28-6.5-2.49-13-3.83-19.51a143.58,143.58,0,0,0-4.13-16.7c-.23-.67-.46-1-.62-1Z"/><path d="M253.62,170.7h0m-5.87-77c-.27,0-.44.86-.27,2.3.7,5.9,1.62,11.72,2.31,17.65s1.3,12,2,18c1.32,11.95,3.56,24.51,4.23,36.32.15,2.45.77,4,1.21,4s.52-.74.42-2.42c-.73-12.52-3-25.45-4.41-38.08-.73-6.59-1.39-13.18-2.19-19.77a141.35,141.35,0,0,0-2.71-17c-.19-.7-.39-1-.55-1Z"/><path d="M258.25,94.85h0m-1.46,75.85h0m-2.15-77.15c-.27,0-.48.84-.38,2.28.41,5.92,1.05,11.78,1.45,17.74s.73,12.05,1.1,18.07c.74,12,2.37,24.66,2.47,36.48,0,2.48.59,4.07,1,4.07s.53-.73.52-2.4c-.12-12.54-1.78-25.56-2.57-38.24-.41-6.62-.75-13.24-1.23-19.85a140.78,140.78,0,0,0-1.89-17.1c-.15-.72-.34-1-.5-1Z"/><path d="M260.49,93.47c-.26,0-.46.84-.36,2.28.43,5.92,1.09,11.78,1.52,17.74s.77,12,1.16,18.06c.79,12,2.47,24.65,2.62,36.47,0,2.48.6,4.06,1,4.06.29,0,.53-.73.51-2.4-.17-12.53-1.88-25.55-2.71-38.23-.44-6.61-.81-13.23-1.31-19.84a141.94,141.94,0,0,0-2-17.09c-.15-.72-.34-1-.51-1Z"/><path d="M264.75,171.05h0m4-77.07c-.27,0-.53.82-.55,2.24-.06,5.94.11,11.83,0,17.8s-.25,12.07-.35,18.1c-.22,12,.39,24.76-.44,36.56-.18,2.5.26,4.13.71,4.13.29,0,.58-.71.69-2.34.88-12.51.27-25.62.49-38.33.12-6.63.3-13.25.36-19.89a142.41,142.41,0,0,0-.52-17.18c-.1-.75-.27-1.09-.43-1.09Z"/><path d="M263.75,168h0M275,91.63c-.25,0-.59.79-.74,2.18-.62,5.91-1,11.78-1.65,17.72s-1.38,12-2.06,18c-1.36,11.95-1.95,24.69-3.9,36.36-.42,2.5-.12,4.18.33,4.18.29,0,.64-.69.9-2.28,2.06-12.36,2.69-25.47,4.12-38.1.74-6.59,1.55-13.16,2.24-19.76a141.55,141.55,0,0,0,1.1-17.16c0-.78-.16-1.13-.34-1.13Z"/><path d="M283,93.59c-.25,0-.64.76-.9,2.11-1.12,5.83-2,11.66-3.13,17.53s-2.38,11.83-3.56,17.75c-2.35,11.79-4,24.44-6.92,35.9-.63,2.48-.46,4.2,0,4.2.28,0,.68-.66,1.07-2.19,3.08-12.16,4.81-25.17,7.28-37.63,1.29-6.51,2.65-13,3.88-19.51a142,142,0,0,0,2.54-17c0-.78-.08-1.15-.26-1.15Z"/><path d="M289.65,95.48c-.26,0-.68.74-1,2.07-1.4,5.77-2.56,11.55-4,17.35s-2.94,11.71-4.41,17.56c-2.91,11.67-5.17,24.22-8.64,35.53-.76,2.46-.66,4.19-.2,4.19.29,0,.71-.64,1.17-2.14,3.67-12,6-24.9,9.09-37.23,1.61-6.44,3.27-12.85,4.82-19.3a141.29,141.29,0,0,0,3.35-16.86c.08-.8,0-1.17-.2-1.17Z"/><path d="M296.26,95.17c-.26,0-.68.74-1,2.07-1.37,5.78-2.51,11.56-3.9,17.37s-2.9,11.72-4.34,17.58c-2.87,11.68-5.09,24.23-8.51,35.56-.75,2.47-.65,4.19-.18,4.19.28,0,.71-.64,1.16-2.14,3.62-12,5.92-24.93,8.95-37.27,1.57-6.44,3.22-12.86,4.74-19.32a140.42,140.42,0,0,0,3.28-16.88c.08-.79,0-1.16-.2-1.16Z"/><path d="M304,97.14c-.26,0-.73.7-1.15,2-1.85,5.64-3.47,11.31-5.34,17s-3.87,11.44-5.8,17.16c-3.83,11.39-7.09,23.72-11.44,34.72-1,2.43-1,4.16-.52,4.16.29,0,.75-.6,1.32-2,4.61-11.66,8-24.34,12-36.39,2.11-6.28,4.28-12.54,6.34-18.85a141.89,141.89,0,0,0,4.68-16.54c.15-.8.07-1.18-.12-1.18Z"/><path d="M272,172c11.15,0,17,4.09,17,5.5s-5.85,5.5-17,5.5-17-4.09-17-5.5,5.85-5.5,17-5.5m0-4c-11.6,0-21,4.25-21,9.5s9.4,9.5,21,9.5,21-4.25,21-9.5-9.4-9.5-21-9.5Z"/></svg>