<?xml version="1.0" encoding="utf-8"?>
<!-- Generator: Adobe Illustrator 22.1.0, SVG Export Plug-In . SVG Version: 6.00 Build 0)  -->
<svg style="enable-background:new 0 0 500 500;" id="Calque_1" version="1.1" viewBox="0 0 500 500" x="0px"
     xmlns="http://www.w3.org/2000/svg" y="0px" xml:space="preserve">
<style type="text/css">
	.st0{fill:#4FBDD7;}
	.st1{fill:#EAEAEA;}
	.st2{fill:#FFFFFF;}
	.st3{fill:#4FBDD7;stroke:#FFFFFF;stroke-width:5;stroke-miterlimit:10;}
	.st4{fill:#8C8C8C;}
	.st5{fill:#070707;}
	.st6{fill:none;stroke:#FFFFFF;stroke-width:7;stroke-miterlimit:10;}
	.st7{fill:none;stroke:#FFFFFF;stroke-width:10;stroke-miterlimit:10;}
	.st8{fill:#FFFFFF;stroke:#FFFFFF;stroke-width:3;stroke-miterlimit:10;}
	.st9{fill:none;stroke:#FDFFFF;stroke-width:6;stroke-miterlimit:10;}
	.st10{fill:#FAFEFF;}
	.st11{fill:none;stroke:#FFFFFF;stroke-width:2;stroke-miterlimit:10;}
	.st12{fill:#FFFFFF;stroke:#FFFFFF;stroke-width:2;stroke-miterlimit:10;}
	.st13{fill:#4FBDD7;stroke:#FFFFFF;stroke-width:4;stroke-miterlimit:10;}
	.st14{fill:#FFFFFF;stroke:#FFFFFF;stroke-width:4;stroke-miterlimit:10;}
	.st15{fill:none;stroke:#FFFFFF;stroke-miterlimit:10;}
	.st16{fill:#FFFFFF;stroke:#FFFFFF;stroke-width:13;stroke-miterlimit:10;}
	.st17{fill:#4FBDD7;stroke:#FFFFFF;stroke-width:8;stroke-miterlimit:10;}
	.st18{fill:#FFFFFF;stroke:#FFFFFF;stroke-width:0.75;stroke-miterlimit:10;}
	.st19{fill:#FFFFFF;stroke:#FFFFFF;stroke-width:0.5;stroke-miterlimit:10;}
	.st20{fill:none;}
	.st21{font-family:'HelveticaNeue-CondensedBold';}
	.st22{font-size:54px;}
	.st23{fill:#FFFFFF;stroke:#FFFFFF;stroke-width:8;stroke-miterlimit:10;}
	.st24{fill:#FFFFFF;stroke:#FFFFFF;stroke-miterlimit:10;}
	.st25{fill:#FFFFFF;stroke:#FFFFFF;stroke-width:11;stroke-miterlimit:10;}
	.st26{fill:#FFFFFF;stroke:#FFFFFF;stroke-width:6;stroke-miterlimit:10;}
	.st27{fill:#8C8C8C;stroke:#8C8C8C;stroke-width:4;stroke-miterlimit:10;}
	.st28{fill:#FFFFFF;stroke:#FFFFFF;stroke-width:1.05;stroke-miterlimit:10;}
	.st29{fill:none;stroke:#4FBDD7;stroke-width:5;stroke-miterlimit:10;}
	.st30{fill:none;stroke:#FFFFFF;stroke-width:4;stroke-miterlimit:10;}
	.st31{fill:#8C8C8C;stroke:#FFFFFF;stroke-width:4;stroke-miterlimit:10;}
	.st32{fill:#FFFFFF;stroke:#FFFFFF;stroke-width:10;stroke-miterlimit:10;}
	.st33{fill:none;stroke:#4FBDD7;stroke-width:2;stroke-miterlimit:10;}
	.st34{fill-rule:evenodd;clip-rule:evenodd;fill:#FFFFFF;}
	.st35{fill:#FFFFFF;stroke:#FFFFFF;stroke-width:7;stroke-miterlimit:10;}
	.st36{fill:#FFFFFF;stroke:#4FBDD7;stroke-width:7;stroke-miterlimit:10;}
	.st37{fill:#FCFCFC;}
	.st38{fill:#FFFFFF;stroke:#FFFFFF;stroke-width:5;stroke-miterlimit:10;}
	.st39{fill:none;stroke:#FFFFFF;stroke-width:3;stroke-miterlimit:10;}
	.st40{fill:none;stroke:#FFFFFF;stroke-width:8;stroke-miterlimit:10;}
	.st41{fill:none;stroke:#FFFFFF;stroke-width:6;stroke-miterlimit:10;}
	.st42{fill:#FFFFFF;stroke:#4FBDD7;stroke-width:3;stroke-miterlimit:10;}
	.st43{fill:none;stroke:#FFFFFF;stroke-width:0.75;stroke-miterlimit:10;}
	.st44{fill:#4FBDD7;stroke:#FFFFFF;stroke-width:9;stroke-miterlimit:10;}
	.st45{fill:none;stroke:#FFFFFF;stroke-width:9;stroke-miterlimit:10;}
	.st46{fill:none;stroke:#4FBDD7;stroke-width:3;stroke-miterlimit:10;}
</style>
    <rect class="st0" height="508" width="508" x="-6" y="-6"/>
    <g>
	<g>
		<path class="st2" d="M241.7,256.2c-5.1-3.8-11.1-5.9-17.2-6.2c-6.1-11.9-17.3-15.6-26.5-16.9c-0.1-1.2-0.3-2.4-0.6-3.6
			c-2-6.7-8.4-11.3-15.5-11.3c-0.1,0-0.1,0-0.1-0.1c-4.9-13.3-20.5-18.8-21.1-19l-4.9-1.7v21.3c-7,1.7-12.2,8-12.2,15.4
			c0,3.6,1.2,7.1,3.4,9.8c-9.3,8-14.3,19.3-14.3,32.1v3.9c-1,0.5-2,1.1-3,1.8c-7.4,5-11.9,13.4-11.9,22.4c0,14.9,12.1,27,27,27H214
			c9.6,0,18.6-3.7,25.4-10.4c6.6-6.5,10.3-15.1,10.7-24.2c2.6-4.6,4-9.8,4-15.3C254.1,271.2,249.6,262.1,241.7,256.2z M139.9,276
			c0-10.4,4-19.5,11.3-26.1h1.3h29.4h0.2v-7.4h-0.2h-25.2l-2.1-1.4c-2.3-1.6-3.7-4.2-3.7-7c0-4.7,3.8-8.4,8.4-8.4h3.7h4.5v-7.4H163
			v-9.8c4,2.3,9.4,6.3,11.6,12.3c1.1,3,4,5,7.1,5c3.9,0,7.4,2.5,8.4,6c0.4,1.3,0.5,2.6,0.2,4l-0.8,4l4,0.4
			c11.2,1.1,18.2,4.4,22.5,10.7c0,0-0.1,0-0.1,0c-0.1,0-0.2,0-0.2,0.1c-0.5,0.1-1.1,0.3-1.6,0.4c0,0,0,0,0,0l-0.2,0.1l-60.9,27.2
			c0,0,0,0,0,0c0,0,0,0,0,0c-0.5-0.2-1-0.3-1.4-0.4c-0.1,0-0.1,0-0.2-0.1c-2.3-0.6-4.6-0.9-6.9-0.9c-1.5,0-3.1,0.1-4.6,0.4
			L139.9,276z M214,323.6h-69.5c-10.8,0-19.5-8.8-19.5-19.5c0-6.6,3.1-12.5,8.6-16.2c1.1-0.8,2.3-1.4,3.5-1.9l0.4-0.2
			c4.3-1.7,9.1-1.7,13.4-0.2c0.3,0.1,0.6,0.2,0.9,0.3l1.5,0.6l0,0l58.1,23.3c0.4,0.2,0.9,0.3,1.3,0.5c0.1,0,0.2,0.1,0.2,0.1
			c9.2,3.2,19.1,1.8,26.9-3.2C235.3,316.9,225.4,323.6,214,323.6z M243.6,292.7l-0.4,0.6c-0.8,1.4-1.8,2.6-2.9,3.8
			c-0.2,0.2-0.4,0.4-0.6,0.6c0,0-0.1,0.1-0.1,0.1c-1,1-2.1,1.9-3.4,2.7c-1.6,1.1-3.3,1.9-5,2.6c-0.2,0.1-0.4,0.1-0.6,0.2
			c-0.1,0-0.2,0.1-0.3,0.1c-4.1,1.3-8.6,1.5-13,0.4c0,0,0,0-0.1,0c-0.2-0.1-0.4-0.1-0.7-0.2c-0.2-0.1-0.5-0.1-0.7-0.2
			c-0.2-0.1-0.3-0.1-0.5-0.2c-0.4-0.1-0.8-0.3-1.2-0.4l-51.4-20.7l53.8-24c0.5-0.1,0.9-0.2,1.4-0.3c0,0,0,0,0,0
			c1.4-0.3,2.8-0.5,4.2-0.5c5.3-0.2,10.6,1.4,15,4.7c6,4.5,9.5,11.4,9.5,18.9C246.7,285.3,245.6,289.3,243.6,292.7z"/>
	</g>
</g>
    <g>
	<g>
		<path class="st2" d="M292.1,155.4v-20.6h-9.9v-7.7c0-4.8-3.9-8.7-8.7-8.7h-6.9c-3.4,0-6.2-2.8-6.2-6.2V87L235,80v54.8h-9.9v20.6
			c-9.3,13.5-14.1,29.2-14.1,45.6c0.4,13.3,0.7,26.7,1.1,40c2,0.3,4,0.7,6,1c0.1-13.7,0.2-27.3,0.4-41c0-14.4,4.2-28.4,12.1-40.4
			h56.1c8,12,12.1,25.9,12.1,40.4v1.8v78.9v41.7c-21.9-0.1-43.9-0.3-65.8-0.4c-4.7,2.7-9.3,5.3-14,8c29.1,0,58.2-0.1,87.2-0.1v-49.1
			v-78.9V201C306.2,184.6,301.4,168.8,292.1,155.4z M242.5,89.8l10.4,2.9v19.5c0,7.5,6.1,13.7,13.7,13.7h7c0.7,0,1.2,0.6,1.2,1.2
			v7.7h-32.3V89.8z M284.6,153.2h-52.1v-10.9h2.5h47.2h2.5L284.6,153.2L284.6,153.2z M298.8,274.3v-64"/>
	</g>
</g>
    <g>
	<g>
		<path class="st2" d="M253.7,212.1c5.8,1.5,11.8-0.1,17.7,0.1c3.1,0.1,6.1,0.3,9.2,0.2c2.6,0,5.7-0.1,7.9-1.5c0.9-0.6,0.5-2-0.5-2
			c-2.7,0-5.5,0.5-8.2,0.5c-2.8,0-5.6-0.2-8.4-0.3c-5.6-0.2-11.4,1.4-16.9,0C252.6,208.7,251.8,211.6,253.7,212.1z"/>
	</g>
</g>
    <g>
	<g>
		<path class="st2" d="M253.7,224.9c5.8,1.5,11.8-0.1,17.7,0.1c3.1,0.1,6.1,0.3,9.2,0.2c2.6,0,5.7-0.1,7.9-1.5c0.9-0.6,0.5-2-0.5-2
			c-2.7,0-5.5,0.5-8.2,0.5c-2.8,0-5.6-0.2-8.4-0.3c-5.6-0.2-11.4,1.4-16.9,0C252.6,221.4,251.8,224.4,253.7,224.9z"/>
	</g>
</g>
    <g>
	<g>
		<path class="st2" d="M253.7,236c5.8,1.5,11.8-0.1,17.7,0.1c3.1,0.1,6.1,0.3,9.2,0.2c2.6,0,5.7-0.1,7.9-1.5c0.9-0.6,0.5-2-0.5-2
			c-2.7,0-5.5,0.5-8.2,0.5c-2.8,0-5.6-0.2-8.4-0.3c-5.6-0.2-11.4,1.4-16.9,0C252.6,232.6,251.8,235.5,253.7,236z"/>
	</g>
</g>
    <path class="st2" d="M392.6,155.6c-26.7-6.9-54.9-6.9-81.6,0c-1.5,0.4-2.4,1.9-2,3.3l21.6,84h-1.1c-4.5,0-8.1,3.7-8.1,8.1v0.8
	c0,2.2,0.8,4.2,2.4,5.8c0.7,0.7,1.6,1.3,2.5,1.7c-3.6,17.9-3.6,36,0,53.9c-2.9,1.3-4.9,4.1-4.9,7.4v0.8c0,4.5,3.7,8.1,8.1,8.1h44.6
	c2.2,0,4.3-0.9,5.8-2.4c1.5-1.5,2.4-3.5,2.4-5.8v-0.8c0-3.3-2-6.2-4.9-7.4c3.6-17.9,3.6-36,0-53.9c0.9-0.4,1.8-1,2.5-1.7
	c1.5-1.5,2.4-3.5,2.4-5.8l0-0.8c0-4.5-3.7-8.1-8.1-8.1H373l21.6-84C394.9,157.5,394,156,392.6,155.6L392.6,155.6z M374.9,320.7v0.8
	c0,0.5-0.4,0.8-0.8,0.8h-44.6c-0.5,0-0.8-0.4-0.8-0.8v-0.8c0-0.2,0.1-0.4,0.2-0.6s0.4-0.2,0.6-0.2h1.1H373h1.1
	C374.5,319.8,374.9,320.2,374.9,320.7L374.9,320.7z M370,312.5h-36.5c-3.6-17.4-3.6-35.1,0-52.5H370
	C373.6,277.4,373.6,295.1,370,312.5z M374.9,251.1l0,0.8c0,0.5-0.4,0.8-0.8,0.8h-43.5c0,0,0,0,0,0h-1.1c-0.5,0-0.8-0.4-0.8-0.8v-0.8
	c0-0.2,0.1-0.4,0.2-0.6c0.2-0.2,0.4-0.2,0.6-0.2h44.6C374.5,250.3,374.9,250.6,374.9,251.1L374.9,251.1z M367.3,242.9l-31.1,0
	L315,160.2c24.1-5.7,49.4-5.7,73.6,0L367.3,242.9L367.3,242.9z"/>
    <g>
	<g>
		<path class="st2" d="M336.7,230.1c-1.8-12.4-5.1-25.1-7.6-37.6c-1.3-6.5-2.5-13-3.8-19.5c-1.1-5.5-2.5-12-4.1-16.7
			c-0.6-1.8-1.2-1-0.7,1.3c1.2,5.8,2.6,11.5,3.8,17.4c1.2,5.9,2.3,11.8,3.5,17.8c2.3,11.8,5.6,24.1,7.3,35.8
			C335.5,232.7,337.2,234.2,336.7,230.1z"/>
	</g>
</g>
    <g>
	<g>
		<path class="st2" d="M338.6,230.6c-0.7-12.5-3-25.4-4.4-38.1c-0.7-6.6-1.4-13.2-2.2-19.8c-0.7-5.6-1.5-12.2-2.7-17
			c-0.5-1.9-1.1-1.1-0.8,1.3c0.7,5.9,1.6,11.7,2.3,17.6c0.7,6,1.3,12,2,18c1.3,12,3.6,24.5,4.2,36.3
			C337.2,233.2,338.8,234.7,338.6,230.6z"/>
	</g>
</g>
    <g>
	<g>
		<path class="st2" d="M341.8,230.8c-0.1-12.5-1.8-25.6-2.6-38.2c-0.4-6.6-0.8-13.2-1.2-19.9c-0.4-5.6-0.9-12.3-1.9-17.1
			c-0.4-1.9-1-1.1-0.9,1.2c0.4,5.9,1,11.8,1.4,17.7c0.4,6,0.7,12,1.1,18.1c0.7,12,2.4,24.7,2.5,36.5
			C340.3,233.3,341.9,234.9,341.8,230.8z"/>
	</g>
</g>
    <g>
	<g>
		<path class="st2" d="M348,230.7c-0.2-12.5-1.9-25.6-2.7-38.2c-0.4-6.6-0.8-13.2-1.3-19.8c-0.4-5.6-0.9-12.3-2-17.1
			c-0.4-1.9-1-1.1-0.9,1.2c0.4,5.9,1.1,11.8,1.5,17.7c0.4,6,0.8,12,1.2,18.1c0.8,12,2.5,24.6,2.6,36.5
			C346.5,233.2,348,234.8,348,230.7z"/>
	</g>
</g>
    <g>
	<g>
		<path class="st2" d="M349.8,231.5c0.9-12.5,0.3-25.6,0.5-38.3c0.1-6.6,0.3-13.3,0.4-19.9c0-5.6,0.1-12.3-0.5-17.2
			c-0.2-1.9-0.9-1.2-1,1.2c-0.1,5.9,0.1,11.8,0,17.8c-0.1,6-0.2,12.1-0.4,18.1c-0.2,12,0.4,24.8-0.4,36.6
			C348.1,233.8,349.6,235.6,349.8,231.5z"/>
	</g>
</g>
    <g>
	<g>
		<path class="st2" d="M348.9,228.8c2.1-12.4,2.7-25.5,4.1-38.1c0.7-6.6,1.6-13.2,2.2-19.8c0.6-5.6,1.3-12.2,1.1-17.2
			c-0.1-1.9-0.8-1.3-1.1,1.1c-0.6,5.9-1,11.8-1.7,17.7c-0.6,6-1.4,12-2.1,18c-1.4,11.9-1.9,24.7-3.9,36.4
			C347,231,348.2,232.9,348.9,228.8z"/>
	</g>
</g>
    <g>
	<g>
		<path class="st2" d="M350.6,229.9c3.1-12.2,4.8-25.2,7.3-37.6c1.3-6.5,2.6-13,3.9-19.5c1-5.5,2.3-12.1,2.5-17
			c0.1-1.9-0.7-1.3-1.2,1c-1.1,5.8-2,11.7-3.1,17.5c-1.1,5.9-2.4,11.8-3.6,17.8c-2.4,11.8-4,24.4-6.9,35.9
			C348.5,231.9,349.6,233.9,350.6,229.9z"/>
	</g>
</g>
    <g>
	<g>
		<path class="st2" d="M353.6,231c3.7-12,6-24.9,9.1-37.2c1.6-6.4,3.3-12.8,4.8-19.3c1.3-5.5,2.9-12,3.4-16.9
			c0.2-1.9-0.7-1.4-1.2,0.9c-1.4,5.8-2.6,11.5-4,17.4c-1.4,5.9-2.9,11.7-4.4,17.6c-2.9,11.7-5.2,24.2-8.6,35.5
			C351.4,233,352.4,235,353.6,231z"/>
	</g>
</g>
    <g>
	<g>
		<path class="st2" d="M360.5,230.8c3.6-12,5.9-24.9,8.9-37.3c1.6-6.4,3.2-12.9,4.7-19.3c1.3-5.5,2.8-12,3.3-16.9
			c0.2-1.9-0.7-1.4-1.2,0.9c-1.4,5.8-2.5,11.6-3.9,17.4c-1.4,5.9-2.9,11.7-4.3,17.6c-2.9,11.7-5.1,24.2-8.5,35.6
			C358.3,232.7,359.3,234.8,360.5,230.8z"/>
	</g>
</g>
    <g>
	<g>
		<path class="st2" d="M362,231.1c4.6-11.7,8-24.3,12-36.4c2.1-6.3,4.3-12.5,6.3-18.9c1.7-5.3,3.8-11.7,4.7-16.5
			c0.3-1.9-0.5-1.4-1.3,0.8c-1.9,5.6-3.5,11.3-5.3,17c-1.9,5.7-3.9,11.4-5.8,17.2c-3.8,11.4-7.1,23.7-11.4,34.7
			C359.7,232.8,360.5,235,362,231.1z"/>
	</g>
</g>
    <ellipse class="st2" cx="353" cy="238.5" rx="21" ry="9.5"/>
    <g>
	<rect class="st20" height="158" width="520" x="-6" y="359"/>
        <text transform="matrix(1 0 0 1 74.2378 397.5557)"><tspan class="st2 st21 st22" x="0" y="0">Mousse à raser /</tspan>
            <tspan class="st2 st21 st22" x="28.5" y="64.8"> savon à raser</tspan></text>
</g>
</svg>
