<svg id="Calque_1" data-name="Calque 1" xmlns="http://www.w3.org/2000/svg" viewBox="0 0 350 300"><title>selected</title><path d="M262.05,59H76.2a6,6,0,0,0-6,5.95V174.83a6,6,0,0,0,6,6H262.05a6,6,0,0,0,5.95-6V65A6,6,0,0,0,262.05,59ZM76.2,175.63a.8.8,0,0,1-.8-.8V65a.8.8,0,0,1,.8-.8H262.05a.8.8,0,0,1,.8.8V174.83a.8.8,0,0,1-.8.8Z"/><path d="M281.65,34.27H56.92A17.3,17.3,0,0,0,39.64,51.55V195.32h-7.1A4.54,4.54,0,0,0,28,199.86v12.46A14.7,14.7,0,0,0,42.68,227H295.89a14.7,14.7,0,0,0,14.68-14.68V199.86a4.54,4.54,0,0,0-4.54-4.54h-7.1V51.55a17.3,17.3,0,0,0-17.28-17.28Zm-232.94,161V51.55a8.21,8.21,0,0,1,8.21-8.2H281.65a8.21,8.21,0,0,1,8.21,8.2V195.32Zm109.2,19.42h22.76a8,8,0,0,0,8-8V204.4H301.5v7.92a5.62,5.62,0,0,1-5.61,5.61H42.68a5.62,5.62,0,0,1-5.61-5.61V204.4H149.93v2.37a8,8,0,0,0,8,8Zm0-6.05a1.92,1.92,0,0,1-1.92-1.92V204.4h26.61v2.37a1.92,1.92,0,0,1-1.93,1.92Z"/></svg>