<svg id="Calque_1" data-name="Calque 1" xmlns="http://www.w3.org/2000/svg" viewBox="0 0 350 300"><title>selected</title><path d="M151.53,253.34h0M171.07,56.8a7.91,7.91,0,0,0-3.38.77A39.76,39.76,0,0,0,158,64.26h0c-8,7.38-15.08,18.86-20.48,33.29.49-1,1-2.07,1.53-3.1,8.85-17.28,21.29-30.91,22.54-30.91l.06,0c.42.28-2.34,4.16-6.28,10.53.62-.78,1.24-1.54,1.87-2.27v181.3l-.3.12a5.45,5.45,0,0,1-2,.4,5.35,5.35,0,0,1-4.58-2.59c-17.3-28.84-19.38-84.78-19.38-84.78-.86-16,0-39.62,10.37-65a183.61,183.61,0,0,1,14.06-27.14c-5.42,6.94-10.23,16.11-14.12,27a2.36,2.36,0,0,1-2.22,1.56,2.5,2.5,0,0,1-.8-.14,2.36,2.36,0,0,1-1.42-3c.23-.65.47-1.3.71-1.94-12.19,25.63-12.82,51.05-11.3,68.72,0,0,.32,54.33,20.06,87.2a10.51,10.51,0,0,0,3.15,3.27,9.6,9.6,0,0,0,5,1.3,18.68,18.68,0,0,0,6-1.15l8.79-3.56a4.68,4.68,0,0,1,3.6,0l8.8,3.56h0l1.77.72a10.31,10.31,0,0,0,3.82.75,10,10,0,0,0,8.6-4.89c13.49-22.39,14.67-37.1,14.77-39a2.36,2.36,0,0,1-2.08,1.25,2.31,2.31,0,0,1-.52-.06,2.36,2.36,0,0,1-1.78-2.82q.57-2.55,1.08-5.14c-.73,3-1.75,7.55-3.33,14a120.27,120.27,0,0,1-12.18,29.34,5.32,5.32,0,0,1-4.57,2.59,5.45,5.45,0,0,1-2-.4l-.3-.12V71.82c7.09,8.18,13.17,20,17.74,34.47,5.6,17.75,8.56,38.49,8.56,60a215.14,215.14,0,0,1-3.88,41.43c.82-3.32,1.28-4.74,1.78-4.74h0c1,.08,1.61,6.16,1.5,11.31v.2a2.76,2.76,0,0,0,.22-.59,217,217,0,0,0,5.08-47.61c0-44.22-12.48-84.26-31.78-102h0a39.62,39.62,0,0,0-9.7-6.69,7.84,7.84,0,0,0-3.38-.77ZM162,251.21V67a34.59,34.59,0,0,1,7.77-5.22,3.21,3.21,0,0,1,2.71,0,34,34,0,0,1,7.76,5.23V251.21L174.64,249a9.45,9.45,0,0,0-7.14,0L162,251.21Z"/><path d="M216.05,190.11l35,35,2.06,2.06,2.6-1.33a.28.28,0,0,1,.13,0h.06l10.35,3.66a.35.35,0,0,1,.13.08l4.53,4.78,1.43,1.52,4.35,4.63,8.77,9.37,0,0,0,0a.24.24,0,0,1,0,.32L275,259.78l-.08.07-.07.08a.28.28,0,0,1-.18.07.25.25,0,0,1-.18-.07l-19.24-19.07a.64.64,0,0,1-.13-.22l-3.65-10.32a.22.22,0,0,1,0-.16l1.39-2.61-2.09-2.09L216,190.67c0-.18,0-.37.05-.56m-3.34-9c-.08,1.31-.17,2.57-.25,3.84-.17,2.44-.38,4.85-.63,7.21L248,228.29a4.2,4.2,0,0,0-.27,3.31L251.35,242a4.58,4.58,0,0,0,1.05,1.69l19.28,19.11a4.26,4.26,0,0,0,6,0l10.75-9.62a4.24,4.24,0,0,0,0-6l-8.77-9.36-5.78-6.16-4.6-4.85a4.33,4.33,0,0,0-1.69-1.06l-10.37-3.67a4.4,4.4,0,0,0-1.33-.21,4.32,4.32,0,0,0-2,.47l-41.21-41.21Z"/><path d="M47,17.28a1.28,1.28,0,0,1,.93.39,1.29,1.29,0,0,1,0,1.84l-4.19,4.18-2.83,2.83,2.83,2.83L89.18,74.79,92,77.62l2.83-2.83L99,70.62a1.31,1.31,0,0,1,.92-.38,1.29,1.29,0,0,1,.91.37l21.22,21.17a1.32,1.32,0,0,1,0,1.84l-4.19,4.24-2.79,2.82,2.81,2.82,9.79,9.78c-.17,1.07-.32,2.14-.47,3.21L116,105.31l-2.84-2.85-2.83,2.87-4.17,4.22a1.25,1.25,0,0,1-.89.36h-.09a1.13,1.13,0,0,1-.83-.37L83.11,88.28a1.15,1.15,0,0,1-.34-.82v-.07a1.27,1.27,0,0,1,.35-.88l4.24-4.18,2.86-2.83-2.85-2.84L41.88,31.17l-2.82-2.82-2.83,2.81-4.08,4.06a1.3,1.3,0,0,1-1.71-.11,1.32,1.32,0,0,1-.12-1.7L46.07,17.66a1.31,1.31,0,0,1,.92-.38m0-4a5.3,5.3,0,0,0-3.74,1.55L27.36,30.72a5.29,5.29,0,0,0,7.49,7.45L39.05,34,84.54,79.48l-4.23,4.19a5.24,5.24,0,0,0-1.54,3.76,5.14,5.14,0,0,0,1.54,3.71l21.23,21.23a5.16,5.16,0,0,0,3.66,1.54h.11a5.2,5.2,0,0,0,3.7-1.54l4.19-4.23L130.09,125c.21-1.75.42-3.5.69-5.24.37-2.65.74-5.3,1.17-7.89l-11.23-11.23,4.18-4.24a5.31,5.31,0,0,0,0-7.47L103.66,67.78a5.29,5.29,0,0,0-7.46,0L92,72,46.55,26.52l4.19-4.18A5.3,5.3,0,0,0,47,13.28Z"/></svg>