<svg id="Calque_1" data-name="Calque 1" xmlns="http://www.w3.org/2000/svg" viewBox="0 0 350 300"><defs><style>.cls-1{fill:none;stroke:#000;stroke-miterlimit:10;stroke-width:4px;}</style></defs><title>selected</title><path d="M153.54,4a16.9,16.9,0,0,1,16.88,16.88V89.33a29.73,29.73,0,0,1-1.21,8.54l-26,89.95-.18.54v30.15a15,15,0,0,1-15,15H110.39a15,15,0,0,1-15-15V188.43l-.32-.56C93.44,182.6,76,121.52,69.18,97.8A29.37,29.37,0,0,1,68,89.36V20.88A16.9,16.9,0,0,1,84.88,4h4A16.62,16.62,0,0,1,103,11.6a7.69,7.69,0,0,0,6.44,3.49H129a7.7,7.7,0,0,0,6.45-3.49A16.62,16.62,0,0,1,149.5,4h4M98.78,172.45l6.44-2.37a14.86,14.86,0,0,1,5.17-.92H128a15,15,0,0,1,5.09.89l6.4,2.31-1.1-6.72c-1.77-10.79-4.4-20.15-7.61-27.08-3.64-7.86-7.77-12.19-11.65-12.19-7.45,0-15.56,16.53-19.27,39.32l-1.1,6.76m11.61,55.17H128a9.12,9.12,0,0,0,9.11-9.11V184.18a9.12,9.12,0,0,0-9.11-9.1H110.39a9.11,9.11,0,0,0-9.1,9.1v34.33a9.12,9.12,0,0,0,9.1,9.11M153.54,0h-4a20.56,20.56,0,0,0-17.44,9.4A3.72,3.72,0,0,1,129,11.09H109.46a3.7,3.7,0,0,1-3.1-1.69A20.56,20.56,0,0,0,88.92,0h-4A20.91,20.91,0,0,0,64,20.88V89.36a33.41,33.41,0,0,0,1.33,9.54s25.77,90.12,26,90.6v29a19.05,19.05,0,0,0,19,19H128a19,19,0,0,0,19-19V189l26-90a33.21,33.21,0,0,0,1.37-9.65V20.88A20.91,20.91,0,0,0,153.54,0ZM103.83,166.33c4.15-25.45,12.21-36,15.32-36,1.2,0,4.41,2.06,8,9.87,3.07,6.62,5.59,15.69,7.29,26a18.83,18.83,0,0,0-6.44-1.13H110.39a19.06,19.06,0,0,0-6.56,1.17Zm6.56,57.29a5.11,5.11,0,0,1-5.1-5.11V184.18a5.11,5.11,0,0,1,5.1-5.1H128a5.11,5.11,0,0,1,5.11,5.1v34.33a5.11,5.11,0,0,1-5.11,5.11Z"/><path d="M281.12,4A16.9,16.9,0,0,1,298,20.88V89.33a29.38,29.38,0,0,1-1.21,8.54l-26,89.95-.17.54v30.15a15,15,0,0,1-15,15H238a15,15,0,0,1-15-15V188.43l-.33-.56c-1.6-5.27-19.09-66.35-25.87-90.07a29.72,29.72,0,0,1-1.18-8.44V20.88A16.9,16.9,0,0,1,212.46,4h4a16.62,16.62,0,0,1,14.1,7.6,7.7,7.7,0,0,0,6.45,3.49h19.49A7.68,7.68,0,0,0,263,11.6,16.62,16.62,0,0,1,277.08,4h4M226.36,172.45l6.44-2.37a15,15,0,0,1,5.18-.92h17.63a14.89,14.89,0,0,1,5.08.89l6.41,2.31L266,165.64c-1.77-10.79-4.4-20.15-7.6-27.08-3.64-7.86-7.78-12.19-11.65-12.19-7.46,0-15.56,16.53-19.27,39.32l-1.11,6.76M238,227.62h17.63a9.12,9.12,0,0,0,9.1-9.11V184.18a9.11,9.11,0,0,0-9.1-9.1H238a9.12,9.12,0,0,0-9.11,9.1v34.33a9.12,9.12,0,0,0,9.11,9.11M281.12,0h-4a20.56,20.56,0,0,0-17.44,9.4,3.7,3.7,0,0,1-3.1,1.69H237.05a3.72,3.72,0,0,1-3.11-1.69A20.56,20.56,0,0,0,216.5,0h-4a20.91,20.91,0,0,0-20.88,20.88V89.36a33.07,33.07,0,0,0,1.34,9.54s25.76,90.12,26,90.6v29a19,19,0,0,0,19,19h17.63a19.05,19.05,0,0,0,19-19V189l26-90A33.21,33.21,0,0,0,302,89.33V20.88A20.91,20.91,0,0,0,281.12,0ZM231.41,166.33c4.15-25.45,12.22-36,15.33-36,1.19,0,4.4,2.06,8,9.87,3.06,6.62,5.59,15.69,7.29,26a18.88,18.88,0,0,0-6.44-1.13H238a19.08,19.08,0,0,0-6.57,1.17ZM238,223.62a5.11,5.11,0,0,1-5.11-5.11V184.18a5.11,5.11,0,0,1,5.11-5.1h17.63a5.11,5.11,0,0,1,5.1,5.1v34.33a5.11,5.11,0,0,1-5.1,5.11Z"/><line class="cls-1" x1="80" y1="26" x2="119" y2="130"/><line class="cls-1" x1="99" y1="24" x2="119" y2="115"/><line class="cls-1" x1="119" y1="24" x2="119" y2="130"/><line class="cls-1" x1="158" y1="27" x2="119" y2="131"/><line class="cls-1" x1="139" y1="25" x2="119" y2="116"/><line class="cls-1" x1="119" y1="25" x2="119" y2="131"/><line class="cls-1" x1="207" y1="28" x2="246" y2="132"/><line class="cls-1" x1="226" y1="26" x2="246" y2="117"/><line class="cls-1" x1="285" y1="29" x2="246" y2="133"/><line class="cls-1" x1="266" y1="27" x2="246" y2="118"/><line class="cls-1" x1="246" y1="27" x2="246" y2="133"/><line class="cls-1" x1="70" y1="21" x2="104" y2="166"/><line class="cls-1" x1="165" y1="21" x2="134" y2="166"/><line class="cls-1" x1="70" y1="21" x2="165" y2="21"/><line class="cls-1" x1="198" y1="21" x2="232" y2="166"/><line class="cls-1" x1="293" y1="21" x2="262" y2="166"/><line class="cls-1" x1="198" y1="21" x2="293" y2="21"/></svg>