<svg data-name="Calque 1" id="Calque_1" viewBox="0 0 500 500" xmlns="http://www.w3.org/2000/svg">
    <defs>
        <style>.cls-1{fill:#eaeaea;}.cls-2{font-size:54px;fill:#6b6b6b;font-family:HelveticaNeue-CondensedBold,
            Helvetica Neue;font-weight:700;}.cls-3{letter-spacing:-0.02em;}.cls-4{fill:#8c8c8c;}
        </style>
    </defs>
    <rect class="cls-1" height="500" width="500" y="-2"/>
    <text class="cls-2" transform="translate(199.99 399.56)">
        <tspan class="cls-3">P</tspan>
        <tspan x="27.05" y="0">arc</tspan>
    </text>
    <path class="cls-4"
          d="M355.22,119.49a3.75,3.75,0,0,1-1.07.19H141.58c1.31,6.77,4.71,11.66,8.88,12,1.37.11,2.75,0,4.13,0,.11,1.3.21,1.89.21,2.49q0,61.22,0,122.43c0,.14-.17,1.14-.37,2.57-.86,6-1.49,11-1.91,14.45l5.35-1.64c111,.28,187,.34,190.24-.05a6.24,6.24,0,0,1,3,.31A7.66,7.66,0,0,1,355,276a127.3,127.3,0,0,1-3.41-17,19,19,0,0,1-.44-3.83q.06-59.13,0-118.28c0-1.64.09-3.27.14-5.26a44.19,44.19,0,0,0,4.48,0c4-.44,7.31-5.26,8.62-12C361.35,119.55,358.29,119.51,355.22,119.49ZM315.71,132h17.22v97.55H315.71Zm-71.32,0h17.23v97.22H244.39Zm-71.29.14h17.24v97.41H173.1Zm-6.91,127.41h-4.65V132h4.65Zm24.2-.07H172.94c0-4.89-.1-9.74.09-14.55,0-1,1.12-2.71,1.73-2.73,5.13-.22,10.26-.13,15.63-.13Zm11.41.05h-4.63V132h4.63Zm24.11-.05H208.7v-17.5h17.21Zm0-30.28H208.72v-97H226Zm11.47,30.34H233V132h4.46Zm24.21,0h-17.4c0-5.38,0-10.68.06-16,0-.71.82-1.93,1.27-1.94,5.3-.14,10.6-.09,16.07-.09Zm11.43-.07h-4.49V131.88h4.49Zm24.18,0H280V241.78h17.21Zm0-30.25H280.05v-97h17.23Zm11.56,30.37h-4.65V132h4.65Zm24.22-.07H315.59V242.1c5.37,0,10.66-.09,15.94.15.52,0,1.42,2,1.46,3.19C333.16,250,333.06,254.56,333.06,259.45Zm11.31,0H339.8V132h4.57Z"/>
    <path class="cls-4"
          d="M261.63,241.51v18h-17.4c0-5.38,0-10.68.06-16,0-.71.82-1.93,1.27-1.94,5.3-.14,10.6-.09,16.07-.09"/>
    <rect class="cls-4" height="17.5" width="17.21" x="208.7" y="241.94"/>
    <rect class="cls-4" height="17.62" width="17.22" x="280.03" y="241.78"/>
    <path class="cls-4"
          d="M315.59,259.44V242.1c5.37,0,10.66-.09,15.94.15.52,0,1.41,2,1.46,3.19.17,4.54.07,9.12.07,14Z"/>
    <path class="cls-4"
          d="M190.39,242v17.41H172.94c0-4.89-.1-9.74.09-14.55,0-1,1.11-2.71,1.73-2.73,5.13-.22,10.25-.13,15.63-.13"/>
    <path class="cls-4"
          d="M155,262V229.6c59.33,0,117.74-.17,176.1.27,5.78,0,15.62,3.78,16.11,6,1.89,8.49.77,17,.77,26.17Z"/>
</svg>
