<svg id="Calque_1" data-name="Calque 1" xmlns="http://www.w3.org/2000/svg" viewBox="0 0 350 300"><title>selected</title><path d="M66.62,220.74a14.87,14.87,0,1,0,7.45,2,14.89,14.89,0,0,0-7.45-2Zm0,20.25A5.38,5.38,0,1,1,72,235.62,5.39,5.39,0,0,1,66.62,241Z"/><path d="M107.12,220.74a14.88,14.88,0,1,0,7.45,2,14.89,14.89,0,0,0-7.45-2Zm0,20.25a5.38,5.38,0,1,1,5.38-5.37,5.39,5.39,0,0,1-5.38,5.37Z"/><path d="M147.63,220.74a14.88,14.88,0,1,0,7.44,2,14.9,14.9,0,0,0-7.44-2Zm0,20.25a5.38,5.38,0,1,1,5.38-5.37,5.38,5.38,0,0,1-5.38,5.37Z"/><path d="M188.13,220.74a14.88,14.88,0,1,0,7.44,2,14.89,14.89,0,0,0-7.44-2Zm0,20.25a5.38,5.38,0,1,1,5.38-5.37,5.38,5.38,0,0,1-5.38,5.37Z"/><path d="M83.66,154.18H79.22a4.16,4.16,0,0,0,0,8.32h4.44a4.16,4.16,0,0,0,0-8.32Z"/><path d="M83.66,167.5H79.22a4.16,4.16,0,0,0,0,8.32h4.44a4.16,4.16,0,0,0,0-8.32Z"/><path d="M220.53,5.38l-.06.47-.1-.25.16-.22m28.15,2.27.13.24-.14.23c0-.15,0-.31,0-.47m-6.89,12-.15.25h-.3l.45-.25M314.48,132v0l0,0h0m-14.23,8.49v0h0M234.53-10a17.46,17.46,0,0,0-14.38,7.56l0,0L152.44,87.81a22.45,22.45,0,0,0-2.84-.19H119.16a21.94,21.94,0,0,0-21.91,21.91v26.9H70.35a13.06,13.06,0,0,0-13,13v31.06a13,13,0,0,0,13,13h35.77V203H74.78a30.79,30.79,0,0,0,0,61.57h106.5a30.79,30.79,0,1,0,0-61.57H149.94v-9.43h35.78a4.16,4.16,0,0,0,4.16-4.16V175.82h4.88l.26,0,.13,0,.28,0a1.41,1.41,0,0,0,.22-.06l.18,0,.13,0,.25-.09h0a4.09,4.09,0,0,0,.68-.38l.15-.11.17-.12.16-.15.13-.12.12-.12.15-.18a.18.18,0,0,0,0-.07A2.35,2.35,0,0,0,198,174l.08-.12.13-.22a4.25,4.25,0,0,0,.46-1.41,3.64,3.64,0,0,0,0-.57V155.78a39.52,39.52,0,0,0-6.66-22l-6.59-9.89,45.7-76.73,67.5,100a13.09,13.09,0,0,0,7.11,5.8v6.87l-1.22-3a4.14,4.14,0,0,0-2.23-2.27,4,4,0,0,0-1.63-.34,4.19,4.19,0,0,0-1.55.3l-56.85,22.84L236,183,258,201A30.79,30.79,0,0,0,289,205.79l14.15-5.68A17.5,17.5,0,0,0,314,186a4.58,4.58,0,0,0,.14-1.05v-32c5.27-2.57,8.76-7.29,8.87-12.35a12.46,12.46,0,0,0-1.77-6.53L250.5.39a17.52,17.52,0,0,0-16-10.39Zm0,26.62a9.15,9.15,0,1,1,8-13.62,4.25,4.25,0,0,0,.21.49L243,4a9.07,9.07,0,0,1-.64,8.2.83.83,0,0,1-.08.12l-.17.29a9.16,9.16,0,0,1-7.57,4Zm-54.14,99.6L167.82,97.38a21.84,21.84,0,0,0-7.11-6.73L218.29,13.9a17.5,17.5,0,0,0,16.24,11h.23l-54.37,91.28Zm118.89,16.92L235.91,39.26l13.3-22.33c.12-.18.23-.36.34-.54l58.88,111.26a13.06,13.06,0,0,0-9.15,5.49ZM160.17,167.5a85.3,85.3,0,0,1-14.67-1.28l-8.31-1.91a86.31,86.31,0,0,1-11.37-4.1,4.23,4.23,0,0,1-2.5-3.86V95.94H149.6a13.54,13.54,0,0,1,11.3,6l24.27,36.4q2.63,8.7,5.26,17.39V167.5Zm-54.6,17.74V109.53A13.6,13.6,0,0,1,115,96.6v59.75a12.55,12.55,0,0,0,7.44,11.46,92.4,92.4,0,0,0,37.73,8h21.39v9.42ZM310,145.31a4.72,4.72,0,1,1,4.71-4.72,4.73,4.73,0,0,1-4.71,4.72ZM70.35,185.24a4.72,4.72,0,0,1-4.72-4.71V149.47a4.73,4.73,0,0,1,4.72-4.72h26.9v40.49Zm207.18,14.45a22.41,22.41,0,0,1-14.29-5.13l-13.6-11.21,48.78-19.6,6.72,16.73a9.18,9.18,0,0,1-5.08,11.91l-14.16,5.68a22.41,22.41,0,0,1-8.37,1.62ZM114.44,203v-9.43h27.18V203ZM74.78,256.24a22.47,22.47,0,0,1,0-44.93h106.5a22.47,22.47,0,1,1,0,44.93Z"/></svg>