<?xml version="1.0" encoding="utf-8"?>
<!-- Generator: Adobe Illustrator 22.1.0, SVG Export Plug-In . SVG Version: 6.00 Build 0)  -->
<svg style="enable-background:new 0 0 500 500;" id="Calque_1" version="1.1" viewBox="0 0 500 500" x="0px"
     xmlns="http://www.w3.org/2000/svg" y="0px" xml:space="preserve">
<style type="text/css">
	.st0{fill:#4FBDD7;}
	.st1{fill:#EAEAEA;}
	.st2{fill:#FFFFFF;}
	.st3{fill:#4FBDD7;stroke:#FFFFFF;stroke-width:5;stroke-miterlimit:10;}
	.st4{fill:#8C8C8C;}
	.st5{fill:#070707;}
	.st6{fill:none;stroke:#FFFFFF;stroke-width:7;stroke-miterlimit:10;}
	.st7{fill:none;stroke:#FFFFFF;stroke-width:10;stroke-miterlimit:10;}
	.st8{fill:#FFFFFF;stroke:#FFFFFF;stroke-width:3;stroke-miterlimit:10;}
	.st9{fill:none;stroke:#FDFFFF;stroke-width:6;stroke-miterlimit:10;}
	.st10{fill:#FAFEFF;}
	.st11{fill:none;stroke:#FFFFFF;stroke-width:2;stroke-miterlimit:10;}
	.st12{fill:#FFFFFF;stroke:#FFFFFF;stroke-width:2;stroke-miterlimit:10;}
	.st13{fill:#4FBDD7;stroke:#FFFFFF;stroke-width:4;stroke-miterlimit:10;}
	.st14{fill:#FFFFFF;stroke:#FFFFFF;stroke-width:4;stroke-miterlimit:10;}
	.st15{fill:none;stroke:#FFFFFF;stroke-miterlimit:10;}
	.st16{fill:#FFFFFF;stroke:#FFFFFF;stroke-width:13;stroke-miterlimit:10;}
	.st17{fill:#4FBDD7;stroke:#FFFFFF;stroke-width:8;stroke-miterlimit:10;}
	.st18{fill:#FFFFFF;stroke:#FFFFFF;stroke-width:0.75;stroke-miterlimit:10;}
	.st19{fill:#FFFFFF;stroke:#FFFFFF;stroke-width:0.5;stroke-miterlimit:10;}
	.st20{fill:#FFFFFF;stroke:#FFFFFF;stroke-width:8;stroke-miterlimit:10;}
	.st21{fill:none;}
	.st22{font-family:'HelveticaNeue-CondensedBold';}
	.st23{font-size:54px;}
	.st24{fill:#FFFFFF;stroke:#FFFFFF;stroke-miterlimit:10;}
	.st25{fill:#FFFFFF;stroke:#FFFFFF;stroke-width:11;stroke-miterlimit:10;}
	.st26{fill:#FFFFFF;stroke:#FFFFFF;stroke-width:6;stroke-miterlimit:10;}
	.st27{fill:#8C8C8C;stroke:#8C8C8C;stroke-width:4;stroke-miterlimit:10;}
	.st28{fill:#FFFFFF;stroke:#FFFFFF;stroke-width:1.05;stroke-miterlimit:10;}
	.st29{fill:none;stroke:#4FBDD7;stroke-width:5;stroke-miterlimit:10;}
	.st30{fill:none;stroke:#FFFFFF;stroke-width:4;stroke-miterlimit:10;}
	.st31{fill:#8C8C8C;stroke:#FFFFFF;stroke-width:4;stroke-miterlimit:10;}
	.st32{fill:#FFFFFF;stroke:#FFFFFF;stroke-width:10;stroke-miterlimit:10;}
	.st33{fill:none;stroke:#4FBDD7;stroke-width:2;stroke-miterlimit:10;}
	.st34{fill-rule:evenodd;clip-rule:evenodd;fill:#FFFFFF;}
	.st35{fill:#FFFFFF;stroke:#FFFFFF;stroke-width:7;stroke-miterlimit:10;}
	.st36{fill:#FFFFFF;stroke:#4FBDD7;stroke-width:7;stroke-miterlimit:10;}
	.st37{fill:#FCFCFC;}
	.st38{fill:#FFFFFF;stroke:#FFFFFF;stroke-width:5;stroke-miterlimit:10;}
	.st39{fill:none;stroke:#FFFFFF;stroke-width:3;stroke-miterlimit:10;}
	.st40{fill:none;stroke:#FFFFFF;stroke-width:8;stroke-miterlimit:10;}
	.st41{fill:none;stroke:#FFFFFF;stroke-width:6;stroke-miterlimit:10;}
	.st42{fill:#FFFFFF;stroke:#4FBDD7;stroke-width:3;stroke-miterlimit:10;}
	.st43{fill:none;stroke:#FFFFFF;stroke-width:0.75;stroke-miterlimit:10;}
	.st44{fill:#4FBDD7;stroke:#FFFFFF;stroke-width:9;stroke-miterlimit:10;}
	.st45{fill:none;stroke:#FFFFFF;stroke-width:9;stroke-miterlimit:10;}
	.st46{fill:none;stroke:#4FBDD7;stroke-width:3;stroke-miterlimit:10;}
</style>
    <rect class="st0" height="500" width="500" x="1"/>
    <g>
	<path class="st2" d="M126.7,285.6c0,8.2,6.7,14.9,14.9,14.9s14.9-6.7,14.9-14.9c0-5.3-2.8-10.2-7.4-12.9c-2.3-1.3-4.8-2-7.4-2
		C133.4,270.7,126.7,277.4,126.7,285.6z M147,285.6c0,3-2.4,5.4-5.4,5.4s-5.4-2.4-5.4-5.4c0-3,2.4-5.4,5.4-5.4
		c0.9,0,1.9,0.2,2.7,0.7C146,281.9,147,283.7,147,285.6z"/>
        <path class="st2" d="M182.1,300.5c8.2,0,14.9-6.7,14.9-14.9c0-5.3-2.8-10.2-7.4-12.9c-2.3-1.3-4.8-2-7.4-2
		c-8.2,0-14.9,6.7-14.9,14.9S173.9,300.5,182.1,300.5z M182.1,280.2c0.9,0,1.9,0.2,2.7,0.7c1.7,1,2.7,2.7,2.7,4.7
		c0,3-2.4,5.4-5.4,5.4s-5.4-2.4-5.4-5.4C176.7,282.6,179.2,280.2,182.1,280.2z"/>
        <path class="st2" d="M222.6,300.5c8.2,0,14.9-6.7,14.9-14.9c0-5.3-2.8-10.2-7.4-12.9c-2.3-1.3-4.8-2-7.4-2
		c-8.2,0-14.9,6.7-14.9,14.9S214.4,300.5,222.6,300.5z M222.6,280.2c0.9,0,1.9,0.2,2.7,0.7c1.7,1,2.7,2.7,2.7,4.7
		c0,3-2.4,5.4-5.4,5.4c-3,0-5.4-2.4-5.4-5.4C217.2,282.6,219.7,280.2,222.6,280.2z"/>
        <path class="st2" d="M263.1,300.5c8.2,0,14.9-6.7,14.9-14.9c0-5.3-2.8-10.2-7.4-12.9c-2.3-1.3-4.8-2-7.4-2
		c-8.2,0-14.9,6.7-14.9,14.9S254.9,300.5,263.1,300.5z M263.1,280.2c0.9,0,1.9,0.2,2.7,0.7c1.7,1,2.7,2.7,2.7,4.7
		c0,3-2.4,5.4-5.4,5.4s-5.4-2.4-5.4-5.4C257.7,282.6,260.2,280.2,263.1,280.2z"/>
        <path class="st2" d="M154.2,212.5h4.4c2.3,0,4.2-1.9,4.2-4.2c0-2.3-1.9-4.2-4.2-4.2h-4.4c-2.3,0-4.2,1.9-4.2,4.2
		C150.1,210.6,151.9,212.5,154.2,212.5z"/>
        <path class="st2" d="M154.2,225.8h4.4c2.3,0,4.2-1.9,4.2-4.2s-1.9-4.2-4.2-4.2h-4.4c-2.3,0-4.2,1.9-4.2,4.2
		S151.9,225.8,154.2,225.8z"/>
        <path class="st2" d="M396.2,184.1L325.5,50.4c-2.7-6.1-8.9-10.4-16-10.4c-6,0-11.2,3-14.4,7.6c0,0,0,0,0,0l-67.7,90.2
		c-0.9-0.1-1.9-0.2-2.8-0.2h-30.4c-12.1,0-21.9,9.8-21.9,21.9v26.9h-26.9c-7.2,0-13,5.8-13,13v31.1c0,7.2,5.8,13,13,13h31.1h4.7v9.4
		h-31.3c-17,0-30.8,13.8-30.8,30.8s13.8,30.8,30.8,30.8h106.5c17,0,30.8-13.8,30.8-30.8S273.3,253,256.3,253h-31.3v-9.4h35.8
		c2.3,0,4.2-1.9,4.2-4.2v-13.6l4.7,0c0.1,0,0.1,0,0.2,0c0.1,0,0.2,0,0.3,0c0,0,0.1,0,0.1,0c0.1,0,0.2,0,0.3,0c0.1,0,0.1,0,0.2-0.1
		c0.1,0,0.1,0,0.2,0c0,0,0.1,0,0.1,0c0.1,0,0.2-0.1,0.2-0.1c0,0,0,0,0,0c0.2-0.1,0.5-0.2,0.7-0.4c0.1,0,0.1-0.1,0.2-0.1
		c0.1,0,0.1-0.1,0.2-0.1c0.1,0,0.1-0.1,0.2-0.1c0,0,0.1-0.1,0.1-0.1c0,0,0.1-0.1,0.1-0.1c0.1-0.1,0.1-0.1,0.2-0.2c0,0,0,0,0.1-0.1
		c0.1-0.1,0.1-0.2,0.2-0.3c0,0,0-0.1,0.1-0.1c0-0.1,0.1-0.1,0.1-0.2c0.2-0.4,0.4-0.9,0.5-1.4c0-0.2,0-0.4,0-0.6v-15.9
		c0-7.9-2.3-15.5-6.7-22l-6.6-9.9l45.7-76.7l67.5,100c1.6,2.7,4.1,4.8,7.1,5.8v6.9l-1.2-3c-0.4-1-1.2-1.8-2.2-2.3
		c-1-0.4-2.2-0.4-3.2,0l-56.9,22.8c-2.1,1.9-4.2,3.8-6.3,5.7c7.3,6,14.6,12,21.9,18c5.6,4.6,12.6,7,19.6,7c3.9,0,7.8-0.7,11.5-2.2
		l14.2-5.7c6.1-2.5,10.1-8,10.8-14.1c0.1-0.3,0.1-0.7,0.1-1v-32c5.3-2.6,8.8-7.3,8.9-12.4C398.1,187.7,397,185.4,396.2,184.1z
		 M172.2,235.2h-26.9c-2.6,0-4.7-2.1-4.7-4.7v-31.1c0-2.6,2.1-4.7,4.7-4.7h26.9V235.2z M375.1,242.4l-14.2,5.7
		c-7.6,3.1-16.3,1.7-22.7-3.5l-13.6-11.2l48.8-19.6l6.7,16.7C382,235.2,379.7,240.5,375.1,242.4z M309.5,48.3c3.4,0,6.4,1.9,8,4.7
		c0.1,0.2,0.1,0.3,0.2,0.5L318,54c0.4,1.1,0.7,2.2,0.7,3.5c0,1.7-0.5,3.3-1.3,4.7c0,0-0.1,0.1-0.1,0.1l-0.2,0.3
		c-1.6,2.4-4.4,4-7.6,4c-5,0-9.2-4.1-9.2-9.2S304.5,48.3,309.5,48.3z M256.3,261.3c12.4,0,22.5,10.1,22.5,22.5s-10.1,22.5-22.5,22.5
		H149.8c-12.4,0-22.5-10.1-22.5-22.5s10.1-22.5,22.5-22.5H256.3z M189.4,253v-9.4h27.2v9.4H189.4z M256.6,235.2h-76v-44.6
		c0,0,0,0,0,0s0,0,0,0v-31c0-6,4-11.2,9.4-12.9v59.8c0,4.9,2.9,9.4,7.4,11.5c12,5.3,24.6,8,37.7,8h21.4V235.2z M265.4,205.8v11.7
		h-30.3c-5,0-9.9-0.4-14.7-1.3c-2.8-0.6-5.5-1.3-8.3-1.9c-3.9-1.1-7.6-2.5-11.4-4.1c-1.5-0.7-2.5-2.2-2.5-3.9v-60.4h26.3
		c4.6,0,8.8,2.3,11.3,6.1l24.3,36.4C261.9,194.2,263.7,200,265.4,205.8z M255.4,166.2l-12.6-18.8c-1.9-2.8-4.3-5.1-7.1-6.7
		l57.6-76.7c2.6,6.5,8.9,11,16.2,11c0.1,0,0.2,0,0.2,0L255.4,166.2z M374.3,183.1l-63.4-93.9l13.3-22.3c0.1-0.2,0.2-0.4,0.3-0.5
		l58.9,111.3C379.7,178.1,376.4,180.2,374.3,183.1z M385,195.3c-2.6,0-4.7-2.1-4.7-4.7c0-2.6,2.1-4.7,4.7-4.7c2.6,0,4.7,2.1,4.7,4.7
		C389.7,193.2,387.6,195.3,385,195.3z"/>
</g>
    <g>
	<rect class="st21" height="144" width="500" x="-5" y="363"/>
        <text class="st2 st22 st23" transform="matrix(1 0 0 1 134.5444 401.5557)">Pelleteuse</text>
</g>
</svg>
