<?xml version="1.0" encoding="utf-8"?>
<!-- Generator: Adobe Illustrator 22.1.0, SVG Export Plug-In . SVG Version: 6.00 Build 0)  -->
<svg style="enable-background:new 0 0 500 500;" id="Calque_1" version="1.1" viewBox="0 0 500 500" x="0px"
     xmlns="http://www.w3.org/2000/svg" y="0px" xml:space="preserve">
<style type="text/css">
	.st0{fill:#4FBDD7;}
	.st1{fill:#EAEAEA;}
	.st2{fill:#FFFFFF;}
	.st3{fill:#4FBDD7;stroke:#FFFFFF;stroke-width:5;stroke-miterlimit:10;}
	.st4{fill:#8C8C8C;}
	.st5{fill:#070707;}
	.st6{fill:none;stroke:#FFFFFF;stroke-width:7;stroke-miterlimit:10;}
	.st7{fill:none;stroke:#FFFFFF;stroke-width:10;stroke-miterlimit:10;}
	.st8{fill:#FFFFFF;stroke:#FFFFFF;stroke-width:3;stroke-miterlimit:10;}
	.st9{fill:none;stroke:#FDFFFF;stroke-width:6;stroke-miterlimit:10;}
	.st10{fill:#FAFEFF;}
	.st11{fill:none;stroke:#FFFFFF;stroke-width:2;stroke-miterlimit:10;}
	.st12{fill:#FFFFFF;stroke:#FFFFFF;stroke-width:2;stroke-miterlimit:10;}
	.st13{fill:#4FBDD7;stroke:#FFFFFF;stroke-width:4;stroke-miterlimit:10;}
	.st14{fill:#FFFFFF;stroke:#FFFFFF;stroke-width:4;stroke-miterlimit:10;}
	.st15{fill:none;stroke:#FFFFFF;stroke-miterlimit:10;}
	.st16{fill:#FFFFFF;stroke:#FFFFFF;stroke-width:13;stroke-miterlimit:10;}
	.st17{fill:#4FBDD7;stroke:#FFFFFF;stroke-width:8;stroke-miterlimit:10;}
	.st18{fill:#FFFFFF;stroke:#FFFFFF;stroke-width:0.75;stroke-miterlimit:10;}
	.st19{fill:#FFFFFF;stroke:#FFFFFF;stroke-width:0.5;stroke-miterlimit:10;}
	.st20{fill:none;}
	.st21{font-family:'HelveticaNeue-CondensedBold';}
	.st22{font-size:54px;}
	.st23{fill:#FFFFFF;stroke:#FFFFFF;stroke-width:8;stroke-miterlimit:10;}
	.st24{fill:#FFFFFF;stroke:#FFFFFF;stroke-miterlimit:10;}
	.st25{fill:#FFFFFF;stroke:#FFFFFF;stroke-width:11;stroke-miterlimit:10;}
	.st26{fill:#FFFFFF;stroke:#FFFFFF;stroke-width:6;stroke-miterlimit:10;}
	.st27{fill:#8C8C8C;stroke:#8C8C8C;stroke-width:4;stroke-miterlimit:10;}
	.st28{fill:#FFFFFF;stroke:#FFFFFF;stroke-width:1.05;stroke-miterlimit:10;}
	.st29{fill:none;stroke:#4FBDD7;stroke-width:5;stroke-miterlimit:10;}
	.st30{fill:none;stroke:#FFFFFF;stroke-width:4;stroke-miterlimit:10;}
	.st31{fill:#8C8C8C;stroke:#FFFFFF;stroke-width:4;stroke-miterlimit:10;}
	.st32{fill:#FFFFFF;stroke:#FFFFFF;stroke-width:10;stroke-miterlimit:10;}
	.st33{fill:none;stroke:#4FBDD7;stroke-width:2;stroke-miterlimit:10;}
	.st34{fill-rule:evenodd;clip-rule:evenodd;fill:#FFFFFF;}
	.st35{fill:#FFFFFF;stroke:#FFFFFF;stroke-width:7;stroke-miterlimit:10;}
	.st36{fill:#FFFFFF;stroke:#4FBDD7;stroke-width:7;stroke-miterlimit:10;}
	.st37{fill:#FCFCFC;}
	.st38{fill:#FFFFFF;stroke:#FFFFFF;stroke-width:5;stroke-miterlimit:10;}
	.st39{fill:none;stroke:#FFFFFF;stroke-width:3;stroke-miterlimit:10;}
	.st40{fill:none;stroke:#FFFFFF;stroke-width:8;stroke-miterlimit:10;}
	.st41{fill:none;stroke:#FFFFFF;stroke-width:6;stroke-miterlimit:10;}
	.st42{fill:#FFFFFF;stroke:#4FBDD7;stroke-width:3;stroke-miterlimit:10;}
	.st43{fill:none;stroke:#FFFFFF;stroke-width:0.75;stroke-miterlimit:10;}
	.st44{fill:#4FBDD7;stroke:#FFFFFF;stroke-width:9;stroke-miterlimit:10;}
	.st45{fill:none;stroke:#FFFFFF;stroke-width:9;stroke-miterlimit:10;}
	.st46{fill:none;stroke:#4FBDD7;stroke-width:3;stroke-miterlimit:10;}
</style>
    <rect class="st0" height="500" width="500"/>
    <path class="st2" d="M405.5,92.4h-22.3c-3.2,0-6.1,1.7-7.7,4.5h-10.6C362.7,86.5,353.6,79,343,79H146.5c-2.5,0-4.5,2-4.5,4.5v98.3
	c0,2.5,2,4.5,4.5,4.5h17.9v80.3c3,0,6,0,8.9-0.1v-80.2h26.8v67.4c0,1.7,1,3.3,2.6,4l15.3,7.3v0.8c3-0.1,6-0.1,8.9-0.2v-25.8h4.5
	c22.2,0,40.2-18,40.2-40.2v-13.4h8.9c2.5,0,4.5-2,4.5-4.5v-24l32.3-16.2H343c10.6,0,19.7-7.5,21.9-17.9h10.6
	c1.6,2.8,4.5,4.5,7.7,4.5h22.3c2.5,0,4.5-2,4.5-4.5V96.8C410,94.4,408,92.4,405.5,92.4z M217.9,255.1l-8.9-4.2v-64.6h8.9V255.1z
	 M262.6,199.6c0,17.3-14,31.2-31.3,31.3h-4.5v-44.7h4.5v13.4c0,7.4,6,13.4,13.4,13.4h8.9V204h-8.9c-2.5,0-4.5-2-4.5-4.5v-13.4h22.3
	V199.6z M276,177.2H150.9V87.9h8.9v22.3c0,7.4,6,13.4,13.4,13.4H276V177.2z M276,114.7H173.3c-2.5,0-4.5-2-4.5-4.5V87.9H276V114.7z
	 M311.7,134.3l-26.8,13.4V87.9h26.8V134.3z M329.6,132.6h-8.9V87.9h8.9V132.6z M356.4,119.2c0,7.4-6,13.4-13.4,13.4h-4.5V87.9h4.5
	c7.4,0,13.4,6,13.4,13.4V119.2z M401.1,119.2h-17.9v-17.9h17.9V119.2z"/>
    <path class="st2" d="M290.9,282.7l-49.1-17.9c-0.5-0.2-1-0.3-1.5-0.3h-13.4v-14.9c-3,0.1-6,0.1-8.9,0.2v14.7h-44.7v-14.1
	c-3,0-6,0.1-8.9,0.1v14h-8.9c-7.4,0-13.4,6-13.4,13.4v44.7c0,2.5,2,4.5,4.5,4.5h142.9c2.5,0,4.5-2,4.5-4.5v-35.7
	C293.9,285,292.7,283.3,290.9,282.7z M284.9,300.3h-38.4L230,283.7c-0.8-0.8-2-1.3-3.2-1.3h-44.5v8.9H225l16.6,16.6
	c0.8,0.8,2,1.3,3.2,1.3h40.2v8.9h-134v-40.2c0-2.5,2-4.5,4.5-4.5h84.1l45.5,16.5V300.3z"/>
    <g>
	<rect class="st20" height="144" width="500" x="6" y="369"/>
        <text class="st2 st21 st22" transform="matrix(1 0 0 1 42.6499 407.5557)">Perceuse / visseuse</text>
</g>
</svg>
