<?xml version="1.0" encoding="utf-8"?>
<!-- Generator: Adobe Illustrator 22.1.0, SVG Export Plug-In . SVG Version: 6.00 Build 0)  -->
<svg style="enable-background:new 0 0 500 500;" id="Calque_1" version="1.1" viewBox="0 0 500 500" x="0px"
     xmlns="http://www.w3.org/2000/svg" y="0px" xml:space="preserve">
<style type="text/css">
	.st0{fill:#EAEAEA;}
	.st1{fill:#8C8C8C;}
	.st2{fill:#FFFFFF;}
	.st3{fill:#EAEAEA;stroke:#8C8C8C;stroke-width:7;stroke-miterlimit:10;}
	.st4{fill:#070707;}
	.st5{fill:none;stroke:#8C8C8C;stroke-width:7;stroke-miterlimit:10;}
	.st6{fill:none;stroke:#8C8C8C;stroke-width:10;stroke-miterlimit:10;}
	.st7{fill:#8C8C8C;stroke:#8C8C8C;stroke-width:3;stroke-miterlimit:10;}
	.st8{fill:none;stroke:#8C8C8C;stroke-width:8;stroke-miterlimit:10;}
	.st9{fill:none;stroke:#8E8E8E;stroke-width:6;stroke-miterlimit:10;}
	.st10{fill:#8E8E8E;}
	.st11{fill:#505050;}
	.st12{fill:none;stroke:#8E8E8E;stroke-width:2;stroke-miterlimit:10;}
	.st13{fill:#8C8C8C;stroke:#8C8C8C;stroke-width:2;stroke-miterlimit:10;}
	.st14{fill:#8C8C8C;stroke:#FFFFFF;stroke-width:2;stroke-miterlimit:10;}
	.st15{fill:none;stroke:#FFFFFF;stroke-width:2;stroke-miterlimit:10;}
	.st16{fill:none;stroke:#8C8C8C;stroke-miterlimit:10;}
	.st17{fill:none;stroke:#8C8C8C;stroke-width:13;stroke-miterlimit:10;}
	.st18{fill:#EAEAEA;stroke:#8C8C8C;stroke-width:8;stroke-miterlimit:10;}
	.st19{fill:none;stroke:#8C8C8C;stroke-width:4;stroke-miterlimit:10;}
	.st20{fill:#8C8C8C;stroke:#8C8C8C;stroke-width:0.75;stroke-miterlimit:10;}
	.st21{fill:none;stroke:#8C8C8C;stroke-width:9;stroke-miterlimit:10;}
	.st22{fill:#8C8C8C;stroke:#8C8C8C;stroke-width:0.5;stroke-miterlimit:10;}
	.st23{fill:#6B6B6B;}
	.st24{fill:none;}
	.st25{stroke:#8C8C8C;stroke-width:8;stroke-miterlimit:10;}
	.st26{fill:#8C8C8C;stroke:#8C8C8C;stroke-miterlimit:10;}
	.st27{fill:none;stroke:#8C8C8C;stroke-width:11;stroke-miterlimit:10;}
	.st28{fill:none;stroke:#8C8C8C;stroke-width:6;stroke-miterlimit:10;}
	.st29{stroke:#8C8C8C;stroke-width:6;stroke-miterlimit:10;}
	.st30{fill:#8C8C8C;stroke:#8C8C8C;stroke-width:4;stroke-miterlimit:10;}
	.st31{fill:#8C8C8C;stroke:#8C8C8C;stroke-width:1.05;stroke-miterlimit:10;}
	.st32{fill:#D6D6D6;}
	.st33{fill:none;stroke:#EAEAEA;stroke-width:5;stroke-miterlimit:10;}
	.st34{fill:#8C8C8C;stroke:#8C8C8C;stroke-width:10;stroke-miterlimit:10;}
	.st35{fill:none;stroke:#CECECE;stroke-width:2;stroke-miterlimit:10;}
	.st36{fill:none;stroke:#FFFFFF;stroke-width:4;stroke-miterlimit:10;}
	.st37{fill-rule:evenodd;clip-rule:evenodd;fill:#8C8C8C;}
	.st38{fill:#8C8C8C;stroke:#8C8C8C;stroke-width:8;stroke-miterlimit:10;}
	.st39{fill:#8C8C8C;stroke:#8C8C8C;stroke-width:7;stroke-miterlimit:10;}
	.st40{fill:#DBDBDB;stroke:#8C8C8C;stroke-width:7;stroke-miterlimit:10;}
	.st41{fill:none;stroke:#8C8C8C;stroke-width:5;stroke-miterlimit:10;}
	.st42{fill:none;stroke:#8C8C8C;stroke-width:3;stroke-miterlimit:10;}
	.st43{clip-path:url(#SVGID_2_);fill:#8C8C8C;}
	.st44{clip-path:url(#SVGID_2_);fill:none;stroke:#8C8C8C;stroke-width:8;stroke-miterlimit:10;}
	.st45{clip-path:url(#SVGID_2_);fill:#FFFFFF;}
	.st46{clip-path:url(#SVGID_2_);fill:#EAEAEA;}
	.st47{clip-path:url(#SVGID_2_);fill:none;stroke:#8C8C8C;stroke-miterlimit:10;}
	.st48{fill:none;stroke:#FFFFFF;stroke-width:0.75;stroke-miterlimit:10;}
	.st49{font-family:'HelveticaNeue-CondensedBold';}
	.st50{font-size:54px;}
	.st51{fill:none;stroke:#8C8C8C;stroke-width:14;stroke-miterlimit:10;}
	.st52{fill:none;stroke:#EAEAEA;stroke-width:2;stroke-miterlimit:10;}
	.st53{fill:none;stroke:#8C8C8C;stroke-width:2;stroke-miterlimit:10;}
</style>
    <rect class="st0" height="500" width="500" x="0" y="2"/>
    <g>
	<rect class="st24" height="144" width="500" x="-5" y="365"/>
        <text class="st23 st49 st50" transform="matrix(1 0 0 1 124.0967 403.5557)">Perles &amp; Fil</text>
</g>
    <g>
	<path class="st1" d="M358,201.1c0-8-4.5-15.3-11.6-18.9c4.8-6.1,5.9-14.3,2.8-21.4s-9.7-12-17.3-12.8c3.1-8.5,0.5-18.1-6.6-23.8
		c-7-5.7-16.9-6.3-24.6-1.5l-8.8-9.8c2.9-4.5,3-10.2,0.3-14.8l1-1c1.3-1.4,1.3-3.6,0-5c-1.4-1.4-3.6-1.4-5,0l-1,1
		c-2.2-1.3-4.6-2-7.2-2c-8.3,0-15.5,9.2-14.2,14.2c0.3,1.1,1,2.2,1.3,2.7c0.9,1.4,2.4,3.3,3.5,4c0,0,0,0,0,0
		c0.6,1.1,1.3,1.9,1.8,2.3c0.7,1,3.9,5.1,7.6,5.1c0.4,0,1,0,1.8-0.1c1.7-0.2,3.4-0.8,4.9-1.6l8.7,9.6c-4.9,6.1-6.1,14.3-3.2,21.5
		c3,7.2,9.7,12.2,17.4,13.1c-3.7,10.1,0.8,21.3,10.3,26.1c-6,7.7-6,18.4,0,26.1c-7.1,3.6-11.6,10.9-11.6,18.9
		c-10.5,0-19.5,7.7-21,18.1c-1.3-0.2-2.5-0.4-3.8-0.4c-7,0-13.5,3.5-17.5,9.2c-3.9-3.7-9.1-5.7-14.4-5.7c-5.4,0-10.5,2-14.4,5.7
		c-4-5.8-10.5-9.2-17.5-9.2c-1.3,0-2.6,0.1-3.8,0.4c-1.6-10.4-10.5-18.1-21-18.1c0-8-4.5-15.3-11.6-18.9c6-7.7,6-18.4,0-26.1
		c9.6-4.8,14-16.1,10.3-26.1c7.8-0.8,14.4-5.8,17.4-13.1c3-7.2,1.8-15.5-3.2-21.5l3.7-4.1c-1.9-1.5-3.7-3-5.5-4.5l-3.5,3.9
		c-7.7-4.8-17.6-4.2-24.6,1.5c-7,5.7-9.7,15.3-6.6,23.8c-7.7,0.8-14.3,5.7-17.3,12.8c-3,7.1-1.9,15.3,2.8,21.4
		c-7.1,3.6-11.6,10.9-11.6,18.9c0,8,4.5,15.3,11.6,18.9c-5,6.4-5.9,15.1-2.4,22.4c3.6,7.3,11,11.9,19.2,11.9
		c0,11.8,9.5,21.3,21.3,21.3c1.3,0,2.6-0.1,3.8-0.4c1.2,7.8,6.5,14.3,14,16.9c7.4,2.6,15.7,0.9,21.5-4.5c0.7,1.1,1.6,2.1,2.5,3
		c4,4,9.4,6.3,15.1,6.2c5.7,0,11.1-2.2,15.1-6.2c0.9-0.9,1.7-1.9,2.5-3c5.8,5.3,14,7.1,21.5,4.4c7.4-2.6,12.8-9.1,14-16.9
		c1.3,0.2,2.5,0.4,3.8,0.4c11.8,0,21.3-9.5,21.3-21.3c8.1,0,15.6-4.6,19.1-11.9c3.6-7.3,2.7-16-2.4-22.4
		C353.5,216.4,358,209.1,358,201.1 M284.8,110.4L284.8,110.4c-1,0.7-2.7,1.8-4.9,2c-3.1,0.3-5.9-1.2-7.8-2.1c0-0.8,0-1.9,0.2-3.2
		c0.3-1.6,1.1-6.7,4.8-8.4c2.4-1,5.6-0.6,7.7,1.5c1.4,1.3,2.1,3.2,2.1,5.1C287,107.2,286.2,109.1,284.8,110.4 M160.1,164.2
		c2.1-5.6,7.4-9.3,13.3-9.3c4.3,0,8.4,1.9,11.1,5.3c0.1,0.1,0.2,0.2,0.3,0.3c2.8,3.8,3.6,8.7,2.1,13.1c-1.5,4.4-5.1,7.9-9.7,9.1
		c-3.9-2.4-8.5-3.4-13-2.8C159.7,176.1,158,169.8,160.1,164.2 M187.5,234.4c-5.9,2.2-10.6,6.8-12.7,12.7c-0.4,0-0.8,0.1-1.3,0.1
		c-7.8,0-14.2-6.4-14.2-14.2c0-4.6,2.2-8.9,6-11.6c3.1-2.2,7-3.1,10.7-2.4c6.8,1.2,11.7,7.1,11.7,14
		C187.6,233.5,187.5,233.9,187.5,234.4 M230.8,280.7c-2.7,3.5-6.8,5.6-11.3,5.6c-7.8,0-14.2-6.4-14.2-14.2c0-0.4,0-0.8,0.1-1.2
		c0.4-5.2,3.6-9.7,8.4-11.8c1.8-0.8,3.8-1.2,5.7-1.2c5.5,0,10.6,3.2,12.9,8.3c-1.5,2.9-2.2,6.2-2.2,9.5
		C230.2,277.4,230.4,279,230.8,280.7 M283.5,286.3c-4.4,0-8.6-2.1-11.3-5.6c1.2-4.9,0.6-10-1.6-14.5c2.3-5,7.3-8.3,12.9-8.3
		c2,0,4,0.4,5.8,1.2c4.8,2.1,8,6.7,8.4,12c0,0.3,0.1,0.7,0.1,1C297.7,280,291.3,286.3,283.5,286.3 M315.4,169.2c0-3.1,1-6.1,2.8-8.6
		c0.1-0.1,0.2-0.2,0.3-0.3c2-2.5,4.7-4.2,7.8-4.9c0.1,0,0.2,0,0.2,0c1-0.2,2.1-0.3,3.1-0.3c5.9,0,11.3,3.7,13.3,9.3
		c2.1,5.6,0.4,11.8-4.1,15.7c-4.5-0.5-9.1,0.5-13,2.8C319.7,181.1,315.4,175.5,315.4,169.2 M343.1,237.4c-1.9,5.9-7.3,9.9-13.5,9.9
		c-0.4,0-0.9-0.1-1.3-0.1c-2.2-5.9-6.8-10.6-12.7-12.7c0-0.4-0.1-0.8-0.1-1.3c0-6.9,4.9-12.7,11.6-14c3.8-0.7,7.7,0.1,10.8,2.4
		C342.9,225,345,231.5,343.1,237.4"/>
        <path class="st1" d="M203.3,121.5c1.8,1.5,3.6,3,5.5,4.5l2.3-2.5c2,1.1,4.3,1.7,6.7,1.8c6.5,0,12.3-4.4,13.9-10.7
		c1.6-6.3-1.2-13-7-16.1s-12.9-2-17.3,2.8c-4.5,4.8-5.1,12-1.6,17.5L203.3,121.5z M211.1,108.5c1.1-2.7,3.7-4.5,6.6-4.5
		c3.2,0,6,2.1,6.9,5.2c0.9,3.1-0.4,6.3-3.2,8c-2.7,1.7-6.2,1.3-8.5-0.9l0,0C210.7,114.2,210,111.2,211.1,108.5"/>
        <line x1="265.7" x2="269.3" y1="105.3" y2="108.8"/>
</g>
</svg>
