<svg id="Calque_1" data-name="Calque 1" xmlns="http://www.w3.org/2000/svg" viewBox="0 0 350 300"><defs><style>.cls-1{fill:#fff;stroke:#000;stroke-miterlimit:10;stroke-width:4px;}</style></defs><title>selected</title><path class="cls-1" d="M283,151.12a21.17,21.17,0,0,0-11.62-18.9A21.24,21.24,0,0,0,256.87,98a21.25,21.25,0,0,0-31.2-25.33l-8.84-9.76a13.89,13.89,0,0,0,.26-14.82l1-1a3.55,3.55,0,0,0-5-5l-1,1a14,14,0,0,0-7.17-2c-8.27,0-15.45,9.18-14.2,14.2A10.85,10.85,0,0,0,192,58a13.81,13.81,0,0,0,3.53,4v0a8.46,8.46,0,0,0,1.8,2.34c.73,1,3.94,5.06,7.57,5.12a12.53,12.53,0,0,0,1.8-.12,14.19,14.19,0,0,0,4.89-1.63l8.73,9.64a21.29,21.29,0,0,0,14.26,34.59,21.16,21.16,0,0,0,10.34,26.13,21.1,21.1,0,0,0,0,26.09,21.23,21.23,0,0,0-11.62,18.9,21.31,21.31,0,0,0-21,18.11,22.26,22.26,0,0,0-3.82-.36A21.34,21.34,0,0,0,190.94,210a21.22,21.22,0,0,0-28.88,0,21.32,21.32,0,0,0-17.51-9.23,22,22,0,0,0-3.81.36,21.32,21.32,0,0,0-21-18.11,21.23,21.23,0,0,0-11.62-18.9,21.08,21.08,0,0,0,0-26.09,21.16,21.16,0,0,0,10.34-26.13,21.28,21.28,0,0,0,14.26-34.59l3.69-4.07c-1.85-1.48-3.68-3-5.48-4.53l-3.55,3.91A21.26,21.26,0,0,0,96.13,98,21.25,21.25,0,0,0,81.62,132.2a21.19,21.19,0,0,0,0,37.81A21.25,21.25,0,0,0,98.4,204.37a21.33,21.33,0,0,0,21.3,21.3,22.26,22.26,0,0,0,3.82-.36A21.24,21.24,0,0,0,159,237.76a22,22,0,0,0,2.47,3,21.29,21.29,0,0,0,30.12,0,20.67,20.67,0,0,0,2.48-3,21.26,21.26,0,0,0,35.45-12.45,22,22,0,0,0,3.81.36,21.33,21.33,0,0,0,21.3-21.3A21.24,21.24,0,0,0,271.38,170,21.18,21.18,0,0,0,283,151.12M209.78,60.38l0,0a9.78,9.78,0,0,1-4.85,2c-3.09.3-5.89-1.16-7.77-2.14a18.15,18.15,0,0,1,.2-3.15c.27-1.63,1.11-6.74,4.85-8.36a7.26,7.26,0,0,1,7.73,1.53,7.06,7.06,0,0,1-.13,10.14M85.06,114.24A14.18,14.18,0,0,1,98.4,105a14,14,0,0,1,11.06,5.32,4.12,4.12,0,0,0,.28.31,14.16,14.16,0,0,1-7.58,22.2,20.48,20.48,0,0,0-13-2.84,14.19,14.19,0,0,1-4.13-15.72m27.39,70.13A21.51,21.51,0,0,0,99.7,197.12a12.88,12.88,0,0,1-1.3.15,14.2,14.2,0,0,1-8.21-25.79,13.93,13.93,0,0,1,10.74-2.39,14.19,14.19,0,0,1,11.67,14c0,.43-.08.87-.15,1.3m43.37,46.33a14.17,14.17,0,0,1-25.47-8.58,8.52,8.52,0,0,1,.09-1.24,14.11,14.11,0,0,1,8.37-11.75,13.67,13.67,0,0,1,5.74-1.21,14.2,14.2,0,0,1,12.88,8.27,21.24,21.24,0,0,0-2.23,9.48,21.92,21.92,0,0,0,.62,5m52.63,5.62a14.1,14.1,0,0,1-11.27-5.62,21.06,21.06,0,0,0-1.61-14.51,14.19,14.19,0,0,1,12.88-8.27,13.84,13.84,0,0,1,5.77,1.22,14.21,14.21,0,0,1,8.36,12,7,7,0,0,1,.07,1,14.2,14.2,0,0,1-14.2,14.2m32-117.15a14.26,14.26,0,0,1,2.84-8.56,2.79,2.79,0,0,0,.28-.32,14.06,14.06,0,0,1,7.75-4.94l.24,0a13.36,13.36,0,0,1,3.09-.33,14.18,14.18,0,0,1,9.21,25,20.65,20.65,0,0,0-13,2.84,14.14,14.14,0,0,1-10.45-13.62m27.73,68.2a14.2,14.2,0,0,1-13.53,9.9c-.44,0-.87-.08-1.3-.15a21.48,21.48,0,0,0-12.75-12.75c0-.44-.15-.83-.15-1.3a14.17,14.17,0,0,1,11.65-14,13.79,13.79,0,0,1,10.76,2.37,14.21,14.21,0,0,1,5.32,15.9"/><path class="cls-1" d="M128.27,71.5c1.8,1.53,3.63,3,5.48,4.52L136,73.54a14,14,0,0,0,6.68,1.75,14.28,14.28,0,1,0-11.92-6.55Zm7.85-13a7.1,7.1,0,1,1,1.73,7.79l0,0a7.09,7.09,0,0,1-1.7-7.77"/><line class="cls-1" x1="190.7" y1="55.26" x2="194.25" y2="58.81"/></svg>