<?xml version="1.0" encoding="utf-8"?>
<!-- Generator: Adobe Illustrator 22.1.0, SVG Export Plug-In . SVG Version: 6.00 Build 0)  -->
<svg style="enable-background:new 0 0 500 500;" id="Calque_1" version="1.1" viewBox="0 0 500 500" x="0px"
     xmlns="http://www.w3.org/2000/svg" y="0px" xml:space="preserve">
<style type="text/css">
	.st0{fill:#EAEAEA;}
	.st1{fill:#8C8C8C;}
	.st2{fill:#FFFFFF;}
	.st3{fill:#EAEAEA;stroke:#8C8C8C;stroke-width:7;stroke-miterlimit:10;}
	.st4{fill:#070707;}
	.st5{fill:none;stroke:#8C8C8C;stroke-width:7;stroke-miterlimit:10;}
	.st6{fill:none;stroke:#8C8C8C;stroke-width:10;stroke-miterlimit:10;}
	.st7{fill:#8C8C8C;stroke:#8C8C8C;stroke-width:3;stroke-miterlimit:10;}
	.st8{fill:none;stroke:#8C8C8C;stroke-width:8;stroke-miterlimit:10;}
	.st9{fill:none;stroke:#8E8E8E;stroke-width:6;stroke-miterlimit:10;}
	.st10{fill:#8E8E8E;}
	.st11{fill:#505050;}
	.st12{fill:none;stroke:#8E8E8E;stroke-width:2;stroke-miterlimit:10;}
	.st13{fill:#8C8C8C;stroke:#8C8C8C;stroke-width:2;stroke-miterlimit:10;}
	.st14{fill:#8C8C8C;stroke:#FFFFFF;stroke-width:2;stroke-miterlimit:10;}
	.st15{fill:none;stroke:#FFFFFF;stroke-width:2;stroke-miterlimit:10;}
	.st16{fill:none;stroke:#8C8C8C;stroke-miterlimit:10;}
	.st17{fill:none;stroke:#8C8C8C;stroke-width:13;stroke-miterlimit:10;}
	.st18{fill:#EAEAEA;stroke:#8C8C8C;stroke-width:8;stroke-miterlimit:10;}
	.st19{fill:none;stroke:#8C8C8C;stroke-width:4;stroke-miterlimit:10;}
	.st20{fill:#8C8C8C;stroke:#8C8C8C;stroke-width:0.75;stroke-miterlimit:10;}
	.st21{fill:none;stroke:#8C8C8C;stroke-width:9;stroke-miterlimit:10;}
	.st22{fill:#8C8C8C;stroke:#8C8C8C;stroke-width:0.5;stroke-miterlimit:10;}
	.st23{fill:#6B6B6B;}
	.st24{fill:none;}
	.st25{stroke:#8C8C8C;stroke-width:8;stroke-miterlimit:10;}
	.st26{fill:#8C8C8C;stroke:#8C8C8C;stroke-miterlimit:10;}
	.st27{fill:none;stroke:#8C8C8C;stroke-width:11;stroke-miterlimit:10;}
	.st28{fill:none;stroke:#8C8C8C;stroke-width:6;stroke-miterlimit:10;}
	.st29{stroke:#8C8C8C;stroke-width:6;stroke-miterlimit:10;}
	.st30{fill:#8C8C8C;stroke:#8C8C8C;stroke-width:4;stroke-miterlimit:10;}
	.st31{fill:#8C8C8C;stroke:#8C8C8C;stroke-width:1.05;stroke-miterlimit:10;}
	.st32{fill:#D6D6D6;}
	.st33{fill:none;stroke:#EAEAEA;stroke-width:5;stroke-miterlimit:10;}
	.st34{fill:#8C8C8C;stroke:#8C8C8C;stroke-width:10;stroke-miterlimit:10;}
	.st35{fill:none;stroke:#CECECE;stroke-width:2;stroke-miterlimit:10;}
	.st36{fill:none;stroke:#FFFFFF;stroke-width:4;stroke-miterlimit:10;}
	.st37{fill-rule:evenodd;clip-rule:evenodd;fill:#8C8C8C;}
	.st38{fill:#8C8C8C;stroke:#8C8C8C;stroke-width:8;stroke-miterlimit:10;}
	.st39{fill:#8C8C8C;stroke:#8C8C8C;stroke-width:7;stroke-miterlimit:10;}
	.st40{fill:#DBDBDB;stroke:#8C8C8C;stroke-width:7;stroke-miterlimit:10;}
	.st41{font-family:'HelveticaNeue-CondensedBold';}
	.st42{font-size:54px;}
	.st43{fill:none;stroke:#8C8C8C;stroke-width:5;stroke-miterlimit:10;}
	.st44{fill:none;stroke:#8C8C8C;stroke-width:3;stroke-miterlimit:10;}
	.st45{clip-path:url(#SVGID_2_);fill:#8C8C8C;}
	.st46{clip-path:url(#SVGID_2_);fill:none;stroke:#8C8C8C;stroke-width:8;stroke-miterlimit:10;}
	.st47{clip-path:url(#SVGID_2_);fill:#FFFFFF;}
	.st48{clip-path:url(#SVGID_2_);fill:#EAEAEA;}
	.st49{clip-path:url(#SVGID_2_);fill:none;stroke:#8C8C8C;stroke-miterlimit:10;}
	.st50{fill:none;stroke:#FFFFFF;stroke-width:0.75;stroke-miterlimit:10;}
	.st51{fill:none;stroke:#8C8C8C;stroke-width:14;stroke-miterlimit:10;}
	.st52{fill:none;stroke:#EAEAEA;stroke-width:2;stroke-miterlimit:10;}
	.st53{fill:none;stroke:#8C8C8C;stroke-width:2;stroke-miterlimit:10;}
</style>
    <rect class="st0" height="511" width="500" x="-1" y="-6"/>
    <g>
	<rect class="st24" height="144" width="500" y="362"/>
        <text class="st23 st41 st42" transform="matrix(1 0 0 1 158.5249 400.5557)">PHmètre</text>
</g>
    <g>
	<path class="st1" d="M209.4,245.1h-9.6c-2.2,0-3.9,1.5-3.9,3.4v29.6c0,4.6,9.7,4.6,9.7,0v-8.8h3.4c13.7,0,12.6-12.1,12.7-12.2
		C221.6,249.5,217.1,245.1,209.4,245.1 M208.9,261.3h-3.4v-7.4c3.2,0.2,6.4-1,6.4,3.4C211.8,257.5,212.4,261.3,208.9,261.3"/>
        <path class="st1" d="M242.4,248.5v10.2h-6.8v-10.2c0-4.6-9.7-4.6-9.7,0v29.6c0,4.6,9.7,4.6,9.7,0v-11.4h6.8v11.4
		c0,4.6,9.7,4.6,9.7,0v-29.6C252.1,244,242.4,243.9,242.4,248.5"/>
        <path class="st1" d="M267.5,172c0-1,0.1-3.4-0.3-6.7c-2.5-21.6-20.9-38.4-43.2-38.4c-22.3,0-40.7,16.8-43.2,38.4
		c-0.4,3.2-0.3,5.6-0.3,6.7c0,3.7,3,6.7,6.7,6.7h73.7C264.5,178.6,267.5,175.7,267.5,172 M237.6,146.9c-3.2-1.8-7.3-0.6-9,2.7
		l-8.5,15.7h-25.8c2.4-14.2,14.8-25.1,29.8-25.1c14.9,0,27.3,10.9,29.8,25.1h-18.6l5.1-9.4C242,152.7,240.8,148.7,237.6,146.9"/>
        <path class="st1" d="M222.9,187.1c-11.1,0-20.2,9.1-20.2,20.2c0,11.1,9.1,20.2,20.2,20.2c11.1,0,20.2-9.1,20.2-20.2
		C243.1,196.2,234,187.1,222.9,187.1 M222.9,214.2c-3.8,0-6.9-3.1-6.9-6.9c0-3.8,3.1-6.9,6.9-6.9c3.8,0,6.9,3.1,6.9,6.9
		C229.8,211.1,226.7,214.2,222.9,214.2"/>
        <path class="st1" d="M341.1,106.2h-14.2c-0.2,0-0.3,0-0.4-0.1h-1.3c-7.6,0-13.7,6.2-13.7,13.7v28.8c0,3.9,2.2,7.4,5.5,9.1v41
		c0,6.9,4.6,12.7,10.9,14.6c0.1,20.8,0.3,41.5,0.4,62.3c0.3,1.5,1.6,2.7,3.1,2.8c1.7,0.2,3.3-0.9,3.7-2.6
		c0.5-20.8,0.9-41.6,1.4-62.5c6.3-1.9,10.9-7.7,10.9-14.6v-40.6c3.8-1.6,6.4-5.3,6.4-9.6v-28.8C353.6,112.8,348.1,106.9,341.1,106.2
		 M338.6,195.6c0,3.8-3,6.9-6.6,6.9c-3.6,0-6.6-3.1-6.6-6.9v-41.4h13.2V195.6z M345,148.7c0,1-0.8,1.8-1.8,1.8h-21.5
		c-1,0-1.8-0.8-1.8-1.8v-28.8c0-2.8,2.3-5.2,5.2-5.2h14.8c2.8,0,5.2,2.3,5.2,5.2V148.7z"/>
        <path class="st1" d="M268.9,100.5h-36.3v-6.3c0-3.8,3.1-6.9,6.9-6.9h78.2c3.8,0,6.9,3.1,6.9,6.9v13.2h13.3V94.2
		c0-11.1-9.1-20.2-20.2-20.2h-78.2c-11.1,0-20.2,9.1-20.2,20.2v6.3H179c-9.4,0-17,7.6-17,17V281c0,9.4,7.6,17,17,17h89.9
		c9.4,0,17-7.6,17-17V117.5C285.9,108.1,278.3,100.5,268.9,100.5 M272.6,281c0,2-1.7,3.7-3.7,3.7H179c-2,0-3.7-1.7-3.7-3.7v-41.7
		h97.3V281z M272.6,226h-97.3V117.5c0-2,1.7-3.7,3.7-3.7h89.9c2,0,3.7,1.7,3.7,3.7V226z"/>
</g>
</svg>
