<svg id="Calque_1" data-name="Calque 1" xmlns="http://www.w3.org/2000/svg" viewBox="0 0 350 300"><title>selected</title><path d="M96.73,27,97,27h0l.13,0,.1,0,.29.14h0L112.23,36a4.39,4.39,0,0,1,0,7.52l-9,5.4-5.71,3.43,5.71,3.43,9,5.4a4.39,4.39,0,0,1,0,7.52l-9,5.41-5.71,3.43L103.23,81l9,5.4a4.39,4.39,0,0,1,0,7.51l-9,5.41-5.71,3.43,5.71,3.43,9,5.4a4.39,4.39,0,0,1,0,7.52l-9,5.4-5.71,3.43,5.71,3.43,9,5.41a4.39,4.39,0,0,1,0,7.51l-9,5.41-5.71,3.43,5.71,3.43,9,5.4a4.4,4.4,0,0,1,0,7.52l-13,7.78-1.94,1.16V220l-.93,2.82,2.46,1.7a25.53,25.53,0,0,1,8.57,10.06l1.09,2.28h43.07l1.16-1.94,7.78-13a4.4,4.4,0,0,1,7.52,0l5.4,9,3.43,5.71,3.43-5.71,5.4-9a4.4,4.4,0,0,1,7.52,0l5.41,9,3.43,5.7,3.42-5.7,5.41-9a4.4,4.4,0,0,1,7.52,0l5.4,9,3.43,5.71,3.43-5.71,5.4-9a4.4,4.4,0,0,1,7.52,0l5.4,9,3.43,5.71,3.43-5.71,5.4-9a4.44,4.44,0,0,1,3.77-2.12,4.39,4.39,0,0,1,3.75,2.11l5.41,9,3.43,5.71,3.43-5.71,5.4-9a4.4,4.4,0,0,1,7.52,0l8.77,14.62v0l.14.29,0,.11,0,.11a.64.64,0,0,0,0,.07,2.06,2.06,0,0,0,0,.26v16.41a8.6,8.6,0,0,1-8.59,8.59H127.92a4.44,4.44,0,0,1-2.65-.88l-11.11-8.33L110,250.12,108.05,255a25.34,25.34,0,0,1-27.79,15.58A25.38,25.38,0,0,1,78,221l5.72-1.53-3.55-4.74-7.49-10a4.41,4.41,0,0,1-.88-2.64V35.59A8.6,8.6,0,0,1,80.34,27H96.73M84.64,220.08H96.93V27.39H80.34a8.21,8.21,0,0,0-8.2,8.2V203.42l.8,1.07,10.5,14,1.2,1.6m-.1,50.37h0a25,25,0,1,0-25-25,25.06,25.06,0,0,0,25,25m42-8.4H294.41a8.2,8.2,0,0,0,8.2-8.19V237.27H109.92v12.29l1.6,1.2,14,10.49,1.07.8M97.13,23H80.34A12.59,12.59,0,0,0,67.75,35.59v166.5a8.41,8.41,0,0,0,1.68,5l7.49,10a29.39,29.39,0,1,0,34.84,39.33l11.11,8.32a8.41,8.41,0,0,0,5,1.68h166.5A12.59,12.59,0,0,0,307,253.86V237.07c0-.1-.05-.19-.05-.28a4.7,4.7,0,0,0-.17-.83,4.26,4.26,0,0,0-.28-.78,2.15,2.15,0,0,0-.1-.27l-9-15a8.41,8.41,0,0,0-14.38,0l-5.4,9-5.41-9a8.4,8.4,0,0,0-14.37,0l-5.41,9-5.4-9a8.4,8.4,0,0,0-14.37,0l-5.41,9-5.41-9a8.4,8.4,0,0,0-14.37,0l-5.4,9-5.41-9a8.4,8.4,0,0,0-14.37,0l-5.41,9-5.41-9a8.4,8.4,0,0,0-14.37,0l-7.78,13H111a29.5,29.5,0,0,0-9.9-11.63,4.53,4.53,0,0,0,.19-1v-39.6l13-7.78a8.39,8.39,0,0,0,0-14.37l-9-5.41,9-5.41a8.39,8.39,0,0,0,0-14.37l-9-5.41,9-5.4a8.39,8.39,0,0,0,0-14.37l-9-5.41,9-5.41a8.39,8.39,0,0,0,0-14.37l-9-5.4,9-5.41a8.39,8.39,0,0,0,0-14.37l-9-5.41,9-5.4a8.4,8.4,0,0,0,0-14.38l-15-9L99,23.5a4.26,4.26,0,0,0-.78-.28,4.63,4.63,0,0,0-.84-.17c-.09,0-.17-.05-.27-.05ZM86.64,216.08l-10.5-14V35.59a4.2,4.2,0,0,1,4.2-4.2H92.93V216.08Zm-2.1,50.37a21,21,0,1,1,21-21,21,21,0,0,1-21,21Zm43.37-8.4-14-10.49v-6.29H298.61v12.59a4.19,4.19,0,0,1-4.2,4.19Z"/><path d="M84.54,236.87A8.59,8.59,0,1,1,76,245.46a8.6,8.6,0,0,1,8.59-8.59m0,16.79a8.2,8.2,0,1,0-8.2-8.2,8.21,8.21,0,0,0,8.2,8.2m0-20.79a12.59,12.59,0,1,0,12.59,12.59,12.59,12.59,0,0,0-12.59-12.59Zm0,16.79a4.2,4.2,0,1,1,4.2-4.2,4.2,4.2,0,0,1-4.2,4.2Z"/></svg>