<svg id="Calque_1" data-name="Calque 1" xmlns="http://www.w3.org/2000/svg" viewBox="0 0 350 300"><defs><style>.cls-1{fill:none;stroke:#000;stroke-miterlimit:10;stroke-width:4px;}</style></defs><title>selected</title><g id="clock"><path d="M111.62,91.9a1.83,1.83,0,1,1-1.83,1.83,1.83,1.83,0,0,1,1.83-1.83m0-4a5.83,5.83,0,1,0,5.83,5.83,5.83,5.83,0,0,0-5.83-5.83Z"/><path d="M111.62,161.86a1.83,1.83,0,1,1-1.83,1.83,1.83,1.83,0,0,1,1.83-1.83m0-4a5.83,5.83,0,1,0,5.83,5.83,5.83,5.83,0,0,0-5.83-5.83Z"/><path d="M76.63,126.88a1.83,1.83,0,1,1-1.83,1.83,1.84,1.84,0,0,1,1.83-1.83m0-4a5.83,5.83,0,1,0,5.84,5.83,5.83,5.83,0,0,0-5.84-5.83Z"/><path d="M146.6,126.88a1.83,1.83,0,1,1-1.83,1.83,1.83,1.83,0,0,1,1.83-1.83m0-4a5.83,5.83,0,1,0,5.83,5.83,5.83,5.83,0,0,0-5.83-5.83Z"/><path d="M86.88,151.61a1.83,1.83,0,1,1-1.83,1.83,1.83,1.83,0,0,1,1.83-1.83m0-4a5.83,5.83,0,1,0,5.83,5.83,5.83,5.83,0,0,0-5.83-5.83Z"/><path d="M86.88,102.14A1.83,1.83,0,1,1,85.05,104a1.83,1.83,0,0,1,1.83-1.83m0-4A5.83,5.83,0,1,0,92.71,104a5.83,5.83,0,0,0-5.83-5.83Z"/><path d="M136.35,151.61a1.83,1.83,0,1,1-1.83,1.83,1.83,1.83,0,0,1,1.83-1.83m0-4a5.83,5.83,0,1,0,5.83,5.83,5.83,5.83,0,0,0-5.83-5.83Z"/><path d="M135.55,39.42a7.66,7.66,0,0,1,7.53,6.25l8.37,45.55.2,1.08.72.83a54.09,54.09,0,0,1,12.48,24.94l.71,3.57,3.63-.38a6.15,6.15,0,0,0,1.05-.2,7.66,7.66,0,0,1,0,15.31,6,6,0,0,0-.95-.21l-3.72-.49-.73,3.68A53.91,53.91,0,0,1,151.75,165l-.76.84-.21,1.12-8.3,44.78a7.7,7.7,0,0,1-7.54,6.27H88.3a7.66,7.66,0,0,1-7.54-6.25l-8.23-44.83-.21-1.12-.76-.84a53.34,53.34,0,0,1,.63-73.25l.8-.86.21-1.15,8.17-44a7.66,7.66,0,0,1,7.53-6.27h46.65m-58,46.91L85.08,82a52.63,52.63,0,0,1,54.29,0l7.53,4.38-1.59-8.57-5.83-31.41-.61-3.27H85.58L85,46.35,79.14,77.76l-1.59,8.57m34.07,93A50.65,50.65,0,1,0,61,128.71a50.7,50.7,0,0,0,50.65,50.65m0,3.66a53.43,53.43,0,0,1-27.14-7.55l-7.54-4.38,1.59,8.57,5.83,31.41.61,3.27h53.3l.6-3.27,5.83-31.41,1.59-8.57-7.53,4.38A53.43,53.43,0,0,1,111.62,183m23.93-147.6H88.9A11.68,11.68,0,0,0,77.43,45L69.27,89a57.36,57.36,0,0,0-.68,78.68l8.24,44.82A11.66,11.66,0,0,0,88.3,222h46.64a11.68,11.68,0,0,0,11.47-9.53l8.3-44.79a57.94,57.94,0,0,0,14.07-27.55,8.88,8.88,0,0,0,1.14.24,11.66,11.66,0,1,0,0-23.32,11,11,0,0,0-1.14.23,57.91,57.91,0,0,0-13.4-26.78L147,45a11.65,11.65,0,0,0-11.46-9.53ZM83.07,78.49,88.9,47.08h46.65l5.83,31.41a56.64,56.64,0,0,0-58.31,0Zm28.55,96.87a46.65,46.65,0,1,1,46.64-46.65,46.71,46.71,0,0,1-46.64,46.65Zm0,11.66a57.78,57.78,0,0,0,29.15-8.09l-5.83,31.41H88.3l-5.83-31.41A57.76,57.76,0,0,0,111.62,187Z"/><line class="cls-1" x1="112.22" y1="127.03" x2="112.22" y2="93.73"/><line class="cls-1" x1="89.91" y1="151.49" x2="112.22" y2="125.76"/><path d="M136.35,102.14a1.83,1.83,0,1,1-1.83,1.83,1.83,1.83,0,0,1,1.83-1.83m0-4a5.83,5.83,0,1,0,5.83,5.83,5.83,5.83,0,0,0-5.83-5.83Z"/></g><path d="M268.25,107.5a47.75,47.75,0,1,1-47.75,47.75,47.8,47.8,0,0,1,47.75-47.75m0-4A51.75,51.75,0,1,0,320,155.25a51.75,51.75,0,0,0-51.75-51.75Z"/><path d="M267.75,121.5a32.25,32.25,0,1,1-32.25,32.25,32.29,32.29,0,0,1,32.25-32.25m0-4A36.25,36.25,0,1,0,304,153.75a36.25,36.25,0,0,0-36.25-36.25Z"/></svg>