<svg id="Calque_1" data-name="Calque 1" xmlns="http://www.w3.org/2000/svg" viewBox="0 0 350 300"><title>selected</title><g id="uuJ75H.tif"><path d="M101.72,28.73c.31.15.59.3.84.44a8.92,8.92,0,0,0,1.71.77,6.15,6.15,0,0,0,3.55,1.39,4.26,4.26,0,0,0,1.18-.17,7.09,7.09,0,0,0,1.94.28,6.23,6.23,0,0,0,1.18-.11A8.14,8.14,0,0,0,114.84,33a6.21,6.21,0,0,0,3.68,1.46l.37,0a5.9,5.9,0,0,0,2.62.68h.06a9.81,9.81,0,0,0,1.61.75l1.19.83c.49.35.89.63,1.24.85l.28.21c.75.57,1.3,1,1.74,1.3l.48.38c.06.48.17,1,.29,1.55a6.51,6.51,0,0,0-.21,1.19c-.05.56-.07,1.19-.08,1.8,0,.33,0,.85,0,1.14-.37,1.14-.75,2.28-1.12,3.42-1.93,5.87-3.92,11.94-6.08,17.8a76.76,76.76,0,0,0-3.7,14.4v0l.5-4.45H85.79l.49,4.42c-.09-.78-.19-1.58-.29-2.38a21,21,0,0,0-.89-4.18l-1.48-4.43c-2-5.9-4-12-6-18-.36-1.07-.73-2.13-1.09-3.21s-.86-2.49-1.16-3.39a14.51,14.51,0,0,1-.55-3h0c0-.24.1-.48.14-.7a15.29,15.29,0,0,0,.29-1.78l.63-.64c.09-.08.17-.17.26-.26.8-.66,1.59-1.29,2.17-1.75l.74-.61h0c1.16-.84,2-1.46,2.51-1.78l0,0,1.91-1.19.42-.26,1.62-.83c.48-.13,1-.24,1.44-.33a10.08,10.08,0,0,0,1.45-.41,7.44,7.44,0,0,0,4.54-1.32A9.58,9.58,0,0,0,96.22,29h.06a5.13,5.13,0,0,0,1.66.3h3l.13-.4a6.78,6.78,0,0,0,.7-.12m.68,0h0m13.06,67.2c-.24,2.26-.49,4.51-.74,6.72q-.47,4.13-.9,8.25a35.41,35.41,0,0,0-.19,3.91v19.36c0-.6,0-1.15-.1-1.69,0-.23,0-.46,0-.7l-.23-3.75H89.81c0-1.56,0-3.12,0-4.67A235.67,235.67,0,0,0,88.22,98l1.15,10.34.4,3.55h23.9l.4-3.55,1.39-12.4m-25.6,31.83h23.66v-15.6H89.86v15.6m1.4,125.4a12.3,12.3,0,0,0,1.3,1.93,10.69,10.69,0,0,1-1.3-1.93m14.95,5.31a10.27,10.27,0,0,1-4.24.93h-.33a11.81,11.81,0,0,0,4.57-.92M104.39,24.41c1,1.25,1.27,1.69,1.06,1.69s-1.34-.71-2.91-1.42a21.14,21.14,0,0,0-3-.27c3,.08,1.7.54,0,.54a4.91,4.91,0,0,1-2.56-.54c.84.61,1.17.85,1,.85a4.74,4.74,0,0,1-.86-.26c-.15,0-.5-.05-1-.05a16,16,0,0,0-3.19.35A6.28,6.28,0,0,1,94,25.14c1.29,0-.9,1.22-3.11,1.22a5,5,0,0,1-1.39-.19c2.17.72.54,1.3-1.47,1.3a9,9,0,0,1-1.72-.15c2.24.42,0,.46-2.27,1.15-.39.2-1.15.57-2.15,1.1l-2.56,1.59c-.41.29-1.38,1-2.68,1.91,0,0-1.65,1.31-3.31,2.67,0,0-.74.73-1.59,1.63A31.63,31.63,0,0,1,70,40.88c.7-1.38,1-1.93,1.15-1.93s-.16,1.35-.46,3a26.18,26.18,0,0,0,.8,4.35l1.18,3.45c.37,1.07.73,2.13,1.09,3.2,2.54,7.46,5,14.94,7.51,22.42A17.05,17.05,0,0,1,82,78.77q.89,7.19,1.66,14.37c1.08,10,2.19,20,2.15,30.21-.17,40.53-.07,81.06-.07,121.59,0,.86,0,1.71,0,2.57.41,6.81,3.53,11.92,9.88,14.57a16.45,16.45,0,0,0,6.31,1.33,15.61,15.61,0,0,0,10.41-4.24c4.11-3.59,5.28-8.35,5.27-13.65q-.08-65.36,0-130.7a34,34,0,0,1,.16-3.49c.83-7.8,1.78-15.6,2.51-23.42a79.1,79.1,0,0,1,4.32-20.19c2.63-7.14,4.95-14.39,7.34-21.62.26-.79,0-4.24.43-4.24.13,0,.31.32.6,1.15-.61-2.69-1.13-4.43-.87-4.43s.57.6,1.39,2c-1.31-2.16-1.85-3.05-1.72-3.05A8.43,8.43,0,0,1,133,38.67l-1.72-1.81-2.49-2c.89.72,1.29,1,1.28,1s-1.44-1.08-3.86-2.92c1.18.89,1.63,1.24,1.61,1.24s-2.38-1.67-4.28-3c.93.63,1.22.9,1.1.9a16.64,16.64,0,0,1-3.87-2.44c1.14.9,1.22,1.4.74,1.4-.63,0-2.21-.85-3.62-2.76,1.06,1.44,1.12,2.1.63,2.1s-2.23-1.18-3.62-3.24c.94,1.4,1.24,1.94,1.07,1.94a17.66,17.66,0,0,1-2.45-1.83,34.83,34.83,0,0,0-3.85-1.6c2.56.91,2.38,1.71,1.27,1.71A5.2,5.2,0,0,1,107,25.07c1.11,1.59,1.21,2.26.79,2.26s-2.09-1.19-3.43-2.92Zm8.81,55.84c-1,9.29-2.07,18.43-3.11,27.64H93.35L90.26,80.25ZM93.86,123.77v-7.6h15.66v7.6Zm7.78,131.63A7.9,7.9,0,0,1,94,249a13.56,13.56,0,0,1-.24-2.78q0-56,0-112V132h15.78c.05.8.14,1.55.14,2.29q0,56,0,112c0,3.76-1.19,6.72-4.74,8.34a7.83,7.83,0,0,1-3.27.72Zm.26-231,.64.27.13,0-.77-.29Zm-2.48,0h0Zm.09,0Zm0,0h0Zm3.16.29a5.21,5.21,0,0,0,1.12.33c.14,0-.24-.17-1.12-.33Zm-6.33,0,.74.26h.09s-.22-.05-.83-.27Zm-3.48.56h0Zm19.44,1.13,1.22.9c.37.19.57.3.61.33s-.67-.41-1.83-1.23Zm1.83,1.23h0Zm-29.79.66-1.08.43.79-.28.29-.15ZM82,29.48s-.54.3-1.71.95c.58-.32,1.1-.61,1.58-.86l.13-.09ZM79.57,31,77.5,32.33l1.84-1.17.23-.16Zm-2.91,2.07s-.56.39-1.88,1.38c.68-.51,1.31-1,1.88-1.38Zm-3.31,2.67s-.36.29-1.21,1c.38-.33.8-.67,1.21-1Zm-1.6,1.63a10.4,10.4,0,0,0-1.19,1.36c.39-.47.81-.93,1.2-1.36Zm-1,4.59a7.81,7.81,0,0,0-.22,1.42c.06-.48.14-1,.22-1.42Zm.45,3.3s.12.38.44,1.31l-.09-.26-.35-1.05Z"/><path d="M202.82,224c-1.92,0-3.83.11-5.73.22v9.27c0,6.72,0,13.45,0,20.18,0,5,5.35,8.48,13.31,8.59,2.57,0,5.13.05,7.7.05,2.95,0,5.91,0,8.86-.05,4.48,0,8.14-1.17,10.82-3.39a6.63,6.63,0,0,0,2.51-5.58c0-8.8.07-17.61,0-26.42q-3.37-.3-6.73-.64,0,13.6,0,27.2c0,3.33-2.49,4.83-8,4.83H217l-6.29,0c-4.13,0-6.89-1.65-6.9-4.14q-.06-15,0-30.1h-.93Z"/><path d="M218.69,141.35c6.65,2.39,15.09,5.93,21.92,12.13,2.93,2.67,4.43,4.82,5,7.2a13,13,0,0,1,.31,4.66c-.82,6.14-1.71,11.5-2.73,16.4-.1.49-.22,1-.34,1.45H194.56c-1-3.89-1.62-7.94-2.29-12.11-.26-1.66-.54-3.38-.83-5.08-1.25-7.15,1.72-12.65,8.81-16.34,4.51-2.35,9.35-4.42,14-6.41l4.41-1.9m18.46,58.39s0,.09,0,.13H237l.17-.13m-18.39-62.41a4.05,4.05,0,0,0-1.58.32c-6.3,2.74-12.7,5.3-18.78,8.46-7.47,3.89-12.64,10.58-10.9,20.58,1.66,9.56,2.56,19.3,7.05,28.16a28,28,0,0,1,1.74,4.33,13.48,13.48,0,0,1,.76,3.95q.06,12.6,0,25.2c2.24-.2,4.47-.44,6.66-.49V218.1a8.1,8.1,0,0,1,.12-.95h29.65c0,.78.1,1.47.1,2.16v12.15c2.24.37,4.48.73,6.72,1.06q0-10.53-.14-21c-.09-7.17.81-13.86,4-20.31a36.45,36.45,0,0,0,2.92-8.61c1.15-5.52,2-11.1,2.79-16.69a17.24,17.24,0,0,0-.39-6.11c-.9-3.79-3.38-6.69-6.19-9.24-6.8-6.18-15-10-23.5-13a3.15,3.15,0,0,0-1-.17Zm.29,59.75q-7.58,0-15.16-.05a2.08,2.08,0,0,1-1.59-1c-1.25-2.83-2.35-5.72-3.62-8.87h40c-1.25,3.13-2.4,6.13-3.68,9.07a1.94,1.94,0,0,1-1.53.78q-7.19,0-14.39,0Zm-15.14,13.2v-6.41h29.54v6.41Z"/><path d="M157.46,62.49a5.17,5.17,0,0,0,1.62.26h.17a4.89,4.89,0,0,0,1.89.62,5.25,5.25,0,0,0,3,1.37A6.25,6.25,0,0,0,166.37,66a6,6,0,0,0,1,1.24,4.78,4.78,0,0,0,.95,1.61,4.28,4.28,0,0,0,.71.64,4.64,4.64,0,0,0,.51.86,4.38,4.38,0,0,0,.76.79,4.31,4.31,0,0,0,.5,1,4.1,4.1,0,0,0,.58.67c.05.12.11.23.17.35a4.22,4.22,0,0,0,1.86,1.74,4.4,4.4,0,0,0,1.24.88,1.4,1.4,0,0,0,.1.16v.24a4.48,4.48,0,0,0-.27,1.3,4.36,4.36,0,0,0,.5,2.39,8.4,8.4,0,0,0,.8,2.86,11.48,11.48,0,0,0-.06,2.4c0,.25,0,.63,0,.78-1.26,9.27-2.57,18.69-3.83,27.79q-1,7.42-2.06,14.84l0-.17,3-23.58.56-4.49H141.55l.58,4.51,2.13,16.61.9,7,.45,3.49h23.83l0-.33c0,.86,0,1.67,0,2.41V136q0,8.55,0,17.11l0-.62c0-.25,0-.5-.05-.76l-.18-3.81H145.61c0-.61,0-1.21,0-1.81v1.55h23.67V132.1H145.65V140c-.25-10.49-1.74-20.77-3-29.3q-1.19-8.18-2.32-16.36c-.85-6-1.72-12.17-2.6-18.25a7.23,7.23,0,0,1-.07-.88l0,0a9.8,9.8,0,0,0,.48-1.13,13.49,13.49,0,0,0,2.2-2.91,9.53,9.53,0,0,0,1.53-2.22l.77-.89.19-.22,1-1c.44-.26.88-.47,1.22-.63a5.39,5.39,0,0,0,.48-.25,9.84,9.84,0,0,0,4.11-1.68,6.26,6.26,0,0,0,2.88-1,5.79,5.79,0,0,0,2.62-.59,6.19,6.19,0,0,0,1,.09,5,5,0,0,0,1.24-.16m-11.91,89.29v29.66c0-1.52,0-3,0-4.54-.05-8.24-.1-16.72,0-25.12M160.73,258.9a10.83,10.83,0,0,1-2.53.45,12.45,12.45,0,0,0,2.34-.4l.19-.05M158.17,56.29c1.35,1.7,1.52,2.46.91,2.46s-2.19-.88-4.15-2.41c2,1.57,2.19,2.31,1.29,2.31A12.25,12.25,0,0,1,151.73,57c2.61,1.42,2.28,2.19.77,2.19a10.33,10.33,0,0,1-3.92-1c2.8,1.27,2.15,2.07-.16,2.07a16.33,16.33,0,0,1-2.92-.31c4.35.81.2,2-3,2.34.67-.07,1.08-.11,1.27-.11.63,0-.85.4-2.41,1.44-.31.31-.8.81-1.43,1.47-.41.47-1.72,2-2.84,3.35a5.38,5.38,0,0,1,1.23-1.29c.15,0-.74,1.25-3,3.41a8.18,8.18,0,0,1,1.48-1.3,21.89,21.89,0,0,1-2.64,3.16l.11,0c.52,0-.53,1.38-.59,2a9.75,9.75,0,0,0,.08,2.21c1.67,11.53,3.25,23.08,4.92,34.61s3.21,22.89,2.93,34.55c-.36,14.85-.09,29.71-.09,44.56q0,27.42,0,54.83c0,1.24,0,2.49.13,3.72.61,8.43,8,14.47,15.85,14.47a15.08,15.08,0,0,0,6.72-1.58c6.47-3.24,9.16-8.72,9.16-15.77q0-55.75,0-111.52a27,27,0,0,1,.11-3.49c2.06-14.89,4.15-29.77,6.17-44.65.15-1.08-.34-3.46.33-3.46a.36.36,0,0,1,.14,0c-.56-1.74-1.94-3.75-.73-3.74a3.48,3.48,0,0,1,1.19.31c-3-1.66-3-2,.46-3.44a7.1,7.1,0,0,1-1.73.33c-1.29,0-.49-1.17,1.62-2.73a4.4,4.4,0,0,1-1.82.47c-1.57,0-1.86-1.38.9-2.59a12.44,12.44,0,0,1-3.18.69c-1.21,0-1-.81,1.49-2.74-1.6,1.2-2.62,1.81-3.09,1.81-.68,0-.2-1.27,1.37-3.83-1.08,1.74-1.87,2.51-2.31,2.51-.65,0-.55-1.7.52-4.48-.71,1.86-1.37,2.65-1.81,2.65-.68,0-.87-1.81-.06-4.52-.56,1.86-1.08,2.7-1.47,2.7-.55,0-.82-1.67-.51-4.44-.2,1.74-.45,2.46-.77,2.46-.56,0-1.33-2.08-2.39-4.72.71,1.77.48,2.6-.12,2.6-.83,0-2.34-1.53-3.1-4.29.55,2,.39,2.84-.12,2.84-.71,0-2.08-1.61-3.11-3.94.79,1.8.78,2.58.27,2.58s-2-1.17-3.52-3.11Zm10.7,48c-1,7.93-2,15.68-3,23.58H149.13c-1-7.78-2-15.59-3-23.58Zm-19.22,39.44V136.1h15.67v7.59Zm7.77,111.68a7.84,7.84,0,0,1-7.8-7.16c-.06-.78-.07-1.56-.07-2.33V152h15.81c0,.85.11,1.61.11,2.36q0,45.84,0,91.66c0,5-2,8-6,9.12a7.81,7.81,0,0,1-2.07.28ZM141.76,63.19l-1.17,1c.26-.22.52-.41.78-.59a4,4,0,0,0,.39-.4Zm-1.7,1.72s-.36.39-1.24,1.35c.41-.45.78-.85,1.12-1.2l.12-.15Z"/></g></svg>