<svg data-name="Calque 1" id="Calque_1" viewBox="0 0 500 500" xmlns="http://www.w3.org/2000/svg">
    <defs>
        <style>.cls-1{fill:#eaeaea;}.cls-2{font-size:54px;fill:#6b6b6b;font-family:HelveticaNeue-CondensedBold,
            Helvetica Neue;font-weight:700;}.cls-3{fill:#8c8c8c;}
        </style>
    </defs>
    <rect class="cls-1" height="500" width="500" x="2" y="-1"/>
    <text class="cls-2" transform="translate(194.01 399.56)">Pince</text>
    <g id="jNoiH8.tif">
        <path class="cls-3"
              d="M267,139l1.6,4.19c.34-1.09.57-1.74.75-2.41a18.59,18.59,0,0,0,.54-2.17,43.21,43.21,0,0,1,9.79-21.32,17.89,17.89,0,0,1,1.78-2q17.91-16,35.84-32c.27-.25.57-.47,1.23-1C333.06,74.52,339.66,75.58,343,78c14.5,10.5-10.13,62.75-13.79,70.51-3.21,6.81-7.72,12.43-11.51,14.9a95,95,0,0,0-10.48,7.94c1.64-.06,3.3-.07,4.94-.21,1.26-.11,1.91.26,2.14,1.6q1.29,7.53,2.78,15a2.2,2.2,0,0,1-1.23,2.54c-5.34,3.6-10.67,7.2-15.9,10.94a4,4,0,0,0-1.49,2.88c.89,41.78-15.95,75-48.64,100.46a170.65,170.65,0,0,1-32.59,19.68c-5.88,2.76-11.87.69-14.84-5.08-2-3.92-4-7.87-5.93-11.83-2.76-5.6-1-11.05,4.27-14.58,8.34-5.54,16.94-10.78,24.76-17,17-13.49,30-30.1,36.73-51.06a78.7,78.7,0,0,0,3.91-23.15,2.16,2.16,0,0,0-1.44-2.34,31.48,31.48,0,0,1-6.19-4c-1.32-1.14-2.3-.93-3.59-.37a87.18,87.18,0,0,0-31.8,24c-12.82,15.13-20.54,32.78-25.24,51.86-1.36,5.51-2.32,11.13-3.34,16.72-1.37,7.47-5.71,10.83-13.29,10.09-4-.38-7.89-.74-11.83-1.2-7-.81-10.79-5.4-10.3-12.42,1.54-21.74,6.41-42.59,16.6-62,13.26-25.28,33.28-43.17,59.6-54.09a66.22,66.22,0,0,1,6.49-2.49,3,3,0,0,0,2.3-2.64c1.38-6.13,2.89-12.23,4.24-18.37a2.57,2.57,0,0,1,2.41-2.38C256.13,141.08,261.49,140,267,139ZM205.57,304.55a1.22,1.22,0,0,0,.43,0q.62-.27,1.2-.6c18.2-10.27,34.13-23.23,47.18-39.62a121.09,121.09,0,0,0,15.69-25.88c2.74-6.07,7.66-8.52,14.05-7.25.85.17,1.71.32,2.71.51.25-1.2.47-2.14.64-3.09A118.22,118.22,0,0,0,289.06,200a3.55,3.55,0,0,1,1.74-3.71c4.66-3,9.18-6.2,13.75-9.32,3.08-2.11,3.22-2.64,1.53-6.31l-16.24.9a7.93,7.93,0,0,0-.25,1.07c-.63,8.52-5,14.24-13,17.07-1.43.5-1.25,1.41-1.35,2.4-.4,4.24-.54,8.52-1.25,12.71-3.41,20.16-12.81,37.39-26.27,52.56-11.85,13.35-26,23.86-41.37,32.75C203.73,301.61,203.68,302.07,205.57,304.55ZM181.38,288.1c3.31.86,3.7.62,4.17-2.41,2.95-19.09,8.31-37.41,17.87-54.32,11.3-20,26.79-35.56,48.06-44.86,1.63-.72,1.57-1.65,1.46-3A18.16,18.16,0,0,1,264,165.22c.54-.22,1-.53,1.52-.78l-4.62-14.93c-4.41.35-4.43.35-5.31,4.05-1.3,5.46-2.6,10.92-3.82,16.4a2.87,2.87,0,0,1-2.2,2.45,118.24,118.24,0,0,0-27.32,12.38c-.66.41-1.28.9-1.94,1.37.35.56.54.88.75,1.19,4.54,7,4,11.74-1.79,17.84a133.8,133.8,0,0,0-9.15,10.5c-13.46,17.49-21.51,37.44-26.26,58.82C182.88,279,182.2,283.59,181.38,288.1ZM329,85c-12.51,11-24.94,21.57-36.89,32.64A30.1,30.1,0,0,0,284,129.49c-3.25,9.74-5.35,19.84-7.87,29.81a2.79,2.79,0,0,0,.28,2.14c1.18,1.45,2.58,2.73,4.1,4.28,2.51-3.61,5.62-8.09,9.07-13,11.9-17.06,17.84-25.59,19.34-27.68,9.76-13.6,14.51-20.77,24-34.34.44-.63.83-1.31,1.17-1.85Zm7.59,6-.59.4L310.6,127.75l-28,40.05a21.79,21.79,0,0,1,2.85,1.21c2.44,1.5,4.36,1,6.65-.71,6.76-5,13.66-9.73,20.63-14.4,5.83-3.91,9.49-9.52,12-15.61,6.54-15.63,12.56-28.48,15.14-38.85.53-2.13.93-3.89,1.18-5ZM272.89,191.14a9.28,9.28,0,0,0,7.43-10.63c-.79-4.52-6.23-8.27-10.8-7.42a9.18,9.18,0,1,0,3.37,18Z"/>
    </g>
</svg>
