<svg id="Calque_1" data-name="Calque 1" xmlns="http://www.w3.org/2000/svg" viewBox="0 0 350 300"><title>selected</title><path d="M81.26,33.59a8,8,0,0,1,6.18,2.88L99.53,51c12.72,15.28,32.71,32.76,55.86,53,32.73,28.63,69.84,61.09,103.34,101.35a7.94,7.94,0,0,1,1.51,2.8l3.46,11.33a8,8,0,0,1-5.34,10,.63.63,0,0,1-.19,0,.71.71,0,0,1-.32-.07l-9.19-4.9a.69.69,0,0,1-.32-.39l-2.74-9-.24-.79-.53-.62c-27.41-32.62-57.89-60.63-86.74-86l-19.25-16.94,13.17,22c19.75,33,41.76,68.06,68.86,100.93l.52.63.72.38,8.35,4.33a.66.66,0,0,1,.32.39l3.15,9.93a.67.67,0,0,1-.05.5,8,8,0,0,1-7.14,4.33,7.88,7.88,0,0,1-3.68-.9l-10.51-5.45a8.21,8.21,0,0,1-2.47-2c-33.51-40.27-58.68-82.64-80.9-120-15.7-26.44-29.27-49.28-42-64.56L75.1,46.74a8,8,0,0,1,6.16-13.15m0-4A12,12,0,0,0,72,49.3L84.12,63.83c12.51,15,26,37.75,41.63,64.05,22.28,37.51,47.54,80,81.25,120.54a11.94,11.94,0,0,0,3.71,3l10.51,5.45a12,12,0,0,0,16.22-5.14,4.66,4.66,0,0,0,.3-3.55l-3.14-9.93a4.68,4.68,0,0,0-2.3-2.73L224,231.18c-27.38-33.22-49.23-68.24-68.51-100.44,28.16,24.79,58.64,52.65,86.33,85.61l2.74,9a4.65,4.65,0,0,0,2.27,2.76L256,233a4.71,4.71,0,0,0,2.2.54,4.57,4.57,0,0,0,1.36-.2,12,12,0,0,0,8-15L264.07,207a11.88,11.88,0,0,0-2.26-4.18C228.1,162.3,190.87,129.74,158,101c-23-20.13-42.9-37.53-55.41-52.56L90.52,33.92a12,12,0,0,0-9.26-4.33Z"/></svg>