<svg id="Calque_1" data-name="Calque 1" xmlns="http://www.w3.org/2000/svg" viewBox="0 0 350 300"><defs><style>.cls-1{fill:none;stroke:#000;stroke-miterlimit:10;stroke-width:5px;}</style></defs><title>selected</title><path class="cls-1" d="M216.7,73.23c-.13.6-.26,1.21-.4,1.81-6.52,28.4-49.56,19.76-44.63-9,.1-.62.22-1.22.34-1.83a65.37,65.37,0,0,1,32.11-44.21A65.38,65.38,0,0,1,216.7,73.23"/><path d="M202.78,26.73a60.46,60.46,0,0,1,9,45.52c-.11.56-.23,1.12-.36,1.67C208.54,86.5,197.9,87.48,194.7,87.48A19.37,19.37,0,0,1,180,81c-3.13-3.71-4.29-8.56-3.35-14,.09-.57.2-1.12.31-1.68a60,60,0,0,1,9.3-22.15,60.88,60.88,0,0,1,16.57-16.37m1.34-6.68A65.37,65.37,0,0,0,172,64.26c-.12.61-.24,1.21-.34,1.83-2.84,16.52,10.2,26.39,23,26.39,9.47,0,18.83-5.38,21.6-17.44.14-.6.27-1.21.4-1.81a65.38,65.38,0,0,0-12.58-53.18Z"/><path class="cls-1" d="M216.09,73.63a26.92,26.92,0,0,1-26-14,15.3,15.3,0,0,0-9.95-1.24c-5.27,1.34-7.81,5.78-8.59,5.3s.92-5.57,9.86-23a65.79,65.79,0,0,1,22-20.24,65.39,65.39,0,0,1,12.58,53.18"/><path d="M202.17,27.14a60.46,60.46,0,0,1,9.68,41.47A21.8,21.8,0,0,1,194.54,57.2l-.82-1.5L192.16,55a22.13,22.13,0,0,0-8.92-2,17.67,17.67,0,0,0-2.42.16c1.26-2.6,2.87-5.85,5-9.89a60.87,60.87,0,0,1,16.4-16.11m1.34-6.69a65.79,65.79,0,0,0-22,20.24c-8.94,17.39-10.64,22.48-9.86,23a.23.23,0,0,0,.14,0c.91,0,3.44-4.07,8.45-5.34a12.41,12.41,0,0,1,3.05-.37,17.12,17.12,0,0,1,6.9,1.61A26.87,26.87,0,0,0,214,73.71c.86,0,1.57,0,2.08-.08a65.39,65.39,0,0,0-12.58-53.18Z"/><path d="M178.2,88.54l24.44,4.9L187,159.5,159.46,276.31c-2.51-.87-5-1.81-7.42-2.83-1.4-.58-2.79-1.18-4.17-1.82L167.11,155.5l11.09-67m-4.09-5.92-11.93,72.07L142.33,274.55q3.81,1.9,7.79,3.55a132.65,132.65,0,0,0,13,4.63L191.9,160.65l16.8-71.09-34.59-6.94Z"/><path d="M178.2,88.54l24.44,4.9L187,159.5,159.46,276.31c-2.51-.87-5-1.81-7.42-2.83-1.4-.58-2.79-1.18-4.17-1.82L167.11,155.5l11.09-67m-4.09-5.92-11.93,72.07L142.33,274.55q3.81,1.9,7.79,3.55a132.65,132.65,0,0,0,13,4.63L191.9,160.65l16.8-71.09-34.59-6.94Z"/><path d="M178.69,86.07,203.14,91l-15,63.82-20.24-4.07,10.78-64.66m-4.09-5.92-12.42,74.53,29.73,6,17.28-73.56L174.6,80.15Z"/><path d="M178.69,86.07,203.14,91l-15,63.82-20.24-4.07,10.78-64.66m-4.09-5.92-12.42,74.53,29.73,6,17.28-73.56L174.6,80.15Z"/><path d="M150.22,79.12l.54,3.06,11,62.06,12.64,71a128,128,0,0,1-9.93,19.88l-.21.33-21.67-87.1-16-64.18,23.57-5m4-6-33.68,7.18,17.23,69.21,24.38,98q3.53-4.74,6.61-9.79a131.92,131.92,0,0,0,10.83-22l-12.87-72.36-11-62.07-1.45-8.15Z"/><path d="M150.22,79.12l.54,3.06,11,62.06,12.64,71a128,128,0,0,1-9.93,19.88l-.21.33-21.67-87.1-16-64.18,23.57-5m4-6-33.68,7.18,17.23,69.21,24.38,98q3.53-4.74,6.61-9.79a131.92,131.92,0,0,0,10.83-22l-12.87-72.36-11-62.07-1.45-8.15Z"/><path d="M150.72,79.23l10.75,60.36L142,143.75l-14.81-59.5,23.56-5m4-6-33.68,7.18,17.23,69.2,29-6.17-12.5-70.21Z"/><path d="M150.72,79.23l10.75,60.36L142,143.75l-14.81-59.5,23.56-5m4-6-33.68,7.18,17.23,69.2,29-6.17-12.5-70.21Z"/><path d="M153.71,22,152,44.43l-1.92,24.72-26.38,5.62L105.25,40.85l-.4-.72h0l-3.76-6.92L153.71,22m5.5-6.29-65.7,14,7.34,13.51h0l20.21,37.2,33.68-7.18L157,44.82l2.26-29.11Z"/><path d="M153.71,22,152,44.43l-1.92,24.72-26.38,5.62L105.25,40.85l-.4-.72h0l-3.76-6.92L153.71,22m5.5-6.29-65.7,14,7.34,13.51h0l20.21,37.2,33.68-7.18L157,44.82l2.26-29.11Z"/><path d="M153.71,22l-.53,6.81a9.17,9.17,0,0,0-2-.64,9.54,9.54,0,0,0-1.86-.18c-6.54,0-13.72,6.52-22.42,15.05a74.37,74.37,0,0,1-6,5.53l-.46.31a7.71,7.71,0,0,1-4.15,1.37c-4.41,0-8.73-5.06-11.08-9.4l-.4-.72h0l-3.76-6.92L153.71,22m5.5-6.29-65.7,14,7.34,13.51h0c3.21,5.9,8.79,12,15.48,12a12.55,12.55,0,0,0,6.84-2.16s.35-.22.7-.47C129.1,48.84,142.12,33,149.34,33a4.14,4.14,0,0,1,.87.08c2.16.44,4.79,2.87,6.74,11.75l2.26-29.11Z"/><path d="M153.69,22l-.52,6.81a8.82,8.82,0,0,0-2-.63,9.26,9.26,0,0,0-1.84-.18c-6.55,0-13.72,6.53-22.42,15.08a72.75,72.75,0,0,1-6,5.53l-.46.32a7.73,7.73,0,0,1-4.16,1.38c-4.4,0-8.72-5.06-11.08-9.39l-.4-.72h0l-3.77-6.91L153.69,22m5.5-6.29L93.5,29.76l7.36,13.51h0c3.21,5.89,8.79,12,15.47,12a12.57,12.57,0,0,0,6.85-2.17s.36-.23.7-.48C129.12,48.84,142.13,33,149.35,33a4.11,4.11,0,0,1,.86.08c2.16.43,4.79,2.86,6.76,11.74l2.22-29.11Z"/></svg>