<svg id="Calque_1" data-name="Calque 1" xmlns="http://www.w3.org/2000/svg" viewBox="0 0 350 300"><title>selected</title><g id="uZUny9"><path d="M165,101.2a19.89,19.89,0,0,1,3.14.25,9.24,9.24,0,0,1,2.13,1l.43.23c2.64,1.38,5.32,2.82,7.9,4.21l3.54,1.9,2.94,1.57c2.09,1.11,4.25,2.25,6.35,3.41a11.89,11.89,0,0,1,1.1.72,18.51,18.51,0,0,0,2.16,1.35c.95.49,1.9.9,2.82,1.3l.55.25a6.38,6.38,0,0,1-2.52,3.5,82.16,82.16,0,0,0-8.14,6c-1,.82-2.07,1.67-3.11,2.47a5.8,5.8,0,0,0-1,1l0,0-1.58,1.81a155.9,155.9,0,0,0-11.83-10.93,9.36,9.36,0,0,0-6.14-2.31,10.42,10.42,0,0,0-5.22,1.46l-3.82,2.17,2.52,3.59,3,4.37c2.37,3.4,4.81,6.9,7.27,10.35-.87.6-1.73,1.21-2.57,1.81L163.07,144l-3.23,2.27,1.49,2.19-6.43,4.77-.12-.75-1.71,2.11-1.17.87a6.82,6.82,0,0,0-1-1.49l.32-.26-.68-.08a2.48,2.48,0,0,0-.3-.25,4.12,4.12,0,0,0-2.54-.86,5,5,0,0,0-2.11.51l-2.3-.28a5.52,5.52,0,0,0-.37-2.5l.43-.2,4.31-2L145,144.14l-1.32-1.92c-.92-1.33-1.79-2.58-2.57-3.86L140,136.6c-2.33-3.84-4.74-7.82-6.87-11.8a3.33,3.33,0,0,1-.17-.37,9.77,9.77,0,0,1,1-1.2,3.85,3.85,0,0,1,.42-.39,3.59,3.59,0,0,1,.6.33,5.46,5.46,0,0,0,3,1,5.24,5.24,0,0,0,4.35-2.41c1.61-2.29,3.21-4.8,3.53-8.23a26.43,26.43,0,0,1,.74-3.59c.14-.52.27-1.05.4-1.57l.76.92,3.27,3.93,3-4.12a7.06,7.06,0,0,0,1.41-5.24h.69a6.39,6.39,0,0,0,3.37,1.08c2.91,0,4.48-2.3,5.35-3.69m53.32,4.52a5.8,5.8,0,0,1,.82.21l1.14,5.33c0,.26.1.51.15.74s.11.56.17.84c-.14.14-.28.29-.41.44l-1.56-.59c-.33-.13-.63-.23-.9-.32l-.54-.2-2.92-1.64a18.29,18.29,0,0,0,1.75-1.86l.46-.54,2-2.21-.12-.2m-9.07,15.37a22.82,22.82,0,0,0,2.29.24l-.72.09-1,.12-.53-.45M207.63,128l0,.2-.1-.11.07-.09m5.26,2.07c-.52.72-1,1.45-1.53,2.18l-.65.93-2.19,3.13,2,1.57a8.18,8.18,0,0,0-.4,4.51l-1.54-.77c-1.66-.84-3.37-1.69-5.08-2.52a7.68,7.68,0,0,0-3.09-.64l-.37,0,5.23-3.67H205l1.55-1.12,3.8-2.75-.28-.28,2.09-.41.72-.14m-37.23,21.78c.8,1.12,1.6,2.24,2.41,3.35,2.45,3.39,5,6.89,7.33,10.41a24.49,24.49,0,0,0-3.53-.28,19.38,19.38,0,0,0-6,1l-4.85,1.53,2.63,4.36.48.76c.28.45.52.83.71,1.19l1.29,2.46c1.34,2.52,2.59,4.89,3.73,7.35a.36.36,0,0,1,0,.11,1.47,1.47,0,0,1-.39.5,4.55,4.55,0,0,1-.45.38h0a42.31,42.31,0,0,1-6.56-5.75c-3.11-3.48-6.16-7.17-9.12-10.74q-1.84-2.25-3.72-4.49c-.19-.23-.38-.47-.62-.75l-.41-.51-2.87-3.52-.09-.64,6.55-3c.07.12.15.24.23.36a4.87,4.87,0,0,0,3.93,1.91,4.28,4.28,0,0,0,2.83-1,16.1,16.1,0,0,0,1.25-1.22,7.71,7.71,0,0,0,5.17-3.74M100.94,174a10,10,0,0,0,1.92,2.59l1.25,1.24a4.68,4.68,0,0,0,.09,1.72c0,.06,0,.13,0,.22l.14.84-1.21-1.81-2.35-3.52-.12.1-.18-.58a8.6,8.6,0,0,0,.42-.8M91.4,185.41a4.36,4.36,0,0,0,.6,1.93c1.16,1.9,2.34,3.71,3.58,5.63l1,1.63,2.26,3.51,3.41-2.42.08-.05a7.14,7.14,0,0,0,.11,4l-.06,0c-.33.17-.69.36-1.06.57A7,7,0,0,0,97.44,199a8,8,0,0,0-4.25,1.34,9.68,9.68,0,0,1-1.08.55,19.43,19.43,0,0,0-2,1c-4.07,2.59-8.18,5.25-12.15,7.83l-.73.47A46.84,46.84,0,0,0,67.9,218a5.79,5.79,0,0,0-1.48-.2,6.1,6.1,0,0,0-3.74,1.37c-3.13,2.4-6.34,4.82-9.45,7.16l-3.06,2.31a12.06,12.06,0,0,0-5.17,3v-.16a10.43,10.43,0,0,0,3.77-5.09l.31-.24.46-.35c3.69-2.93,7.56-6,11.51-9a6.58,6.58,0,0,0,2.67-4.71c5.09-2.26,9.39-5.5,13.56-8.64l.1-.07c3-2.27,5.82-4.77,8.53-7.19,1.1-1,2.2-2,3.31-2.93,3.13-2.71,2.21-6.17,1.82-7.65a.36.36,0,0,1,0-.11l.4-.1m18.44,3.34.3.39.48.65c.17.23.33.46.51.68a4.9,4.9,0,0,0-1.15-.21l.59-.42-.73-1.09m4.11,4.36.41.24a9.34,9.34,0,0,0,2.07.85c.08.26.16.52.24.76a9.06,9.06,0,0,0-2-.22h-.43a4.83,4.83,0,0,0-.3-1.64m49.3-96c-.53,0-1.22.06-1.27.23-.25.92-.76,1.12-1.33,1.12s-.87-.11-1.26-.11H159c-1.11,0-2.23-.14-3.34-.2,0,.23,0,.45,0,.68h6.09c-.88,1.41-1.41,2-2.08,2a3.46,3.46,0,0,1-1.65-.71,2.75,2.75,0,0,0-1.42-.39h-.26a3.39,3.39,0,0,1-.44,0c-1,0-1.46-.5-1.19-1.85L149,97.23l-.06.45,2.45,1.11c-.23,1.31-.72,2.32-.48,3.12.46,1.57,1.29,3,0,4.78l-3.32-4c-2,1.17-3.85,2.35-4.4,4.7a42.41,42.41,0,0,0-1.23,5.73c-.23,2.47-1.47,4.38-2.82,6.3a1.35,1.35,0,0,1-1.08.71,1.51,1.51,0,0,1-.84-.3,5.32,5.32,0,0,0-2.88-1,4.5,4.5,0,0,0-3.26,1.71c-2,2.16-2.86,3.54-1.45,6.18,2.5,4.68,5.29,9.21,8,13.75,1.22,2,2.63,3.93,4,5.95L135.82,149l.21.42,1.52-.67c.5.88.89,1.65,1.35,2.37a1.5,1.5,0,0,1-.58,2.4c-1.16.7-2.22,1.56-3.33,2.35l-10.85,7.66-.2-.23,2.72-4a18.11,18.11,0,0,0-1.81.14c-3.68.65-3.92,1-3.18,4.64a1.82,1.82,0,0,1-.7,1.51c-1.66,1-3.4,2-5.14,2.87-3.36,1.75-6.75,3.45-10.16,5.2-2.15-2.13-2.08-4.43.45-6,2-1.27,4.19-2.28,6.27-3.45a10,10,0,0,0,1.4-1.13c-.66.33-1.33.64-2,1a68.81,68.81,0,0,0-7.3,4.16,3.17,3.17,0,0,1-1.82.81,2.7,2.7,0,0,1-1-.2,3.73,3.73,0,0,0-1.35-.27A2.67,2.67,0,0,0,97.63,171a4.38,4.38,0,0,1-2.36,3.41,6.41,6.41,0,0,0-2,1.43,5.45,5.45,0,0,0-1.19,2.82c0,2.2-.19,2.6-2.46,3s-3.12,2.09-2.67,4.22c.29,1.4,1.1,3-.39,4.33-3.85,3.34-7.56,6.88-11.63,9.94-4.37,3.29-8.76,6.61-13.93,8.7a3.23,3.23,0,0,0-1.28,2.49,2.62,2.62,0,0,1-1.16,2.27q-5.81,4.48-11.54,9c-.76.6-1.82,1.27-2,2.07-.5,2.43-2.46,3.43-4.07,4.82V241c1-.94,2-1.92,3.11-2.82,2.48-2.06,4.16-5.2,7.74-5.82.24,0,.44-.31.65-.47,4.21-3.18,8.43-6.34,12.61-9.54a2.11,2.11,0,0,1,1.31-.55,2.05,2.05,0,0,1,.89.24,2.69,2.69,0,0,0,1.17.29,2.11,2.11,0,0,0,1.65-.82,42.45,42.45,0,0,1,9.31-8c4.27-2.77,8.55-5.55,12.85-8.28.95-.61,2-1,3-1.58a4.11,4.11,0,0,1,2.14-.74,3.76,3.76,0,0,1,2.48,1.17,13.89,13.89,0,0,0,1.65,1.15,9.45,9.45,0,0,1,1.24-1.27c.68-.45,1.43-.8,2.15-1.2s1.6-1.22,2.13-1.22a.47.47,0,0,1,.17,0,2.65,2.65,0,0,0,1,.23,3,3,0,0,0,2-1,6.31,6.31,0,0,1,4.39-2.07,6.66,6.66,0,0,1,2.58.58,3.1,3.1,0,0,0,1.19.25,2.84,2.84,0,0,0,2.73-3,14.81,14.81,0,0,0-1-3.65l3.58-2.91c-.7-1.18-1-1.67-1.51-1.67a3.35,3.35,0,0,0-1.41.65,10.68,10.68,0,0,1-2.55,1.41,1.27,1.27,0,0,1-.34,0,3.83,3.83,0,0,1-1.69-.55,7.52,7.52,0,0,1-1.68-1.47,18.89,18.89,0,0,1-1.29-1.67c.9-.1,1.6-.29,2.19-.29a2,2,0,0,1,.55.07c.28.09.22,1.28.37,2.4l4.37-2.77c-1.36-1.7-2.43-3.12-3.61-4.44a1.13,1.13,0,0,0-.8-.24,2,2,0,0,0-.58.08,26,26,0,0,0-2.58,1.16c-.36.59-.92,1.22-1.39,1.22h-.08c-1-.16-2.07-.84-1.53-2a1.41,1.41,0,0,1,1.3-.93,2.56,2.56,0,0,1,1.51.61c2.58-2.35,2.58-2.35.37-4.92a7.61,7.61,0,0,0-.68-.65l-4.54,3.07c-.08-.46-.18-.7-.12-.75,1.3-1,2.61-2,3.92-3.06-1.58-1.56-1.44-2.22.59-3,.63.52,1.06,1.42,1.93,1.42a2,2,0,0,0,1-.3c2.18-1.23,1-2.41-.33-3.67l1-.57a12.62,12.62,0,0,0,.9,1.71c.87,1.18,1.8,2.32,2.75,3.43a1.93,1.93,0,0,0,.94.62l.07,0a17.81,17.81,0,0,0,2.89-1.7c.6-.45,1-1.17,1.56-1.66a1.64,1.64,0,0,1,1-.46c.51,0,.93.39,1.14,1.11.12.39.22.79.34,1.24l-5.66,3.72c.67.6,1.41,1.79,2.25,1.87,1,.08,1,.32,1,1.05a2.61,2.61,0,0,0,.37,1c2.13-1.46,4-2.73,5.84-4,1-.67,2.23-1.15,1.71-2.88l1.47.41-.14-1.71,1.56.58c-.05-.34,0-.62-.09-.63-1.07-.25-1.58-.71-1.45-2,0-.44-1-1.08-1.68-1.46a17.64,17.64,0,0,0-2.29-.93l1.31-1.92-2.37-2.3c.15-1.34.13-3.26,2.49-3.44l1.73,1.58-.45-2,1.41.66.65-1.35c.37.33.75.64,1.11,1s.52.59.78.89l.55-.19c-.23-1.31-.46-2.62-.67-3.79a1.33,1.33,0,0,0,.87.39c1,0,1.76-1.5,3.13-1.5l.24,0-3,2.45,1.33,1.73c1.36-.26,2.37-.41,3.35-.66a2.73,2.73,0,0,0,1.1-.69c.72-.7,1.34-1.51,2.09-2.18a3,3,0,0,1,1.27-.7.15.15,0,0,1,.1,0,3.72,3.72,0,0,1,.85,1.3l-6.78,5.33c.54,1.34.8,1.87,1.35,1.87a3.82,3.82,0,0,0,1.42-.53.78.78,0,0,1,.31-.06c.29,0,.64.12.94.14a4,4,0,0,1-.37,1.07,10.66,10.66,0,0,1-1.1,1.13l.37.46c2.63-1.44,5.38-2.71,7.42-5.23a2.23,2.23,0,0,1-.2,1.42,10.46,10.46,0,0,1-4.59,4.89c-.75.37-1.24.87-.54,1.78a1,1,0,0,0,.75.49,2.28,2.28,0,0,0,1-.48c1.29-.78,2.54-1.85,3.93-2.1a2.55,2.55,0,0,0,2.09-1.38c.25-.45.56-.88.91-1.43l1.06,1.3c4.3,5.12,8.47,10.35,12.93,15.32a45.6,45.6,0,0,0,7.19,6.32,4,4,0,0,0,2.36.88,4.78,4.78,0,0,0,3.2-1.59,4.3,4.3,0,0,0,1.23-5.19c-1.57-3.39-3.38-6.66-5.11-10-.38-.73-.85-1.42-1.31-2.18a15.51,15.51,0,0,1,4.76-.78,21.44,21.44,0,0,1,3.49.32,25.32,25.32,0,0,0,3.95.53,6,6,0,0,0,2.62-.55,2,2,0,0,1,.86-.24c.43,0,.76.26,1.14.77,1.87,2.55,3.82,5,5.76,7.52a5.1,5.1,0,0,0,.91.76l1.78-7.11c-2.32-.14-2-2.41-2.6-4.1-1.33-3.76-2.64-7.54-4-11.29-.55-1.49-1.61-2.87-1.82-4.39-.44-3.08-2.24-5-4.56-6.59a6.81,6.81,0,0,1,5.79-3.1,10.91,10.91,0,0,1,3,.48,2.25,2.25,0,0,0,.64.07h.81a6.76,6.76,0,0,1,2.14.29c3.38,1.62,6.7,3.37,10.08,5a4.27,4.27,0,0,0,1.82.38,3.59,3.59,0,0,0,.47,0l.43,0c.63,0,1,.21,1,1a8.47,8.47,0,0,1-.2,2.2c-1.61,5.13-3.29,10.24-4.89,15.37a25.2,25.2,0,0,0-.78,3.67c-.19,1.22-.28,2.46-.41,3.7,1.28-8.13,3.95-15.8,6.93-23.52l1.35.87c-1.78-2.87,1-5.15.74-7.77-.47,1.16-.93,2.32-1.4,3.47l-.5,0a20.76,20.76,0,0,0-1.39-3.2c-1.6-2.49-1.3-4.6.71-6.76a49.91,49.91,0,0,0,4.16-5.42c1.16-1.65,2.19-3.4,3.56-5.55l7.9,13.59.36-.2c-2.35-4.18-4.65-8.4-7.11-12.53a1.8,1.8,0,0,1,0-2.29c.89-1.36,1.63-2.81,2.44-4.22l-.39-.26-3.38,4.26c-1.56-1.73-1.55-1.87,0-3.08.64-.51,1.3-1,1.93-1.5,1.19-1,1.16-1.41-.16-2.16.75-.86,1.52-1.69,2.23-2.57,1-1.26.82-2.16-.37-3.26-.36-.34-.41-1-.76-1.92l1.34.83c-1-2.56-1.71-5.19-3.93-6.93a9.9,9.9,0,0,0-6.3-2.23,16.4,16.4,0,0,0-6.29,1.48c-1.72.72-3,2.35-4.73,3.24a4.4,4.4,0,0,0-2.46,3.45,21.45,21.45,0,0,1,2.39.61,25.59,25.59,0,0,1,2.68,1.32c.16.08.19.4.35.49,2,1.16,4,2.32,6.06,3.45a20.72,20.72,0,0,0,1.95.76c-.54.36-.73.58-1,.62a17.38,17.38,0,0,1-3.36.32,21.9,21.9,0,0,1-5.86-.84,4.09,4.09,0,0,0-1.08-.16c-1.38,0-2.09.95-2.82,2.06a2.1,2.1,0,0,0,.46,3.09l-17,11.91-.31-.39a4,4,0,0,1,.51-.57c3.61-2.78,7.06-5.84,10.92-8.23,3.19-2,4-5,5.08-8.1.13-.34-.41-1.19-.84-1.42-1.76-.91-3.62-1.6-5.39-2.5-1.1-.56-2.06-1.41-3.15-2-3.09-1.7-6.21-3.33-9.32-5-3.82-2-7.63-4.11-11.47-6.13a14.47,14.47,0,0,0-3.66-1.56,36.75,36.75,0,0,0-5.36-.36Zm47.11,10.6c0-.44-.06-1.1.18-1.28a23.82,23.82,0,0,1,2.61-1.49l.3.5a24.81,24.81,0,0,1-1.89,2.07c-.25.23-.79.15-1.2.2Zm15.12,5.68s0,0,0,0c-.28-.09-.67-.26-.74-.48-.24-.75-.36-1.54-.57-2.51,1.61.2,2.35,1.53,1.75,2.63-.08.15-.31.37-.42.37Zm-5.11,7.17h0a3.94,3.94,0,0,1,.55-.77c1-.82,2-1.46,1.83-3.1-.06-.63,1.1-1.37,2-2.37.37,2.67-2.3,6.24-4.35,6.24Zm-33.63,15.63-.15-.18a24.63,24.63,0,0,1,3.41-4c3.92-3.08,8-6,12.07-8.83.79-.54,2-.47,3-.69a4,4,0,0,1-2,4.21c-.93.56-.51,2,1.1,3.65l-8,5.79-.3-.38,2.52-1.87c2.07-1.52,2.12-1.68,1.15-4.61l-4.16,2.2-.16-.25,1.61-1.45-.12-.18-10,6.61ZM165.61,147.6l-.24-.35c2.06-1.45,4.08-2.95,6.19-4.32,1.17-.76,1.32-1.32.44-2.53-3.93-5.46-7.74-11-11.6-16.52a6.57,6.57,0,0,1,3.24-.93,5.36,5.36,0,0,1,3.54,1.35c6.46,5.51,12.78,11.15,17.75,18.11l.41.58h0c-.27,1-.47,1.72-.67,2.43.68-.36,1.25-.87,1.62-.87a.2.2,0,0,1,.11,0c.49.17.77.9,1.13,1.39l-1.25.65c.08,0,.31.32.56.34,2,.15,2.76,1.82,3.67,3.24,3.66,5.7,6.21,11.92,8.65,18.2a8.72,8.72,0,0,1-2.54.37,7.57,7.57,0,0,1-6.41-3.15c-3.73-5.78-7.86-11.31-11.86-16.91a35.61,35.61,0,0,0-3-3.63,1.11,1.11,0,0,0-.77-.22,1.25,1.25,0,0,0-.65.14,55.6,55.6,0,0,1-6.05,3.53l6.33-4.7c-.29-.44-.53-.83-.87-1.36l-7.76,5.14Zm48.72-11.9-.34-.27c.72-1,1.43-2.07,2.16-3.08a20.23,20.23,0,0,1,1.69-2.19c1.21-1.27,1.4-2.24.2-3.87s1.28-1.78,1.94-2.72a1.17,1.17,0,0,1,.91-.58,1.12,1.12,0,0,1,.92.65,2,2,0,0,1-.12,2.85c-2,2.39-3.88,5-5.81,7.43-.48.62-1,1.19-1.55,1.78Zm-2.93-9.45-.15-.86,3-.36c0,.22.07.43.1.64l-2.92.58Zm-18.76,12.49L189.39,141c0-1.82.66-2.29,3.25-2.29Zm-26.23,15a1,1,0,0,1-.67-.23,1,1,0,0,1,.09-.94c1.83-1.35,3.69-2.65,5.57-3.93a.75.75,0,0,1,.39-.09.76.76,0,0,1,.46.12.87.87,0,0,1,.09.82,3.68,3.68,0,0,1-3.22,2.16,2.32,2.32,0,0,1-.46,0c-.81.86-1.37,1.52-2,2.07a.4.4,0,0,1-.24.06Zm-18.48,8.95h-.22c.74-.91,1.38-1.74,2.1-2.5a.48.48,0,0,1,.31-.08.89.89,0,0,1,.52.15,1,1,0,0,1,.27.86c-.11.6-1.9,1.58-3,1.58Zm-20.5,5.63-4-2.15a3.84,3.84,0,0,1,3.22-2.94,2,2,0,0,1,.35,0c.24,0,.31.91.39,1.14v3.92Zm-6,2.27-.35-.52,3.21-2.22.4.67-3.26,2.07Zm7.35,6.52c-.11,0-.6-.61-.55-.69a3,3,0,0,1,1-1l.09,0a6.7,6.7,0,0,1,1.24.58,13.6,13.6,0,0,1-1.8,1.17Zm-32.68,4.39-2.41-1.24c-.36-1.93,0-2.36,3.21-3.56a19.17,19.17,0,0,1,1,3.84c0,.31-1.4.75-1.83,1ZM100,192.43c-1.58-2.46-3.12-4.79-4.57-7.18a1.27,1.27,0,0,1,.35-1.16c1.29-1.07,2.66-2,4.08-3.11l5.23,7.85-5.09,3.6Zm6.58,7.12c-.11-.85-.73-2.29-.26-2.92.6-.81,2.08-1,3.29-1.45l-.75-.83a4.58,4.58,0,0,1,.79-.1c.75,0,.75.49.3,2a2.73,2.73,0,0,1,.46.38c.56.7,1.38,1.37,1.54,2.16.09.45-1.31.79-2.42.79a2.8,2.8,0,0,1-.93-.12,1.37,1.37,0,0,0-.42-.06c-.39,0-.89.11-1.6.15Zm7.24-36.45,0,0h0Z"/></g><path d="M227.7,31.8A57.92,57.92,0,0,1,251,36.86a25,25,0,0,1,8.45,8.51,61.9,61.9,0,0,0-9.9,10.13c-1.38-1.59-2.27-2.72-2.33-2.8-.36-.45-.69-.88-1-1.3-2-2.65-4.13-5.4-8.09-6.32a11.09,11.09,0,0,0-2.5-.29c-4.67,0-8.69,2.86-13.77,6.47-5.62,4-9.34,6.64-11.74,11.65-3.24,6.78-1.87,13.46-1,17.87,3.9,19,18.17,30,26.33,34.93,5.42,3.26,10.15,4.84,14.46,4.84.41,0,.81,0,1.23,0,6.66-.42,11.34-3.82,13.85-5.65,2.13-1.55,7.4-5.39,10.26-11.79a158.33,158.33,0,0,1,16.53-.95c-.6,8.16-3.51,23.52-16.2,35.29-2.22,2.05-14.11,12.34-30.59,13.13-.68,0-1.37.05-2,.05-14.62,0-30.17-7.36-42.68-20.18-12.66-13-20.16-29.56-20.58-45.48-.23-8.68,1.11-30.28,18.49-43.54A48,48,0,0,1,227.7,31.8m0-4a52.29,52.29,0,0,0-31.87,10.41C174.94,54.14,175.64,80.4,175.76,85c.94,35.72,34.55,69.56,67.26,69.56.75,0,1.49,0,2.24-.06,18.39-.88,31.28-12.49,33.12-14.19C295.75,124.24,296,102.2,296,98c-7.88.23-15.77.18-23.57,1.42-2.07,6.61-7.66,10.69-9.71,12.19-2.31,1.67-6.25,4.54-11.75,4.89-.3,0-.63,0-1,0-2.54,0-6.39-.66-12.4-4.27-3.15-1.9-20.34-12.24-24.47-32.31-.93-4.53-2-9.88.65-15.33,1.95-4.08,5-6.24,10.44-10.12,4.64-3.29,8.07-5.73,11.46-5.73a6.65,6.65,0,0,1,1.59.19c3,.69,4.38,3.05,6.86,6.2.26.33,2.57,3.23,5.57,6.4,4.65-5.31,8.79-11.28,14.93-14.83-.28-.68-.59-1.36-.93-2a29.16,29.16,0,0,0-10.76-11.43A61.68,61.68,0,0,0,227.7,27.8Z"/><path d="M274.31,81.16c3.49,0,9,2.6,10.6,5.82a11.59,11.59,0,0,1,.57,1.48,30.41,30.41,0,0,0,1.26,3.18c-3.19.1-6.42.26-9.65.56a34.46,34.46,0,0,0-2.29-8.63c-.28-.75-.63-1.69-.83-2.4h.34m0-4a5.29,5.29,0,0,0-3.76,1.18c-2.94,3,3.74,9.37,2.5,18.37,6.88-1,13.83-1.07,20.77-1.24a29.3,29.3,0,0,1-2.72-4.07c-1.66-3-1.79-4.56-2.61-6.2-2.4-4.84-9.44-8-14.18-8Z"/><path d="M262.89,56.37c.44,4.71-.34,8.56-1.18,9.87A16,16,0,0,1,257,63.1l.43-.53a78.21,78.21,0,0,1,5.44-6.2m2.62-7.15c-5.71,3.39-9.64,9.19-14,14.22,3.59,3.55,7.73,6.9,10.57,6.9a3,3,0,0,0,1-.15c3.8-1.29,5.42-11.58,2.47-21Z"/></svg>