<svg id="Calque_1" data-name="Calque 1" xmlns="http://www.w3.org/2000/svg" viewBox="0 0 350 300"><title>selected</title><path d="M124,151.29a1.79,1.79,0,1,1-1.79,1.78,1.79,1.79,0,0,1,1.79-1.78m0-4a5.79,5.79,0,1,0,5.79,5.78,5.79,5.79,0,0,0-5.79-5.78Z"/><path d="M55.41,26.74c35.17,0,70.78.22,105.92.57,36.72.37,73.93.93,110.67,1.66v.18H55.41V26.74M41.67,48.53a18.29,18.29,0,0,1,7.94,2.08l2.94,1.48L49.9,53.18a19.67,19.67,0,0,1-7.31,1.56,12.06,12.06,0,0,1-5.12-1.07,9.3,9.3,0,0,1-3.35-2.16,8.93,8.93,0,0,1,3.28-2.12,10.47,10.47,0,0,1,4.27-.86m230.82,27.4v.78l-17.94.48L233,77.77l-5.09.13,1.33,4.91,11,40.64,3.89,14.3,1,3.85,3.85-1,5.19-1.39a1.82,1.82,0,0,1,.46-.06,1.79,1.79,0,0,1,1.73,1.32l6,22.36a1.78,1.78,0,0,1-1.27,2.19l-16.79,4.5-3.86,1,1,3.86,18,67.2a21.36,21.36,0,1,0,41.26-11.06L269.38,113.14A24.93,24.93,0,0,1,287,82.6a24.37,24.37,0,0,1,6.45-.85,25,25,0,0,1,24.1,18.48l4.38,16.36a1.8,1.8,0,0,1-1.27,2.19,1.82,1.82,0,0,1-.46.06,1.8,1.8,0,0,1-1.73-1.33l-4.38-16.35a21.36,21.36,0,0,0-42,5.51,21.61,21.61,0,0,0,.73,5.54l31.46,117.4a24.94,24.94,0,0,1-17.63,30.54,25.32,25.32,0,0,1-6.47.85,25,25,0,0,1-24.07-18.49l-18-67.19-1-3.87-3.86,1L216.46,177a1.76,1.76,0,0,1-.46.06,1.85,1.85,0,0,1-.89-.24,1.8,1.8,0,0,1-.84-1.09l-6-22.36a1.78,1.78,0,0,1,1.27-2.19l2.38-.64,2.77-.74.19-2.86a16,16,0,0,1,.89-4.06,10.7,10.7,0,0,0-3.24-12.12,14.24,14.24,0,0,1-4.25-15.83,10.7,10.7,0,0,0-3.24-12.12A14.24,14.24,0,0,1,200.8,87l.09-.29a11,11,0,0,0,.66-3.15l.18-4.12-4.12-.06-14.88-.21-14.88-.21-13.25-.57-13.31-.58-8.89-.39c-.19-.5-.4-1-.62-1.45h71.48l.59,1.37a15.61,15.61,0,0,1,.75,2.15,13.49,13.49,0,0,1-.39,8.59,10.68,10.68,0,0,0,3.25,12.11A14.28,14.28,0,0,1,211.7,116a10.7,10.7,0,0,0,3.24,12.11,13.45,13.45,0,0,1,4.63,7.25,12.85,12.85,0,0,1,.12,6.91L218,148.9l6.62-1.77,13.31-3.57,3.86-1-1-3.87L223.92,75.93h48.57m-55.23,97.13,3.87-1,33.54-9,3.86-1-1-3.86-3-11.18-1-3.87-3.86,1-33.54,9-3.86,1,1,3.86,3,11.18,1,3.87m-103-97.13V99.2h19l.51-3.41a38.69,38.69,0,0,0-.86-16.93l4.47,4.77V99.2h9.79A1.79,1.79,0,0,1,149,101v52.08a24.94,24.94,0,1,1-49.87,0V101a1.79,1.79,0,0,1,1.78-1.79h9.88l-.09-4.08L110.55,90l-.16-7.71-.08-3.8-3.79-.12L83,77.6l-27.62-.87v-.8h58.83M124,131.71a1.79,1.79,0,0,1-1.79-1.78V102.78H102.66v50.29a21.36,21.36,0,0,0,42.72,0V102.78H125.81v27.15a1.79,1.79,0,0,1-1.79,1.78m-72.61-109V47a22.55,22.55,0,0,0-9.74-2.51,14.3,14.3,0,0,0-5.88,1.2c-.95.41-5.8,2.55-5.79,5.78s4.5,5.2,5.79,5.79a16.08,16.08,0,0,0,6.8,1.44,23.89,23.89,0,0,0,8.82-1.86V80.61l55,1.73.27,12.86h-5.79A5.78,5.78,0,0,0,95.09,101v52.08a28.94,28.94,0,1,0,57.87,0V101a5.79,5.79,0,0,0-5.79-5.79h-5.79V82.05l-.27-.29,26.63,1.16,29.81.42a8.55,8.55,0,0,1-.56,2.41,18.21,18.21,0,0,0,5.36,20,6.74,6.74,0,0,1,2.13,8,18.21,18.21,0,0,0,5.36,20,6.73,6.73,0,0,1,2.13,7.94,19.81,19.81,0,0,0-1.07,5l-2.39.64a5.79,5.79,0,0,0-4.09,7.09l6,22.36A5.81,5.81,0,0,0,216,181a6,6,0,0,0,1.5-.2l16.75-4.49,18,67.2a28.94,28.94,0,1,0,55.9-15L276.7,111.18A17.33,17.33,0,0,1,289,89.91a17.37,17.37,0,0,1,21.27,12.28l4.38,16.36a5.79,5.79,0,0,0,5.59,4.29,6,6,0,0,0,1.5-.2,5.78,5.78,0,0,0,4.09-7.09L321.42,99.2a29,29,0,0,0-28-21.45,28.42,28.42,0,0,0-7.48,1,28.92,28.92,0,0,0-20.46,35.44L297,231.57a17.36,17.36,0,1,1-33.54,9l-18-67.2,16.79-4.49a5.8,5.8,0,0,0,4.09-7.09l-6-22.36a5.78,5.78,0,0,0-5.59-4.29,5.58,5.58,0,0,0-1.5.2l-5.18,1.38q-7.47-27.46-14.92-54.94l43.41-1.15q-.3-27.78-.58-55.56-57.3-1.15-114.59-1.74-55-.55-110-.58Zm7,49.2V33.15H269V71.93H121.74a6.52,6.52,0,0,1,1.38.38c5.5,2.15,8.41,11.36,6.69,22.89H118.24V72.05l.68-.12Zm165.2,71.34a16.72,16.72,0,0,0-.12-9,17.29,17.29,0,0,0-5.8-9.16,6.74,6.74,0,0,1-2.13-8,18.2,18.2,0,0,0-5.36-20,6.74,6.74,0,0,1-2.13-8,17.32,17.32,0,0,0,.44-10.84,20.35,20.35,0,0,0-.93-2.68q6.1-.15,12.08-.43l17.25,64.4-13.3,3.57ZM124,135.71a5.79,5.79,0,0,0,5.79-5.78V106.78h11.57v46.29a17.36,17.36,0,1,1-34.72,0V106.78h11.57v23.15a5.79,5.79,0,0,0,5.79,5.78Zm96.07,32.45-3-11.18,33.54-9,3,11.18-33.54,9ZM120.38,71.81a9.77,9.77,0,0,0-1.46.12h2.82a8,8,0,0,0-1.36-.12Z"/></svg>