<svg id="Calque_1" data-name="Calque 1" xmlns="http://www.w3.org/2000/svg" viewBox="0 0 350 300"><title>selected</title><path d="M154.79,47l2,1.08h0l0,0C177,58.71,190.87,76,204.48,94.24c21.26,28.52,38,53.38,50.25,81.27-23.4,8.15-46.44,15.23-70.24,15.23a113,113,0,0,1-21.8-2.1l-6.07-1.21.09,6.18q.06,3.42.1,6.83c.07,5.15.14,10.48.25,15.73l.11,4.86,4.86,0,3,0,6.86,0c14.15,0,26.12-.21,36.68-.39,7.81-.13,14.55-.25,20.46-.25,20.72,0,28.72,1.64,31.69,6.5A9.83,9.83,0,0,1,262,230.1L83.75,230a15.56,15.56,0,0,1,6-6.63,15,15,0,0,1,7.09-2l27.05-.2,27.12-.19,5,0-.06-5c-.18-16.64-.54-33.61-.88-50-.82-39.1-1.66-79.44-.34-119m-4.7-8.26c-2.41,58.85.26,118.39.92,177.31l-54.24.39A20.31,20.31,0,0,0,87.29,219c-8.49,4.9-10.12,14.48-10.34,16l190.21.1c.43-5.59-1-8.93-2.15-10.75-4.54-7.42-14.82-8.89-36-8.89-13.88,0-32.45.64-57.14.64l-6.84,0-3,0c-.16-7.5-.23-15-.35-22.52a116.52,116.52,0,0,0,22.78,2.2c25.57,0,50.1-7.85,74.88-16.55a2,2,0,0,0,1.16-2.86c-13.16-31-32-58.2-52-85.08-14-18.75-28.33-36.52-49.33-47.61l-9.07-5Z"/></svg>