<?xml version="1.0" encoding="utf-8"?>
<!-- Generator: Adobe Illustrator 22.1.0, SVG Export Plug-In . SVG Version: 6.00 Build 0)  -->
<svg style="enable-background:new 0 0 500 500;" id="Calque_1" version="1.1" viewBox="0 0 500 500" x="0px"
     xmlns="http://www.w3.org/2000/svg" y="0px" xml:space="preserve">
<style type="text/css">
	.st0{fill:#4FBDD7;}
	.st1{fill:#EAEAEA;}
	.st2{fill:#FFFFFF;}
	.st3{fill:#4FBDD7;stroke:#FFFFFF;stroke-width:5;stroke-miterlimit:10;}
	.st4{fill:#8C8C8C;}
	.st5{fill:#070707;}
	.st6{fill:none;stroke:#FFFFFF;stroke-width:7;stroke-miterlimit:10;}
	.st7{fill:none;stroke:#FFFFFF;stroke-width:10;stroke-miterlimit:10;}
	.st8{fill:#FFFFFF;stroke:#FFFFFF;stroke-width:3;stroke-miterlimit:10;}
	.st9{fill:none;stroke:#FDFFFF;stroke-width:6;stroke-miterlimit:10;}
	.st10{fill:#FAFEFF;}
	.st11{fill:none;stroke:#FFFFFF;stroke-width:2;stroke-miterlimit:10;}
	.st12{fill:#FFFFFF;stroke:#FFFFFF;stroke-width:2;stroke-miterlimit:10;}
	.st13{fill:#4FBDD7;stroke:#FFFFFF;stroke-width:4;stroke-miterlimit:10;}
	.st14{fill:#FFFFFF;stroke:#FFFFFF;stroke-width:4;stroke-miterlimit:10;}
	.st15{fill:none;stroke:#FFFFFF;stroke-miterlimit:10;}
	.st16{fill:#FFFFFF;stroke:#FFFFFF;stroke-width:13;stroke-miterlimit:10;}
	.st17{fill:#4FBDD7;stroke:#FFFFFF;stroke-width:8;stroke-miterlimit:10;}
	.st18{fill:#FFFFFF;stroke:#FFFFFF;stroke-width:0.75;stroke-miterlimit:10;}
	.st19{fill:#FFFFFF;stroke:#FFFFFF;stroke-width:0.5;stroke-miterlimit:10;}
	.st20{fill:#FFFFFF;stroke:#FFFFFF;stroke-width:8;stroke-miterlimit:10;}
	.st21{fill:#FFFFFF;stroke:#FFFFFF;stroke-miterlimit:10;}
	.st22{fill:#FFFFFF;stroke:#FFFFFF;stroke-width:11;stroke-miterlimit:10;}
	.st23{fill:#FFFFFF;stroke:#FFFFFF;stroke-width:6;stroke-miterlimit:10;}
	.st24{fill:#8C8C8C;stroke:#8C8C8C;stroke-width:4;stroke-miterlimit:10;}
	.st25{fill:#FFFFFF;stroke:#FFFFFF;stroke-width:1.05;stroke-miterlimit:10;}
	.st26{fill:none;stroke:#4FBDD7;stroke-width:5;stroke-miterlimit:10;}
	.st27{fill:none;stroke:#FFFFFF;stroke-width:4;stroke-miterlimit:10;}
	.st28{fill:#8C8C8C;stroke:#FFFFFF;stroke-width:4;stroke-miterlimit:10;}
	.st29{fill:#FFFFFF;stroke:#FFFFFF;stroke-width:10;stroke-miterlimit:10;}
	.st30{fill:none;stroke:#4FBDD7;stroke-width:2;stroke-miterlimit:10;}
	.st31{fill-rule:evenodd;clip-rule:evenodd;fill:#FFFFFF;}
	.st32{fill:#FFFFFF;stroke:#FFFFFF;stroke-width:7;stroke-miterlimit:10;}
	.st33{fill:#FFFFFF;stroke:#4FBDD7;stroke-width:7;stroke-miterlimit:10;}
	.st34{fill:none;}
	.st35{font-family:'HelveticaNeue-CondensedBold';}
	.st36{font-size:54px;}
	.st37{fill:#FCFCFC;}
	.st38{fill:#FFFFFF;stroke:#FFFFFF;stroke-width:5;stroke-miterlimit:10;}
	.st39{fill:none;stroke:#FFFFFF;stroke-width:3;stroke-miterlimit:10;}
	.st40{fill:none;stroke:#FFFFFF;stroke-width:8;stroke-miterlimit:10;}
	.st41{fill:none;stroke:#FFFFFF;stroke-width:6;stroke-miterlimit:10;}
	.st42{fill:#FFFFFF;stroke:#4FBDD7;stroke-width:3;stroke-miterlimit:10;}
	.st43{fill:none;stroke:#FFFFFF;stroke-width:0.75;stroke-miterlimit:10;}
	.st44{fill:#4FBDD7;stroke:#FFFFFF;stroke-width:9;stroke-miterlimit:10;}
	.st45{fill:none;stroke:#FFFFFF;stroke-width:9;stroke-miterlimit:10;}
	.st46{fill:none;stroke:#4FBDD7;stroke-width:3;stroke-miterlimit:10;}
</style>
    <rect class="st0" height="500" width="500" y="-1"/>
    <g>
	<rect class="st34" height="144" width="500" x="1" y="362"/>
        <text class="st2 st35 st36" transform="matrix(1 0 0 1 92.1616 400.5557)">Poste à souder</text>
</g>
    <g id="abSmBV.tif">
	<g>
		<path class="st2" d="M148.5,184.5c0.7-5.2,0.8-5.3,6-5.3c2.4,0,4.8,0,7.2,0c5.4,0,5.4,0,6.3,5.5c1.3,0,2.6,0,3.9,0
			c30.2,0,60.4,0,90.6,0c11,0,11.3,0.3,11.3,11.2c0,3.4,0,6.8,0,10.3c5.1,0,10,0.6,14.7-0.2c6.2-1.1,10.2-6.7,10.3-13.1
			c0-3.6,0.2-7.3,0-10.9c-0.2-3.2,1.9-2.8,3.8-2.7c1.8,0,4.1-0.6,3.9,2.6c-0.3,4.7,0.1,9.6-0.6,14.2c-1.6,10.6-10.4,17.8-21.1,18
			c-3.5,0.1-7,0-10.9,0c0,1.7,0,3,0,4.3c0,16.1,0,32.2,0,48.4c0,5.6-1.8,7.3-7.3,7.3c-39.5,0-79,0-118.5,0c-5.6,0-7.3-1.8-7.3-7.3
			c0-24.6,0-49.3,0-73.9C140.6,186.4,141.8,185.2,148.5,184.5z M248.8,206.6c-1.8-6.2-7.6-9.6-13.9-8.5c-6.3,1.1-10.7,7.2-10,14.1
			c0.5,5.7,5.9,10.6,11.7,10.7c6.4,0.2,11.4-3.3,12-8.6c-3.2,0-6.4-0.1-9.5,0c-2.8,0.1-5.1-0.7-5.5-3.8c-0.3-2.2,2.1-3.8,5.4-3.9
			C242.2,206.5,245.4,206.6,248.8,206.6z M163.3,217.3c3.9,0.1,7-2.8,7.2-6.6c0.2-3.9-2.7-7.1-6.5-7.3c-4-0.2-7.3,2.8-7.4,6.7
			C156.6,214.1,159.5,217.2,163.3,217.3z M197.8,210.5c0-3.9-2.9-7-6.7-7c-4-0.1-7.2,3.1-7.1,7c0,3.8,3.1,6.8,7,6.9
			C194.8,217.3,197.8,214.3,197.8,210.5z"/>
        <path class="st2" d="M248.8,206.6c-3.4,0-6.6,0-9.8,0c-3.3,0-5.7,1.6-5.4,3.9c0.4,3.1,2.7,3.9,5.5,3.8c3.2-0.1,6.3,0,9.5,0
			c-0.6,5.3-5.6,8.8-12,8.6c-5.9-0.1-11.2-5-11.7-10.7c-0.6-6.9,3.7-12.9,10-14.1C241.2,196.9,247,200.3,248.8,206.6z"/>
        <path class="st2" d="M163.3,217.3c-3.8-0.1-6.8-3.3-6.7-7.1c0.1-4,3.4-7,7.4-6.7c3.8,0.2,6.7,3.4,6.5,7.3
			C170.4,214.6,167.2,217.5,163.3,217.3z"/>
        <path class="st2" d="M197.8,210.5c0,3.9-3.1,6.9-6.9,6.8c-3.8,0-6.9-3-7-6.9c0-4,3.2-7.1,7.1-7
			C194.9,203.5,197.9,206.6,197.8,210.5z"/>
	</g>
</g>
    <g id="P0Xz2e.tif">
	<g>
		<path class="st2" d="M295.6,128.3c0,18,0,35.9,0,53.9c5.1,0,10.2,0,15.5,0c0-17.9,0-35.8,0-53.9c-0.9-0.1-1.7-0.1-2.6-0.2
			c-0.1-0.3-0.2-0.7-0.2-1.1c0-5-0.1-10,0-15c0.1-6.3,4.3-11.8,10.3-13.6c0.7-0.2,1.5,0.2,2.2,0.3c0.6,0.1,1.2,0.5,1.8,0.4
			c4.8-0.4,9.7-0.9,14.5-1.3c1.8-0.1,2.6-1,2.6-2.8c0-1.7,0-3.5,0-5.2c0-1.6-0.7-2.5-2.3-2.7c-5-0.4-9.9-0.9-14.9-1.3
			c-0.7,0-1.8,0.3-2,0.8c-0.5,1.6-1.8,1.6-3,1.9c-11.1,2.7-19.1,12.9-19.2,24.6c0,4.2,0,8.5,0,12.7c0,0.7,0,1.4,0,2.2
			C297.3,128.2,296.5,128.2,295.6,128.3z M351.3,85.4c-5-1.8-9.7,2-9.6,7.2c0.1,4.5,4.4,7.9,8.7,6.8c5.6-1.3,10.4-4.3,15.4-7
			c0-0.2,0.1-0.5,0.1-0.7C361.1,89.7,356.3,87.2,351.3,85.4z M293.5,130.8c0-1.4-0.4-2.5-1.9-2.6c-1.5,0-2,1.1-2,2.5
			c0,3.6,0,7.1,0,10.7c0,1.4,0.5,2.5,2,2.4c1.4,0,1.9-1.1,1.9-2.4c0-1.8,0-3.6,0-5.4c0,0,0,0,0,0
			C293.4,134.4,293.4,132.6,293.5,130.8z"/>
        <path class="st2" d="M298.3,125.9c0-4.2,0-8.5,0-12.7c0.1-11.7,8-21.9,19.2-24.6c1.2-0.3,2.5-0.3,3-1.9c0.2-0.4,1.3-0.8,2-0.8
			c5,0.4,9.9,0.9,14.9,1.3c1.7,0.1,2.4,1.1,2.3,2.7c0,1.7,0,3.5,0,5.2c0,1.8-0.8,2.7-2.6,2.8c-4.8,0.4-9.7,0.9-14.5,1.3
			c-0.6,0-1.2-0.3-1.8-0.4c-0.7-0.1-1.6-0.5-2.2-0.3c-6,1.8-10.2,7.3-10.3,13.6c-0.1,5,0,10,0,15c0,0.4,0.1,0.7,0.2,1.1
			c0.9,0.1,1.7,0.1,2.6,0.2c0,18,0,35.9,0,53.9c-5.2,0-10.4,0-15.5,0c0-18,0-35.9,0-53.9c1-0.1,1.8-0.1,2.8-0.2
			C298.3,127.3,298.3,126.6,298.3,125.9z M304.1,128.1c0.1-0.4,0.2-0.7,0.2-1c0-4.8,0-9.6,0-14.4c0.1-9.2,5.6-16.1,14.5-18.4
			c1.2-0.3,1.5-0.8,1-2.2c-1.7,0.6-3.4,0.9-5,1.7c-7.3,3.6-11.8,9.4-12.3,17.7c-0.4,5.5-0.1,11-0.1,16.7
			C303.1,128.1,303.6,128.1,304.1,128.1z M324.1,95.1c3.6-0.3,7.2-0.6,10.8-1c0.3,0,0.8-1.2,0.8-1.8c0-0.5-0.6-1.3-1.1-1.3
			c-3.4-0.4-6.9-0.6-10.5-0.9C324.1,91.8,324.1,93.3,324.1,95.1z"/>
        <path class="st2" d="M365.9,92.5c-5,2.6-9.8,5.7-15.4,7c-4.4,1-8.6-2.4-8.7-6.8c-0.2-5.2,4.5-9,9.6-7.2c5,1.8,9.8,4.2,14.7,6.4
			C366,92.1,365.9,92.3,365.9,92.5z M350.3,89.2c-1.6-0.6-3.1-0.2-4.1,1.3c-0.8,1.2-0.9,2.5,0,3.8c1,1.4,2.4,1.9,4,1.3
			c2.5-0.9,4.9-1.9,7.4-2.9c0-0.2,0-0.4-0.1-0.6C355.1,91.1,352.7,90.1,350.3,89.2z"/>
        <path class="st2" d="M293.4,136.2c0-1.8,0-3.6,0-5.4c0-1.4-0.4-2.5-1.9-2.6c-1.5,0-2,1.1-2,2.5c0,3.6,0,7.1,0,10.7
			c0,1.4,0.5,2.5,2,2.4c1.4,0,1.9-1.1,1.9-2.4C293.4,139.8,293.4,138,293.4,136.2C293.4,136.2,293.4,136.2,293.4,136.2z"/>
        <path class="st2" d="M324.1,90.1c0,1.7,0,3.2,0,5c3.6-0.3,7.2-0.6,10.8-1c0.3,0,0.8-1.2,0.8-1.8c0-0.5-0.6-1.3-1.1-1.3
			C331.2,90.6,327.7,90.4,324.1,90.1z"/>
        <path class="st2" d="M357.5,92c-2.4-1-4.8-2-7.3-2.9c-1.6-0.6-3.1-0.2-4.1,1.3c-0.8,1.2-0.9,2.5,0,3.8c1,1.4,2.4,1.9,4,1.3
			c2.5-0.9,4.9-1.9,7.4-2.9C357.6,92.4,357.6,92.2,357.5,92z"/>
	</g>
</g>
</svg>
