<svg id="Calque_1" data-name="Calque 1" xmlns="http://www.w3.org/2000/svg" viewBox="0 0 350 300"><title>selected</title><g id="abSmBV.tif"><path d="M77.84,123.18h4c.07.43.15.9.23,1.35l.69,4.18h98.76a49.9,49.9,0,0,1,6.11.23,49.61,49.61,0,0,1,.22,5.95v13.33h0v23.73q0,17,0,33.95a9.32,9.32,0,0,1-.18,2.17,9.63,9.63,0,0,1-2.13.18H67a9.1,9.1,0,0,1-2.17-.19,8.86,8.86,0,0,1-.18-2.11q0-29.79,0-59.58V132a17.85,17.85,0,0,1,.18-3.07,19.13,19.13,0,0,1,3.2-.5l3.93-.39.53-3.92c0-.28.08-.63.13-1h5.23m78.07,43.66c8.83,0,15.64-5.35,16.57-13l.4-3.27h1.49l-1.78-6.36a16.85,16.85,0,0,0-16.38-12.39,18.76,18.76,0,0,0-3.24.29c-8.92,1.57-15,9.92-14.16,19.43.73,8.24,8.16,15.1,16.57,15.3h.53M82.6,161.33a11.95,11.95,0,0,0,.74-23.87c-.24,0-.48,0-.71,0a11.94,11.94,0,0,0-.47,23.88h.44m27.32,0h0a11.94,11.94,0,0,0,.27-23.88h-.26a11.94,11.94,0,1,0,0,23.88h0M77.84,118.18H73.49c-5.17,0-5.26.09-6,5.31-6.76.67-7.87,1.91-7.88,8.55q0,36.94,0,73.9c0,5.53,1.78,7.3,7.35,7.3H185.5c5.53,0,7.31-1.79,7.31-7.34q0-24.18,0-48.36v-4.33l7,0c1.32,0,2.62,0,3.91,0,10.74-.17,19.53-7.44,21.14-18,.71-4.67.36-9.49.62-14.23.14-2.36-1-2.65-2.33-2.65l-1.39,0h-.18c-.43,0-.88,0-1.3,0-1.44,0-2.64.32-2.52,2.77.18,3.62.08,7.26,0,10.89-.08,6.32-4.06,12-10.3,13.07a32.12,32.12,0,0,1-5.49.4c-3,0-6.06-.24-9.19-.24,0-3.55,0-6.94,0-10.33,0-10.82-.35-11.16-11.33-11.17H87c-.92-5.52-.92-5.52-6.32-5.53Zm78.07,43.66h-.41c-5.86-.14-11.2-5-11.71-10.74-.62-6.91,3.7-13,10.05-14.07a13.73,13.73,0,0,1,2.37-.21,11.74,11.74,0,0,1,11.56,8.75l-6.05,0-3.78,0c-3.35,0-5.71,1.62-5.42,3.86.39,3,2.49,3.82,5.15,3.82H158c1.25,0,2.49,0,3.74,0l5.79,0c-.63,5.21-5.38,8.61-11.61,8.61ZM82.6,156.33h-.26a6.94,6.94,0,0,1,.29-13.88h.42a6.95,6.95,0,0,1-.45,13.88Zm27.32,0h0a6.94,6.94,0,1,1,0-13.88h.15a6.94,6.94,0,0,1-.16,13.88Z"/><path d="M156.21,136.81a13.73,13.73,0,0,0-2.37.21c-6.35,1.12-10.67,7.16-10.05,14.07.51,5.7,5.85,10.6,11.71,10.74h.41c6.23,0,11-3.4,11.61-8.61l-5.79,0c-1.25,0-2.49,0-3.74,0h-.32c-2.66,0-4.76-.86-5.15-3.82-.29-2.24,2.07-3.82,5.42-3.86l3.78,0,6.05,0a11.74,11.74,0,0,0-11.56-8.75Z"/><path d="M82.63,147.44h.14a1.95,1.95,0,0,1-.17,3.89h-.08a1.85,1.85,0,0,1-1.85-2,1.89,1.89,0,0,1,2-1.88m0-5a6.94,6.94,0,0,0-.29,13.88h.26a6.95,6.95,0,0,0,.45-13.88Z"/><path d="M109.93,142.44a6.94,6.94,0,1,0,0,13.88h0a6.94,6.94,0,0,0,.16-13.88Z"/></g><g id="P0Xz2e.tif"><path d="M267.76,29a2.46,2.46,0,0,1,.86.16c1.91.67,3.78,1.45,5.68,2.29a30.46,30.46,0,0,1-6,2.19,1.51,1.51,0,0,1-.42,0,2.27,2.27,0,0,1-2.16-2.18,2.59,2.59,0,0,1,.67-1.91,1.89,1.89,0,0,1,1.39-.6m-25.09,1.11c2.75.21,5.53.46,8.23.71l2.8.25v1l-5.79.52-6.11.53a9.64,9.64,0,0,0-1.1-.28l-.3-.08a9.61,9.61,0,0,0-2.41-.36l.09,0a8.39,8.39,0,0,0,4.59-2.32m-20.32,37.1c.05.31.11.56.15.75l0,.08.7,3.76,1.85.15v44.24h-5.49V72l2.77-.16V67.21M267.76,24a7.19,7.19,0,0,0-7.06,7.67,7.28,7.28,0,0,0,7.16,7,6.61,6.61,0,0,0,1.58-.18c5.59-1.32,10.44-4.34,15.44-7l.12-.71c-4.9-2.15-9.69-4.61-14.72-6.38a7.56,7.56,0,0,0-2.52-.44Zm-26.4,1c-.66,0-1.69.37-1.84.79-.53,1.57-1.79,1.56-3,1.86a25.46,25.46,0,0,0-19.17,24.62c0,4.22,0,8.45,0,12.67v2.19l-2.77.15v53.91h15.49V67.34l-2.63-.22a5.91,5.91,0,0,1-.19-1.05c0-5-.06-10,0-15A14.44,14.44,0,0,1,237.55,37.5a1.54,1.54,0,0,1,.43,0,10.48,10.48,0,0,1,1.79.35,10.09,10.09,0,0,0,1.71.41h.11c4.85-.38,9.69-.88,14.54-1.25,1.84-.15,2.64-1,2.6-2.81s0-3.46,0-5.19a2.28,2.28,0,0,0-2.32-2.66c-5-.43-9.95-.92-14.92-1.29ZM210.47,67.28c-1.44,0-2,1.09-2,2.48q0,5.35,0,10.7c0,1.39.51,2.45,2,2.45h0c1.45,0,1.91-1,1.9-2.36V75.2h0c0-1.79,0-3.57,0-5.36,0-1.37-.43-2.53-1.93-2.56Z"/><path d="M225.07,72.12v44.07h-5.49V72.12h5.49M241.36,25c-.66,0-1.69.37-1.84.79-.53,1.57-1.79,1.56-3,1.86a25.46,25.46,0,0,0-19.17,24.62c0,4.22,0,8.45,0,12.67v2.19l-2.77.15v53.91h15.49V67.34l-2.63-.22a5.91,5.91,0,0,1-.19-1.05c0-5-.06-10,0-15A14.44,14.44,0,0,1,237.55,37.5a1.54,1.54,0,0,1,.43,0,10.48,10.48,0,0,1,1.79.35,10.09,10.09,0,0,0,1.71.41h.11c4.85-.38,9.69-.88,14.54-1.25,1.84-.15,2.64-1,2.6-2.81s0-3.46,0-5.19a2.28,2.28,0,0,0-2.32-2.66c-5-.43-9.95-.92-14.92-1.29Zm1.71,9.11v-5c3.67.3,7.11.54,10.54.93.42,0,1,.85,1.06,1.33s-.43,1.72-.77,1.76c-3.58.43-7.18.69-10.83,1Zm-21.66,33c0-5.67-.29-11.18.07-16.65.54-8.23,5-14,12.3-17.66a38.69,38.69,0,0,1,5-1.68c.47,1.41.19,1.93-1,2.23-8.9,2.32-14.32,9.23-14.46,18.4-.07,4.8,0,9.59,0,14.39a6.31,6.31,0,0,1-.16,1Z"/><path d="M267.76,24a7.19,7.19,0,0,0-7.06,7.67,7.28,7.28,0,0,0,7.16,7,7.16,7.16,0,0,0,1.58-.18c5.59-1.32,10.44-4.34,15.44-7l.12-.71c-4.9-2.15-9.69-4.61-14.72-6.38a7.56,7.56,0,0,0-2.52-.44Zm.1,10.78a3.25,3.25,0,0,1-2.68-1.56,3.12,3.12,0,0,1,0-3.78,3.21,3.21,0,0,1,2.69-1.54,4.09,4.09,0,0,1,1.37.26c2.45.9,4.85,1.91,7.27,2.88,0,.19.05.38.07.57-2.47,1-4.92,2-7.4,2.91a3.66,3.66,0,0,1-1.34.26Z"/><path d="M210.47,67.28c-1.44,0-2,1.09-2,2.48q0,5.35,0,10.7c0,1.39.52,2.45,2,2.45h0c1.45,0,1.91-1,1.9-2.36V75.2h0c0-1.79,0-3.57,0-5.36,0-1.37-.43-2.53-1.93-2.56Z"/><path d="M243.07,29.09v5c3.65-.31,7.25-.57,10.83-1,.34,0,.79-1.16.77-1.76S254,30.06,253.61,30c-3.43-.39-6.87-.63-10.54-.93Z"/><path d="M267.89,27.9a3.21,3.21,0,0,0-2.69,1.54,3.12,3.12,0,0,0,0,3.78,3.25,3.25,0,0,0,2.68,1.56,3.66,3.66,0,0,0,1.34-.26c2.48-.94,4.93-1.94,7.4-2.91,0-.19,0-.38-.07-.57-2.42-1-4.82-2-7.27-2.88a4.09,4.09,0,0,0-1.37-.26Z"/></g></svg>