<svg id="Calque_1" data-name="Calque 1" xmlns="http://www.w3.org/2000/svg" viewBox="0 0 350 300"><title>selected</title><path d="M120,43.55c1.6,0,3.23.12,4.84.25H268.43A20.6,20.6,0,0,1,289,64.38V238.25a20.6,20.6,0,0,1-20.57,20.57H94.55A20.6,20.6,0,0,1,74,238.25V64.38A20.6,20.6,0,0,1,94.55,43.81H120v-.26m-25.49,215H268.43a20.36,20.36,0,0,0,20.34-20.34V64.38A20.36,20.36,0,0,0,268.43,44H94.55A20.36,20.36,0,0,0,74.21,64.38V238.25a20.36,20.36,0,0,0,20.34,20.34M117.72,38.52c-.92,0-1.81,0-2.68,0v.26H94.55A25.6,25.6,0,0,0,69,64.38V238.25a25.6,25.6,0,0,0,25.57,25.57H268.43A25.6,25.6,0,0,0,294,238.25V64.38a25.6,25.6,0,0,0-25.57-25.57H125.26c-1.62-.13-3.33-.22-5.11-.26l-2.43,0ZM94.55,253.59a15.36,15.36,0,0,1-15.34-15.34V64.38A15.36,15.36,0,0,1,94.55,49H268.43a15.36,15.36,0,0,1,15.34,15.34V238.25a15.36,15.36,0,0,1-15.34,15.34Z"/><path d="M181.49,74.5a76.82,76.82,0,1,1-76.81,76.81A76.9,76.9,0,0,1,181.49,74.5m0,153.4a76.59,76.59,0,1,0-76.59-76.59,76.68,76.68,0,0,0,76.59,76.59m0-158.4a81.82,81.82,0,1,0,81.82,81.81A81.9,81.9,0,0,0,181.49,69.5Zm0,153.4a71.59,71.59,0,1,1,71.59-71.59,71.67,71.67,0,0,1-71.59,71.59Z"/><path d="M181.49,89.84A61.48,61.48,0,1,1,120,151.31a61.55,61.55,0,0,1,61.47-61.47m0,122.72a61.25,61.25,0,1,0-61.25-61.25,61.32,61.32,0,0,0,61.25,61.25m0-127.72A66.48,66.48,0,1,0,248,151.31a66.55,66.55,0,0,0-66.48-66.47Zm0,122.72a56.25,56.25,0,1,1,56.25-56.25,56.32,56.32,0,0,1-56.25,56.25Z"/><path d="M181.49,123.72a.12.12,0,0,1,.12.11.13.13,0,0,1-.12.12.12.12,0,0,1-.11-.12.11.11,0,0,1,.11-.11M155.92,141a10.34,10.34,0,1,1-10.34,10.34A10.35,10.35,0,0,1,155.92,141m0,20.45a10.12,10.12,0,1,0-10.11-10.11,10.12,10.12,0,0,0,10.11,10.11m25.57-42.71a5.12,5.12,0,1,0,5.12,5.11,5.11,5.11,0,0,0-5.12-5.11ZM155.92,136a15.34,15.34,0,1,0,15.34,15.34A15.36,15.36,0,0,0,155.92,136Zm0,20.45a5.12,5.12,0,1,1,5.12-5.11,5.11,5.11,0,0,1-5.12,5.11Z"/><path d="M207.06,141a10.34,10.34,0,1,1-10.34,10.34A10.35,10.35,0,0,1,207.06,141m0,20.45A10.12,10.12,0,1,0,197,151.32a10.11,10.11,0,0,0,10.11,10.11m0-25.45a15.34,15.34,0,1,0,15.34,15.34A15.36,15.36,0,0,0,207.06,136Zm0,20.45a5.12,5.12,0,1,1,5.11-5.11,5.11,5.11,0,0,1-5.11,5.11Z"/></svg>