<?xml version="1.0" encoding="utf-8"?>
<!-- Generator: Adobe Illustrator 22.1.0, SVG Export Plug-In . SVG Version: 6.00 Build 0)  -->
<svg style="enable-background:new 0 0 500 500;" id="Calque_1" version="1.1" viewBox="0 0 500 500" x="0px"
     xmlns="http://www.w3.org/2000/svg" y="0px" xml:space="preserve">
<style type="text/css">
	.st0{fill:#EAEAEA;}
	.st1{fill:#8C8C8C;}
	.st2{fill:none;}
	.st3{fill:#6B6B6B;}
	.st4{font-family:'HelveticaNeue-CondensedBold';}
	.st5{font-size:54px;}
	.st6{fill:#FFFFFF;}
	.st7{fill:#EAEAEA;stroke:#8C8C8C;stroke-width:7;stroke-miterlimit:10;}
	.st8{fill:#070707;}
	.st9{fill:none;stroke:#8C8C8C;stroke-width:7;stroke-miterlimit:10;}
	.st10{fill:none;stroke:#8C8C8C;stroke-width:10;stroke-miterlimit:10;}
	.st11{fill:#8C8C8C;stroke:#8C8C8C;stroke-width:3;stroke-miterlimit:10;}
	.st12{fill:none;stroke:#8C8C8C;stroke-width:8;stroke-miterlimit:10;}
	.st13{fill:none;stroke:#8E8E8E;stroke-width:6;stroke-miterlimit:10;}
	.st14{fill:#8E8E8E;}
	.st15{fill:#505050;}
	.st16{fill:none;stroke:#8E8E8E;stroke-width:2;stroke-miterlimit:10;}
	.st17{fill:#8C8C8C;stroke:#8C8C8C;stroke-width:2;stroke-miterlimit:10;}
	.st18{fill:#8C8C8C;stroke:#FFFFFF;stroke-width:2;stroke-miterlimit:10;}
	.st19{fill:none;stroke:#FFFFFF;stroke-width:2;stroke-miterlimit:10;}
	.st20{fill:none;stroke:#8C8C8C;stroke-miterlimit:10;}
	.st21{fill:none;stroke:#8C8C8C;stroke-width:13;stroke-miterlimit:10;}
	.st22{fill:#EAEAEA;stroke:#8C8C8C;stroke-width:8;stroke-miterlimit:10;}
	.st23{fill:none;stroke:#8C8C8C;stroke-width:4;stroke-miterlimit:10;}
	.st24{fill:#8C8C8C;stroke:#8C8C8C;stroke-width:0.75;stroke-miterlimit:10;}
	.st25{fill:none;stroke:#8C8C8C;stroke-width:9;stroke-miterlimit:10;}
	.st26{fill:#8C8C8C;stroke:#8C8C8C;stroke-width:0.5;stroke-miterlimit:10;}
	.st27{stroke:#8C8C8C;stroke-width:8;stroke-miterlimit:10;}
	.st28{fill:#8C8C8C;stroke:#8C8C8C;stroke-miterlimit:10;}
	.st29{fill:none;stroke:#8C8C8C;stroke-width:11;stroke-miterlimit:10;}
	.st30{fill:none;stroke:#8C8C8C;stroke-width:6;stroke-miterlimit:10;}
	.st31{stroke:#8C8C8C;stroke-width:6;stroke-miterlimit:10;}
	.st32{fill:#8C8C8C;stroke:#8C8C8C;stroke-width:4;stroke-miterlimit:10;}
	.st33{fill:#8C8C8C;stroke:#8C8C8C;stroke-width:1.05;stroke-miterlimit:10;}
	.st34{fill:#D6D6D6;}
	.st35{fill:none;stroke:#EAEAEA;stroke-width:5;stroke-miterlimit:10;}
	.st36{fill:#8C8C8C;stroke:#8C8C8C;stroke-width:10;stroke-miterlimit:10;}
	.st37{fill:none;stroke:#CECECE;stroke-width:2;stroke-miterlimit:10;}
	.st38{fill:none;stroke:#FFFFFF;stroke-width:4;stroke-miterlimit:10;}
	.st39{fill-rule:evenodd;clip-rule:evenodd;fill:#8C8C8C;}
	.st40{fill:#8C8C8C;stroke:#8C8C8C;stroke-width:8;stroke-miterlimit:10;}
	.st41{fill:#8C8C8C;stroke:#8C8C8C;stroke-width:7;stroke-miterlimit:10;}
	.st42{fill:#DBDBDB;stroke:#8C8C8C;stroke-width:7;stroke-miterlimit:10;}
	.st43{fill:none;stroke:#8C8C8C;stroke-width:5;stroke-miterlimit:10;}
	.st44{fill:none;stroke:#8C8C8C;stroke-width:3;stroke-miterlimit:10;}
	.st45{clip-path:url(#SVGID_2_);fill:#8C8C8C;}
	.st46{clip-path:url(#SVGID_2_);fill:none;stroke:#8C8C8C;stroke-width:8;stroke-miterlimit:10;}
	.st47{clip-path:url(#SVGID_2_);fill:#FFFFFF;}
	.st48{clip-path:url(#SVGID_2_);fill:#EAEAEA;}
	.st49{clip-path:url(#SVGID_2_);fill:none;stroke:#8C8C8C;stroke-miterlimit:10;}
	.st50{fill:none;stroke:#FFFFFF;stroke-width:0.75;stroke-miterlimit:10;}
	.st51{fill:none;stroke:#8C8C8C;stroke-width:14;stroke-miterlimit:10;}
	.st52{fill:none;stroke:#EAEAEA;stroke-width:2;stroke-miterlimit:10;}
	.st53{fill:none;stroke:#8C8C8C;stroke-width:2;stroke-miterlimit:10;}
</style>
    <rect class="st0" height="500" width="500" x="-1" y="-1"/>
    <g>
	<rect class="st2" height="144" width="500" x="-1" y="360"/>
        <text transform="matrix(1 0 0 1 57.1406 398.5557)"><tspan class="st3 st4 st5" x="0" y="0">Produits entretien </tspan>
            <tspan class="st3 st4 st5" x="116.9" y="64.8">du cuir</tspan></text>
</g>
    <path class="st1" d="M208.1,158.9c0-1.9-1.6-3.5-3.5-3.5l-69.5,0c-1.9,0-3.5,1.6-3.5,3.5l0,93.9c0,1.9,1.6,3.5,3.5,3.5l69.5,0
	c1.9,0,3.5-1.6,3.5-3.5L208.1,158.9z M201.1,249.3l-62.6,0l0-86.9l62.6,0L201.1,249.3z"/>
    <path class="st1" d="M197.6,110.5l0-31.5c0-1.9-1.6-3.5-3.5-3.5l-48.7,0c-1.9,0-3.5,1.6-3.5,3.5l0,31.5c-15.6,1.7-27.8,15-27.8,31.1
	l0,38c0,0.1-0.1,0.2-0.1,0.3c0,0.1,0.1,0.2,0.1,0.3l0,100.5c0,9.6,7.8,17.4,17.4,17.4l76.5,0c9.6,0,17.4-7.8,17.4-17.4l0-139.1v0
	C225.4,125.5,213.3,112.2,197.6,110.5 M149,82.5l41.7,0l0,6.9l-13.9,0c-1.9,0-3.5,1.6-3.5,3.5c0,1.9-1.6,3.5-3.5,3.5
	c-1.9,0-3.5-1.6-3.5-3.5v0c0-0.3-0.1-0.6-0.2-0.9c0-0.2,0-0.3-0.1-0.5c0-0.1-0.1-0.1-0.1-0.2c-0.6-1.1-1.7-1.9-3.1-1.9h0l-13.9,0
	L149,82.5z M149,96.4l11.1,0c1.4,4,5.3,6.9,9.8,6.9c4.5,0,8.3-2.9,9.8-7l11.1,0l0,13.9l-41.7,0L149,96.4z M218.5,280.6
	c0,5.7-4.7,10.4-10.4,10.4l-76.5,0c-5.7,0-10.4-4.7-10.4-10.4l0-139.1c0-13.4,10.9-24.3,24.3-24.3l48.7,0
	c13.4,0,24.3,10.9,24.3,24.3L218.5,280.6z"/>
    <g>
	<path class="st1" d="M346.8,118.2h-3.5c-1.7-18.4-17.2-32.9-36-32.9V82h6.6c1.8,0,3.3-1.5,3.3-3.3V59c0-1.8-1.5-3.3-3.3-3.3h-19.7
		c-1.8,0-3.3,1.5-3.3,3.3v19.7c0,1.8,1.5,3.3,3.3,3.3h6.6v3.3c-18.8,0-34.3,14.5-36,32.9h-3.5c-1.8,0-3.3,1.5-3.3,3.3v115.1
		c0,1.8,1.5,3.3,3.3,3.3h85.5c1.8,0,3.3-1.5,3.3-3.3v-26.3v-62.5v-26.3C350.1,119.6,348.7,118.2,346.8,118.2z M297.5,62.3h13.2v3.3
		h-3.3c-1.8,0-3.3,1.5-3.3,3.3c0,1.8,1.5,3.3,3.3,3.3h3.3v3.3h-13.2V62.3z M300.8,91.9h6.6c15.2,0,27.8,11.5,29.4,26.3h-65.4
		C273,103.4,285.6,91.9,300.8,91.9z M264.6,233.3V124.7h3.3h72.4h3.3v19.7h-49.3c-1.8,0-3.3,1.5-3.3,3.3v62.5c0,1.8,1.5,3.3,3.3,3.3
		h49.3v19.7H264.6z"/>
        <path class="st1" d="M327.1,72.1h3.3c1.8,0,3.3-1.5,3.3-3.3s-1.5-3.3-3.3-3.3h-3.3c-1.8,0-3.3,1.5-3.3,3.3
		C323.8,70.6,325.3,72.1,327.1,72.1z"/>
        <path class="st1" d="M343.6,65.5h-3.3c-1.8,0-3.3,1.5-3.3,3.3c0,1.8,1.5,3.3,3.3,3.3h3.3c1.8,0,3.3-1.5,3.3-3.3
		S345.4,65.5,343.6,65.5z"/>
        <path class="st1" d="M356.7,65.5h-3.3c-1.8,0-3.3,1.5-3.3,3.3c0,1.8,1.5,3.3,3.3,3.3h3.3c1.8,0,3.3-1.5,3.3-3.3
		S358.5,65.5,356.7,65.5z"/>
        <path class="st1" d="M339.6,58.1c0.3,0,0.7-0.1,1-0.2l3.1-1c1.7-0.6,2.7-2.4,2.1-4.2c-0.6-1.7-2.4-2.7-4.2-2.1l-3.1,1
		c-1.7,0.6-2.7,2.4-2.1,4.2C336.9,57.2,338.2,58.1,339.6,58.1z"/>
        <path class="st1" d="M327.1,62.3c0.3,0,0.7-0.1,1-0.2l3.1-1c1.7-0.6,2.7-2.4,2.1-4.2c-0.6-1.7-2.4-2.7-4.2-2.1l-3.1,1
		c-1.7,0.6-2.7,2.4-2.1,4.2C324.4,61.4,325.7,62.3,327.1,62.3z"/>
        <path class="st1" d="M352.1,53.9c0.3,0,0.7-0.1,1-0.2l3.1-1c1.7-0.6,2.7-2.4,2.1-4.2c-0.6-1.7-2.4-2.6-4.2-2.1l-3.1,1
		c-1.7,0.6-2.7,2.4-2.1,4.2C349.4,53.1,350.7,53.9,352.1,53.9z"/>
        <path class="st1" d="M338.5,86l3.1,1c0.3,0.1,0.7,0.2,1,0.2c1.4,0,2.7-0.9,3.1-2.2c0.6-1.7-0.4-3.6-2.1-4.2l-3.1-1
		c-1.7-0.6-3.6,0.4-4.2,2.1C335.9,83.5,336.8,85.4,338.5,86z"/>
        <path class="st1" d="M356.2,84.9l-3.1-1c-1.7-0.6-3.6,0.4-4.2,2.1c-0.6,1.7,0.4,3.6,2.1,4.2l3.1,1c0.3,0.1,0.7,0.2,1,0.2
		c1.4,0,2.7-0.9,3.1-2.3C358.9,87.4,358,85.5,356.2,84.9z"/>
        <path class="st1" d="M331.3,76.6l-3.1-1c-1.7-0.6-3.6,0.4-4.2,2.1s0.4,3.6,2.1,4.2l3.1,1c0.3,0.1,0.7,0.2,1,0.2
		c1.4,0,2.7-0.9,3.1-2.2C333.9,79.1,333,77.2,331.3,76.6z"/>
</g>
    <rect class="st1" height="153.4" width="92" x="258" y="144.6"/>
    <g id="Zu4njG.tif">
	<g>
		<path class="st53" d="M188,198.9c-1,0.6-2,1.2-2.9,1.9c-1.5,1.1-2.6,2.5-3.6,4c-0.8,1.4-1.3,2.8-1.6,4.3c-0.3,1.8-0.3,3.5,0,5.3
			c0.5,2.1,1.4,3.9,2.7,5.5c1.3,1.5,2.9,2.6,4.7,3.4c0.5,0.2,0.5,0.2,0.2,0.8c-1.2,2.1-2.3,4.2-3.5,6.2c0,0,0,0.1-0.1,0.1
			c-0.4-0.1-0.8-0.2-1.2-0.4c-2.1-0.6-4.2-1-6.4-0.8c-2.3,0.2-4.4,0.9-6.3,2.3c-0.5,0.4-1,0.9-1.5,1.4c-0.2,0.2-0.3,0.2-0.5,0
			c-0.7-0.6-1.5-1.3-2.2-1.9c-1.4-1-3.1-1.5-4.8-1.7c-2.2-0.3-4.3,0-6.4,0.5c-0.6,0.2-1.3,0.4-2,0.6c-0.4-0.8-0.9-1.6-1.4-2.4
			c-0.7-1.3-1.5-2.7-2.2-4.1c-0.3-0.5-0.3-0.5,0.2-0.7c1.1-0.5,2.1-1.1,3.1-1.9c1.7-1.4,3-3.1,3.8-5.2c0.7-1.9,1-3.8,0.8-5.8
			c-0.3-3.8-2-6.9-4.9-9.4c-1-0.8-2-1.5-3.2-2c-0.2-0.1-0.2-0.2-0.2-0.4c0.4-1.5,0.7-3.1,1.1-4.6c0.1-0.4,0.2-0.9,0.3-1.3
			c0.1-0.3,0.2-0.4,0.4-0.3c1.4,0.2,2.8,0.2,4.2-0.1c1.3-0.2,2.5-0.6,3.7-1.2c1.6-0.8,2.9-1.8,4.1-3.1c0.4-0.4,0.7-0.9,1.1-1.4
			c0.1-0.2,0.3-0.3,0.5-0.3c2.8,0,5.7,0,8.5,0c0.3,0,0.5,0.1,0.7,0.4c1.1,1.6,2.4,2.8,4.1,3.8c2.2,1.4,4.7,2,7.3,2
			c0.5,0,1.1-0.1,1.6-0.1c0.2,0,0.3,0,0.4,0.3c0.3,1.4,0.7,2.9,1,4.3C187.7,197.8,187.9,198.4,188,198.9z M187,224
			c-0.1-0.1-0.1-0.1-0.2-0.1c-2.2-1-4-2.5-5.4-4.4c-0.9-1.3-1.6-2.6-1.9-4.1c-0.2-1-0.5-2.1-0.5-3.2c0-1,0.1-2,0.3-3
			c0.2-1.4,0.7-2.7,1.3-3.9c1.4-2.8,3.6-4.9,6.4-6.3c0.3-0.1,0.3-0.3,0.3-0.6c-0.4-1.6-0.8-3.3-1.2-4.9c-0.1-0.2-0.1-0.3-0.4-0.3
			c-0.2,0-0.3,0-0.5,0c-1.6,0.1-3.1,0-4.6-0.4c-2.3-0.6-4.4-1.8-6.1-3.5c-0.6-0.6-1.1-1.2-1.6-1.8c-0.2-0.3-0.5-0.5-0.9-0.4
			c-2.6,0-5.1,0-7.7,0c-0.3,0-0.5,0.1-0.6,0.3c-1.3,1.9-3,3.4-5.1,4.4c-1.7,0.9-3.6,1.4-5.5,1.5c-0.7,0-1.5,0-2.2,0
			c-0.3,0-0.4,0-0.4,0.3c-0.1,0.4-0.2,0.8-0.3,1.1c-0.3,1.2-0.6,2.5-0.9,3.7c-0.1,0.3,0,0.4,0.3,0.5c2.3,1.2,4.2,2.9,5.6,5
			c0.9,1.3,1.4,2.7,1.9,4.2c0.4,1.3,0.4,2.6,0.5,4c0,0.7-0.2,1.4-0.3,2.1c-0.2,1.5-0.8,2.9-1.5,4.2c-1.4,2.4-3.4,4.1-5.9,5.3
			c-0.3,0.1-0.3,0.3-0.1,0.5c0.9,1.6,1.8,3.2,2.7,4.8c0.5,0.9,0.5,0.9,1.4,0.6c0.1,0,0.3-0.1,0.4-0.1c2.6-0.7,5.2-1,7.9-0.4
			c2.3,0.5,4.3,1.5,6,3.1c0.2,0.2,0.3,0.2,0.5,0c0.5-0.4,1-0.9,1.5-1.3c2.2-1.5,4.6-2.2,7.3-2.2c2,0,4,0.3,6,1
			c0.4,0.1,0.5,0,0.7-0.3c0.9-1.6,1.8-3.2,2.7-4.9C186.8,224.5,186.9,224.2,187,224z"/>
        <path class="st53" d="M159.6,210.4c-0.2-0.2-0.3-0.6-0.4-0.5c-0.3,0-0.2,0.3-0.2,0.5c0,0,0,0,0,0c0.1,0.1,0.2,0.2,0.2,0.3
			C159.4,210.6,159.5,210.5,159.6,210.4z M159.6,212.1C159.6,212,159.6,212,159.6,212.1c-0.1-0.1-0.1-0.2-0.1-0.3
			c-0.1-0.1-0.1-0.2-0.2-0.3c-0.1,0.1-0.2,0.2-0.2,0.3c0,0,0,0.1,0,0.2c0,0.2,0,0.4,0.2,0.4C159.4,212.4,159.5,212.2,159.6,212.1z
			 M168.3,189.2c0.2-0.1,0.3-0.2,0.4-0.3c-0.2-0.1-0.3-0.2-0.5-0.2c-0.1,0-0.3,0.1-0.4,0.2C168,188.9,168.1,189,168.3,189.2z
			 M166.5,189.1c0.2-0.1,0.3-0.2,0.5-0.3c-0.1-0.1-0.2-0.2-0.4-0.2c-0.2,0-0.5-0.1-0.5,0.2C166.2,188.9,166.4,189,166.5,189.1z
			 M177,211.9c0.1,0.2,0.2,0.4,0.3,0.4c0.2,0,0.3-0.2,0.3-0.4c0-0.2,0-0.5-0.2-0.4C177.2,211.5,177.1,211.8,177,211.9z M156.2,201.9
			c-0.1,0.1-0.2,0.2-0.2,0.2c0,0.1,0,0.3,0.1,0.4c0.1,0.1,0.2,0.2,0.4,0.2c0,0,0.2-0.1,0.2-0.1C156.5,202.4,156.4,202.2,156.2,201.9
			z M153.9,199.4c-0.1,0.2-0.2,0.3-0.2,0.3c0.2,0.2,0.3,0.4,0.5,0.5c0.1-0.1,0.2-0.2,0.2-0.2C154.3,199.8,154.1,199.6,153.9,199.4z
			 M170,189.1c0.2-0.1,0.4-0.2,0.4-0.3c0-0.3-0.2-0.2-0.4-0.2c-0.2,0-0.4,0-0.4,0.2C169.6,188.9,169.8,189,170,189.1z M171.5,188.6
			c0,0-0.1,0.1-0.2,0.2c0.2,0.1,0.4,0.2,0.6,0.3c0,0,0.2-0.1,0.2-0.2C172,188.8,171.9,188.6,171.5,188.6z M180.1,220.2
			c-0.2-0.2-0.4-0.4-0.6-0.6c-0.1,0.1-0.2,0.2-0.2,0.2c0.1,0.2,0.3,0.4,0.5,0.5C179.8,220.4,180,220.3,180.1,220.2z M157,219.5
			c-0.2,0.3-0.3,0.5-0.4,0.7c0,0,0.1,0.2,0.2,0.2c0.1-0.2,0.3-0.4,0.4-0.6C157.2,219.8,157.1,219.7,157,219.5z M184.4,198.7
			c-0.2-0.1-0.3-0.3-0.3-0.3c-0.2,0.1-0.4,0.2-0.6,0.4c0,0,0,0.2,0.1,0.3c0,0,0,0,0,0C183.8,199,184.1,198.8,184.4,198.7z
			 M178.5,217.2c-0.2-0.2-0.3-0.4-0.4-0.6c-0.1,0.1-0.2,0.2-0.2,0.2c0.1,0.2,0,0.5,0.4,0.6C178.3,217.4,178.4,217.3,178.5,217.2z
			 M169.5,229.5c0.2-0.2,0.4-0.4,0.6-0.5c-0.1-0.1-0.2-0.2-0.3-0.2c-0.2,0.1-0.4,0.3-0.5,0.4C169.4,229.3,169.4,229.4,169.5,229.5z
			 M165.1,188.6c-0.4,0-0.5,0.2-0.5,0.4c0,0.1,0.1,0.2,0.2,0.2c0.2-0.1,0.4-0.2,0.6-0.3C165.2,188.7,165.1,188.6,165.1,188.6z
			 M159.2,215.2c-0.1-0.1-0.2-0.3-0.3-0.3c-0.4,0-0.3,0.3-0.3,0.5c0,0.1,0.1,0.2,0.2,0.3C158.9,215.6,159.1,215.4,159.2,215.2z
			 M177.8,208.5C177.8,208.5,177.8,208.5,177.8,208.5c0-0.2-0.1-0.3-0.1-0.4c-0.1,0.1-0.2,0.2-0.2,0.3c0,0.1-0.1,0.2-0.1,0.3
			c0,0.1,0.1,0.2,0.2,0.3c0.1-0.1,0.2-0.1,0.2-0.2C177.8,208.7,177.8,208.6,177.8,208.5z M179.9,202.5c0,0.1,0,0.1,0,0.2
			c0.1,0,0.3,0.1,0.4,0c0.1-0.2,0.2-0.4,0.3-0.6c-0.1,0-0.2-0.1-0.3,0C180.1,202.2,180,202.4,179.9,202.5z M158,217.1
			c0.1,0.1,0.2,0.2,0.3,0.3c0.1-0.2,0.3-0.4,0.3-0.6c0-0.1-0.1-0.2-0.2-0.3C158.3,216.7,158.2,216.9,158,217.1z M158.9,226.8
			C158.8,226.8,158.8,226.8,158.9,226.8c-0.1,0.1-0.2,0.1-0.2,0.1c-0.1,0.1-0.2,0.1-0.3,0.2c0.1,0.1,0.2,0.1,0.3,0.2
			c0,0,0.1,0,0.2,0c0.1-0.1,0.3-0.1,0.4-0.2C159.1,227,159,226.9,158.9,226.8z M166.4,229.1c0.2,0.1,0.4,0.3,0.6,0.4
			c0.2,0.1,0.3-0.1,0.2-0.2C167.2,228.9,166.7,228.8,166.4,229.1z M184.1,226.1c-0.1-0.1-0.2-0.2-0.3-0.2c-0.4,0-0.3,0.4-0.4,0.6
			c0,0,0.1,0.1,0.2,0.2C183.7,226.5,183.9,226.3,184.1,226.1z M157.6,219c0.1,0,0.1,0,0.2,0c0.1-0.2,0.2-0.4,0.3-0.7
			c0,0-0.1-0.1-0.2-0.2c-0.1,0.2-0.3,0.4-0.4,0.6C157.4,218.8,157.5,218.9,157.6,219z M151.8,197.9c-0.2-0.2-0.3-0.3-0.5-0.5
			c-0.1,0.1-0.3,0.3-0.2,0.4c0,0.1,0.2,0.2,0.4,0.3C151.5,198.1,151.6,198,151.8,197.9z M158.4,205.5c-0.2-0.2-0.3-0.4-0.4-0.6
			c-0.1,0.1-0.2,0.2-0.2,0.2c0.1,0.2,0.3,0.4,0.4,0.6C158.1,205.7,158.2,205.6,158.4,205.5z M152.6,198.3c-0.1,0.1-0.2,0.3-0.2,0.3
			c0.2,0.2,0.4,0.3,0.6,0.5c0,0,0.2-0.2,0.2-0.2C153,198.7,152.8,198.5,152.6,198.3z M179.2,218.9c-0.1-0.3-0.2-0.5-0.3-0.7
			c0,0-0.3,0-0.3,0.1C178.4,218.5,178.8,218.9,179.2,218.9z M153.1,224.2c0.1,0,0.1,0,0.2-0.1c0.2-0.2,0.3-0.4,0.5-0.5
			c0,0-0.2-0.2-0.2-0.2c-0.2,0.1-0.4,0.3-0.6,0.5C153,223.9,153.1,224.1,153.1,224.2z M159.5,213.5c-0.1-0.1-0.2-0.2-0.3-0.3
			c-0.1,0.2-0.2,0.4-0.2,0.6c0,0.1,0.1,0.2,0.2,0.2C159.3,213.9,159.4,213.7,159.5,213.5z M159.3,208.8c-0.1-0.2-0.2-0.4-0.3-0.6
			c-0.1,0.1-0.2,0.2-0.2,0.2c0.1,0.2-0.1,0.6,0.3,0.6C159.1,209,159.2,208.9,159.3,208.8z M177.1,213.5c0,0.2,0,0.2,0.1,0.3
			c0.1,0.1,0.2,0.2,0.3,0.3c0-0.1,0.1-0.2,0.1-0.3c0-0.1,0-0.2-0.1-0.2c-0.1-0.1-0.2-0.2-0.2-0.3
			C177.3,213.3,177.2,213.4,177.1,213.5z M181.1,221.5c-0.2-0.2-0.4-0.4-0.6-0.5c0,0-0.2,0.2-0.2,0.2c0.2,0.2,0.3,0.4,0.5,0.5
			C180.9,221.8,181,221.6,181.1,221.5z M183.5,223.9c0,0,0-0.1,0-0.1c-0.2-0.1-0.4-0.3-0.6-0.4c0,0-0.2,0.1-0.2,0.2
			c0,0.2,0.3,0.5,0.5,0.5C183.4,224.1,183.5,224,183.5,223.9z M184.4,194.8c0,0-0.1,0.1-0.2,0.2c0.2,0.1,0.3,0.3,0.5,0.4
			c0.1-0.1,0.2-0.2,0.2-0.3C184.8,195,184.8,194.8,184.4,194.8z M174.3,227.7c0.2-0.1,0.4-0.2,0.6-0.4c-0.1-0.1-0.2-0.2-0.2-0.2
			c-0.2,0-0.5-0.1-0.6,0.3C174,227.4,174.1,227.5,174.3,227.7z M154.2,227.8c0,0,0-0.1,0-0.1c-0.2-0.1-0.4-0.2-0.6-0.2
			c0,0-0.2,0.2-0.1,0.2c0.1,0.1,0.2,0.3,0.3,0.3C153.9,228,154.1,227.9,154.2,227.8z M165.8,228.5c0-0.1,0-0.1,0-0.2
			c-0.2-0.1-0.4-0.2-0.6-0.3c-0.1,0-0.2,0.1-0.2,0.2c0.2,0.1,0.4,0.3,0.6,0.4C165.6,228.6,165.7,228.5,165.8,228.5z M155.8,221.9
			c0.2-0.3,0.3-0.5,0.4-0.7c0,0-0.1-0.1-0.2-0.2c-0.2,0.2-0.4,0.3-0.5,0.5C155.5,221.6,155.6,221.7,155.8,221.9z M184.9,224.7
			c0-0.1,0-0.1,0-0.2c-0.2-0.1-0.4-0.1-0.5-0.2c0,0.1-0.1,0.3,0,0.4c0,0.1,0.2,0.2,0.2,0.2C184.6,225,184.7,224.8,184.9,224.7z
			 M152.8,225.8c-0.1,0.1-0.2,0.2-0.2,0.2c0.1,0.2,0.2,0.4,0.3,0.7c0,0,0.2,0,0.2,0c0-0.2-0.1-0.3-0.1-0.5
			C153,226,152.9,225.9,152.8,225.8z M155.1,227.8c0.4-0.2,0.5-0.3,0.7-0.5c-0.1-0.1-0.2-0.2-0.3-0.2c-0.2,0.1-0.5-0.1-0.6,0.3
			C155,227.6,155,227.7,155.1,227.8z M177.7,214.9c0,0-0.1,0-0.1,0c-0.1,0.1-0.2,0.2-0.2,0.3c0.1,0.2-0.1,0.5,0.3,0.6
			c0.1,0,0.2-0.2,0.2-0.2C177.9,215.3,177.8,215.1,177.7,214.9z M171.7,228.3c-0.1-0.1-0.2-0.2-0.2-0.2c-0.2,0.1-0.4,0.2-0.6,0.3
			c0,0,0,0.3,0,0.3c0.2,0,0.3,0,0.5-0.1C171.4,228.5,171.5,228.4,171.7,228.3z M168.3,229.7c-0.2,0.1-0.3,0.2-0.4,0.3
			c0.1,0.1,0.2,0.3,0.4,0.3c0.1,0,0.2-0.2,0.4-0.3C168.6,229.9,168.5,229.8,168.3,229.7z M177.2,193.2c-0.3-0.2-0.5-0.3-0.7-0.4
			c-0.1,0-0.2,0.1-0.2,0.2c0.2,0.1,0.4,0.3,0.6,0.4C176.9,193.4,177,193.3,177.2,193.2z M172.6,189.6c-0.1,0.2-0.2,0.3-0.2,0.4
			c0.2,0.2,0.3,0.3,0.5,0.5c0.1-0.1,0.2-0.2,0.2-0.2C173,190,172.8,189.9,172.6,189.6z M162.9,190.8c-0.2,0.2-0.4,0.3-0.6,0.4
			c-0.1,0.1-0.1,0.3,0.2,0.3C162.7,191.5,163,191.2,162.9,190.8z M160.3,193c0-0.1-0.1-0.2-0.1-0.2c-0.2,0-0.4,0-0.6,0.1
			c-0.1,0-0.1,0.2-0.2,0.3c0,0,0,0.1,0.1,0.1c0.1,0,0.3,0,0.4-0.1C160.1,193.2,160.2,193.1,160.3,193z M179.8,203.6
			c-0.1-0.1-0.2-0.2-0.3-0.2c-0.1,0.2-0.3,0.4-0.4,0.6c0,0,0.1,0.2,0.2,0.2C179.4,204,179.6,203.9,179.8,203.6z M161.8,192.1
			c-0.2-0.1-0.3-0.3-0.3-0.2c-0.2,0.1-0.4,0.3-0.6,0.4c0.1,0.1,0.2,0.2,0.2,0.2C161.3,192.4,161.5,192.3,161.8,192.1z M185.6,197.8
			c-0.2-0.2-0.3-0.3-0.4-0.5c-0.1,0.2-0.2,0.4-0.3,0.6c0,0,0.2,0.2,0.2,0.1C185.3,198,185.4,197.9,185.6,197.8z M181.1,227.1
			c-0.1,0.1-0.3,0.2-0.3,0.3c0,0.3,0.4,0.2,0.5,0.3c0.1,0,0.2-0.1,0.3-0.2C181.5,227.3,181.3,227.2,181.1,227.1z M182.9,194.6
			c-0.2,0.1-0.2,0.2-0.3,0.3c0.1,0.1,0.3,0.2,0.4,0.2c0.1,0,0.2-0.1,0.3-0.2C183.2,194.9,183.1,194.8,182.9,194.6z M163.7,227.4
			c-0.1,0.1-0.3,0.2-0.3,0.3c0,0.3,0.3,0.3,0.5,0.3c0.1,0,0.2-0.1,0.3-0.2C164,227.7,163.9,227.5,163.7,227.4z M176.1,226.8
			c-0.2,0.1-0.3,0.3-0.4,0.4c0.1,0.1,0.2,0.2,0.3,0.2c0.2,0,0.3-0.1,0.5-0.2C176.4,227,176.3,226.9,176.1,226.8z M160.5,226.8
			c-0.2,0.1-0.4,0.2-0.4,0.3c0,0.3,0.3,0.2,0.5,0.2c0.1,0,0.2-0.1,0.3-0.2C160.8,227,160.6,226.9,160.5,226.8z M177.8,227.4
			c0.2-0.1,0.3-0.2,0.4-0.3c-0.1-0.1-0.2-0.2-0.4-0.2c-0.2,0-0.3,0.1-0.5,0.2C177.5,227.1,177.6,227.2,177.8,227.4z M157.3,194.4
			c0,0,0-0.1,0-0.1c-0.1-0.1-0.2-0.2-0.2-0.1c-0.2,0.1-0.4,0.2-0.6,0.3c0.1,0.1,0.2,0.2,0.2,0.2
			C156.9,194.6,157.1,194.5,157.3,194.4z M152.5,224.7c-0.1-0.1-0.2-0.3-0.3-0.3c-0.2,0.1-0.3,0.2-0.4,0.3c0.1,0.1,0.2,0.3,0.3,0.4
			C152.2,225,152.3,224.8,152.5,224.7z M175.8,192.3c-0.3-0.2-0.5-0.3-0.7-0.4c0,0-0.1,0.1-0.2,0.2c0.2,0.1,0.3,0.3,0.5,0.4
			C175.5,192.5,175.6,192.4,175.8,192.3z M182.8,199.5c0,0-0.1,0-0.1,0c-0.2,0.1-0.4,0.3-0.5,0.4c0,0,0.1,0.2,0.1,0.3
			c0.2-0.1,0.4-0.2,0.5-0.3C182.9,199.8,182.8,199.6,182.8,199.5z M154.6,223.1c0.2-0.3,0.3-0.4,0.5-0.6c0,0-0.2-0.2-0.2-0.2
			c-0.2,0.2-0.3,0.3-0.5,0.5C154.4,222.8,154.5,222.9,154.6,223.1z M155.1,200.6c-0.1,0.1-0.2,0.3-0.2,0.3c0.1,0.2,0.3,0.4,0.5,0.5
			c0.1-0.1,0.2-0.2,0.2-0.2C155.5,201,155.3,200.8,155.1,200.6z M181.2,201.5c0.2-0.3,0.3-0.5,0.5-0.7c0,0-0.1-0.1-0.2-0.2
			c-0.2,0.2-0.4,0.3-0.5,0.5C181,201.2,181.1,201.3,181.2,201.5z M157.6,204.1c0-0.1,0-0.1-0.1-0.2c-0.1-0.2-0.3-0.3-0.4-0.5
			c-0.1,0.1-0.2,0.2-0.2,0.2c0.1,0.2,0.3,0.4,0.4,0.6C157.4,204.2,157.5,204.1,157.6,204.1z M178.3,205.7c0.3,0,0.7-0.4,0.6-0.6
			c0-0.1-0.1-0.1-0.2-0.1c-0.1,0-0.2,0-0.2,0.1C178.4,205.2,178.4,205.4,178.3,205.7z M174.5,191.3c-0.3-0.2-0.5-0.3-0.7-0.4
			c0,0-0.2,0.2-0.2,0.2c0.2,0.2,0.3,0.3,0.5,0.5C174.2,191.6,174.3,191.4,174.5,191.3z M181.7,222.2c-0.1,0.2-0.2,0.3-0.2,0.3
			c0.2,0.2,0.3,0.3,0.5,0.5c0,0,0.2-0.1,0.2-0.2C182.1,222.6,181.9,222.4,181.7,222.2z M178.6,194c-0.1-0.4-0.4-0.4-0.6-0.4
			c0,0-0.1,0.1-0.2,0.2c0.2,0.1,0.4,0.3,0.6,0.4C178.4,194.1,178.5,194,178.6,194z M152,196.3c-0.1-0.1-0.2-0.2-0.3-0.3
			c-0.1,0.2-0.2,0.3-0.3,0.5c0,0.1,0.1,0.2,0.2,0.3C151.7,196.6,151.8,196.5,152,196.3z M180.1,194.5c0,0,0-0.1,0-0.1
			c-0.2-0.1-0.4-0.2-0.6-0.2c-0.1,0-0.1,0.1-0.2,0.2c0.2,0.1,0.4,0.2,0.6,0.3C180,194.6,180.1,194.5,180.1,194.5z M178.4,206.8
			c-0.1-0.1-0.2-0.2-0.3-0.3c-0.1,0.2-0.2,0.4-0.3,0.6c0,0,0.1,0.2,0.2,0.2C178.1,207.1,178.2,207,178.4,206.8z M182.9,228.1
			c0,0,0.1,0,0.1-0.1c0-0.2,0-0.4,0-0.6c-0.2,0-0.4,0.1-0.5,0.1c0,0-0.1,0.2-0.1,0.2C182.6,227.9,182.8,228,182.9,228.1z
			 M181.4,195.1c0.2-0.1,0.3-0.2,0.3-0.3c0-0.3-0.3-0.3-0.5-0.3c-0.1,0-0.2,0.1-0.3,0.2C181.1,194.8,181.2,194.9,181.4,195.1z
			 M172.6,228.1c0.2-0.2,0.4-0.3,0.6-0.4c-0.1-0.1-0.2-0.2-0.3-0.2c-0.2,0.1-0.4,0.2-0.5,0.3C172.4,227.8,172.5,227.9,172.6,228.1z
			 M153.7,194.7c-0.2,0.1-0.3,0.2-0.5,0.3c0.1,0.1,0.2,0.2,0.4,0.2c0.2,0,0.3-0.2,0.4-0.3C153.9,194.9,153.8,194.8,153.7,194.7z
			 M162.1,227c-0.1,0.1-0.3,0.2-0.3,0.3c0,0.3,0.3,0.2,0.5,0.3c0.1,0,0.2-0.1,0.3-0.2C162.4,227.3,162.3,227.1,162.1,227z
			 M179.5,227.5c0.2-0.1,0.3-0.2,0.4-0.3c-0.2-0.1-0.3-0.2-0.5-0.2c-0.1,0-0.2,0.1-0.3,0.2C179.2,227.2,179.4,227.3,179.5,227.5z
			 M157,227.5c0.2-0.1,0.3-0.2,0.5-0.3c-0.1-0.1-0.2-0.2-0.3-0.2c-0.2,0-0.3,0.2-0.5,0.3C156.8,227.3,156.9,227.4,157,227.5z
			 M151.6,195.2c0.2,0.1,0.3,0.3,0.3,0.3c0.2-0.1,0.3-0.3,0.5-0.4c-0.1-0.1-0.3-0.2-0.4-0.2C151.9,194.9,151.8,195,151.6,195.2z
			 M185.3,196.5c-0.1-0.2-0.2-0.3-0.3-0.5c-0.1,0.1-0.2,0.2-0.2,0.3c0.1,0.2,0.2,0.3,0.3,0.5C185.1,196.7,185.1,196.6,185.3,196.5z
			 M158.9,207.1c-0.2-0.2-0.3-0.4-0.4-0.6c-0.1,0.1-0.2,0.2-0.2,0.3c0,0.2,0,0.5,0.3,0.5C158.7,207.3,158.8,207.2,158.9,207.1z
			 M158.7,193.4c-0.1,0-0.1,0-0.2,0.1c-0.2,0.1-0.3,0.3-0.5,0.4c0.1,0.1,0.2,0.2,0.2,0.2c0.2-0.1,0.4-0.2,0.5-0.4
			C158.8,193.7,158.7,193.5,158.7,193.4z M164.3,190c-0.2-0.1-0.3-0.3-0.3-0.3c-0.2,0.2-0.3,0.3-0.5,0.5c0,0,0.1,0.2,0.2,0.2
			C163.8,190.3,164,190.2,164.3,190z M155.1,195.1c0.2-0.2,0.4-0.3,0.5-0.4c-0.1-0.1-0.2-0.2-0.3-0.2c-0.2,0.1-0.4,0.2-0.5,0.2
			C154.9,194.9,155,195,155.1,195.1z"/>
        <path class="st53" d="M159.6,210.4c-0.2,0.2-0.3,0.3-0.4,0.4c-0.1-0.1-0.2-0.2-0.2-0.3c0,0,0,0,0,0c0-0.2-0.1-0.5,0.2-0.5
			C159.3,209.8,159.5,210.1,159.6,210.4z"/>
        <path class="st53" d="M159.6,212.1c-0.1,0.1-0.2,0.3-0.3,0.3c-0.3,0-0.2-0.2-0.2-0.4c0-0.1,0-0.1,0-0.2c0.1-0.1,0.2-0.2,0.2-0.3
			c0.1,0.1,0.2,0.2,0.2,0.3C159.6,211.8,159.5,211.9,159.6,212.1C159.6,212,159.6,212,159.6,212.1z"/>
        <path class="st53" d="M168.3,189.2c-0.2-0.1-0.3-0.2-0.5-0.3c0.1-0.1,0.3-0.2,0.4-0.2c0.2,0,0.3,0.1,0.5,0.2
			C168.6,188.9,168.5,189,168.3,189.2z"/>
        <path class="st53" d="M177.7,210.3c-0.2,0.2-0.3,0.3-0.4,0.4c-0.1-0.1-0.3-0.2-0.3-0.3c0.1-0.2,0.2-0.4,0.3-0.6
			C177.4,209.9,177.5,210.1,177.7,210.3z"/>
        <path class="st53" d="M166.5,189.1c-0.2-0.1-0.4-0.2-0.4-0.3c0-0.3,0.3-0.3,0.5-0.2c0.1,0,0.2,0.1,0.4,0.2
			C166.9,188.9,166.7,189,166.5,189.1z"/>
        <path class="st53" d="M177,211.9c0.1-0.2,0.2-0.4,0.3-0.4c0.3,0,0.2,0.3,0.2,0.4c0,0.2,0,0.4-0.3,0.4
			C177.2,212.3,177.1,212.1,177,211.9z"/>
        <path class="st53" d="M156.2,201.9c0.2,0.3,0.3,0.5,0.4,0.7c0,0-0.1,0.1-0.2,0.1c-0.1-0.1-0.3-0.1-0.4-0.2
			c-0.1-0.1-0.1-0.3-0.1-0.4C156,202,156.1,202,156.2,201.9z"/>
        <path class="st53" d="M153.9,199.4c0.2,0.2,0.4,0.4,0.5,0.6c0,0-0.1,0.2-0.2,0.2c-0.2-0.2-0.4-0.3-0.5-0.5
			C153.7,199.6,153.8,199.5,153.9,199.4z"/>
        <path class="st53" d="M170,189.1c-0.2-0.1-0.4-0.2-0.4-0.3c0-0.3,0.2-0.3,0.4-0.2c0.2,0,0.4,0,0.4,0.2
			C170.4,188.9,170.2,189,170,189.1z"/>
        <path class="st53" d="M171.5,188.6c0.4,0,0.5,0.2,0.6,0.4c0,0.1-0.2,0.2-0.2,0.2c-0.2-0.1-0.4-0.2-0.6-0.3
			C171.3,188.7,171.4,188.6,171.5,188.6z"/>
        <path class="st53" d="M180.1,220.2c-0.1,0.1-0.3,0.2-0.3,0.2c-0.2-0.2-0.3-0.3-0.5-0.5c0,0,0.1-0.2,0.2-0.2
			C179.7,219.8,179.9,220,180.1,220.2z"/>
        <path class="st53" d="M157,219.5c0.1,0.2,0.2,0.3,0.2,0.4c-0.1,0.2-0.3,0.4-0.4,0.6c-0.1-0.1-0.2-0.2-0.2-0.2
			C156.7,220,156.8,219.8,157,219.5z"/>
        <path class="st53" d="M184.4,198.7c-0.3,0.2-0.5,0.3-0.8,0.4c0,0,0,0,0,0c0-0.1-0.1-0.3-0.1-0.3c0.2-0.1,0.4-0.3,0.6-0.4
			C184.1,198.4,184.2,198.5,184.4,198.7z"/>
        <path class="st53" d="M178.5,217.2c-0.1,0.1-0.2,0.2-0.3,0.2c-0.3,0-0.3-0.4-0.4-0.6c0-0.1,0.1-0.2,0.2-0.2
			C178.3,216.7,178.4,216.9,178.5,217.2z"/>
        <path class="st53" d="M169.5,229.5c-0.1-0.1-0.2-0.2-0.2-0.3c0.2-0.1,0.3-0.3,0.5-0.4c0,0,0.2,0.1,0.3,0.2
			C169.9,229.2,169.8,229.3,169.5,229.5z"/>
        <path class="st53" d="M165.1,188.6c0,0,0.1,0.2,0.2,0.3c-0.2,0.1-0.4,0.2-0.6,0.3c0,0-0.2-0.1-0.2-0.2
			C164.6,188.8,164.7,188.6,165.1,188.6z"/>
        <path class="st53" d="M159.2,215.2c-0.2,0.2-0.3,0.4-0.4,0.5c-0.1-0.1-0.2-0.2-0.2-0.3c0.1-0.2,0-0.5,0.3-0.5
			C159,214.9,159.1,215.1,159.2,215.2z"/>
        <path class="st53" d="M177.8,208.5c0,0.1,0,0.2,0,0.3c-0.1,0.1-0.2,0.2-0.2,0.2c-0.1-0.1-0.1-0.2-0.2-0.3c0-0.1,0-0.2,0.1-0.3
			c0.1-0.1,0.2-0.2,0.2-0.3C177.7,208.3,177.8,208.4,177.8,208.5C177.8,208.5,177.8,208.5,177.8,208.5z"/>
        <path class="st53" d="M179.9,202.5c0.1-0.2,0.2-0.3,0.4-0.5c0,0,0.2,0,0.3,0c-0.1,0.2-0.1,0.4-0.3,0.6c0,0.1-0.3,0-0.4,0
			C179.9,202.6,179.9,202.6,179.9,202.5z"/>
        <path class="st53" d="M158,217.1c0.2-0.2,0.3-0.4,0.4-0.6c0.1,0.1,0.2,0.2,0.2,0.3c-0.1,0.2-0.2,0.4-0.3,0.6
			C158.2,217.3,158.2,217.2,158,217.1z"/>
        <path class="st53" d="M158.9,226.8c0.1,0.1,0.2,0.2,0.3,0.3c-0.1,0.1-0.3,0.1-0.4,0.2c-0.1,0-0.1,0-0.2,0
			c-0.1-0.1-0.2-0.1-0.3-0.2c0.1-0.1,0.2-0.1,0.3-0.2C158.7,226.8,158.7,226.9,158.9,226.8C158.8,226.8,158.8,226.8,158.9,226.8z"/>
        <path class="st53"
              d="M166.4,229.1c0.3-0.3,0.8-0.2,0.9,0.1c0,0.2-0.1,0.3-0.2,0.2C166.8,229.3,166.6,229.2,166.4,229.1z"/>
        <path class="st53" d="M184.1,226.1c-0.2,0.2-0.4,0.4-0.5,0.6c-0.1-0.1-0.2-0.2-0.2-0.2c0.1-0.2,0.1-0.6,0.4-0.6
			C183.9,225.9,184,226,184.1,226.1z"/>
        <path class="st53" d="M157.6,219c0-0.1-0.1-0.2-0.1-0.2c0.1-0.2,0.3-0.4,0.4-0.6c0.1,0.1,0.2,0.2,0.2,0.2
			c-0.1,0.2-0.2,0.4-0.3,0.7C157.7,219,157.6,219,157.6,219z"/>
        <path class="st53" d="M151.8,197.9c-0.1,0.1-0.3,0.2-0.3,0.2c-0.2-0.1-0.3-0.2-0.4-0.3c0-0.1,0.1-0.3,0.2-0.4
			C151.5,197.5,151.6,197.7,151.8,197.9z"/>
        <path class="st53" d="M158.4,205.5c-0.1,0.1-0.3,0.2-0.3,0.2c-0.1-0.2-0.3-0.4-0.4-0.6c0,0,0.1-0.1,0.2-0.2
			C158,205.1,158.2,205.3,158.4,205.5z"/>
        <path class="st53" d="M152.6,198.3c0.2,0.2,0.4,0.4,0.5,0.6c0,0-0.2,0.2-0.2,0.2c-0.2-0.2-0.4-0.3-0.6-0.5
			C152.3,198.6,152.5,198.5,152.6,198.3z"/>
        <path class="st53"
              d="M179.2,218.9c-0.4,0-0.8-0.4-0.7-0.6c0-0.1,0.3-0.1,0.3-0.1C179,218.4,179.1,218.6,179.2,218.9z"/>
        <path class="st53" d="M153.1,224.2c0-0.1-0.1-0.3-0.1-0.3c0.2-0.2,0.4-0.3,0.6-0.5c0,0,0.2,0.2,0.2,0.2c-0.1,0.2-0.3,0.4-0.5,0.5
			C153.3,224.1,153.2,224.2,153.1,224.2z"/>
        <path class="st53" d="M159.5,213.5c-0.1,0.2-0.2,0.4-0.3,0.6c-0.1-0.1-0.2-0.2-0.2-0.2c0.1-0.2,0.2-0.4,0.2-0.6
			C159.3,213.3,159.4,213.4,159.5,213.5z"/>
        <path class="st53" d="M159.3,208.8c-0.1,0.1-0.2,0.3-0.3,0.3c-0.4-0.1-0.2-0.4-0.3-0.6c0,0,0.1-0.1,0.2-0.2
			C159.1,208.4,159.2,208.5,159.3,208.8z"/>
        <path class="st53" d="M177.1,213.5c0-0.1,0.1-0.2,0.2-0.3c0.1,0.1,0.2,0.2,0.2,0.3c0,0.1,0.1,0.1,0.1,0.2c0,0.1-0.1,0.2-0.1,0.3
			c-0.1-0.1-0.2-0.2-0.3-0.3C177.2,213.7,177.2,213.7,177.1,213.5z"/>
        <path class="st53" d="M181.1,221.5c-0.1,0.1-0.3,0.2-0.3,0.2c-0.2-0.2-0.3-0.4-0.5-0.5c0,0,0.2-0.2,0.2-0.2
			C180.7,221.2,180.9,221.3,181.1,221.5z"/>
        <path class="st53" d="M183.5,223.9c-0.1,0-0.1,0.1-0.2,0.1c-0.2,0-0.6-0.3-0.5-0.5c0-0.1,0.2-0.2,0.2-0.2c0.2,0.1,0.4,0.3,0.6,0.4
			C183.6,223.8,183.6,223.9,183.5,223.9z"/>
        <path class="st53" d="M184.4,194.8c0.4-0.1,0.4,0.2,0.4,0.3c0,0.1-0.1,0.2-0.2,0.3c-0.2-0.1-0.3-0.3-0.5-0.4
			C184.3,195,184.4,194.9,184.4,194.8z"/>
        <path class="st53" d="M174.3,227.7c-0.1-0.1-0.3-0.2-0.2-0.3c0-0.4,0.4-0.2,0.6-0.3c0.1,0,0.2,0.1,0.2,0.2
			C174.6,227.4,174.5,227.5,174.3,227.7z"/>
        <path class="st53" d="M154.2,227.8c-0.2,0.1-0.3,0.2-0.4,0.2c-0.1,0-0.2-0.2-0.3-0.3c0-0.1,0.1-0.3,0.1-0.2
			c0.2,0.1,0.4,0.2,0.6,0.2C154.2,227.7,154.2,227.8,154.2,227.8z"/>
        <path class="st53" d="M165.8,228.5c-0.1,0-0.2,0.2-0.2,0.1c-0.2-0.1-0.4-0.2-0.6-0.4c0.1-0.1,0.2-0.2,0.2-0.2
			c0.2,0.1,0.4,0.2,0.6,0.3C165.8,228.4,165.8,228.4,165.8,228.5z"/>
        <path class="st53" d="M155.8,221.9c-0.1-0.2-0.3-0.4-0.2-0.4c0.1-0.2,0.3-0.4,0.5-0.5c0.1,0.1,0.2,0.2,0.2,0.2
			C156.1,221.4,156,221.6,155.8,221.9z"/>
        <path class="st53" d="M184.9,224.7c-0.1,0.1-0.3,0.2-0.4,0.3c0,0-0.2-0.1-0.2-0.2c0-0.1,0-0.3,0-0.4c0.2,0.1,0.4,0.1,0.5,0.2
			C184.8,224.6,184.8,224.7,184.9,224.7z"/>
        <path class="st53" d="M152.8,225.8c0.1,0.1,0.2,0.2,0.2,0.3c0.1,0.2,0.1,0.3,0.1,0.5c-0.1,0-0.2,0.1-0.2,0
			c-0.1-0.2-0.2-0.4-0.3-0.7C152.6,226,152.7,225.9,152.8,225.8z"/>
        <path class="st53" d="M155.1,227.8c-0.1-0.2-0.1-0.3-0.1-0.4c0-0.3,0.4-0.2,0.6-0.3c0.1,0,0.2,0.1,0.3,0.2
			C155.6,227.5,155.5,227.6,155.1,227.8z"/>
        <path class="st53" d="M177.7,214.9c0.1,0.2,0.2,0.4,0.2,0.6c0,0.1-0.1,0.2-0.2,0.2c-0.4,0-0.2-0.4-0.3-0.6c0,0,0.1-0.2,0.2-0.3
			C177.6,214.9,177.7,214.9,177.7,214.9z"/>
        <path class="st53" d="M171.7,228.3c-0.1,0.1-0.2,0.2-0.3,0.2c-0.1,0-0.3,0.1-0.5,0.1c0,0-0.1-0.2,0-0.3c0.2-0.1,0.4-0.2,0.6-0.3
			C171.5,228,171.6,228.2,171.7,228.3z"/>
        <path class="st53" d="M168.3,229.7c0.1,0.1,0.2,0.2,0.3,0.3c-0.1,0.1-0.3,0.3-0.4,0.3c-0.1,0-0.3-0.2-0.4-0.3
			C168,229.9,168.1,229.8,168.3,229.7z"/>
        <path class="st53" d="M177.2,193.2c-0.2,0.1-0.3,0.2-0.3,0.2c-0.2-0.1-0.4-0.3-0.6-0.4c0.1-0.1,0.2-0.2,0.2-0.2
			C176.7,192.9,176.9,193,177.2,193.2z"/>
        <path class="st53" d="M172.6,189.6c0.2,0.3,0.3,0.5,0.5,0.7c0,0-0.1,0.1-0.2,0.2c-0.2-0.2-0.4-0.3-0.5-0.5
			C172.4,189.9,172.5,189.8,172.6,189.6z"/>
        <path class="st53"
              d="M162.9,190.8c0.1,0.4-0.2,0.8-0.4,0.8c-0.3,0-0.2-0.2-0.2-0.3C162.4,191.1,162.7,190.9,162.9,190.8z"/>
        <path class="st53" d="M160.3,193c-0.1,0.1-0.2,0.2-0.4,0.3c-0.1,0.1-0.3,0-0.4,0.1c0,0-0.1-0.1-0.1-0.1c0.1-0.1,0.1-0.3,0.2-0.3
			c0.2-0.1,0.4-0.1,0.6-0.1C160.3,192.9,160.3,192.9,160.3,193z"/>
        <path class="st53" d="M179.8,203.6c-0.2,0.2-0.4,0.4-0.5,0.6c-0.1-0.1-0.2-0.2-0.2-0.2c0.1-0.2,0.3-0.4,0.4-0.6
			C179.5,203.5,179.6,203.5,179.8,203.6z"/>
        <path class="st53" d="M161.8,192.1c-0.3,0.2-0.5,0.3-0.7,0.4c0,0-0.1-0.1-0.2-0.2c0.2-0.1,0.4-0.3,0.6-0.4
			C161.5,191.9,161.6,192,161.8,192.1z"/>
        <path class="st53" d="M185.6,197.8c-0.2,0.1-0.3,0.2-0.5,0.2c-0.1,0-0.2-0.1-0.2-0.1c0.1-0.2,0.2-0.4,0.3-0.6
			C185.3,197.5,185.4,197.6,185.6,197.8z"/>
        <path class="st53" d="M181.1,227.1c0.2,0.1,0.4,0.3,0.5,0.4c-0.1,0.1-0.2,0.2-0.3,0.2c-0.2-0.1-0.5,0.1-0.5-0.3
			C180.8,227.3,181,227.2,181.1,227.1z"/>
        <path class="st53" d="M182.9,194.6c0.2,0.2,0.3,0.3,0.5,0.4c-0.1,0.1-0.2,0.2-0.3,0.2c-0.2,0-0.3-0.2-0.4-0.2
			C182.6,194.9,182.7,194.8,182.9,194.6z"/>
        <path class="st53" d="M163.7,227.4c0.2,0.2,0.4,0.3,0.5,0.4c-0.1,0.1-0.2,0.2-0.3,0.2c-0.2-0.1-0.5,0-0.5-0.3
			C163.4,227.6,163.6,227.5,163.7,227.4z"/>
        <path class="st53" d="M176.1,226.8c0.2,0.1,0.3,0.2,0.4,0.3c-0.2,0.1-0.3,0.2-0.5,0.2c-0.1,0-0.2-0.1-0.3-0.2
			C175.8,227,176,226.9,176.1,226.8z"/>
        <path class="st53" d="M160.5,226.8c0.2,0.1,0.3,0.2,0.4,0.3c-0.1,0.1-0.2,0.2-0.3,0.2c-0.2,0-0.5,0.1-0.5-0.2
			C160.1,227,160.3,226.9,160.5,226.8z"/>
        <path class="st53" d="M177.8,227.4c-0.2-0.1-0.3-0.2-0.4-0.3c0.2-0.1,0.3-0.2,0.5-0.2c0.1,0,0.2,0.1,0.4,0.2
			C178.1,227.2,178,227.2,177.8,227.4z"/>
        <path class="st53" d="M157.3,194.4c-0.2,0.1-0.4,0.2-0.6,0.2c-0.1,0-0.2-0.1-0.2-0.2c0.2-0.1,0.4-0.2,0.6-0.3
			c0.1,0,0.2,0.1,0.2,0.1C157.3,194.3,157.3,194.3,157.3,194.4z"/>
        <path class="st53" d="M152.5,224.7c-0.2,0.2-0.3,0.3-0.4,0.4c-0.1-0.1-0.2-0.3-0.3-0.4c0.1-0.1,0.3-0.2,0.4-0.3
			C152.2,224.4,152.4,224.5,152.5,224.7z"/>
        <path class="st53" d="M175.8,192.3c-0.2,0.1-0.3,0.2-0.4,0.2c-0.2-0.1-0.3-0.3-0.5-0.4c0.1-0.1,0.2-0.2,0.2-0.2
			C175.3,192,175.5,192.1,175.8,192.3z"/>
        <path class="st53" d="M182.8,199.5c0,0.1,0.1,0.3,0,0.4c-0.1,0.1-0.3,0.2-0.5,0.3c0-0.1-0.1-0.3-0.1-0.3c0.1-0.2,0.3-0.3,0.5-0.4
			C182.8,199.4,182.8,199.4,182.8,199.5z"/>
        <path class="st53" d="M154.6,223.1c-0.1-0.2-0.2-0.3-0.2-0.3c0.1-0.2,0.3-0.4,0.5-0.5c0,0,0.2,0.2,0.2,0.2
			C154.9,222.7,154.8,222.8,154.6,223.1z"/>
        <path class="st53" d="M155.1,200.6c0.2,0.3,0.4,0.4,0.5,0.6c0,0-0.1,0.1-0.2,0.2c-0.2-0.2-0.3-0.4-0.5-0.5
			C154.9,200.8,155,200.7,155.1,200.6z"/>
        <path class="st53" d="M181.2,201.5c-0.1-0.2-0.2-0.3-0.2-0.4c0.2-0.2,0.3-0.3,0.5-0.5c0.1,0.1,0.2,0.2,0.2,0.2
			C181.5,201.1,181.4,201.3,181.2,201.5z"/>
        <path class="st53" d="M157.6,204.1c-0.1,0-0.3,0.1-0.3,0.1c-0.2-0.2-0.3-0.4-0.4-0.6c0,0,0.1-0.1,0.2-0.2c0.1,0.2,0.3,0.3,0.4,0.5
			C157.6,204,157.6,204,157.6,204.1z"/>
        <path class="st53" d="M178.3,205.7c0.1-0.2,0.2-0.5,0.2-0.7c0,0,0.1-0.1,0.2-0.1c0.1,0,0.2,0.1,0.2,0.1
			C179,205.3,178.6,205.7,178.3,205.7z"/>
        <path class="st53" d="M174.5,191.3c-0.2,0.1-0.3,0.2-0.3,0.2c-0.2-0.1-0.3-0.3-0.5-0.5c0,0,0.2-0.2,0.2-0.2
			C174,191,174.2,191.1,174.5,191.3z"/>
        <path class="st53" d="M181.7,222.2c0.2,0.3,0.3,0.4,0.5,0.6c0,0-0.2,0.2-0.2,0.2c-0.2-0.2-0.3-0.3-0.5-0.5
			C181.5,222.5,181.6,222.3,181.7,222.2z"/>
        <path class="st53" d="M178.6,194c-0.1,0-0.2,0.1-0.2,0.1c-0.2-0.1-0.4-0.2-0.6-0.4c0.1-0.1,0.2-0.2,0.2-0.2
			C178.2,193.6,178.5,193.6,178.6,194z"/>
        <path class="st53" d="M152,196.3c-0.1,0.2-0.2,0.4-0.3,0.5c-0.1-0.1-0.2-0.2-0.2-0.3c0.1-0.2,0.2-0.3,0.3-0.5
			C151.8,196.1,151.8,196.2,152,196.3z"/>
        <path class="st53" d="M180.1,194.5c-0.1,0.1-0.2,0.2-0.2,0.2c-0.2-0.1-0.4-0.2-0.6-0.3c0.1-0.1,0.2-0.2,0.2-0.2
			c0.2,0.1,0.4,0.2,0.6,0.2C180.2,194.4,180.1,194.4,180.1,194.5z"/>
        <path class="st53" d="M178.4,206.8c-0.2,0.2-0.3,0.4-0.4,0.5c-0.1-0.1-0.2-0.2-0.2-0.2c0.1-0.2,0.2-0.4,0.3-0.6
			C178.2,206.6,178.2,206.6,178.4,206.8z"/>
        <path class="st53" d="M182.9,228.1c-0.2-0.1-0.3-0.2-0.5-0.3c0,0,0-0.2,0.1-0.2c0.2-0.1,0.4-0.1,0.5-0.1c0,0.2,0,0.4,0,0.6
			C183,228,183,228.1,182.9,228.1z"/>
        <path class="st53" d="M181.4,195.1c-0.2-0.2-0.3-0.3-0.5-0.4c0.1-0.1,0.2-0.2,0.3-0.2c0.2,0,0.5,0,0.5,0.3
			C181.7,194.9,181.5,195,181.4,195.1z"/>
        <path class="st53" d="M172.6,228.1c-0.1-0.2-0.2-0.2-0.2-0.3c0.2-0.1,0.4-0.2,0.5-0.3c0.1,0,0.2,0.1,0.3,0.2
			C173,227.8,172.8,227.9,172.6,228.1z"/>
        <path class="st53" d="M153.7,194.7c0.1,0.1,0.2,0.2,0.3,0.3c-0.1,0.1-0.3,0.2-0.4,0.3c-0.1,0-0.2-0.1-0.4-0.2
			C153.4,194.9,153.5,194.8,153.7,194.7z"/>
        <path class="st53" d="M162.1,227c0.2,0.2,0.3,0.3,0.5,0.4c-0.1,0.1-0.2,0.2-0.3,0.2c-0.2-0.1-0.5,0.1-0.5-0.3
			C161.8,227.2,161.9,227.1,162.1,227z"/>
        <path class="st53" d="M179.5,227.5c-0.2-0.1-0.3-0.2-0.4-0.3c0.1-0.1,0.2-0.2,0.3-0.2c0.2,0,0.3,0.2,0.5,0.2
			C179.8,227.3,179.7,227.4,179.5,227.5z"/>
        <path class="st53" d="M157,227.5c-0.2-0.1-0.3-0.2-0.4-0.3c0.2-0.1,0.3-0.2,0.5-0.3c0.1,0,0.2,0.1,0.3,0.2
			C157.3,227.2,157.2,227.3,157,227.5z"/>
        <path class="st53" d="M151.6,195.2c0.2-0.1,0.3-0.3,0.4-0.3c0.1,0,0.2,0.1,0.4,0.2c-0.2,0.1-0.3,0.3-0.5,0.4
			C151.9,195.5,151.8,195.3,151.6,195.2z"/>
        <path class="st53" d="M185.3,196.5c-0.1,0.1-0.2,0.2-0.3,0.3c-0.1-0.2-0.2-0.3-0.3-0.5c0-0.1,0.1-0.2,0.2-0.3
			C185,196.2,185.1,196.3,185.3,196.5z"/>
        <path class="st53" d="M158.9,207.1c-0.1,0.1-0.2,0.2-0.3,0.2c-0.4,0-0.3-0.3-0.3-0.5c0-0.1,0.1-0.2,0.2-0.3
			C158.6,206.7,158.8,206.9,158.9,207.1z"/>
        <path class="st53" d="M158.7,193.4c0,0.1,0.1,0.3,0.1,0.3c-0.2,0.1-0.3,0.3-0.5,0.4c0,0-0.2-0.1-0.2-0.2c0.2-0.1,0.3-0.3,0.5-0.4
			C158.6,193.4,158.6,193.4,158.7,193.4z"/>
        <path class="st53" d="M164.3,190c-0.3,0.2-0.4,0.3-0.6,0.4c0,0-0.2-0.2-0.2-0.2c0.2-0.2,0.3-0.3,0.5-0.5
			C164,189.7,164.1,189.9,164.3,190z"/>
        <path class="st53" d="M155.1,195.1c-0.1-0.2-0.2-0.2-0.3-0.3c0.2-0.1,0.4-0.2,0.5-0.2c0.1,0,0.2,0.1,0.3,0.2
			C155.5,194.8,155.3,194.9,155.1,195.1z"/>
	</g>
</g>
</svg>
