<svg id="Calque_1" data-name="Calque 1" xmlns="http://www.w3.org/2000/svg" viewBox="0 0 350 300"><title>selected</title><path d="M202.85,120.76A19.25,19.25,0,1,1,183.6,140a19.31,19.31,0,0,1,19.25-19.25m0-4A23.25,23.25,0,1,0,226.1,140a23.25,23.25,0,0,0-23.25-23.25Z"/><path d="M128.45,8a5.26,5.26,0,0,1,3.47,1.3H97.11A5.29,5.29,0,0,1,100.55,8h27.9m4,1.83a5.26,5.26,0,0,1,1.3,3.47V36.55a.65.65,0,0,1-.65.65h-8.65v2.13l-1.3-.09v-2h-17.3v2.21l-1.3.07V37.2H95.9a.65.65,0,0,1-.65-.65V18.23l1.13-8.15.17-.21v26h35.9V9.83m-4-5.83h-27.9a9.27,9.27,0,0,0-8,4.65L91.25,18v18.6A4.65,4.65,0,0,0,95.9,41.2h4.65v2.52c3.09-.17,6.2-.37,9.3-.51v-2h9.3v1.86a76,76,0,0,1,9.3.76V41.2h4.65a4.65,4.65,0,0,0,4.65-4.65V13.3a9.3,9.3,0,0,0-9.3-9.3Zm-27.9,27.9V13.3h27.9V31.9Z"/><path d="M123.15,43.78c.44,0,.87.09,1.3.15v2.43h8.65a.65.65,0,0,1,.65.65V74.26h13.32a9.66,9.66,0,0,1,3.75.75l6.3,2.62-.79-6.78-.57-4.92c0-.07,0-.14,0-.22s0-.34-.05-.49V47a.65.65,0,0,1,.65-.65h93A.65.65,0,0,1,250,47V65.17a4.21,4.21,0,0,0-.06.55,2.4,2.4,0,0,0,0,.38l-4.84,41.12-1,8.26-1,8.26L242.1,133l-.74,6.16-.74,6.16L238,167.4l-.91,7.76-.19,1.59-3.28,27.89-1,8.74-.07.57-1.12,9.57,0,.23v32.47l-.11,5.34h-57V223.75l0-.23L165,144.47l-8,.47V251.61a10,10,0,0,1-9.95,9.95H82a10,10,0,0,1-10-9.95V84.21a10,10,0,0,1,10-9.95h13.3V47a.65.65,0,0,1,.65-.65h8.65V43.91l1.3-.08v2.53h17.3V43.78M160.2,65h85.11V47.66H160.2V65m-63.65,9.3h35.9V47.66H96.55v26.6m79,148.8h54.64l.41-3.53,17.51-148.8.53-4.47H157.08l.53,4.47,17.5,148.8.42,3.53M73.3,111.46h82.4V84.21a8.66,8.66,0,0,0-8.65-8.65H82a8.66,8.66,0,0,0-8.65,8.65v27.25m0,97.65h82.4V112.76H73.3v96.35m102.3,32.55h13l1.17-1.17,3.29-3.29a.66.66,0,0,1,.46-.19h18.6a.54.54,0,0,1,.22.05h.06a.68.68,0,0,1,.18.13l3.28,3.28,1.18,1.17h13v-17.3H175.6v17.3m0,18.6h54.5V243H216.8a.66.66,0,0,1-.46-.19l-3.29-3.29-1.17-1.17H193.82l-1.18,1.17-3.28,3.29a.66.66,0,0,1-.46.19H175.6v17.3M119.15,39.49v2.87h-9.3V39.59c-3.1.15-6.21.38-9.3.58v2.19H95.9A4.65,4.65,0,0,0,91.25,47V70.26H82A14,14,0,0,0,68,84.21v167.4a13.94,13.94,0,0,0,14,13.95h65.1A14,14,0,0,0,161,251.61V144.94L170.3,224v41.57h64.91c.06-3.1.13-6.2.19-9.3V224l1.12-9.58q.55-4.65,1.1-9.3l3.28-27.9c.37-3.11.73-6.23,1.1-9.35l2.6-22.09,1.47-12.32,1.07-9.25q1-8.25,1.94-16.51L254,66.17c0-.09,0-.17,0-.26s.07-.2.07-.3V47a4.65,4.65,0,0,0-4.65-4.65h-93A4.65,4.65,0,0,0,151.7,47v18.6c0,.1.05.18.05.28s0,.18,0,.27l.61,5.16a13.76,13.76,0,0,0-5.29-1.06h-9.32V47a4.65,4.65,0,0,0-4.65-4.65h-4.65V40.54a57.44,57.44,0,0,0-9.3-1ZM164.2,61v-9.3h77.11V61Zm-63.65,9.3V51.66h27.9v18.6Zm78.54,148.8L161.58,70.26h82.54l-17.51,148.8ZM77.3,107.46V84.21A4.65,4.65,0,0,1,82,79.56h65.1a4.65,4.65,0,0,1,4.65,4.65v23.25Zm0,97.65V116.76h74.4v88.35Zm102.3,32.55v-9.3h46.5v9.3h-7.38l-3.28-3.28a4.44,4.44,0,0,0-1.5-1,4.63,4.63,0,0,0-1.79-.37h-18.6a4.65,4.65,0,0,0-3.29,1.36L187,237.66Zm0,18.6V247h9.3a4.66,4.66,0,0,0,3.29-1.36l3.28-3.29h14.75l3.29,3.29A4.65,4.65,0,0,0,216.8,247h9.3v9.3Z"/></svg>