<?xml version="1.0" encoding="utf-8"?>
<!-- Generator: Adobe Illustrator 22.1.0, SVG Export Plug-In . SVG Version: 6.00 Build 0)  -->
<svg version="1.1" id="Calque_1" xmlns="http://www.w3.org/2000/svg" xmlns:xlink="http://www.w3.org/1999/xlink" x="0px" y="0px"
	 viewBox="0 0 350 300" style="enable-background:new 0 0 350 300;" xml:space="preserve">
<style type="text/css">
	.st0{fill:#050505;}
</style>
<title>selected</title>
<g>
	<g>
		<path class="st0" d="M332.2,202.9l-0.8-4c-0.4-2.6-2.7-4.4-5.3-4.4c-0.3,0-0.6,0-1,0.1l-15,2.8l6.8-4.5c1.8-1.2,2.7-3.3,2.3-5.5
			c-0.1-0.5-0.3-1.2-0.6-1.6l-2-3.6c-0.8-1.3-1.9-2.1-3.3-2.6c-0.6-0.2-1.4-0.2-2-0.1c0.8-4.2,1.2-8.5,1.2-12.8
			c0-1.9-1.2-3.5-2.8-4.3c2.1-5.2,2.4-11.1,0.2-16.4c-0.2-0.4-0.4-0.9-0.8-1.2s-0.8-0.5-1.2-0.8c-2.6-1.1-5.3-1.5-8-1.5
			c-0.3,0-0.8,0-1.1,0c-0.4-7.9-7-14.3-14.9-14.3c-1.1,0-2,0.1-3.1,0.3c0.6-4.1,0.3-8.5-1.3-12.5c-0.2-0.4-0.4-0.9-0.8-1.2
			c-0.3-0.3-0.8-0.6-1.2-0.8c-2.8-1.1-5.7-1.6-8.6-1.6c-4.5,0-8.7,1.3-12.5,3.5c-1.4-3.9-3.5-7.6-6.7-10.7c-0.9-0.9-2.1-1.4-3.4-1.4
			c-1.3,0-2.5,0.5-3.4,1.4l-13.7,13.7c-2.6-2.3-5.9-3.6-9.6-3.6c-0.9,0-1.6,0.1-2.5,0.2c-3,0.5-5.7,1.9-7.7,4.1
			c-2.7-1.3-5.8-1.7-8.7-1.2c-0.6,0.1-1.3,0.3-1.9,0.4v-10.6c0-7.3-5.9-13.3-13.1-13.4v-6c2.3-0.4,4-2.4,4-4.6V70.8
			c0-2.6-2.1-4.7-4.7-4.7h-23.1c-2.6,0-4.7,2.1-4.7,4.7v13.6c0,2.4,1.7,4.3,4,4.6v6c-7.3,0.1-13.1,6.1-13.1,13.4v82.8
			c-5.7,5.2-9.2,12.2-9.2,20.2c0,15.6,13.6,28.1,30.4,28.1h113.6c3.9,0,7.5-1.7,10-4.7c2.4-2.9,3.4-6.7,2.9-10.3l22.6,4.1
			c0.3,0.1,0.6,0.1,1,0.1c1.2,0,2.3-0.3,3.1-1c1.2-0.9,1.9-2.1,2.1-3.5l0.6-4.1c0.1-0.6,0.1-1.2,0-1.7c-0.4-2.1-2-3.8-4.1-4.3
			l-7.9-1.8l15-2.8c1.4-0.2,2.7-1.1,3.4-2.3C332.2,205.7,332.5,204.3,332.2,202.9z M162.7,71.5h21.1v11.7h-21.1V71.5z M153.5,119.7
			c0-1.9,0-3.8,0-5.7v-5.8c0-4.3,3.4-7.7,7.7-7.7h24.3c4.3,0,7.7,3.4,7.7,7.7v5.8c0,1.9,0,3.8,0,5.7v2.5c-3.2,3.2-4.9,7.8-4.1,12.7
			l0,0c-4.5,3.1-7,8.7-6,14.3c0.1,0.3,0.1,0.6,0.2,1c-1.4,0.8-2.7,1.8-3.8,3h-25.9v-33.4H153.5z M153.5,158.8L153.5,158.8h22.6
			c-0.3,1-0.5,1.9-0.6,3h-0.4c-2.6,0-4.7,2.1-4.7,4.7c0,4.5,0.4,8.9,1.2,13.2c-0.9-0.1-1.6-0.1-2.5-0.1c-3.4,0-6.7,0.5-9.2,1.5
			c-3.9,1.5-4.9,3.6-5.2,5.2c-0.4,0.2-0.8,0.4-1.2,0.6V158.8z M189.4,193.7c1.1,0.9,1.6,1.5,2,2h-0.1c-1.6,0-4.5-0.6-7.7-2.5
			c-1.2-0.6-2.4-1.4-3.2-2.3c-1.1-0.9-2.6-0.9-3.6,0c-0.9,0.8-2,1.5-3.2,2.3c-3.3,1.8-6.1,2.5-7.7,2.5h-0.1c0.3-0.5,1-1.2,2-2
			c0.9-0.8,1.3-1.9,1-3s-1.3-1.9-2.4-2c-2.8-0.3-4.5-1.1-5.4-1.5c1.1-0.6,3.6-1.7,8.3-1.7c3.9,0,6.7,0.9,8,1.6
			c0.9,0.5,1.9,0.5,2.8,0c1.4-0.8,4.2-1.6,8-1.6c4.7,0,7.3,1.1,8.3,1.7c-0.9,0.5-2.6,1.2-5.4,1.5c-1.2,0.1-2,1-2.4,2
			C188.2,191.7,188.5,192.9,189.4,193.7z M183.8,228.2l0.1,0.5c0.3,1.8,1.1,3.5,2,4.9h-16.9c-13.6,0-24.7-10.1-24.7-22.4
			c0-8.5,5.2-15.9,12.8-19.6c0.9,0.6,1.9,1.2,3.2,1.7c-0.5,0.9-0.9,1.8-1,2.8c-0.1,1.3,0.3,2.6,1.2,3.5c1.1,1.3,2.8,1.9,5,1.9
			c3,0,7-1.2,10.5-3.2c0.9-0.4,1.6-1,2.4-1.4c0.8,0.5,1.5,1,2.4,1.4c3.5,2,7.5,3.2,10.5,3.2l0,0c2.3,0,4-0.6,5-1.9
			c0.9-1,1.3-2.1,1.2-3.5c-0.1-1-0.4-1.9-1-2.8c1.3-0.4,2.4-1,3.2-1.7c6,3,10.5,8.3,12.1,14.6l-20.1,7.6
			C186,216,182.6,222,183.8,228.2z M288.2,231c-1.4,1.7-3.4,2.7-5.7,2.7h-3l-1.8-10.1c-0.3-1.5-1.7-2.6-3.3-2.3
			c-1.5,0.3-2.6,1.7-2.3,3.3l1.7,9H264l-1.3-6.8c-0.3-1.5-1.7-2.6-3.3-2.3c-1.5,0.3-2.6,1.7-2.3,3.3l1.1,5.8h-22.8l-1.7-9.2
			c-0.3-1.5-1.7-2.6-3.3-2.3c-1.5,0.3-2.6,1.7-2.3,3.3l1.5,8.2h-33.2l0,0c-3.5,0-6.5-2.5-7.2-6l-0.1-0.5c-0.6-3.4,1.3-6.9,4.6-8.2
			l11.2-4.2l0.9,4.5c0.2,1.4,1.4,2.4,2.8,2.4c0.2,0,0.3,0,0.5,0c1.5-0.3,2.6-1.7,2.3-3.3l-1-5.5c10.6-4.2,21.1-8.3,31.8-12.5
			c15.6-7,21.8-10.3,21.5-11.1c-0.3-0.8-7,1-22.9,6.2c-7.8,2.9-15.7,5.8-23.5,8.6c-2.1-7.6-7.7-14.1-15-17.7
			c-0.2-1.5-1.3-3.6-5.2-5.2c-2.5-1-5.8-1.5-9.2-1.5c-2.4,0-4.6,0.2-6.7,0.8V179c0-1.6-1.3-2.8-2.8-2.8c-0.6,0-1.3,0.2-1.7,0.6
			c-0.4-3-0.8-6-0.8-9h92.4c5.5,0,10.8,0,16.3,0h22c-0.1,5.2-0.8,10.3-2,15.2l-15.3,9.1c-1-3.2-3.1-6-6.1-7.7
			c-3.3-1.9-7.4-2.1-11.1-0.9l-31.7,12c-1.5,0.5-2.3,2.1-1.6,3.6c0.5,1.5,2.1,2.3,3.6,1.6l4.2-1.6l1.3,7c0.2,1.4,1.4,2.4,2.8,2.4
			c0.2,0,0.3,0,0.5,0c1.5-0.3,2.6-1.7,2.3-3.3l-1.5-8l22.1-8.4c2-0.8,4.3-0.6,6.2,0.4c1.9,1.1,3.2,2.9,3.6,5l5.7,31
			C290.1,227.2,289.6,229.3,288.2,231z M298.3,208.8c-1.3,0.2-2.3,1.4-2.4,2.7c0,1.4,0.9,2.6,2.3,2.8l21.1,4.8l-0.5,3.5l-24.5-4.4
			l-3.9-20.7l21.4-12.6l1.8,3.1l-18,12c-1.1,0.8-1.6,2.1-1.1,3.4c0.5,1.3,1.8,1.9,3.1,1.7l28.2-5.2l0.6,3.4L298.3,208.8z"/>
	</g>
</g>
<path class="st0" d="M47.4,77h3.1v1.7c2-0.1,4.2-0.2,6.2-0.3V77h6.3v1.3c2.1,0,4.2,0.2,6.2,0.5v-1.7h3.1c1.7,0,3.1-1.4,3.1-3.1V58.3
	c0-3.4-2.8-6.3-6.3-6.3H50.5c-2.3,0-4.3,1.2-5.4,3.1c-0.3,2-0.5,4.2-0.9,6.2v12.6C44.2,75.6,45.6,77,47.4,77z M50.6,58.2h18.8v12.6
	H50.6V58.2z"/>
<path class="st0" d="M154.1,81c0-1.7-1.4-3.1-3.1-3.1H88.2c-1.7,0-3.1,1.4-3.1,3.1v12.6c0,0.1,0,0.1,0,0.2c0,0.1,0,0.1,0,0.2
	l0.4,3.4c-1.2-0.4-2.4-0.8-3.5-0.8h-6.3V81c0-1.7-1.4-3.1-3.1-3.1h-3.2v-1.3c-2-0.4-4.2-0.6-6.2-0.8v1.9h-6.3v-1.8
	c-2.1,0.1-4.2,0.2-6.2,0.4v1.5h-3.1c-1.7,0-3.1,1.4-3.1,3.1v15.7h-6.2c-5.2,0-9.4,4.2-9.4,9.4v113c0,5.2,4.2,9.4,9.4,9.4h44
	c5.2,0,9.4-4.2,9.4-9.4v-72l6.3,53.3v28.1h43.8c0-2,0.1-4.2,0.1-6.3v-21.8l0.8-6.4c0.2-2.1,0.5-4.2,0.8-6.3l2.3-18.9
	c0.2-2.1,0.5-4.2,0.8-6.3l1.7-14.9c0.3-2.8,0.6-5.6,1-8.3l0.8-6.2c0.4-3.8,0.9-7.4,1.3-11.2l3.3-28c0-0.1,0-0.1,0-0.2
	c0-0.1,0-0.1,0-0.2V81H154.1z M50.6,84.1h18.8v12.6H50.6V84.1z M85,187.7H34.8V128H85V187.7z M85,121.8H34.8v-15.7
	c0-1.7,1.4-3.1,3.1-3.1h44c1.7,0,3.1,1.4,3.1,3.1V121.8z M93.5,84.1h52.1v6.3H93.5V84.1z M135.2,222.2h-31.3v-6.3h6.3
	c0.9,0,1.6-0.3,2.3-1l2.3-2.3h10l2.3,2.3c0.5,0.5,1.4,1,2.3,1h6.2v6.3H135.2z M135.2,209.7h-4.9l-2.3-2.3c-0.3-0.3-0.6-0.5-1-0.6
	c-0.4-0.2-0.8-0.2-1.2-0.2h-12.6c-0.9,0-1.6,0.3-2.3,1l-2.3,2.3h-4.9v-6.3h31.3L135.2,209.7L135.2,209.7z M135.7,197.1h-32.1
	L91.8,96.6h55.7L135.7,197.1z"/>
</svg>
