<svg id="Calque_1" data-name="Calque 1" xmlns="http://www.w3.org/2000/svg" viewBox="0 0 350 300"><title>selected</title><path d="M201.56,71.67V85.34H180.68V71.67h20.88m36.11,46.94v13.67H226.88l-.44,3.48-7,54.7-.41,3.2h-6.2A18.43,18.43,0,0,0,197,221.56l-2.62-2.36v14.56a18.33,18.33,0,0,0,3.25,10.45H112L98,135.76l-.45-3.48H86.8V118.61H237.67M281,217.41v2.49l-1.84,1.66a18,18,0,0,0,1.84-4.15M234.45,38.79H198.34a32.53,32.53,0,0,0-32.49,32.49,3.6,3.6,0,0,0,3.61,3.61h7.22v9.34L166.9,94a3.61,3.61,0,0,0-1.05,2.55v18h-7.22V85.73a3.69,3.69,0,0,0-.27-1.31,4.1,4.1,0,0,0-.22-.41,4.17,4.17,0,0,0-.31-.54L144.18,66.41v-24a3.6,3.6,0,0,0-3.61-3.61H118.91a3.6,3.6,0,0,0-3.61,3.61v24L101.65,83.47a4.17,4.17,0,0,0-.31.54,4.1,4.1,0,0,0-.22.41,3.69,3.69,0,0,0-.27,1.31v28.88H86.41a3.61,3.61,0,0,0-3.61,3.61v14.44a3.62,3.62,0,0,0,3.61,3.62h7.66l14,108.78a3.62,3.62,0,0,0,3.59,3.15h85a21.63,21.63,0,0,0,16.11,7.22h5.65a25.68,25.68,0,0,0,11.42-2.7,18.47,18.47,0,0,1,16.4,0,25.74,25.74,0,0,0,11.42,2.7h5.66A21.68,21.68,0,0,0,285,233.76V212.1a21.68,21.68,0,0,0-21.66-21.66h-5.66a25.6,25.6,0,0,0-11.42,2.69,18.38,18.38,0,0,1-16.4,0,25.15,25.15,0,0,0-6.49-2.16l7-54.69h7.66a3.62,3.62,0,0,0,3.61-3.62V118.22a3.61,3.61,0,0,0-3.61-3.61H223.62V103.78a3.58,3.58,0,0,0-1.06-2.55l-17-17V73L211,68.64l9.35,18.7,6.46-3.23L216.8,64l4.47-3.58h13.18a3.61,3.61,0,0,0,3.61-3.61V42.4a3.61,3.61,0,0,0-3.61-3.61ZM223.62,53.23V46h7.22v7.22Zm-50.3,14.44a25.31,25.31,0,0,1,25-21.66H216.4v9.1L200.69,67.67Zm-50.8-3.61V46H137V64.06ZM112,82.11l8.66-10.83h18.2l8.66,10.83Zm61.09,32.5V98.05l8.71-8.71h18.68l15.94,15.93v9.34Zm-65,0V89.34H151.4v25.27Zm130,87.66a25.64,25.64,0,0,0,11.43-2.68,18.33,18.33,0,0,1,8.19-1.93h5.66a14.44,14.44,0,0,1,0,28.88h-5.66a18.33,18.33,0,0,1-8.19-1.93,25.63,25.63,0,0,0-22.86,0,18.33,18.33,0,0,1-8.19,1.93h-5.65a14.44,14.44,0,1,1,0-28.88h5.65a18.33,18.33,0,0,1,8.19,1.93,25.67,25.67,0,0,0,11.43,2.68Zm19.62,31.49h5.66a21.54,21.54,0,0,0,14.44-5.56v5.56a14.45,14.45,0,0,1-14.44,14.45h-5.66a18.47,18.47,0,0,1-8.19-1.94,25.71,25.71,0,0,0-22.86,0,18.47,18.47,0,0,1-8.19,1.94h-5.65a14.45,14.45,0,0,1-14.45-14.45V228.2a21.55,21.55,0,0,0,14.45,5.56h5.65a25.53,25.53,0,0,0,11.42-2.69,18.38,18.38,0,0,1,16.4,0,25.6,25.6,0,0,0,11.42,2.69Z"/></svg>