<?xml version="1.0" encoding="utf-8"?>
<!-- Generator: Adobe Illustrator 22.1.0, SVG Export Plug-In . SVG Version: 6.00 Build 0)  -->
<svg style="enable-background:new 0 0 500 500;" id="Calque_1" version="1.1" viewBox="0 0 500 500" x="0px"
     xmlns="http://www.w3.org/2000/svg" y="0px" xml:space="preserve">
<style type="text/css">
	.st0{fill:#4FBDD7;}
	.st1{fill:#EAEAEA;}
	.st2{fill:#FFFFFF;}
	.st3{fill:#4FBDD7;stroke:#FFFFFF;stroke-width:5;stroke-miterlimit:10;}
	.st4{fill:#8C8C8C;}
	.st5{fill:#070707;}
	.st6{fill:none;stroke:#FFFFFF;stroke-width:7;stroke-miterlimit:10;}
	.st7{fill:none;stroke:#FFFFFF;stroke-width:10;stroke-miterlimit:10;}
	.st8{fill:#FFFFFF;stroke:#FFFFFF;stroke-width:3;stroke-miterlimit:10;}
	.st9{fill:none;stroke:#FDFFFF;stroke-width:6;stroke-miterlimit:10;}
	.st10{fill:#FAFEFF;}
	.st11{fill:none;stroke:#FFFFFF;stroke-width:2;stroke-miterlimit:10;}
	.st12{fill:#FFFFFF;stroke:#FFFFFF;stroke-width:2;stroke-miterlimit:10;}
	.st13{fill:#4FBDD7;stroke:#FFFFFF;stroke-width:4;stroke-miterlimit:10;}
	.st14{fill:#FFFFFF;stroke:#FFFFFF;stroke-width:4;stroke-miterlimit:10;}
	.st15{fill:none;stroke:#FFFFFF;stroke-miterlimit:10;}
	.st16{fill:#FFFFFF;stroke:#FFFFFF;stroke-width:13;stroke-miterlimit:10;}
	.st17{fill:#4FBDD7;stroke:#FFFFFF;stroke-width:8;stroke-miterlimit:10;}
	.st18{fill:#FFFFFF;stroke:#FFFFFF;stroke-width:0.75;stroke-miterlimit:10;}
	.st19{fill:#FFFFFF;stroke:#FFFFFF;stroke-width:0.5;stroke-miterlimit:10;}
	.st20{fill:#FFFFFF;stroke:#FFFFFF;stroke-width:8;stroke-miterlimit:10;}
	.st21{fill:#FFFFFF;stroke:#FFFFFF;stroke-miterlimit:10;}
	.st22{fill:#FFFFFF;stroke:#FFFFFF;stroke-width:11;stroke-miterlimit:10;}
	.st23{fill:#FFFFFF;stroke:#FFFFFF;stroke-width:6;stroke-miterlimit:10;}
	.st24{fill:#8C8C8C;stroke:#8C8C8C;stroke-width:4;stroke-miterlimit:10;}
	.st25{fill:#FFFFFF;stroke:#FFFFFF;stroke-width:1.05;stroke-miterlimit:10;}
	.st26{fill:none;stroke:#4FBDD7;stroke-width:5;stroke-miterlimit:10;}
	.st27{fill:none;stroke:#FFFFFF;stroke-width:4;stroke-miterlimit:10;}
	.st28{fill:#8C8C8C;stroke:#FFFFFF;stroke-width:4;stroke-miterlimit:10;}
	.st29{fill:#FFFFFF;stroke:#FFFFFF;stroke-width:10;stroke-miterlimit:10;}
	.st30{fill:none;stroke:#4FBDD7;stroke-width:2;stroke-miterlimit:10;}
	.st31{fill-rule:evenodd;clip-rule:evenodd;fill:#FFFFFF;}
	.st32{fill:#FFFFFF;stroke:#FFFFFF;stroke-width:7;stroke-miterlimit:10;}
	.st33{fill:#FFFFFF;stroke:#4FBDD7;stroke-width:7;stroke-miterlimit:10;}
	.st34{fill:none;}
	.st35{font-family:'HelveticaNeue-CondensedBold';}
	.st36{font-size:54px;}
	.st37{fill:#FCFCFC;}
	.st38{fill:#FFFFFF;stroke:#FFFFFF;stroke-width:5;stroke-miterlimit:10;}
	.st39{fill:none;stroke:#FFFFFF;stroke-width:3;stroke-miterlimit:10;}
	.st40{fill:none;stroke:#FFFFFF;stroke-width:8;stroke-miterlimit:10;}
	.st41{fill:none;stroke:#FFFFFF;stroke-width:6;stroke-miterlimit:10;}
	.st42{fill:#FFFFFF;stroke:#4FBDD7;stroke-width:3;stroke-miterlimit:10;}
	.st43{fill:none;stroke:#FFFFFF;stroke-width:0.75;stroke-miterlimit:10;}
	.st44{fill:#4FBDD7;stroke:#FFFFFF;stroke-width:9;stroke-miterlimit:10;}
	.st45{fill:none;stroke:#FFFFFF;stroke-width:9;stroke-miterlimit:10;}
	.st46{fill:none;stroke:#4FBDD7;stroke-width:3;stroke-miterlimit:10;}
</style>
    <rect class="st0" height="500" width="500" x="-1"/>
    <g>
	<rect class="st34" height="144" width="500" y="362"/>
        <text transform="matrix(1 0 0 1 109.1704 400.5557)"><tspan class="st2 st35 st36" x="0" y="0">Produits soin </tspan>
            <tspan class="st2 st35 st36" x="79.4" y="64.8">barbe</tspan></text>
</g>
    <g>
	<path class="st2" d="M237.6,125c2.4,0,4.8,0,7.2,0V96.7c0,0,0,0,0,0c0-3.2,3.2-5.8,7.2-5.8c4,0,7.2,2.6,7.2,5.8c0,0,0,0,0,0v28.2
		c2.4,0,4.8,0,7.2,0V96.7c0,0,0,0,0,0c0-6.4-6.4-11.7-14.4-11.7c-7.9,0-14.4,5.2-14.4,11.7c0,0,0,0,0,0.1V125z"/>
        <path class="st2" d="M291,141.7C291,141.7,291,141.7,291,141.7l-7.2,0v-7.2c0-5.9-4.8-10.8-10.8-10.8h-43.1
		c-5.9,0-10.8,4.8-10.8,10.8v7.2H212c0,0,0,0,0,0c-9.9,0-17.9,8.1-18,17.9v115c0,13.9,11.3,25.1,25.2,25.1h64.7
		c13.9,0,25.1-11.3,25.2-25.1v0v-115v0C309,149.7,300.9,141.7,291,141.7 M226.3,134.5c0-2,1.6-3.6,3.6-3.6h43.1c2,0,3.6,1.6,3.6,3.6
		v7.2h-7.1c-0.1,0-0.1,0-0.2,0c-0.1,0-0.1,0-0.2,0h-35.5c-0.1,0-0.1,0-0.2,0c-0.1,0-0.1,0-0.2,0h-7V134.5z M255.1,271.2
		c-0.1,1.9-1.6,3.5-3.6,3.5c-2,0-3.6-1.6-3.6-3.6v-7.2h7.2L255.1,271.2C255.1,271.1,255.1,271.2,255.1,271.2 M215.5,181.2h71.9v75.5
		h-71.9V181.2z M255.1,174h-7.2v-14.4h7.2V174z M237.1,148.9h28.7v3.6h-28.7V148.9z M201.2,159.6c0-5.9,4.8-10.8,10.7-10.8
		c0,0,0,0,0,0h18v7.2c0,2,1.6,3.6,3.6,3.6h7.2V174h-28.8c-2,0-3.6,1.6-3.6,3.6v18h-7.2V159.6z M301.8,274.6c0,9.9-8.1,18-18,18
		h-64.7c-9.9,0-18-8.1-18-18v-71.9h7.2v57.5c0,2,1.6,3.6,3.6,3.6h28.8v7.3c0,0,0,0,0,0.1c0.1,5.9,4.9,10.7,10.8,10.7
		c5.9,0,10.8-4.8,10.8-10.8c0-0.1,0-0.1,0-0.1v-7.1h28.8c2,0,3.6-1.6,3.6-3.6v-57.5h7.2V274.6z M301.8,195.6h-7.2v-18
		c0-2-1.6-3.6-3.6-3.6h-28.8v-14.4h7.1c2,0,3.6-1.6,3.6-3.6v-7.2h18c0,0,0,0,0,0c5.9,0,10.7,4.8,10.7,10.8V195.6z"/>
        <path class="st2" d="M283.4,214c-1.8,1.4-4.6,3.5-7.6,4.9c-5.1,2.4-9,3.4-14.7,3.4c-3.6,0-7.2-1.7-9.3-4.7c-2.1,3-5.6,4.7-9.3,4.7
		c-5.7,0-9.6-1-14.7-3.4c-3-1.4-5.8-3.5-7.6-4.9c-0.6-0.5-0.2-1.5,0.6-1.4c3.3,0.3,9.1,0.4,12.9-1.1c5.6-2.2,7.2-5,9-6.1
		c0.2-0.1,0.5-0.3,0.8-0.4c2.2-0.9,4.8-0.9,6.8,0.3c0.5,0.3,1,0.6,1.5,1.1c0.5-0.5,1-0.8,1.5-1.1c2.1-1.2,4.6-1.2,6.8-0.3
		c0.3,0.1,0.5,0.2,0.8,0.4c1.8,1.1,3.3,3.9,9,6.1c3.8,1.5,9.6,1.3,12.9,1.1C283.6,212.5,284,213.5,283.4,214"/>
</g>
</svg>
