<svg id="Calque_1" data-name="Calque 1" xmlns="http://www.w3.org/2000/svg" viewBox="0 0 350 300"><title>selected</title><path d="M113.5,50.56a11.65,11.65,0,0,1,11.63,11.63V85.82L126.18,87c3.73,4.07,15.94,18.73,16.46,36.83V162l4.45-.51a65.79,65.79,0,0,1,7.33-.43,41.13,41.13,0,0,1,19.42,4.58,34.08,34.08,0,0,0,5.71,2.27,6.74,6.74,0,0,0,1.66.21,6.84,6.84,0,0,0,5.9-3.56c3.12-5.35-2.37-13.24-4.13-15.53a32.15,32.15,0,0,0-2.57-2.95c.88.21,1.77.44,2.68.67,11.46,2.92,14.67,4.6,17.66,6.5,9.82,6.2,15,15.27,15.37,26.94l.13,3.87h17.16c.23.61.47,1.34.69,2.16H101.35l.75,4.64c5.58,34.61,24,49.53,29.5,53.28l1,.69h57.5l1-.7c2.49-1.72,13.83-14,22.43-24,20-23.11,20.69-27.59,21-29.28l.22-1.36a17.45,17.45,0,0,1-2.23,11.61c-11.6,18.69-29.27,41.8-40.87,45.42-.56.18-1.15.34-1.73.47H132.38a1.08,1.08,0,0,1-.53-.14c-.23-.13-5.72-3.25-12.21-10.74l-1.19-1.38H82.28c-5.37,0-9.74-4.89-9.74-10.89V123.76C73.05,105.69,85.27,91,89,87l1-1.14V62.19a11.65,11.65,0,0,1,11.63-11.63H113.5M92.22,85.22H123v-23a9.47,9.47,0,0,0-9.46-9.46H101.68a9.47,9.47,0,0,0-9.46,9.46v23M82.28,232.58h34.07l-3.77-6.11c-7.16-11.57-11.67-25.44-13.43-41.21a1.15,1.15,0,0,1,.27-.85,1.12,1.12,0,0,1,.81-.35h13.68L115,181.9a37.56,37.56,0,0,1,22.62-18.55l2.83-.86V123.74c-.5-16.47-11.1-30-15.64-35l-1.19-1.33H91.54l-1.19,1.33c-4.54,5.05-15.14,18.56-15.64,35V223.85c0,4.81,3.4,8.73,7.58,8.73m98.93-62.29A8.77,8.77,0,0,1,179,170a35.23,35.23,0,0,1-6.07-2.39,39.2,39.2,0,0,0-18.5-4.4,69.25,69.25,0,0,0-9.79.78c-12.68,1.87-20.19,8.42-24.26,13.59l-5.09,6.48h98.84l-.2-4.2c-.74-15.23-10.25-23-18.1-26.91l-7.34-3.63,1.65,8a11.66,11.66,0,0,1-1.15,8.31,9,9,0,0,1-7.78,4.64M113.5,46.56H101.68A15.65,15.65,0,0,0,86.05,62.19V84.26c-4.47,4.86-17,20.15-17.51,39.38V223.85c0,8.21,6.16,14.89,13.74,14.89h34.34c6.84,7.9,12.73,11.31,13.27,11.61a5,5,0,0,0,2.49.65h58c.85-.18,1.68-.4,2.48-.65,16.69-5.21,39.59-41.51,43.08-47.13,6.56-10.57.45-22.53.11-23.16H220.12c-.53-16.1-9.42-25.25-17.23-30.19-3.62-2.29-7.39-4.08-18.81-7-12.92-3.29-23.73-5.08-27-5.08-.65,0-1,.07-1,.21-.21.94,15.13,2.14,23.8,13.46.48.62,5.75,7.83,3.86,11.09a3,3,0,0,1-2.45,1.57,2.59,2.59,0,0,1-.66-.08,32.27,32.27,0,0,1-5-2,44.7,44.7,0,0,0-21.11-5,69.71,69.71,0,0,0-7.78.46V123.64c-.55-19.23-13-34.52-17.51-39.38V62.19A15.65,15.65,0,0,0,113.5,46.56ZM96.22,81.22v-19a5.47,5.47,0,0,1,5.46-5.46H113.5A5.47,5.47,0,0,1,119,62.19v19ZM82.28,228.58c-1.94,0-3.58-2.17-3.58-4.73v-100c.47-15.38,10.86-28.29,14.63-32.48h28.52c3.77,4.19,14.16,17.1,14.63,32.48v35.67a41.63,41.63,0,0,0-25,20.53H100.23a5.07,5.07,0,0,0-5,5.64c2.1,18.89,7.8,32.85,14,42.88Zm98.93-54.29a13,13,0,0,0,11.24-6.63,15.72,15.72,0,0,0,1.61-11.13c7.18,3.54,15.24,10.43,15.87,23.53H123.52c3.71-4.71,10.41-10.45,21.71-12.11a63,63,0,0,1,9.2-.74,35.23,35.23,0,0,1,16.81,4,38,38,0,0,0,6.76,2.64,12.69,12.69,0,0,0,3.21.42Zm-47.36,66.54c-4.47-3-22.4-17.15-27.8-50.61H230.59c-1.24,7.69-38.28,48.25-41.71,50.61Z"/><path d="M229.7,46a1.09,1.09,0,0,1,1,.73l8,23.39,1.3,3.77,3.77-1.28.69-.23a1,1,0,0,1,.35-.06,1.13,1.13,0,0,1,.48.11,1.1,1.1,0,0,1,.55.63l3,9c4.93,14.57,3.31,31-4,40l-1.26,1.55.49,1.94,25.85,103a2,2,0,0,1,0,1.12,2,2,0,0,1-1,.37,1.08,1.08,0,0,1-.94-.65L226,131.47l-.73-1.71-1.79-.54c-9.55-2.86-22.29-13.2-27.7-29.15l-3.05-9a1.09,1.09,0,0,1,.59-1.34l3.36-1.48-1.19-3.47-8-23.24a1.09,1.09,0,0,1,.67-1.38,1.13,1.13,0,0,1,.36-.06,1.08,1.08,0,0,1,1,.74l8,23.25,1.3,3.77,3.77-1.28,4.11-1.39,3.81-1.29-1.31-3.8-8-23.26a1.09,1.09,0,0,1,.67-1.38,1.07,1.07,0,0,1,.35-.06,1.1,1.1,0,0,1,1,.74l8,23.29,1.3,3.77,3.77-1.28,4.11-1.39,3.8-1.29-1.3-3.79-8-23.31a1.09,1.09,0,0,1,.67-1.38,1.13,1.13,0,0,1,.36-.06,1.09,1.09,0,0,1,1,.73l8,23.35,1.3,3.77,3.77-1.28,4.11-1.4,3.8-1.28-1.3-3.8-8-23.35a1.07,1.07,0,0,1,.67-1.38,1,1,0,0,1,.35-.06h0m-2.48,81.75c3.19,0,12.09-3.11,14.49-5.38,6.82-6.46,10.94-22.54,5.16-39.62l-1.42-4.18-1.29-3.79-3.79,1.28L198.89,90.12,195.1,91.4l1.28,3.79,1.42,4.19c5.26,15.5,18.56,26.56,28.39,28.28a5.64,5.64,0,0,0,1,.09M229.7,42a5,5,0,0,0-1.65.28,5.08,5.08,0,0,0-3.16,6.45l8,23.36-4.11,1.39-8-23.34A5.08,5.08,0,0,0,216,46.7a5,5,0,0,0-1.65.28,5.07,5.07,0,0,0-3.16,6.45l8,23.31L215,78.14l-8-23.3a5.08,5.08,0,0,0-9.62,3.29l8,23.27-4.11,1.39-8-23.25a5.1,5.1,0,0,0-4.81-3.44,5,5,0,0,0-1.65.28,5.07,5.07,0,0,0-3.16,6.45l8,23.24a5.09,5.09,0,0,0-2.77,6.28l3.05,9c5.72,16.88,19.3,28.4,30.34,31.7l42.06,97.85A5.09,5.09,0,0,0,269,234c.41,0,6-.34,4.93-6.33L248.07,124.54c8.07-10,10.08-27.69,4.64-43.77l-3.06-9a5.07,5.07,0,0,0-6.44-3.18l-.69.23-8-23.38A5.09,5.09,0,0,0,229.7,42Zm-2.48,81.75a1.72,1.72,0,0,1-.34,0c-8.49-1.49-20.57-11.71-25.29-25.63l-1.42-4.19,41.49-14.05L243.08,84C248.14,99,245,113.78,239,119.46c-1.44,1.36-9.3,4.29-11.74,4.29Z"/></svg>