<svg id="Calque_1" data-name="Calque 1" xmlns="http://www.w3.org/2000/svg" viewBox="0 0 350 300"><title>selected</title><path d="M176.52,120.5a35.07,35.07,0,0,1,21,63.12l-1.73,1.3-1.6,1.2V199a9,9,0,0,1-9,9H150.48a9,9,0,0,1-9-9V186.12l-1.6-1.2-1.73-1.3a35.07,35.07,0,0,1,21-63.12h17.36m-34.38,65.28V199a8.35,8.35,0,0,0,8.34,8.34h8.34v-13h.68v13h16.68v-13h.68v13h8.34a8.36,8.36,0,0,0,8.35-8.34v-13.2l3.61-2.7a34.39,34.39,0,0,0-20.64-61.9H159.16a34.39,34.39,0,0,0-20.63,61.9l3.61,2.7m34.38-69.28H159.16a39.07,39.07,0,0,0-23.44,70.32l1.73,1.3V199a13,13,0,0,0,13,13H185.2a13,13,0,0,0,13-13V188.12l1.73-1.3a39.07,39.07,0,0,0-23.44-70.32Zm-26,86.82a4.35,4.35,0,0,1-4.34-4.34v-15.2l-5.21-3.9a30.39,30.39,0,0,1,18.23-54.7h17.36a30.39,30.39,0,0,1,18.24,54.7l-5.21,3.9V199a4.35,4.35,0,0,1-4.35,4.34h-4.34v-13h-8.68v13H163.5v-13h-8.68v13Z"/><path d="M187.75,142.2a6.49,6.49,0,0,1,6.48,6.48v5.09a6.49,6.49,0,0,1-6.48,6.48,6.4,6.4,0,0,1-4.58-1.9l-5.09-5.08a6.48,6.48,0,0,1,4.58-11.07h5.09m-.13,17.3a5.84,5.84,0,0,0,5.93-5.73v-5.09a5.81,5.81,0,0,0-5.8-5.79h-5.09a5.79,5.79,0,0,0-4.1,9.89l5.08,5.09a5.61,5.61,0,0,0,4,1.63m.13-21.3h-5.09a10.48,10.48,0,0,0-7.41,17.89l5.09,5.09a10.48,10.48,0,0,0,17.89-7.41v-5.09a10.5,10.5,0,0,0-10.48-10.48Zm-.13,17.3a1.57,1.57,0,0,1-1.14-.46L181.39,150a1.8,1.8,0,0,1,1.27-3.07h5.09a1.8,1.8,0,0,1,1.8,1.79v5.09a1.87,1.87,0,0,1-1.93,1.73Z"/><path d="M153,142.2a6.48,6.48,0,0,1,4.58,11.07l-5.08,5.08a6.48,6.48,0,0,1-11.07-4.58v-5.09a6.49,6.49,0,0,1,6.48-6.48H153m-5,17.3a5.59,5.59,0,0,0,4-1.63l5.09-5.09a5.79,5.79,0,0,0-4.1-9.89h-5.09a5.8,5.8,0,0,0-5.79,5.79v5.09a5.83,5.83,0,0,0,5.91,5.73m5-21.3h-5.09a10.5,10.5,0,0,0-10.48,10.48v5.09a10.48,10.48,0,0,0,17.89,7.41l5.09-5.09A10.48,10.48,0,0,0,153,138.2Zm-5,17.3a1.86,1.86,0,0,1-1.91-1.73v-5.09a1.79,1.79,0,0,1,1.79-1.79H153a1.8,1.8,0,0,1,1.27,3.07L149.21,155a1.61,1.61,0,0,1-1.16.46Z"/><path d="M115.75,25a9,9,0,0,1,9,9v8.34h4a4.59,4.59,0,0,1,2.43.69H74.25a4.59,4.59,0,0,1,2.43-.69h4V34a9,9,0,0,1,9-9h26.05M81.36,42.36h42.73V34a8.35,8.35,0,0,0-8.34-8.34h-26A8.35,8.35,0,0,0,81.36,34v8.34m140.47,0a9,9,0,0,1,8.76,6.84l6.85,27.42.17.67.39.58,17,25.5V225.11l0,.06a47.19,47.19,0,0,1-42.45,26.24H123.16A47.19,47.19,0,0,1,81.84,227.3h0l.71,0a46.63,46.63,0,0,0,40.56,23.49h89.36a46.63,46.63,0,0,0,41.33-24.89l.47-.88V103.82h-173v95.5h-.68V60.41h-4a4.67,4.67,0,0,1-2.43-.68H131.2a4.67,4.67,0,0,1-2.43.68h-4V77.09h25.44l.76-3,6.21-24.86a9,9,0,0,1,8.76-6.84h55.89M150.91,77.09h17.2l.75-3,3.59-14.33h42.88l3.58,14.33.76,3h17.19l-1.24-5-5.69-22.75a8.32,8.32,0,0,0-8.09-6.32h-55.9a8.34,8.34,0,0,0-8.1,6.32l-5.68,22.75-1.25,5m17.9,0H219l-1.24-5-2.17-8.68-.76-3H173l-.76,3-2.17,8.68-1.24,5M81.36,102.88l6.06-3.64,34.73-20.83,1.94-1.17V60.41H81.36v42.47m.9.26H254l-4.14-6.22L238.3,79.55l-1.19-1.78H124.53l-1,.57L94.64,95.71l-12.38,7.43M72.68,44.61V58.16A4.67,4.67,0,0,1,72,55.73V47.05a4.71,4.71,0,0,1,.68-2.44m60.09,0a4.62,4.62,0,0,1,.68,2.44v8.68a4.58,4.58,0,0,1-.68,2.43V44.61M115.75,21h-26a13,13,0,0,0-13,13v4.34A8.69,8.69,0,0,0,68,47.05v8.68a8.68,8.68,0,0,0,8.68,8.68V203.32h8.68v-95.5h165V224a42.53,42.53,0,0,1-37.8,22.76H123.16A42.53,42.53,0,0,1,85.36,224v-.91c-2.94.16-5.88.43-8.83.55,0,.84.09,1.65.15,2.44l.46.91a51.17,51.17,0,0,0,46,28.45h89.36a51.17,51.17,0,0,0,46-28.45l.46-.91V102.16L241.32,75.65l-6.85-27.42a13,13,0,0,0-12.64-9.87H165.94a13,13,0,0,0-12.64,9.87l-6.21,24.86H128.77V64.41a8.68,8.68,0,0,0,8.68-8.68V47.05a8.69,8.69,0,0,0-8.68-8.69V34a13,13,0,0,0-13-13ZM85.36,38.36V34a4.35,4.35,0,0,1,4.34-4.34h26.05A4.35,4.35,0,0,1,120.09,34v4.34ZM156,73.09l5.68-22.75a4.34,4.34,0,0,1,4.22-3.29h55.9a4.33,4.33,0,0,1,4.21,3.29l5.69,22.75h-9l-4.34-17.36H169.32L165,73.09ZM76.68,55.73V47.05h52.09v8.68Zm97.25,17.36,2.17-8.68h35.57l2.17,8.68ZM85.36,95.81V64.41h34.73V75L85.36,95.81ZM96.7,99.14l28.93-17.37H235l11.58,17.37Z"/><path d="M81.36,207.32v14.79h-.68V207.32h.68m4-4H76.68v22.79h8.68V203.32Z"/></svg>