<svg id="Calque_1" data-name="Calque 1" xmlns="http://www.w3.org/2000/svg" viewBox="0 0 350 300"><defs><style>.cls-1{fill:none;stroke:#000;stroke-miterlimit:10;stroke-width:5px;}</style></defs><title>selected</title><path class="cls-1" d="M305.92,206.68l-.69-3.71a5,5,0,0,0-4.93-4.1,5.5,5.5,0,0,0-.91.08l-14,2.58,6.34-4.24a5,5,0,0,0,2.14-5.08,5.09,5.09,0,0,0-.56-1.54l-1.92-3.4a5,5,0,0,0-3.08-2.38,4.88,4.88,0,0,0-1.94-.12,66.61,66.61,0,0,0,1.07-11.94,4.42,4.42,0,0,0-2.63-4,20.23,20.23,0,0,0,.16-15.33,3.16,3.16,0,0,0-.71-1.09,3.12,3.12,0,0,0-1.08-.71,20.17,20.17,0,0,0-7.47-1.44c-.33,0-.66,0-1,0A14,14,0,0,0,260.79,137a14.16,14.16,0,0,0-2.86.3,21.85,21.85,0,0,0-1.23-11.63,3.15,3.15,0,0,0-.73-1.12,3.36,3.36,0,0,0-1.1-.73,21.78,21.78,0,0,0-8.05-1.54,21.52,21.52,0,0,0-11.58,3.35,26.13,26.13,0,0,0-6.23-10,4.48,4.48,0,0,0-6.35,0l-12.8,12.82A13.28,13.28,0,0,0,201,125.1a13.77,13.77,0,0,0-2.31.2,13.41,13.41,0,0,0-7.24,3.81,13.34,13.34,0,0,0-8.09-1.14,12.56,12.56,0,0,0-1.76.43v-9.88a12.47,12.47,0,0,0-12.24-12.47v-5.61A4.4,4.4,0,0,0,173,96.11V83.41a4.41,4.41,0,0,0-4.4-4.41h-21.5a4.41,4.41,0,0,0-4.4,4.41v12.7a4.4,4.4,0,0,0,3.65,4.33v5.61a12.47,12.47,0,0,0-12.24,12.47v77.14a25.29,25.29,0,0,0-8.56,18.77c0,14.47,12.7,26.23,28.3,26.23l105.79,0a12.1,12.1,0,0,0,12-14l21.13,3.8a5.24,5.24,0,0,0,.88.08,5,5,0,0,0,5-4.27l.58-3.84a5.08,5.08,0,0,0,0-1.65,5,5,0,0,0-3.81-4l-7.45-1.71,14-2.57a5,5,0,0,0,4-5.84ZM148,84.29h19.74V95.23H148Zm-8.58,45V118.52a7.19,7.19,0,0,1,7.17-7.19h22.56a7.18,7.18,0,0,1,7.17,7.19v13.06a13.32,13.32,0,0,0-3.82,11.81v0a13.36,13.36,0,0,0-5.6,13.28c.05.3.12.6.19.89a14,14,0,0,0-3.52,2.77H139.41Zm0,36.4h21.08a14,14,0,0,0-.58,2.77h-.44a4.42,4.42,0,0,0-4.41,4.42,67.39,67.39,0,0,0,1.14,12.35c-.76-.06-1.54-.1-2.33-.1a24.1,24.1,0,0,0-8.57,1.43c-3.57,1.41-4.56,3.41-4.77,4.79-.38.19-.75.39-1.12.6Zm33.47,32.47a10.32,10.32,0,0,1,1.87,1.87h-.1a16.46,16.46,0,0,1-7.24-2.29,18.86,18.86,0,0,1-3-2.06,2.64,2.64,0,0,0-3.42,0,18.42,18.42,0,0,1-3,2.06,16.42,16.42,0,0,1-7.24,2.29h-.1a10.32,10.32,0,0,1,1.87-1.87,2.67,2.67,0,0,0,.89-2.8,2.63,2.63,0,0,0-2.23-1.89,12.61,12.61,0,0,1-5-1.44c1-.6,3.38-1.61,7.73-1.61a16.5,16.5,0,0,1,7.51,1.47,2.63,2.63,0,0,0,2.58,0,16.5,16.5,0,0,1,7.51-1.47c4.35,0,6.77,1,7.73,1.61a12.55,12.55,0,0,1-5,1.44,2.62,2.62,0,0,0-2.23,1.9A2.66,2.66,0,0,0,172.88,198.11Zm-5.29,32.17.09.49a12.09,12.09,0,0,0,1.91,4.61H153.86c-12.69,0-23-9.4-23-20.95,0-7.89,4.82-14.78,11.92-18.35a11.39,11.39,0,0,0,3,1.56,6.44,6.44,0,0,0-.89,2.61,4.33,4.33,0,0,0,1.05,3.26,6,6,0,0,0,4.72,1.76,21.85,21.85,0,0,0,9.8-3,24.34,24.34,0,0,0,2.18-1.34,24.34,24.34,0,0,0,2.18,1.34,21.88,21.88,0,0,0,9.8,3h0a6,6,0,0,0,4.72-1.76,4.33,4.33,0,0,0,1-3.26,6.29,6.29,0,0,0-.89-2.61,11.39,11.39,0,0,0,3-1.56,21.41,21.41,0,0,1,11.33,13.6l-18.7,7.1A12.1,12.1,0,0,0,167.59,230.28Zm97.32,2.61a6.83,6.83,0,0,1-5.26,2.46h-2.77L255.14,226a2.64,2.64,0,1,0-5.19,1l1.55,8.4h-9.09L241.24,229a2.64,2.64,0,1,0-5.2,1l1,5.37H215.88l-1.6-8.59a2.64,2.64,0,1,0-5.19,1l1.41,7.64H179.61a6.84,6.84,0,0,1-6.73-5.58l-.09-.49a6.8,6.8,0,0,1,4.29-7.59l10.39-3.94.77,4.17a2.65,2.65,0,0,0,2.6,2.17,2.61,2.61,0,0,0,.48-.05,2.64,2.64,0,0,0,2.12-3.08l-.95-5.12,29.57-11.6c14.48-6.54,20.28-9.65,20-10.33s-6.52.92-21.31,5.81l-21.9,8.05a26.84,26.84,0,0,0-14.05-16.5c-.21-1.38-1.2-3.38-4.77-4.79a24.06,24.06,0,0,0-8.57-1.43,27,27,0,0,0-6.16.69v-1.6a2.64,2.64,0,0,0-2.64-2.64,2.58,2.58,0,0,0-1.63.57,61.53,61.53,0,0,1-.69-8.4H282.14a60.91,60.91,0,0,1-1.86,14.18L266,196.33a12.15,12.15,0,0,0-16-8l-29.5,11.21a2.64,2.64,0,0,0,1.88,4.94l3.88-1.47,1.21,6.51a2.65,2.65,0,0,0,2.6,2.16,2.59,2.59,0,0,0,.48,0,2.65,2.65,0,0,0,2.12-3.08l-1.38-7.46,20.59-7.82a6.83,6.83,0,0,1,9.17,5.12l5.35,28.87A6.76,6.76,0,0,1,264.91,232.89Zm9.43-20.69a2.65,2.65,0,0,0-.11,5.18l19.68,4.51-.49,3.3-22.82-4.1L267,201.84l19.87-11.73,1.65,2.93-16.76,11.2a2.65,2.65,0,0,0,1.95,4.8l26.33-4.84.59,3.17Zm-31-60.88"/><path d="M61,66H43.48a5.82,5.82,0,0,0-5,2.93c-.27,1.95-.54,3.89-.82,5.84V86.48a2.93,2.93,0,0,0,2.93,2.92h2.93V91c1.94-.11,3.89-.24,5.85-.33V89.4h5.84v1.17a47.41,47.41,0,0,1,5.85.48V89.4H64a2.93,2.93,0,0,0,2.93-2.92V71.85A5.85,5.85,0,0,0,61,66ZM43.48,83.55V71.85H61v11.7Z"/><path d="M80.65,140.14l1.67,14.17-1.67.1V140.14M76.5,197.51v24.25a3.77,3.77,0,0,1-3.77,3.77h-41A3.77,3.77,0,0,1,28,221.76V197.51H76.5M55.17,88.33v1.8H49.33V88.39c-2,.09-3.91.24-5.85.36v1.38H40.55a2.93,2.93,0,0,0-2.93,2.93v14.62H31.77A8.78,8.78,0,0,0,23,116.46v105.3a8.77,8.77,0,0,0,8.77,8.77h41a8.77,8.77,0,0,0,8.77-8.77V154.65l5.85,49.73v26.15h40.83l.12-5.85v-20.3l.71-6,.69-5.85L131.76,175l.69-5.89,1.64-13.89q.45-3.88.92-7.75l.67-5.82q.62-5.19,1.22-10.39L140,105.11c0-.06,0-.11,0-.17s0-.12,0-.18V93.06a2.93,2.93,0,0,0-2.92-2.93H78.58a2.93,2.93,0,0,0-2.93,2.93v11.7c0,.06,0,.11,0,.17s0,.11,0,.17l.38,3.25a8.61,8.61,0,0,0-3.33-.67H66.88V93.06A2.93,2.93,0,0,0,64,90.13H61V89a36.62,36.62,0,0,0-5.85-.65Zm28.34,13.5V96H132v5.85Zm-40,5.85V96H61v11.7Zm49.4,93.6-11-93.6h51.91l-11,93.6Zm-64-70.2V116.46a2.93,2.93,0,0,1,2.92-2.93h41a2.93,2.93,0,0,1,2.92,2.93v14.62Zm0,61.43V136.93h46.8v55.58ZM93.2,213v-5.85h29.25V213h-4.64l-2.06-2.06a2.89,2.89,0,0,0-2.08-.86H102a2.91,2.91,0,0,0-2.07.85L97.84,213Zm0,11.7v-5.85h5.85a2.92,2.92,0,0,0,2.07-.86l2.06-2.06h9.28l2.07,2.06a2.92,2.92,0,0,0,2.07.86h5.85v5.85Z"/></svg>