<svg id="Calque_1" data-name="Calque 1" xmlns="http://www.w3.org/2000/svg" viewBox="0 0 350 300"><defs><style>.cls-1{fill:none;stroke:#000;stroke-miterlimit:10;stroke-width:5px;}</style></defs><title>selected</title><path d="M171,24c-7.94,0-14.39,5.23-14.39,11.67,0,0,0,0,0,.06V64c2.4,0,4.8,0,7.19,0V35.69s0,0,0,0c0-3.2,3.24-5.8,7.2-5.8s7.17,2.61,7.18,5.82V63.88q3.59,0,7.19,0V35.69C185.32,29.25,178.88,24,171,24Z"/><path class="cls-1" d="M210,80.67h-7.19V73.47a10.8,10.8,0,0,0-10.79-10.78H148.94a10.79,10.79,0,0,0-10.78,10.78v7.21H131a18,18,0,0,0-18,17.95v115a25.2,25.2,0,0,0,25.16,25.14h64.68A25.2,25.2,0,0,0,228,213.67h0v-115h0a18,18,0,0,0-18-18m-64.69-7.2a3.6,3.6,0,0,1,3.6-3.59h43.11a3.6,3.6,0,0,1,3.6,3.59v7.21h-7.07c-.06,0-.11,0-.17,0s-.11,0-.18,0H152.71c-.07,0-.11,0-.18,0s-.11,0-.18,0h-7Zm28.73,136.71a3.59,3.59,0,0,1-7.17-.1v-7.2h7.16v7.26s0,0,0,0m-39.53-90h71.92v75.51H134.54ZM174.08,113H166.9V98.62h7.18Zm-18-25.12h28.68v3.56H156.13ZM120.19,98.64a10.78,10.78,0,0,1,10.74-10.77h18V95a3.6,3.6,0,0,0,3.59,3.6h7.18V113H130.94a3.58,3.58,0,0,0-3.59,3.59v18h-7.16Zm100.62,115a18,18,0,0,1-18,18H138.16a18,18,0,0,1-18-18V141.76h7.16v57.52a3.59,3.59,0,0,0,3.59,3.6h28.77v7.26s0,0,0,.06a10.78,10.78,0,0,0,21.56-.11.66.66,0,0,0,0-.15v-7.06h28.8a3.6,3.6,0,0,0,3.6-3.59V141.76h7.16Zm0-79.07h-7.16v-18a3.59,3.59,0,0,0-3.6-3.59H181.27V98.62h7.14A3.59,3.59,0,0,0,192,95V87.87h18.08a10.78,10.78,0,0,1,10.73,10.77Z"/><path class="cls-1" d="M202.38,153a38.82,38.82,0,0,1-7.56,4.9,31.17,31.17,0,0,1-14.68,3.37,11.37,11.37,0,0,1-9.28-4.7,11.37,11.37,0,0,1-9.28,4.7,31.17,31.17,0,0,1-14.68-3.37,38.52,38.52,0,0,1-7.56-4.9.82.82,0,0,1,.58-1.45c3.3.26,9.07.43,12.9-1,5.63-2.19,7.19-5,9-6.09a7.91,7.91,0,0,1,.77-.39,7.81,7.81,0,0,1,6.82.27,6.71,6.71,0,0,1,1.47,1.1,6.71,6.71,0,0,1,1.47-1.1,7.81,7.81,0,0,1,6.82-.27c.26.12.53.25.77.39,1.78,1.06,3.35,3.9,9,6.09,3.83,1.48,9.6,1.31,12.9,1a.82.82,0,0,1,.58,1.45"/></svg>