<?xml version="1.0" encoding="utf-8"?>
<!-- Generator: Adobe Illustrator 22.1.0, SVG Export Plug-In . SVG Version: 6.00 Build 0)  -->
<svg style="enable-background:new 0 0 500 500;" id="Calque_1" version="1.1" viewBox="0 0 500 500" x="0px"
     xmlns="http://www.w3.org/2000/svg" y="0px" xml:space="preserve">
<style type="text/css">
	.st0{fill:#EAEAEA;}
	.st1{fill:#8C8C8C;}
	.st2{fill:#FFFFFF;}
	.st3{fill:#EAEAEA;stroke:#8C8C8C;stroke-width:7;stroke-miterlimit:10;}
	.st4{fill:#070707;}
	.st5{fill:none;stroke:#8C8C8C;stroke-width:7;stroke-miterlimit:10;}
	.st6{fill:none;stroke:#8C8C8C;stroke-width:10;stroke-miterlimit:10;}
	.st7{fill:#8C8C8C;stroke:#8C8C8C;stroke-width:3;stroke-miterlimit:10;}
	.st8{fill:none;stroke:#8C8C8C;stroke-width:8;stroke-miterlimit:10;}
	.st9{fill:none;stroke:#8E8E8E;stroke-width:6;stroke-miterlimit:10;}
	.st10{fill:#8E8E8E;}
	.st11{fill:#505050;}
	.st12{fill:none;stroke:#8E8E8E;stroke-width:2;stroke-miterlimit:10;}
	.st13{fill:#8C8C8C;stroke:#8C8C8C;stroke-width:2;stroke-miterlimit:10;}
	.st14{fill:#8C8C8C;stroke:#FFFFFF;stroke-width:2;stroke-miterlimit:10;}
	.st15{fill:none;stroke:#FFFFFF;stroke-width:2;stroke-miterlimit:10;}
	.st16{fill:none;stroke:#8C8C8C;stroke-miterlimit:10;}
	.st17{fill:none;stroke:#8C8C8C;stroke-width:13;stroke-miterlimit:10;}
	.st18{fill:#EAEAEA;stroke:#8C8C8C;stroke-width:8;stroke-miterlimit:10;}
	.st19{fill:none;stroke:#8C8C8C;stroke-width:4;stroke-miterlimit:10;}
	.st20{fill:#8C8C8C;stroke:#8C8C8C;stroke-width:0.75;stroke-miterlimit:10;}
	.st21{fill:none;stroke:#8C8C8C;stroke-width:9;stroke-miterlimit:10;}
	.st22{fill:#8C8C8C;stroke:#8C8C8C;stroke-width:0.5;stroke-miterlimit:10;}
	.st23{fill:#6B6B6B;}
	.st24{fill:none;}
	.st25{font-family:'HelveticaNeue-CondensedBold';}
	.st26{font-size:54px;}
	.st27{stroke:#8C8C8C;stroke-width:8;stroke-miterlimit:10;}
	.st28{fill:#8C8C8C;stroke:#8C8C8C;stroke-miterlimit:10;}
	.st29{fill:none;stroke:#8C8C8C;stroke-width:11;stroke-miterlimit:10;}
	.st30{fill:none;stroke:#8C8C8C;stroke-width:6;stroke-miterlimit:10;}
	.st31{stroke:#8C8C8C;stroke-width:6;stroke-miterlimit:10;}
	.st32{fill:#8C8C8C;stroke:#8C8C8C;stroke-width:4;stroke-miterlimit:10;}
	.st33{fill:#8C8C8C;stroke:#8C8C8C;stroke-width:1.05;stroke-miterlimit:10;}
	.st34{fill:#D6D6D6;}
	.st35{fill:none;stroke:#EAEAEA;stroke-width:5;stroke-miterlimit:10;}
	.st36{fill:#8C8C8C;stroke:#8C8C8C;stroke-width:10;stroke-miterlimit:10;}
	.st37{fill:none;stroke:#CECECE;stroke-width:2;stroke-miterlimit:10;}
	.st38{fill:none;stroke:#FFFFFF;stroke-width:4;stroke-miterlimit:10;}
	.st39{fill-rule:evenodd;clip-rule:evenodd;fill:#8C8C8C;}
	.st40{fill:#8C8C8C;stroke:#8C8C8C;stroke-width:8;stroke-miterlimit:10;}
	.st41{fill:#8C8C8C;stroke:#8C8C8C;stroke-width:7;stroke-miterlimit:10;}
	.st42{fill:#DBDBDB;stroke:#8C8C8C;stroke-width:7;stroke-miterlimit:10;}
	.st43{fill:none;stroke:#8C8C8C;stroke-width:5;stroke-miterlimit:10;}
	.st44{fill:none;stroke:#8C8C8C;stroke-width:3;stroke-miterlimit:10;}
	.st45{clip-path:url(#SVGID_2_);fill:#8C8C8C;}
	.st46{clip-path:url(#SVGID_2_);fill:none;stroke:#8C8C8C;stroke-width:8;stroke-miterlimit:10;}
	.st47{clip-path:url(#SVGID_2_);fill:#FFFFFF;}
	.st48{clip-path:url(#SVGID_2_);fill:#EAEAEA;}
	.st49{clip-path:url(#SVGID_2_);fill:none;stroke:#8C8C8C;stroke-miterlimit:10;}
	.st50{fill:none;stroke:#FFFFFF;stroke-width:0.75;stroke-miterlimit:10;}
	.st51{fill:none;stroke:#8C8C8C;stroke-width:14;stroke-miterlimit:10;}
	.st52{fill:none;stroke:#EAEAEA;stroke-width:2;stroke-miterlimit:10;}
	.st53{fill:none;stroke:#8C8C8C;stroke-width:2;stroke-miterlimit:10;}
</style>
    <rect class="st0" height="500" width="500"/>
    <g>
	<g>
		<path class="st1" d="M380.3,263.4h-5.7c-4,0-7.9,0.9-11.4,2.7c-5.2,2.6-11.2,2.6-16.4,0c-2.1-1-4.2-1.7-6.5-2.2l7-54.7h7.7
			c2,0,3.6-1.6,3.6-3.6v-14.4c0-2-1.6-3.6-3.6-3.6h-14.4v-10.8c0-1-0.4-1.9-1.1-2.6l-17-17V146l5.5-4.4l9.3,18.7l6.5-3.2l-10-20.1
			l4.5-3.6h13.2c2,0,3.6-1.6,3.6-3.6v-14.4c0-2-1.6-3.6-3.6-3.6h-36.1c-17.9,0-32.5,14.6-32.5,32.5c0,2,1.6,3.6,3.6,3.6h7.2v9.3
			l-9.8,9.8c-0.7,0.7-1.1,1.6-1.1,2.6v18.1h-7.2v-28.9c0-0.4-0.1-0.9-0.3-1.3c-0.1-0.1-0.1-0.3-0.2-0.4c-0.1-0.2-0.2-0.4-0.3-0.5
			l-13.7-17.1v-24c0-2-1.6-3.6-3.6-3.6h-21.7c-2,0-3.6,1.6-3.6,3.6v24l-13.7,17.1c-0.1,0.2-0.2,0.4-0.3,0.5
			c-0.1,0.1-0.2,0.3-0.2,0.4c-0.2,0.4-0.3,0.9-0.3,1.3v28.9h-14.4c-2,0-3.6,1.6-3.6,3.6v14.4c0,2,1.6,3.6,3.6,3.6h7.7l14,108.8
			c0.2,1.8,1.8,3.1,3.6,3.1h85c4.1,4.6,10,7.2,16.1,7.2h5.7c4,0,7.9-0.9,11.4-2.7c5.2-2.6,11.2-2.6,16.4,0c3.5,1.8,7.5,2.7,11.4,2.7
			h5.7c12,0,21.7-9.7,21.7-21.7v-21.7C402,273.1,392.3,263.4,380.3,263.4z M340.6,119h7.2v7.2h-7.2V119z M290.3,140.7
			c1.8-12.4,12.5-21.6,25-21.7h18.1v9.1l-15.7,12.6H290.3z M290.1,171.1l8.7-8.7h18.7l15.9,15.9v9.3h-43.3V171.1z M239.5,119H254
			v18.1h-14.4V119z M237.6,144.3h18.2l8.7,10.8H229L237.6,144.3z M225.1,162.3h43.3v25.3h-43.3V162.3z M394.8,306.8
			c0,8-6.5,14.4-14.4,14.4h-5.7c-2.8,0-5.6-0.7-8.2-1.9c-7.2-3.6-15.7-3.6-22.9,0c-2.5,1.3-5.3,1.9-8.2,1.9h-5.7
			c-8,0-14.4-6.5-14.4-14.4v-5.6c4,3.6,9.1,5.6,14.4,5.6h5.7c4,0,7.9-0.9,11.4-2.7c5.2-2.6,11.2-2.6,16.4,0
			c3.5,1.8,7.5,2.7,11.4,2.7h5.7c5.3,0,10.5-2,14.4-5.6V306.8z M380.3,299.5h-5.7c-2.8,0-5.6-0.7-8.2-1.9c-7.2-3.6-15.7-3.6-22.9,0
			c-2.5,1.3-5.3,1.9-8.2,1.9h-5.7c-8,0-14.4-6.5-14.4-14.4c0-8,6.5-14.4,14.4-14.4h5.7c2.8,0,5.6,0.7,8.2,1.9
			c7.2,3.6,15.7,3.6,22.9,0c2.5-1.3,5.3-1.9,8.2-1.9h5.7c8,0,14.4,6.5,14.4,14.4C394.8,293.1,388.3,299.5,380.3,299.5z"/>
	</g>
</g>
    <path class="st1" d="M194.3,243.7c8.4,14.9,16.9,29.8,25.3,44.8c-3.2-3.6-2.3-8.3,0.1-9.8c1.9-1.2,5-0.6,7.3,1.7
	c-8-14-15.9-28.1-23.9-42.1 M203.1,238.2c-5.1-9-10.2-17.9-15.3-26.9l16.9-9.5l54,95.5l-16.9,9.5l-15-26.6c-1.4-2.5-4.5-3.4-7-2
	c-2.5,1.4-3.4,4.5-2,7l15.4,27.3c1.3,2.2,3.3,3.8,5.8,4.5c2.5,0.7,5,0.4,7.2-0.9l18.2-10.3c2.2-1.3,3.8-3.3,4.5-5.8
	c0.7-2.5,0.4-5-0.9-7.2l-54.4-96.2l5.9-3.3c2.5-1.4,3.4-4.5,2-7L210,165.8c0.3-0.7,0.5-1.4,0.5-2.2l0.7-64.1c0-2-1.1-3.9-3-4.7
	c-10.7-5-22-7.5-33.2-7.6c-13.8-0.1-27.6,3.4-40.2,10.5c-0.4,0.2-0.7,0.4-1.1,0.6l0,0c0,0,0,0,0,0c-22.2,13-36.5,35.1-39.3,60.8
	c-0.2,2,0.8,4,2.5,5l55.3,32.5c0.7,0.4,1.4,0.6,2.2,0.7l11.6,20.5c0.7,1.2,1.8,2.1,3.1,2.4c1.3,0.4,2.7,0.2,3.9-0.5l5.9-3.3
	c5.1,9.1,10.3,18.2,15.4,27.3 M200.8,102.7l-0.6,57.7l-45.4,25.7L105,156.9c0.8-5.5,2.3-10.7,4.3-15.7l23.8,17.6
	c2.3,1.7,5.5,1.2,7.2-1.1c1.7-2.3,1.2-5.5-1.1-7.2L114,131.8c5.1-8.5,12-16,20.4-21.8l18.7,33.1c1.4,2.5,4.5,3.4,7,2
	c2.5-1.4,3.4-4.5,1.9-7l-18.8-33.3c9.3-4.6,19.2-7,29.1-7.3c0,0.1,0,0.3,0,0.4l3.1,32.1c0.3,2.8,2.8,4.9,5.6,4.6
	c2.8-0.3,4.9-2.8,4.6-5.6l-3-31C188.9,98.7,195,100.3,200.8,102.7z M210.1,186.9l-37.7,21.3l-8.6-15.3l18.8-10.7l18.8-10.7
	L210.1,186.9z"/>
    <g>
	<rect class="st24" height="144" width="501" x="-1" y="366"/>
        <text class="st23 st25 st26" transform="matrix(1 0 0 1 37.1211 404.5557)">Produits d’entretien</text>
</g>
</svg>
