<?xml version="1.0" encoding="utf-8"?>
<!-- Generator: Adobe Illustrator 22.1.0, SVG Export Plug-In . SVG Version: 6.00 Build 0)  -->
<svg style="enable-background:new 0 0 500 500;" id="Calque_1" version="1.1" viewBox="0 0 500 500" x="0px"
     xmlns="http://www.w3.org/2000/svg" y="0px" xml:space="preserve">
<style type="text/css">
	.st0{fill:#EAEAEA;}
	.st1{fill:#8C8C8C;}
	.st2{fill:#FFFFFF;}
	.st3{fill:#EAEAEA;stroke:#8C8C8C;stroke-width:7;stroke-miterlimit:10;}
	.st4{fill:#070707;}
	.st5{fill:none;stroke:#8C8C8C;stroke-width:7;stroke-miterlimit:10;}
	.st6{fill:none;stroke:#8C8C8C;stroke-width:10;stroke-miterlimit:10;}
	.st7{fill:#8C8C8C;stroke:#8C8C8C;stroke-width:3;stroke-miterlimit:10;}
	.st8{fill:none;stroke:#8C8C8C;stroke-width:8;stroke-miterlimit:10;}
	.st9{fill:none;stroke:#8E8E8E;stroke-width:6;stroke-miterlimit:10;}
	.st10{fill:#8E8E8E;}
	.st11{fill:#505050;}
	.st12{fill:none;stroke:#8E8E8E;stroke-width:2;stroke-miterlimit:10;}
	.st13{fill:#8C8C8C;stroke:#8C8C8C;stroke-width:2;stroke-miterlimit:10;}
	.st14{fill:#8C8C8C;stroke:#FFFFFF;stroke-width:2;stroke-miterlimit:10;}
	.st15{fill:none;stroke:#FFFFFF;stroke-width:2;stroke-miterlimit:10;}
	.st16{fill:none;stroke:#8C8C8C;stroke-miterlimit:10;}
	.st17{fill:none;stroke:#8C8C8C;stroke-width:13;stroke-miterlimit:10;}
	.st18{fill:#EAEAEA;stroke:#8C8C8C;stroke-width:8;stroke-miterlimit:10;}
	.st19{fill:none;stroke:#8C8C8C;stroke-width:4;stroke-miterlimit:10;}
	.st20{fill:#8C8C8C;stroke:#8C8C8C;stroke-width:0.75;stroke-miterlimit:10;}
	.st21{fill:none;stroke:#8C8C8C;stroke-width:9;stroke-miterlimit:10;}
	.st22{fill:#8C8C8C;stroke:#8C8C8C;stroke-width:0.5;stroke-miterlimit:10;}
	.st23{fill:#6B6B6B;}
	.st24{fill:none;}
	.st25{font-family:'HelveticaNeue-CondensedBold';}
	.st26{font-size:54px;}
	.st27{stroke:#8C8C8C;stroke-width:8;stroke-miterlimit:10;}
	.st28{fill:#8C8C8C;stroke:#8C8C8C;stroke-miterlimit:10;}
	.st29{fill:none;stroke:#8C8C8C;stroke-width:11;stroke-miterlimit:10;}
	.st30{fill:none;stroke:#8C8C8C;stroke-width:6;stroke-miterlimit:10;}
	.st31{stroke:#8C8C8C;stroke-width:6;stroke-miterlimit:10;}
	.st32{fill:#8C8C8C;stroke:#8C8C8C;stroke-width:4;stroke-miterlimit:10;}
	.st33{fill:#8C8C8C;stroke:#8C8C8C;stroke-width:1.05;stroke-miterlimit:10;}
	.st34{fill:#D6D6D6;}
	.st35{fill:none;stroke:#EAEAEA;stroke-width:5;stroke-miterlimit:10;}
	.st36{fill:#8C8C8C;stroke:#8C8C8C;stroke-width:10;stroke-miterlimit:10;}
	.st37{fill:none;stroke:#CECECE;stroke-width:2;stroke-miterlimit:10;}
	.st38{fill:none;stroke:#FFFFFF;stroke-width:4;stroke-miterlimit:10;}
	.st39{fill-rule:evenodd;clip-rule:evenodd;fill:#8C8C8C;}
	.st40{fill:#8C8C8C;stroke:#8C8C8C;stroke-width:8;stroke-miterlimit:10;}
	.st41{fill:#8C8C8C;stroke:#8C8C8C;stroke-width:7;stroke-miterlimit:10;}
	.st42{fill:#DBDBDB;stroke:#8C8C8C;stroke-width:7;stroke-miterlimit:10;}
	.st43{fill:none;stroke:#8C8C8C;stroke-width:5;stroke-miterlimit:10;}
	.st44{fill:none;stroke:#8C8C8C;stroke-width:3;stroke-miterlimit:10;}
	.st45{clip-path:url(#SVGID_2_);fill:#8C8C8C;}
	.st46{clip-path:url(#SVGID_2_);fill:none;stroke:#8C8C8C;stroke-width:8;stroke-miterlimit:10;}
	.st47{clip-path:url(#SVGID_2_);fill:#FFFFFF;}
	.st48{clip-path:url(#SVGID_2_);fill:#EAEAEA;}
	.st49{clip-path:url(#SVGID_2_);fill:none;stroke:#8C8C8C;stroke-miterlimit:10;}
	.st50{fill:none;stroke:#FFFFFF;stroke-width:0.75;stroke-miterlimit:10;}
	.st51{fill:none;stroke:#8C8C8C;stroke-width:14;stroke-miterlimit:10;}
	.st52{fill:none;stroke:#EAEAEA;stroke-width:2;stroke-miterlimit:10;}
	.st53{fill:none;stroke:#8C8C8C;stroke-width:2;stroke-miterlimit:10;}
</style>
    <rect class="st0" height="500" width="500" x="1" y="1"/>
    <path class="st1" d="M283.9,177.8c-12.8,0-23.2,10.4-23.2,23.2s10.4,23.2,23.2,23.2c12.8,0,23.2-10.4,23.2-23.2
	C307.1,188.2,296.7,177.8,283.9,177.8z"/>
    <path class="st1" d="M176.9,102.2h4.7v2.5c3.1-0.2,6.2-0.4,9.3-0.5v-2h9.3v1.9c3.1,0.1,6.2,0.3,9.3,0.8v-2.6h4.7
	c2.6,0,4.6-2.1,4.6-4.6V74.3c0-5.1-4.2-9.3-9.3-9.3h-27.9c-3.3,0-6.4,1.8-8,4.7c-0.4,3.1-0.9,6.2-1.3,9.3v18.6
	C172.2,100.1,174.3,102.2,176.9,102.2z M181.6,74.3h27.9v18.6h-27.9V74.3z"/>
    <path class="st1" d="M335,108c0-2.6-2.1-4.6-4.6-4.6h-93c-2.6,0-4.7,2.1-4.7,4.6v18.6c0,0.1,0,0.2,0.1,0.3c0,0.1,0,0.2,0,0.3
	l0.6,5.2c-1.7-0.7-3.5-1.1-5.3-1.1h-9.3V108c0-2.6-2.1-4.6-4.6-4.6h-4.7v-1.8c-3-0.6-6.2-0.9-9.3-1v2.9h-9.3v-2.8
	c-3.1,0.1-6.2,0.4-9.3,0.6v2.2h-4.7c-2.6,0-4.6,2.1-4.6,4.6v23.2h-9.3c-7.7,0-13.9,6.2-13.9,13.9v167.4c0,7.7,6.2,14,13.9,14h65.1
	c7.7,0,13.9-6.2,13.9-14V205.9l9.3,79.1v41.6h64.9c0.1-3.1,0.1-6.2,0.2-9.3V285l1.1-9.6c0.4-3.1,0.7-6.2,1.1-9.3l3.3-27.9
	c0.4-3.1,0.7-6.2,1.1-9.4l2.6-22.1c0.5-4.1,1-8.2,1.5-12.3l1.1-9.2c0.6-5.5,1.3-11,1.9-16.5l4.9-41.5c0-0.1,0-0.2,0-0.3
	c0-0.1,0.1-0.2,0.1-0.3V108z M181.6,112.7h27.9v18.6h-27.9V112.7z M232.7,266.1h-74.4v-88.3h74.4V266.1z M232.7,168.5h-74.4v-23.2
	c0-2.6,2.1-4.6,4.6-4.6h65.1c2.6,0,4.6,2.1,4.6,4.6V168.5z M245.2,112.7h77.1v9.3h-77.1V112.7z M307.1,317.3h-46.5V308h9.3
	c1.2,0,2.4-0.5,3.3-1.4l3.3-3.3h14.8l3.3,3.3c0.9,0.9,2.1,1.4,3.3,1.4h9.3V317.3z M307.1,298.7h-7.4l-3.3-3.3
	c-0.4-0.4-0.9-0.8-1.5-1c-0.6-0.2-1.2-0.4-1.8-0.4h-18.6c-1.2,0-2.4,0.5-3.3,1.4l-3.3,3.3h-7.4v-9.3h46.5V298.7z M307.6,280.1h-47.5
	l-17.5-148.8h82.5L307.6,280.1z"/>
    <g>
	<rect class="st24" height="158" width="520" x="-9" y="359"/>
        <text class="st23 st25 st26" transform="matrix(1 0 0 1 77.6899 397.5557)">Produits de soin</text>
</g>
</svg>
