<svg id="Calque_1" data-name="Calque 1" xmlns="http://www.w3.org/2000/svg" viewBox="0 0 350 300"><title>selected</title><g id="WA3cEX"><path d="M197.38,82.76c-1.29,3.3-.21,6.8.19,8.09.53,1.74,1.64,5.35,1.18,7.45-1.78,8,1.72,12.48,5.36,15a84.13,84.13,0,0,1-9.23-4.36c-4.25-2.39-4.55-6.53-4.19-14.76l.06-1.31c0-.54,0-1.1.05-1.68.13-5.23.45-7,2.1-7.43,1.48-.35,3-.67,4.48-1m31.92-9.65a16.63,16.63,0,0,0-2.47.16c-11.73,1.7-23.59,2.88-35.08,5.61-6.31,1.5-5.79,8.59-6,13.77-.3,7.57-1.16,16.22,6.68,20.63s16.46,7,24.61,10.68a13.64,13.64,0,0,1,3.07,2.06c-.05-.09-.09-.18-.13-.26-1.21-3,.73-5.66,3.25-7a3.05,3.05,0,0,1-.59.27c-.06,0,.28-.22.51-.38l.06-.08c.25-.29.51-.58.74-.88l.24-.34.26-.45c-5-2.18-9-4.12-13.19-5.68-5.63-2.09-9.18-4.87-7.63-11.88.69-3.11-.3-6.81-1.29-10-1.76-5.73.62-7.19,5.87-7.29,8.29-.17,16.57-.78,25.22-1.23.28-2.7.51-5,.78-7.64-1.85,0-3.44-.11-4.91-.11Z"/><path d="M210.8,144.37c-.43,2.14-.8,4.34-1,6.62-1.19,0-2.58-.05-4.14-.05-2.41,0-4.83.05-7.18.16-17.67.79-35.6,1.88-52.94,2.93-9.3.56-18.92,1.14-28.37,1.67-.26,0-.53,0-.8,0a7.46,7.46,0,0,1-3.12-.53,14.07,14.07,0,0,0-6.55-1.77,16.76,16.76,0,0,0-7.37,2.05,6.48,6.48,0,0,1-1.44.5l.33-1.65.3-1.47,15.27-1.44c14.54-1.38,29.57-2.8,44.41-3.94,11-.85,28.34-2.08,51.27-3.05l1.36,0M44.51,152.85c2.78,0,5.63.06,8.36.15,0,.3,0,.61.08.92a20.88,20.88,0,0,0,.48,2.68c-7.19.4-14.4.73-21.44,1-7.26.33-14.77.66-22.16,1.08A20.43,20.43,0,0,0,3,160.33,10.55,10.55,0,0,0,3,159.2a10.93,10.93,0,0,0-.28-2.47,15.85,15.85,0,0,0,6.12,1.13,17.75,17.75,0,0,0,5.71-.89c8.39-2.85,17.63-4.12,29.94-4.12m26.23-16.14a16.45,16.45,0,0,0-2.35.2c-3.81.56-5.71,2.44-5.18,6.36.41,3.09,1.06,6.15,1.33,9.24.12,1.38,0,3.36-.83,4.1a5.07,5.07,0,0,1-3,1,2.84,2.84,0,0,1-1.3-.26c-.95-.5-1.31-2.58-1.49-4a28.65,28.65,0,0,1,.35-5.1c-4.63-.18-9.22-.34-13.75-.34-10.74,0-21.21.88-31.55,4.39a13.17,13.17,0,0,1-4.1.62,9.34,9.34,0,0,1-5.2-1.3,8.78,8.78,0,0,0-5-1.8,6.48,6.48,0,0,0-5.14,2.69c-2.11,2.68-3.65,7.11-3.07,10.33.76,4.16,3.1,6.21,6,6.21a10.19,10.19,0,0,0,6.35-2.77,13,13,0,0,1,7.29-2.51c17.54-1,35.12-1.49,52.66-2.68.75-.05,1.48-.08,2.18-.08,4.88,0,8.3,1.47,9.69,7.37,3.65-4.77,7.23-6.53,9.84-7.25a15.82,15.82,0,0,1,4.23-.55c2.72,0,5.15.58,7.63.58A11.32,11.32,0,0,0,101.5,160a11.79,11.79,0,0,1,5.17-1.54,9.31,9.31,0,0,1,4.28,1.23,12.2,12.2,0,0,0,5.39,1.07c.37,0,.72,0,1.08,0,27.08-1.51,54.15-3.38,81.25-4.59,2.57-.12,4.91-.16,7-.16,3.93,0,6.77.14,8.05.17l.9,0a4.9,4.9,0,0,1,0-.54c0-5.77,1.32-11,2.51-16.47l-7.82.31c-22.39.94-39.31,2.12-51.45,3.06-21.27,1.63-42.49,3.8-63.45,5.72-.78,3.81-1.2,5.92-1.48,7.31-2.58.31-4.49.45-6.37.78-2.56.45-5.36,1.3-7.92,1.3a6.61,6.61,0,0,1-5.91-2.94c-2.23-3.28-1.86-8.32-2.75-13.07l5.95.38c-.46-4.19-2.45-5.26-5.11-5.26ZM-4,162.59c-1.12,0-2-1.52-2-3.39s.91-3.39,2-3.39,2,1.52,2,3.39-.91,3.39-2,3.39Z"/></g><path d="M247.06,65.4h0a14.69,14.69,0,0,1,2.87.28L314,78.13a15.16,15.16,0,0,1,12,17.76L311,172.74A15.18,15.18,0,0,1,296.14,185a14.62,14.62,0,0,1-2.87-.28l-64.06-12.44a15.18,15.18,0,0,1-12-17.77l14.94-76.85A15.19,15.19,0,0,1,247.06,65.4m0-5a20.23,20.23,0,0,0-19.8,16.3l-14.94,76.86a20.21,20.21,0,0,0,15.94,23.62l64.05,12.45a20.16,20.16,0,0,0,23.63-15.93l14.93-76.86a20.19,20.19,0,0,0-15.93-23.62L250.88,60.77a19.93,19.93,0,0,0-3.82-.37Z"/></svg>