<?xml version="1.0" encoding="utf-8"?>
<!-- Generator: Adobe Illustrator 22.1.0, SVG Export Plug-In . SVG Version: 6.00 Build 0)  -->
<svg style="enable-background:new 0 0 500 500;" id="Calque_1" version="1.1" viewBox="0 0 500 500" x="0px"
     xmlns="http://www.w3.org/2000/svg" y="0px" xml:space="preserve">
<style type="text/css">
	.st0{fill:#4FBDD7;}
	.st1{fill:#EAEAEA;}
	.st2{fill:#FFFFFF;}
	.st3{fill:#4FBDD7;stroke:#FFFFFF;stroke-width:5;stroke-miterlimit:10;}
	.st4{fill:#8C8C8C;}
	.st5{fill:#070707;}
	.st6{fill:none;stroke:#FFFFFF;stroke-width:7;stroke-miterlimit:10;}
	.st7{fill:none;stroke:#FFFFFF;stroke-width:10;stroke-miterlimit:10;}
	.st8{fill:#FFFFFF;stroke:#FFFFFF;stroke-width:3;stroke-miterlimit:10;}
	.st9{fill:none;stroke:#FDFFFF;stroke-width:6;stroke-miterlimit:10;}
	.st10{fill:#FAFEFF;}
	.st11{fill:none;stroke:#FFFFFF;stroke-width:2;stroke-miterlimit:10;}
	.st12{fill:#FFFFFF;stroke:#FFFFFF;stroke-width:2;stroke-miterlimit:10;}
	.st13{fill:#4FBDD7;stroke:#FFFFFF;stroke-width:4;stroke-miterlimit:10;}
	.st14{fill:#FFFFFF;stroke:#FFFFFF;stroke-width:4;stroke-miterlimit:10;}
	.st15{fill:none;stroke:#FFFFFF;stroke-miterlimit:10;}
	.st16{fill:#FFFFFF;stroke:#FFFFFF;stroke-width:13;stroke-miterlimit:10;}
	.st17{fill:#4FBDD7;stroke:#FFFFFF;stroke-width:8;stroke-miterlimit:10;}
	.st18{fill:#FFFFFF;stroke:#FFFFFF;stroke-width:0.75;stroke-miterlimit:10;}
	.st19{fill:#FFFFFF;stroke:#FFFFFF;stroke-width:0.5;stroke-miterlimit:10;}
	.st20{fill:#FFFFFF;stroke:#FFFFFF;stroke-width:8;stroke-miterlimit:10;}
	.st21{fill:#FFFFFF;stroke:#FFFFFF;stroke-miterlimit:10;}
	.st22{fill:#FFFFFF;stroke:#FFFFFF;stroke-width:11;stroke-miterlimit:10;}
	.st23{fill:#FFFFFF;stroke:#FFFFFF;stroke-width:6;stroke-miterlimit:10;}
	.st24{fill:#8C8C8C;stroke:#8C8C8C;stroke-width:4;stroke-miterlimit:10;}
	.st25{fill:#FFFFFF;stroke:#FFFFFF;stroke-width:1.05;stroke-miterlimit:10;}
	.st26{fill:none;stroke:#4FBDD7;stroke-width:5;stroke-miterlimit:10;}
	.st27{fill:none;stroke:#FFFFFF;stroke-width:4;stroke-miterlimit:10;}
	.st28{fill:#8C8C8C;stroke:#FFFFFF;stroke-width:4;stroke-miterlimit:10;}
	.st29{fill:#FFFFFF;stroke:#FFFFFF;stroke-width:10;stroke-miterlimit:10;}
	.st30{fill:none;stroke:#4FBDD7;stroke-width:2;stroke-miterlimit:10;}
	.st31{fill-rule:evenodd;clip-rule:evenodd;fill:#FFFFFF;}
	.st32{fill:#FFFFFF;stroke:#FFFFFF;stroke-width:7;stroke-miterlimit:10;}
	.st33{fill:#FFFFFF;stroke:#4FBDD7;stroke-width:7;stroke-miterlimit:10;}
	.st34{fill:none;}
	.st35{font-family:'HelveticaNeue-CondensedBold';}
	.st36{font-size:54px;}
	.st37{fill:#FCFCFC;}
	.st38{fill:#FFFFFF;stroke:#FFFFFF;stroke-width:5;stroke-miterlimit:10;}
	.st39{fill:none;stroke:#FFFFFF;stroke-width:3;stroke-miterlimit:10;}
	.st40{fill:none;stroke:#FFFFFF;stroke-width:8;stroke-miterlimit:10;}
	.st41{fill:none;stroke:#FFFFFF;stroke-width:6;stroke-miterlimit:10;}
	.st42{fill:#FFFFFF;stroke:#4FBDD7;stroke-width:3;stroke-miterlimit:10;}
	.st43{fill:none;stroke:#FFFFFF;stroke-width:0.75;stroke-miterlimit:10;}
	.st44{fill:#4FBDD7;stroke:#FFFFFF;stroke-width:9;stroke-miterlimit:10;}
	.st45{fill:none;stroke:#FFFFFF;stroke-width:9;stroke-miterlimit:10;}
	.st46{fill:none;stroke:#4FBDD7;stroke-width:3;stroke-miterlimit:10;}
</style>
    <rect class="st0" height="500" width="500" y="-1"/>
    <g>
	<rect class="st34" height="144" width="500" x="-3" y="362"/>
        <text transform="matrix(1 0 0 1 136.5713 400.5557)"><tspan class="st2 st35 st36" x="0" y="0">Projecteur </tspan>
            <tspan class="st2 st35 st36" x="22.4" y="64.8">d’enduit</tspan></text>
</g>
    <g id="WA3cEX_1_">
	<g>
		<path class="st2" d="M273.4,174.3c7.7,4.4,16.5,7,24.6,10.7c0.9,0.4,2.1,1.2,3.1,2.1c0-0.1-0.1-0.2-0.1-0.3
			c-1.2-2.9,0.7-5.7,3.2-7c-1.1,0.5-0.4,0.1-0.1-0.1c0,0,0,0,0.1-0.1c0.2-0.3,0.5-0.6,0.7-0.9c0,0,0.1-0.2,0.2-0.3
			c0.1-0.1,0.2-0.3,0.3-0.5c-5-2.2-9-4.1-13.2-5.7c-5.6-2.1-9.2-4.9-7.6-11.9c0.7-3.1-0.3-6.8-1.3-10c-1.8-5.7,0.6-7.2,5.9-7.3
			c8.3-0.2,16.6-0.8,25.2-1.2c0.3-2.7,0.5-5,0.8-7.6c-2.9,0-5.2-0.3-7.4,0c-11.7,1.7-23.6,2.9-35.1,5.6c-6.3,1.5-5.8,8.6-6,13.8
			C266.4,161.2,265.6,169.9,273.4,174.3z"/>
        <path class="st2" d="M345.7,199.2c-15,0.1-33.8,0.4-55.4,1.3c-22.4,0.9-39.3,2.1-51.4,3.1c-21.3,1.6-42.5,3.8-63.5,5.7
			c-0.8,3.8-1.2,5.9-1.5,7.3c-2.6,0.3-4.5,0.5-6.4,0.8c-4.8,0.8-10.6,3.2-13.8-1.6c-2.2-3.3-1.9-8.3-2.7-13.1
			c3.3,0.2,4.6,0.3,5.9,0.4c-0.6-5.4-3.7-5.6-7.5-5.1c-3.8,0.6-5.7,2.4-5.2,6.4c0.4,3.1,1.1,6.1,1.3,9.2c0.1,1.4,0,3.4-0.8,4.1
			c-1,0.9-3.2,1.3-4.3,0.7c-1-0.5-1.3-2.6-1.5-4c-0.2-1.4,0.2-3,0.3-5.1c-15.6-0.6-30.6-0.9-45.3,4.1c-2.8,0.9-7.1,0.9-9.3-0.7
			c-4.2-2.9-7.8-2-10.1,0.9c-2.1,2.7-3.7,7.1-3.1,10.3c1.3,7,7,8,12.4,3.4c1.8-1.6,4.8-2.4,7.3-2.5c17.5-1,35.1-1.5,52.7-2.7
			c6-0.4,10.3,0.5,11.9,7.3c3.6-4.8,7.2-6.5,9.8-7.2c6.6-1.8,11.2,1.7,17-1.1c3.9-1.9,6-2.1,9.4-0.3c1.9,0.9,4.3,1.2,6.5,1
			c27.1-1.5,54.2-3.4,81.3-4.6c7.5-0.3,13.1,0,15,0c9.1,0.2,24.5,0.2,51.8-0.3c0.4-5.6,0.9-11.3,1.3-16.9
			C347,199.8,346.3,199.6,345.7,199.2z M79,220.2c0,1.9-0.9,3.4-2,3.4s-2-1.5-2-3.4c0-1.9,0.9-3.4,2-3.4S79,218.3,79,220.2z"/>
	</g>
</g>
    <path class="st2" d="M373.3,250.6l-64.1-12.4c-10.9-2.1-18-12.7-15.9-23.6l14.9-76.9c2.1-10.9,12.7-18,23.6-15.9l64.1,12.4
	c10.9,2.1,18,12.7,15.9,23.6l-14.9,76.9C394.8,245.6,384.2,252.7,373.3,250.6z"/>
</svg>
