<svg id="Calque_1" data-name="Calque 1" xmlns="http://www.w3.org/2000/svg" viewBox="0 0 350 300"><title>selected</title><path d="M288.28,35.25c1.94,0,3.72,2.07,3.72,4.33V87.19a3.56,3.56,0,0,1-2.83,3.62L200.32,107.7l-3.25.61v135.8a15,15,0,1,1-30,0V108.31l-3.26-.61L74.4,90.8A4.08,4.08,0,0,1,71.06,87V39.64a4.56,4.56,0,0,1,4.24-4.39h213M78.69,71H284.36V42.89H78.69V71m92.37,30.15h21.35l.36-.06,79.62-14.52-.72-7.94H91.8l-.72,7.94,79.62,14.52.36.06M288.28,31.25H75.19a8.54,8.54,0,0,0-8.13,8.33V87.06a8.08,8.08,0,0,0,6.64,7.68l89.4,16.89V244.11a19,19,0,1,0,38,0V111.63l88.85-16.89A7.58,7.58,0,0,0,296,87.06V39.58c0-4.31-3.4-8.33-7.72-8.33ZM82.69,67V46.89H280.36V67Zm88.73,30.15L91.8,82.62H271.67L192.05,97.14Z"/></svg>