<svg id="Calque_1" data-name="Calque 1" xmlns="http://www.w3.org/2000/svg" viewBox="0 0 350 300"><title>selected</title><g id="QeOmWV"><path d="M325,26.49H23.3V248H325V26.49Zm-52.55,2.79q22.1,0,44.18-.1h.15c4.12,0,5.56,1,5.51,5.49-.25,19.93-.12,39.87-.12,59.81v5.43h-97V29.53c1.57-.09,3.1-.26,4.63-.26h42.69ZM26.49,36.9V29.62h195V36.9ZM121.21,245l-1.56,0V40.46h7V168.24l-5.44.86V245Zm48.48-76.59V40.49h7V168.43ZM26.48,233.79V40.49h7.35v193.3Zm44.73,0V40.58h7.27V233.81Zm59-65.47V40.59H166V168.34Zm89.73,0V40.64h1.18V168.38Zm-39.64.05V40.66H216V168.43ZM37.41,233.89V40.71H67.55V233.89Zm44.91-.07V40.76h33.47V233.82Zm142.72,11V103.5h96.82V244.84Zm-100.13.23V172h96.44v73ZM26.43,245v-7.39h89.42V245Z"/><path d="M43.45,44.08a1.43,1.43,0,1,0,1.43,1.43,1.42,1.42,0,0,0-1.43-1.43Z"/><path d="M43.45,81.16a1.43,1.43,0,0,0,0,2.85,1.43,1.43,0,1,0,0-2.85Z"/><path d="M43.45,62.14a1.43,1.43,0,1,0,1.43,1.43,1.42,1.42,0,0,0-1.43-1.43Z"/><path d="M43.45,100.17a1.43,1.43,0,0,0,0,2.85,1.43,1.43,0,1,0,0-2.85Z"/><path d="M61.51,44.08a1.43,1.43,0,1,0,1.43,1.43,1.42,1.42,0,0,0-1.43-1.43Z"/><path d="M61.51,81.16a1.43,1.43,0,0,0,0,2.85,1.43,1.43,0,1,0,0-2.85Z"/><path d="M61.51,62.14a1.43,1.43,0,1,0,1.43,1.43,1.42,1.42,0,0,0-1.43-1.43Z"/><path d="M61.51,100.17a1.43,1.43,0,0,0,0,2.85,1.43,1.43,0,1,0,0-2.85Z"/><path d="M91,44.08a1.43,1.43,0,1,0,1.42,1.43A1.43,1.43,0,0,0,91,44.08Z"/><path d="M91,81.16a1.43,1.43,0,1,0,1.42,1.42A1.42,1.42,0,0,0,91,81.16Z"/><path d="M91,62.14a1.43,1.43,0,1,0,1.42,1.43A1.43,1.43,0,0,0,91,62.14Z"/><path d="M91,100.17a1.43,1.43,0,1,0,1.42,1.42A1.42,1.42,0,0,0,91,100.17Z"/><path d="M109,44.08a1.43,1.43,0,1,0,1.42,1.43A1.43,1.43,0,0,0,109,44.08Z"/><path d="M109,81.16a1.43,1.43,0,1,0,1.42,1.42A1.42,1.42,0,0,0,109,81.16Z"/><path d="M109,62.14a1.43,1.43,0,1,0,1.42,1.43A1.43,1.43,0,0,0,109,62.14Z"/><path d="M109,100.17a1.43,1.43,0,1,0,1.42,1.42,1.42,1.42,0,0,0-1.42-1.42Z"/><path d="M91,120.13a1.43,1.43,0,1,0,1.42,1.42A1.43,1.43,0,0,0,91,120.13Z"/><path d="M91,157.2a1.43,1.43,0,1,0,1.42,1.42A1.43,1.43,0,0,0,91,157.2Z"/><path d="M91,138.19a1.43,1.43,0,1,0,1.42,1.42A1.43,1.43,0,0,0,91,138.19Z"/><path d="M91,176.21a1.43,1.43,0,1,0,1.42,1.43A1.43,1.43,0,0,0,91,176.21Z"/><path d="M109,120.13a1.43,1.43,0,1,0,1.42,1.42,1.43,1.43,0,0,0-1.42-1.42Z"/><path d="M109,157.2a1.43,1.43,0,1,0,1.42,1.42A1.43,1.43,0,0,0,109,157.2Z"/><path d="M109,138.19a1.43,1.43,0,1,0,1.42,1.42,1.43,1.43,0,0,0-1.42-1.42Z"/><path d="M109,176.21a1.43,1.43,0,1,0,1.42,1.43,1.43,1.43,0,0,0-1.42-1.43Z"/><path d="M43.45,120.13a1.43,1.43,0,1,0,1.43,1.42,1.42,1.42,0,0,0-1.43-1.42Z"/><path d="M43.45,157.2a1.43,1.43,0,1,0,1.43,1.42,1.42,1.42,0,0,0-1.43-1.42Z"/><path d="M43.45,138.19a1.43,1.43,0,1,0,1.43,1.42,1.42,1.42,0,0,0-1.43-1.42Z"/><path d="M43.45,176.21a1.43,1.43,0,1,0,1.43,1.43,1.42,1.42,0,0,0-1.43-1.43Z"/><path d="M61.51,120.13a1.43,1.43,0,1,0,1.43,1.42,1.42,1.42,0,0,0-1.43-1.42Z"/><path d="M61.51,157.2a1.43,1.43,0,1,0,1.43,1.42,1.42,1.42,0,0,0-1.43-1.42Z"/><path d="M61.51,138.19a1.43,1.43,0,1,0,1.43,1.42,1.42,1.42,0,0,0-1.43-1.42Z"/><path d="M61.51,176.21a1.43,1.43,0,1,0,1.43,1.43,1.42,1.42,0,0,0-1.43-1.43Z"/><path d="M91,196.17a1.43,1.43,0,1,0,1.42,1.43A1.43,1.43,0,0,0,91,196.17Z"/><path d="M91,233.24a1.43,1.43,0,1,0,0,2.85,1.43,1.43,0,0,0,0-2.85Z"/><path d="M91,214.23a1.43,1.43,0,1,0,1.42,1.43A1.43,1.43,0,0,0,91,214.23Z"/><path d="M109,196.17a1.43,1.43,0,1,0,1.42,1.43,1.43,1.43,0,0,0-1.42-1.43Z"/><path d="M109,233.24a1.43,1.43,0,1,0,0,2.85,1.43,1.43,0,0,0,0-2.85Z"/><path d="M109,214.23a1.43,1.43,0,1,0,1.42,1.43,1.43,1.43,0,0,0-1.42-1.43Z"/><path d="M43.45,196.17a1.43,1.43,0,1,0,1.43,1.43,1.42,1.42,0,0,0-1.43-1.43Z"/><path d="M43.45,233.24a1.43,1.43,0,1,0,1.43,1.43,1.42,1.42,0,0,0-1.43-1.43Z"/><path d="M43.45,214.23a1.43,1.43,0,1,0,1.43,1.43,1.42,1.42,0,0,0-1.43-1.43Z"/><path d="M61.51,196.17a1.43,1.43,0,1,0,1.43,1.43,1.42,1.42,0,0,0-1.43-1.43Z"/><path d="M61.51,233.24a1.43,1.43,0,1,0,1.43,1.43,1.42,1.42,0,0,0-1.43-1.43Z"/><path d="M61.51,214.23a1.43,1.43,0,1,0,1.43,1.43,1.42,1.42,0,0,0-1.43-1.43Z"/><path d="M139.46,44.08a1.43,1.43,0,1,0,1.42,1.43,1.43,1.43,0,0,0-1.42-1.43Z"/><path d="M139.46,81.16a1.43,1.43,0,1,0,1.42,1.42,1.42,1.42,0,0,0-1.42-1.42Z"/><path d="M139.46,62.14a1.43,1.43,0,1,0,1.42,1.43,1.43,1.43,0,0,0-1.42-1.43Z"/><path d="M139.46,100.17a1.43,1.43,0,1,0,1.42,1.42,1.42,1.42,0,0,0-1.42-1.42Z"/><path d="M157.52,44.08a1.43,1.43,0,1,0,1.42,1.43,1.43,1.43,0,0,0-1.42-1.43Z"/><path d="M157.52,81.16a1.43,1.43,0,1,0,1.42,1.42,1.42,1.42,0,0,0-1.42-1.42Z"/><path d="M157.52,62.14a1.43,1.43,0,1,0,1.42,1.43,1.43,1.43,0,0,0-1.42-1.43Z"/><path d="M157.52,100.17a1.43,1.43,0,1,0,1.42,1.42,1.42,1.42,0,0,0-1.42-1.42Z"/><path d="M139.46,118.23a1.43,1.43,0,1,0,1.42,1.42,1.43,1.43,0,0,0-1.42-1.42Z"/><path d="M139.46,155.3a1.43,1.43,0,1,0,1.42,1.42,1.43,1.43,0,0,0-1.42-1.42Z"/><path d="M139.46,136.29a1.43,1.43,0,1,0,1.42,1.42,1.43,1.43,0,0,0-1.42-1.42Z"/><path d="M157.52,118.23a1.43,1.43,0,1,0,1.42,1.42,1.43,1.43,0,0,0-1.42-1.42Z"/><path d="M157.52,155.3a1.43,1.43,0,1,0,1.42,1.42,1.43,1.43,0,0,0-1.42-1.42Z"/><path d="M157.52,136.29a1.43,1.43,0,1,0,1.42,1.42,1.43,1.43,0,0,0-1.42-1.42Z"/><path d="M188.88,44.08a1.43,1.43,0,1,0,1.43,1.43,1.43,1.43,0,0,0-1.43-1.43Z"/><path d="M188.88,81.16a1.43,1.43,0,1,0,1.43,1.42,1.42,1.42,0,0,0-1.43-1.42Z"/><path d="M188.88,62.14a1.43,1.43,0,1,0,1.43,1.43,1.43,1.43,0,0,0-1.43-1.43Z"/><path d="M188.88,100.17a1.43,1.43,0,1,0,1.43,1.42,1.42,1.42,0,0,0-1.43-1.42Z"/><path d="M206.94,44.08a1.43,1.43,0,1,0,1.43,1.43,1.43,1.43,0,0,0-1.43-1.43Z"/><path d="M206.94,81.16a1.43,1.43,0,1,0,1.43,1.42,1.42,1.42,0,0,0-1.43-1.42Z"/><path d="M206.94,62.14a1.43,1.43,0,1,0,1.43,1.43,1.43,1.43,0,0,0-1.43-1.43Z"/><path d="M206.94,100.17a1.43,1.43,0,1,0,1.43,1.42,1.42,1.42,0,0,0-1.43-1.42Z"/><path d="M188.88,117.28a1.43,1.43,0,1,0,1.43,1.42,1.42,1.42,0,0,0-1.43-1.42Z"/><path d="M188.88,154.35a1.43,1.43,0,1,0,1.43,1.42,1.43,1.43,0,0,0-1.43-1.42Z"/><path d="M188.88,135.34a1.43,1.43,0,1,0,1.43,1.42,1.42,1.42,0,0,0-1.43-1.42Z"/><path d="M206.94,117.28a1.43,1.43,0,1,0,1.43,1.42,1.42,1.42,0,0,0-1.43-1.42Z"/><path d="M206.94,154.35a1.43,1.43,0,1,0,1.43,1.42,1.43,1.43,0,0,0-1.43-1.42Z"/><path d="M206.94,135.34a1.43,1.43,0,1,0,1.43,1.42,1.42,1.42,0,0,0-1.43-1.42Z"/><path d="M232.61,34.58A1.43,1.43,0,1,0,234,36a1.43,1.43,0,0,0-1.43-1.42Z"/><path d="M232.61,71.65A1.43,1.43,0,1,0,234,73.08a1.43,1.43,0,0,0-1.43-1.43Z"/><path d="M232.61,52.64A1.43,1.43,0,1,0,234,54.07a1.43,1.43,0,0,0-1.43-1.43Z"/><path d="M232.61,90.66A1.43,1.43,0,1,0,234,92.09a1.43,1.43,0,0,0-1.43-1.43Z"/><path d="M232.61,108.72a1.43,1.43,0,1,0,1.43,1.43,1.43,1.43,0,0,0-1.43-1.43Z"/><path d="M232.61,145.79a1.43,1.43,0,1,0,1.43,1.43,1.43,1.43,0,0,0-1.43-1.43Z"/><path d="M232.61,126.78a1.43,1.43,0,1,0,1.43,1.43,1.43,1.43,0,0,0-1.43-1.43Z"/><path d="M313.41,34.58A1.43,1.43,0,1,0,314.83,36a1.43,1.43,0,0,0-1.42-1.42Z"/><path d="M313.41,71.65a1.43,1.43,0,1,0,1.42,1.43,1.43,1.43,0,0,0-1.42-1.43Z"/><path d="M313.41,52.64a1.43,1.43,0,1,0,1.42,1.43,1.43,1.43,0,0,0-1.42-1.43Z"/><path d="M313.41,90.66a1.43,1.43,0,1,0,1.42,1.43,1.43,1.43,0,0,0-1.42-1.43Z"/><path d="M313.41,108.72a1.43,1.43,0,1,0,1.42,1.43,1.43,1.43,0,0,0-1.42-1.43Z"/><path d="M313.41,145.79a1.43,1.43,0,1,0,1.42,1.43,1.43,1.43,0,0,0-1.42-1.43Z"/><path d="M313.41,126.78a1.43,1.43,0,1,0,1.42,1.43,1.43,1.43,0,0,0-1.42-1.43Z"/><path d="M232.61,158.15a1.43,1.43,0,1,0,1.43,1.43,1.43,1.43,0,0,0-1.43-1.43Z"/><path d="M232.61,195.22a1.43,1.43,0,1,0,1.43,1.43,1.43,1.43,0,0,0-1.43-1.43Z"/><path d="M232.61,176.21a1.43,1.43,0,1,0,1.43,1.43,1.43,1.43,0,0,0-1.43-1.43Z"/><path d="M232.61,214.23a1.43,1.43,0,1,0,1.43,1.43,1.43,1.43,0,0,0-1.43-1.43Z"/><path d="M232.61,232.29a1.43,1.43,0,1,0,1.43,1.43,1.43,1.43,0,0,0-1.43-1.43Z"/><path d="M313.41,162a1.43,1.43,0,1,0,1.42,1.43,1.43,1.43,0,0,0-1.42-1.43Z"/><path d="M313.41,199a1.43,1.43,0,1,0,1.42,1.43,1.43,1.43,0,0,0-1.42-1.43Z"/><path d="M313.41,180a1.43,1.43,0,1,0,1.42,1.43,1.43,1.43,0,0,0-1.42-1.43Z"/><path d="M313.41,218a1.43,1.43,0,1,0,1.42,1.43,1.43,1.43,0,0,0-1.42-1.43Z"/><path d="M313.41,236.09a1.43,1.43,0,1,0,1.42,1.43,1.43,1.43,0,0,0-1.42-1.43Z"/><path d="M131.85,177.16a1.43,1.43,0,1,0,1.43,1.43,1.42,1.42,0,0,0-1.43-1.43Z"/><path d="M131.85,214.23a1.43,1.43,0,1,0,1.43,1.43,1.42,1.42,0,0,0-1.43-1.43Z"/><path d="M131.85,195.22a1.43,1.43,0,1,0,1.43,1.43,1.42,1.42,0,0,0-1.43-1.43Z"/><path d="M131.85,233.24a1.43,1.43,0,1,0,1.43,1.43,1.42,1.42,0,0,0-1.43-1.43Z"/><path d="M213.6,177.16a1.43,1.43,0,1,0,1.42,1.43,1.43,1.43,0,0,0-1.42-1.43Z"/><path d="M213.6,214.23a1.43,1.43,0,1,0,1.42,1.43,1.43,1.43,0,0,0-1.42-1.43Z"/><path d="M213.6,195.22a1.43,1.43,0,1,0,1.42,1.43,1.43,1.43,0,0,0-1.42-1.43Z"/><path d="M213.6,233.24a1.43,1.43,0,1,0,0,2.85,1.43,1.43,0,0,0,0-2.85Z"/><path d="M194.59,233.24a1.43,1.43,0,1,0,0,2.85,1.43,1.43,0,0,0,0-2.85Z"/><path d="M175.58,233.24a1.43,1.43,0,1,0,1.42,1.43,1.43,1.43,0,0,0-1.42-1.43Z"/><path d="M156.57,233.24a1.43,1.43,0,1,0,1.42,1.43,1.43,1.43,0,0,0-1.42-1.43Z"/><path d="M194.59,176.21a1.43,1.43,0,1,0,1.42,1.43,1.43,1.43,0,0,0-1.42-1.43Z"/><path d="M175.58,176.21a1.43,1.43,0,1,0,1.42,1.43,1.43,1.43,0,0,0-1.42-1.43Z"/><path d="M156.57,176.21a1.43,1.43,0,1,0,1.42,1.43,1.43,1.43,0,0,0-1.42-1.43Z"/><path d="M289.64,233.24a1.43,1.43,0,1,0,1.43,1.43,1.42,1.42,0,0,0-1.43-1.43Z"/><path d="M270.63,233.24a1.43,1.43,0,1,0,1.43,1.43,1.42,1.42,0,0,0-1.43-1.43Z"/><path d="M251.62,233.24a1.43,1.43,0,1,0,1.43,1.43,1.43,1.43,0,0,0-1.43-1.43Z"/><path d="M291.54,111.57A1.43,1.43,0,1,0,293,113a1.43,1.43,0,0,0-1.43-1.43Z"/><path d="M272.53,111.57A1.43,1.43,0,1,0,274,113a1.42,1.42,0,0,0-1.43-1.43Z"/><path d="M253.52,111.57A1.43,1.43,0,1,0,255,113a1.42,1.42,0,0,0-1.43-1.43Z"/><path d="M291.54,92.56A1.43,1.43,0,1,0,293,94a1.43,1.43,0,0,0-1.43-1.43Z"/><path d="M272.53,92.56A1.43,1.43,0,1,0,274,94a1.42,1.42,0,0,0-1.43-1.43Z"/><path d="M253.52,92.56A1.43,1.43,0,1,0,255,94a1.42,1.42,0,0,0-1.43-1.43Z"/><path d="M291.54,34.58A1.43,1.43,0,1,0,293,36a1.43,1.43,0,0,0-1.43-1.42Z"/><path d="M272.53,34.58A1.43,1.43,0,1,0,274,36a1.42,1.42,0,0,0-1.43-1.42Z"/><path d="M253.52,34.58A1.43,1.43,0,1,0,255,36a1.42,1.42,0,0,0-1.43-1.42Z"/></g></svg>