<?xml version="1.0" encoding="utf-8"?>
<!-- Generator: Adobe Illustrator 22.1.0, SVG Export Plug-In . SVG Version: 6.00 Build 0)  -->
<svg style="enable-background:new 0 0 500 500;" id="Calque_1" version="1.1" viewBox="0 0 500 500" x="0px"
     xmlns="http://www.w3.org/2000/svg" y="0px" xml:space="preserve">
<style type="text/css">
	.st0{fill:#4FBDD7;}
	.st1{fill:#EAEAEA;}
	.st2{fill:#FFFFFF;}
	.st3{fill:#4FBDD7;stroke:#FFFFFF;stroke-width:5;stroke-miterlimit:10;}
	.st4{fill:#8C8C8C;}
	.st5{fill:#070707;}
	.st6{fill:none;stroke:#FFFFFF;stroke-width:7;stroke-miterlimit:10;}
	.st7{fill:none;stroke:#FFFFFF;stroke-width:10;stroke-miterlimit:10;}
	.st8{fill:#FFFFFF;stroke:#FFFFFF;stroke-width:3;stroke-miterlimit:10;}
	.st9{fill:none;stroke:#FDFFFF;stroke-width:6;stroke-miterlimit:10;}
	.st10{fill:#FAFEFF;}
	.st11{fill:none;stroke:#FFFFFF;stroke-width:2;stroke-miterlimit:10;}
	.st12{fill:#FFFFFF;stroke:#FFFFFF;stroke-width:2;stroke-miterlimit:10;}
	.st13{fill:#4FBDD7;stroke:#FFFFFF;stroke-width:4;stroke-miterlimit:10;}
	.st14{fill:#FFFFFF;stroke:#FFFFFF;stroke-width:4;stroke-miterlimit:10;}
	.st15{fill:none;stroke:#FFFFFF;stroke-miterlimit:10;}
	.st16{fill:#FFFFFF;stroke:#FFFFFF;stroke-width:13;stroke-miterlimit:10;}
	.st17{fill:#4FBDD7;stroke:#FFFFFF;stroke-width:8;stroke-miterlimit:10;}
	.st18{fill:#FFFFFF;stroke:#FFFFFF;stroke-width:0.75;stroke-miterlimit:10;}
	.st19{fill:#FFFFFF;stroke:#FFFFFF;stroke-width:0.5;stroke-miterlimit:10;}
	.st20{fill:#FFFFFF;stroke:#FFFFFF;stroke-width:8;stroke-miterlimit:10;}
	.st21{fill:#FFFFFF;stroke:#FFFFFF;stroke-miterlimit:10;}
	.st22{fill:#FFFFFF;stroke:#FFFFFF;stroke-width:11;stroke-miterlimit:10;}
	.st23{fill:#FFFFFF;stroke:#FFFFFF;stroke-width:6;stroke-miterlimit:10;}
	.st24{fill:#8C8C8C;stroke:#8C8C8C;stroke-width:4;stroke-miterlimit:10;}
	.st25{fill:#FFFFFF;stroke:#FFFFFF;stroke-width:1.05;stroke-miterlimit:10;}
	.st26{fill:none;stroke:#4FBDD7;stroke-width:5;stroke-miterlimit:10;}
	.st27{fill:none;stroke:#FFFFFF;stroke-width:4;stroke-miterlimit:10;}
	.st28{fill:#8C8C8C;stroke:#FFFFFF;stroke-width:4;stroke-miterlimit:10;}
	.st29{fill:#FFFFFF;stroke:#FFFFFF;stroke-width:10;stroke-miterlimit:10;}
	.st30{fill:none;stroke:#4FBDD7;stroke-width:2;stroke-miterlimit:10;}
	.st31{fill-rule:evenodd;clip-rule:evenodd;fill:#FFFFFF;}
	.st32{fill:none;}
	.st33{font-family:'HelveticaNeue-CondensedBold';}
	.st34{font-size:54px;}
	.st35{fill:#FFFFFF;stroke:#FFFFFF;stroke-width:7;stroke-miterlimit:10;}
	.st36{fill:#FFFFFF;stroke:#4FBDD7;stroke-width:7;stroke-miterlimit:10;}
	.st37{fill:#FCFCFC;}
	.st38{fill:#FFFFFF;stroke:#FFFFFF;stroke-width:5;stroke-miterlimit:10;}
	.st39{fill:none;stroke:#FFFFFF;stroke-width:3;stroke-miterlimit:10;}
	.st40{fill:none;stroke:#FFFFFF;stroke-width:8;stroke-miterlimit:10;}
	.st41{fill:none;stroke:#FFFFFF;stroke-width:6;stroke-miterlimit:10;}
	.st42{fill:#FFFFFF;stroke:#4FBDD7;stroke-width:3;stroke-miterlimit:10;}
	.st43{fill:none;stroke:#FFFFFF;stroke-width:0.75;stroke-miterlimit:10;}
	.st44{fill:#4FBDD7;stroke:#FFFFFF;stroke-width:9;stroke-miterlimit:10;}
	.st45{fill:none;stroke:#FFFFFF;stroke-width:9;stroke-miterlimit:10;}
	.st46{fill:none;stroke:#4FBDD7;stroke-width:3;stroke-miterlimit:10;}
</style>
    <rect class="st0" height="500" width="504" x="-1" y="1"/>
    <path class="st2" d="M278.2,136.9c1.9,8.8,6.5,15.8,13.2,20c6.7,4.3,14.9,5.4,23.7,3.5c1.8-0.4,3.7-0.9,5.5-1.6
	c4.4-1.6,8.7-3.9,12.7-6.7c0,0,0.1-0.1,0.1-0.1c4.5-3.2,8.7-7.2,12.4-11.8c0,0,0-0.1,0.1-0.1c1.6-2,3.1-4,4.5-6.2
	c7.6-11.8,11.1-25.1,10.1-37.4c-1-11.5-6-20.6-14-25.7s-18.4-5.8-29.2-1.9c-11.6,4.2-22.1,13-29.7,24.9c-1.4,2.2-2.6,4.4-3.8,6.7
	c0,0,0,0.1,0,0.1c-2.6,5.3-4.4,10.7-5.5,16.2c0,0.1,0,0.1,0,0.2c-0.9,4.8-1.2,9.7-0.8,14.3C277.5,133.1,277.8,135,278.2,136.9
	L278.2,136.9z M287.4,106l3.4,2.2l-5.5,8.6l-1.2-0.7C284.9,112.6,286,109.2,287.4,106z M307.1,80.8l0.8,0.5l-5.5,8.6l-3.2-2.1
	C301.7,85.2,304.3,82.8,307.1,80.8z M323.8,72.9c0.1,0,0.3-0.1,0.4-0.1l5.6,3.6l-5.5,8.6l-8.6-5.5l3.4-5.3
	C320.7,73.7,322.3,73.2,323.8,72.9z M350.7,120.7l-3.2-2.1l5.5-8.6l0.8,0.5C353.1,114,352.1,117.3,350.7,120.7z M331.6,146.2
	l-1.2-0.7l5.5-8.6l3.4,2.2C336.8,141.7,334.3,144.1,331.6,146.2z M315,154.5l-6.6-4.2l5.5-8.6l8.6,5.5l-4,6.2
	C317.3,153.9,316.1,154.2,315,154.5z M283,130.9l4-6.2l8.6,5.5l-5.5,8.6l-6.6-4.2C283.3,133.3,283.2,132.1,283,130.9z M300.5,133.2
	l8.6,5.5l-5.5,8.6l-8.6-5.5L300.5,133.2z M326.2,111.8l-5.5,8.6l-8.6-5.5l5.5-8.6L326.2,111.8z M320.7,101.5l5.5-8.6l8.6,5.5
	l-5.5,8.6L320.7,101.5z M317.6,125.2l-5.5,8.6l-8.6-5.5l5.5-8.6L317.6,125.2z M325.5,142.4l-8.6-5.5l5.5-8.6l8.6,5.5L325.5,142.4z
	 M325.5,123.5l5.5-8.6l8.6,5.5l-5.5,8.6L325.5,123.5z M334.1,110.1l5.5-8.6l8.6,5.5l-5.5,8.6L334.1,110.1z M353.8,91.7
	c0.4,1.6,0.7,3.4,0.8,5.2l-3.4,5.3l-8.6-5.5l5.5-8.6L353.8,91.7z M337.8,93.6l-8.6-5.5l5.5-8.6l8.6,5.5L337.8,93.6z M312.7,84.4
	l8.6,5.5l-5.5,8.6l-8.6-5.5L312.7,84.4z M312.7,103.3l-5.5,8.6l-8.6-5.5l5.5-8.6L312.7,103.3z M304.2,116.7l-5.5,8.6l-8.6-5.5
	l5.5-8.6L304.2,116.7z M290.5,148.8l1.4-2.2l8.6,5.5l-1.4,2.2c-1.6-0.6-3.2-1.3-4.6-2.2C293,151.1,291.7,150,290.5,148.8z
	 M342.9,134.6l-3.9-2.5l5.5-8.6l3.9,2.5c-0.9,1.7-1.8,3.3-2.8,4.9C344.6,132.1,343.8,133.4,342.9,134.6z M347.2,78.9l-0.8,1.2
	l-8.6-5.5l0.8-1.2c1.6,0.6,3.2,1.3,4.6,2.2C344.7,76.6,346,77.7,347.2,78.9z M295.5,92.2l3.9,2.5l-5.5,8.6l-3.9-2.5
	c0.7-1.3,1.5-2.6,2.3-3.9C293.2,95.3,294.3,93.7,295.5,92.2z"/>
    <path class="st2" d="M352.5,61.1c-16.7-10.7-39.9-7.4-58.9,8.4c-1.2,1-1.4,2.8-0.4,4c1,1.2,2.8,1.4,4,0.4
	c17.1-14.1,37.5-17.3,52.1-7.9c20,12.8,22.6,44.6,5.7,71.1c-9.9,15.6-24.5,25.8-38.8,29c-0.6,0.1-1.1,0.2-1.7,0.3c0,0-0.1,0-0.1,0
	c0,0,0,0,0,0c-9.3,1.7-18.5,0.3-26.2-4.6c-3.1-2-5.8-4.4-8.1-7.3c0,0,0,0,0,0c-3.3-4.1-5.7-9.1-7.1-14.5c0,0,0,0,0,0l0,0
	c0-0.1,0-0.1-0.1-0.2c-6.7-23.3,7.4-45.6,9.6-49c5.1-7.9,10.5-13,14.9-17c11.3-10.5,20.6-14.6,20.2-15.5c-0.5-1-12.9,2.7-24.2,11.6
	c-1.7,1.3-9,7.3-15.7,17.8c-3.3,5.1-13.8,22.4-11.8,44.6c0.3,2.9,0.7,5.7,1.4,8.3l-12.4,46.9l-2.6,4.1c-0.4,0-0.9,0-1.3,0.1
	c-1.1,0.2-2,0.9-2.6,1.8l-4.8,7.6c-0.6,0.9-0.8,2-0.5,3.1c0.1,0.4,0.3,0.9,0.5,1.2l-4.4,6.9c-0.9,1.3-0.5,3.1,0.9,4
	c0.7,0.4,1.4,0.5,2.2,0.4c0.7-0.2,1.4-0.6,1.8-1.3l4.2-6.5l14.5,9.3l-33.4,52.3c-0.5,0.8-1.6,1-2.4,0.5l-11.6-7.4
	c-0.8-0.5-1-1.6-0.5-2.4c9.7-15.3,19.4-30.5,29.1-45.8c2.4-4.7,6.1-12.2,5-12.9c-1-0.7-6.3,5.8-9.6,10
	c-9.8,15.2-19.6,30.4-29.4,45.6c-2.2,3.5-1.2,8.1,2.3,10.3l11.6,7.4c1.7,1.1,3.8,1.4,5.6,1c1.9-0.4,3.6-1.5,4.7-3.3l33.6-52.7
	c0.5,0,0.9,0,1.3-0.1c1-0.2,2-0.8,2.6-1.8l4.8-7.6c0.9-1.4,0.8-3,0-4.3l2.6-4.1c8.8-7.2,17.6-14.4,26.4-21.6
	c8-9.3,11.6-14.3,10.9-15c-0.9-0.9-8.9,5.1-23.9,18L275,198.8c-0.2,0.2-0.4,0.4-0.6,0.7l-2.6,4.1l-14.5-9.3l2.6-4.1
	c0.2-0.2,0.3-0.5,0.4-0.8l10.4-39.3c1.2,2.5,2.6,4.7,4.2,6.9l-7.7,27.3c-0.7,2.5,0.3,5.2,2.5,6.6c1.4,0.9,3,1.1,4.5,0.8
	c0.9-0.2,1.8-0.6,2.6-1.3l21.5-18.5c2.6,0.5,5.3,0.8,8,0.9l-4.4,3.7c-1.2,1-1.4,2.8-0.4,4c0.7,0.9,1.8,1.2,2.8,1
	c0.4-0.1,0.8-0.3,1.2-0.6l10.9-9c0.4-0.1,0.8-0.2,1.1-0.2c2.3-0.5,4.6-1.2,7-2c14-5.1,26.6-15.5,35.5-29.5
	c8.9-14,13.1-29.8,11.8-44.6C370.4,80.4,363.6,68.2,352.5,61.1z M267.5,214.5l-18.4-11.7l3.1-4.8l18.4,11.7L267.5,214.5z M273,186
	c-0.1,0.1-0.1,0.1-0.2,0c-0.1-0.1-0.1-0.1-0.1-0.2l6.7-23.8c1.8,1.7,3.7,3.2,5.8,4.5c2.1,1.3,4.3,2.5,6.6,3.4L273,186z"/>
    <path class="st2" d="M207.3,140.2c0.4-1.8,0.7-3.7,0.9-5.6c0.4-4.7,0.1-9.5-0.8-14.3c0-0.1,0-0.1,0-0.2c-1-5.4-2.9-10.9-5.5-16.2
	c0,0,0-0.1,0-0.1c-1.1-2.3-2.4-4.5-3.8-6.7c-7.6-11.8-18.1-20.7-29.7-24.9c-10.8-3.9-21.2-3.2-29.2,1.9s-13,14.3-14,25.7
	c-1.1,12.3,2.5,25.6,10.1,37.4c1.4,2.2,2.9,4.2,4.5,6.2c0,0,0,0.1,0.1,0.1c3.7,4.6,7.9,8.5,12.4,11.8c0,0,0.1,0.1,0.1,0.1
	c4,2.9,8.3,5.1,12.7,6.7c1.9,0.7,3.7,1.2,5.5,1.6c8.8,1.9,17.1,0.7,23.7-3.5C200.8,156.1,205.3,149.1,207.3,140.2L207.3,140.2z
	 M201.3,119.3l-1.2,0.7l-5.5-8.6l3.4-2.2C199.5,112.6,200.6,116,201.3,119.3z M186.2,91.2l-3.2,2.1l-5.5-8.6l0.8-0.5
	C181.1,86.2,183.8,88.6,186.2,91.2z M166.2,77.6l3.4,5.3l-8.6,5.5l-5.5-8.6l5.6-3.6c0.1,0,0.3,0.1,0.4,0.1
	C163.1,76.6,164.7,77.1,166.2,77.6z M131.6,114l0.8-0.5l5.5,8.6l-3.2,2.1C133.3,120.7,132.3,117.4,131.6,114z M146.2,142.4l3.4-2.2
	l5.5,8.6l-1.2,0.7C151.2,147.5,148.6,145.1,146.2,142.4z M167,156.9l-4-6.2l8.6-5.5l5.5,8.6l-6.6,4.2
	C169.3,157.6,168.1,157.3,167,156.9z M201.9,137.9l-6.6,4.2l-5.5-8.6l8.6-5.5l4,6.2C202.3,135.5,202.1,136.7,201.9,137.9z
	 M190.5,145.2l-8.6,5.5l-5.5-8.6l8.6-5.5L190.5,145.2z M167.8,109.7l5.5,8.6l-8.6,5.5l-5.5-8.6L167.8,109.7z M156.2,110.4l-5.5-8.6
	l8.6-5.5l5.5,8.6L156.2,110.4z M176.4,123.2l5.5,8.6l-8.6,5.5l-5.5-8.6L176.4,123.2z M154.4,137.2l8.6-5.5l5.5,8.6l-8.6,5.5
	L154.4,137.2z M151.3,132.4l-5.5-8.6l8.6-5.5l5.5,8.6L151.3,132.4z M142.8,118.9l-5.5-8.6l8.6-5.5l5.5,8.6L142.8,118.9z M137.3,91.5
	l5.5,8.6l-8.6,5.5l-3.4-5.3c0.2-1.8,0.4-3.5,0.8-5.2L137.3,91.5z M142.1,88.4l8.6-5.5l5.5,8.6l-8.6,5.5L142.1,88.4z M178.2,96.3
	l-8.6,5.5l-5.5-8.6l8.6-5.5L178.2,96.3z M181.3,101.2l5.5,8.6l-8.6,5.5l-5.5-8.6L181.3,101.2z M189.8,114.6l5.5,8.6l-8.6,5.5
	l-5.5-8.6L189.8,114.6z M191,155.5c-1.4,0.9-3,1.7-4.6,2.2l-1.4-2.2l8.6-5.5l1.4,2.2C193.8,153.4,192.4,154.5,191,155.5z M140,134.2
	c-1-1.6-2-3.3-2.8-4.9l3.9-2.5l5.5,8.6l-3.9,2.5C141.7,136.8,140.8,135.5,140,134.2z M142.2,79c1.4-0.9,3-1.7,4.6-2.2l0.8,1.2
	l-8.6,5.5l-0.8-1.2C139.5,81.1,140.8,80,142.2,79z M193.2,100.3c0.8,1.3,1.6,2.6,2.3,3.9l-3.9,2.5l-5.5-8.6l3.9-2.5
	C191.1,97.1,192.2,98.7,193.2,100.3z"/>
    <path class="st2" d="M113.7,98.9c-1.3,14.8,2.9,30.6,11.8,44.6c8.9,14,21.5,24.4,35.5,29.5c2.3,0.8,4.7,1.5,7,2
	c0.4,0.1,0.8,0.2,1.1,0.2l10.9,9c0.4,0.3,0.8,0.5,1.2,0.6c1,0.2,2.1-0.1,2.8-1c1-1.2,0.8-3-0.4-4l-4.4-3.7c2.7,0,5.4-0.3,8-0.9
	l21.5,18.5c0.8,0.7,1.7,1.1,2.6,1.3c1.5,0.3,3.1,0.1,4.5-0.8c2.2-1.4,3.2-4.1,2.5-6.6l-7.7-27.3c1.6-2.1,3-4.4,4.2-6.9l10.4,39.3
	c0.1,0.3,0.2,0.6,0.4,0.8l2.6,4.1l-14.5,9.3l-2.6-4.1c-0.2-0.2-0.4-0.5-0.6-0.7l-17.4-14.5c-15-13-23-19-23.9-18
	c-0.7,0.7,2.9,5.7,10.9,15c8.8,7.2,17.6,14.4,26.4,21.6l2.6,4.1c-0.8,1.3-0.8,3,0,4.3l4.8,7.6c0.6,1,1.6,1.6,2.6,1.8
	c0.4,0.1,0.9,0.1,1.3,0.1l33.6,52.7c1.1,1.7,2.8,2.9,4.7,3.3c1.9,0.4,3.9,0.1,5.6-1l11.6-7.4c3.5-2.2,4.5-6.8,2.3-10.3
	c-9.8-15.2-19.6-30.4-29.4-45.6c-3.3-4.2-8.6-10.6-9.6-10c-1,0.7,2.6,8.2,5,12.9c9.7,15.3,19.4,30.5,29.1,45.8
	c0.5,0.8,0.3,1.9-0.5,2.4l-11.6,7.4c-0.8,0.5-1.9,0.3-2.4-0.5l-33.4-52.3l14.5-9.3l4.2,6.5c0.4,0.7,1.1,1.1,1.8,1.3
	c0.7,0.2,1.5,0,2.2-0.4c1.3-0.9,1.7-2.6,0.9-4l-4.4-6.9c0.2-0.4,0.4-0.8,0.5-1.2c0.2-1.1,0-2.2-0.5-3.1l-4.8-7.6
	c-0.6-0.9-1.5-1.6-2.6-1.8c-0.4-0.1-0.9-0.1-1.3-0.1l-2.6-4.1l-12.4-46.9c0.7-2.7,1.1-5.4,1.4-8.3c2-22.3-8.5-39.5-11.8-44.6
	c-6.7-10.5-14-16.5-15.7-17.8c-11.3-8.9-23.7-12.6-24.2-11.6c-0.5,0.9,8.9,5,20.2,15.5c4.3,4,9.8,9.1,14.9,17
	c2.2,3.5,16.3,25.7,9.6,49c0,0.1,0,0.1-0.1,0.2l0,0c0,0,0,0,0,0c-1.4,5.4-3.8,10.4-7.1,14.5c0,0,0,0,0,0c-2.3,2.8-5,5.3-8.1,7.3
	c-7.7,4.9-16.9,6.3-26.2,4.6c0,0,0,0,0,0c0,0-0.1,0-0.1,0c-0.6-0.1-1.1-0.2-1.7-0.3c-14.3-3.2-28.9-13.4-38.8-29
	C113.5,114,116,82.1,136,69.4c14.6-9.3,35.1-6.2,52.1,7.9c1.2,1,3,0.8,4-0.4c1-1.2,0.8-3-0.4-4c-19-15.8-42.1-19.1-58.9-8.4
	C121.8,71.6,115,83.8,113.7,98.9z M214.8,213l18.4-11.7l3.1,4.8l-18.4,11.7L214.8,213z M193.7,173.3c2.3-0.9,4.5-2,6.6-3.4
	c2.1-1.3,4-2.8,5.8-4.5l6.7,23.8c0,0.1,0,0.1-0.1,0.2c-0.1,0.1-0.2,0-0.2,0L193.7,173.3z"/>
    <circle class="st2" cx="312.3" cy="255.9" r="20.8"/>
    <g>
	<rect class="st32" height="144" width="500" x="-1" y="366"/>
        <text transform="matrix(1 0 0 1 141.0283 404.5557)"><tspan class="st2 st33 st34" x="0" y="0">Raquettes </tspan>
            <tspan class="st2 st33 st34" x="17.1" y="64.8">et balles</tspan></text>
</g>
</svg>
