<?xml version="1.0" encoding="utf-8"?>
<!-- Generator: Adobe Illustrator 22.1.0, SVG Export Plug-In . SVG Version: 6.00 Build 0)  -->
<svg style="enable-background:new 0 0 500 500;" id="Calque_1" version="1.1" viewBox="0 0 500 500" x="0px"
     xmlns="http://www.w3.org/2000/svg" y="0px" xml:space="preserve">
<style type="text/css">
	.st0{fill:#EAEAEA;}
	.st1{fill:#8C8C8C;}
	.st2{fill:#FFFFFF;}
	.st3{fill:#EAEAEA;stroke:#8C8C8C;stroke-width:7;stroke-miterlimit:10;}
	.st4{fill:#070707;}
	.st5{fill:none;stroke:#8C8C8C;stroke-width:7;stroke-miterlimit:10;}
	.st6{fill:none;stroke:#8C8C8C;stroke-width:10;stroke-miterlimit:10;}
	.st7{fill:#8C8C8C;stroke:#8C8C8C;stroke-width:3;stroke-miterlimit:10;}
	.st8{fill:none;stroke:#8C8C8C;stroke-width:8;stroke-miterlimit:10;}
	.st9{fill:none;stroke:#8E8E8E;stroke-width:6;stroke-miterlimit:10;}
	.st10{fill:#8E8E8E;}
	.st11{fill:#505050;}
	.st12{fill:none;stroke:#8E8E8E;stroke-width:2;stroke-miterlimit:10;}
	.st13{fill:#8C8C8C;stroke:#8C8C8C;stroke-width:2;stroke-miterlimit:10;}
	.st14{fill:#8C8C8C;stroke:#FFFFFF;stroke-width:2;stroke-miterlimit:10;}
	.st15{fill:none;stroke:#FFFFFF;stroke-width:2;stroke-miterlimit:10;}
	.st16{fill:none;stroke:#8C8C8C;stroke-miterlimit:10;}
	.st17{fill:none;stroke:#8C8C8C;stroke-width:13;stroke-miterlimit:10;}
	.st18{fill:#EAEAEA;stroke:#8C8C8C;stroke-width:8;stroke-miterlimit:10;}
	.st19{fill:none;stroke:#8C8C8C;stroke-width:4;stroke-miterlimit:10;}
	.st20{fill:#8C8C8C;stroke:#8C8C8C;stroke-width:0.75;stroke-miterlimit:10;}
	.st21{fill:none;stroke:#8C8C8C;stroke-width:9;stroke-miterlimit:10;}
	.st22{fill:#8C8C8C;stroke:#8C8C8C;stroke-width:0.5;stroke-miterlimit:10;}
	.st23{fill:#6B6B6B;}
	.st24{fill:none;}
	.st25{stroke:#8C8C8C;stroke-width:8;stroke-miterlimit:10;}
	.st26{fill:#8C8C8C;stroke:#8C8C8C;stroke-miterlimit:10;}
	.st27{fill:none;stroke:#8C8C8C;stroke-width:11;stroke-miterlimit:10;}
	.st28{fill:none;stroke:#8C8C8C;stroke-width:6;stroke-miterlimit:10;}
	.st29{stroke:#8C8C8C;stroke-width:6;stroke-miterlimit:10;}
	.st30{fill:#8C8C8C;stroke:#8C8C8C;stroke-width:4;stroke-miterlimit:10;}
	.st31{fill:#8C8C8C;stroke:#8C8C8C;stroke-width:1.05;stroke-miterlimit:10;}
	.st32{fill:#D6D6D6;}
	.st33{fill:none;stroke:#EAEAEA;stroke-width:5;stroke-miterlimit:10;}
	.st34{fill:#8C8C8C;stroke:#8C8C8C;stroke-width:10;stroke-miterlimit:10;}
	.st35{fill:none;stroke:#CECECE;stroke-width:2;stroke-miterlimit:10;}
	.st36{fill:none;stroke:#FFFFFF;stroke-width:4;stroke-miterlimit:10;}
	.st37{fill-rule:evenodd;clip-rule:evenodd;fill:#8C8C8C;}
	.st38{font-family:'HelveticaNeue-CondensedBold';}
	.st39{font-size:54px;}
	.st40{fill:#8C8C8C;stroke:#8C8C8C;stroke-width:8;stroke-miterlimit:10;}
	.st41{fill:#8C8C8C;stroke:#8C8C8C;stroke-width:7;stroke-miterlimit:10;}
	.st42{fill:#DBDBDB;stroke:#8C8C8C;stroke-width:7;stroke-miterlimit:10;}
	.st43{fill:none;stroke:#8C8C8C;stroke-width:5;stroke-miterlimit:10;}
	.st44{fill:none;stroke:#8C8C8C;stroke-width:3;stroke-miterlimit:10;}
	.st45{clip-path:url(#SVGID_2_);fill:#8C8C8C;}
	.st46{clip-path:url(#SVGID_2_);fill:none;stroke:#8C8C8C;stroke-width:8;stroke-miterlimit:10;}
	.st47{clip-path:url(#SVGID_2_);fill:#FFFFFF;}
	.st48{clip-path:url(#SVGID_2_);fill:#EAEAEA;}
	.st49{clip-path:url(#SVGID_2_);fill:none;stroke:#8C8C8C;stroke-miterlimit:10;}
	.st50{fill:none;stroke:#FFFFFF;stroke-width:0.75;stroke-miterlimit:10;}
	.st51{fill:none;stroke:#8C8C8C;stroke-width:14;stroke-miterlimit:10;}
	.st52{fill:none;stroke:#EAEAEA;stroke-width:2;stroke-miterlimit:10;}
	.st53{fill:none;stroke:#8C8C8C;stroke-width:2;stroke-miterlimit:10;}
</style>
    <rect class="st0" height="500" width="500" x="1" y="1"/>
    <g>
	<path class="st1" d="M108,142.2L108,142.2l-2.3,49.4c0,1,0.4,1.9,1.2,2.4l40.6,27.5c1.1,0.8,2.7,0.5,3.5-0.7
		c1.8-2.7,3.9-4.7,6.4-6.1c4.1-2.2,8.7-2.6,13.6-1.4l-14.4,8l0,0c-6.1,3.4-9.9,10.4-10.7,19.8c-0.7,8.9,1.4,19,5.9,28.5
		s11,17.1,18.3,21.6c4.2,2.6,8.3,4,12.2,4.2c3.2,0.2,6.3-0.5,9.1-2.1c0.2-0.1,20.4-11.3,20.4-11.3c4-2.2,7-6,8.9-11l37.6,25.4
		c0.4,0.3,0.8,0.4,1.3,0.4c0.4,0,0.9-0.1,1.3-0.3l35.6-19.6l65.1,17l19.3,13.2c0.4,0.3,0.8,0.4,1.3,0.4c0.9,0,1.8-0.4,2.3-1.3
		c0.8-1.3,0.4-2.9-0.8-3.8l-19.1-13l-19-39.7l32.6-18c0.8-0.4,1.3-1.3,1.4-2.3l2.3-49.4l0,0l0,0c0-1-0.4-1.9-1.2-2.4L229.2,75.3
		c-0.8-0.5-1.7-0.6-2.5-0.1l-117.2,64.7C108.6,140.3,108.1,141.2,108,142.2L108,142.2z M154.8,169l70.5-38.9l107.2,72.5L262,241.5
		L154.8,169z M115.7,142.5l109.4-60.4l-2,43.1l-73.2,40.4L115.7,142.5z M374,179.7l-36.2,20l-109.7-74.2l2-43.1L374,179.7z
		 M374.3,227.6l-112,61.8l2-43.1l112-61.8L374.3,227.6z M355.8,283.6l-32.1-21.9l17.1-9.4L355.8,283.6z M303.2,273l15.3-8.4
		l29.6,20.2L303.2,273z M158.9,226c9.7-5.4,24.4,4.3,32.7,21.5c8.3,17.2,7.1,35.6-2.6,40.9c-9.7,5.4-24.4-4.3-32.7-21.5
		c-4.1-8.5-6-17.6-5.4-25.5C151.5,233.9,154.3,228.5,158.9,226z M177.4,215.7c9.3,4.8,18.6,14.8,25,28.2c2.8,5.8,4.9,11.9,6.1,18
		c0.1,0.7,0.5,1.3,1.1,1.7l6.4,4.3c-1,3.3-3,7.1-6.8,9.2l-9.2,5.1c0.9-2.6,1.6-5.5,1.8-8.8c0.7-8.9-1.4-19-5.9-28.5
		c-4.5-9.4-11-17.1-18.3-21.6c-2.6-1.7-5.3-2.8-7.8-3.5L177.4,215.7z M110.9,190.2l2-43.1l146.3,99l-2,43.1l-43.8-29.7
		c-1.4-6.2-3.5-12.3-6.4-18.2c-6-12.5-14.7-22.7-24.2-28.7c-10-6.2-19.8-7.2-27.8-2.9c-2.5,1.4-4.8,3.3-6.7,5.7L110.9,190.2z"/>
        <path class="st1" d="M161.6,249.1c0.2,3.9,1.5,8.5,3.6,12.9c4.4,9.1,9.9,13.3,14.1,13.5c1.1,0.1,2.2-0.2,3.1-0.7
		c4.3-2.4,5.8-10.9,0.2-22.4c-2.1-4.4-4.9-8.2-7.7-10.6c-3.4-2.9-6.8-3.7-9.4-2.2C162.7,241,161.4,244.4,161.6,249.1z M167.7,244.4
		c0.1-0.1,0.3-0.1,0.5-0.1c0.7,0,1.9,0.6,3.4,1.8c2.3,1.9,4.6,5.2,6.4,8.9c3.8,8,3.5,14.3,2.1,15.1c-1.5,0.8-6.5-2.6-10.3-10.5
		c-1.8-3.7-2.9-7.6-3-10.7C166.6,246.2,167.2,244.7,167.7,244.4z"/>
</g>
    <g>
	<rect class="st24" height="144" width="500" y="365"/>
        <text class="st23 st38 st39" transform="matrix(1 0 0 1 140.5693 403.5557)">Remorque</text>
</g>
</svg>
