<svg id="Calque_1" data-name="Calque 1" xmlns="http://www.w3.org/2000/svg" viewBox="0 0 350 300"><defs><style>.cls-1{fill:none;stroke:#000;stroke-miterlimit:10;stroke-width:5px;}</style></defs><title>selected</title><path class="cls-1" d="M129.61,87.86a73.38,73.38,0,1,0,30.07,47.44,73.37,73.37,0,0,0-30.07-47.44m13.79,99.43a68.49,68.49,0,1,1,11.46-51.15,68.49,68.49,0,0,1-11.46,51.15Z"/><path class="cls-1" d="M77.31,90a61.91,61.91,0,0,1,6.52-.73,2.45,2.45,0,0,0-.29-4.89,69.62,69.62,0,0,0-7.06.8A63,63,0,0,0,41,104.31a2.45,2.45,0,0,0,3.58,3.35A58,58,0,0,1,77.31,90"/><path class="cls-1" d="M133.62,188a2.45,2.45,0,0,0-3.46.11,58.11,58.11,0,0,1-32.72,17.61,59.3,59.3,0,0,1-13.24.77,2.45,2.45,0,0,0-1,4.75,2.49,2.49,0,0,0,.71.14,65.55,65.55,0,0,0,14.34-.83,63,63,0,0,0,35.45-19.1,2.44,2.44,0,0,0-.11-3.45"/><path class="cls-1" d="M92.56,161.85l-.23.05-2.38.43-4.87.85a2.4,2.4,0,0,0-1.73,1.33,17.37,17.37,0,0,1-4.43-1.79,4.88,4.88,0,0,0-1.11-3.41l-3.38-4.05a4.9,4.9,0,0,0-3.18-1.7,17.16,17.16,0,0,1-.74-2.75,16.36,16.36,0,0,1-.23-2.8,4.88,4.88,0,0,0,2.41-2.7l1.82-5a4.82,4.82,0,0,0-.1-3.6A17.49,17.49,0,0,1,78,133.6a2.31,2.31,0,0,0,2.08.67l2.06-.37h.09l.24-.05,2.38-.43,4.86-.84a2.43,2.43,0,0,0,1.74-1.34A17.58,17.58,0,0,1,95.83,133,4.89,4.89,0,0,0,97,136.44l3.37,4.05a4.92,4.92,0,0,0,3.19,1.72,17.21,17.21,0,0,1,.74,2.73,16.55,16.55,0,0,1,.22,2.81,4.88,4.88,0,0,0-2.41,2.7l-1.82,5a4.87,4.87,0,0,0,.1,3.6,17.18,17.18,0,0,1-3.56,3.14,2.41,2.41,0,0,0-2.07-.66l-2,.36h-.12m-39.48,8.9,17.6-12.36,3.38,4.05-15.3,15.1Zm-2.92-41.27,19.76,9.18-1.82,5-21-5.78a41.67,41.67,0,0,1,3.1-8.37ZM122,124.8l-17.88,12.56-3.38-4.05L116.24,118a41.12,41.12,0,0,1,5.72,6.83Zm2.65,41.46-19.76-9.17,1.82-5,21,5.78a41.73,41.73,0,0,1-3.09,8.38ZM80.26,106.91a41,41,0,0,1,4.42-.51l1.93,21.75-2.67.47-2.51.43L75.9,107.91a43,43,0,0,1,4.36-1m9.82,82.46-1.92-21.76,2.67-.47,2.51-.44,5.53,21.14a39.61,39.61,0,0,1-8.77,1.53Z"/><path class="cls-1" d="M93,139.88a9.78,9.78,0,1,0,4,6.32,9.65,9.65,0,0,0-4-6.32M91.39,150.7a4.89,4.89,0,1,1-2.32-7.42,5.18,5.18,0,0,1,1.14.6,4.9,4.9,0,0,1,1.18,6.82Z"/><path class="cls-1" d="M108.55,155.54a22.42,22.42,0,1,1-13.34-28.76,22.42,22.42,0,0,1,13.34,28.76"/><path class="cls-1" d="M280.85,75.51A73.4,73.4,0,1,0,310.91,123a73.37,73.37,0,0,0-30.06-47.44m13.78,99.43a68.5,68.5,0,1,1,11.46-51.16,68.49,68.49,0,0,1-11.46,51.16Z"/><path class="cls-1" d="M228.54,77.69a62.23,62.23,0,0,1,6.52-.74,2.44,2.44,0,1,0-.29-4.88,67,67,0,0,0-7.05.79A62.92,62.92,0,0,0,192.27,92a2.44,2.44,0,0,0,3.57,3.34,58.08,58.08,0,0,1,32.7-17.61"/><path class="cls-1" d="M284.86,175.63a2.49,2.49,0,0,0-1.76-.66,2.43,2.43,0,0,0-1.7.77,58,58,0,0,1-32.72,17.61,60,60,0,0,1-13.25.78,2.44,2.44,0,0,0-1,4.74,2.81,2.81,0,0,0,.71.15,65,65,0,0,0,14.34-.84A63,63,0,0,0,285,179.09a2.46,2.46,0,0,0-.11-3.46"/><path class="cls-1" d="M243.8,149.5l-.23,0-2.39.43-4.86.85a2.43,2.43,0,0,0-1.74,1.34,17.52,17.52,0,0,1-4.42-1.79A4.9,4.9,0,0,0,229,147l-3.38-4.05a4.93,4.93,0,0,0-3.17-1.71,16.35,16.35,0,0,1-.75-2.74,17.64,17.64,0,0,1-.22-2.81,4.88,4.88,0,0,0,2.41-2.7l1.82-5a4.87,4.87,0,0,0-.1-3.6,17.39,17.39,0,0,1,3.55-3.14,2.32,2.32,0,0,0,2.09.66l2.06-.36h.09l.23,0,2.39-.43,4.86-.85a2.4,2.4,0,0,0,1.73-1.33,17,17,0,0,1,4.41,1.77,4.93,4.93,0,0,0,1.14,3.42l3.37,4a4.86,4.86,0,0,0,3.19,1.72,18.34,18.34,0,0,1,.74,2.73,17.64,17.64,0,0,1,.22,2.81,4.88,4.88,0,0,0-2.41,2.7l-1.82,5a4.82,4.82,0,0,0,.1,3.6A17.49,17.49,0,0,1,248,149.8a2.43,2.43,0,0,0-2.08-.67l-2,.36h-.12m-39.48,8.89L221.91,146l3.38,4L210,165.18Zm-2.92-41.27,19.76,9.18-1.83,5-21-5.79a42.49,42.49,0,0,1,3.09-8.37Zm71.8-4.68L255.32,125l-3.38-4,15.53-15.33a41.59,41.59,0,0,1,5.73,6.83Zm2.64,41.47-19.76-9.17,1.83-5,21,5.78a41.67,41.67,0,0,1-3.1,8.37ZM231.49,94.55a41.41,41.41,0,0,1,4.43-.5l1.93,21.74-2.68.47-2.5.44-5.53-21.14a40.34,40.34,0,0,1,4.35-1M241.32,177l-1.92-21.76,2.67-.47,2.5-.43,5.54,21.14a40.79,40.79,0,0,1-8.78,1.53Z"/><path class="cls-1" d="M244.25,127.52a9.78,9.78,0,1,0,4,6.32,9.78,9.78,0,0,0-4-6.32m-1.62,10.82a4.89,4.89,0,1,1-2.33-7.41,5.13,5.13,0,0,1,1.14.59,4.89,4.89,0,0,1,1.19,6.82Z"/><path class="cls-1" d="M259.78,143.19a22.42,22.42,0,1,1-13.33-28.77,22.42,22.42,0,0,1,13.33,28.77"/><path class="cls-1" d="M98.08,151.71a11.28,11.28,0,1,1-6.7-14.47,11.27,11.27,0,0,1,6.7,14.47"/><path class="cls-1" d="M248.7,138.15a11.27,11.27,0,1,1-6.7-14.47,11.28,11.28,0,0,1,6.7,14.47"/></svg>