<svg id="Calque_1" data-name="Calque 1" xmlns="http://www.w3.org/2000/svg" viewBox="0 0 350 300"><title>selected</title><path d="M136,28.86a9,9,0,0,1,4.52,1.22l45.64,26.37a.34.34,0,0,1,.17.22.32.32,0,0,1,0,.27.34.34,0,0,1-.31.18.26.26,0,0,1-.17,0L140.14,30.7A8.29,8.29,0,0,0,136,29.57a8.39,8.39,0,0,0-7.25,4.18L111.28,63.93a8.37,8.37,0,0,0,3.06,11.42l125.24,72.37A8.37,8.37,0,0,0,251,144.67l17.44-30.18a8.36,8.36,0,0,0-3.05-11.42L219.74,76.69a.34.34,0,0,1-.17-.22.37.37,0,0,1,0-.27.36.36,0,0,1,.31-.18.41.41,0,0,1,.18,0l45.64,26.38a9.09,9.09,0,0,1,3.32,12.39l-6.54,11.32-2,3.46,3.46,2,18.86,10.89a.36.36,0,0,1,.13.49l-26.16,45.27a.34.34,0,0,1-.31.18.26.26,0,0,1-.17-.05L167.3,137l-3.47-2-2,3.47L145.26,167.1l-2,3.46,3.47,2,7.54,4.36a9.09,9.09,0,0,1,3.32,12.4l-4.36,7.54a9.13,9.13,0,0,1-7.88,4.53,9,9,0,0,1-1.64-.15l-2.78-.52-1.41,2.45-27.84,48.18a9.1,9.1,0,0,1-12.4,3.32l-7.54-4.36a9.1,9.1,0,0,1-3.32-12.4l27.84-48.18,1.42-2.44-1.83-2.15a9.11,9.11,0,0,1-1-10.44l4.36-7.54a9.1,9.1,0,0,1,12.4-3.32l7.54,4.36,3.47,2,2-3.46,18.74-32.44a.37.37,0,0,1,.32-.18.28.28,0,0,1,.17,0l89,51.44,3.47,2,2-3.47,21.8-37.72,2-3.47-3.47-2-15.09-8.72-3.46-2-2,3.47L251.62,145a9.08,9.08,0,0,1-12.39,3.32L114,76a9.07,9.07,0,0,1-3.31-12.39l6.54-11.32,1.93-3.34-3.27-2L114.44,46,113,45l0,0,0,0a.79.79,0,0,1-.4-.56l0,0,1.39.7,2.41,1.2L119.68,48l1.89-3.26,6.54-11.32A9.11,9.11,0,0,1,136,28.86m9.39,171.82a8.38,8.38,0,0,0,7.24-4.18L157,189a8.38,8.38,0,0,0-3.06-11.42l-22.63-13.08a8.36,8.36,0,0,0-11.42,3.06l-4.36,7.54a8.37,8.37,0,0,0,3.06,11.42l22.63,13.08a8.39,8.39,0,0,0,4.18,1.12m-41.56,54.49a8.39,8.39,0,0,0,7.25-4.18l27.46-47.53,2-3.46-3.47-2L122,189.28l-3.46-2-2,3.46L89,238.27a8.38,8.38,0,0,0,3.06,11.42l7.54,4.36a8.38,8.38,0,0,0,4.17,1.12M136,24.86a13.07,13.07,0,0,0-11.34,6.53L118.1,42.71l-4.81-2.4-.4,0a4.42,4.42,0,0,0-4,2.38,4.54,4.54,0,0,0,2,5.76l2.91,1.82L107.2,61.57A13.1,13.1,0,0,0,112,79.43L237.23,151.8a12.94,12.94,0,0,0,6.51,1.75A13.07,13.07,0,0,0,255.08,147l6.54-11.31,15.09,8.72-21.8,37.72-89-51.45a4.36,4.36,0,0,0-5.95,1.6l-18.75,32.44-7.54-4.36a13.08,13.08,0,0,0-17.86,4.78l-4.36,7.54a13.1,13.1,0,0,0,1.38,15L85,235.91a13.09,13.09,0,0,0,4.78,17.86l7.54,4.36a13.08,13.08,0,0,0,17.86-4.78L143,205.17a12.67,12.67,0,0,0,2.37.22,13.07,13.07,0,0,0,11.34-6.53l4.36-7.54a13.09,13.09,0,0,0-4.78-17.86l-7.54-4.36,16.57-28.67,89,51.45a4.36,4.36,0,0,0,5.95-1.6L286.44,145a4.36,4.36,0,0,0-1.6-5.95L266,128.16l6.54-11.32A13.07,13.07,0,0,0,267.74,99L222.1,72.61a4.36,4.36,0,0,0-4.36,7.55l45.64,26.37a4.35,4.35,0,0,1,1.6,6l-17.44,30.18a4.36,4.36,0,0,1-5.95,1.6L116.34,71.88a4.36,4.36,0,0,1-1.59-5.95l17.44-30.18A4.36,4.36,0,0,1,136,33.57a4.3,4.3,0,0,1,2.17.59l45.65,26.38A4.36,4.36,0,0,0,188.15,53L142.5,26.61A13.05,13.05,0,0,0,136,24.86Zm9.39,171.82a4.33,4.33,0,0,1-2.18-.59L120.56,183a4.35,4.35,0,0,1-1.59-5.95l4.36-7.54a4.34,4.34,0,0,1,6-1.59L151.91,181a4.38,4.38,0,0,1,1.6,6l-4.36,7.54a4.37,4.37,0,0,1-3.78,2.18Zm-41.56,54.49a4.32,4.32,0,0,1-2.17-.59l-7.54-4.36a4.36,4.36,0,0,1-1.6-5.95L120,192.74l15.09,8.72L107.59,249a4.34,4.34,0,0,1-3.78,2.18Z"/><path d="M144,32.43l118.13,67.93-.18.32L143.76,32.75l.19-.32M142.47,27l-4.17,7.25,125.07,71.92,4.17-7.26L142.47,27Z"/></svg>