<svg id="Calque_1" data-name="Calque 1" xmlns="http://www.w3.org/2000/svg" viewBox="0 0 350 300"><title>selected</title><path d="M141.43,11.66c-3.37,1.63-5.51,4.76-5.63,7.74a9,9,0,0,0,2.69,6.46,11.36,11.36,0,0,0,3.81,2.61h-4.87a12.44,12.44,0,0,1-3.51-9.12,12.19,12.19,0,0,1,3.48-7.69h4m154,8.21v.39h-15v-.39h15m-59,15-.65,1.35-7.93,16.46H200l-1.1,2.23-8.13,16.5H177.57v5.33c0,9.47,9.73,16.89,22.16,16.89h50.59l.12.4H199.73c-14.09,0-26-7.92-26-17.29V71.38h-16l15.62-31.69,2.39-4.85h3.6l-.64,1.32L164.37,65.21,161.52,71H187.4l1.1-2.23,14.32-29.06,2.39-4.85h3.61l-.65,1.32-5.09,10.32-2.84,5.77H224.4L225.49,50l5-10.33,2.32-4.82h3.62M283.67,2.06H157.89v5.6h-22a16.46,16.46,0,0,0-5.92,11.45c-.47,7.93,5.3,12.85,5.92,13.36h22v5.46h11.86L151.28,75.38h18.47v1.33c0,11.74,13.44,21.29,30,21.29h56.7a1.78,1.78,0,0,1-.17-.27,27.88,27.88,0,0,1-2.74-8.13H199.73c-10,0-18.16-5.78-18.16-12.89V75.38H193.3l9.23-18.73h27.81l9-18.72h44.31V24.26h15.75V15.87H283.67V2.06ZM264.11,30.94V6.62h12.34V30.94Zm-98.68-.1V6.62h92.69V30.84Zm-18.54-5.45c-4.35,0-7.2-3.4-7.1-5.82s2.84-5.06,6.73-5.06a6.06,6.06,0,0,1,.73,0h11.61V25.38h-12Zm59.78,22.86,5.09-10.32h15.1l-5,10.32ZM168,67l14.33-29.05h16.95L184.91,67Z"/><path d="M257.68,94a33.13,33.13,0,0,0,1.42,3.38,1.62,1.62,0,0,1,.12,1.19,52,52,0,0,1-11.33,102.7,50.26,50.26,0,0,1-5-.25h-.2a2.08,2.08,0,0,0-.2,4.15c1.83.18,3.64.27,5.44.27A56.15,56.15,0,0,0,257.68,94Z"/><path d="M247.42,101.45a52,52,0,0,0-5,103.73h.21a2.08,2.08,0,0,0,.19-4.15,47.83,47.83,0,0,1,4.56-95.43c1.53,0,3.07.08,4.63.23h.2a2.08,2.08,0,0,0,.2-4.15,50.26,50.26,0,0,0-5-.25Z"/><path d="M252.24,101.69a2.08,2.08,0,0,0-.19,4.15A43.67,43.67,0,0,1,247.89,193q-2.1,0-4.23-.21h-.2a2.07,2.07,0,0,0-.2,4.14c1.56.15,3.1.23,4.63.23a47.83,47.83,0,0,0,4.56-95.43Z"/><path d="M247.42,109.77a43.67,43.67,0,0,0-4.16,87.13h.2a2.08,2.08,0,0,0,.2-4.15,39.51,39.51,0,0,1,3.76-78.83c1.27,0,2.55.06,3.83.18h.2a2.08,2.08,0,0,0,.2-4.15c-1.42-.13-2.83-.2-4.23-.2Z"/><path d="M251.45,110a2.08,2.08,0,0,0-.2,4.15,35.35,35.35,0,0,1-3.37,70.54c-1.13,0-2.27-.05-3.42-.16h-.2a2.08,2.08,0,0,0-.2,4.15c1.29.12,2.56.18,3.82.18A39.51,39.51,0,0,0,251.65,110Z"/><path d="M133.7,130.83c-.56,0-.91.11-1,.35-.7,1.44,7.28,6.78,17.86,12l76.52,37.48c8.8,4.31,16.59,7.14,19.37,7.14.56,0,.91-.12,1-.36.7-1.43-7.29-6.78-17.86-12L153.07,138c-8.81-4.31-16.6-7.13-19.37-7.13Z"/><path d="M106.07,90.8a38.66,38.66,0,0,1,38.61,38.62v70.09a38.65,38.65,0,0,1-38.61,38.61H80.61A38.65,38.65,0,0,1,42,199.51V129.42A38.66,38.66,0,0,1,80.61,90.8h25.46m0-4H80.61A42.74,42.74,0,0,0,38,129.42v70.09a42.74,42.74,0,0,0,42.61,42.61h25.46a42.74,42.74,0,0,0,42.61-42.61V129.42A42.74,42.74,0,0,0,106.07,86.8Z"/><path d="M129.39,210.66A21.62,21.62,0,1,0,151,232.27a21.63,21.63,0,0,0-21.62-21.61Zm0,40.14a18.53,18.53,0,1,1,18.53-18.53,18.55,18.55,0,0,1-18.53,18.53Z"/><path d="M129.46,217.91a14.3,14.3,0,1,1-14.3,14.3,14.32,14.32,0,0,1,14.3-14.3m0-4a18.3,18.3,0,1,0,18.3,18.3,18.3,18.3,0,0,0-18.3-18.3Z"/><path d="M151.83,126.51v25.92h-3.61V126.51h3.61m4-4H144.22v33.92h11.61V122.51Z"/><polygon points="71.92 223.38 64.78 223.38 64.78 250.15 71.92 250.15 71.92 223.38 71.92 223.38"/></svg>