<?xml version="1.0" encoding="utf-8"?>
<!-- Generator: Adobe Illustrator 22.1.0, SVG Export Plug-In . SVG Version: 6.00 Build 0)  -->
<svg style="enable-background:new 0 0 500 500;" id="Calque_1" version="1.1" viewBox="0 0 500 500" x="0px"
     xmlns="http://www.w3.org/2000/svg" y="0px" xml:space="preserve">
<style type="text/css">
	.st0{fill:#EAEAEA;}
	.st1{fill:#8C8C8C;}
	.st2{fill:#FFFFFF;}
	.st3{fill:#EAEAEA;stroke:#8C8C8C;stroke-width:7;stroke-miterlimit:10;}
	.st4{fill:#070707;}
	.st5{fill:none;stroke:#8C8C8C;stroke-width:7;stroke-miterlimit:10;}
	.st6{fill:none;stroke:#8C8C8C;stroke-width:10;stroke-miterlimit:10;}
	.st7{fill:#8C8C8C;stroke:#8C8C8C;stroke-width:3;stroke-miterlimit:10;}
	.st8{fill:none;stroke:#8C8C8C;stroke-width:8;stroke-miterlimit:10;}
	.st9{fill:none;stroke:#8E8E8E;stroke-width:6;stroke-miterlimit:10;}
	.st10{fill:#8E8E8E;}
	.st11{fill:#505050;}
	.st12{fill:none;stroke:#8E8E8E;stroke-width:2;stroke-miterlimit:10;}
	.st13{fill:#8C8C8C;stroke:#8C8C8C;stroke-width:2;stroke-miterlimit:10;}
	.st14{fill:#8C8C8C;stroke:#FFFFFF;stroke-width:2;stroke-miterlimit:10;}
	.st15{fill:none;stroke:#FFFFFF;stroke-width:2;stroke-miterlimit:10;}
	.st16{fill:none;stroke:#8C8C8C;stroke-miterlimit:10;}
	.st17{fill:none;stroke:#8C8C8C;stroke-width:13;stroke-miterlimit:10;}
	.st18{fill:#EAEAEA;stroke:#8C8C8C;stroke-width:8;stroke-miterlimit:10;}
	.st19{fill:none;stroke:#8C8C8C;stroke-width:4;stroke-miterlimit:10;}
	.st20{fill:#8C8C8C;stroke:#8C8C8C;stroke-width:0.75;stroke-miterlimit:10;}
	.st21{fill:none;stroke:#8C8C8C;stroke-width:9;stroke-miterlimit:10;}
	.st22{fill:#8C8C8C;stroke:#8C8C8C;stroke-width:0.5;stroke-miterlimit:10;}
	.st23{fill:#6B6B6B;}
	.st24{fill:none;}
	.st25{stroke:#8C8C8C;stroke-width:8;stroke-miterlimit:10;}
	.st26{fill:#8C8C8C;stroke:#8C8C8C;stroke-miterlimit:10;}
	.st27{fill:none;stroke:#8C8C8C;stroke-width:11;stroke-miterlimit:10;}
	.st28{fill:none;stroke:#8C8C8C;stroke-width:6;stroke-miterlimit:10;}
	.st29{stroke:#8C8C8C;stroke-width:6;stroke-miterlimit:10;}
	.st30{fill:#8C8C8C;stroke:#8C8C8C;stroke-width:4;stroke-miterlimit:10;}
	.st31{fill:#8C8C8C;stroke:#8C8C8C;stroke-width:1.05;stroke-miterlimit:10;}
	.st32{fill:#D6D6D6;}
	.st33{fill:none;stroke:#EAEAEA;stroke-width:5;stroke-miterlimit:10;}
	.st34{fill:#8C8C8C;stroke:#8C8C8C;stroke-width:10;stroke-miterlimit:10;}
	.st35{fill:none;stroke:#CECECE;stroke-width:2;stroke-miterlimit:10;}
	.st36{fill:none;stroke:#FFFFFF;stroke-width:4;stroke-miterlimit:10;}
	.st37{fill-rule:evenodd;clip-rule:evenodd;fill:#8C8C8C;}
	.st38{fill:#8C8C8C;stroke:#8C8C8C;stroke-width:8;stroke-miterlimit:10;}
	.st39{fill:#8C8C8C;stroke:#8C8C8C;stroke-width:7;stroke-miterlimit:10;}
	.st40{fill:#DBDBDB;stroke:#8C8C8C;stroke-width:7;stroke-miterlimit:10;}
	.st41{font-family:'HelveticaNeue-CondensedBold';}
	.st42{font-size:54px;}
	.st43{fill:none;stroke:#8C8C8C;stroke-width:5;stroke-miterlimit:10;}
	.st44{fill:none;stroke:#8C8C8C;stroke-width:3;stroke-miterlimit:10;}
	.st45{clip-path:url(#SVGID_2_);fill:#8C8C8C;}
	.st46{clip-path:url(#SVGID_2_);fill:none;stroke:#8C8C8C;stroke-width:8;stroke-miterlimit:10;}
	.st47{clip-path:url(#SVGID_2_);fill:#FFFFFF;}
	.st48{clip-path:url(#SVGID_2_);fill:#EAEAEA;}
	.st49{clip-path:url(#SVGID_2_);fill:none;stroke:#8C8C8C;stroke-miterlimit:10;}
	.st50{fill:none;stroke:#FFFFFF;stroke-width:0.75;stroke-miterlimit:10;}
	.st51{fill:none;stroke:#8C8C8C;stroke-width:14;stroke-miterlimit:10;}
	.st52{fill:none;stroke:#EAEAEA;stroke-width:2;stroke-miterlimit:10;}
	.st53{fill:none;stroke:#8C8C8C;stroke-width:2;stroke-miterlimit:10;}
</style>
    <rect class="st0" height="500" width="500" y="-1"/>
    <path class="st1" d="M364.7,76.9V63.1H238.9v5.6h-22c-0.8,0.7-5.5,4.6-5.9,11.5c-0.5,7.9,5.3,12.9,5.9,13.4h22v5.5h11.9l-18.5,37.5
	h18.5v1.3c0,11.7,13.4,21.3,30,21.3h56.7c-0.1-0.1-0.1-0.2-0.2-0.3c-1.3-2.6-2.3-5.3-2.7-8.1h-53.8c-10,0-18.2-5.8-18.2-12.9v-1.3
	h11.7l9.2-18.7h27.8l9-18.7h44.3V85.3h15.7v-8.4H364.7z M239.9,86.4h-11.6c-4.6,0.2-7.6-3.3-7.5-5.8c0.1-2.4,3.2-5.4,7.5-5h11.6
	V86.4z M265.9,128h-17l14.3-29.1h17L265.9,128z M302.9,109.3h-15.2l5.1-10.3h15.1L302.9,109.3z M339.1,91.8h-92.7V67.6h92.7V91.8z
	 M357.4,91.9h-12.3V67.6h12.3V91.9z"/>
    <path class="st38" d="M338.7,155c0.4,1.1,0.9,2.3,1.4,3.4c0.2,0.4,0.2,0.8,0.1,1.2c25.2,5.6,42.9,29.3,40.4,55.7
	c-2.8,28.5-28.2,49.5-56.7,46.8c-1.1-0.1-2.2,0.7-2.3,1.9c-0.1,1.1,0.7,2.2,1.9,2.3c30.8,3,58.3-19.7,61.3-50.5
	C387.6,186.4,367.2,160.1,338.7,155z"/>
    <path class="st38" d="M276.7,209.4c2.8-28.5,28.2-49.5,56.7-46.8c1.1,0.1,2,1.1,1.9,2.3c-0.1,1.1-1.1,2-2.3,1.9
	c-26.3-2.5-49.7,16.8-52.2,43c-2.5,26.3,16.8,49.7,43,52.2c1.1,0.1,2,1.1,1.9,2.3c-0.1,1.1-1.1,2-2.3,1.9
	C294.9,263.4,274,238,276.7,209.4z"/>
    <path class="st38" d="M322.4,255.6c0.1-1.1,1.1-2,2.3-1.9c24,2.3,45.3-15.3,47.7-39.3S357,169.1,333,166.8c-1.1-0.1-2-1.1-1.9-2.3
	c0.1-1.1,1.1-2,2.3-1.9c26.3,2.5,45.5,25.9,43,52.2c-2.5,26.3-25.9,45.5-52.2,43C323.1,257.8,322.3,256.8,322.4,255.6z"/>
    <path class="st38" d="M285,210.2c2.3-24,23.7-41.6,47.7-39.3c1.1,0.1,2,1.1,1.9,2.3c-0.1,1.1-1.1,2-2.3,1.9
	c-21.7-2.1-41,13.8-43.1,35.5s13.8,41,35.5,43.1c1.1,0.1,2,1.1,1.9,2.3c-0.1,1.1-1.1,2-2.3,1.9C300.3,255.6,282.7,234.2,285,210.2z"
    />
    <path class="st38" d="M323.2,247.4c0.1-1.1,1.1-2,2.3-1.9c19.4,1.9,36.7-12.4,38.6-31.8s-12.4-36.7-31.8-38.6
	c-1.1-0.1-2-1.1-1.9-2.3c0.1-1.1,1.1-2,2.3-1.9c21.7,2.1,37.6,21.4,35.5,43.1s-21.4,37.6-43.1,35.5
	C323.9,249.5,323.1,248.5,323.2,247.4z"/>
    <path class="st39" d="M234.1,199l76.5,37.5c10.6,5.2,18.6,10.5,17.9,12c-0.7,1.4-9.8-1.6-20.4-6.8l-76.5-37.5
	c-10.6-5.2-18.6-10.5-17.9-12C214.4,190.7,223.5,193.8,234.1,199z"/>
    <path class="st1" d="M187.1,303.1h-25.5c-23.4,0-42.6-19.2-42.6-42.6v-70.1c0-23.4,19.2-42.6,42.6-42.6h25.5
	c23.4,0,42.6,19.2,42.6,42.6v70.1C229.7,283.9,210.5,303.1,187.1,303.1z"/>
    <g>
	<g>
		<path class="st40" d="M210.4,314.9c-11.9,0-21.6-9.7-21.6-21.6c0-11.9,9.7-21.6,21.6-21.6s21.6,9.7,21.6,21.6
			C232,305.2,222.3,314.9,210.4,314.9z M210.4,274.7c-10.2,0-18.5,8.3-18.5,18.5s8.3,18.5,18.5,18.5s18.5-8.3,18.5-18.5
			S220.6,274.7,210.4,274.7z"/>
        <circle class="st40" cx="210.5" cy="293.2" r="18.3"/>
	</g>
</g>
    <rect class="st38" height="33.9" width="11.6" x="225.2" y="183.5"/>
    <rect class="st38" height="26.8" width="7.1" x="145.8" y="284.4"/>
    <g>
	<rect class="st24" height="144" width="500" x="-2" y="360"/>
        <text class="st23 st41 st42" transform="matrix(1 0 0 1 150.5312 398.5557)">Sableuse</text>
</g>
</svg>
