<?xml version="1.0" encoding="utf-8"?>
<!-- Generator: Adobe Illustrator 22.1.0, SVG Export Plug-In . SVG Version: 6.00 Build 0)  -->
<svg style="enable-background:new 0 0 500 500;" id="Calque_1" version="1.1" viewBox="0 0 500 500" x="0px"
     xmlns="http://www.w3.org/2000/svg" y="0px" xml:space="preserve">
<style type="text/css">
	.st0{fill:#4FBDD7;}
	.st1{fill:#EAEAEA;}
	.st2{fill:#FFFFFF;}
	.st3{fill:#4FBDD7;stroke:#FFFFFF;stroke-width:5;stroke-miterlimit:10;}
	.st4{fill:#8C8C8C;}
	.st5{fill:#070707;}
	.st6{fill:none;stroke:#FFFFFF;stroke-width:7;stroke-miterlimit:10;}
	.st7{fill:none;stroke:#FFFFFF;stroke-width:10;stroke-miterlimit:10;}
	.st8{fill:#FFFFFF;stroke:#FFFFFF;stroke-width:3;stroke-miterlimit:10;}
	.st9{fill:none;stroke:#FDFFFF;stroke-width:6;stroke-miterlimit:10;}
	.st10{fill:#FAFEFF;}
	.st11{fill:none;stroke:#FFFFFF;stroke-width:2;stroke-miterlimit:10;}
	.st12{fill:#FFFFFF;stroke:#FFFFFF;stroke-width:2;stroke-miterlimit:10;}
	.st13{fill:#4FBDD7;stroke:#FFFFFF;stroke-width:4;stroke-miterlimit:10;}
	.st14{fill:#FFFFFF;stroke:#FFFFFF;stroke-width:4;stroke-miterlimit:10;}
	.st15{fill:none;stroke:#FFFFFF;stroke-miterlimit:10;}
	.st16{fill:#FFFFFF;stroke:#FFFFFF;stroke-width:13;stroke-miterlimit:10;}
	.st17{fill:#4FBDD7;stroke:#FFFFFF;stroke-width:8;stroke-miterlimit:10;}
	.st18{fill:#FFFFFF;stroke:#FFFFFF;stroke-width:0.75;stroke-miterlimit:10;}
	.st19{fill:#FFFFFF;stroke:#FFFFFF;stroke-width:0.5;stroke-miterlimit:10;}
	.st20{fill:#FFFFFF;stroke:#FFFFFF;stroke-width:8;stroke-miterlimit:10;}
	.st21{fill:#FFFFFF;stroke:#FFFFFF;stroke-miterlimit:10;}
	.st22{fill:#FFFFFF;stroke:#FFFFFF;stroke-width:11;stroke-miterlimit:10;}
	.st23{fill:#FFFFFF;stroke:#FFFFFF;stroke-width:6;stroke-miterlimit:10;}
	.st24{fill:#8C8C8C;stroke:#8C8C8C;stroke-width:4;stroke-miterlimit:10;}
	.st25{fill:none;}
	.st26{font-family:'HelveticaNeue-CondensedBold';}
	.st27{font-size:54px;}
	.st28{fill:#FFFFFF;stroke:#FFFFFF;stroke-width:1.05;stroke-miterlimit:10;}
	.st29{fill:none;stroke:#4FBDD7;stroke-width:5;stroke-miterlimit:10;}
	.st30{fill:none;stroke:#FFFFFF;stroke-width:4;stroke-miterlimit:10;}
	.st31{fill:#8C8C8C;stroke:#FFFFFF;stroke-width:4;stroke-miterlimit:10;}
	.st32{fill:#FFFFFF;stroke:#FFFFFF;stroke-width:10;stroke-miterlimit:10;}
	.st33{fill:none;stroke:#4FBDD7;stroke-width:2;stroke-miterlimit:10;}
	.st34{fill-rule:evenodd;clip-rule:evenodd;fill:#FFFFFF;}
	.st35{fill:#FFFFFF;stroke:#FFFFFF;stroke-width:7;stroke-miterlimit:10;}
	.st36{fill:#FFFFFF;stroke:#4FBDD7;stroke-width:7;stroke-miterlimit:10;}
	.st37{fill:#FCFCFC;}
	.st38{fill:#FFFFFF;stroke:#FFFFFF;stroke-width:5;stroke-miterlimit:10;}
	.st39{fill:none;stroke:#FFFFFF;stroke-width:3;stroke-miterlimit:10;}
	.st40{fill:none;stroke:#FFFFFF;stroke-width:8;stroke-miterlimit:10;}
	.st41{fill:none;stroke:#FFFFFF;stroke-width:6;stroke-miterlimit:10;}
	.st42{fill:#FFFFFF;stroke:#4FBDD7;stroke-width:3;stroke-miterlimit:10;}
	.st43{fill:none;stroke:#FFFFFF;stroke-width:0.75;stroke-miterlimit:10;}
	.st44{fill:#4FBDD7;stroke:#FFFFFF;stroke-width:9;stroke-miterlimit:10;}
	.st45{fill:none;stroke:#FFFFFF;stroke-width:9;stroke-miterlimit:10;}
	.st46{fill:none;stroke:#4FBDD7;stroke-width:3;stroke-miterlimit:10;}
</style>
    <rect class="st0" height="500" width="500"/>
    <g>
	<rect class="st25" height="144" width="500" x="-2" y="362"/>
        <text class="st2 st26 st27" transform="matrix(1 0 0 1 129.606 400.5557)">Saxophone</text>
</g>
    <path class="st2" d="M348.1,200.3l-51.6-51.6c-1-1-2.4-1.2-3.7-0.7c-1.3,0.5-2.1,1.7-2.1,3.1c0,6.6-2.8,12.9-7.8,17.2
	c-19.7,17.2-31,42.1-31,68.2v47.7c0,2.6-1,5.1-2.9,6.9c-1.9,1.9-4.3,2.9-6.9,2.9c-3.7,0-7-2-8.6-5.2c2.4-2.2,3.8-5.4,3.8-8.8
	c0-4.1-2.1-7.9-5.5-10.1l-0.2-7.8c3.5-2.1,5.7-6,5.7-10.2c0-4.5-2.5-8.5-6.3-10.6l-0.2-6.8c4-2,6.6-6.1,6.6-10.7
	c0-4.9-2.9-9.2-7.2-11l-0.2-6c4.4-1.8,7.4-6.1,7.4-11.1c0-5.2-3.4-9.7-8.1-11.3l-0.2-5.3c4.8-1.6,8.3-6.1,8.3-11.4
	c0-5.6-3.8-10.3-9-11.6l-1.2-40.2c-0.2-7.7-3.8-15-10.1-20.8c-5.8-5.3-13.3-8.4-20-8.4h-12.9c-0.2,0-0.5,0-0.7,0.1h-5.8
	c-0.5-1.2-1.7-2-3-2h-25.9c-0.9,0-1.8,0.4-2.4,1l-17.2,17.6c-0.9,1-1.2,2.4-0.7,3.6s1.7,2.1,3.1,2.1h43c1.6,0,3-1.2,3.3-2.7h4.7
	c0.5,0.3,1,0.4,1.6,0.4h12.4c1.7,0.1,5.6,1.5,8,4.1c1.2,1.3,1.9,2.6,1.8,3.9l-4.8,168.6c0,0.5,0,1,0,1.4c0,26.4,21.5,47.9,48,47.9
	s48-21.5,48-48v-9.7c0-23.1,2.1-36.7,6.9-45.4c4.5-8.1,11.3-12,21.7-17.9l0.8-0.5c5-2.8,9.7-5.5,14.9-5.5h4.2c0,0,0,0,0,0
	c1.9,0,3.4-1.5,3.4-3.4C349.2,201.8,348.8,200.9,348.1,200.3z M220.5,178.9c0.3,0.1,0.5,0.2,0.8,0.3c0.1,0,0.1,0,0.2,0.1
	c0.3,0.1,0.6,0.2,0.9,0.3c0,0,0,0,0,0l0.1,4.8c0,0,0,0,0,0c-0.3,0.1-0.6,0.2-0.8,0.2c-0.1,0-0.1,0-0.2,0.1c-0.3,0.1-0.6,0.2-0.8,0.3
	c0,0-0.1,0-0.1,0c-0.2,0.1-0.5,0.2-0.7,0.3v-6.8c0.2,0.1,0.4,0.2,0.6,0.3C220.4,178.8,220.5,178.9,220.5,178.9z M220.3,206.8
	c0.3,0.1,0.6,0.3,0.9,0.4c0,0,0,0,0,0c0.3,0.1,0.6,0.2,0.9,0.3c0,0,0.1,0,0.1,0c0.3,0.1,0.6,0.1,0.9,0.2c0,0,0.1,0,0.1,0l0.1,4.4
	c-0.1,0-0.2,0-0.3,0c-0.1,0-0.1,0-0.2,0c-0.1,0-0.3,0.1-0.4,0.1c-0.1,0-0.1,0-0.2,0c-0.2,0-0.4,0.1-0.5,0.2c-0.1,0-0.1,0-0.2,0.1
	c-0.1,0-0.2,0.1-0.4,0.1c-0.1,0-0.1,0.1-0.2,0.1c-0.1,0-0.2,0.1-0.3,0.1c-0.1,0-0.1,0.1-0.2,0.1c-0.1,0-0.2,0.1-0.3,0.1
	c-0.1,0-0.1,0.1-0.2,0.1c-0.1,0-0.1,0.1-0.2,0.1v-6.8C219.9,206.6,220,206.7,220.3,206.8C220.2,206.8,220.2,206.8,220.3,206.8z
	 M220.2,234.8c0.1,0,0.2,0.1,0.3,0.1c0.1,0,0.2,0.1,0.2,0.1c0.1,0,0.2,0.1,0.3,0.1c0.1,0,0.2,0.1,0.2,0.1c0.1,0,0.2,0.1,0.3,0.1
	c0.1,0,0.2,0.1,0.2,0.1c0.1,0,0.2,0.1,0.3,0.1c0.1,0,0.2,0,0.2,0.1c0.1,0,0.2,0.1,0.3,0.1c0.1,0,0.2,0,0.2,0.1c0.1,0,0.2,0,0.4,0.1
	c0.1,0,0.1,0,0.2,0c0.2,0,0.4,0.1,0.6,0.1l0.1,4.2c0,0,0,0-0.1,0c-0.1,0-0.2,0-0.3,0c-0.1,0-0.2,0-0.3,0c-0.1,0-0.2,0-0.3,0
	c-0.1,0-0.2,0-0.3,0.1c-0.1,0-0.2,0-0.3,0.1c-0.1,0-0.2,0-0.3,0.1c-0.1,0-0.2,0-0.3,0.1c-0.1,0-0.2,0.1-0.3,0.1
	c-0.1,0-0.2,0.1-0.3,0.1c-0.1,0-0.2,0.1-0.3,0.1c-0.1,0-0.2,0.1-0.2,0.1c-0.1,0-0.2,0.1-0.3,0.1c-0.1,0-0.2,0.1-0.2,0.1
	c-0.1,0-0.2,0.1-0.3,0.1c-0.1,0-0.2,0.1-0.2,0.1c-0.1,0-0.2,0.1-0.2,0.1v-6.8c0.1,0,0.1,0.1,0.2,0.1
	C220.1,234.8,220.1,234.8,220.2,234.8z M226.8,247c2.3,0.6,3.8,2.7,3.8,5.1c0,2.2-1.4,4.2-3.5,5c-0.6,0.2-1.1,0.3-1.7,0.3
	c-2.9,0-5.3-2.4-5.3-5.3s2.4-5.3,5.3-5.3C225.8,246.8,226.3,246.8,226.8,247z M219.8,269.5v-6.8c0.1,0,0.2,0.1,0.2,0.1
	c0.1,0,0.2,0.1,0.2,0.1c0.1,0,0.2,0.1,0.3,0.1c0.1,0,0.2,0.1,0.3,0.1c0.1,0,0.2,0.1,0.3,0.1c0.1,0,0.2,0.1,0.3,0.1
	c0.1,0,0.2,0.1,0.3,0.1c0.1,0,0.2,0.1,0.3,0.1c0.1,0,0.2,0.1,0.3,0.1c0.1,0,0.2,0,0.3,0.1c0.1,0,0.2,0,0.3,0.1c0.1,0,0.2,0,0.3,0.1
	c0.1,0,0.2,0,0.3,0.1c0.1,0,0.2,0,0.3,0c0.1,0,0.2,0,0.3,0c0.1,0,0.2,0,0.3,0c0.1,0,0.2,0,0.3,0c0.1,0,0.2,0,0.3,0c0,0,0.1,0,0.1,0
	l0.1,4.1c-0.1,0-0.1,0-0.2,0c-0.1,0-0.2,0-0.3,0c-0.1,0-0.2,0-0.3,0c-0.1,0-0.2,0-0.3,0c-0.1,0-0.2,0-0.3,0c-0.1,0-0.2,0-0.3,0
	c-0.1,0-0.2,0-0.3,0.1c-0.1,0-0.2,0-0.3,0.1c-0.1,0-0.2,0-0.3,0.1c-0.1,0-0.2,0-0.3,0.1c-0.1,0-0.2,0.1-0.3,0.1
	c-0.1,0-0.2,0.1-0.3,0.1c-0.1,0-0.2,0.1-0.3,0.1c-0.1,0-0.2,0.1-0.3,0.1c-0.1,0-0.2,0.1-0.3,0.1c-0.1,0-0.2,0.1-0.3,0.1
	c-0.1,0-0.2,0.1-0.3,0.1c-0.1,0-0.2,0.1-0.2,0.1C220,269.4,219.9,269.4,219.8,269.5z M225.3,274.8c0.7,0,1.4,0.1,2,0.4
	c2,0.8,3.3,2.7,3.3,4.9c0,2-1.1,3.7-2.8,4.7c-0.8,0.4-1.6,0.6-2.5,0.6c-2.9,0-5.3-2.4-5.3-5.3C220,277.2,222.4,274.8,225.3,274.8z
	 M226.5,229.1C226.5,229.1,226.5,229.1,226.5,229.1c-0.4,0.1-0.8,0.2-1.2,0.2c-2.9,0-5.3-2.4-5.3-5.3c0-0.2,0-0.4,0-0.6
	c0-0.1,0-0.1,0-0.2c0-0.1,0-0.3,0.1-0.4c0-0.1,0-0.1,0-0.2c0-0.1,0.1-0.2,0.1-0.3c0-0.1,0-0.1,0.1-0.2c0-0.1,0.1-0.2,0.1-0.3
	c0-0.1,0.1-0.1,0.1-0.2c0.1-0.1,0.1-0.2,0.2-0.3c0-0.1,0.1-0.1,0.1-0.2c0.1-0.1,0.1-0.2,0.2-0.3c0-0.1,0.1-0.1,0.1-0.2
	c0.1-0.1,0.1-0.2,0.2-0.2c0.1-0.1,0.1-0.1,0.2-0.2c0.1-0.1,0.1-0.1,0.2-0.2c0.1-0.1,0.1-0.1,0.2-0.2c0,0,0.1-0.1,0.1-0.1
	c0.5-0.4,1-0.7,1.6-0.9c0,0,0,0,0,0c0.1,0,0.3-0.1,0.4-0.1c0,0,0.1,0,0.1,0c0.1,0,0.2,0,0.4-0.1c0.1,0,0.1,0,0.2,0
	c0.1,0,0.2,0,0.3,0c0.1,0,0.2,0,0.3,0c0.1,0,0.1,0,0.2,0c0.2,0,0.3,0,0.5,0.1c0,0,0,0,0,0c2.5,0.4,4.4,2.6,4.4,5.2
	C230.6,226.5,228.9,228.6,226.5,229.1z M226,201.2c-0.2,0-0.4,0-0.7,0c-2.9,0-5.3-2.4-5.3-5.3s2.4-5.3,5.3-5.3c0.2,0,0.2,0,0.3,0
	c0,0,0.1,0,0.1,0c2.8,0.2,4.9,2.5,4.9,5.3C230.6,198.6,228.6,200.8,226,201.2z M230.6,167.9c0,2.9-2.2,5.2-5.1,5.3c0,0,0,0-0.1,0
	l-0.1,0c-2.9,0-5.3-2.4-5.3-5.3c0-2.9,2.2-5.2,5.1-5.3c0,0,0.1,0,0.1,0l0.1,0C228.2,162.6,230.6,165,230.6,167.9z M171.1,102.6h-3.2
	V91.7h3.2V102.6z M161.2,102.6h-3.5V91.7h3.5V102.6z M150,91.7h1v10.9h-11.6L150,91.7z M177.9,93.7h2.9v6.2h-2.9V93.7z M323.5,205.8
	l-0.8,0.5c-10.5,6-18.8,10.7-24.2,20.4c-5.4,9.8-7.7,24.3-7.7,48.6v9.7c0,22.8-18.5,41.3-41.3,41.3s-41.3-18.5-41.3-41.2
	c0-0.4,0-0.8,0-1.2l4.8-168.6c0.1-3.1-1.2-6.1-3.7-8.7c-3.8-4-9.3-6.1-12.7-6.2c0,0-0.1,0-0.1,0h-9.1v-6.7h9.5
	c10.3,0,23,10.1,23.4,22.7l1.2,40.2c0,0,0,0-0.1,0c-0.3,0.1-0.5,0.2-0.8,0.3c0,0-0.1,0-0.1,0.1c-0.3,0.1-0.5,0.2-0.8,0.3
	c0,0,0,0,0,0c0,0,0,0-0.1,0v-2.3c0-1.9-1.5-3.4-3.4-3.4c-1.9,0-3.4,1.5-3.4,3.4v142.3c0,1.9,1.5,3.4,3.4,3.4c1.9,0,3.4-1.5,3.4-3.4
	v-6.6c1.7,0.9,3.5,1.4,5.5,1.4c0.3,0,0.6,0,1,0c0.1,0,0.2,0,0.2,0c0.3,0,0.6-0.1,0.9-0.1c0,0,0.1,0,0.1,0c2.8,5.3,8.4,8.9,14.6,8.9
	c4.4,0,8.6-1.7,11.7-4.8c3.1-3.1,4.8-7.3,4.8-11.7v-47.7c0-24.2,10.5-47.3,28.7-63.2c4.6-4,7.7-9.3,9.2-15.1l41.5,41.5
	C332.7,200.6,328,203.2,323.5,205.8z M298.6,171.6c1.2,1.4,1.1,3.5-0.3,4.7c-13.5,11.7-23,27.8-26.8,45.3c-0.3,1.6-1.7,2.6-3.3,2.6
	c-0.2,0-0.5,0-0.7-0.1c-1.8-0.4-3-2.2-2.6-4c4.1-18.9,14.4-36.2,29-48.9C295.3,170.1,297.4,170.2,298.6,171.6z M274.7,243.1
	c-6.9,0-12.6,5.6-12.6,12.6s5.6,12.6,12.6,12.6c6.9,0,12.6-5.6,12.6-12.6S281.6,243.1,274.7,243.1z M274.7,261.6
	c-3.2,0-5.9-2.6-5.9-5.9c0-3.2,2.6-5.9,5.9-5.9c3.2,0,5.9,2.6,5.9,5.9C280.5,259,277.9,261.6,274.7,261.6z M274.7,270.1
	c-6.9,0-12.6,5.6-12.6,12.6c0,6.9,5.6,12.6,12.6,12.6c6.9,0,12.6-5.6,12.6-12.6C287.2,275.8,281.6,270.1,274.7,270.1z M274.7,288.6
	c-3.2,0-5.9-2.6-5.9-5.9c0-3.2,2.6-5.9,5.9-5.9c3.2,0,5.9,2.6,5.9,5.9S277.9,288.6,274.7,288.6z"/>
</svg>
