<svg id="Calque_1" data-name="Calque 1" xmlns="http://www.w3.org/2000/svg" viewBox="0 0 350 300"><defs><style>.cls-1{fill:none;stroke:#000;stroke-miterlimit:10;stroke-width:4px;}</style></defs><title>selected</title><path d="M144.41,75.2a56.25,56.25,0,1,1-56.25,56.24A56.3,56.3,0,0,1,144.41,75.2m0,107.1a50.86,50.86,0,1,0-50.86-50.86,50.92,50.92,0,0,0,50.86,50.86m0-111.1a60.25,60.25,0,1,0,60.24,60.24A60.32,60.32,0,0,0,144.41,71.2Zm0,107.1a46.86,46.86,0,1,1,46.86-46.86,46.91,46.91,0,0,1-46.86,46.86Z"/><path d="M144.42,104.7a26.73,26.73,0,1,1-26.73,26.73,26.76,26.76,0,0,1,26.73-26.73m0,49.17A22.44,22.44,0,1,0,122,131.43a22.46,22.46,0,0,0,22.44,22.44m0-53.17a30.73,30.73,0,1,0,30.73,30.73,30.77,30.77,0,0,0-30.73-30.73Zm0,49.17a18.44,18.44,0,1,1,18.44-18.44,18.46,18.46,0,0,1-18.44,18.44Z"/><path d="M315.75,222.47c.38,1.8.78,3.6,1.2,5.38H214.1c0-1.79-.06-3.59-.08-5.38H315.75m3.28-4H210q0,6.69.2,13.38H322.07q-1.76-6.69-3-13.38Z"/><path d="M144.41,35a96.52,96.52,0,0,1,91,128.41l-5.74,13.11A97.33,97.33,0,0,1,192.57,215l-12.9,7.47h29.85c0,1.78,0,3.58,0,5.38H144.41a96.41,96.41,0,1,1,0-192.81m0,187.43a91,91,0,1,0-91-91,91.13,91.13,0,0,0,91,91m0-191.43a100.4,100.4,0,0,0-71,171.4,99.72,99.72,0,0,0,71,29.41h69.16q0-6.69,0-13.38h-19a101.47,101.47,0,0,0,38.69-40.17l5.87-13.39A100.45,100.45,0,0,0,144.41,31Zm0,187.43a87,87,0,1,1,87-87,87.12,87.12,0,0,1-87,87Z"/><path d="M334.88,168.91l-7.13,28.5-.24,1,.24,1,7.13,28.5h-12c-.11-1.78-.23-3.57-.33-5.38H328l-1.25-5L322,198.38l4.78-19.11,1.25-5H321c0-1.77,0-3.57,0-5.39h13.88m5.12-4H317q0,6.71.12,13.39h5.76l-5,20.08,5,20.09h-4.52q.35,6.69.83,13.38H340l-8.37-33.47L340,164.91Z"/><line class="cls-1" x1="231.09" y1="164.9" x2="231.09" y2="177.74"/><path d="M326,168.9c.34,1.94.71,3.86,1.09,5.76H238.21c0-1.92-.06-3.84-.08-5.76H326m3.37-4H234.12q0,6.89.17,13.76H332q-1.53-6.87-2.66-13.76Z"/></svg>