<?xml version="1.0" encoding="utf-8"?>
<!-- Generator: Adobe Illustrator 22.1.0, SVG Export Plug-In . SVG Version: 6.00 Build 0)  -->
<svg style="enable-background:new 0 0 500 500;" id="Calque_1" version="1.1" viewBox="0 0 500 500" x="0px"
     xmlns="http://www.w3.org/2000/svg" y="0px" xml:space="preserve">
<style type="text/css">
	.st0{fill:#EAEAEA;}
	.st1{fill:#8C8C8C;}
	.st2{fill:#FFFFFF;}
	.st3{fill:#EAEAEA;stroke:#8C8C8C;stroke-width:7;stroke-miterlimit:10;}
	.st4{fill:#070707;}
	.st5{fill:none;stroke:#8C8C8C;stroke-width:7;stroke-miterlimit:10;}
	.st6{fill:none;stroke:#8C8C8C;stroke-width:10;stroke-miterlimit:10;}
	.st7{fill:#8C8C8C;stroke:#8C8C8C;stroke-width:3;stroke-miterlimit:10;}
	.st8{fill:none;stroke:#8C8C8C;stroke-width:8;stroke-miterlimit:10;}
	.st9{fill:none;stroke:#8E8E8E;stroke-width:6;stroke-miterlimit:10;}
	.st10{fill:#8E8E8E;}
	.st11{fill:#505050;}
	.st12{fill:none;stroke:#8E8E8E;stroke-width:2;stroke-miterlimit:10;}
	.st13{fill:#8C8C8C;stroke:#8C8C8C;stroke-width:2;stroke-miterlimit:10;}
	.st14{fill:#8C8C8C;stroke:#FFFFFF;stroke-width:2;stroke-miterlimit:10;}
	.st15{fill:none;stroke:#FFFFFF;stroke-width:2;stroke-miterlimit:10;}
	.st16{fill:none;stroke:#8C8C8C;stroke-miterlimit:10;}
	.st17{fill:none;stroke:#8C8C8C;stroke-width:13;stroke-miterlimit:10;}
	.st18{fill:#EAEAEA;stroke:#8C8C8C;stroke-width:8;stroke-miterlimit:10;}
	.st19{fill:none;stroke:#8C8C8C;stroke-width:4;stroke-miterlimit:10;}
	.st20{fill:#8C8C8C;stroke:#8C8C8C;stroke-width:0.75;stroke-miterlimit:10;}
	.st21{fill:none;stroke:#8C8C8C;stroke-width:9;stroke-miterlimit:10;}
	.st22{fill:#8C8C8C;stroke:#8C8C8C;stroke-width:0.5;stroke-miterlimit:10;}
	.st23{fill:#6B6B6B;}
	.st24{fill:none;}
	.st25{stroke:#8C8C8C;stroke-width:8;stroke-miterlimit:10;}
	.st26{font-family:'HelveticaNeue-CondensedBold';}
	.st27{font-size:54px;}
	.st28{fill:#8C8C8C;stroke:#8C8C8C;stroke-miterlimit:10;}
	.st29{fill:none;stroke:#8C8C8C;stroke-width:11;stroke-miterlimit:10;}
	.st30{fill:none;stroke:#8C8C8C;stroke-width:6;stroke-miterlimit:10;}
	.st31{stroke:#8C8C8C;stroke-width:6;stroke-miterlimit:10;}
	.st32{fill:#8C8C8C;stroke:#8C8C8C;stroke-width:4;stroke-miterlimit:10;}
	.st33{fill:#8C8C8C;stroke:#8C8C8C;stroke-width:1.05;stroke-miterlimit:10;}
	.st34{fill:#D6D6D6;}
	.st35{fill:none;stroke:#EAEAEA;stroke-width:5;stroke-miterlimit:10;}
	.st36{fill:#8C8C8C;stroke:#8C8C8C;stroke-width:10;stroke-miterlimit:10;}
	.st37{fill:none;stroke:#CECECE;stroke-width:2;stroke-miterlimit:10;}
	.st38{fill:none;stroke:#FFFFFF;stroke-width:4;stroke-miterlimit:10;}
	.st39{fill-rule:evenodd;clip-rule:evenodd;fill:#8C8C8C;}
	.st40{fill:#8C8C8C;stroke:#8C8C8C;stroke-width:8;stroke-miterlimit:10;}
	.st41{fill:#8C8C8C;stroke:#8C8C8C;stroke-width:7;stroke-miterlimit:10;}
	.st42{fill:#DBDBDB;stroke:#8C8C8C;stroke-width:7;stroke-miterlimit:10;}
	.st43{fill:none;stroke:#8C8C8C;stroke-width:5;stroke-miterlimit:10;}
	.st44{fill:none;stroke:#8C8C8C;stroke-width:3;stroke-miterlimit:10;}
	.st45{clip-path:url(#SVGID_2_);fill:#8C8C8C;}
	.st46{clip-path:url(#SVGID_2_);fill:none;stroke:#8C8C8C;stroke-width:8;stroke-miterlimit:10;}
	.st47{clip-path:url(#SVGID_2_);fill:#FFFFFF;}
	.st48{clip-path:url(#SVGID_2_);fill:#EAEAEA;}
	.st49{clip-path:url(#SVGID_2_);fill:none;stroke:#8C8C8C;stroke-miterlimit:10;}
	.st50{fill:none;stroke:#FFFFFF;stroke-width:0.75;stroke-miterlimit:10;}
	.st51{fill:none;stroke:#8C8C8C;stroke-width:14;stroke-miterlimit:10;}
	.st52{fill:none;stroke:#EAEAEA;stroke-width:2;stroke-miterlimit:10;}
	.st53{fill:none;stroke:#8C8C8C;stroke-width:2;stroke-miterlimit:10;}
</style>
    <rect class="st0" height="500" width="500" x="-2"/>
    <g>
	<g>
		<path class="st25" d="M258.1,248.4V114.5c-2.6,0.1-5.5,0.4-8.5,0.9c-14.1,2.3-45.9,12.3-45.9,12.3s-11.4,6.1-21.7,6.1
			c-3.5,0-6.9-0.7-9.7-2.6c-0.3-0.2-0.5-0.4-0.7-0.6v32.1c0,0-5.9,82.8,85.7,85.7C257.6,248.4,257.8,248.4,258.1,248.4z
			 M252.2,242.3c-24.3-1.7-43.1-9.7-55.9-23.8c-20.8-23-18.9-55-18.9-55.3l0-0.2v-0.2v-23.4c1.4,0.2,3,0.4,4.5,0.4
			c10.4,0,21.4-5.2,24-6.5c4-1.2,32-9.9,44.6-11.9c0.6-0.1,1.1-0.2,1.7-0.3V242.3z"/>
        <path class="st25" d="M314.5,120.5c-3.2,0.4-6.4,0.5-9.7,0.5c-12.4,0-24.2-2.3-25.9-3.4c-1.6-1-5.4-2.3-10.9-2.9v133.5
			c78.2-4,47.9-83.4,47.9-83.4S310.6,141.8,314.5,120.5z M309,223.7c-6.7,10.2-18.5,16.3-35.2,18.2V121.8c1.1,0.3,1.7,0.6,2,0.8
			c3.6,2.2,17.4,4.3,29,4.3c1,0,1.9,0,2.9,0c-1.9,19.8,2.3,38.5,2.5,39.4l0.1,0.4l0.1,0.4C310.5,167.3,323.3,201.8,309,223.7z"/>
        <path class="st1" d="M363.1,69.3c-0.7-2.8-4-3.9-8.6-3.9c-13.8,0-39,9.7-39,9.7s-12.4,8.3-57.8,8.3c-22.3,0-52.5-2-93.1-7.9
			c0,0-24.9,26.7,7,52.1c0.3,0.2,0.5,0.4,0.7,0.6c2.8,1.9,6.1,2.6,9.7,2.6c10.3,0,21.7-6.1,21.7-6.1s31.8-10,45.9-12.3
			c4.4-0.7,8.4-1,12-1c9.1,0,15.2,1.9,17.3,3.2c1.8,1.1,13.5,3.4,25.9,3.4c3.2,0,6.5-0.2,9.7-0.5c5-0.6,9.7-1.7,13.5-3.6
			C343.4,106.3,369,98.2,363.1,69.3z"/>
        <path class="st25" d="M265,273.1v-24.7V114.5c-1.3-0.1-2.6-0.1-4-0.1v134v24.6c-10,1.4-17.7,13.4-18.6,29h-6.9v17h55.7v-17h-7.6
			C282.7,286.6,275,274.5,265,273.1z M263,277.4c8.3,0,15.3,11.1,16.2,24.7h-32.3C247.7,288.4,254.8,277.4,263,277.4z M285.4,313.2
			h-44v-5.2h44V313.2z"/>
	</g>
</g>
    <g>
	<rect class="st24" height="144" width="500" x="-1" y="365"/>
        <text class="st23 st26 st27" transform="matrix(1 0 0 1 197.0259 403.5557)">Selle</text>
</g>
</svg>
