<?xml version="1.0" encoding="utf-8"?>
<!-- Generator: Adobe Illustrator 22.1.0, SVG Export Plug-In . SVG Version: 6.00 Build 0)  -->
<svg style="enable-background:new 0 0 500 500;" id="Calque_1" version="1.1" viewBox="0 0 500 500" x="0px"
     xmlns="http://www.w3.org/2000/svg" y="0px" xml:space="preserve">
<style type="text/css">
	.st0{fill:#EAEAEA;}
	.st1{fill:#8C8C8C;}
	.st2{fill:#FFFFFF;}
	.st3{fill:#EAEAEA;stroke:#8C8C8C;stroke-width:7;stroke-miterlimit:10;}
	.st4{fill:#070707;}
	.st5{fill:none;stroke:#8C8C8C;stroke-width:7;stroke-miterlimit:10;}
	.st6{fill:none;stroke:#8C8C8C;stroke-width:10;stroke-miterlimit:10;}
	.st7{fill:#8C8C8C;stroke:#8C8C8C;stroke-width:3;stroke-miterlimit:10;}
	.st8{fill:none;stroke:#8C8C8C;stroke-width:8;stroke-miterlimit:10;}
	.st9{fill:none;stroke:#8E8E8E;stroke-width:6;stroke-miterlimit:10;}
	.st10{fill:#8E8E8E;}
	.st11{fill:#505050;}
	.st12{fill:none;stroke:#8E8E8E;stroke-width:2;stroke-miterlimit:10;}
	.st13{fill:#8C8C8C;stroke:#8C8C8C;stroke-width:2;stroke-miterlimit:10;}
	.st14{fill:#8C8C8C;stroke:#FFFFFF;stroke-width:2;stroke-miterlimit:10;}
	.st15{fill:none;stroke:#FFFFFF;stroke-width:2;stroke-miterlimit:10;}
	.st16{fill:none;stroke:#8C8C8C;stroke-miterlimit:10;}
	.st17{fill:none;stroke:#8C8C8C;stroke-width:13;stroke-miterlimit:10;}
	.st18{fill:#EAEAEA;stroke:#8C8C8C;stroke-width:8;stroke-miterlimit:10;}
	.st19{fill:none;stroke:#8C8C8C;stroke-width:4;stroke-miterlimit:10;}
	.st20{fill:#8C8C8C;stroke:#8C8C8C;stroke-width:0.75;stroke-miterlimit:10;}
	.st21{fill:none;stroke:#8C8C8C;stroke-width:9;stroke-miterlimit:10;}
	.st22{fill:#8C8C8C;stroke:#8C8C8C;stroke-width:0.5;stroke-miterlimit:10;}
	.st23{fill:none;}
	.st24{fill:#6B6B6B;}
	.st25{font-family:'HelveticaNeue-CondensedBold';}
	.st26{font-size:54px;}
	.st27{stroke:#8C8C8C;stroke-width:8;stroke-miterlimit:10;}
	.st28{fill:#8C8C8C;stroke:#8C8C8C;stroke-miterlimit:10;}
	.st29{fill:none;stroke:#8C8C8C;stroke-width:11;stroke-miterlimit:10;}
	.st30{fill:none;stroke:#8C8C8C;stroke-width:6;stroke-miterlimit:10;}
	.st31{stroke:#8C8C8C;stroke-width:6;stroke-miterlimit:10;}
	.st32{fill:#8C8C8C;stroke:#8C8C8C;stroke-width:4;stroke-miterlimit:10;}
	.st33{fill:#8C8C8C;stroke:#8C8C8C;stroke-width:1.05;stroke-miterlimit:10;}
	.st34{fill:#D6D6D6;}
	.st35{fill:none;stroke:#EAEAEA;stroke-width:5;stroke-miterlimit:10;}
	.st36{fill:#8C8C8C;stroke:#8C8C8C;stroke-width:10;stroke-miterlimit:10;}
	.st37{fill:none;stroke:#CECECE;stroke-width:2;stroke-miterlimit:10;}
	.st38{fill:none;stroke:#FFFFFF;stroke-width:4;stroke-miterlimit:10;}
	.st39{fill-rule:evenodd;clip-rule:evenodd;fill:#8C8C8C;}
	.st40{fill:#8C8C8C;stroke:#8C8C8C;stroke-width:8;stroke-miterlimit:10;}
	.st41{fill:#8C8C8C;stroke:#8C8C8C;stroke-width:7;stroke-miterlimit:10;}
	.st42{fill:#DBDBDB;stroke:#8C8C8C;stroke-width:7;stroke-miterlimit:10;}
	.st43{fill:none;stroke:#8C8C8C;stroke-width:5;stroke-miterlimit:10;}
	.st44{fill:none;stroke:#8C8C8C;stroke-width:3;stroke-miterlimit:10;}
	.st45{clip-path:url(#SVGID_2_);fill:#8C8C8C;}
	.st46{clip-path:url(#SVGID_2_);fill:none;stroke:#8C8C8C;stroke-width:8;stroke-miterlimit:10;}
	.st47{clip-path:url(#SVGID_2_);fill:#FFFFFF;}
	.st48{clip-path:url(#SVGID_2_);fill:#EAEAEA;}
	.st49{clip-path:url(#SVGID_2_);fill:none;stroke:#8C8C8C;stroke-miterlimit:10;}
	.st50{fill:none;stroke:#FFFFFF;stroke-width:0.75;stroke-miterlimit:10;}
	.st51{fill:none;stroke:#8C8C8C;stroke-width:14;stroke-miterlimit:10;}
	.st52{fill:none;stroke:#EAEAEA;stroke-width:2;stroke-miterlimit:10;}
	.st53{fill:none;stroke:#8C8C8C;stroke-width:2;stroke-miterlimit:10;}
</style>
    <rect class="st0" height="500" width="500"/>
    <g>
	<g>
		<path class="st1" d="M319.1,163.8c-2.8-7.9-10.3-13.3-18.7-13.3H277v-21.6c4.1-1.4,7-5.3,7-9.9c0-5.8-4.7-10.5-10.5-10.5h-42
			c-5.8,0-10.5,4.7-10.5,10.5c0,4.6,2.9,8.4,7,9.9v21.6h-23.4c-8.4,0-15.9,5.3-18.7,13.3c-15.9,45.6-15.9,95.9,0,141.5
			c2.8,7.9,10.3,13.3,18.7,13.3h95.9c8.4,0,15.9-5.3,18.7-13.3C335,259.6,335,209.4,319.1,163.8z M231.5,115.5h42
			c1.9,0,3.5,1.6,3.5,3.5c0,1.9-1.6,3.5-3.5,3.5h-42c-1.9,0-3.5-1.6-3.5-3.5C228,117.1,229.6,115.5,231.5,115.5z M245.5,143.5h14
			c1.9,0,3.5-1.6,3.5-3.5v-10.5h7v21h-35v-21h7V140C242,141.9,243.6,143.5,245.5,143.5z M249,136.5v-7h7v7H249z M312.5,302.9
			c-1.8,5.1-6.6,8.6-12,8.6h-95.9c-5.4,0-10.3-3.4-12-8.6c-15.4-44.1-15.4-92.7,0-136.9c1.8-5.1,6.6-8.6,12.1-8.6h26.9h42h26.9
			c5.4,0,10.3,3.4,12,8.6C327.8,210.2,327.8,258.8,312.5,302.9z"/>
	</g>
</g>
    <g>
	<g>
		<path class="st1" d="M254.9,175.9c-1.3-1.2-3.4-1.2-4.7,0c-1.6,1.5-39.6,37-39.6,69.1c0,36.1,21.7,49,42,49s42-12.9,42-49
			C294.5,212.9,256.5,177.4,254.9,175.9z M252.5,287c-21.9,0-35-15.7-35-42c0-24.7,26.8-53.4,35-61.6c8.2,8.2,35,36.9,35,61.6
			C287.5,271.3,274.4,287,252.5,287z"/>
	</g>
</g>
    <g>
	<g>
		<path class="st1" d="M254.9,197c-1.3-1.3-3.5-1.3-4.8,0c-0.6,0.6-15.1,14.5-15.1,27.5c0,15.2,9.4,20.6,17.5,20.6
			s17.5-5.4,17.5-20.6C270,211.5,255.5,197.6,254.9,197z M252.5,238c-6.7,0-10.5-4.9-10.5-13.6c0-6.8,6.3-15.2,10.5-19.9
			c4.2,4.7,10.5,13.1,10.5,19.9C263,233.1,259.2,238,252.5,238z"/>
	</g>
</g>
    <g>
	<g>
		<rect class="st1" height="7" width="7" x="235" y="266"/>
	</g>
</g>
    <g>
	<g>
		<rect class="st1" height="7" width="7" x="249" y="266"/>
	</g>
</g>
    <g>
	<g>
		<rect class="st1" height="7" width="7" x="263" y="266"/>
	</g>
</g>
    <g>
	<rect class="st23" height="158" width="520" x="-10" y="362"/>
        <text class="st24 st25 st26" transform="matrix(1 0 0 1 129.0947 400.5557)">Shampoing</text>
</g>
</svg>
