<svg id="Calque_1" data-name="Calque 1" xmlns="http://www.w3.org/2000/svg" viewBox="0 0 350 300"><title>selected</title><path d="M117.59,59.14a13.73,13.73,0,0,1,8.1,2.64,14.72,14.72,0,0,1,5.8,9.45l.39,2.28.26,1.52,1.21,1,24.74,19.54,1.09.87h29.4V95.9l1.89,1.16a4,4,0,0,1,0,7l-1.89,1.15v-.48H157.86a3.89,3.89,0,0,1-2.39-.84L142.31,93.52l-8.14-6.43,1.72,10.23,8.16,48.55.32,1.91,1.69.93,17.85,9.89a7.55,7.55,0,0,1,3.8,6.85l-1.79,51.6-.15,4.15H170A18.13,18.13,0,0,1,183,226.48a10.53,10.53,0,0,0,14.82,0,18.5,18.5,0,0,1,25.92,0,10.45,10.45,0,0,0,14.63.2l0,0,0,0,.12-.11a18.45,18.45,0,0,1,25.9,0,10.36,10.36,0,0,0,14.83,0A3.82,3.82,0,0,1,282,225.3a3.87,3.87,0,0,1,2.78,1.2,4.3,4.3,0,0,1,0,6,18,18,0,0,1-25.91,0,10.39,10.39,0,0,0-7.43-3.11,10.21,10.21,0,0,0-7.22,2.92l0,0,0,0-.12.12a18.47,18.47,0,0,1-25.91,0,10.44,10.44,0,0,0-14.82,0,18.72,18.72,0,0,1-25.91,0,10.48,10.48,0,0,0-14.81,0,18,18,0,0,1-25.93,0,10.33,10.33,0,0,0-14.83,0,18.47,18.47,0,0,1-25.91,0,10.48,10.48,0,0,0-14.79,0,18,18,0,0,1-25.94,0,4.32,4.32,0,0,1,0-6,3.83,3.83,0,0,1,5.55,0,10.34,10.34,0,0,0,14.83,0,18.65,18.65,0,0,1,25.91,0,10.44,10.44,0,0,0,14.8,0,18,18,0,0,1,25.93,0,10,10,0,0,0,4.7,2.61l6.92,1.83-2.06-6.85a7.46,7.46,0,0,1-.36-2.45L153.14,172l.08-2.5L151,168.34c-.69-.37-17-9-24.32-12.6a53.1,53.1,0,0,1-6.41-3.72,13.44,13.44,0,0,1-5.33-8.69L103.67,76.21A14.54,14.54,0,0,1,115.2,59.35a13.61,13.61,0,0,1,2.39-.21m76.12,20.13a3,3,0,0,1,.56.46L212.8,98.57l1.18,1.2h68a.14.14,0,0,1,0,.09.2.2,0,0,1,0,.09l-66,0h-1.75l-.2.22-2.3-2.36L195.42,81l-1.71-1.75m2.74,39.78-2.22,2.4a4.52,4.52,0,0,1-.55.45l1.74-1.78,1-1.07M117.59,55.14a17.92,17.92,0,0,0-3.09.27A18.52,18.52,0,0,0,99.73,76.87L111,144a17.51,17.51,0,0,0,6.93,11.25,57.09,57.09,0,0,0,7,4.08c7.34,3.62,24.22,12.55,24.22,12.55l-1.72,49.62a11.33,11.33,0,0,0,.53,3.74,6.18,6.18,0,0,1-2.88-1.54,21.91,21.91,0,0,0-15.8-6.73h0a22,22,0,0,0-15.83,6.74,6.43,6.43,0,0,1-9.06,0,22.64,22.64,0,0,0-31.64,0,6.34,6.34,0,0,1-9.11,0,7.84,7.84,0,0,0-11.28,0,8.33,8.33,0,0,0,0,11.57,22,22,0,0,0,31.66,0,6.47,6.47,0,0,1,9.06,0,22.46,22.46,0,0,0,31.64,0,6.3,6.3,0,0,1,4.55-1.93h0a6.31,6.31,0,0,1,4.55,1.94A22.24,22.24,0,0,0,149.62,242a21.91,21.91,0,0,0,15.84-6.75,6.47,6.47,0,0,1,9.08,0,22.73,22.73,0,0,0,31.64,0,6.39,6.39,0,0,1,4.56-1.88,6.32,6.32,0,0,1,4.53,1.87,22.48,22.48,0,0,0,31.65,0l.12-.12a6.25,6.25,0,0,1,4.41-1.77,6.36,6.36,0,0,1,4.56,1.89,22,22,0,0,0,31.65,0,8.32,8.32,0,0,0,0-11.57,7.84,7.84,0,0,0-11.28,0,6.34,6.34,0,0,1-9.1,0,22.45,22.45,0,0,0-31.63,0l-.12.12a6.45,6.45,0,0,1-9-.11,22.49,22.49,0,0,0-31.66,0,6.53,6.53,0,0,1-9.09,0,22,22,0,0,0-15.81-6.5h-.08l1.79-51.61a11.51,11.51,0,0,0-5.86-10.48L148,145.21l-8.16-48.55L153,107.05a7.81,7.81,0,0,0,4.86,1.7h26.72v10.13a7.5,7.5,0,0,0,4.53,7,7,7,0,0,0,2.82.58,7.18,7.18,0,0,0,5.19-2.21L216,103.91l66,0a4.09,4.09,0,0,0,0-8.18H215.66L197.12,76.92a7.34,7.34,0,0,0-5.24-2.19,7,7,0,0,0-2.76.56,7.51,7.51,0,0,0-4.54,7V92.39h-24L135.83,72.84l-.39-2.28a18.67,18.67,0,0,0-7.41-12,17.83,17.83,0,0,0-10.44-3.39Zm75,62.18v-9.83a8,8,0,0,0,0-13.85V83.81l16.34,16.76-16.34,16.75Z"/><path d="M116.71,18.38a14.28,14.28,0,0,1,13.63,10.37,14.85,14.85,0,0,1-9.43,18.51,13.88,13.88,0,0,1-4.22.66,14.29,14.29,0,0,1-13.64-10.36,14.86,14.86,0,0,1,9.43-18.51,13.9,13.9,0,0,1,4.23-.67m0-4a18.1,18.1,0,0,0-5.44.85,18.87,18.87,0,0,0-12,23.49,18.36,18.36,0,0,0,17.46,13.2,17.68,17.68,0,0,0,5.43-.85,18.84,18.84,0,0,0,12-23.48,18.35,18.35,0,0,0-17.46-13.21Z"/><path d="M56.76,192.89l-1.82.41s0,0,0,0,0-.16,0-.16h0c.15,0,.77-.11,1.77-.22m13.41-4.73c-1.45,0-2.93,0-4.45.08-6.69.25-11.33.91-11.33.91h-.07l-.35.07a4.11,4.11,0,0,0-2.94,5,4,4,0,0,0,3.88,3.13,3.93,3.93,0,0,0,1-.12,94,94,0,0,1,10.37-1.79,104.93,104.93,0,0,1,13-.84c29.52,0,41.22,13.95,41.22,13.95a.82.82,0,0,0,1.13,0,.89.89,0,0,0,0-1.22s-13.24-19.1-51.39-19.1Z"/><path d="M85.81,170.19c.62,0,1.25,0,1.86.05h0a53.16,53.16,0,0,1,7.88,1,55,55,0,0,1,19.4,7.65A52,52,0,0,0,95.33,174c-1-.05-2-.08-3-.08-1.6,0-3.21.07-4.64.21s-2.15.26-2.54.32H85a2.05,2.05,0,0,1-2-1.93,2.11,2.11,0,0,1,1.67-2.32h1.07m0-4c-.76,0-1.25,0-1.33,0h0A6.14,6.14,0,0,0,85,178.45a5.44,5.44,0,0,0,.57,0c.15,0,.79-.17,2.47-.31,1.1-.11,2.56-.2,4.28-.2.86,0,1.78,0,2.76.07,32.38,1.78,42.1,30.45,42.1,30.45a1.31,1.31,0,0,0,1.18.75,1.53,1.53,0,0,0,.41-.07,1.36,1.36,0,0,0,.83-1.71s-5.87-32.66-43.25-40.11a55.39,55.39,0,0,0-8.47-1c-.81-.05-1.53-.06-2.1-.06Z"/></svg>