<?xml version="1.0" encoding="utf-8"?>
<!-- Generator: Adobe Illustrator 22.1.0, SVG Export Plug-In . SVG Version: 6.00 Build 0)  -->
<svg style="enable-background:new 0 0 500 500;" id="Calque_1" version="1.1" viewBox="0 0 500 500" x="0px"
     xmlns="http://www.w3.org/2000/svg" y="0px" xml:space="preserve">
<style type="text/css">
	.st0{fill:#EAEAEA;}
	.st1{fill:#8C8C8C;}
	.st2{fill:#FFFFFF;}
	.st3{fill:#EAEAEA;stroke:#8C8C8C;stroke-width:7;stroke-miterlimit:10;}
	.st4{fill:#070707;}
	.st5{fill:none;stroke:#8C8C8C;stroke-width:7;stroke-miterlimit:10;}
	.st6{fill:none;stroke:#8C8C8C;stroke-width:10;stroke-miterlimit:10;}
	.st7{fill:#8C8C8C;stroke:#8C8C8C;stroke-width:3;stroke-miterlimit:10;}
	.st8{fill:none;stroke:#8C8C8C;stroke-width:8;stroke-miterlimit:10;}
	.st9{fill:none;stroke:#8E8E8E;stroke-width:6;stroke-miterlimit:10;}
	.st10{fill:#8E8E8E;}
	.st11{fill:#505050;}
	.st12{fill:none;stroke:#8E8E8E;stroke-width:2;stroke-miterlimit:10;}
	.st13{fill:#8C8C8C;stroke:#8C8C8C;stroke-width:2;stroke-miterlimit:10;}
	.st14{fill:#8C8C8C;stroke:#FFFFFF;stroke-width:2;stroke-miterlimit:10;}
	.st15{fill:none;stroke:#FFFFFF;stroke-width:2;stroke-miterlimit:10;}
	.st16{fill:none;stroke:#8C8C8C;stroke-miterlimit:10;}
	.st17{fill:none;stroke:#8C8C8C;stroke-width:13;stroke-miterlimit:10;}
	.st18{fill:#EAEAEA;stroke:#8C8C8C;stroke-width:8;stroke-miterlimit:10;}
	.st19{fill:none;stroke:#8C8C8C;stroke-width:4;stroke-miterlimit:10;}
	.st20{fill:#8C8C8C;stroke:#8C8C8C;stroke-width:0.75;stroke-miterlimit:10;}
	.st21{fill:none;stroke:#8C8C8C;stroke-width:9;stroke-miterlimit:10;}
	.st22{fill:#8C8C8C;stroke:#8C8C8C;stroke-width:0.5;stroke-miterlimit:10;}
	.st23{fill:#6B6B6B;}
	.st24{fill:none;}
	.st25{stroke:#8C8C8C;stroke-width:8;stroke-miterlimit:10;}
	.st26{fill:#8C8C8C;stroke:#8C8C8C;stroke-miterlimit:10;}
	.st27{fill:none;stroke:#8C8C8C;stroke-width:11;stroke-miterlimit:10;}
	.st28{fill:none;stroke:#8C8C8C;stroke-width:6;stroke-miterlimit:10;}
	.st29{stroke:#8C8C8C;stroke-width:6;stroke-miterlimit:10;}
	.st30{fill:#8C8C8C;stroke:#8C8C8C;stroke-width:4;stroke-miterlimit:10;}
	.st31{fill:#8C8C8C;stroke:#8C8C8C;stroke-width:1.05;stroke-miterlimit:10;}
	.st32{fill:#D6D6D6;}
	.st33{fill:none;stroke:#EAEAEA;stroke-width:5;stroke-miterlimit:10;}
	.st34{fill:#8C8C8C;stroke:#8C8C8C;stroke-width:10;stroke-miterlimit:10;}
	.st35{fill:none;stroke:#CECECE;stroke-width:2;stroke-miterlimit:10;}
	.st36{font-family:'HelveticaNeue-CondensedBold';}
	.st37{font-size:54px;}
	.st38{fill:none;stroke:#FFFFFF;stroke-width:4;stroke-miterlimit:10;}
	.st39{fill-rule:evenodd;clip-rule:evenodd;fill:#8C8C8C;}
	.st40{fill:#8C8C8C;stroke:#8C8C8C;stroke-width:8;stroke-miterlimit:10;}
	.st41{fill:#8C8C8C;stroke:#8C8C8C;stroke-width:7;stroke-miterlimit:10;}
	.st42{fill:#DBDBDB;stroke:#8C8C8C;stroke-width:7;stroke-miterlimit:10;}
	.st43{fill:none;stroke:#8C8C8C;stroke-width:5;stroke-miterlimit:10;}
	.st44{fill:none;stroke:#8C8C8C;stroke-width:3;stroke-miterlimit:10;}
	.st45{clip-path:url(#SVGID_2_);fill:#8C8C8C;}
	.st46{clip-path:url(#SVGID_2_);fill:none;stroke:#8C8C8C;stroke-width:8;stroke-miterlimit:10;}
	.st47{clip-path:url(#SVGID_2_);fill:#FFFFFF;}
	.st48{clip-path:url(#SVGID_2_);fill:#EAEAEA;}
	.st49{clip-path:url(#SVGID_2_);fill:none;stroke:#8C8C8C;stroke-miterlimit:10;}
	.st50{fill:none;stroke:#FFFFFF;stroke-width:0.75;stroke-miterlimit:10;}
	.st51{fill:none;stroke:#8C8C8C;stroke-width:14;stroke-miterlimit:10;}
	.st52{fill:none;stroke:#EAEAEA;stroke-width:2;stroke-miterlimit:10;}
	.st53{fill:none;stroke:#8C8C8C;stroke-width:2;stroke-miterlimit:10;}
</style>
    <rect class="st0" height="500" width="500" y="-1"/>
    <g>
	<path class="st1" d="M368.7,284.7c-3.1-3.2-8.2-3.2-11.3,0c-2.5,2.6-6.6,2.6-9.1,0c-8.5-8.7-23.2-8.7-31.6,0l-0.1,0.1
		c-2.4,2.4-6.6,2.3-9-0.1c-8.4-8.7-23.2-8.7-31.7,0c-2.4,2.4-6.7,2.5-9.1,0c-4.2-4.4-10.1-6.5-15.9-6.5l1.8-51.6
		c0.2-4.4-2.1-8.4-5.9-10.5l-17.9-9.9l-8.2-48.6l13.2,10.4c1.4,1.1,3.1,1.7,4.9,1.7h26.7v10.1c0,3.1,1.8,5.8,4.5,7
		c0.9,0.4,1.8,0.6,2.8,0.6c2,0,3.8-0.8,5.2-2.2l18.9-20.3l66,0c2.2,0,4-1.8,4-4.1s-1.8-4.1-4-4.1h-66.4l-18.5-18.8
		c-2.1-2.1-5.3-2.8-8-1.6c-2.8,1.2-4.5,3.9-4.5,7v10.1h-24l-24.7-19.5l-0.4-2.3c-0.8-4.9-3.5-9.2-7.4-12c-3.9-2.8-8.8-4-13.5-3.1
		c-9.9,1.7-16.5,11.4-14.8,21.5L192,205c0.8,4.5,3.3,8.6,6.9,11.3c1.9,1.4,4.9,3.1,7,4.1c7.3,3.6,24.2,12.5,24.2,12.5l-1.7,49.6
		c0,1.3,0.2,2.6,0.5,3.7c-1.1-0.3-2.1-0.7-2.9-1.5c-4.2-4.3-9.8-6.7-15.8-6.7h0c-6,0-11.6,2.4-15.8,6.7c-2.4,2.5-6.6,2.5-9.1,0
		c-8.4-8.6-23.3-8.6-31.6,0c-2.5,2.6-6.6,2.6-9.1,0c-3.1-3.2-8.2-3.2-11.3,0c-3.1,3.2-3.1,8.4,0,11.6c8.7,8.9,22.9,8.9,31.7,0
		c2.4-2.5,6.7-2.5,9.1,0c8.5,8.7,23.2,8.7,31.6,0c1.2-1.2,2.8-1.9,4.5-1.9c0,0,0,0,0,0c1.7,0,3.3,0.7,4.5,1.9
		c4.2,4.3,9.9,6.7,15.8,6.7c6,0,11.6-2.4,15.8-6.7c2.4-2.5,6.7-2.5,9.1,0c8.3,8.5,23.3,8.5,31.6,0c2.4-2.5,6.7-2.5,9.1,0
		c8.5,8.7,23.2,8.7,31.6,0l0.1-0.1c2.4-2.4,6.6-2.4,9,0.1c8.7,8.9,22.9,8.9,31.6,0C371.8,293.1,371.8,287.9,368.7,284.7z
		 M273.6,168.5c2.3-1.4,4-3.9,4-6.9s-1.6-5.5-4-6.9v-9.8l16.3,16.8l-16.3,16.8V168.5z"/>
        <path class="st1" d="M203.1,112.1c9.7-3.1,15-13.6,12.1-23.5c-3-9.9-13.2-15.4-22.9-12.4c-9.6,3.1-15,13.6-12,23.5
		C183.2,109.6,193.5,115.1,203.1,112.1z"/>
        <path class="st1" d="M136.9,258.2c0,0,4-1,10.4-1.8c39.1-4.9,54.2,13.1,54.2,13.1c0.3,0.3,0.8,0.3,1.1,0c0.3-0.3,0.3-0.9,0-1.2
		c0,0-14.3-20.6-55.8-19c-6.7,0.3-11.3,0.9-11.3,0.9l-0.1,0c-0.1,0-0.2,0-0.3,0.1c-2.2,0.5-3.5,2.7-2.9,4.9
		C132.6,257.4,134.7,258.7,136.9,258.2z"/>
        <path class="st1" d="M166.6,239.4c0.1,0,0.8-0.2,2.5-0.3c1.7-0.2,4.1-0.3,7-0.1c32.4,1.8,42.1,30.4,42.1,30.4
		c0.3,0.6,1,0.9,1.6,0.7c0.7-0.2,1.1-1,0.8-1.7c0,0-5.9-32.7-43.2-40.1c-3.4-0.7-6.4-0.9-8.5-1c-2.1-0.1-3.6,0-3.4,0
		c-3.3,0.3-5.7,3.3-5.4,6.7C160.4,237.3,163.3,239.7,166.6,239.4z"/>
</g>
    <g>
	<rect class="st24" height="144" width="500" x="-1" y="366"/>
        <text class="st23 st36 st37" transform="matrix(1 0 0 1 114.5684 404.5557)">Ski nautique</text>
</g>
</svg>
