<svg id="Calque_1" data-name="Calque 1" xmlns="http://www.w3.org/2000/svg" viewBox="0 0 350 300"><defs><style>.cls-1{fill:none;stroke:#000;stroke-miterlimit:10;stroke-width:4px;}</style></defs><title>selected</title><path class="cls-1" d="M234.61,81.22h2.75c4.55,0,8.24-4.74,8.24-10.6S241.91,60,237.36,60h-34l3.51-9a4.06,4.06,0,0,0-1.23-4.75,2.3,2.3,0,0,0-1.23-.37h-11a2.76,2.76,0,0,0-2.45,2L186.21,60h-6.54V49.41c-1-5.1-4.62-8.61-8.59-8.4-3.72.19-7,3.62-7.9,8.4V60h-6.54l-4.73-12.19a2.78,2.78,0,0,0-2.46-2h-11c-1.52,0-2.75,1.58-2.75,3.53A4.44,4.44,0,0,0,136,51l3.51,9H108.24c-4.55,0-8.24,4.75-8.24,10.61s3.69,10.6,8.24,10.6V190.83c-4.55,0-8.24,4.74-8.24,10.6S103.69,212,108.24,212h28.68L122.23,253a4,4,0,0,0,1.34,4.69,2.21,2.21,0,0,0,1.15.33h11a2.81,2.81,0,0,0,2.5-2.05L154,212h35L204.64,256a2.81,2.81,0,0,0,2.5,2.05h11c1.52,0,2.75-1.58,2.75-3.53a4.36,4.36,0,0,0-.26-1.49L205.94,212h31.42c4.55,0,8.24-4.75,8.24-10.61s-3.69-10.6-8.24-10.6h-2.75V81.22ZM195.1,52.94H200L197.2,60h-4.85Zm-47.35,0L150.5,60h-4.85l-2.74-7.07ZM105.49,70.62c0-2,1.23-3.54,2.75-3.54H237.36c1.52,0,2.75,1.59,2.75,3.54s-1.23,3.53-2.75,3.53H108.24c-1.52,0-2.74-1.58-2.75-3.53M134,250.93H129L143,212h4.94Zm79.88,0H208.9L195,212h4.94Zm23.52-53c1.52,0,2.75,1.58,2.75,3.53s-1.23,3.54-2.75,3.54H108.24c-1.52,0-2.75-1.59-2.75-3.54s1.23-3.53,2.75-3.53Z"/></svg>