<?xml version="1.0" encoding="utf-8"?>
<!-- Generator: Adobe Illustrator 22.1.0, SVG Export Plug-In . SVG Version: 6.00 Build 0)  -->
<svg style="enable-background:new 0 0 500 500;" id="Calque_1" version="1.1" viewBox="0 0 500 500" x="0px"
     xmlns="http://www.w3.org/2000/svg" y="0px" xml:space="preserve">
<style type="text/css">
	.st0{fill:#EAEAEA;}
	.st1{fill:#8C8C8C;}
	.st2{fill:#FFFFFF;}
	.st3{fill:#EAEAEA;stroke:#8C8C8C;stroke-width:7;stroke-miterlimit:10;}
	.st4{fill:#070707;}
	.st5{fill:none;stroke:#8C8C8C;stroke-width:7;stroke-miterlimit:10;}
	.st6{fill:none;stroke:#8C8C8C;stroke-width:10;stroke-miterlimit:10;}
	.st7{fill:#8C8C8C;stroke:#8C8C8C;stroke-width:3;stroke-miterlimit:10;}
	.st8{fill:none;stroke:#8C8C8C;stroke-width:8;stroke-miterlimit:10;}
	.st9{fill:none;stroke:#8E8E8E;stroke-width:6;stroke-miterlimit:10;}
	.st10{fill:#8E8E8E;}
	.st11{fill:#505050;}
	.st12{fill:none;stroke:#8E8E8E;stroke-width:2;stroke-miterlimit:10;}
	.st13{fill:#8C8C8C;stroke:#8C8C8C;stroke-width:2;stroke-miterlimit:10;}
	.st14{fill:#8C8C8C;stroke:#FFFFFF;stroke-width:2;stroke-miterlimit:10;}
	.st15{fill:none;stroke:#FFFFFF;stroke-width:2;stroke-miterlimit:10;}
	.st16{fill:none;stroke:#8C8C8C;stroke-miterlimit:10;}
	.st17{fill:none;stroke:#8C8C8C;stroke-width:13;stroke-miterlimit:10;}
	.st18{fill:#EAEAEA;stroke:#8C8C8C;stroke-width:8;stroke-miterlimit:10;}
	.st19{fill:none;stroke:#8C8C8C;stroke-width:4;stroke-miterlimit:10;}
	.st20{fill:#8C8C8C;stroke:#8C8C8C;stroke-width:0.75;stroke-miterlimit:10;}
	.st21{fill:none;stroke:#8C8C8C;stroke-width:9;stroke-miterlimit:10;}
	.st22{fill:#8C8C8C;stroke:#8C8C8C;stroke-width:0.5;stroke-miterlimit:10;}
	.st23{fill:#6B6B6B;}
	.st24{fill:none;}
	.st25{stroke:#8C8C8C;stroke-width:8;stroke-miterlimit:10;}
	.st26{fill:#8C8C8C;stroke:#8C8C8C;stroke-miterlimit:10;}
	.st27{fill:none;stroke:#8C8C8C;stroke-width:11;stroke-miterlimit:10;}
	.st28{fill:none;stroke:#8C8C8C;stroke-width:6;stroke-miterlimit:10;}
	.st29{stroke:#8C8C8C;stroke-width:6;stroke-miterlimit:10;}
	.st30{fill:#8C8C8C;stroke:#8C8C8C;stroke-width:4;stroke-miterlimit:10;}
	.st31{fill:#8C8C8C;stroke:#8C8C8C;stroke-width:1.05;stroke-miterlimit:10;}
	.st32{fill:#D6D6D6;}
	.st33{fill:none;stroke:#EAEAEA;stroke-width:5;stroke-miterlimit:10;}
	.st34{fill:#8C8C8C;stroke:#8C8C8C;stroke-width:10;stroke-miterlimit:10;}
	.st35{fill:none;stroke:#CECECE;stroke-width:2;stroke-miterlimit:10;}
	.st36{font-family:'HelveticaNeue-CondensedBold';}
	.st37{font-size:54px;}
	.st38{fill:none;stroke:#FFFFFF;stroke-width:4;stroke-miterlimit:10;}
	.st39{fill-rule:evenodd;clip-rule:evenodd;fill:#8C8C8C;}
	.st40{fill:#8C8C8C;stroke:#8C8C8C;stroke-width:8;stroke-miterlimit:10;}
	.st41{fill:#8C8C8C;stroke:#8C8C8C;stroke-width:7;stroke-miterlimit:10;}
	.st42{fill:#DBDBDB;stroke:#8C8C8C;stroke-width:7;stroke-miterlimit:10;}
	.st43{fill:none;stroke:#8C8C8C;stroke-width:5;stroke-miterlimit:10;}
	.st44{fill:none;stroke:#8C8C8C;stroke-width:3;stroke-miterlimit:10;}
	.st45{clip-path:url(#SVGID_2_);fill:#8C8C8C;}
	.st46{clip-path:url(#SVGID_2_);fill:none;stroke:#8C8C8C;stroke-width:8;stroke-miterlimit:10;}
	.st47{clip-path:url(#SVGID_2_);fill:#FFFFFF;}
	.st48{clip-path:url(#SVGID_2_);fill:#EAEAEA;}
	.st49{clip-path:url(#SVGID_2_);fill:none;stroke:#8C8C8C;stroke-miterlimit:10;}
	.st50{fill:none;stroke:#FFFFFF;stroke-width:0.75;stroke-miterlimit:10;}
	.st51{fill:none;stroke:#8C8C8C;stroke-width:14;stroke-miterlimit:10;}
	.st52{fill:none;stroke:#EAEAEA;stroke-width:2;stroke-miterlimit:10;}
	.st53{fill:none;stroke:#8C8C8C;stroke-width:2;stroke-miterlimit:10;}
</style>
    <rect class="st0" height="500" width="500" x="-1" y="-1"/>
    <path class="st1" d="M231.4,320.6l11.7-4.7c1.5-0.6,3.2-0.6,4.8,0l11.7,4.7l0,0l2.4,1c5.1,2.1,10.7,0.8,14.5-2.9
	c1.1-1.1,1.7-2.1,2-2.6c19.2-31.9,19.6-52,19.6-52c0.1-6.8-0.6-14.9-2-15c-1.3-0.1-2.4,6.7-6.8,24.9c0,0-5,20.3-16.2,38.9
	c-1.8,3-5.5,4.2-8.8,2.9l-0.4-0.2V75c9.4,10.9,17.5,26.5,23.6,45.8c7.4,23.6,11.4,51.1,11.4,79.6c0,21.6-2.2,42.4-6.6,61.8
	c-0.4,1.7,0.7,3.4,2.4,3.7c1.7,0.4,3.4-0.7,3.7-2.4c4.5-19.8,6.7-41.1,6.7-63.2c0-58.7-16.6-111.8-42.2-135.4c0,0,0,0,0,0
	c-4.1-3.8-8.4-6.8-12.9-8.9c-2.9-1.4-6.1-1.4-9,0c-4.4,2.1-8.7,5.1-12.9,8.9c0,0,0,0,0,0C217,75.2,207.3,91.3,200,111.7
	c-0.6,1.6,0.3,3.4,1.9,4c1.6,0.6,3.4-0.3,4-1.9c5.7-16.1,13-29.3,21.2-38.8l0,189.1v51.5l-0.4,0.2c-3.3,1.3-7,0.1-8.8-2.9
	c-23-38.3-25.7-112.5-25.7-112.5c-2.1-30.8,2.1-54.5,6.8-71.3c4.3-15.3,11.2-32.5,10-33c-1-0.4-7.1,11.8-9,16
	c-6.5,14.4-14.2,40.4-14,88.3c0,0,0.4,72.1,26.6,115.7c3.4,5.7,10.3,8,16.5,5.5C229.9,321.2,230.7,320.9,231.4,320.6z M247.3,61.7
	c3.5,1.7,7,4,10.3,6.9V313l-7.4-3c-3.1-1.2-6.4-1.2-9.5,0l-7.4,3v-4.4l0-240c3.3-2.9,6.8-5.3,10.3-6.9
	C244.8,61.2,246.2,61.2,247.3,61.7z"/>
    <rect class="st1" height="4" width="89" x="200" y="112"/>
    <rect class="st1" height="8" width="89" x="200" y="114"/>
    <g>
	<rect class="st24" height="144" width="500" x="2" y="366"/>
        <text class="st23 st36 st37" transform="matrix(1 0 0 1 207.5044 404.5557)">Surf</text>
</g>
    <rect class="st1" height="8" width="86" x="203" y="285"/>
</svg>
