<svg id="Calque_1" data-name="Calque 1" xmlns="http://www.w3.org/2000/svg" viewBox="0 0 350 300"><title>selected</title><path d="M164.5-6a10.44,10.44,0,0,0-4.49,1,52.74,52.74,0,0,0-12.86,8.88h0C136,14.15,126.31,30.32,119,50.68a3.19,3.19,0,0,0-.15.59L119,51c1.85-4.12,7.79-16,9-16h0c.83.35-2.44,9.24-5.94,19.86a3.12,3.12,0,0,0,2.86-2.07c5.74-16.07,13-29.32,21.22-38.82V254.56l-.4.16a7.15,7.15,0,0,1-2.71.53,7,7,0,0,1-6.06-3.44c-23-38.27-25.74-112.51-25.74-112.51-2.1-30.8,2.07-54.53,6.77-71.3,1.22-4.37,2.66-8.89,4.06-13.14H122a3,3,0,0,1-1-.18,3.13,3.13,0,0,1-2-3.41c-6.45,14.46-14.06,40.45-13.9,88,0,0,.43,72.11,26.62,115.73A13.28,13.28,0,0,0,143,261.51a13.54,13.54,0,0,0,5.08-1l2.35-1,11.67-4.72a6.21,6.21,0,0,1,2.39-.47,6.39,6.39,0,0,1,2.39.46l11.67,4.73h0l2.35,1a13.54,13.54,0,0,0,5.08,1,13.26,13.26,0,0,0,9.38-3.88,13.66,13.66,0,0,0,2-2.6c17.89-29.72,19.46-49.24,19.59-51.75a3.13,3.13,0,0,1-2.76,1.65,3.25,3.25,0,0,1-.69-.08,3.13,3.13,0,0,1-2.36-3.74q.76-3.39,1.44-6.82c-1,4-2.33,10-4.42,18.59,0,0-5,20.33-16.17,38.93a7,7,0,0,1-6.06,3.44,7.18,7.18,0,0,1-2.71-.53l-.4-.16V14c9.41,10.86,17.48,26.49,23.55,45.75,7.43,23.56,11.36,51.08,11.36,79.59a285.9,285.9,0,0,1-5.15,55c1.08-4.41,1.7-6.29,2.35-6.29h0c1.36.11,2.14,8.17,2,15,0,0,0,.09,0,.28a3.12,3.12,0,0,0,.29-.79A288.11,288.11,0,0,0,224,139.3c0-58.67-16.55-111.81-42.17-135.37h0A52.74,52.74,0,0,0,169-4.95a10.44,10.44,0,0,0-4.49-1ZM152.4,252V7.63A45.26,45.26,0,0,1,162.71.7a4.11,4.11,0,0,1,3.58,0A45.26,45.26,0,0,1,176.6,7.63V252l-7.37-3a12.52,12.52,0,0,0-9.47,0l-7.36,3Z"/><polygon points="208 51 119 51 119 55 208 55 208 51 208 51"/><polygon points="208 53 119 53 119 61 208 61 208 53 208 53"/><polygon points="208 224 122 224 122 232 208 232 208 224 208 224"/></svg>