<?xml version="1.0" encoding="utf-8"?>
<!-- Generator: Adobe Illustrator 22.1.0, SVG Export Plug-In . SVG Version: 6.00 Build 0)  -->
<svg style="enable-background:new 0 0 500 500;" id="Calque_1" version="1.1" viewBox="0 0 500 500" x="0px"
     xmlns="http://www.w3.org/2000/svg" y="0px" xml:space="preserve">
<style type="text/css">
	.st0{fill:#4FBDD7;}
	.st1{fill:#EAEAEA;}
	.st2{fill:#FFFFFF;}
	.st3{fill:#4FBDD7;stroke:#FFFFFF;stroke-width:5;stroke-miterlimit:10;}
	.st4{fill:#8C8C8C;}
	.st5{fill:#070707;}
	.st6{fill:none;}
	.st7{font-family:'HelveticaNeue-CondensedBold';}
	.st8{font-size:54px;}
	.st9{fill:none;stroke:#FFFFFF;stroke-width:7;stroke-miterlimit:10;}
	.st10{fill:none;stroke:#FFFFFF;stroke-width:10;stroke-miterlimit:10;}
	.st11{fill:#FFFFFF;stroke:#FFFFFF;stroke-width:3;stroke-miterlimit:10;}
	.st12{fill:none;stroke:#FDFFFF;stroke-width:6;stroke-miterlimit:10;}
	.st13{fill:#FAFEFF;}
	.st14{fill:none;stroke:#FFFFFF;stroke-width:2;stroke-miterlimit:10;}
	.st15{fill:#FFFFFF;stroke:#FFFFFF;stroke-width:2;stroke-miterlimit:10;}
	.st16{fill:#4FBDD7;stroke:#FFFFFF;stroke-width:4;stroke-miterlimit:10;}
	.st17{fill:#FFFFFF;stroke:#FFFFFF;stroke-width:4;stroke-miterlimit:10;}
	.st18{fill:none;stroke:#FFFFFF;stroke-miterlimit:10;}
	.st19{fill:#FFFFFF;stroke:#FFFFFF;stroke-width:13;stroke-miterlimit:10;}
	.st20{fill:#4FBDD7;stroke:#FFFFFF;stroke-width:8;stroke-miterlimit:10;}
	.st21{fill:#FFFFFF;stroke:#FFFFFF;stroke-width:0.75;stroke-miterlimit:10;}
	.st22{fill:#FFFFFF;stroke:#FFFFFF;stroke-width:0.5;stroke-miterlimit:10;}
	.st23{fill:#FFFFFF;stroke:#FFFFFF;stroke-width:8;stroke-miterlimit:10;}
	.st24{fill:#FFFFFF;stroke:#FFFFFF;stroke-miterlimit:10;}
	.st25{fill:#FFFFFF;stroke:#FFFFFF;stroke-width:11;stroke-miterlimit:10;}
	.st26{fill:#FFFFFF;stroke:#FFFFFF;stroke-width:6;stroke-miterlimit:10;}
	.st27{fill:#8C8C8C;stroke:#8C8C8C;stroke-width:4;stroke-miterlimit:10;}
	.st28{fill:#FFFFFF;stroke:#FFFFFF;stroke-width:1.05;stroke-miterlimit:10;}
	.st29{fill:none;stroke:#4FBDD7;stroke-width:5;stroke-miterlimit:10;}
	.st30{fill:none;stroke:#FFFFFF;stroke-width:4;stroke-miterlimit:10;}
	.st31{fill:#8C8C8C;stroke:#FFFFFF;stroke-width:4;stroke-miterlimit:10;}
	.st32{fill:#FFFFFF;stroke:#FFFFFF;stroke-width:10;stroke-miterlimit:10;}
	.st33{fill:none;stroke:#4FBDD7;stroke-width:2;stroke-miterlimit:10;}
	.st34{fill-rule:evenodd;clip-rule:evenodd;fill:#FFFFFF;}
	.st35{fill:#FFFFFF;stroke:#FFFFFF;stroke-width:7;stroke-miterlimit:10;}
	.st36{fill:#FFFFFF;stroke:#4FBDD7;stroke-width:7;stroke-miterlimit:10;}
	.st37{fill:#FCFCFC;}
	.st38{fill:#FFFFFF;stroke:#FFFFFF;stroke-width:5;stroke-miterlimit:10;}
	.st39{fill:none;stroke:#FFFFFF;stroke-width:3;stroke-miterlimit:10;}
	.st40{fill:none;stroke:#FFFFFF;stroke-width:8;stroke-miterlimit:10;}
	.st41{fill:none;stroke:#FFFFFF;stroke-width:6;stroke-miterlimit:10;}
	.st42{fill:#FFFFFF;stroke:#4FBDD7;stroke-width:3;stroke-miterlimit:10;}
	.st43{fill:none;stroke:#FFFFFF;stroke-width:0.75;stroke-miterlimit:10;}
	.st44{fill:#4FBDD7;stroke:#FFFFFF;stroke-width:9;stroke-miterlimit:10;}
	.st45{fill:none;stroke:#FFFFFF;stroke-width:9;stroke-miterlimit:10;}
	.st46{fill:none;stroke:#4FBDD7;stroke-width:3;stroke-miterlimit:10;}
</style>
    <rect class="st0" height="500" width="500" x="-1"/>
    <g>
	<rect class="st6" height="144" width="500" y="363"/>
        <text class="st2 st7 st8" transform="matrix(1 0 0 1 147.0781 401.5557)">Swissball</text>
</g>
    <g>
	<path class="st0" d="M242.1,126.2c49.6-7.2,95.6,27.2,102.7,76.8s-27.2,95.6-76.8,102.7s-95.6-27.2-102.7-76.8
		C158.1,179.4,192.5,133.4,242.1,126.2"/>
        <path class="st10" d="M242.1,126.2c49.6-7.2,95.6,27.2,102.7,76.8s-27.2,95.6-76.8,102.7s-95.6-27.2-102.7-76.8
		C158.1,179.4,192.5,133.4,242.1,126.2z"/>
        <path class="st2" d="M263.5,274.5c-31.9,4.6-62.2-0.1-86.1-11.6c7.6,12.5,18,22.9,30.3,30.4c18.1,4.2,38.1,5.1,58.8,2.1
		c20.7-3,39.6-9.6,55.8-18.7c9.7-10.7,16.7-23.6,20.5-37.7C323,256.8,295.3,269.9,263.5,274.5"/>
        <path class="st2" d="M263.5,274.5c-31.9,4.6-62.2-0.1-86.1-11.6c7.6,12.5,18,22.9,30.3,30.4c18.1,4.2,38.1,5.1,58.8,2.1
		c20.7-3,39.6-9.6,55.8-18.7c9.7-10.7,16.7-23.6,20.5-37.7C323,256.8,295.3,269.9,263.5,274.5z"/>
        <path class="st2" d="M247.4,163.1c22.5-3.2,43-10.8,60-21.1c-6.7-4.7-14-8.6-21.7-11.3c-12.6,5.4-26.5,9.4-41.3,11.5
		c-14.8,2.1-29.2,2.2-42.8,0.6c-6.7,4.9-12.6,10.6-17.6,17C203.1,164.9,224.9,166.3,247.4,163.1"/>
        <path class="st2" d="M247.4,163.1c22.5-3.2,43-10.8,60-21.1c-6.7-4.7-14-8.6-21.7-11.3c-12.6,5.4-26.5,9.4-41.3,11.5
		c-14.8,2.1-29.2,2.2-42.8,0.6c-6.7,4.9-12.6,10.6-17.6,17C203.1,164.9,224.9,166.3,247.4,163.1z"/>
        <path class="st2" d="M249.8,184.2c-28.3,5-55.6,2.5-78.3-5.7c-2.3,5.5-4.1,11.3-5.3,17.2c24.4,11,55.2,15,87.4,9.3
		c32.1-5.7,59.7-19.9,78.9-38.7c-3.2-5.2-6.8-10-10.9-14.4C302.9,167.6,278.1,179.2,249.8,184.2z"/>
        <path class="st2" d="M164.3,215.3c0,4.5,0.3,9,0.9,13.6c0.3,2.3,0.8,4.6,1.3,6.9c24.9,14.3,58.3,20.6,93.6,15.5
		c35.3-5.1,65.5-20.6,85.4-41.3c-0.2-2.3-0.4-4.7-0.7-7c-0.7-4.6-1.7-9-2.9-13.3c-19.8,20.4-49.8,35.6-84.7,40.7
		C222.2,235.4,189.1,229.3,164.3,215.3"/>
        <path class="st2" d="M164.3,215.3c0,4.5,0.3,9,0.9,13.6c0.3,2.3,0.8,4.6,1.3,6.9c24.9,14.3,58.3,20.6,93.6,15.5
		c35.3-5.1,65.5-20.6,85.4-41.3c-0.2-2.3-0.4-4.7-0.7-7c-0.7-4.6-1.7-9-2.9-13.3c-19.8,20.4-49.8,35.6-84.7,40.7
		C222.2,235.4,189.1,229.3,164.3,215.3z"/>
</g>
</svg>
