<?xml version="1.0" encoding="utf-8"?>
<!-- Generator: Adobe Illustrator 22.1.0, SVG Export Plug-In . SVG Version: 6.00 Build 0)  -->
<svg xmlns:xlink="http://www.w3.org/1999/xlink" style="enable-background:new 0 0 500 500;" id="Calque_1" version="1.1" viewBox="0 0 500 500"
     x="0px"
     xmlns="http://www.w3.org/2000/svg" y="0px" xml:space="preserve">
<style type="text/css">
	.st0{fill:#EAEAEA;}
	.st1{fill:#8C8C8C;}
	.st2{fill:#FFFFFF;}
	.st3{fill:#EAEAEA;stroke:#8C8C8C;stroke-width:7;stroke-miterlimit:10;}
	.st4{fill:#070707;}
	.st5{fill:none;}
	.st6{fill:#6B6B6B;}
	.st7{font-family:'HelveticaNeue-CondensedBold';}
	.st8{font-size:54px;}
	.st9{fill:none;stroke:#8C8C8C;stroke-width:7;stroke-miterlimit:10;}
	.st10{fill:none;stroke:#8C8C8C;stroke-width:10;stroke-miterlimit:10;}
	.st11{fill:#8C8C8C;stroke:#8C8C8C;stroke-width:3;stroke-miterlimit:10;}
	.st12{fill:none;stroke:#8C8C8C;stroke-width:8;stroke-miterlimit:10;}
	.st13{fill:none;stroke:#8E8E8E;stroke-width:6;stroke-miterlimit:10;}
	.st14{fill:#8E8E8E;}
	.st15{fill:#505050;}
	.st16{fill:none;stroke:#8E8E8E;stroke-width:2;stroke-miterlimit:10;}
	.st17{fill:#8C8C8C;stroke:#8C8C8C;stroke-width:2;stroke-miterlimit:10;}
	.st18{fill:#8C8C8C;stroke:#FFFFFF;stroke-width:2;stroke-miterlimit:10;}
	.st19{fill:none;stroke:#FFFFFF;stroke-width:2;stroke-miterlimit:10;}
	.st20{fill:none;stroke:#8C8C8C;stroke-miterlimit:10;}
	.st21{fill:none;stroke:#8C8C8C;stroke-width:13;stroke-miterlimit:10;}
	.st22{fill:#EAEAEA;stroke:#8C8C8C;stroke-width:8;stroke-miterlimit:10;}
	.st23{fill:none;stroke:#8C8C8C;stroke-width:4;stroke-miterlimit:10;}
	.st24{fill:#8C8C8C;stroke:#8C8C8C;stroke-width:0.75;stroke-miterlimit:10;}
	.st25{fill:none;stroke:#8C8C8C;stroke-width:9;stroke-miterlimit:10;}
	.st26{fill:#8C8C8C;stroke:#8C8C8C;stroke-width:0.5;stroke-miterlimit:10;}
	.st27{stroke:#8C8C8C;stroke-width:8;stroke-miterlimit:10;}
	.st28{fill:#8C8C8C;stroke:#8C8C8C;stroke-miterlimit:10;}
	.st29{fill:none;stroke:#8C8C8C;stroke-width:11;stroke-miterlimit:10;}
	.st30{fill:none;stroke:#8C8C8C;stroke-width:6;stroke-miterlimit:10;}
	.st31{stroke:#8C8C8C;stroke-width:6;stroke-miterlimit:10;}
	.st32{fill:#8C8C8C;stroke:#8C8C8C;stroke-width:4;stroke-miterlimit:10;}
	.st33{fill:#8C8C8C;stroke:#8C8C8C;stroke-width:1.05;stroke-miterlimit:10;}
	.st34{fill:#D6D6D6;}
	.st35{fill:none;stroke:#EAEAEA;stroke-width:5;stroke-miterlimit:10;}
	.st36{fill:#8C8C8C;stroke:#8C8C8C;stroke-width:10;stroke-miterlimit:10;}
	.st37{fill:none;stroke:#CECECE;stroke-width:2;stroke-miterlimit:10;}
	.st38{fill:none;stroke:#FFFFFF;stroke-width:4;stroke-miterlimit:10;}
	.st39{fill-rule:evenodd;clip-rule:evenodd;fill:#8C8C8C;}
	.st40{fill:#8C8C8C;stroke:#8C8C8C;stroke-width:8;stroke-miterlimit:10;}
	.st41{fill:#8C8C8C;stroke:#8C8C8C;stroke-width:7;stroke-miterlimit:10;}
	.st42{fill:#DBDBDB;stroke:#8C8C8C;stroke-width:7;stroke-miterlimit:10;}
	.st43{fill:none;stroke:#8C8C8C;stroke-width:5;stroke-miterlimit:10;}
	.st44{fill:none;stroke:#8C8C8C;stroke-width:3;stroke-miterlimit:10;}
	.st45{clip-path:url(#SVGID_2_);fill:#8C8C8C;}
	.st46{clip-path:url(#SVGID_2_);fill:none;stroke:#8C8C8C;stroke-width:8;stroke-miterlimit:10;}
	.st47{clip-path:url(#SVGID_2_);fill:#FFFFFF;}
	.st48{clip-path:url(#SVGID_2_);fill:#EAEAEA;}
	.st49{clip-path:url(#SVGID_2_);fill:none;stroke:#8C8C8C;stroke-miterlimit:10;}
	.st50{fill:none;stroke:#FFFFFF;stroke-width:0.75;stroke-miterlimit:10;}
	.st51{fill:none;stroke:#8C8C8C;stroke-width:14;stroke-miterlimit:10;}
	.st52{fill:none;stroke:#EAEAEA;stroke-width:2;stroke-miterlimit:10;}
	.st53{fill:none;stroke:#8C8C8C;stroke-width:2;stroke-miterlimit:10;}
</style>
    <rect class="st0" height="500" width="500" x="-1"/>
    <g>
	<rect class="st5" height="144" width="500" y="363"/>
        <text class="st6 st7 st8" transform="matrix(1 0 0 1 147.0781 401.5557)">Swissball</text>
</g>
    <g>
	<defs>
		<rect height="188" id="SVGID_1_" width="188" x="161" y="122"/>
	</defs>
        <clipPath id="SVGID_2_">
		<use style="overflow:visible;" xlink:href="#SVGID_1_"/>
	</clipPath>
        <path class="st45" d="M242.1,126.2c49.6-7.2,95.6,27.2,102.7,76.8s-27.2,95.6-76.8,102.7s-95.6-27.2-102.7-76.8
		C158.1,179.4,192.5,133.4,242.1,126.2"/>
        <path class="st46" d="M242.1,126.2c49.6-7.2,95.6,27.2,102.7,76.8s-27.2,95.6-76.8,102.7s-95.6-27.2-102.7-76.8
		C158.1,179.4,192.5,133.4,242.1,126.2z"/>
        <path class="st47" d="M263.5,274.5c-31.9,4.6-62.2-0.1-86.1-11.6c7.6,12.5,18,22.9,30.3,30.4c18.1,4.2,38.1,5.1,58.8,2.1
		c20.7-3,39.6-9.6,55.8-18.7c9.7-10.7,16.7-23.6,20.5-37.7C323,256.8,295.3,269.9,263.5,274.5"/>
        <path class="st48" d="M263.5,274.5c-31.9,4.6-62.2-0.1-86.1-11.6c7.6,12.5,18,22.9,30.3,30.4c18.1,4.2,38.1,5.1,58.8,2.1
		c20.7-3,39.6-9.6,55.8-18.7c9.7-10.7,16.7-23.6,20.5-37.7C323,256.8,295.3,269.9,263.5,274.5z"/>
        <path class="st47" d="M247.4,163.1c22.5-3.2,43-10.8,60-21.1c-6.7-4.7-14-8.6-21.7-11.3c-12.6,5.4-26.5,9.4-41.3,11.5
		c-14.8,2.1-29.2,2.2-42.8,0.6c-6.7,4.9-12.6,10.6-17.6,17C203.1,164.9,224.9,166.3,247.4,163.1"/>
        <path class="st48" d="M247.4,163.1c22.5-3.2,43-10.8,60-21.1c-6.7-4.7-14-8.6-21.7-11.3c-12.6,5.4-26.5,9.4-41.3,11.5
		c-14.8,2.1-29.2,2.2-42.8,0.6c-6.7,4.9-12.6,10.6-17.6,17C203.1,164.9,224.9,166.3,247.4,163.1z"/>
        <path class="st49" d="M250.7,186.3c-28.4,4.1-55.6,0.8-78.1-8.1c-2.5,5.4-4.5,11.1-5.9,17c24.1,11.8,54.7,16.7,87,12
		c32.3-4.7,60.3-18,80.1-36.1c-3-5.3-6.5-10.2-10.5-14.7C304.3,171.3,279.2,182.2,250.7,186.3"/>
        <path class="st48" d="M250.8,186.2c-28.3,5-55.6,2.5-78.3-5.7c-2.3,5.5-4.1,11.3-5.3,17.2c24.4,11,55.2,15,87.4,9.3
		c32.1-5.7,59.7-19.9,78.9-38.7c-3.2-5.2-6.8-10-10.9-14.4C303.9,169.6,279.1,181.2,250.8,186.2z"/>
        <path class="st47" d="M164.3,215.3c0,4.5,0.3,9,0.9,13.6c0.3,2.3,0.8,4.6,1.3,6.9c24.9,14.3,58.3,20.6,93.6,15.5
		c35.3-5.1,65.5-20.6,85.4-41.3c-0.2-2.3-0.4-4.7-0.7-7c-0.7-4.6-1.7-9-2.9-13.3c-19.8,20.4-49.8,35.6-84.7,40.7
		C222.2,235.4,189.1,229.3,164.3,215.3"/>
        <path class="st48" d="M164.3,215.3c0,4.5,0.3,9,0.9,13.6c0.3,2.3,0.8,4.6,1.3,6.9c24.9,14.3,58.3,20.6,93.6,15.5
		c35.3-5.1,65.5-20.6,85.4-41.3c-0.2-2.3-0.4-4.7-0.7-7c-0.7-4.6-1.7-9-2.9-13.3c-19.8,20.4-49.8,35.6-84.7,40.7
		C222.2,235.4,189.1,229.3,164.3,215.3z"/>
</g>
</svg>
