<svg id="Calque_1" data-name="Calque 1" xmlns="http://www.w3.org/2000/svg" viewBox="0 0 350 300"><title>selected</title><path d="M248.85,40.93H94.13a10.89,10.89,0,0,0-11,10.72V80.24a10.38,10.38,0,0,0,.7,3.65,11,11,0,0,0-9.54,7.25l-13.07,38a3.58,3.58,0,0,0-.17,1V141a10.89,10.89,0,0,0,11,10.72h46.36l38,36.29-32.62,31.62h-3.85a10.73,10.73,0,1,0,0,21.45h18.47a11.09,11.09,0,0,0,9.25-4.89,10.44,10.44,0,0,0,.75-10.24,3.62,3.62,0,0,0,.32-.22l23.3-22.6,22.91,22.24a10.4,10.4,0,0,0-1.33,5,10.89,10.89,0,0,0,11,10.72h18.42a10.73,10.73,0,1,0,0-21.45h-2.78L187.64,188,225,151.72h46A10.89,10.89,0,0,0,282,141V130.28s0-.06,0-.1a3.27,3.27,0,0,0-.17-1l-13.05-38a11,11,0,0,0-9.56-7.25,10.38,10.38,0,0,0,.7-3.65V51.65a10.89,10.89,0,0,0-11-10.72ZM94.13,83.81a3.63,3.63,0,0,1-3.68-3.57V51.65a3.63,3.63,0,0,1,3.68-3.58H248.85a3.63,3.63,0,0,1,3.68,3.58V80.24a3.63,3.63,0,0,1-3.68,3.57ZM251.72,126.7,242.52,91h15.75a3.69,3.69,0,0,1,3.5,2.45l11.44,33.29Zm-25.54,0-2.47-14.43a7.12,7.12,0,0,0,5.95-8.19L227.41,91h7.51l9.21,35.74Zm-14.83-21.44L208.4,91h11.54l2.46,14.3Zm-21.44,0V91H201a4.33,4.33,0,0,0,0,.72l2.8,13.58Zm-18.42,0V91h11v14.3ZM153.44,126.7l3.32-35.41c0-.12,0-.22,0-.33h7.4v14.3a7.26,7.26,0,0,0,7.37,7.15V126.7Zm-21.87-14.29a7.28,7.28,0,0,0,7.24-6L141.46,91h7.93L146,126.7H128l2.68-14.29h.87Zm-7.3-7.15L126.72,91H134l-2.46,14.3ZM99,126.7,103,112.33a7.27,7.27,0,0,0,6.51-4.81L115.21,91h4.05L117,104.08a6.93,6.93,0,0,0,1.3,5.4,7.33,7.33,0,0,0,4.92,2.82l-2.7,14.4Zm-3.4-21.44L100.47,91h7l-4.91,14.3ZM69.78,126.7,81.22,93.41A3.67,3.67,0,0,1,84.71,91h8l-4.13,12a6.94,6.94,0,0,0,1,6.35,7.41,7.41,0,0,0,5.84,3l-4,14.32Zm130.89,0-1.23-14.29h16.94a3.75,3.75,0,0,0,0,.58l2.36,13.71Zm-21.81,0V112.41h13.19l1.22,14.29ZM72,144.58A3.63,3.63,0,0,1,68.35,141v-7.15H274.63V141a3.63,3.63,0,0,1-3.68,3.58Zm112.48,36.31a14.37,14.37,0,0,0-4.89-5.3l24.56-23.87h10.41l-30.08,29.17ZM172,172.83l-21.75-21.11h43.46L172,172.83Zm-13.25,7.44-29.88-28.55h11L164,175.17a14.27,14.27,0,0,0-5.25,5.1Zm12.4.07.3,0h0a4.68,4.68,0,0,1,1,.11,7.2,7.2,0,0,1,6.29,7,3.71,3.71,0,0,0,0,.47h0V188a7.19,7.19,0,0,1-6.63,6.59,4.75,4.75,0,0,0-.53,0h-.22a7.36,7.36,0,0,1-7.24-6.37c0-.19-.06-.44-.09-.67a4.35,4.35,0,0,0,.06-.52,7.21,7.21,0,0,1,6.92-6.71Zm28.24,39.29L179,199.76a14.21,14.21,0,0,0,5.21-5.06l25.7,24.93Zm-65.22,0,25.08-24.3a14.6,14.6,0,0,0,5.45,4.77L144.6,219.63Zm70.43,14.3a3.58,3.58,0,1,1,0-7.15h18.42a3.58,3.58,0,1,1,0,7.15Zm-84.72,0a3.58,3.58,0,1,1,0-7.15h18.42a3.58,3.58,0,1,1,0,7.15Z"/><path d="M112.5,55.22h-9.18c-3,0-5.5,4.8-5.5,10.72s2.46,10.73,5.5,10.73h9.18c3,0,5.5-4.8,5.5-10.73s-2.46-10.72-5.5-10.72Zm-9.18,14.3c-1,0-1.83-1.6-1.83-3.58s.82-3.57,1.83-3.57h9.18c1,0,1.83,1.6,1.83,3.57s-.82,3.58-1.83,3.58Z"/><path d="M153.07,55.22h-3.68a3.58,3.58,0,1,0,0,7.15h3.68a3.58,3.58,0,1,0,0-7.15Z"/><path d="M153.07,69.52h-3.68a3.58,3.58,0,1,0,0,7.15h3.68a3.58,3.58,0,1,0,0-7.15Z"/><path d="M171.49,69.52h-3.68a3.58,3.58,0,1,0,0,7.15h3.68a3.58,3.58,0,1,0,0-7.15Z"/><path d="M189.91,69.52h-3.68a3.58,3.58,0,1,0,0,7.15h3.68a3.58,3.58,0,1,0,0-7.15Z"/><path d="M223.06,55.22a10.73,10.73,0,1,0,11.05,10.72,10.89,10.89,0,0,0-11.05-10.72Zm0,14.3a3.58,3.58,0,1,1,3.69-3.58,3.63,3.63,0,0,1-3.69,3.58Z"/></svg>