<?xml version="1.0" encoding="utf-8"?>
<!-- Generator: Adobe Illustrator 22.1.0, SVG Export Plug-In . SVG Version: 6.00 Build 0)  -->
<svg style="enable-background:new 0 0 500 500;" id="Calque_1" version="1.1" viewBox="0 0 500 500" x="0px"
     xmlns="http://www.w3.org/2000/svg" y="0px" xml:space="preserve">
<style type="text/css">
	.st0{fill:#4FBDD7;}
	.st1{fill:#EAEAEA;}
	.st2{fill:#FFFFFF;}
	.st3{fill:#4FBDD7;stroke:#FFFFFF;stroke-width:5;stroke-miterlimit:10;}
	.st4{fill:#8C8C8C;}
	.st5{fill:#070707;}
	.st6{fill:none;stroke:#FFFFFF;stroke-width:7;stroke-miterlimit:10;}
	.st7{fill:none;stroke:#FFFFFF;stroke-width:10;stroke-miterlimit:10;}
	.st8{fill:#FFFFFF;stroke:#FFFFFF;stroke-width:3;stroke-miterlimit:10;}
	.st9{fill:none;stroke:#FDFFFF;stroke-width:6;stroke-miterlimit:10;}
	.st10{fill:#FAFEFF;}
	.st11{fill:none;stroke:#FFFFFF;stroke-width:2;stroke-miterlimit:10;}
	.st12{fill:#FFFFFF;stroke:#FFFFFF;stroke-width:2;stroke-miterlimit:10;}
	.st13{fill:#4FBDD7;stroke:#FFFFFF;stroke-width:4;stroke-miterlimit:10;}
	.st14{fill:#FFFFFF;stroke:#FFFFFF;stroke-width:4;stroke-miterlimit:10;}
	.st15{fill:none;stroke:#FFFFFF;stroke-miterlimit:10;}
	.st16{fill:#FFFFFF;stroke:#FFFFFF;stroke-width:13;stroke-miterlimit:10;}
	.st17{fill:#4FBDD7;stroke:#FFFFFF;stroke-width:8;stroke-miterlimit:10;}
	.st18{fill:#FFFFFF;stroke:#FFFFFF;stroke-width:0.75;stroke-miterlimit:10;}
	.st19{fill:#FFFFFF;stroke:#FFFFFF;stroke-width:0.5;stroke-miterlimit:10;}
	.st20{fill:#FFFFFF;stroke:#FFFFFF;stroke-width:8;stroke-miterlimit:10;}
	.st21{fill:#FFFFFF;stroke:#FFFFFF;stroke-miterlimit:10;}
	.st22{fill:#FFFFFF;stroke:#FFFFFF;stroke-width:11;stroke-miterlimit:10;}
	.st23{fill:#FFFFFF;stroke:#FFFFFF;stroke-width:6;stroke-miterlimit:10;}
	.st24{fill:#8C8C8C;stroke:#8C8C8C;stroke-width:4;stroke-miterlimit:10;}
	.st25{fill:#FFFFFF;stroke:#FFFFFF;stroke-width:1.05;stroke-miterlimit:10;}
	.st26{fill:none;stroke:#4FBDD7;stroke-width:5;stroke-miterlimit:10;}
	.st27{fill:none;stroke:#FFFFFF;stroke-width:4;stroke-miterlimit:10;}
	.st28{fill:#8C8C8C;stroke:#FFFFFF;stroke-width:4;stroke-miterlimit:10;}
	.st29{fill:#FFFFFF;stroke:#FFFFFF;stroke-width:10;stroke-miterlimit:10;}
	.st30{fill:none;stroke:#4FBDD7;stroke-width:2;stroke-miterlimit:10;}
	.st31{fill:none;}
	.st32{font-family:'HelveticaNeue-CondensedBold';}
	.st33{font-size:54px;}
	.st34{fill-rule:evenodd;clip-rule:evenodd;fill:#FFFFFF;}
	.st35{fill:#FFFFFF;stroke:#FFFFFF;stroke-width:7;stroke-miterlimit:10;}
	.st36{fill:#FFFFFF;stroke:#4FBDD7;stroke-width:7;stroke-miterlimit:10;}
	.st37{fill:#FCFCFC;}
	.st38{fill:#FFFFFF;stroke:#FFFFFF;stroke-width:5;stroke-miterlimit:10;}
	.st39{fill:none;stroke:#FFFFFF;stroke-width:3;stroke-miterlimit:10;}
	.st40{fill:none;stroke:#FFFFFF;stroke-width:8;stroke-miterlimit:10;}
	.st41{fill:none;stroke:#FFFFFF;stroke-width:6;stroke-miterlimit:10;}
	.st42{fill:#FFFFFF;stroke:#4FBDD7;stroke-width:3;stroke-miterlimit:10;}
	.st43{fill:none;stroke:#FFFFFF;stroke-width:0.75;stroke-miterlimit:10;}
	.st44{fill:#4FBDD7;stroke:#FFFFFF;stroke-width:9;stroke-miterlimit:10;}
	.st45{fill:none;stroke:#FFFFFF;stroke-width:9;stroke-miterlimit:10;}
	.st46{fill:none;stroke:#4FBDD7;stroke-width:3;stroke-miterlimit:10;}
</style>
    <rect class="st0" height="500" width="500" x="-1"/>
    <path class="st2" d="M356.8,179.2l-13.1-38c-1.4-4.1-5.2-6.9-9.6-7.3c0.5-1.2,0.7-2.4,0.7-3.6v-28.6c0-5.9-4.9-10.7-11.1-10.7H169.1
	c-6.1,0-11.1,4.8-11.1,10.7v28.6c0,1.2,0.2,2.5,0.7,3.6c-4.4,0.4-8.1,3.2-9.5,7.3l-13.1,38c-0.1,0.3-0.2,0.7-0.2,1v0.1V191
	c0,5.9,4.9,10.7,11.1,10.7h46.4l38,36.3l-32.6,31.6h-3.9c-6.1,0-11.1,4.8-11.1,10.7c0,5.9,4.9,10.7,11.1,10.7h18.4
	c3.8,0,7.3-1.8,9.3-4.9c2-3.1,2.3-6.9,0.8-10.2c0.1-0.1,0.2-0.1,0.3-0.2l23.3-22.6l22.9,22.2c-0.9,1.5-1.3,3.2-1.3,5
	c0,5.9,4.9,10.7,11.1,10.7h18.4c6.1,0,11-4.8,11-10.7c0-5.9-4.9-10.7-11-10.7h-2.8L262.6,238l37.4-36.2h46c6.1,0,11.1-4.8,11.1-10.7
	v-10.7c0,0,0-0.1,0-0.1C357,179.8,356.9,179.5,356.8,179.2z M336.8,143.4l11.4,33.3h-21.5l-9.2-35.7h15.8
	C334.9,141,336.3,141.9,336.8,143.4z M228.4,176.7l3.3-35.4c0-0.1,0-0.2,0-0.3h7.4v14.3c0,3.9,3.3,7.1,7.4,7.1v14.3H228.4z
	 M203,176.7l2.7-14.3h0.8c3.6,0,6.7-2.5,7.3-6l2.7-15.5h7.9l-3.3,35.7H203z M174,176.7l4.1-14.4c3-0.2,5.6-2.1,6.5-4.8l5.7-16.6h4.1
	l-2.3,13.1c-0.3,1.9,0.1,3.8,1.3,5.4c1.2,1.6,2.9,2.6,4.9,2.8l-2.7,14.4H174z M175.5,141h7l-4.9,14.3h-7L175.5,141z M206.5,155.3
	h-7.3l2.5-14.3h7.3L206.5,155.3z M297.4,155.3h-11.1l-2.9-14.3h11.5L297.4,155.3z M278.8,155.3h-13.9V141H276c0,0.2,0,0.5,0,0.7
	L278.8,155.3z M257.5,155.3h-11.1V141h11.1V155.3z M253.9,162.4H267l1.2,14.3h-14.4V162.4z M275.7,176.7l-1.2-14.3h16.9
	c0,0.2,0,0.4,0,0.6l2.4,13.7H275.7z M301.2,176.7l-2.5-14.4c4-0.7,6.6-4.3,5.9-8.2l-2.3-13.1h7.5l9.2,35.7H301.2z M165.5,101.6
	c0-2,1.6-3.6,3.7-3.6h154.7c2,0,3.7,1.6,3.7,3.6v28.6c0,2-1.6,3.6-3.7,3.6H169.1c-2,0-3.7-1.6-3.7-3.6V101.6z M156.2,143.4
	c0.5-1.5,1.9-2.4,3.5-2.4h8l-4.1,12c-0.7,2.1-0.4,4.5,1,6.4c1.3,1.9,3.5,3,5.8,3l-4,14.3h-21.5L156.2,143.4z M214.9,201.7l24.2,23.4
	c-2.2,1.2-4,3-5.2,5.1l-29.9-28.5H214.9z M274.4,269.6l-20.5-19.9c2.2-1.2,4-3,5.2-5.1l25.7,24.9H274.4z M219.6,269.6h-10.4
	l25.1-24.3c1.4,2,3.2,3.7,5.4,4.8L219.6,269.6z M253.9,237.9L253.9,237.9L253.9,237.9c-0.2,3.6-3,6.4-6.6,6.7c-0.2,0-0.4,0-0.5,0.1
	c-0.1,0-0.2,0-0.2,0c-3.7-0.1-6.8-2.8-7.2-6.4c0-0.2-0.1-0.4-0.1-0.7c0-0.2,0.1-0.3,0.1-0.5c0.2-3.6,3.2-6.5,6.9-6.7
	c0.1,0,0.2,0,0.4,0c0.4,0,0.7,0,1.1,0.1c3.6,0.5,6.2,3.5,6.3,7C253.8,237.6,253.8,237.7,253.9,237.9L253.9,237.9z M247,222.8
	l-21.8-21.1h43.5L247,222.8z M213.3,283.9h-18.4c-2,0-3.7-1.6-3.7-3.6c0-2,1.6-3.6,3.7-3.6h18.4c2,0,3.7,1.6,3.7,3.6
	C217,282.3,215.4,283.9,213.3,283.9z M301.7,280.4c0,2-1.6,3.6-3.7,3.6h-18.4c-2,0-3.7-1.6-3.7-3.6c0-2,1.6-3.6,3.7-3.6h18.4
	C300.1,276.8,301.7,278.4,301.7,280.4z M259.5,230.9c-1.1-2.1-2.8-4-4.9-5.3l24.6-23.9h10.4L259.5,230.9z M349.6,191
	c0,2-1.6,3.6-3.7,3.6H147c-2,0-3.7-1.6-3.7-3.6v-7.1h206.3V191z"/>
    <path class="st2" d="M178.3,126.7h9.2c3,0,5.5-4.8,5.5-10.7c0-5.9-2.5-10.7-5.5-10.7h-9.2c-3,0-5.5,4.8-5.5,10.7
	C172.8,121.9,175.3,126.7,178.3,126.7z M178.3,112.4h9.2c1,0,1.8,1.6,1.8,3.6c0,2-0.8,3.6-1.8,3.6h-9.2c-1,0-1.8-1.6-1.8-3.6
	C176.5,114,177.3,112.4,178.3,112.4z"/>
    <path class="st2" d="M224.4,112.4h3.7c2,0,3.7-1.6,3.7-3.6c0-2-1.6-3.6-3.7-3.6h-3.7c-2,0-3.7,1.6-3.7,3.6
	C220.7,110.8,222.4,112.4,224.4,112.4z"/>
    <path class="st2" d="M224.4,126.7h3.7c2,0,3.7-1.6,3.7-3.6c0-2-1.6-3.6-3.7-3.6h-3.7c-2,0-3.7,1.6-3.7,3.6
	C220.7,125.1,222.4,126.7,224.4,126.7z"/>
    <path class="st2" d="M242.8,126.7h3.7c2,0,3.7-1.6,3.7-3.6c0-2-1.6-3.6-3.7-3.6h-3.7c-2,0-3.7,1.6-3.7,3.6
	C239.1,125.1,240.8,126.7,242.8,126.7z"/>
    <path class="st2" d="M261.2,126.7h3.7c2,0,3.7-1.6,3.7-3.6c0-2-1.6-3.6-3.7-3.6h-3.7c-2,0-3.7,1.6-3.7,3.6
	C257.5,125.1,259.2,126.7,261.2,126.7z"/>
    <path class="st2" d="M298.1,126.7c6.1,0,11-4.8,11-10.7c0-5.9-4.9-10.7-11-10.7c-6.1,0-11.1,4.8-11.1,10.7
	C287,121.9,292,126.7,298.1,126.7z M298.1,112.4c2,0,3.7,1.6,3.7,3.6c0,2-1.6,3.6-3.7,3.6c-2,0-3.7-1.6-3.7-3.6
	C294.4,114,296,112.4,298.1,112.4z"/>
    <g>
	<rect class="st31" height="144" width="500" x="4" y="361"/>
        <text class="st2 st32 st33" transform="matrix(1 0 0 1 119.0562 399.5557)">Synthétiseur</text>
</g>
</svg>
