<svg id="Calque_1" data-name="Calque 1" xmlns="http://www.w3.org/2000/svg" viewBox="0 0 350 300"><defs><style>.cls-1{fill:#8c8c8c;}</style></defs><title>selected</title><path class="cls-1" d="M258,226.51H136.5c-14.64,0-26.5,2.21-26.5,4.93s11.86,4.93,26.5,4.93H258Z"/><path d="M284.65,35.27A10.36,10.36,0,0,1,295,45.62v176A10.36,10.36,0,0,1,284.65,232H245v-.23h39.67a10.13,10.13,0,0,0,10.12-10.12v-176A10.13,10.13,0,0,0,284.65,35.5H53.35A10.13,10.13,0,0,0,43.23,45.62v176a10.13,10.13,0,0,0,10.12,10.12h92.11a.11.11,0,0,1,.12.11.12.12,0,0,1-.12.12H53.35A10.36,10.36,0,0,1,43,221.65v-176A10.36,10.36,0,0,1,53.35,35.27h231.3m0-5H53.35A15.37,15.37,0,0,0,38,45.62v176A15.37,15.37,0,0,0,53.35,237h92.11a5.12,5.12,0,1,0,0-10.23H53.35a5.13,5.13,0,0,1-5.12-5.12v-176a5.12,5.12,0,0,1,5.12-5.12h231.3a5.12,5.12,0,0,1,5.12,5.12v176a5.13,5.13,0,0,1-5.12,5.12H240V237h44.67A15.37,15.37,0,0,0,300,221.65v-176a15.37,15.37,0,0,0-15.35-15.35Z"/><path d="M155.7,68a.11.11,0,0,1,.11.11v65.39h10.12a.12.12,0,0,1,.12.11v40.94a.12.12,0,0,1-.12.12H155.81v24.44a.11.11,0,0,1-.11.12.12.12,0,0,1-.12-.12V174.69H145.46a.12.12,0,0,1-.12-.12V133.63a.12.12,0,0,1,.12-.11h10.12V68.13a.11.11,0,0,1,.12-.11M145.58,174.45h20.23v-40.7H145.58v40.7M155.7,63a5.11,5.11,0,0,0-5.12,5.11v60.39h-5.12a5.11,5.11,0,0,0-5.12,5.11v40.94a5.12,5.12,0,0,0,5.12,5.12h5.12v19.44a5.12,5.12,0,1,0,10.23,0V179.69h5.12a5.12,5.12,0,0,0,5.12-5.12V133.63a5.11,5.11,0,0,0-5.12-5.11h-5.12V68.13A5.11,5.11,0,0,0,155.7,63Zm-5.12,106.43v-30.7h10.23v30.7Z"/><path d="M73.82,68a.12.12,0,0,1,.12.11V92.58H84.05a.12.12,0,0,1,.12.12v40.93a.12.12,0,0,1-.12.12H73.94v65.38a.12.12,0,0,1-.24,0V133.75H63.59a.12.12,0,0,1-.12-.12V92.7a.12.12,0,0,1,.12-.12H73.7V68.13a.12.12,0,0,1,.12-.11M63.7,133.52H83.94V92.81H63.7v40.71M73.82,63a5.11,5.11,0,0,0-5.12,5.11V87.58H63.59a5.12,5.12,0,0,0-5.12,5.12v40.93a5.12,5.12,0,0,0,5.12,5.12H68.7v60.38a5.12,5.12,0,0,0,10.24,0V138.75h5.11a5.12,5.12,0,0,0,5.12-5.12V92.7a5.12,5.12,0,0,0-5.12-5.12H78.94V68.13A5.11,5.11,0,0,0,73.82,63Zm-5.12,65.5V97.81H78.94v30.71Z"/><path d="M114.76,68a.12.12,0,0,1,.12.11v44.92H125a.11.11,0,0,1,.12.11V154.1a.12.12,0,0,1-.12.12H114.88v44.91a.12.12,0,0,1-.12.12.12.12,0,0,1-.12-.12V154.22H104.52a.11.11,0,0,1-.11-.12V113.16a.11.11,0,0,1,.11-.11h10.12V68.13a.11.11,0,0,1,.12-.11m-10.12,86h20.24v-40.7H104.64V154m10.12-91a5.11,5.11,0,0,0-5.12,5.11v39.92h-5.12a5.11,5.11,0,0,0-5.11,5.11V154.1a5.11,5.11,0,0,0,5.11,5.12h5.12v39.91a5.12,5.12,0,1,0,10.24,0V159.22H125a5.12,5.12,0,0,0,5.12-5.12V113.16a5.11,5.11,0,0,0-5.12-5.11h-5.11V68.13A5.12,5.12,0,0,0,114.76,63Zm-5.12,86v-30.7h10.24V149Z"/><path d="M274.41,77.8l.09,0a.26.26,0,0,1,0,.08.18.18,0,0,1,0,.09l-.07,0a.15.15,0,0,1-.08,0,.18.18,0,0,1,0-.09.23.23,0,0,1,0-.09l.07,0m0-5A5.12,5.12,0,1,0,278,74.3a5.15,5.15,0,0,0-3.62-1.5Z"/><path d="M245.08,77.8a.14.14,0,0,1,.12.12l0,.08-.08,0A.14.14,0,0,1,245,78a.15.15,0,0,1,0-.07.16.16,0,0,1,0-.09l.07,0m0-5a5.14,5.14,0,1,0,3.61,1.5,5.16,5.16,0,0,0-3.61-1.5Z"/><path d="M215.73,77.8a.16.16,0,0,1,.1,0,.14.14,0,0,1,0,.07.14.14,0,0,1,0,.09l-.07,0a.15.15,0,0,1-.09,0,.26.26,0,0,1,0-.08.1.1,0,0,1,0-.08s.05,0,.07,0m0-5a5.12,5.12,0,1,0,3.62,1.5,5.15,5.15,0,0,0-3.62-1.5Z"/><path d="M186.4,77.8s.07,0,.08,0a.3.3,0,0,1,0,.08.36.36,0,0,1,0,.09l-.08,0a.14.14,0,0,1-.12-.12.15.15,0,0,1,0-.08.1.1,0,0,1,.08,0m0-5A5.12,5.12,0,1,0,190,74.3a5.16,5.16,0,0,0-3.62-1.5Z"/><path d="M258,113.05a16.53,16.53,0,1,1-16.53,16.52A16.54,16.54,0,0,1,258,113.05m0,32.81a16.29,16.29,0,1,0-16.29-16.29A16.31,16.31,0,0,0,258,145.86m0-37.81a21.53,21.53,0,1,0,21.52,21.52A21.55,21.55,0,0,0,258,108.05Zm0,32.81a11.29,11.29,0,1,1,11.29-11.29A11.3,11.3,0,0,1,258,140.86Z"/><path d="M258,166.2a16.53,16.53,0,1,1-16.53,16.53A16.54,16.54,0,0,1,258,166.2M258,199a16.29,16.29,0,1,0-16.29-16.29A16.31,16.31,0,0,0,258,199m0-37.82a21.53,21.53,0,1,0,21.52,21.53A21.56,21.56,0,0,0,258,161.2ZM258,194a11.29,11.29,0,1,1,11.29-11.29A11.3,11.3,0,0,1,258,194Z"/><path d="M202.81,113.05a16.53,16.53,0,1,1-16.53,16.52,16.54,16.54,0,0,1,16.53-16.52m0,32.81a16.29,16.29,0,1,0-16.29-16.29,16.31,16.31,0,0,0,16.29,16.29m0-37.81a21.53,21.53,0,1,0,21.52,21.52,21.55,21.55,0,0,0-21.52-21.52Zm0,32.81a11.29,11.29,0,1,1,11.29-11.29,11.3,11.3,0,0,1-11.29,11.29Z"/><path d="M202.81,166.2a16.53,16.53,0,1,1-16.53,16.53,16.54,16.54,0,0,1,16.53-16.53m0,32.82a16.29,16.29,0,1,0-16.29-16.29A16.31,16.31,0,0,0,202.81,199m0-37.82a21.53,21.53,0,1,0,21.52,21.53,21.56,21.56,0,0,0-21.52-21.53Zm0,32.82a11.29,11.29,0,1,1,11.29-11.29A11.3,11.3,0,0,1,202.81,194Z"/></svg>