<?xml version="1.0" encoding="utf-8"?>
<!-- Generator: Adobe Illustrator 22.1.0, SVG Export Plug-In . SVG Version: 6.00 Build 0)  -->
<svg style="enable-background:new 0 0 500 500;" id="Calque_1" version="1.1" viewBox="0 0 500 500" x="0px"
     xmlns="http://www.w3.org/2000/svg" y="0px" xml:space="preserve">
<style type="text/css">
	.st0{fill:#EAEAEA;}
	.st1{fill:#8C8C8C;}
	.st2{fill:none;}
	.st3{fill:#6B6B6B;}
	.st4{font-family:'HelveticaNeue-CondensedBold';}
	.st5{font-size:54px;}
	.st6{fill:#FFFFFF;}
	.st7{fill:#EAEAEA;stroke:#8C8C8C;stroke-width:7;stroke-miterlimit:10;}
	.st8{fill:#070707;}
	.st9{fill:none;stroke:#8C8C8C;stroke-width:7;stroke-miterlimit:10;}
	.st10{fill:none;stroke:#8C8C8C;stroke-width:10;stroke-miterlimit:10;}
	.st11{fill:#8C8C8C;stroke:#8C8C8C;stroke-width:3;stroke-miterlimit:10;}
	.st12{fill:none;stroke:#8C8C8C;stroke-width:8;stroke-miterlimit:10;}
	.st13{fill:none;stroke:#8E8E8E;stroke-width:6;stroke-miterlimit:10;}
	.st14{fill:#8E8E8E;}
	.st15{fill:#505050;}
	.st16{fill:none;stroke:#8E8E8E;stroke-width:2;stroke-miterlimit:10;}
	.st17{fill:#8C8C8C;stroke:#8C8C8C;stroke-width:2;stroke-miterlimit:10;}
	.st18{fill:#8C8C8C;stroke:#FFFFFF;stroke-width:2;stroke-miterlimit:10;}
	.st19{fill:none;stroke:#FFFFFF;stroke-width:2;stroke-miterlimit:10;}
	.st20{fill:none;stroke:#8C8C8C;stroke-miterlimit:10;}
	.st21{fill:none;stroke:#8C8C8C;stroke-width:13;stroke-miterlimit:10;}
	.st22{fill:#EAEAEA;stroke:#8C8C8C;stroke-width:8;stroke-miterlimit:10;}
	.st23{fill:none;stroke:#8C8C8C;stroke-width:4;stroke-miterlimit:10;}
	.st24{fill:#8C8C8C;stroke:#8C8C8C;stroke-width:0.75;stroke-miterlimit:10;}
	.st25{fill:none;stroke:#8C8C8C;stroke-width:9;stroke-miterlimit:10;}
	.st26{fill:#8C8C8C;stroke:#8C8C8C;stroke-width:0.5;stroke-miterlimit:10;}
	.st27{stroke:#8C8C8C;stroke-width:8;stroke-miterlimit:10;}
	.st28{fill:#8C8C8C;stroke:#8C8C8C;stroke-miterlimit:10;}
	.st29{fill:none;stroke:#8C8C8C;stroke-width:11;stroke-miterlimit:10;}
	.st30{fill:none;stroke:#8C8C8C;stroke-width:6;stroke-miterlimit:10;}
	.st31{stroke:#8C8C8C;stroke-width:6;stroke-miterlimit:10;}
	.st32{fill:#8C8C8C;stroke:#8C8C8C;stroke-width:4;stroke-miterlimit:10;}
	.st33{fill:#8C8C8C;stroke:#8C8C8C;stroke-width:1.05;stroke-miterlimit:10;}
	.st34{fill:#D6D6D6;}
	.st35{fill:none;stroke:#EAEAEA;stroke-width:5;stroke-miterlimit:10;}
	.st36{fill:#8C8C8C;stroke:#8C8C8C;stroke-width:10;stroke-miterlimit:10;}
	.st37{fill:none;stroke:#CECECE;stroke-width:2;stroke-miterlimit:10;}
	.st38{fill:none;stroke:#FFFFFF;stroke-width:4;stroke-miterlimit:10;}
	.st39{fill-rule:evenodd;clip-rule:evenodd;fill:#8C8C8C;}
	.st40{fill:#8C8C8C;stroke:#8C8C8C;stroke-width:8;stroke-miterlimit:10;}
	.st41{fill:#8C8C8C;stroke:#8C8C8C;stroke-width:7;stroke-miterlimit:10;}
	.st42{fill:#DBDBDB;stroke:#8C8C8C;stroke-width:7;stroke-miterlimit:10;}
	.st43{fill:none;stroke:#8C8C8C;stroke-width:5;stroke-miterlimit:10;}
	.st44{fill:none;stroke:#8C8C8C;stroke-width:3;stroke-miterlimit:10;}
	.st45{clip-path:url(#SVGID_2_);fill:#8C8C8C;}
	.st46{clip-path:url(#SVGID_2_);fill:none;stroke:#8C8C8C;stroke-width:8;stroke-miterlimit:10;}
	.st47{clip-path:url(#SVGID_2_);fill:#FFFFFF;}
	.st48{clip-path:url(#SVGID_2_);fill:#EAEAEA;}
	.st49{clip-path:url(#SVGID_2_);fill:none;stroke:#8C8C8C;stroke-miterlimit:10;}
	.st50{fill:none;stroke:#FFFFFF;stroke-width:0.75;stroke-miterlimit:10;}
	.st51{fill:none;stroke:#8C8C8C;stroke-width:14;stroke-miterlimit:10;}
	.st52{fill:none;stroke:#EAEAEA;stroke-width:2;stroke-miterlimit:10;}
	.st53{fill:none;stroke:#8C8C8C;stroke-width:2;stroke-miterlimit:10;}
</style>
    <rect class="st0" height="500" width="500" y="-1"/>
    <g>
	<rect class="st2" height="144" width="500" y="360"/>
        <text class="st3 st4 st5" transform="matrix(1 0 0 1 97.6685 398.5557)">Table à langer</text>
</g>
    <g>
	<path class="st1" d="M343.6,93v14.5c-3.4-2-7.3-3.1-11.4-3.1H182.9c-4.2,0-8.1,1.1-11.4,3.1V93H160v46.5h11.4V288h11.4v-11.4h149.3
		V288h11.4V139.5H355V93H343.6z M332.1,265.1H182.9v-34.3h149.3V265.1z M332.1,219.4H182.9v-34.3h149.3V219.4z M332.1,173.7h-12.4
		c0.6-1.8,1-3.7,1-5.7c0-9.5-7.7-17.1-17.1-17.1h-23.2c-9.5,0-17.1,7.7-17.1,17.1c0,1.5,0,2.3,0.2,2.9c1.4,3.6,6.9,4.4,9.3,4.7
		c11.8,1.7,46-9.8,44.5-17.9c-1-5.2-16.6-9.8-82.6-6.8h-23.2c-9.5,0-17.1,7.7-17.1,17.1c0,2,0.3,3.9,1,5.7h-12.4v-34.3h149.3V173.7z
		 M343.6,128H171.4v-0.8c0-6.3,5.1-11.4,11.4-11.4h149.3c6.3,0,11.4,5.1,11.4,11.4V128z"/>
        <path class="st1" d="M265.5,202.1c0,3.7-3,6.7-6.7,6.7c-3.7,0-6.7-3-6.7-6.7c0-3.7,3-6.7,6.7-6.7
		C262.5,195.5,265.5,198.4,265.5,202.1"/>
        <path class="st1"
              d="M265.5,249.3c0,3.7-3,6.7-6.7,6.7c-3.7,0-6.7-3-6.7-6.7s3-6.7,6.7-6.7C262.5,242.7,265.5,245.7,265.5,249.3"/>
</g>
</svg>
