<?xml version="1.0" encoding="utf-8"?>
<!-- Generator: Adobe Illustrator 22.1.0, SVG Export Plug-In . SVG Version: 6.00 Build 0)  -->
<svg style="enable-background:new 0 0 500 500;" id="Calque_1" version="1.1" viewBox="0 0 500 500" x="0px"
     xmlns="http://www.w3.org/2000/svg" y="0px" xml:space="preserve">
<style type="text/css">
	.st0{fill:#EAEAEA;}
	.st1{fill:#8C8C8C;}
	.st2{fill:#FFFFFF;}
	.st3{fill:#EAEAEA;stroke:#8C8C8C;stroke-width:7;stroke-miterlimit:10;}
	.st4{fill:#070707;}
	.st5{fill:none;stroke:#8C8C8C;stroke-width:7;stroke-miterlimit:10;}
	.st6{fill:none;stroke:#8C8C8C;stroke-width:10;stroke-miterlimit:10;}
	.st7{fill:#8C8C8C;stroke:#8C8C8C;stroke-width:3;stroke-miterlimit:10;}
	.st8{fill:none;stroke:#8C8C8C;stroke-width:8;stroke-miterlimit:10;}
	.st9{fill:none;stroke:#8E8E8E;stroke-width:6;stroke-miterlimit:10;}
	.st10{fill:#8E8E8E;}
	.st11{fill:#505050;}
	.st12{fill:none;stroke:#8E8E8E;stroke-width:2;stroke-miterlimit:10;}
	.st13{fill:#8C8C8C;stroke:#8C8C8C;stroke-width:2;stroke-miterlimit:10;}
	.st14{fill:#8C8C8C;stroke:#FFFFFF;stroke-width:2;stroke-miterlimit:10;}
	.st15{fill:none;stroke:#FFFFFF;stroke-width:2;stroke-miterlimit:10;}
	.st16{fill:none;stroke:#8C8C8C;stroke-miterlimit:10;}
	.st17{fill:none;stroke:#8C8C8C;stroke-width:13;stroke-miterlimit:10;}
	.st18{fill:#EAEAEA;stroke:#8C8C8C;stroke-width:8;stroke-miterlimit:10;}
	.st19{fill:none;stroke:#8C8C8C;stroke-width:4;stroke-miterlimit:10;}
	.st20{fill:#8C8C8C;stroke:#8C8C8C;stroke-width:0.75;stroke-miterlimit:10;}
	.st21{fill:none;stroke:#8C8C8C;stroke-width:9;stroke-miterlimit:10;}
	.st22{fill:#8C8C8C;stroke:#8C8C8C;stroke-width:0.5;stroke-miterlimit:10;}
	.st23{fill:#6B6B6B;}
	.st24{fill:none;}
	.st25{stroke:#8C8C8C;stroke-width:8;stroke-miterlimit:10;}
	.st26{fill:#8C8C8C;stroke:#8C8C8C;stroke-miterlimit:10;}
	.st27{fill:none;stroke:#8C8C8C;stroke-width:11;stroke-miterlimit:10;}
	.st28{fill:none;stroke:#8C8C8C;stroke-width:6;stroke-miterlimit:10;}
	.st29{font-family:'HelveticaNeue-CondensedBold';}
	.st30{font-size:54px;}
	.st31{stroke:#8C8C8C;stroke-width:6;stroke-miterlimit:10;}
	.st32{fill:#8C8C8C;stroke:#8C8C8C;stroke-width:4;stroke-miterlimit:10;}
	.st33{fill:#8C8C8C;stroke:#8C8C8C;stroke-width:1.05;stroke-miterlimit:10;}
	.st34{fill:#D6D6D6;}
	.st35{fill:none;stroke:#EAEAEA;stroke-width:5;stroke-miterlimit:10;}
	.st36{fill:#8C8C8C;stroke:#8C8C8C;stroke-width:10;stroke-miterlimit:10;}
	.st37{fill:none;stroke:#CECECE;stroke-width:2;stroke-miterlimit:10;}
	.st38{fill:none;stroke:#FFFFFF;stroke-width:4;stroke-miterlimit:10;}
	.st39{fill-rule:evenodd;clip-rule:evenodd;fill:#8C8C8C;}
	.st40{fill:#8C8C8C;stroke:#8C8C8C;stroke-width:8;stroke-miterlimit:10;}
	.st41{fill:#8C8C8C;stroke:#8C8C8C;stroke-width:7;stroke-miterlimit:10;}
	.st42{fill:#DBDBDB;stroke:#8C8C8C;stroke-width:7;stroke-miterlimit:10;}
	.st43{fill:none;stroke:#8C8C8C;stroke-width:5;stroke-miterlimit:10;}
	.st44{fill:none;stroke:#8C8C8C;stroke-width:3;stroke-miterlimit:10;}
	.st45{clip-path:url(#SVGID_2_);fill:#8C8C8C;}
	.st46{clip-path:url(#SVGID_2_);fill:none;stroke:#8C8C8C;stroke-width:8;stroke-miterlimit:10;}
	.st47{clip-path:url(#SVGID_2_);fill:#FFFFFF;}
	.st48{clip-path:url(#SVGID_2_);fill:#EAEAEA;}
	.st49{clip-path:url(#SVGID_2_);fill:none;stroke:#8C8C8C;stroke-miterlimit:10;}
	.st50{fill:none;stroke:#FFFFFF;stroke-width:0.75;stroke-miterlimit:10;}
	.st51{fill:none;stroke:#8C8C8C;stroke-width:14;stroke-miterlimit:10;}
	.st52{fill:none;stroke:#EAEAEA;stroke-width:2;stroke-miterlimit:10;}
	.st53{fill:none;stroke:#8C8C8C;stroke-width:2;stroke-miterlimit:10;}
</style>
    <rect class="st0" height="500" width="500" x="-1" y="1"/>
    <path class="st1" d="M339,287.5H217.5c-14.6,0-26.5,2.2-26.5,4.9c0,2.7,11.9,4.9,26.5,4.9H339V287.5z"/>
    <path class="st1" d="M365.6,91.3H134.4c-8.5,0-15.4,6.9-15.4,15.4v176c0,8.5,6.9,15.4,15.4,15.4h92.1c2.8,0,5.1-2.3,5.1-5.1
	s-2.3-5.1-5.1-5.1h-92.1c-2.8,0-5.1-2.3-5.1-5.1v-176c0-2.8,2.3-5.1,5.1-5.1h231.3c2.8,0,5.1,2.3,5.1,5.1v176c0,2.8-2.3,5.1-5.1,5.1
	H321V298h44.7c8.5,0,15.4-6.9,15.4-15.4v-176C381,98.2,374.1,91.3,365.6,91.3z"/>
    <path class="st1" d="M246.9,240.7c2.8,0,5.1-2.3,5.1-5.1v-40.9c0-2.8-2.3-5.1-5.1-5.1h-5.1v-60.4c0-2.8-2.3-5.1-5.1-5.1
	s-5.1,2.3-5.1,5.1v60.4h-5.1c-2.8,0-5.1,2.3-5.1,5.1v40.9c0,2.8,2.3,5.1,5.1,5.1h5.1v19.4c0,2.8,2.3,5.1,5.1,5.1s5.1-2.3,5.1-5.1
	v-19.4H246.9z M231.6,199.8h10.2v30.7h-10.2V199.8z"/>
    <path class="st1" d="M154.8,265.2c2.8,0,5.1-2.3,5.1-5.1v-60.4h5.1c2.8,0,5.1-2.3,5.1-5.1v-40.9c0-2.8-2.3-5.1-5.1-5.1h-5.1v-19.4
	c0-2.8-2.3-5.1-5.1-5.1s-5.1,2.3-5.1,5.1v19.4h-5.1c-2.8,0-5.1,2.3-5.1,5.1v40.9c0,2.8,2.3,5.1,5.1,5.1h5.1v60.4
	C149.7,263,152,265.2,154.8,265.2z M149.7,158.8h10.2v30.7h-10.2V158.8z"/>
    <path class="st1" d="M195.8,265.2c2.8,0,5.1-2.3,5.1-5.1v-39.9h5.1c2.8,0,5.1-2.3,5.1-5.1v-40.9c0-2.8-2.3-5.1-5.1-5.1h-5.1v-39.9
	c0-2.8-2.3-5.1-5.1-5.1s-5.1,2.3-5.1,5.1V169h-5.1c-2.8,0-5.1,2.3-5.1,5.1v40.9c0,2.8,2.3,5.1,5.1,5.1h5.1v39.9
	C190.6,263,192.9,265.2,195.8,265.2z M190.6,179.3h10.2V210h-10.2V179.3z"/>
    <path class="st1" d="M351.8,142.5c1,1,2.3,1.5,3.6,1.5s2.7-0.5,3.6-1.5c1-1,1.5-2.3,1.5-3.6c0-1.3-0.5-2.7-1.5-3.6
	c-1-1-2.3-1.5-3.6-1.5s-2.7,0.5-3.6,1.5c-1,1-1.5,2.3-1.5,3.6C350.3,140.3,350.8,141.6,351.8,142.5z"/>
    <path class="st1" d="M322.5,142.5c1,1,2.3,1.5,3.6,1.5c1.3,0,2.7-0.5,3.6-1.5c1-1,1.5-2.3,1.5-3.6c0-1.3-0.5-2.7-1.5-3.6
	c-1-1-2.3-1.5-3.6-1.5c-1.4,0-2.7,0.5-3.6,1.5c-1,1-1.5,2.3-1.5,3.6C321,140.3,321.5,141.6,322.5,142.5z"/>
    <path class="st1" d="M293.1,142.5c1,1,2.3,1.5,3.6,1.5c1.3,0,2.7-0.5,3.6-1.5c1-1,1.5-2.3,1.5-3.6c0-1.3-0.5-2.7-1.5-3.6
	c-1-1-2.3-1.5-3.6-1.5c-1.3,0-2.7,0.5-3.6,1.5c-1,1-1.5,2.3-1.5,3.6C291.6,140.3,292.2,141.6,293.1,142.5z"/>
    <path class="st1" d="M263.8,142.5c1,1,2.3,1.5,3.6,1.5s2.7-0.5,3.6-1.5c1-1,1.5-2.3,1.5-3.6c0-1.3-0.5-2.7-1.5-3.6s-2.3-1.5-3.6-1.5
	c-1.4,0-2.7,0.5-3.6,1.5c-1,1-1.5,2.3-1.5,3.6C262.3,140.3,262.8,141.6,263.8,142.5z"/>
    <path class="st1" d="M339,212.1c11.9,0,21.5-9.7,21.5-21.5c0-11.9-9.7-21.5-21.5-21.5c-11.9,0-21.5,9.7-21.5,21.5
	C317.5,202.4,327.1,212.1,339,212.1z M339,179.3c6.2,0,11.3,5.1,11.3,11.3c0,6.2-5.1,11.3-11.3,11.3c-6.2,0-11.3-5.1-11.3-11.3
	C327.7,184.3,332.8,179.3,339,179.3z"/>
    <path class="st1" d="M339,265.2c11.9,0,21.5-9.7,21.5-21.5c0-11.9-9.7-21.5-21.5-21.5c-11.9,0-21.5,9.7-21.5,21.5
	S327.1,265.2,339,265.2z M339,232.4c6.2,0,11.3,5.1,11.3,11.3c0,6.2-5.1,11.3-11.3,11.3c-6.2,0-11.3-5.1-11.3-11.3
	C327.7,237.5,332.8,232.4,339,232.4z"/>
    <path class="st1" d="M283.8,212.1c11.9,0,21.5-9.7,21.5-21.5c0-11.9-9.7-21.5-21.5-21.5s-21.5,9.7-21.5,21.5
	C262.3,202.4,271.9,212.1,283.8,212.1z M283.8,179.3c6.2,0,11.3,5.1,11.3,11.3c0,6.2-5.1,11.3-11.3,11.3c-6.2,0-11.3-5.1-11.3-11.3
	S277.6,179.3,283.8,179.3z"/>
    <path class="st1" d="M283.8,265.2c11.9,0,21.5-9.7,21.5-21.5c0-11.9-9.7-21.5-21.5-21.5c-11.9,0-21.5,9.7-21.5,21.5
	S271.9,265.2,283.8,265.2z M283.8,232.4c6.2,0,11.3,5.1,11.3,11.3c0,6.2-5.1,11.3-11.3,11.3s-11.3-5.1-11.3-11.3
	C272.5,237.5,277.6,232.4,283.8,232.4z"/>
    <g>
	<rect class="st24" height="144" width="500" x="-2" y="363"/>
        <text class="st23 st29 st30" transform="matrix(1 0 0 1 72.2056 401.5557)">Table de mixage</text>
</g>
</svg>
