<svg id="Calque_1" data-name="Calque 1" xmlns="http://www.w3.org/2000/svg" viewBox="0 0 350 300"><title>selected</title><g id="l5ZpQC.tif"><path d="M169.94,103.22H319.07a35,35,0,0,1,4.47.2,7.2,7.2,0,0,1-.68,14.37c-4.75.07-9.42.07-14.19.07h-3.08c-3.7,0-7.64,0-11.59,0a15,15,0,0,0-6,1.24c-29.91,13.55-60.29,27.38-89.68,40.75l-9.12,4.15c-.54.24-1,.5-1.6.79l-.93.48-7.39,3.73,7.52,3.47,3,1.4c2.07,1,4,1.87,6,2.77l34.71,15.78q32.47,14.78,64.95,29.55c2.17,1,3.69,2.38,4.17,3.82a3.33,3.33,0,0,1-.35,2.75,11.39,11.39,0,0,1-2.85,2.59l-1.08.82h-1.65a5.39,5.39,0,0,0-.48-.25l-1.76-.8c-39.69-18-80.74-36.7-121.15-54.95a9,9,0,0,0-3.67-.74,9.28,9.28,0,0,0-3.8.77C126.59,192.46,89.7,209.24,54,225.46L39.65,232H37.59c-5-2.73-4.05-5.43-3.62-6.61.53-1.48,1.68-2.44,4.38-3.66l59.88-27.21,22.1-10.05,17.51-7.95,8.89-4,8-3.63-8-3.65-9.2-4.2L118,152.11l-11.8-5.37c-19.52-8.88-39.71-18.07-59.6-27a22.18,22.18,0,0,0-8.36-1.8c-2.83-.07-5.94-.1-9.78-.1H22.72l-5.74,0h-1.2c-3.38,0-9-.95-9.11-7.17a6.73,6.73,0,0,1,1.8-5c1.58-1.59,4.14-2.44,7.39-2.45l45.28,0h108.8m-3.46,59.1a11.34,11.34,0,0,0,4.51-.94c19-8.55,38.32-17.32,57-25.81l11.74-5.33,6.09-2.78,2.72-1.25,3.08-1.41-.88-3.27-.08-.28,0-.2-.81-3H70l14,7.53,1.09.59c.56.31,1,.56,1.5.78l10.73,4.88c21.5,9.79,43.73,19.91,65.65,29.75a8.62,8.62,0,0,0,3.53.7m3.46-63.1H61.14q-22.65,0-45.28,0c-8.18,0-13.26,4.5-13.19,11.46s5,11.12,13.1,11.14H17c3.84,0,7.67,0,11.5,0,3.23,0,6.45,0,9.68.1A18.09,18.09,0,0,1,45,123.37q35.74,16.08,71.39,32.38l28.7,13.1-26.39,12q-41,18.63-82,37.26c-2.84,1.29-5.35,2.83-6.48,5.93-1.79,4.92.45,9.09,6.42,12h3.89q62-28.2,124-56.33a5.42,5.42,0,0,1,2.15-.41,5.21,5.21,0,0,1,2,.38q61.48,27.78,122.89,55.75a2.94,2.94,0,0,1,.67.61h4.55c2-1.8,4.76-3.23,6-5.48,2.57-4.66.06-9.54-5.66-12.14q-49.83-22.68-99.66-45.33c-2.92-1.32-5.82-2.68-9-4.16,1.05-.53,1.7-.89,2.39-1.2q49.38-22.47,98.79-44.89a11,11,0,0,1,4.36-.89c3.85,0,7.7,0,11.55,0h3.08c4.75,0,9.5,0,14.24-.07a11.2,11.2,0,0,0,1.15-22.33,37.65,37.65,0,0,0-5-.24H169.94Zm-3.46,59.1a4.72,4.72,0,0,1-1.89-.35q-38.24-17.17-76.36-34.62c-.57-.26-1.11-.59-2.35-1.26H246.73c0,.17.08.33.13.49l-8.81,4q-34.34,15.61-68.7,31.14a7.39,7.39,0,0,1-2.87.59Z"/></g><path d="M282.5,67c21.93,0,39.24,12.91,42.77,20.14a3.72,3.72,0,0,1,.59,2.36c-.39.35-2.25,1.41-10.74,2-7,.46-17.23.51-30.15.57q-7.53,0-13.84,0c-8.72,0-17.62-.08-23.7-.65-6.93-.66-8.16-1.78-8.26-1.89s-.15-1,.56-2.44c1.61-3.27,6.31-8.38,14.68-12.9A60.13,60.13,0,0,1,282.5,67m0-4c-29.19,0-52.31,21.46-46.5,29,2.75,3.55,13.82,4.09,35.13,4.09q6.33,0,13.87,0c27.33-.13,41-.19,44-4,5.79-7.44-17.26-29-46.5-29Z"/></svg>