<svg id="Calque_1" data-name="Calque 1" xmlns="http://www.w3.org/2000/svg" viewBox="0 0 350 300"><defs><style>.cls-1{fill:none;stroke:#000;stroke-miterlimit:10;stroke-width:5px;}.cls-2{fill:#8c8c8c;}</style></defs><title>selected</title><g id="surface1"><path class="cls-1" d="M278.31,41.84,266.88,54.27c-1.88,2-3.21,5-3,6.62s2,1.26,3.83-.78l1.67-1.81.27,1.79c.24,1.61,2,1.26,3.84-.78a13.35,13.35,0,0,0,2.28-3.47,6.27,6.27,0,0,0,.68-3.15l-.27-1.78"/><path class="cls-1" d="M269,52,253,69.39a23,23,0,0,0-.88,2.16,10.27,10.27,0,0,0-.68,3.15c.24,1.61,2,1.26,3.84-.78L257,72.11l.27,1.79c.25,1.61,2,1.26,3.84-.78a13.46,13.46,0,0,0,2.28-3.46,13.39,13.39,0,0,0,.69-3.15,11.84,11.84,0,0,1,.42-2.26c.4-1.13,1.74-3.11,6-6.86"/><path d="M122.94,129.57a27.68,27.68,0,0,0-15.69,4.72L84.93,149.63a8.6,8.6,0,0,0-1.58,13.15L93,173.55a8.73,8.73,0,0,1-1.61,13.35,11.33,11.33,0,0,1-6.43,1.94,12.54,12.54,0,0,1-1.49-.09,11.49,11.49,0,0,1-7.25-3.68l-2.62-2.93a7,7,0,0,0-5.16-2.23,6.63,6.63,0,0,0-1,.07,6,6,0,0,0-4.91,3.71l-7,19.32a14.82,14.82,0,0,1-5.62,7.12c-11.27,7.74-13,22.32-3.91,32.51l20.23,22.63a28.61,28.61,0,0,0,21.26,9.16,27.71,27.71,0,0,0,15.7-4.72l6.88-4.72a7.07,7.07,0,0,0,1.22-.68l69.44-47.87a21.24,21.24,0,0,0,3.91-32.51l-6.12-6.84-5.63-6.3-17.75-19.85-5.63-6.3-5.29-5.91a28.59,28.59,0,0,0-21.26-9.16ZM85.23,196.75A20.72,20.72,0,0,0,97,193.19a15.78,15.78,0,0,0,6.06-19.52,17.49,17.49,0,0,0-3.12-4.9L90.31,158a1.36,1.36,0,0,1,.25-2.08l22.31-15.33a18.31,18.31,0,0,1,10.35-3.11,18.81,18.81,0,0,1,14,6l40.43,45.19a14,14,0,0,1-2.58,21.44l-69.15,47.36a7.27,7.27,0,0,0-.94.79l-7.45,5.11a18.25,18.25,0,0,1-10.35,3.12,18.85,18.85,0,0,1-14-6L52.94,237.86a14,14,0,0,1,2.57-21.43A22.37,22.37,0,0,0,64,205.63l5.57-15.36a21.2,21.2,0,0,0,12.9,6.32,22.68,22.68,0,0,0,2.72.16Z"/><path d="M304.23-3.47h.07a5.45,5.45,0,0,1,.25,1.08A7.28,7.28,0,0,0,303-3.28a4.43,4.43,0,0,1,1.21-.19m0-5c-3.11,0-7.26,1.91-10.73,5.79l-.31-2.09c-.11-.68-.47-1-1-1A4.63,4.63,0,0,0,289.35-4c-1.88,2-3.21,5-3,6.61l.27,1.79-5.19,5.64-.27-1.79c-.1-.68-.47-1-1-1A4.65,4.65,0,0,0,277.35,9c-1.88,2-3.2,5-3,6.61l.27,1.79-5.19,5.64-.27-1.79c-.1-.68-.47-1-1-1a4.64,4.64,0,0,0-2.84,1.79c-1.88,2-3.2,5-3,6.61l.27,1.79-5.2,5.65-.26-1.79c-.11-.69-.47-1-1-1a4.65,4.65,0,0,0-2.83,1.79c-1.88,2-3.21,5-3,6.62l.27,1.79-5.2,5.64-.27-1.79c-.1-.68-.47-1-1-1a4.65,4.65,0,0,0-2.84,1.79c-1.88,2-3.2,5-3,6.61l.27,1.79-5.19,5.64-.27-1.79c-.1-.68-.47-1-1-1a4.6,4.6,0,0,0-2.84,1.79c-1.88,2-3.2,5-3,6.61l.27,1.79-5.19,5.64-.27-1.79c-.1-.68-.47-1-1-1a4.6,4.6,0,0,0-2.84,1.79c-1.88,2-3.21,5-3,6.61l.27,1.79-5.2,5.65-.26-1.79c-.11-.69-.47-1-1-1a4.67,4.67,0,0,0-2.84,1.8c-1.87,2-3.2,5-3,6.61l.27,1.79-5.19,5.64-.27-1.79c-.1-.68-.47-1-1-1a4.65,4.65,0,0,0-2.84,1.8c-1.88,2-3.2,5-3,6.61l.27,1.79-5.19,5.64-.27-1.79c-.1-.68-.47-1-1-1a4.6,4.6,0,0,0-2.84,1.79c-1.88,2-3.21,5-3,6.61l.27,1.79-5.19,5.64-.27-1.79c-.11-.68-.47-1-1-1a4.6,4.6,0,0,0-2.83,1.79c-1.88,2-3.21,5-3,6.62l.27,1.78-5.19,5.64-.27-1.78c-.1-.69-.47-1-1-1a4.69,4.69,0,0,0-2.84,1.79c-1.88,2-3.2,5-3,6.62.06.79.11,1.58.16,2.37l-1.9,2a30.93,30.93,0,0,1,.77,5.57L290.8,6.69c2.86-3.1,5.59-4.95,7.75-5.47l.29,0a2,2,0,0,0,.27-.08,4.68,4.68,0,0,1,.64,0c1.67,0,2.82,1,3.15,3.14a0,0,0,0,0,0,0v0a11.67,11.67,0,0,1-.18,3.84,26.62,26.62,0,0,1-1.68,5.32c-.1.2-.19.39-.28.59s-.17.41-.25.61a42.12,42.12,0,0,1-6.94,10.44l-17.49,19L274,53.15l5.19-5.64.27,1.79c.1.68.47,1,1,1a4.6,4.6,0,0,0,2.84-1.79,13.06,13.06,0,0,0,2.27-3.47,6.16,6.16,0,0,0,.69-3.14L286,40.12l5.19-5.64.27,1.79c.1.68.47,1,1,1a4.6,4.6,0,0,0,2.84-1.79A13.35,13.35,0,0,0,297.57,32a6.26,6.26,0,0,0,.68-3.14l-.31-2.1a70,70,0,0,0,5.95-9.12l2-.41c1.5-.3,3.65-2.64,4.81-5.22,1.07-2.4.91-4.16-.32-4.16l-.3,0-2,.41A19.67,19.67,0,0,0,309.26,4c.2-1.19,1.49-9.11-2-11.6a5.21,5.21,0,0,0-3.06-.86Z"/><path d="M253.82,69.58A4.6,4.6,0,0,0,251,71.37l-88.8,96.5c1.31,1.85,2.67,3.67,4.11,5.42a3.87,3.87,0,0,0,0-1.06l-.27-1.78,5.19-5.65.27,1.79c.1.68.47,1,1,1a4.62,4.62,0,0,0,2.84-1.8,13.46,13.46,0,0,0,2.28-3.46,6.27,6.27,0,0,0,.68-3.15l-.27-1.79,5.19-5.64.27,1.79c.1.68.47,1,1,1a4.6,4.6,0,0,0,2.84-1.79,13.46,13.46,0,0,0,2.28-3.46,6.27,6.27,0,0,0,.68-3.15l-.27-1.79,5.19-5.64.28,1.79c.1.68.47,1,1,1a4.6,4.6,0,0,0,2.83-1.79,13.1,13.1,0,0,0,2.28-3.47,6.16,6.16,0,0,0,.69-3.14l-.27-1.79,5.19-5.64.27,1.78c.1.69.47,1,1,1a4.64,4.64,0,0,0,2.84-1.79,13.06,13.06,0,0,0,2.27-3.47,6.19,6.19,0,0,0,.69-3.15l-.27-1.79,5.19-5.64.27,1.79c.1.68.47,1,1,1a4.64,4.64,0,0,0,2.84-1.79,13.69,13.69,0,0,0,2.28-3.47,6.27,6.27,0,0,0,.68-3.15l-.26-1.79,5.18-5.64.27,1.79c.11.68.47,1,1,1a4.6,4.6,0,0,0,2.83-1.79,13.1,13.1,0,0,0,2.28-3.47,6.16,6.16,0,0,0,.69-3.14L238,92.25l5.19-5.64.27,1.79c.1.68.47,1,1,1a4.65,4.65,0,0,0,2.84-1.79,13.06,13.06,0,0,0,2.27-3.47,6.19,6.19,0,0,0,.69-3.15L250,79.22l1.85-2c1.88-2,3.21-5,3-6.61-.1-.68-.47-1-1-1Z"/><path d="M146.42,172.39a16,16,0,0,0-9.07,2.73,12.29,12.29,0,0,0-2.26,18.79,16.51,16.51,0,0,0,12.29,5.29,16.07,16.07,0,0,0,9.07-2.72,12.29,12.29,0,0,0,2.26-18.8,16.55,16.55,0,0,0-12.29-5.29Zm.68,18.91a6.81,6.81,0,0,1-5-2.17,5.07,5.07,0,0,1,.93-7.72,6.69,6.69,0,0,1,3.72-1.12,6.76,6.76,0,0,1,5,2.18,5,5,0,0,1-.92,7.71,6.61,6.61,0,0,1-3.72,1.12Z"/><path d="M76.72,220.25A16,16,0,0,0,67.66,223a12.27,12.27,0,0,0-2.25,18.79,16.5,16.5,0,0,0,12.28,5.29,16,16,0,0,0,9.07-2.73A12.26,12.26,0,0,0,89,225.55a16.18,16.18,0,0,0-10.21-5.17,18.46,18.46,0,0,0-2.09-.13Zm.69,18.92a6.78,6.78,0,0,1-5-2.17,5,5,0,0,1,.93-7.71A6.5,6.5,0,0,1,77,228.16a8.27,8.27,0,0,1,.86.05,6.64,6.64,0,0,1,4.19,2.13,5,5,0,0,1-.93,7.71,6.56,6.56,0,0,1-3.72,1.12Z"/><path d="M69.71,160.84a4,4,0,0,1,3,1.24l12.63,14.11a1.77,1.77,0,0,1-.35,2.86,3.8,3.8,0,0,1-2.15.62,4.08,4.08,0,0,1-3-1.24L67.21,164.31a1.77,1.77,0,0,1,.35-2.86,3.88,3.88,0,0,1,2.15-.61m0-5a8.75,8.75,0,0,0-5,1.49,6.75,6.75,0,0,0-1.24,10.32l12.62,14.11a9.09,9.09,0,0,0,6.74,2.91,8.76,8.76,0,0,0,5-1.5,6.74,6.74,0,0,0,1.24-10.32L76.45,158.74a9.08,9.08,0,0,0-6.74-2.9Z"/></g><path d="M112.46,211c-1.16,0-2.82,1.61-2.27,2.31,1.41,1.81,3.42,3.13,4.81,5s2.55,3.9,3.86,5.82c2.6,3.84,7.64,6.18,8.52,11.21a.75.75,0,0,0,.84.62c1.31,0,3.66-1.67,3.42-3-1-5.33-6.09-7.77-8.86-11.82-1.44-2.11-2.7-4.35-4.31-6.34-1.36-1.68-3-3.67-6-3.77Z"/><path d="M118.28,206.4c-1.15,0-2.81,1.61-2.26,2.32,1.4,1.8,3.42,3.12,4.81,4.95s2.55,3.9,3.86,5.83c2.6,3.84,7.63,6.17,8.52,11.2a.75.75,0,0,0,.83.63c1.32,0,3.66-1.68,3.43-3-1-5.32-6.09-7.77-8.86-11.81-1.44-2.11-2.71-4.36-4.31-6.34-1.36-1.69-3-3.68-6-3.78Z"/><path class="cls-2" d="M125.81,237.48c-1-5.32-6.09-7.77-8.85-11.81-1.45-2.11-2.71-4.35-4.32-6.34-1.36-1.68-3-3.67-6-3.77-1.16,0-2.86,1.6-2.31,2.31,1.41,1.81,3.42,3.12,4.81,5s2.56,3.89,3.86,5.82c2.6,3.84,7.64,6.17,8.53,11.21C121.87,241.63,126.13,239.24,125.81,237.48Z"/><path d="M160.82,143.19a4,4,0,0,0-2.62,1l-.2.17a4,4,0,0,0-.39,5.65l9.64,11.1a4,4,0,0,0,5.64.4l.2-.18a4,4,0,0,0,.4-5.64l-9.64-11.1a4,4,0,0,0-3-1.37Z"/><path d="M171.91,128.06a4,4,0,0,0-2.62,1l-.2.17a4,4,0,0,0-.4,5.65l9.64,11.1a4,4,0,0,0,3,1.37,4,4,0,0,0,2.62-1l.2-.17a4,4,0,0,0,.39-5.64l-9.64-11.1a4,4,0,0,0-3-1.38Z"/><path d="M184.16,116.11a4,4,0,0,0-2.61,1l-.2.18a4,4,0,0,0-.4,5.64l9.64,11.1a4,4,0,0,0,5.65.4l.2-.17a4,4,0,0,0,.39-5.65l-9.64-11.1a4,4,0,0,0-3-1.37Z"/><path d="M197.77,104.56a4,4,0,0,0-2.62,1l-.2.17a4,4,0,0,0-.4,5.64l9.65,11.1a4,4,0,0,0,5.64.4l.2-.17a4,4,0,0,0,.4-5.64l-9.65-11.11a4,4,0,0,0-3-1.37Z"/><path d="M208.85,89.44a4,4,0,0,0-2.62,1l-.19.17a4,4,0,0,0-.4,5.64l9.64,11.1a4,4,0,0,0,5.65.4l.19-.17a4,4,0,0,0,.4-5.65l-9.64-11.1a4,4,0,0,0-3-1.37Z"/><path d="M221.11,77.48a4,4,0,0,0-2.62,1l-.2.17a4,4,0,0,0-.39,5.65l9.64,11.1a4,4,0,0,0,3,1.37,3.93,3.93,0,0,0,2.61-1l.2-.17a4,4,0,0,0,.4-5.64l-9.64-11.1a4,4,0,0,0-3-1.38Z"/><path d="M233.37,64.15a4,4,0,0,0-2.62,1l-.2.17a4,4,0,0,0-.4,5.65l9.65,11.1a4,4,0,0,0,3,1.37,4,4,0,0,0,2.62-1l.2-.17a4,4,0,0,0,.4-5.64l-9.65-11.1a4,4,0,0,0-3-1.38Z"/><path d="M245.35,49.48a4,4,0,0,0-2.62,1l-.2.17a4,4,0,0,0-.4,5.65l9.65,11.1a4,4,0,0,0,5.64.4l.2-.18A4,4,0,0,0,258,62l-9.65-11.1a4,4,0,0,0-3-1.37Z"/><path d="M256.71,37.08a4,4,0,0,0-2.62,1l-.2.18a4,4,0,0,0-.39,5.64L263.14,55a4,4,0,0,0,5.64.4l.2-.18a4,4,0,0,0,.4-5.64l-9.64-11.1a4,4,0,0,0-3-1.37Z"/><path d="M258.31,40.79a4,4,0,0,0-2.62,1l-.2.18a4,4,0,0,0-.4,5.64l9.65,11.1a4,4,0,0,0,5.64.4l.2-.17a4,4,0,0,0,.4-5.65l-9.65-11.1a4,4,0,0,0-3-1.37Z"/><path d="M269.39,25.67a4,4,0,0,0-2.62,1l-.2.18a4,4,0,0,0-.39,5.64l9.64,11.1a4,4,0,0,0,5.64.4l.2-.18a4,4,0,0,0,.4-5.64L272.42,27a4,4,0,0,0-3-1.37Z"/><path d="M281.65,13.71a4,4,0,0,0-2.62,1l-.2.17a4,4,0,0,0-.39,5.64l9.64,11.1a4,4,0,0,0,3,1.38,3.94,3.94,0,0,0,2.62-1l.2-.17a4,4,0,0,0,.4-5.65l-9.64-11.1a4,4,0,0,0-3-1.37Z"/></svg>