<svg id="Calque_1" data-name="Calque 1" xmlns="http://www.w3.org/2000/svg" viewBox="0 0 350 300"><defs><style>.cls-1{fill:none;stroke:#000;stroke-miterlimit:10;stroke-width:5px;}</style></defs><title>selected</title><polygon points="78.48 120.48 74.38 122.67 96.6 164.43 100.7 162.24 78.48 120.48 78.48 120.48"/><polygon points="78.48 120.48 74.38 122.67 96.6 164.43 100.7 162.24 78.48 120.48 78.48 120.48"/><path class="cls-1" d="M145.1,115a195.21,195.21,0,0,1,29.82-7.14C251.69,95.7,321,130.53,329.73,185.66a74.07,74.07,0,0,1,.44,19.88"/><path class="cls-1" d="M145.1,115a195.21,195.21,0,0,1,29.82-7.14C251.69,95.7,321,130.53,329.73,185.66a74.07,74.07,0,0,1,.44,19.88"/><path class="cls-1" d="M162,157.75a144.07,144.07,0,0,1,22-5.26c56.62-9,107.75,16.73,114.19,57.39a55,55,0,0,1,.32,14.66"/><path class="cls-1" d="M162,157.75a144.07,144.07,0,0,1,22-5.26c56.62-9,107.75,16.73,114.19,57.39a55,55,0,0,1,.32,14.66"/><path class="cls-1" d="M193.08,192.59a63.22,63.22,0,0,1,9.49-2.28c24.43-3.86,46.49,7.22,49.26,24.76a23.18,23.18,0,0,1,.14,6.33"/><path class="cls-1" d="M193.08,192.59a63.22,63.22,0,0,1,9.49-2.28c24.43-3.86,46.49,7.22,49.26,24.76a23.18,23.18,0,0,1,.14,6.33"/><path class="cls-1" d="M250.88,281.14a92.51,92.51,0,0,1,8.82-11.63c24.62-27.64,60.67-35.72,80.52-18a35.34,35.34,0,0,1,6.16,7.19"/><path class="cls-1" d="M250.88,281.14a92.51,92.51,0,0,1,8.82-11.63c24.62-27.64,60.67-35.72,80.52-18a35.34,35.34,0,0,1,6.16,7.19"/><path class="cls-1" d="M282.59,284.25a39.32,39.32,0,0,1,3.69-4.85c10.29-11.56,25.36-14.94,33.65-7.55a15.07,15.07,0,0,1,2.58,3"/><path class="cls-1" d="M282.59,284.25a39.32,39.32,0,0,1,3.69-4.85c10.29-11.56,25.36-14.94,33.65-7.55a15.07,15.07,0,0,1,2.58,3"/><path d="M87.05,48.6l82.08,154.54L87.65,246.42,5.56,91.88,87.05,48.6m2.07-6.77-90.32,48L85.58,253.18l90.32-48L89.12,41.83Z"/></svg>