<?xml version="1.0" encoding="utf-8"?>
<!-- Generator: Adobe Illustrator 22.1.0, SVG Export Plug-In . SVG Version: 6.00 Build 0)  -->
<svg style="enable-background:new 0 0 500 500;" id="Calque_1" version="1.1" viewBox="0 0 500 500" x="0px"
     xmlns="http://www.w3.org/2000/svg" y="0px" xml:space="preserve">
<style type="text/css">
	.st0{fill:#EAEAEA;}
	.st1{fill:#8C8C8C;}
	.st2{fill:#FFFFFF;}
	.st3{fill:#EAEAEA;stroke:#8C8C8C;stroke-width:7;stroke-miterlimit:10;}
	.st4{fill:#070707;}
	.st5{fill:none;stroke:#8C8C8C;stroke-width:7;stroke-miterlimit:10;}
	.st6{fill:none;stroke:#8C8C8C;stroke-width:10;stroke-miterlimit:10;}
	.st7{fill:#8C8C8C;stroke:#8C8C8C;stroke-width:3;stroke-miterlimit:10;}
	.st8{fill:none;stroke:#8C8C8C;stroke-width:8;stroke-miterlimit:10;}
	.st9{fill:none;stroke:#8E8E8E;stroke-width:6;stroke-miterlimit:10;}
	.st10{fill:#8E8E8E;}
	.st11{fill:#505050;}
	.st12{fill:none;stroke:#8E8E8E;stroke-width:2;stroke-miterlimit:10;}
	.st13{fill:#8C8C8C;stroke:#8C8C8C;stroke-width:2;stroke-miterlimit:10;}
	.st14{fill:#8C8C8C;stroke:#FFFFFF;stroke-width:2;stroke-miterlimit:10;}
	.st15{fill:none;stroke:#FFFFFF;stroke-width:2;stroke-miterlimit:10;}
	.st16{fill:none;stroke:#8C8C8C;stroke-miterlimit:10;}
	.st17{fill:none;stroke:#8C8C8C;stroke-width:13;stroke-miterlimit:10;}
	.st18{fill:#EAEAEA;stroke:#8C8C8C;stroke-width:8;stroke-miterlimit:10;}
	.st19{fill:none;stroke:#8C8C8C;stroke-width:4;stroke-miterlimit:10;}
	.st20{fill:#8C8C8C;stroke:#8C8C8C;stroke-width:0.75;stroke-miterlimit:10;}
	.st21{fill:none;stroke:#8C8C8C;stroke-width:9;stroke-miterlimit:10;}
	.st22{fill:#8C8C8C;stroke:#8C8C8C;stroke-width:0.5;stroke-miterlimit:10;}
	.st23{fill:#6B6B6B;}
	.st24{fill:none;}
	.st25{stroke:#8C8C8C;stroke-width:8;stroke-miterlimit:10;}
	.st26{fill:#8C8C8C;stroke:#8C8C8C;stroke-miterlimit:10;}
	.st27{fill:none;stroke:#8C8C8C;stroke-width:11;stroke-miterlimit:10;}
	.st28{fill:none;stroke:#8C8C8C;stroke-width:6;stroke-miterlimit:10;}
	.st29{stroke:#8C8C8C;stroke-width:6;stroke-miterlimit:10;}
	.st30{fill:#8C8C8C;stroke:#8C8C8C;stroke-width:4;stroke-miterlimit:10;}
	.st31{fill:#8C8C8C;stroke:#8C8C8C;stroke-width:1.05;stroke-miterlimit:10;}
	.st32{fill:#D6D6D6;}
	.st33{fill:none;stroke:#EAEAEA;stroke-width:5;stroke-miterlimit:10;}
	.st34{fill:#8C8C8C;stroke:#8C8C8C;stroke-width:10;stroke-miterlimit:10;}
	.st35{fill:none;stroke:#CECECE;stroke-width:2;stroke-miterlimit:10;}
	.st36{font-family:'HelveticaNeue-CondensedBold';}
	.st37{font-size:54px;}
	.st38{fill:none;stroke:#FFFFFF;stroke-width:4;stroke-miterlimit:10;}
	.st39{fill-rule:evenodd;clip-rule:evenodd;fill:#8C8C8C;}
	.st40{fill:#8C8C8C;stroke:#8C8C8C;stroke-width:8;stroke-miterlimit:10;}
	.st41{fill:#8C8C8C;stroke:#8C8C8C;stroke-width:7;stroke-miterlimit:10;}
	.st42{fill:#DBDBDB;stroke:#8C8C8C;stroke-width:7;stroke-miterlimit:10;}
	.st43{fill:none;stroke:#8C8C8C;stroke-width:5;stroke-miterlimit:10;}
	.st44{fill:none;stroke:#8C8C8C;stroke-width:3;stroke-miterlimit:10;}
	.st45{clip-path:url(#SVGID_2_);fill:#8C8C8C;}
	.st46{clip-path:url(#SVGID_2_);fill:none;stroke:#8C8C8C;stroke-width:8;stroke-miterlimit:10;}
	.st47{clip-path:url(#SVGID_2_);fill:#FFFFFF;}
	.st48{clip-path:url(#SVGID_2_);fill:#EAEAEA;}
	.st49{clip-path:url(#SVGID_2_);fill:none;stroke:#8C8C8C;stroke-miterlimit:10;}
	.st50{fill:none;stroke:#FFFFFF;stroke-width:0.75;stroke-miterlimit:10;}
	.st51{fill:none;stroke:#8C8C8C;stroke-width:14;stroke-miterlimit:10;}
	.st52{fill:none;stroke:#EAEAEA;stroke-width:2;stroke-miterlimit:10;}
	.st53{fill:none;stroke:#8C8C8C;stroke-width:2;stroke-miterlimit:10;}
</style>
    <rect class="st0" height="500" width="500" y="2"/>
    <g>
	<g>
		<g id="Icons_15_">
			<g>
				<path class="st1"
                      d="M231.6,191.5l30.6,41.7l30.6-41.6c-9.8,1.2-20.1,1.8-30.4,1.8C251.9,193.4,241.5,192.7,231.6,191.5z"/>
                <path class="st1" d="M342,217v-39.3c-7.6,4.4-17.5,7.9-28.8,10.5L342,217z"/>
                <path class="st1" d="M304.6,200.8l-31.9,43.5c29.8-1.2,51.4-7.4,62-13.4L304.6,200.8z"/>
                <path class="st1" d="M189.8,230.9c10.5,6,32,12.1,61.7,13.3L219.8,201L189.8,230.9z"/>
                <path class="st1" d="M262.3,253.6c-30.9,0-61.9-5.4-79.7-15.7v4.3c2.6,13.7,37.4,24.5,79.7,24.5c42.4,0,77.2-10.8,79.7-24.5
					v-4.3C324.2,248.2,293.2,253.6,262.3,253.6z"/>
                <path class="st1" d="M182.6,216.9l28.8-28.8c-11.3-2.6-21.2-6.1-28.8-10.5L182.6,216.9z"/>
                <path class="st1" d="M305.4,129.2c-0.2,1.9-0.7,3.7-1.4,5.4c20.4,4.3,32.3,11.2,32.3,16.5c0,8.3-28.9,20.5-74.1,20.5
					c-45.2,0-74.1-12.1-74.1-20.5c0-3.5,5.1-7.6,14.2-11.2l-7.4-2.7c-6.3,3.3-11,7-12.4,11.1v14c0,7.4,30.3,21.1,79.7,21.1
					c49.5,0,79.7-13.6,79.7-21.1v-14C339.3,140.3,325,133.4,305.4,129.2z"/>
                <path class="st1" d="M273.8,121.4c-0.4,3.9,1.2,7.9,4.5,10.6c2.2,1.8,4.9,2.6,7.5,2.6c3.6,0,7.1-1.6,9.5-4.6
					c4.1-5.2,3.3-12.8-1.9-17c-2.2-1.8-4.9-2.6-7.5-2.6c-1.3,0-2.6,0.2-3.9,0.6l-76.4-60.7c-1.2-1-2.7-1.4-4.1-1.4
					c-1.9,0-3.9,0.9-5.2,2.5c-2.3,2.9-1.8,7,1.1,9.3L273.8,121.4z"/>
                <path class="st1" d="M247.5,150.9c1.7,0.6,3.5,0.9,5.2,0.9c6.1,0,11.9-3.8,14.2-9.9c2.9-7.8-1.1-16.5-9-19.4
					c-1.7-0.6-3.5-0.9-5.2-0.9c-3.3,0-6.4,1.1-9,3L129.1,82.3c-1-0.4-1.9-0.5-2.9-0.5c-3.3,0-6.5,2.1-7.7,5.4
					c-1.6,4.3,0.6,9,4.9,10.6L238,140.1C239.1,144.9,242.5,149.1,247.5,150.9z"/>
			</g>
		</g>
	</g>
</g>
    <g>
	<rect class="st24" height="144" width="500" x="2" y="363"/>
        <text class="st23 st36 st37" transform="matrix(1 0 0 1 156.6367 401.5557)">Tambour</text>
</g>
</svg>
