<svg id="Calque_1" data-name="Calque 1" xmlns="http://www.w3.org/2000/svg" viewBox="0 0 350 300"><defs><style>.cls-1{stroke:#fff;stroke-miterlimit:10;}</style></defs><title>selected</title><path class="cls-1" d="M96.09,208.22a4,4,0,0,0,1.32.21,4.19,4.19,0,0,0,4-2.86L111,176.66c4.89,11,11.23,18.74,19.37,20.49v18a4.19,4.19,0,0,0,8.37,0V196.81c7.54-2.31,13.66-9.93,18.58-20.47l9.75,29.23a4.17,4.17,0,0,0,4,2.87,4.4,4.4,0,0,0,1.33-.21,4.2,4.2,0,0,0,2.64-5.3l-12.83-38.5c3.15-1.89,5.1-4.25,5.1-7.18a6.81,6.81,0,0,0-1.83-4.51,265.89,265.89,0,0,0,5.24-26.47,360.38,360.38,0,0,0,7.53,51.25,7.76,7.76,0,0,0-1.81,4.81c0,3.13,1.94,5.71,5.15,7.78L166.84,234.3a4.76,4.76,0,0,0,3,6,4.66,4.66,0,0,0,1.5.24,4.77,4.77,0,0,0,4.52-3.25l11-32.9c5.57,12.49,12.78,21.33,22,23.32v20.51a4.77,4.77,0,0,0,9.53,0V227.33c8.57-2.62,15.54-11.29,21.13-23.28l11.09,33.26a4.76,4.76,0,0,0,4.52,3.25,4.61,4.61,0,0,0,1.5-.24,4.75,4.75,0,0,0,3-6l-14.6-43.81c3.58-2.13,5.8-4.83,5.8-8.16a7.84,7.84,0,0,0-2.08-5.14c9.65-46.71,10.53-71,10.18-83-.17-5.74-.62-21.05-4-21.52-1.18-.17-2.41,1.53-3.26,3,.63,7.8.83,14.2.91,18.53a298.33,298.33,0,0,1-10.39,83.49c-.8,3-1.63,5.76-2.48,8.45-4.29,1.89-11.46,3.71-21.41,4.15a4.75,4.75,0,0,0-9.36,0c-10.39-.46-17.76-2.42-22-4.4a439,439,0,0,1-11.35-91.69c-.11-6.27-.07-12.43.08-18.45l-1.42-.87c.41.28.88.57,1.42.87a41.16,41.16,0,0,0,7.18,2.94V90.79a9.09,9.09,0,0,0-3,7.11c0,4.66,2.7,8.31,6.14,8.31s6.13-3.65,6.13-8.31a9.12,9.12,0,0,0-3-7.11V80.29a113.06,113.06,0,0,0,21.22,2.32v14h6.34v-14A109.6,109.6,0,0,0,240,79.83v11a9.11,9.11,0,0,0-2.95,7.11c0,4.67,2.69,8.31,6.12,8.31s6.14-3.65,6.14-8.31a9.07,9.07,0,0,0-3-7.11V78a26.87,26.87,0,0,0,5.34-2.34c1.87-1.09,3.26-1.91,3.26-3,0-1.31-1.95-2.31-2.61-2.64-17.51-8.85-38.71-7.39-38.71-7.39-21.64,0-35,4.74-39.56,8a10,10,0,0,0-.37-5.83,9.76,9.76,0,0,0-2.81-3.93c-4.19-.24-6.35-.07-6.46.5s1.1,1.17,3.59,2.14c.55,6.85.73,12.48.8,16.29a262.85,262.85,0,0,1-9.14,73.38c-.7,2.61-1.43,5.06-2.18,7.43-3.77,1.66-10.07,3.26-18.82,3.65a4.17,4.17,0,0,0-8.22,0c-9.14-.41-15.62-2.14-19.32-3.88a384.16,384.16,0,0,1-10-80.59q-.14-8.26.07-16.21a2.09,2.09,0,0,0,.3-2.06,2.38,2.38,0,0,0-3.29-.64A187.54,187.54,0,0,0,95.6,79.74,193.7,193.7,0,0,0,103.46,153a6.8,6.8,0,0,0-1.59,4.23c0,2.75,1.7,5,4.52,6.84l-13,38.84a4.19,4.19,0,0,0,2.65,5.29M218.4,196.58a84.65,84.65,0,0,0,17.81-2.53l.35,1.06c-5.34,13.63-11.53,22.32-18.16,25.43Zm-28-2.75a82.22,82.22,0,0,0,18.51,2.75v24.58c-7.67-2.56-14-12.33-18.93-26.08Zm-51.61-24.05a74.32,74.32,0,0,0,15.65-2.23l.31.93c-4.69,12-10.13,19.63-16,22.35Zm-24.64-2.42a72.75,72.75,0,0,0,16.27,2.42v21.6c-6.74-2.25-12.27-10.83-16.63-22.93Z"/><path class="cls-1" d="M101.24,63.52a34.88,34.88,0,0,0,6.31,2.58V76.79A8,8,0,0,0,105,83c0,4.09,2.37,7.3,5.39,7.3s5.39-3.2,5.39-7.3a8,8,0,0,0-2.6-6.25V67.55a99.74,99.74,0,0,0,18.65,2V81.87h5.58V69.59a96.42,96.42,0,0,0,20.4-2.45v9.64a8,8,0,0,0-2.6,6.25c0,4.1,2.36,7.31,5.39,7.31s5.38-3.21,5.38-7.31a8,8,0,0,0-2.6-6.25V65.51A30.61,30.61,0,0,0,168,63.45c1.88-1.05,2.87-2,2.87-2.64s-.77-1.38-2.29-2.31c-4.61-2.8-16.11-6.5-34-6.5-20.35,0-32.39,4.77-35.49,7.57-.52.49-.83.92-.83,1.25,0,.64,1,1.62,3,2.7"/><path class="cls-1" d="M170.89,83.37c0,2.31-16.26,4.19-36.32,4.19s-36.32-1.88-36.32-4.19,16.27-4.18,36.32-4.18,36.32,1.87,36.32,4.18"/><path class="cls-1" d="M255.35,101.39c0,2.51-19.57,4.54-43.7,4.54s-43.69-2-43.69-4.54,19.56-4.53,43.69-4.53,43.7,2,43.7,4.53"/></svg>