<svg id="Calque_1" data-name="Calque 1" xmlns="http://www.w3.org/2000/svg" viewBox="0 0 350 300"><defs><style>.cls-1{fill:none;stroke:#000;stroke-miterlimit:10;stroke-width:5px;}</style></defs><title>selected</title><path class="cls-1" d="M315.51,102.8a3.9,3.9,0,0,0-3.39-1.23L263.89,108a53.34,53.34,0,0,0-11.45-23.5A35.06,35.06,0,0,0,222.5,72.17c-.65.06-2,.26-2.07.26L66,93.14C40.75,96.52,23.54,123.84,27.59,154s27.85,52,53.05,48.62l92.41-12.38h0l60.18-8.09h0a98.81,98.81,0,0,0,83.2-75.89,3.9,3.9,0,0,0-.92-3.49m-69-13.2c10,11.66,13.49,29.65,8.69,44.77-2.51,7.93-7.69,14-14.21,16.75a20.59,20.59,0,0,1-17.56-.94c-5-2.6-9.05-7.54-11.21-13.64l28.92-3.88a3.89,3.89,0,0,0,3.19-2.68c3.47-11-1.18-23.35-10.6-28.2a19.81,19.81,0,0,0-11.56-2.15c-.09,0-28,3.73-28,3.73C199.51,91,209.36,82,221.54,80.14c0,0,1.33-.19,1.73-.23a27.27,27.27,0,0,1,23.27,9.69m-74.53,93-92.4,12.38c-21,2.81-40.83-16-44.31-41.95S46,103.67,67,100.86L198.76,83.19a48.62,48.62,0,0,0-8.19,10.18c-6.92,11.38-9.68,25.53-7.76,39.84,2.67,19.87,13.95,36.24,28.63,44Z"/></svg>