<svg id="Calque_1" data-name="Calque 1" xmlns="http://www.w3.org/2000/svg" viewBox="0 0 350 300"><defs><style>.cls-1{fill:none;stroke:#000;stroke-miterlimit:10;stroke-width:5px;}</style></defs><title>selected</title><path d="M79.42,102.8q.8,3.66,1.63,7.31-2.8-2.19-2.81-4.46a4.52,4.52,0,0,1,1.14-2.79l0-.06m78.61,0a4.64,4.64,0,0,1,1.19,2.85c0,1.66-1.17,3.31-3.48,4.92.84-2.67,1.59-5.23,2.29-7.77m-73.12,12c.46.2,1,.41,1.52.63l-.89,2.63-.24.74h0l-4.07,12.22L67.81,171.27a.81.81,0,0,1-.77.55.77.77,0,0,1-.25,0,.83.83,0,0,1-.52-1l18-54,.63-1.89m66.8.34.67,2,17.84,53.55a.82.82,0,0,1-.48,1,1,1,0,0,1-.29,0,.81.81,0,0,1-.77-.56L155.12,130.6l-3.06-9.2h0l-.57-1.71-.44-1.29-.86-2.6c.56-.21,1.06-.41,1.52-.6m-33,.27a.82.82,0,0,1,.79.68l.36,2.13-.32,0V157h0V186.2a.82.82,0,1,1-1.64,0V160h0V118.28h-.34l.36-2.13a.81.81,0,0,1,.79-.68M165,84.86h-.58l-7.12.19c-1.28,5.65-2.54,10.62-3.67,14.84-1,3.63-2,7-3,10.33-5.24,2.31-14,4.53-26.17,5.07a5.8,5.8,0,0,0-11.44,0c-12.71-.57-21.71-3-26.86-5.38-1.69-7.28-3.28-14.77-4.72-22.46q-4.67.14-9.33.24c1.07,4.2,2.2,8.22,3.36,12.06a9.41,9.41,0,0,0-2.21,5.89c0,3.82,2.37,7,6.29,9.51l-18,54a5.82,5.82,0,0,0,3.68,7.36,5.61,5.61,0,0,0,1.83.3,5.81,5.81,0,0,0,5.52-4L86,132.64c6.8,15.26,15.62,26.06,26.94,28.49V186.2a5.82,5.82,0,0,0,11.64,0V160.65c10.48-3.21,19-13.8,25.84-28.46l13.56,40.66a5.81,5.81,0,0,0,5.51,4,5.89,5.89,0,0,0,1.84-.29,5.82,5.82,0,0,0,3.68-7.36l-17.84-53.55c4.38-2.62,7.09-5.91,7.09-10a9.52,9.52,0,0,0-2.55-6.28c1.22-4.74,2.33-9.59,3.34-14.51Zm-52.1,68.24C103.54,150,95.84,138,89.78,121.22l.51-1.52a100.59,100.59,0,0,0,22.62,3.37v30Zm11.64-.76V123.07a103.72,103.72,0,0,0,21.76-3.1l.43,1.29c-6.52,16.67-14.09,27.29-22.19,31.08Z"/><path d="M70.16,46.94a10.86,10.86,0,0,0-1.94.18,38,38,0,0,0-2.14,4.28,41.8,41.8,0,0,0-1.56,4.54c-.92,3.42.88,16.52,7.83,32.87a6.76,6.76,0,0,0,4.09,1.64h.25a7,7,0,0,0,4.93-2.18,72.94,72.94,0,0,1-9.35-32.33,69.7,69.7,0,0,1,.1-7.56c.62-.31.84-.68.42-1a5.64,5.64,0,0,0-2.63-.47Z"/><path d="M171,64.61v.19l0-.11,0-.08m-6.17-17.55c-2.91,0-4.43.1-4.54.28s1.54.55,5,1a41.64,41.64,0,0,1,1.12,7.6c.7,13.44-5.37,23.94-8.92,29.06a8.74,8.74,0,0,0,4.09,1.36l.53,0a9,9,0,0,0,2.2-.29,48.28,48.28,0,0,0,3.1-5.1c.61-1.15,1.14-2.27,1.61-3.34.26,1.07.54,2.16.85,3.27q.74,2.56,1.53,4.89a10.17,10.17,0,0,0,3.29.55h.25a10.6,10.6,0,0,0,5.73-1.91,69.3,69.3,0,0,1-4.78-21.78c-.07-1.37-.09-2.71-.08-4h0c0-1.55.08-3.08.19-4.59,2.42.44,5.73.92,10,1.37V61.1c-2.48.67-4.12,1.89-4.12,3.32,0,2.17,3.75,3.88,8.53,3.88s8.53-1.71,8.53-3.88c0-1.43-1.65-2.65-4.12-3.32V56.2c7.91.57,17.77,1,29.51,1.08V63.8h8.83V57.28c13.15-.09,23.94-.62,32.26-1.29V61.1c-2.47.68-4.11,1.89-4.11,3.32,0,2.18,3.74,3.88,8.52,3.88s8.53-1.7,8.53-3.88c0-1.43-1.64-2.64-4.12-3.31v-6c3.21-.33,5.68-.75,7.42-1.09a49.64,49.64,0,0,1,1.27,8.65,51.37,51.37,0,0,1-4.35,23.42,4.07,4.07,0,0,0,3.54,4.9h.19a4.1,4.1,0,0,0,3.9-4.37c2.32-4.93,7.54-17.84,2.18-30a27.19,27.19,0,0,0-2.19-4c0-.6-2.73-1.07-3.63-1.22-18.32-3.11-39.55-3.5-48.94-3.5-3.09,0-4.9.05-4.9.05-30.1,0-48.71,2.21-55,3.71.29-.41.89-1.49-.52-2.71a11.11,11.11,0,0,0-3.9-1.84c-1.73,0-3.22,0-4.45,0Z"/><path d="M184.34,135.71q1.16,5.43,2.4,10.82l.16.68-.11-.07c-3.24-2.08-4.88-4.31-4.88-6.61a5.78,5.78,0,0,1,1.44-3.58l1-1.24m88.73.16.66.77a6,6,0,0,1,1.69,3.89c0,2.45-1.9,4.82-5.63,7.05l-.21.12.14-.44c1.24-3.92,2.34-7.65,3.35-11.39m-83.29,14.2c.82.37,1.82.8,3,1.24l-1.22,3.61-.58,1.73-.26.78h0l-4.08,12.22L171.4,215.4a1.63,1.63,0,0,1-1.53,1.1,1.62,1.62,0,0,1-1.53-2.13l20.48-61.44,1-2.86m76.84.41,1,3,20.3,60.92a1.6,1.6,0,0,1-1,2,1.61,1.61,0,0,1-2-1l-15.42-46.26-3.57-10.71h0l-.57-1.71-.49-1.48-1.19-3.59c1.18-.42,2.18-.81,3-1.17m-38,.53a1.61,1.61,0,0,1,1.58,1.35l.54,3.17-.49,0V199.4h0v32.78a1.63,1.63,0,0,1-3.25,0V201.44h0v-45.9l-.49,0,.54-3.17a1.61,1.61,0,0,1,1.57-1.35m-48-66.51q-4.77.09-9.53.21a450.45,450.45,0,0,0,8.3,49.13,10.68,10.68,0,0,0-2.53,6.69c0,4.34,2.71,7.94,7.17,10.81l-20.49,61.45a6.62,6.62,0,0,0,4.19,8.37,6.35,6.35,0,0,0,2.09.34,6.62,6.62,0,0,0,6.28-4.52l15.25-45.75c7.73,17.37,17.77,29.65,30.64,32.42v28.53a6.63,6.63,0,0,0,13.25,0V203.1c11.92-3.65,21.62-15.7,29.39-32.38L280.11,217a6.62,6.62,0,0,0,12.55-4.19l-20.31-60.92c5-3,8.07-6.72,8.07-11.34a10.88,10.88,0,0,0-2.9-7.15C281.21,115.52,284,100,286,86.57c-2.53-.19-5.07-.36-7.61-.53a420.72,420.72,0,0,1-10,48c-1.11,4.13-2.26,8-3.45,11.75-6,2.63-15.93,5.15-29.77,5.77a6.59,6.59,0,0,0-13,0c-14.45-.64-24.7-3.37-30.56-6.11A617.84,617.84,0,0,1,180.67,84.5Zm41.38,110c-10.67-3.55-19.42-17.13-26.32-36.27l.58-1.72a115.37,115.37,0,0,0,25.74,3.82v34.17Zm13.25-.86V160.34a118.09,118.09,0,0,0,24.75-3.52l.49,1.47c-7.42,19-16,31-25.24,35.36Z"/><path class="cls-1" d="M72.37,48.38c2.13.39,5,.81,8.78,1.2v5c-2.18.59-3.62,1.65-3.62,2.91,0,1.91,3.29,3.41,7.49,3.41s7.49-1.49,7.49-3.41c0-1.26-1.44-2.32-3.61-2.91V50.25c6.94.51,15.62.88,25.94,1v5.73h7.76V51.21c11.57-.09,21.05-.55,28.36-1.14v4.49c-2.17.59-3.61,1.66-3.61,2.92,0,1.91,3.29,3.41,7.49,3.41s7.49-1.5,7.49-3.41c0-1.26-1.44-2.33-3.61-2.92V49.3c2.69-.32,4.85-.65,6.51-1,2.62-.49,4-.93,4-1.23S168.15,46.47,166,46c-6.41-1.3-22.41-3-47.32-3-28.29,0-45,2.22-49.36,3.53-.72.23-1.14.43-1.14.59s1.43.75,4.15,1.26"/><path class="cls-1" d="M169.23,57.64c0,1.08-22.62,2-50.51,2s-50.5-.87-50.5-2,22.61-2,50.5-2,50.51.87,50.51,2"/><path class="cls-1" d="M286.67,66.05c0,1.17-27.2,2.11-60.76,2.11s-60.76-.94-60.76-2.11,27.2-2.12,60.76-2.12,60.76.95,60.76,2.12"/></svg>