<?xml version="1.0" encoding="utf-8"?>
<!-- Generator: Adobe Illustrator 22.1.0, SVG Export Plug-In . SVG Version: 6.00 Build 0)  -->
<svg style="enable-background:new 0 0 500 500;" id="Calque_1" version="1.1" viewBox="0 0 500 500" x="0px"
     xmlns="http://www.w3.org/2000/svg" y="0px" xml:space="preserve">
<style type="text/css">
	.st0{fill:#4FBDD7;}
	.st1{fill:none;}
	.st2{fill:#FFFFFF;}
	.st3{font-family:'HelveticaNeue-CondensedBold';}
	.st4{font-size:54px;}
	.st5{fill:#EAEAEA;}
	.st6{fill:#4FBDD7;stroke:#FFFFFF;stroke-width:5;stroke-miterlimit:10;}
	.st7{fill:#8C8C8C;}
	.st8{fill:#070707;}
	.st9{fill:none;stroke:#FFFFFF;stroke-width:7;stroke-miterlimit:10;}
	.st10{fill:none;stroke:#FFFFFF;stroke-width:10;stroke-miterlimit:10;}
	.st11{fill:#FFFFFF;stroke:#FFFFFF;stroke-width:3;stroke-miterlimit:10;}
	.st12{fill:none;stroke:#FDFFFF;stroke-width:6;stroke-miterlimit:10;}
	.st13{fill:#FAFEFF;}
	.st14{fill:none;stroke:#FFFFFF;stroke-width:2;stroke-miterlimit:10;}
	.st15{fill:#FFFFFF;stroke:#FFFFFF;stroke-width:2;stroke-miterlimit:10;}
	.st16{fill:#4FBDD7;stroke:#FFFFFF;stroke-width:4;stroke-miterlimit:10;}
	.st17{fill:#FFFFFF;stroke:#FFFFFF;stroke-width:4;stroke-miterlimit:10;}
	.st18{fill:none;stroke:#FFFFFF;stroke-miterlimit:10;}
	.st19{fill:#FFFFFF;stroke:#FFFFFF;stroke-width:13;stroke-miterlimit:10;}
	.st20{fill:#4FBDD7;stroke:#FFFFFF;stroke-width:8;stroke-miterlimit:10;}
	.st21{fill:#FFFFFF;stroke:#FFFFFF;stroke-width:0.75;stroke-miterlimit:10;}
	.st22{fill:#FFFFFF;stroke:#FFFFFF;stroke-width:0.5;stroke-miterlimit:10;}
	.st23{fill:#FFFFFF;stroke:#FFFFFF;stroke-width:8;stroke-miterlimit:10;}
	.st24{fill:#FFFFFF;stroke:#FFFFFF;stroke-miterlimit:10;}
	.st25{fill:#FFFFFF;stroke:#FFFFFF;stroke-width:11;stroke-miterlimit:10;}
	.st26{fill:#FFFFFF;stroke:#FFFFFF;stroke-width:6;stroke-miterlimit:10;}
	.st27{fill:#8C8C8C;stroke:#8C8C8C;stroke-width:4;stroke-miterlimit:10;}
	.st28{fill:#FFFFFF;stroke:#FFFFFF;stroke-width:1.05;stroke-miterlimit:10;}
	.st29{fill:none;stroke:#4FBDD7;stroke-width:5;stroke-miterlimit:10;}
	.st30{fill:none;stroke:#FFFFFF;stroke-width:4;stroke-miterlimit:10;}
	.st31{fill:#8C8C8C;stroke:#FFFFFF;stroke-width:4;stroke-miterlimit:10;}
	.st32{fill:#FFFFFF;stroke:#FFFFFF;stroke-width:10;stroke-miterlimit:10;}
	.st33{fill:none;stroke:#4FBDD7;stroke-width:2;stroke-miterlimit:10;}
	.st34{fill-rule:evenodd;clip-rule:evenodd;fill:#FFFFFF;}
	.st35{fill:#FFFFFF;stroke:#FFFFFF;stroke-width:7;stroke-miterlimit:10;}
	.st36{fill:#FFFFFF;stroke:#4FBDD7;stroke-width:7;stroke-miterlimit:10;}
	.st37{fill:#FCFCFC;}
	.st38{fill:#FFFFFF;stroke:#FFFFFF;stroke-width:5;stroke-miterlimit:10;}
	.st39{fill:none;stroke:#FFFFFF;stroke-width:3;stroke-miterlimit:10;}
	.st40{fill:none;stroke:#FFFFFF;stroke-width:8;stroke-miterlimit:10;}
	.st41{fill:none;stroke:#FFFFFF;stroke-width:6;stroke-miterlimit:10;}
	.st42{fill:#FFFFFF;stroke:#4FBDD7;stroke-width:3;stroke-miterlimit:10;}
	.st43{fill:none;stroke:#FFFFFF;stroke-width:0.75;stroke-miterlimit:10;}
	.st44{fill:#4FBDD7;stroke:#FFFFFF;stroke-width:9;stroke-miterlimit:10;}
	.st45{fill:none;stroke:#FFFFFF;stroke-width:9;stroke-miterlimit:10;}
	.st46{fill:none;stroke:#4FBDD7;stroke-width:3;stroke-miterlimit:10;}
</style>
    <rect class="st0" height="500" width="500"/>
    <g>
	<rect class="st1" height="144" width="500" x="-5" y="363"/>
        <text class="st2 st3 st4" transform="matrix(1 0 0 1 147.6396 401.5557)">Timbales</text>
</g>
    <g>
	<path class="st2" d="M250.5,237.8c0.6,0,1.2-0.1,1.8-0.3c3-1,4.7-4.3,3.7-7.4l-17.8-53.5c4.4-2.6,7.1-5.9,7.1-10
		c0-1.6-0.5-3.9-2.5-6.3c1.2-4.7,2.3-9.6,3.3-14.5c-0.2,0-0.4,0-0.6,0c-2.4,0.1-4.7,0.1-7.1,0.2c-1.3,5.6-2.5,10.6-3.7,14.8
		c-1,3.6-2,7-3,10.3c-5.2,2.3-14,4.5-26.2,5.1c-0.5-2.7-2.8-4.8-5.7-4.8c-2.9,0-5.3,2.1-5.7,4.8c-12.7-0.6-21.7-3-26.9-5.4
		c-1.7-7.3-3.3-14.8-4.7-22.5c-3.1,0.1-6.2,0.2-9.3,0.2c1.1,4.2,2.2,8.2,3.4,12.1c-1.8,2.2-2.2,4.4-2.2,5.9c0,3.8,2.4,7,6.3,9.5
		l-18,54c-1,3,0.6,6.3,3.7,7.4c0.6,0.2,1.2,0.3,1.8,0.3c2.4,0,4.7-1.5,5.5-4l13.4-40.2c6.8,15.3,15.6,26.1,26.9,28.5v25.1
		c0,3.2,2.6,5.8,5.8,5.8c3.2,0,5.8-2.6,5.8-5.8v-25.5c10.5-3.2,19-13.8,25.8-28.5l13.6,40.7C245.7,236.3,248,237.8,250.5,237.8z
		 M193.9,214.1c-9.4-3.1-17.1-15.1-23.1-31.9l0.5-1.5c6.7,1.9,14.6,3,22.6,3.4V214.1z M205.5,213.3v-29.3c7.7-0.3,15.3-1.3,21.8-3.1
		l0.4,1.3C221.2,198.9,213.7,209.6,205.5,213.3z"/>
        <path class="st2" d="M162.6,149.3c-4.2-7.6-8.8-18.7-9.3-32.3c-0.1-2.6-0.1-5.2,0.1-7.6c0.6-0.3,0.8-0.7,0.4-1
		c-0.6-0.4-2.7-0.6-4.6-0.3c-0.8,1.4-1.5,2.8-2.1,4.3c0,0-0.9,2.2-1.6,4.5c-0.9,3.4,0.9,16.5,7.8,32.9c0.5,0.4,1.9,1.6,4.1,1.6
		C160.4,151.6,162.3,149.6,162.6,149.3z"/>
        <path class="st2" d="M246.2,109.3c0.6,2.3,1,4.8,1.1,7.6c0.7,13.4-5.4,23.9-8.9,29.1c0.7,0.5,2.1,1.2,4.1,1.4
		c1.1,0.1,2.1-0.1,2.7-0.3c1-1.5,2.1-3.2,3.1-5.1c0.6-1.2,1.1-2.3,1.6-3.3c0.3,1.1,0.5,2.2,0.9,3.3c0.5,1.7,1,3.3,1.5,4.9
		c0.8,0.3,2.1,0.6,3.5,0.5c2.8-0.1,4.9-1.3,5.7-1.9c-2.4-6-4.3-13.4-4.8-21.8c-0.1-1.4-0.1-2.7-0.1-4c0,0,0,0,0,0
		c0-1.5,0.1-3.1,0.2-4.6c2.4,0.4,5.7,0.9,10,1.4v5.7c-2.5,0.7-4.1,1.9-4.1,3.3c0,2.2,3.7,3.9,8.5,3.9c4.8,0,8.5-1.7,8.5-3.9
		c0-1.4-1.6-2.6-4.1-3.3v-4.9c7.9,0.6,17.8,1,29.5,1.1v6.5h8.8v-6.5c13.2-0.1,23.9-0.6,32.3-1.3v5.1c-2.5,0.7-4.1,1.9-4.1,3.3
		c0,2.2,3.7,3.9,8.5,3.9s8.5-1.7,8.5-3.9c0-1.4-1.6-2.6-4.1-3.3v-6c3.2-0.3,5.7-0.8,7.4-1.1c0.6,2.5,1.1,5.4,1.3,8.6
		c0.6,10.1-2.1,18.3-4.4,23.4c-0.5,2.5,1.4,4.8,3.5,4.9c2.1,0.1,4.2-1.8,4.1-4.4c2.3-4.9,7.5-17.8,2.2-30c-0.6-1.3-1.3-2.6-2.2-4
		c0-0.6-2.7-1.1-3.6-1.2c-24.3-4.1-53.8-3.5-53.8-3.5c-30.1,0-48.7,2.2-55,3.7c0.3-0.4,0.9-1.5-0.5-2.7c-1.1-1-2.9-1.6-3.9-1.8
		c-5.8-0.1-8.8,0-9,0.2C241.1,108.6,242.8,108.9,246.2,109.3z"/>
        <path class="st2" d="M353.4,212.9c5-3,8.1-6.7,8.1-11.3c0-1.9-0.6-4.5-2.9-7.2c3.7-17.9,6.5-33.4,8.5-46.8
		c-2.5-0.2-5.1-0.4-7.6-0.5c-3,20.2-7,36.6-10,48c-1.1,4.1-2.3,8-3.4,11.8c-6,2.6-15.9,5.2-29.8,5.8c-0.5-3.1-3.2-5.5-6.5-5.5
		c-3.3,0-6,2.4-6.5,5.5c-14.5-0.6-24.7-3.4-30.6-6.1c-4.4-19.1-8.2-39.4-10.9-60.9c-3.2,0.1-6.4,0.1-9.5,0.2
		c1.9,16.4,4.6,33.3,8.3,49.1c-2,2.5-2.5,5-2.5,6.7c0,4.3,2.7,7.9,7.2,10.8l-20.5,61.4c-1.2,3.5,0.7,7.2,4.2,8.4
		c0.7,0.2,1.4,0.3,2.1,0.3c2.8,0,5.4-1.8,6.3-4.5l15.3-45.7c7.7,17.4,17.8,29.7,30.6,32.4v28.5c0,3.6,3,6.6,6.6,6.6
		c3.7,0,6.6-3,6.6-6.6v-29.1c11.9-3.6,21.6-15.7,29.4-32.4l15.4,46.3c0.9,2.8,3.5,4.5,6.3,4.5c0.7,0,1.4-0.1,2.1-0.3
		c3.5-1.2,5.3-4.9,4.2-8.4L353.4,212.9z M303.1,255.5c-10.7-3.6-19.4-17.1-26.3-36.3l0.6-1.7c7.6,2.2,16.6,3.4,25.7,3.8V255.5z
		 M316.3,254.7v-33.3c8.7-0.4,17.4-1.5,24.8-3.5l0.5,1.5C334.1,238.2,325.5,250.3,316.3,254.7z"/>
        <path class="st2" d="M153.4,109.4c2.1,0.4,5,0.8,8.8,1.2v1v1v2.9c-2.2,0.6-3.6,1.7-3.6,2.9c0,1.9,3.3,3.4,7.5,3.4s7.5-1.5,7.5-3.4
		c0-1.3-1.4-2.3-3.6-2.9v-2.3v-1v-1c6.9,0.5,15.6,0.9,25.9,1v1v1v3.8h7.8v-3.8v-1v-1c11.6-0.1,21-0.5,28.4-1.1v1v1v2.5
		c-2.2,0.6-3.6,1.7-3.6,2.9c0,1.9,3.3,3.4,7.5,3.4s7.5-1.5,7.5-3.4c0-1.3-1.4-2.3-3.6-2.9v-3.2v-1v-1.1c2.7-0.3,4.9-0.6,6.5-1
		c2.6-0.5,4-0.9,4-1.2c0-0.3-1.1-0.6-3.2-1.1c-6.4-1.3-22.4-3-47.3-3c-28.3,0-45.1,2.2-49.4,3.5c-0.7,0.2-1.1,0.4-1.1,0.6
		C149.2,108.4,150.6,108.9,153.4,109.4"/>
        <path class="st2"
              d="M250.2,118.6c0,1.1-22.6,2-50.5,2s-50.5-0.9-50.5-2c0-1.1,22.6-2,50.5-2S250.2,117.6,250.2,118.6"/>
        <path class="st2"
              d="M367.7,127c0,1.2-27.2,2.1-60.8,2.1s-60.8-0.9-60.8-2.1c0-1.2,27.2-2.1,60.8-2.1S367.7,125.9,367.7,127"/>
</g>
</svg>
