<svg id="Calque_1" data-name="Calque 1" xmlns="http://www.w3.org/2000/svg" viewBox="0 0 350 300"><title>selected</title><path d="M191.08,41A21,21,0,0,1,207,48.25l1.19,1.35h19.67L229,47.84a14.38,14.38,0,0,1,26.29,8V69.24a14.38,14.38,0,0,1-26.29,8l-1.19-1.76h-20l-1.19,1.27a21.05,21.05,0,0,1-15.53,6.82h-19v70.45h-5.14V170.5h-.74v-6.8h0V83.62H151.25a21.07,21.07,0,0,1-15.53-6.82l-1.18-1.27H113.93l-1.2,1.64a14.24,14.24,0,0,1-11.57,5.94A14.39,14.39,0,0,1,86.79,68.73V55.37a14.33,14.33,0,0,1,26.48-7.63l1.18,1.86h19.73l1.19-1.34A21,21,0,0,1,151.25,41h39.83M157.74,157.65a3.09,3.09,0,0,1,1.92.69l3.25,2.67h-7.36a3.15,3.15,0,0,1-.16-1,2.44,2.44,0,0,1,.74-1.76,2.36,2.36,0,0,1,1.61-.57m17.64,9.49a2.38,2.38,0,0,1,1.61.57,2.43,2.43,0,0,1,.74,1.76,3.15,3.15,0,0,1-.16,1h-7.36l3.25-2.67a3.09,3.09,0,0,1,1.92-.69m-9.74,11.38v30.53h-.73V178.52h.73m-4,0-3.27,2.67a3,3,0,0,1-1.91.69,2.39,2.39,0,0,1-1.62-.57,2.41,2.41,0,0,1-.73-1.75,2.88,2.88,0,0,1,.15-1h7.38m12.45,7.89a2.22,2.22,0,0,1,2.35,2.33,2.91,2.91,0,0,1-.15,1h-7.38l3.27-2.67a3,3,0,0,1,1.91-.7M161.62,197.8l-3.25,2.66a3,3,0,0,1-1.91.7,2.39,2.39,0,0,1-1.62-.57,2.5,2.5,0,0,1-.73-1.76,3.1,3.1,0,0,1,.15-1h7.36m12.47,7.89a2.21,2.21,0,0,1,2.35,2.32,3.18,3.18,0,0,1-.15,1h-7.36l3.25-2.67a3,3,0,0,1,1.91-.69m-9.73,11.37v9.49h1.28v14.3l-.6-.45-.13,4.09V233.64l-1.29,1.05V217.06h.74m-4,0-3.25,2.67a3,3,0,0,1-1.92.69,2.38,2.38,0,0,1-1.61-.57,2.42,2.42,0,0,1-.74-1.75,3.21,3.21,0,0,1,.16-1h7.36M175,226.55a3.12,3.12,0,0,1,.19,1.28,2,2,0,0,1-.57,1.37,1.75,1.75,0,0,1-1,.29,3.35,3.35,0,0,1-1.76-.54l-3.75-2.4H175m-13.36,9.78L158.37,239a3,3,0,0,1-1.91.7,2.22,2.22,0,0,1-2.35-2.33,3.18,3.18,0,0,1,.15-1h7.36M191.08,37H151.25a25.14,25.14,0,0,0-18.87,8.6H116.65a18.33,18.33,0,0,0-33.86,9.77V68.73A18.33,18.33,0,0,0,116,79.53H132.8a25.14,25.14,0,0,0,18.45,8.09h10.94v67.63a7,7,0,0,0-4.45-1.6,6.39,6.39,0,0,0-4.29,1.6,6.81,6.81,0,0,0,0,9.76h8.74v9.51h-10a6.82,6.82,0,0,0,0,9.76,6.37,6.37,0,0,0,4.3,1.6,7,7,0,0,0,4.45-1.6v9.52h-8.75a6.83,6.83,0,0,0,0,9.76,6.42,6.42,0,0,0,4.3,1.6,7,7,0,0,0,4.45-1.6v9.5h-10a6.81,6.81,0,0,0,0,9.76,6.36,6.36,0,0,0,4.29,1.6,7,7,0,0,0,4.45-1.6v9.51h-7.46a6.84,6.84,0,0,0,0,9.77,6.42,6.42,0,0,0,4.3,1.6,7.07,7.07,0,0,0,4.45-1.6v9.51l.33,16.39,7.12-6.65q.21-6.57.43-13.15a6.4,6.4,0,0,0,3.81,1.28,6,6,0,0,0,3.73-1.28,6.17,6.17,0,0,0,2.06-6.37h-8.75v-9.51a7.29,7.29,0,0,0,3.91,1.17,5.65,5.65,0,0,0,3.55-1.17c2.57-2,3-6.67,0-9.77h-8.74v-9.5h10a6.83,6.83,0,0,0,0-9.76,6.37,6.37,0,0,0-4.3-1.6,7,7,0,0,0-4.45,1.6v-9.51h8.75a6.83,6.83,0,0,0,0-9.77,6.42,6.42,0,0,0-4.3-1.6,7,7,0,0,0-4.45,1.6V174.5h10a6.81,6.81,0,0,0,0-9.76,6.41,6.41,0,0,0-4.29-1.6,7,7,0,0,0-4.45,1.6v-6.68h5.14V87.61h15a25.18,25.18,0,0,0,18.46-8.09H225.7a18.37,18.37,0,0,0,33.6-10.28V55.88A18.37,18.37,0,0,0,225.7,45.6H210A25.12,25.12,0,0,0,191.08,37Z"/></svg>