<svg id="Calque_1" data-name="Calque 1" xmlns="http://www.w3.org/2000/svg" viewBox="0 0 350 300"><title>selected</title><path d="M293.65,217.45a14.91,14.91,0,1,1-14.91,14.91,14.91,14.91,0,0,1,14.91-14.91m0,27.37h0a12.47,12.47,0,1,0-12.47-12.46,12.49,12.49,0,0,0,12.47,12.46m0-31.37a18.93,18.93,0,0,0-18.91,18.9h0a18.91,18.91,0,1,0,18.91-18.9Zm0,27.37h0a8.47,8.47,0,1,1,8.47-8.47,8.47,8.47,0,0,1-8.47,8.47Z"/><path d="M125.66,217.45h0a15,15,0,0,1,14.91,14.9,14.91,14.91,0,1,1-14.91-14.9m0,27.37h0a12.47,12.47,0,1,0-12.47-12.47,12.48,12.48,0,0,0,12.47,12.47m0-31.37h0a18.91,18.91,0,0,0,0,37.81h0a18.91,18.91,0,1,0,0-37.81Zm0,27.37a8.47,8.47,0,1,1,8.47-8.47,8.47,8.47,0,0,1-8.47,8.47Z"/><path d="M8,39a1.26,1.26,0,0,1,.65.17l27.69,16.1a1.2,1.2,0,0,1,.61,1l1,36.39L38,94.89,39.88,96l79.91,47a17.51,17.51,0,0,1,8.59,14.93v12.44l3.12.71,14.35,3.23,4.88,1.1V157.92a1.69,1.69,0,0,1,1.6-1.55h11.44V140.31c0-.54.74-.89,1.44-.89H239.4c.43,0,1.16.11,1.16.89v16.06h11.7a1.43,1.43,0,0,1,1.34,1.44v29.87H276a20,20,0,0,1,18.71,13.06l.82,2.24,2.36.34a29.4,29.4,0,0,1-4.24,58.48,29.77,29.77,0,0,1-4.31-.32,29.38,29.38,0,0,1-24.63-23.74l-.61-3.28H155.22l-.61,3.27a29.45,29.45,0,0,1-28.93,24.08,30,30,0,0,1-5.42-.5A29.49,29.49,0,0,1,96.68,227c.15-.79.33-1.59.54-2.36l.91-3.35L95,219.86,18.42,186.8a1.19,1.19,0,0,1-.74-1.1V133.79a7.53,7.53,0,0,1,12.45-5.69l26.34,22.77.67.58.85.24,51.29,14.57.39.11.4,0,.21,0,10.81,2.36,4.86,1.05v-12a15,15,0,0,0-7.39-12.8L36.25,96.69l0,0,0,0-.13-.07L7.33,79.76l0,0h0a1.37,1.37,0,0,1-.69-1.1V40.29A1.39,1.39,0,0,1,8,39M35.39,93.42l-.21-7.21-.8-27L34.32,57,32.39,55.9,15,45.83,9,42.35V78l2,1.15,18.15,10.6,6.23,3.64M23.16,129.14a5.05,5.05,0,0,0-3,4.67V184.9l2.41,1,73.68,31.77L99.29,219l1.84-2.81a21.57,21.57,0,0,1,6.1-6.64l1.76-1.18V168.62l-2.91-.82L56.33,153.7a1.57,1.57,0,0,1-.55-.27L28.61,130a5.07,5.07,0,0,0-3.36-1.27,5,5,0,0,0-2.09.45m143.05,27.23h71.91V141.85H166.21v14.52m39.72,31.31h45.24V158.81h-98v17.08l3.13.69,49.21,11,.43.1M111.42,206.2l5.32-1.84a28.1,28.1,0,0,1,9.05-1.57,29.57,29.57,0,0,1,29.12,25.74l.44,3.5H264l.44-3.5a29.2,29.2,0,0,1,23.32-25l6.17-1.22-3.72-5.07a17.54,17.54,0,0,0-14.09-7.14H206.27L206,190l-.33-.07-89.41-19.76-4.87-1.07V206.2m182.23,53.2h0a27,27,0,0,0,1.9-54l-.47,0-.47.08h-.2a1.09,1.09,0,0,1-.26,0l-.47-.1h-.48a27,27,0,0,0,.45,54.08m-194.72-31h-.31v4a27.06,27.06,0,0,0,27,27h0a27,27,0,0,0,27-25.74v-.17a.86.86,0,0,1,0-.15v-.05c0-.31,0-.62,0-1a27.11,27.11,0,0,0-27-26.9h-.15a27.17,27.17,0,0,0-26.59,22.92M8,35a5.39,5.39,0,0,0-5.38,5.22V78.71a5.37,5.37,0,0,0,2.72,4.5l28.78,16.85.14.08,82.3,48.4a11,11,0,0,1,5.42,9.38v7l-10.87-2.37a5.51,5.51,0,0,0-.71-.09L59.08,147.84,32.75,125.07a11.56,11.56,0,0,0-7.53-2.8h0a11.53,11.53,0,0,0-11.53,11.51V185.7a5.23,5.23,0,0,0,3.16,4.78l76.52,33.05c-.24.89-.45,1.79-.61,2.69a33.46,33.46,0,0,0,26.78,39,33,33,0,0,0,6.15.57,33.47,33.47,0,0,0,32.86-27.35H260.76a33.41,33.41,0,0,0,28,27,33.84,33.84,0,0,0,4.89.36,33.39,33.39,0,0,0,4.82-66.43A23.94,23.94,0,0,0,276,183.68H257.6V157.81a5.44,5.44,0,0,0-5.25-5.44h-7.79V140.31a4.9,4.9,0,0,0-5.16-4.89H165.21c-2.88,0-5.44,2-5.44,4.89v12.06h-7.51a5.68,5.68,0,0,0-5.53,5.44V170.4l-14.35-3.24v-9.24a21.47,21.47,0,0,0-10.56-18.38l-79.91-47-1-36.4a5.24,5.24,0,0,0-2.61-4.37L10.63,35.71A5.35,5.35,0,0,0,8,35ZM31.18,86.33,13,75.73V49.29L30.39,59.36l.79,27ZM97.79,214,24.12,182.27V133.78a1,1,0,0,1,.66-1,1,1,0,0,1,.47-.11A1.05,1.05,0,0,1,26,133l27.25,23.53a5.49,5.49,0,0,0,2.06,1.07L105,171.65v34.63a25.53,25.53,0,0,0-7.2,7.76Zm72.42-61.67v-6.52h63.91v6.52Zm36.16,31.31-49.21-11v-9.87h90v20.87Zm-90.95,16.9V174.09l89.42,19.76a4.54,4.54,0,0,0,1,.26h70.28a13.47,13.47,0,0,1,10.86,5.5A33.22,33.22,0,0,0,260.44,228H158.87a33.47,33.47,0,0,0-33.06-29.24,32.23,32.23,0,0,0-10.39,1.79ZM293.65,255.4a23,23,0,0,1-.38-46.08,5.52,5.52,0,0,0,1.14.12,4.91,4.91,0,0,0,.86-.07,23,23,0,0,1-1.62,46Zm-168,0h0a23,23,0,0,1-23-23.05h0a23,23,0,0,1,22.92-22.92h.13a23,23,0,0,1,23,22.92c0,.28,0,.56,0,.85,0,.06,0,.13,0,.2v.07a23,23,0,0,1-23,21.93Z"/></svg>