<?xml version="1.0" encoding="utf-8"?>
<!-- Generator: Adobe Illustrator 22.1.0, SVG Export Plug-In . SVG Version: 6.00 Build 0)  -->
<svg style="enable-background:new 0 0 500 500;" id="Calque_1" version="1.1" viewBox="0 0 500 500" x="0px"
     xmlns="http://www.w3.org/2000/svg" y="0px" xml:space="preserve">
<style type="text/css">
	.st0{fill:#4FBDD7;}
	.st1{fill:#EAEAEA;}
	.st2{fill:#FFFFFF;}
	.st3{fill:#4FBDD7;stroke:#FFFFFF;stroke-width:5;stroke-miterlimit:10;}
	.st4{fill:#8C8C8C;}
	.st5{fill:#070707;}
	.st6{fill:none;stroke:#FFFFFF;stroke-width:7;stroke-miterlimit:10;}
	.st7{fill:none;stroke:#FFFFFF;stroke-width:10;stroke-miterlimit:10;}
	.st8{fill:#FFFFFF;stroke:#FFFFFF;stroke-width:3;stroke-miterlimit:10;}
	.st9{fill:none;stroke:#FDFFFF;stroke-width:6;stroke-miterlimit:10;}
	.st10{fill:#FAFEFF;}
	.st11{fill:none;stroke:#FFFFFF;stroke-width:2;stroke-miterlimit:10;}
	.st12{fill:#FFFFFF;stroke:#FFFFFF;stroke-width:2;stroke-miterlimit:10;}
	.st13{fill:#4FBDD7;stroke:#FFFFFF;stroke-width:4;stroke-miterlimit:10;}
	.st14{fill:#FFFFFF;stroke:#FFFFFF;stroke-width:4;stroke-miterlimit:10;}
	.st15{fill:none;stroke:#FFFFFF;stroke-miterlimit:10;}
	.st16{fill:#FFFFFF;stroke:#FFFFFF;stroke-width:13;stroke-miterlimit:10;}
	.st17{fill:#4FBDD7;stroke:#FFFFFF;stroke-width:8;stroke-miterlimit:10;}
	.st18{fill:#FFFFFF;stroke:#FFFFFF;stroke-width:0.75;stroke-miterlimit:10;}
	.st19{fill:#FFFFFF;stroke:#FFFFFF;stroke-width:0.5;stroke-miterlimit:10;}
	.st20{fill:none;}
	.st21{font-family:'HelveticaNeue-CondensedBold';}
	.st22{font-size:54px;}
	.st23{fill:#FFFFFF;stroke:#FFFFFF;stroke-width:8;stroke-miterlimit:10;}
	.st24{fill:#FFFFFF;stroke:#FFFFFF;stroke-miterlimit:10;}
	.st25{fill:#FFFFFF;stroke:#FFFFFF;stroke-width:11;stroke-miterlimit:10;}
	.st26{fill:#FFFFFF;stroke:#FFFFFF;stroke-width:6;stroke-miterlimit:10;}
	.st27{fill:#8C8C8C;stroke:#8C8C8C;stroke-width:4;stroke-miterlimit:10;}
	.st28{fill:#FFFFFF;stroke:#FFFFFF;stroke-width:1.05;stroke-miterlimit:10;}
	.st29{fill:none;stroke:#4FBDD7;stroke-width:5;stroke-miterlimit:10;}
	.st30{fill:none;stroke:#FFFFFF;stroke-width:4;stroke-miterlimit:10;}
	.st31{fill:#8C8C8C;stroke:#FFFFFF;stroke-width:4;stroke-miterlimit:10;}
	.st32{fill:#FFFFFF;stroke:#FFFFFF;stroke-width:10;stroke-miterlimit:10;}
	.st33{fill:none;stroke:#4FBDD7;stroke-width:2;stroke-miterlimit:10;}
	.st34{fill-rule:evenodd;clip-rule:evenodd;fill:#FFFFFF;}
	.st35{fill:#FFFFFF;stroke:#FFFFFF;stroke-width:7;stroke-miterlimit:10;}
	.st36{fill:#FFFFFF;stroke:#4FBDD7;stroke-width:7;stroke-miterlimit:10;}
	.st37{fill:#FCFCFC;}
	.st38{fill:#FFFFFF;stroke:#FFFFFF;stroke-width:5;stroke-miterlimit:10;}
	.st39{fill:none;stroke:#FFFFFF;stroke-width:3;stroke-miterlimit:10;}
	.st40{fill:none;stroke:#FFFFFF;stroke-width:8;stroke-miterlimit:10;}
	.st41{fill:none;stroke:#FFFFFF;stroke-width:6;stroke-miterlimit:10;}
	.st42{fill:#FFFFFF;stroke:#4FBDD7;stroke-width:3;stroke-miterlimit:10;}
	.st43{fill:none;stroke:#FFFFFF;stroke-width:0.75;stroke-miterlimit:10;}
	.st44{fill:#4FBDD7;stroke:#FFFFFF;stroke-width:9;stroke-miterlimit:10;}
	.st45{fill:none;stroke:#FFFFFF;stroke-width:9;stroke-miterlimit:10;}
	.st46{fill:none;stroke:#4FBDD7;stroke-width:3;stroke-miterlimit:10;}
</style>
    <rect class="st0" height="515" width="509" x="-7" y="-6"/>
    <g>
	<g>
		<path class="st13" d="M177.6,204.2c6.2,10.2,77,126.5,83.4,139.5c6.7,13.5,56.9-14.2,51.4-25.3c-5.2-10.6-55.3-139.9-59.6-151.2
			l0.1,0l-11.9-24.2l-6.8,3.3l-13.5-27.4l-4,2l9.2,18.6l-1.7,0.8l-9.2-18.6l-2.7,1.3l9.2,18.6l-1.7,0.8l-9.2-18.6l-2.8,1.4l9.2,18.6
			l-1.7,0.8l-9.2-18.6l-2.7,1.3l9.2,18.6l-1.7,0.8l-9.2-18.6l-3,1.5l9.2,18.6l-1.7,0.8l-9.2-18.6l-2.7,1.3l9.2,18.6l-1.7,0.8
			l-9.2-18.6l-2.8,1.4l9.2,18.6l-1.7,0.8l-9.2-18.6l-2.7,1.3l9.2,18.6l-1.7,0.8l-9.2-18.6l-3.3,1.6l9.2,18.6l-1.7,0.8l-9.2-18.6
			l-2.7,1.3l9.2,18.6l-1.7,0.8l-9.2-18.6l-2.8,1.4l9.2,18.6l-1.7,0.8l-9.2-18.6l-2.7,1.3l9.2,18.6l-1.7,0.8l-9.2-18.6l-3,1.5
			l9.2,18.6l-1.7,0.8l-9.2-18.6l-3.5,1.7l13.5,27.4l-5,2.5L177.6,204.2L177.6,204.2L177.6,204.2z M281.2,319.7
			c-4.3,2.1-11.2-3.3-15.6-12.1c-4.3-8.8-4.4-17.6-0.1-19.7c4.3-2.1,11.2,3.3,15.5,12.1C285.4,308.8,285.5,317.6,281.2,319.7z
			 M179.1,190.2l61.7-30.4l2,4.2l-61.7,30.4L179.1,190.2z"/>

        <ellipse class="st14" cx="238.1" cy="232.1" rx="4.1"
                 ry="8.5" transform="matrix(0.8973 -0.4414 0.4414 0.8973 -78.0159 128.9202)"/>
	</g>
</g>
    <line class="st11" x1="159" x2="171" y1="141" y2="166"/>
    <line class="st11" x1="163" x2="175" y1="139" y2="164"/>
    <line class="st11" x1="167" x2="179" y1="137" y2="162"/>
    <line class="st11" x1="171" x2="183" y1="135" y2="160"/>
    <line class="st11" x1="175" x2="187" y1="133" y2="158"/>
    <line class="st11" x1="179" x2="191" y1="131" y2="156"/>
    <line class="st11" x1="183" x2="195" y1="129" y2="154"/>
    <line class="st11" x1="187" x2="199" y1="127" y2="152"/>
    <line class="st11" x1="191" x2="203" y1="125" y2="150"/>
    <line class="st11" x1="195" x2="207" y1="123" y2="148"/>
    <line class="st11" x1="199" x2="211" y1="121" y2="146"/>
    <line class="st11" x1="203" x2="215" y1="119" y2="144"/>
    <line class="st11" x1="207" x2="219" y1="118" y2="143"/>
    <line class="st11" x1="211" x2="223" y1="116" y2="141"/>
    <line class="st11" x1="215" x2="227" y1="114" y2="139"/>
    <g>
	<rect class="st20" height="144" width="520" x="-14" y="369"/>
        <text class="st2 st21 st22" transform="matrix(1 0 0 1 142.5908 407.5557)">Tondeuse</text>
</g>
</svg>
