<svg id="Calque_1" data-name="Calque 1" xmlns="http://www.w3.org/2000/svg" viewBox="0 0 350 300"><defs><style>.cls-1{fill:none;stroke:#000;stroke-miterlimit:10;stroke-width:4px;}</style></defs><title>selected</title><path class="cls-1" d="M303.61,163.05c3.75-5.64,2.74-14.32-2.2-19a140.77,140.77,0,0,0-112.73-37.33l-9.47,1.1C168.94,109.06,161,116.77,159,127l-1.92,11a110.7,110.7,0,0,0-1.62,20.59L143.65,160a131.46,131.46,0,0,0-32.75-.2h-.13l-.34,0-14.18,1.65c-7.11-5.62-14.22-8.44-21.09-9.16A7.48,7.48,0,0,0,69,154.64a9.45,9.45,0,0,0-2,6.64L71.48,200A9.38,9.38,0,0,0,75,206a7.16,7.16,0,0,0,6.5.84c6.51-2.25,12.73-7,18.38-13.73l14.24-1.65a131.71,131.71,0,0,0,32.3-7.74l11.73-1.36a106.3,106.3,0,0,0,6.44,20.05l7.68,17.91a12.43,12.43,0,0,0,12.41,7l17.76-2.06a141.39,141.39,0,0,0,101.2-62.13m-121.49,4.48-3.49,4.41L160.87,174l-12.23,1.42-.92-7.9L160,166.1,177.72,164ZM74.89,160.37c5.22.19,10.72,2.75,16.84,7.24l2.38,20.53c-4.93,5.77-9.7,9.52-14.74,10.91Zm108.75,58.19a4,4,0,0,1-4.27-2.31l-7.67-17.91a129.39,129.39,0,0,1-5.52-17l14.95-1.73a3.57,3.57,0,0,0,2.62-1.51l7-8.81a3.91,3.91,0,0,0,.84-3.08c0-.07,0-.14,0-.21a3.63,3.63,0,0,0-1.5-2.63l-8.81-7a3.63,3.63,0,0,0-2.9-.86l-14.61,1.69c-.29-6,.6-12.07,1.5-18.17l1.92-11a14.55,14.55,0,0,1,13-12.31l9.47-1.1a132.41,132.41,0,0,1,106.5,35.26,6,6,0,0,1,2.08,4.16c.18,1.58,0,3.2-1.17,3.73a132.37,132.37,0,0,1-95.6,58.69Z"/></svg>