<svg id="Calque_1" data-name="Calque 1" xmlns="http://www.w3.org/2000/svg" viewBox="0 0 350 300"><title>selected</title><path d="M239.49,15.3l1.56,3.9L239.27,24a26.59,26.59,0,0,0,.22-8.69M195,133l8.88,3.78A51.48,51.48,0,0,0,182,136c3.79-1.07,8.16-2.09,13-3m91.27,8,4.51,2.19,1.54,3.85a26.27,26.27,0,0,0-6-6m-90.49,56.07.26,3.5-3.25,1.3a9.8,9.8,0,0,0,3-4.8M238,6.17a4.73,4.73,0,0,0-4.38,6.48c4.94,12.34-7.39,30-16,40.18-16.1,19-39.58,36.55-55.13,44.13l-7-17.38L160,77.82a4.73,4.73,0,0,0-3.52-8.77l-35.1,14.07a4.73,4.73,0,0,0,3.52,8.77l4.38-1.76,7,17.55L102.92,121a70.9,70.9,0,1,0,52.75,131.62L211,230.51a52,52,0,0,0,26.8-72.24,50.26,50.26,0,0,0-25.16-23.16c6.55-.62,13.37-1,20.17-1a171,171,0,0,1,17.84.89c13.2,1.41,34.35,5.68,39.29,18a4.72,4.72,0,0,0,4.39,3,4.59,4.59,0,0,0,1.76-.34,4.72,4.72,0,0,0,2.63-6.14L242.4,9.14a4.72,4.72,0,0,0-4.39-3Zm44,127.19c-6.58-3.21-14.87-5.57-24.71-7l-28.8-71.86c6.12-7.85,10.48-15.27,13-22.15l40.48,101ZM129.37,248.3a61.44,61.44,0,0,1-22.93-118.48l55.28-22.16c15.69-6.28,41.23-24.29,59.88-45l25.05,62.5c-4.61-.34-9.32-.51-14-.51-23.61,0-47.28,4.09-60.36,9.33L114.34,157.2c-19.12,7.66-30,28.75-23.47,48a37.75,37.75,0,0,0,49.86,22.93l59.67-23.92a28.36,28.36,0,1,0-21.1-52.64l-59.66,23.91a18.91,18.91,0,0,0,14.06,35.1l42.12-16.88a4.73,4.73,0,0,0,2.63-6.15l-8.79-21.93,8.77-3.52,12.31,30.71a4.74,4.74,0,0,1-2.63,6.15l-50.89,20.39a28.32,28.32,0,0,1-37.41-17.21c-4.78-14,3.31-30.23,18-36.13l56-22.46A46.07,46.07,0,0,1,191,140.21c15.92,0,31,8.27,38.32,22.4a42.54,42.54,0,0,1-21.92,59.12l-55.28,22.16a61.13,61.13,0,0,1-22.78,4.41ZM145,104.16l-7-17.54,8.77-3.52,7,17.55L145,104.16Zm55.45,89.33a13.9,13.9,0,0,0-1-4.23l-12.08-30.15a19.35,19.35,0,0,1,2.4-.16,18.91,18.91,0,0,1,10.66,34.54Zm-73.81,9a9.45,9.45,0,0,1-3.53-18.23l37.73-15.12,7,17.55-10.1,4-1.75-4.39a4.73,4.73,0,0,0-8.78,3.51l1.76,4.39-10.09,4-1.76-4.39a4.72,4.72,0,0,0-8.77,3.51l1.76,4.39a9.44,9.44,0,0,1-3.51.68Z"/></svg>