<svg id="Calque_1" data-name="Calque 1" xmlns="http://www.w3.org/2000/svg" viewBox="0 0 350 300"><title>selected</title><path d="M228.69,51.49l10.92,10.92L221.29,80.73,204.66,97.36a30.42,30.42,0,0,0-4.75-6.16,30.75,30.75,0,0,0-6.16-4.76l34.94-34.95m0-7.07L185,88.14a25.49,25.49,0,0,1,18,18l21.87-21.87,21.85-21.85-18-18Z"/><path d="M242.12,28.94l20,20-2.89,1L241.16,31.83l1-2.89m-2.19-9.25-4.49,13.49,22.48,22.49,13.49-4.5L239.93,19.69Z"/><path d="M259,3.17l28.9,28.9L277,43l-28.9-28.9L259,3.17m0-7.07-18,18,36,36,18-18-36-36Z"/><path d="M171.19,76.86c-6.2,6.2-13.61,13.62-14.28,14.28h0l0,0h0a30.44,30.44,0,0,0,43,43l14.33-14.33V140l0,.27c3.9,35.61-14.43,70.06-45.61,85.72a83.05,83.05,0,0,1-37.07,8.72,87.12,87.12,0,0,1-50.31-16.26c-3.73-5.73-26.84-43.92-9.22-86.13a89.39,89.39,0,0,1,31.52-38.87,93.45,93.45,0,0,1,48-16.57h19.65m-15.29,92.4,3.53-3.53,9-9L172,153.2l-3.53-3.54-27-27-3.53-3.54-3.54,3.54-9,9-3.54,3.54,3.54,3.53,27,27,3.54,3.53m27.36-97.4H151.4C114.18,74,81.47,96.78,67.45,130.38,47.87,177.27,75.63,219.07,77.62,222a91.57,91.57,0,0,0,54,17.73,87.49,87.49,0,0,0,39.31-9.25c33-16.58,52.48-52.9,48.34-90.74V107.84l-22.87,22.87a25.44,25.44,0,0,1-36-36l22.87-22.87ZM155.9,162.19l-27-27,9-9,27,27-9,9Z"/><path d="M178.38,105a7.73,7.73,0,1,1-5.45,2.26,7.67,7.67,0,0,1,5.45-2.26m0-5a12.72,12.72,0,1,0,9,3.73,12.62,12.62,0,0,0-9-3.73Z"/></svg>