<?xml version="1.0" encoding="utf-8"?>
<!-- Generator: Adobe Illustrator 22.1.0, SVG Export Plug-In . SVG Version: 6.00 Build 0)  -->
<svg style="enable-background:new 0 0 500 500;" id="Calque_1" version="1.1" viewBox="0 0 500 500" x="0px"
     xmlns="http://www.w3.org/2000/svg" y="0px" xml:space="preserve">
<style type="text/css">
	.st0{fill:#EAEAEA;}
	.st1{fill:#8C8C8C;}
	.st2{fill:#FFFFFF;}
	.st3{fill:#EAEAEA;stroke:#8C8C8C;stroke-width:7;stroke-miterlimit:10;}
	.st4{fill:#070707;}
	.st5{fill:none;stroke:#8C8C8C;stroke-width:7;stroke-miterlimit:10;}
	.st6{fill:none;stroke:#8C8C8C;stroke-width:10;stroke-miterlimit:10;}
	.st7{fill:#8C8C8C;stroke:#8C8C8C;stroke-width:3;stroke-miterlimit:10;}
	.st8{fill:none;stroke:#8C8C8C;stroke-width:8;stroke-miterlimit:10;}
	.st9{fill:none;stroke:#8E8E8E;stroke-width:6;stroke-miterlimit:10;}
	.st10{fill:#8E8E8E;}
	.st11{fill:#505050;}
	.st12{fill:none;stroke:#8E8E8E;stroke-width:2;stroke-miterlimit:10;}
	.st13{fill:#8C8C8C;stroke:#8C8C8C;stroke-width:2;stroke-miterlimit:10;}
	.st14{fill:#8C8C8C;stroke:#FFFFFF;stroke-width:2;stroke-miterlimit:10;}
	.st15{fill:none;stroke:#FFFFFF;stroke-width:2;stroke-miterlimit:10;}
	.st16{fill:none;stroke:#8C8C8C;stroke-miterlimit:10;}
	.st17{fill:none;stroke:#8C8C8C;stroke-width:13;stroke-miterlimit:10;}
	.st18{fill:#EAEAEA;stroke:#8C8C8C;stroke-width:8;stroke-miterlimit:10;}
	.st19{fill:none;stroke:#8C8C8C;stroke-width:4;stroke-miterlimit:10;}
	.st20{fill:#8C8C8C;stroke:#8C8C8C;stroke-width:0.75;stroke-miterlimit:10;}
	.st21{fill:none;stroke:#8C8C8C;stroke-width:9;stroke-miterlimit:10;}
	.st22{fill:#8C8C8C;stroke:#8C8C8C;stroke-width:0.5;stroke-miterlimit:10;}
	.st23{fill:#6B6B6B;}
	.st24{fill:none;}
	.st25{stroke:#8C8C8C;stroke-width:8;stroke-miterlimit:10;}
	.st26{fill:#8C8C8C;stroke:#8C8C8C;stroke-miterlimit:10;}
	.st27{fill:none;stroke:#8C8C8C;stroke-width:11;stroke-miterlimit:10;}
	.st28{fill:none;stroke:#8C8C8C;stroke-width:6;stroke-miterlimit:10;}
	.st29{stroke:#8C8C8C;stroke-width:6;stroke-miterlimit:10;}
	.st30{fill:#8C8C8C;stroke:#8C8C8C;stroke-width:4;stroke-miterlimit:10;}
	.st31{fill:#8C8C8C;stroke:#8C8C8C;stroke-width:1.05;stroke-miterlimit:10;}
	.st32{fill:#D6D6D6;}
	.st33{fill:none;stroke:#EAEAEA;stroke-width:5;stroke-miterlimit:10;}
	.st34{fill:#8C8C8C;stroke:#8C8C8C;stroke-width:10;stroke-miterlimit:10;}
	.st35{font-family:'HelveticaNeue-CondensedBold';}
	.st36{font-size:54px;}
	.st37{fill:none;stroke:#CECECE;stroke-width:2;stroke-miterlimit:10;}
	.st38{fill:none;stroke:#FFFFFF;stroke-width:4;stroke-miterlimit:10;}
	.st39{fill-rule:evenodd;clip-rule:evenodd;fill:#8C8C8C;}
	.st40{fill:#8C8C8C;stroke:#8C8C8C;stroke-width:8;stroke-miterlimit:10;}
	.st41{fill:#8C8C8C;stroke:#8C8C8C;stroke-width:7;stroke-miterlimit:10;}
	.st42{fill:#DBDBDB;stroke:#8C8C8C;stroke-width:7;stroke-miterlimit:10;}
	.st43{fill:none;stroke:#8C8C8C;stroke-width:5;stroke-miterlimit:10;}
	.st44{fill:none;stroke:#8C8C8C;stroke-width:3;stroke-miterlimit:10;}
	.st45{clip-path:url(#SVGID_2_);fill:#8C8C8C;}
	.st46{clip-path:url(#SVGID_2_);fill:none;stroke:#8C8C8C;stroke-width:8;stroke-miterlimit:10;}
	.st47{clip-path:url(#SVGID_2_);fill:#FFFFFF;}
	.st48{clip-path:url(#SVGID_2_);fill:#EAEAEA;}
	.st49{clip-path:url(#SVGID_2_);fill:none;stroke:#8C8C8C;stroke-miterlimit:10;}
	.st50{fill:none;stroke:#FFFFFF;stroke-width:0.75;stroke-miterlimit:10;}
	.st51{fill:none;stroke:#8C8C8C;stroke-width:14;stroke-miterlimit:10;}
	.st52{fill:none;stroke:#EAEAEA;stroke-width:2;stroke-miterlimit:10;}
	.st53{fill:none;stroke:#8C8C8C;stroke-width:2;stroke-miterlimit:10;}
</style>
    <rect class="st0" height="500" width="500" x="1"/>
    <path class="st1" d="M350.7,98h-10.1c-5.2,0-9.4,4.2-9.4,9.4V187c0,5.8,4.7,10.5,10.5,10.5h3.5V307c0,6.2,5.1,11.3,11.3,11.3h3.3
	c6.2,0,11.3-5.1,11.3-11.3V197.5h3.5c5.8,0,10.5-4.7,10.5-10.5v-54.6C385,113.4,369.6,98,350.7,98z M364.6,307
	c0,2.7-2.2,4.9-4.9,4.9h-3.3c-2.7,0-4.9-2.2-4.9-4.9V197.5h13V307z M378.6,187c0,2.3-1.8,4.1-4.1,4.1H371v-22.4
	c0-6.2-5.1-11.3-11.3-11.3h-3.3c-6.2,0-11.3,5.1-11.3,11.3v22.4h-3.5c-2.3,0-4.1-1.8-4.1-4.1v-79.6c0-1.7,1.3-3,3-3h10.1
	c15.4,0,27.9,12.5,27.9,27.9V187z"/>
    <path class="st1" d="M310.5,99.7h-44.1c-7.5,0-13.6,6.2-13.6,13.8v0.2l5.1,50c0.1,7.5,6.2,13.6,13.6,13.6h3.2v130
	c0,6.2,5.1,11.3,11.3,11.3h3.3c6.2,0,11.3-5.1,11.3-11.3v-130h4.7c7.4,0,13.5-6.1,13.6-13.6l5.1-49.9l0-0.3
	C324.1,105.9,318,99.7,310.5,99.7z M294.2,307.3c0,2.7-2.2,4.9-4.9,4.9h-3.3c-2.7,0-4.9-2.2-4.9-4.9v-130h13V307.3z M312.6,163.2
	l0,0.3c0,4.1-3.2,7.4-7.2,7.4h-33.8c-4,0-7.2-3.3-7.2-7.4v-0.2l-5.1-50c0.1-4,3.3-7.2,7.2-7.2h44.1c3.9,0,7.1,3.2,7.2,7.2
	L312.6,163.2z"/>
    <path class="st1" d="M276.4,117.7c-0.1-1.8-1.7-3.1-3.5-2.9c-1.8,0.1-3.1,1.7-2.9,3.5l3.3,40.5c0.1,1.7,1.5,3,3.2,3
	c0.1,0,0.2,0,0.3,0c1.8-0.1,3.1-1.7,2.9-3.5L276.4,117.7z"/>
    <path class="st1" d="M304,114.7c-1.8-0.1-3.3,1.2-3.5,2.9l-3.2,40.5c-0.1,1.8,1.2,3.3,2.9,3.5c0.1,0,0.2,0,0.3,0
	c1.7,0,3.1-1.3,3.2-2.9l3.3-40.5C307,116.4,305.7,114.9,304,114.7z"/>
    <path class="st1" d="M288,115.2c-1.8,0-3.2,1.4-3.2,3.2v38.9c0,1.8,1.4,3.2,3.2,3.2c1.8,0,3.2-1.4,3.2-3.2v-38.9
	C291.2,116.6,289.8,115.2,288,115.2z"/>
    <path class="st1" d="M219.8,177.7c0.8-1.3,0.8-3,0-4.3c-10-17.2-28.5-27.9-48.3-27.9c-2.4,0-4.3,1.9-4.3,4.3v25.8
	c0,2.4,1.9,4.3,4.3,4.3H216C217.6,179.9,219,179,219.8,177.7z M175.7,171.3v-17c12.5,1.2,24.1,7.3,32.1,17H175.7z"/>
    <path class="st1" d="M220,197h-79.9c-16.6,0-30.1,1.9-30.1,4.3s13.5,4.3,30.1,4.3H220V197z"/>
    <path class="st1" d="M175.7,119.9V98.3c0-2.4-1.9-4.3-4.3-4.3s-4.3,1.9-4.3,4.3v21.5H150c-11.4,0.1-22.9,0.2-34.3,0.3
	c-14.5,2.1-25.8,14.6-25.8,29.7v38.6c0,9.5,7.7,17.2,17.2,17.2h8.6v32.6H107c-9.5,0-17.2,7.7-17.2,17.2v28.3
	c0,9.5,7.7,17.2,17.2,17.2h8.6v8.6c0,2.4,1.9,4.3,4.3,4.3s4.3-1.9,4.3-4.3v-8.6h8.6c9.5,0,17.2-7.7,17.2-17.2v-28.3
	c0-9.5-7.7-17.2-17.2-17.2h-8.6v-32.6h27.9c2.4,0,4.3-1.9,4.3-4.3s-1.9-4.3-4.3-4.3H107c-4.7,0-8.6-3.9-8.6-8.6v-38.6
	c0-11.8,9.6-21.5,21.5-21.5h51.5c38.8,0,70.6,30.4,72.9,68.7h-37.1v8.6h41.5c2.4,0,4.3-1.9,4.3-4.3
	C253,157.8,218.7,122.1,175.7,119.9z M115.6,292.3H107c-4.7,0-8.6-3.9-8.6-8.6v-28.3c0-4.7,3.9-8.6,8.6-8.6h8.6V292.3z M124.2,246.8
	h8.6c4.7,0,8.6,3.9,8.6,8.6v28.3c0,4.7-3.9,8.6-8.6,8.6h-8.6V246.8z"/>
    <g>
	<rect class="st24" height="144" width="500" x="5" y="365"/>
        <text transform="matrix(1 0 0 1 112.5776 403.5557)"><tspan class="st23 st35 st36" x="0" y="0">Ustensiles de </tspan>
            <tspan class="st23 st35 st36" x="65.5" y="64.8">cuisine</tspan></text>
</g>
</svg>
