<svg id="Calque_1" data-name="Calque 1" xmlns="http://www.w3.org/2000/svg" viewBox="0 0 350 300"><title>selected</title><path d="M284.72,111.43A7.28,7.28,0,0,1,292,118.7v24.8h-17.8V118.7a7.28,7.28,0,0,1,7.27-7.27h3.26M275.65,48H265.59a9.42,9.42,0,0,0-9.41,9.42V137a10.54,10.54,0,0,0,10.53,10.53h3.48V257a11.27,11.27,0,0,0,11.27,11.26h3.26A11.28,11.28,0,0,0,296,257V147.5h3.48A10.54,10.54,0,0,0,310,137V82.35A34.39,34.39,0,0,0,275.65,48Zm-8.94,93.09a4.13,4.13,0,0,1-4.12-4.12V57.42a3,3,0,0,1,3-3h10.06a28,28,0,0,1,27.94,27.94V137a4.13,4.13,0,0,1-4.12,4.12H296V118.7a11.29,11.29,0,0,0-11.27-11.27h-3.26a11.28,11.28,0,0,0-11.27,11.27v22.39Zm14.75,120.72A4.87,4.87,0,0,1,276.6,257V147.5h13V257a4.87,4.87,0,0,1-4.86,4.86Z"/><path d="M235.5,49.72H191.44a13.69,13.69,0,0,0-13.59,13.76v.17l5.14,50a13.69,13.69,0,0,0,13.59,13.59h3.24v130a11.27,11.27,0,0,0,11.26,11.26h3.27a11.27,11.27,0,0,0,11.26-11.26v-130h4.75A13.69,13.69,0,0,0,244,113.69l5.12-49.88,0-.33A13.69,13.69,0,0,0,235.5,49.72Zm-38.92,71.15a7.28,7.28,0,0,1-7.18-7.35v-.17l-5.14-50a7.28,7.28,0,0,1,7.18-7.2H235.5a7.28,7.28,0,0,1,7.18,7.2l-5.13,49.86v.33a7.28,7.28,0,0,1-7.18,7.35Zm14.5,141.29a4.85,4.85,0,0,1-4.85-4.85v-130h13v130a4.85,4.85,0,0,1-4.85,4.85Z"/><path d="M198.24,64.71H198A3.21,3.21,0,0,0,195,68.18l3.25,40.48a3.2,3.2,0,0,0,3.19,3h.26a3.21,3.21,0,0,0,2.94-3.45l-3.25-40.49a3.21,3.21,0,0,0-3.19-3Z"/><path d="M228.7,64.71a3.2,3.2,0,0,0-3.19,3l-3.25,40.49a3.2,3.2,0,0,0,2.94,3.45h.26a3.21,3.21,0,0,0,3.19-2.94l3.25-40.49A3.21,3.21,0,0,0,229,64.72Z"/><path d="M213,65.19a3.21,3.21,0,0,0-3.21,3.21v38.91a3.21,3.21,0,0,0,6.42,0V68.4A3.21,3.21,0,0,0,213,65.19Z"/><path d="M96.44,99.51a52,52,0,0,1,44.43,25.19l-5-6a51.76,51.76,0,0,0-34.81-18.41l-4.37-.4v25.36h44.48l.08.15a.28.28,0,0,1,0,.29.29.29,0,0,1-.25.15H96.44a.31.31,0,0,1-.3-.3V99.81a.3.3,0,0,1,.3-.3m0-4a4.3,4.3,0,0,0-4.3,4.3v25.75a4.31,4.31,0,0,0,4.3,4.3H141a4.29,4.29,0,0,0,3.71-6.45,56,56,0,0,0-48.31-27.9Zm4.29,25.76v-17a47.43,47.43,0,0,1,32.1,17Z"/><path d="M141,151v.58H65.07c-4,0-7.63-.11-10.81-.29,3.18-.18,6.79-.29,10.81-.29H141m4-4H65.07C48.46,147,35,149,35,151.32s13.46,4.29,30.07,4.29H145V147Z"/><path d="M96.44,48a.29.29,0,0,1,.29.29V73.67l3.79.19A77.67,77.67,0,0,1,174,151.32a.29.29,0,0,1-.29.29H136.17V151h37.36l-.25-4.24A77,77,0,0,0,96.44,74.34H44.92A25.5,25.5,0,0,0,19.46,99.81v38.63A12.61,12.61,0,0,0,32.05,151H77.12a.29.29,0,1,1,0,.58H45.22v40.63H57.8A13.18,13.18,0,0,1,71,205.41v28.33A13.18,13.18,0,0,1,57.8,246.91H45.22V259.5a.3.3,0,0,1-.59,0V246.91H32.05a13.18,13.18,0,0,1-13.17-13.17V205.41a13.18,13.18,0,0,1,13.17-13.17H44.63V151.61H32.05a13.18,13.18,0,0,1-13.17-13.17V99.81A26.16,26.16,0,0,1,41,74.07l16.88-.16L75,73.76H96.14V48.29a.3.3,0,0,1,.3-.29M45.22,246.33H57.8a12.61,12.61,0,0,0,12.59-12.59V205.41A12.61,12.61,0,0,0,57.8,192.82H45.22v53.51m-13.17,0H44.63V192.82H32.05a12.61,12.61,0,0,0-12.59,12.59v28.33a12.61,12.61,0,0,0,12.59,12.59M96.44,44a4.3,4.3,0,0,0-4.3,4.29V69.76H75l-34.34.31A30.08,30.08,0,0,0,14.88,99.81v38.63a17.19,17.19,0,0,0,17.17,17.17h8.58v32.63H32.05a17.19,17.19,0,0,0-17.17,17.17v28.33a17.19,17.19,0,0,0,17.17,17.17h8.58v8.59a4.3,4.3,0,0,0,8.59,0v-8.59H57.8A17.19,17.19,0,0,0,75,233.74V205.41A17.19,17.19,0,0,0,57.8,188.24H49.22V155.61h27.9a4.29,4.29,0,0,0,0-8.58H32.05a8.6,8.6,0,0,1-8.59-8.59V99.81A21.49,21.49,0,0,1,44.92,78.34H96.44A73.07,73.07,0,0,1,169.29,147H132.17v8.58h41.54a4.29,4.29,0,0,0,4.29-4.29,81.67,81.67,0,0,0-77.27-81.45V48.29A4.29,4.29,0,0,0,96.44,44ZM49.22,242.33V196.82H57.8a8.6,8.6,0,0,1,8.59,8.59v28.33a8.6,8.6,0,0,1-8.59,8.59Zm-17.17,0a8.6,8.6,0,0,1-8.59-8.59V205.41a8.6,8.6,0,0,1,8.59-8.59h8.58v45.51Z"/></svg>