<?xml version="1.0" encoding="utf-8"?>
<!-- Generator: Adobe Illustrator 22.1.0, SVG Export Plug-In . SVG Version: 6.00 Build 0)  -->
<svg style="enable-background:new 0 0 500 500;" id="Calque_1" version="1.1" viewBox="0 0 500 500" x="0px"
     xmlns="http://www.w3.org/2000/svg" y="0px" xml:space="preserve">
<style type="text/css">
	.st0{fill:#EAEAEA;}
	.st1{fill:#8C8C8C;}
	.st2{fill:none;}
	.st3{fill:#6B6B6B;}
	.st4{font-family:'HelveticaNeue-CondensedBold';}
	.st5{font-size:54px;}
	.st6{fill:#FFFFFF;}
	.st7{fill:#EAEAEA;stroke:#8C8C8C;stroke-width:7;stroke-miterlimit:10;}
	.st8{fill:#070707;}
	.st9{fill:none;stroke:#8C8C8C;stroke-width:7;stroke-miterlimit:10;}
	.st10{fill:none;stroke:#8C8C8C;stroke-width:10;stroke-miterlimit:10;}
	.st11{fill:#8C8C8C;stroke:#8C8C8C;stroke-width:3;stroke-miterlimit:10;}
	.st12{fill:none;stroke:#8C8C8C;stroke-width:8;stroke-miterlimit:10;}
	.st13{fill:none;stroke:#8E8E8E;stroke-width:6;stroke-miterlimit:10;}
	.st14{fill:#8E8E8E;}
	.st15{fill:#505050;}
	.st16{fill:none;stroke:#8E8E8E;stroke-width:2;stroke-miterlimit:10;}
	.st17{fill:#8C8C8C;stroke:#8C8C8C;stroke-width:2;stroke-miterlimit:10;}
	.st18{fill:#8C8C8C;stroke:#FFFFFF;stroke-width:2;stroke-miterlimit:10;}
	.st19{fill:none;stroke:#FFFFFF;stroke-width:2;stroke-miterlimit:10;}
	.st20{fill:none;stroke:#8C8C8C;stroke-miterlimit:10;}
	.st21{fill:none;stroke:#8C8C8C;stroke-width:13;stroke-miterlimit:10;}
	.st22{fill:#EAEAEA;stroke:#8C8C8C;stroke-width:8;stroke-miterlimit:10;}
	.st23{fill:none;stroke:#8C8C8C;stroke-width:4;stroke-miterlimit:10;}
	.st24{fill:#8C8C8C;stroke:#8C8C8C;stroke-width:0.75;stroke-miterlimit:10;}
	.st25{fill:none;stroke:#8C8C8C;stroke-width:9;stroke-miterlimit:10;}
	.st26{fill:#8C8C8C;stroke:#8C8C8C;stroke-width:0.5;stroke-miterlimit:10;}
	.st27{stroke:#8C8C8C;stroke-width:8;stroke-miterlimit:10;}
	.st28{fill:#8C8C8C;stroke:#8C8C8C;stroke-miterlimit:10;}
	.st29{fill:none;stroke:#8C8C8C;stroke-width:11;stroke-miterlimit:10;}
	.st30{fill:none;stroke:#8C8C8C;stroke-width:6;stroke-miterlimit:10;}
	.st31{stroke:#8C8C8C;stroke-width:6;stroke-miterlimit:10;}
	.st32{fill:#8C8C8C;stroke:#8C8C8C;stroke-width:4;stroke-miterlimit:10;}
	.st33{fill:#8C8C8C;stroke:#8C8C8C;stroke-width:1.05;stroke-miterlimit:10;}
	.st34{fill:#D6D6D6;}
	.st35{fill:none;stroke:#EAEAEA;stroke-width:5;stroke-miterlimit:10;}
	.st36{fill:#8C8C8C;stroke:#8C8C8C;stroke-width:10;stroke-miterlimit:10;}
	.st37{fill:none;stroke:#CECECE;stroke-width:2;stroke-miterlimit:10;}
	.st38{fill:none;stroke:#FFFFFF;stroke-width:4;stroke-miterlimit:10;}
	.st39{fill-rule:evenodd;clip-rule:evenodd;fill:#8C8C8C;}
	.st40{fill:#8C8C8C;stroke:#8C8C8C;stroke-width:8;stroke-miterlimit:10;}
	.st41{fill:#8C8C8C;stroke:#8C8C8C;stroke-width:7;stroke-miterlimit:10;}
	.st42{fill:#DBDBDB;stroke:#8C8C8C;stroke-width:7;stroke-miterlimit:10;}
	.st43{fill:none;stroke:#8C8C8C;stroke-width:5;stroke-miterlimit:10;}
	.st44{fill:none;stroke:#8C8C8C;stroke-width:3;stroke-miterlimit:10;}
	.st45{clip-path:url(#SVGID_2_);fill:#8C8C8C;}
	.st46{clip-path:url(#SVGID_2_);fill:none;stroke:#8C8C8C;stroke-width:8;stroke-miterlimit:10;}
	.st47{clip-path:url(#SVGID_2_);fill:#FFFFFF;}
	.st48{clip-path:url(#SVGID_2_);fill:#EAEAEA;}
	.st49{clip-path:url(#SVGID_2_);fill:none;stroke:#8C8C8C;stroke-miterlimit:10;}
	.st50{fill:none;stroke:#FFFFFF;stroke-width:0.75;stroke-miterlimit:10;}
	.st51{fill:none;stroke:#8C8C8C;stroke-width:14;stroke-miterlimit:10;}
	.st52{fill:none;stroke:#EAEAEA;stroke-width:2;stroke-miterlimit:10;}
	.st53{fill:none;stroke:#8C8C8C;stroke-width:2;stroke-miterlimit:10;}
</style>
    <rect class="st0" height="500" width="500" x="2"/>
    <g>
	<rect class="st2" height="144" width="500" x="2" y="361"/>
        <text transform="matrix(1 0 0 1 187.5522 399.5557)"><tspan class="st3 st4 st5" x="0" y="0">Valise </tspan>
            <tspan class="st3 st4 st5" x="-47.4" y="64.8">diagnostic</tspan></text>
</g>
    <g>
	<path class="st1" d="M345.2,122.1l-55.6-0.1l0-9.4c0-9.1-7.4-16.6-16.5-16.6L247.9,96c-9.1,0-16.6,7.4-16.6,16.5l0,9.4l-55.6-0.1
		c-9.1,0-16.6,7.4-16.6,16.5l-0.3,132c0,9.1,7.4,16.6,16.5,16.6l169.5,0.4c9.1,0,16.6-7.4,16.6-16.5l0.3-132
		C361.7,129.6,354.3,122.1,345.2,122.1 M240,112.5c0-4.4,3.6-7.9,7.9-7.9l25.2,0.1c4.4,0,7.9,3.6,7.9,7.9l0,9.4l-41-0.1L240,112.5z"
    />
        <path class="st0" d="M352.9,205.1l-185.3-0.4l0.1-61.7c0-4.4,3.6-7.9,7.9-7.9l55.6,0.1l8.6,0l41,0.1l8.6,0l55.6,0.1
		c4.4,0,7.9,3.6,7.9,7.9L352.9,205.1L352.9,205.1z"/>
</g>
    <path class="st0" d="M352.8,261.8c0,5.7-3.6,10.4-7.9,10.4l-169.5-0.4c-4.4,0-7.9-4.7-7.9-10.4l0.2-81l185.3,0.4L352.8,261.8
	L352.8,261.8z"/>
    <g>
	<path class="st1" d="M299.4,195.3l-1.8-1.9l-6.4-17.4c-1.1-2.9-3.9-4.9-7-4.9l-46-0.1c-3.1,0-5.9,1.9-7,4.9l-6.4,17.1l-2.6,2.4
		c-2.3,2-3.6,4.8-3.6,7.8l-0.1,25.3c0,4.1,3.4,7.5,7.5,7.5l4.7,0c4.1,0,7.5-3.3,7.5-7.5l0-3.7l44.6,0.1l0,3.7c0,4.1,3.4,7.5,7.5,7.5
		l4.7,0c4.1,0,7.5-3.3,7.5-7.5l0.1-25.9C302.6,200,301.4,197.3,299.4,195.3 M234.5,177.1c0.6-1.5,2-2.5,3.7-2.5l46,0.1
		c1.6,0,3.1,1,3.6,2.5l5.6,15.1l-4.2,0c-1-6.7-7.2-11.4-14-10.4c-5.4,0.8-9.6,5-10.4,10.4l-35.9-0.1L234.5,177.1z M285.5,192.3
		l-17.1,0c1-4.7,5.6-7.7,10.4-6.7C282.2,186.3,284.8,188.9,285.5,192.3 M234.6,228.6c0,2.2-1.8,3.9-3.9,3.9l-4.7,0
		c-2.2,0-3.9-1.7-3.9-3.9l0-4.7c1.1,0.7,2.5,1,3.9,1.1l8.7,0L234.6,228.6z M298.9,228.7c0,2.2-1.8,3.9-3.9,3.9l-4.7,0
		c-2.2,0-3.9-1.8-3.9-3.9l0-3.7l8.7,0c1.4,0,2.8-0.3,3.9-1L298.9,228.7z M295,221.4l-69.1-0.2c-2.1,0-3.9-1.7-3.9-3.9l0-14.2
		c0-2,0.9-3.9,2.4-5.1l0.1-0.1l2.4-2.3l68.1,0.2l1.7,1.9c0,0,0.1,0.1,0.1,0.1c1.3,1.3,2.1,3.1,2.1,4.9l0,14.8l0,0
		C298.9,219.7,297.2,221.5,295,221.4"/>
        <path class="st1" d="M269.2,209.5l-17.4,0c-1,0-1.8,0.6-1.8,1.4c0,0.8,0.8,1.4,1.8,1.4l17.4,0c1,0,1.8-0.6,1.8-1.4
		S270.2,209.5,269.2,209.5"/>
        <path class="st1" d="M269.2,205l-17.4,0c-1,0-1.8,0.6-1.8,1.4c0,0.8,0.8,1.4,1.8,1.4l17.4,0c1,0,1.8-0.6,1.8-1.4
		S270.2,205,269.2,205"/>
        <path class="st1" d="M242.3,209.8c0,3.8-3.1,7-7,6.9c-3.8,0-7-3.1-6.9-7s3.1-7,7-6.9S242.3,205.9,242.3,209.8"/>
        <path class="st1"
              d="M294.4,209.9c0,3.8-3.1,7-7,6.9c-3.8,0-7-3.1-6.9-7c0-3.8,3.1-7,7-6.9S294.4,206,294.4,209.9"/>
        <path class="st1" d="M269.2,214l-17.4,0c-1,0-1.8,0.6-1.8,1.4c0,0.8,0.8,1.4,1.8,1.4l17.4,0c1,0,1.8-0.6,1.8-1.4
		C271,214.6,270.2,214,269.2,214"/>
</g>
</svg>
