<svg id="Calque_1" data-name="Calque 1" xmlns="http://www.w3.org/2000/svg" viewBox="0 0 350 300"><title>selected</title><path d="M96.63,171.21a30.07,30.07,0,1,1-30.06,30.07,30.1,30.1,0,0,1,30.06-30.07m0,59.13a29.07,29.07,0,1,0-29.06-29.06,29.09,29.09,0,0,0,29.06,29.06m0-63.13a34.07,34.07,0,1,0,34.07,34.07,34.11,34.11,0,0,0-34.07-34.07Zm0,59.13a25.07,25.07,0,1,1,25.07-25.06,25.09,25.09,0,0,1-25.07,25.06Z"/><path d="M96.63,189.21a12.07,12.07,0,1,1-12.06,12.07,12.08,12.08,0,0,1,12.06-12.07m0,23.13a11.07,11.07,0,1,0-11.06-11.06,11.07,11.07,0,0,0,11.06,11.06m0-27.13a16.07,16.07,0,1,0,16.07,16.07,16.09,16.09,0,0,0-16.07-16.07Zm0,23.13a7.07,7.07,0,1,1,7.07-7.06,7.07,7.07,0,0,1-7.07,7.06Z"/><path d="M251.56,32.27a17.91,17.91,0,0,1,17.88,17.89V179.62h22.24l9.94.21,4.38.09v14.37a.5.5,0,0,1-.5.5H287.72v37.05h-1V194.79H215.39c.15-.32.28-.66.4-1h52.65V62.64H211v94.65l-.5,0-.5,0v-21H33v57.52H50.13l.91-2.73a48.08,48.08,0,0,1,63.46-29.41,56.57,56.57,0,0,0-16.82-2.44H96.53c-5.22.07-19.09.23-29.28,9.89-4.33,4.09-11.57,11-14.12,20.91l-.1.36c-.33,1.35-.85,3.4-2.2,4.27a4.26,4.26,0,0,1-2.35.57,11.08,11.08,0,0,1-2.46-.32l-.44-.1H32.5a.5.5,0,0,1-.5-.5V50.16A17.91,17.91,0,0,1,49.88,32.27H251.56M33,61.64H268.44V50.16a16.9,16.9,0,0,0-16.88-16.88H49.88A16.9,16.9,0,0,0,33,50.16V61.64M92.33,86.19h58.34V62.64H92.33V86.19M33,86.19H91.33V62.64H33V86.19m118.67,0H210V62.64H151.67V86.19m0,24.54H210V87.19H151.67v23.54M33,110.73H91.33V87.19H33v23.54m59.33,0h58.34V87.19H92.33v23.54m59.34,24.54H210V111.73H151.67v23.54M33,135.27H91.33V111.73H33v23.54m59.33,0h58.34V111.73H92.33v23.54m177.11,58.52H305V180.62H269.44v13.17M132.56,174.34a47.12,47.12,0,0,1,3.17,4c-1.09-1.45-2.17-2.79-3.17-4m73.6,19.45c.13.36.26.7.39,1H147l-1,.64a6,6,0,0,1-1.45.74,7.85,7.85,0,0,1-.6-1.9l0-.11c0-.12,0-.25-.08-.37h62.33m45.4-165.52H49.88A21.91,21.91,0,0,0,28,50.16V194.29a4.49,4.49,0,0,0,4.5,4.5H45.12a15.28,15.28,0,0,0,3.36.42A8.25,8.25,0,0,0,53,198c2.86-1.85,3.57-5.32,4-7,2.27-8.84,9-15.17,13-19,9.09-8.61,22-8.73,26.63-8.79h1.05c5.16,0,20.44.61,29.32,10.79,3.57,4.09,11.26,12.91,13,21,.2.93.81,4.12,3,5a3.34,3.34,0,0,0,1.25.23,7.7,7.7,0,0,0,3.9-1.44H282.72v37.05h9V198.79H305.5a4.49,4.49,0,0,0,4.5-4.5V176l-18.28-.38H273.44V50.16a21.91,21.91,0,0,0-21.88-21.89ZM37,57.64V50.16A12.89,12.89,0,0,1,49.88,37.28H251.56a12.89,12.89,0,0,1,12.88,12.88v7.48Zm178,108v-99h49.44V189.79H215V166c-1.48,23.89-3,28-4,28h0c-1,0-2.67-4.08-5-28v23.76H146a52.06,52.06,0,0,0-98.77,0H37V140.27H206v25.5a4.5,4.5,0,0,1,9-.15ZM96.33,82.19V66.64h50.34V82.19ZM37,82.19V66.64H87.33V82.19Zm118.67,0V66.64H206V82.19Zm0,24.54V91.19H206v15.54ZM37,106.73V91.19H87.33v15.54Zm59.33,0V91.19h50.34v15.54Zm59.34,24.54V115.73H206v15.54ZM37,131.27V115.73H87.33v15.54Zm59.33,0V115.73h50.34v15.54Zm177.11,58.52v-5.17H301v5.17Z"/><path d="M202,64v70H41V64H202m4-4H37v78H206V60Z"/></svg>