<svg id="Calque_1" data-name="Calque 1" xmlns="http://www.w3.org/2000/svg" viewBox="0 0 350 300"><title>selected</title><path d="M159.58,144l-.57.21V144h.58m10.53,28.29v.21h-.58l.57-.21m38.7,15.46.59,0,1.71.06c-.73,1.14-1.49,2.25-2.3,3.33v-3.42M164.56,99.08a59.17,59.17,0,1,0,59.17,59.17,59.23,59.23,0,0,0-59.17-59.17ZM162.19,140a42.43,42.43,0,0,0-16.25-30,51.24,51.24,0,0,1,16.58-3.41,32.31,32.31,0,0,1,5.74,14.86,36,36,0,0,1-4.14,18.36,17.77,17.77,0,0,0-1.93.2Zm11.16,2.09a16.88,16.88,0,0,0-1.68-.9,43.12,43.12,0,0,0,4-20.1A32.87,32.87,0,0,0,171.29,107a51.46,51.46,0,0,1,18.78,6.29,35.3,35.3,0,0,1-16.72,28.85Zm-20,1.53a42.46,42.46,0,0,0-29.07-17.87,52,52,0,0,1,14.06-12.08A35.29,35.29,0,0,1,155,142.51a18.6,18.6,0,0,0-1.57,1.11Zm26.92,5c-.35-.54-.72-1.06-1.11-1.57A42.41,42.41,0,0,0,197.05,118h0a51.89,51.89,0,0,1,12.09,14.06,35.26,35.26,0,0,1-28.84,16.58Zm-67,2.89a51.4,51.4,0,0,1,6.3-18.79,35.34,35.34,0,0,1,28.82,16.72c-.32.55-.62,1.11-.89,1.69a43,43,0,0,0-18.19-4c-.63,0-1.27,0-1.91,0a33,33,0,0,0-14.13,4.37ZM199.79,162A35.86,35.86,0,0,1,183,157.81a18,18,0,0,0-.2-1.94,42.32,42.32,0,0,0,30-16.24,51.19,51.19,0,0,1,3.41,16.58A32.46,32.46,0,0,1,201.37,162c-.53,0-1.05,0-1.58,0Zm-35.23,7.36a11.1,11.1,0,1,1,11.09-11.09,11.08,11.08,0,0,1-11.09,11.09Zm-48.26,7.52a51.18,51.18,0,0,1-3.41-16.57,32.35,32.35,0,0,1,14.86-5.74c.57,0,1.14,0,1.7,0a35.35,35.35,0,0,1,16.66,4.17,18,18,0,0,0,.2,1.94,42.41,42.41,0,0,0-30,16.24Zm83.43-7.47c.66,0,1.31,0,2,0A33,33,0,0,0,215.85,165a51.47,51.47,0,0,1-6.31,18.8,35.22,35.22,0,0,1-15-3.92,36.25,36.25,0,0,1-13.86-12.81c.31-.57.65-1.09.9-1.68a43.45,43.45,0,0,0,18.12,4Zm-67.66,29.12A51.93,51.93,0,0,1,120,184.44a35.29,35.29,0,0,1,28.84-16.58c.35.54.72,1.06,1.11,1.57a42.41,42.41,0,0,0-17.86,29.08Zm58.68,4.32A35.32,35.32,0,0,1,174.17,174a18.6,18.6,0,0,0,1.57-1.11,42.46,42.46,0,0,0,29.07,17.87h0a52.21,52.21,0,0,1-14.06,12.09Zm-32.92,6.71a51.26,51.26,0,0,1-18.78-6.28,35.29,35.29,0,0,1,16.72-28.85,16.88,16.88,0,0,0,1.68.9,43.09,43.09,0,0,0-4,20.1,32.83,32.83,0,0,0,4.36,14.13Zm8.77.38a32.34,32.34,0,0,1-5.74-14.87A36,36,0,0,1,165,176.7a17.77,17.77,0,0,0,1.93-.2h0a42.43,42.43,0,0,0,16.25,30,51.51,51.51,0,0,1-16.58,3.41Z"/><path d="M164.56,84.28a74,74,0,1,0,74,74,74,74,0,0,0-74-74Zm0,140.54a66.57,66.57,0,1,1,66.57-66.57,66.58,66.58,0,0,1-66.57,66.57Z"/><path d="M252.69,166a88.34,88.34,0,0,1-51.86,73A89.64,89.64,0,0,0,229,216.63,107.94,107.94,0,0,0,252.69,166M206.43,26a7.15,7.15,0,0,0-2.08.29L133.35,47a7.39,7.39,0,0,0-5,9.18l2.07,7.1a7.42,7.42,0,0,0,9.17,5L150.8,65l.84,1.68a92.46,92.46,0,0,0,12.86,184c1.46,0,2.92,0,4.39-.1A92.47,92.47,0,0,0,257,158.25a90.87,90.87,0,0,0-7.73-37h15.12v18.49a11.1,11.1,0,0,0,11.1,11.09h7.4A11.1,11.1,0,0,0,294,139.76V43.6a11.09,11.09,0,0,0-11.09-11.09h-7.4a11.09,11.09,0,0,0-11.1,11.09V55.07l-48.15,5-6.4-12.23.71-.21a7.39,7.39,0,0,0,5-9.17l-2.07-7.1a7.41,7.41,0,0,0-7.1-5.32ZM137.49,61.21l-2.07-7.11,71-20.71,2.08,7.1-71,20.72Zm138,82.25a3.7,3.7,0,0,1-3.7-3.7V43.6a3.7,3.7,0,0,1,3.7-3.7h7.4a3.7,3.7,0,0,1,3.69,3.7v96.16a3.7,3.7,0,0,1-3.69,3.7Zm-116-77.6L158,62.92l44.62-13,5.71,10.93c-22.23,2.29-42.05,4.32-48.85,5Zm97.54,48V63.26l7.39-.77v51.38Zm-92.5,129.44A85.06,85.06,0,0,1,157.6,73.47c1.78-.14,60.77-6.22,92-9.45v49.85L241,114c4.33,9.14,10.17,24.95,8.62,44.25-3,36.76-32.48,83.66-82.74,85-.78,0-1.58,0-2.36,0Z"/></svg>