<svg id="Calque_1" data-name="Calque 1" xmlns="http://www.w3.org/2000/svg" viewBox="0 0 350 300"><defs><style>.cls-1{fill:none;stroke:#000;stroke-miterlimit:10;stroke-width:5px;}</style></defs><title>selected</title><g id="clock"><path d="M108.62,78.9a.83.83,0,1,1-.83.83.83.83,0,0,1,.83-.83m0-5a5.83,5.83,0,1,0,5.83,5.83,5.83,5.83,0,0,0-5.83-5.83Z"/><path d="M108.62,148.86a.83.83,0,1,1-.83.83.83.83,0,0,1,.83-.83m0-5a5.83,5.83,0,1,0,5.83,5.83,5.83,5.83,0,0,0-5.83-5.83Z"/><path d="M73.63,113.88a.83.83,0,1,1-.83.83.84.84,0,0,1,.83-.83m0-5a5.83,5.83,0,1,0,5.84,5.83,5.83,5.83,0,0,0-5.84-5.83Z"/><path d="M143.6,113.88a.83.83,0,1,1-.83.83.83.83,0,0,1,.83-.83m0-5a5.83,5.83,0,1,0,5.83,5.83,5.83,5.83,0,0,0-5.83-5.83Z"/><path d="M83.88,138.61a.83.83,0,1,1-.83.83.83.83,0,0,1,.83-.83m0-5a5.83,5.83,0,1,0,5.83,5.83,5.83,5.83,0,0,0-5.83-5.83Z"/><path d="M83.88,89.14a.83.83,0,1,1-.83.83.83.83,0,0,1,.83-.83m0-5A5.83,5.83,0,1,0,89.71,90a5.83,5.83,0,0,0-5.83-5.83Z"/><path d="M133.35,138.61a.83.83,0,1,1-.83.83.83.83,0,0,1,.83-.83m0-5a5.83,5.83,0,1,0,5.83,5.83,5.83,5.83,0,0,0-5.83-5.83Z"/><path d="M132.55,26.42a6.65,6.65,0,0,1,6.54,5.43l8.38,45.55.24,1.35.91,1a53.1,53.1,0,0,1,12.25,24.47l.89,4.46,4.53-.46a7.91,7.91,0,0,0,1.05-.2,6.66,6.66,0,0,1,0,13.3,6.84,6.84,0,0,0-.93-.19l-4.64-.62-.92,4.6A53,53,0,0,1,148,150.32l-1,1.05-.25,1.4-8.3,44.77a6.69,6.69,0,0,1-6.56,5.46H85.3a6.66,6.66,0,0,1-6.55-5.43l-8.24-44.83-.26-1.4-1-1.05a52.36,52.36,0,0,1,.61-71.9l1-1.07.27-1.44,8.16-44a6.67,6.67,0,0,1,6.55-5.45h46.65M73.17,74.29l9.42-5.48a51.63,51.63,0,0,1,53.27,0l9.42,5.48-2-10.71-5.83-31.41-.76-4.09H81.75L81,32.17,75.16,63.58l-2,10.71m35.45,92.07A51.65,51.65,0,1,0,57,114.71a51.7,51.7,0,0,0,51.65,51.65m0,1.66A52.57,52.57,0,0,1,82,160.61l-9.42-5.48,2,10.71,5.83,31.41.76,4.09h55l.76-4.09,5.83-31.41,2-10.71-9.41,5.48A52.57,52.57,0,0,1,108.62,168m23.93-146.6H85.9A11.68,11.68,0,0,0,74.43,31L66.27,75a57.36,57.36,0,0,0-.68,78.68l8.24,44.82A11.66,11.66,0,0,0,85.3,208h46.64a11.68,11.68,0,0,0,11.47-9.53l8.3-44.79a57.94,57.94,0,0,0,14.07-27.55,8.88,8.88,0,0,0,1.14.24,11.66,11.66,0,1,0,0-23.32,11,11,0,0,0-1.14.23,57.91,57.91,0,0,0-13.4-26.78L144,31a11.65,11.65,0,0,0-11.46-9.53ZM80.07,64.49,85.9,33.08h46.65l5.83,31.41a56.64,56.64,0,0,0-58.31,0Zm28.55,96.87a46.65,46.65,0,1,1,46.64-46.65,46.71,46.71,0,0,1-46.64,46.65Zm0,11.66a57.78,57.78,0,0,0,29.15-8.09l-5.83,31.41H85.3l-5.83-31.41A57.76,57.76,0,0,0,108.62,173Z"/><line class="cls-1" x1="109.22" y1="113.03" x2="109.22" y2="79.73"/><line class="cls-1" x1="86.91" y1="137.49" x2="109.22" y2="111.76"/><path d="M133.35,89.14a.83.83,0,1,1-.83.83.83.83,0,0,1,.83-.83m0-5A5.83,5.83,0,1,0,139.18,90a5.83,5.83,0,0,0-5.83-5.83Z"/></g><path d="M234.69,63.25a52,52,0,1,0,36.78,15.24,51.63,51.63,0,0,0-36.78-15.24Zm0,100.71a48.7,48.7,0,1,1,48.7-48.7,48.75,48.75,0,0,1-48.7,48.7Z"/><path d="M199.87,113.6a1.66,1.66,0,0,0-1.66,1.66,36.53,36.53,0,0,0,36.48,36.49,1.66,1.66,0,0,0,0-3.32,33.21,33.21,0,0,1-33.16-33.17,1.66,1.66,0,0,0-1.66-1.66Z"/></svg>