<?xml version="1.0" encoding="utf-8"?>
<!-- Generator: Adobe Illustrator 22.1.0, SVG Export Plug-In . SVG Version: 6.00 Build 0)  -->
<svg style="enable-background:new 0 0 500 500;" id="Calque_1" version="1.1" viewBox="0 0 500 500" x="0px"
     xmlns="http://www.w3.org/2000/svg" y="0px" xml:space="preserve">
<style type="text/css">
	.st0{fill:#EAEAEA;}
	.st1{fill:#8C8C8C;}
	.st2{fill:#FFFFFF;}
	.st3{fill:#EAEAEA;stroke:#8C8C8C;stroke-width:7;stroke-miterlimit:10;}
	.st4{fill:#070707;}
	.st5{fill:none;stroke:#8C8C8C;stroke-width:7;stroke-miterlimit:10;}
	.st6{fill:none;stroke:#8C8C8C;stroke-width:10;stroke-miterlimit:10;}
	.st7{fill:#8C8C8C;stroke:#8C8C8C;stroke-width:3;stroke-miterlimit:10;}
	.st8{fill:none;stroke:#8C8C8C;stroke-width:8;stroke-miterlimit:10;}
	.st9{fill:none;stroke:#8E8E8E;stroke-width:6;stroke-miterlimit:10;}
	.st10{fill:#8E8E8E;}
	.st11{fill:#505050;}
	.st12{fill:none;stroke:#8E8E8E;stroke-width:2;stroke-miterlimit:10;}
	.st13{fill:#8C8C8C;stroke:#8C8C8C;stroke-width:2;stroke-miterlimit:10;}
	.st14{fill:#8C8C8C;stroke:#FFFFFF;stroke-width:2;stroke-miterlimit:10;}
	.st15{fill:none;stroke:#FFFFFF;stroke-width:2;stroke-miterlimit:10;}
	.st16{fill:none;stroke:#8C8C8C;stroke-miterlimit:10;}
	.st17{fill:none;stroke:#8C8C8C;stroke-width:13;stroke-miterlimit:10;}
	.st18{fill:#EAEAEA;stroke:#8C8C8C;stroke-width:8;stroke-miterlimit:10;}
	.st19{fill:none;stroke:#8C8C8C;stroke-width:4;stroke-miterlimit:10;}
	.st20{fill:#8C8C8C;stroke:#8C8C8C;stroke-width:0.75;stroke-miterlimit:10;}
	.st21{fill:none;stroke:#8C8C8C;stroke-width:9;stroke-miterlimit:10;}
	.st22{fill:#8C8C8C;stroke:#8C8C8C;stroke-width:0.5;stroke-miterlimit:10;}
	.st23{fill:#6B6B6B;}
	.st24{fill:none;}
	.st25{stroke:#8C8C8C;stroke-width:8;stroke-miterlimit:10;}
	.st26{fill:#8C8C8C;stroke:#8C8C8C;stroke-miterlimit:10;}
	.st27{fill:none;stroke:#8C8C8C;stroke-width:11;stroke-miterlimit:10;}
	.st28{fill:none;stroke:#8C8C8C;stroke-width:6;stroke-miterlimit:10;}
	.st29{stroke:#8C8C8C;stroke-width:6;stroke-miterlimit:10;}
	.st30{fill:#8C8C8C;stroke:#8C8C8C;stroke-width:4;stroke-miterlimit:10;}
	.st31{fill:#8C8C8C;stroke:#8C8C8C;stroke-width:1.05;stroke-miterlimit:10;}
	.st32{fill:#D6D6D6;}
	.st33{fill:none;stroke:#EAEAEA;stroke-width:5;stroke-miterlimit:10;}
	.st34{fill:#8C8C8C;stroke:#8C8C8C;stroke-width:10;stroke-miterlimit:10;}
	.st35{font-family:'HelveticaNeue-CondensedBold';}
	.st36{font-size:54px;}
	.st37{fill:none;stroke:#CECECE;stroke-width:2;stroke-miterlimit:10;}
	.st38{fill:none;stroke:#FFFFFF;stroke-width:4;stroke-miterlimit:10;}
	.st39{fill-rule:evenodd;clip-rule:evenodd;fill:#8C8C8C;}
	.st40{fill:#8C8C8C;stroke:#8C8C8C;stroke-width:8;stroke-miterlimit:10;}
	.st41{fill:#8C8C8C;stroke:#8C8C8C;stroke-width:7;stroke-miterlimit:10;}
	.st42{fill:#DBDBDB;stroke:#8C8C8C;stroke-width:7;stroke-miterlimit:10;}
	.st43{fill:none;stroke:#8C8C8C;stroke-width:5;stroke-miterlimit:10;}
	.st44{fill:none;stroke:#8C8C8C;stroke-width:3;stroke-miterlimit:10;}
	.st45{clip-path:url(#SVGID_2_);fill:#8C8C8C;}
	.st46{clip-path:url(#SVGID_2_);fill:none;stroke:#8C8C8C;stroke-width:8;stroke-miterlimit:10;}
	.st47{clip-path:url(#SVGID_2_);fill:#FFFFFF;}
	.st48{clip-path:url(#SVGID_2_);fill:#EAEAEA;}
	.st49{clip-path:url(#SVGID_2_);fill:none;stroke:#8C8C8C;stroke-miterlimit:10;}
	.st50{fill:none;stroke:#FFFFFF;stroke-width:0.75;stroke-miterlimit:10;}
	.st51{fill:none;stroke:#8C8C8C;stroke-width:14;stroke-miterlimit:10;}
	.st52{fill:none;stroke:#EAEAEA;stroke-width:2;stroke-miterlimit:10;}
	.st53{fill:none;stroke:#8C8C8C;stroke-width:2;stroke-miterlimit:10;}
</style>
    <rect class="st0" height="500" width="500" x="2" y="3"/>
    <path class="st1" d="M224.4,160.4c-1.8-0.5-3-2-3-3.9V91c0-2.2-1.8-4-4-4h-24.2c-2.2,0-4,1.8-4,4v65.5c0,1.8-1.3,3.4-3,3.9
	c-12.4,3.2-21.1,14.4-21.1,27.3v136.9c0,2.2,1.8,4,4,4h72.5c2.2,0,4-1.8,4-4V187.6C245.5,174.8,236.8,163.6,224.4,160.4z
	 M197.2,95.1h16.1v8.1h-16.1V95.1z M173.1,320.5v-36.2h64.4v36.2H173.1z M237.5,211.8h-64.4v-24.2c0-9.2,6.2-17.2,15.1-19.5
	c5.3-1.4,9.1-6.2,9.1-11.7v-45.3h16.1v45.3c0,5.5,3.7,10.3,9.1,11.7c8.9,2.3,15.1,10.3,15.1,19.5V211.8z"/>
    <path class="st1" d="M311,177c-6-9.6-9.2-20.7-9.2-32V91c0-2.2-1.8-4-4-4h-24.2c-2.2,0-4,1.8-4,4v54c0,11.3-3.2,22.4-9.2,32
	l-0.6,0.9c-6.8,10.9-10.4,23.4-10.4,36.3v110.3c0,2.2,1.8,4,4,4H318c2.2,0,4-1.8,4-4V214.2c0-12.8-3.6-25.4-10.4-36.3L311,177z
	 M277.7,95.1h16.1v8.1h-16.1V95.1z M313.9,320.5h-56.4V214.2c0-11.3,3.2-22.4,9.2-32l0.6-0.9c6.8-10.9,10.4-23.4,10.4-36.3v-33.9
	h16.1V145c0,12.8,3.6,25.4,10.4,36.3l0.5,0.9c6,9.6,9.2,20.7,9.2,32V320.5z"/>
    <g>
	<rect class="st24" height="144" width="500" x="-3" y="365"/>
        <text class="st23 st35 st36" transform="matrix(1 0 0 1 201.0195 403.5557)">Vins</text>
</g>
</svg>
