<svg id="Calque_1" data-name="Calque 1" xmlns="http://www.w3.org/2000/svg" viewBox="0 0 350 300"><title>selected</title><path d="M142.33,41l0,0v65.49a8,8,0,0,0,6,7.71,24.18,24.18,0,0,1,18.12,23.41l0,136.9-72.49,0V137.64a24.17,24.17,0,0,1,18.1-23.4,8,8,0,0,0,6.05-7.75l0-65.49h24.15M118.21,57.1h24.1V41.05h-24.1V57.1M94.05,165.79h72.41V137.64a24.12,24.12,0,0,0-18.09-23.35,8.07,8.07,0,0,1-6.06-7.8V57.15h-24.1v49.33a8.1,8.1,0,0,1-6.08,7.8,24.12,24.12,0,0,0-18.08,23.36v28.15m0,108.7h72.41V230.26H94.05v44.23M142.33,37H118.18a4,4,0,0,0-4,4v65.46a4,4,0,0,1-3,3.87A28.18,28.18,0,0,0,90,137.64V274.51a4,4,0,0,0,4,4h72.46a4,4,0,0,0,4-4V137.64a28.18,28.18,0,0,0-21.12-27.28,4,4,0,0,1-3-3.87V41a4,4,0,0,0-4-4ZM122.21,53.1V45.05h16.1V53.1ZM98.05,161.79V137.64a20.13,20.13,0,0,1,15.08-19.49,12.08,12.08,0,0,0,9.08-11.66V61.15h16.1v45.34a12.07,12.07,0,0,0,9.07,11.67,20.12,20.12,0,0,1,15.08,19.48v24.15Zm0,108.7V234.26h64.41v36.23Z"/><path d="M222.85,41l0,0V95a64.35,64.35,0,0,0,9.79,34.14l.54.85a64.41,64.41,0,0,1,9.8,34.17l0,110.37-64.43,0V164.16A64.2,64.2,0,0,1,188.32,130l.57-.91A64.25,64.25,0,0,0,198.67,95l0-54h24.16M198.72,57.1h24.1V41.05h-24.1V57.1M178.59,274.49H243V164.17A64.35,64.35,0,0,0,233.16,130l-.54-.85A64.41,64.41,0,0,1,222.82,95V57.15h-24.1V95a64.3,64.3,0,0,1-9.79,34.13l-.57.9a64.39,64.39,0,0,0-9.77,34.12V274.49M222.85,37H198.69a4,4,0,0,0-4,4V95a60.35,60.35,0,0,1-9.17,32l-.56.88a68.36,68.36,0,0,0-10.4,36.28V274.51a4,4,0,0,0,4,4H243a4,4,0,0,0,4-4V164.17a68.37,68.37,0,0,0-10.41-36.29l-.54-.86a60.39,60.39,0,0,1-9.18-32V41a4,4,0,0,0-4-4ZM202.72,53.1V45.05h16.1V53.1ZM182.59,270.49V164.17a60.35,60.35,0,0,1,9.17-32l.56-.88A68.44,68.44,0,0,0,202.72,95V61.15h16.1V95a68.46,68.46,0,0,0,10.41,36.29l.55.86a60.47,60.47,0,0,1,9.17,32V270.49Z"/></svg>