<?xml version="1.0" encoding="utf-8"?>
<!-- Generator: Adobe Illustrator 22.1.0, SVG Export Plug-In . SVG Version: 6.00 Build 0)  -->
<svg style="enable-background:new 0 0 500 500;" id="Calque_1" version="1.1" viewBox="0 0 500 500" x="0px"
     xmlns="http://www.w3.org/2000/svg" y="0px" xml:space="preserve">
<style type="text/css">
	.st0{fill:#EAEAEA;}
	.st1{fill:#8C8C8C;}
	.st2{fill:#FFFFFF;}
	.st3{fill:#EAEAEA;stroke:#8C8C8C;stroke-width:7;stroke-miterlimit:10;}
	.st4{fill:#070707;}
	.st5{fill:none;stroke:#8C8C8C;stroke-width:7;stroke-miterlimit:10;}
	.st6{fill:none;stroke:#8C8C8C;stroke-width:10;stroke-miterlimit:10;}
	.st7{fill:#8C8C8C;stroke:#8C8C8C;stroke-width:3;stroke-miterlimit:10;}
	.st8{fill:none;stroke:#8C8C8C;stroke-width:8;stroke-miterlimit:10;}
	.st9{fill:none;stroke:#8E8E8E;stroke-width:6;stroke-miterlimit:10;}
	.st10{fill:#8E8E8E;}
	.st11{fill:#505050;}
	.st12{fill:none;stroke:#8E8E8E;stroke-width:2;stroke-miterlimit:10;}
	.st13{fill:#8C8C8C;stroke:#8C8C8C;stroke-width:2;stroke-miterlimit:10;}
	.st14{fill:#8C8C8C;stroke:#FFFFFF;stroke-width:2;stroke-miterlimit:10;}
	.st15{fill:none;stroke:#FFFFFF;stroke-width:2;stroke-miterlimit:10;}
	.st16{fill:none;stroke:#8C8C8C;stroke-miterlimit:10;}
	.st17{fill:none;stroke:#8C8C8C;stroke-width:13;stroke-miterlimit:10;}
	.st18{fill:#EAEAEA;stroke:#8C8C8C;stroke-width:8;stroke-miterlimit:10;}
	.st19{fill:none;stroke:#8C8C8C;stroke-width:4;stroke-miterlimit:10;}
	.st20{fill:#8C8C8C;stroke:#8C8C8C;stroke-width:0.75;stroke-miterlimit:10;}
	.st21{fill:none;stroke:#8C8C8C;stroke-width:9;stroke-miterlimit:10;}
	.st22{fill:#8C8C8C;stroke:#8C8C8C;stroke-width:0.5;stroke-miterlimit:10;}
	.st23{fill:#6B6B6B;}
	.st24{fill:none;}
	.st25{stroke:#8C8C8C;stroke-width:8;stroke-miterlimit:10;}
	.st26{fill:#8C8C8C;stroke:#8C8C8C;stroke-miterlimit:10;}
	.st27{fill:none;stroke:#8C8C8C;stroke-width:11;stroke-miterlimit:10;}
	.st28{fill:none;stroke:#8C8C8C;stroke-width:6;stroke-miterlimit:10;}
	.st29{stroke:#8C8C8C;stroke-width:6;stroke-miterlimit:10;}
	.st30{fill:#8C8C8C;stroke:#8C8C8C;stroke-width:4;stroke-miterlimit:10;}
	.st31{fill:#8C8C8C;stroke:#8C8C8C;stroke-width:1.05;stroke-miterlimit:10;}
	.st32{fill:#D6D6D6;}
	.st33{font-family:'HelveticaNeue-CondensedBold';}
	.st34{font-size:54px;}
	.st35{fill:none;stroke:#EAEAEA;stroke-width:5;stroke-miterlimit:10;}
	.st36{fill:#8C8C8C;stroke:#8C8C8C;stroke-width:10;stroke-miterlimit:10;}
	.st37{fill:none;stroke:#CECECE;stroke-width:2;stroke-miterlimit:10;}
	.st38{fill:none;stroke:#FFFFFF;stroke-width:4;stroke-miterlimit:10;}
	.st39{fill-rule:evenodd;clip-rule:evenodd;fill:#8C8C8C;}
	.st40{fill:#8C8C8C;stroke:#8C8C8C;stroke-width:8;stroke-miterlimit:10;}
	.st41{fill:#8C8C8C;stroke:#8C8C8C;stroke-width:7;stroke-miterlimit:10;}
	.st42{fill:#DBDBDB;stroke:#8C8C8C;stroke-width:7;stroke-miterlimit:10;}
	.st43{fill:none;stroke:#8C8C8C;stroke-width:5;stroke-miterlimit:10;}
	.st44{fill:none;stroke:#8C8C8C;stroke-width:3;stroke-miterlimit:10;}
	.st45{clip-path:url(#SVGID_2_);fill:#8C8C8C;}
	.st46{clip-path:url(#SVGID_2_);fill:none;stroke:#8C8C8C;stroke-width:8;stroke-miterlimit:10;}
	.st47{clip-path:url(#SVGID_2_);fill:#FFFFFF;}
	.st48{clip-path:url(#SVGID_2_);fill:#EAEAEA;}
	.st49{clip-path:url(#SVGID_2_);fill:none;stroke:#8C8C8C;stroke-miterlimit:10;}
	.st50{fill:none;stroke:#FFFFFF;stroke-width:0.75;stroke-miterlimit:10;}
	.st51{fill:none;stroke:#8C8C8C;stroke-width:14;stroke-miterlimit:10;}
	.st52{fill:none;stroke:#EAEAEA;stroke-width:2;stroke-miterlimit:10;}
	.st53{fill:none;stroke:#8C8C8C;stroke-width:2;stroke-miterlimit:10;}
</style>
    <rect class="st0" height="500" width="500" x="-1" y="1"/>
    <rect class="st30" height="10.1" transform="matrix(2.094713e-02 -0.9998 0.9998 2.094713e-02 -46.2846 492.6507)"
          width="2.3" x="227.2" y="264.9"/>
    <path class="st30" d="M240.2,53.5l-1.5,0c-1-1.9-2-3.8-3-5.7l-11.2-0.1c-0.9,0-1.7,0.2-2.3,0.7c-0.6,0.4-1,1.1-1,1.7l-0.1,3.2
	l-1.5,0c-1.2,0-2.2,0.7-2.2,1.6c0,0.9,0.9,1.6,2.1,1.6l1.5,0l-0.1,3.2c0,0.6,0.3,1.3,0.9,1.7c0.5,0.4,1.2,0.6,1.9,0.7l-0.2,4.4
	l-2.3,0c-1.2,0-2.2,0.7-2.2,1.6c0,0.9,0.9,1.6,2.1,1.6l2.3,0l-0.1,2.5l-2.3,0c-1.2,0-2.2,0.7-2.2,1.6c0,0.9,0.9,1.6,2.1,1.6l2.3,0
	l-0.1,1.4c-1.2,1-1.9,2.2-2,3.5l-3.2,51.5c-0.3,0.1-4.2,1.6-4.8,5c-0.1,0.5-0.1,1.2,0.1,2l4.4-2.7l-3.2,52.1l4.3,0
	c2.3-35.9,4.5-71.9,6.8-107.8c0-0.5,0.3-0.9,0.7-1.3l5.9,0.1c0.4,0.4,0.6,0.8,0.6,1.3c-0.3,35.9-0.7,71.9-1,107.8l3.7,0l0.8-52.1
	l4.8,3.2c-0.2-0.8-0.3-1.5-0.4-2c-0.2-1.4-4.4-5.5-4.4-5.5l0.8-51.5c0-1.3-0.6-2.6-1.7-3.6l0.2-4.1l2.3,0c0.6,0,1.1-0.2,1.5-0.5
	c0.4-0.3,0.7-0.7,0.7-1.1c0-0.9-0.9-1.6-2.1-1.6l-2.3,0l0.1-2.5l2.3,0c0.6,0,1.1-0.2,1.5-0.5c0.4-0.3,0.7-0.7,0.7-1.1
	c0-0.9-0.9-1.6-2.1-1.6l-2.3,0l0.1-1.8c0.7-0.1,1.4-0.3,1.9-0.7c0.6-0.4,1-1.1,1-1.7l0.1-3.2l1.5,0c0.6,0,1.1-0.2,1.5-0.5
	c0.4-0.3,0.7-0.7,0.7-1.1C242.4,54.3,241.4,53.6,240.2,53.5z M230.7,76.2l-3.3,0l0.5-13.9l3.3,0L230.7,76.2z M234.2,59.1l-9-0.1
	l0.3-8l9,0.1L234.2,59.1z"/>
    <path class="st30" d="M184.9,298c-4-2.7-15.7-13.1-16-27.3c-0.4-17,15.9-31.5,20.7-35.7c6.3-5.6,10.6-7.4,14.6-14.5
	c4.9-8.7,5.6-19.3,2.4-21.1c-2.3-1.3-5.5,2.8-10,1.3c-2.6-0.9-4-3-5.1-4.8c-4-6.3-3.5-13.5-3-16.8c0.3-12.2,5.9-23.7,15.4-31.3
	l12.2-9.8c-0.1-1.8-0.2-3.5-0.3-5.3l-14.6,11.7c-10.5,8.5-16.8,21.1-17,34.6c-0.1,6.9,0.8,11,1.1,12.1c1.1,3.8,2.2,7.5,5.3,9.8
	c5.1,3.9,10.3,0.3,13.1,3.6c3,3.5-0.2,11.4-3.5,16.1c-4.1,5.9-9.2,8.3-12.7,10.4c-12.5,7.6-23.3,24.4-22.9,39.5
	c0.4,16.5,13.6,28.1,17.9,31c8.9,6,20.3,10,32.9,11.6c-0.1-1.5-0.3-2.9-0.5-4.4C203.4,307.2,193,303.5,184.9,298z"/>
    <path class="st20" d="M231.1,243.9c-0.8,0.3-1.4,1.1-1.4,2c0,1.2,0.9,2.2,2.1,2.2l1.3,0c0.6,0,1.1-0.2,1.5-0.6
	c0.4-0.4,0.7-0.9,0.7-1.5l0-1.4c0-1.4,1.2-2.6,2.6-2.5c1.4,0,2.6,1.2,2.5,2.6l-0.6,25.8c-0.1,3.8,2.9,7,6.8,7c1.9,0,3.6-0.7,4.9-1.9
	c1.1-1.1,1.9-2.6,2.1-4.2c0.8-0.3,1.4-1.1,1.4-2c0-1.2-0.9-2.2-2.1-2.2l-1.3,0c-1.2,0-2.2,0.9-2.2,2.1l0,1.4c0,1.4-1.2,2.6-2.6,2.5
	c-1.4,0-2.6-1.2-2.5-2.6l0.6-25.8c0.1-3.8-2.9-7-6.8-7C234.5,237.6,231.4,240.4,231.1,243.9z"/>
    <path class="st20" d="M217.5,238.3c-3.8,0.3-6.6,3.7-6.3,7.4l2.1,25.7c0.1,1.4-0.9,2.7-2.4,2.8c-1.4,0.1-2.7-0.9-2.8-2.4l-0.1-1.4
	c-0.1-1.2-1.1-2.1-2.3-2l-1.3,0.1c-1.2,0.1-2.1,1.1-2,2.3c0.1,0.9,0.7,1.6,1.5,1.9c0.3,1.7,1.1,3.1,2.3,4.1c1.3,1.1,3.1,1.8,5,1.6
	c3.8-0.3,6.6-3.7,6.3-7.4l-2.1-25.7c-0.1-1.4,0.9-2.7,2.4-2.8c1.4-0.1,2.7,0.9,2.8,2.4l0.1,1.4c0,0.6,0.3,1.1,0.8,1.5
	c0.4,0.4,1,0.6,1.6,0.5l1.3-0.1c1.2-0.1,2.1-1.1,2-2.3c-0.1-0.9-0.7-1.6-1.5-1.9C224.3,240.6,221.1,238,217.5,238.3z"/>
    <path class="st30" d="M266.2,298.4c4.1-2.6,15.9-12.6,16.5-26.6c0.7-16.7-15.2-31.4-19.9-35.7c-6.2-5.7-10.5-7.5-14.3-14.6
	c-4.7-8.7-5.2-19.2-1.9-20.9c2.4-1.2,5.4,2.9,9.9,1.5c2.6-0.8,4-2.9,5.3-4.7c4.2-6.2,3.7-13.3,3.3-16.5c0-12.1-5.4-23.5-14.8-31.3
	l-12-9.9c0.1-1.7,0.3-3.5,0.4-5.2l14.4,11.9c10.4,8.6,16.3,21.2,16.3,34.6c0,6.8-1.1,10.9-1.4,11.9c-1.2,3.8-2.3,7.3-5.5,9.6
	c-5.2,3.8-10.3,0.1-13.2,3.3c-3,3.4,0,11.2,3.2,16c4,6,9,8.4,12.5,10.5c12.4,7.8,22.7,24.6,22,39.5c-0.8,16.3-14.2,27.4-18.5,30.2
	c-9,5.8-20.5,9.5-33.1,10.8c0.1-1.5,0.4-2.9,0.6-4.3C247.6,307.1,258,303.6,266.2,298.4z"/>
    <path class="st7" d="M237.3,313.6l-18.5,0.6c-5.6,0.2-10.4-4.3-10.6-9.9h0c-0.2-5.6,4.3-10.4,9.9-10.6l18.5-0.6
	c5.6-0.2,10.4,4.3,10.6,9.9v0C247.4,308.7,242.9,313.5,237.3,313.6z"/>
    <path class="st1" d="M300.1,289.3c-0.5,1-3.5,7-0.8,12c3.3,6.1,12.5,7.2,18.8,4.2c7.7-3.7,8.8-12.8,8.9-13.4
	c0.5-93.6,0.9-220.7-0.2-227.4c-0.1-0.8-0.5-1.4-0.5-1.4c-15.3-3-23.1-3.7-23.6-2.1c-0.1,0.5,0.3,1.1,1.4,2c5.5,1.4,11,2.8,16.6,4.2
	c0.5,112.3-0.1,194.3-1.5,207.2c-0.3,2.7-1.1,9.1-5.8,12.6C309.3,290.1,304.1,290,300.1,289.3z"/>
    <line class="st30" x1="303.9" x2="304.1" y1="61.1" y2="289.6"/>
    <g>
	<rect class="st24" height="144" width="500" y="362"/>
        <text class="st23 st33 st34" transform="matrix(1 0 0 1 183.6079 400.5557)">Violon</text>
</g>
</svg>
