<svg id="Calque_1" data-name="Calque 1" xmlns="http://www.w3.org/2000/svg" viewBox="0 0 350 300"><title>selected</title><path d="M126.57,20H68.7A4.19,4.19,0,0,0,65,22.48a4.92,4.92,0,0,0,.41,4.13l12.4,16.54A3.77,3.77,0,0,0,81.1,44.8h4.13v9l-2.89-.72a4.91,4.91,0,0,0-.92-.08A4.58,4.58,0,0,0,77,56.37c-.42,2.07.82,4.14,3.3,5l5,1.24v8.17L82.34,70a3,3,0,0,0-1.14-.21,4.08,4.08,0,0,0-3.82,3.11c-.83,2.06.83,4.54,2.89,5l5,1.24v8.16l-2.89-.72a3,3,0,0,0-1.14-.22,4.09,4.09,0,0,0-3.82,3.11c-.83,2.07.83,4.55,2.89,5l5,1.24v8.16l-2.89-.72a3,3,0,0,0-1.14-.22A4.09,4.09,0,0,0,77.38,106c-.83,2.07.83,4.55,2.89,5l5,1.24v8.17l-2.89-.73a3,3,0,0,0-1.14-.21,4.08,4.08,0,0,0-3.82,3.11c-.83,2.06.83,4.54,2.89,5l5,1.24a160.4,160.4,0,0,0,8.65,49.6,4,4,0,0,0,3.72,2.89,5,5,0,0,0,4.14-2.89,173.79,173.79,0,0,0,8-43.46l3.54.88h.83a4.11,4.11,0,0,0,4.13-2.89c.83-2.07-.83-4.55-2.89-5L110,126.54v-8.17l3.31.83h.83a4.11,4.11,0,0,0,4.13-2.89c.83-2.07-.83-4.55-2.89-5L110,110v-8.16l3.31.83h.83a4.1,4.1,0,0,0,4.13-2.9c.83-2.06-.83-4.54-2.89-5L110,93.47V85.31l3.31.82h.83a4.11,4.11,0,0,0,4.13-2.89c.83-2.07-.83-4.55-2.89-5L110,76.94V68.77l3.31.83h.83a4,4,0,0,0,4.13-3.31c.83-2.06-.83-4.54-2.89-5L110,60V44.8h4.13a3.77,3.77,0,0,0,3.31-1.65l12.4-16.54a3.72,3.72,0,0,0,.41-4.13A4,4,0,0,0,126.57,20ZM83.17,36.53,77,28.27H118.3l-6.2,8.26H83.17Zm18.6,21.39L93.5,55.86V44.8h8.27V57.92Zm0,17L93.5,72.8V64.64l8.27,2.07v8.16Zm0,16.53L93.5,89.34V81.17l8.27,2.07V91.4Zm0,16.54-8.27-2.07V97.71l8.27,2.06v8.17Zm0,16.53L93.5,122.4v-8.16l8.27,2.07v8.16Zm-4.14,37.72a150.84,150.84,0,0,1-4.07-31.4l8.08,2a142.16,142.16,0,0,1-4,29.38Z"/><path d="M205.1,20H147.23a4.76,4.76,0,0,0-3.72,2.48,3.8,3.8,0,0,0,.42,4.13l12.4,16.54a3.74,3.74,0,0,0,3.3,1.65h4.14v9.4l-2.9-.72a3,3,0,0,0-1.14-.22,4.09,4.09,0,0,0-3.82,3.11,3.93,3.93,0,0,0,2.9,5l5,1.24v8.17l-2.9-.73a3,3,0,0,0-1.14-.21,4.08,4.08,0,0,0-3.82,3.11c-.82,2.06.83,4.54,2.9,5l5,1.24v8.16l-2.9-.72a3,3,0,0,0-1.14-.22,4.09,4.09,0,0,0-3.82,3.11,3.93,3.93,0,0,0,2.9,5l5,1.24v8.16l-2.9-.72a3,3,0,0,0-1.14-.22,4.09,4.09,0,0,0-3.82,3.11,3.93,3.93,0,0,0,2.9,5l5,1.24v8.17l-2.9-.73a3,3,0,0,0-1.14-.21,4.08,4.08,0,0,0-3.82,3.11c-.82,2.06.83,4.54,2.9,5l5,1.24v8.16l-2.9-.72a3,3,0,0,0-1.14-.22,4.09,4.09,0,0,0-3.82,3.11,3.93,3.93,0,0,0,2.9,5l5,1.24v8.16l-2.9-.72a3,3,0,0,0-1.14-.22,4.09,4.09,0,0,0-3.82,3.11,3.93,3.93,0,0,0,2.9,5l5,1.24v1.66q0,3.27.13,6.54l-3-.76a3,3,0,0,0-1.14-.21,4.08,4.08,0,0,0-3.82,3.11c-.82,2.06.83,4.54,2.9,5l5.67,1.41a160.29,160.29,0,0,0,8,37,3.84,3.84,0,0,0,7.44,0,155.33,155.33,0,0,0,7.35-31.34l4.63,1.16h.83a4.1,4.1,0,0,0,4.13-2.89,3.91,3.91,0,0,0-2.89-5L188.08,176q.3-4,.42-8.06l3.37.85h.83a4.1,4.1,0,0,0,4.13-2.89,3.91,3.91,0,0,0-2.89-5l-5.37-1.35v-8.16l3.3.83h.83a4.09,4.09,0,0,0,4.13-2.9c.83-2.06-.82-4.54-2.89-5l-5.37-1.34v-8.16l3.31.83h.82a4.09,4.09,0,0,0,4.13-2.9c.83-2.06-.82-4.54-2.89-5l-5.37-1.34v-8.16l3.31.82h.82a4.12,4.12,0,0,0,4.14-2.89,3.93,3.93,0,0,0-2.9-5L188.57,110v-8.17l3.31.83h.82a4.11,4.11,0,0,0,4.14-2.9c.82-2.06-.83-4.54-2.9-5l-5.37-1.34V85.31l3.31.82h.82a4.12,4.12,0,0,0,4.14-2.89,3.93,3.93,0,0,0-2.9-5l-5.37-1.34V68.77l3.31.83h.82a4.12,4.12,0,0,0,4.14-2.89,3.93,3.93,0,0,0-2.9-5l-5.37-1.35V44.8h4.13A3.77,3.77,0,0,0,196,43.15l12.4-16.54a3.78,3.78,0,0,0,.41-4.13A4,4,0,0,0,205.1,20ZM161.7,36.53l-6.2-8.26h41.33l-6.2,8.26H161.7Zm18.6,21.81L172,56.27V44.8h8.27V58.34Zm0,16.53L172,72.8V64.64l8.27,2.07v8.16Zm0,16.53L172,89.34V81.17l8.27,2.07V91.4Zm0,16.54L172,105.87V97.71l8.27,2.06v8.17Zm0,16.53L172,122.4v-8.16l8.27,2.07v8.16Zm0,16.53L172,138.94v-8.17l8.27,2.07V141Zm0,16.54L172,155.47v-8.16l8.27,2.06v8.17ZM180,174l-7.72-1.93Q172,168,172,163.84l8.24,2.06c0,2.72-.14,5.42-.3,8.09Zm-3.81,25.4a146.55,146.55,0,0,1-3.24-18.79l6.33,1.58a133.59,133.59,0,0,1-3.09,17.21Z"/><path d="M283.64,20H225.77a4,4,0,0,0-3.72,2.48,3.78,3.78,0,0,0,.41,4.13l12.4,16.54a3.77,3.77,0,0,0,3.31,1.65h4.13v9.4l-2.89-.72a3.05,3.05,0,0,0-1.15-.22,4.08,4.08,0,0,0-3.81,3.11,3.91,3.91,0,0,0,2.89,5l5,1.24v8.17L239.41,70a3,3,0,0,0-1.15-.21,4.06,4.06,0,0,0-3.81,3.11c-.83,2.06.82,4.54,2.89,5l5,1.24v8.16l-2.89-.72a3.05,3.05,0,0,0-1.15-.22,4.08,4.08,0,0,0-3.81,3.11,3.91,3.91,0,0,0,2.89,5l5,1.24v8.16l-2.89-.72a3.05,3.05,0,0,0-1.15-.22,4.08,4.08,0,0,0-3.81,3.11,3.91,3.91,0,0,0,2.89,5l5,1.24v8.17l-2.89-.73a3,3,0,0,0-1.15-.21,4.06,4.06,0,0,0-3.81,3.11c-.83,2.06.82,4.54,2.89,5l5,1.24v8.16l-2.89-.72a3.05,3.05,0,0,0-1.15-.22,4.08,4.08,0,0,0-3.81,3.11,3.91,3.91,0,0,0,2.89,5l5,1.24v8.16l-2.89-.72a3.05,3.05,0,0,0-1.15-.22,4.08,4.08,0,0,0-3.81,3.11,3.91,3.91,0,0,0,2.89,5l5,1.24v8.17l-2.89-.73a3,3,0,0,0-1.15-.21,4.06,4.06,0,0,0-3.81,3.11c-.83,2.06.82,4.54,2.89,5l5,1.24v8.16l-2.89-.72a3.05,3.05,0,0,0-1.15-.22,4.08,4.08,0,0,0-3.81,3.11,3.91,3.91,0,0,0,2.89,5l5,1.24V203l-2.89-.72a3.05,3.05,0,0,0-1.15-.22,4.08,4.08,0,0,0-3.81,3.11,3.91,3.91,0,0,0,2.89,5l5,1.24V213c0,2.18,0,4.36.13,6.54l-3-.76a3,3,0,0,0-1.15-.21,4.06,4.06,0,0,0-3.81,3.11c-.83,2.06.82,4.54,2.89,5l5.67,1.41a160.82,160.82,0,0,0,8,37,3.84,3.84,0,0,0,7.44,0,154.66,154.66,0,0,0,7.35-31.34l4.64,1.16h.82a4.12,4.12,0,0,0,4.14-2.89,3.93,3.93,0,0,0-2.9-5l-5.86-1.47c.21-2.68.35-5.37.42-8.05l3.38.84h.82a4.12,4.12,0,0,0,4.14-2.89,3.93,3.93,0,0,0-2.9-5l-5.37-1.35V201l3.31.83h.83a4.11,4.11,0,0,0,4.13-2.89c.83-2.07-.83-4.55-2.89-5l-5.38-1.35v-8.16l3.31.83h.83a4.1,4.1,0,0,0,4.13-2.9c.83-2.06-.83-4.54-2.89-5l-5.38-1.34V168l3.31.82h.83a4.11,4.11,0,0,0,4.13-2.89c.83-2.07-.83-4.55-2.89-5l-5.38-1.34v-8.17l3.31.83h.83a4.1,4.1,0,0,0,4.13-2.9c.83-2.06-.83-4.54-2.89-5l-5.38-1.34v-8.16l3.31.83h.83a4.1,4.1,0,0,0,4.13-2.9c.83-2.06-.83-4.54-2.89-5l-5.38-1.34v-8.16l3.31.82h.83a4.11,4.11,0,0,0,4.13-2.89c.83-2.07-.83-4.55-2.89-5L267.1,110v-8.17l3.31.83h.83a4.09,4.09,0,0,0,4.13-2.9c.83-2.06-.83-4.54-2.89-5l-5.38-1.34V85.31l3.31.82h.83a4.1,4.1,0,0,0,4.13-2.89,3.91,3.91,0,0,0-2.89-5l-5.37-1.34V68.77l3.3.83h.83a4.1,4.1,0,0,0,4.13-2.89,3.91,3.91,0,0,0-2.89-5l-5.37-1.35V44.8h4.12a3.77,3.77,0,0,0,3.31-1.65l12.4-16.54a3.78,3.78,0,0,0,.41-4.13A4,4,0,0,0,283.64,20ZM240.23,36.53,234,28.27h41.34l-6.2,8.26H240.23Zm18.6,21.81-8.26-2.07V44.8h8.26V58.34Zm0,16.53-8.26-2.07V64.64l8.26,2.07v8.16Zm0,16.53-8.26-2.06V81.17l8.26,2.07V91.4Zm0,16.54-8.26-2.07V97.71l8.26,2.06v8.17Zm0,16.53-8.26-2.07v-8.16l8.26,2.07v8.16Zm0,16.53-8.26-2.06v-8.17l8.26,2.07V141Zm0,16.54-8.26-2.07v-8.16l8.26,2.06v8.17Zm0,16.53L250.57,172v-8.16l8.26,2.07v8.16Zm0,16.53-8.26-2.06v-8.17l8.26,2.07v8.16Zm0,16.54-8.26-2.07v-8.16l8.26,2.07v8.16Zm-.32,16.45-7.72-1.93q-.21-4.11-.22-8.22l8.25,2.06q-.06,4.08-.31,8.09ZM254.7,249a146.55,146.55,0,0,1-3.24-18.79l6.34,1.58A135.35,135.35,0,0,1,254.7,249Z"/></svg>