<svg id="Calque_1" data-name="Calque 1" xmlns="http://www.w3.org/2000/svg" viewBox="0 0 350 300"><title>selected</title><path d="M97,21.81a6.39,6.39,0,0,0-6.47,6.27L90.4,97l-24.82,0h0a6.39,6.39,0,0,0-6.48,6.27l-.28,122.08a6.39,6.39,0,0,0,6.46,6.3l38.36.09h0a6.39,6.39,0,0,0,6.48-6.27l.16-69.41,12,0-.16,69.41a6.39,6.39,0,0,0,6.46,6.3l11,0h0a3.08,3.08,0,0,0,0-6.15l-11,0a.43.43,0,0,1-.33-.13c0-1.7.28-119.18.29-122.08a0,0,0,0,1,0,0s0,0,0,0l0,0s0,0,0,0l.07,0,0,0,.14,0h0l38.36.09a.37.37,0,0,1,.32.14c0,2-.27,120.06-.28,122.08a.39.39,0,0,1-.33.14h0l-13,0h0a3.08,3.08,0,0,0,0,6.15l13,0h0a6.39,6.39,0,0,0,6.48-6.27l.16-69.41,12,0-.17,69.41a6.39,6.39,0,0,0,6.46,6.3l38.36.09h0a6.38,6.38,0,0,0,6.47-6.27l.17-69.41,24.81.06h0a6.39,6.39,0,0,0,6.47-6.27l.13-54.52a3.06,3.06,0,0,0-.37-1.48c0,.64,0,1.29,0,1.93q-1.51,21-3,21h0q-1.39,0-2.76-18.65l-.11,44.73L237,102.57a6.43,6.43,0,0,0-6.37-5.27h-7.4l.16-68.89a.36.36,0,0,1,.33-.15h0l38.36.09a.42.42,0,0,1,.33.14Q262.21,61.74,262,95c.08,1.16.16,2.28.24,3.35V95.53a3.08,3.08,0,0,1,3.08-3.06h0a3.07,3.07,0,0,1,2.7,1.6q.25-32.79.53-65.58a6.4,6.4,0,0,0-6.46-6.3l-38.36-.09h0a6.4,6.4,0,0,0-6.48,6.27l-.16,68.9-12,0,.16-68.89a6.38,6.38,0,0,0-6.46-6.3L160.39,22h0a6.38,6.38,0,0,0-6.47,6.27l-.16,68.89-12,0,.16-68.89a6.39,6.39,0,0,0-6.46-6.3l-38.36-.09Zm25.36,99.92-12.08-19.46A6.42,6.42,0,0,0,103.94,97l-7.39,0L96.7,28.1A.39.39,0,0,1,97,28h0l38.37.09a.4.4,0,0,1,.32.13l-.16,68.9-6.64,0h0a6.4,6.4,0,0,0-6.48,6.27l0,18.4Zm63.34.15-12.08-19.46a6.44,6.44,0,0,0-6.37-5.27h-7.4L160,28.25a.36.36,0,0,1,.33-.15h0l38.36.09a.4.4,0,0,1,.33.14l-.16,68.9-6.64,0h0a6.39,6.39,0,0,0-6.47,6.27l0,18.4ZM103.64,225.52h0l-38.36-.09a.46.46,0,0,1-.33-.14l.29-122.08a.37.37,0,0,1,.33-.15h0l38.36.09a.42.42,0,0,1,.33.14L104,225.37a.37.37,0,0,1-.33.15Zm126.68.29h0L192,225.72a.39.39,0,0,1-.33-.14c0-1.69.28-119.17.29-122.08a0,0,0,0,1,0,0h0l0,0s0,0,0,0l.07,0h0l.14,0h0l38.36.09a.37.37,0,0,1,.33.14l-.28,122.08a.4.4,0,0,1-.33.14Zm-108-75.95-12,0,.09-35.79,12,19.3,0,16.52Zm63.34.15-12,0,.09-35.79,12,19.3,0,16.52Zm73.65.17L237,150.13l.08-35.79,22.26,35.84Z"/><polygon points="168 224.35 128 224.35 128 231.65 168 231.65 168 224.35 168 224.35"/><path d="M295.25,153a1.68,1.68,0,0,0-1,.3l-61.1,42.18a1.69,1.69,0,0,0-.18,2.66l27.94,25.37a5.49,5.49,0,0,0,.15,6l2.68,3.88a5.47,5.47,0,0,0,7.62,1.4L289,222.61l9.41,18.72A9.54,9.54,0,1,0,314,230.59l-14.17-15.43L317.48,203a5.5,5.5,0,0,0,1.4-7.63l-2.68-3.88a5.5,5.5,0,0,0-4.52-2.37,5.89,5.89,0,0,0-1,.1l-13.81-35.12a1.68,1.68,0,0,0-1.59-1.08Zm-31.78,68.2L241.19,201l-2.59-2.35-1.71-1.56,57.56-39.73,13.14,33.42L263.47,221.2Zm4.81,11.14a2.07,2.07,0,0,1-1.7-.89l-2.68-3.88a2.08,2.08,0,0,1,.52-2.88l46.09-31.81a2,2,0,0,1,1.17-.36,2.07,2.07,0,0,1,1.71.89l2.68,3.88a2.07,2.07,0,0,1-.53,2.88l-19.26,13.29A1.7,1.7,0,0,0,296,216l15.5,16.88a6.13,6.13,0,1,1-10,6.9l-10.29-20.48a1.7,1.7,0,0,0-1.1-.89,2,2,0,0,0-.42-.05,1.68,1.68,0,0,0-1,.3L269.45,232a2.07,2.07,0,0,1-1.17.36Z"/><polygon points="296.11 157.94 237.14 198.64 238.55 200.67 297.51 159.97 296.11 157.94 296.11 157.94"/></svg>