<?xml version="1.0" encoding="utf-8"?>
<!-- Generator: Adobe Illustrator 22.1.0, SVG Export Plug-In . SVG Version: 6.00 Build 0)  -->
<svg style="enable-background:new 0 0 500 500;" id="Calque_1" version="1.1" viewBox="0 0 500 500" x="0px"
     xmlns="http://www.w3.org/2000/svg" y="0px" xml:space="preserve">
<style type="text/css">
	.st0{fill:#EAEAEA;}
	.st1{fill:#8C8C8C;}
	.st2{fill:#FFFFFF;}
	.st3{fill:#EAEAEA;stroke:#8C8C8C;stroke-width:7;stroke-miterlimit:10;}
	.st4{fill:#070707;}
	.st5{fill:none;stroke:#8C8C8C;stroke-width:7;stroke-miterlimit:10;}
	.st6{fill:none;stroke:#8C8C8C;stroke-width:10;stroke-miterlimit:10;}
	.st7{fill:#8C8C8C;stroke:#8C8C8C;stroke-width:3;stroke-miterlimit:10;}
	.st8{fill:none;stroke:#8C8C8C;stroke-width:8;stroke-miterlimit:10;}
	.st9{fill:none;stroke:#8E8E8E;stroke-width:6;stroke-miterlimit:10;}
	.st10{fill:#8E8E8E;}
	.st11{fill:#505050;}
	.st12{fill:none;stroke:#8E8E8E;stroke-width:2;stroke-miterlimit:10;}
	.st13{fill:#8C8C8C;stroke:#8C8C8C;stroke-width:2;stroke-miterlimit:10;}
	.st14{fill:#8C8C8C;stroke:#FFFFFF;stroke-width:2;stroke-miterlimit:10;}
	.st15{fill:none;stroke:#FFFFFF;stroke-width:2;stroke-miterlimit:10;}
	.st16{fill:none;stroke:#8C8C8C;stroke-miterlimit:10;}
	.st17{fill:none;stroke:#8C8C8C;stroke-width:13;stroke-miterlimit:10;}
	.st18{fill:#EAEAEA;stroke:#8C8C8C;stroke-width:8;stroke-miterlimit:10;}
	.st19{fill:none;stroke:#8C8C8C;stroke-width:4;stroke-miterlimit:10;}
	.st20{fill:#8C8C8C;stroke:#8C8C8C;stroke-width:0.75;stroke-miterlimit:10;}
	.st21{fill:none;stroke:#8C8C8C;stroke-width:9;stroke-miterlimit:10;}
	.st22{fill:#8C8C8C;stroke:#8C8C8C;stroke-width:0.5;stroke-miterlimit:10;}
	.st23{fill:#6B6B6B;}
	.st24{fill:none;}
	.st25{stroke:#8C8C8C;stroke-width:8;stroke-miterlimit:10;}
	.st26{font-family:'HelveticaNeue-CondensedBold';}
	.st27{font-size:54px;}
	.st28{fill:#8C8C8C;stroke:#8C8C8C;stroke-miterlimit:10;}
	.st29{fill:none;stroke:#8C8C8C;stroke-width:11;stroke-miterlimit:10;}
	.st30{fill:none;stroke:#8C8C8C;stroke-width:6;stroke-miterlimit:10;}
	.st31{stroke:#8C8C8C;stroke-width:6;stroke-miterlimit:10;}
	.st32{fill:#8C8C8C;stroke:#8C8C8C;stroke-width:4;stroke-miterlimit:10;}
	.st33{fill:#8C8C8C;stroke:#8C8C8C;stroke-width:1.05;stroke-miterlimit:10;}
	.st34{fill:#D6D6D6;}
	.st35{fill:none;stroke:#EAEAEA;stroke-width:5;stroke-miterlimit:10;}
	.st36{fill:#8C8C8C;stroke:#8C8C8C;stroke-width:10;stroke-miterlimit:10;}
	.st37{fill:none;stroke:#CECECE;stroke-width:2;stroke-miterlimit:10;}
	.st38{fill:none;stroke:#FFFFFF;stroke-width:4;stroke-miterlimit:10;}
	.st39{fill-rule:evenodd;clip-rule:evenodd;fill:#8C8C8C;}
	.st40{fill:#8C8C8C;stroke:#8C8C8C;stroke-width:8;stroke-miterlimit:10;}
	.st41{fill:#8C8C8C;stroke:#8C8C8C;stroke-width:7;stroke-miterlimit:10;}
	.st42{fill:#DBDBDB;stroke:#8C8C8C;stroke-width:7;stroke-miterlimit:10;}
	.st43{fill:none;stroke:#8C8C8C;stroke-width:5;stroke-miterlimit:10;}
	.st44{fill:none;stroke:#8C8C8C;stroke-width:3;stroke-miterlimit:10;}
	.st45{clip-path:url(#SVGID_2_);fill:#8C8C8C;}
	.st46{clip-path:url(#SVGID_2_);fill:none;stroke:#8C8C8C;stroke-width:8;stroke-miterlimit:10;}
	.st47{clip-path:url(#SVGID_2_);fill:#FFFFFF;}
	.st48{clip-path:url(#SVGID_2_);fill:#EAEAEA;}
	.st49{clip-path:url(#SVGID_2_);fill:none;stroke:#8C8C8C;stroke-miterlimit:10;}
	.st50{fill:none;stroke:#FFFFFF;stroke-width:0.75;stroke-miterlimit:10;}
	.st51{fill:none;stroke:#8C8C8C;stroke-width:14;stroke-miterlimit:10;}
	.st52{fill:none;stroke:#EAEAEA;stroke-width:2;stroke-miterlimit:10;}
	.st53{fill:none;stroke:#8C8C8C;stroke-width:2;stroke-miterlimit:10;}
</style>
    <rect class="st0" height="500" width="500" y="-1"/>
    <g transform="translate(1 1)">
	<g>
		<g>
			<path class="st1" d="M190.6,79h-57.9c-1.7,0-3.3,1.2-3.7,2.5s-0.4,2.9,0.4,4.1l12.4,16.5c0.8,1.2,2.1,1.7,3.3,1.7h4.1v9l-2.9-0.7
				c-2.5-0.4-4.5,0.8-5.4,3.3c-0.4,2.1,0.8,4.1,3.3,5l5,1.2v8.2l-2.9-0.7c-2.1-0.8-4.5,0.8-5,2.9c-0.8,2.1,0.8,4.5,2.9,5l5,1.2v8.2
				l-2.9-0.7c-2.1-0.8-4.5,0.8-5,2.9c-0.8,2.1,0.8,4.5,2.9,5l5,1.2v8.2l-2.9-0.7c-2.1-0.8-4.5,0.8-5,2.9c-0.8,2.1,0.8,4.5,2.9,5
				l5,1.2v8.2l-2.9-0.7c-2.1-0.8-4.5,0.8-5,2.9c-0.8,2.1,0.8,4.5,2.9,5l5,1.2c0.3,16.9,3.1,33.4,8.7,49.6c0.4,1.7,2.1,2.9,3.7,2.9
				c1.7,0,3.3-1.2,4.1-2.9c4.5-14.2,7.3-28.7,8-43.5l3.5,0.9c0,0,0.4,0,0.8,0c2.1,0,3.7-1.2,4.1-2.9c0.8-2.1-0.8-4.5-2.9-5l-5.4-1.3
				c0-0.1,0-0.2,0-0.3v-7.9l3.3,0.8c0,0,0.4,0,0.8,0c2.1,0,3.7-1.2,4.1-2.9c0.8-2.1-0.8-4.5-2.9-5L174,169v-8.2l3.3,0.8
				c0,0,0.4,0,0.8,0c2.1,0,3.7-1.2,4.1-2.9c0.8-2.1-0.8-4.5-2.9-5l-5.4-1.3v-8.2l3.3,0.8c0,0,0.4,0,0.8,0c2.1,0,3.7-1.2,4.1-2.9
				c0.8-2.1-0.8-4.5-2.9-5l-5.4-1.3v-8.2l3.3,0.8c0,0,0.4,0,0.8,0c2.1,0,3.7-1.2,4.1-3.3c0.8-2.1-0.8-4.5-2.9-5L174,119v-15.2h4.1
				c1.2,0,2.5-0.4,3.3-1.7l12.4-16.5c0.8-1.2,1.2-2.5,0.4-4.1C193.5,79.8,192.2,79,190.6,79z M161.6,221.2
				c-2.5-10.5-3.8-20.9-4.1-31.4l8.1,2C165.3,201.9,164,211.7,161.6,221.2z M165.8,183.5l-8.3-2.1v-8.2l8.3,2.1V183.5z M165.8,166.9
				l-8.3-2.1v-8.2l8.3,2.1V166.9z M165.8,150.4l-8.3-2.1v-8.2l8.3,2.1V150.4z M165.8,133.9l-8.3-2.1v-8.2l8.3,2.1V133.9z
				 M165.8,116.9l-8.3-2.1v-11.1h8.3V116.9z M176.1,95.5h-6.2h-16.5h-6.2l-6.2-8.3h41.3L176.1,95.5z"/>
            <path class="st1" d="M269.1,79h-57.9c-1.7,0-2.9,1.2-3.7,2.5s-0.4,2.9,0.4,4.1l12.4,16.5c0.8,1.2,2.1,1.7,3.3,1.7h4.1v9.4
				l-2.9-0.7c-2.1-0.8-4.5,0.8-5,2.9c-0.8,2.1,0.8,4.5,2.9,5l5,1.2v8.2l-2.9-0.7c-2.1-0.8-4.5,0.8-5,2.9c-0.8,2.1,0.8,4.5,2.9,5
				l5,1.2v8.2l-2.9-0.7c-2.1-0.8-4.5,0.8-5,2.9c-0.8,2.1,0.8,4.5,2.9,5l5,1.2v8.2l-2.9-0.7c-2.1-0.8-4.5,0.8-5,2.9
				c-0.8,2.1,0.8,4.5,2.9,5l5,1.2v8.2l-2.9-0.7c-2.1-0.8-4.5,0.8-5,2.9c-0.8,2.1,0.8,4.5,2.9,5l5,1.2v8.2l-2.9-0.7
				c-2.1-0.8-4.5,0.8-5,2.9c-0.8,2.1,0.8,4.5,2.9,5l5,1.2v8.2l-2.9-0.7c-2.1-0.8-4.5,0.8-5,2.9c-0.8,2.1,0.8,4.5,2.9,5l5,1.2v1.7
				c0,2.2,0,4.4,0.1,6.5l-3-0.8c-2.1-0.8-4.5,0.8-5,2.9c-0.8,2.1,0.8,4.5,2.9,5l5.7,1.4c1.2,12.6,3.8,24.9,8,37
				c0.4,1.7,2.1,2.9,3.7,2.9s3.3-1.2,3.7-2.9c3.5-10.1,6-20.6,7.3-31.3l4.6,1.2c0,0,0.4,0,0.8,0c2.1,0,3.7-1.2,4.1-2.9
				c0.8-2.1-0.8-4.5-2.9-5l-5.9-1.5c0.2-2.7,0.3-5.4,0.4-8.1l3.4,0.8c0,0,0.4,0,0.8,0c2.1,0,3.7-1.2,4.1-2.9c0.8-2.1-0.8-4.5-2.9-5
				l-5.4-1.3v-8.2l3.3,0.8c0,0,0.4,0,0.8,0c2.1,0,3.7-1.2,4.1-2.9c0.8-2.1-0.8-4.5-2.9-5l-5.4-1.3v-8.2l3.3,0.8c0,0,0.4,0,0.8,0
				c2.1,0,3.7-1.2,4.1-2.9c0.8-2.1-0.8-4.5-2.9-5l-5.4-1.3v-8.2l3.3,0.8c0,0,0.4,0,0.8,0c2.1,0,3.7-1.2,4.1-2.9
				c0.8-2.1-0.8-4.5-2.9-5l-5.4-1.3v-8.2l3.3,0.8c0,0,0.4,0,0.8,0c2.1,0,3.7-1.2,4.1-2.9c0.8-2.1-0.8-4.5-2.9-5l-5.4-1.3v-8.2
				l3.3,0.8c0,0,0.4,0,0.8,0c2.1,0,3.7-1.2,4.1-2.9c0.8-2.1-0.8-4.5-2.9-5l-5.4-1.3v-8.2l3.3,0.8c0,0,0.4,0,0.8,0
				c2.1,0,3.7-1.2,4.1-2.9c0.8-2.1-0.8-4.5-2.9-5l-5.4-1.3v-15.6h4.1c1.2,0,2.5-0.4,3.3-1.7l12.4-16.5c0.8-1.2,1.2-2.9,0.4-4.1
				C272,79.8,270.8,79,269.1,79z M240.2,258.4c-1.5-6.3-2.6-12.5-3.2-18.8l6.3,1.6C242.6,247,241.6,252.8,240.2,258.4z M244,233
				l-7.7-1.9c-0.1-2.7-0.2-5.5-0.2-8.2l8.2,2.1C244.2,227.6,244.1,230.3,244,233z M244.3,216.5l-8.3-2.1v-8.2l8.3,2.1V216.5z
				 M244.3,200l-8.3-2.1v-8.2l8.3,2.1V200z M244.3,183.5l-8.3-2.1v-8.2l8.3,2.1V183.5z M244.3,166.9l-8.3-2.1v-8.2l8.3,2.1V166.9z
				 M244.3,150.4l-8.3-2.1v-8.2l8.3,2.1V150.4z M244.3,133.9l-8.3-2.1v-8.2l8.3,2.1V133.9z M244.3,117.3l-8.3-2.1v-11.5h8.3V117.3z
				 M254.6,95.5h-6.2h-16.5h-6.2l-6.2-8.3h41.3L254.6,95.5z"/>
            <path class="st1" d="M335.2,103.8c1.2,0,2.5-0.4,3.3-1.7l12.4-16.5c0.8-1.2,1.2-2.9,0.4-4.1c-0.8-1.7-2.1-2.5-3.7-2.5h-57.9
				c-1.7,0-2.9,0.8-3.7,2.5c-0.8,1.2-0.4,2.9,0.4,4.1l12.4,16.5c0.8,1.2,2.1,1.7,3.3,1.7h4.1v9.4l-2.9-0.7c-2.1-0.8-4.5,0.8-5,2.9
				c-0.8,2.1,0.8,4.5,2.9,5l5,1.2v8.2l-2.9-0.7c-2.1-0.8-4.5,0.8-5,2.9c-0.8,2.1,0.8,4.5,2.9,5l5,1.2v8.2l-2.9-0.7
				c-2.1-0.8-4.5,0.8-5,2.9c-0.8,2.1,0.8,4.5,2.9,5l5,1.2v8.2l-2.9-0.7c-2.1-0.8-4.5,0.8-5,2.9c-0.8,2.1,0.8,4.5,2.9,5l5,1.2v8.2
				l-2.9-0.7c-2.1-0.8-4.5,0.8-5,2.9c-0.8,2.1,0.8,4.5,2.9,5l5,1.2v8.2l-2.9-0.7c-2.1-0.8-4.5,0.8-5,2.9c-0.8,2.1,0.8,4.5,2.9,5
				l5,1.2v8.2l-2.9-0.7c-2.1-0.8-4.5,0.8-5,2.9c-0.8,2.1,0.8,4.5,2.9,5l5,1.2v8.2l-2.9-0.7c-2.1-0.8-4.5,0.8-5,2.9
				c-0.8,2.1,0.8,4.5,2.9,5l5,1.2v8.2l-2.9-0.7c-2.1-0.8-4.5,0.8-5,2.9c-0.8,2.1,0.8,4.5,2.9,5l5,1.2v8.2l-2.9-0.7
				c-2.1-0.8-4.5,0.8-5,2.9c-0.8,2.1,0.8,4.5,2.9,5l5,1.2v1.7c0,2.2,0,4.4,0.1,6.5l-3-0.8c-2.1-0.8-4.5,0.8-5,2.9
				c-0.8,2.1,0.8,4.5,2.9,5l5.7,1.4c1.2,12.6,3.8,24.9,8,37c0.4,1.7,2.1,2.9,3.7,2.9c1.7,0,3.3-1.2,3.7-2.9
				c3.5-10.1,6-20.6,7.4-31.3l4.6,1.2c0,0,0.4,0,0.8,0c2.1,0,3.7-1.2,4.1-2.9c0.8-2.1-0.8-4.5-2.9-5l-5.9-1.5
				c0.2-2.7,0.3-5.4,0.4-8.1l3.4,0.8c0,0,0.4,0,0.8,0c2.1,0,3.7-1.2,4.1-2.9c0.8-2.1-0.8-4.5-2.9-5l-5.4-1.3V260l3.3,0.8
				c0,0,0.4,0,0.8,0c2.1,0,3.7-1.2,4.1-2.9c0.8-2.1-0.8-4.5-2.9-5l-5.4-1.3v-8.2l3.3,0.8c0,0,0.4,0,0.8,0c2.1,0,3.7-1.2,4.1-2.9
				c0.8-2.1-0.8-4.5-2.9-5l-5.4-1.3V227l3.3,0.8c0,0,0.4,0,0.8,0c2.1,0,3.7-1.2,4.1-2.9c0.8-2.1-0.8-4.5-2.9-5l-5.4-1.3v-8.2
				l3.3,0.8c0,0,0.4,0,0.8,0c2.1,0,3.7-1.2,4.1-2.9c0.8-2.1-0.8-4.5-2.9-5l-5.4-1.3v-8.2l3.3,0.8c0,0,0.4,0,0.8,0
				c2.1,0,3.7-1.2,4.1-2.9c0.8-2.1-0.8-4.5-2.9-5l-5.4-1.3v-8.2l3.3,0.8c0,0,0.4,0,0.8,0c2.1,0,3.7-1.2,4.1-2.9
				c0.8-2.1-0.8-4.5-2.9-5l-5.4-1.3v-8.2l3.3,0.8c0,0,0.4,0,0.8,0c2.1,0,3.7-1.2,4.1-2.9c0.8-2.1-0.8-4.5-2.9-5l-5.4-1.3v-8.2
				l3.3,0.8c0,0,0.4,0,0.8,0c2.1,0,3.7-1.2,4.1-2.9c0.8-2.1-0.8-4.5-2.9-5l-5.4-1.3v-8.2l3.3,0.8c0,0,0.4,0,0.8,0
				c2.1,0,3.7-1.2,4.1-2.9c0.8-2.1-0.8-4.5-2.9-5l-5.4-1.3v-15.6H335.2z M298,87.3h41.3l-6.2,8.3H327h-16.5h-6.2L298,87.3z
				 M318.7,308c-1.5-6.3-2.6-12.5-3.2-18.8l6.3,1.6C321.1,296.6,320.1,302.4,318.7,308z M322.5,282.6l-7.7-1.9
				c-0.1-2.7-0.2-5.5-0.2-8.2l8.2,2.1C322.8,277.2,322.7,279.9,322.5,282.6z M322.8,266.1l-8.3-2.1v-8.2l8.3,2.1V266.1z
				 M322.8,249.6l-8.3-2.1v-8.2l8.3,2.1V249.6z M322.8,233.1l-8.3-2.1v-8.2l8.3,2.1V233.1z M322.8,216.5l-8.3-2.1v-8.2l8.3,2.1
				V216.5z M322.8,200l-8.3-2.1v-8.2l8.3,2.1V200z M322.8,183.5l-8.3-2.1v-8.2l8.3,2.1V183.5z M322.8,166.9l-8.3-2.1v-8.2l8.3,2.1
				V166.9z M322.8,150.4l-8.3-2.1v-8.2l8.3,2.1V150.4z M322.8,133.9l-8.3-2.1v-8.2l8.3,2.1V133.9z M322.8,117.3l-8.3-2.1v-11.5h8.3
				V117.3z"/>
		</g>
	</g>
</g>
    <g>
	<rect class="st24" height="144" width="500" x="-5" y="362"/>
        <text transform="matrix(1 0 0 1 105.1431 400.5557)"><tspan class="st23 st26 st27" x="0" y="0">Vis, chevilles</tspan>
            <tspan class="st23 st26 st27" x="38.4" y="64.8"> &amp; écrous</tspan></text>
</g>
</svg>
