<?xml version="1.0" encoding="utf-8"?>
<!-- Generator: Adobe Illustrator 22.1.0, SVG Export Plug-In . SVG Version: 6.00 Build 0)  -->
<svg style="enable-background:new 0 0 500 500;" id="Calque_1" version="1.1" viewBox="0 0 500 500" x="0px"
     xmlns="http://www.w3.org/2000/svg" y="0px" xml:space="preserve">
<style type="text/css">
	.st0{fill:#4FBDD7;}
	.st1{fill:#EAEAEA;}
	.st2{fill:none;}
	.st3{fill:#FFFFFF;}
	.st4{font-family:'HelveticaNeue-CondensedBold';}
	.st5{font-size:54px;}
	.st6{fill:#4FBDD7;stroke:#FFFFFF;stroke-width:5;stroke-miterlimit:10;}
	.st7{fill:#8C8C8C;}
	.st8{fill:#070707;}
	.st9{fill:none;stroke:#FFFFFF;stroke-width:7;stroke-miterlimit:10;}
	.st10{fill:none;stroke:#FFFFFF;stroke-width:10;stroke-miterlimit:10;}
	.st11{fill:#FFFFFF;stroke:#FFFFFF;stroke-width:3;stroke-miterlimit:10;}
	.st12{fill:none;stroke:#FDFFFF;stroke-width:6;stroke-miterlimit:10;}
	.st13{fill:#FAFEFF;}
	.st14{fill:none;stroke:#FFFFFF;stroke-width:2;stroke-miterlimit:10;}
	.st15{fill:#FFFFFF;stroke:#FFFFFF;stroke-width:2;stroke-miterlimit:10;}
	.st16{fill:#4FBDD7;stroke:#FFFFFF;stroke-width:4;stroke-miterlimit:10;}
	.st17{fill:#FFFFFF;stroke:#FFFFFF;stroke-width:4;stroke-miterlimit:10;}
	.st18{fill:none;stroke:#FFFFFF;stroke-miterlimit:10;}
	.st19{fill:#FFFFFF;stroke:#FFFFFF;stroke-width:13;stroke-miterlimit:10;}
	.st20{fill:#4FBDD7;stroke:#FFFFFF;stroke-width:8;stroke-miterlimit:10;}
	.st21{fill:#FFFFFF;stroke:#FFFFFF;stroke-width:0.75;stroke-miterlimit:10;}
	.st22{fill:#FFFFFF;stroke:#FFFFFF;stroke-width:0.5;stroke-miterlimit:10;}
	.st23{fill:#FFFFFF;stroke:#FFFFFF;stroke-width:8;stroke-miterlimit:10;}
	.st24{fill:#FFFFFF;stroke:#FFFFFF;stroke-miterlimit:10;}
	.st25{fill:#FFFFFF;stroke:#FFFFFF;stroke-width:11;stroke-miterlimit:10;}
	.st26{fill:#FFFFFF;stroke:#FFFFFF;stroke-width:6;stroke-miterlimit:10;}
	.st27{fill:#8C8C8C;stroke:#8C8C8C;stroke-width:4;stroke-miterlimit:10;}
	.st28{fill:#FFFFFF;stroke:#FFFFFF;stroke-width:1.05;stroke-miterlimit:10;}
	.st29{fill:none;stroke:#4FBDD7;stroke-width:5;stroke-miterlimit:10;}
	.st30{fill:none;stroke:#FFFFFF;stroke-width:4;stroke-miterlimit:10;}
	.st31{fill:#8C8C8C;stroke:#FFFFFF;stroke-width:4;stroke-miterlimit:10;}
	.st32{fill:#FFFFFF;stroke:#FFFFFF;stroke-width:10;stroke-miterlimit:10;}
	.st33{fill:none;stroke:#4FBDD7;stroke-width:2;stroke-miterlimit:10;}
	.st34{fill-rule:evenodd;clip-rule:evenodd;fill:#FFFFFF;}
	.st35{fill:#FFFFFF;stroke:#FFFFFF;stroke-width:7;stroke-miterlimit:10;}
	.st36{fill:#FFFFFF;stroke:#4FBDD7;stroke-width:7;stroke-miterlimit:10;}
	.st37{fill:#FCFCFC;}
	.st38{fill:#FFFFFF;stroke:#FFFFFF;stroke-width:5;stroke-miterlimit:10;}
	.st39{fill:none;stroke:#FFFFFF;stroke-width:3;stroke-miterlimit:10;}
	.st40{fill:none;stroke:#FFFFFF;stroke-width:8;stroke-miterlimit:10;}
	.st41{fill:none;stroke:#FFFFFF;stroke-width:6;stroke-miterlimit:10;}
	.st42{fill:#FFFFFF;stroke:#4FBDD7;stroke-width:3;stroke-miterlimit:10;}
	.st43{fill:none;stroke:#FFFFFF;stroke-width:0.75;stroke-miterlimit:10;}
	.st44{fill:#4FBDD7;stroke:#FFFFFF;stroke-width:9;stroke-miterlimit:10;}
	.st45{fill:none;stroke:#FFFFFF;stroke-width:9;stroke-miterlimit:10;}
	.st46{fill:none;stroke:#4FBDD7;stroke-width:3;stroke-miterlimit:10;}
</style>
    <rect class="st0" height="507" width="500" x="0" y="-4"/>
    <g>
	<rect class="st2" height="144" width="500" x="1" y="360"/>
        <text class="st3 st4 st5" transform="matrix(1 0 0 1 174.564 398.5557)">Voiture</text>
</g>
    <g>
	<path class="st3" d="M351,186.2l-5.1-5.4L328,132.6c-3-8.2-10.8-13.5-19.5-13.6H180.7c-8.7,0-16.5,5.4-19.5,13.6l-17.6,47.6
		l-7.4,6.8c-6.4,5.4-10.1,13.4-10.1,21.8v70.3c0.1,11.5,9.4,20.8,20.9,20.8h13.2c11.5,0,20.8-9.3,20.9-20.8V269h124v10.2
		c0,11.5,9.4,20.8,20.9,20.8h13.2c11.5,0,20.8-9.3,20.9-20.8V207C360,199.2,356.8,191.7,351,186.2 M170.5,136c1.6-4.2,5.6-7,10.1-7
		h127.9c4.5,0,8.6,2.8,10.2,7l15.6,42h-11.6c-2.8-18.7-20.2-31.7-38.9-28.9c-14.9,2.2-26.7,13.9-28.9,28.9h-99.9L170.5,136z
		 M312.5,178h-47.5c2.8-13.1,15.6-21.5,28.8-18.8C303.1,161.2,310.5,168.5,312.5,178 M171,279.2c0,6-4.9,10.8-10.9,10.8h-13.2
		c-6,0-10.9-4.8-10.9-10.8v-13.1c3,2,7,2.9,10.9,2.9H171V279.2z M350,279.2c0,6-4.9,10.8-10.9,10.8h-13.2c-6,0-10.9-4.9-10.9-10.8
		V269h24.1c3.9,0,7.9-0.9,10.9-2.9V279.2z M339.1,259H146.9c-5.9,0.1-10.9-4.7-10.9-10.7v-39.4c0-5.5,2.5-10.8,6.7-14.3l0.2-0.2
		l6.8-6.4H339l4.8,5.2c0.1,0.1,0.2,0.1,0.2,0.2c3.8,3.6,5.9,8.5,5.9,13.6v41.2h0C350,254.2,345,259,339.1,259"/>
        <path class="st3" d="M267.1,226h-48.3c-2.8,0-5,1.8-5,4s2.2,4,5,4h48.3c2.8,0,5-1.8,5-4S269.9,226,267.1,226"/>
        <path class="st3"
              d="M267.1,213.5h-48.3c-2.8,0-5,1.8-5,4s2.2,4,5,4h48.3c2.8,0,5-1.8,5-4S269.9,213.5,267.1,213.5"/>
        <path class="st3" d="M192.3,226.9c0,10.7-8.7,19.4-19.4,19.4c-10.7,0-19.4-8.7-19.4-19.4c0-10.7,8.7-19.4,19.4-19.4
		C183.6,207.5,192.3,216.2,192.3,226.9"/>
        <path class="st3" d="M337.2,226.9c0,10.7-8.7,19.4-19.4,19.4c-10.7,0-19.4-8.7-19.4-19.4c0-10.7,8.7-19.4,19.4-19.4
		C328.6,207.5,337.2,216.2,337.2,226.9"/>
        <path class="st3" d="M267.1,238.4h-48.3c-2.8,0-5,1.8-5,4c0,2.2,2.2,4,5,4h48.3c2.8,0,5-1.8,5-4
		C272.1,240.2,269.9,238.4,267.1,238.4"/>
</g>
</svg>
