<?xml version="1.0" encoding="utf-8"?>
<!-- Generator: Adobe Illustrator 22.1.0, SVG Export Plug-In . SVG Version: 6.00 Build 0)  -->
<svg style="enable-background:new 0 0 500 500;" id="Calque_1" version="1.1" viewBox="0 0 500 500" x="0px"
     xmlns="http://www.w3.org/2000/svg" y="0px" xml:space="preserve">
<style type="text/css">
	.st0{fill:#EAEAEA;}
	.st1{fill:#8C8C8C;}
	.st2{fill:#FFFFFF;}
	.st3{fill:#EAEAEA;stroke:#8C8C8C;stroke-width:7;stroke-miterlimit:10;}
	.st4{fill:#070707;}
	.st5{fill:none;stroke:#8C8C8C;stroke-width:7;stroke-miterlimit:10;}
	.st6{fill:none;stroke:#8C8C8C;stroke-width:10;stroke-miterlimit:10;}
	.st7{fill:#8C8C8C;stroke:#8C8C8C;stroke-width:3;stroke-miterlimit:10;}
	.st8{fill:none;stroke:#8C8C8C;stroke-width:8;stroke-miterlimit:10;}
	.st9{fill:none;stroke:#8E8E8E;stroke-width:6;stroke-miterlimit:10;}
	.st10{fill:#8E8E8E;}
	.st11{fill:#505050;}
	.st12{fill:none;stroke:#8E8E8E;stroke-width:2;stroke-miterlimit:10;}
	.st13{fill:#8C8C8C;stroke:#8C8C8C;stroke-width:2;stroke-miterlimit:10;}
	.st14{fill:#8C8C8C;stroke:#FFFFFF;stroke-width:2;stroke-miterlimit:10;}
	.st15{fill:none;stroke:#FFFFFF;stroke-width:2;stroke-miterlimit:10;}
	.st16{fill:none;stroke:#8C8C8C;stroke-miterlimit:10;}
	.st17{fill:none;stroke:#8C8C8C;stroke-width:13;stroke-miterlimit:10;}
	.st18{fill:#EAEAEA;stroke:#8C8C8C;stroke-width:8;stroke-miterlimit:10;}
	.st19{fill:none;stroke:#8C8C8C;stroke-width:4;stroke-miterlimit:10;}
	.st20{fill:#8C8C8C;stroke:#8C8C8C;stroke-width:0.75;stroke-miterlimit:10;}
	.st21{fill:none;stroke:#8C8C8C;stroke-width:9;stroke-miterlimit:10;}
	.st22{fill:#8C8C8C;stroke:#8C8C8C;stroke-width:0.5;stroke-miterlimit:10;}
	.st23{fill:#6B6B6B;}
	.st24{fill:none;}
	.st25{stroke:#8C8C8C;stroke-width:8;stroke-miterlimit:10;}
	.st26{fill:#8C8C8C;stroke:#8C8C8C;stroke-miterlimit:10;}
	.st27{fill:none;stroke:#8C8C8C;stroke-width:11;stroke-miterlimit:10;}
	.st28{fill:none;stroke:#8C8C8C;stroke-width:6;stroke-miterlimit:10;}
	.st29{stroke:#8C8C8C;stroke-width:6;stroke-miterlimit:10;}
	.st30{fill:#8C8C8C;stroke:#8C8C8C;stroke-width:4;stroke-miterlimit:10;}
	.st31{fill:#8C8C8C;stroke:#8C8C8C;stroke-width:1.05;stroke-miterlimit:10;}
	.st32{fill:#D6D6D6;}
	.st33{fill:none;stroke:#EAEAEA;stroke-width:5;stroke-miterlimit:10;}
	.st34{fill:#8C8C8C;stroke:#8C8C8C;stroke-width:10;stroke-miterlimit:10;}
	.st35{fill:none;stroke:#CECECE;stroke-width:2;stroke-miterlimit:10;}
	.st36{font-family:'HelveticaNeue-CondensedBold';}
	.st37{font-size:54px;}
	.st38{fill:none;stroke:#FFFFFF;stroke-width:4;stroke-miterlimit:10;}
	.st39{fill-rule:evenodd;clip-rule:evenodd;fill:#8C8C8C;}
	.st40{fill:#8C8C8C;stroke:#8C8C8C;stroke-width:8;stroke-miterlimit:10;}
	.st41{fill:#8C8C8C;stroke:#8C8C8C;stroke-width:7;stroke-miterlimit:10;}
	.st42{fill:#DBDBDB;stroke:#8C8C8C;stroke-width:7;stroke-miterlimit:10;}
	.st43{fill:none;stroke:#8C8C8C;stroke-width:5;stroke-miterlimit:10;}
	.st44{fill:none;stroke:#8C8C8C;stroke-width:3;stroke-miterlimit:10;}
	.st45{clip-path:url(#SVGID_2_);fill:#8C8C8C;}
	.st46{clip-path:url(#SVGID_2_);fill:none;stroke:#8C8C8C;stroke-width:8;stroke-miterlimit:10;}
	.st47{clip-path:url(#SVGID_2_);fill:#FFFFFF;}
	.st48{clip-path:url(#SVGID_2_);fill:#EAEAEA;}
	.st49{clip-path:url(#SVGID_2_);fill:none;stroke:#8C8C8C;stroke-miterlimit:10;}
	.st50{fill:none;stroke:#FFFFFF;stroke-width:0.75;stroke-miterlimit:10;}
	.st51{fill:none;stroke:#8C8C8C;stroke-width:14;stroke-miterlimit:10;}
	.st52{fill:none;stroke:#EAEAEA;stroke-width:2;stroke-miterlimit:10;}
	.st53{fill:none;stroke:#8C8C8C;stroke-width:2;stroke-miterlimit:10;}
</style>
    <rect class="st0" height="500" width="500" x="1"/>
    <g>
	<path class="st1" d="M172.6,83.5c-0.7-0.7-1.6-1.1-2.6-1.1h-7.3c-1,0-1.9,0.4-2.6,1.1l-3.6,3.6c-0.7,0.7-1.1,1.6-1.1,2.6v14.6
		c0,1,0.4,1.9,1.1,2.6l3.6,3.6c0.7,0.7,1.6,1.1,2.6,1.1v171.1c0,2,1.6,3.6,3.6,3.6s3.6-1.6,3.6-3.6V111.6c1,0,1.9-0.4,2.6-1.1
		l3.6-3.6c0.7-0.7,1.1-1.6,1.1-2.6V89.7c0-1-0.4-1.9-1.1-2.6L172.6,83.5z"/>
        <path class="st1" d="M198.1,265.5c-0.7-0.7-1.6-1.1-2.6-1.1V93.4c0-2-1.6-3.6-3.6-3.6s-3.6,1.6-3.6,3.6v171.1c-1,0-1.9,0.4-2.6,1.1
		l-3.6,3.6c-0.7,0.7-1.1,1.6-1.1,2.6v14.6c0,1,0.4,1.9,1.1,2.6l3.6,3.6c0.7,0.7,1.6,1.1,2.6,1.1h7.3c1,0,1.9-0.4,2.6-1.1l3.6-3.6
		c0.7-0.7,1.1-1.6,1.1-2.6v-14.6c0-1-0.4-1.9-1.1-2.6L198.1,265.5z"/>
        <path class="st1" d="M359.4,257.2h-17.1l-0.3-3.6h13.7c2,0,3.6-1.6,3.6-3.6V228c0-2-1.6-3.6-3.6-3.6H340l-0.3-3.6h12.3
		c2,0,3.6-1.6,3.6-3.6v-21.8c0-2-1.6-3.6-3.6-3.6h-14.3l-0.3-3.6h10.9c2,0,3.6-1.6,3.6-3.6v-21.8c0-2-1.6-3.6-3.6-3.6h-12.9
		l-0.3-3.6h9.5c2,0,3.6-1.6,3.6-3.6v-21.8c0-2-1.6-3.6-3.6-3.6h-11.5l-0.3-3.6h8.2c2,0,3.6-1.6,3.6-3.6V97c0-2-1.6-3.6-3.6-3.6H331
		l-0.8-11.2c-0.1-1.9-1.7-3.4-3.6-3.4h-10.9c-1,0-2,0.4-2.7,1.2s-1,1.7-1,2.7l0.7,10.7h-37.9l0.7-10.7c0.1-1-0.3-2-1-2.7
		s-1.6-1.2-2.7-1.2h-10.9c-1.9,0-3.5,1.5-3.6,3.4l-0.8,11.2h-10.2c-2,0-3.6,1.6-3.6,3.6v21.8c0,2,1.6,3.6,3.6,3.6h8.2l-0.3,3.6
		h-11.5c-2,0-3.6,1.6-3.6,3.6v21.8c0,2,1.6,3.6,3.6,3.6h9.5l-0.3,3.6h-12.9c-2,0-3.6,1.6-3.6,3.6v21.8c0,2,1.6,3.6,3.6,3.6h10.9
		l-0.3,3.6h-14.3c-2,0-3.6,1.6-3.6,3.6v21.8c0,2,1.6,3.6,3.6,3.6h12.3l-0.3,3.6h-15.7c-2,0-3.6,1.6-3.6,3.6v21.8
		c0,2,1.6,3.6,3.6,3.6h13.7l-0.3,3.6h-17.1c-2,0-3.6,1.6-3.6,3.6v21.8c0,2,1.6,3.6,3.6,3.6h15.1l-0.5,7c-0.1,1,0.3,2,1,2.7
		c0.7,0.7,1.6,1.2,2.7,1.2h10.9c1.9,0,3.5-1.5,3.6-3.4l0.5-7.5h64.5l0.5,7.5c0.1,1.9,1.7,3.4,3.6,3.4h10.9c1,0,2-0.4,2.7-1.2
		c0.7-0.7,1-1.7,1-2.7l-0.5-7h15.1c2,0,3.6-1.6,3.6-3.6v-21.8C363,258.8,361.4,257.2,359.4,257.2z M333.9,173.4c0,2-1.6,3.6-3.6,3.6
		s-3.6-1.6-3.6-3.6s1.6-3.6,3.6-3.6S333.9,171.4,333.9,173.4z M323,104.3c2,0,3.6,1.6,3.6,3.6c0,2-1.6,3.6-3.6,3.6s-3.6-1.6-3.6-3.6
		C319.3,105.9,320.9,104.3,323,104.3z M321.8,224.4h-56l0.3-3.6h55.5L321.8,224.4z M272.9,122.5h41.9l0.3,3.6h-42.4L272.9,122.5z
		 M270.6,155.2H317l0.3,3.6h-46.9L270.6,155.2z M319.3,188l0.3,3.6h-51.5l0.3-3.6H319.3z M264.7,104.3c2,0,3.6,1.6,3.6,3.6
		c0,2-1.6,3.6-3.6,3.6c-2,0-3.6-1.6-3.6-3.6C261.1,105.9,262.7,104.3,264.7,104.3z M253.8,275.4c-2,0-3.6-1.6-3.6-3.6
		c0-2,1.6-3.6,3.6-3.6s3.6,1.6,3.6,3.6C257.4,273.7,255.8,275.4,253.8,275.4z M253.8,242.6c-2,0-3.6-1.6-3.6-3.6
		c0-2,1.6-3.6,3.6-3.6s3.6,1.6,3.6,3.6C257.4,241,255.8,242.6,253.8,242.6z M257.4,209.8c-2,0-3.6-1.6-3.6-3.6c0-2,1.6-3.6,3.6-3.6
		c2,0,3.6,1.6,3.6,3.6C261.1,208.2,259.4,209.8,257.4,209.8z M257.4,177.1c-2,0-3.6-1.6-3.6-3.6s1.6-3.6,3.6-3.6
		c2,0,3.6,1.6,3.6,3.6S259.4,177.1,257.4,177.1z M261.1,144.3c-2,0-3.6-1.6-3.6-3.6c0-2,1.6-3.6,3.6-3.6c2,0,3.6,1.6,3.6,3.6
		C264.7,142.7,263.1,144.3,261.1,144.3z M263.6,257.2l0.3-3.6h60l0.3,3.6H263.6z M323,140.7c0-2,1.6-3.6,3.6-3.6s3.6,1.6,3.6,3.6
		c0,2-1.6,3.6-3.6,3.6S323,142.7,323,140.7z M326.6,206.2c0-2,1.6-3.6,3.6-3.6s3.6,1.6,3.6,3.6c0,2-1.6,3.6-3.6,3.6
		S326.6,208.2,326.6,206.2z M333.9,275.4c-2,0-3.6-1.6-3.6-3.6c0-2,1.6-3.6,3.6-3.6s3.6,1.6,3.6,3.6
		C337.5,273.7,335.9,275.4,333.9,275.4z M333.9,242.6c-2,0-3.6-1.6-3.6-3.6c0-2,1.6-3.6,3.6-3.6s3.6,1.6,3.6,3.6
		C337.5,241,335.9,242.6,333.9,242.6z"/>
</g>
    <g>
	<rect class="st24" height="144" width="500" x="-2" y="363"/>
        <text class="st23 st36 st37" transform="matrix(1 0 0 1 136.1133 401.5557)">Xylophone</text>
</g>
</svg>
