<svg id="Calque_1" data-name="Calque 1" xmlns="http://www.w3.org/2000/svg" viewBox="0 0 350 300"><title>selected</title><path d="M88.5,56.43l2.84,2.84V72.71L88.5,75.55H82.34L79.5,72.71V59.27l2.84-2.84H88.5m.56-5H81.78a3.61,3.61,0,0,0-2.57,1.07l-3.64,3.64a3.61,3.61,0,0,0-1.07,2.57V73.27a3.63,3.63,0,0,0,1.07,2.58l3.64,3.64a3.64,3.64,0,0,0,2.57,1.06v171.1a3.64,3.64,0,0,0,7.28,0V80.55a3.66,3.66,0,0,0,2.58-1.06l3.64-3.64a3.66,3.66,0,0,0,1.06-2.58V58.71a3.64,3.64,0,0,0-1.06-2.57L91.64,52.5a3.63,3.63,0,0,0-2.58-1.07Z"/><path d="M114,238.45l2.84,2.84v13.44L114,257.57h-6.15L105,254.73V241.29l2.85-2.84H114M110.9,58.71a3.64,3.64,0,0,0-3.64,3.64v171.1a3.64,3.64,0,0,0-2.57,1.06l-3.64,3.64a3.63,3.63,0,0,0-1.07,2.58v14.56a3.61,3.61,0,0,0,1.07,2.57l3.64,3.64a3.61,3.61,0,0,0,2.57,1.07h7.28a3.61,3.61,0,0,0,2.58-1.07l3.64-3.64a3.64,3.64,0,0,0,1.06-2.57V240.73a3.66,3.66,0,0,0-1.06-2.58l-3.64-3.64a3.65,3.65,0,0,0-2.58-1.06V62.35a3.64,3.64,0,0,0-3.64-3.64Z"/><path d="M244.33,52.79,245,62.7l.32,4.65H258.8V86.47H246.65l.37,5.35.25,3.64.32,4.65h14.85v19.13H248.91l.37,5.34.25,3.64.32,4.66h16.23V152H251.17l.37,5.34.25,3.64.32,4.66h17.61v19.12H253.43l.37,5.35.25,3.64.32,4.65h19v19.13H255.69l.37,5.34.25,3.64.32,4.66H277v19.12H257.94l.38,5.35.38,5.57h-8.19l-.43-6.27-.33-4.65H175.91l-.32,4.66-.43,6.26H167l.38-5.58.37-5.34H148.67V231.17H169l.32-4.66.25-3.64.37-5.34H152.31V198.4h19l.32-4.65.25-3.64.37-5.35H156V165.64h17.61l.32-4.66.25-3.64.37-5.34H159.59V132.88h16.22l.33-4.66.25-3.64.37-5.34H163.23V100.11h14.84l.33-4.65.25-3.64.37-5.35H166.87V67.35h13.47l.32-4.66.68-9.9h8.19L188.9,62l-.37,5.34h48.61L236.77,62l-.64-9.22h8.2M242,85.55a8.64,8.64,0,1,0-8.64-8.64A8.65,8.65,0,0,0,242,85.55m-58.25,0a8.64,8.64,0,1,0-8.64-8.64,8.64,8.64,0,0,0,8.64,8.64m2.56,14.56H239.4L239,94.77l-.25-3.64-.33-4.66H187.21l-.32,4.66-.25,3.64-.37,5.34m59.33,18.21a8.64,8.64,0,1,0-8.64-8.64,8.66,8.66,0,0,0,8.64,8.64m-65.53,0a8.64,8.64,0,1,0-8.64-8.64,8.66,8.66,0,0,0,8.64,8.64M184,132.88h57.65l-.37-5.35-.25-3.64-.33-4.65H185l-.32,4.65-.25,3.64-.37,5.35m65.23,18.2a8.64,8.64,0,1,0-8.64-8.64,8.66,8.66,0,0,0,8.64,8.64m-72.81,0a8.64,8.64,0,1,0-8.64-8.64,8.66,8.66,0,0,0,8.64,8.64m5.32,14.56h62.17l-.37-5.34-.25-3.64L243,152H182.69l-.32,4.66-.25,3.64-.37,5.34m67.49,18.2a8.64,8.64,0,1,0-8.64-8.64,8.65,8.65,0,0,0,8.64,8.64m-72.81,0a8.64,8.64,0,1,0-8.64-8.64,8.65,8.65,0,0,0,8.64,8.64m3.06,14.56h66.68l-.36-5.34-.25-3.64-.32-4.66H180.43l-.32,4.66-.25,3.64-.37,5.34m73.39,18.21a8.65,8.65,0,1,0-8.64-8.65,8.66,8.66,0,0,0,8.64,8.65m-80.09,0a8.65,8.65,0,1,0-8.64-8.65,8.66,8.66,0,0,0,8.64,8.65m4.44,14.56h71.2l-.36-5.35-.26-3.64-.32-4.65H178.17l-.32,4.65-.25,3.64-.37,5.35m75.65,18.2a8.64,8.64,0,1,0-8.64-8.64,8.66,8.66,0,0,0,8.64,8.64m-80.09,0a8.64,8.64,0,1,0-8.64-8.64,8.66,8.66,0,0,0,8.64,8.64M245.6,47.79H234.68A3.64,3.64,0,0,0,231,51.68l.74,10.67H193.89l.73-10.67A3.64,3.64,0,0,0,191,47.79H180.07a3.64,3.64,0,0,0-3.63,3.39l-.77,11.17H165.51A3.64,3.64,0,0,0,161.87,66V87.83a3.64,3.64,0,0,0,3.64,3.64h8.15l-.25,3.64H161.87a3.64,3.64,0,0,0-3.64,3.64V120.6a3.64,3.64,0,0,0,3.64,3.64h9.53l-.25,3.64H158.23a3.64,3.64,0,0,0-3.64,3.64v21.84a3.64,3.64,0,0,0,3.64,3.64h10.91l-.25,3.64h-14.3a3.64,3.64,0,0,0-3.64,3.64v21.84a3.64,3.64,0,0,0,3.64,3.64h12.29l-.25,3.64H151a3.64,3.64,0,0,0-3.64,3.64v21.85a3.64,3.64,0,0,0,3.64,3.64h13.67l-.25,3.64H147.31a3.64,3.64,0,0,0-3.64,3.64v21.84a3.64,3.64,0,0,0,3.64,3.64h15.05l-.48,7a3.64,3.64,0,0,0,3.63,3.89h10.92a3.64,3.64,0,0,0,3.63-3.39l.52-7.53h64.51l.52,7.53a3.64,3.64,0,0,0,3.63,3.39h10.92a3.64,3.64,0,0,0,3.63-3.89l-.49-7h15.06a3.64,3.64,0,0,0,3.64-3.64V229.81a3.64,3.64,0,0,0-3.64-3.64H261.3l-.25-3.64h13.67a3.64,3.64,0,0,0,3.64-3.64V197a3.64,3.64,0,0,0-3.64-3.64H259l-.25-3.64h12.29a3.64,3.64,0,0,0,3.64-3.64V164.28a3.64,3.64,0,0,0-3.64-3.64h-14.3l-.26-3.64h10.92a3.64,3.64,0,0,0,3.64-3.64V131.52a3.64,3.64,0,0,0-3.64-3.64H254.52l-.25-3.64h9.53a3.64,3.64,0,0,0,3.64-3.64V98.75a3.64,3.64,0,0,0-3.64-3.64H252.26L252,91.47h8.15a3.64,3.64,0,0,0,3.64-3.64V66a3.64,3.64,0,0,0-3.64-3.64H250l-.77-11.17a3.65,3.65,0,0,0-3.63-3.39ZM242,80.55a3.64,3.64,0,1,1,3.64-3.64A3.64,3.64,0,0,1,242,80.55Zm-58.25,0a3.64,3.64,0,1,1,3.64-3.64,3.64,3.64,0,0,1-3.64,3.64Zm7.92,14.56.25-3.64h41.91l.25,3.64Zm54,18.21a3.64,3.64,0,1,1,3.64-3.64,3.65,3.65,0,0,1-3.64,3.64Zm-65.53,0a3.64,3.64,0,1,1,3.64-3.64,3.65,3.65,0,0,1-3.64,3.64Zm9.3,14.56.25-3.64h46.43l.25,3.64Zm59.87,18.2a3.64,3.64,0,1,1,3.64-3.64,3.64,3.64,0,0,1-3.64,3.64Zm-72.81,0a3.64,3.64,0,1,1,3.64-3.64,3.64,3.64,0,0,1-3.64,3.64Zm10.68,14.56.25-3.64h50.95l.25,3.64Zm62.13,18.2a3.64,3.64,0,1,1,3.64-3.64,3.64,3.64,0,0,1-3.64,3.64Zm-72.81,0a3.64,3.64,0,1,1,3.64-3.64,3.64,3.64,0,0,1-3.64,3.64Zm8.42,14.56.25-3.64h55.47l.25,3.64Zm68,18.21a3.65,3.65,0,1,1,3.64-3.65,3.65,3.65,0,0,1-3.64,3.65Zm-80.09,0a3.65,3.65,0,1,1,3.64-3.65,3.65,3.65,0,0,1-3.64,3.65Zm9.8,14.56.25-3.64h60l.25,3.64Zm70.29,18.2a3.64,3.64,0,1,1,3.64-3.64,3.64,3.64,0,0,1-3.64,3.64Zm-80.09,0a3.64,3.64,0,1,1,3.64-3.64,3.64,3.64,0,0,1-3.64,3.64Z"/></svg>