<svg data-name="Calque 1" id="Calque_1" viewBox="0 0 485.5 628.38" xmlns="http://www.w3.org/2000/svg">
    <defs>
        <style>
            .cls-1,.cls-12,.cls-8,.cls-9{isolation:isolate;}.cls-2{fill:#5f5f5f;}.cls-3{fill:#fff;}.cls-11,.cls-14,.cls-4,.cls-6{fill:none;}.cls-4{stroke:#707070;}.cls-5{fill:#616161;}.cls-6{stroke:#fff;stroke-linecap:round;stroke-linejoin:round;stroke-width:0.5px;}.cls-7{fill:#898890;}.cls-8{fill:#ef9486;}.cls-12,.cls-8{opacity:0.48;}.cls-9{opacity:0.93;}.cls-10{fill:#00a6c4;}.cls-11,.cls-14{stroke:#606060;}.cls-11{stroke-width:3px;}.cls-13{fill:#ff6679;}.cls-14{stroke-width:2px;}
        </style>
    </defs>
    <title>Etape 4</title>
    <g class="cls-1">
        <g class="cls-1">
            <path class="cls-2"
                  d="M50.25,64.75c1.08-1.72,2.12-3.44,3.36-5,.52-.68,2-.4,2.76.24.28.24.28.4.08.68a48,48,0,0,0-3.8,5.2,39.69,39.69,0,0,0,1.72,4.92c.12.32.08.48-.24.64-.88.4-2.44.2-2.72-.56A46.08,46.08,0,0,1,50,66.27,1.77,1.77,0,0,1,50.25,64.75Zm4.88,0c1-1.72,2.12-3.44,3.32-5,.52-.68,2-.4,2.8.24.24.24.24.4,0,.68a54.08,54.08,0,0,0-3.8,5.2,47.53,47.53,0,0,0,1.72,4.92c.12.32.08.48-.24.64-.88.4-2.44.2-2.72-.56a46.08,46.08,0,0,1-1.4-4.56A1.67,1.67,0,0,1,55.13,64.75Z"/>
            <path class="cls-2"
                  d="M69.49,66.15a.24.24,0,0,1,.28,0,12.59,12.59,0,0,0,4.72,1h0c3.76-5,7.6-9.8,11.4-14.12.36-.4.88-.16,1.4.2.24-.4.48-.6.64-.6.8,0,3.52,1,3.52,1.64a.31.31,0,0,1-.08.2,4.37,4.37,0,0,0-.52.68c-2.36,4.24-5.52,19-5.52,22.8,0,.32-.12.48-.48.48-1,0-2.6-.88-2.64-1.76a54.72,54.72,0,0,1,.84-7.68c-2.2.12-4.32.64-6.48.88-1.48,2.24-3.2,5-4.4,7.16a4.1,4.1,0,0,0-.56,1.52c0,.08,0,.16-.12.2-.48.39-3-1-3.52-1.6s.28-1.44.56-1.88l3.84-5.32a4.86,4.86,0,0,1-1.92-.44c-.48-.2-1.12-2.2-1.12-2.76A1,1,0,0,1,69.49,66.15Zm14,.68c.64-3.44,1.48-7,2.28-9.68-2.44,3-4.92,6.36-7.2,9.72,1.32-.12,2.64-.24,4-.24A2.42,2.42,0,0,1,83.49,66.83Z"/>
            <path class="cls-2"
                  d="M94.41,52.55c.76,0,3.48,1,3.48,1.64a.31.31,0,0,1-.08.2,4.37,4.37,0,0,0-.52.68c-2,3.6-4.6,14.8-5.32,20.44-.08.88.08,1,.68.44,2.32-2.48,4.08-7,5.08-9.64a.56.56,0,0,1,1,.4c-1,2.68-4.52,11.64-8,11.64-2.2,0-2.16-2.36-2-3.92C89.41,66.71,92.85,52.55,94.41,52.55Z"/>
            <path class="cls-2"
                  d="M103.49,62.91c2.48,0,4.56,1.72,4.56,3.52a14.78,14.78,0,0,1-1.16,5.6A15.25,15.25,0,0,0,111,66.27a.57.57,0,0,1,1,.44,15.8,15.8,0,0,1-6.24,7.44c-1.48,2.44-3.6,4.2-6,4.2-2.88,0-4.6-2.88-4.6-5,0-4,2-9.16,5.4-10.92A2.94,2.94,0,0,1,103.49,62.91Zm-4,12.56a9.69,9.69,0,0,0,2.32-.52,17.67,17.67,0,0,0,2.56-8.52c0-2.64-1.44-2.8-2.88-1.24-2.28,2.52-3.4,8.2-2.4,10.36A1.18,1.18,0,0,1,99.45,75.47Z"/>
            <path class="cls-2"
                  d="M111.85,62.91a.71.71,0,0,1,.56-.52,5.17,5.17,0,0,1,2.6,1.16c.4.32,0,.84-.2,1.24a56.42,56.42,0,0,0-2,6.36c1.44-3.08,3.56-6.88,5.48-8.48a1.06,1.06,0,0,1,.76-.28,4.94,4.94,0,0,1,2.48,1c.52.52.2.92-.24,1.24a6.9,6.9,0,0,0-2.12,4.56c0,1,.32,1.44.76,1.44,1.68,0,3.28-3.2,4-4.48a.57.57,0,0,1,1,.6c-.88,1.44-2.56,4.56-4.48,5.24-1.36.52-3.88-.72-4.08-2.48a9.43,9.43,0,0,1,1.08-4.28c.16-.36,0-.28-.12-.08-2.6,3.12-5.68,10.12-5.88,12.72,0,.4-.24.44-.48.44-1,0-2.52-1.08-2.52-1.92A47.55,47.55,0,0,1,111.85,62.91Z"/>
            <path class="cls-2"
                  d="M120.85,74.87a3.39,3.39,0,0,1,2.76-1.48c.88-.12,1.8-.12,2.56-.28-.36-2.4-3.12-3.88-3.12-7a4.19,4.19,0,0,1,4.4-4.08c1.44,0,3.28,2,3.28,3.48,0,.84-.88,2.32-1.44,2.32-.88,0-2.12-.6-2.12-1a.21.21,0,0,1,.08-.16c.68,0,1.24-1.08,1.24-1.84,0-.48-.2-.88-.64-.88-1,0-1.44,1.72-1.44,2.44,0,2.12,2.16,3.64,3,5.44a9.37,9.37,0,0,0,4.28-5.56c.2-.68,1.24-.32,1,.36a10.27,10.27,0,0,1-5,6.28c.48,3.52-3.32,5.64-6.4,5.64C120.81,78.59,119.81,76.47,120.85,74.87Zm2.16-.28a1.21,1.21,0,1,0,.68,2.28,4.24,4.24,0,0,0,2.44-2.6C125.29,74.47,123.93,74.35,123,74.59Z"/>
            <path class="cls-2"
                  d="M137.21,74.87A3.39,3.39,0,0,1,140,73.39c.88-.12,1.8-.12,2.56-.28-.36-2.4-3.12-3.88-3.12-7a4.19,4.19,0,0,1,4.4-4.08c1.44,0,3.28,2,3.28,3.48,0,.84-.88,2.32-1.44,2.32-.88,0-2.12-.6-2.12-1a.21.21,0,0,1,.08-.16c.68,0,1.24-1.08,1.24-1.84,0-.48-.2-.88-.64-.88-1,0-1.44,1.72-1.44,2.44,0,2.12,2.16,3.64,3,5.44a9.37,9.37,0,0,0,4.28-5.56c.2-.68,1.24-.32,1,.36a10.27,10.27,0,0,1-5,6.28c.48,3.52-3.32,5.64-6.4,5.64C137.17,78.59,136.17,76.47,137.21,74.87Zm2.16-.28a1.21,1.21,0,1,0,.68,2.28,4.24,4.24,0,0,0,2.44-2.6C141.65,74.47,140.29,74.35,139.37,74.59Z"/>
            <path class="cls-2"
                  d="M147.77,74.11a50.56,50.56,0,0,1,3.08-11.2c.16-.32.36-.52.6-.52A5.19,5.19,0,0,1,154,63.55c.44.32,0,.84-.16,1.24a67.5,67.5,0,0,0-3,11.08c-.12.6.24.6.56.28,2.44-2.44,4.28-7.12,5.32-9.84a.56.56,0,0,1,1,.4c-1,2.68-4.52,11.64-8,11.64a2.43,2.43,0,0,1-2.2-2.72C147.65,75.11,147.69,74.63,147.77,74.11Zm7.2-20a7.31,7.31,0,0,1,2.36,1.08c.6.4.6.92.16,1.64-.72,1.2-2.88,4.44-3.84,4.48-2.28.08-.16-5.12.36-6.08C154.37,54.47,154.69,54.07,155,54.07Z"/>
            <path class="cls-2"
                  d="M164.69,62.39a5.33,5.33,0,0,1,2.6,1.16c.28.2.16.52,0,.8a7.44,7.44,0,0,0-.4,1c-.84,2.8-1.6,5.76-2.16,8.24l-.08.36A20.11,20.11,0,0,0,170,66.31c.24-.68,1.28-.28,1,.36a21.84,21.84,0,0,1-6.76,9.12,70.13,70.13,0,0,1-2.16,7.67c-1,2.64-2.28,4.44-5.4,4.44a3.18,3.18,0,0,1-2.6-1.28c-1.16-1.64-.52-3.88.76-5.28,1.44-1.68,3.72-2.75,5.44-4,.92-3.8,1.76-7.8,2.84-11.56a25.35,25.35,0,0,1,1-2.92A.71.71,0,0,1,164.69,62.39Zm-6.44,21.55c.48-1.4,1-3.08,1.52-4.88C158,80.31,154.85,82,155,84.54c0,.68.44,1.48,1.24,1.48S157.77,85.38,158.25,83.94Zm10-29.87a7,7,0,0,1,2.36,1.08c.59.4.59.92.16,1.64-.72,1.2-2.88,4.44-3.84,4.48-2.28.08-.12-5.12.36-6.08C167.65,54.47,168,54.07,168.21,54.07Z"/>
            <path class="cls-2"
                  d="M174.25,62.23c1.52,0,4.2,2,4.2,3.8,0,3.72-4.36,6.6-7.44,6.6-.08,2.12.56,3.84,2.4,3.84,3.24,0,6.16-6.56,7.51-10.2.24-.68,1.28-.24,1,.44-1.44,3.92-4.63,11.64-9.15,11.64C163.13,78.35,168.53,62.23,174.25,62.23Zm-3.16,9.48c2.16,0,4.56-3.24,4.56-6.44,0-.84-.68-1.12-1.28-.64C172.77,65.83,171.41,69,171.09,71.71Z"/>
            <path class="cls-2"
                  d="M188.93,62.07c.8,0,3.48,1,3.48,1.68,0,.08,0,.12-.08.2a3.39,3.39,0,0,0-.49.64A17.58,17.58,0,0,0,190.49,68a38,38,0,0,1,2.67-4.24,3.82,3.82,0,0,1,2.64-1.88c1.72,0,3.28,2.16,3.28,3.48a16.45,16.45,0,0,1-2.28,7.16,14.31,14.31,0,0,0,4.76-6.28.57.57,0,0,1,1,.44,15.79,15.79,0,0,1-7.2,8c-1.56,2.12-3.4,3.64-4.79,3.64a3.48,3.48,0,0,1-2.28-.76,74.32,74.32,0,0,0-1.2,9.83c0,.32-.12.48-.48.48-1,0-2.64-.92-2.64-1.76C184,79.35,187.25,62.07,188.93,62.07Zm-.08,12.8c-.08.32-.12.6-.2.92a2.43,2.43,0,0,1,1-.32,9.81,9.81,0,0,0,2.27-.56,20,20,0,0,0,3.44-9.64c0-.76-.24-1.2-.6-1.16a.89.89,0,0,0-.64.36A28.38,28.38,0,0,0,188.85,74.87Z"/>
            <path class="cls-2"
                  d="M205.84,62.23c1.53,0,4.2,2,4.2,3.8,0,3.72-4.36,6.6-7.43,6.6-.08,2.12.55,3.84,2.39,3.84,3.24,0,6.16-6.56,7.52-10.2.24-.68,1.28-.24,1,.44-1.44,3.92-4.64,11.64-9.15,11.64C194.73,78.35,200.13,62.23,205.84,62.23Zm-3.15,9.48c2.15,0,4.56-3.24,4.56-6.44a.75.75,0,0,0-1.29-.64C204.37,65.83,203,69,202.69,71.71Z"/>
            <path class="cls-2"
                  d="M217.48,74.11a2.55,2.55,0,0,0,.08-.28c-1.19,2.44-2.68,4.52-4.48,4.52a3,3,0,0,1-2.83-2.72c.08-.52.12-1,.2-1.52a48,48,0,0,1,3.08-11.2c.16-.32.35-.52.59-.52a5.19,5.19,0,0,1,2.56,1.16c.4.32,0,.84-.2,1.24a70.35,70.35,0,0,0-2.79,10c-.2.92.08,1.44.51,1.44,1.92,0,4.72-8.76,5.36-10.64.32-1,.64-1.88,1-2.72.16-.32.4-.52.6-.52a5.19,5.19,0,0,1,2.56,1.16c.44.32,0,.84-.16,1.24a67.5,67.5,0,0,0-3,11.08c-.12.6.24.6.6.28,2.4-2.44,4.24-7.12,5.28-9.84a.56.56,0,0,1,1,.4c-1,2.68-4.52,11.64-8,11.64a2.45,2.45,0,0,1-2.2-2.72C217.36,75.11,217.44,74.63,217.48,74.11Z"/>
            <path class="cls-2"
                  d="M230.16,76.67c-.44-1.08-.88-2.36-1.32-3.68-.47.6-1,1.24-1.51,1.88a32.46,32.46,0,0,0-2.76,3.76c-.12.15-.2.23-.32.23s-.16-.08-.28-.19a1.89,1.89,0,0,1-.36-1.24,8.75,8.75,0,0,1,1.47-2.88c.76-1.08,1.84-2.6,3-4.2-.28-1.16-.56-2.28-.75-3.36,0,.08-.08.12-.08.2a.56.56,0,1,1-1.05-.36,8.19,8.19,0,0,0,.48-3.32.67.67,0,0,1,.4-.8,6.22,6.22,0,0,1,2.72-.28c.48.08.48.4.44.72a4.11,4.11,0,0,0,0,.72c.16.92.32,1.88.52,2.88a45.5,45.5,0,0,1,3.44-3.92,7.31,7.31,0,0,1,1.28-1c.6-.36,1.72.52,2,1s0,.68-.28.88-.4.36-.6.52c-1.8,1.8-3.48,3.72-5.12,5.6a60.5,60.5,0,0,0,1.76,6c.16.56.56.76,1.16.12,2.32-2.44,4.08-7,5.12-9.64a.56.56,0,0,1,1,.4c-1,2.68-4.52,11.64-8,11.64A2.79,2.79,0,0,1,230.16,76.67Z"/>
            <path class="cls-2"
                  d="M246.84,62.91a.71.71,0,0,1,.56-.52,5.33,5.33,0,0,1,2.6,1.16c.4.32,0,.84-.2,1.24a56.42,56.42,0,0,0-2,6.36c1.44-3.08,3.56-6.88,5.48-8.48a1.06,1.06,0,0,1,.76-.28,4.75,4.75,0,0,1,2.52,1.08c.24.32.16.52,0,.84a59,59,0,0,0-2.16,6.84c1.44-3.08,3.56-6.88,5.48-8.48a1.12,1.12,0,0,1,.76-.28c.6,0,2.72.72,2.72,1.48a1.8,1.8,0,0,1-.12.44,4.47,4.47,0,0,0-.44,1A65.64,65.64,0,0,0,260,75.87c-.12.6.16.68.6.28,2.4-2.44,4.24-7.12,5.28-9.84a.56.56,0,0,1,1,.4c-1,2.68-4.52,11.64-8,11.64a2.18,2.18,0,0,1-2.32-2.12,58.92,58.92,0,0,1,2.68-11.48c-2.64,2.88-6,10.44-6.2,13.16,0,.4-.28.44-.52.44-1,0-2.52-1.08-2.52-1.92a49.31,49.31,0,0,1,2.64-11.64c-2.68,2.92-6.08,10.4-6.28,13.12,0,.4-.24.44-.48.44-1,0-2.52-1.08-2.52-1.92A47.55,47.55,0,0,1,246.84,62.91Z"/>
            <path class="cls-2"
                  d="M270.24,62.23c1.52,0,4.2,2,4.2,3.8,0,3.72-4.36,6.6-7.44,6.6-.08,2.12.56,3.84,2.4,3.84,3.24,0,6.16-6.56,7.52-10.2.24-.68,1.28-.24,1,.44-1.44,3.92-4.64,11.64-9.16,11.64C259.12,78.35,264.52,62.23,270.24,62.23Zm-3.16,9.48c2.16,0,4.56-3.24,4.56-6.44,0-.84-.68-1.12-1.28-.64C268.76,65.83,267.4,69,267.08,71.71Z"/>
            <path class="cls-2"
                  d="M284.92,62.07c.8,0,3.48,1,3.48,1.68,0,.08,0,.12-.08.2a3.82,3.82,0,0,0-.48.64A17.53,17.53,0,0,0,286.48,68a38,38,0,0,1,2.68-4.24,3.82,3.82,0,0,1,2.64-1.88c1.72,0,3.28,2.16,3.28,3.48a16.45,16.45,0,0,1-2.28,7.16,14.31,14.31,0,0,0,4.76-6.28.57.57,0,0,1,1,.44,15.79,15.79,0,0,1-7.2,8c-1.56,2.12-3.4,3.64-4.8,3.64a3.48,3.48,0,0,1-2.28-.76,74.32,74.32,0,0,0-1.2,9.83c0,.32-.12.48-.48.48-1,0-2.64-.92-2.64-1.76C280,79.35,283.24,62.07,284.92,62.07Zm-.08,12.8c-.08.32-.12.6-.2.92a2.43,2.43,0,0,1,1-.32,9.88,9.88,0,0,0,2.28-.56,20,20,0,0,0,3.44-9.64c0-.76-.24-1.2-.6-1.16a.89.89,0,0,0-.64.36A28.56,28.56,0,0,0,284.84,74.87Z"/>
            <path class="cls-2"
                  d="M301.84,62.23c1.52,0,4.2,2,4.2,3.8,0,3.72-4.36,6.6-7.44,6.6-.08,2.12.56,3.84,2.4,3.84,3.24,0,6.16-6.56,7.52-10.2.24-.68,1.28-.24,1,.44-1.44,3.92-4.64,11.64-9.16,11.64C290.72,78.35,296.12,62.23,301.84,62.23Zm-3.16,9.48c2.16,0,4.56-3.24,4.56-6.44,0-.84-.68-1.12-1.28-.64C300.36,65.83,299,69,298.68,71.71Z"/>
            <path class="cls-2"
                  d="M309.56,62.91a.71.71,0,0,1,.56-.52,5.17,5.17,0,0,1,2.6,1.16c.4.32,0,.84-.2,1.24a56.42,56.42,0,0,0-2,6.36c1.44-3.08,3.56-6.88,5.48-8.48a1.06,1.06,0,0,1,.76-.28,4.94,4.94,0,0,1,2.48,1c.52.52.2.92-.24,1.24a6.9,6.9,0,0,0-2.12,4.56c0,1,.32,1.44.76,1.44,1.68,0,3.28-3.2,4-4.48a.57.57,0,0,1,1,.6c-.88,1.44-2.56,4.56-4.48,5.24-1.36.52-3.88-.72-4.08-2.48a9.43,9.43,0,0,1,1.08-4.28c.16-.36,0-.28-.12-.08-2.6,3.12-5.68,10.12-5.88,12.72,0,.4-.24.44-.48.44-1,0-2.52-1.08-2.52-1.92A47.55,47.55,0,0,1,309.56,62.91Z"/>
            <path class="cls-2"
                  d="M322.56,62.91a.71.71,0,0,1,.56-.52,5.33,5.33,0,0,1,2.6,1.16c.4.32,0,.84-.2,1.24a56.42,56.42,0,0,0-2,6.36c1.44-3.08,3.56-6.88,5.48-8.48a1.06,1.06,0,0,1,.76-.28,4.75,4.75,0,0,1,2.52,1.08c.24.32.16.52,0,.84a59,59,0,0,0-2.16,6.84c1.44-3.08,3.56-6.88,5.48-8.48a1.12,1.12,0,0,1,.76-.28c.6,0,2.72.72,2.72,1.48a1.8,1.8,0,0,1-.12.44,4.47,4.47,0,0,0-.44,1,65.64,65.64,0,0,0-2.84,10.56c-.12.6.16.68.6.28,2.4-2.44,4.24-7.12,5.28-9.84a.56.56,0,0,1,1,.4c-1,2.68-4.52,11.64-8,11.64a2.18,2.18,0,0,1-2.32-2.12,58.92,58.92,0,0,1,2.68-11.48c-2.64,2.88-6,10.44-6.2,13.16,0,.4-.28.44-.52.44-1,0-2.52-1.08-2.52-1.92a49.31,49.31,0,0,1,2.64-11.64c-2.68,2.92-6.08,10.4-6.28,13.12,0,.4-.24.44-.48.44-1,0-2.52-1.08-2.52-1.92A47.55,47.55,0,0,1,322.56,62.91Z"/>
            <path class="cls-2"
                  d="M346,62.23c1.52,0,4.2,2,4.2,3.8,0,3.72-4.36,6.6-7.44,6.6-.08,2.12.56,3.84,2.4,3.84,3.24,0,6.16-6.56,7.52-10.2.24-.68,1.28-.24,1,.44-1.44,3.92-4.64,11.64-9.16,11.64C334.84,78.35,340.24,62.23,346,62.23Zm-3.16,9.48c2.16,0,4.56-3.24,4.56-6.44,0-.84-.68-1.12-1.28-.64C344.48,65.83,343.12,69,342.8,71.71Z"/>
            <path class="cls-2"
                  d="M366.16,58c-.12.36-.28.76-.4,1.16a7.39,7.39,0,0,1,3,.48,3.31,3.31,0,0,1,.44,1.64.64.64,0,0,1-.12.44H369a14.14,14.14,0,0,0-3.88-.48,117.08,117.08,0,0,0-3.2,14.24c-.12.92.08,1.08.64.44a35.35,35.35,0,0,0,5.8-9.64.54.54,0,1,1,1,.4c-1,2.68-5.36,11.68-8.6,11.68-2.24,0-2.2-2.4-2-4,0-.68.12-1.44.24-2.24-1.76,3.12-4,6.2-6,6.2-2.2,0-2.16-2.4-2-4a103.15,103.15,0,0,1,2.44-13,6.48,6.48,0,0,1-.88,0c-.76,0-2.52,0-2.92-1.08-.12-.32,0-.44.36-.44a32.45,32.45,0,0,0,3.92-.36,22,22,0,0,1,.92-3c.36-.92.76-1.48,1.12-1.48.8,0,3.24,1,3.24,1.64a.31.31,0,0,1-.08.2.7.7,0,0,1-.16.2,3.68,3.68,0,0,0-.52,1c-.12.36-.24.76-.4,1.16,1.24,0,2.48-.08,3.72-.08.24-.88.48-1.76.8-2.6s.8-1.48,1.16-1.48c.8,0,3.24,1,3.24,1.64a.31.31,0,0,1-.08.2.7.7,0,0,0-.16.2A2.26,2.26,0,0,0,366.16,58Zm-8.76,3.24a110,110,0,0,0-3.2,14.24c-.12.92.08,1.08.64.44a31.71,31.71,0,0,0,4.72-7.28c.44-2.4,1-5,1.6-7.32l0-.12C359.92,61.19,358.64,61.27,357.4,61.23Z"/>
            <path class="cls-2"
                  d="M369.2,62.91a.71.71,0,0,1,.56-.52,5.17,5.17,0,0,1,2.6,1.16c.4.32,0,.84-.2,1.24a56.42,56.42,0,0,0-2,6.36c1.44-3.08,3.56-6.88,5.48-8.48a1.06,1.06,0,0,1,.76-.28,4.94,4.94,0,0,1,2.48,1c.52.52.2.92-.24,1.24a6.9,6.9,0,0,0-2.12,4.56c0,1,.32,1.44.76,1.44,1.68,0,3.28-3.2,4-4.48a.57.57,0,0,1,1,.6c-.88,1.44-2.56,4.56-4.48,5.24-1.36.52-3.88-.72-4.08-2.48a9.43,9.43,0,0,1,1.08-4.28c.16-.36,0-.28-.12-.08-2.6,3.12-5.68,10.12-5.88,12.72,0,.4-.24.44-.48.44-1,0-2.52-1.08-2.52-1.92A47.55,47.55,0,0,1,369.2,62.91Z"/>
            <path class="cls-2"
                  d="M385.64,62.23c1.52,0,4.2,2,4.2,3.8,0,3.72-4.36,6.6-7.44,6.6-.08,2.12.56,3.84,2.4,3.84,3.24,0,6.16-6.56,7.52-10.2.24-.68,1.28-.24,1,.44-1.44,3.92-4.64,11.64-9.16,11.64C374.52,78.35,379.92,62.23,385.64,62.23Zm-3.16,9.48c2.16,0,4.56-3.24,4.56-6.44,0-.84-.68-1.12-1.28-.64C384.16,65.83,382.8,69,382.48,71.71Z"/>
            <path class="cls-2"
                  d="M404,73.79c-1.12,2.4-2.68,4.56-4.64,4.56s-2.84-1.52-2.92-3.24c-.2-4.32,1.72-10.64,5.44-12.64,1.28-.72,2.8.28,3.92.84,1.24-5.72,2.84-10.76,3.76-10.76s3.52,1,3.52,1.64a.22.22,0,0,1-.12.2,4.15,4.15,0,0,0-.48.68c-2,3.6-4.6,14.8-5.32,20.44-.12.88.08,1,.64.44,2.32-2.48,4.12-7,5.12-9.64a.56.56,0,0,1,1,.4c-1,2.68-4.52,11.64-8,11.64-2.24,0-2.16-2.36-2-3.92C404,74.23,404,74,404,73.79Zm-4.16.16c-.12,1.36.2,2.2.8,2.2.4,0,.92-.4,1.48-1.28a25.51,25.51,0,0,0,2.48-5.44c.24-1.52.56-3.12.88-4.72a1,1,0,0,0-.88-.64C402,64.07,400.2,70.43,399.84,74Z"/>
            <path class="cls-2"
                  d="M417.2,62.23c1.52,0,4.2,2,4.2,3.8,0,3.72-4.36,6.6-7.44,6.6-.08,2.12.56,3.84,2.4,3.84,3.24,0,6.16-6.56,7.52-10.2.24-.68,1.28-.24,1,.44-1.44,3.92-4.64,11.64-9.16,11.64C406.08,78.35,411.48,62.23,417.2,62.23ZM414,71.71c2.16,0,4.56-3.24,4.56-6.44,0-.84-.68-1.12-1.28-.64C415.72,65.83,414.36,69,414,71.71Z"/>
        </g>
        <g class="cls-1">
            <path class="cls-2"
                  d="M70.69,88c-.16.4-.28.8-.4,1.2a6.58,6.58,0,0,1,3,.48c.24.12.48,1.2.48,1.6,0,.24,0,.36-.16.44h-.12a12.33,12.33,0,0,0-3.84-.44,115,115,0,0,0-3.2,14.2c-.08.88.08,1,.64.44a34.78,34.78,0,0,0,5.76-9.64.56.56,0,0,1,1,.4c-1,2.68-5.36,11.64-8.6,11.64-2.24,0-2.16-2.36-2-3.92a93.75,93.75,0,0,1,2.44-13h-.88c-.76,0-2.52,0-2.92-1-.12-.32,0-.48.36-.48a31.07,31.07,0,0,0,3.88-.32,24.39,24.39,0,0,1,.92-3c.4-1,.8-1.48,1.16-1.48.8,0,3.24,1,3.24,1.64,0,.08,0,.12-.12.2s-.08.12-.12.16A2.52,2.52,0,0,0,70.69,88Z"/>
            <path class="cls-2"
                  d="M77.13,92.23c1.52,0,4.2,2,4.2,3.8,0,3.72-4.36,6.6-7.44,6.6-.08,2.12.56,3.84,2.4,3.84,3.24,0,6.16-6.56,7.52-10.2.24-.68,1.28-.24,1,.44-1.44,3.92-4.64,11.64-9.16,11.64C66,108.35,71.41,92.23,77.13,92.23ZM74,101.71c2.16,0,4.56-3.24,4.56-6.44,0-.84-.68-1.12-1.28-.64C75.65,95.83,74.29,99,74,101.71Z"/>
            <path class="cls-2"
                  d="M95.49,103.79c-1.12,2.4-2.68,4.56-4.64,4.56s-2.84-1.52-2.92-3.24c-.2-4.32,1.72-10.64,5.44-12.64,1.28-.72,2.8.28,3.92.84,1.24-5.72,2.84-10.76,3.76-10.76s3.52,1,3.52,1.64a.22.22,0,0,1-.12.2,4.15,4.15,0,0,0-.48.68c-2,3.6-4.6,14.8-5.32,20.44-.12.88.08,1,.64.44,2.32-2.48,4.12-7,5.12-9.64a.56.56,0,0,1,1,.4c-1,2.68-4.52,11.64-8,11.64-2.24,0-2.16-2.36-2-3.92C95.45,104.23,95.49,104,95.49,103.79Zm-4.16.16c-.12,1.36.2,2.2.8,2.2.4,0,.92-.4,1.48-1.28a25.51,25.51,0,0,0,2.48-5.44c.24-1.52.56-3.12.88-4.72a1,1,0,0,0-.88-.64C93.45,94.07,91.69,100.43,91.33,104Z"/>
            <path class="cls-2"
                  d="M110.13,92.91c2.48,0,4.56,1.72,4.56,3.52a14.78,14.78,0,0,1-1.16,5.6,15.25,15.25,0,0,0,4.12-5.76.57.57,0,0,1,1,.44,15.8,15.8,0,0,1-6.24,7.44c-1.48,2.44-3.6,4.2-6,4.2-2.88,0-4.6-2.88-4.6-5,0-4,2-9.16,5.4-10.92A2.94,2.94,0,0,1,110.13,92.91Zm-4,12.56a9.69,9.69,0,0,0,2.32-.52A17.67,17.67,0,0,0,111,96.43c0-2.64-1.44-2.8-2.88-1.24-2.28,2.52-3.4,8.2-2.4,10.36A1.18,1.18,0,0,1,106.09,105.47Z"/>
            <path class="cls-2"
                  d="M118.49,92.91a.71.71,0,0,1,.56-.52,5.17,5.17,0,0,1,2.6,1.16c.4.32,0,.84-.2,1.24a56.42,56.42,0,0,0-2,6.36c1.44-3.08,3.56-6.88,5.48-8.48a1.06,1.06,0,0,1,.76-.28c.56,0,2.68.72,2.68,1.48a.91.91,0,0,1-.12.44c-.16.32-.28.64-.44,1a69.62,69.62,0,0,0-2.8,10.56c-.12.6.16.68.56.28,2.44-2.44,4.28-7.12,5.32-9.84a.56.56,0,0,1,1,.4c-1,2.68-4.52,11.64-8,11.64a2.16,2.16,0,0,1-2.32-2.12,58.92,58.92,0,0,1,2.68-11.48c-2.68,2.88-6,10.44-6.24,13.16,0,.4-.24.44-.48.44-1,0-2.52-1.08-2.52-1.92A47.55,47.55,0,0,1,118.49,92.91Z"/>
            <path class="cls-2"
                  d="M131.77,92.91a.71.71,0,0,1,.56-.52,5.17,5.17,0,0,1,2.6,1.16c.4.32,0,.84-.2,1.24a56.42,56.42,0,0,0-2,6.36c1.44-3.08,3.56-6.88,5.48-8.48a1.06,1.06,0,0,1,.76-.28c.56,0,2.68.72,2.68,1.48a.91.91,0,0,1-.12.44c-.16.32-.28.64-.44,1a69.62,69.62,0,0,0-2.8,10.56c-.12.6.16.68.56.28,2.44-2.44,4.28-7.12,5.32-9.84a.56.56,0,0,1,1,.4c-1,2.68-4.52,11.64-8,11.64a2.16,2.16,0,0,1-2.32-2.12,58.92,58.92,0,0,1,2.68-11.48c-2.68,2.88-6,10.44-6.24,13.16,0,.4-.24.44-.48.44-1,0-2.52-1.08-2.52-1.92A47.55,47.55,0,0,1,131.77,92.91Z"/>
            <path class="cls-2"
                  d="M148.49,92.23c1.52,0,4.2,2,4.2,3.8,0,3.72-4.36,6.6-7.44,6.6-.08,2.12.56,3.84,2.4,3.84,3.24,0,6.16-6.56,7.51-10.2.25-.68,1.29-.24,1,.44-1.43,3.92-4.63,11.64-9.15,11.64C137.37,108.35,142.77,92.23,148.49,92.23Zm-3.16,9.48c2.16,0,4.56-3.24,4.56-6.44,0-.84-.68-1.12-1.28-.64C147,95.83,145.65,99,145.33,101.71Z"/>
            <path class="cls-2"
                  d="M156.21,92.91a.71.71,0,0,1,.56-.52,5.17,5.17,0,0,1,2.6,1.16c.4.32,0,.84-.2,1.24a56.42,56.42,0,0,0-2,6.36c1.44-3.08,3.56-6.88,5.48-8.48a1.06,1.06,0,0,1,.76-.28,4.88,4.88,0,0,1,2.47,1c.53.52.2.92-.23,1.24a6.9,6.9,0,0,0-2.12,4.56c0,1,.32,1.44.76,1.44,1.67,0,3.27-3.2,4-4.48a.56.56,0,0,1,.95.6c-.88,1.44-2.56,4.56-4.47,5.24-1.36.52-3.88-.72-4.08-2.48a9.43,9.43,0,0,1,1.08-4.28c.16-.36,0-.28-.12-.08-2.6,3.12-5.68,10.12-5.88,12.72,0,.4-.24.44-.48.44-1,0-2.52-1.08-2.52-1.92A47.55,47.55,0,0,1,156.21,92.91Z"/>
            <path class="cls-2"
                  d="M179.53,104.11a2.55,2.55,0,0,0,.08-.28c-1.2,2.44-2.68,4.52-4.48,4.52a3,3,0,0,1-2.84-2.72c.08-.52.12-1,.2-1.52a48.48,48.48,0,0,1,3.08-11.2c.16-.32.36-.52.6-.52a5.19,5.19,0,0,1,2.56,1.16c.4.32,0,.84-.2,1.24a69.14,69.14,0,0,0-2.8,10c-.2.92.08,1.44.52,1.44,1.92,0,4.72-8.76,5.36-10.64.31-1,.64-1.88,1-2.72a.79.79,0,0,1,.59-.52,5.19,5.19,0,0,1,2.56,1.16c.44.32,0,.84-.16,1.24a67.4,67.4,0,0,0-3,11.08c-.12.6.23.6.59.28,2.4-2.44,4.24-7.12,5.28-9.84a.56.56,0,0,1,1,.4c-1,2.68-4.52,11.64-7.95,11.64a2.45,2.45,0,0,1-2.2-2.72C179.41,105.11,179.49,104.63,179.53,104.11Z"/>
            <path class="cls-2"
                  d="M189.29,92.91a.71.71,0,0,1,.56-.52,5.17,5.17,0,0,1,2.6,1.16c.4.32,0,.84-.2,1.24a56.42,56.42,0,0,0-2,6.36c1.44-3.08,3.55-6.88,5.47-8.48a1.07,1.07,0,0,1,.76-.28c.56,0,2.68.72,2.68,1.48a.91.91,0,0,1-.12.44c-.16.32-.28.64-.44,1a70.81,70.81,0,0,0-2.8,10.56c-.12.6.16.68.56.28,2.44-2.44,4.28-7.12,5.32-9.84a.56.56,0,0,1,1,.4c-1,2.68-4.52,11.64-8,11.64a2.16,2.16,0,0,1-2.31-2.12,58.89,58.89,0,0,1,2.67-11.48c-2.67,2.88-6,10.44-6.23,13.16,0,.4-.24.44-.48.44-1,0-2.52-1.08-2.52-1.92A47.55,47.55,0,0,1,189.29,92.91Z"/>
            <path class="cls-2"
                  d="M212.32,92.23c1.88,0,3.84,1.72,3.84,3.44,0,2.16-1.16,4.52-2.08,4.52a3.87,3.87,0,0,1-2.2-1.24c-.28-.32-.12-.72.32-1A4.52,4.52,0,0,0,214,95.71c.4-1,.2-1.6-.32-1.6-3.35,0-7.15,12.36-2.24,12.36,3.56,0,6-6.6,7.52-10.2a.55.55,0,0,1,1,.44c-1.52,3.76-4.36,11.64-9.16,11.64C201.21,108.35,206.89,92.23,212.32,92.23Z"/>
            <path class="cls-2"
                  d="M224.52,92.91c2.48,0,4.56,1.72,4.56,3.52a14.78,14.78,0,0,1-1.16,5.6A15.25,15.25,0,0,0,232,96.27a.57.57,0,0,1,1,.44,15.8,15.8,0,0,1-6.24,7.44c-1.48,2.44-3.6,4.2-6,4.2-2.88,0-4.59-2.88-4.59-5,0-4,2-9.16,5.39-10.92A2.94,2.94,0,0,1,224.52,92.91Zm-4,12.56a9.69,9.69,0,0,0,2.32-.52,17.67,17.67,0,0,0,2.56-8.52c0-2.64-1.44-2.8-2.88-1.24-2.28,2.52-3.4,8.2-2.4,10.36A1.24,1.24,0,0,1,220.48,105.47Z"/>
            <path class="cls-2"
                  d="M232.88,92.91a.71.71,0,0,1,.56-.52,5.17,5.17,0,0,1,2.6,1.16c.4.32,0,.84-.2,1.24a56.42,56.42,0,0,0-2,6.36c1.44-3.08,3.56-6.88,5.48-8.48a1.06,1.06,0,0,1,.76-.28c.56,0,2.68.72,2.68,1.48a.91.91,0,0,1-.12.44c-.16.32-.28.64-.44,1a69.62,69.62,0,0,0-2.8,10.56c-.12.6.16.68.56.28,2.44-2.44,4.28-7.12,5.32-9.84a.56.56,0,0,1,1,.4c-1,2.68-4.52,11.64-8,11.64a2.16,2.16,0,0,1-2.32-2.12,58.92,58.92,0,0,1,2.68-11.48c-2.68,2.88-6,10.44-6.24,13.16,0,.4-.23.44-.48.44-1,0-2.51-1.08-2.51-1.92A47.2,47.2,0,0,1,232.88,92.91Z"/>
            <path class="cls-2"
                  d="M242.45,104.87a3.36,3.36,0,0,1,2.75-1.48c.88-.12,1.8-.12,2.56-.28-.36-2.4-3.12-3.88-3.12-7a4.19,4.19,0,0,1,4.4-4.08c1.44,0,3.28,2,3.28,3.48,0,.84-.88,2.32-1.44,2.32-.88,0-2.12-.6-2.12-1a.21.21,0,0,1,.08-.16c.68,0,1.24-1.08,1.24-1.84,0-.48-.2-.88-.64-.88-1,0-1.44,1.72-1.44,2.44,0,2.12,2.16,3.64,3,5.44a9.37,9.37,0,0,0,4.28-5.56c.2-.68,1.24-.32,1,.36a10.27,10.27,0,0,1-5,6.28c.48,3.52-3.32,5.64-6.4,5.64C242.41,108.59,241.41,106.47,242.45,104.87Zm2.15-.28a1.21,1.21,0,1,0,.68,2.28,4.24,4.24,0,0,0,2.44-2.6C246.88,104.47,245.52,104.35,244.6,104.59Z"/>
            <path class="cls-2"
                  d="M259.56,92.23c1.52,0,4.2,2,4.2,3.8,0,3.72-4.36,6.6-7.44,6.6-.08,2.12.56,3.84,2.4,3.84,3.24,0,6.16-6.56,7.52-10.2.24-.68,1.28-.24,1,.44-1.44,3.92-4.64,11.64-9.16,11.64C248.45,108.35,253.84,92.23,259.56,92.23Zm-3.16,9.48c2.16,0,4.56-3.24,4.56-6.44,0-.84-.68-1.12-1.28-.64C258.08,95.83,256.72,99,256.4,101.71Z"/>
            <path class="cls-2"
                  d="M264.16,104.11a50.56,50.56,0,0,1,3.08-11.2c.16-.32.36-.52.6-.52a5.19,5.19,0,0,1,2.56,1.16c.44.32,0,.84-.16,1.24a67.5,67.5,0,0,0-3,11.08c-.12.6.24.6.56.28,2.44-2.44,4.28-7.12,5.32-9.84a.56.56,0,0,1,1,.4c-1,2.68-4.52,11.64-8,11.64a2.43,2.43,0,0,1-2.2-2.72C264,105.11,264.08,104.63,264.16,104.11Zm7.2-20a7.31,7.31,0,0,1,2.36,1.08c.6.4.6.92.16,1.64-.72,1.2-2.88,4.44-3.84,4.48-2.28.08-.16-5.12.36-6.08C270.76,84.47,271.08,84.07,271.36,84.07Z"/>
            <path class="cls-2"
                  d="M276.32,82.55c.76,0,3.48,1,3.48,1.64a.31.31,0,0,1-.08.2,4.37,4.37,0,0,0-.52.68c-2,3.6-4.6,14.8-5.32,20.44-.08.88.08,1,.68.44,2.32-2.48,4.08-7,5.08-9.64a.56.56,0,0,1,1,.4c-1,2.68-4.52,11.64-8,11.64-2.2,0-2.16-2.36-2-3.92C271.32,96.71,274.76,82.55,276.32,82.55Z"/>
            <path class="cls-2"
                  d="M282.52,106.63c-.64,2.88-2.24,3.87-4,3.87-.2,0-.2-.15-.08-.27a4.39,4.39,0,0,0,1.32-1.6c.08-.16.08-.24-.08-.28-2.16-.41-1-4.72.4-4.68a3.2,3.2,0,0,1,2.12.72C282.88,105,282.68,105.83,282.52,106.63Z"/>
            <path class="cls-2"
                  d="M297.84,92.23c1.88,0,3.84,1.72,3.84,3.44,0,2.16-1.16,4.52-2.08,4.52A3.87,3.87,0,0,1,297.4,99c-.28-.32-.12-.72.32-1a4.52,4.52,0,0,0,1.84-2.28c.4-1,.2-1.6-.32-1.6-3.36,0-7.16,12.36-2.24,12.36,3.56,0,6-6.6,7.52-10.2a.55.55,0,0,1,1,.44c-1.52,3.76-4.36,11.64-9.16,11.64C286.72,108.35,292.4,92.23,297.84,92.23Z"/>
            <path class="cls-2"
                  d="M311.16,84.75c-.64,2.88-2.24,3.88-4,3.88-.2,0-.2-.12-.08-.24a4.14,4.14,0,0,0,1.32-1.64c.08-.12.08-.24-.08-.24-2.16-.44-1-4.72.4-4.68a2.83,2.83,0,0,1,2.12.72C311.52,83.19,311.32,84,311.16,84.75Z"/>
            <path class="cls-2"
                  d="M316.16,92.23c1.52,0,4.2,2,4.2,3.8,0,3.72-4.36,6.6-7.44,6.6-.08,2.12.56,3.84,2.4,3.84,3.24,0,6.16-6.56,7.52-10.2.24-.68,1.28-.24,1,.44-1.44,3.92-4.64,11.64-9.16,11.64C305,108.35,310.44,92.23,316.16,92.23ZM313,101.71c2.16,0,4.56-3.24,4.56-6.44,0-.84-.68-1.12-1.28-.64C314.68,95.83,313.32,99,313,101.71Z"/>
            <path class="cls-2"
                  d="M320.16,104.87a3.39,3.39,0,0,1,2.76-1.48c.88-.12,1.8-.12,2.56-.28-.36-2.4-3.12-3.88-3.12-7a4.19,4.19,0,0,1,4.4-4.08c1.44,0,3.28,2,3.28,3.48,0,.84-.88,2.32-1.44,2.32-.88,0-2.12-.6-2.12-1a.21.21,0,0,1,.08-.16c.68,0,1.24-1.08,1.24-1.84,0-.48-.2-.88-.64-.88-1,0-1.44,1.72-1.44,2.44,0,2.12,2.16,3.64,3,5.44A9.37,9.37,0,0,0,333,96.31c.2-.68,1.24-.32,1,.36a10.27,10.27,0,0,1-5,6.28c.48,3.52-3.32,5.64-6.4,5.64C320.12,108.59,319.12,106.47,320.16,104.87Zm2.16-.28a1.21,1.21,0,1,0,.68,2.28,4.24,4.24,0,0,0,2.44-2.6C324.6,104.47,323.24,104.35,322.32,104.59Z"/>
            <path class="cls-2"
                  d="M338.56,88c-.16.4-.28.8-.4,1.2a6.58,6.58,0,0,1,3,.48c.24.12.48,1.2.48,1.6,0,.24,0,.36-.16.44h-.12a12.33,12.33,0,0,0-3.84-.44,115,115,0,0,0-3.2,14.2c-.08.88.08,1,.64.44a34.78,34.78,0,0,0,5.76-9.64.56.56,0,0,1,1,.4c-1,2.68-5.36,11.64-8.6,11.64-2.24,0-2.16-2.36-2-3.92a93.75,93.75,0,0,1,2.44-13h-.88c-.76,0-2.52,0-2.92-1-.12-.32,0-.48.36-.48a31.07,31.07,0,0,0,3.88-.32,24.39,24.39,0,0,1,.92-3c.4-1,.8-1.48,1.16-1.48.8,0,3.24,1,3.24,1.64,0,.08,0,.12-.12.2s-.08.12-.12.16A2.52,2.52,0,0,0,338.56,88Z"/>
            <path class="cls-2"
                  d="M352.84,92.91c2.48,0,4.56,1.72,4.56,3.52a14.78,14.78,0,0,1-1.16,5.6,15.25,15.25,0,0,0,4.12-5.76.57.57,0,0,1,1,.44,15.8,15.8,0,0,1-6.24,7.44c-1.48,2.44-3.6,4.2-6,4.2-2.88,0-4.6-2.88-4.6-5,0-4,2-9.16,5.4-10.92A2.94,2.94,0,0,1,352.84,92.91Zm-4,12.56a9.69,9.69,0,0,0,2.32-.52,17.67,17.67,0,0,0,2.56-8.52c0-2.64-1.44-2.8-2.88-1.24-2.28,2.52-3.4,8.2-2.4,10.36A1.18,1.18,0,0,1,348.8,105.47Z"/>
            <path class="cls-2"
                  d="M365.12,104.11a2.55,2.55,0,0,0,.08-.28c-1.2,2.44-2.68,4.52-4.48,4.52a3,3,0,0,1-2.84-2.72c.08-.52.12-1,.2-1.52a48.48,48.48,0,0,1,3.08-11.2c.16-.32.36-.52.6-.52a5.19,5.19,0,0,1,2.56,1.16c.4.32,0,.84-.2,1.24a69.14,69.14,0,0,0-2.8,10c-.2.92.08,1.44.52,1.44,1.92,0,4.72-8.76,5.36-10.64.32-1,.64-1.88,1-2.72.16-.32.4-.52.6-.52a5.19,5.19,0,0,1,2.56,1.16c.44.32,0,.84-.16,1.24a67.5,67.5,0,0,0-3,11.08c-.12.6.24.6.6.28,2.4-2.44,4.24-7.12,5.28-9.84a.56.56,0,0,1,1,.4c-1,2.68-4.52,11.64-8,11.64a2.45,2.45,0,0,1-2.2-2.72C365,105.11,365.08,104.63,365.12,104.11Z"/>
            <path class="cls-2"
                  d="M377.24,82.55c.8,0,3.48,1,3.48,1.64a.31.31,0,0,1-.08.2,2.63,2.63,0,0,0-.48.68c-1.28,2.24-2.76,7.48-3.84,12.44a26.07,26.07,0,0,1,2-3.56c.8-1.16,1.76-2.12,2.76-2.12,1.68,0,3.28,2.24,3.28,3.56a15.7,15.7,0,0,1-2.16,7.16A14,14,0,0,0,387,96.27a.57.57,0,0,1,1,.44,15.71,15.71,0,0,1-7.16,8c-1.6,2.12-3.4,3.64-4.84,3.64a2.67,2.67,0,0,1-1.36-.68c0,.24.08.68-.48.68-1,0-2.64-.88-2.64-1.76C371.52,99.83,375.56,82.55,377.24,82.55Zm-.16,15.88a23.41,23.41,0,0,0-2.28,7,12.23,12.23,0,0,0,2.6-.56,20,20,0,0,0,3.24-9.64c0-1.24-.68-1.6-1.4-.56A34.58,34.58,0,0,0,377.08,98.43Z"/>
            <path class="cls-2"
                  d="M390.2,82.55c.76,0,3.48,1,3.48,1.64a.31.31,0,0,1-.08.2,4.37,4.37,0,0,0-.52.68c-2,3.6-4.6,14.8-5.32,20.44-.08.88.08,1,.68.44,2.32-2.48,4.08-7,5.08-9.64a.56.56,0,0,1,1,.4c-1,2.68-4.52,11.64-8,11.64-2.2,0-2.16-2.36-2-3.92C385.2,96.71,388.64,82.55,390.2,82.55Z"/>
            <path class="cls-2"
                  d="M391.28,104.11a50.56,50.56,0,0,1,3.08-11.2c.16-.32.36-.52.6-.52a5.19,5.19,0,0,1,2.56,1.16c.44.32,0,.84-.16,1.24a67.5,67.5,0,0,0-3,11.08c-.12.6.24.6.56.28,2.44-2.44,4.28-7.12,5.32-9.84a.56.56,0,0,1,1,.4c-1,2.68-4.52,11.64-8,11.64a2.43,2.43,0,0,1-2.2-2.72C391.16,105.11,391.2,104.63,391.28,104.11Zm7.2-20a7.31,7.31,0,0,1,2.36,1.08c.6.4.6.92.16,1.64-.72,1.2-2.88,4.44-3.84,4.48-2.28.08-.16-5.12.36-6.08C397.88,84.47,398.2,84.07,398.48,84.07Z"/>
            <path class="cls-2"
                  d="M404.52,92.23c1.52,0,4.2,2,4.2,3.8,0,3.72-4.36,6.6-7.44,6.6-.08,2.12.56,3.84,2.4,3.84,3.24,0,6.16-6.56,7.52-10.2.24-.68,1.28-.24,1,.44-1.44,3.92-4.64,11.64-9.16,11.64C393.4,108.35,398.8,92.23,404.52,92.23Zm-3.16,9.48c2.16,0,4.56-3.24,4.56-6.44,0-.84-.68-1.12-1.28-.64C403,95.83,401.68,99,401.36,101.71Z"/>
        </g>
        <g class="cls-1">
            <path class="cls-2"
                  d="M80.29,135.27c-1,1.72-2.32,3.08-3.72,3.08a2.53,2.53,0,0,1-2.64-2.48c-.52-4.36,1.72-11.28,5.68-13.4a1.71,1.71,0,0,1,.88-.24,7.56,7.56,0,0,1,3.16,1.16c.32-.64.6-1,.88-1,.76,0,3.48,1,3.48,1.68a.3.3,0,0,1-.08.16,7.69,7.69,0,0,0-.52.68c-1.16,2.12-2.52,6.8-3.6,11.44,3-2.8,4.52-5.64,6-10,.2-.68,1.28-.32,1,.36-1.56,4.76-3.4,8-7,11.16,0,2.91-.12,6.71-1.24,9.47a1.23,1.23,0,0,1-1.12.6c-1,0-2.64-.6-2.64-1.48A62.57,62.57,0,0,1,80.29,135.27Zm2-11.2c-2.76,0-4.88,6.88-5.12,10.32,0,.44-.12,1.88.52,1.88,1.2,0,2.68-3.36,3.76-6.36a48.22,48.22,0,0,1,1.68-5.44A1,1,0,0,0,82.33,124.07Z"/>
            <path class="cls-2"
                  d="M94.73,134.11a2.55,2.55,0,0,0,.08-.28c-1.2,2.44-2.68,4.52-4.48,4.52a3,3,0,0,1-2.84-2.72c.08-.52.12-1,.2-1.52a48.48,48.48,0,0,1,3.08-11.2c.16-.32.36-.52.6-.52a5.19,5.19,0,0,1,2.56,1.16c.4.32,0,.84-.2,1.24a69.14,69.14,0,0,0-2.8,10c-.2.92.08,1.44.52,1.44,1.92,0,4.72-8.76,5.36-10.64.32-1,.64-1.88,1-2.72.16-.32.4-.52.6-.52a5.19,5.19,0,0,1,2.56,1.16c.44.32,0,.84-.16,1.24a67.5,67.5,0,0,0-3,11.08c-.12.6.24.6.6.28,2.4-2.44,4.24-7.12,5.28-9.84a.56.56,0,0,1,1,.4c-1,2.68-4.52,11.64-8,11.64a2.45,2.45,0,0,1-2.2-2.72C94.61,135.11,94.69,134.63,94.73,134.11Z"/>
            <path class="cls-2"
                  d="M110.69,114.75c-.64,2.88-2.24,3.88-4,3.88-.2,0-.2-.12-.08-.24a4.14,4.14,0,0,0,1.32-1.64c.08-.12.08-.24-.08-.24-2.16-.44-1-4.72.4-4.68a2.83,2.83,0,0,1,2.12.72C111.05,113.19,110.85,114,110.69,114.75Z"/>
            <path class="cls-2"
                  d="M117.77,118c-.16.4-.28.8-.4,1.2a6.58,6.58,0,0,1,3,.48c.24.12.48,1.2.48,1.6,0,.24,0,.36-.16.44h-.12a12.33,12.33,0,0,0-3.84-.44,115,115,0,0,0-3.2,14.2c-.08.88.08,1,.64.44a34.78,34.78,0,0,0,5.76-9.64.56.56,0,0,1,1,.4c-1,2.68-5.36,11.64-8.6,11.64-2.24,0-2.16-2.36-2-3.92a93.75,93.75,0,0,1,2.44-13h-.88c-.76,0-2.52,0-2.92-1-.12-.32,0-.48.36-.48a31.07,31.07,0,0,0,3.88-.32,24.39,24.39,0,0,1,.92-3c.4-1,.8-1.48,1.16-1.48.8,0,3.24,1,3.24,1.64,0,.08,0,.12-.12.2s-.08.12-.12.16A2.52,2.52,0,0,0,117.77,118Z"/>
            <path class="cls-2"
                  d="M126.77,114.75c-.64,2.88-2.24,3.88-4,3.88-.2,0-.2-.12-.08-.24a4.14,4.14,0,0,0,1.32-1.64c.08-.12.08-.24-.08-.24-2.16-.44-1-4.72.4-4.68a2.83,2.83,0,0,1,2.12.72C127.13,113.19,126.93,114,126.77,114.75Z"/>
            <path class="cls-2"
                  d="M132.13,134.11a.59.59,0,0,0,0-.28c-1.16,2.44-2.68,4.52-4.48,4.52a2.53,2.53,0,0,1-2.64-2.48c-.52-4.36,1.72-11.28,5.68-13.4,1.24-.72,2.68.24,4.12,1a2,2,0,0,0,.2-.52c.16-.32.36-.52.6-.52a5.19,5.19,0,0,1,2.56,1.16c.44.32,0,.84-.2,1.24a69.6,69.6,0,0,0-2.84,11.08c-.12.6.24.6.56.28,2.44-2.44,4.12-7.12,5.16-9.84a.56.56,0,0,1,1,.4c-1,2.68-4.36,11.64-7.8,11.64a2.43,2.43,0,0,1-2.2-2.72C132,135.11,132.05,134.63,132.13,134.11Zm1.88-8.48a8,8,0,0,1,.4-1,1.08,1.08,0,0,0-1-.52c-2.76,0-4.88,6.88-5.12,10.32,0,.44-.12,1.88.52,1.88C130.77,136.27,133.41,127.51,134,125.63Z"/>
            <path class="cls-2"
                  d="M138,134.87a3.39,3.39,0,0,1,2.76-1.48c.88-.12,1.8-.12,2.56-.28-.36-2.4-3.12-3.88-3.12-7a4.19,4.19,0,0,1,4.4-4.08c1.44,0,3.28,2,3.28,3.48,0,.84-.88,2.32-1.44,2.32-.88,0-2.12-.6-2.12-1a.21.21,0,0,1,.08-.16c.68,0,1.24-1.08,1.24-1.84,0-.48-.2-.88-.64-.88-1,0-1.44,1.72-1.44,2.44,0,2.12,2.16,3.64,3,5.44a9.37,9.37,0,0,0,4.28-5.56c.2-.68,1.24-.32,1,.36a10.27,10.27,0,0,1-5,6.28c.48,3.52-3.32,5.64-6.4,5.64C138,138.59,137,136.47,138,134.87Zm2.16-.28a1.21,1.21,0,1,0,.68,2.28,4.24,4.24,0,0,0,2.44-2.6C142.45,134.47,141.09,134.35,140.17,134.59Z"/>
            <path class="cls-2"
                  d="M161.89,134.11a.59.59,0,0,0,0-.28c-1.16,2.44-2.68,4.52-4.48,4.52a2.53,2.53,0,0,1-2.64-2.48c-.52-4.36,1.72-11.28,5.68-13.4,1.24-.72,2.68.24,4.12,1a2,2,0,0,0,.2-.52c.16-.32.36-.52.6-.52a5.24,5.24,0,0,1,2.56,1.16c.44.32-.05.84-.21,1.24a70.59,70.59,0,0,0-2.83,11.08c-.12.6.24.6.56.28,2.43-2.44,4.11-7.12,5.16-9.84a.55.55,0,0,1,1,.4c-1,2.68-4.35,11.64-7.79,11.64a2.43,2.43,0,0,1-2.2-2.72C161.77,135.11,161.81,134.63,161.89,134.11Zm1.88-8.48a8,8,0,0,1,.4-1,1.08,1.08,0,0,0-1-.52c-2.76,0-4.88,6.88-5.12,10.32,0,.44-.12,1.88.52,1.88C160.53,136.27,163.17,127.51,163.77,125.63Z"/>
            <path class="cls-2"
                  d="M175.41,134.11a2.55,2.55,0,0,0,.08-.28c-1.2,2.44-2.68,4.52-4.48,4.52a3,3,0,0,1-2.84-2.72c.08-.52.12-1,.2-1.52a48.48,48.48,0,0,1,3.08-11.2c.16-.32.36-.52.6-.52a5.19,5.19,0,0,1,2.56,1.16c.4.32,0,.84-.2,1.24a69.14,69.14,0,0,0-2.8,10c-.2.92.08,1.44.52,1.44,1.92,0,4.72-8.76,5.36-10.64.32-1,.64-1.88,1-2.72.16-.32.4-.52.59-.52a5.23,5.23,0,0,1,2.57,1.16c.43.32-.05.84-.16,1.24a67.5,67.5,0,0,0-3,11.08c-.12.6.24.6.6.28,2.4-2.44,4.23-7.12,5.28-9.84a.55.55,0,0,1,1,.4c-1,2.68-4.52,11.64-8,11.64a2.45,2.45,0,0,1-2.2-2.72C175.29,135.11,175.37,134.63,175.41,134.11Z"/>
            <path class="cls-2"
                  d="M188.53,122.23c1.88,0,3.84,1.72,3.84,3.44,0,2.16-1.16,4.52-2.08,4.52a3.87,3.87,0,0,1-2.2-1.24c-.28-.32-.12-.72.32-1a4.52,4.52,0,0,0,1.84-2.28c.4-1,.2-1.6-.32-1.6-3.36,0-7.16,12.36-2.24,12.36,3.56,0,6-6.6,7.51-10.2a.55.55,0,0,1,1,.44c-1.52,3.76-4.36,11.64-9.15,11.64C177.41,138.35,183.09,122.23,188.53,122.23Z"/>
            <path class="cls-2"
                  d="M199.77,134.11a2.55,2.55,0,0,0,.08-.28c-1.2,2.44-2.68,4.52-4.48,4.52a3,3,0,0,1-2.84-2.72c.08-.52.12-1,.2-1.52a48.48,48.48,0,0,1,3.08-11.2c.16-.32.36-.52.6-.52a5.19,5.19,0,0,1,2.56,1.16c.4.32,0,.84-.2,1.24a69.14,69.14,0,0,0-2.8,10c-.2.92.08,1.44.52,1.44,1.92,0,4.72-8.76,5.36-10.64.31-1,.64-1.88,1-2.72a.8.8,0,0,1,.6-.52,5.16,5.16,0,0,1,2.55,1.16c.44.32,0,.84-.16,1.24a68.41,68.41,0,0,0-3,11.08c-.12.6.24.6.6.28,2.4-2.44,4.23-7.12,5.27-9.84a.56.56,0,0,1,1,.4c-1,2.68-4.52,11.64-7.95,11.64a2.45,2.45,0,0,1-2.2-2.72C199.65,135.11,199.73,134.63,199.77,134.11Z"/>
            <path class="cls-2"
                  d="M209.53,122.91a.71.71,0,0,1,.56-.52,5.17,5.17,0,0,1,2.6,1.16c.4.32,0,.84-.2,1.24a56.42,56.42,0,0,0-2,6.36c1.44-3.08,3.55-6.88,5.47-8.48a1.07,1.07,0,0,1,.76-.28c.57,0,2.68.72,2.68,1.48a.9.9,0,0,1-.11.44c-.17.32-.29.64-.45,1a72.05,72.05,0,0,0-2.8,10.56c-.11.6.17.68.57.28,2.43-2.44,4.27-7.12,5.31-9.84a.56.56,0,0,1,1,.4c-1,2.68-4.51,11.64-7.95,11.64a2.16,2.16,0,0,1-2.32-2.12,58.92,58.92,0,0,1,2.68-11.48c-2.68,2.88-6,10.44-6.24,13.16,0,.4-.24.44-.48.44-1,0-2.52-1.08-2.52-1.92A47.55,47.55,0,0,1,209.53,122.91Z"/>
            <path class="cls-2"
                  d="M226.25,122.23c1.51,0,4.19,2,4.19,3.8,0,3.72-4.36,6.6-7.43,6.6-.08,2.12.56,3.84,2.4,3.84,3.23,0,6.15-6.56,7.51-10.2.24-.68,1.28-.24,1,.44-1.44,3.92-4.64,11.64-9.15,11.64C215.13,138.35,220.53,122.23,226.25,122.23Zm-3.17,9.48c2.17,0,4.57-3.24,4.57-6.44,0-.84-.69-1.12-1.28-.64C224.77,125.83,223.41,129,223.08,131.71Z"/>
            <path class="cls-2"
                  d="M243.72,122.23c1.88,0,3.84,1.72,3.84,3.44,0,2.16-1.16,4.52-2.08,4.52a3.87,3.87,0,0,1-2.2-1.24c-.28-.32-.12-.72.32-1a4.52,4.52,0,0,0,1.84-2.28c.4-1,.2-1.6-.32-1.6-3.36,0-7.15,12.36-2.24,12.36,3.56,0,6-6.6,7.52-10.2a.55.55,0,0,1,1,.44c-1.52,3.76-4.36,11.64-9.15,11.64C232.61,138.35,238.29,122.23,243.72,122.23Z"/>
            <path class="cls-2"
                  d="M257,124.75A27.69,27.69,0,0,0,251,136.39a9.28,9.28,0,0,0-.15,1.48c0,.32-.13.48-.48.48-1,0-2.64-.88-2.64-1.76,0-7,4-24,5.72-24,.79,0,3.47,1,3.47,1.64a.31.31,0,0,1-.08.2,2.63,2.63,0,0,0-.48.68c-1.56,2.76-3.4,10-4.52,15.68a24.69,24.69,0,0,1,5.8-8.08,1.12,1.12,0,0,1,.76-.28c.6,0,2.72.72,2.72,1.48a1.8,1.8,0,0,1-.12.44,7.55,7.55,0,0,0-.44,1,70.1,70.1,0,0,0-2.84,10.56c-.08.6.16.68.6.28,2.4-2.44,4.24-7.12,5.32-9.84a.54.54,0,1,1,1,.4c-1,2.68-4.52,11.64-8,11.64a2.4,2.4,0,0,1-2.16-2.72A47.76,47.76,0,0,1,257,124.75Z"/>
            <path class="cls-2"
                  d="M268.24,134.11a.59.59,0,0,0,0-.28c-1.16,2.44-2.68,4.52-4.48,4.52a2.54,2.54,0,0,1-2.64-2.48c-.51-4.36,1.72-11.28,5.68-13.4,1.24-.72,2.68.24,4.12,1a2,2,0,0,0,.2-.52c.16-.32.36-.52.6-.52a5.19,5.19,0,0,1,2.56,1.16c.44.32,0,.84-.2,1.24a69.6,69.6,0,0,0-2.84,11.08c-.12.6.24.6.56.28,2.44-2.44,4.12-7.12,5.16-9.84a.56.56,0,0,1,1,.4c-1,2.68-4.36,11.64-7.8,11.64a2.43,2.43,0,0,1-2.2-2.72C268.12,135.11,268.16,134.63,268.24,134.11Zm1.88-8.48a8,8,0,0,1,.4-1,1.08,1.08,0,0,0-1-.52c-2.76,0-4.88,6.88-5.12,10.32,0,.44-.12,1.88.52,1.88C266.88,136.27,269.52,127.51,270.12,125.63Z"/>
            <path class="cls-2"
                  d="M277.84,122.91a.71.71,0,0,1,.56-.52,5.17,5.17,0,0,1,2.6,1.16c.4.32,0,.84-.2,1.24a56.42,56.42,0,0,0-2,6.36c1.44-3.08,3.56-6.88,5.48-8.48a1.06,1.06,0,0,1,.76-.28c.56,0,2.68.72,2.68,1.48a.91.91,0,0,1-.12.44c-.16.32-.28.64-.44,1a69.62,69.62,0,0,0-2.8,10.56c-.12.6.16.68.56.28,2.44-2.44,4.28-7.12,5.32-9.84a.56.56,0,0,1,1,.4c-1,2.68-4.52,11.64-8,11.64a2.16,2.16,0,0,1-2.32-2.12,58.92,58.92,0,0,1,2.68-11.48c-2.68,2.88-6,10.44-6.24,13.16,0,.4-.23.44-.48.44-1,0-2.51-1.08-2.51-1.92A47.2,47.2,0,0,1,277.84,122.91Z"/>
            <path class="cls-2"
                  d="M294.48,122.23c1.88,0,3.84,1.72,3.84,3.44,0,2.16-1.16,4.52-2.08,4.52A3.87,3.87,0,0,1,294,129c-.28-.32-.12-.72.32-1a4.52,4.52,0,0,0,1.84-2.28c.4-1,.2-1.6-.32-1.6-3.36,0-7.16,12.36-2.24,12.36,3.56,0,6-6.6,7.52-10.2a.55.55,0,0,1,1,.44c-1.52,3.76-4.36,11.64-9.16,11.64C283.36,138.35,289,122.23,294.48,122.23Z"/>
            <path class="cls-2"
                  d="M305.24,122.23c1.52,0,4.2,2,4.2,3.8,0,3.72-4.36,6.6-7.44,6.6-.08,2.12.56,3.84,2.4,3.84,3.24,0,6.16-6.56,7.52-10.2.24-.68,1.28-.24,1,.44-1.44,3.92-4.64,11.64-9.16,11.64C294.12,138.35,299.52,122.23,305.24,122.23Zm-3.16,9.48c2.16,0,4.56-3.24,4.56-6.44,0-.84-.68-1.12-1.28-.64C303.76,125.83,302.4,129,302.08,131.71Z"/>
            <path class="cls-2"
                  d="M315,136.63c-.64,2.88-2.24,3.87-4,3.87-.2,0-.2-.15-.08-.27a4.39,4.39,0,0,0,1.32-1.6c.08-.16.08-.24-.08-.28-2.16-.41-1-4.72.4-4.68a3.2,3.2,0,0,1,2.12.72C315.32,135,315.12,135.83,315,136.63Z"/>
            <path class="cls-2"
                  d="M335.88,125.27c-.64,1.48-1.52,3.32-2.52,5.16a1.84,1.84,0,0,0,1.16.16c1.28-.24,2.44-1.56,4-4.36a.55.55,0,1,1,1,.52c-1.68,3.12-3.16,4.64-4.72,4.92a2.67,2.67,0,0,1-1.88-.28,44,44,0,0,1-3.88,6,2.24,2.24,0,0,1-1.56,1c-1.2,0-3.44-1-3.44-2.28a52.63,52.63,0,0,1,1.6-13.12c.12-.36.32-.6.68-.6a5.68,5.68,0,0,1,2.56.8c.44.28,0,.88,0,1.24a73.87,73.87,0,0,0-2,11.52c0,.36.08.48.36.12a60.81,60.81,0,0,0,4.28-7.8,10,10,0,0,1,2-5.4c.36-.56.88-.48,1.36-.2A2.29,2.29,0,0,1,335.88,125.27Z"/>
            <path class="cls-2"
                  d="M343.08,134.11a.59.59,0,0,0,0-.28c-1.16,2.44-2.68,4.52-4.48,4.52a2.53,2.53,0,0,1-2.64-2.48c-.52-4.36,1.72-11.28,5.68-13.4,1.24-.72,2.68.24,4.12,1a2,2,0,0,0,.2-.52c.16-.32.36-.52.6-.52a5.19,5.19,0,0,1,2.56,1.16c.44.32,0,.84-.2,1.24a69.6,69.6,0,0,0-2.84,11.08c-.12.6.24.6.56.28,2.44-2.44,4.12-7.12,5.16-9.84a.56.56,0,0,1,1,.4c-1,2.68-4.36,11.64-7.8,11.64a2.43,2.43,0,0,1-2.2-2.72C343,135.11,343,134.63,343.08,134.11Zm1.88-8.48a8,8,0,0,1,.4-1,1.08,1.08,0,0,0-1-.52c-2.76,0-4.88,6.88-5.12,10.32,0,.44-.12,1.88.52,1.88C341.72,136.27,344.36,127.51,345,125.63Z"/>
            <path class="cls-2"
                  d="M349,134.87a3.39,3.39,0,0,1,2.76-1.48c.88-.12,1.8-.12,2.56-.28-.36-2.4-3.12-3.88-3.12-7a4.19,4.19,0,0,1,4.4-4.08c1.44,0,3.28,2,3.28,3.48,0,.84-.88,2.32-1.44,2.32-.88,0-2.12-.6-2.12-1a.21.21,0,0,1,.08-.16c.68,0,1.24-1.08,1.24-1.84,0-.48-.2-.88-.64-.88-1,0-1.44,1.72-1.44,2.44,0,2.12,2.16,3.64,3,5.44a9.37,9.37,0,0,0,4.28-5.56c.2-.68,1.24-.32,1,.36a10.27,10.27,0,0,1-5,6.28c.48,3.52-3.32,5.64-6.4,5.64C348.92,138.59,347.92,136.47,349,134.87Zm2.16-.28a1.21,1.21,0,1,0,.68,2.28,4.24,4.24,0,0,0,2.44-2.6C353.4,134.47,352,134.35,351.12,134.59Z"/>
            <path class="cls-2"
                  d="M364.88,126.07a9.83,9.83,0,0,1-.36-1.76c0-.4.16-.4.36-.32a5.5,5.5,0,0,0,1.88.12c2.44-.12,5.16-.32,7.52-.24.8,0,1.48,1.48,1.36,2.44,0,.36-.2.44-.52.4a80.89,80.89,0,0,0-8.8.32A1.23,1.23,0,0,1,364.88,126.07Z"/>
            <path class="cls-2"
                  d="M388.12,122.39a5.33,5.33,0,0,1,2.6,1.16c.24.2.16.52,0,.8a7.44,7.44,0,0,0-.4,1c-.84,2.8-1.6,5.76-2.16,8.24l-.08.36a20.56,20.56,0,0,0,5.32-7.64c.24-.68,1.28-.28,1,.36a21.84,21.84,0,0,1-6.76,9.12,62.36,62.36,0,0,1-2.2,7.67c-.92,2.64-2.24,4.44-5.4,4.44a3.16,3.16,0,0,1-2.56-1.28c-1.16-1.6-.48-3.88.72-5.28,1.48-1.68,3.76-2.75,5.48-4,.28-1.16.52-2.32.8-3.52-1.16,2.44-2.64,4.48-4.44,4.48a3,3,0,0,1-2.84-2.72c.08-.52.16-1,.2-1.52a50.56,50.56,0,0,1,3.08-11.2c.16-.32.4-.52.6-.52a5.19,5.19,0,0,1,2.56,1.16c.44.32,0,.84-.16,1.24a69.45,69.45,0,0,0-2.84,10c-.2.92.08,1.44.56,1.44,1.72,0,4.2-7,5.16-9.84,0-.2.12-.4.16-.6a19.54,19.54,0,0,1,1-2.92A.71.71,0,0,1,388.12,122.39Zm-6.44,21.55c.48-1.4,1-3.08,1.52-4.88-1.8,1.25-4.92,2.92-4.76,5.48,0,.68.48,1.48,1.24,1.48S381.16,145.38,381.68,143.94Z"/>
            <path class="cls-2"
                  d="M395.44,136.63c-.64,2.88-2.24,3.87-4,3.87-.2,0-.2-.15-.08-.27a4.39,4.39,0,0,0,1.32-1.6c.08-.16.08-.24-.08-.28-2.16-.41-1-4.72.4-4.68a3.2,3.2,0,0,1,2.12.72C395.8,135,395.6,135.83,395.44,136.63Z"/>
        </g>
        <g class="cls-1">
            <path class="cls-2"
                  d="M91.45,156.27a.57.57,0,0,1,1,.44A9.59,9.59,0,0,1,86,161.47a30.12,30.12,0,0,1-.28,12.71,7.17,7.17,0,0,1-1.44,3,2.23,2.23,0,0,1-1.92.68c-1,0-2.64-.6-2.64-1.48a28.13,28.13,0,0,1,.24-3.4,108.35,108.35,0,0,1,5-23.39c.64-1.76,1.2-2.84,1.64-2.84.76,0,3.48,1,3.48,1.64a.31.31,0,0,1-.08.2,4.37,4.37,0,0,0-.52.68c-1.12,2-2.44,6.52-3.52,11A8.12,8.12,0,0,0,91.45,156.27Zm-7,18.23a26,26,0,0,0,.76-10.67c-.68,3.44-1.28,6.95-1.64,10.47-.12,1.24-.08,1.88.08,1.88S84.33,174.86,84.45,174.5Z"/>
            <path class="cls-2"
                  d="M96.81,152.91c2.48,0,4.56,1.72,4.56,3.52a14.78,14.78,0,0,1-1.16,5.6,15.25,15.25,0,0,0,4.12-5.76.57.57,0,0,1,1,.44,15.8,15.8,0,0,1-6.24,7.44c-1.48,2.44-3.6,4.2-6,4.2-2.88,0-4.6-2.88-4.6-5,0-4,2-9.16,5.4-10.92A2.94,2.94,0,0,1,96.81,152.91Zm-4,12.56a9.69,9.69,0,0,0,2.32-.52,17.67,17.67,0,0,0,2.56-8.52c0-2.64-1.44-2.8-2.88-1.24-2.28,2.52-3.4,8.2-2.4,10.36A1.18,1.18,0,0,1,92.77,165.47Z"/>
            <path class="cls-2"
                  d="M105.17,152.91a.71.71,0,0,1,.56-.52,5.17,5.17,0,0,1,2.6,1.16c.4.32,0,.84-.2,1.24a56.42,56.42,0,0,0-2,6.36c1.44-3.08,3.56-6.88,5.48-8.48a1.06,1.06,0,0,1,.76-.28c.56,0,2.68.72,2.68,1.48a.91.91,0,0,1-.12.44c-.16.32-.28.64-.44,1a69.62,69.62,0,0,0-2.8,10.56c-.12.6.16.68.56.28,2.44-2.44,4.28-7.12,5.32-9.84a.56.56,0,0,1,1,.4c-1,2.68-4.52,11.64-8,11.64a2.16,2.16,0,0,1-2.32-2.12,58.92,58.92,0,0,1,2.68-11.48c-2.68,2.88-6,10.44-6.24,13.16,0,.4-.24.44-.48.44-1,0-2.52-1.08-2.52-1.92A47.55,47.55,0,0,1,105.17,152.91Z"/>
            <path class="cls-2"
                  d="M121.81,152.23c1.88,0,3.84,1.72,3.84,3.44,0,2.16-1.16,4.52-2.08,4.52a3.87,3.87,0,0,1-2.2-1.24c-.28-.32-.12-.72.32-1a4.52,4.52,0,0,0,1.84-2.28c.4-1,.2-1.6-.32-1.6-3.36,0-7.16,12.36-2.24,12.36,3.56,0,6-6.6,7.52-10.2a.55.55,0,0,1,1,.44c-1.52,3.76-4.36,11.64-9.16,11.64C110.69,168.35,116.37,152.23,121.81,152.23Z"/>
            <path class="cls-2"
                  d="M132.57,152.23c1.52,0,4.2,2,4.2,3.8,0,3.72-4.36,6.6-7.44,6.6-.08,2.12.56,3.84,2.4,3.84,3.24,0,6.16-6.56,7.52-10.2.24-.68,1.28-.24,1,.44-1.44,3.92-4.64,11.64-9.16,11.64C121.45,168.35,126.85,152.23,132.57,152.23Zm-3.16,9.48c2.16,0,4.56-3.24,4.56-6.44,0-.84-.68-1.12-1.28-.64C131.09,155.83,129.73,159,129.41,161.71Z"/>
            <path class="cls-2"
                  d="M144.05,168.39c-2.56-.08-1.32-4.76.08-4.72,1.56,0,2.6.68,2.6,2C146.73,166.35,145.89,168.43,144.05,168.39Zm3.28-8.24c-.12.6-.2,1.08-.24,1.4s-.16.4-.52.4c-.92,0-2.76-1-2.6-2.2.4-2.52.92-5,1.48-7.52,1.24-5.24,2.68-9.68,3.56-9.68s3.48,1,3.48,1.64a.31.31,0,0,1-.08.2,2.8,2.8,0,0,0-.52.68A79,79,0,0,0,147.33,160.15Z"/>
            <path class="cls-2"
                  d="M166.41,142.47a4.8,4.8,0,0,1,2,.68c9.91,0,4.79,25.24-5.32,25.24s-7.08-18.8-.4-24.4A5.94,5.94,0,0,1,166.41,142.47Zm3.48,5.24c-.2-2.16-1.08-3.16-2.2-3.16a4,4,0,0,0-2.76,1.72c-4.44,5.24-6.68,20.12-1.84,20.12C167.13,166.39,170.53,153.79,169.89,147.71Z"/>
            <path class="cls-2"
                  d="M176.69,152.91a.71.71,0,0,1,.56-.52,5.17,5.17,0,0,1,2.6,1.16c.4.32,0,.84-.2,1.24a56.42,56.42,0,0,0-2,6.36c1.44-3.08,3.56-6.88,5.48-8.48a1.06,1.06,0,0,1,.76-.28c.56,0,2.68.72,2.68,1.48a.91.91,0,0,1-.12.44c-.16.32-.28.64-.44,1a69.62,69.62,0,0,0-2.8,10.56c-.12.6.16.68.56.28,2.44-2.44,4.27-7.12,5.32-9.84a.55.55,0,0,1,1,.4c-1,2.68-4.51,11.64-7.95,11.64a2.16,2.16,0,0,1-2.32-2.12,58.92,58.92,0,0,1,2.68-11.48c-2.68,2.88-6,10.44-6.24,13.16,0,.4-.24.44-.48.44-1,0-2.52-1.08-2.52-1.92A47.55,47.55,0,0,1,176.69,152.91Z"/>
            <path class="cls-2"
                  d="M192.65,164.87a3.39,3.39,0,0,1,2.76-1.48c.88-.12,1.8-.12,2.56-.28-.36-2.4-3.12-3.88-3.12-7a4.19,4.19,0,0,1,4.4-4.08c1.44,0,3.28,2,3.28,3.48,0,.84-.88,2.32-1.44,2.32-.88,0-2.12-.6-2.12-1a.21.21,0,0,1,.08-.16c.68,0,1.24-1.08,1.24-1.84,0-.48-.2-.88-.64-.88-1,0-1.44,1.72-1.44,2.44,0,2.12,2.16,3.64,3,5.44a9.37,9.37,0,0,0,4.28-5.56c.19-.68,1.24-.32,1,.36a10.26,10.26,0,0,1-5,6.28c.48,3.52-3.32,5.64-6.4,5.64C192.61,168.59,191.61,166.47,192.65,164.87Zm2.16-.28a1.21,1.21,0,1,0,.68,2.28,4.24,4.24,0,0,0,2.44-2.6C197.09,164.47,195.73,164.35,194.81,164.59Z"/>
            <path class="cls-2"
                  d="M210.13,164.11a.77.77,0,0,0,0-.28c-1.15,2.44-2.67,4.52-4.47,4.52a2.53,2.53,0,0,1-2.64-2.48c-.52-4.36,1.72-11.28,5.68-13.4,1.24-.72,2.68.24,4.11,1a2,2,0,0,0,.2-.52c.16-.32.37-.52.61-.52a5.16,5.16,0,0,1,2.55,1.16c.44.32,0,.84-.2,1.24a69.6,69.6,0,0,0-2.84,11.08c-.12.6.25.6.57.28,2.43-2.44,4.11-7.12,5.15-9.84a.56.56,0,0,1,1,.4c-1,2.68-4.36,11.64-7.79,11.64a2.43,2.43,0,0,1-2.2-2.72C210,165.11,210.05,164.63,210.13,164.11Zm1.87-8.48a9.79,9.79,0,0,1,.41-1,1.09,1.09,0,0,0-1-.52c-2.76,0-4.88,6.88-5.12,10.32,0,.44-.12,1.88.52,1.88C208.77,166.27,211.41,157.51,212,155.63Z"/>
            <path class="cls-2"
                  d="M231.12,148c-.12.36-.28.76-.4,1.16a7.39,7.39,0,0,1,3,.48,3.31,3.31,0,0,1,.44,1.64.64.64,0,0,1-.12.44H234a14.14,14.14,0,0,0-3.88-.48,117.08,117.08,0,0,0-3.2,14.24c-.07.92.08,1.08.69.44a35.39,35.39,0,0,0,5.75-9.64.54.54,0,1,1,1,.4c-1,2.68-5.32,11.68-8.59,11.68-2.24,0-2.16-2.4-2-4,0-.48.08-1,.15-1.52-1.51,2.84-3.35,5.48-5.23,5.48a2.45,2.45,0,0,1-2.2-2.72c.08-.52.12-1,.2-1.52a48.85,48.85,0,0,1,3.12-11.24.71.71,0,0,1,.56-.52,5.67,5.67,0,0,1,2.6,1.12c.4.36-.08.88-.2,1.24a68.26,68.26,0,0,0-3,11.16c-.12.6.24.6.6.24,1.72-1.68,3.12-4.56,4.2-7.08.47-2.52,1.08-5.2,1.67-7.68a6.56,6.56,0,0,1-.87,0c-1.68,0-3.56-.52-3.56-2.56a9,9,0,0,1,1.16-3.68c.4-.76.72-1.16,1-1.16a7.32,7.32,0,0,1,2.39,1.08c.61.4.56.92.17,1.64a34,34,0,0,1-2.16,3.08c.79-.08,1.6-.16,2.36-.28a25.12,25.12,0,0,1,.92-3c.39-.92.79-1.48,1.15-1.48.8,0,3.24,1,3.24,1.64a.31.31,0,0,1-.08.2.7.7,0,0,0-.16.2A2.26,2.26,0,0,0,231.12,148Z"/>
            <path class="cls-2"
                  d="M241.29,152.39a5.3,5.3,0,0,1,2.59,1.16c.28.2.16.52,0,.8a7.42,7.42,0,0,0-.39,1c-.84,2.8-1.6,5.76-2.16,8.24l-.08.36a20,20,0,0,0,5.31-7.64c.24-.68,1.28-.28,1,.36a21.91,21.91,0,0,1-6.75,9.12,70.13,70.13,0,0,1-2.16,7.67c-1,2.64-2.28,4.44-5.4,4.44a3.18,3.18,0,0,1-2.6-1.28c-1.16-1.64-.52-3.88.76-5.28,1.44-1.68,3.72-2.75,5.44-4,.92-3.8,1.76-7.8,2.84-11.56a23.59,23.59,0,0,1,1-2.92A.69.69,0,0,1,241.29,152.39Zm-6.44,21.55c.48-1.4,1-3.08,1.52-4.88-1.8,1.25-4.92,2.92-4.76,5.48,0,.68.44,1.48,1.24,1.48S234.37,175.38,234.85,173.94Zm10-29.87a7,7,0,0,1,2.36,1.08c.6.4.6.92.16,1.64-.72,1.2-2.88,4.44-3.83,4.48-2.28.08-.12-5.12.35-6.08C244.25,144.47,244.57,144.07,244.8,144.07Z"/>
            <path class="cls-2"
                  d="M251.2,164.11a.59.59,0,0,0,0-.28c-1.16,2.44-2.68,4.52-4.48,4.52a2.52,2.52,0,0,1-2.63-2.48c-.52-4.36,1.71-11.28,5.67-13.4,1.24-.72,2.68.24,4.12,1a2,2,0,0,0,.2-.52c.16-.32.36-.52.6-.52a5.19,5.19,0,0,1,2.56,1.16c.44.32,0,.84-.2,1.24a69.6,69.6,0,0,0-2.84,11.08c-.12.6.24.6.56.28,2.44-2.44,4.12-7.12,5.16-9.84a.56.56,0,0,1,1,.4c-1,2.68-4.36,11.64-7.8,11.64a2.43,2.43,0,0,1-2.2-2.72C251.08,165.11,251.12,164.63,251.2,164.11Zm1.88-8.48a8,8,0,0,1,.4-1,1.08,1.08,0,0,0-1-.52c-2.76,0-4.87,6.88-5.11,10.32,0,.44-.13,1.88.51,1.88C249.84,166.27,252.48,157.51,253.08,155.63Z"/>
            <path class="cls-2"
                  d="M260.8,152.91a.71.71,0,0,1,.56-.52,5.33,5.33,0,0,1,2.6,1.16c.4.32,0,.84-.2,1.24a58.55,58.55,0,0,0-2,6.36c1.44-3.08,3.56-6.88,5.48-8.48a1.06,1.06,0,0,1,.76-.28,4.75,4.75,0,0,1,2.52,1.08c.24.32.16.52,0,.84a59,59,0,0,0-2.16,6.84c1.44-3.08,3.56-6.88,5.48-8.48a1.12,1.12,0,0,1,.76-.28c.6,0,2.72.72,2.72,1.48a1.8,1.8,0,0,1-.12.44,4.47,4.47,0,0,0-.44,1A65.64,65.64,0,0,0,274,165.87c-.12.6.16.68.6.28,2.4-2.44,4.24-7.12,5.28-9.84a.56.56,0,0,1,1,.4c-1,2.68-4.52,11.64-8,11.64a2.18,2.18,0,0,1-2.32-2.12,58.92,58.92,0,0,1,2.68-11.48c-2.64,2.88-6,10.44-6.2,13.16,0,.4-.28.44-.52.44-1,0-2.52-1.08-2.52-1.92a49.31,49.31,0,0,1,2.64-11.64c-2.68,2.92-6.08,10.4-6.28,13.12,0,.4-.24.44-.48.44-1,0-2.51-1.08-2.51-1.92A47.54,47.54,0,0,1,260.8,152.91Z"/>
            <path class="cls-2"
                  d="M284.56,164.11a.59.59,0,0,0,0-.28c-1.16,2.44-2.68,4.52-4.48,4.52a2.52,2.52,0,0,1-2.63-2.48c-.53-4.36,1.71-11.28,5.67-13.4,1.24-.72,2.68.24,4.12,1a2,2,0,0,0,.2-.52c.16-.32.36-.52.6-.52a5.19,5.19,0,0,1,2.56,1.16c.44.32,0,.84-.2,1.24a69.6,69.6,0,0,0-2.84,11.08c-.12.6.24.6.56.28,2.44-2.44,4.12-7.12,5.16-9.84a.56.56,0,0,1,1,.4c-1,2.68-4.36,11.64-7.8,11.64a2.43,2.43,0,0,1-2.2-2.72C284.44,165.11,284.48,164.63,284.56,164.11Zm1.88-8.48a8,8,0,0,1,.4-1,1.08,1.08,0,0,0-1-.52c-2.76,0-4.88,6.88-5.12,10.32,0,.44-.12,1.88.52,1.88C283.2,166.27,285.84,157.51,286.44,155.63Z"/>
            <path class="cls-2"
                  d="M291,164.11a50.56,50.56,0,0,1,3.08-11.2c.16-.32.36-.52.6-.52a5.19,5.19,0,0,1,2.56,1.16c.44.32,0,.84-.16,1.24a67.5,67.5,0,0,0-3,11.08c-.12.6.24.6.56.28,2.44-2.44,4.28-7.12,5.32-9.84a.56.56,0,0,1,1,.4c-1,2.68-4.52,11.64-8,11.64a2.43,2.43,0,0,1-2.2-2.72C290.92,165.11,291,164.63,291,164.11Zm7.2-20a7.31,7.31,0,0,1,2.36,1.08c.6.4.6.92.16,1.64-.72,1.2-2.88,4.44-3.84,4.48-2.28.08-.16-5.12.36-6.08C297.64,144.47,298,144.07,298.24,144.07Z"/>
            <path class="cls-2"
                  d="M297.12,164.87a3.39,3.39,0,0,1,2.76-1.48c.88-.12,1.8-.12,2.56-.28-.36-2.4-3.12-3.88-3.12-7a4.19,4.19,0,0,1,4.4-4.08c1.44,0,3.28,2,3.28,3.48,0,.84-.88,2.32-1.44,2.32-.88,0-2.12-.6-2.12-1a.21.21,0,0,1,.08-.16c.68,0,1.24-1.08,1.24-1.84,0-.48-.2-.88-.64-.88-1,0-1.44,1.72-1.44,2.44,0,2.12,2.16,3.64,3,5.44a9.37,9.37,0,0,0,4.28-5.56c.2-.68,1.24-.32,1,.36a10.27,10.27,0,0,1-5,6.28c.48,3.52-3.32,5.64-6.4,5.64C297.08,168.59,296.08,166.47,297.12,164.87Zm2.16-.28a1.21,1.21,0,1,0,.68,2.28,4.24,4.24,0,0,0,2.44-2.6C301.56,164.47,300.2,164.35,299.28,164.59Z"/>
            <path class="cls-2"
                  d="M312,166.63c-.64,2.88-2.24,3.87-4,3.87-.2,0-.2-.15-.08-.27a4.39,4.39,0,0,0,1.32-1.6c.08-.16.08-.24-.08-.28-2.16-.41-1-4.72.4-4.68a3.2,3.2,0,0,1,2.12.72C312.36,165,312.16,165.83,312,166.63Z"/>
            <path class="cls-2"
                  d="M320.24,164.87a3.39,3.39,0,0,1,2.76-1.48c.88-.12,1.8-.12,2.56-.28-.36-2.4-3.12-3.88-3.12-7a4.19,4.19,0,0,1,4.4-4.08c1.44,0,3.28,2,3.28,3.48,0,.84-.88,2.32-1.44,2.32-.88,0-2.12-.6-2.12-1a.21.21,0,0,1,.08-.16c.68,0,1.24-1.08,1.24-1.84,0-.48-.2-.88-.64-.88-1,0-1.44,1.72-1.44,2.44,0,2.12,2.16,3.64,3,5.44a9.37,9.37,0,0,0,4.28-5.56c.2-.68,1.24-.32,1,.36a10.27,10.27,0,0,1-5,6.28c.48,3.52-3.32,5.64-6.4,5.64C320.2,168.59,319.2,166.47,320.24,164.87Zm2.16-.28a1.21,1.21,0,1,0,.68,2.28,4.24,4.24,0,0,0,2.44-2.6C324.68,164.47,323.32,164.35,322.4,164.59Z"/>
            <path class="cls-2"
                  d="M337.84,164.11a2.55,2.55,0,0,0,.08-.28c-1.2,2.44-2.68,4.52-4.48,4.52a3,3,0,0,1-2.84-2.72c.08-.52.12-1,.2-1.52a48.48,48.48,0,0,1,3.08-11.2c.16-.32.36-.52.6-.52a5.19,5.19,0,0,1,2.56,1.16c.4.32,0,.84-.2,1.24a69.14,69.14,0,0,0-2.8,10c-.2.92.08,1.44.52,1.44,1.92,0,4.72-8.76,5.36-10.64.32-1,.64-1.88,1-2.72.16-.32.4-.52.6-.52a5.19,5.19,0,0,1,2.56,1.16c.44.32,0,.84-.16,1.24a67.5,67.5,0,0,0-3,11.08c-.12.6.24.6.6.28,2.4-2.44,4.24-7.12,5.28-9.84a.56.56,0,0,1,1,.4c-1,2.68-4.52,11.64-8,11.64a2.45,2.45,0,0,1-2.2-2.72C337.72,165.11,337.8,164.63,337.84,164.11Z"/>
            <path class="cls-2"
                  d="M347.6,152.91a.71.71,0,0,1,.56-.52,5.17,5.17,0,0,1,2.6,1.16c.4.32,0,.84-.2,1.24a56.42,56.42,0,0,0-2,6.36c1.44-3.08,3.56-6.88,5.48-8.48a1.06,1.06,0,0,1,.76-.28,4.94,4.94,0,0,1,2.48,1c.52.52.2.92-.24,1.24a6.9,6.9,0,0,0-2.12,4.56c0,1,.32,1.44.76,1.44,1.68,0,3.28-3.2,4-4.48a.57.57,0,0,1,1,.6c-.88,1.44-2.56,4.56-4.48,5.24-1.36.52-3.88-.72-4.08-2.48a9.43,9.43,0,0,1,1.08-4.28c.16-.36,0-.28-.12-.08-2.6,3.12-5.68,10.12-5.88,12.72,0,.4-.24.44-.48.44-1,0-2.52-1.08-2.52-1.92A47.55,47.55,0,0,1,347.6,152.91Z"/>
            <path class="cls-2"
                  d="M370.92,164.11a2.55,2.55,0,0,0,.08-.28c-1.2,2.44-2.68,4.52-4.48,4.52a3,3,0,0,1-2.84-2.72c.08-.52.12-1,.2-1.52a48.48,48.48,0,0,1,3.08-11.2c.16-.32.36-.52.6-.52a5.19,5.19,0,0,1,2.56,1.16c.4.32,0,.84-.2,1.24a69.14,69.14,0,0,0-2.8,10c-.2.92.08,1.44.52,1.44,1.92,0,4.72-8.76,5.36-10.64.32-1,.64-1.88,1-2.72.16-.32.4-.52.6-.52a5.19,5.19,0,0,1,2.56,1.16c.44.32,0,.84-.16,1.24a67.5,67.5,0,0,0-3,11.08c-.12.6.24.6.6.28,2.4-2.44,4.24-7.12,5.28-9.84a.56.56,0,0,1,1,.4c-1,2.68-4.52,11.64-8,11.64a2.45,2.45,0,0,1-2.2-2.72C370.8,165.11,370.88,164.63,370.92,164.11Z"/>
            <path class="cls-2"
                  d="M380.68,152.91a.71.71,0,0,1,.56-.52,5.17,5.17,0,0,1,2.6,1.16c.4.32,0,.84-.2,1.24a56.42,56.42,0,0,0-2,6.36c1.44-3.08,3.56-6.88,5.48-8.48a1.06,1.06,0,0,1,.76-.28c.56,0,2.68.72,2.68,1.48a.91.91,0,0,1-.12.44c-.16.32-.28.64-.44,1a69.62,69.62,0,0,0-2.8,10.56c-.12.6.16.68.56.28,2.44-2.44,4.28-7.12,5.32-9.84a.56.56,0,0,1,1,.4c-1,2.68-4.52,11.64-8,11.64a2.16,2.16,0,0,1-2.32-2.12,58.92,58.92,0,0,1,2.68-11.48c-2.68,2.88-6,10.44-6.24,13.16,0,.4-.24.44-.48.44-1,0-2.52-1.08-2.52-1.92A47.55,47.55,0,0,1,380.68,152.91Z"/>
        </g>
        <g class="cls-1">
            <path class="cls-2"
                  d="M66.63,182.91a.71.71,0,0,1,.56-.52,5.33,5.33,0,0,1,2.6,1.16c.4.32,0,.84-.2,1.24a56.42,56.42,0,0,0-2,6.36c1.44-3.08,3.56-6.88,5.48-8.48a1.06,1.06,0,0,1,.76-.28,4.75,4.75,0,0,1,2.52,1.08c.24.32.16.52,0,.84a59,59,0,0,0-2.16,6.84c1.44-3.08,3.56-6.88,5.48-8.48a1.12,1.12,0,0,1,.76-.28c.6,0,2.72.72,2.72,1.48a1.8,1.8,0,0,1-.12.44,4.47,4.47,0,0,0-.44,1,65.64,65.64,0,0,0-2.84,10.56c-.12.6.16.68.6.28,2.4-2.44,4.24-7.12,5.28-9.84a.56.56,0,0,1,1,.4c-1,2.68-4.52,11.64-8,11.64a2.18,2.18,0,0,1-2.32-2.12,58.92,58.92,0,0,1,2.68-11.48c-2.64,2.88-6,10.44-6.2,13.16,0,.4-.28.44-.52.44-1,0-2.52-1.08-2.52-1.92a49.31,49.31,0,0,1,2.64-11.64c-2.68,2.92-6.08,10.4-6.28,13.12,0,.4-.24.44-.48.44-1,0-2.52-1.08-2.52-1.92A47.55,47.55,0,0,1,66.63,182.91Z"/>
            <path class="cls-2"
                  d="M90.39,194.11a.59.59,0,0,0,0-.28c-1.16,2.44-2.68,4.52-4.48,4.52a2.53,2.53,0,0,1-2.64-2.48c-.52-4.36,1.72-11.28,5.68-13.4,1.24-.72,2.68.24,4.12,1a2,2,0,0,0,.2-.52c.16-.32.36-.52.6-.52a5.19,5.19,0,0,1,2.56,1.16c.44.32,0,.84-.2,1.24a69.6,69.6,0,0,0-2.84,11.08c-.12.6.24.6.56.28,2.44-2.44,4.12-7.12,5.16-9.84a.56.56,0,0,1,1,.4c-1,2.68-4.36,11.64-7.8,11.64a2.43,2.43,0,0,1-2.2-2.72C90.27,195.11,90.31,194.63,90.39,194.11Zm1.88-8.48a8,8,0,0,1,.4-1,1.08,1.08,0,0,0-1-.52c-2.76,0-4.88,6.88-5.12,10.32,0,.44-.12,1.88.52,1.88C89,196.27,91.67,187.51,92.27,185.63Z"/>
            <path class="cls-2"
                  d="M102.35,172.55c.76,0,3.48,1,3.48,1.64a.31.31,0,0,1-.08.2,4.37,4.37,0,0,0-.52.68c-2,3.6-4.6,14.8-5.32,20.44-.08.88.08,1,.68.44,2.32-2.48,4.08-7,5.08-9.64a.56.56,0,0,1,1,.4c-1,2.68-4.52,11.64-8,11.64-2.2,0-2.16-2.36-2-3.92C97.35,186.71,100.79,172.55,102.35,172.55Z"/>
            <path class="cls-2"
                  d="M110,182.23c1.52,0,4.2,2,4.2,3.8,0,3.72-4.36,6.6-7.44,6.6-.08,2.12.56,3.84,2.4,3.84,3.24,0,6.16-6.56,7.52-10.2.24-.68,1.28-.24,1,.44-1.44,3.92-4.64,11.64-9.16,11.64C98.87,198.35,104.27,182.23,110,182.23Zm-3.16,9.48c2.16,0,4.56-3.24,4.56-6.44,0-.84-.68-1.12-1.28-.64C108.51,185.83,107.15,189,106.83,191.71Z"/>
            <path class="cls-2"
                  d="M117.71,182.91a.71.71,0,0,1,.56-.52,5.17,5.17,0,0,1,2.6,1.16c.4.32,0,.84-.2,1.24a56.42,56.42,0,0,0-2,6.36c1.44-3.08,3.56-6.88,5.48-8.48a1.06,1.06,0,0,1,.76-.28c.56,0,2.68.72,2.68,1.48a.91.91,0,0,1-.12.44c-.16.32-.28.64-.44,1a69.62,69.62,0,0,0-2.8,10.56c-.12.6.16.68.56.28,2.44-2.44,4.28-7.12,5.32-9.84a.56.56,0,0,1,1,.4c-1,2.68-4.52,11.64-8,11.64a2.16,2.16,0,0,1-2.32-2.12,58.92,58.92,0,0,1,2.68-11.48c-2.68,2.88-6,10.44-6.24,13.16,0,.4-.24.44-.48.44-1,0-2.52-1.08-2.52-1.92A47.55,47.55,0,0,1,117.71,182.91Z"/>
            <path class="cls-2"
                  d="M135.71,178c-.16.4-.28.8-.4,1.2a6.58,6.58,0,0,1,3,.48c.24.12.48,1.2.48,1.6,0,.24,0,.36-.16.44h-.12a12.33,12.33,0,0,0-3.84-.44,115,115,0,0,0-3.2,14.2c-.08.88.08,1,.64.44a34.78,34.78,0,0,0,5.76-9.64.56.56,0,0,1,1,.4c-1,2.68-5.36,11.64-8.6,11.64-2.24,0-2.16-2.36-2-3.92a93.75,93.75,0,0,1,2.44-13h-.88c-.76,0-2.52,0-2.92-1-.12-.32,0-.48.36-.48a31.07,31.07,0,0,0,3.88-.32,24.39,24.39,0,0,1,.92-3c.4-1,.8-1.48,1.16-1.48.8,0,3.24,1,3.24,1.64,0,.08,0,.12-.12.2s-.08.12-.12.16A2.52,2.52,0,0,0,135.71,178Z"/>
            <path class="cls-2"
                  d="M142.15,182.23c1.52,0,4.2,2,4.2,3.8,0,3.72-4.36,6.6-7.44,6.6-.08,2.12.56,3.84,2.4,3.84,3.24,0,6.16-6.56,7.52-10.2.24-.68,1.28-.24,1,.44-1.44,3.92-4.64,11.64-9.16,11.64C131,198.35,136.43,182.23,142.15,182.23ZM139,191.71c2.16,0,4.56-3.24,4.56-6.44,0-.84-.68-1.12-1.28-.64C140.67,185.83,139.31,189,139,191.71Z"/>
            <path class="cls-2"
                  d="M149.87,182.91a.71.71,0,0,1,.56-.52,5.17,5.17,0,0,1,2.6,1.16c.4.32,0,.84-.2,1.24a56.42,56.42,0,0,0-2,6.36c1.44-3.08,3.56-6.88,5.48-8.48a1.06,1.06,0,0,1,.76-.28c.56,0,2.68.72,2.68,1.48a.83.83,0,0,1-.13.44c-.15.32-.27.64-.43,1a69.62,69.62,0,0,0-2.8,10.56c-.12.6.16.68.56.28,2.44-2.44,4.27-7.12,5.32-9.84a.55.55,0,0,1,1,.4c-1,2.68-4.51,11.64-8,11.64a2.16,2.16,0,0,1-2.32-2.12,58.92,58.92,0,0,1,2.68-11.48c-2.68,2.88-6,10.44-6.24,13.16,0,.4-.24.44-.48.44-1,0-2.52-1.08-2.52-1.92A47.55,47.55,0,0,1,149.87,182.91Z"/>
            <path class="cls-2"
                  d="M167.39,193.79c-1.12,2.4-2.68,4.56-4.64,4.56s-2.84-1.52-2.92-3.24c-.2-4.32,1.72-10.64,5.44-12.64,1.28-.72,2.8.28,3.92.84,1.23-5.72,2.83-10.76,3.75-10.76s3.52,1,3.52,1.64a.22.22,0,0,1-.12.2,4.15,4.15,0,0,0-.48.68c-2,3.6-4.6,14.8-5.31,20.44-.13.88.08,1,.63.44,2.32-2.48,4.12-7,5.12-9.64a.56.56,0,0,1,1,.4c-1,2.68-4.51,11.64-8,11.64-2.24,0-2.16-2.36-2-3.92C167.35,194.23,167.39,194,167.39,193.79Zm-4.16.16c-.12,1.36.2,2.2.8,2.2.4,0,.92-.4,1.48-1.28a25.51,25.51,0,0,0,2.48-5.44c.24-1.52.56-3.12.88-4.72a1,1,0,0,0-.88-.64C165.35,184.07,163.59,190.43,163.23,194Z"/>
            <path class="cls-2"
                  d="M181.07,194.11a2.55,2.55,0,0,0,.08-.28c-1.2,2.44-2.68,4.52-4.48,4.52a3,3,0,0,1-2.84-2.72c.08-.52.12-1,.2-1.52a48.48,48.48,0,0,1,3.08-11.2c.16-.32.36-.52.6-.52a5.19,5.19,0,0,1,2.56,1.16c.4.32,0,.84-.2,1.24a69.14,69.14,0,0,0-2.8,10c-.2.92.08,1.44.52,1.44,1.92,0,4.72-8.76,5.36-10.64.32-1,.64-1.88,1-2.72.16-.32.4-.52.6-.52a5.16,5.16,0,0,1,2.55,1.16c.45.32,0,.84-.15,1.24a67.5,67.5,0,0,0-3,11.08c-.12.6.23.6.59.28,2.4-2.44,4.24-7.12,5.28-9.84a.56.56,0,0,1,1,.4c-1,2.68-4.52,11.64-8,11.64a2.45,2.45,0,0,1-2.2-2.72C181,195.11,181,194.63,181.07,194.11Z"/>
            <path class="cls-2"
                  d="M200.58,182.23c1.88,0,3.84,1.72,3.84,3.44,0,2.16-1.16,4.52-2.08,4.52a3.85,3.85,0,0,1-2.19-1.24c-.32-.32-.12-.72.32-1a4.51,4.51,0,0,0,1.83-2.28c.4-1,.2-1.6-.31-1.6-3.36,0-7.16,12.36-2.24,12.36,3.55,0,6-6.6,7.51-10.2a.55.55,0,0,1,1,.44c-1.48,3.64-4.2,11.2-8.76,11.64a7.17,7.17,0,0,1-.84.92c1,.2,1.52.71,1.52,1.51a2.25,2.25,0,0,1-2.47,2c-.92,0-2-.48-2-1.48,0-.15.12-.28.28-.19a2.85,2.85,0,0,0,1.44.55c1.6,0,1.87-1.31.56-1.31-.32,0-1-1.33-.84-1.41a6,6,0,0,0,.8-.71C190,197.07,195.39,182.23,200.58,182.23Z"/>
            <path class="cls-2"
                  d="M211.7,194.11a.49.49,0,0,0,.05-.28c-1.17,2.44-2.68,4.52-4.48,4.52a2.52,2.52,0,0,1-2.64-2.48c-.52-4.36,1.72-11.28,5.67-13.4,1.24-.72,2.68.24,4.12,1a2,2,0,0,0,.2-.52c.16-.32.36-.52.6-.52a5.19,5.19,0,0,1,2.56,1.16c.44.32,0,.84-.2,1.24a69.6,69.6,0,0,0-2.84,11.08c-.12.6.24.6.56.28,2.44-2.44,4.12-7.12,5.16-9.84a.56.56,0,0,1,1,.4c-1,2.68-4.36,11.64-7.8,11.64a2.43,2.43,0,0,1-2.2-2.72C211.58,195.11,211.62,194.63,211.7,194.11Zm1.88-8.48a8,8,0,0,1,.4-1,1.08,1.08,0,0,0-1-.52c-2.76,0-4.87,6.88-5.11,10.32,0,.44-.12,1.88.51,1.88C210.34,196.27,213,187.51,213.58,185.63Z"/>
            <path class="cls-2"
                  d="M228.26,182.07c.8,0,3.48,1,3.48,1.68,0,.08,0,.12-.08.2a3.82,3.82,0,0,0-.48.64,17.53,17.53,0,0,0-1.36,3.44,38,38,0,0,1,2.68-4.24,3.82,3.82,0,0,1,2.64-1.88c1.72,0,3.28,2.16,3.28,3.48a16.45,16.45,0,0,1-2.28,7.16,14.31,14.31,0,0,0,4.76-6.28.57.57,0,0,1,1,.44,15.79,15.79,0,0,1-7.2,8c-1.56,2.12-3.4,3.64-4.8,3.64a3.48,3.48,0,0,1-2.28-.76,74.32,74.32,0,0,0-1.2,9.83c0,.32-.12.48-.47.48-1,0-2.65-.92-2.65-1.76C223.34,199.35,226.58,182.07,228.26,182.07Zm-.08,12.8c-.08.32-.12.6-.2.92a2.43,2.43,0,0,1,1-.32,9.88,9.88,0,0,0,2.28-.56,20,20,0,0,0,3.44-9.64c0-.76-.24-1.2-.6-1.16a.89.89,0,0,0-.64.36A28.56,28.56,0,0,0,228.18,194.87Z"/>
            <path class="cls-2"
                  d="M245.18,182.23c1.52,0,4.2,2,4.2,3.8,0,3.72-4.36,6.6-7.44,6.6-.08,2.12.56,3.84,2.4,3.84,3.24,0,6.16-6.56,7.52-10.2.24-.68,1.28-.24,1,.44-1.44,3.92-4.64,11.64-9.16,11.64C234.07,198.35,239.46,182.23,245.18,182.23ZM242,191.71c2.16,0,4.56-3.24,4.56-6.44,0-.84-.68-1.12-1.28-.64C243.7,185.83,242.34,189,242,191.71Z"/>
            <path class="cls-2"
                  d="M256.82,194.11a2.55,2.55,0,0,0,.08-.28c-1.2,2.44-2.68,4.52-4.48,4.52a3,3,0,0,1-2.84-2.72c.08-.52.12-1,.2-1.52a48.48,48.48,0,0,1,3.08-11.2c.16-.32.36-.52.6-.52a5.19,5.19,0,0,1,2.56,1.16c.4.32,0,.84-.2,1.24a69.14,69.14,0,0,0-2.8,10c-.2.92.08,1.44.52,1.44,1.92,0,4.72-8.76,5.36-10.64.32-1,.64-1.88,1-2.72.16-.32.4-.52.6-.52a5.19,5.19,0,0,1,2.56,1.16c.44.32,0,.84-.16,1.24a67.5,67.5,0,0,0-3,11.08c-.12.6.24.6.6.28,2.4-2.44,4.24-7.12,5.28-9.84a.56.56,0,0,1,1,.4c-1,2.68-4.52,11.64-8,11.64a2.45,2.45,0,0,1-2.2-2.72C256.7,195.11,256.78,194.63,256.82,194.11Z"/>
            <path class="cls-2"
                  d="M271.3,178c-.16.4-.28.8-.4,1.2a6.58,6.58,0,0,1,3,.48c.24.12.48,1.2.48,1.6,0,.24,0,.36-.16.44h-.12a12.33,12.33,0,0,0-3.84-.44,115,115,0,0,0-3.2,14.2c-.08.88.08,1,.64.44a34.78,34.78,0,0,0,5.76-9.64.56.56,0,0,1,1,.4c-1,2.68-5.36,11.64-8.6,11.64-2.24,0-2.15-2.36-2-3.92a93.75,93.75,0,0,1,2.44-13h-.88c-.76,0-2.51,0-2.92-1-.12-.32,0-.48.36-.48a31.07,31.07,0,0,0,3.88-.32,24.39,24.39,0,0,1,.92-3c.4-1,.8-1.48,1.16-1.48.8,0,3.24,1,3.24,1.64,0,.08,0,.12-.12.2s-.08.12-.12.16A2.52,2.52,0,0,0,271.3,178Z"/>
            <path class="cls-2"
                  d="M280.7,182.91a.71.71,0,0,1,.56-.52,5.33,5.33,0,0,1,2.6,1.16c.4.32,0,.84-.2,1.24a56.42,56.42,0,0,0-2,6.36c1.44-3.08,3.56-6.88,5.48-8.48a1.06,1.06,0,0,1,.76-.28,4.75,4.75,0,0,1,2.52,1.08c.24.32.16.52,0,.84a59,59,0,0,0-2.16,6.84c1.44-3.08,3.56-6.88,5.48-8.48a1.12,1.12,0,0,1,.76-.28c.6,0,2.72.72,2.72,1.48a1.8,1.8,0,0,1-.12.44,4.47,4.47,0,0,0-.44,1,65.64,65.64,0,0,0-2.84,10.56c-.12.6.16.68.6.28,2.4-2.44,4.24-7.12,5.28-9.84a.56.56,0,0,1,1,.4c-1,2.68-4.52,11.64-8,11.64a2.18,2.18,0,0,1-2.32-2.12,58.92,58.92,0,0,1,2.68-11.48c-2.64,2.88-6,10.44-6.2,13.16,0,.4-.28.44-.52.44-1,0-2.52-1.08-2.52-1.92a49.31,49.31,0,0,1,2.64-11.64c-2.68,2.92-6.08,10.4-6.28,13.12,0,.4-.24.44-.48.44-1,0-2.52-1.08-2.52-1.92A47.55,47.55,0,0,1,280.7,182.91Z"/>
            <path class="cls-2"
                  d="M304.46,194.11a.59.59,0,0,0,0-.28c-1.16,2.44-2.68,4.52-4.48,4.52a2.53,2.53,0,0,1-2.64-2.48c-.52-4.36,1.72-11.28,5.68-13.4,1.24-.72,2.68.24,4.12,1a2,2,0,0,0,.2-.52c.16-.32.36-.52.6-.52a5.19,5.19,0,0,1,2.56,1.16c.44.32,0,.84-.2,1.24a69.6,69.6,0,0,0-2.84,11.08c-.12.6.24.6.56.28,2.44-2.44,4.12-7.12,5.16-9.84a.56.56,0,0,1,1,.4c-1,2.68-4.36,11.64-7.8,11.64a2.43,2.43,0,0,1-2.2-2.72C304.34,195.11,304.38,194.63,304.46,194.11Zm1.88-8.48a8,8,0,0,1,.4-1,1.08,1.08,0,0,0-1-.52c-2.76,0-4.88,6.88-5.12,10.32,0,.44-.12,1.88.52,1.88C303.1,196.27,305.74,187.51,306.34,185.63Z"/>
            <path class="cls-2"
                  d="M314.06,182.91a.71.71,0,0,1,.56-.52,5.17,5.17,0,0,1,2.6,1.16c.4.32,0,.84-.2,1.24a56.42,56.42,0,0,0-2,6.36c1.44-3.08,3.56-6.88,5.48-8.48a1.06,1.06,0,0,1,.76-.28,4.94,4.94,0,0,1,2.48,1c.52.52.2.92-.24,1.24a6.9,6.9,0,0,0-2.12,4.56c0,1,.32,1.44.76,1.44,1.68,0,3.28-3.2,4-4.48a.57.57,0,0,1,1,.6c-.88,1.44-2.56,4.56-4.48,5.24-1.36.52-3.88-.72-4.08-2.48a9.43,9.43,0,0,1,1.08-4.28c.16-.36,0-.28-.12-.08-2.6,3.12-5.68,10.12-5.88,12.72,0,.4-.24.44-.48.44-1,0-2.52-1.08-2.52-1.92A47.55,47.55,0,0,1,314.06,182.91Z"/>
            <path class="cls-2"
                  d="M330.42,182.23c1.88,0,3.84,1.72,3.84,3.44,0,2.16-1.16,4.52-2.08,4.52A3.87,3.87,0,0,1,330,189c-.28-.32-.12-.72.32-1a4.52,4.52,0,0,0,1.84-2.28c.4-1,.2-1.6-.32-1.6-3.36,0-7.16,12.36-2.24,12.36,3.56,0,6-6.6,7.52-10.2a.55.55,0,0,1,1,.44c-1.52,3.76-4.36,11.64-9.16,11.64C319.3,198.35,325,182.23,330.42,182.23Z"/>
            <path class="cls-2"
                  d="M343.74,184.75a27.47,27.47,0,0,0-6.08,11.64,9.3,9.3,0,0,0-.16,1.48c0,.32-.12.48-.48.48-1,0-2.64-.88-2.64-1.76,0-7,4-24,5.72-24,.8,0,3.48,1,3.48,1.64a.31.31,0,0,1-.08.2,2.63,2.63,0,0,0-.48.68c-1.56,2.76-3.4,10-4.52,15.68a24.69,24.69,0,0,1,5.8-8.08,1.12,1.12,0,0,1,.76-.28c.6,0,2.72.72,2.72,1.48a1.8,1.8,0,0,1-.12.44,7.55,7.55,0,0,0-.44,1,70.1,70.1,0,0,0-2.84,10.56c-.08.6.16.68.6.28,2.4-2.44,4.24-7.12,5.32-9.84a.54.54,0,1,1,1,.4c-1,2.68-4.52,11.64-8,11.64a2.4,2.4,0,0,1-2.16-2.72A47.76,47.76,0,0,1,343.74,184.75Z"/>
            <path class="cls-2"
                  d="M354.58,182.23c1.52,0,4.2,2,4.2,3.8,0,3.72-4.36,6.6-7.44,6.6-.08,2.12.56,3.84,2.4,3.84,3.24,0,6.16-6.56,7.52-10.2.24-.68,1.28-.24,1,.44-1.44,3.92-4.64,11.64-9.16,11.64C343.46,198.35,348.86,182.23,354.58,182.23Zm-3.16,9.48c2.16,0,4.56-3.24,4.56-6.44,0-.84-.68-1.12-1.28-.64C353.1,185.83,351.74,189,351.42,191.71Z"/>
            <path class="cls-2"
                  d="M362.3,182.91a.71.71,0,0,1,.56-.52,5.17,5.17,0,0,1,2.6,1.16c.4.32,0,.84-.2,1.24a56.42,56.42,0,0,0-2,6.36c1.44-3.08,3.56-6.88,5.48-8.48a1.06,1.06,0,0,1,.76-.28,4.94,4.94,0,0,1,2.48,1c.52.52.2.92-.24,1.24a6.9,6.9,0,0,0-2.12,4.56c0,1,.32,1.44.76,1.44,1.68,0,3.28-3.2,4-4.48a.57.57,0,0,1,1,.6c-.88,1.44-2.56,4.56-4.48,5.24-1.36.52-3.88-.72-4.08-2.48a9.43,9.43,0,0,1,1.08-4.28c.16-.36,0-.28-.12-.08-2.6,3.12-5.68,10.12-5.88,12.72,0,.4-.24.44-.48.44-1,0-2.52-1.08-2.52-1.92A47.55,47.55,0,0,1,362.3,182.91Z"/>
            <path class="cls-2"
                  d="M372.66,198.39c-2.56-.08-1.32-4.76.08-4.72,1.56,0,2.6.68,2.6,2C375.34,196.35,374.5,198.43,372.66,198.39Zm5.68,0c-2.56-.08-1.32-4.76.12-4.72s2.56.68,2.56,2C381,196.35,380.22,198.43,378.34,198.39Zm5.68,0c-2.56-.08-1.32-4.76.08-4.72,1.56,0,2.6.68,2.6,2C386.66,196.35,385.86,198.43,384,198.39Z"/>
            <path class="cls-2"
                  d="M401.42,186.11a55.81,55.81,0,0,1-3.36,5.08c-.48.68-2,.4-2.76-.24-.28-.24-.24-.4,0-.68a54.08,54.08,0,0,0,3.8-5.2,47.53,47.53,0,0,0-1.72-4.92c-.12-.32-.12-.48.24-.64.88-.4,2.4-.2,2.72.56.56,1.48,1,3,1.4,4.56A1.69,1.69,0,0,1,401.42,186.11Zm4.84,0a55.47,55.47,0,0,1-3.32,5.08c-.52.68-2.08.4-2.8-.24-.24-.24-.24-.4,0-.68a54.08,54.08,0,0,0,3.8-5.2,47.53,47.53,0,0,0-1.72-4.92c-.12-.32-.08-.48.24-.64.88-.4,2.44-.2,2.72.56a46.08,46.08,0,0,1,1.4,4.56A1.69,1.69,0,0,1,406.26,186.11Z"/>
        </g>
        <g class="cls-1">
            <path class="cls-2"
                  d="M120.29,202.55c.76,0,3.48,1,3.48,1.64a.31.31,0,0,1-.08.2,4.37,4.37,0,0,0-.52.68c-2.32,4.16-5.84,21-6,25.24a43.77,43.77,0,0,1,8.24-1c1,0,1.56.12,1.68.39.32.69.64,3,.16,3.2h-.2a3.38,3.38,0,0,0-.68-.2,29.06,29.06,0,0,0-13.44,1.4c-1.2.52-1.16-1.95-.24-2.36a17.3,17.3,0,0,1,2.88-1c-.8-.31-1.52-.92-1.52-1.47C114.09,222.47,118.57,202.55,120.29,202.55Z"/>
            <path class="cls-2"
                  d="M132.37,212.23c1.52,0,4.2,2,4.2,3.8,0,3.72-4.36,6.6-7.44,6.6-.08,2.12.56,3.84,2.4,3.84,3.24,0,6.16-6.56,7.52-10.2.24-.68,1.28-.24,1,.44-1.44,3.92-4.64,11.64-9.16,11.64C121.25,228.35,126.65,212.23,132.37,212.23Zm-3.16,9.48c2.16,0,4.56-3.24,4.56-6.44,0-.84-.68-1.12-1.28-.64C130.89,215.83,129.53,219,129.21,221.71Z"/>
            <path class="cls-2"
                  d="M136.37,224.87a3.39,3.39,0,0,1,2.76-1.48c.88-.12,1.8-.12,2.56-.28-.36-2.4-3.12-3.88-3.12-7a4.19,4.19,0,0,1,4.4-4.08c1.44,0,3.28,2,3.28,3.48,0,.84-.88,2.32-1.44,2.32-.88,0-2.12-.6-2.12-1a.21.21,0,0,1,.08-.16c.68,0,1.24-1.08,1.24-1.84,0-.48-.2-.88-.64-.88-1,0-1.44,1.72-1.44,2.44,0,2.12,2.16,3.64,3,5.44a9.37,9.37,0,0,0,4.28-5.56c.2-.68,1.24-.32,1,.36a10.27,10.27,0,0,1-5,6.28c.48,3.52-3.32,5.64-6.4,5.64C136.33,228.59,135.33,226.47,136.37,224.87Zm2.16-.28a1.21,1.21,0,1,0,.68,2.28,4.24,4.24,0,0,0,2.44-2.6C140.81,224.47,139.45,224.35,138.53,224.59Z"/>
            <path class="cls-2"
                  d="M158.81,202.55c.8,0,3.48,1,3.48,1.64a.31.31,0,0,1-.08.2,2.63,2.63,0,0,0-.48.68c-1.28,2.24-2.76,7.48-3.84,12.44a26.07,26.07,0,0,1,2-3.56c.8-1.16,1.76-2.12,2.76-2.12,1.68,0,3.28,2.24,3.28,3.56a15.7,15.7,0,0,1-2.16,7.16,14,14,0,0,0,4.76-6.28.57.57,0,0,1,1,.44,15.71,15.71,0,0,1-7.16,8c-1.6,2.12-3.4,3.64-4.84,3.64a2.67,2.67,0,0,1-1.36-.68c0,.24.08.68-.48.68-1,0-2.64-.88-2.64-1.76C153.09,219.83,157.13,202.55,158.81,202.55Zm-.16,15.88a23.41,23.41,0,0,0-2.28,7,12.23,12.23,0,0,0,2.6-.56,20,20,0,0,0,3.24-9.64c0-1.24-.68-1.6-1.4-.56A34.58,34.58,0,0,0,158.65,218.43Z"/>
            <path class="cls-2"
                  d="M169.41,212.91a.71.71,0,0,1,.56-.52,5.17,5.17,0,0,1,2.6,1.16c.4.32,0,.84-.2,1.24a56.42,56.42,0,0,0-2,6.36c1.44-3.08,3.56-6.88,5.48-8.48a1.06,1.06,0,0,1,.76-.28,4.94,4.94,0,0,1,2.48,1c.52.52.2.92-.24,1.24a6.9,6.9,0,0,0-2.12,4.56c0,1,.32,1.44.76,1.44,1.68,0,3.28-3.2,4-4.48a.57.57,0,0,1,1,.6c-.88,1.44-2.56,4.56-4.48,5.24-1.36.52-3.88-.72-4.08-2.48a9.43,9.43,0,0,1,1.08-4.28c.16-.36,0-.28-.12-.08-2.6,3.12-5.68,10.12-5.88,12.72,0,.4-.24.44-.48.44-1,0-2.52-1.08-2.52-1.92A47.55,47.55,0,0,1,169.41,212.91Z"/>
            <path class="cls-2"
                  d="M187.29,212.91c2.48,0,4.56,1.72,4.56,3.52a14.78,14.78,0,0,1-1.16,5.6,15.25,15.25,0,0,0,4.12-5.76.57.57,0,0,1,1,.44,15.8,15.8,0,0,1-6.24,7.44c-1.48,2.44-3.6,4.2-6,4.2-2.88,0-4.6-2.88-4.6-5,0-4,2-9.16,5.4-10.92A2.94,2.94,0,0,1,187.29,212.91Zm-4,12.56a9.69,9.69,0,0,0,2.32-.52,17.67,17.67,0,0,0,2.56-8.52c0-2.64-1.44-2.8-2.88-1.24-2.28,2.52-3.4,8.2-2.4,10.36A1.18,1.18,0,0,1,183.25,225.47Z"/>
            <path class="cls-2"
                  d="M195.65,212.91a.71.71,0,0,1,.56-.52,5.17,5.17,0,0,1,2.6,1.16c.4.32,0,.84-.2,1.24a56.42,56.42,0,0,0-2,6.36c1.44-3.08,3.56-6.88,5.48-8.48a1.06,1.06,0,0,1,.76-.28c.56,0,2.68.72,2.68,1.48a.91.91,0,0,1-.12.44c-.16.32-.28.64-.44,1a69.62,69.62,0,0,0-2.8,10.56c-.12.6.16.68.56.28,2.44-2.44,4.28-7.12,5.32-9.84a.56.56,0,0,1,1,.4c-1,2.68-4.52,11.64-8,11.64a2.16,2.16,0,0,1-2.32-2.12,58.92,58.92,0,0,1,2.68-11.48c-2.68,2.88-6,10.44-6.24,13.16,0,.4-.24.44-.48.44-1,0-2.52-1.08-2.52-1.92A47.55,47.55,0,0,1,195.65,212.91Z"/>
            <path class="cls-2"
                  d="M207.61,226c-2.24,0-2-2.16.08-2.16a5.42,5.42,0,0,1,.8.08c2.88-1.48,5.52-5.52,5.52-8.72a17.8,17.8,0,0,0-5,2.88c-.28.2-.64.76-1.24.28a5.37,5.37,0,0,1-1-2.2c-.16-.56,0-.72.56-1,2.44-1.24,5.36-2.56,8.2-2.56.76,0,1.76,2.12,1.76,3.16-.24,3.92-3.32,7.64-6.2,9.16a5.11,5.11,0,0,1,1.36,1.52,22.11,22.11,0,0,0,8.16-10.08c.24-.68,1.28-.28,1,.36-1.76,4.68-4.8,7.84-8.64,10.68,2.16,4.27,0,10.55-5.52,10.55a3.18,3.18,0,0,1-2.6-1.28c-1.16-1.64-.48-3.88.72-5.28a21.22,21.22,0,0,1,4.76-3.51,4.56,4.56,0,0,0-1-2.16A5.86,5.86,0,0,1,207.61,226Zm.28,9.83c1.92-1,2.68-4.84,2.56-6.72-1.8,1.25-4.64,2.76-4.72,5.2A1.46,1.46,0,0,0,207.89,235.78Z"/>
            <path class="cls-2"
                  d="M223.05,228.35c-9.64,0-4.24-16.12,1.48-16.12,1.52,0,4.2,2,4.2,3.8,0,3.72-4.36,6.6-7.44,6.6-.08,2.12.56,3.84,2.4,3.84,3.24,0,6.16-6.56,7.51-10.2.25-.68,1.29-.24,1,.44C230.77,220.63,227.57,228.35,223.05,228.35Zm1.6-13.72c-1.6,1.2-3,4.36-3.28,7.08,2.16,0,4.56-3.24,4.56-6.44C225.93,214.43,225.25,214.15,224.65,214.63Zm3.28-9.2c-.4,0-.56,0-.56.2a2.34,2.34,0,0,1,0,.4,4.5,4.5,0,0,1-2.12,3.92c-.16.08-.08.24.12.24,1.36,0,4-.64,4.48-2.64a2.83,2.83,0,0,0-.16-1.64C229.45,205.39,228.49,205.43,227.93,205.43Z"/>
            <path class="cls-2"
                  d="M228.53,224.87a3.39,3.39,0,0,1,2.76-1.48c.88-.12,1.8-.12,2.56-.28-.36-2.4-3.12-3.88-3.12-7a4.19,4.19,0,0,1,4.4-4.08c1.44,0,3.28,2,3.28,3.48,0,.84-.88,2.32-1.44,2.32-.88,0-2.12-.6-2.12-1a.21.21,0,0,1,.08-.16c.68,0,1.24-1.08,1.24-1.84,0-.48-.2-.88-.64-.88-1,0-1.44,1.72-1.44,2.44,0,2.12,2.16,3.64,3,5.44a9.37,9.37,0,0,0,4.28-5.56c.2-.68,1.24-.32,1,.36a10.27,10.27,0,0,1-5,6.28c.48,3.52-3.32,5.64-6.4,5.64C228.49,228.59,227.49,226.47,228.53,224.87Zm2.16-.28a1.21,1.21,0,1,0,.68,2.28,4.24,4.24,0,0,0,2.44-2.6C233,224.47,231.61,224.35,230.69,224.59Z"/>
            <path class="cls-2"
                  d="M255.8,216.27a.57.57,0,0,1,1,.44,9.57,9.57,0,0,1-6.51,4.76,30.12,30.12,0,0,1-.28,12.71,7.17,7.17,0,0,1-1.44,3,2.23,2.23,0,0,1-1.92.68c-1,0-2.64-.6-2.64-1.48a28.13,28.13,0,0,1,.24-3.4,108.35,108.35,0,0,1,5-23.39c.64-1.76,1.2-2.84,1.64-2.84.76,0,3.48,1,3.48,1.64a.31.31,0,0,1-.08.2,3.41,3.41,0,0,0-.52.68c-1.12,2-2.44,6.52-3.52,11A8.11,8.11,0,0,0,255.8,216.27Zm-7,18.23a26,26,0,0,0,.76-10.67c-.68,3.44-1.28,6.95-1.64,10.47-.12,1.24-.08,1.88.08,1.88S248.69,234.86,248.81,234.5Z"/>
            <path class="cls-2"
                  d="M261.17,212.91c2.48,0,4.55,1.72,4.55,3.52a14.77,14.77,0,0,1-1.15,5.6,15.23,15.23,0,0,0,4.11-5.76.57.57,0,0,1,1,.44,15.78,15.78,0,0,1-6.23,7.44c-1.48,2.44-3.6,4.2-6,4.2-2.88,0-4.6-2.88-4.6-5,0-4,2-9.16,5.4-10.92A2.94,2.94,0,0,1,261.17,212.91Zm-4,12.56a9.69,9.69,0,0,0,2.32-.52,17.67,17.67,0,0,0,2.56-8.52c0-2.64-1.44-2.8-2.88-1.24-2.28,2.52-3.4,8.2-2.4,10.36A1.18,1.18,0,0,1,257.13,225.47Z"/>
            <path class="cls-2"
                  d="M269.53,212.91a.71.71,0,0,1,.56-.52,5.17,5.17,0,0,1,2.6,1.16c.4.32,0,.84-.2,1.24a56.42,56.42,0,0,0-2,6.36c1.44-3.08,3.55-6.88,5.47-8.48a1.07,1.07,0,0,1,.76-.28c.57,0,2.68.72,2.68,1.48a.91.91,0,0,1-.12.44c-.16.32-.28.64-.44,1a70.81,70.81,0,0,0-2.8,10.56c-.12.6.17.68.56.28,2.44-2.44,4.28-7.12,5.32-9.84a.56.56,0,0,1,1,.4c-1,2.68-4.52,11.64-8,11.64a2.16,2.16,0,0,1-2.31-2.12,58.2,58.2,0,0,1,2.68-11.48c-2.68,2.88-6,10.44-6.24,13.16,0,.4-.24.44-.48.44-1,0-2.52-1.08-2.52-1.92A47.55,47.55,0,0,1,269.53,212.91Z"/>
            <path class="cls-2"
                  d="M287.52,208c-.16.4-.27.8-.4,1.2a6.58,6.58,0,0,1,3,.48c.24.12.48,1.2.48,1.6,0,.24,0,.36-.16.44h-.12a12.33,12.33,0,0,0-3.84-.44,114.77,114.77,0,0,0-3.19,14.2c-.09.88.08,1,.63.44a34.53,34.53,0,0,0,5.76-9.64.56.56,0,0,1,1,.4c-1,2.68-5.35,11.64-8.59,11.64-2.24,0-2.16-2.36-2-3.92a93.75,93.75,0,0,1,2.44-13h-.88c-.76,0-2.52,0-2.92-1-.12-.32,0-.48.36-.48a31.07,31.07,0,0,0,3.88-.32,24.39,24.39,0,0,1,.92-3c.4-1,.8-1.48,1.15-1.48.8,0,3.24,1,3.24,1.64,0,.08,0,.12-.12.2s-.08.12-.12.16A2.52,2.52,0,0,0,287.52,208Z"/>
            <path class="cls-2"
                  d="M301.16,223.79c-1.12,2.4-2.68,4.56-4.63,4.56s-2.84-1.52-2.92-3.24c-.2-4.32,1.72-10.64,5.43-12.64,1.28-.72,2.8.28,3.92.84,1.24-5.72,2.84-10.76,3.76-10.76s3.52,1,3.52,1.64a.22.22,0,0,1-.12.2,4.15,4.15,0,0,0-.48.68c-2,3.6-4.6,14.8-5.32,20.44-.12.88.08,1,.64.44,2.32-2.48,4.12-7,5.12-9.64a.56.56,0,0,1,1,.4c-1,2.68-4.52,11.64-8,11.64-2.24,0-2.16-2.36-2-3.92C301.12,224.23,301.16,224,301.16,223.79ZM297,224c-.12,1.36.2,2.2.8,2.2.4,0,.92-.4,1.49-1.28a26,26,0,0,0,2.47-5.44c.24-1.52.56-3.12.88-4.72a1,1,0,0,0-.88-.64C299.12,214.07,297.37,220.43,297,224Z"/>
            <path class="cls-2"
                  d="M314.84,224.11a2.55,2.55,0,0,0,.08-.28c-1.2,2.44-2.68,4.52-4.48,4.52a3,3,0,0,1-2.83-2.72c.08-.52.12-1,.19-1.52a49,49,0,0,1,3.08-11.2c.16-.32.36-.52.6-.52a5.19,5.19,0,0,1,2.56,1.16c.4.32,0,.84-.2,1.24a69.14,69.14,0,0,0-2.8,10c-.2.92.08,1.44.52,1.44,1.92,0,4.72-8.76,5.36-10.64.32-1,.64-1.88,1-2.72.16-.32.4-.52.6-.52a5.19,5.19,0,0,1,2.56,1.16c.44.32,0,.84-.16,1.24a67.5,67.5,0,0,0-3,11.08c-.12.6.24.6.6.28,2.4-2.44,4.24-7.12,5.28-9.84a.56.56,0,0,1,1,.4c-1,2.68-4.52,11.64-8,11.64a2.45,2.45,0,0,1-2.2-2.72C314.72,225.11,314.8,224.63,314.84,224.11Z"/>
            <path class="cls-2"
                  d="M327.28,224.87a3.39,3.39,0,0,1,2.76-1.48c.88-.12,1.8-.12,2.56-.28-.36-2.4-3.12-3.88-3.12-7a4.19,4.19,0,0,1,4.4-4.08c1.44,0,3.28,2,3.28,3.48,0,.84-.88,2.32-1.44,2.32-.88,0-2.12-.6-2.12-1a.21.21,0,0,1,.08-.16c.68,0,1.24-1.08,1.24-1.84,0-.48-.2-.88-.64-.88-1,0-1.44,1.72-1.44,2.44,0,2.12,2.16,3.64,3,5.44a9.37,9.37,0,0,0,4.28-5.56c.2-.68,1.24-.32,1,.36a10.27,10.27,0,0,1-5,6.28c.48,3.52-3.32,5.64-6.4,5.64C327.24,228.59,326.24,226.47,327.28,224.87Zm2.16-.28a1.21,1.21,0,1,0,.68,2.28,4.24,4.24,0,0,0,2.44-2.6C331.72,224.47,330.36,224.35,329.44,224.59Z"/>
            <path class="cls-2"
                  d="M348.8,212.51a3.89,3.89,0,0,1,1.48,1.8,2.49,2.49,0,0,1-.32,2.56,13.5,13.5,0,0,1-4.2,3.88c0,.8.76,5.64,2,5.64.12,0,.24-.08.44-.24,2.4-2.44,3.76-7.12,4.8-9.84a.56.56,0,0,1,1,.4c-1,2.68-4,11.64-7.48,11.64-2.48,0-4-4.12-4.2-6.44a20.45,20.45,0,0,0-1.52,4.48,9.3,9.3,0,0,0-.16,1.48c0,.32-.12.48-.48.48-1,0-2.64-.88-2.64-1.76,0-7,4-24,5.72-24,.8,0,3.48,1,3.48,1.64a.31.31,0,0,1-.08.2,2.63,2.63,0,0,0-.48.68c-1.56,2.76-3.4,10-4.52,15.68,1.2-2.52,2.56-5.4,4.6-7.4C347.08,212.63,348,212,348.8,212.51Zm-5.84,8.2a11.86,11.86,0,0,0,4.24-5.56c.16-.52,0-1.12-.64-.36A27.24,27.24,0,0,0,343,220.71Z"/>
            <path class="cls-2"
                  d="M350.4,224.11a50.56,50.56,0,0,1,3.08-11.2c.16-.32.36-.52.6-.52a5.19,5.19,0,0,1,2.56,1.16c.44.32,0,.84-.16,1.24a67.5,67.5,0,0,0-3,11.08c-.12.6.24.6.56.28,2.44-2.44,4.28-7.12,5.32-9.84a.56.56,0,0,1,1,.4c-1,2.68-4.52,11.64-8,11.64a2.43,2.43,0,0,1-2.2-2.72C350.28,225.11,350.32,224.63,350.4,224.11Zm7.2-20a7.31,7.31,0,0,1,2.36,1.08c.6.4.6.92.16,1.64-.72,1.2-2.88,4.44-3.84,4.48-2.28.08-.16-5.12.36-6.08C357,204.47,357.32,204.07,357.6,204.07Z"/>
        </g>
    </g>
    <rect class="cls-3" height="152" width="162" x="162.75" y="458.35"/>
    <rect class="cls-4" height="151" width="161" x="163.25" y="458.85"/>
    <rect class="cls-3" height="109" width="162" x="0.75" y="501.35"/>
    <rect class="cls-4" height="108" width="161" x="1.25" y="501.85"/>
    <rect class="cls-3" height="67" width="162" x="322.75" y="543.35"/>
    <rect class="cls-4" height="66" width="161" x="323.25" y="543.85"/>
    <path class="cls-5"
          d="M283.1,398.78c3.86-.77,7.36-1.54,10.94-2.17.77-.14,1.54-.14,2.31-.21,7.36-.42,8.76,5.47,7.08,9.81a24.07,24.07,0,0,1-5.33,8.06,60,60,0,0,1-27.48,15.15c-1.26.28-3.22.49-3.5,1.26a10.47,10.47,0,0,0-1.05,6.1c.56,2.59,2.17,5.05,3.29,7.5a85.73,85.73,0,0,1,3.93,8.62c.91,2.88-.7,5.19-3.23,6.52a6,6,0,0,1-6.94-1,40.93,40.93,0,0,1-9.81-11.36c-2-3.57-4.21-7.08-6.59-10.44-1.34-1.82-3.37-3.09-5.05-4.56a2.92,2.92,0,0,1,3.57.91c2.74,3.79,5.47,7.57,7.93,11.57,2.8,4.49,5.6,8.9,10,12.06,3.3,2.38,7.64.91,8.41-2.88a5.89,5.89,0,0,0-.42-3.29c-.84-1.89-2.1-3.51-3-5.4a72.32,72.32,0,0,1-3.72-8.69c-1.05-3.58.07-6.94,2-10.1,8.14-13.46,13.82-28,18.09-43.05,5-17.32,6.8-35,7.78-52.93a238,238,0,0,0-1.47-44.17c-.91-6.66-2.66-13.18-4.13-19.77-.64-2.94-1.55-5.82-2.39-8.69a3.66,3.66,0,0,0,.56-.28,13,13,0,0,1,1.4,2.52,156.51,156.51,0,0,1,6.38,31.62A338.81,338.81,0,0,1,294,340c-.42,12.75-1.4,25.51-4.55,38-1.55,6-3.65,11.77-5.47,17.66C283.8,396.54,283.45,397.52,283.1,398.78Z"/>
    <path class="cls-5"
          d="M232.41,330.57c-4.83.35-8.06-1.83-8.9-6,3.16,4,6,5.46,8.56,4.27s3.22-3.22,2.45-7.92c-3.58-.42-5.89-2.31-6.52-6a8.33,8.33,0,0,1,3.29-7.43c2.25-1.4,6.8-.28,8.28,2.24a8.33,8.33,0,0,1,.77,7.36c-.49,1.27-2,2.32-3.23,3.09a1.9,1.9,0,0,0-1.12,2.17c.56,3.09,2.73,4.7,5.82,4.07,5.12-1.05,6.73-3.3,6.66-9.05,1.47,2.1,1,5.89-1.05,7.72a3.07,3.07,0,0,1-1,.77c-3,1.05-3.72,3.43-3.65,6.24.07,2.17-1,3.29-3.22,3.22-.14,0-.28.07-.43.07-1.19.21-2.87,1.05-3.57.56-1.12-.84-1.68-2.52-2.45-3.85A6.12,6.12,0,0,0,232.41,330.57Zm4.56-3.16c1.26,5.75,2,6.66,4.56,6,.14-1.68.28-3.37.42-5-1.75-.41-3.29-.69-5-1Zm1.33,7.22c-1.05-2.87-1.82-4.91-2.59-7-2.46,2.38-2.53,3.65-.21,6.38.42.5,1.54.36,2.8.64Zm-.14-21.24c1.05-2.8.21-3.93-2.45-3.58.91,1.34,1.68,2.46,2.45,3.58Z"/>
    <path class="cls-5"
          d="M210.12,432.22c-12.48-13-17.52-28.81-17-46.41.35-12.76,1.26-25.73,10.16-36.24a2.26,2.26,0,0,1-.28,1c-5.12,7.71-6.87,16.4-7.5,25.45A100.69,100.69,0,0,0,200,414.2a40.53,40.53,0,0,0,7.29,12.62c1.26,1.55,2.24,3.3,3.36,4.91A1.76,1.76,0,0,1,210.12,432.22Z"/>
    <path class="cls-5"
          d="M267.12,301.48a15.13,15.13,0,0,1,1.4-1.69,10.86,10.86,0,0,0,2.73-8.83c-.35-4.63-5.75-8-10.1-6.31a15.29,15.29,0,0,0-4.34,2.59c-1.27,1.13-2.1,1.06-3.44.21a26.69,26.69,0,0,0-22.92-2.17,19.43,19.43,0,0,0-9.6,6.8c-.21-.14-.36-.35-.57-.49a42.16,42.16,0,0,1,3.79-4,26.11,26.11,0,0,1,20.4-5.4c3.16.42,6.24,1.54,9.46,2.17a4.55,4.55,0,0,0,2.74-.42c2.66-1.47,5.26-2.73,8.48-2a10,10,0,0,1,6,16.06c-1.05,1.4-2.32,2.66-3.51,4C267.47,301.83,267.33,301.62,267.12,301.48Z"/>
    <path class="cls-5"
          d="M206.13,334.71c-9.75-7.43-16.55-16.9-19.49-28.6a52.72,52.72,0,0,1,1-29.66C182.85,299.3,191.89,317.81,206.13,334.71Z"/>
    <path class="cls-5"
          d="M234.17,433.91c-2.8,2-5.61,4-8.41,5.95-5.54,3.79-11.08,7.58-16.76,11.29a38.52,38.52,0,0,1-7.15,3.79c-3.79,1.54-6.59-.56-5.89-4.63a21.65,21.65,0,0,1,2.8-7c2.45-4.14,6.17-7.64,6.59-12.83a3.43,3.43,0,0,0,.84.14c-.07,1,.21,2.17-.21,3-1.33,2.73-2.94,5.25-4.42,7.92-1,1.68-2.38,3.29-2.94,5.12a7,7,0,0,0,.28,4.76c.84,1.69,2.94,1.47,4.42.77a113.44,113.44,0,0,0,9.88-5.68c6.17-3.92,12.2-8.06,18.3-12a14.56,14.56,0,0,1,2.32-1.2A5.71,5.71,0,0,0,234.17,433.91Z"/>
    <path class="cls-5"
          d="M192.6,356.79c-.5-.77-.78-1-.78-1.19.14-6.66-2.87-12.41-5.6-18.09-5-10.45-9.4-21.1-12.27-32.39-1-3.78-1.4-7.64-2-11.5a5.31,5.31,0,0,1,.63-3.15,3.6,3.6,0,0,1,.42,1.12c.63,11.71,4.48,22.64,9,33.3,2.67,6.24,6,12.2,8.62,18.44,1.4,3.43,1.76,7.22,2.53,10.86A7,7,0,0,1,192.6,356.79Z"/>
    <path class="cls-5"
          d="M214.89,292.22a19.75,19.75,0,0,0-2.67-.21,6.41,6.41,0,0,0-5.95,6.59,11.38,11.38,0,0,0,3.85,8.9A3.08,3.08,0,0,1,211,309a21.11,21.11,0,0,1,.49,2.95c1.48,9.88,6.1,17.38,15.64,21.24a4.13,4.13,0,0,1,.77.35c.07,0,.07.14.07.21-2.24.35-6.52-1.47-8.83-3.92-4.7-5.12-8.84-10.52-9.4-17.88a3.72,3.72,0,0,0-1.19-2.1c-3.58-4.14-5.12-8.76-3.3-14.16,1.13-3.23,4.77-5.68,7.93-5.12a7.14,7.14,0,0,1,1.89,1.05C215.17,291.8,215,292,214.89,292.22Z"/>
    <path class="cls-5"
          d="M259.34,342.56c13-6,17.45-16.76,17.52-30.22.14.21.35.42.35.63a43.7,43.7,0,0,1-2,17.81,16,16,0,0,1-7.85,9.11c-1.33.7-2.53,1.55-3.93,2.18-1.19.49-2.45.77-3.71,1.19A7.61,7.61,0,0,0,259.34,342.56Z"/>
    <path class="cls-5"
          d="M278.26,445.47c3.23,2.46,3.86,9.12,1.69,13.25-1.47,2.8-4,4.63-6.31,4.07C280.23,458.44,279.46,452.2,278.26,445.47Z"/>
    <path class="cls-5"
          d="M264.8,298.25a35.66,35.66,0,0,1-3.36-2.24,1.56,1.56,0,0,1-.63-1.19c.14-1.34.77-2.6.7-3.86a13.42,13.42,0,0,0-1-3.57C264,287.88,266.42,294.4,264.8,298.25Z"/>
    <path class="cls-5"
          d="M278.19,289.91c-.07-.63-.14-1.26-.21-2-.42-4.7-.7-9.47-3-13.81-.49-.85.07-2.25.14-3.44.63.84,1.75,1.54,1.89,2.45.84,5.33,1.4,10.66,2,16a2.83,2.83,0,0,1-.21.7A2,2,0,0,1,278.19,289.91Z"/>
    <path class="cls-5" d="M283.94,268.67c-3.5-3.93-3-8.56-4.55-13C281.7,256.47,283.8,262.92,283.94,268.67Z"/>
    <path class="cls-5"
          d="M254.71,303.16c-4-2.38-6.66.84-9.68,2.38-.28-2.1.78-3.5,2.95-4.2C251.13,300.28,253.59,300.77,254.71,303.16Z"/>
    <path class="cls-5"
          d="M225.19,308.35c-1,.21-2,.77-2.38.49-2.52-1.47-4.7-1.82-6.52,1a1,1,0,0,1-.91.07.83.83,0,0,1-.14-.91c1.12-2.8,6.8-4.28,9-2.31C224.49,307,224.7,307.44,225.19,308.35Z"/>
    <path class="cls-5" d="M181.8,291.94c-2.1-4.13-1.33-8.13,1.19-12.06C182.64,284,182.22,288,181.8,291.94Z"/>
    <path class="cls-5"
          d="M284.5,453.82a6.06,6.06,0,0,1-.56,7c-.63.84-1.12,2.17-2.52,1.61C282.47,459.56,283.45,456.76,284.5,453.82Z"/>
    <path class="cls-5" d="M279,271.33c-.78-2.8-1.4-5.12-2.18-7.71C279.11,264.74,280.37,268.74,279,271.33Z"/>
    <path class="cls-5" d="M177,292.5c-2-1.19-2.1-5.82,0-8.48Z"/>
    <path class="cls-3"
          d="M237,327.42c1.69.28,3.16.63,5,.91-.14,1.61-.28,3.29-.42,5C238.94,334.08,238.23,333.16,237,327.42Z"/>
    <path class="cls-3"
          d="M238.3,334.64c-1.26-.28-2.38-.14-2.8-.63-2.31-2.74-2.24-4,.21-6.38C236.48,329.73,237.25,331.76,238.3,334.64Z"/>
    <path class="cls-3" d="M238.16,313.39l-2.45-3.57C238.37,309.47,239.22,310.59,238.16,313.39Z"/>
    <path class="cls-6" d="M280.86,405s8.34,5.61,8.62,15.29"/>
    <path class="cls-6" d="M275.53,409.86s8.34,5.61,8.62,15.28"/>
    <path class="cls-6" d="M285.7,398s9.39,6.52,9.11,18.16"/>
    <path class="cls-6" d="M301.61,401.87s-6.24,14.44-25.38,23.13"/>
    <path class="cls-6" d="M299.23,398.08s-6.31,13.95-25.8,22.22"/>
    <path class="cls-6" d="M294.18,396.61s-5.19,11.15-20.05,17.6"/>
    <path class="cls-6" d="M292.85,397s6.66,4.56,6.8,12.48"/>
    <path class="cls-6" d="M271.53,413.86s6.66,4.55,6.8,12.47"/>
    <path class="cls-6" d="M240.62,428.09A20.59,20.59,0,0,1,249,416.38"/>
    <path class="cls-6" d="M245.53,428.93a20.59,20.59,0,0,1,8.41-11.71"/>
    <path class="cls-6" d="M233.75,428.37a23.79,23.79,0,0,1,10.3-13.32"/>
    <path class="cls-6" d="M237.11,417.29A26.15,26.15,0,0,1,256,421.78"/>
    <path class="cls-6" d="M234.52,420.94a26.15,26.15,0,0,1,18.93,4.48"/>
    <path class="cls-6" d="M232.63,425.7s8.55-2.24,16.33,2.1"/>
    <path class="cls-6" d="M162.66,417.36s1.12-9.82,9-14.3"/>
    <path class="cls-6" d="M144.92,398.15s14.73-1,30.15,11.85"/>
    <path class="cls-6" d="M142.75,401.94s14.3-.7,29.51,12.62"/>
    <path class="cls-6" d="M167.71,419.11s.91-7.85,7.5-11.42"/>
    <path class="cls-3" d="M294.88,331.9h3.65v1.26l-3.65.43Z"/>
    <path class="cls-7" d="M320.75,353.57a3.7,3.7,0,1,1-2.46-4.63A3.7,3.7,0,0,1,320.75,353.57Z"/>
    <path class="cls-8"
          d="M315.56,359.17a5.56,5.56,0,1,0-3.72-6.94h0a5.57,5.57,0,0,0,3.7,6.94Zm2.17-7.08a1.87,1.87,0,1,1-2.31,1.26,1.87,1.87,0,0,1,2.31-1.26Z"/>
    <g class="cls-9">
        <path class="cls-10"
              d="M239.44,518.33a6.43,6.43,0,0,1-2.35,1.18c-2.6.13-9.12-7.83-8.21-10.17,0-.26.13-.39.39-.52,6.78-3.39,14.21-8.74,18.9-14.47,3.78,0,13.56,2.47,13.56,5.86a1,1,0,0,1-.26.65,17.64,17.64,0,0,0-1.82,2.49C251.18,518.6,240,571.27,240,585.09c0,1.17-.53,1.69-1.7,1.69-3.52,0-9.52-3.13-9.52-6.26C229,566.05,234,538.41,239.44,518.33Z"/>
    </g>
    <path class="cls-11"
          d="M245.05,520.29a6.08,6.08,0,0,1-2.22,1.17c-2.48.13-8.86-7.69-8-9.91,0-.26.13-.39.39-.52,6.52-3.39,13.82-8.47,18.38-14.08,3.65,0,13.3,2.35,13.3,5.74a1,1,0,0,1-.26.65,15.37,15.37,0,0,0-1.82,2.35c-8.22,14.73-19,66-19,79.39,0,1.17-.52,1.7-1.69,1.7-3.52,0-9.26-3.13-9.26-6.13C234.88,566.57,239.83,539.71,245.05,520.29Z"/>
    <g class="cls-12">
        <path class="cls-13"
              d="M57.74,590.69c-1.53.62-3,.23-3-1.53a10.2,10.2,0,0,1,3.46-7.53c14.12-12,31-31.09,31-47.68,0-4.3-2.68-6.75-5.91-6.75-5.83,0-10.67,8.75-10.67,13.82,0,.54-.46.61-.77.61-1.84,0-6.22-1.92-6.22-4.45,0-8.37,11-16.81,19.73-16.81,8.53,0,14.9,5.52,14.9,13.9,0,16.89-15.59,35-31.48,46.75a76.8,76.8,0,0,1,21.73-.23c2.69.46,3.22,4.76,3.22,7.3,0,.46,0,1.92-.76,1.92h-.31a50.64,50.64,0,0,0-6.91-1.08C76.94,588.08,66.27,587.7,57.74,590.69Z"/>
    </g>
    <path class="cls-11"
          d="M63.12,590.69c-1.54.62-3,.23-3-1.53a10.24,10.24,0,0,1,3.46-7.53c14-12,30.94-31.09,30.94-47.75,0-4.3-2.68-6.76-5.91-6.76-5.83,0-10.67,8.76-10.67,13.82,0,.54-.46.62-.77.62-1.84,0-6.22-1.92-6.22-4.46,0-8.37,11-16.81,19.74-16.81,8.52,0,14.89,5.53,14.89,13.9,0,16.89-15.59,35-31.48,46.76a76.43,76.43,0,0,1,21.73-.23c2.69.46,3.22,4.76,3.22,7.29,0,.46,0,1.92-.76,1.92H98a48.89,48.89,0,0,0-6.91-1.07C82.24,588.08,71.64,587.7,63.12,590.69Z"/>
    <g class="cls-12">
        <path class="cls-13"
              d="M396.87,578.44c-2.16,0-1-4.25.57-4.25a15.33,15.33,0,0,1,2.53.21c8.28-1.94,13-16.93,6-16.93-3.6,0-7.5,6.77-7.5,9.94,0,.36-.29.44-.5.44-1.3,0-4.4-1.37-4.4-3.1,0-5.91,8.36-11.82,14.56-11.82,13,0,10.88,17.94-2.09,23.35,13.55,5,6.92,26.23-7.35,26.23-6.85,0-12-4.9-10.74-10.88.58-2.81,1.51-5,2.16-5,1.52,0,6.34.58,6.56,1.73a.89.89,0,0,1-.07.43c-1.59,2.52-3,10,1.51,10a5.51,5.51,0,0,0,3.82-1.73c4.61-4.68,5.91-16.79-1.58-18.95A22.43,22.43,0,0,1,396.87,578.44Z"/>
    </g>
    <path class="cls-14"
          d="M399.68,579.38c-2.16,0-1-4.25.57-4.25a15.33,15.33,0,0,1,2.53.21c8.28-1.94,13-16.93,6-16.93-3.6,0-7.5,6.77-7.5,9.94,0,.36-.29.43-.5.43-1.3,0-4.4-1.37-4.4-3.1,0-5.91,8.36-11.81,14.56-11.81,13,0,10.88,17.94-2.09,23.34,13.55,5,6.92,26.23-7.35,26.23-6.85,0-12-4.9-10.74-10.88.58-2.81,1.51-5,2.16-5,1.52,0,6.34.57,6.56,1.73a.91.91,0,0,1-.07.43c-1.59,2.52-3,10,1.51,10a5.59,5.59,0,0,0,3.82-1.73c4.61-4.69,5.91-16.79-1.58-19A22.45,22.45,0,0,1,399.68,579.38Z"/>
</svg>
