<svg data-name="Calque 1" id="Calque_1" viewBox="0 0 485.5 628.38" xmlns="http://www.w3.org/2000/svg">
    <defs>
        <style>
            .cls-1{fill:#00a6c4;}.cls-2{fill:#484848;}.cls-10,.cls-11,.cls-3,.cls-4{fill:none;}.cls-3{stroke:#484848;stroke-width:2px;}.cls-3,.cls-4{stroke-linecap:round;stroke-linejoin:round;}.cls-4{stroke:#fff;stroke-width:0.5px;}.cls-5,.cls-7{fill:#c9c9c9;}.cls-6{fill:#616161;}.cls-7{stroke:#616161;}.cls-10,.cls-12,.cls-7{stroke-miterlimit:10;}.cls-8{opacity:0.48;isolation:isolate;}.cls-9{fill:#ff6679;}.cls-10{stroke:#00a6c4;stroke-width:0.75px;}.cls-11{stroke:#707070;}.cls-12{fill:#5f5f5f;stroke:#5f5f4e;stroke-width:0.25px;}
        </style>
    </defs>
    <title>Groupe 1968</title>
    <path class="cls-1"
          d="M436.45,463.24,261.94,599.56,162.21,471.9l96.89-75.69c2.42,1.36,29.92,16.48,46.64,15,3.24-.29,9.13-.83,13.27-5.23a18.7,18.7,0,0,0,4-7.55c1-3,2.41-7.64.23-10.09-1-1.14-2.37-1.31-7.29-1.72-6.32-.53-9.47-.8-10.24-.79-4.52,0-12.68-.65-28.62-3.65l59.6-46.56.13,3.62c-3.75-.87-5.09-.34-5.58.36-2.1,3,8.94,11.39,22.32,29.61,7.91,10.76,12,18.68,15.06,17.72,1.83-.58,2.36-4.14,2.52-7.23Z"/>
    <path class="cls-2"
          d="M217.26,277.7c-3.47-7.79-5-15.28-1.87-23.25,4.85-12.35,15.91-16.35,27.66-10a8.05,8.05,0,0,0,5.95.1c15.85-6.16,30.8-6.27,45.2,4.38,5,3.72,11.54,5.41,17.3,8.17,3.05,1.45,5.94,3.19,8.91,4.81l-1,1.77c-9.6-4.69-19.69-8.58-28.68-14.24-15.11-9.51-29.47-5.86-44.18.23-2,.84-4.58,1.66-6.56,1.17-9.05-2.22-14.37-1-18.53,5-4.59,6.63-4.14,14.51,1.11,21.52,1.52,2,2.73,4.27,4.09,6.42-2.61.4-5.23.75-7.83,1.2-6.81,1.17-13.78,1.79-20.38,3.69-13.24,3.82-26.75,7.29-39.25,12.93-9.13,4.11-16.64,11.73-25.19,17.3-16.45,10.7-24.14,27.45-31.14,44.59-2,5-2.76,10.61-3.67,16-1.74,10.38-3,20.85-4.81,31.21-1.29,7.25-4.19,14.34-4.57,21.6-.23,4.39,1.92,9.85,4.84,13.28,7.1,8.35,10,17.9,11.9,28.35,2.22,12.56,5.1,25,8.06,37.42.89,3.78,1.41,8.54,6.79,9.15,2.71.3,6.34-4.73,7.38-9.92a10.76,10.76,0,0,0,.25-3.3c-1.19-10.29-2.87-20.55-3.58-30.87a163.9,163.9,0,0,1,.14-26.77c.41-4.3,3.54-8.34,5.44-12.5l1.37.29c0,1.2.44,2.61,0,3.57-5.58,11.23-4.45,23-2.95,34.78,1.92,15.15,4.61,30.26,2.66,45.67-.53,4.13-2.31,5.74-6.33,5.91-8.75.39-12.46-1.65-15.42-10A46.74,46.74,0,0,1,107.91,505a167.35,167.35,0,0,0-11.4-49.61c-1.12-2.86-3.11-5.39-4.33-7.44-5.5,7-10.69,13.95-16.29,20.56-6.31,7.44-15.33,7-21.62-.79-3.73-4.65-6.28-9.83-5.83-16.08.88-12.24.75-24.64,2.78-36.69,3-17.81,12.2-32.68,26-44.43,5-4.25,10.28-8.75,16.23-11.1,4.85-1.92,6.79-5,8.81-8.93A130.5,130.5,0,0,1,151.3,298c4.4-2.67,9.4-4.43,14.28-6.18,16.13-5.78,32.48-10.8,49.55-13A8.54,8.54,0,0,0,217.26,277.7Z"/>
    <path class="cls-2"
          d="M321.31,336.7l-9.95-2.22c11.33-2.47,20.95,1.11,29.48,7.41a164.22,164.22,0,0,1,20.74,17.87c8,8.25,14.59,17.49,12.06,30.23L373,394.8l-3.22,3.75-1.08-10-1.31,0-6.24,10.12-1.38-.77,3.9-14-1.37-.63-4.68,6.88-.91-.34,2.86-11.75-1.68-.54-4.33,9-1.77,0c5.45-11.07.23-18.31-7.16-25.49-5.72-5.56-10.42-12.22-15.25-18.64m-51.28,35.14a37.39,37.39,0,0,0,18.63,7.52c7,.93,14.13.75,21.19,1.2a32.72,32.72,0,0,1,5.28,1.16l.16,1.45a40.7,40.7,0,0,1-5.83,1.64,58.07,58.07,0,0,1-29.68-4c-15.14-6.19-28.56-15-39-27.61a63.49,63.49,0,0,1-13-25.84c.9,1.65,1.78,3.31,2.7,5a108.31,108.31,0,0,0,31.73,35.23c4.59,3.33,8.67,1.57,10-4.06a12.19,12.19,0,0,1,2-4.62A74.21,74.21,0,0,0,296,335.8a7,7,0,0,1,2.7-3.7c2,11.45-3.44,20.61-9,29.74,0,0-10.74,14.66-11.65,15.72Zm53.2-38C337,346.91,342.42,354,348,360.85c.65.8,2.23,1,3.42,1.17,3.29.44,5.65,1.72,6.3,5.33a3,3,0,0,0,2,1.94c3.47.47,3.83,2.74,3.63,5.51-.12,1.6-.18,3.21-.29,5.11l4.45-2.88,1.15,9.86,1.34-.19c4.71-15.84-24.15-42.31-38.72-47.14Z"/>
    <path class="cls-2"
          d="M137,505.24a40.15,40.15,0,0,1,4.31,3c3,2.74,5.76,5.86,8.94,8.41a24.94,24.94,0,0,0,7.72,4.3c3.31,1.06,6.77.47,8.64-3,1.78-3.26-.44-5.41-2.47-7.84-6.27-7.44-12.47-15-18.28-22.76-8-10.72-8-22.78-4.85-34.82,1.21,5.89,2.36,12.13,3.8,18.31a50.66,50.66,0,0,0,11.43,22.5,215.15,215.15,0,0,1,14.55,19.17c3.67,5.24,3.84,10.61,1.06,13.49-5.18,5.36-12.37,7.14-17.39,2.63-6.62-5.94-12.11-13.16-18-19.9-.51-.58-.37-1.73-.53-2.61Z"/>
    <path class="cls-2"
          d="M327.27,296.85c-13.54,7.6-22.19,5-27.37-8.32,6,6,11,12.91,20,8.36,3.64-1.84,7.28-4,6.66-8.31-3.76-1.68-7.19-2.77-10.13-4.63-3.95-2.5-5.25-7-3.52-11.63,1.34-3.55,3-7,7.86-6.95,5.21.05,10.59.18,12.65,5.9.87,2.42.2,6-1,8.44-2.28,4.9-3.25,11.2-2.16,15.42.75,8.17-1.43,16.34-12.89,16.42l-1.06-6.32c.64.22,1,.23,1.08.39,1.23,1.84.27,6.07,4.09,4.91,1.74-.53,3.1-3.36,4-5.43C326.4,302.87,326.56,300.31,327.27,296.85Zm-3.47-29.56-.69,1.42c2.43,4.63,3.7,5.07,8.57,1.89Z"/>
    <path class="cls-2"
          d="M315.41,313.13c-1.78,6.06-5.91,10-11,13a66.63,66.63,0,0,1-8.59,3.93c-9,3.8-14.27,11-18.9,19.38.48-1.79.5-3.93,1.53-5.32,3.44-4.65,7.48-8.87,10.83-13.58,2.95-4.14,7.62-4.3,11.48-6.34C306.06,321.44,310.43,317,315.41,313.13Z"/>
    <path class="cls-2"
          d="M277.32,275.29a7.15,7.15,0,0,1,5.54-8.33,23.28,23.28,0,0,1,8.76.41c1,.18,1.56,2.2,2.32,3.38a35.27,35.27,0,0,1-3.93,1.86c-.47.17-1.18-.3-1.77-.52C281.48,269.54,281,269.68,277.32,275.29Z"/>
    <path class="cls-2" d="M304.56,394.09c6.68-2.48,12.77-.54,19.63-1.54C320.28,396.16,310.52,396.77,304.56,394.09Z"/>
    <path class="cls-2" d="M315,409.36c-3.19,1.92-10.83.92-14.32-3Z"/>
    <path class="cls-2" d="M325.41,397.46c-5.5,3.73-11.37,3.85-17.34,3l-.16-1.5Z"/>
    <path class="cls-3" d="M378,401.21l48.36,61.86L251.27,599.93,150.66,471.22l87.53-68.43"/>
    <line class="cls-3" x1="299.33" x2="316" y1="355" y2="341.96"/>
    <path class="cls-3" d="M251.27,599.92,238,599.51l-57.18-73.14"/>
    <path class="cls-4" d="M88.62,427.64s-20.42,0-31.76-18.86"/>
    <path class="cls-4" d="M92,410.84s-20.42,0-31.76-18.87"/>
    <path class="cls-4" d="M88.37,448s-23.16-.45-35.92-23.89"/>
    <path class="cls-4" d="M57.28,461.73s-5.94-37.23,16.39-80.32"/>
    <path class="cls-4" d="M65.55,466.2s-5.17-36.33,18.13-79"/>
    <path class="cls-4" d="M75.69,462.22s-4-29.14,13.86-62.05"/>
    <path class="cls-4" d="M77.56,459.78A31.45,31.45,0,0,1,52.05,444"/>
    <path class="cls-4" d="M94.21,397.46A31.5,31.5,0,0,1,68.7,381.65"/>
    <circle class="cls-5" cx="240.42" cy="477.5" r="43.35"/>
    <path class="cls-6"
          d="M235.62,457.68c-.3-.08-.66-.29-.91-.22a39.19,39.19,0,0,0-4.37,1.31,14.42,14.42,0,0,0-8.41,7.69,14.77,14.77,0,0,0-.68,2.14,1.33,1.33,0,0,1-.88.93,12.75,12.75,0,0,0-3.33,1.93c-2.94,2.42-1.71,6.6.76,8.57a14.48,14.48,0,0,0,3.51,1.72,1.43,1.43,0,0,0,1.89-.74l.06-.17a11.41,11.41,0,0,1-1.65.18c-2.25-.34-4.9-3.48-4.88-5.85a4.47,4.47,0,0,1,4.42-4.52h.09c.9,0,1.21-.2,1.37-1.19.67-4.36,3.37-7.4,7.25-9.26a45.7,45.7,0,0,1,5.06-1.85c.21,0,.36-.16.62-.24a3.12,3.12,0,0,0,.09-.44Z"/>
    <path class="cls-6"
          d="M238.32,456.06c.45-.29.61-.48.8-.56.83-.28,1.63-.84,2.41-.71a6,6,0,0,1,5,3.36c.1.29.27.59.22.75-.52,1.09.24,1.67.81,2.4a43.13,43.13,0,0,1,2.52,3.61,9.19,9.19,0,0,1,1.19,6.75,12.81,12.81,0,0,0-.18,1.75c.13,0,.22.13.36.15a7.58,7.58,0,0,0,.49-.88c1-4.71-.49-8.79-3.56-12.39a3,3,0,0,1-.75-1.76c-.15-2.18-1.64-3.37-3.33-4.34a4.55,4.55,0,0,0-4.67-.19A2.14,2.14,0,0,0,238.32,456.06Z"/>
    <path class="cls-6"
          d="M219.43,472.31a7.32,7.32,0,0,0,1.47,5.05c.87,1.11,1.34,1,2-.25.38-.86,0-1.57-.82-2.15a9.42,9.42,0,0,1-1.81-1.92,3.7,3.7,0,0,1-.52-.9c-.08.06-.22.11-.3.17Z"/>
    <path class="cls-6"
          d="M241.61,466.06c0-1.64,1.11-2.22,2.49-2.69-.4-.67-1-.53-1.45-.34a1.85,1.85,0,0,0-1.84,1.86,2,2,0,0,0,.45,1.2A.42.42,0,0,0,241.61,466.06Z"/>
    <path class="cls-6"
          d="M246.77,477.64a7,7,0,0,1,.64,2.09c0,.38-.78.74-1.27,1.06,0,0-.09.13-.13.16a1.34,1.34,0,0,1-1.86.42,1.31,1.31,0,0,1-.31-.27c-1-.89-2.05-1.36-3.32-.62a2.08,2.08,0,0,1-.64.13,3,3,0,0,1-3.1-2c2,1.81,3.35,1.9,5.3.44a2.14,2.14,0,0,0,.66-3,2.06,2.06,0,0,0-.29-.37.91.91,0,0,0-1.11-.31,4.1,4.1,0,0,1-2.11.23,3.88,3.88,0,0,1-2.4-2.59,3.14,3.14,0,0,1,1.77-3.6,3.89,3.89,0,0,1,3.68,1.14,3.21,3.21,0,0,1,.19,4.19c1.41,1.74,2.34,2.13,3.59,1.59s1.57-2,1.13-4.41c1.2,1.53,1,3.38-.65,5a1.74,1.74,0,0,1,.24.62Zm-4,2c.6.46,1.3,1,1.91,1.42,1.06-.7,1-1.2-.69-3.49-.42.64-.82,1.32-1.22,2.07Zm4-.55c-.25-1.66-.69-2.06-2.31-1.91.51,1,1.06,1.83,1.74,3.1.22-.6.57-.94.57-1.19Zm-8.68-7.46c-1,.82-.81,1.5.48,2a18.85,18.85,0,0,1-.48-2Z"/>
    <path class="cls-7" d="M244,477.54c-.4.68-.79,1.3-1.23,2.07l1.92,1.42c1.09-.73,1-1.27-.69-3.49Z"/>
    <path class="cls-7"
          d="M246.1,480.27c.31-.55.7-.92.63-1.24-.24-1.66-.68-2.06-2.3-1.92C244.94,478.08,245.42,479,246.1,480.27Z"/>
    <path class="cls-5" d="M238.56,473.64c-.13-.64-.33-1.29-.48-2C237.11,472.49,237.2,473.17,238.56,473.64Z"/>
    <path class="cls-6"
          d="M229.28,475.64c.38-2.21,2.31-2.12,3.85-2.76a1.65,1.65,0,0,0-2.34-.27l-.06,0C229.38,473.46,228.77,474.43,229.28,475.64Z"/>
    <path class="cls-6"
          d="M230.69,485.13l-.68,1.58h0l-.58,1.63h0L229,490h0l-.26,1.57-.23,1.6h0l0,1.64h0l.22,1.62L229,498l0,0,.55,1.61.65,1.54,0,0,1,1.54,1,1.51-.13-.08.23.06h-.07l.74-.08h0c.5-.08.93-.16,1.38-.21h0l.9-.21,0,0c.66-.26,1.28-.57,1.94-.83s1.29-.58,1.94-.84h0l1.87-1,1.86-1,0,0c1.75-1.17,3.52-2.31,5.24-3.6l5.09-3.79,4.85-4.1c1.59-1.37,3.12-2.81,4.66-4.26l0,0,1.41-1.6,1.44-1.56,0,0c.41-.57.93-1.1,1.32-1.72l.63-.86.69-.85v.07l.49-.88,0,0c.16-.43.36-.89.54-1.29v.07a9,9,0,0,0,.21-.91l.1.36L268,473.75l-1.29-1.34,0,0-1.32-1.13,0,0-1.38-1,0,0-1.51-.75h0l-1.52-.6,0,0-1.52-.36h0l-1.63-.27h0l-1.62-.17h0l-1.67.08,0-.11,1.65-.18h0l1.66.06h0l1.64.2h0l1.53.29h0l1.53.54h0l1.54.71h0l0,0,1.46.91h0L267,472h0l1.33,1.31,1.25,1.37.12.15,0,.21a8.68,8.68,0,0,1-.23,1l0,0c-.16.43-.36.89-.52,1.32l0,0-.46.92-.08.06c-.42.58-.83,1.15-1.29,1.75s-.91,1.15-1.33,1.72h0l-1.44,1.56-1.44,1.56,0,0c-1.56,1.41-3.13,2.89-4.76,4.22l-4.91,4L248,496.91c-1.72,1.22-3.53,2.39-5.3,3.53h0l-1.89,1-1.87,1h0c-.66.26-1.28.57-1.94.83l-2,.8,0,0-.89.21h0c-.46,0-1,.12-1.42.17h0l-.7.05,0,0,0,0-.24-.06h-.07l-.06-.07-1-1.52-.92-1.57h0l-.61-1.57-.57-1.6h0l-.26-1.59L228,495h0v-1.67h0l.23-1.6.3-1.6h0l.48-1.6h0l.61-1.59h0l.71-1.55Z"/>
    <g class="cls-8">
        <path class="cls-9"
              d="M271.62,532.74l.77-6.35a.86.86,0,0,0-.75-1l-5.08-.62a.86.86,0,0,0-1,.75h0l-.78,6.34-6.34-.77a.87.87,0,0,0-1,.75h0l-.62,5.08a.87.87,0,0,0,.75,1h0l6.35.77-.78,6.35a.86.86,0,0,0,.75,1l5.08.62a.87.87,0,0,0,1-.75h0l.77-6.34,6.35.77a.86.86,0,0,0,1-.75h0l.63-5.08a.88.88,0,0,0-.76-1Z"/>
    </g>
    <path class="cls-10"
          d="M294.87,513.4a.39.39,0,0,0-.44.34h0l-1.57,12.8A2.23,2.23,0,0,1,292,528a2.26,2.26,0,0,1-1.65.46l-9.59-1.18.55-4.44,1.57.19a.39.39,0,0,0,.44-.34.39.39,0,0,0-.34-.44l-2-.25a.41.41,0,0,0-.44.35l-.64,5.23a.41.41,0,0,0,.35.44h0l10,1.22a3,3,0,0,0,2.23-.62,3,3,0,0,0,1.15-2l1.56-12.8a.39.39,0,0,0-.34-.44Z"/>
    <path class="cls-10"
          d="M295.59,507.47l-5.23-.64a.39.39,0,0,0-.44.34h0L288,522.54a.38.38,0,0,1-.13.24.34.34,0,0,1-.27.07l-3.09-.37a.38.38,0,0,0-.43.34.39.39,0,0,0,.34.44l3.08.38a1.13,1.13,0,0,0,.85-.24,1.17,1.17,0,0,0,.44-.76l1.83-15,4.44.54-.48,4a.39.39,0,0,0,.34.44h0a.4.4,0,0,0,.44-.35l.53-4.36a.37.37,0,0,0-.08-.3A.36.36,0,0,0,295.59,507.47Z"/>
    <path class="cls-2"
          d="M245.05,392c-5.34-3.85-10.84-7.5-16-11.62-2.7-2.19-4.73-5.22-7.47-8.34,4.32-1.19,6.49.43,8.89,2.78,5.87,5.76,20.87,17,28.09,21.32a93.36,93.36,0,0,0,10.8,5.44c6.36,2.85,15.49,6.87,27.66,8.62a84.24,84.24,0,0,0,8.69.79l.17,1.51c-1.73.22-3.5.78-5.2.63a107.36,107.36,0,0,1-43.84-13.8S246.42,393,245.05,392Z"/>
    <line class="cls-11" x1="296.43" x2="313.32" y1="433.74" y2="420.54"/>
    <line class="cls-11" x1="305.43" x2="357.62" y1="445.26" y2="404.46"/>
    <line class="cls-11" x1="323.41" x2="375.6" y1="468.28" y2="427.48"/>
    <line class="cls-11" x1="340.8" x2="392.99" y1="490.54" y2="449.74"/>
    <path class="cls-12"
          d="M101.22,52.19c1.06-1.67,2.07-3.35,3.28-4.91.51-.66,2-.39,2.69.23.27.24.27.39.08.67a44.71,44.71,0,0,0-3.7,5.07A37.6,37.6,0,0,0,105.24,58c.12.32.08.47-.23.63-.86.39-2.38.19-2.65-.55A43.73,43.73,0,0,1,101,53.68,1.73,1.73,0,0,1,101.22,52.19Zm4.76,0c1-1.67,2.07-3.35,3.24-4.91.51-.66,2-.39,2.73.23.23.24.23.39,0,.67a51.9,51.9,0,0,0-3.71,5.07A47.41,47.41,0,0,0,110,58c.12.32.08.47-.23.63-.86.39-2.38.19-2.65-.55a43.73,43.73,0,0,1-1.37-4.44A1.63,1.63,0,0,1,106,52.19Z"/>
    <path class="cls-12"
          d="M124.27,40.3c.78,0,3.4,1,3.4,1.6a.28.28,0,0,1-.08.19,2.54,2.54,0,0,0-.47.67c-1.48,2.61-3.24,9.24-4.33,14.78a102.68,102.68,0,0,1,3.67-10.07A22.59,22.59,0,0,1,130,41.62a4.32,4.32,0,0,1,3.12-1.48c5.81,0,3.59,10.61-1.64,14a5.2,5.2,0,0,1,1.91,2.5c1.33,4.09-1.52,11-7.49,11a3.81,3.81,0,0,1-3-1.29c-.59-.66-.27-2,.23-1.37a2.21,2.21,0,0,0,1.84.86c4.4,0,7.21-10.68,4.09-10.68a3.89,3.89,0,0,1-2.1-.12c-.43-.23-.82-1-.71-1.25s1.13-.66,1.8-.66c4-2.26,7-11,3.86-11-1.17,0-2.77,2.14-4.33,5.73A109.72,109.72,0,0,0,122,65c-.08.35-.31.5-.74.5-.94,0-2.57-.85-2.57-1.71C118.7,57.15,122.64,40.3,124.27,40.3Z"/>
    <path class="cls-12"
          d="M142.6,50.4c2.42,0,4.45,1.68,4.45,3.43a14.39,14.39,0,0,1-1.13,5.46,15,15,0,0,0,4-5.61.55.55,0,0,1,1,.42,15.4,15.4,0,0,1-6.08,7.26c-1.45,2.38-3.51,4.09-5.82,4.09-2.8,0-4.48-2.8-4.48-4.83,0-3.86,2-8.93,5.26-10.65A2.85,2.85,0,0,1,142.6,50.4Zm-3.94,12.25a9.77,9.77,0,0,0,2.27-.51,17.27,17.27,0,0,0,2.49-8.31c0-2.57-1.4-2.73-2.81-1.21-2.22,2.46-3.31,8-2.34,10.1A1.51,1.51,0,0,1,138.66,62.65Z"/>
    <path class="cls-12"
          d="M150.13,50.4a.71.71,0,0,1,.55-.51A5,5,0,0,1,153.21,51c.39.32,0,.82-.19,1.21a52.3,52.3,0,0,0-1.91,6.2c1.4-3,3.47-6.7,5.34-8.26a1,1,0,0,1,.74-.28c.55,0,2.61.7,2.61,1.45a.94.94,0,0,1-.11.42c-.16.32-.28.63-.43,1A66.75,66.75,0,0,0,156.53,63c-.12.58.15.66.54.27,2.38-2.38,4.18-6.94,5.19-9.6a.54.54,0,0,1,1,.39c-1,2.62-4.4,11.35-7.76,11.35a2.1,2.1,0,0,1-2.26-2.06,57.49,57.49,0,0,1,2.61-11.2C153.25,55,150,62.37,149.78,65c0,.4-.23.43-.47.43-.93,0-2.46-1-2.46-1.87A46.26,46.26,0,0,1,150.13,50.4Z"/>
    <path class="cls-12"
          d="M163.16,49.89A5.18,5.18,0,0,1,165.69,51c.27.2.16.51,0,.78a7.69,7.69,0,0,0-.39,1c-.82,2.73-1.56,5.62-2.1,8l-.08.35a19.67,19.67,0,0,0,5.18-7.45.52.52,0,0,1,1,.36A21.39,21.39,0,0,1,162.69,63a69.72,69.72,0,0,1-2.11,7.49c-.93,2.57-2.22,4.33-5.26,4.33a3.11,3.11,0,0,1-2.54-1.25c-1.13-1.6-.51-3.79.74-5.15,1.41-1.64,3.63-2.69,5.31-3.86.89-3.71,1.71-7.61,2.77-11.27a24.12,24.12,0,0,1,1-2.85A.71.71,0,0,1,163.16,49.89Zm-6.28,21c.46-1.36,1-3,1.48-4.75-1.76,1.21-4.8,2.84-4.64,5.34,0,.66.43,1.44,1.21,1.44S156.41,72.32,156.88,70.91Zm9.71-29.13a6.9,6.9,0,0,1,2.3,1c.58.39.58.9.15,1.6-.7,1.17-2.8,4.33-3.74,4.37-2.22.08-.12-5,.35-5.93C166,42.17,166.35,41.78,166.59,41.78Z"/>
    <path class="cls-12"
          d="M173.26,50.4c2.41,0,4.44,1.68,4.44,3.43a14.39,14.39,0,0,1-1.13,5.46,14.86,14.86,0,0,0,4-5.61.55.55,0,0,1,1,.42,15.35,15.35,0,0,1-6.08,7.26c-1.44,2.38-3.51,4.09-5.81,4.09-2.81,0-4.49-2.8-4.49-4.83,0-3.86,2-8.93,5.27-10.65A2.85,2.85,0,0,1,173.26,50.4Zm-3.94,12.25a9.69,9.69,0,0,0,2.26-.51,17.28,17.28,0,0,0,2.5-8.31c0-2.57-1.41-2.73-2.81-1.21-2.23,2.46-3.32,8-2.34,10.1A1.36,1.36,0,0,1,169.32,62.65Z"/>
    <path class="cls-12"
          d="M184.61,61.32a1.5,1.5,0,0,0,.07-.27c-1.17,2.38-2.61,4.4-4.36,4.4a2.89,2.89,0,0,1-2.77-2.65c.07-.51.11-1,.19-1.48a47.7,47.7,0,0,1,3-10.92c.16-.31.36-.51.59-.51a5.08,5.08,0,0,1,2.5,1.13c.39.32,0,.82-.2,1.21A67.88,67.88,0,0,0,180.9,62c-.19.9.08,1.41.51,1.41,1.87,0,4.6-8.55,5.22-10.38.32-.93.63-1.83,1-2.65.16-.31.39-.51.58-.51a5,5,0,0,1,2.5,1.13c.43.32,0,.82-.16,1.21a66.61,66.61,0,0,0-3,10.81c-.12.58.23.58.59.27,2.33-2.38,4.13-6.94,5.14-9.6a.55.55,0,0,1,1,.39c-1,2.62-4.41,11.35-7.76,11.35a2.39,2.39,0,0,1-2.15-2.65C184.49,62.29,184.57,61.83,184.61,61.32Z"/>
    <path class="cls-12"
          d="M193.5,50.4c.12-.31.35-.51.54-.51A5.06,5.06,0,0,1,196.58,51c.39.32,0,.82-.2,1.21a56.3,56.3,0,0,0-1.91,6.2c1.41-3,3.47-6.7,5.35-8.26a1,1,0,0,1,.74-.28,4.81,4.81,0,0,1,2.42,1c.5.5.19.89-.24,1.21a6.72,6.72,0,0,0-2.07,4.44c0,1,.32,1.41.74,1.41,1.64,0,3.2-3.12,3.94-4.37a.55.55,0,0,1,.94.58c-.86,1.41-2.5,4.45-4.37,5.11-1.32.51-3.78-.7-4-2.42A9.22,9.22,0,0,1,199,52.7c.15-.35,0-.27-.12-.08-2.54,3-5.54,9.87-5.73,12.4,0,.4-.24.43-.47.43-.94,0-2.46-1-2.46-1.87A46.26,46.26,0,0,1,193.5,50.4Z"/>
    <path class="cls-12"
          d="M205.55,63.78c-.63,2.8-2.19,3.78-3.86,3.78-.2,0-.2-.16-.08-.27a4.28,4.28,0,0,0,1.29-1.56c.07-.16.07-.24-.08-.28-2.11-.39-.94-4.6.39-4.56a3.12,3.12,0,0,1,2.07.7C205.9,62.22,205.7,63,205.55,63.78Z"/>
    <path class="cls-12"
          d="M216.66,49.89A5.22,5.22,0,0,1,219.2,51c.27.2.15.51,0,.78a6.45,6.45,0,0,0-.39,1c-.82,2.73-1.56,5.62-2.11,8l-.08.35a19.58,19.58,0,0,0,5.19-7.45.52.52,0,0,1,1,.36,21.41,21.41,0,0,1-6.6,8.89,67.45,67.45,0,0,1-2.1,7.49c-.94,2.57-2.22,4.33-5.27,4.33a3.09,3.09,0,0,1-2.53-1.25c-1.13-1.6-.51-3.79.74-5.15,1.4-1.64,3.63-2.69,5.3-3.86.9-3.71,1.72-7.61,2.77-11.27a24.18,24.18,0,0,1,1-2.85A.7.7,0,0,1,216.66,49.89Zm-6.28,21c.47-1.36,1-3,1.49-4.75-1.76,1.21-4.8,2.84-4.65,5.34,0,.66.43,1.44,1.21,1.44S209.91,72.32,210.38,70.91Zm9.71-29.13a6.93,6.93,0,0,1,2.31,1c.58.39.58.9.15,1.6-.7,1.17-2.81,4.33-3.74,4.37-2.23.08-.12-5,.35-5.93C219.55,42.17,219.86,41.78,220.09,41.78Z"/>
    <path class="cls-12"
          d="M225.36,49.74c1.48,0,4.09,2,4.09,3.7,0,3.63-4.25,6.44-7.25,6.44-.08,2.06.55,3.74,2.34,3.74,3.16,0,6-6.4,7.33-9.94.24-.67,1.25-.24,1,.42-1.41,3.83-4.53,11.35-8.93,11.35C214.52,65.45,219.78,49.74,225.36,49.74ZM222.28,59c2.1,0,4.44-3.16,4.44-6.28,0-.82-.66-1.09-1.24-.62C223.92,53.25,222.59,56.33,222.28,59Z"/>
    <path class="cls-12"
          d="M237.88,50.4a.7.7,0,0,1,.54-.51A5.22,5.22,0,0,1,241,51c.39.32,0,.82-.2,1.21a56.3,56.3,0,0,0-1.91,6.2c1.41-3,3.47-6.7,5.35-8.26a1,1,0,0,1,.74-.28A4.56,4.56,0,0,1,247.39,51c.24.31.16.5,0,.81a58.57,58.57,0,0,0-2.1,6.67c1.4-3,3.47-6.7,5.34-8.26a1.07,1.07,0,0,1,.74-.28c.59,0,2.65.7,2.65,1.45a1.63,1.63,0,0,1-.11.42,4.06,4.06,0,0,0-.43,1A63.94,63.94,0,0,0,250.75,63c-.12.58.15.66.58.27,2.34-2.38,4.14-6.94,5.15-9.6a.54.54,0,0,1,1,.39c-1,2.62-4.4,11.35-7.76,11.35a2.13,2.13,0,0,1-2.26-2.06,57.49,57.49,0,0,1,2.61-11.2C247.51,55,244.2,62.37,244,65c0,.4-.27.43-.51.43-.93,0-2.45-1-2.45-1.87a47.84,47.84,0,0,1,2.57-11.35C241,55.08,237.72,62.37,237.53,65c0,.4-.24.43-.47.43-.94,0-2.46-1-2.46-1.87A46.26,46.26,0,0,1,237.88,50.4Z"/>
    <path class="cls-12"
          d="M262.76,42.44c-.63,2.81-2.18,3.79-3.86,3.79-.2,0-.2-.12-.08-.24a4,4,0,0,0,1.29-1.6c.07-.11.07-.23-.08-.23-2.11-.43-.94-4.6.39-4.56a2.76,2.76,0,0,1,2.07.7C263.11,40.92,262.91,41.66,262.76,42.44Z"/>
    <path class="cls-12"
          d="M267.36,61.32a.57.57,0,0,0,0-.27c-1.13,2.38-2.61,4.4-4.37,4.4A2.46,2.46,0,0,1,260.46,63C260,58.78,262.13,52,266,50c1.2-.7,2.61.23,4,.94a1.94,1.94,0,0,0,.2-.51c.15-.31.35-.51.58-.51a5.08,5.08,0,0,1,2.5,1.13c.43.32,0,.82-.2,1.21A67.71,67.71,0,0,0,270.33,63c-.12.58.23.58.54.27,2.38-2.38,4-6.94,5-9.6a.55.55,0,0,1,1,.39c-1,2.62-4.26,11.35-7.61,11.35a2.36,2.36,0,0,1-2.14-2.65C267.24,62.29,267.28,61.83,267.36,61.32Zm1.83-8.27a9.22,9.22,0,0,1,.39-1,1,1,0,0,0-.93-.51c-2.69,0-4.76,6.71-5,10.06,0,.43-.12,1.84.5,1.84C266,63.43,268.61,54.88,269.19,53.05Z"/>
    <path class="cls-12"
          d="M276.64,49.58c.78,0,3.39,1,3.39,1.64a.34.34,0,0,1-.07.19,3.69,3.69,0,0,0-.47.63,17.08,17.08,0,0,0-1.33,3.35,36.15,36.15,0,0,1,2.62-4.13,3.7,3.7,0,0,1,2.57-1.84c1.68,0,3.2,2.11,3.2,3.4a16.16,16.16,0,0,1-2.22,7A14,14,0,0,0,289,53.68a.55.55,0,0,1,1,.42,15.32,15.32,0,0,1-7,7.8c-1.52,2.07-3.31,3.55-4.68,3.55a3.34,3.34,0,0,1-2.22-.74,73.16,73.16,0,0,0-1.17,9.6c0,.31-.12.47-.47.47-.94,0-2.57-.9-2.57-1.72C271.85,66.43,275,49.58,276.64,49.58Zm-.08,12.48c-.07.31-.11.59-.19.9a2.29,2.29,0,0,1,1-.31,9.86,9.86,0,0,0,2.23-.55A19.61,19.61,0,0,0,283,52.7c0-.74-.23-1.17-.58-1.13a.89.89,0,0,0-.63.35A27.93,27.93,0,0,0,276.56,62.06Z"/>
    <path class="cls-12"
          d="M289.71,49.58c.78,0,3.39,1,3.39,1.64a.36.36,0,0,1-.08.19,4.3,4.3,0,0,0-.47.63,17.79,17.79,0,0,0-1.32,3.35,37.52,37.52,0,0,1,2.61-4.13,3.72,3.72,0,0,1,2.57-1.84c1.68,0,3.2,2.11,3.2,3.4a16,16,0,0,1-2.22,7A14,14,0,0,0,302,53.68a.55.55,0,0,1,1,.42,15.34,15.34,0,0,1-7,7.8c-1.53,2.07-3.32,3.55-4.69,3.55a3.34,3.34,0,0,1-2.22-.74,73.16,73.16,0,0,0-1.17,9.6c0,.31-.12.47-.47.47-.93,0-2.57-.9-2.57-1.72C284.91,66.43,288.07,49.58,289.71,49.58Zm-.08,12.48c-.08.31-.12.59-.2.9a2.37,2.37,0,0,1,1-.31,9.92,9.92,0,0,0,2.22-.55A19.62,19.62,0,0,0,296,52.7c0-.74-.24-1.17-.59-1.13a.85.85,0,0,0-.62.35A27.77,27.77,0,0,0,289.63,62.06Z"/>
    <path class="cls-12"
          d="M305.58,49.74c1.48,0,4.09,2,4.09,3.7,0,3.63-4.25,6.44-7.25,6.44-.08,2.06.55,3.74,2.34,3.74,3.16,0,6-6.4,7.33-9.94.24-.67,1.25-.24,1,.42-1.41,3.83-4.53,11.35-8.93,11.35C294.74,65.45,300,49.74,305.58,49.74ZM302.5,59c2.1,0,4.44-3.16,4.44-6.28,0-.82-.66-1.09-1.24-.62C304.14,53.25,302.81,56.33,302.5,59Z"/>
    <path class="cls-12"
          d="M314.78,40.3c.74,0,3.4,1,3.4,1.6a.28.28,0,0,1-.08.19,4.23,4.23,0,0,0-.51.67c-1.95,3.51-4.48,14.43-5.19,19.93-.07.85.08,1,.67.42,2.26-2.41,4-6.82,4.95-9.4a.54.54,0,0,1,1,.39c-1,2.62-4.4,11.35-7.76,11.35-2.14,0-2.1-2.3-2-3.82C309.91,54.1,313.26,40.3,314.78,40.3Z"/>
    <path class="cls-12"
          d="M320.56,40.3c.74,0,3.39,1,3.39,1.6a.28.28,0,0,1-.08.19,4.92,4.92,0,0,0-.51.67c-1.95,3.51-4.48,14.43-5.18,19.93-.08.85.07,1,.66.42,2.26-2.41,4-6.82,5-9.4a.55.55,0,0,1,1,.39c-1,2.62-4.41,11.35-7.76,11.35-2.15,0-2.11-2.3-2-3.82C315.68,54.1,319,40.3,320.56,40.3Z"/>
    <path class="cls-12"
          d="M327.38,49.74c1.48,0,4.1,2,4.1,3.7,0,3.63-4.26,6.44-7.26,6.44-.08,2.06.55,3.74,2.34,3.74,3.16,0,6-6.4,7.33-9.94.24-.67,1.25-.24,1,.42-1.41,3.83-4.53,11.35-8.93,11.35C316.54,65.45,321.8,49.74,327.38,49.74ZM324.3,59c2.11,0,4.44-3.16,4.44-6.28,0-.82-.66-1.09-1.24-.62C325.94,53.25,324.61,56.33,324.3,59Z"/>
    <path class="cls-12"
          d="M353.94,42.91c0,.35-.2.43-.51.43a86.37,86.37,0,0,0-9.44.51c1,.23,2.3.74,2.34,1.17,0,.08,0,.11-.07.19a5,5,0,0,0-.63,1.21,42.07,42.07,0,0,0-1.52,5.19,25.11,25.11,0,0,1,3.47,0c.35,0,.7,1.75.43,2-4,2.07-5.65,5.89-6.24,10.1,0,.55-.08,1-.08,1.33s-.11.46-.47.46c-.93,0-2.57-.85-2.57-1.71a53.27,53.27,0,0,1,1-8.39,14,14,0,0,0-2.57,1.48c-.19.12-.31.08-.43-.11a4.11,4.11,0,0,1-.31-2.46,1.08,1.08,0,0,1,.66-.94,13.67,13.67,0,0,1,3.28-1.13A37.48,37.48,0,0,1,342.59,44a49,49,0,0,0-5.77,1,14.76,14.76,0,0,0-2.42.74,1.81,1.81,0,0,0-.66.39c-.08,0-.16.08-.2,0-.58,0-1.25-2.69-1.17-3.43.16-1.1,7.25-2.11,14.2-2.5a33.82,33.82,0,0,1,6,0C353.39,40.38,354.06,42,353.94,42.91Zm-11.08,14a12.28,12.28,0,0,1,2.54-3.19,12.9,12.9,0,0,0-1.91.35C343.29,54.85,343.06,56.05,342.86,56.87Z"/>
    <path class="cls-12"
          d="M355.34,50.4c2.42,0,4.45,1.68,4.45,3.43a14.39,14.39,0,0,1-1.13,5.46,14.83,14.83,0,0,0,4-5.61.55.55,0,0,1,1,.42,15.42,15.42,0,0,1-6.09,7.26c-1.44,2.38-3.51,4.09-5.81,4.09-2.81,0-4.48-2.8-4.48-4.83,0-3.86,2-8.93,5.26-10.65A2.85,2.85,0,0,1,355.34,50.4ZM351.4,62.65a9.57,9.57,0,0,0,2.26-.51,17.17,17.17,0,0,0,2.5-8.31c0-2.57-1.4-2.73-2.81-1.21-2.22,2.46-3.31,8-2.34,10.1A1.51,1.51,0,0,1,351.4,62.65Z"/>
    <path class="cls-12"
          d="M362.87,50.4c.12-.31.35-.51.54-.51A5,5,0,0,1,366,51c.39.32,0,.82-.2,1.21a56.3,56.3,0,0,0-1.91,6.2c1.41-3,3.48-6.7,5.35-8.26a1,1,0,0,1,.74-.28,4.81,4.81,0,0,1,2.42,1c.5.5.19.89-.24,1.21A6.77,6.77,0,0,0,370,56.56c0,1,.32,1.41.75,1.41,1.63,0,3.19-3.12,3.94-4.37a.55.55,0,0,1,.93.58c-.86,1.41-2.5,4.45-4.37,5.11-1.32.51-3.78-.7-4-2.42a9.07,9.07,0,0,1,1.05-4.17c.15-.35,0-.27-.12-.08-2.53,3-5.54,9.87-5.73,12.4,0,.4-.24.43-.47.43-.94,0-2.46-1-2.46-1.87A46.26,46.26,0,0,1,362.87,50.4Z"/>
    <path class="cls-12"
          d="M374.92,50.4a.71.71,0,0,1,.55-.51A5,5,0,0,1,378,51c.39.32,0,.82-.19,1.21a54.23,54.23,0,0,0-1.92,6.2c1.41-3,3.48-6.7,5.35-8.26a1,1,0,0,1,.74-.28,4.81,4.81,0,0,1,2.42,1c.5.5.19.89-.24,1.21a6.71,6.71,0,0,0-2.06,4.44c0,1,.31,1.41.74,1.41,1.63,0,3.19-3.12,3.94-4.37a.55.55,0,0,1,.93.58c-.86,1.41-2.49,4.45-4.37,5.11-1.32.51-3.78-.7-4-2.42a9.07,9.07,0,0,1,1.05-4.17c.16-.35,0-.27-.12-.08-2.53,3-5.54,9.87-5.73,12.4,0,.4-.24.43-.47.43-.94,0-2.46-1-2.46-1.87A46.26,46.26,0,0,1,374.92,50.4Z"/>
    <path class="cls-12"
          d="M390.32,49.74c1.49,0,4.1,2,4.1,3.7,0,3.63-4.25,6.44-7.26,6.44-.07,2.06.55,3.74,2.35,3.74,3.15,0,6-6.4,7.33-9.94.23-.67,1.25-.24,1,.42-1.4,3.83-4.52,11.35-8.93,11.35C379.48,65.45,384.75,49.74,390.32,49.74ZM387.24,59c2.11,0,4.45-3.16,4.45-6.28,0-.82-.66-1.09-1.25-.62C388.88,53.25,387.56,56.33,387.24,59Z"/>
    <path class="cls-12"
          d="M393.6,62.06a3.31,3.31,0,0,1,2.69-1.44c.86-.12,1.76-.12,2.5-.28-.35-2.34-3.05-3.78-3.05-6.78a4.09,4.09,0,0,1,4.29-4c1.41,0,3.2,2,3.2,3.39,0,.82-.86,2.27-1.4,2.27-.86,0-2.07-.59-2.07-1a.21.21,0,0,1,.08-.16c.66,0,1.21-1.05,1.21-1.79,0-.47-.2-.86-.62-.86-1,0-1.41,1.68-1.41,2.38,0,2.07,2.11,3.55,2.93,5.31a9.17,9.17,0,0,0,4.17-5.43c.19-.66,1.21-.31,1,.36a10,10,0,0,1-4.83,6.12c.47,3.43-3.24,5.5-6.24,5.5C393.56,65.69,392.59,63.62,393.6,62.06Zm2.11-.27a1.18,1.18,0,1,0,.66,2.22,4.13,4.13,0,0,0,2.38-2.53C397.93,61.67,396.6,61.55,395.71,61.79Z"/>
    <path class="cls-12"
          d="M410.92,45.64a10.7,10.7,0,0,0-.39,1.17,6.41,6.41,0,0,1,2.92.47c.24.12.47,1.17.47,1.56,0,.23,0,.35-.16.43h-.11a12,12,0,0,0-3.75-.43,113.14,113.14,0,0,0-3.12,13.85c-.08.85.08,1,.63.42a33.61,33.61,0,0,0,5.61-9.4.55.55,0,0,1,1,.39c-1,2.62-5.23,11.35-8.39,11.35-2.18,0-2.11-2.3-2-3.82A91.42,91.42,0,0,1,406,49h-.86c-.74,0-2.45,0-2.84-1-.12-.31,0-.47.35-.47a29.64,29.64,0,0,0,3.78-.31,23.13,23.13,0,0,1,.9-3c.39-.94.78-1.44,1.13-1.44.78,0,3.16,1,3.16,1.59,0,.08,0,.12-.12.2s-.08.12-.12.16A2.35,2.35,0,0,0,410.92,45.64Z"/>
    <path class="cls-12"
          d="M414.78,63.78c-.63,2.8-2.19,3.78-3.87,3.78-.19,0-.19-.16-.07-.27a4.25,4.25,0,0,0,1.28-1.56c.08-.16.08-.24-.07-.28-2.11-.39-.94-4.6.39-4.56a3.11,3.11,0,0,1,2.06.7C415.13,62.22,414.93,63,414.78,63.78Z"/>
    <path class="cls-12"
          d="M127.43,77.91c0,.35-.19.43-.5.43a86.23,86.23,0,0,0-9.44.51c1,.23,2.3.74,2.34,1.17,0,.08,0,.11-.08.19a5,5,0,0,0-.62,1.21,40.45,40.45,0,0,0-1.53,5.19,25.26,25.26,0,0,1,3.48,0c.35,0,.7,1.75.42,2-4,2.07-5.65,5.89-6.24,10.1,0,.55-.07,1-.07,1.33s-.12.46-.47.46c-.94,0-2.58-.85-2.58-1.71a52.28,52.28,0,0,1,1-8.39,14.07,14.07,0,0,0-2.58,1.48c-.19.12-.31.08-.42-.11a4.19,4.19,0,0,1-.32-2.46,1.09,1.09,0,0,1,.67-.94,13.44,13.44,0,0,1,3.27-1.13A38.05,38.05,0,0,1,116.08,79a49.31,49.31,0,0,0-5.77,1,15.4,15.4,0,0,0-2.42.74,1.81,1.81,0,0,0-.66.39c-.08,0-.16.08-.2,0-.58,0-1.24-2.69-1.16-3.43.15-1.1,7.25-2.11,14.19-2.5a33.94,33.94,0,0,1,6,0C126.89,75.38,127.55,77,127.43,77.91Zm-11.07,14a12.24,12.24,0,0,1,2.53-3.19A13.15,13.15,0,0,0,117,89C116.78,89.85,116.55,91.05,116.36,91.87Z"/>
    <path class="cls-12"
          d="M128.84,85.4c2.41,0,4.44,1.68,4.44,3.43a14.39,14.39,0,0,1-1.13,5.46,14.86,14.86,0,0,0,4-5.61.55.55,0,0,1,1,.42,15.4,15.4,0,0,1-6.08,7.26c-1.44,2.38-3.51,4.09-5.81,4.09-2.81,0-4.49-2.8-4.49-4.83,0-3.86,2-8.93,5.27-10.65A2.86,2.86,0,0,1,128.84,85.4ZM124.9,97.65a9.8,9.8,0,0,0,2.26-.51,17.28,17.28,0,0,0,2.5-8.31c0-2.57-1.41-2.73-2.81-1.21-2.23,2.46-3.32,8-2.34,10.1A1.36,1.36,0,0,1,124.9,97.65Z"/>
    <path class="cls-12"
          d="M136.36,85.4a.71.71,0,0,1,.55-.51A5,5,0,0,1,139.44,86c.39.32,0,.82-.19,1.21a54.23,54.23,0,0,0-1.91,6.2c1.4-3,3.47-6.7,5.34-8.26a1,1,0,0,1,.74-.28,4.78,4.78,0,0,1,2.42,1c.51.5.19.89-.23,1.21a6.72,6.72,0,0,0-2.07,4.44c0,1,.31,1.41.74,1.41,1.64,0,3.2-3.12,3.94-4.37a.55.55,0,0,1,.94.58c-.86,1.41-2.5,4.45-4.37,5.11-1.33.51-3.79-.7-4-2.42a9.2,9.2,0,0,1,1.05-4.17c.16-.35,0-.27-.12-.08-2.53,3-5.53,9.87-5.73,12.4,0,.4-.23.43-.47.43-.93,0-2.45-1-2.45-1.87A46.25,46.25,0,0,1,136.36,85.4Z"/>
    <path class="cls-12"
          d="M148.41,85.4a.71.71,0,0,1,.55-.51A5,5,0,0,1,151.49,86c.39.32,0,.82-.19,1.21a56.3,56.3,0,0,0-1.91,6.2c1.4-3,3.47-6.7,5.34-8.26a1,1,0,0,1,.74-.28,4.78,4.78,0,0,1,2.42,1c.51.5.2.89-.23,1.21a6.72,6.72,0,0,0-2.07,4.44c0,1,.31,1.41.74,1.41,1.64,0,3.2-3.12,3.94-4.37a.55.55,0,0,1,.94.58c-.86,1.41-2.5,4.45-4.37,5.11-1.33.51-3.79-.7-4-2.42a9.2,9.2,0,0,1,1-4.17c.16-.35,0-.27-.11-.08-2.54,3-5.54,9.87-5.74,12.4,0,.4-.23.43-.47.43-.93,0-2.45-1-2.45-1.87A46.58,46.58,0,0,1,148.41,85.4Z"/>
    <path class="cls-12"
          d="M163.82,84.74c1.48,0,4.09,2,4.09,3.7,0,3.63-4.25,6.44-7.25,6.44-.08,2.06.55,3.74,2.34,3.74,3.16,0,6-6.4,7.33-9.94.24-.67,1.25-.24,1,.42-1.41,3.83-4.53,11.35-8.93,11.35C153,100.45,158.24,84.74,163.82,84.74ZM160.74,94c2.1,0,4.44-3.16,4.44-6.28,0-.82-.66-1.09-1.24-.62C162.38,88.25,161.05,91.33,160.74,94Z"/>
    <path class="cls-12"
          d="M167.09,97.06a3.31,3.31,0,0,1,2.69-1.44c.86-.12,1.76-.12,2.5-.28-.35-2.34-3-3.78-3-6.78a4.08,4.08,0,0,1,4.29-4c1.4,0,3.2,2,3.2,3.39,0,.82-.86,2.27-1.41,2.27-.85,0-2.06-.59-2.06-1a.24.24,0,0,1,.07-.16c.67,0,1.21-1,1.21-1.79,0-.47-.19-.86-.62-.86-1,0-1.4,1.68-1.4,2.38,0,2.07,2.1,3.55,2.92,5.31a9.14,9.14,0,0,0,4.17-5.43c.2-.66,1.21-.31,1,.36a10.05,10.05,0,0,1-4.84,6.12c.47,3.43-3.24,5.5-6.24,5.5C167.06,100.69,166.08,98.62,167.09,97.06Zm2.11-.27a1.18,1.18,0,1,0,.66,2.22,4.13,4.13,0,0,0,2.38-2.53C171.42,96.67,170.1,96.55,169.2,96.79Z"/>
    <path class="cls-12"
          d="M184.41,80.64c-.16.39-.27.78-.39,1.17a6.46,6.46,0,0,1,2.93.47c.23.12.46,1.17.46,1.56,0,.23,0,.35-.15.43h-.12a12,12,0,0,0-3.74-.43,109.53,109.53,0,0,0-3.12,13.85c-.08.85.07,1,.62.42a33.9,33.9,0,0,0,5.62-9.4.54.54,0,0,1,1,.39c-1,2.62-5.23,11.35-8.38,11.35-2.19,0-2.11-2.3-2-3.82A91.31,91.31,0,0,1,179.53,84h-.85c-.74,0-2.46,0-2.85-1-.12-.31,0-.47.35-.47a29.35,29.35,0,0,0,3.78-.31,24.85,24.85,0,0,1,.9-3c.39-.94.78-1.44,1.13-1.44.78,0,3.16,1,3.16,1.59,0,.08,0,.12-.12.2s-.07.12-.11.16A2.38,2.38,0,0,0,184.41,80.64Z"/>
    <path class="cls-12"
          d="M205.51,77.76a2.51,2.51,0,0,1,.9,1.75c0,2.77-4,6.12-4,8.89,0,.16,0,.28-.2.28-.93,0-2.53-1.06-2.53-2.27,0-3,3.9-4.44,3.9-6.9a2,2,0,0,0-2.07-2.11,2.75,2.75,0,0,0-1.09.28c-6.52,2.92-10.14,20.78-4.68,20.78,2.3,0,3.7-3.23,4.37-5.57a16,16,0,0,0-4.68,1.32c-.2.08-.28,0-.36-.15a2.94,2.94,0,0,1,.32-2.34.7.7,0,0,1,.54-.31,18.7,18.7,0,0,1,7.06-.28c.43.08.63.9.63,1.37s-.12.43-.36.39a5,5,0,0,0-.78-.08,2.26,2.26,0,0,1,.32.27c.35.35.27.55.11,1.09a78.13,78.13,0,0,0-2.3,10c0,.31-.15.43-.5.43-.94,0-2.34-1-2.3-1.87a35.14,35.14,0,0,1,.81-4.18,4.57,4.57,0,0,1-3.39,1.87c-11.39,0-5.54-25.23,5.66-25.23C203.13,75.22,204.85,76.12,205.51,77.76Z"/>
    <path class="cls-12"
          d="M210.93,96.32c0-.08,0-.16.08-.27-1.17,2.38-2.62,4.4-4.37,4.4a2.9,2.9,0,0,1-2.77-2.65c.08-.51.12-1,.2-1.48a46.71,46.71,0,0,1,3-10.92c.15-.31.35-.51.58-.51a5.08,5.08,0,0,1,2.5,1.13c.39.32,0,.82-.2,1.21A67.88,67.88,0,0,0,207.22,97c-.19.9.08,1.41.51,1.41,1.87,0,4.6-8.55,5.23-10.38.31-.93.62-1.83,1-2.65.16-.31.39-.51.59-.51A5,5,0,0,1,217,86c.43.32,0,.82-.15,1.21a65.7,65.7,0,0,0-3,10.81c-.11.58.24.58.59.27,2.34-2.38,4.13-6.94,5.15-9.6a.54.54,0,0,1,1,.39c-1,2.62-4.41,11.35-7.76,11.35a2.39,2.39,0,0,1-2.15-2.65C210.81,97.29,210.89,96.83,210.93,96.32Z"/>
    <path class="cls-12"
          d="M219.82,85.4a.71.71,0,0,1,.55-.51A5.14,5.14,0,0,1,222.9,86c.39.32,0,.82-.19,1.21a52.3,52.3,0,0,0-1.91,6.2c1.4-3,3.47-6.7,5.34-8.26a1,1,0,0,1,.74-.28A4.62,4.62,0,0,1,229.34,86c.23.31.15.5,0,.81a58.62,58.62,0,0,0-2.11,6.67c1.4-3,3.47-6.7,5.34-8.26a1.09,1.09,0,0,1,.74-.28c.59,0,2.66.7,2.66,1.45a1.66,1.66,0,0,1-.12.42,4.49,4.49,0,0,0-.43,1A63.94,63.94,0,0,0,232.69,98c-.12.58.16.66.59.27,2.34-2.38,4.13-6.94,5.14-9.6a.55.55,0,0,1,1,.39c-1,2.62-4.41,11.35-7.76,11.35a2.14,2.14,0,0,1-2.27-2.06A58.25,58.25,0,0,1,232,87.19C229.45,90,226.14,97.37,226,100c0,.4-.27.43-.5.43-.94,0-2.46-1-2.46-1.87a48.33,48.33,0,0,1,2.57-11.35c-2.61,2.85-5.93,10.14-6.12,12.79,0,.4-.23.43-.47.43-.93,0-2.46-1-2.46-1.87A46.6,46.6,0,0,1,219.82,85.4Z"/>
    <path class="cls-12"
          d="M239.2,84.58c.78,0,3.4,1,3.4,1.64a.36.36,0,0,1-.08.19,3.69,3.69,0,0,0-.47.63,17.08,17.08,0,0,0-1.33,3.35,36.15,36.15,0,0,1,2.62-4.13,3.72,3.72,0,0,1,2.57-1.84c1.68,0,3.2,2.11,3.2,3.4a16,16,0,0,1-2.22,7,14,14,0,0,0,4.64-6.12.55.55,0,0,1,1,.42,15.32,15.32,0,0,1-7,7.8c-1.52,2.07-3.31,3.55-4.68,3.55a3.34,3.34,0,0,1-2.22-.74,73.16,73.16,0,0,0-1.17,9.6c0,.31-.12.47-.47.47-.94,0-2.57-.9-2.57-1.72C234.41,101.43,237.57,84.58,239.2,84.58Zm-.07,12.48c-.08.31-.12.59-.2.9a2.29,2.29,0,0,1,1-.31,9.92,9.92,0,0,0,2.22-.55,19.51,19.51,0,0,0,3.35-9.4c0-.74-.23-1.17-.58-1.13a.89.89,0,0,0-.63.35A27.91,27.91,0,0,0,239.13,97.06Z"/>
    <path class="cls-12"
          d="M250.12,100.49c-2.49-.07-1.28-4.64.08-4.6,1.52,0,2.54.66,2.54,2C252.74,98.5,251.92,100.53,250.12,100.49Z"/>
    <path class="cls-12"
          d="M260.18,98a53.16,53.16,0,0,1,1.1-13.46c1-5.07,2.61-9.24,3.47-9.24.7,0,3.35,1,3.31,1.6,0,.19-.39.43-.58.86-2.5,5.1-3.59,12.44-3.82,18,0,1.29.11,2.07,1.17.47,4-5.89,8-14,8.85-20.67,0-.43-.08-.82,0-.93.31-.51,3.16.35,3.66.78.24.19.12,1.16-.27,2.61A63.4,63.4,0,0,1,266.89,98.7a4.18,4.18,0,0,1-3.08,1.75C262.13,100.45,260.26,98.78,260.18,98Z"/>
    <path class="cls-12"
          d="M281,85.4c2.42,0,4.45,1.68,4.45,3.43a14.39,14.39,0,0,1-1.13,5.46,14.94,14.94,0,0,0,4-5.61.55.55,0,0,1,1,.42,15.42,15.42,0,0,1-6.09,7.26c-1.44,2.38-3.51,4.09-5.81,4.09-2.81,0-4.48-2.8-4.48-4.83,0-3.86,2-8.93,5.26-10.65A2.85,2.85,0,0,1,281,85.4Zm-3.94,12.25a9.69,9.69,0,0,0,2.26-.51,17.17,17.17,0,0,0,2.5-8.31c0-2.57-1.41-2.73-2.81-1.21-2.22,2.46-3.31,8-2.34,10.1A1.43,1.43,0,0,1,277.07,97.65Z"/>
    <path class="cls-12"
          d="M292.36,96.32c0-.08,0-.16.08-.27-1.17,2.38-2.62,4.4-4.37,4.4a2.9,2.9,0,0,1-2.77-2.65c.08-.51.12-1,.19-1.48a47.21,47.21,0,0,1,3-10.92c.15-.31.35-.51.58-.51a5.08,5.08,0,0,1,2.5,1.13c.39.32,0,.82-.2,1.21A67.88,67.88,0,0,0,288.65,97c-.19.9.08,1.41.51,1.41,1.87,0,4.6-8.55,5.23-10.38.31-.93.62-1.83,1-2.65.16-.31.39-.51.59-.51A5,5,0,0,1,298.44,86c.43.32,0,.82-.15,1.21a65.7,65.7,0,0,0-3,10.81c-.11.58.24.58.59.27,2.34-2.38,4.13-6.94,5.15-9.6a.54.54,0,0,1,1,.39c-1,2.62-4.41,11.35-7.76,11.35a2.39,2.39,0,0,1-2.15-2.65C292.24,97.29,292.32,96.83,292.36,96.32Z"/>
    <path class="cls-12"
          d="M297.62,97.06a3.31,3.31,0,0,1,2.69-1.44c.86-.12,1.76-.12,2.5-.28-.35-2.34-3-3.78-3-6.78a4.08,4.08,0,0,1,4.29-4c1.4,0,3.2,2,3.2,3.39,0,.82-.86,2.27-1.41,2.27-.86,0-2.06-.59-2.06-1a.24.24,0,0,1,.07-.16c.67,0,1.21-1,1.21-1.79,0-.47-.19-.86-.62-.86-1,0-1.41,1.68-1.41,2.38,0,2.07,2.11,3.55,2.93,5.31a9.14,9.14,0,0,0,4.17-5.43c.2-.66,1.21-.31,1,.36a10.05,10.05,0,0,1-4.84,6.12c.47,3.43-3.24,5.5-6.24,5.5C297.58,100.69,296.61,98.62,297.62,97.06Zm2.11-.27a1.18,1.18,0,1,0,.66,2.22,4.13,4.13,0,0,0,2.38-2.53C302,96.67,300.63,96.55,299.73,96.79Z"/>
    <path class="cls-12"
          d="M324.69,87.7c-.62,1.44-1.48,3.24-2.46,5a1.75,1.75,0,0,0,1.13.16c1.25-.24,2.38-1.52,3.86-4.25a.53.53,0,1,1,.94.5c-1.64,3-3.08,4.53-4.6,4.8a2.62,2.62,0,0,1-1.84-.27,42.09,42.09,0,0,1-3.78,5.81,2.16,2.16,0,0,1-1.52,1c-1.17,0-3.35-1-3.35-2.22a50.92,50.92,0,0,1,1.56-12.79c.11-.35.31-.59.66-.59a5.58,5.58,0,0,1,2.5.78c.42.28,0,.86,0,1.21a71.25,71.25,0,0,0-1.91,11.24c0,.35.07.46.35.11a59.59,59.59,0,0,0,4.17-7.6,9.83,9.83,0,0,1,1.91-5.27c.35-.54.86-.47,1.33-.19A2.23,2.23,0,0,1,324.69,87.7Z"/>
    <path class="cls-12"
          d="M332.14,85.4c2.42,0,4.44,1.68,4.44,3.43a14.39,14.39,0,0,1-1.13,5.46,14.86,14.86,0,0,0,4-5.61.55.55,0,0,1,1,.42,15.35,15.35,0,0,1-6.08,7.26c-1.44,2.38-3.51,4.09-5.81,4.09-2.81,0-4.49-2.8-4.49-4.83,0-3.86,2-8.93,5.27-10.65A2.85,2.85,0,0,1,332.14,85.4ZM328.2,97.65a9.69,9.69,0,0,0,2.26-.51,17.17,17.17,0,0,0,2.5-8.31c0-2.57-1.41-2.73-2.81-1.21-2.22,2.46-3.32,8-2.34,10.1A1.43,1.43,0,0,1,328.2,97.65Z"/>
    <path class="cls-12"
          d="M343.49,96.32c0-.08,0-.16.08-.27-1.17,2.38-2.62,4.4-4.37,4.4a2.9,2.9,0,0,1-2.77-2.65c.08-.51.12-1,.19-1.48a47.21,47.21,0,0,1,3-10.92c.15-.31.35-.51.58-.51a5.08,5.08,0,0,1,2.5,1.13c.39.32,0,.82-.2,1.21A67.88,67.88,0,0,0,339.78,97c-.19.9.08,1.41.51,1.41,1.87,0,4.6-8.55,5.23-10.38.31-.93.62-1.83,1-2.65.16-.31.39-.51.59-.51A5,5,0,0,1,349.57,86c.43.32,0,.82-.15,1.21a65.7,65.7,0,0,0-3,10.81c-.12.58.24.58.59.27,2.34-2.38,4.13-6.94,5.15-9.6a.54.54,0,0,1,1,.39c-1,2.62-4.41,11.35-7.76,11.35a2.39,2.39,0,0,1-2.15-2.65C343.37,97.29,343.45,96.83,343.49,96.32Z"/>
    <path class="cls-12"
          d="M354.68,75.3c.74,0,3.39,1,3.39,1.6a.33.33,0,0,1-.07.19,3.7,3.7,0,0,0-.51.67c-1.95,3.51-4.49,14.43-5.19,19.93-.08.85.08,1,.66.42,2.27-2.41,4-6.82,5-9.4a.54.54,0,0,1,1,.39c-1,2.62-4.41,11.35-7.76,11.35-2.14,0-2.11-2.3-2-3.82C349.81,89.1,353.16,75.3,354.68,75.3Z"/>
    <path class="cls-12"
          d="M361.5,84.74c1.49,0,4.1,2,4.1,3.7,0,3.63-4.25,6.44-7.25,6.44-.08,2.06.54,3.74,2.34,3.74,3.16,0,6-6.4,7.33-9.94.23-.67,1.25-.24,1,.42-1.4,3.83-4.52,11.35-8.93,11.35C350.66,100.45,355.93,84.74,361.5,84.74ZM358.42,94c2.11,0,4.45-3.16,4.45-6.28,0-.82-.66-1.09-1.25-.62C360.06,88.25,358.74,91.33,358.42,94Z"/>
    <path class="cls-12"
          d="M366.93,98.11c-2.19,0-1.95-2.1.07-2.1a5,5,0,0,1,.78.08c2.81-1.45,5.39-5.39,5.39-8.51a17.43,17.43,0,0,0-4.92,2.81c-.27.2-.62.74-1.21.27a5.14,5.14,0,0,1-1-2.14c-.16-.55,0-.7.55-1,2.37-1.2,5.22-2.49,8-2.49.74,0,1.72,2.07,1.72,3.08-.24,3.82-3.24,7.45-6.05,8.93a5,5,0,0,1,1.33,1.48,21.5,21.5,0,0,0,7.95-9.83.52.52,0,0,1,1,.36c-1.72,4.56-4.68,7.64-8.42,10.41,2.1,4.17,0,10.3-5.39,10.3a3.09,3.09,0,0,1-2.53-1.25c-1.13-1.6-.47-3.79.7-5.15A21,21,0,0,1,369.5,100a4.58,4.58,0,0,0-1-2.11A5.62,5.62,0,0,1,366.93,98.11Zm.27,9.6c1.87-.94,2.61-4.72,2.5-6.55-1.76,1.21-4.53,2.69-4.61,5.07A1.43,1.43,0,0,0,367.2,107.71Z"/>
    <path class="cls-12"
          d="M389.16,96.32a1.5,1.5,0,0,0,.07-.27c-1.17,2.38-2.61,4.4-4.36,4.4a2.89,2.89,0,0,1-2.77-2.65c.07-.51.11-1,.19-1.48a47.7,47.7,0,0,1,3-10.92c.16-.31.36-.51.59-.51a5.08,5.08,0,0,1,2.5,1.13c.39.32,0,.82-.2,1.21A67.88,67.88,0,0,0,385.45,97c-.19.9.08,1.41.51,1.41,1.87,0,4.6-8.55,5.22-10.38.32-.93.63-1.83,1-2.65.16-.31.39-.51.58-.51a5,5,0,0,1,2.5,1.13c.43.32,0,.82-.16,1.21a66.61,66.61,0,0,0-3,10.81c-.12.58.23.58.58.27,2.34-2.38,4.14-6.94,5.15-9.6a.55.55,0,0,1,1,.39c-1,2.62-4.41,11.35-7.76,11.35A2.39,2.39,0,0,1,389,97.8C389,97.29,389.12,96.83,389.16,96.32Z"/>
    <path class="cls-12"
          d="M398.05,85.4a.7.7,0,0,1,.54-.51A5.06,5.06,0,0,1,401.13,86c.39.32,0,.82-.2,1.21a56.3,56.3,0,0,0-1.91,6.2c1.41-3,3.47-6.7,5.35-8.26a1,1,0,0,1,.74-.28c.54,0,2.61.7,2.61,1.45a.84.84,0,0,1-.12.42c-.15.32-.27.63-.43,1A67.91,67.91,0,0,0,404.44,98c-.11.58.16.66.55.27,2.38-2.38,4.17-6.94,5.19-9.6a.54.54,0,0,1,1,.39c-1,2.62-4.41,11.35-7.76,11.35a2.1,2.1,0,0,1-2.26-2.06,57.49,57.49,0,0,1,2.61-11.2C401.17,90,397.89,97.37,397.7,100c0,.4-.24.43-.47.43-.94,0-2.46-1-2.46-1.87A46.26,46.26,0,0,1,398.05,85.4Z"/>
    <path class="cls-12"
          d="M94,119.74c1.83,0,3.74,1.67,3.74,3.35,0,2.11-1.13,4.41-2,4.41a3.81,3.81,0,0,1-2.15-1.21c-.27-.31-.12-.7.31-.94a4.45,4.45,0,0,0,1.8-2.22c.39-1,.19-1.56-.32-1.56-3.27,0-7,12.05-2.18,12.05,3.47,0,5.89-6.43,7.33-9.94a.53.53,0,0,1,1,.42c-1.48,3.67-4.25,11.35-8.93,11.35C83.17,135.45,88.7,119.74,94,119.74Z"/>
    <path class="cls-12"
          d="M106.37,122.19a27,27,0,0,0-5.93,11.35,10.19,10.19,0,0,0-.15,1.45c0,.31-.12.46-.47.46-.94,0-2.57-.85-2.57-1.71,0-6.87,3.94-23.44,5.57-23.44.78,0,3.4,1,3.4,1.6a.28.28,0,0,1-.08.19,2.54,2.54,0,0,0-.47.67c-1.52,2.69-3.31,9.71-4.41,15.28a24,24,0,0,1,5.66-7.87,1.07,1.07,0,0,1,.74-.28c.58,0,2.65.7,2.65,1.45a1.66,1.66,0,0,1-.12.42,7.81,7.81,0,0,0-.42,1A67.22,67.22,0,0,0,107,133c-.08.58.15.66.58.27,2.34-2.38,4.14-6.94,5.19-9.6a.52.52,0,1,1,1,.39c-1,2.62-4.4,11.35-7.76,11.35a2.33,2.33,0,0,1-2.1-2.65A46.56,46.56,0,0,1,106.37,122.19Z"/>
    <path class="cls-12"
          d="M117.72,120.4c2.42,0,4.45,1.68,4.45,3.43a14.39,14.39,0,0,1-1.13,5.46,14.83,14.83,0,0,0,4-5.61.55.55,0,0,1,1,.42,15.42,15.42,0,0,1-6.09,7.26c-1.44,2.38-3.51,4.09-5.81,4.09-2.81,0-4.48-2.8-4.48-4.83,0-3.86,2-8.93,5.26-10.65A2.85,2.85,0,0,1,117.72,120.4Zm-3.94,12.25a9.57,9.57,0,0,0,2.26-.51,17.17,17.17,0,0,0,2.5-8.31c0-2.57-1.4-2.73-2.81-1.21-2.22,2.46-3.31,8-2.34,10.1A1.51,1.51,0,0,1,113.78,132.65Z"/>
    <path class="cls-12"
          d="M128.52,119.74c1.84,0,3.75,1.67,3.75,3.35,0,2.11-1.13,4.41-2,4.41a3.84,3.84,0,0,1-2.15-1.21c-.27-.31-.11-.7.32-.94a4.38,4.38,0,0,0,1.79-2.22c.39-1,.2-1.56-.31-1.56-3.28,0-7,12.05-2.19,12.05,3.48,0,5.89-6.43,7.34-9.94a.53.53,0,0,1,1,.42c-1.48,3.67-4.25,11.35-8.93,11.35C117.68,135.45,123.22,119.74,128.52,119.74Z"/>
    <path class="cls-12"
          d="M139.79,120.4c2.42,0,4.45,1.68,4.45,3.43a14.39,14.39,0,0,1-1.13,5.46,14.86,14.86,0,0,0,4-5.61.55.55,0,0,1,1,.42,15.4,15.4,0,0,1-6.08,7.26c-1.45,2.38-3.51,4.09-5.81,4.09-2.81,0-4.49-2.8-4.49-4.83,0-3.86,2-8.93,5.27-10.65A2.84,2.84,0,0,1,139.79,120.4Zm-3.93,12.25a9.8,9.8,0,0,0,2.26-.51,17.27,17.27,0,0,0,2.49-8.31c0-2.57-1.4-2.73-2.8-1.21-2.23,2.46-3.32,8-2.34,10.1A1.36,1.36,0,0,1,135.86,132.65Z"/>
    <path class="cls-12"
          d="M149.62,110.3c.74,0,3.4,1,3.4,1.6a.28.28,0,0,1-.08.19,4.23,4.23,0,0,0-.51.67c-2,3.51-4.48,14.43-5.19,19.93-.07.85.08,1,.67.42,2.26-2.41,4-6.82,5-9.4a.54.54,0,0,1,1,.39c-1,2.62-4.4,11.35-7.76,11.35-2.14,0-2.1-2.3-2-3.82C144.75,124.1,148.1,110.3,149.62,110.3Z"/>
    <path class="cls-12"
          d="M156.8,131.32a.57.57,0,0,0,0-.27c-1.13,2.38-2.62,4.4-4.37,4.4A2.46,2.46,0,0,1,149.9,133c-.51-4.26,1.67-11,5.53-13.07,1.21-.7,2.62.23,4,.94a1.94,1.94,0,0,0,.2-.51c.15-.31.35-.51.58-.51a5.08,5.08,0,0,1,2.5,1.13c.43.32,0,.82-.2,1.21A67.81,67.81,0,0,0,159.76,133c-.11.58.24.58.55.27,2.38-2.38,4-6.94,5-9.6a.54.54,0,0,1,1,.39c-1,2.62-4.25,11.35-7.6,11.35a2.37,2.37,0,0,1-2.15-2.65C156.68,132.29,156.72,131.83,156.8,131.32Zm1.83-8.27a9.22,9.22,0,0,1,.39-1,1.05,1.05,0,0,0-.93-.51c-2.7,0-4.76,6.71-5,10.06,0,.43-.11,1.84.51,1.84C155.47,133.43,158.05,124.88,158.63,123.05Z"/>
    <path class="cls-12"
          d="M170.14,115.64a10.7,10.7,0,0,0-.39,1.17,6.41,6.41,0,0,1,2.92.47c.24.12.47,1.17.47,1.56,0,.23,0,.35-.16.43h-.11a12,12,0,0,0-3.75-.43A113.14,113.14,0,0,0,166,132.69c-.08.85.08,1,.63.42a33.61,33.61,0,0,0,5.61-9.4.55.55,0,0,1,1,.39c-1,2.62-5.23,11.35-8.39,11.35-2.18,0-2.11-2.3-2-3.82A91.42,91.42,0,0,1,165.26,119h-.86c-.74,0-2.45,0-2.84-1-.12-.31,0-.47.35-.47a29.64,29.64,0,0,0,3.78-.31,23.13,23.13,0,0,1,.9-3c.39-.94.78-1.44,1.13-1.44.78,0,3.16,1,3.16,1.59,0,.08,0,.12-.12.2s-.08.12-.12.16A2.35,2.35,0,0,0,170.14,115.64Z"/>
    <path class="cls-12"
          d="M178.4,135.49c-2.49-.07-1.28-4.64.08-4.6,1.52,0,2.54.66,2.54,2C181,133.5,180.2,135.53,178.4,135.49Zm7.06-20.28c0-1.56-.78-2.49-2-2.49-1.91,0-3.43,3-3.43,5,0,.19-.16.23-.27.23-.67,0-2.27-.7-2.27-1.6,0-3.39,3.2-6,6.56-6,3,0,5.34,2,5.34,5,0,5.93-7.45,7.29-8.07,13.73,0,.35-.16.43-.51.43-.9,0-2.69-1-2.54-2.19C179.22,121.61,185.46,120.05,185.46,115.21Z"/>
    <path class="cls-12"
          d="M202.78,124.92a46,46,0,0,0,1.36-9.47c0-1.88-.23-3.4-.94-3.4-.23,0-.5.16-.81.55-2,2.38-2.5,6-2.77,8.93,0,.31,0,.55,0,.82,0,.08,0,.16,0,.19-.16.24-.59.32-1.13.32-1.45,0-2.38-.51-2.11-2a25.24,25.24,0,0,1,3.74-9.13,4,4,0,0,1,3.28-1.44c1.95,0,4.6,1.6,4.6,3,0,7.37-3,25.31-11.46,25.31-2.19,0-4.3-1.4-4.3-3.66C192.32,130.42,198.17,126.76,202.78,124.92Zm-2.46,7.37a40.22,40.22,0,0,0,2.07-5.88c-3.94,1.79-8.55,5-8.58,8.65a1.72,1.72,0,0,0,1.79,1.72C197.94,136.78,199.58,134,200.32,132.29Z"/>
    <path class="cls-12"
          d="M213.46,119.74c1.49,0,4.1,2,4.1,3.7,0,3.63-4.25,6.44-7.26,6.44-.07,2.06.55,3.74,2.34,3.74,3.16,0,6-6.4,7.34-9.94.23-.67,1.24-.24,1,.42-1.4,3.83-4.52,11.35-8.93,11.35C202.62,135.45,207.89,119.74,213.46,119.74ZM210.38,129c2.11,0,4.45-3.16,4.45-6.28,0-.82-.67-1.09-1.25-.62C212,123.25,210.69,126.33,210.38,129Z"/>
    <path class="cls-12"
          d="M229.26,119.74c1.83,0,3.74,1.67,3.74,3.35,0,2.11-1.13,4.41-2,4.41a3.79,3.79,0,0,1-2.14-1.21c-.27-.31-.12-.7.31-.94a4.38,4.38,0,0,0,1.79-2.22c.39-1,.2-1.56-.31-1.56-3.27,0-7,12.05-2.18,12.05,3.47,0,5.89-6.43,7.33-9.94a.53.53,0,0,1,1,.42c-1.49,3.67-4.26,11.35-8.94,11.35C218.41,135.45,224,119.74,229.26,119.74Z"/>
    <path class="cls-12"
          d="M235.77,120.4a.71.71,0,0,1,.55-.51,5,5,0,0,1,2.53,1.13c.39.32,0,.82-.19,1.21a54.23,54.23,0,0,0-1.92,6.2c1.41-3,3.48-6.7,5.35-8.26a1,1,0,0,1,.74-.28,4.81,4.81,0,0,1,2.42,1c.5.5.19.89-.24,1.21a6.71,6.71,0,0,0-2.06,4.44c0,1,.31,1.41.74,1.41,1.64,0,3.2-3.12,3.94-4.37a.55.55,0,0,1,.93.58c-.86,1.41-2.49,4.45-4.37,5.11-1.32.51-3.78-.7-4-2.42a9.07,9.07,0,0,1,1.05-4.17c.16-.35,0-.27-.12-.08-2.53,3-5.54,9.87-5.73,12.4,0,.4-.23.43-.47.43-.93,0-2.46-1-2.46-1.87A46.26,46.26,0,0,1,235.77,120.4Z"/>
    <path class="cls-12"
          d="M252.58,120.4c2.42,0,4.45,1.68,4.45,3.43a14.22,14.22,0,0,1-1.14,5.46,14.86,14.86,0,0,0,4-5.61.55.55,0,0,1,1,.42,15.42,15.42,0,0,1-6.09,7.26c-1.44,2.38-3.51,4.09-5.81,4.09-2.81,0-4.49-2.8-4.49-4.83,0-3.86,2-8.93,5.27-10.65A2.85,2.85,0,0,1,252.58,120.4Zm-3.94,12.25a9.69,9.69,0,0,0,2.26-.51,17.17,17.17,0,0,0,2.5-8.31c0-2.57-1.41-2.73-2.81-1.21-2.22,2.46-3.31,8-2.34,10.1A1.43,1.43,0,0,1,248.64,132.65Z"/>
    <path class="cls-12"
          d="M257.06,131.32a49.28,49.28,0,0,1,3-10.92c.15-.31.35-.51.58-.51a5.08,5.08,0,0,1,2.5,1.13c.43.32,0,.82-.16,1.21A65.6,65.6,0,0,0,260,133c-.12.58.23.58.54.27,2.38-2.38,4.18-6.94,5.19-9.6a.55.55,0,0,1,1,.39c-1,2.62-4.41,11.35-7.77,11.35a2.36,2.36,0,0,1-2.14-2.65C257,132.29,257,131.83,257.06,131.32Zm7-19.54a7.4,7.4,0,0,1,2.31,1c.58.39.58.9.15,1.6-.7,1.17-2.81,4.33-3.74,4.37-2.23.08-.16-5,.35-5.93C263.5,112.17,263.81,111.78,264.08,111.78Z"/>
    <path class="cls-12"
          d="M262.37,132.06a3.29,3.29,0,0,1,2.69-1.44c.86-.12,1.75-.12,2.49-.28-.35-2.34-3-3.78-3-6.78a4.09,4.09,0,0,1,4.29-4c1.41,0,3.2,2,3.2,3.39,0,.82-.86,2.27-1.4,2.27-.86,0-2.07-.59-2.07-1a.21.21,0,0,1,.08-.16c.66,0,1.21-1,1.21-1.79,0-.47-.2-.86-.63-.86-1,0-1.4,1.68-1.4,2.38,0,2.07,2.1,3.55,2.92,5.31a9.15,9.15,0,0,0,4.18-5.43c.19-.66,1.21-.31,1,.36a10,10,0,0,1-4.83,6.12c.46,3.43-3.24,5.5-6.24,5.5C262.33,135.69,261.35,133.62,262.37,132.06Zm2.1-.27a1.18,1.18,0,1,0,.67,2.22,4.16,4.16,0,0,0,2.38-2.53C266.7,131.67,265.37,131.55,264.47,131.79Z"/>
    <path class="cls-12"
          d="M283.7,132.45c-1,1.68-2.26,3-3.63,3A2.46,2.46,0,0,1,277.5,133c-.51-4.26,1.68-11,5.54-13.07a1.61,1.61,0,0,1,.86-.23,7.37,7.37,0,0,1,3.08,1.13c.31-.63.58-1,.85-1,.75,0,3.4,1,3.4,1.64a.3.3,0,0,1-.08.16,7.33,7.33,0,0,0-.51.66c-1.13,2.07-2.45,6.63-3.51,11.15,2.93-2.73,4.41-5.5,5.81-9.79.2-.66,1.25-.31,1,.36-1.52,4.64-3.32,7.83-6.83,10.88,0,2.84-.11,6.55-1.21,9.24a1.19,1.19,0,0,1-1.09.59c-1,0-2.57-.59-2.57-1.45A61,61,0,0,1,283.7,132.45Zm2-10.92c-2.69,0-4.76,6.71-5,10.06,0,.43-.12,1.84.5,1.84,1.17,0,2.62-3.28,3.67-6.21a47.6,47.6,0,0,1,1.64-5.3A1,1,0,0,0,285.69,121.53Z"/>
    <path class="cls-12"
          d="M297.16,131.32a1.5,1.5,0,0,0,.07-.27c-1.17,2.38-2.61,4.4-4.36,4.4a2.89,2.89,0,0,1-2.77-2.65c.07-.51.11-1,.19-1.48a47.7,47.7,0,0,1,3-10.92c.16-.31.36-.51.59-.51a5.08,5.08,0,0,1,2.5,1.13c.39.32,0,.82-.2,1.21a67.88,67.88,0,0,0-2.73,9.79c-.19.9.08,1.41.51,1.41,1.87,0,4.6-8.55,5.22-10.38.32-.93.63-1.83,1-2.65.16-.31.39-.51.58-.51a5,5,0,0,1,2.5,1.13c.43.32,0,.82-.16,1.21a66.61,66.61,0,0,0-3,10.81c-.12.58.23.58.58.27,2.34-2.38,4.14-6.94,5.15-9.6a.55.55,0,0,1,1,.39c-1,2.62-4.41,11.35-7.76,11.35A2.39,2.39,0,0,1,297,132.8C297,132.29,297.12,131.83,297.16,131.32Z"/>
    <path class="cls-12"
          d="M309.4,119.74c1.48,0,4.1,2,4.1,3.7,0,3.63-4.25,6.44-7.26,6.44-.08,2.06.55,3.74,2.34,3.74,3.16,0,6-6.4,7.33-9.94.24-.67,1.25-.24,1,.42-1.4,3.83-4.52,11.35-8.93,11.35C298.56,135.45,303.82,119.74,309.4,119.74ZM306.32,129c2.11,0,4.45-3.16,4.45-6.28,0-.82-.67-1.09-1.25-.62C308,123.25,306.63,126.33,306.32,129Z"/>
    <path class="cls-12"
          d="M322.62,119.89a5.22,5.22,0,0,1,2.54,1.13c.27.2.15.51,0,.78a6.45,6.45,0,0,0-.39,1c-.82,2.73-1.56,5.62-2.11,8l-.08.35a19.58,19.58,0,0,0,5.19-7.45c.23-.66,1.25-.27,1,.36a21.31,21.31,0,0,1-6.59,8.89,67.45,67.45,0,0,1-2.1,7.49c-.94,2.57-2.23,4.33-5.27,4.33a3.09,3.09,0,0,1-2.53-1.25c-1.13-1.6-.51-3.79.74-5.15,1.4-1.64,3.63-2.69,5.3-3.86.9-3.71,1.72-7.61,2.77-11.27a24.18,24.18,0,0,1,1-2.85A.7.7,0,0,1,322.62,119.89Zm-6.28,21c.47-1.36,1-3,1.48-4.75-1.75,1.21-4.79,2.84-4.64,5.34,0,.66.43,1.44,1.21,1.44S315.87,142.32,316.34,140.91Zm9.71-29.13a6.9,6.9,0,0,1,2.3,1c.59.39.59.9.16,1.6-.7,1.17-2.81,4.33-3.74,4.37-2.23.08-.12-5,.35-5.93C325.51,112.17,325.82,111.78,326.05,111.78Z"/>
    <path class="cls-12"
          d="M331.32,119.74c1.48,0,4.09,2,4.09,3.7,0,3.63-4.25,6.44-7.25,6.44-.08,2.06.55,3.74,2.34,3.74,3.16,0,6-6.4,7.33-9.94.24-.67,1.25-.24,1,.42-1.41,3.83-4.53,11.35-8.93,11.35C320.48,135.45,325.74,119.74,331.32,119.74ZM328.24,129c2.1,0,4.44-3.16,4.44-6.28,0-.82-.66-1.09-1.24-.62C329.88,123.25,328.55,126.33,328.24,129Z"/>
    <path class="cls-12"
          d="M344.38,119.58c.78,0,3.4,1,3.4,1.64a.36.36,0,0,1-.08.19,3.69,3.69,0,0,0-.47.63,17.08,17.08,0,0,0-1.33,3.35,36.15,36.15,0,0,1,2.62-4.13,3.7,3.7,0,0,1,2.57-1.84c1.68,0,3.2,2.11,3.2,3.4a16,16,0,0,1-2.22,7,14,14,0,0,0,4.64-6.12.55.55,0,0,1,1,.42,15.32,15.32,0,0,1-7,7.8c-1.52,2.07-3.31,3.55-4.68,3.55a3.34,3.34,0,0,1-2.22-.74,73.16,73.16,0,0,0-1.17,9.6c0,.31-.12.47-.47.47-.94,0-2.57-.9-2.57-1.72C339.59,136.43,342.74,119.58,344.38,119.58Zm-.08,12.48c-.07.31-.11.59-.19.9a2.29,2.29,0,0,1,1-.31,9.86,9.86,0,0,0,2.23-.55,19.61,19.61,0,0,0,3.35-9.4c0-.74-.23-1.17-.58-1.13a.89.89,0,0,0-.63.35A27.93,27.93,0,0,0,344.3,132.06Z"/>
    <path class="cls-12"
          d="M361.66,120.4c2.42,0,4.45,1.68,4.45,3.43a14.22,14.22,0,0,1-1.14,5.46,14.86,14.86,0,0,0,4-5.61.55.55,0,0,1,1,.42,15.42,15.42,0,0,1-6.09,7.26c-1.44,2.38-3.51,4.09-5.81,4.09-2.81,0-4.49-2.8-4.49-4.83,0-3.86,2-8.93,5.27-10.65A2.85,2.85,0,0,1,361.66,120.4Zm-3.94,12.25a9.69,9.69,0,0,0,2.26-.51,17.17,17.17,0,0,0,2.5-8.31c0-2.57-1.41-2.73-2.81-1.21-2.22,2.46-3.31,8-2.34,10.1A1.43,1.43,0,0,1,357.72,132.65Z"/>
    <path class="cls-12"
          d="M373,131.32c0-.08,0-.16.08-.27-1.17,2.38-2.62,4.4-4.37,4.4A2.9,2.9,0,0,1,366,132.8c.08-.51.12-1,.19-1.48a47.21,47.21,0,0,1,3-10.92c.15-.31.35-.51.58-.51a5.08,5.08,0,0,1,2.5,1.13c.39.32,0,.82-.2,1.21A67.88,67.88,0,0,0,369.3,132c-.19.9.08,1.41.51,1.41,1.87,0,4.6-8.55,5.23-10.38.31-.93.62-1.83,1-2.65.16-.31.39-.51.59-.51a5,5,0,0,1,2.49,1.13c.43.32,0,.82-.15,1.21A65.7,65.7,0,0,0,376,133c-.11.58.24.58.59.27,2.34-2.38,4.13-6.94,5.15-9.6a.54.54,0,0,1,1,.39c-1,2.62-4.41,11.35-7.76,11.35a2.39,2.39,0,0,1-2.15-2.65C372.89,132.29,373,131.83,373,131.32Z"/>
    <path class="cls-12"
          d="M381.9,120.4a.71.71,0,0,1,.55-.51A5,5,0,0,1,385,121c.39.32,0,.82-.19,1.21a54.23,54.23,0,0,0-1.92,6.2c1.41-3,3.48-6.7,5.35-8.26a1,1,0,0,1,.74-.28,4.81,4.81,0,0,1,2.42,1c.5.5.19.89-.24,1.21a6.71,6.71,0,0,0-2.06,4.44c0,1,.31,1.41.74,1.41,1.63,0,3.2-3.12,3.94-4.37a.55.55,0,0,1,.93.58c-.86,1.41-2.49,4.45-4.37,5.11-1.32.51-3.78-.7-4-2.42a9.07,9.07,0,0,1,1-4.17c.16-.35,0-.27-.12-.08-2.53,3-5.54,9.87-5.73,12.4,0,.4-.23.43-.47.43-.93,0-2.46-1-2.46-1.87A46.26,46.26,0,0,1,381.9,120.4Z"/>
    <path class="cls-12"
          d="M394,120.4a.71.71,0,0,1,.55-.51A5,5,0,0,1,397,121c.39.32,0,.82-.19,1.21a52.3,52.3,0,0,0-1.91,6.2c1.4-3,3.47-6.7,5.34-8.26a1,1,0,0,1,.74-.28,4.81,4.81,0,0,1,2.42,1c.51.5.19.89-.24,1.21a6.71,6.71,0,0,0-2.06,4.44c0,1,.31,1.41.74,1.41,1.64,0,3.2-3.12,3.94-4.37a.55.55,0,0,1,.93.58c-.85,1.41-2.49,4.45-4.37,5.11-1.32.51-3.78-.7-4-2.42a9.2,9.2,0,0,1,1.05-4.17c.16-.35,0-.27-.12-.08-2.53,3-5.54,9.87-5.73,12.4,0,.4-.23.43-.47.43-.93,0-2.46-1-2.46-1.87A46.6,46.6,0,0,1,394,120.4Z"/>
    <path class="cls-12"
          d="M409.32,131.32a.57.57,0,0,0,0-.27c-1.13,2.38-2.62,4.4-4.37,4.4a2.47,2.47,0,0,1-2.58-2.41c-.5-4.26,1.68-11,5.54-13.07,1.21-.7,2.62.23,4,.94a1.93,1.93,0,0,0,.19-.51c.16-.31.36-.51.59-.51a5,5,0,0,1,2.49,1.13c.43.32,0,.82-.19,1.21A67.81,67.81,0,0,0,412.28,133c-.12.58.24.58.55.27,2.38-2.38,4-6.94,5-9.6a.54.54,0,0,1,1,.39c-1,2.62-4.25,11.35-7.6,11.35a2.36,2.36,0,0,1-2.15-2.65C409.2,132.29,409.24,131.83,409.32,131.32Zm1.83-8.27a7.56,7.56,0,0,1,.39-1,1.06,1.06,0,0,0-.94-.51c-2.69,0-4.75,6.71-5,10.06,0,.43-.12,1.84.51,1.84C408,133.43,410.57,124.88,411.15,123.05Z"/>
    <path class="cls-12"
          d="M415,131.32a49.83,49.83,0,0,1,3-10.92c.16-.31.35-.51.59-.51a5,5,0,0,1,2.49,1.13c.43.32,0,.82-.15,1.21A65.7,65.7,0,0,0,418,133c-.11.58.24.58.55.27,2.38-2.38,4.17-6.94,5.19-9.6a.54.54,0,0,1,1,.39c-1,2.62-4.41,11.35-7.76,11.35a2.36,2.36,0,0,1-2.14-2.65C414.89,132.29,414.93,131.83,415,131.32Zm7-19.54a7.27,7.27,0,0,1,2.3,1c.59.39.59.9.16,1.6-.7,1.17-2.81,4.33-3.75,4.37-2.22.08-.15-5,.35-5.93C421.45,112.17,421.76,111.78,422,111.78Z"/>
    <path class="cls-12"
          d="M420.31,132.06a3.31,3.31,0,0,1,2.69-1.44c.86-.12,1.76-.12,2.5-.28-.35-2.34-3-3.78-3-6.78a4.08,4.08,0,0,1,4.29-4c1.4,0,3.2,2,3.2,3.39,0,.82-.86,2.27-1.41,2.27-.85,0-2.06-.59-2.06-1a.24.24,0,0,1,.07-.16c.67,0,1.21-1,1.21-1.79,0-.47-.19-.86-.62-.86-1,0-1.4,1.68-1.4,2.38,0,2.07,2.1,3.55,2.92,5.31a9.14,9.14,0,0,0,4.17-5.43c.2-.66,1.21-.31,1,.36a10.05,10.05,0,0,1-4.84,6.12c.47,3.43-3.24,5.5-6.24,5.5C420.28,135.69,419.3,133.62,420.31,132.06Zm2.11-.27a1.18,1.18,0,1,0,.66,2.22,4.13,4.13,0,0,0,2.38-2.53C424.64,131.67,423.32,131.55,422.42,131.79Z"/>
    <path class="cls-12"
          d="M109.38,166.32a1.5,1.5,0,0,0,.07-.27c-1.17,2.38-2.61,4.4-4.36,4.4a2.9,2.9,0,0,1-2.77-2.65c.08-.51.12-1,.19-1.48a47.21,47.21,0,0,1,3-10.92c.15-.31.35-.51.58-.51a5.08,5.08,0,0,1,2.5,1.13c.39.32,0,.82-.2,1.21a67.88,67.88,0,0,0-2.73,9.79c-.19.9.08,1.41.51,1.41,1.87,0,4.6-8.55,5.23-10.38.31-.93.62-1.83,1-2.65.16-.31.39-.51.59-.51a5,5,0,0,1,2.49,1.13c.43.32,0,.82-.15,1.21a65.7,65.7,0,0,0-3,10.81c-.12.58.24.58.59.27,2.34-2.38,4.13-6.94,5.15-9.6a.54.54,0,0,1,1,.39c-1,2.62-4.41,11.35-7.76,11.35a2.39,2.39,0,0,1-2.15-2.65C109.26,167.29,109.34,166.83,109.38,166.32Z"/>
    <path class="cls-12"
          d="M118.27,155.4a.71.71,0,0,1,.55-.51,5,5,0,0,1,2.53,1.13c.39.32,0,.82-.19,1.21a54.23,54.23,0,0,0-1.92,6.2c1.41-3,3.48-6.7,5.35-8.26a1,1,0,0,1,.74-.28c.54,0,2.61.7,2.61,1.45a.84.84,0,0,1-.12.42c-.15.32-.27.63-.42,1a66.75,66.75,0,0,0-2.73,10.3c-.12.58.15.66.54.27,2.38-2.38,4.17-6.94,5.19-9.6a.54.54,0,0,1,1,.39c-1,2.62-4.4,11.35-7.76,11.35a2.1,2.1,0,0,1-2.26-2.06,57.49,57.49,0,0,1,2.61-11.2c-2.61,2.81-5.89,10.18-6.08,12.83,0,.4-.24.43-.47.43-.94,0-2.46-1-2.46-1.87A46.26,46.26,0,0,1,118.27,155.4Z"/>
    <path class="cls-12"
          d="M136.21,155.4c.12-.31.35-.51.54-.51a5.22,5.22,0,0,1,2.54,1.13c.39.32,0,.82-.2,1.21a56.3,56.3,0,0,0-1.91,6.2c1.41-3,3.47-6.7,5.35-8.26a1,1,0,0,1,.74-.28,4.56,4.56,0,0,1,2.45,1.06c.24.31.16.5,0,.81a58.57,58.57,0,0,0-2.1,6.67c1.4-3,3.47-6.7,5.34-8.26a1.07,1.07,0,0,1,.74-.28c.59,0,2.65.7,2.65,1.45a1.63,1.63,0,0,1-.11.42,4.06,4.06,0,0,0-.43,1,63.94,63.94,0,0,0-2.77,10.3c-.12.58.15.66.58.27,2.34-2.38,4.14-6.94,5.15-9.6a.55.55,0,0,1,1,.39c-1,2.62-4.41,11.35-7.77,11.35a2.13,2.13,0,0,1-2.26-2.06,57.49,57.49,0,0,1,2.61-11.2c-2.57,2.81-5.88,10.18-6,12.83,0,.4-.27.43-.51.43-.93,0-2.45-1-2.45-1.87A47.84,47.84,0,0,1,142,157.23c-2.61,2.85-5.93,10.14-6.12,12.79,0,.4-.24.43-.47.43-.94,0-2.46-1-2.46-1.87A46.26,46.26,0,0,1,136.21,155.4Z"/>
    <path class="cls-12"
          d="M158.75,166.32a.57.57,0,0,0,0-.27c-1.13,2.38-2.61,4.4-4.37,4.4a2.46,2.46,0,0,1-2.57-2.41c-.51-4.26,1.67-11,5.53-13.07,1.21-.7,2.62.23,4,.94a1.94,1.94,0,0,0,.2-.51c.15-.31.35-.51.58-.51a5.08,5.08,0,0,1,2.5,1.13c.43.32,0,.82-.2,1.21A68.9,68.9,0,0,0,161.71,168c-.11.58.24.58.55.27,2.38-2.38,4-6.94,5-9.6a.54.54,0,0,1,1,.39c-1,2.62-4.25,11.35-7.6,11.35a2.37,2.37,0,0,1-2.15-2.65C158.63,167.29,158.67,166.83,158.75,166.32Zm1.83-8.27a9.22,9.22,0,0,1,.39-1,1,1,0,0,0-.93-.51c-2.69,0-4.76,6.71-5,10.06,0,.43-.11,1.84.51,1.84C157.42,168.43,160,159.88,160.58,158.05Z"/>
    <path class="cls-12"
          d="M167.49,155.4a.7.7,0,0,1,.54-.51,5.06,5.06,0,0,1,2.54,1.13c.39.32,0,.82-.2,1.21a56.3,56.3,0,0,0-1.91,6.2c1.4-3,3.47-6.7,5.34-8.26a1,1,0,0,1,.74-.28c.55,0,2.62.7,2.62,1.45a.84.84,0,0,1-.12.42c-.16.32-.27.63-.43,1a67.91,67.91,0,0,0-2.73,10.3c-.12.58.16.66.55.27,2.38-2.38,4.17-6.94,5.18-9.6a.55.55,0,0,1,1,.39c-1,2.62-4.41,11.35-7.76,11.35a2.1,2.1,0,0,1-2.26-2.06,56.77,56.77,0,0,1,2.61-11.2c-2.61,2.81-5.89,10.18-6.09,12.83,0,.4-.23.43-.46.43-.94,0-2.46-1-2.46-1.87A46.26,46.26,0,0,1,167.49,155.4Z"/>
    <path class="cls-12"
          d="M179,170.45a2.51,2.51,0,0,1-2.62-2.41c-.46-4.26,1.72-11,5.58-13.07a2.42,2.42,0,0,1,2.07,0,19.28,19.28,0,0,1,1.95.94c0-.12.12-.35.19-.51a.72.72,0,0,1,.55-.51,5.22,5.22,0,0,1,2.54,1.13c.27.2.15.51,0,.78a4.27,4.27,0,0,0-.36,1c-.85,2.73-1.59,5.62-2.14,8l-.08.35a19.58,19.58,0,0,0,5.19-7.45c.23-.66,1.25-.27,1,.36a21.31,21.31,0,0,1-6.59,8.89,69.68,69.68,0,0,1-2.1,7.49c-.94,2.57-2.23,4.33-5.27,4.33a3.15,3.15,0,0,1-2.53-1.25c-1.14-1.6-.51-3.79.74-5.15,1.4-1.64,3.62-2.69,5.3-3.86.31-1.09.63-2.23.94-3.36C182.23,168.5,180.74,170.45,179,170.45Zm1.44,5.46c.47-1.36,1-3,1.48-4.75-1.75,1.21-4.75,2.84-4.64,5.34,0,.66.43,1.44,1.21,1.44S180,177.32,180.47,175.91Zm-.82-9.32c0,.43-.12,1.84.51,1.84,1.87,0,4.41-8.55,5-10.38.12-.35.23-.7.35-1a1.1,1.1,0,0,0-.93-.51C182,156.53,179.89,163.24,179.65,166.59Z"/>
    <path class="cls-12"
          d="M195.45,154.74c1.48,0,4.09,2,4.09,3.7,0,3.63-4.25,6.44-7.25,6.44-.08,2.06.54,3.74,2.34,3.74,3.16,0,6-6.4,7.33-9.94.24-.67,1.25-.24,1,.42-1.41,3.83-4.53,11.35-8.94,11.35C184.61,170.45,189.87,154.74,195.45,154.74ZM192.37,164c2.1,0,4.44-3.16,4.44-6.28,0-.82-.66-1.09-1.25-.62C194,158.25,192.68,161.33,192.37,164Z"/>
    <path class="cls-12"
          d="M202.35,155.4a.71.71,0,0,1,.55-.51,5,5,0,0,1,2.53,1.13c.39.32,0,.82-.19,1.21a52.3,52.3,0,0,0-1.91,6.2c1.4-3,3.47-6.7,5.34-8.26a1,1,0,0,1,.74-.28,4.81,4.81,0,0,1,2.42,1c.5.5.19.89-.24,1.21a6.71,6.71,0,0,0-2.06,4.44c0,1,.31,1.41.74,1.41,1.64,0,3.2-3.12,3.94-4.37a.55.55,0,0,1,.93.58c-.86,1.41-2.49,4.45-4.37,5.11-1.32.51-3.78-.7-4-2.42a9.07,9.07,0,0,1,1-4.17c.16-.35,0-.27-.12-.08-2.53,3-5.54,9.87-5.73,12.4,0,.4-.23.43-.47.43-.93,0-2.46-1-2.46-1.87A46.26,46.26,0,0,1,202.35,155.4Z"/>
    <path class="cls-12"
          d="M223.84,166.32c0-.08,0-.16.08-.27-1.17,2.38-2.62,4.4-4.37,4.4a2.9,2.9,0,0,1-2.77-2.65c.08-.51.12-1,.19-1.48a47.21,47.21,0,0,1,3-10.92c.15-.31.35-.51.58-.51a5.08,5.08,0,0,1,2.5,1.13c.39.32,0,.82-.2,1.21a67.88,67.88,0,0,0-2.73,9.79c-.19.9.08,1.41.51,1.41,1.87,0,4.6-8.55,5.23-10.38.31-.93.62-1.83,1-2.65.16-.31.39-.51.59-.51a5,5,0,0,1,2.49,1.13c.43.32,0,.82-.15,1.21a65.7,65.7,0,0,0-3,10.81c-.11.58.24.58.59.27,2.34-2.38,4.13-6.94,5.15-9.6a.54.54,0,0,1,1,.39c-1,2.62-4.41,11.35-7.76,11.35a2.39,2.39,0,0,1-2.15-2.65C223.72,167.29,223.8,166.83,223.84,166.32Z"/>
    <path class="cls-12"
          d="M232.73,155.4a.71.71,0,0,1,.55-.51,5,5,0,0,1,2.53,1.13c.39.32,0,.82-.19,1.21a54.23,54.23,0,0,0-1.92,6.2c1.41-3,3.48-6.7,5.35-8.26a1,1,0,0,1,.74-.28c.55,0,2.61.7,2.61,1.45a.84.84,0,0,1-.12.42c-.15.32-.27.63-.42,1a66.75,66.75,0,0,0-2.73,10.3c-.12.58.15.66.54.27,2.38-2.38,4.18-6.94,5.19-9.6a.54.54,0,0,1,1,.39c-1,2.62-4.4,11.35-7.76,11.35a2.1,2.1,0,0,1-2.26-2.06,57.49,57.49,0,0,1,2.61-11.2c-2.61,2.81-5.89,10.18-6.08,12.83,0,.4-.23.43-.47.43-.93,0-2.46-1-2.46-1.87A46.26,46.26,0,0,1,232.73,155.4Z"/>
    <path class="cls-12"
          d="M250.67,155.4c.12-.31.35-.51.54-.51a5.22,5.22,0,0,1,2.54,1.13c.39.32,0,.82-.2,1.21a56.3,56.3,0,0,0-1.91,6.2c1.41-3,3.48-6.7,5.35-8.26a1,1,0,0,1,.74-.28,4.62,4.62,0,0,1,2.46,1.06c.23.31.15.5,0,.81a58.57,58.57,0,0,0-2.1,6.67c1.4-3,3.47-6.7,5.34-8.26a1.09,1.09,0,0,1,.74-.28c.59,0,2.65.7,2.65,1.45a1.63,1.63,0,0,1-.11.42,4.49,4.49,0,0,0-.43,1,63.94,63.94,0,0,0-2.77,10.3c-.12.58.16.66.58.27,2.34-2.38,4.14-6.94,5.15-9.6a.55.55,0,0,1,1,.39c-1,2.62-4.41,11.35-7.76,11.35a2.14,2.14,0,0,1-2.27-2.06,57.52,57.52,0,0,1,2.62-11.2C260.3,160,257,167.37,256.83,170c0,.4-.27.43-.51.43-.93,0-2.45-1-2.45-1.87a47.84,47.84,0,0,1,2.57-11.35c-2.61,2.85-5.93,10.14-6.12,12.79,0,.4-.24.43-.47.43-.94,0-2.46-1-2.46-1.87A46.26,46.26,0,0,1,250.67,155.4Z"/>
    <path class="cls-12"
          d="M266.46,166.32a49.28,49.28,0,0,1,3-10.92c.15-.31.35-.51.58-.51a5.08,5.08,0,0,1,2.5,1.13c.43.32,0,.82-.16,1.21a65.6,65.6,0,0,0-3,10.81c-.12.58.23.58.54.27,2.38-2.38,4.18-6.94,5.19-9.6a.54.54,0,0,1,1,.39c-1,2.62-4.4,11.35-7.76,11.35a2.36,2.36,0,0,1-2.14-2.65C266.35,167.29,266.39,166.83,266.46,166.32Zm7-19.54a7.27,7.27,0,0,1,2.3,1.05c.59.39.59.9.16,1.6-.7,1.17-2.81,4.33-3.74,4.37-2.23.08-.16-5,.35-5.93C272.9,147.17,273.21,146.78,273.48,146.78Z"/>
    <path class="cls-12"
          d="M277.7,145.3c.74,0,3.39,1,3.39,1.6a.28.28,0,0,1-.08.19,4.92,4.92,0,0,0-.51.67c-1.95,3.51-4.48,14.43-5.18,19.93-.08.85.07,1,.66.42,2.26-2.41,4-6.82,4.95-9.4a.55.55,0,0,1,1,.39c-1,2.62-4.41,11.35-7.76,11.35-2.15,0-2.11-2.3-2-3.82C272.82,159.1,276.17,145.3,277.7,145.3Z"/>
    <path class="cls-12"
          d="M283.47,145.3c.74,0,3.39,1,3.39,1.6a.28.28,0,0,1-.08.19,4.17,4.17,0,0,0-.5.67c-1.95,3.51-4.49,14.43-5.19,19.93-.08.85.08,1,.66.42,2.26-2.41,4-6.82,4.95-9.4a.55.55,0,0,1,1,.39c-1,2.62-4.41,11.35-7.76,11.35-2.15,0-2.11-2.3-2-3.82C278.59,159.1,282,145.3,283.47,145.3Z"/>
    <path class="cls-12"
          d="M283.9,166.32a48.74,48.74,0,0,1,3-10.92c.15-.31.35-.51.58-.51A5.08,5.08,0,0,1,290,156c.43.32,0,.82-.16,1.21a66.61,66.61,0,0,0-3,10.81c-.12.58.23.58.55.27,2.37-2.38,4.17-6.94,5.18-9.6a.55.55,0,0,1,1,.39c-1,2.62-4.41,11.35-7.76,11.35a2.36,2.36,0,0,1-2.15-2.65C283.78,167.29,283.82,166.83,283.9,166.32Zm7-19.54a7.3,7.3,0,0,1,2.31,1.05c.58.39.58.9.15,1.6-.7,1.17-2.81,4.33-3.74,4.37-2.22.08-.16-5,.35-5.93C290.33,147.17,290.64,146.78,290.91,146.78Z"/>
    <path class="cls-12"
          d="M297.58,155.4c2.42,0,4.45,1.68,4.45,3.43a14.39,14.39,0,0,1-1.13,5.46,14.86,14.86,0,0,0,4-5.61.55.55,0,0,1,1,.42,15.4,15.4,0,0,1-6.08,7.26c-1.45,2.38-3.51,4.09-5.82,4.09-2.8,0-4.48-2.8-4.48-4.83,0-3.86,2-8.93,5.27-10.65A2.84,2.84,0,0,1,297.58,155.4Zm-3.94,12.25a9.77,9.77,0,0,0,2.27-.51,17.27,17.27,0,0,0,2.49-8.31c0-2.57-1.4-2.73-2.81-1.21-2.22,2.46-3.31,8-2.34,10.1A1.51,1.51,0,0,1,293.64,167.65Z"/>
    <path class="cls-12"
          d="M305.11,155.4a.71.71,0,0,1,.55-.51,5,5,0,0,1,2.53,1.13c.39.32,0,.82-.19,1.21a52.3,52.3,0,0,0-1.91,6.2c1.4-3,3.47-6.7,5.34-8.26a1,1,0,0,1,.74-.28c.55,0,2.61.7,2.61,1.45a.94.94,0,0,1-.11.42c-.16.32-.28.63-.43,1a67.91,67.91,0,0,0-2.73,10.3c-.12.58.15.66.54.27,2.38-2.38,4.18-6.94,5.19-9.6a.54.54,0,0,1,1,.39c-1,2.62-4.4,11.35-7.76,11.35a2.1,2.1,0,0,1-2.26-2.06,57.49,57.49,0,0,1,2.61-11.2C308.23,160,305,167.37,304.76,170c0,.4-.23.43-.47.43-.93,0-2.46-1-2.46-1.87A46.6,46.6,0,0,1,305.11,155.4Z"/>
    <path class="cls-12"
          d="M326.4,154.74c1.49,0,4.1,2,4.1,3.7,0,3.63-4.25,6.44-7.26,6.44-.07,2.06.55,3.74,2.35,3.74,3.15,0,6-6.4,7.33-9.94.23-.67,1.25-.24,1,.42-1.4,3.83-4.52,11.35-8.93,11.35C315.56,170.45,320.83,154.74,326.4,154.74ZM323.32,164c2.11,0,4.45-3.16,4.45-6.28,0-.82-.66-1.09-1.25-.62C325,158.25,323.64,161.33,323.32,164Z"/>
    <path class="cls-12"
          d="M337.91,150.64c-.16.39-.27.78-.39,1.17a6.39,6.39,0,0,1,2.92.47c.24.12.47,1.17.47,1.56,0,.23,0,.35-.15.43h-.12a12,12,0,0,0-3.74-.43,109.53,109.53,0,0,0-3.12,13.85c-.08.85.07,1,.62.42a33.9,33.9,0,0,0,5.62-9.4.54.54,0,0,1,1,.39c-1,2.62-5.23,11.35-8.39,11.35-2.18,0-2.1-2.3-2-3.82A91.31,91.31,0,0,1,333,154h-.85c-.74,0-2.46,0-2.85-1-.12-.31,0-.47.35-.47a29.49,29.49,0,0,0,3.78-.31,24.85,24.85,0,0,1,.9-3c.39-.94.78-1.44,1.13-1.44.78,0,3.16,1,3.16,1.59,0,.08,0,.12-.12.2a1.53,1.53,0,0,0-.11.16A2.38,2.38,0,0,0,337.91,150.64Z"/>
    <path class="cls-12"
          d="M350,166c-1.09,2.34-2.61,4.44-4.53,4.44s-2.76-1.48-2.84-3.16c-.2-4.21,1.67-10.37,5.3-12.32,1.25-.7,2.73.27,3.82.82,1.21-5.58,2.77-10.49,3.67-10.49s3.43,1,3.43,1.6a.21.21,0,0,1-.11.19,3.51,3.51,0,0,0-.47.67c-2,3.51-4.49,14.43-5.19,19.93-.12.85.08,1,.62.42,2.27-2.41,4-6.82,5-9.4a.54.54,0,0,1,1,.39c-1,2.62-4.41,11.35-7.76,11.35-2.19,0-2.11-2.3-2-3.82C349.92,166.44,350,166.24,350,166Zm-4.06.15c-.11,1.33.2,2.15.78,2.15.39,0,.9-.39,1.45-1.25a25.15,25.15,0,0,0,2.41-5.3c.24-1.49.55-3,.86-4.61a1,1,0,0,0-.86-.62C348,156.53,346.25,162.73,345.9,166.16Z"/>
    <path class="cls-12"
          d="M362.2,154.74c1.49,0,4.1,2,4.1,3.7,0,3.63-4.25,6.44-7.26,6.44-.07,2.06.55,3.74,2.35,3.74,3.15,0,6-6.4,7.33-9.94.23-.67,1.25-.24,1,.42-1.4,3.83-4.52,11.35-8.93,11.35C351.36,170.45,356.63,154.74,362.2,154.74ZM359.12,164c2.11,0,4.45-3.16,4.45-6.28,0-.82-.66-1.09-1.25-.62C360.76,158.25,359.44,161.33,359.12,164Z"/>
    <path class="cls-12"
          d="M369.11,155.4a.7.7,0,0,1,.54-.51,5.22,5.22,0,0,1,2.54,1.13c.39.32,0,.82-.2,1.21a56.3,56.3,0,0,0-1.91,6.2c1.41-3,3.47-6.7,5.35-8.26a1,1,0,0,1,.74-.28,4.59,4.59,0,0,1,2.45,1.06c.24.31.16.5,0,.81a56.63,56.63,0,0,0-2.1,6.67c1.4-3,3.47-6.7,5.34-8.26a1.07,1.07,0,0,1,.74-.28c.59,0,2.65.7,2.65,1.45a2.17,2.17,0,0,1-.11.42,4.06,4.06,0,0,0-.43,1A63.94,63.94,0,0,0,382,168c-.12.58.15.66.58.27,2.34-2.38,4.14-6.94,5.15-9.6a.54.54,0,0,1,1,.39c-1,2.62-4.4,11.35-7.76,11.35a2.13,2.13,0,0,1-2.26-2.06,57.49,57.49,0,0,1,2.61-11.2c-2.57,2.81-5.88,10.18-6,12.83,0,.4-.27.43-.51.43-.93,0-2.45-1-2.45-1.87a47.84,47.84,0,0,1,2.57-11.35c-2.61,2.85-5.93,10.14-6.12,12.79,0,.4-.24.43-.47.43-.94,0-2.46-1-2.46-1.87A46.26,46.26,0,0,1,369.11,155.4Z"/>
    <path class="cls-12"
          d="M384.9,166.32a49.28,49.28,0,0,1,3-10.92c.15-.31.35-.51.58-.51A5.08,5.08,0,0,1,391,156c.42.32,0,.82-.16,1.21a64.63,64.63,0,0,0-3,10.81c-.12.58.23.58.54.27,2.38-2.38,4.17-6.94,5.19-9.6a.54.54,0,0,1,1,.39c-1,2.62-4.4,11.35-7.76,11.35a2.36,2.36,0,0,1-2.14-2.65C384.78,167.29,384.82,166.83,384.9,166.32Zm7-19.54a7.27,7.27,0,0,1,2.3,1.05c.59.39.59.9.16,1.6-.7,1.17-2.81,4.33-3.75,4.37-2.22.08-.15-5,.36-5.93C391.34,147.17,391.65,146.78,391.92,146.78Z"/>
    <path class="cls-12"
          d="M393.21,170.49c-2.5-.07-1.29-4.64.08-4.6s2.53.66,2.53,2C395.82,168.5,395,170.53,393.21,170.49Z"/>
    <path class="cls-12"
          d="M408.92,158.52a53,53,0,0,1-3.27,4.95c-.47.67-2,.39-2.69-.23-.28-.24-.24-.39,0-.66a54.33,54.33,0,0,0,3.7-5.07,47.57,47.57,0,0,0-1.67-4.8c-.12-.31-.12-.47.23-.63.86-.39,2.34-.19,2.65.55.55,1.44.94,3,1.37,4.45A1.64,1.64,0,0,1,408.92,158.52Zm4.72,0a52.63,52.63,0,0,1-3.23,4.95c-.51.67-2,.39-2.73-.23-.24-.24-.24-.39,0-.66a54.33,54.33,0,0,0,3.7-5.07,45.25,45.25,0,0,0-1.68-4.8c-.11-.31-.07-.47.24-.63.86-.39,2.38-.19,2.65.55a43.14,43.14,0,0,1,1.37,4.45A1.68,1.68,0,0,1,413.64,158.52Z"/>
    <path class="cls-12"
          d="M204,182.91c0,.35-.2.43-.51.43a86.37,86.37,0,0,0-9.44.51c1,.23,2.3.74,2.34,1.17,0,.08,0,.11-.07.19a5,5,0,0,0-.63,1.21,42.07,42.07,0,0,0-1.52,5.19,25.11,25.11,0,0,1,3.47,0c.35,0,.7,1.75.43,1.95-4,2.07-5.65,5.89-6.24,10.1,0,.55-.08,1-.08,1.33s-.12.46-.47.46c-.93,0-2.57-.85-2.57-1.71a53.27,53.27,0,0,1,1-8.39,14,14,0,0,0-2.57,1.48c-.19.12-.31.08-.43-.11a4.11,4.11,0,0,1-.31-2.46,1.08,1.08,0,0,1,.66-.94,13.67,13.67,0,0,1,3.28-1.13A37.48,37.48,0,0,1,192.6,184a48.6,48.6,0,0,0-5.77,1,14.76,14.76,0,0,0-2.42.74,1.81,1.81,0,0,0-.66.39c-.08,0-.16.08-.2,0-.58,0-1.25-2.69-1.17-3.43.16-1.1,7.25-2.11,14.2-2.5a33.82,33.82,0,0,1,6,0C203.4,180.38,204.07,182,204,182.91Zm-11.08,14a12.28,12.28,0,0,1,2.54-3.19,12.9,12.9,0,0,0-1.91.35C193.3,194.85,193.07,196.05,192.87,196.87Z"/>
    <path class="cls-12"
          d="M205.35,190.4c2.42,0,4.45,1.68,4.45,3.43a14.39,14.39,0,0,1-1.13,5.46,14.83,14.83,0,0,0,4-5.61.55.55,0,0,1,1,.42,15.42,15.42,0,0,1-6.09,7.26c-1.44,2.38-3.51,4.09-5.81,4.09-2.81,0-4.48-2.8-4.48-4.83,0-3.86,2-8.93,5.26-10.65A2.85,2.85,0,0,1,205.35,190.4Zm-3.94,12.25a9.57,9.57,0,0,0,2.26-.51,17.17,17.17,0,0,0,2.5-8.31c0-2.57-1.4-2.73-2.81-1.21-2.22,2.46-3.31,8-2.34,10.1A1.51,1.51,0,0,1,201.41,202.65Z"/>
    <path class="cls-12"
          d="M212.88,190.4c.12-.31.35-.51.54-.51A5.06,5.06,0,0,1,216,191c.39.32,0,.82-.2,1.21a56.3,56.3,0,0,0-1.91,6.2c1.41-3,3.48-6.7,5.35-8.26a1,1,0,0,1,.74-.28,4.81,4.81,0,0,1,2.42,1c.5.5.19.89-.24,1.21a6.77,6.77,0,0,0-2.07,4.44c0,1,.32,1.41.75,1.41,1.63,0,3.19-3.12,3.94-4.37a.55.55,0,0,1,.93.58c-.86,1.41-2.5,4.45-4.37,5.11-1.32.51-3.78-.7-4-2.42a9.07,9.07,0,0,1,1-4.17c.15-.35,0-.27-.12-.08-2.53,3-5.54,9.87-5.73,12.4,0,.4-.24.43-.47.43-.94,0-2.46-1-2.46-1.87A46.26,46.26,0,0,1,212.88,190.4Z"/>
    <path class="cls-12"
          d="M224.93,190.4a.71.71,0,0,1,.55-.51A5,5,0,0,1,228,191c.39.32,0,.82-.19,1.21a54.23,54.23,0,0,0-1.92,6.2c1.41-3,3.48-6.7,5.35-8.26a1,1,0,0,1,.74-.28,4.81,4.81,0,0,1,2.42,1c.5.5.19.89-.24,1.21a6.71,6.71,0,0,0-2.06,4.44c0,1,.31,1.41.74,1.41,1.63,0,3.19-3.12,3.94-4.37a.55.55,0,0,1,.93.58c-.86,1.41-2.49,4.45-4.37,5.11-1.32.51-3.78-.7-4-2.42a9.07,9.07,0,0,1,1.05-4.17c.15-.35,0-.27-.12-.08-2.53,3-5.54,9.87-5.73,12.4,0,.4-.24.43-.47.43-.94,0-2.46-1-2.46-1.87A46.26,46.26,0,0,1,224.93,190.4Z"/>
    <path class="cls-12"
          d="M240.33,189.74c1.49,0,4.1,2,4.1,3.7,0,3.63-4.25,6.44-7.26,6.44-.07,2.06.55,3.74,2.35,3.74,3.15,0,6-6.4,7.33-9.94.23-.67,1.25-.24,1,.42-1.4,3.83-4.52,11.35-8.93,11.35C229.49,205.45,234.76,189.74,240.33,189.74ZM237.25,199c2.11,0,4.45-3.16,4.45-6.28,0-.82-.66-1.09-1.25-.62C238.89,193.25,237.57,196.33,237.25,199Z"/>
    <path class="cls-12"
          d="M243.61,202.06a3.31,3.31,0,0,1,2.69-1.44c.86-.12,1.76-.12,2.5-.28-.35-2.34-3.05-3.78-3.05-6.78a4.09,4.09,0,0,1,4.29-4c1.41,0,3.2,2,3.2,3.39,0,.82-.86,2.27-1.4,2.27-.86,0-2.07-.59-2.07-1a.21.21,0,0,1,.08-.16c.66,0,1.21-1,1.21-1.79,0-.47-.2-.86-.62-.86-1,0-1.41,1.68-1.41,2.38,0,2.07,2.11,3.55,2.93,5.31a9.17,9.17,0,0,0,4.17-5.43c.19-.66,1.21-.31,1,.36a10,10,0,0,1-4.83,6.12c.47,3.43-3.24,5.5-6.24,5.5C243.57,205.69,242.6,203.62,243.61,202.06Zm2.11-.27a1.18,1.18,0,1,0,.66,2.22,4.13,4.13,0,0,0,2.38-2.53C247.94,201.67,246.61,201.55,245.72,201.79Z"/>
    <path class="cls-12"
          d="M260.93,185.64a10.7,10.7,0,0,0-.39,1.17,6.41,6.41,0,0,1,2.92.47c.24.12.47,1.17.47,1.56,0,.23,0,.35-.16.43h-.11a12,12,0,0,0-3.75-.43,113.14,113.14,0,0,0-3.12,13.85c-.08.85.08,1,.63.42a33.61,33.61,0,0,0,5.61-9.4.55.55,0,0,1,1,.39c-1,2.62-5.23,11.35-8.39,11.35-2.18,0-2.11-2.3-2-3.82A91.42,91.42,0,0,1,256.05,189h-.86c-.74,0-2.45,0-2.84-1-.12-.31,0-.47.35-.47a29.64,29.64,0,0,0,3.78-.31,23.13,23.13,0,0,1,.9-3c.39-.94.78-1.44,1.13-1.44.78,0,3.16,1,3.16,1.59,0,.08,0,.12-.12.2s-.08.12-.12.16A2.35,2.35,0,0,0,260.93,185.64Z"/>
    <path class="cls-12"
          d="M282,182.76a2.47,2.47,0,0,1,.9,1.75c0,2.77-4,6.12-4,8.89,0,.16,0,.28-.19.28-.94,0-2.54-1.06-2.54-2.27,0-3,3.9-4.44,3.9-6.9a2,2,0,0,0-2.06-2.11,2.8,2.8,0,0,0-1.1.28c-6.51,2.92-10.14,20.78-4.68,20.78,2.31,0,3.71-3.23,4.37-5.57a16,16,0,0,0-4.68,1.32c-.19.08-.27,0-.35-.15a2.94,2.94,0,0,1,.31-2.34.74.74,0,0,1,.55-.31,18.7,18.7,0,0,1,7.06-.28c.43.08.62.9.62,1.37s-.12.43-.35.39a5.16,5.16,0,0,0-.78-.08,2.14,2.14,0,0,1,.31.27c.35.35.28.55.12,1.09a78.13,78.13,0,0,0-2.3,10c0,.31-.16.43-.51.43-.93,0-2.34-1-2.3-1.87a37.64,37.64,0,0,1,.82-4.18,4.59,4.59,0,0,1-3.39,1.87c-11.39,0-5.54-25.23,5.65-25.23C279.64,180.22,281.36,181.12,282,182.76Z"/>
    <path class="cls-12"
          d="M287.45,201.32c0-.08,0-.16.07-.27-1.17,2.38-2.61,4.4-4.37,4.4a2.89,2.89,0,0,1-2.76-2.65c.07-.51.11-1,.19-1.48a47.7,47.7,0,0,1,3-10.92c.16-.31.35-.51.59-.51a5,5,0,0,1,2.49,1.13c.39.32,0,.82-.19,1.21a67.88,67.88,0,0,0-2.73,9.79c-.2.9.08,1.41.51,1.41,1.87,0,4.6-8.55,5.22-10.38.31-.93.63-1.83,1-2.65.15-.31.39-.51.58-.51a5.08,5.08,0,0,1,2.5,1.13c.43.32,0,.82-.16,1.21a66.61,66.61,0,0,0-3,10.81c-.12.58.23.58.58.27,2.34-2.38,4.14-6.94,5.15-9.6a.55.55,0,0,1,1,.39c-1,2.62-4.41,11.35-7.77,11.35a2.39,2.39,0,0,1-2.14-2.65C287.33,202.29,287.41,201.83,287.45,201.32Z"/>
    <path class="cls-12"
          d="M296.34,190.4a.7.7,0,0,1,.54-.51,5.22,5.22,0,0,1,2.54,1.13c.39.32,0,.82-.2,1.21a56.3,56.3,0,0,0-1.91,6.2c1.41-3,3.47-6.7,5.35-8.26a1,1,0,0,1,.74-.28,4.59,4.59,0,0,1,2.45,1.06c.24.31.16.5,0,.81a56.63,56.63,0,0,0-2.1,6.67c1.4-3,3.47-6.7,5.34-8.26a1.07,1.07,0,0,1,.74-.28c.58,0,2.65.7,2.65,1.45a2.17,2.17,0,0,1-.11.42,4.06,4.06,0,0,0-.43,1,62.92,62.92,0,0,0-2.77,10.3c-.12.58.15.66.58.27,2.34-2.38,4.14-6.94,5.15-9.6a.54.54,0,0,1,1,.39c-1,2.62-4.4,11.35-7.76,11.35a2.13,2.13,0,0,1-2.26-2.06,57.49,57.49,0,0,1,2.61-11.2c-2.57,2.81-5.88,10.18-6,12.83,0,.4-.27.43-.51.43-.93,0-2.46-1-2.46-1.87a48.36,48.36,0,0,1,2.58-11.35c-2.61,2.85-5.93,10.14-6.12,12.79,0,.4-.24.43-.47.43-.94,0-2.46-1-2.46-1.87A46.26,46.26,0,0,1,296.34,190.4Z"/>
    <path class="cls-12"
          d="M315.72,189.58c.78,0,3.39,1,3.39,1.64a.36.36,0,0,1-.08.19,3.64,3.64,0,0,0-.46.63,17.08,17.08,0,0,0-1.33,3.35,37.52,37.52,0,0,1,2.61-4.13,3.71,3.71,0,0,1,2.58-1.84c1.67,0,3.2,2.11,3.2,3.4a16,16,0,0,1-2.23,7,14,14,0,0,0,4.64-6.12.55.55,0,0,1,1,.42,15.36,15.36,0,0,1-7,7.8c-1.52,2.07-3.32,3.55-4.68,3.55a3.35,3.35,0,0,1-2.23-.74,73.16,73.16,0,0,0-1.17,9.6c0,.31-.11.47-.46.47-.94,0-2.58-.9-2.58-1.72C310.92,206.43,314.08,189.58,315.72,189.58Zm-.08,12.48c-.08.31-.12.59-.19.9a2.29,2.29,0,0,1,1-.31,9.92,9.92,0,0,0,2.22-.55,19.51,19.51,0,0,0,3.36-9.4c0-.74-.24-1.17-.59-1.13a.87.87,0,0,0-.62.35A27.77,27.77,0,0,0,315.64,202.06Z"/>
    <path class="cls-12"
          d="M326.64,205.49c-2.5-.07-1.29-4.64.08-4.6s2.53.66,2.53,2C329.25,203.5,328.43,205.53,326.64,205.49Z"/>
</svg>
