<svg viewBox="0 0 470 470" xmlns="http://www.w3.org/2000/svg">
    <defs>
        <style>.cls-1{isolation:isolate;}.cls-2{fill:#00a5c3;opacity:0.46;mix-blend-mode:multiply;}.cls-3{fill:#fff;}
        </style>
    </defs>
    <title>Sans titre - 1</title>
    <g class="cls-1">
        <g data-name="Calque 1" id="Calque_1">
            <g id="ZoJ6WK.tif">
                <path d="M392.54,171.27c0,27.4.41,54.81-.15,82.21-.34,16.67-2.68,33.19-10.73,48.3-6.08,11.39-15.4,19-27.24,23.73-17.35,6.9-35.72,8.35-54.06,9.43-7.2.43-11.32,2.3-14.36,9.83-12.75,31.65-26.45,62.93-39.93,94.28a136.25,136.25,0,0,1-7.44,14.28c-2.73,4.71-6.39,8.25-12.51,7.59-5.88-.63-9.3-4.44-11.52-9.37-5-11.21-9.88-22.53-14.78-33.82-10-23-20-46.07-29.93-69.17-1.76-4.12-4.22-5.41-8.75-5.08-16.52,1.19-33,.34-49-4.06C81.51,331,61.17,306.64,57.32,275c-2.79-22.86.47-45.29,3.43-67.84,2.41-18.37,4.48-36.82,5.58-55.31.64-10.83-1.1-21.8-1.48-32.71a172.25,172.25,0,0,1,4.64-48C76.82,41.8,95.75,24,124.78,16.35c19.26-5,39-6.8,58.74-7q62.17-.63,124.37-.08c17.72.16,35.3,2.32,51.59,10.33C374.61,27,383.66,39.36,388.41,55.2c5,16.84,5.4,34.16,5.37,51.54,0,21.51,0,43,0,64.53Zm-179,258.35c1.37,4,2.75,8,4.4,12.86l4.55-5-8.94-7.85c-.16-3.34,1.14-4.61,3.7-1.95s4.38,5.69,6.72,8.81c3.95-4.15,6.26-6.59,8.26-8.7l-9.08-10.17-6,2.66-.85-1.19,3-4.7-6.39-7.53,1.76-1.83,7.3,6.08,16.52-15.68c-2.56-2-5.1-3.85-7.36-6-.55-.53-.2-2-.26-3.08.92.2,2.2.09,2.7.66,2,2.34,3.83,4.88,5.75,7.38L253.24,380l-8.69-9.15c-5.93,3.76-8.93,10.85-15.68,13l-1.3-1.38,13.87-14.43-5.24-6.55,1.39-1.66,6.5,4.79,13.16-13.34-6-6.78L262.62,335c-1.07-2.74-1.63-4.18-2.69-6.87l6.42,2.34c.5-.71,1-1.45,1.52-2.13,3.54-4.48,6.78-9.24,10.73-13.32,2.83-2.92,6.54-5,10-7.31.93-.62,2.3-.57,3.47-.83-.38,1.17-.42,2.71-1.21,3.44-2.39,2.24-5.07,4.16-7.64,6.21.36.39.73.77,1.1,1.16l5.89,6.87c3.82-5,6.61-9.56,10.25-13.25,5-5.08,10.63-9.58,16.1-14.19.84-.71,2.28-.7,3.45-1l.68,1.05-3.35,4.83,6.14,5,25-23.85,8.24,7.5,10.89-9.25,1.67,1.91c-3.19,3.44-6.39,6.87-9.79,10.52l4.85,4.57c6.3-3.24,8.45-11.41,17.13-12.09,1.27-9.41,2.24-19.05,3.94-28.56,1.23-6.88-1.75-11.08-7.3-14.62a34.19,34.19,0,0,1-3.9,3.15c-.67.41-1.78.09-2.69.1a8.73,8.73,0,0,1,.31-2.32c1.1-2.61,2.32-5.17,3.71-8.21l3.09,1c10-9.34,10-9.6.08-17l-5.05,3.75-1.21-.93c1.3-2.84,2.61-5.69,4-8.7a11.77,11.77,0,0,0,9.76-11.42c.18-32.09.42-64.17.53-96.25.06-17.19-.31-34.37-5.71-50.94C377,43,369.77,33.16,358.16,26.85c-14.29-7.75-29.93-10.15-45.74-10.29-44.56-.39-89.14-.64-133.69.22A264.59,264.59,0,0,0,128.3,23C99,29.28,81.25,47.9,75.24,77.54c-3.69,18.19-3.73,36.49-2.76,54.89.49,9.34,1.46,18.77.71,28-1.41,17.43-3.73,34.79-6,52.14-2.76,20.82-5.53,41.6-2.51,62.65,4.39,30.67,23.89,51.83,54.09,58.39a155.5,155.5,0,0,0,46.05,2.65c4.75-.4,7.61,1.24,9.61,5.22.94,1.85,2.06,3.62,2.88,5.53,7.67,17.81,15.22,35.68,23,53.46C204.5,410.28,209.08,419.92,213.51,429.62Zm33.83-62.26c5.34,5.49,10.06,10.36,15,15.41,2.73-6.63,5.41-13.1,7.91-19.15L261,355.18Zm-6.23,32.45-15.25,14.47,9.54,10.48,15.1-16.19Zm-2.2,27.49c.27,1.42.59,3.09.9,4.76l-4.26-1L228,437.5c1.6,2.25,3,4.23,4.41,6.2l-1.2,1.38-6.56-4.19-6.25,5.28c3.25,3,5.76,7.1,8.27,7.1,2.66,0,6.32-3.38,7.8-6.21,4.43-8.46,8-17.37,11.92-26.1l-1.18-.71Zm41.92-106.12L269.51,331.8l10,9,7.87-14.15Zm-23.89,62.34c-4.77,4.52-9.11,8.65-13.08,12.43l8.73,9.94c2.92-7,5.63-13.53,8.35-20.07Zm65.9-70.29c-4.06,4.34-8.41,9-13.52,14.44l25.4-2.89Zm55.43-22.44c-3.18,4.88-11.47,6.24-10.32,12.9a78.25,78.25,0,0,0-7.36,4.28,26.7,26.7,0,0,0-4.74,4.76c-.61.74-.62,2-.9,3,1.17,0,2.64.55,3.47,0A44.75,44.75,0,0,0,378.27,290.79ZM335,318.17c4.41,6,9.58,5.95,16.53.44-1.14-.67-2.82-1.13-3.56-2.22a56.19,56.19,0,0,1-3.49-7.08Zm-63.42,41.94,5.75-13.35-4.77-3.13-9.72,8.05ZM354,293.92l-4.62-5.23L338.6,298c1.63,2.26,3.1,4.31,4.46,6.18Zm-38.25,10.7-9.84,8.58,5,6.33,9.36-9.87Zm-7.69,17.82c-1.84-2.55-3.32-4.6-5.22-7.25-3.1,3.38-5.49,5.86-7.7,8.48a15.6,15.6,0,0,0-1.68,3.37c1.35.44,2.7,1.25,4.05,1.24,2.91,0,5.81-.44,8.37-.68C306.75,325.55,307.5,323.75,308.06,322.44Zm42.3-11L360.63,302l-3-5.09c-4,3.56-7.58,6.71-11.33,10Zm-23.73-2c1.89,2.32,3.47,4.24,4.91,6,3.11-3.17,5.93-6,8.34-8.51l-4.46-5.85Zm-60.35,27.3-10,8.32,4.23,3.76,8.57-8.81Zm118.26-92.63,1-.65v-8l-4.62,4.26Z"/>
                <path class="cls-2"
                      d="M213.51,429.62c-4.43-9.7-9-19.34-13.26-29.12-7.75-17.78-15.3-35.65-23-53.46-.82-1.91-1.94-3.68-2.88-5.53-2-4-4.86-5.62-9.61-5.22a155.5,155.5,0,0,1-46-2.65c-30.2-6.56-49.7-27.72-54.09-58.39-3-21.05-.25-41.83,2.51-62.65,2.3-17.35,4.62-34.71,6-52.14.75-9.26-.22-18.69-.71-28-1-18.4-.93-36.7,2.76-54.89C81.25,47.9,99,29.28,128.3,23a264.59,264.59,0,0,1,50.43-6.19c44.55-.86,89.13-.61,133.69-.22,15.81.14,31.45,2.54,45.74,10.29C369.77,33.16,377,43,381,55.29c5.4,16.57,5.77,33.75,5.71,50.94-.11,32.08-.35,64.16-.53,96.25a11.77,11.77,0,0,1-9.76,11.42c-1.39,3-2.7,5.86-4,8.7l1.21.93,5.05-3.75c9.95,7.43,9.95,7.69-.08,17l-3.09-1c-1.39,3-2.61,5.6-3.71,8.21a8.73,8.73,0,0,0-.31,2.32c.91,0,2,.31,2.69-.1a34.19,34.19,0,0,0,3.9-3.15c5.55,3.54,8.53,7.74,7.3,14.62-1.7,9.51-2.67,19.15-3.94,28.56-8.68.68-10.83,8.85-17.13,12.09l-4.85-4.57c3.4-3.65,6.6-7.08,9.79-10.52l-1.67-1.91-10.89,9.25-8.24-7.5-25,23.85-6.14-5,3.35-4.83-.68-1.05c-1.17.33-2.61.32-3.45,1-5.47,4.61-11.09,9.11-16.1,14.19-3.64,3.69-6.43,8.22-10.25,13.25l-5.89-6.87c-.37-.39-.74-.77-1.1-1.16,2.57-2.05,5.25-4,7.64-6.21.79-.73.83-2.27,1.21-3.44-1.17.26-2.54.21-3.47.83-3.45,2.29-7.16,4.39-10,7.31-4,4.08-7.19,8.84-10.73,13.32-.54.68-1,1.42-1.52,2.13l-6.42-2.34c1.06,2.69,1.62,4.13,2.69,6.87l-11.39,9.57,6,6.78-13.16,13.34-6.5-4.79-1.39,1.66,5.24,6.55L227.57,382.5l1.3,1.38c6.75-2.15,9.75-9.24,15.68-13l8.69,9.15L239.31,394.4c-1.92-2.5-3.71-5-5.75-7.38-.5-.57-1.78-.46-2.7-.66.06,1.05-.29,2.55.26,3.08,2.26,2.12,4.8,3.94,7.36,6L222,411.09l-7.3-6.08-1.76,1.83,6.39,7.53-3,4.7.85,1.19,6-2.66,9.08,10.17c-2,2.11-4.31,4.55-8.26,8.7-2.34-3.12-4.24-6.24-6.72-8.81s-3.86-1.39-3.7,1.95ZM169.59,230.25c-.09,16.16,3.41,22.07,11.82,23a20,20,0,0,0,11.75-2.57c8.44-5.09,16.42-11,24.38-16.8,2.82-2.07,4.78-2.41,7.68-.08,6.07,4.89,12.34,9.55,18.81,13.9,5.14,3.46,10.41,7.08,16.14,9.26,9.91,3.78,18.18-1.76,19.38-12.2a18.93,18.93,0,0,0-.09-6.72c-3.14-12.23-6.4-24.43-9.87-36.57-.84-2.93-.64-4.6,2.12-6.41,7-4.57,13.72-9.42,20.38-14.4s13.2-9.63,19.12-15.17c8.73-8.16,6.49-19.37-4.65-23.57a43.18,43.18,0,0,0-14.72-2.47c-12,0-23.93.45-35.88,1-3.38.16-5-.84-5.78-4.17a183.64,183.64,0,0,0-5.46-18.42c-1.64-4.5-3.57-9.13-6.4-12.93-6.43-8.61-17.49-8.59-23.79.19-2.94,4.09-4.54,9.24-6.24,14.09-2,5.86-3.5,11.92-5.3,17.87-1.21,4-3.81,5.24-8.12,5.34-12.29.3-24.61.9-36.84,2.13-7.12.71-13.55,3.93-16.14,11.34-2.69,7.71-.39,14.6,5.72,19.69,8.51,7.08,17.34,13.79,26.24,20.38,2.93,2.16,3.7,3.89,2.6,7.61C173.38,214,171,224.6,169.59,230.25ZM376,259.49c-4.06,3.77-6.47,9.54-12.64,7.77v8.47c4.92-3.76,6.68.95,9.43,3.36a44.25,44.25,0,0,0,3.35,3.23,10.79,10.79,0,0,0,3.09,1c-.22-1.17-.05-2.75-.75-3.42-3-2.85-6.17-5.42-9.29-8.09l9.18-9.49,4.88,2.14c-.25-3.75-.44-6.63-.71-10.77-4,5.08-5.46.81-7.77-.92a41.71,41.71,0,0,0-4.3-2.52l-1.1,1.59Z"/>
                <path class="cls-2"
                      d="M247.34,367.36,261,355.18l9.19,8.44c-2.5,6.05-5.18,12.52-7.91,19.15C257.4,377.72,252.68,372.85,247.34,367.36Z"/>
                <path class="cls-2" d="M241.11,399.81l9.39,8.76-15.1,16.19-9.54-10.48Z"/>
                <path class="cls-2"
                      d="M238.91,427.3l6.27-7.05,1.18.71c-3.91,8.73-7.49,17.64-11.92,26.1-1.48,2.83-5.14,6.21-7.8,6.21-2.51,0-5-4.12-8.27-7.1l6.25-5.28,6.56,4.19,1.2-1.38c-1.41-2-2.81-3.95-4.41-6.2l7.58-6.4,4.26,1Z"/>
                <path class="cls-2" d="M280.83,321.18l6.58,5.47-7.87,14.15-10-9Z"/>
                <path class="cls-2"
                      d="M256.94,383.52l4,2.3c-2.72,6.54-5.43,13-8.35,20.07L243.86,396C247.83,392.17,252.17,388,256.94,383.52Z"/>
                <path class="cls-2" d="M322.84,313.23l11.88,11.55-25.4,2.89C314.43,322.2,318.78,317.57,322.84,313.23Z"/>
                <path class="cls-2"
                      d="M378.27,290.79a44.75,44.75,0,0,1-19.85,24.94c-.83.51-2.3,0-3.47,0,.28-1,.29-2.22.9-3a26.7,26.7,0,0,1,4.74-4.76,78.25,78.25,0,0,1,7.36-4.28C366.8,297,375.09,295.67,378.27,290.79Z"/>
                <path class="cls-2"
                      d="M335,318.17l9.48-8.86a56.19,56.19,0,0,0,3.49,7.08c.74,1.09,2.42,1.55,3.56,2.22C344.54,324.12,339.37,324.19,335,318.17Z"/>
                <path class="cls-2" d="M271.54,360.11l-8.74-8.43,9.72-8.05,4.77,3.13Z"/>
                <path class="cls-2" d="M354,293.92l-10.94,10.3c-1.36-1.87-2.83-3.92-4.46-6.18l10.78-9.35Z"/>
                <path class="cls-2" d="M315.75,304.62l4.55,5-9.36,9.87-5-6.33Z"/>
                <path class="cls-2"
                      d="M308.06,322.44c-.56,1.31-1.31,3.11-2.18,5.16-2.56.24-5.46.67-8.37.68-1.35,0-2.7-.8-4.05-1.24a15.6,15.6,0,0,1,1.68-3.37c2.21-2.62,4.6-5.1,7.7-8.48C304.74,317.84,306.22,319.89,308.06,322.44Z"/>
                <path class="cls-2" d="M350.36,311.48l-4.1-4.51c3.75-3.33,7.3-6.48,11.33-10l3,5.09Z"/>
                <path class="cls-2"
                      d="M326.63,309.48l8.79-8.36,4.46,5.85c-2.41,2.47-5.23,5.34-8.34,8.51C330.1,313.72,328.52,311.8,326.63,309.48Z"/>
                <path class="cls-2" d="M266.28,336.78l2.75,3.27-8.57,8.81-4.23-3.76Z"/>
                <path class="cls-2" d="M213.52,429.61l8.94,7.85-4.55,5c-1.65-4.82-3-8.84-4.4-12.86Z"/>
                <path class="cls-2" d="M384.54,244.15l-3.6-4.43,4.62-4.26v8Z"/>
                <path d="M169.59,230.25c1.42-5.65,3.79-16.27,6.86-26.69,1.1-3.72.33-5.45-2.6-7.61-8.9-6.59-17.73-13.3-26.24-20.38-6.11-5.09-8.41-12-5.72-19.69,2.59-7.41,9-10.63,16.14-11.34,12.23-1.23,24.55-1.83,36.84-2.13,4.31-.1,6.91-1.36,8.12-5.34,1.8-5.95,3.26-12,5.3-17.87,1.7-4.85,3.3-10,6.24-14.09,6.3-8.78,17.36-8.8,23.79-.19,2.83,3.8,4.76,8.43,6.4,12.93a183.64,183.64,0,0,1,5.46,18.42c.83,3.33,2.4,4.33,5.78,4.17,12-.54,23.92-1,35.88-1a43.18,43.18,0,0,1,14.72,2.47c11.14,4.2,13.38,15.41,4.65,23.57-5.92,5.54-12.6,10.3-19.12,15.17s-13.43,9.83-20.38,14.4c-2.76,1.81-3,3.48-2.12,6.41,3.47,12.14,6.73,24.34,9.87,36.57a18.93,18.93,0,0,1,.09,6.72c-1.2,10.44-9.47,16-19.38,12.2-5.73-2.18-11-5.8-16.14-9.26-6.47-4.35-12.74-9-18.81-13.9-2.9-2.33-4.86-2-7.68.08-8,5.84-15.94,11.71-24.38,16.8a20,20,0,0,1-11.75,2.57C173,252.32,169.5,246.41,169.59,230.25Zm57.92-115.18-4.83,5.49,4.33,6-1.09,1.3c-1.28-.73-2.57-1.44-3.84-2.18-1-.57-1.94-1.19-2.93-1.75-1.27-.73-2.57-1.41-4-2.22L212.54,133l7.37-5,1.29,1.48-5,6.34,2.61,5.62-1.32.84L212.67,139c-1.77,1.54-3.58,3.12-4.24,3.71.95,2.33,1.5,3.56,2,4.82s.77,2.27,1.1,3.42.56,2.3.84,3.45a18.21,18.21,0,0,1-3.16-.89,24.63,24.63,0,0,1-3.41-2.58,54.14,54.14,0,0,1-4.21,5.42c-.64.66-2,.59-3.06.85.17-1,0-2.28.58-3.06a47.4,47.4,0,0,1,4.29-4.72c-2.43,0-4.12-.26-5.69.07a30.09,30.09,0,0,0-4.92,1.94c.88,1.39,1.72,2.8,2.63,4.16,1,1.51,2.1,3,3.16,4.46l-1.72,1.32-7.19-6.16c-3.26.41-4,5.65-8.8,3.41l5.83-7.29c-5.36-2.85-10.17-.91-15.91-1.13l11,11.63-1.72,1.9-6.88-5.16-6.51,7,1.13,5.22-5.42-1L157,174.85c1.58,1.29,2.86,2.43,4.24,3.43,6.88,5,13.79,9.88,20.69,14.82,3.27,2.35,3.92,5.15,2.46,9a110,110,0,0,0-5.32,17.36,87.47,87.47,0,0,0-2,19.52c.2,6.89,4.93,9.18,11.33,6.39a28.19,28.19,0,0,0,4.88-2.93c7.94-5.57,15.91-11.11,23.75-16.84,3.12-2.28,5.79-2.32,8.87,0,4.82,3.68,9.79,7.17,14.73,10.68,5.78,4.12,11.32,8.7,17.53,12,3.11,1.68,8.48,2.62,11,1s2.41-6.81,3.38-10.46a4.25,4.25,0,0,0-.31-2c-3.05-10.63-6.06-21.28-9.21-31.89-3-10.09-2.71-10.62,5.7-16.59Q286.52,175.79,304,162.7c3.06-2.27,6.71-5.57,4.52-9.44-1.56-2.77-5.59-4.95-8.92-5.73-4.8-1.13-10-1.06-15-1-10.74.17-21.48.67-32.22,1-4.41.15-7-1.66-8.1-6.21-1.93-7.72-4.21-15.38-6.8-22.9a49.65,49.65,0,0,0-5.55-10.41c-.44-.69-2.53-.32-3.86-.45a14.4,14.4,0,0,0,1.09,3.42c1,1.67,2.36,3.15,3.56,4.72l-1.19,1.16Zm-68,52.12L150.06,157c-3.38,5.58-2,10.16,4.76,15.35Zm3.28-3.43,8.39-7.86-4.32-4-8.12,7.6C160.3,161.12,161.46,162.33,162.83,163.76Zm57.11-45.92,5.33-5L219.19,110C218.85,112.37,214.5,114.83,219.94,117.84ZM155,156l6.7-4.22-.71-1-8.37,2.57Z"/>
                <path d="M376,259.49l-6.63-7.64,1.1-1.59a41.71,41.71,0,0,1,4.3,2.52c2.31,1.73,3.79,6,7.77.92.27,4.14.46,7,.71,10.77l-4.88-2.14-9.18,9.49c3.12,2.67,6.34,5.24,9.29,8.09.7.67.53,2.25.75,3.42a10.79,10.79,0,0,1-3.09-1,44.25,44.25,0,0,1-3.35-3.23c-2.75-2.41-4.51-7.12-9.43-3.36v-8.47C369.53,269,371.94,263.26,376,259.49Z"/>
                <path class="cls-3"
                      d="M227.51,115.07l4,1.85,1.19-1.16c-1.2-1.57-2.53-3.05-3.56-4.72a14.4,14.4,0,0,1-1.09-3.42c1.33.13,3.42-.24,3.86.45a49.65,49.65,0,0,1,5.55,10.41c2.59,7.52,4.87,15.18,6.8,22.9,1.14,4.55,3.69,6.36,8.1,6.21,10.74-.37,21.48-.87,32.22-1,5-.08,10.17-.15,15,1,3.33.78,7.36,3,8.92,5.73,2.19,3.87-1.46,7.17-4.52,9.44q-17.49,13.05-35.27,25.72c-8.41,6-8.7,6.5-5.7,16.59,3.15,10.61,6.16,21.26,9.21,31.89a4.25,4.25,0,0,1,.31,2c-1,3.65-1,8.9-3.38,10.46s-7.85.67-11-1c-6.21-3.34-11.75-7.92-17.53-12-4.94-3.51-9.91-7-14.73-10.68-3.08-2.35-5.75-2.31-8.87,0-7.84,5.73-15.81,11.27-23.75,16.84a28.19,28.19,0,0,1-4.88,2.93c-6.4,2.79-11.13.5-11.33-6.39a87.47,87.47,0,0,1,2-19.52,110,110,0,0,1,5.32-17.36c1.46-3.89.81-6.69-2.46-9-6.9-4.94-13.81-9.86-20.69-14.82-1.38-1-2.66-2.14-4.24-3.43l5.38-5.12,5.42,1-1.13-5.22,6.51-7,6.88,5.16,1.72-1.9-11-11.63c5.74.22,10.55-1.72,15.91,1.13l-5.83,7.29c4.77,2.24,5.54-3,8.8-3.41l7.19,6.16,1.72-1.32c-1.06-1.48-2.14-2.95-3.16-4.46-.91-1.36-1.75-2.77-2.63-4.16a30.09,30.09,0,0,1,4.92-1.94c1.57-.33,3.26-.07,5.69-.07a47.4,47.4,0,0,0-4.29,4.72c-.54.78-.41,2-.58,3.06,1-.26,2.42-.19,3.06-.85a54.14,54.14,0,0,0,4.21-5.42,24.63,24.63,0,0,0,3.41,2.58,18.21,18.21,0,0,0,3.16.89c-.28-1.15-.52-2.31-.84-3.45s-.68-2.3-1.1-3.42-1-2.49-2-4.82c.66-.59,2.47-2.17,4.24-3.71l4.83,3.22,1.32-.84-2.61-5.62,5-6.34L219.91,128l-7.37,5,2.57-11.22c1.47.81,2.77,1.49,4,2.22,1,.56,1.94,1.18,2.93,1.75,1.27.74,2.56,1.45,3.84,2.18l1.09-1.3-4.33-6Z"/>
                <path class="cls-3" d="M159.55,167.19l-4.73,5.15c-6.76-5.19-8.14-9.77-4.76-15.35Z"/>
                <path class="cls-3" d="M162.83,163.76c-1.37-1.43-2.53-2.64-4.05-4.21l8.12-7.6,4.32,4Z"/>
                <path class="cls-3" d="M219.94,117.84c-5.44-3-1.09-5.47-.75-7.84l6.08,2.87Z"/>
                <path class="cls-3" d="M155,156l-2.38-2.67,8.37-2.57.71,1Z"/>
            </g>
        </g>
    </g>
</svg>
