<svg viewBox="0 0 470 470" xmlns="http://www.w3.org/2000/svg">
    <defs>
        <style>
            .cls-1{isolation:isolate;}.cls-2{fill:#00a5c3;opacity:0.46;}.cls-2,.cls-3{mix-blend-mode:multiply;}.cls-3{fill:#ee707c;opacity:0.34;}.cls-4{fill:#fff;}
        </style>
    </defs>
    <title>Sans titre - 1</title>
    <g class="cls-1">
        <g data-name="Calque 1" id="Calque_1">
            <g id="uutWE6.tif">
                <path d="M22,119.84c.75-3.75,1.47-7.5,2.27-11.23,5-23.27,19.53-39.1,39.62-50.46C81.81,48,101.41,43,121.63,40.62a1701.8,1701.8,0,0,1,232.47-11c13.77.28,27.67,2.53,41.16,5.47,33,7.2,52,28.69,58.44,61.36,2.21,11.28,4.08,22.9,3.93,34.33q-1.39,102.41-4,204.79a131,131,0,0,1-11.49,50.59c-8.69,19.28-23.38,31.35-43.59,37-16.44,4.61-33.29,5.58-50.22,5.64-81.51.25-163,.58-244.51.44A157.81,157.81,0,0,1,68,425.42c-23.56-5.56-34.72-18.94-37.82-43-.85-6.61-1.08-13.33-1.28-20q-2.82-94.08-5.55-188.17c-.17-5.77-.89-11.52-1.36-17.28Zm428.54,35.28-420.6,3.25c0,2.42-.06,4.23,0,6,1.78,49.5,3.7,99,5.29,148.51.65,20.4.13,40.85.94,61.24,1.12,28.21,12.76,41.67,40.58,46.19,12.14,2,24.66,2.17,37,2.18q90.63,0,181.25-.54c28.27-.2,56.62,0,84.76-2.16,34.89-2.67,53.68-20.22,62.28-54.17,4.55-18,5.59-36.33,6-54.75q1.29-61.25,2.49-122.48C450.71,177.58,450.54,166.72,450.54,155.12ZM29.6,151.53l421.09-3.28a18.41,18.41,0,0,0,.48-2.55c.23-18-.84-35.81-5.38-53.27-6.88-26.4-23.46-43.21-50-50.39-18.29-5-36.95-5.85-55.71-6-53.07-.34-106.08,1.23-159,5.76C155.7,44,130.25,46.91,105,50.73a107.25,107.25,0,0,0-49.38,21C28.73,92.26,27,120.88,29.6,151.53Z"/>
                <path class="cls-2"
                      d="M450.54,155.12c0,11.6.17,22.46,0,33.31q-1.14,61.23-2.49,122.48c-.38,18.42-1.42,36.76-6,54.75-8.6,33.95-27.39,51.5-62.28,54.17-28.14,2.15-56.49,2-84.76,2.16q-90.61.66-181.25.54c-12.34,0-24.86-.21-37-2.18-27.82-4.52-39.46-18-40.58-46.19-.81-20.39-.29-40.84-.94-61.24-1.59-49.51-3.51-99-5.29-148.51-.07-1.81,0-3.62,0-6Z"/>
                <path class="cls-3"
                      d="M29.6,151.53c-2.61-30.65-.87-59.27,26-79.76a107.25,107.25,0,0,1,49.38-21c25.27-3.82,50.72-6.71,76.19-8.9,52.88-4.53,105.89-6.1,159-5.76,18.76.12,37.42,1,55.71,6,26.49,7.18,43.07,24,50,50.39,4.54,17.46,5.61,35.31,5.38,53.27a18.41,18.41,0,0,1-.48,2.55ZM383.9,63.26c-13,0-27,14.71-26.92,28.19.11,11.3,11.31,20.34,25,20.18,14.37-.17,25.69-11,25.74-24.71S397.66,63.22,383.9,63.26ZM98,110c11.41,0,20.2-9.14,20.25-21.09s-9.57-21.1-22.17-21c-12.28.1-21.83,9-21.76,20.28C74.38,99.89,85.3,109.94,98,110Z"/>
                <path d="M116.71,238.39l-11.94-1.7-.14-2.79,12.71-1.69V207.07c7,3.75,4.21,8.69,4.65,12.45.48,4.12.11,8.35.11,12.8l15.39,1.23.12,3.24c-3.11.33-6.23,1-9.31.9-4.43-.18-6.46,1.14-6.23,6,.34,7,.09,14.1.09,21.71l14.45,2-.13,3-13.76,1V300l12.76,1.21.22,2.88-13,1.88V338.5l13.77,1.5.24,3-14.12,2.19v20.36l20,1.12v2.65c-5.87,4.28-13.28.24-19.82,2.67L121,384h-2.82c-.53-3.9-1-7.79-1.61-11.89L108,369.87l-.12-2.14,8.91-2.73V344.84l-14-1.41,0-3.11,14.46-1.94c0-9.69.14-19.52-.17-29.34,0-1.28-2.26-2.81-3.79-3.66s-3.51-1.05-5.3-1.53l.09-2.17,8.75-1.81V271.61l-13.1-1.45-.08-2.87,13.15-1.82Z"/>
                <path d="M211.12,234.37l-11.94-1.7-.14-2.78,12.71-1.7V203.05c7,3.75,4.21,8.69,4.65,12.45.48,4.13.11,8.35.11,12.8l15.39,1.23.12,3.25c-3.1.32-6.22,1-9.31.89-4.43-.17-6.45,1.14-6.23,6,.34,7,.09,14.1.09,21.71l14.45,2-.13,3-13.76,1V296l12.76,1.22.22,2.87-13,1.88v32.49l13.77,1.5.24,3L217,341.17v20.36l20,1.12,0,2.65c-5.88,4.28-13.29.24-19.83,2.67l-1.72,12h-2.82c-.53-3.89-1.05-7.79-1.61-11.88l-8.65-2.24-.12-2.14,8.91-2.73V340.83l-14-1.42,0-3.11,14.46-1.93c0-9.69.14-19.53-.17-29.34-.05-1.29-2.26-2.81-3.79-3.66s-3.51-1.06-5.29-1.54l.08-2.17,8.75-1.81V267.59l-13.09-1.44-.09-2.87,13.15-1.83Z"/>
                <path d="M287.46,232.36l-11.95-1.7-.13-2.78,12.7-1.7V201c7,3.75,4.21,8.69,4.65,12.46.48,4.12.11,8.34.11,12.79l15.39,1.23.12,3.25c-3.1.33-6.22,1-9.31.89-4.42-.17-6.45,1.15-6.22,6,.33,7,.08,14.1.08,21.71l14.46,2-.14,3-13.76,1V294l12.76,1.22.23,2.87-13,1.88v32.49L307.2,334l.24,3-14.12,2.19v20.36l20,1.12v2.65c-5.87,4.28-13.29.24-19.82,2.67-.56,3.9-1.15,8-1.73,12H289c-.52-3.89-1.05-7.79-1.6-11.88l-8.66-2.24-.12-2.14,8.91-2.73V338.82l-14-1.42-.05-3.11,14.46-1.93c0-9.69.14-19.52-.17-29.34,0-1.29-2.26-2.81-3.78-3.66s-3.52-1.05-5.3-1.54l.08-2.17,8.76-1.81V265.58l-13.1-1.44-.09-2.87,13.16-1.83Z"/>
                <path d="M357.76,232.36l-11.94-1.7-.14-2.78,12.71-1.7V201c7,3.75,4.21,8.69,4.65,12.46.48,4.12.11,8.34.11,12.79l15.39,1.23.12,3.25c-3.11.33-6.23,1-9.31.89-4.43-.17-6.46,1.15-6.23,6,.34,7,.09,14.1.09,21.71l14.45,2-.13,3-13.76,1V294l12.76,1.22.22,2.87-13,1.88v32.49L377.51,334l.24,3-14.12,2.19v20.36l20,1.12v2.65c-5.87,4.28-13.28.24-19.82,2.67l-1.72,12h-2.82c-.53-3.89-1.05-7.79-1.61-11.88L349,363.84l-.11-2.14,8.91-2.73V338.82l-14-1.42-.05-3.11,14.46-1.93c0-9.69.14-19.52-.18-29.34,0-1.29-2.25-2.81-3.78-3.66s-3.51-1.05-5.3-1.54l.09-2.17,8.75-1.81V265.58l-13.1-1.44-.08-2.87,13.15-1.83Z"/>
                <path d="M383.9,63.26c13.76,0,23.87,10,23.82,23.66S396.35,111.46,382,111.63c-13.69.16-24.89-8.88-25-20.18C356.85,78,370.85,63.3,383.9,63.26Zm-17,19.48c-4.51,7.65-4.1,8.93,4.81,15.8l5.92-6.48-11-6.8C366.63,85.39,366.74,84.43,366.94,82.74Z"/>
                <path d="M98,110c-12.69,0-23.61-10.06-23.68-21.8C74.24,76.88,83.79,68,96.07,67.87c12.6-.11,22.22,9,22.17,21S109.4,110,98,110Zm-8.61-10c6.84,5,15.38,3.69,19.57-2.72,4.52-6.91,2.79-15.52-5.14-20.27-.51,3-.92,5.51-1.36,8.15L95.86,84c-.18-1.53-.35-3-.64-5.41l-3.46,3c1.91,3.34,4.74,6.19,4.92,9.19.16,2.74-2.54,5.65-4.32,9.17Zm4.85-9.64L84,80.89c-3.3,4.42-2.16,6.67,6.94,12.76Z"/>
                <path class="cls-4"
                      d="M366.94,82.74c-.2,1.69-.31,2.65-.3,2.52l11,6.8-5.92,6.48C362.84,91.67,362.43,90.39,366.94,82.74Z"/>
                <path class="cls-3"
                      d="M89.38,100h3c1.78-3.52,4.48-6.43,4.32-9.17-.18-3-3-5.85-4.92-9.19l3.46-3c.29,2.43.46,3.88.64,5.41l6.59,1.16c.44-2.64.85-5.11,1.36-8.15,7.93,4.75,9.66,13.36,5.14,20.27C104.76,103.65,96.22,105,89.38,100Z"/>
                <path class="cls-3" d="M94.23,90.32,91,93.65c-9.1-6.09-10.24-8.34-6.94-12.76Z"/>
            </g>
            <path class="cls-3"
                  d="M366.94,84.75c-4.51,7.65-4.1,8.93,4.81,15.8l5.92-6.48-11-6.8C366.63,87.4,366.74,86.44,366.94,84.75Z"/>
        </g>
    </g>
</svg>
