<svg data-name="Calque 1" id="Calque_1" viewBox="0 0 179.62 326.3" xmlns="http://www.w3.org/2000/svg">
    <defs>
        <style>
            .cls-1{fill:#484848;}.cls-2{fill:#fff;}.cls-3{fill:none;stroke:#fff;stroke-linecap:round;stroke-linejoin:round;stroke-width:0.5px;}
        </style>
    </defs>
    <title>castor résa</title>
    <g data-name="Groupe 1176" id="Groupe_1176">
        <g data-name="Groupe 1066" id="Groupe_1066">
            <path class="cls-1"
                  d="M269.69,28.43c-.25,2-.55,4.08-.75,6.13-1.53,15.82-3.58,31.53-8.18,46.82-6.4,21.27-15.47,41.46-24.61,61.63a290.84,290.84,0,0,1-25.53,44.9c-11.73,17.05-25.43,32.61-40.07,47.27-6.85,6.85-14.11,13.28-21.14,19.95-5.18,4.9-12.28,7.66-15.92,14.28-2.39,4.35-5.42,8.49-7,13.12-2.5,7.31-1.95,15-1,22.65.82,6.29-1,10-6.35,12.87-5.72,3.12-10.65,1.35-12.87-4.88A86.46,86.46,0,0,1,103.18,302c-1.42-6.64-2.27-13.41-4-20a73.43,73.43,0,0,0-5.13-12.69,4.54,4.54,0,0,0-1.49-1.79c.2,1.89.41,3.78.61,5.67.08.18.16.35.23.54,2.09,6,3.71,12.12,5.24,18.28,1.93,7.78,3.46,15.67,5.42,23.44.94,3.73,3.35,6.62,6.43,9,6,4.68,14,4.51,16.83-5a11.89,11.89,0,0,0,.62-3.06c0-4.78-.14-9.57-.09-14.35.05-5.42-.06-10.86.49-16.23.45-4.45,2.09-4.94,6.12-4.34a191.19,191.19,0,0,0,19.7,1.93c3.49.16,7-.75,10.56-1.13,11.41-1.21,22.42-3.78,32.33-9.85,5.49-3.35,9.86-7.67,11.69-14.12,1.95-6.83-1-12.43-7.72-14.88-6.9-2.51-14-3-21.28-3.13a31.81,31.81,0,0,1-4.93-.87,30.49,30.49,0,0,1,2.67-4.27c10-11.36,20.55-22.28,30-34.11,11-13.85,18.89-29.82,26.79-45.57,16.88-33.67,30.32-68.61,35.19-106.3.9-6.86,1.13-13.81,1.67-20.71Z"
                  transform="translate(-91.51 -18.71)"/>
            <path class="cls-1" d="M133.25,88.25" data-name="Tracé 10872" id="Tracé_10872"
                  transform="translate(-91.51 -18.71)"/>
            <path class="cls-1" d="M148.42,30.31c.77-.62,1.48-1.64,2.34-1.8,4.61-.83,9.23-1.68,13.88-2.08a45.39,45.39,0,0,1,33.81,10.46A28.59,28.59,0,0,1,203,42c1,1.37,2.09,1.42,3.7,1.42,4,0,8.19-.09,12,.91,11.41,3,13.71,16.31,9.27,25.16-1.77,3.52-4.8,6.53-7.68,9.34-1.54,1.51-4,2.49-6.64,0,2-.68,3.69-.92,5-1.76,6-3.94,9.22-16,6.12-22.63A14.15,14.15,0,0,0,206,47.57c-2.57,1.23-3.71,1-5.43-1.54-7.79-11.46-19.21-16.32-32.7-16.44-5.61-.05-11.23.94-16.84,1.45-.7.06-1.4.07-2.09.1Z" data-name="Tracé 10873"
                  id="Tracé_10873"
                  transform="translate(-91.51 -18.71)"/>
            <path class="cls-1"
                  d="M91.51,88A122.25,122.25,0,0,1,107.46,85l-.34-1a3,3,0,0,0-.8-.34c-.83-.06-1.67-.07-2.5-.06a76.63,76.63,0,0,0-12.19,1Z"
                  transform="translate(-91.51 -18.71)"/>
            <path class="cls-1" d="M138.66,29.36a13.35,13.35,0,0,0-3.07-.6c-2.63.27-5.76-.12-7.79,1.17-5.66,3.62-9.58,8.69-9.43,15.93,0,.81,0,2,.49,2.38,2.9,2.35,1.41,5.06.91,7.75-.86,4.51-1.85,9-2.39,13.55-.91,7.59,1.21,14.45,5.69,20.62,1.07,1.48,1.93,3.12,2.88,4.68l-.81.89a10.79,10.79,0,0,1-2.35-1.8c-9-12.06-10.28-25.4-6.31-39.52a8.39,8.39,0,0,0-.19-5.92c-2.48-6.24.19-11.67,3.78-16.6,3.14-4.33,7.26-7.14,13-6.65C135.49,25.44,137.15,26.51,138.66,29.36Z" data-name="Tracé 10876"
                  id="Tracé_10876"
                  transform="translate(-91.51 -18.71)"/>
            <path class="cls-1" d="M227.54,94.46c-2.26,5.08-4.07,10.44-6.89,15.19A75.2,75.2,0,0,1,201.14,131a22.48,22.48,0,0,1-14,4.59c-2.47,0-4.94-.39-6.12-3.12,3.33-.38,6.5-.59,9.62-1.14,7.58-1.34,12.47-6.93,17.66-11.82A76.45,76.45,0,0,0,224.73,97.6a39.31,39.31,0,0,1,2.08-3.38Z" data-name="Tracé 10877"
                  id="Tracé_10877"
                  transform="translate(-91.51 -18.71)"/>
            <path class="cls-1" d="M213.41,50.19c2.63,5.06,4,10.39,2.55,16.12-1.08,4.24-2.52,4.61-5.92,1.91-2.27-1.79-2-4.5-.48-7.07,1.37-2.3,1.8-5.19,2.52-7.85a16.36,16.36,0,0,0,.26-3.12Z" data-name="Tracé 10878"
                  id="Tracé_10878"
                  transform="translate(-91.51 -18.71)"/>
            <path class="cls-1" d="M245.8,32.77c5.55,3.68-.21,27.49-7.57,33.73C242.9,55.94,246.28,45.07,245.8,32.77Z" data-name="Tracé 10879"
                  id="Tracé_10879"
                  transform="translate(-91.51 -18.71)"/>
            <path class="cls-1" d="M262.72,18.71c3.68,3.67,1.92,14.95-2.08,17.39Z" data-name="Tracé 10882"
                  id="Tracé_10882" transform="translate(-91.51 -18.71)"/>
            <path class="cls-1" d="M142.72,61.8c-2.12-4.71-6-4.92-10.47-4.19.26-2.47,2.08-2.67,3.73-2.87,3.48-.42,7,1.11,7.91,3.62.37,1,0,2.2,0,3.31Z" data-name="Tracé 10883"
                  id="Tracé_10883"
                  transform="translate(-91.51 -18.71)"/>
            <path class="cls-1" d="M252.11,38.06l2.54-14.16C257.77,27.34,256.62,34.5,252.11,38.06Z" data-name="Tracé 10884"
                  id="Tracé_10884"
                  transform="translate(-91.51 -18.71)"/>
        </g>
        <path class="cls-1" d="M143.25,98.91c-6.72-2.47-9.75-7.33-8.42-13.33,1.86,7.3,4.83,10.92,9,10.91s6.27-2.41,8.06-9.18c-4.58-2.69-6.57-6.63-5.12-12,1-3.68,5.09-7.45,8.85-8s9.34,3.68,9.83,7.95a12.15,12.15,0,0,1-3.35,10.39c-1.45,1.4-4.05,1.87-6.21,2.18-1.63.24-2.37.69-2.76,2.25-1.15,4.5.87,8,5.35,9,7.47,1.65,11-.4,14.37-8.22.73,3.76-2.21,8.54-6,9.77a5,5,0,0,1-1.84.38c-4.66-.41-7,2.38-8.62,6.17-1.26,3-3.28,3.85-6.24,2.46a2.64,2.64,0,0,0-.61-.17c-1.78-.42-4.52-.29-5.14-1.37-1-1.83-.74-4.42-1-6.7C143.28,100.49,143.28,99.67,143.25,98.91Zm8-1.58c-1.75,8.53-1.4,10.14,2.54,10.7l3.58-6.46Zm-2.59,10.52.68-11c-4.75,1.74-5.57,3.35-4.08,8.44.26.9,1.83,1.42,3.4,2.55ZM161.22,79.2c3.11-3.11,2.62-5.12-1.2-6.25Z" data-name="Tracé 10886"
              id="Tracé_10886"
              transform="translate(-91.51 -18.71)"/>
        <path class="cls-2" d="M151.29,97.33l6.12,4.24L153.83,108C149.89,107.47,149.54,105.86,151.29,97.33Z" data-name="Tracé 10887"
              id="Tracé_10887"
              transform="translate(-91.51 -18.71)"/>
        <path class="cls-2" d="M148.7,107.85c-1.57-1.13-3.14-1.65-3.4-2.55-1.49-5.09-.67-6.7,4.08-8.43Z" data-name="Tracé 10888"
              id="Tracé_10888"
              transform="translate(-91.51 -18.71)"/>
        <path class="cls-2" d="M161.22,79.2,160,73C163.84,74.08,164.33,76.09,161.22,79.2Z" data-name="Tracé 10889"
              id="Tracé_10889" transform="translate(-91.51 -18.71)"/>
        <path class="cls-1" d="M190.16,72.56c-3.95-5.6-9.41-2.88-14.45-2.63.88-3,3.12-4.21,6.45-3.88C187,66.53,190,68.63,190.16,72.56Z" data-name="Tracé 10890"
              id="Tracé_10890"
              transform="translate(-91.51 -18.71)"/>
        <path class="cls-1" d="M138.74,317.07c2.48,6.21-2.27,16.35-8.87,20.34-4.51,2.72-9.62,3.14-12.41.4C130.46,337.21,134.67,327.65,138.74,317.07Z" data-name="Tracé 10891"
              id="Tracé_10891"
              transform="translate(-91.51 -18.71)"/>
        <path class="cls-1" d="M140.59,334.3c.2,3.95-2.47,7.76-6.73,9.54-1.62.67-3.51,2.17-5,.18Z" data-name="Tracé 10892"
              id="Tracé_10892"
              transform="translate(-91.51 -18.71)"/>
        <path class="cls-3" d="M169.52,247.16s9.67,14.82,3.37,30.06" data-name="Tracé 10893" id="Tracé_10893"
              transform="translate(-91.51 -18.71)"/>
        <path class="cls-3" d="M157.57,250.93s9.66,14.81,3.36,30.05" data-name="Tracé 10894" id="Tracé_10894"
              transform="translate(-91.51 -18.71)"/>
        <path class="cls-3" d="M182.21,239.79s10.66,17,2.23,34.94" data-name="Tracé 10895" id="Tracé_10895"
              transform="translate(-91.51 -18.71)"/>
        <path class="cls-3" d="M205.34,257.29s-20.15,18.12-57.26,17.85" data-name="Tracé 10896" id="Tracé_10896"
              transform="translate(-91.51 -18.71)"/>
        <path class="cls-3" d="M204.19,249.63s-20,17.22-57.27,16.1" data-name="Tracé 10897" id="Tracé_10897"
              transform="translate(-91.51 -18.71)"/>
        <path class="cls-3" d="M197,243.74s-16.1,13.66-44.8,12.92" data-name="Tracé 10898" id="Tracé_10898"
              transform="translate(-91.51 -18.71)"/>
        <path class="cls-3" d="M194.56,243.28s7.71,11.9,2.3,24.39" data-name="Tracé 10899" id="Tracé_10899"
              transform="translate(-91.51 -18.71)"/>
        <path class="cls-3" d="M148.27,254.28s7.71,11.9,2.3,24.39" data-name="Tracé 10900" id="Tracé_10900"
              transform="translate(-91.51 -18.71)"/>
    </g>
</svg>
