<svg viewBox="0 0 470 470" xmlns="http://www.w3.org/2000/svg">
    <defs>
        <style>.cls-1{isolation:isolate;}.cls-2{fill:#00a5c3;opacity:0.46;mix-blend-mode:multiply;}</style>
    </defs>
    <title>Sans titre - 1</title>
    <g class="cls-1">
        <g data-name="Calque 1" id="Calque_1">
            <path d="M78.77,373.49c3.74-14.86,10-42.79,18.06-70.18,2.88-9.79.86-14.34-6.84-20-23.42-17.32-46.64-35-69-53.6C4.9,216.3-1.16,198.2,5.93,177.93c6.81-19.49,23.72-28,42.46-29.84,32.16-3.22,64.54-4.81,96.86-5.58,11.35-.27,18.19-3.58,21.36-14.07,4.73-15.64,8.57-31.58,13.95-47C185,68.7,189.23,55.15,197,44.39c16.57-23.08,45.66-23.13,62.56-.48,7.46,10,12.52,22.16,16.85,34a477.35,477.35,0,0,1,14.34,48.44c2.19,8.75,6.32,11.37,15.21,11,31.44-1.44,62.91-2.76,94.36-2.62,13,.07,26.65,2,38.71,6.51,29.31,11,35.19,40.52,12.24,62-15.58,14.56-33.15,27.07-50.29,39.88C383.41,256.17,365.61,269,347.34,281c-7.26,4.76-7.79,9.16-5.59,16.86,9.13,31.93,17.71,64,26,96.17,1.42,5.55.91,11.83.24,17.65-3.17,27.46-24.91,42-51,32.1-15.07-5.74-28.91-15.25-42.44-24.35-17-11.43-33.49-23.71-49.46-36.54-7.64-6.15-12.78-5.25-20.2.19-20.94,15.36-41.93,30.8-64.12,44.19a52.68,52.68,0,0,1-30.9,6.76C87.75,431.55,78.53,416,78.77,373.49ZM231.1,70.6,218.39,85l11.4,15.85-2.89,3.41c-3.36-1.9-6.75-3.78-10.09-5.72-2.59-1.5-5.09-3.13-7.69-4.61-3.35-1.9-6.76-3.71-10.63-5.82l-6.76,29.5,19.39-13.17,3.38,3.88c-4.49,5.72-9,11.43-13.13,16.69,2.36,5.07,4.62,9.92,6.87,14.77l-3.48,2.2-12.7-8.47-11.15,9.75c2.51,6.13,4,9.37,5.17,12.68,1.09,3,2,6,2.88,9s1.49,6,2.22,9.07c-2.79-.74-5.76-1.12-8.33-2.33-2.31-1.09-4.2-3.1-9-6.78-3.73,4.93-6.95,10-11.06,14.24-1.69,1.73-5.31,1.55-8.05,2.25.45-2.73.1-6,1.52-8.07,2.71-4,6.44-7.2,11.28-12.39-6.38,0-10.84-.69-15,.18-4.46.94-8.62,3.34-12.91,5.1,2.29,3.65,4.49,7.35,6.9,10.92,2.67,4,5.53,7.84,8.31,11.75l-4.52,3.47-18.9-16.22c-8.58,1.09-10.62,14.86-23.15,9,5.6-7,9.94-12.42,15.32-19.15-14.09-7.5-26.73-2.41-41.84-3l29,30.57-4.51,5L88.25,185,71.13,203.31c1.23,5.68,2.1,9.71,3,13.73l-14.26-2.7L45.69,227.82c4.16,3.37,7.51,6.38,11.15,9,18.1,13.05,36.27,26,54.41,39,8.61,6.16,10.31,13.54,6.46,23.76-5.6,14.89-10.92,30.11-14,45.66-3.32,16.83-5.72,34.26-5.21,51.33.54,18.11,13,24.15,29.8,16.82a74.94,74.94,0,0,0,12.83-7.72c20.9-14.65,41.86-29.22,62.46-44.27,8.21-6,15.24-6.12,23.33.06,12.66,9.69,25.73,18.85,38.73,28.1,15.21,10.82,29.78,22.88,46.11,31.67,8.17,4.4,22.3,6.87,28.81,2.64,6.29-4.1,6.36-17.9,8.9-27.5.43-1.61-.31-3.63-.81-5.37-8-28-15.94-56-24.23-83.87-7.87-26.53-7.13-27.93,15-43.63q46.8-33.23,92.76-67.62c8-6,17.64-14.67,11.89-24.85-4.12-7.28-14.73-13-23.47-15.06-12.63-3-26.22-2.79-39.37-2.58-28.25.45-56.48,1.76-84.72,2.73-11.6.4-18.31-4.35-21.32-16.33-5.08-20.3-11.06-40.43-17.87-60.21-3.34-9.69-9-18.69-14.59-27.37-1.18-1.82-6.67-.86-10.17-1.18.91,3,1.26,6.39,2.87,9,2.7,4.39,6.2,8.29,9.37,12.39l-3.14,3.07ZM52.37,207.67,27.42,180.83c-8.9,14.68-5.27,26.72,12.51,40.39Zm8.63-9L83.07,178,71.7,167.58l-21.34,20ZM211.19,77.89l14-13.09-16-7.54C208.31,63.5,196.87,70,211.19,77.89ZM40.44,178.23l17.62-11.09-1.86-2.69-22,6.78Z"/>
            <path class="cls-2"
                  d="M231.1,70.6l10.59,4.87,3.14-3.07c-3.17-4.1-6.67-8-9.37-12.39-1.61-2.6-2-6-2.87-9,3.5.32,9-.64,10.17,1.18,5.59,8.68,11.25,17.68,14.59,27.37,6.81,19.78,12.79,39.91,17.87,60.21,3,12,9.72,16.73,21.32,16.33,28.24-1,56.47-2.28,84.72-2.73,13.15-.21,26.74-.4,39.37,2.58C429.37,158,440,163.74,444.1,171c5.75,10.18-3.86,18.86-11.89,24.85q-46,34.31-92.76,67.62c-22.13,15.7-22.87,17.1-15,43.63C332.74,335,340.65,363,348.68,391c.5,1.74,1.24,3.76.81,5.37-2.54,9.6-2.61,23.4-8.9,27.5-6.51,4.23-20.64,1.76-28.81-2.64-16.33-8.79-30.9-20.85-46.11-31.67-13-9.25-26.07-18.41-38.73-28.1-8.09-6.18-15.12-6.07-23.33-.06C183,376.44,162.05,391,141.15,405.66a74.94,74.94,0,0,1-12.83,7.72c-16.83,7.33-29.26,1.29-29.8-16.82-.51-17.07,1.89-34.5,5.21-51.33,3.06-15.55,8.38-30.77,14-45.66,3.85-10.22,2.15-17.6-6.46-23.76-18.14-13-36.31-25.94-54.41-39-3.64-2.62-7-5.63-11.15-9l14.16-13.48L74.11,217c-.88-4-1.75-8-3-13.73L88.25,185l18.1,13.56,4.51-5L81.82,163c15.11.57,27.75-4.52,41.84,3-5.38,6.73-9.72,12.16-15.32,19.15,12.53,5.89,14.57-7.88,23.15-9l18.9,16.22,4.52-3.47c-2.78-3.91-5.64-7.77-8.31-11.75-2.41-3.57-4.61-7.27-6.9-10.92,4.29-1.76,8.45-4.16,12.91-5.1,4.13-.87,8.59-.18,15-.18-4.84,5.19-8.57,8.44-11.28,12.39-1.42,2.06-1.07,5.34-1.52,8.07,2.74-.7,6.36-.52,8.05-2.25,4.11-4.22,7.33-9.31,11.06-14.24,4.76,3.68,6.65,5.69,9,6.78,2.57,1.21,5.54,1.59,8.33,2.33-.73-3-1.38-6.08-2.22-9.07s-1.79-6-2.88-9c-1.22-3.31-2.66-6.55-5.17-12.68l11.15-9.75,12.7,8.47,3.48-2.2c-2.25-4.85-4.51-9.7-6.87-14.77,4.14-5.26,8.64-11,13.13-16.69l-3.38-3.88-19.39,13.17,6.76-29.5c3.87,2.11,7.28,3.92,10.63,5.82,2.6,1.48,5.1,3.11,7.69,4.61,3.34,1.94,6.73,3.82,10.09,5.72l2.89-3.41L218.39,85Z"/>
            <path class="cls-2" d="M52.37,207.67,39.93,221.22c-17.78-13.67-21.41-25.71-12.51-40.39Z"/>
            <path class="cls-2" d="M61,198.64,50.36,187.56l21.34-20L83.07,178Z"/>
            <path class="cls-2" d="M211.19,77.89c-14.32-7.93-2.88-14.39-2-20.63l16,7.54Z"/>
            <path class="cls-2" d="M40.44,178.23l-6.27-7,22-6.78,1.86,2.69Z"/>
        </g>
    </g>
</svg>
