<svg viewBox="0 0 470 470" xmlns="http://www.w3.org/2000/svg">
    <defs>
        <style>
            .cls-1{isolation:isolate;}.cls-2{fill:#00a5c3;opacity:0.46;}.cls-2,.cls-3{mix-blend-mode:multiply;}.cls-3{fill:#ee707c;opacity:0.34;}
        </style>
    </defs>
    <title>Sans titre - 1</title>
    <g class="cls-1">
        <g data-name="Calque 1" id="Calque_1">
            <g id="u0kBtP.tif">
                <path d="M331.45,353.46c-1.42-11.67-2.91-23.35-4.9-34.93-6.5-37.89-12.68-75.84-20-113.57a1015.86,1015.86,0,0,0-36-134.62c-.64-1.87-2.56-3.29-3.88-4.92-1.71,1.49-3.94,2.67-5,4.52-3.84,6.61-7,13.62-10.93,20.18-31.57,52.78-74.06,94.26-128.31,123.51-4.27,2.31-8.15,4.93-13.22,1.32-1.73-1.23-4.76-1.24-7.08-.95-17,2.16-34.07,4.23-51,7-7.52,1.23-15.18,4.92-18,12.09-3.7,9.55-9.63,15.4-18.09,21-10.82,7.17-12.72,22.83-6.66,33.81A29.42,29.42,0,0,0,41.89,302.2c2.11-.56,5.35-.33,6.86.95a28.74,28.74,0,0,0,17.82,7.21c3.15.14,4,1.33,4.63,4.15C76.29,336.9,81.34,359.3,87,381.57a76.42,76.42,0,0,0,8,20.11c4.6,7.8,12.33,11.53,21.52,10,8.75-1.44,13.93-7.42,16.78-15.54,3.31-9.44,1.57-18.81-.5-28.16-4.94-22.42-9.9-44.83-15.06-68.19,6.51-1.8,10.9-5.65,13-12.08.36-1.11,2.85-2.15,4.37-2.17,9.13-.13,18.29-.35,27.4.18,43.06,2.46,83,15.31,119,38.76,14.76,9.6,27.73,21.95,41.66,32.86,1.83,1.44,4.49,1.8,6.76,2.67C330.49,357.83,331.7,355.56,331.45,353.46ZM126.28,226.89c1.2,2.35,2.35,4.57,3.48,6.78l-6.26,4.18C123,233.25,118.89,228.88,126.28,226.89ZM27.7,290.55c2.49-2.31,4.38-1.65,6.3.93.58.77,2,.91,3,1.33,0-1.16.45-2.7-.12-3.39-1.24-1.52-2.85-3.3-4.6-3.72-3.67-.86-7.53-.91-11.67-1.32.1,1.25.24,3.07.4,5.16-6-2.94-9-9.64-8.08-17,1.13-8.91,6.52-15.06,14.5-16.66q6.92,18.86,13.8,37.7C34.25,297.14,30.27,296.34,27.7,290.55Zm102.73-14.81a56.28,56.28,0,0,1,.6-9.18c.07-.36,3.93.05,6.22.1.64-1.56,1.48-3.56,2.31-5.57l1.85-.08,3.18,7.53Zm9.43,1.71c-.12-.72-.23-1.45-.35-2.18l11.5-1.89c.71-1.34,1.9-3.63,3.69-7,2.66,4.63,4.37,7.6,6.43,11.16Zm173.81,60.9q-62.79-52.23-144.08-60c-1.93-.18-4.11-1.91-5.4-3.53-1.95-2.45-3.22-5.44-4.89-8.39l4.77-4.84-10.34-1.8-3.27,7.09-2.21-.27-3.49-7.35,12-7.81L155.35,249l-12.26,6.09-4.16-3.59c-.87,2.93-1.57,5.29-2.26,7.65l-1.71,0c-1.22-2.69-2.43-5.39-3.78-8.38l11.76-7.64-1.45-2.42-13.19,6.4-3.78-7.52,11.1-.59c.53-1.82,1.3-4.4,2.17-7.35-5.62-.32-8.29-3.15-7.25-9.09.13-.71-1.71-1.76-3-3a337.14,337.14,0,0,0,78.92-59.43,333.77,333.77,0,0,0,59-81.1c28.83,87.37,44.72,176,57.26,266.71C319.16,342.84,316.39,340.62,313.67,338.35Zm-194.6-47.46a29.69,29.69,0,0,1-3.9,1.66c-.65.23-1.14.39-1.35.45-10,2.79-18.92,5-18.92,5-20.26,4.44-20,5-24.4,4.93-9.3-.18-13.41-2.86-14.88-3.95a20.55,20.55,0,0,1-6.51-8.3,262.81,262.81,0,0,1-12.52-32.27c-4.69-15.57,2.29-27.24,18.35-30.28,15.53-2.93,31.32-4.66,47.05-6.37a11.53,11.53,0,0,1,7.42,1.35c4.25,2.61,5,7.92,6.6,16.55,3.21,17.53,2.65,10,4.62,23,.93,6.07,2,14.18,3,23.86A13.43,13.43,0,0,1,119.07,290.89Z"/>
                <path d="M326.84,156c-1.31-5.29-3.51-10.68-3.29-15.95.56-14,10.36-25.22,24.38-29,3.05-.83,4.72-2.06,6-5.1a44.38,44.38,0,0,1,21.52-22.68c31.09-15.7,69.11-2,85.74,25.11,14.51,23.61,8.31,49.61-14.76,64.11-3.55,2.22-7.15,4.36-11.09,6.76,2.07,6.93,7.24,12.73,14.11,17.32,1.3.88,2,2.67,3,4-1.55.72-3.07,2-4.64,2.08-16.62.47-29.8-6-39.22-19.89a8.29,8.29,0,0,0-4.08-3.1c-4.64-1.4-9.4-2.44-14.14-3.5a4.58,4.58,0,0,0-3,.17c-13.57,7.47-26.84,5.07-40.11-.92a7.87,7.87,0,0,0-5.1-.13c-10.31,3.16-19.77,1.75-28.21-5-1.15-.92-1.59-2.73-2.36-4.12,1.45-.58,2.88-1.64,4.33-1.66,4.68-.07,9.16-.53,13.42-3.73C328.38,159,327.24,157.59,326.84,156Zm58.21-39.13c12.81,8.36,20.82,19.58,18.36,35.54-.82,5.34-4.17,10.31-6.5,15.38-.57,1.25-1.67,2.26-3.06,4.07,4.7.95,8.73,1.92,12.81,2.55a7.33,7.33,0,0,1,5.74,4.07c6.09,10.47,15.18,16.6,27.05,18.32-3-4.9-5.9-9.64-8.7-14.46a24.67,24.67,0,0,1-1.42-4.09c-1.07-3-.05-4.4,3-5.52,5.25-1.92,10.26-4.47,15.63-6.86-2-4.15-3.7-7.45-5.15-10.84-.35-.82.12-2,.21-3a9.83,9.83,0,0,1,2.14,1.83,49.39,49.39,0,0,1,2.33,4.67l7.19-4.42c-.71-1.5-1.61-3.38-2.59-5.41l-3.62.31c0-.28-.75-8.73-.75-8.73.78-1.74,1.24-3.78,2.45-5.14s3.08-1.82,5-2.9l-3.76-6.48c-1.58.74-3.17,1.62-4.86,2.23-.55.2-1.35-.26-2-.42.27-.64.38-1.56.86-1.85,1.46-.88,3.06-1.51,4.78-2.32a17.55,17.55,0,0,1-.53-2c-.18-1.38-.3-2.76-.44-4.14,1,1,2,2,3,3.08a6.66,6.66,0,0,1,.65,1c2.75-1.19,2.66-1.89-.92-7l-8.15,3.26-.85-1.75,7.66-4.34c-.53-1.27-1.05-2.55-1.7-4.13l-7.74,3.39c-2.33-5-4.23-9.62-6.69-13.94-.69-1.21-3-1.48-5.16-2.43l5-3.93-7.41-3.23c.77,3,1.22,4.71,1.67,6.47l-.8.63L422,88.93c1-4.5-.24-5-8.34-2.55-.07-3.84-2.95-3.58-5.57-3.76-13.7-1-26.47,1.59-37.52,10.21a37.46,37.46,0,0,0-12.28,16.44C368.31,109.44,377.15,111.71,385.05,116.87Zm-43.18,52.61a6.79,6.79,0,0,1,6.63.39c7.19,3.86,14.83,6,23.08,5.6,11.1-.6,19.26-6,24.15-15.82s3.58-19.42-2.64-28.35c-10.69-15.37-33.84-21.06-50.5-12.46-13.67,7.06-18.06,24-9.64,37.24,3.95,6.2,3.6,7.5-3.07,10.84-1.75.88-3.6,1.56-6.29,2.72A22.41,22.41,0,0,0,341.87,169.48Zm114.67-34.65-6.05,4.27,2.86,5.5,6.16-3.84Zm-13.43-28.26,6.72-4.14c-3.21-4.68-3.87-4.79-9.77-.78ZM461,120.84l-6.27,3.69,3.35,6.66,4.65-2.45C462.1,125.72,461.63,123.59,461,120.84Zm-3.94,32.27h1.28l3.24-8.48-.72-.73-6.21,2.8C455.66,149.29,456.37,151.2,457.09,153.11Zm-18.24-54L443.6,96l-6.46-3.65-.86,1C437,95.1,437.8,96.77,438.85,99.11Zm18.48,18.82c.36.42,1.4.27,2.12.38a38.26,38.26,0,0,0-1.84-5.31c-.29-.56-1.62-.6-2.47-.88l-1.2,1.07C455.05,114.78,456.07,116.46,457.33,117.93Zm5.26,22.23c.21-3.34.35-5.63.57-9.16L459,133.33C460.31,135.81,461.16,137.42,462.59,140.16Z"/>
                <path class="cls-2"
                      d="M143.73,243l-13.19,6.41-3.77-7.53,11.09-.59,2.17-7.35c-5.62-.32-8.28-3.15-7.24-9.09.12-.7-1.72-1.76-3-3A337.61,337.61,0,0,0,208.7,162.4a333.58,333.58,0,0,0,59-81.1c28.83,87.37,44.72,176,57.26,266.71-3.58-2.92-6.35-5.14-9.07-7.41q-62.78-52.25-144.08-60c-1.92-.19-4.1-1.92-5.4-3.54-2-2.45-3.22-5.44-4.89-8.39l4.77-4.84L156,262l-3.27,7.09-2.2-.27-3.5-7.35,12-7.81-1.41-2.41-12.27,6.08-4.16-3.59-2.26,7.66-1.71,0c-1.22-2.7-2.43-5.4-3.78-8.38l11.77-7.65C144.7,244.58,144.21,243.78,143.73,243Zm31.57-25.4c12-.62,82.29-74.66,81.44-85.54A629.86,629.86,0,0,1,175.3,217.57Z"/>
                <path class="cls-2"
                      d="M20.66,284.38l.39,5.16c-6-2.94-9-9.64-8.07-17,1.13-8.91,6.52-15.06,14.51-16.66l13.79,37.7c-7,3.54-11,2.74-13.58-3.05,2.49-2.31,4.38-1.65,6.3.93.58.77,2,.91,3,1.33,0-1.16.45-2.7-.12-3.39-1.24-1.52-2.85-3.3-4.6-3.72C28.66,284.84,24.8,284.79,20.66,284.38Z"/>
                <path class="cls-2"
                      d="M130.43,275.74a56.28,56.28,0,0,1,.6-9.18c.07-.36,3.93.05,6.22.1l2.31-5.57,1.85-.08,3.18,7.53Z"/>
                <path class="cls-2"
                      d="M139.51,275.27l11.5-1.89c.71-1.34,1.9-3.63,3.69-7,2.66,4.63,4.37,7.6,6.43,11.16l-21.27-.06C139.74,276.73,139.63,276,139.51,275.27Z"/>
                <path class="cls-2"
                      d="M126.28,226.89c1.2,2.35,2.35,4.57,3.48,6.78l-6.26,4.18C123,233.25,118.88,228.88,126.28,226.89Z"/>
                <path class="cls-3"
                      d="M358.31,109.27c10,.17,18.84,2.44,26.74,7.6,12.81,8.36,20.82,19.58,18.36,35.54-.82,5.34-4.17,10.31-6.5,15.38-.57,1.25-1.67,2.26-3.06,4.07,4.7.95,8.73,1.92,12.81,2.55a7.33,7.33,0,0,1,5.74,4.07c6.09,10.47,15.18,16.6,27.05,18.32-3-4.9-5.9-9.64-8.7-14.46a24.67,24.67,0,0,1-1.42-4.09c-1.07-3-.05-4.4,3-5.52,5.25-1.92,10.26-4.47,15.63-6.86-2-4.15-3.7-7.45-5.15-10.84-.35-.82.12-2,.21-3a9.83,9.83,0,0,1,2.14,1.83,49.39,49.39,0,0,1,2.33,4.67l7.19-4.42c-.71-1.5-1.61-3.38-2.59-5.41l-3.62.31c0-.28-.75-8.73-.75-8.73.78-1.74,1.24-3.78,2.45-5.14s3.08-1.82,5-2.9l-3.76-6.48c-1.58.74-3.17,1.62-4.86,2.23-.55.2-1.35-.26-2-.42.27-.64.38-1.56.86-1.85,1.46-.88,3.06-1.51,4.78-2.32a17.55,17.55,0,0,1-.53-2c-.18-1.38-.3-2.76-.44-4.14,1,1,2,2,3,3.08a6.66,6.66,0,0,1,.65,1c2.75-1.19,2.66-1.89-.92-7l-8.15,3.26-.85-1.75,7.66-4.34c-.53-1.27-1.05-2.55-1.7-4.13l-7.74,3.39c-2.33-5-4.23-9.62-6.69-13.94-.69-1.21-3-1.48-5.16-2.43l5-3.93-7.41-3.23c.77,3,1.22,4.71,1.67,6.47l-.8.63L422,88.93c1-4.5-.24-5-8.34-2.55-.07-3.84-2.95-3.58-5.57-3.76-13.7-1-26.47,1.59-37.52,10.21A37.46,37.46,0,0,0,358.31,109.27Z"/>
                <path class="cls-3"
                      d="M323.59,169.64a22.41,22.41,0,0,0,18.28-.16,6.79,6.79,0,0,1,6.63.39c7.19,3.86,14.83,6,23.08,5.6,11.1-.6,19.26-6,24.15-15.82s3.58-19.42-2.64-28.35c-10.69-15.37-33.84-21.06-50.5-12.46-13.67,7.06-18.06,24-9.64,37.24,3.95,6.2,3.6,7.5-3.07,10.84C328.13,167.8,326.28,168.48,323.59,169.64Z"/>
                <path class="cls-3" d="M459.51,140.76l-3-5.93-6.05,4.27,2.86,5.5Z"/>
                <path class="cls-3" d="M440.06,101.65l3.05,4.92,6.72-4.14C446.62,97.75,446,97.64,440.06,101.65Z"/>
                <path class="cls-3" d="M462.76,128.74c-.66-3-1.13-5.15-1.73-7.9l-6.27,3.69,3.35,6.66Z"/>
                <path class="cls-3" d="M454.68,146.71c1,2.58,1.69,4.49,2.41,6.4h1.28l3.24-8.48-.72-.73Z"/>
                <path class="cls-3" d="M436.28,93.42c.76,1.68,1.52,3.35,2.57,5.69L443.6,96l-6.46-3.65Z"/>
                <path class="cls-3"
                      d="M453.94,113.19c1.11,1.59,2.13,3.27,3.39,4.74.36.42,1.4.27,2.12.38a38.26,38.26,0,0,0-1.84-5.31c-.29-.56-1.62-.6-2.47-.88Z"/>
                <path class="cls-3" d="M459,133.33c1.29,2.48,2.14,4.09,3.57,6.83.21-3.34.35-5.63.57-9.16Z"/>
                <path d="M173.06,215.33a631,631,0,0,0,81.44-85.54C255.35,140.66,185.07,214.71,173.06,215.33Z"/>
            </g>
            <path class="cls-2"
                  d="M123.55,293.13a29.53,29.53,0,0,1-3.89,1.66c-.65.23-1.14.39-1.35.45-10,2.8-18.92,5-18.92,5-20.26,4.43-20,5-24.4,4.93-9.3-.18-13.42-2.87-14.89-3.95a20.68,20.68,0,0,1-6.5-8.3,263.49,263.49,0,0,1-12.53-32.27c-4.68-15.58,2.29-27.25,18.35-30.29,15.54-2.93,31.32-4.66,47.05-6.37a11.48,11.48,0,0,1,7.42,1.36c4.25,2.61,5,7.91,6.61,16.55,3.2,17.52,2.64,10,4.62,23,.92,6.08,2,14.19,3,23.86A13.43,13.43,0,0,1,123.55,293.13Z"/>
        </g>
    </g>
</svg>
