<svg viewBox="0 0 470 470" xmlns="http://www.w3.org/2000/svg">
    <defs>
        <style>
            .cls-1{isolation:isolate;}.cls-2{fill:#00a5c3;opacity:0.46;}.cls-2,.cls-4{mix-blend-mode:multiply;}.cls-3{fill:#fff;}.cls-4{fill:#ee707c;opacity:0.34;}
        </style>
    </defs>
    <title>Sans titre - 1</title>
    <g class="cls-1">
        <g data-name="Calque 1" id="Calque_1">
            <g id="gINXjM.tif">
                <path d="M460.81,179.14c-1.9-15.62-10.09-22.42-26-23.06-20.39-.82-40.81-.81-61.21-1.44-2.17-.07-5.24-1.52-6.26-3.27Q344.3,112,321.84,72.23c-1-1.79-.77-4.55-.45-6.75,1-6.72,3.74-13.51,3.19-20.06a41.23,41.23,0,0,0-39.1-38.15,43,43,0,0,0-44.92,33.09C234.81,63.88,250.49,86.7,275.39,91c2.89.5,5.48.66,7.14,4.13,8.8,18.41,18,36.64,27,54.95a32.13,32.13,0,0,1,1.24,3.69l-149.46-2.23a17.24,17.24,0,0,1,.68-2.67c8.92-18.16,17.8-36.33,26.92-54.39.75-1.48,3-2.78,4.78-3.08,8.69-1.51,16.65-4.54,23.31-10.4,16.47-14.51,19.09-37.12,6.54-55.31a42.73,42.73,0,0,0-54.29-14.12,41.29,41.29,0,0,0-20.34,51.88c1.65,4.35,1.14,7.43-1,11.19-13.49,23.09-27,46.16-40,69.54-3,5.34-6.21,6.76-11.94,6.64-17.23-.34-34.49-.61-51.7.14-15.64.69-27.2,8.32-31.8,24a108,108,0,0,0-2.7,50.65c1.86,10,7.67,17.41,17.5,20.76A63.45,63.45,0,0,0,41.15,249c2.83.29,3.83,1.14,4.14,4q6.26,58.52,12.81,117c1.59,14,3.18,28,5.95,41.75,3.18,15.8,10.26,29.54,25.23,37.81,12.31,6.81,25.82,9.26,39.48,10.55a1214.4,1214.4,0,0,0,179.82,4.06c18.06-1,36.16-2.47,54.06-5,14.78-2.12,27.82-9,34.75-23,4.39-8.88,8.17-18.5,9.89-28.2,9.26-52.12,17.84-104.36,26.49-156.59.64-3.9,1.93-6.1,5.82-7.55,12.63-4.73,20.61-14.08,21.7-27.41A184.91,184.91,0,0,0,460.81,179.14ZM248.43,60.8c-5-14.6,1.19-31.92,14.54-40.78,13.11-8.68,31.85-7.11,43.58,3.65,10.49,9.62,14.27,25.58,8.5,36.46-3.2-4.92-6.18-9.87-9.54-14.56-5.16-7.19-11.64-12.72-20.65-14.5-7.94-1.57-15.29-.39-20.61,6.16s-4.86,14.1-1.22,21.36c3,6,6.42,11.73,9.62,17.59,1.17,2.14,2.24,4.33,3.43,6.63C265.74,83.63,252.61,73,248.43,60.8Zm21.8-3.86c-5.53-10.89-1.3-19.27,11.27-19.16,7.16.49,13.63,4.91,18,11.92,9.08,14.63,17.85,29.45,26.49,44.35q25,43.1,49.59,86.42a53.34,53.34,0,0,1,6.06,15c2.15,10.23-5.64,17.8-15.62,14.7-5.95-1.85-11.71-5.65-16.43-9.84-12.48-11-19.75-25.85-27.15-40.45Q296.33,108.4,270.23,56.94ZM162.1,26.07c11.29-12.21,27.5-15.19,42.34-7.78A36.18,36.18,0,0,1,223.6,56.13c-2.31,13.55-14.81,25.68-29.26,27.28,4.14-7.65,7.81-14.61,11.65-21.47,5.95-10.6,5.87-19.41-.43-25.75-6.63-6.67-17.62-7.67-27.45-2.39C170.23,38,165.22,45.06,160.6,52.39c-1.58,2.5-3,5.08-4.65,7.76C150.34,50.88,153.18,35.73,162.1,26.07Zm3.62,32.33a80.89,80.89,0,0,1,11.86-15.3,18.22,18.22,0,0,1,15.51-5.19c6.08.68,9.91,4.64,10,11.8a43.38,43.38,0,0,1-2.3,6.49Q172.3,112.65,143.61,169c-5.93,11.65-12.6,22.94-22.56,31.56-4.77,4.12-10.55,7.93-16.52,9.64-10.32,2.94-17.78-5-15.27-15.42a50.67,50.67,0,0,1,5.23-13.15Q129.91,119.91,165.72,58.4ZM422.08,278.79q-10.36,61.65-20.89,123.26a178.45,178.45,0,0,1-4.57,18.4c-5.41,19-18.42,29.69-37.62,32.23-15.67,2.08-31.48,3.36-47.28,4.19a1233.57,1233.57,0,0,1-183.46-4.05,177,177,0,0,1-19.69-3.53c-21.9-4.66-34.37-18.82-37.73-40.3-3.81-24.31-6.39-48.81-9.24-73.26-3-26-5.77-52.1-8.6-78.16-.28-2.57-.36-5.16-.61-8.85H426.84C425.31,258.41,423.8,268.62,422.08,278.79Zm32.09-63.3c-1.89,14.62-12.82,23.76-27.66,24.13-30.61.78-61.23,1.38-91.85,1.51q-92.91.39-185.84.57l-.14.1-.15.11c-.11.07-9.89,0-23.26-.16q-39.43.08-78.88.15c-23.52,0-31.09-7.58-30.94-31.18a162.36,162.36,0,0,1,2.8-29.86c2.77-14.24,11-21.86,25.42-22.54,18.23-.88,36.53-.22,55.81-.22-4.19,7.34-8.25,13.52-11.35,20.16a78.1,78.1,0,0,0-6.29,18.31,17.44,17.44,0,0,0,.37,8.2c1.81,6.15,7.56,10.78,12.44,12.32,15.68,4.95,35.42-18.27,39.36-22.9,4.08-4.81,7.65-10.25,14.78-21.12,4.54-6.92,8.11-12.78,10.56-16.9q11.6,0,23.24,0,64.22.17,126.73,2.11a26.58,26.58,0,0,1,4,3.07,23.18,23.18,0,0,1,4.77,5.88c6.7,13.43,13.89,26.65,25,37,5.3,4.93,11.49,9.66,18.15,12.22,17,6.52,31.33-5.87,27.09-23.53-2-8.33-7.09-15.93-10.88-23.83-1-2.14-2.39-4.13-3.86-6.65a22.57,22.57,0,0,1,3.11-.46c18.12.27,36.25.37,54.37.92,16.42.51,21.5,4.76,23.19,21.12A136.56,136.56,0,0,1,454.17,215.49Z"/>
                <path class="cls-2"
                      d="M429,250.84c-1.53,9.68-3,19.89-4.75,30.06q-10.36,61.65-20.9,123.26a178.45,178.45,0,0,1-4.57,18.4c-5.41,19-18.41,29.69-37.61,32.24-15.68,2.07-31.49,3.35-47.28,4.18a1233.51,1233.51,0,0,1-183.46-4.05,176.78,176.78,0,0,1-19.7-3.53c-21.9-4.65-34.37-18.81-37.73-40.3-3.8-24.31-6.39-48.81-9.24-73.26-3-26-5.76-52.1-8.6-78.15-.28-2.57-.36-5.16-.61-8.85Zm-203,95.81-1.05,0c0-4,0-8.08,0-12.12.07-5.81.31-11.61.3-17.41a136.14,136.14,0,0,0-.47-15.79c-1.54-13-10.08-22.07-22.67-23.43a74.56,74.56,0,0,0-19.38.79c-7.92,1.26-12.14,6.62-12.67,14.63a56.67,56.67,0,0,0,.23,9.48c1.63,15.74,3.2,31.48,5.15,47.18,1.73,13.93,3.49,27.89,6.1,41.67,1.6,8.42,6.93,14.94,14.68,19,12.42,6.55,25.85.87,29.82-12.58a22.61,22.61,0,0,0,1.22-6.71C226.88,376.49,226.38,361.57,225.93,346.65Zm-83.54,61.08c3-.33,6-.49,8.88-1,9.85-1.79,14.46-7.79,12.87-17.61-4.68-28.8-9.37-57.61-14.56-86.32-2.88-16-12-23.59-28.23-24.93a88.07,88.07,0,0,0-11.6-.17c-14.84.72-20.56,7.12-18.14,21.82a399.61,399.61,0,0,0,27.9,93.76C123.85,403.31,131.31,408.26,142.39,407.73Zm109.27-81.9,1.35.09c-1.09,16.67-2.65,33.32-3.09,50-.21,8.1.28,16.75,2.92,24.29,4.89,13.95,19.4,17.28,31.46,8.51,8.29-6,12.1-14.63,13.34-24.28,2.75-21.28,5.09-42.61,7.43-63.94,1-8.73,1.94-17.5,2.06-26.27.13-9-4.35-14.28-13.26-15.66a68.93,68.93,0,0,0-18.86-.52c-12.45,1.55-19.48,8.11-21.5,20.5C252.06,307.52,252.22,316.73,251.66,325.83Zm86.08,81.64c10.6.92,18.26-4.29,22.51-14.87.4-1,.9-1.91,1.31-2.88a430.19,430.19,0,0,0,26.2-88.29,39.81,39.81,0,0,0,.58-9.44c-.39-7-4.11-11.68-10.92-13.08a71.26,71.26,0,0,0-14.66-1.28c-20.32.11-30,8.37-33.44,28.39q-6.72,39-13.27,78c-2.86,16.92,2.38,23.15,19.69,23.47Z"/>
                <path class="cls-3"
                      d="M281.5,37.78c7.16.49,13.63,4.91,18,11.92,9.08,14.63,17.85,29.45,26.49,44.35q25,43.1,49.59,86.42a53.34,53.34,0,0,1,6.06,15c2.15,10.23-5.64,17.8-15.62,14.7-5.95-1.85-11.71-5.65-16.43-9.84-12.48-11-19.75-25.85-27.15-40.45q-26.09-51.5-52.19-103C264.7,46.05,268.93,37.67,281.5,37.78ZM370.2,192.5c0-.82.05-1.63.07-2.44-2.08-1.37-4-3.59-6.27-3.89-3.42-.46-5.18,2.59-4.63,5.49.33,1.76,2.93,4.36,4.44,4.31C366,195.89,368.08,193.75,370.2,192.5ZM290.14,53.9c0-.68.06-1.36.1-2-1.76-1.19-3.53-3.3-5.27-3.29-1.56,0-3.09,2.39-4.64,3.72,1.42,1.63,2.66,4.31,4.31,4.59S288.29,55,290.14,53.9Z"/>
                <path class="cls-3"
                      d="M203.14,49.71a43.38,43.38,0,0,1-2.3,6.49Q172.3,112.65,143.61,169c-5.93,11.65-12.6,22.94-22.56,31.56-4.77,4.12-10.55,7.93-16.52,9.64-10.32,2.94-17.78-5-15.27-15.42a50.67,50.67,0,0,1,5.23-13.15q35.42-61.75,71.23-123.26a80.89,80.89,0,0,1,11.86-15.3,18.22,18.22,0,0,1,15.51-5.19C199.17,38.59,203,42.55,203.14,49.71ZM102.66,191.37c3.08,2.36,5.2,5,6.38,4.68,2.18-.68,4.91-2.88,5.39-4.92.75-3.21-2.12-5.41-5.2-4.87C107.28,186.6,105.67,188.92,102.66,191.37Zm83-145.29c-2.15,3.33-4.46,5.35-4.15,6.82.35,1.68,2.92,3.7,4.76,4,1.14.16,3.8-2.64,3.81-4.13C190.1,51,187.94,49.3,185.67,46.08Z"/>
                <path class="cls-3"
                      d="M315.05,60.13c-3.2-4.92-6.18-9.87-9.54-14.56-5.16-7.19-11.64-12.72-20.65-14.5-7.94-1.57-15.29-.39-20.61,6.16s-4.86,14.1-1.22,21.36c3,6,6.42,11.73,9.62,17.59,1.17,2.14,2.24,4.33,3.43,6.63-10.34.82-23.47-9.81-27.65-22-5-14.6,1.19-31.92,14.54-40.78,13.11-8.68,31.85-7.11,43.58,3.65C317,33.29,320.82,49.25,315.05,60.13Z"/>
                <path class="cls-3"
                      d="M194.34,83.41c4.14-7.65,7.81-14.61,11.65-21.47,5.95-10.6,5.87-19.41-.43-25.75-6.63-6.67-17.62-7.67-27.45-2.39C170.23,38,165.22,45.06,160.6,52.39c-1.58,2.5-3,5.08-4.65,7.76-5.61-9.27-2.77-24.42,6.15-34.08,11.29-12.21,27.5-15.19,42.34-7.78A36.18,36.18,0,0,1,223.6,56.13C221.29,69.68,208.79,81.81,194.34,83.41Z"/>
                <path d="M223.82,344.54c.44,14.92,1,29.84,1.27,44.76a22.68,22.68,0,0,1-1.22,6.72c-4,13.45-17.4,19.13-29.82,12.57-7.75-4.09-13.08-10.61-14.68-19-2.61-13.78-4.37-27.73-6.1-41.66-2-15.7-3.52-31.45-5.16-47.18a56.67,56.67,0,0,1-.22-9.48c.53-8,4.75-13.38,12.67-14.64a74.56,74.56,0,0,1,19.38-.78c12.59,1.35,21.12,10.47,22.67,23.43a136.14,136.14,0,0,1,.47,15.79c0,5.8-.23,11.6-.31,17.4-.05,4,0,8.09,0,12.13Zm-39-4.26,5.51,7.06-1.45,1.44-8.68-6c.53,5.92.93,10.42,1.43,16L193.49,348l1.84,1.87-10.48,11.66,6.8,7.74,3.82-1.86,1.4,1.39-9.19,10.66,5.25,6.86,7.76-6.56,1.61,1.46c-.84,1.29-1.43,2.89-2.57,3.8a28.84,28.84,0,0,1-5.17,2.72c2.21,2.56,2.94,3.14,3.29,3.89a26.28,26.28,0,0,1,1.1,3.53c-1.2-.32-2.77-.26-3.52-1-2.9-2.9-4-.93-5.37,1.26,5.31,7,11.8,10,17.78,8.17,7.45-2.23,9.6-8.37,10.21-15.12a120.8,120.8,0,0,0,0-14.74c-.62-20.72-1.23-41.44-2-62.15a79.12,79.12,0,0,0-1.82-16.14c-1.45-5.77-5.16-10.11-11.82-11.48l7.13,9.51-1.36,1.14-6-3.34-2.79,6.5-4.85-.43-5.29-8.89-4.34,4.68c2.08,2.9,5.69,5.73,5.42,8.12-.32,2.89-3.92,5.42-6.59,8.7l5.47,4.21,4.08-1.32,1.09,1.47-9.12,10.15,7.23,7.73Zm-3-43.89-5.7,4.48,4.54,6,6.38-5.56Zm5.74,35.71-5.16-4.84c-4.68,4.27-4.66,6.85.22,10.18Zm-5-9.93,4-5-5.92-5.26-4,3.93Zm8.81-40.38L190,283.6l6.39,7.9,3.92-4.46Zm-9.15,83.46c.65,4.55,1.14,7.93,1.62,11.32l5.92-5.21Zm3.58-78.61c-2.69-4.85-5.35-3-8.56-.39l4,4.7C183.24,289.13,184.48,287.94,185.84,286.64Z"/>
                <path d="M140.28,405.62c-11.08.53-18.54-4.42-22.88-14.47a399.61,399.61,0,0,1-27.9-93.76c-2.42-14.71,3.29-21.11,18.14-21.82a89.65,89.65,0,0,1,11.59.16c16.23,1.34,25.36,9,28.24,24.94,5.19,28.71,9.88,57.51,14.56,86.32,1.59,9.82-3,15.82-12.87,17.61C146.23,405.13,143.24,405.29,140.28,405.62Zm-20.16-26.31c1.79,4.07,3,6.95,4.31,9.82,2.91,6.58,7.95,9.56,15.12,9,2.1-.16,4.23,0,6.32-.26,7.81-.82,10.18-3.88,8.89-11.61q-6.8-40.54-13.67-81.08c-1.81-10.59-3-11.6-12.67-13.15l-4.36-7.31-4.1,4.55,4.16,6.52-1.14.77-8.69-4.06c-1.54-2.78-2.93-5.29-4.25-7.69l-7.92,6.57,8.58,8.92,5.65-2.68,1.24,1.57-10.72,11.57,8.06,8.62a13.84,13.84,0,0,1,2.33-2,44.49,44.49,0,0,1,4.27-1.76c-.58,1.45-.79,3.26-1.79,4.28-3.3,3.34-6.89,6.4-10.39,9.58l5.17,6.25c9.88-8.09,9.88-8.09,11.71-7l-16.84,16.6c2.56,3.11,4.53,5.49,7.14,8.67,2.62-3,4.94-5.85,7.55-8.43.75-.74,2.33-.64,3.53-.93-.34,1.21-.41,2.61-1.09,3.58-1,1.41-2.62,2.38-3.65,3.77-1.66,2.26-3.06,4.72-5,7.83-4.65.13-4.94.39-2.6,6.09,1,2.43,2.81,4.52,4.31,6.84l8.68-6.77,1.55,1.63-6.27,7.63,3.32,6-1.14.89Zm-14.37-51.67,8.39-7.22c-6.29.56-6.46-9.34-14.4-4.27C101.78,320,103.76,323.84,105.75,327.64Zm2.67-23.74-8.58-9.4c-4.53,4.72-3.21,8.07,5,13.23Zm-.83,39.38,4.74-5.29-5.55-4.69-1.28.8Z"/>
                <path d="M249.55,323.72c.56-9.1.4-18.32,1.85-27.27,2-12.4,9-18.95,21.5-20.5a68.94,68.94,0,0,1,18.86.52c8.91,1.38,13.38,6.66,13.26,15.66-.12,8.76-1.1,17.54-2.06,26.27-2.34,21.33-4.69,42.66-7.43,63.93-1.25,9.66-5,18.26-13.34,24.28-12.07,8.78-26.57,5.44-31.46-8.51-2.64-7.53-3.13-16.18-2.92-24.29.44-16.68,2-33.33,3.09-50Zm11.53,69.61-4.27.45c.95,2.14,1.49,4.62,2.93,6.36,4.12,4.95,11.35,5.24,17.73,1s9.75-10.83,10.62-18.12c3.53-29.32,6.67-58.68,9.86-88a17.17,17.17,0,0,0-.61-6.25c-.92-3.31-3.1-4.45-6.82-4.14,1.1,2,2.22,4,3.34,6l-1.38,1-5.75-4.07-3.34,3.08A12.8,12.8,0,0,1,285,293c.4,1.29.62,2.63.9,4a13.35,13.35,0,0,1-3.48-1.52c-2.61-2.18-5-4.59-7.79-7.15l-6.09,5.87c3.14,3.68,9.09,4.9,8,11.05-8.67-2.8-9.72,5.63-14.47,8.38l6.22,7.11,8.73-6.79,1.69,1.95L262.35,332.8l5.82,5.51,8.29-6.33,1.7,2-17,17.43,5.33,6.33c1.78-1.51,2.9-2.6,4.17-3.48a2.06,2.06,0,0,1,1.87-.08c.45.3.92,1.42.71,1.73a48.42,48.42,0,0,1-5.43,7.23c-2.75,2.74-5.94,5-9.17,7.71a47.1,47.1,0,0,1,4.54,4.88c.64.92.6,2.31.87,3.49-1.2-.36-2.57-.46-3.54-1.14a54.68,54.68,0,0,1-5-4.57c-1.24,5.52-2.39,9.88,3,12.84a38.88,38.88,0,0,1,3.94-3.66c.69-.49,1.84-.36,2.78-.51a11.58,11.58,0,0,1-.41,3.15C263.85,387.82,262.58,390.24,261.08,393.33Zm9.3-93.27-7.61-3.14c-.47-1.52-.95-3-1.65-5.31-4.65,7.54-5.27,15.52-1.86,19.42Zm-4.69,40.11a29.56,29.56,0,0,0-4.7-3.39c-.79-.4-3.11.28-3.17.7-.52,3.59-.68,7.24-1,12Zm-7.26,14.75-1.85-.21-1.4,14.22,9.44-8.63Zm-.12-38.25c-.37,1.66-.93,2.81-.78,3.86.41,2.92,1.11,5.79,1.71,8.69l6.95-5.15Zm12.19-33-8,4.38C266.56,291.69,268.23,290.84,270.5,283.71Z"/>
                <path d="M335.62,405.36h-2c-17.31-.32-22.55-6.55-19.69-23.47q6.6-39,13.26-78c3.45-20,13.12-28.28,33.45-28.4a71.81,71.81,0,0,1,14.65,1.29c6.82,1.4,10.54,6.1,10.92,13.08a39.29,39.29,0,0,1-.57,9.44,431,431,0,0,1-26.2,88.29c-.41,1-.91,1.9-1.31,2.88C353.88,401.07,346.22,406.28,335.62,405.36Zm-5.33-46.09a37.05,37.05,0,0,1,3.76-4.77c.63-.58,2-.33,3.07-.46-.18.93-.09,2.08-.61,2.76a60.55,60.55,0,0,1-4.16,4.53l4,6.33-1.2,1.16-6.18-4-6.17,5.49,8.56,9.16,6.63-4.35,1,1.22-4.49,8.35-6.12,3.5c.82,2.49,1.37,4.2,2.06,6.32-3.3.18-6.32-4.85-7.85.81,9.89,4.89,24.24,4.56,29.29-8,11.69-29.17,21-58.94,26.71-89.81.59-3.2.08-6.59.08-9.89l-1.58-.26-4.43,5.22-5.7-4.3c-2.31,2.28-4.87,6.3-6.37,5.94-2.64-.64-4.63-4-6.89-6.15l-.37-.37c-4.49-4.43-6.72-4.23-10.5.59,3.25,3.62,6.49,7.1,9.53,10.73.6.72.45,2.07.65,3.13a10.66,10.66,0,0,1-3.12-.77,20.92,20.92,0,0,1-3-2.51L336.39,308l10.06,5.25c.06,1.34.18,3.74.3,6.39-7.57-1.71-9.11,4.79-13.82,8.43,3.42,2.31,6,4.08,9.49,6.4l-9.78,10,4.36,7.05-1.62,1.14-5.94-4.54C325.05,352.37,325,354.89,330.29,359.27Zm3.42-49.85-2.44,13.8,8-7.57Zm-5.47,31.74,1.19.51,6.26-5.53c-1.86-2.48-3.18-4.22-5.44-7.21Zm6.47-39.32,1,.36,7.89-6.95c-1.59-1.48-2.79-2.61-4.64-4.35C337.38,295,336,298.42,334.71,301.84Zm-9,84.28,3-3.32-5.94-6.59C321,380.54,320.25,384.09,325.66,386.12Zm30.2-103.5-.94,1.76,6,4.61,4.51-5Z"/>
                <path d="M370.2,192.5c-2.12,1.25-4.22,3.39-6.39,3.47-1.51.05-4.11-2.55-4.44-4.31-.55-2.9,1.21-5.95,4.63-5.49,2.22.3,4.19,2.52,6.27,3.89C370.25,190.87,370.23,191.68,370.2,192.5Z"/>
                <path d="M290.14,53.9c-1.85,1.09-3.88,3.27-5.5,3s-2.89-3-4.31-4.59c1.55-1.33,3.08-3.7,4.64-3.72,1.74,0,3.51,2.1,5.27,3.29C290.2,52.54,290.17,53.22,290.14,53.9Z"/>
                <path d="M102.66,191.37c3-2.45,4.62-4.77,6.57-5.11,3.08-.54,6,1.66,5.2,4.87-.48,2-3.21,4.24-5.39,4.92C107.86,196.42,105.74,193.73,102.66,191.37Z"/>
                <path d="M185.67,46.08c2.27,3.22,4.43,4.94,4.42,6.65,0,1.49-2.67,4.29-3.81,4.13-1.84-.26-4.41-2.28-4.76-4C181.21,51.43,183.52,49.41,185.67,46.08Z"/>
                <path class="cls-3"
                      d="M184.8,340.28l7.63-8.08-7.23-7.73,9.12-10.15-1.09-1.47-4.08,1.32L183.68,310c2.67-3.28,6.27-5.81,6.59-8.7.27-2.39-3.34-5.22-5.42-8.12l4.34-4.68,5.29,8.89,4.85.43,2.79-6.5,6,3.34,1.36-1.14L202.4,284c6.66,1.37,10.37,5.71,11.82,11.48A79.12,79.12,0,0,1,216,311.59c.8,20.71,1.41,41.43,2,62.15a120.8,120.8,0,0,1,0,14.74c-.61,6.75-2.76,12.89-10.21,15.12-6,1.79-12.47-1.2-17.78-8.17,1.34-2.19,2.47-4.16,5.37-1.26.75.76,2.32.7,3.52,1a26.28,26.28,0,0,0-1.1-3.53c-.35-.75-1.08-1.33-3.29-3.89a28.84,28.84,0,0,0,5.17-2.72c1.14-.91,1.73-2.51,2.57-3.8l-1.61-1.46-7.76,6.56-5.25-6.86,9.19-10.66-1.4-1.39-3.82,1.86-6.8-7.74,10.48-11.66L193.49,348l-11.88,10.66c-.5-5.54-.9-10-1.43-16l8.68,6,1.45-1.44Z"/>
                <path class="cls-3" d="M181.82,296.39l5.22,4.95-6.38,5.56-4.54-6Z"/>
                <path class="cls-3" d="M187.56,332.1l-4.94,5.34c-4.88-3.33-4.9-5.91-.22-10.18Z"/>
                <path class="cls-3" d="M182.6,322.17l-6-6.3,4-3.93,5.92,5.26Z"/>
                <path class="cls-3" d="M191.41,281.79l8.91,5.25-3.92,4.46L190,283.6Z"/>
                <path class="cls-3" d="M182.26,365.25l7.54,6.11-5.92,5.21C183.4,373.18,182.91,369.8,182.26,365.25Z"/>
                <path class="cls-3"
                      d="M185.84,286.64c-1.36,1.3-2.6,2.49-4.52,4.31l-4-4.7C180.49,283.67,183.15,281.79,185.84,286.64Z"/>
                <path class="cls-3"
                      d="M120.12,379.31l5.57,2.8,1.14-.89-3.32-6,6.27-7.63L128.23,366l-8.68,6.77c-1.5-2.32-3.31-4.41-4.31-6.84-2.34-5.7-2-6,2.6-6.09,2-3.11,3.37-5.57,5-7.83,1-1.39,2.65-2.36,3.65-3.77.68-1,.75-2.37,1.09-3.58-1.2.29-2.78.19-3.53.93-2.61,2.58-4.93,5.46-7.55,8.43-2.61-3.18-4.58-5.56-7.14-8.67l16.84-16.6c-1.83-1.06-1.83-1.06-11.71,7l-5.17-6.25c3.5-3.18,7.09-6.24,10.39-9.58,1-1,1.21-2.83,1.79-4.28a44.49,44.49,0,0,0-4.27,1.76,13.84,13.84,0,0,0-2.33,2l-8.06-8.62,10.72-11.57-1.24-1.57-5.65,2.68-8.58-8.92,7.92-6.57c1.32,2.4,2.71,4.91,4.25,7.69l8.69,4.06,1.14-.77L120,289.28l4.1-4.55,4.36,7.31c9.7,1.55,10.86,2.56,12.67,13.15q6.93,40.53,13.67,81.08c1.29,7.73-1.08,10.79-8.89,11.61-2.09.22-4.22.1-6.32.26-7.17.55-12.21-2.43-15.12-9C123.16,386.26,121.91,383.38,120.12,379.31Z"/>
                <path class="cls-3" d="M105.75,327.64c-2-3.8-4-7.6-6-11.49,7.94-5.07,8.11,4.83,14.4,4.27Z"/>
                <path class="cls-3" d="M108.42,303.9l-3.57,3.83c-8.22-5.16-9.54-8.51-5-13.23Z"/>
                <path class="cls-3" d="M107.59,343.28l-2.09-9.18,1.28-.8,5.55,4.69Z"/>
                <path class="cls-3"
                      d="M261.08,393.33c1.5-3.09,2.77-5.51,3.83-8a11.58,11.58,0,0,0,.41-3.15c-.94.15-2.09,0-2.78.51a38.88,38.88,0,0,0-3.94,3.66c-5.41-3-4.26-7.32-3-12.84a54.68,54.68,0,0,0,5,4.57c1,.68,2.34.78,3.54,1.14-.27-1.18-.23-2.57-.87-3.49a47.1,47.1,0,0,0-4.54-4.88c3.23-2.68,6.42-5,9.17-7.71a48.42,48.42,0,0,0,5.43-7.23c.21-.31-.26-1.43-.71-1.73a2.06,2.06,0,0,0-1.87.08c-1.27.88-2.39,2-4.17,3.48l-5.33-6.33,17-17.43-1.7-2-8.29,6.33-5.82-5.51,16.36-16.93L277,313.92l-8.73,6.79-6.22-7.11c4.75-2.75,5.8-11.18,14.47-8.38,1.09-6.15-4.86-7.37-8-11.05l6.09-5.87c2.75,2.56,5.18,5,7.79,7.15A13.35,13.35,0,0,0,285.9,297c-.28-1.32-.5-2.66-.9-4a12.8,12.8,0,0,0-1.61-2.36l3.34-3.08,5.75,4.07,1.38-1c-1.12-2-2.24-4-3.34-6,3.72-.31,5.9.83,6.82,4.14A17.17,17.17,0,0,1,298,295c-3.19,29.36-6.33,58.72-9.86,88-.87,7.29-4.17,13.81-10.62,18.12s-13.61,4-17.73-1c-1.44-1.74-2-4.22-2.93-6.36Z"/>
                <path class="cls-3"
                      d="M270.38,300.06l-11.12,11c-3.41-3.9-2.79-11.88,1.86-19.42.7,2.27,1.18,3.79,1.65,5.31Z"/>
                <path class="cls-3"
                      d="M265.69,340.17l-8.9,9.29c.35-4.74.51-8.39,1-12,.06-.42,2.38-1.1,3.17-.7A29.56,29.56,0,0,1,265.69,340.17Z"/>
                <path class="cls-3" d="M258.43,354.92l6.19,5.38-9.44,8.63,1.4-14.22Z"/>
                <path class="cls-3"
                      d="M258.31,316.67l7.88,7.4-6.95,5.15c-.6-2.9-1.3-5.77-1.71-8.69C257.38,319.48,257.94,318.33,258.31,316.67Z"/>
                <path class="cls-3" d="M270.5,283.71c-2.27,7.13-3.94,8-8,4.38Z"/>
                <path class="cls-3"
                      d="M330.29,359.27c-5.26-4.38-5.24-6.9-.85-11.18l5.94,4.54,1.62-1.14-4.36-7.05,9.78-10c-3.46-2.32-6.07-4.09-9.49-6.4,4.71-3.64,6.25-10.14,13.82-8.43-.12-2.65-.24-5-.3-6.39L336.39,308,347,298.87a20.92,20.92,0,0,0,3,2.51,10.66,10.66,0,0,0,3.12.77c-.2-1.06-.05-2.41-.65-3.13-3-3.63-6.28-7.11-9.53-10.73,3.78-4.82,6-5,10.5-.59l.37.37c2.26,2.19,4.25,5.51,6.89,6.15,1.5.36,4.06-3.66,6.37-5.94l5.7,4.3,4.43-5.22,1.58.26c0,3.3.51,6.69-.08,9.89-5.74,30.87-15,60.64-26.71,89.81-5.05,12.58-19.4,12.91-29.29,8,1.53-5.66,4.55-.63,7.85-.81-.69-2.12-1.24-3.83-2.06-6.32l6.12-3.5,4.49-8.35-1-1.22-6.63,4.35-8.56-9.16,6.17-5.49,6.18,4,1.2-1.16-4-6.33a60.55,60.55,0,0,0,4.16-4.53c.52-.68.43-1.83.61-2.76-1.05.13-2.44-.12-3.07.46A37.05,37.05,0,0,0,330.29,359.27Z"/>
                <path class="cls-3" d="M333.71,309.42l5.59,6.23-8,7.57Z"/>
                <path class="cls-3" d="M328.24,341.16l2-12.23c2.26,3,3.58,4.73,5.44,7.21l-6.26,5.53Z"/>
                <path class="cls-3"
                      d="M334.71,301.84c1.33-3.42,2.67-6.84,4.26-10.94,1.85,1.74,3,2.87,4.64,4.35l-7.89,6.95Z"/>
                <path class="cls-3" d="M325.66,386.12c-5.41-2-4.62-5.58-2.93-9.91l5.94,6.59Z"/>
                <path class="cls-3" d="M355.86,282.62l9.55,1.35-4.51,5-6-4.61Z"/>
            </g>
            <path class="cls-4"
                  d="M445.73,209.16c-1.9,14.62-12.83,23.75-27.67,24.13-30.61.78-61.23,1.37-91.84,1.5q-92.93.41-185.84.58l-.15.1-.14.1c-.11.07-9.9,0-23.27-.16q-39.43.08-78.88.16C14.42,235.6,6.85,228,7,204.38a163.31,163.31,0,0,1,2.8-29.86c2.77-14.24,11-21.85,25.42-22.54,18.23-.87,36.53-.21,55.81-.21-4.19,7.33-8.25,13.52-11.35,20.15a78.1,78.1,0,0,0-6.29,18.31,17.49,17.49,0,0,0,.37,8.21c1.82,6.15,7.56,10.78,12.44,12.32,15.68,5,35.42-18.27,39.36-22.91,4.08-4.8,7.65-10.24,14.78-21.12,4.54-6.91,8.11-12.78,10.56-16.9q11.6,0,23.24,0,64.22.16,126.73,2.12a25.93,25.93,0,0,1,4,3.06,23.36,23.36,0,0,1,4.77,5.88c6.7,13.44,13.89,26.65,25,37,5.3,4.93,11.49,9.66,18.15,12.22,17,6.52,31.33-5.87,27.09-23.52-2-8.34-7.09-15.94-10.88-23.83-1-2.15-2.38-4.14-3.86-6.66a22.57,22.57,0,0,1,3.11-.46c18.12.28,36.25.37,54.37.93,16.42.5,21.5,4.76,23.19,21.11A137.21,137.21,0,0,1,445.73,209.16Z"/>
        </g>
    </g>
</svg>
