<?xml version="1.0" encoding="utf-8"?>
<!-- Generator: Adobe Illustrator 22.1.0, SVG Export Plug-In . SVG Version: 6.00 Build 0)  -->
<svg version="1.1" id="Calque_1" xmlns="http://www.w3.org/2000/svg" xmlns:xlink="http://www.w3.org/1999/xlink" x="0px" y="0px"
	 viewBox="0 0 500 500" style="enable-background:new 0 0 500 500;" xml:space="preserve">
<style type="text/css">
	.st0{fill:#4FBDD7;}
	.st1{fill:#EAEAEA;}
	.st2{fill:#FFFFFF;}
	.st3{fill:#4FBDD7;stroke:#FFFFFF;stroke-width:5;stroke-miterlimit:10;}
	.st4{fill:#8C8C8C;}
	.st5{fill:#070707;}
	.st6{fill:none;stroke:#FFFFFF;stroke-width:7;stroke-miterlimit:10;}
	.st7{fill:none;stroke:#FFFFFF;stroke-width:10;stroke-miterlimit:10;}
	.st8{fill:#FFFFFF;stroke:#FFFFFF;stroke-width:3;stroke-miterlimit:10;}
	.st9{fill:none;stroke:#FDFFFF;stroke-width:6;stroke-miterlimit:10;}
	.st10{fill:#FAFEFF;}
	.st11{fill:none;stroke:#FFFFFF;stroke-width:2;stroke-miterlimit:10;}
	.st12{fill:#FFFFFF;stroke:#FFFFFF;stroke-width:2;stroke-miterlimit:10;}
	.st13{fill:#4FBDD7;stroke:#FFFFFF;stroke-width:4;stroke-miterlimit:10;}
	.st14{fill:#FFFFFF;stroke:#FFFFFF;stroke-width:4;stroke-miterlimit:10;}
	.st15{fill:none;stroke:#FFFFFF;stroke-miterlimit:10;}
	.st16{fill:#FFFFFF;stroke:#FFFFFF;stroke-width:13;stroke-miterlimit:10;}
	.st17{fill:#4FBDD7;stroke:#FFFFFF;stroke-width:8;stroke-miterlimit:10;}
	.st18{fill:#FFFFFF;stroke:#FFFFFF;stroke-width:0.75;stroke-miterlimit:10;}
	.st19{fill:#FFFFFF;stroke:#FFFFFF;stroke-width:0.5;stroke-miterlimit:10;}
	.st20{fill:none;}
	.st21{font-family:'HelveticaNeue-CondensedBold';}
	.st22{font-size:54px;}
	.st23{fill:#FFFFFF;stroke:#FFFFFF;stroke-width:8;stroke-miterlimit:10;}
	.st24{fill:#FFFFFF;stroke:#FFFFFF;stroke-miterlimit:10;}
	.st25{fill:#FFFFFF;stroke:#FFFFFF;stroke-width:11;stroke-miterlimit:10;}
	.st26{fill:#FFFFFF;stroke:#FFFFFF;stroke-width:6;stroke-miterlimit:10;}
	.st27{fill:#8C8C8C;stroke:#8C8C8C;stroke-width:4;stroke-miterlimit:10;}
	.st28{fill:#FFFFFF;stroke:#FFFFFF;stroke-width:1.05;stroke-miterlimit:10;}
	.st29{fill:none;stroke:#4FBDD7;stroke-width:5;stroke-miterlimit:10;}
	.st30{fill:none;stroke:#FFFFFF;stroke-width:4;stroke-miterlimit:10;}
	.st31{fill:#8C8C8C;stroke:#FFFFFF;stroke-width:4;stroke-miterlimit:10;}
	.st32{fill:#FFFFFF;stroke:#FFFFFF;stroke-width:10;stroke-miterlimit:10;}
	.st33{fill:none;stroke:#4FBDD7;stroke-width:2;stroke-miterlimit:10;}
	.st34{fill-rule:evenodd;clip-rule:evenodd;fill:#FFFFFF;}
	.st35{fill:#FFFFFF;stroke:#FFFFFF;stroke-width:7;stroke-miterlimit:10;}
	.st36{fill:#FFFFFF;stroke:#4FBDD7;stroke-width:7;stroke-miterlimit:10;}
	.st37{fill:#FCFCFC;}
	.st38{fill:#FFFFFF;stroke:#FFFFFF;stroke-width:5;stroke-miterlimit:10;}
	.st39{fill:none;stroke:#FFFFFF;stroke-width:3;stroke-miterlimit:10;}
	.st40{fill:none;stroke:#FFFFFF;stroke-width:8;stroke-miterlimit:10;}
	.st41{fill:none;stroke:#FFFFFF;stroke-width:6;stroke-miterlimit:10;}
	.st42{fill:#FFFFFF;stroke:#4FBDD7;stroke-width:3;stroke-miterlimit:10;}
	.st43{fill:none;stroke:#FFFFFF;stroke-width:0.75;stroke-miterlimit:10;}
	.st44{fill:#4FBDD7;stroke:#FFFFFF;stroke-width:9;stroke-miterlimit:10;}
	.st45{fill:none;stroke:#FFFFFF;stroke-width:9;stroke-miterlimit:10;}
	.st46{fill:none;stroke:#4FBDD7;stroke-width:3;stroke-miterlimit:10;}
</style>
<rect y="-1" class="st0" width="500" height="500"/>
<g>
	<g>
		<path class="st2" d="M426.9,146.4L370.2,106c-1.8-1.3-4.1-1.3-5.9-0.1s-2.7,3.3-2.3,5.5l6.9,33.8l-61.1,99.5l-10-45.7
			c-0.5-2.3-2.4-3.9-4.7-4.1c-5.7-19.2-17.3-36.5-33-49.1c-17.4-13.9-39.3-21.6-61.6-21.6c-45,0-84.2,30.4-95.5,74
			c-0.7,2.8,1,5.7,3.8,6.4c2.8,0.7,5.7-1,6.4-3.8c10-38.9,45.1-66.1,85.3-66.1c19.9,0,39.5,6.8,55,19.3
			c13.2,10.6,23.2,24.9,28.5,40.8h-11.2c-4.9-12.8-13.1-24-23.9-32.6c-13.9-11.1-30.6-17-48.4-17c-42.7,0-77.5,34.8-77.5,77.5
			c0,24.4,11.5,47.3,30.9,61.9l-2.4,11.2c-8.1-6.8-38.4-33.6-39-73.1c-0.1-8.1,1-15.5,2.8-22c-0.7,2.8-3.6,4.5-6.4,3.8
			c-2.8-0.7-4.5-3.6-3.8-6.4c-2,7.4-3.3,15.6-3.1,24.6c0.7,46.1,38.1,77,47.1,84.1l-3.8,17.3c-0.3,1.6,0,3.2,1,4.4
			c1,1.2,2.5,2,4.1,2h9.5h152.6h9.5c1.6,0,3.1-0.7,4.1-2c0.3-0.4,0.5-0.8,0.7-1.2c0,0,0,0,0-0.1c19.7-46.4,39.4-92.8,59.1-139.2
			c2.9-10.1,7.3-26.1,5-27s-10.2,13.7-15,23c-17.4,41.3-34.9,82.6-52.3,123.9l-10.6-48.4L376,153.7l8.5,6.1l-10.3,24.3
			c-1.1,2.7,0.1,5.8,2.8,6.9c0.7,0.3,1.4,0.4,2.1,0.4c2.1,0,4-1.2,4.9-3.2l10.9-25.7l30.2-6.6c2-0.4,3.6-2.1,4-4.1
			C429.4,149.7,428.6,147.6,426.9,146.4z M131.6,222.7c0-36.9,30-66.9,66.9-66.9c15.4,0,29.8,5.1,41.8,14.7
			c8.2,6.6,14.7,14.9,19,24.3h-83.5c-2.5,0-4.6,1.7-5.2,4.1l-16.2,74.2C140.1,260.5,131.6,242.1,131.6,222.7z M300,338.1H168.5v-7.7
			H300V338.1z M313.5,319.9H155l25.1-114.6h108.3L313.5,319.9z M392.1,152.3l-12.9-9.2l-4.2-20.7l36.1,25.8L392.1,152.3z"/>
	</g>
</g>
<g>
	<rect x="9" y="366" class="st20" width="500" height="144"/>
	<text transform="matrix(1 0 0 1 172.6284 404.5557)" class="st2 st21 st22">Arrosoir</text>
</g>
</svg>
