<?xml version="1.0" encoding="utf-8"?>
<!-- Generator: Adobe Illustrator 22.1.0, SVG Export Plug-In . SVG Version: 6.00 Build 0)  -->
<svg version="1.1" id="Calque_1" xmlns="http://www.w3.org/2000/svg" xmlns:xlink="http://www.w3.org/1999/xlink" x="0px" y="0px"
	 viewBox="0 0 500 500" style="enable-background:new 0 0 500 500;" xml:space="preserve">
<style type="text/css">
	.st0{fill:#4FBDD7;}
	.st1{fill:#EAEAEA;}
	.st2{fill:#FFFFFF;}
	.st3{fill:#4FBDD7;stroke:#FFFFFF;stroke-width:5;stroke-miterlimit:10;}
	.st4{fill:#8C8C8C;}
	.st5{fill:#070707;}
	.st6{fill:none;}
	.st7{font-family:'HelveticaNeue-CondensedBold';}
	.st8{font-size:54px;}
	.st9{fill:none;stroke:#FFFFFF;stroke-width:7;stroke-miterlimit:10;}
	.st10{fill:none;stroke:#FFFFFF;stroke-width:10;stroke-miterlimit:10;}
	.st11{fill:#FFFFFF;stroke:#FFFFFF;stroke-width:3;stroke-miterlimit:10;}
	.st12{fill:none;stroke:#FDFFFF;stroke-width:6;stroke-miterlimit:10;}
	.st13{fill:#FAFEFF;}
	.st14{fill:none;stroke:#FFFFFF;stroke-width:2;stroke-miterlimit:10;}
	.st15{fill:#FFFFFF;stroke:#FFFFFF;stroke-width:2;stroke-miterlimit:10;}
	.st16{fill:#4FBDD7;stroke:#FFFFFF;stroke-width:4;stroke-miterlimit:10;}
	.st17{fill:#FFFFFF;stroke:#FFFFFF;stroke-width:4;stroke-miterlimit:10;}
	.st18{fill:none;stroke:#FFFFFF;stroke-miterlimit:10;}
	.st19{fill:#FFFFFF;stroke:#FFFFFF;stroke-width:13;stroke-miterlimit:10;}
	.st20{fill:#4FBDD7;stroke:#FFFFFF;stroke-width:8;stroke-miterlimit:10;}
	.st21{fill:#FFFFFF;stroke:#FFFFFF;stroke-width:0.75;stroke-miterlimit:10;}
	.st22{fill:#FFFFFF;stroke:#FFFFFF;stroke-width:0.5;stroke-miterlimit:10;}
	.st23{fill:#FFFFFF;stroke:#FFFFFF;stroke-width:8;stroke-miterlimit:10;}
	.st24{fill:#FFFFFF;stroke:#FFFFFF;stroke-miterlimit:10;}
	.st25{fill:#FFFFFF;stroke:#FFFFFF;stroke-width:11;stroke-miterlimit:10;}
	.st26{fill:#FFFFFF;stroke:#FFFFFF;stroke-width:6;stroke-miterlimit:10;}
	.st27{fill:#8C8C8C;stroke:#8C8C8C;stroke-width:4;stroke-miterlimit:10;}
	.st28{fill:#FFFFFF;stroke:#FFFFFF;stroke-width:1.05;stroke-miterlimit:10;}
	.st29{fill:none;stroke:#4FBDD7;stroke-width:5;stroke-miterlimit:10;}
	.st30{fill:none;stroke:#FFFFFF;stroke-width:4;stroke-miterlimit:10;}
	.st31{fill:#8C8C8C;stroke:#FFFFFF;stroke-width:4;stroke-miterlimit:10;}
	.st32{fill:#FFFFFF;stroke:#FFFFFF;stroke-width:10;stroke-miterlimit:10;}
	.st33{fill:none;stroke:#4FBDD7;stroke-width:2;stroke-miterlimit:10;}
	.st34{fill-rule:evenodd;clip-rule:evenodd;fill:#FFFFFF;}
	.st35{fill:#FFFFFF;stroke:#FFFFFF;stroke-width:7;stroke-miterlimit:10;}
	.st36{fill:#FFFFFF;stroke:#4FBDD7;stroke-width:7;stroke-miterlimit:10;}
	.st37{fill:#FCFCFC;}
	.st38{fill:#FFFFFF;stroke:#FFFFFF;stroke-width:5;stroke-miterlimit:10;}
	.st39{fill:none;stroke:#FFFFFF;stroke-width:3;stroke-miterlimit:10;}
	.st40{fill:none;stroke:#FFFFFF;stroke-width:8;stroke-miterlimit:10;}
	.st41{fill:none;stroke:#FFFFFF;stroke-width:6;stroke-miterlimit:10;}
	.st42{fill:#FFFFFF;stroke:#4FBDD7;stroke-width:3;stroke-miterlimit:10;}
	.st43{fill:none;stroke:#FFFFFF;stroke-width:0.75;stroke-miterlimit:10;}
	.st44{fill:#4FBDD7;stroke:#FFFFFF;stroke-width:9;stroke-miterlimit:10;}
	.st45{fill:none;stroke:#FFFFFF;stroke-width:9;stroke-miterlimit:10;}
	.st46{fill:none;stroke:#4FBDD7;stroke-width:3;stroke-miterlimit:10;}
</style>
<rect x="0" class="st0" width="500" height="500"/>
<g>
	<rect x="-3" y="363" class="st6" width="500" height="144"/>
	<text transform="matrix(1 0 0 1 175.0464 401.5557)" class="st2 st7 st8">Cheval</text>
</g>
<g>
	<path class="st2" d="M325.8,130.3H238c-3.4-3.9-7.8-6.7-12.8-7.9l-33.2-8.4c-1.7-0.3-3.4,0.4-4.3,1.8c-0.9,1.4-0.8,3.3,0.2,4.6
		l15.8,20.4l-57.2,106l-0.5,1.1c-11.9,27.2,4.1,49.9,26.6,49.9c11.7,0,22.4-6.7,27.5-17.3c59.6-38.1,57.2-36.4,57.4-36.8
		c6.2-5,10.8-11.8,13.2-19.4c28.6,0,44.9,5.9,55.3,34c0.7,1.8,2.6,3,4.5,2.6c1.9-0.3,3.4-2,3.4-3.9V138.4
		C334,133.9,330.3,130.3,325.8,130.3 M325.8,239.5c-13.2-20-32.1-23.1-53.4-23.4c0.6-5.8,0-11.5-1.8-16.9c-1.4-4.3-3.2-10-8.5-14.7
		c-4.1-3.7-8.8-5.4-12.3-6.2c-1.8,2.1-3.5,4.1-5.3,6.2c2.2,0.8,13.2,5,18,16.3c5,11.8,1.1,26.6-10.1,36.3
		c-63,40.2-57.8,36.8-58.6,37.7c-0.8,0.9-0.7,1-0.7,1c-4.2,9.8-14.7,15.3-25.2,13.1c-10.4-2.1-17.9-11.3-17.9-22
		c-0.1-5.7,1.1-11.4,3.7-16.6l55.3-102.6l7.3,9.4c0.9,1.3,2.3,1.9,3.8,1.8c1.5-0.2,2.8-1.2,3.3-2.6c0.5-1.4,0.3-3-0.7-4.2
		l-21.3-27.5c12.8-0.7,19,3.2,21.7,5.4c3.1,2.6,8.4,8.7,12.3,13c1.2,1.3,2.1,2.4,2.7,3.2c0.8,2.4,2.1,4,3.1,3.8
		c1.2-0.2,1.8-2.7,2.2-4c0.1-0.5,0.5-2.2,0.2-4.5c-0.2-1.4-0.6-2.5-0.9-3.3h9.6c4.1,2.4,9.1,6.2,12.3,12.3
		c3.8,7.4,2.8,14.2,4.4,14.3c1.6,0.1,4.3-7.1,3.8-14.3c-0.4-5.5-2.5-9.7-4.1-12.3h4.1c4.4,2.2,10.2,6,12.3,12.3
		c3.8,11.5-7.3,23.5-5.9,24.4c1.3,0.9,14.8-10,14.1-24.4c-0.3-5.6-2.6-9.9-4.1-12.3h4.1c4.3,2.1,10.1,5.9,12.3,12.3
		c3.9,11.2-6,22.8-4.7,23.6c1.4,0.8,13.5-9.8,12.8-23.6c-0.3-5.3-2.3-9.5-4.1-12.3h16.3V239.5z"/>
	<path class="st40" d="M160.5,231.2c5.5,2.3,14.1,6.8,22.2,15.2c11.7,12,15.8,25.3,17.3,31.6"/>
	<path class="st2" d="M211.4,186.1c0,2.5-2,4.6-4.6,4.6s-4.6-2-4.6-4.6s2-4.6,4.6-4.6S211.4,183.6,211.4,186.1"/>
	<circle class="st41" cx="161.4" cy="259.8" r="4.6"/>
</g>
</svg>
