<?xml version="1.0" encoding="utf-8"?>
<!-- Generator: Adobe Illustrator 22.1.0, SVG Export Plug-In . SVG Version: 6.00 Build 0)  -->
<svg version="1.1" id="Calque_1" xmlns="http://www.w3.org/2000/svg" xmlns:xlink="http://www.w3.org/1999/xlink" x="0px" y="0px"
	 viewBox="0 0 500 500" style="enable-background:new 0 0 500 500;" xml:space="preserve">
<style type="text/css">
	.st0{fill:#EAEAEA;}
	.st1{fill:#8C8C8C;}
	.st2{fill:#FFFFFF;}
	.st3{fill:#EAEAEA;stroke:#8C8C8C;stroke-width:7;stroke-miterlimit:10;}
	.st4{fill:#070707;}
	.st5{fill:none;stroke:#8C8C8C;stroke-width:7;stroke-miterlimit:10;}
	.st6{fill:none;stroke:#8C8C8C;stroke-width:10;stroke-miterlimit:10;}
	.st7{fill:#8C8C8C;stroke:#8C8C8C;stroke-width:3;stroke-miterlimit:10;}
	.st8{fill:none;stroke:#8C8C8C;stroke-width:8;stroke-miterlimit:10;}
	.st9{fill:none;stroke:#8E8E8E;stroke-width:6;stroke-miterlimit:10;}
	.st10{fill:#8E8E8E;}
	.st11{fill:#505050;}
	.st12{fill:none;stroke:#8E8E8E;stroke-width:2;stroke-miterlimit:10;}
	.st13{fill:#8C8C8C;stroke:#8C8C8C;stroke-width:2;stroke-miterlimit:10;}
	.st14{fill:#8C8C8C;stroke:#FFFFFF;stroke-width:2;stroke-miterlimit:10;}
	.st15{fill:none;stroke:#FFFFFF;stroke-width:2;stroke-miterlimit:10;}
	.st16{fill:none;stroke:#8C8C8C;stroke-miterlimit:10;}
	.st17{fill:none;stroke:#8C8C8C;stroke-width:13;stroke-miterlimit:10;}
	.st18{fill:#EAEAEA;stroke:#8C8C8C;stroke-width:8;stroke-miterlimit:10;}
	.st19{fill:none;stroke:#8C8C8C;stroke-width:4;stroke-miterlimit:10;}
	.st20{fill:#8C8C8C;stroke:#8C8C8C;stroke-width:0.75;stroke-miterlimit:10;}
	.st21{fill:none;stroke:#8C8C8C;stroke-width:9;stroke-miterlimit:10;}
	.st22{fill:#8C8C8C;stroke:#8C8C8C;stroke-width:0.5;stroke-miterlimit:10;}
	.st23{fill:#6B6B6B;}
	.st24{fill:none;}
	.st25{stroke:#8C8C8C;stroke-width:8;stroke-miterlimit:10;}
	.st26{fill:#8C8C8C;stroke:#8C8C8C;stroke-miterlimit:10;}
	.st27{fill:none;stroke:#8C8C8C;stroke-width:11;stroke-miterlimit:10;}
	.st28{fill:none;stroke:#8C8C8C;stroke-width:6;stroke-miterlimit:10;}
	.st29{stroke:#8C8C8C;stroke-width:6;stroke-miterlimit:10;}
	.st30{fill:#8C8C8C;stroke:#8C8C8C;stroke-width:4;stroke-miterlimit:10;}
	.st31{fill:#8C8C8C;stroke:#8C8C8C;stroke-width:1.05;stroke-miterlimit:10;}
	.st32{fill:#D6D6D6;}
	.st33{fill:none;stroke:#EAEAEA;stroke-width:5;stroke-miterlimit:10;}
	.st34{fill:#8C8C8C;stroke:#8C8C8C;stroke-width:10;stroke-miterlimit:10;}
	.st35{font-family:'HelveticaNeue-CondensedBold';}
	.st36{font-size:54px;}
	.st37{fill:none;stroke:#CECECE;stroke-width:2;stroke-miterlimit:10;}
	.st38{fill:none;stroke:#FFFFFF;stroke-width:4;stroke-miterlimit:10;}
	.st39{fill-rule:evenodd;clip-rule:evenodd;fill:#8C8C8C;}
	.st40{fill:#8C8C8C;stroke:#8C8C8C;stroke-width:8;stroke-miterlimit:10;}
	.st41{fill:#8C8C8C;stroke:#8C8C8C;stroke-width:7;stroke-miterlimit:10;}
	.st42{fill:#DBDBDB;stroke:#8C8C8C;stroke-width:7;stroke-miterlimit:10;}
	.st43{fill:none;stroke:#8C8C8C;stroke-width:5;stroke-miterlimit:10;}
	.st44{fill:none;stroke:#8C8C8C;stroke-width:3;stroke-miterlimit:10;}
	.st45{clip-path:url(#SVGID_2_);fill:#8C8C8C;}
	.st46{clip-path:url(#SVGID_2_);fill:none;stroke:#8C8C8C;stroke-width:8;stroke-miterlimit:10;}
	.st47{clip-path:url(#SVGID_2_);fill:#FFFFFF;}
	.st48{clip-path:url(#SVGID_2_);fill:#EAEAEA;}
	.st49{clip-path:url(#SVGID_2_);fill:none;stroke:#8C8C8C;stroke-miterlimit:10;}
	.st50{fill:none;stroke:#FFFFFF;stroke-width:0.75;stroke-miterlimit:10;}
	.st51{fill:none;stroke:#8C8C8C;stroke-width:14;stroke-miterlimit:10;}
	.st52{fill:none;stroke:#EAEAEA;stroke-width:2;stroke-miterlimit:10;}
	.st53{fill:none;stroke:#8C8C8C;stroke-width:2;stroke-miterlimit:10;}
</style>
<rect x="1" class="st0" width="500" height="500"/>
<path class="st1" d="M253.4,317H271c2.2,0,4.1-1.7,4.4-3.9l12.6-104c0.4-3.6,0.7-7.3,0.9-10.9h17.3c2.3,0,4.3-1.8,4.4-4.1l4.4-70.4
	c0-0.4,0-0.8-0.1-1.1l-9-44.8C303,63.4,290.4,53,275.7,53h-13.6c-1,0-1.9,0.3-2.6,0.9c-8.9,6.6-21,6.6-29.9,0
	c-0.8-0.6-1.7-0.9-2.6-0.9h-13.6c-14.7,0-27.3,10.4-30.2,24.8l-9,44.8c-0.1,0.4-0.1,0.8-0.1,1.1l4.4,70.4c0.1,2.3,2.1,4.1,4.4,4.1
	h17.3c0.2,3.6,0.4,7.3,0.9,10.9l12.6,104c0.3,2.2,2.1,3.9,4.4,3.9h17.6c2.4,0,4.4-2,4.4-4.4v-132h8.8v132
	C249,315,250.9,317,253.4,317z M273.9,128.3c-1.6-3.3-1.8-7.1-0.6-10.5l6.8-18.1l4,24.1v31.7C281.7,146.1,278.3,137,273.9,128.3z
	 M273.3,257c-1.2,1.6-5.8,6.1-15.5,3.8v-15c7.4-3,13.8-8,18.6-14.4L273.3,257z M267.1,308.2h-9.3v-38.4c1.6,0.3,3.3,0.4,5,0.4
	c3.1,0,6.2-0.6,9.1-1.8L267.1,308.2z M275.7,61.8c10.5,0,19.5,7.4,21.6,17.7l8.8,44.2l-4.1,65.7H293v-66c0-0.2,0-0.5-0.1-0.7
	l-4.4-26.4c-0.1-0.4-0.2-0.7-0.3-1.1l-14.9-33.4H275.7z M263.6,61.8L275,88.3l-9.9,26.4c-2.1,5.7-1.8,12.1,0.9,17.6
	c1.7,3.4,3.2,6.9,4.6,10.4l-26.1,11.2l-26.1-11.2c1.4-3.5,2.9-7,4.6-10.4c2.7-5.5,3.1-11.8,0.9-17.6l-9.9-26.4l11.4-26.5h0.1
	C237,69.6,252.1,69.6,263.6,61.8z M231.4,260.9c-10.6,2.5-15.1-3.5-15.6-4.3l-3-25.1c4.8,6.4,11.2,11.4,18.6,14.4V260.9z M209,99.7
	l6.8,18.1c1.3,3.4,1.1,7.3-0.6,10.5c-4.3,8.7-7.8,17.8-10.2,27.2v-31.7L209,99.7z M196.2,123.4v66h-9.1l-4.1-65.7l8.8-44.2
	c2.1-10.3,11.1-17.7,21.6-17.7h2.4l-14.8,33.4c-0.2,0.3-0.3,0.7-0.3,1.1l-4.4,26.4C196.2,122.9,196.2,123.2,196.2,123.4z
	 M222.1,308.2l-4.8-39.8c3,1.2,6.2,1.9,9.4,1.8c1.6,0,3.2-0.1,4.7-0.4v38.4H222.1z M235.8,171.8c-2.4,0-4.4,2-4.4,4.4v60.3
	c-7-3.7-15.7-14.6-20.8-23.1l-0.6-5.3c-2.3-19.2-0.5-38.8,5.5-57.2l27.4,11.7c1.1,0.5,2.4,0.5,3.5,0l27.4-11.7
	c6,18.4,7.9,38,5.5,57.2l-0.6,5.3c-5.1,8.4-13.8,19.3-20.8,23.1v-60.3c0-2.4-2-4.4-4.4-4.4H235.8z"/>
<g>
	<rect x="2" y="366" class="st24" width="500" height="144"/>
	<text transform="matrix(1 0 0 1 112.6821 404.5557)" class="st23 st35 st36">Combinaison</text>
</g>
</svg>
