<svg id="Calque_1" data-name="Calque 1" xmlns="http://www.w3.org/2000/svg" viewBox="0 0 500 500"><defs><style>.cls-1{fill:#eaeaea;}.cls-2{font-size:54px;fill:#6b6b6b;font-family:HelveticaNeue-CondensedBold, Helvetica Neue;font-weight:700;}.cls-3{fill:#8c8c8c;}</style></defs><rect class="cls-1" y="-2" width="500" height="500"/><text class="cls-2" transform="translate(106.1 396.56)">Guitare basse</text><path class="cls-3" d="M278.42,39.89,271,39.81c0-.09,0-.18,0-.28,1-4.93-1-7.41-2.75-8.61-4.21-2.85-8.94.49-10.49,1.59a56,56,0,0,0-7.86,7.08l-9.7-.1c-6.34-.07-5.78,9.75.56,9.82h1c-.62.85-1.23,1.7-1.82,2.56l-7.27-.07c-6.35-.07-5.78,9.76.56,9.82h1.09c-.47,1-.88,2-1.22,3l-4.57,0c-6.35-.06-5.78,9.76.56,9.83,2.9-.8,2.54.66,3.89,2.55l7,9.88Q245,141.44,250,196a103.8,103.8,0,0,0-18-33v0l0,0s-4.08-5-6.13-8.24c-5.82-9.29-5.75-13.46-7.15-21-.66-3.57-5.08-5.53-7.92-3.46-19.18,14-7.7,58.63,2.1,73,2.76,4,6.51,8,7.94,12.73,2.2,7.24-2.39,14.75-5.33,18.58-1.74,2.27-3.67,4.41-5.72,6.68-3.46,3.84-7,7.81-9.78,12.61-5.24,9.24-6.32,20.49-3,31.69a55.41,55.41,0,0,0,24.09,31c10.64,6.4,23.43,10,38,10.82a118.37,118.37,0,0,0,37.8-4.28c12.6-3.55,20.62-8.83,25.73-14.19a32.36,32.36,0,0,0,8.2-14.4c3.6-14.23-3.21-26-9.22-36.38-1.41-2.44-2.87-5-4.16-7.45-5.83-11.21-7.26-23.85-3.91-34.66a81.69,81.69,0,0,1,3.21-8.1c3.85-8.82,8.21-18.81,3.13-29.8-4-8.76-12.91-8.13-17.71-1.42l-13.55,18.93a9,9,0,0,1-1.51,1.78c-.28.05-1.06-.1-3.23-1.12-3.1-1.47-6.14-2.92-9.16-4.4l-6-104.44L273.62,81a12.87,12.87,0,0,0,2.44-6l3.07,0c6.22.06,5.78-9.76-.57-9.83l-4.41-.05c-.3-.93-.61-1.95-.93-3l5.17,0c6.22.07,5.79-9.76-.56-9.83l-6.77-.07c-.12-.85-.23-1.72-.31-2.58l8.23.09a5,5,0,0,0-.56-9.83Zm-9.91,215.37-9-.1L250.12,90.42l9,.1Zm11.64-50.17s6.33,3.18,10.8,1.58c3-1.06,4.7-3.43,5.82-5l13.56-18.93c.27-.39.51-.68.7-.92,3.09,6.87,0,14.05-3.36,21.66a87.08,87.08,0,0,0-3.56,9.05c-4.1,13.23-2.4,28.61,4.65,42.17,1.4,2.7,2.93,5.33,4.4,7.88,5.76,9.95,10.73,18.54,8.1,28.91-3.41,13.44-18.77,19.62-27.62,22.11-19.43,5.47-47.47,6.92-67.91-5.38a44.41,44.41,0,0,1-19.31-24.85c-1.79-6.1-2.86-15.26,2.25-24.26,2.24-3.94,5.35-7.39,8.64-11,2.08-2.3,4.22-4.67,6.18-7.23,6.93-9,9.34-18.68,6.77-27.12-1.47-4.84-4.31-8.71-7-12.45-10.49-14.3-15.48-25.72-12.4-34.85,1.39-4.12,4.59-7.67,6.56-7.27s1.88,4.77,7.51,10.15c0,0,0,0,0,0A180.52,180.52,0,0,1,240,191c2.66,4.48,5,8.84,7,13q1.49,28,3,56a5.39,5.39,0,0,0,5.2,5l18.81.2a4.58,4.58,0,0,0,4.64-4.86l-3.29-57.47,4.81,2.29Z"/></svg>