<?xml version="1.0" encoding="utf-8"?>
<!-- Generator: Adobe Illustrator 22.1.0, SVG Export Plug-In . SVG Version: 6.00 Build 0)  -->
<svg version="1.1" id="Calque_1" xmlns="http://www.w3.org/2000/svg" xmlns:xlink="http://www.w3.org/1999/xlink" x="0px" y="0px"
	 viewBox="0 0 500 500" style="enable-background:new 0 0 500 500;" xml:space="preserve">
<style type="text/css">
	.st0{fill:#EAEAEA;}
	.st1{fill:#8C8C8C;}
	.st2{fill:#FFFFFF;}
	.st3{fill:#EAEAEA;stroke:#8C8C8C;stroke-width:7;stroke-miterlimit:10;}
	.st4{fill:#070707;}
	.st5{fill:none;stroke:#8C8C8C;stroke-width:7;stroke-miterlimit:10;}
	.st6{fill:none;stroke:#8C8C8C;stroke-width:10;stroke-miterlimit:10;}
	.st7{fill:#8C8C8C;stroke:#8C8C8C;stroke-width:3;stroke-miterlimit:10;}
	.st8{fill:none;stroke:#8C8C8C;stroke-width:8;stroke-miterlimit:10;}
	.st9{fill:none;stroke:#8E8E8E;stroke-width:6;stroke-miterlimit:10;}
	.st10{fill:#8E8E8E;}
	.st11{fill:#505050;}
	.st12{fill:none;stroke:#8E8E8E;stroke-width:2;stroke-miterlimit:10;}
	.st13{fill:#8C8C8C;stroke:#8C8C8C;stroke-width:2;stroke-miterlimit:10;}
	.st14{fill:#8C8C8C;stroke:#FFFFFF;stroke-width:2;stroke-miterlimit:10;}
	.st15{fill:none;stroke:#FFFFFF;stroke-width:2;stroke-miterlimit:10;}
	.st16{fill:none;stroke:#8C8C8C;stroke-miterlimit:10;}
	.st17{fill:none;stroke:#8C8C8C;stroke-width:13;stroke-miterlimit:10;}
	.st18{fill:#EAEAEA;stroke:#8C8C8C;stroke-width:8;stroke-miterlimit:10;}
	.st19{fill:none;stroke:#8C8C8C;stroke-width:4;stroke-miterlimit:10;}
	.st20{fill:#8C8C8C;stroke:#8C8C8C;stroke-width:0.75;stroke-miterlimit:10;}
	.st21{fill:none;stroke:#8C8C8C;stroke-width:9;stroke-miterlimit:10;}
	.st22{fill:#8C8C8C;stroke:#8C8C8C;stroke-width:0.5;stroke-miterlimit:10;}
	.st23{fill:#6B6B6B;}
	.st24{fill:none;}
	.st25{stroke:#8C8C8C;stroke-width:8;stroke-miterlimit:10;}
	.st26{fill:#8C8C8C;stroke:#8C8C8C;stroke-miterlimit:10;}
	.st27{fill:none;stroke:#8C8C8C;stroke-width:11;stroke-miterlimit:10;}
	.st28{fill:none;stroke:#8C8C8C;stroke-width:6;stroke-miterlimit:10;}
	.st29{stroke:#8C8C8C;stroke-width:6;stroke-miterlimit:10;}
	.st30{fill:#8C8C8C;stroke:#8C8C8C;stroke-width:4;stroke-miterlimit:10;}
	.st31{fill:#8C8C8C;stroke:#8C8C8C;stroke-width:1.05;stroke-miterlimit:10;}
	.st32{fill:#D6D6D6;}
	.st33{fill:none;stroke:#EAEAEA;stroke-width:5;stroke-miterlimit:10;}
	.st34{fill:#8C8C8C;stroke:#8C8C8C;stroke-width:10;stroke-miterlimit:10;}
	.st35{font-family:'HelveticaNeue-CondensedBold';}
	.st36{font-size:54px;}
	.st37{fill:none;stroke:#CECECE;stroke-width:2;stroke-miterlimit:10;}
	.st38{fill:none;stroke:#FFFFFF;stroke-width:4;stroke-miterlimit:10;}
	.st39{fill-rule:evenodd;clip-rule:evenodd;fill:#8C8C8C;}
	.st40{fill:#8C8C8C;stroke:#8C8C8C;stroke-width:8;stroke-miterlimit:10;}
	.st41{fill:#8C8C8C;stroke:#8C8C8C;stroke-width:7;stroke-miterlimit:10;}
	.st42{fill:#DBDBDB;stroke:#8C8C8C;stroke-width:7;stroke-miterlimit:10;}
	.st43{fill:none;stroke:#8C8C8C;stroke-width:5;stroke-miterlimit:10;}
	.st44{fill:none;stroke:#8C8C8C;stroke-width:3;stroke-miterlimit:10;}
	.st45{clip-path:url(#SVGID_2_);fill:#8C8C8C;}
	.st46{clip-path:url(#SVGID_2_);fill:none;stroke:#8C8C8C;stroke-width:8;stroke-miterlimit:10;}
	.st47{clip-path:url(#SVGID_2_);fill:#FFFFFF;}
	.st48{clip-path:url(#SVGID_2_);fill:#EAEAEA;}
	.st49{clip-path:url(#SVGID_2_);fill:none;stroke:#8C8C8C;stroke-miterlimit:10;}
	.st50{fill:none;stroke:#FFFFFF;stroke-width:0.75;stroke-miterlimit:10;}
	.st51{fill:none;stroke:#8C8C8C;stroke-width:14;stroke-miterlimit:10;}
	.st52{fill:none;stroke:#EAEAEA;stroke-width:2;stroke-miterlimit:10;}
	.st53{fill:none;stroke:#8C8C8C;stroke-width:2;stroke-miterlimit:10;}
</style>
<rect x="-1" class="st0" width="500" height="500"/>
<g>
	<g>
		<path class="st1" d="M232.6,193c-2.4-2.6-5.7-4.1-9.2-4.1c-7-0.1-12.8,5.5-12.9,12.5c0,2.3,1.8,4.1,4,4.2c0,0,0,0,0.1,0
			c2.2,0,4.1-1.8,4.1-4c0-2.5,2.1-4.5,4.6-4.5c1.3,0,2.4,0.5,3.3,1.5c1.5,1.7,4.1,1.8,5.8,0.3C234,197.3,234.1,194.7,232.6,193z"/>
	</g>
</g>
<g>
	<g>
		<path class="st1" d="M254.4,206.3c-1.3-2.9-3.7-5.3-6.7-6.4c-6-2.2-12.8,0.9-15,6.9c-0.8,2.1,0.3,4.5,2.4,5.3
			c0.5,0.2,1,0.3,1.4,0.3c1.7,0,3.2-1,3.8-2.7c0.7-1.8,2.7-2.7,4.5-2.1c0.9,0.3,1.6,1,2,1.9c0.9,2.1,3.3,3.1,5.4,2.2
			C254.3,210.8,255.3,208.4,254.4,206.3z"/>
	</g>
</g>
<g>
	<g>
		<path class="st1" d="M280.8,170.1c-1.6-1.6-4.2-1.6-5.8,0l-3.9,3.9c-1.6,1.6-1.6,4.2,0,5.8c0.8,0.8,1.8,1.2,2.9,1.2
			c1,0,2.1-0.4,2.9-1.2l3.9-3.9C282.4,174.3,282.4,171.7,280.8,170.1z"/>
	</g>
</g>
<g>
	<g>
		<path class="st1" d="M255.3,222.9h-5.5c-2.3,0-4.1,1.8-4.1,4.1s1.8,4.1,4.1,4.1h5.5c2.3,0,4.1-1.8,4.1-4.1
			S257.6,222.9,255.3,222.9z"/>
	</g>
</g>
<g>
	<g>
		<path class="st1" d="M297.1,222.9h-5.5c-2.3,0-4.1,1.8-4.1,4.1s1.8,4.1,4.1,4.1h5.5c2.3,0,4.1-1.8,4.1-4.1
			S299.4,222.9,297.1,222.9z"/>
	</g>
</g>
<g>
	<g>
		<path class="st1" d="M403.9,296.7l-1.1-5.8c-0.7-3.7-3.9-6.3-7.6-6.3c-0.5,0-0.9,0-1.4,0.1l-21.7,4l9.8-6.6
			c2.6-1.7,3.9-4.8,3.3-7.9c-0.2-0.8-0.4-1.6-0.9-2.4l-3-5.3c-1-1.8-2.8-3.2-4.8-3.7c-1-0.3-2-0.3-3-0.2c1.1-6,1.7-12.2,1.7-18.5
			c0-2.8-1.7-5.2-4.1-6.2c3.1-7.4,3.3-16,0.2-23.8c-0.3-0.6-0.6-1.2-1.1-1.7c-0.5-0.5-1-0.8-1.7-1.1c-3.7-1.5-7.6-2.2-11.6-2.2
			c-0.5,0-1,0-1.5,0c-0.6-11.4-10-20.5-21.6-20.5c-1.5,0-3,0.2-4.4,0.5c1-5.9,0.4-12.2-1.9-18c-0.2-0.6-0.6-1.2-1.1-1.7
			c-0.5-0.5-1.1-0.9-1.7-1.1c-4-1.6-8.2-2.4-12.5-2.4c-6.4,0-12.6,1.8-17.9,5.2c-1.9-5.6-5.2-10.9-9.6-15.4c-1.3-1.3-3.1-2-4.9-2
			c-1.9,0-3.6,0.7-4.9,2l-19.8,19.9c-3.7-3.3-8.5-5.2-13.7-5.2c-1.2,0-2.4,0.1-3.6,0.3c-4.3,0.7-8.2,2.8-11.2,5.9
			c-3.9-1.9-8.3-2.5-12.5-1.8c-0.9,0.2-1.8,0.4-2.7,0.7v-15.3c0-10.5-8.5-19.1-19-19.3v-8.7c3.2-0.6,5.7-3.4,5.7-6.7v-19.7
			c0-3.8-3.1-6.8-6.8-6.8h-33.3c-3.8,0-6.8,3.1-6.8,6.8v19.7c0,3.4,2.4,6.2,5.7,6.7v8.7c-10.5,0.2-19,8.8-19,19.3v119.5
			c-8.2,7.4-13.3,17.7-13.3,29.1c0,22.4,19.7,40.6,43.8,40.6l163.8,0c5.6,0,10.9-2.5,14.4-6.7c3.5-4.2,5-9.6,4.1-14.9l32.7,5.9
			c0.5,0.1,0.9,0.1,1.4,0.1c1.6,0,3.2-0.5,4.5-1.4c1.7-1.2,2.9-3.1,3.2-5.2l0.9-5.9c0.1-0.9,0.1-1.7,0-2.6c-0.6-3-2.9-5.5-5.9-6.1
			l-11.5-2.6l21.7-4c2-0.4,3.8-1.5,5-3.2C403.8,300.8,404.2,298.8,403.9,296.7z M159.3,107.2h30.6v16.9h-30.6V107.2z M146,176.8
			c0-2.7,0-5.5,0-8.2v-8.4c0-6.1,5-11.1,11.1-11.1h34.9c6.1,0,11.1,5,11.1,11.1v8.4c0,2.7,0,5.5,0,8.2v3.6
			c-4.7,4.6-7.1,11.3-5.9,18.3c0,0,0,0,0,0c-6.6,4.5-10.1,12.5-8.7,20.6c0.1,0.5,0.2,0.9,0.3,1.4c-2,1.1-3.9,2.6-5.5,4.3H146V176.8z
			 M146,233.2L146,233.2h32.6c-0.4,1.4-0.7,2.8-0.9,4.3h-0.7c-3.8,0-6.8,3.1-6.8,6.8c0,6.5,0.6,12.9,1.8,19.1
			c-1.2-0.1-2.4-0.1-3.6-0.1c-5,0-9.7,0.8-13.3,2.2c-5.5,2.2-7.1,5.3-7.4,7.4c-0.6,0.3-1.2,0.6-1.7,0.9V233.2z M197.8,283.5
			c1.5,1.2,2.4,2.2,2.9,2.9c0,0-0.1,0-0.2,0c-2.3,0-6.5-0.9-11.2-3.6c-1.8-1-3.4-2.1-4.7-3.2c-1.5-1.3-3.8-1.3-5.3,0
			c-1.3,1.1-2.9,2.2-4.7,3.2c-4.7,2.6-8.9,3.6-11.2,3.6c-0.1,0-0.1,0-0.2,0c0.5-0.7,1.4-1.7,2.9-2.9c1.3-1,1.8-2.7,1.4-4.3
			c-0.5-1.6-1.8-2.7-3.5-2.9c-4-0.5-6.5-1.5-7.7-2.2c1.5-0.9,5.2-2.5,12-2.5c5.6,0,9.7,1.2,11.6,2.3c1.2,0.7,2.8,0.7,4,0
			c2-1.1,6-2.3,11.6-2.3c6.7,0,10.5,1.6,12,2.5c-1.2,0.7-3.7,1.8-7.7,2.2c-1.6,0.2-3,1.4-3.5,2.9C196,280.7,196.6,282.4,197.8,283.5
			z M189.7,333.3l0.1,0.8c0.5,2.6,1.5,5,2.9,7.1h-24.4c-19.7,0-35.6-14.6-35.6-32.4c0-12.2,7.5-22.9,18.5-28.4
			c1.3,0.9,2.8,1.8,4.7,2.4c-0.7,1.3-1.3,2.6-1.4,4c-0.2,1.9,0.4,3.7,1.6,5c1.6,1.8,4.1,2.7,7.3,2.7c4.3,0,10-1.7,15.2-4.6
			c1.2-0.7,2.3-1.4,3.4-2.1c1.1,0.7,2.2,1.4,3.4,2.1c5.2,2.9,10.9,4.6,15.2,4.6h0c3.2,0,5.7-0.9,7.3-2.7c1.2-1.4,1.8-3.2,1.6-5
			c-0.1-1.4-0.6-2.8-1.4-4c1.9-0.7,3.4-1.5,4.7-2.4c8.7,4.4,15.2,12,17.5,21.1l-29,11C193,315.6,188,324.4,189.7,333.3z
			 M340.4,337.3c-2,2.4-5,3.8-8.1,3.8l-4.3,0l-2.7-14.5c-0.4-2.2-2.5-3.7-4.8-3.3c-2.2,0.4-3.7,2.5-3.3,4.8l2.4,13l-14.1,0l-1.8-9.8
			c-0.4-2.2-2.5-3.7-4.8-3.3c-2.2,0.4-3.7,2.5-3.3,4.8l1.5,8.3l-32.8,0l-2.5-13.3c-0.4-2.2-2.5-3.7-4.8-3.3
			c-2.2,0.4-3.7,2.5-3.3,4.8l2.2,11.8l-47.8,0c0,0,0,0,0,0c-5.1,0-9.5-3.6-10.4-8.6l-0.1-0.8c-0.9-5,1.9-9.9,6.6-11.8l16.1-6.1
			l1.2,6.5c0.4,2,2.1,3.3,4,3.3c0.2,0,0.5,0,0.8-0.1c2.2-0.4,3.7-2.5,3.3-4.8l-1.5-7.9c15.3-6,30.5-12,45.8-18
			c22.4-10.1,31.4-14.9,31-16c-0.4-1-10.1,1.4-33,9c-11.3,4.2-22.6,8.3-33.9,12.5c-3.1-11-11.1-20.3-21.7-25.5
			c-0.3-2.1-1.9-5.2-7.4-7.4c-3.6-1.4-8.3-2.2-13.3-2.2c-3.4,0-6.7,0.4-9.5,1.1v-2.5c0-2.3-1.8-4.1-4.1-4.1c-1,0-1.8,0.3-2.5,0.9
			c-0.6-4.3-1-8.6-1.1-13h133.3c7.8,0,15.6,0,23.5,0H367c-0.1,7.5-1.1,14.8-2.9,22L342,280.7c-1.4-4.7-4.5-8.7-8.9-11.2
			c-4.9-2.7-10.7-3.2-15.9-1.2l-45.7,17.4c-2.1,0.8-3.2,3.2-2.4,5.3c0.8,2.1,3.2,3.2,5.3,2.4l6-2.3l1.9,10.1c0.4,2,2.1,3.3,4,3.3
			c0.2,0,0.5,0,0.8-0.1c2.2-0.4,3.7-2.5,3.3-4.8l-2.1-11.6l31.9-12.1c3-1.1,6.2-0.9,9,0.7c2.7,1.5,4.7,4.2,5.2,7.3l8.3,44.7
			C343.2,331.8,342.4,334.9,340.4,337.3z M355,305.3c-1.9,0.4-3.3,2-3.4,3.9c0,1.9,1.3,3.6,3.2,4.1l30.5,7l-0.8,5.1l-35.3-6.3
			l-5.5-29.8l30.8-18.2l2.6,4.5L351,293c-1.6,1.1-2.2,3.1-1.5,4.9c0.7,1.8,2.6,2.8,4.5,2.5l40.8-7.5l0.9,4.9L355,305.3z M307,211"/>
	</g>
</g>
<g>
	<rect y="365" class="st24" width="500" height="144"/>
	<text transform="matrix(1 0 0 1 128.5825 403.5557)" class="st23 st35 st36">Ingrédients</text>
</g>
</svg>
