<?xml version="1.0" encoding="utf-8"?>
<!-- Generator: Adobe Illustrator 22.1.0, SVG Export Plug-In . SVG Version: 6.00 Build 0)  -->
<svg version="1.1" id="Calque_1" xmlns="http://www.w3.org/2000/svg" xmlns:xlink="http://www.w3.org/1999/xlink" x="0px" y="0px"
	 viewBox="0 0 500 500" style="enable-background:new 0 0 500 500;" xml:space="preserve">
<style type="text/css">
	.st0{fill:#4FBDD7;}
	.st1{fill:#EAEAEA;}
	.st2{fill:#FFFFFF;}
	.st3{fill:#4FBDD7;stroke:#FFFFFF;stroke-width:5;stroke-miterlimit:10;}
	.st4{fill:#8C8C8C;}
	.st5{fill:#070707;}
	.st6{fill:none;stroke:#FFFFFF;stroke-width:7;stroke-miterlimit:10;}
	.st7{fill:none;stroke:#FFFFFF;stroke-width:10;stroke-miterlimit:10;}
	.st8{fill:#FFFFFF;stroke:#FFFFFF;stroke-width:3;stroke-miterlimit:10;}
	.st9{fill:none;stroke:#FDFFFF;stroke-width:6;stroke-miterlimit:10;}
	.st10{fill:#FAFEFF;}
	.st11{fill:none;stroke:#FFFFFF;stroke-width:2;stroke-miterlimit:10;}
	.st12{fill:#FFFFFF;stroke:#FFFFFF;stroke-width:2;stroke-miterlimit:10;}
	.st13{fill:#4FBDD7;stroke:#FFFFFF;stroke-width:4;stroke-miterlimit:10;}
	.st14{fill:#FFFFFF;stroke:#FFFFFF;stroke-width:4;stroke-miterlimit:10;}
	.st15{fill:none;stroke:#FFFFFF;stroke-miterlimit:10;}
	.st16{fill:#FFFFFF;stroke:#FFFFFF;stroke-width:13;stroke-miterlimit:10;}
	.st17{fill:#4FBDD7;stroke:#FFFFFF;stroke-width:8;stroke-miterlimit:10;}
	.st18{fill:#FFFFFF;stroke:#FFFFFF;stroke-width:0.75;stroke-miterlimit:10;}
	.st19{fill:#FFFFFF;stroke:#FFFFFF;stroke-width:0.5;stroke-miterlimit:10;}
	.st20{fill:#FFFFFF;stroke:#FFFFFF;stroke-width:8;stroke-miterlimit:10;}
	.st21{fill:#FFFFFF;stroke:#FFFFFF;stroke-miterlimit:10;}
	.st22{fill:#FFFFFF;stroke:#FFFFFF;stroke-width:11;stroke-miterlimit:10;}
	.st23{fill:#FFFFFF;stroke:#FFFFFF;stroke-width:6;stroke-miterlimit:10;}
	.st24{fill:#8C8C8C;stroke:#8C8C8C;stroke-width:4;stroke-miterlimit:10;}
	.st25{fill:#FFFFFF;stroke:#FFFFFF;stroke-width:1.05;stroke-miterlimit:10;}
	.st26{fill:none;stroke:#4FBDD7;stroke-width:5;stroke-miterlimit:10;}
	.st27{fill:none;stroke:#FFFFFF;stroke-width:4;stroke-miterlimit:10;}
	.st28{fill:#8C8C8C;stroke:#FFFFFF;stroke-width:4;stroke-miterlimit:10;}
	.st29{fill:#FFFFFF;stroke:#FFFFFF;stroke-width:10;stroke-miterlimit:10;}
	.st30{fill:none;stroke:#4FBDD7;stroke-width:2;stroke-miterlimit:10;}
	.st31{fill:none;}
	.st32{font-family:'HelveticaNeue-CondensedBold';}
	.st33{font-size:54px;}
	.st34{fill-rule:evenodd;clip-rule:evenodd;fill:#FFFFFF;}
	.st35{fill:#FFFFFF;stroke:#FFFFFF;stroke-width:7;stroke-miterlimit:10;}
	.st36{fill:#FFFFFF;stroke:#4FBDD7;stroke-width:7;stroke-miterlimit:10;}
	.st37{fill:#FCFCFC;}
	.st38{fill:#FFFFFF;stroke:#FFFFFF;stroke-width:5;stroke-miterlimit:10;}
	.st39{fill:none;stroke:#FFFFFF;stroke-width:3;stroke-miterlimit:10;}
	.st40{fill:none;stroke:#FFFFFF;stroke-width:8;stroke-miterlimit:10;}
	.st41{fill:none;stroke:#FFFFFF;stroke-width:6;stroke-miterlimit:10;}
	.st42{fill:#FFFFFF;stroke:#4FBDD7;stroke-width:3;stroke-miterlimit:10;}
	.st43{fill:none;stroke:#FFFFFF;stroke-width:0.75;stroke-miterlimit:10;}
	.st44{fill:#4FBDD7;stroke:#FFFFFF;stroke-width:9;stroke-miterlimit:10;}
	.st45{fill:none;stroke:#FFFFFF;stroke-width:9;stroke-miterlimit:10;}
	.st46{fill:none;stroke:#4FBDD7;stroke-width:3;stroke-miterlimit:10;}
</style>
<rect y="-5" class="st0" width="500" height="510"/>
<g>
	<path class="st2" d="M367,119l-8.9-8.9l-8.9-8.9c-1-1-2.5-1.4-4-1.4c-1.4,0-2.9,0.4-4.2,1.2l-6.4,3.1c-0.1-0.1-0.2-0.2-0.3-0.4
		l-5.4-5.4c-2.1-2.1-5.4-2.1-7.4,0c-2.1,2.1-2.1,5.4,0,7.4l3.2,3.2l-2.6,1.3l-4.1-4.1c-2.1-2.1-5.4-2.1-7.4,0
		c-2.1,2.1-2.1,5.4,0,7.4l1.6,1.6l-8.5,4.2c-2.7,1.7-3.2,4.8-1,7l1.9,1.9L256.7,176c-5-1.7-10.7-2.6-17.2-2.6
		c-30.1,0-70.9,19.8-88.6,37.6c-12.2,12.2-18.9,28.4-18.9,45.6c0,17.2,6.7,33.4,18.9,45.6c12.2,12.2,28.4,18.9,45.6,18.9
		c17.2,0,33.4-6.7,45.6-18.9c12.5-12.5,25.4-35.7,32.2-57.7c6-19.4,6.8-35.9,2.6-48.1l47.8-47.8c1.2,0.9,2.8,1.3,4.4,1.3
		c1.3,0,2.7-0.3,3.8-1l7.4-5.4c0,0,0.1,0.1,0.1,0.1l5.4,5.4c1,1,2.4,1.5,3.7,1.5c1.3,0,2.7-0.5,3.7-1.5c2.1-2.1,2.1-5.4,0-7.4
		l-4.4-4.4l2.2-1.6l3.8,3.8c1,1,2.4,1.5,3.7,1.5c1.3,0,2.7-0.5,3.7-1.5c2.1-2.1,2.1-5.4,0-7.4l-2.7-2.7l5.5-4
		C368,123.6,368.8,120.8,367,119z M269.3,183.7c-0.9-0.9-1.9-1.8-2.9-2.6l45.4-45.5l1.5,1.5l4.1,4l-45.4,45.5
		C271.1,185.6,270.3,184.6,269.3,183.7z M329.5,138.4l-8.8-8.7L316,125l28.2-13.8l6.4,6.4l3.1,3.1L329.5,138.4z"/>
</g>
<path class="st0" d="M171.3,255.7c-2.1-2.1-5.4-2.1-7.4,0c-2.1,2.1-2.1,5.4,0,7.4l28.1,28c1,1,2.4,1.5,3.7,1.5
	c1.3,0,2.7-0.5,3.7-1.5c2.1-2.1,2.1-5.4,0-7.4L171.3,255.7z"/>
<path class="st0" d="M245.6,224.9c-1.5-3.3-3.6-6.4-6.3-9.2c-5.8-5.8-13.5-9-21.8-9c-8.2,0-15.9,3.2-21.7,9c-5.8,5.8-9,13.5-9,21.8
	c0,8.2,3.2,15.9,9,21.7c5.8,5.8,13.5,9,21.8,9c8.2,0,15.9-3.2,21.8-9c9.2-9.2,11.3-22.7,6.4-34C245.7,225.1,245.7,225,245.6,224.9z
	 M206.3,254.3c-1.1-0.7-2.1-1.6-3-2.5c-0.9-0.9-1.8-1.9-2.5-3l28.1-28.1c1.1,0.7,2.1,1.6,3,2.5c0.9,0.9,1.8,2,2.5,3L206.3,254.3z
	 M217.4,217.3l-20.1,20.1c0-5.3,2.1-10.4,5.9-14.1C207,219.4,212.1,217.3,217.4,217.3z M217.7,257.7l20.1-20.1
	c0,5.1-2,10.2-5.9,14.1C228.1,255.6,223.1,257.7,217.7,257.7z"/>
<g>
	<rect x="-4" y="364" class="st31" width="500" height="144"/>
	<text transform="matrix(1 0 0 1 134.1133 402.5557)" class="st2 st32 st33">Mandoline</text>
</g>
</svg>
