<?xml version="1.0" encoding="utf-8"?>
<!-- Generator: Adobe Illustrator 22.1.0, SVG Export Plug-In . SVG Version: 6.00 Build 0)  -->
<svg version="1.1" id="Calque_1" xmlns="http://www.w3.org/2000/svg" xmlns:xlink="http://www.w3.org/1999/xlink" x="0px" y="0px"
	 viewBox="0 0 500 500" style="enable-background:new 0 0 500 500;" xml:space="preserve">
<style type="text/css">
	.st0{fill:#4FBDD7;}
	.st1{fill:#EAEAEA;}
	.st2{fill:#FFFFFF;}
	.st3{fill:#4FBDD7;stroke:#FFFFFF;stroke-width:5;stroke-miterlimit:10;}
	.st4{fill:#8C8C8C;}
	.st5{fill:#070707;}
	.st6{fill:none;stroke:#FFFFFF;stroke-width:7;stroke-miterlimit:10;}
	.st7{fill:none;stroke:#FFFFFF;stroke-width:10;stroke-miterlimit:10;}
	.st8{fill:#FFFFFF;stroke:#FFFFFF;stroke-width:3;stroke-miterlimit:10;}
	.st9{fill:none;stroke:#FDFFFF;stroke-width:6;stroke-miterlimit:10;}
	.st10{fill:#FAFEFF;}
	.st11{fill:none;stroke:#FFFFFF;stroke-width:2;stroke-miterlimit:10;}
	.st12{fill:#FFFFFF;stroke:#FFFFFF;stroke-width:2;stroke-miterlimit:10;}
	.st13{fill:#4FBDD7;stroke:#FFFFFF;stroke-width:4;stroke-miterlimit:10;}
	.st14{fill:#FFFFFF;stroke:#FFFFFF;stroke-width:4;stroke-miterlimit:10;}
	.st15{fill:none;stroke:#FFFFFF;stroke-miterlimit:10;}
	.st16{fill:#FFFFFF;stroke:#FFFFFF;stroke-width:13;stroke-miterlimit:10;}
	.st17{fill:#4FBDD7;stroke:#FFFFFF;stroke-width:8;stroke-miterlimit:10;}
	.st18{fill:#FFFFFF;stroke:#FFFFFF;stroke-width:0.75;stroke-miterlimit:10;}
	.st19{fill:#FFFFFF;stroke:#FFFFFF;stroke-width:0.5;stroke-miterlimit:10;}
	.st20{fill:#FFFFFF;stroke:#FFFFFF;stroke-width:8;stroke-miterlimit:10;}
	.st21{fill:#FFFFFF;stroke:#FFFFFF;stroke-miterlimit:10;}
	.st22{fill:#FFFFFF;stroke:#FFFFFF;stroke-width:11;stroke-miterlimit:10;}
	.st23{fill:#FFFFFF;stroke:#FFFFFF;stroke-width:6;stroke-miterlimit:10;}
	.st24{fill:#8C8C8C;stroke:#8C8C8C;stroke-width:4;stroke-miterlimit:10;}
	.st25{fill:#FFFFFF;stroke:#FFFFFF;stroke-width:1.05;stroke-miterlimit:10;}
	.st26{fill:none;stroke:#4FBDD7;stroke-width:5;stroke-miterlimit:10;}
	.st27{fill:none;stroke:#FFFFFF;stroke-width:4;stroke-miterlimit:10;}
	.st28{fill:#8C8C8C;stroke:#FFFFFF;stroke-width:4;stroke-miterlimit:10;}
	.st29{fill:#FFFFFF;stroke:#FFFFFF;stroke-width:10;stroke-miterlimit:10;}
	.st30{fill:none;stroke:#4FBDD7;stroke-width:2;stroke-miterlimit:10;}
	.st31{fill-rule:evenodd;clip-rule:evenodd;fill:#FFFFFF;}
	.st32{fill:#FFFFFF;stroke:#FFFFFF;stroke-width:7;stroke-miterlimit:10;}
	.st33{fill:#FFFFFF;stroke:#4FBDD7;stroke-width:7;stroke-miterlimit:10;}
	.st34{fill:none;}
	.st35{font-family:'HelveticaNeue-CondensedBold';}
	.st36{font-size:54px;}
	.st37{fill:#FCFCFC;}
	.st38{fill:#FFFFFF;stroke:#FFFFFF;stroke-width:5;stroke-miterlimit:10;}
	.st39{fill:none;stroke:#FFFFFF;stroke-width:3;stroke-miterlimit:10;}
	.st40{fill:none;stroke:#FFFFFF;stroke-width:8;stroke-miterlimit:10;}
	.st41{fill:none;stroke:#FFFFFF;stroke-width:6;stroke-miterlimit:10;}
	.st42{fill:#FFFFFF;stroke:#4FBDD7;stroke-width:3;stroke-miterlimit:10;}
	.st43{fill:none;stroke:#FFFFFF;stroke-width:0.75;stroke-miterlimit:10;}
	.st44{fill:#4FBDD7;stroke:#FFFFFF;stroke-width:9;stroke-miterlimit:10;}
	.st45{fill:none;stroke:#FFFFFF;stroke-width:9;stroke-miterlimit:10;}
	.st46{fill:none;stroke:#4FBDD7;stroke-width:3;stroke-miterlimit:10;}
</style>
<rect x="-5" y="1" class="st0" width="506" height="500"/>
<g id="jzXfNE_1_">
	<g>
		<path class="st2" d="M246.2,313.6c-4.1-4.7-7.8-8.7-11.2-12.9c-0.9-1.1-1.1-3.1-1.1-4.7c-0.1-19.2,0-38.3,0-57.5
			c0-4.9,0.4-9.3-6.2-11.6c-2.3-0.8-3.3-7-4-10.9c-1.4-8.3-1.3-17-3.4-25.1c-1.2-4.7-5.5-8.5-8.4-12.8c-0.4-0.5-0.7-1.2-1.1-1.7
			c-8.9-10.1-13-21.8-10.8-35.3c0.8-4.8-1.6-5.9-5.9-5.7c-7.3,0.3-14.7,0.2-22,0.1c-9-0.1-14.5-5.2-14.5-13
			c0.1-7.4,5.9-12.3,14.6-12.3c9,0,17.9,0,27.7,0c0-4.2-0.1-8,0-11.8c0.1-6.5,2.9-9.5,9.3-9.9c1.8-0.1,3.7-0.1,5.5,0
			c2.8,0.2,4.6-0.4,5.4-3.6c1-4,4.4-5.8,8.4-5.8c11.8-0.1,23.7-0.1,35.5,0c4.1,0,7.2,2.1,8.4,5.9c0.9,3.2,2.6,3.8,5.5,3.5
			c1.6-0.2,3.3-0.1,5,0c6.6,0.3,9.7,3.5,10,10c0.5,11.6,0.5,11.6,12.3,11.6c5.5,0,11-0.1,16.5,0c7.7,0.2,13.1,5.3,13.3,12.1
			c0.1,7.3-4.9,12.8-12.8,13.1c-8.3,0.3-16.7,0.2-25,0.1c-3.2-0.1-5,0.9-4.3,4.2c4.2,19.7-8.9,32.6-18,47.2c-2.2,3.5-3.3,7.8-4,11.8
			c-1.1,6.9-1.6,13.9-2.2,20.8c-0.4,4-2.1,7.1-6,8.3c-3,0.9-3.8,2.8-3.8,5.6c0,2.7-0.2,5.3-0.2,8c0,17.3-0.1,34.6,0.1,52
			c0,3.9-0.6,7-3.5,9.8C252.1,306.3,249.5,309.8,246.2,313.6z M284.1,128c0-8.8-0.2-17.7,0.1-26.5c0.2-4.7-2.5-4.5-5.7-4.5
			c-3.2,0-5.8-0.2-5.6,4.5c0.3,10.6,0.1,21.3,0.1,32c0,7.1-3.3,10.5-10.3,10.5c-10.8,0-21.7,0-32.5,0c-7.8,0-10.8-3-10.9-10.9
			c-0.1-10.3-0.2-20.7,0.1-31c0.1-3.9-1-5.4-5-5.2c-3.6,0.2-6.3-0.1-6.3,5.1c0.3,17.1,0,34.3,0.2,51.5c0,2.2,0.8,4.6,2,6.5
			c4,6.5,8.2,12.9,12.7,19.1c1.1,1.6,3.6,3.1,5.5,3.1c11.8,0.3,23.6,0.2,35.5,0c1.6,0,3.8-0.8,4.6-1.9c8.9-12.7,19.3-24.9,15.6-42.3
			C283.5,134.8,284.1,131.4,284.1,128z M263.9,135.3c0-16,0-31.5,0-47.1c-12.1,0-23.8,0-35.7,0c0,15.9,0,31.4,0,47.1
			C240.2,135.3,251.8,135.3,263.9,135.3z M263.1,191.9c-1.3-0.5-1.7-0.8-2.2-0.8c-9.6-0.1-19.2-0.3-28.8-0.1c-0.8,0-2.3,2.1-2.3,3.2
			c0.5,7.4,1.1,14.9,2.1,22.3c0.2,1.3,2.3,3.3,3.6,3.5c5.4,0.6,10.9,0.9,16.3,0.7c2.5-0.1,6.7-1.3,7-2.7
			C260.8,209.4,261.9,200.6,263.1,191.9z M245.2,300.1c0.7,0,1.4,0,2.1,0c0.9-2.2,2.7-4.5,2.7-6.7c0.2-20.1,0.1-40.2,0.2-60.3
			c0-3.1-1.1-4.1-4-4.1c-3,0-4.3,1.1-4.2,4.1c0.2,19.9,0.2,39.9,0.5,59.8C242.4,295.3,244.2,297.7,245.2,300.1z M184,119
			c-4.3,0-8.7-0.4-12.9,0.2c-1.8,0.2-3.3,2.4-5,3.6c1.6,1.4,3.1,3.9,4.7,4c8.6,0.4,17.2,0.1,25.9,0.2c3.4,0,3-2.3,3.1-4.4
			c0.1-2.4-0.7-3.7-3.4-3.6C192.3,119.1,188.2,119,184,119z M293,126.9c10.1,0,19.5,0.2,29-0.2c1.4-0.1,2.8-2.6,4.1-3.9
			c-1.5-1.3-2.9-3.5-4.4-3.6c-6.1-0.4-12.3-0.2-18.4-0.2c-3.4,0-6.8,0-10.3,0C293,122,293,124.1,293,126.9z M252.4,223.7
			c-0.2,0-0.4,0-0.6,0c0,3.2,0,6.5,0,9.7c0.2,0,0.4,0,0.6,0C252.4,230.1,252.4,226.9,252.4,223.7z"/>
		<path class="st2" d="M173.6,304.9c12.8,0,25.6,0.1,38.4,0c6.8,0,10.2,1.6,11.5,5.7c2.5,7.7,11,11.8,22.6,11.7
			c11.3-0.2,19.4-4.4,21.6-11.8c1.2-4.1,5-5.6,11.7-5.6c25.3,0.1,50.6,0.1,75.9,0c5.1,0,9.4,0.6,9.7,4.1c0.3,3.9-4.5,4.5-9.8,4.5
			c-21.3,0-42.6,0.1-63.9-0.1c-6.1-0.1-9.4,0.7-12,4.4c-6.1,8.7-18.3,13.1-34.2,13c-15.9-0.1-27.7-4.8-33.6-13.5
			c-2.1-3.1-4.7-3.9-10-3.9c-20.2,0.2-40.3,0.1-60.5,0.1c-2.3,0-5.1,0.5-6.7-0.1c-3.1-1.2-5.6-3-8.3-4.6c2.8-1.3,5.5-3.6,8.4-3.7
			C147.5,304.7,160.6,304.9,173.6,304.9z"/>
		<path class="st2" d="M213.7,296.2c-7.5-5-14.4-9.3-21-14.1c-1-0.7-1.1-4-0.2-5.2c0.7-1.1,3.8-1.8,5-1.2
			c6.8,3.9,13.3,8.2,19.7,12.7c1.1,0.8,1.6,3.8,1,5.1C217.6,294.8,215.3,295.3,213.7,296.2z"/>
		<path class="st2" d="M277.9,296.5c-0.9-0.6-2.9-1.2-3.4-2.5c-0.6-1.3-0.3-4.1,0.7-4.8c6.2-4.9,12.7-9.6,19.3-14
			c1-0.7,4.2,0.2,5,1.4c0.8,1.1,0.5,4.3-0.5,5.1c-6,4.9-12.4,9.4-18.7,14C279.9,295.9,279.4,296,277.9,296.5z"/>
		<path class="st2" d="M263.9,135.3c-12.1,0-23.7,0-35.7,0c0-15.7,0-31.2,0-47.1c11.8,0,23.5,0,35.7,0
			C263.9,103.8,263.9,119.3,263.9,135.3z"/>
		<path class="st2" d="M263.1,191.9c-1.3,8.7-2.3,17.5-4.2,26.1c-0.3,1.4-4.5,2.6-7,2.7c-5.4,0.2-10.9-0.1-16.3-0.7
			c-1.4-0.2-3.5-2.1-3.6-3.5c-1-7.4-1.7-14.8-2.1-22.3c-0.1-1.1,1.5-3.2,2.3-3.2c9.6-0.2,19.2,0,28.8,0.1
			C261.4,191.1,261.9,191.4,263.1,191.9z"/>
		<path class="st2" d="M245.2,300.1c-1-2.4-2.8-4.8-2.8-7.2c-0.4-19.9-0.4-39.9-0.5-59.8c0-3,1.3-4.1,4.2-4.1c3,0,4.1,1,4,4.1
			c-0.1,20.1,0.1,40.2-0.2,60.3c0,2.3-1.7,4.5-2.7,6.7C246.6,300.1,245.9,300.1,245.2,300.1z"/>
		<path class="st2" d="M252.4,223.7c0,3.2,0,6.4,0,9.7c-0.2,0-0.4,0-0.6,0c0-3.2,0-6.5,0-9.7C252,223.7,252.2,223.7,252.4,223.7z"/>
	</g>
</g>
<g>
	<rect y="360" class="st34" width="500" height="144"/>
	<text transform="matrix(1 0 0 1 72.6123 398.5557)" class="st2 st35 st36">Marteau piqueur</text>
</g>
</svg>
