<?xml version="1.0" encoding="utf-8"?>
<!-- Generator: Adobe Illustrator 22.1.0, SVG Export Plug-In . SVG Version: 6.00 Build 0)  -->
<svg version="1.1" id="Calque_1" xmlns="http://www.w3.org/2000/svg" xmlns:xlink="http://www.w3.org/1999/xlink" x="0px" y="0px"
	 viewBox="0 0 500 500" style="enable-background:new 0 0 500 500;" xml:space="preserve">
<style type="text/css">
	.st0{fill:#4FBDD7;}
	.st1{fill:#EAEAEA;}
	.st2{fill:#FFFFFF;}
	.st3{fill:#4FBDD7;stroke:#FFFFFF;stroke-width:5;stroke-miterlimit:10;}
	.st4{fill:#8C8C8C;}
	.st5{fill:#070707;}
	.st6{fill:none;stroke:#FFFFFF;stroke-width:7;stroke-miterlimit:10;}
	.st7{fill:none;stroke:#FFFFFF;stroke-width:10;stroke-miterlimit:10;}
	.st8{fill:#FFFFFF;stroke:#FFFFFF;stroke-width:3;stroke-miterlimit:10;}
	.st9{fill:none;stroke:#FDFFFF;stroke-width:6;stroke-miterlimit:10;}
	.st10{fill:#FAFEFF;}
	.st11{fill:none;stroke:#FFFFFF;stroke-width:2;stroke-miterlimit:10;}
	.st12{fill:#FFFFFF;stroke:#FFFFFF;stroke-width:2;stroke-miterlimit:10;}
	.st13{fill:#4FBDD7;stroke:#FFFFFF;stroke-width:4;stroke-miterlimit:10;}
	.st14{fill:#FFFFFF;stroke:#FFFFFF;stroke-width:4;stroke-miterlimit:10;}
	.st15{fill:none;stroke:#FFFFFF;stroke-miterlimit:10;}
	.st16{fill:#FFFFFF;stroke:#FFFFFF;stroke-width:13;stroke-miterlimit:10;}
	.st17{fill:#4FBDD7;stroke:#FFFFFF;stroke-width:8;stroke-miterlimit:10;}
	.st18{fill:#FFFFFF;stroke:#FFFFFF;stroke-width:0.75;stroke-miterlimit:10;}
	.st19{fill:#FFFFFF;stroke:#FFFFFF;stroke-width:0.5;stroke-miterlimit:10;}
	.st20{fill:#FFFFFF;stroke:#FFFFFF;stroke-width:8;stroke-miterlimit:10;}
	.st21{fill:#FFFFFF;stroke:#FFFFFF;stroke-miterlimit:10;}
	.st22{fill:#FFFFFF;stroke:#FFFFFF;stroke-width:11;stroke-miterlimit:10;}
	.st23{fill:#FFFFFF;stroke:#FFFFFF;stroke-width:6;stroke-miterlimit:10;}
	.st24{fill:#8C8C8C;stroke:#8C8C8C;stroke-width:4;stroke-miterlimit:10;}
	.st25{fill:#FFFFFF;stroke:#FFFFFF;stroke-width:1.05;stroke-miterlimit:10;}
	.st26{fill:none;stroke:#4FBDD7;stroke-width:5;stroke-miterlimit:10;}
	.st27{fill:none;stroke:#FFFFFF;stroke-width:4;stroke-miterlimit:10;}
	.st28{fill:#8C8C8C;stroke:#FFFFFF;stroke-width:4;stroke-miterlimit:10;}
	.st29{fill:#FFFFFF;stroke:#FFFFFF;stroke-width:10;stroke-miterlimit:10;}
	.st30{fill:none;stroke:#4FBDD7;stroke-width:2;stroke-miterlimit:10;}
	.st31{fill-rule:evenodd;clip-rule:evenodd;fill:#FFFFFF;}
	.st32{fill:#FFFFFF;stroke:#FFFFFF;stroke-width:7;stroke-miterlimit:10;}
	.st33{fill:#FFFFFF;stroke:#4FBDD7;stroke-width:7;stroke-miterlimit:10;}
	.st34{fill:#FCFCFC;}
	.st35{fill:#FFFFFF;stroke:#FFFFFF;stroke-width:5;stroke-miterlimit:10;}
	.st36{fill:none;stroke:#FFFFFF;stroke-width:3;stroke-miterlimit:10;}
	.st37{fill:none;stroke:#FFFFFF;stroke-width:8;stroke-miterlimit:10;}
	.st38{fill:none;stroke:#FFFFFF;stroke-width:6;stroke-miterlimit:10;}
	.st39{fill:#FFFFFF;stroke:#4FBDD7;stroke-width:3;stroke-miterlimit:10;}
	.st40{fill:none;stroke:#FFFFFF;stroke-width:0.75;stroke-miterlimit:10;}
	.st41{fill:#4FBDD7;stroke:#FFFFFF;stroke-width:9;stroke-miterlimit:10;}
	.st42{fill:none;stroke:#FFFFFF;stroke-width:9;stroke-miterlimit:10;}
	.st43{fill:none;stroke:#4FBDD7;stroke-width:3;stroke-miterlimit:10;}
	.st44{fill:none;}
	.st45{font-family:'HelveticaNeue-CondensedBold';}
	.st46{font-size:54px;}
	.st47{fill:none;stroke:#FFFFFF;stroke-width:5;stroke-miterlimit:10;}
</style>
<rect x="1" y="-1" class="st0" width="500" height="500"/>
<g>
	<rect y="363" class="st44" width="500" height="144"/>
	<text transform="matrix(1 0 0 1 59.6533 401.5557)"><tspan x="0" y="0" class="st2 st45 st46">Matériel entretien </tspan><tspan x="113.4" y="64.8" class="st2 st45 st46">piscine</tspan></text>
</g>
<g id="KzXrRc.tif">
	<g>
		<path class="st2" d="M276.3,146.4c-0.7-4.3-2.2-8.5-2-12.8c0.4-7.7,1.8-15.4,2.7-23.1c0.2-1.9-0.2-3.9-0.3-5.8
			c-0.6,0-1.3,0-1.9-0.1c-30,73.5-59.9,147-89.9,220.5c-1.5-0.7-2.9-1.4-4.4-2.2c51.8-121.3,88-210.2,88.4-216.5
			c0.2-2.9,0.2-5.7,0.2-5.7c-0.2-3.7-1.3-7.4-0.6-11.1c2.5-13.4,9.1-26,19.9-37.6c0.5-0.5,1-1,1.5-1.5c8.2-7.7,11.6-8.3,21.2-3.1
			c19.1,10.2,24.1,24.9,19.7,42.7c-3.7,15-14.1,27.3-30.6,37.2c-1.6,0.9-1.6,1-3.2,1.9C287.4,135.2,280.7,141.4,276.3,146.4z
			 M304.3,52.4c-0.9-1-1.7-3.1-3.5-3.4c-1.4-0.3-4.1,1.2-5.8,2.2c-1.6,0.9-2.8,2.2-3.9,3.5c-9.9,11.1-16,23-18.4,35.7
			c-0.4,1.9-0.3,3.9,0.1,5.7c0.7,3.3,3.7,4,7.2,1.6c2.6-1.8,4.9-3.9,6.8-6.1c8.4-9.8,13.8-20.4,16.5-31.5
			C303.9,57.8,303.9,55.5,304.3,52.4z M314.8,83.4c2.5-8.8-1.2-15.9-9.2-16.7c0.2,1.4,0.3,2.6,0.7,3.7c0.6,2.2,2.2,4.3,2,6.4
			C308.1,80.5,310.7,82,314.8,83.4z M302.3,123.9c3.5-2.8,6.9-5.2,9.9-7.8c4.4-3.8,4.4-5,0.5-8.8
			C301.2,117.4,300.6,118.4,302.3,123.9z M317.8,109.8c8.4-7.9,10.2-14.8,4.7-17.6c-1.7,2.8-3,5.9-5.3,8.5
			C314,104.3,315.6,106.9,317.8,109.8z M287.9,118.4c-10.8,3.4-14.2,7.4-10.6,12.6C282.9,127.6,291.7,125.6,287.9,118.4z
			 M319.8,87.6c0.6-0.2,1.1-0.4,1.7-0.6c3.4-8.7,1.7-14.7-4.6-16.6c0.3,4,0.4,8.2,0.9,12.2C318,84.3,319.1,85.9,319.8,87.6z
			 M328.9,73.5c0.4-8.3-5.3-15.6-12.2-15.9c1.8,2.8,3.6,5.6,5.2,8.5C323.4,68.9,323.6,72.4,328.9,73.5z M324.1,74.7
			c3.6,5.9-3.8,12.6,2.8,17.8C331.7,84.2,331,77.1,324.1,74.7z M278.2,103.2c0.5,1.6,1,2.8,1.2,4.1c0.2,1.2,0.1,2.5,0.1,3.9
			c9.6-3.8,9.1-3.2,5.6-12.5c-1.2,0.8-2.3,1.6-3.4,2.3C280.6,101.8,279.4,102.5,278.2,103.2z M276.8,121.3c2.4-1.2,4.4-2.2,6.4-3.1
			c6.2-2.9,6.3-3,4.4-8.1C276.1,114.7,277.5,113.7,276.8,121.3z M309.7,96c6.4-8,6.3-10.3-1.3-12.8C307.4,87.6,302.9,92.3,309.7,96z
			 M309,100.2c-2.6,5.4-10.9,8.6-7.1,14.6C310,109.2,312.5,104.8,309,100.2z M289.8,105.4c7.4-5,7.7-7.2,2.2-13.4
			C284.9,96.2,289.3,100.5,289.8,105.4z M321,68c-2.5-3.4-4.8-6.8-7.6-10.1c-0.5-0.6-2.7-0.5-4.1-0.5c-0.3,0-1.2,1.7-0.9,2.1
			C311.8,62.9,313,67.7,321,68z M277.5,141c3.2-4.8,11.2-6.9,9.2-12.7C276.9,132.2,275.6,133.8,277.5,141z M300.8,106.2
			c8-5.8,8.5-7.8,3.1-12C299.5,97.9,297.5,101.9,300.8,106.2z M317,87.8c-6.8,10.8-6.8,10.8-3.1,13.9C321,93.7,321.8,90.2,317,87.8z
			 M298.6,111.9c-6.3,2.8-9.4,6.2-7.4,11.2C299.4,118.9,300,118,298.6,111.9z M297.4,97.8c6.2-5.5,6-7-0.8-12.1
			C290.8,90.4,297.4,93.3,297.4,97.8z M297,102.8c-5.5,3-8.4,6.2-5.6,10.6C298.5,110.6,299,109.6,297,102.8z M289.6,131.4
			c4.8-2.9,11.6-4.7,9.3-10.7C294.8,123.8,288,125.5,289.6,131.4z M303.2,89.1c4.3-5.9,3.8-7.7-2.6-9.8
			C295.2,83.8,301,85.8,303.2,89.1z M309.3,48.4c0.6,5,4.3,7.1,9.8,6.3C315.6,52.5,312.5,50.4,309.3,48.4z M306.4,78.9
			c-0.6-2.5-1.1-4.4-1.8-7.3C302.3,75,299.7,77.6,306.4,78.9z"/>
		<path class="st2" d="M224.3,281.1c5.5-1.2,10.4-1.6,15-3.3c10.5-3.9,17.7-11.3,21.8-21.8c1.1-2.8,2.7-5.4,3.6-8.2
			c0.5-1.3,0.5-3.4-0.2-4.3c-0.8-0.9-3.1-1.5-4.2-1c-1.1,0.6-2.1,2.6-2.1,3.9c0.3,17.7-14.8,31.2-34.7,29.9
			c-1.9-15.6-4.1-31.3-5.6-47.2c-0.2-1.9,3.1-5.4,5.4-6.1c6.7-2.1,13.6-3.8,20.6-4.6c17.2-1.9,34.3-1.7,51.1,3
			c9.5,2.7,10.3,3.8,9.1,13.3c-3,24-6.4,48.1-9.3,72.1c-0.6,5.1-2.7,7.7-7.5,8.7c-17.5,3.6-35.1,3.6-52.6,0c-4.8-1-7-3.6-7.4-8.7
			C226.9,298.2,225.4,289.7,224.3,281.1z M226.1,228.3c10.6,9.3,62.5,8.8,69.8-0.2C285,220.2,238,220.1,226.1,228.3z"/>
	</g>
</g>
</svg>
