<?xml version="1.0" encoding="utf-8"?>
<!-- Generator: Adobe Illustrator 22.1.0, SVG Export Plug-In . SVG Version: 6.00 Build 0)  -->
<svg version="1.1" id="Calque_1" xmlns="http://www.w3.org/2000/svg" xmlns:xlink="http://www.w3.org/1999/xlink" x="0px" y="0px"
	 viewBox="0 0 500 500" style="enable-background:new 0 0 500 500;" xml:space="preserve">
<style type="text/css">
	.st0{fill:#4FBDD7;}
	.st1{fill:#EAEAEA;}
	.st2{fill:#FFFFFF;}
	.st3{fill:#4FBDD7;stroke:#FFFFFF;stroke-width:5;stroke-miterlimit:10;}
	.st4{fill:#8C8C8C;}
	.st5{fill:#070707;}
	.st6{fill:none;stroke:#FFFFFF;stroke-width:7;stroke-miterlimit:10;}
	.st7{fill:none;stroke:#FFFFFF;stroke-width:10;stroke-miterlimit:10;}
	.st8{fill:#FFFFFF;stroke:#FFFFFF;stroke-width:3;stroke-miterlimit:10;}
	.st9{fill:none;stroke:#FDFFFF;stroke-width:6;stroke-miterlimit:10;}
	.st10{fill:#FAFEFF;}
	.st11{fill:none;stroke:#FFFFFF;stroke-width:2;stroke-miterlimit:10;}
	.st12{fill:#FFFFFF;stroke:#FFFFFF;stroke-width:2;stroke-miterlimit:10;}
	.st13{fill:#4FBDD7;stroke:#FFFFFF;stroke-width:4;stroke-miterlimit:10;}
	.st14{fill:#FFFFFF;stroke:#FFFFFF;stroke-width:4;stroke-miterlimit:10;}
	.st15{fill:none;stroke:#FFFFFF;stroke-miterlimit:10;}
	.st16{fill:#FFFFFF;stroke:#FFFFFF;stroke-width:13;stroke-miterlimit:10;}
	.st17{fill:#4FBDD7;stroke:#FFFFFF;stroke-width:8;stroke-miterlimit:10;}
	.st18{fill:#FFFFFF;stroke:#FFFFFF;stroke-width:0.75;stroke-miterlimit:10;}
	.st19{fill:#FFFFFF;stroke:#FFFFFF;stroke-width:0.5;stroke-miterlimit:10;}
	.st20{fill:#FFFFFF;stroke:#FFFFFF;stroke-width:8;stroke-miterlimit:10;}
	.st21{fill:#FFFFFF;stroke:#FFFFFF;stroke-miterlimit:10;}
	.st22{fill:#FFFFFF;stroke:#FFFFFF;stroke-width:11;stroke-miterlimit:10;}
	.st23{fill:#FFFFFF;stroke:#FFFFFF;stroke-width:6;stroke-miterlimit:10;}
	.st24{fill:#8C8C8C;stroke:#8C8C8C;stroke-width:4;stroke-miterlimit:10;}
	.st25{fill:#FFFFFF;stroke:#FFFFFF;stroke-width:1.05;stroke-miterlimit:10;}
	.st26{fill:none;stroke:#4FBDD7;stroke-width:5;stroke-miterlimit:10;}
	.st27{fill:none;stroke:#FFFFFF;stroke-width:4;stroke-miterlimit:10;}
	.st28{fill:#8C8C8C;stroke:#FFFFFF;stroke-width:4;stroke-miterlimit:10;}
	.st29{fill:#FFFFFF;stroke:#FFFFFF;stroke-width:10;stroke-miterlimit:10;}
	.st30{fill:none;stroke:#4FBDD7;stroke-width:2;stroke-miterlimit:10;}
	.st31{fill:none;}
	.st32{font-family:'HelveticaNeue-CondensedBold';}
	.st33{font-size:54px;}
	.st34{fill-rule:evenodd;clip-rule:evenodd;fill:#FFFFFF;}
	.st35{fill:#FFFFFF;stroke:#FFFFFF;stroke-width:7;stroke-miterlimit:10;}
	.st36{fill:#FFFFFF;stroke:#4FBDD7;stroke-width:7;stroke-miterlimit:10;}
	.st37{fill:#FCFCFC;}
	.st38{fill:#FFFFFF;stroke:#FFFFFF;stroke-width:5;stroke-miterlimit:10;}
	.st39{fill:none;stroke:#FFFFFF;stroke-width:3;stroke-miterlimit:10;}
	.st40{fill:none;stroke:#FFFFFF;stroke-width:8;stroke-miterlimit:10;}
	.st41{fill:none;stroke:#FFFFFF;stroke-width:6;stroke-miterlimit:10;}
	.st42{fill:#FFFFFF;stroke:#4FBDD7;stroke-width:3;stroke-miterlimit:10;}
	.st43{fill:none;stroke:#FFFFFF;stroke-width:0.75;stroke-miterlimit:10;}
	.st44{fill:#4FBDD7;stroke:#FFFFFF;stroke-width:9;stroke-miterlimit:10;}
	.st45{fill:none;stroke:#FFFFFF;stroke-width:9;stroke-miterlimit:10;}
	.st46{fill:none;stroke:#4FBDD7;stroke-width:3;stroke-miterlimit:10;}
</style>
<rect x="0" class="st0" width="500" height="500"/>
<g id="_x34_-Partiture">
	<path class="st2" d="M174.8,236.8c-10,0-18.2-8.2-18.2-18.2c0-10,8.2-18.2,18.2-18.2s18.2,8.2,18.2,18.2
		C193,228.7,184.8,236.8,174.8,236.8z M174.8,209.5c-5,0-9.1,4.1-9.1,9.1c0,5,4.1,9.1,9.1,9.1s9.1-4.1,9.1-9.1
		C183.9,213.6,179.8,209.5,174.8,209.5z"/>
	<path class="st2" d="M220.3,218.6c-10,0-18.2-8.2-18.2-18.2s8.2-18.2,18.2-18.2c10,0,18.2,8.2,18.2,18.2S230.3,218.6,220.3,218.6z
		 M220.3,191.3c-5,0-9.1,4.1-9.1,9.1s4.1,9.1,9.1,9.1c5,0,9.1-4.1,9.1-9.1S225.3,191.3,220.3,191.3z"/>
	<path class="st2" d="M188.4,223.2c-2.5,0-4.6-2-4.6-4.6v-68.2c0-2.5,2-4.6,4.6-4.6s4.6,2,4.6,4.6v68.2
		C193,221.1,191,223.2,188.4,223.2z"/>
	<path class="st2" d="M233.9,205c-2.5,0-4.6-2-4.6-4.6v-68.2c0-2.5,2-4.6,4.6-4.6s4.6,2,4.6,4.6v68.2
		C238.5,202.9,236.5,205,233.9,205z"/>
	<path class="st2" d="M188.4,173.1c-0.9,0-1.8-0.3-2.6-0.8c-1.2-0.8-2-2.3-2-3.8v-18.2c0-1.9,1.1-3.5,2.9-4.2l45.5-18.2
		c1.4-0.6,3-0.4,4.2,0.5c1.2,0.8,2,2.3,2,3.8v18.2c0,1.9-1.1,3.5-2.9,4.2l-45.5,18.2C189.6,173,189,173.1,188.4,173.1z M193,153.4
		v8.4l36.4-14.6v-8.4L193,153.4z"/>
	<path class="st2" d="M274.9,264.1c-10,0-18.2-8.2-18.2-18.2s8.2-18.2,18.2-18.2c10,0,18.2,8.2,18.2,18.2S284.9,264.1,274.9,264.1z
		 M274.9,236.8c-5,0-9.1,4.1-9.1,9.1s4.1,9.1,9.1,9.1s9.1-4.1,9.1-9.1S279.9,236.8,274.9,236.8z"/>
	<path class="st2" d="M288.5,250.5c-2.5,0-4.5-2-4.5-4.6v-68.2c0-2.5,2-4.6,4.5-4.6c2.5,0,4.6,2,4.6,4.6v68.2
		C293.1,248.4,291.1,250.5,288.5,250.5z"/>
	<path class="st2" d="M288.5,200.4c-0.9,0-1.8-0.3-2.6-0.8c-1.2-0.8-2-2.3-2-3.8v-18.2c0-1.9,1.1-3.5,2.9-4.2l45.5-18.2
		c1.4-0.6,3-0.4,4.2,0.5c1.2,0.8,2,2.3,2,3.8v18.2c0,1.9-1.1,3.5-2.9,4.2l-45.5,18.2C289.7,200.3,289.1,200.4,288.5,200.4z
		 M293.1,180.7v8.4l36.4-14.6v-8.4L293.1,180.7z"/>
	<path class="st2" d="M370.5,314.2H106.6c-2.5,0-4.6-2-4.6-4.5V91.2c0-2.5,2-4.6,4.6-4.6h263.9c2.5,0,4.5,2,4.5,4.6v218.4
		C375,312.1,373,314.2,370.5,314.2z M111.1,305.1h254.8V95.8H111.1V305.1z"/>
	<path class="st2" d="M170.2,168.6h-63.7c-2.5,0-4.6-2-4.6-4.5c0-2.5,2-4.6,4.6-4.6h63.7c2.5,0,4.6,2,4.6,4.6
		C174.8,166.5,172.8,168.6,170.2,168.6z"/>
	<path class="st2" d="M370.5,168.6h-18.2c-2.5,0-4.5-2-4.5-4.5c0-2.5,2-4.6,4.5-4.6h18.2c2.5,0,4.5,2,4.5,4.6
		C375,166.5,373,168.6,370.5,168.6z"/>
	<path class="st2" d="M370.5,241.4h-63.7c-2.5,0-4.5-2-4.5-4.6c0-2.5,2-4.5,4.5-4.5h63.7c2.5,0,4.5,2,4.5,4.5
		C375,239.3,373,241.4,370.5,241.4z"/>
	<path class="st2" d="M147.5,241.4h-40.9c-2.5,0-4.6-2-4.6-4.6c0-2.5,2-4.5,4.6-4.5h40.9c2.5,0,4.6,2,4.6,4.5
		C152.1,239.3,150,241.4,147.5,241.4z"/>
	<path class="st2" d="M129.3,314.2h-22.8c-2.5,0-4.6-2-4.6-4.5V91.2c0-2.5,2-4.6,4.6-4.6h22.8c2.5,0,4.6,2,4.6,4.6v218.4
		C133.9,312.1,131.8,314.2,129.3,314.2z M111.1,305.1h13.7V95.8h-13.7V305.1z"/>
</g>
<g>
	<rect y="360" class="st31" width="500" height="144"/>
	<text transform="matrix(1 0 0 1 146.6191 398.5557)" class="st2 st32 st33">Partitions</text>
</g>
</svg>
