<?xml version="1.0" encoding="utf-8"?>
<!-- Generator: Adobe Illustrator 22.1.0, SVG Export Plug-In . SVG Version: 6.00 Build 0)  -->
<svg version="1.1" id="Calque_1" xmlns="http://www.w3.org/2000/svg" xmlns:xlink="http://www.w3.org/1999/xlink" x="0px" y="0px"
	 viewBox="0 0 500 500" style="enable-background:new 0 0 500 500;" xml:space="preserve">
<style type="text/css">
	.st0{fill:#EAEAEA;}
	.st1{fill:#8C8C8C;}
	.st2{fill:#FFFFFF;}
	.st3{fill:#EAEAEA;stroke:#8C8C8C;stroke-width:7;stroke-miterlimit:10;}
	.st4{fill:#070707;}
	.st5{fill:none;stroke:#8C8C8C;stroke-width:7;stroke-miterlimit:10;}
	.st6{fill:none;stroke:#8C8C8C;stroke-width:10;stroke-miterlimit:10;}
	.st7{fill:#8C8C8C;stroke:#8C8C8C;stroke-width:3;stroke-miterlimit:10;}
	.st8{fill:none;stroke:#8C8C8C;stroke-width:8;stroke-miterlimit:10;}
	.st9{fill:none;stroke:#8E8E8E;stroke-width:6;stroke-miterlimit:10;}
	.st10{fill:#8E8E8E;}
	.st11{fill:#505050;}
	.st12{fill:none;stroke:#8E8E8E;stroke-width:2;stroke-miterlimit:10;}
	.st13{fill:#8C8C8C;stroke:#8C8C8C;stroke-width:2;stroke-miterlimit:10;}
	.st14{fill:#8C8C8C;stroke:#FFFFFF;stroke-width:2;stroke-miterlimit:10;}
	.st15{fill:none;stroke:#FFFFFF;stroke-width:2;stroke-miterlimit:10;}
	.st16{fill:none;stroke:#8C8C8C;stroke-miterlimit:10;}
	.st17{fill:none;stroke:#8C8C8C;stroke-width:13;stroke-miterlimit:10;}
	.st18{fill:#EAEAEA;stroke:#8C8C8C;stroke-width:8;stroke-miterlimit:10;}
	.st19{fill:none;stroke:#8C8C8C;stroke-width:4;stroke-miterlimit:10;}
	.st20{fill:#8C8C8C;stroke:#8C8C8C;stroke-width:0.75;stroke-miterlimit:10;}
	.st21{fill:none;stroke:#8C8C8C;stroke-width:9;stroke-miterlimit:10;}
	.st22{fill:#8C8C8C;stroke:#8C8C8C;stroke-width:0.5;stroke-miterlimit:10;}
	.st23{fill:#6B6B6B;}
	.st24{fill:none;}
	.st25{stroke:#8C8C8C;stroke-width:8;stroke-miterlimit:10;}
	.st26{fill:#8C8C8C;stroke:#8C8C8C;stroke-miterlimit:10;}
	.st27{fill:none;stroke:#8C8C8C;stroke-width:11;stroke-miterlimit:10;}
	.st28{fill:none;stroke:#8C8C8C;stroke-width:6;stroke-miterlimit:10;}
	.st29{stroke:#8C8C8C;stroke-width:6;stroke-miterlimit:10;}
	.st30{fill:#8C8C8C;stroke:#8C8C8C;stroke-width:4;stroke-miterlimit:10;}
	.st31{fill:#8C8C8C;stroke:#8C8C8C;stroke-width:1.05;stroke-miterlimit:10;}
	.st32{fill:#D6D6D6;}
	.st33{fill:none;stroke:#EAEAEA;stroke-width:5;stroke-miterlimit:10;}
	.st34{fill:#8C8C8C;stroke:#8C8C8C;stroke-width:10;stroke-miterlimit:10;}
	.st35{fill:none;stroke:#CECECE;stroke-width:2;stroke-miterlimit:10;}
	.st36{fill:none;stroke:#FFFFFF;stroke-width:4;stroke-miterlimit:10;}
	.st37{fill-rule:evenodd;clip-rule:evenodd;fill:#8C8C8C;}
	.st38{fill:#8C8C8C;stroke:#8C8C8C;stroke-width:8;stroke-miterlimit:10;}
	.st39{fill:#8C8C8C;stroke:#8C8C8C;stroke-width:7;stroke-miterlimit:10;}
	.st40{fill:#DBDBDB;stroke:#8C8C8C;stroke-width:7;stroke-miterlimit:10;}
	.st41{font-family:'HelveticaNeue-CondensedBold';}
	.st42{font-size:54px;}
	.st43{fill:none;stroke:#8C8C8C;stroke-width:5;stroke-miterlimit:10;}
	.st44{fill:none;stroke:#8C8C8C;stroke-width:3;stroke-miterlimit:10;}
	.st45{clip-path:url(#SVGID_2_);fill:#8C8C8C;}
	.st46{clip-path:url(#SVGID_2_);fill:none;stroke:#8C8C8C;stroke-width:8;stroke-miterlimit:10;}
	.st47{clip-path:url(#SVGID_2_);fill:#FFFFFF;}
	.st48{clip-path:url(#SVGID_2_);fill:#EAEAEA;}
	.st49{clip-path:url(#SVGID_2_);fill:none;stroke:#8C8C8C;stroke-miterlimit:10;}
	.st50{fill:none;stroke:#FFFFFF;stroke-width:0.75;stroke-miterlimit:10;}
	.st51{fill:none;stroke:#8C8C8C;stroke-width:14;stroke-miterlimit:10;}
	.st52{fill:none;stroke:#EAEAEA;stroke-width:2;stroke-miterlimit:10;}
	.st53{fill:none;stroke:#8C8C8C;stroke-width:2;stroke-miterlimit:10;}
</style>
<rect x="-1" y="-1" class="st0" width="500" height="500"/>
<path class="st1" d="M381.8,286c-0.1-0.3-0.2-0.5-0.3-0.8c0-0.1-0.1-0.2-0.1-0.3l-9-15c-1.5-2.5-4.2-4.1-7.2-4.1
	c-2.9,0-5.7,1.5-7.2,4.1l-5.4,9l-5.4-9c-1.5-2.5-4.2-4.1-7.2-4.1c-2.9,0-5.7,1.5-7.2,4.1l-5.4,9l-5.4-9c-1.5-2.5-4.2-4.1-7.2-4.1
	c-2.9,0-5.7,1.5-7.2,4.1l-5.4,9l-5.4-9c-1.5-2.5-4.2-4.1-7.2-4.1c-2.9,0-5.7,1.5-7.2,4.1l-5.4,9l-5.4-9c-1.5-2.5-4.2-4.1-7.2-4.1
	c-2.9,0-5.7,1.5-7.2,4.1l-5.4,9l-5.4-9c-1.5-2.5-4.2-4.1-7.2-4.1c-2.9,0-5.7,1.5-7.2,4.1l-7.8,13H186c-2.2-4.7-5.6-8.7-9.9-11.6
	c0.1-0.3,0.2-0.6,0.2-1v-39.6l13-7.8c2.5-1.5,4.1-4.2,4.1-7.2c0-2.9-1.5-5.7-4.1-7.2l-9-5.4l9-5.4c2.5-1.5,4.1-4.2,4.1-7.2
	c0-2.9-1.5-5.7-4.1-7.2l-9-5.4l9-5.4c2.5-1.5,4.1-4.2,4.1-7.2c0-2.9-1.5-5.7-4.1-7.2l-9-5.4l9-5.4c2.5-1.5,4.1-4.2,4.1-7.2
	c0-2.9-1.5-5.7-4.1-7.2l-9-5.4l9-5.4c2.5-1.5,4.1-4.2,4.1-7.2c0-2.9-1.5-5.7-4.1-7.2l-9-5.4l9-5.4c2.5-1.5,4.1-4.2,4.1-7.2
	s-1.5-5.7-4.1-7.2l-15-9c-0.1,0-0.2-0.1-0.3-0.1c-0.2-0.1-0.5-0.2-0.8-0.3c-0.3-0.1-0.6-0.1-0.8-0.2c-0.1,0-0.2-0.1-0.3-0.1h-16.8
	c-7,0-12.6,5.6-12.6,12.6v166.5c0,1.8,0.6,3.6,1.7,5l7.5,10c-13.4,3.6-22.4,15.9-21.8,29.8c0.6,13.8,10.8,25.3,24.5,27.6
	c13.6,2.3,27-5.2,32.2-18l11.1,8.3c1.5,1.1,3.2,1.7,5,1.7h166.5c7,0,12.6-5.6,12.6-12.6v-16.8c0-0.1,0-0.2-0.1-0.3
	C381.9,286.5,381.9,286.2,381.8,286z M151.1,85.6c0-2.3,1.9-4.2,4.2-4.2h12.6v184.7h-6.3l-10.5-14V85.6z M159.5,316.4
	c-11.6,0-21-9.4-21-21c0-11.6,9.4-21,21-21c11.6,0,21,9.4,21,21C180.5,307,171.1,316.4,159.5,316.4z M373.6,303.9
	c0,2.3-1.9,4.2-4.2,4.2H202.9l-14-10.5v-6.3h184.7V303.9z"/>
<path class="st1" d="M159.5,282.9c-7,0-12.6,5.6-12.6,12.6c0,7,5.6,12.6,12.6,12.6c7,0,12.6-5.6,12.6-12.6
	C172.1,288.5,166.5,282.9,159.5,282.9z M159.5,299.7c-2.3,0-4.2-1.9-4.2-4.2c0-2.3,1.9-4.2,4.2-4.2c2.3,0,4.2,1.9,4.2,4.2
	C163.7,297.8,161.9,299.7,159.5,299.7z"/>
<g>
	<rect y="365" class="st24" width="500" height="144"/>
	<text transform="matrix(1 0 0 1 191.0054 403.5557)" class="st23 st41 st42">Piège</text>
</g>
</svg>
