<?xml version="1.0" encoding="utf-8"?>
<!-- Generator: Adobe Illustrator 22.1.0, SVG Export Plug-In . SVG Version: 6.00 Build 0)  -->
<svg version="1.1" id="Calque_1" xmlns="http://www.w3.org/2000/svg" xmlns:xlink="http://www.w3.org/1999/xlink" x="0px" y="0px"
	 viewBox="0 0 500 500" style="enable-background:new 0 0 500 500;" xml:space="preserve">
<style type="text/css">
	.st0{fill:#4FBDD7;}
	.st1{fill:#EAEAEA;}
	.st2{fill:#FFFFFF;}
	.st3{fill:#4FBDD7;stroke:#FFFFFF;stroke-width:5;stroke-miterlimit:10;}
	.st4{fill:#8C8C8C;}
	.st5{fill:#070707;}
	.st6{fill:none;stroke:#FFFFFF;stroke-width:7;stroke-miterlimit:10;}
	.st7{fill:none;stroke:#FFFFFF;stroke-width:10;stroke-miterlimit:10;}
	.st8{fill:#FFFFFF;stroke:#FFFFFF;stroke-width:3;stroke-miterlimit:10;}
	.st9{fill:none;stroke:#FDFFFF;stroke-width:6;stroke-miterlimit:10;}
	.st10{fill:#FAFEFF;}
	.st11{fill:none;stroke:#FFFFFF;stroke-width:2;stroke-miterlimit:10;}
	.st12{fill:#FFFFFF;stroke:#FFFFFF;stroke-width:2;stroke-miterlimit:10;}
	.st13{fill:#4FBDD7;stroke:#FFFFFF;stroke-width:4;stroke-miterlimit:10;}
	.st14{fill:#FFFFFF;stroke:#FFFFFF;stroke-width:4;stroke-miterlimit:10;}
	.st15{fill:none;stroke:#FFFFFF;stroke-miterlimit:10;}
	.st16{fill:#FFFFFF;stroke:#FFFFFF;stroke-width:13;stroke-miterlimit:10;}
	.st17{fill:#4FBDD7;stroke:#FFFFFF;stroke-width:8;stroke-miterlimit:10;}
	.st18{fill:#FFFFFF;stroke:#FFFFFF;stroke-width:0.75;stroke-miterlimit:10;}
	.st19{fill:#FFFFFF;stroke:#FFFFFF;stroke-width:0.5;stroke-miterlimit:10;}
	.st20{fill:none;}
	.st21{font-family:'HelveticaNeue-CondensedBold';}
	.st22{font-size:54px;}
	.st23{fill:#FFFFFF;stroke:#FFFFFF;stroke-width:8;stroke-miterlimit:10;}
	.st24{fill:#FFFFFF;stroke:#FFFFFF;stroke-miterlimit:10;}
	.st25{fill:#FFFFFF;stroke:#FFFFFF;stroke-width:11;stroke-miterlimit:10;}
	.st26{fill:#FFFFFF;stroke:#FFFFFF;stroke-width:6;stroke-miterlimit:10;}
	.st27{fill:#8C8C8C;stroke:#8C8C8C;stroke-width:4;stroke-miterlimit:10;}
	.st28{fill:#FFFFFF;stroke:#FFFFFF;stroke-width:1.05;stroke-miterlimit:10;}
	.st29{fill:none;stroke:#4FBDD7;stroke-width:5;stroke-miterlimit:10;}
	.st30{fill:none;stroke:#FFFFFF;stroke-width:4;stroke-miterlimit:10;}
	.st31{fill:#8C8C8C;stroke:#FFFFFF;stroke-width:4;stroke-miterlimit:10;}
	.st32{fill:#FFFFFF;stroke:#FFFFFF;stroke-width:10;stroke-miterlimit:10;}
	.st33{fill:none;stroke:#4FBDD7;stroke-width:2;stroke-miterlimit:10;}
	.st34{fill-rule:evenodd;clip-rule:evenodd;fill:#FFFFFF;}
	.st35{fill:#FFFFFF;stroke:#FFFFFF;stroke-width:7;stroke-miterlimit:10;}
	.st36{fill:#FFFFFF;stroke:#4FBDD7;stroke-width:7;stroke-miterlimit:10;}
	.st37{fill:#FCFCFC;}
	.st38{fill:#FFFFFF;stroke:#FFFFFF;stroke-width:5;stroke-miterlimit:10;}
	.st39{fill:none;stroke:#FFFFFF;stroke-width:3;stroke-miterlimit:10;}
	.st40{fill:none;stroke:#FFFFFF;stroke-width:8;stroke-miterlimit:10;}
	.st41{fill:none;stroke:#FFFFFF;stroke-width:6;stroke-miterlimit:10;}
	.st42{fill:#FFFFFF;stroke:#4FBDD7;stroke-width:3;stroke-miterlimit:10;}
	.st43{fill:none;stroke:#FFFFFF;stroke-width:0.75;stroke-miterlimit:10;}
	.st44{fill:#4FBDD7;stroke:#FFFFFF;stroke-width:9;stroke-miterlimit:10;}
	.st45{fill:none;stroke:#FFFFFF;stroke-width:9;stroke-miterlimit:10;}
	.st46{fill:none;stroke:#4FBDD7;stroke-width:3;stroke-miterlimit:10;}
</style>
<rect x="-7" y="-6" class="st0" width="506" height="506"/>
<g>
	<g>
		<path class="st2" d="M321,241.1h-15.9c-0.5-16.1-9.4-25.2-17.2-30.2c-3.6-2.3-7.4-4.1-18.8-7c-15.4-3.9-27.9-5.7-28.1-4.9
			c-0.2,0.9,15.1,2.1,23.8,13.5c0.5,0.6,5.7,7.8,3.9,11.1c-0.6,1-1.7,1.9-3.1,1.5c-1.6-0.4-3.2-1.2-5-2c-5.7-2.7-13.4-6.2-28.9-4.5
			v-33.7c0,0,0-0.1,0-0.1c-0.5-19.2-13-34.5-17.5-39.4v-22.1c0-8.6-7-15.6-15.6-15.6h-11.8c-8.6,0-15.6,7-15.6,15.6v22.1
			c-4.5,4.9-17,20.1-17.5,39.4c0,0,0,0.1,0,0.1v100.1c0,8.2,6.2,14.9,13.7,14.9h34.3c6.8,7.9,12.7,11.3,13.3,11.6
			c0.8,0.4,1.6,0.6,2.5,0.6h58c0.9-0.2,1.7-0.4,2.5-0.6c16.7-5.2,39.6-41.5,43.1-47.1C327.5,253.6,321.4,241.7,321,241.1z
			 M256.2,232.2c2.1,1,4.3,2,6.8,2.6c5.6,1.5,11.4-1,14.4-6.2c1.7-2.9,2.5-6.8,1.6-11.1c7.2,3.5,15.2,10.4,15.9,23.5h-86.4
			c3.7-4.7,10.4-10.4,21.7-12.1C244.6,226.8,250.8,229.7,256.2,232.2z M181.2,123.2c0-3,2.5-5.5,5.5-5.5h11.8c3,0,5.5,2.4,5.5,5.5
			v19h-22.7V123.2z M167.3,289.6c-1.9,0-3.6-2.2-3.6-4.7v-100c0.5-15.4,10.9-28.3,14.6-32.5h28.5c3.8,4.2,14.2,17.1,14.6,32.5v35.7
			c-15,4.6-22.2,15.1-25,20.5h-11.3c-1.4,0-2.8,0.6-3.8,1.7c-1,1.1-1.4,2.5-1.3,4c2.1,18.9,7.8,32.9,14,42.9H167.3z M273.9,301.8
			h-55c-4.5-3-22.4-17.2-27.8-50.6h124.5C314.3,258.9,277.3,299.5,273.9,301.8z"/>
		<path class="st2" d="M359,288.7l-25.9-103.1c8.1-9.9,10.1-27.7,4.6-43.8l-3.1-9c-0.4-1.3-1.4-2.3-2.6-2.9
			c-1.2-0.6-2.6-0.7-3.9-0.3l-0.7,0.2l-8-23.4c-0.9-2.7-3.8-4.1-6.5-3.2c-2.7,0.9-4.1,3.8-3.2,6.5l8,23.4l-4.1,1.4l-8-23.3
			c-0.9-2.7-3.8-4.1-6.5-3.2c-2.7,0.9-4.1,3.8-3.2,6.5l8,23.3l-4.1,1.4l-8-23.3c-0.9-2.7-3.8-4.1-6.5-3.2c-2.7,0.9-4.1,3.8-3.2,6.5
			l8,23.3l-4.1,1.4l-8-23.3c-0.9-2.7-3.8-4.1-6.5-3.2c-2.7,0.9-4.1,3.8-3.2,6.5l8,23.2c-2.4,1-3.6,3.8-2.8,6.3l3,9
			c5.7,16.9,19.3,28.4,30.3,31.7l42.1,97.8c0.8,1.9,2.7,3.1,4.7,3.1C354.4,295,360,294.6,359,288.7z M286.6,159.1l-1.4-4.2
			l41.5-14.1l1.4,4.2c5.1,14.9,1.9,29.7-4.1,35.4c-1.5,1.4-10.1,4.6-12.1,4.3C303.4,183.2,291.3,173,286.6,159.1z"/>
	</g>
</g>
<g>
	<rect x="-7" y="369" class="st20" width="520" height="144"/>
	<text transform="matrix(1 0 0 1 39.1357 407.5557)" class="st2 st21 st22">Produits techniques </text>
</g>
</svg>
