<?xml version="1.0" encoding="utf-8"?>
<!-- Generator: Adobe Illustrator 22.1.0, SVG Export Plug-In . SVG Version: 6.00 Build 0)  -->
<svg version="1.1" id="Calque_1" xmlns="http://www.w3.org/2000/svg" xmlns:xlink="http://www.w3.org/1999/xlink" x="0px" y="0px"
	 viewBox="0 0 500 500" style="enable-background:new 0 0 500 500;" xml:space="preserve">
<style type="text/css">
	.st0{fill:#4FBDD7;}
	.st1{fill:#EAEAEA;}
	.st2{fill:#FFFFFF;}
	.st3{fill:#4FBDD7;stroke:#FFFFFF;stroke-width:5;stroke-miterlimit:10;}
	.st4{fill:#8C8C8C;}
	.st5{fill:#070707;}
	.st6{fill:none;stroke:#FFFFFF;stroke-width:7;stroke-miterlimit:10;}
	.st7{fill:none;stroke:#FFFFFF;stroke-width:10;stroke-miterlimit:10;}
	.st8{fill:#FFFFFF;stroke:#FFFFFF;stroke-width:3;stroke-miterlimit:10;}
	.st9{fill:none;stroke:#FDFFFF;stroke-width:6;stroke-miterlimit:10;}
	.st10{fill:#FAFEFF;}
	.st11{fill:none;stroke:#FFFFFF;stroke-width:2;stroke-miterlimit:10;}
	.st12{fill:#FFFFFF;stroke:#FFFFFF;stroke-width:2;stroke-miterlimit:10;}
	.st13{fill:#4FBDD7;stroke:#FFFFFF;stroke-width:4;stroke-miterlimit:10;}
	.st14{fill:#FFFFFF;stroke:#FFFFFF;stroke-width:4;stroke-miterlimit:10;}
	.st15{fill:none;stroke:#FFFFFF;stroke-miterlimit:10;}
	.st16{fill:#FFFFFF;stroke:#FFFFFF;stroke-width:13;stroke-miterlimit:10;}
	.st17{fill:#4FBDD7;stroke:#FFFFFF;stroke-width:8;stroke-miterlimit:10;}
	.st18{fill:#FFFFFF;stroke:#FFFFFF;stroke-width:0.75;stroke-miterlimit:10;}
	.st19{fill:#FFFFFF;stroke:#FFFFFF;stroke-width:0.5;stroke-miterlimit:10;}
	.st20{fill:none;}
	.st21{font-family:'HelveticaNeue-CondensedBold';}
	.st22{font-size:54px;}
	.st23{fill:#FFFFFF;stroke:#FFFFFF;stroke-width:8;stroke-miterlimit:10;}
	.st24{fill:#FFFFFF;stroke:#FFFFFF;stroke-miterlimit:10;}
	.st25{fill:#FFFFFF;stroke:#FFFFFF;stroke-width:11;stroke-miterlimit:10;}
	.st26{fill:#FFFFFF;stroke:#FFFFFF;stroke-width:6;stroke-miterlimit:10;}
	.st27{fill:#8C8C8C;stroke:#8C8C8C;stroke-width:4;stroke-miterlimit:10;}
	.st28{fill:#FFFFFF;stroke:#FFFFFF;stroke-width:1.05;stroke-miterlimit:10;}
	.st29{fill:none;stroke:#4FBDD7;stroke-width:5;stroke-miterlimit:10;}
	.st30{fill:none;stroke:#FFFFFF;stroke-width:4;stroke-miterlimit:10;}
	.st31{fill:#8C8C8C;stroke:#FFFFFF;stroke-width:4;stroke-miterlimit:10;}
	.st32{fill:#FFFFFF;stroke:#FFFFFF;stroke-width:10;stroke-miterlimit:10;}
	.st33{fill:none;stroke:#4FBDD7;stroke-width:2;stroke-miterlimit:10;}
	.st34{fill-rule:evenodd;clip-rule:evenodd;fill:#FFFFFF;}
	.st35{fill:#FFFFFF;stroke:#FFFFFF;stroke-width:7;stroke-miterlimit:10;}
	.st36{fill:#FFFFFF;stroke:#4FBDD7;stroke-width:7;stroke-miterlimit:10;}
	.st37{fill:#FCFCFC;}
	.st38{fill:#FFFFFF;stroke:#FFFFFF;stroke-width:5;stroke-miterlimit:10;}
	.st39{fill:none;stroke:#FFFFFF;stroke-width:3;stroke-miterlimit:10;}
	.st40{fill:none;stroke:#FFFFFF;stroke-width:8;stroke-miterlimit:10;}
	.st41{fill:none;stroke:#FFFFFF;stroke-width:6;stroke-miterlimit:10;}
	.st42{fill:#FFFFFF;stroke:#4FBDD7;stroke-width:3;stroke-miterlimit:10;}
	.st43{fill:none;stroke:#FFFFFF;stroke-width:0.75;stroke-miterlimit:10;}
	.st44{fill:#4FBDD7;stroke:#FFFFFF;stroke-width:9;stroke-miterlimit:10;}
	.st45{fill:none;stroke:#FFFFFF;stroke-width:9;stroke-miterlimit:10;}
	.st46{fill:none;stroke:#4FBDD7;stroke-width:3;stroke-miterlimit:10;}
</style>
<rect x="1" class="st0" width="500" height="500"/>
<path class="st2" d="M256,93.4c-2.3,2.6-2.1,6.6,0.5,8.9l3.9,3.5l-8.9,10c-6.8-2.6-14.7-0.9-19.8,4.8s-5.8,13.8-2.5,20.2l-11.4,12.7
	l-13.4-11.9c2.6-6.8,0.9-14.7-4.8-19.8c-5.7-5.1-13.8-5.9-20.2-2.6l-8.5-7.5l3.5-3.9c2.3-2.6,2.1-6.6-0.5-8.9
	c-2.6-2.3-6.6-2.1-8.9,0.5l-50.4,56.5c-2.3,2.6-2.1,6.6,0.5,8.9c2.6,2.3,6.6,2.1,8.9-0.5l3.5-3.9l8.5,7.5
	c-2.6,6.8-0.9,14.7,4.9,19.8s13.8,5.9,20.2,2.6l13.4,11.9L163,215.1c-6.8-2.6-14.7-0.9-19.8,4.8c-5.1,5.7-5.8,13.8-2.5,20.2
	l-7.2,8.1l-2.8-2.5c-2.6-2.3-6.6-2.1-8.9,0.5c-2.3,2.6-2.1,6.6,0.5,8.9l56.7,50.5c2.6,2.3,6.6,2.1,8.9-0.5c2.3-2.6,2.1-6.6-0.5-8.9
	l-5-4.4l7.2-8.1c6.8,2.6,14.7,0.9,19.8-4.8s5.8-13.8,2.5-20.2l66.2-74.2c6.8,2.6,14.7,0.9,19.8-4.8c5.1-5.7,5.8-13.8,2.5-20.2
	l8.9-10l3.9,3.5c2.6,2.3,6.6,2.1,8.9-0.5c2.3-2.6,2.1-6.6-0.5-8.9L264.9,93C262.3,90.6,258.3,90.8,256,93.4z M156.6,178
	c-1.9,2.2-5.3,2.4-7.5,0.4c-2.2-1.9-2.4-5.3-0.4-7.5l35-39.2c1.9-2.2,5.3-2.4,7.5-0.4c2.2,1.9,2.4,5.3,0.4,7.5L156.6,178z
	 M162.5,121.2l7.6,6.8l-26.6,29.9l-7.6-6.8L162.5,121.2z M186.6,207.6c3.1-3.5,2.8-8.8-0.7-11.9l-15.6-14l26.6-29.9l15.6,14
	c3.5,3.1,8.8,2.8,11.9-0.7l13.4-15l29.9,26.7l-64.6,72.4l-29.9-26.7L186.6,207.6z M142.9,256.6l6.5-7.2l29.9,26.7l-6.5,7.2
	L142.9,256.6z M199.4,262.9c2.2,1.9,2.4,5.3,0.4,7.5c-1.9,2.2-5.3,2.4-7.5,0.4l-39.3-35.1c-2.2-1.9-2.4-5.3-0.4-7.5
	c1.9-2.2,5.3-2.4,7.5-0.4L199.4,262.9z M287.9,163.7c2.2,1.9,2.4,5.3,0.4,7.5c-1.9,2.2-5.3,2.4-7.5,0.4l-39.3-35.1
	c-2.2-1.9-2.4-5.3-0.4-7.5c1.9-2.2,5.3-2.4,7.5-0.4L287.9,163.7z M291.6,150.1l-29.9-26.7l8.1-9.1l29.9,26.7L291.6,150.1z"/>
<path class="st2" d="M312.1,186.2c-38.5,0-69.9,31.4-69.9,69.9s31.4,69.9,69.9,69.9s69.9-31.4,69.9-69.9S350.6,186.2,312.1,186.2z
	 M312.1,310.5c-30,0-54.4-24.4-54.4-54.4s24.4-54.4,54.4-54.4s54.4,24.4,54.4,54.4S342,310.5,312.1,310.5z"/>
<path class="st2" d="M312.1,220.4c-19.7,0-35.7,16-35.7,35.7s16,35.7,35.7,35.7c19.7,0,35.7-16,35.7-35.7S331.7,220.4,312.1,220.4z
	 M312.1,277.5c-11.8,0-21.4-9.6-21.4-21.4s9.6-21.4,21.4-21.4s21.4,9.6,21.4,21.4S323.9,277.5,312.1,277.5z"/>
<g>
	<rect x="2" y="369" class="st20" width="500" height="144"/>
	<text transform="matrix(1 0 0 1 58.7104 407.5557)" class="st2 st21 st22">Raccords et joints</text>
</g>
</svg>
