<?xml version="1.0" encoding="utf-8"?>
<!-- Generator: Adobe Illustrator 22.1.0, SVG Export Plug-In . SVG Version: 6.00 Build 0)  -->
<svg version="1.1" id="Calque_1" xmlns="http://www.w3.org/2000/svg" xmlns:xlink="http://www.w3.org/1999/xlink" x="0px" y="0px"
	 viewBox="0 0 500 500" style="enable-background:new 0 0 500 500;" xml:space="preserve">
<style type="text/css">
	.st0{fill:#4FBDD7;}
	.st1{fill:#EAEAEA;}
	.st2{fill:#FFFFFF;}
	.st3{fill:#4FBDD7;stroke:#FFFFFF;stroke-width:5;stroke-miterlimit:10;}
	.st4{fill:#8C8C8C;}
	.st5{fill:#070707;}
	.st6{fill:none;stroke:#FFFFFF;stroke-width:7;stroke-miterlimit:10;}
	.st7{fill:none;stroke:#FFFFFF;stroke-width:10;stroke-miterlimit:10;}
	.st8{fill:#FFFFFF;stroke:#FFFFFF;stroke-width:3;stroke-miterlimit:10;}
	.st9{fill:none;stroke:#FDFFFF;stroke-width:6;stroke-miterlimit:10;}
	.st10{fill:#FAFEFF;}
	.st11{fill:none;stroke:#FFFFFF;stroke-width:2;stroke-miterlimit:10;}
	.st12{fill:#FFFFFF;stroke:#FFFFFF;stroke-width:2;stroke-miterlimit:10;}
	.st13{fill:#4FBDD7;stroke:#FFFFFF;stroke-width:4;stroke-miterlimit:10;}
	.st14{fill:#FFFFFF;stroke:#FFFFFF;stroke-width:4;stroke-miterlimit:10;}
	.st15{fill:none;stroke:#FFFFFF;stroke-miterlimit:10;}
	.st16{fill:#FFFFFF;stroke:#FFFFFF;stroke-width:13;stroke-miterlimit:10;}
	.st17{fill:#4FBDD7;stroke:#FFFFFF;stroke-width:8;stroke-miterlimit:10;}
	.st18{fill:#FFFFFF;stroke:#FFFFFF;stroke-width:0.75;stroke-miterlimit:10;}
	.st19{fill:#FFFFFF;stroke:#FFFFFF;stroke-width:0.5;stroke-miterlimit:10;}
	.st20{fill:#FFFFFF;stroke:#FFFFFF;stroke-width:8;stroke-miterlimit:10;}
	.st21{fill:#FFFFFF;stroke:#FFFFFF;stroke-miterlimit:10;}
	.st22{fill:#FFFFFF;stroke:#FFFFFF;stroke-width:11;stroke-miterlimit:10;}
	.st23{fill:#FFFFFF;stroke:#FFFFFF;stroke-width:6;stroke-miterlimit:10;}
	.st24{fill:#8C8C8C;stroke:#8C8C8C;stroke-width:4;stroke-miterlimit:10;}
	.st25{fill:#FFFFFF;stroke:#FFFFFF;stroke-width:1.05;stroke-miterlimit:10;}
	.st26{fill:none;stroke:#4FBDD7;stroke-width:5;stroke-miterlimit:10;}
	.st27{fill:none;stroke:#FFFFFF;stroke-width:4;stroke-miterlimit:10;}
	.st28{fill:#8C8C8C;stroke:#FFFFFF;stroke-width:4;stroke-miterlimit:10;}
	.st29{fill:#FFFFFF;stroke:#FFFFFF;stroke-width:10;stroke-miterlimit:10;}
	.st30{fill:none;stroke:#4FBDD7;stroke-width:2;stroke-miterlimit:10;}
	.st31{fill-rule:evenodd;clip-rule:evenodd;fill:#FFFFFF;}
	.st32{fill:#FFFFFF;stroke:#FFFFFF;stroke-width:7;stroke-miterlimit:10;}
	.st33{fill:#FFFFFF;stroke:#4FBDD7;stroke-width:7;stroke-miterlimit:10;}
	.st34{fill:none;}
	.st35{font-family:'HelveticaNeue-CondensedBold';}
	.st36{font-size:54px;}
	.st37{fill:#FCFCFC;}
	.st38{fill:#FFFFFF;stroke:#FFFFFF;stroke-width:5;stroke-miterlimit:10;}
	.st39{fill:none;stroke:#FFFFFF;stroke-width:3;stroke-miterlimit:10;}
	.st40{fill:none;stroke:#FFFFFF;stroke-width:8;stroke-miterlimit:10;}
	.st41{fill:none;stroke:#FFFFFF;stroke-width:6;stroke-miterlimit:10;}
	.st42{fill:#FFFFFF;stroke:#4FBDD7;stroke-width:3;stroke-miterlimit:10;}
	.st43{fill:none;stroke:#FFFFFF;stroke-width:0.75;stroke-miterlimit:10;}
	.st44{fill:#4FBDD7;stroke:#FFFFFF;stroke-width:9;stroke-miterlimit:10;}
	.st45{fill:none;stroke:#FFFFFF;stroke-width:9;stroke-miterlimit:10;}
	.st46{fill:none;stroke:#4FBDD7;stroke-width:3;stroke-miterlimit:10;}
</style>
<rect x="1" class="st0" width="500" height="500"/>
<g>
	<rect x="3" y="375" class="st34" width="500" height="118"/>
	<text transform="matrix(1 0 0 1 196.085 413.5557)" class="st2 st35 st36">Tissu</text>
</g>
<g>
	<path class="st2" d="M251.4,307.8c-4.1-0.7-8-1.5-11.8-2.1c-0.7-0.1-1.5,0.4-2.1,0.9c-2.7,2.1-5.2,4.4-7.9,6.6
		c-2.2,1.8-4.2,1.8-5.7,0c-1.3-1.6-0.9-3.7,1-5.4c1.3-1.1,2.6-2.2,3.9-3.3c0.1-0.1,0.1-0.3,0.2-0.6c-4.4-0.8-8.7-1.6-13.1-2.2
		c-0.7-0.1-1.6,0.5-2.3,1c-4.2,3.5-8.4,7.1-12.6,10.7c-2.3,1.9-5.1,1.4-6-1.1c-0.7-1.8,0-3.2,1.4-4.3c3-2.6,6.1-5.2,9.5-8.1
		c-4.9-0.9-9.3-1.7-13.7-2.4c-0.5-0.1-1.3,0.6-1.8,1.1c-5.3,4.4-10.5,8.9-15.8,13.4c-0.6,0.5-1.1,1-1.7,1.4
		c-2.1,1.7-4.1,1.7-5.5,0.1c-1.4-1.6-1.1-3.7,0.9-5.4c3.9-3.3,7.8-6.6,11.7-9.9c0.8-0.7,1.5-1.3,2.7-2.3c-5.7-1-10.8-2-16-2.7
		c-1.8-0.3-3.2-0.8-3.8-2.5c-0.6-1.8,0.3-3.1,1.7-4.2c3.8-3.1,7.5-6.3,11.6-9.8c-2.8-0.5-5.2-1-7.6-1.4c-0.8-0.1-1.6-0.3-2.4-0.4
		c-2.4-0.5-3.6-2.2-3.1-4.3c0.4-2,2.2-3.1,4.4-2.7c4.4,0.7,8.8,1.5,13.1,2.3c1.9,0.4,3.3,0.1,4.8-1.3c2.6-2.5,5.5-4.7,8.6-7.4
		c-4.4-0.8-8.5-1.5-12.5-2.2c-0.5-0.1-1.2,0.4-1.7,0.8c-1.9,1.5-3.7,3-5.5,4.5c-2.1,1.6-4.1,1.5-5.5-0.2c-1.3-1.7-0.9-3.6,0.9-5.3
		c0.5-0.4,0.9-0.9,1.6-1.5c-2.1-0.4-3.8-0.6-5.5-1.1c-2.1-0.5-3.2-2.1-2.8-4.1c0.3-1.9,2-3.1,4.1-2.8c3.4,0.5,6.9,1.2,10.3,1.7
		c0.8,0.1,1.8,0,2.4-0.5c3.3-2.5,6.5-5.2,10.2-8.2c-2.2-0.4-4.1-0.5-5.7-1c-4.3-1.5-7.9-0.6-11,2.6c-1,1-2.3,1.9-3.6,2.7
		c-1.8,1.2-3.8,0.8-4.9-0.8c-1.2-1.6-0.9-3.5,0.7-4.9c0.8-0.7,1.7-1.3,2.9-2.2c-1.1-0.2-1.8-0.4-2.5-0.5c-2.1-0.6-3.2-2.1-2.9-4
		c0.3-2,1.8-3.2,4-2.9c2.5,0.3,5,0.9,7.5,1.2c1.1,0.1,2.5-0.2,3.4-0.8c2.6-1.7,5.1-3.7,8.1-5.9c-4.9-0.8-9.3-1.6-13.7-2.4
		c-2.6-0.5-5.3-0.9-7.9-1.3c-2.4-0.4-3.8-2-3.5-4.1c0.3-2.2,2.2-3.4,4.6-3c15.9,2.7,31.9,5.4,47.8,8.1c22.5,3.8,45,7.6,67.5,11.4
		c8.4,1.4,16.8,2.8,25.2,4.2c0.8,0.1,1.6,0.2,2.7,0.4c-4.8-9-5.5-18.5-5.4-28.2c-5.3-0.9-10.5-1.7-15.7-2.6
		c-24.4-4-48.7-7.9-73.1-11.9c-16.7-2.7-33.4-5.4-50.1-8.1c-2.7-0.4-3.7-1.6-3.7-4.3c0-11.3,0-22.6,0-33.8c0-3.7,1.6-5,5.3-4.4
		c20.4,3.2,40.7,6.4,61.1,9.6c21.4,3.4,42.8,6.7,64.2,10.1c7.2,1.1,14.3,2.2,21.2,3.3c3.6-8.2,9.9-21.4,17.8-32.5
		c2.3-3.2,4.2-5.5,4.8-6.1c5.9-6.9,11.9-11.7,16.2-14.8c-4.1-0.5-7.6-0.9-11.2-1.3c-16.4-1.9-32.9-3.7-49.3-5.6
		c-14.9-1.7-29.8-3.4-44.7-5.1c-15.1-1.7-30.2-3.5-45.3-5.2c-12.1-1.4-24.2-2.8-36.3-4.1c-2.6-0.3-4.1-1.8-3.9-3.9
		c0.2-2.2,2.1-3.5,4.7-3.2c21.4,2.4,42.7,4.9,64.1,7.4c18.9,2.2,37.7,4.3,56.6,6.4c18.9,2.2,37.7,4.3,56.6,6.5
		c8.6,1,17.2,1.9,25.9,2.9c7,0.8,11.9,4.5,15.2,10.6c3.5,6.6,4.7,13.7,4.9,21c0.4,14.2-2.5,27.9-7.1,41.2c-6.4,18.6-15.2,36-29,50.3
		c-6.5,6.7-13.9,12.4-21.1,18.4c-24.9,20.6-49.9,41.2-74.9,61.7c-1.4,1.1-2.7,2.1-4.6,1.2C249.9,313.1,249.5,310.9,251.4,307.8z
		 M364.1,168.1c0-6.7-0.7-10.1-2.2-12.7c-2.4-4.1-6.9-6.1-11.2-4.1c-3.1,1.5-6.2,3.6-8.5,6.2c-8.2,9.2-12.3,20.3-13.6,32.5
		c-0.4,4.4-0.2,8.8,2.1,12.8c2.3,4.1,6.6,6,11,4.3c2.4-0.9,4.9-2.3,6.7-4.1C358.6,192.8,363,180.1,364.1,168.1z M174.7,287
		c5.1,0.9,9.8,1.8,14.4,2.6c0.3,0.1,0.8,0,1-0.2c3.4-2.8,6.7-5.7,10.4-8.8c-5.1-0.9-9.5-1.7-14-2.4c-0.5-0.1-1.1,0-1.5,0.2
		C181.7,281,178.4,283.9,174.7,287z M192.6,271.9c3.7,0.6,7,0.8,9.9,1.8c3.9,1.3,6.7,0.1,9.4-2.7c1.9-1.9,4-3.5,6.4-5.5
		c-5.1-0.9-9.5-1.7-14-2.5c-0.5-0.1-1.2,0.1-1.6,0.4C199.5,266,196.3,268.8,192.6,271.9z M210.5,256.8c5.1,0.9,9.7,1.7,14.3,2.5
		c0.4,0.1,1.1-0.1,1.4-0.4c3.2-2.7,6.4-5.4,9.7-8.2c-0.3-0.2-0.5-0.5-0.7-0.5c-4.4-0.8-8.8-1.6-13.1-2.3c-0.5-0.1-1.2,0.2-1.6,0.5
		C217.3,251,214.1,253.7,210.5,256.8z M257.8,265c4.9,0.8,9.2,1.6,13.5,2.3c0.6,0.1,1.5,0.1,1.9-0.2c3.4-2.7,6.7-5.5,10.3-8.6
		c-5-0.9-9.5-1.6-14.1-2.4c-0.5-0.1-1.1,0-1.4,0.3C264.7,259.1,261.5,261.9,257.8,265z M222.2,295.4c4.9,0.9,9.3,1.6,13.8,2.4
		c0.4,0.1,0.9,0,1.2-0.3c3.4-2.8,6.7-5.6,10.5-8.8c-5-0.9-9.5-1.7-14-2.4c-0.4-0.1-1,0.2-1.4,0.5
		C229.1,289.5,225.9,292.2,222.2,295.4z M265.5,273.6c-2.6-0.5-4.7-0.6-6.6-1.2c-5.7-1.9-10.4-0.9-14.3,3.8
		c-1.2,1.4-2.8,2.5-4.4,3.9c4.8,0.8,9,1.6,13.2,2.3c0.7,0.1,1.6,0,2.1-0.3C258.7,279.4,261.9,276.7,265.5,273.6z M223.9,284.6
		c-4.2-0.8-7.9-1.3-11.6-2.1c-1.9-0.4-3.2,0-4.6,1.3c-2.7,2.5-5.7,4.9-8.8,7.5c4.7,0.8,8.8,1.6,12.9,2.3c0.5,0.1,1.3,0.1,1.7-0.2
		C216.9,290.5,220.2,287.7,223.9,284.6z M281.9,269.1c2.6,0.5,4.9,0.6,7,1.3c5.1,1.7,9.3,0.6,12.8-3.4c1.4-1.6,3.3-2.8,5.3-4.4
		c-4.7-0.8-8.9-1.6-13-2.3c-0.6-0.1-1.4,0-1.9,0.3C288.8,263.3,285.6,266.1,281.9,269.1z M216.9,276.1c3.5,0.6,6.5,0.8,9.3,1.6
		c3.5,1.1,6.2,0.3,8.7-2.4c1.9-2.1,4.3-3.7,6.8-5.9c-4.8-0.8-9-1.6-13.3-2.3c-0.4-0.1-0.9,0.1-1.2,0.3
		C223.8,270.2,220.6,273,216.9,276.1z M259.3,254.3c-3.6-0.6-6.8-1-9.8-1.8c-3-0.8-5.2-0.1-7.3,2c-2.2,2.2-4.7,4.1-7.4,6.4
		c4.5,0.8,8.6,1.6,12.7,2.2c0.5,0.1,1.3,0,1.7-0.3C252.4,260.2,255.7,257.4,259.3,254.3z M264,284.2c4.6,0.8,8.8,1.6,13,2.2
		c0.4,0.1,0.9-0.1,1.2-0.3c3.4-2.7,6.7-5.5,10.5-8.6c-4.8-0.8-9-1.6-13.3-2.2c-0.4-0.1-0.9,0.1-1.2,0.3
		C270.9,278.4,267.7,281.1,264,284.2z M245.9,299.5c3.5,0.6,6.4,0.9,9.2,1.7c3,0.9,5.2,0.1,7.4-2c2.4-2.3,5-4.2,7.9-6.6
		c-4.6-0.8-8.6-1.5-12.6-2.1c-0.6-0.1-1.3,0.2-1.8,0.5C252.8,293.7,249.6,296.4,245.9,299.5z M275.5,249.9c5,0.9,9.6,1.6,14.1,2.4
		c0.5,0.1,1.1,0.1,1.4-0.2c2.8-2.3,5.6-4.7,8.7-7.3c-5-0.8-9.4-1.6-13.9-2.3c-0.7-0.1-1.7,0-2.2,0.4
		C281.1,245,278.5,247.3,275.5,249.9z M299.8,254.1c4.9,0.9,9.1,1.8,13.4,2.5c0.4,0.1,1.1-0.1,1.4-0.3c3-2.4,5.9-4.8,9.1-7.4
		c-4.8-0.8-9.3-1.6-13.8-2.3c-0.5-0.1-1.2,0.1-1.6,0.4C305.7,249.1,303,251.4,299.8,254.1z M212,246.1c-4-0.7-7.5-1.4-11-1.9
		c-0.7-0.1-1.6-0.1-2.1,0.3c-3.4,2.7-6.8,5.4-10.5,8.5c4.4,0.8,8.3,1.4,12.2,2.1c0.4,0.1,0.9-0.1,1.2-0.3
		C205.1,252,208.4,249.2,212,246.1z M228.4,241.7c4.9,0.9,9.2,1.6,13.5,2.4c0.6,0.1,1.4,0.2,1.7-0.1c2.8-2.3,5.6-4.6,8.7-7.2
		c-4.9-0.8-9.2-1.6-13.5-2.3c-0.7-0.1-1.6-0.1-2.1,0.3C234,236.9,231.4,239.1,228.4,241.7z M252.6,245.9c4.6,0.8,8.8,1.6,13,2.3
		c0.4,0.1,1,0,1.2-0.2c2.8-2.3,5.5-4.6,8.5-7.2c-4.6-0.8-8.8-1.5-12.9-2.2c-0.4-0.1-1.1,0.1-1.4,0.4
		C258.3,241,255.6,243.3,252.6,245.9z M206.9,238c4.3,0.8,7.9,1.4,11.5,2c0.4,0.1,0.9,0,1.2-0.3c2.7-2.2,5.4-4.5,8.4-7.1
		c-4-0.7-7.6-1.3-11.2-1.8c-0.5-0.1-1.2,0.1-1.6,0.4C212.6,233.3,210,235.5,206.9,238z M206.5,229.1c-3.7-0.6-6.8-1.2-10-1.7
		c-0.3,0-0.6,0-0.8,0.1c-3,2.2-6,4.4-9.4,6.9c3.9,0.7,7.2,1.2,10.5,1.8c0.5,0.1,1.1,0,1.4-0.3C200.8,233.7,203.5,231.5,206.5,229.1z
		"/>
</g>
</svg>
