<?xml version="1.0" encoding="utf-8"?>
<!-- Generator: Adobe Illustrator 22.1.0, SVG Export Plug-In . SVG Version: 6.00 Build 0)  -->
<svg version="1.1" id="Calque_1" xmlns="http://www.w3.org/2000/svg" xmlns:xlink="http://www.w3.org/1999/xlink" x="0px" y="0px"
	 viewBox="0 0 500 500" style="enable-background:new 0 0 500 500;" xml:space="preserve">
<style type="text/css">
	.st0{fill:#4FBDD7;}
	.st1{fill:#EAEAEA;}
	.st2{fill:#FFFFFF;}
	.st3{fill:#4FBDD7;stroke:#FFFFFF;stroke-width:5;stroke-miterlimit:10;}
	.st4{fill:#8C8C8C;}
	.st5{fill:#070707;}
	.st6{fill:none;stroke:#FFFFFF;stroke-width:7;stroke-miterlimit:10;}
	.st7{fill:none;stroke:#FFFFFF;stroke-width:10;stroke-miterlimit:10;}
	.st8{fill:#FFFFFF;stroke:#FFFFFF;stroke-width:3;stroke-miterlimit:10;}
	.st9{fill:none;stroke:#FDFFFF;stroke-width:6;stroke-miterlimit:10;}
	.st10{fill:#FAFEFF;}
	.st11{fill:none;stroke:#FFFFFF;stroke-width:2;stroke-miterlimit:10;}
	.st12{fill:#FFFFFF;stroke:#FFFFFF;stroke-width:2;stroke-miterlimit:10;}
	.st13{fill:#4FBDD7;stroke:#FFFFFF;stroke-width:4;stroke-miterlimit:10;}
	.st14{fill:#FFFFFF;stroke:#FFFFFF;stroke-width:4;stroke-miterlimit:10;}
	.st15{fill:none;stroke:#FFFFFF;stroke-miterlimit:10;}
	.st16{fill:#FFFFFF;stroke:#FFFFFF;stroke-width:13;stroke-miterlimit:10;}
	.st17{fill:#4FBDD7;stroke:#FFFFFF;stroke-width:8;stroke-miterlimit:10;}
	.st18{fill:#FFFFFF;stroke:#FFFFFF;stroke-width:0.75;stroke-miterlimit:10;}
	.st19{fill:#FFFFFF;stroke:#FFFFFF;stroke-width:0.5;stroke-miterlimit:10;}
	.st20{fill:none;}
	.st21{font-family:'HelveticaNeue-CondensedBold';}
	.st22{font-size:54px;}
	.st23{fill:#FFFFFF;stroke:#FFFFFF;stroke-width:8;stroke-miterlimit:10;}
	.st24{fill:#FFFFFF;stroke:#FFFFFF;stroke-miterlimit:10;}
	.st25{fill:#FFFFFF;stroke:#FFFFFF;stroke-width:11;stroke-miterlimit:10;}
	.st26{fill:#FFFFFF;stroke:#FFFFFF;stroke-width:6;stroke-miterlimit:10;}
	.st27{fill:#8C8C8C;stroke:#8C8C8C;stroke-width:4;stroke-miterlimit:10;}
	.st28{fill:#FFFFFF;stroke:#FFFFFF;stroke-width:1.05;stroke-miterlimit:10;}
	.st29{fill:none;stroke:#4FBDD7;stroke-width:5;stroke-miterlimit:10;}
	.st30{fill:none;stroke:#FFFFFF;stroke-width:4;stroke-miterlimit:10;}
	.st31{fill:#8C8C8C;stroke:#FFFFFF;stroke-width:4;stroke-miterlimit:10;}
	.st32{fill:#FFFFFF;stroke:#FFFFFF;stroke-width:10;stroke-miterlimit:10;}
	.st33{fill:none;stroke:#4FBDD7;stroke-width:2;stroke-miterlimit:10;}
	.st34{fill-rule:evenodd;clip-rule:evenodd;fill:#FFFFFF;}
	.st35{fill:#FFFFFF;stroke:#FFFFFF;stroke-width:7;stroke-miterlimit:10;}
	.st36{fill:#FFFFFF;stroke:#4FBDD7;stroke-width:7;stroke-miterlimit:10;}
	.st37{fill:#FCFCFC;}
	.st38{fill:#FFFFFF;stroke:#FFFFFF;stroke-width:5;stroke-miterlimit:10;}
	.st39{fill:none;stroke:#FFFFFF;stroke-width:3;stroke-miterlimit:10;}
	.st40{fill:none;stroke:#FFFFFF;stroke-width:8;stroke-miterlimit:10;}
	.st41{fill:none;stroke:#FFFFFF;stroke-width:6;stroke-miterlimit:10;}
	.st42{fill:#FFFFFF;stroke:#4FBDD7;stroke-width:3;stroke-miterlimit:10;}
	.st43{fill:none;stroke:#FFFFFF;stroke-width:0.75;stroke-miterlimit:10;}
	.st44{fill:#4FBDD7;stroke:#FFFFFF;stroke-width:9;stroke-miterlimit:10;}
	.st45{fill:none;stroke:#FFFFFF;stroke-width:9;stroke-miterlimit:10;}
	.st46{fill:none;stroke:#4FBDD7;stroke-width:3;stroke-miterlimit:10;}
</style>
<rect class="st0" width="500" height="500"/>
<path class="st2" d="M354.7,293.4C354.7,293.4,354.7,293.4,354.7,293.4c0,10.4,8.5,18.9,18.9,18.9s18.9-8.5,18.9-18.9
	s-8.5-18.9-18.9-18.9C363.2,274.5,354.8,282.9,354.7,293.4z M373.6,301.8c-4.7,0-8.5-3.8-8.5-8.5c0-4.7,3.8-8.5,8.5-8.5
	s8.5,3.8,8.5,8.5C382.1,298,378.3,301.8,373.6,301.8L373.6,301.8z"/>
<path class="st2" d="M205.7,274.4C205.7,274.4,205.7,274.4,205.7,274.4c-10.4,0-18.9,8.5-18.9,18.9c0,10.4,8.5,18.9,18.9,18.9
	s18.9-8.5,18.9-18.9C224.6,282.9,216.1,274.5,205.7,274.4z M197.2,293.4c0-4.7,3.8-8.5,8.5-8.5c4.7,0,8.5,3.8,8.5,8.5
	c0,4.7-3.8,8.5-8.5,8.5C201,301.8,197.2,298,197.2,293.4L197.2,293.4z"/>
<path class="st2" d="M82.6,101.2v38.5c0.1,1.9,1.1,3.6,2.7,4.5l28.8,16.9c0,0,0.1,0,0.1,0.1l82.3,48.4c3.3,2,5.4,5.5,5.4,9.4v7
	l-10.9-2.4c-0.2,0-0.5-0.1-0.7-0.1l-51.3-14.6l-26.3-22.8c-2.1-1.8-4.8-2.8-7.5-2.8c-6.4,0-11.5,5.1-11.5,11.5v51.9
	c0,2.1,1.2,4,3.2,4.8l76.5,33.1c-0.2,0.9-0.4,1.8-0.6,2.7c-3.4,18.2,8.6,35.6,26.8,39s35.6-8.6,39-26.8h102.2
	c2.6,14.1,13.8,24.9,28,27c18.2,2.7,35.2-9.9,37.9-28.2c2.7-18.2-9.9-35.2-28.2-37.9c-3.5-9.5-12.6-15.8-22.7-15.7h-18.2v-25.9
	c0-2.9-2.3-5.3-5.3-5.4h-7.8v-12.1c0-2.9-2.3-4.9-5.2-4.9h-74.2c-2.9,0-5.4,2-5.4,4.9v12.1h-7.5c-3,0.1-5.4,2.5-5.5,5.4v12.6
	l-14.3-3.2v-9.2c0-7.6-4.1-14.5-10.6-18.4l-79.9-47l-1-36.4c-0.1-1.8-1-3.5-2.6-4.4L90.6,96.7c-1.6-0.9-3.6-0.9-5.3,0
	C83.7,97.6,82.6,99.3,82.6,101.2z M314.1,213.4h-63.9v-6.5h63.9V213.4z M327.2,244.7h-40.8l-49.2-11v-9.9h90V244.7z M350.6,293.7
	c-0.2-12.7,9.9-23.2,22.7-23.4c0.7,0.1,1.3,0.2,2,0.1c12.1,0.9,21.4,10.9,21.4,23c0,12.7-10.3,23-23,23
	C361.1,316.4,350.8,306.3,350.6,293.7z M185,267.3c-3.3,2.2-5.3,4.8-7.2,7.8l-73.7-31.8v-48.5c0-0.4,0.3-0.8,0.7-1
	c0.4-0.2,0.9-0.1,1.2,0.2l27.2,23.5c0.6,0.5,1.3,0.9,2.1,1.1l49.7,14.1V267.3z M182.6,293.4c0.1-12.6,10.3-22.9,22.9-22.9
	c12.7-0.1,23.1,10.2,23.2,22.9c0,0.3,0,0.6,0,0.8c0,0.1,0,0.1,0,0.2c0,0,0,0,0,0.1c-0.6,12.3-10.7,21.9-23,21.9
	C192.9,316.4,182.6,306.1,182.6,293.4L182.6,293.4z M284.8,254.8c0.3,0.1,0.6,0.2,1,0.3h70c4.4-0.1,8.5,2,11.1,5.5
	c-14,2.8-24.7,14.2-26.5,28.4H238.9c-2.1-16.7-16.3-29.2-33.1-29.2c-3.5,0-7,0.6-10.4,1.8v-26.5L284.8,254.8z M93,110.3l17.4,10.1
	l0.8,27L93,136.7V110.3z"/>
<g>
	<rect x="2" y="369" class="st20" width="500" height="144"/>
	<text transform="matrix(1 0 0 1 58.1963 407.5557)" class="st2 st21 st22">Tondeuse à gazon</text>
</g>
</svg>
