<?xml version="1.0" encoding="utf-8"?>
<!-- Generator: Adobe Illustrator 22.1.0, SVG Export Plug-In . SVG Version: 6.00 Build 0)  -->
<svg version="1.1" id="Calque_1" xmlns="http://www.w3.org/2000/svg" xmlns:xlink="http://www.w3.org/1999/xlink" x="0px" y="0px"
	 viewBox="0 0 500 500" style="enable-background:new 0 0 500 500;" xml:space="preserve">
<style type="text/css">
	.st0{fill:#EAEAEA;}
	.st1{fill:#8C8C8C;}
	.st2{fill:none;}
	.st3{fill:#6B6B6B;}
	.st4{font-family:'HelveticaNeue-CondensedBold';}
	.st5{font-size:54px;}
	.st6{fill:#FFFFFF;}
	.st7{fill:#EAEAEA;stroke:#8C8C8C;stroke-width:7;stroke-miterlimit:10;}
	.st8{fill:#070707;}
	.st9{fill:none;stroke:#8C8C8C;stroke-width:7;stroke-miterlimit:10;}
	.st10{fill:none;stroke:#8C8C8C;stroke-width:10;stroke-miterlimit:10;}
	.st11{fill:#8C8C8C;stroke:#8C8C8C;stroke-width:3;stroke-miterlimit:10;}
	.st12{fill:none;stroke:#8C8C8C;stroke-width:8;stroke-miterlimit:10;}
	.st13{fill:none;stroke:#8E8E8E;stroke-width:6;stroke-miterlimit:10;}
	.st14{fill:#8E8E8E;}
	.st15{fill:#505050;}
	.st16{fill:none;stroke:#8E8E8E;stroke-width:2;stroke-miterlimit:10;}
	.st17{fill:#8C8C8C;stroke:#8C8C8C;stroke-width:2;stroke-miterlimit:10;}
	.st18{fill:#8C8C8C;stroke:#FFFFFF;stroke-width:2;stroke-miterlimit:10;}
	.st19{fill:none;stroke:#FFFFFF;stroke-width:2;stroke-miterlimit:10;}
	.st20{fill:none;stroke:#8C8C8C;stroke-miterlimit:10;}
	.st21{fill:none;stroke:#8C8C8C;stroke-width:13;stroke-miterlimit:10;}
	.st22{fill:#EAEAEA;stroke:#8C8C8C;stroke-width:8;stroke-miterlimit:10;}
	.st23{fill:none;stroke:#8C8C8C;stroke-width:4;stroke-miterlimit:10;}
	.st24{fill:#8C8C8C;stroke:#8C8C8C;stroke-width:0.75;stroke-miterlimit:10;}
	.st25{fill:none;stroke:#8C8C8C;stroke-width:9;stroke-miterlimit:10;}
	.st26{fill:#8C8C8C;stroke:#8C8C8C;stroke-width:0.5;stroke-miterlimit:10;}
	.st27{stroke:#8C8C8C;stroke-width:8;stroke-miterlimit:10;}
	.st28{fill:#8C8C8C;stroke:#8C8C8C;stroke-miterlimit:10;}
	.st29{fill:none;stroke:#8C8C8C;stroke-width:11;stroke-miterlimit:10;}
	.st30{fill:none;stroke:#8C8C8C;stroke-width:6;stroke-miterlimit:10;}
	.st31{stroke:#8C8C8C;stroke-width:6;stroke-miterlimit:10;}
	.st32{fill:#8C8C8C;stroke:#8C8C8C;stroke-width:4;stroke-miterlimit:10;}
	.st33{fill:#8C8C8C;stroke:#8C8C8C;stroke-width:1.05;stroke-miterlimit:10;}
	.st34{fill:#D6D6D6;}
	.st35{fill:none;stroke:#EAEAEA;stroke-width:5;stroke-miterlimit:10;}
	.st36{fill:#8C8C8C;stroke:#8C8C8C;stroke-width:10;stroke-miterlimit:10;}
	.st37{fill:none;stroke:#CECECE;stroke-width:2;stroke-miterlimit:10;}
	.st38{fill:none;stroke:#FFFFFF;stroke-width:4;stroke-miterlimit:10;}
	.st39{fill-rule:evenodd;clip-rule:evenodd;fill:#8C8C8C;}
	.st40{fill:#8C8C8C;stroke:#8C8C8C;stroke-width:8;stroke-miterlimit:10;}
	.st41{fill:#8C8C8C;stroke:#8C8C8C;stroke-width:7;stroke-miterlimit:10;}
	.st42{fill:#DBDBDB;stroke:#8C8C8C;stroke-width:7;stroke-miterlimit:10;}
	.st43{fill:none;stroke:#8C8C8C;stroke-width:5;stroke-miterlimit:10;}
	.st44{fill:none;stroke:#8C8C8C;stroke-width:3;stroke-miterlimit:10;}
	.st45{clip-path:url(#SVGID_2_);fill:#8C8C8C;}
	.st46{clip-path:url(#SVGID_2_);fill:none;stroke:#8C8C8C;stroke-width:8;stroke-miterlimit:10;}
	.st47{clip-path:url(#SVGID_2_);fill:#FFFFFF;}
	.st48{clip-path:url(#SVGID_2_);fill:#EAEAEA;}
	.st49{clip-path:url(#SVGID_2_);fill:none;stroke:#8C8C8C;stroke-miterlimit:10;}
	.st50{fill:none;stroke:#FFFFFF;stroke-width:0.75;stroke-miterlimit:10;}
	.st51{fill:none;stroke:#8C8C8C;stroke-width:14;stroke-miterlimit:10;}
	.st52{fill:none;stroke:#EAEAEA;stroke-width:2;stroke-miterlimit:10;}
	.st53{fill:none;stroke:#8C8C8C;stroke-width:2;stroke-miterlimit:10;}
</style>
<rect x="1" y="2" class="st0" width="500" height="500"/>
<g>
	<rect x="1" y="363" class="st2" width="500" height="144"/>
	<text transform="matrix(1 0 0 1 134.1455 401.5557)" class="st3 st4 st5">Violoncelle</text>
</g>
<g>
	<path class="st1" d="M220.7,222.3c0.8,0.3,1.7,0.3,2.5,0c0.8-0.3,1.4-1,1.7-1.8c0.7-1.7-0.2-3.6-1.9-4.3l-26.7-10.5l2.4-6.1l28,11
		c1.7,0.7,3.6-0.2,4.3-1.9c0.7-1.7-0.2-3.6-1.9-4.3l-31.1-12.2c-8.4-3.3-18,0.8-21.3,9.3c-0.3,0.8-0.3,1.7,0,2.5
		c0.3,0.8,1,1.4,1.8,1.7L220.7,222.3z M192.5,197.7l-2.2,5.6l-5.6-2.2C186.7,198.9,189.5,197.6,192.5,197.7"/>
	<path class="st1" d="M324.3,255.3c1.3-7.5-2.8-15.2-10.2-18.1l-21.1-8.3c-1.7-0.7-3.6,0.2-4.3,1.9c-0.7,1.7,0.2,3.6,1.9,4.3
		l18.1,7.1l-2.4,6.1l-16.8-6.6c-1.7-0.7-3.6,0.2-4.3,1.9c-0.7,1.7,0.2,3.6,1.9,4.3l19.9,7.8l12.2,4.8l13.4,5.3
		c0.8,0.3,1.7,0.3,2.5,0c0.8-0.3,1.4-1,1.7-1.8c0.7-1.7-0.2-3.6-1.9-4.3L324.3,255.3z M317.9,252.8l-5.6-2.2l2.2-5.6
		C316.8,247,318,249.9,317.9,252.8"/>
	<path class="st1" d="M327.4,85.1c-1.7-0.7-3.4-1.3-5.1-2l3-8c0.6-1.7-0.2-3.5-1.9-4.2l-9.4-3.7c-1.7-0.7-3.5,0.1-4.2,1.8l-5.8,14
		c-1.3-0.5-2.7-1-4-1.6c-1.5-0.2-2.9,0.7-3.4,2.1c-0.5,1.4,0.2,3,1.5,3.7c1.1,0.6,2.2,1.2,3.4,1.9l-2.8,6.8
		c-1.4-0.6-2.8-1.1-4.2-1.7c-1.4,0-2.7,0.8-3.2,2c-0.6,1.4-0.2,3.1,1,4.1c1.3,0.5,2.6,1,3.9,1.6L274.4,154
		c-9.3-1.4-18.8,0.3-27.2,4.7c-9.3,4.9-16.5,13-20.4,22.8l-3.7,9.3c-0.6,1.5,0,3.1,1.3,4c5.3,3.5,6.8,10.6,3.3,15.9l-6.3,9.7
		c-1.7,2.6-4.3,4.3-7.3,5c-3,0.6-6.1,0.1-8.7-1.6c-0.8-0.5-1.9-0.7-2.8-0.4c-0.9,0.3-1.7,1-2.1,1.9l-5.4,13.8
		c-5.1,13.1-4.9,27.4,0.7,40.2c5.2,11.9,14.3,21.2,25.9,26.7l-8.5,21.5c-0.7,1.7,0.2,3.6,1.9,4.3c0.8,0.3,1.7,0.3,2.5,0
		c0.8-0.3,1.4-1,1.7-1.8l8.5-21.5c12.2,4,25.3,3.4,37.1-1.8c12.9-5.6,22.8-15.9,28-28.9l5.4-13.8c0.4-0.9,0.3-2-0.2-2.8
		s-1.3-1.5-2.3-1.6c-6.2-1.1-10.4-7.1-9.4-13.3l2-11.4c1.1-6.2,7.1-10.4,13.3-9.4c1.5,0.3,3-0.6,3.6-2l3.7-9.3
		c3.8-9.8,4.1-20.6,0.6-30.6c-3.1-8.9-9-16.7-16.7-22l22-59.1c1.5,0.6,3.1,1.2,4.6,1.8c0.2,0,2.1-0.4,2.9-2.3c0.8-2-0.3-3.7-0.4-3.8
		c-1.6-0.6-3.2-1.3-4.8-1.9l2.6-6.9c1.5,0.4,3.1,0.9,4.6,1.3c1.3,0.3,2.6-0.3,3.3-1.3C328.8,88,328.6,86.2,327.4,85.1 M303.1,211.6
		l-2.8,7c-8.8-0.2-16.6,6.1-18.2,15l-2,11.4c-1.5,8.5,3.3,16.6,10.9,19.8l-4.1,10.4c-4.5,11.4-13.2,20.4-24.5,25.3
		c-11.3,4.9-23.8,5.1-35.2,0.6c-11.4-4.5-20.4-13.2-25.3-24.5c-4.9-11.3-5.1-23.8-0.6-35.2l4.1-10.4c3.2,1.2,6.6,1.5,10.1,0.8
		c4.7-1,8.8-3.8,11.4-7.8l6.3-9.7c4.9-7.6,3.5-17.5-3.1-23.4l2.8-7c6.3-15.9,22.2-25.3,38.8-23.6l-22.4,53.8c-0.3,0.8-0.3,1.7,0,2.5
		c0.3,0.8,1,1.5,1.8,1.8l15.1,5.9c0.8,0.3,1.7,0.3,2.5,0l0,0c0.8-0.4,1.4-1,1.7-1.9l20.3-54.6C304.2,177.9,309.4,195.7,303.1,211.6
		 M265.5,217l-8.8-3.5l41.3-99.2l4.9,1.9L265.5,217z M305.2,110.2l-4.7-1.8l14.1-33.9l3.4,1.3L305.2,110.2z"/>
	<path class="st1" d="M234.9,251.7c-1.7-0.7-3.6,0.2-4.3,1.9c-0.7,1.7,0.2,3.6,1.9,4.3l19.2,7.5c0.8,0.3,1.7,0.3,2.5,0
		s1.4-1,1.7-1.8c0.7-1.7-0.2-3.6-1.9-4.3L234.9,251.7z"/>
	<path class="st1" d="M229.2,262.9c-0.9-0.3-1.9-0.3-2.7,0.1c-0.8,0.4-1.5,1.2-1.7,2.1l-7.6,29.3c-0.5,1.8,0.6,3.5,2.4,4
		c1.8,0.5,3.5-0.6,4-2.4l6.7-25.8l12.2,4.8l-12.7,23.4c-0.9,1.6-0.3,3.6,1.3,4.5c0.9,0.5,2,0.5,2.9,0.1c0.6-0.3,1.2-0.8,1.6-1.4
		l14.5-26.6c0.4-0.8,0.5-1.8,0.2-2.7c-0.3-0.9-1-1.6-1.9-1.9L229.2,262.9z"/>
	<line class="st1" x1="234.9" y1="251.7" x2="314.6" y2="74.5"/>
	<line class="st1" x1="242.3" y1="256.2" x2="314.6" y2="74.5"/>
	<line class="st1" x1="254.1" y1="259.2" x2="318" y2="75.8"/>
	<line class="st1" x1="246.8" y1="259.3" x2="314.6" y2="74.5"/>
</g>
</svg>
