<?xml version="1.0" encoding="utf-8"?>
<!-- Generator: Adobe Illustrator 26.0.1, SVG Export Plug-In . SVG Version: 6.00 Build 0)  -->
<svg version="1.1" id="a" xmlns="http://www.w3.org/2000/svg" xmlns:xlink="http://www.w3.org/1999/xlink" x="0px" y="0px"
	 width="485px" height="405px" viewBox="0 0 485 405" style="enable-background:new 0 0 485 405;" xml:space="preserve">
<g>
	<path d="M353,92c-61-61-160-61-221,0s-61,160,0,221c61,61,160,61,221,0C414,252,414,153.1,353,92L353,92z M150.4,294.6
		c-47.6-47.6-50.6-122.9-9.1-174.1l183.1,183.1C273.3,345.2,198,342.2,150.4,294.6L150.4,294.6z M340.3,288.2L156.7,104.7
		c51.2-44.9,129-43.1,177.8,5.7C383.4,159.3,385.2,237.1,340.3,288.2L340.3,288.2z"/>
</g>
</svg>
