<?xml version="1.0" encoding="utf-8"?>
<!-- Generator: Adobe Illustrator 26.0.1, SVG Export Plug-In . SVG Version: 6.00 Build 0)  -->
<svg version="1.1" id="Calque_1" xmlns="http://www.w3.org/2000/svg" xmlns:xlink="http://www.w3.org/1999/xlink" x="0px" y="0px"
	 width="190px" height="190px" viewBox="0 0 190 190" style="enable-background:new 0 0 190 190;" xml:space="preserve">
<style type="text/css">
	.st0{fill:#E9E9E9;}
	.st1{fill:#B0B0B2;}
	.st2{fill:#41689C;}
	.st3{fill:#5F5D5E;}
	.st4{fill:#696768;}
	.st5{fill:#3C393A;}
	.st6{fill:#E8E8E8;}
	.st7{fill:#AFAFB1;}
	.st8{fill:#4A6797;}
	.st9{fill:#3B393A;}
	.st10{fill:#FFFFFF;}
	.st11{fill:#828D8C;}
	.st12{fill:#262828;}
	.st13{fill:#6B7F93;}
	.st14{fill:#788DA3;}
	.st15{fill:#272929;}
	.st16{fill:#262727;}
	.st17{fill:#565F5F;}
	.st18{fill:#6D8095;}
	.st19{fill:#2D3030;}
	.st20{fill:#DDE5ED;}
	.st21{fill:#323535;}
	.st22{fill:#535B5C;}
	.st23{fill:#DAE3ED;}
	.st24{fill:#D5DDE5;}
	.st25{fill:#4E5A69;}
	.st26{fill:#B5BCBC;}
	.st27{fill:#C3C9C8;}
	.st28{fill:#585C5D;}
	.st29{fill:#909A98;}
	.st30{fill:#6E8399;}
	.st31{fill:#2B2E2E;}
	.st32{fill:#8F9896;}
	.st33{fill:#5F6767;}
	.st34{fill:#8C9398;}
	.st35{fill:#728395;}
	.st36{fill:#848E8D;}
	.st37{fill:#CCD3D7;}
	.st38{fill:#727A83;}
	.st39{fill:#7C8081;}
	.st40{fill:#58636F;}
	.st41{fill:#919A9D;}
	.st42{fill:#303434;}
	.st43{fill:#505858;}
	.st44{fill:#576060;}
	.st45{fill:#474D4D;}
	.st46{fill:#282B2B;}
	.st47{fill:#7C92A8;}
	.st48{fill:#7E95AB;}
	.st49{fill:#7C93A9;}
	.st50{fill:#7E94AB;}
	.st51{fill:#212323;}
	.st52{fill:#7D828A;}
	.st53{fill:#848F8E;}
	.st54{fill:#90A5BC;}
	.st55{fill:#5D6E81;}
	.st56{fill:#BDCBDD;}
	.st57{fill:#8F9A98;}
	.st58{fill:#616B6B;}
	.st59{fill:#869190;}
	.st60{fill:#B8C0BE;}
	.st61{fill:#A3AEAD;}
	.st62{fill:#2A2D2D;}
	.st63{fill:#AAB4B5;}
	.st64{clip-path:url(#SVGID_00000182507498340685838090000000947191526633018247_);}
	.st65{fill:url(#);}
	.st66{clip-path:url(#SVGID_00000036213008166193190810000011663668253995062706_);}
	.st67{fill:#FFFFFF;stroke:#55575C;stroke-width:0.527;stroke-linecap:round;stroke-miterlimit:1;}
	.st68{clip-path:url(#SVGID_00000083086098738268902730000007542905007059326607_);}
	.st69{fill:none;stroke:#3E4045;stroke-width:0.758;}
	.st70{opacity:0.78;}
	.st71{opacity:0.74;}
	.st72{opacity:0.79;}
	.st73{clip-path:url(#SVGID_00000031913320294814750280000009565578052241164704_);}
	.st74{opacity:0.75;}
	.st75{clip-path:url(#SVGID_00000075846612092993134160000010762234356555070118_);}
</style>
<g id="cPOmDZ.tif">
	<g>
		<path class="st10" d="M131.5,113c0.2-0.1,0.3-0.2,0.5-0.3c-0.3-0.7-0.6-1.4-1-2c-5.2-8.2-10.5-16.4-15.8-24.5
			c-0.8-1.2-0.9-2.1-0.2-3.2c0.6-0.9,0.9-2,1.3-3c-0.3-0.1-0.5-0.2-0.8-0.4c-0.7,1.3-1.6,2.5-2.1,3.8c-0.3,0.7-0.3,1.9,0.1,2.5
			c5.5,8.6,11,17.2,16.6,25.8C130.7,112.1,131.1,112.5,131.5,113z M159.1,89.2c-1.7,1.4-2.4,3.8-1.5,5.3c4.1,7.2,8.2,14.3,12.3,21.5
			c0.3,0.5,0.7,0.9,1.1,1.4c0.2-0.1,0.4-0.2,0.6-0.3c-0.2-0.7-0.4-1.4-0.8-2.1c-3.5-6.2-6.9-12.5-10.5-18.6c-1.2-2-2.4-3.9-1.1-6.3
			C159.3,90,159.2,89.7,159.1,89.2z"/>
		<path d="M87.8,84.1c1.6-1.1,3.1-2.5,5-0.5c0.1,0.1,0.2,0.1,0.3,0.1c3.1-0.1,6.1-0.1,9.2-0.2c0.8,0,1.7-0.3,2.5-0.2
			c4.4,0.5,7.5-1.3,9.3-5.4c0.2-0.5,1.4-0.9,2-0.7c13,3.1,26,6.2,39,9.4c0.4,0.1,0.7,0.3,1.1,0.5c0,0.2,0,0.4-0.1,0.5
			c-0.7,0-1.4,0-2.1-0.1c-6.7-1.5-13.4-3.1-20.1-4.6c-5.6-1.3-11.2-2.7-16.8-3.9c-0.7-0.2-2,0-2.2,0.4c-2.2,4.9-6.6,7.1-11,9.4
			c-1.8,0.9-2.6,2.1-2.7,4.1c-0.2,7-0.8,14,0.6,21c1.8,8.5,7.6,13.1,16.1,12.5c2.4-0.2,4.8-1.4,7.1-2.4c4.6-2,9-4.3,13.5-6.4
			c0.5-0.3,1.2-0.3,1.8-0.5c0.1,0.3,0.2,0.5,0.3,0.8c-5.8,2.8-11.5,5.6-17.7,8.7c1.5,0.1,2.6,0.2,3.8,0.3c8.8,0.3,17.6,0.6,26.4,0.9
			c1.3,0,2.7,0.1,4,0.2c5.4,0.6,10.6-0.2,15.5-2.5c2.8-1.3,5.7-2.6,8.5-3.9c-0.1-0.2-0.1-0.4-0.2-0.6c-1.5,0.3-3,0.3-4.4,0.9
			c-2.9,1.2-5.7,1.8-9,0.5c0.7-0.6,1.3-1.1,1.8-1.6c0-0.1,0-0.3,0-0.4c-0.9,0-1.9,0-2.8,0.2c-0.7,0.1-1.3,0.4-1.9,0.7
			c-3.7,1.9-7.4,2.1-11.4,0c1-0.6,1.8-1.2,2.7-1.7c0-0.1,0-0.3-0.1-0.4c-0.7,0.1-1.5,0.1-2.1,0.4c-1.3,0.6-2.6,1.3-3.9,2
			c-2.2,1.1-6,0.7-8.2-0.9c1-0.7,1.9-1.4,2.9-2.1c-1.1-0.3-2.1-0.5-3.2-0.8c0-0.2,0.1-0.4,0.1-0.6c2.5,0,5,0,7.6,0
			c0.1,0.2,0.2,0.4,0.2,0.6c-1.5,0.9-2.9,1.7-4.4,2.6c0,0.2,0,0.3,0,0.5c1.4-0.2,2.8-0.1,4.2-0.5c1.2-0.4,2.4-1.1,3.5-1.8
			c2.8-1.7,5.4-0.1,8.1,0c0.1,0.3,0.1,0.5,0.2,0.8c-1.4,0.6-2.7,1.2-4.1,1.8c0,0.2,0.1,0.4,0.1,0.6c1.7-0.3,3.4-0.3,4.9-0.8
			c3.1-1.1,6-2.7,9.5-1.6c0.7,0.2,1.4,0.4,2.7,0.7c-1.1,0.8-1.7,1.2-2.3,1.7c0,0.1,0.1,0.3,0.1,0.4c0.8-0.2,1.7-0.3,2.4-0.6
			c2.7-1.4,5.5-1.8,8.4-1.3c0.9,0.2,1.7,0.4,2.6,0.7c-0.2,0.4-0.2,0.6-0.2,0.7c-5.8,2.5-11.5,5.5-17.6,7.5
			c-3.4,1.1-7.4,0.9-11.1,0.8c-8.9-0.2-17.7-0.6-26.6-0.9c-0.7,0-1.6,0.2-1.9,0.7c-2.2,3-5.3,4.5-8.7,4.7c-5.4,0.3-10.9,0.2-16.3,0
			c-3.9-0.2-6.8-2.4-9.4-5.4c-0.5,0.6-1,1.1-1.5,1.6c-2.9,2.9-6.3,4.4-10.4,4.3c-4.8,0-9.5-0.1-14.3-0.3c-2.5-0.1-5-0.2-7.6-0.5
			c-4.2-0.4-7.3-2.7-8.8-6.5c-0.8-2-2-2.6-3.7-2.1c-2.7,0.7-5.3,0.6-8,0.1c-1.2-0.2-2.7-0.2-3.7,0.4c-1,0.6-1.5,2-2.1,3.3
			c3.9-0.8,8,1.8,12-0.8c-0.3,0.5-0.5,1-0.8,1.5c-2.2,2.7-5.1,4.3-8.7,4.3c-2.9,0-5.8,0-8.7,0c-7.5,0-13.1-5.2-13.5-12.7
			c-0.1-1.9-0.4-2.9-2.6-3c-1.7-0.1-3.5-0.8-5.2-1.3c-0.3-0.1-0.6-0.6-0.7-1c-0.1-0.3,0-0.8,0-1.1c0.1-4.9-1-5.2,5.2-6.3
			c0.5-3.9,1.1-7.8,1.5-11.8c0.3-2.4,1.6-3.6,3.8-4c1.7-0.4,3.4-0.6,5-1.2c0.5-0.2,1.1-0.9,1.2-1.5c0.2-1.1,0.1-2.3,0-3.4
			c0-0.5-0.3-1.2-0.7-1.3c-1.1-0.5-1.8-1.3-1.3-2.3c0.4-0.7,1.4-1.3,2.3-1.6c0.7-0.2,1.6,0.3,2.4,0.5c0,0.2-0.1,0.4-0.1,0.6
			c-1.2,0.2-2.3,0.3-3.5,0.5c-0.1,0.2-0.1,0.5-0.2,0.7c2.6,0.1,2.2,1.8,2.2,3.4c0,1.2,0,2.4,0,3.7c1.5,0.3,2.2,0,2.1-1.6
			c-0.1-2,0-4.1,0-6.4c1.7,1.1,1.3,2.4,1.3,3.7c0.1,1.3,0,2.6,0,3.9c0.2,0,0.4,0.1,0.6,0.1c0.1-0.3,0.4-0.7,0.4-1
			c0.1-0.8,0-1.5,0-2.3c0-4.5,1.3-6,5.7-6.6c0.9-0.1,1.8,0,1.7,1.3c-1.5,0.3-2.9,0.6-4.4,0.9c0,0.2,0.1,0.4,0.1,0.5
			c1.2,0.2,2.4,0.3,3.6,0.5c0,0.2-0.1,0.4-0.1,0.6c-1.6,0-3.3,0-5.1,0c0,3.5,0,7.1,0,10.9c2-0.4,4-0.9,5.9-1.3c0-1.2,0-2.3,0-3.3
			c0-3-0.1-5.9-0.1-8.9c1-0.5,1.3,0.1,1.5,0.9c0.2,0.7,0.7,1.4,1.1,2.3c1-0.8,1.7-1.3,2.4-1.7c-0.1-1.1-0.2-2.1-0.3-3.2
			c-0.3-5.5,0.6-11.1-0.9-16.6c-0.3-1.2,0.3-2.1,1.5-2.5c1.7-0.6,3.5-1.2,5.1-1.9c0.7-0.3,1.3-0.8,2-1.3c0.3-0.2,0.6-0.6,0.9-0.6
			c4.5,0,8.2-2.3,12.2-3.8c3.4-1.3,6.4-1.3,9.7,0.2c5.2,2.3,10.5,4.4,15.7,6.6c1.9,0.8,2.4,1.9,2,4c-0.2,0.8-0.2,1.6-0.3,2.6
			c1.2,0.2,2.3,0.4,3.4,0.6c1.5,0.3,2.4,1,2.2,2.7c0,0.4,0.2,1.1,0.6,1.3c1.2,0.8,2.1,3.7,1.2,4.9c-0.3,0.4-1.2,0.8-1.8,0.7
			c-0.5-0.1-1.1-0.8-1.2-1.3c-0.2-1-0.2-2,0-3c0.3-1.7-0.2-2.4-1.9-2.3c-0.8,0-1.6,0-2.8,0c0,2.6,0,5.1,0,7.6c0,1.5-0.1,3,0,4.5
			C87.2,82.6,87.6,83.4,87.8,84.1c-2.6-0.2-5.2-0.4-7.8-0.6c-2.2-0.2-4.4-0.6-6.5-0.9c-0.4,2.2,0.6,3.1,2.4,3.5
			c1.7,0.4,3.2,1.2,4.9,1.5c0.8,0.2,2.2,0,2.5-0.5c1-1.7,2.5-2,4.2-2.1C87.6,84.9,87.7,84.4,87.8,84.1z M88.1,99.2L88.1,99.2
			c-1.2-1.3-2.8-0.9-4.4-1c-2.4-0.1-4.9-0.4-7.3-0.6c-0.1,0.7-0.2,1.2-0.3,1.8c-0.7-0.4-1.2-0.6-1.6-0.9c-4.6-3.3-10.9-1.7-13.8,2
			c-1.5,1.8-2.7,4-3.4,6.3c-2.6,8-2.3,15.5,3.7,22.1c4,4.4,11.5,5.1,15.9-1c3.7-5.2,5-11,4.1-17.2c-0.1-0.5,0-1,0.1-1.6
			c0.2,0,0.4,0,0.6,0c1.6,4.2,0.9,8.4-0.2,13.3c3.3-2.1,6.1-0.8,9-0.2c1.3,0.3,3.8-0.5,4.2-1.5c0.9-1.9,0.8-4.3,1.2-6.5
			c-4.5,0-8.6,0-12.6,0c0-0.3,0-0.6-0.1-0.9c1.6-0.1,3.2-0.4,4.8-0.4c2.5,0.1,4.9,1.3,7.6-0.3c-0.5-2.1-1-4.1-1.4-5.8
			c-2.7-0.2-4.9-0.5-7.2-0.5c-2.2,0-4.3,0.3-6.9,0.5c2-1.5,5-2,7.7-1.5c1.8,0.3,3.5,0.8,5.3-0.3c-0.3-0.9-0.7-1.6-1-2.4
			c0.2-0.2,0.3-0.5,0.5-0.7c1.3,3.4,3.9,3.6,6.8,3.7c0-2.9-0.1-5.8,0-8.6c0.1-1.3-0.4-1.7-1.6-2.1C89.1,92,80.3,89,71.5,86
			c-0.4-0.2-0.9-0.2-1.4-0.3c0,1.7,0,3.4,0,4.8c3.5,0.5,6.8,0.9,10.1,1.4c0.4,0.1,1,0.6,1.1,1c0.1,0.4-0.3,1-0.7,1.3
			c-0.7,0.6-1.5,0.9-2.6,1.6c4.1,0.8,8.2,0,11.6,3.2C88.8,99.1,88.5,99.1,88.1,99.2z M85.6,64.3c-0.1,0.3-0.2,0.7-0.4,1
			c-6.7-2.5-13.3-4.9-20.2-7.5c0,4.9,0,9.5,0,14.2c0,0.4,0.4,1.1,0.8,1.3c1.5,0.7,1.9,1.9,1.8,3.4c-0.1,1.3,0,2.7,0,4
			c0.2-0.2,0.4-0.3,0.6-0.5c1.6,0.4,3.2,0.9,4.8,1.2c4.2,0.6,8.5,1.1,13,1.7c0-0.8,0-1.6,0-2.3c0.2-6.1,0.5-12.2,0.6-18.3
			c0-0.5-0.4-1.3-0.8-1.4c-6.2-2.5-12.4-5-18.7-7.4c-0.5-0.2-1,0-1.6,0c0,0.2,0,0.3,0,0.5c6.9,2.7,13.9,5.4,20.8,8.1
			c-0.1,0.3-0.2,0.6-0.4,1c-6.8-2.5-13.7-5.1-20.5-7.6c-0.1,0.3-0.2,0.6-0.3,0.9C72,59,78.8,61.6,85.6,64.3z M31,105.5
			c-0.6-0.3-1-0.5-1.4-0.8c-3.9-2.3-8.4-1.7-11.2,1.9c-1.1,1.5-2,3.2-2.6,5c-2,6.2-1.8,12.2,2.8,17.4c3.9,4.4,9.5,4.1,13-0.7
			c2.8-4,4-8.4,3.3-13.3c-0.1-0.6,0-1.2,0.1-1.8c0.2,0,0.4,0,0.6,0c1.3,3.5,0.7,7-0.1,10.6c3.7-0.1,3.8-0.1,3.7-3.5
			c0-1.6,0.4-2.6,1.9-3.3c-1.4,0-2.8,0-4.2,0c0-0.2,0-0.4,0-0.6c1.6-0.1,3.1-0.3,4.7-0.5c0-1.4,0-2.7,0-4.3c-2.3,0-4.5,0-6.8,0
			c0-0.2,0-0.3-0.1-0.5c0.8-0.3,1.7-0.5,2.7-0.8c-0.6-1.4-0.9-2.9-1.7-4c-0.4-0.5-1.8-0.1-2.7-0.1c-0.1-0.1-0.1-0.3-0.2-0.4
			c0.7-0.5,1.4-1,2.4-1.8C33.5,104.5,31.7,102.5,31,105.5z M52.9,97.2c-0.7-0.1-1.2-0.3-1.6-0.2c-2.6,0.4-5.1,0.7-7.6,1.3
			c-0.5,0.1-1,1.2-1,1.8c0,3.4,0,6.8,0.1,10.2c0.1,2.4,0.2,4.7,0.3,7.2c3.3,0.2,6.6-0.3,9.6,1.1c0,0.2,0,0.3,0,0.5
			c-1.1,0-2.2,0-3.6,0c0,1.2-0.1,2.1,0,3c0,0.4,0.5,1,0.8,1c1.8,0.1,3.6,0,5.4,0c-0.5-2.8-0.9-5.4-1.3-7.9c-3.5-0.4-3-0.3-2.8-3.4
			c0-0.5,0.1-1,0.2-1.5C51.8,106.1,52.3,101.7,52.9,97.2z M54.4,79.3c0.4-2.2-0.8-5.1,2.2-6.1c2.2-0.7,4.6-1.1,7.1-1.6
			c0-4.2,0-8.8,0-13.7c-1.8,0.6-3.6,1.3-5.4,1.9c-1.1,0.3-1.4,1-1.4,2.1c0.1,3,0,5.9,0,8.9c0,0.6-0.2,1.1-0.4,1.7
			c-0.2,0-0.4-0.1-0.6-0.1c0-0.6-0.1-1.2-0.1-1.8c-0.1-3,0-5.9-0.2-8.9c-0.1-1.6,0.4-2.5,2.1-3c2.2-0.7,4.3-1.6,6.4-2.4
			c-0.1-0.2-0.2-0.4-0.2-0.6c-3.6,1.4-7.7,1.7-10.7,4.8c0.4,0.4,0.8,0.9,1,1.1c-0.1,1-0.3,1.7-0.3,2.4c0,2.7,0,5.3,0,8
			c0,5.6-0.1,5.6-5.6,6.8c-1.8,0.4-2.5-0.1-2.5-1.9c0-1.9,0.1-3.8,0.1-5.7c0-0.5-0.2-1-0.4-1.5c-0.4-0.9-1.1-1.7-1.2-2.7
			c-0.2-1.5-0.1-3-0.1-4.5c-3.2,0.6-3.7,0.9-3.6,2.2c3.1-0.9,3.1-0.9,3.1,2.5c0,4.1,0,8.2,0,12.3c0,1.4,0.3,2.1,2,1.6
			C48.5,80.5,51.4,80,54.4,79.3z M34.6,102.7c-0.3-1-0.7-1.8-0.8-2.6c-0.3-1.7-1.1-2.2-2.9-1.9c-2.7,0.4-5.4,0.5-8.1,0.6
			c-0.5,0-1.1-0.7-1.6-1.1c0.4-0.6,0.8-1.3,1.3-1.7c0.5-0.3,1.2-0.3,1.8-0.4c3.5-0.7,3.5-0.7,2.9-4.3c0-0.1-0.1-0.2-0.4-0.5
			c-2,0.5-4.2,0.8-6.2,1.6c-0.8,0.3-1.7,1.5-1.9,2.3c-0.5,3.4-0.7,6.7-1.1,10.7C22.8,100.2,28.7,102.7,34.6,102.7z M112.2,127.5
			c-1.5-0.7-3-1.5-4.6-2.1c-0.6-0.2-1.4-0.2-2,0c-2.7,0.9-5.4,1.2-8.1-0.2c-0.7-0.4-2.1-0.5-2.6-0.1c-0.9,0.9-1.4,2.3,0.2,3.3
			c1.7,1.1,3.3,2.6,5.2,3.3C105.1,133.6,110.1,131.7,112.2,127.5z M45.9,95.2c2.6-0.4,4.7-0.7,6.8-1.2c0.8-0.2,2.1-1.1,2.1-1.6
			c0.1-3.1-0.2-6.1-0.3-9.4c-2.6,0.6-5,1.2-7.3,1.9c-0.5,0.1-1.2,0.8-1.2,1.3C45.8,89.1,45.9,92,45.9,95.2z M95.2,106.1
			c2.3,5.8,2.2,11.3,0.6,16.7c2.9,0,5.7,0,8.8,0c-4.1-4.8-4.8-10.3-5.2-15.9C98,106.7,96.8,106.5,95.2,106.1z M107.4,84.5
			c-0.4,0-0.7-0.1-1.1-0.1c-5.3,0.6-10.7,1.1-16,1.7c-1.4,0.2-2.9,0.2-4.3,0.4c-1.1,0.2-1.7,1.8-0.9,2.3c1,0.6,2.3,1.2,3.5,1.1
			c2.7-0.1,5.5-0.9,8.2-0.8C101.1,89.4,104,86.6,107.4,84.5z M93.9,122.6c-2.7,1.5-5,0.1-7.5-0.3c-1.8-0.3-4,0.2-5.5,1.2
			c-1.2,0.8-1.6,2.9-2.3,4.3c1.5,0,2.9-0.1,4.2,0c1.4,0.1,2.9,0.4,4.3,0.5C90.9,128.7,93.2,126.8,93.9,122.6z M47.1,77.8
			c1.6-0.4,2.9-0.5,4.1-1c0.6-0.2,1.3-1.1,1.3-1.6c0.1-4.2,0.1-8.4,0.1-12.6c-3.8,0.4-4,0.6-4,4c0,1.3,0.4,2.7-1.2,3.5
			c-0.2,0.1-0.3,0.4-0.3,0.6C47.1,73,47.1,75.3,47.1,77.8z M11.4,107.7c1.4,0,2.7,0.1,3.8-0.1c0.5-0.1,1.2-0.8,1.2-1.2
			c0.5-4.4,0.9-8.8,1.3-13.3c-2.9,0.1-4.3,0.8-4.6,2.5C12.5,99.6,12,103.6,11.4,107.7z M41.2,108c0-2.8-0.1-5.5,0-8.2
			c0-0.8,0.3-1.8,0.9-2.3c1.1-1.2,0.7-1.9-0.6-2.1c-1.9-0.4-4-0.5-6.2-0.8c1.2,4.2,2.4,8.1,3.4,12.1C39.1,108,39.8,108.4,41.2,108z
			 M60.1,92c3.3,0.4,3.6,0.1,3.6-2.8c0-1.4,0-2.8,0-4.2c0-1.9-0.5-4,2.2-5.3c-1.7-0.4-2.9-0.8-4.2-0.9c-0.5,0-1.5,0.6-1.6,1
			C60,83.8,60.1,87.9,60.1,92z M6.3,115.1c2.2-0.1,4.1-0.2,6.1-0.3c0.5,0,1.2-0.4,1.3-0.8c0.6-1.6,1-3.3,1.6-5.3
			c-2.6,0.3-5.1,0.6-7.6,1.1c-0.5,0.1-1.3,0.8-1.3,1.3C6.2,112.3,6.3,113.6,6.3,115.1z M43,94.4c0-3.7,0-7.3,0-11
			c-3.4,0-3.8,0.4-3.8,3.5c0,2.2,0,4.4,0,6.7C40.4,93.9,41.6,94.1,43,94.4z M69,91c-0.1-2-0.3-3.7-0.3-5.5c0-1.4-0.2-2.6-1.3-3.5
			c-0.4-0.3-1.1-0.9-1.3-0.8c-0.5,0.3-1,0.9-1,1.4c-0.1,2.9,0,5.8,0,8.9C66.4,91.3,67.5,91.2,69,91z M63.9,95.8
			c-1.9,0.5-3.9,1.1-5.8,1.5c-1.4,0.3-1.9,1-2.2,2.4c-0.8,4-1.7,7.9-2.6,11.8c-0.2,0.8,0,1.7,0.1,2.5c0.3-0.8,0.8-1.5,1-2.4
			C55.6,105.2,57.6,99.3,63.9,95.8z M51.3,124.3c1.1,5.1,6.1,8.6,10.2,7.3C58.6,128.6,55.7,125.8,51.3,124.3z M64.2,77.2
			c-0.3-0.8-0.3-2.7-1.2-3.3c-2.1-1.3-4.4-0.1-6.2,1.1c-0.7,0.4-0.5,2.2-0.8,3.4c1.3,0,2,0.1,2.8,0C60.4,78.1,62,77.7,64.2,77.2z
			 M58.6,81.5c-1,0.7-2.3,1.1-2.3,1.6c-0.2,3.2-0.1,6.5-0.1,9.8c0.9-0.2,1.7-0.4,2.4-0.5C58.6,88.8,58.6,85.4,58.6,81.5z M42.6,66
			c-0.3-0.1-0.5-0.2-0.8-0.3c-0.3,0.5-0.9,1-0.9,1.4c-0.1,5,0,10.1,0,15.2c0.7-0.2,1.4-0.4,1.7-0.5C42.6,76.4,42.6,71.2,42.6,66z
			 M47.7,119.1c-2.1,0-4.2-0.1-6.2,0.1c-0.3,0-0.7,1.4-0.7,2.1c0,0.5,0.5,1.4,0.9,1.4c2,0.1,4,0.1,6,0.1
			C47.7,121.5,47.7,120.4,47.7,119.1z M45.3,96.7c-0.3-1.4-0.6-2.5-0.7-3.6c-0.1-1.9,0-3.8,0-5.7c0-2.5,0.7-3.3,3.1-3.9
			c1.8-0.4,3.7-0.8,5.5-1.3c0.5-0.2,0.9-0.8,1.4-1.2c-0.1-0.1-0.3-0.3-0.4-0.4c-3,0.7-6,1.3-9,2.1c-0.5,0.1-1.2,1-1.2,1.5
			c-0.1,4.1-0.1,8.2-0.1,12.4C44.5,96.6,45,96.6,45.3,96.7z M70.1,92.8c0-0.1-0.1-0.3-0.1-0.4c-5.1,0.8-10.1,1.6-15.1,2.3
			c-0.2,1.5-0.3,2.8-0.5,4.1c0.2,0,0.3,0.1,0.5,0.1c0-1.8,1-2.4,2.6-2.7C61.6,95.2,65.8,93.9,70.1,92.8z M76.2,130.3
			c0.1,0.2,0.1,0.5,0.2,0.7c3.3,0,6.7,0.1,10-0.1c1.1,0,2.2-0.7,3.4-1c-0.1-0.2-0.1-0.4-0.2-0.6c-0.9,0.1-1.8,0.2-2.7,0.2
			c-2.8-0.1-5.6-0.3-8.4-0.3C77.7,129.3,76.9,129.9,76.2,130.3z M125.5,129.7c-0.1-0.2-0.1-0.3-0.2-0.5c-1.1,0.1-2.2,0.3-3.3,0.3
			c-2.7-0.1-5.5-0.3-8.2-0.3c-0.7,0-1.4,0.5-2.1,0.8c0.1,0.3,0.1,0.6,0.2,0.9c3.7,0,7.4,0.1,11-0.1
			C123.8,130.8,124.6,130.1,125.5,129.7z M23.5,97.2c0,0.1,0,0.2,0,0.3c2.9-0.2,5.9-0.3,8.8-0.6c1.2-0.1,1.8,0.2,2.1,1.3
			c0.4,1.4,0.9,2.7,1.4,4.1c-0.1-1.9-0.7-3.6-1-5.3c-0.3-1.5-1.1-1.8-2.4-1.5C29.5,96,26.5,96.6,23.5,97.2z M67.8,95.1
			c3.2-0.2,6.5,1.7,9.5-0.7C74.1,93.8,70.9,93.3,67.8,95.1z M52.1,57.5c0.1,0.2,0.2,0.5,0.2,0.7c4-1.4,8.1-2.8,12.1-4.1
			c-0.1-0.3-0.2-0.6-0.3-1C60.1,54.6,56.1,56,52.1,57.5z M41.6,129.9c-1.2-0.1-2.3-0.3-3.5-0.3c-1.2-0.1-2.4-0.1-3.6,0
			c-1,0.1-2.4-0.6-3,1.3C35,130.5,38.4,131.5,41.6,129.9z M99.5,93.9c0.3-2-0.5-2.6-4.3-2.7C95.2,92.8,95.5,93,99.5,93.9z
			 M68.8,81.9c1,1.2,1.2,3.1,3.3,2.7C72.4,82.2,71.1,81,68.8,81.9z M46.9,68c0.2-1.6,0.8-3.2-0.4-4.6C46.2,65,45.6,66.6,46.9,68z
			 M109.9,131.8c0,0.1,0,0.3,0,0.4c3,0,6,0,9,0c0-0.1,0-0.3,0-0.4C115.8,131.8,112.8,131.8,109.9,131.8z M65.3,74.6
			c-0.6,3.3-0.6,3.3,1.1,4.6C65.9,77.6,67.1,75.9,65.3,74.6z M46.6,60.2c-0.1-0.2-0.2-0.4-0.2-0.6c-2.1,0.8-4.2,1.6-6.3,2.3
			c0.1,0.2,0.1,0.4,0.2,0.6C42.4,61.8,44.5,61,46.6,60.2z M48,62.7c1.2-0.5,2.1-0.9,3.2-1.3C49.3,60.1,48.2,60.6,48,62.7z M74.6,132
			c0,0.1,0,0.2,0,0.3c2.5,0,5,0,7.6,0c0-0.1,0-0.2,0-0.3C79.6,132,77.1,132,74.6,132z"/>
		<path d="M131.5,113c-0.4-0.4-0.8-0.8-1.1-1.3c-5.6-8.6-11.1-17.2-16.6-25.8c-0.4-0.6-0.4-1.8-0.1-2.5c0.5-1.3,1.4-2.6,2.1-3.8
			c0.3,0.1,0.5,0.2,0.8,0.4c-0.4,1-0.8,2.1-1.3,3c-0.7,1.2-0.6,2.1,0.2,3.2c5.3,8.1,10.5,16.3,15.8,24.5c0.4,0.6,0.6,1.3,1,2
			C131.8,112.7,131.7,112.8,131.5,113z"/>
		<path d="M159.1,89.2c0.1,0.5,0.2,0.8,0.1,0.9c-1.3,2.4-0.1,4.3,1.1,6.3c3.6,6.2,7,12.4,10.5,18.6c0.4,0.6,0.5,1.4,0.8,2.1
			c-0.2,0.1-0.4,0.2-0.6,0.3c-0.4-0.5-0.8-0.9-1.1-1.4c-4.1-7.2-8.2-14.3-12.3-21.5C156.8,93,157.4,90.6,159.1,89.2z"/>
		<path class="st10" d="M88.1,99.2c0.4,0,0.8-0.1,1.5-0.2c-3.4-3.2-7.5-2.4-11.6-3.2c1.1-0.6,1.9-1,2.6-1.6c0.4-0.3,0.7-0.9,0.7-1.3
			c-0.1-0.4-0.7-1-1.1-1c-3.3-0.5-6.6-0.9-10.1-1.4c0-1.5,0-3.1,0-4.8c0.5,0.1,0.9,0.2,1.4,0.3c8.8,3,17.6,6,26.4,8.9
			c1.2,0.4,1.6,0.8,1.6,2.1c-0.1,2.8,0,5.7,0,8.6c-2.9-0.1-5.5-0.3-6.8-3.7c-0.2,0.2-0.3,0.5-0.5,0.7c0.3,0.8,0.6,1.5,1,2.4
			c-1.7,1.1-3.5,0.6-5.3,0.3c-2.7-0.5-5.7-0.1-7.7,1.5c2.5-0.2,4.7-0.5,6.9-0.5c2.2,0,4.5,0.3,7.2,0.5c0.4,1.6,0.9,3.7,1.4,5.8
			c-2.7,1.6-5.2,0.4-7.6,0.3c-1.6-0.1-3.2,0.2-4.8,0.4c0,0.3,0,0.6,0.1,0.9c4.1,0,8.1,0,12.6,0c-0.3,2.2-0.2,4.6-1.2,6.5
			c-0.5,1-2.9,1.7-4.2,1.5c-2.9-0.6-5.6-1.9-9,0.2c1.1-4.9,1.8-9.1,0.2-13.3c-0.2,0-0.4,0-0.6,0c0,0.5-0.1,1.1-0.1,1.6
			c0.9,6.3-0.4,12-4.1,17.2c-4.3,6.2-11.9,5.4-15.9,1c-6-6.6-6.3-14.2-3.7-22.1c0.7-2.2,1.9-4.4,3.4-6.3c2.9-3.7,9.2-5.3,13.8-2
			c0.4,0.3,0.9,0.6,1.6,0.9c0.1-0.7,0.2-1.1,0.3-1.8c2.4,0.2,4.9,0.4,7.3,0.6C85.2,98.3,86.9,97.9,88.1,99.2
			c-0.7,0.2-1.5,0.5-2.3,0.4c-1.6,0-3.1-0.4-4.7-0.4c-1,0-2,0.3-2.9,0.5c0,0.2,0.1,0.3,0.1,0.5c2.3,0.2,4.6,0.3,6.9,0.5
			c0.8,0,1.7,0.1,2.4-0.1C88.3,100.4,89,100,88.1,99.2z M74.8,108.8c-0.3,0-0.6,0.1-0.9,0.1c0,0.4,0,0.8,0,1.2
			c0.1,2.1,0.5,4.2,0.3,6.2c-0.3,3.6-1.8,6.8-5.6,8.1c-1.8,0.6-3.7,0.6-5.4-0.8c6.4-0.4,8.7-2,9.6-7.4c0.6-3.6,0.3-7.2-2.3-10.2
			c-2.1-2.3-4.6-2.9-7.5-1.6c0-0.2,0-0.4,0-0.7c1.9-0.4,3.7-0.9,5.7-1.3c-2.2-1.2-4.9-0.7-6.9,1.1c-5.2,4.5-5.6,15.1-0.8,20
			c3.2,3.2,8,3.3,11.3,0.2c2.7-2.6,3.5-5.9,3.5-9.5C75.6,112.6,75.1,110.7,74.8,108.8z"/>
		<path class="st10" d="M85.6,64.3C78.8,61.6,72,59,65.2,56.3c0.1-0.3,0.2-0.6,0.3-0.9c6.8,2.5,13.7,5.1,20.5,7.6
			c0.1-0.3,0.2-0.6,0.4-1c-6.9-2.7-13.9-5.4-20.8-8.1c0-0.2,0-0.3,0-0.5c0.5,0,1.1-0.2,1.6,0c6.2,2.4,12.5,4.9,18.7,7.4
			c0.4,0.2,0.8,0.9,0.8,1.4c-0.2,6.1-0.4,12.2-0.6,18.3c0,0.7,0,1.5,0,2.3c-4.5-0.6-8.8-1.1-13-1.7c-1.6-0.2-3.2-0.8-4.8-1.2
			c-0.2,0.2-0.4,0.3-0.6,0.5c0-1.3-0.1-2.7,0-4c0.1-1.5-0.3-2.7-1.8-3.4c-0.4-0.2-0.8-0.8-0.8-1.3c-0.1-4.6,0-9.2,0-14.2
			c6.9,2.6,13.5,5,20.2,7.5C85.3,64.9,85.5,64.6,85.6,64.3z"/>
		<path class="st10" d="M31,105.5c0.7-3,2.5-1,4.1-1.5c-1.1,0.8-1.8,1.3-2.4,1.8c0.1,0.1,0.1,0.3,0.2,0.4c0.9,0,2.4-0.4,2.7,0.1
			c0.8,1.1,1.2,2.6,1.7,4c-1,0.3-1.8,0.6-2.7,0.8c0,0.2,0,0.3,0.1,0.5c2.2,0,4.5,0,6.8,0c0,1.6,0,2.9,0,4.3
			c-1.6,0.2-3.2,0.3-4.7,0.5c0,0.2,0,0.4,0,0.6c1.4,0,2.8,0,4.2,0c-1.5,0.7-1.9,1.7-1.9,3.3c0.1,3.4,0,3.4-3.7,3.5
			c0.7-3.5,1.4-7.1,0.1-10.6c-0.2,0-0.4,0-0.6,0c0,0.6-0.2,1.2-0.1,1.8c0.7,4.9-0.5,9.3-3.3,13.3c-3.4,4.8-9,5.1-13,0.7
			c-4.6-5.2-4.8-11.2-2.8-17.4c0.6-1.8,1.5-3.5,2.6-5c2.8-3.5,7.3-4.2,11.2-1.9C30,104.9,30.4,105.1,31,105.5z M25.7,108.3
			c0-0.2,0-0.3,0-0.5c-0.6-0.2-1.3-0.6-1.8-0.4c-1.5,0.5-3.2,0.9-4.4,2c-3.9,3.7-4.2,11.4-0.7,15.5c2.9,3.4,7.9,3.3,10.5-0.3
			c2.4-3.3,2.5-6.9,1.5-10.7c-0.1-0.3-0.5-0.6-0.7-0.8c0,2.1,0.1,4,0,5.9c-0.3,4.8-3.5,7.6-7.5,6.7c5.5-1.9,7.3-4.6,6.5-10.3
			c-0.2-1.6-1-3.4-2.1-4.5c-1-1.1-2.8-1.6-3.9-2.2C23.7,108.7,24.7,108.5,25.7,108.3z"/>
		<path class="st10" d="M52.9,97.2c-0.5,4.5-1.1,8.9-1.6,13.2c-0.1,0.5-0.1,1-0.2,1.5c-0.3,3.1-0.8,3,2.8,3.4
			c0.4,2.5,0.8,5.1,1.3,7.9c-1.8,0-3.6,0-5.4,0c-0.3,0-0.7-0.6-0.8-1c-0.1-0.9,0-1.9,0-3c1.3,0,2.5,0,3.6,0c0-0.2,0-0.3,0-0.5
			c-3-1.3-6.3-0.9-9.6-1.1c-0.1-2.5-0.2-4.8-0.3-7.2c-0.1-3.4-0.2-6.8-0.1-10.2c0-0.6,0.6-1.7,1-1.8c2.5-0.6,5.1-0.9,7.6-1.3
			C51.7,96.9,52.2,97.1,52.9,97.2z"/>
		<path class="st10" d="M54.4,79.3c-3,0.6-5.9,1.1-8.8,1.9c-1.7,0.5-2-0.2-2-1.6c0-4.1,0-8.2,0-12.3c0-3.4,0-3.4-3.1-2.5
			c-0.1-1.3,0.5-1.6,3.6-2.2c0,1.5-0.1,3,0.1,4.5c0.1,0.9,0.8,1.8,1.2,2.7c0.2,0.5,0.4,1,0.4,1.5c0,1.9-0.1,3.8-0.1,5.7
			c0,1.8,0.7,2.3,2.5,1.9c5.5-1.2,5.6-1.3,5.6-6.8c0-2.7,0-5.3,0-8c0-0.7,0.2-1.4,0.3-2.4c-0.2-0.2-0.6-0.7-1-1.1
			c3-3.1,7-3.5,10.7-4.8c0.1,0.2,0.2,0.4,0.2,0.6C62,57.1,60,58,57.8,58.7c-1.6,0.5-2.2,1.4-2.1,3c0.2,3,0.1,5.9,0.2,8.9
			c0,0.6,0.1,1.2,0.1,1.8c0.2,0,0.4,0.1,0.6,0.1c0.1-0.6,0.4-1.1,0.4-1.7c0-3,0.1-5.9,0-8.9c0-1.1,0.3-1.8,1.4-2.1
			c1.8-0.5,3.5-1.2,5.4-1.9c0,4.9,0,9.5,0,13.7c-2.5,0.6-4.9,0.9-7.1,1.6C53.6,74.2,54.8,77.1,54.4,79.3z"/>
		<path class="st10" d="M34.6,102.7c-5.9,0-11.8-2.5-16.9,2.7c0.4-3.9,0.6-7.3,1.1-10.7c0.1-0.9,1-2,1.9-2.3c2-0.8,4.2-1.1,6.2-1.6
			c0.2,0.3,0.3,0.4,0.4,0.5c0.6,3.5,0.6,3.5-2.9,4.3c-0.6,0.1-1.4,0.1-1.8,0.4c-0.6,0.4-0.9,1.1-1.3,1.7c0.5,0.4,1.1,1.1,1.6,1.1
			c2.7-0.1,5.4-0.1,8.1-0.6c1.8-0.3,2.6,0.2,2.9,1.9C33.9,100.9,34.3,101.7,34.6,102.7z"/>
		<path class="st10" d="M112.2,127.5c-2,4.2-7.1,6.1-11.8,4.2c-1.9-0.8-3.5-2.2-5.2-3.3c-1.6-1-1.1-2.4-0.2-3.3
			c0.4-0.4,1.9-0.3,2.6,0.1c2.7,1.4,5.3,1.2,8.1,0.2c0.6-0.2,1.4-0.2,2,0C109.1,126,110.6,126.8,112.2,127.5z"/>
		<path class="st10" d="M45.9,95.2c0-3.2-0.1-6.1,0.1-9.1c0-0.5,0.7-1.1,1.2-1.3c2.4-0.7,4.7-1.2,7.3-1.9c0.1,3.3,0.4,6.3,0.3,9.4
			c0,0.6-1.3,1.4-2.1,1.6C50.6,94.5,48.4,94.8,45.9,95.2z M49.8,87.7c-0.2-0.1-0.8-0.9-1.1-0.8c-0.9,0.3-1.7,1-2.5,1.6
			c0.5,0.5,1,1.5,1.5,1.5C48.7,90.1,49.9,89.9,49.8,87.7z"/>
		<path class="st10" d="M95.2,106.1c1.6,0.3,2.8,0.5,4.2,0.8c0.5,5.6,1.1,11.1,5.2,15.9c-3.2,0-5.9,0-8.8,0
			C97.4,117.4,97.4,111.9,95.2,106.1z"/>
		<path class="st10" d="M107.4,84.5c-3.3,2.1-6.2,4.9-10.7,4.7c-2.7-0.1-5.5,0.7-8.2,0.8c-1.2,0-2.5-0.5-3.5-1.1
			c-0.8-0.5-0.1-2.1,0.9-2.3c1.4-0.2,2.9-0.3,4.3-0.4c5.3-0.6,10.7-1.1,16-1.7C106.7,84.4,107,84.5,107.4,84.5z"/>
		<path class="st10" d="M93.9,122.6c-0.7,4.2-3,6-6.7,5.7c-1.4-0.1-2.9-0.4-4.3-0.5c-1.4-0.1-2.8,0-4.2,0c0.7-1.4,1.1-3.5,2.3-4.3
			c1.5-1,3.7-1.4,5.5-1.2C88.9,122.7,91.2,124.1,93.9,122.6z"/>
		<path class="st10" d="M47.1,77.8c0-2.5,0-4.8,0-7.2c0-0.2,0.1-0.6,0.3-0.6c1.6-0.8,1.2-2.2,1.2-3.5c0-3.3,0.2-3.6,4-4
			c0,4.2,0.1,8.4-0.1,12.6c0,0.6-0.7,1.4-1.3,1.6C50,77.3,48.7,77.5,47.1,77.8z"/>
		<path class="st10" d="M11.4,107.7c0.6-4.1,1.1-8.1,1.7-12c0.3-1.7,1.7-2.4,4.6-2.5c-0.4,4.4-0.8,8.8-1.3,13.3
			c-0.1,0.5-0.7,1.2-1.2,1.2C14.1,107.8,12.9,107.7,11.4,107.7z"/>
		<path class="st10" d="M34.6,81c0,3,0.1,5.9,0.1,8.9c0,1.1,0,2.1,0,3.3c-1.9,0.4-3.9,0.8-5.9,1.3c0-3.8,0-7.4,0-10.9
			c1.8,0,3.5,0,5.1,0c0-0.2,0.1-0.4,0.1-0.6c-1.2-0.2-2.4-0.3-3.6-0.5c0-0.2-0.1-0.4-0.1-0.5C31.7,81.7,33.2,81.4,34.6,81
			C34.7,81.1,34.6,81,34.6,81z M34,89.1c-1.4-1.2-3.7-0.9-4.8,0.5C31,89.4,32.5,89.2,34,89.1z"/>
		<path class="st10" d="M41.2,108c-1.4,0.4-2.1,0-2.5-1.3c-1-3.9-2.2-7.8-3.4-12.1c2.2,0.3,4.2,0.4,6.2,0.8c1.3,0.3,1.7,0.9,0.6,2.1
			c-0.5,0.6-0.8,1.5-0.9,2.3C41.1,102.5,41.2,105.2,41.2,108z"/>
		<path class="st10" d="M60.1,92c0-4.1,0-8.1,0.1-12.2c0-0.4,1-1,1.6-1c1.2,0.1,2.4,0.5,4.2,0.9c-2.6,1.3-2.2,3.4-2.2,5.3
			c0,1.4,0,2.8,0,4.2C63.7,92.1,63.4,92.3,60.1,92z"/>
		<path class="st10" d="M6.3,115.1c0-1.4-0.1-2.8,0.1-4c0.1-0.5,0.8-1.2,1.3-1.3c2.5-0.4,5-0.7,7.6-1.1c-0.6,1.9-1,3.6-1.6,5.3
			c-0.1,0.4-0.8,0.7-1.3,0.8C10.5,114.9,8.5,115,6.3,115.1z"/>
		<path class="st10" d="M43,94.4c-1.3-0.2-2.5-0.5-3.8-0.7c0-2.3,0-4.5,0-6.7c0-3.2,0.4-3.5,3.8-3.5C43,87,43,90.7,43,94.4z"/>
		<path class="st10" d="M87.8,84.1c-0.1,0.3-0.3,0.8-0.4,0.8c-1.7,0.2-3.2,0.5-4.2,2.1c-0.3,0.5-1.7,0.7-2.5,0.5
			c-1.7-0.3-3.2-1.1-4.9-1.5c-1.8-0.4-2.8-1.3-2.4-3.5c2.1,0.3,4.3,0.6,6.5,0.9C82.6,83.7,85.3,83.9,87.8,84.1
			C87.9,84.1,87.8,84.1,87.8,84.1z"/>
		<path class="st10" d="M69,91c-1.5,0.2-2.6,0.3-4,0.5c0-3.1,0-6,0-8.9c0-0.5,0.6-1.1,1-1.4c0.2-0.1,0.9,0.5,1.3,0.8
			c1.2,0.9,1.3,2.2,1.3,3.5C68.7,87.2,68.9,89,69,91z"/>
		<path class="st10" d="M63.9,95.8c-6.3,3.4-8.3,9.4-9.5,15.8c-0.2,0.8-0.7,1.6-1,2.4c0-0.8-0.2-1.7-0.1-2.5c0.8-4,1.8-7.9,2.6-11.8
			c0.3-1.3,0.8-2.1,2.2-2.4C60.1,96.9,62,96.3,63.9,95.8z"/>
		<path class="st10" d="M51.3,124.3c4.4,1.4,7.3,4.3,10.2,7.3C57.5,132.9,52.4,129.5,51.3,124.3z"/>
		<path class="st10" d="M64.2,77.2c-2.1,0.5-3.8,0.9-5.4,1.2c-0.7,0.1-1.5,0-2.8,0c0.2-1.2,0.1-2.9,0.8-3.4c1.8-1.2,4.1-2.4,6.2-1.1
			C63.9,74.5,63.9,76.3,64.2,77.2z"/>
		<path class="st10" d="M58.6,81.5c0,3.9,0,7.3,0,10.9c-0.7,0.1-1.5,0.3-2.4,0.5c0-3.4-0.1-6.6,0.1-9.8
			C56.3,82.6,57.6,82.1,58.6,81.5z"/>
		<path class="st10" d="M42.6,66c0,5.2,0,10.4,0,15.9c-0.4,0.1-1,0.3-1.7,0.5c0-5.2,0-10.2,0-15.2c0-0.5,0.6-1,0.9-1.4
			C42,65.7,42.3,65.8,42.6,66z"/>
		<path class="st10" d="M47.7,119.1c0,1.3,0,2.5,0,3.7c-2.1,0-4.1,0.1-6-0.1c-0.4,0-0.9-0.9-0.9-1.4c0-0.8,0.4-2.1,0.7-2.1
			C43.5,119,45.6,119.1,47.7,119.1z"/>
		<path class="st10" d="M45.3,96.7c-0.3,0-0.8-0.1-1.2-0.1c0-4.3,0-8.3,0.1-12.4c0-0.5,0.7-1.4,1.2-1.5c3-0.8,6-1.4,9-2.1
			c0.1,0.1,0.3,0.3,0.4,0.4c-0.5,0.4-0.8,1.1-1.4,1.2c-1.8,0.5-3.7,0.9-5.5,1.3c-2.5,0.6-3.1,1.4-3.1,3.9c0,1.9-0.1,3.8,0,5.7
			C44.7,94.2,45.1,95.3,45.3,96.7z"/>
		<path class="st10" d="M70.1,92.8c-4.2,1.1-8.4,2.4-12.7,3.4c-1.5,0.4-2.6,0.9-2.6,2.7c-0.2,0-0.3-0.1-0.5-0.1
			c0.2-1.3,0.3-2.5,0.5-4.1c5-0.8,10.1-1.6,15.1-2.3C70,92.5,70,92.7,70.1,92.8z"/>
		<path class="st10" d="M76.2,130.3c0.7-0.4,1.5-1,2.2-1c2.8,0,5.6,0.2,8.4,0.3c0.9,0,1.8-0.1,2.7-0.2c0.1,0.2,0.1,0.4,0.2,0.6
			c-1.1,0.4-2.2,1-3.4,1c-3.3,0.1-6.6,0.1-10,0.1C76.4,130.8,76.3,130.5,76.2,130.3z"/>
		<path class="st10" d="M125.5,129.7c-0.9,0.4-1.7,1-2.6,1.1c-3.7,0.1-7.4,0.1-11,0.1c-0.1-0.3-0.1-0.6-0.2-0.9
			c0.7-0.3,1.4-0.8,2.1-0.8c2.7,0,5.5,0.2,8.2,0.3c1.1,0,2.2-0.2,3.3-0.3C125.4,129.4,125.4,129.6,125.5,129.7z"/>
		<path class="st10" d="M23.5,97.2c3-0.6,5.9-1.2,8.9-1.8c1.3-0.3,2.1,0,2.4,1.5c0.3,1.8,1,3.5,1,5.3c-0.5-1.4-1-2.7-1.4-4.1
			c-0.3-1.1-1-1.4-2.1-1.3c-2.9,0.3-5.9,0.4-8.8,0.6C23.5,97.4,23.5,97.3,23.5,97.2z"/>
		<path class="st10" d="M67.8,95.1c3.1-1.8,6.3-1.3,9.5-0.7C74.3,96.8,71,94.9,67.8,95.1z"/>
		<path class="st10" d="M52.1,57.5c4-1.5,8-2.9,12-4.4c0.1,0.3,0.2,0.6,0.3,1c-4,1.4-8.1,2.8-12.1,4.1C52.3,58,52.2,57.7,52.1,57.5z
			"/>
		<path class="st10" d="M41.6,129.9c-3.2,1.6-6.6,0.6-10.1,1c0.6-1.9,2-1.2,3-1.3c1.2-0.1,2.4-0.1,3.6,0
			C39.3,129.7,40.4,129.8,41.6,129.9z"/>
		<path class="st10" d="M99.5,93.9c-4-1-4.3-1.1-4.3-2.7C99,91.4,99.8,91.9,99.5,93.9z"/>
		<path class="st10" d="M68.8,81.9c2.3-0.9,3.6,0.3,3.3,2.7C70,85.1,69.8,83.1,68.8,81.9z"/>
		<path class="st10" d="M46.9,68c-1.3-1.4-0.7-3-0.4-4.6C47.7,64.8,47.1,66.4,46.9,68z"/>
		<path class="st10" d="M109.9,131.8c3,0,6,0,9,0c0,0.1,0,0.3,0,0.4c-3,0-6,0-9,0C109.9,132.1,109.9,132,109.9,131.8z"/>
		<path class="st10" d="M65.3,74.6c1.8,1.3,0.7,3,1.1,4.6C64.7,77.8,64.7,77.8,65.3,74.6z"/>
		<path class="st10" d="M46.6,60.2c-2.1,0.8-4.2,1.5-6.3,2.3c-0.1-0.2-0.1-0.4-0.2-0.6c2.1-0.8,4.2-1.6,6.3-2.3
			C46.4,59.8,46.5,60,46.6,60.2z"/>
		<path class="st10" d="M48,62.7c0.2-2.1,1.4-2.6,3.2-1.3C50.1,61.8,49.1,62.2,48,62.7z"/>
		<path class="st10" d="M74.6,132c2.5,0,5,0,7.6,0c0,0.1,0,0.2,0,0.3c-2.5,0-5,0-7.6,0C74.6,132.2,74.6,132.1,74.6,132z"/>
		<path d="M74.8,108.8c0.3,1.9,0.8,3.7,0.8,5.6c0.1,3.6-0.7,6.9-3.5,9.5c-3.3,3.1-8.1,3-11.3-0.2c-4.8-4.9-4.4-15.5,0.8-20
			c2.1-1.8,4.8-2.3,6.9-1.1c-2,0.5-3.9,0.9-5.7,1.3c0,0.2,0,0.4,0,0.7c2.9-1.3,5.5-0.7,7.5,1.6c2.6,2.9,3,6.5,2.3,10.2
			c-0.9,5.3-3.2,7-9.6,7.4c1.8,1.4,3.6,1.4,5.4,0.8c3.8-1.3,5.2-4.4,5.6-8.1c0.2-2-0.2-4.1-0.3-6.2c0-0.4,0-0.8,0-1.2
			C74.2,108.9,74.5,108.9,74.8,108.8z M71.7,113.4c0-0.5,0.1-1.6-0.2-2.4c-0.7-1.5-1.6-2.8-2.5-4.2c-1.2,1.3-2.8,2.3-3.4,3.8
			c-1.5,3.2-1,6.7,0.2,10c0.7,1.9,1.3,2.1,2.9,0.9C71.1,119.5,71.7,116.8,71.7,113.4z M65.2,122.9c-2.1-6.6-3.2-12.4,2.5-17.1
			c-2-2.1-4.1,1-6.2-0.3c-2.5,3.5-3.1,7.5-2.6,11.7c0,0.3,0.2,0.8,0.3,0.8c1.7,0.2,1.7,2,2.7,2.8C62.9,121.5,63.8,122.1,65.2,122.9z
			"/>
		<path d="M88.1,99.2c0.9,0.8,0.2,1.3-0.4,1.4c-0.8,0.2-1.6,0.1-2.4,0.1c-2.3-0.1-4.6-0.3-6.9-0.5c0-0.2-0.1-0.3-0.1-0.5
			c1-0.2,2-0.5,2.9-0.5c1.6,0,3.1,0.3,4.7,0.4C86.6,99.6,87.3,99.4,88.1,99.2C88.1,99.2,88.1,99.2,88.1,99.2z"/>
		<path d="M25.7,108.3c-1,0.2-2,0.4-2.5,0.4c1.2,0.6,2.9,1.1,3.9,2.2c1.1,1.2,1.9,2.9,2.1,4.5c0.8,5.7-1,8.4-6.5,10.3
			c4,0.9,7.2-1.9,7.5-6.7c0.1-1.9,0-3.9,0-5.9c0.2,0.3,0.6,0.5,0.7,0.8c1,3.8,0.9,7.4-1.5,10.7c-2.6,3.6-7.6,3.7-10.5,0.3
			c-3.5-4.1-3.3-11.8,0.7-15.5c1.1-1,2.8-1.4,4.4-2c0.5-0.2,1.2,0.3,1.8,0.4C25.7,108,25.7,108.1,25.7,108.3z M24.2,123.9
			c2.4-0.6,3.3-2.5,3.6-4.6c0.4-2.7,0.6-5.5-1.8-7.7C22.4,113.6,21.5,119.7,24.2,123.9z M22.2,123.9c-0.3-2.5-0.7-4.8-0.7-7
			c0-2.5,1.3-4.5,3-6.5c-1.8,0.1-3.9,0-4.9,1c-3,3-2,9.7,1.5,12.1C21.5,123.7,21.9,123.8,22.2,123.9z"/>
		<path d="M49.8,87.7c0.1,2.2-1.1,2.4-2.1,2.3c-0.5,0-1-1-1.5-1.5c0.8-0.6,1.6-1.2,2.5-1.6C49,86.8,49.6,87.6,49.8,87.7z"/>
		<path d="M34,89.1c-1.5,0.2-3,0.3-4.8,0.5C30.3,88.2,32.6,87.9,34,89.1z"/>
		<path class="st10" d="M71.7,113.4c0,3.4-0.6,6.1-3.1,8c-1.6,1.2-2.2,1-2.9-0.9c-1.2-3.3-1.6-6.7-0.2-10c0.7-1.5,2.3-2.5,3.4-3.8
			c0.8,1.4,1.8,2.7,2.5,4.2C71.8,111.9,71.7,112.9,71.7,113.4z"/>
		<path class="st10" d="M65.2,122.9c-1.4-0.9-2.3-1.4-3.2-2.1c-1-0.8-1-2.6-2.7-2.8c-0.1,0-0.3-0.5-0.3-0.8c-0.5-4.2,0-8.2,2.6-11.7
			c2,1.3,4.2-1.8,6.2,0.3C62,110.5,63.1,116.3,65.2,122.9z"/>
		<path class="st10" d="M24.2,123.9c-2.7-4.1-1.8-10.3,1.9-12.2c2.3,2.1,2.1,5,1.8,7.7C27.5,121.4,26.6,123.3,24.2,123.9z"/>
		<path class="st10" d="M22.2,123.9c-0.3-0.1-0.7-0.2-1.1-0.5c-3.5-2.4-4.5-9.1-1.5-12.1c1-1,3.1-0.9,4.9-1c-1.7,2-3,4-3,6.5
			C21.5,119.2,21.9,121.5,22.2,123.9z"/>
	</g>
</g>
<g class="st74">
	<defs>
		
			<rect id="SVGID_00000157997698052347350350000008559875527509937553_" x="185.2" y="-14.7" class="st74" width="224.3" height="217"/>
	</defs>
	<clipPath id="SVGID_00000025438605811464012070000015317372687205454724_">
		<use xlink:href="#SVGID_00000157997698052347350350000008559875527509937553_"  style="overflow:visible;"/>
	</clipPath>
	<g style="clip-path:url(#SVGID_00000025438605811464012070000015317372687205454724_);">
		<defs>
			<rect id="SVGID_00000077298041625327078740000010304781747440258946_" x="185.2" y="-14.7" width="224.3" height="217"/>
		</defs>
		<clipPath id="SVGID_00000014620765846749812770000003451795703182097806_">
			<use xlink:href="#SVGID_00000077298041625327078740000010304781747440258946_"  style="overflow:visible;"/>
		</clipPath>
		<g style="clip-path:url(#SVGID_00000014620765846749812770000003451795703182097806_);">
			
				<image style="overflow:visible;" width="444" height="450" xlink:href="98FBF038001D8C12.png"  transform="matrix(0.5053 0 0 0.4823 185.165 -14.679)">
			</image>
		</g>
	</g>
</g>
</svg>
