<svg id="Calque_1" data-name="Calque 1" xmlns="http://www.w3.org/2000/svg" xmlns:xlink="http://www.w3.org/1999/xlink" viewBox="0 0 190 190"><defs><style>.cls-1{fill:none;}.cls-2{opacity:0.75;}.cls-3{clip-path:url(#clip-path);}</style><clipPath id="clip-path"><rect class="cls-1" x="185.2" y="-14.7" width="224.3" height="217"/></clipPath></defs><path d="M87.8,84.1c1.6-1.1,3.1-2.5,5-.5a.37.37,0,0,0,.3.1c3.1-.1,6.1-.1,9.2-.2a21.05,21.05,0,0,1,2.5-.2q6.6.75,9.3-5.4a2,2,0,0,1,2-.7c13,3.1,26,6.2,39,9.4a5.36,5.36,0,0,1,1.1.5.75.75,0,0,1-.1.5,14.77,14.77,0,0,1-2.1-.1c-6.7-1.5-13.4-3.1-20.1-4.6-5.6-1.3-11.2-2.7-16.8-3.9-.7-.2-2,0-2.2.4-2.2,4.9-6.6,7.1-11,9.4a4.35,4.35,0,0,0-2.7,4.1c-.2,7-.8,14,.6,21,1.8,8.5,7.6,13.1,16.1,12.5,2.4-.2,4.8-1.4,7.1-2.4,4.6-2,9-4.3,13.5-6.4a9.46,9.46,0,0,1,1.8-.5c.1.3.2.5.3.8-5.8,2.8-11.5,5.6-17.7,8.7,1.5.1,2.6.2,3.8.3l26.4.9c1.3,0,2.7.1,4,.2a28.47,28.47,0,0,0,15.5-2.5c2.8-1.3,5.7-2.6,8.5-3.9-.1-.2-.1-.4-.2-.6a21.47,21.47,0,0,0-4.4.9c-2.9,1.2-5.7,1.8-9,.5.7-.6,1.3-1.1,1.8-1.6v-.4a13.2,13.2,0,0,0-2.8.2,6.19,6.19,0,0,0-1.9.7,11.58,11.58,0,0,1-11.4,0c1-.6,1.8-1.2,2.7-1.7a.6.6,0,0,0-.1-.4,7.12,7.12,0,0,0-2.1.4c-1.3.6-2.6,1.3-3.9,2a9,9,0,0,1-8.2-.9c1-.7,1.9-1.4,2.9-2.1-1.1-.3-2.1-.5-3.2-.8,0-.2.1-.4.1-.6H149a1.42,1.42,0,0,1,.2.6c-1.5.9-2.9,1.7-4.4,2.6v.5a30.06,30.06,0,0,0,4.2-.5,16.58,16.58,0,0,0,3.5-1.8c2.8-1.7,5.4-.1,8.1,0,.1.3.1.5.2.8-1.4.6-2.7,1.2-4.1,1.8,0,.2.1.4.1.6a35.81,35.81,0,0,0,4.9-.8c3.1-1.1,6-2.7,9.5-1.6.7.2,1.4.4,2.7.7-1.1.8-1.7,1.2-2.3,1.7,0,.1.1.3.1.4a16.84,16.84,0,0,0,2.4-.6,13,13,0,0,1,8.4-1.3,25,25,0,0,1,2.6.7,1.43,1.43,0,0,0-.2.7c-5.8,2.5-11.5,5.5-17.6,7.5-3.4,1.1-7.4.9-11.1.8-8.9-.2-17.7-.6-26.6-.9a2.35,2.35,0,0,0-1.9.7,11.31,11.31,0,0,1-8.7,4.7c-5.4.3-10.9.2-16.3,0-3.9-.2-6.8-2.4-9.4-5.4-.5.6-1,1.1-1.5,1.6A13.67,13.67,0,0,1,81.4,135c-4.8,0-9.5-.1-14.3-.3-2.5-.1-5-.2-7.6-.5a10,10,0,0,1-8.8-6.5c-.8-2-2-2.6-3.7-2.1a18,18,0,0,1-8,.1,5.8,5.8,0,0,0-3.7.4c-1,.6-1.5,2-2.1,3.3,3.9-.8,8,1.8,12-.8-.3.5-.5,1-.8,1.5a10.89,10.89,0,0,1-8.7,4.3H27c-7.5,0-13.1-5.2-13.5-12.7-.1-1.9-.4-2.9-2.6-3a24.75,24.75,0,0,1-5.2-1.3,1.53,1.53,0,0,1-.7-1,4.05,4.05,0,0,1,0-1.1c.1-4.9-1-5.2,5.2-6.3.5-3.9,1.1-7.8,1.5-11.8a4.2,4.2,0,0,1,3.8-4,40.5,40.5,0,0,0,5-1.2,2.29,2.29,0,0,0,1.2-1.5,12.9,12.9,0,0,0,0-3.4c0-.5-.3-1.2-.7-1.3-1.1-.5-1.8-1.3-1.3-2.3A4.37,4.37,0,0,1,22,81.9c.7-.2,1.6.3,2.4.5,0,.2-.1.4-.1.6-1.2.2-2.3.3-3.5.5-.1.2-.1.5-.2.7,2.6.1,2.2,1.8,2.2,3.4v3.7c1.5.3,2.2,0,2.1-1.6-.1-2,0-4.1,0-6.4,1.7,1.1,1.3,2.4,1.3,3.7s0,2.6,0,3.9c.2,0,.4.1.6.1.1-.3.4-.7.4-1a17.65,17.65,0,0,0,0-2.3c0-4.5,1.3-6,5.7-6.6.9-.1,1.8,0,1.7,1.3l-4.4.9a4.33,4.33,0,0,0,.1.5c1.2.2,2.4.3,3.6.5,0,.2-.1.4-.1.6H28.7V95.8c2-.4,4-.9,5.9-1.3V91.2c0-3-.1-5.9-.1-8.9,1-.5,1.3.1,1.5.9a22.89,22.89,0,0,0,1.1,2.3,18.6,18.6,0,0,1,2.4-1.7c-.1-1.1-.2-2.1-.3-3.2-.3-5.5.6-11.1-.9-16.6a2,2,0,0,1,1.5-2.5c1.7-.6,3.5-1.2,5.1-1.9a11.33,11.33,0,0,0,2-1.3c.3-.2.6-.6.9-.6,4.5,0,8.2-2.3,12.2-3.8a11.73,11.73,0,0,1,9.7.2c5.2,2.3,10.5,4.4,15.7,6.6,1.9.8,2.4,1.9,2,4a18.64,18.64,0,0,0-.3,2.6c1.2.2,2.3.4,3.4.6,1.5.3,2.4,1,2.2,2.7a1.61,1.61,0,0,0,.6,1.3c1.2.8,2.1,3.7,1.2,4.9a2.27,2.27,0,0,1-1.8.7,2,2,0,0,1-1.2-1.3,7.57,7.57,0,0,1,0-3c.3-1.7-.2-2.4-1.9-2.3H86.8v7.6c0,1.5-.1,3,0,4.5.4-.4.8.4,1,1.1L80,83.5c-2.2-.2-4.4-.6-6.5-.9-.4,2.2.6,3.1,2.4,3.5s3.2,1.2,4.9,1.5c.8.2,2.2,0,2.5-.5,1-1.7,2.5-2,4.2-2.1A4.65,4.65,0,0,0,87.8,84.1Zm.3,15.1h0c-1.2-1.3-2.8-.9-4.4-1-2.4-.1-4.9-.4-7.3-.6-.1.7-.2,1.2-.3,1.8-.7-.4-1.2-.6-1.6-.9a10.37,10.37,0,0,0-13.8,2,18.32,18.32,0,0,0-3.4,6.3c-2.6,8-2.3,15.5,3.7,22.1a10,10,0,0,0,15.9-1A23,23,0,0,0,81,110.7a4.45,4.45,0,0,1,.1-1.6h.6c1.6,4.2.9,8.4-.2,13.3,3.3-2.1,6.1-.8,9-.2,1.3.3,3.8-.5,4.2-1.5.9-1.9.8-4.3,1.2-6.5H83.3a2.77,2.77,0,0,0-.1-.9c1.6-.1,3.2-.4,4.8-.4,2.5.1,4.9,1.3,7.6-.3-.5-2.1-1-4.1-1.4-5.8-2.7-.2-4.9-.5-7.2-.5s-4.3.3-6.9.5a10.17,10.17,0,0,1,7.7-1.5c1.8.3,3.5.8,5.3-.3-.3-.9-.7-1.6-1-2.4.2-.2.3-.5.5-.7,1.3,3.4,3.9,3.6,6.8,3.7,0-2.9-.1-5.8,0-8.6.1-1.3-.4-1.7-1.6-2.1C89.1,92,80.3,89,71.5,86a5.77,5.77,0,0,0-1.4-.3v4.8c3.5.5,6.8.9,10.1,1.4a1.82,1.82,0,0,1,1.1,1c.1.4-.3,1-.7,1.3A24.75,24.75,0,0,1,78,95.8c4.1.8,8.2,0,11.6,3.2A13.89,13.89,0,0,0,88.1,99.2ZM85.6,64.3a4.18,4.18,0,0,1-.4,1c-6.7-2.5-13.3-4.9-20.2-7.5V72a1.83,1.83,0,0,0,.8,1.3,3.09,3.09,0,0,1,1.8,3.4c-.1,1.3,0,2.7,0,4,.2-.2.4-.3.6-.5,1.6.4,3.2.9,4.8,1.2,4.2.6,8.5,1.1,13,1.7V80.8c.2-6.1.5-12.2.6-18.3,0-.5-.4-1.3-.8-1.4-6.2-2.5-12.4-5-18.7-7.4-.5-.2-1,0-1.6,0v.5c6.9,2.7,13.9,5.4,20.8,8.1a6.89,6.89,0,0,1-.4,1c-6.8-2.5-13.7-5.1-20.5-7.6l-.3.9C72,59,78.8,61.6,85.6,64.3ZM31,105.5a8.7,8.7,0,0,1-1.4-.8c-3.9-2.3-8.4-1.7-11.2,1.9a18.3,18.3,0,0,0-2.6,5c-2,6.2-1.8,12.2,2.8,17.4,3.9,4.4,9.5,4.1,13-.7A18,18,0,0,0,34.9,115a5.46,5.46,0,0,1,.1-1.8h.6c1.3,3.5.7,7-.1,10.6,3.7-.1,3.8-.1,3.7-3.5,0-1.6.4-2.6,1.9-3.3H36.9v-.6c1.6-.1,3.1-.3,4.7-.5v-4.3H34.8a.9.9,0,0,0-.1-.5c.8-.3,1.7-.5,2.7-.8a20.92,20.92,0,0,0-1.7-4c-.4-.5-1.8-.1-2.7-.1-.1-.1-.1-.3-.2-.4.7-.5,1.4-1,2.4-1.8C33.5,104.5,31.7,102.5,31,105.5Zm21.9-8.3a5.29,5.29,0,0,0-1.6-.2c-2.6.4-5.1.7-7.6,1.3-.5.1-1,1.2-1,1.8,0,3.4,0,6.8.1,10.2.1,2.4.2,4.7.3,7.2,3.3.2,6.6-.3,9.6,1.1v.5H49.1a29.85,29.85,0,0,0,0,3c0,.4.5,1,.8,1,1.8.1,3.6,0,5.4,0-.5-2.8-.9-5.4-1.3-7.9-3.5-.4-3-.3-2.8-3.4a7.72,7.72,0,0,1,.2-1.5C51.8,106.1,52.3,101.7,52.9,97.2Zm1.5-17.9c.4-2.2-.8-5.1,2.2-6.1a67.64,67.64,0,0,1,7.1-1.6V57.9c-1.8.6-3.6,1.3-5.4,1.9-1.1.3-1.4,1-1.4,2.1.1,3,0,5.9,0,8.9a5.26,5.26,0,0,1-.4,1.7c-.2,0-.4-.1-.6-.1,0-.6-.1-1.2-.1-1.8-.1-3,0-5.9-.2-8.9a2.52,2.52,0,0,1,2.1-3c2.2-.7,4.3-1.6,6.4-2.4a1.42,1.42,0,0,1-.2-.6c-3.6,1.4-7.7,1.7-10.7,4.8.4.4.8.9,1,1.1-.1,1-.3,1.7-.3,2.4v8c0,5.6-.1,5.6-5.6,6.8-1.8.4-2.5-.1-2.5-1.9s.1-3.8.1-5.7a4.19,4.19,0,0,0-.4-1.5A9.3,9.3,0,0,1,44.3,67a33.81,33.81,0,0,1-.1-4.5c-3.2.6-3.7.9-3.6,2.2,3.1-.9,3.1-.9,3.1,2.5V79.5c0,1.4.3,2.1,2,1.6C48.5,80.5,51.4,80,54.4,79.3ZM34.6,102.7a18.58,18.58,0,0,1-.8-2.6c-.3-1.7-1.1-2.2-2.9-1.9a73.56,73.56,0,0,1-8.1.6c-.5,0-1.1-.7-1.6-1.1A7.63,7.63,0,0,1,22.5,96a5.26,5.26,0,0,1,1.8-.4c3.5-.7,3.5-.7,2.9-4.3,0-.1-.1-.2-.4-.5a47.1,47.1,0,0,0-6.2,1.6,3.94,3.94,0,0,0-1.9,2.3c-.5,3.4-.7,6.7-1.1,10.7C22.8,100.2,28.7,102.7,34.6,102.7Zm77.6,24.8c-1.5-.7-3-1.5-4.6-2.1a3.41,3.41,0,0,0-2,0c-2.7.9-5.4,1.2-8.1-.2a3,3,0,0,0-2.6-.1c-.9.9-1.4,2.3.2,3.3s3.3,2.6,5.2,3.3A9.22,9.22,0,0,0,112.2,127.5ZM45.9,95.2c2.6-.4,4.7-.7,6.8-1.2.8-.2,2.1-1.1,2.1-1.6.1-3.1-.2-6.1-.3-9.4-2.6.6-5,1.2-7.3,1.9A1.75,1.75,0,0,0,46,86.2C45.8,89.1,45.9,92,45.9,95.2Zm49.3,10.9a24.69,24.69,0,0,1,.6,16.7h8.8c-4.1-4.8-4.8-10.3-5.2-15.9A38.28,38.28,0,0,1,95.2,106.1Zm12.2-21.6c-.4,0-.7-.1-1.1-.1-5.3.6-10.7,1.1-16,1.7-1.4.2-2.9.2-4.3.4-1.1.2-1.7,1.8-.9,2.3a6.3,6.3,0,0,0,3.5,1.1c2.7-.1,5.5-.9,8.2-.8C101.1,89.4,104,86.6,107.4,84.5ZM93.9,122.6c-2.7,1.5-5,.1-7.5-.3a8.17,8.17,0,0,0-5.5,1.2c-1.2.8-1.6,2.9-2.3,4.3,1.5,0,2.9-.1,4.2,0s2.9.4,4.3.5C90.9,128.7,93.2,126.8,93.9,122.6ZM47.1,77.8a30.84,30.84,0,0,0,4.1-1,2.28,2.28,0,0,0,1.3-1.6c.1-4.2.1-8.4.1-12.6-3.8.4-4,.6-4,4,0,1.3.4,2.7-1.2,3.5a.71.71,0,0,0-.3.6ZM11.4,107.7a23.14,23.14,0,0,0,3.8-.1c.5-.1,1.2-.8,1.2-1.2.5-4.4.9-8.8,1.3-13.3-2.9.1-4.3.8-4.6,2.5C12.5,99.6,12,103.6,11.4,107.7Zm29.8.3c0-2.8-.1-5.5,0-8.2a3.17,3.17,0,0,1,.9-2.3c1.1-1.2.7-1.9-.6-2.1-1.9-.4-4-.5-6.2-.8,1.2,4.2,2.4,8.1,3.4,12.1C39.1,108,39.8,108.4,41.2,108ZM60.1,92c3.3.4,3.6.1,3.6-2.8V85c0-1.9-.5-4,2.2-5.3a29.21,29.21,0,0,0-4.2-.9,2.25,2.25,0,0,0-1.6,1C60,83.8,60.1,87.9,60.1,92ZM6.3,115.1l6.1-.3a1.51,1.51,0,0,0,1.3-.8c.6-1.6,1-3.3,1.6-5.3-2.6.3-5.1.6-7.6,1.1-.5.1-1.3.8-1.3,1.3A25.69,25.69,0,0,0,6.3,115.1ZM43,94.4v-11c-3.4,0-3.8.4-3.8,3.5v6.7C40.4,93.9,41.6,94.1,43,94.4ZM69,91c-.1-2-.3-3.7-.3-5.5A4.08,4.08,0,0,0,67.4,82c-.4-.3-1.1-.9-1.3-.8a2,2,0,0,0-1,1.4c-.1,2.9,0,5.8,0,8.9C66.4,91.3,67.5,91.2,69,91Zm-5.1,4.8c-1.9.5-3.9,1.1-5.8,1.5a2.56,2.56,0,0,0-2.2,2.4c-.8,4-1.7,7.9-2.6,11.8a7,7,0,0,0,.1,2.5,17.25,17.25,0,0,0,1-2.4C55.6,105.2,57.6,99.3,63.9,95.8ZM51.3,124.3c1.1,5.1,6.1,8.6,10.2,7.3C58.6,128.6,55.7,125.8,51.3,124.3ZM64.2,77.2c-.3-.8-.3-2.7-1.2-3.3-2.1-1.3-4.4-.1-6.2,1.1-.7.4-.5,2.2-.8,3.4a25.68,25.68,0,0,0,2.8,0C60.4,78.1,62,77.7,64.2,77.2Zm-5.6,4.3c-1,.7-2.3,1.1-2.3,1.6-.2,3.2-.1,6.5-.1,9.8.9-.2,1.7-.4,2.4-.5ZM42.6,66c-.3-.1-.5-.2-.8-.3-.3.5-.9,1-.9,1.4-.1,5,0,10.1,0,15.2.7-.2,1.4-.4,1.7-.5Zm5.1,53.1c-2.1,0-4.2-.1-6.2.1-.3,0-.7,1.4-.7,2.1,0,.5.5,1.4.9,1.4,2,.1,4,.1,6,.1ZM45.3,96.7a32.12,32.12,0,0,1-.7-3.6c-.1-1.9,0-3.8,0-5.7,0-2.5.7-3.3,3.1-3.9,1.8-.4,3.7-.8,5.5-1.3.5-.2.9-.8,1.4-1.2l-.4-.4c-3,.7-6,1.3-9,2.1A2,2,0,0,0,44,84.2c-.1,4.1-.1,8.2-.1,12.4A5.31,5.31,0,0,1,45.3,96.7Zm24.8-3.9c0-.1-.1-.3-.1-.4-5.1.8-10.1,1.6-15.1,2.3-.2,1.5-.3,2.8-.5,4.1.2,0,.3.1.5.1,0-1.8,1-2.4,2.6-2.7C61.6,95.2,65.8,93.9,70.1,92.8Zm6.1,37.5c.1.2.1.5.2.7,3.3,0,6.7.1,10-.1,1.1,0,2.2-.7,3.4-1-.1-.2-.1-.4-.2-.6a24.52,24.52,0,0,1-2.7.2c-2.8-.1-5.6-.3-8.4-.3A7,7,0,0,0,76.2,130.3Zm49.3-.6c-.1-.2-.1-.3-.2-.5-1.1.1-2.2.3-3.3.3-2.7-.1-5.5-.3-8.2-.3a6,6,0,0,0-2.1.8c.1.3.1.6.2.9,3.7,0,7.4.1,11-.1C123.8,130.8,124.6,130.1,125.5,129.7ZM23.5,97.2v.3c2.9-.2,5.9-.3,8.8-.6,1.2-.1,1.8.2,2.1,1.3.4,1.4.9,2.7,1.4,4.1a41.53,41.53,0,0,0-1-5.3c-.3-1.5-1.1-1.8-2.4-1.5C29.5,96,26.5,96.6,23.5,97.2Zm44.3-2.1c3.2-.2,6.5,1.7,9.5-.7C74.1,93.8,70.9,93.3,67.8,95.1ZM52.1,57.5a1.85,1.85,0,0,1,.2.7c4-1.4,8.1-2.8,12.1-4.1-.1-.3-.2-.6-.3-1C60.1,54.6,56.1,56,52.1,57.5ZM41.6,129.9c-1.2-.1-2.3-.3-3.5-.3a21.64,21.64,0,0,0-3.6,0c-1,.1-2.4-.6-3,1.3C35,130.5,38.4,131.5,41.6,129.9Zm57.9-36c.3-2-.5-2.6-4.3-2.7C95.2,92.8,95.5,93,99.5,93.9Zm-30.7-12c1,1.2,1.2,3.1,3.3,2.7C72.4,82.2,71.1,81,68.8,81.9ZM46.9,68c.2-1.6.8-3.2-.4-4.6C46.2,65,45.6,66.6,46.9,68Zm63,63.8v.4h9v-.4ZM65.3,74.6c-.6,3.3-.6,3.3,1.1,4.6C65.9,77.6,67.1,75.9,65.3,74.6ZM46.6,60.2a1.42,1.42,0,0,1-.2-.6c-2.1.8-4.2,1.6-6.3,2.3.1.2.1.4.2.6C42.4,61.8,44.5,61,46.6,60.2ZM48,62.7c1.2-.5,2.1-.9,3.2-1.3C49.3,60.1,48.2,60.6,48,62.7ZM74.6,132v.3h7.6V132Z"/><path d="M131.5,113a6.89,6.89,0,0,1-1.1-1.3c-5.6-8.6-11.1-17.2-16.6-25.8a3.1,3.1,0,0,1-.1-2.5,28.17,28.17,0,0,1,2.1-3.8,3,3,0,0,1,.8.4,27.12,27.12,0,0,1-1.3,3,2.56,2.56,0,0,0,.2,3.2c5.3,8.1,10.5,16.3,15.8,24.5.4.6.6,1.3,1,2A.86.86,0,0,0,131.5,113Z"/><path d="M159.1,89.2c.1.5.2.8.1.9-1.3,2.4-.1,4.3,1.1,6.3,3.6,6.2,7,12.4,10.5,18.6a13.06,13.06,0,0,1,.8,2.1l-.6.3a13.44,13.44,0,0,1-1.1-1.4c-4.1-7.2-8.2-14.3-12.3-21.5C156.8,93,157.4,90.6,159.1,89.2Z"/><path d="M74.8,108.8a36,36,0,0,1,.8,5.6c.1,3.6-.7,6.9-3.5,9.5a7.94,7.94,0,0,1-11.3-.2c-4.8-4.9-4.4-15.5.8-20,2.1-1.8,4.8-2.3,6.9-1.1-2,.5-3.9.9-5.7,1.3v.7a6,6,0,0,1,7.5,1.6c2.6,2.9,3,6.5,2.3,10.2-.9,5.3-3.2,7-9.6,7.4a5.38,5.38,0,0,0,5.4.8c3.8-1.3,5.2-4.4,5.6-8.1a43.61,43.61,0,0,0-.3-6.2v-1.2A9.68,9.68,0,0,1,74.8,108.8Zm-3.1,4.6a7,7,0,0,0-.2-2.4,35.75,35.75,0,0,0-2.5-4.2c-1.2,1.3-2.8,2.3-3.4,3.8-1.5,3.2-1,6.7.2,10,.7,1.9,1.3,2.1,2.9.9C71.1,119.5,71.7,116.8,71.7,113.4Zm-6.5,9.5c-2.1-6.6-3.2-12.4,2.5-17.1-2-2.1-4.1,1-6.2-.3a16.12,16.12,0,0,0-2.6,11.7c0,.3.2.8.3.8,1.7.2,1.7,2,2.7,2.8A38.92,38.92,0,0,0,65.2,122.9Z"/><path d="M88.1,99.2c.9.8.2,1.3-.4,1.4a9.66,9.66,0,0,1-2.4.1c-2.3-.1-4.6-.3-6.9-.5,0-.2-.1-.3-.1-.5a16,16,0,0,1,2.9-.5c1.6,0,3.1.3,4.7.4a9.33,9.33,0,0,0,2.2-.4Z"/><path d="M25.7,108.3a17.62,17.62,0,0,1-2.5.4c1.2.6,2.9,1.1,3.9,2.2a8.53,8.53,0,0,1,2.1,4.5c.8,5.7-1,8.4-6.5,10.3,4,.9,7.2-1.9,7.5-6.7.1-1.9,0-3.9,0-5.9.2.3.6.5.7.8,1,3.8.9,7.4-1.5,10.7a6.56,6.56,0,0,1-10.5.3c-3.5-4.1-3.3-11.8.7-15.5,1.1-1,2.8-1.4,4.4-2,.5-.2,1.2.3,1.8.4A.9.9,0,0,0,25.7,108.3Zm-1.5,15.6c2.4-.6,3.3-2.5,3.6-4.6.4-2.7.6-5.5-1.8-7.7C22.4,113.6,21.5,119.7,24.2,123.9Zm-2,0a61.38,61.38,0,0,1-.7-7c0-2.5,1.3-4.5,3-6.5-1.8.1-3.9,0-4.9,1-3,3-2,9.7,1.5,12.1A7.6,7.6,0,0,0,22.2,123.9Z"/><path d="M49.8,87.7c.1,2.2-1.1,2.4-2.1,2.3-.5,0-1-1-1.5-1.5a13.25,13.25,0,0,1,2.5-1.6C49,86.8,49.6,87.6,49.8,87.7Z"/><path d="M34,89.1c-1.5.2-3,.3-4.8.5A3.46,3.46,0,0,1,34,89.1Z"/></svg>