<?xml version="1.0" encoding="utf-8"?>
<!-- Generator: Adobe Illustrator 26.0.1, SVG Export Plug-In . SVG Version: 6.00 Build 0)  -->
<svg version="1.1" id="Calque_1" xmlns="http://www.w3.org/2000/svg" xmlns:xlink="http://www.w3.org/1999/xlink" x="0px" y="0px"
	 width="190px" height="190px" viewBox="0 0 190 190" style="enable-background:new 0 0 190 190;" xml:space="preserve">
<style type="text/css">
	.st0{fill:#E9E9E9;}
	.st1{fill:#B0B0B2;}
	.st2{fill:#41689C;}
	.st3{fill:#5F5D5E;}
	.st4{fill:#696768;}
	.st5{fill:#3C393A;}
	.st6{fill:#E8E8E8;}
	.st7{fill:#AFAFB1;}
	.st8{fill:#4A6797;}
	.st9{fill:#3B393A;}
	.st10{fill:#FFFFFF;}
	.st11{fill:#828D8C;}
	.st12{fill:#262828;}
	.st13{fill:#6B7F93;}
	.st14{fill:#788DA3;}
	.st15{fill:#272929;}
	.st16{fill:#262727;}
	.st17{fill:#565F5F;}
	.st18{fill:#6D8095;}
	.st19{fill:#2D3030;}
	.st20{fill:#DDE5ED;}
	.st21{fill:#323535;}
	.st22{fill:#535B5C;}
	.st23{fill:#DAE3ED;}
	.st24{fill:#D5DDE5;}
	.st25{fill:#4E5A69;}
	.st26{fill:#B5BCBC;}
	.st27{fill:#C3C9C8;}
	.st28{fill:#585C5D;}
	.st29{fill:#909A98;}
	.st30{fill:#6E8399;}
	.st31{fill:#2B2E2E;}
	.st32{fill:#8F9896;}
	.st33{fill:#5F6767;}
	.st34{fill:#8C9398;}
	.st35{fill:#728395;}
	.st36{fill:#848E8D;}
	.st37{fill:#CCD3D7;}
	.st38{fill:#727A83;}
	.st39{fill:#7C8081;}
	.st40{fill:#58636F;}
	.st41{fill:#919A9D;}
	.st42{fill:#303434;}
	.st43{fill:#505858;}
	.st44{fill:#576060;}
	.st45{fill:#474D4D;}
	.st46{fill:#282B2B;}
	.st47{fill:#7C92A8;}
	.st48{fill:#7E95AB;}
	.st49{fill:#7C93A9;}
	.st50{fill:#7E94AB;}
	.st51{fill:#212323;}
	.st52{fill:#7D828A;}
	.st53{fill:#848F8E;}
	.st54{fill:#90A5BC;}
	.st55{fill:#5D6E81;}
	.st56{fill:#BDCBDD;}
	.st57{fill:#8F9A98;}
	.st58{fill:#616B6B;}
	.st59{fill:#869190;}
	.st60{fill:#B8C0BE;}
	.st61{fill:#A3AEAD;}
	.st62{fill:#2A2D2D;}
	.st63{fill:#AAB4B5;}
	.st64{clip-path:url(#SVGID_00000178915545009182381510000011233279735070481594_);}
	.st65{fill:url(#);}
	.st66{clip-path:url(#SVGID_00000166635233931773829210000001518518229026510262_);}
	.st67{fill:#FFFFFF;stroke:#55575C;stroke-width:0.527;stroke-linecap:round;stroke-miterlimit:1;}
	.st68{clip-path:url(#SVGID_00000003799442616907011290000006719068797779631498_);}
	.st69{fill:none;stroke:#3E4045;stroke-width:0.758;}
	.st70{opacity:0.78;}
	.st71{opacity:0.74;}
	.st72{opacity:0.79;}
	.st73{clip-path:url(#SVGID_00000102515447062448162100000001658970958998801555_);}
	.st74{opacity:0.75;}
	.st75{clip-path:url(#SVGID_00000044164651285085352030000010937297573896375951_);}
</style>
<g>
	<defs>
		<polygon id="SVGID_00000129206577829439714900000001348924285452460442_" points="10.2,29.7 26.5,176.1 166.5,162.2 151.1,15.7 		
			"/>
	</defs>
	<clipPath id="SVGID_00000010998740332744283170000009215716965338210437_">
		<use xlink:href="#SVGID_00000129206577829439714900000001348924285452460442_"  style="overflow:visible;"/>
	</clipPath>
</g>
<g id="MdliST.tif">
	<g>
		<path class="st11" d="M40.3,109.3c6.7-4.8,14.7-6.7,22.1-9.9c1.6-0.7,4.3,0.4,6.3,1.1c13.6,4.5,26.9,9.6,40.2,15
			c1.5,0.6,3.6,0.9,3.5,3.2c-0.1,1.8-1.7,2.4-3,3.2c-3.2,2-7.2,3-9.3,6.5c-1,1-2.4,1.4-3.5,2.1c-1.6,0.1-3,0.9-4.5,1.5
			c-1.3,0.4-2.6,0.4-4,0.2c-0.5-0.1-0.9-0.1-1.3-0.3c-2.5-0.5-4.6-2-6.9-2.9c-10.7-4.9-21.5-9.6-32.2-14.5
			C45,113.3,41.8,112.4,40.3,109.3z"/>
		<path class="st12" d="M40.3,109.3c11.3,6.3,23.4,10.8,35.1,16.3c1.7,0.8,3.3,1.8,5,2.7c0.3,0.4,0.6,0.8,0.8,1.2
			c0.5,1.6,0.4,3.4,1,5c0.3,1.7,0.5,3.4-0.4,5c-3.8,3.4-2.1,7.6-1.4,11.5c0.2,1,1.4,1.7,0.9,2.9c-4.4,1.8-7.2,1-8.5-3.1
			c-1-3.1-3-4.9-5.7-6.5c-5.2-3.1-10.5-5.6-16.7-5.1c-2.6,0.2-4.6-1.2-6.3-2.7c-1.4-1.2-3.2-3.2,0.3-4.5c3.2-1.2,1.7-4,1.8-6.1
			c0.2-5.1,1.8-10.9-5.3-13.3C39.4,112.3,39,110.7,40.3,109.3z"/>
		<path class="st13" d="M144.8,71.5c-1.5,8.6-2.9,17.2-4.6,25.8c-2.5,12.9-5.1,25.8-7.7,38.7c-0.9,1.6-2.2,2.1-4,1.6
			c-3-3.4-0.2-6.7,0.2-10c0.9-2.1,0.5-4.4,1.1-6.5c1.3-3.8,2.7-7.7,2.7-11.8c0.1-0.5,0.2-1,0.4-1.4c3.1-8.2,3.6-17.1,6.3-25.4
			c0.4-1.1,0.6-2.3,0.7-3.5c0.6-2.8,0.7-5.8,2.6-8.2C143.6,70,144.3,70.5,144.8,71.5z"/>
		<path class="st14" d="M130.6,120.9c-0.4,2.2,0.9,4.6-0.9,6.7c-2.4,3.3-1.1,7.6-3.1,10.9c-1.2,0.6-2.4,0.5-3.6-0.3
			c-0.5-0.7-0.5-1.4,0.1-2.1c3.2-9,4.6-18.5,6.8-27.7c3-12.6,6-25.3,9-37.9c0.3-1.2,0.3-2.5,0.4-3.7c1.5-1.2,2.7-0.6,3.8,0.6
			c0.2,0.4,0.3,0.9,0.3,1.3c-1.5,3.3-3.1,6.6-2.3,10.5c0,1,0.2,2.2-0.9,2.9c-3.2,8.6-3.9,17.8-6.7,26.5l0,0
			C132.9,112.7,131.7,116.8,130.6,120.9z"/>
		<path class="st15" d="M154.5,45.9c-0.3,1-0.6,2-1,3c-0.8,1.5-2.4,1-3.9,1.5c-0.3,0,0.4,0.9,0.2,0.3c-0.1-0.2,0-0.4,0.2-0.4
			c0.9-0.2,1.8-0.3,2.6,0.3c0.2,2.5-2.4,1.4-3.3,2.6c-0.5,0.1,0.2,0.9,0,0.3c-0.1-0.3,0-0.4,0.1-0.5c1.1-0.7,2-0.4,2.9,0.5
			c0,1.2-1,0.8-1.6,0.9c-1.4,2-3.7,3.1-5,5.5c-1.2,2.5-2.9,0.9-3.5-1c-0.8-2.3,0-4.7,0.3-7c0.3-1.7,1-3.3,1-5.3
			c-0.6,1.3-1.2,2.2-2.6,2.2c-2-3.7,1.1-7,0.8-10.6c-0.4-1.1,1-2,0.4-3.1c-0.4-1,2.3-0.3,1-2.1c-1.6-2.2,1.6-0.5,1.6-1.6
			c2.3,0.7,4.4,1.7,6.8,2.1c1,0.4,2.1,0.6,3,1.1c1.7,2,0.3,2.6-1.3,3c-1.9-1-1.6,1.4-2.6,1.7c-0.5,0.5-1.2,0.7-1.3,1.5
			c0.6,0.7,1.3,0.2,1.9,0.2c1.1-0.2,2.2,0,3,0.9c1,0.6,1,1.2,0.1,1.9C153.6,44.7,153.9,45.3,154.5,45.9z"/>
		<path class="st16" d="M140.9,49c2.5-0.5,0.3-5.7,3.4-4.3c2.3,1-0.1,4.2-0.4,6.4c-0.4,3.1-1.8,6.3,0.5,10.6
			c0.9-4.4,2.7-6.8,6.4-7.2c1.5,3.9-0.6,9.7-4.7,13.5c-1,0.6-2,0.7-3.1,0c-1.1-0.6-2.3-1.3-3.7-1.2C137.1,62.8,138.1,52,140.9,49z"
			/>
		<path class="st17" d="M81.2,154.1c-2.2-2-4.2-12-2.6-14.1c0.3-0.4,1.7-0.1,2.6-0.1c3-0.4,2.9,3.6,5.4,3.8c1.4,0.6,2.7-0.6,4.1-0.3
			c1.1,0.8,1.8,1.8,1.9,3.1C88.9,149,85.1,151.5,81.2,154.1z"/>
		<path class="st18" d="M133.4,139.1c3.3,3.7,1.5,7.5-0.4,10.8c-1.4,2.4-3.6,4.9-7.3,3.3c0.1-0.5,0.3-1,0.3-1.6
			c-0.7-1.4-3-1.2-3.2-3.2c0.8-1.2,2.5-1.5,3.2-2.8c1.4-1.6,2.4-3.4,3.5-5.1C130.7,139.9,131.6,138.4,133.4,139.1z"/>
		<path class="st19" d="M151.4,34.5c-2.4-0.6-5.5,0.7-6.6-2.9c-2.4-2.6-0.9-4.7,0.8-6.7c3.9,2.2,8.5,1.9,12.5,3.9
			c-0.1,1.8,0.8,3.9-1.8,4.8C154.9,34.9,153.1,34.4,151.4,34.5z"/>
		<path class="st14" d="M126.8,146.4c-0.7,1.8-2.2,2-3.8,2c-0.7,0.3-1.2-0.1-1.7-0.5c-1.4-1.2-2.2-3.8-4.9-2.3
			c-5.7-0.8-4.6-4.7-3.7-8.4c2.2-1.5,4-0.2,5.7,1C119.9,142.2,123.2,144.5,126.8,146.4z"/>
		<path class="st20" d="M133.4,139.1c-1.1,0.8-2,1.9-3.6,1.8c-1.3,1.1-1.7,3.3-4,3c-1.3-0.6-2.1-1.6-2.7-2.9
			c-0.3-1.1-0.8-2.1-0.1-3.2c1.3,0,2.5,0,3.8,0c0.6-0.5,1.4-0.3,2-0.7c1.3-0.1,2.6-0.2,3.7-1C132.8,137.1,133.1,138.1,133.4,139.1z"
			/>
		<path class="st21" d="M92.7,146.5c-1.4-0.5-2-1.6-2.2-3c-0.6-0.9-0.6-1.7-0.1-2.6c2.6-1.1,4.2,0.8,6,1.9c0.6,0.6,1,1.4,1.5,2.1
			c0.3,0.3,0.5,0.7,0.7,1c0.2,0.4,0.3,0.8,0.4,1.2c-0.2,0.8-0.2,1.8-1.5,1.2C95.8,147.7,94.2,147.1,92.7,146.5z"/>
		<path class="st22" d="M158.1,28.8c-0.6-0.2-1.3-0.8-1.7-0.6c-4.6,2-7.7-0.5-10.8-3.3c0.2-1.2,1-1.6,2-1.7c2.7,2.7,6.1,2.7,9.5,2.8
			C157.7,26.9,158.6,27.6,158.1,28.8z"/>
		<path class="st23" d="M123,137.8c0.3,1,0.6,2,0.9,3c-1.8,0.6-3-1.2-4.7-1.2c-0.4-0.2-0.7-0.4-1.1-0.6c-1.7-0.9-3.4-2.2-5.6-1.8
			c1.9-2.1,4.3-1.1,6.5-0.9c1.4,0.1,2.7,0.5,4-0.2C123.1,136.6,123.1,137.2,123,137.8z"/>
		<path class="st24" d="M157.2,26c-3.8,1.1-7.5,2-9.5-2.8C151,23.7,154.4,23.9,157.2,26z"/>
		<path class="st25" d="M122.7,152.3c-3.2-0.5-5-2.4-5.6-5.6c0.9-1.8,1-1.8,3.5,0.3c0.9,1.3,1.8,2.5,3.5,2.9
			c1.5,0.3,1.5,1.4,0.6,2.5C124.1,152.7,123.4,152.6,122.7,152.3z"/>
		<path class="st26" d="M102,141.6c0,1.7,2.9,1.8,2.1,3.9c-1.8,1-3.6,2.8-5.9,1l0,0c-0.4-2.2-0.3-4.2,1.5-5.8
			C100.9,140.1,101.5,140.8,102,141.6z"/>
		<path class="st27" d="M100.4,129.3c0.7,2.6,6.2,2.5,3.8,6.8c-1.2-0.4-2.3-0.9-3.6-1c-1.7-0.5-2.9-1.5-2.8-3.5
			C98.2,130.3,99,129.6,100.4,129.3z"/>
		<path class="st28" d="M152.5,37.4c1.1-0.2,2.5-0.3,1.8-2.1c0.1-1.6,1-1.4,2-0.8c1,3.8,0.4,5.6-2,6.7c-0.8,0.5-1.1-0.1-1.4-0.7
			C154.3,39.2,152.2,38.5,152.5,37.4z"/>
		<path class="st29" d="M101.2,134.1c1.5-0.1,2.8,0,2.9,2c-0.5,1.4-0.7,2.9-1.9,3.9c-0.7-0.7-1.3-1.7-2.3-2
			C98,135.9,99.8,135.1,101.2,134.1z"/>
		<path class="st30" d="M120.1,147.5c-1.1,0-1.5-2.5-3-0.8c-0.3-0.4-0.5-0.7-0.8-1.1c0.3-2.1,1-3.5,3.1-1.3c0.9,1,1.8,2.1,2.6,3.1
			C121.4,148,120.8,147.9,120.1,147.5z"/>
		<path class="st31" d="M152.9,40.1c0.5,0.3,0.9,0.7,1.4,1c0,0.3,0,0.6,0,1c-1.2,0-2.4,0-3.6,0c-1,0-2,0-2.8-0.7
			c-0.2-2.1,1.2-2.2,2.7-2.2C151.7,38.6,152.3,39.3,152.9,40.1z"/>
		<path class="st32" d="M98.3,146.5c2-0.3,3.9-0.6,5.9-1c-1.6,2.4-3.5,4.2-6.8,2.8C98.1,147.9,98.3,147.3,98.3,146.5z"/>
		<path class="st33" d="M100.4,129.3c-0.7,0.7-1.3,1.5-2,2.2c-0.7,0.6-1.2,1.5-2.2,0.5c-0.3-0.7-0.3-1.3,0.3-1.9
			c0.4-2.4,2.3-1.6,3.7-1.7C100.2,128.8,100.3,129,100.4,129.3z"/>
		<path class="st34" d="M152.3,53.6c-1.4-0.1-2.7-0.2-4.1-0.3c0.6-2.4,3.4-0.7,4.2-2.6c0.4-0.1,0.8-0.3,1.1,0.1
			c0.1,0.2,0,0.4-0.2,0.7C152.9,52.2,152.6,52.9,152.3,53.6z"/>
		<path class="st35" d="M142.9,67.9c1,0,2,0,3.1,0c-0.4,1.2-0.8,2.4-1.2,3.6c-0.6-0.3-1.2-0.6-1.8-0.9c-0.6-0.6-0.6-1.3,0-1.9
			C142.9,68.4,142.9,68.2,142.9,67.9z"/>
		<path class="st36" d="M100.2,137.9c2.5-1.1,1.7,1,2,2.1c-0.1,0.6-0.1,1.1-0.2,1.7c-0.6-0.2-1.2-0.4-1.8-0.6
			c-0.4-0.3-0.6-0.7-0.7-1.2C99.5,139.1,99.6,138.4,100.2,137.9z"/>
		<path class="st37" d="M153.2,51.5c-0.3-0.3-0.6-0.6-0.9-0.8c-1.1-0.1-2.1-0.1-3.9-0.2c1.9-1.2,3.8-0.4,5-1.5
			C153.9,49.9,155,50.8,153.2,51.5z"/>
		<path class="st38" d="M156.3,34.5c-0.7,0.3-1.4,0.6-2,0.8c-1,0-2.1,0.3-2.9-0.8c1.4-1.5,3.2-0.9,4.9-0.9
			C156.2,33.9,156.2,34.2,156.3,34.5z"/>
		<path class="st39" d="M154.5,45.9c-0.8-0.2-1.7-0.3-2.5-0.5c0.3-1.3,1.3-1.4,2.4-1.4C154.4,44.7,155.8,45.2,154.5,45.9z"/>
		<path class="st40" d="M122.7,152.3c0.7,0,1.5-0.1,2.2-0.1c0.9-1.5,1.9-1.4,2.8,0c-0.7,0.4-1.4,0.7-2.1,1.1
			C124.6,153.2,123.5,153.3,122.7,152.3z"/>
		<path class="st41" d="M142.2,35.4c3.5,1.5-0.5,2-0.4,3.1C140.3,37.2,142.2,36.4,142.2,35.4z"/>
		<path class="st42" d="M86.8,144.5c-4,1-3.1-3.9-5.6-4.7c0-1.9,0-3.8,0-5.7c-1.1-1.4,0.2-3.3-0.9-4.7c0-0.4,0-0.7,0.1-1.1
			c2.5,0.4,4.4,1.9,6.6,2.9c-1.1,2.5-4.4,4.7-1.4,7.9c0.7,0.9,1.6,1.7,2,2.7C87.7,142.9,87.7,143.8,86.8,144.5z"/>
		<path class="st43" d="M85,139.8c-3.4-3.2-2.6-6.4,2-8.6c0.3,0,0.6,0.1,0.9,0.1c0.5,0.4,1.1,0.6,1.6,0.9c0.8,0.8,1.1,1.8,1,2.9
			c-0.2,0.9-0.6,1.6-1.2,2.3C88,138.6,87.2,140.5,85,139.8z"/>
		<path class="st44" d="M96.4,130.2c0,0.7,0,1.4,0,2.1c0.1,0.9-0.2,1.7-0.6,2.5c-0.7,0.8-1.2,2.1-2.6,1.1c-0.9-1.4-0.9-3-0.6-4.6
			C93.6,130,94.8,129.5,96.4,130.2z"/>
		<path class="st45" d="M92.6,131.2c1.7,1.3,0.8,3.2,1,4.8c-0.6,0.5-1.2,0.5-1.8,0.1c-0.6-1.6-1-3.3-2.9-3.9c-0.3-0.3-0.7-0.6-1-0.9
			C89.5,131.3,91,131.3,92.6,131.2z"/>
		<path class="st46" d="M80.3,129.4c1.6,1.3,0.7,3.1,0.9,4.7C79.6,132.8,80.5,131,80.3,129.4z"/>
		<path class="st47" d="M133.5,108.5c0.7-8.9,4-17.2,5.4-25.9c0.1-0.5,0.4-1.3,1.3-0.7C137.9,90.8,137.5,100.1,133.5,108.5z"/>
		<path class="st48" d="M128.8,137c-0.5,0.7-1.2,0.9-2,0.7c0-3.8,1-7.4,2-11c0-0.1,0.2-0.2,0.3-0.3c0.2,0.3,0.4,0.7,0.6,1
			C129.8,130.7,127.3,133.7,128.8,137z"/>
		<path class="st49" d="M130.6,120.9c-0.1-4.4,1.6-8.3,2.9-12.3C133.7,112.9,133.1,117.1,130.6,120.9z"/>
		<path class="st50" d="M142.9,68.7c0,0.6,0,1.3,0,1.9c-0.6,2.8-1.3,5.7-1.9,8.5C139.3,75.2,141,71.9,142.9,68.7z"/>
		<path class="st51" d="M152.9,40.1c-0.8-0.3-1.6-0.6-2.4-0.9c0.4-2.1,0.4-2.1,1.9-1.8C153.1,38.3,154.7,38.9,152.9,40.1z"/>
		<path class="st52" d="M147.9,41.5c1-0.1,2.1-0.5,2.8,0.7C149.4,43.3,148.4,43.5,147.9,41.5z"/>
		<path class="st53" d="M86.8,144.5c-0.1-0.8-0.1-1.7-0.2-2.5c0.4-1.3,1.7-2.1,2.2-3.3c0.5-0.9,1.3-1.5,2.3-1.7
			c2.4,0.2,5.5-0.9,5.6,3.2c-1.7,2.6-4.1-0.7-6,0.7c-0.1,0.8-0.2,1.7-0.3,2.5C89.3,144,88.7,146.5,86.8,144.5z"/>
		<path class="st54" d="M118.2,138.9c0.3,0,0.6,0,0.9,0c2.4,1.3,3.9,3.9,6.7,4.7c1.3-0.9,2.6-1.8,3.9-2.6c0.3,2.5-2,3.6-3,5.5
			C122.1,146,119.1,143.7,118.2,138.9z"/>
		<path class="st55" d="M127.7,152.2c-0.9-0.6-1.9-0.6-2.8,0c-0.5-2.7-4.3-2-4.8-4.7c0.6,0,1.3,0,1.9,0c0.3,0.3,0.6,0.6,1,0.9
			C124.3,150,127.5,149.2,127.7,152.2z"/>
		<path class="st56" d="M125.9,143.6c-3.9,0.8-5.3-1.9-6.7-4.7c2.5-1.6,3.1,1.5,4.8,1.9C124.6,141.7,125.2,142.6,125.9,143.6z"/>
		<path class="st57" d="M96.4,140.8c-0.4-3.9-3.4-2.6-5.7-2.9c-0.4-0.7-0.1-1.2,0.3-1.8c0.2-0.1,0.4-0.2,0.6-0.3
			c0.6,0.1,1.3,0.1,1.9,0.2c0.6-0.7,1.2-1.3,1.8-2c2.4,1.2,2.7,4.2,4.8,5.7c0,0.4,0.1,0.9,0.1,1.3c-0.7,1.8-1.3,3.6-2,5.5
			c-0.3-0.3-0.7-0.6-1-0.8c-0.1-1.5-0.4-2.9-0.9-4.2C96.4,141.2,96.4,141,96.4,140.8z"/>
		<path class="st58" d="M90.8,140.9c1.8-2.6,3.7-0.1,5.6-0.1c0,0,0,0,0,0c0.6,1,0.8,1.9,0,2.9C94.5,142.8,92.7,141.8,90.8,140.9z"/>
		<path class="st59" d="M96.4,143.7c0-1,0-1.9,0-2.9c1.7,1.4,2.2,3,0.9,4.9C97,145,96.7,144.3,96.4,143.7z"/>
		<path class="st60" d="M100.1,139.7c-3.8-0.1-3.4-3.6-4.8-5.7c0.4-0.6,0.7-1.2,1.1-1.8c0.6-0.3,1.3-0.5,1.9-0.8
			c0.1,1.8,1.2,2.5,2.8,2.6c-0.5,1.2-2.2,2.1-1,3.8C100.2,138.5,100.2,139.1,100.1,139.7z"/>
		<path class="st61" d="M89.7,139.7c-0.5,1.5-1.7,2-3,2.2c-0.6-0.7-1.1-1.4-1.7-2.1c1.2-1,2.5-2.1,3.7-3.1
			C89.9,137.4,88.8,138.9,89.7,139.7z"/>
		<path class="st62" d="M88.9,132.2c2.5,0,5,0,2.7,3.6c0,0,0.1,0.3,0.1,0.3c-1,0.4-1.5-0.1-1.9-0.9
			C89.5,134.2,89.2,133.2,88.9,132.2z"/>
		<path class="st63" d="M89.8,135.2c0.6,0.3,1.3,0.6,1.9,0.9c-0.3,0.6-0.6,1.2-1,1.8c-0.3,0.6-0.7,1.2-1,1.8c-1.1-0.8-0.8-2-1-3.1
			C89.1,136.2,89.4,135.7,89.8,135.2z"/>
	</g>
</g>
</svg>
