<svg id="Calque_1" data-name="Calque 1" xmlns="http://www.w3.org/2000/svg" viewBox="0 0 190 190"><defs><style>.cls-1{fill:#fff;}</style></defs><g id="c4L2Nv.tif"><path d="M154.84,81.66c-.89,1.58-1.38,3.11-2.39,4.16q-7.89,8.22-16,16.24c-2.93,2.9-6,2.93-8.93,0Q108,82.54,88.68,62.9c-2.83-2.87-2.82-6.12,0-9q7.95-8.17,16.07-16.18c2.66-2.63,5.81-2.67,8.46,0q19.68,19.77,39.21,39.67C153.47,78.47,154,80.12,154.84,81.66ZM148.67,80c-1.14-1.39-1.65-2.14-2.27-2.78-7.3-7.39-14.57-14.8-22-22.08-.78-.78-2.33-.77-3.52-1.13.39,1.12.46,2.55,1.21,3.33,7.3,7.53,14.7,14.95,22.08,22.4.43.43.92,1.15,1.38,1.15A13.31,13.31,0,0,0,148.67,80Zm-31-27.66c.52-.42,1.29-.76,1.33-1.16a3.1,3.1,0,0,0-.56-2.17,70.33,70.33,0,0,0-5.85-5.86c-.58-.51-1.75-.33-2.65-.47.1.9-.14,2.08.35,2.64,1.79,2.1,3.81,4,5.78,5.94A11.08,11.08,0,0,0,117.63,52.38Z"/><path d="M102.36,79.15l9.14,9c-.73.82-1.44,1.65-2.18,2.45q-31.84,34-63.69,68c-3.09,3.3-5.11,3.57-8.82,1A20.82,20.82,0,0,1,33,156.11c-4-4.66-3.84-7.06.53-11.23L101.09,80.3C101.46,80,101.85,79.61,102.36,79.15Z"/><path d="M138.59,60.42c-3.12-3-6-5.8-8.84-8.59,2.73-3.64,3.33-3.7,6.48-.55l2.82,2.84C142.09,57.18,142,58.09,138.59,60.42Z"/><path class="cls-1" d="M148.67,80a13.31,13.31,0,0,1-3.09.89c-.46,0-1-.72-1.38-1.15-7.38-7.45-14.78-14.87-22.08-22.4-.75-.78-.82-2.21-1.21-3.33,1.19.36,2.74.35,3.52,1.13,7.4,7.28,14.67,14.69,22,22.08C147,77.9,147.53,78.65,148.67,80Z"/><path class="cls-1" d="M117.63,52.38A11.08,11.08,0,0,1,116,51.3c-2-1.94-4-3.84-5.78-5.94-.49-.56-.25-1.74-.35-2.64.9.14,2.07,0,2.65.47a70.33,70.33,0,0,1,5.85,5.86,3.1,3.1,0,0,1,.56,2.17C118.92,51.62,118.15,52,117.63,52.38Z"/></g></svg>