<svg id="Calque_1" data-name="Calque 1" xmlns="http://www.w3.org/2000/svg" viewBox="0 0 308.33 190.41"><defs><style>.cls-1{fill:#e8e8e8;}.cls-2{fill:#afafb1;}.cls-3{fill:#4a6797;}.cls-4{fill:#5f5d5e;}.cls-5{fill:#696768;}.cls-6{fill:#3b393a;}</style></defs><g id="Groupe_375" data-name="Groupe 375"><g id="Groupe_352" data-name="Groupe 352"><path id="Tracé_3" data-name="Tracé 3" class="cls-1" d="M39,32a1.21,1.21,0,0,0,1.23.67c.38,0,.77,0,1.16,0H266c2.62,0,2.54,0,2.18-2.68a36.43,36.43,0,0,1-.08-4.31c.85.15.76.87.8,1.43.35,5.34.66,10.68,1.06,16s.78,10.45,1.17,15.67.78,10.46,1.11,15.69c.21,3.35.63,6.7.64,10.07a42.73,42.73,0,0,1-1.5,8.69,1.91,1.91,0,0,1-.71.83c-5.77,2.65-11.71,4.91-17.6,7.27a1.27,1.27,0,0,1-1.41,0c-1.12-2.1-1.09-4.48-1.59-6.74-.64-2.91-.89-5.9-1.57-8.81-.32-1.39-1-2.46-2.66-2.48-1.63.32-2.16,1.56-2.42,3-.74,4-1.32,8-2.1,12-.51,2.64-.93,5.3-1.22,8a3.12,3.12,0,0,1-1.63,1.07c-5.07,2.12-10.19,4.16-15.31,6.18-.75.3-1.51.75-2.35.19a4.82,4.82,0,0,1-.8-2.32c-.56-3.82-1.47-7.57-1.94-11.4a8.48,8.48,0,0,0-.67-2.72A2.45,2.45,0,0,0,215,95.59a3.1,3.1,0,0,0-2.33,2.72c-.61,2.64-.87,5.34-1.38,8s-.87,5.34-1.52,8c-.38,1.52-.08,3.09-.54,4.59a2.92,2.92,0,0,1-1.62,1.06c-5.1,1.93-10.1,4.08-15.15,6.13-1,.39-2,.92-2.68-.48-1-2.88-1.2-5.93-1.79-8.89-.42-2.06-.67-4.14-1.06-6.19a2.92,2.92,0,0,0-2.56-2.65c-1.8.33-2.34,1.7-2.61,3.24-.72,4.19-1.38,8.39-2.22,12.56a74.19,74.19,0,0,0-1.2,7.84c-1.79,1.35-4,1.82-6,2.72-3.57,1.6-7.24,3-10.85,4.49-.65.27-1.3.65-2.05.27-1-1.78-.79-3.88-1.46-5.75a2.85,2.85,0,0,1-.14-.5,13.84,13.84,0,0,0-.62-3.78c-.55-2-.72-4-1.13-6-.29-1.4-1-2.45-2.6-2.52-1.62.1-2.25,1.16-2.52,2.58-.6,3.17-.9,6.41-1.77,9.53-.69,1.71-.67,3.57-1.15,5.34-.32,1.17-.86,1.41-1.9,1-5.38-2.2-10.74-4.42-16.12-6.61a2.71,2.71,0,0,1-1.29-1c-1.15-2.78-1.26-5.8-1.87-8.7s-1-6-1.54-9a2.94,2.94,0,0,0-2.6-2.78,2.72,2.72,0,0,0-2.55,2.4c-.46,1.87-.67,3.78-1,5.68-.24,1.46-.52,2.91-.88,4.35-.18.63-.42,1.25-.54,1.9-.28,1.47-.74,1.74-2.19,1.21-2.18-.8-4.3-1.72-6.45-2.61-3.16-1.3-6.35-2.55-9.52-3.83a3.74,3.74,0,0,1-1.71-1c-1-2.93-1.28-6-1.94-9s-.89-6-1.6-9c-.32-1.36-1-2.35-2.51-2.4-1.69.15-2.37,1.28-2.6,2.76q-.75,4.75-1.62,9.49a6.4,6.4,0,0,1-.42,1.6c-.81,2.09-.81,2.1-2.92,1.27-5.21-2.08-10.42-4.15-15.6-6.31a4,4,0,0,1-1.68-1c-1.06-2.85-1.25-5.9-1.89-8.85s-.93-6-1.6-8.94A3,3,0,0,0,61,85.93a3.11,3.11,0,0,0-2.49,2.92c-.46,2.82-1,5.62-1.43,8.44a14.84,14.84,0,0,1-.81,3.36c-.46,1.08-1.28,1.07-2.2.7C48.22,99,42.34,96.76,36.6,94.15a2.43,2.43,0,0,1-.61-.49,1.66,1.66,0,0,1-.26-.47,17.26,17.26,0,0,0-.7-3.56,18.59,18.59,0,0,1-.45-2.77c.12-4.36.5-8.71.81-13,.36-5.19.75-10.37,1.12-15.55l1.2-16.7c.18-2.54.43-5.07.56-7.61,0-.68-.28-1.62.74-2"/><path id="Tracé_5" data-name="Tracé 5" class="cls-2" d="M39,32q-.48,6-1,12.1c-.44,5.66-.9,11.31-1.27,17q-.32,4.71-.68,9.39C35.64,76,35.36,81.54,35,87.1c-.89-.12-.72-.88-.79-1.41-.28-2.24-.89-4.42-1.08-6.67A7.25,7.25,0,0,0,30.43,74a4.07,4.07,0,0,1-.16-1.8q1.1-13.53,2-27.07c.21-3.2.5-6.38.68-9.58a7,7,0,0,1,.75-3.2c.46-6.25.94-12.5,1.36-18.75.06-.82.27-1.25,1.16-1.15,1.14.13,2.29.23,3.44.34.84.08.71.72.67,1.25-.24,3.4-.5,6.8-.75,10.2-.08,1-.14,2.08-.21,3.13-.46,1.52.14,3.13-.34,4.65Z"/><path id="Tracé_6" data-name="Tracé 6" class="cls-2" d="M272.44,84.78c-.55-7.42-1.11-14.83-1.63-22.25-.27-3.79-.45-7.59-.73-11.39-.39-5.38-.87-10.76-1.26-16.14-.19-2.53-.25-5.07-.39-7.6,0-.59.18-1.23-.31-1.74-.24-3.91-.45-7.81-.75-11.71-.06-.85.07-1.16,1-1.26,4.3-.46,4.2-.48,4.43,4,.24,4.89.67,9.77,1,14.66,1.37,4.21,1,8.62,1.43,12.94.51,5.5.88,11,1.21,16.53.26,4.3,1,8.57.68,12.89a1.64,1.64,0,0,1-.24.52c-2.24,1.07-2.77,3.13-3,5.32-.13,1.48-.6,2.89-.77,4.37,0,.4-.07.92-.71.9"/><path id="Tracé_7" data-name="Tracé 7" class="cls-3" d="M276.77,74.06a3.26,3.26,0,0,1,3,2.92q1.28,7.29,2.6,14.56a7.75,7.75,0,0,0,.27.94,59.32,59.32,0,0,1,.37,9.7c0,.68,0,1.38-.73,1.69-2.37,1-2.47,3.17-2.56,5.25-.1,2.57-.35,2.87-3,2.82a2.84,2.84,0,0,1-.53-2.19q0-16.66,0-33.34a2.77,2.77,0,0,1,.55-2.19Z"/><path id="Tracé_8" data-name="Tracé 8" class="cls-3" d="M24.45,92.49c1-4.16,1.62-8.38,2.34-12.59a20.28,20.28,0,0,1,.72-3.71,2.66,2.66,0,0,1,2.54-2,2.49,2.49,0,0,1,.85,2.23q0,16.57,0,33.17c0,2.16-.55,2.44-2.88,1.75-1-.27-.63-1.08-.6-1.65a11.24,11.24,0,0,0-.64-3.9,1.86,1.86,0,0,0-1.06-1.4c-1.57-.56-1.7-1.75-1.66-3.18a59.36,59.36,0,0,1,.4-8.74"/><path id="Tracé_9" data-name="Tracé 9" class="cls-3" d="M28,111.37c2.37,0,2.37,0,2.37-2.44q0-16.14,0-32.28a7.74,7.74,0,0,0-.34-2.44l.64-.1c2.74.91,2.59,3.39,3,5.56.46,2.47.88,5,1.32,7.43l.36,2.65c.3,1.2.3,2.46.68,3.66v0c.29.66.73,1.25,1,1.94a49.79,49.79,0,0,1,.11,6.91c0,1.22-.87,1.81-1.81,2.33-.59.2-.85.79-1.33,1.11a7.1,7.1,0,0,0-.89,3.77c0,2-.42,2.5-2.5,2.53-.89,0-1.9.32-2.59-.61"/><path id="Tracé_10" data-name="Tracé 10" class="cls-3" d="M276.76,74.22q0,18.87,0,37.73a3.94,3.94,0,0,1-2.58-.64.57.57,0,0,1-.23-.57,7.84,7.84,0,0,0-1.06-5,1.87,1.87,0,0,0-1-1.11,3.06,3.06,0,0,1-1.89-3.32c.13-2.09-.18-4.18.19-6.26.23-.59.72-1,1-1.61.26-2.9,1.23-5.69,1.35-8.61.86-2.61.83-5.39,1.57-8,.4-1.42,1.08-2.51,2.75-2.54"/><path id="Tracé_11" data-name="Tracé 11" class="cls-3" d="M273.15,107.7c0-.77,0-1.54,0-2.32,1.37,1.8.81,3.93,1,5.92-.79-.58-.27-1.42-.42-2.12-.11-.53.3-1.27-.6-1.48"/><path id="Tracé_12" data-name="Tracé 12" class="cls-1" d="M39,32c.11-1.55-.26-3.14.34-4.65-.14,1.55.38,3.14-.34,4.65"/><path id="Tracé_13" data-name="Tracé 13" class="cls-4" d="M35.35,164.92c0-.15,0-.3,0-.44l.68.31c.38.35.9.6.94,1.36a2.18,2.18,0,0,1-1.67-1.23"/><path id="Tracé_14" data-name="Tracé 14" class="cls-2" d="M221,113.67c3.13-.69,5.95-2.21,8.92-3.34,3.33-1.27,6.61-2.66,9.92-4,.85.94.5,2.08.49,3.14a3.67,3.67,0,0,0,1.56,3.34,4.68,4.68,0,0,1,1.55,4.72c-.42.68-1.16.82-1.81,1.09l-20.31,8.16c-1.77.71-2.75,1.66-2.61,3.66,0,.52.31,1.53-.9,1.36-.74-2.79-.27-5.27,2.1-7.1a3,3,0,0,0,1.26-2.69c0-2,0-4,0-6a3.6,3.6,0,0,0-.3-1.94.53.53,0,0,1,.13-.45"/><path id="Tracé_15" data-name="Tracé 15" class="cls-2" d="M190.11,125.64c.71,1,1.47.3,2.16,0q8.35-3.35,16.69-6.72c.85.94.48,2.09.49,3.16a3.24,3.24,0,0,0,1.34,2.82c1.58,1.18,1.94,3,1.9,4.87a1.4,1.4,0,0,1-.22.48c-3,1.38-6.13,2.5-9.19,3.78-4.49,1.89-9,3.76-13.53,5.49-.67.26-1.38.84-2.14.14a2.09,2.09,0,0,1,1.23-2.43,2.85,2.85,0,0,0,1.44-2.9c-.16-2.56.37-5.15-.46-7.67a1,1,0,0,1,.29-1"/><path id="Tracé_16" data-name="Tracé 16" class="cls-2" d="M159.59,138.85c4-1.3,7.73-3.08,11.6-4.6a63.24,63.24,0,0,1,6.88-2.69c.83.81.51,1.85.5,2.79a3.4,3.4,0,0,0,1.38,3,4.92,4.92,0,0,1,1.73,5.13c-.38.63-1.06.77-1.66,1-7.26,3-14.52,6-21.83,8.87-.47.19-1,.62-1.49,0a2.5,2.5,0,0,1,1.44-2.86,2.52,2.52,0,0,0,1.27-2.47c-.08-2.47.11-5-.18-7.42a.92.92,0,0,1,.36-.75"/><path id="Tracé_17" data-name="Tracé 17" class="cls-2" d="M129,131.28c5.84,2.42,11.69,4.83,17.53,7.28.87.36.9,0,1.12-.72.54-1.72.28-3.62,1.24-5.23.52.49.4,1.1.31,1.7a14.34,14.34,0,0,1-.48,2.6c-1.17,3.31-1,6.72-1,10.14a2.54,2.54,0,0,0,1.18,2.38,3.4,3.4,0,0,1,1.61,2.21,1.21,1.21,0,0,1-.13.79c-.43.38-.84.08-1.23-.07-7.6-3-15.15-6.2-22.76-9.21a.87.87,0,0,1-.59-.53,2.67,2.67,0,0,1,1.39-2.62,2.56,2.56,0,0,0,1.34-2.59c0-1.43,0-2.86,0-4.28,0-.65-.08-1.34.48-1.85"/><path id="Tracé_18" data-name="Tracé 18" class="cls-2" d="M98.16,119l17,6.77c1.83.73,1.82.72,2.3-1.23.1-.41.11-.89.54-1.17a1.22,1.22,0,0,1,.32,1.23,57.31,57.31,0,0,0-1.69,13.74c-.71,1-1.51.29-2.2,0-4.79-1.85-9.49-3.9-14.28-5.75-1.8-.69-3.5-1.82-5.58-1.14a3.64,3.64,0,0,1,1.69-3.69,3,3,0,0,0,1.36-2.8c-.05-1.38,0-2.76,0-4.14,0-.65-.08-1.35.51-1.84"/><path id="Tracé_19" data-name="Tracé 19" class="cls-2" d="M67.27,106.34c5.76,2.32,11.53,4.6,17.26,7,1.28.53,2,.51,2.31-1a1.63,1.63,0,0,1,.33,1.71A32,32,0,0,0,86,124.89a2.06,2.06,0,0,1-.17.81c-.83,1.08-1.73.33-2.52,0-5.35-2.24-10.77-4.29-16.11-6.52-1-.42-2.16-.37-3.07-1.05a2.82,2.82,0,0,1,1.37-2.81,3,3,0,0,0,1.32-2.84c0-1.43,0-2.87,0-4.3,0-.65-.08-1.34.5-1.85"/><path id="Tracé_20" data-name="Tracé 20" class="cls-2" d="M272.45,104.45l-.06,1.59c-7.16,3.17-14.52,5.84-21.75,8.84-.42.18-.91.52-1.32-.08-.26-1.2.48-1.86,1.36-2.37a2.64,2.64,0,0,0,1.37-2.59c0-2.14,0-4.28,0-6.42a2.64,2.64,0,0,0-.29-1.63.47.47,0,0,1,.13-.43l18.58-7.56a.75.75,0,0,1,0,1c0,2,.1,4.07-.09,6.09a3.07,3.07,0,0,0,2.05,3.59"/><path id="Tracé_21" data-name="Tracé 21" class="cls-2" d="M34.74,106.05c0-.53,0-1.06-.07-1.58a3.1,3.1,0,0,0,2.06-3.61c-.19-1.91-.06-3.85-.07-5.78a1,1,0,0,1,0-1.29l17.41,7.13c.61.25,1.32.72,1.84-.19.8,1,.18,1.92-.07,2.81a25,25,0,0,0-.74,7.66,5.84,5.84,0,0,1-.18,2.12c-.48.86-1.18.44-1.74.21C47,111,40.81,108.75,34.74,106.05"/><path id="Tracé_22" data-name="Tracé 22" class="cls-3" d="M54.58,113.68c0-.66.07-1.32,0-2a26.5,26.5,0,0,1,1.27-10,3.51,3.51,0,0,0,0-1c.74-4.16,1.47-8.32,2.24-12.47a3.05,3.05,0,0,1,2.77-2.76,2.51,2.51,0,0,1,.85,2.23q0,16.56,0,33.12a4.46,4.46,0,0,1-.51,2.23c-1.68,1.08-3.19.44-3.41-1.5a21,21,0,0,0-.44-3.25,3.84,3.84,0,0,0-2-2.69c-.73-.37-1.43-.93-.87-2"/><path id="Tracé_23" data-name="Tracé 23" class="cls-3" d="M243.14,117.68c-.11-2.09-.16-4.19-2.52-5.21-.63-.27-.73-.88-.73-1.53,0-1.54,0-3.07,0-4.61.12-5.55,1.75-10.88,2.49-16.34.22-1.58.49-3.16.84-4.72a2.73,2.73,0,0,1,2.7-2.43,2.48,2.48,0,0,1,.84,2.23c0,11,0,22,0,33a3.92,3.92,0,0,1-.65,2.53,1.89,1.89,0,0,1-2.63-.3,2,2,0,0,1-.28-2.65"/><path id="Tracé_24" data-name="Tracé 24" class="cls-3" d="M98.16,119c0,2.24-.08,4.49,0,6.74A2,2,0,0,1,97,127.82a4,4,0,0,0-2.17,3.73c.68,1.48.64,3.06-.2,3.78a2.18,2.18,0,0,1-3,.23,4.39,4.39,0,0,1-.39-2.42q0-16.24,0-32.5a3.32,3.32,0,0,1,.53-2.52c1.9.06,2.68.69,3,2.54q1.68,9.14,3.32,18.29"/><path id="Tracé_25" data-name="Tracé 25" class="cls-3" d="M129,131.28c0,2.36,0,4.73,0,7.1a1.49,1.49,0,0,1-1,1.68,3,3,0,0,0-2,2.78c.1,1.67.66,3.41-.7,4.88-.62.24-1.23.54-1.87.74a.94.94,0,0,1-1-.51,6.74,6.74,0,0,1-.26-2.45q0-16.2,0-32.41c0-.92-.19-1.9.52-2.69a2.68,2.68,0,0,1,3,2.48c1.16,6.13,2.24,12.26,3.36,18.4"/><path id="Tracé_26" data-name="Tracé 26" class="cls-3" d="M212.37,129.89c-.29-2-.29-4.12-2.61-5.1-.63-.27-.75-.89-.74-1.55,0-1.43,0-2.86-.06-4.29.09-5.6,1.8-11,2.53-16.46a47.26,47.26,0,0,1,.86-4.87A2.79,2.79,0,0,1,215,95.13c.85.43.84,1.25.84,2q0,16.8,0,33.6c0,1.87-.27,2.06-2,2s-1.57-1.59-1.52-2.83"/><path id="Tracé_27" data-name="Tracé 27" class="cls-3" d="M181.45,142.55c0-2.18-.19-4.29-2.51-5.41a1.58,1.58,0,0,1-.81-1.65c0-1.31,0-2.62-.06-3.93.3-7,2.38-13.69,3.23-20.58a4,4,0,0,1,.22-1.14c.54-1.3,1.21-2.5,2.91-2.42a2.58,2.58,0,0,1,.54,2q0,16.64,0,33.28c0,2.33-.2,2.45-2.81,2.25-1.32-.49-1.34-1.36-.71-2.42"/><path id="Tracé_28" data-name="Tracé 28" class="cls-3" d="M182.05,144.58c2.39-.05,2.39-.05,2.39-2.59V107.42c1.84.13,2.65,1.34,2.95,3,.93,5.08,1.82,10.17,2.72,15.26,1,3.16.54,6.41.65,9.63a1.92,1.92,0,0,1-1.25,2.08,2.5,2.5,0,0,0-1.72,2.56,2.45,2.45,0,0,1,0,.27,3.74,3.74,0,0,0-.22,1.75,3,3,0,0,1-2.25,3.58c-1.18,0-2.57.8-3.25-.93"/><path id="Tracé_29" data-name="Tracé 29" class="cls-3" d="M159.55,139.51c.67,3,.19,6,.28,9,0,.68-.64.83-1.11,1.07a3,3,0,0,0-1.84,2.86,6.68,6.68,0,0,1,0,3.55c-.37,1.65-2,2.21-3.54,1.32a5.33,5.33,0,0,1-.31-2.44q0-16.09,0-32.18c0-.92-.19-1.9.52-2.7a2.56,2.56,0,0,1,2.89,2.3c.49,2.17.76,4.39,1.12,6.6.31,1.31.33,2.67.66,4h0c.49,2.19.74,4.42,1.33,6.59"/><path id="Tracé_30" data-name="Tracé 30" class="cls-3" d="M213.66,132.27c1.34.4,1.71,0,1.7-1.47-.07-11.25,0-22.5,0-33.75a3.19,3.19,0,0,0-.32-1.92A3.07,3.07,0,0,1,218.2,98c.74,4,1.41,8.09,2.12,12.13.21,1.19.45,2.37.68,3.56l0,.33c.42.48.25,1.19.64,1.68q0,3.63,0,7.27c0,.6.07,1.2-.62,1.55-2.65,1.35-3.21,3.7-3,6.39,0,.33,0,.66,0,1-.65,1.41-1.25,1.64-3.51,1.35-.42-.2-.91-.34-.85-1"/><path id="Tracé_31" data-name="Tracé 31" class="cls-3" d="M245.87,120.58a16.59,16.59,0,0,0,.34-3.44q0-15.93,0-31.86a7.47,7.47,0,0,0-.35-2.44,2.83,2.83,0,0,1,3.08,2.57c.79,4.17,1.49,8.36,2.25,12.54.2,1.14.46,2.27.69,3.41l0,.35c.43.35.23,1,.62,1.37,0,2.41-.05,4.82.07,7.22a2.21,2.21,0,0,1-1.48,2.4,2.27,2.27,0,0,0-1.55,2.27,18.91,18.91,0,0,1-.33,4.38c-.23,1.51-1.78,2-3.32,1.23"/><path id="Tracé_32" data-name="Tracé 32" class="cls-3" d="M153.56,120v37.41a.53.53,0,0,1-.49.15c-2.52-.82-2.58-.93-2.62-3.62,0-.7.29-1.44-.19-2.1s-.5-1.54-1.3-1.84c-1.67-.63-1.63-1.94-1.75-3.45-.33-4.24.7-8.27,1.55-12.34a4.27,4.27,0,0,0,.14-1.63c.57-3.36,1.11-6.73,1.74-10.08.29-1.56,1.13-2.63,2.92-2.49"/><path id="Tracé_33" data-name="Tracé 33" class="cls-3" d="M91.8,98.12v37.4a.42.42,0,0,1-.44.15c-.89-.4-2-.46-2.47-1.55-.27-1.06-.3-2.15-.55-3.22a4.12,4.12,0,0,0-2.21-3c-.73-.35-1.25-.93-.7-1.84,0-.83.11-1.66.06-2.48a24.63,24.63,0,0,1,1.2-9.37,7.69,7.69,0,0,0,.15-1.79c.9-3.8,1.36-7.68,2-11.52.29-1.61,1-2.78,2.91-2.75"/><path id="Tracé_34" data-name="Tracé 34" class="cls-3" d="M122.68,110.4v37.74a.4.4,0,0,1-.47.09c-2.18-.71-2.93-2.25-2.63-4.45a2.19,2.19,0,0,0-.5-1.85,6.73,6.73,0,0,0-2-1.64c-.57-.4-1.26-.8-.74-1.7.06-1.15.07-2.31,0-3.46-.34-3.64.84-7,1.52-10.51.08-.43.1-.87.15-1.3.58-3.45,1.13-6.91,1.77-10.35.28-1.53,1.12-2.61,2.88-2.57"/><path id="Tracé_35" data-name="Tracé 35" class="cls-3" d="M60.92,123.24a15,15,0,0,0,.34-4.27q0-15.52,0-31a7.47,7.47,0,0,0-.35-2.44,2.88,2.88,0,0,1,3,2.47c.82,4.16,1.52,8.34,2.27,12.52q.52,2.92,1.07,5.85c0,2.35,0,4.7,0,7,0,.82-.09,1.54-.93,1.92a3.52,3.52,0,0,0-2.06,2.92,9.4,9.4,0,0,1,.11,3.3c-.19,1.92-1.64,2.62-3.44,1.71"/><path id="Tracé_36" data-name="Tracé 36" class="cls-3" d="M159.56,139.51a19.59,19.59,0,0,1-1.33-6.59c.92,1.87.83,4,1.36,5.93l0,.66"/><path id="Tracé_37" data-name="Tracé 37" class="cls-3" d="M158.23,132.92a7.34,7.34,0,0,1-.66-4,7.49,7.49,0,0,1,.66,4"/><path id="Tracé_38" data-name="Tracé 38" class="cls-3" d="M36.05,93.4a5.76,5.76,0,0,1-.67-3.66,7.21,7.21,0,0,1,.67,3.66"/><path id="Tracé_39" data-name="Tracé 39" class="cls-3" d="M36.66,93.79v1.29c-.71-.38-.68-1-.61-1.69l.61.4"/><path id="Tracé_40" data-name="Tracé 40" class="cls-3" d="M270.49,94.77l0-1,.63-.41c0,.55.22,1.19-.6,1.39"/><path id="Tracé_41" data-name="Tracé 41" class="cls-5" d="M271.41,163.14l-.42.05a2.83,2.83,0,0,1-.52-.39c-.19-.22-.6-.46-.24-.79s.58.09.8.29.5.56.75.84h-.37"/><path id="Tracé_42" data-name="Tracé 42" class="cls-6" d="M35.35,163.14c.3.13.33.4.33.68-.35,0-.8.1-1-.41l.63-.27"/><path id="Tracé_43" data-name="Tracé 43" class="cls-3" d="M221.6,115.68c-.7-.37-.66-1-.63-1.68.78.34.68,1,.63,1.68"/><path id="Tracé_44" data-name="Tracé 44" class="cls-3" d="M214.34,132.88c-1.91-.1-2.05-.27-2.08-2.57,0-.14.08-.28.11-.42.67.67-.34,2.24,1.29,2.38l.68.61"/><path id="Tracé_45" data-name="Tracé 45" class="cls-3" d="M153.23,157.44c-2.36-.05-2.56-.26-2.57-2.54a4.35,4.35,0,0,0-.4-2.41v-.62c.92.45.66,1.31.65,2,0,1.52-.2,3.07,2,3.16.11,0,.21.24.31.36"/><path id="Tracé_46" data-name="Tracé 46" class="cls-3" d="M252.47,103.08c-.81-.18-.61-.82-.62-1.37.9.14.62.82.62,1.37"/><path id="Tracé_47" data-name="Tracé 47" class="cls-3" d="M125,147.54c-.14.89-.79.65-1.35.62a1.2,1.2,0,0,1,1.35-.62"/><path id="Tracé_48" data-name="Tracé 48" class="cls-3" d="M187.77,139.91a8.54,8.54,0,0,0-.35,3.22c.11,1.46-.54,2.14-2,2,1.66-.59,1.84-1.87,1.7-3.39-.06-.66-.24-1.48.66-1.85"/><path id="Tracé_49" data-name="Tracé 49" class="cls-3" d="M91.47,135.52c-1-.06-2.13.23-2.33-1.26.59.76,1.8.39,2.33,1.26"/><path id="Tracé_50" data-name="Tracé 50" class="cls-3" d="M122.36,148.14c-2-.08-2.63-.61-2.52-2.52.09-1.41-.56-2.67-.54-4,1,.69.77,1.76.72,2.7-.07,1.53,0,2.86,1.89,3.23.29.06.4.34.44.63"/><path id="Tracé_51" data-name="Tracé 51" class="cls-3" d="M36.41,117.66c-1,4.15-1.62,8.38-2.34,12.59a19.52,19.52,0,0,1-.72,3.7,2.64,2.64,0,0,1-2.54,2,2.46,2.46,0,0,1-.85-2.22q0-16.59,0-33.17c0-2.16.55-2.44,2.88-1.76.95.27.63,1.09.6,1.66a11.18,11.18,0,0,0,.64,3.89,1.88,1.88,0,0,0,1.06,1.41c1.57.56,1.7,1.74,1.66,3.17a59.49,59.49,0,0,1-.4,8.75"/><path id="Tracé_52" data-name="Tracé 52" class="cls-3" d="M32.85,98.78c-2.37,0-2.37,0-2.37,2.43q0,16.14,0,32.29a7.72,7.72,0,0,0,.34,2.43l-.63.11c-2.75-.92-2.6-3.4-3-5.56-.46-2.48-.88-5-1.32-7.44l-.36-2.64c-.3-1.21-.3-2.47-.67-3.66h0c-.3-.66-.73-1.25-1-1.93a51.42,51.42,0,0,1-.11-6.91c0-1.23.87-1.82,1.81-2.34.59-.19.85-.79,1.33-1.11a7.08,7.08,0,0,0,.89-3.77c0-2,.42-2.5,2.5-2.53.89,0,1.9-.31,2.59.61"/><path id="Tracé_53" data-name="Tracé 53" class="cls-3" d="M55,104.61c1-4.16,1.62-8.39,2.33-12.6a21.22,21.22,0,0,1,.72-3.7,2.66,2.66,0,0,1,2.54-2,2.44,2.44,0,0,1,.85,2.22q0,16.59,0,33.17c0,2.17-.55,2.45-2.87,1.76-1-.27-.64-1.08-.6-1.66a11.47,11.47,0,0,0-.65-3.89,1.91,1.91,0,0,0-1-1.41c-1.58-.55-1.7-1.74-1.67-3.17a62.24,62.24,0,0,1,.4-8.74"/><path id="Tracé_54" data-name="Tracé 54" class="cls-3" d="M58.51,123.48c2.36,0,2.36,0,2.36-2.43q0-16.14,0-32.29a7.44,7.44,0,0,0-.34-2.43l.64-.1c2.74.91,2.6,3.39,3,5.56.47,2.47.89,4.95,1.33,7.43l.36,2.64c.29,1.21.29,2.47.67,3.66h0c.3.66.73,1.25,1,1.94a49.65,49.65,0,0,1,.12,6.9c0,1.23-.87,1.82-1.81,2.34-.59.19-.85.79-1.34,1.11a7.1,7.1,0,0,0-.89,3.77c0,2-.41,2.5-2.49,2.53-.89,0-1.9.31-2.59-.61"/><path id="Tracé_55" data-name="Tracé 55" class="cls-3" d="M66.9,129.77c-1,4.16-1.62,8.39-2.33,12.6a21.22,21.22,0,0,1-.72,3.7,2.66,2.66,0,0,1-2.54,2,2.44,2.44,0,0,1-.85-2.22q0-16.59,0-33.17c0-2.17.55-2.45,2.87-1.76,1,.27.64,1.08.6,1.66a11.47,11.47,0,0,0,.65,3.89,1.91,1.91,0,0,0,1,1.41c1.58.55,1.71,1.74,1.67,3.17a62.24,62.24,0,0,1-.4,8.74"/><path id="Tracé_56" data-name="Tracé 56" class="cls-3" d="M63.34,110.9c-2.36,0-2.36,0-2.36,2.43q0,16.14,0,32.29a7.44,7.44,0,0,0,.34,2.43l-.64.1c-2.74-.91-2.6-3.39-3-5.56-.47-2.47-.89-5-1.33-7.43L56,132.52c-.3-1.21-.29-2.47-.67-3.66h0c-.3-.66-.73-1.25-1-1.94a49.65,49.65,0,0,1-.12-6.9c0-1.23.87-1.82,1.81-2.34.59-.19.85-.79,1.34-1.11a7.1,7.1,0,0,0,.89-3.77c0-2,.41-2.5,2.49-2.53.89,0,1.9-.31,2.59.61"/><path id="Tracé_57" data-name="Tracé 57" class="cls-3" d="M85.83,117.31c1-4.16,1.62-8.38,2.33-12.59a21.15,21.15,0,0,1,.72-3.71,2.67,2.67,0,0,1,2.54-2,2.46,2.46,0,0,1,.85,2.23q0,16.58,0,33.17c0,2.16-.55,2.44-2.87,1.76-1-.27-.64-1.09-.6-1.66a11.43,11.43,0,0,0-.65-3.89,1.86,1.86,0,0,0-1.06-1.41c-1.57-.56-1.7-1.75-1.66-3.17a59.49,59.49,0,0,1,.4-8.75"/><path id="Tracé_58" data-name="Tracé 58" class="cls-3" d="M89.39,136.19c2.36,0,2.36,0,2.36-2.44q0-16.14,0-32.28A7.46,7.46,0,0,0,91.42,99l.64-.1c2.74.91,2.59,3.4,3,5.56.47,2.47.89,5,1.33,7.43l.36,2.65c.29,1.2.29,2.47.67,3.66h0c.3.65.73,1.24,1,1.93a49.79,49.79,0,0,1,.12,6.91c0,1.22-.88,1.82-1.82,2.33-.58.2-.84.79-1.33,1.11a7.11,7.11,0,0,0-.89,3.78c0,2-.41,2.5-2.49,2.52-.89,0-1.9.32-2.59-.61"/><path id="Tracé_59" data-name="Tracé 59" class="cls-3" d="M97.78,142.48c-1,4.16-1.62,8.38-2.33,12.59a21.22,21.22,0,0,1-.72,3.7,2.68,2.68,0,0,1-2.54,2,2.46,2.46,0,0,1-.85-2.23q0-16.59,0-33.17c0-2.17.55-2.45,2.87-1.76,1,.27.64,1.09.6,1.66a11.47,11.47,0,0,0,.65,3.89,1.89,1.89,0,0,0,1,1.41c1.58.55,1.7,1.74,1.66,3.17a59.49,59.49,0,0,1-.4,8.75"/><path id="Tracé_60" data-name="Tracé 60" class="cls-3" d="M94.22,123.6c-2.37,0-2.37,0-2.37,2.43q0,16.16,0,32.29a7.69,7.69,0,0,0,.35,2.43l-.64.11c-2.74-.91-2.6-3.4-3-5.56-.47-2.48-.89-5-1.33-7.44l-.36-2.64c-.3-1.21-.29-2.47-.67-3.66h0c-.3-.66-.73-1.24-1-1.93a49.82,49.82,0,0,1-.12-6.91c0-1.23.87-1.82,1.81-2.34.59-.19.85-.78,1.34-1.11a7.17,7.17,0,0,0,.89-3.77c0-2,.41-2.5,2.49-2.53.89,0,1.9-.31,2.59.62"/><path id="Tracé_61" data-name="Tracé 61" class="cls-3" d="M116.7,130c1-4.15,1.63-8.38,2.34-12.59a20.34,20.34,0,0,1,.72-3.7,2.66,2.66,0,0,1,2.54-2,2.49,2.49,0,0,1,.85,2.23q0,16.59,0,33.17c0,2.17-.55,2.45-2.88,1.76-1-.27-.63-1.08-.6-1.66a11.22,11.22,0,0,0-.64-3.89,1.9,1.9,0,0,0-1.06-1.41c-1.57-.55-1.7-1.74-1.66-3.17a59.49,59.49,0,0,1,.4-8.75"/><path id="Tracé_62" data-name="Tracé 62" class="cls-3" d="M120.26,148.84c2.37,0,2.37,0,2.37-2.44q0-16.14,0-32.28a7.74,7.74,0,0,0-.34-2.44l.64-.1c2.74.91,2.59,3.39,3,5.56.47,2.47.88,5,1.32,7.43l.36,2.65c.3,1.2.3,2.46.68,3.66h0c.29.65.73,1.24,1,1.93a49.79,49.79,0,0,1,.12,6.91c0,1.22-.88,1.82-1.82,2.33-.59.2-.84.79-1.33,1.11a7.1,7.1,0,0,0-.89,3.77c0,2-.42,2.5-2.49,2.53-.9,0-1.9.32-2.59-.61"/><path id="Tracé_63" data-name="Tracé 63" class="cls-3" d="M128.66,155.12c-1,4.16-1.62,8.39-2.33,12.6a20.36,20.36,0,0,1-.73,3.7,2.64,2.64,0,0,1-2.53,2,2.48,2.48,0,0,1-.86-2.22q0-16.59,0-33.17c0-2.17.56-2.45,2.88-1.76,1,.27.64,1.08.6,1.66a11.22,11.22,0,0,0,.64,3.89,1.92,1.92,0,0,0,1.06,1.41c1.58.55,1.7,1.74,1.66,3.17a59.36,59.36,0,0,1-.4,8.74"/><path id="Tracé_64" data-name="Tracé 64" class="cls-3" d="M125.1,136.25c-2.37,0-2.37,0-2.37,2.43q0,16.14,0,32.29a7.45,7.45,0,0,0,.35,2.43l-.64.1c-2.74-.91-2.6-3.39-3-5.56-.47-2.47-.89-4.95-1.33-7.43l-.36-2.64c-.3-1.21-.3-2.47-.67-3.66h0c-.3-.66-.73-1.25-1-1.94a51.24,51.24,0,0,1-.11-6.9c0-1.23.87-1.82,1.81-2.34.59-.19.85-.79,1.33-1.11a7.2,7.2,0,0,0,.9-3.77c0-2,.41-2.5,2.49-2.53.89,0,1.9-.31,2.59.61"/><path id="Tracé_65" data-name="Tracé 65" class="cls-3" d="M147.76,139.28c1-4.16,1.62-8.38,2.33-12.59a20.36,20.36,0,0,1,.73-3.7,2.66,2.66,0,0,1,2.53-2,2.49,2.49,0,0,1,.86,2.23q0,16.59,0,33.17c0,2.17-.56,2.45-2.88,1.76-.95-.27-.63-1.09-.6-1.66a11.22,11.22,0,0,0-.64-3.89A1.9,1.9,0,0,0,149,151.2c-1.58-.55-1.7-1.74-1.66-3.17a59.49,59.49,0,0,1,.4-8.75"/><path id="Tracé_66" data-name="Tracé 66" class="cls-3" d="M151.32,158.16c2.37,0,2.37,0,2.37-2.43q0-16.15,0-32.29a7.37,7.37,0,0,0-.35-2.43l.64-.11c2.75.91,2.6,3.4,3,5.56.47,2.47.89,5,1.33,7.44l.36,2.64c.3,1.21.3,2.47.67,3.66h0c.3.66.73,1.24,1,1.93a51.42,51.42,0,0,1,.11,6.91c0,1.23-.87,1.82-1.81,2.34-.59.19-.85.78-1.33,1.1a7.24,7.24,0,0,0-.9,3.78c0,2-.41,2.5-2.49,2.53-.89,0-1.9.31-2.59-.62"/><path id="Tracé_67" data-name="Tracé 67" class="cls-3" d="M159.72,164.45c-1,4.16-1.63,8.38-2.34,12.59a20.28,20.28,0,0,1-.72,3.71,2.67,2.67,0,0,1-2.54,2,2.46,2.46,0,0,1-.85-2.23q0-16.59,0-33.17c0-2.16.55-2.45,2.88-1.76,1,.27.63,1.09.6,1.66a11.18,11.18,0,0,0,.64,3.89,1.89,1.89,0,0,0,1,1.41c1.58.56,1.71,1.74,1.67,3.17a59.49,59.49,0,0,1-.4,8.75"/><path id="Tracé_68" data-name="Tracé 68" class="cls-3" d="M156.16,145.57c-2.37,0-2.37,0-2.37,2.43q0,16.16,0,32.29a7.64,7.64,0,0,0,.34,2.43l-.64.11c-2.74-.91-2.59-3.4-3-5.56-.46-2.47-.88-5-1.32-7.43l-.36-2.65c-.3-1.21-.3-2.47-.68-3.66h0c-.29-.66-.73-1.24-1-1.93a49.79,49.79,0,0,1-.12-6.91c0-1.22.88-1.82,1.82-2.33.59-.2.84-.79,1.33-1.11a7.11,7.11,0,0,0,.89-3.78c0-2,.42-2.5,2.49-2.53.9,0,1.9-.31,2.59.62"/><path id="Tracé_69" data-name="Tracé 69" class="cls-3" d="M179,126.22c1-4.16,1.62-8.38,2.33-12.59a21.15,21.15,0,0,1,.72-3.71,2.68,2.68,0,0,1,2.54-2,2.46,2.46,0,0,1,.85,2.23q0,16.59,0,33.17c0,2.17-.55,2.45-2.87,1.76-1-.27-.64-1.09-.6-1.66a11.19,11.19,0,0,0-.65-3.89,1.87,1.87,0,0,0-1-1.41c-1.58-.55-1.7-1.74-1.66-3.17a59.49,59.49,0,0,1,.4-8.75"/><path id="Tracé_70" data-name="Tracé 70" class="cls-3" d="M182.57,145.1c2.37,0,2.37,0,2.37-2.43q0-16.15,0-32.29a7.37,7.37,0,0,0-.35-2.43l.64-.11c2.74.91,2.6,3.4,3,5.56.47,2.47.89,5,1.33,7.44l.36,2.64c.3,1.21.3,2.47.67,3.66h0c.3.66.73,1.24,1,1.93a51.42,51.42,0,0,1,.11,6.91c0,1.23-.87,1.82-1.81,2.34-.59.19-.85.78-1.34,1.11a7.27,7.27,0,0,0-.89,3.77c0,2-.41,2.5-2.49,2.53-.89,0-1.9.31-2.59-.62"/><path id="Tracé_71" data-name="Tracé 71" class="cls-3" d="M191,151.39c-1,4.16-1.62,8.38-2.33,12.59a21.15,21.15,0,0,1-.72,3.71,2.68,2.68,0,0,1-2.54,2,2.46,2.46,0,0,1-.85-2.23q0-16.59,0-33.17c0-2.16.55-2.45,2.87-1.76,1,.27.64,1.09.6,1.66a11.43,11.43,0,0,0,.65,3.89,1.89,1.89,0,0,0,1,1.41c1.58.56,1.7,1.74,1.67,3.17a62.38,62.38,0,0,1-.4,8.75"/><path id="Tracé_72" data-name="Tracé 72" class="cls-3" d="M187.4,132.51c-2.36,0-2.36,0-2.36,2.43q0,16.16,0,32.29a7.37,7.37,0,0,0,.34,2.43l-.64.11c-2.74-.91-2.59-3.4-3-5.56-.47-2.47-.89-5-1.32-7.44q-.19-1.32-.36-2.64c-.3-1.21-.3-2.47-.68-3.66h0c-.3-.66-.73-1.24-1-1.93a49.82,49.82,0,0,1-.12-6.91c0-1.22.88-1.82,1.82-2.34.59-.19.84-.78,1.33-1.11a7.08,7.08,0,0,0,.89-3.77c0-2,.41-2.5,2.49-2.53.9,0,1.9-.31,2.59.62"/><path id="Tracé_73" data-name="Tracé 73" class="cls-3" d="M209.89,114.3c1-4.16,1.62-8.38,2.33-12.59a20.28,20.28,0,0,1,.72-3.71,2.67,2.67,0,0,1,2.54-2,2.46,2.46,0,0,1,.85,2.23q0,16.57,0,33.17c0,2.16-.55,2.44-2.87,1.76-1-.27-.64-1.09-.6-1.66a11.49,11.49,0,0,0-.65-3.9,1.87,1.87,0,0,0-1-1.4c-1.58-.56-1.71-1.75-1.67-3.17a60.9,60.9,0,0,1,.4-8.75"/><path id="Tracé_74" data-name="Tracé 74" class="cls-3" d="M213.45,133.18c2.36,0,2.36,0,2.36-2.44q0-16.14,0-32.28a7.46,7.46,0,0,0-.34-2.44l.64-.1c2.74.91,2.59,3.4,3,5.56.47,2.47.88,5,1.32,7.43l.36,2.65c.3,1.2.3,2.46.68,3.66h0c.29.65.73,1.24,1,1.93a49.79,49.79,0,0,1,.12,6.91c0,1.22-.88,1.82-1.82,2.33-.59.2-.84.79-1.33,1.11a7.1,7.1,0,0,0-.89,3.77c0,2-.42,2.5-2.49,2.53-.9,0-1.9.32-2.59-.61"/><path id="Tracé_75" data-name="Tracé 75" class="cls-3" d="M221.84,139.47c-1,4.15-1.62,8.38-2.33,12.59a20.36,20.36,0,0,1-.73,3.7,2.66,2.66,0,0,1-2.54,2,2.51,2.51,0,0,1-.85-2.23q0-16.59,0-33.17c0-2.17.56-2.45,2.88-1.76.95.27.63,1.08.6,1.66a11.22,11.22,0,0,0,.64,3.89,1.92,1.92,0,0,0,1.06,1.41c1.57.55,1.7,1.74,1.66,3.17a59.49,59.49,0,0,1-.4,8.75"/><path id="Tracé_76" data-name="Tracé 76" class="cls-3" d="M218.28,120.59c-2.37,0-2.37,0-2.37,2.43q0,16.14,0,32.29a7.41,7.41,0,0,0,.35,2.43l-.64.11c-2.74-.91-2.6-3.4-3-5.56-.47-2.48-.89-5-1.33-7.44l-.36-2.64c-.3-1.21-.3-2.47-.67-3.66h0c-.3-.66-.73-1.25-1-1.93a51.42,51.42,0,0,1-.11-6.91c0-1.23.87-1.82,1.81-2.34.59-.19.85-.79,1.33-1.11a7.18,7.18,0,0,0,.9-3.77c0-2,.41-2.5,2.49-2.53.89,0,1.9-.31,2.59.61"/><path id="Tracé_77" data-name="Tracé 77" class="cls-3" d="M239.53,100c1-4.15,1.62-8.38,2.33-12.59a20.36,20.36,0,0,1,.73-3.7,2.66,2.66,0,0,1,2.54-2,2.49,2.49,0,0,1,.85,2.23q0,16.59,0,33.17c0,2.17-.55,2.45-2.88,1.76-1-.27-.63-1.09-.6-1.66a11.22,11.22,0,0,0-.64-3.89,1.88,1.88,0,0,0-1.06-1.41c-1.57-.55-1.7-1.74-1.66-3.17a59.49,59.49,0,0,1,.4-8.75"/><path id="Tracé_78" data-name="Tracé 78" class="cls-3" d="M243.09,118.84c2.37,0,2.37,0,2.37-2.43q0-16.14,0-32.29a7.72,7.72,0,0,0-.34-2.43l.63-.1c2.75.91,2.6,3.39,3,5.56.47,2.47.89,4.95,1.33,7.43l.36,2.64c.3,1.21.3,2.47.67,3.66h0c.3.66.73,1.25,1,1.94a51.24,51.24,0,0,1,.11,6.9c0,1.23-.87,1.82-1.81,2.34-.59.19-.85.79-1.33,1.11a7.2,7.2,0,0,0-.9,3.77c.05,2-.41,2.5-2.49,2.53-.89,0-1.9.31-2.59-.61"/><path id="Tracé_79" data-name="Tracé 79" class="cls-3" d="M251.49,125.13c-1,4.16-1.63,8.39-2.34,12.6a20.34,20.34,0,0,1-.72,3.7,2.66,2.66,0,0,1-2.54,2,2.46,2.46,0,0,1-.85-2.23q0-16.58,0-33.17c0-2.16.55-2.44,2.88-1.76.95.28.63,1.09.6,1.66a11.24,11.24,0,0,0,.64,3.9,1.86,1.86,0,0,0,1.06,1.4c1.57.56,1.7,1.75,1.66,3.18a59.36,59.36,0,0,1-.4,8.74"/><path id="Tracé_80" data-name="Tracé 80" class="cls-3" d="M247.93,106.26c-2.37,0-2.37,0-2.37,2.43q0,16.14,0,32.29a7.72,7.72,0,0,0,.34,2.43l-.64.1c-2.74-.91-2.59-3.39-3-5.56-.46-2.47-.88-4.95-1.32-7.43l-.36-2.65c-.3-1.2-.3-2.46-.68-3.65h0c-.29-.66-.73-1.25-1-1.94a51.37,51.37,0,0,1-.12-6.91c0-1.22.88-1.81,1.82-2.33.59-.19.85-.79,1.33-1.11a7.1,7.1,0,0,0,.89-3.77c0-2,.42-2.5,2.5-2.53.89,0,1.9-.32,2.58.61"/><path id="Tracé_81" data-name="Tracé 81" class="cls-3" d="M271.21,92c1-4.16,1.62-8.38,2.34-12.59a19.47,19.47,0,0,1,.72-3.71,2.66,2.66,0,0,1,2.54-2,2.49,2.49,0,0,1,.85,2.23q0,16.59,0,33.17c0,2.16-.55,2.44-2.88,1.76-.95-.27-.63-1.09-.6-1.66a11.18,11.18,0,0,0-.64-3.89,1.88,1.88,0,0,0-1.06-1.41c-1.57-.56-1.7-1.74-1.66-3.17a59.49,59.49,0,0,1,.4-8.75"/><path id="Tracé_82" data-name="Tracé 82" class="cls-3" d="M274.77,110.86c2.37,0,2.37,0,2.37-2.43q0-16.16,0-32.29a7.64,7.64,0,0,0-.34-2.43l.64-.11c2.74.91,2.59,3.4,3,5.56.46,2.47.88,5,1.32,7.44l.36,2.64c.3,1.21.3,2.47.68,3.66h0c.29.66.73,1.24,1,1.93a49.82,49.82,0,0,1,.12,6.91c0,1.23-.88,1.82-1.82,2.34-.59.19-.84.78-1.33,1.1a7.14,7.14,0,0,0-.89,3.78c0,2-.42,2.5-2.5,2.53-.89,0-1.9.31-2.58-.62"/><path id="Tracé_83" data-name="Tracé 83" class="cls-3" d="M283.17,117.15c-1,4.16-1.62,8.38-2.33,12.59a20.36,20.36,0,0,1-.73,3.7,2.66,2.66,0,0,1-2.54,2,2.51,2.51,0,0,1-.85-2.23q0-16.59,0-33.17c0-2.17.55-2.45,2.88-1.76.95.27.63,1.09.6,1.66a11.22,11.22,0,0,0,.64,3.89,1.88,1.88,0,0,0,1.06,1.41c1.57.55,1.7,1.74,1.66,3.17a59.49,59.49,0,0,1-.4,8.75"/><path id="Tracé_84" data-name="Tracé 84" class="cls-3" d="M279.61,98.27c-2.37,0-2.37,0-2.37,2.43q0,16.15,0,32.29a7.68,7.68,0,0,0,.34,2.43l-.63.11c-2.75-.91-2.6-3.4-3-5.56-.46-2.47-.88-5-1.32-7.44l-.36-2.64c-.3-1.21-.3-2.47-.67-3.66h0c-.3-.66-.73-1.24-1-1.93a51.42,51.42,0,0,1-.11-6.91c0-1.23.87-1.82,1.81-2.34.59-.19.85-.78,1.33-1.1a7.24,7.24,0,0,0,.9-3.78c0-2,.41-2.5,2.49-2.53.89,0,1.9-.31,2.59.62"/></g></g></svg>