<svg id="Calque_1" data-name="Calque 1" xmlns="http://www.w3.org/2000/svg" viewBox="0 0 308.33 190.41"><defs><style>.cls-1{fill:#e9e9e9;}.cls-2{fill:#b0b0b2;}.cls-3{fill:#41689c;}</style></defs><path class="cls-1" d="M37.31,105.31a14.11,14.11,0,0,1-.29-1.39,5.4,5.4,0,0,1-.17-1.39c.12-4.38.5-8.74.81-13.1.36-5.21.76-10.41,1.13-15.61q.6-8.37,1.21-16.76c.18-2.55.43-5.09.55-7.64,0-.68-.28-1.62.75-2a1.17,1.17,0,0,0,1.22.67H269.16c2.62,0,2.55,0,2.19-2.68a36.56,36.56,0,0,1-.08-4.32c.85.14.76.86.8,1.42.35,5.36.66,10.73,1.06,16.08s.79,10.49,1.18,15.74.78,10.49,1.12,15.74c.21,3.37.63,6.73.64,10.11a44,44,0,0,1-1.51,8.73c-5.3,1.87-14.12,5-25.13,8.91-20.71,7.39-25.39,9.15-33.3,10.63-8.88,1.67-15.26,1.76-27.11,1.88-10.26.11-19.49-.22-41.21-1.8-47.47-3.45-51.7-5.4-65.71-3.09a40.07,40.07,0,0,1-11.56.82C55.57,124.89,44.4,114.14,37.31,105.31Z"/><path class="cls-2" d="M282.8,114,229.3,134.5l-151-1.13L33.19,114V102.78l44.4,17.79,151.34.75,53.87-18.54Z"/><path class="cls-2" d="M41.3,47.44c-.33,4.05-.67,8.1-1,12.15-.44,5.68-.9,11.35-1.28,17q-.32,4.72-.68,9.43c-.44,5.57-.72,11.15-1.07,16.73-.88-.12-.72-.88-.79-1.42-.28-2.24-.9-4.43-1.08-6.69a7.3,7.3,0,0,0-2.73-5.09,4.12,4.12,0,0,1-.16-1.81q1.09-13.58,2-27.17c.2-3.2.5-6.4.68-9.61a7,7,0,0,1,.75-3.21c.46-6.28.94-12.55,1.37-18.83,0-.82.26-1.25,1.16-1.15,1.15.13,2.3.23,3.45.34.85.08.71.73.68,1.25-.24,3.42-.51,6.83-.76,10.24-.08,1-.14,2.1-.21,3.14-.46,1.53.15,3.14-.34,4.68Z"/><path class="cls-2" d="M275.6,100.45c-.55-7.45-1.11-14.89-1.64-22.33-.27-3.81-.44-7.62-.72-11.43-.4-5.4-.88-10.8-1.27-16.2-.19-2.54-.25-5.09-.39-7.64,0-.59.18-1.23-.31-1.74-.24-3.92-.45-7.84-.75-11.76-.07-.85.07-1.16,1-1.26,4.32-.46,4.23-.48,4.45,4,.24,4.91.68,9.82,1,14.72,1.37,4.23,1,8.65,1.43,13,.52,5.52.89,11,1.22,16.59.26,4.31,1,8.6.68,12.94a1.75,1.75,0,0,1-.24.52c-2.25,1.07-2.78,3.14-3,5.33-.13,1.5-.6,2.91-.77,4.39C276.27,99.94,276.25,100.47,275.6,100.45Z"/><path class="cls-3" d="M277.4,74.32a4.66,4.66,0,0,1,4.37,4.2q1.85,10.47,3.74,20.92a13.53,13.53,0,0,0,.39,1.34c.79,4.62.5,9.28.53,13.93,0,1,0,2-1.05,2.43-3.39,1.47-3.55,4.56-3.67,7.55-.15,3.68-.51,4.11-4.34,4.05-.88-.9-.76-2.06-.76-3.15q0-24,0-47.9c0-1.1-.11-2.26.79-3.14Z"/><path class="cls-3" d="M29,99.66c1.42-6,2.33-12,3.35-18.09a29.12,29.12,0,0,1,1-5.32,3.82,3.82,0,0,1,3.65-2.85,3.55,3.55,0,0,1,1.22,3.2q.06,23.82,0,47.65c0,3.11-.8,3.51-4.13,2.52-1.38-.39-.92-1.56-.87-2.38a16.23,16.23,0,0,0-.92-5.59,2.74,2.74,0,0,0-1.51-2c-2.27-.79-2.45-2.5-2.39-4.55C28.57,108,28.3,103.82,29,99.66Z"/><path class="cls-3" d="M34.15,126.77c3.4,0,3.4,0,3.4-3.5q0-23.17,0-46.37a10.82,10.82,0,0,0-.49-3.5l.92-.15c3.93,1.31,3.72,4.88,4.31,8,.67,3.55,1.27,7.11,1.9,10.67.18,1.27.35,2.53.52,3.8.43,1.73.43,3.55,1,5.26v0c.43,1,1.06,1.79,1.4,2.78a71.4,71.4,0,0,1,.17,9.92c0,1.76-1.25,2.61-2.61,3.36-.84.27-1.21,1.13-1.91,1.59A10.2,10.2,0,0,0,41.45,124c.06,2.92-.6,3.59-3.58,3.63C36.58,127.67,35.14,128.1,34.15,126.77Z"/><path class="cls-3" d="M277.4,74.55l0,54.19c-1.39.32-2.53-.37-3.7-.92a.77.77,0,0,1-.33-.82,11.29,11.29,0,0,0-1.53-7.25,2.66,2.66,0,0,0-1.49-1.59,4.41,4.41,0,0,1-2.72-4.78c.18-3-.26-6,.27-9,.33-.85,1-1.47,1.37-2.31.38-4.17,1.78-8.17,1.95-12.37,1.24-3.74,1.19-7.74,2.25-11.52C274,76.15,275,74.58,277.4,74.55Z"/><path class="cls-3" d="M272.21,122.64l0-3.33c2,2.58,1.16,5.64,1.49,8.51-1.13-.84-.39-2-.6-3.06C272.91,124,273.5,122.94,272.21,122.64Z"/><path class="cls-1" d="M41.29,47.45c.11-1.56-.26-3.16.34-4.68C41.5,44.33,42,45.93,41.29,47.45Z"/><path class="cls-3" d="M74.71,130.21c0-1,.1-1.9,0-2.84A37.84,37.84,0,0,1,76.57,113a5.38,5.38,0,0,0,.06-1.4c1.06-6,2.1-11.94,3.21-17.91a4.39,4.39,0,0,1,4-4A3.54,3.54,0,0,1,85,92.92q.06,23.79,0,47.58a6.18,6.18,0,0,1-.73,3.2c-2.4,1.56-4.58.64-4.89-2.14a29.73,29.73,0,0,0-.63-4.68A5.53,5.53,0,0,0,76,133C74.91,132.48,73.9,131.69,74.71,130.21Z"/><path class="cls-3" d="M222.15,142.35c-.16-3-.23-6-3.63-7.49-.89-.38-1-1.27-1-2.2,0-2.2,0-4.41-.08-6.62.17-8,2.52-15.62,3.59-23.47.31-2.27.69-4.54,1.21-6.78.45-2,1.58-3.43,3.86-3.49,1.11.8,1.21,2,1.22,3.21,0,15.81.06,31.63,0,47.44a5.58,5.58,0,0,1-.93,3.63,2.75,2.75,0,0,1-3.79-.42A2.81,2.81,0,0,1,222.15,142.35Z"/><path class="cls-3" d="M146,144.21c-.43-2.87-.42-5.93-3.76-7.34-.9-.38-1.07-1.27-1.06-2.21,0-2.06-.05-4.12-.08-6.17.14-8.05,2.58-15.74,3.63-23.64a68.79,68.79,0,0,1,1.24-7c.47-1.92,1.51-3.48,3.81-3.58,1.22.63,1.2,1.8,1.2,2.9q.08,24.12,0,48.26c0,2.68-.39,3-2.79,2.84C145.58,147.94,146,146,146,144.21Z"/><path class="cls-3" d="M147.88,147.62c1.93.58,2.46,0,2.44-2.11-.09-16.16,0-32.32,0-48.47a4.58,4.58,0,0,0-.46-2.77c2.52.07,4.09,1.36,4.6,4.1,1.07,5.8,2,11.62,3.05,17.43.3,1.71.65,3.4,1,5.1,0,.16,0,.32-.05.48.6.69.36,1.71.92,2.42l0,10.43c0,.87.09,1.74-.9,2.24-3.8,1.94-4.6,5.31-4.35,9.18,0,.47,0,.94.06,1.42-.94,2-1.8,2.35-5,1.93C148.49,148.72,147.79,148.52,147.88,147.62Z"/><path class="cls-3" d="M226.06,146.51a23.39,23.39,0,0,0,.49-4.94q0-22.89,0-45.76a10.92,10.92,0,0,0-.49-3.51c2.51.08,3.93,1.14,4.41,3.69,1.14,6,2.15,12,3.23,18,.3,1.64.67,3.26,1,4.89,0,.17,0,.34,0,.51.62.51.32,1.44.89,2,0,3.45-.07,6.91.09,10.36a3.17,3.17,0,0,1-2.11,3.45,3.26,3.26,0,0,0-2.24,3.26,27,27,0,0,1-.46,6.29C230.49,146.91,228.27,147.62,226.06,146.51Z"/><path class="cls-3" d="M83.81,143.94a21.07,21.07,0,0,0,.48-6.13q0-22.29,0-44.58a11.18,11.18,0,0,0-.49-3.5,4.13,4.13,0,0,1,4.31,3.55c1.19,6,2.19,12,3.27,18,.5,2.81,1,5.61,1.53,8.41,0,3.38-.06,6.75,0,10.13,0,1.18-.13,2.22-1.34,2.75a5.11,5.11,0,0,0-3,4.21,13.5,13.5,0,0,1,.16,4.74C88.48,144.25,86.4,145.24,83.81,143.94Z"/><path class="cls-3" d="M42.83,112.42a8.12,8.12,0,0,1-1-5.26A10.47,10.47,0,0,1,42.83,112.42Z"/><path class="cls-3" d="M43.71,113c0,.62,0,1.23,0,1.85-1-.55-1-1.48-.88-2.43Z"/><path class="cls-3" d="M268.39,104.06c0-.46,0-.93,0-1.4l.89-.58C269.26,102.87,269.56,103.78,268.39,104.06Z"/><path class="cls-3" d="M150.71,123.8c-1-.54-1-1.48-.92-2.42C150.92,121.88,150.78,122.85,150.71,123.8Z"/><path class="cls-3" d="M140.28,148.5c-2.75-.14-2.95-.38-3-3.69.05-.2.11-.4.16-.6,1,.95-.49,3.2,1.84,3.41Z"/><path class="cls-3" d="M235.55,121.38c-1.16-.27-.88-1.19-.89-2C236,119.61,235.54,120.59,235.55,121.38Z"/><path class="cls-3" d="M46.21,135.81c-1.42,6-2.34,12-3.36,18.09a29.45,29.45,0,0,1-1,5.32,3.81,3.81,0,0,1-3.64,2.84,3.56,3.56,0,0,1-1.23-3.2q-.06-23.82,0-47.64c0-3.11.79-3.52,4.13-2.53,1.37.39.91,1.56.86,2.38a16.1,16.1,0,0,0,.93,5.6,2.7,2.7,0,0,0,1.51,2c2.27.8,2.44,2.5,2.39,4.56C46.67,127.44,46.93,131.64,46.21,135.81Z"/><path class="cls-3" d="M41.09,108.69c-3.4,0-3.4,0-3.4,3.5q0,23.19,0,46.38a10.53,10.53,0,0,0,.49,3.49l-.92.16c-3.94-1.31-3.73-4.88-4.31-8-.68-3.55-1.28-7.12-1.91-10.68-.17-1.26-.34-2.53-.52-3.8-.42-1.73-.42-3.54-1-5.25h0c-.42-.94-1.05-1.79-1.4-2.77a71.57,71.57,0,0,1-.16-9.93c0-1.76,1.25-2.61,2.6-3.35.85-.28,1.22-1.14,1.91-1.6a10.21,10.21,0,0,0,1.29-5.42c-.06-2.92.6-3.59,3.58-3.63C38.65,107.79,40.1,107.36,41.09,108.69Z"/><path class="cls-3" d="M75.23,117.18c1.42-6,2.33-12.05,3.35-18.09a29.12,29.12,0,0,1,1-5.32,3.82,3.82,0,0,1,3.65-2.85,3.55,3.55,0,0,1,1.22,3.2c0,15.88.06,31.76,0,47.65,0,3.11-.79,3.51-4.13,2.52-1.37-.39-.91-1.56-.86-2.38a16,16,0,0,0-.93-5.59,2.72,2.72,0,0,0-1.51-2c-2.26-.79-2.44-2.5-2.39-4.55C74.77,125.55,74.5,121.34,75.23,117.18Z"/><path class="cls-3" d="M80.34,144.29c3.4,0,3.4,0,3.4-3.5q0-23.17,0-46.37a11.1,11.1,0,0,0-.49-3.5l.91-.15c3.94,1.31,3.73,4.88,4.32,8,.67,3.55,1.27,7.11,1.9,10.67.17,1.27.35,2.53.52,3.8.43,1.73.42,3.55,1,5.26v0c.43,1,1.05,1.79,1.4,2.78a73,73,0,0,1,.17,9.92c0,1.76-1.26,2.61-2.61,3.36-.84.27-1.21,1.13-1.91,1.59a10.3,10.3,0,0,0-1.29,5.42c.07,2.92-.59,3.59-3.58,3.63C82.78,145.19,81.33,145.62,80.34,144.29Z"/><path class="cls-3" d="M92.4,153.33c-1.42,6-2.33,12-3.35,18.09a29.45,29.45,0,0,1-1,5.32,3.84,3.84,0,0,1-3.65,2.85,3.57,3.57,0,0,1-1.22-3.21q-.06-23.82,0-47.64c0-3.11.8-3.52,4.14-2.53,1.37.39.91,1.56.86,2.38a16.1,16.1,0,0,0,.93,5.6,2.7,2.7,0,0,0,1.51,2c2.26.8,2.44,2.5,2.39,4.56C92.86,145,93.13,149.16,92.4,153.33Z"/><path class="cls-3" d="M87.29,126.21c-3.4.05-3.4.05-3.4,3.5q0,23.19,0,46.38a11.18,11.18,0,0,0,.49,3.5l-.91.15c-3.94-1.31-3.73-4.88-4.32-8-.67-3.55-1.27-7.12-1.9-10.68-.17-1.26-.35-2.53-.52-3.8-.43-1.73-.43-3.54-1-5.25h0c-.43-.94-1-1.79-1.4-2.77a73.16,73.16,0,0,1-.17-9.93c0-1.76,1.26-2.61,2.61-3.35.84-.28,1.21-1.14,1.91-1.6A10.28,10.28,0,0,0,80,129c-.07-2.92.59-3.59,3.58-3.63C84.85,125.31,86.3,124.88,87.29,126.21Z"/><path class="cls-3" d="M142.46,121.81c1.42-6,2.33-12,3.35-18.09a29.12,29.12,0,0,1,1-5.32,3.82,3.82,0,0,1,3.65-2.85,3.55,3.55,0,0,1,1.22,3.2q.06,23.82,0,47.65c0,3.11-.8,3.51-4.13,2.53-1.38-.39-.92-1.57-.86-2.39a16.56,16.56,0,0,0-.93-5.59,2.71,2.71,0,0,0-1.51-2c-2.27-.8-2.45-2.51-2.39-4.56C142,130.18,141.73,126,142.46,121.81Z"/><path class="cls-3" d="M147.58,148.93c3.4-.05,3.4-.05,3.4-3.5q0-23.19,0-46.38a10.9,10.9,0,0,0-.49-3.5l.92-.15c3.94,1.31,3.72,4.88,4.31,8,.67,3.55,1.27,7.12,1.9,10.68.18,1.26.35,2.53.52,3.79.43,1.74.43,3.55,1,5.26v0c.43,1,1.06,1.79,1.4,2.78a71.43,71.43,0,0,1,.17,9.92c0,1.77-1.25,2.62-2.6,3.36-.85.28-1.22,1.13-1.92,1.59a10.32,10.32,0,0,0-1.28,5.42c.06,2.93-.6,3.59-3.58,3.64C150,149.82,148.57,150.25,147.58,148.93Z"/><path class="cls-3" d="M159.64,158c-1.42,6-2.34,12-3.36,18.09a29.12,29.12,0,0,1-1,5.32,3.82,3.82,0,0,1-3.64,2.85,3.57,3.57,0,0,1-1.23-3.2q-.06-23.82,0-47.65c0-3.11.79-3.51,4.13-2.53,1.37.39.91,1.57.86,2.39a16.08,16.08,0,0,0,.93,5.59,2.69,2.69,0,0,0,1.51,2c2.27.8,2.44,2.51,2.39,4.56C160.1,149.59,160.36,153.8,159.64,158Z"/><path class="cls-3" d="M154.52,130.84c-3.4,0-3.4,0-3.4,3.5q0,23.19,0,46.38a10.63,10.63,0,0,0,.49,3.5l-.92.15c-3.94-1.31-3.73-4.88-4.31-8-.68-3.55-1.28-7.12-1.91-10.68l-.51-3.79c-.43-1.74-.43-3.55-1-5.26v0c-.42-.95-1-1.79-1.4-2.78a71.42,71.42,0,0,1-.16-9.92c0-1.77,1.25-2.62,2.6-3.36.85-.28,1.22-1.13,1.91-1.59a10.23,10.23,0,0,0,1.29-5.42c-.06-2.93.6-3.59,3.58-3.64C152.08,130,153.53,129.52,154.52,130.84Z"/><path class="cls-3" d="M217,116.9c1.42-6,2.33-12,3.35-18.09a29.12,29.12,0,0,1,1-5.32A3.82,3.82,0,0,1,225,90.64a3.55,3.55,0,0,1,1.22,3.2q.06,23.82,0,47.65c0,3.11-.8,3.51-4.13,2.52-1.38-.39-.92-1.56-.87-2.38a16.23,16.23,0,0,0-.92-5.59,2.74,2.74,0,0,0-1.51-2c-2.27-.79-2.45-2.5-2.39-4.55C216.5,125.27,216.23,121.06,217,116.9Z"/><path class="cls-3" d="M222.08,144c3.4,0,3.4,0,3.4-3.49q0-23.19,0-46.38a10.86,10.86,0,0,0-.49-3.5l.92-.15c3.93,1.31,3.72,4.88,4.31,8,.67,3.55,1.27,7.11,1.9,10.67.18,1.27.35,2.54.52,3.8.43,1.73.43,3.55,1,5.26v0c.43,1,1.06,1.79,1.4,2.78a71.4,71.4,0,0,1,.17,9.92c0,1.76-1.26,2.62-2.61,3.36-.84.28-1.21,1.13-1.91,1.59a10.2,10.2,0,0,0-1.28,5.42c.06,2.93-.6,3.59-3.59,3.63C224.51,144.91,223.07,145.34,222.08,144Z"/><path class="cls-3" d="M234.13,153.05c-1.41,6-2.33,12-3.35,18.09a29.29,29.29,0,0,1-1,5.32,3.82,3.82,0,0,1-3.64,2.85,3.57,3.57,0,0,1-1.23-3.2c0-15.89-.06-31.77,0-47.65,0-3.11.79-3.51,4.13-2.53,1.37.39.91,1.56.86,2.39a16.08,16.08,0,0,0,.93,5.59,2.69,2.69,0,0,0,1.51,2c2.27.8,2.44,2.51,2.39,4.56C234.6,144.68,234.86,148.89,234.13,153.05Z"/><path class="cls-3" d="M229,125.93c-3.4,0-3.4,0-3.4,3.5q0,23.19,0,46.38a10.63,10.63,0,0,0,.49,3.5l-.92.15c-3.94-1.31-3.73-4.88-4.32-8-.67-3.55-1.27-7.12-1.9-10.68-.17-1.26-.34-2.53-.52-3.8-.42-1.73-.42-3.54-1-5.25h0c-.42-.94-1-1.79-1.4-2.77a73.13,73.13,0,0,1-.17-9.93c0-1.76,1.26-2.61,2.61-3.35.85-.28,1.22-1.14,1.91-1.6a10.17,10.17,0,0,0,1.29-5.41c-.06-2.93.59-3.6,3.58-3.64C226.58,125,228,124.6,229,125.93Z"/><path class="cls-3" d="M269.43,100.06c1.42-6,2.33-12,3.35-18.09a29.12,29.12,0,0,1,1-5.32,3.81,3.81,0,0,1,3.64-2.85,3.56,3.56,0,0,1,1.23,3.2c0,15.88.06,31.77,0,47.65,0,3.11-.79,3.51-4.13,2.52-1.37-.39-.91-1.56-.86-2.38a16,16,0,0,0-.93-5.59,2.72,2.72,0,0,0-1.51-2c-2.26-.79-2.44-2.5-2.39-4.55C269,108.43,268.7,104.22,269.43,100.06Z"/><path class="cls-3" d="M274.54,127.17c3.4,0,3.4,0,3.4-3.49q0-23.19,0-46.38a10.86,10.86,0,0,0-.5-3.5l.92-.15c3.94,1.31,3.73,4.88,4.32,8,.67,3.55,1.27,7.11,1.9,10.67.17,1.27.34,2.54.52,3.8.43,1.73.42,3.55,1,5.26v0c.42,1,1.05,1.79,1.4,2.78a73,73,0,0,1,.17,9.92c0,1.76-1.26,2.62-2.61,3.36-.85.28-1.22,1.13-1.91,1.59a10.21,10.21,0,0,0-1.29,5.42c.06,2.93-.59,3.59-3.58,3.63C277,128.07,275.53,128.5,274.54,127.17Z"/><path class="cls-3" d="M286.6,136.21c-1.42,6-2.33,12-3.35,18.09a29.29,29.29,0,0,1-1,5.32,3.83,3.83,0,0,1-3.65,2.85,3.56,3.56,0,0,1-1.22-3.2q-.06-23.84,0-47.65c0-3.11.8-3.51,4.14-2.53,1.37.39.91,1.56.86,2.39a16.31,16.31,0,0,0,.92,5.59,2.7,2.7,0,0,0,1.52,2c2.26.8,2.44,2.51,2.38,4.56C287.06,127.84,287.33,132.05,286.6,136.21Z"/><path class="cls-3" d="M281.49,109.09c-3.4,0-3.4,0-3.4,3.5q0,23.19,0,46.38a10.9,10.9,0,0,0,.49,3.5l-.91.15c-3.94-1.31-3.73-4.88-4.32-8-.67-3.55-1.27-7.12-1.9-10.68-.18-1.26-.35-2.53-.52-3.79-.43-1.74-.43-3.55-1-5.26h0c-.43-.94-1.06-1.78-1.4-2.77a73,73,0,0,1-.17-9.92c0-1.77,1.26-2.62,2.61-3.36.84-.28,1.21-1.13,1.91-1.6a10.17,10.17,0,0,0,1.28-5.41c-.06-2.93.6-3.6,3.59-3.64C279.05,108.19,280.5,107.76,281.49,109.09Z"/></svg>