<?xml version="1.0" encoding="UTF-8"?><svg id="a" xmlns="http://www.w3.org/2000/svg" viewBox="0 0 285.39 190"><defs><style>.b{fill:#696768;}.c{fill:#e9e9e9;}.d{fill:#b0b0b2;}</style></defs><path class="c" d="M23.4,109.79c-.08-.34-.19-.82-.29-1.39,0,0-.19-.68-.17-1.38,.12-4.38,.51-8.74,.81-13.11,.36-5.2,.76-10.4,1.13-15.6,.4-5.59,.81-11.18,1.2-16.76,.18-2.55,.43-5.09,.56-7.64,.03-.68-.28-1.62,.74-1.98,.25,.51,.68,.69,1.23,.67,.39-.01,.78,0,1.17,0,75.16,0,150.32,0,225.47,0,2.62,0,2.55,0,2.19-2.69-.19-1.42-.06-2.88-.08-4.32,.85,.14,.76,.87,.8,1.43,.35,5.36,.66,10.72,1.06,16.08,.39,5.25,.79,10.49,1.18,15.74,.39,5.25,.78,10.49,1.11,15.74,.21,3.37,.63,6.73,.64,10.11-.11,2.98-.81,5.85-1.51,8.73-5.3,1.87-14.13,4.99-25.13,8.92-20.71,7.39-25.39,9.14-33.31,10.63-8.88,1.67-15.26,1.76-27.11,1.88-10.26,.1-19.49-.22-41.21-1.8-47.47-3.45-51.7-5.4-65.71-3.09-3.44,.57-6.74,1.27-11.57,.82-14.96-1.39-26.14-12.14-33.23-20.97Z"/><path class="d" d="M268.89,118.47c-17.83,6.83-35.66,13.67-53.49,20.5-50.32-.38-100.64-.75-150.96-1.13l-45.15-19.37v-11.22c14.8,5.93,29.6,11.86,44.4,17.79,50.45,.25,100.89,.5,151.34,.75,17.96-6.18,35.91-12.36,53.87-18.54v11.22Z"/><path class="d" d="M27.39,51.92c-.33,4.05-.66,8.1-.98,12.15-.44,5.68-.9,11.35-1.28,17.03-.21,3.15-.44,6.29-.68,9.43-.21,2.65-.29,3.98-.31,4.37-.22,3.15-.51,7.78-.76,14-1.36-.55-2.73-1.09-4.09-1.64-.08-8.52-.16-17.04-.24-25.56,1.48-8.28,1.69-13.4,1.56-16.62-.04-1.17,.41-4.78,.68-9.61,.06-1.1,.18-2.22,.76-3.21,.46-6.28,.94-12.55,1.36-18.83,.06-.82,.27-1.25,1.16-1.15,1.15,.13,2.31,.23,3.46,.34,.84,.08,.71,.73,.67,1.25-.24,3.41-.5,6.83-.76,10.24-.08,1.05-.14,2.09-.21,3.14-.05,.78-.11,1.55-.16,2.34-.06,.78-.11,1.56-.17,2.33Z"/><path class="d" d="M261.52,109.96c-.56-11.6-1.07-20.82-1.46-27.36-.32-5.52-.5-8.34-.72-11.43-.4-5.4-.88-10.8-1.27-16.2-.19-2.54-.25-5.09-.39-7.63-.03-.59,.18-1.23-.3-1.75-.24-3.92-.45-7.84-.75-11.75-.06-.85,.07-1.16,.98-1.26,4.32-.46,4.22-.49,4.45,3.97,.24,4.91,.68,9.81,1.03,14.72,1.38,4.23,1.03,8.65,1.44,12.99,.73,7.74,.97,12.78,1.22,16.59,.41,6.23,1.26,15.16,3.18,26.42-2.46,.9-4.92,1.8-7.38,2.7Z"/><path class="c" d="M27.39,51.93c.11-1.56-.27-3.15,.34-4.67-.14,1.56,.38,3.16-.34,4.67Z"/><path class="b" d="M234.55,155.72l-.42,.05c-.17-.13-.37-.23-.52-.39-.2-.22-.6-.47-.25-.79,.33-.3,.59,.09,.8,.29,.27,.26,.5,.56,.75,.84-.12,0-.25,0-.37,0Z"/></svg>