<?xml version="1.0" encoding="UTF-8"?><svg id="a" xmlns="http://www.w3.org/2000/svg" viewBox="0 0 285.39 190"><defs><style>.n{fill:#e8e8e8;}.o{fill:#afafb1;}</style></defs><path id="b" class="n" d="M24.29,41.61c.43-.05,.63,.45,1.22,.67,.24,.09,.62,.16,1.16,0H251.31c2.61,0,2.54,0,2.18-2.68-.11-1.43-.14-2.87-.08-4.31,.85,.14,.76,.86,.8,1.42,.35,5.34,.66,10.68,1.05,16.02,.39,5.23,.78,10.45,1.18,15.68,.38,5.23,.78,10.45,1.11,15.68,.24,3.81,.51,6.29,.64,10.07,.13,3.59,.12,6.56,.08,8.57-.77,.32-1.53,.63-2.3,.95-5.77,2.65-11.71,4.91-17.6,7.27-.23,.07-.47,.14-.71,.21-4.35,1.29-8.43,2.89-12.27,4.72-.41,.52-.98,.9-1.62,1.07-5.01,2.08-10.11,4.14-15.31,6.19-4.7,1.85-9.34,3.64-13.94,5.36-.4,.53-.98,.91-1.62,1.07-3.39,1.89-6.22,2.82-8.2,3.33-1.83,.47-4.31,.92-6.95,2.8-.98,.7-1.01,.9-1.85,1.56-3.61,2.83-6.87,2.11-12.27,3.86-1.48,.48-2.92,1.35-5.98,2.72-3.57,1.61-7.24,2.96-10.85,4.49-.65,.27-1.31,.65-2.05,.27-2.82,.27-6.95,.46-12.09,.02-.55-.05-.85,.03-1.21-.12-5.37-2.2-10.74-4.42-16.11-6.61-.52-.19-.98-.54-1.3-.99-5.64-1.97-10.09-3.69-13.15-4.91-1.52-.61-2.5-.98-6.44-2.6-3.16-1.3-6.35-2.55-9.52-3.83-.65-.16-1.24-.49-1.71-.96-4.5-1.72-9.04-3.49-13.61-5.31-5.27-2.09-10.47-4.19-15.6-6.31-.63-.19-1.21-.54-1.68-1.01-2.78-.59-6.66-1.43-11.27-2.51-16.75-3.91-20.21-5.54-21.63-8.66-.64-1.4-1.27-3.99,.43-8.32,.12-4.36,.5-8.71,.81-13.06,.36-5.18,.75-10.36,1.13-15.54,.4-5.57,.8-11.14,1.2-16.7,.18-2.54,1.1-5.12,.55-7.61-.04-.17-.24-1.01,.19-1.6,.07-.1,.26-.35,.55-.39Z"/><path id="c" class="o" d="M24.29,41.62c-.32,4.03-.66,8.07-.97,12.1-.44,5.65-.9,11.31-1.28,16.97-.12,1.88-.4,5.5-.68,9.39-.43,6.01-1,14.32-1.64,24.6-1.62-.71-3.24-1.43-4.86-2.14,.19-4.1,.45-10.55,.67-19.83,.02-.66,0-.63,.02-.91,.73-9.02,1.38-18.04,1.97-27.07,.21-3.19,.5-6.38,.68-9.58,0-1.11,.25-2.21,.76-3.2,.46-6.25,.93-12.5,1.36-18.76,.06-.82,.27-1.25,1.15-1.14,1.15,.13,2.3,.23,3.45,.34,.84,.08,.71,.72,.67,1.25-.24,3.4-.5,6.8-.75,10.2-.08,1.04-.14,2.08-.21,3.13-.07,.47-.13,.95-.19,1.45-.12,1.14-.16,2.21-.15,3.2Z"/><path id="d" class="o" d="M256.09,72.18c-.23-3.92-.37-6.67-.72-11.39-.4-5.38-.87-10.76-1.27-16.14-.19-2.53-.25-5.07-.39-7.6-.03-.59,.18-1.23-.3-1.74-.24-3.9-.45-7.81-.75-11.71-.06-.85,.07-1.15,.97-1.25,4.3-.46,4.21-.49,4.43,3.95,.24,4.89,.67,9.78,1.02,14.67,1.37,4.21,1.02,8.62,1.43,12.94,.76,8.08,1.07,14.03,1.22,16.53,.39,6.96,1.15,17.38,2.77,32.08-2.08,.08-4.15,.16-6.23,.24-1.15-14.2-1.8-24.06-2.18-30.57Z"/><path id="e" class="n" d="M24.29,41.62c.11-1.55-.27-3.14,.34-4.66-.13,1.55,.38,3.15-.34,4.66"/><path id="f" class="o" d="M193.81,128.77c7.1-2.93,14.23-5.87,21.39-8.79,7.93-3.24,15.84-6.46,23.73-9.66l.21,12.88c-4.99,2.09-9.16,3.81-12.22,5.07-7.21,2.95-12.95,5.48-20.31,8.16-2.09,.76-5.15,1.92-8.85,3.51-1.12-1.29-2.92-3.75-3.64-7.28-.3-1.47-.35-2.8-.3-3.88Z"/><path id="g" class="o" d="M176.03,135.79c.51-.15,1.03-.28,1.53-.47,5.57-2.22,11.13-4.46,16.68-6.72,.86,.94,.48,2.1,.5,3.16-.07,1.11,.43,2.17,1.34,2.82,1.58,1.19,1.95,2.98,1.9,4.87-.04,.17-.12,.34-.22,.49-3.01,1.38-6.14,2.5-9.19,3.78-5.27,2.21-7.09,2.91-13.53,5.49-1.98,.79-4.91,1.96-8.53,3.37-.98-1.26-2.58-3.71-3.11-7.15-.25-1.65-.19-3.09-.04-4.21"/><path id="h" class="o" d="M144.88,148.5c3.96-1.3,7.73-3.08,11.6-4.6,2.24-1.03,4.54-1.92,6.88-2.69,.83,.81,.51,1.85,.5,2.79-.08,1.15,.44,2.27,1.38,2.95,1.55,1.21,2.23,3.23,1.73,5.13-.38,.63-1.05,.77-1.66,1.02-7.26,2.99-14.52,5.99-21.83,8.87-.47,.19-.99,.62-1.49,.03,1.82-8.81,2.54-12.48,2.53-12.75,0-.01,0-.11,.02-.23,.05-.21,.16-.39,.33-.52"/><path id="i" class="o" d="M114.29,140.92c5.72,2.53,11.45,5.07,17.17,7.6,4.43,.03,8.87,.06,13.3,.09-.61,4.54-1.23,9.07-1.84,13.61l-11.84-.75c-6.47-2.89-12.94-5.78-19.4-8.68,.87-3.96,1.75-7.92,2.62-11.88Z"/><path id="j" class="o" d="M83.44,128.59c10.76,4.31,21.51,8.61,32.27,12.92l-3.18,11.63-28.57-11.57-.52-12.98Z"/><path id="k" class="o" d="M52.55,115.98c10.6,4.32,21.19,8.65,31.79,12.97l-.39,12.62c-10.51-4.25-21.02-8.49-31.53-12.74,.04-4.28,.08-8.56,.12-12.84Z"/><path id="l" class="o" d="M264.5,102.51c.64,3.43,1.29,6.86,1.93,10.28-17.88,6.74-29.87,11.32-30.51,11.74-.07,.04-.52,.36-.94,.23-.13-.04-.26-.14-.38-.31-.26-1.2,.48-1.87,1.35-2.38,.94-.5,1.48-1.53,1.37-2.59-.04-2.14-.03-4.28,0-6.41,.08-.56-.02-1.13-.29-1.63-.03-.16,.01-.32,.12-.43,7.03-2.75,14.07-5.51,21.1-8.26,2.08-.08,4.15-.16,6.23-.24Z"/><path id="m" class="o" d="M13.86,112.53c.33-3.33,.67-6.66,1.01-9.99,8.17,2.68,16.33,5.35,24.5,8.03,4.61,1.89,9.23,3.79,13.84,5.68,.06,4.33,.12,8.65,.17,12.98-4.92-1.94-9.89-3.96-14.91-6.04-8.44-3.51-16.64-7.06-24.62-10.66Z"/></svg>