<?xml version="1.0" encoding="UTF-8"?><svg id="a" xmlns="http://www.w3.org/2000/svg" viewBox="0 0 285.39 190"><defs><style>.g{fill:#e8e8e8;}.h{fill:#afafb1;}</style></defs><path id="b" class="g" d="M17.03,118.97c-.24-.96-.4-1.94-.48-2.92,.13-4.61,.53-9.21,.86-13.81,.38-5.48,.8-10.96,1.19-16.44,.43-5.89,.85-11.77,1.27-17.66,.19-2.68,.45-5.36,.59-8.05,.04-.71-.29-1.71,.78-2.09,.23,.49,.75,.78,1.29,.71,.41-.01,.82,0,1.23,0h237.54c2.76,0,2.68,0,2.3-2.83-.12-1.51-.15-3.04-.08-4.55,.9,.15,.8,.91,.84,1.5,.37,5.65,.69,11.3,1.12,16.94,.41,5.53,.83,11.05,1.24,16.58,.41,5.53,.82,11.05,1.17,16.59,.23,3.55,.66,7.09,.68,10.65-.22,3.11-.75,6.19-1.59,9.2"/><rect id="c" class="h" x="12.69" y="116.3" width="262.96" height="11.82"/><path id="d" class="h" d="M21.23,58.01c-.34,4.27-.7,8.53-1.03,12.8-.46,5.98-.95,11.96-1.35,17.94-.21,3.31-.45,6.62-.72,9.93-.46,5.87-.76,11.75-1.12,17.62-1.44,0-2.88,0-4.32,0,1.05-23.55,1.61-39.51,1.4-44.43-.05-1.06,.74-4.94,.72-10.13,0-1.17,.27-2.33,.8-3.38,.48-6.61,.99-13.22,1.44-19.84,.06-.87,.28-1.32,1.22-1.21,1.21,.14,2.43,.24,3.64,.36,.89,.09,.75,.77,.71,1.32-.25,3.6-.53,7.19-.8,10.79-.08,1.1-.15,2.2-.22,3.31-.05,.81-.1,1.63-.17,2.46-.06,.83-.12,1.65-.19,2.46Z"/><path id="e" class="h" d="M268.07,113.85c-.58-7.84-1.17-15.68-1.73-23.52-.28-4.02-.47-8.04-.76-12.04-.42-5.69-.92-11.38-1.34-17.07-.2-2.68-.27-5.36-.41-8.04-.04-.62,.19-1.3-.32-1.84-.26-4.13-.48-8.26-.79-12.38-.07-.9,.08-1.22,1.03-1.32,4.55-.48,4.45-.51,4.68,4.18,.26,5.18,.71,10.34,1.08,15.51,.5,4.56,1.01,9.12,1.51,13.68,.43,5.83,.86,11.65,1.29,17.48,1.12,9.27,2.23,18.54,3.35,27.82-2.5,.13-5,.25-7.5,.38"/><path id="f" class="g" d="M21.23,58.01c-.14-1.65-.02-3.31,.36-4.92-.14,1.64,.4,3.33-.36,4.92"/></svg>