<svg id="Calque_1" data-name="Calque 1" xmlns="http://www.w3.org/2000/svg" xmlns:xlink="http://www.w3.org/1999/xlink" viewBox="0 0 190 190"><defs><style>.cls-1,.cls-3{fill:none;}.cls-2{clip-path:url(#clip-path);}.cls-3{stroke:#3e4045;stroke-width:0.76px;}</style><clipPath id="clip-path"><rect class="cls-1" x="13.61" y="47.25" width="160.94" height="96.65"/></clipPath></defs><g id="Groupe_622" data-name="Groupe 622"><g class="cls-2"><g id="Groupe_621" data-name="Groupe 621"><g id="Groupe_620" data-name="Groupe 620"><path id="Tracé_5527" data-name="Tracé 5527" class="cls-3" d="M14.87,91.27c0-.36,21.76-12.72,21.76-12.72s-4.13,21.69-.72,29l-20.43,3.27S13.29,105,14.87,91.27ZM36.63,78.55,47.21,80,46,107.64l-10.09-.12S32.62,104.61,36.63,78.55ZM16.09,114.43l4-2.43,10.82-1.21s5.23-.49,7.17,5.7,1.34,13.45-1.46,14.79l-19.69-4.37S13.17,124.61,16.09,114.43Zm1.33,11.48a4.32,4.32,0,0,1-1-2,17,17,0,0,1,.64-8.77l3.44-2.08L31,111.87h.17a6.17,6.17,0,0,1,5.86,4.93,23.18,23.18,0,0,1,1,8.79,7.06,7.06,0,0,1-1.62,4.53Zm13.81-15.13h9.69a9.54,9.54,0,0,1,7,4,14.36,14.36,0,0,1-.73,15.75l-10.57.73M49.92,121l19.8-1.5m-7.07-8.73,8.75-.72s8.51,1,10.7,4,3.89,10.42,0,12.49L50,124.37m13-12.7,7.56-.56s8.42.85,10.58,3.5,3.85,9.11,0,10.91l-31.28-1.88m21.55-13.58h6s7.54.72,9.6,2.91,3.4,10.42,1.34,12.73l-6.2.84m16.66,11.88s-2.92-9.64-.73-18.15,2.68-10.45,4.14-11.3a20.51,20.51,0,0,1,5.34-1.34,2.71,2.71,0,0,1,1.66,3.44,2.19,2.19,0,0,1-.2.44c-1.46,2.67-4.25,8.25-.36,16.85a67.08,67.08,0,0,0,6.81,12.37s2.3,2.91,4.62,2.42c.43-.09,10.82-.12,15.93-16.61S146.17,89,146.17,89H145s-6.44,10.79-7.29,11.52S117,104.61,117,104.61L113.83,87l-3.77-2.3-4.5-.73-5.47,8.36a43.41,43.41,0,0,0-3,12.49c-.24,5.82-6.68,14-6.68,14s-.13,17,5.71,19.63h3.28l12.77-2.66m11.22,6.66c.34-.13,33-11.15,33-11.15s5.35-2.06,6.81-6.79,6.44-19.15,6.44-19.15l4.08-11.61-1.29-.63L168.29,99l1.89-6.92c-.59-.25-1.19-.48-1.77-.7L164,98.06l1.58-7.59c-.52-.15-1-.3-1.54-.43L159.17,97l2.24-7.55c-.95-.19-1.87-.35-2.76-.47l-6,9.72,2.19-10c-.57,0-1.12,0-1.65,0l-7.59,12L147.42,89c-.51.08-.95.17-1.33.25l-3.47,13.66M114.57,79.51h-1.23l-3.28,5.22L112.17,86l2.27-6.51L139.61,84v5.94h1L142,93.81m-29.5-13-2.47-7.93a13.87,13.87,0,0,0-6.69-6.82,44.28,44.28,0,0,0-9.11-2.45,32.7,32.7,0,0,0-6.75-.82s.36-3.64-.91-2.91-2.17,1.26-2.17,1.26l-8.14-1.9s.19-3.82-2.18,0a11.43,11.43,0,0,0-8.85,1.63L64.08,62l-1.55.09L46.92,86.66l-.23,5,15.2-24.56,4.19,7.48s.47,1.43,1.1,1.52,1.55,2,1.55,2l1-.18s0-2.55,1.68-1.45l.61-.36-1.27-2.09.67-.72-3.32-5.74s-2.19-4.19-4.83-5.1m6.46,14.94,3.77,6.1,3.1,5s.85-1,1.54-1-7.2-11.23-7.2-11.23M76,90.06s.93-3,3.12-2.46l3.08,4.11v.61L95,111.5l-2.46,4.23ZM46,107.64H74.93L77.08,91.7M65.69,75a27.11,27.11,0,0,0-2.56,1.58l-1.88,3.33a5.25,5.25,0,0,1-3.59-1.39L57.91,75s.42-2.85,1.88-1.88,1.4,2,1.4,2l-1.52,4.37m.51-6.07a6.27,6.27,0,0,1,.52-4.38c1.19-1.92,2.62-.28,2.62.63s.09,4.23-2.41,4.58,1.74.35,1.74.35l2.74-1.24M64.08,62a7.82,7.82,0,0,1,2.58,1.91,58.56,58.56,0,0,1,5.1,8.54v.85M83.19,83.33s-.3-1.57-.49-2.72a10,10,0,0,0-1.52-3l-5.89-8.06-4.21-3.93m32.74,21.08s-5.07-16-8.17-20.36A8.69,8.69,0,0,0,87.33,63s-6.2-.18-9.37,0-2.85,2.35-2.85,2.35-.25,2.54,1.27,2.79a1.49,1.49,0,0,0,1.78-1.1v0a3.1,3.1,0,0,0-.51-2.79m23.07,27.16c-.27-.24-9.27-12.43-9.45-12.3a6.28,6.28,0,0,0-.67,1.15L86,81.69a31.27,31.27,0,0,1,2.31,2.85c-.18,0-3.22,1.27-3.22,1.27l9.3,13.45h3.16m-3.16,0-1,.79-9-13,.65-1.22m-.65,1.72s-2,1.19-3.18.4l-2.1-.34m-3,.28s-9,2-9,2-.7-1-.58-1.61l8.65-1.81m-7.32,1.13A2.31,2.31,0,0,0,65.69,87c-1.27.42-8.33,2.85-8.33,2.85m11,0a.9.9,0,0,1-.44,1L56,94.49m1.7-15.94L50,100.06s.78,1.58,3.58,1.15l7.72-21.27m20.55-.85-6.47,3.59m-7.88,4.18,6-3.31m6.77-3.61-2.92,5.88,2.26-.43,1.88-1.26,3.23-1.27c2.18.36,1.38,2.54,1.38,2.54M74.68,91.71l-3.58,8-1.38,3s2,1.38.28,4.49m-3.41.42s1-1,.59-4-1.07-3.58-1.07-3.58l-.72-.79-2.75-6.82m1.16,15.19c0-.31-5.84-13.76-5.84-13.76M53.1,107.21s1,.42.86-1.94a37,37,0,0,0-.43-4.06m-6.89-8.27c0,.21,1.35,5.92,2.33,6.52S50,105,50,105a2.56,2.56,0,0,1-.73,2.6m-.88-18.58s.6,5,2.52,7m-1.55-4.35L54,88.35m8.72,19.29a12.82,12.82,0,0,1-.51,7.33,15,15,0,0,1-2.94,5.3m10.16-.75s-2.11-5.69-6.76-6M34.87,112l9.64-.16m-8.25,1.5,10.28-.23m-9,1.88,10.28-.23m-9.57,1.89L49,116.49m-10.24,2.39,10.66-.23M39.08,121.2l10.78-.39m-10.64,2.53,10.64-.46m-10.7,2.64,10.36-.69m-10.67,3,10.25-.69m-10.87,2.36,10-.69M76,111.12l6.11-.25m-2.83,1.2,5.6-.35M81,113l5.62-.36m-4.53,1.39,5.59-.45M83,115.13l5-.4m-4.58,1.91,5.12-.35m-4.66,1.76,5-.34m-4.71,1.71,5.12-.29M84.4,121l4.91-.3m-4.91,1.55,4.93-.31M84,123.64l5.07-.43m-5.65,1.85,5.5-.54m-73.15-41,20.55-15L46,70.27l1.58.27M46,70.27s-.1,9.55,0,9.56m-7.77-1.07s0-9.72,0-9.72m-4.56,11.2c.1-.06,0-9.86,0-9.86M30.23,82.21c.08,0,0-9.47,0-9.47M27.45,84V75.31m-2.79,10.5V77.09m-3,10V79.26m-2.43,9.3v-7.1M16.79,90V82.88l.69.45m-1.7,3.81,20.6-12.9L47.2,75.76m-1.7,3.89,5.77-7.71-.42-3.76.78-.85s1.53,2.43,1.47,2.25S59,63,59,63s1.09-1.45,1.88-1.07A1.27,1.27,0,0,1,61.67,63m52.15,24L138,90.37l2,6.7m-1.46,20.81,28.31-4.41m-52,26.48a20.4,20.4,0,0,0,14.6-19.07c.36-6.09-2.54-8-2.54-8s-14.78-3.7-15.33-3.7m31.18,0s14.07-9,24.08-1.94m-61.43-23,3.22,1.87L112,101.63s1.13,3.63-1.58,5.16-2.88.85-2.88.85m4.7-4.49c0-.12.54-3.48.54-3.48H115l.61,3.08m-2.43-3.08c.12,0,3.89,5.26,3.89,5.34m-.07-.4-3.81.4s-4.09,3-2.14,4.14M20.42,88.1l-.69,9.15,14.52-5.1L34,93.33,15.48,99.67s-.21,8.37,1.31,10.76m8.45-12.74L29,96.56m-3.94,2,3.77-1.06m-3.79,2,3.76-1.06m-3.77,2,3.77-1.06m-3.87,2,3.77-1.06m1.36-4.18,3.77-1.14M29.9,97.29l3.77-1.14m-3.79,2.12,3.77-1.13m-3.79,2.11,3.77-1.13m-3.86,2.12,3.77-1.14M70.35,69.73c-.08-.14-.87-3.66,2.45-7.77s3.34-10.88-2-8.27L67.7,57m11.91,3s2.73,1.48,4.43,0,4.44-4.69,5.66-2.47-1.09,5.27-1.09,5.27M81.8,60.66a23.37,23.37,0,0,0,5-1.87c1.46-1,3.65-1.88,4.38.42a9.63,9.63,0,0,1,.4,4.13m-10.7-2.85a30.68,30.68,0,0,0,7.44-1.71c1.52-1,7-6.36,8.69-4.24a4.43,4.43,0,0,1,.91,4.06,16.43,16.43,0,0,1-3.29,5M67,59.83,63,57V55.78l.32-.42,1.46.21v.64l1.81.15,6.91-7.28s4.41-3.94,4.41,2.73a12.11,12.11,0,0,1-2.81,6.1m-9.4-1.63,1.87.71,6.79,1.87M71.27,59l-5.4-1.2L68,59.45m8.26-.2A5.37,5.37,0,0,0,80,63.06m-60.1,59.79,17.5,2.32m-1-7.71-16.84-.31"/></g></g></g></g></svg>