<svg xmlns="http://www.w3.org/2000/svg" width="56.091" height="56.087"><defs><clipPath id="a"><path data-name="Rectangle 5324" fill="none" d="M0 0h56.091v56.087H0z"/></clipPath></defs><g data-name="Groupe 3479"><g data-name="Groupe 3478" clip-path="url(#a)" fill="#87092a"><path data-name="Tracé 38984" d="M0 30.139v-4.16c.118-.843.209-1.69.359-2.527A27.533 27.533 0 0 1 10.7 6.061 27.129 27.129 0 0 1 33.326.539a27.081 27.081 0 0 1 17.746 11.589 27.2 27.2 0 0 1 4.5 21.165A27.218 27.218 0 0 1 46.92 48.75a27.372 27.372 0 0 1-13.956 6.9c-.983.174-1.976.291-2.964.435h-3.939c-.158-.036-.315-.082-.475-.105-1.116-.162-2.248-.248-3.347-.488A27.75 27.75 0 0 1 5.953 45.307 27.178 27.178 0 0 1 .316 32.285Q.156 31.212 0 30.139m52.56-2.078a24.527 24.527 0 1 0-24.546 24.522A24.607 24.607 0 0 0 52.56 28.062"/><path data-name="Tracé 38985" d="M29.784 26.308h12.043a1.75 1.75 0 0 1 .5 3.432 2.575 2.575 0 0 1-.7.065q-5.583.006-11.166 0h-.674v12.043a1.751 1.751 0 0 1-3.435.5 2.6 2.6 0 0 1-.063-.7q-.005-5.582 0-11.164v-.673H14.235a1.751 1.751 0 0 1-.5-3.434 2.607 2.607 0 0 1 .7-.063q5.583-.005 11.166 0h.674V14.271a1.746 1.746 0 0 1 3.415-.552 2.481 2.481 0 0 1 .086.752q.008 5.582 0 11.164v.675"/></g></g></svg>