<?xml version="1.0" encoding="utf-8"?>
<!-- Generator: Adobe Illustrator 22.1.0, SVG Export Plug-In . SVG Version: 6.00 Build 0)  -->
<svg version="1.1" id="Calque_1" xmlns="http://www.w3.org/2000/svg" xmlns:xlink="http://www.w3.org/1999/xlink" x="0px" y="0px"
	 width="5815px" height="1594px" viewBox="0 0 5815 1594" style="enable-background:new 0 0 5815 1594;" xml:space="preserve">
<style type="text/css">
	.st0{fill:#FFD7D3;}
	.st1{fill:#FFC246;stroke:#000000;stroke-width:0.75;stroke-miterlimit:10;}
	.st2{fill:#404659;}
	.st3{fill:#F0EDED;}
	.st4{fill:#25323B;}
	.st5{fill:#BBBBBC;}
	.st6{fill:#353A51;}
	.st7{fill:#A0AABC;}
	.st8{fill:#969CAA;}
	.st9{opacity:0.79;fill:#CFD5D5;}
	.st10{fill:#939A91;}
	.st11{opacity:0.29;}
	.st12{fill:#86B4A2;}
	.st13{opacity:0.29;fill:#0E2D3C;}
	.st14{opacity:0.29;fill:#66605A;}
	.st15{opacity:0.29;fill:#485E60;}
	.st16{opacity:0.29;fill:#C9B293;}
	.st17{opacity:0.29;fill:#6A6561;}
	.st18{opacity:0.29;fill:#375F5F;}
	.st19{opacity:0.29;fill:#948D83;}
	.st20{opacity:0.29;fill:#FF738D;}
	.st21{fill:#FF738D;}
	.st22{opacity:0.29;fill:#9FBFFF;}
	.st23{opacity:0.29;fill:#F8CF61;}
	.st24{fill:#2B292D;}
	.st25{opacity:0.29;fill:#2B292D;}
	.st26{fill:none;stroke:#000000;stroke-miterlimit:10;}
	.st27{opacity:0.29;fill:#A2B0B0;}
	.st28{fill:#948D83;}
	.st29{fill:#E2BCA9;}
	.st30{fill:#D8BFA0;}
	.st31{fill:#747A72;}
	.st32{opacity:0.84;fill:#FFFDF6;}
	.st33{opacity:0.51;fill:#DAD5D2;}
	.st34{opacity:0.77;fill:#66605A;}
	.st35{opacity:0.77;fill:#485E60;}
	.st36{opacity:0.77;fill:#C9B293;}
	.st37{opacity:0.77;fill:#6A6561;}
	.st38{opacity:0.77;fill:#A2B0B0;}
	.st39{opacity:0.77;fill:#948D83;}
	.st40{opacity:0.36;fill:#FFFFFF;}
	.st41{opacity:0.36;}
	.st42{fill:#E8C085;}
	.st43{opacity:0.79;fill:#FFEDE2;}
	.st44{fill:#B7C2C6;}
	.st45{fill:#2F4948;}
	.st46{fill:#172D2B;}
	.st47{fill:#586B6A;}
	.st48{fill:#385E5B;}
	.st49{fill:#3C514F;}
	.st50{fill:#FEDED2;}
	.st51{fill:#EEA987;}
	.st52{fill:#102F40;}
	.st53{fill:#282828;}
	.st54{fill:#295173;}
	.st55{fill:#3B6363;}
	.st56{fill:#0E2D3C;}
	.st57{fill:none;stroke:#CFD5D5;stroke-width:18;stroke-miterlimit:10;}
	.st58{fill:none;stroke:#93A29F;stroke-width:24;stroke-miterlimit:10;}
	.st59{opacity:0.69;fill:#375F5F;}
	.st60{fill:#A3B4BC;}
	.st61{fill:#CFD5D5;}
	.st62{fill:#B0CDC8;}
	.st63{fill:#33484B;}
	.st64{fill:#FF921E;}
	.st65{fill:#FFD648;}
	.st66{fill:#C19F72;}
	.st67{fill:#EAE0C5;}
	.st68{fill:#434444;}
	.st69{fill:url(#SVGID_1_);}
	.st70{fill:#F8F1E1;}
	.st71{fill:#D7DAD1;}
	.st72{fill:#564636;}
	.st73{fill:#FFFCF5;}
	.st74{fill:#606061;}
	.st75{fill:#E0CDC7;}
	.st76{fill:#EEA886;}
	.st77{fill:#FDFDF1;}
	.st78{opacity:0.57;fill:none;stroke:#CFD5D5;stroke-width:18;stroke-miterlimit:10;}
	.st79{opacity:0.34;fill:none;stroke:#CFD5D5;stroke-width:18;stroke-miterlimit:10;}
	.st80{fill:#FFFDF6;}
	.st81{fill:#485E60;}
	.st82{fill:#637A78;}
	.st83{fill:url(#SVGID_2_);}
	.st84{fill:#E4C6AE;}
	.st85{opacity:0.1091;fill:#CBA98D;}
	.st86{opacity:0.73;}
	.st87{fill:#7C493C;}
	.st88{opacity:0.5;fill:#F3C4BB;}
	.st89{fill:#F3C4BB;}
	.st90{fill:#F9DCD8;}
	.st91{opacity:0.73;fill:#7C493C;}
	.st92{opacity:0.73;fill:#172D2B;}
	.st93{opacity:0.73;fill:#586B6A;}
	.st94{opacity:0.73;fill:#2F4948;}
	.st95{opacity:0.73;fill:#385E5B;}
	.st96{opacity:0.73;fill:#3C514F;}
	.st97{opacity:0.73;fill:#CEDEFC;stroke:#CEDEFC;stroke-miterlimit:10;}
	.st98{fill:#845532;}
	.st99{fill:none;stroke:#422E1C;stroke-width:3;stroke-miterlimit:10;}
	.st100{fill:#C7A98F;}
	.st101{fill:#FFFFFF;}
	.st102{fill:#B17B4D;}
	.st103{fill:#FFC152;}
	.st104{fill:#F9A69E;}
	.st105{fill:#343A53;}
	.st106{fill:#635A4E;}
	.st107{fill:#B2D7CD;}
	.st108{fill:#A2A4AF;}
	.st109{fill:#CEDEFC;}
	.st110{fill:#FDA6AF;}
	.st111{fill:#F6CE60;}
	.st112{fill:#AEC8FC;}
	.st113{fill:#C4A453;}
	.st114{fill:#F6CE61;}
	.st115{fill:#2D4D70;}
	.st116{fill:#30200A;}
	.st117{fill:#303030;}
	.st118{fill:#705534;}
	.st119{fill:#415E6B;}
	.st120{fill:url(#SVGID_3_);}
	.st121{fill:#606060;}
	.st122{fill:#E8E5E2;}
	.st123{fill:#4C4338;}
	.st124{fill:#FFC246;}
	.st125{fill:#8C633F;}
	.st126{fill:#66605A;}
	.st127{fill:#C9B293;}
	.st128{fill:none;stroke:#000000;stroke-width:0.5;stroke-miterlimit:10;}
	.st129{clip-path:url(#SVGID_5_);}
	.st130{clip-path:url(#SVGID_7_);}
	.st131{clip-path:url(#SVGID_9_);fill:#DAECFF;}
	.st132{clip-path:url(#SVGID_9_);fill:none;stroke:#000000;stroke-miterlimit:10;}
	.st133{clip-path:url(#SVGID_9_);fill:#F36B7F;}
	.st134{clip-path:url(#SVGID_9_);fill:none;stroke:#000000;stroke-width:0.5;stroke-miterlimit:10;}
	.st135{opacity:0.43;clip-path:url(#SVGID_9_);}
	.st136{clip-path:url(#SVGID_11_);fill:#7F3B48;}
	.st137{clip-path:url(#SVGID_13_);fill:#7F3B48;}
	.st138{fill:#C67065;}
	.st139{fill:#CEDEFC;stroke:#CEDEFC;stroke-miterlimit:10;}
	.st140{fill:#FF5F7D;}
	.st141{opacity:0.1091;fill:#3D6341;}
	.st142{fill:#82B5A5;}
	.st143{fill:none;}
	.st144{fill:#F7D2E4;}
	.st145{fill:#DD6454;}
	.st146{fill:#3B4934;}
	.st147{fill:#C6B74A;}
	.st148{fill:#E7BE84;}
	.st149{fill:#305564;}
	.st150{fill:#F5D060;}
	.st151{fill:#563818;}
	.st152{fill:#6F9B8D;}
	.st153{fill:#AAC1E4;}
	.st154{fill:#BE4D5D;}
	.st155{fill:#9B9B9B;}
	.st156{fill:#6A6561;}
	.st157{fill:#9FBFFF;}
	.st158{fill:#F8CF61;}
	.st159{fill:#A2B0B0;}
	.st160{fill:#FFC356;}
	.st161{fill:#F8CF62;}
	.st162{fill:#DED9F8;}
	.st163{fill:#FEDCD1;}
	.st164{fill:#5E5349;}
	.st165{opacity:0.96;fill:#F6CE61;}
	.st166{opacity:0.76;}
	.st167{fill:#0B2D50;}
	.st168{fill:#75685E;}
	.st169{stroke:#000000;stroke-width:0.25;stroke-miterlimit:10;}
	.st170{fill:#FFFFFF;stroke:#000000;stroke-width:0.25;stroke-miterlimit:10;}
	.st171{fill:#F6CE61;stroke:#000000;stroke-width:0.25;stroke-miterlimit:10;}
	.st172{fill:#F16B80;stroke:#000000;stroke-width:0.25;stroke-miterlimit:10;}
	.st173{fill:none;stroke:#A8A8A8;stroke-width:0.75;stroke-miterlimit:10;}
	.st174{fill:#D8A08F;}
	.st175{fill:#8E6E43;}
	.st176{fill:#CCDBED;}
	.st177{fill:#FFF8EB;}
	.st178{opacity:0.22;}
	.st179{fill:#C19D8E;}
	.st180{opacity:0.59;}
	.st181{fill:#F9E7E5;}
	.st182{fill:#FFBF56;}
	.st183{fill:#F4DDAE;}
	.st184{fill:#AA8B7E;}
	.st185{clip-path:url(#SVGID_15_);}
	.st186{opacity:0.92;clip-path:url(#SVGID_17_);}
	.st187{clip-path:url(#SVGID_19_);fill:#E7BE84;}
	.st188{clip-path:url(#SVGID_19_);fill:#1D1D1B;}
	.st189{clip-path:url(#SVGID_19_);fill:#F9A07A;}
	.st190{clip-path:url(#SVGID_19_);fill:#F8CF62;}
	.st191{clip-path:url(#SVGID_19_);fill:#0A2E4F;}
	.st192{clip-path:url(#SVGID_19_);fill:#AAC1E4;}
	.st193{clip-path:url(#SVGID_19_);fill:#BC986B;}
	.st194{clip-path:url(#SVGID_19_);fill:#81B4A5;}
	.st195{opacity:0.37;fill:#EDEEEF;enable-background:new    ;}
	.st196{opacity:0.45;fill:#FF921E;enable-background:new    ;}
	.st197{opacity:0.45;}
	.st198{fill:url(#SVGID_20_);}
	.st199{fill:url(#SVGID_21_);}
	.st200{fill:url(#SVGID_22_);}
	.st201{fill:url(#SVGID_23_);}
	.st202{fill:url(#SVGID_24_);}
	.st203{fill:url(#SVGID_25_);}
	.st204{fill:url(#SVGID_26_);}
	.st205{opacity:0.45;fill:#FFFFFF;enable-background:new    ;}
	.st206{opacity:0.45;fill:#F5D060;enable-background:new    ;}
	.st207{opacity:0.45;fill:#343A53;enable-background:new    ;}
	.st208{opacity:0.45;fill:#F9A69E;enable-background:new    ;}
	.st209{opacity:0.45;fill:#FFC246;enable-background:new    ;}
	.st210{opacity:0.45;fill:#635A4E;enable-background:new    ;}
	.st211{opacity:0.45;fill:#B2D7CD;enable-background:new    ;}
	.st212{fill:#C9C0B9;}
	.st213{fill:#DDA036;}
</style>
<rect y="0" class="st2" width="5815" height="1594"/>
<path class="st195" d="M1569.3,480.4c-20.8-107.1-445-153.8-802.6-16.5c-142,54.5-190.3,106.1-217.1,152.7
	c-75,130.8-38.1,322.4,65.5,424.5c116.5,114.8,316.4,115.4,352.2,115.5c49.5,0.2,120.7-6.6,217.1,20.6
	c61.4,17.3,61.3,28.2,102.4,37.2c81.7,17.7,223.7,5.1,299-103.2c58.1-83.6,58.9-199,16.3-276.6c-47.7-86.8-127.1-85.1-139.2-152.1
	C1446.5,592.7,1581.7,543.6,1569.3,480.4z"/>
<path class="st1" d="M1215.3,968.1c10.2-14.4,49-8.1,76-11.9c4.1,13.2,21.1,67.6,61.6,72.9c30.3,4,64.6-20.9,76.4-30.2v56
	c-20.3,9.1-51.9,20.3-93.6,25c-24.4,2.8-60.3,6.8-81.5-3.5c-2.8-1.3-10.7-5.7-26.6-14.5c-5-2.8-8.4-4.7-10.9-6.1
	c-0.3-2.1-0.7-4.1-1.4-6.1C1207.9,1022.1,1198.9,993.3,1215.3,968.1z"/>
<g>
	<path class="st103" d="M1151.1,842.3c17.3-12.2,25.2-24.9,29-34.5c5.4-13.4,5.1-34.8,9.6-50.6c0.8-2.6,1.8-5.8,3.4-12.1
		c1.8-7.2,2.1-9,3.4-12.1c2.7-6.1,6.6-9.6,8.1-11.1c11.1-11,15.4-34.1,15.7-36.1c2.7-12.5,1.3-31.5-18.4-58.9
		c-3.5-3.1-16.1-13.4-34.8-13.4c-25.9-0.1-41.2,19.7-43,22.1c1.7,11.8,0.4,24.2-3.8,35.3c-1.3,3.5-3,6.9-5.8,9.3
		c-9.7,8.4-24.7-0.5-37.2,2.1c-11.1,2.4-18.4,14.4-17.5,25.8c0.9,11.4,8.8,21.3,18.6,26.9c9.8,5.6,21.3,7.4,32.6,7.6
		c-15,18.4-22.6,42.9-20.4,66.7c4.8,5.1,9.7,10.4,14.9,15.1c4,3.6,10.4,9,17.1,12.1c15.2,7.4,35,1.9,40.2,0.3"/>
</g>
<g>
	<path class="st104" d="M1198,812.2c6,0.1,34.7-1.8,47-20.8c7.8-12.1,3.1-22.3-4.1-64.6c-10.1-58-5-57.3-12.7-78.4
		c-9.1-24.9-25.3-48-48-61.6c-22.7-13.6-52.5-16.3-75.6-3.5c-12.5-15.5-31.6-25.3-51.4-26.5c-5.4-0.3-10.9,0-15.9,2.1
		c-3.8,1.5-7.1,4-10,6.9c-13.7,14-14.4,38.1-3.7,54.5c10.7,16.4,31.1,25.1,50.6,24.3c-4.5,6.8-8.9,13.6-13.3,20.4
		c-4.4,6.7-8.8,13.4-14.3,19c-6.8,6.8-15,12-21.6,19c-16.6,17.8-19,44.7-16.7,69c1.9,19.6,6.4,39,13.1,57.4
		c16.2-4.5,32.4-8.9,48.6-13.3c6.7-1.8,13.6-3.8,19-8.1c4-3.2,6.9-7.6,9.5-12.1c10.8-18,18.6-37.8,22.8-58.4
		c-13.4,4.8-29.2,5.9-41.2-1.8c-12.1-7.7-17.4-26.2-8.1-37c8.5-9.9,23.8-9.3,36.5-6.8c1.7,0.3,3.5,0.7,5.2,0.1
		c2.2-0.8,3.5-3.2,4.4-5.4c6.4-15.1,9.1-32,7.4-48.4c18.1,9.3,40.5,5.4,58.6-4.1c2.1-1.1,4.5-2.2,6.6-1.5c1.8,0.6,3,2.4,4,4.1
		c11.1,18.4,22.7,39.5,17.3,60.4c-1.8,6.9-5.3,13.1-8.4,19.5c-13.1,26.6-19.5,55.9-25.8,84.9c-0.2,0.5-0.8,2.2,0,3.8
		c0.7,1.5,2.2,2.1,3,2.5C1192.3,812.1,1198,812.2,1198,812.2z"/>
</g>
<g>
	<g>
		<path d="M1109.5,717.3c-6.7-8.6-16.4-13.9-27.3-14.7c-0.4,0-0.4,0.5,0,0.6c10.7,0.8,20.3,6.1,26.9,14.6
			C1109.3,718,1109.7,717.6,1109.5,717.3L1109.5,717.3z"/>
	</g>
</g>
<g>
	<g>
		<path d="M1201.7,705.4c-9.1,8.9-22.5,12.2-34.7,8.4c-0.4-0.1-0.5,0.5-0.2,0.5c12.4,3.8,25.9,0.5,35.3-8.6
			C1202.3,705.5,1201.9,705.1,1201.7,705.4L1201.7,705.4z"/>
	</g>
</g>
<g>
	<g>
		<path d="M1201,644c-7.6-1.2-15-0.7-22.3,1.5c-0.4,0.1-0.2,0.7,0.2,0.5c7.2-2.2,14.5-2.8,22-1.5
			C1201.2,644.7,1201.4,644.1,1201,644L1201,644z"/>
	</g>
</g>
<g>
	<g>
		<path d="M1155.8,654.2c-10.3-0.5-20.1,2.6-28.2,9c-0.3,0.2,0.2,0.6,0.4,0.4c8-6.2,17.7-9.3,27.8-8.8
			C1156.2,654.8,1156.2,654.2,1155.8,654.2L1155.8,654.2z"/>
	</g>
</g>
<g>
	<g>
		<path d="M1167.8,657.3c1.1,5.8,3,11.5,6.7,16.3c2,2.6,4.5,4.5,6.7,6.9c4.9,5.3-0.7,9.4-5.4,11.7c-0.3,0.2-0.1,0.7,0.3,0.5
			c5.4-2.6,10.9-7,5.6-12.6c-3-3.1-6.1-5.8-8.4-9.5c-2.5-4.1-3.8-8.8-4.8-13.4C1168.3,656.8,1167.7,656.9,1167.8,657.3L1167.8,657.3
			z"/>
	</g>
</g>
<g>
	<g>
		<path d="M1162,672.8c-8.1-0.8-16.1-0.3-24,1.7c-0.4,0.1-0.2,0.6,0.2,0.5c7.8-2,15.8-2.6,23.9-1.7
			C1162.4,673.4,1162.4,672.9,1162,672.8L1162,672.8z"/>
	</g>
</g>
<g>
	<g>
		<path d="M1153.7,673.2c0.7,2.1,1.2,4.5,0.8,6.8c-0.5,2.8-2.5,4.1-5.1,2.6c-3.1-1.8-4.5-5.3-3.9-8.8c0.1-0.4-0.5-0.5-0.5-0.2
			c-0.8,4.1,1.4,9.1,5.8,10.1c5.7,1.2,4.5-7.9,3.5-10.7C1154.1,672.7,1153.6,672.9,1153.7,673.2L1153.7,673.2z"/>
	</g>
</g>
<g>
	<g>
		<path d="M1198,653.2c-6.3,1.5-11.6,5.2-15.2,10.7c-0.2,0.3,0.3,0.6,0.5,0.3c3.5-5.3,8.7-8.9,14.8-10.4
			C1198.6,653.7,1198.4,653.2,1198,653.2L1198,653.2z"/>
	</g>
</g>
<g>
	<g>
		<path d="M1191.3,656.6c2.2,2.2,5.1,5.2,3.6,8.6c-1.1,2.5-3.9,2.5-5.8,0.9c-1.5-1.3-2.3-3.2-3-5.1c-0.2-0.3-0.7-0.2-0.5,0.2
			c1.2,3.1,4.7,9.1,8.8,5.8c3.9-3.2-0.1-8.3-2.6-10.7C1191.4,655.9,1191.1,656.4,1191.3,656.6L1191.3,656.6z"/>
	</g>
</g>
<ellipse class="st104" cx="1204.5" cy="680.3" rx="6.8" ry="6.9"/>
<ellipse class="st104" cx="1151.1" cy="699.5" rx="8.2" ry="8.3"/>
<g>
	<g>
		<path d="M1198.8,625.5c-28.9,3.3-58.2-11.3-73.2-36.2c-0.2-0.3-0.7,0-0.5,0.3c15.1,25,44.7,39.8,73.8,36.4
			C1199.2,626.1,1199.2,625.5,1198.8,625.5L1198.8,625.5z"/>
	</g>
</g>
<g>
	<g>
		<path d="M1102.7,677.8c4.8-12.5,9.8-25.3,11.1-38.8c1.3-14-2.8-26.8-7.6-39.7c-0.2-0.3-0.7-0.2-0.5,0.2
			c4.8,12.9,8.9,25.6,7.6,39.5c-1.2,13.4-6.2,26.2-11.1,38.7C1102,678,1102.6,678.2,1102.7,677.8L1102.7,677.8z"/>
	</g>
</g>
<g>
	<g>
		<path d="M1089.9,604.8c0.5-11-3-21.5-7.2-31.5c-3.6-8.5-9-17.4-19-18.9c-0.4-0.1-0.5,0.5-0.2,0.5c10.8,1.6,16,11.9,19.6,21.1
			c3.7,9.2,6.5,18.7,6.1,28.8C1089.4,605.2,1089.9,605.2,1089.9,604.8L1089.9,604.8z"/>
	</g>
</g>
<g>
	<g>
		<path d="M1077.3,616.6c-23.7-7.8-44.4-23-58.9-43.2c-0.2-0.3-0.7,0-0.5,0.3c14.6,20.4,35.3,35.8,59.2,43.5
			C1077.5,617.2,1077.7,616.6,1077.3,616.6L1077.3,616.6z"/>
	</g>
</g>
<g>
	<g>
		<path d="M1070.5,633.8c-11.5,2.1-24.4,7.4-35.2,0.1c-0.3-0.2-0.6,0.3-0.3,0.5c10.9,7.4,23.9,2.1,35.6-0.1
			C1071,634.3,1070.9,633.8,1070.5,633.8L1070.5,633.8z"/>
	</g>
</g>
<g>
	<g>
		<path d="M1116,796.2c-1.3-10.1-6.7-18.5-12.8-26.4c-7.4-9.4-15.3-18.2-20.7-28.9c-11-21.5-13.9-47.7-2.8-69.6
			c5.4-10.8,13.7-21.3,12.4-34.2c0-0.4-0.6-0.4-0.6,0c1.3,12.7-6.8,23.1-12.3,33.8c-4.8,9.5-7.2,20-7.2,30.6
			c0,22,9.4,42.4,23.1,59.2c8.7,10.6,18.5,21.3,20.3,35.4C1115.5,796.5,1116.1,796.5,1116,796.2L1116,796.2z"/>
	</g>
</g>
<g>
	<g>
		<path d="M1076.5,833.4c-3.4-22.3-17.2-40.3-28.5-59.2c-11.6-19.5-21.3-44-10.3-66c0.2-0.3-0.3-0.6-0.5-0.3
			c-10,19.8-3.2,42.4,6.8,60.6c11.7,21.1,28.1,40.4,31.9,65C1075.9,833.9,1076.5,833.8,1076.5,833.4L1076.5,833.4z"/>
	</g>
</g>
<path class="st107" d="M919.6,1156.6c0.4,0.8-0.3,2.3-0.1,3.3c-1.6-1.5-2.6-2.5-3.4-3.3C917.4,1156.6,918.7,1156.2,919.6,1156.6z"/>
<path class="st2" d="M1024.9,814.1c33.2-4.5,45.1-4.6,59.2-14.9c26.6-19.5,31.4-58.9,39.5-57.2c4.1,0.8,2.8,11.1,10.1,15.7
	c7.7,4.8,19.3-0.2,27.9-4.9c9.3-2.1,21.8-3.1,30.5,3.8c19.2,15.4-5.6,49.4,13,77.4c16,24,46.4,21.1,71.5,54.7
	c12.8,17.1,8.1,27.8,14.4,64.9c-1.7,0.1-3.2,0.3-4.8,0.8c-10,3.1-21.1,0.5-31.7,1.5c-1.5,0-2.8,1.5-4.5,1.7c-4.8,0.8-9.1,0.5-14,2
	c-7.1,2-14.8,1.2-22.6,0.3c-0.8,0-1.5-1.7-2.3-1.7c-3.7-0.5-8.3,0.8-11.1-0.8c-3.5-2-4.8-1.2-7.1-1.7c0,13-0.5,26.2,0.3,39.1h1.7
	c0.8,21.6-0.3,42.8,0.5,64.4h1.7c0.8,5.4-1.2,11.5,1.2,15.8c3.1,6.3-0.3,11.2,1.7,16.4c0,0.3,1.7,0,1.7,0c0.8,3.1-0.8,6.6,0.8,8.9
	c2.8,4.3,0.5,6.6,2,9.5c0,0.3,1.7-0.3,1.7,0c0.8,2.3-0.3,4.6,0.5,6.9c0,0.3,1.5-0.3,2,0c0.3,0.5-0.3,1.7,0,2.3
	c2,1.7,2.8,3.1,2.3,4.5c-0.5-0.5-0.8-0.8-1.2-1.1c-34.2-29-169.9,62.9-185.1,43.5c-0.5-0.7-3-9.7-8.1-27.5c-0.9-3.1-1.8-6.1-2.6-9.3
	c-4-14.8-7.2-29.9-10-45c-2.8-15.1-5.2-30.2-7.6-45.4c-2.4-15.4-5.1-30.8-7.4-46.2c-4.6-30.8-8.1-61.6-10.5-92.6
	c-2-26.2-3.1-52.4-3.5-78.8C988.4,819,1004.9,816.8,1024.9,814.1z"/>
<path class="st2" d="M1192.7,955.4c2.3,0.5,3.7-0.3,7.1,1.7c2.8,1.7,7.4,0.3,11.1,0.8c0.8,0,1.5,1.7,2.3,1.7
	c7.7,0.8,15.4,1.7,22.6-0.3c4.8-1.5,9.1-1.2,14-2c1.7-0.3,3.1-1.7,4.5-1.7c10.6-0.8,21.7,1.7,31.7-1.5c1.5-0.4,3.1-0.6,4.8-0.8
	c0.2,0.8,0.2,1.5,0.4,2.2c0,0.2,0.1,0.2,0.1,0.4c-26.9,6.5-65.7-4.5-76,20.6c-16.4,43.8-7.4,93.5,0,141.7c0.7,3.4,1.1,6.8,1.4,10.4
	c-1.5-1.5-2.6-2.5-3.5-3.5c-0.2-0.6,0.3-1.6,0.1-2.1c-0.5-0.3-1.4,0-2.2,0c0,0,0,0-0.1-0.1c0.5-1.5-0.3-2.8-2.3-4.5
	c-0.3-0.5,0.3-1.7,0-2.3c-0.5-0.3-2,0.3-2,0c-0.8-2.3,0.3-4.6-0.5-6.9c0-0.3-1.7,0.3-1.7,0c-1.5-2.8,0.8-5.1-2-9.5
	c-1.7-2.3,0-5.8-0.8-8.9c0,0-1.7,0.3-1.7,0c-2-5.1,1.5-10.1-1.7-16.4c-2.3-4.3-0.3-10.4-1.2-15.8h-1.7c-0.8-21.6,0.3-42.8-0.5-64.4
	h-1.8C1192.1,981.6,1192.7,968.4,1192.7,955.4z"/>
<path class="st2" d="M979.5,908.2c-0.5,0-1.2-1.2-1.7-1.2c-6.8-0.5-13.7,0-20.6-0.5v-1.2c-6.4-0.3-12.7-0.4-19.1-0.4
	c2.8-40.3,11.2-71.1,23.7-79.1c15.3-9.8,27.4-6.6,27.4-6.6c12.1,3.1,18.3,15.4,20.6,19.9c7.9,15.4,9.3,40.8,8.8,69.3
	C1005.6,908.5,992.6,908.8,979.5,908.2z"/>
<path class="st1" d="M957.6,893.6v1.1c6.6,0.5,13.2,0,19.9,0.5c0.5,0,1.1,1.1,1.7,1.1c12.6,0.5,25.2,0.3,37.8,0.3
	c-0.8,60.7-10.1,136.5,21.3,158.3c15.4,10.7,51.7,16.3,82.4,12.7c2.4-0.3,4.1-0.5,5.4-0.8c25.8-3.7,113.8-19.4,136.6-74.9
	c7.8-19,5.6-37,23.2-50.4c1.9-1.5,18-13.4,31.9-8.4c18.9,6.8,26.6,42.5,14.5,64.5c-9.5,17.2-25.1,14.7-52.2,36.5
	c-17.8,14.4-25.8,27.2-34.8,39.2c-1.5,2.1-2.4,3.1-3.3,4.4c-5,6.6-52,63.7-137.5,79.6c-29.2,5.4-45.7,8.5-64.6,3.2
	c-81.3-22.7-107.3-172.4-100.8-267.2C945.2,893.3,951.4,893.3,957.6,893.6z"/>
<g>
	<path class="st107" d="M1332.4,951.4c3-24.7,6.1-49.4,9.1-74.2c9.5-0.2,23-1.5,37.7-7.1c74.7-28.2,88.9-129.2,89.5-133.6
		c2.2-17.8,11.7-92.3-39.6-135.9c-10.1-8.6-39.3-30.1-75.9-26.3c-78.4,8.3-106.2,124-107.6,130.1c-5.1,22.4-17.4,76.8,15.9,123.3
		c21.5,30,51.5,42.1,65.7,46.8c-2.3,23.9-4.5,48-6.8,71.9C1324.3,948.2,1328.4,949.8,1332.4,951.4z"/>
</g>
<path class="st108" d="M1412,632.7c23.3,30.5,24.6,65.2,24.9,76.4c0.2,7.4,0.5,42.6-21.5,79.9c-13.1,22.3-32.2,54.7-64.6,57.1
	c-38.1,2.8-64.9-38.5-67.9-43.4c-24.7-39.2-12.4-83.6-6.8-103.9c4.7-16.9,13.6-47.4,41.9-69.6c7.4-5.8,38.8-30.4,67.9-19.4
	C1398,614.4,1404.8,623.2,1412,632.7z"/>
<path class="st1" d="M1647.4,901.7c2.5,3,2.1,8.2-1.4,11.4c-11.8,7.3-23.6,14.7-35.5,22c-3.4,2.4-7.9,1.9-10.4-0.9
	c-2.8-3.1-2.6-8.4,0.9-11.4c12.7-7.8,25.5-15.6,38.1-23.3C1642.3,898.6,1645.5,899.5,1647.4,901.7z"/>
<path class="st1" d="M1650.4,916.8c2.5,3,2.1,8.2-1.4,11.4c-11.8,7.3-23.6,14.7-35.5,22c-3.4,2.4-7.9,1.9-10.4-0.9
	c-2.8-3.1-2.6-8.4,0.9-11.4c12.7-7.8,25.5-15.6,38.1-23.3C1645.3,913.7,1648.5,914.5,1650.4,916.8z"/>
<path class="st1" d="M1651.9,933.3c2.5,3,2.1,8.2-1.4,11.4c-11.8,7.3-23.6,14.7-35.5,22c-3.4,2.4-7.9,1.9-10.4-0.9
	c-2.8-3.1-2.6-8.4,0.9-11.4c12.7-7.8,25.5-15.6,38.1-23.3C1646.8,930.3,1650.1,931.1,1651.9,933.3z"/>
<path class="st122" d="M1620.2,822.2c-63.8,5.5-127.6,11.1-191.4,16.6c0,90.7,0,181.5,0,272.1c64.9-4.5,129.9-8.8,194.9-13.3
	C1622.5,1005.8,1621.4,914,1620.2,822.2z"/>
<path class="st196" d="M1581.4,912.4C1581.4,912.4,1581.4,912.4,1581.4,912.4C1581.4,912.4,1581.4,912.4,1581.4,912.4z"/>
<g id="_x34_Ig7RZ_1_" class="st197">
	<g>
		<path class="st150" d="M1557.7,876.8c0.1-0.3,0.2-0.6,0.6-1c3.3-3.4,7.1-6.1,11.2-8.6c0.4-0.2,0.8-0.4,1.2-0.3
			c0.2-0.2,0.3-0.2,0.5-0.3c0.7-0.5-0.3-0.8-0.6-1.3c-0.1,0-0.1,0.1-0.2,0.1c-0.6,0.3-1.1,0.3-1.7-0.1c-2.6-1.6-5.4-2.8-8.3-3.6
			c-1.6-0.4-3.3-0.6-5.1-0.9c-0.2,0.9-0.2,1.6-0.3,2.3c-0.3,3.9,0.3,7.7,1.7,11.4c0.2,0.5,0.2,0.9-0.1,1.3c0.3,0.4,0.6,0.8,0.9,1.2
			C1557.6,876.9,1557.7,876.8,1557.7,876.8z"/>
		
			<linearGradient id="SVGID_1_" gradientUnits="userSpaceOnUse" x1="5827.2012" y1="12605.1797" x2="5928.5796" y2="12605.1797" gradientTransform="matrix(0.7473 -0.5692 -0.6316 -0.7689 5145.5723 13924.7637)">
			<stop  offset="0" style="stop-color:#212746"/>
			<stop  offset="0.3781" style="stop-color:#262C4B"/>
			<stop  offset="0.8214" style="stop-color:#333A58"/>
			<stop  offset="1" style="stop-color:#3B4260"/>
		</linearGradient>
		<path class="st69" d="M1561,899.7c-0.2,0.2-0.6,0.2-0.8,0c-0.2-0.1-0.2-0.5-0.2-0.9c0.5,0.2,0.8,0.1,1,0.3
			C1561.2,899.2,1561.2,899.6,1561,899.7z"/>
		
			<linearGradient id="SVGID_2_" gradientUnits="userSpaceOnUse" x1="5827.2822" y1="12625.3711" x2="5928.6606" y2="12625.3711" gradientTransform="matrix(0.7473 -0.5692 -0.6316 -0.7689 5145.5723 13924.7637)">
			<stop  offset="0" style="stop-color:#212746"/>
			<stop  offset="0.3781" style="stop-color:#262C4B"/>
			<stop  offset="0.8214" style="stop-color:#333A58"/>
			<stop  offset="1" style="stop-color:#3B4260"/>
		</linearGradient>
		<path class="st83" d="M1558.3,875.8c-0.3,0.3-0.5,0.6-0.6,1c3.8-3.9,8.4-6.8,12.9-9.9c-0.4,0-0.7,0.1-1.2,0.3
			C1565.4,869.6,1561.6,872.4,1558.3,875.8z"/>
		
			<linearGradient id="SVGID_3_" gradientUnits="userSpaceOnUse" x1="5827.2822" y1="12625.3711" x2="5928.6606" y2="12625.3711" gradientTransform="matrix(0.7473 -0.5692 -0.6316 -0.7689 5145.5723 13924.7637)">
			<stop  offset="0" style="stop-color:#212746"/>
			<stop  offset="0.3781" style="stop-color:#262C4B"/>
			<stop  offset="0.8214" style="stop-color:#333A58"/>
			<stop  offset="1" style="stop-color:#3B4260"/>
		</linearGradient>
		<path class="st120" d="M1558.3,875.8c-0.3,0.3-0.5,0.6-0.6,1c3.8-3.9,8.4-6.8,12.9-9.9c-0.4,0-0.7,0.1-1.2,0.3
			C1565.4,869.6,1561.6,872.4,1558.3,875.8z"/>
		
			<linearGradient id="SVGID_5_" gradientUnits="userSpaceOnUse" x1="5827.2222" y1="12608.0811" x2="5928.6113" y2="12608.0811" gradientTransform="matrix(0.7473 -0.5692 -0.6316 -0.7689 5145.5723 13924.7637)">
			<stop  offset="0" style="stop-color:#212746"/>
			<stop  offset="0.3781" style="stop-color:#262C4B"/>
			<stop  offset="0.8214" style="stop-color:#333A58"/>
			<stop  offset="1" style="stop-color:#3B4260"/>
		</linearGradient>
		<path style="fill:url(#SVGID_5_);" d="M1557.7,876.8c-0.1,0.3,0,0.7,0.3,1.1c4.1,7.4,9.4,14,16,19.4c2.1,1.8,4.5,3.2,6.9,4.4
			c0.9-1.3,1.8-2.5,2.6-3.8c-2.9-3.5-4.8-6.7-5.3-9.1c3.2,1.8,5.8,4.2,7.9,7.1c0.8-0.3,1.4-0.6,2.1-0.8c0.7-0.2,1.4-0.5,2.2-0.7
			c-0.2-0.6-0.3-1.1-0.5-1.6c-1.1-3.7-2.8-7.1-4.9-10.4c-3.7-5.6-7.9-10.7-13-15c-0.5-0.4-0.8-0.5-1.2-0.6
			C1566.2,870,1561.6,872.8,1557.7,876.8z"/>
		
			<linearGradient id="SVGID_7_" gradientUnits="userSpaceOnUse" x1="5827.2222" y1="12608.0811" x2="5928.6113" y2="12608.0811" gradientTransform="matrix(0.7473 -0.5692 -0.6316 -0.7689 5145.5723 13924.7637)">
			<stop  offset="0" style="stop-color:#212746"/>
			<stop  offset="0.3781" style="stop-color:#262C4B"/>
			<stop  offset="0.8214" style="stop-color:#333A58"/>
			<stop  offset="1" style="stop-color:#3B4260"/>
		</linearGradient>
		<path style="fill:url(#SVGID_7_);" d="M1557.7,876.8c-0.1,0.3,0,0.7,0.3,1.1c4.1,7.4,9.4,14,16,19.4c2.1,1.8,4.5,3.2,6.9,4.4
			c0.9-1.3,1.8-2.5,2.6-3.8c-2.9-3.5-4.8-6.7-5.3-9.1c3.2,1.8,5.8,4.2,7.9,7.1c0.8-0.3,1.4-0.6,2.1-0.8c0.7-0.2,1.4-0.5,2.2-0.7
			c-0.2-0.6-0.3-1.1-0.5-1.6c-1.1-3.7-2.8-7.1-4.9-10.4c-3.7-5.6-7.9-10.7-13-15c-0.5-0.4-0.8-0.5-1.2-0.6
			C1566.2,870,1561.6,872.8,1557.7,876.8z"/>
		
			<linearGradient id="SVGID_9_" gradientUnits="userSpaceOnUse" x1="5827.1992" y1="12605.21" x2="5928.5835" y2="12605.21" gradientTransform="matrix(0.7473 -0.5692 -0.6316 -0.7689 5145.5723 13924.7637)">
			<stop  offset="0" style="stop-color:#212746"/>
			<stop  offset="0.3781" style="stop-color:#262C4B"/>
			<stop  offset="0.8214" style="stop-color:#333A58"/>
			<stop  offset="1" style="stop-color:#3B4260"/>
		</linearGradient>
		<path style="fill:url(#SVGID_9_);" d="M1560.3,899.7c0.2,0.2,0.5,0.1,0.8,0c0.2-0.1,0.2-0.5,0-0.7c-0.2-0.2-0.5-0.2-1-0.3
			C1560.1,899.3,1560.1,899.6,1560.3,899.7z"/>
		
			<linearGradient id="SVGID_11_" gradientUnits="userSpaceOnUse" x1="5827.1992" y1="12605.21" x2="5928.5835" y2="12605.21" gradientTransform="matrix(0.7473 -0.5692 -0.6316 -0.7689 5145.5723 13924.7637)">
			<stop  offset="0" style="stop-color:#212746"/>
			<stop  offset="0.3781" style="stop-color:#262C4B"/>
			<stop  offset="0.8214" style="stop-color:#333A58"/>
			<stop  offset="1" style="stop-color:#3B4260"/>
		</linearGradient>
		<path style="fill:url(#SVGID_11_);" d="M1560.3,899.7c0.2,0.2,0.5,0.1,0.8,0c0.2-0.1,0.2-0.5,0-0.7c-0.2-0.2-0.5-0.2-1-0.3
			C1560.1,899.3,1560.1,899.6,1560.3,899.7z"/>
		<path class="st101" d="M1590.3,894.4c-0.8,0.2-1.5,0.5-2.2,0.7c-0.7,0.2-1.4,0.5-2.1,0.8c-2.1-2.9-4.7-5.4-7.9-7.1
			c0.5,2.5,2.3,5.6,5.3,9.1c-0.8,1.2-1.7,2.5-2.6,3.8c-2.5-1.2-4.8-2.6-6.9-4.4c-6.6-5.4-11.9-12-16-19.4c-0.5-0.9-0.3-1.5,0.4-2.1
			c3.3-3.4,7.1-6.1,11.2-8.6c0.8-0.5,1.5-0.5,2.4,0.2c5.1,4.3,9.4,9.4,13,15c2.1,3.3,3.8,6.8,4.9,10.4
			C1590,893.3,1590.1,893.8,1590.3,894.4z M1573,882.6c1.8-1.3,2.1-3.9,0.6-5.9c-1.5-1.9-4.3-2.4-6.1-1.1c-1.8,1.4-2.1,4-0.7,5.9
			C1568.4,883.6,1571.1,884,1573,882.6z"/>
		<path class="st101" d="M1560.1,898.8c0.5,0.2,0.8,0.1,1,0.3c0.2,0.2,0.1,0.6,0,0.7c-0.2,0.2-0.6,0.2-0.8,0
			C1560.1,899.6,1560.1,899.3,1560.1,898.8z"/>
		<path d="M1573,882.6c-1.9,1.4-4.6,1-6.1-1c-1.5-1.9-1.2-4.5,0.7-5.9c1.8-1.4,4.6-0.8,6.1,1.1
			C1575.1,878.6,1574.8,881.3,1573,882.6z M1567.6,881.1c1.2,1.5,3.4,1.8,4.8,0.8c1.4-1.1,1.6-3.2,0.4-4.7c-1.2-1.5-3.3-1.8-4.7-0.7
			C1566.6,877.6,1566.4,879.6,1567.6,881.1z"/>
		<path class="st150" d="M1567.6,881.1c-1.2-1.5-1-3.5,0.5-4.7c1.5-1.1,3.5-0.8,4.7,0.7c1.2,1.5,1,3.7-0.4,4.7
			C1570.9,883,1568.8,882.6,1567.6,881.1z"/>
	</g>
</g>
<path class="st205" d="M1578.5,910.3c-0.8,0.5-4.9-2.8-6.8-7.4c-1.4-3.4-1.1-6.4-0.8-8.2c2.5,1.8,4.9,3.7,7.4,5.5
	c-0.3,1-0.7,2.5-0.7,4.2C1577.7,908.1,1579.1,910,1578.5,910.3z"/>
<path class="st205" d="M1599.4,894.3c0.7-0.6-1.7-5.2-5.8-8.1c-3.1-2.1-6.2-2.5-8.1-2.6c1.3,2.8,2.6,5.4,3.8,8.2
	c1.1-0.1,2.6-0.1,4.4,0.4C1597.3,893,1598.9,894.6,1599.4,894.3z"/>
<path class="st206" d="M1582.7,901.6c0.2,0.9,0.5,2.4,1.6,3.8c1.2,1.7,3.2,3.1,3.8,2.7c0.6-0.5-1.1-3.5-0.8-3.6
	c0.2-0.1,1.5,3.5,4.5,5.6c1.8,1.3,3.8,1.8,5.4,1.9c0.2-1.6,0.2-3.7-0.8-5.8c-1.6-3.3-5-5.1-4.8-5.3c0.2-0.2,3.5,2.3,4,1.8
	c0.5-0.5-1.1-2.9-3-4.6c-1.2-1.1-2.4-1.7-3.2-2.1c-0.8,0.2-2.5,0.7-4,2C1583.7,899.3,1583,900.7,1582.7,901.6z"/>
<path class="st208" d="M1576.7,870.2c0.2-0.8,0.4-1.3,0.5-1.6c2.4-4.8,12.9-7.1,18.5-6.1c1,0.2,2.1,0.5,3,1.5c0.8,1,1.2,2.5,0.7,3.5
	c-0.1,0.2-0.3,0.5-0.7,1.1c-0.2,0.3-0.3,0.5-0.4,0.8c0.4,0.6,0.9,1.6,1.2,2.9c0.2,1,0.1,1.7-0.1,3.9c-0.4,3.9-0.2,3.4-0.4,4.6
	c-0.2,1.1-0.5,2.4-1,5c-0.6,2.8-0.9,3.9-1.2,4.8c-0.3,1.1-0.6,1.9-0.8,2.5c-0.1,0-0.2-0.1-0.3-0.1l0,0c0,0,0,0-0.1,0
	c-0.2-0.1-0.3-0.1-0.4-0.2c0,0.1,0,0.1,0,0.2c-0.3-0.1-0.6-0.2-0.9-0.4c-0.1,0-0.1,0-0.2,0l-0.1-0.1c-0.1,0-0.2,0-0.2,0l-0.1-0.1
	c-0.1,0-0.2,0-0.2,0l-0.1-0.1c-0.2,0-0.2-0.1-0.3-0.1v-0.1c-0.1,0-0.2,0-0.2-0.1c0,0-0.1,0-0.2,0l-0.1-0.1c-0.1,0-0.2,0-0.2,0V892
	c-0.1,0-0.2,0-0.2,0v-0.2c-0.1,0-0.1,0-0.2,0v-0.1c-0.1,0-0.2,0-0.2-0.1c0,0-0.1,0-0.2,0v-0.1c0,0,0,0-0.1,0c-0.1,0-0.2,0-0.2-0.1
	l0,0h-0.1h-0.1v-0.1c-0.1,0-0.2,0-0.2-0.1l0,0c-0.2-2.5-0.2-5.3,0.1-8.4c0.2-1.6,0.4-3.1,0.7-4.5c-0.7,0.9-1.4,1.9-2.1,2.8
	c-0.2,0-0.3-0.1-0.5-0.1l0,0c-0.1-0.1-0.2-0.1-0.2-0.2c-0.1,0-0.2-0.1-0.2-0.2c-0.1,0-0.1,0-0.2,0c-0.2-0.2-0.4-0.3-0.6-0.4v-0.1
	c-0.1,0.1-0.2-0.2-0.2-0.1v-0.1c-0.1,0.1-0.2-0.2-0.2-0.1v-0.1h-0.1v-0.1c-0.1,0-0.1,0-0.2,0v-0.1h-0.1v-0.1c-0.1,0-0.1,0-0.2,0
	c0-0.1-0.2-0.2-0.2-0.2v-0.1c-0.1,0-0.1,0-0.2,0v-0.1h-0.1v-0.1h-0.1c0-0.1,0-0.2-0.1-0.2h-0.1v-0.1h-0.1V879h-0.1c0,0,0-0.1,0-0.2
	c0.1-0.1,0.1-0.2,0.2-0.3c-0.1,0-0.2-0.1-0.3-0.1c0.1-0.9,0.3-1.7,0.5-2.2c0.4-1,0.8-1.7,0.5-1.9c-0.2-0.2-0.6,0-0.7,0
	c-0.4,0.2-0.6,0.5-0.8,0.6c-0.3,0.4-0.9,0.8-2.1,1.5c-0.5,0.4-0.8,0.5-1,0.6c-1.3,0.5-2.8-0.5-3.2-0.7
	C1577.5,875.3,1576.3,872.5,1576.7,870.2z"/>
<path class="st209" d="M1586.4,879.1C1586.4,879.1,1586.4,879.1,1586.4,879.1C1586.4,879.1,1586.4,879.2,1586.4,879.1l0.2,0.1v0.1
	h0.1c0.1,0,0.1,0.1,0.1,0.2h0.1v0.1h0.1v0.1c0.1,0,0.1,0,0.2,0v0.1c0.1,0,0.2,0.1,0.2,0.2c0.1,0,0.1,0,0.2,0v0.1h0.1v0.1
	c0.1,0,0.1,0,0.2,0v0.1h0.1v0.1c0.1-0.1,0.2,0.2,0.2,0.1v0.1c0.1-0.1,0.2,0.2,0.2,0.1v0.1c0.2,0.1,0.4,0.2,0.6,0.4
	c0.1,0,0.1,0,0.2,0c0,0.2,0.1,0.2,0.2,0.2c0.1,0,0.2,0.1,0.2,0.2c-0.2,0.4-0.5,0.8-0.7,1.4c-0.1,0.2-0.3,0.7-0.5,1.2
	c-0.5,1.6-0.2,3.3-0.2,3.4c0.1,0.5,0.3,1.2,0,1.8c-0.1,0.2-0.2,0.4-0.3,0.4c-0.4,0.1-1.2-0.8-3.3-5.4c0.7-1.6,1.3-3.2,2-4.8
	C1586.4,879.1,1586.4,879.1,1586.4,879.1z"/>
<path class="st207" d="M1594.5,891.3c0.1,0.1,0.2,0.1,0.2,0.1v0.1C1594.6,891.4,1594.6,891.3,1594.5,891.3
	C1594.4,891.3,1594.4,891.3,1594.5,891.3C1594.4,891.3,1594.5,891.3,1594.5,891.3z"/>
<path class="st209" d="M1591.7,891.5L1591.7,891.5c0.1,0.1,0.2,0.1,0.2,0.1c0.1,0.1,0.2,0.1,0.2,0.1v0.1c0.1,0,0.1,0,0.2,0v0.1
	c0.1,0,0.2,0,0.2,0v0.1c0.1,0,0.2,0,0.2,0l0.1,0.1c0.1,0,0.2,0,0.2,0c0.1,0.1,0.2,0.1,0.2,0.1v0.1c0.2,0,0.2,0.1,0.3,0.1l0.1,0.1
	c0.1,0,0.2,0,0.2,0l0.1,0.1c0.1,0,0.2,0,0.2,0l0.1,0.1c0.1,0,0.1,0,0.2,0c0.3,0.2,0.6,0.3,0.9,0.4c-0.1,0.4-0.1,0.9-0.2,1.5
	c-0.1,1.2,0,1.9,0,2.8c0.1,2.5,0.2,3.8-0.1,3.9c-0.3,0.2-1.2-0.9-3.7-6.1c0.1-0.6,0.2-1.2,0.2-1.8
	C1591.7,892.7,1591.7,892,1591.7,891.5C1591.7,891.5,1591.7,891.5,1591.7,891.5C1591.7,891.5,1591.7,891.5,1591.7,891.5z"/>
<path class="st210" d="M1597.6,845c0,0,0.1-0.3,0.2-0.7l0,0C1597.6,844.8,1597.6,845,1597.6,845z"/>
<path class="st209" d="M1581.7,863.9c-0.8,0.5-1.5,1.1-2.4,1.5c-1.3,0.8-2.7,1.2-4.1,1.6c-0.2-0.6-0.2-1.2-0.1-2.1
	c0.2-3.4,0.2-5.1,0.5-6c0.3-1,0.9-1.9,2-3.8c0.3-0.5,0.5-0.9,1.1-1.3c0.9-0.7,1.9-0.9,2.5-0.9c0.7-0.8,0.8-1.3,0.8-1.6
	c0-0.1,0-0.2,0.2-0.3c0.2-0.1,0.5,0.3,0.9,0.4c0.3,0.1,0.7,0,1.3-0.5c1,1.8,1.8,2.1,2.5,2.1c0.5,0,1.1-0.2,1.9,0.2
	c0.3,0.2,0.3,0.2,0.8,0.4c0.2,0.1,0.7,0.3,1.6,0.4c0.5,0.1,0.9,0.1,1.8,0c0.6,0,1.4-0.1,2.2-0.1c0.2-2.2,0.5-4.5,0.8-6.6
	c0.1-0.5,0-0.8,0-1.1c-0.1-0.5-0.2-1-0.2-1c-0.2-0.5-0.3-0.7-0.2-0.8c0.1-0.1,0.2-0.1,0.3-0.1c0.3,0.1,0.3,0.7,0.4,0.7
	c0.1,0,0.1-0.3,0.1-0.3c0-1.2-0.5-2.5-0.3-2.5c0.1,0,0.2,0,0.2,0.1c0.2,0.2,0.5,0.5,0.6,1.2c0.2,0.8,0.2,1.2,0.2,1.2
	c0,0,0.1-0.2,0.2-0.4c0.1-0.4,0.2-0.8,0.3-1.2c0.2-0.6,0.2-0.8,0.4-0.8c0.2-0.1,0.3-0.1,0.5,0c0.2,0.2,0,0.5-0.3,1.6
	c-0.1,0.2-0.2,0.5-0.2,0.6l0,0c-0.2,0.4-0.2,0.7-0.2,0.7s0.1-0.2,0.2-0.7c0.1-0.2,0.4-1,0.8-1c0.1,0,0.2,0.1,0.2,0.2
	c0.1,0.1-0.1,0.2-0.1,0.2c0.1,0,0.3-0.2,0.4-0.2c0.1,0.1,0,0.3,0,0.5c-0.1,0.3-0.3,0.8-0.7,1.7c0.1,2,0.1,4.1,0,6.4
	c-0.1,1.8-0.2,3.5-0.5,5.1c-1.2,0.3-2.5,0.6-3.6,0.9l-5.2,0.2c-0.2,0.7-0.4,1.4-0.6,2.1c-0.7,0.2-1.3,0.6-2,1.1
	C1584.8,862.4,1583.3,863,1581.7,863.9z"/>
<g class="st197">
	<path class="st124" d="M1586.1,854.3c0.9-0.6,1.4-1.3,1.5-1.8c0.3-0.7,0.3-1.8,0.5-2.7c0.1-0.2,0.1-0.3,0.2-0.6
		c0.1-0.4,0.1-0.5,0.2-0.6c0.2-0.3,0.4-0.5,0.5-0.6c0.6-0.6,0.8-1.8,0.8-1.9c0.2-0.7,0.1-1.7-1-3.1c-0.2-0.2-0.8-0.7-1.8-0.7
		c-1.4,0-2.2,1.1-2.3,1.2c0.1,0.6,0,1.3-0.2,1.9c-0.1,0.2-0.2,0.4-0.3,0.5c-0.5,0.5-1.3,0-2,0.1c-0.6,0.2-1,0.8-0.9,1.4
		c0.1,0.6,0.5,1.2,1,1.5c0.5,0.3,1.2,0.4,1.8,0.4c-0.8,1-1.2,2.3-1.1,3.5c0.2,0.3,0.5,0.5,0.8,0.8c0.2,0.2,0.5,0.5,0.9,0.6
		c0.8,0.4,1.8,0.1,2.1,0"/>
</g>
<g class="st197">
	<path class="st150" d="M1588.6,852.7c0.3,0,1.8-0.1,2.5-1.1c0.4-0.6,0.2-1.2-0.2-3.5c-0.5-3.1-0.2-3.1-0.7-4.2
		c-0.5-1.3-1.4-2.5-2.5-3.3c-1.2-0.7-2.8-0.8-4.1-0.2c-0.7-0.8-1.7-1.4-2.8-1.4c-0.3,0-0.6,0-0.8,0.1c-0.2,0.1-0.4,0.2-0.5,0.4
		c-0.8,0.8-0.8,2-0.2,2.9c0.5,0.8,1.7,1.3,2.7,1.3c-0.2,0.4-0.5,0.7-0.7,1.1c-0.2,0.4-0.5,0.7-0.8,1c-0.4,0.4-0.8,0.6-1.2,1
		c-0.9,0.9-1,2.4-0.9,3.7c0.1,1.1,0.3,2.1,0.7,3.1c0.8-0.2,1.8-0.5,2.6-0.7c0.4-0.1,0.7-0.2,1-0.5c0.2-0.2,0.4-0.4,0.5-0.6
		c0.6-1,1-2,1.2-3.1c-0.7,0.2-1.5,0.3-2.2-0.1c-0.6-0.4-0.9-1.4-0.5-2c0.5-0.5,1.3-0.5,1.9-0.4c0.1,0,0.2,0,0.3,0
		c0.2-0.1,0.2-0.2,0.2-0.3c0.4-0.8,0.5-1.7,0.4-2.6c1,0.5,2.1,0.3,3.1-0.2c0.1-0.1,0.2-0.2,0.4-0.1c0.1,0,0.2,0.2,0.2,0.2
		c0.6,1,1.2,2.1,0.9,3.2c-0.1,0.4-0.3,0.7-0.5,1.1c-0.7,1.4-1.1,3-1.4,4.5c0,0-0.1,0.2,0,0.2c0,0.1,0.2,0.1,0.2,0.2
		C1588.3,852.7,1588.6,852.7,1588.6,852.7z"/>
</g>
<g class="st197">
	<g>
		<path d="M1584.1,847.4c-0.4-0.5-1-0.8-1.7-0.8c-0.4,0-0.4,0.5,0,0.6c0.5,0.1,0.9,0.3,1.2,0.7
			C1583.9,848.1,1584.3,847.7,1584.1,847.4L1584.1,847.4z"/>
	</g>
</g>
<g class="st197">
	<g>
		<path d="M1588.6,846.8c-0.5,0.4-1,0.5-1.6,0.4c-0.4-0.1-0.5,0.5-0.2,0.5c0.8,0.2,1.5,0,2.1-0.5
			C1589.3,846.9,1588.9,846.5,1588.6,846.8L1588.6,846.8z"/>
	</g>
</g>
<g class="st197">
	<g>
		<path d="M1588.8,843.4c-0.5-0.1-0.9-0.1-1.3,0.1c-0.4,0.1-0.2,0.7,0.2,0.5c0.3-0.1,0.7-0.2,1-0.1
			C1589,844.1,1589.2,843.5,1588.8,843.4L1588.8,843.4z"/>
	</g>
</g>
<g class="st197">
	<g>
		<path d="M1586.4,844c-0.6,0-1.2,0.2-1.6,0.5c-0.3,0.2,0,0.7,0.3,0.5c0.4-0.3,0.8-0.5,1.4-0.5C1586.7,844.6,1586.7,844,1586.4,844
			L1586.4,844z"/>
	</g>
</g>
<g class="st197">
	<g>
		<path d="M1586.7,844.5c0.1,0.3,0.2,0.6,0.4,0.9c0.1,0.1,0.2,0.2,0.2,0.3l0.2,0.2c0,0.1-0.2,0.2-0.3,0.2c-0.3,0.2-0.1,0.7,0.3,0.5
			c0.4-0.2,0.8-0.5,0.5-1c-0.2-0.2-0.3-0.3-0.5-0.5c-0.2-0.2-0.2-0.5-0.3-0.8C1587.2,844,1586.7,844.1,1586.7,844.5L1586.7,844.5z"
			/>
	</g>
</g>
<g class="st197">
	<g>
		<path d="M1586.7,845c-0.5-0.1-0.9,0-1.4,0.1c-0.4,0.1-0.2,0.6,0.2,0.5s0.8-0.2,1.2-0.1C1587.1,845.6,1587.1,845,1586.7,845
			L1586.7,845z"/>
	</g>
</g>
<g class="st197">
	<g>
		<path d="M1586,845.4C1586.1,845.7,1586.1,845.5,1586,845.4c0.2-0.4-0.5-0.5-0.5-0.2c-0.1,0.4,0.2,0.8,0.5,0.8
			c0.5,0.1,0.6-0.5,0.5-0.9C1586.4,844.8,1585.9,845,1586,845.4L1586,845.4z"/>
	</g>
</g>
<g class="st197">
	<g>
		<path d="M1588.5,843.9c-0.4,0.1-0.7,0.3-1,0.7c-0.2,0.3,0.3,0.6,0.5,0.3c0.2-0.2,0.4-0.4,0.6-0.5
			C1589,844.4,1588.9,843.8,1588.5,843.9L1588.5,843.9z"/>
	</g>
</g>
<g class="st197">
	<g>
		<path d="M1588,844.6c0.1,0.1,0.2,0.2,0.2,0c-0.2-0.3-0.7-0.2-0.5,0.2c0.2,0.3,0.5,0.7,0.8,0.5c0.4-0.2,0.2-0.8-0.1-1
			C1588.2,843.9,1587.8,844.3,1588,844.6L1588,844.6z"/>
	</g>
</g>
<ellipse class="st208" cx="1589" cy="845.7" rx="0.4" ry="0.4"/>
<ellipse class="st208" cx="1586.1" cy="846.7" rx="0.5" ry="0.5"/>
<g class="st197">
	<g>
		<path d="M1588.7,842.5c-1.5,0.2-2.8-0.5-3.7-1.8c-0.2-0.3-0.7,0-0.5,0.3c0.9,1.5,2.5,2.2,4.1,2.1
			C1589,843,1589,842.5,1588.7,842.5L1588.7,842.5z"/>
	</g>
</g>
<g class="st197">
	<g>
		<path d="M1583.7,845.6c0.6-1.5,0.8-2.8,0.2-4.3c-0.2-0.3-0.7-0.2-0.5,0.2c0.2,0.7,0.5,1.3,0.4,2s-0.3,1.4-0.6,2
			C1583.1,845.8,1583.7,845.9,1583.7,845.6L1583.7,845.6z"/>
	</g>
</g>
<g class="st197">
	<g>
		<path d="M1583.1,841.6c0-1-0.5-2.7-1.6-2.9c-0.4-0.1-0.5,0.5-0.2,0.5c0.8,0.2,1.2,1.7,1.2,2.4C1582.5,842,1583.1,842,1583.1,841.6
			L1583.1,841.6z"/>
	</g>
</g>
<g class="st197">
	<g>
		<path d="M1582.2,842c-1.2-0.4-2.2-1.2-3-2.1c-0.2-0.3-0.7,0-0.5,0.3c0.8,1.2,2,2,3.3,2.5C1582.4,842.7,1582.6,842.1,1582.2,842
			L1582.2,842z"/>
	</g>
</g>
<g class="st197">
	<g>
		<path d="M1581.8,842.9c-0.5,0.1-1.2,0.4-1.7,0c-0.3-0.2-0.6,0.3-0.3,0.5c0.7,0.5,1.4,0.2,2.1,0
			C1582.2,843.4,1582.1,842.8,1581.8,842.9L1581.8,842.9z"/>
	</g>
</g>
<g class="st197">
	<g>
		<path d="M1584.5,851.7c-0.4-1.5-1.8-2.4-2.1-3.8c-0.3-1.2,0-2.1,0.5-3.2c0.2-0.5,0.3-0.8,0.4-1.4c0-0.4-0.5-0.4-0.6,0
			c-0.1,1.6-1.2,2.5-0.9,4.2c0.3,1.8,1.8,2.7,2.2,4.3C1584.1,852.3,1584.6,852.1,1584.5,851.7L1584.5,851.7z"/>
	</g>
</g>
<g class="st197">
	<g>
		<path d="M1582.4,853.7c-0.5-2.2-3.1-4.1-2.1-6.5c0.2-0.3-0.4-0.5-0.5-0.2c-1.1,2.6,1.6,4.5,2.1,6.8
			C1581.9,854.3,1582.4,854.1,1582.4,853.7L1582.4,853.7z"/>
	</g>
</g>
<path class="st211" d="M1593,854.3c-4.6-1.8-6.1-1.8-6.4-1.2c-0.2,0.3,0.1,0.6-0.1,1.5c-0.2,1-1.1,2.4-2.5,2.5
	c-1.2,0.2-2.3-0.5-2.8-1.3c-0.6-1.1,0-2-0.5-2.4c-0.7-0.5-2.4,0.5-3.4,1.6c-1.4,1.5-1.7,3.3-1.8,4.3c0.4,0.2,2.3,1.4,3.9,0.7
	c0.2-0.1,0.5-0.2,0.8-0.6c0.6-0.8,0.2-2.1,0.1-2.1c-0.2,0-0.4,1.5-0.7,7.5c6.1-0.2,7.9-1.5,8.4-2.8c0.3-0.8,0.2-1.8,1-2.5
	c1.2-1,2.5-0.2,3.5-0.9C1593.1,858,1593.6,857,1593,854.3z"/>
<path class="st209" d="M1579.3,865.2c0.8-0.5,1.5-1.1,2.4-1.5c1.5-0.8,3.1-1.5,4.7-2.4c0.6-0.4,1.3-0.8,2-1.1v0.1
	c0.8-0.2,2.1-0.5,3.4-0.2c0.2,0,0.5,0.1,1.1,0.3c0.8,0.3,1.6,0.5,2.1,1.2c0.6,0.8,0.6,1.8,0.5,2.2c-0.3-0.2-0.8-0.5-1.4-0.8
	c-0.2-0.1-1.2-0.5-2.7-0.4c-1.5,0.1-2.6,0.7-5.4,2.3c-1.8,1.1-3.2,1.8-4,2.4c-2.3,1.5-3.5,2.5-4.7,2.1c-1.2-0.4-1.8-1.8-1.9-1.9
	c-0.1-0.2-0.2-0.5-0.2-0.7C1576.6,866.4,1578,865.9,1579.3,865.2z"/>
<g>
	<g>
		<path class="st212" d="M1597.6,938.6c-50.8-5.5-102.2-3.8-152.5,5.3c-2.9,0.5-1.7,5,1.2,4.5c49.9-9,100.9-10.7,151.3-5.1
			C1600.6,943.5,1600.6,938.9,1597.6,938.6L1597.6,938.6z"/>
	</g>
</g>
<g>
	<g>
		<path class="st212" d="M1450.2,970.2c46.9,1.5,93.9,0.4,140.6-3.5c2.9-0.2,3-4.8,0-4.6c-46.7,3.8-93.7,5-140.6,3.5
			C1447.2,965.5,1447.2,970.1,1450.2,970.2L1450.2,970.2z"/>
	</g>
</g>
<g>
	<g>
		<path class="st212" d="M1591.7,989.7c-48,0-96,0-144,0c-3,0-3,4.6,0,4.6c48,0,96,0,144,0C1594.6,994.3,1594.6,989.7,1591.7,989.7
			L1591.7,989.7z"/>
	</g>
</g>
<g>
	<g>
		<path class="st212" d="M1445.1,1028.4c49.7,0.5,99.4,1.2,149.1,1.7c3,0,3-4.6,0-4.6c-49.7-0.5-99.4-1.2-149.1-1.7
			C1442.1,1023.7,1442.1,1028.3,1445.1,1028.4L1445.1,1028.4z"/>
	</g>
</g>
<g>
	<path class="st103" d="M819.9,722.2c-15.5-10.9-22.4-22.2-25.9-30.7c-4.8-11.9-4.5-30.9-8.5-45.1c-0.7-2.4-1.6-5.1-3.1-10.7
		c-1.7-6.4-1.8-8-3.1-10.7c-2.3-5.3-5.8-8.4-7.3-9.8c-9.9-9.9-6.2-38.6-5.4-44.5c3.1-23.7,12.9-42,20.5-53.3
		c1.6-3.1,7.2-13.6,19.4-18.5c13-5.2,28.4-2.2,39.9,7.6c15.7-1.2,22,2.6,24.8,6.5c7.9,10.9-3.6,33.2,3.1,47.5
		c2.4,5.1,5.7,10.9,5.7,10.9c1.3,2.4,2.9,5.1,5.4,8.7c10.3,15,16.1,15.9,15.6,23c-0.8,10.1-7.8,19-16.6,23.9s-19,6.6-29.1,6.8
		c13.4,16.4,20,38.2,18.2,59.3c-4.3,4.6-8.6,9.2-13.3,13.4c-3.5,3.1-9.3,8-15.2,10.8c-13.2,6.4-27.8,3-35.8,0.3
		c28.6-7.3,57.2-14.6,85.8-21.9"/>
</g>
<g>
	<g>
		<path d="M857.3,611.3c5.8-7.5,14.4-12.2,23.9-13c0.4,0,0.4-0.6,0-0.6c-9.7,0.8-18.3,5.4-24.3,13.1
			C856.6,611.2,857,611.6,857.3,611.3L857.3,611.3z"/>
	</g>
</g>
<g>
	<g>
		<path d="M774.4,600.6c8.3,8.1,20.3,11,31.5,7.7c0.4-0.1,0.2-0.7-0.2-0.5c-10.9,3.3-22.7,0.4-30.9-7.5
			C774.6,600,774.2,600.4,774.4,600.6L774.4,600.6z"/>
	</g>
</g>
<g>
	<g>
		<path d="M775.6,546.2c6.7-1.1,13.1-0.6,19.6,1.4c0.4,0.1,0.5-0.5,0.2-0.5c-6.5-2-13.1-2.5-19.9-1.4
			C775,545.7,775.2,546.2,775.6,546.2L775.6,546.2z"/>
	</g>
</g>
<g>
	<g>
		<path d="M815.6,555.2c9-0.5,17.6,2.3,24.7,7.8c0.3,0.2,0.7-0.2,0.4-0.4c-7.3-5.6-16-8.4-25.2-8
			C815.2,554.7,815.2,555.2,815.6,555.2L815.6,555.2z"/>
	</g>
</g>
<g>
	<g>
		<path d="M804.4,557.3c-0.8,4.5-2.2,8.8-4.7,12.7c-2.1,3.3-5.3,5.4-7.7,8.4c-3.9,4.8,1.5,8.5,5.6,10.5c0.3,0.2,0.6-0.3,0.3-0.5
			c-3.8-1.8-9.3-5.4-5.2-10c1.9-2.1,4.2-3.9,6.1-6.2c3.4-4.3,5.1-9.5,6.1-14.8C805.1,557.1,804.4,557,804.4,557.3L804.4,557.3z"/>
	</g>
</g>
<g>
	<g>
		<path d="M810.1,571.9c7.2-0.8,14.2-0.3,21.3,1.5c0.4,0.1,0.5-0.5,0.2-0.5c-7.1-1.8-14.1-2.3-21.4-1.5
			C809.7,571.3,809.7,571.9,810.1,571.9L810.1,571.9z"/>
	</g>
</g>
<g>
	<g>
		<path d="M817,571.5c-0.8,2.6-1.9,10.7,3.2,9.6c4-0.9,5.9-5.3,5.2-9.1c-0.1-0.4-0.6-0.2-0.5,0.2c0.5,3.1-0.7,6.3-3.5,7.8
			c-5.5,3-4.8-5.5-3.9-8.4C817.6,571.3,817.1,571.1,817,571.5L817,571.5z"/>
	</g>
</g>
<g>
	<g>
		<path d="M777.8,554.4c5.4,1.3,10.1,4.5,13.2,9.2c0.2,0.3,0.7,0,0.5-0.3c-3.1-4.8-7.9-8.1-13.5-9.5
			C777.7,553.7,777.5,554.3,777.8,554.4L777.8,554.4z"/>
	</g>
</g>
<g>
	<g>
		<path d="M783.6,556.5c-2.3,2.2-5.8,6.8-2.3,9.7c3.7,3,6.8-2.4,7.8-5.1c0.2-0.4-0.5-0.5-0.5-0.2c-0.5,1.5-1.2,3-2.2,4.1
			c-1.6,1.6-4.5,1.9-5.5-0.5c-1.3-3,1.2-5.7,3.1-7.6C784.3,556.6,783.9,556.2,783.6,556.5L783.6,556.5z"/>
	</g>
</g>
<path class="st107" d="M764.5,972.5c-0.2,0.5,0.2,1.3,0.1,1.8c0.9-0.9,1.5-1.5,1.9-1.9C765.7,972.4,765,972.2,764.5,972.5z"/>
<path class="st107" d="M932.5,693.8c-11.7,0.6-19.2,3-35.2,1.9c-15-1-14.4-3.5-21-2.1c-16.1,3.2-19.6,18.3-34.7,20.6
	c-7.5,1.2-14-1.3-17.9-3.3c-5.7-4.5-16.2-11.5-28.3-9.8c-7.2,1-11.4,4.6-19,10.4c-34.5,26.1-46.4,27.4-61.9,48.7
	c-11.1,15.2-7,24.8-12.5,57.8c0.5,0,1.2,0.1,2.1,0.2c9.6,1.8,11.7,13.7,16.7,13.4c5-0.2,6.8-11.9,12.7-11.7c1.3,0,1.5,0.5,4,1.5
	c1.9,0.8,7.4,2,12.1,1.8c4.2-0.2,4.7-1.2,6.1-1c7.1,1.1,9.1,26.3,9.8,39.8c2.6,49.3-5.4,60.9-8.6,65.2c-4.1,5.4-8.8,8.9-11.9,10.9
	c3.3,0.8,6.9,1.6,10.8,2.1c9.6,1.4,18.1,1,24.9,0.1c-0.8-0.3-1.2-0.2-1.5,0c-1.3,0.8,0.5,4-0.8,7.9c-0.4,1.3-0.8,1.2-1.2,2.7
	c-0.5,2.3,0.3,3.9-0.5,5.8c0,0.2-1.5-0.2-1.5,0c-0.8,2.1,0.2,4.1-0.5,6.1c0,0.2-1.2-0.2-1.8,0c-0.2,0.5,0.2,1.5,0,2.1
	c-1.7,1.5-2.5,2.8-2,4.1c0.5-0.4,0.7-0.7,1-0.9c29.7-25.8,147.2,56,160.3,38.8c0.5-0.6,2.5-8.6,7.1-24.5c0.8-2.8,1.5-5.5,2.2-8.3
	c3.5-13.2,6.2-26.6,8.7-40.1c2.5-13.4,4.5-26.9,6.5-40.5c2.1-13.7,4.4-27.4,6.4-41.1c4-27.4,7.1-54.9,9.1-82.5
	c1.7-23.3,2.7-46.7,3-70.1C957,693.9,942.5,693.3,932.5,693.8z"/>
<path class="st107" d="M972.5,780.9c0.5,0,1-1,1.5-1c6.1-0.5,12.2,0,18.3-0.5v-1c5.7-0.3,11.4-0.3,17-0.3
	c-2.5-35.9-10-63.2-21.1-70.4c-13.6-8.8-24.4-5.9-24.4-5.9c-10.7,2.8-16.3,13.7-18.3,17.7c-7,13.7-8.2,36.3-7.9,61.7
	C949.4,781.1,961,781.4,972.5,780.9z"/>
<path class="st124" d="M489.3,825c-1.2,1.8,1.2,4.3,1.2,4.3l0,0l0,0c0,0,23.8,12.3,27.8,15.8c0.9,0.5,1.9,1.1,1.3,2
	c-0.5,0.9-2.1,1.2-3,0.7c-3.8-2.1-7.4-4.2-11.2-6.4c-4.6-2.6-9.3-5.3-13.9-7.9c-1.9-1.1-3.4-0.7-4.5,1.1c-1.2,1.8-0.8,3.2,1.2,4.3
	c9.1,5.2,18.5,10.5,27.8,15.8c-0.5,0.9-1.2,1.8-1.7,2.7c-7.4-4.2-14.8-8.4-22.3-12.7c-1.9-1.1-3.4-0.7-4.5,1.1
	c-1.2,1.8-0.8,3.2,1.2,4.3c5.1,4.1,14.3,9.3,25.1,14.3c8.9,3.8,23.9,10.1,64,18.5c19.2,3.6,33.9,6.1,33.9,6.1
	c9.1,1.5,17.2,2.6,24.8,4.5c0.6-12.9,6.3-23.9,3.5-37.5c-14.7-4.7-24.9-10.5-35.8-19.1c-16.3-14.2-26.8-29.6-31.8-39.6
	c-1.5,0.4-4,0.2-4.5,1.1c-6.4,6,15.4,31.5,10.1,38.1c-4.2,4.7-22.4,1.5-69.5-21.6c-1.9-1.1-3.4-0.7-4.5,1.1
	c-1.2,1.8-0.8,3.2,1.2,4.3c6.8,5.1,13.7,10.2,20.6,15.4c-0.5,0.9-1.2,1.8-1.7,2.7c-9.7-4.3-19.6-8.7-29.5-13
	C493.2,824.6,490.7,824.4,489.3,825z"/>
<path class="st6" d="M902.5,508.9c-5.8-17.2-23.9-25.3-59.9-41c-8.8-3.8-44.8-19.5-49-12.7c-2.1,3.5,4.8,11.2,3.5,12.1
	c-1.9,1.5-19.6-19.1-21.4-17.7c-1.8,1.4,13,21.6,9.8,24.6c-3.3,3.1-23-15.7-27.8-11.5c-2.1,1.8,1.4,5.9-0.6,15.4
	c-1.1,5.1-3.7,11.7-3.7,11.7s10.7-2.5,10.9-2.1c0.2,0.5-17,3.2-17.8,9.7c-0.4,3.2,3.4,6.1,5.6,7.8c10.1,7.8,18.8,4,22.8,8.2
	c1.8,1.8,1.8,4.5,0.9,7.9c0.9-0.1,1.8-0.2,2.6-0.8c3.1-1.8,5.1-3.3,8.8-3.5c0.3-0.1,0.8-1.5,1.2-1.5c11.3-1.8,22.2-3.6,33.6-4.1
	c2.6,0,3.3,2.8,5.8,4.2c0.7,0.2,1.9-0.6,2.6-0.4c0.1,0.3,0.2,1,0.2,1.3c7.8,1.6,13.4,6.5,21,9.1c0.1,0.3,0.2,1,0.2,1.3
	c0.3-0.1,1-0.2,1.3-0.2c1.5,3.8,4.1,6.4,5.9,9.8c1,2.5,1.7,5.4,4.2,7.4c0.4,0.6-0.1,1.7,0.3,2.6c0.4,0.6,1.1,0.8,1.5,1.2
	c1.2,6.4,2.1,13,2.5,19.5c-0.3,0.4-1.2,1.2-1.2,1.5c0.3,2.6-0.7,4.8-1.7,6.8c-0.2,0.7,0.5,1.6,0.3,2.6c-0.2,0.7-0.9,0.8-1.2,1.5
	c-0.2,1.4,0.7,2.5,0.5,3.9c-0.3,0.1-1,0.2-1.3,0.2c-0.5,1.7,1,2.8-0.2,5.7c-0.5,0.8,0.3,2.3,0.2,3.6c-0.2,0.7-1.2,1.2-1.2,1.5
	c0.2,2,0.5,4.1,0.7,6.1c0.6-1.3,1.3-2.6,2.2-3.8c5.5-7.4,11.2-5.2,16-13.4c4.8-8.1,0.5-12.7,4.9-22.5c4.1-9,9.4-9.1,14.3-16.5
	C909.4,530.2,903,510.4,902.5,508.9z"/>
<path class="st6" d="M936.6,968.7c-5.4-0.1-10.3,7.5-26.9,10.1c-15.2,2.3-29.5-1.4-40.5-4.6c-45-13.4-99.7-40.2-111.9-46.3
	c-4.1,3.6-8.1,7.2-12.1,10.8c-12.1,29-22.7,65-25.6,106.5c-2.6,37.1,1.6,69.9,8.1,97.2c8.5,1,17.1,2.1,25.6,3.1
	c0.2,0.2,0.2,0.5,0.4,0.7c22.8-0.2,45.5-0.7,68.4,0.5c3.4,0.2,8.4-0.4,11.8,0.6c1.8,0.5,4.1,0.5,6.2,0.4c-2.8-10.2-6.5-28.6-2-50.7
	c1.2-5.8,4.7-23,8.6-22.9c3.8,0.1,8.5,16,13,85.9c15.1-4.6,32.4-9,51.5-12.3c21.8-3.8,41.8-5.6,59.3-6.1
	C961.4,1009.9,949.1,968.9,936.6,968.7z"/>
<path class="st124" d="M754.9,796.9c-8.6-1.5-17.3-2.9-25.9-4.4c-7.6-2.7-15.1-5.4-22.7-8.1c-2.5,9.7-7.7,24.7-18.6,40.7
	c-10.3,15-19,29.5-34.2,31.9c-23.3,3.8-49.7-19.9-58.8-28.7v53.3c13,8.4,39.2,22.6,72,23.8c9.2,0.3,22.7,0.6,37.7-6
	c11.1-4.9,17.7-11.4,23.3-16.8c7.1-6.9,23.6-23.5,29.9-50.4c0.1-0.5,0.2-0.8,0.3-1.4C760.9,816.6,758,804.8,754.9,796.9z"/>
<path class="st213" d="M1009.5,778.4c-1.7-2.4-8-7.6-36.7,2.1c-26.9,22.8-59.7,29.6-78.4,17.4c-13-8.4-24.6-29.6-29.9-46.5
	c-0.5-1.5-0.8-2.6-1.1-3.5c-4.8-16.7-19.3-74.2,7.4-103c9.1-9.8,20.4-13.4,23.6-27.6c0.4-1.5,3.1-14.5-3.7-21.6
	c-9.2-9.6-32.5-4.7-42.1,8.6c-7.6,10.4-1.9,19.2-7.4,41.4c-3.7,14.7-9.2,23-13.8,31.6c-0.8,1.5-1.2,2.2-1.7,3.2
	c-2.5,4.8-23.7,48.7-10,104.8c4.9,20.2,7.4,30.2,15.6,40c31,36.7,100.9,26.9,142.5,9.5c18.7-7.8,32.2-17.4,39.8-23.3
	c0.3-0.5,0.7-1.5,1-2.7c1.8-6.2-0.8-10.8-3-19.6C1009.6,780.7,1010.9,780.3,1009.5,778.4z"/>
</svg>
