<?xml version="1.0" encoding="utf-8"?>
<!-- Generator: Adobe Illustrator 22.1.0, SVG Export Plug-In . SVG Version: 6.00 Build 0)  -->
<svg style="enable-background:new 0 0 841.9 595.3;" id="Calque_1" version="1.1" viewBox="0 0 841.9 595.3" x="0px"
     xmlns="http://www.w3.org/2000/svg" y="0px" xml:space="preserve">
<style type="text/css">
	.st0{fill:none;stroke:#727272;stroke-linecap:round;stroke-linejoin:round;}
	.st1{opacity:0.48;fill:#F09587;enable-background:new    ;}
	.st2{opacity:0.46;fill:#00A6C4;enable-background:new    ;}
	.st3{fill:none;stroke:#626262;stroke-miterlimit:10;}
	.st4{opacity:0.67;fill:#5EB676;enable-background:new    ;}
	.st5{fill:#626262;}
	.st6{fill:none;stroke:#626262;stroke-linecap:round;stroke-linejoin:round;}
	.st7{fill:#FFFFFF;stroke:#626262;stroke-linecap:round;stroke-linejoin:round;}
	.st8{fill:#FFFFFF;}
	.st9{fill:none;stroke:#FFFFFF;stroke-width:0.5;stroke-linecap:round;stroke-linejoin:round;}
	.st10{fill:#616161;}
	.st11{fill:none;stroke:#FFFFFF;stroke-width:0.5;stroke-linecap:round;stroke-linejoin:round;stroke-miterlimit:10;}
	.st12{fill:none;stroke:#FFFFFF;stroke-width:0.25;stroke-linecap:round;stroke-linejoin:round;stroke-miterlimit:10;}
	.st13{fill:#656666;}
	.st14{fill:#00A5C3;}
</style>
    <g>
	<path class="st10" d="M559.8,420.8c1.3,0.8,2.7,1.6,4,2.5c4.7,3.5,7.6,8.4,10.5,13.4c4,6.9,5.3,14.5,6.4,22.2
		c0.9,6.2,1.8,12.5,2.2,18.8c0.3,5.5-0.1,10.9-0.4,16.4c-0.1,1.8,0.5,2,2.1,2.1c8.1,0.3,15.4,2.7,21.9,7.6c2.7,2,3.3,5.6,1.6,8.5
		c-2,3.4-4.9,5.4-8.7,6.7c-9.7,3.2-18.8,1.4-27.7-2.8c-0.3-0.1-0.6-0.2-0.8-0.4c-2.3-2.4-4.7-1.8-7.4-0.6
		c-6.5,2.7-13.4,3.5-20.4,3.5c-3.9,0-7.7,0.2-11.6,0.2c-1.4,0-2.9-0.2-4.2-0.5c-1.9-0.4-3.3-1.5-3.8-3.4c-0.5-2,0.8-3.4,2.3-4.2
		c1.8-1,3.9-1.7,5.9-2.4c5.8-1.8,11.4-3.8,16.6-6.8c1-0.6,1.8-1.4,2.7-2.1c0.1,0.1,0.2,0.2,0.3,0.4c-1.7,1.3-3.1,2.9-5,3.8
		c-4.5,2.1-9.3,3.7-13.8,5.8c-1.8,0.8-3.6,1.8-5.1,3.2c-1.8,1.7-1.4,3.1,1,3.7c2.5,0.6,5,1,7.6,1.1c9.9,0.4,19.7-0.9,29-4.4
		c4.6-1.8,9.5-3.6,11.3-9c0.8-2.5,1.5-5,2.1-7.6c1.9-8.5,1.3-17.1,0.5-25.6c-0.6-6.7-1.9-13.3-2.9-20c-0.1-0.9-0.5-1.8-1.1-2.6
		c-0.3,1.2-0.7,2.5-1,3.7c-2.1,7.2-5.7,13.4-11.8,17.8c-3.5,2.5-7.5,4.4-11.8,5.5c-1.8,0.5-3.7,1-5.5,1.4c-0.3,0.1-0.7-0.2-1.1-0.2
		c0.2-0.3,0.4-0.9,0.8-0.9c2.6-0.8,5.2-1.3,7.8-2.1c10.1-3.1,16.3-10.1,20-19.9c3-7.9,0.5-14.6-3.6-21.1c-2.2-3.4-4.5-6.8-8-9.1
		c-0.5-0.4-0.9-1-1.3-1.6C559.5,421.2,559.6,421,559.8,420.8z"/>
        <path class="st10" d="M559.2,420c0.2-0.7,0.4-1.5,0.7-2.2c1.3-2.8,2.3-5.7,2.2-8.9c-0.1-5.1-5-8.5-9.8-5.4
		c-0.9,0.6-1.6,0.5-2.4-0.1c-7.6-6.1-15.9-6.1-24.6-2.9c-3.9,1.4-7.5,3.1-9.5,7c-0.6,1.1-1.1,2.1-1.9,3.1c-0.3-1.8,0.6-3.2,1.4-4.6
		c2.4-4.1,6.6-5.7,10.6-7.4c6.1-2.6,12.4-3.7,18.7-1.3c1.9,0.7,3.7,2,5.4,3.2c0.8,0.6,1.3,0.7,2.3,0.4c1.9-0.7,3.9-1.3,5.8-1.2
		c2.6,0.1,3.8,2.4,4.8,4.6c2.5,5.4,0,13.5-3.3,16C559.5,420.1,559.3,420.1,559.2,420z"/>
        <path class="st10" d="M527.1,413.3c-1.2,0.6-2.9,0.9-2.1,2.7c0.2,0.4,1.3,0.4,2.4,0.7c0.6,1.2,0.1,3.6-1.7,5.2
		c-1.5,1.4-4.2,1.7-6,0.5c-3.5-2.2-4.2-7.9-1.3-10.8C520.8,409.2,525.1,410,527.1,413.3z"/>
        <path class="st10" d="M557.1,483.9c-0.2,1.4-0.2,3.1-2,4c-1.9,0.9-3.8,0.5-5.3-0.8c-1.2-1.1-2.1-2.6-3-4c-0.2-0.3,0-0.9,0.1-1.3
		c0.6-1.7,1.3-3.3,2-4.9c0.2-0.5,1.1-1.1,1.6-1C553.9,476.4,557.1,480.3,557.1,483.9z"/>
        <path class="st10" d="M517.4,504.1c-2,2.5-4.6,3.6-7.8,3.9c-1.7,0.1-3.3,0-5,0.1c-2.7,0.2-5.2,1-6.8,3.3c-1.1,1.5-0.8,2.9,0.9,3.7
		c1.3,0.6,2.7,0.9,4.1,0.9c3.5,0.1,7-0.1,10.5-0.1c1,0,1.9,0,2.9,0.1c0.3,0,0.5,0.5,0.8,0.7c-0.3,0.2-0.6,0.7-0.8,0.7
		c-5.3,0-10.6,0.1-15.9-0.3c-2.3-0.2-4.8-1.1-5.7-3.9c-0.4-1.3-0.2-2.4,0.8-3.5c1.5-1.7,3.5-2.7,5.8-2.9c2-0.2,3.9-0.3,5.9-0.4
		c3.1-0.2,6.1-0.5,8.7-2.3c0.4-0.3,0.9-0.4,1.3-0.6C517.2,503.7,517.3,503.9,517.4,504.1z"/>
        <path class="st10" d="M515.4,474.6c-0.7-0.4-1.4-0.6-1.9-1.1c-7.7-7.7-9.6-17.1-7.6-27.5c0.6-3.3,2.5-5.9,5-8
		c0.3-0.2,0.8-0.2,1.2-0.3c-0.1,0.4,0,1-0.2,1.2c-4.3,4.4-5,9.8-4.7,15.7c0.4,6.8,3.8,12.3,7.4,17.7c0.4,0.6,0.8,1.1,1.2,1.7
		C515.7,474.1,515.6,474.3,515.4,474.6z"/>
        <path class="st10" d="M513.9,430c0.6,0.7,1.2,1.3,1.7,1.9c0.9,1.1,1.9,0.8,2.9,0.3c1.1-0.6,0.8-1.4,0.5-2.3
		c-0.7-2.1-0.7-4.2,0.7-6.2c0,0.6,0.1,1.2,0,1.8c-0.5,2.8,0.6,5.4,2.9,6.7c2.2,1.3,4.7,0.9,7.1-1.1c0.6-0.5,1.2-1,1.7-1.6
		c0.4-0.5,0.7-1.2,1.1-2c0.8,1.6,0.1,2.6-0.7,3.6c-1.8,2.1-3.5,4.3-5.4,6.3c-0.5,0.5-1.5,0.6-2.3,0.6c-1.8-0.1-3.7-0.4-5.5-0.7
		c-0.2,0-0.4-0.1-0.5-0.2c-1.4-2.2-2.9-4.4-4.3-6.5C513.7,430.7,513.8,430.5,513.9,430z M521.5,433.6c-0.2,1.2-0.4,2.4,1.1,2.6
		c1,0.1,2.4,0.6,2.5-1.4C523.9,434.4,522.7,434.1,521.5,433.6z M517.9,434.3c0.4,0.6,0.7,1.3,1.2,1.7c0.2,0.2,1.2-0.1,1.2-0.3
		c0-0.8-0.1-1.5-0.2-2.5C519.3,433.6,518.7,433.9,517.9,434.3z"/>
        <path class="st10" d="M506.6,490.2c-0.6-5.5,0.8-10.7,2.5-15.8c0.3-0.8,1.1-1.5,1.7-2.2c0,0.9,0.2,1.9-0.1,2.7
		c-3.3,8.7-2.8,17.5-0.5,26.3c0.1,0.4,0.4,0.8,0.3,1.2c-0.1,0.6-0.3,1.2-0.5,1.8c-0.5-0.4-1.3-0.8-1.4-1.3
		C507.7,498.7,507.1,494.4,506.6,490.2C506.8,490.1,506.5,490.2,506.6,490.2z"/>
        <path class="st10" d="M526,453.6c-2.3-1.5-2-4.8,0.5-6c1.2-0.6,1.9-1.3,2.6-2.4c1.7-2.7,6.3-4,9.2-2.6c1.2,0.6,2.3,1.4,3.5,2.1
		c0.3,0.2,0.7,0.5,1.1,0.5c1.9-0.3,2.8,1.1,3.2,2.5c0.4,1.2-0.1,2.6-0.3,3.9c-0.1,0.3-0.8,0.5-1.2,0.8c0-0.5-0.2-1,0-1.4
		c0.8-2.2,0.3-2.8-2-3.2c-0.6-0.1-1.2-0.6-1.5-1c-3.3-4.3-7.9-4.1-10.7,0.6c-0.3,0.5-1,1.1-1.5,1.2C525.4,449,524.6,450.2,526,453.6
		z"/>
        <path class="st10" d="M530.4,489.3c0.8-0.5,1.7-1,2.4-1.6c1.3-1,2.4-2.1,3.7-3.1c0.2-0.2,0.6-0.1,0.9-0.1c0,0.4,0.2,0.9,0,1.1
		c-2.2,1.8-4.3,3.8-6.6,5.3c-1.3,0.9-2.9-0.4-2.3-1.9c1.4-3.7,0.3-6.5-2.3-9.2c-0.8-0.8-0.9-2.4-1.3-3.9c1.9,2.2,3.4,4,5.1,5.7
		c1.3,1.4,1.7,2.8,1,4.6c-0.4,0.9-0.6,1.8-1,2.8C530.1,489,530.2,489.2,530.4,489.3z"/>
        <path class="st10" d="M512.5,435.6c-2.7-3-3.9-6.7-3.7-10.7c0.2-3.9,1.1-7.6,5.1-10.3c-0.2,0.9-0.1,1.3-0.3,1.6
		c-4.7,4.9-3.6,10.2-1.3,15.6c0.5,1.1,0.8,2.4,1.2,3.5C513.2,435.3,512.8,435.5,512.5,435.6z"/>
        <path class="st10" d="M545.1,456c3,1.8,5,4.5,5.8,8c0.4,1.6,0.3,3.4,0.4,5.1c0,0.4-0.4,0.8-0.6,1.3c-0.3-0.4-0.6-0.8-0.7-1.2
		c-0.7-2.4-1.1-5-2-7.3c-0.6-1.5-1.8-2.7-2.7-4.1c-0.3-0.4-0.5-0.9-0.7-1.4C544.6,456.2,544.9,456.1,545.1,456z"/>
        <path class="st10" d="M541.2,487.3c1.3-1,2.6-2.1,4-3.1c0.3-0.2,0.8-0.3,1.2-0.5c0,0.5,0.1,1.2-0.1,1.4c-1.7,1.5-3.4,3-5.2,4.2
		c-0.6,0.4-1.9,0.4-2.4,0c-0.5-0.4-0.4-1.6-0.2-2.4c0.2-1,0.7-1.9,1.3-2.7c0.3-0.4,0.8-0.7,1.3-1c0,0.5,0.2,1.1,0.1,1.6
		c-0.1,0.7-0.3,1.4-0.5,2.1C540.8,487,541,487.2,541.2,487.3z"/>
        <path class="st10" d="M556.2,404.5c2.9,2.9,4.1,8.1,2.7,10.2c-1.1-0.7-2.3-1.4-3.4-2.1c-0.2-0.1-0.3-0.7-0.1-0.9
		c1.6-1.9,1.3-4,0.7-6.2C556,405.2,556.1,404.9,556.2,404.5z"/>
        <path class="st10" d="M538.8,407.6c0.3,0.1,1.1,0.2,1.5,0.6c0.5,0.5,0.6,1.4,0.9,2.1c-0.7,0.1-1.4,0.5-1.9,0.3
		c-1.5-0.6-2.6,0.2-3.8,0.7c-0.4,0.2-0.9,0.1-1.3,0.2c0-0.4-0.1-0.9,0.1-1.3C535.1,408.5,536.5,407.6,538.8,407.6z"/>
        <path class="st10" d="M515,466.2c2,2.8,3.8,5.3,5.7,8C518,474.6,514.2,469.3,515,466.2z"/>
        <path class="st10" d="M530,457.7c0.7-0.4,1.4-0.7,2.1-1c1.8,2,1.8,2,4.9,0.4c-0.4,0.6-0.7,1.5-1.2,1.9c-0.9,0.7-2,1.2-3.1,1.6
		c-0.8,0.3-1.6,0.2-1.9-1C530.8,459,530.4,458.5,530,457.7z"/>
        <path class="st10" d="M524.8,473.4c-1.6,0-4.6-3.1-4.6-4.4c0-0.3,0.2-0.7,0.4-0.7c0.4-0.1,1.1-0.2,1.3,0.1c1.1,1.3,2.2,2.6,3.2,4
		C525.3,472.6,524.9,473.2,524.8,473.4z"/>
        <path class="st10"
              d="M527.9,458.9c-2.1,3.5-2.2,7.3-1.8,11.3c-1.3-0.8-1.5-1.4-1.3-4.7C524.9,462.9,525.6,460.6,527.9,458.9z"/>
        <path class="st10" d="M534.5,453.3c-0.2,1.9-0.9,2.8-2.1,2.7c-0.7-0.1-1.6-0.9-1.9-1.6c-0.4-1,1.1-2.6,2.1-2.3
		C533.3,452.3,534,453,534.5,453.3z"/>
        <path class="st10" d="M539.4,474.5c2.7-1.3,5.1-2.5,7.6-3.7C547.2,472.8,542,475.4,539.4,474.5z"/>
        <path class="st10" d="M540.5,470.7c2-0.8,3.8-1.6,5.9-2.5C546,470.4,542.1,472,540.5,470.7z"/>
        <path class="st10" d="M536.4,452.2c-0.7-0.5-1.1-0.7-1.6-1c0.8-0.5,1.5-1.2,2.3-1.5c0.3-0.1,0.9,0.6,1.3,1
		C537.9,451.1,537.2,451.6,536.4,452.2z"/>
        <path class="st10" d="M529.8,452c-0.7-0.7-1.1-1.3-1.6-1.8c0.3-0.2,0.9-0.7,1-0.7c0.5,0.4,1,0.9,1.3,1.4
		C530.6,451.1,530.2,451.5,529.8,452z"/>
        <path class="st8"
              d="M521.5,433.6c1.3,0.4,2.4,0.8,3.6,1.2c-0.1,2-1.5,1.5-2.5,1.4C521.1,436,521.3,434.9,521.5,433.6z"/>
        <path class="st8" d="M517.9,434.3c0.8-0.4,1.3-0.7,2.2-1.1c0.1,1,0.3,1.7,0.2,2.5c0,0.1-1,0.4-1.2,0.3
		C518.6,435.5,518.4,434.9,517.9,434.3z"/>
</g>
    <path class="st11" d="M584.6,517.3c0,0,3-10.6,12.7-16.5"/>
    <path class="st11" d="M591.2,519.1c0,0,3-10.6,12.7-16.5"/>
    <path class="st11" d="M575.2,517c0,0,3.6-12,15.4-18.6"/>
    <path class="st11" d="M581,500.9c0,0,13.3-1.9,25.4,8.7"/>
    <path class="st11" d="M577,506.1c0,0,13.3-1.9,25.4,8.7"/>
    <path class="st11" d="M573.9,513c0,0,11.9-2.4,22.2,4.9"/>
    <path class="st12" d="M549.8,482.9c0,0,2.7-1.9,6.1-1"/>
    <path class="st12" d="M551,484.9c0,0,2.7-1.9,6.1-1"/>
    <path class="st12" d="M547.7,480.5c0,0,3.1-2.1,7.1-0.9"/>
    <path class="st12" d="M552.1,477.9c0,0,3.4,2.7,4.2,8.3"/>
    <path class="st12" d="M550.2,478.2c0,0,3.4,2.7,4.2,8.3"/>
    <path class="st12" d="M548.2,479.2c0,0,3.2,2.3,4.2,6.6"/>
    <g>
	<g id="Calque_2_2_">
		<path class="st0" d="M197.3,259.6c0,0-20.5-12.1-16-35c4.5-22.9,29.9-22.6,33.5-4c0,0,4.5,24.9-15,39l2.3,2.3
			c-0.8,1.3-2.2,2.1-3.7,2.3c-1.4,0-2.7-0.4-3.9-1.2L197.3,259.6z"/>
        <path class="st0" d="M198.3,264.1c0,0-8.6,12.3-1.2,23.1c7.4,10.8,11.7,11.5,11.9,16.6c0.2,5.1-10.3,7-11,14.1
			c-0.7,7.1,10.6,5.7,11,11.1c0.4,5.3-13.3,6.3-13.1,13.3"/>
        <ellipse class="st1" cx="203.7" cy="229.2" rx="9.6" ry="19.7"/>
        <path class="st0" d="M333.5,138.2c0,0-18.6-11-14.5-31.8c4.1-20.8,27.1-20.5,30.4-3.6c0,0,4.1,22.6-13.7,35.4l2,2
			c-0.8,1.1-2,1.9-3.3,2c-1.3,0-2.5-0.4-3.5-1.1L333.5,138.2z"/>
        <path class="st0" d="M334.5,142.3c0,0-7.8,11.2-1.1,21c6.7,9.9,10.6,10.4,10.8,15.1c0.2,4.7-9.4,6.3-10,12.8s9.6,5.2,10,10
			c0.4,4.8-12.1,5.7-11.9,12.1"/>
        <ellipse class="st2" cx="339.4" cy="110.6" rx="8.7" ry="17.9"/>
        <polygon class="st3" points="464.5,79.5 541.9,69.8 542.2,167.9 464,170.4 		"/>
        <polyline class="st3" points="541.9,69.8 547.4,74.8 547.7,170.3 469.4,171.7 464,170.4 		"/>
        <line class="st3" x1="547.7" x2="542.2" y1="170.3" y2="167.9"/>
        <polygon class="st3" points="590.8,174.1 677.7,171.3 677.4,61.1 591.3,71.9 		"/>
        <polyline class="st3" points="590.8,174.1 596.8,175.5 683.9,174 683.5,66.6 677.4,61.1 		"/>
        <line class="st3" x1="677.7" x2="683.9" y1="171.3" y2="174"/>
        <polygon class="st3" points="464.2,293.8 542.4,309.3 542.7,210.4 463.7,203.7 		"/>
        <polyline class="st3" points="542.4,309.3 547.9,304.4 548.2,208.8 469.1,203.3 463.7,203.7 		"/>
        <line class="st3" x1="548.2" x2="542.7" y1="208.8" y2="210.4"/>
        <line class="st3" x1="308.7" x2="204.2" y1="386.4" y2="412.1"/>
        <polyline class="st3" points="363.6,343.5 363.6,372.7 308.1,386.6 		"/>
        <line class="st3" x1="363.6" x2="363.6" y1="40.1" y2="343.5"/>
        <line class="st3" x1="571" x2="634.5" y1="425.3" y2="441.6"/>
        <line class="st3" x1="360.2" x2="392.7" y1="372.9" y2="380.8"/>
        <path class="st1" d="M657.4,81.1c0.3-3,0-6.2-2.2-8.5c-2.7-2.8-6.6-2.7-10.2-2.7c-10.1-0.1-20.3,0.7-30.2,2.6
			c-4.8,0.8-9.6,1.9-14.2,3.3c-3.3,0.8-5.9,3.6-6.3,7c-0.1,0.8-0.2,1.6-0.3,2.3c-1.4,4.9,0.3,11.4,0.7,15.9c0,0.1,0,0.2,0,0.3
			c0,0.9,0.1,1.8,0.2,2.7c0.2,5.4,0.3,12,4.8,14.9c5.1,3.3,12.8,0.8,18.3,0l1.6-0.2c8.5-0.1,17-0.7,25.4-1.7
			c5.4-0.7,12.9-0.7,14.8-6c0.9-0.8,1.3-1.9,1.2-3.1l-3.6-25.9C657.4,81.6,657.4,81.3,657.4,81.1z"/>
        <path class="st2" d="M465.6,220.9l-1.8,26.8c-0.1,1.2,0.5,2.4,1.4,3.1c2.3,5.3,10,4.7,15.5,5c8.7,0.4,17.4,0.4,26-0.1l1.7,0.1
			c5.7,0.4,13.7,2.3,18.7-1.4c4.4-3.2,4-10,3.8-15.5c0-0.9,0-1.8,0-2.8c0-0.1,0-0.2,0-0.4c0.1-4.6,1.4-11.4-0.4-16.3
			c-0.1-0.8-0.3-1.6-0.4-2.4c-0.8-3.8-3.2-5.8-6.9-6.7c-4.9-1.1-9.8-1.8-14.8-2.3c-10.3-1.1-20.7-1.3-31-0.4
			c-3.7,0.3-7.6,0.4-10.2,3.5c-2.1,2.5-2.2,5.7-1.6,8.8C465.5,220.4,465.6,220.7,465.6,220.9z"/>
        <ellipse class="st2" cx="364.1" cy="445" rx="104.9" ry="30.8"/>
        <path class="st5" d="M468.2,141.4c0.5-0.5,2.7-1.4,3-1.1c0,0,0.1,0.1,0.1,0.2c0,0.2,0,0.5,0.1,0.7c0.7,2.5,3.6,7.5,6.3,11.5
			c-1.4-2.7-2.7-5.5-3.9-8.3c-0.8-1.8-1.2-3.7-1.4-5.6c-0.1-1,0.3-2,1-2.8c3.5-3.5,8.6,4.2,7.5,9.4c0.9-0.2,1.8,0,2.7,0.4
			c3.3,1.7,5.7,7.6,2.1,11.2c-0.7,0.7-1.6,1.1-2.6,1c-0.8,0-1.4-1-0.7-1c0.6,0.1,1.2-0.1,1.6-0.6c2.7-2.7-2.1-10.8-4-8.9
			c-0.3,0.5-0.8,0.9-1.3,1.2c-0.4,0.1-0.9,0-1.2-0.3c-0.1-0.3,0.3-1,0.7-1.5c1.1-3.8-2.4-10.9-4.3-8.9c-0.7,0.7-0.4,3,0.8,6.1
			c1.9,4.7,4.2,9.3,6.9,13.6c0.2,0.2,0.1,0.6-0.1,0.8c-0.6,0.6-2.1,1-2.6,0.5C475,155,467.1,142.4,468.2,141.4z"/>
        <path class="st5" d="M482.7,139.1c-0.1-0.2-0.1-0.4,0-0.6c0.6-0.5,1.4-0.8,2.2-0.8c0.4,0,0.5,0.5,0.6,0.8c0.8,1.7,1.6,3.3,2.6,4.9
			c-1-2.7-2-6.1-1.8-8.2c0-0.2,0.1-0.5,0.3-0.6c0.6-0.5,1.3-0.8,2.1-0.8c0.6,0,0.7,0.4,0.6,0.9c0,1.4,0.5,2.8,1.4,3.9
			c0.6,0.6,1,0.7,1.3,0.4c1-1,0-3.8-0.3-5c0-0.3,0.2-0.5,0.4-0.5c0.2,0,0.4,0.1,0.5,0.3c0.3,1.4,1.2,4.1,0.4,5.7
			c-0.8,1.3-2.5,1.7-3.9,0.9c-0.9-0.9-1.5-2-1.9-3.2c-0.1-0.3-0.1-0.2-0.1,0c0.3,3.4,2.6,9.3,4,10.9c0.2,0.2,0.1,0.4,0,0.5
			c-0.6,0.6-2.1,0.8-2.6,0.4C486.2,146,484.2,142.6,482.7,139.1z"/>
        <path class="st5" d="M487.6,123.8c0.6-0.4,1.3-0.6,2.1-0.8c0.6-0.1,0.9,0.2,1,0.9c0.3,1.1,0.9,4.3,0.4,4.9
			c-1.3,1.4-3.1-2.9-3.4-3.8C487.4,124.4,487.4,124,487.6,123.8z M495.1,139.8c-1.9-2.6-3.5-5.4-4.8-8.4c-0.1-0.2-0.1-0.5,0-0.7
			c0.6-0.5,1.4-0.8,2.2-0.8c0.5-0.1,0.5,0.5,0.6,0.8c1.3,2.9,2.9,5.7,4.7,8.3c0.3,0.4,0.5,0.2,0.5-0.2c0-2.9-1.7-6.7-2.7-8.9
			c-0.1-0.2,0.1-0.5,0.3-0.6c0.2-0.1,0.4,0,0.5,0.2c1,2.2,4.2,9.5,2.2,11.5c-0.9,0.7-2.2,0.6-2.9-0.3
			C495.6,140.5,495.4,140.2,495.1,139.8L495.1,139.8z"/>
        <path class="st5" d="M495.9,125.1c1.2-1.1,3-1.2,4.3-0.2c1.3,1.3,2,3.3,1.4,3.9c-0.6,0.4-1.3,0.6-2.1,0.6c-0.4,0-0.5-0.4-0.4-0.8
			c0.2-0.8,0.1-1.7-0.3-2.4c-0.4-0.8-0.8-1-1.1-0.8c-2,2,3.1,11.5,5.9,8.6c2.1-2.1-0.3-7.4-1.6-10.4c-0.1-0.2,0-0.5,0.3-0.6
			c0.2-0.1,0.5,0,0.6,0.3l0,0c1.3,3.1,4.3,9.4,1.5,12.2C498.8,141.1,492.7,128.3,495.9,125.1z"/>
        <path class="st5" d="M503.5,118.3c1.5-1.5,3.7-1.7,4.7-0.6c1.1,1.1,2,2.5,2.6,4c0.1-2-0.2-4-1-5.8c-0.1-0.2,0-0.5,0.3-0.6
			c0.2-0.1,0.5,0,0.6,0.3l0,0c1.1,2.5,1.3,5.4,0.7,8c0.6,2.3,0.4,4.6-1,6c-1.7,1.7-4.4,1-5.6-0.2c-2.3-2.3-4.1-6.6-3.2-9.6
			C501.9,119,502.6,118.4,503.5,118.3z M508.5,128.1c0.4-0.5,0.8-1.1,1-1.7c-0.6-2.4-1.8-4.7-3.5-6.5c-1.6-1.6-2.5-0.8-2.4,1
			c0.1,2.8,2.8,6.8,4.7,7.5C508.3,128.3,508.4,128.2,508.5,128.1L508.5,128.1z"/>
        <path class="st5" d="M503.7,105.9c0.4-0.5,2.7-1.4,3-1.1c0,0,0.1,0.1,0.1,0.2c0,0.2,0,0.5,0.1,0.7c0.9,3.3,6,11.4,8.9,15.2
			c0.5,0.6,0.7,0.6,0.7-0.1c-0.1-2.8-1.7-6.5-2.7-8.7c-0.1-0.2,0.1-0.5,0.3-0.6c0.2-0.1,0.4,0,0.5,0.2c1,2.2,4.2,9.5,2.2,11.5
			c-1.3,1.3-2.7-0.1-3.5-1.1C509.1,117.2,502.7,106.8,503.7,105.9z"/>
        <path class="st5" d="M521.1,113.9c0-0.1-0.1-0.1-0.1-0.2c0.8,2.1,1,4.2,0,5.3c-0.8,0.9-2.1,0.9-2.9,0.2c0,0-0.1-0.1-0.1-0.1
			c-2.9-2.3-5.6-7.7-4.5-11.2c0.3-1.1,1.7-1.4,3-1.9c0-0.1-0.1-0.3-0.2-0.4c-0.1-0.2-0.1-0.5,0-0.7c0.6-0.5,1.4-0.8,2.2-0.8
			c0.4-0.1,0.5,0.5,0.6,0.8c1.4,2.9,3,5.6,4.9,8.2c0.3,0.4,0.5,0.2,0.5-0.2c0-2.9-1.8-6.6-2.8-8.8c-0.1-0.2,0-0.5,0.3-0.6
			c0.2-0.1,0.5,0,0.6,0.2c1,2.2,4.3,9.4,2.3,11.4c-0.9,0.7-2.2,0.6-2.9-0.3C521.6,114.6,521.3,114.3,521.1,113.9z M517.2,107.8
			c-0.1-0.3-0.3-0.6-0.4-0.8c-0.3-0.1-0.6,0-0.9,0.3c-1.6,1.6,1.2,6.9,3.1,9.1c0.2,0.3,1,1.2,1.4,0.8
			C521.5,116,517.9,109.3,517.2,107.8L517.2,107.8z"/>
        <path class="st5" d="M528.7,111.2c-0.8,0.9-2.1,0.9-3,0.1c0,0,0,0,0,0c-2.9-2.3-5.6-7.7-4.5-11.3c0.2-0.6,0.7-1,1.3-1.2
			c0.6-0.2,1.1-0.4,1.7-0.6c-0.1-0.1-0.1-0.3-0.2-0.4c-0.1-0.2-0.1-0.4,0-0.6c0.6-0.5,1.4-0.8,2.2-0.8c0.3,0,0.4,0.2,0.5,0.5
			c0.1,0.3,0.2,0.5,0.4,0.8c1.1,2.2,2.4,4.4,3.5,6.1l0.2,0.3c0.2-2.6-0.3-5.2-1.4-7.6c-0.3-0.5,0.6-0.9,0.8-0.4
			c1.3,2.9,1.7,6.1,1.4,9.3c1.2,1.9,2.3,3.8,3.2,5.8c1,2.1,1.3,4-0.6,5.8c-0.6,0.6-1.4,0.9-2.3,0.8c-1.6-0.4-2.7-1.9-2.7-3.5
			c-0.1-1.8,0.6-3.8,0.9-5.5c-0.5-0.8-1-1.7-1.5-2.6C529.5,108.1,529.8,110.2,528.7,111.2z M526.8,108.5c0.2,0.3,1,1.2,1.4,0.8
			c1.1-1.1-2.5-7.8-3.2-9.3c-0.1-0.3-0.3-0.6-0.4-0.8c-0.3-0.1-0.7,0-0.9,0.3C522.1,101.1,524.9,106.4,526.8,108.5L526.8,108.5z
			 M532.9,113.7c-0.5-1.1-1.2-2.4-2-3.8c-0.3,1.8-1.1,4.6,0.4,6c0.4,0.5,1.1,0.5,1.6,0.1C533.3,115.6,533.5,114.8,532.9,113.7
			L532.9,113.7z"/>
        <path class="st5" d="M529.5,91.4c0.9-0.9,3.7-1.3,4.7-0.2c2.2,2.2,1.3,6.4-0.5,8.3c1.2,1.3,2.6,1.9,3.7,0.8
			c1.9-1.9-0.2-7.5-1.6-10.4c-0.3-0.5,0.6-0.9,0.8-0.3c1.5,3.1,4.1,9.6,1.5,12.2C532.5,107.5,526.2,94.8,529.5,91.4z M533.3,98.9
			c1.3-1.3,0.8-4.6-1.1-6.5c-0.2-0.3-0.6-0.3-0.9-0.1c-0.2,0.1-0.3,0.3-0.3,0.5C530.8,94.4,531.8,97.1,533.3,98.9z"/>
        <path class="st5" d="M477.7,265.1c0.7-0.1,1.3,0.1,1.8,0.5c1.9,1.9,1.4,6.8,3.3,8.7c0.1,0.1,0.2,0.2,0.1,0.3
			c-0.6,0.6-2.4,1-3.2,0.2c-1.9-1.9-0.6-5.9-2.2-7.5c-0.5-0.7-1.4-0.8-2.1-0.3c-0.1,0-0.1,0.1-0.2,0.1c-5.1,5.1,4.6,23.8,10.3,18.1
			c0.7-0.7,1.2-1.6,1.5-2.6c0-0.2,0.1-0.2,0.3-0.1c0.2,0.1,0.3,0.2,0.4,0.4c0.7,1.5,0,3.1-1.1,4.1c-8.9,8.9-21.6-12.6-13.6-20.5
			C474.4,265,476.2,264.5,477.7,265.1z"/>
        <path class="st5" d="M486.3,266.9c1.6-1.6,4.1-1.9,5.3-0.7c1.3,1.3,2.2,2.8,2.9,4.4c0.2-2.2-0.2-4.4-1-6.5
			c-0.1-0.3,0.1-0.6,0.4-0.7c0.2-0.1,0.5,0,0.6,0.3c1.2,2.8,1.5,6,0.8,9c0.6,2.6,0.4,5.2-1.2,6.7c-1.9,1.9-4.9,1.1-6.3-0.2
			c-2.6-2.6-4.7-7.4-3.6-10.7C484.6,267.6,485.4,267,486.3,266.9z M491.9,277.8c0.5-0.6,0.9-1.2,1.2-1.9c-0.7-2.7-2-5.2-3.9-7.3
			c-1.7-1.7-2.8-0.9-2.7,1.1c0.2,3.2,3.2,7.6,5.2,8.4C491.8,278,491.9,277.9,491.9,277.8z"/>
        <path class="st5" d="M488.7,252.9c0.7-0.4,1.5-0.7,2.3-0.8c0.7-0.1,1,0.2,1.2,1c0.3,1.3,1,4.8,0.4,5.5c-1.4,1.6-3.5-3.3-3.8-4.2
			C488.6,253.5,488.5,253.1,488.7,252.9z M497.1,270.8c-2.1-2.9-3.9-6.1-5.3-9.4c-0.1-0.2-0.1-0.5,0-0.7c0.7-0.5,1.6-0.8,2.4-0.9
			c0.5-0.1,0.5,0.6,0.7,0.9c1.5,3.2,3.3,6.4,5.3,9.3c0.3,0.5,0.5,0.2,0.5-0.2c0-3.2-1.9-7.5-3-10c-0.1-0.3,0.1-0.6,0.3-0.6
			c0.2-0.1,0.5,0,0.6,0.2c1,2.4,4.7,10.6,2.4,12.9c-1,0.8-2.4,0.7-3.2-0.3c0,0,0,0-0.1-0.1C497.7,271.5,497.4,271.2,497.1,270.8z"/>
        <path class="st5" d="M503.2,254.4c-0.1-0.3,0.1-0.6,0.4-0.7c0.2-0.1,0.5,0,0.6,0.3c0.7,2.5,0.3,5.2-1.2,7.4
			c3.3,2.2,6.1,5.2,8.2,8.6c0.6,0.9,0.9,1.9,1,2.9c0,0.7-0.3,1.3-0.8,1.7c-0.6,0.6-2.1,1.3-2.7,0.8c-0.7-0.8-1.4-1.6-2.1-2.4
			c-4.7-5.8-8.8-12.1-12.1-18.7c-0.7-1.6-1-2.7-0.8-2.9c0.5-0.5,3-1.6,3.4-1.2c0,0.1,0.1,0.1,0.1,0.2c0,0.3,0,0.5,0.1,0.8
			c0.6,2.1,2.7,5.9,5,9.6C503.5,258.9,503.8,256.6,503.2,254.4z M510.6,271.1c-1.6-2.9-3.9-5.5-6.5-7.5c1.8,2.7,3.7,5.4,5.8,8
			c0.7,0.9,1.2,1.3,1.3,1.2S510.7,271.4,510.6,271.1z"/>
        <path class="st5" d="M508.5,249.1c-0.1-0.3,0.1-0.6,0.4-0.7c0.2-0.1,0.5,0,0.6,0.3c0.7,2.5,0.3,5.2-1.2,7.4
			c3.3,2.2,6.1,5.2,8.2,8.6c0.6,0.9,0.9,1.9,1,2.9c0,0.7-0.3,1.3-0.8,1.7c-0.6,0.6-2.1,1.3-2.7,0.8c-0.7-0.8-1.4-1.6-2.1-2.4
			c-4.7-5.8-8.8-12.1-12.1-18.7c-0.7-1.6-1-2.7-0.8-2.9c0.5-0.5,3-1.6,3.4-1.2c0,0.1,0.1,0.1,0.1,0.2c0,0.3,0,0.5,0.1,0.8
			c0.6,2.1,2.7,5.9,5,9.6C508.8,253.6,509.1,251.3,508.5,249.1z M515.9,265.7c-1.6-2.9-3.9-5.5-6.5-7.5c1.8,2.7,3.7,5.4,5.8,8
			c0.7,0.9,1.2,1.3,1.3,1.2C516.6,267.2,516,266.1,515.9,265.7L515.9,265.7z"/>
        <path class="st5" d="M516.5,251.4c0-0.1-0.1-0.2-0.1-0.2c0.8,2.4,1.2,4.7,0,5.9c-1,0.9-2.6,1-3.7,0.1c-0.3-0.4-0.6-0.7-0.9-1.1
			c-2.2-2.9-4-6.1-5.3-9.4c-0.1-0.2-0.1-0.5,0.1-0.7c0.7-0.5,1.6-0.8,2.5-0.9c0.5,0,0.5,0.6,0.7,1c1.4,2.9,3,5.8,4.8,8.4
			c0.5,0.7,1,0.9,1.3,0.6c1.3-1.3-2.7-8.9-3.5-10.5c-0.4-0.8-0.8-1.7-1.1-2.5c-0.1-0.2-0.1-0.5,0-0.7c0.7-0.5,1.6-0.8,2.5-0.9
			c0.5-0.1,0.5,0.6,0.7,0.9c1.5,3.2,3.3,6.4,5.3,9.3c0.3,0.5,0.5,0.2,0.6-0.2c0-3.2-1.9-7.5-3-10c-0.1-0.3,0.1-0.6,0.3-0.6
			c0.2-0.1,0.5,0,0.6,0.2c1,2.4,4.7,10.6,2.4,12.9c-1,0.8-2.4,0.7-3.2-0.3c0,0,0,0,0,0C517.1,252.1,516.9,251.8,516.5,251.4z"/>
        <path class="st5" d="M515.6,237.6c-0.1-0.2-0.1-0.5,0-0.7c0.7-0.5,1.6-0.9,2.5-1c0.5-0.1,0.5,0.6,0.7,1c0.9,1.9,1.8,3.7,2.9,5.5
			c-1.1-3-2.2-6.9-2-9.2c0-0.3,0.1-0.5,0.3-0.7c0.7-0.5,1.5-0.9,2.3-1c0.7,0,0.7,0.5,0.7,1c0,1.6,0.5,3.2,1.6,4.4
			c0.6,0.7,1.2,0.7,1.4,0.5c1.1-1.1,0-4.3-0.3-5.6c-0.1-0.3,0.1-0.6,0.4-0.6c0.3-0.1,0.6,0.1,0.6,0.4c0.4,1.5,1.3,4.7,0.5,6.4
			c-0.9,1.4-2.8,1.9-4.3,1c-1-1-1.7-2.2-2.1-3.5c-0.1-0.3-0.2-0.2-0.1,0c0.3,3.8,2.9,10.4,4.5,12.2c0.2,0.1,0.2,0.4,0.1,0.5
			c0,0-0.1,0.1-0.1,0.1c-0.6,0.6-2.4,1-2.9,0.4C519.6,245.3,517.3,241.6,515.6,237.6z"/>
        <path class="st5" d="M526,226.3c1-1,4.1-1.4,5.3-0.3c2.5,2.5,1.5,7.2-0.5,9.2c1.3,1.4,2.9,2.2,4.1,1c2.1-2.1-0.3-8.4-1.8-11.7
			c-0.3-0.6,0.7-1,1-0.4c1.6,3.5,4.6,10.7,1.6,13.7C529.3,244.2,522.2,230.1,526,226.3z M530.1,234.6c1.4-1.4,0.9-5.2-1.2-7.2
			c-0.6-0.6-1.2-0.3-1.3,0.4C527.4,229.7,528.6,232.7,530.1,234.6L530.1,234.6z"/>
        <path class="st5" d="M606.2,285.9c0.6-0.1,1.2,0.1,1.7,0.5c1.7,1.7,1.3,6.3,3.1,8.1c0.1,0.1,0.2,0.2,0,0.3c-0.9,0.7-2.1,0.8-3,0.2
			c-1.8-1.8-0.5-5.5-2-7c-0.4-0.6-1.3-0.8-1.9-0.3c-0.1,0-0.1,0.1-0.2,0.1c-4.7,4.7,4.3,22.1,9.6,16.8c0.7-0.7,1.1-1.5,1.4-2.4
			c0-0.2,0.1-0.2,0.3-0.1c0.2,0,0.2,0.2,0.3,0.4c0.5,1.4,0.1,2.9-1.1,3.8c-8.3,8.3-20-11.7-12.7-19.1
			C602.7,285.9,604.5,285.4,606.2,285.9z"/>
        <path class="st5" d="M614.2,287.6c1.5-1.5,3.8-1.7,4.9-0.6c1.2,1.2,2.1,2.6,2.7,4.1c0.2-2.1-0.2-4.1-1-6c-0.1-0.3,0-0.5,0.3-0.6
			c0.3-0.1,0.5,0,0.6,0.3c1.1,2.6,1.4,5.6,0.7,8.4c0.6,2.4,0.4,4.8-1.1,6.2c-1.7,1.4-4.2,1.4-5.8-0.2c-2.4-2.4-4.4-6.9-3.4-10
			C612.6,288.2,613.3,287.7,614.2,287.6z M619.4,297.7c0.5-0.5,0.8-1.1,1.2-1.7c-0.6-2.5-1.9-4.9-3.7-6.8c-1.6-1.6-2.6-0.8-2.5,1
			c0.1,2.9,2.9,7.1,4.9,7.8C619.3,297.9,619.3,297.8,619.4,297.7L619.4,297.7z"/>
        <path class="st5" d="M628.4,288.1c0-0.1-0.1-0.1-0.1-0.2c0.8,2.2,1.2,4.4,0,5.5c-0.8,0.9-2.2,1-3.1,0.1c0,0,0,0-0.1-0.1
			c-3-2.3-5.8-7.9-4.7-11.6c0.3-1.2,1.8-1.5,3.1-1.9c0-0.2-0.1-0.3-0.2-0.4c-0.1-0.2-0.1-0.5,0-0.7c0.7-0.5,1.5-0.8,2.3-0.9
			c0.5-0.1,0.5,0.5,0.6,0.9c1.4,3,3.1,5.8,5,8.5c0.3,0.4,0.5,0.2,0.5-0.2c0-3-1.8-6.9-2.9-9.2c-0.1-0.2,0-0.5,0.3-0.6
			c0.2-0.1,0.5,0,0.6,0.3c1,2.3,4.5,9.8,2.3,11.9c-0.9,0.7-2.2,0.6-3-0.2c0,0,0,0-0.1-0.1C629,288.8,628.7,288.5,628.4,288.1z
			 M624.4,281.8c-0.1-0.3-0.3-0.6-0.4-0.9c-0.3-0.1-0.7,0-0.9,0.3c-1.7,1.7,1.2,7.2,3.2,9.4c0.2,0.3,1.1,1.2,1.5,0.8
			C628.9,290.3,625.2,283.3,624.4,281.8z"/>
        <path class="st5" d="M629.1,271.8c1.2-1.1,3.1-1.2,4.5-0.2c1.3,1.3,2.1,3.5,1.5,4c-0.6,0.4-1.4,0.6-2.1,0.6
			c-0.4,0-0.5-0.4-0.4-0.8c0.2-0.8,0.1-1.7-0.3-2.5c-0.4-0.9-0.9-1.1-1.2-0.8c-2.1,2.1,3.2,11.9,6.2,8.9c2.2-2.2-0.3-7.7-1.6-10.8
			c-0.1-0.3,0.1-0.5,0.4-0.6c0.2-0.1,0.4,0,0.5,0.2c1.4,3.2,4.5,9.8,1.5,12.7C632.1,288.4,625.8,275.1,629.1,271.8z"/>
        <path class="st5" d="M638.8,265.2c0.2,3.8,1.4,7.6,3.4,10.8c0.2,0.4,0.5,0.7,0.8,1c0.2,0.1,0.2,0.3,0.1,0.5c0,0-0.1,0.1-0.1,0.1
			c-0.6,0.6-2.2,1.1-2.7,0.5c-4.3-4.3-12.2-17.2-11.2-18.2c0.5-0.5,2.8-1.5,3.1-1.2c0,0,0.1,0.1,0.1,0.2c0,0.2,0,0.5,0.1,0.7
			c0.7,2.6,4,8.1,6.8,12.4c-1-2.7-1.5-5.6-1.4-8.5c0-0.2,0.1-0.5,0.3-0.6c0.4-0.4,2.1-1.2,2.6-0.8c0.1,0.1,0.2,0.2,0.2,0.3
			c0.1,0.3,0.2,0.6,0.3,0.9c1.4,2.8,2.9,5.6,4.7,8.1c0.3,0.4,0.5,0.3,0.5-0.2c0-3-1.8-7-2.8-9.3c-0.1-0.2,0-0.5,0.3-0.6
			c0.2-0.1,0.5,0,0.6,0.3l0,0c1,2.3,4.3,9.9,2.3,12c-0.9,0.7-2.2,0.6-2.9-0.2c0,0,0-0.1-0.1-0.1
			C641.9,270.8,640.2,268.1,638.8,265.2z"/>
        <path class="st5" d="M639.3,251.6c0.6-0.4,1.4-0.7,2.1-0.8c0.6-0.1,0.9,0.2,1.1,0.9c0.3,1.2,1,4.5,0.4,5.1c-1.3,1.4-3.2-3-3.5-3.9
			C639.1,252.2,639.1,251.8,639.3,251.6z M647.1,268.3c-2-2.7-3.7-5.6-5-8.7c-0.1-0.2-0.1-0.5,0.1-0.7c0.7-0.5,1.4-0.8,2.3-0.8
			c0.5-0.1,0.5,0.5,0.7,0.8c1.4,3,3,5.9,4.9,8.6c0.3,0.4,0.5,0.2,0.5-0.2c0-3-1.7-7-2.8-9.3c-0.1-0.3,0.1-0.5,0.3-0.6
			c0.2-0.1,0.4,0,0.6,0.2c1,2.3,4.4,9.9,2.3,12c-0.9,0.7-2.2,0.6-3-0.3c0,0,0,0,0-0.1C647.7,269,647.4,268.7,647.1,268.3z"/>
        <path class="st5" d="M646.3,255.4c-0.1-0.2-0.1-0.5,0-0.7c0.7-0.5,1.5-0.8,2.3-0.9c0.4,0,0.5,0.5,0.6,0.9c0.8,1.7,1.7,3.5,2.7,5.1
			c-1-2.8-2-6.4-1.8-8.5c0-0.2,0.1-0.5,0.3-0.6c0.3-0.3,2.1-1.2,2.5-0.7c0.1,0.1,0.2,0.2,0.2,0.3c0.1,0.3,0.2,0.6,0.3,0.9
			c1.4,2.8,3,5.6,4.7,8.1c0.3,0.4,0.5,0.3,0.5-0.2c0-3-1.7-7-2.8-9.3c-0.1-0.2,0-0.5,0.3-0.6c0.2-0.1,0.5,0,0.6,0.3l0,0
			c1,2.3,4.3,9.9,2.2,12c-0.7,0.8-1.8,0.9-2.6,0.2c0,0-0.1-0.1-0.1-0.1c-2.1-2.7-3.9-5.6-5.4-8.7c0.1,3.4,2.7,10.1,4.2,11.9
			c0.2,0.2,0.1,0.4,0,0.6c-0.6,0.6-2.2,0.9-2.7,0.4C649.9,262.6,647.8,259.2,646.3,255.4z"/>
        <path class="st5" d="M663.3,257.3c-0.8,0.9-2.2,1-3.1,0.1c0,0,0,0,0,0c-3-2.3-5.8-8-4.7-11.7c0.2-0.6,0.7-1.1,1.3-1.3
			c0.6-0.3,1.2-0.4,1.8-0.6c-0.1-0.1-0.1-0.3-0.2-0.4c-0.1-0.2-0.1-0.5,0-0.7c0.7-0.5,1.5-0.8,2.3-0.9c0.3,0,0.4,0.2,0.5,0.5
			c0.1,0.3,0.2,0.6,0.4,0.8c1.2,2.2,2.5,4.5,3.7,6.4l0.2,0.3c0.2-2.7-0.3-5.4-1.4-7.9c-0.3-0.6,0.6-1,0.8-0.4
			c1.3,3.1,1.8,6.4,1.4,9.7c1.2,1.9,2.4,3.9,3.4,6c1,2.2,1.3,4.1-0.6,6c-0.6,0.6-1.5,0.9-2.3,0.8c-1.7-0.4-2.8-2-2.8-3.7
			c-0.2-1.9,0.6-4,0.9-5.8l-1.5-2.7C664.1,254,664.4,256.2,663.3,257.3z M661.3,254.4c0.2,0.3,1.1,1.2,1.5,0.8
			c1.2-1.2-2.6-8.1-3.3-9.7c-0.2-0.3-0.3-0.6-0.4-0.8c-0.3-0.1-0.7,0-0.9,0.3C656.4,246.7,659.3,252.2,661.3,254.4L661.3,254.4z
			 M667.7,259.8c-0.6-1.2-1.3-2.5-2.1-3.9c-0.3,1.9-1.2,4.8,0.4,6.3c0.4,0.5,1.2,0.5,1.7,0.1C668.1,261.9,668.3,260.9,667.7,259.8
			L667.7,259.8z"/>
        <path class="st5" d="M594.7,146.4c0.4-0.4,2.5-1.4,2.8-1c0,0,0.1,0.1,0.1,0.2c0,0.2,0,0.4,0.1,0.6c0.6,2.3,3.4,7.1,6,10.9
			c-1.3-2.5-2.6-5.2-3.6-7.8c-0.7-1.7-1.2-3.5-1.3-5.3c-0.1-1,0.3-1.9,0.9-2.6c3.3-3.3,8.1,4,7.1,8.9c0.9-0.1,1.7,0,2.5,0.3
			c3.1,1.6,5.4,7.2,2,10.6c-0.6,0.7-1.5,1-2.4,1c-0.7,0-1.3-1-0.7-0.9c0.6,0.1,1.1-0.1,1.5-0.6c2.5-2.5-2-10.2-3.8-8.4
			c-0.3,0.5-0.7,0.9-1.3,1.2c-0.4,0.1-0.9,0-1.2-0.3c-0.1-0.3,0.3-1,0.7-1.4c1-3.6-2.3-10.3-4.1-8.5c-0.7,0.7-0.3,2.8,0.8,5.7
			c1.8,4.5,4,8.8,6.5,12.9c0.2,0.2,0.1,0.5-0.1,0.7c-0.5,0.5-2,1-2.4,0.5C601.1,159.2,593.7,147.3,594.7,146.4z"/>
        <path class="st5" d="M616.9,148.2c0-0.1-0.1-0.1-0.1-0.2c0.7,2,1,4,0,5c-0.7,0.8-2,0.9-2.8,0.1c0,0,0,0,0,0
			c-2.7-2.1-5.3-7.2-4.3-10.6c0.3-1.1,1.6-1.3,2.8-1.8c0-0.1-0.1-0.3-0.2-0.4c-0.1-0.2-0.1-0.4,0-0.6c0.6-0.4,1.3-0.7,2.1-0.8
			c0.4-0.1,0.4,0.5,0.6,0.8c1.3,2.7,2.8,5.3,4.6,7.7c0.3,0.4,0.5,0.2,0.5-0.2c0-2.7-1.7-6.3-2.6-8.3c-0.1-0.2,0-0.5,0.3-0.6
			c0.2-0.1,0.4,0,0.5,0.2c0.9,2.1,4.1,8.9,2.1,10.8c-0.8,0.7-2,0.6-2.7-0.2c0,0,0,0,0-0.1C617.4,148.8,617.1,148.5,616.9,148.2z
			 M613.2,142.4c-0.1-0.3-0.2-0.5-0.3-0.8c-0.3-0.1-0.6,0-0.8,0.2c-1.5,1.5,1.2,6.5,2.9,8.6c0.2,0.3,1,1.1,1.3,0.8
			C617.3,150.2,613.9,143.8,613.2,142.4z"/>
        <path class="st5" d="M611.5,129.5c0.4-0.4,2.5-1.3,2.8-1c0,0,0.1,0.1,0.1,0.2c0,0.2,0,0.4,0.1,0.6c1.2,3.2,2.8,6.2,4.8,9.1
			c-0.4-1-0.7-2-0.9-3.1c-0.3-0.9-0.2-1.9,0.4-2.7c1.2-0.8,2.7-0.7,3.8,0.2c1.3,1.5,2.3,3.3,2.8,5.2c0.3-2.1,0-4.2-0.8-6.1
			c-0.1-0.2,0.1-0.5,0.3-0.6c0.2-0.1,0.4,0,0.5,0.2c1.1,2.7,1.3,5.7,0.5,8.4c0.3,2.1,0.1,3.9-0.7,4.7c-0.3,0.2-0.7,0.4-1.2,0.4
			c0.1,0.1,0.4,0.3,0.1,0.6c-0.5,0.5-2,1-2.4,0.5C618,142.4,610.6,130.5,611.5,129.5z M620.3,138.5c0.6,1.9,1.5,3.6,2.7,5.2
			c0.4-0.5,0.8-1.1,1.2-1.8c-0.6-2.7-1.8-5.1-3.6-7.2c-0.7-0.7-1.3-0.5-1.1,0.5C619.7,136.3,620,137.4,620.3,138.5z"/>
        <path class="st5" d="M627.3,124.7c0.6-0.5,1.3-0.7,2.1-0.8c0.2,0,0.4,0.2,0.4,0.4c0.1,0.3,0.2,0.5,0.3,0.8c1.1,2,2.3,4.1,3.4,5.8
			l0.2,0.2c0.1-2.5-0.3-4.9-1.3-7.2c-0.2-0.5,0.6-0.9,0.8-0.4c1.2,2.8,1.7,5.8,1.3,8.8c1.1,1.8,2.2,3.6,3,5.5c1,2,1.2,3.7-0.5,5.5
			c-0.6,0.6-1.4,0.8-2.1,0.7c-1.5-0.4-2.5-1.8-2.5-3.3c0.1-1.8,0.4-3.5,0.8-5.3c-0.5-0.8-1-1.6-1.5-2.4c0.7,2,1,4,0,5
			c-0.9,0.8-2.2,0.8-3.1,0.1c-0.2-0.3-0.5-0.6-0.7-1c-1.8-2.5-3.3-5.1-4.5-7.9c-0.1-0.2-0.1-0.4,0-0.6c0.6-0.4,1.3-0.7,2.1-0.8
			c0.4-0.1,0.4,0.5,0.6,0.8c1.2,2.5,2.5,4.9,4,7.2c0.4,0.6,0.8,0.8,1.2,0.5c1-1-1.6-6.2-2.6-8.3c-0.1-0.1-0.2-0.3-0.2-0.4
			c-0.4-0.7-0.8-1.4-1-2.2C627.1,125.2,627.2,124.9,627.3,124.7z M635.7,140.3c-0.5-1-1.2-2.3-1.9-3.6c-0.3,1.7-1.2,4.4,0.4,5.7
			c0.4,0.4,1,0.5,1.5,0.1C636.1,142.2,636.3,141.4,635.7,140.3L635.7,140.3z"/>
        <path class="st5" d="M635.4,130.6c-0.2-0.8,0.1-1.7,0.7-2.3c0.4-0.6,0.9-1.1,1.3-1.6c-1.5-1.2-3.9-0.4-5.6-2.1
			c-1.3-1.3-1.2-3.4,0.1-4.7c0,0,0,0,0.1-0.1c1.2-0.8,2.7-0.7,3.8,0.1c0.5,0.5,0.8,1.8,0.5,2.1c-0.5,0.5-1.5,0.8-1.7,0.6
			c0,0,0-0.1,0-0.1c0.4-0.4,0.1-1.3-0.3-1.7c-0.4-0.4-0.6-0.4-0.8-0.1c-0.6,0.6,0.2,1.8,0.6,2.2c1.2,1.2,3.2,0.8,4.7,1.3
			c0.5-1.8,0.2-3.8-0.7-5.5c-0.3-0.5,0.5-0.9,0.8-0.4c1.1,1.9,1.3,4.2,0.7,6.3c2.2,1.7,1.3,5-0.4,6.7
			C637.5,132.7,635.7,132,635.4,130.6z M636.4,129.2c-0.3,0.4-0.2,1,0.2,1.3c0.4,0.3,1,0.2,1.3-0.2c0.1-0.1,0.1-0.2,0.1-0.2
			c0.4-0.9,0.4-1.9-0.1-2.8C637.6,127.9,636.8,128.6,636.4,129.2L636.4,129.2z"/>
        <path class="st5" d="M639.9,107.2c0.1,0.3,0.3,0.6,0.4,0.9c0.5-0.6,1.2-1.1,2-1.4c0.2,0,0.9,0.4,1.2,0.7c0.1,0.1,0.2,0.2,0.2,0.3
			l-0.1,0.1c-0.9,0.5-1.7,1.2-2.4,1.9c1.8,3.4,3.9,6.6,6.2,9.7c0.5,0.6,0.6,0.6,0.6-0.1c-0.3-3-1-5.8-2.2-8.6
			c-0.1-0.2-0.1-0.5,0.1-0.6c0.2-0.1,0.5-0.1,0.6,0.1c0,0,0,0.1,0.1,0.1c0.9,2.1,3.5,9.5,1.7,11.3c-1.2,1.3-2.5-0.1-3.3-1.1
			c-0.2-0.3-0.5-0.6-0.8-0.9c0.7,2.4,1.2,4.9,0.1,6c-0.8,0.7-2,0.6-2.7-0.3c0,0,0,0,0,0c-0.2-0.3-0.5-0.6-0.7-1
			c-1.8-2.5-3.3-5.2-4.5-8c-0.1-0.2-0.1-0.4,0-0.6c0.6-0.4,1.3-0.7,2.1-0.8c0.4,0,0.4,0.5,0.6,0.8c1.3,2.8,2.8,5.4,4.5,7.9
			c0.3,0.4,0.5,0.2,0.5-0.2c-0.2-2.2-0.7-4.3-1.6-6.3c-1.2-1.7-2.3-3.5-3.3-5.2c-0.2,0.2-0.3,0.3-0.5,0.5c-0.9,0.9-2.3,1.7-3.4,0.6
			c-0.7-0.8-1.1-1.7-1.4-2.7c-0.2-0.6-0.2-1-0.1-1.2c0.6-0.4,1.2-0.6,1.9-0.7c0.6-0.1,0.8,0.2,1,0.8c0.2,1,0.4,1.9,0.5,2.9
			c0.4-0.5,0.8-1,1.2-1.5c-0.4-0.7-0.8-1.5-1.2-2.2c-0.3-0.7-0.4-1.3-0.2-1.5c0.4-0.4,2.3-1.2,2.7-0.9c0,0,0.1,0.1,0.1,0.2
			c0,0.1,0,0.1,0,0.2C639.7,106.7,639.8,107,639.9,107.2z"/>
        <path class="st5" d="M644.3,102.9c0.1,0.3,0.3,0.6,0.5,0.9c0.5-0.6,1.2-1.1,1.9-1.4c0.2-0.1,0.9,0.4,1.2,0.6
			c0.2,0.2,0.2,0.2,0.2,0.3l-0.1,0.1c-0.9,0.5-1.7,1.2-2.3,1.9c1.8,3.4,3.9,6.6,6.1,9.7c0.4,0.5,0.6,0.5,0.6-0.1
			c-0.3-3-1-5.8-2.2-8.6c-0.1-0.2,0.1-0.5,0.3-0.5c0.2-0.1,0.4,0,0.5,0.2c0.9,2.1,3.5,9.5,1.7,11.3c-1.2,1.2-2.5-0.1-3.3-1
			c-2.1-2.7-4.1-5.6-5.8-8.6l-0.5,0.5c-0.4,0.4-1.4,1.4-2.2,1c-0.2-0.1-0.3-0.2-0.1-0.5c0.7-0.7,1.4-1.5,2-2.3
			c-0.4-0.7-0.8-1.4-1.2-2.2c-0.3-0.8-0.4-1.3-0.2-1.5c0.4-0.5,2.3-1.3,2.7-0.9c0,0.1,0,0.1,0,0.2c0,0,0,0.1,0,0.2
			C644.1,102.4,644.2,102.7,644.3,102.9z"/>
        <path class="st5" d="M646,96.8c0.6-0.3,1.2-0.6,1.9-0.7c0.6-0.1,0.8,0.2,1,0.8c0.3,1.1,0.9,4.1,0.4,4.7c-1.2,1.3-2.9-2.8-3.2-3.6
			C645.9,97.3,645.8,96.9,646,96.8z M653.1,111.9c-1.8-2.5-3.3-5.1-4.5-8c-0.1-0.3-0.1-0.5,0-0.6c0.6-0.4,1.3-0.7,2.1-0.8
			c0.4-0.1,0.5,0.5,0.6,0.8c1.3,2.7,2.8,5.4,4.5,7.8c0.3,0.4,0.5,0.2,0.5-0.2c0-2.7-1.6-6.3-2.5-8.4c-0.1-0.2,0-0.5,0.3-0.6
			c0.2-0.1,0.4,0,0.5,0.2c0.9,2.1,4,9,2,10.9c-0.8,0.7-2,0.6-2.7-0.2c0,0,0,0,0-0.1C653.6,112.6,653.4,112.3,653.1,111.9
			L653.1,111.9z"/>
        <path class="st5" d="M652.4,100.3c-0.1-0.2-0.1-0.4,0-0.6c0.6-0.5,1.3-0.7,2.1-0.8c0.4,0,0.4,0.5,0.6,0.8c0.7,1.6,1.5,3.2,2.4,4.7
			c-0.9-2.5-1.8-5.8-1.7-7.8c0-0.2,0.1-0.4,0.3-0.6c0.3-0.3,1.9-1.1,2.3-0.7c0.1,0.1,0.1,0.2,0.2,0.3c0.1,0.3,0.2,0.5,0.3,0.8
			c1.2,2.6,2.7,5.1,4.3,7.4c0.3,0.4,0.5,0.3,0.5-0.2c0-2.7-1.6-6.3-2.5-8.4c-0.1-0.2,0.1-0.5,0.3-0.5c0.2-0.1,0.4,0,0.5,0.2
			c0.9,2.1,4,9,2,10.9c-0.6,0.7-1.7,0.8-2.4,0.2c0,0-0.1-0.1-0.1-0.1c-1.9-2.5-3.5-5.1-4.9-7.9c0.1,3.1,2.5,9.2,3.9,10.8
			c0.2,0.2,0.1,0.4,0,0.5c-0.5,0.5-2,0.8-2.5,0.3C655.7,106.8,653.8,103.7,652.4,100.3z"/>
        <path class="st5" d="M667.9,101.9c-0.8,0.8-2,0.9-2.9,0.1c0,0,0,0,0,0c-2.7-2.2-5.3-7.3-4.3-10.6c0.2-0.5,0.6-1,1.2-1.2
			c0.5-0.2,1.1-0.4,1.7-0.6c-0.1-0.1-0.1-0.3-0.2-0.4c-0.1-0.2-0.1-0.4,0-0.6c0.6-0.5,1.3-0.7,2.1-0.8c0.3,0,0.4,0.2,0.4,0.4
			c0.1,0.3,0.2,0.5,0.4,0.8c1.1,2,2.3,4.1,3.4,5.8l0.2,0.2c0.1-2.5-0.3-4.9-1.3-7.2c-0.1-0.2,0-0.5,0.2-0.6c0.2-0.1,0.5,0,0.6,0.2
			c1.2,2.8,1.7,5.8,1.3,8.8c1.1,1.8,2.2,3.6,3.1,5.5c0.9,2,1.2,3.7-0.5,5.5c-0.6,0.6-1.4,0.8-2.2,0.7c-1.5-0.4-2.5-1.8-2.5-3.4
			c0.1-1.8,0.3-3.5,0.8-5.2l-1.3-2.4C668.6,99,668.9,100.9,667.9,101.9z M666.1,99.4c0.2,0.3,1,1.2,1.3,0.8c1.1-1.1-2.3-7.4-3-8.8
			c-0.1-0.3-0.3-0.5-0.4-0.8c-0.3-0.1-0.6,0-0.8,0.2C661.6,92.3,664.3,97.3,666.1,99.4z M671.9,104.2c-0.5-1-1.2-2.3-1.9-3.6
			c-0.3,1.7-1.1,4.3,0.4,5.7c0.4,0.4,1.1,0.5,1.5,0.1C672.3,106.1,672.3,105.3,671.9,104.2L671.9,104.2z"/>
        <path class="st0" d="M774.2,193.8c0,0-19.5-11.5-15.2-33.3c4.3-21.8,28.5-21.6,31.9-3.8c0,0,4.3,23.7-14.3,37.1l2.2,2.1
			c-0.8,1.2-2.1,2-3.5,2.1c-1.3,0-2.6-0.4-3.7-1.2L774.2,193.8z"/>
        <path class="st0" d="M775.2,198.1c0,0-8.1,11.7-1.2,22c7,10.3,11.1,10.9,11.3,15.8s-9.8,6.6-10.5,13.4
			c-0.6,6.8,10.1,5.5,10.5,10.5c0.4,5.1-12.7,6-12.5,12.7"/>
        <path class="st2"
              d="M780.3,146.1c5.1,0,9.2,8.4,9.2,18.8s-4.1,18.8-9.2,18.8c-5.1,0-9.2-8.4-9.2-18.8S775.3,146.1,780.3,146.1"/>
        <ellipse class="st6" cx="749.3" cy="475.8" rx="16.6" ry="5.6"/>
        <path class="st7" d="M748.1,337v138c0,0,2.8,1.7,4.6,0c1.7-1.7,0-138,0-138"/>
        <path class="st6"
              d="M735.3,294.1l-10,38.1l7.8,2.8l16.5,2l14.8-0.9l10.5-2.3l-9.3-39.7C765.6,294.1,749,289.8,735.3,294.1z"/>
        <line class="st6" x1="758.3" x2="763.9" y1="299.1" y2="333.3"/>
        <line class="st6" x1="749.6" x2="748.3" y1="299.1" y2="333.3"/>
        <line class="st6" x1="741" x2="734.7" y1="299.1" y2="330.9"/>
        <path class="st2" d="M769.3,334.6c0.9,0.4,2-0.1,2.4-1.1c0-0.1,0.1-0.2,0.1-0.2c0.6-1.7,0.2-4.1-0.2-6.4c-1-6.4-2.3-12.9-4-19.3
			c-0.8-3-1.6-6.1-2.5-9.1c-0.7-2.3-1.6-3.7-2.9-4.1c-0.3-0.1-0.5-0.1-0.8-0.2c-1.7-1-3.5,0-4.9,0.3h-0.1c-0.3,0-0.6,0-0.8,0.1
			c-1.7,0.1-3.7,0-4.2,2.9c-0.5,3.9-0.4,7.8,0.4,11.6l0.2,1c0.9,5.4,1.9,14.4,3.2,19.8c0.8,3.5-0.8,4.4,1.2,5.6
			c0.3,0.5,0.7,0.9,1.1,0.8l11.7-1.7L769.3,334.6z"/>
        <line class="st6" x1="761.1" x2="761.1" y1="338.8" y2="362.8"/>
        <path class="st5" d="M416,412.4c1.2,0,2.3-0.7,2.7-1.9c0.7-1.3,1.8-2.3,3.2-2.9c2.5-1.3,5.2-2.4,7.9-3.6l-3-4.2
			c-4.2,1.7-8.1,3.2-11.9,5c-1.5,0.8-2.8,1.9-3.8,3.2c-0.6,0.7-1.1,2.4-0.7,2.9c0.9,0.9,2,1.4,3.2,1.6"/>
        <path class="st8" d="M413.4,412.6c-1.2-0.2-2.3-0.8-3.2-1.6c-0.4-0.5,0.1-2.2,0.7-2.9c1-1.3,2.3-2.4,3.8-3.2
			c3.8-1.8,7.8-3.3,11.9-5l3,4.2c-2.7,1.2-5.4,2.3-7.9,3.6c-1.3,0.6-2.4,1.7-3.2,2.9c-0.4,1.1-1.5,1.9-2.7,1.9"/>
        <path class="st9" d="M481,384.6c6.4,3.5,7.3,11.1,7.3,11.1"/>
        <path class="st9" d="M475.9,386.6c6.4,3.5,7.3,11.1,7.3,11.1"/>
        <path class="st9" d="M485.6,382.4c7.9,3.8,9.1,12.5,9.1,12.5"/>
        <path class="st9" d="M473.2,392c12.5-10,24.4-9.2,24.4-9.2"/>
        <path class="st9" d="M475.4,395.5c12.4-10.4,24-9.8,24-9.8"/>
        <path class="st9" d="M479.7,397.2c9.5-7.9,18.9-7.6,18.9-7.6"/>
        <path class="st9" d="M490.5,381.5c5.3,2.8,6.1,8.9,6.1,8.9"/>
        <path class="st9" d="M473,390.1c5.4,2.8,6.1,8.9,6.1,8.9"/>
        <ellipse class="st3" cx="373.2" cy="437.9" rx="104.9" ry="30.8"/>
        <polygon class="st3" points="592.1,308 674.7,324.4 675,220.1 591.6,213 		"/>
        <polyline class="st3" points="674.7,324.4 680.5,319.2 680.8,218.4 597.3,212.6 591.6,213 		"/>
        <line class="st3" x1="680.8" x2="675" y1="218.4" y2="220.1"/>
        <line class="st3" x1="718.5" x2="732.8" y1="469" y2="474.9"/>
        <ellipse class="st1" cx="105.3" cy="246.9" rx="5.8" ry="5.9"/>
	</g>
</g>
    <g>
	<path class="st10" d="M667.4,380.9c-0.6,0.4-1.3,0.7-1.9,1.2c-8.5,5.7-13,14.3-16.9,23.3c-3.7,8.4-6.3,17-7.7,26
		c-1.6,10.6-2.3,21.2-0.4,31.9c0.3,1.5-0.5,1.6-1.7,1.7c-4.4,0.3-8.8,0.5-13.1,1.1c-2.5,0.3-4.9,1.2-7.2,2.1
		c-3.6,1.4-4.4,4.5-2.6,7.8c1.5,2.9,4.2,4.3,7,5.4c6.9,2.7,14,4.5,21.3,2.4c2.7-0.8,5.2-2.4,7.8-3.7c0.6-0.3,1.5-0.6,1.9-0.4
		c4.1,2,8.6,2.2,13,2.7c5.5,0.6,11,1.4,16.6,1.6c5.6,0.1,11.2-0.3,16.8-0.7c1.1-0.1,2.2-0.8,3.2-1.5c1.4-0.9,1.3-2.9-0.1-4.4
		c-2.2-2.4-5.2-3.2-8.3-3.7c-2.9-0.5-5.9-0.6-8.8-1.3c-2.5-0.6-4.8-1.7-7.2-2.6c1.7,1.8,3.6,3.3,6.3,3.7c3.2,0.5,6.4,1.2,9.6,1.9
		c1.1,0.2,2.2,0.6,3.1,1.2c0.8,0.5,1.7,1.6,1.6,2.4c0,0.8-1,1.9-1.8,2.2c-1.5,0.6-3.2,0.9-4.9,0.9c-11.1,0.4-22.1-1.1-33-2.8
		c-7.3-1.1-14.8-8.7-16.2-16c0.1,0,0.2-0.2,0.3-0.1c6.3,2.3,12.8,2.3,19.4,2.6c9.3,0.4,18.6,0.6,27.9,0.7c4.6,0,9.2-0.4,13.9-0.7
		c0.6,0,1.2-0.3,1.8-0.5c0-0.2-0.1-0.4-0.1-0.6c-1.9,0.1-3.8,0.1-5.8,0.2c-4.7,0.2-9.5,0.6-14.2,0.5c-10.2-0.3-20.4-0.8-30.5-1.3
		c-4.2-0.2-8.4-0.8-12.2-2.7c-1-0.5-1.6-1.2-1.7-2.4c-0.8-9.6-0.3-19.1,1.7-28.5c0.2-1.1,0.4-2.3,0.6-3.5c0.2-1.2,0.7-1.6,2-1.3
		c1.7,0.4,3.4,0.5,5.1,0.6c0.6,0,1.2-0.4,1.8-0.6c0-0.2-0.1-0.4-0.1-0.7c-0.7-0.1-1.4-0.3-2.1-0.4c-0.9-0.1-1.7-0.1-2.6-0.3
		c-3.1-0.5-3.4-1-2.7-4c0.7-2.8,1.5-5.7,2.7-8.5c1.1,2.7,2.1,5.4,3.3,8c2.6,5.4,6.6,9.7,11.7,12.9c4.1,2.6,8.5,4.8,12.8,6.9
		c1.6,0.8,3.5,1.1,5.3,1.4c0.5,0.1,1.2-0.3,1.8-0.4c-0.5-0.4-0.9-1.2-1.4-1.3c-4.7-0.8-9-2.6-13.1-4.9c-8.6-4.8-14.9-11.4-17.2-21.2
		c-1.1-4.6-0.6-8.9,1.5-13.3c3.3-6.8,7.8-12.6,13.1-17.8c0.3-0.3,0.6-0.7,0.9-1C667.6,381.3,667.5,381.1,667.4,380.9z"/>
        <path class="st10" d="M717.3,438.5c0.1,0.5,0,1.1,0.2,1.6c2.1,7.6,1.8,15.2-0.3,22.6c-0.7,2.5-1.9,4.9-3.1,7.3
		c-0.3,0.6-1.1,1-1.8,1.3c-0.4,0.3-0.9,0.4-1.4,1c0.4,0.1,0.8,0.3,1.3,0.4c3.1,0.5,6.2,0.9,9.3,1.4c0.4,0.1,0.8,0.1,1.1,0.2
		c1.2,0.5,2.6,1,2.6,2.7c0,1.7-1.4,2-2.7,2.2c-4.7,0.8-9.3,1.6-14,2.3c-0.4,0.1-0.9,0.1-1.3,0.2c-0.4,0.2-0.6,0.6-1,0.9
		c0.4,0.3,0.8,0.9,1.2,0.9c1.2,0,2.5-0.1,3.7-0.3c4-0.5,8-0.8,11.9-1.5c1.6-0.3,3.2-1,4.5-1.9c2.4-1.6,2.3-4.5-0.3-5.8
		c-2-1-4.3-1.4-6.5-2c-0.6-0.2-1.2-0.1-1.8-0.1c-1.9-0.2-2.2-0.7-1.5-2.4c2.6-5.9,3.2-12.1,3.2-18.4c0-3.1-0.5-6.3-1.1-9.3
		c-0.2-1.3-1.1-2.4-1.7-3.6C717.8,438.4,717.5,438.4,717.3,438.5z"/>
        <path class="st10" d="M669.6,376.5c-0.6-1-1.4-2-1.9-3.1c-0.8-2.1-1.7-4.2-2.1-6.4c-0.5-2.6,0.9-4.6,3.1-6c2-1.2,3.9-0.5,5.5,0.8
		c1.1,0.9,1.9,0.7,2.9-0.1c7.1-5.1,15-7,23.5-5c6.9,1.6,12.1,5.9,15.3,12.3c0.3,0.6,0.7,1.1,1.3,2c0.6-2.3-0.3-3.8-1.1-5.1
		c-2.4-4.1-6.2-6.7-10.3-8.8c-8.7-4.3-17.6-3.1-26.5-0.2c-0.1,0-0.2,0.1-0.3,0.2c-2,1.5-3.8,1.7-6.3,0.8c-3.4-1.1-6.7,0-8.7,4.9
		c-1.5,3.9,0.5,11,3.8,13.5c0.4,0.3,0.8,0.4,1.2,0.6C669.4,376.8,669.5,376.6,669.6,376.5z"/>
        <path class="st10" d="M703.3,374.2c0.3,0.2,0.4,0.3,0.4,0.3c0.8,0.3,2.1,0.4,2.2,0.9c0.4,1.3-0.5,2-1.7,2.7
		c-0.5,0.3-0.8,1.6-0.6,2.3c0.7,2.3,2.3,3.7,4.7,4c2.5,0.3,4.4-0.8,5.7-2.7c0.8-1.2,1.3-2.7,1.5-4.1c0.5-2.7-1-5.2-3.4-6.4
		c-2.5-1.2-6-0.7-7.7,1.1C703.9,372.9,703.6,373.6,703.3,374.2z"/>
        <path class="st10" d="M675.3,402.6c3.7-0.1,6.7,4,5.8,7.1c-0.3,0.9-0.2,2.3,0.3,3.1c2,3.5,4.2,6.8,6.4,10.2
		c0.4,0.6,1.1,0.9,1.7,1.3c-0.2-0.7-0.2-1.5-0.5-2.1c-1.8-3-3.6-6-5.5-9c-0.7-1.1-1-2.2-0.7-3.6c1-4.9-2.5-9.1-7.5-8.9
		c-1.7,0-2.1,0.7-1.5,2.2c0.3,0.9,0.7,1.7,1,2.6c0,0,0,0.1-0.1,0.4c-0.5-0.8-0.8-1.6-1.3-2.2c-0.4-0.5-1-1.3-1.4-1.2
		c-0.6,0.1-1.2,0.8-1.5,1.4c-2.2,4-0.4,9.4,3.8,11.3c1.7,0.8,2.7,1.9,3.6,3.5c1.5,2.8,3.1,5.5,4.7,8.2c0.3,0.6,1,1,1.4,1.5
		c0.2-0.1,0.4-0.3,0.6-0.4c-0.2-0.5-0.3-1-0.5-1.4c-2-3.7-4-7.4-6.2-11c-0.4-0.6-1.3-1.1-2.1-1.4c-4.1-1.7-6-5.9-3.9-9.9
		c0.9,1.5,1.8,2.9,2.6,4.3c0.4,0.6,0.7,1.2,1.1,1.7c0.5,0.7,0.9,1.3,1.9,0.6c0.9-0.6,1.3-1.2,0.7-2.3
		C677.2,406.6,676.3,404.7,675.3,402.6z"/>
        <path class="st10" d="M690.5,430.5c-0.1-1.2-0.3-2.5-0.3-3.7c-0.1-3.4-0.1-6.8-0.2-10.2c0-0.5-0.7-1.4-0.9-1.4
		c-1.7,0.3-1.8-0.8-1.8-1.8c-0.1-1.6,0-3.2,0-4.8c0.1-1.2,0.6-1.8,2-1.9c3-0.2,5.9-0.5,8.8-0.8c1-0.1,1.6,0.2,2.4,0.9
		c1.3,1.2,2.9,2.2,4.6,2.8c1.2,0.4,1.8,0.7,1.8,2c0,1.5-0.8,1.9-2.1,2c-1.9,0.1-3.8,0.3-5.7,0.4c-1.6,0.1-2.4,0.7-2.3,2.6
		c0.2,3.9,0.2,7.8,0.2,11.7c0,0.7-0.5,1.5-0.8,2.2c-0.2-0.7-0.6-1.4-0.6-2.1c-0.1-4,0-8,0-12c0-1.1-0.1-1.9-1.6-1.8
		c-1.2,0.2-2.5-0.1-2.4,1.9c0.1,3.7,0.1,7.4,0,11.1c0,1-0.2,2-0.3,2.9C691,430.5,690.8,430.5,690.5,430.5z M689,412.6
		c0.1,0.4,0.8,0.9,1.3,0.9c4.6-0.2,9.2-0.5,13.8-0.8c0.3,0,0.6-0.4,0.9-0.6c-0.3-0.3-0.5-0.8-0.8-1c-1-0.6-2.3-0.8-3.1-1.6
		c-2.1-2.2-4.6-2.1-7.2-1.9c-1.8,0.1-3.5,0.3-5.5,0.5C688.7,409.8,688.7,411.2,689,412.6z"/>
        <path class="st10" d="M716.8,401.8c0.2,0.7,0.3,1.3,0.6,1.8c3.7,5.9,3.7,12.1,2.2,18.6c-1.2,5.2-3,10.2-6.1,14.6
		c-0.2,0.3-0.4,0.5-0.4,0.8c0,0.6,0.1,1.2,0.2,1.8c0.5-0.2,1.2-0.3,1.6-0.7c2.8-3.4,5.4-7,6.3-11.4c1.2-5.8,2-11.6,0.5-17.4
		c-0.6-2.6-2.2-4.9-3.4-7.3c-0.1-0.3-0.4-0.5-0.7-0.6C717.5,401.9,717.3,401.9,716.8,401.8z"/>
        <path class="st10" d="M670.6,442c0,0.9,0.2,1.9,0.1,2.8c-0.4,3-0.7,6-1.3,8.9c-0.2,1.1,0.2,1.4,1,1.5c1.5,0.3,2.9,0.5,4.4,0.6
		c6.5,0.6,13,1.2,19.5,1.8c1.8,0.2,2.9-0.6,2.9-2.4c0.1-3.4,0.1-6.9,0.1-10.3c0-0.5-0.4-1-0.6-1.6c-0.2,0-0.3,0-0.5,0
		c-0.1,0.4-0.2,0.8-0.3,1.3c-0.1,3.3-0.2,6.5-0.3,9.8c0,1.5-0.8,1.9-2.3,1.7c-6.4-0.7-12.8-1.2-19.1-1.8c-0.5,0-1-0.1-1.5-0.2
		c-1.3-0.3-1.7-0.9-1.6-2.3c0.3-2.9,0.1-5.9,0.1-8.8c0-0.3-0.2-0.6-0.3-1C670.9,442,670.8,442,670.6,442z"/>
        <path class="st10" d="M697.7,391c0.6,0.3,1.3,0.6,1.9,0.9c1,0.6,2,1.5,3.1,2c3.9,1.9,7.3,0,7.8-4.4c0.1-0.5-0.1-1.1,0.1-1.7
		c0.1-0.5,0.5-0.9,0.8-1.3c1,2,0.6,3.7-0.1,5.5c-0.7,1.8,0.3,2.9,2.2,2.6c0.6-0.1,1.1-0.2,1.9-0.4c-0.1,0.7-0.1,1.2-0.3,1.3
		c-2.4,1.8-4.1,4.9-7.9,3.9c-1.2-0.3-2.8-0.2-3.6-0.9c-2-1.7-3.6-3.8-5.4-5.8c-0.4-0.4-0.6-1-0.8-1.5
		C697.5,391.2,697.6,391.1,697.7,391z M708,397.4c-0.1-0.3-0.1-0.6-0.2-0.9c-0.8,0.2-1.5,0.4-2.3,0.7c0.1,0.2,0.1,0.5,0.2,0.7
		C706.4,397.7,707.2,397.5,708,397.4z"/>
        <path class="st10" d="M712.6,433.7c-1.1,0.8-2.1,1.7-3.5,2.8c0.1-0.8,0.2-1.1,0.2-1.4c0-0.4,0-1-0.2-1.1c-0.4-0.1-1.1-0.2-1.4,0.1
		c-1.2,1.1-2.3,2.3-3.3,3.5c-0.2,0.2-0.1,0.9,0.1,1.3c0.2,0.2,0.7,0.3,1.1,0.3c0.4-0.1,0.8-0.4,1.1-0.5c1.2,1.8,1.4,1.8,3.1,0.5
		c1.1-0.9,2.1-1.9,2.9-3c0.4-0.5,0.3-1.3,0.5-1.9C713,433.9,712.8,433.8,712.6,433.7z"/>
        <path class="st10" d="M670.9,380.4c2.8,6.1,4.7,12.2,3.1,19c0.3,0,0.5,0.1,0.8,0.1c0.4-0.7,1.1-1.5,1.1-2.2
		c0.1-2.1,0.2-4.2-0.2-6.2c-0.7-3.4-1.6-6.9-3.8-9.7C671.5,381.1,671.2,380.7,670.9,380.4z"/>
        <path class="st10" d="M670,373.1c2-0.1,2.6-1.3,2.4-2.7c-0.2-1.7-0.1-3.4-0.2-5.1c0-0.6-0.3-1.2-0.5-1.8c-0.4,0.4-1.1,0.8-1.2,1.3
		c-0.5,2.2-0.9,4.3-1.1,6.5C669.3,372,669.8,372.7,670,373.1z"/>
        <path class="st10" d="M686.4,431.9c0.6-0.5,1.1-0.8,1.6-1.2c-0.5-0.3-0.9-0.8-1.4-0.9c-1.4-0.5-2.9-0.9-4.4-1.2
		c-0.3-0.1-0.9,0.2-1,0.4c-0.1,0.3,0.1,0.9,0.3,1C683.1,430.7,684.7,431.3,686.4,431.9z"/>
        <path class="st10" d="M681.9,437.1c0.3,0.5,0.6,1.3,1,1.4c1.7,0.4,3.4,0.6,5.1,0.7c0.3,0,0.7-0.5,1.1-0.8c-0.3-0.2-0.6-0.7-0.9-0.7
		c-1.9-0.4-3.8-0.7-5.6-1C682.3,436.9,682.1,437,681.9,437.1z"/>
        <path class="st10" d="M682.5,433.2c1.6,1.8,3.5,2,5.2,2.3c0.2,0,0.7-0.4,0.8-0.8c0.1-0.2-0.1-0.9-0.2-0.9
		C686.5,433.6,684.8,432.4,682.5,433.2z"/>
        <path class="st10" d="M700.1,437c2.1-0.6,3.2-1.8,3.3-3.6C701.7,433.4,700,435.2,700.1,437z"/>
</g>
    <g>
	<g>
		<path class="st13" d="M690.7,373.2c1.8,0.6,4-0.1,4.9-1.3c0,0,0.1-0.3,0.2-0.5c-0.6-1.6-3.4-3.3-5.4-2.5c-0.9,0.3-1.2,1.3-2,1.9
			c-0.1,0.3,0.3,0.9,0.5,1C689.5,372.5,689.9,373,690.7,373.2z"/>
	</g>
</g>
    <g>
	<circle class="st8" cx="690.8" cy="371" r="1.3"/>
</g>
    <path class="st10" d="M716.2,397.5c5.4-3.1,6.2-13.5,3.1-18c1.1,4.8,0.9,9.1-1.2,13.2c-0.5,0.9-1.1,1.6-1.5,2.5
	C716.3,395.8,716.3,396.5,716.2,397.5"/>
    <path class="st8" d="M712,395.5c0,0-0.3,2.3-1.7,3.1l-1.9,0.1l0.5-3.1L712,395.5z"/>
    <path class="st8" d="M708.2,395.6l-0.5,3.1l-1.8,0c0,0-0.9-2.4-0.9-3.4C705.1,395.3,706.8,395.8,708.2,395.6z"/>
    <path class="st11" d="M638.2,481.5c0,0-3-8.7-12.1-13.3"/>
    <path class="st11" d="M632.1,483.2c0,0-3-8.7-12.1-13.3"/>
    <path class="st11" d="M647,481.1c0,0-3.6-9.8-14.7-15"/>
    <path class="st11" d="M641.3,467.9c0,0-12.4-1.3-23.4,7.8"/>
    <path class="st11" d="M645,472.1c0,0-12.4-1.3-23.4,7.8"/>
    <path class="st11" d="M648,477.7c0,0-11.1-1.7-20.5,4.6"/>
    <g>
	<path class="st10" d="M484.3,411.3c-5.1,0-10.2-0.5-14.4-4c0,0-1.9-3-4.6-1.5c-8.2,3.5-16.9,3.7-25.7,3.8
		c-3.8,0.1-7.5,0.9-11.2,0.8c-3.3-0.1-6.6-0.6-9.7-1.4c-2.5-0.7-3.9-3.3-3-5.4c0.5-1.2,1.8-2.3,3.1-2.8c3-1.2,6.2-2.1,9.4-3.1
		c4.8-1.4,9.6-2.8,13.3-6.5c0.1-0.1,0.3-0.1,1.1-0.2c-0.4,0.9-0.5,1.8-1,2.1c-1.7,1.3-3.4,2.7-5.4,3.7c-3.5,1.7-7.1,3.1-10.6,4.7
		c-1.2,0.6-2.4,1.4-3.1,2.4c-1.1,1.5-0.7,2.8,1.1,3.2c2,0.5,4.2,0.7,6.3,0.7c4.9,0.1,9.8-0.3,14.6,0c4.7,0.3,9.3,0,13.8-1.2
		c3.3-0.9,6.1-2.9,8.9-4.8c2.7-1.8,4.3-4.3,6-6.7c0.7-1,1.2-2.2,1.5-3.4c2.5-6.9,1.9-20.5,1.9-20.5c-0.9-12.2-3.8-24-7.4-35.7
		c-0.3-1.1-0.8-2.1-1.1-3c-0.9,3.4-2.1,7.2-3.5,10.4c-3.2,7.3-6.4,10.6-12.4,14.8c-6.4,4.3-12.7,8.1-20.3,9.7
		c-2.6,0.6-5.1,0.5-7.6-0.6c-0.4-0.2-0.9-0.7-1-1.2c-0.4-1.3-0.5-2.7-1-4c-0.4-0.9-1.2-1.6-2.1-2.8c1.6-0.1,2.5-0.2,3.5-0.3
		c1.5-0.2,3-0.5,4.5-0.8c0.5-0.1,1.1-0.1,1.7-0.2c-0.1,0.5-0.2,1.1-0.3,1.6c0,0.2-0.1,0.3-0.1,0.7c1.8-0.1,1.9,1.2,1.8,2.6
		c1.1,0,2.1-0.3,2.8,0.1c0.4,0.2,0.3,1.5,0.4,2.5c1.9-0.8,4.2-1.5,6.3-2.6c5.5-2.9,11-5.9,15.3-10.5c5.4-5.8,8.3-12.5,8.5-20.6
		c0-1,0.2-1.9,0.1-3.3c-0.1-1.3-0.2-3.3-1.1-4.4c-4.4-5.8-9.1-11.4-16.4-13.8c-0.5-2.3,1-3.4,2.4-4.6c3.2-3,4-9.1,1.7-12.9
		c-1.3-2.1-3.9-2.4-6-0.8c-0.9,0.7-1.6,1.6-2.5,2.2c-0.6,0.3-1.7,0.5-2.1,0.1c-4.7-3.4-9.9-4.4-15.5-4.3c-4.7,0.2-9.3,1.1-13.6,3.2
		c-2.5,1.2-3.7,3.7-4.8,6.1c-0.5,1-0.8,2.1-1.2,3.1c-1.1-3.1-0.1-5.8,1.6-8.2c1.7-2.3,3.9-4,6.6-5.1c8.5-3.4,16.9-3,25.3,0.1
		c1,0.4,2.1,0.8,3.2,1c0.4,0.1,1,0,1.4-0.2c0.6-0.2,1.1-0.6,1.8-0.8c5.5-1.5,8.5,1.4,9.4,7.5c0.5,3.6-1,6.7-3.4,9.3
		c-0.8,0.9-1.8,1.7-2.5,2.5c12.8,6.2,20.8,16.6,26.1,29.3c4.8,11.5,7,23.7,7.8,36.1c0.3,4.5-0.1,9-0.3,13.6
		c-0.1,1.7,0.5,2.7,2.1,3.2c4.6,1.3,9.3,2.6,13.8,4.1c1.7,0.6,3.3,1.6,4.6,2.8c2.7,2.5,2.9,5.1,0.4,8.1
		C503.3,405.3,497.4,411.5,484.3,411.3z"/>
        <path class="st10" d="M404.2,335.6c-0.2,1.5-0.4,3.1-1.1,4.4c-3.8,6.9-11.1,7.8-17,6c-0.9-0.3-1.7-0.7-2.8-1.1
		c0.3,2.2-0.6,2.9-2.5,2.3c-0.3-0.1-0.7,0.3-1.1,0.5c-0.6,0.2-1.3,0.4-1.9,0.6c-0.5,0.2-1.3,0.3-1.5,0.6c-0.2,0.5-0.1,1.2,0.1,1.7
		c0.4,1,1.2,2,1.3,3.1c0.2,1.8,0,2.8-1.7,3.8c-3.1,1.7-5.9,1.1-8.5-0.9c-1.7-1.3-3.5-2.7-4.7-4.4c-0.8-1.2-1.1-3-1.1-4.4
		c0.1-2.3,1.3-3.1,3.8-3.1c0.2,0,0.5-0.1,0.7,0c2.2,0.8,3.7,0.1,4.5-2.1c0.1-0.3,0.2-0.5,0.4-0.8c0.2,0.1,0.4,0.3,0.6,0.4
		c-0.2,0.7-0.6,1.4-0.7,2.2c-0.1,0.5-0.1,1.4,0.2,1.7c1,0.9,2.1,1.6,3.2,2.4c1.2-0.9,1.3-1.8,0.5-2.9c-0.7-1-1.4-2-2-3.1
		c-0.5-1-0.8-2.1,0.5-2.9c0.3-0.2,0.3-1.1,0.2-1.7c-0.1-1,0-1.7,1.2-1.9c0.6-0.1,1.1-0.7,1.5-1.2c1.6-2.3,3.1-4.6,4.7-6.8
		c0.3-0.4,1-0.8,1.6-0.9c2.9-0.3,5.6,2.6,5.3,5.4c-0.2,1.4,0.9,1.5,1.7,1.7c1.2,0.4,2-0.3,2.3-1.4c0.5-2,0.1-3.9-1.3-5.3
		c-2.4-2.6-5.4-4.3-9.1-4.7c-2.9-0.3-3.8,1-2.8,3.7c0.2,0.5,0.4,1.1,0.6,1.8c-1.8-1.2-2.8-3.4-2.2-4.8c0.7-1.4,1.3-3,3.3-3.2
		c4.5-0.4,11.9,4.2,13.2,8.5c0.4,1.4,0.6,3.3,0.1,4.6c-1.1,3-5,3.4-7,0.9c-1.4,1.6-2.8,3.1-4.1,4.7c-0.2,0-0.3-0.1-0.5-0.1
		c0.1-0.5,0.2-1.1,0.5-1.6c1-1.4,2.1-2.7,3.2-4c1.2-1.5,0.9-2.7-0.8-4c-1.6-1.2-2.7-1.1-3.8,0.4c-1.4,2-2.6,4.1-4.2,5.9
		c-1.2,1.4-0.8,2.5,0,3.8c0.4,0.6,0.9,1.2,1.4,1.9c1.3-0.9,2.4-0.6,3.6,0.2c6,4,11.8,4.2,17.8-0.1c1.3-1,2.7-2.6,3.2-4.4
		c0.2-0.4,0.5-1,0.8-1.4 M367,346.7c-1.7,0.2-3.2,0.7-3.6,2.1c-0.3,0.9,0.3,2.3,1,3.1c1.4,1.5,3.1,2.9,4.8,4.1
		c1.4,1,3.1,1.5,4.9,0.9c1.7-0.6,2.4-2.6,1.2-4c-1.2-1.4-2.4-2.8-3.8-3.9C370.1,348.1,368.5,347.5,367,346.7z"/>
        <path class="st10" d="M405.5,307.7c-1.9,0.9-2.5,2.4-2.9,3.9c-1.2,5-0.3,9.7,2.6,13.9c0.3,0.4,0.1,0.1,0.2,0.6
		c-0.5-0.5-0.5-0.6-0.7-0.9c-1.5-2-2.2-3.7-2.6-5.1c-0.3-1-0.7-3.3-0.8-4.3c-0.2-3.1,0-4.7,1-7.6c0.2-0.7,1-1.4,1.6-1.5
		c1.5-0.4,2-1.4,2.7-2.5c2.6-4.1,6.7-4.5,10.2-1c-1.8,2.3-1.8,3.3-0.1,4.9c0.3-0.6,0.6-1.2,1-1.9c1.1,1.1,1.1,2.4,0.7,3.6
		c-0.8,2.7-2.8,4-5.4,4.4c-1.4,0.2-1.8,0.8-1.6,2.1c0.1,0.7,0.2,1.4,0.4,2.1c0.6,2.1,1.6,3.9,4,4.2c2.6,0.3,4.6-0.6,6.1-2.7
		c0.8-1.1,1.4-2.3,2.2-3.5c0.9,1.1,0.9,2.4,0.2,3.4c-1.8,2.5-3.7,4.9-5.6,7.2c-0.4,0.5-1.3,0.6-1.9,0.7c-1.3,0.1-2.7-0.1-4.1,0.1
		c-3,0.4-4.7-1.4-6.2-3.5c-0.3-0.4-0.5-0.9-0.6-1.5c-0.1-0.3,0.2-0.7,0.3-1.1c0.3,0.1,0.1,0.1,0.3,0.3c0.8,0.7,2.2,2.1,3.3,1.2
		c0.5-0.4,0.1-1.9,0.1-2.9c0-1.6,0-3.3-0.1-4.9c0-0.6-0.1-1.5-0.5-1.6C407,312.5,405.7,310.6,405.5,307.7z"/>
        <path class="st10" d="M400.2,356.7c-6.3,0.6-12.1-0.5-16.7-5.2c0.1-0.2,0.1-0.3,0.2-0.5c1.1,0.4,2.2,0.9,3.3,1.3
		c5.5,1.6,10.9,3.2,16.4,0.2c0.4-0.2,0.9-0.5,1.3-0.4c0.6,0.1,1.4,0.2,1.7,0.6c0.2,0.3-0.1,1.2-0.4,1.7c-0.6,1-1.3,1.8-1.9,2.8
		c-3.3,4.9-4.1,10.6-4.7,16.3c-0.7,7.1-0.3,14.1,3,20.7c0.2,0.3,0,0.8,0,1.2c-0.5-0.3-1.1-0.4-1.4-0.8c-2.4-3.4-3.7-7.2-4.1-11.3
		c-0.8-8.6-0.2-17,3-25.2c0.1-0.3,0.2-0.6,0.3-0.8C400.3,357.1,400.2,357,400.2,356.7z"/>
        <path class="st10" d="M406.6,330.4c0.2,0.3,0.4,0.6,0.5,0.9c1.5,6,5.5,10.3,9.9,14.3c0.9,0.8,1.5,1.8,3.1,1.7
		c1.2-0.1,2-0.5,2.9-1.3c9.8-8.8,17.1-19.3,22-31.5c0.1-0.1,0.2-0.3,0.7-0.3c-0.2,0.8-0.4,1.7-0.7,2.5c-4,9.8-9.5,18.6-17,26.2
		c-1.1,1.1-1.9,2.4-2.9,3.5c-1.1,1.3-2.1,2.4-1.8,4.5c0.2,0.9-0.9,2.4-1.8,3.1c-1.7,1.2-2.2,2.6-2.1,4.5c0,0.6,0.1,1.2-0.2,1.7
		c-0.2,0.6-0.7,1.4-1.2,1.5c-1,0.3-2,0.2-2.5-1c-1.7-4-2.8-8,0.6-11.7c1.1-1.3,0.1-1.8-0.6-2.6c-3.2-3.3-6.1-6.7-8-10.9
		c-0.7-1.6-1-3.4-1.5-5C406.1,330.5,406.4,330.4,406.6,330.4z M416.6,357.5c0.6-2.9,1.2-3.6,3.6-5c0.5-0.3,1.1-0.8,1.3-1.3
		c0.4-0.8-0.3-1.9-1.1-1.7c-0.8,0.2-1.8,0.2-2.3,0.7c-1.1,1.1-2.2,2.3-2.7,3.7C415.3,354.9,416.1,356.1,416.6,357.5z"/>
        <path class="st10" d="M409.3,404.9c-0.4,0.4-0.8,1-1.3,1.1c-3.1,0.6-6.2,1.1-9.3,1.4c-1.9,0.2-3.8,0.3-5.6,0
		c-1.4-0.2-2.9-0.7-4-1.5c-2.1-1.4-1.9-4.3,0.3-5.6c2.1-1.2,4.3-2.3,6.6-2.9c4-1,8.2-1.5,12.3-2.2c0.3,0,0.6,0.1,0.8,0.1
		c0.1,0.2,0.2,0.3,0.3,0.5c-0.7,0.4-1.4,1-2.1,1.2c-3.2,0.7-6.4,1-9.5,2c-1.6,0.5-3,2-4.2,3.4c-0.9,1-0.1,2,1.1,2.2
		c2.6,0.3,5.2,0.5,7.8,0.5c2.2,0,4.4-0.4,6.6-0.7C409.1,404.6,409.2,404.7,409.3,404.9z"/>
        <path class="st10" d="M450.1,298c-0.7,1.8-1.4,3.6-2.3,5.3c-0.4,0.8-1.4,0.9-1.7-0.2c-0.2-1.2-0.4-2.5-0.1-3.6
		c0.6-1.8,1-3.6,0.5-5.5c-0.1-0.5,0.2-1.2,0.3-1.8c0.5,0.4,1.3,0.6,1.5,1.2C449.1,294.8,449.5,296.4,450.1,298z"/>
        <path class="st8" d="M366.7,346.1c2.9,0.3,4.2,1.8,5.5,2.8c1.4,1.1,2.5,2.7,3.7,4.1c1.5,2.1-0.1,3.4-1.8,4
		c-1.8,0.6-3.5,0.1-4.9-0.9c-1.7-1.2-3.4-2.5-4.8-4.1c-0.7-0.7-1.7-3.2-1.4-4.1C363.4,346.4,364.9,346.2,366.7,346.1z"/>
        <path class="st10" d="M416.6,357.5c-0.5-1.4-1.3-2.7-1-3.5c0.5-1.4,1.6-2.6,2.7-3.7c0.5-0.5,1.5-0.6,2.3-0.7
		c0.8-0.2,1.5,0.9,1.1,1.7c-0.3,0.5-0.8,1-1.3,1.3C417.8,354,417.2,354.6,416.6,357.5z"/>
</g>
    <g>
	<g>
		<path class="st13" d="M428.4,302.8c-1.8,0.6-4,0-4.9-1.1c0,0-0.1-0.3-0.2-0.5c0.6-1.6,3.3-3.4,5.3-2.7c0.9,0.2,1.3,1.3,2,1.8
			c0.1,0.3-0.2,0.9-0.5,1C429.6,302.1,429.2,302.6,428.4,302.8z"/>
	</g>
</g>
    <g>
	<circle class="st8" cx="428.2" cy="300.6" r="1.3"/>
</g>
    <path class="st8" d="M409.7,324c0,0,0.3,2.1,1.6,2.7h1.8l-0.5-2.7H409.7z"/>
    <path class="st8" d="M413.1,324l0.5,2.7h1.6c0,0,0.7-2.1,0.7-3C415.9,323.7,414.4,324.2,413.1,324z"/>
    <path class="st11" d="M480.6,408c0,0,2-8.4,10.2-13.6"/>
    <path class="st11" d="M486.5,408.9c0,0,2-8.4,10.2-13.6"/>
    <path class="st11" d="M472.2,408.3c0,0,2.4-9.6,12.5-15.5"/>
    <path class="st11" d="M476.4,395.4c0,0,11.6-2.3,23,5.2"/>
    <path class="st11" d="M473.2,399.7c0,0,11.6-2.3,23,5.2"/>
    <path class="st11" d="M470.9,405.2c0,0,10.4-2.6,19.8,2.4"/>
    <g>
	<path class="st10" d="M105.2,301.3c-1.2,3.3-2.5,6.5-3.5,9.9c-5.5,18.3-6.4,37.1-5.6,56.1c0.4,8.9,0.8,17.8,3,26.4
		c1.9,7.4,4.5,14.5,6.8,21.8c0.2,0.8,0.2,1.7,0.4,2.5c-0.8-0.2-1.7-0.3-2.4-0.6c-3.4-1.4-6.7-2.7-10.4-2.9c-3.6-0.3-6.1,1.7-6.6,5.3
		c-0.5,3.3,0.6,6.2,2.5,8.9c3.3,4.8,7.9,8.3,12.8,11.1c1.5,0.9,3,2,4.6,2.7c3.1,1.2,6.3,2.3,9.5,3.1c2,0.5,2.6,1.1,1.9,3.2
		c-0.8,2.6-2,5.1-3.1,7.6c-1,2.2-2,4.4-3,6.6c-0.2,0.5-0.3,1-0.3,1.5c-0.7,5,3,6.7,6.7,5.8c1.9-0.5,3.6-1.3,4.8-2.8
		c2.5-3.2,4.8-6.5,7.3-9.7c2-2.5,4-5,6.2-7.3c1-1,2.4-1.6,3.8-2.4c-1.1-0.4-2.3-0.5-3.2,0.3c-1.7,1.5-3.5,3-5,4.8
		c-2.1,2.7-3.9,5.6-5.9,8.4c-1.1,1.6-2.4,3.1-3.7,4.5c-2.3,2.4-4.9,2.2-6.9-0.4c-1.9-2.4-2-4.5-0.3-7.2c2-3.3,3.8-6.7,4.2-10.6
		c0.2-2.5-0.3-5-0.5-7.5c-0.3-3.8-3-6.5-4.4-9.8c-1.9-4.5-3.9-8.9-5.6-13.5c-3.7-9.7-6.8-19.7-8.7-29.9c-1.6-8.5-2.5-17.2-2.6-25.9
		c-0.1-11.1-0.1-22.3,1.3-33.4c1-8,3.3-15.6,5.8-23.2c0.3-1,0.6-2,0.9-3C105.6,301.5,105.4,301.4,105.2,301.3z"/>
        <path class="st10" d="M166.4,448.6c1-1,2-1.9,2.8-3c5.5-6.4,9.6-13.6,11.7-21.7c1.7-6.7,2.8-13.5,1.9-20.5
		c-0.6-4.8-1.1-9.7-2.3-14.4c-1.1-4.2-3.1-8.1-5.9-11.5c-0.3-0.3-0.7-0.6-1.4-1.1c0.1,0.7,0.1,1,0.3,1.3c5,9.9,6.8,20.3,6.4,31.3
		c-0.2,5.4-0.5,10.9-1.9,16.1c-0.9,3.3-2.4,6.4-3.7,9.5c-1.8,4.3-4.6,8-7.5,11.6c-0.4,0.6-0.7,1.2-1.1,1.9
		C166,448.3,166.2,448.5,166.4,448.6z"/>
        <path class="st10" d="M161.2,327.2c-0.2-0.4-0.3-1.1-0.7-1.3c-1.9-1.3-3.9-2.7-6-3.8c-5.6-3.1-11.5-3.8-17.7-2.1
		c-1.1,0.3-2.2,0.9-3.2,1.4c-0.8,0.4-1.3,0.2-2-0.1c-1.8-0.8-3.7-1.7-5.7-2c-5.9-1-9.6,4.7-9.4,9.7c0.1,2,0.9,4,1.6,5.9
		c0.4,1,1.3,2,3.1,1.4c-0.8-0.7-1.5-1.2-1.9-1.8c-2-3-1-9.3,1.8-11.7c3-2.6,7.5-2.3,10,0.7c0.9,1.1,1.5,1.2,2.8,0.4
		c5.9-3.7,12.2-3.6,18.4-0.9c2.6,1.1,5,2.7,7.4,4.1c0.3,0.2,0.6,0.3,0.9,0.5C160.9,327.4,161.1,327.3,161.2,327.2z"/>
        <path class="st10" d="M147.2,450.3c0.6,0.5,1.3,1,1.9,1.4c4.9,3.6,9.7,7.3,14.6,10.9c2.6,1.9,5.1,3.9,7.8,5.6
		c1.1,0.7,2.7,1.1,4,1.1c3,0.1,5.1-3.1,3.8-5.9c-1.3-2.8-3-5.4-4.7-8c-1.7-2.5-3-5-3.2-8.1c0-0.2,0-0.3,0-0.5
		c-0.2-0.4-0.4-0.7-0.7-1.1c-0.2,0.4-0.7,0.7-0.7,1.1c-0.3,2.6,0.2,5.1,1.7,7.4c1.2,1.7,2.4,3.3,3.4,5.1c0.8,1.4,1.4,3.1,1.8,4.7
		c0.4,2-0.7,3-2.7,2.6c-1-0.2-1.9-0.6-2.8-1c-5.5-2.7-10-6.8-14.8-10.4c-2.2-1.7-4.6-3.1-6.9-4.6c-0.6-0.4-1.5-0.5-2.2-0.7
		C147.3,449.9,147.3,450.1,147.2,450.3z"/>
        <path class="st10" d="M168.9,360.8c16.3,9.7,25.1,24.7,30.9,42.1c-0.2-1.2-0.2-2.5-0.5-3.6c-2.5-9.4-6.6-18.2-12.7-25.8
		c-4.3-5.3-9.4-9.7-15.8-12.5c-0.4-0.2-0.8-0.3-1.2-0.5c-0.1,0-0.3,0-0.4,0C169.1,360.5,169,360.7,168.9,360.8z"/>
        <path class="st10" d="M165.9,328.8c0.8,0.2,1.2,0.2,1.5,0.4c1.2,0.7,2.7,1.1,3.3,2.1c1.9,2.8,2.6,6,1.1,9.3c-0.2,0.4-0.4,0.9-0.7,1
		c-1.8,0.5-1.7,2-2,3.4c-0.5,2.2-1,4.5-1.7,6.7c-1.1,3.7-3.5,6.4-6.8,8.3c-0.8,0.5-1.5,1-2.3,1.6c0.1,0.2,0.1,0.4,0.2,0.6
		c0.5-0.1,1-0.1,1.5-0.3c6.6-3.7,9.9-9.6,11-16.9c0.2-1.1,0.5-1.9,1.3-2.7c2.4-2.4,2.3-5.4,1.7-8.4c-0.6-2.6-1.9-4.8-4.6-5.7
		C168.2,327.6,167.2,327.8,165.9,328.8z"/>
        <path class="st10" d="M111.7,340.5c0,2.8-0.3,5.6,0.1,8.4c0.6,4.9,2.2,9.5,4.6,13.8c1.3,2.3,3.1,3.9,5.5,5c1.1,0.5,2.3,0.8,3.5-0.2
		c-1.5-0.9-2.9-1.6-4.2-2.5c-3.2-2.2-4.3-5.7-5.7-9.1c-1.8-4.3-2.9-8.8-3.1-13.4c0-0.7-0.2-1.3-0.3-2
		C112,340.6,111.9,340.5,111.7,340.5z"/>
        <path class="st10" d="M127.3,323.1c-2.2,1.8-4,4-4.5,6.9c-0.4,2.2,0.2,2.6,2.3,2.1c1.4-0.4,1.8-1.7,1.7-3.2
		c-0.2-1.3,0.2-2.8,0.4-4.1c0.1-0.5,0.3-1,0.5-1.5C127.6,323.2,127.4,323.1,127.3,323.1z"/>
        <path class="st10" d="M116,308.4c-3.3,0.6-5.5,12.7-3.4,17.1C112.5,319.7,113.2,314,116,308.4z"/>
        <path class="st10" d="M196.3,414.6c1.9-2.5,0.9-12-1.6-13.5C195.3,405.7,195.8,410.1,196.3,414.6z"/>
        <path class="st10"
              d="M192.2,405.3c0.4,2.9,0.8,5.9,1.1,8.9c1.9-1.6,1.5-7.3-0.5-8.9C192.6,405.2,192.4,405.3,192.2,405.3z"/>
        <path class="st10" d="M111.1,298.5c-2.4,0.9-3.9,6.5-2.6,8.4C109.3,304.2,110.1,301.5,111.1,298.5z"/>
        <path class="st10" d="M157.4,342.9c1.9-1.7,3.8-1,5.7,0.2c0.4-1.2-0.4-1.7-1.1-2.1c-1.5-0.9-3.4-0.9-4.4,0c-0.4,0.4-0.5,1-0.7,1.5
		C157.1,342.7,157.2,342.8,157.4,342.9z"/>
        <path class="st10" d="M112,309.6c0.6-2.5,1.2-4.7,1.7-7C111.6,303.5,110.6,307,112,309.6z"/>
        <path class="st10" d="M190.6,414.5c1.4-1.6,1.2-3.2,0.6-4.8c-0.1-0.3-0.7-0.5-1-0.8c-0.1,0.4-0.4,0.8-0.3,1.2
		C190.1,411.6,190.4,413.1,190.6,414.5z"/>
</g>
    <path class="st10" d="M149,360.9c-0.6,1-1,2.2-1.8,2.9c-0.5,0.4-1.7-0.2-2.6-0.4c-0.1,0-0.2,0-0.3,0c-1.6,0-2.4-0.8-2.4-2.4
	c0-2.1-0.5-3.8-2.7-4.6c-0.3-0.1-0.5-0.3-0.8-0.6c-1.5-1.3-1.9-4.1-0.8-5.7c-0.1,4.3,1.2,5.9,4.9,6.7c2.3,0.5,3.9-0.7,4.3-3
	c0.1-0.8-0.1-1.2-0.8-1.6c-0.9-0.6-2-1.3-2.4-2.3c-0.7-1.8-0.4-3.8,0.6-5.5c1.1-1.9,4.5-2.7,6.1-1.6c1.6,1,2.7,3.6,2.4,5.5
	c-0.4,2.8-2.2,4.2-4.8,4.5c-0.6,3.5-0.1,5,1.8,5.9c1.9,0.8,4-0.2,6.4-3.2c-0.6,3-3,4.6-6.6,4.4C149.4,360.2,149.2,360.6,149,360.9z
	 M142.5,358.2c0.1,1.2,0.2,2.5,0.3,3.7c1.9,0.5,2.4-0.1,3.4-4.4C145,357.7,143.8,357.9,142.5,358.2z M147.3,362.4
	c1.7-2,1.7-2.9-0.1-4.7c-0.6,1.6-1.1,3.1-1.9,5.2C146.2,362.6,147,362.7,147.3,362.4z M147.2,344.5c-2-0.3-2.6,0.6-1.8,2.6
	C145.9,346.3,146.5,345.4,147.2,344.5z"/>
    <path class="st8"
          d="M146.2,357.5c-1.2,0.2-2.3,0.4-3.7,0.7c0.1,1.2,0.2,2.5,0.3,3.7C144.8,362.4,145.3,361.7,146.2,357.5z"/>
    <path class="st8" d="M145.2,362.8c1-0.2,1.8-0.1,2.1-0.5c1.7-2,1.7-2.9-0.1-4.7C146.6,359.2,146,360.7,145.2,362.8z"/>
    <path class="st8" d="M145.3,347.1c0.6-0.8,1.2-1.7,1.8-2.6C145.2,344.2,144.5,345,145.3,347.1z"/>
    <path class="st10"
          d="M133.4,338.1c3-1.8,4.9,0.6,7.2,1.7c0.2-1.6-0.6-2.6-2.2-3.1C136.1,336,134.3,336.3,133.4,338.1z"/>
    <path class="st10" d="M107,461.1c-2.4,2.3-2.3,8-0.1,11.2c1.5,2.2,3.8,3.4,5.6,2.7C106.7,472,106.7,466.8,107,461.1z"/>
    <path class="st10"
          d="M102.6,468.6c-0.9,1.8-0.5,4.1,1.1,5.8c0.6,0.6,1.2,1.7,2.3,1.1C104.9,473.2,103.8,471,102.6,468.6z"/>
    <path class="st11" d="M107.1,422.6c0,0-7.5,4.8-7.7,13.1"/>
    <path class="st11" d="M111.9,426.8c0,0-7.5,4.8-7.7,13.1"/>
    <path class="st11" d="M102.8,416.6c0,0-8.4,5.6-8.2,15.6"/>
    <path class="st11" d="M88.6,419.9c0,0,5.6,12.5,22.7,19.9"/>
    <path class="st11" d="M90.7,416.7c0,0,5.7,12,23,19.1"/>
    <path class="st11" d="M95.2,415.4c0,0,4.6,9.6,18,15.1"/>
    <path class="st11" d="M96.4,415.7c0,0-6,3.9-6,10.7"/>
    <path class="st11" d="M115.4,430.2c0,0-6,3.9-6,10.7"/>
    <polyline class="st6" points="301.9,386.6 301.4,79.7 89,79.6 88.6,380.9 "/>
    <polyline class="st6" points="86.7,79.6 78.5,82.8 78.3,451.1 "/>
</svg>
