<svg viewBox="0 0 841.89 595.28" xmlns="http://www.w3.org/2000/svg">
    <defs>
        <style>
            .cls-1{isolation:isolate;}.cls-10,.cls-2,.cls-3{fill:none;}.cls-2,.cls-3,.cls-7{stroke:#626262;}.cls-10,.cls-2,.cls-7{stroke-linecap:round;stroke-linejoin:round;}.cls-3{stroke-miterlimit:10;}.cls-4{fill:#f09587;opacity:0.48;}.cls-5{fill:#5eb676;opacity:0.67;}.cls-5,.cls-6{mix-blend-mode:multiply;}.cls-6{fill:#00a6c4;opacity:0.46;}.cls-7,.cls-9{fill:#fff;}.cls-8{fill:#626262;}.cls-10{stroke:#fff;stroke-width:0.5px;}.cls-11{fill:#ee707c;}
        </style>
    </defs>
    <title>pages non dispinubles_Plan de travail 1 copie 3</title>
    <g class="cls-1">
        <g data-name="Calque 2" id="Calque_2">
            <ellipse class="cls-2" cx="699.42" cy="480.91" rx="21.47" ry="7.26"/>
            <polygon class="cls-3" points="297.15 232.57 217.12 230.03 217.3 126.48 296.94 139.37 297.15 232.57"/>
            <polyline class="cls-3" points="297.15 232.57 291.64 233.6 211.49 232.25 211.67 131.57 217.3 126.48"/>
            <line class="cls-3" x1="217.12" x2="211.49" y1="230.03" y2="232.25"/>
            <polygon class="cls-3" points="297.15 283.03 217.12 289.58 217.3 390.12 296.94 376.23 297.15 283.03"/>
            <polyline class="cls-3" points="297.15 283.03 291.64 283.01 211.49 288.35 211.67 385.03 217.3 390.12"/>
            <line class="cls-3" x1="217.12" x2="211.49" y1="289.58" y2="288.35"/>
            <path class="cls-4"
                  d="M296.35,155c.93-2.68,1.29-5.57-.24-8.14-1.84-3.08-5.37-3.81-8.62-4.58a147,147,0,0,0-27.85-4,117.79,117.79,0,0,0-13.55,0c-3.42.25-5.82,1.78-7.1,5-.27.68-.5,1.38-.72,2.08-2.28,4.14-2.09,10.35-2.65,14.52,0,.1,0,.21,0,.31-.17.81-.31,1.63-.43,2.46-.92,4.88-2.22,10.91,1.28,14.45,4,4,11.43,3.39,16.56,3.83l1.52.13a223.43,223.43,0,0,0,23.29,3.7c5,.53,11.83,2.1,14.58-2.33a3.25,3.25,0,0,0,1.69-2.55l2.1-24.27A5.53,5.53,0,0,0,296.35,155Z"/>
            <polygon class="cls-3" points="533.05 237.82 611.08 236.28 610.9 134.74 533.26 141.62 533.05 237.82"/>
            <polyline class="cls-3" points="533.05 237.82 538.56 238.85 616.71 237.5 616.53 139.83 610.9 134.74"/>
            <line class="cls-3" x1="611.08" x2="616.71" y1="236.28" y2="237.5"/>
            <polygon class="cls-3" points="559.53 490.85 650.2 505.18 671.66 390.87 580.32 385.06 559.53 490.85"/>
            <polyline class="cls-3" points="559.53 490.85 565.51 493.52 656.05 509.23 676.95 397.87 671.66 390.87"/>
            <line class="cls-3" x1="650.19" x2="656.05" y1="505.18" y2="509.23"/>
            <path class="cls-4"
                  d="M647,407.66c.94-3.09,1.23-6.39-.62-9.25-2.22-3.43-6.27-4.11-10-4.86a168,168,0,0,0-31.86-3.33,132.17,132.17,0,0,0-15.41.6c-3.89.44-6.56,2.27-7.87,6-.28.79-.52,1.58-.74,2.39-2.42,4.81-1.94,11.87-2.39,16.63,0,.12,0,.24,0,.36-.16.93-.29,1.87-.38,2.81-.85,5.6-2.08,12.51,2.06,16.39,4.68,4.4,13.15,3.38,19,3.67l1.73.08a251.55,251.55,0,0,0,26.66,3.23c5.74.39,13.55,1.9,16.48-3.27a3.69,3.69,0,0,0,1.83-3l1.37-27.71A7.1,7.1,0,0,0,647,407.66Z"/>
            <ellipse class="cls-3" cx="184.5" cy="455.93" rx="20.11" ry="5.77"/>
            <path class="cls-3" d="M183.17,455.93s7.47-12.8-4.28-28.83a30.35,30.35,0,0,1-3.26-31.5"/>
            <path class="cls-3"
                  d="M189.92,454.66s-1.78-68.22,3.65-77.06c5.25-8.53,8.42-.43,8.72,2.81s-1.41,7.32-4.22,3.38a16.06,16.06,0,0,1-3-7.78"/>
            <path class="cls-3"
                  d="M178.89,381s-3.51-4.69-9.69,1.59-5,11.06-5,11.06a7.45,7.45,0,0,1,7.28-4.78C177.26,388.85,180.89,386.88,178.89,381Z"/>
            <path class="cls-3"
                  d="M180.63,397.66s-5.53.85-5.9-6.46c0,0,.47-5.91,5.72-2.07C180.45,389.13,183.73,392.32,180.63,397.66Z"/>
            <path class="cls-3" d="M190.26,398.76s-9.1-4.49-10.82,5,7.29,3.75,7.29,3.75-.53-8.26,3.53-8.73"/>
            <path class="cls-3" d="M172.83,411.46s9.1-4.49,10.81,5-7.28,3.75-7.28,3.75.53-8.26-3.53-8.73"/>
            <path class="cls-3"
                  d="M196.16,410.36s-5.53.85-5.9-6.46c0,0,.47-5.91,5.72-2.07C196,401.83,199.26,405,196.16,410.36Z"/>
            <path class="cls-3" d="M164.4,455.93l6.39,43.83s14.28,12.19,29.09,0l4.73-43.83"/>
            <path class="cls-5"
                  d="M190.7,406.11a4.91,4.91,0,0,0,.94-4.46,5.11,5.11,0,0,0-6.15-3.49c-4.59,1.11-11.47,5.69-9.14,11.23a6.14,6.14,0,0,0,8.12,3,6.52,6.52,0,0,0,3.22-3.08,1.05,1.05,0,0,0,.07-.23A5.22,5.22,0,0,0,190.7,406.11Z"/>
            <path class="cls-5"
                  d="M200.47,375.37a3.34,3.34,0,0,0-3-.64,3.48,3.48,0,0,0-2.37,4.18c.76,3.12,3.86,7.78,7.62,6.2a4.15,4.15,0,0,0,2-5.51,4.43,4.43,0,0,0-2.08-2.19l-.16-.05A3.55,3.55,0,0,0,200.47,375.37Z"/>
            <path class="cls-5"
                  d="M195.42,404.84a3.34,3.34,0,0,0-3-.64,3.47,3.47,0,0,0-2.36,4.18c.75,3.11,3.86,7.78,7.61,6.2a4.15,4.15,0,0,0,2-5.51,4.39,4.39,0,0,0-2.08-2.19l-.16-.05A3.56,3.56,0,0,0,195.42,404.84Z"/>
            <path class="cls-5"
                  d="M179.06,387.1a4.54,4.54,0,0,0,1.14-4.63,6.35,6.35,0,0,0-7.44-3.62c-5.56,1.15-13.89,5.9-11.06,11.66,1.62,3.29,6.14,4.45,9.82,3.12a7.45,7.45,0,0,0,3.9-3.19,1.85,1.85,0,0,0,.09-.24A5.94,5.94,0,0,0,179.06,387.1Z"/>
            <path class="cls-5"
                  d="M179.66,411.51a3.28,3.28,0,0,0-3-.64,3.46,3.46,0,0,0-2.37,4.17c.76,3.12,3.86,7.79,7.62,6.2a4.16,4.16,0,0,0,2-5.51,4.41,4.41,0,0,0-2.08-2.18l-.16-.05A3.52,3.52,0,0,0,179.66,411.51Z"/>
            <ellipse class="cls-6" cx="330.38" cy="507.83" rx="110.7" ry="32.54"/>
            <path class="cls-7" d="M696.33,301.6V479.91s3.66,2.25,5.91,0,0-178.31,0-178.31"/>
            <path class="cls-2"
                  d="M679.74,246.19,666.8,295.41,677,299.07l21.35,2.53,19.13-1.12,13.47-3-12.1-51.32S697.46,240.57,679.74,246.19Z"/>
            <line class="cls-2" x1="709.55" x2="716.8" y1="252.63" y2="296.83"/>
            <line class="cls-2" x1="698.3" x2="696.53" y1="252.63" y2="296.83"/>
            <line class="cls-2" x1="687.21" x2="679.06" y1="252.63" y2="293.73"/>
            <path class="cls-6"
                  d="M723.67,298.43a2.36,2.36,0,0,0,3.15-1.68c.77-2.15.21-5.35-.27-8.3-1.35-8.33-3.06-16.66-5.16-24.89-1-3.94-2.08-7.92-3.29-11.76-.93-2.92-2.11-4.73-3.7-5.26a7.18,7.18,0,0,0-1-.25c-2.18-1.23-4.59.05-6.37.32l-.13,0a7.59,7.59,0,0,0-1.07.07c-2.15.08-4.84,0-5.39,3.71a45.21,45.21,0,0,0,.49,15.07c.1.45.2.89.31,1.34,1.21,7,2.51,18.58,4.08,25.52,1,4.45-1,5.64,1.44,7.22.42.69.93,1.14,1.41,1l15.17-2.18A1.73,1.73,0,0,0,723.67,298.43Z"/>
            <line class="cls-2" x1="713.18" x2="713.18" y1="303.85" y2="334.88"/>
            <polyline class="cls-2" points="156.9 55.91 323.96 103.73 323.96 433.62 208.09 474.29"/>
            <line class="cls-2" x1="323.96" x2="676.95" y1="103.73" y2="81.79"/>
            <line class="cls-2" x1="323.96" x2="339.69" y1="433.62" y2="434.09"/>
            <line class="cls-2" x1="459.52" x2="559.53" y1="444.9" y2="453.48"/>
            <line class="cls-2" x1="671.66" x2="693.15" y1="465.1" y2="466.98"/>
            <path class="cls-8"
                  d="M222.44,201.29c.47-.47,2.64-1.43,3-1.08a.25.25,0,0,1,.07.17,2.48,2.48,0,0,0,.12.67c.68,2.46,3.6,7.48,6.26,11.45a85.85,85.85,0,0,1-3.83-8.22,19,19,0,0,1-1.4-5.61,3.61,3.61,0,0,1,1-2.76c3.48-3.48,8.51,4.21,7.41,9.37a4.47,4.47,0,0,1,2.64.35c3.25,1.66,5.7,7.53,2.12,11.1a3.19,3.19,0,0,1-2.57,1c-.74,0-1.35-1-.67-1a1.87,1.87,0,0,0,1.61-.58c2.64-2.64-2.08-10.73-3.95-8.86a3.2,3.2,0,0,1-1.33,1.19c-.4.12-1.08-.09-1.17-.32s.28-1.08.68-1.48c1.07-3.78-2.36-10.77-4.26-8.88-.7.71-.37,2.95.85,6a91,91,0,0,0,6.87,13.51.56.56,0,0,1-.14.75c-.57.56-2.06,1-2.58.51C229.19,214.72,221.46,202.27,222.44,201.29Z"/>
            <path class="cls-8"
                  d="M236.88,199a.59.59,0,0,1,0-.63,4.33,4.33,0,0,1,2.2-.85c.42,0,.46.52.6.85a48.7,48.7,0,0,0,2.57,4.86c-.95-2.64-1.94-6.1-1.75-8.16a.91.91,0,0,1,.28-.61,4.18,4.18,0,0,1,2.06-.84c.6,0,.65.42.58.87a5.69,5.69,0,0,0,1.43,3.9c.56.61,1,.65,1.28.4,1-1,.05-3.79-.25-5a.47.47,0,0,1,.91-.21c.33,1.36,1.17,4.16.44,5.68a2.85,2.85,0,0,1-3.83.93,7.79,7.79,0,0,1-1.87-3.13c-.12-.3-.14-.19-.12,0,.31,3.35,2.6,9.24,4,10.87.23.24.12.4,0,.54-.56.56-2.1.84-2.59.35A39.65,39.65,0,0,1,236.88,199Z"/>
            <path class="cls-8"
                  d="M241.7,183.8a6.33,6.33,0,0,1,2-.75c.58-.11.89.19,1,.87.28,1.12.91,4.28.38,4.86-1.29,1.38-3.09-2.9-3.35-3.76C241.58,184.39,241.54,184,241.7,183.8Zm7.5,15.92a41.85,41.85,0,0,1-4.74-8.35c-.09-.28-.1-.51,0-.65a4.43,4.43,0,0,1,2.18-.82c.44-.07.47.52.63.82A55,55,0,0,0,252,199c.28.42.49.21.49-.16,0-2.85-1.66-6.66-2.64-8.86a.46.46,0,0,1,.84-.37c1,2.17,4.16,9.44,2.15,11.45a2,2,0,0,1-2.88-.31C249.72,200.37,249.46,200.07,249.2,199.72Z"/>
            <path class="cls-8"
                  d="M250,185.09a3.28,3.28,0,0,1,4.25-.24c1.27,1.27,2,3.32,1.43,3.86a3.19,3.19,0,0,1-2,.56c-.35,0-.49-.35-.38-.75a3.69,3.69,0,0,0-.25-2.4c-.38-.85-.82-1.06-1.12-.75-2,2,3,11.4,5.91,8.53,2.08-2.08-.33-7.39-1.57-10.36a.45.45,0,0,1,.85-.32c1.3,3.08,4.25,9.35,1.44,12.15C252.87,201,246.77,188.27,250,185.09Z"/>
            <path class="cls-8"
                  d="M257.48,178.36c1.45-1.45,3.67-1.66,4.72-.61a12.21,12.21,0,0,1,2.59,3.95,12.54,12.54,0,0,0-1-5.78.47.47,0,0,1,.87-.34,13.06,13.06,0,0,1,.7,8c.56,2.29.35,4.55-1,5.93-1.68,1.69-4.37,1-5.58-.21-2.32-2.31-4.17-6.54-3.23-9.53A2.43,2.43,0,0,1,257.48,178.36Zm5,9.69a8,8,0,0,0,1.06-1.65,14.66,14.66,0,0,0-3.49-6.48c-1.54-1.54-2.47-.79-2.4,1,.14,2.8,2.8,6.78,4.65,7.46A.92.92,0,0,1,262.45,188.05Z"/>
            <path class="cls-8"
                  d="M257.69,166c.44-.45,2.64-1.43,3-1.08a.25.25,0,0,1,.07.17,3.44,3.44,0,0,0,.09.7c.94,3.27,6,11.33,8.84,15,.46.56.65.56.65-.14-.09-2.81-1.71-6.47-2.66-8.6a.46.46,0,0,1,.84-.38c1,2.18,4.16,9.45,2.15,11.46-1.29,1.28-2.64-.12-3.48-1.1C263,177.23,256.78,167,257.69,166Z"/>
            <path class="cls-8"
                  d="M275,174a.46.46,0,0,0-.14-.19c.75,2.11,1.07,4.21,0,5.26a2.09,2.09,0,0,1-3,.1c-2.85-2.25-5.58-7.6-4.51-11.15.3-1.15,1.71-1.43,3-1.85a1.71,1.71,0,0,0-.19-.42c-.09-.28-.09-.51.05-.65a4.18,4.18,0,0,1,2.17-.82c.45-.07.47.51.61.84a57.06,57.06,0,0,0,4.81,8.13c.28.42.49.21.49-.16,0-2.85-1.75-6.57-2.73-8.76a.46.46,0,0,1,.84-.38c1,2.17,4.26,9.35,2.24,11.36a2,2,0,0,1-2.87-.3Zm-3.86-6.05a6.14,6.14,0,0,1-.37-.84.89.89,0,0,0-.86.25c-1.62,1.62,1.16,6.88,3,9,.24.29,1,1.17,1.4.8C275.43,176,271.85,169.36,271.1,167.91Z"/>
            <path class="cls-8"
                  d="M282.58,171.3a2.13,2.13,0,0,1-3,.11c-2.82-2.26-5.56-7.62-4.48-11.17a2,2,0,0,1,1.24-1.24c.53-.25,1.14-.39,1.72-.6a3.73,3.73,0,0,1-.18-.43.58.58,0,0,1,0-.63,4.53,4.53,0,0,1,2.2-.84c.28,0,.4.21.47.47a3.35,3.35,0,0,0,.37.79c1.12,2.16,2.41,4.33,3.53,6.1l.16.26a16.64,16.64,0,0,0-1.35-7.57c-.26-.54.58-.91.79-.37a18,18,0,0,1,1.38,9.27,59.32,59.32,0,0,1,3.23,5.75c1,2.11,1.26,3.93-.57,5.75a2.66,2.66,0,0,1-2.26.77,3.57,3.57,0,0,1-2.64-3.53c-.14-1.82.56-3.78.86-5.49l-1.45-2.57C283.33,168.21,283.61,170.27,282.58,171.3Zm-1.94-2.69c.23.28,1,1.17,1.4.79,1.12-1.12-2.48-7.76-3.2-9.23-.14-.28-.28-.56-.4-.82a.93.93,0,0,0-.86.26C276,161.2,278.77,166.46,280.64,168.61Zm6.07,5.09c-.53-1.09-1.21-2.38-2-3.74-.33,1.78-1.14,4.56.42,6a1.18,1.18,0,0,0,1.59.14C287.16,175.69,287.28,174.82,286.71,173.7Z"/>
            <path class="cls-8"
                  d="M283.37,151.66c.89-.88,3.65-1.26,4.68-.23,2.17,2.17,1.31,6.4-.49,8.2,1.19,1.29,2.57,1.92,3.64.84,1.9-1.89-.23-7.43-1.56-10.35-.26-.54.6-.89.84-.33,1.45,3.14,4.09,9.52,1.45,12.16C286.3,167.58,280,155,283.37,151.66Zm3.7,7.39c1.26-1.26.77-4.56-1.1-6.43a.61.61,0,0,0-1.12.38C284.61,154.63,285.66,157.27,287.07,159.05Z"/>
            <path class="cls-8"
                  d="M229.58,331.13a1.81,1.81,0,0,1,1.39.43c1.43,1.42,1.1,5.2,2.53,6.63.08.08.12.16,0,.24a2,2,0,0,1-2.47.14c-1.45-1.44-.44-4.5-1.67-5.73a1.16,1.16,0,0,0-1.73-.16c-3.9,3.9,3.54,18.17,7.9,13.81a4.33,4.33,0,0,0,1.13-2c0-.14.1-.14.22-.1s.2.16.28.32a2.79,2.79,0,0,1-.86,3.16c-6.82,6.81-16.47-9.63-10.42-15.68A3.31,3.31,0,0,1,229.58,331.13Z"/>
            <path class="cls-8"
                  d="M236.13,332.46c1.25-1.25,3.16-1.43,4.07-.52a10.62,10.62,0,0,1,2.23,3.4,10.79,10.79,0,0,0-.83-5,.4.4,0,0,1,.75-.3,11.27,11.27,0,0,1,.6,6.87c.48,2,.3,3.92-.88,5.11a3.55,3.55,0,0,1-4.81-.18c-2-2-3.58-5.63-2.77-8.2A2.07,2.07,0,0,1,236.13,332.46Zm4.29,8.34a6.85,6.85,0,0,0,.9-1.42,12.56,12.56,0,0,0-3-5.57c-1.33-1.33-2.13-.69-2.07.82.12,2.41,2.41,5.83,4,6.41A.84.84,0,0,1,240.42,340.8Z"/>
            <path class="cls-8"
                  d="M247.93,331.92a1.8,1.8,0,0,0-.1-.18c.63,1.83.93,3.62,0,4.52a2.12,2.12,0,0,1-2.79.06c-.22-.3-.44-.56-.66-.86a34.2,34.2,0,0,1-4.08-7.18.54.54,0,0,1,0-.56,3.6,3.6,0,0,1,1.87-.71c.36,0,.4.45.52.73a48.22,48.22,0,0,0,3.64,6.45c.36.56.76.68,1,.46,1-1-2-6.77-2.65-8-.32-.64-.63-1.27-.87-1.87a.58.58,0,0,1,0-.56,3.74,3.74,0,0,1,1.87-.7c.39-.06.41.44.55.7a46.75,46.75,0,0,0,4,7.09c.24.37.42.19.44-.16,0-2.43-1.45-5.7-2.29-7.59a.4.4,0,0,1,.72-.33c.83,1.87,3.58,8.13,1.85,9.85a1.73,1.73,0,0,1-2.47-.26C248.38,332.48,248.18,332.2,247.93,331.92Z"/>
            <path class="cls-8"
                  d="M247.21,321.38a.5.5,0,0,1,0-.54,3.69,3.69,0,0,1,1.89-.72c.36,0,.4.44.52.72a41.2,41.2,0,0,0,2.21,4.18c-.82-2.27-1.66-5.24-1.5-7a.77.77,0,0,1,.24-.53,3.5,3.5,0,0,1,1.77-.72c.52,0,.56.36.5.75a4.87,4.87,0,0,0,1.23,3.35c.48.52.88.56,1.1.34.85-.84,0-3.25-.22-4.28a.4.4,0,0,1,.78-.18c.29,1.17,1,3.58.39,4.89a2.47,2.47,0,0,1-3.3.8,6.72,6.72,0,0,1-1.61-2.69c-.1-.27-.12-.16-.1,0,.26,2.87,2.23,7.94,3.44,9.34.2.2.1.35,0,.47-.48.48-1.81.72-2.23.3A33.84,33.84,0,0,1,247.21,321.38Z"/>
            <path class="cls-8"
                  d="M257.74,322.87a2.42,2.42,0,0,1,.65-2.13c.38-.5.84-1,1.14-1.43-1.38-1-3.51-.38-5.06-1.93a2.74,2.74,0,0,1,3.56-4.16c.42.43.72,1.61.44,1.89-.44.44-1.37.77-1.57.57a.16.16,0,0,1,0-.12c.34-.35.08-1.17-.3-1.55s-.54-.34-.77-.12c-.5.5.15,1.58.51,1.95,1.06,1.06,2.91.74,4.24,1.22a6.68,6.68,0,0,0-.64-4.94c-.25-.44.46-.79.7-.34a7.27,7.27,0,0,1,.66,5.64c2,1.53,1.17,4.51-.38,6.05C259.59,324.76,258,324.2,257.74,322.87Zm.95-1.22a.86.86,0,1,0,1.49.8,3,3,0,0,0-.08-2.53C259.78,320.44,259,321.06,258.69,321.65Z"/>
            <path class="cls-8"
                  d="M269.42,310.11c.65,1.77.95,3.64,0,4.62s-2.19.66-3.09-.16c-2.27-2.07-4.48-6.21-3.62-9.09.28-1,1.55-1.26,2.39-1.54-2.25-3.5-4-6.84-3.52-7.3s2.3-1.25,2.6-.94a.16.16,0,0,1,0,.16,2.94,2.94,0,0,0,.1.58c.8,2.81,5.12,9.75,7.6,12.94.38.51.56.49.54-.1-.08-2.41-1.45-5.58-2.27-7.41a.4.4,0,0,1,.72-.33c.83,1.87,3.58,8.13,1.85,9.85-1.12,1.13-2.27-.1-3-.94C269.62,310.35,269.54,310.23,269.42,310.11Zm-2,2.17c.63.74,1.21,1,1.51.7s.26-.66.1-1.39a18.1,18.1,0,0,0-1.48-4c-.65-.89-1.29-1.85-1.93-2.82a.72.72,0,0,0-.77.12C263.51,306.25,265.83,310.33,267.41,312.28Z"/>
            <path class="cls-8"
                  d="M270.25,297.66c.76-.76,3.13-1.08,4-.2,1.87,1.87,1.12,5.51-.42,7.06,1,1.1,2.21,1.65,3.13.72,1.63-1.63-.2-6.39-1.35-8.9-.22-.46.53-.77.73-.28,1.25,2.69,3.52,8.18,1.25,10.45C272.76,311.35,267.37,300.54,270.25,297.66Zm3.17,6.36c1.09-1.09.67-3.92-.94-5.53a.53.53,0,0,0-1,.32C271.31,300.22,272.22,302.49,273.42,304Z"/>
            <path class="cls-8"
                  d="M253.7,355.26a1.76,1.76,0,0,1,1.39.42c1.43,1.43,1.11,5.21,2.53,6.63.08.08.12.16,0,.24a2,2,0,0,1-2.47.15c-1.45-1.45-.44-4.51-1.67-5.73a1.15,1.15,0,0,0-1.73-.17c-3.89,3.91,3.54,18.18,7.9,13.81a4.25,4.25,0,0,0,1.13-2c0-.14.1-.14.22-.1s.2.16.28.33a2.77,2.77,0,0,1-.86,3.15c-6.82,6.82-16.47-9.63-10.41-15.68A3.3,3.3,0,0,1,253.7,355.26Z"/>
            <path class="cls-8"
                  d="M265.6,362.49a1.8,1.8,0,0,0-.1-.18c.63,1.83.93,3.62,0,4.52a2.11,2.11,0,0,1-2.79.07c-.22-.31-.44-.57-.66-.87a34.14,34.14,0,0,1-4.08-7.17c-.08-.25-.08-.45,0-.57a3.67,3.67,0,0,1,1.87-.7c.36,0,.4.44.52.72a47.61,47.61,0,0,0,3.64,6.45c.36.57.76.69,1,.47,1-1-2-6.78-2.65-8-.32-.65-.62-1.27-.87-1.87a.6.6,0,0,1,0-.57,3.74,3.74,0,0,1,1.87-.7c.39-.06.41.44.55.7a46.89,46.89,0,0,0,4,7.1c.24.36.42.18.44-.16,0-2.43-1.45-5.71-2.29-7.6a.39.39,0,0,1,.72-.32c.82,1.87,3.58,8.12,1.85,9.85a1.75,1.75,0,0,1-2.47-.26C266.05,363.06,265.85,362.77,265.6,362.49Z"/>
            <path class="cls-8"
                  d="M262.49,345.47a5.22,5.22,0,0,1,1.73-.65c.5-.1.76.17.9.75.24,1,.79,3.68.32,4.18-1.1,1.18-2.65-2.49-2.87-3.24C262.39,346,262.35,345.61,262.49,345.47Zm6.45,13.69a36.42,36.42,0,0,1-4.08-7.18.54.54,0,0,1,0-.56,3.72,3.72,0,0,1,1.87-.71c.38-.06.4.45.54.71a49.05,49.05,0,0,0,4,7.09c.25.37.43.18.43-.14,0-2.45-1.43-5.73-2.28-7.62a.4.4,0,0,1,.73-.32c.82,1.87,3.58,8.12,1.85,9.85a1.72,1.72,0,0,1-2.47-.26C269.38,359.72,269.16,359.46,268.94,359.16Z"/>
            <path class="cls-8"
                  d="M272.38,356.48a2.43,2.43,0,0,1,.64-2.13c.38-.5.85-1,1.15-1.43-1.39-1-3.52-.38-5.07-1.92a3,3,0,0,1,.16-4.27,3,3,0,0,1,3.4.1c.42.43.72,1.61.44,1.89-.44.45-1.36.77-1.56.57a.13.13,0,0,1-.05-.12c.35-.35.09-1.17-.3-1.55s-.54-.34-.76-.12c-.5.5.14,1.58.5,1.95,1.07,1.06,2.92.74,4.24,1.22a6.63,6.63,0,0,0-.64-4.94c-.24-.44.46-.78.7-.34a7.3,7.3,0,0,1,.67,5.65c2,1.52,1.16,4.5-.38,6C274.23,358.37,272.66,357.81,272.38,356.48Zm.94-1.22a.86.86,0,1,0,1.49.8,3,3,0,0,0-.08-2.53C274.41,354.05,273.67,354.67,273.32,355.26Z"/>
            <path class="cls-8"
                  d="M270.85,337.11a5,5,0,0,1,1.73-.65c.5-.1.76.16.9.75.25,1,.79,3.67.33,4.18-1.11,1.18-2.66-2.5-2.88-3.24C270.75,337.61,270.71,337.25,270.85,337.11Zm6.45,13.68a36.57,36.57,0,0,1-4.08-7.17.56.56,0,0,1,0-.57,3.74,3.74,0,0,1,1.87-.7c.38-.06.41.44.55.7a46.89,46.89,0,0,0,4,7.1c.24.36.42.18.42-.14,0-2.45-1.43-5.73-2.27-7.62a.39.39,0,0,1,.72-.32c.82,1.87,3.58,8.12,1.85,9.85a1.73,1.73,0,0,1-2.47-.26C277.75,351.36,277.53,351.1,277.3,350.79Z"/>
            <path class="cls-8"
                  d="M276.6,340.24a.5.5,0,0,1,0-.54,3.71,3.71,0,0,1,1.89-.73c.36,0,.4.45.52.73a43.44,43.44,0,0,0,2.21,4.18c-.82-2.27-1.66-5.25-1.5-7a.75.75,0,0,1,.24-.52c.28-.28,1.71-1,2.09-.6a.64.64,0,0,1,.16.28c.08.24.18.46.28.72a49.82,49.82,0,0,0,3.9,6.72c.24.36.42.26.42-.14,0-2.46-1.42-5.73-2.27-7.62a.39.39,0,0,1,.72-.32c.83,1.87,3.58,8.12,1.85,9.85a1.54,1.54,0,0,1-2.23.1,42.76,42.76,0,0,1-4.42-7.12c.1,2.79,2.21,8.28,3.48,9.75.2.2.1.34,0,.46-.49.48-1.81.73-2.23.3A34,34,0,0,1,276.6,340.24Z"/>
            <path class="cls-8"
                  d="M284.66,331.5c.77-.77,3.14-1.09,4-.2,1.87,1.87,1.13,5.5-.42,7.05,1,1.11,2.21,1.65,3.14.73,1.62-1.63-.21-6.4-1.35-8.91-.22-.46.52-.76.72-.28,1.25,2.69,3.52,8.18,1.25,10.45C287.17,345.19,281.79,334.37,284.66,331.5Zm3.18,6.35c1.08-1.09.66-3.92-.95-5.53-.42-.42-.9-.22-1,.32C285.73,334.05,286.63,336.32,287.84,337.85Z"/>
            <path class="cls-8"
                  d="M546.07,197a2.28,2.28,0,0,1,1.77.54c1.83,1.83,1.42,6.66,3.24,8.48.1.1.15.21,0,.31a2.62,2.62,0,0,1-3.16.18c-1.85-1.85-.56-5.76-2.13-7.32a1.48,1.48,0,0,0-2.21-.21c-5,5,4.52,23.23,10.1,17.65a5.56,5.56,0,0,0,1.43-2.57c0-.18.13-.18.29-.13s.25.21.36.41c.72,1.44-.06,3-1.11,4-8.71,8.71-21-12.31-13.31-20C542.83,196.89,544.58,196.33,546.07,197Z"/>
            <path class="cls-8"
                  d="M554.44,198.69c1.6-1.59,4-1.82,5.19-.67a13.31,13.31,0,0,1,2.85,4.34,13.85,13.85,0,0,0-1.05-6.34.51.51,0,0,1,1-.39,14.36,14.36,0,0,1,.77,8.79c.62,2.52.39,5-1.13,6.52-1.85,1.85-4.8,1.11-6.14-.23-2.54-2.54-4.57-7.19-3.54-10.48A2.65,2.65,0,0,1,554.44,198.69Zm5.47,10.66a8.3,8.3,0,0,0,1.16-1.82,16,16,0,0,0-3.83-7.12c-1.69-1.69-2.72-.87-2.64,1.05.15,3.09,3.08,7.46,5.11,8.2A1.08,1.08,0,0,1,559.91,209.35Z"/>
            <path class="cls-8"
                  d="M556.75,185a6.73,6.73,0,0,1,2.21-.83c.65-.13,1,.21,1.16,1,.31,1.24,1,4.7.41,5.35-1.41,1.51-3.39-3.19-3.67-4.14C556.63,185.67,556.58,185.21,556.75,185ZM565,202.52a45.65,45.65,0,0,1-5.21-9.17c-.11-.31-.11-.57.05-.72a4.75,4.75,0,0,1,2.39-.9c.48-.08.51.56.69.9a62,62,0,0,0,5.16,9.07c.31.46.54.23.54-.18,0-3.14-1.82-7.32-2.9-9.74a.5.5,0,0,1,.92-.41c1.06,2.39,4.58,10.38,2.37,12.59a2.2,2.2,0,0,1-3.16-.34C565.57,203.24,565.28,202.91,565,202.52Z"/>
            <path class="cls-8"
                  d="M570.88,186.57c-.2-.62.7-1,1-.39a8.69,8.69,0,0,1-1.13,7.25,27.2,27.2,0,0,1,8,8.35,6.41,6.41,0,0,1,1,2.87,2,2,0,0,1-.8,1.67c-.61.62-2.08,1.31-2.64.75a26.32,26.32,0,0,1-2-2.34,97.9,97.9,0,0,1-11.79-18.27c-.72-1.54-1.06-2.59-.77-2.87.48-.49,2.9-1.57,3.28-1.18a.22.22,0,0,1,.08.17,5.2,5.2,0,0,0,.1.78c.59,2,2.62,5.75,4.83,9.35A7.36,7.36,0,0,0,570.88,186.57Zm7.22,16.21a23.57,23.57,0,0,0-6.37-7.35c1.77,2.65,3.65,5.29,5.68,7.78.72.88,1.15,1.26,1.26,1.16S578.26,203.08,578.1,202.78Z"/>
            <path class="cls-8"
                  d="M576.07,181.38A.51.51,0,0,1,577,181a8.73,8.73,0,0,1-1.13,7.25,27.31,27.31,0,0,1,8,8.35,6.54,6.54,0,0,1,1,2.87,2,2,0,0,1-.8,1.67c-.61.62-2.08,1.31-2.64.75a25,25,0,0,1-2-2.34,98.16,98.16,0,0,1-11.79-18.26c-.72-1.55-1.06-2.6-.78-2.88.49-.49,2.91-1.57,3.29-1.18a.27.27,0,0,1,.08.18,5.24,5.24,0,0,0,.1.77c.59,2,2.62,5.75,4.83,9.35A7.36,7.36,0,0,0,576.07,181.38Zm7.22,16.21a23.57,23.57,0,0,0-6.37-7.35c1.77,2.65,3.65,5.29,5.68,7.79.72.87,1.15,1.25,1.26,1.15S583.44,197.9,583.29,197.59Z"/>
            <path class="cls-8"
                  d="M583.93,183.59a.93.93,0,0,0-.13-.23c.8,2.33,1.19,4.62,0,5.78a2.7,2.7,0,0,1-3.57.07c-.28-.38-.57-.71-.85-1.1a44.18,44.18,0,0,1-5.21-9.17c-.11-.31-.11-.57,0-.72a4.75,4.75,0,0,1,2.39-.9c.46,0,.51.56.66.92a63.23,63.23,0,0,0,4.65,8.25c.47.72,1,.87,1.26.59,1.24-1.23-2.59-8.66-3.39-10.27-.41-.83-.79-1.62-1.1-2.39a.74.74,0,0,1,0-.72,4.66,4.66,0,0,1,2.39-.9c.49-.08.51.56.69.9a62,62,0,0,0,5.16,9.07c.31.46.54.23.57-.21,0-3.11-1.85-7.3-2.93-9.71a.51.51,0,0,1,.93-.41c1,2.39,4.57,10.38,2.36,12.59a2.23,2.23,0,0,1-3.16-.34C584.5,184.31,584.24,184,583.93,183.59Z"/>
            <path class="cls-8"
                  d="M583,170.13a.66.66,0,0,1,0-.7,4.77,4.77,0,0,1,2.42-.92c.46,0,.51.56.66.92a51.3,51.3,0,0,0,2.83,5.35c-1.05-2.9-2.13-6.71-1.93-9a1,1,0,0,1,.31-.67,4.5,4.5,0,0,1,2.26-.92c.67,0,.72.46.65.95a6.24,6.24,0,0,0,1.56,4.29c.62.67,1.13.72,1.41.44,1.08-1.08.06-4.16-.28-5.48a.51.51,0,0,1,1-.23c.36,1.49,1.29,4.58.49,6.25-.54,1.2-2.95,2-4.21,1a8.54,8.54,0,0,1-2.06-3.44c-.12-.33-.15-.2-.13,0,.34,3.67,2.86,10.14,4.4,11.94a.36.36,0,0,1,0,.59c-.61.62-2.31.93-2.85.39A43.25,43.25,0,0,1,583,170.13Z"/>
            <path class="cls-8"
                  d="M593.13,159.13c1-1,4-1.38,5.13-.25,2.39,2.39,1.44,7-.53,9,1.31,1.42,2.82,2.11,4,.93,2.08-2.08-.25-8.17-1.72-11.38-.28-.59.67-1,.93-.36,1.59,3.44,4.49,10.45,1.59,13.36C596.34,176.63,589.45,162.81,593.13,159.13Zm4.06,8.12c1.38-1.39.84-5-1.21-7.06a.68.68,0,0,0-1.24.41C594.49,162.4,595.64,165.3,597.19,167.25Z"/>
            <path class="cls-8"
                  d="M571.68,457.46c.53-.4,2.82-1.07,3.12-.67a.23.23,0,0,1,.05.17,2,2,0,0,0,0,.69c.35,2.53,2.59,7.92,4.72,12.23a85.81,85.81,0,0,1-2.73-8.7,19,19,0,0,1-.66-5.77,3.67,3.67,0,0,1,1.35-2.61c3.93-3,7.91,5.31,6.14,10.31a4.44,4.44,0,0,1,2.58.7c3,2.08,4.68,8.25.65,11.33a3.26,3.26,0,0,1-2.7.69c-.74-.15-1.21-1.21-.55-1.05a1.89,1.89,0,0,0,1.69-.36c3-2.29-.66-11-2.76-9.35a3.23,3.23,0,0,1-1.49,1c-.41.07-1.06-.23-1.12-.48s.42-1,.87-1.37c1.57-3.63-.92-11.05-3.06-9.41-.79.6-.76,2.88,0,6.12a93.45,93.45,0,0,0,5.06,14.36.55.55,0,0,1-.24.72c-.64.49-2.19.75-2.63.17C576.63,471.74,570.57,458.31,571.68,457.46Z"/>
            <path class="cls-8"
                  d="M594.66,462.41a.48.48,0,0,0-.11-.21c.46,2.2.51,4.34-.68,5.24a2.09,2.09,0,0,1-3-.3c-2.54-2.61-4.55-8.3-3-11.7.45-1.1,1.88-1.19,3.2-1.44a2.06,2.06,0,0,0-.13-.45c-.06-.29,0-.52.13-.64a4.22,4.22,0,0,1,2.27-.53c.45,0,.4.57.5.92a57.26,57.26,0,0,0,3.71,8.74c.23.45.46.27.51-.1.38-2.84-.87-6.77-1.56-9.09a.46.46,0,0,1,.89-.26c.66,2.29,3,9.87.73,11.6a2,2,0,0,1-2.82-.68C595.09,463.13,594.87,462.79,594.66,462.41Zm-3-6.54a8.06,8.06,0,0,1-.26-.89.89.89,0,0,0-.89.14c-1.82,1.4.25,7,1.83,9.39.19.31.87,1.3,1.29,1C594.86,464.52,592.18,457.41,591.62,455.87Z"/>
            <path class="cls-8"
                  d="M591.67,442.16c.53-.4,2.82-1.07,3.12-.67a.28.28,0,0,1,.05.17,2,2,0,0,0,0,.69c.28,2.12,2,6.32,3.74,10.14a22.11,22.11,0,0,1-.48-3.36,3.33,3.33,0,0,1,.75-2.79c1.11-.85,3.29-.18,4,.69a13.12,13.12,0,0,1,2.19,5.81,11.7,11.7,0,0,0,0-6.54.47.47,0,0,1,.91-.23,13,13,0,0,1-.69,8.88c0,2.21-.4,4.12-1.35,4.84a2.12,2.12,0,0,1-1.24.24c.12.16.4.41,0,.69-.64.49-2.19.75-2.63.17C596.62,456.44,590.56,443,591.67,442.16Zm7.91,10.55a19.48,19.48,0,0,0,2,5.79,10.57,10.57,0,0,0,1.44-1.68,16.6,16.6,0,0,0-2.73-8c-.6-.84-1.26-.71-1.21.34A28.1,28.1,0,0,0,599.58,452.71Z"/>
            <path class="cls-8"
                  d="M608.82,439.32a4.41,4.41,0,0,1,2.3-.54c.25,0,.36.26.4.52a6.9,6.9,0,0,0,.24.86c.86,2.27,1.85,4.61,2.73,6.53l.13.27a16.92,16.92,0,0,0-.35-7.72.44.44,0,0,1,.85-.26,18.19,18.19,0,0,1,.14,9.42,50.56,50.56,0,0,1,2.42,6.17c.73,2.2.77,4.06-1.31,5.65a2.63,2.63,0,0,1-2.34.45c-1.57-.47-2.27-2.32-2.19-3.84.13-1.86,1.09-3.72,1.62-5.38-.4-.91-.83-1.79-1.25-2.72.46,2.19.52,4.28-.67,5.19a2.46,2.46,0,0,1-3.24-.36c-.21-.38-.4-.74-.64-1.1a42.15,42.15,0,0,1-3.62-8.94.66.66,0,0,1,.14-.64,4.22,4.22,0,0,1,2.27-.53c.45,0,.4.57.52.9a57.2,57.2,0,0,0,3.19,8.05c.33.7.78.91,1.1.66,1.13-.86-.79-6.76-1.57-9.09-.07-.15-.12-.32-.19-.47a15.91,15.91,0,0,1-.79-2.45A.59.59,0,0,1,608.82,439.32Zm6.63,17.46c-.39-1.16-.9-2.53-1.46-4-.56,1.73-1.77,4.41-.37,6a1.18,1.18,0,0,0,1.56.35C615.63,458.82,615.83,458,615.45,456.78Z"/>
            <path class="cls-8"
                  d="M616.43,446.54a2.85,2.85,0,0,1,1.07-2.37c.52-.52,1.13-1,1.55-1.48-1.45-1.4-4-1-5.57-3a3.47,3.47,0,0,1,.85-4.91,3.42,3.42,0,0,1,3.91.64c.43.55.59,2,.22,2.26-.58.44-1.7.67-1.9.41a.21.21,0,0,1,0-.15c.45-.34.28-1.34-.11-1.84-.24-.31-.57-.48-.86-.26-.66.51-.08,1.87.28,2.34,1.07,1.4,3.26,1.31,4.72,2.07a7.76,7.76,0,0,0,0-5.82c-.21-.55.65-.84.86-.29a8.5,8.5,0,0,1-.1,6.64c2.1,2.08.66,5.4-1.37,7C618.28,449,616.55,448.12,616.43,446.54Zm1.28-1.28a1,1,0,1,0,1.6,1.16,3.51,3.51,0,0,0,.3-2.94C619.16,444,618.2,444.64,617.71,445.26Z"/>
            <path class="cls-8"
                  d="M624.45,422.76c.1.3.2.64.32,1a6.19,6.19,0,0,1,2.25-1.21c.23,0,.91.59,1.11.86a.55.55,0,0,1,.15.35l-.08.06a11.56,11.56,0,0,0-2.8,1.64,97,97,0,0,0,5.07,11c.41.65.6.67.67-.05a29.31,29.31,0,0,0-1.06-9.26.45.45,0,1,1,.86-.25c.66,2.3,2.38,10.39.22,12-1.47,1.13-2.63-.49-3.34-1.58-.22-.33-.43-.67-.66-1.08.43,2.64.55,5.31-.69,6.26a2,2,0,0,1-2.82-.69c-.21-.38-.43-.72-.64-1.1a40.47,40.47,0,0,1-3.61-9,.59.59,0,0,1,.1-.63,4.78,4.78,0,0,1,2.28-.57c.45,0,.39.62.5.92a57.14,57.14,0,0,0,3.62,8.89c.23.45.46.27.52-.15a19.14,19.14,0,0,0-.8-6.78c-1-1.91-1.92-4-2.77-5.91-.19.18-.38.33-.56.47-1.11.84-2.61,1.45-3.64.11a7.44,7.44,0,0,1-1.09-3c-.12-.7-.11-1.12.05-1.25a6.24,6.24,0,0,1,2.12-.49c.6,0,.84.32.93,1a24.64,24.64,0,0,1,.14,3.12c.48-.46,1-.92,1.41-1.38a24.2,24.2,0,0,1-.93-2.47c-.2-.8-.22-1.38,0-1.56.53-.4,2.66-.95,3-.55a.23.23,0,0,1,0,.17.49.49,0,0,0,0,.21A1.84,1.84,0,0,0,624.45,422.76Z"/>
            <path class="cls-8"
                  d="M629.58,418.87c.1.34.22.67.35,1a5.57,5.57,0,0,1,2.22-1.2c.22,0,.92.55,1.12.82s.16.25.12.37l-.08.06a10.33,10.33,0,0,0-2.76,1.64,96.54,96.54,0,0,0,5.06,11c.39.62.58.64.64,0a28.86,28.86,0,0,0-1.06-9.26.46.46,0,0,1,.88-.27c.67,2.3,2.34,10.38.21,12-1.48,1.13-2.62-.47-3.32-1.56a77.63,77.63,0,0,1-5-9.8l-.58.45c-.5.38-1.64,1.29-2.44.78-.24-.15-.27-.29,0-.49a27.63,27.63,0,0,0,2.4-2.17,20.69,20.69,0,0,1-.93-2.47c-.22-.84-.22-1.38,0-1.56.52-.41,2.64-1,3-.56,0,.06,0,.1,0,.2a.86.86,0,0,1,0,.16A2.19,2.19,0,0,0,629.58,418.87Z"/>
            <path class="cls-8"
                  d="M632.25,412.69a6,6,0,0,1,2.11-.48c.59,0,.85.3.93,1,.13,1.15.34,4.38-.27,4.89-1.47,1.2-2.69-3.3-2.83-4.19C632.06,413.25,632.07,412.83,632.25,412.69Zm5.37,16.84a42.15,42.15,0,0,1-3.62-8.94.63.63,0,0,1,.13-.65,4.34,4.34,0,0,1,2.28-.52c.45,0,.39.57.52.9a55.07,55.07,0,0,0,3.58,8.83c.23.46.46.28.51-.09.38-2.84-.77-6.86-1.46-9.18a.46.46,0,0,1,.89-.26c.67,2.3,2.89,10,.63,11.69a2,2,0,0,1-2.83-.68C638.05,430.25,637.83,429.91,637.62,429.53Z"/>
            <path class="cls-8"
                  d="M638.43,417.2a.59.59,0,0,1,.11-.63,4.27,4.27,0,0,1,2.29-.54c.43,0,.4.57.5.92a46.37,46.37,0,0,0,1.92,5.18c-.61-2.76-1.13-6.34-.67-8.36a.86.86,0,0,1,.36-.57c.37-.28,2.13-.87,2.51-.37a.75.75,0,0,1,.15.35c0,.29.13.56.21.88a58.92,58.92,0,0,0,3.48,8.37c.23.46.45.37.51-.1.38-2.83-.77-6.85-1.46-9.17a.46.46,0,0,1,.89-.26c.67,2.29,2.9,10,.63,11.69a1.8,1.8,0,0,1-2.6-.22,49.67,49.67,0,0,1-4-8.92c-.31,3.25,1.29,9.93,2.53,11.82.2.26.06.41-.09.53-.64.49-2.21.56-2.63,0A39.22,39.22,0,0,1,638.43,417.2Z"/>
            <path class="cls-8"
                  d="M654.45,421.08a2.13,2.13,0,0,1-3-.28c-2.52-2.63-4.53-8.33-3-11.72a2,2,0,0,1,1.4-1.07,16.86,16.86,0,0,1,1.8-.38,3.35,3.35,0,0,1-.13-.44.59.59,0,0,1,.11-.63,4.39,4.39,0,0,1,2.29-.54c.29,0,.37.26.41.52a3.55,3.55,0,0,0,.26.84c.84,2.29,1.83,4.63,2.71,6.55l.13.27a16.64,16.64,0,0,0-.35-7.72c-.18-.57.71-.83.84-.26a18.09,18.09,0,0,1,.15,9.42,56.64,56.64,0,0,1,2.45,6.15c.7,2.22.74,4.08-1.32,5.65a2.67,2.67,0,0,1-2.36.47,3.6,3.6,0,0,1-2.16-3.86c.1-1.84,1.06-3.7,1.59-5.36-.36-.9-.73-1.83-1.11-2.75C655.6,418.11,655.61,420.19,654.45,421.08Zm-1.58-2.93c.2.31.87,1.3,1.29,1,1.27-1-1.44-8.05-2-9.61-.11-.3-.21-.6-.29-.87a1,1,0,0,0-.9.14C649.22,410.15,651.29,415.76,652.87,418.15Zm5.38,5.87c-.39-1.16-.9-2.53-1.46-4-.56,1.73-1.75,4.39-.38,6a1.17,1.17,0,0,0,1.57.35C658.43,426.06,658.66,425.21,658.25,424Z"/>
            <polygon class="cls-2" points="622.84 366.25 530.87 363.25 530.87 276.28 622.84 275.28 622.84 366.25"/>
            <path class="cls-8"
                  d="M542.45,296.42c-.28.12-.57,0-.57-.28a1.9,1.9,0,0,1,.64-1.44c2.65-2.29,5.83-6,5.79-9.11a1.14,1.14,0,0,0-1.13-1.27c-1.1,0-2,1.67-2,2.63,0,.1-.08.12-.14.13-.35,0-1.19-.36-1.19-.83,0-1.59,2-3.21,3.7-3.22a2.61,2.61,0,0,1,2.85,2.6c0,3.21-2.9,6.67-5.88,8.93a14,14,0,0,1,4.13-.08c.51.07.62.89.62,1.38,0,.08,0,.37-.14.37h-.06a9.39,9.39,0,0,0-1.31-.19A12.86,12.86,0,0,0,542.45,296.42Z"/>
            <path class="cls-8"
                  d="M555.28,282.89a3.55,3.55,0,0,1,3.5,2.46c1.11,3.66-.92,10.88-5.09,10.92-5.29.05-3.71-9.69-.32-12.57A3.06,3.06,0,0,1,555.28,282.89Zm1.8,2.66c-.2-1.84-1.49-2-2.56-.71-2.22,2.7-3.31,10.39-.82,10.37C555.77,295.19,557.42,288.67,557.08,285.55Z"/>
            <path class="cls-8"
                  d="M561.71,286.36a.7.7,0,0,1-.32.17c-.37,0-1.32-1.11-1.18-1.44,0,0,0-.06.06-.08a9,9,0,0,0,2.67-2.09c.54,0,1.95.33,1.95.82a.15.15,0,0,1,0,.1,1.87,1.87,0,0,0-.26.35c-1.18,2.18-2.7,9.71-2.68,11.67a.22.22,0,0,1-.25.25c-.51,0-1.35-.44-1.35-.89A42.36,42.36,0,0,1,561.71,286.36Z"/>
            <path class="cls-8"
                  d="M566.09,290.73c-2.82-1.36-1.33-8,2.8-8,4.56-.05,2.48,7.27,1.74,9.3s-1.81,4.2-4.16,4.23a2.82,2.82,0,0,1-2.72-3.94c.08-.27.18-.43.28-.43.41,0,1.7.14,1.77.45,0,0,0,.06,0,.1a3.1,3.1,0,0,0-.26.76c-.08.43,0,1.88.79,1.87,1.37,0,2.31-3.78,2.57-4.66A2.69,2.69,0,0,1,566.09,290.73Zm1.26-.73a2.3,2.3,0,0,0,1.6-.93c1.15-1.77,1.24-5.34,0-5.37C567.29,283.77,565.71,290,567.35,290Z"/>
            <path class="cls-8"
                  d="M572.41,289.73a5,5,0,0,1-.19-.9c0-.2.08-.2.18-.16a2.92,2.92,0,0,0,1,.05c1.25-.07,2.64-.19,3.84-.16.41,0,.77.75.71,1.24,0,.18-.1.23-.26.21a42.23,42.23,0,0,0-4.5.2A.62.62,0,0,1,572.41,289.73Z"/>
            <path class="cls-8"
                  d="M578,296.07c-.28.13-.57.05-.57-.28a1.88,1.88,0,0,1,.64-1.43c2.65-2.3,5.82-6,5.79-9.11a1.15,1.15,0,0,0-1.13-1.28c-1.11,0-2,1.68-2,2.64,0,.1-.08.12-.14.12-.35,0-1.19-.36-1.2-.83,0-1.59,2.06-3.2,3.71-3.22a2.61,2.61,0,0,1,2.85,2.61c0,3.21-2.9,6.67-5.88,8.92a14.37,14.37,0,0,1,4.13-.08c.51.08.62.9.62,1.39,0,.08,0,.36-.14.36h-.06a9.4,9.4,0,0,0-1.31-.2A13,13,0,0,0,578,296.07Z"/>
            <path class="cls-8"
                  d="M590.78,282.54a3.56,3.56,0,0,1,3.49,2.46c1.12,3.67-.91,10.88-5.08,10.92-5.29.05-3.71-9.69-.33-12.56A3.07,3.07,0,0,1,590.78,282.54Zm1.8,2.66c-.2-1.83-1.49-2-2.56-.71-2.22,2.7-3.31,10.39-.82,10.37C591.26,294.84,592.92,288.33,592.58,285.2Z"/>
            <path class="cls-8"
                  d="M594.12,295.92c-.29.12-.57,0-.58-.29a2,2,0,0,1,.64-1.43c2.66-2.3,5.83-6,5.8-9.11a1.17,1.17,0,0,0-1.14-1.28c-1.1,0-2,1.68-2,2.64,0,.1-.07.12-.14.12-.34,0-1.19-.35-1.19-.82,0-1.6,2-3.21,3.71-3.23a2.62,2.62,0,0,1,2.84,2.61c0,3.21-2.89,6.67-5.88,8.93a14,14,0,0,1,4.13-.09c.51.08.62.9.63,1.39,0,.08,0,.37-.14.37h-.06a8.11,8.11,0,0,0-1.31-.19A12.85,12.85,0,0,0,594.12,295.92Z"/>
            <path class="cls-8"
                  d="M606.94,282.39a3.54,3.54,0,0,1,3.5,2.45c1.12,3.67-.92,10.88-5.08,10.92-5.3.06-3.71-9.68-.33-12.56A3.05,3.05,0,0,1,606.94,282.39Zm1.81,2.66c-.21-1.84-1.49-2-2.57-.72-2.22,2.7-3.31,10.4-.81,10.37C607.43,294.68,609.08,288.17,608.75,285.05Z"/>
            <path class="cls-2" d="M538.41,280.4c-1.19,0-2.15-2.14-2.15-4.77s1-4.77,2.15-4.77,2.15,2.13,2.15,4.77"/>
            <path class="cls-2" d="M565.55,280.4c-1.18,0-2.15-2.14-2.15-4.77s1-4.77,2.15-4.77,2.15,2.13,2.15,4.77"/>
            <path class="cls-2" d="M590.53,279.4c-1.19,0-2.15-2.14-2.15-4.77s1-4.77,2.15-4.77,2.15,2.13,2.15,4.77"/>
            <path class="cls-2" d="M615.12,279.77c-1.19,0-2.15-2.13-2.15-4.77s1-4.77,2.15-4.77,2.15,2.14,2.15,4.77"/>
            <rect class="cls-6" height="6.83" transform="translate(3.66 -6.55) rotate(0.68)" width="6.83" x="550.62"
                  y="302.16"/>
            <rect class="cls-6" height="6.83" transform="translate(3.66 -6.66) rotate(0.68)" width="6.83" x="560.47"
                  y="302.27"/>
            <rect class="cls-6" height="6.83" transform="translate(3.67 -6.78) rotate(0.68)" width="6.83" x="570.31"
                  y="302.39"/>
            <rect class="cls-6" height="6.83" transform="translate(3.67 -6.9) rotate(0.68)" width="6.83" x="580.12"
                  y="302.51"/>
            <rect class="cls-6" height="6.83" transform="translate(3.67 -7.01) rotate(0.68)" width="6.83" x="589.96"
                  y="302.62"/>
            <rect class="cls-6" height="6.83" transform="translate(3.67 -7.13) rotate(0.68)" width="6.83" x="599.81"
                  y="302.74"/>
            <rect class="cls-6" height="6.83" transform="translate(3.79 -6.55) rotate(0.68)" width="6.83" x="550.49"
                  y="313.03"/>
            <rect class="cls-6" height="6.83" transform="translate(3.79 -6.66) rotate(0.68)" width="6.83" x="560.34"
                  y="313.15"/>
            <rect class="cls-6" height="6.83" transform="translate(3.8 -6.78) rotate(0.68)" width="6.83" x="570.18"
                  y="313.27"/>
            <rect class="cls-6" height="6.83" transform="translate(3.8 -6.9) rotate(0.68)" width="6.83" x="579.99"
                  y="313.38"/>
            <rect class="cls-6" height="6.83" transform="translate(3.8 -7.01) rotate(0.68)" width="6.83" x="589.83"
                  y="313.5"/>
            <rect class="cls-6" height="6.83" transform="translate(3.8 -7.13) rotate(0.68)" width="6.83" x="599.68"
                  y="313.62"/>
            <rect class="cls-6" height="6.83" transform="translate(3.79 -6.43) rotate(0.68)" width="6.83" x="540.55"
                  y="312.91"/>
            <rect class="cls-6" height="6.83" transform="translate(3.92 -6.54) rotate(0.68)" width="6.83" x="550.37"
                  y="323.78"/>
            <rect class="cls-6" height="6.83" transform="translate(3.92 -6.66) rotate(0.68)" width="6.83" x="560.21"
                  y="323.89"/>
            <rect class="cls-6" height="6.83" transform="translate(3.92 -6.78) rotate(0.68)" width="6.83" x="570.06"
                  y="324.01"/>
            <rect class="cls-6" height="6.83" transform="translate(3.92 -6.89) rotate(0.68)" width="6.83" x="579.86"
                  y="324.13"/>
            <rect class="cls-6" height="6.83" transform="translate(3.93 -7.01) rotate(0.68)" width="6.83" x="589.71"
                  y="324.24"/>
            <rect class="cls-6" height="6.83" transform="translate(3.93 -7.13) rotate(0.68)" width="6.83" x="599.55"
                  y="324.36"/>
            <rect class="cls-6" height="6.83" transform="translate(3.92 -6.43) rotate(0.68)" width="6.83" x="540.43"
                  y="323.66"/>
            <rect class="cls-6" height="6.83" transform="translate(4.04 -6.54) rotate(0.68)" width="6.83" x="549.98"
                  y="334.15"/>
            <rect class="cls-6" height="6.83" transform="translate(4.04 -6.65) rotate(0.68)" width="6.83" x="559.83"
                  y="334.27"/>
            <rect class="cls-6" height="6.83" transform="translate(4.05 -6.77) rotate(0.68)" width="6.83" x="569.67"
                  y="334.38"/>
            <rect class="cls-6" height="6.83" transform="translate(4.05 -6.89) rotate(0.68)" width="6.83" x="579.48"
                  y="334.5"/>
            <rect class="cls-6" height="6.83" transform="translate(4.05 -7) rotate(0.68)" width="6.83" x="589.32"
                  y="334.62"/>
            <rect class="cls-6" height="6.83" transform="translate(4.05 -7.12) rotate(0.68)" width="6.83" x="599.17"
                  y="334.73"/>
            <rect class="cls-6" height="6.83" transform="translate(4.04 -6.42) rotate(0.68)" width="6.83" x="540.04"
                  y="334.03"/>
            <rect class="cls-6" height="6.83" transform="translate(4.17 -6.54) rotate(0.68)" width="6.83" x="549.85"
                  y="344.89"/>
            <rect class="cls-6" height="6.83" transform="translate(4.17 -6.65) rotate(0.68)" width="6.83" x="559.7"
                  y="345.01"/>
            <rect class="cls-6" height="6.83" transform="translate(4.17 -6.77) rotate(0.68)" width="6.83" x="569.54"
                  y="345.13"/>
            <rect class="cls-6" height="6.83" transform="translate(4.17 -6.42) rotate(0.68)" width="6.83" x="539.91"
                  y="344.78"/>
            <path class="cls-8"
                  d="M396.28,456.14c4.74,5.18,11,7.43,17.47,9.38,6.87,2.06,13.67,4.33,20.42,6.73,2.64.94,4.18.35,5.11-2.16,2.49-6.7,5.39-13.29,7.36-20.15,3-10.46,5.66-21.08,4.9-32.14-.68-9.83-1.82-19.55-8.18-27.75-1-1.26-1.37-3-2.29-5,1.08.26,1.51.23,1.69.43,5.4,5.81,9.5,12.32,10.93,20.28a84,84,0,0,1-.12,32.72C452,446,449.35,453.29,447,460.61c-1.36,4.16-1.58,4.42,2.34,6.22,4.11,1.89,8.42,3.35,12.59,5.12s8.22,3.94,9.48,9c.76,3.05.09,4.86-2.7,6.31-4.77,2.48-9.76,1.95-14.6.52a8.57,8.57,0,0,0-7.58,1.09,18.22,18.22,0,0,1-8.5,2.23,131,131,0,0,1-34-3.46c-10.47-2.52-20.87-5.37-31.38-7.74-6.85-1.55-13.89-2.28-20.75-3.8-6.07-1.34-12.06-3.12-18-5-4.09-1.29-8.32-2.56-12-4.74a32.87,32.87,0,0,1-9.42-8.33c-1.66-2.25-2.09-5.81-2.07-8.78,0-3.72,2.77-5.85,6.19-7.1,8.08-3,16.21-2.37,24.39-.52a41.82,41.82,0,0,0,4.8.91c2.21.24,3.44-.78,3.45-3.11,0-2.54.13-5.07.13-7.61,0-21.4,6.38-41,16.38-59.72,6.12-11.44,13.27-22,23.06-30.67,2-1.79,4.36-3.24,6.56-4.84,1.15-.83,2.32-1.65,3.31-2.35-1.55-2.87-3.35-5.35-4.29-8.12-1.84-5.41-1.49-10.68,3.33-14.6,1.47-1.19,3.57-1.58,5.33-2.44,1-.5,2.4-1,2.91-1.87,3.24-5.66,8.58-8.21,14.42-9.92,8.44-2.46,16-.16,23.36,4.18,3.63,2.15,7.8,3.38,11.54,5.37,2.25,1.21,4.11,3.12,6.19,4.65a4.15,4.15,0,0,0,2.08,1.06c4.59.12,7.34,1.93,8.5,5.83a9.21,9.21,0,0,1-3.9,10.24c-1.55.91-1.86,1.93-2.16,3.58-.7,3.81-1.92,7.53-2.87,11.3-.54,2.09-2.32,2.06-3.71,1.82s-3.44,1-4.21-1.74c-.4-1.38-2-2.42-3.18-3.56a7,7,0,0,1-1.95-2.52c.61,0,1.22,0,1.82,0a34.43,34.43,0,0,0,5.6.48c5-.4,6.58-2.17,7.3-7.54a2.82,2.82,0,0,0-.89-.38c-3.43-.16-6.18-1.35-7.48-4.83a9.48,9.48,0,0,1,2-10.12c2.16-2.49,2.31-3-.28-5.13a27.88,27.88,0,0,0-5.67-3.08c-3.65-1.77-7.44-3.29-11-5.25-5.88-3.27-12-3.57-18.44-2.36-7,1.31-11.1,6.14-14.73,11.55a3.5,3.5,0,0,1-3.26,1.8c-6.14.16-9.87,4.66-8.79,10.72.58,3.24,1.65,6.26,4.5,8.42,1.94,1.47,1.82,3.06,0,4-10.43,5.48-18.28,13.64-24.18,23.68-3.9,6.65-7.78,13.35-11,20.33a131.72,131.72,0,0,0-9.38,31.2,87.19,87.19,0,0,0-.82,28.45,114.49,114.49,0,0,0,5.09,20A68.93,68.93,0,0,0,367.1,473c1,1.74,3.41,3,5.44,3.79a111.17,111.17,0,0,0,27.72,7.69q15.64,2,31.35,3.58a49.16,49.16,0,0,0,9.76-.37c2.92-.29,4.35-1.94,4.49-4.56a5.17,5.17,0,0,0-3.93-5.7c-12.4-4.07-24.81-8.13-37.19-12.3a17.63,17.63,0,0,1-6-3c-1.51-1.33-2.27-3.52-3.36-5.32Zm65.23,30.57a25.32,25.32,0,0,0,3.26-.51c4.18-1.21,5-4.29,1.82-7.22a18.58,18.58,0,0,0-5.63-3.66c-4.88-1.93-9.95-3.37-14.84-5.26-2.32-.9-3,.25-3.87,1.94-1,2,0,2.73,1.6,3.48,2.68,1.23,5.38,2.75,5.87,5.93.55,3.6,3,4.36,5.88,4.71C457.49,486.35,459.39,486.5,461.51,486.71Zm2.38-172.86c-.25,2.9.81,4.13,2.86,4.4a2.34,2.34,0,0,0,2-.72,2.15,2.15,0,0,0-.64-2A25.82,25.82,0,0,0,463.89,313.85Zm-2.66,25.3a.24.24,0,0,0-.23-.36c-.81,0-2.42.43-3,.43-1.15.07-.62,1.71-.79,3.81-.06.66,1.07.38,2.13.37h0C460.16,342.55,460.53,340.27,461.23,339.15Zm2.29-.33-1.09-.42-1.67,4.46,1,.4Z"/>
            <path class="cls-8"
                  d="M404.53,354.36c-.61,1.23-1.16,2.49-1.82,3.68A63,63,0,0,0,395,395.23c.93,9.89,3.68,19.19,9.9,27.21a42,42,0,0,0,11.87,10.19c.74.44,1.08,1.53,1.61,2.31-1.08,0-2.46.52-3.18,0-9-6.12-16.65-13.44-19.62-24.44-.75-2.8-1.37-5.64-2-8.47-2.63-12.33-.89-24.39,2.93-36.11,1.41-4.35,4.42-8.17,6.69-12.23Z"/>
            <path class="cls-8"
                  d="M443,373.45c3.3-.31,6.63-.45,9.89-1a56.7,56.7,0,0,0,36-20.6c3.6-4.37,6.44-9.36,9.7-14a9.92,9.92,0,0,1,2.05-1.66c.1,1,.58,2.16.22,3a54,54,0,0,1-11.68,16.89A70.64,70.64,0,0,1,453,374.83a33.52,33.52,0,0,1-6.49.53,16,16,0,0,1-3.68-.91Z"/>
            <path class="cls-8"
                  d="M510.22,347.64c.18,8.43-35.8,49.48-47.32,54,18.63-15.06,33.69-33.18,46.12-53.55C509.16,347.85,509.65,347.84,510.22,347.64Z"/>
            <path class="cls-8"
                  d="M435.68,374.21c-.34-2.09-1.21-4.24-.93-6.24,1.07-7.66,4.08-14.33,11.55-17.81a92.68,92.68,0,0,1,10.44-3.65c.34-.11.85.32,1.29.5-.25.52-.38,1.34-.78,1.51a63,63,0,0,1-6.61,2.42c-7.42,2.14-13.51,9.25-14.1,16.84a49,49,0,0,0,.28,6.28Z"/>
            <path class="cls-8"
                  d="M404.36,316.13c1,2.2,2,4.2,2.84,6.27a2.28,2.28,0,0,1-.33,1.71,52.63,52.63,0,0,1-3.66,5.43,2.39,2.39,0,0,1-2.14-.07C399.77,326.62,400.75,318.17,404.36,316.13Z"/>
            <path class="cls-8" d="M428.64,435.69c-6.92-.07-11.42-4.29-9.78-8.83Z"/>
            <path class="cls-8"
                  d="M432.88,433.12c-3.9,1.27-8.32-1.24-8.69-4.06-.15-1.14.15-2.74,1.55-1.86C428.16,428.71,430.2,430.83,432.88,433.12Z"/>
            <path class="cls-8" d="M436.37,431.47c-3.79,0-5.91-1.49-7.29-5C431,425.61,433.35,427.17,436.37,431.47Z"/>
            <path class="cls-8" d="M501.33,341.29l6.27-8.77C507.64,336.37,504.24,341.18,501.33,341.29Z"/>
            <path class="cls-8"
                  d="M504.32,346.84c.35-3.35,2.94-4.95,4.47-7.62C509.78,342.2,507.6,345.78,504.32,346.84Z"/>
            <path class="cls-9"
                  d="M461.51,486.71c-2.12-.21-4-.36-5.91-.59-2.91-.35-5.33-1.11-5.88-4.71-.49-3.18-3.19-4.7-5.87-5.93-1.61-.75-2.62-1.49-1.6-3.48.87-1.69,1.55-2.84,3.87-1.94,4.89,1.89,10,3.33,14.84,5.26a18.58,18.58,0,0,1,5.63,3.66c3.2,2.93,2.36,6-1.82,7.22A25.32,25.32,0,0,1,461.51,486.71Z"/>
            <path class="cls-9"
                  d="M463.89,313.85a25.82,25.82,0,0,1,4.21,1.66,2.15,2.15,0,0,1,.64,2,2.34,2.34,0,0,1-2,.72C464.7,318,463.64,316.75,463.89,313.85Z"/>
            <path class="cls-9" d="M463.52,338.82l-1.74,4.44-1-.4,1.67-4.46Z"/>
            <path class="cls-8"
                  d="M441,318.46c-4.72-.61-8.73,0-11,5.24a7.45,7.45,0,0,1,6.27-7.52C438,316,440.06,315.41,441,318.46Z"/>
            <polygon class="cls-3" points="382.12 240.04 456.34 237.62 456.17 141.99 382.33 148.54 382.12 240.04"/>
            <polyline class="cls-3" points="382.12 240.04 387.36 241.02 461.69 239.74 461.52 146.84 456.17 141.99"/>
            <line class="cls-3" x1="456.34" x2="461.69" y1="237.62" y2="239.74"/>
            <path class="cls-8"
                  d="M393.27,203.77a1.94,1.94,0,0,1,1.55.47c1.58,1.58,1.22,5.78,2.81,7.37.09.09.13.18,0,.27a2.26,2.26,0,0,1-2.74.15c-1.61-1.61-.49-5-1.86-6.36a1.27,1.27,0,0,0-1.92-.18c-4.33,4.33,3.93,20.19,8.78,15.34a4.86,4.86,0,0,0,1.25-2.23c0-.16.11-.16.25-.11s.22.18.31.36a3.07,3.07,0,0,1-1,3.5c-7.57,7.57-18.29-10.7-11.57-17.42C390.46,203.68,392,203.19,393.27,203.77Z"/>
            <path class="cls-8"
                  d="M400.55,205.24c1.39-1.38,3.51-1.58,4.52-.58a11.82,11.82,0,0,1,2.48,3.78,12.06,12.06,0,0,0-.92-5.52.45.45,0,0,1,.83-.33,12.51,12.51,0,0,1,.67,7.63c.53,2.19.33,4.36-1,5.68-1.6,1.61-4.17,1-5.33-.2-2.22-2.22-4-6.26-3.09-9.12A2.37,2.37,0,0,1,400.55,205.24Zm4.76,9.27a7.74,7.74,0,0,0,1-1.58,14,14,0,0,0-3.33-6.19c-1.47-1.47-2.37-.76-2.3.92.13,2.68,2.68,6.47,4.44,7.12A1.06,1.06,0,0,1,405.31,214.51Z"/>
            <path class="cls-8"
                  d="M413.6,204.71c0-.07-.07-.11-.14-.18.72,2,1,4,0,5a2,2,0,0,1-2.86.09c-2.73-2.14-5.34-7.26-4.31-10.65.29-1.09,1.63-1.36,2.83-1.76a1.47,1.47,0,0,0-.18-.41.62.62,0,0,1,0-.62,4,4,0,0,1,2.08-.78c.42-.07.44.49.58.8a55.19,55.19,0,0,0,4.6,7.77c.27.41.47.2.47-.15,0-2.73-1.68-6.28-2.62-8.38a.44.44,0,0,1,.81-.36c.91,2.08,4.06,8.94,2.14,10.86a1.91,1.91,0,0,1-2.74-.29C414.09,205.33,413.84,205,413.6,204.71Zm-3.69-5.79a6.94,6.94,0,0,1-.35-.8.86.86,0,0,0-.83.24c-1.54,1.55,1.12,6.57,2.9,8.63.23.26,1,1.11,1.34.75C414,206.67,410.63,200.31,409.91,198.92Z"/>
            <path class="cls-8"
                  d="M414.2,190.84a3.14,3.14,0,0,1,4.07-.23c1.2,1.21,1.87,3.18,1.36,3.69a3.14,3.14,0,0,1-1.92.54c-.34,0-.47-.34-.36-.72a3.53,3.53,0,0,0-.25-2.3c-.35-.8-.78-1-1.07-.71-1.87,1.87,2.91,10.9,5.65,8.15,2-2-.31-7.06-1.49-9.9a.43.43,0,0,1,.8-.31c1.25,2.95,4.07,8.94,1.39,11.62C417,206.05,411.16,193.87,414.2,190.84Z"/>
            <path class="cls-8"
                  d="M423.05,184.81a21.65,21.65,0,0,0,3.1,9.89,7.27,7.27,0,0,0,.74.92.32.32,0,0,1,0,.53c-.54.54-2,1-2.46.49C420.5,192.71,413.26,181,414.2,180c.45-.45,2.53-1.36,2.86-1a.26.26,0,0,1,.07.16,2,2,0,0,0,.11.64c.67,2.42,3.66,7.46,6.23,11.28a19.48,19.48,0,0,1-1.27-7.75.92.92,0,0,1,.26-.58c.34-.33,1.93-1.11,2.35-.69a1.57,1.57,0,0,1,.18.31,6.72,6.72,0,0,0,.31.81,56.19,56.19,0,0,0,4.31,7.48c.29.38.47.29.49-.18,0-2.7-1.6-6.34-2.52-8.46a.43.43,0,1,1,.78-.34c.92,2.08,4,9,2.06,10.94a1.89,1.89,0,0,1-2.73-.31A37.38,37.38,0,0,1,423.05,184.81Z"/>
            <path class="cls-8"
                  d="M423.49,172.43a5.82,5.82,0,0,1,1.92-.71c.56-.11.85.18,1,.83.27,1.07.87,4.08.36,4.64-1.23,1.32-2.95-2.77-3.2-3.59C423.38,173,423.34,172.59,423.49,172.43Zm7.17,15.21a39.83,39.83,0,0,1-4.53-8,.62.62,0,0,1,0-.63,4.25,4.25,0,0,1,2.08-.78c.42-.06.45.49.6.78a53.43,53.43,0,0,0,4.49,7.89c.27.4.47.2.47-.16,0-2.72-1.58-6.36-2.52-8.46a.44.44,0,0,1,.8-.36c.92,2.08,4,9,2.06,11a1.91,1.91,0,0,1-2.75-.3C431.15,188.27,430.91,188,430.66,187.64Z"/>
            <path class="cls-8"
                  d="M429.88,175.92a.56.56,0,0,1,0-.6,4.07,4.07,0,0,1,2.1-.81c.4,0,.45.49.58.8A43.61,43.61,0,0,0,435,180c-.92-2.52-1.85-5.83-1.68-7.79a.84.84,0,0,1,.27-.58c.32-.32,1.9-1.1,2.33-.67a.66.66,0,0,1,.17.31c.09.27.2.51.32.8a53.75,53.75,0,0,0,4.33,7.46c.27.4.47.29.47-.15,0-2.73-1.59-6.37-2.52-8.47a.44.44,0,0,1,.8-.36c.92,2.08,4,9,2.05,11a1.69,1.69,0,0,1-2.47.11,46.3,46.3,0,0,1-4.92-7.91c.11,3.11,2.46,9.2,3.86,10.84.23.22.12.38,0,.51-.53.53-2,.8-2.48.33A37.68,37.68,0,0,1,429.88,175.92Z"/>
            <path class="cls-8"
                  d="M445.47,177.57a2,2,0,0,1-2.88.11c-2.7-2.16-5.32-7.28-4.29-10.67a2,2,0,0,1,1.18-1.19c.52-.24,1.1-.38,1.66-.58a2.51,2.51,0,0,1-.18-.4.57.57,0,0,1,0-.6,4.24,4.24,0,0,1,2.1-.81c.27,0,.38.2.45.45a3.72,3.72,0,0,0,.35.76c1.07,2.05,2.3,4.13,3.38,5.83l.15.24a15.94,15.94,0,0,0-1.29-7.23c-.25-.52.56-.87.76-.36a17.29,17.29,0,0,1,1.31,8.87,56.13,56.13,0,0,1,3.09,5.49c.93,2,1.2,3.75-.54,5.5a2.56,2.56,0,0,1-2.17.73,3.41,3.41,0,0,1-2.52-3.37c-.13-1.74.54-3.62.83-5.25l-1.39-2.45C446.18,174.62,446.45,176.59,445.47,177.57ZM443.62,175c.22.27,1,1.12,1.34.76,1.07-1.07-2.37-7.41-3.06-8.82-.14-.27-.27-.54-.38-.78a.89.89,0,0,0-.83.24C439.17,167.92,441.83,173,443.62,175Zm5.8,4.87c-.51-1.05-1.16-2.28-1.87-3.57-.32,1.7-1.1,4.35.4,5.72a1.12,1.12,0,0,0,1.52.13C449.85,181.77,450,180.94,449.42,179.87Z"/>
            <ellipse class="cls-2" cx="319.32" cy="514.76" rx="110.7" ry="32.54"/>
            <path class="cls-10" d="M332.09,466.2s1.49-13.22,12.21-19.29"/>
            <path class="cls-10" d="M340.62,469.53s1.49-13.23,12.21-19.3"/>
            <path class="cls-10" d="M321.45,464.67s1.95-15,15.15-21.65"/>
            <path class="cls-10" d="M316.58,443.61s19.91-1.34,40.78,16"/>
            <path class="cls-10" d="M313.63,448.67s19.38-.91,40,17.06"/>
            <path class="cls-10" d="M315,455.5s15.53-.59,31.42,13.15"/>
            <path class="cls-10" d="M316.1,456.88s1.23-10.6,10.15-15.46"/>
            <path class="cls-10" d="M347.46,471.86s1.22-10.6,10.15-15.46"/>
            <path class="cls-11"
                  d="M570.92,344.54a5.41,5.41,0,0,0-5.67,7.88c2.07,3.93,9.14,4.27,12.66,2.28,3.88-2.2,4.11-7,1.52-10.34-2.09-2.67-5.71-3.81-9-3.78a1.25,1.25,0,0,0,0,2.5c3.3,0,7,1.37,8.07,4.79,1.25,4.08-3.07,5.61-6.33,5.34-1.71-.14-3.86-.38-4.75-2.06-1.39-2.6,1.23-4.4,3.51-4.11,1.59.21,1.57-2.3,0-2.5Z"/>
        </g>
    </g>
</svg>
