<?xml version="1.0" encoding="utf-8"?>
<!-- Generator: Adobe Illustrator 22.1.0, SVG Export Plug-In . SVG Version: 6.00 Build 0)  -->
<svg version="1.1" xmlns="http://www.w3.org/2000/svg" x="0px" y="0px"
     viewBox="0 0 579.6 563.9" style="enable-background:new 0 0 579.6 563.9;" xml:space="preserve">
<style type="text/css">
	.st0{opacity:0.55;fill:#2BB9D2;}
	.st1{fill:#EE717C;}
	.st2{fill:#636362;}
	.st3{fill:#F0F0F1;}
	.st4{opacity:0.55;}
	.st5{fill:#2BB9D2;}
	.st6{fill:#D9072A;}
	.st7{opacity:0.54;fill:#2BB9D2;}
	.st8{fill:#676767;}
	.st9{fill:#FFFFFF;}
	.st10{fill:none;stroke:#FFFFFF;stroke-width:0.5;stroke-linecap:round;stroke-linejoin:round;stroke-miterlimit:10;}
	.st11{fill:#FFFFFF;stroke:#3E3E3E;stroke-width:5;stroke-miterlimit:10;}
	.st12{opacity:0.69;}
	.st13{fill:#070707;}
	.st14{fill:none;stroke:#FFFFFF;stroke-width:0.25;stroke-linecap:round;stroke-linejoin:round;stroke-miterlimit:10;}
	.st15{fill:none;stroke:#636362;stroke-width:2;stroke-linecap:round;stroke-linejoin:round;stroke-miterlimit:10;}
	.st16{fill:none;stroke:#636362;stroke-width:2;stroke-miterlimit:10;}
	.st17{fill:#636362;stroke:#636362;stroke-width:2;stroke-linecap:round;stroke-linejoin:round;stroke-miterlimit:10;}
	.st18{opacity:0.6;fill:#2BB9D2;}
	.st19{fill:#00A6C5;}
	.st20{fill:none;stroke:#EE717C;stroke-width:8;stroke-miterlimit:10;}
	.st21{fill:none;stroke:#444444;stroke-width:4;stroke-miterlimit:10;}
	.st22{fill:#FFFFFF;stroke:#454545;stroke-width:4;stroke-miterlimit:10;}
	.st23{opacity:0.57;fill:#2BB9D2;}
	.st24{fill:none;stroke:#636362;stroke-width:4;stroke-miterlimit:10;}
	.st25{fill:none;stroke:#636362;stroke-linecap:round;stroke-linejoin:round;stroke-miterlimit:10;}
	.st26{fill:none;stroke:#636362;stroke-miterlimit:10;}
	.st27{fill:none;stroke:#000000;stroke-miterlimit:10;}
	.st28{opacity:0.48;fill:#F09687;}
	.st29{opacity:0.46;fill:#00A6C5;}
	.st30{opacity:0.67;fill:#60B676;}
	.st31{fill:#FFFFFF;stroke:#636362;stroke-linecap:round;stroke-linejoin:round;stroke-miterlimit:10;}
	.st32{opacity:0.81;fill:#EE717C;}
	.st33{opacity:0.52;fill:#2BB9D2;}
</style>
<g id="dessin">
	<g>
		<g>
			<path class="st2" d="M248.3,330.9c-14.1,27.1-37.7,46-64.1,60.5c-21.6,11.9-67.8,39.9-80.9,3.1c-1.1-3-5.9-1.7-4.8,1.3
				c3.7,10.5,11.9,18.5,22.8,21.3c13.5,3.4,27.1-2.5,39.1-8.1c23.1-10.9,46.1-22.9,65-40.3c11-10.1,20.2-22,27.1-35.3
				C254.1,330.6,249.8,328.1,248.3,330.9L248.3,330.9z"/>
		</g>
	</g>
	<g>
		<path class="st0" d="M76.3,343.5v4.7c0,14.5-7.2,28-19.3,36c-3.2-5.2-5.2-11.1-6-17.1v0l0.9-2.3c3.3-8.4,8.8-15.7,15.8-21.3
			c0.1,0,0.3,0,0.4,0H76.3z"/>
		<path class="st0" d="M110.1,367.1L110.1,367.1c-0.8,6-2.9,11.8-6,17.1c-12-8-19.3-21.6-19.3-36v-4.7H93c0.1,0,0.3,0,0.4,0
			c7,5.6,12.4,12.9,15.8,21.3L110.1,367.1z"/>
		<path class="st0" d="M55,402.9c5,2.4,8.4,7.5,8.4,13.5c0,8.3-6.7,15-15,15V426C48.4,417.7,50.7,409.8,55,402.9z"/>
		<path class="st0" d="M112.7,429.2v17.1l-1.2,4.2c-5.4-0.6-9.5-5.1-9.5-10.6C102,434,106.8,429.2,112.7,429.2z"/>
	</g>
	<path class="st2" d="M95.5,362.8h4.3v4.3h-4.3V362.8z"/>
	<path class="st2" d="M61.3,362.8h4.3v4.3h-4.3V362.8z"/>
	<path class="st2" d="M161.9,445.8c-0.4-2.2-3.1-3.5-9-4.6c-9.3-1.6-23.9-1.6-33.2,0c-2,0.3-3.5,0.7-4.8,1.2V426
		c0-11.5-4.3-22.4-12-30.9c2-2.9,3.3-6.5,3.4-10.3c2-3.5,3.5-7.2,4.6-11c1,1.1,2.4,1.8,3.9,1.8c2.2,0,4.2-1.4,4.9-3.5l7.5-20.7
		c0.3-0.8,0.4-1.6,0.4-2.4c0-2.9-1.8-5.6-4.5-6.7l-17-6.8c-3.4-1.4-7.4-0.5-9.9,2l-3.7,3.7l-23.9,0l-3.7-3.7c-2.6-2.6-6.6-3.4-9.9-2
		l-17,6.8c-2.7,1.1-4.5,3.7-4.5,6.7c0,0.8,0.1,1.7,0.4,2.4l7.5,20.7c0.8,2.1,2.7,3.5,4.9,3.5c1.6,0,3-0.7,3.9-1.8
		c1.1,3.8,2.6,7.5,4.6,11c0.1,3.8,1.4,7.3,3.4,10.3c-7.7,8.5-12,19.3-12,30.9v22c0,2.1-1.2,4.1-3.1,5c-3.4,1.7-5.5,5.1-5.5,8.9v1.6
		c0,2.4,1.9,4.3,4.3,4.3h23.6c3.5,0,6.4-2.9,6.4-6.4v-2.1h17.1v2.1c0,3.5,2.9,6.4,6.4,6.4h70.7v-6.4L161.9,445.8z M136.2,444.2
		c8.9,0,16.5,1.1,19.9,2.1c-3.4,1.1-11,2.1-19.9,2.1s-16.5-1.1-19.9-2.1C119.8,445.3,127.3,444.2,136.2,444.2z M99.3,340.7
		c1.4-1.4,3.5-1.8,5.3-1.1l17,6.8c1.1,0.4,1.8,1.5,1.8,2.7c0,0.3-0.1,0.7-0.2,1l-7.5,20.7c-0.3,0.8-1.5,0.8-1.8,0l-2.7-6.7
		c-3.2-7.9-8.2-15-14.6-20.7L99.3,340.7z M45.4,370.7L37.9,350c-0.1-0.3-0.2-0.6-0.2-1c0-1.2,0.7-2.2,1.8-2.7l17-6.8
		c0.6-0.2,1.2-0.4,1.8-0.4c1.3,0,2.6,0.5,3.5,1.4l2.7,2.7c-6.4,5.6-11.5,12.7-14.6,20.7l-2.7,6.7C46.9,371.5,45.7,371.5,45.4,370.7z
		 M53.2,367.3l0.7-1.7c3.1-7.8,8.2-14.6,14.6-20l24.1,0c6.4,5.3,11.5,12.2,14.6,20l0.7,1.7c-0.8,5.6-2.7,10.9-5.6,15.8l-0.3,0.5v0.6
		c0,6.1-3.6,11.3-8.8,13.7c0.2-0.6,0.3-1.2,0.3-1.9v-1.1h-4.3v1.1c0,1.8-1.4,3.2-3.2,3.2s-3.2-1.4-3.2-3.2v-5.7
		c1.1-0.3,2.2-0.9,3-1.8l1.9-1.9c1-1,1.5-2.3,1.5-3.7c0-2.9-2.3-5.2-5.2-5.2h-6.8c-2.9,0-5.2,2.3-5.2,5.2c0,1.4,0.5,2.7,1.5,3.7
		l1.9,1.9c0.9,0.9,1.9,1.4,3,1.8v5.7c0,1.8-1.4,3.2-3.2,3.2c-1.8,0-3.2-1.4-3.2-3.2v-1.1h-4.3v1.1c0,0.7,0.1,1.3,0.3,1.9
		c-5.2-2.4-8.8-7.6-8.8-13.7v-0.6l-0.3-0.5C55.9,378.2,54,372.9,53.2,367.3z M78.4,385.5l-1.9-1.9c-0.2-0.2-0.3-0.4-0.3-0.6
		c0-0.5,0.4-0.9,0.9-0.9h6.8c0.5,0,0.9,0.4,0.9,0.9c0,0.2-0.1,0.5-0.3,0.6l-1.9,1.9C81.6,386.6,79.5,386.6,78.4,385.5z M84.4,403.5
		l-0.8,3.9c-0.3,1.4-1.6,2.5-3,2.5s-2.7-1-3-2.5l-0.8-3.9H84.4z M72,454.9v-19.3c0-4.7,3.8-8.6,8.6-8.6c4.7,0,8.6,3.8,8.6,8.6v19.3
		H72z M93.4,461.3v-25.7c0-7.1-5.8-12.9-12.9-12.9s-12.9,5.8-12.9,12.9v25.7c0,1.2-1,2.1-2.1,2.1H42v-1.6c0-2.1,1.2-4.1,3.1-5
		c3.4-1.7,5.5-5.1,5.5-8.9v-22c0-10.3,3.7-20,10.5-27.6c3,2.8,7,4.7,11.3,5.1l1,4.9c0.7,3.4,3.7,5.9,7.2,5.9s6.5-2.5,7.2-5.9l1-4.9
		c4.3-0.4,8.3-2.3,11.3-5.1c6.8,7.6,10.5,17.3,10.5,27.6V446l-4.2,14.7l0,2.7H95.5C94.4,463.5,93.4,462.5,93.4,461.3z M162,463.5
		h-51.4v-1.8l3.3-11.6c1.4,0.6,3.3,1.1,5.8,1.5c4.7,0.8,10.7,1.3,16.6,1.3c5.9,0,11.9-0.5,16.6-1.3c2.5-0.4,4.4-0.9,5.8-1.5
		l3.3,11.6V463.5z"/>
	<path class="st13" d="M134.1,457.1h4.3v4.3h-4.3V457.1z"/>
	<path class="st13" d="M125.5,457.1h4.3v4.3h-4.3V457.1z"/>
	<path class="st13" d="M142.7,457.1h4.3v4.3h-4.3V457.1z"/>
	<path class="st1" d="M119.1,393c0,1.5,0.5,2.9,1.3,4c-0.9,1.2-1.3,2.6-1.3,4c0,3.7,3,6.7,6.7,6.7c1.8,0,3.5-0.7,4.7-2l2.3-2.3h11.1
		l2.3,2.3c1.3,1.3,2.9,2,4.7,2c3.7,0,6.7-3,6.7-6.7c0-1.5-0.5-2.9-1.3-4c0.9-1.2,1.3-2.6,1.3-4c0-3.7-3-6.7-6.7-6.7
		c-1.8,0-3.5,0.7-4.7,2l-2.3,2.3h-11.1l-2.3-2.3c-1.3-1.3-2.9-2-4.7-2C122.1,386.4,119.1,389.4,119.1,393z"/>
	<g>
		<path class="st2" d="M381.2,174c1.8,1.1,3.7,2.1,5.5,3.3c24,16.2,36.7,40.3,47.9,66c10.4,23.7,17.9,48.2,21.7,73.6
			c4.5,29.9,6.4,60.1,1,90.3c-0.8,4.2,1.5,4.5,4.8,4.7c12.4,0.8,24.8,1.4,37,3c7,1,13.9,3.4,20.5,6.1c10.1,4.1,12.3,12.6,7.3,22.2
			c-4.4,8.3-11.8,12.1-19.8,15.2c-19.5,7.6-39.5,12.7-60.3,6.8c-7.7-2.2-14.7-6.9-22.1-10.3c-1.7-0.8-4.1-1.7-5.5-1.1
			c-11.6,5.8-24.3,6.2-36.7,7.6c-15.6,1.8-31.2,4-46.9,4.4c-15.8,0.4-31.7-0.9-47.5-2c-3.1-0.2-6.2-2.3-8.9-4.2
			c-4-2.7-3.7-8.1,0.3-12.4c6.4-6.8,14.8-9.1,23.5-10.4c8.3-1.3,16.7-1.8,24.9-3.7c7-1.7,13.7-4.8,20.3-7.2
			c-4.9,5-10.3,9.3-17.9,10.6c-9.1,1.5-18.2,3.4-27.3,5.3c-3,0.7-6.3,1.6-8.7,3.3c-2.2,1.5-4.7,4.5-4.6,6.7c0.1,2.2,2.8,5.5,5.1,6.3
			c4.3,1.6,9.1,2.5,13.8,2.6c31.4,1.1,62.5-3.1,93.4-7.8c20.7-3.2,41.9-24.7,45.9-45.4c-0.3-0.1-0.7-0.5-0.9-0.4
			c-17.7,6.5-36.3,6.6-54.8,7.3c-26.4,1-52.7,1.8-79.1,2c-13.1,0.1-26.2-1.3-39.2-2.1c-1.7-0.1-3.4-0.9-5.1-1.4
			c0.1-0.6,0.2-1.2,0.3-1.8c5.4,0.1,10.9,0.2,16.3,0.4c13.4,0.5,26.8,1.7,40.2,1.4c28.8-0.8,57.6-2.2,86.4-3.6
			c11.9-0.6,23.7-2.4,34.6-7.6c3-1.4,4.5-3.3,4.8-6.7c2.2-27.2,0.7-54.1-4.7-80.8c-0.7-3.2-1.3-6.5-1.8-9.8c-0.5-3.5-2-4.6-5.7-3.7
			c-4.7,1.1-9.6,1.5-14.5,1.8c-1.6,0.1-3.3-1-5-1.6c0.1-0.6,0.2-1.2,0.3-1.9c1.9-0.4,3.9-0.8,5.8-1c2.4-0.3,4.9-0.4,7.3-0.8
			c8.7-1.4,9.7-2.9,7.6-11.2c-2-8.1-4.3-16.1-7.6-24c-3.1,7.6-5.8,15.3-9.4,22.6c-7.5,15.3-18.7,27.6-33,36.5
			c-11.6,7.3-24,13.5-36.3,19.6c-4.6,2.3-10,3.1-15.1,4.1c-1.5,0.3-3.4-0.8-5-1.3c1.3-1.2,2.5-3.3,4.1-3.6
			c13.2-2.4,25.5-7.2,37.2-13.7c24.2-13.5,42.1-32.2,48.7-60c3.1-13,1.7-25.2-4.4-37.5c-9.4-19.1-22.1-35.5-37.1-50.4
			c-0.9-0.9-1.6-2-2.4-3C380.5,175,380.9,174.5,381.2,174z"/>
		<path class="st2" d="M239.9,337.1c-0.2,1.5-0.1,3-0.5,4.4c-5.9,21.4-5.1,42.9,0.8,64.1c2,7.2,5.5,14,8.7,20.7
			c0.8,1.7,3.2,2.7,5,3.8c1.2,0.7,2.6,1.1,3.9,2.8c-1.2,0.4-2.4,0.9-3.6,1.1c-8.8,1.3-17.6,2.6-26.4,3.9c-1,0.2-2.1,0.2-3.1,0.6
			c-3.5,1.5-7.5,2.8-7.4,7.7c0.1,4.9,4,5.7,7.7,6.3c13.2,2.3,26.5,4.4,39.7,6.6c1.2,0.2,2.5,0.1,3.6,0.7c1.1,0.5,1.8,1.7,2.7,2.5
			c-1.1,0.9-2.2,2.6-3.3,2.6c-3.5,0.1-7-0.3-10.4-0.7c-11.3-1.3-22.6-2.3-33.8-4.2c-4.5-0.7-9.1-2.8-12.9-5.3
			c-6.8-4.5-6.6-12.7,0.7-16.5c5.6-2.9,12.2-3.9,18.3-5.6c1.7-0.5,3.5-0.2,5.2-0.4c5.3-0.6,6.4-1.9,4.2-6.8
			c-7.4-16.7-9.2-34.3-9.1-52.2c0-8.8,1.5-17.7,3.1-26.5c0.6-3.6,3.2-6.9,4.9-10.3C238.5,336.6,239.2,336.9,239.9,337.1z"/>
		<path class="st2" d="M374.8,161.6c1.8-2.9,4-5.7,5.2-8.8c2.4-5.9,4.9-12,6-18.2c1.3-7.4-2.6-13.2-8.9-17
			c-5.7-3.5-10.9-1.3-15.5,2.2c-3.2,2.4-5.4,1.9-8.3-0.2c-20.1-14.5-42.5-19.8-66.5-14.1c-19.6,4.6-34.1,16.8-43.4,34.9
			c-0.8,1.6-1.9,3-3.6,5.8c-1.8-6.6,0.8-10.7,3.1-14.5c6.8-11.6,17.5-19.1,29.1-24.8c24.7-12.2,49.9-8.7,74.9-0.6
			c0.3,0.1,0.7,0.2,0.9,0.4c5.6,4.2,10.6,4.7,17.9,2.2c9.5-3.2,19,0.1,24.5,14c4.4,11.1-1.3,31-10.9,38.2c-1,0.8-2.3,1.2-3.5,1.8
			C375.5,162.3,375.2,161.9,374.8,161.6z"/>
		<path class="st2" d="M279.6,155.1c-0.9,0.6-1.1,0.8-1.2,0.8c-2.2,0.8-5.9,1.1-6.3,2.5c-1.1,3.6,1.4,5.7,4.7,7.5
			c1.4,0.8,2.3,4.6,1.7,6.6c-1.9,6.5-6.4,10.5-13.4,11.4c-7,0.9-12.4-2.2-16.1-7.6c-2.3-3.4-3.6-7.6-4.3-11.7
			c-1.3-7.5,2.9-14.7,9.7-18c7-3.4,17.1-2.1,21.9,3.2C277.8,151.4,278.6,153.4,279.6,155.1z"/>
		<path class="st2" d="M241.3,233.1c-0.7,2.1-0.9,3.8-1.7,5.1c-10.5,16.6-10.3,34.4-6.2,52.6c3.3,14.8,8.6,28.7,17.1,41.3
			c0.5,0.7,1.3,1.5,1.3,2.3c0,1.7-0.4,3.5-0.6,5.2c-1.5-0.6-3.5-0.8-4.4-1.9c-8.1-9.5-15.2-19.8-17.9-32.2
			c-3.5-16.3-5.5-32.9-1.5-49.3c1.8-7.2,6.3-13.8,9.7-20.6c0.4-0.7,1.2-1.3,1.8-1.8C239.2,233.5,239.8,233.5,241.3,233.1z"/>
		<path class="st2" d="M296.3,203.6c-0.8,1.4-1.4,3-2.4,4.2c-5,5.6-9.6,11.6-15.2,16.5c-2.4,2.1-6.7,1.7-10.2,2.6
			c-10.6,2.7-15.6-6-22.3-11.1c-0.6-0.5-0.4-1.9-0.8-3.7c2.2,0.4,3.8,0.8,5.4,1.1c5.4,0.9,8.1-2.2,6.2-7.3
			c-1.8-4.9-2.9-9.9-0.2-15.6c0.8,1.2,1.8,2.3,2.2,3.6c0.4,1.5,0.1,3.1,0.3,4.7c1.4,12.4,10.9,17.8,22,12.3c3.1-1.5,5.8-3.9,8.7-5.7
			c1.7-1,3.5-1.8,5.3-2.7C295.7,202.9,296,203.2,296.3,203.6z M273,222c0.2-0.7,0.3-1.3,0.5-2c-2.2-0.6-4.4-1.2-6.6-1.9
			c-0.2,0.8-0.4,1.6-0.6,2.4C268.5,221,270.7,221.5,273,222z"/>
		<path class="st2" d="M253.3,323.4c3,2.4,6,4.8,9.8,7.9c-0.3-2.2-0.5-3.1-0.5-4.1c0-1.1,0.1-3,0.6-3.1c1.2-0.4,3.1-0.5,3.8,0.2
			c3.3,3.1,6.4,6.4,9.3,9.9c0.6,0.7,0.2,2.7-0.4,3.6c-0.4,0.7-2.1,0.9-3.1,0.7c-1.1-0.2-2.2-1-3.2-1.5c-3.4,5-4.1,5.2-8.7,1.3
			c-3-2.5-5.8-5.5-8.2-8.6c-1-1.3-0.9-3.6-1.4-5.4C251.9,324.1,252.6,323.8,253.3,323.4z"/>
		<path class="st2" d="M371.3,172.6c-7.8,17.1-13.2,34.4-8.7,53.7c-0.8,0.1-1.5,0.3-2.3,0.4c-1.1-2.1-3-4.1-3.1-6.2
			c-0.3-5.9-0.6-11.9,0.6-17.6c2.1-9.7,4.5-19.4,10.8-27.4C369.5,174.4,370.4,173.5,371.3,172.6z"/>
		<path class="st2" d="M373.8,152c-5.5-0.2-7.4-3.6-6.8-7.8c0.7-4.8,0.2-9.7,0.5-14.5c0.1-1.7,0.9-3.3,1.4-5
			c1.2,1.2,3.1,2.3,3.4,3.8c1.4,6.1,2.5,12.3,3.2,18.5C375.7,148.7,374.3,150.6,373.8,152z"/>
		<path class="st2" d="M327.2,318.4c-1.8-1.4-3.1-2.4-4.4-3.4c1.3-0.9,2.4-2.2,3.9-2.6c4.1-1.3,8.3-2.4,12.5-3.4
			c0.9-0.2,2.6,0.4,2.8,1c0.2,0.9-0.3,2.7-1,3C336.6,314.9,332.1,316.6,327.2,318.4z"/>
		<path class="st2" d="M339.9,333.1c-0.9,1.4-1.6,3.8-2.7,4c-4.7,1.1-9.6,1.7-14.4,2.1c-0.9,0.1-2-1.4-3-2.2c0.9-0.7,1.6-1.8,2.6-2
			c5.3-1.1,10.6-1.9,15.9-2.8C338.9,332.4,339.4,332.8,339.9,333.1z"/>
		<path class="st2" d="M338.5,322.1c-4.6,5-9.9,5.6-14.8,6.6c-0.6,0.1-2-1.3-2.4-2.2c-0.3-0.7,0.2-2.5,0.6-2.6
			C327,323.2,331.8,319.9,338.5,322.1z"/>
		<path class="st2" d="M288.5,332.7c-5.9-1.6-9-5.1-9.4-10.2C283.9,322.5,288.9,327.7,288.5,332.7z"/>
	</g>
	<g>
		<g>
			<path class="st8" d="M315.2,152.2c-5.1,1.6-11.2-0.4-13.8-3.6c0,0-0.2-0.7-0.5-1.4c1.7-4.5,9.7-9.4,15.2-7.2
				c2.6,0.8,3.5,3.6,5.7,5.4c0.2,0.7-0.8,2.6-1.5,2.8C318.6,150.3,317.4,151.5,315.2,152.2z"/>
		</g>
	</g>
	<g>
		<circle class="st9" cx="314.8" cy="146" r="3.8"/>
	</g>
	<path class="st2" d="M243.1,221c-15.4-8.7-17.7-38.2-8.7-50.9c-3.2,13.6-2.6,25.8,3.5,37.4c1.3,2.5,3.1,4.6,4.3,7.2
		C242.8,216.2,242.7,218.2,243.1,221"/>
	<path class="st9" d="M254.9,215.2c0,0,0.9,6.6,4.7,8.9l5.5,0.1l-1.4-8.8L254.9,215.2z"/>
	<path class="st9" d="M265.6,215.5l1.4,8.8l5,0.1c0,0,2.5-6.8,2.5-9.7C274.5,214.8,269.6,216.3,265.6,215.5z"/>
	<path class="st10" d="M463.6,458.8c0,0,8.5-24.5,34.4-37.6"/>
	<path class="st10" d="M480.9,463.4c0,0,8.5-24.5,34.4-37.6"/>
	<path class="st10" d="M438.8,457.5c0,0,10.2-27.8,41.7-42.4"/>
	<path class="st10" d="M455.1,420.2c0,0,35.1-3.6,66.4,22.1"/>
	<path class="st10" d="M444.4,432.1c0,0,35.1-3.6,66.4,22.1"/>
	<path class="st10" d="M435.9,447.8c0,0,31.5-4.7,58,13"/>
</g>
<g id="tracé">
</g>
</svg>
