<?xml version="1.0" encoding="utf-8"?>
<!-- Generator: Adobe Illustrator 22.1.0, SVG Export Plug-In . SVG Version: 6.00 Build 0)  -->
<svg version="1.1" xmlns="http://www.w3.org/2000/svg" xmlns:xlink="http://www.w3.org/1999/xlink" x="0px" y="0px"
	 viewBox="0 0 579.6 563.9" style="enable-background:new 0 0 579.6 563.9;" xml:space="preserve">
<style type="text/css">
	.st0{opacity:0.55;fill:#2BB9D2;}
	.st1{fill:#EE717C;}
	.st2{fill:#636362;}
	.st3{fill:#F0F0F1;}
	.st4{opacity:0.55;}
	.st5{fill:#2BB9D2;}
	.st6{fill:#D9072A;}
	.st7{opacity:0.54;fill:#2BB9D2;}
	.st8{fill:#676767;}
	.st9{fill:#FFFFFF;}
	.st10{fill:none;stroke:#FFFFFF;stroke-width:0.5;stroke-linecap:round;stroke-linejoin:round;stroke-miterlimit:10;}
	.st11{fill:#FFFFFF;stroke:#3E3E3E;stroke-width:5;stroke-miterlimit:10;}
	.st12{opacity:0.69;}
	.st13{fill:#070707;}
	.st14{fill:none;stroke:#FFFFFF;stroke-width:0.25;stroke-linecap:round;stroke-linejoin:round;stroke-miterlimit:10;}
	.st15{fill:none;stroke:#636362;stroke-width:2;stroke-linecap:round;stroke-linejoin:round;stroke-miterlimit:10;}
	.st16{fill:none;stroke:#636362;stroke-width:2;stroke-miterlimit:10;}
	.st17{fill:#636362;stroke:#636362;stroke-width:2;stroke-linecap:round;stroke-linejoin:round;stroke-miterlimit:10;}
	.st18{opacity:0.6;fill:#2BB9D2;}
	.st19{fill:#00A6C5;}
	.st20{fill:none;stroke:#EE717C;stroke-width:8;stroke-miterlimit:10;}
	.st21{fill:none;stroke:#444444;stroke-width:4;stroke-miterlimit:10;}
	.st22{fill:#FFFFFF;stroke:#454545;stroke-width:4;stroke-miterlimit:10;}
	.st23{opacity:0.57;fill:#2BB9D2;}
	.st24{fill:none;stroke:#636362;stroke-width:4;stroke-miterlimit:10;}
	.st25{fill:none;stroke:#636362;stroke-linecap:round;stroke-linejoin:round;stroke-miterlimit:10;}
	.st26{fill:none;stroke:#636362;stroke-miterlimit:10;}
	.st27{fill:none;stroke:#000000;stroke-miterlimit:10;}
	.st28{opacity:0.48;fill:#F09687;}
	.st29{opacity:0.46;fill:#00A6C5;}
	.st30{opacity:0.67;fill:#60B676;}
	.st31{fill:#FFFFFF;stroke:#636362;stroke-linecap:round;stroke-linejoin:round;stroke-miterlimit:10;}
	.st32{opacity:0.81;fill:#EE717C;}
	.st33{opacity:0.52;fill:#2BB9D2;}
</style>
<g id="dessin">
</g>
<g id="tracé">
	<path class="st0" d="M53.8,104.6v263.1h219.3c-0.4-2.2-0.2-4.5,0.5-6.7c3.4-10.7,8.4-21.9,5.8-33.3c-2.5-10.8-9.5-20.1-12.2-30.9
		c-3.1-12.7-1.4-25.1,6.6-35.7c2.2-2.9,4.9-5.3,7.8-7.5c0.3-0.2,0.7-0.5,1.1-0.8c0.3-0.9,0.3-1,0.3-0.8c1.2-4.4,1.1-8.6,0.5-12.8
		c-2.5-4.4-11.8-21.6-7.1-43.2c0.6-3,3.8-16.5,15.2-28.5c3.5-3.7,11.9-11.8,24.6-15.3c0.6-0.2,1.3-0.3,1.9-0.4
		c1-0.4,2.4-0.9,4.2-1.5c5.2-1.8,23.8-8,41.5-2.5c12.3,3.8,10.1,9,20.7,11.1c14.3,2.9,20.5-5.9,28.1-1.5c9.6,5.5,8.8,24.4,7.7,31.8
		c-1.7,11.3-7.8,21.6-9.6,24.6c-1,1.8-2.1,3.6-3.4,5.2c0.4,0.8,0.7,1.5,1.2,2.3c2.5,3.9,6.7,6.2,10.4,9c3.7,2.8,7,6,9.8,9.7
		c5.6,7.2,10,15.3,13.8,23.5c14.9,31.9,20.6,69.1,21.1,104.3c6.9,0,13.8,0,20.8,0c-2.2-87.7-4.4-175.4-6.7-263.1
		C336.4,104.6,195.1,104.6,53.8,104.6z"/>
	<path class="st2" d="M410.9,210.5c0.6-2.1,1.1-4.2,2-6.2c3.8-8.1,6.7-16.2,6.4-25.4c-0.4-14.5-14.3-24.2-27.9-15.5
		c-2.6,1.6-4.5,1.5-6.9-0.3c-21.6-17.5-45.3-17.5-70.1-8.3c-11,4-21.4,8.9-27.1,20c-1.6,3-3.1,6.1-5.4,8.9c-0.9-5.1,1.6-9.2,4-13.2
		c6.8-11.7,18.7-16.2,30.3-21.1c17.4-7.3,35.2-10.5,53.4-3.7c5.5,2.1,10.6,5.8,15.5,9.2c2.3,1.6,3.7,2.1,6.6,1
		c5.3-1.9,11.1-3.7,16.5-3.4c7.5,0.4,10.7,6.9,13.6,13c7.2,15.4,0,38.5-9.3,45.5C411.9,210.8,411.4,210.6,410.9,210.5z"/>
	<g>
		<path class="st2" d="M427.3,448.4c1.5,0.5,2.6,0.4,3.8,0.5c1.1,0.1,2.7,0.1,3.3,0.8c5,6.4,12.5,8.2,19.6,9.8
			c15.6,3.6,31.3,1.9,47-0.2c8.3-1.1,15.1-5.1,20.9-10.7c6.7-6.6,6-15.7-2.1-20.3c-11.1-6.3-22.6-12-34.3-17
			c-7.2-3.1-15.1-4.4-23.1-6.7c0.3-1.6,0.7-3.7,1.1-5.8c4-20,4.7-40.2,2.2-60.5c-3.7-30.4-11.4-59.6-27.2-86.2
			c-9.7-16.4-20.6-31.4-39-39c-1.6-0.7-3.4-1-5.1-1.5c-0.2,0.4-0.3,0.8-0.5,1.3c1.1,0.9,2.1,2,3.4,2.6c11.2,4.6,19,13.4,26,22.6
			c6.2,8.1,12.5,16.5,13.5,27.3c1.9,20.4-6.4,36.8-20.8,50.1c-7.9,7.3-16.9,13.5-25.7,19.6c-12.3,8.5-26.3,13.3-41.1,17.9
			c2.7-6-1.7-3.5-3.8-3.8c0.8-1,1.4-1.7,2.5-3.1c-2.8-0.9-5.1-2.4-7.3-2.1c-4.4,0.6-8.6,2.3-12.9,3.6c-0.2,1.3-0.5,2.8-0.7,4.3
			c1.1,0.3,2.1,0.5,3,0.7c-1,0.9-1.8,1.6-3.6,3.3c7,0.1,12.9,0.5,18.6,0.1c13.1-0.8,25.5-4.8,36.9-11.2c10.3-5.7,20.3-12,30-18.7
			c16-11.1,28.9-24.6,30.5-45.5c0-0.4,0.4-0.8,0.9-1.7c1,1.9,1.7,2.8,1.9,3.9c5.9,21.2,13.5,42,15.5,64.2
			c1.7,18.9,0.7,37.5-4.1,55.9C456.6,402.9,447.3,434.2,427.3,448.4z"/>
		<path class="st2" d="M268.4,373.2c0.5-10.8,2.6-21.5,6.3-32.1c0.7-2.1,2.7-3.8,4.1-5.7l-0.1-0.1c-0.5,2.2-0.9,4.5-1.6,6.6
			c-5.3,14.7-6.7,29.7-3.3,45.1c2.5,11.5,5.1,23,7.5,34.5c0.8,4,2.1,7.4,7.4,7.2c0,0.5-0.1,1-0.1,1.4c-1.8,0.4-3.7,1-5.5,1
			c-10.9,0.2-21.5,1.8-31.4,6.8c-0.3,0.1-0.6,0.2-0.9,0.4c-3.6,2.2-7.9,4.3-6.9,9.3c0.9,4.7,5.8,4.7,9.4,4.8
			c13.9,0.6,27.9,0.8,41.8,1c2.9,0.1,4.8-0.7,6.7-3.7c4.9-7.7,13.4-9.9,21.8-11.7c10.9-2.3,21.8-4.2,32.6-6.7
			c6.8-1.5,12.7-5,17.1-10.5c0.5-0.6,1.2-0.9,2.3-0.8c-2.7,5.9-7.1,10.1-13.2,12c-8.7,2.7-17.5,5.1-26.4,6.9
			c-8.5,1.7-16.6,3.7-22.2,10.9c-4.1,5.2-2.7,9.5,4,9.8c9.8,0.5,19.6,0.7,29.3-0.2c23.1-2.1,46.2-4.8,69.3-7.4
			c2.2-0.2,4.4-0.8,6.6-1.2c0.2,0.5,0.4,1,0.6,1.5c-1.5,0.7-3,1.7-4.6,1.9c-18.6,2.6-37.2,5.5-55.8,7.3c-14,1.4-28.2,1.7-42.3,2
			c-7.2,0.2-14.3-0.8-19.6-6.6c-0.5-0.6-1.7-0.7-2.5-0.7c-15.1,0-30.2,0.5-45.3-0.3c-5.1-0.3-10.5-3.6-15-6.7c-3.3-2.3-2-8,2.2-9.9
			c6.3-2.9,12.9-5.3,19.5-7.4c5.4-1.7,11-2.6,16.6-3.8c-1.7-7.4-3.3-14.8-5-22.2C268.9,394.9,267.9,384,268.4,373.2"/>
		<path class="st2" d="M317.2,200.9c0.1-1.7,0.3-3.4,0.4-5.2c5.9,5.9,4.7,15.1-2.3,19.7c-6.7,4.3-19.8,2.1-23.5-5.1
			c-3.9-7.8-1.3-17,7.1-21.6c4.5-2.4,13.4-0.5,16.3,3.7c0.6,0.9,0.4,2.3,0.4,3.5c0.1,1.6,0,3.3,0.1,5
			C316.2,201,316.7,201,317.2,200.9z"/>
		<path class="st2" d="M278.8,335.4c-3.6-6.1-8-11.9-10.7-18.4c-2.3-5.4-3.3-11.5-3.8-17.3c-1.5-15.8,2.4-29.9,14-41.4
			c1-0.9,2.1-1.7,3.1-2.6c0.3,0.3,0.7,0.6,1,0.9c-1,1.5-1.9,3.2-3.1,4.6c-4.5,5.1-7.3,10.9-8.3,17.7c-2.4,16.4-1.3,32.5,7.7,46.6
			c4.5,7,11.6,12.4,17.5,18.5l-0.2-0.2c1.2,1.8,2.4,3.6,3.5,5.3c-8.8-1-14.2-8.5-20.9-13.8C278.7,335.2,278.8,335.4,278.8,335.4z"/>
		<path class="st2" d="M334.9,226.7c-0.7,10.2-5,18.8-12.3,25.7c-1.6,1.5-4.5,2.2-6.9,2.2c-4.6,0.2-9.3-0.2-13.9-0.6
			c-1.2-0.1-2.9-0.5-3.6-1.4c-3.6-4.6-7-9.4-9.9-14.8c5.5,0,8.4,7.7,14.7,4c-2.5-7-3.7-14.2,0.2-21.4c0,1.6-0.2,3.3-0.1,4.9
			c0.2,3.5,0,7,0.9,10.3c2,7.5,9.4,10.8,16.5,7.6c6.3-2.8,11-7.2,13.1-14.1C333.9,228.3,334.5,227.5,334.9,226.7z M298.1,246.6
			c1.3,4.2,4.1,4.5,8.1,3.9c-0.7-1.9-1.2-3.5-1.8-5.1C302.1,245.8,300.4,246.1,298.1,246.6z M320.3,247.2c-4-0.6-8.5-1.1-12.1-1.6
			C308.8,252.4,317.5,252.9,320.3,247.2z"/>
		<path class="st2" d="M392,169.9c6.9,2.7,10.5,9,9.6,16.6c-0.6,5.2-2.9,9.5-5.9,13.3c-1.5-4.4-2.9-8.5-4.6-13.3
			c4.8-4.4,1.8-10.6,1-16.7C392.1,169.8,392,169.9,392,169.9z"/>
		<path class="st2" d="M289.9,252.7c-13.9-7.4-16.6-33.6-9-45.1c-2.5,12.1-1.7,23,4,33.2c1.2,2.2,2.9,4.1,4,6.3
			C289.5,248.5,289.5,250.2,289.9,252.7z"/>
		<path class="st2" d="M296.2,344c-1.5-2.3-3-4.6-4.5-6.9c0.3-0.5,0.7-0.9,1-1.4c3.6,2.8,7.1,5.6,10.7,8.4c0.2-0.1,0.4-0.3,0.6-0.4
			c-0.8-1-1.5-2.1-2.4-3.2c0.4-0.5,0.9-1.2,1-1.2c5,2.9,9.9,5.8,14.8,8.7c-0.3,0.5-0.5,1-0.8,1.4c-1.4-0.1-2.7-0.2-4.7-0.4
			c1.1,0.9,1.8,1.4,2.4,1.9c-7.5,0.7-12.5-4.3-18.2-7.3C296.1,343.8,296.2,344,296.2,344z"/>
		<path class="st2" d="M335.6,190.6c-0.2-7.6,11.7-11.8,17-8.8c0.9,0.5,1.8,2.2,1.6,3.1c-0.2,0.9-2.1,2.4-2.7,2.2
			c-5.9-2.5-10.2,0.7-14.6,3.6C336.6,190.9,336,190.6,335.6,190.6z"/>
		<path class="st2" d="M321.3,347.4c-3.9-2-7.8-4-12.5-6.5c4.4-2.1,11.2,1.1,13.4,4.9C321.9,346.3,321.6,346.9,321.3,347.4z"/>
		<path class="st9" d="M297.4,245.1c2.3-0.4,5-0.1,7.2-0.6c0.6,1.6,0.8,4,1.5,5.9C300.2,251.8,298.8,249.4,297.4,245.1z"/>
	</g>
	<g>
		<path class="st9" d="M101.1,150.1c0.6-0.9,1.1-1,1.6-0.4c1,1.2,1.5,4-0.1,7.3c-1.4,3-4.7,7.9-6.3,11.3c-1.6,3.7-1.7,6.5,0.5,6.4
			c2.7-0.1,6.3-4.6,8.6-9.1c0.3-0.6,0.8-0.7,1-0.1s0.3,2.2-0.6,4.1c-1.7,3.6-5.8,7.2-9.4,7c-3.5-0.2-5.4-2.3-5.4-5.4
			c-2.1,2.7-5,5.1-8.2,5.1c-6.1,0-7.3-8.3-1.9-16.3c5.3-7.7,10.5-10.7,13.8-10.7c2.8,0,4.1,2.2,4,4.7
			C99.6,152.5,100.4,151.1,101.1,150.1z M95.9,152.8c-2.1-0.2-6.9,4.1-10.5,9.9c-3.5,5.6-4.3,11.4-1.8,11.5c2.7,0.1,6.1-4.1,9.4-9.9
			C97.2,157,97.8,153,95.9,152.8z"/>
		<path class="st9" d="M128.2,176.1c-3.5,0-5.7-1.8-6.9-4.7c-0.6,1.4-1.3,2.9-1.9,4.3c-0.3,0.7-0.7,0.7-1,0.2
			c-1-1.3-1.6-3.2-0.3-7.2c1.8-5.4,14.6-29.7,19.1-36c0.6-0.9,1.1-0.9,1.6,0.1c1,1.8,1,4.8-1.7,9.7c-1,1.8-3.8,6.4-5.8,10
			c1.9-1.7,3.9-2.8,5.6-2.8c5.6,0,5.8,7.7,2.2,15.7C136,172.4,132,176.1,128.2,176.1z M131.1,155.1c-2.9,3.1-6.1,8.5-8.5,13.6
			c0.1,1.9,1,4,2.8,4.4c2.3,0.5,5.3-1.4,9.1-9c3.7-7.4,2.9-11.4,1.4-11.5C134.5,152.3,133.1,153,131.1,155.1z"/>
		<path class="st9" d="M175.9,153.7c1.4,2.8-1.2,6.2-2.6,9.8c-0.3,0.8-0.5,1-1.4,0.5c-1.6-0.8-2.5-2.8-1.6-5.7
			c0.7-2.4,2.7-5.2,1.8-5.9c-1.1-0.9-6,3.3-9,9.2c-3.6,7.4-2.2,12.8,1.6,12.9c5.5,0.1,10.2-5.2,12.9-9.3c0.3-0.5,0.9-0.6,1.2,0.1
			c0.2,0.5-0.1,2.2-1.2,3.9c-2.5,3.9-7.7,7.1-12.7,7.1c-8.3,0.1-11.1-8-6.9-16.5c4.2-8.3,10.8-11.8,14.1-9.8
			C174.1,151.1,175.2,152.2,175.9,153.7z"/>
	</g>
	<line class="st20" x1="199.4" y1="215.1" x2="326.5" y2="342.2"/>
</g>
</svg>
