<?xml version="1.0" encoding="utf-8"?>
<!-- Generator: Adobe Illustrator 22.1.0, SVG Export Plug-In . SVG Version: 6.00 Build 0)  -->
<svg version="1.1" xmlns="http://www.w3.org/2000/svg" xmlns:xlink="http://www.w3.org/1999/xlink" x="0px" y="0px"
	 viewBox="0 0 579.6 563.9" style="enable-background:new 0 0 579.6 563.9;" xml:space="preserve">
<style type="text/css">
	.st0{opacity:0.55;fill:#2BB9D2;}
	.st1{fill:#EE717C;}
	.st2{fill:#636362;}
	.st3{fill:#F0F0F1;}
	.st4{opacity:0.55;}
	.st5{fill:#2BB9D2;}
	.st6{fill:#D9072A;}
	.st7{opacity:0.54;fill:#2BB9D2;}
	.st8{fill:#676767;}
	.st9{fill:#FFFFFF;}
	.st10{fill:none;stroke:#FFFFFF;stroke-width:0.5;stroke-linecap:round;stroke-linejoin:round;stroke-miterlimit:10;}
	.st11{fill:#FFFFFF;stroke:#3E3E3E;stroke-width:5;stroke-miterlimit:10;}
	.st12{opacity:0.69;}
	.st13{fill:#070707;}
	.st14{fill:none;stroke:#FFFFFF;stroke-width:0.25;stroke-linecap:round;stroke-linejoin:round;stroke-miterlimit:10;}
	.st15{fill:none;stroke:#636362;stroke-width:2;stroke-linecap:round;stroke-linejoin:round;stroke-miterlimit:10;}
	.st16{fill:none;stroke:#636362;stroke-width:2;stroke-miterlimit:10;}
	.st17{fill:#636362;stroke:#636362;stroke-width:2;stroke-linecap:round;stroke-linejoin:round;stroke-miterlimit:10;}
	.st18{opacity:0.6;fill:#2BB9D2;}
	.st19{fill:#00A6C5;}
	.st20{fill:none;stroke:#EE717C;stroke-width:8;stroke-miterlimit:10;}
	.st21{fill:none;stroke:#444444;stroke-width:4;stroke-miterlimit:10;}
	.st22{fill:#FFFFFF;stroke:#454545;stroke-width:4;stroke-miterlimit:10;}
	.st23{opacity:0.57;fill:#2BB9D2;}
	.st24{fill:none;stroke:#636362;stroke-width:4;stroke-miterlimit:10;}
	.st25{fill:none;stroke:#636362;stroke-linecap:round;stroke-linejoin:round;stroke-miterlimit:10;}
	.st26{fill:none;stroke:#636362;stroke-miterlimit:10;}
	.st27{fill:none;stroke:#000000;stroke-miterlimit:10;}
	.st28{opacity:0.48;fill:#F09687;}
	.st29{opacity:0.46;fill:#00A6C5;}
	.st30{opacity:0.67;fill:#60B676;}
	.st31{fill:#FFFFFF;stroke:#636362;stroke-linecap:round;stroke-linejoin:round;stroke-miterlimit:10;}
	.st32{opacity:0.81;fill:#EE717C;}
	.st33{opacity:0.52;fill:#2BB9D2;}
</style>
<g id="dessin">
</g>
<g id="tracé">
	<path class="st1" d="M232.5,374.8c0.5-0.5,1-1,1.4-1.4c0,0,48.4-48.4,51.3-51.2l0,0l0,0c6.6-3.4,12.2-4.7,16-5.3
		c4.5-0.7,8.3-1.2,9.7,1c2,3.1-2.4,9.8-3.4,11.2c-4.3,6.5-9,8.6-15.6,12.9c-7.7,5.1-15.2,12.1-30.2,26c-3.2,3-5.8,5.5-7.4,7.1"/>
	<g>
		<path class="st2" d="M343.8,504.8c1.6,0.5,2.9,0.4,4.1,0.5c1.2,0.1,3,0.1,3.6,0.8c5.5,7,13.6,8.9,21.4,10.7
			c17,3.9,34.2,2.1,51.3-0.2c9.1-1.2,16.5-5.5,22.7-11.7c7.3-7.2,6.5-17.1-2.3-22.1c-12.1-6.9-24.6-13-37.4-18.5
			c-7.8-3.3-16.4-4.8-25.2-7.3c0.3-1.7,0.7-4,1.2-6.3c4.4-21.8,5.1-43.8,2.4-65.9c-4-33.2-12.4-64.9-29.7-94
			c-10.6-17.9-22.4-34.2-42.5-42.5c-1.8-0.7-3.7-1.1-5.6-1.7c-0.2,0.5-0.4,0.9-0.6,1.4c1.2,0.9,2.3,2.2,3.7,2.8
			c12.3,5,20.7,14.6,28.4,24.7c6.8,8.9,13.6,18,14.7,29.8c2.1,22.2-6.9,40.1-22.7,54.6c-8.6,7.9-18.4,14.7-28.1,21.4
			c-13.4,9.2-28.7,14.5-44.9,19.5c2.9-6.5-1.8-3.8-4.2-4.2c0.9-1.1,1.5-1.9,2.7-3.4c-3-1-5.6-2.7-7.9-2.3c-4.8,0.7-9.4,2.5-14.1,3.9
			c-0.2,1.5-0.5,3.1-0.8,4.7c1.2,0.3,2.2,0.5,3.3,0.8c-1,0.9-2,1.8-3.9,3.5c7.7,0.1,14,0.5,20.3,0.1c14.3-0.9,27.8-5.2,40.2-12.2
			c11.2-6.2,22.1-13.1,32.7-20.4c17.5-12.1,31.5-26.8,33.3-49.6c0-0.5,0.4-0.9,0.9-1.9c1,2,1.8,3.1,2.1,4.2
			c6.4,23.2,14.7,45.9,16.9,70c1.9,20.6,0.8,40.9-4.4,61C375.8,455.1,365.6,489.3,343.8,504.8z"/>
		<path class="st0" d="M297.7,197.1c-23.2-2.9-46.4-5.9-69.7-8.8c-5.2,3.5-18.1,11.3-25,6.7c-4.8-3.3-3.9-10.9-4.1-26
			c-0.3-17.2-1.9-30.2-3.8-45.7c0,0-5-40.8,1.2-47.5c0,0,2.3-2.5,2.3-2.5c2.6-10.3,12.9-15.7,21-12.9c6.3,2.1,10.8,9.1,10.4,17
			c3.4-11.3,13.4-19.1,24.5-19.5c12.8-0.5,24.6,9,27.2,22.5c3.8-3.1,15.3-11.7,32.2-12.5c6.7-0.3,24.3-1.7,31.6,8.6
			c6.7,9.5,1.1,23.7-3,34.1c-10.2,25.6-23.4,24.5-27.5,45c-2.1,10.4-0.1,18-6.4,28.9C305.1,190.5,300.8,194.6,297.7,197.1z"/>
		<path class="st2" d="M305.4,200.9c-2.7,1.4-5.4,2.8-8.1,4.2c-23.1-14.3-48.5-16.9-74.7-12.3c-15.4,2.7-30.6,10.5-31,34.1
			c-0.6-1.7-1.6-3.3-1.7-5c-0.5-8,2.1-15.1,8-20.5c2.3-2.1,2.6-3.8,2-6.9c-1.5-7.2-2.4-14.7-3.1-22c-0.1-1.4,1.8-3,2.1-3.6
			c-3.8-26.4-8.1-52.3-11.1-78.3c-1.4-12,0.5-24,12-31.9c6.3-4.4,15.8-4.1,21,1.6c-1.3,0.4-2.4,0.9-3.5,0.9
			c-10.2,0.2-17,5.5-20.9,14.5c-4.6,10.6-4.5,21.9-2.9,33.1c2.7,19.7,5.5,39.4,8.3,59.9c8.9-3.2,16.9-6.1,25.7-9.3
			c-0.8-5.1-1.6-10.4-2.3-15.7c-1.1-9.3-2.2-18.7-3.2-28.1c-1.6-14.8,0.9-29.2,4.6-43.5c6.1-23.8,32.6-23.8,46.7-11.8
			c2.8,2.4,5.2,5.4,7.8,8.1c-0.5,0.6-1,1.1-1.6,1.7c-1.2-1-2.4-2.1-3.5-3.1c-17.4-15.3-37.4-9.9-44.7,10.2
			c-9.9,27.2-5.6,54.2-0.7,81.3c12.2-0.5,24.1-1,37.4-1.5c0.7-9.9,1.1-20.4,2.4-30.8c1-8,3-16,5.1-23.9c2.1-7.5,5-14.7,7.5-22.1
			c3.4-10.5,10.9-15.6,21.5-17.5c16.6-2.9,31,0.5,42.2,13.6c6.9,8,7.4,17.7,2.8,26.5c-5.4,10.2-12.6,19.3-19,28.9
			c-5.2,7.8-10.5,15.6-15.4,23.6c-1.8,2.9-2.7,6.3-4,9.4c-0.9,2.2-1.8,4.4-2.8,6.7c-0.7-0.2-1.4-0.4-2.1-0.6
			c0.5-2.3,0.4-4.9,1.6-6.8c7.1-11.9,14.6-23.7,21.9-35.6c5.2-8.4,11.9-16.3,15.1-25.5c7.2-20.1-9.4-39.1-29.5-35.3
			c-12.1,2.3-20.5,9.3-26.2,19.9c-7.5,13.8-12.2,28.6-15,44c-1.2,6.4-2.4,12.8-3.5,19.2c-0.4,2.3-0.6,4.6-0.8,6.1
			c11.2,3.7,21.9,7.2,32.6,10.7c-0.1,0.8-0.2,1.5-0.4,2.3c-1.5,0.1-3.3,0.8-4.4,0.2c-21-10.4-42.9-12.7-65.6-7.7
			c-8.3,1.8-16.4,4.5-24.5,6.8c-4.5,1.3-7.2,3.7-6.2,9c1,5.6,1.4,11.4,2,16.6c32.1-11.6,63-11.8,94.6,2.1c4.4-6.7,9.1-14,8.6-23.5
			c6.4,1.8,5.4,4.9-2.1,20c7-0.3,13.7-0.1,19.1,5.1c5.2,5,7.1,11.1,7.4,18.1c0.4,9.2-10.1,21.4-21.2,24.2c-0.6-0.7-1.2-1.4-1.8-2.1
			c1.7-0.6,3.8-0.7,5-1.8c3.7-3.5,7.6-6.9,10.3-11.1c6.3-9.8,0.6-23.9-10.7-26.6c-2.1-0.5-4.7,1-7,1.6L305.4,200.9z"/>
		<path class="st2" d="M181.7,381.3c-0.6,2.4-0.9,4.9-1.8,7.2c-5.8,16.1-7.3,32.4-3.6,49.2c2.7,12.5,5.5,25,8.2,37.6
			c0.9,4.3,2.2,8.1,8,7.8c0,0.5-0.1,1-0.1,1.6c-2,0.4-4,1.1-6,1.1c-11.9,0.3-23.4,2-34.2,7.4c-0.3,0.2-0.7,0.3-1,0.4
			c-3.9,2.4-8.6,4.7-7.5,10.1c1,5.1,6.3,5.1,10.2,5.3c15.2,0.6,30.4,0.8,45.6,1.1c3.1,0.1,5.2-0.8,7.3-4
			c5.4-8.4,14.6-10.8,23.7-12.8c11.8-2.5,23.8-4.6,35.6-7.3c7.4-1.7,13.8-5.4,18.7-11.5c0.5-0.6,1.3-0.9,2.5-0.9
			c-2.9,6.4-7.8,11.1-14.4,13.1c-9.5,3-19.1,5.6-28.8,7.5c-9.3,1.9-18.1,4-24.3,11.8c-4.5,5.7-2.9,10.3,4.4,10.7
			c10.6,0.5,21.4,0.7,32-0.2c25.2-2.3,50.4-5.3,75.6-8c2.4-0.3,4.8-0.9,7.2-1.3c0.2,0.5,0.4,1.1,0.6,1.6c-1.7,0.7-3.3,1.9-5.1,2.1
			c-20.3,2.8-40.5,6-60.9,8c-15.3,1.5-30.7,1.8-46.1,2.2c-7.8,0.2-15.6-0.9-21.4-7.2c-0.6-0.6-1.8-0.8-2.8-0.8
			c-16.5,0-33,0.6-49.4-0.4c-5.6-0.3-11.4-3.9-16.3-7.3c-3.6-2.5-2.1-8.7,2.4-10.8c6.9-3.2,14-5.8,21.3-8.1
			c5.8-1.8,11.9-2.8,18.1-4.2c-1.8-8.1-3.6-16.1-5.5-24.2c-5.7-23.9-4.7-47.5,3.4-70.6c0.8-2.3,2.9-4.2,4.5-6.2L181.7,381.3z"/>
		<path class="st2" d="M223.7,234.9c0.1-1.8,0.3-3.7,0.4-5.7c6.4,6.4,5.1,16.5-2.5,21.4c-7.3,4.7-21.6,2.3-25.6-5.5
			c-4.3-8.5-1.4-18.6,7.8-23.5c4.9-2.6,14.6-0.5,17.7,4.1c0.6,1,0.4,2.5,0.5,3.8c0.1,1.8,0.1,3.6,0.1,5.4
			C222.6,234.9,223.2,234.9,223.7,234.9z"/>
		<path class="st2" d="M293.6,317.4c5.2-3.9,9.4-7.7,14.1-10.4c3.8-2.2,6.9,0.4,9,3.8c2.1,3.4,1,6.3-1.9,8.6
			c-2.7,2.2-5.5,4.1-8.8,6.6c6.1,6.2-0.3,9.3-3.5,12.3c-9.4,9.1-19.3,17.5-29,26.2c-0.3,0.3-1,0.2-1.5,0.3c-0.4-0.4-0.7-0.8-1.1-1.2
			c10.2-9.2,20.4-18.5,30.4-27.5c-4.7-3.6-9-6.9-13.8-10.6c-18.6,16.1-35.4,35.1-56.5,49c-0.5-0.5-1.1-1.1-1.6-1.6
			c1.1-1.4,2.1-2.9,3.4-4.1c17-16.1,33.9-32.1,51-48.1C289.4,315.5,289.5,315.6,293.6,317.4z M291,319.6c1.3,8.4,7.6,12.9,14.2,10.9
			c-1.8-1.6-3.2-2.8-4.6-4.1c4-3.1,8-5.8,11.5-9.2c1.3-1.3,1-4,1.5-6.1c-1.9,0-4.5-0.8-5.7,0.1c-4.3,3.5-8.1,7.5-12.1,11.3
			C294.8,321.9,292.9,320.8,291,319.6z"/>
		<path class="st2" d="M181.8,381.5c-4-6.7-8.7-13-11.7-20.1c-2.5-5.8-3.6-12.5-4.2-18.9c-1.6-17.2,2.6-32.7,15.3-45.1
			c1-1,2.3-1.9,3.4-2.8c0.4,0.3,0.7,0.7,1.1,1c-1.1,1.7-2.1,3.5-3.4,5c-4.9,5.6-8,11.9-9.1,19.3c-2.6,17.9-1.4,35.4,8.4,50.8
			c4.9,7.7,12.7,13.5,19.1,20.1l-0.2-0.2c1.3,2,2.6,4,3.8,5.8c-9.6-1.1-15.5-9.3-22.8-15.1C181.7,381.3,181.8,381.5,181.8,381.5z"/>
		<path class="st2" d="M243,263c-0.8,11.2-5.4,20.5-13.4,28c-1.8,1.7-4.9,2.4-7.5,2.4c-5,0.2-10.1-0.3-15.1-0.7
			c-1.4-0.1-3.2-0.6-3.9-1.5c-3.9-5-7.6-10.3-10.8-16.1c6,0,9.1,8.4,16,4.3c-2.7-7.7-4-15.4,0.2-23.4c0,1.8-0.2,3.6-0.1,5.3
			c0.2,3.8,0,7.7,1,11.3c2.2,8.2,10.2,11.8,18,8.3c6.9-3.1,12-7.9,14.2-15.4C241.9,264.7,242.5,263.9,243,263z M202.9,284.6
			c1.4,4.6,4.5,4.9,8.8,4.2c-0.7-2.1-1.3-3.8-2-5.6C207.2,283.8,205.3,284.2,202.9,284.6z M227.1,285.3c-4.4-0.6-9.3-1.1-13.2-1.7
			C214.5,291,224.1,291.6,227.1,285.3z"/>
		<path class="st2" d="M305.2,201c7.5,3,11.4,9.8,10.5,18.1c-0.7,5.6-3.2,10.4-6.4,14.5c-1.7-4.8-3.2-9.2-5-14.5
			c5.2-4.8,2-11.6,1.1-18.2C305.4,200.9,305.2,201,305.2,201z"/>
		<path class="st2" d="M193.9,291.3c-15.1-8.1-18.1-36.6-9.8-49.2c-2.7,13.2-1.9,25.1,4.3,36.2c1.3,2.4,3.2,4.4,4.3,6.8
			C193.6,286.7,193.5,288.6,193.9,291.3z"/>
		<path class="st2" d="M200.9,390.9c-1.6-2.5-3.3-5-4.9-7.5c0.4-0.5,0.7-1,1.1-1.5c3.9,3.1,7.8,6.1,11.7,9.2
			c0.2-0.2,0.4-0.3,0.6-0.5c-0.8-1.1-1.7-2.2-2.6-3.5c0.5-0.6,1-1.3,1.1-1.3c5.4,3.1,10.8,6.3,16.1,9.5c-0.3,0.5-0.5,1-0.8,1.6
			c-1.5-0.1-2.9-0.2-5.1-0.4c1.2,1,1.9,1.5,2.6,2.1c-8.2,0.7-13.6-4.6-19.9-8C200.7,390.6,200.9,390.9,200.9,390.9z"/>
		<path class="st2" d="M243.8,223.6c-0.2-8.2,12.7-12.8,18.5-9.6c1,0.6,2,2.4,1.8,3.3c-0.2,1-2.3,2.7-2.9,2.4
			c-6.4-2.7-11.1,0.7-15.9,4C244.9,224,244.2,223.7,243.8,223.6z"/>
		<path class="st2" d="M228.2,394.6c-4.2-2.2-8.5-4.4-13.7-7.1c4.8-2.3,12.2,1.2,14.6,5.4C228.8,393.5,228.5,394,228.2,394.6z"/>
		<path class="st9" d="M291,319.6c1.9,1.2,3.8,2.3,4.8,2.9c4-3.8,7.8-7.9,12.1-11.3c1.2-0.9,3.8-0.1,5.7-0.1
			c-0.5,2.1-0.2,4.9-1.5,6.1c-3.4,3.4-7.5,6.1-11.5,9.2c1.5,1.3,2.9,2.6,4.6,4.1C298.6,332.5,292.2,328,291,319.6z"/>
		<path class="st9" d="M202.2,283.1c2.5-0.5,5.4-0.2,7.9-0.6c0.6,1.8,0.9,4.4,1.7,6.4C205.1,290.3,203.6,287.7,202.2,283.1z"/>
	</g>
	<path class="st10" d="M384.7,512.4c0,0,7.7-25,32.4-38.8"/>
	<path class="st10" d="M401.6,516.6c0,0,7.7-25,32.4-38.8"/>
	<path class="st10" d="M360.6,511.7c0,0,9.2-28.4,39.4-43.9"/>
	<path class="st10" d="M375.4,473.7c0,0,34-4.6,65,20.6"/>
	<path class="st10" d="M365.4,485.9c0,0,34-4.6,65,20.6"/>
	<path class="st10" d="M357.5,502.1c0,0,30.4-5.6,56.6,11.6"/>
</g>
</svg>
