<?xml version="1.0" encoding="utf-8"?>
<!-- Generator: Adobe Illustrator 22.1.0, SVG Export Plug-In . SVG Version: 6.00 Build 0)  -->
<svg version="1.1" xmlns="http://www.w3.org/2000/svg" xmlns:xlink="http://www.w3.org/1999/xlink" x="0px" y="0px"
	 viewBox="0 0 579.6 563.9" style="enable-background:new 0 0 579.6 563.9;" xml:space="preserve">
<style type="text/css">
	.st0{opacity:0.55;fill:#2BB9D2;}
	.st1{fill:#EE717C;}
	.st2{fill:#636362;}
	.st3{fill:#F0F0F1;}
	.st4{opacity:0.55;}
	.st5{fill:#2BB9D2;}
	.st6{fill:#D9072A;}
	.st7{opacity:0.54;fill:#2BB9D2;}
	.st8{fill:#676767;}
	.st9{fill:#FFFFFF;}
	.st10{fill:none;stroke:#FFFFFF;stroke-width:0.5;stroke-linecap:round;stroke-linejoin:round;stroke-miterlimit:10;}
	.st11{fill:#FFFFFF;stroke:#3E3E3E;stroke-width:5;stroke-miterlimit:10;}
	.st12{opacity:0.69;}
	.st13{fill:#070707;}
	.st14{fill:none;stroke:#FFFFFF;stroke-width:0.25;stroke-linecap:round;stroke-linejoin:round;stroke-miterlimit:10;}
	.st15{fill:none;stroke:#636362;stroke-width:2;stroke-linecap:round;stroke-linejoin:round;stroke-miterlimit:10;}
	.st16{fill:none;stroke:#636362;stroke-width:2;stroke-miterlimit:10;}
	.st17{fill:#636362;stroke:#636362;stroke-width:2;stroke-linecap:round;stroke-linejoin:round;stroke-miterlimit:10;}
	.st18{opacity:0.6;fill:#2BB9D2;}
	.st19{fill:#00A6C5;}
	.st20{fill:none;stroke:#EE717C;stroke-width:8;stroke-miterlimit:10;}
	.st21{fill:none;stroke:#444444;stroke-width:4;stroke-miterlimit:10;}
	.st22{fill:#FFFFFF;stroke:#454545;stroke-width:4;stroke-miterlimit:10;}
	.st23{opacity:0.57;fill:#2BB9D2;}
	.st24{fill:none;stroke:#636362;stroke-width:4;stroke-miterlimit:10;}
	.st25{fill:none;stroke:#636362;stroke-linecap:round;stroke-linejoin:round;stroke-miterlimit:10;}
	.st26{fill:none;stroke:#636362;stroke-miterlimit:10;}
	.st27{fill:none;stroke:#000000;stroke-miterlimit:10;}
	.st28{opacity:0.48;fill:#F09687;}
	.st29{opacity:0.46;fill:#00A6C5;}
	.st30{opacity:0.67;fill:#60B676;}
	.st31{fill:#FFFFFF;stroke:#636362;stroke-linecap:round;stroke-linejoin:round;stroke-miterlimit:10;}
	.st32{opacity:0.81;fill:#EE717C;}
	.st33{opacity:0.52;fill:#2BB9D2;}
</style>
<g id="dessin">
	
		<rect x="200.3" y="329" transform="matrix(0.6387 -0.7694 0.7694 0.6387 -231.4324 303.996)" class="st1" width="15.5" height="138.9"/>
	<path class="st1" d="M227.4,391.7l-16.3-13.6l128.3-154.6l2.6,9.2c0.5,1.9,2.2,3.3,4.2,3.5l9.5,0.9L227.4,391.7z"/>
	<polygon class="st0" points="385.6,227.7 354.4,224.7 345.7,194.5 432.9,101.4 461.1,124.8 	"/>
	<polygon class="st0" points="307.2,185.5 298.7,156.4 403.2,76.8 425.4,95.1 337.9,188.5 	"/>
	<path class="st0" d="M362.2,312.4c-2.9-2.4-3.3-6.8-0.9-9.7s6.8-3.3,9.7-0.9c2.9,2.4,3.3,6.8,0.9,9.7
		C369.5,314.5,365.2,314.9,362.2,312.4z"/>
	<polygon class="st0" points="401.6,263.8 393,234.2 468.7,131.1 490.8,149.5 431.8,266.8 	"/>
	<path class="st2" d="M497.6,150.1c1-2,0.5-4.5-1.2-6l-93.6-77.7c-1.8-1.5-4.3-1.5-6.1-0.1l-110.3,84c-1.6,1.2-2.3,3.3-1.7,5.3
		l10.3,35.5c0.6,1.9,2.2,3.3,4.2,3.5l33.6,3.3l3.5,11.8L203.7,369.5l-41.3-34.3c-2.2-1.7-5.4-1.4-7.2,0.7l-16,19.3
		c-1.7,2.2-1.3,5.3,0.8,7L254,456.9c2.1,1.8,5.2,1.5,7.1-0.5l16-19.3c1.7-2.2,1.5-5.4-0.6-7.2l-41.3-34.3l132.6-159.7l12.2,1.2
		l8.9,30.8l-19.5,23.5c-8.5-3.6-18.3,0.5-21.9,9s0.5,18.3,9,21.9s18.3-0.5,21.9-9c2.1-5.1,1.6-11-1.4-15.6l20.2-24.3l33.3,3.3
		c2,0.2,3.9-0.9,4.9-2.7L497.6,150.1z M381.9,227.5l-31.2-3l-8.7-30.1l87.3-93.1l28.2,23.4L381.9,227.5z M303.5,185.3l-8.5-29.1
		l104.5-79.6l22.1,18.4l-87.5,93.3L303.5,185.3z M256.7,446.4l-106.9-88.7l9.9-11.9l106.9,88.7L256.7,446.4z M227.6,389.3
		l-16.3-13.6l128.3-154.6l2.6,9.2c0.5,1.9,2.2,3.3,4.2,3.5l9.5,0.9L227.6,389.3z M358.5,312.2c-2.9-2.4-3.3-6.8-0.9-9.7
		c2.4-2.9,6.8-3.3,9.7-0.9c2.9,2.4,3.3,6.8,0.9,9.7C365.8,314.2,361.4,314.6,358.5,312.2z M397.8,263.6l-8.6-29.6l75.7-103.2
		l22.1,18.4l-59,117.4L397.8,263.6z"/>
	<g>
		<g>
			<path class="st8" d="M218.4,165.3c-5.2,1.6-11.6-0.4-14.3-3.7c0,0-0.2-0.7-0.5-1.5c1.8-4.7,10-9.7,15.7-7.4
				c2.7,0.8,3.6,3.8,5.8,5.5c0.2,0.7-0.8,2.7-1.5,2.9C221.9,163.4,220.6,164.6,218.4,165.3z"/>
		</g>
	</g>
	<g>
		<circle class="st9" cx="218" cy="158.9" r="3.9"/>
	</g>
	<path class="st2" d="M143.9,236.3c-15.9-9-18.2-39.5-9-52.6c-3.3,14-2.7,26.6,3.6,38.6c1.3,2.5,3.2,4.8,4.4,7.4
		C143.7,231.3,143.5,233.4,143.9,236.3"/>
	<path class="st9" d="M156.1,230.3c0,0,0.9,6.8,4.9,9.2l5.7,0.2l-1.4-9.1L156.1,230.3z"/>
	<path class="st9" d="M167.1,230.6l1.4,9.1l5.1,0.1c0,0,2.5-7,2.6-10C176.3,229.9,171.3,231.4,167.1,230.6z"/>
	<path class="st10" d="M371.6,481.7c0,0,8.8-25.3,35.5-38.8"/>
	<path class="st10" d="M389.4,486.5c0,0,8.8-25.3,35.5-38.8"/>
	<path class="st10" d="M346,480.3c0,0,10.6-28.7,43-43.7"/>
	<path class="st10" d="M362.7,441.9c0,0,36.2-3.7,68.5,22.8"/>
	<path class="st10" d="M351.7,454.1c0,0,36.2-3.7,68.5,22.8"/>
	<path class="st10" d="M342.9,470.4c0,0,32.5-4.8,59.8,13.4"/>
	<g>
		<path class="st2" d="M226.1,437.9c-1.2-0.9-2.2-2-3-3.3c-11.9,0-23.8-1-35.7-1.5c-5.6-0.2-11.2-0.3-16.8-0.5l-0.3,1.8
			c1.8,0.5,3.5,1.3,5.3,1.4c13.5,0.8,27,2.3,40.5,2.2C219.4,438,222.7,438,226.1,437.9z"/>
		<path class="st2" d="M429.3,442.6c-6.8-2.7-13.9-5.3-21.1-6.3c-12.6-1.7-25.5-2.3-38.2-3.1c-3.3-0.2-5.7-0.5-4.9-4.8
			c5.6-31.1,3.6-62.3-1.1-93.2c-4-26.2-11.7-51.5-22.4-76c-11.6-26.5-24.7-51.4-49.4-68.1c-1.8-1.2-3.7-2.3-5.6-3.4l-1.1,1.6
			c0.8,1,1.6,2.1,2.5,3.1c15.5,15.3,28.6,32.3,38.3,52c6.2,12.7,7.7,25.3,4.5,38.7c-6.8,28.7-25.3,48-50.3,61.9
			c-12.1,6.7-24.7,11.7-38.4,14.2c-1.6,0.3-2.8,2.4-4.2,3.7c1.7,0.5,3.6,1.6,5.2,1.3c5.3-1.1,10.8-1.9,15.6-4.2
			c12.7-6.3,25.5-12.7,37.5-20.2c14.7-9.2,26.3-21.9,34-37.7c3.7-7.6,6.5-15.6,9.7-23.4c3.5,8.2,5.8,16.4,7.9,24.8
			c2.2,8.6,1.1,10.1-7.9,11.6c-2.5,0.4-5,0.5-7.5,0.8c-2,0.3-4,0.7-6,1.1c-0.1,0.6-0.2,1.3-0.3,1.9c1.7,0.6,3.5,1.8,5.2,1.7
			c5-0.3,10.1-0.7,15-1.9c3.9-0.9,5.3,0.3,5.9,3.8c0.5,3.4,1.1,6.8,1.8,10.1c5.6,27.6,7.2,55.4,4.9,83.4c-0.3,3.6-1.9,5.5-4.9,7
			c-11.3,5.4-23.4,7.2-35.7,7.8c-12.2,0.6-24.5,1.2-36.7,1.8c-0.1,1.2-0.4,2.3-0.9,3.3c-0.1,0.3-0.2,0.5-0.4,0.7
			c5.9-0.2,11.7-0.4,17.6-0.6c19.1-0.7,38.3-0.8,56.6-7.5c0.2-0.1,0.6,0.2,0.9,0.4c-4.2,21.4-26.1,43.5-47.4,46.8
			c-31.9,4.9-63.9,9.2-96.3,8.1c-4.8-0.2-9.8-1-14.2-2.7c-2.4-0.9-5.2-4.2-5.3-6.5c-0.1-2.3,2.5-5.3,4.8-6.9c2.5-1.8,5.9-2.8,9-3.4
			c9.3-2,18.7-3.9,28.1-5.5c7.9-1.3,13.5-5.8,18.5-10.9c-6.9,2.5-13.7,5.8-21,7.5c-8.4,2-17.1,2.5-25.7,3.8
			c-9,1.4-17.7,3.8-24.3,10.8c-4.1,4.4-4.4,10-0.3,12.8c2.8,1.9,6,4.1,9.2,4.3c16.3,1.1,32.7,2.5,49,2c16.2-0.4,32.3-2.7,48.4-4.5
			c12.8-1.5,25.9-1.9,37.9-7.9c1.4-0.7,3.9,0.3,5.6,1.1c7.6,3.5,14.8,8.4,22.8,10.7c21.5,6.1,42.1,0.8,62.3-7
			c8.3-3.2,15.9-7.2,20.4-15.7C442,455.6,439.8,446.9,429.3,442.6z"/>
		<path class="st2" d="M140.6,356.1c-0.2,1.5-0.1,3.1-0.5,4.6c-6.1,22.1-5.2,44.3,0.9,66.1c2.1,7.4,5.6,14.4,8.9,21.4
			c0.8,1.7,3.3,2.8,5.2,3.9c1.2,0.7,2.7,1.1,4,2.9c-1.2,0.4-2.5,0.9-3.7,1.1c-9.1,1.4-18.2,2.7-27.2,4c-1.1,0.2-2.2,0.2-3.2,0.6
			c-3.6,1.5-7.7,2.9-7.6,7.9c0.1,5,4.1,5.9,7.9,6.5c13.6,2.3,27.3,4.6,40.9,6.8c1.2,0.2,2.6,0.1,3.7,0.7c1.1,0.6,1.9,1.7,2.8,2.6
			c-1.1,0.9-2.3,2.6-3.4,2.7c-3.6,0.1-7.2-0.3-10.8-0.8c-11.6-1.3-23.3-2.4-34.8-4.3c-4.6-0.8-9.3-2.9-13.3-5.5
			c-7-4.7-6.8-13.1,0.7-17c5.8-3,12.5-4.1,18.9-5.8c1.7-0.5,3.6-0.2,5.4-0.4c5.5-0.6,6.6-2,4.3-7c-7.7-17.2-9.5-35.4-9.4-53.9
			c0-9.1,1.5-18.3,3.2-27.3c0.7-3.7,3.3-7.1,5.1-10.6C139.2,355.6,139.9,355.9,140.6,356.1z"/>
		<path class="st2" d="M279.9,174.9c1.8-3,4.1-5.9,5.4-9.1c2.4-6.1,5.1-12.3,6.2-18.8c1.3-7.6-2.7-13.6-9.2-17.6
			c-5.9-3.6-11.3-1.4-16,2.2c-3.3,2.5-5.5,2-8.6-0.2c-20.7-15-43.9-20.4-68.7-14.6c-20.2,4.8-35.2,17.3-44.8,36
			c-0.8,1.6-1.9,3.1-3.7,6c-1.9-6.8,0.8-11,3.2-15c7-11.9,18-19.7,30-25.6c25.5-12.6,51.5-9,77.3-0.6c0.3,0.1,0.7,0.2,1,0.5
			c5.7,4.4,11,4.8,18.5,2.3c9.8-3.3,19.6,0.1,25.3,14.4c4.5,11.5-1.3,32-11.2,39.4c-1.1,0.8-2.4,1.2-3.6,1.9
			C280.6,175.7,280.3,175.3,279.9,174.9z"/>
		<path class="st2" d="M181.6,168.3c-1,0.7-1.1,0.8-1.3,0.9c-2.3,0.8-6.1,1.2-6.5,2.6c-1.1,3.7,1.4,5.9,4.9,7.8
			c1.5,0.8,2.4,4.8,1.8,6.8c-2,6.7-6.6,10.9-13.9,11.8c-7.3,0.9-12.8-2.2-16.6-7.8c-2.3-3.5-3.7-7.9-4.4-12.1
			c-1.4-7.8,3-15.2,10.1-18.6c7.3-3.5,17.7-2.1,22.6,3.3C179.7,164.4,180.6,166.5,181.6,168.3z"/>
		<path class="st2" d="M150.3,249.8c-1,2-1.5,3.7-2.6,4.9c-13.3,15.3-15.9,33.5-14.5,52.7c1.1,15.6,4.3,30.7,11.1,44.9
			c0.4,0.8,1,1.7,0.9,2.5c-0.3,1.8-0.9,3.5-1.4,5.2c-1.4-0.8-3.4-1.3-4.2-2.6c-6.7-11-12.4-22.5-13.2-35.6
			c-1.1-17.2-0.5-34.5,6.1-50.6c2.9-7.1,8.6-13.1,13.1-19.5c0.5-0.7,1.4-1.1,2.2-1.6C148.1,249.9,148.7,249.9,150.3,249.8z"/>
		<path class="st2" d="M198.9,218.3c-0.8,1.5-1.4,3.1-2.5,4.3c-5.1,5.8-10,11.9-15.7,17c-2.4,2.1-7,1.8-10.5,2.7
			c-10.9,2.8-16.1-6.1-23-11.5c-0.6-0.5-0.5-1.9-0.8-3.8c2.3,0.5,3.9,0.8,5.6,1.1c5.6,0.9,8.3-2.2,6.4-7.5c-1.9-5.1-3-10.2-0.2-16
			c0.8,1.2,1.9,2.4,2.3,3.8c0.4,1.5,0.1,3.2,0.3,4.8c1.5,12.8,11.3,18.4,22.8,12.7c3.2-1.6,5.9-4,9-5.9c1.7-1.1,3.7-1.9,5.5-2.8
			C198.2,217.6,198.5,217.9,198.9,218.3z M174.8,237.3c0.2-0.7,0.3-1.4,0.5-2.1c-2.3-0.6-4.5-1.3-6.8-1.9c-0.2,0.8-0.4,1.7-0.6,2.5
			C170.2,236.3,172.5,236.8,174.8,237.3z"/>
		<path class="st2" d="M142.2,342c3.1,2.5,6.1,4.9,10.1,8.2c-0.3-2.3-0.6-3.2-0.5-4.2c0-1.1,0.1-3.1,0.6-3.2
			c1.2-0.4,3.2-0.5,3.9,0.3c3.4,3.2,6.6,6.6,9.6,10.2c0.6,0.7,0.2,2.7-0.4,3.7c-0.5,0.7-2.1,0.9-3.2,0.8c-1.2-0.2-2.2-1-3.3-1.6
			c-3.5,5.1-4.2,5.4-9,1.4c-3.1-2.6-6-5.7-8.5-8.9c-1.1-1.4-1-3.7-1.4-5.6C140.8,342.7,141.5,342.3,142.2,342z"/>
		<path class="st2" d="M276.2,186.3c-8.1,17.7-13.6,35.5-8.9,55.4c-0.8,0.1-1.5,0.3-2.3,0.4c-1.1-2.1-3.1-4.2-3.2-6.4
			c-0.3-6-0.6-12.3,0.6-18.1c2.1-10,4.6-20,11.2-28.3C274.4,188.2,275.3,187.3,276.2,186.3z"/>
		<path class="st2" d="M278.9,165.1c-5.7-0.2-7.6-3.7-7-8c0.7-4.9,0.2-10,0.5-15c0.1-1.7,1-3.4,1.5-5.1c1.2,1.3,3.2,2.4,3.5,3.9
			c1.4,6.3,2.5,12.7,3.3,19.1C280.8,161.7,279.4,163.7,278.9,165.1z"/>
		<path class="st2" d="M230.8,336.9c-1.8-1.4-3.2-2.4-4.6-3.5c1.3-0.9,2.5-2.2,4-2.7c4.2-1.4,8.5-2.5,12.9-3.5
			c0.9-0.2,2.7,0.4,2.9,1c0.2,0.9-0.3,2.7-1,3.1C240.4,333.2,235.8,334.9,230.8,336.9z"/>
		<path class="st2" d="M243.9,352c-0.9,1.4-1.6,3.9-2.8,4.1c-4.9,1.1-9.9,1.7-14.8,2.1c-1,0.1-2-1.5-3.1-2.3
			c0.9-0.7,1.7-1.9,2.7-2.1c5.5-1.1,11-2,16.4-2.9C242.8,351.3,243.4,351.6,243.9,352z"/>
		<path class="st2" d="M242.4,340.7c-4.8,5.1-10.2,5.7-15.3,6.8c-0.7,0.1-2-1.3-2.5-2.3c-0.3-0.7,0.2-2.6,0.6-2.7
			C230.5,341.7,235.5,338.3,242.4,340.7z"/>
		<path class="st2" d="M167.6,347.9c-6.1-1.7-9.3-5.3-9.7-10.5C162.8,337.4,168,342.7,167.6,347.9z"/>
	</g>
</g>
<g id="tracé">
</g>
</svg>
