<?xml version="1.0" encoding="utf-8"?>
<!-- Generator: Adobe Illustrator 22.1.0, SVG Export Plug-In . SVG Version: 6.00 Build 0)  -->
<svg version="1.1" xmlns="http://www.w3.org/2000/svg" xmlns:xlink="http://www.w3.org/1999/xlink" x="0px" y="0px"
	 viewBox="0 0 579.6 563.9" style="enable-background:new 0 0 579.6 563.9;" xml:space="preserve">
<style type="text/css">
	.st0{opacity:0.55;fill:#2BB9D2;}
	.st1{fill:#EE717C;}
	.st2{fill:#636362;}
	.st3{fill:#F0F0F1;}
	.st4{opacity:0.55;}
	.st5{fill:#2BB9D2;}
	.st6{fill:#D9072A;}
	.st7{opacity:0.54;fill:#2BB9D2;}
	.st8{fill:#676767;}
	.st9{fill:#FFFFFF;}
	.st10{fill:none;stroke:#FFFFFF;stroke-width:0.5;stroke-linecap:round;stroke-linejoin:round;stroke-miterlimit:10;}
	.st11{fill:#FFFFFF;stroke:#3E3E3E;stroke-width:5;stroke-miterlimit:10;}
	.st12{opacity:0.69;}
	.st13{fill:#070707;}
	.st14{fill:none;stroke:#FFFFFF;stroke-width:0.25;stroke-linecap:round;stroke-linejoin:round;stroke-miterlimit:10;}
	.st15{fill:none;stroke:#636362;stroke-width:2;stroke-linecap:round;stroke-linejoin:round;stroke-miterlimit:10;}
	.st16{fill:none;stroke:#636362;stroke-width:2;stroke-miterlimit:10;}
	.st17{fill:#636362;stroke:#636362;stroke-width:2;stroke-linecap:round;stroke-linejoin:round;stroke-miterlimit:10;}
	.st18{opacity:0.6;fill:#2BB9D2;}
	.st19{fill:#00A6C5;}
	.st20{fill:none;stroke:#EE717C;stroke-width:8;stroke-miterlimit:10;}
	.st21{fill:none;stroke:#444444;stroke-width:4;stroke-miterlimit:10;}
	.st22{fill:#FFFFFF;stroke:#454545;stroke-width:4;stroke-miterlimit:10;}
	.st23{opacity:0.57;fill:#2BB9D2;}
	.st24{fill:none;stroke:#636362;stroke-width:4;stroke-miterlimit:10;}
	.st25{fill:none;stroke:#636362;stroke-linecap:round;stroke-linejoin:round;stroke-miterlimit:10;}
	.st26{fill:none;stroke:#636362;stroke-miterlimit:10;}
	.st27{fill:none;stroke:#000000;stroke-miterlimit:10;}
	.st28{opacity:0.48;fill:#F09687;}
	.st29{opacity:0.46;fill:#00A6C5;}
	.st30{opacity:0.67;fill:#60B676;}
	.st31{fill:#FFFFFF;stroke:#636362;stroke-linecap:round;stroke-linejoin:round;stroke-miterlimit:10;}
	.st32{opacity:0.81;fill:#EE717C;}
	.st33{opacity:0.52;fill:#2BB9D2;}
</style>
<g id="dessin">
	<path class="st2" d="M346.6,328.5c3.8-0.8,5.4,1.8,5,4.6c-0.3,2.2-2.2,4.9-4.1,6.1c-3,1.8-5.1,0.4-7.8-4.6c2.2-0.2,4-0.5,6.3-0.7
		c0.2-1.6,0.5-3.6,0.8-5.5C346.8,328.4,346.6,328.5,346.6,328.5z"/>
	<g>
		<path class="st2" d="M476.4,396.8c-3.8-2.3-7.9-4.2-12-5.8c-11.3-4.3-23.1-6.2-35.3-6c-3.3,0-5.7-0.6-4.7-5.1
			c4-17.7,4.6-35.6,3.8-53.7c-1.6-35.4-8.8-69.3-26.2-100.6c-8.1-14.6-16.4-29.1-29.9-39.5c-7.1-5.5-14.9-10-22.6-15.2
			c0.5-0.6,1.2-1.8,2-2.8c9-10.6,10.8-22.6,6.9-35.7c-3.1-10.3-14.1-15.5-23.3-10.2c-4.9,2.8-8.6,2.2-12.7-0.4
			c-7.7-4.9-28.8-9-46.1-8.2c-4.4,0.2-9.5,0.4-15.9,2.2c-2.1,0.6-14.8,4.2-23,12.7c-3,3.1-5.6,6.9-5.6,6.9c-1.5,2.3-2.6,4.3-3.4,6
			c0-0.1-0.1-0.1-0.1-0.2c-0.1,0.3-0.2,0.7-0.3,0.9c0,0.1-0.1,0.2-0.1,0.3c-0.4,0.7-1.1,2.1-1.6,2.7c-0.2,0.2-0.5,0.6-0.9,0.9
			c0.2,0.7,0.3,1.5,0.6,2.1c0.5,1.4,0.9,2.9,1.7,5.4c1-1.9,1.4-2.3,1.5-2.8c2.9-12.6,10.1-21.8,22.5-25.8c12.5-4,25.4-6.7,38.9-5.4
			c11.9,1.1,22.9,3.9,32.6,10.9c3.6,2.6,6.5,3.2,10.5,0.1c7-5.3,15.2-2.7,18.5,5.4c3.4,8.4,3.7,16.7-1.8,24.5
			c-2.1,2.9-4.1,6-6.5,8.6c-2.8,3-1.9,4.7,1.3,6.3c3.4,1.6,9.9,6.1,13.1,8.1c10.2,7.5,15,13.1,20.4,21.9
			c8.4,13.7,13.3,25.9,11.2,41.3c-0.2,1.4-0.2,2.7-0.4,4.1c-3.1,20.6-9.4,38.7-21.3,52.5c1.6,0.4,3.3,0.8,4.9,1.2
			c12.7-15.5,19.3-34.3,24.2-53.6c0.5-1.9,1.2-3.6,1.9-5.5c0.5,0,1,0,1.4-0.1c3.1,7.8,6.4,15.4,9.1,23.3c9.8,29.2,13.1,59.2,9,89.8
			c-2,15.5-5.5,30.8-13.1,44.7c-7.4,13.5-18.3,23.9-33.5,26.9c-21.3,4.1-42.9,6.9-64.6,9c-11.3,1.1-22.9,0-34.3-1.1
			c-7-0.7-8.4-6.3-3.5-11.3c1.8-1.9,4.4-3.3,6.9-4c6.8-1.9,13.6-3.5,20.5-4.9c17.7-3.5,28.8-14.8,36.4-30.4c0.3-0.7,0.1-1.7,0.3-3.8
			c-1.5,1.7-2.3,2.4-2.7,3.2c-9.7,19-26.1,27-46.4,29.5c-7.5,0.9-15,3.4-22,6.4c-4.5,1.9-6.8,6.6-6,12.1c0.8,5.5,4.2,8.7,9.5,9.4
			c7.6,0.9,14.9,0.6,22.5,0.7c5.8-0.2,9.5-0.4,14.1-0.9c25.6-2.3,51.1-5.5,76.2-11.5c1.5-0.4,3.4-0.1,4.9,0.3
			c11.6,2.9,23,6.9,34.8,8.7c14.2,2.1,28.8,2.6,42.6-2.9c10.1-4,18.8-9.9,22-21.4C485.6,409.4,483,400.8,476.4,396.8z"/>
		<path class="st2" d="M229.4,238.5c-1.4,0.6-3,1-4.2,1.9c-0.7,0.5-0.9,1.8-1.3,2.8c-7.9,22.1-23.3,36-46.3,40.8
			c-5.8,1.2-11.9,0.9-17.8,0.8c-0.6,0-1.2-0.1-1.7-0.3c-6.8,1.2-13.7-0.9-20.2-4.2c-0.9-0.3-1.7-0.7-2.5-1.2
			c1.3,1.6,3.3,3.3,4.5,5.4c-2.7-1.2-4.1-2.1-5.6-2.4c-1.2-0.2-2.6,0.3-4,0.5c0.4,1.3,0.6,2.9,1.4,3.9c1.1,1.2,2.8,2,4.2,3
			c6,4.1,6.9,3.8,9-1.9c6.7,1,13.2,2.8,19.7,2.7c19.6-0.4,36.2-8.4,49.9-22.3c7.2-7.2,12.7-15.8,15.7-25.6
			C230.7,241.4,229.7,239.9,229.4,238.5z"/>
		<path class="st2" d="M188.9,415.6c-6.1,3.9-8.4,8.4-6.9,14.1c1.6,6.2,6.8,8.1,12.2,8.4c13.8,0.7,27.7,0.9,41.5,1
			c4.2,0,8.5-0.8,12.7-1.6c1.6-0.3,2.9-1.8,4.3-2.8c-1.6-0.8-3.2-2.2-4.9-2.4c-2.3-0.3-4.8,0.5-7.1,0.6c-12.7,0.1-25.3,0.5-38-0.1
			c-3.3-0.2-8.2-3-9.1-5.7c-1.4-4.4,2.3-8.2,6.5-10.5c0.9-0.5,1.8-1,2.8-1.2c6-1.6,12-3,17.9-4.7c3.5-1,6.2-0.8,8.4,2.6
			c0.8,1.2,3.1,1.3,4.7,1.9c0.5-1.9,1.5-3.8,1.4-5.7c-0.1-1.3-1.6-2.5-2.4-3.8c-3.8-5.9-8-11.5-11.4-17.7
			c-7.6-13.8-8.5-29.1-9.4-44.4c-0.8-14.2,3.1-27.5,8.3-40.5c0.8-1.9,2.2-3.9-1.2-4.7c0,0,0.2-0.1,0.2-0.1c-0.1,0.7,0,1.4-0.3,2
			c-6.6,11.1-9.9,23.1-11.6,35.9c-2.9,21.7,1.4,41.9,11.2,61.1c4.2,8.3,4.2,8.3-5.6,10.5C213,407.8,195,412.8,188.9,415.6z"/>
		<path class="st2" d="M262.7,169.2c-0.3,7.1-5.7,8.9-10.3,11.1c-5.4,2.6-10.9,1.7-15.2-2.5c-5.1-4.9-7.5-11-6-18.1
			c1.4-7,7.5-11.3,16.5-11.9c5.7-0.4,10.9,3.2,12.5,9.3c0.4,1.4-0.6,4.4-1.5,4.6c-2.7,0.7-4.1,1.8-3.5,4.5c0.6,2.9,2.7,3.7,5.5,2.8
			C261.1,168.8,261.6,169,262.7,169.2z"/>
		<path class="st2" d="M246.1,183.5c-0.1,1.7-0.3,3.4-0.3,5.1c0.1,4.2-0.5,8.7,0.6,12.7c2.1,7.5,7.4,9.6,14.9,6.6
			c2.5-1,5-2.4,7.2-3.9c2.2-1.5,4.1-3.4,6.2-5.2c0.5,0.2,0.9,0.3,1.4,0.5c-0.6,1.8-0.6,3.9-1.7,5.2c-4.4,5.3-9,10.4-13.7,15.3
			c-1.1,1.1-2.8,1.8-4.4,2.2c-1.6,0.4-3.5-0.1-5.1,0.3c-10.6,2.7-16.4-4.6-22.4-11c-1.1-1.1-1.1-3.2-1.6-4.9
			c0.4-0.3,0.7-0.5,1.1-0.8c1.5,1,3.1,1.8,4.5,2.9c3.1,2.5,6.4,1.7,9-0.3c1-0.8,0.5-3.8,0.5-5.8c0-4.9-0.2-9.8,0.1-14.7
			c0.1-1.6,1.5-3.1,2.3-4.6C245.1,183.3,245.6,183.4,246.1,183.5z"/>
		<path class="st2" d="M228.2,164c-0.4,1.1-0.4,2.5-1.1,3.2c-8.6,8.9-8.9,20-6.7,30.8c1.5,7.2,5.6,13.7,8.4,20.6
			c0.5,1.2,0.2,2.8,0.3,4.3c-1.5-0.4-3.7-0.4-4.2-1.4c-3.5-6.7-8.5-13.4-9.6-20.6c-1.9-12.8-0.7-25.7,9.2-35.9
			c0.7-0.7,1.6-1.1,2.3-1.7C227.3,163.6,227.7,163.8,228.2,164z"/>
		<path class="st2" d="M342.6,134.7c5.1,2.9,9,15.8,6,20.7c-0.5,0.8-2,2-2.1,1.9c-2.9-2.7-7.9-5.3-8.1-8.3
			C338.1,144.4,341,139.5,342.6,134.7z"/>
		<path class="st2" d="M219.3,298.3c-8.6,1.3-17,5.2-25.9,3.9c-0.1-0.7-0.3-1.3-0.4-2c12.7-3.7,25.5-7.3,38.2-11
			c-0.1,4.1-0.4,4.3-12,9.2C219.1,298.4,219.3,298.3,219.3,298.3z"/>
		<path class="st2" d="M143.7,307.1c-0.7-0.5-2.2-1.8-3.7-3c1.7-0.9,3.4-2.1,5.3-2.5c2.3-0.4,4.8-0.5,7.1,0c1.3,0.2,2.4,1.7,3.6,2.7
			c-1,0.9-2,2.3-3.1,2.6C150.3,307.2,147.7,307,143.7,307.1z"/>
		<path class="st2" d="M346.6,327.1c3.8-0.8,5.4,1.8,5,4.6c-0.3,2.2-2.2,4.9-4.1,6.1c-3,1.8-5.1,0.4-7.8-4.6c2.2-0.2,4-0.5,6.3-0.7
			c0.2-1.6,0.5-3.6,0.8-5.5C346.8,327,346.6,327.1,346.6,327.1z"/>
		<path class="st2" d="M147.8,298.5c-1.5,0.6-3,1.7-4.1,1.5c-3.3-0.8-6.4-2.1-9.6-3.4c-0.6-0.3-1.3-1.3-1.3-1.9c0-0.6,1-1.8,1.3-1.8
			c4.2,1,8.3,2.1,12.4,3.3C147,296.3,147.2,297.2,147.8,298.5z"/>
	</g>
	<g>
		<g>
			<path class="st8" d="M296.1,156.3c-4.7,1.3-10.4-0.8-12.7-3.8c0,0-0.2-0.7-0.4-1.4c1.8-4.1,9.3-8.4,14.3-6.1
				c2.4,0.8,3.1,3.5,5.1,5.2c0.2,0.7-0.8,2.4-1.5,2.6C299.3,154.6,298.2,155.7,296.1,156.3z"/>
		</g>
	</g>
	<g>
		<circle class="st9" cx="296" cy="150.5" r="3.5"/>
	</g>
	<path class="st10" d="M424.8,435.1c0,0,8-26.1,32.4-39.9"/>
	<path class="st10" d="M441.1,440c0,0,8-26.1,32.4-39.9"/>
	<path class="st10" d="M401.5,433.7c0,0,9.6-29.6,39.3-45.1"/>
	<path class="st10" d="M416.8,394.1c0,0,33-3.8,62.5,23.5"/>
	<path class="st10" d="M406.7,406.7c0,0,33-3.8,62.5,23.5"/>
	<path class="st10" d="M398.7,423.5c0,0,29.7-5,54.6,13.8"/>
	<path class="st9" d="M239.3,211.7c0,0,0.9,5.4,4.2,7.2h4.6l-1.4-7.2H239.3z"/>
	<path class="st9" d="M248.1,211.7l1.4,7.2h4.2c0,0,1.9-5.6,1.9-8C255.5,210.9,251.4,212.3,248.1,211.7z"/>
	<g>
		<g>
			<path class="st22" d="M428.6,332.4h-27.5c-13.1,13.7-46,17.1-65.9,17.1c-19.8,0-52.8-3.4-65.9-17.1h-18.8
				c-13.1,13.7-46,17.1-65.9,17.1c-19.8,0-52.8-3.4-65.9-17.1H91.4c-3.1,0-5.6,2.3-5.6,5.1v12.5c0,2.8,2.5,5.1,5.6,5.1h15.4
				c0,4.1,0,86.9,0,111.6c0,3.7,3.3,6.8,7.3,6.8h291.7c4.1,0,7.3-3,7.3-6.8c0-24.8,0-107.5,0-111.6h15.4c3.1,0,5.6-2.3,5.6-5.1
				v-12.5h0C434.2,334.7,431.7,332.4,428.6,332.4z"/>
		</g>
	</g>
	<g class="st4">
		<g>
			<path class="st5" d="M430.8,329.7h-28c-13.3,13.7-46.8,17.1-67,17.1c-20.2,0-53.7-3.4-67-17.1h-19.1
				c-13.3,13.7-46.8,17.1-67,17.1c-20.2,0-53.7-3.4-67-17.1h-28c-3.1,0-5.7,2.3-5.7,5.1v12.5c0,2.8,2.5,5.1,5.7,5.1h15.7
				c0,4.1,0,86.9,0,111.6c0,3.7,3.3,6.8,7.5,6.8h296.9c4.1,0,7.5-3,7.5-6.8c0-24.8,0-107.5,0-111.6h15.7c3.1,0,5.7-2.3,5.7-5.1
				v-12.5h0C436.5,332,434,329.7,430.8,329.7z"/>
		</g>
	</g>
	<g>
		<g>
			<path class="st9" d="M181.5,302.5c-33.2,0-60.1,8.3-60.1,18.4s26.9,18.4,60.1,18.4s60.1-8.3,60.1-18.4
				C241.5,310.7,214.7,302.5,181.5,302.5z M181.5,328.1c-13,0-23.5-3.2-23.5-7.2c0-4,10.5-7.2,23.5-7.2c13,0,23.5,3.2,23.5,7.2
				S194.5,328.1,181.5,328.1z"/>
		</g>
	</g>
	<g>
		<g>
			<path class="st9" d="M334.6,302.5c-33.2,0-60.1,8.3-60.1,18.4c0,10.2,26.9,18.4,60.1,18.4c33.2,0,60.1-8.3,60.1-18.4
				C394.7,310.7,367.8,302.5,334.6,302.5z M334.6,328.1c-13,0-23.5-3.2-23.5-7.2s10.5-7.2,23.5-7.2s23.5,3.2,23.5,7.2
				S347.6,328.1,334.6,328.1z"/>
		</g>
	</g>
	<g>
		<g>
			<path class="st1" d="M226.3,115c-0.1,0.1-0.2,0.1-0.3,0.2c0,0.2,0.1,0.5,0.1,0.7C226.1,115.7,226.2,115.4,226.3,115z"/>
			<path class="st1" d="M356,138.5c-5.6-7.1-32.6-39.9-73.6-40.7c-7.4-0.1-39-0.7-51.7,19.8c-7.2,11.6-7.1,28-5.3,28.5
				c1,0.3,3.1-4.4,4.9-8.9c7.3-14.9,27.9-25.6,52.2-25.6c30.3,0,55.1,16.8,55.1,37.5v26.3c2.8,1.1,5.9,1.7,9.1,1.7
				c12.4,0,22.5-9.1,22.5-20.2C369.1,148.8,363.7,141.7,356,138.5z"/>
		</g>
	</g>
	<g>
		<g>
			<path class="st1" d="M183.8,306c-33.2,0-60.1,8.3-60.1,18.4s26.9,18.4,60.1,18.4s60.1-8.3,60.1-18.4
				C243.9,314.2,217,306,183.8,306z M183.8,331.6c-13,0-23.5-3.2-23.5-7.2c0-4,10.5-7.2,23.5-7.2c13,0,23.5,3.2,23.5,7.2
				S196.8,331.6,183.8,331.6z"/>
		</g>
	</g>
	<g>
		<g>
			<path class="st1" d="M337,306c-33.2,0-60.1,8.3-60.1,18.4c0,10.2,26.9,18.4,60.1,18.4c33.2,0,60.1-8.3,60.1-18.4
				C397.1,314.2,370.2,306,337,306z M337,331.6c-13,0-23.5-3.2-23.5-7.2s10.5-7.2,23.5-7.2s23.5,3.2,23.5,7.2S350,331.6,337,331.6z"
				/>
		</g>
	</g>
	<path class="st2" d="M316,327.7c6.6-4,12.2-7.4,18.4-11.1c1.2,5.9-1.9,8.4-5.5,10.1C325.4,328.4,321.7,331.8,316,327.7z"/>
	<path class="st2" d="M303.7,325.6c7.6-4.2,13.8-7.7,20.7-11.6C323.5,322.6,315,327.3,303.7,325.6z"/>
	<path class="st2" d="M333.5,324.5c-1.6,0.5-2.8,2.5-4.2,3.7c1.9,0.6,4,2.1,5.6,1.7c4.5-1,8.8-2.8,13.2-4.3c0,0-0.2,0.1-0.2,0.1
		c8.3-6.8,17.7-12.7,24.6-20.7c0.5-0.6,1.1-1.3,1.6-1.9c-1.6-0.4-3.3-0.8-4.9-1.2C360.6,312,349,319.7,333.5,324.5z"/>
</g>
<g id="tracé">
</g>
</svg>
