<?xml version="1.0" encoding="utf-8"?>
<!-- Generator: Adobe Illustrator 22.1.0, SVG Export Plug-In . SVG Version: 6.00 Build 0)  -->
<svg version="1.1" xmlns="http://www.w3.org/2000/svg" xmlns:xlink="http://www.w3.org/1999/xlink" x="0px" y="0px"
	 viewBox="0 0 579.6 563.9" style="enable-background:new 0 0 579.6 563.9;" xml:space="preserve">
<style type="text/css">
	.st0{opacity:0.55;fill:#2BB9D2;}
	.st1{fill:#EE717C;}
	.st2{fill:#636362;}
	.st3{fill:#F0F0F1;}
	.st4{opacity:0.55;}
	.st5{fill:#2BB9D2;}
	.st6{fill:#D9072A;}
	.st7{opacity:0.54;fill:#2BB9D2;}
	.st8{fill:#676767;}
	.st9{fill:#FFFFFF;}
	.st10{fill:none;stroke:#FFFFFF;stroke-width:0.5;stroke-linecap:round;stroke-linejoin:round;stroke-miterlimit:10;}
	.st11{fill:#FFFFFF;stroke:#3E3E3E;stroke-width:5;stroke-miterlimit:10;}
	.st12{opacity:0.69;}
	.st13{fill:#070707;}
	.st14{fill:none;stroke:#FFFFFF;stroke-width:0.25;stroke-linecap:round;stroke-linejoin:round;stroke-miterlimit:10;}
	.st15{fill:none;stroke:#636362;stroke-width:2;stroke-linecap:round;stroke-linejoin:round;stroke-miterlimit:10;}
	.st16{fill:none;stroke:#636362;stroke-width:2;stroke-miterlimit:10;}
	.st17{fill:#636362;stroke:#636362;stroke-width:2;stroke-linecap:round;stroke-linejoin:round;stroke-miterlimit:10;}
	.st18{opacity:0.6;fill:#2BB9D2;}
	.st19{fill:#00A6C5;}
	.st20{fill:none;stroke:#EE717C;stroke-width:8;stroke-miterlimit:10;}
	.st21{fill:none;stroke:#444444;stroke-width:4;stroke-miterlimit:10;}
	.st22{fill:#FFFFFF;stroke:#454545;stroke-width:4;stroke-miterlimit:10;}
	.st23{opacity:0.57;fill:#2BB9D2;}
	.st24{fill:none;stroke:#636362;stroke-width:4;stroke-miterlimit:10;}
	.st25{fill:none;stroke:#636362;stroke-linecap:round;stroke-linejoin:round;stroke-miterlimit:10;}
	.st26{fill:none;stroke:#636362;stroke-miterlimit:10;}
	.st27{fill:none;stroke:#000000;stroke-miterlimit:10;}
	.st28{opacity:0.48;fill:#F09687;}
	.st29{opacity:0.46;fill:#00A6C5;}
	.st30{opacity:0.67;fill:#60B676;}
	.st31{fill:#FFFFFF;stroke:#636362;stroke-linecap:round;stroke-linejoin:round;stroke-miterlimit:10;}
	.st32{opacity:0.81;fill:#EE717C;}
	.st33{opacity:0.52;fill:#2BB9D2;}
</style>
<g id="dessin">
</g>
<g id="tracé">
	<path class="st1" d="M426.9,327.5c0.9,0,1.8,0.1,2.7,0.3c1.2,0.2,2.3-0.4,2.7-1.5c1.9-5.4,7.1-9.1,12.9-9.1
		c5.6,0,10.7,3.5,12.7,8.6c-6.4,2.3-11.1,8.4-11.1,15.6c0,1.3,1.1,2.4,2.4,2.4s2.4-1.1,2.4-2.4c0-6.5,5.3-11.7,11.7-11.7
		c2.9,0,5.6,1,7.8,3c0.8,0.8,2.1,0.8,3,0.1c1.6-1.2,3.6-1.9,5.6-1.9c5.2,0,9.4,4.2,9.4,9.4c0,2-0.6,4-1.9,5.6
		c-0.5,0.6-0.6,1.5-0.3,2.2s0.9,1.3,1.7,1.5c4.2,1.1,7.1,4.8,7.1,9.1c0,5.2-4.2,9.4-9.4,9.4c-0.6,0-1.2-0.1-1.8-0.2
		c-1.2-0.2-2.3,0.4-2.7,1.5c-0.2,0.5-0.4,1-0.7,1.5h-3l9.8-14c0.4-0.5,0.5-1.2,0.4-1.8c-0.1-0.6-0.5-1.2-1-1.5l-6.9-4.6
		c-0.5-0.4-1.2-0.5-1.8-0.3c-0.6,0.1-1.2,0.5-1.5,1.1l-3.5,5.8l2.8-14.4c0.3-1.3-0.6-2.5-1.9-2.8l-6.1-1.2c-0.6-0.1-1.3,0-1.8,0.4
		c-0.5,0.4-0.9,0.9-1,1.5l-0.8,4.2h-5.6c-1.3,0-2.4,1.1-2.4,2.4v13.7c-1.6-8.1-8.7-14.2-17.3-14.2c-3.9,0-7.5,1.2-10.6,3.5
		c-2.5,1.9-4.5,4.5-5.7,7.4c0.3-1.8,0.5-3.2,0.5-4.1c0-3.2-0.9-6.3-2.4-8.9c1.3-3.4,4.5-5.7,8.2-5.7c0.6,0,1.2,0.1,1.7,0.2
		c1.2,0.2,2.3-0.4,2.7-1.5c0.5-1.4,1.4-2.7,2.6-3.7c1-0.9,1.1-2.4,0.3-3.4c-0.9-1-2.4-1.1-3.4-0.3c-1.3,1.1-2.4,2.5-3.2,4
		c-0.3,0-0.5,0-0.8,0c-4.7,0-9,2.5-11.4,6.4c-1.1-1.1-2.4-2.1-3.8-2.9C416.4,330.9,421.4,327.5,426.9,327.5z"/>
	<polygon class="st1" points="493.8,389.2 503.7,372.7 506.9,374.8 495.5,391.1 493.4,391.1 	"/>
	<path class="st1" d="M490.5,378.6v-7.3c0-0.1,0-0.1,0-0.2l2.2-11.9l1.5,0.3L490.5,378.6z"/>
	<path class="st1" d="M483.6,386.5c0-0.1,0-0.2,0-0.3v-20.7h1.6v25.5h-0.8c0-0.2,0-0.3,0-0.5C484.3,389.2,484.1,387.8,483.6,386.5z"
		/>
	<path class="st1" d="M452.4,365.1c2.9,0,5.2,2.4,5.2,5.5c0,0.2,0,0.3,0,0.4h-10.4c0-0.1,0-0.3,0-0.4
		C447.1,367.5,449.5,365.1,452.4,365.1z"/>
	<path class="st1" d="M428.9,355.7c-0.1,0-0.1,0-0.2,0c2.3-3.6,6.4-5.9,10.8-5.9c6.3,0,11.5,4.5,12.6,10.5c-3.3,0-6.2,1.7-8,4.2
		C441.1,359.2,435.4,355.7,428.9,355.7z"/>
	<path class="st1" d="M441.5,370.9h-24.9h-0.4c1.1-6,6.4-10.5,12.6-10.5S440.4,364.9,441.5,370.9z"/>
	<path class="st1" d="M388.5,349.9c0.1,0,0.3,0,0.5,0h11.8c1.3,0,2.4-1.1,2.4-2.4s-1.1-2.4-2.4-2.4h-10.6c2.6-4.4,7.6-7.4,13.4-7.4
		c8.4,0,15.2,6.3,15.2,14c0,0.6-0.1,1.8-0.5,3.9H409c-1.3,0-2.4,1.1-2.4,2.4s1.1,2.4,2.4,2.4h7.9c-2.9,2.7-4.9,6.4-5.4,10.5h-19
		c-2.6-9.7-4.1-16.6-4.1-19.1C388.4,351.1,388.5,350.5,388.5,349.9z"/>
	<path class="st1" d="M500.9,390.4h-21c-1.3,0-2.4,1.1-2.4,2.4s1.1,2.4,2.4,2.4h21V410h-75.1c-1.3,0-2.4,1.1-2.4,2.4
		s1.1,2.4,2.4,2.4h75.1v14.8H388.4v-14.8h21c1.3,0,2.4-1.1,2.4-2.4s-1.1-2.4-2.4-2.4h-21v-14.8h75.1c1.3,0,2.4-1.1,2.4-2.4
		s-1.1-2.4-2.4-2.4h-75.1v-14.8h2.3h110.2V390.4z"/>
	<g>
		<g>
			<path class="st2" d="M411.9,431.7L411.9,431.7c-1.1-0.8-2.6-0.6-3.4,0.4c-0.8,1-0.6,2.5,0.4,3.3l0,0c0.4,0.3,0.9,0.5,1.4,0.5
				c0.7,0,1.4-0.3,1.9-0.9C413.1,434,412.9,432.5,411.9,431.7z"/>
		</g>
	</g>
	<g>
		<g>
			<path class="st2" d="M411.9,412.2L411.9,412.2c-1.1-0.8-2.6-0.6-3.4,0.4c-0.8,1-0.6,2.5,0.4,3.3l0,0c0.4,0.3,0.9,0.5,1.4,0.5
				c0.7,0,1.4-0.3,1.9-0.9C413.1,414.5,412.9,413,411.9,412.2z"/>
		</g>
	</g>
	<g>
		<g>
			<path class="st2" d="M411.9,392.6L411.9,392.6c-1.1-0.8-2.6-0.6-3.4,0.4c-0.8,1-0.6,2.5,0.4,3.3l0,0c0.4,0.3,0.9,0.5,1.4,0.5
				c0.7,0,1.4-0.3,1.9-0.9C413.1,394.9,412.9,393.4,411.9,392.6z"/>
		</g>
	</g>
	<g>
		<g>
			<path class="st2" d="M529.7,458.4L529.7,458.4c-1.2-0.9-2.8-0.7-3.7,0.5c-0.9,1.2-0.7,2.8,0.5,3.7l0,0c0.5,0.4,1,0.5,1.6,0.5
				c0.8,0,1.6-0.4,2.1-1C531.1,461,530.9,459.3,529.7,458.4z"/>
		</g>
	</g>
	<g>
		<g>
			<path class="st2" d="M529.7,436.8L529.7,436.8c-1.2-0.9-2.8-0.7-3.7,0.5c-0.9,1.2-0.7,2.8,0.5,3.7l0,0c0.5,0.4,1,0.5,1.6,0.5
				c0.8,0,1.6-0.4,2.1-1C531.1,439.3,530.9,437.7,529.7,436.8z"/>
		</g>
	</g>
	<g>
		<g>
			<path class="st2" d="M529.7,415.1L529.7,415.1c-1.2-0.9-2.8-0.7-3.7,0.5c-0.9,1.2-0.7,2.8,0.5,3.7l0,0c0.5,0.4,1,0.5,1.6,0.5
				c0.8,0,1.6-0.4,2.1-1C531.1,417.7,530.9,416,529.7,415.1z"/>
		</g>
	</g>
	<g>
		<g>
			<path class="st2" d="M507.4,425.4L507.4,425.4c-1.5,0-2.7,1.2-2.7,2.6s1.2,2.6,2.6,2.6h0c1.5,0,2.6-1.2,2.6-2.6
				S508.9,425.4,507.4,425.4z"/>
		</g>
	</g>
	<g>
		<g>
			<path class="st2" d="M429.1,421.4L429.1,421.4c-1.3,0-2.4,1.1-2.4,2.4s1.1,2.4,2.4,2.4h0c1.3,0,2.4-1.1,2.4-2.4
				S430.5,421.4,429.1,421.4z"/>
		</g>
	</g>
	<g>
		<g>
			<path class="st2" d="M403,356.5c-0.4-0.4-1.1-0.7-1.7-0.7s-1.2,0.3-1.7,0.7c-0.4,0.4-0.7,1.1-0.7,1.7c0,0.6,0.3,1.2,0.7,1.7
				c0.4,0.4,1.1,0.7,1.7,0.7c0.6,0,1.2-0.3,1.7-0.7c0.4-0.4,0.7-1.1,0.7-1.7C403.7,357.5,403.5,356.9,403,356.5z"/>
		</g>
	</g>
	<g>
		<g>
			<path class="st2" d="M503.4,371h-9.9c4.3-2.4,7.1-7,7.1-12.3c0-5.5-3.1-10.3-7.8-12.7c0.8-1.8,1.2-3.8,1.2-5.8
				c0-7.8-6.4-14.2-14.2-14.2c-2.5,0-4.8,0.6-6.9,1.8c-2.8-2-6.1-3-9.5-3c-0.2,0-0.5,0-0.7,0c-2.5-7.3-9.5-12.5-17.4-12.5
				c-7.1,0-13.6,4.1-16.6,10.5c-0.6-0.1-1.1-0.1-1.7-0.1c-7.5,0-14.1,4.5-17,11.3c-0.5-0.2-1-0.3-1.5-0.4c0.3-3,1.2-5.4,2.9-6.9
				c1.4-1.4,2.9-1.7,2.9-1.7l0,0l0,0c0.5-0.1,1-0.3,1.3-0.7c0.4-0.4,0.7-1.1,0.7-1.7c0-0.6-0.3-1.2-0.7-1.7
				c-0.4-0.4-1.1-0.7-1.7-0.7c-0.1,0-0.3,0-0.4,0l0,0c-1.4,0.2-3.3,1-5.1,2.6v-8.2c0-1.3-1.1-2.4-2.4-2.4h-5.7
				c-1.3,0-2.4,1.1-2.4,2.4v8.9c-2.7-3.4-5.7-5.3-5.9-5.5c-1.1-0.7-2.6-0.4-3.3,0.7c-0.7,1.1-0.4,2.6,0.7,3.3
				c0.1,0.1,7.3,4.9,8.4,11.8c-8.1,2.4-13.9,9.5-13.9,17.9c0,3.5,2,11.8,3.9,19.1h-1.5c-1.3,0-2.4,1.1-2.4,2.4V432
				c0,1.3,1.1,2.4,2.4,2.4h117.2c1.3,0,2.4-1.1,2.4-2.4v-58.6C505.7,372,504.7,371,503.4,371z M426.9,327.5c0.9,0,1.8,0.1,2.7,0.3
				c1.2,0.2,2.3-0.4,2.7-1.5c1.9-5.4,7.1-9.1,12.9-9.1c5.6,0,10.7,3.5,12.7,8.6c-6.4,2.3-11.1,8.4-11.1,15.6c0,1.3,1.1,2.4,2.4,2.4
				s2.4-1.1,2.4-2.4c0-6.5,5.3-11.7,11.7-11.7c2.9,0,5.6,1,7.8,3c0.8,0.8,2.1,0.8,3,0.1c1.6-1.2,3.6-1.9,5.6-1.9
				c5.2,0,9.4,4.2,9.4,9.4c0,2-0.6,4-1.9,5.6c-0.5,0.6-0.6,1.5-0.3,2.2s0.9,1.3,1.7,1.5c4.2,1.1,7.1,4.8,7.1,9.1
				c0,5.2-4.2,9.4-9.4,9.4c-0.6,0-1.2-0.1-1.8-0.2c-1.2-0.2-2.3,0.4-2.7,1.5c-0.2,0.5-0.4,1-0.7,1.5h-3l9.8-14
				c0.4-0.5,0.5-1.2,0.4-1.8c-0.1-0.6-0.5-1.2-1-1.5l-6.9-4.6c-0.5-0.4-1.2-0.5-1.8-0.3c-0.6,0.1-1.2,0.5-1.5,1.1l-3.5,5.8l2.8-14.4
				c0.3-1.3-0.6-2.5-1.9-2.8l-6.1-1.2c-0.6-0.1-1.3,0-1.8,0.4c-0.5,0.4-0.9,0.9-1,1.5l-0.8,4.2h-5.6c-1.3,0-2.4,1.1-2.4,2.4v13.7
				c-1.6-8.1-8.7-14.2-17.3-14.2c-3.9,0-7.5,1.2-10.6,3.5c-2.5,1.9-4.5,4.5-5.7,7.4c0.3-1.8,0.5-3.2,0.5-4.1c0-3.2-0.9-6.3-2.4-8.9
				c1.3-3.4,4.5-5.7,8.2-5.7c0.6,0,1.2,0.1,1.7,0.2c1.2,0.2,2.3-0.4,2.7-1.5c0.5-1.4,1.4-2.7,2.6-3.7c1-0.9,1.1-2.4,0.3-3.4
				c-0.9-1-2.4-1.1-3.4-0.3c-1.3,1.1-2.4,2.5-3.2,4c-0.3,0-0.5,0-0.8,0c-4.7,0-9,2.5-11.4,6.4c-1.1-1.1-2.4-2.1-3.8-2.9
				C416.4,330.9,421.4,327.5,426.9,327.5z M470.9,369.2l9-14.9l2.8,1.9L472.4,371h-1.9L470.9,369.2z M467.9,359.7v-6.6
				c0-0.1,0-0.1,0-0.2l2-10.7l1.4,0.3L467.9,359.7z M461.7,366.8c0-0.1,0-0.2,0-0.3v-18.6h1.4v23h-0.8c0-0.1,0-0.3,0-0.4
				C462.4,369.2,462.1,368,461.7,366.8z M429,355.7c-0.1,0-0.1,0-0.2,0c2.3-3.6,6.4-5.9,10.8-5.9c6.3,0,11.5,4.5,12.6,10.5
				c-3.3,0-6.2,1.7-8,4.2C441.2,359.3,435.5,355.7,429,355.7z M441.7,371h-24.9h-0.4c1.1-6,6.4-10.5,12.6-10.5
				C435.3,360.5,440.6,365,441.7,371z M452.4,365.1c2.9,0,5.2,2.4,5.2,5.5c0,0.2,0,0.3,0,0.4h-10.4c0-0.1,0-0.3,0-0.4
				C447.1,367.5,449.5,365.1,452.4,365.1z M402.6,317.1h1v16c-0.3,0-0.6,0-1,0V317.1z M388.7,350c0.1,0,0.3,0,0.5,0h11.8
				c1.3,0,2.4-1.1,2.4-2.4s-1.1-2.4-2.4-2.4h-10.6c2.6-4.4,7.6-7.4,13.4-7.4c8.4,0,15.2,6.3,15.2,14c0,0.6-0.1,1.8-0.5,3.9h-9.5
				c-1.3,0-2.4,1.1-2.4,2.4c0,1.3,1.1,2.4,2.4,2.4h7.9c-2.9,2.7-4.9,6.4-5.4,10.5h-19c-2.6-9.7-4.1-16.6-4.1-19.1
				C388.5,351.2,388.6,350.6,388.7,350z M501,390.5h-21c-1.3,0-2.4,1.1-2.4,2.4s1.1,2.4,2.4,2.4h21V410h-75.1
				c-1.3,0-2.4,1.1-2.4,2.4s1.1,2.4,2.4,2.4H501v14.8H388.5v-14.8h21c1.3,0,2.4-1.1,2.4-2.4s-1.1-2.4-2.4-2.4h-21v-14.8h75.1
				c1.3,0,2.4-1.1,2.4-2.4s-1.1-2.4-2.4-2.4h-75.1v-14.8h2.3H501V390.5z"/>
		</g>
	</g>
	<path class="st0" d="M166.1,429.7C166.1,429.7,166.1,429.7,166.1,429.7c1.9,1.9,1.9,5,0,6.9l-3.5,3.5c-2.1-2.1-57.2-57.2-62.3-62.3
		l3.5-3.5c1.9-1.9,5-1.9,6.9,0L166.1,429.7z"/>
	
		<rect x="144" y="386.8" transform="matrix(0.7071 -0.7071 0.7071 0.7071 -233.352 219.9723)" class="st0" width="9.8" height="9.8"/>
	<path class="st0" d="M350.3,208.2c-62.5,58.8-125,117.7-187.6,176.5l-6.9-6.9c64-57.5,127.9-115,191.9-172.4
		C348.5,206.3,349.4,207.3,350.3,208.2z"/>
	<path class="st2" d="M185.7,330.2c2.9,2.3,5.7,4.6,9.4,7.6c-0.3-2.1-0.5-3-0.5-3.9c0-1.1,0.1-2.9,0.6-3c1.1-0.4,2.9-0.4,3.7,0.2
		c3.2,3,6.1,6.2,8.9,9.5c0.5,0.7,0.2,2.6-0.4,3.4c-0.4,0.6-2,0.9-3,0.7c-1.1-0.2-2.1-1-3.1-1.5c-3.3,4.8-3.9,5-8.4,1.3
		c-2.9-2.4-5.6-5.3-7.9-8.3c-1-1.3-0.9-3.4-1.3-5.2C184.5,330.8,185.1,330.5,185.7,330.2z"/>
	<path class="st2" d="M219.6,339.1c-5.7-1.6-8.7-4.9-9-9.8C215.2,329.2,220,334.2,219.6,339.1z"/>
	<g>
		<path class="st2" d="M311,166c1.7,1.1,3.5,2,5.2,3.2c23,15.6,35.2,38.8,46,63.4c10,22.8,17.2,46.3,20.9,70.7
			c4.4,28.8,6.2,57.8,1,86.7c-0.7,4,1.5,4.3,4.6,4.5c11.9,0.8,23.8,1.3,35.6,2.9c6.7,0.9,13.3,3.3,19.7,5.8
			c9.7,3.9,11.9,12.1,7,21.3c-4.2,8-11.3,11.6-19,14.6c-18.7,7.3-37.9,12.2-58,6.6c-7.4-2.1-14.1-6.7-21.2-9.9c-1.6-0.7-4-1.7-5.2-1
			c-11.2,5.5-23.3,6-35.3,7.3c-15,1.7-30,3.8-45.1,4.2c-15.2,0.4-30.5-0.9-45.7-1.9c-2.9-0.2-6-2.2-8.6-4c-3.8-2.6-3.5-7.8,0.3-11.9
			c6.1-6.5,14.2-8.7,22.6-10c8-1.2,16.1-1.7,23.9-3.6c6.7-1.6,13.1-4.6,19.5-7c-4.7,4.8-9.9,8.9-17.2,10.2
			c-8.8,1.5-17.5,3.2-26.2,5.1c-2.9,0.6-6,1.5-8.4,3.2c-2.1,1.5-4.5,4.3-4.4,6.5c0.1,2.2,2.7,5.2,4.9,6.1c4.1,1.6,8.8,2.4,13.2,2.5
			c30.2,1,60-3,89.7-7.5c19.9-3.1,40.2-23.7,44.1-43.6c-0.3-0.1-0.6-0.4-0.9-0.4c-17,6.2-34.9,6.3-52.7,7c-25.3,1-50.7,1.7-76,1.9
			c-12.6,0.1-25.1-1.2-37.7-2c-1.7-0.1-3.3-0.9-4.9-1.3c0.1-0.6,0.2-1.1,0.2-1.7c5.2,0.1,10.4,0.2,15.7,0.4
			c12.9,0.5,25.8,1.6,38.7,1.3c27.7-0.7,55.3-2.1,83-3.5c11.4-0.6,22.7-2.3,33.3-7.3c2.8-1.4,4.3-3.2,4.6-6.5
			c2.1-26.1,0.7-52-4.5-77.6c-0.6-3.1-1.2-6.3-1.7-9.4c-0.5-3.3-1.9-4.4-5.5-3.6c-4.5,1.1-9.3,1.5-13.9,1.7c-1.6,0.1-3.2-1-4.8-1.5
			c0.1-0.6,0.2-1.2,0.3-1.8c1.9-0.3,3.7-0.8,5.6-1c2.3-0.3,4.7-0.4,7-0.8c8.4-1.4,9.3-2.7,7.3-10.8c-1.9-7.7-4.1-15.4-7.3-23
			c-3,7.3-5.6,14.7-9,21.8c-7.2,14.7-18,26.5-31.7,35.1c-11.2,7-23,13-34.9,18.8c-4.4,2.2-9.6,2.9-14.5,3.9
			c-1.5,0.3-3.2-0.8-4.9-1.2c1.3-1.2,2.4-3.2,3.9-3.5c12.7-2.3,24.5-6.9,35.7-13.2c23.3-13,40.5-30.9,46.8-57.6
			c3-12.5,1.6-24.2-4.2-36.1c-9-18.4-21.2-34.1-35.6-48.4c-0.9-0.9-1.6-1.9-2.3-2.8C310.3,167,310.6,166.5,311,166z"/>
		<path class="st2" d="M175.1,322.8c-0.1,1.4-0.1,2.9-0.5,4.2c-5.6,20.6-4.9,41.2,0.8,61.6c1.9,6.9,5.2,13.4,8.3,19.9
			c0.8,1.6,3.1,2.6,4.8,3.6c1.2,0.7,2.5,1,3.7,2.7c-1.2,0.4-2.3,0.9-3.5,1.1c-8.4,1.3-16.9,2.5-25.4,3.7c-1,0.1-2.1,0.2-3,0.6
			c-3.4,1.4-7.2,2.7-7.1,7.4c0.1,4.7,3.8,5.5,7.4,6.1c12.7,2.2,25.4,4.2,38.1,6.4c1.2,0.2,2.4,0.1,3.4,0.6c1,0.5,1.8,1.6,2.6,2.4
			c-1.1,0.9-2.1,2.5-3.2,2.5c-3.3,0.1-6.7-0.3-10-0.7c-10.8-1.2-21.7-2.2-32.4-4c-4.3-0.7-8.7-2.7-12.4-5.1
			c-6.5-4.3-6.4-12.2,0.7-15.8c5.4-2.8,11.7-3.8,17.6-5.4c1.6-0.4,3.3-0.2,5-0.4c5.1-0.6,6.1-1.8,4-6.5c-7.1-16-8.8-33-8.8-50.2
			c0-8.5,1.4-17,2.9-25.4c0.6-3.5,3.1-6.6,4.7-9.9C173.8,322.3,174.5,322.5,175.1,322.8z"/>
		<path class="st2" d="M304.8,154.1c1.7-2.8,3.8-5.5,5-8.5c2.3-5.7,4.7-11.5,5.8-17.5c1.2-7.1-2.5-12.6-8.6-16.4
			c-5.5-3.4-10.5-1.3-14.9,2.1c-3,2.3-5.1,1.9-8-0.2c-19.3-13.9-40.8-19-63.9-13.5c-18.8,4.5-32.8,16.1-41.7,33.6
			c-0.8,1.5-1.8,2.9-3.4,5.5c-1.8-6.4,0.8-10.3,3-14c6.6-11.1,16.8-18.3,28-23.9c23.7-11.7,47.9-8.3,72-0.6c0.3,0.1,0.6,0.2,0.9,0.4
			c5.3,4.1,10.2,4.5,17.2,2.2c9.2-3.1,18.3,0.1,23.5,13.4c4.2,10.7-1.3,29.8-10.5,36.7c-1,0.7-2.2,1.2-3.4,1.7
			C305.5,154.8,305.1,154.5,304.8,154.1z"/>
		<path class="st2" d="M213.3,147.9c-0.9,0.6-1,0.7-1.2,0.8c-2.1,0.8-5.7,1.1-6.1,2.4c-1,3.4,1.3,5.5,4.6,7.2
			c1.4,0.7,2.2,4.4,1.7,6.3c-1.8,6.3-6.1,10.1-12.9,11c-6.8,0.9-11.9-2.1-15.4-7.3c-2.2-3.2-3.4-7.3-4.1-11.2
			c-1.3-7.2,2.8-14.1,9.4-17.3c6.8-3.3,16.4-2,21.1,3C211.6,144.3,212.3,146.3,213.3,147.9z"/>
		<path class="st2" d="M176.5,222.9c-0.7,2-0.9,3.6-1.7,4.9c-10.1,15.9-9.9,33-6,50.6c3.2,14.2,8.2,27.6,16.5,39.7
			c0.5,0.7,1.2,1.4,1.2,2.2c0,1.7-0.3,3.3-0.6,5c-1.4-0.6-3.3-0.7-4.2-1.8c-7.7-9.2-14.6-19-17.2-31c-3.4-15.7-5.3-31.6-1.5-47.4
			c1.7-7,6.1-13.3,9.3-19.8c0.3-0.7,1.1-1.2,1.8-1.7C174.5,223.2,175.1,223.2,176.5,222.9z"/>
		<path class="st2" d="M229.4,194.5c-0.8,1.4-1.3,2.9-2.3,4c-4.8,5.4-9.3,11.1-14.7,15.8c-2.3,2-6.5,1.7-9.8,2.5
			c-10.2,2.6-15-5.7-21.4-10.7c-0.6-0.4-0.4-1.8-0.8-3.6c2.1,0.4,3.7,0.8,5.2,1c5.2,0.8,7.8-2.1,6-7c-1.7-4.7-2.8-9.5-0.2-14.9
			c0.7,1.2,1.8,2.2,2.1,3.5c0.4,1.4,0.1,3,0.2,4.5c1.4,11.9,10.5,17.1,21.2,11.8c3-1.5,5.5-3.7,8.4-5.5c1.6-1,3.4-1.7,5.1-2.6
			C228.8,193.8,229.1,194.1,229.4,194.5z M206.9,212.2c0.2-0.6,0.3-1.3,0.5-1.9c-2.1-0.6-4.2-1.2-6.3-1.8c-0.2,0.8-0.4,1.6-0.6,2.3
			C202.7,211.2,204.8,211.7,206.9,212.2z"/>
		<path class="st2" d="M301.4,164.7c-7.5,16.5-12.7,33.1-8.3,51.6c-0.7,0.1-1.4,0.3-2.2,0.4c-1.1-2-2.9-3.9-3-6
			c-0.3-5.6-0.6-11.5,0.6-16.9c2-9.3,4.3-18.6,10.4-26.4C299.7,166.5,300.6,165.6,301.4,164.7z"/>
		<path class="st2" d="M303.9,144.9c-5.3-0.2-7.1-3.5-6.5-7.5c0.7-4.6,0.2-9.3,0.4-13.9c0.1-1.6,0.9-3.2,1.4-4.8
			c1.1,1.2,3,2.2,3.3,3.6c1.3,5.9,2.4,11.8,3.1,17.8C305.7,141.8,304.3,143.6,303.9,144.9z"/>
		<path class="st2" d="M259.1,304.8c-1.7-1.3-3-2.3-4.3-3.2c1.2-0.9,2.4-2.1,3.7-2.5c3.9-1.3,7.9-2.3,12-3.2c0.8-0.2,2.5,0.4,2.7,1
			c0.2,0.8-0.3,2.5-0.9,2.8C268.1,301.5,263.8,303,259.1,304.8z"/>
		<path class="st2" d="M271.3,318.9c-0.9,1.3-1.5,3.6-2.6,3.9c-4.5,1-9.2,1.6-13.8,2c-0.9,0.1-1.9-1.4-2.9-2.1
			c0.8-0.7,1.6-1.8,2.5-2c5.1-1,10.2-1.8,15.3-2.7C270.3,318.3,270.8,318.6,271.3,318.9z"/>
		<path class="st2" d="M269.9,308.4c-4.5,4.8-9.5,5.3-14.3,6.4c-0.6,0.1-1.9-1.2-2.3-2.1c-0.3-0.7,0.2-2.4,0.6-2.5
			C258.8,309.4,263.5,306.2,269.9,308.4z"/>
	</g>
	<g>
		<g>
			<path class="st8" d="M248.7,145.1c-4.9,1.5-10.8-0.4-13.3-3.4c0,0-0.2-0.7-0.4-1.4c1.7-4.3,9.3-9,14.6-6.9
				c2.5,0.7,3.4,3.5,5.4,5.1c0.2,0.7-0.7,2.5-1.4,2.7C251.9,143.3,250.7,144.4,248.7,145.1z"/>
		</g>
	</g>
	<g>
		<circle class="st9" cx="248.3" cy="139.1" r="3.6"/>
	</g>
	<path class="st2" d="M179.4,212.3c-14.8-8.4-17-36.7-8.4-49c-3,13-2.5,24.8,3.3,35.9c1.2,2.4,3,4.5,4.1,6.9
		C179.1,207.7,179,209.6,179.4,212.3"/>
	<path class="st9" d="M190.7,218.2c0,0,0.9,6.4,4.6,8.5l5.3,0.1l-1.3-8.5L190.7,218.2z"/>
	<path class="st9" d="M201,218.5l1.3,8.5l4.8,0.1c0,0,2.4-6.5,2.4-9.3C209.5,217.8,204.8,219.2,201,218.5z"/>
	<path class="st10" d="M390.1,437.4c0,0,8.2-23.6,33-36.1"/>
	<path class="st10" d="M406.8,441.9c0,0,8.2-23.6,33-36.1"/>
	<path class="st10" d="M366.3,436.1c0,0,9.8-26.7,40.1-40.7"/>
	<path class="st10" d="M381.9,400.4c0,0,33.7-3.4,63.8,21.3"/>
	<path class="st10" d="M371.7,411.7c0,0,33.7-3.4,63.8,21.3"/>
	<path class="st10" d="M363.5,426.9c0,0,30.3-4.5,55.7,12.5"/>
	<g>
		<g>
			<g>
				<path class="st2" d="M354.9,209.2c-2.3-2.5-4.6-4.9-6.8-7.4c-41.8,36.2-83.6,72.4-125.4,108.5c-28.7,24.9-57.5,49.9-86.2,74.8
					l-17.3-17.3c-5.7-5.7-15-5.7-20.8,0c-2.6,2.6-18.6,18.6-20.8,20.8c-1.9,1.9-1.9,5,0,6.9c1.9,1.9,5,1.9,6.9,0L95,385.1l6.9,6.9
					l-10.4,10.4c-1.9,1.9-1.9,5,0,6.9c1.9,1.9,5,1.9,6.9,0l10.4-10.4l6.9,6.9l-10.4,10.4c-1.9,1.9-1.9,5,0,6.9c1.9,1.9,5,1.9,6.9,0
					l10.4-10.4l6.9,6.9l-10.4,10.4c-1.9,1.9-1.9,5,0,6.9c1.9,1.9,5,1.9,6.9,0l10.4-10.4l6.9,6.9l-10.4,10.4c-1.9,1.9-1.9,5,0,6.9
					c1.9,1.9,5,1.9,6.9,0l10.4-10.4l6.9,6.9l-10.4,10.4c-1.9,1.9-1.9,5,0,6.9c1.9,1.9,5,1.9,6.9,0c0.5-0.5,9.1-9.1,20.8-20.8
					c5.7-5.7,5.7-15,0-20.8l-17.3-17.3l81.7-81.7C277.6,285.8,316.3,247.5,354.9,209.2z M167.7,430.1
					C167.7,430.1,167.7,430.1,167.7,430.1c1.9,1.9,1.9,5,0,6.9l-3.5,3.5c-2.1-2.1-57.2-57.2-62.3-62.3l3.5-3.5c1.9-1.9,5-1.9,6.9,0
					L167.7,430.1z M150.4,398.9l-6.9-6.9l6.9-6.9l6.9,6.9L150.4,398.9z M351.8,208.6c-62.5,58.8-125,117.7-187.6,176.5l-6.9-6.9
					c64-57.5,127.9-115,191.9-172.4C350.1,206.7,350.9,207.6,351.8,208.6z"/>
			</g>
		</g>
	</g>
</g>
</svg>
