<?xml version="1.0" encoding="utf-8"?>
<!-- Generator: Adobe Illustrator 22.1.0, SVG Export Plug-In . SVG Version: 6.00 Build 0)  -->
<svg version="1.1" xmlns="http://www.w3.org/2000/svg" xmlns:xlink="http://www.w3.org/1999/xlink" x="0px" y="0px"
	 viewBox="0 0 579.6 563.9" style="enable-background:new 0 0 579.6 563.9;" xml:space="preserve">
<style type="text/css">
	.st0{opacity:0.55;fill:#2BB9D2;}
	.st1{fill:#EE717C;}
	.st2{fill:#636362;}
	.st3{fill:#F0F0F1;}
	.st4{opacity:0.55;}
	.st5{fill:#2BB9D2;}
	.st6{fill:#D9072A;}
	.st7{opacity:0.54;fill:#2BB9D2;}
	.st8{fill:#676767;}
	.st9{fill:#FFFFFF;}
	.st10{fill:none;stroke:#FFFFFF;stroke-width:0.5;stroke-linecap:round;stroke-linejoin:round;stroke-miterlimit:10;}
	.st11{fill:#FFFFFF;stroke:#3E3E3E;stroke-width:5;stroke-miterlimit:10;}
	.st12{opacity:0.69;}
	.st13{fill:#070707;}
	.st14{fill:none;stroke:#FFFFFF;stroke-width:0.25;stroke-linecap:round;stroke-linejoin:round;stroke-miterlimit:10;}
	.st15{fill:none;stroke:#636362;stroke-width:2;stroke-linecap:round;stroke-linejoin:round;stroke-miterlimit:10;}
	.st16{fill:none;stroke:#636362;stroke-width:2;stroke-miterlimit:10;}
	.st17{fill:#636362;stroke:#636362;stroke-width:2;stroke-linecap:round;stroke-linejoin:round;stroke-miterlimit:10;}
	.st18{opacity:0.6;fill:#2BB9D2;}
	.st19{fill:#00A6C5;}
	.st20{fill:none;stroke:#EE717C;stroke-width:8;stroke-miterlimit:10;}
	.st21{fill:none;stroke:#444444;stroke-width:4;stroke-miterlimit:10;}
	.st22{fill:#FFFFFF;stroke:#454545;stroke-width:4;stroke-miterlimit:10;}
	.st23{opacity:0.57;fill:#2BB9D2;}
	.st24{fill:none;stroke:#636362;stroke-width:4;stroke-miterlimit:10;}
	.st25{fill:none;stroke:#636362;stroke-linecap:round;stroke-linejoin:round;stroke-miterlimit:10;}
	.st26{fill:none;stroke:#636362;stroke-miterlimit:10;}
	.st27{fill:none;stroke:#000000;stroke-miterlimit:10;}
	.st28{opacity:0.48;fill:#F09687;}
	.st29{opacity:0.46;fill:#00A6C5;}
	.st30{opacity:0.67;fill:#60B676;}
	.st31{fill:#FFFFFF;stroke:#636362;stroke-linecap:round;stroke-linejoin:round;stroke-miterlimit:10;}
	.st32{opacity:0.81;fill:#EE717C;}
	.st33{opacity:0.52;fill:#2BB9D2;}
</style>
<g id="dessin">
	<g>
		<path class="st2" d="M96.5,129.7c-7.2,3-17.9,8.4-29.1,18.5c-6.1,8.1-9.3,17.8-9.3,29.1c0,22.5,12.6,39.1,36.5,48
			c1.9,0.7,4-0.3,4.7-2.1c0.7-1.9-0.2-4-2.1-4.7c-21.1-7.9-31.8-21.8-31.8-41.2c0,0,0-10.1,4.8-20c7.4-15.5,32.9-27.8,65.3-28.2
			c40.8-1.9,88.8,7.3,88.8,48.2c0,16-7.3,28.3-21.7,36.5c-2.4,1.4-3.7,4-3.4,6.7c1.1,10.4,3.6,20.4,5,25.5c0.5,1.8-1.3,3.4-3,2.8
			c-9.5-3.6-19.6-11.7-26.9-21.7c-1.5-2-3.9-3.1-6.4-2.7c-16.2,2.1-37.4,2-54.6-1.4c-2-0.4-3.9,0.9-4.3,2.9s0.9,3.9,2.9,4.3
			c17.7,3.5,39.5,3.7,56.7,1.5c8.1,10.9,19.3,19.9,30,24c7.3,2.8,14.7-4,12.6-11.5c-1.3-4.8-3.7-14.2-4.7-24
			c16.7-9.6,25.1-24,25.1-42.7c0-11.9-3.5-22.6-11.2-31.5c28.9-2.1,45.2-14.6,45.2-35.1c0-12.1-5.8-21.7-16.9-27.8
			c-1.8-1-4-0.3-4.9,1.4c-1,1.8-0.3,4,1.4,4.9c8.8,4.8,13.1,11.8,13.1,21.4c0,10.3-5.9,27.6-45.4,28.1c-12.6-9.6-29.7-14.1-45.5-16
			c-2-3.5-3.1-7.5-3.1-12.1c0-10.5,6.1-28.1,47-28.1c6.7,0,12.9,0.5,18.4,1.5c2,0.4,3.9-0.9,4.3-2.9S233,77.3,231,77
			c-5.9-1.1-12.6-1.7-19.7-1.7c-34.5,0-54.3,12.9-54.3,35.4c0,4.1,0.7,7.9,1.9,11.3c-2.5-0.2-5.6-0.3-9.3-0.4c0,0-5.2-0.1-10,0
			C114.5,122.3,96.5,129.7,96.5,129.7z"/>
	</g>
	<rect x="193.5" y="94.8" class="st3" width="43.4" height="28.9"/>
	<rect x="222.4" y="94.8" class="st0" width="14.5" height="28.9"/>
	<rect x="193.5" y="94.8" class="st1" width="14.5" height="28.9"/>
	<polygon class="st1" points="139.8,172.4 103.7,172.4 103.7,182.8 139.8,182.8 139.8,205.1 150.2,205.1 150.2,182.8 186.3,182.8 
		186.3,172.4 150.2,172.4 150.2,150.1 139.8,150.1 	"/>
	<g class="st4">
		<polygon class="st5" points="103.7,187.2 103.7,197.8 122.8,187.2 		"/>
		<polygon class="st5" points="126.9,187.2 103.7,200 103.7,205.1 136,187.2 		"/>
		<polygon class="st5" points="136,205.1 136,192 112.3,205.1 		"/>
	</g>
	<polygon class="st3" points="126.9,187.2 103.7,200 103.7,205.1 136,187.2 	"/>
	<polygon class="st6" points="126.9,187.2 103.7,200 103.7,205.1 136,187.2 	"/>
	<g class="st4">
		<polygon class="st5" points="186.3,187.2 186.3,195.3 171.7,187.2 		"/>
		<polygon class="st5" points="182.2,205.1 154,205.1 154,189.5 		"/>
	</g>
	<polygon class="st1" points="154,187.2 186.3,205.1 186.3,205.1 186.3,200 163.1,187.2 	"/>
	<g class="st4">
		<polygon class="st5" points="186.3,168 186.3,157.4 167.2,168 		"/>
		<polygon class="st5" points="163.1,168 186.3,155.1 186.3,150.1 154,168 		"/>
		<polygon class="st5" points="154,150.1 154,163.2 177.7,150.1 		"/>
	</g>
	<polygon class="st3" points="163.1,168 186.3,155.1 186.3,150.1 154,168 	"/>
	<polygon class="st1" points="163.1,168 186.3,155.1 186.3,150.1 154,168 	"/>
	<g class="st4">
		<polygon class="st5" points="103.7,168 103.7,159.9 118.3,168 		"/>
		<polygon class="st5" points="107.8,150.1 136,150.1 136,165.7 		"/>
	</g>
	<polygon class="st1" points="136,168 103.7,150.1 103.7,150.1 103.7,155.1 126.9,168 	"/>
	<path class="st0" d="M290.4,369.1c-0.7,1.3-1.3,2.5-2,3.7c-0.9-0.9-1.8-1.8-2.6-2.7C287.2,369.7,288.8,369.3,290.4,369.1z"/>
	<path class="st2" d="M382.6,234.1c0.6-2,1.1-4.2,1.9-6.1c3.7-7.9,6.6-16,6.3-25c-0.4-14.3-14.1-23.9-27.5-15.3
		c-2.6,1.6-4.5,1.5-6.8-0.3c-21.3-17.2-44.7-17.2-69.1-8.2c-10.8,4-21.1,8.8-26.7,19.7c-1.6,3-3,6-5.3,8.7c-0.9-5.1,1.6-9,3.9-13
		c6.7-11.5,18.5-16,29.9-20.8c17.1-7.2,34.7-10.4,52.7-3.6c5.5,2.1,10.4,5.7,15.3,9.1c2.3,1.6,3.7,2,6.5,1
		c5.2-1.9,10.9-3.7,16.3-3.4c7.4,0.4,10.5,6.8,13.4,12.9c7.1,15.2,0,38-9.2,44.8C383.6,234.4,383.1,234.2,382.6,234.1z"/>
	<g>
		<path class="st2" d="M398.8,468.6c1.5,0.5,2.6,0.4,3.7,0.5c1.1,0.1,2.7,0.1,3.2,0.8c4.9,6.3,12.3,8.1,19.4,9.7
			c15.4,3.5,30.9,1.9,46.4-0.2c8.2-1.1,14.9-5,20.6-10.6c6.6-6.5,5.9-15.5-2.1-20c-10.9-6.2-22.3-11.8-33.8-16.7
			c-7.1-3-14.9-4.4-22.8-6.6c0.3-1.5,0.7-3.6,1.1-5.7c4-19.7,4.6-39.6,2.2-59.6c-3.6-30-11.3-58.7-26.8-85
			c-9.6-16.2-20.3-31-38.4-38.4c-1.6-0.7-3.3-1-5-1.5c-0.2,0.4-0.3,0.8-0.5,1.2c1.1,0.9,2.1,2,3.3,2.5c11.1,4.5,18.7,13.2,25.7,22.3
			c6.1,8,12.3,16.3,13.3,27c1.9,20.1-6.3,36.2-20.5,49.4c-7.8,7.2-16.6,13.3-25.4,19.3c-12.1,8.4-25.9,13.1-40.6,17.7
			c2.7-5.9-1.7-3.5-3.8-3.8c0.8-1,1.4-1.7,2.5-3.1c-2.7-0.9-5.1-2.4-7.2-2.1c-4.3,0.6-8.5,2.3-12.8,3.5c-0.2,1.3-0.5,2.8-0.7,4.3
			c1.1,0.3,2,0.5,3,0.7c-0.9,0.9-1.8,1.6-3.5,3.2c6.9,0.1,12.7,0.4,18.4,0.1c13-0.8,25.1-4.7,36.4-11c10.1-5.6,20-11.8,29.5-18.4
			c15.8-10.9,28.5-24.3,30.1-44.8c0-0.4,0.4-0.8,0.9-1.7c0.9,1.8,1.6,2.8,1.9,3.8c5.8,20.9,13.3,41.5,15.3,63.3
			c1.7,18.6,0.7,37-4,55.1C427.7,423.7,418.5,454.6,398.8,468.6z"/>
		<path class="st2" d="M242.1,394.5c0.5-10.6,2.6-21.2,6.2-31.7c0.7-2.1,2.7-3.8,4-5.6l-0.1-0.1c-0.5,2.2-0.8,4.4-1.6,6.5
			c-5.2,14.5-6.6,29.3-3.3,44.5c2.4,11.3,5,22.6,7.4,34c0.8,3.9,2,7.3,7.3,7c0,0.5-0.1,0.9-0.1,1.4c-1.8,0.4-3.6,1-5.4,1
			c-10.8,0.2-21.2,1.8-30.9,6.7c-0.3,0.1-0.6,0.2-0.9,0.4c-3.5,2.1-7.8,4.3-6.8,9.1c0.9,4.6,5.7,4.6,9.3,4.8
			c13.7,0.6,27.5,0.7,41.2,1c2.8,0.1,4.7-0.7,6.6-3.6c4.9-7.6,13.2-9.8,21.5-11.5c10.7-2.3,21.5-4.2,32.2-6.6
			c6.7-1.5,12.5-4.9,16.9-10.4c0.4-0.6,1.2-0.8,2.2-0.8c-2.6,5.8-7,10-13,11.9c-8.6,2.7-17.3,5-26.1,6.8
			c-8.4,1.7-16.3,3.6-21.9,10.7c-4,5.1-2.6,9.3,3.9,9.6c9.6,0.5,19.3,0.6,28.9-0.2c22.8-2.1,45.6-4.8,68.3-7.3
			c2.2-0.2,4.3-0.8,6.5-1.2c0.2,0.5,0.4,1,0.5,1.4c-1.5,0.7-3,1.7-4.6,1.9c-18.3,2.5-36.6,5.4-55,7.2c-13.8,1.4-27.8,1.6-41.7,2
			c-7.1,0.2-14.1-0.8-19.3-6.5c-0.5-0.6-1.7-0.7-2.5-0.7c-14.9,0-29.8,0.5-44.7-0.3c-5.1-0.3-10.3-3.5-14.8-6.6
			c-3.2-2.2-1.9-7.9,2.1-9.8c6.2-2.9,12.7-5.2,19.2-7.3c5.3-1.7,10.8-2.5,16.4-3.8c-1.7-7.3-3.2-14.6-5-21.9
			C242.7,415.9,241.6,405.1,242.1,394.5"/>
		<path class="st2" d="M290.3,224.6c0.1-1.7,0.2-3.3,0.4-5.1c5.8,5.8,4.6,14.9-2.3,19.4c-6.6,4.3-19.5,2.1-23.1-5
			c-3.9-7.6-1.3-16.8,7-21.2c4.4-2.4,13.2-0.5,16,3.7c0.6,0.9,0.4,2.3,0.4,3.5c0.1,1.6,0,3.3,0.1,4.9
			C289.3,224.7,289.8,224.7,290.3,224.6z"/>
		<path class="st2" d="M252.4,357.2c-3.6-6-7.9-11.8-10.6-18.2c-2.2-5.3-3.2-11.3-3.8-17.1c-1.5-15.5,2.3-29.5,13.8-40.8
			c0.9-0.9,2-1.7,3.1-2.5c0.3,0.3,0.7,0.6,1,0.9c-1,1.5-1.9,3.2-3.1,4.5c-4.5,5-7.2,10.7-8.2,17.5c-2.4,16.2-1.2,32,7.6,45.9
			c4.4,6.9,11.4,12.2,17.3,18.2l-0.2-0.2c1.2,1.8,2.3,3.6,3.4,5.3c-8.7-1-14-8.4-20.6-13.7C252.3,357,252.4,357.2,252.4,357.2z"/>
		<path class="st2" d="M307.7,250.1c-0.7,10.1-4.9,18.5-12.1,25.3c-1.6,1.5-4.5,2.1-6.8,2.2c-4.5,0.2-9.1-0.2-13.7-0.6
			c-1.2-0.1-2.9-0.5-3.5-1.4c-3.6-4.5-6.9-9.3-9.8-14.5c5.4,0,8.3,7.6,14.5,3.9c-2.4-6.9-3.6-14,0.2-21.1c0,1.6-0.1,3.2-0.1,4.8
			c0.2,3.4,0,6.9,0.9,10.2c2,7.4,9.2,10.7,16.3,7.5c6.3-2.8,10.9-7.1,12.9-13.9C306.7,251.6,307.3,250.8,307.7,250.1z M271.4,269.6
			c1.3,4.2,4.1,4.4,8,3.8c-0.7-1.9-1.2-3.4-1.8-5C275.4,268.8,273.7,269.2,271.4,269.6z M293.4,270.2c-3.9-0.5-8.4-1-12-1.5
			C282,275.3,290.6,275.9,293.4,270.2z"/>
		<path class="st2" d="M364,194.1c6.8,2.7,10.3,8.9,9.5,16.4c-0.6,5.1-2.9,9.4-5.8,13.1c-1.5-4.4-2.9-8.3-4.5-13.1
			c4.7-4.3,1.8-10.5,1-16.5C364.1,193.9,364,194.1,364,194.1z"/>
		<path class="st2" d="M263.4,275.7c-13.7-7.3-16.4-33.1-8.8-44.5c-2.5,12-1.7,22.7,3.9,32.7c1.2,2.1,2.9,4,3.9,6.2
			C263,271.5,262.9,273.2,263.4,275.7z"/>
		<path class="st2" d="M269.6,365.6c-1.5-2.3-3-4.5-4.4-6.8c0.3-0.4,0.6-0.9,1-1.3c3.5,2.8,7,5.5,10.5,8.3c0.2-0.1,0.4-0.3,0.6-0.4
			c-0.8-1-1.5-2-2.3-3.1c0.4-0.5,0.9-1.2,1-1.2c4.9,2.8,9.7,5.7,14.6,8.6c-0.2,0.5-0.5,0.9-0.7,1.4c-1.3-0.1-2.7-0.2-4.7-0.3
			c1.1,0.9,1.7,1.4,2.4,1.9c-7.4,0.7-12.3-4.2-18-7.2C269.5,365.4,269.6,365.6,269.6,365.6z"/>
		<path class="st2" d="M308.4,214.4c-0.2-7.5,11.5-11.6,16.8-8.6c0.9,0.5,1.8,2.2,1.6,3c-0.2,0.9-2.1,2.4-2.6,2.2
			c-5.8-2.4-10,0.7-14.4,3.6C309.4,214.8,308.8,214.5,308.4,214.4z"/>
		<path class="st2" d="M294.4,369c-3.8-2-7.7-4-12.4-6.4c4.4-2.1,11,1,13.2,4.8C294.9,368,294.6,368.5,294.4,369z"/>
		<path class="st9" d="M270.8,268.2c2.2-0.4,4.9-0.1,7.1-0.6c0.6,1.6,0.8,3.9,1.5,5.8C273.5,274.8,272.1,272.4,270.8,268.2z"/>
	</g>
	<path class="st10" d="M435.8,475.5c0,0,6.9-22.6,29.3-35.1"/>
	<path class="st10" d="M451.1,479.3c0,0,6.9-22.6,29.3-35.1"/>
	<path class="st10" d="M414,474.9c0,0,8.3-25.6,35.6-39.7"/>
	<path class="st10" d="M427.4,440.5c0,0,30.7-4.1,58.7,18.6"/>
	<path class="st10" d="M418.3,451.6c0,0,30.7-4.1,58.7,18.6"/>
</g>
<g id="tracé">
</g>
</svg>
