<?xml version="1.0" encoding="utf-8"?>
<!-- Generator: Adobe Illustrator 22.1.0, SVG Export Plug-In . SVG Version: 6.00 Build 0)  -->
<svg version="1.1" xmlns="http://www.w3.org/2000/svg" x="0px" y="0px"
     viewBox="0 0 579.6 563.9" style="enable-background:new 0 0 579.6 563.9;" xml:space="preserve">
<style type="text/css">
	.st0{opacity:0.55;fill:#2BB9D2;}
	.st1{fill:#EE717C;}
	.st2{fill:#636362;}
	.st3{fill:#F0F0F1;}
	.st4{opacity:0.55;}
	.st5{fill:#2BB9D2;}
	.st6{fill:#D9072A;}
	.st7{opacity:0.54;fill:#2BB9D2;}
	.st8{fill:#676767;}
	.st9{fill:#FFFFFF;}
	.st10{fill:none;stroke:#FFFFFF;stroke-width:0.5;stroke-linecap:round;stroke-linejoin:round;stroke-miterlimit:10;}
	.st11{fill:#FFFFFF;stroke:#3E3E3E;stroke-width:5;stroke-miterlimit:10;}
	.st12{opacity:0.69;}
	.st13{fill:#070707;}
	.st14{fill:none;stroke:#FFFFFF;stroke-width:0.25;stroke-linecap:round;stroke-linejoin:round;stroke-miterlimit:10;}
	.st15{fill:none;stroke:#636362;stroke-width:2;stroke-linecap:round;stroke-linejoin:round;stroke-miterlimit:10;}
	.st16{fill:none;stroke:#636362;stroke-width:2;stroke-miterlimit:10;}
	.st17{fill:#636362;stroke:#636362;stroke-width:2;stroke-linecap:round;stroke-linejoin:round;stroke-miterlimit:10;}
	.st18{opacity:0.6;fill:#2BB9D2;}
	.st19{fill:#00A6C5;}
	.st20{fill:none;stroke:#EE717C;stroke-width:8;stroke-miterlimit:10;}
	.st21{fill:none;stroke:#444444;stroke-width:4;stroke-miterlimit:10;}
	.st22{fill:#FFFFFF;stroke:#454545;stroke-width:4;stroke-miterlimit:10;}
	.st23{opacity:0.57;fill:#2BB9D2;}
	.st24{fill:none;stroke:#636362;stroke-width:4;stroke-miterlimit:10;}
	.st25{fill:none;stroke:#636362;stroke-linecap:round;stroke-linejoin:round;stroke-miterlimit:10;}
	.st26{fill:none;stroke:#636362;stroke-miterlimit:10;}
	.st27{fill:none;stroke:#000000;stroke-miterlimit:10;}
	.st28{opacity:0.48;fill:#F09687;}
	.st29{opacity:0.46;fill:#00A6C5;}
	.st30{opacity:0.67;fill:#60B676;}
	.st31{fill:#FFFFFF;stroke:#636362;stroke-linecap:round;stroke-linejoin:round;stroke-miterlimit:10;}
	.st32{opacity:0.81;fill:#EE717C;}
	.st33{opacity:0.52;fill:#2BB9D2;}
</style>
<g id="dessin">
</g>
<g id="tracé">
	<g>
		<path class="st2" d="M314.9,153.8c2.1,1.3,4.3,2.5,6.3,3.8c27.8,18.8,42.5,46.8,55.5,76.5c12,27.5,20.7,55.9,25.2,85.4
			c5.3,34.7,7.5,69.7,1.2,104.7c-0.9,4.9,1.8,5.2,5.5,5.4c14.3,1,28.7,1.6,42.9,3.5c8.1,1.1,16.1,4,23.7,7
			c11.8,4.7,14.3,14.6,8.4,25.7c-5.1,9.6-13.7,14-23,17.7c-22.6,8.8-45.8,14.8-69.9,7.9c-8.9-2.5-17-8-25.6-12
			c-1.9-0.9-4.8-2-6.3-1.3c-13.5,6.7-28.2,7.2-42.6,8.9c-18.1,2.1-36.2,4.6-54.4,5.1c-18.3,0.5-36.8-1.1-55.1-2.3
			c-3.6-0.2-7.2-2.7-10.3-4.8c-4.6-3.1-4.2-9.4,0.4-14.4c7.4-7.9,17.1-10.5,27.2-12.1c9.6-1.5,19.4-2.1,28.8-4.3
			c8.1-1.9,15.8-5.6,23.6-8.4c-5.6,5.7-12,10.8-20.8,12.3c-10.6,1.8-21.1,3.9-31.6,6.2c-3.5,0.8-7.3,1.8-10.1,3.9
			c-2.5,1.8-5.5,5.2-5.4,7.8c0.1,2.6,3.3,6.3,5.9,7.3c5,1.9,10.6,2.9,16,3c36.4,1.3,72.4-3.6,108.2-9.1c24-3.7,48.5-28.6,53.2-52.6
			c-0.3-0.2-0.8-0.5-1-0.4c-20.6,7.5-42.1,7.6-63.5,8.4c-30.6,1.2-61.1,2.1-91.7,2.3c-15.2,0.1-30.3-1.5-45.5-2.4c-2-0.1-4-1-6-1.6
			c0.1-0.7,0.2-1.4,0.3-2c6.3,0.2,12.6,0.3,18.9,0.5c15.6,0.6,31.1,2,46.7,1.6c33.4-0.9,66.8-2.5,100.1-4.2
			c13.8-0.7,27.4-2.7,40.1-8.8c3.4-1.6,5.2-3.8,5.6-7.8c2.6-31.5,0.8-62.7-5.5-93.7c-0.8-3.8-1.5-7.6-2.1-11.4
			c-0.6-4-2.3-5.3-6.6-4.3c-5.5,1.3-11.2,1.8-16.8,2.1c-1.9,0.1-3.9-1.2-5.8-1.9c0.1-0.7,0.2-1.4,0.3-2.1c2.3-0.4,4.5-0.9,6.8-1.2
			c2.8-0.4,5.7-0.5,8.5-0.9c10.1-1.7,11.3-3.3,8.9-13c-2.3-9.3-5-18.6-8.9-27.8c-3.6,8.8-6.7,17.8-10.9,26.2
			c-8.7,17.7-21.7,31.9-38.2,42.3c-13.5,8.5-27.8,15.6-42.1,22.7c-5.3,2.6-11.6,3.5-17.5,4.7c-1.8,0.4-3.9-0.9-5.9-1.5
			c1.6-1.4,2.9-3.9,4.7-4.2c15.4-2.7,29.6-8.4,43.1-15.9c28.1-15.7,48.8-37.3,56.5-69.5c3.6-15.1,2-29.2-5-43.5
			c-10.9-22.2-25.6-41.2-43-58.4c-1-1-1.9-2.3-2.8-3.4C314.1,155,314.5,154.4,314.9,153.8z"/>
		<path class="st2" d="M151,342.9c-0.2,1.7-0.1,3.5-0.6,5.1c-6.8,24.9-5.9,49.7,1,74.3c2.3,8.3,6.3,16.2,10,24
			c0.9,1.9,3.7,3.1,5.8,4.4c1.4,0.8,3.1,1.2,4.5,3.3c-1.4,0.4-2.8,1.1-4.2,1.3c-10.2,1.5-20.4,3-30.6,4.5c-1.2,0.2-2.5,0.2-3.6,0.7
			c-4.1,1.7-8.7,3.3-8.6,8.9c0.1,5.6,4.6,6.6,8.9,7.3c15.3,2.6,30.7,5.1,46,7.7c1.4,0.2,2.9,0.2,4.1,0.8c1.2,0.6,2.1,1.9,3.2,2.9
			c-1.3,1.1-2.6,3-3.9,3c-4,0.1-8.1-0.4-12.1-0.8c-13.1-1.5-26.2-2.7-39.1-4.8c-5.2-0.9-10.5-3.3-14.9-6.2
			c-7.9-5.2-7.7-14.8,0.8-19.1c6.5-3.3,14.1-4.6,21.3-6.5c1.9-0.5,4-0.3,6-0.5c6.2-0.7,7.4-2.2,4.8-7.9
			c-8.6-19.3-10.6-39.8-10.6-60.5c0-10.2,1.7-20.5,3.5-30.7c0.7-4.2,3.7-8,5.7-12C149.4,342.3,150.2,342.6,151,342.9z"/>
		<path class="st2" d="M307.5,139.4c2.1-3.4,4.6-6.6,6.1-10.2c2.7-6.9,5.7-13.9,7-21.1c1.5-8.6-3-15.3-10.3-19.8
			c-6.6-4.1-12.7-1.6-18,2.5c-3.7,2.8-6.2,2.2-9.6-0.2c-23.3-16.8-49.3-22.9-77.1-16.3c-22.7,5.4-39.6,19.5-50.3,40.5
			c-0.9,1.8-2.2,3.5-4.1,6.7c-2.1-7.7,0.9-12.4,3.6-16.9c7.9-13.4,20.2-22.1,33.7-28.8c28.7-14.1,57.8-10.1,86.9-0.7
			c0.4,0.1,0.8,0.3,1.1,0.5c6.4,4.9,12.3,5.4,20.8,2.6c11-3.7,22,0.1,28.4,16.2c5.1,12.9-1.5,36-12.6,44.3c-1.2,0.9-2.7,1.4-4.1,2.1
			C308.3,140.3,307.9,139.8,307.5,139.4z"/>
		<path class="st2" d="M197.1,131.9c-1.1,0.7-1.2,0.9-1.4,1c-2.6,0.9-6.9,1.3-7.4,2.9c-1.2,4.1,1.6,6.6,5.5,8.7
			c1.6,0.9,2.7,5.3,2,7.6c-2.2,7.6-7.4,12.2-15.6,13.3c-8.2,1-14.4-2.5-18.6-8.8c-2.6-3.9-4.1-8.9-5-13.5
			c-1.5-8.7,3.3-17.1,11.3-20.9c8.2-4,19.8-2.4,25.4,3.7C195,127.5,195.9,129.9,197.1,131.9z"/>
		<path class="st18" d="M288.8,225c-12.3-0.3-21.9,13-19,23.2c0.9,3.1,0.5,7.4-1.1,10.1c-6.6,11.4-13.7,22.4-20.9,33.5
			c-1.2,1.9-3.6,3-5.5,4.4c0.6-2.3,0.6-5,1.7-7c5.8-10,11.9-19.8,17.9-29.6c2.3-3.8,3.3-7.3,2.3-12c-3.4-16.2,8.2-29.7,24.5-29.3
			c5.4,0.1,6.9,2.2,5,7.2c-1.1,2.8-2.2,5.6-3.3,8.5c0,0.1,0.1,0.3,0.4,1.2c1.6-2.7,2.8-5.2,4.4-7.3c1.2-1.7,3.4-4.3,4.5-4
			c1.9,0.5,3.9,2.6,5,4.6c7.1,13.1,1.4,30.7-12.5,37.1c-5.6,2.6-9,6.4-11.7,11.5c-4.9,9.1-10,18.1-15.3,27c-1.1,1.9-3.1,3.2-4.7,4.8
			c-0.6-0.5-1.2-0.9-1.8-1.4c0.6-1.6,0.9-3.2,1.7-4.6c6.7-12,13.3-24.1,20.3-36c1.2-2.1,4.3-3.5,6.8-4.5
			c13.6-5.5,19.5-19.5,12.7-32.4c-3,5-5.8,9.5-8.5,14c-1.2,1.9-2.4,3.8-3.6,5.6c-1.5,2.4-3.1,4.3-6.3,2.1c-2.8-2-4.4-3.9-2.4-7.5
			C282.7,238.2,285.5,232,288.8,225z"/>
		<path class="st1" d="M236.3,316.6c-0.3-3.2-0.8-6.4-0.8-9.7c-0.1-12.1-0.2-24.3,0.1-36.4c0.2-6.4-4-5.6-8-6.1
			c-4.8-0.6-5.3,2.1-5.3,5.8c0.1,13.1,0.1,26.3-0.1,39.4c0,2.3-1.3,4.5-2,6.8c-0.9-2.4-2.6-4.8-2.6-7.2c-0.1-12.7,0-25.5,0.7-38.2
			c0.3-6-2.4-8-7.5-8.4c-6.3-0.5-12.5-1-18.8-1.3c-4.2-0.2-6.9-1.6-7-6.4c-0.1-4.4,2-5.2,5.9-6.6c5.5-2,10.8-5.4,15.1-9.3
			c2.6-2.3,4.4-3.3,7.7-3c9.7,1.1,19.3,2,29,2.5c4.4,0.2,6.3,2.3,6.5,6.2c0.3,5.2,0.3,10.5,0.1,15.8c-0.1,3.5-0.4,7.1-5.9,6.1
			c-0.7-0.1-2.9,3-3,4.6c-0.4,11.1-0.3,22.3-0.6,33.4c-0.1,4.1-0.7,8.1-1,12.2C238,316.6,237.2,316.6,236.3,316.6z M245.6,243.1
			c-6.5-0.6-12.2-1.2-18-1.6c-8.5-0.6-16.7-1.2-23.5,6.1c-2.4,2.6-6.7,3.4-10,5.3c-1.2,0.7-1.9,2.2-2.8,3.3c1,0.7,2,2,3.1,2
			c15.1,1,30.2,1.9,45.3,2.6c1.4,0.1,3.9-1.7,4.2-2.9C244.8,253.3,245,248.7,245.6,243.1z"/>
		<path class="st2" d="M152.6,222.4c-0.8,2.5-1.1,4.4-2,5.9c-12.1,19.2-12,39.9-7.2,61c3.9,17.1,9.9,33.3,19.9,47.9
			c0.6,0.8,1.5,1.7,1.5,2.6c0,2-0.4,4-0.7,6c-1.7-0.7-4-0.9-5.1-2.2c-9.3-11.1-17.6-22.9-20.7-37.4c-4.1-18.9-6.4-38.2-1.8-57.2
			c2-8.4,7.3-16,11.2-23.9c0.4-0.9,1.3-1.5,2.1-2.1C150.3,222.8,150.9,222.8,152.6,222.4z"/>
		<path class="st2" d="M304.3,354.3c-0.1,3.1-0.5,6.2-0.2,9.2c1.2,9.8,2.4,19.6,4.2,29.3c0.7,3.6-0.8,4.5-3.4,4.9
			c-4.8,0.8-9.6,1.6-14.4,2.1c-21.3,2.1-42.7,4-64,6c-6,0.6-9.5-1.9-9.6-8c-0.3-11.3-0.4-22.6-0.4-33.9c0-1.7,1.2-3.4,1.9-5.2
			c0.6,0,1.1,0.1,1.7,0.1c0.3,1.4,0.8,2.8,0.9,4.2c0.4,10.7,0.7,21.4,1,32.2c0.1,5.1,2.5,6.1,7.4,5.6c20.9-2.3,41.9-4.1,62.8-6
			c1.6-0.2,3.2-0.4,4.8-0.7c4.3-0.8,5.5-2.9,5.1-7.7c-0.9-9.6-0.5-19.3-0.5-29c0-1.1,0.6-2.1,0.9-3.2
			C303.1,354.2,303.7,354.3,304.3,354.3z"/>
		<path class="st2" d="M216.5,188.1c-0.9,1.6-1.6,3.5-2.8,4.9c-5.7,6.5-11.2,13.4-17.7,19.1c-2.7,2.4-7.8,2-11.8,3
			c-12.3,3.1-18.1-6.9-25.8-12.9c-0.7-0.5-0.5-2.2-1-4.3c2.6,0.5,4.4,0.9,6.3,1.2c6.3,1,9.4-2.5,7.2-8.4c-2.1-5.7-3.4-11.4-0.2-18
			c0.9,1.4,2.1,2.7,2.6,4.2c0.5,1.7,0.1,3.6,0.3,5.4c1.6,14.4,12.7,20.6,25.6,14.3c3.6-1.8,6.7-4.5,10.1-6.6
			c1.9-1.2,4.1-2.1,6.2-3.1C215.7,187.3,216.1,187.7,216.5,188.1z M189.4,209.4c0.2-0.8,0.4-1.5,0.6-2.3c-2.5-0.7-5.1-1.4-7.6-2.2
			c-0.2,0.9-0.5,1.9-0.7,2.8C184.3,208.3,186.8,208.9,189.4,209.4z"/>
		<path class="st2" d="M166.6,327.1c3.4,2.8,6.9,5.6,11.4,9.2c-0.3-2.5-0.6-3.6-0.6-4.7c0.1-1.3,0.1-3.4,0.7-3.6
			c1.3-0.4,3.6-0.5,4.4,0.3c3.8,3.6,7.4,7.4,10.8,11.5c0.7,0.8,0.3,3.1-0.4,4.2c-0.5,0.8-2.4,1-3.6,0.9c-1.3-0.2-2.5-1.2-3.7-1.8
			c-4,5.7-4.7,6-10.1,1.5c-3.5-3-6.7-6.4-9.6-10c-1.2-1.5-1.1-4.1-1.6-6.3C165,327.8,165.8,327.4,166.6,327.1z"/>
		<path class="st2" d="M303.4,152.2c-9.1,19.9-15.3,39.9-10.1,62.2c-0.9,0.2-1.7,0.3-2.6,0.5c-1.3-2.4-3.5-4.8-3.6-7.2
			c-0.3-6.8-0.7-13.8,0.7-20.4c2.4-11.2,5.2-22.5,12.6-31.8C301.3,154.3,302.4,153.3,303.4,152.2z"/>
		<path class="st2" d="M306.3,128.3c-6.4-0.2-8.5-4.2-7.8-9c0.8-5.5,0.2-11.2,0.5-16.8c0.1-1.9,1.1-3.8,1.7-5.7
			c1.4,1.4,3.6,2.7,4,4.3c1.6,7.1,2.8,14.3,3.7,21.5C308.6,124.5,306.9,126.7,306.3,128.3z"/>
		<path class="st2" d="M252.3,321.3c-2.1-1.6-3.6-2.7-5.1-3.9c1.5-1,2.8-2.5,4.5-3.1c4.7-1.5,9.6-2.8,14.4-3.9c1-0.2,3,0.5,3.2,1.2
			c0.3,1-0.3,3.1-1.1,3.4C263.2,317.2,258,319.1,252.3,321.3z"/>
		<path class="st2" d="M267.1,338.2c-1,1.6-1.8,4.3-3.1,4.7c-5.5,1.3-11.1,1.9-16.7,2.4c-1.1,0.1-2.3-1.6-3.4-2.5
			c1-0.8,1.9-2.1,3-2.4c6.1-1.2,12.3-2.2,18.5-3.3C265.9,337.5,266.5,337.9,267.1,338.2z"/>
		<path class="st2" d="M265.4,325.6c-5.4,5.8-11.5,6.5-17.2,7.7c-0.8,0.2-2.3-1.5-2.8-2.5c-0.4-0.8,0.3-2.9,0.7-3
			C252,326.8,257.6,322.9,265.4,325.6z"/>
		<path class="st2" d="M207.5,337.8c-6.9-1.9-10.5-5.9-10.9-11.8C202.1,326,207.9,332,207.5,337.8z"/>
	</g>
	<g>
		<g>
			<path class="st8" d="M238.4,128.5c-5.9,1.8-13-0.5-16-4.1c0,0-0.3-0.8-0.5-1.7c2-5.2,11.3-10.9,17.6-8.3c3,0.9,4.1,4.2,6.6,6.2
				c0.3,0.8-0.9,3-1.7,3.3C242.3,126.4,240.9,127.7,238.4,128.5z"/>
		</g>
	</g>
	<g>
		<circle class="st9" cx="237.9" cy="121.3" r="4.4"/>
	</g>
	<path class="st2" d="M154.8,208.3c-17.8-10.1-20.5-44.3-10.1-59.1c-3.7,15.7-3,29.9,4,43.4c1.5,2.8,3.6,5.4,4.9,8.3
		C154.5,202.7,154.3,205,154.8,208.3"/>
	<path class="st9" d="M168.5,201.6c0,0,1,7.7,5.5,10.3l6.4,0.2l-1.6-10.2L168.5,201.6z"/>
	<path class="st9" d="M180.8,201.9l1.6,10.2l5.8,0.2c0,0,2.9-7.9,3-11.2C191.1,201.1,185.5,202.8,180.8,201.9z"/>
	<path class="st10" d="M410.5,484c0,0,9.9-28.5,39.8-43.5"/>
	<path class="st10" d="M430.5,489.4c0,0,9.9-28.5,39.8-43.5"/>
	<path class="st10" d="M381.7,482.4c0,0,11.9-32.3,48.4-49.1"/>
	<path class="st10" d="M400.5,439.3c0,0,40.7-4.1,76.9,25.7"/>
	<path class="st10" d="M388.2,453c0,0,40.7-4.1,76.9,25.7"/>
	<path class="st10" d="M378.3,471.3c0,0,36.5-5.4,67.2,15.1"/>
</g>
</svg>
