<?xml version="1.0" encoding="utf-8"?>
<!-- Generator: Adobe Illustrator 22.1.0, SVG Export Plug-In . SVG Version: 6.00 Build 0)  -->
<svg version="1.1" xmlns="http://www.w3.org/2000/svg" xmlns:xlink="http://www.w3.org/1999/xlink" x="0px" y="0px"
	 viewBox="0 0 579.6 563.9" style="enable-background:new 0 0 579.6 563.9;" xml:space="preserve">
<style type="text/css">
	.st0{opacity:0.55;fill:#2BB9D2;}
	.st1{fill:#EE717C;}
	.st2{fill:#636362;}
	.st3{fill:#F0F0F1;}
	.st4{opacity:0.55;}
	.st5{fill:#2BB9D2;}
	.st6{fill:#D9072A;}
	.st7{opacity:0.54;fill:#2BB9D2;}
	.st8{fill:#676767;}
	.st9{fill:#FFFFFF;}
	.st10{fill:none;stroke:#FFFFFF;stroke-width:0.5;stroke-linecap:round;stroke-linejoin:round;stroke-miterlimit:10;}
	.st11{fill:#FFFFFF;stroke:#3E3E3E;stroke-width:5;stroke-miterlimit:10;}
	.st12{opacity:0.69;}
	.st13{fill:#070707;}
	.st14{fill:none;stroke:#FFFFFF;stroke-width:0.25;stroke-linecap:round;stroke-linejoin:round;stroke-miterlimit:10;}
	.st15{fill:none;stroke:#636362;stroke-width:2;stroke-linecap:round;stroke-linejoin:round;stroke-miterlimit:10;}
	.st16{fill:none;stroke:#636362;stroke-width:2;stroke-miterlimit:10;}
	.st17{fill:#636362;stroke:#636362;stroke-width:2;stroke-linecap:round;stroke-linejoin:round;stroke-miterlimit:10;}
	.st18{opacity:0.6;fill:#2BB9D2;}
	.st19{fill:#00A6C5;}
	.st20{fill:none;stroke:#EE717C;stroke-width:8;stroke-miterlimit:10;}
	.st21{fill:none;stroke:#444444;stroke-width:4;stroke-miterlimit:10;}
	.st22{fill:#FFFFFF;stroke:#454545;stroke-width:4;stroke-miterlimit:10;}
	.st23{opacity:0.57;fill:#2BB9D2;}
	.st24{fill:none;stroke:#636362;stroke-width:4;stroke-miterlimit:10;}
	.st25{fill:none;stroke:#636362;stroke-linecap:round;stroke-linejoin:round;stroke-miterlimit:10;}
	.st26{fill:none;stroke:#636362;stroke-miterlimit:10;}
	.st27{fill:none;stroke:#000000;stroke-miterlimit:10;}
	.st28{opacity:0.48;fill:#F09687;}
	.st29{opacity:0.46;fill:#00A6C5;}
	.st30{opacity:0.67;fill:#60B676;}
	.st31{fill:#FFFFFF;stroke:#636362;stroke-linecap:round;stroke-linejoin:round;stroke-miterlimit:10;}
	.st32{opacity:0.81;fill:#EE717C;}
	.st33{opacity:0.52;fill:#2BB9D2;}
</style>
<g id="dessin">
	<path class="st2" d="M167.2,443.8l-13.7,18.7c-1.6,2.2-1.2,5.3,1.1,7c0.9,0.7,1.9,1,2.9,1c1.5,0,3-0.7,4-2l13.9-18.9
		c9.4,5.4,19.8,8.3,30.5,8.3c4.4,0,8.8-0.5,13.1-1.4c16.7-3.6,30.8-13.6,39.6-28.3l12.4-20.6c1.2-2,0.9-4.5-0.7-6.1
		c-7.1-7.2-8.1-18.4-2.4-26.7c5.1-7.4,14.3-10.7,23-8.2c2.2,0.6,4.5-0.3,5.7-2.3l11.4-19.9c9.9-17.2,4.8-39.5-11.6-50.8l-0.2-0.1
		l46.8-72.5l10.3,7.1c0.9,0.6,1.8,0.9,2.8,0.9c1.6,0,3.1-0.8,4.1-2.2c1.6-2.3,1-5.4-1.3-6.9l-10.5-7.2l3.1-4.7l10.6,7.3
		c0.9,0.6,1.8,0.9,2.8,0.9c1.6,0,3.1-0.8,4.1-2.2c1.6-2.3,1-5.4-1.3-6.9l-10.9-7.5l1.4-2.2c0,0,0.1-0.1,0.1-0.1l8.8-12.9
		c0.8-1.1,1-2.4,0.8-3.7c-0.2-1.3-1-2.4-2.1-3.2l-12.9-8.8c-2.3-1.6-5.4-1-6.9,1.3l-8.8,12.9c0,0.1,0,0.1-0.1,0.2l-1.5,2.1
		l-12.2-8.4c-2.3-1.6-5.4-1-6.9,1.3c-1.6,2.3-1,5.4,1.3,6.9l12,8.2l-3.3,4.6l-11.9-8.2c-2.3-1.6-5.4-1-6.9,1.3
		c-1.6,2.3-1,5.4,1.3,6.9l11.6,8l-50.9,69.7l-0.2-0.1c-16.4-11.2-39-8-51.6,7.4l-14.5,17.7c-1.4,1.8-1.5,4.3-0.1,6.1
		c5.4,7.2,5.6,17,0.6,24.4c-5.7,8.3-16.5,11.4-25.8,7.3c-2.1-0.9-4.5-0.3-5.9,1.5l-14.7,19c-10.5,13.5-14.8,30.2-12.2,47.1
		C147.7,420.9,155.4,434.2,167.2,443.8z M263.9,283.3l-33.8,46.3c-0.8,1.1-1.1,2.5-0.9,3.8c0.2,1.3,1,2.5,2.1,3.3l6.3,4.3l-25,36.1
		l-7.2-5.4c-2.2-1.7-5.3-1.2-7,1c-1.7,2.2-1.2,5.3,1,7l7.5,5.6l-5.1,7.4l-10.4-7.1c-1.4-1-3.3-1.1-4.8-0.5c-1.6,0.7-2.7,2.2-2.9,3.9
		l-2.8,19.6L168.1,431c-6.8-7.4-11.3-16.6-12.9-26.8c-2.2-14.1,1.4-28.2,10.2-39.5l12.5-16.1c12.7,3.7,26.6-1,34.3-12.2
		c6.7-9.8,7.1-22.5,1.4-32.7l12.2-14.9C235,277.5,251.8,275,263.9,283.3z M175.7,437.8l14.2-25.2c0.3-0.5,0.5-1.1,0.6-1.8l1.8-12.6
		l16.7,11.5L198,416c-0.5,0.3-1,0.7-1.4,1.2l-18.4,22.3c-0.4-0.3-0.9-0.5-1.3-0.8C176.5,438.4,176.1,438.1,175.7,437.8z
		 M254.1,340.3l-13-8.9l82.5-112.9l6.3,4.4L254.1,340.3z M335.4,214.4l-5.9-4l13.2-18l2.4,1.7l2.4,1.6L335.4,214.4z M356.3,182.7
		l-3.2,4.6l-4.6-3.2l3.2-4.6L356.3,182.7z M187.2,444.2l16.4-19.9l17.3-9.6c1.5-0.8,2.5-2.4,2.6-4.1c0.1-1.7-0.7-3.4-2.2-4.3
		l-11.4-7.8l4.9-7l4.4,3.3c0.9,0.7,1.9,1,3,1c1.5,0,3-0.7,4-2c1.7-2.2,1.2-5.3-1-7l-4.7-3.6l25.3-36.5l7,4.8
		c0.8,0.6,1.8,0.9,2.8,0.9c0.3,0,0.7,0,1-0.1c1.3-0.3,2.5-1.1,3.2-2.2l31.1-48.2c12.1,8.3,15.8,24.8,8.5,37.6l-9.6,16.7
		c-11.6-1.8-23.3,3.2-30,13c-7.7,11.1-7.1,25.8,0.9,36.4l-10.6,17.5c-7.4,12.2-19.2,20.7-33.2,23.7
		C206.8,448.8,196.6,447.9,187.2,444.2z"/>
	<path class="st2" d="M208.8,372.3c2.9-2.9,2.9-7.6,0-10.5c-1.7-1.7-4.1-2.7-6.5-2.7c0,0,0,0,0,0c-2.5,0-4.8,1-6.5,2.7l-7.8,7.9
		c0-1.1-0.5-2.2-1.3-3.1c-1.8-1.8-4.6-1.7-6.4,0l-3.3,3.4c-2.9,2.9-2.9,7.6,0,10.5c1.7,1.7,4.1,2.7,6.5,2.7c0,0,0,0,0,0
		c2.5,0,4.8-1,6.5-2.7l7.8-7.9c0,1.1,0.5,2.2,1.3,3.1c1.8,1.8,4.6,1.7,6.4,0L208.8,372.3z"/>
	<path class="st2" d="M236.3,383.8l-4.8,11.1c-1.1,2.5-1.2,5.3-0.2,7.8c1,2.6,2.9,4.6,5.4,5.7c1.1,0.5,2.2,0.7,3.4,0.7
		c1,0,2-0.2,2.9-0.5c2-0.8,3.7-2.3,4.6-4.3l2.2-4.8c1.1-2.5,0-5.5-2.5-6.6c-1.1-0.5-2.4-0.6-3.5-0.2l4.8-11.1
		c2.3-5.1,0-11.2-5.1-13.5c-2-0.9-4.2-1-6.3-0.2c-2,0.8-3.7,2.3-4.6,4.3l-2.1,4.8c-1.1,2.5,0,5.5,2.5,6.6
		C234,384.1,235.2,384.2,236.3,383.8z"/>
	<path class="st2" d="M207,362.5c-6.1-1.7-9.2-5.2-9.6-10.3C202.3,352.1,207.4,357.4,207,362.5z"/>
	<g>
		<path class="st2" d="M444.7,430.6c-6.7-2.7-13.7-5.2-20.9-6.2c-12.5-1.7-25.1-2.3-37.7-3.1c-3.3-0.2-5.6-0.5-4.8-4.8
			c5.5-30.7,3.6-61.5-1.1-91.9c-3.9-25.9-11.6-50.8-22.1-75c-11.4-26.1-24.4-50.7-48.8-67.2c-1.8-1.2-3.7-2.3-5.6-3.4
			c-0.4,0.5-0.7,1-1.1,1.6c0.8,1,1.6,2.1,2.5,3c15.3,15.1,28.2,31.8,37.8,51.3c6.2,12.6,7.6,25,4.4,38.2
			c-6.5,27.5-24,46.3-47.6,59.9c0.3,1.1,0.6,2.2,0.9,3.3c4.3-2.4,8.5-4.8,12.6-7.4c14.6-9.1,26-21.6,33.6-37.2
			c3.7-7.5,6.4-15.4,9.6-23.1c3.4,8.1,5.7,16.2,7.8,24.4c2.1,8.5,1.1,10-7.8,11.4c-2.5,0.4-5,0.5-7.4,0.8c-2,0.3-4,0.7-6,1.1
			c-0.1,0.6-0.2,1.3-0.3,1.9c1.7,0.6,3.5,1.7,5.1,1.6c4.9-0.3,10-0.7,14.8-1.8c3.8-0.9,5.3,0.3,5.8,3.8c0.5,3.3,1.1,6.7,1.8,10
			c5.6,27.2,7.1,54.6,4.8,82.3c-0.3,3.5-1.9,5.4-4.9,6.9c-11.2,5.3-23.1,7.1-35.3,7.7c-29.3,1.5-58.6,2.9-88,3.7
			c-13.6,0.4-27.3-0.9-41-1.4c-5.5-0.2-11.1-0.3-16.6-0.5c-0.1,0.6-0.2,1.2-0.3,1.8c1.7,0.5,3.5,1.3,5.2,1.4
			c13.3,0.8,26.6,2.2,39.9,2.1c26.9-0.2,53.7-1,80.6-2c18.8-0.7,37.8-0.8,55.8-7.4c0.2-0.1,0.6,0.2,0.9,0.4
			c-4.1,21.1-25.7,43-46.8,46.2c-31.5,4.8-63.1,9.1-95.1,8c-4.7-0.2-9.6-1-14-2.7c-2.3-0.9-5.1-4.2-5.2-6.4
			c-0.1-2.3,2.5-5.3,4.7-6.8c2.5-1.8,5.8-2.7,8.9-3.4c9.2-2,18.5-3.9,27.8-5.4c7.8-1.3,13.3-5.7,18.3-10.8
			c-6.8,2.5-13.6,5.7-20.7,7.4c-8.3,2-16.9,2.5-25.3,3.8c-8.9,1.4-17.5,3.7-23.9,10.6c-4.1,4.3-4.4,9.9-0.3,12.6
			c2.8,1.9,6,4,9.1,4.2c16.1,1.1,32.3,2.4,48.4,2c16-0.4,31.9-2.6,47.8-4.5c12.7-1.5,25.6-1.9,37.4-7.8c1.4-0.7,3.9,0.3,5.6,1.1
			c7.5,3.5,14.6,8.3,22.5,10.5c21.2,6,41.6,0.8,61.4-6.9c8.2-3.2,15.7-7.1,20.2-15.5C457.3,443.5,455.1,434.8,444.7,430.6z"/>
		<path class="st2" d="M159.8,345.2c-0.2,1.5-0.1,3.1-0.5,4.5c-6,21.8-5.2,43.7,0.8,65.3c2,7.3,5.6,14.2,8.8,21.1
			c0.8,1.7,3.3,2.7,5.1,3.9c1.2,0.7,2.7,1.1,4,2.9c-1.2,0.4-2.4,0.9-3.7,1.1c-9,1.4-17.9,2.6-26.9,3.9c-1.1,0.2-2.2,0.2-3.1,0.6
			c-3.6,1.5-7.6,2.9-7.5,7.8c0.1,4.9,4,5.8,7.8,6.4c13.5,2.3,26.9,4.5,40.4,6.7c1.2,0.2,2.6,0.1,3.6,0.7c1.1,0.6,1.9,1.7,2.8,2.6
			c-1.1,0.9-2.2,2.6-3.4,2.6c-3.5,0.1-7.1-0.3-10.6-0.7c-11.5-1.3-23-2.4-34.4-4.2c-4.6-0.8-9.2-2.9-13.1-5.4
			c-6.9-4.6-6.7-13,0.7-16.8c5.7-2.9,12.4-4,18.7-5.7c1.7-0.5,3.5-0.2,5.3-0.4c5.4-0.6,6.5-1.9,4.2-6.9c-7.6-17-9.4-35-9.3-53.2
			c0-9,1.5-18.1,3.1-26.9c0.7-3.7,3.3-7,5-10.5C158.4,344.7,159.1,345,159.8,345.2z"/>
		<path class="st2" d="M297.3,166.4c1.8-3,4.1-5.8,5.3-9c2.4-6,5-12.2,6.1-18.5c1.3-7.5-2.7-13.4-9.1-17.4
			c-5.8-3.6-11.1-1.4-15.8,2.2c-3.2,2.5-5.5,2-8.5-0.2c-20.4-14.8-43.3-20.2-67.8-14.4c-19.9,4.7-34.8,17.1-44.2,35.6
			c-0.8,1.6-1.9,3.1-3.6,5.9c-1.9-6.7,0.8-10.9,3.1-14.8c6.9-11.8,17.8-19.4,29.6-25.3c25.2-12.4,50.8-8.8,76.3-0.6
			c0.3,0.1,0.7,0.2,1,0.5c5.7,4.3,10.8,4.8,18.2,2.3c9.7-3.2,19.4,0.1,24.9,14.2c4.5,11.3-1.3,31.6-11.1,38.9
			c-1.1,0.8-2.4,1.2-3.6,1.8C298,167.2,297.6,166.8,297.3,166.4z"/>
		<path class="st2" d="M200.3,159.9c-0.9,0.7-1.1,0.8-1.2,0.8c-2.3,0.8-6,1.2-6.5,2.5c-1.1,3.6,1.4,5.8,4.8,7.7
			c1.4,0.8,2.3,4.7,1.8,6.7c-1.9,6.7-6.5,10.7-13.7,11.6c-7.2,0.9-12.6-2.2-16.4-7.7c-2.3-3.4-3.6-7.8-4.4-11.9
			c-1.4-7.7,2.9-15,9.9-18.4c7.2-3.5,17.4-2.1,22.3,3.2C198.4,156,199.3,158.1,200.3,159.9z"/>
		<path class="st2" d="M161.2,239.3c-0.7,2.2-0.9,3.9-1.8,5.2c-10.7,16.9-10.5,35-6.3,53.6c3.4,15,8.7,29.3,17.5,42.1
			c0.5,0.7,1.3,1.5,1.3,2.3c0,1.8-0.4,3.5-0.6,5.3c-1.5-0.6-3.5-0.8-4.5-1.9c-8.2-9.7-15.4-20.1-18.2-32.8
			c-3.6-16.6-5.6-33.5-1.6-50.3c1.8-7.4,6.4-14.1,9.8-21c0.4-0.7,1.2-1.3,1.9-1.8C159.2,239.7,159.7,239.7,161.2,239.3z"/>
		<path class="st2" d="M217.3,209.2c-0.8,1.4-1.4,3.1-2.4,4.3c-5,5.7-9.8,11.8-15.5,16.8c-2.4,2.1-6.9,1.8-10.4,2.7
			c-10.8,2.7-15.9-6.1-22.7-11.3c-0.6-0.5-0.5-1.9-0.8-3.8c2.3,0.4,3.9,0.8,5.5,1.1c5.5,0.9,8.2-2.2,6.3-7.4c-1.8-5-3-10-0.2-15.8
			c0.8,1.2,1.9,2.4,2.3,3.7c0.4,1.5,0.1,3.2,0.3,4.8c1.4,12.6,11.1,18.1,22.5,12.6c3.1-1.5,5.9-4,8.9-5.8c1.7-1.1,3.6-1.8,5.4-2.7
			C216.7,208.5,217,208.9,217.3,209.2z M193.5,228c0.2-0.7,0.3-1.4,0.5-2c-2.2-0.6-4.5-1.3-6.7-1.9c-0.2,0.8-0.4,1.6-0.6,2.5
			C189,227,191.3,227.5,193.5,228z"/>
		<path class="st2" d="M293.7,177.7c-8,17.4-13.5,35.1-8.8,54.7c-0.8,0.1-1.5,0.3-2.3,0.4c-1.1-2.1-3.1-4.2-3.2-6.3
			c-0.3-6-0.6-12.1,0.6-17.9c2.1-9.8,4.6-19.8,11-27.9C291.8,179.5,292.8,178.6,293.7,177.7z"/>
		<path class="st2" d="M296.3,156.7c-5.6-0.2-7.5-3.7-6.9-7.9c0.7-4.8,0.2-9.8,0.5-14.8c0.1-1.7,1-3.4,1.5-5.1
			c1.2,1.3,3.2,2.4,3.5,3.8c1.4,6.2,2.5,12.5,3.2,18.9C298.2,153.4,296.8,155.3,296.3,156.7z"/>
	</g>
	<g>
		<g>
			<path class="st8" d="M237.8,156.9c-5.1,1.6-11.5-0.4-14.1-3.6c0,0-0.2-0.7-0.5-1.5c1.8-4.6,9.9-9.6,15.5-7.3
				c2.7,0.8,3.6,3.7,5.8,5.5c0.2,0.7-0.8,2.7-1.5,2.9C241.2,155,240,156.2,237.8,156.9z"/>
		</g>
	</g>
	<g>
		<circle class="st9" cx="237.4" cy="150.5" r="3.9"/>
	</g>
	<path class="st2" d="M164.3,228.2c-15.7-8.9-18-38.9-8.9-51.9c-3.2,13.8-2.7,26.3,3.5,38.1c1.3,2.5,3.2,4.7,4.3,7.3
		C164,223.3,163.9,225.3,164.3,228.2"/>
	<path class="st9" d="M176.4,234.4c0,0,0.9,6.8,4.8,9.1l5.6,0.1l-1.4-9L176.4,234.4z"/>
	<path class="st9" d="M187.2,234.7l1.4,9l5.1,0.1c0,0,2.5-6.9,2.6-9.8C196.3,233.9,191.3,235.5,187.2,234.7z"/>
	<path class="st9" d="M263.9,282l-33.8,46.3c-0.8,1.1-1.1,2.5-0.9,3.8c0.2,1.3,1,2.5,2.1,3.3l6.3,4.3l-25,36.1l-7.2-5.4
		c-2.2-1.7-5.3-1.2-7,1c-1.7,2.2-1.2,5.3,1,7l7.5,5.6l-5.1,7.4l-10.4-7.1c-1.4-1-3.3-1.1-4.8-0.5c-1.6,0.7-2.7,2.2-2.9,3.9
		l-2.8,19.6l-12.7,22.5c-6.8-7.4-11.3-16.6-12.9-26.8c-2.2-14.1,1.4-28.2,10.2-39.5l12.5-16.1c12.7,3.7,26.6-1,34.3-12.2
		c6.7-9.8,7.1-22.5,1.4-32.7l12.2-14.9C235,276.1,251.8,273.7,263.9,282z"/>
	<path class="st9" d="M175.7,436.5l14.2-25.2c0.3-0.5,0.5-1.1,0.6-1.8l1.8-12.6l16.7,11.5l-11.1,6.2c-0.5,0.3-1,0.7-1.4,1.2
		l-18.4,22.3c-0.4-0.3-0.9-0.5-1.3-0.8C176.5,437.1,176.1,436.8,175.7,436.5z"/>
	<polygon class="st9" points="243.8,351.3 232.1,343.2 306.8,240.9 312.5,244.9 	"/>
	<polygon class="st9" points="317.4,237.3 312.1,233.6 324.1,217.3 326.2,218.8 328.4,220.3 	"/>
	
		<rect x="330.3" y="206.7" transform="matrix(0.5662 -0.8243 0.8243 0.5662 -28.0921 365.0871)" class="st9" width="5.1" height="5.1"/>
	<path class="st9" d="M187.2,442.8l16.4-19.9l17.3-9.6c1.5-0.8,2.5-2.4,2.6-4.1c0.1-1.7-0.7-3.4-2.2-4.3L210,397l4.9-7l4.4,3.3
		c0.9,0.7,1.9,1,3,1c1.5,0,3-0.7,4-2c1.7-2.2,1.2-5.3-1-7l-4.7-3.6l25.3-36.5l7,4.8c0.8,0.6,1.8,0.9,2.8,0.9c0.3,0,0.7,0,1-0.1
		c1.3-0.3,2.5-1.1,3.2-2.2l31.1-48.2c12.1,8.3,15.8,24.8,8.5,37.6l-9.6,16.7c-11.6-1.8-23.3,3.2-30,13c-7.7,11.1-7.1,25.8,0.9,36.4
		l-10.6,17.5c-7.4,12.2-19.2,20.7-33.2,23.7C206.8,447.4,196.6,446.5,187.2,442.8z"/>
	<path class="st23" d="M263.9,282l-33.8,46.3c-0.8,1.1-1.1,2.5-0.9,3.8c0.2,1.3,1,2.5,2.1,3.3l6.3,4.3l-25,36.1l-7.2-5.4
		c-2.2-1.7-5.3-1.2-7,1c-1.7,2.2-1.2,5.3,1,7l7.5,5.6l-5.1,7.4l-10.4-7.1c-1.4-1-3.3-1.1-4.8-0.5c-1.6,0.7-2.7,2.2-2.9,3.9
		l-2.8,19.6l-12.7,22.5c-6.8-7.4-11.3-16.6-12.9-26.8c-2.2-14.1,1.4-28.2,10.2-39.5l12.5-16.1c12.7,3.7,26.6-1,34.3-12.2
		c6.7-9.8,7.1-22.5,1.4-32.7l12.2-14.9C235,276.1,251.8,273.7,263.9,282z"/>
	<path class="st23" d="M175.7,436.5l14.2-25.2c0.3-0.5,0.5-1.1,0.6-1.8l1.8-12.6l16.7,11.5l-11.1,6.2c-0.5,0.3-1,0.7-1.4,1.2
		l-18.4,22.3c-0.4-0.3-0.9-0.5-1.3-0.8C176.5,437.1,176.1,436.8,175.7,436.5z"/>
	<polygon class="st1" points="243.7,356.1 228.6,345.9 324.6,216.8 332,221.8 	"/>
	<polygon class="st1" points="334,216.3 327.6,212 341.9,192.4 344.5,194.2 347.1,196 	"/>
	
		<rect x="349.3" y="179.7" transform="matrix(0.5662 -0.8243 0.8243 0.5662 2.2017 369.725)" class="st1" width="6.1" height="6.1"/>
	<path class="st23" d="M187.2,442.8l16.4-19.9l17.3-9.6c1.5-0.8,2.5-2.4,2.6-4.1c0.1-1.7-0.7-3.4-2.2-4.3L210,397l4.9-7l4.4,3.3
		c0.9,0.7,1.9,1,3,1c1.5,0,3-0.7,4-2c1.7-2.2,1.2-5.3-1-7l-4.7-3.6l25.3-36.5l7,4.8c0.8,0.6,1.8,0.9,2.8,0.9c0.3,0,0.7,0,1-0.1
		c1.3-0.3,2.5-1.1,3.2-2.2l31.1-48.2c12.1,8.3,15.8,24.8,8.5,37.6l-9.6,16.7c-11.6-1.8-23.3,3.2-30,13c-7.7,11.1-7.1,25.8,0.9,36.4
		l-10.6,17.5c-7.4,12.2-19.2,20.7-33.2,23.7C206.8,447.4,196.6,446.5,187.2,442.8z"/>
	<path class="st2" d="M171,353.1c3,2.4,6.1,4.9,10,8.1c-0.3-2.2-0.6-3.2-0.5-4.1c0-1.1,0.1-3,0.6-3.2c1.2-0.4,3.1-0.5,3.9,0.3
		c3.4,3.1,6.5,6.5,9.4,10.1c0.6,0.7,0.2,2.7-0.4,3.7c-0.5,0.7-2.1,0.9-3.2,0.7c-1.2-0.2-2.2-1-3.3-1.6c-3.5,5-4.2,5.3-8.9,1.3
		c-3.1-2.6-5.9-5.6-8.4-8.8c-1.1-1.4-1-3.6-1.4-5.5C169.7,353.7,170.4,353.4,171,353.1z"/>
	<path class="st2" d="M276.4,290.5c-0.7-2.2-1.2-3.8-1.7-5.4c1.6,0,3.3-0.4,4.8,0.1c4.2,1.3,8.3,2.9,12.3,4.6
		c0.8,0.3,1.9,1.9,1.7,2.5c-0.3,0.9-1.8,2-2.6,1.9C286.3,293.1,281.6,291.8,276.4,290.5z"/>
	<path class="st2" d="M282,307.7c-1.6,0.6-3.5,2.2-4.6,1.7c-4.5-1.9-8.9-4.3-13.2-6.8c-0.8-0.5-0.8-2.3-1.2-3.6
		c1.1-0.1,2.5-0.6,3.4-0.2c5,2.2,9.9,4.7,14.9,7.1C281.5,306.6,281.7,307.1,282,307.7z"/>
	<path class="st2" d="M284.8,300.2c-6.8,1.4-11.5-1.2-16.2-3.3c-0.6-0.3-0.9-2.2-0.7-3.2c0.1-0.7,1.7-2,2-1.8
		C274.6,294.2,280.6,294.4,284.8,300.2z"/>
	<path class="st2" d="M304.7,330.3c-12.5-5.3-24.1-12.2-34.3-21.4c-1.2-1.1-3.6-0.7-5.4-1c0.7,1.6,0.9,3.8,2.1,4.9
		c4,3.5,8,7.3,12.7,9.6c7.7,3.7,15.5,7.5,23.4,10.9c1-0.8,2-1.5,3-2.3c-1,0.8-2,1.5-3,2.3c0.5,0.2,1,0.4,1.5,0.6
		c0.7-0.9,1.4-1.8,2.1-2.7C306.1,330.9,305.4,330.6,304.7,330.3z"/>
</g>
<g id="tracé">
</g>
</svg>
