<?xml version="1.0" encoding="utf-8"?>
<!-- Generator: Adobe Illustrator 22.1.0, SVG Export Plug-In . SVG Version: 6.00 Build 0)  -->
<svg version="1.1" xmlns="http://www.w3.org/2000/svg" xmlns:xlink="http://www.w3.org/1999/xlink" x="0px" y="0px"
	 viewBox="0 0 579.6 563.9" style="enable-background:new 0 0 579.6 563.9;" xml:space="preserve">
<style type="text/css">
	.st0{opacity:0.55;fill:#2BB9D2;}
	.st1{fill:#EE717C;}
	.st2{fill:#636362;}
	.st3{fill:#F0F0F1;}
	.st4{opacity:0.55;}
	.st5{fill:#2BB9D2;}
	.st6{fill:#D9072A;}
	.st7{opacity:0.54;fill:#2BB9D2;}
	.st8{fill:#676767;}
	.st9{fill:#FFFFFF;}
	.st10{fill:none;stroke:#FFFFFF;stroke-width:0.5;stroke-linecap:round;stroke-linejoin:round;stroke-miterlimit:10;}
	.st11{fill:#FFFFFF;stroke:#3E3E3E;stroke-width:5;stroke-miterlimit:10;}
	.st12{opacity:0.69;}
	.st13{fill:#070707;}
	.st14{fill:none;stroke:#FFFFFF;stroke-width:0.25;stroke-linecap:round;stroke-linejoin:round;stroke-miterlimit:10;}
	.st15{fill:none;stroke:#636362;stroke-width:2;stroke-linecap:round;stroke-linejoin:round;stroke-miterlimit:10;}
	.st16{fill:none;stroke:#636362;stroke-width:2;stroke-miterlimit:10;}
	.st17{fill:#636362;stroke:#636362;stroke-width:2;stroke-linecap:round;stroke-linejoin:round;stroke-miterlimit:10;}
	.st18{opacity:0.6;fill:#2BB9D2;}
	.st19{fill:#00A6C5;}
	.st20{fill:none;stroke:#EE717C;stroke-width:8;stroke-miterlimit:10;}
	.st21{fill:none;stroke:#444444;stroke-width:4;stroke-miterlimit:10;}
	.st22{fill:#FFFFFF;stroke:#454545;stroke-width:4;stroke-miterlimit:10;}
	.st23{opacity:0.57;fill:#2BB9D2;}
	.st24{fill:none;stroke:#636362;stroke-width:4;stroke-miterlimit:10;}
	.st25{fill:none;stroke:#636362;stroke-linecap:round;stroke-linejoin:round;stroke-miterlimit:10;}
	.st26{fill:none;stroke:#636362;stroke-miterlimit:10;}
	.st27{fill:none;stroke:#000000;stroke-miterlimit:10;}
	.st28{opacity:0.48;fill:#F09687;}
	.st29{opacity:0.46;fill:#00A6C5;}
	.st30{opacity:0.67;fill:#60B676;}
	.st31{fill:#FFFFFF;stroke:#636362;stroke-linecap:round;stroke-linejoin:round;stroke-miterlimit:10;}
	.st32{opacity:0.81;fill:#EE717C;}
	.st33{opacity:0.52;fill:#2BB9D2;}
</style>
<g id="dessin">
</g>
<g id="tracé">
	<path class="st0" d="M233.6,373.4c2.8-5.1,5.3-10.4,7.4-15.8c2.4,2.5,4.5,5.3,6.2,8.3c-1.6,3.8-3.3,7.6-5.2,11.3
		C239.2,376,236.4,374.8,233.6,373.4z"/>
	<path class="st0" d="M245.1,378.4c1.5-2.9,2.9-5.8,4.1-8.8c1.6,3.6,2.8,7.4,3.4,11.4C250.1,380.2,247.6,379.3,245.1,378.4z"/>
	<path class="st0" d="M237.4,354.2c0.4,0.3,0.7,0.6,1.1,1c-2.2,5.8-4.8,11.4-7.8,16.8c-2.7-1.4-5.4-3-8.1-4.6
		c3.2-5.6,6.1-11.5,8.5-17.5C233.3,351.1,235.5,352.6,237.4,354.2z"/>
	<path class="st0" d="M203.2,344.5c-0.9,1.8-1.9,3.6-2.9,5.3c-1.3-1.3-2.5-2.5-3.8-3.8C198.7,345.3,200.9,344.8,203.2,344.5z"/>
	<path class="st0" d="M202.7,352.1c1.5-2.6,3-5.3,4.3-8c3.2-0.2,6.5,0,9.7,0.6c-2,4.7-4.3,9.2-6.9,13.6
		C207.4,356.3,205,354.2,202.7,352.1z"/>
	<path class="st0" d="M212.4,360.3c2.8-4.8,5.4-9.8,7.6-14.9c2.9,0.7,5.7,1.7,8.4,3c-2.3,6-5.1,11.8-8.3,17.3
		C217.4,363.9,214.8,362.1,212.4,360.3z"/>
	<path class="st0" d="M180.5,354.7c15.1,18.3,34.8,32.3,57,40.4c0.8,0.3,1.8-0.1,2.1-1c0.1-0.2,0.1-0.5,0.1-0.7
		c-0.1-0.6-0.4-1.1-1.1-1.4c-21.7-7.9-40.9-21.5-55.6-39.4c3.2-2.4,6.6-4.2,10.2-5.6c16.2,17.7,36.9,30.6,59.9,37.4
		c0.3,4,0.1,7.9-0.6,11.8c-2.6-0.6-5.2-1.3-7.8-2.1c-0.8-0.3-1.7,0.2-2,1.1c-0.3,0.8,0.2,1.7,1.1,2c2.6,0.8,5.3,1.6,8,2.2
		c-1,3.7-2.5,7.3-4.4,10.6c-14.7-3.2-28.6-8.9-41.2-16.9c-12.7-8-23.8-18.1-33.1-30c0.8-1.2,1.6-2.3,2.6-3.4
		C177.1,358,178.7,356.3,180.5,354.7z"/>
	<path class="st0" d="M177.9,394.8c-0.1,0.1-0.2,0.2-0.4,0.3c-3.2,2.5-6.5,4.8-9.9,7c-1-3-1.7-6.2-2.1-9.5c1.4-1,2.8-2.1,4.2-3.1
		c0.5-0.4,1-0.8,1.5-1.2C173.4,390.6,175.6,392.7,177.9,394.8z"/>
	<path class="st0" d="M169,386c-0.4,0.3-0.8,0.7-1.3,1c-0.8,0.6-1.6,1.3-2.5,1.9c0-2.3,0.1-4.5,0.4-6.7
		C166.8,383.4,167.9,384.7,169,386z"/>
	<path class="st0" d="M174.9,415.5c1.9-1.1,3.8-2.3,5.6-3.5c0.5-0.3,0.8-0.9,0.7-1.5c0-0.3-0.1-0.5-0.3-0.7
		c-0.5-0.7-1.5-0.9-2.2-0.5c-1.9,1.2-3.8,2.4-5.8,3.6c-1.7-2.4-3.1-5-4.2-7.7c3.7-2.3,7.3-4.9,10.7-7.5c0.3-0.2,0.5-0.4,0.8-0.6
		c2.4,2.1,4.8,4,7.4,5.9c-0.1,0.1-0.3,0.2-0.4,0.3c-1.1,0.8-2.2,1.7-3.3,2.5c-0.7,0.5-0.9,1.5-0.4,2.2c0.5,0.7,1.5,0.9,2.2,0.4
		c1.1-0.8,2.3-1.7,3.4-2.5c0.4-0.3,0.8-0.6,1.1-0.9c1.9,1.3,3.8,2.6,5.8,3.9c0.8,0.5,1.5,1,2.3,1.4c-0.5,0.4-1,0.8-1.5,1.2
		c-5,3.9-10.3,7.4-15.8,10.5c-0.1,0-0.1-0.1-0.2-0.1C178.8,419.8,176.7,417.7,174.9,415.5z"/>
	<path class="st0" d="M217.1,431.2c0.5-0.3,0.9-0.7,1.4-1c2.9-2.2,5.7-4.6,8.4-7.1c2.1,0.7,4.2,1.3,6.3,1.8
		C228.2,428.1,222.7,430.2,217.1,431.2z"/>
	<path class="st0" d="M223.4,421.9c-2.2,2-4.5,3.9-6.9,5.7c-1.9,1.5-3.8,2.9-5.8,4.3c-4.6,0.2-9.2-0.4-13.7-1.7
		c4.1-2.5,8-5.2,11.8-8.2c1.6-1.3,3.3-2.6,4.9-4C216.8,419.5,220.1,420.8,223.4,421.9z"/>
	<path class="st0" d="M210.4,416.6c-1.2,1-2.4,2-3.6,2.9c-4.4,3.4-9,6.5-13.7,9.3c-3.1-1.2-6.1-2.9-9-4.9c5.2-3,10.2-6.4,15-10.1
		c0.8-0.6,1.6-1.3,2.5-2C204.4,413.6,207.3,415.2,210.4,416.6z"/>
	<path class="st0" d="M236.5,422.5c-13.8-3.4-26.8-8.9-38.7-16.4c-11.9-7.6-22.5-17-31.4-28.1c1-4.2,2.6-8.2,4.7-11.9
		c9.4,11.8,20.6,21.8,33.2,29.8c12.7,8,26.5,13.7,41.1,17c-0.8,1.1-1.6,2.2-2.5,3.3C241,418.5,238.9,420.6,236.5,422.5z"/>
	<path class="st2" d="M227.6,326.6l1.2,13.7c0.3,3.3,3.2,5.7,6.4,5.4l1-0.1c3.3-0.3,5.7-3.2,5.4-6.4l-0.2-2.2
		c-0.1-1.5,1-2.8,2.5-2.9c1.5-0.1,2.8,1,2.9,2.5l2.9,31.9c-2.9-5.8-6.9-10.9-12-15.2c-9.7-8.1-21.9-11.9-34.5-10.8
		c-12.6,1.1-23.9,7.1-32,16.7s-11.9,21.9-10.8,34.5c1.1,12.6,7.1,23.9,16.7,32c9.7,8.1,21.9,11.9,34.5,10.8s23.9-7.1,32-16.7
		c8.1-9.7,11.9-21.9,10.8-34.5c0-0.2-4.4-49.1-4.4-49.1c-0.3-3.3-3.2-5.7-6.4-5.4c-3.3,0.3-5.7,3.2-5.4,6.4l0.2,2.2
		c0.1,1.5-1,2.8-2.5,2.9l-1,0.1c-1.5,0.1-2.8-1-2.9-2.5l-1.2-13.7c-0.1-0.9-0.9-1.5-1.7-1.5C228.1,324.9,227.5,325.7,227.6,326.6z
		 M231.8,374.9c2.8-5.1,5.3-10.4,7.4-15.8c2.4,2.5,4.5,5.3,6.2,8.3c-1.6,3.8-3.3,7.6-5.2,11.3C237.4,377.5,234.5,376.3,231.8,374.9z
		 M243.2,379.9c1.5-2.9,2.9-5.8,4.1-8.8c1.6,3.6,2.8,7.4,3.4,11.4C248.3,381.7,245.7,380.8,243.2,379.9z M235.6,355.7
		c0.4,0.3,0.7,0.6,1.1,1c-2.2,5.8-4.8,11.4-7.8,16.8c-2.7-1.4-5.4-3-8.1-4.6c3.2-5.6,6.1-11.5,8.5-17.5
		C231.5,352.6,233.6,354.1,235.6,355.7z M201.3,346c-0.9,1.8-1.9,3.6-2.9,5.3c-1.3-1.3-2.5-2.5-3.8-3.8
		C196.8,346.8,199.1,346.3,201.3,346z M200.8,353.6c1.5-2.6,3-5.3,4.3-8c3.2-0.2,6.5,0,9.7,0.6c-2,4.7-4.3,9.2-6.9,13.6
		C205.5,357.8,203.1,355.7,200.8,353.6z M210.5,361.7c2.8-4.8,5.4-9.8,7.6-14.9c2.9,0.7,5.7,1.7,8.4,3c-2.3,6-5.1,11.8-8.3,17.3
		C215.5,365.4,213,363.6,210.5,361.7z M178.7,356.2c15.1,18.3,34.8,32.3,57,40.4c0.8,0.3,1.8-0.1,2.1-1c0.1-0.2,0.1-0.5,0.1-0.7
		c-0.1-0.6-0.4-1.1-1.1-1.4c-21.7-7.9-40.9-21.5-55.6-39.4c3.2-2.4,6.6-4.2,10.2-5.6c16.2,17.7,36.9,30.6,59.9,37.4
		c0.3,4,0.1,7.9-0.6,11.8c-2.6-0.6-5.2-1.3-7.8-2.1c-0.8-0.3-1.7,0.2-2,1.1c-0.3,0.8,0.2,1.7,1.1,2c2.6,0.8,5.3,1.6,8,2.2
		c-1,3.7-2.5,7.3-4.4,10.6c-14.7-3.2-28.6-8.9-41.2-16.9c-12.7-8-23.8-18.1-33.1-30c0.8-1.2,1.6-2.3,2.6-3.4
		C175.2,359.4,176.9,357.8,178.7,356.2z M176,396.3c-0.1,0.1-0.2,0.2-0.4,0.3c-3.2,2.5-6.5,4.8-9.9,7c-1-3-1.7-6.2-2.1-9.5
		c1.4-1,2.8-2.1,4.2-3.1c0.5-0.4,1-0.8,1.5-1.2C171.5,392.1,173.7,394.2,176,396.3z M167.2,387.5c-0.4,0.3-0.8,0.7-1.3,1
		c-0.8,0.6-1.6,1.3-2.5,1.9c0-2.3,0.1-4.5,0.4-6.7C164.9,384.9,166,386.2,167.2,387.5z M173.1,417c1.9-1.1,3.8-2.3,5.6-3.5
		c0.5-0.3,0.8-0.9,0.7-1.5c0-0.3-0.1-0.5-0.3-0.7c-0.5-0.7-1.5-0.9-2.2-0.5c-1.9,1.2-3.8,2.4-5.8,3.6c-1.7-2.4-3.1-5-4.2-7.7
		c3.7-2.3,7.3-4.9,10.7-7.5c0.3-0.2,0.5-0.4,0.8-0.6c2.4,2.1,4.8,4,7.4,5.9c-0.1,0.1-0.3,0.2-0.4,0.3c-1.1,0.8-2.2,1.7-3.3,2.5
		c-0.7,0.5-0.9,1.5-0.4,2.2c0.5,0.7,1.5,0.9,2.2,0.4c1.1-0.8,2.3-1.7,3.4-2.5c0.4-0.3,0.8-0.6,1.1-0.9c1.9,1.3,3.8,2.6,5.8,3.9
		c0.8,0.5,1.5,1,2.3,1.4c-0.5,0.4-1,0.8-1.5,1.2c-5,3.9-10.3,7.4-15.8,10.5c-0.1,0-0.1-0.1-0.2-0.1
		C176.9,421.3,174.9,419.2,173.1,417z M215.3,432.7c0.5-0.3,0.9-0.7,1.4-1c2.9-2.2,5.7-4.6,8.4-7.1c2.1,0.7,4.2,1.3,6.3,1.8
		C226.4,429.6,220.9,431.7,215.3,432.7z M221.5,423.4c-2.2,2-4.5,3.9-6.9,5.7c-1.9,1.5-3.8,2.9-5.8,4.3c-4.6,0.2-9.2-0.4-13.7-1.7
		c4.1-2.5,8-5.2,11.8-8.2c1.6-1.3,3.3-2.6,4.9-4C214.9,421,218.2,422.3,221.5,423.4z M208.5,418.1c-1.2,1-2.4,2-3.6,2.9
		c-4.4,3.4-9,6.5-13.7,9.3c-3.1-1.2-6.1-2.9-9-4.9c5.2-3,10.2-6.4,15-10.1c0.8-0.6,1.6-1.3,2.5-2
		C202.5,415.1,205.5,416.7,208.5,418.1z M234.7,424c-13.8-3.4-26.8-8.9-38.7-16.4c-11.9-7.6-22.5-17-31.4-28.1
		c1-4.2,2.6-8.2,4.7-11.9c9.4,11.8,20.6,21.8,33.2,29.8c12.7,8,26.5,13.7,41.1,17c-0.8,1.1-1.6,2.2-2.5,3.3
		C239.2,420,237,422.1,234.7,424z"/>
	<path class="st2" d="M334.9,151.6c0.9-2.9,1.5-5.9,2.8-8.7c5.3-11.3,9.4-22.9,9-35.7c-0.6-20.4-20.1-34.1-39.3-21.9
		c-3.6,2.3-6.4,2.1-9.6-0.5c-30.4-24.6-63.8-24.6-98.7-11.7c-15.5,5.7-30.1,12.5-38.2,28.2c-2.2,4.3-4.3,8.6-7.6,12.5
		c-1.2-7.2,2.3-12.9,5.6-18.5c9.6-16.4,26.4-22.8,42.6-29.7c24.5-10.3,49.6-14.8,75.2-5.2c7.8,2.9,14.9,8.1,21.8,13
		c3.3,2.3,5.2,2.9,9.3,1.4c7.4-2.7,15.6-5.2,23.3-4.9c10.5,0.5,15.1,9.8,19.1,18.4c10.1,21.6,0.1,54.2-13.1,64
		C336.3,152,335.6,151.8,334.9,151.6z"/>
	<g>
		<path class="st2" d="M358,486.5c2.1,0.7,3.7,0.5,5.3,0.7c1.6,0.2,3.9,0.1,4.6,1.1c7.1,9,17.6,11.5,27.6,13.9
			c22,5,44.1,2.7,66.2-0.3c11.7-1.6,21.3-7.1,29.4-15.1c9.4-9.3,8.4-22.1-2.9-28.6c-15.6-8.9-31.8-16.8-48.3-23.9
			c-10.1-4.3-21.2-6.2-32.5-9.4c0.4-2.2,0.9-5.2,1.5-8.1c5.7-28.2,6.6-56.6,3.1-85.1c-5.2-42.8-16.1-83.8-38.3-121.4
			c-13.7-23.1-29-44.2-54.9-54.9c-2.3-0.9-4.8-1.4-7.2-2.1c-0.2,0.6-0.5,1.2-0.7,1.8c1.6,1.2,3,2.9,4.7,3.6
			c15.8,6.5,26.7,18.8,36.7,31.8c8.8,11.4,17.5,23.3,19,38.5c2.7,28.7-9,51.7-29.3,70.5c-11.1,10.3-23.7,19-36.2,27.6
			c-17.3,11.9-37,18.7-57.9,25.2c3.8-8.4-2.4-5-5.4-5.4c1.1-1.4,1.9-2.4,3.5-4.4c-3.9-1.2-7.2-3.4-10.2-3c-6.1,0.9-12.1,3.2-18.2,5
			c-0.3,1.9-0.7,4-1,6.1c1.6,0.4,2.9,0.7,4.2,1c-1.3,1.2-2.5,2.3-5,4.6c9.9,0.1,18.1,0.6,26.3,0.1c18.5-1.1,35.9-6.8,52-15.7
			c14.5-8.1,28.6-16.9,42.2-26.3c22.6-15.6,40.6-34.6,43-64c0-0.6,0.6-1.2,1.2-2.4c1.3,2.6,2.3,4,2.7,5.5
			c8.3,29.9,19,59.2,21.8,90.4c2.4,26.5,1,52.8-5.7,78.7C399.3,422.5,386.2,466.6,358,486.5z"/>
		<path class="st2" d="M134.3,380.7c0.7-15.2,3.7-30.3,8.9-45.3c1-3,3.8-5.4,5.8-8.1l-0.1-0.2c-0.7,3.1-1.2,6.3-2.3,9.3
			c-7.5,20.7-9.4,41.9-4.7,63.5c3.5,16.2,7.1,32.3,10.6,48.5c1.2,5.6,2.9,10.4,10.4,10.1c0,0.7-0.1,1.3-0.1,2
			c-2.6,0.5-5.1,1.4-7.7,1.5c-15.4,0.3-30.3,2.6-44.2,9.6c-0.4,0.2-0.9,0.3-1.3,0.6c-5.1,3-11.1,6.1-9.7,13.1
			c1.3,6.6,8.1,6.6,13.2,6.8c19.6,0.8,39.3,1.1,58.9,1.4c4,0.1,6.7-1,9.4-5.2c6.9-10.8,18.9-13.9,30.7-16.5
			c15.3-3.3,30.7-6,45.9-9.4c9.6-2.2,17.8-7,24.1-14.8c0.6-0.8,1.7-1.2,3.2-1.1c-3.7,8.3-10,14.3-18.6,17
			c-12.2,3.8-24.7,7.2-37.2,9.7c-11.9,2.4-23.3,5.1-31.3,15.3c-5.8,7.3-3.7,13.3,5.6,13.8c13.7,0.7,27.6,0.9,41.3-0.3
			c32.6-2.9,65.1-6.8,97.6-10.4c3.1-0.3,6.2-1.1,9.3-1.7c0.3,0.7,0.5,1.4,0.8,2.1c-2.2,0.9-4.3,2.4-6.5,2.7
			c-26.2,3.6-52.3,7.7-78.6,10.3c-19.7,2-39.7,2.3-59.5,2.8c-10.1,0.3-20.1-1.1-27.6-9.3c-0.7-0.8-2.4-1-3.6-1.1
			c-21.3-0.1-42.6,0.8-63.8-0.5c-7.2-0.4-14.8-5.1-21.1-9.4c-4.6-3.2-2.8-11.3,3.1-14c8.9-4.1,18.1-7.5,27.4-10.4
			c7.5-2.4,15.4-3.6,23.4-5.4c-2.4-10.4-4.6-20.8-7.1-31.2C135.1,411.2,133.6,395.9,134.3,380.7"/>
		<path class="st2" d="M203.1,138.1c0.2-2.4,0.4-4.8,0.5-7.3c8.2,8.3,6.6,21.3-3.3,27.7c-9.4,6.1-27.9,3-33-7.1
			c-5.5-10.9-1.8-24,10-30.3c6.3-3.4,18.9-0.7,22.9,5.3c0.8,1.2,0.5,3.3,0.6,5c0.1,2.3,0.1,4.6,0.1,7
			C201.7,138.2,202.4,138.1,203.1,138.1z"/>
		<path class="st2" d="M148.9,327.4c-5.1-8.6-11.2-16.8-15.1-25.9c-3.2-7.6-4.6-16.1-5.4-24.4c-2.1-22.2,3.4-42.2,19.8-58.2
			c1.3-1.3,2.9-2.4,4.4-3.6c0.5,0.4,1,0.9,1.4,1.3c-1.4,2.2-2.7,4.5-4.4,6.5c-6.4,7.2-10.3,15.3-11.7,24.9
			c-3.4,23.1-1.8,45.7,10.9,65.6c6.3,9.9,16.3,17.4,24.7,26l-0.2-0.3c1.7,2.6,3.3,5.1,4.9,7.5c-12.4-1.4-20-12-29.4-19.5
			C148.8,327.2,148.9,327.4,148.9,327.4z"/>
		<path class="st2" d="M227.9,174.4c-1,14.4-7,26.5-17.3,36.1c-2.3,2.1-6.4,3-9.7,3.2c-6.5,0.2-13-0.3-19.5-0.9
			c-1.8-0.1-4.1-0.7-5.1-2c-5.1-6.5-9.8-13.2-14-20.8c7.7,0,11.8,10.8,20.7,5.6c-3.5-9.9-5.2-19.9,0.3-30.2c0,2.3-0.2,4.6-0.1,6.9
			c0.3,4.9,0,9.9,1.3,14.5c2.9,10.6,13.2,15.2,23.2,10.8c8.9-4,15.5-10.2,18.4-19.9C226.5,176.6,227.3,175.5,227.9,174.4z
			 M176.1,202.4c1.9,6,5.8,6.3,11.4,5.5c-1-2.7-1.7-4.9-2.5-7.2C181.8,201.3,179.3,201.7,176.1,202.4z M207.5,203.2
			c-5.6-0.8-12-1.5-17.1-2.2C191.2,210.5,203.5,211.4,207.5,203.2z"/>
		<path class="st2" d="M308.3,94.4c9.7,3.9,14.8,12.7,13.5,23.4c-0.9,7.3-4.1,13.4-8.3,18.7c-2.1-6.2-4.1-11.9-6.5-18.7
			c6.7-6.2,2.6-15,1.5-23.5C308.5,94.3,308.3,94.4,308.3,94.4z"/>
		<path class="st2" d="M164.6,211c-19.5-10.4-23.4-47.3-12.6-63.5c-3.5,17.1-2.4,32.4,5.6,46.7c1.7,3,4.1,5.7,5.6,8.8
			C164.1,205,164,207.5,164.6,211z"/>
		<path class="st2" d="M173.5,339.5c-2.1-3.2-4.2-6.4-6.3-9.7c0.5-0.6,0.9-1.3,1.4-1.9c5,4,10,7.9,15.1,11.9
			c0.3-0.2,0.5-0.4,0.8-0.6c-1.1-1.4-2.2-2.9-3.3-4.5c0.6-0.7,1.3-1.7,1.4-1.7c7,4,13.9,8.1,20.8,12.3c-0.4,0.7-0.7,1.4-1.1,2
			c-1.9-0.1-3.8-0.3-6.6-0.5c1.6,1.3,2.5,2,3.4,2.7c-10.6,1-17.6-6-25.7-10.3C173.3,339.2,173.5,339.5,173.5,339.5z"/>
		<path class="st2" d="M228.9,123.6c-0.3-10.6,16.5-16.6,23.9-12.3c1.3,0.7,2.6,3.1,2.3,4.3c-0.3,1.3-3,3.4-3.8,3.1
			c-8.3-3.5-14.3,1-20.6,5.1C230.4,124.1,229.5,123.6,228.9,123.6z"/>
		<path class="st2" d="M208.9,344.4c-5.5-2.8-10.9-5.7-17.7-9.2c6.3-3,15.8,1.5,18.9,6.9C209.7,342.8,209.3,343.6,208.9,344.4z"/>
		<path class="st9" d="M175.2,200.3c3.2-0.6,7-0.2,10.2-0.8c0.8,2.3,1.2,5.6,2.1,8.3C179,209.7,177.1,206.3,175.2,200.3z"/>
	</g>
	<path class="st10" d="M410.9,496.4c0,0,9.9-32.3,41.8-50.1"/>
	<path class="st10" d="M432.7,501.8c0,0,9.9-32.3,41.8-50.1"/>
	<path class="st10" d="M379.8,495.5c0,0,11.9-36.6,50.8-56.7"/>
	<path class="st10" d="M398.9,446.4c0,0,43.8-5.9,83.9,26.5"/>
	<path class="st10" d="M385.9,462.2c0,0,43.8-5.9,83.9,26.5"/>
	<path class="st10" d="M375.7,483c0,0,39.3-7.2,73.1,14.9"/>
	<g>
		<polygon class="st1" points="304.3,264.5 222.8,340.3 298.6,258.9 		"/>
	</g>
	<g>
		<polygon class="st1" points="117.1,248 200.5,337 111.5,253.6 		"/>
	</g>
</g>
</svg>
