<svg xmlns="http://www.w3.org/2000/svg" viewBox="0 0 243 325"><defs><style>.cls-1{isolation:isolate;}.cls-2{fill:#00a5c3;opacity:0.46;mix-blend-mode:multiply;}.cls-3{fill:#fff;}</style></defs><title>Sans titre - 1</title><g class="cls-1"><g id="Calque_1" data-name="Calque 1"><g id="ZoJ6WK.tif"><path d="M233.31,115.71c0,18.28.27,36.57-.1,54.84-.23,11.13-1.79,22.15-7.17,32.23-4,7.6-10.27,12.69-18.17,15.83-11.57,4.6-23.82,5.57-36.06,6.29-4.8.29-7.56,1.53-9.58,6.56-8.51,21.12-17.65,42-26.64,62.9a90.5,90.5,0,0,1-5,9.52c-1.82,3.15-4.27,5.51-8.35,5.07-3.92-.43-6.2-3-7.69-6.25-3.36-7.49-6.59-15-9.85-22.56-6.68-15.38-13.38-30.74-20-46.15-1.18-2.75-2.82-3.61-5.84-3.39-11,.79-22,.23-32.71-2.71-20.42-5.6-34-21.87-36.55-43C7.81,169.67,10,154.71,12,139.67c1.61-12.26,3-24.57,3.73-36.9.42-7.23-.74-14.54-1-21.83a114.68,114.68,0,0,1,3.1-32C22.68,29.34,35.3,17.43,54.67,12.36,67.52,9,80.67,7.82,93.86,7.68q41.48-.42,83,0c11.82.11,23.55,1.54,34.42,6.89,10.1,5,16.13,13.18,19.3,23.76,3.36,11.23,3.61,22.79,3.58,34.38q0,21.53,0,43.05ZM113.87,288.06c.91,2.69,1.83,5.37,2.93,8.58l3-3.34-6-5.24c-.11-2.23.75-3.08,2.46-1.3a60.36,60.36,0,0,1,4.48,5.88l5.52-5.81L120.28,280l-4,1.78-.57-.79,2-3.14-4.26-5,1.18-1.22,4.87,4.05,11-10.46c-1.71-1.35-3.41-2.57-4.91-4-.37-.35-.14-1.35-.18-2.05.61.13,1.47.06,1.8.44,1.36,1.55,2.56,3.25,3.84,4.92l9.29-9.59-5.79-6.1c-4,2.5-6,7.24-10.46,8.67l-.87-.92L132.5,247l-3.5-4.37.93-1.1,4.34,3.19,8.78-8.9-4-4.52,7.6-6.39-1.79-4.58,4.28,1.56c.34-.47.65-1,1-1.42,2.36-3,4.53-6.16,7.16-8.88a38.54,38.54,0,0,1,6.66-4.88,6.81,6.81,0,0,1,2.32-.56c-.25.78-.28,1.81-.8,2.3-1.6,1.49-3.39,2.78-5.11,4.14l.74.78c1.17,1.35,2.33,2.71,3.93,4.58,2.55-3.36,4.41-6.38,6.84-8.84,3.34-3.39,7.09-6.39,10.74-9.47a6.2,6.2,0,0,1,2.3-.68l.45.69-2.23,3.23,4.1,3.33L203.9,190.3c2.19,2,3.86,3.52,5.5,5l7.26-6.16,1.12,1.27-6.54,7,3.24,3c4.2-2.16,5.63-7.61,11.43-8.06.84-6.27,1.49-12.71,2.63-19.06.82-4.58-1.18-7.38-4.88-9.75a21.38,21.38,0,0,1-2.6,2.11c-.45.27-1.18,0-1.79.06a6,6,0,0,1,.2-1.55c.74-1.74,1.56-3.45,2.48-5.47l2.06.68c6.7-6.22,6.7-6.4.06-11.36l-3.37,2.5-.81-.62c.87-1.89,1.74-3.79,2.67-5.8a7.85,7.85,0,0,0,6.51-7.62c.12-21.41.28-42.81.35-64.21,0-11.47-.2-22.93-3.8-34-2.68-8.22-7.5-14.76-15.25-19-9.53-5.17-20-6.77-30.51-6.86-29.73-.27-59.47-.43-89.2.14A176.6,176.6,0,0,0,57,16.77C37.5,21,25.63,33.4,21.62,53.18c-2.46,12.13-2.49,24.34-1.84,36.62.33,6.23,1,12.52.47,18.7-.94,11.63-2.48,23.21-4,34.78-1.84,13.89-3.69,27.75-1.67,41.8C17.49,205.54,30.5,219.65,50.64,224a103.25,103.25,0,0,0,30.72,1.77c3.17-.26,5.08.83,6.42,3.48.62,1.24,1.37,2.42,1.92,3.69,5.12,11.88,10.15,23.81,15.32,35.67C107.86,275.16,110.91,281.59,113.87,288.06Zm22.57-41.53,10,10.28c1.82-4.42,3.61-8.74,5.28-12.78l-6.14-5.63Zm-4.16,21.65-10.17,9.65,6.36,7c3.52-3.76,6.78-7.27,10.08-10.8Zm-1.47,18.34c.18,1,.39,2.06.61,3.18l-2.85-.64-5,4.26,2.94,4.14-.81.92-4.37-2.8-4.17,3.53c2.17,2,3.84,4.73,5.52,4.73s4.21-2.26,5.2-4.14c3-5.64,5.34-11.59,8-17.41l-.78-.47C133.58,283.4,132.17,285,130.81,286.52Zm28-70.8-7.55,7.08,6.69,6,5.25-9.44C162,218.37,160.34,217,158.78,215.72Zm-15.94,41.59-8.73,8.29c1.94,2.21,3.78,4.31,5.83,6.63l5.57-13.39Zm44-46.89-9,9.63,16.95-1.93Zm37-15c-2.12,3.25-7.64,4.16-6.88,8.6a53.7,53.7,0,0,0-4.91,2.86,17.89,17.89,0,0,0-3.16,3.17,5.34,5.34,0,0,0-.6,2c.78,0,1.76.36,2.31,0A29.78,29.78,0,0,0,223.78,195.45Zm-28.89,18.26c3,4,6.39,4,11,.3-.76-.45-1.88-.76-2.37-1.49a36.37,36.37,0,0,1-2.33-4.72Zm-42.31,28c1.38-3.19,2.62-6.08,3.84-8.91l-3.18-2.08-6.49,5.37Zm55-44.15-3.08-3.5-7.19,6.24,3,4.13Zm-25.51,7.14-6.57,5.72,3.35,4.22c2.44-2.57,4.31-4.53,6.25-6.59Zm-5.14,11.88-3.48-4.84c-2.07,2.26-3.66,3.91-5.14,5.66a10.25,10.25,0,0,0-1.11,2.25,9.64,9.64,0,0,0,2.7.83c1.94,0,3.88-.3,5.58-.45Zm28.23-7.31,6.85-6.31-2-3.4-7.56,6.7Zm-15.84-1.33,3.28,4,5.56-5.68-3-3.91Zm-40.26,18.21-6.7,5.55,2.82,2.51c2-2.07,3.82-3.94,5.72-5.88Zm78.9-61.8.68-.43v-5.37l-3.08,2.84Z"/><path class="cls-2" d="M113.87,288.06c-3-6.47-6-12.9-8.85-19.42C99.85,256.78,94.82,244.85,89.7,233c-.55-1.27-1.3-2.45-1.92-3.69-1.34-2.65-3.25-3.74-6.42-3.48A103.25,103.25,0,0,1,50.64,224c-20.14-4.38-33.15-18.49-36.08-38.95-2-14.05-.17-27.91,1.67-41.8,1.54-11.57,3.08-23.15,4-34.78.51-6.18-.14-12.47-.47-18.7-.65-12.28-.62-24.49,1.84-36.62C25.63,33.4,37.5,21,57,16.77a176.6,176.6,0,0,1,33.64-4.13c29.73-.57,59.47-.41,89.2-.14,10.54.09,21,1.69,30.51,6.86,7.75,4.21,12.57,10.75,15.25,19,3.6,11.06,3.84,22.52,3.8,34-.07,21.4-.23,42.8-.35,64.21a7.85,7.85,0,0,1-6.51,7.62c-.93,2-1.8,3.91-2.67,5.8l.81.62,3.37-2.5c6.64,5,6.64,5.14-.06,11.36l-2.06-.68c-.92,2-1.74,3.73-2.48,5.47a6,6,0,0,0-.2,1.55c.61,0,1.34.21,1.79-.06a21.38,21.38,0,0,0,2.6-2.11c3.7,2.37,5.7,5.17,4.88,9.75-1.14,6.35-1.79,12.79-2.63,19.06-5.8.45-7.23,5.9-11.43,8.06l-3.24-3,6.54-7-1.12-1.27-7.26,6.16c-1.64-1.48-3.31-3-5.5-5l-16.67,15.91-4.1-3.33,2.23-3.23-.45-.69a6.2,6.2,0,0,0-2.3.68c-3.65,3.08-7.4,6.08-10.74,9.47-2.43,2.46-4.29,5.48-6.84,8.84-1.6-1.87-2.76-3.23-3.93-4.58l-.74-.78c1.72-1.36,3.51-2.65,5.11-4.14.52-.49.55-1.52.8-2.3a6.81,6.81,0,0,0-2.32.56,38.54,38.54,0,0,0-6.66,4.88c-2.63,2.72-4.8,5.89-7.16,8.88-.36.46-.67.95-1,1.42l-4.28-1.56,1.79,4.58L139,231.3l4,4.52-8.78,8.9-4.34-3.19-.93,1.1,3.5,4.37-9.25,9.63.87.92c4.5-1.43,6.5-6.17,10.46-8.67l5.79,6.1-9.29,9.59c-1.28-1.67-2.48-3.37-3.84-4.92-.33-.38-1.19-.31-1.8-.44,0,.7-.19,1.7.18,2.05,1.5,1.41,3.2,2.63,4.91,4l-11,10.46-4.87-4.05-1.18,1.22,4.26,5-2,3.14.57.79,4-1.78,6.06,6.79-5.52,5.81a60.36,60.36,0,0,0-4.48-5.88c-1.71-1.78-2.57-.93-2.46,1.3Zm-29.3-133c-.07,10.79,2.27,14.73,7.88,15.35a13.4,13.4,0,0,0,7.84-1.71c5.63-3.4,11-7.32,16.27-11.21,1.88-1.38,3.18-1.61,5.12,0,4,3.26,8.24,6.37,12.55,9.27,3.43,2.31,6.94,4.72,10.76,6.18,6.62,2.52,12.13-1.18,12.94-8.15a12.65,12.65,0,0,0-.06-4.47q-3.15-12.24-6.59-24.4c-.56-2-.42-3.07,1.42-4.28,4.63-3.05,9.15-6.29,13.59-9.61a147.19,147.19,0,0,0,12.76-10.12c5.82-5.44,4.33-12.92-3.11-15.72a28.85,28.85,0,0,0-9.82-1.65c-8,0-16,.3-23.93.66-2.26.11-3.31-.56-3.86-2.78a122,122,0,0,0-3.64-12.29,33.83,33.83,0,0,0-4.27-8.62c-4.29-5.75-11.67-5.74-15.87.12-2,2.73-3,6.16-4.16,9.4-1.37,3.91-2.34,8-3.54,11.92-.81,2.66-2.54,3.5-5.42,3.57-8.2.19-16.41.6-24.57,1.41-4.76.48-9,2.63-10.77,7.58-1.8,5.14-.27,9.73,3.81,13.13,5.68,4.72,11.57,9.2,17.51,13.59,2,1.44,2.47,2.6,1.74,5.08C87.1,144.2,85.51,151.29,84.57,155.05Zm137.7,19.52c-2.7,2.51-4.31,6.36-8.43,5.18v5.65c3.28-2.51,4.46.63,6.29,2.24a28.49,28.49,0,0,0,2.24,2.16,7,7,0,0,0,2.06.67c-.15-.78,0-1.83-.5-2.28-2-1.9-4.12-3.62-6.2-5.4l6.12-6.33,3.26,1.43c-.17-2.5-.29-4.43-.47-7.19-2.66,3.39-3.65.54-5.19-.61a27.26,27.26,0,0,0-2.87-1.68l-.73,1.06Z"/><path class="cls-2" d="M136.44,246.53l9.13-8.13,6.14,5.63c-1.67,4-3.46,8.36-5.28,12.78Z"/><path class="cls-2" d="M132.28,268.18l6.27,5.84c-3.3,3.53-6.56,7-10.08,10.8l-6.36-7Z"/><path class="cls-2" d="M130.81,286.52c1.36-1.53,2.77-3.12,4.19-4.7l.78.47c-2.61,5.82-5,11.77-8,17.41-1,1.88-3.43,4.14-5.2,4.14s-3.35-2.74-5.52-4.73l4.17-3.53,4.37,2.8.81-.92-2.94-4.14,5-4.26,2.85.64Z"/><path class="cls-2" d="M158.78,215.72c1.56,1.3,3.2,2.65,4.39,3.65l-5.25,9.44-6.69-6Z"/><path class="cls-2" d="M142.84,257.31l2.67,1.53-5.57,13.39c-2.05-2.32-3.89-4.42-5.83-6.63Z"/><path class="cls-2" d="M186.81,210.42l7.92,7.7-16.95,1.93Z"/><path class="cls-2" d="M223.78,195.45a29.78,29.78,0,0,1-13.24,16.63c-.55.34-1.53,0-2.31,0a5.34,5.34,0,0,1,.6-2,17.89,17.89,0,0,1,3.16-3.17,53.7,53.7,0,0,1,4.91-2.86C216.14,199.61,221.66,198.7,223.78,195.45Z"/><path class="cls-2" d="M194.89,213.71l6.33-5.91a36.37,36.37,0,0,0,2.33,4.72c.49.73,1.61,1,2.37,1.49C201.28,217.68,197.84,217.73,194.89,213.71Z"/><path class="cls-2" d="M152.58,241.69l-5.83-5.62,6.49-5.37,3.18,2.08C155.2,235.61,154,238.5,152.58,241.69Z"/><path class="cls-2" d="M207.59,197.54l-7.3,6.87-3-4.13,7.19-6.24Z"/><path class="cls-2" d="M182.08,204.68l3,3.35c-1.94,2.06-3.81,4-6.25,6.59l-3.35-4.22Z"/><path class="cls-2" d="M176.94,216.56,175.49,220c-1.7.15-3.64.44-5.58.45a9.64,9.64,0,0,1-2.7-.83,10.25,10.25,0,0,1,1.11-2.25c1.48-1.75,3.07-3.4,5.14-5.66Z"/><path class="cls-2" d="M205.17,209.25l-2.74-3,7.56-6.7,2,3.4Z"/><path class="cls-2" d="M189.33,207.92l5.87-5.59,3,3.91-5.56,5.68Z"/><path class="cls-2" d="M149.07,226.13l1.84,2.18c-1.9,1.94-3.71,3.81-5.72,5.88l-2.82-2.51Z"/><path class="cls-2" d="M113.88,288.06l6,5.24-3,3.34c-1.1-3.21-2-5.89-2.93-8.58Z"/><path class="cls-2" d="M228,164.33l-2.4-3,3.08-2.84v5.37Z"/><path d="M84.57,155.05c.94-3.76,2.53-10.85,4.58-17.8.73-2.48.21-3.64-1.74-5.08-5.94-4.39-11.83-8.87-17.51-13.59-4.08-3.4-5.61-8-3.81-13.13,1.73-5,6-7.1,10.77-7.58,8.16-.81,16.37-1.22,24.57-1.41,2.88-.07,4.61-.91,5.42-3.57,1.2-4,2.17-8,3.54-11.92,1.13-3.24,2.2-6.67,4.16-9.4,4.2-5.86,11.58-5.87,15.87-.12a33.83,33.83,0,0,1,4.27,8.62,122,122,0,0,1,3.64,12.29c.55,2.22,1.6,2.89,3.86,2.78,8-.36,16-.7,23.93-.66a28.85,28.85,0,0,1,9.82,1.65c7.44,2.8,8.93,10.28,3.11,15.72A147.19,147.19,0,0,1,166.29,122c-4.44,3.32-9,6.56-13.59,9.61-1.84,1.21-2,2.33-1.42,4.28q3.47,12.15,6.59,24.4a12.65,12.65,0,0,1,.06,4.47c-.81,7-6.32,10.67-12.94,8.15-3.82-1.46-7.33-3.87-10.76-6.18-4.31-2.9-8.5-6-12.55-9.27-1.94-1.56-3.24-1.33-5.12,0-5.31,3.89-10.64,7.81-16.27,11.21a13.4,13.4,0,0,1-7.84,1.71C86.84,169.78,84.5,165.84,84.57,155.05Zm38.64-76.83L120,81.88l2.9,4-.74.87-2.56-1.45c-.65-.38-1.29-.8-2-1.17-.85-.49-1.71-1-2.69-1.48l-1.72,7.48,4.92-3.34.86,1L115.67,92l1.74,3.75-.88.56-3.23-2.15-2.82,2.47c.63,1.56,1,2.38,1.31,3.22s.51,1.51.73,2.28.38,1.53.56,2.3a12.17,12.17,0,0,1-2.11-.59,17.13,17.13,0,0,1-2.27-1.72,38.44,38.44,0,0,1-2.81,3.61c-.43.44-1.35.4-2,.57a5.31,5.31,0,0,1,.38-2,32.68,32.68,0,0,1,2.87-3.14,20.94,20.94,0,0,0-3.8,0,19.41,19.41,0,0,0-3.28,1.29c.58.93,1.14,1.87,1.75,2.77s1.41,2,2.11,3l-1.15.88L97.94,105c-2.18.28-2.7,3.77-5.87,2.27L96,102.42c-3.57-1.91-6.78-.61-10.61-.76l7.37,7.76-1.15,1.26L87,107.24l-4.34,4.64.75,3.49-3.61-.69-3.6,3.42c1.06.86,1.91,1.62,2.83,2.28q6.89,5,13.81,9.89c2.18,1.57,2.61,3.44,1.63,6a73.25,73.25,0,0,0-3.54,11.58,59.13,59.13,0,0,0-1.33,13c.14,4.59,3.3,6.12,7.57,4.26a19.57,19.57,0,0,0,3.25-1.95c5.3-3.72,10.62-7.42,15.84-11.24,2.09-1.52,3.87-1.55,5.92,0,3.22,2.46,6.53,4.78,9.83,7.13,3.86,2.75,7.55,5.8,11.69,8,2.08,1.12,5.66,1.75,7.31.67s1.62-4.54,2.26-7a2.86,2.86,0,0,0-.2-1.36c-2-7.1-4-14.21-6.15-21.28-2-6.73-1.81-7.09,3.81-11.07q11.87-8.43,23.53-17.15c2-1.52,4.47-3.72,3-6.31-1-1.84-3.73-3.3-6-3.82a41.06,41.06,0,0,0-10-.65c-7.16.11-14.33.44-21.49.69-2.94.1-4.65-1.1-5.41-4.14-1.29-5.15-2.8-10.26-4.53-15.28a33.82,33.82,0,0,0-3.7-6.94c-.3-.46-1.69-.22-2.58-.3a9.79,9.79,0,0,0,.72,2.28c.69,1.11,1.58,2.1,2.38,3.14l-.8.78ZM77.87,113l-6.33-6.81c-2.26,3.72-1.34,6.78,3.17,10.25Zm2.19-2.29c2-1.91,3.73-3.5,5.6-5.24l-2.89-2.64-5.41,5.07Zm38.1-30.63c1.36-1.27,2.53-2.37,3.56-3.32l-4.06-1.92C117.43,76.42,114.53,78.06,118.16,80.07ZM74.84,105.52l4.47-2.81-.47-.68-5.59,1.71Z"/><path d="M222.27,174.57l-4.42-5.1.73-1.06a27.26,27.26,0,0,1,2.87,1.68c1.54,1.15,2.53,4,5.19.61.18,2.76.3,4.69.47,7.19l-3.26-1.43-6.12,6.33c2.08,1.78,4.23,3.5,6.2,5.4.46.45.35,1.5.5,2.28a7,7,0,0,1-2.06-.67,28.49,28.49,0,0,1-2.24-2.16c-1.83-1.61-3-4.75-6.29-2.24v-5.65C218,180.93,219.57,177.08,222.27,174.57Z"/><path class="cls-3" d="M123.21,78.22l2.68,1.23.8-.78c-.8-1-1.69-2-2.38-3.14a9.79,9.79,0,0,1-.72-2.28c.89.08,2.28-.16,2.58.3a33.82,33.82,0,0,1,3.7,6.94c1.73,5,3.24,10.13,4.53,15.28.76,3,2.47,4.24,5.41,4.14,7.16-.25,14.33-.58,21.49-.69a41.06,41.06,0,0,1,10,.65c2.22.52,4.91,2,6,3.82,1.46,2.59-1,4.79-3,6.31q-11.67,8.7-23.53,17.15c-5.62,4-5.81,4.34-3.81,11.07C149,145.29,151,152.4,153,159.5a2.86,2.86,0,0,1,.2,1.36c-.64,2.43-.66,5.93-2.26,7s-5.23.45-7.31-.67c-4.14-2.23-7.83-5.28-11.69-8-3.3-2.35-6.61-4.67-9.83-7.13-2.05-1.57-3.83-1.54-5.92,0-5.22,3.82-10.54,7.52-15.84,11.24a19.57,19.57,0,0,1-3.25,1.95c-4.27,1.86-7.43.33-7.57-4.26a59.13,59.13,0,0,1,1.33-13,73.25,73.25,0,0,1,3.54-11.58c1-2.59.55-4.46-1.63-6Q85.9,125.34,79,120.38c-.92-.66-1.77-1.42-2.83-2.28l3.6-3.42,3.61.69-.75-3.49L87,107.24l4.59,3.44,1.15-1.26-7.37-7.76c3.83.15,7-1.15,10.61.76l-3.88,4.85c3.17,1.5,3.69-2,5.87-2.27l4.79,4.11,1.15-.88c-.7-1-1.43-2-2.11-3s-1.17-1.84-1.75-2.77a19.41,19.41,0,0,1,3.28-1.29,20.94,20.94,0,0,1,3.8,0,32.68,32.68,0,0,0-2.87,3.14,5.31,5.31,0,0,0-.38,2c.69-.17,1.61-.13,2-.57a38.44,38.44,0,0,0,2.81-3.61,17.13,17.13,0,0,0,2.27,1.72,12.17,12.17,0,0,0,2.11.59c-.18-.77-.35-1.54-.56-2.3s-.46-1.54-.73-2.28-.68-1.66-1.31-3.22l2.82-2.47,3.23,2.15.88-.56L115.67,92,119,87.8l-.86-1-4.92,3.34,1.72-7.48c1,.53,1.84,1,2.69,1.48.66.37,1.3.79,2,1.17l2.56,1.45.74-.87-2.9-4Z"/><path class="cls-3" d="M77.87,113l-3.16,3.44c-4.51-3.47-5.43-6.53-3.17-10.25Z"/><path class="cls-3" d="M80.06,110.7l-2.7-2.81,5.41-5.07,2.89,2.64C83.79,107.2,82.09,108.79,80.06,110.7Z"/><path class="cls-3" d="M118.16,80.07c-3.63-2-.73-3.65-.5-5.24l4.06,1.92C120.69,77.7,119.52,78.8,118.16,80.07Z"/><path class="cls-3" d="M74.84,105.52l-1.59-1.78L78.84,102l.47.68Z"/></g></g></g></svg>